<?xml version="1.0" encoding="UTF-8" standalone="no"?>
<!DOCTYPE svg PUBLIC "-//W3C//DTD SVG 1.1//EN"
 "http://www.w3.org/Graphics/SVG/1.1/DTD/svg11.dtd">
<!-- Generated by graphviz version 2.38.0 (20140413.2041)
 -->
<!-- Title: %3 Pages: 1 -->
<svg width="281pt" height="836pt"
 viewBox="0.00 0.00 280.64 836.00" xmlns="http://www.w3.org/2000/svg" xmlns:xlink="http://www.w3.org/1999/xlink">
<g id="graph0" class="graph" transform="scale(1 1) rotate(0) translate(4 832)">
<title>%3</title>
<polygon fill="white" stroke="none" points="-4,4 -4,-832 276.643,-832 276.643,4 -4,4"/>
<!-- 0 -->
<g id="node1" class="node"><title>0</title>
<g id="a_node1"><a xlink:title="0, diversity: 1, multiplicities: 3264, labels: 0">
<ellipse fill="#f7fcf5" stroke="black" cx="135.047" cy="-810" rx="37.0935" ry="18"/>
<text text-anchor="middle" x="135.047" y="-806.3" font-family="Times,serif" font-size="14.00">0 (1): 0</text>
</a>
</g>
</g>
<!-- 1 -->
<g id="node2" class="node"><title>1</title>
<g id="a_node2"><a xlink:title="1, diversity: 2, multiplicities: 1,1100, labels: 0">
<ellipse fill="#f7fcf5" stroke="black" cx="87.0467" cy="-738" rx="37.0935" ry="18"/>
<text text-anchor="middle" x="87.0467" y="-734.3" font-family="Times,serif" font-size="14.00">1 (2): 0</text>
</a>
</g>
</g>
<!-- 0&#45;&gt;1 -->
<g id="edge1" class="edge"><title>0&#45;&gt;1</title>
<path fill="none" stroke="black" d="M123.914,-792.765C118.062,-784.23 110.76,-773.582 104.203,-764.019"/>
<polygon fill="black" stroke="black" points="106.994,-761.901 98.4525,-755.633 101.221,-765.86 106.994,-761.901"/>
</g>
<!-- 3 -->
<g id="node4" class="node"><title>3</title>
<g id="a_node4"><a xlink:title="3, diversity: 1, multiplicities: 103, labels: 0">
<ellipse fill="#f7fcf5" stroke="black" cx="183.047" cy="-738" rx="37.0935" ry="18"/>
<text text-anchor="middle" x="183.047" y="-734.3" font-family="Times,serif" font-size="14.00">3 (1): 0</text>
</a>
</g>
</g>
<!-- 0&#45;&gt;3 -->
<g id="edge13" class="edge"><title>0&#45;&gt;3</title>
<path fill="none" stroke="black" d="M146.18,-792.765C152.032,-784.23 159.333,-773.582 165.891,-764.019"/>
<polygon fill="black" stroke="black" points="168.872,-765.86 171.641,-755.633 163.099,-761.901 168.872,-765.86"/>
</g>
<!-- 17 -->
<g id="node18" class="node"><title>17</title>
<g id="a_node18"><a xlink:title="17, diversity: 1, multiplicities: 1, labels: 0">
<ellipse fill="#f7fcf5" stroke="black" cx="85.0467" cy="-666" rx="41.6928" ry="18"/>
<text text-anchor="middle" x="85.0467" y="-662.3" font-family="Times,serif" font-size="14.00">17 (1): 0</text>
</a>
</g>
</g>
<!-- 1&#45;&gt;17 -->
<g id="edge10" class="edge"><title>1&#45;&gt;17</title>
<path fill="none" stroke="black" d="M86.5523,-719.697C86.3319,-711.983 86.0671,-702.712 85.8214,-694.112"/>
<polygon fill="black" stroke="black" points="89.3197,-694 85.5354,-684.104 82.3225,-694.2 89.3197,-694"/>
</g>
<!-- 2 -->
<g id="node3" class="node"><title>2</title>
<g id="a_node3"><a xlink:title="2, diversity: 1, multiplicities: 505, labels: 0">
<ellipse fill="#f7fcf5" stroke="black" cx="134.047" cy="-306" rx="37.0935" ry="18"/>
<text text-anchor="middle" x="134.047" y="-302.3" font-family="Times,serif" font-size="14.00">2 (1): 0</text>
</a>
</g>
</g>
<!-- 8 -->
<g id="node9" class="node"><title>8</title>
<g id="a_node9"><a xlink:title="8, diversity: 2, multiplicities: 1,539, labels: 0">
<ellipse fill="#f7fcf5" stroke="black" cx="86.0467" cy="-234" rx="37.0935" ry="18"/>
<text text-anchor="middle" x="86.0467" y="-230.3" font-family="Times,serif" font-size="14.00">8 (2): 0</text>
</a>
</g>
</g>
<!-- 2&#45;&gt;8 -->
<g id="edge6" class="edge"><title>2&#45;&gt;8</title>
<path fill="none" stroke="black" d="M122.914,-288.765C117.062,-280.23 109.76,-269.582 103.203,-260.019"/>
<polygon fill="black" stroke="black" points="105.994,-257.901 97.4525,-251.633 100.221,-261.86 105.994,-257.901"/>
</g>
<!-- 14 -->
<g id="node15" class="node"><title>14</title>
<g id="a_node15"><a xlink:title="14, diversity: 1, multiplicities: 2, labels: 0">
<ellipse fill="#f7fcf5" stroke="black" cx="183.047" cy="-234" rx="41.6928" ry="18"/>
<text text-anchor="middle" x="183.047" y="-230.3" font-family="Times,serif" font-size="14.00">14 (1): 0</text>
</a>
</g>
</g>
<!-- 2&#45;&gt;14 -->
<g id="edge14" class="edge"><title>2&#45;&gt;14</title>
<path fill="none" stroke="black" d="M145.411,-288.765C151.386,-280.23 158.839,-269.582 165.533,-260.019"/>
<polygon fill="black" stroke="black" points="168.536,-261.833 171.403,-251.633 162.801,-257.819 168.536,-261.833"/>
</g>
<!-- 12 -->
<g id="node13" class="node"><title>12</title>
<g id="a_node13"><a xlink:title="12, diversity: 1, multiplicities: 6, labels: 0">
<ellipse fill="#f7fcf5" stroke="black" cx="186.047" cy="-666" rx="41.6928" ry="18"/>
<text text-anchor="middle" x="186.047" y="-662.3" font-family="Times,serif" font-size="14.00">12 (1): 0</text>
</a>
</g>
</g>
<!-- 3&#45;&gt;12 -->
<g id="edge4" class="edge"><title>3&#45;&gt;12</title>
<path fill="none" stroke="black" d="M183.788,-719.697C184.119,-711.983 184.516,-702.712 184.885,-694.112"/>
<polygon fill="black" stroke="black" points="188.382,-694.245 185.314,-684.104 181.389,-693.945 188.382,-694.245"/>
</g>
<!-- 4 -->
<g id="node5" class="node"><title>4</title>
<g id="a_node5"><a xlink:title="4, diversity: 2, multiplicities: 1,342, labels: 0">
<ellipse fill="#f7fcf5" stroke="black" cx="183.047" cy="-162" rx="37.0935" ry="18"/>
<text text-anchor="middle" x="183.047" y="-158.3" font-family="Times,serif" font-size="14.00">4 (2): 0</text>
</a>
</g>
</g>
<!-- 6 -->
<g id="node7" class="node"><title>6</title>
<g id="a_node7"><a xlink:title="6, diversity: 1, multiplicities: 290, labels: 0">
<ellipse fill="#f7fcf5" stroke="black" cx="134.047" cy="-90" rx="37.0935" ry="18"/>
<text text-anchor="middle" x="134.047" y="-86.3" font-family="Times,serif" font-size="14.00">6 (1): 0</text>
</a>
</g>
</g>
<!-- 4&#45;&gt;6 -->
<g id="edge17" class="edge"><title>4&#45;&gt;6</title>
<path fill="none" stroke="black" d="M171.682,-144.765C165.621,-136.106 158.038,-125.273 151.27,-115.604"/>
<polygon fill="black" stroke="black" points="153.952,-113.333 145.35,-107.147 148.217,-117.347 153.952,-113.333"/>
</g>
<!-- 11 -->
<g id="node12" class="node"><title>11</title>
<g id="a_node12"><a xlink:title="11, diversity: 1, multiplicities: 27, labels: 0">
<ellipse fill="#f7fcf5" stroke="black" cx="231.047" cy="-90" rx="41.6928" ry="18"/>
<text text-anchor="middle" x="231.047" y="-86.3" font-family="Times,serif" font-size="14.00">11 (1): 0</text>
</a>
</g>
</g>
<!-- 4&#45;&gt;11 -->
<g id="edge16" class="edge"><title>4&#45;&gt;11</title>
<path fill="none" stroke="black" d="M194.18,-144.765C200.032,-136.23 207.333,-125.582 213.891,-116.019"/>
<polygon fill="black" stroke="black" points="216.872,-117.86 219.641,-107.633 211.099,-113.901 216.872,-117.86"/>
</g>
<!-- 5 -->
<g id="node6" class="node"><title>5</title>
<g id="a_node6"><a xlink:title="5, diversity: 1, multiplicities: 610, labels: 0">
<ellipse fill="#f7fcf5" stroke="black" cx="37.0467" cy="-450" rx="37.0935" ry="18"/>
<text text-anchor="middle" x="37.0467" y="-446.3" font-family="Times,serif" font-size="14.00">5 (1): 0</text>
</a>
</g>
</g>
<!-- 9 -->
<g id="node10" class="node"><title>9</title>
<g id="a_node10"><a xlink:title="9, diversity: 1, multiplicities: 16, labels: 0">
<ellipse fill="#f7fcf5" stroke="black" cx="134.047" cy="-18" rx="37.0935" ry="18"/>
<text text-anchor="middle" x="134.047" y="-14.3" font-family="Times,serif" font-size="14.00">9 (1): 0</text>
</a>
</g>
</g>
<!-- 6&#45;&gt;9 -->
<g id="edge3" class="edge"><title>6&#45;&gt;9</title>
<path fill="none" stroke="black" d="M134.047,-71.6966C134.047,-63.9827 134.047,-54.7125 134.047,-46.1124"/>
<polygon fill="black" stroke="black" points="137.547,-46.1043 134.047,-36.1043 130.547,-46.1044 137.547,-46.1043"/>
</g>
<!-- 7 -->
<g id="node8" class="node"><title>7</title>
<g id="a_node8"><a xlink:title="7, diversity: 1, multiplicities: 506, labels: 0">
<ellipse fill="#f7fcf5" stroke="black" cx="85.0467" cy="-522" rx="37.0935" ry="18"/>
<text text-anchor="middle" x="85.0467" y="-518.3" font-family="Times,serif" font-size="14.00">7 (1): 0</text>
</a>
</g>
</g>
<!-- 7&#45;&gt;5 -->
<g id="edge9" class="edge"><title>7&#45;&gt;5</title>
<path fill="none" stroke="black" d="M73.9139,-504.765C68.0617,-496.23 60.7602,-485.582 54.2027,-476.019"/>
<polygon fill="black" stroke="black" points="56.9944,-473.901 48.4525,-467.633 51.2212,-477.86 56.9944,-473.901"/>
</g>
<!-- 15 -->
<g id="node16" class="node"><title>15</title>
<g id="a_node16"><a xlink:title="15, diversity: 1, multiplicities: 2, labels: 0">
<ellipse fill="#f7fcf5" stroke="black" cx="134.047" cy="-450" rx="41.6928" ry="18"/>
<text text-anchor="middle" x="134.047" y="-446.3" font-family="Times,serif" font-size="14.00">15 (1): 0</text>
</a>
</g>
</g>
<!-- 7&#45;&gt;15 -->
<g id="edge5" class="edge"><title>7&#45;&gt;15</title>
<path fill="none" stroke="black" d="M96.4115,-504.765C102.386,-496.23 109.839,-485.582 116.533,-476.019"/>
<polygon fill="black" stroke="black" points="119.536,-477.833 122.403,-467.633 113.801,-473.819 119.536,-477.833"/>
</g>
<!-- 10 -->
<g id="node11" class="node"><title>10</title>
<g id="a_node11"><a xlink:title="10, diversity: 1, multiplicities: 38, labels: 0">
<ellipse fill="#f7fcf5" stroke="black" cx="86.0467" cy="-162" rx="41.6928" ry="18"/>
<text text-anchor="middle" x="86.0467" y="-158.3" font-family="Times,serif" font-size="14.00">10 (1): 0</text>
</a>
</g>
</g>
<!-- 8&#45;&gt;10 -->
<g id="edge7" class="edge"><title>8&#45;&gt;10</title>
<path fill="none" stroke="black" d="M86.0467,-215.697C86.0467,-207.983 86.0467,-198.712 86.0467,-190.112"/>
<polygon fill="black" stroke="black" points="89.5468,-190.104 86.0467,-180.104 82.5468,-190.104 89.5468,-190.104"/>
</g>
<!-- 13 -->
<g id="node14" class="node"><title>13</title>
<g id="a_node14"><a xlink:title="13, diversity: 1, multiplicities: 1, labels: 0">
<ellipse fill="#f7fcf5" stroke="black" cx="85.0467" cy="-594" rx="41.6928" ry="18"/>
<text text-anchor="middle" x="85.0467" y="-590.3" font-family="Times,serif" font-size="14.00">13 (1): 0</text>
</a>
</g>
</g>
<!-- 13&#45;&gt;7 -->
<g id="edge2" class="edge"><title>13&#45;&gt;7</title>
<path fill="none" stroke="black" d="M85.0467,-575.697C85.0467,-567.983 85.0467,-558.712 85.0467,-550.112"/>
<polygon fill="black" stroke="black" points="88.5468,-550.104 85.0467,-540.104 81.5468,-550.104 88.5468,-550.104"/>
</g>
<!-- 14&#45;&gt;4 -->
<g id="edge11" class="edge"><title>14&#45;&gt;4</title>
<path fill="none" stroke="black" d="M183.047,-215.697C183.047,-207.983 183.047,-198.712 183.047,-190.112"/>
<polygon fill="black" stroke="black" points="186.547,-190.104 183.047,-180.104 179.547,-190.104 186.547,-190.104"/>
</g>
<!-- 16 -->
<g id="node17" class="node"><title>16</title>
<g id="a_node17"><a xlink:title="16, diversity: 1, multiplicities: 1, labels: 0">
<ellipse fill="#f7fcf5" stroke="black" cx="134.047" cy="-378" rx="41.6928" ry="18"/>
<text text-anchor="middle" x="134.047" y="-374.3" font-family="Times,serif" font-size="14.00">16 (1): 0</text>
</a>
</g>
</g>
<!-- 15&#45;&gt;16 -->
<g id="edge15" class="edge"><title>15&#45;&gt;16</title>
<path fill="none" stroke="black" d="M134.047,-431.697C134.047,-423.983 134.047,-414.712 134.047,-406.112"/>
<polygon fill="black" stroke="black" points="137.547,-406.104 134.047,-396.104 130.547,-406.104 137.547,-406.104"/>
</g>
<!-- 16&#45;&gt;2 -->
<g id="edge8" class="edge"><title>16&#45;&gt;2</title>
<path fill="none" stroke="black" d="M134.047,-359.697C134.047,-351.983 134.047,-342.712 134.047,-334.112"/>
<polygon fill="black" stroke="black" points="137.547,-334.104 134.047,-324.104 130.547,-334.104 137.547,-334.104"/>
</g>
<!-- 17&#45;&gt;13 -->
<g id="edge12" class="edge"><title>17&#45;&gt;13</title>
<path fill="none" stroke="black" d="M85.0467,-647.697C85.0467,-639.983 85.0467,-630.712 85.0467,-622.112"/>
<polygon fill="black" stroke="black" points="88.5468,-622.104 85.0467,-612.104 81.5468,-622.104 88.5468,-622.104"/>
</g>
</g>
</svg>
