<?xml version="1.0" encoding="UTF-8" standalone="no"?>
<!DOCTYPE svg PUBLIC "-//W3C//DTD SVG 1.1//EN"
 "http://www.w3.org/Graphics/SVG/1.1/DTD/svg11.dtd">
<!-- Generated by graphviz version 2.38.0 (20140413.2041)
 -->
<!-- Title: %3 Pages: 1 -->
<svg width="177pt" height="260pt"
 viewBox="0.00 0.00 176.50 260.00" xmlns="http://www.w3.org/2000/svg" xmlns:xlink="http://www.w3.org/1999/xlink">
<g id="graph0" class="graph" transform="scale(1 1) rotate(0) translate(4 256)">
<title>%3</title>
<polygon fill="white" stroke="none" points="-4,4 -4,-256 172.5,-256 172.5,4 -4,4"/>
<!-- p0 -->
<g id="node1" class="node"><title>p0</title>
<path fill="none" stroke="black" d="M47,-36C47,-36 12,-36 12,-36 6,-36 0,-30 0,-24 0,-24 0,-12 0,-12 0,-6 6,-0 12,-0 12,-0 47,-0 47,-0 53,-0 59,-6 59,-12 59,-12 59,-24 59,-24 59,-30 53,-36 47,-36"/>
<text text-anchor="middle" x="29.5" y="-14.3" font-family="Times,serif" font-size="14.00">path (3)</text>
</g>
<!-- p1 -->
<g id="node2" class="node"><title>p1</title>
<path fill="none" stroke="black" d="M84,-180C84,-180 49,-180 49,-180 43,-180 37,-174 37,-168 37,-168 37,-156 37,-156 37,-150 43,-144 49,-144 49,-144 84,-144 84,-144 90,-144 96,-150 96,-156 96,-156 96,-168 96,-168 96,-174 90,-180 84,-180"/>
<text text-anchor="middle" x="66.5" y="-158.3" font-family="Times,serif" font-size="14.00">path (4)</text>
</g>
<!-- v7 -->
<g id="node4" class="node"><title>v7</title>
<ellipse fill="none" stroke="black" cx="66.5" cy="-90" rx="27" ry="18"/>
<text text-anchor="middle" x="66.5" y="-86.3" font-family="Times,serif" font-size="14.00">7</text>
</g>
<!-- p1&#45;&gt;v7 -->
<g id="edge4" class="edge"><title>p1&#45;&gt;v7</title>
<path fill="none" stroke="black" d="M66.5,-143.697C66.5,-135.983 66.5,-126.712 66.5,-118.112"/>
<polygon fill="black" stroke="black" points="70.0001,-118.104 66.5,-108.104 63.0001,-118.104 70.0001,-118.104"/>
</g>
<!-- v6 -->
<g id="node3" class="node"><title>v6</title>
<ellipse fill="none" stroke="black" cx="104.5" cy="-18" rx="27" ry="18"/>
<text text-anchor="middle" x="104.5" y="-14.3" font-family="Times,serif" font-size="14.00">6</text>
</g>
<!-- v7&#45;&gt;p0 -->
<g id="edge2" class="edge"><title>v7&#45;&gt;p0</title>
<path fill="none" stroke="black" d="M57.9185,-72.7646C53.5635,-64.5255 48.1674,-54.3166 43.2511,-45.0157"/>
<polygon fill="black" stroke="black" points="46.3187,-43.3293 38.5512,-36.1239 40.13,-46.6005 46.3187,-43.3293"/>
</g>
<!-- v7&#45;&gt;v6 -->
<g id="edge3" class="edge"><title>v7&#45;&gt;v6</title>
<path fill="none" stroke="black" d="M75.3135,-72.7646C79.9177,-64.2831 85.655,-53.7144 90.8214,-44.1974"/>
<polygon fill="black" stroke="black" points="94.0393,-45.6057 95.7343,-35.1473 87.8874,-42.266 94.0393,-45.6057"/>
</g>
<!-- v8 -->
<g id="node5" class="node"><title>v8</title>
<ellipse fill="none" stroke="black" cx="141.5" cy="-162" rx="27" ry="18"/>
<text text-anchor="middle" x="141.5" y="-158.3" font-family="Times,serif" font-size="14.00">8</text>
</g>
<!-- v10 -->
<g id="node6" class="node"><title>v10</title>
<ellipse fill="none" stroke="black" cx="103.5" cy="-234" rx="27" ry="18"/>
<text text-anchor="middle" x="103.5" y="-230.3" font-family="Times,serif" font-size="14.00">10</text>
</g>
<!-- v10&#45;&gt;p1 -->
<g id="edge5" class="edge"><title>v10&#45;&gt;p1</title>
<path fill="none" stroke="black" d="M94.9185,-216.765C90.5635,-208.525 85.1674,-198.317 80.2511,-189.016"/>
<polygon fill="black" stroke="black" points="83.3187,-187.329 75.5512,-180.124 77.13,-190.6 83.3187,-187.329"/>
</g>
<!-- v10&#45;&gt;v8 -->
<g id="edge1" class="edge"><title>v10&#45;&gt;v8</title>
<path fill="none" stroke="black" d="M112.313,-216.765C116.918,-208.283 122.655,-197.714 127.821,-188.197"/>
<polygon fill="black" stroke="black" points="131.039,-189.606 132.734,-179.147 124.887,-186.266 131.039,-189.606"/>
</g>
</g>
</svg>
