<?xml version="1.0" encoding="UTF-8" standalone="no"?>
<!DOCTYPE svg PUBLIC "-//W3C//DTD SVG 1.1//EN"
 "http://www.w3.org/Graphics/SVG/1.1/DTD/svg11.dtd">
<!-- Generated by graphviz version 2.38.0 (20140413.2041)
 -->
<!-- Title: %3 Pages: 1 -->
<svg width="403pt" height="476pt"
 viewBox="0.00 0.00 402.50 476.00" xmlns="http://www.w3.org/2000/svg" xmlns:xlink="http://www.w3.org/1999/xlink">
<g id="graph0" class="graph" transform="scale(1 1) rotate(0) translate(4 472)">
<title>%3</title>
<polygon fill="white" stroke="none" points="-4,4 -4,-472 398.5,-472 398.5,4 -4,4"/>
<!-- p0 -->
<g id="node1" class="node"><title>p0</title>
<path fill="none" stroke="black" d="M122,-180C122,-180 87,-180 87,-180 81,-180 75,-174 75,-168 75,-168 75,-156 75,-156 75,-150 81,-144 87,-144 87,-144 122,-144 122,-144 128,-144 134,-150 134,-156 134,-156 134,-168 134,-168 134,-174 128,-180 122,-180"/>
<text text-anchor="middle" x="104.5" y="-158.3" font-family="Times,serif" font-size="14.00">path (2)</text>
</g>
<!-- v21 -->
<g id="node12" class="node"><title>v21</title>
<ellipse fill="none" stroke="black" cx="104.5" cy="-90" rx="27" ry="18"/>
<text text-anchor="middle" x="104.5" y="-86.3" font-family="Times,serif" font-size="14.00">21</text>
</g>
<!-- p0&#45;&gt;v21 -->
<g id="edge2" class="edge"><title>p0&#45;&gt;v21</title>
<path fill="none" stroke="black" d="M104.5,-143.697C104.5,-135.983 104.5,-126.712 104.5,-118.112"/>
<polygon fill="black" stroke="black" points="108,-118.104 104.5,-108.104 101,-118.104 108,-118.104"/>
</g>
<!-- p1 -->
<g id="node2" class="node"><title>p1</title>
<path fill="none" stroke="black" d="M47,-36C47,-36 12,-36 12,-36 6,-36 0,-30 0,-24 0,-24 0,-12 0,-12 0,-6 6,-0 12,-0 12,-0 47,-0 47,-0 53,-0 59,-6 59,-12 59,-12 59,-24 59,-24 59,-30 53,-36 47,-36"/>
<text text-anchor="middle" x="29.5" y="-14.3" font-family="Times,serif" font-size="14.00">path (3)</text>
</g>
<!-- p2 -->
<g id="node3" class="node"><title>p2</title>
<path fill="none" stroke="black" d="M199,-324C199,-324 164,-324 164,-324 158,-324 152,-318 152,-312 152,-312 152,-300 152,-300 152,-294 158,-288 164,-288 164,-288 199,-288 199,-288 205,-288 211,-294 211,-300 211,-300 211,-312 211,-312 211,-318 205,-324 199,-324"/>
<text text-anchor="middle" x="181.5" y="-302.3" font-family="Times,serif" font-size="14.00">path (5)</text>
</g>
<!-- v16 -->
<g id="node10" class="node"><title>v16</title>
<ellipse fill="none" stroke="black" cx="181.5" cy="-234" rx="27" ry="18"/>
<text text-anchor="middle" x="181.5" y="-230.3" font-family="Times,serif" font-size="14.00">16</text>
</g>
<!-- p2&#45;&gt;v16 -->
<g id="edge3" class="edge"><title>p2&#45;&gt;v16</title>
<path fill="none" stroke="black" d="M181.5,-287.697C181.5,-279.983 181.5,-270.712 181.5,-262.112"/>
<polygon fill="black" stroke="black" points="185,-262.104 181.5,-252.104 178,-262.104 185,-262.104"/>
</g>
<!-- v5 -->
<g id="node4" class="node"><title>v5</title>
<ellipse fill="none" stroke="black" cx="256.5" cy="-378" rx="27" ry="18"/>
<text text-anchor="middle" x="256.5" y="-374.3" font-family="Times,serif" font-size="14.00">5</text>
</g>
<!-- v5&#45;&gt;p2 -->
<g id="edge6" class="edge"><title>v5&#45;&gt;p2</title>
<path fill="none" stroke="black" d="M241.323,-362.834C231.585,-353.746 218.69,-341.71 207.366,-331.141"/>
<polygon fill="black" stroke="black" points="209.534,-328.377 199.835,-324.113 204.758,-333.495 209.534,-328.377"/>
</g>
<!-- v7 -->
<g id="node5" class="node"><title>v7</title>
<ellipse fill="none" stroke="black" cx="256.5" cy="-306" rx="27" ry="18"/>
<text text-anchor="middle" x="256.5" y="-302.3" font-family="Times,serif" font-size="14.00">7</text>
</g>
<!-- v5&#45;&gt;v7 -->
<g id="edge11" class="edge"><title>v5&#45;&gt;v7</title>
<path fill="none" stroke="black" d="M256.5,-359.697C256.5,-351.983 256.5,-342.712 256.5,-334.112"/>
<polygon fill="black" stroke="black" points="260,-334.104 256.5,-324.104 253,-334.104 260,-334.104"/>
</g>
<!-- v11 -->
<g id="node7" class="node"><title>v11</title>
<ellipse fill="none" stroke="black" cx="328.5" cy="-306" rx="27" ry="18"/>
<text text-anchor="middle" x="328.5" y="-302.3" font-family="Times,serif" font-size="14.00">11</text>
</g>
<!-- v5&#45;&gt;v11 -->
<g id="edge7" class="edge"><title>v5&#45;&gt;v11</title>
<path fill="none" stroke="black" d="M271.07,-362.834C281.25,-352.938 295.024,-339.546 306.531,-328.359"/>
<polygon fill="black" stroke="black" points="308.974,-330.865 313.704,-321.385 304.095,-325.846 308.974,-330.865"/>
</g>
<!-- p3 -->
<g id="node6" class="node"><title>p3</title>
<path fill="none" stroke="black" d="M349,-396C349,-396 314,-396 314,-396 308,-396 302,-390 302,-384 302,-384 302,-372 302,-372 302,-366 308,-360 314,-360 314,-360 349,-360 349,-360 355,-360 361,-366 361,-372 361,-372 361,-384 361,-384 361,-390 355,-396 349,-396"/>
<text text-anchor="middle" x="331.5" y="-374.3" font-family="Times,serif" font-size="14.00">path (3)</text>
</g>
<!-- p5 -->
<g id="node15" class="node"><title>p5</title>
<path fill="none" stroke="black" d="M310,-252C310,-252 275,-252 275,-252 269,-252 263,-246 263,-240 263,-240 263,-228 263,-228 263,-222 269,-216 275,-216 275,-216 310,-216 310,-216 316,-216 322,-222 322,-228 322,-228 322,-240 322,-240 322,-246 316,-252 310,-252"/>
<text text-anchor="middle" x="292.5" y="-230.3" font-family="Times,serif" font-size="14.00">path (3)</text>
</g>
<!-- v11&#45;&gt;p5 -->
<g id="edge14" class="edge"><title>v11&#45;&gt;p5</title>
<path fill="none" stroke="black" d="M320.15,-288.765C315.957,-280.611 310.772,-270.529 306.029,-261.307"/>
<polygon fill="black" stroke="black" points="308.993,-259.416 301.307,-252.124 302.768,-262.618 308.993,-259.416"/>
</g>
<!-- v27 -->
<g id="node16" class="node"><title>v27</title>
<ellipse fill="none" stroke="black" cx="367.5" cy="-234" rx="27" ry="18"/>
<text text-anchor="middle" x="367.5" y="-230.3" font-family="Times,serif" font-size="14.00">27</text>
</g>
<!-- v11&#45;&gt;v27 -->
<g id="edge4" class="edge"><title>v11&#45;&gt;v27</title>
<path fill="none" stroke="black" d="M337.545,-288.765C342.32,-280.195 348.282,-269.494 353.627,-259.9"/>
<polygon fill="black" stroke="black" points="356.694,-261.586 358.504,-251.147 350.579,-258.18 356.694,-261.586"/>
</g>
<!-- v12 -->
<g id="node8" class="node"><title>v12</title>
<ellipse fill="none" stroke="black" cx="293.5" cy="-450" rx="27" ry="18"/>
<text text-anchor="middle" x="293.5" y="-446.3" font-family="Times,serif" font-size="14.00">12</text>
</g>
<!-- v12&#45;&gt;v5 -->
<g id="edge1" class="edge"><title>v12&#45;&gt;v5</title>
<path fill="none" stroke="black" d="M284.918,-432.765C280.435,-424.283 274.849,-413.714 269.819,-404.197"/>
<polygon fill="black" stroke="black" points="272.802,-402.353 265.035,-395.147 266.614,-405.624 272.802,-402.353"/>
</g>
<!-- v12&#45;&gt;p3 -->
<g id="edge15" class="edge"><title>v12&#45;&gt;p3</title>
<path fill="none" stroke="black" d="M302.313,-432.765C306.786,-424.525 312.328,-414.317 317.377,-405.016"/>
<polygon fill="black" stroke="black" points="320.509,-406.582 322.204,-396.124 314.357,-403.243 320.509,-406.582"/>
</g>
<!-- p4 -->
<g id="node9" class="node"><title>p4</title>
<path fill="none" stroke="black" d="M199,-180C199,-180 164,-180 164,-180 158,-180 152,-174 152,-168 152,-168 152,-156 152,-156 152,-150 158,-144 164,-144 164,-144 199,-144 199,-144 205,-144 211,-150 211,-156 211,-156 211,-168 211,-168 211,-174 205,-180 199,-180"/>
<text text-anchor="middle" x="181.5" y="-158.3" font-family="Times,serif" font-size="14.00">path (3)</text>
</g>
<!-- v16&#45;&gt;p0 -->
<g id="edge13" class="edge"><title>v16&#45;&gt;p0</title>
<path fill="none" stroke="black" d="M165.918,-218.834C155.921,-209.746 142.682,-197.71 131.055,-187.141"/>
<polygon fill="black" stroke="black" points="133.078,-184.25 123.324,-180.113 128.369,-189.429 133.078,-184.25"/>
</g>
<!-- v16&#45;&gt;p4 -->
<g id="edge5" class="edge"><title>v16&#45;&gt;p4</title>
<path fill="none" stroke="black" d="M181.5,-215.697C181.5,-207.983 181.5,-198.712 181.5,-190.112"/>
<polygon fill="black" stroke="black" points="185,-190.104 181.5,-180.104 178,-190.104 185,-190.104"/>
</g>
<!-- v19 -->
<g id="node11" class="node"><title>v19</title>
<ellipse fill="none" stroke="black" cx="256.5" cy="-162" rx="27" ry="18"/>
<text text-anchor="middle" x="256.5" y="-158.3" font-family="Times,serif" font-size="14.00">19</text>
</g>
<!-- v16&#45;&gt;v19 -->
<g id="edge9" class="edge"><title>v16&#45;&gt;v19</title>
<path fill="none" stroke="black" d="M196.677,-218.834C207.351,-208.872 221.819,-195.369 233.853,-184.137"/>
<polygon fill="black" stroke="black" points="236.423,-186.526 241.345,-177.144 231.646,-181.409 236.423,-186.526"/>
</g>
<!-- v21&#45;&gt;p1 -->
<g id="edge12" class="edge"><title>v21&#45;&gt;p1</title>
<path fill="none" stroke="black" d="M89.3226,-74.8345C79.5849,-65.7459 66.6898,-53.7105 55.3657,-43.1413"/>
<polygon fill="black" stroke="black" points="57.5338,-40.3772 47.8351,-36.1127 52.7575,-45.4946 57.5338,-40.3772"/>
</g>
<!-- v22 -->
<g id="node13" class="node"><title>v22</title>
<ellipse fill="none" stroke="black" cx="104.5" cy="-18" rx="27" ry="18"/>
<text text-anchor="middle" x="104.5" y="-14.3" font-family="Times,serif" font-size="14.00">22</text>
</g>
<!-- v21&#45;&gt;v22 -->
<g id="edge10" class="edge"><title>v21&#45;&gt;v22</title>
<path fill="none" stroke="black" d="M104.5,-71.6966C104.5,-63.9827 104.5,-54.7125 104.5,-46.1124"/>
<polygon fill="black" stroke="black" points="108,-46.1043 104.5,-36.1043 101,-46.1044 108,-46.1043"/>
</g>
<!-- v23 -->
<g id="node14" class="node"><title>v23</title>
<ellipse fill="none" stroke="black" cx="176.5" cy="-18" rx="27" ry="18"/>
<text text-anchor="middle" x="176.5" y="-14.3" font-family="Times,serif" font-size="14.00">23</text>
</g>
<!-- v21&#45;&gt;v23 -->
<g id="edge8" class="edge"><title>v21&#45;&gt;v23</title>
<path fill="none" stroke="black" d="M119.07,-74.8345C129.25,-64.9376 143.024,-51.5462 154.531,-40.3591"/>
<polygon fill="black" stroke="black" points="156.974,-42.865 161.704,-33.3847 152.095,-37.8461 156.974,-42.865"/>
</g>
</g>
</svg>
