<?xml version="1.0" encoding="UTF-8" standalone="no"?>
<!DOCTYPE svg PUBLIC "-//W3C//DTD SVG 1.1//EN"
 "http://www.w3.org/Graphics/SVG/1.1/DTD/svg11.dtd">
<!-- Generated by graphviz version 2.38.0 (20140413.2041)
 -->
<!-- Title: %3 Pages: 1 -->
<svg width="665pt" height="260pt"
 viewBox="0.00 0.00 665.00 260.00" xmlns="http://www.w3.org/2000/svg" xmlns:xlink="http://www.w3.org/1999/xlink">
<g id="graph0" class="graph" transform="scale(1 1) rotate(0) translate(4 256)">
<title>%3</title>
<polygon fill="white" stroke="none" points="-4,4 -4,-256 661,-256 661,4 -4,4"/>
<!-- v0 -->
<g id="node1" class="node"><title>v0</title>
<ellipse fill="none" stroke="black" cx="32.5" cy="-18" rx="27" ry="18"/>
<text text-anchor="middle" x="32.5" y="-14.3" font-family="Times,serif" font-size="14.00">0</text>
</g>
<!-- v1 -->
<g id="node2" class="node"><title>v1</title>
<ellipse fill="none" stroke="black" cx="326.5" cy="-162" rx="27" ry="18"/>
<text text-anchor="middle" x="326.5" y="-158.3" font-family="Times,serif" font-size="14.00">1</text>
</g>
<!-- p0 -->
<g id="node4" class="node"><title>p0</title>
<path fill="none" stroke="black" d="M47,-108C47,-108 12,-108 12,-108 6,-108 0,-102 0,-96 0,-96 0,-84 0,-84 0,-78 6,-72 12,-72 12,-72 47,-72 47,-72 53,-72 59,-78 59,-84 59,-84 59,-96 59,-96 59,-102 53,-108 47,-108"/>
<text text-anchor="middle" x="29.5" y="-86.3" font-family="Times,serif" font-size="14.00">path (2)</text>
</g>
<!-- v1&#45;&gt;p0 -->
<g id="edge2" class="edge"><title>v1&#45;&gt;p0</title>
<path fill="none" stroke="black" d="M300.039,-157.427C252.786,-150.639 151.105,-134.173 68.5,-108 68.4032,-107.969 68.3063,-107.938 68.2093,-107.907"/>
<polygon fill="black" stroke="black" points="69.6604,-104.709 59.0658,-104.646 67.3089,-111.302 69.6604,-104.709"/>
</g>
<!-- v6 -->
<g id="node7" class="node"><title>v6</title>
<ellipse fill="none" stroke="black" cx="104.5" cy="-90" rx="27" ry="18"/>
<text text-anchor="middle" x="104.5" y="-86.3" font-family="Times,serif" font-size="14.00">6</text>
</g>
<!-- v1&#45;&gt;v6 -->
<g id="edge5" class="edge"><title>v1&#45;&gt;v6</title>
<path fill="none" stroke="black" d="M301.411,-155.237C265.282,-146.628 196.763,-129.138 140.5,-108 138.656,-107.307 136.776,-106.558 134.892,-105.773"/>
<polygon fill="black" stroke="black" points="136.134,-102.496 125.572,-101.655 133.304,-108.898 136.134,-102.496"/>
</g>
<!-- p1 -->
<g id="node8" class="node"><title>p1</title>
<path fill="none" stroke="black" d="M197,-108C197,-108 162,-108 162,-108 156,-108 150,-102 150,-96 150,-96 150,-84 150,-84 150,-78 156,-72 162,-72 162,-72 197,-72 197,-72 203,-72 209,-78 209,-84 209,-84 209,-96 209,-96 209,-102 203,-108 197,-108"/>
<text text-anchor="middle" x="179.5" y="-86.3" font-family="Times,serif" font-size="14.00">path (2)</text>
</g>
<!-- v1&#45;&gt;p1 -->
<g id="edge15" class="edge"><title>v1&#45;&gt;p1</title>
<path fill="none" stroke="black" d="M305.125,-150.821C282.375,-139.988 245.897,-122.618 218.097,-109.379"/>
<polygon fill="black" stroke="black" points="219.567,-106.203 209.034,-105.064 216.557,-112.523 219.567,-106.203"/>
</g>
<!-- v9 -->
<g id="node9" class="node"><title>v9</title>
<ellipse fill="none" stroke="black" cx="254.5" cy="-90" rx="27" ry="18"/>
<text text-anchor="middle" x="254.5" y="-86.3" font-family="Times,serif" font-size="14.00">9</text>
</g>
<!-- v1&#45;&gt;v9 -->
<g id="edge11" class="edge"><title>v1&#45;&gt;v9</title>
<path fill="none" stroke="black" d="M311.93,-146.834C301.75,-136.938 287.976,-123.546 276.469,-112.359"/>
<polygon fill="black" stroke="black" points="278.905,-109.846 269.296,-105.385 274.026,-114.865 278.905,-109.846"/>
</g>
<!-- v11 -->
<g id="node11" class="node"><title>v11</title>
<ellipse fill="none" stroke="black" cx="326.5" cy="-90" rx="27" ry="18"/>
<text text-anchor="middle" x="326.5" y="-86.3" font-family="Times,serif" font-size="14.00">11</text>
</g>
<!-- v1&#45;&gt;v11 -->
<g id="edge6" class="edge"><title>v1&#45;&gt;v11</title>
<path fill="none" stroke="black" d="M326.5,-143.697C326.5,-135.983 326.5,-126.712 326.5,-118.112"/>
<polygon fill="black" stroke="black" points="330,-118.104 326.5,-108.104 323,-118.104 330,-118.104"/>
</g>
<!-- v12 -->
<g id="node12" class="node"><title>v12</title>
<ellipse fill="none" stroke="black" cx="398.5" cy="-90" rx="27" ry="18"/>
<text text-anchor="middle" x="398.5" y="-86.3" font-family="Times,serif" font-size="14.00">12</text>
</g>
<!-- v1&#45;&gt;v12 -->
<g id="edge14" class="edge"><title>v1&#45;&gt;v12</title>
<path fill="none" stroke="black" d="M341.07,-146.834C351.25,-136.938 365.024,-123.546 376.531,-112.359"/>
<polygon fill="black" stroke="black" points="378.974,-114.865 383.704,-105.385 374.095,-109.846 378.974,-114.865"/>
</g>
<!-- p2 -->
<g id="node13" class="node"><title>p2</title>
<path fill="none" stroke="black" d="M491,-108C491,-108 456,-108 456,-108 450,-108 444,-102 444,-96 444,-96 444,-84 444,-84 444,-78 450,-72 456,-72 456,-72 491,-72 491,-72 497,-72 503,-78 503,-84 503,-84 503,-96 503,-96 503,-102 497,-108 491,-108"/>
<text text-anchor="middle" x="473.5" y="-86.3" font-family="Times,serif" font-size="14.00">path (2)</text>
</g>
<!-- v1&#45;&gt;p2 -->
<g id="edge3" class="edge"><title>v1&#45;&gt;p2</title>
<path fill="none" stroke="black" d="M347.875,-150.821C370.625,-139.988 407.103,-122.618 434.903,-109.379"/>
<polygon fill="black" stroke="black" points="436.443,-112.523 443.966,-105.064 433.433,-106.203 436.443,-112.523"/>
</g>
<!-- p3 -->
<g id="node14" class="node"><title>p3</title>
<path fill="none" stroke="black" d="M568,-108C568,-108 533,-108 533,-108 527,-108 521,-102 521,-96 521,-96 521,-84 521,-84 521,-78 527,-72 533,-72 533,-72 568,-72 568,-72 574,-72 580,-78 580,-84 580,-84 580,-96 580,-96 580,-102 574,-108 568,-108"/>
<text text-anchor="middle" x="550.5" y="-86.3" font-family="Times,serif" font-size="14.00">path (3)</text>
</g>
<!-- v1&#45;&gt;p3 -->
<g id="edge1" class="edge"><title>v1&#45;&gt;p3</title>
<path fill="none" stroke="black" d="M351.669,-154.915C387.577,-145.981 455.378,-128.171 511.5,-108 511.596,-107.966 511.691,-107.931 511.787,-107.897"/>
<polygon fill="black" stroke="black" points="512.779,-111.265 520.852,-104.405 510.263,-104.733 512.779,-111.265"/>
</g>
<!-- p5 -->
<g id="node16" class="node"><title>p5</title>
<path fill="none" stroke="black" d="M645,-108C645,-108 610,-108 610,-108 604,-108 598,-102 598,-96 598,-96 598,-84 598,-84 598,-78 604,-72 610,-72 610,-72 645,-72 645,-72 651,-72 657,-78 657,-84 657,-84 657,-96 657,-96 657,-102 651,-108 645,-108"/>
<text text-anchor="middle" x="627.5" y="-86.3" font-family="Times,serif" font-size="14.00">path (2)</text>
</g>
<!-- v1&#45;&gt;p5 -->
<g id="edge7" class="edge"><title>v1&#45;&gt;p5</title>
<path fill="none" stroke="black" d="M352.995,-157.533C400.817,-150.862 504.404,-134.506 588.5,-108 588.597,-107.969 588.694,-107.939 588.791,-107.908"/>
<polygon fill="black" stroke="black" points="589.688,-111.304 597.937,-104.656 587.343,-104.708 589.688,-111.304"/>
</g>
<!-- v2 -->
<g id="node3" class="node"><title>v2</title>
<ellipse fill="none" stroke="black" cx="104.5" cy="-18" rx="27" ry="18"/>
<text text-anchor="middle" x="104.5" y="-14.3" font-family="Times,serif" font-size="14.00">2</text>
</g>
<!-- v4 -->
<g id="node5" class="node"><title>v4</title>
<ellipse fill="none" stroke="black" cx="326.5" cy="-234" rx="27" ry="18"/>
<text text-anchor="middle" x="326.5" y="-230.3" font-family="Times,serif" font-size="14.00">4</text>
</g>
<!-- v4&#45;&gt;v1 -->
<g id="edge9" class="edge"><title>v4&#45;&gt;v1</title>
<path fill="none" stroke="black" d="M326.5,-215.697C326.5,-207.983 326.5,-198.712 326.5,-190.112"/>
<polygon fill="black" stroke="black" points="330,-190.104 326.5,-180.104 323,-190.104 330,-190.104"/>
</g>
<!-- v5 -->
<g id="node6" class="node"><title>v5</title>
<ellipse fill="none" stroke="black" cx="176.5" cy="-18" rx="27" ry="18"/>
<text text-anchor="middle" x="176.5" y="-14.3" font-family="Times,serif" font-size="14.00">5</text>
</g>
<!-- v6&#45;&gt;v0 -->
<g id="edge10" class="edge"><title>v6&#45;&gt;v0</title>
<path fill="none" stroke="black" d="M89.9297,-74.8345C79.7501,-64.9376 65.9761,-51.5462 54.4694,-40.3591"/>
<polygon fill="black" stroke="black" points="56.9055,-37.8461 47.2957,-33.3847 52.0259,-42.865 56.9055,-37.8461"/>
</g>
<!-- v6&#45;&gt;v2 -->
<g id="edge4" class="edge"><title>v6&#45;&gt;v2</title>
<path fill="none" stroke="black" d="M104.5,-71.6966C104.5,-63.9827 104.5,-54.7125 104.5,-46.1124"/>
<polygon fill="black" stroke="black" points="108,-46.1043 104.5,-36.1043 101,-46.1044 108,-46.1043"/>
</g>
<!-- v6&#45;&gt;v5 -->
<g id="edge13" class="edge"><title>v6&#45;&gt;v5</title>
<path fill="none" stroke="black" d="M119.07,-74.8345C129.25,-64.9376 143.024,-51.5462 154.531,-40.3591"/>
<polygon fill="black" stroke="black" points="156.974,-42.865 161.704,-33.3847 152.095,-37.8461 156.974,-42.865"/>
</g>
<!-- v10 -->
<g id="node10" class="node"><title>v10</title>
<ellipse fill="none" stroke="black" cx="360.5" cy="-18" rx="27" ry="18"/>
<text text-anchor="middle" x="360.5" y="-14.3" font-family="Times,serif" font-size="14.00">10</text>
</g>
<!-- v12&#45;&gt;v10 -->
<g id="edge8" class="edge"><title>v12&#45;&gt;v10</title>
<path fill="none" stroke="black" d="M389.687,-72.7646C385.082,-64.2831 379.345,-53.7144 374.179,-44.1974"/>
<polygon fill="black" stroke="black" points="377.113,-42.266 369.266,-35.1473 370.961,-45.6057 377.113,-42.266"/>
</g>
<!-- p4 -->
<g id="node15" class="node"><title>p4</title>
<path fill="none" stroke="black" d="M453,-36C453,-36 418,-36 418,-36 412,-36 406,-30 406,-24 406,-24 406,-12 406,-12 406,-6 412,-0 418,-0 418,-0 453,-0 453,-0 459,-0 465,-6 465,-12 465,-12 465,-24 465,-24 465,-30 459,-36 453,-36"/>
<text text-anchor="middle" x="435.5" y="-14.3" font-family="Times,serif" font-size="14.00">path (2)</text>
</g>
<!-- v12&#45;&gt;p4 -->
<g id="edge12" class="edge"><title>v12&#45;&gt;p4</title>
<path fill="none" stroke="black" d="M407.082,-72.7646C411.437,-64.5255 416.833,-54.3166 421.749,-45.0157"/>
<polygon fill="black" stroke="black" points="424.87,-46.6005 426.449,-36.1239 418.681,-43.3293 424.87,-46.6005"/>
</g>
</g>
</svg>
