<?xml version="1.0" encoding="UTF-8" standalone="no"?>
<!DOCTYPE svg PUBLIC "-//W3C//DTD SVG 1.1//EN"
 "http://www.w3.org/Graphics/SVG/1.1/DTD/svg11.dtd">
<!-- Generated by graphviz version 2.38.0 (20140413.2041)
 -->
<!-- Title: %3 Pages: 1 -->
<svg width="471pt" height="404pt"
 viewBox="0.00 0.00 470.50 404.00" xmlns="http://www.w3.org/2000/svg" xmlns:xlink="http://www.w3.org/1999/xlink">
<g id="graph0" class="graph" transform="scale(1 1) rotate(0) translate(4 400)">
<title>%3</title>
<polygon fill="white" stroke="none" points="-4,4 -4,-400 466.5,-400 466.5,4 -4,4"/>
<!-- p0 -->
<g id="node1" class="node"><title>p0</title>
<path fill="none" stroke="black" d="M47,-180C47,-180 12,-180 12,-180 6,-180 0,-174 0,-168 0,-168 0,-156 0,-156 0,-150 6,-144 12,-144 12,-144 47,-144 47,-144 53,-144 59,-150 59,-156 59,-156 59,-168 59,-168 59,-174 53,-180 47,-180"/>
<text text-anchor="middle" x="29.5" y="-158.3" font-family="Times,serif" font-size="14.00">path (2)</text>
</g>
<!-- p1 -->
<g id="node2" class="node"><title>p1</title>
<path fill="none" stroke="black" d="M124,-180C124,-180 89,-180 89,-180 83,-180 77,-174 77,-168 77,-168 77,-156 77,-156 77,-150 83,-144 89,-144 89,-144 124,-144 124,-144 130,-144 136,-150 136,-156 136,-156 136,-168 136,-168 136,-174 130,-180 124,-180"/>
<text text-anchor="middle" x="106.5" y="-158.3" font-family="Times,serif" font-size="14.00">path (4)</text>
</g>
<!-- v2 -->
<g id="node3" class="node"><title>v2</title>
<ellipse fill="none" stroke="black" cx="181.5" cy="-234" rx="27" ry="18"/>
<text text-anchor="middle" x="181.5" y="-230.3" font-family="Times,serif" font-size="14.00">2</text>
</g>
<!-- v2&#45;&gt;p0 -->
<g id="edge12" class="edge"><title>v2&#45;&gt;p0</title>
<path fill="none" stroke="black" d="M159.722,-222.971C135.974,-212.034 97.4879,-194.31 68.5005,-180.961"/>
<polygon fill="black" stroke="black" points="69.6163,-177.621 59.0691,-176.617 66.6882,-183.98 69.6163,-177.621"/>
</g>
<!-- v2&#45;&gt;p1 -->
<g id="edge3" class="edge"><title>v2&#45;&gt;p1</title>
<path fill="none" stroke="black" d="M166.323,-218.834C156.585,-209.746 143.69,-197.71 132.366,-187.141"/>
<polygon fill="black" stroke="black" points="134.534,-184.377 124.835,-180.113 129.758,-189.495 134.534,-184.377"/>
</g>
<!-- v6 -->
<g id="node7" class="node"><title>v6</title>
<ellipse fill="none" stroke="black" cx="181.5" cy="-162" rx="27" ry="18"/>
<text text-anchor="middle" x="181.5" y="-158.3" font-family="Times,serif" font-size="14.00">6</text>
</g>
<!-- v2&#45;&gt;v6 -->
<g id="edge10" class="edge"><title>v2&#45;&gt;v6</title>
<path fill="none" stroke="black" d="M181.5,-215.697C181.5,-207.983 181.5,-198.712 181.5,-190.112"/>
<polygon fill="black" stroke="black" points="185,-190.104 181.5,-180.104 178,-190.104 185,-190.104"/>
</g>
<!-- v13 -->
<g id="node12" class="node"><title>v13</title>
<ellipse fill="none" stroke="black" cx="253.5" cy="-162" rx="27" ry="18"/>
<text text-anchor="middle" x="253.5" y="-158.3" font-family="Times,serif" font-size="14.00">13</text>
</g>
<!-- v2&#45;&gt;v13 -->
<g id="edge5" class="edge"><title>v2&#45;&gt;v13</title>
<path fill="none" stroke="black" d="M196.07,-218.834C206.25,-208.938 220.024,-195.546 231.531,-184.359"/>
<polygon fill="black" stroke="black" points="233.974,-186.865 238.704,-177.385 229.095,-181.846 233.974,-186.865"/>
</g>
<!-- v15 -->
<g id="node13" class="node"><title>v15</title>
<ellipse fill="none" stroke="black" cx="325.5" cy="-162" rx="27" ry="18"/>
<text text-anchor="middle" x="325.5" y="-158.3" font-family="Times,serif" font-size="14.00">15</text>
</g>
<!-- v2&#45;&gt;v15 -->
<g id="edge13" class="edge"><title>v2&#45;&gt;v15</title>
<path fill="none" stroke="black" d="M202.748,-222.671C227.102,-210.832 267.219,-191.331 294.928,-177.862"/>
<polygon fill="black" stroke="black" points="296.702,-180.891 304.165,-173.371 293.641,-174.595 296.702,-180.891"/>
</g>
<!-- p2 -->
<g id="node4" class="node"><title>p2</title>
<path fill="none" stroke="black" d="M47,-324C47,-324 12,-324 12,-324 6,-324 0,-318 0,-312 0,-312 0,-300 0,-300 0,-294 6,-288 12,-288 12,-288 47,-288 47,-288 53,-288 59,-294 59,-300 59,-300 59,-312 59,-312 59,-318 53,-324 47,-324"/>
<text text-anchor="middle" x="29.5" y="-302.3" font-family="Times,serif" font-size="14.00">path (2)</text>
</g>
<!-- v4 -->
<g id="node5" class="node"><title>v4</title>
<ellipse fill="none" stroke="black" cx="213.5" cy="-90" rx="27" ry="18"/>
<text text-anchor="middle" x="213.5" y="-86.3" font-family="Times,serif" font-size="14.00">4</text>
</g>
<!-- p3 -->
<g id="node6" class="node"><title>p3</title>
<path fill="none" stroke="black" d="M124,-324C124,-324 89,-324 89,-324 83,-324 77,-318 77,-312 77,-312 77,-300 77,-300 77,-294 83,-288 89,-288 89,-288 124,-288 124,-288 130,-288 136,-294 136,-300 136,-300 136,-312 136,-312 136,-318 130,-324 124,-324"/>
<text text-anchor="middle" x="106.5" y="-302.3" font-family="Times,serif" font-size="14.00">path (2)</text>
</g>
<!-- v7 -->
<g id="node8" class="node"><title>v7</title>
<ellipse fill="none" stroke="black" cx="326.5" cy="-18" rx="27" ry="18"/>
<text text-anchor="middle" x="326.5" y="-14.3" font-family="Times,serif" font-size="14.00">7</text>
</g>
<!-- p4 -->
<g id="node9" class="node"><title>p4</title>
<path fill="none" stroke="black" d="M419,-36C419,-36 384,-36 384,-36 378,-36 372,-30 372,-24 372,-24 372,-12 372,-12 372,-6 378,-0 384,-0 384,-0 419,-0 419,-0 425,-0 431,-6 431,-12 431,-12 431,-24 431,-24 431,-30 425,-36 419,-36"/>
<text text-anchor="middle" x="401.5" y="-14.3" font-family="Times,serif" font-size="14.00">path (3)</text>
</g>
<!-- p5 -->
<g id="node10" class="node"><title>p5</title>
<path fill="none" stroke="black" d="M306,-108C306,-108 271,-108 271,-108 265,-108 259,-102 259,-96 259,-96 259,-84 259,-84 259,-78 265,-72 271,-72 271,-72 306,-72 306,-72 312,-72 318,-78 318,-84 318,-84 318,-96 318,-96 318,-102 312,-108 306,-108"/>
<text text-anchor="middle" x="288.5" y="-86.3" font-family="Times,serif" font-size="14.00">path (2)</text>
</g>
<!-- v12 -->
<g id="node11" class="node"><title>v12</title>
<ellipse fill="none" stroke="black" cx="106.5" cy="-378" rx="27" ry="18"/>
<text text-anchor="middle" x="106.5" y="-374.3" font-family="Times,serif" font-size="14.00">12</text>
</g>
<!-- v12&#45;&gt;p2 -->
<g id="edge14" class="edge"><title>v12&#45;&gt;p2</title>
<path fill="none" stroke="black" d="M90.9179,-362.834C80.9205,-353.746 67.6815,-341.71 56.0555,-331.141"/>
<polygon fill="black" stroke="black" points="58.0778,-328.25 48.324,-324.113 53.3691,-333.429 58.0778,-328.25"/>
</g>
<!-- v12&#45;&gt;p3 -->
<g id="edge4" class="edge"><title>v12&#45;&gt;p3</title>
<path fill="none" stroke="black" d="M106.5,-359.697C106.5,-351.983 106.5,-342.712 106.5,-334.112"/>
<polygon fill="black" stroke="black" points="110,-334.104 106.5,-324.104 103,-334.104 110,-334.104"/>
</g>
<!-- v21 -->
<g id="node16" class="node"><title>v21</title>
<ellipse fill="none" stroke="black" cx="181.5" cy="-306" rx="27" ry="18"/>
<text text-anchor="middle" x="181.5" y="-302.3" font-family="Times,serif" font-size="14.00">21</text>
</g>
<!-- v12&#45;&gt;v21 -->
<g id="edge8" class="edge"><title>v12&#45;&gt;v21</title>
<path fill="none" stroke="black" d="M121.677,-362.834C132.351,-352.872 146.819,-339.369 158.853,-328.137"/>
<polygon fill="black" stroke="black" points="161.423,-330.526 166.345,-321.144 156.646,-325.409 161.423,-330.526"/>
</g>
<!-- v15&#45;&gt;v4 -->
<g id="edge7" class="edge"><title>v15&#45;&gt;v4</title>
<path fill="none" stroke="black" d="M306.501,-149.125C288.56,-137.913 261.449,-120.968 241.12,-108.263"/>
<polygon fill="black" stroke="black" points="242.927,-105.265 232.592,-102.933 239.217,-111.201 242.927,-105.265"/>
</g>
<!-- v15&#45;&gt;p5 -->
<g id="edge6" class="edge"><title>v15&#45;&gt;p5</title>
<path fill="none" stroke="black" d="M316.918,-144.765C312.563,-136.525 307.167,-126.317 302.251,-117.016"/>
<polygon fill="black" stroke="black" points="305.319,-115.329 297.551,-108.124 299.13,-118.6 305.319,-115.329"/>
</g>
<!-- v16 -->
<g id="node14" class="node"><title>v16</title>
<ellipse fill="none" stroke="black" cx="363.5" cy="-90" rx="27" ry="18"/>
<text text-anchor="middle" x="363.5" y="-86.3" font-family="Times,serif" font-size="14.00">16</text>
</g>
<!-- v15&#45;&gt;v16 -->
<g id="edge15" class="edge"><title>v15&#45;&gt;v16</title>
<path fill="none" stroke="black" d="M334.313,-144.765C338.918,-136.283 344.655,-125.714 349.821,-116.197"/>
<polygon fill="black" stroke="black" points="353.039,-117.606 354.734,-107.147 346.887,-114.266 353.039,-117.606"/>
</g>
<!-- v20 -->
<g id="node15" class="node"><title>v20</title>
<ellipse fill="none" stroke="black" cx="435.5" cy="-90" rx="27" ry="18"/>
<text text-anchor="middle" x="435.5" y="-86.3" font-family="Times,serif" font-size="14.00">20</text>
</g>
<!-- v15&#45;&gt;v20 -->
<g id="edge1" class="edge"><title>v15&#45;&gt;v20</title>
<path fill="none" stroke="black" d="M344.661,-148.807C362.169,-137.665 388.259,-121.062 407.993,-108.504"/>
<polygon fill="black" stroke="black" points="410.001,-111.375 416.559,-103.053 406.243,-105.469 410.001,-111.375"/>
</g>
<!-- v16&#45;&gt;v7 -->
<g id="edge2" class="edge"><title>v16&#45;&gt;v7</title>
<path fill="none" stroke="black" d="M354.918,-72.7646C350.435,-64.2831 344.849,-53.7144 339.819,-44.1974"/>
<polygon fill="black" stroke="black" points="342.802,-42.3527 335.035,-35.1473 336.614,-45.6239 342.802,-42.3527"/>
</g>
<!-- v16&#45;&gt;p4 -->
<g id="edge9" class="edge"><title>v16&#45;&gt;p4</title>
<path fill="none" stroke="black" d="M372.313,-72.7646C376.786,-64.5255 382.328,-54.3166 387.377,-45.0157"/>
<polygon fill="black" stroke="black" points="390.509,-46.5823 392.204,-36.1239 384.357,-43.2426 390.509,-46.5823"/>
</g>
<!-- v21&#45;&gt;v2 -->
<g id="edge11" class="edge"><title>v21&#45;&gt;v2</title>
<path fill="none" stroke="black" d="M181.5,-287.697C181.5,-279.983 181.5,-270.712 181.5,-262.112"/>
<polygon fill="black" stroke="black" points="185,-262.104 181.5,-252.104 178,-262.104 185,-262.104"/>
</g>
</g>
</svg>
