<?xml version="1.0" encoding="UTF-8" standalone="no"?>
<!DOCTYPE svg PUBLIC "-//W3C//DTD SVG 1.1//EN"
 "http://www.w3.org/Graphics/SVG/1.1/DTD/svg11.dtd">
<!-- Generated by graphviz version 2.38.0 (20140413.2041)
 -->
<!-- Title: %3 Pages: 1 -->
<svg width="511pt" height="332pt"
 viewBox="0.00 0.00 510.50 332.00" xmlns="http://www.w3.org/2000/svg" xmlns:xlink="http://www.w3.org/1999/xlink">
<g id="graph0" class="graph" transform="scale(1 1) rotate(0) translate(4 328)">
<title>%3</title>
<polygon fill="white" stroke="none" points="-4,4 -4,-328 506.5,-328 506.5,4 -4,4"/>
<!-- v0 -->
<g id="node1" class="node"><title>v0</title>
<ellipse fill="none" stroke="black" cx="250" cy="-234" rx="27" ry="18"/>
<text text-anchor="middle" x="250" y="-230.3" font-family="Times,serif" font-size="14.00">0</text>
</g>
<!-- v2 -->
<g id="node3" class="node"><title>v2</title>
<ellipse fill="none" stroke="black" cx="141" cy="-162" rx="27" ry="18"/>
<text text-anchor="middle" x="141" y="-158.3" font-family="Times,serif" font-size="14.00">2</text>
</g>
<!-- v0&#45;&gt;v2 -->
<g id="edge15" class="edge"><title>v0&#45;&gt;v2</title>
<path fill="none" stroke="black" d="M231.014,-220.807C213.665,-209.665 187.811,-193.062 168.257,-180.504"/>
<polygon fill="black" stroke="black" points="170.074,-177.512 159.769,-175.053 166.292,-183.402 170.074,-177.512"/>
</g>
<!-- v3 -->
<g id="node4" class="node"><title>v3</title>
<ellipse fill="none" stroke="black" cx="213" cy="-162" rx="27" ry="18"/>
<text text-anchor="middle" x="213" y="-158.3" font-family="Times,serif" font-size="14.00">3</text>
</g>
<!-- v0&#45;&gt;v3 -->
<g id="edge2" class="edge"><title>v0&#45;&gt;v3</title>
<path fill="none" stroke="black" d="M241.418,-216.765C236.935,-208.283 231.349,-197.714 226.319,-188.197"/>
<polygon fill="black" stroke="black" points="229.302,-186.353 221.535,-179.147 223.114,-189.624 229.302,-186.353"/>
</g>
<!-- p0 -->
<g id="node6" class="node"><title>p0</title>
<path fill="none" stroke="black" d="M305.5,-180C305.5,-180 270.5,-180 270.5,-180 264.5,-180 258.5,-174 258.5,-168 258.5,-168 258.5,-156 258.5,-156 258.5,-150 264.5,-144 270.5,-144 270.5,-144 305.5,-144 305.5,-144 311.5,-144 317.5,-150 317.5,-156 317.5,-156 317.5,-168 317.5,-168 317.5,-174 311.5,-180 305.5,-180"/>
<text text-anchor="middle" x="288" y="-158.3" font-family="Times,serif" font-size="14.00">path (2)</text>
</g>
<!-- v0&#45;&gt;p0 -->
<g id="edge7" class="edge"><title>v0&#45;&gt;p0</title>
<path fill="none" stroke="black" d="M258.813,-216.765C263.286,-208.525 268.828,-198.317 273.877,-189.016"/>
<polygon fill="black" stroke="black" points="277.009,-190.582 278.704,-180.124 270.857,-187.243 277.009,-190.582"/>
</g>
<!-- v8 -->
<g id="node8" class="node"><title>v8</title>
<ellipse fill="none" stroke="black" cx="398" cy="-162" rx="27" ry="18"/>
<text text-anchor="middle" x="398" y="-158.3" font-family="Times,serif" font-size="14.00">8</text>
</g>
<!-- v0&#45;&gt;v8 -->
<g id="edge10" class="edge"><title>v0&#45;&gt;v8</title>
<path fill="none" stroke="black" d="M271.52,-222.821C296.73,-210.898 338.682,-191.056 367.302,-177.519"/>
<polygon fill="black" stroke="black" points="368.91,-180.631 376.454,-173.191 365.917,-174.303 368.91,-180.631"/>
</g>
<!-- v1 -->
<g id="node2" class="node"><title>v1</title>
<ellipse fill="none" stroke="black" cx="286" cy="-306" rx="27" ry="18"/>
<text text-anchor="middle" x="286" y="-302.3" font-family="Times,serif" font-size="14.00">1</text>
</g>
<!-- v1&#45;&gt;v0 -->
<g id="edge9" class="edge"><title>v1&#45;&gt;v0</title>
<path fill="none" stroke="black" d="M277.65,-288.765C273.288,-280.283 267.853,-269.714 262.959,-260.197"/>
<polygon fill="black" stroke="black" points="265.99,-258.439 258.304,-251.147 259.765,-261.641 265.99,-258.439"/>
</g>
<!-- v7 -->
<g id="node7" class="node"><title>v7</title>
<ellipse fill="none" stroke="black" cx="322" cy="-234" rx="27" ry="18"/>
<text text-anchor="middle" x="322" y="-230.3" font-family="Times,serif" font-size="14.00">7</text>
</g>
<!-- v1&#45;&gt;v7 -->
<g id="edge12" class="edge"><title>v1&#45;&gt;v7</title>
<path fill="none" stroke="black" d="M294.35,-288.765C298.712,-280.283 304.147,-269.714 309.041,-260.197"/>
<polygon fill="black" stroke="black" points="312.235,-261.641 313.696,-251.147 306.01,-258.439 312.235,-261.641"/>
</g>
<!-- v4 -->
<g id="node5" class="node"><title>v4</title>
<ellipse fill="none" stroke="black" cx="27" cy="-90" rx="27" ry="18"/>
<text text-anchor="middle" x="27" y="-86.3" font-family="Times,serif" font-size="14.00">4</text>
</g>
<!-- v3&#45;&gt;v4 -->
<g id="edge14" class="edge"><title>v3&#45;&gt;v4</title>
<path fill="none" stroke="black" d="M191.888,-150.448C187.05,-148.194 181.891,-145.917 177,-144 127.531,-124.612 112.469,-127.388 63,-108 61.166,-107.281 59.2941,-106.512 57.4156,-105.712"/>
<polygon fill="black" stroke="black" points="58.6692,-102.438 48.1116,-101.552 55.812,-108.829 58.6692,-102.438"/>
</g>
<!-- p1 -->
<g id="node10" class="node"><title>p1</title>
<path fill="none" stroke="black" d="M119.5,-108C119.5,-108 84.5,-108 84.5,-108 78.5,-108 72.5,-102 72.5,-96 72.5,-96 72.5,-84 72.5,-84 72.5,-78 78.5,-72 84.5,-72 84.5,-72 119.5,-72 119.5,-72 125.5,-72 131.5,-78 131.5,-84 131.5,-84 131.5,-96 131.5,-96 131.5,-102 125.5,-108 119.5,-108"/>
<text text-anchor="middle" x="102" y="-86.3" font-family="Times,serif" font-size="14.00">path (3)</text>
</g>
<!-- v3&#45;&gt;p1 -->
<g id="edge8" class="edge"><title>v3&#45;&gt;p1</title>
<path fill="none" stroke="black" d="M193.918,-148.967C178.507,-139.248 156.389,-125.299 137.711,-113.52"/>
<polygon fill="black" stroke="black" points="139.461,-110.486 129.136,-108.113 135.727,-116.407 139.461,-110.486"/>
</g>
<!-- p2 -->
<g id="node11" class="node"><title>p2</title>
<path fill="none" stroke="black" d="M196.5,-108C196.5,-108 161.5,-108 161.5,-108 155.5,-108 149.5,-102 149.5,-96 149.5,-96 149.5,-84 149.5,-84 149.5,-78 155.5,-72 161.5,-72 161.5,-72 196.5,-72 196.5,-72 202.5,-72 208.5,-78 208.5,-84 208.5,-84 208.5,-96 208.5,-96 208.5,-102 202.5,-108 196.5,-108"/>
<text text-anchor="middle" x="179" y="-86.3" font-family="Times,serif" font-size="14.00">path (2)</text>
</g>
<!-- v3&#45;&gt;p2 -->
<g id="edge6" class="edge"><title>v3&#45;&gt;p2</title>
<path fill="none" stroke="black" d="M205.114,-144.765C201.154,-136.611 196.257,-126.529 191.777,-117.307"/>
<polygon fill="black" stroke="black" points="194.835,-115.59 187.317,-108.124 188.538,-118.648 194.835,-115.59"/>
</g>
<!-- v14 -->
<g id="node12" class="node"><title>v14</title>
<ellipse fill="none" stroke="black" cx="254" cy="-90" rx="27" ry="18"/>
<text text-anchor="middle" x="254" y="-86.3" font-family="Times,serif" font-size="14.00">14</text>
</g>
<!-- v3&#45;&gt;v14 -->
<g id="edge3" class="edge"><title>v3&#45;&gt;v14</title>
<path fill="none" stroke="black" d="M222.509,-144.765C227.529,-136.195 233.796,-125.494 239.415,-115.9"/>
<polygon fill="black" stroke="black" points="242.508,-117.545 244.542,-107.147 236.468,-114.007 242.508,-117.545"/>
</g>
<!-- v16 -->
<g id="node14" class="node"><title>v16</title>
<ellipse fill="none" stroke="black" cx="326" cy="-90" rx="27" ry="18"/>
<text text-anchor="middle" x="326" y="-86.3" font-family="Times,serif" font-size="14.00">16</text>
</g>
<!-- v3&#45;&gt;v16 -->
<g id="edge5" class="edge"><title>v3&#45;&gt;v16</title>
<path fill="none" stroke="black" d="M232.169,-149.125C250.27,-137.913 277.623,-120.968 298.133,-108.263"/>
<polygon fill="black" stroke="black" points="300.079,-111.174 306.737,-102.933 296.393,-105.224 300.079,-111.174"/>
</g>
<!-- v9 -->
<g id="node9" class="node"><title>v9</title>
<ellipse fill="none" stroke="black" cx="398" cy="-90" rx="27" ry="18"/>
<text text-anchor="middle" x="398" y="-86.3" font-family="Times,serif" font-size="14.00">9</text>
</g>
<!-- v8&#45;&gt;v9 -->
<g id="edge1" class="edge"><title>v8&#45;&gt;v9</title>
<path fill="none" stroke="black" d="M398,-143.697C398,-135.983 398,-126.712 398,-118.112"/>
<polygon fill="black" stroke="black" points="401.5,-118.104 398,-108.104 394.5,-118.104 401.5,-118.104"/>
</g>
<!-- p4 -->
<g id="node16" class="node"><title>p4</title>
<path fill="none" stroke="black" d="M490.5,-108C490.5,-108 455.5,-108 455.5,-108 449.5,-108 443.5,-102 443.5,-96 443.5,-96 443.5,-84 443.5,-84 443.5,-78 449.5,-72 455.5,-72 455.5,-72 490.5,-72 490.5,-72 496.5,-72 502.5,-78 502.5,-84 502.5,-84 502.5,-96 502.5,-96 502.5,-102 496.5,-108 490.5,-108"/>
<text text-anchor="middle" x="473" y="-86.3" font-family="Times,serif" font-size="14.00">path (3)</text>
</g>
<!-- v8&#45;&gt;p4 -->
<g id="edge11" class="edge"><title>v8&#45;&gt;p4</title>
<path fill="none" stroke="black" d="M413.177,-146.834C422.915,-137.746 435.81,-125.71 447.134,-115.141"/>
<polygon fill="black" stroke="black" points="449.742,-117.495 454.665,-108.113 444.966,-112.377 449.742,-117.495"/>
</g>
<!-- p3 -->
<g id="node13" class="node"><title>p3</title>
<path fill="none" stroke="black" d="M234.5,-36C234.5,-36 199.5,-36 199.5,-36 193.5,-36 187.5,-30 187.5,-24 187.5,-24 187.5,-12 187.5,-12 187.5,-6 193.5,-0 199.5,-0 199.5,-0 234.5,-0 234.5,-0 240.5,-0 246.5,-6 246.5,-12 246.5,-12 246.5,-24 246.5,-24 246.5,-30 240.5,-36 234.5,-36"/>
<text text-anchor="middle" x="217" y="-14.3" font-family="Times,serif" font-size="14.00">path (2)</text>
</g>
<!-- v14&#45;&gt;p3 -->
<g id="edge13" class="edge"><title>v14&#45;&gt;p3</title>
<path fill="none" stroke="black" d="M245.418,-72.7646C241.063,-64.5255 235.667,-54.3166 230.751,-45.0157"/>
<polygon fill="black" stroke="black" points="233.819,-43.3293 226.051,-36.1239 227.63,-46.6005 233.819,-43.3293"/>
</g>
<!-- v18 -->
<g id="node15" class="node"><title>v18</title>
<ellipse fill="none" stroke="black" cx="292" cy="-18" rx="27" ry="18"/>
<text text-anchor="middle" x="292" y="-14.3" font-family="Times,serif" font-size="14.00">18</text>
</g>
<!-- v14&#45;&gt;v18 -->
<g id="edge4" class="edge"><title>v14&#45;&gt;v18</title>
<path fill="none" stroke="black" d="M262.813,-72.7646C267.418,-64.2831 273.155,-53.7144 278.321,-44.1974"/>
<polygon fill="black" stroke="black" points="281.539,-45.6057 283.234,-35.1473 275.387,-42.266 281.539,-45.6057"/>
</g>
</g>
</svg>
