<?xml version="1.0" encoding="UTF-8" standalone="no"?>
<!DOCTYPE svg PUBLIC "-//W3C//DTD SVG 1.1//EN"
 "http://www.w3.org/Graphics/SVG/1.1/DTD/svg11.dtd">
<!-- Generated by graphviz version 2.38.0 (20140413.2041)
 -->
<!-- Title: %3 Pages: 1 -->
<svg width="212pt" height="116pt"
 viewBox="0.00 0.00 212.00 116.00" xmlns="http://www.w3.org/2000/svg" xmlns:xlink="http://www.w3.org/1999/xlink">
<g id="graph0" class="graph" transform="scale(1 1) rotate(0) translate(4 112)">
<title>%3</title>
<polygon fill="white" stroke="none" points="-4,4 -4,-112 208,-112 208,4 -4,4"/>
<!-- v0 -->
<g id="node1" class="node"><title>v0</title>
<ellipse fill="none" stroke="black" cx="64" cy="-90" rx="27" ry="18"/>
<text text-anchor="middle" x="64" y="-86.3" font-family="Times,serif" font-size="14.00">0</text>
</g>
<!-- v1 -->
<g id="node2" class="node"><title>v1</title>
<ellipse fill="none" stroke="black" cx="27" cy="-18" rx="27" ry="18"/>
<text text-anchor="middle" x="27" y="-14.3" font-family="Times,serif" font-size="14.00">1</text>
</g>
<!-- v0&#45;&gt;v1 -->
<g id="edge1" class="edge"><title>v0&#45;&gt;v1</title>
<path fill="none" stroke="black" d="M50.5173,-74.1548C45.0475,-65.7872 39.0832,-55.0881 34.3616,-45.344"/>
<polygon fill="black" stroke="black" points="37.4525,-43.6863 30.1186,-36.04 31.0835,-46.5908 37.4525,-43.6863"/>
</g>
<!-- p0 -->
<g id="node3" class="node"><title>p0</title>
<path fill="none" stroke="black" d="M119.5,-36C119.5,-36 84.5,-36 84.5,-36 78.5,-36 72.5,-30 72.5,-24 72.5,-24 72.5,-12 72.5,-12 72.5,-6 78.5,-0 84.5,-0 84.5,-0 119.5,-0 119.5,-0 125.5,-0 131.5,-6 131.5,-12 131.5,-12 131.5,-24 131.5,-24 131.5,-30 125.5,-36 119.5,-36"/>
<text text-anchor="middle" x="102" y="-14.3" font-family="Times,serif" font-size="14.00">path (2)</text>
</g>
<!-- v0&#45;&gt;p0 -->
<g id="edge3" class="edge"><title>v0&#45;&gt;p0</title>
<path fill="none" stroke="black" d="M72.8135,-72.7646C77.2862,-64.5255 82.8281,-54.3166 87.8772,-45.0157"/>
<polygon fill="black" stroke="black" points="91.0092,-46.5823 92.7042,-36.1239 84.8572,-43.2426 91.0092,-46.5823"/>
</g>
<!-- v4 -->
<g id="node4" class="node"><title>v4</title>
<ellipse fill="none" stroke="black" cx="177" cy="-18" rx="27" ry="18"/>
<text text-anchor="middle" x="177" y="-14.3" font-family="Times,serif" font-size="14.00">4</text>
</g>
<!-- v0&#45;&gt;v4 -->
<g id="edge4" class="edge"><title>v0&#45;&gt;v4</title>
<path fill="none" stroke="black" d="M83.1689,-77.1255C101.27,-65.9126 128.623,-48.9681 149.133,-36.2626"/>
<polygon fill="black" stroke="black" points="151.079,-39.1744 157.737,-30.9328 147.393,-33.2236 151.079,-39.1744"/>
</g>
<!-- v1&#45;&gt;v0 -->
<g id="edge2" class="edge"><title>v1&#45;&gt;v0</title>
<path fill="none" stroke="black" d="M40.5107,-33.888C45.9901,-42.2757 51.9623,-52.9958 56.6829,-62.7479"/>
<polygon fill="black" stroke="black" points="53.5916,-64.405 60.9216,-72.055 59.9621,-61.5036 53.5916,-64.405"/>
</g>
</g>
</svg>
