<?xml version="1.0" encoding="UTF-8" standalone="no"?>
<!DOCTYPE svg PUBLIC "-//W3C//DTD SVG 1.1//EN"
 "http://www.w3.org/Graphics/SVG/1.1/DTD/svg11.dtd">
<!-- Generated by graphviz version 2.38.0 (20140413.2041)
 -->
<!-- Title: %3 Pages: 1 -->
<svg width="172pt" height="404pt"
 viewBox="0.00 0.00 172.00 404.00" xmlns="http://www.w3.org/2000/svg" xmlns:xlink="http://www.w3.org/1999/xlink">
<g id="graph0" class="graph" transform="scale(1 1) rotate(0) translate(4 400)">
<title>%3</title>
<polygon fill="white" stroke="none" points="-4,4 -4,-400 168,-400 168,4 -4,4"/>
<!-- v0 -->
<g id="node1" class="node"><title>v0</title>
<ellipse fill="none" stroke="black" cx="63" cy="-234" rx="27" ry="18"/>
<text text-anchor="middle" x="63" y="-230.3" font-family="Times,serif" font-size="14.00">0</text>
</g>
<!-- v5 -->
<g id="node5" class="node"><title>v5</title>
<ellipse fill="none" stroke="black" cx="27" cy="-162" rx="27" ry="18"/>
<text text-anchor="middle" x="27" y="-158.3" font-family="Times,serif" font-size="14.00">5</text>
</g>
<!-- v0&#45;&gt;v5 -->
<g id="edge5" class="edge"><title>v0&#45;&gt;v5</title>
<path fill="none" stroke="black" d="M54.6504,-216.765C50.2885,-208.283 44.8531,-197.714 39.9587,-188.197"/>
<polygon fill="black" stroke="black" points="42.9904,-186.439 35.3043,-179.147 36.7654,-189.641 42.9904,-186.439"/>
</g>
<!-- v9 -->
<g id="node8" class="node"><title>v9</title>
<ellipse fill="none" stroke="black" cx="99" cy="-162" rx="27" ry="18"/>
<text text-anchor="middle" x="99" y="-158.3" font-family="Times,serif" font-size="14.00">9</text>
</g>
<!-- v0&#45;&gt;v9 -->
<g id="edge4" class="edge"><title>v0&#45;&gt;v9</title>
<path fill="none" stroke="black" d="M71.3496,-216.765C75.7115,-208.283 81.1469,-197.714 86.0413,-188.197"/>
<polygon fill="black" stroke="black" points="89.2346,-189.641 90.6957,-179.147 83.0096,-186.439 89.2346,-189.641"/>
</g>
<!-- v1 -->
<g id="node2" class="node"><title>v1</title>
<ellipse fill="none" stroke="black" cx="63" cy="-378" rx="27" ry="18"/>
<text text-anchor="middle" x="63" y="-374.3" font-family="Times,serif" font-size="14.00">1</text>
</g>
<!-- v1&#45;&gt;v0 -->
<g id="edge6" class="edge"><title>v1&#45;&gt;v0</title>
<path fill="none" stroke="black" d="M58.9409,-359.929C56.6944,-349.598 54.1334,-336.12 53,-324 51.5103,-308.07 51.5103,-303.93 53,-288 53.7969,-279.478 55.2996,-270.285 56.9025,-261.986"/>
<polygon fill="black" stroke="black" points="60.3555,-262.571 58.9409,-252.071 53.4989,-261.161 60.3555,-262.571"/>
</g>
<!-- p0 -->
<g id="node3" class="node"><title>p0</title>
<path fill="none" stroke="black" d="M109.5,-324C109.5,-324 74.5,-324 74.5,-324 68.5,-324 62.5,-318 62.5,-312 62.5,-312 62.5,-300 62.5,-300 62.5,-294 68.5,-288 74.5,-288 74.5,-288 109.5,-288 109.5,-288 115.5,-288 121.5,-294 121.5,-300 121.5,-300 121.5,-312 121.5,-312 121.5,-318 115.5,-324 109.5,-324"/>
<text text-anchor="middle" x="92" y="-302.3" font-family="Times,serif" font-size="14.00">path (2)</text>
</g>
<!-- v1&#45;&gt;p0 -->
<g id="edge1" class="edge"><title>v1&#45;&gt;p0</title>
<path fill="none" stroke="black" d="M69.8726,-360.411C73.1691,-352.454 77.2008,-342.722 80.9155,-333.756"/>
<polygon fill="black" stroke="black" points="84.1781,-335.025 84.772,-324.447 77.7111,-332.346 84.1781,-335.025"/>
</g>
<!-- p0&#45;&gt;v0 -->
<g id="edge2" class="edge"><title>p0&#45;&gt;v0</title>
<path fill="none" stroke="black" d="M84.8315,-287.697C81.4811,-279.609 77.422,-269.812 73.7172,-260.869"/>
<polygon fill="black" stroke="black" points="76.9473,-259.521 69.8864,-251.622 70.4803,-262.2 76.9473,-259.521"/>
</g>
<!-- p1 -->
<g id="node4" class="node"><title>p1</title>
<path fill="none" stroke="black" d="M79.5,-36C79.5,-36 44.5,-36 44.5,-36 38.5,-36 32.5,-30 32.5,-24 32.5,-24 32.5,-12 32.5,-12 32.5,-6 38.5,-0 44.5,-0 44.5,-0 79.5,-0 79.5,-0 85.5,-0 91.5,-6 91.5,-12 91.5,-12 91.5,-24 91.5,-24 91.5,-30 85.5,-36 79.5,-36"/>
<text text-anchor="middle" x="62" y="-14.3" font-family="Times,serif" font-size="14.00">path (3)</text>
</g>
<!-- v7 -->
<g id="node6" class="node"><title>v7</title>
<ellipse fill="none" stroke="black" cx="99" cy="-90" rx="27" ry="18"/>
<text text-anchor="middle" x="99" y="-86.3" font-family="Times,serif" font-size="14.00">7</text>
</g>
<!-- v7&#45;&gt;p1 -->
<g id="edge3" class="edge"><title>v7&#45;&gt;p1</title>
<path fill="none" stroke="black" d="M90.4185,-72.7646C86.0635,-64.5255 80.6674,-54.3166 75.7511,-45.0157"/>
<polygon fill="black" stroke="black" points="78.8187,-43.3293 71.0512,-36.1239 72.63,-46.6005 78.8187,-43.3293"/>
</g>
<!-- v8 -->
<g id="node7" class="node"><title>v8</title>
<ellipse fill="none" stroke="black" cx="137" cy="-18" rx="27" ry="18"/>
<text text-anchor="middle" x="137" y="-14.3" font-family="Times,serif" font-size="14.00">8</text>
</g>
<!-- v7&#45;&gt;v8 -->
<g id="edge7" class="edge"><title>v7&#45;&gt;v8</title>
<path fill="none" stroke="black" d="M107.813,-72.7646C112.418,-64.2831 118.155,-53.7144 123.321,-44.1974"/>
<polygon fill="black" stroke="black" points="126.539,-45.6057 128.234,-35.1473 120.387,-42.266 126.539,-45.6057"/>
</g>
<!-- v9&#45;&gt;v7 -->
<g id="edge8" class="edge"><title>v9&#45;&gt;v7</title>
<path fill="none" stroke="black" d="M99,-143.697C99,-135.983 99,-126.712 99,-118.112"/>
<polygon fill="black" stroke="black" points="102.5,-118.104 99,-108.104 95.5001,-118.104 102.5,-118.104"/>
</g>
</g>
</svg>
