<?xml version="1.0" encoding="UTF-8" standalone="no"?>
<!DOCTYPE svg PUBLIC "-//W3C//DTD SVG 1.1//EN"
 "http://www.w3.org/Graphics/SVG/1.1/DTD/svg11.dtd">
<!-- Generated by graphviz version 2.38.0 (20140413.2041)
 -->
<!-- Title: %3 Pages: 1 -->
<svg width="403pt" height="260pt"
 viewBox="0.00 0.00 402.50 260.00" xmlns="http://www.w3.org/2000/svg" xmlns:xlink="http://www.w3.org/1999/xlink">
<g id="graph0" class="graph" transform="scale(1 1) rotate(0) translate(4 256)">
<title>%3</title>
<polygon fill="white" stroke="none" points="-4,4 -4,-256 398.5,-256 398.5,4 -4,4"/>
<!-- v0 -->
<g id="node1" class="node"><title>v0</title>
<ellipse fill="none" stroke="black" cx="27" cy="-90" rx="27" ry="18"/>
<text text-anchor="middle" x="27" y="-86.3" font-family="Times,serif" font-size="14.00">0</text>
</g>
<!-- v1 -->
<g id="node2" class="node"><title>v1</title>
<ellipse fill="none" stroke="black" cx="99" cy="-90" rx="27" ry="18"/>
<text text-anchor="middle" x="99" y="-86.3" font-family="Times,serif" font-size="14.00">1</text>
</g>
<!-- p0 -->
<g id="node3" class="node"><title>p0</title>
<path fill="none" stroke="black" d="M191.5,-108C191.5,-108 156.5,-108 156.5,-108 150.5,-108 144.5,-102 144.5,-96 144.5,-96 144.5,-84 144.5,-84 144.5,-78 150.5,-72 156.5,-72 156.5,-72 191.5,-72 191.5,-72 197.5,-72 203.5,-78 203.5,-84 203.5,-84 203.5,-96 203.5,-96 203.5,-102 197.5,-108 191.5,-108"/>
<text text-anchor="middle" x="174" y="-86.3" font-family="Times,serif" font-size="14.00">path (2)</text>
</g>
<!-- v3 -->
<g id="node4" class="node"><title>v3</title>
<ellipse fill="none" stroke="black" cx="174" cy="-162" rx="27" ry="18"/>
<text text-anchor="middle" x="174" y="-158.3" font-family="Times,serif" font-size="14.00">3</text>
</g>
<!-- v3&#45;&gt;v0 -->
<g id="edge2" class="edge"><title>v3&#45;&gt;v0</title>
<path fill="none" stroke="black" d="M152.625,-150.821C127.585,-138.898 85.9169,-119.056 57.4904,-105.519"/>
<polygon fill="black" stroke="black" points="58.9343,-102.33 48.4009,-101.191 55.9247,-108.65 58.9343,-102.33"/>
</g>
<!-- v3&#45;&gt;v1 -->
<g id="edge3" class="edge"><title>v3&#45;&gt;v1</title>
<path fill="none" stroke="black" d="M158.823,-146.834C148.149,-136.872 133.681,-123.369 121.647,-112.137"/>
<polygon fill="black" stroke="black" points="123.854,-109.409 114.155,-105.144 119.077,-114.526 123.854,-109.409"/>
</g>
<!-- v3&#45;&gt;p0 -->
<g id="edge8" class="edge"><title>v3&#45;&gt;p0</title>
<path fill="none" stroke="black" d="M174,-143.697C174,-135.983 174,-126.712 174,-118.112"/>
<polygon fill="black" stroke="black" points="177.5,-118.104 174,-108.104 170.5,-118.104 177.5,-118.104"/>
</g>
<!-- p1 -->
<g id="node5" class="node"><title>p1</title>
<path fill="none" stroke="black" d="M268.5,-108C268.5,-108 233.5,-108 233.5,-108 227.5,-108 221.5,-102 221.5,-96 221.5,-96 221.5,-84 221.5,-84 221.5,-78 227.5,-72 233.5,-72 233.5,-72 268.5,-72 268.5,-72 274.5,-72 280.5,-78 280.5,-84 280.5,-84 280.5,-96 280.5,-96 280.5,-102 274.5,-108 268.5,-108"/>
<text text-anchor="middle" x="251" y="-86.3" font-family="Times,serif" font-size="14.00">path (3)</text>
</g>
<!-- v3&#45;&gt;p1 -->
<g id="edge7" class="edge"><title>v3&#45;&gt;p1</title>
<path fill="none" stroke="black" d="M189.582,-146.834C199.579,-137.746 212.818,-125.71 224.445,-115.141"/>
<polygon fill="black" stroke="black" points="227.131,-117.429 232.176,-108.113 222.422,-112.25 227.131,-117.429"/>
</g>
<!-- v7 -->
<g id="node6" class="node"><title>v7</title>
<ellipse fill="none" stroke="black" cx="326" cy="-90" rx="27" ry="18"/>
<text text-anchor="middle" x="326" y="-86.3" font-family="Times,serif" font-size="14.00">7</text>
</g>
<!-- v3&#45;&gt;v7 -->
<g id="edge6" class="edge"><title>v3&#45;&gt;v7</title>
<path fill="none" stroke="black" d="M195.778,-150.971C221.738,-139.015 265.311,-118.949 294.835,-105.352"/>
<polygon fill="black" stroke="black" points="296.643,-108.373 304.263,-101.011 293.715,-102.015 296.643,-108.373"/>
</g>
<!-- p3 -->
<g id="node8" class="node"><title>p3</title>
<path fill="none" stroke="black" d="M305.5,-36C305.5,-36 270.5,-36 270.5,-36 264.5,-36 258.5,-30 258.5,-24 258.5,-24 258.5,-12 258.5,-12 258.5,-6 264.5,-0 270.5,-0 270.5,-0 305.5,-0 305.5,-0 311.5,-0 317.5,-6 317.5,-12 317.5,-12 317.5,-24 317.5,-24 317.5,-30 311.5,-36 305.5,-36"/>
<text text-anchor="middle" x="288" y="-14.3" font-family="Times,serif" font-size="14.00">path (4)</text>
</g>
<!-- v7&#45;&gt;p3 -->
<g id="edge5" class="edge"><title>v7&#45;&gt;p3</title>
<path fill="none" stroke="black" d="M317.187,-72.7646C312.714,-64.5255 307.172,-54.3166 302.123,-45.0157"/>
<polygon fill="black" stroke="black" points="305.143,-43.2426 297.296,-36.1239 298.991,-46.5823 305.143,-43.2426"/>
</g>
<!-- p4 -->
<g id="node9" class="node"><title>p4</title>
<path fill="none" stroke="black" d="M382.5,-36C382.5,-36 347.5,-36 347.5,-36 341.5,-36 335.5,-30 335.5,-24 335.5,-24 335.5,-12 335.5,-12 335.5,-6 341.5,-0 347.5,-0 347.5,-0 382.5,-0 382.5,-0 388.5,-0 394.5,-6 394.5,-12 394.5,-12 394.5,-24 394.5,-24 394.5,-30 388.5,-36 382.5,-36"/>
<text text-anchor="middle" x="365" y="-14.3" font-family="Times,serif" font-size="14.00">path (2)</text>
</g>
<!-- v7&#45;&gt;p4 -->
<g id="edge4" class="edge"><title>v7&#45;&gt;p4</title>
<path fill="none" stroke="black" d="M335.045,-72.7646C339.636,-64.5255 345.324,-54.3166 350.506,-45.0157"/>
<polygon fill="black" stroke="black" points="353.65,-46.5631 355.46,-36.1239 347.535,-43.1561 353.65,-46.5631"/>
</g>
<!-- p2 -->
<g id="node7" class="node"><title>p2</title>
<path fill="none" stroke="black" d="M191.5,-252C191.5,-252 156.5,-252 156.5,-252 150.5,-252 144.5,-246 144.5,-240 144.5,-240 144.5,-228 144.5,-228 144.5,-222 150.5,-216 156.5,-216 156.5,-216 191.5,-216 191.5,-216 197.5,-216 203.5,-222 203.5,-228 203.5,-228 203.5,-240 203.5,-240 203.5,-246 197.5,-252 191.5,-252"/>
<text text-anchor="middle" x="174" y="-230.3" font-family="Times,serif" font-size="14.00">path (3)</text>
</g>
<!-- p2&#45;&gt;v3 -->
<g id="edge1" class="edge"><title>p2&#45;&gt;v3</title>
<path fill="none" stroke="black" d="M174,-215.697C174,-207.983 174,-198.712 174,-190.112"/>
<polygon fill="black" stroke="black" points="177.5,-190.104 174,-180.104 170.5,-190.104 177.5,-190.104"/>
</g>
</g>
</svg>
