<?xml version="1.0" encoding="UTF-8" standalone="no"?>
<!DOCTYPE svg PUBLIC "-//W3C//DTD SVG 1.1//EN"
 "http://www.w3.org/Graphics/SVG/1.1/DTD/svg11.dtd">
<!-- Generated by graphviz version 2.38.0 (20140413.2041)
 -->
<!-- Title: %3 Pages: 1 -->
<svg width="444pt" height="332pt"
 viewBox="0.00 0.00 443.50 332.00" xmlns="http://www.w3.org/2000/svg" xmlns:xlink="http://www.w3.org/1999/xlink">
<g id="graph0" class="graph" transform="scale(1 1) rotate(0) translate(4 328)">
<title>%3</title>
<polygon fill="white" stroke="none" points="-4,4 -4,-328 439.5,-328 439.5,4 -4,4"/>
<!-- v0 -->
<g id="node1" class="node"><title>v0</title>
<ellipse fill="none" stroke="black" cx="177" cy="-90" rx="27" ry="18"/>
<text text-anchor="middle" x="177" y="-86.3" font-family="Times,serif" font-size="14.00">0</text>
</g>
<!-- v1 -->
<g id="node2" class="node"><title>v1</title>
<ellipse fill="none" stroke="black" cx="27" cy="-18" rx="27" ry="18"/>
<text text-anchor="middle" x="27" y="-14.3" font-family="Times,serif" font-size="14.00">1</text>
</g>
<!-- v0&#45;&gt;v1 -->
<g id="edge9" class="edge"><title>v0&#45;&gt;v1</title>
<path fill="none" stroke="black" d="M155.127,-78.8784C132.164,-68.2412 95.0177,-51.0023 63,-36 61.2162,-35.1642 59.3835,-34.3038 57.5347,-33.4346"/>
<polygon fill="black" stroke="black" points="58.8485,-30.1846 48.3104,-29.0891 55.8652,-36.5171 58.8485,-30.1846"/>
</g>
<!-- p0 -->
<g id="node3" class="node"><title>p0</title>
<path fill="none" stroke="black" d="M119.5,-36C119.5,-36 84.5,-36 84.5,-36 78.5,-36 72.5,-30 72.5,-24 72.5,-24 72.5,-12 72.5,-12 72.5,-6 78.5,-0 84.5,-0 84.5,-0 119.5,-0 119.5,-0 125.5,-0 131.5,-6 131.5,-12 131.5,-12 131.5,-24 131.5,-24 131.5,-30 125.5,-36 119.5,-36"/>
<text text-anchor="middle" x="102" y="-14.3" font-family="Times,serif" font-size="14.00">path (3)</text>
</g>
<!-- v0&#45;&gt;p0 -->
<g id="edge11" class="edge"><title>v0&#45;&gt;p0</title>
<path fill="none" stroke="black" d="M161.823,-74.8345C152.085,-65.7459 139.19,-53.7105 127.866,-43.1413"/>
<polygon fill="black" stroke="black" points="130.034,-40.3772 120.335,-36.1127 125.258,-45.4946 130.034,-40.3772"/>
</g>
<!-- v3 -->
<g id="node4" class="node"><title>v3</title>
<ellipse fill="none" stroke="black" cx="177" cy="-18" rx="27" ry="18"/>
<text text-anchor="middle" x="177" y="-14.3" font-family="Times,serif" font-size="14.00">3</text>
</g>
<!-- v0&#45;&gt;v3 -->
<g id="edge2" class="edge"><title>v0&#45;&gt;v3</title>
<path fill="none" stroke="black" d="M177,-71.6966C177,-63.9827 177,-54.7125 177,-46.1124"/>
<polygon fill="black" stroke="black" points="180.5,-46.1043 177,-36.1043 173.5,-46.1044 180.5,-46.1043"/>
</g>
<!-- p5 -->
<g id="node9" class="node"><title>p5</title>
<path fill="none" stroke="black" d="M269.5,-36C269.5,-36 234.5,-36 234.5,-36 228.5,-36 222.5,-30 222.5,-24 222.5,-24 222.5,-12 222.5,-12 222.5,-6 228.5,-0 234.5,-0 234.5,-0 269.5,-0 269.5,-0 275.5,-0 281.5,-6 281.5,-12 281.5,-12 281.5,-24 281.5,-24 281.5,-30 275.5,-36 269.5,-36"/>
<text text-anchor="middle" x="252" y="-14.3" font-family="Times,serif" font-size="14.00">path (2)</text>
</g>
<!-- v0&#45;&gt;p5 -->
<g id="edge6" class="edge"><title>v0&#45;&gt;p5</title>
<path fill="none" stroke="black" d="M192.177,-74.8345C201.915,-65.7459 214.81,-53.7105 226.134,-43.1413"/>
<polygon fill="black" stroke="black" points="228.742,-45.4946 233.665,-36.1127 223.966,-40.3772 228.742,-45.4946"/>
</g>
<!-- p6 -->
<g id="node11" class="node"><title>p6</title>
<path fill="none" stroke="black" d="M346.5,-36C346.5,-36 311.5,-36 311.5,-36 305.5,-36 299.5,-30 299.5,-24 299.5,-24 299.5,-12 299.5,-12 299.5,-6 305.5,-0 311.5,-0 311.5,-0 346.5,-0 346.5,-0 352.5,-0 358.5,-6 358.5,-12 358.5,-12 358.5,-24 358.5,-24 358.5,-30 352.5,-36 346.5,-36"/>
<text text-anchor="middle" x="329" y="-14.3" font-family="Times,serif" font-size="14.00">path (3)</text>
</g>
<!-- v0&#45;&gt;p6 -->
<g id="edge3" class="edge"><title>v0&#45;&gt;p6</title>
<path fill="none" stroke="black" d="M198.3,-78.8876C203.128,-76.6104 208.236,-74.2131 213,-72 238.653,-60.0833 267.59,-46.8617 290.145,-36.6052"/>
<polygon fill="black" stroke="black" points="291.736,-39.7266 299.393,-32.4035 288.84,-33.3536 291.736,-39.7266"/>
</g>
<!-- p1 -->
<g id="node5" class="node"><title>p1</title>
<path fill="none" stroke="black" d="M232.5,-252C232.5,-252 197.5,-252 197.5,-252 191.5,-252 185.5,-246 185.5,-240 185.5,-240 185.5,-228 185.5,-228 185.5,-222 191.5,-216 197.5,-216 197.5,-216 232.5,-216 232.5,-216 238.5,-216 244.5,-222 244.5,-228 244.5,-228 244.5,-240 244.5,-240 244.5,-246 238.5,-252 232.5,-252"/>
<text text-anchor="middle" x="215" y="-230.3" font-family="Times,serif" font-size="14.00">path (9)</text>
</g>
<!-- p2 -->
<g id="node6" class="node"><title>p2</title>
<path fill="none" stroke="black" d="M269.5,-108C269.5,-108 234.5,-108 234.5,-108 228.5,-108 222.5,-102 222.5,-96 222.5,-96 222.5,-84 222.5,-84 222.5,-78 228.5,-72 234.5,-72 234.5,-72 269.5,-72 269.5,-72 275.5,-72 281.5,-78 281.5,-84 281.5,-84 281.5,-96 281.5,-96 281.5,-102 275.5,-108 269.5,-108"/>
<text text-anchor="middle" x="252" y="-86.3" font-family="Times,serif" font-size="14.00">path (7)</text>
</g>
<!-- p3 -->
<g id="node7" class="node"><title>p3</title>
<path fill="none" stroke="black" d="M346.5,-108C346.5,-108 311.5,-108 311.5,-108 305.5,-108 299.5,-102 299.5,-96 299.5,-96 299.5,-84 299.5,-84 299.5,-78 305.5,-72 311.5,-72 311.5,-72 346.5,-72 346.5,-72 352.5,-72 358.5,-78 358.5,-84 358.5,-84 358.5,-96 358.5,-96 358.5,-102 352.5,-108 346.5,-108"/>
<text text-anchor="middle" x="329" y="-86.3" font-family="Times,serif" font-size="14.00">path (4)</text>
</g>
<!-- p4 -->
<g id="node8" class="node"><title>p4</title>
<path fill="none" stroke="black" d="M423.5,-108C423.5,-108 388.5,-108 388.5,-108 382.5,-108 376.5,-102 376.5,-96 376.5,-96 376.5,-84 376.5,-84 376.5,-78 382.5,-72 388.5,-72 388.5,-72 423.5,-72 423.5,-72 429.5,-72 435.5,-78 435.5,-84 435.5,-84 435.5,-96 435.5,-96 435.5,-102 429.5,-108 423.5,-108"/>
<text text-anchor="middle" x="406" y="-86.3" font-family="Times,serif" font-size="14.00">path (4)</text>
</g>
<!-- v16 -->
<g id="node10" class="node"><title>v16</title>
<ellipse fill="none" stroke="black" cx="290" cy="-162" rx="27" ry="18"/>
<text text-anchor="middle" x="290" y="-158.3" font-family="Times,serif" font-size="14.00">16</text>
</g>
<!-- v16&#45;&gt;v0 -->
<g id="edge8" class="edge"><title>v16&#45;&gt;v0</title>
<path fill="none" stroke="black" d="M270.831,-149.125C252.73,-137.913 225.377,-120.968 204.867,-108.263"/>
<polygon fill="black" stroke="black" points="206.607,-105.224 196.263,-102.933 202.921,-111.174 206.607,-105.224"/>
</g>
<!-- v16&#45;&gt;p2 -->
<g id="edge1" class="edge"><title>v16&#45;&gt;p2</title>
<path fill="none" stroke="black" d="M281.187,-144.765C276.714,-136.525 271.172,-126.317 266.123,-117.016"/>
<polygon fill="black" stroke="black" points="269.143,-115.243 261.296,-108.124 262.991,-118.582 269.143,-115.243"/>
</g>
<!-- v16&#45;&gt;p3 -->
<g id="edge10" class="edge"><title>v16&#45;&gt;p3</title>
<path fill="none" stroke="black" d="M299.045,-144.765C303.636,-136.525 309.324,-126.317 314.506,-117.016"/>
<polygon fill="black" stroke="black" points="317.65,-118.563 319.46,-108.124 311.535,-115.156 317.65,-118.563"/>
</g>
<!-- v16&#45;&gt;p4 -->
<g id="edge5" class="edge"><title>v16&#45;&gt;p4</title>
<path fill="none" stroke="black" d="M309.416,-149.284C325.636,-139.496 349.224,-125.262 369.028,-113.311"/>
<polygon fill="black" stroke="black" points="371.068,-116.168 377.821,-108.004 367.451,-110.174 371.068,-116.168"/>
</g>
<!-- v29 -->
<g id="node12" class="node"><title>v29</title>
<ellipse fill="none" stroke="black" cx="252" cy="-306" rx="27" ry="18"/>
<text text-anchor="middle" x="252" y="-302.3" font-family="Times,serif" font-size="14.00">29</text>
</g>
<!-- v29&#45;&gt;p1 -->
<g id="edge12" class="edge"><title>v29&#45;&gt;p1</title>
<path fill="none" stroke="black" d="M243.418,-288.765C239.063,-280.525 233.667,-270.317 228.751,-261.016"/>
<polygon fill="black" stroke="black" points="231.819,-259.329 224.051,-252.124 225.63,-262.6 231.819,-259.329"/>
</g>
<!-- v33 -->
<g id="node13" class="node"><title>v33</title>
<ellipse fill="none" stroke="black" cx="290" cy="-234" rx="27" ry="18"/>
<text text-anchor="middle" x="290" y="-230.3" font-family="Times,serif" font-size="14.00">33</text>
</g>
<!-- v29&#45;&gt;v33 -->
<g id="edge7" class="edge"><title>v29&#45;&gt;v33</title>
<path fill="none" stroke="black" d="M260.813,-288.765C265.418,-280.283 271.155,-269.714 276.321,-260.197"/>
<polygon fill="black" stroke="black" points="279.539,-261.606 281.234,-251.147 273.387,-258.266 279.539,-261.606"/>
</g>
<!-- v33&#45;&gt;v16 -->
<g id="edge4" class="edge"><title>v33&#45;&gt;v16</title>
<path fill="none" stroke="black" d="M290,-215.697C290,-207.983 290,-198.712 290,-190.112"/>
<polygon fill="black" stroke="black" points="293.5,-190.104 290,-180.104 286.5,-190.104 293.5,-190.104"/>
</g>
</g>
</svg>
