<?xml version="1.0" encoding="UTF-8" standalone="no"?>
<!DOCTYPE svg PUBLIC "-//W3C//DTD SVG 1.1//EN"
 "http://www.w3.org/Graphics/SVG/1.1/DTD/svg11.dtd">
<!-- Generated by graphviz version 2.38.0 (20140413.2041)
 -->
<!-- Title: %3 Pages: 1 -->
<svg width="217pt" height="116pt"
 viewBox="0.00 0.00 217.00 116.00" xmlns="http://www.w3.org/2000/svg" xmlns:xlink="http://www.w3.org/1999/xlink">
<g id="graph0" class="graph" transform="scale(1 1) rotate(0) translate(4 112)">
<title>%3</title>
<polygon fill="white" stroke="none" points="-4,4 -4,-112 213,-112 213,4 -4,4"/>
<!-- p0 -->
<g id="node1" class="node"><title>p0</title>
<path fill="none" stroke="black" d="M47,-36C47,-36 12,-36 12,-36 6,-36 0,-30 0,-24 0,-24 0,-12 0,-12 0,-6 6,-0 12,-0 12,-0 47,-0 47,-0 53,-0 59,-6 59,-12 59,-12 59,-24 59,-24 59,-30 53,-36 47,-36"/>
<text text-anchor="middle" x="29.5" y="-14.3" font-family="Times,serif" font-size="14.00">path (4)</text>
</g>
<!-- v1 -->
<g id="node2" class="node"><title>v1</title>
<ellipse fill="none" stroke="black" cx="104.5" cy="-18" rx="27" ry="18"/>
<text text-anchor="middle" x="104.5" y="-14.3" font-family="Times,serif" font-size="14.00">1</text>
</g>
<!-- v5 -->
<g id="node3" class="node"><title>v5</title>
<ellipse fill="none" stroke="black" cx="104.5" cy="-90" rx="27" ry="18"/>
<text text-anchor="middle" x="104.5" y="-86.3" font-family="Times,serif" font-size="14.00">5</text>
</g>
<!-- v5&#45;&gt;p0 -->
<g id="edge2" class="edge"><title>v5&#45;&gt;p0</title>
<path fill="none" stroke="black" d="M89.3226,-74.8345C79.5849,-65.7459 66.6898,-53.7105 55.3657,-43.1413"/>
<polygon fill="black" stroke="black" points="57.5338,-40.3772 47.8351,-36.1127 52.7575,-45.4946 57.5338,-40.3772"/>
</g>
<!-- v5&#45;&gt;v1 -->
<g id="edge1" class="edge"><title>v5&#45;&gt;v1</title>
<path fill="none" stroke="black" d="M104.5,-71.6966C104.5,-63.9827 104.5,-54.7125 104.5,-46.1124"/>
<polygon fill="black" stroke="black" points="108,-46.1043 104.5,-36.1043 101,-46.1044 108,-46.1043"/>
</g>
<!-- p1 -->
<g id="node4" class="node"><title>p1</title>
<path fill="none" stroke="black" d="M197,-36C197,-36 162,-36 162,-36 156,-36 150,-30 150,-24 150,-24 150,-12 150,-12 150,-6 156,-0 162,-0 162,-0 197,-0 197,-0 203,-0 209,-6 209,-12 209,-12 209,-24 209,-24 209,-30 203,-36 197,-36"/>
<text text-anchor="middle" x="179.5" y="-14.3" font-family="Times,serif" font-size="14.00">path (4)</text>
</g>
<!-- v5&#45;&gt;p1 -->
<g id="edge3" class="edge"><title>v5&#45;&gt;p1</title>
<path fill="none" stroke="black" d="M119.677,-74.8345C129.415,-65.7459 142.31,-53.7105 153.634,-43.1413"/>
<polygon fill="black" stroke="black" points="156.242,-45.4946 161.165,-36.1127 151.466,-40.3772 156.242,-45.4946"/>
</g>
</g>
</svg>
