<?xml version="1.0" encoding="UTF-8" standalone="no"?>
<!DOCTYPE svg PUBLIC "-//W3C//DTD SVG 1.1//EN"
 "http://www.w3.org/Graphics/SVG/1.1/DTD/svg11.dtd">
<!-- Generated by graphviz version 2.38.0 (20140413.2041)
 -->
<!-- Title: %3 Pages: 1 -->
<svg width="321pt" height="260pt"
 viewBox="0.00 0.00 321.00 260.00" xmlns="http://www.w3.org/2000/svg" xmlns:xlink="http://www.w3.org/1999/xlink">
<g id="graph0" class="graph" transform="scale(1 1) rotate(0) translate(4 256)">
<title>%3</title>
<polygon fill="white" stroke="none" points="-4,4 -4,-256 317,-256 317,4 -4,4"/>
<!-- v0 -->
<g id="node1" class="node"><title>v0</title>
<ellipse fill="none" stroke="black" cx="64" cy="-90" rx="27" ry="18"/>
<text text-anchor="middle" x="64" y="-86.3" font-family="Times,serif" font-size="14.00">0</text>
</g>
<!-- v1 -->
<g id="node2" class="node"><title>v1</title>
<ellipse fill="none" stroke="black" cx="27" cy="-18" rx="27" ry="18"/>
<text text-anchor="middle" x="27" y="-14.3" font-family="Times,serif" font-size="14.00">1</text>
</g>
<!-- v0&#45;&gt;v1 -->
<g id="edge1" class="edge"><title>v0&#45;&gt;v1</title>
<path fill="none" stroke="black" d="M55.4185,-72.7646C50.9354,-64.2831 45.349,-53.7144 40.3186,-44.1974"/>
<polygon fill="black" stroke="black" points="43.3025,-42.3527 35.535,-35.1473 37.1138,-45.6239 43.3025,-42.3527"/>
</g>
<!-- p2 -->
<g id="node7" class="node"><title>p2</title>
<path fill="none" stroke="black" d="M119.5,-36C119.5,-36 84.5,-36 84.5,-36 78.5,-36 72.5,-30 72.5,-24 72.5,-24 72.5,-12 72.5,-12 72.5,-6 78.5,-0 84.5,-0 84.5,-0 119.5,-0 119.5,-0 125.5,-0 131.5,-6 131.5,-12 131.5,-12 131.5,-24 131.5,-24 131.5,-30 125.5,-36 119.5,-36"/>
<text text-anchor="middle" x="102" y="-14.3" font-family="Times,serif" font-size="14.00">path (4)</text>
</g>
<!-- v0&#45;&gt;p2 -->
<g id="edge7" class="edge"><title>v0&#45;&gt;p2</title>
<path fill="none" stroke="black" d="M72.8135,-72.7646C77.2862,-64.5255 82.8281,-54.3166 87.8772,-45.0157"/>
<polygon fill="black" stroke="black" points="91.0092,-46.5823 92.7042,-36.1239 84.8572,-43.2426 91.0092,-46.5823"/>
</g>
<!-- v2 -->
<g id="node3" class="node"><title>v2</title>
<ellipse fill="none" stroke="black" cx="140" cy="-234" rx="27" ry="18"/>
<text text-anchor="middle" x="140" y="-230.3" font-family="Times,serif" font-size="14.00">2</text>
</g>
<!-- p0 -->
<g id="node4" class="node"><title>p0</title>
<path fill="none" stroke="black" d="M81.5,-180C81.5,-180 46.5,-180 46.5,-180 40.5,-180 34.5,-174 34.5,-168 34.5,-168 34.5,-156 34.5,-156 34.5,-150 40.5,-144 46.5,-144 46.5,-144 81.5,-144 81.5,-144 87.5,-144 93.5,-150 93.5,-156 93.5,-156 93.5,-168 93.5,-168 93.5,-174 87.5,-180 81.5,-180"/>
<text text-anchor="middle" x="64" y="-158.3" font-family="Times,serif" font-size="14.00">path (2)</text>
</g>
<!-- v2&#45;&gt;p0 -->
<g id="edge9" class="edge"><title>v2&#45;&gt;p0</title>
<path fill="none" stroke="black" d="M124.62,-218.834C114.753,-209.746 101.686,-197.71 90.2106,-187.141"/>
<polygon fill="black" stroke="black" points="92.3062,-184.313 82.5795,-180.113 87.5638,-189.462 92.3062,-184.313"/>
</g>
<!-- v5 -->
<g id="node5" class="node"><title>v5</title>
<ellipse fill="none" stroke="black" cx="140" cy="-162" rx="27" ry="18"/>
<text text-anchor="middle" x="140" y="-158.3" font-family="Times,serif" font-size="14.00">5</text>
</g>
<!-- v2&#45;&gt;v5 -->
<g id="edge8" class="edge"><title>v2&#45;&gt;v5</title>
<path fill="none" stroke="black" d="M140,-215.697C140,-207.983 140,-198.712 140,-190.112"/>
<polygon fill="black" stroke="black" points="143.5,-190.104 140,-180.104 136.5,-190.104 143.5,-190.104"/>
</g>
<!-- v15 -->
<g id="node9" class="node"><title>v15</title>
<ellipse fill="none" stroke="black" cx="213" cy="-162" rx="27" ry="18"/>
<text text-anchor="middle" x="213" y="-158.3" font-family="Times,serif" font-size="14.00">15</text>
</g>
<!-- v2&#45;&gt;v15 -->
<g id="edge6" class="edge"><title>v2&#45;&gt;v15</title>
<path fill="none" stroke="black" d="M154.773,-218.834C165.162,-208.872 179.244,-195.369 190.957,-184.137"/>
<polygon fill="black" stroke="black" points="193.454,-186.592 198.249,-177.144 188.609,-181.539 193.454,-186.592"/>
</g>
<!-- p0&#45;&gt;v0 -->
<g id="edge4" class="edge"><title>p0&#45;&gt;v0</title>
<path fill="none" stroke="black" d="M64,-143.697C64,-135.983 64,-126.712 64,-118.112"/>
<polygon fill="black" stroke="black" points="67.5001,-118.104 64,-108.104 60.5001,-118.104 67.5001,-118.104"/>
</g>
<!-- p1 -->
<g id="node6" class="node"><title>p1</title>
<path fill="none" stroke="black" d="M156.5,-108C156.5,-108 121.5,-108 121.5,-108 115.5,-108 109.5,-102 109.5,-96 109.5,-96 109.5,-84 109.5,-84 109.5,-78 115.5,-72 121.5,-72 121.5,-72 156.5,-72 156.5,-72 162.5,-72 168.5,-78 168.5,-84 168.5,-84 168.5,-96 168.5,-96 168.5,-102 162.5,-108 156.5,-108"/>
<text text-anchor="middle" x="139" y="-86.3" font-family="Times,serif" font-size="14.00">path (7)</text>
</g>
<!-- v14 -->
<g id="node8" class="node"><title>v14</title>
<ellipse fill="none" stroke="black" cx="214" cy="-90" rx="27" ry="18"/>
<text text-anchor="middle" x="214" y="-86.3" font-family="Times,serif" font-size="14.00">14</text>
</g>
<!-- v15&#45;&gt;p1 -->
<g id="edge3" class="edge"><title>v15&#45;&gt;p1</title>
<path fill="none" stroke="black" d="M198.025,-146.834C188.417,-137.746 175.694,-125.71 164.521,-115.141"/>
<polygon fill="black" stroke="black" points="166.761,-112.442 157.091,-108.113 161.95,-117.527 166.761,-112.442"/>
</g>
<!-- v15&#45;&gt;v14 -->
<g id="edge2" class="edge"><title>v15&#45;&gt;v14</title>
<path fill="none" stroke="black" d="M213.247,-143.697C213.357,-135.983 213.49,-126.712 213.613,-118.112"/>
<polygon fill="black" stroke="black" points="217.112,-118.153 213.756,-108.104 210.113,-118.053 217.112,-118.153"/>
</g>
<!-- v16 -->
<g id="node10" class="node"><title>v16</title>
<ellipse fill="none" stroke="black" cx="286" cy="-90" rx="27" ry="18"/>
<text text-anchor="middle" x="286" y="-86.3" font-family="Times,serif" font-size="14.00">16</text>
</g>
<!-- v15&#45;&gt;v16 -->
<g id="edge5" class="edge"><title>v15&#45;&gt;v16</title>
<path fill="none" stroke="black" d="M227.773,-146.834C238.162,-136.872 252.244,-123.369 263.957,-112.137"/>
<polygon fill="black" stroke="black" points="266.454,-114.592 271.249,-105.144 261.609,-109.539 266.454,-114.592"/>
</g>
</g>
</svg>
