<?xml version="1.0" encoding="UTF-8" standalone="no"?>
<!DOCTYPE svg PUBLIC "-//W3C//DTD SVG 1.1//EN"
 "http://www.w3.org/Graphics/SVG/1.1/DTD/svg11.dtd">
<!-- Generated by graphviz version 2.38.0 (20140413.2041)
 -->
<!-- Title: %3 Pages: 1 -->
<svg width="254pt" height="404pt"
 viewBox="0.00 0.00 254.00 404.00" xmlns="http://www.w3.org/2000/svg" xmlns:xlink="http://www.w3.org/1999/xlink">
<g id="graph0" class="graph" transform="scale(1 1) rotate(0) translate(4 400)">
<title>%3</title>
<polygon fill="white" stroke="none" points="-4,4 -4,-400 250,-400 250,4 -4,4"/>
<!-- v0 -->
<g id="node1" class="node"><title>v0</title>
<ellipse fill="none" stroke="black" cx="103.5" cy="-162" rx="27" ry="18"/>
<text text-anchor="middle" x="103.5" y="-158.3" font-family="Times,serif" font-size="14.00">0</text>
</g>
<!-- v3 -->
<g id="node4" class="node"><title>v3</title>
<ellipse fill="none" stroke="black" cx="66.5" cy="-90" rx="27" ry="18"/>
<text text-anchor="middle" x="66.5" y="-86.3" font-family="Times,serif" font-size="14.00">3</text>
</g>
<!-- v0&#45;&gt;v3 -->
<g id="edge2" class="edge"><title>v0&#45;&gt;v3</title>
<path fill="none" stroke="black" d="M94.9185,-144.765C90.4354,-136.283 84.849,-125.714 79.8186,-116.197"/>
<polygon fill="black" stroke="black" points="82.8025,-114.353 75.035,-107.147 76.6138,-117.624 82.8025,-114.353"/>
</g>
<!-- p2 -->
<g id="node8" class="node"><title>p2</title>
<path fill="none" stroke="black" d="M159,-108C159,-108 124,-108 124,-108 118,-108 112,-102 112,-96 112,-96 112,-84 112,-84 112,-78 118,-72 124,-72 124,-72 159,-72 159,-72 165,-72 171,-78 171,-84 171,-84 171,-96 171,-96 171,-102 165,-108 159,-108"/>
<text text-anchor="middle" x="141.5" y="-86.3" font-family="Times,serif" font-size="14.00">path (2)</text>
</g>
<!-- v0&#45;&gt;p2 -->
<g id="edge5" class="edge"><title>v0&#45;&gt;p2</title>
<path fill="none" stroke="black" d="M112.313,-144.765C116.786,-136.525 122.328,-126.317 127.377,-117.016"/>
<polygon fill="black" stroke="black" points="130.509,-118.582 132.204,-108.124 124.357,-115.243 130.509,-118.582"/>
</g>
<!-- v1 -->
<g id="node2" class="node"><title>v1</title>
<ellipse fill="none" stroke="black" cx="139.5" cy="-234" rx="27" ry="18"/>
<text text-anchor="middle" x="139.5" y="-230.3" font-family="Times,serif" font-size="14.00">1</text>
</g>
<!-- v1&#45;&gt;v0 -->
<g id="edge8" class="edge"><title>v1&#45;&gt;v0</title>
<path fill="none" stroke="black" d="M131.15,-216.765C126.788,-208.283 121.353,-197.714 116.459,-188.197"/>
<polygon fill="black" stroke="black" points="119.49,-186.439 111.804,-179.147 113.265,-189.641 119.49,-186.439"/>
</g>
<!-- v2 -->
<g id="node3" class="node"><title>v2</title>
<ellipse fill="none" stroke="black" cx="175.5" cy="-162" rx="27" ry="18"/>
<text text-anchor="middle" x="175.5" y="-158.3" font-family="Times,serif" font-size="14.00">2</text>
</g>
<!-- v1&#45;&gt;v2 -->
<g id="edge4" class="edge"><title>v1&#45;&gt;v2</title>
<path fill="none" stroke="black" d="M147.85,-216.765C152.212,-208.283 157.647,-197.714 162.541,-188.197"/>
<polygon fill="black" stroke="black" points="165.735,-189.641 167.196,-179.147 159.51,-186.439 165.735,-189.641"/>
</g>
<!-- p3 -->
<g id="node9" class="node"><title>p3</title>
<path fill="none" stroke="black" d="M47,-36C47,-36 12,-36 12,-36 6,-36 0,-30 0,-24 0,-24 0,-12 0,-12 0,-6 6,-0 12,-0 12,-0 47,-0 47,-0 53,-0 59,-6 59,-12 59,-12 59,-24 59,-24 59,-30 53,-36 47,-36"/>
<text text-anchor="middle" x="29.5" y="-14.3" font-family="Times,serif" font-size="14.00">path (2)</text>
</g>
<!-- v3&#45;&gt;p3 -->
<g id="edge6" class="edge"><title>v3&#45;&gt;p3</title>
<path fill="none" stroke="black" d="M57.9185,-72.7646C53.5635,-64.5255 48.1674,-54.3166 43.2511,-45.0157"/>
<polygon fill="black" stroke="black" points="46.3187,-43.3293 38.5512,-36.1239 40.13,-46.6005 46.3187,-43.3293"/>
</g>
<!-- v11 -->
<g id="node10" class="node"><title>v11</title>
<ellipse fill="none" stroke="black" cx="104.5" cy="-18" rx="27" ry="18"/>
<text text-anchor="middle" x="104.5" y="-14.3" font-family="Times,serif" font-size="14.00">11</text>
</g>
<!-- v3&#45;&gt;v11 -->
<g id="edge1" class="edge"><title>v3&#45;&gt;v11</title>
<path fill="none" stroke="black" d="M75.3135,-72.7646C79.9177,-64.2831 85.655,-53.7144 90.8214,-44.1974"/>
<polygon fill="black" stroke="black" points="94.0393,-45.6057 95.7343,-35.1473 87.8874,-42.266 94.0393,-45.6057"/>
</g>
<!-- p0 -->
<g id="node5" class="node"><title>p0</title>
<path fill="none" stroke="black" d="M157,-324C157,-324 122,-324 122,-324 116,-324 110,-318 110,-312 110,-312 110,-300 110,-300 110,-294 116,-288 122,-288 122,-288 157,-288 157,-288 163,-288 169,-294 169,-300 169,-300 169,-312 169,-312 169,-318 163,-324 157,-324"/>
<text text-anchor="middle" x="139.5" y="-302.3" font-family="Times,serif" font-size="14.00">path (7)</text>
</g>
<!-- p0&#45;&gt;v1 -->
<g id="edge7" class="edge"><title>p0&#45;&gt;v1</title>
<path fill="none" stroke="black" d="M139.5,-287.697C139.5,-279.983 139.5,-270.712 139.5,-262.112"/>
<polygon fill="black" stroke="black" points="143,-262.104 139.5,-252.104 136,-262.104 143,-262.104"/>
</g>
<!-- v5 -->
<g id="node6" class="node"><title>v5</title>
<ellipse fill="none" stroke="black" cx="177.5" cy="-378" rx="27" ry="18"/>
<text text-anchor="middle" x="177.5" y="-374.3" font-family="Times,serif" font-size="14.00">5</text>
</g>
<!-- v5&#45;&gt;p0 -->
<g id="edge3" class="edge"><title>v5&#45;&gt;p0</title>
<path fill="none" stroke="black" d="M168.687,-360.765C164.214,-352.525 158.672,-342.317 153.623,-333.016"/>
<polygon fill="black" stroke="black" points="156.643,-331.243 148.796,-324.124 150.491,-334.582 156.643,-331.243"/>
</g>
<!-- p1 -->
<g id="node7" class="node"><title>p1</title>
<path fill="none" stroke="black" d="M234,-324C234,-324 199,-324 199,-324 193,-324 187,-318 187,-312 187,-312 187,-300 187,-300 187,-294 193,-288 199,-288 199,-288 234,-288 234,-288 240,-288 246,-294 246,-300 246,-300 246,-312 246,-312 246,-318 240,-324 234,-324"/>
<text text-anchor="middle" x="216.5" y="-302.3" font-family="Times,serif" font-size="14.00">path (8)</text>
</g>
<!-- v5&#45;&gt;p1 -->
<g id="edge9" class="edge"><title>v5&#45;&gt;p1</title>
<path fill="none" stroke="black" d="M186.545,-360.765C191.136,-352.525 196.824,-342.317 202.006,-333.016"/>
<polygon fill="black" stroke="black" points="205.15,-334.563 206.96,-324.124 199.035,-331.156 205.15,-334.563"/>
</g>
</g>
</svg>
