<?xml version="1.0" encoding="UTF-8" standalone="no"?>
<!DOCTYPE svg PUBLIC "-//W3C//DTD SVG 1.1//EN"
 "http://www.w3.org/Graphics/SVG/1.1/DTD/svg11.dtd">
<!-- Generated by graphviz version 2.38.0 (20140413.2041)
 -->
<!-- Title: %3 Pages: 1 -->
<svg width="915pt" height="980pt"
 viewBox="0.00 0.00 914.50 980.00" xmlns="http://www.w3.org/2000/svg" xmlns:xlink="http://www.w3.org/1999/xlink">
<g id="graph0" class="graph" transform="scale(1 1) rotate(0) translate(4 976)">
<title>%3</title>
<polygon fill="white" stroke="none" points="-4,4 -4,-976 910.5,-976 910.5,4 -4,4"/>
<!-- v0 -->
<g id="node1" class="node"><title>v0</title>
<ellipse fill="none" stroke="black" cx="224" cy="-882" rx="27" ry="18"/>
<text text-anchor="middle" x="224" y="-878.3" font-family="Times,serif" font-size="14.00">0</text>
</g>
<!-- p0 -->
<g id="node3" class="node"><title>p0</title>
<path fill="none" stroke="black" d="M166.5,-828C166.5,-828 131.5,-828 131.5,-828 125.5,-828 119.5,-822 119.5,-816 119.5,-816 119.5,-804 119.5,-804 119.5,-798 125.5,-792 131.5,-792 131.5,-792 166.5,-792 166.5,-792 172.5,-792 178.5,-798 178.5,-804 178.5,-804 178.5,-816 178.5,-816 178.5,-822 172.5,-828 166.5,-828"/>
<text text-anchor="middle" x="149" y="-806.3" font-family="Times,serif" font-size="14.00">path (2)</text>
</g>
<!-- v0&#45;&gt;p0 -->
<g id="edge31" class="edge"><title>v0&#45;&gt;p0</title>
<path fill="none" stroke="black" d="M208.823,-866.834C199.085,-857.746 186.19,-845.71 174.866,-835.141"/>
<polygon fill="black" stroke="black" points="177.034,-832.377 167.335,-828.113 172.258,-837.495 177.034,-832.377"/>
</g>
<!-- v3 -->
<g id="node4" class="node"><title>v3</title>
<ellipse fill="none" stroke="black" cx="224" cy="-810" rx="27" ry="18"/>
<text text-anchor="middle" x="224" y="-806.3" font-family="Times,serif" font-size="14.00">3</text>
</g>
<!-- v0&#45;&gt;v3 -->
<g id="edge55" class="edge"><title>v0&#45;&gt;v3</title>
<path fill="none" stroke="black" d="M224,-863.697C224,-855.983 224,-846.712 224,-838.112"/>
<polygon fill="black" stroke="black" points="227.5,-838.104 224,-828.104 220.5,-838.104 227.5,-838.104"/>
</g>
<!-- p1 -->
<g id="node5" class="node"><title>p1</title>
<path fill="none" stroke="black" d="M316.5,-828C316.5,-828 281.5,-828 281.5,-828 275.5,-828 269.5,-822 269.5,-816 269.5,-816 269.5,-804 269.5,-804 269.5,-798 275.5,-792 281.5,-792 281.5,-792 316.5,-792 316.5,-792 322.5,-792 328.5,-798 328.5,-804 328.5,-804 328.5,-816 328.5,-816 328.5,-822 322.5,-828 316.5,-828"/>
<text text-anchor="middle" x="299" y="-806.3" font-family="Times,serif" font-size="14.00">path (2)</text>
</g>
<!-- v0&#45;&gt;p1 -->
<g id="edge50" class="edge"><title>v0&#45;&gt;p1</title>
<path fill="none" stroke="black" d="M239.177,-866.834C248.915,-857.746 261.81,-845.71 273.134,-835.141"/>
<polygon fill="black" stroke="black" points="275.742,-837.495 280.665,-828.113 270.966,-832.377 275.742,-837.495"/>
</g>
<!-- v1 -->
<g id="node2" class="node"><title>v1</title>
<ellipse fill="none" stroke="black" cx="224" cy="-954" rx="27" ry="18"/>
<text text-anchor="middle" x="224" y="-950.3" font-family="Times,serif" font-size="14.00">1</text>
</g>
<!-- v1&#45;&gt;v0 -->
<g id="edge27" class="edge"><title>v1&#45;&gt;v0</title>
<path fill="none" stroke="black" d="M224,-935.697C224,-927.983 224,-918.712 224,-910.112"/>
<polygon fill="black" stroke="black" points="227.5,-910.104 224,-900.104 220.5,-910.104 227.5,-910.104"/>
</g>
<!-- v18 -->
<g id="node9" class="node"><title>v18</title>
<ellipse fill="none" stroke="black" cx="224" cy="-738" rx="27" ry="18"/>
<text text-anchor="middle" x="224" y="-734.3" font-family="Times,serif" font-size="14.00">18</text>
</g>
<!-- v3&#45;&gt;v18 -->
<g id="edge16" class="edge"><title>v3&#45;&gt;v18</title>
<path fill="none" stroke="black" d="M224,-791.697C224,-783.983 224,-774.712 224,-766.112"/>
<polygon fill="black" stroke="black" points="227.5,-766.104 224,-756.104 220.5,-766.104 227.5,-766.104"/>
</g>
<!-- v7 -->
<g id="node6" class="node"><title>v7</title>
<ellipse fill="none" stroke="black" cx="188" cy="-594" rx="27" ry="18"/>
<text text-anchor="middle" x="188" y="-590.3" font-family="Times,serif" font-size="14.00">7</text>
</g>
<!-- p2 -->
<g id="node7" class="node"><title>p2</title>
<path fill="none" stroke="black" d="M128.5,-540C128.5,-540 93.5,-540 93.5,-540 87.5,-540 81.5,-534 81.5,-528 81.5,-528 81.5,-516 81.5,-516 81.5,-510 87.5,-504 93.5,-504 93.5,-504 128.5,-504 128.5,-504 134.5,-504 140.5,-510 140.5,-516 140.5,-516 140.5,-528 140.5,-528 140.5,-534 134.5,-540 128.5,-540"/>
<text text-anchor="middle" x="111" y="-518.3" font-family="Times,serif" font-size="14.00">path (8)</text>
</g>
<!-- v7&#45;&gt;p2 -->
<g id="edge28" class="edge"><title>v7&#45;&gt;p2</title>
<path fill="none" stroke="black" d="M172.418,-578.834C162.421,-569.746 149.182,-557.71 137.555,-547.141"/>
<polygon fill="black" stroke="black" points="139.578,-544.25 129.824,-540.113 134.869,-549.429 139.578,-544.25"/>
</g>
<!-- p3 -->
<g id="node8" class="node"><title>p3</title>
<path fill="none" stroke="black" d="M205.5,-540C205.5,-540 170.5,-540 170.5,-540 164.5,-540 158.5,-534 158.5,-528 158.5,-528 158.5,-516 158.5,-516 158.5,-510 164.5,-504 170.5,-504 170.5,-504 205.5,-504 205.5,-504 211.5,-504 217.5,-510 217.5,-516 217.5,-516 217.5,-528 217.5,-528 217.5,-534 211.5,-540 205.5,-540"/>
<text text-anchor="middle" x="188" y="-518.3" font-family="Times,serif" font-size="14.00">path (2)</text>
</g>
<!-- v7&#45;&gt;p3 -->
<g id="edge71" class="edge"><title>v7&#45;&gt;p3</title>
<path fill="none" stroke="black" d="M188,-575.697C188,-567.983 188,-558.712 188,-550.112"/>
<polygon fill="black" stroke="black" points="191.5,-550.104 188,-540.104 184.5,-550.104 191.5,-550.104"/>
</g>
<!-- v19 -->
<g id="node10" class="node"><title>v19</title>
<ellipse fill="none" stroke="black" cx="152" cy="-666" rx="27" ry="18"/>
<text text-anchor="middle" x="152" y="-662.3" font-family="Times,serif" font-size="14.00">19</text>
</g>
<!-- v18&#45;&gt;v19 -->
<g id="edge4" class="edge"><title>v18&#45;&gt;v19</title>
<path fill="none" stroke="black" d="M209.43,-722.834C199.25,-712.938 185.476,-699.546 173.969,-688.359"/>
<polygon fill="black" stroke="black" points="176.405,-685.846 166.796,-681.385 171.526,-690.865 176.405,-685.846"/>
</g>
<!-- v23 -->
<g id="node12" class="node"><title>v23</title>
<ellipse fill="none" stroke="black" cx="224" cy="-666" rx="27" ry="18"/>
<text text-anchor="middle" x="224" y="-662.3" font-family="Times,serif" font-size="14.00">23</text>
</g>
<!-- v18&#45;&gt;v23 -->
<g id="edge57" class="edge"><title>v18&#45;&gt;v23</title>
<path fill="none" stroke="black" d="M224,-719.697C224,-711.983 224,-702.712 224,-694.112"/>
<polygon fill="black" stroke="black" points="227.5,-694.104 224,-684.104 220.5,-694.104 227.5,-694.104"/>
</g>
<!-- p6 -->
<g id="node19" class="node"><title>p6</title>
<path fill="none" stroke="black" d="M334.5,-684C334.5,-684 299.5,-684 299.5,-684 293.5,-684 287.5,-678 287.5,-672 287.5,-672 287.5,-660 287.5,-660 287.5,-654 293.5,-648 299.5,-648 299.5,-648 334.5,-648 334.5,-648 340.5,-648 346.5,-654 346.5,-660 346.5,-660 346.5,-672 346.5,-672 346.5,-678 340.5,-684 334.5,-684"/>
<text text-anchor="middle" x="317" y="-662.3" font-family="Times,serif" font-size="14.00">path (7)</text>
</g>
<!-- v18&#45;&gt;p6 -->
<g id="edge64" class="edge"><title>v18&#45;&gt;p6</title>
<path fill="none" stroke="black" d="M241.493,-723.834C253.984,-714.431 271.126,-701.529 285.919,-690.394"/>
<polygon fill="black" stroke="black" points="288.421,-692.892 294.305,-684.082 284.211,-687.299 288.421,-692.892"/>
</g>
<!-- p4 -->
<g id="node11" class="node"><title>p4</title>
<path fill="none" stroke="black" d="M113.5,-108C113.5,-108 78.5,-108 78.5,-108 72.5,-108 66.5,-102 66.5,-96 66.5,-96 66.5,-84 66.5,-84 66.5,-78 72.5,-72 78.5,-72 78.5,-72 113.5,-72 113.5,-72 119.5,-72 125.5,-78 125.5,-84 125.5,-84 125.5,-96 125.5,-96 125.5,-102 119.5,-108 113.5,-108"/>
<text text-anchor="middle" x="96" y="-86.3" font-family="Times,serif" font-size="14.00">path (4)</text>
</g>
<!-- v23&#45;&gt;v7 -->
<g id="edge5" class="edge"><title>v23&#45;&gt;v7</title>
<path fill="none" stroke="black" d="M215.65,-648.765C211.288,-640.283 205.853,-629.714 200.959,-620.197"/>
<polygon fill="black" stroke="black" points="203.99,-618.439 196.304,-611.147 197.765,-621.641 203.99,-618.439"/>
</g>
<!-- v24 -->
<g id="node13" class="node"><title>v24</title>
<ellipse fill="none" stroke="black" cx="335" cy="-594" rx="27" ry="18"/>
<text text-anchor="middle" x="335" y="-590.3" font-family="Times,serif" font-size="14.00">24</text>
</g>
<!-- v26 -->
<g id="node15" class="node"><title>v26</title>
<ellipse fill="none" stroke="black" cx="263" cy="-522" rx="27" ry="18"/>
<text text-anchor="middle" x="263" y="-518.3" font-family="Times,serif" font-size="14.00">26</text>
</g>
<!-- v24&#45;&gt;v26 -->
<g id="edge54" class="edge"><title>v24&#45;&gt;v26</title>
<path fill="none" stroke="black" d="M320.43,-578.834C310.25,-568.938 296.476,-555.546 284.969,-544.359"/>
<polygon fill="black" stroke="black" points="287.405,-541.846 277.796,-537.385 282.526,-546.865 287.405,-541.846"/>
</g>
<!-- v27 -->
<g id="node16" class="node"><title>v27</title>
<ellipse fill="none" stroke="black" cx="335" cy="-522" rx="27" ry="18"/>
<text text-anchor="middle" x="335" y="-518.3" font-family="Times,serif" font-size="14.00">27</text>
</g>
<!-- v24&#45;&gt;v27 -->
<g id="edge7" class="edge"><title>v24&#45;&gt;v27</title>
<path fill="none" stroke="black" d="M335,-575.697C335,-567.983 335,-558.712 335,-550.112"/>
<polygon fill="black" stroke="black" points="338.5,-550.104 335,-540.104 331.5,-550.104 338.5,-550.104"/>
</g>
<!-- v30 -->
<g id="node18" class="node"><title>v30</title>
<ellipse fill="none" stroke="black" cx="407" cy="-522" rx="27" ry="18"/>
<text text-anchor="middle" x="407" y="-518.3" font-family="Times,serif" font-size="14.00">30</text>
</g>
<!-- v24&#45;&gt;v30 -->
<g id="edge1" class="edge"><title>v24&#45;&gt;v30</title>
<path fill="none" stroke="black" d="M349.57,-578.834C359.75,-568.938 373.524,-555.546 385.031,-544.359"/>
<polygon fill="black" stroke="black" points="387.474,-546.865 392.204,-537.385 382.595,-541.846 387.474,-546.865"/>
</g>
<!-- v67 -->
<g id="node47" class="node"><title>v67</title>
<ellipse fill="none" stroke="black" cx="649" cy="-522" rx="27" ry="18"/>
<text text-anchor="middle" x="649" y="-518.3" font-family="Times,serif" font-size="14.00">67</text>
</g>
<!-- v24&#45;&gt;v67 -->
<g id="edge23" class="edge"><title>v24&#45;&gt;v67</title>
<path fill="none" stroke="black" d="M360.165,-587.39C415.859,-574.974 549.663,-545.145 613.695,-530.87"/>
<polygon fill="black" stroke="black" points="614.716,-534.229 623.715,-528.637 613.193,-527.397 614.716,-534.229"/>
</g>
<!-- v25 -->
<g id="node14" class="node"><title>v25</title>
<ellipse fill="none" stroke="black" cx="227" cy="-450" rx="27" ry="18"/>
<text text-anchor="middle" x="227" y="-446.3" font-family="Times,serif" font-size="14.00">25</text>
</g>
<!-- v26&#45;&gt;v25 -->
<g id="edge39" class="edge"><title>v26&#45;&gt;v25</title>
<path fill="none" stroke="black" d="M254.65,-504.765C250.288,-496.283 244.853,-485.714 239.959,-476.197"/>
<polygon fill="black" stroke="black" points="242.99,-474.439 235.304,-467.147 236.765,-477.641 242.99,-474.439"/>
</g>
<!-- v88 -->
<g id="node57" class="node"><title>v88</title>
<ellipse fill="none" stroke="black" cx="299" cy="-450" rx="27" ry="18"/>
<text text-anchor="middle" x="299" y="-446.3" font-family="Times,serif" font-size="14.00">88</text>
</g>
<!-- v26&#45;&gt;v88 -->
<g id="edge62" class="edge"><title>v26&#45;&gt;v88</title>
<path fill="none" stroke="black" d="M271.35,-504.765C275.712,-496.283 281.147,-485.714 286.041,-476.197"/>
<polygon fill="black" stroke="black" points="289.235,-477.641 290.696,-467.147 283.01,-474.439 289.235,-477.641"/>
</g>
<!-- p5 -->
<g id="node17" class="node"><title>p5</title>
<path fill="none" stroke="black" d="M407.5,-108C407.5,-108 372.5,-108 372.5,-108 366.5,-108 360.5,-102 360.5,-96 360.5,-96 360.5,-84 360.5,-84 360.5,-78 366.5,-72 372.5,-72 372.5,-72 407.5,-72 407.5,-72 413.5,-72 419.5,-78 419.5,-84 419.5,-84 419.5,-96 419.5,-96 419.5,-102 413.5,-108 407.5,-108"/>
<text text-anchor="middle" x="390" y="-86.3" font-family="Times,serif" font-size="14.00">path (3)</text>
</g>
<!-- v69 -->
<g id="node49" class="node"><title>v69</title>
<ellipse fill="none" stroke="black" cx="389" cy="-450" rx="27" ry="18"/>
<text text-anchor="middle" x="389" y="-446.3" font-family="Times,serif" font-size="14.00">69</text>
</g>
<!-- v30&#45;&gt;v69 -->
<g id="edge17" class="edge"><title>v30&#45;&gt;v69</title>
<path fill="none" stroke="black" d="M402.643,-504.055C400.609,-496.145 398.139,-486.54 395.863,-477.688"/>
<polygon fill="black" stroke="black" points="399.197,-476.602 393.317,-467.789 392.418,-478.346 399.197,-476.602"/>
</g>
<!-- p6&#45;&gt;v24 -->
<g id="edge65" class="edge"><title>p6&#45;&gt;v24</title>
<path fill="none" stroke="black" d="M321.449,-647.697C323.455,-639.898 325.869,-630.509 328.101,-621.829"/>
<polygon fill="black" stroke="black" points="331.501,-622.661 330.602,-612.104 324.722,-620.918 331.501,-622.661"/>
</g>
<!-- v33 -->
<g id="node20" class="node"><title>v33</title>
<ellipse fill="none" stroke="black" cx="78" cy="-234" rx="27" ry="18"/>
<text text-anchor="middle" x="78" y="-230.3" font-family="Times,serif" font-size="14.00">33</text>
</g>
<!-- v34 -->
<g id="node21" class="node"><title>v34</title>
<ellipse fill="none" stroke="black" cx="297" cy="-306" rx="27" ry="18"/>
<text text-anchor="middle" x="297" y="-302.3" font-family="Times,serif" font-size="14.00">34</text>
</g>
<!-- v34&#45;&gt;v33 -->
<g id="edge45" class="edge"><title>v34&#45;&gt;v33</title>
<path fill="none" stroke="black" d="M272.024,-299.111C236.408,-290.412 169.225,-272.884 114,-252 112.157,-251.303 110.279,-250.551 108.395,-249.764"/>
<polygon fill="black" stroke="black" points="109.639,-246.487 99.078,-245.639 106.805,-252.888 109.639,-246.487"/>
</g>
<!-- v35 -->
<g id="node22" class="node"><title>v35</title>
<ellipse fill="none" stroke="black" cx="150" cy="-234" rx="27" ry="18"/>
<text text-anchor="middle" x="150" y="-230.3" font-family="Times,serif" font-size="14.00">35</text>
</g>
<!-- v34&#45;&gt;v35 -->
<g id="edge18" class="edge"><title>v34&#45;&gt;v35</title>
<path fill="none" stroke="black" d="M275.625,-294.821C250.585,-282.898 208.917,-263.056 180.49,-249.519"/>
<polygon fill="black" stroke="black" points="181.934,-246.33 171.401,-245.191 178.925,-252.65 181.934,-246.33"/>
</g>
<!-- v41 -->
<g id="node27" class="node"><title>v41</title>
<ellipse fill="none" stroke="black" cx="222" cy="-234" rx="27" ry="18"/>
<text text-anchor="middle" x="222" y="-230.3" font-family="Times,serif" font-size="14.00">41</text>
</g>
<!-- v34&#45;&gt;v41 -->
<g id="edge14" class="edge"><title>v34&#45;&gt;v41</title>
<path fill="none" stroke="black" d="M281.823,-290.834C271.149,-280.872 256.681,-267.369 244.647,-256.137"/>
<polygon fill="black" stroke="black" points="246.854,-253.409 237.155,-249.144 242.077,-258.526 246.854,-253.409"/>
</g>
<!-- p8 -->
<g id="node33" class="node"><title>p8</title>
<path fill="none" stroke="black" d="M314.5,-252C314.5,-252 279.5,-252 279.5,-252 273.5,-252 267.5,-246 267.5,-240 267.5,-240 267.5,-228 267.5,-228 267.5,-222 273.5,-216 279.5,-216 279.5,-216 314.5,-216 314.5,-216 320.5,-216 326.5,-222 326.5,-228 326.5,-228 326.5,-240 326.5,-240 326.5,-246 320.5,-252 314.5,-252"/>
<text text-anchor="middle" x="297" y="-230.3" font-family="Times,serif" font-size="14.00">path (3)</text>
</g>
<!-- v34&#45;&gt;p8 -->
<g id="edge3" class="edge"><title>v34&#45;&gt;p8</title>
<path fill="none" stroke="black" d="M297,-287.697C297,-279.983 297,-270.712 297,-262.112"/>
<polygon fill="black" stroke="black" points="300.5,-262.104 297,-252.104 293.5,-262.104 300.5,-262.104"/>
</g>
<!-- v85 -->
<g id="node56" class="node"><title>v85</title>
<ellipse fill="none" stroke="black" cx="372" cy="-234" rx="27" ry="18"/>
<text text-anchor="middle" x="372" y="-230.3" font-family="Times,serif" font-size="14.00">85</text>
</g>
<!-- v34&#45;&gt;v85 -->
<g id="edge10" class="edge"><title>v34&#45;&gt;v85</title>
<path fill="none" stroke="black" d="M312.177,-290.834C322.851,-280.872 337.319,-267.369 349.353,-256.137"/>
<polygon fill="black" stroke="black" points="351.923,-258.526 356.845,-249.144 347.146,-253.409 351.923,-258.526"/>
</g>
<!-- v109 -->
<g id="node70" class="node"><title>v109</title>
<ellipse fill="none" stroke="black" cx="444" cy="-234" rx="27" ry="18"/>
<text text-anchor="middle" x="444" y="-230.3" font-family="Times,serif" font-size="14.00">109</text>
</g>
<!-- v34&#45;&gt;v109 -->
<g id="edge41" class="edge"><title>v34&#45;&gt;v109</title>
<path fill="none" stroke="black" d="M318.375,-294.821C343.415,-282.898 385.083,-263.056 413.51,-249.519"/>
<polygon fill="black" stroke="black" points="415.075,-252.65 422.599,-245.191 412.066,-246.33 415.075,-252.65"/>
</g>
<!-- v36 -->
<g id="node23" class="node"><title>v36</title>
<ellipse fill="none" stroke="black" cx="465" cy="-90" rx="27" ry="18"/>
<text text-anchor="middle" x="465" y="-86.3" font-family="Times,serif" font-size="14.00">36</text>
</g>
<!-- v37 -->
<g id="node24" class="node"><title>v37</title>
<ellipse fill="none" stroke="black" cx="390" cy="-162" rx="27" ry="18"/>
<text text-anchor="middle" x="390" y="-158.3" font-family="Times,serif" font-size="14.00">37</text>
</g>
<!-- v37&#45;&gt;p5 -->
<g id="edge12" class="edge"><title>v37&#45;&gt;p5</title>
<path fill="none" stroke="black" d="M390,-143.697C390,-135.983 390,-126.712 390,-118.112"/>
<polygon fill="black" stroke="black" points="393.5,-118.104 390,-108.104 386.5,-118.104 393.5,-118.104"/>
</g>
<!-- v37&#45;&gt;v36 -->
<g id="edge37" class="edge"><title>v37&#45;&gt;v36</title>
<path fill="none" stroke="black" d="M405.177,-146.834C415.851,-136.872 430.319,-123.369 442.353,-112.137"/>
<polygon fill="black" stroke="black" points="444.923,-114.526 449.845,-105.144 440.146,-109.409 444.923,-114.526"/>
</g>
<!-- v39 -->
<g id="node25" class="node"><title>v39</title>
<ellipse fill="none" stroke="black" cx="243" cy="-90" rx="27" ry="18"/>
<text text-anchor="middle" x="243" y="-86.3" font-family="Times,serif" font-size="14.00">39</text>
</g>
<!-- p7 -->
<g id="node26" class="node"><title>p7</title>
<path fill="none" stroke="black" d="M223.5,-36C223.5,-36 188.5,-36 188.5,-36 182.5,-36 176.5,-30 176.5,-24 176.5,-24 176.5,-12 176.5,-12 176.5,-6 182.5,-0 188.5,-0 188.5,-0 223.5,-0 223.5,-0 229.5,-0 235.5,-6 235.5,-12 235.5,-12 235.5,-24 235.5,-24 235.5,-30 229.5,-36 223.5,-36"/>
<text text-anchor="middle" x="206" y="-14.3" font-family="Times,serif" font-size="14.00">path (3)</text>
</g>
<!-- v39&#45;&gt;p7 -->
<g id="edge43" class="edge"><title>v39&#45;&gt;p7</title>
<path fill="none" stroke="black" d="M234.418,-72.7646C230.063,-64.5255 224.667,-54.3166 219.751,-45.0157"/>
<polygon fill="black" stroke="black" points="222.819,-43.3293 215.051,-36.1239 216.63,-46.6005 222.819,-43.3293"/>
</g>
<!-- v108 -->
<g id="node69" class="node"><title>v108</title>
<ellipse fill="none" stroke="black" cx="281" cy="-18" rx="27" ry="18"/>
<text text-anchor="middle" x="281" y="-14.3" font-family="Times,serif" font-size="14.00">108</text>
</g>
<!-- v39&#45;&gt;v108 -->
<g id="edge53" class="edge"><title>v39&#45;&gt;v108</title>
<path fill="none" stroke="black" d="M251.813,-72.7646C256.418,-64.2831 262.155,-53.7144 267.321,-44.1974"/>
<polygon fill="black" stroke="black" points="270.539,-45.6057 272.234,-35.1473 264.387,-42.266 270.539,-45.6057"/>
</g>
<!-- v42 -->
<g id="node28" class="node"><title>v42</title>
<ellipse fill="none" stroke="black" cx="27" cy="-162" rx="27" ry="18"/>
<text text-anchor="middle" x="27" y="-158.3" font-family="Times,serif" font-size="14.00">42</text>
</g>
<!-- v41&#45;&gt;v42 -->
<g id="edge47" class="edge"><title>v41&#45;&gt;v42</title>
<path fill="none" stroke="black" d="M200.918,-222.371C196.079,-220.121 190.911,-217.865 186,-216 132.751,-195.777 116.249,-200.223 63,-180 61.1585,-179.301 59.2808,-178.546 57.3978,-177.758"/>
<polygon fill="black" stroke="black" points="58.6424,-174.481 48.0819,-173.629 55.8058,-180.881 58.6424,-174.481"/>
</g>
<!-- v45 -->
<g id="node30" class="node"><title>v45</title>
<ellipse fill="none" stroke="black" cx="99" cy="-162" rx="27" ry="18"/>
<text text-anchor="middle" x="99" y="-158.3" font-family="Times,serif" font-size="14.00">45</text>
</g>
<!-- v41&#45;&gt;v45 -->
<g id="edge13" class="edge"><title>v41&#45;&gt;v45</title>
<path fill="none" stroke="black" d="M201.964,-221.597C181.861,-210.157 150.694,-192.42 127.914,-179.455"/>
<polygon fill="black" stroke="black" points="129.45,-176.302 119.027,-174.398 125.987,-182.386 129.45,-176.302"/>
</g>
<!-- v46 -->
<g id="node31" class="node"><title>v46</title>
<ellipse fill="none" stroke="black" cx="171" cy="-162" rx="27" ry="18"/>
<text text-anchor="middle" x="171" y="-158.3" font-family="Times,serif" font-size="14.00">46</text>
</g>
<!-- v41&#45;&gt;v46 -->
<g id="edge63" class="edge"><title>v41&#45;&gt;v46</title>
<path fill="none" stroke="black" d="M210.681,-217.465C204.079,-208.402 195.616,-196.786 188.203,-186.612"/>
<polygon fill="black" stroke="black" points="191.004,-184.513 182.287,-178.492 185.347,-188.635 191.004,-184.513"/>
</g>
<!-- v47 -->
<g id="node32" class="node"><title>v47</title>
<ellipse fill="none" stroke="black" cx="243" cy="-162" rx="27" ry="18"/>
<text text-anchor="middle" x="243" y="-158.3" font-family="Times,serif" font-size="14.00">47</text>
</g>
<!-- v41&#45;&gt;v47 -->
<g id="edge40" class="edge"><title>v41&#45;&gt;v47</title>
<path fill="none" stroke="black" d="M227.084,-216.055C229.482,-208.059 232.401,-198.331 235.08,-189.4"/>
<polygon fill="black" stroke="black" points="238.442,-190.373 237.963,-179.789 231.737,-188.362 238.442,-190.373"/>
</g>
<!-- v43 -->
<g id="node29" class="node"><title>v43</title>
<ellipse fill="none" stroke="black" cx="171" cy="-90" rx="27" ry="18"/>
<text text-anchor="middle" x="171" y="-86.3" font-family="Times,serif" font-size="14.00">43</text>
</g>
<!-- v46&#45;&gt;p4 -->
<g id="edge6" class="edge"><title>v46&#45;&gt;p4</title>
<path fill="none" stroke="black" d="M155.823,-146.834C146.085,-137.746 133.19,-125.71 121.866,-115.141"/>
<polygon fill="black" stroke="black" points="124.034,-112.377 114.335,-108.113 119.258,-117.495 124.034,-112.377"/>
</g>
<!-- v46&#45;&gt;v43 -->
<g id="edge22" class="edge"><title>v46&#45;&gt;v43</title>
<path fill="none" stroke="black" d="M171,-143.697C171,-135.983 171,-126.712 171,-118.112"/>
<polygon fill="black" stroke="black" points="174.5,-118.104 171,-108.104 167.5,-118.104 174.5,-118.104"/>
</g>
<!-- v53 -->
<g id="node35" class="node"><title>v53</title>
<ellipse fill="none" stroke="black" cx="315" cy="-162" rx="27" ry="18"/>
<text text-anchor="middle" x="315" y="-158.3" font-family="Times,serif" font-size="14.00">53</text>
</g>
<!-- p8&#45;&gt;v53 -->
<g id="edge8" class="edge"><title>p8&#45;&gt;v53</title>
<path fill="none" stroke="black" d="M301.449,-215.697C303.455,-207.898 305.869,-198.509 308.101,-189.829"/>
<polygon fill="black" stroke="black" points="311.501,-190.661 310.602,-180.104 304.722,-188.918 311.501,-190.661"/>
</g>
<!-- v50 -->
<g id="node34" class="node"><title>v50</title>
<ellipse fill="none" stroke="black" cx="315" cy="-90" rx="27" ry="18"/>
<text text-anchor="middle" x="315" y="-86.3" font-family="Times,serif" font-size="14.00">50</text>
</g>
<!-- v53&#45;&gt;v39 -->
<g id="edge32" class="edge"><title>v53&#45;&gt;v39</title>
<path fill="none" stroke="black" d="M300.43,-146.834C290.25,-136.938 276.476,-123.546 264.969,-112.359"/>
<polygon fill="black" stroke="black" points="267.405,-109.846 257.796,-105.385 262.526,-114.865 267.405,-109.846"/>
</g>
<!-- v53&#45;&gt;v50 -->
<g id="edge70" class="edge"><title>v53&#45;&gt;v50</title>
<path fill="none" stroke="black" d="M315,-143.697C315,-135.983 315,-126.712 315,-118.112"/>
<polygon fill="black" stroke="black" points="318.5,-118.104 315,-108.104 311.5,-118.104 318.5,-118.104"/>
</g>
<!-- p9 -->
<g id="node36" class="node"><title>p9</title>
<path fill="none" stroke="black" d="M532.5,-324C532.5,-324 497.5,-324 497.5,-324 491.5,-324 485.5,-318 485.5,-312 485.5,-312 485.5,-300 485.5,-300 485.5,-294 491.5,-288 497.5,-288 497.5,-288 532.5,-288 532.5,-288 538.5,-288 544.5,-294 544.5,-300 544.5,-300 544.5,-312 544.5,-312 544.5,-318 538.5,-324 532.5,-324"/>
<text text-anchor="middle" x="515" y="-302.3" font-family="Times,serif" font-size="14.00">path (2)</text>
</g>
<!-- v55 -->
<g id="node37" class="node"><title>v55</title>
<ellipse fill="none" stroke="black" cx="516" cy="-234" rx="27" ry="18"/>
<text text-anchor="middle" x="516" y="-230.3" font-family="Times,serif" font-size="14.00">55</text>
</g>
<!-- p9&#45;&gt;v55 -->
<g id="edge2" class="edge"><title>p9&#45;&gt;v55</title>
<path fill="none" stroke="black" d="M515.247,-287.697C515.357,-279.983 515.49,-270.712 515.613,-262.112"/>
<polygon fill="black" stroke="black" points="519.112,-262.153 515.756,-252.104 512.113,-262.053 519.112,-262.153"/>
</g>
<!-- p10 -->
<g id="node39" class="node"><title>p10</title>
<path fill="none" stroke="black" d="M516.5,-180C516.5,-180 481.5,-180 481.5,-180 475.5,-180 469.5,-174 469.5,-168 469.5,-168 469.5,-156 469.5,-156 469.5,-150 475.5,-144 481.5,-144 481.5,-144 516.5,-144 516.5,-144 522.5,-144 528.5,-150 528.5,-156 528.5,-156 528.5,-168 528.5,-168 528.5,-174 522.5,-180 516.5,-180"/>
<text text-anchor="middle" x="499" y="-158.3" font-family="Times,serif" font-size="14.00">path (2)</text>
</g>
<!-- v55&#45;&gt;p10 -->
<g id="edge61" class="edge"><title>v55&#45;&gt;p10</title>
<path fill="none" stroke="black" d="M511.885,-216.055C509.992,-208.261 507.7,-198.822 505.576,-190.079"/>
<polygon fill="black" stroke="black" points="508.957,-189.167 503.195,-180.275 502.154,-190.819 508.957,-189.167"/>
</g>
<!-- p11 -->
<g id="node42" class="node"><title>p11</title>
<path fill="none" stroke="black" d="M593.5,-180C593.5,-180 558.5,-180 558.5,-180 552.5,-180 546.5,-174 546.5,-168 546.5,-168 546.5,-156 546.5,-156 546.5,-150 552.5,-144 558.5,-144 558.5,-144 593.5,-144 593.5,-144 599.5,-144 605.5,-150 605.5,-156 605.5,-156 605.5,-168 605.5,-168 605.5,-174 599.5,-180 593.5,-180"/>
<text text-anchor="middle" x="576" y="-158.3" font-family="Times,serif" font-size="14.00">path (4)</text>
</g>
<!-- v55&#45;&gt;p11 -->
<g id="edge44" class="edge"><title>v55&#45;&gt;p11</title>
<path fill="none" stroke="black" d="M529.019,-217.811C536.525,-209.054 546.146,-197.83 554.724,-187.822"/>
<polygon fill="black" stroke="black" points="557.469,-189.997 561.32,-180.127 552.155,-185.442 557.469,-189.997"/>
</g>
<!-- v56 -->
<g id="node38" class="node"><title>v56</title>
<ellipse fill="none" stroke="black" cx="497" cy="-450" rx="27" ry="18"/>
<text text-anchor="middle" x="497" y="-446.3" font-family="Times,serif" font-size="14.00">56</text>
</g>
<!-- v58 -->
<g id="node40" class="node"><title>v58</title>
<ellipse fill="none" stroke="black" cx="461" cy="-378" rx="27" ry="18"/>
<text text-anchor="middle" x="461" y="-374.3" font-family="Times,serif" font-size="14.00">58</text>
</g>
<!-- v56&#45;&gt;v58 -->
<g id="edge11" class="edge"><title>v56&#45;&gt;v58</title>
<path fill="none" stroke="black" d="M488.65,-432.765C484.288,-424.283 478.853,-413.714 473.959,-404.197"/>
<polygon fill="black" stroke="black" points="476.99,-402.439 469.304,-395.147 470.765,-405.641 476.99,-402.439"/>
</g>
<!-- v59 -->
<g id="node41" class="node"><title>v59</title>
<ellipse fill="none" stroke="black" cx="533" cy="-378" rx="27" ry="18"/>
<text text-anchor="middle" x="533" y="-374.3" font-family="Times,serif" font-size="14.00">59</text>
</g>
<!-- v56&#45;&gt;v59 -->
<g id="edge29" class="edge"><title>v56&#45;&gt;v59</title>
<path fill="none" stroke="black" d="M505.35,-432.765C509.712,-424.283 515.147,-413.714 520.041,-404.197"/>
<polygon fill="black" stroke="black" points="523.235,-405.641 524.696,-395.147 517.01,-402.439 523.235,-405.641"/>
</g>
<!-- p17 -->
<g id="node63" class="node"><title>p17</title>
<path fill="none" stroke="black" d="M625.5,-396C625.5,-396 590.5,-396 590.5,-396 584.5,-396 578.5,-390 578.5,-384 578.5,-384 578.5,-372 578.5,-372 578.5,-366 584.5,-360 590.5,-360 590.5,-360 625.5,-360 625.5,-360 631.5,-360 637.5,-366 637.5,-372 637.5,-372 637.5,-384 637.5,-384 637.5,-390 631.5,-396 625.5,-396"/>
<text text-anchor="middle" x="608" y="-374.3" font-family="Times,serif" font-size="14.00">path (2)</text>
</g>
<!-- v56&#45;&gt;p17 -->
<g id="edge59" class="edge"><title>v56&#45;&gt;p17</title>
<path fill="none" stroke="black" d="M516.082,-436.967C531.493,-427.248 553.611,-413.299 572.289,-401.52"/>
<polygon fill="black" stroke="black" points="574.273,-404.407 580.864,-396.113 570.539,-398.486 574.273,-404.407"/>
</g>
<!-- v58&#45;&gt;v34 -->
<g id="edge69" class="edge"><title>v58&#45;&gt;v34</title>
<path fill="none" stroke="black" d="M439.758,-366.76C434.927,-364.489 429.803,-362.127 425,-360 392.629,-345.665 355.166,-330.293 329.169,-319.815"/>
<polygon fill="black" stroke="black" points="330.385,-316.532 319.801,-316.052 327.775,-323.027 330.385,-316.532"/>
</g>
<!-- v58&#45;&gt;p9 -->
<g id="edge25" class="edge"><title>v58&#45;&gt;p9</title>
<path fill="none" stroke="black" d="M472.984,-361.465C479.521,-352.991 487.78,-342.286 495.241,-332.613"/>
<polygon fill="black" stroke="black" points="498.193,-334.517 501.53,-324.461 492.651,-330.241 498.193,-334.517"/>
</g>
<!-- v101 -->
<g id="node66" class="node"><title>v101</title>
<ellipse fill="none" stroke="black" cx="576" cy="-90" rx="27" ry="18"/>
<text text-anchor="middle" x="576" y="-86.3" font-family="Times,serif" font-size="14.00">101</text>
</g>
<!-- p11&#45;&gt;v101 -->
<g id="edge52" class="edge"><title>p11&#45;&gt;v101</title>
<path fill="none" stroke="black" d="M576,-143.697C576,-135.983 576,-126.712 576,-118.112"/>
<polygon fill="black" stroke="black" points="579.5,-118.104 576,-108.104 572.5,-118.104 579.5,-118.104"/>
</g>
<!-- v62 -->
<g id="node43" class="node"><title>v62</title>
<ellipse fill="none" stroke="black" cx="723" cy="-234" rx="27" ry="18"/>
<text text-anchor="middle" x="723" y="-230.3" font-family="Times,serif" font-size="14.00">62</text>
</g>
<!-- v63 -->
<g id="node44" class="node"><title>v63</title>
<ellipse fill="none" stroke="black" cx="723" cy="-306" rx="27" ry="18"/>
<text text-anchor="middle" x="723" y="-302.3" font-family="Times,serif" font-size="14.00">63</text>
</g>
<!-- v62&#45;&gt;v63 -->
<g id="edge67" class="edge"><title>v62&#45;&gt;v63</title>
<path fill="none" stroke="black" d="M728.879,-251.956C729.714,-259.827 729.948,-269.374 729.583,-278.187"/>
<polygon fill="black" stroke="black" points="726.074,-278.184 728.84,-288.411 733.056,-278.691 726.074,-278.184"/>
</g>
<!-- v77 -->
<g id="node54" class="node"><title>v77</title>
<ellipse fill="none" stroke="black" cx="651" cy="-162" rx="27" ry="18"/>
<text text-anchor="middle" x="651" y="-158.3" font-family="Times,serif" font-size="14.00">77</text>
</g>
<!-- v62&#45;&gt;v77 -->
<g id="edge73" class="edge"><title>v62&#45;&gt;v77</title>
<path fill="none" stroke="black" d="M708.43,-218.834C698.25,-208.938 684.476,-195.546 672.969,-184.359"/>
<polygon fill="black" stroke="black" points="675.405,-181.846 665.796,-177.385 670.526,-186.865 675.405,-181.846"/>
</g>
<!-- v91 -->
<g id="node59" class="node"><title>v91</title>
<ellipse fill="none" stroke="black" cx="723" cy="-162" rx="27" ry="18"/>
<text text-anchor="middle" x="723" y="-158.3" font-family="Times,serif" font-size="14.00">91</text>
</g>
<!-- v62&#45;&gt;v91 -->
<g id="edge19" class="edge"><title>v62&#45;&gt;v91</title>
<path fill="none" stroke="black" d="M723,-215.697C723,-207.983 723,-198.712 723,-190.112"/>
<polygon fill="black" stroke="black" points="726.5,-190.104 723,-180.104 719.5,-190.104 726.5,-190.104"/>
</g>
<!-- p20 -->
<g id="node68" class="node"><title>p20</title>
<path fill="none" stroke="black" d="M815.5,-180C815.5,-180 780.5,-180 780.5,-180 774.5,-180 768.5,-174 768.5,-168 768.5,-168 768.5,-156 768.5,-156 768.5,-150 774.5,-144 780.5,-144 780.5,-144 815.5,-144 815.5,-144 821.5,-144 827.5,-150 827.5,-156 827.5,-156 827.5,-168 827.5,-168 827.5,-174 821.5,-180 815.5,-180"/>
<text text-anchor="middle" x="798" y="-158.3" font-family="Times,serif" font-size="14.00">path (3)</text>
</g>
<!-- v62&#45;&gt;p20 -->
<g id="edge72" class="edge"><title>v62&#45;&gt;p20</title>
<path fill="none" stroke="black" d="M738.177,-218.834C747.915,-209.746 760.81,-197.71 772.134,-187.141"/>
<polygon fill="black" stroke="black" points="774.742,-189.495 779.665,-180.113 769.966,-184.377 774.742,-189.495"/>
</g>
<!-- v63&#45;&gt;v62 -->
<g id="edge68" class="edge"><title>v63&#45;&gt;v62</title>
<path fill="none" stroke="black" d="M717.16,-288.411C716.297,-280.507 716.048,-270.852 716.412,-261.935"/>
<polygon fill="black" stroke="black" points="719.903,-262.179 717.121,-251.956 712.921,-261.683 719.903,-262.179"/>
</g>
<!-- p15 -->
<g id="node55" class="node"><title>p15</title>
<path fill="none" stroke="black" d="M815.5,-252C815.5,-252 780.5,-252 780.5,-252 774.5,-252 768.5,-246 768.5,-240 768.5,-240 768.5,-228 768.5,-228 768.5,-222 774.5,-216 780.5,-216 780.5,-216 815.5,-216 815.5,-216 821.5,-216 827.5,-222 827.5,-228 827.5,-228 827.5,-240 827.5,-240 827.5,-246 821.5,-252 815.5,-252"/>
<text text-anchor="middle" x="798" y="-230.3" font-family="Times,serif" font-size="14.00">path (2)</text>
</g>
<!-- v63&#45;&gt;p15 -->
<g id="edge35" class="edge"><title>v63&#45;&gt;p15</title>
<path fill="none" stroke="black" d="M738.177,-290.834C747.915,-281.746 760.81,-269.71 772.134,-259.141"/>
<polygon fill="black" stroke="black" points="774.742,-261.495 779.665,-252.113 769.966,-256.377 774.742,-261.495"/>
</g>
<!-- p12 -->
<g id="node45" class="node"><title>p12</title>
<path fill="none" stroke="black" d="M589.5,-468C589.5,-468 554.5,-468 554.5,-468 548.5,-468 542.5,-462 542.5,-456 542.5,-456 542.5,-444 542.5,-444 542.5,-438 548.5,-432 554.5,-432 554.5,-432 589.5,-432 589.5,-432 595.5,-432 601.5,-438 601.5,-444 601.5,-444 601.5,-456 601.5,-456 601.5,-462 595.5,-468 589.5,-468"/>
<text text-anchor="middle" x="572" y="-446.3" font-family="Times,serif" font-size="14.00">path (2)</text>
</g>
<!-- v66 -->
<g id="node46" class="node"><title>v66</title>
<ellipse fill="none" stroke="black" cx="317" cy="-378" rx="27" ry="18"/>
<text text-anchor="middle" x="317" y="-374.3" font-family="Times,serif" font-size="14.00">66</text>
</g>
<!-- v67&#45;&gt;v56 -->
<g id="edge24" class="edge"><title>v67&#45;&gt;v56</title>
<path fill="none" stroke="black" d="M627.155,-511.118C603.809,-500.534 565.731,-483.205 533,-468 531.213,-467.17 529.379,-466.314 527.528,-465.449"/>
<polygon fill="black" stroke="black" points="528.839,-462.197 518.3,-461.112 525.862,-468.533 528.839,-462.197"/>
</g>
<!-- v67&#45;&gt;p12 -->
<g id="edge49" class="edge"><title>v67&#45;&gt;p12</title>
<path fill="none" stroke="black" d="M633.418,-506.834C623.421,-497.746 610.182,-485.71 598.555,-475.141"/>
<polygon fill="black" stroke="black" points="600.578,-472.25 590.824,-468.113 595.869,-477.429 600.578,-472.25"/>
</g>
<!-- p13 -->
<g id="node50" class="node"><title>p13</title>
<path fill="none" stroke="black" d="M666.5,-468C666.5,-468 631.5,-468 631.5,-468 625.5,-468 619.5,-462 619.5,-456 619.5,-456 619.5,-444 619.5,-444 619.5,-438 625.5,-432 631.5,-432 631.5,-432 666.5,-432 666.5,-432 672.5,-432 678.5,-438 678.5,-444 678.5,-444 678.5,-456 678.5,-456 678.5,-462 672.5,-468 666.5,-468"/>
<text text-anchor="middle" x="649" y="-446.3" font-family="Times,serif" font-size="14.00">path (2)</text>
</g>
<!-- v67&#45;&gt;p13 -->
<g id="edge30" class="edge"><title>v67&#45;&gt;p13</title>
<path fill="none" stroke="black" d="M649,-503.697C649,-495.983 649,-486.712 649,-478.112"/>
<polygon fill="black" stroke="black" points="652.5,-478.104 649,-468.104 645.5,-478.104 652.5,-478.104"/>
</g>
<!-- v75 -->
<g id="node52" class="node"><title>v75</title>
<ellipse fill="none" stroke="black" cx="724" cy="-450" rx="27" ry="18"/>
<text text-anchor="middle" x="724" y="-446.3" font-family="Times,serif" font-size="14.00">75</text>
</g>
<!-- v67&#45;&gt;v75 -->
<g id="edge46" class="edge"><title>v67&#45;&gt;v75</title>
<path fill="none" stroke="black" d="M664.177,-506.834C674.851,-496.872 689.319,-483.369 701.353,-472.137"/>
<polygon fill="black" stroke="black" points="703.923,-474.526 708.845,-465.144 699.146,-469.409 703.923,-474.526"/>
</g>
<!-- v76 -->
<g id="node53" class="node"><title>v76</title>
<ellipse fill="none" stroke="black" cx="796" cy="-450" rx="27" ry="18"/>
<text text-anchor="middle" x="796" y="-446.3" font-family="Times,serif" font-size="14.00">76</text>
</g>
<!-- v67&#45;&gt;v76 -->
<g id="edge48" class="edge"><title>v67&#45;&gt;v76</title>
<path fill="none" stroke="black" d="M670.375,-510.821C695.415,-498.898 737.083,-479.056 765.51,-465.519"/>
<polygon fill="black" stroke="black" points="767.075,-468.65 774.599,-461.191 764.066,-462.33 767.075,-468.65"/>
</g>
<!-- v94 -->
<g id="node61" class="node"><title>v94</title>
<ellipse fill="none" stroke="black" cx="868" cy="-450" rx="27" ry="18"/>
<text text-anchor="middle" x="868" y="-446.3" font-family="Times,serif" font-size="14.00">94</text>
</g>
<!-- v67&#45;&gt;v94 -->
<g id="edge26" class="edge"><title>v67&#45;&gt;v94</title>
<path fill="none" stroke="black" d="M673.976,-515.111C709.592,-506.412 776.775,-488.884 832,-468 833.843,-467.303 835.721,-466.551 837.605,-465.764"/>
<polygon fill="black" stroke="black" points="839.195,-468.888 846.922,-461.639 836.361,-462.487 839.195,-468.888"/>
</g>
<!-- v68 -->
<g id="node48" class="node"><title>v68</title>
<ellipse fill="none" stroke="black" cx="723" cy="-378" rx="27" ry="18"/>
<text text-anchor="middle" x="723" y="-374.3" font-family="Times,serif" font-size="14.00">68</text>
</g>
<!-- v68&#45;&gt;v63 -->
<g id="edge42" class="edge"><title>v68&#45;&gt;v63</title>
<path fill="none" stroke="black" d="M723,-359.697C723,-351.983 723,-342.712 723,-334.112"/>
<polygon fill="black" stroke="black" points="726.5,-334.104 723,-324.104 719.5,-334.104 726.5,-334.104"/>
</g>
<!-- v69&#45;&gt;v66 -->
<g id="edge33" class="edge"><title>v69&#45;&gt;v66</title>
<path fill="none" stroke="black" d="M374.43,-434.834C364.25,-424.938 350.476,-411.546 338.969,-400.359"/>
<polygon fill="black" stroke="black" points="341.405,-397.846 331.796,-393.385 336.526,-402.865 341.405,-397.846"/>
</g>
<!-- v95 -->
<g id="node62" class="node"><title>v95</title>
<ellipse fill="none" stroke="black" cx="389" cy="-378" rx="27" ry="18"/>
<text text-anchor="middle" x="389" y="-374.3" font-family="Times,serif" font-size="14.00">95</text>
</g>
<!-- v69&#45;&gt;v95 -->
<g id="edge34" class="edge"><title>v69&#45;&gt;v95</title>
<path fill="none" stroke="black" d="M389,-431.697C389,-423.983 389,-414.712 389,-406.112"/>
<polygon fill="black" stroke="black" points="392.5,-406.104 389,-396.104 385.5,-406.104 392.5,-406.104"/>
</g>
<!-- p14 -->
<g id="node51" class="node"><title>p14</title>
<path fill="none" stroke="black" d="M815.5,-396C815.5,-396 780.5,-396 780.5,-396 774.5,-396 768.5,-390 768.5,-384 768.5,-384 768.5,-372 768.5,-372 768.5,-366 774.5,-360 780.5,-360 780.5,-360 815.5,-360 815.5,-360 821.5,-360 827.5,-366 827.5,-372 827.5,-372 827.5,-384 827.5,-384 827.5,-390 821.5,-396 815.5,-396"/>
<text text-anchor="middle" x="798" y="-374.3" font-family="Times,serif" font-size="14.00">path (2)</text>
</g>
<!-- v75&#45;&gt;v68 -->
<g id="edge38" class="edge"><title>v75&#45;&gt;v68</title>
<path fill="none" stroke="black" d="M723.753,-431.697C723.643,-423.983 723.51,-414.712 723.387,-406.112"/>
<polygon fill="black" stroke="black" points="726.887,-406.053 723.244,-396.104 719.888,-406.153 726.887,-406.053"/>
</g>
<!-- v75&#45;&gt;p14 -->
<g id="edge58" class="edge"><title>v75&#45;&gt;p14</title>
<path fill="none" stroke="black" d="M738.975,-434.834C748.583,-425.746 761.306,-413.71 772.479,-403.141"/>
<polygon fill="black" stroke="black" points="775.05,-405.527 779.909,-396.113 770.239,-400.442 775.05,-405.527"/>
</g>
<!-- v85&#45;&gt;v37 -->
<g id="edge21" class="edge"><title>v85&#45;&gt;v37</title>
<path fill="none" stroke="black" d="M376.357,-216.055C378.391,-208.145 380.861,-198.54 383.137,-189.688"/>
<polygon fill="black" stroke="black" points="386.582,-190.346 385.683,-179.789 379.803,-188.602 386.582,-190.346"/>
</g>
<!-- v90 -->
<g id="node58" class="node"><title>v90</title>
<ellipse fill="none" stroke="black" cx="648" cy="-90" rx="27" ry="18"/>
<text text-anchor="middle" x="648" y="-86.3" font-family="Times,serif" font-size="14.00">90</text>
</g>
<!-- v91&#45;&gt;v90 -->
<g id="edge20" class="edge"><title>v91&#45;&gt;v90</title>
<path fill="none" stroke="black" d="M707.823,-146.834C697.149,-136.872 682.681,-123.369 670.647,-112.137"/>
<polygon fill="black" stroke="black" points="672.854,-109.409 663.155,-105.144 668.077,-114.526 672.854,-109.409"/>
</g>
<!-- p16 -->
<g id="node60" class="node"><title>p16</title>
<path fill="none" stroke="black" d="M740.5,-108C740.5,-108 705.5,-108 705.5,-108 699.5,-108 693.5,-102 693.5,-96 693.5,-96 693.5,-84 693.5,-84 693.5,-78 699.5,-72 705.5,-72 705.5,-72 740.5,-72 740.5,-72 746.5,-72 752.5,-78 752.5,-84 752.5,-84 752.5,-96 752.5,-96 752.5,-102 746.5,-108 740.5,-108"/>
<text text-anchor="middle" x="723" y="-86.3" font-family="Times,serif" font-size="14.00">path (2)</text>
</g>
<!-- v91&#45;&gt;p16 -->
<g id="edge60" class="edge"><title>v91&#45;&gt;p16</title>
<path fill="none" stroke="black" d="M723,-143.697C723,-135.983 723,-126.712 723,-118.112"/>
<polygon fill="black" stroke="black" points="726.5,-118.104 723,-108.104 719.5,-118.104 726.5,-118.104"/>
</g>
<!-- p19 -->
<g id="node67" class="node"><title>p19</title>
<path fill="none" stroke="black" d="M817.5,-108C817.5,-108 782.5,-108 782.5,-108 776.5,-108 770.5,-102 770.5,-96 770.5,-96 770.5,-84 770.5,-84 770.5,-78 776.5,-72 782.5,-72 782.5,-72 817.5,-72 817.5,-72 823.5,-72 829.5,-78 829.5,-84 829.5,-84 829.5,-96 829.5,-96 829.5,-102 823.5,-108 817.5,-108"/>
<text text-anchor="middle" x="800" y="-86.3" font-family="Times,serif" font-size="14.00">path (2)</text>
</g>
<!-- v91&#45;&gt;p19 -->
<g id="edge66" class="edge"><title>v91&#45;&gt;p19</title>
<path fill="none" stroke="black" d="M738.582,-146.834C748.579,-137.746 761.818,-125.71 773.445,-115.141"/>
<polygon fill="black" stroke="black" points="776.131,-117.429 781.176,-108.113 771.422,-112.25 776.131,-117.429"/>
</g>
<!-- p21 -->
<g id="node71" class="node"><title>p21</title>
<path fill="none" stroke="black" d="M894.5,-108C894.5,-108 859.5,-108 859.5,-108 853.5,-108 847.5,-102 847.5,-96 847.5,-96 847.5,-84 847.5,-84 847.5,-78 853.5,-72 859.5,-72 859.5,-72 894.5,-72 894.5,-72 900.5,-72 906.5,-78 906.5,-84 906.5,-84 906.5,-96 906.5,-96 906.5,-102 900.5,-108 894.5,-108"/>
<text text-anchor="middle" x="877" y="-86.3" font-family="Times,serif" font-size="14.00">path (2)</text>
</g>
<!-- v91&#45;&gt;p21 -->
<g id="edge51" class="edge"><title>v91&#45;&gt;p21</title>
<path fill="none" stroke="black" d="M744.289,-150.865C749.118,-148.589 754.229,-146.198 759,-144 785.236,-131.915 814.897,-118.594 837.918,-108.33"/>
<polygon fill="black" stroke="black" points="839.636,-111.396 847.348,-104.131 836.789,-105.002 839.636,-111.396"/>
</g>
<!-- p18 -->
<g id="node64" class="node"><title>p18</title>
<path fill="none" stroke="black" d="M482.5,-36C482.5,-36 447.5,-36 447.5,-36 441.5,-36 435.5,-30 435.5,-24 435.5,-24 435.5,-12 435.5,-12 435.5,-6 441.5,-0 447.5,-0 447.5,-0 482.5,-0 482.5,-0 488.5,-0 494.5,-6 494.5,-12 494.5,-12 494.5,-24 494.5,-24 494.5,-30 488.5,-36 482.5,-36"/>
<text text-anchor="middle" x="465" y="-14.3" font-family="Times,serif" font-size="14.00">path (3)</text>
</g>
<!-- v99 -->
<g id="node65" class="node"><title>v99</title>
<ellipse fill="none" stroke="black" cx="540" cy="-18" rx="27" ry="18"/>
<text text-anchor="middle" x="540" y="-14.3" font-family="Times,serif" font-size="14.00">99</text>
</g>
<!-- v101&#45;&gt;p18 -->
<g id="edge9" class="edge"><title>v101&#45;&gt;p18</title>
<path fill="none" stroke="black" d="M556.918,-76.9666C541.507,-67.2478 519.389,-53.2992 500.711,-41.5203"/>
<polygon fill="black" stroke="black" points="502.461,-38.4865 492.136,-36.1127 498.727,-44.4075 502.461,-38.4865"/>
</g>
<!-- v101&#45;&gt;v99 -->
<g id="edge56" class="edge"><title>v101&#45;&gt;v99</title>
<path fill="none" stroke="black" d="M567.65,-72.7646C563.288,-64.2831 557.853,-53.7144 552.959,-44.1974"/>
<polygon fill="black" stroke="black" points="555.99,-42.4395 548.304,-35.1473 549.765,-45.6409 555.99,-42.4395"/>
</g>
<!-- v113 -->
<g id="node72" class="node"><title>v113</title>
<ellipse fill="none" stroke="black" cx="612" cy="-18" rx="27" ry="18"/>
<text text-anchor="middle" x="612" y="-14.3" font-family="Times,serif" font-size="14.00">113</text>
</g>
<!-- v101&#45;&gt;v113 -->
<g id="edge36" class="edge"><title>v101&#45;&gt;v113</title>
<path fill="none" stroke="black" d="M584.35,-72.7646C588.712,-64.2831 594.147,-53.7144 599.041,-44.1974"/>
<polygon fill="black" stroke="black" points="602.235,-45.6409 603.696,-35.1473 596.01,-42.4395 602.235,-45.6409"/>
</g>
<!-- v114 -->
<g id="node73" class="node"><title>v114</title>
<ellipse fill="none" stroke="black" cx="684" cy="-18" rx="27" ry="18"/>
<text text-anchor="middle" x="684" y="-14.3" font-family="Times,serif" font-size="14.00">114</text>
</g>
<!-- v101&#45;&gt;v114 -->
<g id="edge15" class="edge"><title>v101&#45;&gt;v114</title>
<path fill="none" stroke="black" d="M594.812,-76.8069C612.002,-65.6653 637.618,-49.0622 656.993,-36.5043"/>
<polygon fill="black" stroke="black" points="658.916,-39.4294 665.403,-31.0533 655.108,-33.5553 658.916,-39.4294"/>
</g>
</g>
</svg>
