<?xml version="1.0" encoding="UTF-8" standalone="no"?>
<!DOCTYPE svg PUBLIC "-//W3C//DTD SVG 1.1//EN"
 "http://www.w3.org/Graphics/SVG/1.1/DTD/svg11.dtd">
<!-- Generated by graphviz version 2.38.0 (20140413.2041)
 -->
<!-- Title: %3 Pages: 1 -->
<svg width="419pt" height="404pt"
 viewBox="0.00 0.00 418.50 404.00" xmlns="http://www.w3.org/2000/svg" xmlns:xlink="http://www.w3.org/1999/xlink">
<g id="graph0" class="graph" transform="scale(1 1) rotate(0) translate(4 400)">
<title>%3</title>
<polygon fill="white" stroke="none" points="-4,4 -4,-400 414.5,-400 414.5,4 -4,4"/>
<!-- v0 -->
<g id="node1" class="node"><title>v0</title>
<ellipse fill="none" stroke="black" cx="226" cy="-234" rx="27" ry="18"/>
<text text-anchor="middle" x="226" y="-230.3" font-family="Times,serif" font-size="14.00">0</text>
</g>
<!-- v2 -->
<g id="node3" class="node"><title>v2</title>
<ellipse fill="none" stroke="black" cx="304" cy="-162" rx="27" ry="18"/>
<text text-anchor="middle" x="304" y="-158.3" font-family="Times,serif" font-size="14.00">2</text>
</g>
<!-- v0&#45;&gt;v2 -->
<g id="edge13" class="edge"><title>v0&#45;&gt;v2</title>
<path fill="none" stroke="black" d="M237.591,-217.465C248.086,-206.924 263.567,-192.931 277.03,-181.767"/>
<polygon fill="black" stroke="black" points="279.522,-184.252 285.089,-175.238 275.116,-178.813 279.522,-184.252"/>
</g>
<!-- p1 -->
<g id="node4" class="node"><title>p1</title>
<path fill="none" stroke="black" d="M85,-180C85,-180 43,-180 43,-180 37,-180 31,-174 31,-168 31,-168 31,-156 31,-156 31,-150 37,-144 43,-144 43,-144 85,-144 85,-144 91,-144 97,-150 97,-156 97,-156 97,-168 97,-168 97,-174 91,-180 85,-180"/>
<text text-anchor="middle" x="64" y="-158.3" font-family="Times,serif" font-size="14.00">path (18)</text>
</g>
<!-- v0&#45;&gt;p1 -->
<g id="edge10" class="edge"><title>v0&#45;&gt;p1</title>
<path fill="none" stroke="black" d="M203.814,-223.414C178.841,-212.623 137.685,-194.839 106.476,-181.354"/>
<polygon fill="black" stroke="black" points="107.707,-178.073 97.1389,-177.319 104.93,-184.499 107.707,-178.073"/>
</g>
<!-- p2 -->
<g id="node5" class="node"><title>p2</title>
<path fill="none" stroke="black" d="M162.5,-180C162.5,-180 127.5,-180 127.5,-180 121.5,-180 115.5,-174 115.5,-168 115.5,-168 115.5,-156 115.5,-156 115.5,-150 121.5,-144 127.5,-144 127.5,-144 162.5,-144 162.5,-144 168.5,-144 174.5,-150 174.5,-156 174.5,-156 174.5,-168 174.5,-168 174.5,-174 168.5,-180 162.5,-180"/>
<text text-anchor="middle" x="145" y="-158.3" font-family="Times,serif" font-size="14.00">path (2)</text>
</g>
<!-- v0&#45;&gt;p2 -->
<g id="edge7" class="edge"><title>v0&#45;&gt;p2</title>
<path fill="none" stroke="black" d="M209.997,-219.17C199.332,-209.953 185.036,-197.599 172.567,-186.823"/>
<polygon fill="black" stroke="black" points="174.548,-183.91 164.693,-180.019 169.971,-189.206 174.548,-183.91"/>
</g>
<!-- p4 -->
<g id="node8" class="node"><title>p4</title>
<path fill="none" stroke="black" d="M247,-180C247,-180 205,-180 205,-180 199,-180 193,-174 193,-168 193,-168 193,-156 193,-156 193,-150 199,-144 205,-144 205,-144 247,-144 247,-144 253,-144 259,-150 259,-156 259,-156 259,-168 259,-168 259,-174 253,-180 247,-180"/>
<text text-anchor="middle" x="226" y="-158.3" font-family="Times,serif" font-size="14.00">path (14)</text>
</g>
<!-- v0&#45;&gt;p4 -->
<g id="edge8" class="edge"><title>v0&#45;&gt;p4</title>
<path fill="none" stroke="black" d="M226,-215.697C226,-207.983 226,-198.712 226,-190.112"/>
<polygon fill="black" stroke="black" points="229.5,-190.104 226,-180.104 222.5,-190.104 229.5,-190.104"/>
</g>
<!-- p0 -->
<g id="node2" class="node"><title>p0</title>
<path fill="none" stroke="black" d="M398.5,-252C398.5,-252 363.5,-252 363.5,-252 357.5,-252 351.5,-246 351.5,-240 351.5,-240 351.5,-228 351.5,-228 351.5,-222 357.5,-216 363.5,-216 363.5,-216 398.5,-216 398.5,-216 404.5,-216 410.5,-222 410.5,-228 410.5,-228 410.5,-240 410.5,-240 410.5,-246 404.5,-252 398.5,-252"/>
<text text-anchor="middle" x="381" y="-230.3" font-family="Times,serif" font-size="14.00">path (7)</text>
</g>
<!-- v2&#45;&gt;v0 -->
<g id="edge11" class="edge"><title>v2&#45;&gt;v0</title>
<path fill="none" stroke="black" d="M292.463,-178.481C281.957,-189.038 266.426,-203.078 252.93,-214.266"/>
<polygon fill="black" stroke="black" points="250.422,-211.793 244.853,-220.807 254.827,-217.233 250.422,-211.793"/>
</g>
<!-- p7 -->
<g id="node11" class="node"><title>p7</title>
<path fill="none" stroke="black" d="M321.5,-108C321.5,-108 286.5,-108 286.5,-108 280.5,-108 274.5,-102 274.5,-96 274.5,-96 274.5,-84 274.5,-84 274.5,-78 280.5,-72 286.5,-72 286.5,-72 321.5,-72 321.5,-72 327.5,-72 333.5,-78 333.5,-84 333.5,-84 333.5,-96 333.5,-96 333.5,-102 327.5,-108 321.5,-108"/>
<text text-anchor="middle" x="304" y="-86.3" font-family="Times,serif" font-size="14.00">path (2)</text>
</g>
<!-- v2&#45;&gt;p7 -->
<g id="edge12" class="edge"><title>v2&#45;&gt;p7</title>
<path fill="none" stroke="black" d="M304,-143.697C304,-135.983 304,-126.712 304,-118.112"/>
<polygon fill="black" stroke="black" points="307.5,-118.104 304,-108.104 300.5,-118.104 307.5,-118.104"/>
</g>
<!-- v50 -->
<g id="node12" class="node"><title>v50</title>
<ellipse fill="none" stroke="black" cx="64" cy="-90" rx="27" ry="18"/>
<text text-anchor="middle" x="64" y="-86.3" font-family="Times,serif" font-size="14.00">50</text>
</g>
<!-- p1&#45;&gt;v50 -->
<g id="edge1" class="edge"><title>p1&#45;&gt;v50</title>
<path fill="none" stroke="black" d="M64,-143.697C64,-135.983 64,-126.712 64,-118.112"/>
<polygon fill="black" stroke="black" points="67.5001,-118.104 64,-108.104 60.5001,-118.104 67.5001,-118.104"/>
</g>
<!-- v7 -->
<g id="node6" class="node"><title>v7</title>
<ellipse fill="none" stroke="black" cx="27" cy="-18" rx="27" ry="18"/>
<text text-anchor="middle" x="27" y="-14.3" font-family="Times,serif" font-size="14.00">7</text>
</g>
<!-- p3 -->
<g id="node7" class="node"><title>p3</title>
<path fill="none" stroke="black" d="M119.5,-36C119.5,-36 84.5,-36 84.5,-36 78.5,-36 72.5,-30 72.5,-24 72.5,-24 72.5,-12 72.5,-12 72.5,-6 78.5,-0 84.5,-0 84.5,-0 119.5,-0 119.5,-0 125.5,-0 131.5,-6 131.5,-12 131.5,-12 131.5,-24 131.5,-24 131.5,-30 125.5,-36 119.5,-36"/>
<text text-anchor="middle" x="102" y="-14.3" font-family="Times,serif" font-size="14.00">path (6)</text>
</g>
<!-- p5 -->
<g id="node9" class="node"><title>p5</title>
<path fill="none" stroke="black" d="M359.5,-396C359.5,-396 324.5,-396 324.5,-396 318.5,-396 312.5,-390 312.5,-384 312.5,-384 312.5,-372 312.5,-372 312.5,-366 318.5,-360 324.5,-360 324.5,-360 359.5,-360 359.5,-360 365.5,-360 371.5,-366 371.5,-372 371.5,-372 371.5,-384 371.5,-384 371.5,-390 365.5,-396 359.5,-396"/>
<text text-anchor="middle" x="342" y="-374.3" font-family="Times,serif" font-size="14.00">path (2)</text>
</g>
<!-- v52 -->
<g id="node13" class="node"><title>v52</title>
<ellipse fill="none" stroke="black" cx="342" cy="-306" rx="27" ry="18"/>
<text text-anchor="middle" x="342" y="-302.3" font-family="Times,serif" font-size="14.00">52</text>
</g>
<!-- p5&#45;&gt;v52 -->
<g id="edge6" class="edge"><title>p5&#45;&gt;v52</title>
<path fill="none" stroke="black" d="M342,-359.697C342,-351.983 342,-342.712 342,-334.112"/>
<polygon fill="black" stroke="black" points="345.5,-334.104 342,-324.104 338.5,-334.104 345.5,-334.104"/>
</g>
<!-- p6 -->
<g id="node10" class="node"><title>p6</title>
<path fill="none" stroke="black" d="M321.5,-252C321.5,-252 286.5,-252 286.5,-252 280.5,-252 274.5,-246 274.5,-240 274.5,-240 274.5,-228 274.5,-228 274.5,-222 280.5,-216 286.5,-216 286.5,-216 321.5,-216 321.5,-216 327.5,-216 333.5,-222 333.5,-228 333.5,-228 333.5,-240 333.5,-240 333.5,-246 327.5,-252 321.5,-252"/>
<text text-anchor="middle" x="304" y="-230.3" font-family="Times,serif" font-size="14.00">path (6)</text>
</g>
<!-- p6&#45;&gt;v2 -->
<g id="edge9" class="edge"><title>p6&#45;&gt;v2</title>
<path fill="none" stroke="black" d="M304,-215.697C304,-207.983 304,-198.712 304,-190.112"/>
<polygon fill="black" stroke="black" points="307.5,-190.104 304,-180.104 300.5,-190.104 307.5,-190.104"/>
</g>
<!-- v50&#45;&gt;v7 -->
<g id="edge3" class="edge"><title>v50&#45;&gt;v7</title>
<path fill="none" stroke="black" d="M55.4185,-72.7646C50.9354,-64.2831 45.349,-53.7144 40.3186,-44.1974"/>
<polygon fill="black" stroke="black" points="43.3025,-42.3527 35.535,-35.1473 37.1138,-45.6239 43.3025,-42.3527"/>
</g>
<!-- v50&#45;&gt;p3 -->
<g id="edge4" class="edge"><title>v50&#45;&gt;p3</title>
<path fill="none" stroke="black" d="M72.8135,-72.7646C77.2862,-64.5255 82.8281,-54.3166 87.8772,-45.0157"/>
<polygon fill="black" stroke="black" points="91.0092,-46.5823 92.7042,-36.1239 84.8572,-43.2426 91.0092,-46.5823"/>
</g>
<!-- v52&#45;&gt;p0 -->
<g id="edge5" class="edge"><title>v52&#45;&gt;p0</title>
<path fill="none" stroke="black" d="M351.045,-288.765C355.636,-280.525 361.324,-270.317 366.506,-261.016"/>
<polygon fill="black" stroke="black" points="369.65,-262.563 371.46,-252.124 363.535,-259.156 369.65,-262.563"/>
</g>
<!-- v52&#45;&gt;p6 -->
<g id="edge2" class="edge"><title>v52&#45;&gt;p6</title>
<path fill="none" stroke="black" d="M333.187,-288.765C328.714,-280.525 323.172,-270.317 318.123,-261.016"/>
<polygon fill="black" stroke="black" points="321.143,-259.243 313.296,-252.124 314.991,-262.582 321.143,-259.243"/>
</g>
</g>
</svg>
