<?xml version="1.0" encoding="UTF-8" standalone="no"?>
<!DOCTYPE svg PUBLIC "-//W3C//DTD SVG 1.1//EN"
 "http://www.w3.org/Graphics/SVG/1.1/DTD/svg11.dtd">
<!-- Generated by graphviz version 2.38.0 (20140413.2041)
 -->
<!-- Title: %3 Pages: 1 -->
<svg width="178pt" height="332pt"
 viewBox="0.00 0.00 178.00 332.00" xmlns="http://www.w3.org/2000/svg" xmlns:xlink="http://www.w3.org/1999/xlink">
<g id="graph0" class="graph" transform="scale(1 1) rotate(0) translate(4 328)">
<title>%3</title>
<polygon fill="white" stroke="none" points="-4,4 -4,-328 174,-328 174,4 -4,4"/>
<!-- p0 -->
<g id="node1" class="node"><title>p0</title>
<path fill="none" stroke="black" d="M158,-252C158,-252 116,-252 116,-252 110,-252 104,-246 104,-240 104,-240 104,-228 104,-228 104,-222 110,-216 116,-216 116,-216 158,-216 158,-216 164,-216 170,-222 170,-228 170,-228 170,-240 170,-240 170,-246 164,-252 158,-252"/>
<text text-anchor="middle" x="137" y="-230.3" font-family="Times,serif" font-size="14.00">path (10)</text>
</g>
<!-- v2 -->
<g id="node3" class="node"><title>v2</title>
<ellipse fill="none" stroke="black" cx="56" cy="-162" rx="27" ry="18"/>
<text text-anchor="middle" x="56" y="-158.3" font-family="Times,serif" font-size="14.00">2</text>
</g>
<!-- p0&#45;&gt;v2 -->
<g id="edge4" class="edge"><title>p0&#45;&gt;v2</title>
<path fill="none" stroke="black" d="M116.978,-215.697C105.71,-205.96 91.574,-193.743 79.7498,-183.525"/>
<polygon fill="black" stroke="black" points="81.8516,-180.715 71.9969,-176.825 77.2746,-186.011 81.8516,-180.715"/>
</g>
<!-- v1 -->
<g id="node2" class="node"><title>v1</title>
<ellipse fill="none" stroke="black" cx="27" cy="-306" rx="27" ry="18"/>
<text text-anchor="middle" x="27" y="-302.3" font-family="Times,serif" font-size="14.00">1</text>
</g>
<!-- v1&#45;&gt;v2 -->
<g id="edge1" class="edge"><title>v1&#45;&gt;v2</title>
<path fill="none" stroke="black" d="M20.9722,-288.165C15.3875,-269.939 9.04665,-240.228 17,-216 20.7101,-204.698 27.8542,-193.822 35.0249,-184.895"/>
<polygon fill="black" stroke="black" points="37.6881,-187.166 41.5201,-177.288 32.3647,-182.62 37.6881,-187.166"/>
</g>
<!-- p1 -->
<g id="node5" class="node"><title>p1</title>
<path fill="none" stroke="black" d="M73.5,-252C73.5,-252 38.5,-252 38.5,-252 32.5,-252 26.5,-246 26.5,-240 26.5,-240 26.5,-228 26.5,-228 26.5,-222 32.5,-216 38.5,-216 38.5,-216 73.5,-216 73.5,-216 79.5,-216 85.5,-222 85.5,-228 85.5,-228 85.5,-240 85.5,-240 85.5,-246 79.5,-252 73.5,-252"/>
<text text-anchor="middle" x="56" y="-230.3" font-family="Times,serif" font-size="14.00">path (2)</text>
</g>
<!-- v1&#45;&gt;p1 -->
<g id="edge5" class="edge"><title>v1&#45;&gt;p1</title>
<path fill="none" stroke="black" d="M33.8726,-288.411C37.1691,-280.454 41.2008,-270.722 44.9155,-261.756"/>
<polygon fill="black" stroke="black" points="48.1781,-263.025 48.772,-252.447 41.7111,-260.346 48.1781,-263.025"/>
</g>
<!-- v4 -->
<g id="node4" class="node"><title>v4</title>
<ellipse fill="none" stroke="black" cx="44" cy="-90" rx="27" ry="18"/>
<text text-anchor="middle" x="44" y="-86.3" font-family="Times,serif" font-size="14.00">4</text>
</g>
<!-- v2&#45;&gt;v4 -->
<g id="edge8" class="edge"><title>v2&#45;&gt;v4</title>
<path fill="none" stroke="black" d="M53.0951,-144.055C51.7735,-136.346 50.176,-127.027 48.691,-118.364"/>
<polygon fill="black" stroke="black" points="52.1009,-117.54 46.9615,-108.275 45.2015,-118.723 52.1009,-117.54"/>
</g>
<!-- v6 -->
<g id="node6" class="node"><title>v6</title>
<ellipse fill="none" stroke="black" cx="99" cy="-18" rx="27" ry="18"/>
<text text-anchor="middle" x="99" y="-14.3" font-family="Times,serif" font-size="14.00">6</text>
</g>
<!-- v4&#45;&gt;v6 -->
<g id="edge3" class="edge"><title>v4&#45;&gt;v6</title>
<path fill="none" stroke="black" d="M55.9342,-73.811C63.2136,-64.5464 72.6626,-52.5203 80.8544,-42.0944"/>
<polygon fill="black" stroke="black" points="83.663,-44.1849 87.0891,-34.1593 78.1587,-39.8601 83.663,-44.1849"/>
</g>
<!-- p1&#45;&gt;v2 -->
<g id="edge7" class="edge"><title>p1&#45;&gt;v2</title>
<path fill="none" stroke="black" d="M56,-215.697C56,-207.983 56,-198.712 56,-190.112"/>
<polygon fill="black" stroke="black" points="59.5001,-190.104 56,-180.104 52.5001,-190.104 59.5001,-190.104"/>
</g>
<!-- v6&#45;&gt;p0 -->
<g id="edge2" class="edge"><title>v6&#45;&gt;p0</title>
<path fill="none" stroke="black" d="M102.007,-35.9354C108.575,-72.9248 124.25,-161.197 132.2,-205.969"/>
<polygon fill="black" stroke="black" points="128.76,-206.615 133.955,-215.849 135.652,-205.391 128.76,-206.615"/>
</g>
<!-- v6&#45;&gt;v2 -->
<g id="edge6" class="edge"><title>v6&#45;&gt;v2</title>
<path fill="none" stroke="black" d="M96.4851,-36.0172C93.5491,-54.1438 88.0465,-83.536 80,-108 76.9732,-117.202 72.8459,-126.948 68.8675,-135.539"/>
<polygon fill="black" stroke="black" points="65.6639,-134.125 64.5055,-144.657 71.9785,-137.146 65.6639,-134.125"/>
</g>
</g>
</svg>
