<?xml version="1.0" encoding="UTF-8" standalone="no"?>
<!DOCTYPE svg PUBLIC "-//W3C//DTD SVG 1.1//EN"
 "http://www.w3.org/Graphics/SVG/1.1/DTD/svg11.dtd">
<!-- Generated by graphviz version 2.40.1 (20161225.0304)
 -->
<!-- Title: %3 Pages: 1 -->
<svg width="1124pt" height="692pt"
 viewBox="0.00 0.00 1124.00 692.00" xmlns="http://www.w3.org/2000/svg" xmlns:xlink="http://www.w3.org/1999/xlink">
<g id="graph0" class="graph" transform="scale(1 1) rotate(0) translate(4 688)">
<title>%3</title>
<polygon fill="#ffffff" stroke="transparent" points="-4,4 -4,-688 1120,-688 1120,4 -4,4"/>
<!-- 0 -->
<g id="node1" class="node">
<title>0</title>
<g id="a_node1"><a xlink:title="E">
<ellipse fill="#0020ff" stroke="#000000" stroke-width="0" cx="855" cy="-666" rx="18" ry="18"/>
</a>
</g>
</g>
<!-- 1 -->
<g id="node2" class="node">
<title>1</title>
<g id="a_node2"><a xlink:title="E">
<ellipse fill="#0020ff" stroke="#000000" stroke-width="0" cx="504" cy="-594" rx="18" ry="18"/>
</a>
</g>
</g>
<!-- 0&#45;&gt;1 -->
<g id="edge51" class="edge">
<title>0&#45;&gt;1</title>
<path fill="none" stroke="#000000" d="M837.1113,-662.3305C779.9577,-650.6067 601.4563,-613.991 532.0243,-599.7486"/>
<polygon fill="#000000" stroke="#000000" points="532.352,-596.243 521.8527,-597.6621 530.9454,-603.1002 532.352,-596.243"/>
</g>
<!-- 17 -->
<g id="node18" class="node">
<title>17</title>
<g id="a_node18"><a xlink:title="E">
<ellipse fill="#0020ff" stroke="#000000" stroke-width="0" cx="720" cy="-594" rx="18" ry="18"/>
</a>
</g>
</g>
<!-- 0&#45;&gt;17 -->
<g id="edge24" class="edge">
<title>0&#45;&gt;17</title>
<path fill="none" stroke="#000000" d="M838.5668,-658.5634C817.104,-648.6754 778.5483,-630.3082 747,-612 745.8763,-611.3479 744.7358,-610.6671 743.5909,-609.9683"/>
<polygon fill="#000000" stroke="#000000" points="745.2372,-606.8666 734.9265,-604.4291 741.4667,-612.7644 745.2372,-606.8666"/>
</g>
<!-- 18 -->
<g id="node19" class="node">
<title>18</title>
<g id="a_node19"><a xlink:title="E">
<ellipse fill="#0020ff" stroke="#000000" stroke-width="0" cx="774" cy="-594" rx="18" ry="18"/>
</a>
</g>
</g>
<!-- 0&#45;&gt;18 -->
<g id="edge43" class="edge">
<title>0&#45;&gt;18</title>
<path fill="none" stroke="#000000" d="M841.2595,-653.7862C828.6157,-642.5473 809.6738,-625.7101 795.1103,-612.7647"/>
<polygon fill="#000000" stroke="#000000" points="797.337,-610.0612 787.5376,-606.0334 792.6865,-615.2931 797.337,-610.0612"/>
</g>
<!-- 30 -->
<g id="node31" class="node">
<title>30</title>
<g id="a_node31"><a xlink:title="E">
<ellipse fill="#0020ff" stroke="#000000" stroke-width="0" cx="828" cy="-594" rx="18" ry="18"/>
</a>
</g>
</g>
<!-- 0&#45;&gt;30 -->
<g id="edge48" class="edge">
<title>0&#45;&gt;30</title>
<path fill="none" stroke="#000000" d="M848.6014,-648.937C845.407,-640.4186 841.471,-629.9227 837.8982,-620.3952"/>
<polygon fill="#000000" stroke="#000000" points="841.1411,-619.0749 834.3527,-610.9405 834.5868,-621.5328 841.1411,-619.0749"/>
</g>
<!-- 33 -->
<g id="node34" class="node">
<title>33</title>
<g id="a_node34"><a xlink:title="E">
<ellipse fill="#0020ff" stroke="#000000" stroke-width="0" cx="882" cy="-594" rx="18" ry="18"/>
</a>
</g>
</g>
<!-- 0&#45;&gt;33 -->
<g id="edge2" class="edge">
<title>0&#45;&gt;33</title>
<path fill="none" stroke="#000000" d="M861.3986,-648.937C864.593,-640.4186 868.529,-629.9227 872.1018,-620.3952"/>
<polygon fill="#000000" stroke="#000000" points="875.4132,-621.5328 875.6473,-610.9405 868.8589,-619.0749 875.4132,-621.5328"/>
</g>
<!-- 36 -->
<g id="node37" class="node">
<title>36</title>
<g id="a_node37"><a xlink:title="E">
<ellipse fill="#0020ff" stroke="#000000" stroke-width="0" cx="936" cy="-594" rx="18" ry="18"/>
</a>
</g>
</g>
<!-- 0&#45;&gt;36 -->
<g id="edge11" class="edge">
<title>0&#45;&gt;36</title>
<path fill="none" stroke="#000000" d="M868.7405,-653.7862C881.3843,-642.5473 900.3262,-625.7101 914.8897,-612.7647"/>
<polygon fill="#000000" stroke="#000000" points="917.3135,-615.2931 922.4624,-606.0334 912.663,-610.0612 917.3135,-615.2931"/>
</g>
<!-- 45 -->
<g id="node46" class="node">
<title>45</title>
<g id="a_node46"><a xlink:title="E">
<ellipse fill="#0020ff" stroke="#000000" stroke-width="0" cx="990" cy="-594" rx="18" ry="18"/>
</a>
</g>
</g>
<!-- 0&#45;&gt;45 -->
<g id="edge40" class="edge">
<title>0&#45;&gt;45</title>
<path fill="none" stroke="#000000" d="M871.4332,-658.5634C892.896,-648.6754 931.4517,-630.3082 963,-612 964.1237,-611.3479 965.2642,-610.6671 966.4091,-609.9683"/>
<polygon fill="#000000" stroke="#000000" points="968.5333,-612.7644 975.0735,-604.4291 964.7628,-606.8666 968.5333,-612.7644"/>
</g>
<!-- 51 -->
<g id="node52" class="node">
<title>51</title>
<g id="a_node52"><a xlink:title="E">
<ellipse fill="#0020ff" stroke="#000000" stroke-width="0" cx="1044" cy="-594" rx="18" ry="18"/>
</a>
</g>
</g>
<!-- 0&#45;&gt;51 -->
<g id="edge38" class="edge">
<title>0&#45;&gt;51</title>
<path fill="none" stroke="#000000" d="M872.6204,-661.7771C903.0338,-654.1314 966.9323,-636.4873 1017,-612 1018.1672,-611.4292 1019.3431,-610.8151 1020.5169,-610.1702"/>
<polygon fill="#000000" stroke="#000000" points="1022.5665,-613.0201 1029.2874,-604.8298 1018.9259,-607.0412 1022.5665,-613.0201"/>
</g>
<!-- 56 -->
<g id="node57" class="node">
<title>56</title>
<g id="a_node57"><a xlink:title="E">
<ellipse fill="#0020ff" stroke="#000000" stroke-width="0" cx="1098" cy="-594" rx="18" ry="18"/>
</a>
</g>
</g>
<!-- 0&#45;&gt;56 -->
<g id="edge7" class="edge">
<title>0&#45;&gt;56</title>
<path fill="none" stroke="#000000" d="M873.0339,-663.6262C910.9903,-658.1774 1001.361,-642.8062 1071,-612 1072.1882,-611.4744 1073.3814,-610.8974 1074.5692,-610.2825"/>
<polygon fill="#000000" stroke="#000000" points="1076.5739,-613.1629 1083.3911,-605.0526 1073.0042,-607.1415 1076.5739,-613.1629"/>
</g>
<!-- 2 -->
<g id="node3" class="node">
<title>2</title>
<g id="a_node3"><a xlink:title="E">
<ellipse fill="#0020ff" stroke="#000000" stroke-width="0" cx="234" cy="-522" rx="18" ry="18"/>
</a>
</g>
</g>
<!-- 1&#45;&gt;2 -->
<g id="edge31" class="edge">
<title>1&#45;&gt;2</title>
<path fill="none" stroke="#000000" d="M485.9259,-592.2817C444.6138,-587.87 340.6963,-574.0089 261,-540 259.6398,-539.4196 258.2747,-538.7689 256.92,-538.0686"/>
<polygon fill="#000000" stroke="#000000" points="258.6772,-535.0415 248.2923,-532.9425 255.1016,-541.0594 258.6772,-535.0415"/>
</g>
<!-- 4 -->
<g id="node5" class="node">
<title>4</title>
<g id="a_node5"><a xlink:title="E">
<ellipse fill="#0020ff" stroke="#000000" stroke-width="0" cx="288" cy="-522" rx="18" ry="18"/>
</a>
</g>
</g>
<!-- 1&#45;&gt;4 -->
<g id="edge42" class="edge">
<title>1&#45;&gt;4</title>
<path fill="none" stroke="#000000" d="M486.1561,-590.8212C451.8456,-584.2985 374.7797,-567.6446 315,-540 313.8207,-539.4547 312.6348,-538.8615 311.453,-538.2335"/>
<polygon fill="#000000" stroke="#000000" points="313.0289,-535.0975 302.6529,-532.9554 309.4284,-541.1005 313.0289,-535.0975"/>
</g>
<!-- 7 -->
<g id="node8" class="node">
<title>7</title>
<g id="a_node8"><a xlink:title="E">
<ellipse fill="#0020ff" stroke="#000000" stroke-width="0" cx="342" cy="-522" rx="18" ry="18"/>
</a>
</g>
</g>
<!-- 1&#45;&gt;7 -->
<g id="edge58" class="edge">
<title>1&#45;&gt;7</title>
<path fill="none" stroke="#000000" d="M486.873,-588.4337C460.7398,-579.6585 409.6599,-561.3883 369,-540 367.8501,-539.3951 366.6883,-538.7532 365.526,-538.0857"/>
<polygon fill="#000000" stroke="#000000" points="367.1388,-534.9672 356.7978,-532.6621 363.4442,-540.9128 367.1388,-534.9672"/>
</g>
<!-- 13 -->
<g id="node14" class="node">
<title>13</title>
<g id="a_node14"><a xlink:title="E">
<ellipse fill="#0020ff" stroke="#000000" stroke-width="0" cx="396" cy="-522" rx="18" ry="18"/>
</a>
</g>
</g>
<!-- 1&#45;&gt;13 -->
<g id="edge37" class="edge">
<title>1&#45;&gt;13</title>
<path fill="none" stroke="#000000" d="M488.9831,-583.9887C471.03,-572.02 440.7675,-551.845 419.6604,-537.7736"/>
<polygon fill="#000000" stroke="#000000" points="421.4995,-534.7932 411.2376,-532.1584 417.6166,-540.6176 421.4995,-534.7932"/>
</g>
<!-- 20 -->
<g id="node21" class="node">
<title>20</title>
<g id="a_node21"><a xlink:title="E">
<ellipse fill="#0020ff" stroke="#000000" stroke-width="0" cx="450" cy="-522" rx="18" ry="18"/>
</a>
</g>
</g>
<!-- 1&#45;&gt;20 -->
<g id="edge14" class="edge">
<title>1&#45;&gt;20</title>
<path fill="none" stroke="#000000" d="M493.0723,-579.4297C485.6066,-569.4754 475.5632,-556.0842 467.0526,-544.7368"/>
<polygon fill="#000000" stroke="#000000" points="469.7115,-542.4486 460.9115,-536.5486 464.1115,-546.6486 469.7115,-542.4486"/>
</g>
<!-- 28 -->
<g id="node29" class="node">
<title>28</title>
<g id="a_node29"><a xlink:title="E">
<ellipse fill="#0020ff" stroke="#000000" stroke-width="0" cx="504" cy="-522" rx="18" ry="18"/>
</a>
</g>
</g>
<!-- 1&#45;&gt;28 -->
<g id="edge28" class="edge">
<title>1&#45;&gt;28</title>
<path fill="none" stroke="#000000" d="M504,-575.8314C504,-568.131 504,-558.9743 504,-550.4166"/>
<polygon fill="#000000" stroke="#000000" points="507.5001,-550.4132 504,-540.4133 500.5001,-550.4133 507.5001,-550.4132"/>
</g>
<!-- 35 -->
<g id="node36" class="node">
<title>35</title>
<g id="a_node36"><a xlink:title="E">
<ellipse fill="#0020ff" stroke="#000000" stroke-width="0" cx="558" cy="-522" rx="18" ry="18"/>
</a>
</g>
</g>
<!-- 1&#45;&gt;35 -->
<g id="edge52" class="edge">
<title>1&#45;&gt;35</title>
<path fill="none" stroke="#000000" d="M514.9277,-579.4297C522.3934,-569.4754 532.4368,-556.0842 540.9474,-544.7368"/>
<polygon fill="#000000" stroke="#000000" points="543.8885,-546.6486 547.0885,-536.5486 538.2885,-542.4486 543.8885,-546.6486"/>
</g>
<!-- 39 -->
<g id="node40" class="node">
<title>39</title>
<g id="a_node40"><a xlink:title="E">
<ellipse fill="#0020ff" stroke="#000000" stroke-width="0" cx="612" cy="-522" rx="18" ry="18"/>
</a>
</g>
</g>
<!-- 1&#45;&gt;39 -->
<g id="edge46" class="edge">
<title>1&#45;&gt;39</title>
<path fill="none" stroke="#000000" d="M519.0169,-583.9887C536.97,-572.02 567.2325,-551.845 588.3396,-537.7736"/>
<polygon fill="#000000" stroke="#000000" points="590.3834,-540.6176 596.7624,-532.1584 586.5005,-534.7932 590.3834,-540.6176"/>
</g>
<!-- 44 -->
<g id="node45" class="node">
<title>44</title>
<g id="a_node45"><a xlink:title="E">
<ellipse fill="#0020ff" stroke="#000000" stroke-width="0" cx="666" cy="-522" rx="18" ry="18"/>
</a>
</g>
</g>
<!-- 1&#45;&gt;44 -->
<g id="edge19" class="edge">
<title>1&#45;&gt;44</title>
<path fill="none" stroke="#000000" d="M521.127,-588.4337C547.2602,-579.6585 598.3401,-561.3883 639,-540 640.1499,-539.3951 641.3117,-538.7532 642.474,-538.0857"/>
<polygon fill="#000000" stroke="#000000" points="644.5558,-540.9128 651.2022,-532.6621 640.8612,-534.9672 644.5558,-540.9128"/>
</g>
<!-- 55 -->
<g id="node56" class="node">
<title>55</title>
<g id="a_node56"><a xlink:title="E">
<ellipse fill="#0020ff" stroke="#000000" stroke-width="0" cx="720" cy="-522" rx="18" ry="18"/>
</a>
</g>
</g>
<!-- 1&#45;&gt;55 -->
<g id="edge20" class="edge">
<title>1&#45;&gt;55</title>
<path fill="none" stroke="#000000" d="M521.8439,-590.8212C556.1544,-584.2985 633.2203,-567.6446 693,-540 694.1793,-539.4547 695.3652,-538.8615 696.547,-538.2335"/>
<polygon fill="#000000" stroke="#000000" points="698.5716,-541.1005 705.3471,-532.9554 694.9711,-535.0975 698.5716,-541.1005"/>
</g>
<!-- 3 -->
<g id="node4" class="node">
<title>3</title>
<g id="a_node4"><a xlink:title="E">
<ellipse fill="#0020ff" stroke="#000000" stroke-width="0" cx="18" cy="-378" rx="18" ry="18"/>
</a>
</g>
</g>
<!-- 5 -->
<g id="node6" class="node">
<title>5</title>
<g id="a_node6"><a xlink:title="E">
<ellipse fill="#0020ff" stroke="#000000" stroke-width="0" cx="612" cy="-234" rx="18" ry="18"/>
</a>
</g>
</g>
<!-- 11 -->
<g id="node12" class="node">
<title>11</title>
<g id="a_node12"><a xlink:title="E">
<ellipse fill="#0020ff" stroke="#000000" stroke-width="0" cx="612" cy="-162" rx="18" ry="18"/>
</a>
</g>
</g>
<!-- 5&#45;&gt;11 -->
<g id="edge21" class="edge">
<title>5&#45;&gt;11</title>
<path fill="none" stroke="#000000" d="M612,-215.8314C612,-208.131 612,-198.9743 612,-190.4166"/>
<polygon fill="#000000" stroke="#000000" points="615.5001,-190.4132 612,-180.4133 608.5001,-190.4133 615.5001,-190.4132"/>
</g>
<!-- 6 -->
<g id="node7" class="node">
<title>6</title>
<g id="a_node7"><a xlink:title="E">
<ellipse fill="#0020ff" stroke="#000000" stroke-width="0" cx="504" cy="-378" rx="18" ry="18"/>
</a>
</g>
</g>
<!-- 32 -->
<g id="node33" class="node">
<title>32</title>
<g id="a_node33"><a xlink:title="E">
<ellipse fill="#0020ff" stroke="#000000" stroke-width="0" cx="504" cy="-306" rx="18" ry="18"/>
</a>
</g>
</g>
<!-- 6&#45;&gt;32 -->
<g id="edge22" class="edge">
<title>6&#45;&gt;32</title>
<path fill="none" stroke="#000000" d="M504,-359.8314C504,-352.131 504,-342.9743 504,-334.4166"/>
<polygon fill="#000000" stroke="#000000" points="507.5001,-334.4132 504,-324.4133 500.5001,-334.4133 507.5001,-334.4132"/>
</g>
<!-- 19 -->
<g id="node20" class="node">
<title>19</title>
<g id="a_node20"><a xlink:title="E">
<ellipse fill="#0020ff" stroke="#000000" stroke-width="0" cx="180" cy="-450" rx="18" ry="18"/>
</a>
</g>
</g>
<!-- 7&#45;&gt;19 -->
<g id="edge25" class="edge">
<title>7&#45;&gt;19</title>
<path fill="none" stroke="#000000" d="M327.2874,-511.1702C323.4114,-508.6058 319.1499,-506.0296 315,-504 269.5484,-481.7704 252.4516,-490.2296 207,-468 205.8328,-467.4292 204.6569,-466.8151 203.4831,-466.1702"/>
<polygon fill="#000000" stroke="#000000" points="205.0741,-463.0412 194.7126,-460.8298 201.4335,-469.0201 205.0741,-463.0412"/>
</g>
<!-- 21 -->
<g id="node22" class="node">
<title>21</title>
<g id="a_node22"><a xlink:title="E">
<ellipse fill="#0020ff" stroke="#000000" stroke-width="0" cx="126" cy="-450" rx="18" ry="18"/>
</a>
</g>
</g>
<!-- 7&#45;&gt;21 -->
<g id="edge3" class="edge">
<title>7&#45;&gt;21</title>
<path fill="none" stroke="#000000" d="M327.7077,-511.0575C323.7557,-508.4338 319.3526,-505.8574 315,-504 247.1621,-475.0515 220.8379,-496.9485 153,-468 151.6398,-467.4196 150.2747,-466.7689 148.92,-466.0686"/>
<polygon fill="#000000" stroke="#000000" points="150.6772,-463.0415 140.2923,-460.9425 147.1016,-469.0594 150.6772,-463.0415"/>
</g>
<!-- 27 -->
<g id="node28" class="node">
<title>27</title>
<g id="a_node28"><a xlink:title="E">
<ellipse fill="#0020ff" stroke="#000000" stroke-width="0" cx="234" cy="-450" rx="18" ry="18"/>
</a>
</g>
</g>
<!-- 7&#45;&gt;27 -->
<g id="edge50" class="edge">
<title>7&#45;&gt;27</title>
<path fill="none" stroke="#000000" d="M326.9831,-511.9887C309.03,-500.02 278.7675,-479.845 257.6604,-465.7736"/>
<polygon fill="#000000" stroke="#000000" points="259.4995,-462.7932 249.2376,-460.1584 255.6166,-468.6176 259.4995,-462.7932"/>
</g>
<!-- 29 -->
<g id="node30" class="node">
<title>29</title>
<g id="a_node30"><a xlink:title="E">
<ellipse fill="#0020ff" stroke="#000000" stroke-width="0" cx="288" cy="-450" rx="18" ry="18"/>
</a>
</g>
</g>
<!-- 7&#45;&gt;29 -->
<g id="edge13" class="edge">
<title>7&#45;&gt;29</title>
<path fill="none" stroke="#000000" d="M331.0723,-507.4297C323.6066,-497.4754 313.5632,-484.0842 305.0526,-472.7368"/>
<polygon fill="#000000" stroke="#000000" points="307.7115,-470.4486 298.9115,-464.5486 302.1115,-474.6486 307.7115,-470.4486"/>
</g>
<!-- 37 -->
<g id="node38" class="node">
<title>37</title>
<g id="a_node38"><a xlink:title="E">
<ellipse fill="#0020ff" stroke="#000000" stroke-width="0" cx="342" cy="-450" rx="18" ry="18"/>
</a>
</g>
</g>
<!-- 7&#45;&gt;37 -->
<g id="edge26" class="edge">
<title>7&#45;&gt;37</title>
<path fill="none" stroke="#000000" d="M342,-503.8314C342,-496.131 342,-486.9743 342,-478.4166"/>
<polygon fill="#000000" stroke="#000000" points="345.5001,-478.4132 342,-468.4133 338.5001,-478.4133 345.5001,-478.4132"/>
</g>
<!-- 42 -->
<g id="node43" class="node">
<title>42</title>
<g id="a_node43"><a xlink:title="E">
<ellipse fill="#0020ff" stroke="#000000" stroke-width="0" cx="396" cy="-450" rx="18" ry="18"/>
</a>
</g>
</g>
<!-- 7&#45;&gt;42 -->
<g id="edge10" class="edge">
<title>7&#45;&gt;42</title>
<path fill="none" stroke="#000000" d="M352.9277,-507.4297C360.3934,-497.4754 370.4368,-484.0842 378.9474,-472.7368"/>
<polygon fill="#000000" stroke="#000000" points="381.8885,-474.6486 385.0885,-464.5486 376.2885,-470.4486 381.8885,-474.6486"/>
</g>
<!-- 43 -->
<g id="node44" class="node">
<title>43</title>
<g id="a_node44"><a xlink:title="E">
<ellipse fill="#0020ff" stroke="#000000" stroke-width="0" cx="450" cy="-450" rx="18" ry="18"/>
</a>
</g>
</g>
<!-- 7&#45;&gt;43 -->
<g id="edge23" class="edge">
<title>7&#45;&gt;43</title>
<path fill="none" stroke="#000000" d="M357.0169,-511.9887C374.97,-500.02 405.2325,-479.845 426.3396,-465.7736"/>
<polygon fill="#000000" stroke="#000000" points="428.3834,-468.6176 434.7624,-460.1584 424.5005,-462.7932 428.3834,-468.6176"/>
</g>
<!-- 8 -->
<g id="node9" class="node">
<title>8</title>
<g id="a_node9"><a xlink:title="E">
<ellipse fill="#0020ff" stroke="#000000" stroke-width="0" cx="612" cy="-378" rx="18" ry="18"/>
</a>
</g>
</g>
<!-- 12 -->
<g id="node13" class="node">
<title>12</title>
<g id="a_node13"><a xlink:title="E">
<ellipse fill="#0020ff" stroke="#000000" stroke-width="0" cx="612" cy="-306" rx="18" ry="18"/>
</a>
</g>
</g>
<!-- 8&#45;&gt;12 -->
<g id="edge54" class="edge">
<title>8&#45;&gt;12</title>
<path fill="none" stroke="#000000" d="M612,-359.8314C612,-352.131 612,-342.9743 612,-334.4166"/>
<polygon fill="#000000" stroke="#000000" points="615.5001,-334.4132 612,-324.4133 608.5001,-334.4133 615.5001,-334.4132"/>
</g>
<!-- 9 -->
<g id="node10" class="node">
<title>9</title>
<g id="a_node10"><a xlink:title="E">
<ellipse fill="#0020ff" stroke="#000000" stroke-width="0" cx="504" cy="-450" rx="18" ry="18"/>
</a>
</g>
</g>
<!-- 9&#45;&gt;6 -->
<g id="edge49" class="edge">
<title>9&#45;&gt;6</title>
<path fill="none" stroke="#000000" d="M504,-431.8314C504,-424.131 504,-414.9743 504,-406.4166"/>
<polygon fill="#000000" stroke="#000000" points="507.5001,-406.4132 504,-396.4133 500.5001,-406.4133 507.5001,-406.4132"/>
</g>
<!-- 10 -->
<g id="node11" class="node">
<title>10</title>
<g id="a_node11"><a xlink:title="E">
<ellipse fill="#0020ff" stroke="#000000" stroke-width="0" cx="612" cy="-90" rx="18" ry="18"/>
</a>
</g>
</g>
<!-- 31 -->
<g id="node32" class="node">
<title>31</title>
<g id="a_node32"><a xlink:title="E">
<ellipse fill="#0020ff" stroke="#000000" stroke-width="0" cx="612" cy="-18" rx="18" ry="18"/>
</a>
</g>
</g>
<!-- 10&#45;&gt;31 -->
<g id="edge30" class="edge">
<title>10&#45;&gt;31</title>
<path fill="none" stroke="#000000" d="M612,-71.8314C612,-64.131 612,-54.9743 612,-46.4166"/>
<polygon fill="#000000" stroke="#000000" points="615.5001,-46.4132 612,-36.4133 608.5001,-46.4133 615.5001,-46.4132"/>
</g>
<!-- 11&#45;&gt;10 -->
<g id="edge17" class="edge">
<title>11&#45;&gt;10</title>
<path fill="none" stroke="#000000" d="M612,-143.8314C612,-136.131 612,-126.9743 612,-118.4166"/>
<polygon fill="#000000" stroke="#000000" points="615.5001,-118.4132 612,-108.4133 608.5001,-118.4133 615.5001,-118.4132"/>
</g>
<!-- 12&#45;&gt;5 -->
<g id="edge8" class="edge">
<title>12&#45;&gt;5</title>
<path fill="none" stroke="#000000" d="M612,-287.8314C612,-280.131 612,-270.9743 612,-262.4166"/>
<polygon fill="#000000" stroke="#000000" points="615.5001,-262.4132 612,-252.4133 608.5001,-262.4133 615.5001,-262.4132"/>
</g>
<!-- 13&#45;&gt;9 -->
<g id="edge59" class="edge">
<title>13&#45;&gt;9</title>
<path fill="none" stroke="#000000" d="M411.0169,-511.9887C428.97,-500.02 459.2325,-479.845 480.3396,-465.7736"/>
<polygon fill="#000000" stroke="#000000" points="482.3834,-468.6176 488.7624,-460.1584 478.5005,-462.7932 482.3834,-468.6176"/>
</g>
<!-- 14 -->
<g id="node15" class="node">
<title>14</title>
<g id="a_node15"><a xlink:title="E">
<ellipse fill="#0020ff" stroke="#000000" stroke-width="0" cx="72" cy="-378" rx="18" ry="18"/>
</a>
</g>
</g>
<!-- 15 -->
<g id="node16" class="node">
<title>15</title>
<g id="a_node16"><a xlink:title="E">
<ellipse fill="#0020ff" stroke="#000000" stroke-width="0" cx="72" cy="-306" rx="18" ry="18"/>
</a>
</g>
</g>
<!-- 14&#45;&gt;15 -->
<g id="edge44" class="edge">
<title>14&#45;&gt;15</title>
<path fill="none" stroke="#000000" d="M72,-359.8314C72,-352.131 72,-342.9743 72,-334.4166"/>
<polygon fill="#000000" stroke="#000000" points="75.5001,-334.4132 72,-324.4133 68.5001,-334.4133 75.5001,-334.4132"/>
</g>
<!-- 48 -->
<g id="node49" class="node">
<title>48</title>
<g id="a_node49"><a xlink:title="E">
<ellipse fill="#0020ff" stroke="#000000" stroke-width="0" cx="126" cy="-306" rx="18" ry="18"/>
</a>
</g>
</g>
<!-- 14&#45;&gt;48 -->
<g id="edge34" class="edge">
<title>14&#45;&gt;48</title>
<path fill="none" stroke="#000000" d="M82.9277,-363.4297C90.3934,-353.4754 100.4368,-340.0842 108.9474,-328.7368"/>
<polygon fill="#000000" stroke="#000000" points="111.8885,-330.6486 115.0885,-320.5486 106.2885,-326.4486 111.8885,-330.6486"/>
</g>
<!-- 16 -->
<g id="node17" class="node">
<title>16</title>
<g id="a_node17"><a xlink:title="E">
<ellipse fill="#0020ff" stroke="#000000" stroke-width="0" cx="558" cy="-450" rx="18" ry="18"/>
</a>
</g>
</g>
<!-- 58 -->
<g id="node59" class="node">
<title>58</title>
<g id="a_node59"><a xlink:title="E">
<ellipse fill="#0020ff" stroke="#000000" stroke-width="0" cx="774" cy="-522" rx="18" ry="18"/>
</a>
</g>
</g>
<!-- 17&#45;&gt;58 -->
<g id="edge47" class="edge">
<title>17&#45;&gt;58</title>
<path fill="none" stroke="#000000" d="M730.9277,-579.4297C738.3934,-569.4754 748.4368,-556.0842 756.9474,-544.7368"/>
<polygon fill="#000000" stroke="#000000" points="759.8885,-546.6486 763.0885,-536.5486 754.2885,-542.4486 759.8885,-546.6486"/>
</g>
<!-- 21&#45;&gt;0 -->
<g id="edge35" class="edge">
<title>21&#45;&gt;0</title>
<path fill="none" stroke="#000000" d="M135.7725,-465.5604C149.2938,-485.7892 175.6244,-520.794 207,-540 314.6048,-605.8682 716.4198,-651.6355 826.7935,-663.1569"/>
<polygon fill="#000000" stroke="#000000" points="826.5218,-666.6474 836.8285,-664.1935 827.2411,-659.6844 826.5218,-666.6474"/>
</g>
<!-- 21&#45;&gt;3 -->
<g id="edge56" class="edge">
<title>21&#45;&gt;3</title>
<path fill="none" stroke="#000000" d="M110.9831,-439.9887C93.03,-428.02 62.7675,-407.845 41.6604,-393.7736"/>
<polygon fill="#000000" stroke="#000000" points="43.4995,-390.7932 33.2376,-388.1584 39.6166,-396.6176 43.4995,-390.7932"/>
</g>
<!-- 21&#45;&gt;14 -->
<g id="edge1" class="edge">
<title>21&#45;&gt;14</title>
<path fill="none" stroke="#000000" d="M115.0723,-435.4297C107.6066,-425.4754 97.5632,-412.0842 89.0526,-400.7368"/>
<polygon fill="#000000" stroke="#000000" points="91.7115,-398.4486 82.9115,-392.5486 86.1115,-402.6486 91.7115,-398.4486"/>
</g>
<!-- 23 -->
<g id="node24" class="node">
<title>23</title>
<g id="a_node24"><a xlink:title="E">
<ellipse fill="#0020ff" stroke="#000000" stroke-width="0" cx="126" cy="-378" rx="18" ry="18"/>
</a>
</g>
</g>
<!-- 21&#45;&gt;23 -->
<g id="edge39" class="edge">
<title>21&#45;&gt;23</title>
<path fill="none" stroke="#000000" d="M126,-431.8314C126,-424.131 126,-414.9743 126,-406.4166"/>
<polygon fill="#000000" stroke="#000000" points="129.5001,-406.4132 126,-396.4133 122.5001,-406.4133 129.5001,-406.4132"/>
</g>
<!-- 26 -->
<g id="node27" class="node">
<title>26</title>
<g id="a_node27"><a xlink:title="E">
<ellipse fill="#0020ff" stroke="#000000" stroke-width="0" cx="180" cy="-378" rx="18" ry="18"/>
</a>
</g>
</g>
<!-- 21&#45;&gt;26 -->
<g id="edge33" class="edge">
<title>21&#45;&gt;26</title>
<path fill="none" stroke="#000000" d="M136.9277,-435.4297C144.3934,-425.4754 154.4368,-412.0842 162.9474,-400.7368"/>
<polygon fill="#000000" stroke="#000000" points="165.8885,-402.6486 169.0885,-392.5486 160.2885,-398.4486 165.8885,-402.6486"/>
</g>
<!-- 46 -->
<g id="node47" class="node">
<title>46</title>
<g id="a_node47"><a xlink:title="E">
<ellipse fill="#0020ff" stroke="#000000" stroke-width="0" cx="234" cy="-378" rx="18" ry="18"/>
</a>
</g>
</g>
<!-- 21&#45;&gt;46 -->
<g id="edge15" class="edge">
<title>21&#45;&gt;46</title>
<path fill="none" stroke="#000000" d="M141.0169,-439.9887C158.97,-428.02 189.2325,-407.845 210.3396,-393.7736"/>
<polygon fill="#000000" stroke="#000000" points="212.3834,-396.6176 218.7624,-388.1584 208.5005,-390.7932 212.3834,-396.6176"/>
</g>
<!-- 22 -->
<g id="node23" class="node">
<title>22</title>
<g id="a_node23"><a xlink:title="E">
<ellipse fill="#0020ff" stroke="#000000" stroke-width="0" cx="288" cy="-378" rx="18" ry="18"/>
</a>
</g>
</g>
<!-- 24 -->
<g id="node25" class="node">
<title>24</title>
<g id="a_node25"><a xlink:title="E">
<ellipse fill="#0020ff" stroke="#000000" stroke-width="0" cx="666" cy="-378" rx="18" ry="18"/>
</a>
</g>
</g>
<!-- 25 -->
<g id="node26" class="node">
<title>25</title>
<g id="a_node26"><a xlink:title="E">
<ellipse fill="#0020ff" stroke="#000000" stroke-width="0" cx="666" cy="-306" rx="18" ry="18"/>
</a>
</g>
</g>
<!-- 24&#45;&gt;25 -->
<g id="edge57" class="edge">
<title>24&#45;&gt;25</title>
<path fill="none" stroke="#000000" d="M666,-359.8314C666,-352.131 666,-342.9743 666,-334.4166"/>
<polygon fill="#000000" stroke="#000000" points="669.5001,-334.4132 666,-324.4133 662.5001,-334.4133 669.5001,-334.4132"/>
</g>
<!-- 34 -->
<g id="node35" class="node">
<title>34</title>
<g id="a_node35"><a xlink:title="E">
<ellipse fill="#0020ff" stroke="#000000" stroke-width="0" cx="666" cy="-234" rx="18" ry="18"/>
</a>
</g>
</g>
<!-- 25&#45;&gt;34 -->
<g id="edge9" class="edge">
<title>25&#45;&gt;34</title>
<path fill="none" stroke="#000000" d="M666,-287.8314C666,-280.131 666,-270.9743 666,-262.4166"/>
<polygon fill="#000000" stroke="#000000" points="669.5001,-262.4132 666,-252.4133 662.5001,-262.4133 669.5001,-262.4132"/>
</g>
<!-- 52 -->
<g id="node53" class="node">
<title>52</title>
<g id="a_node53"><a xlink:title="E">
<ellipse fill="#0020ff" stroke="#000000" stroke-width="0" cx="180" cy="-306" rx="18" ry="18"/>
</a>
</g>
</g>
<!-- 26&#45;&gt;52 -->
<g id="edge4" class="edge">
<title>26&#45;&gt;52</title>
<path fill="none" stroke="#000000" d="M180,-359.8314C180,-352.131 180,-342.9743 180,-334.4166"/>
<polygon fill="#000000" stroke="#000000" points="183.5001,-334.4132 180,-324.4133 176.5001,-334.4133 183.5001,-334.4132"/>
</g>
<!-- 28&#45;&gt;16 -->
<g id="edge36" class="edge">
<title>28&#45;&gt;16</title>
<path fill="none" stroke="#000000" d="M514.9277,-507.4297C522.3934,-497.4754 532.4368,-484.0842 540.9474,-472.7368"/>
<polygon fill="#000000" stroke="#000000" points="543.8885,-474.6486 547.0885,-464.5486 538.2885,-470.4486 543.8885,-474.6486"/>
</g>
<!-- 29&#45;&gt;22 -->
<g id="edge16" class="edge">
<title>29&#45;&gt;22</title>
<path fill="none" stroke="#000000" d="M288,-431.8314C288,-424.131 288,-414.9743 288,-406.4166"/>
<polygon fill="#000000" stroke="#000000" points="291.5001,-406.4132 288,-396.4133 284.5001,-406.4133 291.5001,-406.4132"/>
</g>
<!-- 47 -->
<g id="node48" class="node">
<title>47</title>
<g id="a_node48"><a xlink:title="E">
<ellipse fill="#0020ff" stroke="#000000" stroke-width="0" cx="828" cy="-522" rx="18" ry="18"/>
</a>
</g>
</g>
<!-- 30&#45;&gt;47 -->
<g id="edge12" class="edge">
<title>30&#45;&gt;47</title>
<path fill="none" stroke="#000000" d="M828,-575.8314C828,-568.131 828,-558.9743 828,-550.4166"/>
<polygon fill="#000000" stroke="#000000" points="831.5001,-550.4132 828,-540.4133 824.5001,-550.4133 831.5001,-550.4132"/>
</g>
<!-- 57 -->
<g id="node58" class="node">
<title>57</title>
<g id="a_node58"><a xlink:title="E">
<ellipse fill="#0020ff" stroke="#000000" stroke-width="0" cx="882" cy="-522" rx="18" ry="18"/>
</a>
</g>
</g>
<!-- 33&#45;&gt;57 -->
<g id="edge53" class="edge">
<title>33&#45;&gt;57</title>
<path fill="none" stroke="#000000" d="M882,-575.8314C882,-568.131 882,-558.9743 882,-550.4166"/>
<polygon fill="#000000" stroke="#000000" points="885.5001,-550.4132 882,-540.4133 878.5001,-550.4133 885.5001,-550.4132"/>
</g>
<!-- 38 -->
<g id="node39" class="node">
<title>38</title>
<g id="a_node39"><a xlink:title="E">
<ellipse fill="#0020ff" stroke="#000000" stroke-width="0" cx="126" cy="-234" rx="18" ry="18"/>
</a>
</g>
</g>
<!-- 49 -->
<g id="node50" class="node">
<title>49</title>
<g id="a_node50"><a xlink:title="E">
<ellipse fill="#0020ff" stroke="#000000" stroke-width="0" cx="612" cy="-450" rx="18" ry="18"/>
</a>
</g>
</g>
<!-- 39&#45;&gt;49 -->
<g id="edge29" class="edge">
<title>39&#45;&gt;49</title>
<path fill="none" stroke="#000000" d="M612,-503.8314C612,-496.131 612,-486.9743 612,-478.4166"/>
<polygon fill="#000000" stroke="#000000" points="615.5001,-478.4132 612,-468.4133 608.5001,-478.4133 615.5001,-478.4132"/>
</g>
<!-- 40 -->
<g id="node41" class="node">
<title>40</title>
<g id="a_node41"><a xlink:title="E">
<ellipse fill="#0020ff" stroke="#000000" stroke-width="0" cx="666" cy="-450" rx="18" ry="18"/>
</a>
</g>
</g>
<!-- 40&#45;&gt;24 -->
<g id="edge32" class="edge">
<title>40&#45;&gt;24</title>
<path fill="none" stroke="#000000" d="M666,-431.8314C666,-424.131 666,-414.9743 666,-406.4166"/>
<polygon fill="#000000" stroke="#000000" points="669.5001,-406.4132 666,-396.4133 662.5001,-406.4133 669.5001,-406.4132"/>
</g>
<!-- 41 -->
<g id="node42" class="node">
<title>41</title>
<g id="a_node42"><a xlink:title="E">
<ellipse fill="#0020ff" stroke="#000000" stroke-width="0" cx="828" cy="-450" rx="18" ry="18"/>
</a>
</g>
</g>
<!-- 50 -->
<g id="node51" class="node">
<title>50</title>
<g id="a_node51"><a xlink:title="E">
<ellipse fill="#0020ff" stroke="#000000" stroke-width="0" cx="396" cy="-378" rx="18" ry="18"/>
</a>
</g>
</g>
<!-- 42&#45;&gt;50 -->
<g id="edge27" class="edge">
<title>42&#45;&gt;50</title>
<path fill="none" stroke="#000000" d="M396,-431.8314C396,-424.131 396,-414.9743 396,-406.4166"/>
<polygon fill="#000000" stroke="#000000" points="399.5001,-406.4132 396,-396.4133 392.5001,-406.4133 399.5001,-406.4132"/>
</g>
<!-- 44&#45;&gt;40 -->
<g id="edge60" class="edge">
<title>44&#45;&gt;40</title>
<path fill="none" stroke="#000000" d="M666,-503.8314C666,-496.131 666,-486.9743 666,-478.4166"/>
<polygon fill="#000000" stroke="#000000" points="669.5001,-478.4132 666,-468.4133 662.5001,-478.4133 669.5001,-478.4132"/>
</g>
<!-- 53 -->
<g id="node54" class="node">
<title>53</title>
<g id="a_node54"><a xlink:title="E">
<ellipse fill="#0020ff" stroke="#000000" stroke-width="0" cx="234" cy="-306" rx="18" ry="18"/>
</a>
</g>
</g>
<!-- 46&#45;&gt;53 -->
<g id="edge55" class="edge">
<title>46&#45;&gt;53</title>
<path fill="none" stroke="#000000" d="M234,-359.8314C234,-352.131 234,-342.9743 234,-334.4166"/>
<polygon fill="#000000" stroke="#000000" points="237.5001,-334.4132 234,-324.4133 230.5001,-334.4133 237.5001,-334.4132"/>
</g>
<!-- 47&#45;&gt;41 -->
<g id="edge45" class="edge">
<title>47&#45;&gt;41</title>
<path fill="none" stroke="#000000" d="M828,-503.8314C828,-496.131 828,-486.9743 828,-478.4166"/>
<polygon fill="#000000" stroke="#000000" points="831.5001,-478.4132 828,-468.4133 824.5001,-478.4133 831.5001,-478.4132"/>
</g>
<!-- 48&#45;&gt;38 -->
<g id="edge5" class="edge">
<title>48&#45;&gt;38</title>
<path fill="none" stroke="#000000" d="M126,-287.8314C126,-280.131 126,-270.9743 126,-262.4166"/>
<polygon fill="#000000" stroke="#000000" points="129.5001,-262.4132 126,-252.4133 122.5001,-262.4133 129.5001,-262.4132"/>
</g>
<!-- 49&#45;&gt;8 -->
<g id="edge41" class="edge">
<title>49&#45;&gt;8</title>
<path fill="none" stroke="#000000" d="M612,-431.8314C612,-424.131 612,-414.9743 612,-406.4166"/>
<polygon fill="#000000" stroke="#000000" points="615.5001,-406.4132 612,-396.4133 608.5001,-406.4133 615.5001,-406.4132"/>
</g>
<!-- 54 -->
<g id="node55" class="node">
<title>54</title>
<g id="a_node55"><a xlink:title="E">
<ellipse fill="#0020ff" stroke="#000000" stroke-width="0" cx="720" cy="-450" rx="18" ry="18"/>
</a>
</g>
</g>
<!-- 55&#45;&gt;54 -->
<g id="edge6" class="edge">
<title>55&#45;&gt;54</title>
<path fill="none" stroke="#000000" d="M720,-503.8314C720,-496.131 720,-486.9743 720,-478.4166"/>
<polygon fill="#000000" stroke="#000000" points="723.5001,-478.4132 720,-468.4133 716.5001,-478.4133 723.5001,-478.4132"/>
</g>
<!-- 59 -->
<g id="node60" class="node">
<title>59</title>
<g id="a_node60"><a xlink:title="E">
<ellipse fill="#0020ff" stroke="#000000" stroke-width="0" cx="774" cy="-450" rx="18" ry="18"/>
</a>
</g>
</g>
<!-- 58&#45;&gt;59 -->
<g id="edge18" class="edge">
<title>58&#45;&gt;59</title>
<path fill="none" stroke="#000000" d="M774,-503.8314C774,-496.131 774,-486.9743 774,-478.4166"/>
<polygon fill="#000000" stroke="#000000" points="777.5001,-478.4132 774,-468.4133 770.5001,-478.4133 777.5001,-478.4132"/>
</g>
</g>
</svg>
