<?xml version="1.0" encoding="UTF-8" standalone="no"?>
<!DOCTYPE svg PUBLIC "-//W3C//DTD SVG 1.1//EN"
 "http://www.w3.org/Graphics/SVG/1.1/DTD/svg11.dtd">
<!-- Generated by graphviz version 2.38.0 (20140413.2041)
 -->
<!-- Title: %3 Pages: 1 -->
<svg width="1489pt" height="692pt"
 viewBox="0.00 0.00 1489.19 692.00" xmlns="http://www.w3.org/2000/svg" xmlns:xlink="http://www.w3.org/1999/xlink">
<g id="graph0" class="graph" transform="scale(1 1) rotate(0) translate(4 688)">
<title>%3</title>
<polygon fill="white" stroke="none" points="-4,4 -4,-688 1485.19,-688 1485.19,4 -4,4"/>
<!-- 0 -->
<g id="node1" class="node"><title>0</title>
<g id="a_node1"><a xlink:title="0, diversity: 3, multiplicities: 1,3,3, labels: 0">
<ellipse fill="#f7fcf5" stroke="black" cx="440.596" cy="-666" rx="37.0935" ry="18"/>
<text text-anchor="middle" x="440.596" y="-662.3" font-family="Times,serif" font-size="14.00">0 (3): 0</text>
</a>
</g>
</g>
<!-- 3 -->
<g id="node4" class="node"><title>3</title>
<g id="a_node4"><a xlink:title="3, diversity: 1, multiplicities: 3, labels: 0">
<ellipse fill="#f7fcf5" stroke="black" cx="342.596" cy="-594" rx="37.0935" ry="18"/>
<text text-anchor="middle" x="342.596" y="-590.3" font-family="Times,serif" font-size="14.00">3 (1): 0</text>
</a>
</g>
</g>
<!-- 0&#45;&gt;3 -->
<g id="edge15" class="edge"><title>0&#45;&gt;3</title>
<path fill="none" stroke="black" d="M420.291,-650.496C406.005,-640.292 386.695,-626.499 370.9,-615.217"/>
<polygon fill="black" stroke="black" points="372.712,-612.21 362.541,-609.246 368.644,-617.906 372.712,-612.21"/>
</g>
<!-- 17 -->
<g id="node18" class="node"><title>17</title>
<g id="a_node18"><a xlink:title="17, diversity: 3, multiplicities: 1,2,2, labels: 0">
<ellipse fill="#f7fcf5" stroke="black" cx="538.596" cy="-594" rx="41.6928" ry="18"/>
<text text-anchor="middle" x="538.596" y="-590.3" font-family="Times,serif" font-size="14.00">17 (3): 0</text>
</a>
</g>
</g>
<!-- 0&#45;&gt;17 -->
<g id="edge26" class="edge"><title>0&#45;&gt;17</title>
<path fill="none" stroke="black" d="M460.902,-650.496C474.999,-640.427 493.987,-626.864 509.663,-615.666"/>
<polygon fill="black" stroke="black" points="511.876,-618.387 517.979,-609.726 507.808,-612.691 511.876,-618.387"/>
</g>
<!-- 1 -->
<g id="node2" class="node"><title>1</title>
<g id="a_node2"><a xlink:title="1, diversity: 1, multiplicities: 193, labels: 0">
<ellipse fill="#f7fcf5" stroke="black" cx="293.596" cy="-522" rx="37.0935" ry="18"/>
<text text-anchor="middle" x="293.596" y="-518.3" font-family="Times,serif" font-size="14.00">1 (1): 0</text>
</a>
</g>
</g>
<!-- 25 -->
<g id="node26" class="node"><title>25</title>
<g id="a_node26"><a xlink:title="25, diversity: 1, multiplicities: 1, labels: 0">
<ellipse fill="#f7fcf5" stroke="black" cx="243.596" cy="-450" rx="41.6928" ry="18"/>
<text text-anchor="middle" x="243.596" y="-446.3" font-family="Times,serif" font-size="14.00">25 (1): 0</text>
</a>
</g>
</g>
<!-- 1&#45;&gt;25 -->
<g id="edge22" class="edge"><title>1&#45;&gt;25</title>
<path fill="none" stroke="black" d="M282,-504.765C275.904,-496.23 268.298,-485.582 261.467,-476.019"/>
<polygon fill="black" stroke="black" points="264.138,-473.736 255.477,-467.633 258.442,-477.805 264.138,-473.736"/>
</g>
<!-- 2 -->
<g id="node3" class="node"><title>2</title>
<g id="a_node3"><a xlink:title="2, diversity: 1, multiplicities: 1, labels: 0">
<ellipse fill="#f7fcf5" stroke="black" cx="140.596" cy="-234" rx="37.0935" ry="18"/>
<text text-anchor="middle" x="140.596" y="-230.3" font-family="Times,serif" font-size="14.00">2 (1): 0</text>
</a>
</g>
</g>
<!-- 47 -->
<g id="node48" class="node"><title>47</title>
<g id="a_node48"><a xlink:title="47, diversity: 1, multiplicities: 11, labels: 0">
<ellipse fill="#f7fcf5" stroke="black" cx="88.5963" cy="-162" rx="41.6928" ry="18"/>
<text text-anchor="middle" x="88.5963" y="-158.3" font-family="Times,serif" font-size="14.00">47 (1): 0</text>
</a>
</g>
</g>
<!-- 2&#45;&gt;47 -->
<g id="edge47" class="edge"><title>2&#45;&gt;47</title>
<path fill="none" stroke="black" d="M128.536,-216.765C122.131,-208.143 114.124,-197.365 106.965,-187.727"/>
<polygon fill="black" stroke="black" points="109.725,-185.574 100.953,-179.633 104.106,-189.748 109.725,-185.574"/>
</g>
<!-- 3&#45;&gt;1 -->
<g id="edge54" class="edge"><title>3&#45;&gt;1</title>
<path fill="none" stroke="black" d="M331.232,-576.765C325.171,-568.106 317.587,-557.273 310.819,-547.604"/>
<polygon fill="black" stroke="black" points="313.501,-545.333 304.899,-539.147 307.767,-549.347 313.501,-545.333"/>
</g>
<!-- 4 -->
<g id="node5" class="node"><title>4</title>
<g id="a_node5"><a xlink:title="4, diversity: 1, multiplicities: 10, labels: 0">
<ellipse fill="#f7fcf5" stroke="black" cx="1439.6" cy="-234" rx="37.0935" ry="18"/>
<text text-anchor="middle" x="1439.6" y="-230.3" font-family="Times,serif" font-size="14.00">4 (1): 0</text>
</a>
</g>
</g>
<!-- 5 -->
<g id="node6" class="node"><title>5</title>
<g id="a_node6"><a xlink:title="5, diversity: 1, multiplicities: 159, labels: 0">
<ellipse fill="#f7fcf5" stroke="black" cx="441.596" cy="-306" rx="37.0935" ry="18"/>
<text text-anchor="middle" x="441.596" y="-302.3" font-family="Times,serif" font-size="14.00">5 (1): 0</text>
</a>
</g>
</g>
<!-- 6 -->
<g id="node7" class="node"><title>6</title>
<g id="a_node7"><a xlink:title="6, diversity: 1, multiplicities: 2, labels: 0">
<ellipse fill="#f7fcf5" stroke="black" cx="441.596" cy="-378" rx="37.0935" ry="18"/>
<text text-anchor="middle" x="441.596" y="-374.3" font-family="Times,serif" font-size="14.00">6 (1): 0</text>
</a>
</g>
</g>
<!-- 6&#45;&gt;5 -->
<g id="edge50" class="edge"><title>6&#45;&gt;5</title>
<path fill="none" stroke="black" d="M441.596,-359.697C441.596,-351.983 441.596,-342.712 441.596,-334.112"/>
<polygon fill="black" stroke="black" points="445.096,-334.104 441.596,-324.104 438.096,-334.104 445.096,-334.104"/>
</g>
<!-- 7 -->
<g id="node8" class="node"><title>7</title>
<g id="a_node8"><a xlink:title="7, diversity: 3, multiplicities: 1,2,101, labels: 0">
<ellipse fill="#f7fcf5" stroke="black" cx="1140.6" cy="-306" rx="37.0935" ry="18"/>
<text text-anchor="middle" x="1140.6" y="-302.3" font-family="Times,serif" font-size="14.00">7 (3): 0</text>
</a>
</g>
</g>
<!-- 8 -->
<g id="node9" class="node"><title>8</title>
<g id="a_node9"><a xlink:title="8, diversity: 1, multiplicities: 1, labels: 0">
<ellipse fill="#f7fcf5" stroke="black" cx="1140.6" cy="-378" rx="37.0935" ry="18"/>
<text text-anchor="middle" x="1140.6" y="-374.3" font-family="Times,serif" font-size="14.00">8 (1): 0</text>
</a>
</g>
</g>
<!-- 8&#45;&gt;7 -->
<g id="edge45" class="edge"><title>8&#45;&gt;7</title>
<path fill="none" stroke="black" d="M1140.6,-359.697C1140.6,-351.983 1140.6,-342.712 1140.6,-334.112"/>
<polygon fill="black" stroke="black" points="1144.1,-334.104 1140.6,-324.104 1137.1,-334.104 1144.1,-334.104"/>
</g>
<!-- 9 -->
<g id="node10" class="node"><title>9</title>
<g id="a_node10"><a xlink:title="9, diversity: 1, multiplicities: 40, labels: 0">
<ellipse fill="#f7fcf5" stroke="black" cx="94.5963" cy="-378" rx="37.0935" ry="18"/>
<text text-anchor="middle" x="94.5963" y="-374.3" font-family="Times,serif" font-size="14.00">9 (1): 0</text>
</a>
</g>
</g>
<!-- 11 -->
<g id="node12" class="node"><title>11</title>
<g id="a_node12"><a xlink:title="11, diversity: 2, multiplicities: 3,42, labels: 0">
<ellipse fill="#f7fcf5" stroke="black" cx="41.5963" cy="-306" rx="41.6928" ry="18"/>
<text text-anchor="middle" x="41.5963" y="-302.3" font-family="Times,serif" font-size="14.00">11 (2): 0</text>
</a>
</g>
</g>
<!-- 9&#45;&gt;11 -->
<g id="edge29" class="edge"><title>9&#45;&gt;11</title>
<path fill="none" stroke="black" d="M82.3038,-360.765C75.776,-352.143 67.6153,-341.365 60.318,-331.727"/>
<polygon fill="black" stroke="black" points="63.017,-329.493 54.1902,-323.633 57.4362,-333.719 63.017,-329.493"/>
</g>
<!-- 10 -->
<g id="node11" class="node"><title>10</title>
<g id="a_node11"><a xlink:title="10, diversity: 1, multiplicities: 5, labels: 0">
<ellipse fill="#f7fcf5" stroke="black" cx="142.596" cy="-306" rx="41.6928" ry="18"/>
<text text-anchor="middle" x="142.596" y="-302.3" font-family="Times,serif" font-size="14.00">10 (1): 0</text>
</a>
</g>
</g>
<!-- 10&#45;&gt;2 -->
<g id="edge61" class="edge"><title>10&#45;&gt;2</title>
<path fill="none" stroke="black" d="M142.102,-287.697C141.882,-279.983 141.617,-270.712 141.371,-262.112"/>
<polygon fill="black" stroke="black" points="144.869,-262 141.085,-252.104 137.872,-262.2 144.869,-262"/>
</g>
<!-- 46 -->
<g id="node47" class="node"><title>46</title>
<g id="a_node47"><a xlink:title="46, diversity: 1, multiplicities: 13, labels: 0">
<ellipse fill="#f7fcf5" stroke="black" cx="41.5963" cy="-234" rx="41.6928" ry="18"/>
<text text-anchor="middle" x="41.5963" y="-230.3" font-family="Times,serif" font-size="14.00">46 (1): 0</text>
</a>
</g>
</g>
<!-- 11&#45;&gt;46 -->
<g id="edge31" class="edge"><title>11&#45;&gt;46</title>
<path fill="none" stroke="black" d="M41.5963,-287.697C41.5963,-279.983 41.5963,-270.712 41.5963,-262.112"/>
<polygon fill="black" stroke="black" points="45.0964,-262.104 41.5963,-252.104 38.0964,-262.104 45.0964,-262.104"/>
</g>
<!-- 12 -->
<g id="node13" class="node"><title>12</title>
<g id="a_node13"><a xlink:title="12, diversity: 2, multiplicities: 1,33, labels: 0">
<ellipse fill="#f7fcf5" stroke="black" cx="243.596" cy="-378" rx="41.6928" ry="18"/>
<text text-anchor="middle" x="243.596" y="-374.3" font-family="Times,serif" font-size="14.00">12 (2): 0</text>
</a>
</g>
</g>
<!-- 12&#45;&gt;10 -->
<g id="edge32" class="edge"><title>12&#45;&gt;10</title>
<path fill="none" stroke="black" d="M222.177,-362.155C207.617,-352.064 188.165,-338.583 172.138,-327.474"/>
<polygon fill="black" stroke="black" points="173.851,-324.403 163.639,-321.584 169.864,-330.157 173.851,-324.403"/>
</g>
<!-- 19 -->
<g id="node20" class="node"><title>19</title>
<g id="a_node20"><a xlink:title="19, diversity: 2, multiplicities: 2,32, labels: 0">
<ellipse fill="#f7fcf5" stroke="black" cx="243.596" cy="-306" rx="41.6928" ry="18"/>
<text text-anchor="middle" x="243.596" y="-302.3" font-family="Times,serif" font-size="14.00">19 (2): 0</text>
</a>
</g>
</g>
<!-- 12&#45;&gt;19 -->
<g id="edge55" class="edge"><title>12&#45;&gt;19</title>
<path fill="none" stroke="black" d="M243.596,-359.697C243.596,-351.983 243.596,-342.712 243.596,-334.112"/>
<polygon fill="black" stroke="black" points="247.096,-334.104 243.596,-324.104 240.096,-334.104 247.096,-334.104"/>
</g>
<!-- 22 -->
<g id="node23" class="node"><title>22</title>
<g id="a_node23"><a xlink:title="22, diversity: 4, multiplicities: 1,1,1,5, labels: 0">
<ellipse fill="#f7fcf5" stroke="black" cx="344.596" cy="-306" rx="41.6928" ry="18"/>
<text text-anchor="middle" x="344.596" y="-302.3" font-family="Times,serif" font-size="14.00">22 (4): 0</text>
</a>
</g>
</g>
<!-- 12&#45;&gt;22 -->
<g id="edge49" class="edge"><title>12&#45;&gt;22</title>
<path fill="none" stroke="black" d="M265.016,-362.155C279.575,-352.064 299.027,-338.583 315.055,-327.474"/>
<polygon fill="black" stroke="black" points="317.329,-330.157 323.554,-321.584 313.341,-324.403 317.329,-330.157"/>
</g>
<!-- 13 -->
<g id="node14" class="node"><title>13</title>
<g id="a_node14"><a xlink:title="13, diversity: 1, multiplicities: 11, labels: 0">
<ellipse fill="#f7fcf5" stroke="black" cx="189.596" cy="-162" rx="41.6928" ry="18"/>
<text text-anchor="middle" x="189.596" y="-158.3" font-family="Times,serif" font-size="14.00">13 (1): 0</text>
</a>
</g>
</g>
<!-- 14 -->
<g id="node15" class="node"><title>14</title>
<g id="a_node15"><a xlink:title="14, diversity: 1, multiplicities: 1, labels: 0">
<ellipse fill="#f7fcf5" stroke="black" cx="538.596" cy="-522" rx="41.6928" ry="18"/>
<text text-anchor="middle" x="538.596" y="-518.3" font-family="Times,serif" font-size="14.00">14 (1): 0</text>
</a>
</g>
</g>
<!-- 31 -->
<g id="node32" class="node"><title>31</title>
<g id="a_node32"><a xlink:title="31, diversity: 2, multiplicities: 19,20, labels: 0">
<ellipse fill="#f7fcf5" stroke="black" cx="538.596" cy="-450" rx="41.6928" ry="18"/>
<text text-anchor="middle" x="538.596" y="-446.3" font-family="Times,serif" font-size="14.00">31 (2): 0</text>
</a>
</g>
</g>
<!-- 14&#45;&gt;31 -->
<g id="edge21" class="edge"><title>14&#45;&gt;31</title>
<path fill="none" stroke="black" d="M538.596,-503.697C538.596,-495.983 538.596,-486.712 538.596,-478.112"/>
<polygon fill="black" stroke="black" points="542.096,-478.104 538.596,-468.104 535.096,-478.104 542.096,-478.104"/>
</g>
<!-- 15 -->
<g id="node16" class="node"><title>15</title>
<g id="a_node16"><a xlink:title="15, diversity: 3, multiplicities: 1,5,35, labels: 0">
<ellipse fill="#f7fcf5" stroke="black" cx="1043.6" cy="-306" rx="41.6928" ry="18"/>
<text text-anchor="middle" x="1043.6" y="-302.3" font-family="Times,serif" font-size="14.00">15 (3): 0</text>
</a>
</g>
</g>
<!-- 16 -->
<g id="node17" class="node"><title>16</title>
<g id="a_node17"><a xlink:title="16, diversity: 2, multiplicities: 1,12, labels: 0">
<ellipse fill="#f7fcf5" stroke="black" cx="841.596" cy="-450" rx="41.6928" ry="18"/>
<text text-anchor="middle" x="841.596" y="-446.3" font-family="Times,serif" font-size="14.00">16 (2): 0</text>
</a>
</g>
</g>
<!-- 23 -->
<g id="node24" class="node"><title>23</title>
<g id="a_node24"><a xlink:title="23, diversity: 1, multiplicities: 5, labels: 0">
<ellipse fill="#f7fcf5" stroke="black" cx="740.596" cy="-378" rx="41.6928" ry="18"/>
<text text-anchor="middle" x="740.596" y="-374.3" font-family="Times,serif" font-size="14.00">23 (1): 0</text>
</a>
</g>
</g>
<!-- 16&#45;&gt;23 -->
<g id="edge42" class="edge"><title>16&#45;&gt;23</title>
<path fill="none" stroke="black" d="M820.177,-434.155C805.617,-424.064 786.165,-410.583 770.138,-399.474"/>
<polygon fill="black" stroke="black" points="771.851,-396.403 761.639,-393.584 767.864,-402.157 771.851,-396.403"/>
</g>
<!-- 49 -->
<g id="node50" class="node"><title>49</title>
<g id="a_node50"><a xlink:title="49, diversity: 1, multiplicities: 13, labels: 0">
<ellipse fill="#f7fcf5" stroke="black" cx="841.596" cy="-378" rx="41.6928" ry="18"/>
<text text-anchor="middle" x="841.596" y="-374.3" font-family="Times,serif" font-size="14.00">49 (1): 0</text>
</a>
</g>
</g>
<!-- 16&#45;&gt;49 -->
<g id="edge1" class="edge"><title>16&#45;&gt;49</title>
<path fill="none" stroke="black" d="M841.596,-431.697C841.596,-423.983 841.596,-414.712 841.596,-406.112"/>
<polygon fill="black" stroke="black" points="845.096,-406.104 841.596,-396.104 838.096,-406.104 845.096,-406.104"/>
</g>
<!-- 17&#45;&gt;14 -->
<g id="edge35" class="edge"><title>17&#45;&gt;14</title>
<path fill="none" stroke="black" d="M538.596,-575.697C538.596,-567.983 538.596,-558.712 538.596,-550.112"/>
<polygon fill="black" stroke="black" points="542.096,-550.104 538.596,-540.104 535.096,-550.104 542.096,-550.104"/>
</g>
<!-- 18 -->
<g id="node19" class="node"><title>18</title>
<g id="a_node19"><a xlink:title="18, diversity: 1, multiplicities: 2, labels: 0">
<ellipse fill="#f7fcf5" stroke="black" cx="992.596" cy="-522" rx="41.6928" ry="18"/>
<text text-anchor="middle" x="992.596" y="-518.3" font-family="Times,serif" font-size="14.00">18 (1): 0</text>
</a>
</g>
</g>
<!-- 17&#45;&gt;18 -->
<g id="edge52" class="edge"><title>17&#45;&gt;18</title>
<path fill="none" stroke="black" d="M577.304,-587.032C659.894,-574.298 853.237,-544.487 943.966,-530.498"/>
<polygon fill="black" stroke="black" points="944.637,-533.936 953.986,-528.953 943.57,-527.018 944.637,-533.936"/>
</g>
<!-- 18&#45;&gt;16 -->
<g id="edge27" class="edge"><title>18&#45;&gt;16</title>
<path fill="none" stroke="black" d="M965.251,-508.324C940.847,-497.01 904.923,-480.357 878.076,-467.911"/>
<polygon fill="black" stroke="black" points="879.537,-464.731 868.993,-463.7 876.593,-471.082 879.537,-464.731"/>
</g>
<!-- 21 -->
<g id="node22" class="node"><title>21</title>
<g id="a_node22"><a xlink:title="21, diversity: 1, multiplicities: 1, labels: 0">
<ellipse fill="#f7fcf5" stroke="black" cx="942.596" cy="-450" rx="41.6928" ry="18"/>
<text text-anchor="middle" x="942.596" y="-446.3" font-family="Times,serif" font-size="14.00">21 (1): 0</text>
</a>
</g>
</g>
<!-- 18&#45;&gt;21 -->
<g id="edge48" class="edge"><title>18&#45;&gt;21</title>
<path fill="none" stroke="black" d="M980.747,-504.411C974.645,-495.868 967.081,-485.278 960.302,-475.787"/>
<polygon fill="black" stroke="black" points="963.021,-473.573 954.361,-467.47 957.325,-477.642 963.021,-473.573"/>
</g>
<!-- 24 -->
<g id="node25" class="node"><title>24</title>
<g id="a_node25"><a xlink:title="24, diversity: 1, multiplicities: 1, labels: 0">
<ellipse fill="#f7fcf5" stroke="black" cx="1043.6" cy="-450" rx="41.6928" ry="18"/>
<text text-anchor="middle" x="1043.6" y="-446.3" font-family="Times,serif" font-size="14.00">24 (1): 0</text>
</a>
</g>
</g>
<!-- 18&#45;&gt;24 -->
<g id="edge41" class="edge"><title>18&#45;&gt;24</title>
<path fill="none" stroke="black" d="M1004.68,-504.411C1010.91,-495.868 1018.62,-485.278 1025.54,-475.787"/>
<polygon fill="black" stroke="black" points="1028.54,-477.613 1031.6,-467.47 1022.88,-473.491 1028.54,-477.613"/>
</g>
<!-- 35 -->
<g id="node36" class="node"><title>35</title>
<g id="a_node36"><a xlink:title="35, diversity: 1, multiplicities: 2, labels: 0">
<ellipse fill="#f7fcf5" stroke="black" cx="1190.6" cy="-450" rx="41.6928" ry="18"/>
<text text-anchor="middle" x="1190.6" y="-446.3" font-family="Times,serif" font-size="14.00">35 (1): 0</text>
</a>
</g>
</g>
<!-- 18&#45;&gt;35 -->
<g id="edge38" class="edge"><title>18&#45;&gt;35</title>
<path fill="none" stroke="black" d="M1023.97,-509.908C1058,-497.876 1112.46,-478.623 1149.8,-465.424"/>
<polygon fill="black" stroke="black" points="1151.11,-468.673 1159.37,-462.04 1148.77,-462.073 1151.11,-468.673"/>
</g>
<!-- 45 -->
<g id="node46" class="node"><title>45</title>
<g id="a_node46"><a xlink:title="45, diversity: 2, multiplicities: 1,11, labels: 0">
<ellipse fill="#f7fcf5" stroke="black" cx="1291.6" cy="-450" rx="41.6928" ry="18"/>
<text text-anchor="middle" x="1291.6" y="-446.3" font-family="Times,serif" font-size="14.00">45 (2): 0</text>
</a>
</g>
</g>
<!-- 18&#45;&gt;45 -->
<g id="edge20" class="edge"><title>18&#45;&gt;45</title>
<path fill="none" stroke="black" d="M1030.47,-514.378C1079.57,-505.467 1167.67,-488.36 1241.6,-468 1244.59,-467.175 1247.67,-466.27 1250.76,-465.321"/>
<polygon fill="black" stroke="black" points="1252.11,-468.565 1260.57,-462.183 1249.98,-461.898 1252.11,-468.565"/>
</g>
<!-- 20 -->
<g id="node21" class="node"><title>20</title>
<g id="a_node21"><a xlink:title="20, diversity: 3, multiplicities: 1,6,18, labels: 0">
<ellipse fill="#f7fcf5" stroke="black" cx="290.596" cy="-162" rx="41.6928" ry="18"/>
<text text-anchor="middle" x="290.596" y="-158.3" font-family="Times,serif" font-size="14.00">20 (3): 0</text>
</a>
</g>
</g>
<!-- 48 -->
<g id="node49" class="node"><title>48</title>
<g id="a_node49"><a xlink:title="48, diversity: 1, multiplicities: 3, labels: 0">
<ellipse fill="#f7fcf5" stroke="black" cx="189.596" cy="-90" rx="41.6928" ry="18"/>
<text text-anchor="middle" x="189.596" y="-86.3" font-family="Times,serif" font-size="14.00">48 (1): 0</text>
</a>
</g>
</g>
<!-- 20&#45;&gt;48 -->
<g id="edge17" class="edge"><title>20&#45;&gt;48</title>
<path fill="none" stroke="black" d="M269.177,-146.155C254.617,-136.064 235.165,-122.583 219.138,-111.474"/>
<polygon fill="black" stroke="black" points="220.851,-108.403 210.639,-105.584 216.864,-114.157 220.851,-108.403"/>
</g>
<!-- 50 -->
<g id="node51" class="node"><title>50</title>
<g id="a_node51"><a xlink:title="50, diversity: 1, multiplicities: 1, labels: 0">
<ellipse fill="#f7fcf5" stroke="black" cx="942.596" cy="-378" rx="41.6928" ry="18"/>
<text text-anchor="middle" x="942.596" y="-374.3" font-family="Times,serif" font-size="14.00">50 (1): 0</text>
</a>
</g>
</g>
<!-- 21&#45;&gt;50 -->
<g id="edge59" class="edge"><title>21&#45;&gt;50</title>
<path fill="none" stroke="black" d="M942.596,-431.697C942.596,-423.983 942.596,-414.712 942.596,-406.112"/>
<polygon fill="black" stroke="black" points="946.096,-406.104 942.596,-396.104 939.096,-406.104 946.096,-406.104"/>
</g>
<!-- 26 -->
<g id="node27" class="node"><title>26</title>
<g id="a_node27"><a xlink:title="26, diversity: 1, multiplicities: 1, labels: 0">
<ellipse fill="#f7fcf5" stroke="black" cx="290.596" cy="-234" rx="41.6928" ry="18"/>
<text text-anchor="middle" x="290.596" y="-230.3" font-family="Times,serif" font-size="14.00">26 (1): 0</text>
</a>
</g>
</g>
<!-- 22&#45;&gt;26 -->
<g id="edge7" class="edge"><title>22&#45;&gt;26</title>
<path fill="none" stroke="black" d="M332.072,-288.765C325.421,-280.143 317.106,-269.365 309.671,-259.727"/>
<polygon fill="black" stroke="black" points="312.307,-257.413 303.428,-251.633 306.765,-261.689 312.307,-257.413"/>
</g>
<!-- 41 -->
<g id="node42" class="node"><title>41</title>
<g id="a_node42"><a xlink:title="41, diversity: 1, multiplicities: 61, labels: 0">
<ellipse fill="#f7fcf5" stroke="black" cx="442.596" cy="-234" rx="41.6928" ry="18"/>
<text text-anchor="middle" x="442.596" y="-230.3" font-family="Times,serif" font-size="14.00">41 (1): 0</text>
</a>
</g>
</g>
<!-- 22&#45;&gt;41 -->
<g id="edge28" class="edge"><title>22&#45;&gt;41</title>
<path fill="none" stroke="black" d="M365.38,-290.155C379.412,-280.132 398.128,-266.763 413.619,-255.698"/>
<polygon fill="black" stroke="black" points="415.74,-258.484 421.843,-249.824 411.671,-252.788 415.74,-258.484"/>
</g>
<!-- 59 -->
<g id="node60" class="node"><title>59</title>
<g id="a_node60"><a xlink:title="59, diversity: 1, multiplicities: 19, labels: 0">
<ellipse fill="#f7fcf5" stroke="black" cx="593.596" cy="-234" rx="41.6928" ry="18"/>
<text text-anchor="middle" x="593.596" y="-230.3" font-family="Times,serif" font-size="14.00">59 (1): 0</text>
</a>
</g>
</g>
<!-- 22&#45;&gt;59 -->
<g id="edge24" class="edge"><title>22&#45;&gt;59</title>
<path fill="none" stroke="black" d="M376.06,-294.183C382.5,-292.061 389.25,-289.905 395.596,-288 447.753,-272.342 508.307,-256.465 548.58,-246.226"/>
<polygon fill="black" stroke="black" points="549.531,-249.596 558.365,-243.748 547.812,-242.81 549.531,-249.596"/>
</g>
<!-- 27 -->
<g id="node28" class="node"><title>27</title>
<g id="a_node28"><a xlink:title="27, diversity: 3, multiplicities: 1,1,1, labels: 0">
<ellipse fill="#f7fcf5" stroke="black" cx="1043.6" cy="-378" rx="41.6928" ry="18"/>
<text text-anchor="middle" x="1043.6" y="-374.3" font-family="Times,serif" font-size="14.00">27 (3): 0</text>
</a>
</g>
</g>
<!-- 24&#45;&gt;27 -->
<g id="edge23" class="edge"><title>24&#45;&gt;27</title>
<path fill="none" stroke="black" d="M1043.6,-431.697C1043.6,-423.983 1043.6,-414.712 1043.6,-406.112"/>
<polygon fill="black" stroke="black" points="1047.1,-406.104 1043.6,-396.104 1040.1,-406.104 1047.1,-406.104"/>
</g>
<!-- 25&#45;&gt;9 -->
<g id="edge60" class="edge"><title>25&#45;&gt;9</title>
<path fill="none" stroke="black" d="M216.267,-436.161C191.875,-424.701 156.02,-407.857 129.548,-395.42"/>
<polygon fill="black" stroke="black" points="130.797,-392.14 120.258,-391.056 127.821,-398.476 130.797,-392.14"/>
</g>
<!-- 25&#45;&gt;12 -->
<g id="edge10" class="edge"><title>25&#45;&gt;12</title>
<path fill="none" stroke="black" d="M243.596,-431.697C243.596,-423.983 243.596,-414.712 243.596,-406.112"/>
<polygon fill="black" stroke="black" points="247.096,-406.104 243.596,-396.104 240.096,-406.104 247.096,-406.104"/>
</g>
<!-- 26&#45;&gt;13 -->
<g id="edge16" class="edge"><title>26&#45;&gt;13</title>
<path fill="none" stroke="black" d="M269.177,-218.155C254.617,-208.064 235.165,-194.583 219.138,-183.474"/>
<polygon fill="black" stroke="black" points="220.851,-180.403 210.639,-177.584 216.864,-186.157 220.851,-180.403"/>
</g>
<!-- 26&#45;&gt;20 -->
<g id="edge51" class="edge"><title>26&#45;&gt;20</title>
<path fill="none" stroke="black" d="M290.596,-215.697C290.596,-207.983 290.596,-198.712 290.596,-190.112"/>
<polygon fill="black" stroke="black" points="294.096,-190.104 290.596,-180.104 287.096,-190.104 294.096,-190.104"/>
</g>
<!-- 27&#45;&gt;15 -->
<g id="edge6" class="edge"><title>27&#45;&gt;15</title>
<path fill="none" stroke="black" d="M1043.6,-359.697C1043.6,-351.983 1043.6,-342.712 1043.6,-334.112"/>
<polygon fill="black" stroke="black" points="1047.1,-334.104 1043.6,-324.104 1040.1,-334.104 1047.1,-334.104"/>
</g>
<!-- 28 -->
<g id="node29" class="node"><title>28</title>
<g id="a_node29"><a xlink:title="28, diversity: 3, multiplicities: 2,5,193, labels: 0">
<ellipse fill="#f7fcf5" stroke="black" cx="1237.6" cy="-378" rx="41.6928" ry="18"/>
<text text-anchor="middle" x="1237.6" y="-374.3" font-family="Times,serif" font-size="14.00">28 (3): 0</text>
</a>
</g>
</g>
<!-- 39 -->
<g id="node40" class="node"><title>39</title>
<g id="a_node40"><a xlink:title="39, diversity: 1, multiplicities: 1, labels: 0">
<ellipse fill="#f7fcf5" stroke="black" cx="1237.6" cy="-306" rx="41.6928" ry="18"/>
<text text-anchor="middle" x="1237.6" y="-302.3" font-family="Times,serif" font-size="14.00">39 (1): 0</text>
</a>
</g>
</g>
<!-- 28&#45;&gt;39 -->
<g id="edge33" class="edge"><title>28&#45;&gt;39</title>
<path fill="none" stroke="black" d="M1237.6,-359.697C1237.6,-351.983 1237.6,-342.712 1237.6,-334.112"/>
<polygon fill="black" stroke="black" points="1241.1,-334.104 1237.6,-324.104 1234.1,-334.104 1241.1,-334.104"/>
</g>
<!-- 40 -->
<g id="node41" class="node"><title>40</title>
<g id="a_node41"><a xlink:title="40, diversity: 1, multiplicities: 1, labels: 0">
<ellipse fill="#f7fcf5" stroke="black" cx="1338.6" cy="-306" rx="41.6928" ry="18"/>
<text text-anchor="middle" x="1338.6" y="-302.3" font-family="Times,serif" font-size="14.00">40 (1): 0</text>
</a>
</g>
</g>
<!-- 28&#45;&gt;40 -->
<g id="edge56" class="edge"><title>28&#45;&gt;40</title>
<path fill="none" stroke="black" d="M1259.02,-362.155C1273.58,-352.064 1293.03,-338.583 1309.05,-327.474"/>
<polygon fill="black" stroke="black" points="1311.33,-330.157 1317.55,-321.584 1307.34,-324.403 1311.33,-330.157"/>
</g>
<!-- 29 -->
<g id="node30" class="node"><title>29</title>
<g id="a_node30"><a xlink:title="29, diversity: 3, multiplicities: 2,3,217, labels: 0">
<ellipse fill="#f7fcf5" stroke="black" cx="1338.6" cy="-378" rx="41.6928" ry="18"/>
<text text-anchor="middle" x="1338.6" y="-374.3" font-family="Times,serif" font-size="14.00">29 (3): 0</text>
</a>
</g>
</g>
<!-- 30 -->
<g id="node31" class="node"><title>30</title>
<g id="a_node31"><a xlink:title="30, diversity: 1, multiplicities: 103, labels: 0">
<ellipse fill="#f7fcf5" stroke="black" cx="538.596" cy="-306" rx="41.6928" ry="18"/>
<text text-anchor="middle" x="538.596" y="-302.3" font-family="Times,serif" font-size="14.00">30 (1): 0</text>
</a>
</g>
</g>
<!-- 31&#45;&gt;6 -->
<g id="edge2" class="edge"><title>31&#45;&gt;6</title>
<path fill="none" stroke="black" d="M518.025,-434.155C503.948,-423.996 485.11,-410.401 469.658,-399.251"/>
<polygon fill="black" stroke="black" points="471.632,-396.359 461.474,-393.345 467.535,-402.035 471.632,-396.359"/>
</g>
<!-- 37 -->
<g id="node38" class="node"><title>37</title>
<g id="a_node38"><a xlink:title="37, diversity: 2, multiplicities: 1,2, labels: 0">
<ellipse fill="#f7fcf5" stroke="black" cx="538.596" cy="-378" rx="41.6928" ry="18"/>
<text text-anchor="middle" x="538.596" y="-374.3" font-family="Times,serif" font-size="14.00">37 (2): 0</text>
</a>
</g>
</g>
<!-- 31&#45;&gt;37 -->
<g id="edge37" class="edge"><title>31&#45;&gt;37</title>
<path fill="none" stroke="black" d="M538.596,-431.697C538.596,-423.983 538.596,-414.712 538.596,-406.112"/>
<polygon fill="black" stroke="black" points="542.096,-406.104 538.596,-396.104 535.096,-406.104 542.096,-406.104"/>
</g>
<!-- 38 -->
<g id="node39" class="node"><title>38</title>
<g id="a_node39"><a xlink:title="38, diversity: 1, multiplicities: 1, labels: 0">
<ellipse fill="#f7fcf5" stroke="black" cx="639.596" cy="-378" rx="41.6928" ry="18"/>
<text text-anchor="middle" x="639.596" y="-374.3" font-family="Times,serif" font-size="14.00">38 (1): 0</text>
</a>
</g>
</g>
<!-- 31&#45;&gt;38 -->
<g id="edge53" class="edge"><title>31&#45;&gt;38</title>
<path fill="none" stroke="black" d="M560.016,-434.155C574.575,-424.064 594.027,-410.583 610.055,-399.474"/>
<polygon fill="black" stroke="black" points="612.329,-402.157 618.554,-393.584 608.341,-396.403 612.329,-402.157"/>
</g>
<!-- 32 -->
<g id="node33" class="node"><title>32</title>
<g id="a_node33"><a xlink:title="32, diversity: 4, multiplicities: 1,1,27,31, labels: 0">
<ellipse fill="#f7fcf5" stroke="black" cx="1439.6" cy="-378" rx="41.6928" ry="18"/>
<text text-anchor="middle" x="1439.6" y="-374.3" font-family="Times,serif" font-size="14.00">32 (4): 0</text>
</a>
</g>
</g>
<!-- 33 -->
<g id="node34" class="node"><title>33</title>
<g id="a_node34"><a xlink:title="33, diversity: 1, multiplicities: 13, labels: 0">
<ellipse fill="#f7fcf5" stroke="black" cx="1439.6" cy="-306" rx="41.6928" ry="18"/>
<text text-anchor="middle" x="1439.6" y="-302.3" font-family="Times,serif" font-size="14.00">33 (1): 0</text>
</a>
</g>
</g>
<!-- 32&#45;&gt;33 -->
<g id="edge18" class="edge"><title>32&#45;&gt;33</title>
<path fill="none" stroke="black" d="M1439.6,-359.697C1439.6,-351.983 1439.6,-342.712 1439.6,-334.112"/>
<polygon fill="black" stroke="black" points="1443.1,-334.104 1439.6,-324.104 1436.1,-334.104 1443.1,-334.104"/>
</g>
<!-- 33&#45;&gt;4 -->
<g id="edge12" class="edge"><title>33&#45;&gt;4</title>
<path fill="none" stroke="black" d="M1439.6,-287.697C1439.6,-279.983 1439.6,-270.712 1439.6,-262.112"/>
<polygon fill="black" stroke="black" points="1443.1,-262.104 1439.6,-252.104 1436.1,-262.104 1443.1,-262.104"/>
</g>
<!-- 34 -->
<g id="node35" class="node"><title>34</title>
<g id="a_node35"><a xlink:title="34, diversity: 1, multiplicities: 15, labels: 0">
<ellipse fill="#f7fcf5" stroke="black" cx="1338.6" cy="-234" rx="41.6928" ry="18"/>
<text text-anchor="middle" x="1338.6" y="-230.3" font-family="Times,serif" font-size="14.00">34 (1): 0</text>
</a>
</g>
</g>
<!-- 35&#45;&gt;8 -->
<g id="edge11" class="edge"><title>35&#45;&gt;8</title>
<path fill="none" stroke="black" d="M1178.75,-432.411C1172.64,-423.868 1165.08,-413.278 1158.3,-403.787"/>
<polygon fill="black" stroke="black" points="1161.02,-401.573 1152.36,-395.47 1155.32,-405.642 1161.02,-401.573"/>
</g>
<!-- 35&#45;&gt;28 -->
<g id="edge30" class="edge"><title>35&#45;&gt;28</title>
<path fill="none" stroke="black" d="M1201.73,-432.411C1207.47,-423.868 1214.58,-413.278 1220.95,-403.787"/>
<polygon fill="black" stroke="black" points="1223.87,-405.723 1226.54,-395.47 1218.06,-401.821 1223.87,-405.723"/>
</g>
<!-- 35&#45;&gt;29 -->
<g id="edge13" class="edge"><title>35&#45;&gt;29</title>
<path fill="none" stroke="black" d="M1217.74,-436.161C1241.53,-424.912 1276.28,-408.475 1302.42,-396.111"/>
<polygon fill="black" stroke="black" points="1304.08,-399.197 1311.62,-391.758 1301.09,-392.869 1304.08,-399.197"/>
</g>
<!-- 35&#45;&gt;32 -->
<g id="edge40" class="edge"><title>35&#45;&gt;32</title>
<path fill="none" stroke="black" d="M1221.66,-437.95C1227.9,-435.87 1234.43,-433.788 1240.6,-432 1306.03,-413.015 1324.17,-414.985 1389.6,-396 1392.58,-395.134 1395.65,-394.199 1398.74,-393.228"/>
<polygon fill="black" stroke="black" points="1400.1,-396.466 1408.53,-390.05 1397.94,-389.808 1400.1,-396.466"/>
</g>
<!-- 36 -->
<g id="node37" class="node"><title>36</title>
<g id="a_node37"><a xlink:title="36, diversity: 1, multiplicities: 18, labels: 0">
<ellipse fill="#f7fcf5" stroke="black" cx="1237.6" cy="-234" rx="41.6928" ry="18"/>
<text text-anchor="middle" x="1237.6" y="-230.3" font-family="Times,serif" font-size="14.00">36 (1): 0</text>
</a>
</g>
</g>
<!-- 37&#45;&gt;30 -->
<g id="edge36" class="edge"><title>37&#45;&gt;30</title>
<path fill="none" stroke="black" d="M538.596,-359.697C538.596,-351.983 538.596,-342.712 538.596,-334.112"/>
<polygon fill="black" stroke="black" points="542.096,-334.104 538.596,-324.104 535.096,-334.104 542.096,-334.104"/>
</g>
<!-- 57 -->
<g id="node58" class="node"><title>57</title>
<g id="a_node58"><a xlink:title="57, diversity: 1, multiplicities: 18, labels: 0">
<ellipse fill="#f7fcf5" stroke="black" cx="639.596" cy="-306" rx="41.6928" ry="18"/>
<text text-anchor="middle" x="639.596" y="-302.3" font-family="Times,serif" font-size="14.00">57 (1): 0</text>
</a>
</g>
</g>
<!-- 38&#45;&gt;57 -->
<g id="edge57" class="edge"><title>38&#45;&gt;57</title>
<path fill="none" stroke="black" d="M639.596,-359.697C639.596,-351.983 639.596,-342.712 639.596,-334.112"/>
<polygon fill="black" stroke="black" points="643.096,-334.104 639.596,-324.104 636.096,-334.104 643.096,-334.104"/>
</g>
<!-- 39&#45;&gt;36 -->
<g id="edge19" class="edge"><title>39&#45;&gt;36</title>
<path fill="none" stroke="black" d="M1237.6,-287.697C1237.6,-279.983 1237.6,-270.712 1237.6,-262.112"/>
<polygon fill="black" stroke="black" points="1241.1,-262.104 1237.6,-252.104 1234.1,-262.104 1241.1,-262.104"/>
</g>
<!-- 40&#45;&gt;34 -->
<g id="edge39" class="edge"><title>40&#45;&gt;34</title>
<path fill="none" stroke="black" d="M1338.6,-287.697C1338.6,-279.983 1338.6,-270.712 1338.6,-262.112"/>
<polygon fill="black" stroke="black" points="1342.1,-262.104 1338.6,-252.104 1335.1,-262.104 1342.1,-262.104"/>
</g>
<!-- 42 -->
<g id="node43" class="node"><title>42</title>
<g id="a_node43"><a xlink:title="42, diversity: 1, multiplicities: 54, labels: 0">
<ellipse fill="#f7fcf5" stroke="black" cx="391.596" cy="-162" rx="41.6928" ry="18"/>
<text text-anchor="middle" x="391.596" y="-158.3" font-family="Times,serif" font-size="14.00">42 (1): 0</text>
</a>
</g>
</g>
<!-- 41&#45;&gt;42 -->
<g id="edge44" class="edge"><title>41&#45;&gt;42</title>
<path fill="none" stroke="black" d="M430.51,-216.411C424.286,-207.868 416.571,-197.278 409.656,-187.787"/>
<polygon fill="black" stroke="black" points="412.313,-185.491 403.596,-179.47 406.656,-189.613 412.313,-185.491"/>
</g>
<!-- 54 -->
<g id="node55" class="node"><title>54</title>
<g id="a_node55"><a xlink:title="54, diversity: 1, multiplicities: 10, labels: 0">
<ellipse fill="#f7fcf5" stroke="black" cx="492.596" cy="-162" rx="41.6928" ry="18"/>
<text text-anchor="middle" x="492.596" y="-158.3" font-family="Times,serif" font-size="14.00">54 (1): 0</text>
</a>
</g>
</g>
<!-- 41&#45;&gt;54 -->
<g id="edge8" class="edge"><title>41&#45;&gt;54</title>
<path fill="none" stroke="black" d="M454.446,-216.411C460.548,-207.868 468.112,-197.278 474.891,-187.787"/>
<polygon fill="black" stroke="black" points="477.868,-189.642 480.832,-179.47 472.172,-185.573 477.868,-189.642"/>
</g>
<!-- 56 -->
<g id="node57" class="node"><title>56</title>
<g id="a_node57"><a xlink:title="56, diversity: 1, multiplicities: 15, labels: 0">
<ellipse fill="#f7fcf5" stroke="black" cx="593.596" cy="-162" rx="41.6928" ry="18"/>
<text text-anchor="middle" x="593.596" y="-158.3" font-family="Times,serif" font-size="14.00">56 (1): 0</text>
</a>
</g>
</g>
<!-- 41&#45;&gt;56 -->
<g id="edge58" class="edge"><title>41&#45;&gt;56</title>
<path fill="none" stroke="black" d="M469.941,-220.324C494.345,-209.01 530.269,-192.357 557.116,-179.911"/>
<polygon fill="black" stroke="black" points="558.6,-183.082 566.2,-175.7 555.655,-176.731 558.6,-183.082"/>
</g>
<!-- 43 -->
<g id="node44" class="node"><title>43</title>
<g id="a_node44"><a xlink:title="43, diversity: 1, multiplicities: 5, labels: 0">
<ellipse fill="#f7fcf5" stroke="black" cx="290.596" cy="-90" rx="41.6928" ry="18"/>
<text text-anchor="middle" x="290.596" y="-86.3" font-family="Times,serif" font-size="14.00">43 (1): 0</text>
</a>
</g>
</g>
<!-- 42&#45;&gt;43 -->
<g id="edge4" class="edge"><title>42&#45;&gt;43</title>
<path fill="none" stroke="black" d="M370.177,-146.155C355.617,-136.064 336.165,-122.583 320.138,-111.474"/>
<polygon fill="black" stroke="black" points="321.851,-108.403 311.639,-105.584 317.864,-114.157 321.851,-108.403"/>
</g>
<!-- 44 -->
<g id="node45" class="node"><title>44</title>
<g id="a_node45"><a xlink:title="44, diversity: 1, multiplicities: 14, labels: 0">
<ellipse fill="#f7fcf5" stroke="black" cx="391.596" cy="-90" rx="41.6928" ry="18"/>
<text text-anchor="middle" x="391.596" y="-86.3" font-family="Times,serif" font-size="14.00">44 (1): 0</text>
</a>
</g>
</g>
<!-- 42&#45;&gt;44 -->
<g id="edge25" class="edge"><title>42&#45;&gt;44</title>
<path fill="none" stroke="black" d="M391.596,-143.697C391.596,-135.983 391.596,-126.712 391.596,-118.112"/>
<polygon fill="black" stroke="black" points="395.096,-118.104 391.596,-108.104 388.096,-118.104 395.096,-118.104"/>
</g>
<!-- 60 -->
<g id="node61" class="node"><title>60</title>
<g id="a_node61"><a xlink:title="60, diversity: 1, multiplicities: 5, labels: 0">
<ellipse fill="#f7fcf5" stroke="black" cx="189.596" cy="-18" rx="41.6928" ry="18"/>
<text text-anchor="middle" x="189.596" y="-14.3" font-family="Times,serif" font-size="14.00">60 (1): 0</text>
</a>
</g>
</g>
<!-- 48&#45;&gt;60 -->
<g id="edge43" class="edge"><title>48&#45;&gt;60</title>
<path fill="none" stroke="black" d="M189.596,-71.6966C189.596,-63.9827 189.596,-54.7125 189.596,-46.1124"/>
<polygon fill="black" stroke="black" points="193.096,-46.1043 189.596,-36.1043 186.096,-46.1044 193.096,-46.1043"/>
</g>
<!-- 52 -->
<g id="node53" class="node"><title>52</title>
<g id="a_node53"><a xlink:title="52, diversity: 1, multiplicities: 1, labels: 0">
<ellipse fill="#f7fcf5" stroke="black" cx="942.596" cy="-306" rx="41.6928" ry="18"/>
<text text-anchor="middle" x="942.596" y="-302.3" font-family="Times,serif" font-size="14.00">52 (1): 0</text>
</a>
</g>
</g>
<!-- 50&#45;&gt;52 -->
<g id="edge3" class="edge"><title>50&#45;&gt;52</title>
<path fill="none" stroke="black" d="M942.596,-359.697C942.596,-351.983 942.596,-342.712 942.596,-334.112"/>
<polygon fill="black" stroke="black" points="946.096,-334.104 942.596,-324.104 939.096,-334.104 946.096,-334.104"/>
</g>
<!-- 51 -->
<g id="node52" class="node"><title>51</title>
<g id="a_node52"><a xlink:title="51, diversity: 2, multiplicities: 1,8, labels: 0">
<ellipse fill="#f7fcf5" stroke="black" cx="942.596" cy="-234" rx="41.6928" ry="18"/>
<text text-anchor="middle" x="942.596" y="-230.3" font-family="Times,serif" font-size="14.00">51 (2): 0</text>
</a>
</g>
</g>
<!-- 52&#45;&gt;51 -->
<g id="edge5" class="edge"><title>52&#45;&gt;51</title>
<path fill="none" stroke="black" d="M942.596,-287.697C942.596,-279.983 942.596,-270.712 942.596,-262.112"/>
<polygon fill="black" stroke="black" points="946.096,-262.104 942.596,-252.104 939.096,-262.104 946.096,-262.104"/>
</g>
<!-- 53 -->
<g id="node54" class="node"><title>53</title>
<g id="a_node54"><a xlink:title="53, diversity: 1, multiplicities: 51, labels: 0">
<ellipse fill="#f7fcf5" stroke="black" cx="694.596" cy="-90" rx="41.6928" ry="18"/>
<text text-anchor="middle" x="694.596" y="-86.3" font-family="Times,serif" font-size="14.00">53 (1): 0</text>
</a>
</g>
</g>
<!-- 55 -->
<g id="node56" class="node"><title>55</title>
<g id="a_node56"><a xlink:title="55, diversity: 1, multiplicities: 11, labels: 0">
<ellipse fill="#f7fcf5" stroke="black" cx="492.596" cy="-90" rx="41.6928" ry="18"/>
<text text-anchor="middle" x="492.596" y="-86.3" font-family="Times,serif" font-size="14.00">55 (1): 0</text>
</a>
</g>
</g>
<!-- 54&#45;&gt;55 -->
<g id="edge14" class="edge"><title>54&#45;&gt;55</title>
<path fill="none" stroke="black" d="M492.596,-143.697C492.596,-135.983 492.596,-126.712 492.596,-118.112"/>
<polygon fill="black" stroke="black" points="496.096,-118.104 492.596,-108.104 489.096,-118.104 496.096,-118.104"/>
</g>
<!-- 58 -->
<g id="node59" class="node"><title>58</title>
<g id="a_node59"><a xlink:title="58, diversity: 1, multiplicities: 10, labels: 0">
<ellipse fill="#f7fcf5" stroke="black" cx="593.596" cy="-90" rx="41.6928" ry="18"/>
<text text-anchor="middle" x="593.596" y="-86.3" font-family="Times,serif" font-size="14.00">58 (1): 0</text>
</a>
</g>
</g>
<!-- 54&#45;&gt;58 -->
<g id="edge46" class="edge"><title>54&#45;&gt;58</title>
<path fill="none" stroke="black" d="M514.016,-146.155C528.575,-136.064 548.027,-122.583 564.055,-111.474"/>
<polygon fill="black" stroke="black" points="566.329,-114.157 572.554,-105.584 562.341,-108.403 566.329,-114.157"/>
</g>
<!-- 61 -->
<g id="node62" class="node"><title>61</title>
<g id="a_node62"><a xlink:title="61, diversity: 1, multiplicities: 1, labels: 0">
<ellipse fill="#f7fcf5" stroke="black" cx="694.596" cy="-162" rx="41.6928" ry="18"/>
<text text-anchor="middle" x="694.596" y="-158.3" font-family="Times,serif" font-size="14.00">61 (1): 0</text>
</a>
</g>
</g>
<!-- 59&#45;&gt;61 -->
<g id="edge34" class="edge"><title>59&#45;&gt;61</title>
<path fill="none" stroke="black" d="M615.016,-218.155C629.575,-208.064 649.027,-194.583 665.055,-183.474"/>
<polygon fill="black" stroke="black" points="667.329,-186.157 673.554,-177.584 663.341,-180.403 667.329,-186.157"/>
</g>
<!-- 61&#45;&gt;53 -->
<g id="edge9" class="edge"><title>61&#45;&gt;53</title>
<path fill="none" stroke="black" d="M694.596,-143.697C694.596,-135.983 694.596,-126.712 694.596,-118.112"/>
<polygon fill="black" stroke="black" points="698.096,-118.104 694.596,-108.104 691.096,-118.104 698.096,-118.104"/>
</g>
</g>
</svg>
