<?xml version="1.0" encoding="UTF-8" standalone="no"?>
<!DOCTYPE svg PUBLIC "-//W3C//DTD SVG 1.1//EN"
 "http://www.w3.org/Graphics/SVG/1.1/DTD/svg11.dtd">
<!-- Generated by graphviz version 2.40.1 (20161225.0304)
 -->
<!-- Title: %3 Pages: 1 -->
<svg width="962pt" height="1268pt"
 viewBox="0.00 0.00 962.00 1268.00" xmlns="http://www.w3.org/2000/svg" xmlns:xlink="http://www.w3.org/1999/xlink">
<g id="graph0" class="graph" transform="scale(1 1) rotate(0) translate(4 1264)">
<title>%3</title>
<polygon fill="#ffffff" stroke="transparent" points="-4,4 -4,-1264 958,-1264 958,4 -4,4"/>
<!-- 0 -->
<g id="node1" class="node">
<title>0</title>
<g id="a_node1"><a xlink:title="T">
<ellipse fill="#ff3f00" stroke="#000000" stroke-width="0" cx="747" cy="-306" rx="18" ry="18"/>
</a>
</g>
</g>
<!-- 1 -->
<g id="node2" class="node">
<title>1</title>
<g id="a_node2"><a xlink:title="T">
<ellipse fill="#ff3f00" stroke="#000000" stroke-width="0" cx="774" cy="-378" rx="18" ry="18"/>
</a>
</g>
</g>
<!-- 1&#45;&gt;0 -->
<g id="edge42" class="edge">
<title>1&#45;&gt;0</title>
<path fill="none" stroke="#000000" d="M767.6014,-360.937C764.407,-352.4186 760.471,-341.9227 756.8982,-332.3952"/>
<polygon fill="#000000" stroke="#000000" points="760.1411,-331.0749 753.3527,-322.9405 753.5868,-333.5328 760.1411,-331.0749"/>
</g>
<!-- 2 -->
<g id="node3" class="node">
<title>2</title>
<g id="a_node3"><a xlink:title="T">
<ellipse fill="#ff3f00" stroke="#000000" stroke-width="0" cx="801" cy="-306" rx="18" ry="18"/>
</a>
</g>
</g>
<!-- 1&#45;&gt;2 -->
<g id="edge15" class="edge">
<title>1&#45;&gt;2</title>
<path fill="none" stroke="#000000" d="M780.3986,-360.937C783.593,-352.4186 787.529,-341.9227 791.1018,-332.3952"/>
<polygon fill="#000000" stroke="#000000" points="794.4132,-333.5328 794.6473,-322.9405 787.8589,-331.0749 794.4132,-333.5328"/>
</g>
<!-- 3 -->
<g id="node4" class="node">
<title>3</title>
<g id="a_node4"><a xlink:title="T">
<ellipse fill="#ff3f00" stroke="#000000" stroke-width="0" cx="855" cy="-306" rx="18" ry="18"/>
</a>
</g>
</g>
<!-- 1&#45;&gt;3 -->
<g id="edge2" class="edge">
<title>1&#45;&gt;3</title>
<path fill="none" stroke="#000000" d="M787.7405,-365.7862C800.3843,-354.5473 819.3262,-337.7101 833.8897,-324.7647"/>
<polygon fill="#000000" stroke="#000000" points="836.3135,-327.2931 841.4624,-318.0334 831.663,-322.0612 836.3135,-327.2931"/>
</g>
<!-- 4 -->
<g id="node5" class="node">
<title>4</title>
<g id="a_node5"><a xlink:title="T">
<ellipse fill="#ff3f00" stroke="#000000" stroke-width="0" cx="288" cy="-378" rx="18" ry="18"/>
</a>
</g>
</g>
<!-- 5 -->
<g id="node6" class="node">
<title>5</title>
<g id="a_node6"><a xlink:title="T">
<ellipse fill="#ff3f00" stroke="#000000" stroke-width="0" cx="99" cy="-306" rx="18" ry="18"/>
</a>
</g>
</g>
<!-- 4&#45;&gt;5 -->
<g id="edge32" class="edge">
<title>4&#45;&gt;5</title>
<path fill="none" stroke="#000000" d="M270.8942,-371.4835C237.7922,-358.8732 164.7756,-331.0574 125.4004,-316.0573"/>
<polygon fill="#000000" stroke="#000000" points="126.5219,-312.7392 115.931,-312.4499 124.0299,-319.2806 126.5219,-312.7392"/>
</g>
<!-- 7 -->
<g id="node8" class="node">
<title>7</title>
<g id="a_node8"><a xlink:title="T">
<ellipse fill="#ff3f00" stroke="#000000" stroke-width="0" cx="180" cy="-306" rx="18" ry="18"/>
</a>
</g>
</g>
<!-- 4&#45;&gt;7 -->
<g id="edge1" class="edge">
<title>4&#45;&gt;7</title>
<path fill="none" stroke="#000000" d="M272.9831,-367.9887C255.03,-356.02 224.7675,-335.845 203.6604,-321.7736"/>
<polygon fill="#000000" stroke="#000000" points="205.4995,-318.7932 195.2376,-316.1584 201.6166,-324.6176 205.4995,-318.7932"/>
</g>
<!-- 8 -->
<g id="node9" class="node">
<title>8</title>
<g id="a_node9"><a xlink:title="T">
<ellipse fill="#ff3f00" stroke="#000000" stroke-width="0" cx="234" cy="-306" rx="18" ry="18"/>
</a>
</g>
</g>
<!-- 4&#45;&gt;8 -->
<g id="edge4" class="edge">
<title>4&#45;&gt;8</title>
<path fill="none" stroke="#000000" d="M277.0723,-363.4297C269.6066,-353.4754 259.5632,-340.0842 251.0526,-328.7368"/>
<polygon fill="#000000" stroke="#000000" points="253.7115,-326.4486 244.9115,-320.5486 248.1115,-330.6486 253.7115,-326.4486"/>
</g>
<!-- 11 -->
<g id="node12" class="node">
<title>11</title>
<g id="a_node12"><a xlink:title="T">
<ellipse fill="#ff3f00" stroke="#000000" stroke-width="0" cx="288" cy="-306" rx="18" ry="18"/>
</a>
</g>
</g>
<!-- 4&#45;&gt;11 -->
<g id="edge44" class="edge">
<title>4&#45;&gt;11</title>
<path fill="none" stroke="#000000" d="M288,-359.8314C288,-352.131 288,-342.9743 288,-334.4166"/>
<polygon fill="#000000" stroke="#000000" points="291.5001,-334.4132 288,-324.4133 284.5001,-334.4133 291.5001,-334.4132"/>
</g>
<!-- 13 -->
<g id="node14" class="node">
<title>13</title>
<g id="a_node14"><a xlink:title="T">
<ellipse fill="#ff3f00" stroke="#000000" stroke-width="0" cx="342" cy="-306" rx="18" ry="18"/>
</a>
</g>
</g>
<!-- 4&#45;&gt;13 -->
<g id="edge16" class="edge">
<title>4&#45;&gt;13</title>
<path fill="none" stroke="#000000" d="M298.9277,-363.4297C306.3934,-353.4754 316.4368,-340.0842 324.9474,-328.7368"/>
<polygon fill="#000000" stroke="#000000" points="327.8885,-330.6486 331.0885,-320.5486 322.2885,-326.4486 327.8885,-330.6486"/>
</g>
<!-- 18 -->
<g id="node19" class="node">
<title>18</title>
<g id="a_node19"><a xlink:title="T">
<ellipse fill="#ff3f00" stroke="#000000" stroke-width="0" cx="396" cy="-306" rx="18" ry="18"/>
</a>
</g>
</g>
<!-- 4&#45;&gt;18 -->
<g id="edge5" class="edge">
<title>4&#45;&gt;18</title>
<path fill="none" stroke="#000000" d="M303.0169,-367.9887C320.97,-356.02 351.2325,-335.845 372.3396,-321.7736"/>
<polygon fill="#000000" stroke="#000000" points="374.3834,-324.6176 380.7624,-316.1584 370.5005,-318.7932 374.3834,-324.6176"/>
</g>
<!-- 43 -->
<g id="node44" class="node">
<title>43</title>
<g id="a_node44"><a xlink:title="T">
<ellipse fill="#ff3f00" stroke="#000000" stroke-width="0" cx="450" cy="-306" rx="18" ry="18"/>
</a>
</g>
</g>
<!-- 4&#45;&gt;43 -->
<g id="edge57" class="edge">
<title>4&#45;&gt;43</title>
<path fill="none" stroke="#000000" d="M302.7126,-367.1702C306.5886,-364.6058 310.8501,-362.0296 315,-360 360.4516,-337.7704 377.5484,-346.2296 423,-324 424.1672,-323.4292 425.3431,-322.8151 426.5169,-322.1702"/>
<polygon fill="#000000" stroke="#000000" points="428.5665,-325.0201 435.2874,-316.8298 424.9259,-319.0412 428.5665,-325.0201"/>
</g>
<!-- 10 -->
<g id="node11" class="node">
<title>10</title>
<g id="a_node11"><a xlink:title="T">
<ellipse fill="#ff3f00" stroke="#000000" stroke-width="0" cx="18" cy="-234" rx="18" ry="18"/>
</a>
</g>
</g>
<!-- 5&#45;&gt;10 -->
<g id="edge48" class="edge">
<title>5&#45;&gt;10</title>
<path fill="none" stroke="#000000" d="M85.2595,-293.7862C72.6157,-282.5473 53.6738,-265.7101 39.1103,-252.7647"/>
<polygon fill="#000000" stroke="#000000" points="41.337,-250.0612 31.5376,-246.0334 36.6865,-255.2931 41.337,-250.0612"/>
</g>
<!-- 52 -->
<g id="node53" class="node">
<title>52</title>
<g id="a_node53"><a xlink:title="T">
<ellipse fill="#ff3f00" stroke="#000000" stroke-width="0" cx="72" cy="-234" rx="18" ry="18"/>
</a>
</g>
</g>
<!-- 5&#45;&gt;52 -->
<g id="edge37" class="edge">
<title>5&#45;&gt;52</title>
<path fill="none" stroke="#000000" d="M92.6014,-288.937C89.407,-280.4186 85.471,-269.9227 81.8982,-260.3952"/>
<polygon fill="#000000" stroke="#000000" points="85.1411,-259.0749 78.3527,-250.9405 78.5868,-261.5328 85.1411,-259.0749"/>
</g>
<!-- 61 -->
<g id="node62" class="node">
<title>61</title>
<g id="a_node62"><a xlink:title="T">
<ellipse fill="#ff3f00" stroke="#000000" stroke-width="0" cx="126" cy="-234" rx="18" ry="18"/>
</a>
</g>
</g>
<!-- 5&#45;&gt;61 -->
<g id="edge12" class="edge">
<title>5&#45;&gt;61</title>
<path fill="none" stroke="#000000" d="M105.3986,-288.937C108.593,-280.4186 112.529,-269.9227 116.1018,-260.3952"/>
<polygon fill="#000000" stroke="#000000" points="119.4132,-261.5328 119.6473,-250.9405 112.8589,-259.0749 119.4132,-261.5328"/>
</g>
<!-- 6 -->
<g id="node7" class="node">
<title>6</title>
<g id="a_node7"><a xlink:title="T">
<ellipse fill="#ff3f00" stroke="#000000" stroke-width="0" cx="342" cy="-450" rx="18" ry="18"/>
</a>
</g>
</g>
<!-- 6&#45;&gt;4 -->
<g id="edge28" class="edge">
<title>6&#45;&gt;4</title>
<path fill="none" stroke="#000000" d="M331.0723,-435.4297C323.6066,-425.4754 313.5632,-412.0842 305.0526,-400.7368"/>
<polygon fill="#000000" stroke="#000000" points="307.7115,-398.4486 298.9115,-392.5486 302.1115,-402.6486 307.7115,-398.4486"/>
</g>
<!-- 15 -->
<g id="node16" class="node">
<title>15</title>
<g id="a_node16"><a xlink:title="T">
<ellipse fill="#ff3f00" stroke="#000000" stroke-width="0" cx="342" cy="-378" rx="18" ry="18"/>
</a>
</g>
</g>
<!-- 6&#45;&gt;15 -->
<g id="edge26" class="edge">
<title>6&#45;&gt;15</title>
<path fill="none" stroke="#000000" d="M342,-431.8314C342,-424.131 342,-414.9743 342,-406.4166"/>
<polygon fill="#000000" stroke="#000000" points="345.5001,-406.4132 342,-396.4133 338.5001,-406.4133 345.5001,-406.4132"/>
</g>
<!-- 9 -->
<g id="node10" class="node">
<title>9</title>
<g id="a_node10"><a xlink:title="T">
<ellipse fill="#ff3f00" stroke="#000000" stroke-width="0" cx="180" cy="-234" rx="18" ry="18"/>
</a>
</g>
</g>
<!-- 7&#45;&gt;9 -->
<g id="edge58" class="edge">
<title>7&#45;&gt;9</title>
<path fill="none" stroke="#000000" d="M180,-287.8314C180,-280.131 180,-270.9743 180,-262.4166"/>
<polygon fill="#000000" stroke="#000000" points="183.5001,-262.4132 180,-252.4133 176.5001,-262.4133 183.5001,-262.4132"/>
</g>
<!-- 16 -->
<g id="node17" class="node">
<title>16</title>
<g id="a_node17"><a xlink:title="T">
<ellipse fill="#ff3f00" stroke="#000000" stroke-width="0" cx="234" cy="-234" rx="18" ry="18"/>
</a>
</g>
</g>
<!-- 8&#45;&gt;16 -->
<g id="edge21" class="edge">
<title>8&#45;&gt;16</title>
<path fill="none" stroke="#000000" d="M234,-287.8314C234,-280.131 234,-270.9743 234,-262.4166"/>
<polygon fill="#000000" stroke="#000000" points="237.5001,-262.4132 234,-252.4133 230.5001,-262.4133 237.5001,-262.4132"/>
</g>
<!-- 17 -->
<g id="node18" class="node">
<title>17</title>
<g id="a_node18"><a xlink:title="T">
<ellipse fill="#ff3f00" stroke="#000000" stroke-width="0" cx="288" cy="-234" rx="18" ry="18"/>
</a>
</g>
</g>
<!-- 11&#45;&gt;17 -->
<g id="edge47" class="edge">
<title>11&#45;&gt;17</title>
<path fill="none" stroke="#000000" d="M288,-287.8314C288,-280.131 288,-270.9743 288,-262.4166"/>
<polygon fill="#000000" stroke="#000000" points="291.5001,-262.4132 288,-252.4133 284.5001,-262.4133 291.5001,-262.4132"/>
</g>
<!-- 12 -->
<g id="node13" class="node">
<title>12</title>
<g id="a_node13"><a xlink:title="T">
<ellipse fill="#ff3f00" stroke="#000000" stroke-width="0" cx="207" cy="-162" rx="18" ry="18"/>
</a>
</g>
</g>
<!-- 14 -->
<g id="node15" class="node">
<title>14</title>
<g id="a_node15"><a xlink:title="T">
<ellipse fill="#ff3f00" stroke="#000000" stroke-width="0" cx="342" cy="-234" rx="18" ry="18"/>
</a>
</g>
</g>
<!-- 13&#45;&gt;14 -->
<g id="edge55" class="edge">
<title>13&#45;&gt;14</title>
<path fill="none" stroke="#000000" d="M342,-287.8314C342,-280.131 342,-270.9743 342,-262.4166"/>
<polygon fill="#000000" stroke="#000000" points="345.5001,-262.4132 342,-252.4133 338.5001,-262.4133 345.5001,-262.4132"/>
</g>
<!-- 16&#45;&gt;12 -->
<g id="edge25" class="edge">
<title>16&#45;&gt;12</title>
<path fill="none" stroke="#000000" d="M227.6014,-216.937C224.407,-208.4186 220.471,-197.9227 216.8982,-188.3952"/>
<polygon fill="#000000" stroke="#000000" points="220.1411,-187.0749 213.3527,-178.9405 213.5868,-189.5328 220.1411,-187.0749"/>
</g>
<!-- 60 -->
<g id="node61" class="node">
<title>60</title>
<g id="a_node61"><a xlink:title="T">
<ellipse fill="#ff3f00" stroke="#000000" stroke-width="0" cx="261" cy="-162" rx="18" ry="18"/>
</a>
</g>
</g>
<!-- 16&#45;&gt;60 -->
<g id="edge54" class="edge">
<title>16&#45;&gt;60</title>
<path fill="none" stroke="#000000" d="M240.3986,-216.937C243.593,-208.4186 247.529,-197.9227 251.1018,-188.3952"/>
<polygon fill="#000000" stroke="#000000" points="254.4132,-189.5328 254.6473,-178.9405 247.8589,-187.0749 254.4132,-189.5328"/>
</g>
<!-- 19 -->
<g id="node20" class="node">
<title>19</title>
<g id="a_node20"><a xlink:title="T">
<ellipse fill="#ff3f00" stroke="#000000" stroke-width="0" cx="396" cy="-378" rx="18" ry="18"/>
</a>
</g>
</g>
<!-- 20 -->
<g id="node21" class="node">
<title>20</title>
<g id="a_node21"><a xlink:title="T">
<ellipse fill="#ff3f00" stroke="#000000" stroke-width="0" cx="450" cy="-450" rx="18" ry="18"/>
</a>
</g>
</g>
<!-- 20&#45;&gt;19 -->
<g id="edge39" class="edge">
<title>20&#45;&gt;19</title>
<path fill="none" stroke="#000000" d="M439.0723,-435.4297C431.6066,-425.4754 421.5632,-412.0842 413.0526,-400.7368"/>
<polygon fill="#000000" stroke="#000000" points="415.7115,-398.4486 406.9115,-392.5486 410.1115,-402.6486 415.7115,-398.4486"/>
</g>
<!-- 29 -->
<g id="node30" class="node">
<title>29</title>
<g id="a_node30"><a xlink:title="T">
<ellipse fill="#ff3f00" stroke="#000000" stroke-width="0" cx="450" cy="-378" rx="18" ry="18"/>
</a>
</g>
</g>
<!-- 20&#45;&gt;29 -->
<g id="edge7" class="edge">
<title>20&#45;&gt;29</title>
<path fill="none" stroke="#000000" d="M450,-431.8314C450,-424.131 450,-414.9743 450,-406.4166"/>
<polygon fill="#000000" stroke="#000000" points="453.5001,-406.4132 450,-396.4133 446.5001,-406.4133 453.5001,-406.4132"/>
</g>
<!-- 48 -->
<g id="node49" class="node">
<title>48</title>
<g id="a_node49"><a xlink:title="T">
<ellipse fill="#ff3f00" stroke="#000000" stroke-width="0" cx="504" cy="-378" rx="18" ry="18"/>
</a>
</g>
</g>
<!-- 20&#45;&gt;48 -->
<g id="edge14" class="edge">
<title>20&#45;&gt;48</title>
<path fill="none" stroke="#000000" d="M460.9277,-435.4297C468.3934,-425.4754 478.4368,-412.0842 486.9474,-400.7368"/>
<polygon fill="#000000" stroke="#000000" points="489.8885,-402.6486 493.0885,-392.5486 484.2885,-398.4486 489.8885,-402.6486"/>
</g>
<!-- 21 -->
<g id="node22" class="node">
<title>21</title>
<g id="a_node22"><a xlink:title="T">
<ellipse fill="#ff3f00" stroke="#000000" stroke-width="0" cx="639" cy="-522" rx="18" ry="18"/>
</a>
</g>
</g>
<!-- 21&#45;&gt;6 -->
<g id="edge11" class="edge">
<title>21&#45;&gt;6</title>
<path fill="none" stroke="#000000" d="M621.3107,-517.7117C571.4785,-505.6311 429.6611,-471.2512 369.5104,-456.6692"/>
<polygon fill="#000000" stroke="#000000" points="370.1397,-453.2204 359.5966,-454.2658 368.4905,-460.0234 370.1397,-453.2204"/>
</g>
<!-- 21&#45;&gt;20 -->
<g id="edge17" class="edge">
<title>21&#45;&gt;20</title>
<path fill="none" stroke="#000000" d="M621.3796,-517.7771C590.9662,-510.1314 527.0677,-492.4873 477,-468 475.8328,-467.4292 474.6569,-466.8151 473.4831,-466.1702"/>
<polygon fill="#000000" stroke="#000000" points="475.0741,-463.0412 464.7126,-460.8298 471.4335,-469.0201 475.0741,-463.0412"/>
</g>
<!-- 22 -->
<g id="node23" class="node">
<title>22</title>
<g id="a_node23"><a xlink:title="R">
<ellipse fill="#ffa300" stroke="#000000" stroke-width="0" cx="504" cy="-450" rx="18" ry="18"/>
</a>
</g>
</g>
<!-- 21&#45;&gt;22 -->
<g id="edge51" class="edge">
<title>21&#45;&gt;22</title>
<path fill="none" stroke="#000000" d="M622.5668,-514.5634C601.104,-504.6754 562.5483,-486.3082 531,-468 529.8763,-467.3479 528.7358,-466.6671 527.5909,-465.9683"/>
<polygon fill="#000000" stroke="#000000" points="529.2372,-462.8666 518.9265,-460.4291 525.4667,-468.7644 529.2372,-462.8666"/>
</g>
<!-- 23 -->
<g id="node24" class="node">
<title>23</title>
<g id="a_node24"><a xlink:title="T">
<ellipse fill="#ff3f00" stroke="#000000" stroke-width="0" cx="558" cy="-450" rx="18" ry="18"/>
</a>
</g>
</g>
<!-- 21&#45;&gt;23 -->
<g id="edge33" class="edge">
<title>21&#45;&gt;23</title>
<path fill="none" stroke="#000000" d="M625.2595,-509.7862C612.6157,-498.5473 593.6738,-481.7101 579.1103,-468.7647"/>
<polygon fill="#000000" stroke="#000000" points="581.337,-466.0612 571.5376,-462.0334 576.6865,-471.2931 581.337,-466.0612"/>
</g>
<!-- 25 -->
<g id="node26" class="node">
<title>25</title>
<g id="a_node26"><a xlink:title="T">
<ellipse fill="#ff3f00" stroke="#000000" stroke-width="0" cx="612" cy="-450" rx="18" ry="18"/>
</a>
</g>
</g>
<!-- 21&#45;&gt;25 -->
<g id="edge46" class="edge">
<title>21&#45;&gt;25</title>
<path fill="none" stroke="#000000" d="M632.6014,-504.937C629.407,-496.4186 625.471,-485.9227 621.8982,-476.3952"/>
<polygon fill="#000000" stroke="#000000" points="625.1411,-475.0749 618.3527,-466.9405 618.5868,-477.5328 625.1411,-475.0749"/>
</g>
<!-- 26 -->
<g id="node27" class="node">
<title>26</title>
<g id="a_node27"><a xlink:title="T">
<ellipse fill="#ff3f00" stroke="#000000" stroke-width="0" cx="666" cy="-450" rx="18" ry="18"/>
</a>
</g>
</g>
<!-- 21&#45;&gt;26 -->
<g id="edge31" class="edge">
<title>21&#45;&gt;26</title>
<path fill="none" stroke="#000000" d="M645.3986,-504.937C648.593,-496.4186 652.529,-485.9227 656.1018,-476.3952"/>
<polygon fill="#000000" stroke="#000000" points="659.4132,-477.5328 659.6473,-466.9405 652.8589,-475.0749 659.4132,-477.5328"/>
</g>
<!-- 28 -->
<g id="node29" class="node">
<title>28</title>
<g id="a_node29"><a xlink:title="T">
<ellipse fill="#ff3f00" stroke="#000000" stroke-width="0" cx="720" cy="-450" rx="18" ry="18"/>
</a>
</g>
</g>
<!-- 21&#45;&gt;28 -->
<g id="edge6" class="edge">
<title>21&#45;&gt;28</title>
<path fill="none" stroke="#000000" d="M652.7405,-509.7862C665.3843,-498.5473 684.3262,-481.7101 698.8897,-468.7647"/>
<polygon fill="#000000" stroke="#000000" points="701.3135,-471.2931 706.4624,-462.0334 696.663,-466.0612 701.3135,-471.2931"/>
</g>
<!-- 30 -->
<g id="node31" class="node">
<title>30</title>
<g id="a_node31"><a xlink:title="T">
<ellipse fill="#ff3f00" stroke="#000000" stroke-width="0" cx="774" cy="-450" rx="18" ry="18"/>
</a>
</g>
</g>
<!-- 21&#45;&gt;30 -->
<g id="edge36" class="edge">
<title>21&#45;&gt;30</title>
<path fill="none" stroke="#000000" d="M655.4332,-514.5634C676.896,-504.6754 715.4517,-486.3082 747,-468 748.1237,-467.3479 749.2642,-466.6671 750.4091,-465.9683"/>
<polygon fill="#000000" stroke="#000000" points="752.5333,-468.7644 759.0735,-460.4291 748.7628,-462.8666 752.5333,-468.7644"/>
</g>
<!-- 51 -->
<g id="node52" class="node">
<title>51</title>
<g id="a_node52"><a xlink:title="T">
<ellipse fill="#ff3f00" stroke="#000000" stroke-width="0" cx="828" cy="-450" rx="18" ry="18"/>
</a>
</g>
</g>
<!-- 21&#45;&gt;51 -->
<g id="edge45" class="edge">
<title>21&#45;&gt;51</title>
<path fill="none" stroke="#000000" d="M656.6204,-517.7771C687.0338,-510.1314 750.9323,-492.4873 801,-468 802.1672,-467.4292 803.3431,-466.8151 804.5169,-466.1702"/>
<polygon fill="#000000" stroke="#000000" points="806.5665,-469.0201 813.2874,-460.8298 802.9259,-463.0412 806.5665,-469.0201"/>
</g>
<!-- 27 -->
<g id="node28" class="node">
<title>27</title>
<g id="a_node28"><a xlink:title="T">
<ellipse fill="#ff3f00" stroke="#000000" stroke-width="0" cx="558" cy="-378" rx="18" ry="18"/>
</a>
</g>
</g>
<!-- 23&#45;&gt;27 -->
<g id="edge59" class="edge">
<title>23&#45;&gt;27</title>
<path fill="none" stroke="#000000" d="M558,-431.8314C558,-424.131 558,-414.9743 558,-406.4166"/>
<polygon fill="#000000" stroke="#000000" points="561.5001,-406.4132 558,-396.4133 554.5001,-406.4133 561.5001,-406.4132"/>
</g>
<!-- 24 -->
<g id="node25" class="node">
<title>24</title>
<g id="a_node25"><a xlink:title="T">
<ellipse fill="#ff3f00" stroke="#000000" stroke-width="0" cx="882" cy="-594" rx="18" ry="18"/>
</a>
</g>
</g>
<!-- 24&#45;&gt;21 -->
<g id="edge60" class="edge">
<title>24&#45;&gt;21</title>
<path fill="none" stroke="#000000" d="M864.524,-588.8219C822.666,-576.4196 716.4189,-544.9389 666.1512,-530.0448"/>
<polygon fill="#000000" stroke="#000000" points="666.8999,-526.6163 656.3176,-527.1311 664.9113,-533.3279 666.8999,-526.6163"/>
</g>
<!-- 46 -->
<g id="node47" class="node">
<title>46</title>
<g id="a_node47"><a xlink:title="T">
<ellipse fill="#ff3f00" stroke="#000000" stroke-width="0" cx="882" cy="-522" rx="18" ry="18"/>
</a>
</g>
</g>
<!-- 24&#45;&gt;46 -->
<g id="edge8" class="edge">
<title>24&#45;&gt;46</title>
<path fill="none" stroke="#000000" d="M882,-575.8314C882,-568.131 882,-558.9743 882,-550.4166"/>
<polygon fill="#000000" stroke="#000000" points="885.5001,-550.4132 882,-540.4133 878.5001,-550.4133 885.5001,-550.4132"/>
</g>
<!-- 49 -->
<g id="node50" class="node">
<title>49</title>
<g id="a_node50"><a xlink:title="T">
<ellipse fill="#ff3f00" stroke="#000000" stroke-width="0" cx="936" cy="-522" rx="18" ry="18"/>
</a>
</g>
</g>
<!-- 24&#45;&gt;49 -->
<g id="edge56" class="edge">
<title>24&#45;&gt;49</title>
<path fill="none" stroke="#000000" d="M892.9277,-579.4297C900.3934,-569.4754 910.4368,-556.0842 918.9474,-544.7368"/>
<polygon fill="#000000" stroke="#000000" points="921.8885,-546.6486 925.0885,-536.5486 916.2885,-542.4486 921.8885,-546.6486"/>
</g>
<!-- 54 -->
<g id="node55" class="node">
<title>54</title>
<g id="a_node55"><a xlink:title="K">
<ellipse fill="#39ffbe" stroke="#000000" stroke-width="0" cx="706" cy="-378" rx="18" ry="18"/>
</a>
</g>
</g>
<!-- 28&#45;&gt;54 -->
<g id="edge53" class="edge">
<title>28&#45;&gt;54</title>
<path fill="none" stroke="#000000" d="M716.5393,-432.2022C714.9912,-424.2406 713.1297,-414.6671 711.4047,-405.7957"/>
<polygon fill="#000000" stroke="#000000" points="714.8138,-404.9906 709.4694,-395.8425 707.9425,-406.3268 714.8138,-404.9906"/>
</g>
<!-- 30&#45;&gt;1 -->
<g id="edge29" class="edge">
<title>30&#45;&gt;1</title>
<path fill="none" stroke="#000000" d="M774,-431.8314C774,-424.131 774,-414.9743 774,-406.4166"/>
<polygon fill="#000000" stroke="#000000" points="777.5001,-406.4132 774,-396.4133 770.5001,-406.4133 777.5001,-406.4132"/>
</g>
<!-- 31 -->
<g id="node32" class="node">
<title>31</title>
<g id="a_node32"><a xlink:title="A">
<ellipse fill="#000080" stroke="#000000" stroke-width="0" cx="882" cy="-1170" rx="18" ry="18"/>
</a>
</g>
</g>
<!-- 40 -->
<g id="node41" class="node">
<title>40</title>
<g id="a_node41"><a xlink:title="A">
<ellipse fill="#000080" stroke="#000000" stroke-width="0" cx="828" cy="-1098" rx="18" ry="18"/>
</a>
</g>
</g>
<!-- 31&#45;&gt;40 -->
<g id="edge3" class="edge">
<title>31&#45;&gt;40</title>
<path fill="none" stroke="#000000" d="M871.0723,-1155.4297C863.6066,-1145.4754 853.5632,-1132.0842 845.0526,-1120.7368"/>
<polygon fill="#000000" stroke="#000000" points="847.7115,-1118.4486 838.9115,-1112.5486 842.1115,-1122.6486 847.7115,-1118.4486"/>
</g>
<!-- 56 -->
<g id="node57" class="node">
<title>56</title>
<g id="a_node57"><a xlink:title="A">
<ellipse fill="#000080" stroke="#000000" stroke-width="0" cx="882" cy="-1098" rx="18" ry="18"/>
</a>
</g>
</g>
<!-- 31&#45;&gt;56 -->
<g id="edge23" class="edge">
<title>31&#45;&gt;56</title>
<path fill="none" stroke="#000000" d="M882,-1151.8314C882,-1144.131 882,-1134.9743 882,-1126.4166"/>
<polygon fill="#000000" stroke="#000000" points="885.5001,-1126.4132 882,-1116.4133 878.5001,-1126.4133 885.5001,-1126.4132"/>
</g>
<!-- 32 -->
<g id="node33" class="node">
<title>32</title>
<g id="a_node33"><a xlink:title="M">
<ellipse fill="#90ff66" stroke="#000000" stroke-width="0" cx="450" cy="-162" rx="18" ry="18"/>
</a>
</g>
</g>
<!-- 37 -->
<g id="node38" class="node">
<title>37</title>
<g id="a_node38"><a xlink:title="M">
<ellipse fill="#90ff66" stroke="#000000" stroke-width="0" cx="450" cy="-90" rx="18" ry="18"/>
</a>
</g>
</g>
<!-- 32&#45;&gt;37 -->
<g id="edge9" class="edge">
<title>32&#45;&gt;37</title>
<path fill="none" stroke="#000000" d="M450,-143.8314C450,-136.131 450,-126.9743 450,-118.4166"/>
<polygon fill="#000000" stroke="#000000" points="453.5001,-118.4132 450,-108.4133 446.5001,-118.4133 453.5001,-118.4132"/>
</g>
<!-- 33 -->
<g id="node34" class="node">
<title>33</title>
<g id="a_node34"><a xlink:title="A">
<ellipse fill="#000080" stroke="#000000" stroke-width="0" cx="882" cy="-882" rx="18" ry="18"/>
</a>
</g>
</g>
<!-- 35 -->
<g id="node36" class="node">
<title>35</title>
<g id="a_node36"><a xlink:title="A">
<ellipse fill="#000080" stroke="#000000" stroke-width="0" cx="882" cy="-810" rx="18" ry="18"/>
</a>
</g>
</g>
<!-- 33&#45;&gt;35 -->
<g id="edge30" class="edge">
<title>33&#45;&gt;35</title>
<path fill="none" stroke="#000000" d="M882,-863.8314C882,-856.131 882,-846.9743 882,-838.4166"/>
<polygon fill="#000000" stroke="#000000" points="885.5001,-838.4132 882,-828.4133 878.5001,-838.4133 885.5001,-838.4132"/>
</g>
<!-- 34 -->
<g id="node35" class="node">
<title>34</title>
<g id="a_node35"><a xlink:title="A">
<ellipse fill="#000080" stroke="#000000" stroke-width="0" cx="936" cy="-1026" rx="18" ry="18"/>
</a>
</g>
</g>
<!-- 42 -->
<g id="node43" class="node">
<title>42</title>
<g id="a_node43"><a xlink:title="A">
<ellipse fill="#000080" stroke="#000000" stroke-width="0" cx="882" cy="-738" rx="18" ry="18"/>
</a>
</g>
</g>
<!-- 35&#45;&gt;42 -->
<g id="edge52" class="edge">
<title>35&#45;&gt;42</title>
<path fill="none" stroke="#000000" d="M882,-791.8314C882,-784.131 882,-774.9743 882,-766.4166"/>
<polygon fill="#000000" stroke="#000000" points="885.5001,-766.4132 882,-756.4133 878.5001,-766.4133 885.5001,-766.4132"/>
</g>
<!-- 36 -->
<g id="node37" class="node">
<title>36</title>
<g id="a_node37"><a xlink:title="A">
<ellipse fill="#000080" stroke="#000000" stroke-width="0" cx="909" cy="-1242" rx="18" ry="18"/>
</a>
</g>
</g>
<!-- 36&#45;&gt;31 -->
<g id="edge24" class="edge">
<title>36&#45;&gt;31</title>
<path fill="none" stroke="#000000" d="M902.6014,-1224.937C899.407,-1216.4186 895.471,-1205.9227 891.8982,-1196.3952"/>
<polygon fill="#000000" stroke="#000000" points="895.1411,-1195.0749 888.3527,-1186.9405 888.5868,-1197.5328 895.1411,-1195.0749"/>
</g>
<!-- 41 -->
<g id="node42" class="node">
<title>41</title>
<g id="a_node42"><a xlink:title="A">
<ellipse fill="#000080" stroke="#000000" stroke-width="0" cx="936" cy="-1170" rx="18" ry="18"/>
</a>
</g>
</g>
<!-- 36&#45;&gt;41 -->
<g id="edge13" class="edge">
<title>36&#45;&gt;41</title>
<path fill="none" stroke="#000000" d="M915.3986,-1224.937C918.593,-1216.4186 922.529,-1205.9227 926.1018,-1196.3952"/>
<polygon fill="#000000" stroke="#000000" points="929.4132,-1197.5328 929.6473,-1186.9405 922.8589,-1195.0749 929.4132,-1197.5328"/>
</g>
<!-- 38 -->
<g id="node39" class="node">
<title>38</title>
<g id="a_node39"><a xlink:title="A">
<ellipse fill="#000080" stroke="#000000" stroke-width="0" cx="936" cy="-1098" rx="18" ry="18"/>
</a>
</g>
</g>
<!-- 38&#45;&gt;34 -->
<g id="edge38" class="edge">
<title>38&#45;&gt;34</title>
<path fill="none" stroke="#000000" d="M936,-1079.8314C936,-1072.131 936,-1062.9743 936,-1054.4166"/>
<polygon fill="#000000" stroke="#000000" points="939.5001,-1054.4132 936,-1044.4133 932.5001,-1054.4133 939.5001,-1054.4132"/>
</g>
<!-- 39 -->
<g id="node40" class="node">
<title>39</title>
<g id="a_node40"><a xlink:title="A">
<ellipse fill="#000080" stroke="#000000" stroke-width="0" cx="882" cy="-666" rx="18" ry="18"/>
</a>
</g>
</g>
<!-- 39&#45;&gt;24 -->
<g id="edge34" class="edge">
<title>39&#45;&gt;24</title>
<path fill="none" stroke="#000000" d="M882,-647.8314C882,-640.131 882,-630.9743 882,-622.4166"/>
<polygon fill="#000000" stroke="#000000" points="885.5001,-622.4132 882,-612.4133 878.5001,-622.4133 885.5001,-622.4132"/>
</g>
<!-- 41&#45;&gt;38 -->
<g id="edge20" class="edge">
<title>41&#45;&gt;38</title>
<path fill="none" stroke="#000000" d="M936,-1151.8314C936,-1144.131 936,-1134.9743 936,-1126.4166"/>
<polygon fill="#000000" stroke="#000000" points="939.5001,-1126.4132 936,-1116.4133 932.5001,-1126.4133 939.5001,-1126.4132"/>
</g>
<!-- 42&#45;&gt;39 -->
<g id="edge19" class="edge">
<title>42&#45;&gt;39</title>
<path fill="none" stroke="#000000" d="M882,-719.8314C882,-712.131 882,-702.9743 882,-694.4166"/>
<polygon fill="#000000" stroke="#000000" points="885.5001,-694.4132 882,-684.4133 878.5001,-694.4133 885.5001,-694.4132"/>
</g>
<!-- 44 -->
<g id="node45" class="node">
<title>44</title>
<g id="a_node45"><a xlink:title="M">
<ellipse fill="#90ff66" stroke="#000000" stroke-width="0" cx="450" cy="-234" rx="18" ry="18"/>
</a>
</g>
</g>
<!-- 43&#45;&gt;44 -->
<g id="edge43" class="edge">
<title>43&#45;&gt;44</title>
<path fill="none" stroke="#000000" d="M450,-287.8314C450,-280.131 450,-270.9743 450,-262.4166"/>
<polygon fill="#000000" stroke="#000000" points="453.5001,-262.4132 450,-252.4133 446.5001,-262.4133 453.5001,-262.4132"/>
</g>
<!-- 44&#45;&gt;32 -->
<g id="edge50" class="edge">
<title>44&#45;&gt;32</title>
<path fill="none" stroke="#000000" d="M450,-215.8314C450,-208.131 450,-198.9743 450,-190.4166"/>
<polygon fill="#000000" stroke="#000000" points="453.5001,-190.4132 450,-180.4133 446.5001,-190.4133 453.5001,-190.4132"/>
</g>
<!-- 45 -->
<g id="node46" class="node">
<title>45</title>
<g id="a_node46"><a xlink:title="T">
<ellipse fill="#ff3f00" stroke="#000000" stroke-width="0" cx="882" cy="-450" rx="18" ry="18"/>
</a>
</g>
</g>
<!-- 46&#45;&gt;45 -->
<g id="edge35" class="edge">
<title>46&#45;&gt;45</title>
<path fill="none" stroke="#000000" d="M882,-503.8314C882,-496.131 882,-486.9743 882,-478.4166"/>
<polygon fill="#000000" stroke="#000000" points="885.5001,-478.4132 882,-468.4133 878.5001,-478.4133 885.5001,-478.4132"/>
</g>
<!-- 47 -->
<g id="node48" class="node">
<title>47</title>
<g id="a_node48"><a xlink:title="T">
<ellipse fill="#ff3f00" stroke="#000000" stroke-width="0" cx="936" cy="-450" rx="18" ry="18"/>
</a>
</g>
</g>
<!-- 50 -->
<g id="node51" class="node">
<title>50</title>
<g id="a_node51"><a xlink:title="T">
<ellipse fill="#ff3f00" stroke="#000000" stroke-width="0" cx="504" cy="-306" rx="18" ry="18"/>
</a>
</g>
</g>
<!-- 48&#45;&gt;50 -->
<g id="edge61" class="edge">
<title>48&#45;&gt;50</title>
<path fill="none" stroke="#000000" d="M504,-359.8314C504,-352.131 504,-342.9743 504,-334.4166"/>
<polygon fill="#000000" stroke="#000000" points="507.5001,-334.4132 504,-324.4133 500.5001,-334.4133 507.5001,-334.4132"/>
</g>
<!-- 49&#45;&gt;47 -->
<g id="edge49" class="edge">
<title>49&#45;&gt;47</title>
<path fill="none" stroke="#000000" d="M936,-503.8314C936,-496.131 936,-486.9743 936,-478.4166"/>
<polygon fill="#000000" stroke="#000000" points="939.5001,-478.4132 936,-468.4133 932.5001,-478.4133 939.5001,-478.4132"/>
</g>
<!-- 53 -->
<g id="node54" class="node">
<title>53</title>
<g id="a_node54"><a xlink:title="K">
<ellipse fill="#39ffbe" stroke="#000000" stroke-width="0" cx="693" cy="-306" rx="18" ry="18"/>
</a>
</g>
</g>
<!-- 54&#45;&gt;53 -->
<g id="edge27" class="edge">
<title>54&#45;&gt;53</title>
<path fill="none" stroke="#000000" d="M702.7865,-360.2022C701.349,-352.2406 699.6205,-342.6671 698.0187,-333.7957"/>
<polygon fill="#000000" stroke="#000000" points="701.4428,-333.0615 696.2216,-323.8425 694.5542,-334.3053 701.4428,-333.0615"/>
</g>
<!-- 55 -->
<g id="node56" class="node">
<title>55</title>
<g id="a_node56"><a xlink:title="A">
<ellipse fill="#000080" stroke="#000000" stroke-width="0" cx="882" cy="-954" rx="18" ry="18"/>
</a>
</g>
</g>
<!-- 55&#45;&gt;33 -->
<g id="edge40" class="edge">
<title>55&#45;&gt;33</title>
<path fill="none" stroke="#000000" d="M882,-935.8314C882,-928.131 882,-918.9743 882,-910.4166"/>
<polygon fill="#000000" stroke="#000000" points="885.5001,-910.4132 882,-900.4133 878.5001,-910.4133 885.5001,-910.4132"/>
</g>
<!-- 57 -->
<g id="node58" class="node">
<title>57</title>
<g id="a_node58"><a xlink:title="A">
<ellipse fill="#000080" stroke="#000000" stroke-width="0" cx="882" cy="-1026" rx="18" ry="18"/>
</a>
</g>
</g>
<!-- 56&#45;&gt;57 -->
<g id="edge22" class="edge">
<title>56&#45;&gt;57</title>
<path fill="none" stroke="#000000" d="M882,-1079.8314C882,-1072.131 882,-1062.9743 882,-1054.4166"/>
<polygon fill="#000000" stroke="#000000" points="885.5001,-1054.4132 882,-1044.4133 878.5001,-1054.4133 885.5001,-1054.4132"/>
</g>
<!-- 57&#45;&gt;55 -->
<g id="edge10" class="edge">
<title>57&#45;&gt;55</title>
<path fill="none" stroke="#000000" d="M882,-1007.8314C882,-1000.131 882,-990.9743 882,-982.4166"/>
<polygon fill="#000000" stroke="#000000" points="885.5001,-982.4132 882,-972.4133 878.5001,-982.4133 885.5001,-982.4132"/>
</g>
<!-- 58 -->
<g id="node59" class="node">
<title>58</title>
<g id="a_node59"><a xlink:title="T">
<ellipse fill="#ff3f00" stroke="#000000" stroke-width="0" cx="261" cy="-90" rx="18" ry="18"/>
</a>
</g>
</g>
<!-- 59 -->
<g id="node60" class="node">
<title>59</title>
<g id="a_node60"><a xlink:title="T">
<ellipse fill="#ff3f00" stroke="#000000" stroke-width="0" cx="261" cy="-18" rx="18" ry="18"/>
</a>
</g>
</g>
<!-- 58&#45;&gt;59 -->
<g id="edge18" class="edge">
<title>58&#45;&gt;59</title>
<path fill="none" stroke="#000000" d="M261,-71.8314C261,-64.131 261,-54.9743 261,-46.4166"/>
<polygon fill="#000000" stroke="#000000" points="264.5001,-46.4132 261,-36.4133 257.5001,-46.4133 264.5001,-46.4132"/>
</g>
<!-- 60&#45;&gt;58 -->
<g id="edge41" class="edge">
<title>60&#45;&gt;58</title>
<path fill="none" stroke="#000000" d="M261,-143.8314C261,-136.131 261,-126.9743 261,-118.4166"/>
<polygon fill="#000000" stroke="#000000" points="264.5001,-118.4132 261,-108.4133 257.5001,-118.4133 264.5001,-118.4132"/>
</g>
</g>
</svg>
