<?xml version="1.0" encoding="UTF-8" standalone="no"?>
<!DOCTYPE svg PUBLIC "-//W3C//DTD SVG 1.1//EN"
 "http://www.w3.org/Graphics/SVG/1.1/DTD/svg11.dtd">
<!-- Generated by graphviz version 2.38.0 (20140413.2041)
 -->
<!-- Title: %3 Pages: 1 -->
<svg width="284pt" height="188pt"
 viewBox="0.00 0.00 283.50 188.00" xmlns="http://www.w3.org/2000/svg" xmlns:xlink="http://www.w3.org/1999/xlink">
<g id="graph0" class="graph" transform="scale(1 1) rotate(0) translate(4 184)">
<title>%3</title>
<polygon fill="white" stroke="none" points="-4,4 -4,-184 279.5,-184 279.5,4 -4,4"/>
<!-- v0 -->
<g id="node1" class="node"><title>v0</title>
<ellipse fill="none" stroke="black" cx="30.5" cy="-162" rx="27" ry="18"/>
<text text-anchor="middle" x="30.5" y="-158.3" font-family="Times,serif" font-size="14.00">0</text>
</g>
<!-- v4 -->
<g id="node5" class="node"><title>v4</title>
<ellipse fill="none" stroke="black" cx="30.5" cy="-90" rx="27" ry="18"/>
<text text-anchor="middle" x="30.5" y="-86.3" font-family="Times,serif" font-size="14.00">4</text>
</g>
<!-- v0&#45;&gt;v4 -->
<g id="edge4" class="edge"><title>v0&#45;&gt;v4</title>
<path fill="none" stroke="black" d="M24.6601,-144.411C23.7975,-136.507 23.5481,-126.852 23.9119,-117.935"/>
<polygon fill="black" stroke="black" points="27.4033,-118.179 24.6206,-107.956 20.4209,-117.683 27.4033,-118.179"/>
</g>
<!-- v5 -->
<g id="node6" class="node"><title>v5</title>
<ellipse fill="none" stroke="black" cx="140.5" cy="-90" rx="27" ry="18"/>
<text text-anchor="middle" x="140.5" y="-86.3" font-family="Times,serif" font-size="14.00">5</text>
</g>
<!-- v0&#45;&gt;v5 -->
<g id="edge3" class="edge"><title>v0&#45;&gt;v5</title>
<path fill="none" stroke="black" d="M49.6605,-148.807C67.1689,-137.665 93.2595,-121.062 112.993,-108.504"/>
<polygon fill="black" stroke="black" points="115.001,-111.375 121.559,-103.053 111.243,-105.469 115.001,-111.375"/>
</g>
<!-- v1 -->
<g id="node2" class="node"><title>v1</title>
<ellipse fill="none" stroke="black" cx="104.5" cy="-18" rx="27" ry="18"/>
<text text-anchor="middle" x="104.5" y="-14.3" font-family="Times,serif" font-size="14.00">1</text>
</g>
<!-- v2 -->
<g id="node3" class="node"><title>v2</title>
<ellipse fill="none" stroke="black" cx="176.5" cy="-18" rx="27" ry="18"/>
<text text-anchor="middle" x="176.5" y="-14.3" font-family="Times,serif" font-size="14.00">2</text>
</g>
<!-- p0 -->
<g id="node4" class="node"><title>p0</title>
<path fill="none" stroke="black" d="M47,-36C47,-36 12,-36 12,-36 6,-36 0,-30 0,-24 0,-24 0,-12 0,-12 0,-6 6,-0 12,-0 12,-0 47,-0 47,-0 53,-0 59,-6 59,-12 59,-12 59,-24 59,-24 59,-30 53,-36 47,-36"/>
<text text-anchor="middle" x="29.5" y="-14.3" font-family="Times,serif" font-size="14.00">path (2)</text>
</g>
<!-- v4&#45;&gt;v0 -->
<g id="edge7" class="edge"><title>v4&#45;&gt;v0</title>
<path fill="none" stroke="black" d="M36.3794,-107.956C37.2139,-115.827 37.4485,-125.374 37.0831,-134.187"/>
<polygon fill="black" stroke="black" points="33.5742,-134.184 36.3399,-144.411 40.5558,-134.691 33.5742,-134.184"/>
</g>
<!-- v4&#45;&gt;p0 -->
<g id="edge1" class="edge"><title>v4&#45;&gt;p0</title>
<path fill="none" stroke="black" d="M30.2528,-71.6966C30.1426,-63.9827 30.0102,-54.7125 29.8873,-46.1124"/>
<polygon fill="black" stroke="black" points="33.3869,-46.0533 29.7443,-36.1043 26.3876,-46.1533 33.3869,-46.0533"/>
</g>
<!-- v5&#45;&gt;v1 -->
<g id="edge5" class="edge"><title>v5&#45;&gt;v1</title>
<path fill="none" stroke="black" d="M132.15,-72.7646C127.788,-64.2831 122.353,-53.7144 117.459,-44.1974"/>
<polygon fill="black" stroke="black" points="120.49,-42.4395 112.804,-35.1473 114.265,-45.6409 120.49,-42.4395"/>
</g>
<!-- v5&#45;&gt;v2 -->
<g id="edge6" class="edge"><title>v5&#45;&gt;v2</title>
<path fill="none" stroke="black" d="M148.85,-72.7646C153.212,-64.2831 158.647,-53.7144 163.541,-44.1974"/>
<polygon fill="black" stroke="black" points="166.735,-45.6409 168.196,-35.1473 160.51,-42.4395 166.735,-45.6409"/>
</g>
<!-- v7 -->
<g id="node7" class="node"><title>v7</title>
<ellipse fill="none" stroke="black" cx="248.5" cy="-18" rx="27" ry="18"/>
<text text-anchor="middle" x="248.5" y="-14.3" font-family="Times,serif" font-size="14.00">7</text>
</g>
<!-- v5&#45;&gt;v7 -->
<g id="edge2" class="edge"><title>v5&#45;&gt;v7</title>
<path fill="none" stroke="black" d="M159.312,-76.8069C176.502,-65.6653 202.118,-49.0622 221.493,-36.5043"/>
<polygon fill="black" stroke="black" points="223.416,-39.4294 229.903,-31.0533 219.608,-33.5553 223.416,-39.4294"/>
</g>
</g>
</svg>
