<?xml version="1.0" encoding="UTF-8" standalone="no"?>
<!DOCTYPE svg PUBLIC "-//W3C//DTD SVG 1.1//EN"
 "http://www.w3.org/Graphics/SVG/1.1/DTD/svg11.dtd">
<!-- Generated by graphviz version 2.38.0 (20140413.2041)
 -->
<!-- Title: %3 Pages: 1 -->
<svg width="304pt" height="476pt"
 viewBox="0.00 0.00 303.50 476.00" xmlns="http://www.w3.org/2000/svg" xmlns:xlink="http://www.w3.org/1999/xlink">
<g id="graph0" class="graph" transform="scale(1 1) rotate(0) translate(4 472)">
<title>%3</title>
<polygon fill="white" stroke="none" points="-4,4 -4,-472 299.5,-472 299.5,4 -4,4"/>
<!-- v0 -->
<g id="node1" class="node"><title>v0</title>
<ellipse fill="none" stroke="black" cx="150" cy="-162" rx="27" ry="18"/>
<text text-anchor="middle" x="150" y="-158.3" font-family="Times,serif" font-size="14.00">0</text>
</g>
<!-- v9 -->
<g id="node9" class="node"><title>v9</title>
<ellipse fill="none" stroke="black" cx="113" cy="-90" rx="27" ry="18"/>
<text text-anchor="middle" x="113" y="-86.3" font-family="Times,serif" font-size="14.00">9</text>
</g>
<!-- v0&#45;&gt;v9 -->
<g id="edge14" class="edge"><title>v0&#45;&gt;v9</title>
<path fill="none" stroke="black" d="M141.418,-144.765C136.935,-136.283 131.349,-125.714 126.319,-116.197"/>
<polygon fill="black" stroke="black" points="129.302,-114.353 121.535,-107.147 123.114,-117.624 129.302,-114.353"/>
</g>
<!-- p5 -->
<g id="node10" class="node"><title>p5</title>
<path fill="none" stroke="black" d="M205.5,-108C205.5,-108 170.5,-108 170.5,-108 164.5,-108 158.5,-102 158.5,-96 158.5,-96 158.5,-84 158.5,-84 158.5,-78 164.5,-72 170.5,-72 170.5,-72 205.5,-72 205.5,-72 211.5,-72 217.5,-78 217.5,-84 217.5,-84 217.5,-96 217.5,-96 217.5,-102 211.5,-108 205.5,-108"/>
<text text-anchor="middle" x="188" y="-86.3" font-family="Times,serif" font-size="14.00">path (3)</text>
</g>
<!-- v0&#45;&gt;p5 -->
<g id="edge9" class="edge"><title>v0&#45;&gt;p5</title>
<path fill="none" stroke="black" d="M158.813,-144.765C163.286,-136.525 168.828,-126.317 173.877,-117.016"/>
<polygon fill="black" stroke="black" points="177.009,-118.582 178.704,-108.124 170.857,-115.243 177.009,-118.582"/>
</g>
<!-- v1 -->
<g id="node2" class="node"><title>v1</title>
<ellipse fill="none" stroke="black" cx="189" cy="-234" rx="27" ry="18"/>
<text text-anchor="middle" x="189" y="-230.3" font-family="Times,serif" font-size="14.00">1</text>
</g>
<!-- v1&#45;&gt;v0 -->
<g id="edge11" class="edge"><title>v1&#45;&gt;v0</title>
<path fill="none" stroke="black" d="M179.955,-216.765C175.18,-208.195 169.218,-197.494 163.873,-187.9"/>
<polygon fill="black" stroke="black" points="166.921,-186.18 158.996,-179.147 160.806,-189.586 166.921,-186.18"/>
</g>
<!-- p1 -->
<g id="node4" class="node"><title>p1</title>
<path fill="none" stroke="black" d="M249,-180C249,-180 207,-180 207,-180 201,-180 195,-174 195,-168 195,-168 195,-156 195,-156 195,-150 201,-144 207,-144 207,-144 249,-144 249,-144 255,-144 261,-150 261,-156 261,-156 261,-168 261,-168 261,-174 255,-180 249,-180"/>
<text text-anchor="middle" x="228" y="-158.3" font-family="Times,serif" font-size="14.00">path (10)</text>
</g>
<!-- v1&#45;&gt;p1 -->
<g id="edge1" class="edge"><title>v1&#45;&gt;p1</title>
<path fill="none" stroke="black" d="M198.045,-216.765C202.636,-208.525 208.324,-198.317 213.506,-189.016"/>
<polygon fill="black" stroke="black" points="216.65,-190.563 218.46,-180.124 210.535,-187.156 216.65,-190.563"/>
</g>
<!-- p0 -->
<g id="node3" class="node"><title>p0</title>
<path fill="none" stroke="black" d="M93.5,-36C93.5,-36 58.5,-36 58.5,-36 52.5,-36 46.5,-30 46.5,-24 46.5,-24 46.5,-12 46.5,-12 46.5,-6 52.5,-0 58.5,-0 58.5,-0 93.5,-0 93.5,-0 99.5,-0 105.5,-6 105.5,-12 105.5,-12 105.5,-24 105.5,-24 105.5,-30 99.5,-36 93.5,-36"/>
<text text-anchor="middle" x="76" y="-14.3" font-family="Times,serif" font-size="14.00">path (2)</text>
</g>
<!-- p2 -->
<g id="node5" class="node"><title>p2</title>
<path fill="none" stroke="black" d="M206.5,-324C206.5,-324 171.5,-324 171.5,-324 165.5,-324 159.5,-318 159.5,-312 159.5,-312 159.5,-300 159.5,-300 159.5,-294 165.5,-288 171.5,-288 171.5,-288 206.5,-288 206.5,-288 212.5,-288 218.5,-294 218.5,-300 218.5,-300 218.5,-312 218.5,-312 218.5,-318 212.5,-324 206.5,-324"/>
<text text-anchor="middle" x="189" y="-302.3" font-family="Times,serif" font-size="14.00">path (9)</text>
</g>
<!-- p2&#45;&gt;v1 -->
<g id="edge8" class="edge"><title>p2&#45;&gt;v1</title>
<path fill="none" stroke="black" d="M189,-287.697C189,-279.983 189,-270.712 189,-262.112"/>
<polygon fill="black" stroke="black" points="192.5,-262.104 189,-252.104 185.5,-262.104 192.5,-262.104"/>
</g>
<!-- p3 -->
<g id="node6" class="node"><title>p3</title>
<path fill="none" stroke="black" d="M283.5,-324C283.5,-324 248.5,-324 248.5,-324 242.5,-324 236.5,-318 236.5,-312 236.5,-312 236.5,-300 236.5,-300 236.5,-294 242.5,-288 248.5,-288 248.5,-288 283.5,-288 283.5,-288 289.5,-288 295.5,-294 295.5,-300 295.5,-300 295.5,-312 295.5,-312 295.5,-318 289.5,-324 283.5,-324"/>
<text text-anchor="middle" x="266" y="-302.3" font-family="Times,serif" font-size="14.00">path (2)</text>
</g>
<!-- v7 -->
<g id="node7" class="node"><title>v7</title>
<ellipse fill="none" stroke="black" cx="151" cy="-18" rx="27" ry="18"/>
<text text-anchor="middle" x="151" y="-14.3" font-family="Times,serif" font-size="14.00">7</text>
</g>
<!-- p4 -->
<g id="node8" class="node"><title>p4</title>
<path fill="none" stroke="black" d="M54,-252C54,-252 12,-252 12,-252 6,-252 0,-246 0,-240 0,-240 0,-228 0,-228 0,-222 6,-216 12,-216 12,-216 54,-216 54,-216 60,-216 66,-222 66,-228 66,-228 66,-240 66,-240 66,-246 60,-252 54,-252"/>
<text text-anchor="middle" x="33" y="-230.3" font-family="Times,serif" font-size="14.00">path (14)</text>
</g>
<!-- v9&#45;&gt;p0 -->
<g id="edge12" class="edge"><title>v9&#45;&gt;p0</title>
<path fill="none" stroke="black" d="M104.418,-72.7646C100.063,-64.5255 94.6674,-54.3166 89.7511,-45.0157"/>
<polygon fill="black" stroke="black" points="92.8187,-43.3293 85.0512,-36.1239 86.63,-46.6005 92.8187,-43.3293"/>
</g>
<!-- v9&#45;&gt;v7 -->
<g id="edge10" class="edge"><title>v9&#45;&gt;v7</title>
<path fill="none" stroke="black" d="M121.813,-72.7646C126.418,-64.2831 132.155,-53.7144 137.321,-44.1974"/>
<polygon fill="black" stroke="black" points="140.539,-45.6057 142.234,-35.1473 134.387,-42.266 140.539,-45.6057"/>
</g>
<!-- p6 -->
<g id="node11" class="node"><title>p6</title>
<path fill="none" stroke="black" d="M131.5,-252C131.5,-252 96.5,-252 96.5,-252 90.5,-252 84.5,-246 84.5,-240 84.5,-240 84.5,-228 84.5,-228 84.5,-222 90.5,-216 96.5,-216 96.5,-216 131.5,-216 131.5,-216 137.5,-216 143.5,-222 143.5,-228 143.5,-228 143.5,-240 143.5,-240 143.5,-246 137.5,-252 131.5,-252"/>
<text text-anchor="middle" x="114" y="-230.3" font-family="Times,serif" font-size="14.00">path (2)</text>
</g>
<!-- v23 -->
<g id="node12" class="node"><title>v23</title>
<ellipse fill="none" stroke="black" cx="114" cy="-306" rx="27" ry="18"/>
<text text-anchor="middle" x="114" y="-302.3" font-family="Times,serif" font-size="14.00">23</text>
</g>
<!-- v23&#45;&gt;p4 -->
<g id="edge4" class="edge"><title>v23&#45;&gt;p4</title>
<path fill="none" stroke="black" d="M97.997,-291.17C87.3316,-281.953 73.0355,-269.599 60.5668,-258.823"/>
<polygon fill="black" stroke="black" points="62.5482,-255.91 52.6935,-252.019 57.9711,-261.206 62.5482,-255.91"/>
</g>
<!-- v23&#45;&gt;p6 -->
<g id="edge2" class="edge"><title>v23&#45;&gt;p6</title>
<path fill="none" stroke="black" d="M114,-287.697C114,-279.983 114,-270.712 114,-262.112"/>
<polygon fill="black" stroke="black" points="117.5,-262.104 114,-252.104 110.5,-262.104 117.5,-262.104"/>
</g>
<!-- v33 -->
<g id="node13" class="node"><title>v33</title>
<ellipse fill="none" stroke="black" cx="152" cy="-450" rx="27" ry="18"/>
<text text-anchor="middle" x="152" y="-446.3" font-family="Times,serif" font-size="14.00">33</text>
</g>
<!-- v45 -->
<g id="node14" class="node"><title>v45</title>
<ellipse fill="none" stroke="black" cx="116" cy="-378" rx="27" ry="18"/>
<text text-anchor="middle" x="116" y="-374.3" font-family="Times,serif" font-size="14.00">45</text>
</g>
<!-- v33&#45;&gt;v45 -->
<g id="edge7" class="edge"><title>v33&#45;&gt;v45</title>
<path fill="none" stroke="black" d="M143.65,-432.765C139.288,-424.283 133.853,-413.714 128.959,-404.197"/>
<polygon fill="black" stroke="black" points="131.99,-402.439 124.304,-395.147 125.765,-405.641 131.99,-402.439"/>
</g>
<!-- v48 -->
<g id="node15" class="node"><title>v48</title>
<ellipse fill="none" stroke="black" cx="189" cy="-378" rx="27" ry="18"/>
<text text-anchor="middle" x="189" y="-374.3" font-family="Times,serif" font-size="14.00">48</text>
</g>
<!-- v33&#45;&gt;v48 -->
<g id="edge13" class="edge"><title>v33&#45;&gt;v48</title>
<path fill="none" stroke="black" d="M160.582,-432.765C165.065,-424.283 170.651,-413.714 175.681,-404.197"/>
<polygon fill="black" stroke="black" points="178.886,-405.624 180.465,-395.147 172.698,-402.353 178.886,-405.624"/>
</g>
<!-- v45&#45;&gt;v23 -->
<g id="edge6" class="edge"><title>v45&#45;&gt;v23</title>
<path fill="none" stroke="black" d="M115.506,-359.697C115.285,-351.983 115.02,-342.712 114.775,-334.112"/>
<polygon fill="black" stroke="black" points="118.273,-334 114.489,-324.104 111.276,-334.2 118.273,-334"/>
</g>
<!-- v48&#45;&gt;p2 -->
<g id="edge5" class="edge"><title>v48&#45;&gt;p2</title>
<path fill="none" stroke="black" d="M189,-359.697C189,-351.983 189,-342.712 189,-334.112"/>
<polygon fill="black" stroke="black" points="192.5,-334.104 189,-324.104 185.5,-334.104 192.5,-334.104"/>
</g>
<!-- v48&#45;&gt;p3 -->
<g id="edge3" class="edge"><title>v48&#45;&gt;p3</title>
<path fill="none" stroke="black" d="M204.582,-362.834C214.579,-353.746 227.818,-341.71 239.445,-331.141"/>
<polygon fill="black" stroke="black" points="242.131,-333.429 247.176,-324.113 237.422,-328.25 242.131,-333.429"/>
</g>
</g>
</svg>
