<?xml version="1.0" encoding="UTF-8" standalone="no"?>
<!DOCTYPE svg PUBLIC "-//W3C//DTD SVG 1.1//EN"
 "http://www.w3.org/Graphics/SVG/1.1/DTD/svg11.dtd">
<!-- Generated by graphviz version 2.38.0 (20140413.2041)
 -->
<!-- Title: %3 Pages: 1 -->
<svg width="2381pt" height="1340pt"
 viewBox="0.00 0.00 2380.50 1340.00" xmlns="http://www.w3.org/2000/svg" xmlns:xlink="http://www.w3.org/1999/xlink">
<g id="graph0" class="graph" transform="scale(1 1) rotate(0) translate(4 1336)">
<title>%3</title>
<polygon fill="white" stroke="none" points="-4,4 -4,-1336 2376.5,-1336 2376.5,4 -4,4"/>
<!-- v0 -->
<g id="node1" class="node"><title>v0</title>
<ellipse fill="none" stroke="black" cx="448.5" cy="-594" rx="27" ry="18"/>
<text text-anchor="middle" x="448.5" y="-590.3" font-family="Times,serif" font-size="14.00">0</text>
</g>
<!-- v2 -->
<g id="node3" class="node"><title>v2</title>
<ellipse fill="none" stroke="black" cx="485.5" cy="-522" rx="27" ry="18"/>
<text text-anchor="middle" x="485.5" y="-518.3" font-family="Times,serif" font-size="14.00">2</text>
</g>
<!-- v0&#45;&gt;v2 -->
<g id="edge68" class="edge"><title>v0&#45;&gt;v2</title>
<path fill="none" stroke="black" d="M457.082,-576.765C461.565,-568.283 467.151,-557.714 472.181,-548.197"/>
<polygon fill="black" stroke="black" points="475.386,-549.624 476.965,-539.147 469.198,-546.353 475.386,-549.624"/>
</g>
<!-- p2 -->
<g id="node5" class="node"><title>p2</title>
<path fill="none" stroke="black" d="M578,-540C578,-540 543,-540 543,-540 537,-540 531,-534 531,-528 531,-528 531,-516 531,-516 531,-510 537,-504 543,-504 543,-504 578,-504 578,-504 584,-504 590,-510 590,-516 590,-516 590,-528 590,-528 590,-534 584,-540 578,-540"/>
<text text-anchor="middle" x="560.5" y="-518.3" font-family="Times,serif" font-size="14.00">path (2)</text>
</g>
<!-- v0&#45;&gt;p2 -->
<g id="edge15" class="edge"><title>v0&#45;&gt;p2</title>
<path fill="none" stroke="black" d="M467.499,-581.125C483.016,-571.427 505.393,-557.442 524.309,-545.62"/>
<polygon fill="black" stroke="black" points="526.369,-548.459 532.994,-540.191 522.659,-542.523 526.369,-548.459"/>
</g>
<!-- v5 -->
<g id="node6" class="node"><title>v5</title>
<ellipse fill="none" stroke="black" cx="635.5" cy="-522" rx="27" ry="18"/>
<text text-anchor="middle" x="635.5" y="-518.3" font-family="Times,serif" font-size="14.00">5</text>
</g>
<!-- v0&#45;&gt;v5 -->
<g id="edge56" class="edge"><title>v0&#45;&gt;v5</title>
<path fill="none" stroke="black" d="M472.391,-585.306C502.202,-575.535 554.603,-557.797 598.5,-540 600.576,-539.158 602.705,-538.265 604.842,-537.345"/>
<polygon fill="black" stroke="black" points="606.404,-540.48 614.123,-533.222 603.563,-534.083 606.404,-540.48"/>
</g>
<!-- v6 -->
<g id="node7" class="node"><title>v6</title>
<ellipse fill="none" stroke="black" cx="710.5" cy="-522" rx="27" ry="18"/>
<text text-anchor="middle" x="710.5" y="-518.3" font-family="Times,serif" font-size="14.00">6</text>
</g>
<!-- v0&#45;&gt;v6 -->
<g id="edge45" class="edge"><title>v0&#45;&gt;v6</title>
<path fill="none" stroke="black" d="M474.331,-588.41C516.308,-580.609 601.67,-563.312 671.5,-540 674.103,-539.131 676.772,-538.156 679.433,-537.124"/>
<polygon fill="black" stroke="black" points="680.988,-540.27 688.903,-533.227 678.323,-533.796 680.988,-540.27"/>
</g>
<!-- p4 -->
<g id="node9" class="node"><title>p4</title>
<path fill="none" stroke="black" d="M47,-540C47,-540 12,-540 12,-540 6,-540 0,-534 0,-528 0,-528 0,-516 0,-516 0,-510 6,-504 12,-504 12,-504 47,-504 47,-504 53,-504 59,-510 59,-516 59,-516 59,-528 59,-528 59,-534 53,-540 47,-540"/>
<text text-anchor="middle" x="29.5" y="-518.3" font-family="Times,serif" font-size="14.00">path (3)</text>
</g>
<!-- v0&#45;&gt;p4 -->
<g id="edge50" class="edge"><title>v0&#45;&gt;p4</title>
<path fill="none" stroke="black" d="M421.636,-591.863C360.096,-588.715 204.376,-577.652 68.7972,-539.943"/>
<polygon fill="black" stroke="black" points="69.6477,-536.546 59.0719,-537.182 67.7357,-543.28 69.6477,-536.546"/>
</g>
<!-- p6 -->
<g id="node13" class="node"><title>p6</title>
<path fill="none" stroke="black" d="M124,-540C124,-540 89,-540 89,-540 83,-540 77,-534 77,-528 77,-528 77,-516 77,-516 77,-510 83,-504 89,-504 89,-504 124,-504 124,-504 130,-504 136,-510 136,-516 136,-516 136,-528 136,-528 136,-534 130,-540 124,-540"/>
<text text-anchor="middle" x="106.5" y="-518.3" font-family="Times,serif" font-size="14.00">path (3)</text>
</g>
<!-- v0&#45;&gt;p6 -->
<g id="edge44" class="edge"><title>v0&#45;&gt;p6</title>
<path fill="none" stroke="black" d="M421.663,-590.472C368.196,-584.966 244.968,-569.912 145.5,-540 145.403,-539.971 145.305,-539.941 145.208,-539.912"/>
<polygon fill="black" stroke="black" points="146.632,-536.701 136.037,-536.741 144.344,-543.316 146.632,-536.701"/>
</g>
<!-- v30 -->
<g id="node22" class="node"><title>v30</title>
<ellipse fill="none" stroke="black" cx="181.5" cy="-522" rx="27" ry="18"/>
<text text-anchor="middle" x="181.5" y="-518.3" font-family="Times,serif" font-size="14.00">30</text>
</g>
<!-- v0&#45;&gt;v30 -->
<g id="edge25" class="edge"><title>v0&#45;&gt;v30</title>
<path fill="none" stroke="black" d="M422.352,-588.896C378.993,-581.673 289.819,-565.043 217.5,-540 215.59,-539.338 213.646,-538.606 211.701,-537.828"/>
<polygon fill="black" stroke="black" points="212.688,-534.441 202.122,-533.669 209.9,-540.862 212.688,-534.441"/>
</g>
<!-- p14 -->
<g id="node26" class="node"><title>p14</title>
<path fill="none" stroke="black" d="M274,-540C274,-540 239,-540 239,-540 233,-540 227,-534 227,-528 227,-528 227,-516 227,-516 227,-510 233,-504 239,-504 239,-504 274,-504 274,-504 280,-504 286,-510 286,-516 286,-516 286,-528 286,-528 286,-534 280,-540 274,-540"/>
<text text-anchor="middle" x="256.5" y="-518.3" font-family="Times,serif" font-size="14.00">path (3)</text>
</g>
<!-- v0&#45;&gt;p14 -->
<g id="edge119" class="edge"><title>v0&#45;&gt;p14</title>
<path fill="none" stroke="black" d="M424.516,-585.48C395.804,-576.32 346.131,-559.975 295.687,-540.324"/>
<polygon fill="black" stroke="black" points="296.851,-537.021 286.264,-536.617 294.288,-543.535 296.851,-537.021"/>
</g>
<!-- p17 -->
<g id="node31" class="node"><title>p17</title>
<path fill="none" stroke="black" d="M351,-540C351,-540 316,-540 316,-540 310,-540 304,-534 304,-528 304,-528 304,-516 304,-516 304,-510 310,-504 316,-504 316,-504 351,-504 351,-504 357,-504 363,-510 363,-516 363,-516 363,-528 363,-528 363,-534 357,-540 351,-540"/>
<text text-anchor="middle" x="333.5" y="-518.3" font-family="Times,serif" font-size="14.00">path (2)</text>
</g>
<!-- v0&#45;&gt;p17 -->
<g id="edge21" class="edge"><title>v0&#45;&gt;p17</title>
<path fill="none" stroke="black" d="M429.252,-581.284C413.171,-571.496 389.787,-557.262 370.153,-545.311"/>
<polygon fill="black" stroke="black" points="371.798,-542.214 361.436,-540.004 368.158,-548.194 371.798,-542.214"/>
</g>
<!-- p23 -->
<g id="node39" class="node"><title>p23</title>
<path fill="none" stroke="black" d="M428,-540C428,-540 393,-540 393,-540 387,-540 381,-534 381,-528 381,-528 381,-516 381,-516 381,-510 387,-504 393,-504 393,-504 428,-504 428,-504 434,-504 440,-510 440,-516 440,-516 440,-528 440,-528 440,-534 434,-540 428,-540"/>
<text text-anchor="middle" x="410.5" y="-518.3" font-family="Times,serif" font-size="14.00">path (3)</text>
</g>
<!-- v0&#45;&gt;p23 -->
<g id="edge51" class="edge"><title>v0&#45;&gt;p23</title>
<path fill="none" stroke="black" d="M439.687,-576.765C435.214,-568.525 429.672,-558.317 424.623,-549.016"/>
<polygon fill="black" stroke="black" points="427.643,-547.243 419.796,-540.124 421.491,-550.582 427.643,-547.243"/>
</g>
<!-- v95 -->
<g id="node48" class="node"><title>v95</title>
<ellipse fill="none" stroke="black" cx="1052.5" cy="-522" rx="27" ry="18"/>
<text text-anchor="middle" x="1052.5" y="-518.3" font-family="Times,serif" font-size="14.00">95</text>
</g>
<!-- v0&#45;&gt;v95 -->
<g id="edge19" class="edge"><title>v0&#45;&gt;v95</title>
<path fill="none" stroke="black" d="M474.912,-589.576C571.442,-577.836 904.311,-539.252 1015.85,-526.865"/>
<polygon fill="black" stroke="black" points="1016.38,-530.328 1025.94,-525.75 1015.61,-523.37 1016.38,-530.328"/>
</g>
<!-- p0 -->
<g id="node2" class="node"><title>p0</title>
<path fill="none" stroke="black" d="M428,-468C428,-468 393,-468 393,-468 387,-468 381,-462 381,-456 381,-456 381,-444 381,-444 381,-438 387,-432 393,-432 393,-432 428,-432 428,-432 434,-432 440,-438 440,-444 440,-444 440,-456 440,-456 440,-462 434,-468 428,-468"/>
<text text-anchor="middle" x="410.5" y="-446.3" font-family="Times,serif" font-size="14.00">path (9)</text>
</g>
<!-- v2&#45;&gt;p0 -->
<g id="edge8" class="edge"><title>v2&#45;&gt;p0</title>
<path fill="none" stroke="black" d="M470.323,-506.834C460.585,-497.746 447.69,-485.71 436.366,-475.141"/>
<polygon fill="black" stroke="black" points="438.534,-472.377 428.835,-468.113 433.758,-477.495 438.534,-472.377"/>
</g>
<!-- v19 -->
<g id="node16" class="node"><title>v19</title>
<ellipse fill="none" stroke="black" cx="335.5" cy="-450" rx="27" ry="18"/>
<text text-anchor="middle" x="335.5" y="-446.3" font-family="Times,serif" font-size="14.00">19</text>
</g>
<!-- v2&#45;&gt;v19 -->
<g id="edge78" class="edge"><title>v2&#45;&gt;v19</title>
<path fill="none" stroke="black" d="M463.627,-510.878C440.664,-500.241 403.518,-483.002 371.5,-468 369.716,-467.164 367.883,-466.304 366.035,-465.435"/>
<polygon fill="black" stroke="black" points="367.348,-462.185 356.81,-461.089 364.365,-468.517 367.348,-462.185"/>
</g>
<!-- v40 -->
<g id="node28" class="node"><title>v40</title>
<ellipse fill="none" stroke="black" cx="485.5" cy="-450" rx="27" ry="18"/>
<text text-anchor="middle" x="485.5" y="-446.3" font-family="Times,serif" font-size="14.00">40</text>
</g>
<!-- v2&#45;&gt;v40 -->
<g id="edge95" class="edge"><title>v2&#45;&gt;v40</title>
<path fill="none" stroke="black" d="M485.5,-503.697C485.5,-495.983 485.5,-486.712 485.5,-478.112"/>
<polygon fill="black" stroke="black" points="489,-478.104 485.5,-468.104 482,-478.104 489,-478.104"/>
</g>
<!-- p1 -->
<g id="node4" class="node"><title>p1</title>
<path fill="none" stroke="black" d="M805,-468C805,-468 770,-468 770,-468 764,-468 758,-462 758,-456 758,-456 758,-444 758,-444 758,-438 764,-432 770,-432 770,-432 805,-432 805,-432 811,-432 817,-438 817,-444 817,-444 817,-456 817,-456 817,-462 811,-468 805,-468"/>
<text text-anchor="middle" x="787.5" y="-446.3" font-family="Times,serif" font-size="14.00">path (5)</text>
</g>
<!-- v22 -->
<g id="node17" class="node"><title>v22</title>
<ellipse fill="none" stroke="black" cx="635.5" cy="-450" rx="27" ry="18"/>
<text text-anchor="middle" x="635.5" y="-446.3" font-family="Times,serif" font-size="14.00">22</text>
</g>
<!-- v5&#45;&gt;v22 -->
<g id="edge115" class="edge"><title>v5&#45;&gt;v22</title>
<path fill="none" stroke="black" d="M635.5,-503.697C635.5,-495.983 635.5,-486.712 635.5,-478.112"/>
<polygon fill="black" stroke="black" points="639,-478.104 635.5,-468.104 632,-478.104 639,-478.104"/>
</g>
<!-- p9 -->
<g id="node18" class="node"><title>p9</title>
<path fill="none" stroke="black" d="M578,-468C578,-468 543,-468 543,-468 537,-468 531,-462 531,-456 531,-456 531,-444 531,-444 531,-438 537,-432 543,-432 543,-432 578,-432 578,-432 584,-432 590,-438 590,-444 590,-444 590,-456 590,-456 590,-462 584,-468 578,-468"/>
<text text-anchor="middle" x="560.5" y="-446.3" font-family="Times,serif" font-size="14.00">path (5)</text>
</g>
<!-- v5&#45;&gt;p9 -->
<g id="edge96" class="edge"><title>v5&#45;&gt;p9</title>
<path fill="none" stroke="black" d="M620.323,-506.834C610.585,-497.746 597.69,-485.71 586.366,-475.141"/>
<polygon fill="black" stroke="black" points="588.534,-472.377 578.835,-468.113 583.758,-477.495 588.534,-472.377"/>
</g>
<!-- v5&#45;&gt;v40 -->
<g id="edge33" class="edge"><title>v5&#45;&gt;v40</title>
<path fill="none" stroke="black" d="M613.627,-510.878C590.664,-500.241 553.518,-483.002 521.5,-468 519.716,-467.164 517.883,-466.304 516.035,-465.435"/>
<polygon fill="black" stroke="black" points="517.348,-462.185 506.81,-461.089 514.365,-468.517 517.348,-462.185"/>
</g>
<!-- v6&#45;&gt;p1 -->
<g id="edge105" class="edge"><title>v6&#45;&gt;p1</title>
<path fill="none" stroke="black" d="M726.082,-506.834C736.079,-497.746 749.318,-485.71 760.945,-475.141"/>
<polygon fill="black" stroke="black" points="763.631,-477.429 768.676,-468.113 758.922,-472.25 763.631,-477.429"/>
</g>
<!-- p21 -->
<g id="node37" class="node"><title>p21</title>
<path fill="none" stroke="black" d="M728,-468C728,-468 693,-468 693,-468 687,-468 681,-462 681,-456 681,-456 681,-444 681,-444 681,-438 687,-432 693,-432 693,-432 728,-432 728,-432 734,-432 740,-438 740,-444 740,-444 740,-456 740,-456 740,-462 734,-468 728,-468"/>
<text text-anchor="middle" x="710.5" y="-446.3" font-family="Times,serif" font-size="14.00">path (2)</text>
</g>
<!-- v6&#45;&gt;p21 -->
<g id="edge85" class="edge"><title>v6&#45;&gt;p21</title>
<path fill="none" stroke="black" d="M710.5,-503.697C710.5,-495.983 710.5,-486.712 710.5,-478.112"/>
<polygon fill="black" stroke="black" points="714,-478.104 710.5,-468.104 707,-478.104 714,-478.104"/>
</g>
<!-- p3 -->
<g id="node8" class="node"><title>p3</title>
<path fill="none" stroke="black" d="M1029.5,-1044C1029.5,-1044 987.5,-1044 987.5,-1044 981.5,-1044 975.5,-1038 975.5,-1032 975.5,-1032 975.5,-1020 975.5,-1020 975.5,-1014 981.5,-1008 987.5,-1008 987.5,-1008 1029.5,-1008 1029.5,-1008 1035.5,-1008 1041.5,-1014 1041.5,-1020 1041.5,-1020 1041.5,-1032 1041.5,-1032 1041.5,-1038 1035.5,-1044 1029.5,-1044"/>
<text text-anchor="middle" x="1008.5" y="-1022.3" font-family="Times,serif" font-size="14.00">path (11)</text>
</g>
<!-- v9 -->
<g id="node10" class="node"><title>v9</title>
<ellipse fill="none" stroke="black" cx="1089.5" cy="-1242" rx="27" ry="18"/>
<text text-anchor="middle" x="1089.5" y="-1238.3" font-family="Times,serif" font-size="14.00">9</text>
</g>
<!-- p10 -->
<g id="node19" class="node"><title>p10</title>
<path fill="none" stroke="black" d="M1030,-1188C1030,-1188 995,-1188 995,-1188 989,-1188 983,-1182 983,-1176 983,-1176 983,-1164 983,-1164 983,-1158 989,-1152 995,-1152 995,-1152 1030,-1152 1030,-1152 1036,-1152 1042,-1158 1042,-1164 1042,-1164 1042,-1176 1042,-1176 1042,-1182 1036,-1188 1030,-1188"/>
<text text-anchor="middle" x="1012.5" y="-1166.3" font-family="Times,serif" font-size="14.00">path (3)</text>
</g>
<!-- v9&#45;&gt;p10 -->
<g id="edge66" class="edge"><title>v9&#45;&gt;p10</title>
<path fill="none" stroke="black" d="M1073.92,-1226.83C1063.92,-1217.75 1050.68,-1205.71 1039.06,-1195.14"/>
<polygon fill="black" stroke="black" points="1041.08,-1192.25 1031.32,-1188.11 1036.37,-1197.43 1041.08,-1192.25"/>
</g>
<!-- p13 -->
<g id="node25" class="node"><title>p13</title>
<path fill="none" stroke="black" d="M1107,-1188C1107,-1188 1072,-1188 1072,-1188 1066,-1188 1060,-1182 1060,-1176 1060,-1176 1060,-1164 1060,-1164 1060,-1158 1066,-1152 1072,-1152 1072,-1152 1107,-1152 1107,-1152 1113,-1152 1119,-1158 1119,-1164 1119,-1164 1119,-1176 1119,-1176 1119,-1182 1113,-1188 1107,-1188"/>
<text text-anchor="middle" x="1089.5" y="-1166.3" font-family="Times,serif" font-size="14.00">path (6)</text>
</g>
<!-- v9&#45;&gt;p13 -->
<g id="edge55" class="edge"><title>v9&#45;&gt;p13</title>
<path fill="none" stroke="black" d="M1089.5,-1223.7C1089.5,-1215.98 1089.5,-1206.71 1089.5,-1198.11"/>
<polygon fill="black" stroke="black" points="1093,-1198.1 1089.5,-1188.1 1086,-1198.1 1093,-1198.1"/>
</g>
<!-- p22 -->
<g id="node38" class="node"><title>p22</title>
<path fill="none" stroke="black" d="M1184,-1188C1184,-1188 1149,-1188 1149,-1188 1143,-1188 1137,-1182 1137,-1176 1137,-1176 1137,-1164 1137,-1164 1137,-1158 1143,-1152 1149,-1152 1149,-1152 1184,-1152 1184,-1152 1190,-1152 1196,-1158 1196,-1164 1196,-1164 1196,-1176 1196,-1176 1196,-1182 1190,-1188 1184,-1188"/>
<text text-anchor="middle" x="1166.5" y="-1166.3" font-family="Times,serif" font-size="14.00">path (3)</text>
</g>
<!-- v9&#45;&gt;p22 -->
<g id="edge88" class="edge"><title>v9&#45;&gt;p22</title>
<path fill="none" stroke="black" d="M1105.08,-1226.83C1115.08,-1217.75 1128.32,-1205.71 1139.94,-1195.14"/>
<polygon fill="black" stroke="black" points="1142.63,-1197.43 1147.68,-1188.11 1137.92,-1192.25 1142.63,-1197.43"/>
</g>
<!-- p5 -->
<g id="node11" class="node"><title>p5</title>
<path fill="none" stroke="black" d="M996,-324C996,-324 961,-324 961,-324 955,-324 949,-318 949,-312 949,-312 949,-300 949,-300 949,-294 955,-288 961,-288 961,-288 996,-288 996,-288 1002,-288 1008,-294 1008,-300 1008,-300 1008,-312 1008,-312 1008,-318 1002,-324 996,-324"/>
<text text-anchor="middle" x="978.5" y="-302.3" font-family="Times,serif" font-size="14.00">path (4)</text>
</g>
<!-- v11 -->
<g id="node12" class="node"><title>v11</title>
<ellipse fill="none" stroke="black" cx="634.5" cy="-378" rx="27" ry="18"/>
<text text-anchor="middle" x="634.5" y="-374.3" font-family="Times,serif" font-size="14.00">11</text>
</g>
<!-- p7 -->
<g id="node14" class="node"><title>p7</title>
<path fill="none" stroke="black" d="M1107,-1332C1107,-1332 1072,-1332 1072,-1332 1066,-1332 1060,-1326 1060,-1320 1060,-1320 1060,-1308 1060,-1308 1060,-1302 1066,-1296 1072,-1296 1072,-1296 1107,-1296 1107,-1296 1113,-1296 1119,-1302 1119,-1308 1119,-1308 1119,-1320 1119,-1320 1119,-1326 1113,-1332 1107,-1332"/>
<text text-anchor="middle" x="1089.5" y="-1310.3" font-family="Times,serif" font-size="14.00">path (7)</text>
</g>
<!-- p7&#45;&gt;v9 -->
<g id="edge123" class="edge"><title>p7&#45;&gt;v9</title>
<path fill="none" stroke="black" d="M1089.5,-1295.7C1089.5,-1287.98 1089.5,-1278.71 1089.5,-1270.11"/>
<polygon fill="black" stroke="black" points="1093,-1270.1 1089.5,-1260.1 1086,-1270.1 1093,-1270.1"/>
</g>
<!-- p8 -->
<g id="node15" class="node"><title>p8</title>
<path fill="none" stroke="black" d="M355,-396C355,-396 320,-396 320,-396 314,-396 308,-390 308,-384 308,-384 308,-372 308,-372 308,-366 314,-360 320,-360 320,-360 355,-360 355,-360 361,-360 367,-366 367,-372 367,-372 367,-384 367,-384 367,-390 361,-396 355,-396"/>
<text text-anchor="middle" x="337.5" y="-374.3" font-family="Times,serif" font-size="14.00">path (5)</text>
</g>
<!-- v22&#45;&gt;v11 -->
<g id="edge4" class="edge"><title>v22&#45;&gt;v11</title>
<path fill="none" stroke="black" d="M635.253,-431.697C635.143,-423.983 635.01,-414.712 634.887,-406.112"/>
<polygon fill="black" stroke="black" points="638.387,-406.053 634.744,-396.104 631.388,-406.153 638.387,-406.053"/>
</g>
<!-- p12 -->
<g id="node24" class="node"><title>p12</title>
<path fill="none" stroke="black" d="M727,-396C727,-396 692,-396 692,-396 686,-396 680,-390 680,-384 680,-384 680,-372 680,-372 680,-366 686,-360 692,-360 692,-360 727,-360 727,-360 733,-360 739,-366 739,-372 739,-372 739,-384 739,-384 739,-390 733,-396 727,-396"/>
<text text-anchor="middle" x="709.5" y="-374.3" font-family="Times,serif" font-size="14.00">path (2)</text>
</g>
<!-- v22&#45;&gt;p12 -->
<g id="edge111" class="edge"><title>v22&#45;&gt;p12</title>
<path fill="none" stroke="black" d="M650.475,-434.834C660.083,-425.746 672.806,-413.71 683.979,-403.141"/>
<polygon fill="black" stroke="black" points="686.55,-405.527 691.409,-396.113 681.739,-400.442 686.55,-405.527"/>
</g>
<!-- v224 -->
<g id="node114" class="node"><title>v224</title>
<ellipse fill="none" stroke="black" cx="561.5" cy="-378" rx="27" ry="18"/>
<text text-anchor="middle" x="561.5" y="-374.3" font-family="Times,serif" font-size="14.00">224</text>
</g>
<!-- p9&#45;&gt;v224 -->
<g id="edge82" class="edge"><title>p9&#45;&gt;v224</title>
<path fill="none" stroke="black" d="M560.747,-431.697C560.857,-423.983 560.99,-414.712 561.113,-406.112"/>
<polygon fill="black" stroke="black" points="564.612,-406.153 561.256,-396.104 557.613,-406.053 564.612,-406.153"/>
</g>
<!-- p11 -->
<g id="node20" class="node"><title>p11</title>
<path fill="none" stroke="black" d="M1564,-540C1564,-540 1529,-540 1529,-540 1523,-540 1517,-534 1517,-528 1517,-528 1517,-516 1517,-516 1517,-510 1523,-504 1529,-504 1529,-504 1564,-504 1564,-504 1570,-504 1576,-510 1576,-516 1576,-516 1576,-528 1576,-528 1576,-534 1570,-540 1564,-540"/>
<text text-anchor="middle" x="1546.5" y="-518.3" font-family="Times,serif" font-size="14.00">path (2)</text>
</g>
<!-- v29 -->
<g id="node21" class="node"><title>v29</title>
<ellipse fill="none" stroke="black" cx="1621.5" cy="-522" rx="27" ry="18"/>
<text text-anchor="middle" x="1621.5" y="-518.3" font-family="Times,serif" font-size="14.00">29</text>
</g>
<!-- v31 -->
<g id="node23" class="node"><title>v31</title>
<ellipse fill="none" stroke="black" cx="2165.5" cy="-306" rx="27" ry="18"/>
<text text-anchor="middle" x="2165.5" y="-302.3" font-family="Times,serif" font-size="14.00">31</text>
</g>
<!-- v42 -->
<g id="node30" class="node"><title>v42</title>
<ellipse fill="none" stroke="black" cx="1089.5" cy="-1098" rx="27" ry="18"/>
<text text-anchor="middle" x="1089.5" y="-1094.3" font-family="Times,serif" font-size="14.00">42</text>
</g>
<!-- p13&#45;&gt;v42 -->
<g id="edge65" class="edge"><title>p13&#45;&gt;v42</title>
<path fill="none" stroke="black" d="M1089.5,-1151.7C1089.5,-1143.98 1089.5,-1134.71 1089.5,-1126.11"/>
<polygon fill="black" stroke="black" points="1093,-1126.1 1089.5,-1116.1 1086,-1126.1 1093,-1126.1"/>
</g>
<!-- p15 -->
<g id="node27" class="node"><title>p15</title>
<path fill="none" stroke="black" d="M1184,-1044C1184,-1044 1149,-1044 1149,-1044 1143,-1044 1137,-1038 1137,-1032 1137,-1032 1137,-1020 1137,-1020 1137,-1014 1143,-1008 1149,-1008 1149,-1008 1184,-1008 1184,-1008 1190,-1008 1196,-1014 1196,-1020 1196,-1020 1196,-1032 1196,-1032 1196,-1038 1190,-1044 1184,-1044"/>
<text text-anchor="middle" x="1166.5" y="-1022.3" font-family="Times,serif" font-size="14.00">path (6)</text>
</g>
<!-- v40&#45;&gt;p8 -->
<g id="edge92" class="edge"><title>v40&#45;&gt;p8</title>
<path fill="none" stroke="black" d="M463.98,-438.821C441.074,-427.988 404.349,-410.618 376.359,-397.379"/>
<polygon fill="black" stroke="black" points="377.771,-394.175 367.234,-393.064 374.778,-400.503 377.771,-394.175"/>
</g>
<!-- p19 -->
<g id="node34" class="node"><title>p19</title>
<path fill="none" stroke="black" d="M432,-396C432,-396 397,-396 397,-396 391,-396 385,-390 385,-384 385,-384 385,-372 385,-372 385,-366 391,-360 397,-360 397,-360 432,-360 432,-360 438,-360 444,-366 444,-372 444,-372 444,-384 444,-384 444,-390 438,-396 432,-396"/>
<text text-anchor="middle" x="414.5" y="-374.3" font-family="Times,serif" font-size="14.00">path (2)</text>
</g>
<!-- v40&#45;&gt;p19 -->
<g id="edge90" class="edge"><title>v40&#45;&gt;p19</title>
<path fill="none" stroke="black" d="M470.789,-434.496C461.702,-425.538 449.811,-413.813 439.299,-403.45"/>
<polygon fill="black" stroke="black" points="441.528,-400.732 431.95,-396.204 436.613,-405.717 441.528,-400.732"/>
</g>
<!-- v239 -->
<g id="node118" class="node"><title>v239</title>
<ellipse fill="none" stroke="black" cx="489.5" cy="-378" rx="27" ry="18"/>
<text text-anchor="middle" x="489.5" y="-374.3" font-family="Times,serif" font-size="14.00">239</text>
</g>
<!-- v40&#45;&gt;v239 -->
<g id="edge127" class="edge"><title>v40&#45;&gt;v239</title>
<path fill="none" stroke="black" d="M486.489,-431.697C486.93,-423.983 487.459,-414.712 487.951,-406.112"/>
<polygon fill="black" stroke="black" points="491.446,-406.288 488.523,-396.104 484.458,-405.888 491.446,-406.288"/>
</g>
<!-- p16 -->
<g id="node29" class="node"><title>p16</title>
<path fill="none" stroke="black" d="M1116,-756C1116,-756 1081,-756 1081,-756 1075,-756 1069,-750 1069,-744 1069,-744 1069,-732 1069,-732 1069,-726 1075,-720 1081,-720 1081,-720 1116,-720 1116,-720 1122,-720 1128,-726 1128,-732 1128,-732 1128,-744 1128,-744 1128,-750 1122,-756 1116,-756"/>
<text text-anchor="middle" x="1098.5" y="-734.3" font-family="Times,serif" font-size="14.00">path (3)</text>
</g>
<!-- v42&#45;&gt;p3 -->
<g id="edge18" class="edge"><title>v42&#45;&gt;p3</title>
<path fill="none" stroke="black" d="M1073.5,-1083.17C1062.83,-1073.95 1048.54,-1061.6 1036.07,-1050.82"/>
<polygon fill="black" stroke="black" points="1038.05,-1047.91 1028.19,-1044.02 1033.47,-1053.21 1038.05,-1047.91"/>
</g>
<!-- p20 -->
<g id="node36" class="node"><title>p20</title>
<path fill="none" stroke="black" d="M1107,-1044C1107,-1044 1072,-1044 1072,-1044 1066,-1044 1060,-1038 1060,-1032 1060,-1032 1060,-1020 1060,-1020 1060,-1014 1066,-1008 1072,-1008 1072,-1008 1107,-1008 1107,-1008 1113,-1008 1119,-1014 1119,-1020 1119,-1020 1119,-1032 1119,-1032 1119,-1038 1113,-1044 1107,-1044"/>
<text text-anchor="middle" x="1089.5" y="-1022.3" font-family="Times,serif" font-size="14.00">path (2)</text>
</g>
<!-- v42&#45;&gt;p20 -->
<g id="edge114" class="edge"><title>v42&#45;&gt;p20</title>
<path fill="none" stroke="black" d="M1089.5,-1079.7C1089.5,-1071.98 1089.5,-1062.71 1089.5,-1054.11"/>
<polygon fill="black" stroke="black" points="1093,-1054.1 1089.5,-1044.1 1086,-1054.1 1093,-1054.1"/>
</g>
<!-- v47 -->
<g id="node32" class="node"><title>v47</title>
<ellipse fill="none" stroke="black" cx="1841.5" cy="-378" rx="27" ry="18"/>
<text text-anchor="middle" x="1841.5" y="-374.3" font-family="Times,serif" font-size="14.00">47</text>
</g>
<!-- p18 -->
<g id="node33" class="node"><title>p18</title>
<path fill="none" stroke="black" d="M1261,-1044C1261,-1044 1226,-1044 1226,-1044 1220,-1044 1214,-1038 1214,-1032 1214,-1032 1214,-1020 1214,-1020 1214,-1014 1220,-1008 1226,-1008 1226,-1008 1261,-1008 1261,-1008 1267,-1008 1273,-1014 1273,-1020 1273,-1020 1273,-1032 1273,-1032 1273,-1038 1267,-1044 1261,-1044"/>
<text text-anchor="middle" x="1243.5" y="-1022.3" font-family="Times,serif" font-size="14.00">path (5)</text>
</g>
<!-- v140 -->
<g id="node75" class="node"><title>v140</title>
<ellipse fill="none" stroke="black" cx="1243.5" cy="-954" rx="27" ry="18"/>
<text text-anchor="middle" x="1243.5" y="-950.3" font-family="Times,serif" font-size="14.00">140</text>
</g>
<!-- p18&#45;&gt;v140 -->
<g id="edge75" class="edge"><title>p18&#45;&gt;v140</title>
<path fill="none" stroke="black" d="M1243.5,-1007.7C1243.5,-999.983 1243.5,-990.712 1243.5,-982.112"/>
<polygon fill="black" stroke="black" points="1247,-982.104 1243.5,-972.104 1240,-982.104 1247,-982.104"/>
</g>
<!-- v50 -->
<g id="node35" class="node"><title>v50</title>
<ellipse fill="none" stroke="black" cx="1166.5" cy="-1098" rx="27" ry="18"/>
<text text-anchor="middle" x="1166.5" y="-1094.3" font-family="Times,serif" font-size="14.00">50</text>
</g>
<!-- v50&#45;&gt;p15 -->
<g id="edge84" class="edge"><title>v50&#45;&gt;p15</title>
<path fill="none" stroke="black" d="M1166.5,-1079.7C1166.5,-1071.98 1166.5,-1062.71 1166.5,-1054.11"/>
<polygon fill="black" stroke="black" points="1170,-1054.1 1166.5,-1044.1 1163,-1054.1 1170,-1054.1"/>
</g>
<!-- v50&#45;&gt;p18 -->
<g id="edge99" class="edge"><title>v50&#45;&gt;p18</title>
<path fill="none" stroke="black" d="M1182.08,-1082.83C1192.08,-1073.75 1205.32,-1061.71 1216.94,-1051.14"/>
<polygon fill="black" stroke="black" points="1219.63,-1053.43 1224.68,-1044.11 1214.92,-1048.25 1219.63,-1053.43"/>
</g>
<!-- p22&#45;&gt;v50 -->
<g id="edge35" class="edge"><title>p22&#45;&gt;v50</title>
<path fill="none" stroke="black" d="M1166.5,-1151.7C1166.5,-1143.98 1166.5,-1134.71 1166.5,-1126.11"/>
<polygon fill="black" stroke="black" points="1170,-1126.1 1166.5,-1116.1 1163,-1126.1 1170,-1126.1"/>
</g>
<!-- v86 -->
<g id="node40" class="node"><title>v86</title>
<ellipse fill="none" stroke="black" cx="1802.5" cy="-594" rx="27" ry="18"/>
<text text-anchor="middle" x="1802.5" y="-590.3" font-family="Times,serif" font-size="14.00">86</text>
</g>
<!-- v86&#45;&gt;p11 -->
<g id="edge87" class="edge"><title>v86&#45;&gt;p11</title>
<path fill="none" stroke="black" d="M1776.71,-588.193C1735.64,-580.208 1653.11,-562.806 1585.5,-540 1585.4,-539.968 1585.31,-539.935 1585.21,-539.902"/>
<polygon fill="black" stroke="black" points="1586.7,-536.72 1576.1,-536.529 1584.27,-543.285 1586.7,-536.72"/>
</g>
<!-- v86&#45;&gt;v29 -->
<g id="edge72" class="edge"><title>v86&#45;&gt;v29</title>
<path fill="none" stroke="black" d="M1778.89,-585.109C1749.98,-575.279 1699.67,-557.619 1657.5,-540 1655.68,-539.241 1653.82,-538.439 1651.95,-537.615"/>
<polygon fill="black" stroke="black" points="1653.23,-534.35 1642.68,-533.391 1650.33,-540.72 1653.23,-534.35"/>
</g>
<!-- v88 -->
<g id="node42" class="node"><title>v88</title>
<ellipse fill="none" stroke="black" cx="1693.5" cy="-522" rx="27" ry="18"/>
<text text-anchor="middle" x="1693.5" y="-518.3" font-family="Times,serif" font-size="14.00">88</text>
</g>
<!-- v86&#45;&gt;v88 -->
<g id="edge86" class="edge"><title>v86&#45;&gt;v88</title>
<path fill="none" stroke="black" d="M1783.51,-580.807C1766.16,-569.665 1740.31,-553.062 1720.76,-540.504"/>
<polygon fill="black" stroke="black" points="1722.57,-537.512 1712.27,-535.053 1718.79,-543.402 1722.57,-537.512"/>
</g>
<!-- v100 -->
<g id="node52" class="node"><title>v100</title>
<ellipse fill="none" stroke="black" cx="1765.5" cy="-522" rx="27" ry="18"/>
<text text-anchor="middle" x="1765.5" y="-518.3" font-family="Times,serif" font-size="14.00">100</text>
</g>
<!-- v86&#45;&gt;v100 -->
<g id="edge30" class="edge"><title>v86&#45;&gt;v100</title>
<path fill="none" stroke="black" d="M1793.92,-576.765C1789.44,-568.283 1783.85,-557.714 1778.82,-548.197"/>
<polygon fill="black" stroke="black" points="1781.8,-546.353 1774.04,-539.147 1775.61,-549.624 1781.8,-546.353"/>
</g>
<!-- p27 -->
<g id="node54" class="node"><title>p27</title>
<path fill="none" stroke="black" d="M1858,-540C1858,-540 1823,-540 1823,-540 1817,-540 1811,-534 1811,-528 1811,-528 1811,-516 1811,-516 1811,-510 1817,-504 1823,-504 1823,-504 1858,-504 1858,-504 1864,-504 1870,-510 1870,-516 1870,-516 1870,-528 1870,-528 1870,-534 1864,-540 1858,-540"/>
<text text-anchor="middle" x="1840.5" y="-518.3" font-family="Times,serif" font-size="14.00">path (2)</text>
</g>
<!-- v86&#45;&gt;p27 -->
<g id="edge106" class="edge"><title>v86&#45;&gt;p27</title>
<path fill="none" stroke="black" d="M1811.31,-576.765C1815.79,-568.525 1821.33,-558.317 1826.38,-549.016"/>
<polygon fill="black" stroke="black" points="1829.51,-550.582 1831.2,-540.124 1823.36,-547.243 1829.51,-550.582"/>
</g>
<!-- v107 -->
<g id="node59" class="node"><title>v107</title>
<ellipse fill="none" stroke="black" cx="1915.5" cy="-522" rx="27" ry="18"/>
<text text-anchor="middle" x="1915.5" y="-518.3" font-family="Times,serif" font-size="14.00">107</text>
</g>
<!-- v86&#45;&gt;v107 -->
<g id="edge32" class="edge"><title>v86&#45;&gt;v107</title>
<path fill="none" stroke="black" d="M1821.67,-581.125C1839.77,-569.913 1867.12,-552.968 1887.63,-540.263"/>
<polygon fill="black" stroke="black" points="1889.58,-543.174 1896.24,-534.933 1885.89,-537.224 1889.58,-543.174"/>
</g>
<!-- v110 -->
<g id="node60" class="node"><title>v110</title>
<ellipse fill="none" stroke="black" cx="1987.5" cy="-522" rx="27" ry="18"/>
<text text-anchor="middle" x="1987.5" y="-518.3" font-family="Times,serif" font-size="14.00">110</text>
</g>
<!-- v86&#45;&gt;v110 -->
<g id="edge23" class="edge"><title>v86&#45;&gt;v110</title>
<path fill="none" stroke="black" d="M1826.26,-585.361C1855.9,-575.646 1907.98,-557.966 1951.5,-540 1953.32,-539.248 1955.18,-538.453 1957.05,-537.634"/>
<polygon fill="black" stroke="black" points="1958.68,-540.741 1966.34,-533.422 1955.78,-534.367 1958.68,-540.741"/>
</g>
<!-- v111 -->
<g id="node61" class="node"><title>v111</title>
<ellipse fill="none" stroke="black" cx="2059.5" cy="-522" rx="27" ry="18"/>
<text text-anchor="middle" x="2059.5" y="-518.3" font-family="Times,serif" font-size="14.00">111</text>
</g>
<!-- v86&#45;&gt;v111 -->
<g id="edge63" class="edge"><title>v86&#45;&gt;v111</title>
<path fill="none" stroke="black" d="M1828.52,-588.56C1870.35,-581.024 1954.83,-564.158 2023.5,-540 2025.41,-539.329 2027.35,-538.59 2029.29,-537.806"/>
<polygon fill="black" stroke="black" points="2031.1,-540.837 2038.87,-533.632 2028.3,-534.42 2031.1,-540.837"/>
</g>
<!-- p28 -->
<g id="node63" class="node"><title>p28</title>
<path fill="none" stroke="black" d="M2152,-540C2152,-540 2117,-540 2117,-540 2111,-540 2105,-534 2105,-528 2105,-528 2105,-516 2105,-516 2105,-510 2111,-504 2117,-504 2117,-504 2152,-504 2152,-504 2158,-504 2164,-510 2164,-516 2164,-516 2164,-528 2164,-528 2164,-534 2158,-540 2152,-540"/>
<text text-anchor="middle" x="2134.5" y="-518.3" font-family="Times,serif" font-size="14.00">path (2)</text>
</g>
<!-- v86&#45;&gt;p28 -->
<g id="edge27" class="edge"><title>v86&#45;&gt;p28</title>
<path fill="none" stroke="black" d="M1829.25,-590.266C1881.37,-584.481 1999.79,-569.083 2095.5,-540 2095.6,-539.97 2095.69,-539.941 2095.79,-539.911"/>
<polygon fill="black" stroke="black" points="2096.66,-543.314 2104.96,-536.722 2094.36,-536.702 2096.66,-543.314"/>
</g>
<!-- v126 -->
<g id="node68" class="node"><title>v126</title>
<ellipse fill="none" stroke="black" cx="2209.5" cy="-522" rx="27" ry="18"/>
<text text-anchor="middle" x="2209.5" y="-518.3" font-family="Times,serif" font-size="14.00">126</text>
</g>
<!-- v86&#45;&gt;v126 -->
<g id="edge6" class="edge"><title>v86&#45;&gt;v126</title>
<path fill="none" stroke="black" d="M1829.53,-591.791C1891.42,-588.452 2047.69,-576.766 2172.5,-540 2174.79,-539.326 2177.12,-538.534 2179.43,-537.667"/>
<polygon fill="black" stroke="black" points="2180.88,-540.857 2188.77,-533.791 2178.2,-534.392 2180.88,-540.857"/>
</g>
<!-- p31 -->
<g id="node77" class="node"><title>p31</title>
<path fill="none" stroke="black" d="M2302,-540C2302,-540 2267,-540 2267,-540 2261,-540 2255,-534 2255,-528 2255,-528 2255,-516 2255,-516 2255,-510 2261,-504 2267,-504 2267,-504 2302,-504 2302,-504 2308,-504 2314,-510 2314,-516 2314,-516 2314,-528 2314,-528 2314,-534 2308,-540 2302,-540"/>
<text text-anchor="middle" x="2284.5" y="-518.3" font-family="Times,serif" font-size="14.00">path (3)</text>
</g>
<!-- v86&#45;&gt;p31 -->
<g id="edge54" class="edge"><title>v86&#45;&gt;p31</title>
<path fill="none" stroke="black" d="M1829.48,-592.495C1898,-590.643 2084.04,-582.063 2244.53,-539.774"/>
<polygon fill="black" stroke="black" points="2245.83,-543.05 2254.58,-537.074 2244.02,-536.29 2245.83,-543.05"/>
</g>
<!-- v205 -->
<g id="node106" class="node"><title>v205</title>
<ellipse fill="none" stroke="black" cx="1399.5" cy="-522" rx="27" ry="18"/>
<text text-anchor="middle" x="1399.5" y="-518.3" font-family="Times,serif" font-size="14.00">205</text>
</g>
<!-- v86&#45;&gt;v205 -->
<g id="edge70" class="edge"><title>v86&#45;&gt;v205</title>
<path fill="none" stroke="black" d="M1775.66,-591.851C1714.21,-588.637 1559.1,-577.194 1435.5,-540 1433.56,-539.417 1431.6,-538.746 1429.64,-538.014"/>
<polygon fill="black" stroke="black" points="1430.6,-534.62 1420.02,-533.974 1427.89,-541.073 1430.6,-534.62"/>
</g>
<!-- v260 -->
<g id="node123" class="node"><title>v260</title>
<ellipse fill="none" stroke="black" cx="1471.5" cy="-522" rx="27" ry="18"/>
<text text-anchor="middle" x="1471.5" y="-518.3" font-family="Times,serif" font-size="14.00">260</text>
</g>
<!-- v86&#45;&gt;v260 -->
<g id="edge39" class="edge"><title>v86&#45;&gt;v260</title>
<path fill="none" stroke="black" d="M1775.89,-590.59C1723.49,-585.329 1603.65,-570.744 1507.5,-540 1505.57,-539.384 1503.62,-538.687 1501.67,-537.936"/>
<polygon fill="black" stroke="black" points="1502.63,-534.544 1492.06,-533.846 1499.89,-540.985 1502.63,-534.544"/>
</g>
<!-- v87 -->
<g id="node41" class="node"><title>v87</title>
<ellipse fill="none" stroke="black" cx="2129.5" cy="-378" rx="27" ry="18"/>
<text text-anchor="middle" x="2129.5" y="-374.3" font-family="Times,serif" font-size="14.00">87</text>
</g>
<!-- v87&#45;&gt;v31 -->
<g id="edge108" class="edge"><title>v87&#45;&gt;v31</title>
<path fill="none" stroke="black" d="M2137.85,-360.765C2142.21,-352.283 2147.65,-341.714 2152.54,-332.197"/>
<polygon fill="black" stroke="black" points="2155.73,-333.641 2157.2,-323.147 2149.51,-330.439 2155.73,-333.641"/>
</g>
<!-- v112 -->
<g id="node62" class="node"><title>v112</title>
<ellipse fill="none" stroke="black" cx="2093.5" cy="-306" rx="27" ry="18"/>
<text text-anchor="middle" x="2093.5" y="-302.3" font-family="Times,serif" font-size="14.00">112</text>
</g>
<!-- v87&#45;&gt;v112 -->
<g id="edge24" class="edge"><title>v87&#45;&gt;v112</title>
<path fill="none" stroke="black" d="M2121.15,-360.765C2116.79,-352.283 2111.35,-341.714 2106.46,-332.197"/>
<polygon fill="black" stroke="black" points="2109.49,-330.439 2101.8,-323.147 2103.27,-333.641 2109.49,-330.439"/>
</g>
<!-- p25 -->
<g id="node49" class="node"><title>p25</title>
<path fill="none" stroke="black" d="M1630,-468C1630,-468 1595,-468 1595,-468 1589,-468 1583,-462 1583,-456 1583,-456 1583,-444 1583,-444 1583,-438 1589,-432 1595,-432 1595,-432 1630,-432 1630,-432 1636,-432 1642,-438 1642,-444 1642,-444 1642,-456 1642,-456 1642,-462 1636,-468 1630,-468"/>
<text text-anchor="middle" x="1612.5" y="-446.3" font-family="Times,serif" font-size="14.00">path (3)</text>
</g>
<!-- v88&#45;&gt;p25 -->
<g id="edge52" class="edge"><title>v88&#45;&gt;p25</title>
<path fill="none" stroke="black" d="M1677.5,-507.17C1666.83,-497.953 1652.54,-485.599 1640.07,-474.823"/>
<polygon fill="black" stroke="black" points="1642.05,-471.91 1632.19,-468.019 1637.47,-477.206 1642.05,-471.91"/>
</g>
<!-- v138 -->
<g id="node74" class="node"><title>v138</title>
<ellipse fill="none" stroke="black" cx="1537.5" cy="-450" rx="27" ry="18"/>
<text text-anchor="middle" x="1537.5" y="-446.3" font-family="Times,serif" font-size="14.00">138</text>
</g>
<!-- v88&#45;&gt;v138 -->
<g id="edge64" class="edge"><title>v88&#45;&gt;v138</title>
<path fill="none" stroke="black" d="M1672.24,-510.804C1667.41,-508.531 1662.29,-506.157 1657.5,-504 1620.46,-487.325 1610.54,-484.675 1573.5,-468 1571.7,-467.191 1569.86,-466.352 1568.01,-465.499"/>
<polygon fill="black" stroke="black" points="1569.3,-462.243 1558.76,-461.196 1566.35,-468.589 1569.3,-462.243"/>
</g>
<!-- v90 -->
<g id="node43" class="node"><title>v90</title>
<ellipse fill="none" stroke="black" cx="1689.5" cy="-306" rx="27" ry="18"/>
<text text-anchor="middle" x="1689.5" y="-302.3" font-family="Times,serif" font-size="14.00">90</text>
</g>
<!-- v92 -->
<g id="node45" class="node"><title>v92</title>
<ellipse fill="none" stroke="black" cx="1689.5" cy="-378" rx="27" ry="18"/>
<text text-anchor="middle" x="1689.5" y="-374.3" font-family="Times,serif" font-size="14.00">92</text>
</g>
<!-- v90&#45;&gt;v92 -->
<g id="edge98" class="edge"><title>v90&#45;&gt;v92</title>
<path fill="none" stroke="black" d="M1695.38,-323.956C1696.21,-331.827 1696.45,-341.374 1696.08,-350.187"/>
<polygon fill="black" stroke="black" points="1692.57,-350.184 1695.34,-360.411 1699.56,-350.691 1692.57,-350.184"/>
</g>
<!-- v91 -->
<g id="node44" class="node"><title>v91</title>
<ellipse fill="none" stroke="black" cx="2273.5" cy="-378" rx="27" ry="18"/>
<text text-anchor="middle" x="2273.5" y="-374.3" font-family="Times,serif" font-size="14.00">91</text>
</g>
<!-- v92&#45;&gt;v90 -->
<g id="edge74" class="edge"><title>v92&#45;&gt;v90</title>
<path fill="none" stroke="black" d="M1683.66,-360.411C1682.8,-352.507 1682.55,-342.852 1682.91,-333.935"/>
<polygon fill="black" stroke="black" points="1686.4,-334.179 1683.62,-323.956 1679.42,-333.683 1686.4,-334.179"/>
</g>
<!-- v128 -->
<g id="node69" class="node"><title>v128</title>
<ellipse fill="none" stroke="black" cx="1617.5" cy="-306" rx="27" ry="18"/>
<text text-anchor="middle" x="1617.5" y="-302.3" font-family="Times,serif" font-size="14.00">128</text>
</g>
<!-- v92&#45;&gt;v128 -->
<g id="edge48" class="edge"><title>v92&#45;&gt;v128</title>
<path fill="none" stroke="black" d="M1674.93,-362.834C1664.75,-352.938 1650.98,-339.546 1639.47,-328.359"/>
<polygon fill="black" stroke="black" points="1641.91,-325.846 1632.3,-321.385 1637.03,-330.865 1641.91,-325.846"/>
</g>
<!-- p24 -->
<g id="node46" class="node"><title>p24</title>
<path fill="none" stroke="black" d="M1223,-900C1223,-900 1188,-900 1188,-900 1182,-900 1176,-894 1176,-888 1176,-888 1176,-876 1176,-876 1176,-870 1182,-864 1188,-864 1188,-864 1223,-864 1223,-864 1229,-864 1235,-870 1235,-876 1235,-876 1235,-888 1235,-888 1235,-894 1229,-900 1223,-900"/>
<text text-anchor="middle" x="1205.5" y="-878.3" font-family="Times,serif" font-size="14.00">path (5)</text>
</g>
<!-- v94 -->
<g id="node47" class="node"><title>v94</title>
<ellipse fill="none" stroke="black" cx="2201.5" cy="-378" rx="27" ry="18"/>
<text text-anchor="middle" x="2201.5" y="-374.3" font-family="Times,serif" font-size="14.00">94</text>
</g>
<!-- v95&#45;&gt;v0 -->
<g id="edge101" class="edge"><title>v95&#45;&gt;v0</title>
<path fill="none" stroke="black" d="M1026.27,-526.401C929.963,-538.117 596.654,-576.752 485.099,-589.141"/>
<polygon fill="black" stroke="black" points="484.566,-585.678 475.011,-590.256 485.335,-592.636 484.566,-585.678"/>
</g>
<!-- p29 -->
<g id="node64" class="node"><title>p29</title>
<path fill="none" stroke="black" d="M1109,-468C1109,-468 1074,-468 1074,-468 1068,-468 1062,-462 1062,-456 1062,-456 1062,-444 1062,-444 1062,-438 1068,-432 1074,-432 1074,-432 1109,-432 1109,-432 1115,-432 1121,-438 1121,-444 1121,-444 1121,-456 1121,-456 1121,-462 1115,-468 1109,-468"/>
<text text-anchor="middle" x="1091.5" y="-446.3" font-family="Times,serif" font-size="14.00">path (3)</text>
</g>
<!-- v95&#45;&gt;p29 -->
<g id="edge9" class="edge"><title>v95&#45;&gt;p29</title>
<path fill="none" stroke="black" d="M1061.55,-504.765C1066.14,-496.525 1071.82,-486.317 1077.01,-477.016"/>
<polygon fill="black" stroke="black" points="1080.15,-478.563 1081.96,-468.124 1074.03,-475.156 1080.15,-478.563"/>
</g>
<!-- v177 -->
<g id="node95" class="node"><title>v177</title>
<ellipse fill="none" stroke="black" cx="1166.5" cy="-450" rx="27" ry="18"/>
<text text-anchor="middle" x="1166.5" y="-446.3" font-family="Times,serif" font-size="14.00">177</text>
</g>
<!-- v95&#45;&gt;v177 -->
<g id="edge37" class="edge"><title>v95&#45;&gt;v177</title>
<path fill="none" stroke="black" d="M1071.84,-509.125C1090.1,-497.913 1117.69,-480.968 1138.39,-468.263"/>
<polygon fill="black" stroke="black" points="1140.38,-471.148 1147.07,-462.933 1136.71,-465.183 1140.38,-471.148"/>
</g>
<!-- p41 -->
<g id="node103" class="node"><title>p41</title>
<path fill="none" stroke="black" d="M1259,-468C1259,-468 1224,-468 1224,-468 1218,-468 1212,-462 1212,-456 1212,-456 1212,-444 1212,-444 1212,-438 1218,-432 1224,-432 1224,-432 1259,-432 1259,-432 1265,-432 1271,-438 1271,-444 1271,-444 1271,-456 1271,-456 1271,-462 1265,-468 1259,-468"/>
<text text-anchor="middle" x="1241.5" y="-446.3" font-family="Times,serif" font-size="14.00">path (2)</text>
</g>
<!-- v95&#45;&gt;p41 -->
<g id="edge14" class="edge"><title>v95&#45;&gt;p41</title>
<path fill="none" stroke="black" d="M1076.34,-513.165C1106.09,-503.25 1158.43,-485.365 1202.5,-468 1202.59,-467.963 1202.69,-467.925 1202.78,-467.888"/>
<polygon fill="black" stroke="black" points="1203.85,-471.235 1211.78,-464.215 1201.2,-464.754 1203.85,-471.235"/>
</g>
<!-- p42 -->
<g id="node104" class="node"><title>p42</title>
<path fill="none" stroke="black" d="M1336,-468C1336,-468 1301,-468 1301,-468 1295,-468 1289,-462 1289,-456 1289,-456 1289,-444 1289,-444 1289,-438 1295,-432 1301,-432 1301,-432 1336,-432 1336,-432 1342,-432 1348,-438 1348,-444 1348,-444 1348,-456 1348,-456 1348,-462 1342,-468 1336,-468"/>
<text text-anchor="middle" x="1318.5" y="-446.3" font-family="Times,serif" font-size="14.00">path (6)</text>
</g>
<!-- v95&#45;&gt;p42 -->
<g id="edge28" class="edge"><title>v95&#45;&gt;p42</title>
<path fill="none" stroke="black" d="M1078.45,-516.532C1121.07,-508.843 1208.24,-491.63 1279.5,-468 1279.6,-467.968 1279.69,-467.936 1279.79,-467.904"/>
<polygon fill="black" stroke="black" points="1280.72,-471.29 1288.91,-464.561 1278.31,-464.717 1280.72,-471.29"/>
</g>
<!-- p46 -->
<g id="node117" class="node"><title>p46</title>
<path fill="none" stroke="black" d="M882,-468C882,-468 847,-468 847,-468 841,-468 835,-462 835,-456 835,-456 835,-444 835,-444 835,-438 841,-432 847,-432 847,-432 882,-432 882,-432 888,-432 894,-438 894,-444 894,-444 894,-456 894,-456 894,-462 888,-468 882,-468"/>
<text text-anchor="middle" x="864.5" y="-446.3" font-family="Times,serif" font-size="14.00">path (4)</text>
</g>
<!-- v95&#45;&gt;p46 -->
<g id="edge49" class="edge"><title>v95&#45;&gt;p46</title>
<path fill="none" stroke="black" d="M1028.83,-513.146C999.279,-503.212 947.29,-485.308 903.5,-468 903.406,-467.963 903.311,-467.925 903.216,-467.888"/>
<polygon fill="black" stroke="black" points="904.802,-464.755 894.222,-464.208 902.152,-471.234 904.802,-464.755"/>
</g>
<!-- v241 -->
<g id="node119" class="node"><title>v241</title>
<ellipse fill="none" stroke="black" cx="939.5" cy="-450" rx="27" ry="18"/>
<text text-anchor="middle" x="939.5" y="-446.3" font-family="Times,serif" font-size="14.00">241</text>
</g>
<!-- v95&#45;&gt;v241 -->
<g id="edge80" class="edge"><title>v95&#45;&gt;v241</title>
<path fill="none" stroke="black" d="M1033.33,-509.125C1015.23,-497.913 987.877,-480.968 967.367,-468.263"/>
<polygon fill="black" stroke="black" points="969.107,-465.224 958.763,-462.933 965.421,-471.174 969.107,-465.224"/>
</g>
<!-- p47 -->
<g id="node120" class="node"><title>p47</title>
<path fill="none" stroke="black" d="M1032,-468C1032,-468 997,-468 997,-468 991,-468 985,-462 985,-456 985,-456 985,-444 985,-444 985,-438 991,-432 997,-432 997,-432 1032,-432 1032,-432 1038,-432 1044,-438 1044,-444 1044,-444 1044,-456 1044,-456 1044,-462 1038,-468 1032,-468"/>
<text text-anchor="middle" x="1014.5" y="-446.3" font-family="Times,serif" font-size="14.00">path (4)</text>
</g>
<!-- v95&#45;&gt;p47 -->
<g id="edge2" class="edge"><title>v95&#45;&gt;p47</title>
<path fill="none" stroke="black" d="M1043.69,-504.765C1039.21,-496.525 1033.67,-486.317 1028.62,-477.016"/>
<polygon fill="black" stroke="black" points="1031.64,-475.243 1023.8,-468.124 1025.49,-478.582 1031.64,-475.243"/>
</g>
<!-- v97 -->
<g id="node50" class="node"><title>v97</title>
<ellipse fill="none" stroke="black" cx="1913.5" cy="-450" rx="27" ry="18"/>
<text text-anchor="middle" x="1913.5" y="-446.3" font-family="Times,serif" font-size="14.00">97</text>
</g>
<!-- v97&#45;&gt;v47 -->
<g id="edge61" class="edge"><title>v97&#45;&gt;v47</title>
<path fill="none" stroke="black" d="M1898.93,-434.834C1888.75,-424.938 1874.98,-411.546 1863.47,-400.359"/>
<polygon fill="black" stroke="black" points="1865.91,-397.846 1856.3,-393.385 1861.03,-402.865 1865.91,-397.846"/>
</g>
<!-- v103 -->
<g id="node55" class="node"><title>v103</title>
<ellipse fill="none" stroke="black" cx="1913.5" cy="-378" rx="27" ry="18"/>
<text text-anchor="middle" x="1913.5" y="-374.3" font-family="Times,serif" font-size="14.00">103</text>
</g>
<!-- v97&#45;&gt;v103 -->
<g id="edge20" class="edge"><title>v97&#45;&gt;v103</title>
<path fill="none" stroke="black" d="M1913.5,-431.697C1913.5,-423.983 1913.5,-414.712 1913.5,-406.112"/>
<polygon fill="black" stroke="black" points="1917,-406.104 1913.5,-396.104 1910,-406.104 1917,-406.104"/>
</g>
<!-- p26 -->
<g id="node51" class="node"><title>p26</title>
<path fill="none" stroke="black" d="M919,-324C919,-324 884,-324 884,-324 878,-324 872,-318 872,-312 872,-312 872,-300 872,-300 872,-294 878,-288 884,-288 884,-288 919,-288 919,-288 925,-288 931,-294 931,-300 931,-300 931,-312 931,-312 931,-318 925,-324 919,-324"/>
<text text-anchor="middle" x="901.5" y="-302.3" font-family="Times,serif" font-size="14.00">path (2)</text>
</g>
<!-- v118 -->
<g id="node66" class="node"><title>v118</title>
<ellipse fill="none" stroke="black" cx="1841.5" cy="-450" rx="27" ry="18"/>
<text text-anchor="middle" x="1841.5" y="-446.3" font-family="Times,serif" font-size="14.00">118</text>
</g>
<!-- v100&#45;&gt;v118 -->
<g id="edge57" class="edge"><title>v100&#45;&gt;v118</title>
<path fill="none" stroke="black" d="M1780.88,-506.834C1791.7,-496.872 1806.36,-483.369 1818.55,-472.137"/>
<polygon fill="black" stroke="black" points="1821.16,-474.494 1826.14,-465.144 1816.42,-469.345 1821.16,-474.494"/>
</g>
<!-- p30 -->
<g id="node73" class="node"><title>p30</title>
<path fill="none" stroke="black" d="M1707,-468C1707,-468 1672,-468 1672,-468 1666,-468 1660,-462 1660,-456 1660,-456 1660,-444 1660,-444 1660,-438 1666,-432 1672,-432 1672,-432 1707,-432 1707,-432 1713,-432 1719,-438 1719,-444 1719,-444 1719,-456 1719,-456 1719,-462 1713,-468 1707,-468"/>
<text text-anchor="middle" x="1689.5" y="-446.3" font-family="Times,serif" font-size="14.00">path (2)</text>
</g>
<!-- v100&#45;&gt;p30 -->
<g id="edge104" class="edge"><title>v100&#45;&gt;p30</title>
<path fill="none" stroke="black" d="M1750.12,-506.834C1740.25,-497.746 1727.19,-485.71 1715.71,-475.141"/>
<polygon fill="black" stroke="black" points="1717.81,-472.313 1708.08,-468.113 1713.06,-477.462 1717.81,-472.313"/>
</g>
<!-- p32 -->
<g id="node78" class="node"><title>p32</title>
<path fill="none" stroke="black" d="M1784,-468C1784,-468 1749,-468 1749,-468 1743,-468 1737,-462 1737,-456 1737,-456 1737,-444 1737,-444 1737,-438 1743,-432 1749,-432 1749,-432 1784,-432 1784,-432 1790,-432 1796,-438 1796,-444 1796,-444 1796,-456 1796,-456 1796,-462 1790,-468 1784,-468"/>
<text text-anchor="middle" x="1766.5" y="-446.3" font-family="Times,serif" font-size="14.00">path (4)</text>
</g>
<!-- v100&#45;&gt;p32 -->
<g id="edge113" class="edge"><title>v100&#45;&gt;p32</title>
<path fill="none" stroke="black" d="M1765.75,-503.697C1765.86,-495.983 1765.99,-486.712 1766.11,-478.112"/>
<polygon fill="black" stroke="black" points="1769.61,-478.153 1766.26,-468.104 1762.61,-478.053 1769.61,-478.153"/>
</g>
<!-- v101 -->
<g id="node53" class="node"><title>v101</title>
<ellipse fill="none" stroke="black" cx="978.5" cy="-378" rx="27" ry="18"/>
<text text-anchor="middle" x="978.5" y="-374.3" font-family="Times,serif" font-size="14.00">101</text>
</g>
<!-- v101&#45;&gt;p5 -->
<g id="edge79" class="edge"><title>v101&#45;&gt;p5</title>
<path fill="none" stroke="black" d="M978.5,-359.697C978.5,-351.983 978.5,-342.712 978.5,-334.112"/>
<polygon fill="black" stroke="black" points="982,-334.104 978.5,-324.104 975,-334.104 982,-334.104"/>
</g>
<!-- v101&#45;&gt;p26 -->
<g id="edge17" class="edge"><title>v101&#45;&gt;p26</title>
<path fill="none" stroke="black" d="M962.918,-362.834C952.921,-353.746 939.682,-341.71 928.055,-331.141"/>
<polygon fill="black" stroke="black" points="930.078,-328.25 920.324,-324.113 925.369,-333.429 930.078,-328.25"/>
</g>
<!-- p27&#45;&gt;v97 -->
<g id="edge47" class="edge"><title>p27&#45;&gt;v97</title>
<path fill="none" stroke="black" d="M1858.54,-503.697C1868.47,-494.184 1880.85,-482.304 1891.36,-472.233"/>
<polygon fill="black" stroke="black" points="1893.81,-474.726 1898.61,-465.279 1888.97,-469.674 1893.81,-474.726"/>
</g>
<!-- v104 -->
<g id="node56" class="node"><title>v104</title>
<ellipse fill="none" stroke="black" cx="2058.5" cy="-450" rx="27" ry="18"/>
<text text-anchor="middle" x="2058.5" y="-446.3" font-family="Times,serif" font-size="14.00">104</text>
</g>
<!-- v104&#45;&gt;v87 -->
<g id="edge10" class="edge"><title>v104&#45;&gt;v87</title>
<path fill="none" stroke="black" d="M2073.21,-434.496C2083.11,-424.735 2096.34,-411.69 2107.49,-400.7"/>
<polygon fill="black" stroke="black" points="2110.14,-402.999 2114.81,-393.485 2105.23,-398.014 2110.14,-402.999"/>
</g>
<!-- v104&#45;&gt;v94 -->
<g id="edge100" class="edge"><title>v104&#45;&gt;v94</title>
<path fill="none" stroke="black" d="M2079.6,-438.671C2103.79,-426.832 2143.62,-407.331 2171.14,-393.862"/>
<polygon fill="black" stroke="black" points="2172.87,-396.911 2180.31,-389.371 2169.79,-390.624 2172.87,-396.911"/>
</g>
<!-- v132 -->
<g id="node71" class="node"><title>v132</title>
<ellipse fill="none" stroke="black" cx="1985.5" cy="-378" rx="27" ry="18"/>
<text text-anchor="middle" x="1985.5" y="-374.3" font-family="Times,serif" font-size="14.00">132</text>
</g>
<!-- v104&#45;&gt;v132 -->
<g id="edge16" class="edge"><title>v104&#45;&gt;v132</title>
<path fill="none" stroke="black" d="M2043.73,-434.834C2033.34,-424.872 2019.26,-411.369 2007.54,-400.137"/>
<polygon fill="black" stroke="black" points="2009.89,-397.539 2000.25,-393.144 2005.05,-402.592 2009.89,-397.539"/>
</g>
<!-- v149 -->
<g id="node79" class="node"><title>v149</title>
<ellipse fill="none" stroke="black" cx="2057.5" cy="-378" rx="27" ry="18"/>
<text text-anchor="middle" x="2057.5" y="-374.3" font-family="Times,serif" font-size="14.00">149</text>
</g>
<!-- v104&#45;&gt;v149 -->
<g id="edge12" class="edge"><title>v104&#45;&gt;v149</title>
<path fill="none" stroke="black" d="M2058.25,-431.697C2058.14,-423.983 2058.01,-414.712 2057.89,-406.112"/>
<polygon fill="black" stroke="black" points="2061.39,-406.053 2057.74,-396.104 2054.39,-406.153 2061.39,-406.053"/>
</g>
<!-- v105 -->
<g id="node57" class="node"><title>v105</title>
<ellipse fill="none" stroke="black" cx="1374.5" cy="-666" rx="27" ry="18"/>
<text text-anchor="middle" x="1374.5" y="-662.3" font-family="Times,serif" font-size="14.00">105</text>
</g>
<!-- v105&#45;&gt;v86 -->
<g id="edge110" class="edge"><title>v105&#45;&gt;v86</title>
<path fill="none" stroke="black" d="M1400.63,-660.727C1473.99,-648.728 1681.99,-614.709 1766.32,-600.917"/>
<polygon fill="black" stroke="black" points="1767.14,-604.33 1776.44,-599.262 1766.01,-597.422 1767.14,-604.33"/>
</g>
<!-- v117 -->
<g id="node65" class="node"><title>v117</title>
<ellipse fill="none" stroke="black" cx="1410.5" cy="-594" rx="27" ry="18"/>
<text text-anchor="middle" x="1410.5" y="-590.3" font-family="Times,serif" font-size="14.00">117</text>
</g>
<!-- v105&#45;&gt;v117 -->
<g id="edge46" class="edge"><title>v105&#45;&gt;v117</title>
<path fill="none" stroke="black" d="M1382.85,-648.765C1387.21,-640.283 1392.65,-629.714 1397.54,-620.197"/>
<polygon fill="black" stroke="black" points="1400.73,-621.641 1402.2,-611.147 1394.51,-618.439 1400.73,-621.641"/>
</g>
<!-- v129 -->
<g id="node70" class="node"><title>v129</title>
<ellipse fill="none" stroke="black" cx="1482.5" cy="-594" rx="27" ry="18"/>
<text text-anchor="middle" x="1482.5" y="-590.3" font-family="Times,serif" font-size="14.00">129</text>
</g>
<!-- v105&#45;&gt;v129 -->
<g id="edge94" class="edge"><title>v105&#45;&gt;v129</title>
<path fill="none" stroke="black" d="M1393.31,-652.807C1410.5,-641.665 1436.12,-625.062 1455.49,-612.504"/>
<polygon fill="black" stroke="black" points="1457.42,-615.429 1463.9,-607.053 1453.61,-609.555 1457.42,-615.429"/>
</g>
<!-- v134 -->
<g id="node72" class="node"><title>v134</title>
<ellipse fill="none" stroke="black" cx="1338.5" cy="-594" rx="27" ry="18"/>
<text text-anchor="middle" x="1338.5" y="-590.3" font-family="Times,serif" font-size="14.00">134</text>
</g>
<!-- v105&#45;&gt;v134 -->
<g id="edge83" class="edge"><title>v105&#45;&gt;v134</title>
<path fill="none" stroke="black" d="M1366.15,-648.765C1361.79,-640.283 1356.35,-629.714 1351.46,-620.197"/>
<polygon fill="black" stroke="black" points="1354.49,-618.439 1346.8,-611.147 1348.27,-621.641 1354.49,-618.439"/>
</g>
<!-- v146 -->
<g id="node76" class="node"><title>v146</title>
<ellipse fill="none" stroke="black" cx="1266.5" cy="-594" rx="27" ry="18"/>
<text text-anchor="middle" x="1266.5" y="-590.3" font-family="Times,serif" font-size="14.00">146</text>
</g>
<!-- v105&#45;&gt;v146 -->
<g id="edge67" class="edge"><title>v105&#45;&gt;v146</title>
<path fill="none" stroke="black" d="M1355.69,-652.807C1338.5,-641.665 1312.88,-625.062 1293.51,-612.504"/>
<polygon fill="black" stroke="black" points="1295.39,-609.555 1285.1,-607.053 1291.58,-615.429 1295.39,-609.555"/>
</g>
<!-- v106 -->
<g id="node58" class="node"><title>v106</title>
<ellipse fill="none" stroke="black" cx="2345.5" cy="-378" rx="27" ry="18"/>
<text text-anchor="middle" x="2345.5" y="-374.3" font-family="Times,serif" font-size="14.00">106</text>
</g>
<!-- v110&#45;&gt;v104 -->
<g id="edge97" class="edge"><title>v110&#45;&gt;v104</title>
<path fill="none" stroke="black" d="M2002.21,-506.496C2012.11,-496.735 2025.34,-483.69 2036.49,-472.7"/>
<polygon fill="black" stroke="black" points="2039.14,-474.999 2043.81,-465.485 2034.23,-470.014 2039.14,-474.999"/>
</g>
<!-- v259 -->
<g id="node122" class="node"><title>v259</title>
<ellipse fill="none" stroke="black" cx="1986.5" cy="-450" rx="27" ry="18"/>
<text text-anchor="middle" x="1986.5" y="-446.3" font-family="Times,serif" font-size="14.00">259</text>
</g>
<!-- v110&#45;&gt;v259 -->
<g id="edge59" class="edge"><title>v110&#45;&gt;v259</title>
<path fill="none" stroke="black" d="M1987.25,-503.697C1987.14,-495.983 1987.01,-486.712 1986.89,-478.112"/>
<polygon fill="black" stroke="black" points="1990.39,-478.053 1986.74,-468.104 1983.39,-478.153 1990.39,-478.053"/>
</g>
<!-- v121 -->
<g id="node67" class="node"><title>v121</title>
<ellipse fill="none" stroke="black" cx="2273.5" cy="-450" rx="27" ry="18"/>
<text text-anchor="middle" x="2273.5" y="-446.3" font-family="Times,serif" font-size="14.00">121</text>
</g>
<!-- p28&#45;&gt;v121 -->
<g id="edge29" class="edge"><title>p28&#45;&gt;v121</title>
<path fill="none" stroke="black" d="M2164.32,-505.983C2187.6,-494.261 2219.8,-478.041 2243.2,-466.258"/>
<polygon fill="black" stroke="black" points="2244.97,-469.287 2252.33,-461.664 2241.82,-463.035 2244.97,-469.287"/>
</g>
<!-- p29&#45;&gt;v101 -->
<g id="edge124" class="edge"><title>p29&#45;&gt;v101</title>
<path fill="none" stroke="black" d="M1063.86,-431.876C1046.39,-421.053 1023.88,-407.113 1006.37,-396.264"/>
<polygon fill="black" stroke="black" points="1008.06,-393.196 997.718,-390.905 1004.38,-399.146 1008.06,-393.196"/>
</g>
<!-- v121&#45;&gt;v91 -->
<g id="edge112" class="edge"><title>v121&#45;&gt;v91</title>
<path fill="none" stroke="black" d="M2273.5,-431.697C2273.5,-423.983 2273.5,-414.712 2273.5,-406.112"/>
<polygon fill="black" stroke="black" points="2277,-406.104 2273.5,-396.104 2270,-406.104 2277,-406.104"/>
</g>
<!-- v121&#45;&gt;v106 -->
<g id="edge7" class="edge"><title>v121&#45;&gt;v106</title>
<path fill="none" stroke="black" d="M2288.07,-434.834C2298.25,-424.938 2312.02,-411.546 2323.53,-400.359"/>
<polygon fill="black" stroke="black" points="2325.97,-402.865 2330.7,-393.385 2321.09,-397.846 2325.97,-402.865"/>
</g>
<!-- v134&#45;&gt;v95 -->
<g id="edge3" class="edge"><title>v134&#45;&gt;v95</title>
<path fill="none" stroke="black" d="M1317.9,-582.27C1312.95,-579.972 1307.61,-577.722 1302.5,-576 1228.66,-551.118 1138.48,-535.432 1089.13,-528.035"/>
<polygon fill="black" stroke="black" points="1089.35,-524.53 1078.95,-526.541 1088.33,-531.456 1089.35,-524.53"/>
</g>
<!-- p30&#45;&gt;v92 -->
<g id="edge69" class="edge"><title>p30&#45;&gt;v92</title>
<path fill="none" stroke="black" d="M1689.5,-431.697C1689.5,-423.983 1689.5,-414.712 1689.5,-406.112"/>
<polygon fill="black" stroke="black" points="1693,-406.104 1689.5,-396.104 1686,-406.104 1693,-406.104"/>
</g>
<!-- v140&#45;&gt;p24 -->
<g id="edge125" class="edge"><title>v140&#45;&gt;p24</title>
<path fill="none" stroke="black" d="M1234.69,-936.765C1230.21,-928.525 1224.67,-918.317 1219.62,-909.016"/>
<polygon fill="black" stroke="black" points="1222.64,-907.243 1214.8,-900.124 1216.49,-910.582 1222.64,-907.243"/>
</g>
<!-- p44 -->
<g id="node110" class="node"><title>p44</title>
<path fill="none" stroke="black" d="M1300,-900C1300,-900 1265,-900 1265,-900 1259,-900 1253,-894 1253,-888 1253,-888 1253,-876 1253,-876 1253,-870 1259,-864 1265,-864 1265,-864 1300,-864 1300,-864 1306,-864 1312,-870 1312,-876 1312,-876 1312,-888 1312,-888 1312,-894 1306,-900 1300,-900"/>
<text text-anchor="middle" x="1282.5" y="-878.3" font-family="Times,serif" font-size="14.00">path (7)</text>
</g>
<!-- v140&#45;&gt;p44 -->
<g id="edge109" class="edge"><title>v140&#45;&gt;p44</title>
<path fill="none" stroke="black" d="M1252.55,-936.765C1257.14,-928.525 1262.82,-918.317 1268.01,-909.016"/>
<polygon fill="black" stroke="black" points="1271.15,-910.563 1272.96,-900.124 1265.03,-907.156 1271.15,-910.563"/>
</g>
<!-- v155 -->
<g id="node80" class="node"><title>v155</title>
<ellipse fill="none" stroke="black" cx="978.5" cy="-162" rx="27" ry="18"/>
<text text-anchor="middle" x="978.5" y="-158.3" font-family="Times,serif" font-size="14.00">155</text>
</g>
<!-- v160 -->
<g id="node84" class="node"><title>v160</title>
<ellipse fill="none" stroke="black" cx="978.5" cy="-90" rx="27" ry="18"/>
<text text-anchor="middle" x="978.5" y="-86.3" font-family="Times,serif" font-size="14.00">160</text>
</g>
<!-- v155&#45;&gt;v160 -->
<g id="edge103" class="edge"><title>v155&#45;&gt;v160</title>
<path fill="none" stroke="black" d="M978.5,-143.697C978.5,-135.983 978.5,-126.712 978.5,-118.112"/>
<polygon fill="black" stroke="black" points="982,-118.104 978.5,-108.104 975,-118.104 982,-118.104"/>
</g>
<!-- p33 -->
<g id="node81" class="node"><title>p33</title>
<path fill="none" stroke="black" d="M1223,-324C1223,-324 1188,-324 1188,-324 1182,-324 1176,-318 1176,-312 1176,-312 1176,-300 1176,-300 1176,-294 1182,-288 1188,-288 1188,-288 1223,-288 1223,-288 1229,-288 1235,-294 1235,-300 1235,-300 1235,-312 1235,-312 1235,-318 1229,-324 1223,-324"/>
<text text-anchor="middle" x="1205.5" y="-302.3" font-family="Times,serif" font-size="14.00">path (4)</text>
</g>
<!-- p34 -->
<g id="node82" class="node"><title>p34</title>
<path fill="none" stroke="black" d="M1300,-324C1300,-324 1265,-324 1265,-324 1259,-324 1253,-318 1253,-312 1253,-312 1253,-300 1253,-300 1253,-294 1259,-288 1265,-288 1265,-288 1300,-288 1300,-288 1306,-288 1312,-294 1312,-300 1312,-300 1312,-312 1312,-312 1312,-318 1306,-324 1300,-324"/>
<text text-anchor="middle" x="1282.5" y="-302.3" font-family="Times,serif" font-size="14.00">path (3)</text>
</g>
<!-- v158 -->
<g id="node83" class="node"><title>v158</title>
<ellipse fill="none" stroke="black" cx="1053.5" cy="-234" rx="27" ry="18"/>
<text text-anchor="middle" x="1053.5" y="-230.3" font-family="Times,serif" font-size="14.00">158</text>
</g>
<!-- v158&#45;&gt;v155 -->
<g id="edge117" class="edge"><title>v158&#45;&gt;v155</title>
<path fill="none" stroke="black" d="M1038.32,-218.834C1027.65,-208.872 1013.18,-195.369 1001.15,-184.137"/>
<polygon fill="black" stroke="black" points="1003.35,-181.409 993.655,-177.144 998.577,-186.526 1003.35,-181.409"/>
</g>
<!-- p35 -->
<g id="node87" class="node"><title>p35</title>
<path fill="none" stroke="black" d="M1071,-180C1071,-180 1036,-180 1036,-180 1030,-180 1024,-174 1024,-168 1024,-168 1024,-156 1024,-156 1024,-150 1030,-144 1036,-144 1036,-144 1071,-144 1071,-144 1077,-144 1083,-150 1083,-156 1083,-156 1083,-168 1083,-168 1083,-174 1077,-180 1071,-180"/>
<text text-anchor="middle" x="1053.5" y="-158.3" font-family="Times,serif" font-size="14.00">path (6)</text>
</g>
<!-- v158&#45;&gt;p35 -->
<g id="edge60" class="edge"><title>v158&#45;&gt;p35</title>
<path fill="none" stroke="black" d="M1053.5,-215.697C1053.5,-207.983 1053.5,-198.712 1053.5,-190.112"/>
<polygon fill="black" stroke="black" points="1057,-190.104 1053.5,-180.104 1050,-190.104 1057,-190.104"/>
</g>
<!-- v167 -->
<g id="node89" class="node"><title>v167</title>
<ellipse fill="none" stroke="black" cx="942.5" cy="-18" rx="27" ry="18"/>
<text text-anchor="middle" x="942.5" y="-14.3" font-family="Times,serif" font-size="14.00">167</text>
</g>
<!-- v160&#45;&gt;v167 -->
<g id="edge118" class="edge"><title>v160&#45;&gt;v167</title>
<path fill="none" stroke="black" d="M970.15,-72.7646C965.788,-64.2831 960.353,-53.7144 955.459,-44.1974"/>
<polygon fill="black" stroke="black" points="958.49,-42.4395 950.804,-35.1473 952.265,-45.6409 958.49,-42.4395"/>
</g>
<!-- v169 -->
<g id="node90" class="node"><title>v169</title>
<ellipse fill="none" stroke="black" cx="1014.5" cy="-18" rx="27" ry="18"/>
<text text-anchor="middle" x="1014.5" y="-14.3" font-family="Times,serif" font-size="14.00">169</text>
</g>
<!-- v160&#45;&gt;v169 -->
<g id="edge81" class="edge"><title>v160&#45;&gt;v169</title>
<path fill="none" stroke="black" d="M986.85,-72.7646C991.212,-64.2831 996.647,-53.7144 1001.54,-44.1974"/>
<polygon fill="black" stroke="black" points="1004.73,-45.6409 1006.2,-35.1473 998.51,-42.4395 1004.73,-45.6409"/>
</g>
<!-- v161 -->
<g id="node85" class="node"><title>v161</title>
<ellipse fill="none" stroke="black" cx="1429.5" cy="-162" rx="27" ry="18"/>
<text text-anchor="middle" x="1429.5" y="-158.3" font-family="Times,serif" font-size="14.00">161</text>
</g>
<!-- v162 -->
<g id="node86" class="node"><title>v162</title>
<ellipse fill="none" stroke="black" cx="1357.5" cy="-234" rx="27" ry="18"/>
<text text-anchor="middle" x="1357.5" y="-230.3" font-family="Times,serif" font-size="14.00">162</text>
</g>
<!-- v162&#45;&gt;v161 -->
<g id="edge121" class="edge"><title>v162&#45;&gt;v161</title>
<path fill="none" stroke="black" d="M1372.07,-218.834C1382.25,-208.938 1396.02,-195.546 1407.53,-184.359"/>
<polygon fill="black" stroke="black" points="1409.97,-186.865 1414.7,-177.385 1405.09,-181.846 1409.97,-186.865"/>
</g>
<!-- v176 -->
<g id="node94" class="node"><title>v176</title>
<ellipse fill="none" stroke="black" cx="1285.5" cy="-162" rx="27" ry="18"/>
<text text-anchor="middle" x="1285.5" y="-158.3" font-family="Times,serif" font-size="14.00">176</text>
</g>
<!-- v162&#45;&gt;v176 -->
<g id="edge34" class="edge"><title>v162&#45;&gt;v176</title>
<path fill="none" stroke="black" d="M1342.93,-218.834C1332.75,-208.938 1318.98,-195.546 1307.47,-184.359"/>
<polygon fill="black" stroke="black" points="1309.91,-181.846 1300.3,-177.385 1305.03,-186.865 1309.91,-181.846"/>
</g>
<!-- v223 -->
<g id="node113" class="node"><title>v223</title>
<ellipse fill="none" stroke="black" cx="1357.5" cy="-162" rx="27" ry="18"/>
<text text-anchor="middle" x="1357.5" y="-158.3" font-family="Times,serif" font-size="14.00">223</text>
</g>
<!-- v162&#45;&gt;v223 -->
<g id="edge11" class="edge"><title>v162&#45;&gt;v223</title>
<path fill="none" stroke="black" d="M1357.5,-215.697C1357.5,-207.983 1357.5,-198.712 1357.5,-190.112"/>
<polygon fill="black" stroke="black" points="1361,-190.104 1357.5,-180.104 1354,-190.104 1361,-190.104"/>
</g>
<!-- v166 -->
<g id="node88" class="node"><title>v166</title>
<ellipse fill="none" stroke="black" cx="1357.5" cy="-306" rx="27" ry="18"/>
<text text-anchor="middle" x="1357.5" y="-302.3" font-family="Times,serif" font-size="14.00">166</text>
</g>
<!-- v166&#45;&gt;v162 -->
<g id="edge120" class="edge"><title>v166&#45;&gt;v162</title>
<path fill="none" stroke="black" d="M1357.5,-287.697C1357.5,-279.983 1357.5,-270.712 1357.5,-262.112"/>
<polygon fill="black" stroke="black" points="1361,-262.104 1357.5,-252.104 1354,-262.104 1361,-262.104"/>
</g>
<!-- v171 -->
<g id="node91" class="node"><title>v171</title>
<ellipse fill="none" stroke="black" cx="1166.5" cy="-378" rx="27" ry="18"/>
<text text-anchor="middle" x="1166.5" y="-374.3" font-family="Times,serif" font-size="14.00">171</text>
</g>
<!-- v171&#45;&gt;p33 -->
<g id="edge122" class="edge"><title>v171&#45;&gt;p33</title>
<path fill="none" stroke="black" d="M1175.55,-360.765C1180.14,-352.525 1185.82,-342.317 1191.01,-333.016"/>
<polygon fill="black" stroke="black" points="1194.15,-334.563 1195.96,-324.124 1188.03,-331.156 1194.15,-334.563"/>
</g>
<!-- v171&#45;&gt;p34 -->
<g id="edge38" class="edge"><title>v171&#45;&gt;p34</title>
<path fill="none" stroke="black" d="M1185.92,-365.284C1202.14,-355.496 1225.72,-341.262 1245.53,-329.311"/>
<polygon fill="black" stroke="black" points="1247.57,-332.168 1254.32,-324.004 1243.95,-326.174 1247.57,-332.168"/>
</g>
<!-- v171&#45;&gt;v166 -->
<g id="edge102" class="edge"><title>v171&#45;&gt;v166</title>
<path fill="none" stroke="black" d="M1187.6,-366.413C1192.44,-364.16 1197.6,-361.893 1202.5,-360 1253.65,-340.241 1269.25,-343.49 1320.5,-324 1322.59,-323.204 1324.74,-322.344 1326.88,-321.449"/>
<polygon fill="black" stroke="black" points="1328.42,-324.595 1336.19,-317.384 1325.62,-318.181 1328.42,-324.595"/>
</g>
<!-- v172 -->
<g id="node92" class="node"><title>v172</title>
<ellipse fill="none" stroke="black" cx="1053.5" cy="-306" rx="27" ry="18"/>
<text text-anchor="middle" x="1053.5" y="-302.3" font-family="Times,serif" font-size="14.00">172</text>
</g>
<!-- v171&#45;&gt;v172 -->
<g id="edge91" class="edge"><title>v171&#45;&gt;v172</title>
<path fill="none" stroke="black" d="M1147.33,-365.125C1129.23,-353.913 1101.88,-336.968 1081.37,-324.263"/>
<polygon fill="black" stroke="black" points="1083.11,-321.224 1072.76,-318.933 1079.42,-327.174 1083.11,-321.224"/>
</g>
<!-- p36 -->
<g id="node93" class="node"><title>p36</title>
<path fill="none" stroke="black" d="M1146,-324C1146,-324 1111,-324 1111,-324 1105,-324 1099,-318 1099,-312 1099,-312 1099,-300 1099,-300 1099,-294 1105,-288 1111,-288 1111,-288 1146,-288 1146,-288 1152,-288 1158,-294 1158,-300 1158,-300 1158,-312 1158,-312 1158,-318 1152,-324 1146,-324"/>
<text text-anchor="middle" x="1128.5" y="-302.3" font-family="Times,serif" font-size="14.00">path (2)</text>
</g>
<!-- v171&#45;&gt;p36 -->
<g id="edge42" class="edge"><title>v171&#45;&gt;p36</title>
<path fill="none" stroke="black" d="M1157.69,-360.765C1153.21,-352.525 1147.67,-342.317 1142.62,-333.016"/>
<polygon fill="black" stroke="black" points="1145.64,-331.243 1137.8,-324.124 1139.49,-334.582 1145.64,-331.243"/>
</g>
<!-- v172&#45;&gt;v158 -->
<g id="edge41" class="edge"><title>v172&#45;&gt;v158</title>
<path fill="none" stroke="black" d="M1053.5,-287.697C1053.5,-279.983 1053.5,-270.712 1053.5,-262.112"/>
<polygon fill="black" stroke="black" points="1057,-262.104 1053.5,-252.104 1050,-262.104 1057,-262.104"/>
</g>
<!-- v261 -->
<g id="node124" class="node"><title>v261</title>
<ellipse fill="none" stroke="black" cx="1128.5" cy="-234" rx="27" ry="18"/>
<text text-anchor="middle" x="1128.5" y="-230.3" font-family="Times,serif" font-size="14.00">261</text>
</g>
<!-- p36&#45;&gt;v261 -->
<g id="edge26" class="edge"><title>p36&#45;&gt;v261</title>
<path fill="none" stroke="black" d="M1128.5,-287.697C1128.5,-279.983 1128.5,-270.712 1128.5,-262.112"/>
<polygon fill="black" stroke="black" points="1132,-262.104 1128.5,-252.104 1125,-262.104 1132,-262.104"/>
</g>
<!-- v177&#45;&gt;v171 -->
<g id="edge36" class="edge"><title>v177&#45;&gt;v171</title>
<path fill="none" stroke="black" d="M1166.5,-431.697C1166.5,-423.983 1166.5,-414.712 1166.5,-406.112"/>
<polygon fill="black" stroke="black" points="1170,-406.104 1166.5,-396.104 1163,-406.104 1170,-406.104"/>
</g>
<!-- p38 -->
<g id="node97" class="node"><title>p38</title>
<path fill="none" stroke="black" d="M1259,-396C1259,-396 1224,-396 1224,-396 1218,-396 1212,-390 1212,-384 1212,-384 1212,-372 1212,-372 1212,-366 1218,-360 1224,-360 1224,-360 1259,-360 1259,-360 1265,-360 1271,-366 1271,-372 1271,-372 1271,-384 1271,-384 1271,-390 1265,-396 1259,-396"/>
<text text-anchor="middle" x="1241.5" y="-374.3" font-family="Times,serif" font-size="14.00">path (9)</text>
</g>
<!-- v177&#45;&gt;p38 -->
<g id="edge53" class="edge"><title>v177&#45;&gt;p38</title>
<path fill="none" stroke="black" d="M1181.68,-434.834C1191.42,-425.746 1204.31,-413.71 1215.63,-403.141"/>
<polygon fill="black" stroke="black" points="1218.24,-405.495 1223.16,-396.113 1213.47,-400.377 1218.24,-405.495"/>
</g>
<!-- p37 -->
<g id="node96" class="node"><title>p37</title>
<path fill="none" stroke="black" d="M617,-324C617,-324 582,-324 582,-324 576,-324 570,-318 570,-312 570,-312 570,-300 570,-300 570,-294 576,-288 582,-288 582,-288 617,-288 617,-288 623,-288 629,-294 629,-300 629,-300 629,-312 629,-312 629,-318 623,-324 617,-324"/>
<text text-anchor="middle" x="599.5" y="-302.3" font-family="Times,serif" font-size="14.00">path (5)</text>
</g>
<!-- v193 -->
<g id="node98" class="node"><title>v193</title>
<ellipse fill="none" stroke="black" cx="1146.5" cy="-666" rx="27" ry="18"/>
<text text-anchor="middle" x="1146.5" y="-662.3" font-family="Times,serif" font-size="14.00">193</text>
</g>
<!-- p39 -->
<g id="node99" class="node"><title>p39</title>
<path fill="none" stroke="black" d="M1060,-612C1060,-612 1025,-612 1025,-612 1019,-612 1013,-606 1013,-600 1013,-600 1013,-588 1013,-588 1013,-582 1019,-576 1025,-576 1025,-576 1060,-576 1060,-576 1066,-576 1072,-582 1072,-588 1072,-588 1072,-600 1072,-600 1072,-606 1066,-612 1060,-612"/>
<text text-anchor="middle" x="1042.5" y="-590.3" font-family="Times,serif" font-size="14.00">path (2)</text>
</g>
<!-- v193&#45;&gt;p39 -->
<g id="edge13" class="edge"><title>v193&#45;&gt;p39</title>
<path fill="none" stroke="black" d="M1127.91,-652.485C1113.68,-642.908 1093.66,-629.435 1076.58,-617.939"/>
<polygon fill="black" stroke="black" points="1078.21,-614.82 1067.96,-612.139 1074.31,-620.627 1078.21,-614.82"/>
</g>
<!-- p40 -->
<g id="node100" class="node"><title>p40</title>
<path fill="none" stroke="black" d="M1137,-612C1137,-612 1102,-612 1102,-612 1096,-612 1090,-606 1090,-600 1090,-600 1090,-588 1090,-588 1090,-582 1096,-576 1102,-576 1102,-576 1137,-576 1137,-576 1143,-576 1149,-582 1149,-588 1149,-588 1149,-600 1149,-600 1149,-606 1143,-612 1137,-612"/>
<text text-anchor="middle" x="1119.5" y="-590.3" font-family="Times,serif" font-size="14.00">path (3)</text>
</g>
<!-- v193&#45;&gt;p40 -->
<g id="edge1" class="edge"><title>v193&#45;&gt;p40</title>
<path fill="none" stroke="black" d="M1140.1,-648.411C1137.06,-640.539 1133.36,-630.929 1129.93,-622.042"/>
<polygon fill="black" stroke="black" points="1133.09,-620.517 1126.23,-612.447 1126.56,-623.036 1133.09,-620.517"/>
</g>
<!-- v196 -->
<g id="node101" class="node"><title>v196</title>
<ellipse fill="none" stroke="black" cx="1194.5" cy="-594" rx="27" ry="18"/>
<text text-anchor="middle" x="1194.5" y="-590.3" font-family="Times,serif" font-size="14.00">196</text>
</g>
<!-- v193&#45;&gt;v196 -->
<g id="edge22" class="edge"><title>v193&#45;&gt;v196</title>
<path fill="none" stroke="black" d="M1157.39,-649.116C1163.47,-640.255 1171.16,-629.037 1177.96,-619.115"/>
<polygon fill="black" stroke="black" points="1180.88,-621.048 1183.65,-610.821 1175.11,-617.089 1180.88,-621.048"/>
</g>
<!-- v197 -->
<g id="node102" class="node"><title>v197</title>
<ellipse fill="none" stroke="black" cx="1173.5" cy="-738" rx="27" ry="18"/>
<text text-anchor="middle" x="1173.5" y="-734.3" font-family="Times,serif" font-size="14.00">197</text>
</g>
<!-- v197&#45;&gt;v193 -->
<g id="edge107" class="edge"><title>v197&#45;&gt;v193</title>
<path fill="none" stroke="black" d="M1167.1,-720.411C1163.99,-712.335 1160.17,-702.431 1156.67,-693.355"/>
<polygon fill="black" stroke="black" points="1159.9,-692.027 1153.04,-683.956 1153.37,-694.546 1159.9,-692.027"/>
</g>
<!-- v204 -->
<g id="node105" class="node"><title>v204</title>
<ellipse fill="none" stroke="black" cx="1282.5" cy="-810" rx="27" ry="18"/>
<text text-anchor="middle" x="1282.5" y="-806.3" font-family="Times,serif" font-size="14.00">204</text>
</g>
<!-- v204&#45;&gt;p16 -->
<g id="edge77" class="edge"><title>v204&#45;&gt;p16</title>
<path fill="none" stroke="black" d="M1258.98,-800.896C1230.16,-790.853 1179.93,-772.982 1137.5,-756 1137.41,-755.962 1137.31,-755.924 1137.22,-755.887"/>
<polygon fill="black" stroke="black" points="1138.81,-752.758 1128.23,-752.181 1136.14,-759.23 1138.81,-752.758"/>
</g>
<!-- v204&#45;&gt;v197 -->
<g id="edge71" class="edge"><title>v204&#45;&gt;v197</title>
<path fill="none" stroke="black" d="M1263.51,-796.807C1246.16,-785.665 1220.31,-769.062 1200.76,-756.504"/>
<polygon fill="black" stroke="black" points="1202.57,-753.512 1192.27,-751.053 1198.79,-759.402 1202.57,-753.512"/>
</g>
<!-- v207 -->
<g id="node108" class="node"><title>v207</title>
<ellipse fill="none" stroke="black" cx="1245.5" cy="-738" rx="27" ry="18"/>
<text text-anchor="middle" x="1245.5" y="-734.3" font-family="Times,serif" font-size="14.00">207</text>
</g>
<!-- v204&#45;&gt;v207 -->
<g id="edge93" class="edge"><title>v204&#45;&gt;v207</title>
<path fill="none" stroke="black" d="M1273.92,-792.765C1269.44,-784.283 1263.85,-773.714 1258.82,-764.197"/>
<polygon fill="black" stroke="black" points="1261.8,-762.353 1254.04,-755.147 1255.61,-765.624 1261.8,-762.353"/>
</g>
<!-- p43 -->
<g id="node109" class="node"><title>p43</title>
<path fill="none" stroke="black" d="M1338,-756C1338,-756 1303,-756 1303,-756 1297,-756 1291,-750 1291,-744 1291,-744 1291,-732 1291,-732 1291,-726 1297,-720 1303,-720 1303,-720 1338,-720 1338,-720 1344,-720 1350,-726 1350,-732 1350,-732 1350,-744 1350,-744 1350,-750 1344,-756 1338,-756"/>
<text text-anchor="middle" x="1320.5" y="-734.3" font-family="Times,serif" font-size="14.00">path (3)</text>
</g>
<!-- v204&#45;&gt;p43 -->
<g id="edge73" class="edge"><title>v204&#45;&gt;p43</title>
<path fill="none" stroke="black" d="M1291.31,-792.765C1295.79,-784.525 1301.33,-774.317 1306.38,-765.016"/>
<polygon fill="black" stroke="black" points="1309.51,-766.582 1311.2,-756.124 1303.36,-763.243 1309.51,-766.582"/>
</g>
<!-- p45 -->
<g id="node111" class="node"><title>p45</title>
<path fill="none" stroke="black" d="M1415,-756C1415,-756 1380,-756 1380,-756 1374,-756 1368,-750 1368,-744 1368,-744 1368,-732 1368,-732 1368,-726 1374,-720 1380,-720 1380,-720 1415,-720 1415,-720 1421,-720 1427,-726 1427,-732 1427,-732 1427,-744 1427,-744 1427,-750 1421,-756 1415,-756"/>
<text text-anchor="middle" x="1397.5" y="-734.3" font-family="Times,serif" font-size="14.00">path (2)</text>
</g>
<!-- v204&#45;&gt;p45 -->
<g id="edge116" class="edge"><title>v204&#45;&gt;p45</title>
<path fill="none" stroke="black" d="M1301.75,-797.284C1317.83,-787.496 1341.21,-773.262 1360.85,-761.311"/>
<polygon fill="black" stroke="black" points="1362.84,-764.194 1369.56,-756.004 1359.2,-758.214 1362.84,-764.194"/>
</g>
<!-- v233 -->
<g id="node116" class="node"><title>v233</title>
<ellipse fill="none" stroke="black" cx="1472.5" cy="-738" rx="27" ry="18"/>
<text text-anchor="middle" x="1472.5" y="-734.3" font-family="Times,serif" font-size="14.00">233</text>
</g>
<!-- v204&#45;&gt;v233 -->
<g id="edge58" class="edge"><title>v204&#45;&gt;v233</title>
<path fill="none" stroke="black" d="M1306.35,-801.533C1336.68,-791.859 1390.51,-774.08 1435.5,-756 1437.58,-755.165 1439.71,-754.276 1441.85,-753.359"/>
<polygon fill="black" stroke="black" points="1443.41,-756.497 1451.13,-749.245 1440.57,-750.097 1443.41,-756.497"/>
</g>
<!-- v206 -->
<g id="node107" class="node"><title>v206</title>
<ellipse fill="none" stroke="black" cx="1393.5" cy="-450" rx="27" ry="18"/>
<text text-anchor="middle" x="1393.5" y="-446.3" font-family="Times,serif" font-size="14.00">206</text>
</g>
<!-- v205&#45;&gt;v206 -->
<g id="edge62" class="edge"><title>v205&#45;&gt;v206</title>
<path fill="none" stroke="black" d="M1398.02,-503.697C1397.36,-495.983 1396.56,-486.712 1395.82,-478.112"/>
<polygon fill="black" stroke="black" points="1399.31,-477.769 1394.97,-468.104 1392.33,-478.367 1399.31,-477.769"/>
</g>
<!-- v213 -->
<g id="node112" class="node"><title>v213</title>
<ellipse fill="none" stroke="black" cx="1465.5" cy="-450" rx="27" ry="18"/>
<text text-anchor="middle" x="1465.5" y="-446.3" font-family="Times,serif" font-size="14.00">213</text>
</g>
<!-- v205&#45;&gt;v213 -->
<g id="edge43" class="edge"><title>v205&#45;&gt;v213</title>
<path fill="none" stroke="black" d="M1413.5,-506.155C1422.51,-496.596 1434.39,-483.994 1444.52,-473.249"/>
<polygon fill="black" stroke="black" points="1447.21,-475.501 1451.52,-465.824 1442.12,-470.699 1447.21,-475.501"/>
</g>
<!-- p43&#45;&gt;v105 -->
<g id="edge5" class="edge"><title>p43&#45;&gt;v105</title>
<path fill="none" stroke="black" d="M1333.85,-719.697C1340.61,-710.929 1348.93,-700.15 1356.27,-690.631"/>
<polygon fill="black" stroke="black" points="1359.07,-692.727 1362.41,-682.671 1353.53,-688.451 1359.07,-692.727"/>
</g>
<!-- p44&#45;&gt;v204 -->
<g id="edge31" class="edge"><title>p44&#45;&gt;v204</title>
<path fill="none" stroke="black" d="M1282.5,-863.697C1282.5,-855.983 1282.5,-846.712 1282.5,-838.112"/>
<polygon fill="black" stroke="black" points="1286,-838.104 1282.5,-828.104 1279,-838.104 1286,-838.104"/>
</g>
<!-- v224&#45;&gt;p37 -->
<g id="edge89" class="edge"><title>v224&#45;&gt;p37</title>
<path fill="none" stroke="black" d="M570.313,-360.765C574.786,-352.525 580.328,-342.317 585.377,-333.016"/>
<polygon fill="black" stroke="black" points="588.509,-334.582 590.204,-324.124 582.357,-331.243 588.509,-334.582"/>
</g>
<!-- v225 -->
<g id="node115" class="node"><title>v225</title>
<ellipse fill="none" stroke="black" cx="524.5" cy="-306" rx="27" ry="18"/>
<text text-anchor="middle" x="524.5" y="-302.3" font-family="Times,serif" font-size="14.00">225</text>
</g>
<!-- v224&#45;&gt;v225 -->
<g id="edge76" class="edge"><title>v224&#45;&gt;v225</title>
<path fill="none" stroke="black" d="M552.918,-360.765C548.435,-352.283 542.849,-341.714 537.819,-332.197"/>
<polygon fill="black" stroke="black" points="540.802,-330.353 533.035,-323.147 534.614,-333.624 540.802,-330.353"/>
</g>
<!-- v258 -->
<g id="node121" class="node"><title>v258</title>
<ellipse fill="none" stroke="black" cx="1128.5" cy="-162" rx="27" ry="18"/>
<text text-anchor="middle" x="1128.5" y="-158.3" font-family="Times,serif" font-size="14.00">258</text>
</g>
<!-- v261&#45;&gt;v258 -->
<g id="edge126" class="edge"><title>v261&#45;&gt;v258</title>
<path fill="none" stroke="black" d="M1128.5,-215.697C1128.5,-207.983 1128.5,-198.712 1128.5,-190.112"/>
<polygon fill="black" stroke="black" points="1132,-190.104 1128.5,-180.104 1125,-190.104 1132,-190.104"/>
</g>
<!-- v262 -->
<g id="node125" class="node"><title>v262</title>
<ellipse fill="none" stroke="black" cx="1200.5" cy="-162" rx="27" ry="18"/>
<text text-anchor="middle" x="1200.5" y="-158.3" font-family="Times,serif" font-size="14.00">262</text>
</g>
<!-- v261&#45;&gt;v262 -->
<g id="edge40" class="edge"><title>v261&#45;&gt;v262</title>
<path fill="none" stroke="black" d="M1143.07,-218.834C1153.25,-208.938 1167.02,-195.546 1178.53,-184.359"/>
<polygon fill="black" stroke="black" points="1180.97,-186.865 1185.7,-177.385 1176.09,-181.846 1180.97,-186.865"/>
</g>
</g>
</svg>
