<?xml version="1.0" encoding="UTF-8" standalone="no"?>
<!DOCTYPE svg PUBLIC "-//W3C//DTD SVG 1.1//EN"
 "http://www.w3.org/Graphics/SVG/1.1/DTD/svg11.dtd">
<!-- Generated by graphviz version 2.38.0 (20140413.2041)
 -->
<!-- Title: %3 Pages: 1 -->
<svg width="415pt" height="908pt"
 viewBox="0.00 0.00 415.24 908.00" xmlns="http://www.w3.org/2000/svg" xmlns:xlink="http://www.w3.org/1999/xlink">
<g id="graph0" class="graph" transform="scale(1 1) rotate(0) translate(4 904)">
<title>%3</title>
<polygon fill="white" stroke="none" points="-4,4 -4,-904 411.242,-904 411.242,4 -4,4"/>
<!-- 0 -->
<g id="node1" class="node"><title>0</title>
<g id="a_node1"><a xlink:title="0, diversity: 1, multiplicities: 1, labels: 14">
<ellipse fill="#fff5f0" stroke="black" cx="96.5963" cy="-810" rx="41.6928" ry="18"/>
<text text-anchor="middle" x="96.5963" y="-806.3" font-family="Times,serif" font-size="14.00">0 (1): 14</text>
</a>
</g>
</g>
<!-- 2 -->
<g id="node3" class="node"><title>2</title>
<g id="a_node3"><a xlink:title="2, diversity: 1, multiplicities: 3, labels: 14">
<ellipse fill="#fee3d6" stroke="black" cx="95.5963" cy="-738" rx="41.6928" ry="18"/>
<text text-anchor="middle" x="95.5963" y="-734.3" font-family="Times,serif" font-size="14.00">2 (1): 14</text>
</a>
</g>
</g>
<!-- 0&#45;&gt;2 -->
<g id="edge26" class="edge"><title>0&#45;&gt;2</title>
<path fill="none" stroke="black" d="M96.3491,-791.697C96.2389,-783.983 96.1065,-774.712 95.9836,-766.112"/>
<polygon fill="black" stroke="black" points="99.4832,-766.053 95.8407,-756.104 92.484,-766.153 99.4832,-766.053"/>
</g>
<!-- 1 -->
<g id="node2" class="node"><title>1</title>
<g id="a_node2"><a xlink:title="1, diversity: 1, multiplicities: 1, labels: 14">
<ellipse fill="#fff5f0" stroke="black" cx="147.596" cy="-882" rx="41.6928" ry="18"/>
<text text-anchor="middle" x="147.596" y="-878.3" font-family="Times,serif" font-size="14.00">1 (1): 14</text>
</a>
</g>
</g>
<!-- 1&#45;&gt;0 -->
<g id="edge6" class="edge"><title>1&#45;&gt;0</title>
<path fill="none" stroke="black" d="M135.51,-864.411C129.286,-855.868 121.571,-845.278 114.656,-835.787"/>
<polygon fill="black" stroke="black" points="117.313,-833.491 108.596,-827.47 111.656,-837.613 117.313,-833.491"/>
</g>
<!-- 21 -->
<g id="node22" class="node"><title>21</title>
<g id="a_node22"><a xlink:title="21, diversity: 1, multiplicities: 1, labels: 7">
<ellipse fill="#fff5f0" stroke="black" cx="198.596" cy="-810" rx="41.6928" ry="18"/>
<text text-anchor="middle" x="198.596" y="-806.3" font-family="Times,serif" font-size="14.00">21 (1): 7</text>
</a>
</g>
</g>
<!-- 1&#45;&gt;21 -->
<g id="edge1" class="edge"><title>1&#45;&gt;21</title>
<path fill="none" stroke="black" d="M159.683,-864.411C165.907,-855.868 173.622,-845.278 180.537,-835.787"/>
<polygon fill="black" stroke="black" points="183.537,-837.613 186.597,-827.47 177.879,-833.491 183.537,-837.613"/>
</g>
<!-- 3 -->
<g id="node4" class="node"><title>3</title>
<g id="a_node4"><a xlink:title="3, diversity: 1, multiplicities: 1, labels: 14">
<ellipse fill="#fff5f0" stroke="black" cx="41.5963" cy="-666" rx="41.6928" ry="18"/>
<text text-anchor="middle" x="41.5963" y="-662.3" font-family="Times,serif" font-size="14.00">3 (1): 14</text>
</a>
</g>
</g>
<!-- 2&#45;&gt;3 -->
<g id="edge18" class="edge"><title>2&#45;&gt;3</title>
<path fill="none" stroke="black" d="M83.0719,-720.765C76.4209,-712.143 68.1062,-701.365 60.6712,-691.727"/>
<polygon fill="black" stroke="black" points="63.3071,-689.413 54.4278,-683.633 57.7646,-693.689 63.3071,-689.413"/>
</g>
<!-- 4 -->
<g id="node5" class="node"><title>4</title>
<g id="a_node5"><a xlink:title="4, diversity: 1, multiplicities: 6, labels: 14">
<ellipse fill="#fcc4ad" stroke="black" cx="41.5963" cy="-594" rx="41.6928" ry="18"/>
<text text-anchor="middle" x="41.5963" y="-590.3" font-family="Times,serif" font-size="14.00">4 (1): 14</text>
</a>
</g>
</g>
<!-- 3&#45;&gt;4 -->
<g id="edge19" class="edge"><title>3&#45;&gt;4</title>
<path fill="none" stroke="black" d="M41.5963,-647.697C41.5963,-639.983 41.5963,-630.712 41.5963,-622.112"/>
<polygon fill="black" stroke="black" points="45.0964,-622.104 41.5963,-612.104 38.0964,-622.104 45.0964,-622.104"/>
</g>
<!-- 5 -->
<g id="node6" class="node"><title>5</title>
<g id="a_node6"><a xlink:title="5, diversity: 1, multiplicities: 11, labels: 14">
<ellipse fill="#fca082" stroke="black" cx="41.5963" cy="-522" rx="41.6928" ry="18"/>
<text text-anchor="middle" x="41.5963" y="-518.3" font-family="Times,serif" font-size="14.00">5 (1): 14</text>
</a>
</g>
</g>
<!-- 4&#45;&gt;5 -->
<g id="edge14" class="edge"><title>4&#45;&gt;5</title>
<path fill="none" stroke="black" d="M41.5963,-575.697C41.5963,-567.983 41.5963,-558.712 41.5963,-550.112"/>
<polygon fill="black" stroke="black" points="45.0964,-550.104 41.5963,-540.104 38.0964,-550.104 45.0964,-550.104"/>
</g>
<!-- 6 -->
<g id="node7" class="node"><title>6</title>
<g id="a_node7"><a xlink:title="6, diversity: 1, multiplicities: 5, labels: 14">
<ellipse fill="#fee3d6" stroke="black" cx="80.5963" cy="-306" rx="41.6928" ry="18"/>
<text text-anchor="middle" x="80.5963" y="-302.3" font-family="Times,serif" font-size="14.00">6 (1): 14</text>
</a>
</g>
</g>
<!-- 7 -->
<g id="node8" class="node"><title>7</title>
<g id="a_node8"><a xlink:title="7, diversity: 1, multiplicities: 1, labels: 14">
<ellipse fill="#fff5f0" stroke="black" cx="147.596" cy="-522" rx="41.6928" ry="18"/>
<text text-anchor="middle" x="147.596" y="-518.3" font-family="Times,serif" font-size="14.00">7 (1): 14</text>
</a>
</g>
</g>
<!-- 8 -->
<g id="node9" class="node"><title>8</title>
<g id="a_node9"><a xlink:title="8, diversity: 1, multiplicities: 6, labels: 14">
<ellipse fill="#fcc4ad" stroke="black" cx="147.596" cy="-450" rx="41.6928" ry="18"/>
<text text-anchor="middle" x="147.596" y="-446.3" font-family="Times,serif" font-size="14.00">8 (1): 14</text>
</a>
</g>
</g>
<!-- 7&#45;&gt;8 -->
<g id="edge25" class="edge"><title>7&#45;&gt;8</title>
<path fill="none" stroke="black" d="M147.596,-503.697C147.596,-495.983 147.596,-486.712 147.596,-478.112"/>
<polygon fill="black" stroke="black" points="151.096,-478.104 147.596,-468.104 144.096,-478.104 151.096,-478.104"/>
</g>
<!-- 10 -->
<g id="node11" class="node"><title>10</title>
<g id="a_node11"><a xlink:title="10, diversity: 1, multiplicities: 3, labels: 14">
<ellipse fill="#fee3d6" stroke="black" cx="147.596" cy="-378" rx="46.2923" ry="18"/>
<text text-anchor="middle" x="147.596" y="-374.3" font-family="Times,serif" font-size="14.00">10 (1): 14</text>
</a>
</g>
</g>
<!-- 8&#45;&gt;10 -->
<g id="edge8" class="edge"><title>8&#45;&gt;10</title>
<path fill="none" stroke="black" d="M147.596,-431.697C147.596,-423.983 147.596,-414.712 147.596,-406.112"/>
<polygon fill="black" stroke="black" points="151.096,-406.104 147.596,-396.104 144.096,-406.104 151.096,-406.104"/>
</g>
<!-- 9 -->
<g id="node10" class="node"><title>9</title>
<g id="a_node10"><a xlink:title="9, diversity: 1, multiplicities: 1, labels: 14">
<ellipse fill="#fff5f0" stroke="black" cx="147.596" cy="-594" rx="41.6928" ry="18"/>
<text text-anchor="middle" x="147.596" y="-590.3" font-family="Times,serif" font-size="14.00">9 (1): 14</text>
</a>
</g>
</g>
<!-- 9&#45;&gt;7 -->
<g id="edge13" class="edge"><title>9&#45;&gt;7</title>
<path fill="none" stroke="black" d="M147.596,-575.697C147.596,-567.983 147.596,-558.712 147.596,-550.112"/>
<polygon fill="black" stroke="black" points="151.096,-550.104 147.596,-540.104 144.096,-550.104 151.096,-550.104"/>
</g>
<!-- 10&#45;&gt;6 -->
<g id="edge4" class="edge"><title>10&#45;&gt;6</title>
<path fill="none" stroke="black" d="M132.057,-360.765C123.431,-351.753 112.551,-340.385 103.018,-330.426"/>
<polygon fill="black" stroke="black" points="105.495,-327.951 96.0516,-323.147 100.438,-332.792 105.495,-327.951"/>
</g>
<!-- 19 -->
<g id="node20" class="node"><title>19</title>
<g id="a_node20"><a xlink:title="19, diversity: 1, multiplicities: 10, labels: 14,7">
<ellipse fill="#fcc4ad" stroke="black" cx="192.596" cy="-306" rx="52.7911" ry="18"/>
<text text-anchor="middle" x="192.596" y="-302.3" font-family="Times,serif" font-size="14.00">19 (1): 14,7</text>
</a>
</g>
</g>
<!-- 10&#45;&gt;19 -->
<g id="edge16" class="edge"><title>10&#45;&gt;19</title>
<path fill="none" stroke="black" d="M158.261,-360.411C163.618,-352.077 170.227,-341.797 176.211,-332.488"/>
<polygon fill="black" stroke="black" points="179.232,-334.261 181.696,-323.956 173.344,-330.475 179.232,-334.261"/>
</g>
<!-- 11 -->
<g id="node12" class="node"><title>11</title>
<g id="a_node12"><a xlink:title="11, diversity: 1, multiplicities: 1, labels: 14">
<ellipse fill="#fff5f0" stroke="black" cx="354.596" cy="-234" rx="46.2923" ry="18"/>
<text text-anchor="middle" x="354.596" y="-230.3" font-family="Times,serif" font-size="14.00">11 (1): 14</text>
</a>
</g>
</g>
<!-- 18 -->
<g id="node19" class="node"><title>18</title>
<g id="a_node19"><a xlink:title="18, diversity: 1, multiplicities: 1, labels: 14">
<ellipse fill="#fff5f0" stroke="black" cx="354.596" cy="-162" rx="46.2923" ry="18"/>
<text text-anchor="middle" x="354.596" y="-158.3" font-family="Times,serif" font-size="14.00">18 (1): 14</text>
</a>
</g>
</g>
<!-- 11&#45;&gt;18 -->
<g id="edge12" class="edge"><title>11&#45;&gt;18</title>
<path fill="none" stroke="black" d="M354.596,-215.697C354.596,-207.983 354.596,-198.712 354.596,-190.112"/>
<polygon fill="black" stroke="black" points="358.096,-190.104 354.596,-180.104 351.096,-190.104 358.096,-190.104"/>
</g>
<!-- 12 -->
<g id="node13" class="node"><title>12</title>
<g id="a_node13"><a xlink:title="12, diversity: 1, multiplicities: 1, labels: 14">
<ellipse fill="#fff5f0" stroke="black" cx="354.596" cy="-522" rx="46.2923" ry="18"/>
<text text-anchor="middle" x="354.596" y="-518.3" font-family="Times,serif" font-size="14.00">12 (1): 14</text>
</a>
</g>
</g>
<!-- 17 -->
<g id="node18" class="node"><title>17</title>
<g id="a_node18"><a xlink:title="17, diversity: 1, multiplicities: 3, labels: 14,7">
<ellipse fill="#fee3d6" stroke="black" cx="354.596" cy="-450" rx="52.7911" ry="18"/>
<text text-anchor="middle" x="354.596" y="-446.3" font-family="Times,serif" font-size="14.00">17 (1): 14,7</text>
</a>
</g>
</g>
<!-- 12&#45;&gt;17 -->
<g id="edge11" class="edge"><title>12&#45;&gt;17</title>
<path fill="none" stroke="black" d="M354.596,-503.697C354.596,-495.983 354.596,-486.712 354.596,-478.112"/>
<polygon fill="black" stroke="black" points="358.096,-478.104 354.596,-468.104 351.096,-478.104 358.096,-478.104"/>
</g>
<!-- 13 -->
<g id="node14" class="node"><title>13</title>
<g id="a_node14"><a xlink:title="13, diversity: 1, multiplicities: 79, labels: 14,7">
<ellipse fill="#fca082" stroke="black" cx="354.596" cy="-18" rx="52.7911" ry="18"/>
<text text-anchor="middle" x="354.596" y="-14.3" font-family="Times,serif" font-size="14.00">13 (1): 14,7</text>
</a>
</g>
</g>
<!-- 14 -->
<g id="node15" class="node"><title>14</title>
<g id="a_node15"><a xlink:title="14, diversity: 1, multiplicities: 1, labels: 14">
<ellipse fill="#fff5f0" stroke="black" cx="354.596" cy="-306" rx="46.2923" ry="18"/>
<text text-anchor="middle" x="354.596" y="-302.3" font-family="Times,serif" font-size="14.00">14 (1): 14</text>
</a>
</g>
</g>
<!-- 14&#45;&gt;11 -->
<g id="edge21" class="edge"><title>14&#45;&gt;11</title>
<path fill="none" stroke="black" d="M354.596,-287.697C354.596,-279.983 354.596,-270.712 354.596,-262.112"/>
<polygon fill="black" stroke="black" points="358.096,-262.104 354.596,-252.104 351.096,-262.104 358.096,-262.104"/>
</g>
<!-- 15 -->
<g id="node16" class="node"><title>15</title>
<g id="a_node16"><a xlink:title="15, diversity: 1, multiplicities: 1, labels: 14">
<ellipse fill="#fff5f0" stroke="black" cx="354.596" cy="-378" rx="46.2923" ry="18"/>
<text text-anchor="middle" x="354.596" y="-374.3" font-family="Times,serif" font-size="14.00">15 (1): 14</text>
</a>
</g>
</g>
<!-- 15&#45;&gt;14 -->
<g id="edge20" class="edge"><title>15&#45;&gt;14</title>
<path fill="none" stroke="black" d="M354.596,-359.697C354.596,-351.983 354.596,-342.712 354.596,-334.112"/>
<polygon fill="black" stroke="black" points="358.096,-334.104 354.596,-324.104 351.096,-334.104 358.096,-334.104"/>
</g>
<!-- 16 -->
<g id="node17" class="node"><title>16</title>
<g id="a_node17"><a xlink:title="16, diversity: 1, multiplicities: 2, labels: 14,7">
<ellipse fill="#fee3d6" stroke="black" cx="354.596" cy="-90" rx="52.7911" ry="18"/>
<text text-anchor="middle" x="354.596" y="-86.3" font-family="Times,serif" font-size="14.00">16 (1): 14,7</text>
</a>
</g>
</g>
<!-- 16&#45;&gt;13 -->
<g id="edge23" class="edge"><title>16&#45;&gt;13</title>
<path fill="none" stroke="black" d="M354.596,-71.6966C354.596,-63.9827 354.596,-54.7125 354.596,-46.1124"/>
<polygon fill="black" stroke="black" points="358.096,-46.1043 354.596,-36.1043 351.096,-46.1044 358.096,-46.1043"/>
</g>
<!-- 17&#45;&gt;15 -->
<g id="edge7" class="edge"><title>17&#45;&gt;15</title>
<path fill="none" stroke="black" d="M354.596,-431.697C354.596,-423.983 354.596,-414.712 354.596,-406.112"/>
<polygon fill="black" stroke="black" points="358.096,-406.104 354.596,-396.104 351.096,-406.104 358.096,-406.104"/>
</g>
<!-- 18&#45;&gt;16 -->
<g id="edge9" class="edge"><title>18&#45;&gt;16</title>
<path fill="none" stroke="black" d="M354.596,-143.697C354.596,-135.983 354.596,-126.712 354.596,-118.112"/>
<polygon fill="black" stroke="black" points="358.096,-118.104 354.596,-108.104 351.096,-118.104 358.096,-118.104"/>
</g>
<!-- 20 -->
<g id="node21" class="node"><title>20</title>
<g id="a_node21"><a xlink:title="20, diversity: 1, multiplicities: 1, labels: 14">
<ellipse fill="#fff5f0" stroke="black" cx="147.596" cy="-666" rx="46.2923" ry="18"/>
<text text-anchor="middle" x="147.596" y="-662.3" font-family="Times,serif" font-size="14.00">20 (1): 14</text>
</a>
</g>
</g>
<!-- 20&#45;&gt;9 -->
<g id="edge10" class="edge"><title>20&#45;&gt;9</title>
<path fill="none" stroke="black" d="M147.596,-647.697C147.596,-639.983 147.596,-630.712 147.596,-622.112"/>
<polygon fill="black" stroke="black" points="151.096,-622.104 147.596,-612.104 144.096,-622.104 151.096,-622.104"/>
</g>
<!-- 23 -->
<g id="node24" class="node"><title>23</title>
<g id="a_node24"><a xlink:title="23, diversity: 1, multiplicities: 1, labels: 7">
<ellipse fill="#fff5f0" stroke="black" cx="200.596" cy="-738" rx="41.6928" ry="18"/>
<text text-anchor="middle" x="200.596" y="-734.3" font-family="Times,serif" font-size="14.00">23 (1): 7</text>
</a>
</g>
</g>
<!-- 21&#45;&gt;23 -->
<g id="edge15" class="edge"><title>21&#45;&gt;23</title>
<path fill="none" stroke="black" d="M199.091,-791.697C199.311,-783.983 199.576,-774.712 199.822,-766.112"/>
<polygon fill="black" stroke="black" points="203.32,-766.2 200.108,-756.104 196.323,-766 203.32,-766.2"/>
</g>
<!-- 22 -->
<g id="node23" class="node"><title>22</title>
<g id="a_node23"><a xlink:title="22, diversity: 1, multiplicities: 3, labels: 7">
<ellipse fill="#fee3d6" stroke="black" cx="253.596" cy="-666" rx="41.6928" ry="18"/>
<text text-anchor="middle" x="253.596" y="-662.3" font-family="Times,serif" font-size="14.00">22 (1): 7</text>
</a>
</g>
</g>
<!-- 25 -->
<g id="node26" class="node"><title>25</title>
<g id="a_node26"><a xlink:title="25, diversity: 1, multiplicities: 5, labels: 7">
<ellipse fill="#fee3d6" stroke="black" cx="253.596" cy="-594" rx="41.6928" ry="18"/>
<text text-anchor="middle" x="253.596" y="-590.3" font-family="Times,serif" font-size="14.00">25 (1): 7</text>
</a>
</g>
</g>
<!-- 22&#45;&gt;25 -->
<g id="edge22" class="edge"><title>22&#45;&gt;25</title>
<path fill="none" stroke="black" d="M253.596,-647.697C253.596,-639.983 253.596,-630.712 253.596,-622.112"/>
<polygon fill="black" stroke="black" points="257.096,-622.104 253.596,-612.104 250.096,-622.104 257.096,-622.104"/>
</g>
<!-- 23&#45;&gt;20 -->
<g id="edge17" class="edge"><title>23&#45;&gt;20</title>
<path fill="none" stroke="black" d="M188.304,-720.765C181.776,-712.143 173.615,-701.365 166.318,-691.727"/>
<polygon fill="black" stroke="black" points="169.017,-689.493 160.19,-683.633 163.436,-693.719 169.017,-689.493"/>
</g>
<!-- 23&#45;&gt;22 -->
<g id="edge3" class="edge"><title>23&#45;&gt;22</title>
<path fill="none" stroke="black" d="M212.889,-720.765C219.417,-712.143 227.577,-701.365 234.875,-691.727"/>
<polygon fill="black" stroke="black" points="237.756,-693.719 241.002,-683.633 232.176,-689.493 237.756,-693.719"/>
</g>
<!-- 26 -->
<g id="node27" class="node"><title>26</title>
<g id="a_node27"><a xlink:title="26, diversity: 1, multiplicities: 1, labels: 7">
<ellipse fill="#fff5f0" stroke="black" cx="354.596" cy="-666" rx="41.6928" ry="18"/>
<text text-anchor="middle" x="354.596" y="-662.3" font-family="Times,serif" font-size="14.00">26 (1): 7</text>
</a>
</g>
</g>
<!-- 23&#45;&gt;26 -->
<g id="edge5" class="edge"><title>23&#45;&gt;26</title>
<path fill="none" stroke="black" d="M228.128,-724.485C253.126,-713.123 290.185,-696.278 317.732,-683.757"/>
<polygon fill="black" stroke="black" points="319.388,-686.848 327.043,-679.524 316.491,-680.476 319.388,-686.848"/>
</g>
<!-- 24 -->
<g id="node25" class="node"><title>24</title>
<g id="a_node25"><a xlink:title="24, diversity: 1, multiplicities: 1, labels: 7">
<ellipse fill="#fff5f0" stroke="black" cx="354.596" cy="-594" rx="41.6928" ry="18"/>
<text text-anchor="middle" x="354.596" y="-590.3" font-family="Times,serif" font-size="14.00">24 (1): 7</text>
</a>
</g>
</g>
<!-- 24&#45;&gt;12 -->
<g id="edge24" class="edge"><title>24&#45;&gt;12</title>
<path fill="none" stroke="black" d="M354.596,-575.697C354.596,-567.983 354.596,-558.712 354.596,-550.112"/>
<polygon fill="black" stroke="black" points="358.096,-550.104 354.596,-540.104 351.096,-550.104 358.096,-550.104"/>
</g>
<!-- 26&#45;&gt;24 -->
<g id="edge2" class="edge"><title>26&#45;&gt;24</title>
<path fill="none" stroke="black" d="M354.596,-647.697C354.596,-639.983 354.596,-630.712 354.596,-622.112"/>
<polygon fill="black" stroke="black" points="358.096,-622.104 354.596,-612.104 351.096,-622.104 358.096,-622.104"/>
</g>
</g>
</svg>
