<?xml version="1.0" encoding="UTF-8" standalone="no"?>
<!DOCTYPE svg PUBLIC "-//W3C//DTD SVG 1.1//EN"
 "http://www.w3.org/Graphics/SVG/1.1/DTD/svg11.dtd">
<!-- Generated by graphviz version 2.38.0 (20140413.2041)
 -->
<!-- Title: %3 Pages: 1 -->
<svg width="241pt" height="404pt"
 viewBox="0.00 0.00 240.64 404.00" xmlns="http://www.w3.org/2000/svg" xmlns:xlink="http://www.w3.org/1999/xlink">
<g id="graph0" class="graph" transform="scale(1 1) rotate(0) translate(4 400)">
<title>%3</title>
<polygon fill="white" stroke="none" points="-4,4 -4,-400 236.643,-400 236.643,4 -4,4"/>
<!-- 0 -->
<g id="node1" class="node"><title>0</title>
<g id="a_node1"><a xlink:title="0, diversity: 2, multiplicities: 44,105, labels: 28,7">
<ellipse fill="#fb7c5c" stroke="black" cx="83.0467" cy="-306" rx="48.1917" ry="18"/>
<text text-anchor="middle" x="83.0467" y="-302.3" font-family="Times,serif" font-size="14.00">0 (2): 28,7</text>
</a>
</g>
</g>
<!-- 3 -->
<g id="node4" class="node"><title>3</title>
<g id="a_node4"><a xlink:title="3, diversity: 2, multiplicities: 18,338, labels: 7">
<ellipse fill="#f6553c" stroke="black" cx="37.0467" cy="-234" rx="37.0935" ry="18"/>
<text text-anchor="middle" x="37.0467" y="-230.3" font-family="Times,serif" font-size="14.00">3 (2): 7</text>
</a>
</g>
</g>
<!-- 0&#45;&gt;3 -->
<g id="edge6" class="edge"><title>0&#45;&gt;3</title>
<path fill="none" stroke="black" d="M72.1454,-288.411C66.5885,-279.955 59.7144,-269.494 53.5267,-260.078"/>
<polygon fill="black" stroke="black" points="56.2866,-257.905 47.8698,-251.47 50.4367,-261.749 56.2866,-257.905"/>
</g>
<!-- 4 -->
<g id="node5" class="node"><title>4</title>
<g id="a_node5"><a xlink:title="4, diversity: 1, multiplicities: 7, labels: 7">
<ellipse fill="#fcc4ad" stroke="black" cx="129.047" cy="-234" rx="37.0935" ry="18"/>
<text text-anchor="middle" x="129.047" y="-230.3" font-family="Times,serif" font-size="14.00">4 (1): 7</text>
</a>
</g>
</g>
<!-- 0&#45;&gt;4 -->
<g id="edge5" class="edge"><title>0&#45;&gt;4</title>
<path fill="none" stroke="black" d="M93.9481,-288.411C99.5049,-279.955 106.379,-269.494 112.567,-260.078"/>
<polygon fill="black" stroke="black" points="115.657,-261.749 118.224,-251.47 109.807,-257.905 115.657,-261.749"/>
</g>
<!-- 1 -->
<g id="node2" class="node"><title>1</title>
<g id="a_node2"><a xlink:title="1, diversity: 1, multiplicities: 13, labels: 28">
<ellipse fill="#fca082" stroke="black" cx="191.047" cy="-306" rx="41.6928" ry="18"/>
<text text-anchor="middle" x="191.047" y="-302.3" font-family="Times,serif" font-size="14.00">1 (1): 28</text>
</a>
</g>
</g>
<!-- 2 -->
<g id="node3" class="node"><title>2</title>
<g id="a_node3"><a xlink:title="2, diversity: 2, multiplicities: 1,483, labels: 7">
<ellipse fill="#f6553c" stroke="black" cx="37.0467" cy="-162" rx="37.0935" ry="18"/>
<text text-anchor="middle" x="37.0467" y="-158.3" font-family="Times,serif" font-size="14.00">2 (2): 7</text>
</a>
</g>
</g>
<!-- 5 -->
<g id="node6" class="node"><title>5</title>
<g id="a_node6"><a xlink:title="5, diversity: 1, multiplicities: 1, labels: 7">
<ellipse fill="#fff5f0" stroke="black" cx="37.0467" cy="-90" rx="37.0935" ry="18"/>
<text text-anchor="middle" x="37.0467" y="-86.3" font-family="Times,serif" font-size="14.00">5 (1): 7</text>
</a>
</g>
</g>
<!-- 2&#45;&gt;5 -->
<g id="edge7" class="edge"><title>2&#45;&gt;5</title>
<path fill="none" stroke="black" d="M37.0467,-143.697C37.0467,-135.983 37.0467,-126.712 37.0467,-118.112"/>
<polygon fill="black" stroke="black" points="40.5468,-118.104 37.0467,-108.104 33.5468,-118.104 40.5468,-118.104"/>
</g>
<!-- 3&#45;&gt;2 -->
<g id="edge1" class="edge"><title>3&#45;&gt;2</title>
<path fill="none" stroke="black" d="M37.0467,-215.697C37.0467,-207.983 37.0467,-198.712 37.0467,-190.112"/>
<polygon fill="black" stroke="black" points="40.5468,-190.104 37.0467,-180.104 33.5468,-190.104 40.5468,-190.104"/>
</g>
<!-- 6 -->
<g id="node7" class="node"><title>6</title>
<g id="a_node7"><a xlink:title="6, diversity: 1, multiplicities: 5, labels: 7">
<ellipse fill="#fee3d6" stroke="black" cx="37.0467" cy="-18" rx="37.0935" ry="18"/>
<text text-anchor="middle" x="37.0467" y="-14.3" font-family="Times,serif" font-size="14.00">6 (1): 7</text>
</a>
</g>
</g>
<!-- 5&#45;&gt;6 -->
<g id="edge4" class="edge"><title>5&#45;&gt;6</title>
<path fill="none" stroke="black" d="M37.0467,-71.6966C37.0467,-63.9827 37.0467,-54.7125 37.0467,-46.1124"/>
<polygon fill="black" stroke="black" points="40.5468,-46.1043 37.0467,-36.1043 33.5468,-46.1044 40.5468,-46.1043"/>
</g>
<!-- 7 -->
<g id="node8" class="node"><title>7</title>
<g id="a_node8"><a xlink:title="7, diversity: 1, multiplicities: 58, labels: 7">
<ellipse fill="#fca082" stroke="black" cx="137.047" cy="-378" rx="37.0935" ry="18"/>
<text text-anchor="middle" x="137.047" y="-374.3" font-family="Times,serif" font-size="14.00">7 (1): 7</text>
</a>
</g>
</g>
<!-- 7&#45;&gt;0 -->
<g id="edge2" class="edge"><title>7&#45;&gt;0</title>
<path fill="none" stroke="black" d="M124.522,-360.765C117.871,-352.143 109.557,-341.365 102.122,-331.727"/>
<polygon fill="black" stroke="black" points="104.758,-329.413 95.8782,-323.633 99.215,-333.689 104.758,-329.413"/>
</g>
<!-- 7&#45;&gt;1 -->
<g id="edge3" class="edge"><title>7&#45;&gt;1</title>
<path fill="none" stroke="black" d="M149.571,-360.765C156.222,-352.143 164.537,-341.365 171.972,-331.727"/>
<polygon fill="black" stroke="black" points="174.878,-333.689 178.215,-323.633 169.336,-329.413 174.878,-333.689"/>
</g>
</g>
</svg>
