<?xml version="1.0" encoding="UTF-8" standalone="no"?>
<!DOCTYPE svg PUBLIC "-//W3C//DTD SVG 1.1//EN"
 "http://www.w3.org/Graphics/SVG/1.1/DTD/svg11.dtd">
<!-- Generated by graphviz version 2.38.0 (20140413.2041)
 -->
<!-- Title: %3 Pages: 1 -->
<svg width="620pt" height="404pt"
 viewBox="0.00 0.00 619.69 404.00" xmlns="http://www.w3.org/2000/svg" xmlns:xlink="http://www.w3.org/1999/xlink">
<g id="graph0" class="graph" transform="scale(1 1) rotate(0) translate(4 400)">
<title>%3</title>
<polygon fill="white" stroke="none" points="-4,4 -4,-400 615.692,-400 615.692,4 -4,4"/>
<!-- 0 -->
<g id="node1" class="node"><title>0</title>
<g id="a_node1"><a xlink:title="0, diversity: 1, multiplicities: 65, labels: 14,7">
<ellipse fill="#f7fcf5" stroke="black" cx="48.0957" cy="-234" rx="48.1917" ry="18"/>
<text text-anchor="middle" x="48.0957" y="-230.3" font-family="Times,serif" font-size="14.00">0 (1): 14,7</text>
</a>
</g>
</g>
<!-- 1 -->
<g id="node2" class="node"><title>1</title>
<g id="a_node2"><a xlink:title="1, diversity: 2, multiplicities: 66,85, labels: 7">
<ellipse fill="#f7fcf5" stroke="black" cx="289.096" cy="-306" rx="37.0935" ry="18"/>
<text text-anchor="middle" x="289.096" y="-302.3" font-family="Times,serif" font-size="14.00">1 (2): 7</text>
</a>
</g>
</g>
<!-- 1&#45;&gt;0 -->
<g id="edge10" class="edge"><title>1&#45;&gt;0</title>
<path fill="none" stroke="black" d="M257.815,-296.087C221.183,-285.626 158.689,-267.71 105.096,-252 101.569,-250.966 97.9203,-249.891 94.2528,-248.806"/>
<polygon fill="black" stroke="black" points="95.1523,-245.422 84.5698,-245.934 93.1614,-252.133 95.1523,-245.422"/>
</g>
<!-- 3 -->
<g id="node4" class="node"><title>3</title>
<g id="a_node4"><a xlink:title="3, diversity: 1, multiplicities: 28, labels: 7">
<ellipse fill="#f7fcf5" stroke="black" cx="151.096" cy="-234" rx="37.0935" ry="18"/>
<text text-anchor="middle" x="151.096" y="-230.3" font-family="Times,serif" font-size="14.00">3 (1): 7</text>
</a>
</g>
</g>
<!-- 1&#45;&gt;3 -->
<g id="edge2" class="edge"><title>1&#45;&gt;3</title>
<path fill="none" stroke="black" d="M264.424,-292.485C242.288,-281.257 209.597,-264.675 185.008,-252.202"/>
<polygon fill="black" stroke="black" points="186.521,-249.045 176.019,-247.642 183.354,-255.287 186.521,-249.045"/>
</g>
<!-- 4 -->
<g id="node5" class="node"><title>4</title>
<g id="a_node5"><a xlink:title="4, diversity: 2, multiplicities: 1,131, labels: 7">
<ellipse fill="#f7fcf5" stroke="black" cx="243.096" cy="-234" rx="37.0935" ry="18"/>
<text text-anchor="middle" x="243.096" y="-230.3" font-family="Times,serif" font-size="14.00">4 (2): 7</text>
</a>
</g>
</g>
<!-- 1&#45;&gt;4 -->
<g id="edge6" class="edge"><title>1&#45;&gt;4</title>
<path fill="none" stroke="black" d="M278.194,-288.411C272.638,-279.955 265.763,-269.494 259.576,-260.078"/>
<polygon fill="black" stroke="black" points="262.336,-257.905 253.919,-251.47 256.486,-261.749 262.336,-257.905"/>
</g>
<!-- 5 -->
<g id="node6" class="node"><title>5</title>
<g id="a_node6"><a xlink:title="5, diversity: 2, multiplicities: 1,120, labels: 7">
<ellipse fill="#f7fcf5" stroke="black" cx="335.096" cy="-234" rx="37.0935" ry="18"/>
<text text-anchor="middle" x="335.096" y="-230.3" font-family="Times,serif" font-size="14.00">5 (2): 7</text>
</a>
</g>
</g>
<!-- 1&#45;&gt;5 -->
<g id="edge7" class="edge"><title>1&#45;&gt;5</title>
<path fill="none" stroke="black" d="M299.997,-288.411C305.554,-279.955 312.428,-269.494 318.616,-260.078"/>
<polygon fill="black" stroke="black" points="321.706,-261.749 324.273,-251.47 315.856,-257.905 321.706,-261.749"/>
</g>
<!-- 6 -->
<g id="node7" class="node"><title>6</title>
<g id="a_node7"><a xlink:title="6, diversity: 1, multiplicities: 8, labels: 7">
<ellipse fill="#f7fcf5" stroke="black" cx="427.096" cy="-234" rx="37.0935" ry="18"/>
<text text-anchor="middle" x="427.096" y="-230.3" font-family="Times,serif" font-size="14.00">6 (1): 7</text>
</a>
</g>
</g>
<!-- 1&#45;&gt;6 -->
<g id="edge8" class="edge"><title>1&#45;&gt;6</title>
<path fill="none" stroke="black" d="M313.767,-292.485C335.903,-281.257 368.594,-264.675 393.184,-252.202"/>
<polygon fill="black" stroke="black" points="394.837,-255.287 402.172,-247.642 391.671,-249.045 394.837,-255.287"/>
</g>
<!-- 11 -->
<g id="node12" class="node"><title>11</title>
<g id="a_node12"><a xlink:title="11, diversity: 1, multiplicities: 14, labels: 7">
<ellipse fill="#f7fcf5" stroke="black" cx="524.096" cy="-234" rx="41.6928" ry="18"/>
<text text-anchor="middle" x="524.096" y="-230.3" font-family="Times,serif" font-size="14.00">11 (1): 7</text>
</a>
</g>
</g>
<!-- 1&#45;&gt;11 -->
<g id="edge11" class="edge"><title>1&#45;&gt;11</title>
<path fill="none" stroke="black" d="M320.467,-296.389C357.185,-286.212 419.76,-268.563 473.096,-252 476.215,-251.031 479.435,-250.01 482.67,-248.968"/>
<polygon fill="black" stroke="black" points="483.911,-252.244 492.331,-245.813 481.738,-245.59 483.911,-252.244"/>
</g>
<!-- 2 -->
<g id="node3" class="node"><title>2</title>
<g id="a_node3"><a xlink:title="2, diversity: 1, multiplicities: 59, labels: 7">
<ellipse fill="#f7fcf5" stroke="black" cx="289.096" cy="-378" rx="37.0935" ry="18"/>
<text text-anchor="middle" x="289.096" y="-374.3" font-family="Times,serif" font-size="14.00">2 (1): 7</text>
</a>
</g>
</g>
<!-- 2&#45;&gt;1 -->
<g id="edge9" class="edge"><title>2&#45;&gt;1</title>
<path fill="none" stroke="black" d="M289.096,-359.697C289.096,-351.983 289.096,-342.712 289.096,-334.112"/>
<polygon fill="black" stroke="black" points="292.596,-334.104 289.096,-324.104 285.596,-334.104 292.596,-334.104"/>
</g>
<!-- 7 -->
<g id="node8" class="node"><title>7</title>
<g id="a_node8"><a xlink:title="7, diversity: 1, multiplicities: 14, labels: 7">
<ellipse fill="#f7fcf5" stroke="black" cx="478.096" cy="-162" rx="37.0935" ry="18"/>
<text text-anchor="middle" x="478.096" y="-158.3" font-family="Times,serif" font-size="14.00">7 (1): 7</text>
</a>
</g>
</g>
<!-- 8 -->
<g id="node9" class="node"><title>8</title>
<g id="a_node9"><a xlink:title="8, diversity: 1, multiplicities: 17, labels: 7">
<ellipse fill="#f7fcf5" stroke="black" cx="570.096" cy="-90" rx="37.0935" ry="18"/>
<text text-anchor="middle" x="570.096" y="-86.3" font-family="Times,serif" font-size="14.00">8 (1): 7</text>
</a>
</g>
</g>
<!-- 10 -->
<g id="node11" class="node"><title>10</title>
<g id="a_node11"><a xlink:title="10, diversity: 1, multiplicities: 43, labels: 7">
<ellipse fill="#f7fcf5" stroke="black" cx="570.096" cy="-18" rx="41.6928" ry="18"/>
<text text-anchor="middle" x="570.096" y="-14.3" font-family="Times,serif" font-size="14.00">10 (1): 7</text>
</a>
</g>
</g>
<!-- 8&#45;&gt;10 -->
<g id="edge5" class="edge"><title>8&#45;&gt;10</title>
<path fill="none" stroke="black" d="M570.096,-71.6966C570.096,-63.9827 570.096,-54.7125 570.096,-46.1124"/>
<polygon fill="black" stroke="black" points="573.596,-46.1043 570.096,-36.1043 566.596,-46.1044 573.596,-46.1043"/>
</g>
<!-- 9 -->
<g id="node10" class="node"><title>9</title>
<g id="a_node10"><a xlink:title="9, diversity: 1, multiplicities: 1, labels: 7">
<ellipse fill="#f7fcf5" stroke="black" cx="570.096" cy="-162" rx="37.0935" ry="18"/>
<text text-anchor="middle" x="570.096" y="-158.3" font-family="Times,serif" font-size="14.00">9 (1): 7</text>
</a>
</g>
</g>
<!-- 9&#45;&gt;8 -->
<g id="edge3" class="edge"><title>9&#45;&gt;8</title>
<path fill="none" stroke="black" d="M570.096,-143.697C570.096,-135.983 570.096,-126.712 570.096,-118.112"/>
<polygon fill="black" stroke="black" points="573.596,-118.104 570.096,-108.104 566.596,-118.104 573.596,-118.104"/>
</g>
<!-- 11&#45;&gt;7 -->
<g id="edge1" class="edge"><title>11&#45;&gt;7</title>
<path fill="none" stroke="black" d="M513.194,-216.411C507.638,-207.955 500.763,-197.494 494.576,-188.078"/>
<polygon fill="black" stroke="black" points="497.336,-185.905 488.919,-179.47 491.486,-189.749 497.336,-185.905"/>
</g>
<!-- 11&#45;&gt;9 -->
<g id="edge4" class="edge"><title>11&#45;&gt;9</title>
<path fill="none" stroke="black" d="M534.997,-216.411C540.554,-207.955 547.428,-197.494 553.616,-188.078"/>
<polygon fill="black" stroke="black" points="556.706,-189.749 559.273,-179.47 550.856,-185.905 556.706,-189.749"/>
</g>
</g>
</svg>
