<?xml version="1.0" encoding="UTF-8" standalone="no"?>
<!DOCTYPE svg PUBLIC "-//W3C//DTD SVG 1.1//EN"
 "http://www.w3.org/Graphics/SVG/1.1/DTD/svg11.dtd">
<!-- Generated by graphviz version 2.38.0 (20140413.2041)
 -->
<!-- Title: %3 Pages: 1 -->
<svg width="815pt" height="404pt"
 viewBox="0.00 0.00 815.17 404.00" xmlns="http://www.w3.org/2000/svg" xmlns:xlink="http://www.w3.org/1999/xlink">
<g id="graph0" class="graph" transform="scale(1 1) rotate(0) translate(4 400)">
<title>%3</title>
<polygon fill="white" stroke="none" points="-4,4 -4,-400 811.171,-400 811.171,4 -4,4"/>
<!-- 0 -->
<g id="node1" class="node"><title>0</title>
<g id="a_node1"><a xlink:title="0, diversity: 3, multiplicities: 1,55,91, labels: 28,14,7">
<ellipse fill="#f7fcf5" stroke="black" cx="257.575" cy="-162" rx="59.5901" ry="18"/>
<text text-anchor="middle" x="257.575" y="-158.3" font-family="Times,serif" font-size="14.00">0 (3): 28,14,7</text>
</a>
</g>
</g>
<!-- 3 -->
<g id="node4" class="node"><title>3</title>
<g id="a_node4"><a xlink:title="3, diversity: 1, multiplicities: 14, labels: 14,7">
<ellipse fill="#f7fcf5" stroke="black" cx="257.575" cy="-90" rx="48.1917" ry="18"/>
<text text-anchor="middle" x="257.575" y="-86.3" font-family="Times,serif" font-size="14.00">3 (1): 14,7</text>
</a>
</g>
</g>
<!-- 0&#45;&gt;3 -->
<g id="edge3" class="edge"><title>0&#45;&gt;3</title>
<path fill="none" stroke="black" d="M257.575,-143.697C257.575,-135.983 257.575,-126.712 257.575,-118.112"/>
<polygon fill="black" stroke="black" points="261.075,-118.104 257.575,-108.104 254.075,-118.104 261.075,-118.104"/>
</g>
<!-- 1 -->
<g id="node2" class="node"><title>1</title>
<g id="a_node2"><a xlink:title="1, diversity: 6, multiplicities: 2,2,5,5,11,2249, labels: 14,7">
<ellipse fill="#f7fcf5" stroke="black" cx="462.575" cy="-378" rx="48.1917" ry="18"/>
<text text-anchor="middle" x="462.575" y="-374.3" font-family="Times,serif" font-size="14.00">1 (6): 14,7</text>
</a>
</g>
</g>
<!-- 2 -->
<g id="node3" class="node"><title>2</title>
<g id="a_node3"><a xlink:title="2, diversity: 2, multiplicities: 12,162, labels: 14,7">
<ellipse fill="#f7fcf5" stroke="black" cx="165.575" cy="-306" rx="48.1917" ry="18"/>
<text text-anchor="middle" x="165.575" y="-302.3" font-family="Times,serif" font-size="14.00">2 (2): 14,7</text>
</a>
</g>
</g>
<!-- 1&#45;&gt;2 -->
<g id="edge6" class="edge"><title>1&#45;&gt;2</title>
<path fill="none" stroke="black" d="M422.828,-367.632C369.148,-354.98 273.497,-332.436 215.171,-318.689"/>
<polygon fill="black" stroke="black" points="215.622,-315.2 205.086,-316.312 214.017,-322.013 215.622,-315.2"/>
</g>
<!-- 9 -->
<g id="node10" class="node"><title>9</title>
<g id="a_node10"><a xlink:title="9, diversity: 1, multiplicities: 1, labels: 7">
<ellipse fill="#f7fcf5" stroke="black" cx="315.575" cy="-306" rx="37.0935" ry="18"/>
<text text-anchor="middle" x="315.575" y="-302.3" font-family="Times,serif" font-size="14.00">9 (1): 7</text>
</a>
</g>
</g>
<!-- 1&#45;&gt;9 -->
<g id="edge16" class="edge"><title>1&#45;&gt;9</title>
<path fill="none" stroke="black" d="M433.883,-363.337C410.026,-351.977 375.985,-335.767 350.538,-323.649"/>
<polygon fill="black" stroke="black" points="351.778,-320.363 341.245,-319.224 348.769,-326.683 351.778,-320.363"/>
</g>
<!-- 11 -->
<g id="node12" class="node"><title>11</title>
<g id="a_node12"><a xlink:title="11, diversity: 3, multiplicities: 1,1,32, labels: 7">
<ellipse fill="#f7fcf5" stroke="black" cx="412.575" cy="-306" rx="41.6928" ry="18"/>
<text text-anchor="middle" x="412.575" y="-302.3" font-family="Times,serif" font-size="14.00">11 (3): 7</text>
</a>
</g>
</g>
<!-- 1&#45;&gt;11 -->
<g id="edge4" class="edge"><title>1&#45;&gt;11</title>
<path fill="none" stroke="black" d="M450.726,-360.411C444.623,-351.868 437.06,-341.278 430.28,-331.787"/>
<polygon fill="black" stroke="black" points="433,-329.573 424.339,-323.47 427.304,-333.642 433,-329.573"/>
</g>
<!-- 12 -->
<g id="node13" class="node"><title>12</title>
<g id="a_node13"><a xlink:title="12, diversity: 1, multiplicities: 4, labels: 7">
<ellipse fill="#f7fcf5" stroke="black" cx="513.575" cy="-306" rx="41.6928" ry="18"/>
<text text-anchor="middle" x="513.575" y="-302.3" font-family="Times,serif" font-size="14.00">12 (1): 7</text>
</a>
</g>
</g>
<!-- 1&#45;&gt;12 -->
<g id="edge18" class="edge"><title>1&#45;&gt;12</title>
<path fill="none" stroke="black" d="M474.661,-360.411C480.886,-351.868 488.601,-341.278 495.516,-331.787"/>
<polygon fill="black" stroke="black" points="498.516,-333.613 501.575,-323.47 492.858,-329.491 498.516,-333.613"/>
</g>
<!-- 14 -->
<g id="node15" class="node"><title>14</title>
<g id="a_node15"><a xlink:title="14, diversity: 1, multiplicities: 81, labels: 7">
<ellipse fill="#f7fcf5" stroke="black" cx="614.575" cy="-306" rx="41.6928" ry="18"/>
<text text-anchor="middle" x="614.575" y="-302.3" font-family="Times,serif" font-size="14.00">14 (1): 7</text>
</a>
</g>
</g>
<!-- 1&#45;&gt;14 -->
<g id="edge8" class="edge"><title>1&#45;&gt;14</title>
<path fill="none" stroke="black" d="M491.882,-363.503C516.392,-352.216 551.48,-336.057 577.859,-323.909"/>
<polygon fill="black" stroke="black" points="579.529,-326.993 587.148,-319.631 576.601,-320.635 579.529,-326.993"/>
</g>
<!-- 21 -->
<g id="node22" class="node"><title>21</title>
<g id="a_node22"><a xlink:title="21, diversity: 1, multiplicities: 1, labels: 7">
<ellipse fill="#f7fcf5" stroke="black" cx="715.575" cy="-306" rx="41.6928" ry="18"/>
<text text-anchor="middle" x="715.575" y="-302.3" font-family="Times,serif" font-size="14.00">21 (1): 7</text>
</a>
</g>
</g>
<!-- 1&#45;&gt;21 -->
<g id="edge1" class="edge"><title>1&#45;&gt;21</title>
<path fill="none" stroke="black" d="M502.105,-367.578C543.188,-357.577 609.232,-340.909 665.575,-324 668.553,-323.106 671.618,-322.151 674.697,-321.167"/>
<polygon fill="black" stroke="black" points="676.068,-324.401 684.481,-317.96 673.888,-317.749 676.068,-324.401"/>
</g>
<!-- 4 -->
<g id="node5" class="node"><title>4</title>
<g id="a_node5"><a xlink:title="4, diversity: 2, multiplicities: 16,67, labels: 14,7">
<ellipse fill="#f7fcf5" stroke="black" cx="58.575" cy="-162" rx="48.1917" ry="18"/>
<text text-anchor="middle" x="58.575" y="-158.3" font-family="Times,serif" font-size="14.00">4 (2): 14,7</text>
</a>
</g>
</g>
<!-- 2&#45;&gt;4 -->
<g id="edge22" class="edge"><title>2&#45;&gt;4</title>
<path fill="none" stroke="black" d="M117.711,-303.407C80.4453,-299.338 30.9305,-287.109 5.575,-252 -10.2031,-230.152 10.652,-203.386 30.6587,-184.946"/>
<polygon fill="black" stroke="black" points="33.0048,-187.543 38.2067,-178.313 28.3843,-182.285 33.0048,-187.543"/>
</g>
<!-- 5 -->
<g id="node6" class="node"><title>5</title>
<g id="a_node6"><a xlink:title="5, diversity: 2, multiplicities: 1,70, labels: 14,7">
<ellipse fill="#f7fcf5" stroke="black" cx="62.575" cy="-234" rx="48.1917" ry="18"/>
<text text-anchor="middle" x="62.575" y="-230.3" font-family="Times,serif" font-size="14.00">5 (2): 14,7</text>
</a>
</g>
</g>
<!-- 2&#45;&gt;5 -->
<g id="edge5" class="edge"><title>2&#45;&gt;5</title>
<path fill="none" stroke="black" d="M143.479,-289.983C128.915,-280.086 109.634,-266.982 93.5479,-256.05"/>
<polygon fill="black" stroke="black" points="95.228,-252.96 84.9899,-250.233 91.2934,-258.749 95.228,-252.96"/>
</g>
<!-- 6 -->
<g id="node7" class="node"><title>6</title>
<g id="a_node7"><a xlink:title="6, diversity: 1, multiplicities: 1, labels: 7">
<ellipse fill="#f7fcf5" stroke="black" cx="257.575" cy="-234" rx="37.0935" ry="18"/>
<text text-anchor="middle" x="257.575" y="-230.3" font-family="Times,serif" font-size="14.00">6 (1): 7</text>
</a>
</g>
</g>
<!-- 2&#45;&gt;6 -->
<g id="edge12" class="edge"><title>2&#45;&gt;6</title>
<path fill="none" stroke="black" d="M185.993,-289.465C199.091,-279.498 216.248,-266.444 230.481,-255.615"/>
<polygon fill="black" stroke="black" points="232.632,-258.377 238.471,-249.536 228.393,-252.806 232.632,-258.377"/>
</g>
<!-- 7 -->
<g id="node8" class="node"><title>7</title>
<g id="a_node8"><a xlink:title="7, diversity: 1, multiplicities: 1, labels: 7">
<ellipse fill="#f7fcf5" stroke="black" cx="165.575" cy="-234" rx="37.0935" ry="18"/>
<text text-anchor="middle" x="165.575" y="-230.3" font-family="Times,serif" font-size="14.00">7 (1): 7</text>
</a>
</g>
</g>
<!-- 2&#45;&gt;7 -->
<g id="edge17" class="edge"><title>2&#45;&gt;7</title>
<path fill="none" stroke="black" d="M165.575,-287.697C165.575,-279.983 165.575,-270.712 165.575,-262.112"/>
<polygon fill="black" stroke="black" points="169.075,-262.104 165.575,-252.104 162.075,-262.104 169.075,-262.104"/>
</g>
<!-- 15 -->
<g id="node16" class="node"><title>15</title>
<g id="a_node16"><a xlink:title="15, diversity: 2, multiplicities: 2,401, labels: 7">
<ellipse fill="#f7fcf5" stroke="black" cx="58.575" cy="-90" rx="41.6928" ry="18"/>
<text text-anchor="middle" x="58.575" y="-86.3" font-family="Times,serif" font-size="14.00">15 (2): 7</text>
</a>
</g>
</g>
<!-- 4&#45;&gt;15 -->
<g id="edge19" class="edge"><title>4&#45;&gt;15</title>
<path fill="none" stroke="black" d="M58.575,-143.697C58.575,-135.983 58.575,-126.712 58.575,-118.112"/>
<polygon fill="black" stroke="black" points="62.0751,-118.104 58.575,-108.104 55.0751,-118.104 62.0751,-118.104"/>
</g>
<!-- 6&#45;&gt;0 -->
<g id="edge14" class="edge"><title>6&#45;&gt;0</title>
<path fill="none" stroke="black" d="M257.575,-215.697C257.575,-207.983 257.575,-198.712 257.575,-190.112"/>
<polygon fill="black" stroke="black" points="261.075,-190.104 257.575,-180.104 254.075,-190.104 261.075,-190.104"/>
</g>
<!-- 7&#45;&gt;4 -->
<g id="edge20" class="edge"><title>7&#45;&gt;4</title>
<path fill="none" stroke="black" d="M144.435,-219.17C128.98,-209.059 107.753,-195.172 90.2723,-183.737"/>
<polygon fill="black" stroke="black" points="91.8075,-180.558 81.523,-178.013 87.9752,-186.416 91.8075,-180.558"/>
</g>
<!-- 8 -->
<g id="node9" class="node"><title>8</title>
<g id="a_node9"><a xlink:title="8, diversity: 1, multiplicities: 98, labels: 14,7">
<ellipse fill="#f7fcf5" stroke="black" cx="360.575" cy="-234" rx="48.1917" ry="18"/>
<text text-anchor="middle" x="360.575" y="-230.3" font-family="Times,serif" font-size="14.00">8 (1): 14,7</text>
</a>
</g>
</g>
<!-- 9&#45;&gt;8 -->
<g id="edge2" class="edge"><title>9&#45;&gt;8</title>
<path fill="none" stroke="black" d="M326.239,-288.411C331.597,-280.077 338.205,-269.797 344.19,-260.488"/>
<polygon fill="black" stroke="black" points="347.211,-262.261 349.675,-251.956 341.323,-258.475 347.211,-262.261"/>
</g>
<!-- 10 -->
<g id="node11" class="node"><title>10</title>
<g id="a_node11"><a xlink:title="10, diversity: 1, multiplicities: 1, labels: 7">
<ellipse fill="#f7fcf5" stroke="black" cx="513.575" cy="-234" rx="41.6928" ry="18"/>
<text text-anchor="middle" x="513.575" y="-230.3" font-family="Times,serif" font-size="14.00">10 (1): 7</text>
</a>
</g>
</g>
<!-- 13 -->
<g id="node14" class="node"><title>13</title>
<g id="a_node14"><a xlink:title="13, diversity: 3, multiplicities: 1,5,9, labels: 7">
<ellipse fill="#f7fcf5" stroke="black" cx="513.575" cy="-162" rx="41.6928" ry="18"/>
<text text-anchor="middle" x="513.575" y="-158.3" font-family="Times,serif" font-size="14.00">13 (3): 7</text>
</a>
</g>
</g>
<!-- 10&#45;&gt;13 -->
<g id="edge13" class="edge"><title>10&#45;&gt;13</title>
<path fill="none" stroke="black" d="M513.575,-215.697C513.575,-207.983 513.575,-198.712 513.575,-190.112"/>
<polygon fill="black" stroke="black" points="517.075,-190.104 513.575,-180.104 510.075,-190.104 517.075,-190.104"/>
</g>
<!-- 12&#45;&gt;10 -->
<g id="edge9" class="edge"><title>12&#45;&gt;10</title>
<path fill="none" stroke="black" d="M513.575,-287.697C513.575,-279.983 513.575,-270.712 513.575,-262.112"/>
<polygon fill="black" stroke="black" points="517.075,-262.104 513.575,-252.104 510.075,-262.104 517.075,-262.104"/>
</g>
<!-- 16 -->
<g id="node17" class="node"><title>16</title>
<g id="a_node17"><a xlink:title="16, diversity: 1, multiplicities: 28, labels: 7">
<ellipse fill="#f7fcf5" stroke="black" cx="58.575" cy="-18" rx="41.6928" ry="18"/>
<text text-anchor="middle" x="58.575" y="-14.3" font-family="Times,serif" font-size="14.00">16 (1): 7</text>
</a>
</g>
</g>
<!-- 15&#45;&gt;16 -->
<g id="edge21" class="edge"><title>15&#45;&gt;16</title>
<path fill="none" stroke="black" d="M58.575,-71.6966C58.575,-63.9827 58.575,-54.7125 58.575,-46.1124"/>
<polygon fill="black" stroke="black" points="62.0751,-46.1043 58.575,-36.1043 55.0751,-46.1044 62.0751,-46.1043"/>
</g>
<!-- 17 -->
<g id="node18" class="node"><title>17</title>
<g id="a_node18"><a xlink:title="17, diversity: 2, multiplicities: 1,200, labels: 7">
<ellipse fill="#f7fcf5" stroke="black" cx="664.575" cy="-90" rx="41.6928" ry="18"/>
<text text-anchor="middle" x="664.575" y="-86.3" font-family="Times,serif" font-size="14.00">17 (2): 7</text>
</a>
</g>
</g>
<!-- 18 -->
<g id="node19" class="node"><title>18</title>
<g id="a_node19"><a xlink:title="18, diversity: 3, multiplicities: 1,12,464, labels: 7">
<ellipse fill="#f7fcf5" stroke="black" cx="715.575" cy="-162" rx="41.6928" ry="18"/>
<text text-anchor="middle" x="715.575" y="-158.3" font-family="Times,serif" font-size="14.00">18 (3): 7</text>
</a>
</g>
</g>
<!-- 18&#45;&gt;17 -->
<g id="edge15" class="edge"><title>18&#45;&gt;17</title>
<path fill="none" stroke="black" d="M703.489,-144.411C697.264,-135.868 689.549,-125.278 682.634,-115.787"/>
<polygon fill="black" stroke="black" points="685.292,-113.491 676.575,-107.47 679.634,-117.613 685.292,-113.491"/>
</g>
<!-- 20 -->
<g id="node21" class="node"><title>20</title>
<g id="a_node21"><a xlink:title="20, diversity: 1, multiplicities: 121, labels: 7">
<ellipse fill="#f7fcf5" stroke="black" cx="765.575" cy="-90" rx="41.6928" ry="18"/>
<text text-anchor="middle" x="765.575" y="-86.3" font-family="Times,serif" font-size="14.00">20 (1): 7</text>
</a>
</g>
</g>
<!-- 18&#45;&gt;20 -->
<g id="edge10" class="edge"><title>18&#45;&gt;20</title>
<path fill="none" stroke="black" d="M727.424,-144.411C733.527,-135.868 741.09,-125.278 747.87,-115.787"/>
<polygon fill="black" stroke="black" points="750.846,-117.642 753.811,-107.47 745.15,-113.573 750.846,-117.642"/>
</g>
<!-- 19 -->
<g id="node20" class="node"><title>19</title>
<g id="a_node20"><a xlink:title="19, diversity: 1, multiplicities: 14, labels: 7">
<ellipse fill="#f7fcf5" stroke="black" cx="715.575" cy="-234" rx="41.6928" ry="18"/>
<text text-anchor="middle" x="715.575" y="-230.3" font-family="Times,serif" font-size="14.00">19 (1): 7</text>
</a>
</g>
</g>
<!-- 19&#45;&gt;18 -->
<g id="edge7" class="edge"><title>19&#45;&gt;18</title>
<path fill="none" stroke="black" d="M715.575,-215.697C715.575,-207.983 715.575,-198.712 715.575,-190.112"/>
<polygon fill="black" stroke="black" points="719.075,-190.104 715.575,-180.104 712.075,-190.104 719.075,-190.104"/>
</g>
<!-- 21&#45;&gt;19 -->
<g id="edge11" class="edge"><title>21&#45;&gt;19</title>
<path fill="none" stroke="black" d="M715.575,-287.697C715.575,-279.983 715.575,-270.712 715.575,-262.112"/>
<polygon fill="black" stroke="black" points="719.075,-262.104 715.575,-252.104 712.075,-262.104 719.075,-262.104"/>
</g>
</g>
</svg>
