<?xml version="1.0" encoding="UTF-8" standalone="no"?>
<!DOCTYPE svg PUBLIC "-//W3C//DTD SVG 1.1//EN"
 "http://www.w3.org/Graphics/SVG/1.1/DTD/svg11.dtd">
<!-- Generated by graphviz version 2.38.0 (20140413.2041)
 -->
<!-- Title: %3 Pages: 1 -->
<svg width="181pt" height="260pt"
 viewBox="0.00 0.00 181.00 260.00" xmlns="http://www.w3.org/2000/svg" xmlns:xlink="http://www.w3.org/1999/xlink">
<g id="graph0" class="graph" transform="scale(1 1) rotate(0) translate(4 256)">
<title>%3</title>
<polygon fill="white" stroke="none" points="-4,4 -4,-256 177,-256 177,4 -4,4"/>
<!-- v0 -->
<g id="node1" class="node"><title>v0</title>
<ellipse fill="none" stroke="black" cx="104.5" cy="-90" rx="27" ry="18"/>
<text text-anchor="middle" x="104.5" y="-86.3" font-family="Times,serif" font-size="14.00">0</text>
</g>
<!-- p0 -->
<g id="node2" class="node"><title>p0</title>
<path fill="none" stroke="black" d="M84,-36C84,-36 49,-36 49,-36 43,-36 37,-30 37,-24 37,-24 37,-12 37,-12 37,-6 43,-0 49,-0 49,-0 84,-0 84,-0 90,-0 96,-6 96,-12 96,-12 96,-24 96,-24 96,-30 90,-36 84,-36"/>
<text text-anchor="middle" x="66.5" y="-14.3" font-family="Times,serif" font-size="14.00">path (4)</text>
</g>
<!-- v0&#45;&gt;p0 -->
<g id="edge5" class="edge"><title>v0&#45;&gt;p0</title>
<path fill="none" stroke="black" d="M95.6865,-72.7646C91.2138,-64.5255 85.6719,-54.3166 80.6228,-45.0157"/>
<polygon fill="black" stroke="black" points="83.6428,-43.2426 75.7958,-36.1239 77.4908,-46.5823 83.6428,-43.2426"/>
</g>
<!-- p1 -->
<g id="node3" class="node"><title>p1</title>
<path fill="none" stroke="black" d="M161,-36C161,-36 126,-36 126,-36 120,-36 114,-30 114,-24 114,-24 114,-12 114,-12 114,-6 120,-0 126,-0 126,-0 161,-0 161,-0 167,-0 173,-6 173,-12 173,-12 173,-24 173,-24 173,-30 167,-36 161,-36"/>
<text text-anchor="middle" x="143.5" y="-14.3" font-family="Times,serif" font-size="14.00">path (2)</text>
</g>
<!-- v0&#45;&gt;p1 -->
<g id="edge4" class="edge"><title>v0&#45;&gt;p1</title>
<path fill="none" stroke="black" d="M113.545,-72.7646C118.136,-64.5255 123.824,-54.3166 129.006,-45.0157"/>
<polygon fill="black" stroke="black" points="132.15,-46.5631 133.96,-36.1239 126.035,-43.1561 132.15,-46.5631"/>
</g>
<!-- p2 -->
<g id="node4" class="node"><title>p2</title>
<path fill="none" stroke="black" d="M47,-180C47,-180 12,-180 12,-180 6,-180 0,-174 0,-168 0,-168 0,-156 0,-156 0,-150 6,-144 12,-144 12,-144 47,-144 47,-144 53,-144 59,-150 59,-156 59,-156 59,-168 59,-168 59,-174 53,-180 47,-180"/>
<text text-anchor="middle" x="29.5" y="-158.3" font-family="Times,serif" font-size="14.00">path (6)</text>
</g>
<!-- v13 -->
<g id="node5" class="node"><title>v13</title>
<ellipse fill="none" stroke="black" cx="66.5" cy="-234" rx="27" ry="18"/>
<text text-anchor="middle" x="66.5" y="-230.3" font-family="Times,serif" font-size="14.00">13</text>
</g>
<!-- v13&#45;&gt;p2 -->
<g id="edge1" class="edge"><title>v13&#45;&gt;p2</title>
<path fill="none" stroke="black" d="M57.9185,-216.765C53.5635,-208.525 48.1674,-198.317 43.2511,-189.016"/>
<polygon fill="black" stroke="black" points="46.3187,-187.329 38.5512,-180.124 40.13,-190.6 46.3187,-187.329"/>
</g>
<!-- v14 -->
<g id="node6" class="node"><title>v14</title>
<ellipse fill="none" stroke="black" cx="104.5" cy="-162" rx="27" ry="18"/>
<text text-anchor="middle" x="104.5" y="-158.3" font-family="Times,serif" font-size="14.00">14</text>
</g>
<!-- v13&#45;&gt;v14 -->
<g id="edge2" class="edge"><title>v13&#45;&gt;v14</title>
<path fill="none" stroke="black" d="M75.3135,-216.765C79.9177,-208.283 85.655,-197.714 90.8214,-188.197"/>
<polygon fill="black" stroke="black" points="94.0393,-189.606 95.7343,-179.147 87.8874,-186.266 94.0393,-189.606"/>
</g>
<!-- v14&#45;&gt;v0 -->
<g id="edge3" class="edge"><title>v14&#45;&gt;v0</title>
<path fill="none" stroke="black" d="M104.5,-143.697C104.5,-135.983 104.5,-126.712 104.5,-118.112"/>
<polygon fill="black" stroke="black" points="108,-118.104 104.5,-108.104 101,-118.104 108,-118.104"/>
</g>
</g>
</svg>
