<?xml version="1.0" encoding="UTF-8" standalone="no"?>
<!DOCTYPE svg PUBLIC "-//W3C//DTD SVG 1.1//EN"
 "http://www.w3.org/Graphics/SVG/1.1/DTD/svg11.dtd">
<!-- Generated by graphviz version 2.38.0 (20140413.2041)
 -->
<!-- Title: %3 Pages: 1 -->
<svg width="349pt" height="620pt"
 viewBox="0.00 0.00 349.00 620.00" xmlns="http://www.w3.org/2000/svg" xmlns:xlink="http://www.w3.org/1999/xlink">
<g id="graph0" class="graph" transform="scale(1 1) rotate(0) translate(4 616)">
<title>%3</title>
<polygon fill="white" stroke="none" points="-4,4 -4,-616 345,-616 345,4 -4,4"/>
<!-- v0 -->
<g id="node1" class="node"><title>v0</title>
<ellipse fill="none" stroke="black" cx="123.5" cy="-450" rx="27" ry="18"/>
<text text-anchor="middle" x="123.5" y="-446.3" font-family="Times,serif" font-size="14.00">0</text>
</g>
<!-- v40 -->
<g id="node16" class="node"><title>v40</title>
<ellipse fill="none" stroke="black" cx="30.5" cy="-378" rx="27" ry="18"/>
<text text-anchor="middle" x="30.5" y="-374.3" font-family="Times,serif" font-size="14.00">40</text>
</g>
<!-- v0&#45;&gt;v40 -->
<g id="edge9" class="edge"><title>v0&#45;&gt;v40</title>
<path fill="none" stroke="black" d="M106.007,-435.834C91.9784,-425.274 72.0844,-410.3 56.2382,-398.373"/>
<polygon fill="black" stroke="black" points="58.0087,-395.325 47.9142,-392.107 53.799,-400.918 58.0087,-395.325"/>
</g>
<!-- p7 -->
<g id="node18" class="node"><title>p7</title>
<path fill="none" stroke="black" d="M123,-396C123,-396 88,-396 88,-396 82,-396 76,-390 76,-384 76,-384 76,-372 76,-372 76,-366 82,-360 88,-360 88,-360 123,-360 123,-360 129,-360 135,-366 135,-372 135,-372 135,-384 135,-384 135,-390 129,-396 123,-396"/>
<text text-anchor="middle" x="105.5" y="-374.3" font-family="Times,serif" font-size="14.00">path (3)</text>
</g>
<!-- v0&#45;&gt;p7 -->
<g id="edge11" class="edge"><title>v0&#45;&gt;p7</title>
<path fill="none" stroke="black" d="M119.143,-432.055C117.139,-424.261 114.711,-414.822 112.463,-406.079"/>
<polygon fill="black" stroke="black" points="115.822,-405.089 109.942,-396.275 109.043,-406.832 115.822,-405.089"/>
</g>
<!-- v48 -->
<g id="node19" class="node"><title>v48</title>
<ellipse fill="none" stroke="black" cx="180.5" cy="-378" rx="27" ry="18"/>
<text text-anchor="middle" x="180.5" y="-374.3" font-family="Times,serif" font-size="14.00">48</text>
</g>
<!-- v0&#45;&gt;v48 -->
<g id="edge16" class="edge"><title>v0&#45;&gt;v48</title>
<path fill="none" stroke="black" d="M135.868,-433.811C143.412,-424.546 153.205,-412.52 161.695,-402.094"/>
<polygon fill="black" stroke="black" points="164.556,-404.124 168.156,-394.159 159.128,-399.704 164.556,-404.124"/>
</g>
<!-- v1 -->
<g id="node2" class="node"><title>v1</title>
<ellipse fill="none" stroke="black" cx="234.5" cy="-594" rx="27" ry="18"/>
<text text-anchor="middle" x="234.5" y="-590.3" font-family="Times,serif" font-size="14.00">1</text>
</g>
<!-- v6 -->
<g id="node4" class="node"><title>v6</title>
<ellipse fill="none" stroke="black" cx="234.5" cy="-522" rx="27" ry="18"/>
<text text-anchor="middle" x="234.5" y="-518.3" font-family="Times,serif" font-size="14.00">6</text>
</g>
<!-- v1&#45;&gt;v6 -->
<g id="edge5" class="edge"><title>v1&#45;&gt;v6</title>
<path fill="none" stroke="black" d="M234.5,-575.697C234.5,-567.983 234.5,-558.712 234.5,-550.112"/>
<polygon fill="black" stroke="black" points="238,-550.104 234.5,-540.104 231,-550.104 238,-550.104"/>
</g>
<!-- p0 -->
<g id="node3" class="node"><title>p0</title>
<path fill="none" stroke="black" d="M252,-468C252,-468 217,-468 217,-468 211,-468 205,-462 205,-456 205,-456 205,-444 205,-444 205,-438 211,-432 217,-432 217,-432 252,-432 252,-432 258,-432 264,-438 264,-444 264,-444 264,-456 264,-456 264,-462 258,-468 252,-468"/>
<text text-anchor="middle" x="234.5" y="-446.3" font-family="Times,serif" font-size="14.00">path (8)</text>
</g>
<!-- v11 -->
<g id="node7" class="node"><title>v11</title>
<ellipse fill="none" stroke="black" cx="252.5" cy="-378" rx="27" ry="18"/>
<text text-anchor="middle" x="252.5" y="-374.3" font-family="Times,serif" font-size="14.00">11</text>
</g>
<!-- p0&#45;&gt;v11 -->
<g id="edge14" class="edge"><title>p0&#45;&gt;v11</title>
<path fill="none" stroke="black" d="M238.949,-431.697C240.955,-423.898 243.369,-414.509 245.601,-405.829"/>
<polygon fill="black" stroke="black" points="249.001,-406.661 248.102,-396.104 242.222,-404.918 249.001,-406.661"/>
</g>
<!-- v6&#45;&gt;v0 -->
<g id="edge12" class="edge"><title>v6&#45;&gt;v0</title>
<path fill="none" stroke="black" d="M215.418,-508.967C197.787,-497.848 171.377,-481.193 151.384,-468.585"/>
<polygon fill="black" stroke="black" points="153.03,-465.484 142.704,-463.111 149.296,-471.405 153.03,-465.484"/>
</g>
<!-- v6&#45;&gt;p0 -->
<g id="edge10" class="edge"><title>v6&#45;&gt;p0</title>
<path fill="none" stroke="black" d="M234.5,-503.697C234.5,-495.983 234.5,-486.712 234.5,-478.112"/>
<polygon fill="black" stroke="black" points="238,-478.104 234.5,-468.104 231,-478.104 238,-478.104"/>
</g>
<!-- p1 -->
<g id="node5" class="node"><title>p1</title>
<path fill="none" stroke="black" d="M329,-468C329,-468 294,-468 294,-468 288,-468 282,-462 282,-456 282,-456 282,-444 282,-444 282,-438 288,-432 294,-432 294,-432 329,-432 329,-432 335,-432 341,-438 341,-444 341,-444 341,-456 341,-456 341,-462 335,-468 329,-468"/>
<text text-anchor="middle" x="311.5" y="-446.3" font-family="Times,serif" font-size="14.00">path (6)</text>
</g>
<!-- v6&#45;&gt;p1 -->
<g id="edge1" class="edge"><title>v6&#45;&gt;p1</title>
<path fill="none" stroke="black" d="M250.082,-506.834C260.079,-497.746 273.318,-485.71 284.945,-475.141"/>
<polygon fill="black" stroke="black" points="287.631,-477.429 292.676,-468.113 282.922,-472.25 287.631,-477.429"/>
</g>
<!-- v10 -->
<g id="node6" class="node"><title>v10</title>
<ellipse fill="none" stroke="black" cx="215.5" cy="-234" rx="27" ry="18"/>
<text text-anchor="middle" x="215.5" y="-230.3" font-family="Times,serif" font-size="14.00">10</text>
</g>
<!-- p4 -->
<g id="node10" class="node"><title>p4</title>
<path fill="none" stroke="black" d="M196,-180C196,-180 161,-180 161,-180 155,-180 149,-174 149,-168 149,-168 149,-156 149,-156 149,-150 155,-144 161,-144 161,-144 196,-144 196,-144 202,-144 208,-150 208,-156 208,-156 208,-168 208,-168 208,-174 202,-180 196,-180"/>
<text text-anchor="middle" x="178.5" y="-158.3" font-family="Times,serif" font-size="14.00">path (3)</text>
</g>
<!-- v10&#45;&gt;p4 -->
<g id="edge4" class="edge"><title>v10&#45;&gt;p4</title>
<path fill="none" stroke="black" d="M206.918,-216.765C202.563,-208.525 197.167,-198.317 192.251,-189.016"/>
<polygon fill="black" stroke="black" points="195.319,-187.329 187.551,-180.124 189.13,-190.6 195.319,-187.329"/>
</g>
<!-- v30 -->
<g id="node14" class="node"><title>v30</title>
<ellipse fill="none" stroke="black" cx="253.5" cy="-162" rx="27" ry="18"/>
<text text-anchor="middle" x="253.5" y="-158.3" font-family="Times,serif" font-size="14.00">30</text>
</g>
<!-- v10&#45;&gt;v30 -->
<g id="edge6" class="edge"><title>v10&#45;&gt;v30</title>
<path fill="none" stroke="black" d="M224.313,-216.765C228.918,-208.283 234.655,-197.714 239.821,-188.197"/>
<polygon fill="black" stroke="black" points="243.039,-189.606 244.734,-179.147 236.887,-186.266 243.039,-189.606"/>
</g>
<!-- p5 -->
<g id="node12" class="node"><title>p5</title>
<path fill="none" stroke="black" d="M233,-324C233,-324 198,-324 198,-324 192,-324 186,-318 186,-312 186,-312 186,-300 186,-300 186,-294 192,-288 198,-288 198,-288 233,-288 233,-288 239,-288 245,-294 245,-300 245,-300 245,-312 245,-312 245,-318 239,-324 233,-324"/>
<text text-anchor="middle" x="215.5" y="-302.3" font-family="Times,serif" font-size="14.00">path (2)</text>
</g>
<!-- v11&#45;&gt;p5 -->
<g id="edge2" class="edge"><title>v11&#45;&gt;p5</title>
<path fill="none" stroke="black" d="M243.918,-360.765C239.563,-352.525 234.167,-342.317 229.251,-333.016"/>
<polygon fill="black" stroke="black" points="232.319,-331.329 224.551,-324.124 226.13,-334.6 232.319,-331.329"/>
</g>
<!-- v29 -->
<g id="node13" class="node"><title>v29</title>
<ellipse fill="none" stroke="black" cx="290.5" cy="-306" rx="27" ry="18"/>
<text text-anchor="middle" x="290.5" y="-302.3" font-family="Times,serif" font-size="14.00">29</text>
</g>
<!-- v11&#45;&gt;v29 -->
<g id="edge15" class="edge"><title>v11&#45;&gt;v29</title>
<path fill="none" stroke="black" d="M261.313,-360.765C265.918,-352.283 271.655,-341.714 276.821,-332.197"/>
<polygon fill="black" stroke="black" points="280.039,-333.606 281.734,-323.147 273.887,-330.266 280.039,-333.606"/>
</g>
<!-- p2 -->
<g id="node8" class="node"><title>p2</title>
<path fill="none" stroke="black" d="M233,-36C233,-36 198,-36 198,-36 192,-36 186,-30 186,-24 186,-24 186,-12 186,-12 186,-6 192,-0 198,-0 198,-0 233,-0 233,-0 239,-0 245,-6 245,-12 245,-12 245,-24 245,-24 245,-30 239,-36 233,-36"/>
<text text-anchor="middle" x="215.5" y="-14.3" font-family="Times,serif" font-size="14.00">path (7)</text>
</g>
<!-- p3 -->
<g id="node9" class="node"><title>p3</title>
<path fill="none" stroke="black" d="M310,-36C310,-36 275,-36 275,-36 269,-36 263,-30 263,-24 263,-24 263,-12 263,-12 263,-6 269,-0 275,-0 275,-0 310,-0 310,-0 316,-0 322,-6 322,-12 322,-12 322,-24 322,-24 322,-30 316,-36 310,-36"/>
<text text-anchor="middle" x="292.5" y="-14.3" font-family="Times,serif" font-size="14.00">path (8)</text>
</g>
<!-- v23 -->
<g id="node11" class="node"><title>v23</title>
<ellipse fill="none" stroke="black" cx="253.5" cy="-90" rx="27" ry="18"/>
<text text-anchor="middle" x="253.5" y="-86.3" font-family="Times,serif" font-size="14.00">23</text>
</g>
<!-- v23&#45;&gt;p2 -->
<g id="edge8" class="edge"><title>v23&#45;&gt;p2</title>
<path fill="none" stroke="black" d="M244.687,-72.7646C240.214,-64.5255 234.672,-54.3166 229.623,-45.0157"/>
<polygon fill="black" stroke="black" points="232.643,-43.2426 224.796,-36.1239 226.491,-46.5823 232.643,-43.2426"/>
</g>
<!-- v23&#45;&gt;p3 -->
<g id="edge13" class="edge"><title>v23&#45;&gt;p3</title>
<path fill="none" stroke="black" d="M262.545,-72.7646C267.136,-64.5255 272.824,-54.3166 278.006,-45.0157"/>
<polygon fill="black" stroke="black" points="281.15,-46.5631 282.96,-36.1239 275.035,-43.1561 281.15,-46.5631"/>
</g>
<!-- p5&#45;&gt;v10 -->
<g id="edge18" class="edge"><title>p5&#45;&gt;v10</title>
<path fill="none" stroke="black" d="M215.5,-287.697C215.5,-279.983 215.5,-270.712 215.5,-262.112"/>
<polygon fill="black" stroke="black" points="219,-262.104 215.5,-252.104 212,-262.104 219,-262.104"/>
</g>
<!-- v30&#45;&gt;v23 -->
<g id="edge7" class="edge"><title>v30&#45;&gt;v23</title>
<path fill="none" stroke="black" d="M253.5,-143.697C253.5,-135.983 253.5,-126.712 253.5,-118.112"/>
<polygon fill="black" stroke="black" points="257,-118.104 253.5,-108.104 250,-118.104 257,-118.104"/>
</g>
<!-- p6 -->
<g id="node15" class="node"><title>p6</title>
<path fill="none" stroke="black" d="M47,-324C47,-324 12,-324 12,-324 6,-324 0,-318 0,-312 0,-312 0,-300 0,-300 0,-294 6,-288 12,-288 12,-288 47,-288 47,-288 53,-288 59,-294 59,-300 59,-300 59,-312 59,-312 59,-318 53,-324 47,-324"/>
<text text-anchor="middle" x="29.5" y="-302.3" font-family="Times,serif" font-size="14.00">path (3)</text>
</g>
<!-- v40&#45;&gt;p6 -->
<g id="edge17" class="edge"><title>v40&#45;&gt;p6</title>
<path fill="none" stroke="black" d="M30.2528,-359.697C30.1426,-351.983 30.0102,-342.712 29.8873,-334.112"/>
<polygon fill="black" stroke="black" points="33.3869,-334.053 29.7443,-324.104 26.3876,-334.153 33.3869,-334.053"/>
</g>
<!-- v41 -->
<g id="node17" class="node"><title>v41</title>
<ellipse fill="none" stroke="black" cx="104.5" cy="-306" rx="27" ry="18"/>
<text text-anchor="middle" x="104.5" y="-302.3" font-family="Times,serif" font-size="14.00">41</text>
</g>
<!-- v40&#45;&gt;v41 -->
<g id="edge3" class="edge"><title>v40&#45;&gt;v41</title>
<path fill="none" stroke="black" d="M45.475,-362.834C56.0067,-352.872 70.2817,-339.369 82.155,-328.137"/>
<polygon fill="black" stroke="black" points="84.6878,-330.559 89.5473,-321.144 79.8773,-325.474 84.6878,-330.559"/>
</g>
</g>
</svg>
