<?xml version="1.0" encoding="UTF-8" standalone="no"?>
<!DOCTYPE svg PUBLIC "-//W3C//DTD SVG 1.1//EN"
 "http://www.w3.org/Graphics/SVG/1.1/DTD/svg11.dtd">
<!-- Generated by graphviz version 2.40.1 (20161225.0304)
 -->
<!-- Title: %3 Pages: 1 -->
<svg width="692pt" height="692pt"
 viewBox="0.00 0.00 692.00 692.00" xmlns="http://www.w3.org/2000/svg" xmlns:xlink="http://www.w3.org/1999/xlink">
<g id="graph0" class="graph" transform="scale(1 1) rotate(0) translate(4 688)">
<title>%3</title>
<polygon fill="#ffffff" stroke="transparent" points="-4,4 -4,-688 688,-688 688,4 -4,4"/>
<!-- 0 -->
<g id="node1" class="node">
<title>0</title>
<g id="a_node1"><a xlink:title="D">
<ellipse fill="#0000f6" stroke="#000000" stroke-width="0" cx="72" cy="-162" rx="18" ry="18"/>
</a>
</g>
</g>
<!-- 1 -->
<g id="node2" class="node">
<title>1</title>
<g id="a_node2"><a xlink:title="D">
<ellipse fill="#0000f6" stroke="#000000" stroke-width="0" cx="128" cy="-450" rx="18" ry="18"/>
</a>
</g>
</g>
<!-- 2 -->
<g id="node3" class="node">
<title>2</title>
<g id="a_node3"><a xlink:title="D">
<ellipse fill="#0000f6" stroke="#000000" stroke-width="0" cx="72" cy="-234" rx="18" ry="18"/>
</a>
</g>
</g>
<!-- 2&#45;&gt;0 -->
<g id="edge2" class="edge">
<title>2&#45;&gt;0</title>
<path fill="none" stroke="#000000" d="M72,-215.8314C72,-208.131 72,-198.9743 72,-190.4166"/>
<polygon fill="#000000" stroke="#000000" points="75.5001,-190.4132 72,-180.4133 68.5001,-190.4133 75.5001,-190.4132"/>
</g>
<!-- 3 -->
<g id="node4" class="node">
<title>3</title>
<g id="a_node4"><a xlink:title="D">
<ellipse fill="#0000f6" stroke="#000000" stroke-width="0" cx="141" cy="-522" rx="18" ry="18"/>
</a>
</g>
</g>
<!-- 3&#45;&gt;1 -->
<g id="edge50" class="edge">
<title>3&#45;&gt;1</title>
<path fill="none" stroke="#000000" d="M137.7865,-504.2022C136.349,-496.2406 134.6205,-486.6671 133.0187,-477.7957"/>
<polygon fill="#000000" stroke="#000000" points="136.4428,-477.0615 131.2216,-467.8425 129.5542,-478.3053 136.4428,-477.0615"/>
</g>
<!-- 4 -->
<g id="node5" class="node">
<title>4</title>
<g id="a_node5"><a xlink:title="D">
<ellipse fill="#0000f6" stroke="#000000" stroke-width="0" cx="18" cy="-306" rx="18" ry="18"/>
</a>
</g>
</g>
<!-- 5 -->
<g id="node6" class="node">
<title>5</title>
<g id="a_node6"><a xlink:title="D">
<ellipse fill="#0000f6" stroke="#000000" stroke-width="0" cx="18" cy="-378" rx="18" ry="18"/>
</a>
</g>
</g>
<!-- 5&#45;&gt;4 -->
<g id="edge32" class="edge">
<title>5&#45;&gt;4</title>
<path fill="none" stroke="#000000" d="M18,-359.8314C18,-352.131 18,-342.9743 18,-334.4166"/>
<polygon fill="#000000" stroke="#000000" points="21.5001,-334.4132 18,-324.4133 14.5001,-334.4133 21.5001,-334.4132"/>
</g>
<!-- 6 -->
<g id="node7" class="node">
<title>6</title>
<g id="a_node7"><a xlink:title="D">
<ellipse fill="#0000f6" stroke="#000000" stroke-width="0" cx="369" cy="-450" rx="18" ry="18"/>
</a>
</g>
</g>
<!-- 10 -->
<g id="node11" class="node">
<title>10</title>
<g id="a_node11"><a xlink:title="D">
<ellipse fill="#0000f6" stroke="#000000" stroke-width="0" cx="369" cy="-378" rx="18" ry="18"/>
</a>
</g>
</g>
<!-- 6&#45;&gt;10 -->
<g id="edge9" class="edge">
<title>6&#45;&gt;10</title>
<path fill="none" stroke="#000000" d="M369,-431.8314C369,-424.131 369,-414.9743 369,-406.4166"/>
<polygon fill="#000000" stroke="#000000" points="372.5001,-406.4132 369,-396.4133 365.5001,-406.4133 372.5001,-406.4132"/>
</g>
<!-- 18 -->
<g id="node19" class="node">
<title>18</title>
<g id="a_node19"><a xlink:title="D">
<ellipse fill="#0000f6" stroke="#000000" stroke-width="0" cx="477" cy="-378" rx="18" ry="18"/>
</a>
</g>
</g>
<!-- 6&#45;&gt;18 -->
<g id="edge33" class="edge">
<title>6&#45;&gt;18</title>
<path fill="none" stroke="#000000" d="M384.0169,-439.9887C401.97,-428.02 432.2325,-407.845 453.3396,-393.7736"/>
<polygon fill="#000000" stroke="#000000" points="455.3834,-396.6176 461.7624,-388.1584 451.5005,-390.7932 455.3834,-396.6176"/>
</g>
<!-- 20 -->
<g id="node21" class="node">
<title>20</title>
<g id="a_node21"><a xlink:title="D">
<ellipse fill="#0000f6" stroke="#000000" stroke-width="0" cx="598" cy="-378" rx="18" ry="18"/>
</a>
</g>
</g>
<!-- 6&#45;&gt;20 -->
<g id="edge53" class="edge">
<title>6&#45;&gt;20</title>
<path fill="none" stroke="#000000" d="M383.6302,-438.9949C387.5077,-436.4339 391.7906,-433.9031 396,-432 455.0838,-405.2874 530.0603,-389.5621 569.9864,-382.4965"/>
<polygon fill="#000000" stroke="#000000" points="570.7814,-385.9113 580.045,-380.7697 569.597,-379.0122 570.7814,-385.9113"/>
</g>
<!-- 7 -->
<g id="node8" class="node">
<title>7</title>
<g id="a_node8"><a xlink:title="D">
<ellipse fill="#0000f6" stroke="#000000" stroke-width="0" cx="72" cy="-378" rx="18" ry="18"/>
</a>
</g>
</g>
<!-- 8 -->
<g id="node9" class="node">
<title>8</title>
<g id="a_node9"><a xlink:title="D">
<ellipse fill="#0000f6" stroke="#000000" stroke-width="0" cx="283" cy="-594" rx="18" ry="18"/>
</a>
</g>
</g>
<!-- 8&#45;&gt;3 -->
<g id="edge38" class="edge">
<title>8&#45;&gt;3</title>
<path fill="none" stroke="#000000" d="M266.2339,-587.0624C243.4888,-577.442 201.8133,-559.0696 168,-540 166.8683,-539.3618 165.7214,-538.6924 164.5712,-538.0028"/>
<polygon fill="#000000" stroke="#000000" points="166.2072,-534.8959 155.8873,-532.4976 162.4592,-540.808 166.2072,-534.8959"/>
</g>
<!-- 9 -->
<g id="node10" class="node">
<title>9</title>
<g id="a_node10"><a xlink:title="D">
<ellipse fill="#0000f6" stroke="#000000" stroke-width="0" cx="195" cy="-522" rx="18" ry="18"/>
</a>
</g>
</g>
<!-- 8&#45;&gt;9 -->
<g id="edge8" class="edge">
<title>8&#45;&gt;9</title>
<path fill="none" stroke="#000000" d="M268.8613,-582.432C254.8771,-570.9904 233.2735,-553.3147 217.0365,-540.0299"/>
<polygon fill="#000000" stroke="#000000" points="219.0596,-537.1629 209.1036,-533.5393 214.6269,-542.5806 219.0596,-537.1629"/>
</g>
<!-- 13 -->
<g id="node14" class="node">
<title>13</title>
<g id="a_node14"><a xlink:title="D">
<ellipse fill="#0000f6" stroke="#000000" stroke-width="0" cx="256" cy="-522" rx="18" ry="18"/>
</a>
</g>
</g>
<!-- 8&#45;&gt;13 -->
<g id="edge3" class="edge">
<title>8&#45;&gt;13</title>
<path fill="none" stroke="#000000" d="M276.6014,-576.937C273.407,-568.4186 269.471,-557.9227 265.8982,-548.3952"/>
<polygon fill="#000000" stroke="#000000" points="269.1411,-547.0749 262.3527,-538.9405 262.5868,-549.5328 269.1411,-547.0749"/>
</g>
<!-- 26 -->
<g id="node27" class="node">
<title>26</title>
<g id="a_node27"><a xlink:title="D">
<ellipse fill="#0000f6" stroke="#000000" stroke-width="0" cx="310" cy="-522" rx="18" ry="18"/>
</a>
</g>
</g>
<!-- 8&#45;&gt;26 -->
<g id="edge47" class="edge">
<title>8&#45;&gt;26</title>
<path fill="none" stroke="#000000" d="M289.3986,-576.937C292.593,-568.4186 296.529,-557.9227 300.1018,-548.3952"/>
<polygon fill="#000000" stroke="#000000" points="303.4132,-549.5328 303.6473,-538.9405 296.8589,-547.0749 303.4132,-549.5328"/>
</g>
<!-- 27 -->
<g id="node28" class="node">
<title>27</title>
<g id="a_node28"><a xlink:title="D">
<ellipse fill="#0000f6" stroke="#000000" stroke-width="0" cx="364" cy="-522" rx="18" ry="18"/>
</a>
</g>
</g>
<!-- 8&#45;&gt;27 -->
<g id="edge57" class="edge">
<title>8&#45;&gt;27</title>
<path fill="none" stroke="#000000" d="M296.7405,-581.7862C309.3843,-570.5473 328.3262,-553.7101 342.8897,-540.7647"/>
<polygon fill="#000000" stroke="#000000" points="345.3135,-543.2931 350.4624,-534.0334 340.663,-538.0612 345.3135,-543.2931"/>
</g>
<!-- 36 -->
<g id="node37" class="node">
<title>36</title>
<g id="a_node37"><a xlink:title="D">
<ellipse fill="#0000f6" stroke="#000000" stroke-width="0" cx="421" cy="-522" rx="18" ry="18"/>
</a>
</g>
</g>
<!-- 8&#45;&gt;36 -->
<g id="edge18" class="edge">
<title>8&#45;&gt;36</title>
<path fill="none" stroke="#000000" d="M297.855,-583.4443C301.7282,-580.8746 305.9528,-578.2274 310,-576 344.5138,-557.0053 356.0441,-558.1683 391,-540 392.8189,-539.0546 394.6797,-538.0456 396.5396,-537.0063"/>
<polygon fill="#000000" stroke="#000000" points="398.7546,-539.7667 405.635,-531.71 395.2321,-533.7175 398.7546,-539.7667"/>
</g>
<!-- 32 -->
<g id="node33" class="node">
<title>32</title>
<g id="a_node33"><a xlink:title="D">
<ellipse fill="#0000f6" stroke="#000000" stroke-width="0" cx="182" cy="-450" rx="18" ry="18"/>
</a>
</g>
</g>
<!-- 9&#45;&gt;32 -->
<g id="edge6" class="edge">
<title>9&#45;&gt;32</title>
<path fill="none" stroke="#000000" d="M191.7865,-504.2022C190.349,-496.2406 188.6205,-486.6671 187.0187,-477.7957"/>
<polygon fill="#000000" stroke="#000000" points="190.4428,-477.0615 185.2216,-467.8425 183.5542,-478.3053 190.4428,-477.0615"/>
</g>
<!-- 11 -->
<g id="node12" class="node">
<title>11</title>
<g id="a_node12"><a xlink:title="D">
<ellipse fill="#0000f6" stroke="#000000" stroke-width="0" cx="666" cy="-306" rx="18" ry="18"/>
</a>
</g>
</g>
<!-- 12 -->
<g id="node13" class="node">
<title>12</title>
<g id="a_node13"><a xlink:title="D">
<ellipse fill="#0000f6" stroke="#000000" stroke-width="0" cx="126" cy="-234" rx="18" ry="18"/>
</a>
</g>
</g>
<!-- 14 -->
<g id="node15" class="node">
<title>14</title>
<g id="a_node15"><a xlink:title="D">
<ellipse fill="#0000f6" stroke="#000000" stroke-width="0" cx="477" cy="-162" rx="18" ry="18"/>
</a>
</g>
</g>
<!-- 15 -->
<g id="node16" class="node">
<title>15</title>
<g id="a_node16"><a xlink:title="D">
<ellipse fill="#0000f6" stroke="#000000" stroke-width="0" cx="423" cy="-450" rx="18" ry="18"/>
</a>
</g>
</g>
<!-- 16 -->
<g id="node17" class="node">
<title>16</title>
<g id="a_node17"><a xlink:title="D">
<ellipse fill="#0000f6" stroke="#000000" stroke-width="0" cx="504" cy="-234" rx="18" ry="18"/>
</a>
</g>
</g>
<!-- 16&#45;&gt;14 -->
<g id="edge13" class="edge">
<title>16&#45;&gt;14</title>
<path fill="none" stroke="#000000" d="M497.6014,-216.937C494.407,-208.4186 490.471,-197.9227 486.8982,-188.3952"/>
<polygon fill="#000000" stroke="#000000" points="490.1411,-187.0749 483.3527,-178.9405 483.5868,-189.5328 490.1411,-187.0749"/>
</g>
<!-- 23 -->
<g id="node24" class="node">
<title>23</title>
<g id="a_node24"><a xlink:title="D">
<ellipse fill="#0000f6" stroke="#000000" stroke-width="0" cx="531" cy="-162" rx="18" ry="18"/>
</a>
</g>
</g>
<!-- 16&#45;&gt;23 -->
<g id="edge39" class="edge">
<title>16&#45;&gt;23</title>
<path fill="none" stroke="#000000" d="M510.3986,-216.937C513.593,-208.4186 517.529,-197.9227 521.1018,-188.3952"/>
<polygon fill="#000000" stroke="#000000" points="524.4132,-189.5328 524.6473,-178.9405 517.8589,-187.0749 524.4132,-189.5328"/>
</g>
<!-- 17 -->
<g id="node18" class="node">
<title>17</title>
<g id="a_node18"><a xlink:title="D">
<ellipse fill="#0000f6" stroke="#000000" stroke-width="0" cx="310" cy="-666" rx="18" ry="18"/>
</a>
</g>
</g>
<!-- 17&#45;&gt;8 -->
<g id="edge1" class="edge">
<title>17&#45;&gt;8</title>
<path fill="none" stroke="#000000" d="M303.6014,-648.937C300.407,-640.4186 296.471,-629.9227 292.8982,-620.3952"/>
<polygon fill="#000000" stroke="#000000" points="296.1411,-619.0749 289.3527,-610.9405 289.5868,-621.5328 296.1411,-619.0749"/>
</g>
<!-- 22 -->
<g id="node23" class="node">
<title>22</title>
<g id="a_node23"><a xlink:title="D">
<ellipse fill="#0000f6" stroke="#000000" stroke-width="0" cx="337" cy="-594" rx="18" ry="18"/>
</a>
</g>
</g>
<!-- 17&#45;&gt;22 -->
<g id="edge43" class="edge">
<title>17&#45;&gt;22</title>
<path fill="none" stroke="#000000" d="M316.3986,-648.937C319.593,-640.4186 323.529,-629.9227 327.1018,-620.3952"/>
<polygon fill="#000000" stroke="#000000" points="330.4132,-621.5328 330.6473,-610.9405 323.8589,-619.0749 330.4132,-621.5328"/>
</g>
<!-- 19 -->
<g id="node20" class="node">
<title>19</title>
<g id="a_node20"><a xlink:title="D">
<ellipse fill="#0000f6" stroke="#000000" stroke-width="0" cx="396" cy="-306" rx="18" ry="18"/>
</a>
</g>
</g>
<!-- 18&#45;&gt;19 -->
<g id="edge10" class="edge">
<title>18&#45;&gt;19</title>
<path fill="none" stroke="#000000" d="M463.2595,-365.7862C450.6157,-354.5473 431.6738,-337.7101 417.1103,-324.7647"/>
<polygon fill="#000000" stroke="#000000" points="419.337,-322.0612 409.5376,-318.0334 414.6865,-327.2931 419.337,-322.0612"/>
</g>
<!-- 24 -->
<g id="node25" class="node">
<title>24</title>
<g id="a_node25"><a xlink:title="D">
<ellipse fill="#0000f6" stroke="#000000" stroke-width="0" cx="450" cy="-306" rx="18" ry="18"/>
</a>
</g>
</g>
<!-- 18&#45;&gt;24 -->
<g id="edge36" class="edge">
<title>18&#45;&gt;24</title>
<path fill="none" stroke="#000000" d="M470.6014,-360.937C467.407,-352.4186 463.471,-341.9227 459.8982,-332.3952"/>
<polygon fill="#000000" stroke="#000000" points="463.1411,-331.0749 456.3527,-322.9405 456.5868,-333.5328 463.1411,-331.0749"/>
</g>
<!-- 29 -->
<g id="node30" class="node">
<title>29</title>
<g id="a_node30"><a xlink:title="D">
<ellipse fill="#0000f6" stroke="#000000" stroke-width="0" cx="504" cy="-306" rx="18" ry="18"/>
</a>
</g>
</g>
<!-- 18&#45;&gt;29 -->
<g id="edge54" class="edge">
<title>18&#45;&gt;29</title>
<path fill="none" stroke="#000000" d="M483.3986,-360.937C486.593,-352.4186 490.529,-341.9227 494.1018,-332.3952"/>
<polygon fill="#000000" stroke="#000000" points="497.4132,-333.5328 497.6473,-322.9405 490.8589,-331.0749 497.4132,-333.5328"/>
</g>
<!-- 35 -->
<g id="node36" class="node">
<title>35</title>
<g id="a_node36"><a xlink:title="D">
<ellipse fill="#0000f6" stroke="#000000" stroke-width="0" cx="558" cy="-306" rx="18" ry="18"/>
</a>
</g>
</g>
<!-- 18&#45;&gt;35 -->
<g id="edge34" class="edge">
<title>18&#45;&gt;35</title>
<path fill="none" stroke="#000000" d="M490.7405,-365.7862C503.3843,-354.5473 522.3262,-337.7101 536.8897,-324.7647"/>
<polygon fill="#000000" stroke="#000000" points="539.3135,-327.2931 544.4624,-318.0334 534.663,-322.0612 539.3135,-327.2931"/>
</g>
<!-- 38 -->
<g id="node39" class="node">
<title>38</title>
<g id="a_node39"><a xlink:title="D">
<ellipse fill="#0000f6" stroke="#000000" stroke-width="0" cx="612" cy="-306" rx="18" ry="18"/>
</a>
</g>
</g>
<!-- 18&#45;&gt;38 -->
<g id="edge25" class="edge">
<title>18&#45;&gt;38</title>
<path fill="none" stroke="#000000" d="M493.4332,-370.5634C514.896,-360.6754 553.4517,-342.3082 585,-324 586.1237,-323.3479 587.2642,-322.6671 588.4091,-321.9683"/>
<polygon fill="#000000" stroke="#000000" points="590.5333,-324.7644 597.0735,-316.4291 586.7628,-318.8666 590.5333,-324.7644"/>
</g>
<!-- 20&#45;&gt;11 -->
<g id="edge52" class="edge">
<title>20&#45;&gt;11</title>
<path fill="none" stroke="#000000" d="M610.4722,-364.7941C620.537,-354.1373 634.8773,-338.9535 646.4634,-326.6858"/>
<polygon fill="#000000" stroke="#000000" points="649.2851,-328.7955 653.6068,-319.1222 644.196,-323.9892 649.2851,-328.7955"/>
</g>
<!-- 21 -->
<g id="node22" class="node">
<title>21</title>
<g id="a_node22"><a xlink:title="D">
<ellipse fill="#0000f6" stroke="#000000" stroke-width="0" cx="126" cy="-306" rx="18" ry="18"/>
</a>
</g>
</g>
<!-- 21&#45;&gt;2 -->
<g id="edge5" class="edge">
<title>21&#45;&gt;2</title>
<path fill="none" stroke="#000000" d="M115.0723,-291.4297C107.6066,-281.4754 97.5632,-268.0842 89.0526,-256.7368"/>
<polygon fill="#000000" stroke="#000000" points="91.7115,-254.4486 82.9115,-248.5486 86.1115,-258.6486 91.7115,-254.4486"/>
</g>
<!-- 21&#45;&gt;12 -->
<g id="edge27" class="edge">
<title>21&#45;&gt;12</title>
<path fill="none" stroke="#000000" d="M126,-287.8314C126,-280.131 126,-270.9743 126,-262.4166"/>
<polygon fill="#000000" stroke="#000000" points="129.5001,-262.4132 126,-252.4133 122.5001,-262.4133 129.5001,-262.4132"/>
</g>
<!-- 30 -->
<g id="node31" class="node">
<title>30</title>
<g id="a_node31"><a xlink:title="D">
<ellipse fill="#0000f6" stroke="#000000" stroke-width="0" cx="180" cy="-234" rx="18" ry="18"/>
</a>
</g>
</g>
<!-- 21&#45;&gt;30 -->
<g id="edge41" class="edge">
<title>21&#45;&gt;30</title>
<path fill="none" stroke="#000000" d="M136.9277,-291.4297C144.3934,-281.4754 154.4368,-268.0842 162.9474,-256.7368"/>
<polygon fill="#000000" stroke="#000000" points="165.8885,-258.6486 169.0885,-248.5486 160.2885,-254.4486 165.8885,-258.6486"/>
</g>
<!-- 25 -->
<g id="node26" class="node">
<title>25</title>
<g id="a_node26"><a xlink:title="D">
<ellipse fill="#0000f6" stroke="#000000" stroke-width="0" cx="612" cy="-162" rx="18" ry="18"/>
</a>
</g>
</g>
<!-- 34 -->
<g id="node35" class="node">
<title>34</title>
<g id="a_node35"><a xlink:title="D">
<ellipse fill="#0000f6" stroke="#000000" stroke-width="0" cx="612" cy="-90" rx="18" ry="18"/>
</a>
</g>
</g>
<!-- 25&#45;&gt;34 -->
<g id="edge44" class="edge">
<title>25&#45;&gt;34</title>
<path fill="none" stroke="#000000" d="M612,-143.8314C612,-136.131 612,-126.9743 612,-118.4166"/>
<polygon fill="#000000" stroke="#000000" points="615.5001,-118.4132 612,-108.4133 608.5001,-118.4133 615.5001,-118.4132"/>
</g>
<!-- 26&#45;&gt;6 -->
<g id="edge15" class="edge">
<title>26&#45;&gt;6</title>
<path fill="none" stroke="#000000" d="M321.6565,-507.7751C329.9798,-497.6179 341.3387,-483.7562 350.8439,-472.1566"/>
<polygon fill="#000000" stroke="#000000" points="353.7366,-474.1485 357.3677,-464.1953 348.3223,-469.7117 353.7366,-474.1485"/>
</g>
<!-- 28 -->
<g id="node29" class="node">
<title>28</title>
<g id="a_node29"><a xlink:title="D">
<ellipse fill="#0000f6" stroke="#000000" stroke-width="0" cx="126" cy="-378" rx="18" ry="18"/>
</a>
</g>
</g>
<!-- 29&#45;&gt;16 -->
<g id="edge48" class="edge">
<title>29&#45;&gt;16</title>
<path fill="none" stroke="#000000" d="M504,-287.8314C504,-280.131 504,-270.9743 504,-262.4166"/>
<polygon fill="#000000" stroke="#000000" points="507.5001,-262.4132 504,-252.4133 500.5001,-262.4133 507.5001,-262.4132"/>
</g>
<!-- 31 -->
<g id="node32" class="node">
<title>31</title>
<g id="a_node32"><a xlink:title="D">
<ellipse fill="#0000f6" stroke="#000000" stroke-width="0" cx="180" cy="-378" rx="18" ry="18"/>
</a>
</g>
</g>
<!-- 31&#45;&gt;21 -->
<g id="edge46" class="edge">
<title>31&#45;&gt;21</title>
<path fill="none" stroke="#000000" d="M169.0723,-363.4297C161.6066,-353.4754 151.5632,-340.0842 143.0526,-328.7368"/>
<polygon fill="#000000" stroke="#000000" points="145.7115,-326.4486 136.9115,-320.5486 140.1115,-330.6486 145.7115,-326.4486"/>
</g>
<!-- 32&#45;&gt;5 -->
<g id="edge55" class="edge">
<title>32&#45;&gt;5</title>
<path fill="none" stroke="#000000" d="M167.295,-439.1545C163.4189,-436.5904 159.1554,-434.0183 155,-432 108.7287,-409.5259 91.2713,-418.4741 45,-396 43.8313,-395.4324 42.654,-394.8209 41.4792,-394.1781"/>
<polygon fill="#000000" stroke="#000000" points="43.0683,-391.0482 32.705,-388.8455 39.4327,-397.0301 43.0683,-391.0482"/>
</g>
<!-- 32&#45;&gt;7 -->
<g id="edge24" class="edge">
<title>32&#45;&gt;7</title>
<path fill="none" stroke="#000000" d="M166.8925,-439.8642C163.0241,-437.2865 158.865,-434.5304 155,-432 130.2453,-415.7932 123.7547,-412.2068 99,-396 97.913,-395.2883 96.8027,-394.5588 95.6821,-393.8204"/>
<polygon fill="#000000" stroke="#000000" points="97.3762,-390.7442 87.1075,-388.1358 93.5083,-396.5786 97.3762,-390.7442"/>
</g>
<!-- 32&#45;&gt;28 -->
<g id="edge30" class="edge">
<title>32&#45;&gt;28</title>
<path fill="none" stroke="#000000" d="M170.9362,-435.7751C163.1387,-425.7498 152.5344,-412.1156 143.5853,-400.6096"/>
<polygon fill="#000000" stroke="#000000" points="146.3275,-398.4344 137.4253,-392.6896 140.802,-402.732 146.3275,-398.4344"/>
</g>
<!-- 32&#45;&gt;31 -->
<g id="edge12" class="edge">
<title>32&#45;&gt;31</title>
<path fill="none" stroke="#000000" d="M181.4953,-431.8314C181.2814,-424.131 181.0271,-414.9743 180.7894,-406.4166"/>
<polygon fill="#000000" stroke="#000000" points="184.2879,-406.3122 180.5115,-396.4133 177.2906,-406.5066 184.2879,-406.3122"/>
</g>
<!-- 33 -->
<g id="node34" class="node">
<title>33</title>
<g id="a_node34"><a xlink:title="D">
<ellipse fill="#0000f6" stroke="#000000" stroke-width="0" cx="234" cy="-378" rx="18" ry="18"/>
</a>
</g>
</g>
<!-- 32&#45;&gt;33 -->
<g id="edge31" class="edge">
<title>32&#45;&gt;33</title>
<path fill="none" stroke="#000000" d="M192.7744,-435.0816C199.8164,-425.3311 209.1591,-412.395 217.1699,-401.3032"/>
<polygon fill="#000000" stroke="#000000" points="220.2218,-403.0554 223.2394,-392.8993 214.547,-398.9569 220.2218,-403.0554"/>
</g>
<!-- 44 -->
<g id="node45" class="node">
<title>44</title>
<g id="a_node45"><a xlink:title="D">
<ellipse fill="#0000f6" stroke="#000000" stroke-width="0" cx="288" cy="-378" rx="18" ry="18"/>
</a>
</g>
</g>
<!-- 32&#45;&gt;44 -->
<g id="edge7" class="edge">
<title>32&#45;&gt;44</title>
<path fill="none" stroke="#000000" d="M197.1872,-439.6842C214.7403,-427.7613 243.8394,-407.9959 264.3598,-394.0575"/>
<polygon fill="#000000" stroke="#000000" points="266.5354,-396.8108 272.841,-388.2967 262.6022,-391.0203 266.5354,-396.8108"/>
</g>
<!-- 52 -->
<g id="node53" class="node">
<title>52</title>
<g id="a_node53"><a xlink:title="D">
<ellipse fill="#0000f6" stroke="#000000" stroke-width="0" cx="558" cy="-234" rx="18" ry="18"/>
</a>
</g>
</g>
<!-- 35&#45;&gt;52 -->
<g id="edge51" class="edge">
<title>35&#45;&gt;52</title>
<path fill="none" stroke="#000000" d="M558,-287.8314C558,-280.131 558,-270.9743 558,-262.4166"/>
<polygon fill="#000000" stroke="#000000" points="561.5001,-262.4132 558,-252.4133 554.5001,-262.4133 561.5001,-262.4132"/>
</g>
<!-- 36&#45;&gt;15 -->
<g id="edge4" class="edge">
<title>36&#45;&gt;15</title>
<path fill="none" stroke="#000000" d="M421.5047,-503.8314C421.7186,-496.131 421.9729,-486.9743 422.2106,-478.4166"/>
<polygon fill="#000000" stroke="#000000" points="425.7094,-478.5066 422.4885,-468.4133 418.7121,-478.3122 425.7094,-478.5066"/>
</g>
<!-- 37 -->
<g id="node38" class="node">
<title>37</title>
<g id="a_node38"><a xlink:title="D">
<ellipse fill="#0000f6" stroke="#000000" stroke-width="0" cx="612" cy="-234" rx="18" ry="18"/>
</a>
</g>
</g>
<!-- 37&#45;&gt;25 -->
<g id="edge42" class="edge">
<title>37&#45;&gt;25</title>
<path fill="none" stroke="#000000" d="M612,-215.8314C612,-208.131 612,-198.9743 612,-190.4166"/>
<polygon fill="#000000" stroke="#000000" points="615.5001,-190.4132 612,-180.4133 608.5001,-190.4133 615.5001,-190.4132"/>
</g>
<!-- 38&#45;&gt;37 -->
<g id="edge17" class="edge">
<title>38&#45;&gt;37</title>
<path fill="none" stroke="#000000" d="M612,-287.8314C612,-280.131 612,-270.9743 612,-262.4166"/>
<polygon fill="#000000" stroke="#000000" points="615.5001,-262.4132 612,-252.4133 608.5001,-262.4133 615.5001,-262.4132"/>
</g>
<!-- 39 -->
<g id="node40" class="node">
<title>39</title>
<g id="a_node40"><a xlink:title="D">
<ellipse fill="#0000f6" stroke="#000000" stroke-width="0" cx="248" cy="-234" rx="18" ry="18"/>
</a>
</g>
</g>
<!-- 40 -->
<g id="node41" class="node">
<title>40</title>
<g id="a_node41"><a xlink:title="D">
<ellipse fill="#0000f6" stroke="#000000" stroke-width="0" cx="140" cy="-162" rx="18" ry="18"/>
</a>
</g>
</g>
<!-- 39&#45;&gt;40 -->
<g id="edge28" class="edge">
<title>39&#45;&gt;40</title>
<path fill="none" stroke="#000000" d="M232.9831,-223.9887C215.03,-212.02 184.7675,-191.845 163.6604,-177.7736"/>
<polygon fill="#000000" stroke="#000000" points="165.4995,-174.7932 155.2376,-172.1584 161.6166,-180.6176 165.4995,-174.7932"/>
</g>
<!-- 43 -->
<g id="node44" class="node">
<title>43</title>
<g id="a_node44"><a xlink:title="D">
<ellipse fill="#0000f6" stroke="#000000" stroke-width="0" cx="194" cy="-162" rx="18" ry="18"/>
</a>
</g>
</g>
<!-- 39&#45;&gt;43 -->
<g id="edge45" class="edge">
<title>39&#45;&gt;43</title>
<path fill="none" stroke="#000000" d="M237.0723,-219.4297C229.6066,-209.4754 219.5632,-196.0842 211.0526,-184.7368"/>
<polygon fill="#000000" stroke="#000000" points="213.7115,-182.4486 204.9115,-176.5486 208.1115,-186.6486 213.7115,-182.4486"/>
</g>
<!-- 45 -->
<g id="node46" class="node">
<title>45</title>
<g id="a_node46"><a xlink:title="D">
<ellipse fill="#0000f6" stroke="#000000" stroke-width="0" cx="248" cy="-162" rx="18" ry="18"/>
</a>
</g>
</g>
<!-- 39&#45;&gt;45 -->
<g id="edge22" class="edge">
<title>39&#45;&gt;45</title>
<path fill="none" stroke="#000000" d="M248,-215.8314C248,-208.131 248,-198.9743 248,-190.4166"/>
<polygon fill="#000000" stroke="#000000" points="251.5001,-190.4132 248,-180.4133 244.5001,-190.4133 251.5001,-190.4132"/>
</g>
<!-- 54 -->
<g id="node55" class="node">
<title>54</title>
<g id="a_node55"><a xlink:title="D">
<ellipse fill="#0000f6" stroke="#000000" stroke-width="0" cx="302" cy="-162" rx="18" ry="18"/>
</a>
</g>
</g>
<!-- 39&#45;&gt;54 -->
<g id="edge14" class="edge">
<title>39&#45;&gt;54</title>
<path fill="none" stroke="#000000" d="M258.9277,-219.4297C266.3934,-209.4754 276.4368,-196.0842 284.9474,-184.7368"/>
<polygon fill="#000000" stroke="#000000" points="287.8885,-186.6486 291.0885,-176.5486 282.2885,-182.4486 287.8885,-186.6486"/>
</g>
<!-- 57 -->
<g id="node58" class="node">
<title>57</title>
<g id="a_node58"><a xlink:title="D">
<ellipse fill="#0000f6" stroke="#000000" stroke-width="0" cx="356" cy="-162" rx="18" ry="18"/>
</a>
</g>
</g>
<!-- 39&#45;&gt;57 -->
<g id="edge40" class="edge">
<title>39&#45;&gt;57</title>
<path fill="none" stroke="#000000" d="M263.0169,-223.9887C280.97,-212.02 311.2325,-191.845 332.3396,-177.7736"/>
<polygon fill="#000000" stroke="#000000" points="334.3834,-180.6176 340.7624,-172.1584 330.5005,-174.7932 334.3834,-180.6176"/>
</g>
<!-- 41 -->
<g id="node42" class="node">
<title>41</title>
<g id="a_node42"><a xlink:title="D">
<ellipse fill="#0000f6" stroke="#000000" stroke-width="0" cx="180" cy="-306" rx="18" ry="18"/>
</a>
</g>
</g>
<!-- 42 -->
<g id="node43" class="node">
<title>42</title>
<g id="a_node43"><a xlink:title="D">
<ellipse fill="#0000f6" stroke="#000000" stroke-width="0" cx="234" cy="-306" rx="18" ry="18"/>
</a>
</g>
</g>
<!-- 44&#45;&gt;41 -->
<g id="edge16" class="edge">
<title>44&#45;&gt;41</title>
<path fill="none" stroke="#000000" d="M272.9831,-367.9887C255.03,-356.02 224.7675,-335.845 203.6604,-321.7736"/>
<polygon fill="#000000" stroke="#000000" points="205.4995,-318.7932 195.2376,-316.1584 201.6166,-324.6176 205.4995,-318.7932"/>
</g>
<!-- 44&#45;&gt;42 -->
<g id="edge26" class="edge">
<title>44&#45;&gt;42</title>
<path fill="none" stroke="#000000" d="M277.0723,-363.4297C269.6066,-353.4754 259.5632,-340.0842 251.0526,-328.7368"/>
<polygon fill="#000000" stroke="#000000" points="253.7115,-326.4486 244.9115,-320.5486 248.1115,-330.6486 253.7115,-326.4486"/>
</g>
<!-- 46 -->
<g id="node47" class="node">
<title>46</title>
<g id="a_node47"><a xlink:title="D">
<ellipse fill="#0000f6" stroke="#000000" stroke-width="0" cx="288" cy="-306" rx="18" ry="18"/>
</a>
</g>
</g>
<!-- 44&#45;&gt;46 -->
<g id="edge49" class="edge">
<title>44&#45;&gt;46</title>
<path fill="none" stroke="#000000" d="M288,-359.8314C288,-352.131 288,-342.9743 288,-334.4166"/>
<polygon fill="#000000" stroke="#000000" points="291.5001,-334.4132 288,-324.4133 284.5001,-334.4133 291.5001,-334.4132"/>
</g>
<!-- 51 -->
<g id="node52" class="node">
<title>51</title>
<g id="a_node52"><a xlink:title="D">
<ellipse fill="#0000f6" stroke="#000000" stroke-width="0" cx="342" cy="-306" rx="18" ry="18"/>
</a>
</g>
</g>
<!-- 44&#45;&gt;51 -->
<g id="edge11" class="edge">
<title>44&#45;&gt;51</title>
<path fill="none" stroke="#000000" d="M298.9277,-363.4297C306.3934,-353.4754 316.4368,-340.0842 324.9474,-328.7368"/>
<polygon fill="#000000" stroke="#000000" points="327.8885,-330.6486 331.0885,-320.5486 322.2885,-326.4486 327.8885,-330.6486"/>
</g>
<!-- 46&#45;&gt;39 -->
<g id="edge23" class="edge">
<title>46&#45;&gt;39</title>
<path fill="none" stroke="#000000" d="M279.1227,-290.0209C274.0476,-280.8857 267.5715,-269.2286 261.8423,-258.9162"/>
<polygon fill="#000000" stroke="#000000" points="264.7685,-256.9763 256.8525,-249.9345 258.6494,-260.3758 264.7685,-256.9763"/>
</g>
<!-- 47 -->
<g id="node48" class="node">
<title>47</title>
<g id="a_node48"><a xlink:title="D">
<ellipse fill="#0000f6" stroke="#000000" stroke-width="0" cx="410" cy="-18" rx="18" ry="18"/>
</a>
</g>
</g>
<!-- 48 -->
<g id="node49" class="node">
<title>48</title>
<g id="a_node49"><a xlink:title="D">
<ellipse fill="#0000f6" stroke="#000000" stroke-width="0" cx="410" cy="-90" rx="18" ry="18"/>
</a>
</g>
</g>
<!-- 48&#45;&gt;47 -->
<g id="edge35" class="edge">
<title>48&#45;&gt;47</title>
<path fill="none" stroke="#000000" d="M410,-71.8314C410,-64.131 410,-54.9743 410,-46.4166"/>
<polygon fill="#000000" stroke="#000000" points="413.5001,-46.4132 410,-36.4133 406.5001,-46.4133 413.5001,-46.4132"/>
</g>
<!-- 49 -->
<g id="node50" class="node">
<title>49</title>
<g id="a_node50"><a xlink:title="D">
<ellipse fill="#0000f6" stroke="#000000" stroke-width="0" cx="370" cy="-234" rx="18" ry="18"/>
</a>
</g>
</g>
<!-- 50 -->
<g id="node51" class="node">
<title>50</title>
<g id="a_node51"><a xlink:title="D">
<ellipse fill="#0000f6" stroke="#000000" stroke-width="0" cx="410" cy="-162" rx="18" ry="18"/>
</a>
</g>
</g>
<!-- 49&#45;&gt;50 -->
<g id="edge19" class="edge">
<title>49&#45;&gt;50</title>
<path fill="none" stroke="#000000" d="M378.8773,-218.0209C383.9524,-208.8857 390.4285,-197.2286 396.1577,-186.9162"/>
<polygon fill="#000000" stroke="#000000" points="399.3506,-188.3758 401.1475,-177.9345 393.2315,-184.9763 399.3506,-188.3758"/>
</g>
<!-- 50&#45;&gt;48 -->
<g id="edge20" class="edge">
<title>50&#45;&gt;48</title>
<path fill="none" stroke="#000000" d="M410,-143.8314C410,-136.131 410,-126.9743 410,-118.4166"/>
<polygon fill="#000000" stroke="#000000" points="413.5001,-118.4132 410,-108.4133 406.5001,-118.4133 413.5001,-118.4132"/>
</g>
<!-- 51&#45;&gt;49 -->
<g id="edge37" class="edge">
<title>51&#45;&gt;49</title>
<path fill="none" stroke="#000000" d="M348.6356,-288.937C351.9483,-280.4186 356.03,-269.9227 359.7352,-260.3952"/>
<polygon fill="#000000" stroke="#000000" points="363.0495,-261.5292 363.412,-250.9405 356.5255,-258.992 363.0495,-261.5292"/>
</g>
<!-- 53 -->
<g id="node54" class="node">
<title>53</title>
<g id="a_node54"><a xlink:title="D">
<ellipse fill="#0000f6" stroke="#000000" stroke-width="0" cx="302" cy="-90" rx="18" ry="18"/>
</a>
</g>
</g>
<!-- 54&#45;&gt;53 -->
<g id="edge29" class="edge">
<title>54&#45;&gt;53</title>
<path fill="none" stroke="#000000" d="M302,-143.8314C302,-136.131 302,-126.9743 302,-118.4166"/>
<polygon fill="#000000" stroke="#000000" points="305.5001,-118.4132 302,-108.4133 298.5001,-118.4133 305.5001,-118.4132"/>
</g>
<!-- 55 -->
<g id="node56" class="node">
<title>55</title>
<g id="a_node56"><a xlink:title="D">
<ellipse fill="#0000f6" stroke="#000000" stroke-width="0" cx="356" cy="-18" rx="18" ry="18"/>
</a>
</g>
</g>
<!-- 56 -->
<g id="node57" class="node">
<title>56</title>
<g id="a_node57"><a xlink:title="D">
<ellipse fill="#0000f6" stroke="#000000" stroke-width="0" cx="356" cy="-90" rx="18" ry="18"/>
</a>
</g>
</g>
<!-- 56&#45;&gt;55 -->
<g id="edge56" class="edge">
<title>56&#45;&gt;55</title>
<path fill="none" stroke="#000000" d="M356,-71.8314C356,-64.131 356,-54.9743 356,-46.4166"/>
<polygon fill="#000000" stroke="#000000" points="359.5001,-46.4132 356,-36.4133 352.5001,-46.4133 359.5001,-46.4132"/>
</g>
<!-- 57&#45;&gt;56 -->
<g id="edge21" class="edge">
<title>57&#45;&gt;56</title>
<path fill="none" stroke="#000000" d="M356,-143.8314C356,-136.131 356,-126.9743 356,-118.4166"/>
<polygon fill="#000000" stroke="#000000" points="359.5001,-118.4132 356,-108.4133 352.5001,-118.4133 359.5001,-118.4132"/>
</g>
</g>
</svg>
