<?xml version="1.0" encoding="UTF-8" standalone="no"?>
<!DOCTYPE svg PUBLIC "-//W3C//DTD SVG 1.1//EN"
 "http://www.w3.org/Graphics/SVG/1.1/DTD/svg11.dtd">
<!-- Generated by graphviz version 2.38.0 (20140413.2041)
 -->
<!-- Title: %3 Pages: 1 -->
<svg width="690pt" height="476pt"
 viewBox="0.00 0.00 689.79 476.00" xmlns="http://www.w3.org/2000/svg" xmlns:xlink="http://www.w3.org/1999/xlink">
<g id="graph0" class="graph" transform="scale(1 1) rotate(0) translate(4 472)">
<title>%3</title>
<polygon fill="white" stroke="none" points="-4,4 -4,-472 685.792,-472 685.792,4 -4,4"/>
<!-- 0 -->
<g id="node1" class="node"><title>0</title>
<g id="a_node1"><a xlink:title="0, diversity: 1, multiplicities: 14, labels: 1,0">
<ellipse fill="#f7fcf5" stroke="black" cx="637.596" cy="-18" rx="44.393" ry="18"/>
<text text-anchor="middle" x="637.596" y="-14.3" font-family="Times,serif" font-size="14.00">0 (1): 1,0</text>
</a>
</g>
</g>
<!-- 1 -->
<g id="node2" class="node"><title>1</title>
<g id="a_node2"><a xlink:title="1, diversity: 1, multiplicities: 34, labels: 1">
<ellipse fill="#c7e9c0" stroke="black" cx="239.596" cy="-234" rx="37.0935" ry="18"/>
<text text-anchor="middle" x="239.596" y="-230.3" font-family="Times,serif" font-size="14.00">1 (1): 1</text>
</a>
</g>
</g>
<!-- 2 -->
<g id="node3" class="node"><title>2</title>
<g id="a_node3"><a xlink:title="2, diversity: 6, multiplicities: 1,1,43,66,121,500, labels: 1,0">
<ellipse fill="#f7fcf5" stroke="black" cx="239.596" cy="-378" rx="44.393" ry="18"/>
<text text-anchor="middle" x="239.596" y="-374.3" font-family="Times,serif" font-size="14.00">2 (6): 1,0</text>
</a>
</g>
</g>
<!-- 3 -->
<g id="node4" class="node"><title>3</title>
<g id="a_node4"><a xlink:title="3, diversity: 1, multiplicities: 25, labels: 1">
<ellipse fill="#c7e9c0" stroke="black" cx="46.5963" cy="-306" rx="37.0935" ry="18"/>
<text text-anchor="middle" x="46.5963" y="-302.3" font-family="Times,serif" font-size="14.00">3 (1): 1</text>
</a>
</g>
</g>
<!-- 2&#45;&gt;3 -->
<g id="edge14" class="edge"><title>2&#45;&gt;3</title>
<path fill="none" stroke="black" d="M207.726,-365.441C174.061,-353.231 120.974,-333.976 85.017,-320.935"/>
<polygon fill="black" stroke="black" points="85.9542,-317.552 75.36,-317.432 83.5674,-324.132 85.9542,-317.552"/>
</g>
<!-- 4 -->
<g id="node5" class="node"><title>4</title>
<g id="a_node5"><a xlink:title="4, diversity: 1, multiplicities: 8, labels: 1">
<ellipse fill="#c7e9c0" stroke="black" cx="145.596" cy="-306" rx="37.0935" ry="18"/>
<text text-anchor="middle" x="145.596" y="-302.3" font-family="Times,serif" font-size="14.00">4 (1): 1</text>
</a>
</g>
</g>
<!-- 2&#45;&gt;4 -->
<g id="edge23" class="edge"><title>2&#45;&gt;4</title>
<path fill="none" stroke="black" d="M219.2,-361.811C205.749,-351.794 187.963,-338.55 173.245,-327.589"/>
<polygon fill="black" stroke="black" points="175.1,-324.607 164.989,-321.442 170.919,-330.222 175.1,-324.607"/>
</g>
<!-- 5 -->
<g id="node6" class="node"><title>5</title>
<g id="a_node6"><a xlink:title="5, diversity: 2, multiplicities: 1,2, labels: 1">
<ellipse fill="#c7e9c0" stroke="black" cx="239.596" cy="-306" rx="37.0935" ry="18"/>
<text text-anchor="middle" x="239.596" y="-302.3" font-family="Times,serif" font-size="14.00">5 (2): 1</text>
</a>
</g>
</g>
<!-- 2&#45;&gt;5 -->
<g id="edge7" class="edge"><title>2&#45;&gt;5</title>
<path fill="none" stroke="black" d="M239.596,-359.697C239.596,-351.983 239.596,-342.712 239.596,-334.112"/>
<polygon fill="black" stroke="black" points="243.096,-334.104 239.596,-324.104 236.096,-334.104 243.096,-334.104"/>
</g>
<!-- 11 -->
<g id="node12" class="node"><title>11</title>
<g id="a_node12"><a xlink:title="11, diversity: 5, multiplicities: 2,5,10,12,18, labels: 1">
<ellipse fill="#c7e9c0" stroke="black" cx="386.596" cy="-450" rx="41.6928" ry="18"/>
<text text-anchor="middle" x="386.596" y="-446.3" font-family="Times,serif" font-size="14.00">11 (5): 1</text>
</a>
</g>
</g>
<!-- 2&#45;&gt;11 -->
<g id="edge21" class="edge"><title>2&#45;&gt;11</title>
<path fill="none" stroke="black" d="M270.27,-391.105C294.696,-401.934 328.639,-417.973 353.628,-430.424"/>
<polygon fill="black" stroke="black" points="352.222,-433.635 362.728,-435.003 355.368,-427.382 352.222,-433.635"/>
</g>
<!-- 18 -->
<g id="node19" class="node"><title>18</title>
<g id="a_node19"><a xlink:title="18, diversity: 1, multiplicities: 2, labels: 1">
<ellipse fill="#c7e9c0" stroke="black" cx="336.596" cy="-306" rx="41.6928" ry="18"/>
<text text-anchor="middle" x="336.596" y="-302.3" font-family="Times,serif" font-size="14.00">18 (1): 1</text>
</a>
</g>
</g>
<!-- 2&#45;&gt;18 -->
<g id="edge2" class="edge"><title>2&#45;&gt;18</title>
<path fill="none" stroke="black" d="M260.644,-361.811C274.338,-351.929 292.386,-338.905 307.452,-328.032"/>
<polygon fill="black" stroke="black" points="309.862,-330.609 315.923,-321.919 305.766,-324.933 309.862,-330.609"/>
</g>
<!-- 19 -->
<g id="node20" class="node"><title>19</title>
<g id="a_node20"><a xlink:title="19, diversity: 2, multiplicities: 1,6, labels: 1">
<ellipse fill="#c7e9c0" stroke="black" cx="437.596" cy="-306" rx="41.6928" ry="18"/>
<text text-anchor="middle" x="437.596" y="-302.3" font-family="Times,serif" font-size="14.00">19 (2): 1</text>
</a>
</g>
</g>
<!-- 2&#45;&gt;19 -->
<g id="edge8" class="edge"><title>2&#45;&gt;19</title>
<path fill="none" stroke="black" d="M271.849,-365.597C305.95,-353.542 359.828,-334.494 396.844,-321.407"/>
<polygon fill="black" stroke="black" points="398.076,-324.684 406.338,-318.051 395.743,-318.084 398.076,-324.684"/>
</g>
<!-- 13 -->
<g id="node14" class="node"><title>13</title>
<g id="a_node14"><a xlink:title="13, diversity: 1, multiplicities: 3, labels: 1">
<ellipse fill="#c7e9c0" stroke="black" cx="41.5963" cy="-234" rx="41.6928" ry="18"/>
<text text-anchor="middle" x="41.5963" y="-230.3" font-family="Times,serif" font-size="14.00">13 (1): 1</text>
</a>
</g>
</g>
<!-- 3&#45;&gt;13 -->
<g id="edge12" class="edge"><title>3&#45;&gt;13</title>
<path fill="none" stroke="black" d="M45.3604,-287.697C44.8094,-279.983 44.1472,-270.712 43.5329,-262.112"/>
<polygon fill="black" stroke="black" points="47.0217,-261.83 42.818,-252.104 40.0395,-262.328 47.0217,-261.83"/>
</g>
<!-- 17 -->
<g id="node18" class="node"><title>17</title>
<g id="a_node18"><a xlink:title="17, diversity: 1, multiplicities: 578, labels: 1">
<ellipse fill="#c7e9c0" stroke="black" cx="142.596" cy="-234" rx="41.6928" ry="18"/>
<text text-anchor="middle" x="142.596" y="-230.3" font-family="Times,serif" font-size="14.00">17 (1): 1</text>
</a>
</g>
</g>
<!-- 4&#45;&gt;17 -->
<g id="edge3" class="edge"><title>4&#45;&gt;17</title>
<path fill="none" stroke="black" d="M144.855,-287.697C144.524,-279.983 144.127,-270.712 143.758,-262.112"/>
<polygon fill="black" stroke="black" points="147.254,-261.945 143.329,-252.104 140.261,-262.245 147.254,-261.945"/>
</g>
<!-- 5&#45;&gt;1 -->
<g id="edge6" class="edge"><title>5&#45;&gt;1</title>
<path fill="none" stroke="black" d="M239.596,-287.697C239.596,-279.983 239.596,-270.712 239.596,-262.112"/>
<polygon fill="black" stroke="black" points="243.096,-262.104 239.596,-252.104 236.096,-262.104 243.096,-262.104"/>
</g>
<!-- 6 -->
<g id="node7" class="node"><title>6</title>
<g id="a_node7"><a xlink:title="6, diversity: 1, multiplicities: 3, labels: 1">
<ellipse fill="#c7e9c0" stroke="black" cx="637.596" cy="-234" rx="37.0935" ry="18"/>
<text text-anchor="middle" x="637.596" y="-230.3" font-family="Times,serif" font-size="14.00">6 (1): 1</text>
</a>
</g>
</g>
<!-- 8 -->
<g id="node9" class="node"><title>8</title>
<g id="a_node9"><a xlink:title="8, diversity: 1, multiplicities: 1, labels: 1">
<ellipse fill="#c7e9c0" stroke="black" cx="637.596" cy="-162" rx="37.0935" ry="18"/>
<text text-anchor="middle" x="637.596" y="-158.3" font-family="Times,serif" font-size="14.00">8 (1): 1</text>
</a>
</g>
</g>
<!-- 6&#45;&gt;8 -->
<g id="edge19" class="edge"><title>6&#45;&gt;8</title>
<path fill="none" stroke="black" d="M637.596,-215.697C637.596,-207.983 637.596,-198.712 637.596,-190.112"/>
<polygon fill="black" stroke="black" points="641.096,-190.104 637.596,-180.104 634.096,-190.104 641.096,-190.104"/>
</g>
<!-- 7 -->
<g id="node8" class="node"><title>7</title>
<g id="a_node8"><a xlink:title="7, diversity: 1, multiplicities: 4, labels: 1">
<ellipse fill="#c7e9c0" stroke="black" cx="637.596" cy="-90" rx="37.0935" ry="18"/>
<text text-anchor="middle" x="637.596" y="-86.3" font-family="Times,serif" font-size="14.00">7 (1): 1</text>
</a>
</g>
</g>
<!-- 7&#45;&gt;0 -->
<g id="edge18" class="edge"><title>7&#45;&gt;0</title>
<path fill="none" stroke="black" d="M637.596,-71.6966C637.596,-63.9827 637.596,-54.7125 637.596,-46.1124"/>
<polygon fill="black" stroke="black" points="641.096,-46.1043 637.596,-36.1043 634.096,-46.1044 641.096,-46.1043"/>
</g>
<!-- 8&#45;&gt;7 -->
<g id="edge15" class="edge"><title>8&#45;&gt;7</title>
<path fill="none" stroke="black" d="M637.596,-143.697C637.596,-135.983 637.596,-126.712 637.596,-118.112"/>
<polygon fill="black" stroke="black" points="641.096,-118.104 637.596,-108.104 634.096,-118.104 641.096,-118.104"/>
</g>
<!-- 9 -->
<g id="node10" class="node"><title>9</title>
<g id="a_node10"><a xlink:title="9, diversity: 1, multiplicities: 9, labels: 1">
<ellipse fill="#c7e9c0" stroke="black" cx="338.596" cy="-378" rx="37.0935" ry="18"/>
<text text-anchor="middle" x="338.596" y="-374.3" font-family="Times,serif" font-size="14.00">9 (1): 1</text>
</a>
</g>
</g>
<!-- 10 -->
<g id="node11" class="node"><title>10</title>
<g id="a_node11"><a xlink:title="10, diversity: 1, multiplicities: 15, labels: 1">
<ellipse fill="#c7e9c0" stroke="black" cx="41.5963" cy="-162" rx="41.6928" ry="18"/>
<text text-anchor="middle" x="41.5963" y="-158.3" font-family="Times,serif" font-size="14.00">10 (1): 1</text>
</a>
</g>
</g>
<!-- 11&#45;&gt;2 -->
<g id="edge4" class="edge"><title>11&#45;&gt;2</title>
<path fill="none" stroke="black" d="M356.8,-437.284C332.458,-426.516 298.257,-410.368 273.01,-397.797"/>
<polygon fill="black" stroke="black" points="274.318,-394.537 263.811,-393.173 271.174,-400.792 274.318,-394.537"/>
</g>
<!-- 11&#45;&gt;9 -->
<g id="edge13" class="edge"><title>11&#45;&gt;9</title>
<path fill="none" stroke="black" d="M375.221,-432.411C369.363,-423.868 362.102,-413.278 355.593,-403.787"/>
<polygon fill="black" stroke="black" points="358.432,-401.738 349.89,-395.47 352.659,-405.697 358.432,-401.738"/>
</g>
<!-- 14 -->
<g id="node15" class="node"><title>14</title>
<g id="a_node15"><a xlink:title="14, diversity: 1, multiplicities: 15, labels: 1">
<ellipse fill="#c7e9c0" stroke="black" cx="435.596" cy="-378" rx="41.6928" ry="18"/>
<text text-anchor="middle" x="435.596" y="-374.3" font-family="Times,serif" font-size="14.00">14 (1): 1</text>
</a>
</g>
</g>
<!-- 11&#45;&gt;14 -->
<g id="edge5" class="edge"><title>11&#45;&gt;14</title>
<path fill="none" stroke="black" d="M398.209,-432.411C404.189,-423.868 411.601,-413.278 418.245,-403.787"/>
<polygon fill="black" stroke="black" points="421.2,-405.669 424.067,-395.47 415.465,-401.655 421.2,-405.669"/>
</g>
<!-- 15 -->
<g id="node16" class="node"><title>15</title>
<g id="a_node16"><a xlink:title="15, diversity: 1, multiplicities: 8, labels: 1">
<ellipse fill="#c7e9c0" stroke="black" cx="536.596" cy="-378" rx="41.6928" ry="18"/>
<text text-anchor="middle" x="536.596" y="-374.3" font-family="Times,serif" font-size="14.00">15 (1): 1</text>
</a>
</g>
</g>
<!-- 11&#45;&gt;15 -->
<g id="edge22" class="edge"><title>11&#45;&gt;15</title>
<path fill="none" stroke="black" d="M413.76,-436.324C437.897,-425.06 473.377,-408.502 500.008,-396.075"/>
<polygon fill="black" stroke="black" points="501.8,-399.101 509.381,-391.7 498.84,-392.758 501.8,-399.101"/>
</g>
<!-- 16 -->
<g id="node17" class="node"><title>16</title>
<g id="a_node17"><a xlink:title="16, diversity: 1, multiplicities: 1, labels: 1">
<ellipse fill="#c7e9c0" stroke="black" cx="637.596" cy="-378" rx="41.6928" ry="18"/>
<text text-anchor="middle" x="637.596" y="-374.3" font-family="Times,serif" font-size="14.00">16 (1): 1</text>
</a>
</g>
</g>
<!-- 11&#45;&gt;16 -->
<g id="edge1" class="edge"><title>11&#45;&gt;16</title>
<path fill="none" stroke="black" d="M422.026,-440.454C462.345,-430.545 530.066,-413.342 587.596,-396 590.53,-395.116 593.55,-394.172 596.584,-393.201"/>
<polygon fill="black" stroke="black" points="597.819,-396.479 606.231,-390.038 595.639,-389.827 597.819,-396.479"/>
</g>
<!-- 12 -->
<g id="node13" class="node"><title>12</title>
<g id="a_node13"><a xlink:title="12, diversity: 3, multiplicities: 5,8,16, labels: 1">
<ellipse fill="#c7e9c0" stroke="black" cx="637.596" cy="-306" rx="41.6928" ry="18"/>
<text text-anchor="middle" x="637.596" y="-302.3" font-family="Times,serif" font-size="14.00">12 (3): 1</text>
</a>
</g>
</g>
<!-- 12&#45;&gt;6 -->
<g id="edge9" class="edge"><title>12&#45;&gt;6</title>
<path fill="none" stroke="black" d="M637.596,-287.697C637.596,-279.983 637.596,-270.712 637.596,-262.112"/>
<polygon fill="black" stroke="black" points="641.096,-262.104 637.596,-252.104 634.096,-262.104 641.096,-262.104"/>
</g>
<!-- 13&#45;&gt;10 -->
<g id="edge16" class="edge"><title>13&#45;&gt;10</title>
<path fill="none" stroke="black" d="M41.5963,-215.697C41.5963,-207.983 41.5963,-198.712 41.5963,-190.112"/>
<polygon fill="black" stroke="black" points="45.0964,-190.104 41.5963,-180.104 38.0964,-190.104 45.0964,-190.104"/>
</g>
<!-- 16&#45;&gt;12 -->
<g id="edge17" class="edge"><title>16&#45;&gt;12</title>
<path fill="none" stroke="black" d="M637.596,-359.697C637.596,-351.983 637.596,-342.712 637.596,-334.112"/>
<polygon fill="black" stroke="black" points="641.096,-334.104 637.596,-324.104 634.096,-334.104 641.096,-334.104"/>
</g>
<!-- 20 -->
<g id="node21" class="node"><title>20</title>
<g id="a_node21"><a xlink:title="20, diversity: 1, multiplicities: 13, labels: 1">
<ellipse fill="#c7e9c0" stroke="black" cx="336.596" cy="-234" rx="41.6928" ry="18"/>
<text text-anchor="middle" x="336.596" y="-230.3" font-family="Times,serif" font-size="14.00">20 (1): 1</text>
</a>
</g>
</g>
<!-- 18&#45;&gt;20 -->
<g id="edge10" class="edge"><title>18&#45;&gt;20</title>
<path fill="none" stroke="black" d="M336.596,-287.697C336.596,-279.983 336.596,-270.712 336.596,-262.112"/>
<polygon fill="black" stroke="black" points="340.096,-262.104 336.596,-252.104 333.096,-262.104 340.096,-262.104"/>
</g>
<!-- 21 -->
<g id="node22" class="node"><title>21</title>
<g id="a_node22"><a xlink:title="21, diversity: 1, multiplicities: 1, labels: 1">
<ellipse fill="#c7e9c0" stroke="black" cx="437.596" cy="-234" rx="41.6928" ry="18"/>
<text text-anchor="middle" x="437.596" y="-230.3" font-family="Times,serif" font-size="14.00">21 (1): 1</text>
</a>
</g>
</g>
<!-- 19&#45;&gt;21 -->
<g id="edge11" class="edge"><title>19&#45;&gt;21</title>
<path fill="none" stroke="black" d="M437.596,-287.697C437.596,-279.983 437.596,-270.712 437.596,-262.112"/>
<polygon fill="black" stroke="black" points="441.096,-262.104 437.596,-252.104 434.096,-262.104 441.096,-262.104"/>
</g>
<!-- 22 -->
<g id="node23" class="node"><title>22</title>
<g id="a_node23"><a xlink:title="22, diversity: 1, multiplicities: 6, labels: 1">
<ellipse fill="#c7e9c0" stroke="black" cx="437.596" cy="-162" rx="41.6928" ry="18"/>
<text text-anchor="middle" x="437.596" y="-158.3" font-family="Times,serif" font-size="14.00">22 (1): 1</text>
</a>
</g>
</g>
<!-- 21&#45;&gt;22 -->
<g id="edge20" class="edge"><title>21&#45;&gt;22</title>
<path fill="none" stroke="black" d="M437.596,-215.697C437.596,-207.983 437.596,-198.712 437.596,-190.112"/>
<polygon fill="black" stroke="black" points="441.096,-190.104 437.596,-180.104 434.096,-190.104 441.096,-190.104"/>
</g>
</g>
</svg>
