<?xml version="1.0" encoding="UTF-8" standalone="no"?>
<!DOCTYPE svg PUBLIC "-//W3C//DTD SVG 1.1//EN"
 "http://www.w3.org/Graphics/SVG/1.1/DTD/svg11.dtd">
<!-- Generated by graphviz version 2.38.0 (20140413.2041)
 -->
<!-- Title: %3 Pages: 1 -->
<svg width="380pt" height="476pt"
 viewBox="0.00 0.00 379.64 476.00" xmlns="http://www.w3.org/2000/svg" xmlns:xlink="http://www.w3.org/1999/xlink">
<g id="graph0" class="graph" transform="scale(1 1) rotate(0) translate(4 472)">
<title>%3</title>
<polygon fill="white" stroke="none" points="-4,4 -4,-472 375.643,-472 375.643,4 -4,4"/>
<!-- 0 -->
<g id="node1" class="node"><title>0</title>
<g id="a_node1"><a xlink:title="0, diversity: 1, multiplicities: 402, labels: 0">
<ellipse fill="#f7fcf5" stroke="black" cx="182.047" cy="-450" rx="37.0935" ry="18"/>
<text text-anchor="middle" x="182.047" y="-446.3" font-family="Times,serif" font-size="14.00">0 (1): 0</text>
</a>
</g>
</g>
<!-- 5 -->
<g id="node6" class="node"><title>5</title>
<g id="a_node6"><a xlink:title="5, diversity: 1, multiplicities: 2, labels: 0">
<ellipse fill="#f7fcf5" stroke="black" cx="182.047" cy="-378" rx="37.0935" ry="18"/>
<text text-anchor="middle" x="182.047" y="-374.3" font-family="Times,serif" font-size="14.00">5 (1): 0</text>
</a>
</g>
</g>
<!-- 0&#45;&gt;5 -->
<g id="edge8" class="edge"><title>0&#45;&gt;5</title>
<path fill="none" stroke="black" d="M182.047,-431.697C182.047,-423.983 182.047,-414.712 182.047,-406.112"/>
<polygon fill="black" stroke="black" points="185.547,-406.104 182.047,-396.104 178.547,-406.104 185.547,-406.104"/>
</g>
<!-- 1 -->
<g id="node2" class="node"><title>1</title>
<g id="a_node2"><a xlink:title="1, diversity: 1, multiplicities: 69, labels: 0">
<ellipse fill="#f7fcf5" stroke="black" cx="134.047" cy="-18" rx="37.0935" ry="18"/>
<text text-anchor="middle" x="134.047" y="-14.3" font-family="Times,serif" font-size="14.00">1 (1): 0</text>
</a>
</g>
</g>
<!-- 2 -->
<g id="node3" class="node"><title>2</title>
<g id="a_node3"><a xlink:title="2, diversity: 1, multiplicities: 27, labels: 0">
<ellipse fill="#f7fcf5" stroke="black" cx="37.0467" cy="-162" rx="37.0935" ry="18"/>
<text text-anchor="middle" x="37.0467" y="-158.3" font-family="Times,serif" font-size="14.00">2 (1): 0</text>
</a>
</g>
</g>
<!-- 3 -->
<g id="node4" class="node"><title>3</title>
<g id="a_node4"><a xlink:title="3, diversity: 1, multiplicities: 17, labels: 0">
<ellipse fill="#f7fcf5" stroke="black" cx="182.047" cy="-306" rx="37.0935" ry="18"/>
<text text-anchor="middle" x="182.047" y="-302.3" font-family="Times,serif" font-size="14.00">3 (1): 0</text>
</a>
</g>
</g>
<!-- 7 -->
<g id="node8" class="node"><title>7</title>
<g id="a_node8"><a xlink:title="7, diversity: 1, multiplicities: 1, labels: 0">
<ellipse fill="#f7fcf5" stroke="black" cx="134.047" cy="-234" rx="37.0935" ry="18"/>
<text text-anchor="middle" x="134.047" y="-230.3" font-family="Times,serif" font-size="14.00">7 (1): 0</text>
</a>
</g>
</g>
<!-- 3&#45;&gt;7 -->
<g id="edge11" class="edge"><title>3&#45;&gt;7</title>
<path fill="none" stroke="black" d="M170.914,-288.765C165.062,-280.23 157.76,-269.582 151.203,-260.019"/>
<polygon fill="black" stroke="black" points="153.994,-257.901 145.452,-251.633 148.221,-261.86 153.994,-257.901"/>
</g>
<!-- 9 -->
<g id="node10" class="node"><title>9</title>
<g id="a_node10"><a xlink:title="9, diversity: 1, multiplicities: 38, labels: 0">
<ellipse fill="#f7fcf5" stroke="black" cx="230.047" cy="-234" rx="37.0935" ry="18"/>
<text text-anchor="middle" x="230.047" y="-230.3" font-family="Times,serif" font-size="14.00">9 (1): 0</text>
</a>
</g>
</g>
<!-- 3&#45;&gt;9 -->
<g id="edge7" class="edge"><title>3&#45;&gt;9</title>
<path fill="none" stroke="black" d="M193.18,-288.765C199.032,-280.23 206.333,-269.582 212.891,-260.019"/>
<polygon fill="black" stroke="black" points="215.872,-261.86 218.641,-251.633 210.099,-257.901 215.872,-261.86"/>
</g>
<!-- 4 -->
<g id="node5" class="node"><title>4</title>
<g id="a_node5"><a xlink:title="4, diversity: 1, multiplicities: 25, labels: 0">
<ellipse fill="#f7fcf5" stroke="black" cx="233.047" cy="-18" rx="37.0935" ry="18"/>
<text text-anchor="middle" x="233.047" y="-14.3" font-family="Times,serif" font-size="14.00">4 (1): 0</text>
</a>
</g>
</g>
<!-- 5&#45;&gt;3 -->
<g id="edge13" class="edge"><title>5&#45;&gt;3</title>
<path fill="none" stroke="black" d="M182.047,-359.697C182.047,-351.983 182.047,-342.712 182.047,-334.112"/>
<polygon fill="black" stroke="black" points="185.547,-334.104 182.047,-324.104 178.547,-334.104 185.547,-334.104"/>
</g>
<!-- 6 -->
<g id="node7" class="node"><title>6</title>
<g id="a_node7"><a xlink:title="6, diversity: 1, multiplicities: 1, labels: 0">
<ellipse fill="#f7fcf5" stroke="black" cx="233.047" cy="-90" rx="37.0935" ry="18"/>
<text text-anchor="middle" x="233.047" y="-86.3" font-family="Times,serif" font-size="14.00">6 (1): 0</text>
</a>
</g>
</g>
<!-- 6&#45;&gt;4 -->
<g id="edge1" class="edge"><title>6&#45;&gt;4</title>
<path fill="none" stroke="black" d="M233.047,-71.6966C233.047,-63.9827 233.047,-54.7125 233.047,-46.1124"/>
<polygon fill="black" stroke="black" points="236.547,-46.1043 233.047,-36.1043 229.547,-46.1044 236.547,-46.1043"/>
</g>
<!-- 7&#45;&gt;2 -->
<g id="edge12" class="edge"><title>7&#45;&gt;2</title>
<path fill="none" stroke="black" d="M113.948,-218.496C99.8082,-208.292 80.6952,-194.499 65.0614,-183.217"/>
<polygon fill="black" stroke="black" points="66.9447,-180.26 56.7875,-177.246 62.8484,-185.936 66.9447,-180.26"/>
</g>
<!-- 10 -->
<g id="node11" class="node"><title>10</title>
<g id="a_node11"><a xlink:title="10, diversity: 1, multiplicities: 1, labels: 0">
<ellipse fill="#f7fcf5" stroke="black" cx="134.047" cy="-162" rx="41.6928" ry="18"/>
<text text-anchor="middle" x="134.047" y="-158.3" font-family="Times,serif" font-size="14.00">10 (1): 0</text>
</a>
</g>
</g>
<!-- 7&#45;&gt;10 -->
<g id="edge10" class="edge"><title>7&#45;&gt;10</title>
<path fill="none" stroke="black" d="M134.047,-215.697C134.047,-207.983 134.047,-198.712 134.047,-190.112"/>
<polygon fill="black" stroke="black" points="137.547,-190.104 134.047,-180.104 130.547,-190.104 137.547,-190.104"/>
</g>
<!-- 8 -->
<g id="node9" class="node"><title>8</title>
<g id="a_node9"><a xlink:title="8, diversity: 1, multiplicities: 91, labels: 0">
<ellipse fill="#f7fcf5" stroke="black" cx="330.047" cy="-18" rx="37.0935" ry="18"/>
<text text-anchor="middle" x="330.047" y="-14.3" font-family="Times,serif" font-size="14.00">8 (1): 0</text>
</a>
</g>
</g>
<!-- 12 -->
<g id="node13" class="node"><title>12</title>
<g id="a_node13"><a xlink:title="12, diversity: 1, multiplicities: 2, labels: 0">
<ellipse fill="#f7fcf5" stroke="black" cx="235.047" cy="-162" rx="41.6928" ry="18"/>
<text text-anchor="middle" x="235.047" y="-158.3" font-family="Times,serif" font-size="14.00">12 (1): 0</text>
</a>
</g>
</g>
<!-- 9&#45;&gt;12 -->
<g id="edge9" class="edge"><title>9&#45;&gt;12</title>
<path fill="none" stroke="black" d="M231.283,-215.697C231.834,-207.983 232.496,-198.712 233.11,-190.112"/>
<polygon fill="black" stroke="black" points="236.604,-190.328 233.825,-180.104 229.621,-189.83 236.604,-190.328"/>
</g>
<!-- 11 -->
<g id="node12" class="node"><title>11</title>
<g id="a_node12"><a xlink:title="11, diversity: 1, multiplicities: 1, labels: 0">
<ellipse fill="#f7fcf5" stroke="black" cx="134.047" cy="-90" rx="41.6928" ry="18"/>
<text text-anchor="middle" x="134.047" y="-86.3" font-family="Times,serif" font-size="14.00">11 (1): 0</text>
</a>
</g>
</g>
<!-- 10&#45;&gt;11 -->
<g id="edge2" class="edge"><title>10&#45;&gt;11</title>
<path fill="none" stroke="black" d="M134.047,-143.697C134.047,-135.983 134.047,-126.712 134.047,-118.112"/>
<polygon fill="black" stroke="black" points="137.547,-118.104 134.047,-108.104 130.547,-118.104 137.547,-118.104"/>
</g>
<!-- 11&#45;&gt;1 -->
<g id="edge5" class="edge"><title>11&#45;&gt;1</title>
<path fill="none" stroke="black" d="M134.047,-71.6966C134.047,-63.9827 134.047,-54.7125 134.047,-46.1124"/>
<polygon fill="black" stroke="black" points="137.547,-46.1043 134.047,-36.1043 130.547,-46.1044 137.547,-46.1043"/>
</g>
<!-- 12&#45;&gt;6 -->
<g id="edge6" class="edge"><title>12&#45;&gt;6</title>
<path fill="none" stroke="black" d="M234.552,-143.697C234.332,-135.983 234.067,-126.712 233.821,-118.112"/>
<polygon fill="black" stroke="black" points="237.32,-118 233.535,-108.104 230.323,-118.2 237.32,-118"/>
</g>
<!-- 13 -->
<g id="node14" class="node"><title>13</title>
<g id="a_node14"><a xlink:title="13, diversity: 1, multiplicities: 1, labels: 0">
<ellipse fill="#f7fcf5" stroke="black" cx="330.047" cy="-90" rx="41.6928" ry="18"/>
<text text-anchor="middle" x="330.047" y="-86.3" font-family="Times,serif" font-size="14.00">13 (1): 0</text>
</a>
</g>
</g>
<!-- 12&#45;&gt;13 -->
<g id="edge4" class="edge"><title>12&#45;&gt;13</title>
<path fill="none" stroke="black" d="M255.194,-146.155C268.671,-136.225 286.604,-123.011 301.538,-112.006"/>
<polygon fill="black" stroke="black" points="303.954,-114.574 309.929,-105.824 299.802,-108.938 303.954,-114.574"/>
</g>
<!-- 13&#45;&gt;8 -->
<g id="edge3" class="edge"><title>13&#45;&gt;8</title>
<path fill="none" stroke="black" d="M330.047,-71.6966C330.047,-63.9827 330.047,-54.7125 330.047,-46.1124"/>
<polygon fill="black" stroke="black" points="333.547,-46.1043 330.047,-36.1043 326.547,-46.1044 333.547,-46.1043"/>
</g>
</g>
</svg>
