<?xml version="1.0" encoding="UTF-8" standalone="no"?>
<!DOCTYPE svg PUBLIC "-//W3C//DTD SVG 1.1//EN"
 "http://www.w3.org/Graphics/SVG/1.1/DTD/svg11.dtd">
<!-- Generated by graphviz version 2.38.0 (20140413.2041)
 -->
<!-- Title: %3 Pages: 1 -->
<svg width="762pt" height="260pt"
 viewBox="0.00 0.00 761.64 260.00" xmlns="http://www.w3.org/2000/svg" xmlns:xlink="http://www.w3.org/1999/xlink">
<g id="graph0" class="graph" transform="scale(1 1) rotate(0) translate(4 256)">
<title>%3</title>
<polygon fill="white" stroke="none" points="-4,4 -4,-256 757.643,-256 757.643,4 -4,4"/>
<!-- 0 -->
<g id="node1" class="node"><title>0</title>
<g id="a_node1"><a xlink:title="0, diversity: 1, multiplicities: 72, labels: 0">
<ellipse fill="#f7fcf5" stroke="black" cx="514.047" cy="-90" rx="37.0935" ry="18"/>
<text text-anchor="middle" x="514.047" y="-86.3" font-family="Times,serif" font-size="14.00">0 (1): 0</text>
</a>
</g>
</g>
<!-- 10 -->
<g id="node11" class="node"><title>10</title>
<g id="a_node11"><a xlink:title="10, diversity: 1, multiplicities: 17, labels: 0">
<ellipse fill="#f7fcf5" stroke="black" cx="514.047" cy="-18" rx="41.6928" ry="18"/>
<text text-anchor="middle" x="514.047" y="-14.3" font-family="Times,serif" font-size="14.00">10 (1): 0</text>
</a>
</g>
</g>
<!-- 0&#45;&gt;10 -->
<g id="edge10" class="edge"><title>0&#45;&gt;10</title>
<path fill="none" stroke="black" d="M514.047,-71.6966C514.047,-63.9827 514.047,-54.7125 514.047,-46.1124"/>
<polygon fill="black" stroke="black" points="517.547,-46.1043 514.047,-36.1043 510.547,-46.1044 517.547,-46.1043"/>
</g>
<!-- 1 -->
<g id="node2" class="node"><title>1</title>
<g id="a_node2"><a xlink:title="1, diversity: 1, multiplicities: 58, labels: 0">
<ellipse fill="#f7fcf5" stroke="black" cx="316.047" cy="-90" rx="37.0935" ry="18"/>
<text text-anchor="middle" x="316.047" y="-86.3" font-family="Times,serif" font-size="14.00">1 (1): 0</text>
</a>
</g>
</g>
<!-- 9 -->
<g id="node10" class="node"><title>9</title>
<g id="a_node10"><a xlink:title="9, diversity: 1, multiplicities: 30, labels: 0">
<ellipse fill="#f7fcf5" stroke="black" cx="316.047" cy="-18" rx="37.0935" ry="18"/>
<text text-anchor="middle" x="316.047" y="-14.3" font-family="Times,serif" font-size="14.00">9 (1): 0</text>
</a>
</g>
</g>
<!-- 1&#45;&gt;9 -->
<g id="edge19" class="edge"><title>1&#45;&gt;9</title>
<path fill="none" stroke="black" d="M316.047,-71.6966C316.047,-63.9827 316.047,-54.7125 316.047,-46.1124"/>
<polygon fill="black" stroke="black" points="319.547,-46.1043 316.047,-36.1043 312.547,-46.1044 319.547,-46.1043"/>
</g>
<!-- 2 -->
<g id="node3" class="node"><title>2</title>
<g id="a_node3"><a xlink:title="2, diversity: 1, multiplicities: 126, labels: 0">
<ellipse fill="#f7fcf5" stroke="black" cx="39.0467" cy="-90" rx="37.0935" ry="18"/>
<text text-anchor="middle" x="39.0467" y="-86.3" font-family="Times,serif" font-size="14.00">2 (1): 0</text>
</a>
</g>
</g>
<!-- 4 -->
<g id="node5" class="node"><title>4</title>
<g id="a_node5"><a xlink:title="4, diversity: 1, multiplicities: 34, labels: 0">
<ellipse fill="#f7fcf5" stroke="black" cx="37.0467" cy="-18" rx="37.0935" ry="18"/>
<text text-anchor="middle" x="37.0467" y="-14.3" font-family="Times,serif" font-size="14.00">4 (1): 0</text>
</a>
</g>
</g>
<!-- 2&#45;&gt;4 -->
<g id="edge17" class="edge"><title>2&#45;&gt;4</title>
<path fill="none" stroke="black" d="M38.5523,-71.6966C38.3319,-63.9827 38.0671,-54.7125 37.8214,-46.1124"/>
<polygon fill="black" stroke="black" points="41.3197,-46.0003 37.5354,-36.1043 34.3225,-46.2002 41.3197,-46.0003"/>
</g>
<!-- 3 -->
<g id="node4" class="node"><title>3</title>
<g id="a_node4"><a xlink:title="3, diversity: 1, multiplicities: 174, labels: 0">
<ellipse fill="#f7fcf5" stroke="black" cx="132.047" cy="-162" rx="37.0935" ry="18"/>
<text text-anchor="middle" x="132.047" y="-158.3" font-family="Times,serif" font-size="14.00">3 (1): 0</text>
</a>
</g>
</g>
<!-- 3&#45;&gt;2 -->
<g id="edge2" class="edge"><title>3&#45;&gt;2</title>
<path fill="none" stroke="black" d="M112.777,-146.496C99.4346,-136.453 81.4739,-122.934 66.62,-111.754"/>
<polygon fill="black" stroke="black" points="68.3862,-108.703 58.2917,-105.485 64.1766,-114.296 68.3862,-108.703"/>
</g>
<!-- 7 -->
<g id="node8" class="node"><title>7</title>
<g id="a_node8"><a xlink:title="7, diversity: 1, multiplicities: 91, labels: 0">
<ellipse fill="#f7fcf5" stroke="black" cx="132.047" cy="-90" rx="37.0935" ry="18"/>
<text text-anchor="middle" x="132.047" y="-86.3" font-family="Times,serif" font-size="14.00">7 (1): 0</text>
</a>
</g>
</g>
<!-- 3&#45;&gt;7 -->
<g id="edge14" class="edge"><title>3&#45;&gt;7</title>
<path fill="none" stroke="black" d="M132.047,-143.697C132.047,-135.983 132.047,-126.712 132.047,-118.112"/>
<polygon fill="black" stroke="black" points="135.547,-118.104 132.047,-108.104 128.547,-118.104 135.547,-118.104"/>
</g>
<!-- 5 -->
<g id="node6" class="node"><title>5</title>
<g id="a_node6"><a xlink:title="5, diversity: 1, multiplicities: 46, labels: 0">
<ellipse fill="#f7fcf5" stroke="black" cx="224.047" cy="-162" rx="37.0935" ry="18"/>
<text text-anchor="middle" x="224.047" y="-158.3" font-family="Times,serif" font-size="14.00">5 (1): 0</text>
</a>
</g>
</g>
<!-- 6 -->
<g id="node7" class="node"><title>6</title>
<g id="a_node7"><a xlink:title="6, diversity: 1, multiplicities: 18, labels: 0">
<ellipse fill="#f7fcf5" stroke="black" cx="224.047" cy="-90" rx="37.0935" ry="18"/>
<text text-anchor="middle" x="224.047" y="-86.3" font-family="Times,serif" font-size="14.00">6 (1): 0</text>
</a>
</g>
</g>
<!-- 5&#45;&gt;6 -->
<g id="edge5" class="edge"><title>5&#45;&gt;6</title>
<path fill="none" stroke="black" d="M224.047,-143.697C224.047,-135.983 224.047,-126.712 224.047,-118.112"/>
<polygon fill="black" stroke="black" points="227.547,-118.104 224.047,-108.104 220.547,-118.104 227.547,-118.104"/>
</g>
<!-- 15 -->
<g id="node16" class="node"><title>15</title>
<g id="a_node16"><a xlink:title="15, diversity: 1, multiplicities: 15, labels: 0">
<ellipse fill="#f7fcf5" stroke="black" cx="134.047" cy="-18" rx="41.6928" ry="18"/>
<text text-anchor="middle" x="134.047" y="-14.3" font-family="Times,serif" font-size="14.00">15 (1): 0</text>
</a>
</g>
</g>
<!-- 7&#45;&gt;15 -->
<g id="edge3" class="edge"><title>7&#45;&gt;15</title>
<path fill="none" stroke="black" d="M132.541,-71.6966C132.761,-63.9827 133.026,-54.7125 133.272,-46.1124"/>
<polygon fill="black" stroke="black" points="136.771,-46.2002 133.558,-36.1043 129.774,-46.0003 136.771,-46.2002"/>
</g>
<!-- 8 -->
<g id="node9" class="node"><title>8</title>
<g id="a_node9"><a xlink:title="8, diversity: 1, multiplicities: 14, labels: 0">
<ellipse fill="#f7fcf5" stroke="black" cx="712.047" cy="-18" rx="37.0935" ry="18"/>
<text text-anchor="middle" x="712.047" y="-14.3" font-family="Times,serif" font-size="14.00">8 (1): 0</text>
</a>
</g>
</g>
<!-- 11 -->
<g id="node12" class="node"><title>11</title>
<g id="a_node12"><a xlink:title="11, diversity: 1, multiplicities: 56, labels: 0">
<ellipse fill="#f7fcf5" stroke="black" cx="611.047" cy="-90" rx="41.6928" ry="18"/>
<text text-anchor="middle" x="611.047" y="-86.3" font-family="Times,serif" font-size="14.00">11 (1): 0</text>
</a>
</g>
</g>
<!-- 14 -->
<g id="node15" class="node"><title>14</title>
<g id="a_node15"><a xlink:title="14, diversity: 1, multiplicities: 12, labels: 0">
<ellipse fill="#f7fcf5" stroke="black" cx="615.047" cy="-18" rx="41.6928" ry="18"/>
<text text-anchor="middle" x="615.047" y="-14.3" font-family="Times,serif" font-size="14.00">14 (1): 0</text>
</a>
</g>
</g>
<!-- 11&#45;&gt;14 -->
<g id="edge11" class="edge"><title>11&#45;&gt;14</title>
<path fill="none" stroke="black" d="M612.035,-71.6966C612.476,-63.9827 613.006,-54.7125 613.497,-46.1124"/>
<polygon fill="black" stroke="black" points="616.993,-46.2878 614.069,-36.1043 610.004,-45.8883 616.993,-46.2878"/>
</g>
<!-- 12 -->
<g id="node13" class="node"><title>12</title>
<g id="a_node13"><a xlink:title="12, diversity: 1, multiplicities: 39, labels: 0">
<ellipse fill="#f7fcf5" stroke="black" cx="712.047" cy="-90" rx="41.6928" ry="18"/>
<text text-anchor="middle" x="712.047" y="-86.3" font-family="Times,serif" font-size="14.00">12 (1): 0</text>
</a>
</g>
</g>
<!-- 12&#45;&gt;8 -->
<g id="edge16" class="edge"><title>12&#45;&gt;8</title>
<path fill="none" stroke="black" d="M712.047,-71.6966C712.047,-63.9827 712.047,-54.7125 712.047,-46.1124"/>
<polygon fill="black" stroke="black" points="715.547,-46.1043 712.047,-36.1043 708.547,-46.1044 715.547,-46.1043"/>
</g>
<!-- 13 -->
<g id="node14" class="node"><title>13</title>
<g id="a_node14"><a xlink:title="13, diversity: 1, multiplicities: 22, labels: 0">
<ellipse fill="#f7fcf5" stroke="black" cx="272.047" cy="-234" rx="41.6928" ry="18"/>
<text text-anchor="middle" x="272.047" y="-230.3" font-family="Times,serif" font-size="14.00">13 (1): 0</text>
</a>
</g>
</g>
<!-- 13&#45;&gt;3 -->
<g id="edge4" class="edge"><title>13&#45;&gt;3</title>
<path fill="none" stroke="black" d="M245.714,-219.834C223.098,-208.526 190.357,-192.155 165.817,-179.885"/>
<polygon fill="black" stroke="black" points="167.361,-176.744 156.852,-175.402 164.231,-183.005 167.361,-176.744"/>
</g>
<!-- 13&#45;&gt;5 -->
<g id="edge6" class="edge"><title>13&#45;&gt;5</title>
<path fill="none" stroke="black" d="M260.671,-216.411C254.813,-207.868 247.552,-197.278 241.044,-187.787"/>
<polygon fill="black" stroke="black" points="243.882,-185.738 235.34,-179.47 238.109,-189.697 243.882,-185.738"/>
</g>
<!-- 18 -->
<g id="node19" class="node"><title>18</title>
<g id="a_node19"><a xlink:title="18, diversity: 1, multiplicities: 1, labels: 0">
<ellipse fill="#f7fcf5" stroke="black" cx="321.047" cy="-162" rx="41.6928" ry="18"/>
<text text-anchor="middle" x="321.047" y="-158.3" font-family="Times,serif" font-size="14.00">18 (1): 0</text>
</a>
</g>
</g>
<!-- 13&#45;&gt;18 -->
<g id="edge9" class="edge"><title>13&#45;&gt;18</title>
<path fill="none" stroke="black" d="M283.659,-216.411C289.639,-207.868 297.052,-197.278 303.696,-187.787"/>
<polygon fill="black" stroke="black" points="306.65,-189.669 309.518,-179.47 300.916,-185.655 306.65,-189.669"/>
</g>
<!-- 19 -->
<g id="node20" class="node"><title>19</title>
<g id="a_node20"><a xlink:title="19, diversity: 1, multiplicities: 1, labels: 0">
<ellipse fill="#f7fcf5" stroke="black" cx="562.047" cy="-162" rx="41.6928" ry="18"/>
<text text-anchor="middle" x="562.047" y="-158.3" font-family="Times,serif" font-size="14.00">19 (1): 0</text>
</a>
</g>
</g>
<!-- 13&#45;&gt;19 -->
<g id="edge12" class="edge"><title>13&#45;&gt;19</title>
<path fill="none" stroke="black" d="M307.606,-224.417C360.255,-211.708 458.927,-187.891 516.704,-173.945"/>
<polygon fill="black" stroke="black" points="517.751,-177.293 526.65,-171.544 516.108,-170.488 517.751,-177.293"/>
</g>
<!-- 16 -->
<g id="node17" class="node"><title>16</title>
<g id="a_node17"><a xlink:title="16, diversity: 1, multiplicities: 18, labels: 0">
<ellipse fill="#f7fcf5" stroke="black" cx="413.047" cy="-18" rx="41.6928" ry="18"/>
<text text-anchor="middle" x="413.047" y="-14.3" font-family="Times,serif" font-size="14.00">16 (1): 0</text>
</a>
</g>
</g>
<!-- 17 -->
<g id="node18" class="node"><title>17</title>
<g id="a_node18"><a xlink:title="17, diversity: 1, multiplicities: 20, labels: 0">
<ellipse fill="#f7fcf5" stroke="black" cx="413.047" cy="-90" rx="41.6928" ry="18"/>
<text text-anchor="middle" x="413.047" y="-86.3" font-family="Times,serif" font-size="14.00">17 (1): 0</text>
</a>
</g>
</g>
<!-- 17&#45;&gt;16 -->
<g id="edge15" class="edge"><title>17&#45;&gt;16</title>
<path fill="none" stroke="black" d="M413.047,-71.6966C413.047,-63.9827 413.047,-54.7125 413.047,-46.1124"/>
<polygon fill="black" stroke="black" points="416.547,-46.1043 413.047,-36.1043 409.547,-46.1044 416.547,-46.1043"/>
</g>
<!-- 18&#45;&gt;1 -->
<g id="edge18" class="edge"><title>18&#45;&gt;1</title>
<path fill="none" stroke="black" d="M319.811,-143.697C319.26,-135.983 318.598,-126.712 317.983,-118.112"/>
<polygon fill="black" stroke="black" points="321.472,-117.83 317.268,-108.104 314.49,-118.328 321.472,-117.83"/>
</g>
<!-- 18&#45;&gt;17 -->
<g id="edge7" class="edge"><title>18&#45;&gt;17</title>
<path fill="none" stroke="black" d="M341.009,-145.811C353.997,-135.929 371.115,-122.905 385.405,-112.032"/>
<polygon fill="black" stroke="black" points="387.6,-114.76 393.439,-105.919 383.361,-109.189 387.6,-114.76"/>
</g>
<!-- 19&#45;&gt;0 -->
<g id="edge13" class="edge"><title>19&#45;&gt;0</title>
<path fill="none" stroke="black" d="M550.671,-144.411C544.813,-135.868 537.552,-125.278 531.044,-115.787"/>
<polygon fill="black" stroke="black" points="533.882,-113.738 525.34,-107.47 528.109,-117.697 533.882,-113.738"/>
</g>
<!-- 19&#45;&gt;11 -->
<g id="edge8" class="edge"><title>19&#45;&gt;11</title>
<path fill="none" stroke="black" d="M573.659,-144.411C579.639,-135.868 587.052,-125.278 593.696,-115.787"/>
<polygon fill="black" stroke="black" points="596.65,-117.669 599.518,-107.47 590.916,-113.655 596.65,-117.669"/>
</g>
<!-- 19&#45;&gt;12 -->
<g id="edge1" class="edge"><title>19&#45;&gt;12</title>
<path fill="none" stroke="black" d="M589.211,-148.324C613.347,-137.06 648.828,-120.502 675.458,-108.075"/>
<polygon fill="black" stroke="black" points="677.25,-111.101 684.832,-103.7 674.29,-104.758 677.25,-111.101"/>
</g>
</g>
</svg>
