<?xml version="1.0" encoding="UTF-8" standalone="no"?>
<!DOCTYPE svg PUBLIC "-//W3C//DTD SVG 1.1//EN"
 "http://www.w3.org/Graphics/SVG/1.1/DTD/svg11.dtd">
<!-- Generated by graphviz version 2.38.0 (20140413.2041)
 -->
<!-- Title: %3 Pages: 1 -->
<svg width="561pt" height="620pt"
 viewBox="0.00 0.00 560.64 620.00" xmlns="http://www.w3.org/2000/svg" xmlns:xlink="http://www.w3.org/1999/xlink">
<g id="graph0" class="graph" transform="scale(1 1) rotate(0) translate(4 616)">
<title>%3</title>
<polygon fill="white" stroke="none" points="-4,4 -4,-616 556.643,-616 556.643,4 -4,4"/>
<!-- 0 -->
<g id="node1" class="node"><title>0</title>
<g id="a_node1"><a xlink:title="0, diversity: 2, multiplicities: 26,35, labels: 0">
<ellipse fill="#f7fcf5" stroke="black" cx="37.0467" cy="-306" rx="37.0935" ry="18"/>
<text text-anchor="middle" x="37.0467" y="-302.3" font-family="Times,serif" font-size="14.00">0 (2): 0</text>
</a>
</g>
</g>
<!-- 1 -->
<g id="node2" class="node"><title>1</title>
<g id="a_node2"><a xlink:title="1, diversity: 1, multiplicities: 6, labels: 0">
<ellipse fill="#f7fcf5" stroke="black" cx="129.047" cy="-306" rx="37.0935" ry="18"/>
<text text-anchor="middle" x="129.047" y="-302.3" font-family="Times,serif" font-size="14.00">1 (1): 0</text>
</a>
</g>
</g>
<!-- 2 -->
<g id="node3" class="node"><title>2</title>
<g id="a_node3"><a xlink:title="2, diversity: 1, multiplicities: 8, labels: 0">
<ellipse fill="#f7fcf5" stroke="black" cx="313.047" cy="-234" rx="37.0935" ry="18"/>
<text text-anchor="middle" x="313.047" y="-230.3" font-family="Times,serif" font-size="14.00">2 (1): 0</text>
</a>
</g>
</g>
<!-- 3 -->
<g id="node4" class="node"><title>3</title>
<g id="a_node4"><a xlink:title="3, diversity: 2, multiplicities: 30,99, labels: 0">
<ellipse fill="#f7fcf5" stroke="black" cx="221.047" cy="-378" rx="37.0935" ry="18"/>
<text text-anchor="middle" x="221.047" y="-374.3" font-family="Times,serif" font-size="14.00">3 (2): 0</text>
</a>
</g>
</g>
<!-- 3&#45;&gt;0 -->
<g id="edge4" class="edge"><title>3&#45;&gt;0</title>
<path fill="none" stroke="black" d="M192.7,-366.216C161.094,-354.192 109.83,-334.689 74.8349,-321.376"/>
<polygon fill="black" stroke="black" points="76.0167,-318.081 65.4257,-317.796 73.5276,-324.623 76.0167,-318.081"/>
</g>
<!-- 3&#45;&gt;1 -->
<g id="edge6" class="edge"><title>3&#45;&gt;1</title>
<path fill="none" stroke="black" d="M201.984,-362.496C188.785,-352.453 171.018,-338.934 156.324,-327.754"/>
<polygon fill="black" stroke="black" points="158.162,-324.755 148.085,-321.485 153.924,-330.326 158.162,-324.755"/>
</g>
<!-- 4 -->
<g id="node5" class="node"><title>4</title>
<g id="a_node5"><a xlink:title="4, diversity: 1, multiplicities: 105, labels: 0">
<ellipse fill="#f7fcf5" stroke="black" cx="221.047" cy="-306" rx="37.0935" ry="18"/>
<text text-anchor="middle" x="221.047" y="-302.3" font-family="Times,serif" font-size="14.00">4 (1): 0</text>
</a>
</g>
</g>
<!-- 3&#45;&gt;4 -->
<g id="edge14" class="edge"><title>3&#45;&gt;4</title>
<path fill="none" stroke="black" d="M221.047,-359.697C221.047,-351.983 221.047,-342.712 221.047,-334.112"/>
<polygon fill="black" stroke="black" points="224.547,-334.104 221.047,-324.104 217.547,-334.104 224.547,-334.104"/>
</g>
<!-- 5 -->
<g id="node6" class="node"><title>5</title>
<g id="a_node6"><a xlink:title="5, diversity: 1, multiplicities: 42, labels: 0">
<ellipse fill="#f7fcf5" stroke="black" cx="313.047" cy="-306" rx="37.0935" ry="18"/>
<text text-anchor="middle" x="313.047" y="-302.3" font-family="Times,serif" font-size="14.00">5 (1): 0</text>
</a>
</g>
</g>
<!-- 3&#45;&gt;5 -->
<g id="edge17" class="edge"><title>3&#45;&gt;5</title>
<path fill="none" stroke="black" d="M240.109,-362.496C253.308,-352.453 271.076,-338.934 285.77,-327.754"/>
<polygon fill="black" stroke="black" points="288.17,-330.326 294.009,-321.485 283.931,-324.755 288.17,-330.326"/>
</g>
<!-- 7 -->
<g id="node8" class="node"><title>7</title>
<g id="a_node8"><a xlink:title="7, diversity: 1, multiplicities: 5, labels: 0">
<ellipse fill="#f7fcf5" stroke="black" cx="410.047" cy="-306" rx="37.0935" ry="18"/>
<text text-anchor="middle" x="410.047" y="-302.3" font-family="Times,serif" font-size="14.00">7 (1): 0</text>
</a>
</g>
</g>
<!-- 3&#45;&gt;7 -->
<g id="edge12" class="edge"><title>3&#45;&gt;7</title>
<path fill="none" stroke="black" d="M249.752,-366.369C282.317,-354.307 335.576,-334.582 371.684,-321.208"/>
<polygon fill="black" stroke="black" points="373.22,-324.372 381.382,-317.617 370.789,-317.808 373.22,-324.372"/>
</g>
<!-- 6 -->
<g id="node7" class="node"><title>6</title>
<g id="a_node7"><a xlink:title="6, diversity: 1, multiplicities: 25, labels: 0">
<ellipse fill="#f7fcf5" stroke="black" cx="221.047" cy="-234" rx="37.0935" ry="18"/>
<text text-anchor="middle" x="221.047" y="-230.3" font-family="Times,serif" font-size="14.00">6 (1): 0</text>
</a>
</g>
</g>
<!-- 4&#45;&gt;6 -->
<g id="edge3" class="edge"><title>4&#45;&gt;6</title>
<path fill="none" stroke="black" d="M221.047,-287.697C221.047,-279.983 221.047,-270.712 221.047,-262.112"/>
<polygon fill="black" stroke="black" points="224.547,-262.104 221.047,-252.104 217.547,-262.104 224.547,-262.104"/>
</g>
<!-- 5&#45;&gt;2 -->
<g id="edge5" class="edge"><title>5&#45;&gt;2</title>
<path fill="none" stroke="black" d="M313.047,-287.697C313.047,-279.983 313.047,-270.712 313.047,-262.112"/>
<polygon fill="black" stroke="black" points="316.547,-262.104 313.047,-252.104 309.547,-262.104 316.547,-262.104"/>
</g>
<!-- 8 -->
<g id="node9" class="node"><title>8</title>
<g id="a_node9"><a xlink:title="8, diversity: 1, multiplicities: 5, labels: 0">
<ellipse fill="#f7fcf5" stroke="black" cx="221.047" cy="-162" rx="37.0935" ry="18"/>
<text text-anchor="middle" x="221.047" y="-158.3" font-family="Times,serif" font-size="14.00">8 (1): 0</text>
</a>
</g>
</g>
<!-- 6&#45;&gt;8 -->
<g id="edge11" class="edge"><title>6&#45;&gt;8</title>
<path fill="none" stroke="black" d="M221.047,-215.697C221.047,-207.983 221.047,-198.712 221.047,-190.112"/>
<polygon fill="black" stroke="black" points="224.547,-190.104 221.047,-180.104 217.547,-190.104 224.547,-190.104"/>
</g>
<!-- 10 -->
<g id="node11" class="node"><title>10</title>
<g id="a_node11"><a xlink:title="10, diversity: 1, multiplicities: 3, labels: 0">
<ellipse fill="#f7fcf5" stroke="black" cx="410.047" cy="-234" rx="41.6928" ry="18"/>
<text text-anchor="middle" x="410.047" y="-230.3" font-family="Times,serif" font-size="14.00">10 (1): 0</text>
</a>
</g>
</g>
<!-- 7&#45;&gt;10 -->
<g id="edge10" class="edge"><title>7&#45;&gt;10</title>
<path fill="none" stroke="black" d="M410.047,-287.697C410.047,-279.983 410.047,-270.712 410.047,-262.112"/>
<polygon fill="black" stroke="black" points="413.547,-262.104 410.047,-252.104 406.547,-262.104 413.547,-262.104"/>
</g>
<!-- 12 -->
<g id="node13" class="node"><title>12</title>
<g id="a_node13"><a xlink:title="12, diversity: 2, multiplicities: 1,39, labels: 0">
<ellipse fill="#f7fcf5" stroke="black" cx="511.047" cy="-234" rx="41.6928" ry="18"/>
<text text-anchor="middle" x="511.047" y="-230.3" font-family="Times,serif" font-size="14.00">12 (2): 0</text>
</a>
</g>
</g>
<!-- 7&#45;&gt;12 -->
<g id="edge8" class="edge"><title>7&#45;&gt;12</title>
<path fill="none" stroke="black" d="M430.486,-290.834C445.076,-280.722 464.93,-266.962 481.278,-255.632"/>
<polygon fill="black" stroke="black" points="483.718,-258.199 489.943,-249.626 479.73,-252.446 483.718,-258.199"/>
</g>
<!-- 9 -->
<g id="node10" class="node"><title>9</title>
<g id="a_node10"><a xlink:title="9, diversity: 1, multiplicities: 2, labels: 0">
<ellipse fill="#f7fcf5" stroke="black" cx="221.047" cy="-450" rx="37.0935" ry="18"/>
<text text-anchor="middle" x="221.047" y="-446.3" font-family="Times,serif" font-size="14.00">9 (1): 0</text>
</a>
</g>
</g>
<!-- 9&#45;&gt;3 -->
<g id="edge1" class="edge"><title>9&#45;&gt;3</title>
<path fill="none" stroke="black" d="M221.047,-431.697C221.047,-423.983 221.047,-414.712 221.047,-406.112"/>
<polygon fill="black" stroke="black" points="224.547,-406.104 221.047,-396.104 217.547,-406.104 224.547,-406.104"/>
</g>
<!-- 11 -->
<g id="node12" class="node"><title>11</title>
<g id="a_node12"><a xlink:title="11, diversity: 1, multiplicities: 1, labels: 0">
<ellipse fill="#f7fcf5" stroke="black" cx="410.047" cy="-162" rx="41.6928" ry="18"/>
<text text-anchor="middle" x="410.047" y="-158.3" font-family="Times,serif" font-size="14.00">11 (1): 0</text>
</a>
</g>
</g>
<!-- 10&#45;&gt;11 -->
<g id="edge2" class="edge"><title>10&#45;&gt;11</title>
<path fill="none" stroke="black" d="M410.047,-215.697C410.047,-207.983 410.047,-198.712 410.047,-190.112"/>
<polygon fill="black" stroke="black" points="413.547,-190.104 410.047,-180.104 406.547,-190.104 413.547,-190.104"/>
</g>
<!-- 17 -->
<g id="node18" class="node"><title>17</title>
<g id="a_node18"><a xlink:title="17, diversity: 2, multiplicities: 1,2, labels: 0">
<ellipse fill="#f7fcf5" stroke="black" cx="410.047" cy="-90" rx="41.6928" ry="18"/>
<text text-anchor="middle" x="410.047" y="-86.3" font-family="Times,serif" font-size="14.00">17 (2): 0</text>
</a>
</g>
</g>
<!-- 11&#45;&gt;17 -->
<g id="edge9" class="edge"><title>11&#45;&gt;17</title>
<path fill="none" stroke="black" d="M410.047,-143.697C410.047,-135.983 410.047,-126.712 410.047,-118.112"/>
<polygon fill="black" stroke="black" points="413.547,-118.104 410.047,-108.104 406.547,-118.104 413.547,-118.104"/>
</g>
<!-- 13 -->
<g id="node14" class="node"><title>13</title>
<g id="a_node14"><a xlink:title="13, diversity: 1, multiplicities: 15, labels: 0">
<ellipse fill="#f7fcf5" stroke="black" cx="511.047" cy="-162" rx="41.6928" ry="18"/>
<text text-anchor="middle" x="511.047" y="-158.3" font-family="Times,serif" font-size="14.00">13 (1): 0</text>
</a>
</g>
</g>
<!-- 12&#45;&gt;13 -->
<g id="edge7" class="edge"><title>12&#45;&gt;13</title>
<path fill="none" stroke="black" d="M511.047,-215.697C511.047,-207.983 511.047,-198.712 511.047,-190.112"/>
<polygon fill="black" stroke="black" points="514.547,-190.104 511.047,-180.104 507.547,-190.104 514.547,-190.104"/>
</g>
<!-- 14 -->
<g id="node15" class="node"><title>14</title>
<g id="a_node15"><a xlink:title="14, diversity: 1, multiplicities: 243, labels: 0">
<ellipse fill="#f7fcf5" stroke="black" cx="221.047" cy="-522" rx="41.6928" ry="18"/>
<text text-anchor="middle" x="221.047" y="-518.3" font-family="Times,serif" font-size="14.00">14 (1): 0</text>
</a>
</g>
</g>
<!-- 14&#45;&gt;9 -->
<g id="edge13" class="edge"><title>14&#45;&gt;9</title>
<path fill="none" stroke="black" d="M221.047,-503.697C221.047,-495.983 221.047,-486.712 221.047,-478.112"/>
<polygon fill="black" stroke="black" points="224.547,-478.104 221.047,-468.104 217.547,-478.104 224.547,-478.104"/>
</g>
<!-- 15 -->
<g id="node16" class="node"><title>15</title>
<g id="a_node16"><a xlink:title="15, diversity: 1, multiplicities: 143, labels: 0">
<ellipse fill="#f7fcf5" stroke="black" cx="221.047" cy="-594" rx="41.6928" ry="18"/>
<text text-anchor="middle" x="221.047" y="-590.3" font-family="Times,serif" font-size="14.00">15 (1): 0</text>
</a>
</g>
</g>
<!-- 15&#45;&gt;14 -->
<g id="edge15" class="edge"><title>15&#45;&gt;14</title>
<path fill="none" stroke="black" d="M221.047,-575.697C221.047,-567.983 221.047,-558.712 221.047,-550.112"/>
<polygon fill="black" stroke="black" points="224.547,-550.104 221.047,-540.104 217.547,-550.104 224.547,-550.104"/>
</g>
<!-- 16 -->
<g id="node17" class="node"><title>16</title>
<g id="a_node17"><a xlink:title="16, diversity: 1, multiplicities: 10, labels: 0">
<ellipse fill="#f7fcf5" stroke="black" cx="410.047" cy="-18" rx="41.6928" ry="18"/>
<text text-anchor="middle" x="410.047" y="-14.3" font-family="Times,serif" font-size="14.00">16 (1): 0</text>
</a>
</g>
</g>
<!-- 17&#45;&gt;16 -->
<g id="edge16" class="edge"><title>17&#45;&gt;16</title>
<path fill="none" stroke="black" d="M410.047,-71.6966C410.047,-63.9827 410.047,-54.7125 410.047,-46.1124"/>
<polygon fill="black" stroke="black" points="413.547,-46.1043 410.047,-36.1043 406.547,-46.1044 413.547,-46.1043"/>
</g>
</g>
</svg>
