<?xml version="1.0" encoding="UTF-8" standalone="no"?>
<!DOCTYPE svg PUBLIC "-//W3C//DTD SVG 1.1//EN"
 "http://www.w3.org/Graphics/SVG/1.1/DTD/svg11.dtd">
<!-- Generated by graphviz version 2.38.0 (20140413.2041)
 -->
<!-- Title: %3 Pages: 1 -->
<svg width="752pt" height="764pt"
 viewBox="0.00 0.00 751.64 764.00" xmlns="http://www.w3.org/2000/svg" xmlns:xlink="http://www.w3.org/1999/xlink">
<g id="graph0" class="graph" transform="scale(1 1) rotate(0) translate(4 760)">
<title>%3</title>
<polygon fill="white" stroke="none" points="-4,4 -4,-760 747.643,-760 747.643,4 -4,4"/>
<!-- 0 -->
<g id="node1" class="node"><title>0</title>
<g id="a_node1"><a xlink:title="0, diversity: 1, multiplicities: 16, labels: 0">
<ellipse fill="#f7fcf5" stroke="black" cx="633.047" cy="-594" rx="37.0935" ry="18"/>
<text text-anchor="middle" x="633.047" y="-590.3" font-family="Times,serif" font-size="14.00">0 (1): 0</text>
</a>
</g>
</g>
<!-- 25 -->
<g id="node26" class="node"><title>25</title>
<g id="a_node26"><a xlink:title="25, diversity: 1, multiplicities: 5, labels: 0">
<ellipse fill="#f7fcf5" stroke="black" cx="646.047" cy="-522" rx="41.6928" ry="18"/>
<text text-anchor="middle" x="646.047" y="-518.3" font-family="Times,serif" font-size="14.00">25 (1): 0</text>
</a>
</g>
</g>
<!-- 0&#45;&gt;25 -->
<g id="edge21" class="edge"><title>0&#45;&gt;25</title>
<path fill="none" stroke="black" d="M636.194,-576.055C637.625,-568.346 639.356,-559.027 640.965,-550.364"/>
<polygon fill="black" stroke="black" points="644.454,-550.746 642.838,-540.275 637.571,-549.468 644.454,-550.746"/>
</g>
<!-- 1 -->
<g id="node2" class="node"><title>1</title>
<g id="a_node2"><a xlink:title="1, diversity: 9, multiplicities: 1,7,11,13,22,52,66,66,36177, labels: 0">
<ellipse fill="#f7fcf5" stroke="black" cx="313.047" cy="-378" rx="37.0935" ry="18"/>
<text text-anchor="middle" x="313.047" y="-374.3" font-family="Times,serif" font-size="14.00">1 (9): 0</text>
</a>
</g>
</g>
<!-- 2 -->
<g id="node3" class="node"><title>2</title>
<g id="a_node3"><a xlink:title="2, diversity: 1, multiplicities: 2208, labels: 0">
<ellipse fill="#f7fcf5" stroke="black" cx="37.0467" cy="-306" rx="37.0935" ry="18"/>
<text text-anchor="middle" x="37.0467" y="-302.3" font-family="Times,serif" font-size="14.00">2 (1): 0</text>
</a>
</g>
</g>
<!-- 1&#45;&gt;2 -->
<g id="edge12" class="edge"><title>1&#45;&gt;2</title>
<path fill="none" stroke="black" d="M279.176,-370.603C234.007,-361.754 151.757,-344.522 83.0467,-324 80.2934,-323.178 77.4666,-322.277 74.6334,-321.332"/>
<polygon fill="black" stroke="black" points="75.6692,-317.987 65.0743,-318.003 73.3671,-324.597 75.6692,-317.987"/>
</g>
<!-- 3 -->
<g id="node4" class="node"><title>3</title>
<g id="a_node4"><a xlink:title="3, diversity: 1, multiplicities: 146, labels: 0">
<ellipse fill="#f7fcf5" stroke="black" cx="129.047" cy="-306" rx="37.0935" ry="18"/>
<text text-anchor="middle" x="129.047" y="-302.3" font-family="Times,serif" font-size="14.00">3 (1): 0</text>
</a>
</g>
</g>
<!-- 1&#45;&gt;3 -->
<g id="edge2" class="edge"><title>1&#45;&gt;3</title>
<path fill="none" stroke="black" d="M284.7,-366.216C253.094,-354.192 201.83,-334.689 166.835,-321.376"/>
<polygon fill="black" stroke="black" points="168.017,-318.081 157.426,-317.796 165.528,-324.623 168.017,-318.081"/>
</g>
<!-- 5 -->
<g id="node6" class="node"><title>5</title>
<g id="a_node6"><a xlink:title="5, diversity: 1, multiplicities: 85, labels: 0">
<ellipse fill="#f7fcf5" stroke="black" cx="221.047" cy="-306" rx="37.0935" ry="18"/>
<text text-anchor="middle" x="221.047" y="-302.3" font-family="Times,serif" font-size="14.00">5 (1): 0</text>
</a>
</g>
</g>
<!-- 1&#45;&gt;5 -->
<g id="edge15" class="edge"><title>1&#45;&gt;5</title>
<path fill="none" stroke="black" d="M293.984,-362.496C280.785,-352.453 263.018,-338.934 248.324,-327.754"/>
<polygon fill="black" stroke="black" points="250.162,-324.755 240.085,-321.485 245.924,-330.326 250.162,-324.755"/>
</g>
<!-- 7 -->
<g id="node8" class="node"><title>7</title>
<g id="a_node8"><a xlink:title="7, diversity: 1, multiplicities: 101, labels: 0">
<ellipse fill="#f7fcf5" stroke="black" cx="313.047" cy="-306" rx="37.0935" ry="18"/>
<text text-anchor="middle" x="313.047" y="-302.3" font-family="Times,serif" font-size="14.00">7 (1): 0</text>
</a>
</g>
</g>
<!-- 1&#45;&gt;7 -->
<g id="edge33" class="edge"><title>1&#45;&gt;7</title>
<path fill="none" stroke="black" d="M313.047,-359.697C313.047,-351.983 313.047,-342.712 313.047,-334.112"/>
<polygon fill="black" stroke="black" points="316.547,-334.104 313.047,-324.104 309.547,-334.104 316.547,-334.104"/>
</g>
<!-- 13 -->
<g id="node14" class="node"><title>13</title>
<g id="a_node14"><a xlink:title="13, diversity: 5, multiplicities: 3,3,11,15,16, labels: 0">
<ellipse fill="#f7fcf5" stroke="black" cx="410.047" cy="-306" rx="41.6928" ry="18"/>
<text text-anchor="middle" x="410.047" y="-302.3" font-family="Times,serif" font-size="14.00">13 (5): 0</text>
</a>
</g>
</g>
<!-- 1&#45;&gt;13 -->
<g id="edge22" class="edge"><title>1&#45;&gt;13</title>
<path fill="none" stroke="black" d="M333.145,-362.496C347.098,-352.427 365.893,-338.864 381.409,-327.666"/>
<polygon fill="black" stroke="black" points="383.579,-330.416 389.64,-321.726 379.483,-324.74 383.579,-330.416"/>
</g>
<!-- 24 -->
<g id="node25" class="node"><title>24</title>
<g id="a_node25"><a xlink:title="24, diversity: 2, multiplicities: 1,7, labels: 0">
<ellipse fill="#f7fcf5" stroke="black" cx="511.047" cy="-306" rx="41.6928" ry="18"/>
<text text-anchor="middle" x="511.047" y="-302.3" font-family="Times,serif" font-size="14.00">24 (2): 0</text>
</a>
</g>
</g>
<!-- 1&#45;&gt;24 -->
<g id="edge19" class="edge"><title>1&#45;&gt;24</title>
<path fill="none" stroke="black" d="M342.262,-366.671C376.034,-354.732 431.85,-334.999 469.979,-321.519"/>
<polygon fill="black" stroke="black" points="471.487,-324.698 479.748,-318.065 469.153,-318.099 471.487,-324.698"/>
</g>
<!-- 6 -->
<g id="node7" class="node"><title>6</title>
<g id="a_node7"><a xlink:title="6, diversity: 3, multiplicities: 7,14,131, labels: 0">
<ellipse fill="#f7fcf5" stroke="black" cx="120.047" cy="-234" rx="37.0935" ry="18"/>
<text text-anchor="middle" x="120.047" y="-230.3" font-family="Times,serif" font-size="14.00">6 (3): 0</text>
</a>
</g>
</g>
<!-- 3&#45;&gt;6 -->
<g id="edge17" class="edge"><title>3&#45;&gt;6</title>
<path fill="none" stroke="black" d="M126.822,-287.697C125.83,-279.983 124.638,-270.712 123.533,-262.112"/>
<polygon fill="black" stroke="black" points="126.993,-261.576 122.246,-252.104 120.05,-262.469 126.993,-261.576"/>
</g>
<!-- 4 -->
<g id="node5" class="node"><title>4</title>
<g id="a_node5"><a xlink:title="4, diversity: 3, multiplicities: 1,1,17, labels: 0">
<ellipse fill="#f7fcf5" stroke="black" cx="513.047" cy="-378" rx="37.0935" ry="18"/>
<text text-anchor="middle" x="513.047" y="-374.3" font-family="Times,serif" font-size="14.00">4 (3): 0</text>
</a>
</g>
</g>
<!-- 18 -->
<g id="node19" class="node"><title>18</title>
<g id="a_node19"><a xlink:title="18, diversity: 1, multiplicities: 5, labels: 0">
<ellipse fill="#f7fcf5" stroke="black" cx="217.047" cy="-234" rx="41.6928" ry="18"/>
<text text-anchor="middle" x="217.047" y="-230.3" font-family="Times,serif" font-size="14.00">18 (1): 0</text>
</a>
</g>
</g>
<!-- 5&#45;&gt;18 -->
<g id="edge13" class="edge"><title>5&#45;&gt;18</title>
<path fill="none" stroke="black" d="M220.058,-287.697C219.617,-279.983 219.087,-270.712 218.596,-262.112"/>
<polygon fill="black" stroke="black" points="222.089,-261.888 218.024,-252.104 215.1,-262.288 222.089,-261.888"/>
</g>
<!-- 14 -->
<g id="node15" class="node"><title>14</title>
<g id="a_node15"><a xlink:title="14, diversity: 1, multiplicities: 7, labels: 0">
<ellipse fill="#f7fcf5" stroke="black" cx="120.047" cy="-162" rx="41.6928" ry="18"/>
<text text-anchor="middle" x="120.047" y="-158.3" font-family="Times,serif" font-size="14.00">14 (1): 0</text>
</a>
</g>
</g>
<!-- 6&#45;&gt;14 -->
<g id="edge11" class="edge"><title>6&#45;&gt;14</title>
<path fill="none" stroke="black" d="M120.047,-215.697C120.047,-207.983 120.047,-198.712 120.047,-190.112"/>
<polygon fill="black" stroke="black" points="123.547,-190.104 120.047,-180.104 116.547,-190.104 123.547,-190.104"/>
</g>
<!-- 27 -->
<g id="node28" class="node"><title>27</title>
<g id="a_node28"><a xlink:title="27, diversity: 1, multiplicities: 6, labels: 0">
<ellipse fill="#f7fcf5" stroke="black" cx="318.047" cy="-234" rx="41.6928" ry="18"/>
<text text-anchor="middle" x="318.047" y="-230.3" font-family="Times,serif" font-size="14.00">27 (1): 0</text>
</a>
</g>
</g>
<!-- 7&#45;&gt;27 -->
<g id="edge18" class="edge"><title>7&#45;&gt;27</title>
<path fill="none" stroke="black" d="M314.283,-287.697C314.834,-279.983 315.496,-270.712 316.11,-262.112"/>
<polygon fill="black" stroke="black" points="319.604,-262.328 316.825,-252.104 312.621,-261.83 319.604,-262.328"/>
</g>
<!-- 8 -->
<g id="node9" class="node"><title>8</title>
<g id="a_node9"><a xlink:title="8, diversity: 1, multiplicities: 12, labels: 0">
<ellipse fill="#f7fcf5" stroke="black" cx="246.047" cy="-522" rx="37.0935" ry="18"/>
<text text-anchor="middle" x="246.047" y="-518.3" font-family="Times,serif" font-size="14.00">8 (1): 0</text>
</a>
</g>
</g>
<!-- 9 -->
<g id="node10" class="node"><title>9</title>
<g id="a_node10"><a xlink:title="9, diversity: 3, multiplicities: 1,5,10, labels: 0">
<ellipse fill="#f7fcf5" stroke="black" cx="605.047" cy="-378" rx="37.0935" ry="18"/>
<text text-anchor="middle" x="605.047" y="-374.3" font-family="Times,serif" font-size="14.00">9 (3): 0</text>
</a>
</g>
</g>
<!-- 22 -->
<g id="node23" class="node"><title>22</title>
<g id="a_node23"><a xlink:title="22, diversity: 1, multiplicities: 1, labels: 0">
<ellipse fill="#f7fcf5" stroke="black" cx="612.047" cy="-306" rx="41.6928" ry="18"/>
<text text-anchor="middle" x="612.047" y="-302.3" font-family="Times,serif" font-size="14.00">22 (1): 0</text>
</a>
</g>
</g>
<!-- 9&#45;&gt;22 -->
<g id="edge5" class="edge"><title>9&#45;&gt;22</title>
<path fill="none" stroke="black" d="M606.777,-359.697C607.548,-351.983 608.475,-342.712 609.335,-334.112"/>
<polygon fill="black" stroke="black" points="612.824,-334.403 610.336,-324.104 605.859,-333.706 612.824,-334.403"/>
</g>
<!-- 10 -->
<g id="node11" class="node"><title>10</title>
<g id="a_node11"><a xlink:title="10, diversity: 1, multiplicities: 7, labels: 0">
<ellipse fill="#f7fcf5" stroke="black" cx="419.047" cy="-18" rx="41.6928" ry="18"/>
<text text-anchor="middle" x="419.047" y="-14.3" font-family="Times,serif" font-size="14.00">10 (1): 0</text>
</a>
</g>
</g>
<!-- 11 -->
<g id="node12" class="node"><title>11</title>
<g id="a_node12"><a xlink:title="11, diversity: 1, multiplicities: 11, labels: 0">
<ellipse fill="#f7fcf5" stroke="black" cx="612.047" cy="-162" rx="41.6928" ry="18"/>
<text text-anchor="middle" x="612.047" y="-158.3" font-family="Times,serif" font-size="14.00">11 (1): 0</text>
</a>
</g>
</g>
<!-- 12 -->
<g id="node13" class="node"><title>12</title>
<g id="a_node13"><a xlink:title="12, diversity: 1, multiplicities: 77, labels: 0">
<ellipse fill="#f7fcf5" stroke="black" cx="337.047" cy="-450" rx="41.6928" ry="18"/>
<text text-anchor="middle" x="337.047" y="-446.3" font-family="Times,serif" font-size="14.00">12 (1): 0</text>
</a>
</g>
</g>
<!-- 12&#45;&gt;1 -->
<g id="edge3" class="edge"><title>12&#45;&gt;1</title>
<path fill="none" stroke="black" d="M331.237,-432.055C328.495,-424.059 325.16,-414.331 322.098,-405.4"/>
<polygon fill="black" stroke="black" points="325.357,-404.113 318.803,-395.789 318.735,-406.384 325.357,-404.113"/>
</g>
<!-- 28 -->
<g id="node29" class="node"><title>28</title>
<g id="a_node29"><a xlink:title="28, diversity: 1, multiplicities: 2, labels: 0">
<ellipse fill="#f7fcf5" stroke="black" cx="419.047" cy="-234" rx="41.6928" ry="18"/>
<text text-anchor="middle" x="419.047" y="-230.3" font-family="Times,serif" font-size="14.00">28 (1): 0</text>
</a>
</g>
</g>
<!-- 13&#45;&gt;28 -->
<g id="edge32" class="edge"><title>13&#45;&gt;28</title>
<path fill="none" stroke="black" d="M412.271,-287.697C413.263,-279.983 414.455,-270.712 415.561,-262.112"/>
<polygon fill="black" stroke="black" points="419.044,-262.469 416.848,-252.104 412.101,-261.576 419.044,-262.469"/>
</g>
<!-- 15 -->
<g id="node16" class="node"><title>15</title>
<g id="a_node16"><a xlink:title="15, diversity: 1, multiplicities: 6, labels: 0">
<ellipse fill="#f7fcf5" stroke="black" cx="469.047" cy="-666" rx="41.6928" ry="18"/>
<text text-anchor="middle" x="469.047" y="-662.3" font-family="Times,serif" font-size="14.00">15 (1): 0</text>
</a>
</g>
</g>
<!-- 17 -->
<g id="node18" class="node"><title>17</title>
<g id="a_node18"><a xlink:title="17, diversity: 1, multiplicities: 8, labels: 0">
<ellipse fill="#f7fcf5" stroke="black" cx="444.047" cy="-594" rx="41.6928" ry="18"/>
<text text-anchor="middle" x="444.047" y="-590.3" font-family="Times,serif" font-size="14.00">17 (1): 0</text>
</a>
</g>
</g>
<!-- 15&#45;&gt;17 -->
<g id="edge28" class="edge"><title>15&#45;&gt;17</title>
<path fill="none" stroke="black" d="M462.995,-648.055C460.181,-640.176 456.767,-630.617 453.616,-621.794"/>
<polygon fill="black" stroke="black" points="456.876,-620.516 450.216,-612.275 450.284,-622.87 456.876,-620.516"/>
</g>
<!-- 16 -->
<g id="node17" class="node"><title>16</title>
<g id="a_node17"><a xlink:title="16, diversity: 1, multiplicities: 5, labels: 0">
<ellipse fill="#f7fcf5" stroke="black" cx="444.047" cy="-450" rx="41.6928" ry="18"/>
<text text-anchor="middle" x="444.047" y="-446.3" font-family="Times,serif" font-size="14.00">16 (1): 0</text>
</a>
</g>
</g>
<!-- 17&#45;&gt;8 -->
<g id="edge1" class="edge"><title>17&#45;&gt;8</title>
<path fill="none" stroke="black" d="M412.547,-582.207C381.765,-571.614 333.605,-554.923 292.047,-540 289.505,-539.087 286.887,-538.14 284.251,-537.18"/>
<polygon fill="black" stroke="black" points="285.32,-533.845 274.727,-533.692 282.913,-540.418 285.32,-533.845"/>
</g>
<!-- 29 -->
<g id="node30" class="node"><title>29</title>
<g id="a_node30"><a xlink:title="29, diversity: 1, multiplicities: 1, labels: 0">
<ellipse fill="#f7fcf5" stroke="black" cx="343.047" cy="-522" rx="41.6928" ry="18"/>
<text text-anchor="middle" x="343.047" y="-518.3" font-family="Times,serif" font-size="14.00">29 (1): 0</text>
</a>
</g>
</g>
<!-- 17&#45;&gt;29 -->
<g id="edge4" class="edge"><title>17&#45;&gt;29</title>
<path fill="none" stroke="black" d="M422.627,-578.155C408.068,-568.064 388.616,-554.583 372.588,-543.474"/>
<polygon fill="black" stroke="black" points="374.302,-540.403 364.089,-537.584 370.314,-546.157 374.302,-540.403"/>
</g>
<!-- 30 -->
<g id="node31" class="node"><title>30</title>
<g id="a_node31"><a xlink:title="30, diversity: 1, multiplicities: 1, labels: 0">
<ellipse fill="#f7fcf5" stroke="black" cx="444.047" cy="-522" rx="41.6928" ry="18"/>
<text text-anchor="middle" x="444.047" y="-518.3" font-family="Times,serif" font-size="14.00">30 (1): 0</text>
</a>
</g>
</g>
<!-- 17&#45;&gt;30 -->
<g id="edge31" class="edge"><title>17&#45;&gt;30</title>
<path fill="none" stroke="black" d="M444.047,-575.697C444.047,-567.983 444.047,-558.712 444.047,-550.112"/>
<polygon fill="black" stroke="black" points="447.547,-550.104 444.047,-540.104 440.547,-550.104 447.547,-550.104"/>
</g>
<!-- 32 -->
<g id="node33" class="node"><title>32</title>
<g id="a_node33"><a xlink:title="32, diversity: 1, multiplicities: 1, labels: 0">
<ellipse fill="#f7fcf5" stroke="black" cx="545.047" cy="-522" rx="41.6928" ry="18"/>
<text text-anchor="middle" x="545.047" y="-518.3" font-family="Times,serif" font-size="14.00">32 (1): 0</text>
</a>
</g>
</g>
<!-- 17&#45;&gt;32 -->
<g id="edge23" class="edge"><title>17&#45;&gt;32</title>
<path fill="none" stroke="black" d="M465.466,-578.155C480.026,-568.064 499.478,-554.583 515.505,-543.474"/>
<polygon fill="black" stroke="black" points="517.779,-546.157 524.004,-537.584 513.792,-540.403 517.779,-546.157"/>
</g>
<!-- 19 -->
<g id="node20" class="node"><title>19</title>
<g id="a_node20"><a xlink:title="19, diversity: 1, multiplicities: 2, labels: 0">
<ellipse fill="#f7fcf5" stroke="black" cx="612.047" cy="-234" rx="41.6928" ry="18"/>
<text text-anchor="middle" x="612.047" y="-230.3" font-family="Times,serif" font-size="14.00">19 (1): 0</text>
</a>
</g>
</g>
<!-- 19&#45;&gt;11 -->
<g id="edge10" class="edge"><title>19&#45;&gt;11</title>
<path fill="none" stroke="black" d="M612.047,-215.697C612.047,-207.983 612.047,-198.712 612.047,-190.112"/>
<polygon fill="black" stroke="black" points="615.547,-190.104 612.047,-180.104 608.547,-190.104 615.547,-190.104"/>
</g>
<!-- 20 -->
<g id="node21" class="node"><title>20</title>
<g id="a_node21"><a xlink:title="20, diversity: 1, multiplicities: 9, labels: 0">
<ellipse fill="#f7fcf5" stroke="black" cx="702.047" cy="-378" rx="41.6928" ry="18"/>
<text text-anchor="middle" x="702.047" y="-374.3" font-family="Times,serif" font-size="14.00">20 (1): 0</text>
</a>
</g>
</g>
<!-- 21 -->
<g id="node22" class="node"><title>21</title>
<g id="a_node22"><a xlink:title="21, diversity: 2, multiplicities: 4,6, labels: 0">
<ellipse fill="#f7fcf5" stroke="black" cx="545.047" cy="-450" rx="41.6928" ry="18"/>
<text text-anchor="middle" x="545.047" y="-446.3" font-family="Times,serif" font-size="14.00">21 (2): 0</text>
</a>
</g>
</g>
<!-- 21&#45;&gt;4 -->
<g id="edge26" class="edge"><title>21&#45;&gt;4</title>
<path fill="none" stroke="black" d="M537.3,-432.055C533.606,-423.973 529.102,-414.121 524.983,-405.112"/>
<polygon fill="black" stroke="black" points="528.063,-403.429 520.722,-395.789 521.696,-406.339 528.063,-403.429"/>
</g>
<!-- 21&#45;&gt;9 -->
<g id="edge9" class="edge"><title>21&#45;&gt;9</title>
<path fill="none" stroke="black" d="M558.963,-432.765C566.535,-423.93 576.05,-412.83 584.464,-403.014"/>
<polygon fill="black" stroke="black" points="587.356,-405.018 591.206,-395.147 582.041,-400.462 587.356,-405.018"/>
</g>
<!-- 22&#45;&gt;19 -->
<g id="edge8" class="edge"><title>22&#45;&gt;19</title>
<path fill="none" stroke="black" d="M612.047,-287.697C612.047,-279.983 612.047,-270.712 612.047,-262.112"/>
<polygon fill="black" stroke="black" points="615.547,-262.104 612.047,-252.104 608.547,-262.104 615.547,-262.104"/>
</g>
<!-- 23 -->
<g id="node24" class="node"><title>23</title>
<g id="a_node24"><a xlink:title="23, diversity: 1, multiplicities: 1, labels: 0">
<ellipse fill="#f7fcf5" stroke="black" cx="658.047" cy="-450" rx="41.6928" ry="18"/>
<text text-anchor="middle" x="658.047" y="-446.3" font-family="Times,serif" font-size="14.00">23 (1): 0</text>
</a>
</g>
</g>
<!-- 23&#45;&gt;20 -->
<g id="edge25" class="edge"><title>23&#45;&gt;20</title>
<path fill="none" stroke="black" d="M668.474,-432.411C673.789,-423.955 680.365,-413.494 686.283,-404.078"/>
<polygon fill="black" stroke="black" points="689.336,-405.799 691.694,-395.47 683.409,-402.074 689.336,-405.799"/>
</g>
<!-- 26 -->
<g id="node27" class="node"><title>26</title>
<g id="a_node27"><a xlink:title="26, diversity: 1, multiplicities: 1, labels: 0">
<ellipse fill="#f7fcf5" stroke="black" cx="419.047" cy="-90" rx="41.6928" ry="18"/>
<text text-anchor="middle" x="419.047" y="-86.3" font-family="Times,serif" font-size="14.00">26 (1): 0</text>
</a>
</g>
</g>
<!-- 26&#45;&gt;10 -->
<g id="edge24" class="edge"><title>26&#45;&gt;10</title>
<path fill="none" stroke="black" d="M419.047,-71.6966C419.047,-63.9827 419.047,-54.7125 419.047,-46.1124"/>
<polygon fill="black" stroke="black" points="422.547,-46.1043 419.047,-36.1043 415.547,-46.1044 422.547,-46.1043"/>
</g>
<!-- 31 -->
<g id="node32" class="node"><title>31</title>
<g id="a_node32"><a xlink:title="31, diversity: 1, multiplicities: 1, labels: 0">
<ellipse fill="#f7fcf5" stroke="black" cx="419.047" cy="-162" rx="41.6928" ry="18"/>
<text text-anchor="middle" x="419.047" y="-158.3" font-family="Times,serif" font-size="14.00">31 (1): 0</text>
</a>
</g>
</g>
<!-- 28&#45;&gt;31 -->
<g id="edge6" class="edge"><title>28&#45;&gt;31</title>
<path fill="none" stroke="black" d="M419.047,-215.697C419.047,-207.983 419.047,-198.712 419.047,-190.112"/>
<polygon fill="black" stroke="black" points="422.547,-190.104 419.047,-180.104 415.547,-190.104 422.547,-190.104"/>
</g>
<!-- 29&#45;&gt;12 -->
<g id="edge16" class="edge"><title>29&#45;&gt;12</title>
<path fill="none" stroke="black" d="M341.564,-503.697C340.902,-495.983 340.108,-486.712 339.371,-478.112"/>
<polygon fill="black" stroke="black" points="342.854,-477.769 338.513,-468.104 335.88,-478.367 342.854,-477.769"/>
</g>
<!-- 30&#45;&gt;16 -->
<g id="edge27" class="edge"><title>30&#45;&gt;16</title>
<path fill="none" stroke="black" d="M444.047,-503.697C444.047,-495.983 444.047,-486.712 444.047,-478.112"/>
<polygon fill="black" stroke="black" points="447.547,-478.104 444.047,-468.104 440.547,-478.104 447.547,-478.104"/>
</g>
<!-- 31&#45;&gt;26 -->
<g id="edge7" class="edge"><title>31&#45;&gt;26</title>
<path fill="none" stroke="black" d="M419.047,-143.697C419.047,-135.983 419.047,-126.712 419.047,-118.112"/>
<polygon fill="black" stroke="black" points="422.547,-118.104 419.047,-108.104 415.547,-118.104 422.547,-118.104"/>
</g>
<!-- 32&#45;&gt;21 -->
<g id="edge20" class="edge"><title>32&#45;&gt;21</title>
<path fill="none" stroke="black" d="M545.047,-503.697C545.047,-495.983 545.047,-486.712 545.047,-478.112"/>
<polygon fill="black" stroke="black" points="548.547,-478.104 545.047,-468.104 541.547,-478.104 548.547,-478.104"/>
</g>
<!-- 32&#45;&gt;23 -->
<g id="edge34" class="edge"><title>32&#45;&gt;23</title>
<path fill="none" stroke="black" d="M567.914,-506.834C584.762,-496.398 607.883,-482.075 626.49,-470.549"/>
<polygon fill="black" stroke="black" points="628.556,-473.386 635.213,-465.144 624.869,-467.435 628.556,-473.386"/>
</g>
<!-- 33 -->
<g id="node34" class="node"><title>33</title>
<g id="a_node34"><a xlink:title="33, diversity: 1, multiplicities: 1, labels: 0">
<ellipse fill="#f7fcf5" stroke="black" cx="526.047" cy="-738" rx="41.6928" ry="18"/>
<text text-anchor="middle" x="526.047" y="-734.3" font-family="Times,serif" font-size="14.00">33 (1): 0</text>
</a>
</g>
</g>
<!-- 33&#45;&gt;15 -->
<g id="edge14" class="edge"><title>33&#45;&gt;15</title>
<path fill="none" stroke="black" d="M512.826,-720.765C505.632,-711.93 496.594,-700.83 488.601,-691.014"/>
<polygon fill="black" stroke="black" points="491.224,-688.692 482.195,-683.147 485.796,-693.112 491.224,-688.692"/>
</g>
<!-- 34 -->
<g id="node35" class="node"><title>34</title>
<g id="a_node35"><a xlink:title="34, diversity: 1, multiplicities: 1, labels: 0">
<ellipse fill="#f7fcf5" stroke="black" cx="583.047" cy="-666" rx="41.6928" ry="18"/>
<text text-anchor="middle" x="583.047" y="-662.3" font-family="Times,serif" font-size="14.00">34 (1): 0</text>
</a>
</g>
</g>
<!-- 33&#45;&gt;34 -->
<g id="edge29" class="edge"><title>33&#45;&gt;34</title>
<path fill="none" stroke="black" d="M539.267,-720.765C546.461,-711.93 555.499,-700.83 563.493,-691.014"/>
<polygon fill="black" stroke="black" points="566.298,-693.112 569.898,-683.147 560.87,-688.692 566.298,-693.112"/>
</g>
<!-- 34&#45;&gt;0 -->
<g id="edge30" class="edge"><title>34&#45;&gt;0</title>
<path fill="none" stroke="black" d="M594.896,-648.411C600.998,-639.868 608.562,-629.278 615.341,-619.787"/>
<polygon fill="black" stroke="black" points="618.318,-621.642 621.282,-611.47 612.622,-617.573 618.318,-621.642"/>
</g>
</g>
</svg>
