<?xml version="1.0" encoding="UTF-8" standalone="no"?>
<!DOCTYPE svg PUBLIC "-//W3C//DTD SVG 1.1//EN"
 "http://www.w3.org/Graphics/SVG/1.1/DTD/svg11.dtd">
<!-- Generated by graphviz version 2.38.0 (20140413.2041)
 -->
<!-- Title: %3 Pages: 1 -->
<svg width="423pt" height="404pt"
 viewBox="0.00 0.00 422.64 404.00" xmlns="http://www.w3.org/2000/svg" xmlns:xlink="http://www.w3.org/1999/xlink">
<g id="graph0" class="graph" transform="scale(1 1) rotate(0) translate(4 400)">
<title>%3</title>
<polygon fill="white" stroke="none" points="-4,4 -4,-400 418.643,-400 418.643,4 -4,4"/>
<!-- 0 -->
<g id="node1" class="node"><title>0</title>
<g id="a_node1"><a xlink:title="0, diversity: 1, multiplicities: 117, labels: 0">
<ellipse fill="#f7fcf5" stroke="black" cx="37.0467" cy="-162" rx="37.0935" ry="18"/>
<text text-anchor="middle" x="37.0467" y="-158.3" font-family="Times,serif" font-size="14.00">0 (1): 0</text>
</a>
</g>
</g>
<!-- 4 -->
<g id="node5" class="node"><title>4</title>
<g id="a_node5"><a xlink:title="4, diversity: 1, multiplicities: 131, labels: 0">
<ellipse fill="#f7fcf5" stroke="black" cx="37.0467" cy="-90" rx="37.0935" ry="18"/>
<text text-anchor="middle" x="37.0467" y="-86.3" font-family="Times,serif" font-size="14.00">4 (1): 0</text>
</a>
</g>
</g>
<!-- 0&#45;&gt;4 -->
<g id="edge11" class="edge"><title>0&#45;&gt;4</title>
<path fill="none" stroke="black" d="M37.0467,-143.697C37.0467,-135.983 37.0467,-126.712 37.0467,-118.112"/>
<polygon fill="black" stroke="black" points="40.5468,-118.104 37.0467,-108.104 33.5468,-118.104 40.5468,-118.104"/>
</g>
<!-- 1 -->
<g id="node2" class="node"><title>1</title>
<g id="a_node2"><a xlink:title="1, diversity: 1, multiplicities: 253, labels: 0">
<ellipse fill="#f7fcf5" stroke="black" cx="129.047" cy="-162" rx="37.0935" ry="18"/>
<text text-anchor="middle" x="129.047" y="-158.3" font-family="Times,serif" font-size="14.00">1 (1): 0</text>
</a>
</g>
</g>
<!-- 2 -->
<g id="node3" class="node"><title>2</title>
<g id="a_node3"><a xlink:title="2, diversity: 2, multiplicities: 2,62, labels: 0">
<ellipse fill="#f7fcf5" stroke="black" cx="175.047" cy="-306" rx="37.0935" ry="18"/>
<text text-anchor="middle" x="175.047" y="-302.3" font-family="Times,serif" font-size="14.00">2 (2): 0</text>
</a>
</g>
</g>
<!-- 6 -->
<g id="node7" class="node"><title>6</title>
<g id="a_node7"><a xlink:title="6, diversity: 1, multiplicities: 6, labels: 0">
<ellipse fill="#f7fcf5" stroke="black" cx="83.0467" cy="-234" rx="37.0935" ry="18"/>
<text text-anchor="middle" x="83.0467" y="-230.3" font-family="Times,serif" font-size="14.00">6 (1): 0</text>
</a>
</g>
</g>
<!-- 2&#45;&gt;6 -->
<g id="edge3" class="edge"><title>2&#45;&gt;6</title>
<path fill="none" stroke="black" d="M155.984,-290.496C142.785,-280.453 125.018,-266.934 110.324,-255.754"/>
<polygon fill="black" stroke="black" points="112.162,-252.755 102.085,-249.485 107.924,-258.326 112.162,-252.755"/>
</g>
<!-- 7 -->
<g id="node8" class="node"><title>7</title>
<g id="a_node8"><a xlink:title="7, diversity: 1, multiplicities: 14, labels: 0">
<ellipse fill="#f7fcf5" stroke="black" cx="175.047" cy="-234" rx="37.0935" ry="18"/>
<text text-anchor="middle" x="175.047" y="-230.3" font-family="Times,serif" font-size="14.00">7 (1): 0</text>
</a>
</g>
</g>
<!-- 2&#45;&gt;7 -->
<g id="edge1" class="edge"><title>2&#45;&gt;7</title>
<path fill="none" stroke="black" d="M175.047,-287.697C175.047,-279.983 175.047,-270.712 175.047,-262.112"/>
<polygon fill="black" stroke="black" points="178.547,-262.104 175.047,-252.104 171.547,-262.104 178.547,-262.104"/>
</g>
<!-- 9 -->
<g id="node10" class="node"><title>9</title>
<g id="a_node10"><a xlink:title="9, diversity: 1, multiplicities: 1, labels: 0">
<ellipse fill="#f7fcf5" stroke="black" cx="267.047" cy="-234" rx="37.0935" ry="18"/>
<text text-anchor="middle" x="267.047" y="-230.3" font-family="Times,serif" font-size="14.00">9 (1): 0</text>
</a>
</g>
</g>
<!-- 2&#45;&gt;9 -->
<g id="edge5" class="edge"><title>2&#45;&gt;9</title>
<path fill="none" stroke="black" d="M194.109,-290.496C207.308,-280.453 225.076,-266.934 239.77,-255.754"/>
<polygon fill="black" stroke="black" points="242.17,-258.326 248.009,-249.485 237.931,-252.755 242.17,-258.326"/>
</g>
<!-- 3 -->
<g id="node4" class="node"><title>3</title>
<g id="a_node4"><a xlink:title="3, diversity: 3, multiplicities: 9,9,193, labels: 0">
<ellipse fill="#f7fcf5" stroke="black" cx="272.047" cy="-378" rx="37.0935" ry="18"/>
<text text-anchor="middle" x="272.047" y="-374.3" font-family="Times,serif" font-size="14.00">3 (3): 0</text>
</a>
</g>
</g>
<!-- 3&#45;&gt;2 -->
<g id="edge2" class="edge"><title>3&#45;&gt;2</title>
<path fill="none" stroke="black" d="M251.948,-362.496C237.808,-352.292 218.695,-338.499 203.061,-327.217"/>
<polygon fill="black" stroke="black" points="204.945,-324.26 194.788,-321.246 200.848,-329.936 204.945,-324.26"/>
</g>
<!-- 10 -->
<g id="node11" class="node"><title>10</title>
<g id="a_node11"><a xlink:title="10, diversity: 1, multiplicities: 87, labels: 0">
<ellipse fill="#f7fcf5" stroke="black" cx="272.047" cy="-306" rx="41.6928" ry="18"/>
<text text-anchor="middle" x="272.047" y="-302.3" font-family="Times,serif" font-size="14.00">10 (1): 0</text>
</a>
</g>
</g>
<!-- 3&#45;&gt;10 -->
<g id="edge12" class="edge"><title>3&#45;&gt;10</title>
<path fill="none" stroke="black" d="M272.047,-359.697C272.047,-351.983 272.047,-342.712 272.047,-334.112"/>
<polygon fill="black" stroke="black" points="275.547,-334.104 272.047,-324.104 268.547,-334.104 275.547,-334.104"/>
</g>
<!-- 14 -->
<g id="node15" class="node"><title>14</title>
<g id="a_node15"><a xlink:title="14, diversity: 1, multiplicities: 1, labels: 0">
<ellipse fill="#f7fcf5" stroke="black" cx="373.047" cy="-306" rx="41.6928" ry="18"/>
<text text-anchor="middle" x="373.047" y="-302.3" font-family="Times,serif" font-size="14.00">14 (1): 0</text>
</a>
</g>
</g>
<!-- 3&#45;&gt;14 -->
<g id="edge15" class="edge"><title>3&#45;&gt;14</title>
<path fill="none" stroke="black" d="M292.486,-362.834C307.076,-352.722 326.93,-338.962 343.278,-327.632"/>
<polygon fill="black" stroke="black" points="345.718,-330.199 351.943,-321.626 341.73,-324.446 345.718,-330.199"/>
</g>
<!-- 5 -->
<g id="node6" class="node"><title>5</title>
<g id="a_node6"><a xlink:title="5, diversity: 1, multiplicities: 9, labels: 0">
<ellipse fill="#f7fcf5" stroke="black" cx="37.0467" cy="-18" rx="37.0935" ry="18"/>
<text text-anchor="middle" x="37.0467" y="-14.3" font-family="Times,serif" font-size="14.00">5 (1): 0</text>
</a>
</g>
</g>
<!-- 4&#45;&gt;5 -->
<g id="edge6" class="edge"><title>4&#45;&gt;5</title>
<path fill="none" stroke="black" d="M37.0467,-71.6966C37.0467,-63.9827 37.0467,-54.7125 37.0467,-46.1124"/>
<polygon fill="black" stroke="black" points="40.5468,-46.1043 37.0467,-36.1043 33.5468,-46.1044 40.5468,-46.1043"/>
</g>
<!-- 6&#45;&gt;0 -->
<g id="edge8" class="edge"><title>6&#45;&gt;0</title>
<path fill="none" stroke="black" d="M72.1454,-216.411C66.5885,-207.955 59.7144,-197.494 53.5267,-188.078"/>
<polygon fill="black" stroke="black" points="56.2866,-185.905 47.8698,-179.47 50.4367,-189.749 56.2866,-185.905"/>
</g>
<!-- 6&#45;&gt;1 -->
<g id="edge7" class="edge"><title>6&#45;&gt;1</title>
<path fill="none" stroke="black" d="M93.9481,-216.411C99.5049,-207.955 106.379,-197.494 112.567,-188.078"/>
<polygon fill="black" stroke="black" points="115.657,-189.749 118.224,-179.47 109.807,-185.905 115.657,-189.749"/>
</g>
<!-- 8 -->
<g id="node9" class="node"><title>8</title>
<g id="a_node9"><a xlink:title="8, diversity: 1, multiplicities: 2, labels: 0">
<ellipse fill="#f7fcf5" stroke="black" cx="267.047" cy="-162" rx="37.0935" ry="18"/>
<text text-anchor="middle" x="267.047" y="-158.3" font-family="Times,serif" font-size="14.00">8 (1): 0</text>
</a>
</g>
</g>
<!-- 13 -->
<g id="node14" class="node"><title>13</title>
<g id="a_node14"><a xlink:title="13, diversity: 2, multiplicities: 6,65, labels: 0">
<ellipse fill="#f7fcf5" stroke="black" cx="267.047" cy="-90" rx="41.6928" ry="18"/>
<text text-anchor="middle" x="267.047" y="-86.3" font-family="Times,serif" font-size="14.00">13 (2): 0</text>
</a>
</g>
</g>
<!-- 8&#45;&gt;13 -->
<g id="edge4" class="edge"><title>8&#45;&gt;13</title>
<path fill="none" stroke="black" d="M267.047,-143.697C267.047,-135.983 267.047,-126.712 267.047,-118.112"/>
<polygon fill="black" stroke="black" points="270.547,-118.104 267.047,-108.104 263.547,-118.104 270.547,-118.104"/>
</g>
<!-- 9&#45;&gt;8 -->
<g id="edge14" class="edge"><title>9&#45;&gt;8</title>
<path fill="none" stroke="black" d="M267.047,-215.697C267.047,-207.983 267.047,-198.712 267.047,-190.112"/>
<polygon fill="black" stroke="black" points="270.547,-190.104 267.047,-180.104 263.547,-190.104 270.547,-190.104"/>
</g>
<!-- 11 -->
<g id="node12" class="node"><title>11</title>
<g id="a_node12"><a xlink:title="11, diversity: 2, multiplicities: 1,138, labels: 0">
<ellipse fill="#f7fcf5" stroke="black" cx="373.047" cy="-162" rx="41.6928" ry="18"/>
<text text-anchor="middle" x="373.047" y="-158.3" font-family="Times,serif" font-size="14.00">11 (2): 0</text>
</a>
</g>
</g>
<!-- 12 -->
<g id="node13" class="node"><title>12</title>
<g id="a_node13"><a xlink:title="12, diversity: 1, multiplicities: 8, labels: 0">
<ellipse fill="#f7fcf5" stroke="black" cx="373.047" cy="-90" rx="41.6928" ry="18"/>
<text text-anchor="middle" x="373.047" y="-86.3" font-family="Times,serif" font-size="14.00">12 (1): 0</text>
</a>
</g>
</g>
<!-- 11&#45;&gt;12 -->
<g id="edge13" class="edge"><title>11&#45;&gt;12</title>
<path fill="none" stroke="black" d="M373.047,-143.697C373.047,-135.983 373.047,-126.712 373.047,-118.112"/>
<polygon fill="black" stroke="black" points="376.547,-118.104 373.047,-108.104 369.547,-118.104 376.547,-118.104"/>
</g>
<!-- 15 -->
<g id="node16" class="node"><title>15</title>
<g id="a_node16"><a xlink:title="15, diversity: 1, multiplicities: 1, labels: 0">
<ellipse fill="#f7fcf5" stroke="black" cx="373.047" cy="-234" rx="41.6928" ry="18"/>
<text text-anchor="middle" x="373.047" y="-230.3" font-family="Times,serif" font-size="14.00">15 (1): 0</text>
</a>
</g>
</g>
<!-- 14&#45;&gt;15 -->
<g id="edge10" class="edge"><title>14&#45;&gt;15</title>
<path fill="none" stroke="black" d="M373.047,-287.697C373.047,-279.983 373.047,-270.712 373.047,-262.112"/>
<polygon fill="black" stroke="black" points="376.547,-262.104 373.047,-252.104 369.547,-262.104 376.547,-262.104"/>
</g>
<!-- 15&#45;&gt;11 -->
<g id="edge9" class="edge"><title>15&#45;&gt;11</title>
<path fill="none" stroke="black" d="M373.047,-215.697C373.047,-207.983 373.047,-198.712 373.047,-190.112"/>
<polygon fill="black" stroke="black" points="376.547,-190.104 373.047,-180.104 369.547,-190.104 376.547,-190.104"/>
</g>
</g>
</svg>
