<?xml version="1.0" encoding="UTF-8" standalone="no"?>
<!DOCTYPE svg PUBLIC "-//W3C//DTD SVG 1.1//EN"
 "http://www.w3.org/Graphics/SVG/1.1/DTD/svg11.dtd">
<!-- Generated by graphviz version 2.38.0 (20140413.2041)
 -->
<!-- Title: %3 Pages: 1 -->
<svg width="534pt" height="764pt"
 viewBox="0.00 0.00 533.64 764.00" xmlns="http://www.w3.org/2000/svg" xmlns:xlink="http://www.w3.org/1999/xlink">
<g id="graph0" class="graph" transform="scale(1 1) rotate(0) translate(4 760)">
<title>%3</title>
<polygon fill="white" stroke="none" points="-4,4 -4,-760 529.643,-760 529.643,4 -4,4"/>
<!-- 0 -->
<g id="node1" class="node"><title>0</title>
<g id="a_node1"><a xlink:title="0, diversity: 1, multiplicities: 314, labels: 0">
<ellipse fill="#f7fcf5" stroke="black" cx="335.047" cy="-162" rx="37.0935" ry="18"/>
<text text-anchor="middle" x="335.047" y="-158.3" font-family="Times,serif" font-size="14.00">0 (1): 0</text>
</a>
</g>
</g>
<!-- 21 -->
<g id="node22" class="node"><title>21</title>
<g id="a_node22"><a xlink:title="21, diversity: 1, multiplicities: 1, labels: 0">
<ellipse fill="#f7fcf5" stroke="black" cx="335.047" cy="-90" rx="41.6928" ry="18"/>
<text text-anchor="middle" x="335.047" y="-86.3" font-family="Times,serif" font-size="14.00">21 (1): 0</text>
</a>
</g>
</g>
<!-- 0&#45;&gt;21 -->
<g id="edge7" class="edge"><title>0&#45;&gt;21</title>
<path fill="none" stroke="black" d="M335.047,-143.697C335.047,-135.983 335.047,-126.712 335.047,-118.112"/>
<polygon fill="black" stroke="black" points="338.547,-118.104 335.047,-108.104 331.547,-118.104 338.547,-118.104"/>
</g>
<!-- 1 -->
<g id="node2" class="node"><title>1</title>
<g id="a_node2"><a xlink:title="1, diversity: 1, multiplicities: 90, labels: 0">
<ellipse fill="#f7fcf5" stroke="black" cx="334.047" cy="-738" rx="37.0935" ry="18"/>
<text text-anchor="middle" x="334.047" y="-734.3" font-family="Times,serif" font-size="14.00">1 (1): 0</text>
</a>
</g>
</g>
<!-- 7 -->
<g id="node8" class="node"><title>7</title>
<g id="a_node8"><a xlink:title="7, diversity: 1, multiplicities: 83, labels: 0">
<ellipse fill="#f7fcf5" stroke="black" cx="185.047" cy="-666" rx="37.0935" ry="18"/>
<text text-anchor="middle" x="185.047" y="-662.3" font-family="Times,serif" font-size="14.00">7 (1): 0</text>
</a>
</g>
</g>
<!-- 1&#45;&gt;7 -->
<g id="edge22" class="edge"><title>1&#45;&gt;7</title>
<path fill="none" stroke="black" d="M308.433,-724.967C284.02,-713.497 247.067,-696.137 219.964,-683.404"/>
<polygon fill="black" stroke="black" points="221.364,-680.195 210.825,-679.111 218.388,-686.531 221.364,-680.195"/>
</g>
<!-- 9 -->
<g id="node10" class="node"><title>9</title>
<g id="a_node10"><a xlink:title="9, diversity: 3, multiplicities: 1,2,63, labels: 0">
<ellipse fill="#f7fcf5" stroke="black" cx="286.047" cy="-666" rx="37.0935" ry="18"/>
<text text-anchor="middle" x="286.047" y="-662.3" font-family="Times,serif" font-size="14.00">9 (3): 0</text>
</a>
</g>
</g>
<!-- 1&#45;&gt;9 -->
<g id="edge16" class="edge"><title>1&#45;&gt;9</title>
<path fill="none" stroke="black" d="M322.914,-720.765C317.062,-712.23 309.76,-701.582 303.203,-692.019"/>
<polygon fill="black" stroke="black" points="305.994,-689.901 297.452,-683.633 300.221,-693.86 305.994,-689.901"/>
</g>
<!-- 17 -->
<g id="node18" class="node"><title>17</title>
<g id="a_node18"><a xlink:title="17, diversity: 1, multiplicities: 29, labels: 0">
<ellipse fill="#f7fcf5" stroke="black" cx="383.047" cy="-666" rx="41.6928" ry="18"/>
<text text-anchor="middle" x="383.047" y="-662.3" font-family="Times,serif" font-size="14.00">17 (1): 0</text>
</a>
</g>
</g>
<!-- 1&#45;&gt;17 -->
<g id="edge13" class="edge"><title>1&#45;&gt;17</title>
<path fill="none" stroke="black" d="M345.411,-720.765C351.386,-712.23 358.839,-701.582 365.533,-692.019"/>
<polygon fill="black" stroke="black" points="368.536,-693.833 371.403,-683.633 362.801,-689.819 368.536,-693.833"/>
</g>
<!-- 20 -->
<g id="node21" class="node"><title>20</title>
<g id="a_node21"><a xlink:title="20, diversity: 1, multiplicities: 10, labels: 0">
<ellipse fill="#f7fcf5" stroke="black" cx="484.047" cy="-666" rx="41.6928" ry="18"/>
<text text-anchor="middle" x="484.047" y="-662.3" font-family="Times,serif" font-size="14.00">20 (1): 0</text>
</a>
</g>
</g>
<!-- 1&#45;&gt;20 -->
<g id="edge6" class="edge"><title>1&#45;&gt;20</title>
<path fill="none" stroke="black" d="M359.833,-724.967C384.035,-713.672 420.479,-696.665 447.64,-683.99"/>
<polygon fill="black" stroke="black" points="449.243,-687.104 456.825,-679.703 446.283,-680.761 449.243,-687.104"/>
</g>
<!-- 2 -->
<g id="node3" class="node"><title>2</title>
<g id="a_node3"><a xlink:title="2, diversity: 2, multiplicities: 1,108, labels: 0">
<ellipse fill="#f7fcf5" stroke="black" cx="484.047" cy="-594" rx="37.0935" ry="18"/>
<text text-anchor="middle" x="484.047" y="-590.3" font-family="Times,serif" font-size="14.00">2 (2): 0</text>
</a>
</g>
</g>
<!-- 4 -->
<g id="node5" class="node"><title>4</title>
<g id="a_node5"><a xlink:title="4, diversity: 2, multiplicities: 1,556, labels: 0">
<ellipse fill="#f7fcf5" stroke="black" cx="484.047" cy="-522" rx="37.0935" ry="18"/>
<text text-anchor="middle" x="484.047" y="-518.3" font-family="Times,serif" font-size="14.00">4 (2): 0</text>
</a>
</g>
</g>
<!-- 2&#45;&gt;4 -->
<g id="edge24" class="edge"><title>2&#45;&gt;4</title>
<path fill="none" stroke="black" d="M484.047,-575.697C484.047,-567.983 484.047,-558.712 484.047,-550.112"/>
<polygon fill="black" stroke="black" points="487.547,-550.104 484.047,-540.104 480.547,-550.104 487.547,-550.104"/>
</g>
<!-- 3 -->
<g id="node4" class="node"><title>3</title>
<g id="a_node4"><a xlink:title="3, diversity: 2, multiplicities: 1,168, labels: 0">
<ellipse fill="#f7fcf5" stroke="black" cx="335.047" cy="-18" rx="37.0935" ry="18"/>
<text text-anchor="middle" x="335.047" y="-14.3" font-family="Times,serif" font-size="14.00">3 (2): 0</text>
</a>
</g>
</g>
<!-- 5 -->
<g id="node6" class="node"><title>5</title>
<g id="a_node6"><a xlink:title="5, diversity: 3, multiplicities: 1,62,81, labels: 0">
<ellipse fill="#f7fcf5" stroke="black" cx="235.047" cy="-522" rx="37.0935" ry="18"/>
<text text-anchor="middle" x="235.047" y="-518.3" font-family="Times,serif" font-size="14.00">5 (3): 0</text>
</a>
</g>
</g>
<!-- 13 -->
<g id="node14" class="node"><title>13</title>
<g id="a_node14"><a xlink:title="13, diversity: 1, multiplicities: 60, labels: 0">
<ellipse fill="#f7fcf5" stroke="black" cx="234.047" cy="-450" rx="41.6928" ry="18"/>
<text text-anchor="middle" x="234.047" y="-446.3" font-family="Times,serif" font-size="14.00">13 (1): 0</text>
</a>
</g>
</g>
<!-- 5&#45;&gt;13 -->
<g id="edge3" class="edge"><title>5&#45;&gt;13</title>
<path fill="none" stroke="black" d="M234.8,-503.697C234.689,-495.983 234.557,-486.712 234.434,-478.112"/>
<polygon fill="black" stroke="black" points="237.934,-478.053 234.291,-468.104 230.934,-478.153 237.934,-478.053"/>
</g>
<!-- 6 -->
<g id="node7" class="node"><title>6</title>
<g id="a_node7"><a xlink:title="6, diversity: 1, multiplicities: 42, labels: 0">
<ellipse fill="#f7fcf5" stroke="black" cx="234.047" cy="-378" rx="37.0935" ry="18"/>
<text text-anchor="middle" x="234.047" y="-374.3" font-family="Times,serif" font-size="14.00">6 (1): 0</text>
</a>
</g>
</g>
<!-- 10 -->
<g id="node11" class="node"><title>10</title>
<g id="a_node11"><a xlink:title="10, diversity: 2, multiplicities: 5,6, labels: 0">
<ellipse fill="#f7fcf5" stroke="black" cx="234.047" cy="-306" rx="41.6928" ry="18"/>
<text text-anchor="middle" x="234.047" y="-302.3" font-family="Times,serif" font-size="14.00">10 (2): 0</text>
</a>
</g>
</g>
<!-- 6&#45;&gt;10 -->
<g id="edge9" class="edge"><title>6&#45;&gt;10</title>
<path fill="none" stroke="black" d="M234.047,-359.697C234.047,-351.983 234.047,-342.712 234.047,-334.112"/>
<polygon fill="black" stroke="black" points="237.547,-334.104 234.047,-324.104 230.547,-334.104 237.547,-334.104"/>
</g>
<!-- 11 -->
<g id="node12" class="node"><title>11</title>
<g id="a_node12"><a xlink:title="11, diversity: 1, multiplicities: 6, labels: 0">
<ellipse fill="#f7fcf5" stroke="black" cx="84.0467" cy="-594" rx="41.6928" ry="18"/>
<text text-anchor="middle" x="84.0467" y="-590.3" font-family="Times,serif" font-size="14.00">11 (1): 0</text>
</a>
</g>
</g>
<!-- 7&#45;&gt;11 -->
<g id="edge5" class="edge"><title>7&#45;&gt;11</title>
<path fill="none" stroke="black" d="M164.608,-650.834C150.017,-640.722 130.163,-626.962 113.816,-615.632"/>
<polygon fill="black" stroke="black" points="115.363,-612.446 105.15,-609.626 111.376,-618.199 115.363,-612.446"/>
</g>
<!-- 12 -->
<g id="node13" class="node"><title>12</title>
<g id="a_node13"><a xlink:title="12, diversity: 1, multiplicities: 5, labels: 0">
<ellipse fill="#f7fcf5" stroke="black" cx="185.047" cy="-594" rx="41.6928" ry="18"/>
<text text-anchor="middle" x="185.047" y="-590.3" font-family="Times,serif" font-size="14.00">12 (1): 0</text>
</a>
</g>
</g>
<!-- 7&#45;&gt;12 -->
<g id="edge2" class="edge"><title>7&#45;&gt;12</title>
<path fill="none" stroke="black" d="M185.047,-647.697C185.047,-639.983 185.047,-630.712 185.047,-622.112"/>
<polygon fill="black" stroke="black" points="188.547,-622.104 185.047,-612.104 181.547,-622.104 188.547,-622.104"/>
</g>
<!-- 8 -->
<g id="node9" class="node"><title>8</title>
<g id="a_node9"><a xlink:title="8, diversity: 1, multiplicities: 63, labels: 0">
<ellipse fill="#f7fcf5" stroke="black" cx="37.0467" cy="-522" rx="37.0935" ry="18"/>
<text text-anchor="middle" x="37.0467" y="-518.3" font-family="Times,serif" font-size="14.00">8 (1): 0</text>
</a>
</g>
</g>
<!-- 14 -->
<g id="node15" class="node"><title>14</title>
<g id="a_node15"><a xlink:title="14, diversity: 3, multiplicities: 1,1,128, labels: 0">
<ellipse fill="#f7fcf5" stroke="black" cx="286.047" cy="-594" rx="41.6928" ry="18"/>
<text text-anchor="middle" x="286.047" y="-590.3" font-family="Times,serif" font-size="14.00">14 (3): 0</text>
</a>
</g>
</g>
<!-- 9&#45;&gt;14 -->
<g id="edge12" class="edge"><title>9&#45;&gt;14</title>
<path fill="none" stroke="black" d="M286.047,-647.697C286.047,-639.983 286.047,-630.712 286.047,-622.112"/>
<polygon fill="black" stroke="black" points="289.547,-622.104 286.047,-612.104 282.547,-622.104 289.547,-622.104"/>
</g>
<!-- 16 -->
<g id="node17" class="node"><title>16</title>
<g id="a_node17"><a xlink:title="16, diversity: 1, multiplicities: 6, labels: 0">
<ellipse fill="#f7fcf5" stroke="black" cx="387.047" cy="-594" rx="41.6928" ry="18"/>
<text text-anchor="middle" x="387.047" y="-590.3" font-family="Times,serif" font-size="14.00">16 (1): 0</text>
</a>
</g>
</g>
<!-- 9&#45;&gt;16 -->
<g id="edge15" class="edge"><title>9&#45;&gt;16</title>
<path fill="none" stroke="black" d="M306.486,-650.834C321.076,-640.722 340.93,-626.962 357.278,-615.632"/>
<polygon fill="black" stroke="black" points="359.718,-618.199 365.943,-609.626 355.73,-612.446 359.718,-618.199"/>
</g>
<!-- 11&#45;&gt;8 -->
<g id="edge18" class="edge"><title>11&#45;&gt;8</title>
<path fill="none" stroke="black" d="M72.9084,-576.411C67.1722,-567.868 60.0623,-557.278 53.6897,-547.787"/>
<polygon fill="black" stroke="black" points="56.5853,-545.821 48.1051,-539.47 50.7737,-549.723 56.5853,-545.821"/>
</g>
<!-- 15 -->
<g id="node16" class="node"><title>15</title>
<g id="a_node16"><a xlink:title="15, diversity: 1, multiplicities: 18, labels: 0">
<ellipse fill="#f7fcf5" stroke="black" cx="134.047" cy="-522" rx="41.6928" ry="18"/>
<text text-anchor="middle" x="134.047" y="-518.3" font-family="Times,serif" font-size="14.00">15 (1): 0</text>
</a>
</g>
</g>
<!-- 11&#45;&gt;15 -->
<g id="edge23" class="edge"><title>11&#45;&gt;15</title>
<path fill="none" stroke="black" d="M95.896,-576.411C101.998,-567.868 109.562,-557.278 116.341,-547.787"/>
<polygon fill="black" stroke="black" points="119.318,-549.642 122.282,-539.47 113.622,-545.573 119.318,-549.642"/>
</g>
<!-- 13&#45;&gt;6 -->
<g id="edge14" class="edge"><title>13&#45;&gt;6</title>
<path fill="none" stroke="black" d="M234.047,-431.697C234.047,-423.983 234.047,-414.712 234.047,-406.112"/>
<polygon fill="black" stroke="black" points="237.547,-406.104 234.047,-396.104 230.547,-406.104 237.547,-406.104"/>
</g>
<!-- 14&#45;&gt;5 -->
<g id="edge8" class="edge"><title>14&#45;&gt;5</title>
<path fill="none" stroke="black" d="M273.96,-576.411C267.736,-567.868 260.021,-557.278 253.106,-547.787"/>
<polygon fill="black" stroke="black" points="255.764,-545.491 247.046,-539.47 250.106,-549.613 255.764,-545.491"/>
</g>
<!-- 23 -->
<g id="node24" class="node"><title>23</title>
<g id="a_node24"><a xlink:title="23, diversity: 1, multiplicities: 1, labels: 0">
<ellipse fill="#f7fcf5" stroke="black" cx="334.047" cy="-522" rx="41.6928" ry="18"/>
<text text-anchor="middle" x="334.047" y="-518.3" font-family="Times,serif" font-size="14.00">23 (1): 0</text>
</a>
</g>
</g>
<!-- 14&#45;&gt;23 -->
<g id="edge10" class="edge"><title>14&#45;&gt;23</title>
<path fill="none" stroke="black" d="M297.422,-576.411C303.28,-567.868 310.541,-557.278 317.05,-547.787"/>
<polygon fill="black" stroke="black" points="319.984,-549.697 322.753,-539.47 314.211,-545.738 319.984,-549.697"/>
</g>
<!-- 18 -->
<g id="node19" class="node"><title>18</title>
<g id="a_node19"><a xlink:title="18, diversity: 1, multiplicities: 1, labels: 0">
<ellipse fill="#f7fcf5" stroke="black" cx="335.047" cy="-234" rx="41.6928" ry="18"/>
<text text-anchor="middle" x="335.047" y="-230.3" font-family="Times,serif" font-size="14.00">18 (1): 0</text>
</a>
</g>
</g>
<!-- 18&#45;&gt;0 -->
<g id="edge1" class="edge"><title>18&#45;&gt;0</title>
<path fill="none" stroke="black" d="M335.047,-215.697C335.047,-207.983 335.047,-198.712 335.047,-190.112"/>
<polygon fill="black" stroke="black" points="338.547,-190.104 335.047,-180.104 331.547,-190.104 338.547,-190.104"/>
</g>
<!-- 19 -->
<g id="node20" class="node"><title>19</title>
<g id="a_node20"><a xlink:title="19, diversity: 1, multiplicities: 1, labels: 0">
<ellipse fill="#f7fcf5" stroke="black" cx="335.047" cy="-378" rx="41.6928" ry="18"/>
<text text-anchor="middle" x="335.047" y="-374.3" font-family="Times,serif" font-size="14.00">19 (1): 0</text>
</a>
</g>
</g>
<!-- 22 -->
<g id="node23" class="node"><title>22</title>
<g id="a_node23"><a xlink:title="22, diversity: 1, multiplicities: 1, labels: 0">
<ellipse fill="#f7fcf5" stroke="black" cx="335.047" cy="-306" rx="41.6928" ry="18"/>
<text text-anchor="middle" x="335.047" y="-302.3" font-family="Times,serif" font-size="14.00">22 (1): 0</text>
</a>
</g>
</g>
<!-- 19&#45;&gt;22 -->
<g id="edge4" class="edge"><title>19&#45;&gt;22</title>
<path fill="none" stroke="black" d="M335.047,-359.697C335.047,-351.983 335.047,-342.712 335.047,-334.112"/>
<polygon fill="black" stroke="black" points="338.547,-334.104 335.047,-324.104 331.547,-334.104 338.547,-334.104"/>
</g>
<!-- 20&#45;&gt;2 -->
<g id="edge19" class="edge"><title>20&#45;&gt;2</title>
<path fill="none" stroke="black" d="M484.047,-647.697C484.047,-639.983 484.047,-630.712 484.047,-622.112"/>
<polygon fill="black" stroke="black" points="487.547,-622.104 484.047,-612.104 480.547,-622.104 487.547,-622.104"/>
</g>
<!-- 21&#45;&gt;3 -->
<g id="edge20" class="edge"><title>21&#45;&gt;3</title>
<path fill="none" stroke="black" d="M335.047,-71.6966C335.047,-63.9827 335.047,-54.7125 335.047,-46.1124"/>
<polygon fill="black" stroke="black" points="338.547,-46.1043 335.047,-36.1043 331.547,-46.1044 338.547,-46.1043"/>
</g>
<!-- 22&#45;&gt;18 -->
<g id="edge21" class="edge"><title>22&#45;&gt;18</title>
<path fill="none" stroke="black" d="M335.047,-287.697C335.047,-279.983 335.047,-270.712 335.047,-262.112"/>
<polygon fill="black" stroke="black" points="338.547,-262.104 335.047,-252.104 331.547,-262.104 338.547,-262.104"/>
</g>
<!-- 24 -->
<g id="node25" class="node"><title>24</title>
<g id="a_node25"><a xlink:title="24, diversity: 1, multiplicities: 1, labels: 0">
<ellipse fill="#f7fcf5" stroke="black" cx="335.047" cy="-450" rx="41.6928" ry="18"/>
<text text-anchor="middle" x="335.047" y="-446.3" font-family="Times,serif" font-size="14.00">24 (1): 0</text>
</a>
</g>
</g>
<!-- 23&#45;&gt;24 -->
<g id="edge17" class="edge"><title>23&#45;&gt;24</title>
<path fill="none" stroke="black" d="M334.294,-503.697C334.404,-495.983 334.537,-486.712 334.659,-478.112"/>
<polygon fill="black" stroke="black" points="338.159,-478.153 334.802,-468.104 331.16,-478.053 338.159,-478.153"/>
</g>
<!-- 24&#45;&gt;19 -->
<g id="edge11" class="edge"><title>24&#45;&gt;19</title>
<path fill="none" stroke="black" d="M335.047,-431.697C335.047,-423.983 335.047,-414.712 335.047,-406.112"/>
<polygon fill="black" stroke="black" points="338.547,-406.104 335.047,-396.104 331.547,-406.104 338.547,-406.104"/>
</g>
</g>
</svg>
