<?xml version="1.0" encoding="UTF-8" standalone="no"?>
<!DOCTYPE svg PUBLIC "-//W3C//DTD SVG 1.1//EN"
 "http://www.w3.org/Graphics/SVG/1.1/DTD/svg11.dtd">
<!-- Generated by graphviz version 2.38.0 (20140413.2041)
 -->
<!-- Title: %3 Pages: 1 -->
<svg width="366pt" height="116pt"
 viewBox="0.00 0.00 366.00 116.00" xmlns="http://www.w3.org/2000/svg" xmlns:xlink="http://www.w3.org/1999/xlink">
<g id="graph0" class="graph" transform="scale(1 1) rotate(0) translate(4 112)">
<title>%3</title>
<polygon fill="white" stroke="none" points="-4,4 -4,-112 362,-112 362,4 -4,4"/>
<!-- v0 -->
<g id="node1" class="node"><title>v0</title>
<ellipse fill="none" stroke="black" cx="176.5" cy="-90" rx="27" ry="18"/>
<text text-anchor="middle" x="176.5" y="-86.3" font-family="Times,serif" font-size="14.00">0</text>
</g>
<!-- p0 -->
<g id="node2" class="node"><title>p0</title>
<path fill="none" stroke="black" d="M47,-36C47,-36 12,-36 12,-36 6,-36 0,-30 0,-24 0,-24 0,-12 0,-12 0,-6 6,-0 12,-0 12,-0 47,-0 47,-0 53,-0 59,-6 59,-12 59,-12 59,-24 59,-24 59,-30 53,-36 47,-36"/>
<text text-anchor="middle" x="29.5" y="-14.3" font-family="Times,serif" font-size="14.00">path (5)</text>
</g>
<!-- v0&#45;&gt;p0 -->
<g id="edge1" class="edge"><title>v0&#45;&gt;p0</title>
<path fill="none" stroke="black" d="M155.125,-78.8214C132.375,-67.9879 95.8973,-50.6178 68.0966,-37.3793"/>
<polygon fill="black" stroke="black" points="69.567,-34.203 59.0336,-33.0636 66.5574,-40.523 69.567,-34.203"/>
</g>
<!-- v2 -->
<g id="node3" class="node"><title>v2</title>
<ellipse fill="none" stroke="black" cx="104.5" cy="-18" rx="27" ry="18"/>
<text text-anchor="middle" x="104.5" y="-14.3" font-family="Times,serif" font-size="14.00">2</text>
</g>
<!-- v0&#45;&gt;v2 -->
<g id="edge5" class="edge"><title>v0&#45;&gt;v2</title>
<path fill="none" stroke="black" d="M161.93,-74.8345C151.75,-64.9376 137.976,-51.5462 126.469,-40.3591"/>
<polygon fill="black" stroke="black" points="128.905,-37.8461 119.296,-33.3847 124.026,-42.865 128.905,-37.8461"/>
</g>
<!-- v3 -->
<g id="node4" class="node"><title>v3</title>
<ellipse fill="none" stroke="black" cx="176.5" cy="-18" rx="27" ry="18"/>
<text text-anchor="middle" x="176.5" y="-14.3" font-family="Times,serif" font-size="14.00">3</text>
</g>
<!-- v0&#45;&gt;v3 -->
<g id="edge4" class="edge"><title>v0&#45;&gt;v3</title>
<path fill="none" stroke="black" d="M176.5,-71.6966C176.5,-63.9827 176.5,-54.7125 176.5,-46.1124"/>
<polygon fill="black" stroke="black" points="180,-46.1043 176.5,-36.1043 173,-46.1044 180,-46.1043"/>
</g>
<!-- p1 -->
<g id="node5" class="node"><title>p1</title>
<path fill="none" stroke="black" d="M269,-36C269,-36 234,-36 234,-36 228,-36 222,-30 222,-24 222,-24 222,-12 222,-12 222,-6 228,-0 234,-0 234,-0 269,-0 269,-0 275,-0 281,-6 281,-12 281,-12 281,-24 281,-24 281,-30 275,-36 269,-36"/>
<text text-anchor="middle" x="251.5" y="-14.3" font-family="Times,serif" font-size="14.00">path (2)</text>
</g>
<!-- v0&#45;&gt;p1 -->
<g id="edge2" class="edge"><title>v0&#45;&gt;p1</title>
<path fill="none" stroke="black" d="M191.677,-74.8345C201.415,-65.7459 214.31,-53.7105 225.634,-43.1413"/>
<polygon fill="black" stroke="black" points="228.242,-45.4946 233.165,-36.1127 223.466,-40.3772 228.242,-45.4946"/>
</g>
<!-- p2 -->
<g id="node6" class="node"><title>p2</title>
<path fill="none" stroke="black" d="M346,-36C346,-36 311,-36 311,-36 305,-36 299,-30 299,-24 299,-24 299,-12 299,-12 299,-6 305,-0 311,-0 311,-0 346,-0 346,-0 352,-0 358,-6 358,-12 358,-12 358,-24 358,-24 358,-30 352,-36 346,-36"/>
<text text-anchor="middle" x="328.5" y="-14.3" font-family="Times,serif" font-size="14.00">path (2)</text>
</g>
<!-- v0&#45;&gt;p2 -->
<g id="edge3" class="edge"><title>v0&#45;&gt;p2</title>
<path fill="none" stroke="black" d="M198.278,-78.9707C222.026,-68.0341 260.512,-50.3102 289.499,-36.9608"/>
<polygon fill="black" stroke="black" points="291.312,-39.9795 298.931,-32.6174 288.384,-33.6213 291.312,-39.9795"/>
</g>
</g>
</svg>
