<?xml version="1.0" encoding="UTF-8" standalone="no"?>
<!DOCTYPE svg PUBLIC "-//W3C//DTD SVG 1.1//EN"
 "http://www.w3.org/Graphics/SVG/1.1/DTD/svg11.dtd">
<!-- Generated by graphviz version 2.38.0 (20140413.2041)
 -->
<!-- Title: %3 Pages: 1 -->
<svg width="440pt" height="188pt"
 viewBox="0.00 0.00 440.00 188.00" xmlns="http://www.w3.org/2000/svg" xmlns:xlink="http://www.w3.org/1999/xlink">
<g id="graph0" class="graph" transform="scale(1 1) rotate(0) translate(4 184)">
<title>%3</title>
<polygon fill="white" stroke="none" points="-4,4 -4,-184 436,-184 436,4 -4,4"/>
<!-- v0 -->
<g id="node1" class="node"><title>v0</title>
<ellipse fill="none" stroke="black" cx="104.5" cy="-162" rx="27" ry="18"/>
<text text-anchor="middle" x="104.5" y="-158.3" font-family="Times,serif" font-size="14.00">0</text>
</g>
<!-- v2 -->
<g id="node3" class="node"><title>v2</title>
<ellipse fill="none" stroke="black" cx="104.5" cy="-90" rx="27" ry="18"/>
<text text-anchor="middle" x="104.5" y="-86.3" font-family="Times,serif" font-size="14.00">2</text>
</g>
<!-- v0&#45;&gt;v2 -->
<g id="edge13" class="edge"><title>v0&#45;&gt;v2</title>
<path fill="none" stroke="black" d="M98.6601,-144.411C97.7975,-136.507 97.5481,-126.852 97.9119,-117.935"/>
<polygon fill="black" stroke="black" points="101.403,-118.179 98.6206,-107.956 94.4209,-117.683 101.403,-118.179"/>
</g>
<!-- v17 -->
<g id="node11" class="node"><title>v17</title>
<ellipse fill="none" stroke="black" cx="32.5" cy="-90" rx="27" ry="18"/>
<text text-anchor="middle" x="32.5" y="-86.3" font-family="Times,serif" font-size="14.00">17</text>
</g>
<!-- v0&#45;&gt;v17 -->
<g id="edge7" class="edge"><title>v0&#45;&gt;v17</title>
<path fill="none" stroke="black" d="M89.9297,-146.834C79.7501,-136.938 65.9761,-123.546 54.4694,-112.359"/>
<polygon fill="black" stroke="black" points="56.9055,-109.846 47.2957,-105.385 52.0259,-114.865 56.9055,-109.846"/>
</g>
<!-- p0 -->
<g id="node2" class="node"><title>p0</title>
<path fill="none" stroke="black" d="M47,-36C47,-36 12,-36 12,-36 6,-36 0,-30 0,-24 0,-24 0,-12 0,-12 0,-6 6,-0 12,-0 12,-0 47,-0 47,-0 53,-0 59,-6 59,-12 59,-12 59,-24 59,-24 59,-30 53,-36 47,-36"/>
<text text-anchor="middle" x="29.5" y="-14.3" font-family="Times,serif" font-size="14.00">path (5)</text>
</g>
<!-- v2&#45;&gt;v0 -->
<g id="edge4" class="edge"><title>v2&#45;&gt;v0</title>
<path fill="none" stroke="black" d="M110.379,-107.956C111.214,-115.827 111.448,-125.374 111.083,-134.187"/>
<polygon fill="black" stroke="black" points="107.574,-134.184 110.34,-144.411 114.556,-134.691 107.574,-134.184"/>
</g>
<!-- v2&#45;&gt;p0 -->
<g id="edge1" class="edge"><title>v2&#45;&gt;p0</title>
<path fill="none" stroke="black" d="M89.3226,-74.8345C79.5849,-65.7459 66.6898,-53.7105 55.3657,-43.1413"/>
<polygon fill="black" stroke="black" points="57.5338,-40.3772 47.8351,-36.1127 52.7575,-45.4946 57.5338,-40.3772"/>
</g>
<!-- v11 -->
<g id="node7" class="node"><title>v11</title>
<ellipse fill="none" stroke="black" cx="104.5" cy="-18" rx="27" ry="18"/>
<text text-anchor="middle" x="104.5" y="-14.3" font-family="Times,serif" font-size="14.00">11</text>
</g>
<!-- v2&#45;&gt;v11 -->
<g id="edge11" class="edge"><title>v2&#45;&gt;v11</title>
<path fill="none" stroke="black" d="M104.5,-71.6966C104.5,-63.9827 104.5,-54.7125 104.5,-46.1124"/>
<polygon fill="black" stroke="black" points="108,-46.1043 104.5,-36.1043 101,-46.1044 108,-46.1043"/>
</g>
<!-- p1 -->
<g id="node4" class="node"><title>p1</title>
<path fill="none" stroke="black" d="M270,-108C270,-108 235,-108 235,-108 229,-108 223,-102 223,-96 223,-96 223,-84 223,-84 223,-78 229,-72 235,-72 235,-72 270,-72 270,-72 276,-72 282,-78 282,-84 282,-84 282,-96 282,-96 282,-102 276,-108 270,-108"/>
<text text-anchor="middle" x="252.5" y="-86.3" font-family="Times,serif" font-size="14.00">path (2)</text>
</g>
<!-- v7 -->
<g id="node5" class="node"><title>v7</title>
<ellipse fill="none" stroke="black" cx="177.5" cy="-90" rx="27" ry="18"/>
<text text-anchor="middle" x="177.5" y="-86.3" font-family="Times,serif" font-size="14.00">7</text>
</g>
<!-- v10 -->
<g id="node6" class="node"><title>v10</title>
<ellipse fill="none" stroke="black" cx="214.5" cy="-162" rx="27" ry="18"/>
<text text-anchor="middle" x="214.5" y="-158.3" font-family="Times,serif" font-size="14.00">10</text>
</g>
<!-- v7&#45;&gt;v10 -->
<g id="edge8" class="edge"><title>v7&#45;&gt;v10</title>
<path fill="none" stroke="black" d="M191.011,-105.888C196.49,-114.276 202.462,-124.996 207.183,-134.748"/>
<polygon fill="black" stroke="black" points="204.092,-136.405 211.422,-144.055 210.462,-133.504 204.092,-136.405"/>
</g>
<!-- p2 -->
<g id="node10" class="node"><title>p2</title>
<path fill="none" stroke="black" d="M197,-36C197,-36 162,-36 162,-36 156,-36 150,-30 150,-24 150,-24 150,-12 150,-12 150,-6 156,-0 162,-0 162,-0 197,-0 197,-0 203,-0 209,-6 209,-12 209,-12 209,-24 209,-24 209,-30 203,-36 197,-36"/>
<text text-anchor="middle" x="179.5" y="-14.3" font-family="Times,serif" font-size="14.00">path (3)</text>
</g>
<!-- v7&#45;&gt;p2 -->
<g id="edge2" class="edge"><title>v7&#45;&gt;p2</title>
<path fill="none" stroke="black" d="M177.994,-71.6966C178.215,-63.9827 178.48,-54.7125 178.725,-46.1124"/>
<polygon fill="black" stroke="black" points="182.224,-46.2002 179.011,-36.1043 175.227,-46.0003 182.224,-46.2002"/>
</g>
<!-- v10&#45;&gt;v2 -->
<g id="edge14" class="edge"><title>v10&#45;&gt;v2</title>
<path fill="none" stroke="black" d="M195.339,-148.807C177.831,-137.665 151.741,-121.062 132.007,-108.504"/>
<polygon fill="black" stroke="black" points="133.757,-105.469 123.441,-103.053 129.999,-111.375 133.757,-105.469"/>
</g>
<!-- v10&#45;&gt;p1 -->
<g id="edge3" class="edge"><title>v10&#45;&gt;p1</title>
<path fill="none" stroke="black" d="M223.313,-144.765C227.786,-136.525 233.328,-126.317 238.377,-117.016"/>
<polygon fill="black" stroke="black" points="241.509,-118.582 243.204,-108.124 235.357,-115.243 241.509,-118.582"/>
</g>
<!-- v10&#45;&gt;v7 -->
<g id="edge5" class="edge"><title>v10&#45;&gt;v7</title>
<path fill="none" stroke="black" d="M201.017,-146.155C195.547,-137.787 189.583,-127.088 184.862,-117.344"/>
<polygon fill="black" stroke="black" points="187.952,-115.686 180.619,-108.04 181.583,-118.591 187.952,-115.686"/>
</g>
<!-- v12 -->
<g id="node8" class="node"><title>v12</title>
<ellipse fill="none" stroke="black" cx="327.5" cy="-90" rx="27" ry="18"/>
<text text-anchor="middle" x="327.5" y="-86.3" font-family="Times,serif" font-size="14.00">12</text>
</g>
<!-- v10&#45;&gt;v12 -->
<g id="edge6" class="edge"><title>v10&#45;&gt;v12</title>
<path fill="none" stroke="black" d="M233.669,-149.125C251.77,-137.913 279.123,-120.968 299.633,-108.263"/>
<polygon fill="black" stroke="black" points="301.579,-111.174 308.237,-102.933 297.893,-105.224 301.579,-111.174"/>
</g>
<!-- p3 -->
<g id="node13" class="node"><title>p3</title>
<path fill="none" stroke="black" d="M420,-108C420,-108 385,-108 385,-108 379,-108 373,-102 373,-96 373,-96 373,-84 373,-84 373,-78 379,-72 385,-72 385,-72 420,-72 420,-72 426,-72 432,-78 432,-84 432,-84 432,-96 432,-96 432,-102 426,-108 420,-108"/>
<text text-anchor="middle" x="402.5" y="-86.3" font-family="Times,serif" font-size="14.00">path (2)</text>
</g>
<!-- v10&#45;&gt;p3 -->
<g id="edge9" class="edge"><title>v10&#45;&gt;p3</title>
<path fill="none" stroke="black" d="M238.171,-153.146C267.721,-143.212 319.71,-125.308 363.5,-108 363.594,-107.963 363.689,-107.925 363.784,-107.888"/>
<polygon fill="black" stroke="black" points="364.848,-111.234 372.778,-104.208 362.198,-104.755 364.848,-111.234"/>
</g>
<!-- v13 -->
<g id="node9" class="node"><title>v13</title>
<ellipse fill="none" stroke="black" cx="291.5" cy="-18" rx="27" ry="18"/>
<text text-anchor="middle" x="291.5" y="-14.3" font-family="Times,serif" font-size="14.00">13</text>
</g>
<!-- v12&#45;&gt;v13 -->
<g id="edge12" class="edge"><title>v12&#45;&gt;v13</title>
<path fill="none" stroke="black" d="M319.15,-72.7646C314.788,-64.2831 309.353,-53.7144 304.459,-44.1974"/>
<polygon fill="black" stroke="black" points="307.49,-42.4395 299.804,-35.1473 301.265,-45.6409 307.49,-42.4395"/>
</g>
<!-- v18 -->
<g id="node12" class="node"><title>v18</title>
<ellipse fill="none" stroke="black" cx="363.5" cy="-18" rx="27" ry="18"/>
<text text-anchor="middle" x="363.5" y="-14.3" font-family="Times,serif" font-size="14.00">18</text>
</g>
<!-- v12&#45;&gt;v18 -->
<g id="edge10" class="edge"><title>v12&#45;&gt;v18</title>
<path fill="none" stroke="black" d="M335.85,-72.7646C340.212,-64.2831 345.647,-53.7144 350.541,-44.1974"/>
<polygon fill="black" stroke="black" points="353.735,-45.6409 355.196,-35.1473 347.51,-42.4395 353.735,-45.6409"/>
</g>
</g>
</svg>
