<?xml version="1.0" encoding="UTF-8" standalone="no"?>
<!DOCTYPE svg PUBLIC "-//W3C//DTD SVG 1.1//EN"
 "http://www.w3.org/Graphics/SVG/1.1/DTD/svg11.dtd">
<!-- Generated by graphviz version 2.38.0 (20140413.2041)
 -->
<!-- Title: %3 Pages: 1 -->
<svg width="448pt" height="404pt"
 viewBox="0.00 0.00 448.00 404.00" xmlns="http://www.w3.org/2000/svg" xmlns:xlink="http://www.w3.org/1999/xlink">
<g id="graph0" class="graph" transform="scale(1 1) rotate(0) translate(4 400)">
<title>%3</title>
<polygon fill="white" stroke="none" points="-4,4 -4,-400 444,-400 444,4 -4,4"/>
<!-- p0 -->
<g id="node1" class="node"><title>p0</title>
<path fill="none" stroke="black" d="M164,-252C164,-252 129,-252 129,-252 123,-252 117,-246 117,-240 117,-240 117,-228 117,-228 117,-222 123,-216 129,-216 129,-216 164,-216 164,-216 170,-216 176,-222 176,-228 176,-228 176,-240 176,-240 176,-246 170,-252 164,-252"/>
<text text-anchor="middle" x="146.5" y="-230.3" font-family="Times,serif" font-size="14.00">path (4)</text>
</g>
<!-- v2 -->
<g id="node3" class="node"><title>v2</title>
<ellipse fill="none" stroke="black" cx="146.5" cy="-162" rx="27" ry="18"/>
<text text-anchor="middle" x="146.5" y="-158.3" font-family="Times,serif" font-size="14.00">2</text>
</g>
<!-- p0&#45;&gt;v2 -->
<g id="edge12" class="edge"><title>p0&#45;&gt;v2</title>
<path fill="none" stroke="black" d="M146.5,-215.697C146.5,-207.983 146.5,-198.712 146.5,-190.112"/>
<polygon fill="black" stroke="black" points="150,-190.104 146.5,-180.104 143,-190.104 150,-190.104"/>
</g>
<!-- v1 -->
<g id="node2" class="node"><title>v1</title>
<ellipse fill="none" stroke="black" cx="71.5" cy="-90" rx="27" ry="18"/>
<text text-anchor="middle" x="71.5" y="-86.3" font-family="Times,serif" font-size="14.00">1</text>
</g>
<!-- v2&#45;&gt;v1 -->
<g id="edge2" class="edge"><title>v2&#45;&gt;v1</title>
<path fill="none" stroke="black" d="M131.323,-146.834C120.649,-136.872 106.181,-123.369 94.1469,-112.137"/>
<polygon fill="black" stroke="black" points="96.3535,-109.409 86.6548,-105.144 91.5773,-114.526 96.3535,-109.409"/>
</g>
<!-- p1 -->
<g id="node4" class="node"><title>p1</title>
<path fill="none" stroke="black" d="M164,-108C164,-108 129,-108 129,-108 123,-108 117,-102 117,-96 117,-96 117,-84 117,-84 117,-78 123,-72 129,-72 129,-72 164,-72 164,-72 170,-72 176,-78 176,-84 176,-84 176,-96 176,-96 176,-102 170,-108 164,-108"/>
<text text-anchor="middle" x="146.5" y="-86.3" font-family="Times,serif" font-size="14.00">path (4)</text>
</g>
<!-- v2&#45;&gt;p1 -->
<g id="edge10" class="edge"><title>v2&#45;&gt;p1</title>
<path fill="none" stroke="black" d="M146.5,-143.697C146.5,-135.983 146.5,-126.712 146.5,-118.112"/>
<polygon fill="black" stroke="black" points="150,-118.104 146.5,-108.104 143,-118.104 150,-118.104"/>
</g>
<!-- v6 -->
<g id="node6" class="node"><title>v6</title>
<ellipse fill="none" stroke="black" cx="221.5" cy="-90" rx="27" ry="18"/>
<text text-anchor="middle" x="221.5" y="-86.3" font-family="Times,serif" font-size="14.00">6</text>
</g>
<!-- v2&#45;&gt;v6 -->
<g id="edge7" class="edge"><title>v2&#45;&gt;v6</title>
<path fill="none" stroke="black" d="M161.677,-146.834C172.351,-136.872 186.819,-123.369 198.853,-112.137"/>
<polygon fill="black" stroke="black" points="201.423,-114.526 206.345,-105.144 196.646,-109.409 201.423,-114.526"/>
</g>
<!-- p2 -->
<g id="node5" class="node"><title>p2</title>
<path fill="none" stroke="black" d="M47,-36C47,-36 12,-36 12,-36 6,-36 0,-30 0,-24 0,-24 0,-12 0,-12 0,-6 6,-0 12,-0 12,-0 47,-0 47,-0 53,-0 59,-6 59,-12 59,-12 59,-24 59,-24 59,-30 53,-36 47,-36"/>
<text text-anchor="middle" x="29.5" y="-14.3" font-family="Times,serif" font-size="14.00">path (5)</text>
</g>
<!-- v6&#45;&gt;p2 -->
<g id="edge9" class="edge"><title>v6&#45;&gt;p2</title>
<path fill="none" stroke="black" d="M200.183,-78.6245C195.099,-76.3123 189.652,-73.9661 184.5,-72 136.549,-53.6992 120.267,-54.9267 68.8779,-36.2919"/>
<polygon fill="black" stroke="black" points="69.8203,-32.9085 59.2273,-32.712 67.3857,-39.4715 69.8203,-32.9085"/>
</g>
<!-- p3 -->
<g id="node7" class="node"><title>p3</title>
<path fill="none" stroke="black" d="M124,-36C124,-36 89,-36 89,-36 83,-36 77,-30 77,-24 77,-24 77,-12 77,-12 77,-6 83,-0 89,-0 89,-0 124,-0 124,-0 130,-0 136,-6 136,-12 136,-12 136,-24 136,-24 136,-30 130,-36 124,-36"/>
<text text-anchor="middle" x="106.5" y="-14.3" font-family="Times,serif" font-size="14.00">path (5)</text>
</g>
<!-- v6&#45;&gt;p3 -->
<g id="edge3" class="edge"><title>v6&#45;&gt;p3</title>
<path fill="none" stroke="black" d="M202.252,-77.2836C186.171,-67.4957 162.787,-53.2616 143.153,-41.3106"/>
<polygon fill="black" stroke="black" points="144.798,-38.2142 134.436,-36.0044 141.158,-44.1936 144.798,-38.2142"/>
</g>
<!-- p4 -->
<g id="node8" class="node"><title>p4</title>
<path fill="none" stroke="black" d="M201,-36C201,-36 166,-36 166,-36 160,-36 154,-30 154,-24 154,-24 154,-12 154,-12 154,-6 160,-0 166,-0 166,-0 201,-0 201,-0 207,-0 213,-6 213,-12 213,-12 213,-24 213,-24 213,-30 207,-36 201,-36"/>
<text text-anchor="middle" x="183.5" y="-14.3" font-family="Times,serif" font-size="14.00">path (4)</text>
</g>
<!-- v6&#45;&gt;p4 -->
<g id="edge8" class="edge"><title>v6&#45;&gt;p4</title>
<path fill="none" stroke="black" d="M212.687,-72.7646C208.214,-64.5255 202.672,-54.3166 197.623,-45.0157"/>
<polygon fill="black" stroke="black" points="200.643,-43.2426 192.796,-36.1239 194.491,-46.5823 200.643,-43.2426"/>
</g>
<!-- p5 -->
<g id="node9" class="node"><title>p5</title>
<path fill="none" stroke="black" d="M278,-36C278,-36 243,-36 243,-36 237,-36 231,-30 231,-24 231,-24 231,-12 231,-12 231,-6 237,-0 243,-0 243,-0 278,-0 278,-0 284,-0 290,-6 290,-12 290,-12 290,-24 290,-24 290,-30 284,-36 278,-36"/>
<text text-anchor="middle" x="260.5" y="-14.3" font-family="Times,serif" font-size="14.00">path (5)</text>
</g>
<!-- v6&#45;&gt;p5 -->
<g id="edge11" class="edge"><title>v6&#45;&gt;p5</title>
<path fill="none" stroke="black" d="M230.545,-72.7646C235.136,-64.5255 240.824,-54.3166 246.006,-45.0157"/>
<polygon fill="black" stroke="black" points="249.15,-46.5631 250.96,-36.1239 243.035,-43.1561 249.15,-46.5631"/>
</g>
<!-- v14 -->
<g id="node10" class="node"><title>v14</title>
<ellipse fill="none" stroke="black" cx="335.5" cy="-18" rx="27" ry="18"/>
<text text-anchor="middle" x="335.5" y="-14.3" font-family="Times,serif" font-size="14.00">14</text>
</g>
<!-- v6&#45;&gt;v14 -->
<g id="edge4" class="edge"><title>v6&#45;&gt;v14</title>
<path fill="none" stroke="black" d="M240.839,-77.1255C259.099,-65.9126 286.695,-48.9681 307.387,-36.2626"/>
<polygon fill="black" stroke="black" points="309.376,-39.1481 316.067,-30.9328 305.713,-33.1829 309.376,-39.1481"/>
</g>
<!-- p6 -->
<g id="node11" class="node"><title>p6</title>
<path fill="none" stroke="black" d="M428,-36C428,-36 393,-36 393,-36 387,-36 381,-30 381,-24 381,-24 381,-12 381,-12 381,-6 387,-0 393,-0 393,-0 428,-0 428,-0 434,-0 440,-6 440,-12 440,-12 440,-24 440,-24 440,-30 434,-36 428,-36"/>
<text text-anchor="middle" x="410.5" y="-14.3" font-family="Times,serif" font-size="14.00">path (2)</text>
</g>
<!-- v6&#45;&gt;p6 -->
<g id="edge5" class="edge"><title>v6&#45;&gt;p6</title>
<path fill="none" stroke="black" d="M245.335,-81.1645C275.088,-71.2497 327.43,-53.3649 371.5,-36 371.594,-35.9628 371.689,-35.9254 371.784,-35.888"/>
<polygon fill="black" stroke="black" points="372.846,-39.235 380.781,-32.2149 370.2,-32.7543 372.846,-39.235"/>
</g>
<!-- v31 -->
<g id="node12" class="node"><title>v31</title>
<ellipse fill="none" stroke="black" cx="183.5" cy="-306" rx="27" ry="18"/>
<text text-anchor="middle" x="183.5" y="-302.3" font-family="Times,serif" font-size="14.00">31</text>
</g>
<!-- v31&#45;&gt;p0 -->
<g id="edge13" class="edge"><title>v31&#45;&gt;p0</title>
<path fill="none" stroke="black" d="M174.918,-288.765C170.563,-280.525 165.167,-270.317 160.251,-261.016"/>
<polygon fill="black" stroke="black" points="163.319,-259.329 155.551,-252.124 157.13,-262.6 163.319,-259.329"/>
</g>
<!-- v35 -->
<g id="node14" class="node"><title>v35</title>
<ellipse fill="none" stroke="black" cx="221.5" cy="-234" rx="27" ry="18"/>
<text text-anchor="middle" x="221.5" y="-230.3" font-family="Times,serif" font-size="14.00">35</text>
</g>
<!-- v31&#45;&gt;v35 -->
<g id="edge6" class="edge"><title>v31&#45;&gt;v35</title>
<path fill="none" stroke="black" d="M192.313,-288.765C196.918,-280.283 202.655,-269.714 207.821,-260.197"/>
<polygon fill="black" stroke="black" points="211.039,-261.606 212.734,-251.147 204.887,-258.266 211.039,-261.606"/>
</g>
<!-- v32 -->
<g id="node13" class="node"><title>v32</title>
<ellipse fill="none" stroke="black" cx="183.5" cy="-378" rx="27" ry="18"/>
<text text-anchor="middle" x="183.5" y="-374.3" font-family="Times,serif" font-size="14.00">32</text>
</g>
<!-- v32&#45;&gt;v31 -->
<g id="edge1" class="edge"><title>v32&#45;&gt;v31</title>
<path fill="none" stroke="black" d="M183.5,-359.697C183.5,-351.983 183.5,-342.712 183.5,-334.112"/>
<polygon fill="black" stroke="black" points="187,-334.104 183.5,-324.104 180,-334.104 187,-334.104"/>
</g>
</g>
</svg>
