<?xml version="1.0" encoding="UTF-8" standalone="no"?>
<!DOCTYPE svg PUBLIC "-//W3C//DTD SVG 1.1//EN"
 "http://www.w3.org/Graphics/SVG/1.1/DTD/svg11.dtd">
<!-- Generated by graphviz version 2.38.0 (20140413.2041)
 -->
<!-- Title: %3 Pages: 1 -->
<svg width="840pt" height="836pt"
 viewBox="0.00 0.00 839.64 836.00" xmlns="http://www.w3.org/2000/svg" xmlns:xlink="http://www.w3.org/1999/xlink">
<g id="graph0" class="graph" transform="scale(1 1) rotate(0) translate(4 832)">
<title>%3</title>
<polygon fill="white" stroke="none" points="-4,4 -4,-832 835.643,-832 835.643,4 -4,4"/>
<!-- 0 -->
<g id="node1" class="node"><title>0</title>
<g id="a_node1"><a xlink:title="0, diversity: 2, multiplicities: 27,41, labels: 0">
<ellipse fill="#f7fcf5" stroke="black" cx="337.047" cy="-522" rx="37.0935" ry="18"/>
<text text-anchor="middle" x="337.047" y="-518.3" font-family="Times,serif" font-size="14.00">0 (2): 0</text>
</a>
</g>
</g>
<!-- 13 -->
<g id="node14" class="node"><title>13</title>
<g id="a_node14"><a xlink:title="13, diversity: 1, multiplicities: 1, labels: 0">
<ellipse fill="#f7fcf5" stroke="black" cx="235.047" cy="-450" rx="41.6928" ry="18"/>
<text text-anchor="middle" x="235.047" y="-446.3" font-family="Times,serif" font-size="14.00">13 (1): 0</text>
</a>
</g>
</g>
<!-- 0&#45;&gt;13 -->
<g id="edge38" class="edge"><title>0&#45;&gt;13</title>
<path fill="none" stroke="black" d="M316.405,-506.834C301.534,-496.629 281.248,-482.707 264.653,-471.318"/>
<polygon fill="black" stroke="black" points="266.585,-468.399 256.359,-465.626 262.624,-474.171 266.585,-468.399"/>
</g>
<!-- 23 -->
<g id="node24" class="node"><title>23</title>
<g id="a_node24"><a xlink:title="23, diversity: 1, multiplicities: 1, labels: 0">
<ellipse fill="#f7fcf5" stroke="black" cx="336.047" cy="-450" rx="41.6928" ry="18"/>
<text text-anchor="middle" x="336.047" y="-446.3" font-family="Times,serif" font-size="14.00">23 (1): 0</text>
</a>
</g>
</g>
<!-- 0&#45;&gt;23 -->
<g id="edge31" class="edge"><title>0&#45;&gt;23</title>
<path fill="none" stroke="black" d="M336.8,-503.697C336.689,-495.983 336.557,-486.712 336.434,-478.112"/>
<polygon fill="black" stroke="black" points="339.934,-478.053 336.291,-468.104 332.934,-478.153 339.934,-478.053"/>
</g>
<!-- 48 -->
<g id="node49" class="node"><title>48</title>
<g id="a_node49"><a xlink:title="48, diversity: 1, multiplicities: 38, labels: 0">
<ellipse fill="#f7fcf5" stroke="black" cx="437.047" cy="-450" rx="41.6928" ry="18"/>
<text text-anchor="middle" x="437.047" y="-446.3" font-family="Times,serif" font-size="14.00">48 (1): 0</text>
</a>
</g>
</g>
<!-- 0&#45;&gt;48 -->
<g id="edge42" class="edge"><title>0&#45;&gt;48</title>
<path fill="none" stroke="black" d="M357.283,-506.834C371.729,-496.722 391.387,-482.962 407.572,-471.632"/>
<polygon fill="black" stroke="black" points="409.967,-474.228 416.152,-465.626 405.952,-468.494 409.967,-474.228"/>
</g>
<!-- 1 -->
<g id="node2" class="node"><title>1</title>
<g id="a_node2"><a xlink:title="1, diversity: 1, multiplicities: 65, labels: 0">
<ellipse fill="#f7fcf5" stroke="black" cx="37.0467" cy="-378" rx="37.0935" ry="18"/>
<text text-anchor="middle" x="37.0467" y="-374.3" font-family="Times,serif" font-size="14.00">1 (1): 0</text>
</a>
</g>
</g>
<!-- 2 -->
<g id="node3" class="node"><title>2</title>
<g id="a_node3"><a xlink:title="2, diversity: 1, multiplicities: 32, labels: 0">
<ellipse fill="#f7fcf5" stroke="black" cx="95.0467" cy="-522" rx="37.0935" ry="18"/>
<text text-anchor="middle" x="95.0467" y="-518.3" font-family="Times,serif" font-size="14.00">2 (1): 0</text>
</a>
</g>
</g>
<!-- 3 -->
<g id="node4" class="node"><title>3</title>
<g id="a_node4"><a xlink:title="3, diversity: 1, multiplicities: 3, labels: 0">
<ellipse fill="#f7fcf5" stroke="black" cx="37.0467" cy="-450" rx="37.0935" ry="18"/>
<text text-anchor="middle" x="37.0467" y="-446.3" font-family="Times,serif" font-size="14.00">3 (1): 0</text>
</a>
</g>
</g>
<!-- 2&#45;&gt;3 -->
<g id="edge28" class="edge"><title>2&#45;&gt;3</title>
<path fill="none" stroke="black" d="M81.8856,-505.116C74.5744,-496.292 65.3257,-485.13 57.1297,-475.238"/>
<polygon fill="black" stroke="black" points="59.6335,-472.774 50.5582,-467.307 54.2434,-477.24 59.6335,-472.774"/>
</g>
<!-- 3&#45;&gt;1 -->
<g id="edge37" class="edge"><title>3&#45;&gt;1</title>
<path fill="none" stroke="black" d="M37.0467,-431.697C37.0467,-423.983 37.0467,-414.712 37.0467,-406.112"/>
<polygon fill="black" stroke="black" points="40.5468,-406.104 37.0467,-396.104 33.5468,-406.104 40.5468,-406.104"/>
</g>
<!-- 4 -->
<g id="node5" class="node"><title>4</title>
<g id="a_node5"><a xlink:title="4, diversity: 1, multiplicities: 1, labels: 0">
<ellipse fill="#f7fcf5" stroke="black" cx="221.047" cy="-666" rx="37.0935" ry="18"/>
<text text-anchor="middle" x="221.047" y="-662.3" font-family="Times,serif" font-size="14.00">4 (1): 0</text>
</a>
</g>
</g>
<!-- 5 -->
<g id="node6" class="node"><title>5</title>
<g id="a_node6"><a xlink:title="5, diversity: 1, multiplicities: 1, labels: 0">
<ellipse fill="#f7fcf5" stroke="black" cx="141.047" cy="-594" rx="37.0935" ry="18"/>
<text text-anchor="middle" x="141.047" y="-590.3" font-family="Times,serif" font-size="14.00">5 (1): 0</text>
</a>
</g>
</g>
<!-- 4&#45;&gt;5 -->
<g id="edge24" class="edge"><title>4&#45;&gt;5</title>
<path fill="none" stroke="black" d="M203.688,-649.811C192.68,-640.179 178.262,-627.563 166.033,-616.863"/>
<polygon fill="black" stroke="black" points="168.202,-614.11 158.372,-610.159 163.593,-619.378 168.202,-614.11"/>
</g>
<!-- 5&#45;&gt;2 -->
<g id="edge47" class="edge"><title>5&#45;&gt;2</title>
<path fill="none" stroke="black" d="M130.145,-576.411C124.588,-567.955 117.714,-557.494 111.527,-548.078"/>
<polygon fill="black" stroke="black" points="114.287,-545.905 105.87,-539.47 108.437,-549.749 114.287,-545.905"/>
</g>
<!-- 6 -->
<g id="node7" class="node"><title>6</title>
<g id="a_node7"><a xlink:title="6, diversity: 1, multiplicities: 1, labels: 0">
<ellipse fill="#f7fcf5" stroke="black" cx="268.047" cy="-738" rx="37.0935" ry="18"/>
<text text-anchor="middle" x="268.047" y="-734.3" font-family="Times,serif" font-size="14.00">6 (1): 0</text>
</a>
</g>
</g>
<!-- 6&#45;&gt;4 -->
<g id="edge21" class="edge"><title>6&#45;&gt;4</title>
<path fill="none" stroke="black" d="M257.146,-720.765C251.416,-712.23 244.266,-701.582 237.845,-692.019"/>
<polygon fill="black" stroke="black" points="240.695,-689.985 232.215,-683.633 234.883,-693.887 240.695,-689.985"/>
</g>
<!-- 7 -->
<g id="node8" class="node"><title>7</title>
<g id="a_node8"><a xlink:title="7, diversity: 2, multiplicities: 4,137, labels: 0">
<ellipse fill="#f7fcf5" stroke="black" cx="538.047" cy="-234" rx="37.0935" ry="18"/>
<text text-anchor="middle" x="538.047" y="-230.3" font-family="Times,serif" font-size="14.00">7 (2): 0</text>
</a>
</g>
</g>
<!-- 8 -->
<g id="node9" class="node"><title>8</title>
<g id="a_node9"><a xlink:title="8, diversity: 1, multiplicities: 57, labels: 0">
<ellipse fill="#f7fcf5" stroke="black" cx="189.047" cy="-522" rx="37.0935" ry="18"/>
<text text-anchor="middle" x="189.047" y="-518.3" font-family="Times,serif" font-size="14.00">8 (1): 0</text>
</a>
</g>
</g>
<!-- 11 -->
<g id="node12" class="node"><title>11</title>
<g id="a_node12"><a xlink:title="11, diversity: 1, multiplicities: 7, labels: 0">
<ellipse fill="#f7fcf5" stroke="black" cx="134.047" cy="-450" rx="41.6928" ry="18"/>
<text text-anchor="middle" x="134.047" y="-446.3" font-family="Times,serif" font-size="14.00">11 (1): 0</text>
</a>
</g>
</g>
<!-- 8&#45;&gt;11 -->
<g id="edge25" class="edge"><title>8&#45;&gt;11</title>
<path fill="none" stroke="black" d="M176.29,-504.765C169.349,-495.93 160.627,-484.83 152.914,-475.014"/>
<polygon fill="black" stroke="black" points="155.664,-472.848 146.734,-467.147 150.16,-477.173 155.664,-472.848"/>
</g>
<!-- 9 -->
<g id="node10" class="node"><title>9</title>
<g id="a_node10"><a xlink:title="9, diversity: 1, multiplicities: 13, labels: 0">
<ellipse fill="#f7fcf5" stroke="black" cx="315.047" cy="-666" rx="37.0935" ry="18"/>
<text text-anchor="middle" x="315.047" y="-662.3" font-family="Times,serif" font-size="14.00">9 (1): 0</text>
</a>
</g>
</g>
<!-- 10 -->
<g id="node11" class="node"><title>10</title>
<g id="a_node11"><a xlink:title="10, diversity: 1, multiplicities: 24, labels: 0">
<ellipse fill="#f7fcf5" stroke="black" cx="261.047" cy="-594" rx="41.6928" ry="18"/>
<text text-anchor="middle" x="261.047" y="-590.3" font-family="Times,serif" font-size="14.00">10 (1): 0</text>
</a>
</g>
</g>
<!-- 12 -->
<g id="node13" class="node"><title>12</title>
<g id="a_node13"><a xlink:title="12, diversity: 1, multiplicities: 5, labels: 0">
<ellipse fill="#f7fcf5" stroke="black" cx="336.047" cy="-306" rx="41.6928" ry="18"/>
<text text-anchor="middle" x="336.047" y="-302.3" font-family="Times,serif" font-size="14.00">12 (1): 0</text>
</a>
</g>
</g>
<!-- 18 -->
<g id="node19" class="node"><title>18</title>
<g id="a_node19"><a xlink:title="18, diversity: 1, multiplicities: 2, labels: 0">
<ellipse fill="#f7fcf5" stroke="black" cx="235.047" cy="-378" rx="41.6928" ry="18"/>
<text text-anchor="middle" x="235.047" y="-374.3" font-family="Times,serif" font-size="14.00">18 (1): 0</text>
</a>
</g>
</g>
<!-- 13&#45;&gt;18 -->
<g id="edge43" class="edge"><title>13&#45;&gt;18</title>
<path fill="none" stroke="black" d="M235.047,-431.697C235.047,-423.983 235.047,-414.712 235.047,-406.112"/>
<polygon fill="black" stroke="black" points="238.547,-406.104 235.047,-396.104 231.547,-406.104 238.547,-406.104"/>
</g>
<!-- 14 -->
<g id="node15" class="node"><title>14</title>
<g id="a_node15"><a xlink:title="14, diversity: 1, multiplicities: 4, labels: 0">
<ellipse fill="#f7fcf5" stroke="black" cx="412.047" cy="-666" rx="41.6928" ry="18"/>
<text text-anchor="middle" x="412.047" y="-662.3" font-family="Times,serif" font-size="14.00">14 (1): 0</text>
</a>
</g>
</g>
<!-- 14&#45;&gt;10 -->
<g id="edge22" class="edge"><title>14&#45;&gt;10</title>
<path fill="none" stroke="black" d="M384.702,-652.324C360.298,-641.01 324.374,-624.357 297.527,-611.911"/>
<polygon fill="black" stroke="black" points="298.988,-608.731 288.443,-607.7 296.043,-615.082 298.988,-608.731"/>
</g>
<!-- 17 -->
<g id="node18" class="node"><title>17</title>
<g id="a_node18"><a xlink:title="17, diversity: 1, multiplicities: 1, labels: 0">
<ellipse fill="#f7fcf5" stroke="black" cx="362.047" cy="-594" rx="41.6928" ry="18"/>
<text text-anchor="middle" x="362.047" y="-590.3" font-family="Times,serif" font-size="14.00">17 (1): 0</text>
</a>
</g>
</g>
<!-- 14&#45;&gt;17 -->
<g id="edge1" class="edge"><title>14&#45;&gt;17</title>
<path fill="none" stroke="black" d="M400.197,-648.411C394.095,-639.868 386.531,-629.278 379.752,-619.787"/>
<polygon fill="black" stroke="black" points="382.471,-617.573 373.811,-611.47 376.775,-621.642 382.471,-617.573"/>
</g>
<!-- 22 -->
<g id="node23" class="node"><title>22</title>
<g id="a_node23"><a xlink:title="22, diversity: 1, multiplicities: 1, labels: 0">
<ellipse fill="#f7fcf5" stroke="black" cx="463.047" cy="-594" rx="41.6928" ry="18"/>
<text text-anchor="middle" x="463.047" y="-590.3" font-family="Times,serif" font-size="14.00">22 (1): 0</text>
</a>
</g>
</g>
<!-- 14&#45;&gt;22 -->
<g id="edge12" class="edge"><title>14&#45;&gt;22</title>
<path fill="none" stroke="black" d="M424.133,-648.411C430.357,-639.868 438.072,-629.278 444.987,-619.787"/>
<polygon fill="black" stroke="black" points="447.987,-621.613 451.047,-611.47 442.33,-617.491 447.987,-621.613"/>
</g>
<!-- 44 -->
<g id="node45" class="node"><title>44</title>
<g id="a_node45"><a xlink:title="44, diversity: 2, multiplicities: 1,2, labels: 0">
<ellipse fill="#f7fcf5" stroke="black" cx="588.047" cy="-594" rx="41.6928" ry="18"/>
<text text-anchor="middle" x="588.047" y="-590.3" font-family="Times,serif" font-size="14.00">44 (2): 0</text>
</a>
</g>
</g>
<!-- 14&#45;&gt;44 -->
<g id="edge27" class="edge"><title>14&#45;&gt;44</title>
<path fill="none" stroke="black" d="M441.505,-653.284C470.948,-641.573 516.392,-623.499 548.863,-610.584"/>
<polygon fill="black" stroke="black" points="550.494,-613.703 558.492,-606.755 547.907,-607.198 550.494,-613.703"/>
</g>
<!-- 15 -->
<g id="node16" class="node"><title>15</title>
<g id="a_node16"><a xlink:title="15, diversity: 1, multiplicities: 1, labels: 0">
<ellipse fill="#f7fcf5" stroke="black" cx="388.047" cy="-810" rx="41.6928" ry="18"/>
<text text-anchor="middle" x="388.047" y="-806.3" font-family="Times,serif" font-size="14.00">15 (1): 0</text>
</a>
</g>
</g>
<!-- 15&#45;&gt;6 -->
<g id="edge41" class="edge"><title>15&#45;&gt;6</title>
<path fill="none" stroke="black" d="M364.339,-795.17C345.858,-784.39 320.02,-769.318 299.761,-757.5"/>
<polygon fill="black" stroke="black" points="301.293,-754.342 290.891,-752.326 297.766,-760.388 301.293,-754.342"/>
</g>
<!-- 19 -->
<g id="node20" class="node"><title>19</title>
<g id="a_node20"><a xlink:title="19, diversity: 1, multiplicities: 1, labels: 0">
<ellipse fill="#f7fcf5" stroke="black" cx="388.047" cy="-738" rx="41.6928" ry="18"/>
<text text-anchor="middle" x="388.047" y="-734.3" font-family="Times,serif" font-size="14.00">19 (1): 0</text>
</a>
</g>
</g>
<!-- 15&#45;&gt;19 -->
<g id="edge11" class="edge"><title>15&#45;&gt;19</title>
<path fill="none" stroke="black" d="M388.047,-791.697C388.047,-783.983 388.047,-774.712 388.047,-766.112"/>
<polygon fill="black" stroke="black" points="391.547,-766.104 388.047,-756.104 384.547,-766.104 391.547,-766.104"/>
</g>
<!-- 41 -->
<g id="node42" class="node"><title>41</title>
<g id="a_node42"><a xlink:title="41, diversity: 1, multiplicities: 1, labels: 0">
<ellipse fill="#f7fcf5" stroke="black" cx="562.047" cy="-738" rx="41.6928" ry="18"/>
<text text-anchor="middle" x="562.047" y="-734.3" font-family="Times,serif" font-size="14.00">41 (1): 0</text>
</a>
</g>
</g>
<!-- 15&#45;&gt;41 -->
<g id="edge29" class="edge"><title>15&#45;&gt;41</title>
<path fill="none" stroke="black" d="M417.563,-797.125C446.648,-785.425 491.247,-767.483 523.198,-754.629"/>
<polygon fill="black" stroke="black" points="524.705,-757.795 532.676,-750.816 522.092,-751.301 524.705,-757.795"/>
</g>
<!-- 16 -->
<g id="node17" class="node"><title>16</title>
<g id="a_node17"><a xlink:title="16, diversity: 2, multiplicities: 1,3, labels: 0">
<ellipse fill="#f7fcf5" stroke="black" cx="538.047" cy="-378" rx="41.6928" ry="18"/>
<text text-anchor="middle" x="538.047" y="-374.3" font-family="Times,serif" font-size="14.00">16 (2): 0</text>
</a>
</g>
</g>
<!-- 20 -->
<g id="node21" class="node"><title>20</title>
<g id="a_node21"><a xlink:title="20, diversity: 1, multiplicities: 3, labels: 0">
<ellipse fill="#f7fcf5" stroke="black" cx="538.047" cy="-306" rx="41.6928" ry="18"/>
<text text-anchor="middle" x="538.047" y="-302.3" font-family="Times,serif" font-size="14.00">20 (1): 0</text>
</a>
</g>
</g>
<!-- 16&#45;&gt;20 -->
<g id="edge44" class="edge"><title>16&#45;&gt;20</title>
<path fill="none" stroke="black" d="M538.047,-359.697C538.047,-351.983 538.047,-342.712 538.047,-334.112"/>
<polygon fill="black" stroke="black" points="541.547,-334.104 538.047,-324.104 534.547,-334.104 541.547,-334.104"/>
</g>
<!-- 17&#45;&gt;8 -->
<g id="edge6" class="edge"><title>17&#45;&gt;8</title>
<path fill="none" stroke="black" d="M332.7,-581.125C303.258,-569.213 257.827,-550.83 225.958,-537.935"/>
<polygon fill="black" stroke="black" points="227.118,-534.629 216.535,-534.123 224.492,-541.118 227.118,-534.629"/>
</g>
<!-- 46 -->
<g id="node47" class="node"><title>46</title>
<g id="a_node47"><a xlink:title="46, diversity: 1, multiplicities: 1, labels: 0">
<ellipse fill="#f7fcf5" stroke="black" cx="235.047" cy="-306" rx="41.6928" ry="18"/>
<text text-anchor="middle" x="235.047" y="-302.3" font-family="Times,serif" font-size="14.00">46 (1): 0</text>
</a>
</g>
</g>
<!-- 18&#45;&gt;46 -->
<g id="edge26" class="edge"><title>18&#45;&gt;46</title>
<path fill="none" stroke="black" d="M235.047,-359.697C235.047,-351.983 235.047,-342.712 235.047,-334.112"/>
<polygon fill="black" stroke="black" points="238.547,-334.104 235.047,-324.104 231.547,-334.104 238.547,-334.104"/>
</g>
<!-- 19&#45;&gt;9 -->
<g id="edge34" class="edge"><title>19&#45;&gt;9</title>
<path fill="none" stroke="black" d="M371.482,-721.116C361.733,-711.768 349.247,-699.795 338.499,-689.489"/>
<polygon fill="black" stroke="black" points="340.685,-686.735 331.044,-682.34 335.84,-691.788 340.685,-686.735"/>
</g>
<!-- 19&#45;&gt;14 -->
<g id="edge17" class="edge"><title>19&#45;&gt;14</title>
<path fill="none" stroke="black" d="M393.856,-720.055C396.558,-712.176 399.835,-702.617 402.86,-693.794"/>
<polygon fill="black" stroke="black" points="406.191,-694.87 406.124,-684.275 399.57,-692.6 406.191,-694.87"/>
</g>
<!-- 20&#45;&gt;7 -->
<g id="edge7" class="edge"><title>20&#45;&gt;7</title>
<path fill="none" stroke="black" d="M538.047,-287.697C538.047,-279.983 538.047,-270.712 538.047,-262.112"/>
<polygon fill="black" stroke="black" points="541.547,-262.104 538.047,-252.104 534.547,-262.104 541.547,-262.104"/>
</g>
<!-- 21 -->
<g id="node22" class="node"><title>21</title>
<g id="a_node22"><a xlink:title="21, diversity: 1, multiplicities: 1, labels: 0">
<ellipse fill="#f7fcf5" stroke="black" cx="336.047" cy="-378" rx="41.6928" ry="18"/>
<text text-anchor="middle" x="336.047" y="-374.3" font-family="Times,serif" font-size="14.00">21 (1): 0</text>
</a>
</g>
</g>
<!-- 21&#45;&gt;12 -->
<g id="edge20" class="edge"><title>21&#45;&gt;12</title>
<path fill="none" stroke="black" d="M336.047,-359.697C336.047,-351.983 336.047,-342.712 336.047,-334.112"/>
<polygon fill="black" stroke="black" points="339.547,-334.104 336.047,-324.104 332.547,-334.104 339.547,-334.104"/>
</g>
<!-- 22&#45;&gt;0 -->
<g id="edge30" class="edge"><title>22&#45;&gt;0</title>
<path fill="none" stroke="black" d="M438.454,-579.337C418.777,-568.405 391.016,-552.983 369.515,-541.038"/>
<polygon fill="black" stroke="black" points="371.166,-537.951 360.724,-536.154 367.766,-544.07 371.166,-537.951"/>
</g>
<!-- 24 -->
<g id="node25" class="node"><title>24</title>
<g id="a_node25"><a xlink:title="24, diversity: 1, multiplicities: 3, labels: 0">
<ellipse fill="#f7fcf5" stroke="black" cx="486.047" cy="-522" rx="41.6928" ry="18"/>
<text text-anchor="middle" x="486.047" y="-518.3" font-family="Times,serif" font-size="14.00">24 (1): 0</text>
</a>
</g>
</g>
<!-- 22&#45;&gt;24 -->
<g id="edge23" class="edge"><title>22&#45;&gt;24</title>
<path fill="none" stroke="black" d="M468.614,-576.055C471.203,-568.176 474.344,-558.617 477.243,-549.794"/>
<polygon fill="black" stroke="black" points="480.574,-550.868 480.371,-540.275 473.924,-548.683 480.574,-550.868"/>
</g>
<!-- 23&#45;&gt;21 -->
<g id="edge18" class="edge"><title>23&#45;&gt;21</title>
<path fill="none" stroke="black" d="M336.047,-431.697C336.047,-423.983 336.047,-414.712 336.047,-406.112"/>
<polygon fill="black" stroke="black" points="339.547,-406.104 336.047,-396.104 332.547,-406.104 339.547,-406.104"/>
</g>
<!-- 25 -->
<g id="node26" class="node"><title>25</title>
<g id="a_node26"><a xlink:title="25, diversity: 1, multiplicities: 1, labels: 0">
<ellipse fill="#f7fcf5" stroke="black" cx="538.047" cy="-450" rx="41.6928" ry="18"/>
<text text-anchor="middle" x="538.047" y="-446.3" font-family="Times,serif" font-size="14.00">25 (1): 0</text>
</a>
</g>
</g>
<!-- 24&#45;&gt;25 -->
<g id="edge39" class="edge"><title>24&#45;&gt;25</title>
<path fill="none" stroke="black" d="M498.107,-504.765C504.512,-496.143 512.519,-485.365 519.678,-475.727"/>
<polygon fill="black" stroke="black" points="522.537,-477.748 525.69,-467.633 516.918,-473.574 522.537,-477.748"/>
</g>
<!-- 25&#45;&gt;16 -->
<g id="edge3" class="edge"><title>25&#45;&gt;16</title>
<path fill="none" stroke="black" d="M538.047,-431.697C538.047,-423.983 538.047,-414.712 538.047,-406.112"/>
<polygon fill="black" stroke="black" points="541.547,-406.104 538.047,-396.104 534.547,-406.104 541.547,-406.104"/>
</g>
<!-- 26 -->
<g id="node27" class="node"><title>26</title>
<g id="a_node27"><a xlink:title="26, diversity: 1, multiplicities: 32, labels: 0">
<ellipse fill="#f7fcf5" stroke="black" cx="689.047" cy="-18" rx="41.6928" ry="18"/>
<text text-anchor="middle" x="689.047" y="-14.3" font-family="Times,serif" font-size="14.00">26 (1): 0</text>
</a>
</g>
</g>
<!-- 27 -->
<g id="node28" class="node"><title>27</title>
<g id="a_node28"><a xlink:title="27, diversity: 1, multiplicities: 78, labels: 0">
<ellipse fill="#f7fcf5" stroke="black" cx="740.047" cy="-378" rx="41.6928" ry="18"/>
<text text-anchor="middle" x="740.047" y="-374.3" font-family="Times,serif" font-size="14.00">27 (1): 0</text>
</a>
</g>
</g>
<!-- 34 -->
<g id="node35" class="node"><title>34</title>
<g id="a_node35"><a xlink:title="34, diversity: 1, multiplicities: 1, labels: 0">
<ellipse fill="#f7fcf5" stroke="black" cx="689.047" cy="-306" rx="41.6928" ry="18"/>
<text text-anchor="middle" x="689.047" y="-302.3" font-family="Times,serif" font-size="14.00">34 (1): 0</text>
</a>
</g>
</g>
<!-- 27&#45;&gt;34 -->
<g id="edge46" class="edge"><title>27&#45;&gt;34</title>
<path fill="none" stroke="black" d="M727.96,-360.411C721.736,-351.868 714.021,-341.278 707.106,-331.787"/>
<polygon fill="black" stroke="black" points="709.764,-329.491 701.046,-323.47 704.106,-333.613 709.764,-329.491"/>
</g>
<!-- 37 -->
<g id="node38" class="node"><title>37</title>
<g id="a_node38"><a xlink:title="37, diversity: 1, multiplicities: 1, labels: 0">
<ellipse fill="#f7fcf5" stroke="black" cx="790.047" cy="-306" rx="41.6928" ry="18"/>
<text text-anchor="middle" x="790.047" y="-302.3" font-family="Times,serif" font-size="14.00">37 (1): 0</text>
</a>
</g>
</g>
<!-- 27&#45;&gt;37 -->
<g id="edge10" class="edge"><title>27&#45;&gt;37</title>
<path fill="none" stroke="black" d="M751.896,-360.411C757.998,-351.868 765.562,-341.278 772.341,-331.787"/>
<polygon fill="black" stroke="black" points="775.318,-333.642 778.282,-323.47 769.622,-329.573 775.318,-333.642"/>
</g>
<!-- 28 -->
<g id="node29" class="node"><title>28</title>
<g id="a_node29"><a xlink:title="28, diversity: 1, multiplicities: 2, labels: 0">
<ellipse fill="#f7fcf5" stroke="black" cx="790.047" cy="-234" rx="41.6928" ry="18"/>
<text text-anchor="middle" x="790.047" y="-230.3" font-family="Times,serif" font-size="14.00">28 (1): 0</text>
</a>
</g>
</g>
<!-- 30 -->
<g id="node31" class="node"><title>30</title>
<g id="a_node31"><a xlink:title="30, diversity: 1, multiplicities: 1, labels: 0">
<ellipse fill="#f7fcf5" stroke="black" cx="790.047" cy="-162" rx="41.6928" ry="18"/>
<text text-anchor="middle" x="790.047" y="-158.3" font-family="Times,serif" font-size="14.00">30 (1): 0</text>
</a>
</g>
</g>
<!-- 28&#45;&gt;30 -->
<g id="edge14" class="edge"><title>28&#45;&gt;30</title>
<path fill="none" stroke="black" d="M790.047,-215.697C790.047,-207.983 790.047,-198.712 790.047,-190.112"/>
<polygon fill="black" stroke="black" points="793.547,-190.104 790.047,-180.104 786.547,-190.104 793.547,-190.104"/>
</g>
<!-- 29 -->
<g id="node30" class="node"><title>29</title>
<g id="a_node30"><a xlink:title="29, diversity: 1, multiplicities: 17, labels: 0">
<ellipse fill="#f7fcf5" stroke="black" cx="790.047" cy="-18" rx="41.6928" ry="18"/>
<text text-anchor="middle" x="790.047" y="-14.3" font-family="Times,serif" font-size="14.00">29 (1): 0</text>
</a>
</g>
</g>
<!-- 35 -->
<g id="node36" class="node"><title>35</title>
<g id="a_node36"><a xlink:title="35, diversity: 1, multiplicities: 1, labels: 0">
<ellipse fill="#f7fcf5" stroke="black" cx="790.047" cy="-90" rx="41.6928" ry="18"/>
<text text-anchor="middle" x="790.047" y="-86.3" font-family="Times,serif" font-size="14.00">35 (1): 0</text>
</a>
</g>
</g>
<!-- 30&#45;&gt;35 -->
<g id="edge36" class="edge"><title>30&#45;&gt;35</title>
<path fill="none" stroke="black" d="M790.047,-143.697C790.047,-135.983 790.047,-126.712 790.047,-118.112"/>
<polygon fill="black" stroke="black" points="793.547,-118.104 790.047,-108.104 786.547,-118.104 793.547,-118.104"/>
</g>
<!-- 31 -->
<g id="node32" class="node"><title>31</title>
<g id="a_node32"><a xlink:title="31, diversity: 1, multiplicities: 1, labels: 0">
<ellipse fill="#f7fcf5" stroke="black" cx="689.047" cy="-234" rx="41.6928" ry="18"/>
<text text-anchor="middle" x="689.047" y="-230.3" font-family="Times,serif" font-size="14.00">31 (1): 0</text>
</a>
</g>
</g>
<!-- 38 -->
<g id="node39" class="node"><title>38</title>
<g id="a_node39"><a xlink:title="38, diversity: 1, multiplicities: 1, labels: 0">
<ellipse fill="#f7fcf5" stroke="black" cx="689.047" cy="-162" rx="41.6928" ry="18"/>
<text text-anchor="middle" x="689.047" y="-158.3" font-family="Times,serif" font-size="14.00">38 (1): 0</text>
</a>
</g>
</g>
<!-- 31&#45;&gt;38 -->
<g id="edge33" class="edge"><title>31&#45;&gt;38</title>
<path fill="none" stroke="black" d="M689.047,-215.697C689.047,-207.983 689.047,-198.712 689.047,-190.112"/>
<polygon fill="black" stroke="black" points="692.547,-190.104 689.047,-180.104 685.547,-190.104 692.547,-190.104"/>
</g>
<!-- 32 -->
<g id="node33" class="node"><title>32</title>
<g id="a_node33"><a xlink:title="32, diversity: 1, multiplicities: 1, labels: 0">
<ellipse fill="#f7fcf5" stroke="black" cx="727.047" cy="-522" rx="41.6928" ry="18"/>
<text text-anchor="middle" x="727.047" y="-518.3" font-family="Times,serif" font-size="14.00">32 (1): 0</text>
</a>
</g>
</g>
<!-- 33 -->
<g id="node34" class="node"><title>33</title>
<g id="a_node34"><a xlink:title="33, diversity: 1, multiplicities: 3, labels: 0">
<ellipse fill="#f7fcf5" stroke="black" cx="740.047" cy="-450" rx="41.6928" ry="18"/>
<text text-anchor="middle" x="740.047" y="-446.3" font-family="Times,serif" font-size="14.00">33 (1): 0</text>
</a>
</g>
</g>
<!-- 32&#45;&gt;33 -->
<g id="edge13" class="edge"><title>32&#45;&gt;33</title>
<path fill="none" stroke="black" d="M730.26,-503.697C731.693,-495.983 733.414,-486.712 735.012,-478.112"/>
<polygon fill="black" stroke="black" points="738.485,-478.575 736.87,-468.104 731.603,-477.297 738.485,-478.575"/>
</g>
<!-- 33&#45;&gt;27 -->
<g id="edge5" class="edge"><title>33&#45;&gt;27</title>
<path fill="none" stroke="black" d="M740.047,-431.697C740.047,-423.983 740.047,-414.712 740.047,-406.112"/>
<polygon fill="black" stroke="black" points="743.547,-406.104 740.047,-396.104 736.547,-406.104 743.547,-406.104"/>
</g>
<!-- 34&#45;&gt;31 -->
<g id="edge40" class="edge"><title>34&#45;&gt;31</title>
<path fill="none" stroke="black" d="M689.047,-287.697C689.047,-279.983 689.047,-270.712 689.047,-262.112"/>
<polygon fill="black" stroke="black" points="692.547,-262.104 689.047,-252.104 685.547,-262.104 692.547,-262.104"/>
</g>
<!-- 35&#45;&gt;29 -->
<g id="edge45" class="edge"><title>35&#45;&gt;29</title>
<path fill="none" stroke="black" d="M790.047,-71.6966C790.047,-63.9827 790.047,-54.7125 790.047,-46.1124"/>
<polygon fill="black" stroke="black" points="793.547,-46.1043 790.047,-36.1043 786.547,-46.1044 793.547,-46.1043"/>
</g>
<!-- 36 -->
<g id="node37" class="node"><title>36</title>
<g id="a_node37"><a xlink:title="36, diversity: 1, multiplicities: 1, labels: 0">
<ellipse fill="#f7fcf5" stroke="black" cx="708.047" cy="-594" rx="41.6928" ry="18"/>
<text text-anchor="middle" x="708.047" y="-590.3" font-family="Times,serif" font-size="14.00">36 (1): 0</text>
</a>
</g>
</g>
<!-- 36&#45;&gt;32 -->
<g id="edge32" class="edge"><title>36&#45;&gt;32</title>
<path fill="none" stroke="black" d="M712.646,-576.055C714.762,-568.261 717.324,-558.822 719.697,-550.079"/>
<polygon fill="black" stroke="black" points="723.116,-550.843 722.358,-540.275 716.36,-549.009 723.116,-550.843"/>
</g>
<!-- 37&#45;&gt;28 -->
<g id="edge15" class="edge"><title>37&#45;&gt;28</title>
<path fill="none" stroke="black" d="M790.047,-287.697C790.047,-279.983 790.047,-270.712 790.047,-262.112"/>
<polygon fill="black" stroke="black" points="793.547,-262.104 790.047,-252.104 786.547,-262.104 793.547,-262.104"/>
</g>
<!-- 39 -->
<g id="node40" class="node"><title>39</title>
<g id="a_node40"><a xlink:title="39, diversity: 1, multiplicities: 1, labels: 0">
<ellipse fill="#f7fcf5" stroke="black" cx="689.047" cy="-90" rx="41.6928" ry="18"/>
<text text-anchor="middle" x="689.047" y="-86.3" font-family="Times,serif" font-size="14.00">39 (1): 0</text>
</a>
</g>
</g>
<!-- 38&#45;&gt;39 -->
<g id="edge35" class="edge"><title>38&#45;&gt;39</title>
<path fill="none" stroke="black" d="M689.047,-143.697C689.047,-135.983 689.047,-126.712 689.047,-118.112"/>
<polygon fill="black" stroke="black" points="692.547,-118.104 689.047,-108.104 685.547,-118.104 692.547,-118.104"/>
</g>
<!-- 39&#45;&gt;26 -->
<g id="edge16" class="edge"><title>39&#45;&gt;26</title>
<path fill="none" stroke="black" d="M689.047,-71.6966C689.047,-63.9827 689.047,-54.7125 689.047,-46.1124"/>
<polygon fill="black" stroke="black" points="692.547,-46.1043 689.047,-36.1043 685.547,-46.1044 692.547,-46.1043"/>
</g>
<!-- 40 -->
<g id="node41" class="node"><title>40</title>
<g id="a_node41"><a xlink:title="40, diversity: 1, multiplicities: 1, labels: 0">
<ellipse fill="#f7fcf5" stroke="black" cx="635.047" cy="-666" rx="41.6928" ry="18"/>
<text text-anchor="middle" x="635.047" y="-662.3" font-family="Times,serif" font-size="14.00">40 (1): 0</text>
</a>
</g>
</g>
<!-- 40&#45;&gt;36 -->
<g id="edge48" class="edge"><title>40&#45;&gt;36</title>
<path fill="none" stroke="black" d="M651.612,-649.116C661.293,-639.833 673.673,-627.961 684.37,-617.704"/>
<polygon fill="black" stroke="black" points="687.003,-620.028 691.799,-610.58 682.159,-614.975 687.003,-620.028"/>
</g>
<!-- 41&#45;&gt;40 -->
<g id="edge4" class="edge"><title>41&#45;&gt;40</title>
<path fill="none" stroke="black" d="M578.612,-721.116C588.293,-711.833 600.673,-699.961 611.37,-689.704"/>
<polygon fill="black" stroke="black" points="614.003,-692.028 618.799,-682.58 609.159,-686.975 614.003,-692.028"/>
</g>
<!-- 42 -->
<g id="node43" class="node"><title>42</title>
<g id="a_node43"><a xlink:title="42, diversity: 1, multiplicities: 2, labels: 0">
<ellipse fill="#f7fcf5" stroke="black" cx="613.047" cy="-522" rx="41.6928" ry="18"/>
<text text-anchor="middle" x="613.047" y="-518.3" font-family="Times,serif" font-size="14.00">42 (1): 0</text>
</a>
</g>
</g>
<!-- 43 -->
<g id="node44" class="node"><title>43</title>
<g id="a_node44"><a xlink:title="43, diversity: 1, multiplicities: 39, labels: 0">
<ellipse fill="#f7fcf5" stroke="black" cx="639.047" cy="-450" rx="41.6928" ry="18"/>
<text text-anchor="middle" x="639.047" y="-446.3" font-family="Times,serif" font-size="14.00">43 (1): 0</text>
</a>
</g>
</g>
<!-- 42&#45;&gt;43 -->
<g id="edge2" class="edge"><title>42&#45;&gt;43</title>
<path fill="none" stroke="black" d="M619.341,-504.055C622.267,-496.176 625.818,-486.617 629.095,-477.794"/>
<polygon fill="black" stroke="black" points="632.429,-478.868 632.63,-468.275 625.867,-476.431 632.429,-478.868"/>
</g>
<!-- 44&#45;&gt;42 -->
<g id="edge19" class="edge"><title>44&#45;&gt;42</title>
<path fill="none" stroke="black" d="M594.099,-576.055C596.912,-568.176 600.327,-558.617 603.477,-549.794"/>
<polygon fill="black" stroke="black" points="606.81,-550.87 606.877,-540.275 600.217,-548.516 606.81,-550.87"/>
</g>
<!-- 45 -->
<g id="node46" class="node"><title>45</title>
<g id="a_node46"><a xlink:title="45, diversity: 1, multiplicities: 26, labels: 0">
<ellipse fill="#f7fcf5" stroke="black" cx="235.047" cy="-162" rx="41.6928" ry="18"/>
<text text-anchor="middle" x="235.047" y="-158.3" font-family="Times,serif" font-size="14.00">45 (1): 0</text>
</a>
</g>
</g>
<!-- 47 -->
<g id="node48" class="node"><title>47</title>
<g id="a_node48"><a xlink:title="47, diversity: 2, multiplicities: 1,1, labels: 0">
<ellipse fill="#f7fcf5" stroke="black" cx="235.047" cy="-234" rx="41.6928" ry="18"/>
<text text-anchor="middle" x="235.047" y="-230.3" font-family="Times,serif" font-size="14.00">47 (2): 0</text>
</a>
</g>
</g>
<!-- 46&#45;&gt;47 -->
<g id="edge9" class="edge"><title>46&#45;&gt;47</title>
<path fill="none" stroke="black" d="M235.047,-287.697C235.047,-279.983 235.047,-270.712 235.047,-262.112"/>
<polygon fill="black" stroke="black" points="238.547,-262.104 235.047,-252.104 231.547,-262.104 238.547,-262.104"/>
</g>
<!-- 47&#45;&gt;45 -->
<g id="edge8" class="edge"><title>47&#45;&gt;45</title>
<path fill="none" stroke="black" d="M235.047,-215.697C235.047,-207.983 235.047,-198.712 235.047,-190.112"/>
<polygon fill="black" stroke="black" points="238.547,-190.104 235.047,-180.104 231.547,-190.104 238.547,-190.104"/>
</g>
</g>
</svg>
