<?xml version="1.0" encoding="UTF-8" standalone="no"?>
<!DOCTYPE svg PUBLIC "-//W3C//DTD SVG 1.1//EN"
 "http://www.w3.org/Graphics/SVG/1.1/DTD/svg11.dtd">
<!-- Generated by graphviz version 2.38.0 (20140413.2041)
 -->
<!-- Title: %3 Pages: 1 -->
<svg width="284pt" height="188pt"
 viewBox="0.00 0.00 283.50 188.00" xmlns="http://www.w3.org/2000/svg" xmlns:xlink="http://www.w3.org/1999/xlink">
<g id="graph0" class="graph" transform="scale(1 1) rotate(0) translate(4 184)">
<title>%3</title>
<polygon fill="white" stroke="none" points="-4,4 -4,-184 279.5,-184 279.5,4 -4,4"/>
<!-- p0 -->
<g id="node1" class="node"><title>p0</title>
<path fill="none" stroke="black" d="M77.5,-108C77.5,-108 42.5,-108 42.5,-108 36.5,-108 30.5,-102 30.5,-96 30.5,-96 30.5,-84 30.5,-84 30.5,-78 36.5,-72 42.5,-72 42.5,-72 77.5,-72 77.5,-72 83.5,-72 89.5,-78 89.5,-84 89.5,-84 89.5,-96 89.5,-96 89.5,-102 83.5,-108 77.5,-108"/>
<text text-anchor="middle" x="60" y="-86.3" font-family="Times,serif" font-size="14.00">path (3)</text>
</g>
<!-- v1 -->
<g id="node2" class="node"><title>v1</title>
<ellipse fill="none" stroke="black" cx="27" cy="-18" rx="27" ry="18"/>
<text text-anchor="middle" x="27" y="-14.3" font-family="Times,serif" font-size="14.00">1</text>
</g>
<!-- v2 -->
<g id="node3" class="node"><title>v2</title>
<ellipse fill="none" stroke="black" cx="99" cy="-18" rx="27" ry="18"/>
<text text-anchor="middle" x="99" y="-14.3" font-family="Times,serif" font-size="14.00">2</text>
</g>
<!-- v3 -->
<g id="node4" class="node"><title>v3</title>
<ellipse fill="none" stroke="black" cx="135" cy="-90" rx="27" ry="18"/>
<text text-anchor="middle" x="135" y="-86.3" font-family="Times,serif" font-size="14.00">3</text>
</g>
<!-- v3&#45;&gt;v1 -->
<g id="edge2" class="edge"><title>v3&#45;&gt;v1</title>
<path fill="none" stroke="black" d="M116.188,-76.8069C98.9979,-65.6653 73.3816,-49.0622 54.0067,-36.5043"/>
<polygon fill="black" stroke="black" points="55.8918,-33.5553 45.5966,-31.0533 52.0845,-39.4294 55.8918,-33.5553"/>
</g>
<!-- v3&#45;&gt;v2 -->
<g id="edge1" class="edge"><title>v3&#45;&gt;v2</title>
<path fill="none" stroke="black" d="M126.65,-72.7646C122.288,-64.2831 116.853,-53.7144 111.959,-44.1974"/>
<polygon fill="black" stroke="black" points="114.99,-42.4395 107.304,-35.1473 108.765,-45.6409 114.99,-42.4395"/>
</g>
<!-- v4 -->
<g id="node5" class="node"><title>v4</title>
<ellipse fill="none" stroke="black" cx="171" cy="-18" rx="27" ry="18"/>
<text text-anchor="middle" x="171" y="-14.3" font-family="Times,serif" font-size="14.00">4</text>
</g>
<!-- v3&#45;&gt;v4 -->
<g id="edge7" class="edge"><title>v3&#45;&gt;v4</title>
<path fill="none" stroke="black" d="M143.35,-72.7646C147.712,-64.2831 153.147,-53.7144 158.041,-44.1974"/>
<polygon fill="black" stroke="black" points="161.235,-45.6409 162.696,-35.1473 155.01,-42.4395 161.235,-45.6409"/>
</g>
<!-- p2 -->
<g id="node8" class="node"><title>p2</title>
<path fill="none" stroke="black" d="M263.5,-36C263.5,-36 228.5,-36 228.5,-36 222.5,-36 216.5,-30 216.5,-24 216.5,-24 216.5,-12 216.5,-12 216.5,-6 222.5,-0 228.5,-0 228.5,-0 263.5,-0 263.5,-0 269.5,-0 275.5,-6 275.5,-12 275.5,-12 275.5,-24 275.5,-24 275.5,-30 269.5,-36 263.5,-36"/>
<text text-anchor="middle" x="246" y="-14.3" font-family="Times,serif" font-size="14.00">path (2)</text>
</g>
<!-- v3&#45;&gt;p2 -->
<g id="edge4" class="edge"><title>v3&#45;&gt;p2</title>
<path fill="none" stroke="black" d="M154.082,-76.9666C169.493,-67.2478 191.611,-53.2992 210.289,-41.5203"/>
<polygon fill="black" stroke="black" points="212.273,-44.4075 218.864,-36.1127 208.539,-38.4865 212.273,-44.4075"/>
</g>
<!-- p1 -->
<g id="node6" class="node"><title>p1</title>
<path fill="none" stroke="black" d="M227.5,-108C227.5,-108 192.5,-108 192.5,-108 186.5,-108 180.5,-102 180.5,-96 180.5,-96 180.5,-84 180.5,-84 180.5,-78 186.5,-72 192.5,-72 192.5,-72 227.5,-72 227.5,-72 233.5,-72 239.5,-78 239.5,-84 239.5,-84 239.5,-96 239.5,-96 239.5,-102 233.5,-108 227.5,-108"/>
<text text-anchor="middle" x="210" y="-86.3" font-family="Times,serif" font-size="14.00">path (5)</text>
</g>
<!-- v8 -->
<g id="node7" class="node"><title>v8</title>
<ellipse fill="none" stroke="black" cx="135" cy="-162" rx="27" ry="18"/>
<text text-anchor="middle" x="135" y="-158.3" font-family="Times,serif" font-size="14.00">8</text>
</g>
<!-- v8&#45;&gt;p0 -->
<g id="edge5" class="edge"><title>v8&#45;&gt;p0</title>
<path fill="none" stroke="black" d="M119.823,-146.834C110.085,-137.746 97.1898,-125.71 85.8657,-115.141"/>
<polygon fill="black" stroke="black" points="88.0338,-112.377 78.3351,-108.113 83.2575,-117.495 88.0338,-112.377"/>
</g>
<!-- v8&#45;&gt;v3 -->
<g id="edge6" class="edge"><title>v8&#45;&gt;v3</title>
<path fill="none" stroke="black" d="M135,-143.697C135,-135.983 135,-126.712 135,-118.112"/>
<polygon fill="black" stroke="black" points="138.5,-118.104 135,-108.104 131.5,-118.104 138.5,-118.104"/>
</g>
<!-- v8&#45;&gt;p1 -->
<g id="edge3" class="edge"><title>v8&#45;&gt;p1</title>
<path fill="none" stroke="black" d="M150.177,-146.834C159.915,-137.746 172.81,-125.71 184.134,-115.141"/>
<polygon fill="black" stroke="black" points="186.742,-117.495 191.665,-108.113 181.966,-112.377 186.742,-117.495"/>
</g>
</g>
</svg>
