<?xml version="1.0" encoding="UTF-8" standalone="no"?>
<!DOCTYPE svg PUBLIC "-//W3C//DTD SVG 1.1//EN"
 "http://www.w3.org/Graphics/SVG/1.1/DTD/svg11.dtd">
<!-- Generated by graphviz version 2.38.0 (20140413.2041)
 -->
<!-- Title: %3 Pages: 1 -->
<svg width="362pt" height="332pt"
 viewBox="0.00 0.00 361.50 332.00" xmlns="http://www.w3.org/2000/svg" xmlns:xlink="http://www.w3.org/1999/xlink">
<g id="graph0" class="graph" transform="scale(1 1) rotate(0) translate(4 328)">
<title>%3</title>
<polygon fill="white" stroke="none" points="-4,4 -4,-328 357.5,-328 357.5,4 -4,4"/>
<!-- v0 -->
<g id="node1" class="node"><title>v0</title>
<ellipse fill="none" stroke="black" cx="174" cy="-306" rx="27" ry="18"/>
<text text-anchor="middle" x="174" y="-302.3" font-family="Times,serif" font-size="14.00">0</text>
</g>
<!-- v1 -->
<g id="node2" class="node"><title>v1</title>
<ellipse fill="none" stroke="black" cx="27" cy="-234" rx="27" ry="18"/>
<text text-anchor="middle" x="27" y="-230.3" font-family="Times,serif" font-size="14.00">1</text>
</g>
<!-- v0&#45;&gt;v1 -->
<g id="edge1" class="edge"><title>v0&#45;&gt;v1</title>
<path fill="none" stroke="black" d="M152.625,-294.821C127.585,-282.898 85.9169,-263.056 57.4904,-249.519"/>
<polygon fill="black" stroke="black" points="58.9343,-246.33 48.4009,-245.191 55.9247,-252.65 58.9343,-246.33"/>
</g>
<!-- v3 -->
<g id="node4" class="node"><title>v3</title>
<ellipse fill="none" stroke="black" cx="99" cy="-234" rx="27" ry="18"/>
<text text-anchor="middle" x="99" y="-230.3" font-family="Times,serif" font-size="14.00">3</text>
</g>
<!-- v0&#45;&gt;v3 -->
<g id="edge11" class="edge"><title>v0&#45;&gt;v3</title>
<path fill="none" stroke="black" d="M158.823,-290.834C148.149,-280.872 133.681,-267.369 121.647,-256.137"/>
<polygon fill="black" stroke="black" points="123.854,-253.409 114.155,-249.144 119.077,-258.526 123.854,-253.409"/>
</g>
<!-- p0 -->
<g id="node6" class="node"><title>p0</title>
<path fill="none" stroke="black" d="M191.5,-252C191.5,-252 156.5,-252 156.5,-252 150.5,-252 144.5,-246 144.5,-240 144.5,-240 144.5,-228 144.5,-228 144.5,-222 150.5,-216 156.5,-216 156.5,-216 191.5,-216 191.5,-216 197.5,-216 203.5,-222 203.5,-228 203.5,-228 203.5,-240 203.5,-240 203.5,-246 197.5,-252 191.5,-252"/>
<text text-anchor="middle" x="174" y="-230.3" font-family="Times,serif" font-size="14.00">path (3)</text>
</g>
<!-- v0&#45;&gt;p0 -->
<g id="edge8" class="edge"><title>v0&#45;&gt;p0</title>
<path fill="none" stroke="black" d="M174,-287.697C174,-279.983 174,-270.712 174,-262.112"/>
<polygon fill="black" stroke="black" points="177.5,-262.104 174,-252.104 170.5,-262.104 177.5,-262.104"/>
</g>
<!-- v8 -->
<g id="node8" class="node"><title>v8</title>
<ellipse fill="none" stroke="black" cx="249" cy="-234" rx="27" ry="18"/>
<text text-anchor="middle" x="249" y="-230.3" font-family="Times,serif" font-size="14.00">8</text>
</g>
<!-- v0&#45;&gt;v8 -->
<g id="edge12" class="edge"><title>v0&#45;&gt;v8</title>
<path fill="none" stroke="black" d="M189.177,-290.834C199.851,-280.872 214.319,-267.369 226.353,-256.137"/>
<polygon fill="black" stroke="black" points="228.923,-258.526 233.845,-249.144 224.146,-253.409 228.923,-258.526"/>
</g>
<!-- p1 -->
<g id="node11" class="node"><title>p1</title>
<path fill="none" stroke="black" d="M341.5,-252C341.5,-252 306.5,-252 306.5,-252 300.5,-252 294.5,-246 294.5,-240 294.5,-240 294.5,-228 294.5,-228 294.5,-222 300.5,-216 306.5,-216 306.5,-216 341.5,-216 341.5,-216 347.5,-216 353.5,-222 353.5,-228 353.5,-228 353.5,-240 353.5,-240 353.5,-246 347.5,-252 341.5,-252"/>
<text text-anchor="middle" x="324" y="-230.3" font-family="Times,serif" font-size="14.00">path (2)</text>
</g>
<!-- v0&#45;&gt;p1 -->
<g id="edge6" class="edge"><title>v0&#45;&gt;p1</title>
<path fill="none" stroke="black" d="M195.491,-294.971C218.781,-284.102 256.435,-266.53 284.979,-253.21"/>
<polygon fill="black" stroke="black" points="286.693,-256.272 294.275,-248.872 283.733,-249.929 286.693,-256.272"/>
</g>
<!-- v2 -->
<g id="node3" class="node"><title>v2</title>
<ellipse fill="none" stroke="black" cx="27" cy="-90" rx="27" ry="18"/>
<text text-anchor="middle" x="27" y="-86.3" font-family="Times,serif" font-size="14.00">2</text>
</g>
<!-- v4 -->
<g id="node5" class="node"><title>v4</title>
<ellipse fill="none" stroke="black" cx="99" cy="-162" rx="27" ry="18"/>
<text text-anchor="middle" x="99" y="-158.3" font-family="Times,serif" font-size="14.00">4</text>
</g>
<!-- v3&#45;&gt;v4 -->
<g id="edge13" class="edge"><title>v3&#45;&gt;v4</title>
<path fill="none" stroke="black" d="M99,-215.697C99,-207.983 99,-198.712 99,-190.112"/>
<polygon fill="black" stroke="black" points="102.5,-190.104 99,-180.104 95.5001,-190.104 102.5,-190.104"/>
</g>
<!-- v4&#45;&gt;v2 -->
<g id="edge10" class="edge"><title>v4&#45;&gt;v2</title>
<path fill="none" stroke="black" d="M84.4297,-146.834C74.2501,-136.938 60.4761,-123.546 48.9694,-112.359"/>
<polygon fill="black" stroke="black" points="51.4055,-109.846 41.7957,-105.385 46.5259,-114.865 51.4055,-109.846"/>
</g>
<!-- v7 -->
<g id="node7" class="node"><title>v7</title>
<ellipse fill="none" stroke="black" cx="99" cy="-90" rx="27" ry="18"/>
<text text-anchor="middle" x="99" y="-86.3" font-family="Times,serif" font-size="14.00">7</text>
</g>
<!-- v4&#45;&gt;v7 -->
<g id="edge2" class="edge"><title>v4&#45;&gt;v7</title>
<path fill="none" stroke="black" d="M99,-143.697C99,-135.983 99,-126.712 99,-118.112"/>
<polygon fill="black" stroke="black" points="102.5,-118.104 99,-108.104 95.5001,-118.104 102.5,-118.104"/>
</g>
<!-- v12 -->
<g id="node12" class="node"><title>v12</title>
<ellipse fill="none" stroke="black" cx="171" cy="-90" rx="27" ry="18"/>
<text text-anchor="middle" x="171" y="-86.3" font-family="Times,serif" font-size="14.00">12</text>
</g>
<!-- v4&#45;&gt;v12 -->
<g id="edge7" class="edge"><title>v4&#45;&gt;v12</title>
<path fill="none" stroke="black" d="M113.57,-146.834C123.75,-136.938 137.524,-123.546 149.031,-112.359"/>
<polygon fill="black" stroke="black" points="151.474,-114.865 156.204,-105.385 146.595,-109.846 151.474,-114.865"/>
</g>
<!-- v9 -->
<g id="node9" class="node"><title>v9</title>
<ellipse fill="none" stroke="black" cx="213" cy="-162" rx="27" ry="18"/>
<text text-anchor="middle" x="213" y="-158.3" font-family="Times,serif" font-size="14.00">9</text>
</g>
<!-- v8&#45;&gt;v9 -->
<g id="edge4" class="edge"><title>v8&#45;&gt;v9</title>
<path fill="none" stroke="black" d="M240.65,-216.765C236.288,-208.283 230.853,-197.714 225.959,-188.197"/>
<polygon fill="black" stroke="black" points="228.99,-186.439 221.304,-179.147 222.765,-189.641 228.99,-186.439"/>
</g>
<!-- v16 -->
<g id="node14" class="node"><title>v16</title>
<ellipse fill="none" stroke="black" cx="285" cy="-162" rx="27" ry="18"/>
<text text-anchor="middle" x="285" y="-158.3" font-family="Times,serif" font-size="14.00">16</text>
</g>
<!-- v8&#45;&gt;v16 -->
<g id="edge3" class="edge"><title>v8&#45;&gt;v16</title>
<path fill="none" stroke="black" d="M257.35,-216.765C261.712,-208.283 267.147,-197.714 272.041,-188.197"/>
<polygon fill="black" stroke="black" points="275.235,-189.641 276.696,-179.147 269.01,-186.439 275.235,-189.641"/>
</g>
<!-- v10 -->
<g id="node10" class="node"><title>v10</title>
<ellipse fill="none" stroke="black" cx="133" cy="-18" rx="27" ry="18"/>
<text text-anchor="middle" x="133" y="-14.3" font-family="Times,serif" font-size="14.00">10</text>
</g>
<!-- v12&#45;&gt;v10 -->
<g id="edge9" class="edge"><title>v12&#45;&gt;v10</title>
<path fill="none" stroke="black" d="M162.187,-72.7646C157.582,-64.2831 151.845,-53.7144 146.679,-44.1974"/>
<polygon fill="black" stroke="black" points="149.613,-42.266 141.766,-35.1473 143.461,-45.6057 149.613,-42.266"/>
</g>
<!-- p2 -->
<g id="node13" class="node"><title>p2</title>
<path fill="none" stroke="black" d="M225.5,-36C225.5,-36 190.5,-36 190.5,-36 184.5,-36 178.5,-30 178.5,-24 178.5,-24 178.5,-12 178.5,-12 178.5,-6 184.5,-0 190.5,-0 190.5,-0 225.5,-0 225.5,-0 231.5,-0 237.5,-6 237.5,-12 237.5,-12 237.5,-24 237.5,-24 237.5,-30 231.5,-36 225.5,-36"/>
<text text-anchor="middle" x="208" y="-14.3" font-family="Times,serif" font-size="14.00">path (3)</text>
</g>
<!-- v12&#45;&gt;p2 -->
<g id="edge5" class="edge"><title>v12&#45;&gt;p2</title>
<path fill="none" stroke="black" d="M179.582,-72.7646C183.937,-64.5255 189.333,-54.3166 194.249,-45.0157"/>
<polygon fill="black" stroke="black" points="197.37,-46.6005 198.949,-36.1239 191.181,-43.3293 197.37,-46.6005"/>
</g>
</g>
</svg>
