<?xml version="1.0" encoding="UTF-8" standalone="no"?>
<!DOCTYPE svg PUBLIC "-//W3C//DTD SVG 1.1//EN"
 "http://www.w3.org/Graphics/SVG/1.1/DTD/svg11.dtd">
<!-- Generated by graphviz version 2.38.0 (20140413.2041)
 -->
<!-- Title: %3 Pages: 1 -->
<svg width="289pt" height="260pt"
 viewBox="0.00 0.00 288.50 260.00" xmlns="http://www.w3.org/2000/svg" xmlns:xlink="http://www.w3.org/1999/xlink">
<g id="graph0" class="graph" transform="scale(1 1) rotate(0) translate(4 256)">
<title>%3</title>
<polygon fill="white" stroke="none" points="-4,4 -4,-256 284.5,-256 284.5,4 -4,4"/>
<!-- v0 -->
<g id="node1" class="node"><title>v0</title>
<ellipse fill="none" stroke="black" cx="27" cy="-162" rx="27" ry="18"/>
<text text-anchor="middle" x="27" y="-158.3" font-family="Times,serif" font-size="14.00">0</text>
</g>
<!-- v1 -->
<g id="node2" class="node"><title>v1</title>
<ellipse fill="none" stroke="black" cx="136" cy="-234" rx="27" ry="18"/>
<text text-anchor="middle" x="136" y="-230.3" font-family="Times,serif" font-size="14.00">1</text>
</g>
<!-- v1&#45;&gt;v0 -->
<g id="edge7" class="edge"><title>v1&#45;&gt;v0</title>
<path fill="none" stroke="black" d="M117.014,-220.807C99.6645,-209.665 73.8111,-193.062 54.2568,-180.504"/>
<polygon fill="black" stroke="black" points="56.0744,-177.512 45.7688,-175.053 52.2918,-183.402 56.0744,-177.512"/>
</g>
<!-- v2 -->
<g id="node3" class="node"><title>v2</title>
<ellipse fill="none" stroke="black" cx="99" cy="-162" rx="27" ry="18"/>
<text text-anchor="middle" x="99" y="-158.3" font-family="Times,serif" font-size="14.00">2</text>
</g>
<!-- v1&#45;&gt;v2 -->
<g id="edge1" class="edge"><title>v1&#45;&gt;v2</title>
<path fill="none" stroke="black" d="M127.418,-216.765C122.935,-208.283 117.349,-197.714 112.319,-188.197"/>
<polygon fill="black" stroke="black" points="115.302,-186.353 107.535,-179.147 109.114,-189.624 115.302,-186.353"/>
</g>
<!-- p0 -->
<g id="node4" class="node"><title>p0</title>
<path fill="none" stroke="black" d="M191.5,-180C191.5,-180 156.5,-180 156.5,-180 150.5,-180 144.5,-174 144.5,-168 144.5,-168 144.5,-156 144.5,-156 144.5,-150 150.5,-144 156.5,-144 156.5,-144 191.5,-144 191.5,-144 197.5,-144 203.5,-150 203.5,-156 203.5,-156 203.5,-168 203.5,-168 203.5,-174 197.5,-180 191.5,-180"/>
<text text-anchor="middle" x="174" y="-158.3" font-family="Times,serif" font-size="14.00">path (3)</text>
</g>
<!-- v1&#45;&gt;p0 -->
<g id="edge2" class="edge"><title>v1&#45;&gt;p0</title>
<path fill="none" stroke="black" d="M144.813,-216.765C149.286,-208.525 154.828,-198.317 159.877,-189.016"/>
<polygon fill="black" stroke="black" points="163.009,-190.582 164.704,-180.124 156.857,-187.243 163.009,-190.582"/>
</g>
<!-- p1 -->
<g id="node5" class="node"><title>p1</title>
<path fill="none" stroke="black" d="M268.5,-180C268.5,-180 233.5,-180 233.5,-180 227.5,-180 221.5,-174 221.5,-168 221.5,-168 221.5,-156 221.5,-156 221.5,-150 227.5,-144 233.5,-144 233.5,-144 268.5,-144 268.5,-144 274.5,-144 280.5,-150 280.5,-156 280.5,-156 280.5,-168 280.5,-168 280.5,-174 274.5,-180 268.5,-180"/>
<text text-anchor="middle" x="251" y="-158.3" font-family="Times,serif" font-size="14.00">path (2)</text>
</g>
<!-- v1&#45;&gt;p1 -->
<g id="edge5" class="edge"><title>v1&#45;&gt;p1</title>
<path fill="none" stroke="black" d="M155.248,-221.284C171.329,-211.496 194.713,-197.262 214.347,-185.311"/>
<polygon fill="black" stroke="black" points="216.342,-188.194 223.064,-180.004 212.702,-182.214 216.342,-188.194"/>
</g>
<!-- v8 -->
<g id="node7" class="node"><title>v8</title>
<ellipse fill="none" stroke="black" cx="99" cy="-90" rx="27" ry="18"/>
<text text-anchor="middle" x="99" y="-86.3" font-family="Times,serif" font-size="14.00">8</text>
</g>
<!-- v2&#45;&gt;v8 -->
<g id="edge3" class="edge"><title>v2&#45;&gt;v8</title>
<path fill="none" stroke="black" d="M99,-143.697C99,-135.983 99,-126.712 99,-118.112"/>
<polygon fill="black" stroke="black" points="102.5,-118.104 99,-108.104 95.5001,-118.104 102.5,-118.104"/>
</g>
<!-- p2 -->
<g id="node6" class="node"><title>p2</title>
<path fill="none" stroke="black" d="M79.5,-36C79.5,-36 44.5,-36 44.5,-36 38.5,-36 32.5,-30 32.5,-24 32.5,-24 32.5,-12 32.5,-12 32.5,-6 38.5,-0 44.5,-0 44.5,-0 79.5,-0 79.5,-0 85.5,-0 91.5,-6 91.5,-12 91.5,-12 91.5,-24 91.5,-24 91.5,-30 85.5,-36 79.5,-36"/>
<text text-anchor="middle" x="62" y="-14.3" font-family="Times,serif" font-size="14.00">path (3)</text>
</g>
<!-- v8&#45;&gt;p2 -->
<g id="edge6" class="edge"><title>v8&#45;&gt;p2</title>
<path fill="none" stroke="black" d="M90.4185,-72.7646C86.0635,-64.5255 80.6674,-54.3166 75.7511,-45.0157"/>
<polygon fill="black" stroke="black" points="78.8187,-43.3293 71.0512,-36.1239 72.63,-46.6005 78.8187,-43.3293"/>
</g>
<!-- v10 -->
<g id="node8" class="node"><title>v10</title>
<ellipse fill="none" stroke="black" cx="137" cy="-18" rx="27" ry="18"/>
<text text-anchor="middle" x="137" y="-14.3" font-family="Times,serif" font-size="14.00">10</text>
</g>
<!-- v8&#45;&gt;v10 -->
<g id="edge4" class="edge"><title>v8&#45;&gt;v10</title>
<path fill="none" stroke="black" d="M107.813,-72.7646C112.418,-64.2831 118.155,-53.7144 123.321,-44.1974"/>
<polygon fill="black" stroke="black" points="126.539,-45.6057 128.234,-35.1473 120.387,-42.266 126.539,-45.6057"/>
</g>
</g>
</svg>
