<?xml version="1.0" encoding="UTF-8" standalone="no"?>
<!DOCTYPE svg PUBLIC "-//W3C//DTD SVG 1.1//EN"
 "http://www.w3.org/Graphics/SVG/1.1/DTD/svg11.dtd">
<!-- Generated by graphviz version 2.38.0 (20140413.2041)
 -->
<!-- Title: %3 Pages: 1 -->
<svg width="663pt" height="548pt"
 viewBox="0.00 0.00 662.50 548.00" xmlns="http://www.w3.org/2000/svg" xmlns:xlink="http://www.w3.org/1999/xlink">
<g id="graph0" class="graph" transform="scale(1 1) rotate(0) translate(4 544)">
<title>%3</title>
<polygon fill="white" stroke="none" points="-4,4 -4,-544 658.5,-544 658.5,4 -4,4"/>
<!-- v0 -->
<g id="node1" class="node"><title>v0</title>
<ellipse fill="none" stroke="black" cx="63" cy="-378" rx="27" ry="18"/>
<text text-anchor="middle" x="63" y="-374.3" font-family="Times,serif" font-size="14.00">0</text>
</g>
<!-- v50 -->
<g id="node30" class="node"><title>v50</title>
<ellipse fill="none" stroke="black" cx="27" cy="-306" rx="27" ry="18"/>
<text text-anchor="middle" x="27" y="-302.3" font-family="Times,serif" font-size="14.00">50</text>
</g>
<!-- v0&#45;&gt;v50 -->
<g id="edge7" class="edge"><title>v0&#45;&gt;v50</title>
<path fill="none" stroke="black" d="M54.6504,-360.765C50.2885,-352.283 44.8531,-341.714 39.9587,-332.197"/>
<polygon fill="black" stroke="black" points="42.9904,-330.439 35.3043,-323.147 36.7654,-333.641 42.9904,-330.439"/>
</g>
<!-- v54 -->
<g id="node32" class="node"><title>v54</title>
<ellipse fill="none" stroke="black" cx="99" cy="-306" rx="27" ry="18"/>
<text text-anchor="middle" x="99" y="-302.3" font-family="Times,serif" font-size="14.00">54</text>
</g>
<!-- v0&#45;&gt;v54 -->
<g id="edge12" class="edge"><title>v0&#45;&gt;v54</title>
<path fill="none" stroke="black" d="M71.3496,-360.765C75.7115,-352.283 81.1469,-341.714 86.0413,-332.197"/>
<polygon fill="black" stroke="black" points="89.2346,-333.641 90.6957,-323.147 83.0096,-330.439 89.2346,-333.641"/>
</g>
<!-- v1 -->
<g id="node2" class="node"><title>v1</title>
<ellipse fill="none" stroke="black" cx="282" cy="-450" rx="27" ry="18"/>
<text text-anchor="middle" x="282" y="-446.3" font-family="Times,serif" font-size="14.00">1</text>
</g>
<!-- v1&#45;&gt;v0 -->
<g id="edge30" class="edge"><title>v1&#45;&gt;v0</title>
<path fill="none" stroke="black" d="M257.024,-443.111C221.408,-434.412 154.225,-416.884 99,-396 97.1575,-395.303 95.279,-394.551 93.3955,-393.764"/>
<polygon fill="black" stroke="black" points="94.6389,-390.487 84.078,-389.639 91.8051,-396.888 94.6389,-390.487"/>
</g>
<!-- v4 -->
<g id="node5" class="node"><title>v4</title>
<ellipse fill="none" stroke="black" cx="135" cy="-378" rx="27" ry="18"/>
<text text-anchor="middle" x="135" y="-374.3" font-family="Times,serif" font-size="14.00">4</text>
</g>
<!-- v1&#45;&gt;v4 -->
<g id="edge27" class="edge"><title>v1&#45;&gt;v4</title>
<path fill="none" stroke="black" d="M260.625,-438.821C235.585,-426.898 193.917,-407.056 165.49,-393.519"/>
<polygon fill="black" stroke="black" points="166.934,-390.33 156.401,-389.191 163.925,-396.65 166.934,-390.33"/>
</g>
<!-- v44 -->
<g id="node25" class="node"><title>v44</title>
<ellipse fill="none" stroke="black" cx="207" cy="-378" rx="27" ry="18"/>
<text text-anchor="middle" x="207" y="-374.3" font-family="Times,serif" font-size="14.00">44</text>
</g>
<!-- v1&#45;&gt;v44 -->
<g id="edge23" class="edge"><title>v1&#45;&gt;v44</title>
<path fill="none" stroke="black" d="M266.823,-434.834C256.149,-424.872 241.681,-411.369 229.647,-400.137"/>
<polygon fill="black" stroke="black" points="231.854,-397.409 222.155,-393.144 227.077,-402.526 231.854,-397.409"/>
</g>
<!-- p14 -->
<g id="node28" class="node"><title>p14</title>
<path fill="none" stroke="black" d="M299.5,-396C299.5,-396 264.5,-396 264.5,-396 258.5,-396 252.5,-390 252.5,-384 252.5,-384 252.5,-372 252.5,-372 252.5,-366 258.5,-360 264.5,-360 264.5,-360 299.5,-360 299.5,-360 305.5,-360 311.5,-366 311.5,-372 311.5,-372 311.5,-384 311.5,-384 311.5,-390 305.5,-396 299.5,-396"/>
<text text-anchor="middle" x="282" y="-374.3" font-family="Times,serif" font-size="14.00">path (2)</text>
</g>
<!-- v1&#45;&gt;p14 -->
<g id="edge3" class="edge"><title>v1&#45;&gt;p14</title>
<path fill="none" stroke="black" d="M282,-431.697C282,-423.983 282,-414.712 282,-406.112"/>
<polygon fill="black" stroke="black" points="285.5,-406.104 282,-396.104 278.5,-406.104 285.5,-406.104"/>
</g>
<!-- v49 -->
<g id="node29" class="node"><title>v49</title>
<ellipse fill="none" stroke="black" cx="357" cy="-378" rx="27" ry="18"/>
<text text-anchor="middle" x="357" y="-374.3" font-family="Times,serif" font-size="14.00">49</text>
</g>
<!-- v1&#45;&gt;v49 -->
<g id="edge36" class="edge"><title>v1&#45;&gt;v49</title>
<path fill="none" stroke="black" d="M297.177,-434.834C307.851,-424.872 322.319,-411.369 334.353,-400.137"/>
<polygon fill="black" stroke="black" points="336.923,-402.526 341.845,-393.144 332.146,-397.409 336.923,-402.526"/>
</g>
<!-- p16 -->
<g id="node39" class="node"><title>p16</title>
<path fill="none" stroke="black" d="M449.5,-396C449.5,-396 414.5,-396 414.5,-396 408.5,-396 402.5,-390 402.5,-384 402.5,-384 402.5,-372 402.5,-372 402.5,-366 408.5,-360 414.5,-360 414.5,-360 449.5,-360 449.5,-360 455.5,-360 461.5,-366 461.5,-372 461.5,-372 461.5,-384 461.5,-384 461.5,-390 455.5,-396 449.5,-396"/>
<text text-anchor="middle" x="432" y="-374.3" font-family="Times,serif" font-size="14.00">path (2)</text>
</g>
<!-- v1&#45;&gt;p16 -->
<g id="edge16" class="edge"><title>v1&#45;&gt;p16</title>
<path fill="none" stroke="black" d="M303.491,-438.971C326.781,-428.102 364.435,-410.53 392.979,-397.21"/>
<polygon fill="black" stroke="black" points="394.693,-400.272 402.275,-392.872 391.733,-393.929 394.693,-400.272"/>
</g>
<!-- p0 -->
<g id="node3" class="node"><title>p0</title>
<path fill="none" stroke="black" d="M449.5,-468C449.5,-468 414.5,-468 414.5,-468 408.5,-468 402.5,-462 402.5,-456 402.5,-456 402.5,-444 402.5,-444 402.5,-438 408.5,-432 414.5,-432 414.5,-432 449.5,-432 449.5,-432 455.5,-432 461.5,-438 461.5,-444 461.5,-444 461.5,-456 461.5,-456 461.5,-462 455.5,-468 449.5,-468"/>
<text text-anchor="middle" x="432" y="-446.3" font-family="Times,serif" font-size="14.00">path (4)</text>
</g>
<!-- v55 -->
<g id="node33" class="node"><title>v55</title>
<ellipse fill="none" stroke="black" cx="507" cy="-378" rx="27" ry="18"/>
<text text-anchor="middle" x="507" y="-374.3" font-family="Times,serif" font-size="14.00">55</text>
</g>
<!-- p0&#45;&gt;v55 -->
<g id="edge39" class="edge"><title>p0&#45;&gt;v55</title>
<path fill="none" stroke="black" d="M450.539,-431.697C460.732,-422.184 473.46,-410.304 484.251,-400.233"/>
<polygon fill="black" stroke="black" points="486.779,-402.661 491.701,-393.279 482.002,-397.543 486.779,-402.661"/>
</g>
<!-- v3 -->
<g id="node4" class="node"><title>v3</title>
<ellipse fill="none" stroke="black" cx="357" cy="-522" rx="27" ry="18"/>
<text text-anchor="middle" x="357" y="-518.3" font-family="Times,serif" font-size="14.00">3</text>
</g>
<!-- v3&#45;&gt;v1 -->
<g id="edge35" class="edge"><title>v3&#45;&gt;v1</title>
<path fill="none" stroke="black" d="M341.823,-506.834C331.149,-496.872 316.681,-483.369 304.647,-472.137"/>
<polygon fill="black" stroke="black" points="306.854,-469.409 297.155,-465.144 302.077,-474.526 306.854,-469.409"/>
</g>
<!-- v3&#45;&gt;p0 -->
<g id="edge22" class="edge"><title>v3&#45;&gt;p0</title>
<path fill="none" stroke="black" d="M372.177,-506.834C381.915,-497.746 394.81,-485.71 406.134,-475.141"/>
<polygon fill="black" stroke="black" points="408.742,-477.495 413.665,-468.113 403.966,-472.377 408.742,-477.495"/>
</g>
<!-- v5 -->
<g id="node6" class="node"><title>v5</title>
<ellipse fill="none" stroke="black" cx="473" cy="-306" rx="27" ry="18"/>
<text text-anchor="middle" x="473" y="-302.3" font-family="Times,serif" font-size="14.00">5</text>
</g>
<!-- p2 -->
<g id="node8" class="node"><title>p2</title>
<path fill="none" stroke="black" d="M340.5,-252C340.5,-252 305.5,-252 305.5,-252 299.5,-252 293.5,-246 293.5,-240 293.5,-240 293.5,-228 293.5,-228 293.5,-222 299.5,-216 305.5,-216 305.5,-216 340.5,-216 340.5,-216 346.5,-216 352.5,-222 352.5,-228 352.5,-228 352.5,-240 352.5,-240 352.5,-246 346.5,-252 340.5,-252"/>
<text text-anchor="middle" x="323" y="-230.3" font-family="Times,serif" font-size="14.00">path (2)</text>
</g>
<!-- v5&#45;&gt;p2 -->
<g id="edge28" class="edge"><title>v5&#45;&gt;p2</title>
<path fill="none" stroke="black" d="M451.509,-294.971C428.219,-284.102 390.565,-266.53 362.021,-253.21"/>
<polygon fill="black" stroke="black" points="363.267,-249.929 352.725,-248.872 360.307,-256.272 363.267,-249.929"/>
</g>
<!-- v11 -->
<g id="node12" class="node"><title>v11</title>
<ellipse fill="none" stroke="black" cx="398" cy="-234" rx="27" ry="18"/>
<text text-anchor="middle" x="398" y="-230.3" font-family="Times,serif" font-size="14.00">11</text>
</g>
<!-- v5&#45;&gt;v11 -->
<g id="edge24" class="edge"><title>v5&#45;&gt;v11</title>
<path fill="none" stroke="black" d="M457.823,-290.834C447.149,-280.872 432.681,-267.369 420.647,-256.137"/>
<polygon fill="black" stroke="black" points="422.854,-253.409 413.155,-249.144 418.077,-258.526 422.854,-253.409"/>
</g>
<!-- p5 -->
<g id="node14" class="node"><title>p5</title>
<path fill="none" stroke="black" d="M490.5,-252C490.5,-252 455.5,-252 455.5,-252 449.5,-252 443.5,-246 443.5,-240 443.5,-240 443.5,-228 443.5,-228 443.5,-222 449.5,-216 455.5,-216 455.5,-216 490.5,-216 490.5,-216 496.5,-216 502.5,-222 502.5,-228 502.5,-228 502.5,-240 502.5,-240 502.5,-246 496.5,-252 490.5,-252"/>
<text text-anchor="middle" x="473" y="-230.3" font-family="Times,serif" font-size="14.00">path (2)</text>
</g>
<!-- v5&#45;&gt;p5 -->
<g id="edge25" class="edge"><title>v5&#45;&gt;p5</title>
<path fill="none" stroke="black" d="M473,-287.697C473,-279.983 473,-270.712 473,-262.112"/>
<polygon fill="black" stroke="black" points="476.5,-262.104 473,-252.104 469.5,-262.104 476.5,-262.104"/>
</g>
<!-- p6 -->
<g id="node16" class="node"><title>p6</title>
<path fill="none" stroke="black" d="M567.5,-252C567.5,-252 532.5,-252 532.5,-252 526.5,-252 520.5,-246 520.5,-240 520.5,-240 520.5,-228 520.5,-228 520.5,-222 526.5,-216 532.5,-216 532.5,-216 567.5,-216 567.5,-216 573.5,-216 579.5,-222 579.5,-228 579.5,-228 579.5,-240 579.5,-240 579.5,-246 573.5,-252 567.5,-252"/>
<text text-anchor="middle" x="550" y="-230.3" font-family="Times,serif" font-size="14.00">path (4)</text>
</g>
<!-- v5&#45;&gt;p6 -->
<g id="edge37" class="edge"><title>v5&#45;&gt;p6</title>
<path fill="none" stroke="black" d="M488.582,-290.834C498.579,-281.746 511.818,-269.71 523.445,-259.141"/>
<polygon fill="black" stroke="black" points="526.131,-261.429 531.176,-252.113 521.422,-256.25 526.131,-261.429"/>
</g>
<!-- p1 -->
<g id="node7" class="node"><title>p1</title>
<path fill="none" stroke="black" d="M317.5,-36C317.5,-36 282.5,-36 282.5,-36 276.5,-36 270.5,-30 270.5,-24 270.5,-24 270.5,-12 270.5,-12 270.5,-6 276.5,-0 282.5,-0 282.5,-0 317.5,-0 317.5,-0 323.5,-0 329.5,-6 329.5,-12 329.5,-12 329.5,-24 329.5,-24 329.5,-30 323.5,-36 317.5,-36"/>
<text text-anchor="middle" x="300" y="-14.3" font-family="Times,serif" font-size="14.00">path (2)</text>
</g>
<!-- v8 -->
<g id="node9" class="node"><title>v8</title>
<ellipse fill="none" stroke="black" cx="381" cy="-90" rx="27" ry="18"/>
<text text-anchor="middle" x="381" y="-86.3" font-family="Times,serif" font-size="14.00">8</text>
</g>
<!-- v8&#45;&gt;p1 -->
<g id="edge19" class="edge"><title>v8&#45;&gt;p1</title>
<path fill="none" stroke="black" d="M364.997,-75.1703C354.332,-65.9532 340.036,-53.5986 327.567,-42.8232"/>
<polygon fill="black" stroke="black" points="329.548,-39.9096 319.693,-36.019 324.971,-45.2059 329.548,-39.9096"/>
</g>
<!-- p3 -->
<g id="node10" class="node"><title>p3</title>
<path fill="none" stroke="black" d="M394.5,-36C394.5,-36 359.5,-36 359.5,-36 353.5,-36 347.5,-30 347.5,-24 347.5,-24 347.5,-12 347.5,-12 347.5,-6 353.5,-0 359.5,-0 359.5,-0 394.5,-0 394.5,-0 400.5,-0 406.5,-6 406.5,-12 406.5,-12 406.5,-24 406.5,-24 406.5,-30 400.5,-36 394.5,-36"/>
<text text-anchor="middle" x="377" y="-14.3" font-family="Times,serif" font-size="14.00">path (4)</text>
</g>
<!-- v8&#45;&gt;p3 -->
<g id="edge8" class="edge"><title>v8&#45;&gt;p3</title>
<path fill="none" stroke="black" d="M380.011,-71.6966C379.57,-63.9827 379.041,-54.7125 378.549,-46.1124"/>
<polygon fill="black" stroke="black" points="382.042,-45.8883 377.977,-36.1043 375.054,-46.2878 382.042,-45.8883"/>
</g>
<!-- p4 -->
<g id="node11" class="node"><title>p4</title>
<path fill="none" stroke="black" d="M471.5,-36C471.5,-36 436.5,-36 436.5,-36 430.5,-36 424.5,-30 424.5,-24 424.5,-24 424.5,-12 424.5,-12 424.5,-6 430.5,-0 436.5,-0 436.5,-0 471.5,-0 471.5,-0 477.5,-0 483.5,-6 483.5,-12 483.5,-12 483.5,-24 483.5,-24 483.5,-30 477.5,-36 471.5,-36"/>
<text text-anchor="middle" x="454" y="-14.3" font-family="Times,serif" font-size="14.00">path (4)</text>
</g>
<!-- v8&#45;&gt;p4 -->
<g id="edge14" class="edge"><title>v8&#45;&gt;p4</title>
<path fill="none" stroke="black" d="M395.773,-74.8345C405.251,-65.7459 417.802,-53.7105 428.824,-43.1413"/>
<polygon fill="black" stroke="black" points="431.358,-45.5602 436.154,-36.1127 426.514,-40.5077 431.358,-45.5602"/>
</g>
<!-- v12 -->
<g id="node13" class="node"><title>v12</title>
<ellipse fill="none" stroke="black" cx="529" cy="-18" rx="27" ry="18"/>
<text text-anchor="middle" x="529" y="-14.3" font-family="Times,serif" font-size="14.00">12</text>
</g>
<!-- v8&#45;&gt;v12 -->
<g id="edge34" class="edge"><title>v8&#45;&gt;v12</title>
<path fill="none" stroke="black" d="M402.52,-78.8214C427.73,-66.8978 469.682,-47.0557 498.302,-33.5192"/>
<polygon fill="black" stroke="black" points="499.91,-36.6305 507.454,-29.1909 496.917,-30.3026 499.91,-36.6305"/>
</g>
<!-- v19 -->
<g id="node15" class="node"><title>v19</title>
<ellipse fill="none" stroke="black" cx="381" cy="-162" rx="27" ry="18"/>
<text text-anchor="middle" x="381" y="-158.3" font-family="Times,serif" font-size="14.00">19</text>
</g>
<!-- v11&#45;&gt;v19 -->
<g id="edge11" class="edge"><title>v11&#45;&gt;v19</title>
<path fill="none" stroke="black" d="M393.885,-216.055C391.992,-208.261 389.7,-198.822 387.576,-190.079"/>
<polygon fill="black" stroke="black" points="390.957,-189.167 385.195,-180.275 384.154,-190.819 390.957,-189.167"/>
</g>
<!-- p11 -->
<g id="node22" class="node"><title>p11</title>
<path fill="none" stroke="black" d="M473.5,-180C473.5,-180 438.5,-180 438.5,-180 432.5,-180 426.5,-174 426.5,-168 426.5,-168 426.5,-156 426.5,-156 426.5,-150 432.5,-144 438.5,-144 438.5,-144 473.5,-144 473.5,-144 479.5,-144 485.5,-150 485.5,-156 485.5,-156 485.5,-168 485.5,-168 485.5,-174 479.5,-180 473.5,-180"/>
<text text-anchor="middle" x="456" y="-158.3" font-family="Times,serif" font-size="14.00">path (2)</text>
</g>
<!-- v11&#45;&gt;p11 -->
<g id="edge33" class="edge"><title>v11&#45;&gt;p11</title>
<path fill="none" stroke="black" d="M410.585,-217.811C417.769,-209.141 426.957,-198.052 435.187,-188.12"/>
<polygon fill="black" stroke="black" points="438.124,-190.06 441.809,-180.127 432.734,-185.594 438.124,-190.06"/>
</g>
<!-- v19&#45;&gt;v8 -->
<g id="edge1" class="edge"><title>v19&#45;&gt;v8</title>
<path fill="none" stroke="black" d="M381,-143.697C381,-135.983 381,-126.712 381,-118.112"/>
<polygon fill="black" stroke="black" points="384.5,-118.104 381,-108.104 377.5,-118.104 384.5,-118.104"/>
</g>
<!-- v63 -->
<g id="node37" class="node"><title>v63</title>
<ellipse fill="none" stroke="black" cx="550" cy="-162" rx="27" ry="18"/>
<text text-anchor="middle" x="550" y="-158.3" font-family="Times,serif" font-size="14.00">63</text>
</g>
<!-- p6&#45;&gt;v63 -->
<g id="edge5" class="edge"><title>p6&#45;&gt;v63</title>
<path fill="none" stroke="black" d="M550,-215.697C550,-207.983 550,-198.712 550,-190.112"/>
<polygon fill="black" stroke="black" points="553.5,-190.104 550,-180.104 546.5,-190.104 553.5,-190.104"/>
</g>
<!-- p7 -->
<g id="node17" class="node"><title>p7</title>
<path fill="none" stroke="black" d="M642.5,-180C642.5,-180 607.5,-180 607.5,-180 601.5,-180 595.5,-174 595.5,-168 595.5,-168 595.5,-156 595.5,-156 595.5,-150 601.5,-144 607.5,-144 607.5,-144 642.5,-144 642.5,-144 648.5,-144 654.5,-150 654.5,-156 654.5,-156 654.5,-168 654.5,-168 654.5,-174 648.5,-180 642.5,-180"/>
<text text-anchor="middle" x="625" y="-158.3" font-family="Times,serif" font-size="14.00">path (2)</text>
</g>
<!-- v26 -->
<g id="node19" class="node"><title>v26</title>
<ellipse fill="none" stroke="black" cx="625" cy="-234" rx="27" ry="18"/>
<text text-anchor="middle" x="625" y="-230.3" font-family="Times,serif" font-size="14.00">26</text>
</g>
<!-- p7&#45;&gt;v26 -->
<g id="edge6" class="edge"><title>p7&#45;&gt;v26</title>
<path fill="none" stroke="black" d="M630.93,-180.447C631.728,-188.269 631.944,-197.67 631.577,-206.345"/>
<polygon fill="black" stroke="black" points="628.079,-206.182 630.84,-216.411 635.06,-206.693 628.079,-206.182"/>
</g>
<!-- p8 -->
<g id="node18" class="node"><title>p8</title>
<path fill="none" stroke="black" d="M603.5,-324C603.5,-324 568.5,-324 568.5,-324 562.5,-324 556.5,-318 556.5,-312 556.5,-312 556.5,-300 556.5,-300 556.5,-294 562.5,-288 568.5,-288 568.5,-288 603.5,-288 603.5,-288 609.5,-288 615.5,-294 615.5,-300 615.5,-300 615.5,-312 615.5,-312 615.5,-318 609.5,-324 603.5,-324"/>
<text text-anchor="middle" x="586" y="-302.3" font-family="Times,serif" font-size="14.00">path (2)</text>
</g>
<!-- p8&#45;&gt;v26 -->
<g id="edge9" class="edge"><title>p8&#45;&gt;v26</title>
<path fill="none" stroke="black" d="M595.64,-287.697C600.31,-279.316 606.002,-269.098 611.128,-259.899"/>
<polygon fill="black" stroke="black" points="614.196,-261.584 616.005,-251.145 608.081,-258.177 614.196,-261.584"/>
</g>
<!-- v26&#45;&gt;p7 -->
<g id="edge29" class="edge"><title>v26&#45;&gt;p7</title>
<path fill="none" stroke="black" d="M619.16,-216.411C618.319,-208.708 618.061,-199.341 618.385,-190.616"/>
<polygon fill="black" stroke="black" points="621.89,-190.659 619.07,-180.447 614.906,-190.189 621.89,-190.659"/>
</g>
<!-- p9 -->
<g id="node20" class="node"><title>p9</title>
<path fill="none" stroke="black" d="M490.5,-108C490.5,-108 455.5,-108 455.5,-108 449.5,-108 443.5,-102 443.5,-96 443.5,-96 443.5,-84 443.5,-84 443.5,-78 449.5,-72 455.5,-72 455.5,-72 490.5,-72 490.5,-72 496.5,-72 502.5,-78 502.5,-84 502.5,-84 502.5,-96 502.5,-96 502.5,-102 496.5,-108 490.5,-108"/>
<text text-anchor="middle" x="473" y="-86.3" font-family="Times,serif" font-size="14.00">path (7)</text>
</g>
<!-- p10 -->
<g id="node21" class="node"><title>p10</title>
<path fill="none" stroke="black" d="M567.5,-108C567.5,-108 532.5,-108 532.5,-108 526.5,-108 520.5,-102 520.5,-96 520.5,-96 520.5,-84 520.5,-84 520.5,-78 526.5,-72 532.5,-72 532.5,-72 567.5,-72 567.5,-72 573.5,-72 579.5,-78 579.5,-84 579.5,-84 579.5,-96 579.5,-96 579.5,-102 573.5,-108 567.5,-108"/>
<text text-anchor="middle" x="550" y="-86.3" font-family="Times,serif" font-size="14.00">path (2)</text>
</g>
<!-- p12 -->
<g id="node23" class="node"><title>p12</title>
<path fill="none" stroke="black" d="M155.5,-252C155.5,-252 120.5,-252 120.5,-252 114.5,-252 108.5,-246 108.5,-240 108.5,-240 108.5,-228 108.5,-228 108.5,-222 114.5,-216 120.5,-216 120.5,-216 155.5,-216 155.5,-216 161.5,-216 167.5,-222 167.5,-228 167.5,-228 167.5,-240 167.5,-240 167.5,-246 161.5,-252 155.5,-252"/>
<text text-anchor="middle" x="138" y="-230.3" font-family="Times,serif" font-size="14.00">path (3)</text>
</g>
<!-- v41 -->
<g id="node24" class="node"><title>v41</title>
<ellipse fill="none" stroke="black" cx="207" cy="-306" rx="27" ry="18"/>
<text text-anchor="middle" x="207" y="-302.3" font-family="Times,serif" font-size="14.00">41</text>
</g>
<!-- v41&#45;&gt;p12 -->
<g id="edge17" class="edge"><title>v41&#45;&gt;p12</title>
<path fill="none" stroke="black" d="M192.703,-290.496C183.873,-281.538 172.316,-269.813 162.101,-259.45"/>
<polygon fill="black" stroke="black" points="164.471,-256.869 154.958,-252.204 159.485,-261.783 164.471,-256.869"/>
</g>
<!-- p15 -->
<g id="node35" class="node"><title>p15</title>
<path fill="none" stroke="black" d="M232.5,-252C232.5,-252 197.5,-252 197.5,-252 191.5,-252 185.5,-246 185.5,-240 185.5,-240 185.5,-228 185.5,-228 185.5,-222 191.5,-216 197.5,-216 197.5,-216 232.5,-216 232.5,-216 238.5,-216 244.5,-222 244.5,-228 244.5,-228 244.5,-240 244.5,-240 244.5,-246 238.5,-252 232.5,-252"/>
<text text-anchor="middle" x="215" y="-230.3" font-family="Times,serif" font-size="14.00">path (5)</text>
</g>
<!-- v41&#45;&gt;p15 -->
<g id="edge32" class="edge"><title>v41&#45;&gt;p15</title>
<path fill="none" stroke="black" d="M208.978,-287.697C209.859,-279.983 210.919,-270.712 211.901,-262.112"/>
<polygon fill="black" stroke="black" points="215.387,-262.437 213.045,-252.104 208.432,-261.642 215.387,-262.437"/>
</g>
<!-- v44&#45;&gt;v41 -->
<g id="edge10" class="edge"><title>v44&#45;&gt;v41</title>
<path fill="none" stroke="black" d="M207,-359.697C207,-351.983 207,-342.712 207,-334.112"/>
<polygon fill="black" stroke="black" points="210.5,-334.104 207,-324.104 203.5,-334.104 210.5,-334.104"/>
</g>
<!-- v45 -->
<g id="node26" class="node"><title>v45</title>
<ellipse fill="none" stroke="black" cx="129" cy="-18" rx="27" ry="18"/>
<text text-anchor="middle" x="129" y="-14.3" font-family="Times,serif" font-size="14.00">45</text>
</g>
<!-- p13 -->
<g id="node27" class="node"><title>p13</title>
<path fill="none" stroke="black" d="M221.5,-36C221.5,-36 186.5,-36 186.5,-36 180.5,-36 174.5,-30 174.5,-24 174.5,-24 174.5,-12 174.5,-12 174.5,-6 180.5,-0 186.5,-0 186.5,-0 221.5,-0 221.5,-0 227.5,-0 233.5,-6 233.5,-12 233.5,-12 233.5,-24 233.5,-24 233.5,-30 227.5,-36 221.5,-36"/>
<text text-anchor="middle" x="204" y="-14.3" font-family="Times,serif" font-size="14.00">path (2)</text>
</g>
<!-- v53 -->
<g id="node31" class="node"><title>v53</title>
<ellipse fill="none" stroke="black" cx="162" cy="-90" rx="27" ry="18"/>
<text text-anchor="middle" x="162" y="-86.3" font-family="Times,serif" font-size="14.00">53</text>
</g>
<!-- v53&#45;&gt;v45 -->
<g id="edge15" class="edge"><title>v53&#45;&gt;v45</title>
<path fill="none" stroke="black" d="M154.179,-72.411C150.275,-64.1292 145.465,-53.9249 141.098,-44.662"/>
<polygon fill="black" stroke="black" points="144.194,-43.0227 136.764,-35.4699 137.863,-46.0077 144.194,-43.0227"/>
</g>
<!-- v53&#45;&gt;p13 -->
<g id="edge26" class="edge"><title>v53&#45;&gt;p13</title>
<path fill="none" stroke="black" d="M171.53,-73.1159C176.519,-64.8013 182.754,-54.4105 188.422,-44.9627"/>
<polygon fill="black" stroke="black" points="191.481,-46.6678 193.625,-36.2921 185.478,-43.0663 191.481,-46.6678"/>
</g>
<!-- v55&#45;&gt;v5 -->
<g id="edge2" class="edge"><title>v55&#45;&gt;v5</title>
<path fill="none" stroke="black" d="M499.114,-360.765C495.096,-352.491 490.113,-342.232 485.58,-332.9"/>
<polygon fill="black" stroke="black" points="488.596,-331.099 481.079,-323.633 482.3,-334.158 488.596,-331.099"/>
</g>
<!-- v55&#45;&gt;p8 -->
<g id="edge31" class="edge"><title>v55&#45;&gt;p8</title>
<path fill="none" stroke="black" d="M522.608,-363.17C533.01,-353.953 546.953,-341.599 559.114,-330.823"/>
<polygon fill="black" stroke="black" points="561.629,-333.271 566.793,-324.019 556.987,-328.031 561.629,-333.271"/>
</g>
<!-- v56 -->
<g id="node34" class="node"><title>v56</title>
<ellipse fill="none" stroke="black" cx="215" cy="-162" rx="27" ry="18"/>
<text text-anchor="middle" x="215" y="-158.3" font-family="Times,serif" font-size="14.00">56</text>
</g>
<!-- v56&#45;&gt;v53 -->
<g id="edge20" class="edge"><title>v56&#45;&gt;v53</title>
<path fill="none" stroke="black" d="M203.238,-145.465C196.376,-136.402 187.581,-124.786 179.878,-114.612"/>
<polygon fill="black" stroke="black" points="182.556,-112.352 173.73,-106.492 176.976,-116.577 182.556,-112.352"/>
</g>
<!-- v62 -->
<g id="node36" class="node"><title>v62</title>
<ellipse fill="none" stroke="black" cx="234" cy="-90" rx="27" ry="18"/>
<text text-anchor="middle" x="234" y="-86.3" font-family="Times,serif" font-size="14.00">62</text>
</g>
<!-- v56&#45;&gt;v62 -->
<g id="edge21" class="edge"><title>v56&#45;&gt;v62</title>
<path fill="none" stroke="black" d="M219.599,-144.055C221.746,-136.145 224.353,-126.54 226.756,-117.688"/>
<polygon fill="black" stroke="black" points="230.201,-118.357 229.443,-107.789 223.446,-116.523 230.201,-118.357"/>
</g>
<!-- p15&#45;&gt;v56 -->
<g id="edge18" class="edge"><title>p15&#45;&gt;v56</title>
<path fill="none" stroke="black" d="M215,-215.697C215,-207.983 215,-198.712 215,-190.112"/>
<polygon fill="black" stroke="black" points="218.5,-190.104 215,-180.104 211.5,-190.104 218.5,-190.104"/>
</g>
<!-- v63&#45;&gt;p9 -->
<g id="edge13" class="edge"><title>v63&#45;&gt;p9</title>
<path fill="none" stroke="black" d="M534.418,-146.834C524.421,-137.746 511.182,-125.71 499.555,-115.141"/>
<polygon fill="black" stroke="black" points="501.578,-112.25 491.824,-108.113 496.869,-117.429 501.578,-112.25"/>
</g>
<!-- v63&#45;&gt;p10 -->
<g id="edge38" class="edge"><title>v63&#45;&gt;p10</title>
<path fill="none" stroke="black" d="M550,-143.697C550,-135.983 550,-126.712 550,-118.112"/>
<polygon fill="black" stroke="black" points="553.5,-118.104 550,-108.104 546.5,-118.104 553.5,-118.104"/>
</g>
<!-- v69 -->
<g id="node38" class="node"><title>v69</title>
<ellipse fill="none" stroke="black" cx="625" cy="-90" rx="27" ry="18"/>
<text text-anchor="middle" x="625" y="-86.3" font-family="Times,serif" font-size="14.00">69</text>
</g>
<!-- v63&#45;&gt;v69 -->
<g id="edge4" class="edge"><title>v63&#45;&gt;v69</title>
<path fill="none" stroke="black" d="M565.177,-146.834C575.851,-136.872 590.319,-123.369 602.353,-112.137"/>
<polygon fill="black" stroke="black" points="604.923,-114.526 609.845,-105.144 600.146,-109.409 604.923,-114.526"/>
</g>
</g>
</svg>
