<?xml version="1.0" encoding="UTF-8" standalone="no"?>
<!DOCTYPE svg PUBLIC "-//W3C//DTD SVG 1.1//EN"
 "http://www.w3.org/Graphics/SVG/1.1/DTD/svg11.dtd">
<!-- Generated by graphviz version 2.38.0 (20140413.2041)
 -->
<!-- Title: %3 Pages: 1 -->
<svg width="356pt" height="188pt"
 viewBox="0.00 0.00 355.50 188.00" xmlns="http://www.w3.org/2000/svg" xmlns:xlink="http://www.w3.org/1999/xlink">
<g id="graph0" class="graph" transform="scale(1 1) rotate(0) translate(4 184)">
<title>%3</title>
<polygon fill="white" stroke="none" points="-4,4 -4,-184 351.5,-184 351.5,4 -4,4"/>
<!-- p0 -->
<g id="node1" class="node"><title>p0</title>
<path fill="none" stroke="black" d="M47,-36C47,-36 12,-36 12,-36 6,-36 0,-30 0,-24 0,-24 0,-12 0,-12 0,-6 6,-0 12,-0 12,-0 47,-0 47,-0 53,-0 59,-6 59,-12 59,-12 59,-24 59,-24 59,-30 53,-36 47,-36"/>
<text text-anchor="middle" x="29.5" y="-14.3" font-family="Times,serif" font-size="14.00">path (3)</text>
</g>
<!-- v1 -->
<g id="node2" class="node"><title>v1</title>
<ellipse fill="none" stroke="black" cx="176.5" cy="-90" rx="27" ry="18"/>
<text text-anchor="middle" x="176.5" y="-86.3" font-family="Times,serif" font-size="14.00">1</text>
</g>
<!-- v1&#45;&gt;p0 -->
<g id="edge6" class="edge"><title>v1&#45;&gt;p0</title>
<path fill="none" stroke="black" d="M155.125,-78.8214C132.375,-67.9879 95.8973,-50.6178 68.0966,-37.3793"/>
<polygon fill="black" stroke="black" points="69.567,-34.203 59.0336,-33.0636 66.5574,-40.523 69.567,-34.203"/>
</g>
<!-- v2 -->
<g id="node3" class="node"><title>v2</title>
<ellipse fill="none" stroke="black" cx="104.5" cy="-18" rx="27" ry="18"/>
<text text-anchor="middle" x="104.5" y="-14.3" font-family="Times,serif" font-size="14.00">2</text>
</g>
<!-- v1&#45;&gt;v2 -->
<g id="edge1" class="edge"><title>v1&#45;&gt;v2</title>
<path fill="none" stroke="black" d="M161.93,-74.8345C151.75,-64.9376 137.976,-51.5462 126.469,-40.3591"/>
<polygon fill="black" stroke="black" points="128.905,-37.8461 119.296,-33.3847 124.026,-42.865 128.905,-37.8461"/>
</g>
<!-- v6 -->
<g id="node5" class="node"><title>v6</title>
<ellipse fill="none" stroke="black" cx="176.5" cy="-18" rx="27" ry="18"/>
<text text-anchor="middle" x="176.5" y="-14.3" font-family="Times,serif" font-size="14.00">6</text>
</g>
<!-- v1&#45;&gt;v6 -->
<g id="edge3" class="edge"><title>v1&#45;&gt;v6</title>
<path fill="none" stroke="black" d="M176.5,-71.6966C176.5,-63.9827 176.5,-54.7125 176.5,-46.1124"/>
<polygon fill="black" stroke="black" points="180,-46.1043 176.5,-36.1043 173,-46.1044 180,-46.1043"/>
</g>
<!-- v7 -->
<g id="node6" class="node"><title>v7</title>
<ellipse fill="none" stroke="black" cx="248.5" cy="-18" rx="27" ry="18"/>
<text text-anchor="middle" x="248.5" y="-14.3" font-family="Times,serif" font-size="14.00">7</text>
</g>
<!-- v1&#45;&gt;v7 -->
<g id="edge4" class="edge"><title>v1&#45;&gt;v7</title>
<path fill="none" stroke="black" d="M191.07,-74.8345C201.25,-64.9376 215.024,-51.5462 226.531,-40.3591"/>
<polygon fill="black" stroke="black" points="228.974,-42.865 233.704,-33.3847 224.095,-37.8461 228.974,-42.865"/>
</g>
<!-- v8 -->
<g id="node7" class="node"><title>v8</title>
<ellipse fill="none" stroke="black" cx="320.5" cy="-18" rx="27" ry="18"/>
<text text-anchor="middle" x="320.5" y="-14.3" font-family="Times,serif" font-size="14.00">8</text>
</g>
<!-- v1&#45;&gt;v8 -->
<g id="edge2" class="edge"><title>v1&#45;&gt;v8</title>
<path fill="none" stroke="black" d="M197.748,-78.6713C222.102,-66.8324 262.219,-47.3312 289.928,-33.8615"/>
<polygon fill="black" stroke="black" points="291.702,-36.8909 299.165,-29.3711 288.641,-30.5953 291.702,-36.8909"/>
</g>
<!-- v5 -->
<g id="node4" class="node"><title>v5</title>
<ellipse fill="none" stroke="black" cx="176.5" cy="-162" rx="27" ry="18"/>
<text text-anchor="middle" x="176.5" y="-158.3" font-family="Times,serif" font-size="14.00">5</text>
</g>
<!-- v5&#45;&gt;v1 -->
<g id="edge5" class="edge"><title>v5&#45;&gt;v1</title>
<path fill="none" stroke="black" d="M176.5,-143.697C176.5,-135.983 176.5,-126.712 176.5,-118.112"/>
<polygon fill="black" stroke="black" points="180,-118.104 176.5,-108.104 173,-118.104 180,-118.104"/>
</g>
</g>
</svg>
