<?xml version="1.0" encoding="UTF-8" standalone="no"?>
<!DOCTYPE svg PUBLIC "-//W3C//DTD SVG 1.1//EN"
 "http://www.w3.org/Graphics/SVG/1.1/DTD/svg11.dtd">
<!-- Generated by graphviz version 2.38.0 (20140413.2041)
 -->
<!-- Title: %3 Pages: 1 -->
<svg width="452pt" height="476pt"
 viewBox="0.00 0.00 452.00 476.00" xmlns="http://www.w3.org/2000/svg" xmlns:xlink="http://www.w3.org/1999/xlink">
<g id="graph0" class="graph" transform="scale(1 1) rotate(0) translate(4 472)">
<title>%3</title>
<polygon fill="white" stroke="none" points="-4,4 -4,-472 448,-472 448,4 -4,4"/>
<!-- v0 -->
<g id="node1" class="node"><title>v0</title>
<ellipse fill="none" stroke="black" cx="106.5" cy="-306" rx="27" ry="18"/>
<text text-anchor="middle" x="106.5" y="-302.3" font-family="Times,serif" font-size="14.00">0</text>
</g>
<!-- v15 -->
<g id="node9" class="node"><title>v15</title>
<ellipse fill="none" stroke="black" cx="31.5" cy="-234" rx="27" ry="18"/>
<text text-anchor="middle" x="31.5" y="-230.3" font-family="Times,serif" font-size="14.00">15</text>
</g>
<!-- v0&#45;&gt;v15 -->
<g id="edge7" class="edge"><title>v0&#45;&gt;v15</title>
<path fill="none" stroke="black" d="M91.3226,-290.834C80.6486,-280.872 66.1808,-267.369 54.1469,-256.137"/>
<polygon fill="black" stroke="black" points="56.3535,-253.409 46.6548,-249.144 51.5773,-258.526 56.3535,-253.409"/>
</g>
<!-- p6 -->
<g id="node12" class="node"><title>p6</title>
<path fill="none" stroke="black" d="M124,-252C124,-252 89,-252 89,-252 83,-252 77,-246 77,-240 77,-240 77,-228 77,-228 77,-222 83,-216 89,-216 89,-216 124,-216 124,-216 130,-216 136,-222 136,-228 136,-228 136,-240 136,-240 136,-246 130,-252 124,-252"/>
<text text-anchor="middle" x="106.5" y="-230.3" font-family="Times,serif" font-size="14.00">path (2)</text>
</g>
<!-- v0&#45;&gt;p6 -->
<g id="edge1" class="edge"><title>v0&#45;&gt;p6</title>
<path fill="none" stroke="black" d="M106.5,-287.697C106.5,-279.983 106.5,-270.712 106.5,-262.112"/>
<polygon fill="black" stroke="black" points="110,-262.104 106.5,-252.104 103,-262.104 110,-262.104"/>
</g>
<!-- p0 -->
<g id="node2" class="node"><title>p0</title>
<path fill="none" stroke="black" d="M144,-396C144,-396 109,-396 109,-396 103,-396 97,-390 97,-384 97,-384 97,-372 97,-372 97,-366 103,-360 109,-360 109,-360 144,-360 144,-360 150,-360 156,-366 156,-372 156,-372 156,-384 156,-384 156,-390 150,-396 144,-396"/>
<text text-anchor="middle" x="126.5" y="-374.3" font-family="Times,serif" font-size="14.00">path (2)</text>
</g>
<!-- p0&#45;&gt;v0 -->
<g id="edge13" class="edge"><title>p0&#45;&gt;v0</title>
<path fill="none" stroke="black" d="M121.556,-359.697C119.328,-351.898 116.645,-342.509 114.165,-333.829"/>
<polygon fill="black" stroke="black" points="117.5,-332.758 111.387,-324.104 110.769,-334.681 117.5,-332.758"/>
</g>
<!-- p1 -->
<g id="node3" class="node"><title>p1</title>
<path fill="none" stroke="black" d="M259,-396C259,-396 224,-396 224,-396 218,-396 212,-390 212,-384 212,-384 212,-372 212,-372 212,-366 218,-360 224,-360 224,-360 259,-360 259,-360 265,-360 271,-366 271,-372 271,-372 271,-384 271,-384 271,-390 265,-396 259,-396"/>
<text text-anchor="middle" x="241.5" y="-374.3" font-family="Times,serif" font-size="14.00">path (4)</text>
</g>
<!-- v30 -->
<g id="node16" class="node"><title>v30</title>
<ellipse fill="none" stroke="black" cx="260.5" cy="-306" rx="27" ry="18"/>
<text text-anchor="middle" x="260.5" y="-302.3" font-family="Times,serif" font-size="14.00">30</text>
</g>
<!-- p1&#45;&gt;v30 -->
<g id="edge9" class="edge"><title>p1&#45;&gt;v30</title>
<path fill="none" stroke="black" d="M246.197,-359.697C248.313,-351.898 250.862,-342.509 253.218,-333.829"/>
<polygon fill="black" stroke="black" points="256.616,-334.672 255.857,-324.104 249.86,-332.838 256.616,-334.672"/>
</g>
<!-- v3 -->
<g id="node4" class="node"><title>v3</title>
<ellipse fill="none" stroke="black" cx="183.5" cy="-450" rx="27" ry="18"/>
<text text-anchor="middle" x="183.5" y="-446.3" font-family="Times,serif" font-size="14.00">3</text>
</g>
<!-- v3&#45;&gt;p0 -->
<g id="edge16" class="edge"><title>v3&#45;&gt;p0</title>
<path fill="none" stroke="black" d="M171.132,-433.811C164.072,-425.141 155.042,-414.052 146.954,-404.12"/>
<polygon fill="black" stroke="black" points="149.474,-401.671 140.446,-396.127 144.046,-406.091 149.474,-401.671"/>
</g>
<!-- v3&#45;&gt;p1 -->
<g id="edge12" class="edge"><title>v3&#45;&gt;p1</title>
<path fill="none" stroke="black" d="M196.085,-433.811C203.269,-425.141 212.457,-414.052 220.687,-404.12"/>
<polygon fill="black" stroke="black" points="223.624,-406.06 227.309,-396.127 218.234,-401.594 223.624,-406.06"/>
</g>
<!-- v5 -->
<g id="node5" class="node"><title>v5</title>
<ellipse fill="none" stroke="black" cx="106.5" cy="-90" rx="27" ry="18"/>
<text text-anchor="middle" x="106.5" y="-86.3" font-family="Times,serif" font-size="14.00">5</text>
</g>
<!-- p2 -->
<g id="node6" class="node"><title>p2</title>
<path fill="none" stroke="black" d="M47,-36C47,-36 12,-36 12,-36 6,-36 0,-30 0,-24 0,-24 0,-12 0,-12 0,-6 6,-0 12,-0 12,-0 47,-0 47,-0 53,-0 59,-6 59,-12 59,-12 59,-24 59,-24 59,-30 53,-36 47,-36"/>
<text text-anchor="middle" x="29.5" y="-14.3" font-family="Times,serif" font-size="14.00">path (2)</text>
</g>
<!-- v5&#45;&gt;p2 -->
<g id="edge2" class="edge"><title>v5&#45;&gt;p2</title>
<path fill="none" stroke="black" d="M90.9179,-74.8345C80.9205,-65.7459 67.6815,-53.7105 56.0555,-43.1413"/>
<polygon fill="black" stroke="black" points="58.0778,-40.2497 48.324,-36.1127 53.3691,-45.4293 58.0778,-40.2497"/>
</g>
<!-- p3 -->
<g id="node7" class="node"><title>p3</title>
<path fill="none" stroke="black" d="M124,-36C124,-36 89,-36 89,-36 83,-36 77,-30 77,-24 77,-24 77,-12 77,-12 77,-6 83,-0 89,-0 89,-0 124,-0 124,-0 130,-0 136,-6 136,-12 136,-12 136,-24 136,-24 136,-30 130,-36 124,-36"/>
<text text-anchor="middle" x="106.5" y="-14.3" font-family="Times,serif" font-size="14.00">path (2)</text>
</g>
<!-- v5&#45;&gt;p3 -->
<g id="edge14" class="edge"><title>v5&#45;&gt;p3</title>
<path fill="none" stroke="black" d="M106.5,-71.6966C106.5,-63.9827 106.5,-54.7125 106.5,-46.1124"/>
<polygon fill="black" stroke="black" points="110,-46.1043 106.5,-36.1043 103,-46.1044 110,-46.1043"/>
</g>
<!-- v19 -->
<g id="node11" class="node"><title>v19</title>
<ellipse fill="none" stroke="black" cx="106.5" cy="-162" rx="27" ry="18"/>
<text text-anchor="middle" x="106.5" y="-158.3" font-family="Times,serif" font-size="14.00">19</text>
</g>
<!-- v5&#45;&gt;v19 -->
<g id="edge3" class="edge"><title>v5&#45;&gt;v19</title>
<path fill="none" stroke="black" d="M112.379,-107.956C113.214,-115.827 113.448,-125.374 113.083,-134.187"/>
<polygon fill="black" stroke="black" points="109.574,-134.184 112.34,-144.411 116.556,-134.691 109.574,-134.184"/>
</g>
<!-- p7 -->
<g id="node13" class="node"><title>p7</title>
<path fill="none" stroke="black" d="M201,-36C201,-36 166,-36 166,-36 160,-36 154,-30 154,-24 154,-24 154,-12 154,-12 154,-6 160,-0 166,-0 166,-0 201,-0 201,-0 207,-0 213,-6 213,-12 213,-12 213,-24 213,-24 213,-30 207,-36 201,-36"/>
<text text-anchor="middle" x="183.5" y="-14.3" font-family="Times,serif" font-size="14.00">path (2)</text>
</g>
<!-- v5&#45;&gt;p7 -->
<g id="edge4" class="edge"><title>v5&#45;&gt;p7</title>
<path fill="none" stroke="black" d="M122.082,-74.8345C132.079,-65.7459 145.318,-53.7105 156.945,-43.1413"/>
<polygon fill="black" stroke="black" points="159.631,-45.4293 164.676,-36.1127 154.922,-40.2497 159.631,-45.4293"/>
</g>
<!-- p4 -->
<g id="node8" class="node"><title>p4</title>
<path fill="none" stroke="black" d="M201,-252C201,-252 166,-252 166,-252 160,-252 154,-246 154,-240 154,-240 154,-228 154,-228 154,-222 160,-216 166,-216 166,-216 201,-216 201,-216 207,-216 213,-222 213,-228 213,-228 213,-240 213,-240 213,-246 207,-252 201,-252"/>
<text text-anchor="middle" x="183.5" y="-230.3" font-family="Times,serif" font-size="14.00">path (2)</text>
</g>
<!-- p5 -->
<g id="node10" class="node"><title>p5</title>
<path fill="none" stroke="black" d="M278,-252C278,-252 243,-252 243,-252 237,-252 231,-246 231,-240 231,-240 231,-228 231,-228 231,-222 237,-216 243,-216 243,-216 278,-216 278,-216 284,-216 290,-222 290,-228 290,-228 290,-240 290,-240 290,-246 284,-252 278,-252"/>
<text text-anchor="middle" x="260.5" y="-230.3" font-family="Times,serif" font-size="14.00">path (3)</text>
</g>
<!-- v19&#45;&gt;v5 -->
<g id="edge15" class="edge"><title>v19&#45;&gt;v5</title>
<path fill="none" stroke="black" d="M100.66,-144.411C99.7975,-136.507 99.5481,-126.852 99.9119,-117.935"/>
<polygon fill="black" stroke="black" points="103.403,-118.179 100.621,-107.956 96.4209,-117.683 103.403,-118.179"/>
</g>
<!-- p6&#45;&gt;v19 -->
<g id="edge10" class="edge"><title>p6&#45;&gt;v19</title>
<path fill="none" stroke="black" d="M106.5,-215.697C106.5,-207.983 106.5,-198.712 106.5,-190.112"/>
<polygon fill="black" stroke="black" points="110,-190.104 106.5,-180.104 103,-190.104 110,-190.104"/>
</g>
<!-- p8 -->
<g id="node14" class="node"><title>p8</title>
<path fill="none" stroke="black" d="M355,-252C355,-252 320,-252 320,-252 314,-252 308,-246 308,-240 308,-240 308,-228 308,-228 308,-222 314,-216 320,-216 320,-216 355,-216 355,-216 361,-216 367,-222 367,-228 367,-228 367,-240 367,-240 367,-246 361,-252 355,-252"/>
<text text-anchor="middle" x="337.5" y="-230.3" font-family="Times,serif" font-size="14.00">path (8)</text>
</g>
<!-- p9 -->
<g id="node15" class="node"><title>p9</title>
<path fill="none" stroke="black" d="M432,-252C432,-252 397,-252 397,-252 391,-252 385,-246 385,-240 385,-240 385,-228 385,-228 385,-222 391,-216 397,-216 397,-216 432,-216 432,-216 438,-216 444,-222 444,-228 444,-228 444,-240 444,-240 444,-246 438,-252 432,-252"/>
<text text-anchor="middle" x="414.5" y="-230.3" font-family="Times,serif" font-size="14.00">path (2)</text>
</g>
<!-- v30&#45;&gt;p4 -->
<g id="edge11" class="edge"><title>v30&#45;&gt;p4</title>
<path fill="none" stroke="black" d="M244.918,-290.834C234.921,-281.746 221.682,-269.71 210.055,-259.141"/>
<polygon fill="black" stroke="black" points="212.078,-256.25 202.324,-252.113 207.369,-261.429 212.078,-256.25"/>
</g>
<!-- v30&#45;&gt;p5 -->
<g id="edge6" class="edge"><title>v30&#45;&gt;p5</title>
<path fill="none" stroke="black" d="M260.5,-287.697C260.5,-279.983 260.5,-270.712 260.5,-262.112"/>
<polygon fill="black" stroke="black" points="264,-262.104 260.5,-252.104 257,-262.104 264,-262.104"/>
</g>
<!-- v30&#45;&gt;p8 -->
<g id="edge8" class="edge"><title>v30&#45;&gt;p8</title>
<path fill="none" stroke="black" d="M276.082,-290.834C286.079,-281.746 299.318,-269.71 310.945,-259.141"/>
<polygon fill="black" stroke="black" points="313.631,-261.429 318.676,-252.113 308.922,-256.25 313.631,-261.429"/>
</g>
<!-- v30&#45;&gt;p9 -->
<g id="edge5" class="edge"><title>v30&#45;&gt;p9</title>
<path fill="none" stroke="black" d="M282.238,-295.119C306.477,-284.101 346.16,-266.064 375.745,-252.616"/>
<polygon fill="black" stroke="black" points="377.309,-255.75 384.964,-248.426 374.412,-249.377 377.309,-255.75"/>
</g>
</g>
</svg>
