<?xml version="1.0" encoding="UTF-8" standalone="no"?>
<!DOCTYPE svg PUBLIC "-//W3C//DTD SVG 1.1//EN"
 "http://www.w3.org/Graphics/SVG/1.1/DTD/svg11.dtd">
<!-- Generated by graphviz version 2.38.0 (20140413.2041)
 -->
<!-- Title: %3 Pages: 1 -->
<svg width="422pt" height="188pt"
 viewBox="0.00 0.00 422.00 188.00" xmlns="http://www.w3.org/2000/svg" xmlns:xlink="http://www.w3.org/1999/xlink">
<g id="graph0" class="graph" transform="scale(1 1) rotate(0) translate(4 184)">
<title>%3</title>
<polygon fill="white" stroke="none" points="-4,4 -4,-184 418,-184 418,4 -4,4"/>
<!-- v0 -->
<g id="node1" class="node"><title>v0</title>
<ellipse fill="none" stroke="black" cx="27" cy="-90" rx="27" ry="18"/>
<text text-anchor="middle" x="27" y="-86.3" font-family="Times,serif" font-size="14.00">0</text>
</g>
<!-- v1 -->
<g id="node2" class="node"><title>v1</title>
<ellipse fill="none" stroke="black" cx="99" cy="-90" rx="27" ry="18"/>
<text text-anchor="middle" x="99" y="-86.3" font-family="Times,serif" font-size="14.00">1</text>
</g>
<!-- p0 -->
<g id="node3" class="node"><title>p0</title>
<path fill="none" stroke="black" d="M79.5,-36C79.5,-36 44.5,-36 44.5,-36 38.5,-36 32.5,-30 32.5,-24 32.5,-24 32.5,-12 32.5,-12 32.5,-6 38.5,-0 44.5,-0 44.5,-0 79.5,-0 79.5,-0 85.5,-0 91.5,-6 91.5,-12 91.5,-12 91.5,-24 91.5,-24 91.5,-30 85.5,-36 79.5,-36"/>
<text text-anchor="middle" x="62" y="-14.3" font-family="Times,serif" font-size="14.00">path (3)</text>
</g>
<!-- v1&#45;&gt;p0 -->
<g id="edge1" class="edge"><title>v1&#45;&gt;p0</title>
<path fill="none" stroke="black" d="M90.4185,-72.7646C86.0635,-64.5255 80.6674,-54.3166 75.7511,-45.0157"/>
<polygon fill="black" stroke="black" points="78.8187,-43.3293 71.0512,-36.1239 72.63,-46.6005 78.8187,-43.3293"/>
</g>
<!-- v6 -->
<g id="node6" class="node"><title>v6</title>
<ellipse fill="none" stroke="black" cx="137" cy="-18" rx="27" ry="18"/>
<text text-anchor="middle" x="137" y="-14.3" font-family="Times,serif" font-size="14.00">6</text>
</g>
<!-- v1&#45;&gt;v6 -->
<g id="edge6" class="edge"><title>v1&#45;&gt;v6</title>
<path fill="none" stroke="black" d="M107.813,-72.7646C112.418,-64.2831 118.155,-53.7144 123.321,-44.1974"/>
<polygon fill="black" stroke="black" points="126.539,-45.6057 128.234,-35.1473 120.387,-42.266 126.539,-45.6057"/>
</g>
<!-- v3 -->
<g id="node4" class="node"><title>v3</title>
<ellipse fill="none" stroke="black" cx="207" cy="-162" rx="27" ry="18"/>
<text text-anchor="middle" x="207" y="-158.3" font-family="Times,serif" font-size="14.00">3</text>
</g>
<!-- v3&#45;&gt;v0 -->
<g id="edge2" class="edge"><title>v3&#45;&gt;v0</title>
<path fill="none" stroke="black" d="M183.306,-153.002C154.563,-143.135 104.766,-125.507 63,-108 61.1833,-107.238 59.3249,-106.436 57.4566,-105.611"/>
<polygon fill="black" stroke="black" points="58.7311,-102.345 48.1801,-101.383 55.8281,-108.715 58.7311,-102.345"/>
</g>
<!-- v3&#45;&gt;v1 -->
<g id="edge3" class="edge"><title>v3&#45;&gt;v1</title>
<path fill="none" stroke="black" d="M188.188,-148.807C170.998,-137.665 145.382,-121.062 126.007,-108.504"/>
<polygon fill="black" stroke="black" points="127.892,-105.555 117.597,-103.053 124.084,-111.429 127.892,-105.555"/>
</g>
<!-- v4 -->
<g id="node5" class="node"><title>v4</title>
<ellipse fill="none" stroke="black" cx="171" cy="-90" rx="27" ry="18"/>
<text text-anchor="middle" x="171" y="-86.3" font-family="Times,serif" font-size="14.00">4</text>
</g>
<!-- v3&#45;&gt;v4 -->
<g id="edge8" class="edge"><title>v3&#45;&gt;v4</title>
<path fill="none" stroke="black" d="M198.65,-144.765C194.288,-136.283 188.853,-125.714 183.959,-116.197"/>
<polygon fill="black" stroke="black" points="186.99,-114.439 179.304,-107.147 180.765,-117.641 186.99,-114.439"/>
</g>
<!-- v7 -->
<g id="node7" class="node"><title>v7</title>
<ellipse fill="none" stroke="black" cx="243" cy="-90" rx="27" ry="18"/>
<text text-anchor="middle" x="243" y="-86.3" font-family="Times,serif" font-size="14.00">7</text>
</g>
<!-- v3&#45;&gt;v7 -->
<g id="edge7" class="edge"><title>v3&#45;&gt;v7</title>
<path fill="none" stroke="black" d="M215.35,-144.765C219.712,-136.283 225.147,-125.714 230.041,-116.197"/>
<polygon fill="black" stroke="black" points="233.235,-117.641 234.696,-107.147 227.01,-114.439 233.235,-117.641"/>
</g>
<!-- v8 -->
<g id="node8" class="node"><title>v8</title>
<ellipse fill="none" stroke="black" cx="315" cy="-90" rx="27" ry="18"/>
<text text-anchor="middle" x="315" y="-86.3" font-family="Times,serif" font-size="14.00">8</text>
</g>
<!-- v3&#45;&gt;v8 -->
<g id="edge4" class="edge"><title>v3&#45;&gt;v8</title>
<path fill="none" stroke="black" d="M225.812,-148.807C243.002,-137.665 268.618,-121.062 287.993,-108.504"/>
<polygon fill="black" stroke="black" points="289.916,-111.429 296.403,-103.053 286.108,-105.555 289.916,-111.429"/>
</g>
<!-- v9 -->
<g id="node9" class="node"><title>v9</title>
<ellipse fill="none" stroke="black" cx="387" cy="-90" rx="27" ry="18"/>
<text text-anchor="middle" x="387" y="-86.3" font-family="Times,serif" font-size="14.00">9</text>
</g>
<!-- v3&#45;&gt;v9 -->
<g id="edge5" class="edge"><title>v3&#45;&gt;v9</title>
<path fill="none" stroke="black" d="M230.694,-153.002C259.437,-143.135 309.234,-125.507 351,-108 352.817,-107.238 354.675,-106.436 356.543,-105.611"/>
<polygon fill="black" stroke="black" points="358.172,-108.715 365.82,-101.383 355.269,-102.345 358.172,-108.715"/>
</g>
</g>
</svg>
