<?xml version="1.0" encoding="UTF-8" standalone="no"?>
<!DOCTYPE svg PUBLIC "-//W3C//DTD SVG 1.1//EN"
 "http://www.w3.org/Graphics/SVG/1.1/DTD/svg11.dtd">
<!-- Generated by graphviz version 2.38.0 (20140413.2041)
 -->
<!-- Title: %3 Pages: 1 -->
<svg width="912pt" height="332pt"
 viewBox="0.00 0.00 912.00 332.00" xmlns="http://www.w3.org/2000/svg" xmlns:xlink="http://www.w3.org/1999/xlink">
<g id="graph0" class="graph" transform="scale(1 1) rotate(0) translate(4 328)">
<title>%3</title>
<polygon fill="white" stroke="none" points="-4,4 -4,-328 908,-328 908,4 -4,4"/>
<!-- v0 -->
<g id="node1" class="node"><title>v0</title>
<ellipse fill="none" stroke="black" cx="27" cy="-162" rx="27" ry="18"/>
<text text-anchor="middle" x="27" y="-158.3" font-family="Times,serif" font-size="14.00">0</text>
</g>
<!-- v2 -->
<g id="node3" class="node"><title>v2</title>
<ellipse fill="none" stroke="black" cx="27" cy="-90" rx="27" ry="18"/>
<text text-anchor="middle" x="27" y="-86.3" font-family="Times,serif" font-size="14.00">2</text>
</g>
<!-- v0&#45;&gt;v2 -->
<g id="edge22" class="edge"><title>v0&#45;&gt;v2</title>
<path fill="none" stroke="black" d="M21.1601,-144.411C20.2975,-136.507 20.0481,-126.852 20.4119,-117.935"/>
<polygon fill="black" stroke="black" points="23.9033,-118.179 21.1206,-107.956 16.9209,-117.683 23.9033,-118.179"/>
</g>
<!-- v1 -->
<g id="node2" class="node"><title>v1</title>
<ellipse fill="none" stroke="black" cx="27" cy="-18" rx="27" ry="18"/>
<text text-anchor="middle" x="27" y="-14.3" font-family="Times,serif" font-size="14.00">1</text>
</g>
<!-- v1&#45;&gt;v2 -->
<g id="edge5" class="edge"><title>v1&#45;&gt;v2</title>
<path fill="none" stroke="black" d="M32.8794,-35.9562C33.7139,-43.8272 33.9485,-53.3739 33.5831,-62.1869"/>
<polygon fill="black" stroke="black" points="30.0742,-62.1835 32.8399,-72.411 37.0558,-62.6911 30.0742,-62.1835"/>
</g>
<!-- v2&#45;&gt;v0 -->
<g id="edge19" class="edge"><title>v2&#45;&gt;v0</title>
<path fill="none" stroke="black" d="M32.8794,-107.956C33.7139,-115.827 33.9485,-125.374 33.5831,-134.187"/>
<polygon fill="black" stroke="black" points="30.0742,-134.184 32.8399,-144.411 37.0558,-134.691 30.0742,-134.184"/>
</g>
<!-- v2&#45;&gt;v1 -->
<g id="edge1" class="edge"><title>v2&#45;&gt;v1</title>
<path fill="none" stroke="black" d="M21.1601,-72.411C20.2975,-64.507 20.0481,-54.8518 20.4119,-45.9352"/>
<polygon fill="black" stroke="black" points="23.9033,-46.1791 21.1206,-35.9562 16.9209,-45.6831 23.9033,-46.1791"/>
</g>
<!-- v3 -->
<g id="node4" class="node"><title>v3</title>
<ellipse fill="none" stroke="black" cx="475" cy="-234" rx="27" ry="18"/>
<text text-anchor="middle" x="475" y="-230.3" font-family="Times,serif" font-size="14.00">3</text>
</g>
<!-- v4 -->
<g id="node5" class="node"><title>v4</title>
<ellipse fill="none" stroke="black" cx="99" cy="-162" rx="27" ry="18"/>
<text text-anchor="middle" x="99" y="-158.3" font-family="Times,serif" font-size="14.00">4</text>
</g>
<!-- v3&#45;&gt;v4 -->
<g id="edge21" class="edge"><title>v3&#45;&gt;v4</title>
<path fill="none" stroke="black" d="M447.964,-231.418C389.628,-227.437 248.076,-214.72 135,-180 133.067,-179.407 131.106,-178.727 129.149,-177.988"/>
<polygon fill="black" stroke="black" points="130.11,-174.595 119.536,-173.932 127.388,-181.044 130.11,-174.595"/>
</g>
<!-- v5 -->
<g id="node6" class="node"><title>v5</title>
<ellipse fill="none" stroke="black" cx="171" cy="-162" rx="27" ry="18"/>
<text text-anchor="middle" x="171" y="-158.3" font-family="Times,serif" font-size="14.00">5</text>
</g>
<!-- v3&#45;&gt;v5 -->
<g id="edge16" class="edge"><title>v3&#45;&gt;v5</title>
<path fill="none" stroke="black" d="M448.582,-229.966C399.877,-223.895 293.041,-208.342 207,-180 205.08,-179.367 203.128,-178.658 201.178,-177.896"/>
<polygon fill="black" stroke="black" points="202.154,-174.506 191.584,-173.781 199.394,-180.939 202.154,-174.506"/>
</g>
<!-- p0 -->
<g id="node7" class="node"><title>p0</title>
<path fill="none" stroke="black" d="M263.5,-180C263.5,-180 228.5,-180 228.5,-180 222.5,-180 216.5,-174 216.5,-168 216.5,-168 216.5,-156 216.5,-156 216.5,-150 222.5,-144 228.5,-144 228.5,-144 263.5,-144 263.5,-144 269.5,-144 275.5,-150 275.5,-156 275.5,-156 275.5,-168 275.5,-168 275.5,-174 269.5,-180 263.5,-180"/>
<text text-anchor="middle" x="246" y="-158.3" font-family="Times,serif" font-size="14.00">path (3)</text>
</g>
<!-- v3&#45;&gt;p0 -->
<g id="edge9" class="edge"><title>v3&#45;&gt;p0</title>
<path fill="none" stroke="black" d="M449.903,-227.309C414.831,-219.086 349.107,-202.693 285.476,-180.29"/>
<polygon fill="black" stroke="black" points="286.292,-176.865 275.698,-176.793 283.935,-183.456 286.292,-176.865"/>
</g>
<!-- p1 -->
<g id="node8" class="node"><title>p1</title>
<path fill="none" stroke="black" d="M340.5,-180C340.5,-180 305.5,-180 305.5,-180 299.5,-180 293.5,-174 293.5,-168 293.5,-168 293.5,-156 293.5,-156 293.5,-150 299.5,-144 305.5,-144 305.5,-144 340.5,-144 340.5,-144 346.5,-144 352.5,-150 352.5,-156 352.5,-156 352.5,-168 352.5,-168 352.5,-174 346.5,-180 340.5,-180"/>
<text text-anchor="middle" x="323" y="-158.3" font-family="Times,serif" font-size="14.00">path (2)</text>
</g>
<!-- v3&#45;&gt;p1 -->
<g id="edge7" class="edge"><title>v3&#45;&gt;p1</title>
<path fill="none" stroke="black" d="M453.222,-222.971C429.474,-212.034 390.988,-194.31 362.001,-180.961"/>
<polygon fill="black" stroke="black" points="363.116,-177.621 352.569,-176.617 360.188,-183.98 363.116,-177.621"/>
</g>
<!-- p2 -->
<g id="node9" class="node"><title>p2</title>
<path fill="none" stroke="black" d="M417.5,-180C417.5,-180 382.5,-180 382.5,-180 376.5,-180 370.5,-174 370.5,-168 370.5,-168 370.5,-156 370.5,-156 370.5,-150 376.5,-144 382.5,-144 382.5,-144 417.5,-144 417.5,-144 423.5,-144 429.5,-150 429.5,-156 429.5,-156 429.5,-168 429.5,-168 429.5,-174 423.5,-180 417.5,-180"/>
<text text-anchor="middle" x="400" y="-158.3" font-family="Times,serif" font-size="14.00">path (2)</text>
</g>
<!-- v3&#45;&gt;p2 -->
<g id="edge18" class="edge"><title>v3&#45;&gt;p2</title>
<path fill="none" stroke="black" d="M459.823,-218.834C450.085,-209.746 437.19,-197.71 425.866,-187.141"/>
<polygon fill="black" stroke="black" points="428.034,-184.377 418.335,-180.113 423.258,-189.495 428.034,-184.377"/>
</g>
<!-- v10 -->
<g id="node11" class="node"><title>v10</title>
<ellipse fill="none" stroke="black" cx="475" cy="-162" rx="27" ry="18"/>
<text text-anchor="middle" x="475" y="-158.3" font-family="Times,serif" font-size="14.00">10</text>
</g>
<!-- v3&#45;&gt;v10 -->
<g id="edge6" class="edge"><title>v3&#45;&gt;v10</title>
<path fill="none" stroke="black" d="M475,-215.697C475,-207.983 475,-198.712 475,-190.112"/>
<polygon fill="black" stroke="black" points="478.5,-190.104 475,-180.104 471.5,-190.104 478.5,-190.104"/>
</g>
<!-- v12 -->
<g id="node13" class="node"><title>v12</title>
<ellipse fill="none" stroke="black" cx="547" cy="-162" rx="27" ry="18"/>
<text text-anchor="middle" x="547" y="-158.3" font-family="Times,serif" font-size="14.00">12</text>
</g>
<!-- v3&#45;&gt;v12 -->
<g id="edge17" class="edge"><title>v3&#45;&gt;v12</title>
<path fill="none" stroke="black" d="M489.57,-218.834C499.75,-208.938 513.524,-195.546 525.031,-184.359"/>
<polygon fill="black" stroke="black" points="527.474,-186.865 532.204,-177.385 522.595,-181.846 527.474,-186.865"/>
</g>
<!-- v13 -->
<g id="node14" class="node"><title>v13</title>
<ellipse fill="none" stroke="black" cx="619" cy="-162" rx="27" ry="18"/>
<text text-anchor="middle" x="619" y="-158.3" font-family="Times,serif" font-size="14.00">13</text>
</g>
<!-- v3&#45;&gt;v13 -->
<g id="edge13" class="edge"><title>v3&#45;&gt;v13</title>
<path fill="none" stroke="black" d="M496.248,-222.671C520.602,-210.832 560.719,-191.331 588.428,-177.862"/>
<polygon fill="black" stroke="black" points="590.202,-180.891 597.665,-173.371 587.141,-174.595 590.202,-180.891"/>
</g>
<!-- p4 -->
<g id="node15" class="node"><title>p4</title>
<path fill="none" stroke="black" d="M711.5,-180C711.5,-180 676.5,-180 676.5,-180 670.5,-180 664.5,-174 664.5,-168 664.5,-168 664.5,-156 664.5,-156 664.5,-150 670.5,-144 676.5,-144 676.5,-144 711.5,-144 711.5,-144 717.5,-144 723.5,-150 723.5,-156 723.5,-156 723.5,-168 723.5,-168 723.5,-174 717.5,-180 711.5,-180"/>
<text text-anchor="middle" x="694" y="-158.3" font-family="Times,serif" font-size="14.00">path (2)</text>
</g>
<!-- v3&#45;&gt;p4 -->
<g id="edge10" class="edge"><title>v3&#45;&gt;p4</title>
<path fill="none" stroke="black" d="M499.77,-226.756C534.769,-217.697 600.504,-199.813 655,-180 655.095,-179.965 655.191,-179.93 655.287,-179.896"/>
<polygon fill="black" stroke="black" points="656.287,-183.262 664.344,-176.381 653.755,-176.736 656.287,-183.262"/>
</g>
<!-- v17 -->
<g id="node17" class="node"><title>v17</title>
<ellipse fill="none" stroke="black" cx="769" cy="-162" rx="27" ry="18"/>
<text text-anchor="middle" x="769" y="-158.3" font-family="Times,serif" font-size="14.00">17</text>
</g>
<!-- v3&#45;&gt;v17 -->
<g id="edge3" class="edge"><title>v3&#45;&gt;v17</title>
<path fill="none" stroke="black" d="M501.543,-229.678C548.923,-223.283 650.798,-207.414 733,-180 734.918,-179.36 736.867,-178.645 738.816,-177.88"/>
<polygon fill="black" stroke="black" points="740.605,-180.921 748.407,-173.753 737.838,-174.49 740.605,-180.921"/>
</g>
<!-- v23 -->
<g id="node18" class="node"><title>v23</title>
<ellipse fill="none" stroke="black" cx="841" cy="-162" rx="27" ry="18"/>
<text text-anchor="middle" x="841" y="-158.3" font-family="Times,serif" font-size="14.00">23</text>
</g>
<!-- v3&#45;&gt;v23 -->
<g id="edge14" class="edge"><title>v3&#45;&gt;v23</title>
<path fill="none" stroke="black" d="M502.105,-231.239C559.248,-226.967 695.802,-213.804 805,-180 806.931,-179.402 808.891,-178.719 810.848,-177.978"/>
<polygon fill="black" stroke="black" points="812.611,-181.032 820.459,-173.915 809.886,-174.585 812.611,-181.032"/>
</g>
<!-- p3 -->
<g id="node10" class="node"><title>p3</title>
<path fill="none" stroke="black" d="M304.5,-36C304.5,-36 269.5,-36 269.5,-36 263.5,-36 257.5,-30 257.5,-24 257.5,-24 257.5,-12 257.5,-12 257.5,-6 263.5,-0 269.5,-0 269.5,-0 304.5,-0 304.5,-0 310.5,-0 316.5,-6 316.5,-12 316.5,-12 316.5,-24 316.5,-24 316.5,-30 310.5,-36 304.5,-36"/>
<text text-anchor="middle" x="287" y="-14.3" font-family="Times,serif" font-size="14.00">path (2)</text>
</g>
<!-- v11 -->
<g id="node12" class="node"><title>v11</title>
<ellipse fill="none" stroke="black" cx="287" cy="-90" rx="27" ry="18"/>
<text text-anchor="middle" x="287" y="-86.3" font-family="Times,serif" font-size="14.00">11</text>
</g>
<!-- v11&#45;&gt;v1 -->
<g id="edge8" class="edge"><title>v11&#45;&gt;v1</title>
<path fill="none" stroke="black" d="M262.07,-82.2881C215.382,-69.7184 114.692,-42.6094 61.5165,-28.2929"/>
<polygon fill="black" stroke="black" points="62.4205,-24.9117 51.8544,-25.6916 60.6006,-31.671 62.4205,-24.9117"/>
</g>
<!-- v11&#45;&gt;p3 -->
<g id="edge4" class="edge"><title>v11&#45;&gt;p3</title>
<path fill="none" stroke="black" d="M287,-71.6966C287,-63.9827 287,-54.7125 287,-46.1124"/>
<polygon fill="black" stroke="black" points="290.5,-46.1043 287,-36.1043 283.5,-46.1044 290.5,-46.1043"/>
</g>
<!-- v12&#45;&gt;v11 -->
<g id="edge15" class="edge"><title>v12&#45;&gt;v11</title>
<path fill="none" stroke="black" d="M526.37,-150.357C521.418,-148.055 516.088,-145.781 511,-144 446.401,-121.384 367.978,-105.307 323.142,-97.1422"/>
<polygon fill="black" stroke="black" points="323.491,-93.6491 313.031,-95.3317 322.257,-100.54 323.491,-93.6491"/>
</g>
<!-- p5 -->
<g id="node16" class="node"><title>p5</title>
<path fill="none" stroke="black" d="M564.5,-108C564.5,-108 529.5,-108 529.5,-108 523.5,-108 517.5,-102 517.5,-96 517.5,-96 517.5,-84 517.5,-84 517.5,-78 523.5,-72 529.5,-72 529.5,-72 564.5,-72 564.5,-72 570.5,-72 576.5,-78 576.5,-84 576.5,-84 576.5,-96 576.5,-96 576.5,-102 570.5,-108 564.5,-108"/>
<text text-anchor="middle" x="547" y="-86.3" font-family="Times,serif" font-size="14.00">path (2)</text>
</g>
<!-- v12&#45;&gt;p5 -->
<g id="edge12" class="edge"><title>v12&#45;&gt;p5</title>
<path fill="none" stroke="black" d="M547,-143.697C547,-135.983 547,-126.712 547,-118.112"/>
<polygon fill="black" stroke="black" points="550.5,-118.104 547,-108.104 543.5,-118.104 550.5,-118.104"/>
</g>
<!-- v25 -->
<g id="node20" class="node"><title>v25</title>
<ellipse fill="none" stroke="black" cx="805" cy="-90" rx="27" ry="18"/>
<text text-anchor="middle" x="805" y="-86.3" font-family="Times,serif" font-size="14.00">25</text>
</g>
<!-- v23&#45;&gt;v25 -->
<g id="edge11" class="edge"><title>v23&#45;&gt;v25</title>
<path fill="none" stroke="black" d="M832.65,-144.765C828.288,-136.283 822.853,-125.714 817.959,-116.197"/>
<polygon fill="black" stroke="black" points="820.99,-114.439 813.304,-107.147 814.765,-117.641 820.99,-114.439"/>
</g>
<!-- v26 -->
<g id="node21" class="node"><title>v26</title>
<ellipse fill="none" stroke="black" cx="877" cy="-90" rx="27" ry="18"/>
<text text-anchor="middle" x="877" y="-86.3" font-family="Times,serif" font-size="14.00">26</text>
</g>
<!-- v23&#45;&gt;v26 -->
<g id="edge2" class="edge"><title>v23&#45;&gt;v26</title>
<path fill="none" stroke="black" d="M849.35,-144.765C853.712,-136.283 859.147,-125.714 864.041,-116.197"/>
<polygon fill="black" stroke="black" points="867.235,-117.641 868.696,-107.147 861.01,-114.439 867.235,-117.641"/>
</g>
<!-- v24 -->
<g id="node19" class="node"><title>v24</title>
<ellipse fill="none" stroke="black" cx="475" cy="-306" rx="27" ry="18"/>
<text text-anchor="middle" x="475" y="-302.3" font-family="Times,serif" font-size="14.00">24</text>
</g>
<!-- v24&#45;&gt;v3 -->
<g id="edge20" class="edge"><title>v24&#45;&gt;v3</title>
<path fill="none" stroke="black" d="M475,-287.697C475,-279.983 475,-270.712 475,-262.112"/>
<polygon fill="black" stroke="black" points="478.5,-262.104 475,-252.104 471.5,-262.104 478.5,-262.104"/>
</g>
</g>
</svg>
