<?xml version="1.0" encoding="UTF-8" standalone="no"?>
<!DOCTYPE svg PUBLIC "-//W3C//DTD SVG 1.1//EN"
 "http://www.w3.org/Graphics/SVG/1.1/DTD/svg11.dtd">
<!-- Generated by graphviz version 2.40.1 (20161225.0304)
 -->
<!-- Title: %3 Pages: 1 -->
<svg width="706pt" height="1556pt"
 viewBox="0.00 0.00 706.00 1556.00" xmlns="http://www.w3.org/2000/svg" xmlns:xlink="http://www.w3.org/1999/xlink">
<g id="graph0" class="graph" transform="scale(1 1) rotate(0) translate(4 1552)">
<title>%3</title>
<polygon fill="#ffffff" stroke="transparent" points="-4,4 -4,-1552 702,-1552 702,4 -4,4"/>
<!-- 0 -->
<g id="node1" class="node">
<title>0</title>
<g id="a_node1"><a xlink:title="N">
<ellipse fill="#beff39" stroke="#000000" stroke-width="0" cx="356" cy="-1170" rx="18" ry="18"/>
</a>
</g>
</g>
<!-- 1 -->
<g id="node2" class="node">
<title>1</title>
<g id="a_node2"><a xlink:title="N">
<ellipse fill="#beff39" stroke="#000000" stroke-width="0" cx="275" cy="-1098" rx="18" ry="18"/>
</a>
</g>
</g>
<!-- 0&#45;&gt;1 -->
<g id="edge61" class="edge">
<title>0&#45;&gt;1</title>
<path fill="none" stroke="#000000" d="M342.2595,-1157.7862C329.6157,-1146.5473 310.6738,-1129.7101 296.1103,-1116.7647"/>
<polygon fill="#000000" stroke="#000000" points="298.337,-1114.0612 288.5376,-1110.0334 293.6865,-1119.2931 298.337,-1114.0612"/>
</g>
<!-- 3 -->
<g id="node4" class="node">
<title>3</title>
<g id="a_node4"><a xlink:title="N">
<ellipse fill="#beff39" stroke="#000000" stroke-width="0" cx="491" cy="-1098" rx="18" ry="18"/>
</a>
</g>
</g>
<!-- 0&#45;&gt;3 -->
<g id="edge19" class="edge">
<title>0&#45;&gt;3</title>
<path fill="none" stroke="#000000" d="M371.1306,-1160.0164C391.055,-1149.7201 425.99,-1132.8351 455,-1116 458.3575,-1114.0515 461.8638,-1111.8479 465.3709,-1109.6676"/>
<polygon fill="#000000" stroke="#000000" points="467.2542,-1112.6191 474.0064,-1104.4546 463.6365,-1106.6264 467.2542,-1112.6191"/>
</g>
<!-- 14 -->
<g id="node15" class="node">
<title>14</title>
<g id="a_node15"><a xlink:title="N">
<ellipse fill="#beff39" stroke="#000000" stroke-width="0" cx="437" cy="-1098" rx="18" ry="18"/>
</a>
</g>
</g>
<!-- 0&#45;&gt;14 -->
<g id="edge7" class="edge">
<title>0&#45;&gt;14</title>
<path fill="none" stroke="#000000" d="M369.7405,-1157.7862C382.3843,-1146.5473 401.3262,-1129.7101 415.8897,-1116.7647"/>
<polygon fill="#000000" stroke="#000000" points="418.3135,-1119.2931 423.4624,-1110.0334 413.663,-1114.0612 418.3135,-1119.2931"/>
</g>
<!-- 15 -->
<g id="node16" class="node">
<title>15</title>
<g id="a_node16"><a xlink:title="N">
<ellipse fill="#beff39" stroke="#000000" stroke-width="0" cx="183" cy="-1098" rx="18" ry="18"/>
</a>
</g>
</g>
<!-- 0&#45;&gt;15 -->
<g id="edge25" class="edge">
<title>0&#45;&gt;15</title>
<path fill="none" stroke="#000000" d="M338.7348,-1164.3058C311.814,-1155.2238 258.4197,-1136.3918 215,-1116 212.5425,-1114.8459 210.017,-1113.5775 207.514,-1112.2648"/>
<polygon fill="#000000" stroke="#000000" points="209.1615,-1109.1766 198.7097,-1107.4417 205.7983,-1115.3158 209.1615,-1109.1766"/>
</g>
<!-- 44 -->
<g id="node45" class="node">
<title>44</title>
<g id="a_node45"><a xlink:title="S">
<ellipse fill="#ff6f00" stroke="#000000" stroke-width="0" cx="329" cy="-1098" rx="18" ry="18"/>
</a>
</g>
</g>
<!-- 0&#45;&gt;44 -->
<g id="edge17" class="edge">
<title>0&#45;&gt;44</title>
<path fill="none" stroke="#000000" d="M349.6014,-1152.937C346.407,-1144.4186 342.471,-1133.9227 338.8982,-1124.3952"/>
<polygon fill="#000000" stroke="#000000" points="342.1411,-1123.0749 335.3527,-1114.9405 335.5868,-1125.5328 342.1411,-1123.0749"/>
</g>
<!-- 47 -->
<g id="node48" class="node">
<title>47</title>
<g id="a_node48"><a xlink:title="D">
<ellipse fill="#0000f6" stroke="#000000" stroke-width="0" cx="383" cy="-1098" rx="18" ry="18"/>
</a>
</g>
</g>
<!-- 0&#45;&gt;47 -->
<g id="edge5" class="edge">
<title>0&#45;&gt;47</title>
<path fill="none" stroke="#000000" d="M362.3986,-1152.937C365.593,-1144.4186 369.529,-1133.9227 373.1018,-1124.3952"/>
<polygon fill="#000000" stroke="#000000" points="376.4132,-1125.5328 376.6473,-1114.9405 369.8589,-1123.0749 376.4132,-1125.5328"/>
</g>
<!-- 8 -->
<g id="node9" class="node">
<title>8</title>
<g id="a_node9"><a xlink:title="N">
<ellipse fill="#beff39" stroke="#000000" stroke-width="0" cx="329" cy="-1026" rx="18" ry="18"/>
</a>
</g>
</g>
<!-- 1&#45;&gt;8 -->
<g id="edge74" class="edge">
<title>1&#45;&gt;8</title>
<path fill="none" stroke="#000000" d="M285.9277,-1083.4297C293.3934,-1073.4754 303.4368,-1060.0842 311.9474,-1048.7368"/>
<polygon fill="#000000" stroke="#000000" points="314.8885,-1050.6486 318.0885,-1040.5486 309.2885,-1046.4486 314.8885,-1050.6486"/>
</g>
<!-- 23 -->
<g id="node24" class="node">
<title>23</title>
<g id="a_node24"><a xlink:title="N">
<ellipse fill="#beff39" stroke="#000000" stroke-width="0" cx="113" cy="-1026" rx="18" ry="18"/>
</a>
</g>
</g>
<!-- 1&#45;&gt;23 -->
<g id="edge46" class="edge">
<title>1&#45;&gt;23</title>
<path fill="none" stroke="#000000" d="M259.3348,-1088.4619C254.2252,-1085.5489 248.4604,-1082.4668 243,-1080 198.807,-1060.0354 183.4068,-1065.6207 140,-1044 138.837,-1043.4207 137.6644,-1042.7997 136.4935,-1042.1492"/>
<polygon fill="#000000" stroke="#000000" points="138.0897,-1039.0227 127.7332,-1036.7882 134.4358,-1044.9934 138.0897,-1039.0227"/>
</g>
<!-- 27 -->
<g id="node28" class="node">
<title>27</title>
<g id="a_node28"><a xlink:title="D">
<ellipse fill="#0000f6" stroke="#000000" stroke-width="0" cx="167" cy="-1026" rx="18" ry="18"/>
</a>
</g>
</g>
<!-- 1&#45;&gt;27 -->
<g id="edge10" class="edge">
<title>1&#45;&gt;27</title>
<path fill="none" stroke="#000000" d="M259.9831,-1087.9887C242.03,-1076.02 211.7675,-1055.845 190.6604,-1041.7736"/>
<polygon fill="#000000" stroke="#000000" points="192.4995,-1038.7932 182.2376,-1036.1584 188.6166,-1044.6176 192.4995,-1038.7932"/>
</g>
<!-- 53 -->
<g id="node54" class="node">
<title>53</title>
<g id="a_node54"><a xlink:title="N">
<ellipse fill="#beff39" stroke="#000000" stroke-width="0" cx="221" cy="-1026" rx="18" ry="18"/>
</a>
</g>
</g>
<!-- 1&#45;&gt;53 -->
<g id="edge62" class="edge">
<title>1&#45;&gt;53</title>
<path fill="none" stroke="#000000" d="M264.0723,-1083.4297C256.6066,-1073.4754 246.5632,-1060.0842 238.0526,-1048.7368"/>
<polygon fill="#000000" stroke="#000000" points="240.7115,-1046.4486 231.9115,-1040.5486 235.1115,-1050.6486 240.7115,-1046.4486"/>
</g>
<!-- 60 -->
<g id="node61" class="node">
<title>60</title>
<g id="a_node61"><a xlink:title="N">
<ellipse fill="#beff39" stroke="#000000" stroke-width="0" cx="275" cy="-1026" rx="18" ry="18"/>
</a>
</g>
</g>
<!-- 1&#45;&gt;60 -->
<g id="edge13" class="edge">
<title>1&#45;&gt;60</title>
<path fill="none" stroke="#000000" d="M275,-1079.8314C275,-1072.131 275,-1062.9743 275,-1054.4166"/>
<polygon fill="#000000" stroke="#000000" points="278.5001,-1054.4132 275,-1044.4133 271.5001,-1054.4133 278.5001,-1054.4132"/>
</g>
<!-- 2 -->
<g id="node3" class="node">
<title>2</title>
<g id="a_node3"><a xlink:title="D">
<ellipse fill="#0000f6" stroke="#000000" stroke-width="0" cx="248" cy="-594" rx="18" ry="18"/>
</a>
</g>
</g>
<!-- 3&#45;&gt;0 -->
<g id="edge29" class="edge">
<title>3&#45;&gt;0</title>
<path fill="none" stroke="#000000" d="M479.4839,-1112.0278C477.3485,-1113.4076 475.144,-1114.7558 473,-1116 443.2003,-1133.2934 407.1487,-1150.6394 382.774,-1160.8425"/>
<polygon fill="#000000" stroke="#000000" points="381.366,-1157.6364 373.4109,-1164.6341 383.9935,-1164.1246 381.366,-1157.6364"/>
</g>
<!-- 35 -->
<g id="node36" class="node">
<title>35</title>
<g id="a_node36"><a xlink:title="N">
<ellipse fill="#beff39" stroke="#000000" stroke-width="0" cx="491" cy="-1026" rx="18" ry="18"/>
</a>
</g>
</g>
<!-- 3&#45;&gt;35 -->
<g id="edge4" class="edge">
<title>3&#45;&gt;35</title>
<path fill="none" stroke="#000000" d="M491,-1079.8314C491,-1072.131 491,-1062.9743 491,-1054.4166"/>
<polygon fill="#000000" stroke="#000000" points="494.5001,-1054.4132 491,-1044.4133 487.5001,-1054.4133 494.5001,-1054.4132"/>
</g>
<!-- 4 -->
<g id="node5" class="node">
<title>4</title>
<g id="a_node5"><a xlink:title="D">
<ellipse fill="#0000f6" stroke="#000000" stroke-width="0" cx="140" cy="-306" rx="18" ry="18"/>
</a>
</g>
</g>
<!-- 5 -->
<g id="node6" class="node">
<title>5</title>
<g id="a_node6"><a xlink:title="D">
<ellipse fill="#0000f6" stroke="#000000" stroke-width="0" cx="126" cy="-882" rx="18" ry="18"/>
</a>
</g>
</g>
<!-- 48 -->
<g id="node49" class="node">
<title>48</title>
<g id="a_node49"><a xlink:title="D">
<ellipse fill="#0000f6" stroke="#000000" stroke-width="0" cx="106" cy="-810" rx="18" ry="18"/>
</a>
</g>
</g>
<!-- 5&#45;&gt;48 -->
<g id="edge45" class="edge">
<title>5&#45;&gt;48</title>
<path fill="none" stroke="#000000" d="M121.1586,-864.5708C118.8907,-856.4065 116.1354,-846.4873 113.599,-837.3566"/>
<polygon fill="#000000" stroke="#000000" points="116.915,-836.2166 110.8662,-827.5182 110.1704,-838.0902 116.915,-836.2166"/>
</g>
<!-- 6 -->
<g id="node7" class="node">
<title>6</title>
<g id="a_node7"><a xlink:title="D">
<ellipse fill="#0000f6" stroke="#000000" stroke-width="0" cx="194" cy="-882" rx="18" ry="18"/>
</a>
</g>
</g>
<!-- 11 -->
<g id="node12" class="node">
<title>11</title>
<g id="a_node12"><a xlink:title="D">
<ellipse fill="#0000f6" stroke="#000000" stroke-width="0" cx="302" cy="-810" rx="18" ry="18"/>
</a>
</g>
</g>
<!-- 6&#45;&gt;11 -->
<g id="edge47" class="edge">
<title>6&#45;&gt;11</title>
<path fill="none" stroke="#000000" d="M209.0169,-871.9887C226.97,-860.02 257.2325,-839.845 278.3396,-825.7736"/>
<polygon fill="#000000" stroke="#000000" points="280.3834,-828.6176 286.7624,-820.1584 276.5005,-822.7932 280.3834,-828.6176"/>
</g>
<!-- 16 -->
<g id="node17" class="node">
<title>16</title>
<g id="a_node17"><a xlink:title="D">
<ellipse fill="#0000f6" stroke="#000000" stroke-width="0" cx="194" cy="-810" rx="18" ry="18"/>
</a>
</g>
</g>
<!-- 6&#45;&gt;16 -->
<g id="edge84" class="edge">
<title>6&#45;&gt;16</title>
<path fill="none" stroke="#000000" d="M188.1601,-864.937C187.2975,-856.8072 187.0481,-846.8761 187.4119,-837.7047"/>
<polygon fill="#000000" stroke="#000000" points="190.9233,-837.658 188.1206,-827.4407 183.94,-837.1758 190.9233,-837.658"/>
</g>
<!-- 58 -->
<g id="node59" class="node">
<title>58</title>
<g id="a_node59"><a xlink:title="D">
<ellipse fill="#0000f6" stroke="#000000" stroke-width="0" cx="248" cy="-810" rx="18" ry="18"/>
</a>
</g>
</g>
<!-- 6&#45;&gt;58 -->
<g id="edge64" class="edge">
<title>6&#45;&gt;58</title>
<path fill="none" stroke="#000000" d="M204.9277,-867.4297C212.3934,-857.4754 222.4368,-844.0842 230.9474,-832.7368"/>
<polygon fill="#000000" stroke="#000000" points="233.8885,-834.6486 237.0885,-824.5486 228.2885,-830.4486 233.8885,-834.6486"/>
</g>
<!-- 7 -->
<g id="node8" class="node">
<title>7</title>
<g id="a_node8"><a xlink:title="N">
<ellipse fill="#beff39" stroke="#000000" stroke-width="0" cx="491" cy="-810" rx="18" ry="18"/>
</a>
</g>
</g>
<!-- 9 -->
<g id="node10" class="node">
<title>9</title>
<g id="a_node10"><a xlink:title="D">
<ellipse fill="#0000f6" stroke="#000000" stroke-width="0" cx="86" cy="-594" rx="18" ry="18"/>
</a>
</g>
</g>
<!-- 10 -->
<g id="node11" class="node">
<title>10</title>
<g id="a_node11"><a xlink:title="D">
<ellipse fill="#0000f6" stroke="#000000" stroke-width="0" cx="18" cy="-810" rx="18" ry="18"/>
</a>
</g>
</g>
<!-- 12 -->
<g id="node13" class="node">
<title>12</title>
<g id="a_node13"><a xlink:title="D">
<ellipse fill="#0000f6" stroke="#000000" stroke-width="0" cx="18" cy="-882" rx="18" ry="18"/>
</a>
</g>
</g>
<!-- 12&#45;&gt;10 -->
<g id="edge36" class="edge">
<title>12&#45;&gt;10</title>
<path fill="none" stroke="#000000" d="M18,-863.8314C18,-856.131 18,-846.9743 18,-838.4166"/>
<polygon fill="#000000" stroke="#000000" points="21.5001,-838.4132 18,-828.4133 14.5001,-838.4133 21.5001,-838.4132"/>
</g>
<!-- 13 -->
<g id="node14" class="node">
<title>13</title>
<g id="a_node14"><a xlink:title="N">
<ellipse fill="#beff39" stroke="#000000" stroke-width="0" cx="491" cy="-954" rx="18" ry="18"/>
</a>
</g>
</g>
<!-- 51 -->
<g id="node52" class="node">
<title>51</title>
<g id="a_node52"><a xlink:title="N">
<ellipse fill="#beff39" stroke="#000000" stroke-width="0" cx="491" cy="-882" rx="18" ry="18"/>
</a>
</g>
</g>
<!-- 13&#45;&gt;51 -->
<g id="edge78" class="edge">
<title>13&#45;&gt;51</title>
<path fill="none" stroke="#000000" d="M491,-935.8314C491,-928.131 491,-918.9743 491,-910.4166"/>
<polygon fill="#000000" stroke="#000000" points="494.5001,-910.4132 491,-900.4133 487.5001,-910.4133 494.5001,-910.4132"/>
</g>
<!-- 16&#45;&gt;6 -->
<g id="edge1" class="edge">
<title>16&#45;&gt;6</title>
<path fill="none" stroke="#000000" d="M199.8794,-827.4407C200.7231,-835.6255 200.9536,-845.572 200.5709,-854.7193"/>
<polygon fill="#000000" stroke="#000000" points="197.0625,-854.7127 199.8399,-864.937 204.0446,-855.2123 197.0625,-854.7127"/>
</g>
<!-- 22 -->
<g id="node23" class="node">
<title>22</title>
<g id="a_node23"><a xlink:title="D">
<ellipse fill="#0000f6" stroke="#000000" stroke-width="0" cx="140" cy="-738" rx="18" ry="18"/>
</a>
</g>
</g>
<!-- 16&#45;&gt;22 -->
<g id="edge31" class="edge">
<title>16&#45;&gt;22</title>
<path fill="none" stroke="#000000" d="M183.0723,-795.4297C175.6066,-785.4754 165.5632,-772.0842 157.0526,-760.7368"/>
<polygon fill="#000000" stroke="#000000" points="159.7115,-758.4486 150.9115,-752.5486 154.1115,-762.6486 159.7115,-758.4486"/>
</g>
<!-- 40 -->
<g id="node41" class="node">
<title>40</title>
<g id="a_node41"><a xlink:title="D">
<ellipse fill="#0000f6" stroke="#000000" stroke-width="0" cx="194" cy="-738" rx="18" ry="18"/>
</a>
</g>
</g>
<!-- 16&#45;&gt;40 -->
<g id="edge49" class="edge">
<title>16&#45;&gt;40</title>
<path fill="none" stroke="#000000" d="M194,-791.8314C194,-784.131 194,-774.9743 194,-766.4166"/>
<polygon fill="#000000" stroke="#000000" points="197.5001,-766.4132 194,-756.4133 190.5001,-766.4133 197.5001,-766.4132"/>
</g>
<!-- 41 -->
<g id="node42" class="node">
<title>41</title>
<g id="a_node42"><a xlink:title="D">
<ellipse fill="#0000f6" stroke="#000000" stroke-width="0" cx="248" cy="-738" rx="18" ry="18"/>
</a>
</g>
</g>
<!-- 16&#45;&gt;41 -->
<g id="edge73" class="edge">
<title>16&#45;&gt;41</title>
<path fill="none" stroke="#000000" d="M204.9277,-795.4297C212.3934,-785.4754 222.4368,-772.0842 230.9474,-760.7368"/>
<polygon fill="#000000" stroke="#000000" points="233.8885,-762.6486 237.0885,-752.5486 228.2885,-758.4486 233.8885,-762.6486"/>
</g>
<!-- 17 -->
<g id="node18" class="node">
<title>17</title>
<g id="a_node18"><a xlink:title="D">
<ellipse fill="#0000f6" stroke="#000000" stroke-width="0" cx="437" cy="-1026" rx="18" ry="18"/>
</a>
</g>
</g>
<!-- 18 -->
<g id="node19" class="node">
<title>18</title>
<g id="a_node19"><a xlink:title="D">
<ellipse fill="#0000f6" stroke="#000000" stroke-width="0" cx="194" cy="-666" rx="18" ry="18"/>
</a>
</g>
</g>
<!-- 19 -->
<g id="node20" class="node">
<title>19</title>
<g id="a_node20"><a xlink:title="S">
<ellipse fill="#ff6f00" stroke="#000000" stroke-width="0" cx="383" cy="-954" rx="18" ry="18"/>
</a>
</g>
</g>
<!-- 20 -->
<g id="node21" class="node">
<title>20</title>
<g id="a_node21"><a xlink:title="D">
<ellipse fill="#0000f6" stroke="#000000" stroke-width="0" cx="140" cy="-378" rx="18" ry="18"/>
</a>
</g>
</g>
<!-- 20&#45;&gt;4 -->
<g id="edge38" class="edge">
<title>20&#45;&gt;4</title>
<path fill="none" stroke="#000000" d="M140,-359.8314C140,-352.131 140,-342.9743 140,-334.4166"/>
<polygon fill="#000000" stroke="#000000" points="143.5001,-334.4132 140,-324.4133 136.5001,-334.4133 143.5001,-334.4132"/>
</g>
<!-- 21 -->
<g id="node22" class="node">
<title>21</title>
<g id="a_node22"><a xlink:title="D">
<ellipse fill="#0000f6" stroke="#000000" stroke-width="0" cx="140" cy="-666" rx="18" ry="18"/>
</a>
</g>
</g>
<!-- 52 -->
<g id="node53" class="node">
<title>52</title>
<g id="a_node53"><a xlink:title="D">
<ellipse fill="#0000f6" stroke="#000000" stroke-width="0" cx="140" cy="-594" rx="18" ry="18"/>
</a>
</g>
</g>
<!-- 21&#45;&gt;52 -->
<g id="edge42" class="edge">
<title>21&#45;&gt;52</title>
<path fill="none" stroke="#000000" d="M140,-647.8314C140,-640.131 140,-630.9743 140,-622.4166"/>
<polygon fill="#000000" stroke="#000000" points="143.5001,-622.4132 140,-612.4133 136.5001,-622.4133 143.5001,-622.4132"/>
</g>
<!-- 22&#45;&gt;21 -->
<g id="edge15" class="edge">
<title>22&#45;&gt;21</title>
<path fill="none" stroke="#000000" d="M140,-719.8314C140,-712.131 140,-702.9743 140,-694.4166"/>
<polygon fill="#000000" stroke="#000000" points="143.5001,-694.4132 140,-684.4133 136.5001,-694.4133 143.5001,-694.4132"/>
</g>
<!-- 23&#45;&gt;0 -->
<g id="edge76" class="edge">
<title>23&#45;&gt;0</title>
<path fill="none" stroke="#000000" d="M127.9449,-1036.3977C131.8163,-1038.9704 136.0177,-1041.6586 140,-1044 170.158,-1061.7312 181.46,-1059.7671 210,-1080 228.979,-1093.4548 228.9448,-1102.6533 248,-1116 274.025,-1134.2286 307.0919,-1149.8016 329.7391,-1159.4735"/>
<polygon fill="#000000" stroke="#000000" points="328.476,-1162.739 339.0521,-1163.3692 331.1774,-1156.2812 328.476,-1162.739"/>
</g>
<!-- 45 -->
<g id="node46" class="node">
<title>45</title>
<g id="a_node46"><a xlink:title="D">
<ellipse fill="#0000f6" stroke="#000000" stroke-width="0" cx="45" cy="-954" rx="18" ry="18"/>
</a>
</g>
</g>
<!-- 23&#45;&gt;45 -->
<g id="edge22" class="edge">
<title>23&#45;&gt;45</title>
<path fill="none" stroke="#000000" d="M100.5278,-1012.7941C90.463,-1002.1373 76.1227,-986.9535 64.5366,-974.6858"/>
<polygon fill="#000000" stroke="#000000" points="66.804,-971.9892 57.3932,-967.1222 61.7149,-976.7955 66.804,-971.9892"/>
</g>
<!-- 56 -->
<g id="node57" class="node">
<title>56</title>
<g id="a_node57"><a xlink:title="D">
<ellipse fill="#0000f6" stroke="#000000" stroke-width="0" cx="113" cy="-954" rx="18" ry="18"/>
</a>
</g>
</g>
<!-- 23&#45;&gt;56 -->
<g id="edge83" class="edge">
<title>23&#45;&gt;56</title>
<path fill="none" stroke="#000000" d="M113,-1007.8314C113,-1000.131 113,-990.9743 113,-982.4166"/>
<polygon fill="#000000" stroke="#000000" points="116.5001,-982.4132 113,-972.4133 109.5001,-982.4133 116.5001,-982.4132"/>
</g>
<!-- 24 -->
<g id="node25" class="node">
<title>24</title>
<g id="a_node25"><a xlink:title="S">
<ellipse fill="#ff6f00" stroke="#000000" stroke-width="0" cx="545" cy="-1170" rx="18" ry="18"/>
</a>
</g>
</g>
<!-- 61 -->
<g id="node62" class="node">
<title>61</title>
<g id="a_node62"><a xlink:title="S">
<ellipse fill="#ff6f00" stroke="#000000" stroke-width="0" cx="545" cy="-1098" rx="18" ry="18"/>
</a>
</g>
</g>
<!-- 24&#45;&gt;61 -->
<g id="edge43" class="edge">
<title>24&#45;&gt;61</title>
<path fill="none" stroke="#000000" d="M545,-1151.8314C545,-1144.131 545,-1134.9743 545,-1126.4166"/>
<polygon fill="#000000" stroke="#000000" points="548.5001,-1126.4132 545,-1116.4133 541.5001,-1126.4133 548.5001,-1126.4132"/>
</g>
<!-- 25 -->
<g id="node26" class="node">
<title>25</title>
<g id="a_node26"><a xlink:title="N">
<ellipse fill="#beff39" stroke="#000000" stroke-width="0" cx="275" cy="-882" rx="18" ry="18"/>
</a>
</g>
</g>
<!-- 26 -->
<g id="node27" class="node">
<title>26</title>
<g id="a_node27"><a xlink:title="N">
<ellipse fill="#beff39" stroke="#000000" stroke-width="0" cx="275" cy="-954" rx="18" ry="18"/>
</a>
</g>
</g>
<!-- 26&#45;&gt;25 -->
<g id="edge20" class="edge">
<title>26&#45;&gt;25</title>
<path fill="none" stroke="#000000" d="M275,-935.8314C275,-928.131 275,-918.9743 275,-910.4166"/>
<polygon fill="#000000" stroke="#000000" points="278.5001,-910.4132 275,-900.4133 271.5001,-910.4133 278.5001,-910.4132"/>
</g>
<!-- 31 -->
<g id="node32" class="node">
<title>31</title>
<g id="a_node32"><a xlink:title="D">
<ellipse fill="#0000f6" stroke="#000000" stroke-width="0" cx="167" cy="-954" rx="18" ry="18"/>
</a>
</g>
</g>
<!-- 27&#45;&gt;31 -->
<g id="edge37" class="edge">
<title>27&#45;&gt;31</title>
<path fill="none" stroke="#000000" d="M167,-1007.8314C167,-1000.131 167,-990.9743 167,-982.4166"/>
<polygon fill="#000000" stroke="#000000" points="170.5001,-982.4132 167,-972.4133 163.5001,-982.4133 170.5001,-982.4132"/>
</g>
<!-- 28 -->
<g id="node29" class="node">
<title>28</title>
<g id="a_node29"><a xlink:title="S">
<ellipse fill="#ff6f00" stroke="#000000" stroke-width="0" cx="491" cy="-1386" rx="18" ry="18"/>
</a>
</g>
</g>
<!-- 33 -->
<g id="node34" class="node">
<title>33</title>
<g id="a_node34"><a xlink:title="S">
<ellipse fill="#ff6f00" stroke="#000000" stroke-width="0" cx="491" cy="-1314" rx="18" ry="18"/>
</a>
</g>
</g>
<!-- 28&#45;&gt;33 -->
<g id="edge44" class="edge">
<title>28&#45;&gt;33</title>
<path fill="none" stroke="#000000" d="M491,-1367.8314C491,-1360.131 491,-1350.9743 491,-1342.4166"/>
<polygon fill="#000000" stroke="#000000" points="494.5001,-1342.4132 491,-1332.4133 487.5001,-1342.4133 494.5001,-1342.4132"/>
</g>
<!-- 29 -->
<g id="node30" class="node">
<title>29</title>
<g id="a_node30"><a xlink:title="D">
<ellipse fill="#0000f6" stroke="#000000" stroke-width="0" cx="140" cy="-450" rx="18" ry="18"/>
</a>
</g>
</g>
<!-- 29&#45;&gt;20 -->
<g id="edge69" class="edge">
<title>29&#45;&gt;20</title>
<path fill="none" stroke="#000000" d="M140,-431.8314C140,-424.131 140,-414.9743 140,-406.4166"/>
<polygon fill="#000000" stroke="#000000" points="143.5001,-406.4132 140,-396.4133 136.5001,-406.4133 143.5001,-406.4132"/>
</g>
<!-- 30 -->
<g id="node31" class="node">
<title>30</title>
<g id="a_node31"><a xlink:title="S">
<ellipse fill="#ff6f00" stroke="#000000" stroke-width="0" cx="545" cy="-1458" rx="18" ry="18"/>
</a>
</g>
</g>
<!-- 49 -->
<g id="node50" class="node">
<title>49</title>
<g id="a_node50"><a xlink:title="S">
<ellipse fill="#ff6f00" stroke="#000000" stroke-width="0" cx="545" cy="-1386" rx="18" ry="18"/>
</a>
</g>
</g>
<!-- 30&#45;&gt;49 -->
<g id="edge53" class="edge">
<title>30&#45;&gt;49</title>
<path fill="none" stroke="#000000" d="M545,-1439.8314C545,-1432.131 545,-1422.9743 545,-1414.4166"/>
<polygon fill="#000000" stroke="#000000" points="548.5001,-1414.4132 545,-1404.4133 541.5001,-1414.4133 548.5001,-1414.4132"/>
</g>
<!-- 31&#45;&gt;6 -->
<g id="edge2" class="edge">
<title>31&#45;&gt;6</title>
<path fill="none" stroke="#000000" d="M173.3986,-936.937C176.593,-928.4186 180.529,-917.9227 184.1018,-908.3952"/>
<polygon fill="#000000" stroke="#000000" points="187.4132,-909.5328 187.6473,-898.9405 180.8589,-907.0749 187.4132,-909.5328"/>
</g>
<!-- 32 -->
<g id="node33" class="node">
<title>32</title>
<g id="a_node33"><a xlink:title="S">
<ellipse fill="#ff6f00" stroke="#000000" stroke-width="0" cx="518" cy="-1530" rx="18" ry="18"/>
</a>
</g>
</g>
<!-- 32&#45;&gt;30 -->
<g id="edge80" class="edge">
<title>32&#45;&gt;30</title>
<path fill="none" stroke="#000000" d="M524.3986,-1512.937C527.593,-1504.4186 531.529,-1493.9227 535.1018,-1484.3952"/>
<polygon fill="#000000" stroke="#000000" points="538.4132,-1485.5328 538.6473,-1474.9405 531.8589,-1483.0749 538.4132,-1485.5328"/>
</g>
<!-- 50 -->
<g id="node51" class="node">
<title>50</title>
<g id="a_node51"><a xlink:title="S">
<ellipse fill="#ff6f00" stroke="#000000" stroke-width="0" cx="491" cy="-1458" rx="18" ry="18"/>
</a>
</g>
</g>
<!-- 32&#45;&gt;50 -->
<g id="edge52" class="edge">
<title>32&#45;&gt;50</title>
<path fill="none" stroke="#000000" d="M511.6014,-1512.937C508.407,-1504.4186 504.471,-1493.9227 500.8982,-1484.3952"/>
<polygon fill="#000000" stroke="#000000" points="504.1411,-1483.0749 497.3527,-1474.9405 497.5868,-1485.5328 504.1411,-1483.0749"/>
</g>
<!-- 34 -->
<g id="node35" class="node">
<title>34</title>
<g id="a_node35"><a xlink:title="N">
<ellipse fill="#beff39" stroke="#000000" stroke-width="0" cx="491" cy="-1242" rx="18" ry="18"/>
</a>
</g>
</g>
<!-- 33&#45;&gt;34 -->
<g id="edge41" class="edge">
<title>33&#45;&gt;34</title>
<path fill="none" stroke="#000000" d="M491,-1295.8314C491,-1288.131 491,-1278.9743 491,-1270.4166"/>
<polygon fill="#000000" stroke="#000000" points="494.5001,-1270.4132 491,-1260.4133 487.5001,-1270.4133 494.5001,-1270.4132"/>
</g>
<!-- 43 -->
<g id="node44" class="node">
<title>43</title>
<g id="a_node44"><a xlink:title="N">
<ellipse fill="#beff39" stroke="#000000" stroke-width="0" cx="491" cy="-1170" rx="18" ry="18"/>
</a>
</g>
</g>
<!-- 34&#45;&gt;43 -->
<g id="edge28" class="edge">
<title>34&#45;&gt;43</title>
<path fill="none" stroke="#000000" d="M491,-1223.8314C491,-1216.131 491,-1206.9743 491,-1198.4166"/>
<polygon fill="#000000" stroke="#000000" points="494.5001,-1198.4132 491,-1188.4133 487.5001,-1198.4133 494.5001,-1198.4132"/>
</g>
<!-- 35&#45;&gt;13 -->
<g id="edge57" class="edge">
<title>35&#45;&gt;13</title>
<path fill="none" stroke="#000000" d="M491,-1007.8314C491,-1000.131 491,-990.9743 491,-982.4166"/>
<polygon fill="#000000" stroke="#000000" points="494.5001,-982.4132 491,-972.4133 487.5001,-982.4133 494.5001,-982.4132"/>
</g>
<!-- 36 -->
<g id="node37" class="node">
<title>36</title>
<g id="a_node37"><a xlink:title="D">
<ellipse fill="#0000f6" stroke="#000000" stroke-width="0" cx="72" cy="-882" rx="18" ry="18"/>
</a>
</g>
</g>
<!-- 37 -->
<g id="node38" class="node">
<title>37</title>
<g id="a_node38"><a xlink:title="S">
<ellipse fill="#ff6f00" stroke="#000000" stroke-width="0" cx="383" cy="-1026" rx="18" ry="18"/>
</a>
</g>
</g>
<!-- 37&#45;&gt;19 -->
<g id="edge30" class="edge">
<title>37&#45;&gt;19</title>
<path fill="none" stroke="#000000" d="M383,-1007.8314C383,-1000.131 383,-990.9743 383,-982.4166"/>
<polygon fill="#000000" stroke="#000000" points="386.5001,-982.4132 383,-972.4133 379.5001,-982.4133 386.5001,-982.4132"/>
</g>
<!-- 38 -->
<g id="node39" class="node">
<title>38</title>
<g id="a_node39"><a xlink:title="D">
<ellipse fill="#0000f6" stroke="#000000" stroke-width="0" cx="140" cy="-522" rx="18" ry="18"/>
</a>
</g>
</g>
<!-- 38&#45;&gt;29 -->
<g id="edge24" class="edge">
<title>38&#45;&gt;29</title>
<path fill="none" stroke="#000000" d="M140,-503.8314C140,-496.131 140,-486.9743 140,-478.4166"/>
<polygon fill="#000000" stroke="#000000" points="143.5001,-478.4132 140,-468.4133 136.5001,-478.4133 143.5001,-478.4132"/>
</g>
<!-- 39 -->
<g id="node40" class="node">
<title>39</title>
<g id="a_node40"><a xlink:title="D">
<ellipse fill="#0000f6" stroke="#000000" stroke-width="0" cx="248" cy="-666" rx="18" ry="18"/>
</a>
</g>
</g>
<!-- 39&#45;&gt;2 -->
<g id="edge39" class="edge">
<title>39&#45;&gt;2</title>
<path fill="none" stroke="#000000" d="M248,-647.8314C248,-640.131 248,-630.9743 248,-622.4166"/>
<polygon fill="#000000" stroke="#000000" points="251.5001,-622.4132 248,-612.4133 244.5001,-622.4133 251.5001,-622.4132"/>
</g>
<!-- 40&#45;&gt;18 -->
<g id="edge12" class="edge">
<title>40&#45;&gt;18</title>
<path fill="none" stroke="#000000" d="M194,-719.8314C194,-712.131 194,-702.9743 194,-694.4166"/>
<polygon fill="#000000" stroke="#000000" points="197.5001,-694.4132 194,-684.4133 190.5001,-694.4133 197.5001,-694.4132"/>
</g>
<!-- 41&#45;&gt;39 -->
<g id="edge56" class="edge">
<title>41&#45;&gt;39</title>
<path fill="none" stroke="#000000" d="M248,-719.8314C248,-712.131 248,-702.9743 248,-694.4166"/>
<polygon fill="#000000" stroke="#000000" points="251.5001,-694.4132 248,-684.4133 244.5001,-694.4133 251.5001,-694.4132"/>
</g>
<!-- 42 -->
<g id="node43" class="node">
<title>42</title>
<g id="a_node43"><a xlink:title="S">
<ellipse fill="#ff6f00" stroke="#000000" stroke-width="0" cx="545" cy="-1242" rx="18" ry="18"/>
</a>
</g>
</g>
<!-- 42&#45;&gt;24 -->
<g id="edge23" class="edge">
<title>42&#45;&gt;24</title>
<path fill="none" stroke="#000000" d="M545,-1223.8314C545,-1216.131 545,-1206.9743 545,-1198.4166"/>
<polygon fill="#000000" stroke="#000000" points="548.5001,-1198.4132 545,-1188.4133 541.5001,-1198.4133 548.5001,-1198.4132"/>
</g>
<!-- 43&#45;&gt;3 -->
<g id="edge8" class="edge">
<title>43&#45;&gt;3</title>
<path fill="none" stroke="#000000" d="M491,-1151.8314C491,-1144.131 491,-1134.9743 491,-1126.4166"/>
<polygon fill="#000000" stroke="#000000" points="494.5001,-1126.4132 491,-1116.4133 487.5001,-1126.4133 494.5001,-1126.4132"/>
</g>
<!-- 44&#45;&gt;37 -->
<g id="edge11" class="edge">
<title>44&#45;&gt;37</title>
<path fill="none" stroke="#000000" d="M339.9277,-1083.4297C347.3934,-1073.4754 357.4368,-1060.0842 365.9474,-1048.7368"/>
<polygon fill="#000000" stroke="#000000" points="368.8885,-1050.6486 372.0885,-1040.5486 363.2885,-1046.4486 368.8885,-1050.6486"/>
</g>
<!-- 45&#45;&gt;12 -->
<g id="edge54" class="edge">
<title>45&#45;&gt;12</title>
<path fill="none" stroke="#000000" d="M38.6014,-936.937C35.407,-928.4186 31.471,-917.9227 27.8982,-908.3952"/>
<polygon fill="#000000" stroke="#000000" points="31.1411,-907.0749 24.3527,-898.9405 24.5868,-909.5328 31.1411,-907.0749"/>
</g>
<!-- 46 -->
<g id="node47" class="node">
<title>46</title>
<g id="a_node47"><a xlink:title="D">
<ellipse fill="#0000f6" stroke="#000000" stroke-width="0" cx="86" cy="-738" rx="18" ry="18"/>
</a>
</g>
</g>
<!-- 54 -->
<g id="node55" class="node">
<title>54</title>
<g id="a_node55"><a xlink:title="D">
<ellipse fill="#0000f6" stroke="#000000" stroke-width="0" cx="86" cy="-666" rx="18" ry="18"/>
</a>
</g>
</g>
<!-- 46&#45;&gt;54 -->
<g id="edge60" class="edge">
<title>46&#45;&gt;54</title>
<path fill="none" stroke="#000000" d="M86,-719.8314C86,-712.131 86,-702.9743 86,-694.4166"/>
<polygon fill="#000000" stroke="#000000" points="89.5001,-694.4132 86,-684.4133 82.5001,-694.4133 89.5001,-694.4132"/>
</g>
<!-- 47&#45;&gt;17 -->
<g id="edge85" class="edge">
<title>47&#45;&gt;17</title>
<path fill="none" stroke="#000000" d="M393.9277,-1083.4297C401.3934,-1073.4754 411.4368,-1060.0842 419.9474,-1048.7368"/>
<polygon fill="#000000" stroke="#000000" points="422.8885,-1050.6486 426.0885,-1040.5486 417.2885,-1046.4486 422.8885,-1050.6486"/>
</g>
<!-- 48&#45;&gt;46 -->
<g id="edge75" class="edge">
<title>48&#45;&gt;46</title>
<path fill="none" stroke="#000000" d="M101.1586,-792.5708C98.8907,-784.4065 96.1354,-774.4873 93.599,-765.3566"/>
<polygon fill="#000000" stroke="#000000" points="96.915,-764.2166 90.8662,-755.5182 90.1704,-766.0902 96.915,-764.2166"/>
</g>
<!-- 55 -->
<g id="node56" class="node">
<title>55</title>
<g id="a_node56"><a xlink:title="S">
<ellipse fill="#ff6f00" stroke="#000000" stroke-width="0" cx="545" cy="-1314" rx="18" ry="18"/>
</a>
</g>
</g>
<!-- 49&#45;&gt;55 -->
<g id="edge27" class="edge">
<title>49&#45;&gt;55</title>
<path fill="none" stroke="#000000" d="M545,-1367.8314C545,-1360.131 545,-1350.9743 545,-1342.4166"/>
<polygon fill="#000000" stroke="#000000" points="548.5001,-1342.4132 545,-1332.4133 541.5001,-1342.4133 548.5001,-1342.4132"/>
</g>
<!-- 50&#45;&gt;28 -->
<g id="edge40" class="edge">
<title>50&#45;&gt;28</title>
<path fill="none" stroke="#000000" d="M491,-1439.8314C491,-1432.131 491,-1422.9743 491,-1414.4166"/>
<polygon fill="#000000" stroke="#000000" points="494.5001,-1414.4132 491,-1404.4133 487.5001,-1414.4133 494.5001,-1414.4132"/>
</g>
<!-- 51&#45;&gt;7 -->
<g id="edge48" class="edge">
<title>51&#45;&gt;7</title>
<path fill="none" stroke="#000000" d="M491,-863.8314C491,-856.131 491,-846.9743 491,-838.4166"/>
<polygon fill="#000000" stroke="#000000" points="494.5001,-838.4132 491,-828.4133 487.5001,-838.4133 494.5001,-838.4132"/>
</g>
<!-- 52&#45;&gt;38 -->
<g id="edge77" class="edge">
<title>52&#45;&gt;38</title>
<path fill="none" stroke="#000000" d="M140,-575.8314C140,-568.131 140,-558.9743 140,-550.4166"/>
<polygon fill="#000000" stroke="#000000" points="143.5001,-550.4132 140,-540.4133 136.5001,-550.4133 143.5001,-550.4132"/>
</g>
<!-- 59 -->
<g id="node60" class="node">
<title>59</title>
<g id="a_node60"><a xlink:title="N">
<ellipse fill="#beff39" stroke="#000000" stroke-width="0" cx="221" cy="-954" rx="18" ry="18"/>
</a>
</g>
</g>
<!-- 53&#45;&gt;59 -->
<g id="edge70" class="edge">
<title>53&#45;&gt;59</title>
<path fill="none" stroke="#000000" d="M221,-1007.8314C221,-1000.131 221,-990.9743 221,-982.4166"/>
<polygon fill="#000000" stroke="#000000" points="224.5001,-982.4132 221,-972.4133 217.5001,-982.4133 224.5001,-982.4132"/>
</g>
<!-- 54&#45;&gt;9 -->
<g id="edge32" class="edge">
<title>54&#45;&gt;9</title>
<path fill="none" stroke="#000000" d="M86,-647.8314C86,-640.131 86,-630.9743 86,-622.4166"/>
<polygon fill="#000000" stroke="#000000" points="89.5001,-622.4132 86,-612.4133 82.5001,-622.4133 89.5001,-622.4132"/>
</g>
<!-- 55&#45;&gt;42 -->
<g id="edge35" class="edge">
<title>55&#45;&gt;42</title>
<path fill="none" stroke="#000000" d="M545,-1295.8314C545,-1288.131 545,-1278.9743 545,-1270.4166"/>
<polygon fill="#000000" stroke="#000000" points="548.5001,-1270.4132 545,-1260.4133 541.5001,-1270.4133 548.5001,-1270.4132"/>
</g>
<!-- 56&#45;&gt;5 -->
<g id="edge50" class="edge">
<title>56&#45;&gt;5</title>
<path fill="none" stroke="#000000" d="M116.2135,-936.2022C117.651,-928.2406 119.3795,-918.6671 120.9813,-909.7957"/>
<polygon fill="#000000" stroke="#000000" points="124.4458,-910.3053 122.7784,-899.8425 117.5572,-909.0615 124.4458,-910.3053"/>
</g>
<!-- 56&#45;&gt;36 -->
<g id="edge58" class="edge">
<title>56&#45;&gt;36</title>
<path fill="none" stroke="#000000" d="M103.9008,-938.0209C98.6988,-928.8857 92.0608,-917.2286 86.1884,-906.9162"/>
<polygon fill="#000000" stroke="#000000" points="89.0637,-904.8924 81.0738,-897.9345 82.9808,-908.3563 89.0637,-904.8924"/>
</g>
<!-- 57 -->
<g id="node58" class="node">
<title>57</title>
<g id="a_node58"><a xlink:title="D">
<ellipse fill="#0000f6" stroke="#000000" stroke-width="0" cx="302" cy="-738" rx="18" ry="18"/>
</a>
</g>
</g>
<!-- 58&#45;&gt;57 -->
<g id="edge59" class="edge">
<title>58&#45;&gt;57</title>
<path fill="none" stroke="#000000" d="M258.9277,-795.4297C266.3934,-785.4754 276.4368,-772.0842 284.9474,-760.7368"/>
<polygon fill="#000000" stroke="#000000" points="287.8885,-762.6486 291.0885,-752.5486 282.2885,-758.4486 287.8885,-762.6486"/>
</g>
<!-- 60&#45;&gt;26 -->
<g id="edge71" class="edge">
<title>60&#45;&gt;26</title>
<path fill="none" stroke="#000000" d="M275,-1007.8314C275,-1000.131 275,-990.9743 275,-982.4166"/>
<polygon fill="#000000" stroke="#000000" points="278.5001,-982.4132 275,-972.4133 271.5001,-982.4133 278.5001,-982.4132"/>
</g>
<!-- 62 -->
<g id="node63" class="node">
<title>62</title>
<g id="a_node63"><a xlink:title="S">
<ellipse fill="#ff6f00" stroke="#000000" stroke-width="0" cx="545" cy="-1026" rx="18" ry="18"/>
</a>
</g>
</g>
<!-- 61&#45;&gt;62 -->
<g id="edge79" class="edge">
<title>61&#45;&gt;62</title>
<path fill="none" stroke="#000000" d="M545,-1079.8314C545,-1072.131 545,-1062.9743 545,-1054.4166"/>
<polygon fill="#000000" stroke="#000000" points="548.5001,-1054.4132 545,-1044.4133 541.5001,-1054.4133 548.5001,-1054.4132"/>
</g>
<!-- 65 -->
<g id="node66" class="node">
<title>65</title>
<g id="a_node66"><a xlink:title="S">
<ellipse fill="#ff6f00" stroke="#000000" stroke-width="0" cx="545" cy="-954" rx="18" ry="18"/>
</a>
</g>
</g>
<!-- 62&#45;&gt;65 -->
<g id="edge21" class="edge">
<title>62&#45;&gt;65</title>
<path fill="none" stroke="#000000" d="M545,-1007.8314C545,-1000.131 545,-990.9743 545,-982.4166"/>
<polygon fill="#000000" stroke="#000000" points="548.5001,-982.4132 545,-972.4133 541.5001,-982.4133 548.5001,-982.4132"/>
</g>
<!-- 63 -->
<g id="node64" class="node">
<title>63</title>
<g id="a_node64"><a xlink:title="S">
<ellipse fill="#ff6f00" stroke="#000000" stroke-width="0" cx="545" cy="-882" rx="18" ry="18"/>
</a>
</g>
</g>
<!-- 64 -->
<g id="node65" class="node">
<title>64</title>
<g id="a_node65"><a xlink:title="S">
<ellipse fill="#ff6f00" stroke="#000000" stroke-width="0" cx="545" cy="-810" rx="18" ry="18"/>
</a>
</g>
</g>
<!-- 63&#45;&gt;64 -->
<g id="edge18" class="edge">
<title>63&#45;&gt;64</title>
<path fill="none" stroke="#000000" d="M545,-863.8314C545,-856.131 545,-846.9743 545,-838.4166"/>
<polygon fill="#000000" stroke="#000000" points="548.5001,-838.4132 545,-828.4133 541.5001,-838.4133 548.5001,-838.4132"/>
</g>
<!-- 72 -->
<g id="node73" class="node">
<title>72</title>
<g id="a_node73"><a xlink:title="S">
<ellipse fill="#ff6f00" stroke="#000000" stroke-width="0" cx="545" cy="-738" rx="18" ry="18"/>
</a>
</g>
</g>
<!-- 64&#45;&gt;72 -->
<g id="edge63" class="edge">
<title>64&#45;&gt;72</title>
<path fill="none" stroke="#000000" d="M545,-791.8314C545,-784.131 545,-774.9743 545,-766.4166"/>
<polygon fill="#000000" stroke="#000000" points="548.5001,-766.4132 545,-756.4133 541.5001,-766.4133 548.5001,-766.4132"/>
</g>
<!-- 65&#45;&gt;63 -->
<g id="edge82" class="edge">
<title>65&#45;&gt;63</title>
<path fill="none" stroke="#000000" d="M545,-935.8314C545,-928.131 545,-918.9743 545,-910.4166"/>
<polygon fill="#000000" stroke="#000000" points="548.5001,-910.4132 545,-900.4133 541.5001,-910.4133 548.5001,-910.4132"/>
</g>
<!-- 66 -->
<g id="node67" class="node">
<title>66</title>
<g id="a_node67"><a xlink:title="N">
<ellipse fill="#beff39" stroke="#000000" stroke-width="0" cx="410" cy="-90" rx="18" ry="18"/>
</a>
</g>
</g>
<!-- 67 -->
<g id="node68" class="node">
<title>67</title>
<g id="a_node68"><a xlink:title="G">
<ellipse fill="#008cff" stroke="#000000" stroke-width="0" cx="464" cy="-90" rx="18" ry="18"/>
</a>
</g>
</g>
<!-- 68 -->
<g id="node69" class="node">
<title>68</title>
<g id="a_node69"><a xlink:title="N">
<ellipse fill="#beff39" stroke="#000000" stroke-width="0" cx="518" cy="-90" rx="18" ry="18"/>
</a>
</g>
</g>
<!-- 71 -->
<g id="node72" class="node">
<title>71</title>
<g id="a_node72"><a xlink:title="N">
<ellipse fill="#beff39" stroke="#000000" stroke-width="0" cx="518" cy="-18" rx="18" ry="18"/>
</a>
</g>
</g>
<!-- 68&#45;&gt;71 -->
<g id="edge9" class="edge">
<title>68&#45;&gt;71</title>
<path fill="none" stroke="#000000" d="M518,-71.8314C518,-64.131 518,-54.9743 518,-46.4166"/>
<polygon fill="#000000" stroke="#000000" points="521.5001,-46.4132 518,-36.4133 514.5001,-46.4133 521.5001,-46.4132"/>
</g>
<!-- 69 -->
<g id="node70" class="node">
<title>69</title>
<g id="a_node70"><a xlink:title="N">
<ellipse fill="#beff39" stroke="#000000" stroke-width="0" cx="545" cy="-162" rx="18" ry="18"/>
</a>
</g>
</g>
<!-- 69&#45;&gt;66 -->
<g id="edge68" class="edge">
<title>69&#45;&gt;66</title>
<path fill="none" stroke="#000000" d="M528.5668,-154.5634C507.104,-144.6754 468.5483,-126.3082 437,-108 435.8763,-107.3479 434.7358,-106.6671 433.5909,-105.9683"/>
<polygon fill="#000000" stroke="#000000" points="435.2372,-102.8666 424.9265,-100.4291 431.4667,-108.7644 435.2372,-102.8666"/>
</g>
<!-- 69&#45;&gt;67 -->
<g id="edge81" class="edge">
<title>69&#45;&gt;67</title>
<path fill="none" stroke="#000000" d="M531.2595,-149.7862C518.6157,-138.5473 499.6738,-121.7101 485.1103,-108.7647"/>
<polygon fill="#000000" stroke="#000000" points="487.337,-106.0612 477.5376,-102.0334 482.6865,-111.2931 487.337,-106.0612"/>
</g>
<!-- 69&#45;&gt;68 -->
<g id="edge72" class="edge">
<title>69&#45;&gt;68</title>
<path fill="none" stroke="#000000" d="M538.6014,-144.937C535.407,-136.4186 531.471,-125.9227 527.8982,-116.3952"/>
<polygon fill="#000000" stroke="#000000" points="531.1411,-115.0749 524.3527,-106.9405 524.5868,-117.5328 531.1411,-115.0749"/>
</g>
<!-- 70 -->
<g id="node71" class="node">
<title>70</title>
<g id="a_node71"><a xlink:title="N">
<ellipse fill="#beff39" stroke="#000000" stroke-width="0" cx="572" cy="-90" rx="18" ry="18"/>
</a>
</g>
</g>
<!-- 69&#45;&gt;70 -->
<g id="edge6" class="edge">
<title>69&#45;&gt;70</title>
<path fill="none" stroke="#000000" d="M551.3986,-144.937C554.593,-136.4186 558.529,-125.9227 562.1018,-116.3952"/>
<polygon fill="#000000" stroke="#000000" points="565.4132,-117.5328 565.6473,-106.9405 558.8589,-115.0749 565.4132,-117.5328"/>
</g>
<!-- 74 -->
<g id="node75" class="node">
<title>74</title>
<g id="a_node75"><a xlink:title="S">
<ellipse fill="#ff6f00" stroke="#000000" stroke-width="0" cx="626" cy="-90" rx="18" ry="18"/>
</a>
</g>
</g>
<!-- 69&#45;&gt;74 -->
<g id="edge65" class="edge">
<title>69&#45;&gt;74</title>
<path fill="none" stroke="#000000" d="M558.7405,-149.7862C571.3843,-138.5473 590.3262,-121.7101 604.8897,-108.7647"/>
<polygon fill="#000000" stroke="#000000" points="607.3135,-111.2931 612.4624,-102.0334 602.663,-106.0612 607.3135,-111.2931"/>
</g>
<!-- 82 -->
<g id="node83" class="node">
<title>82</title>
<g id="a_node83"><a xlink:title="N">
<ellipse fill="#beff39" stroke="#000000" stroke-width="0" cx="680" cy="-90" rx="18" ry="18"/>
</a>
</g>
</g>
<!-- 69&#45;&gt;82 -->
<g id="edge55" class="edge">
<title>69&#45;&gt;82</title>
<path fill="none" stroke="#000000" d="M561.4332,-154.5634C582.896,-144.6754 621.4517,-126.3082 653,-108 654.1237,-107.3479 655.2642,-106.6671 656.4091,-105.9683"/>
<polygon fill="#000000" stroke="#000000" points="658.5333,-108.7644 665.0735,-100.4291 654.7628,-102.8666 658.5333,-108.7644"/>
</g>
<!-- 76 -->
<g id="node77" class="node">
<title>76</title>
<g id="a_node77"><a xlink:title="S">
<ellipse fill="#ff6f00" stroke="#000000" stroke-width="0" cx="545" cy="-666" rx="18" ry="18"/>
</a>
</g>
</g>
<!-- 72&#45;&gt;76 -->
<g id="edge66" class="edge">
<title>72&#45;&gt;76</title>
<path fill="none" stroke="#000000" d="M545,-719.8314C545,-712.131 545,-702.9743 545,-694.4166"/>
<polygon fill="#000000" stroke="#000000" points="548.5001,-694.4132 545,-684.4133 541.5001,-694.4133 548.5001,-694.4132"/>
</g>
<!-- 73 -->
<g id="node74" class="node">
<title>73</title>
<g id="a_node74"><a xlink:title="N">
<ellipse fill="#beff39" stroke="#000000" stroke-width="0" cx="545" cy="-306" rx="18" ry="18"/>
</a>
</g>
</g>
<!-- 75 -->
<g id="node76" class="node">
<title>75</title>
<g id="a_node76"><a xlink:title="N">
<ellipse fill="#beff39" stroke="#000000" stroke-width="0" cx="545" cy="-234" rx="18" ry="18"/>
</a>
</g>
</g>
<!-- 73&#45;&gt;75 -->
<g id="edge33" class="edge">
<title>73&#45;&gt;75</title>
<path fill="none" stroke="#000000" d="M545,-287.8314C545,-280.131 545,-270.9743 545,-262.4166"/>
<polygon fill="#000000" stroke="#000000" points="548.5001,-262.4132 545,-252.4133 541.5001,-262.4133 548.5001,-262.4132"/>
</g>
<!-- 75&#45;&gt;69 -->
<g id="edge26" class="edge">
<title>75&#45;&gt;69</title>
<path fill="none" stroke="#000000" d="M545,-215.8314C545,-208.131 545,-198.9743 545,-190.4166"/>
<polygon fill="#000000" stroke="#000000" points="548.5001,-190.4132 545,-180.4133 541.5001,-190.4133 548.5001,-190.4132"/>
</g>
<!-- 80 -->
<g id="node81" class="node">
<title>80</title>
<g id="a_node81"><a xlink:title="S">
<ellipse fill="#ff6f00" stroke="#000000" stroke-width="0" cx="545" cy="-594" rx="18" ry="18"/>
</a>
</g>
</g>
<!-- 76&#45;&gt;80 -->
<g id="edge14" class="edge">
<title>76&#45;&gt;80</title>
<path fill="none" stroke="#000000" d="M545,-647.8314C545,-640.131 545,-630.9743 545,-622.4166"/>
<polygon fill="#000000" stroke="#000000" points="548.5001,-622.4132 545,-612.4133 541.5001,-622.4133 548.5001,-622.4132"/>
</g>
<!-- 77 -->
<g id="node78" class="node">
<title>77</title>
<g id="a_node78"><a xlink:title="T">
<ellipse fill="#ff3f00" stroke="#000000" stroke-width="0" cx="545" cy="-450" rx="18" ry="18"/>
</a>
</g>
</g>
<!-- 78 -->
<g id="node79" class="node">
<title>78</title>
<g id="a_node79"><a xlink:title="N">
<ellipse fill="#beff39" stroke="#000000" stroke-width="0" cx="545" cy="-378" rx="18" ry="18"/>
</a>
</g>
</g>
<!-- 77&#45;&gt;78 -->
<g id="edge67" class="edge">
<title>77&#45;&gt;78</title>
<path fill="none" stroke="#000000" d="M545,-431.8314C545,-424.131 545,-414.9743 545,-406.4166"/>
<polygon fill="#000000" stroke="#000000" points="548.5001,-406.4132 545,-396.4133 541.5001,-406.4133 548.5001,-406.4132"/>
</g>
<!-- 78&#45;&gt;73 -->
<g id="edge16" class="edge">
<title>78&#45;&gt;73</title>
<path fill="none" stroke="#000000" d="M545,-359.8314C545,-352.131 545,-342.9743 545,-334.4166"/>
<polygon fill="#000000" stroke="#000000" points="548.5001,-334.4132 545,-324.4133 541.5001,-334.4133 548.5001,-334.4132"/>
</g>
<!-- 79 -->
<g id="node80" class="node">
<title>79</title>
<g id="a_node80"><a xlink:title="S">
<ellipse fill="#ff6f00" stroke="#000000" stroke-width="0" cx="545" cy="-522" rx="18" ry="18"/>
</a>
</g>
</g>
<!-- 79&#45;&gt;77 -->
<g id="edge3" class="edge">
<title>79&#45;&gt;77</title>
<path fill="none" stroke="#000000" d="M545,-503.8314C545,-496.131 545,-486.9743 545,-478.4166"/>
<polygon fill="#000000" stroke="#000000" points="548.5001,-478.4132 545,-468.4133 541.5001,-478.4133 548.5001,-478.4132"/>
</g>
<!-- 80&#45;&gt;79 -->
<g id="edge34" class="edge">
<title>80&#45;&gt;79</title>
<path fill="none" stroke="#000000" d="M545,-575.8314C545,-568.131 545,-558.9743 545,-550.4166"/>
<polygon fill="#000000" stroke="#000000" points="548.5001,-550.4132 545,-540.4133 541.5001,-550.4133 548.5001,-550.4132"/>
</g>
<!-- 81 -->
<g id="node82" class="node">
<title>81</title>
<g id="a_node82"><a xlink:title="N">
<ellipse fill="#beff39" stroke="#000000" stroke-width="0" cx="680" cy="-18" rx="18" ry="18"/>
</a>
</g>
</g>
<!-- 82&#45;&gt;81 -->
<g id="edge51" class="edge">
<title>82&#45;&gt;81</title>
<path fill="none" stroke="#000000" d="M680,-71.8314C680,-64.131 680,-54.9743 680,-46.4166"/>
<polygon fill="#000000" stroke="#000000" points="683.5001,-46.4132 680,-36.4133 676.5001,-46.4133 683.5001,-46.4132"/>
</g>
</g>
</svg>
