<?xml version="1.0" encoding="UTF-8" standalone="no"?>
<!DOCTYPE svg PUBLIC "-//W3C//DTD SVG 1.1//EN"
 "http://www.w3.org/Graphics/SVG/1.1/DTD/svg11.dtd">
<!-- Generated by graphviz version 2.38.0 (20140413.2041)
 -->
<!-- Title: %3 Pages: 1 -->
<svg width="455pt" height="404pt"
 viewBox="0.00 0.00 455.09 404.00" xmlns="http://www.w3.org/2000/svg" xmlns:xlink="http://www.w3.org/1999/xlink">
<g id="graph0" class="graph" transform="scale(1 1) rotate(0) translate(4 400)">
<title>%3</title>
<polygon fill="white" stroke="none" points="-4,4 -4,-400 451.093,-400 451.093,4 -4,4"/>
<!-- 0 -->
<g id="node1" class="node"><title>0</title>
<g id="a_node1"><a xlink:title="0, diversity: 4, multiplicities: 9,42,99,1036, labels: 0">
<ellipse fill="#f7fcf5" stroke="black" cx="175.047" cy="-378" rx="37.0935" ry="18"/>
<text text-anchor="middle" x="175.047" y="-374.3" font-family="Times,serif" font-size="14.00">0 (4): 0</text>
</a>
</g>
</g>
<!-- 5 -->
<g id="node6" class="node"><title>5</title>
<g id="a_node6"><a xlink:title="5, diversity: 2, multiplicities: 2,67, labels: 0">
<ellipse fill="#f7fcf5" stroke="black" cx="37.0467" cy="-306" rx="37.0935" ry="18"/>
<text text-anchor="middle" x="37.0467" y="-302.3" font-family="Times,serif" font-size="14.00">5 (2): 0</text>
</a>
</g>
</g>
<!-- 0&#45;&gt;5 -->
<g id="edge9" class="edge"><title>0&#45;&gt;5</title>
<path fill="none" stroke="black" d="M150.375,-364.485C128.239,-353.257 95.5484,-336.675 70.9587,-324.202"/>
<polygon fill="black" stroke="black" points="72.4717,-321.045 61.97,-319.642 69.305,-327.287 72.4717,-321.045"/>
</g>
<!-- 7 -->
<g id="node8" class="node"><title>7</title>
<g id="a_node8"><a xlink:title="7, diversity: 1, multiplicities: 7, labels: 0">
<ellipse fill="#f7fcf5" stroke="black" cx="129.047" cy="-306" rx="37.0935" ry="18"/>
<text text-anchor="middle" x="129.047" y="-302.3" font-family="Times,serif" font-size="14.00">7 (1): 0</text>
</a>
</g>
</g>
<!-- 0&#45;&gt;7 -->
<g id="edge4" class="edge"><title>0&#45;&gt;7</title>
<path fill="none" stroke="black" d="M164.145,-360.411C158.588,-351.955 151.714,-341.494 145.527,-332.078"/>
<polygon fill="black" stroke="black" points="148.287,-329.905 139.87,-323.47 142.437,-333.749 148.287,-329.905"/>
</g>
<!-- 9 -->
<g id="node10" class="node"><title>9</title>
<g id="a_node10"><a xlink:title="9, diversity: 1, multiplicities: 2, labels: 0">
<ellipse fill="#f7fcf5" stroke="black" cx="221.047" cy="-306" rx="37.0935" ry="18"/>
<text text-anchor="middle" x="221.047" y="-302.3" font-family="Times,serif" font-size="14.00">9 (1): 0</text>
</a>
</g>
</g>
<!-- 0&#45;&gt;9 -->
<g id="edge8" class="edge"><title>0&#45;&gt;9</title>
<path fill="none" stroke="black" d="M185.948,-360.411C191.505,-351.955 198.379,-341.494 204.567,-332.078"/>
<polygon fill="black" stroke="black" points="207.657,-333.749 210.224,-323.47 201.807,-329.905 207.657,-333.749"/>
</g>
<!-- 10 -->
<g id="node11" class="node"><title>10</title>
<g id="a_node11"><a xlink:title="10, diversity: 1, multiplicities: 1, labels: 0">
<ellipse fill="#f7fcf5" stroke="black" cx="318.047" cy="-306" rx="41.6928" ry="18"/>
<text text-anchor="middle" x="318.047" y="-302.3" font-family="Times,serif" font-size="14.00">10 (1): 0</text>
</a>
</g>
</g>
<!-- 0&#45;&gt;10 -->
<g id="edge7" class="edge"><title>0&#45;&gt;10</title>
<path fill="none" stroke="black" d="M200.283,-364.647C223.135,-353.461 257.035,-336.866 282.603,-324.35"/>
<polygon fill="black" stroke="black" points="284.167,-327.481 291.61,-319.941 281.089,-321.194 284.167,-327.481"/>
</g>
<!-- 1 -->
<g id="node2" class="node"><title>1</title>
<g id="a_node2"><a xlink:title="1, diversity: 1, multiplicities: 258, labels: 0">
<ellipse fill="#f7fcf5" stroke="black" cx="221.047" cy="-90" rx="37.0935" ry="18"/>
<text text-anchor="middle" x="221.047" y="-86.3" font-family="Times,serif" font-size="14.00">1 (1): 0</text>
</a>
</g>
</g>
<!-- 6 -->
<g id="node7" class="node"><title>6</title>
<g id="a_node7"><a xlink:title="6, diversity: 1, multiplicities: 20, labels: 0">
<ellipse fill="#f7fcf5" stroke="black" cx="221.047" cy="-18" rx="37.0935" ry="18"/>
<text text-anchor="middle" x="221.047" y="-14.3" font-family="Times,serif" font-size="14.00">6 (1): 0</text>
</a>
</g>
</g>
<!-- 1&#45;&gt;6 -->
<g id="edge6" class="edge"><title>1&#45;&gt;6</title>
<path fill="none" stroke="black" d="M221.047,-71.6966C221.047,-63.9827 221.047,-54.7125 221.047,-46.1124"/>
<polygon fill="black" stroke="black" points="224.547,-46.1043 221.047,-36.1043 217.547,-46.1044 224.547,-46.1043"/>
</g>
<!-- 2 -->
<g id="node3" class="node"><title>2</title>
<g id="a_node3"><a xlink:title="2, diversity: 1, multiplicities: 181, labels: 0">
<ellipse fill="#f7fcf5" stroke="black" cx="318.047" cy="-234" rx="37.0935" ry="18"/>
<text text-anchor="middle" x="318.047" y="-230.3" font-family="Times,serif" font-size="14.00">2 (1): 0</text>
</a>
</g>
</g>
<!-- 3 -->
<g id="node4" class="node"><title>3</title>
<g id="a_node4"><a xlink:title="3, diversity: 1, multiplicities: 259, labels: 0">
<ellipse fill="#f7fcf5" stroke="black" cx="221.047" cy="-162" rx="37.0935" ry="18"/>
<text text-anchor="middle" x="221.047" y="-158.3" font-family="Times,serif" font-size="14.00">3 (1): 0</text>
</a>
</g>
</g>
<!-- 3&#45;&gt;1 -->
<g id="edge2" class="edge"><title>3&#45;&gt;1</title>
<path fill="none" stroke="black" d="M221.047,-143.697C221.047,-135.983 221.047,-126.712 221.047,-118.112"/>
<polygon fill="black" stroke="black" points="224.547,-118.104 221.047,-108.104 217.547,-118.104 224.547,-118.104"/>
</g>
<!-- 4 -->
<g id="node5" class="node"><title>4</title>
<g id="a_node5"><a xlink:title="4, diversity: 1, multiplicities: 100, labels: 0">
<ellipse fill="#f7fcf5" stroke="black" cx="410.047" cy="-162" rx="37.0935" ry="18"/>
<text text-anchor="middle" x="410.047" y="-158.3" font-family="Times,serif" font-size="14.00">4 (1): 0</text>
</a>
</g>
</g>
<!-- 8 -->
<g id="node9" class="node"><title>8</title>
<g id="a_node9"><a xlink:title="8, diversity: 1, multiplicities: 9, labels: 0">
<ellipse fill="#f7fcf5" stroke="black" cx="410.047" cy="-234" rx="37.0935" ry="18"/>
<text text-anchor="middle" x="410.047" y="-230.3" font-family="Times,serif" font-size="14.00">8 (1): 0</text>
</a>
</g>
</g>
<!-- 8&#45;&gt;4 -->
<g id="edge11" class="edge"><title>8&#45;&gt;4</title>
<path fill="none" stroke="black" d="M410.047,-215.697C410.047,-207.983 410.047,-198.712 410.047,-190.112"/>
<polygon fill="black" stroke="black" points="413.547,-190.104 410.047,-180.104 406.547,-190.104 413.547,-190.104"/>
</g>
<!-- 11 -->
<g id="node12" class="node"><title>11</title>
<g id="a_node12"><a xlink:title="11, diversity: 1, multiplicities: 1, labels: 0">
<ellipse fill="#f7fcf5" stroke="black" cx="221.047" cy="-234" rx="41.6928" ry="18"/>
<text text-anchor="middle" x="221.047" y="-230.3" font-family="Times,serif" font-size="14.00">11 (1): 0</text>
</a>
</g>
</g>
<!-- 9&#45;&gt;11 -->
<g id="edge5" class="edge"><title>9&#45;&gt;11</title>
<path fill="none" stroke="black" d="M221.047,-287.697C221.047,-279.983 221.047,-270.712 221.047,-262.112"/>
<polygon fill="black" stroke="black" points="224.547,-262.104 221.047,-252.104 217.547,-262.104 224.547,-262.104"/>
</g>
<!-- 10&#45;&gt;2 -->
<g id="edge10" class="edge"><title>10&#45;&gt;2</title>
<path fill="none" stroke="black" d="M318.047,-287.697C318.047,-279.983 318.047,-270.712 318.047,-262.112"/>
<polygon fill="black" stroke="black" points="321.547,-262.104 318.047,-252.104 314.547,-262.104 321.547,-262.104"/>
</g>
<!-- 10&#45;&gt;8 -->
<g id="edge1" class="edge"><title>10&#45;&gt;8</title>
<path fill="none" stroke="black" d="M338.009,-289.811C351.086,-279.862 368.348,-266.727 382.696,-255.81"/>
<polygon fill="black" stroke="black" points="384.915,-258.52 390.753,-249.68 380.676,-252.949 384.915,-258.52"/>
</g>
<!-- 11&#45;&gt;3 -->
<g id="edge3" class="edge"><title>11&#45;&gt;3</title>
<path fill="none" stroke="black" d="M221.047,-215.697C221.047,-207.983 221.047,-198.712 221.047,-190.112"/>
<polygon fill="black" stroke="black" points="224.547,-190.104 221.047,-180.104 217.547,-190.104 224.547,-190.104"/>
</g>
</g>
</svg>
