<?xml version="1.0" encoding="UTF-8" standalone="no"?>
<!DOCTYPE svg PUBLIC "-//W3C//DTD SVG 1.1//EN"
 "http://www.w3.org/Graphics/SVG/1.1/DTD/svg11.dtd">
<!-- Generated by graphviz version 2.38.0 (20140413.2041)
 -->
<!-- Title: %3 Pages: 1 -->
<svg width="450pt" height="260pt"
 viewBox="0.00 0.00 450.09 260.00" xmlns="http://www.w3.org/2000/svg" xmlns:xlink="http://www.w3.org/1999/xlink">
<g id="graph0" class="graph" transform="scale(1 1) rotate(0) translate(4 256)">
<title>%3</title>
<polygon fill="white" stroke="none" points="-4,4 -4,-256 446.093,-256 446.093,4 -4,4"/>
<!-- 0 -->
<g id="node1" class="node"><title>0</title>
<g id="a_node1"><a xlink:title="0, diversity: 5, multiplicities: 55,114,360,361,582, labels: 0">
<ellipse fill="#f7fcf5" stroke="black" cx="221.047" cy="-234" rx="37.0935" ry="18"/>
<text text-anchor="middle" x="221.047" y="-230.3" font-family="Times,serif" font-size="14.00">0 (5): 0</text>
</a>
</g>
</g>
<!-- 1 -->
<g id="node2" class="node"><title>1</title>
<g id="a_node2"><a xlink:title="1, diversity: 7, multiplicities: 1,6,18,38,140,197,273, labels: 0">
<ellipse fill="#f7fcf5" stroke="black" cx="129.047" cy="-162" rx="37.0935" ry="18"/>
<text text-anchor="middle" x="129.047" y="-158.3" font-family="Times,serif" font-size="14.00">1 (7): 0</text>
</a>
</g>
</g>
<!-- 0&#45;&gt;1 -->
<g id="edge1" class="edge"><title>0&#45;&gt;1</title>
<path fill="none" stroke="black" d="M197.85,-219.503C183.659,-209.739 165.748,-196.33 151.674,-185.025"/>
<polygon fill="black" stroke="black" points="153.844,-182.278 143.888,-178.655 149.411,-187.696 153.844,-182.278"/>
</g>
<!-- 3 -->
<g id="node4" class="node"><title>3</title>
<g id="a_node4"><a xlink:title="3, diversity: 1, multiplicities: 1, labels: 0">
<ellipse fill="#f7fcf5" stroke="black" cx="221.047" cy="-162" rx="37.0935" ry="18"/>
<text text-anchor="middle" x="221.047" y="-158.3" font-family="Times,serif" font-size="14.00">3 (1): 0</text>
</a>
</g>
</g>
<!-- 0&#45;&gt;3 -->
<g id="edge7" class="edge"><title>0&#45;&gt;3</title>
<path fill="none" stroke="black" d="M221.047,-215.697C221.047,-207.983 221.047,-198.712 221.047,-190.112"/>
<polygon fill="black" stroke="black" points="224.547,-190.104 221.047,-180.104 217.547,-190.104 224.547,-190.104"/>
</g>
<!-- 4 -->
<g id="node5" class="node"><title>4</title>
<g id="a_node5"><a xlink:title="4, diversity: 1, multiplicities: 138, labels: 0">
<ellipse fill="#f7fcf5" stroke="black" cx="313.047" cy="-162" rx="37.0935" ry="18"/>
<text text-anchor="middle" x="313.047" y="-158.3" font-family="Times,serif" font-size="14.00">4 (1): 0</text>
</a>
</g>
</g>
<!-- 0&#45;&gt;4 -->
<g id="edge6" class="edge"><title>0&#45;&gt;4</title>
<path fill="none" stroke="black" d="M240.109,-218.496C253.308,-208.453 271.076,-194.934 285.77,-183.754"/>
<polygon fill="black" stroke="black" points="288.17,-186.326 294.009,-177.485 283.931,-180.755 288.17,-186.326"/>
</g>
<!-- 8 -->
<g id="node9" class="node"><title>8</title>
<g id="a_node9"><a xlink:title="8, diversity: 1, multiplicities: 16, labels: 0">
<ellipse fill="#f7fcf5" stroke="black" cx="405.047" cy="-162" rx="37.0935" ry="18"/>
<text text-anchor="middle" x="405.047" y="-158.3" font-family="Times,serif" font-size="14.00">8 (1): 0</text>
</a>
</g>
</g>
<!-- 0&#45;&gt;8 -->
<g id="edge8" class="edge"><title>0&#45;&gt;8</title>
<path fill="none" stroke="black" d="M249.393,-222.216C280.999,-210.192 332.263,-190.689 367.258,-177.376"/>
<polygon fill="black" stroke="black" points="368.566,-180.623 376.668,-173.796 366.077,-174.081 368.566,-180.623"/>
</g>
<!-- 1&#45;&gt;0 -->
<g id="edge9" class="edge"><title>1&#45;&gt;0</title>
<path fill="none" stroke="black" d="M152.059,-176.37C166.315,-186.169 184.375,-199.689 198.527,-211.061"/>
<polygon fill="black" stroke="black" points="196.394,-213.839 206.349,-217.465 200.828,-208.422 196.394,-213.839"/>
</g>
<!-- 2 -->
<g id="node3" class="node"><title>2</title>
<g id="a_node3"><a xlink:title="2, diversity: 1, multiplicities: 8, labels: 0">
<ellipse fill="#f7fcf5" stroke="black" cx="37.0467" cy="-90" rx="37.0935" ry="18"/>
<text text-anchor="middle" x="37.0467" y="-86.3" font-family="Times,serif" font-size="14.00">2 (1): 0</text>
</a>
</g>
</g>
<!-- 1&#45;&gt;2 -->
<g id="edge2" class="edge"><title>1&#45;&gt;2</title>
<path fill="none" stroke="black" d="M109.984,-146.496C96.7852,-136.453 79.0176,-122.934 64.3235,-111.754"/>
<polygon fill="black" stroke="black" points="66.1624,-108.755 56.0848,-105.485 61.9237,-114.326 66.1624,-108.755"/>
</g>
<!-- 5 -->
<g id="node6" class="node"><title>5</title>
<g id="a_node6"><a xlink:title="5, diversity: 1, multiplicities: 74, labels: 0">
<ellipse fill="#f7fcf5" stroke="black" cx="129.047" cy="-90" rx="37.0935" ry="18"/>
<text text-anchor="middle" x="129.047" y="-86.3" font-family="Times,serif" font-size="14.00">5 (1): 0</text>
</a>
</g>
</g>
<!-- 1&#45;&gt;5 -->
<g id="edge4" class="edge"><title>1&#45;&gt;5</title>
<path fill="none" stroke="black" d="M129.047,-143.697C129.047,-135.983 129.047,-126.712 129.047,-118.112"/>
<polygon fill="black" stroke="black" points="132.547,-118.104 129.047,-108.104 125.547,-118.104 132.547,-118.104"/>
</g>
<!-- 6 -->
<g id="node7" class="node"><title>6</title>
<g id="a_node7"><a xlink:title="6, diversity: 1, multiplicities: 65, labels: 0">
<ellipse fill="#f7fcf5" stroke="black" cx="221.047" cy="-90" rx="37.0935" ry="18"/>
<text text-anchor="middle" x="221.047" y="-86.3" font-family="Times,serif" font-size="14.00">6 (1): 0</text>
</a>
</g>
</g>
<!-- 3&#45;&gt;6 -->
<g id="edge5" class="edge"><title>3&#45;&gt;6</title>
<path fill="none" stroke="black" d="M221.047,-143.697C221.047,-135.983 221.047,-126.712 221.047,-118.112"/>
<polygon fill="black" stroke="black" points="224.547,-118.104 221.047,-108.104 217.547,-118.104 224.547,-118.104"/>
</g>
<!-- 7 -->
<g id="node8" class="node"><title>7</title>
<g id="a_node8"><a xlink:title="7, diversity: 1, multiplicities: 20, labels: 0">
<ellipse fill="#f7fcf5" stroke="black" cx="221.047" cy="-18" rx="37.0935" ry="18"/>
<text text-anchor="middle" x="221.047" y="-14.3" font-family="Times,serif" font-size="14.00">7 (1): 0</text>
</a>
</g>
</g>
<!-- 6&#45;&gt;7 -->
<g id="edge3" class="edge"><title>6&#45;&gt;7</title>
<path fill="none" stroke="black" d="M221.047,-71.6966C221.047,-63.9827 221.047,-54.7125 221.047,-46.1124"/>
<polygon fill="black" stroke="black" points="224.547,-46.1043 221.047,-36.1043 217.547,-46.1044 224.547,-46.1043"/>
</g>
</g>
</svg>
