<?xml version="1.0" encoding="UTF-8" standalone="no"?>
<!DOCTYPE svg PUBLIC "-//W3C//DTD SVG 1.1//EN"
 "http://www.w3.org/Graphics/SVG/1.1/DTD/svg11.dtd">
<!-- Generated by graphviz version 2.38.0 (20140413.2041)
 -->
<!-- Title: %3 Pages: 1 -->
<svg width="671pt" height="476pt"
 viewBox="0.00 0.00 670.64 476.00" xmlns="http://www.w3.org/2000/svg" xmlns:xlink="http://www.w3.org/1999/xlink">
<g id="graph0" class="graph" transform="scale(1 1) rotate(0) translate(4 472)">
<title>%3</title>
<polygon fill="white" stroke="none" points="-4,4 -4,-472 666.643,-472 666.643,4 -4,4"/>
<!-- 0 -->
<g id="node1" class="node"><title>0</title>
<g id="a_node1"><a xlink:title="0, diversity: 1, multiplicities: 90, labels: 0">
<ellipse fill="#f7fcf5" stroke="black" cx="223.047" cy="-90" rx="37.0935" ry="18"/>
<text text-anchor="middle" x="223.047" y="-86.3" font-family="Times,serif" font-size="14.00">0 (1): 0</text>
</a>
</g>
</g>
<!-- 2 -->
<g id="node3" class="node"><title>2</title>
<g id="a_node3"><a xlink:title="2, diversity: 1, multiplicities: 24, labels: 0">
<ellipse fill="#f7fcf5" stroke="black" cx="223.047" cy="-18" rx="37.0935" ry="18"/>
<text text-anchor="middle" x="223.047" y="-14.3" font-family="Times,serif" font-size="14.00">2 (1): 0</text>
</a>
</g>
</g>
<!-- 0&#45;&gt;2 -->
<g id="edge28" class="edge"><title>0&#45;&gt;2</title>
<path fill="none" stroke="black" d="M223.047,-71.6966C223.047,-63.9827 223.047,-54.7125 223.047,-46.1124"/>
<polygon fill="black" stroke="black" points="226.547,-46.1043 223.047,-36.1043 219.547,-46.1044 226.547,-46.1043"/>
</g>
<!-- 1 -->
<g id="node2" class="node"><title>1</title>
<g id="a_node2"><a xlink:title="1, diversity: 1, multiplicities: 2, labels: 0">
<ellipse fill="#f7fcf5" stroke="black" cx="226.047" cy="-162" rx="37.0935" ry="18"/>
<text text-anchor="middle" x="226.047" y="-158.3" font-family="Times,serif" font-size="14.00">1 (1): 0</text>
</a>
</g>
</g>
<!-- 1&#45;&gt;0 -->
<g id="edge20" class="edge"><title>1&#45;&gt;0</title>
<path fill="none" stroke="black" d="M225.305,-143.697C224.975,-135.983 224.577,-126.712 224.209,-118.112"/>
<polygon fill="black" stroke="black" points="227.705,-117.945 223.78,-108.104 220.711,-118.245 227.705,-117.945"/>
</g>
<!-- 3 -->
<g id="node4" class="node"><title>3</title>
<g id="a_node4"><a xlink:title="3, diversity: 1, multiplicities: 66, labels: 0">
<ellipse fill="#f7fcf5" stroke="black" cx="37.0467" cy="-306" rx="37.0935" ry="18"/>
<text text-anchor="middle" x="37.0467" y="-302.3" font-family="Times,serif" font-size="14.00">3 (1): 0</text>
</a>
</g>
</g>
<!-- 4 -->
<g id="node5" class="node"><title>4</title>
<g id="a_node5"><a xlink:title="4, diversity: 1, multiplicities: 16, labels: 0">
<ellipse fill="#f7fcf5" stroke="black" cx="37.0467" cy="-234" rx="37.0935" ry="18"/>
<text text-anchor="middle" x="37.0467" y="-230.3" font-family="Times,serif" font-size="14.00">4 (1): 0</text>
</a>
</g>
</g>
<!-- 3&#45;&gt;4 -->
<g id="edge27" class="edge"><title>3&#45;&gt;4</title>
<path fill="none" stroke="black" d="M37.0467,-287.697C37.0467,-279.983 37.0467,-270.712 37.0467,-262.112"/>
<polygon fill="black" stroke="black" points="40.5468,-262.104 37.0467,-252.104 33.5468,-262.104 40.5468,-262.104"/>
</g>
<!-- 5 -->
<g id="node6" class="node"><title>5</title>
<g id="a_node6"><a xlink:title="5, diversity: 1, multiplicities: 134, labels: 0">
<ellipse fill="#f7fcf5" stroke="black" cx="129.047" cy="-306" rx="37.0935" ry="18"/>
<text text-anchor="middle" x="129.047" y="-302.3" font-family="Times,serif" font-size="14.00">5 (1): 0</text>
</a>
</g>
</g>
<!-- 6 -->
<g id="node7" class="node"><title>6</title>
<g id="a_node7"><a xlink:title="6, diversity: 1, multiplicities: 76, labels: 0">
<ellipse fill="#f7fcf5" stroke="black" cx="129.047" cy="-234" rx="37.0935" ry="18"/>
<text text-anchor="middle" x="129.047" y="-230.3" font-family="Times,serif" font-size="14.00">6 (1): 0</text>
</a>
</g>
</g>
<!-- 5&#45;&gt;6 -->
<g id="edge2" class="edge"><title>5&#45;&gt;6</title>
<path fill="none" stroke="black" d="M129.047,-287.697C129.047,-279.983 129.047,-270.712 129.047,-262.112"/>
<polygon fill="black" stroke="black" points="132.547,-262.104 129.047,-252.104 125.547,-262.104 132.547,-262.104"/>
</g>
<!-- 25 -->
<g id="node26" class="node"><title>25</title>
<g id="a_node26"><a xlink:title="25, diversity: 2, multiplicities: 2,30, labels: 0">
<ellipse fill="#f7fcf5" stroke="black" cx="127.047" cy="-162" rx="41.6928" ry="18"/>
<text text-anchor="middle" x="127.047" y="-158.3" font-family="Times,serif" font-size="14.00">25 (2): 0</text>
</a>
</g>
</g>
<!-- 6&#45;&gt;25 -->
<g id="edge9" class="edge"><title>6&#45;&gt;25</title>
<path fill="none" stroke="black" d="M128.552,-215.697C128.332,-207.983 128.067,-198.712 127.821,-190.112"/>
<polygon fill="black" stroke="black" points="131.32,-190 127.535,-180.104 124.323,-190.2 131.32,-190"/>
</g>
<!-- 7 -->
<g id="node8" class="node"><title>7</title>
<g id="a_node8"><a xlink:title="7, diversity: 3, multiplicities: 25,37,41, labels: 0">
<ellipse fill="#f7fcf5" stroke="black" cx="221.047" cy="-306" rx="37.0935" ry="18"/>
<text text-anchor="middle" x="221.047" y="-302.3" font-family="Times,serif" font-size="14.00">7 (3): 0</text>
</a>
</g>
</g>
<!-- 8 -->
<g id="node9" class="node"><title>8</title>
<g id="a_node9"><a xlink:title="8, diversity: 4, multiplicities: 1,74,109,123, labels: 0">
<ellipse fill="#f7fcf5" stroke="black" cx="318.047" cy="-378" rx="37.0935" ry="18"/>
<text text-anchor="middle" x="318.047" y="-374.3" font-family="Times,serif" font-size="14.00">8 (4): 0</text>
</a>
</g>
</g>
<!-- 8&#45;&gt;3 -->
<g id="edge22" class="edge"><title>8&#45;&gt;3</title>
<path fill="none" stroke="black" d="M283.827,-370.756C237.752,-362.016 153.426,-344.842 83.0467,-324 80.2915,-323.184 77.4632,-322.288 74.6291,-321.347"/>
<polygon fill="black" stroke="black" points="75.6628,-318.001 65.068,-318.025 73.3654,-324.613 75.6628,-318.001"/>
</g>
<!-- 8&#45;&gt;5 -->
<g id="edge5" class="edge"><title>8&#45;&gt;5</title>
<path fill="none" stroke="black" d="M289.342,-366.369C256.777,-354.307 203.517,-334.582 167.41,-321.208"/>
<polygon fill="black" stroke="black" points="168.305,-317.808 157.712,-317.617 165.873,-324.372 168.305,-317.808"/>
</g>
<!-- 8&#45;&gt;7 -->
<g id="edge18" class="edge"><title>8&#45;&gt;7</title>
<path fill="none" stroke="black" d="M297.948,-362.496C283.808,-352.292 264.695,-338.499 249.061,-327.217"/>
<polygon fill="black" stroke="black" points="250.945,-324.26 240.788,-321.246 246.848,-329.936 250.945,-324.26"/>
</g>
<!-- 12 -->
<g id="node13" class="node"><title>12</title>
<g id="a_node13"><a xlink:title="12, diversity: 1, multiplicities: 88, labels: 0">
<ellipse fill="#f7fcf5" stroke="black" cx="318.047" cy="-306" rx="41.6928" ry="18"/>
<text text-anchor="middle" x="318.047" y="-302.3" font-family="Times,serif" font-size="14.00">12 (1): 0</text>
</a>
</g>
</g>
<!-- 8&#45;&gt;12 -->
<g id="edge23" class="edge"><title>8&#45;&gt;12</title>
<path fill="none" stroke="black" d="M318.047,-359.697C318.047,-351.983 318.047,-342.712 318.047,-334.112"/>
<polygon fill="black" stroke="black" points="321.547,-334.104 318.047,-324.104 314.547,-334.104 321.547,-334.104"/>
</g>
<!-- 17 -->
<g id="node18" class="node"><title>17</title>
<g id="a_node18"><a xlink:title="17, diversity: 1, multiplicities: 6, labels: 0">
<ellipse fill="#f7fcf5" stroke="black" cx="419.047" cy="-306" rx="41.6928" ry="18"/>
<text text-anchor="middle" x="419.047" y="-302.3" font-family="Times,serif" font-size="14.00">17 (1): 0</text>
</a>
</g>
</g>
<!-- 8&#45;&gt;17 -->
<g id="edge19" class="edge"><title>8&#45;&gt;17</title>
<path fill="none" stroke="black" d="M338.486,-362.834C353.076,-352.722 372.93,-338.962 389.278,-327.632"/>
<polygon fill="black" stroke="black" points="391.718,-330.199 397.943,-321.626 387.73,-324.446 391.718,-330.199"/>
</g>
<!-- 24 -->
<g id="node25" class="node"><title>24</title>
<g id="a_node25"><a xlink:title="24, diversity: 1, multiplicities: 1, labels: 0">
<ellipse fill="#f7fcf5" stroke="black" cx="520.047" cy="-306" rx="41.6928" ry="18"/>
<text text-anchor="middle" x="520.047" y="-302.3" font-family="Times,serif" font-size="14.00">24 (1): 0</text>
</a>
</g>
</g>
<!-- 8&#45;&gt;24 -->
<g id="edge6" class="edge"><title>8&#45;&gt;24</title>
<path fill="none" stroke="black" d="M346.714,-366.272C352.445,-364.165 358.429,-361.991 364.047,-360 410.941,-343.375 422.938,-340.008 470.047,-324 472.906,-323.028 475.857,-322.025 478.829,-321.015"/>
<polygon fill="black" stroke="black" points="479.965,-324.326 488.307,-317.793 477.712,-317.698 479.965,-324.326"/>
</g>
<!-- 28 -->
<g id="node29" class="node"><title>28</title>
<g id="a_node29"><a xlink:title="28, diversity: 1, multiplicities: 42, labels: 0">
<ellipse fill="#f7fcf5" stroke="black" cx="621.047" cy="-306" rx="41.6928" ry="18"/>
<text text-anchor="middle" x="621.047" y="-302.3" font-family="Times,serif" font-size="14.00">28 (1): 0</text>
</a>
</g>
</g>
<!-- 8&#45;&gt;28 -->
<g id="edge4" class="edge"><title>8&#45;&gt;28</title>
<path fill="none" stroke="black" d="M346.004,-365.749C351.899,-363.636 358.128,-361.594 364.047,-360 454.214,-335.714 480.568,-347.1 571.047,-324 574.2,-323.195 577.441,-322.286 580.684,-321.318"/>
<polygon fill="black" stroke="black" points="581.846,-324.621 590.333,-318.28 579.744,-317.945 581.846,-324.621"/>
</g>
<!-- 9 -->
<g id="node10" class="node"><title>9</title>
<g id="a_node10"><a xlink:title="9, diversity: 1, multiplicities: 71, labels: 0">
<ellipse fill="#f7fcf5" stroke="black" cx="320.047" cy="-162" rx="37.0935" ry="18"/>
<text text-anchor="middle" x="320.047" y="-158.3" font-family="Times,serif" font-size="14.00">9 (1): 0</text>
</a>
</g>
</g>
<!-- 13 -->
<g id="node14" class="node"><title>13</title>
<g id="a_node14"><a xlink:title="13, diversity: 3, multiplicities: 5,9,78, labels: 0">
<ellipse fill="#f7fcf5" stroke="black" cx="320.047" cy="-90" rx="41.6928" ry="18"/>
<text text-anchor="middle" x="320.047" y="-86.3" font-family="Times,serif" font-size="14.00">13 (3): 0</text>
</a>
</g>
</g>
<!-- 9&#45;&gt;13 -->
<g id="edge21" class="edge"><title>9&#45;&gt;13</title>
<path fill="none" stroke="black" d="M320.047,-143.697C320.047,-135.983 320.047,-126.712 320.047,-118.112"/>
<polygon fill="black" stroke="black" points="323.547,-118.104 320.047,-108.104 316.547,-118.104 323.547,-118.104"/>
</g>
<!-- 15 -->
<g id="node16" class="node"><title>15</title>
<g id="a_node16"><a xlink:title="15, diversity: 1, multiplicities: 17, labels: 0">
<ellipse fill="#f7fcf5" stroke="black" cx="421.047" cy="-90" rx="41.6928" ry="18"/>
<text text-anchor="middle" x="421.047" y="-86.3" font-family="Times,serif" font-size="14.00">15 (1): 0</text>
</a>
</g>
</g>
<!-- 9&#45;&gt;15 -->
<g id="edge7" class="edge"><title>9&#45;&gt;15</title>
<path fill="none" stroke="black" d="M340.486,-146.834C355.076,-136.722 374.93,-122.962 391.278,-111.632"/>
<polygon fill="black" stroke="black" points="393.718,-114.199 399.943,-105.626 389.73,-108.446 393.718,-114.199"/>
</g>
<!-- 19 -->
<g id="node20" class="node"><title>19</title>
<g id="a_node20"><a xlink:title="19, diversity: 1, multiplicities: 12, labels: 0">
<ellipse fill="#f7fcf5" stroke="black" cx="522.047" cy="-90" rx="41.6928" ry="18"/>
<text text-anchor="middle" x="522.047" y="-86.3" font-family="Times,serif" font-size="14.00">19 (1): 0</text>
</a>
</g>
</g>
<!-- 9&#45;&gt;19 -->
<g id="edge26" class="edge"><title>9&#45;&gt;19</title>
<path fill="none" stroke="black" d="M348.714,-150.272C354.445,-148.165 360.429,-145.991 366.047,-144 412.941,-127.375 424.938,-124.008 472.047,-108 474.906,-107.028 477.857,-106.025 480.829,-105.015"/>
<polygon fill="black" stroke="black" points="481.965,-108.326 490.307,-101.793 479.712,-101.698 481.965,-108.326"/>
</g>
<!-- 10 -->
<g id="node11" class="node"><title>10</title>
<g id="a_node11"><a xlink:title="10, diversity: 1, multiplicities: 13, labels: 0">
<ellipse fill="#f7fcf5" stroke="black" cx="421.047" cy="-18" rx="41.6928" ry="18"/>
<text text-anchor="middle" x="421.047" y="-14.3" font-family="Times,serif" font-size="14.00">10 (1): 0</text>
</a>
</g>
</g>
<!-- 11 -->
<g id="node12" class="node"><title>11</title>
<g id="a_node12"><a xlink:title="11, diversity: 1, multiplicities: 80, labels: 0">
<ellipse fill="#f7fcf5" stroke="black" cx="366.047" cy="-450" rx="41.6928" ry="18"/>
<text text-anchor="middle" x="366.047" y="-446.3" font-family="Times,serif" font-size="14.00">11 (1): 0</text>
</a>
</g>
</g>
<!-- 11&#45;&gt;8 -->
<g id="edge24" class="edge"><title>11&#45;&gt;8</title>
<path fill="none" stroke="black" d="M354.671,-432.411C348.813,-423.868 341.552,-413.278 335.044,-403.787"/>
<polygon fill="black" stroke="black" points="337.882,-401.738 329.34,-395.47 332.109,-405.697 337.882,-401.738"/>
</g>
<!-- 16 -->
<g id="node17" class="node"><title>16</title>
<g id="a_node17"><a xlink:title="16, diversity: 1, multiplicities: 46, labels: 0">
<ellipse fill="#f7fcf5" stroke="black" cx="415.047" cy="-378" rx="41.6928" ry="18"/>
<text text-anchor="middle" x="415.047" y="-374.3" font-family="Times,serif" font-size="14.00">16 (1): 0</text>
</a>
</g>
</g>
<!-- 11&#45;&gt;16 -->
<g id="edge1" class="edge"><title>11&#45;&gt;16</title>
<path fill="none" stroke="black" d="M377.659,-432.411C383.639,-423.868 391.052,-413.278 397.696,-403.787"/>
<polygon fill="black" stroke="black" points="400.65,-405.669 403.518,-395.47 394.916,-401.655 400.65,-405.669"/>
</g>
<!-- 20 -->
<g id="node21" class="node"><title>20</title>
<g id="a_node21"><a xlink:title="20, diversity: 1, multiplicities: 4, labels: 0">
<ellipse fill="#f7fcf5" stroke="black" cx="318.047" cy="-234" rx="41.6928" ry="18"/>
<text text-anchor="middle" x="318.047" y="-230.3" font-family="Times,serif" font-size="14.00">20 (1): 0</text>
</a>
</g>
</g>
<!-- 12&#45;&gt;20 -->
<g id="edge17" class="edge"><title>12&#45;&gt;20</title>
<path fill="none" stroke="black" d="M318.047,-287.697C318.047,-279.983 318.047,-270.712 318.047,-262.112"/>
<polygon fill="black" stroke="black" points="321.547,-262.104 318.047,-252.104 314.547,-262.104 321.547,-262.104"/>
</g>
<!-- 21 -->
<g id="node22" class="node"><title>21</title>
<g id="a_node22"><a xlink:title="21, diversity: 1, multiplicities: 12, labels: 0">
<ellipse fill="#f7fcf5" stroke="black" cx="419.047" cy="-234" rx="41.6928" ry="18"/>
<text text-anchor="middle" x="419.047" y="-230.3" font-family="Times,serif" font-size="14.00">21 (1): 0</text>
</a>
</g>
</g>
<!-- 12&#45;&gt;21 -->
<g id="edge13" class="edge"><title>12&#45;&gt;21</title>
<path fill="none" stroke="black" d="M339.466,-290.155C354.026,-280.064 373.478,-266.583 389.505,-255.474"/>
<polygon fill="black" stroke="black" points="391.779,-258.157 398.004,-249.584 387.792,-252.403 391.779,-258.157"/>
</g>
<!-- 14 -->
<g id="node15" class="node"><title>14</title>
<g id="a_node15"><a xlink:title="14, diversity: 1, multiplicities: 17, labels: 0">
<ellipse fill="#f7fcf5" stroke="black" cx="320.047" cy="-18" rx="41.6928" ry="18"/>
<text text-anchor="middle" x="320.047" y="-14.3" font-family="Times,serif" font-size="14.00">14 (1): 0</text>
</a>
</g>
</g>
<!-- 13&#45;&gt;14 -->
<g id="edge25" class="edge"><title>13&#45;&gt;14</title>
<path fill="none" stroke="black" d="M320.047,-71.6966C320.047,-63.9827 320.047,-54.7125 320.047,-46.1124"/>
<polygon fill="black" stroke="black" points="323.547,-46.1043 320.047,-36.1043 316.547,-46.1044 323.547,-46.1043"/>
</g>
<!-- 15&#45;&gt;10 -->
<g id="edge16" class="edge"><title>15&#45;&gt;10</title>
<path fill="none" stroke="black" d="M421.047,-71.6966C421.047,-63.9827 421.047,-54.7125 421.047,-46.1124"/>
<polygon fill="black" stroke="black" points="424.547,-46.1043 421.047,-36.1043 417.547,-46.1044 424.547,-46.1043"/>
</g>
<!-- 18 -->
<g id="node19" class="node"><title>18</title>
<g id="a_node19"><a xlink:title="18, diversity: 1, multiplicities: 6, labels: 0">
<ellipse fill="#f7fcf5" stroke="black" cx="417.047" cy="-162" rx="41.6928" ry="18"/>
<text text-anchor="middle" x="417.047" y="-158.3" font-family="Times,serif" font-size="14.00">18 (1): 0</text>
</a>
</g>
</g>
<!-- 20&#45;&gt;1 -->
<g id="edge15" class="edge"><title>20&#45;&gt;1</title>
<path fill="none" stroke="black" d="M298.084,-217.811C285.008,-207.862 267.745,-194.727 253.397,-183.81"/>
<polygon fill="black" stroke="black" points="255.418,-180.949 245.34,-177.68 251.179,-186.52 255.418,-180.949"/>
</g>
<!-- 20&#45;&gt;9 -->
<g id="edge10" class="edge"><title>20&#45;&gt;9</title>
<path fill="none" stroke="black" d="M318.541,-215.697C318.761,-207.983 319.026,-198.712 319.272,-190.112"/>
<polygon fill="black" stroke="black" points="322.771,-190.2 319.558,-180.104 315.774,-190 322.771,-190.2"/>
</g>
<!-- 20&#45;&gt;18 -->
<g id="edge12" class="edge"><title>20&#45;&gt;18</title>
<path fill="none" stroke="black" d="M339.042,-218.155C353.218,-208.132 372.124,-194.763 387.773,-183.698"/>
<polygon fill="black" stroke="black" points="389.937,-186.455 396.082,-177.824 385.896,-180.739 389.937,-186.455"/>
</g>
<!-- 22 -->
<g id="node23" class="node"><title>22</title>
<g id="a_node23"><a xlink:title="22, diversity: 2, multiplicities: 8,29, labels: 0">
<ellipse fill="#f7fcf5" stroke="black" cx="520.047" cy="-162" rx="41.6928" ry="18"/>
<text text-anchor="middle" x="520.047" y="-158.3" font-family="Times,serif" font-size="14.00">22 (2): 0</text>
</a>
</g>
</g>
<!-- 23 -->
<g id="node24" class="node"><title>23</title>
<g id="a_node24"><a xlink:title="23, diversity: 1, multiplicities: 80, labels: 0">
<ellipse fill="#f7fcf5" stroke="black" cx="520.047" cy="-234" rx="41.6928" ry="18"/>
<text text-anchor="middle" x="520.047" y="-230.3" font-family="Times,serif" font-size="14.00">23 (1): 0</text>
</a>
</g>
</g>
<!-- 23&#45;&gt;22 -->
<g id="edge3" class="edge"><title>23&#45;&gt;22</title>
<path fill="none" stroke="black" d="M520.047,-215.697C520.047,-207.983 520.047,-198.712 520.047,-190.112"/>
<polygon fill="black" stroke="black" points="523.547,-190.104 520.047,-180.104 516.547,-190.104 523.547,-190.104"/>
</g>
<!-- 24&#45;&gt;23 -->
<g id="edge11" class="edge"><title>24&#45;&gt;23</title>
<path fill="none" stroke="black" d="M520.047,-287.697C520.047,-279.983 520.047,-270.712 520.047,-262.112"/>
<polygon fill="black" stroke="black" points="523.547,-262.104 520.047,-252.104 516.547,-262.104 523.547,-262.104"/>
</g>
<!-- 26 -->
<g id="node27" class="node"><title>26</title>
<g id="a_node27"><a xlink:title="26, diversity: 1, multiplicities: 43, labels: 0">
<ellipse fill="#f7fcf5" stroke="black" cx="126.047" cy="-90" rx="41.6928" ry="18"/>
<text text-anchor="middle" x="126.047" y="-86.3" font-family="Times,serif" font-size="14.00">26 (1): 0</text>
</a>
</g>
</g>
<!-- 25&#45;&gt;26 -->
<g id="edge8" class="edge"><title>25&#45;&gt;26</title>
<path fill="none" stroke="black" d="M126.8,-143.697C126.689,-135.983 126.557,-126.712 126.434,-118.112"/>
<polygon fill="black" stroke="black" points="129.934,-118.053 126.291,-108.104 122.934,-118.153 129.934,-118.053"/>
</g>
<!-- 27 -->
<g id="node28" class="node"><title>27</title>
<g id="a_node28"><a xlink:title="27, diversity: 1, multiplicities: 18, labels: 0">
<ellipse fill="#f7fcf5" stroke="black" cx="621.047" cy="-234" rx="41.6928" ry="18"/>
<text text-anchor="middle" x="621.047" y="-230.3" font-family="Times,serif" font-size="14.00">27 (1): 0</text>
</a>
</g>
</g>
<!-- 28&#45;&gt;27 -->
<g id="edge14" class="edge"><title>28&#45;&gt;27</title>
<path fill="none" stroke="black" d="M621.047,-287.697C621.047,-279.983 621.047,-270.712 621.047,-262.112"/>
<polygon fill="black" stroke="black" points="624.547,-262.104 621.047,-252.104 617.547,-262.104 624.547,-262.104"/>
</g>
</g>
</svg>
