<?xml version="1.0" encoding="UTF-8" standalone="no"?>
<!DOCTYPE svg PUBLIC "-//W3C//DTD SVG 1.1//EN"
 "http://www.w3.org/Graphics/SVG/1.1/DTD/svg11.dtd">
<!-- Generated by graphviz version 2.38.0 (20140413.2041)
 -->
<!-- Title: %3 Pages: 1 -->
<svg width="434pt" height="260pt"
 viewBox="0.00 0.00 433.50 260.00" xmlns="http://www.w3.org/2000/svg" xmlns:xlink="http://www.w3.org/1999/xlink">
<g id="graph0" class="graph" transform="scale(1 1) rotate(0) translate(4 256)">
<title>%3</title>
<polygon fill="white" stroke="none" points="-4,4 -4,-256 429.5,-256 429.5,4 -4,4"/>
<!-- p0 -->
<g id="node1" class="node"><title>p0</title>
<path fill="none" stroke="black" d="M47,-36C47,-36 12,-36 12,-36 6,-36 0,-30 0,-24 0,-24 0,-12 0,-12 0,-6 6,-0 12,-0 12,-0 47,-0 47,-0 53,-0 59,-6 59,-12 59,-12 59,-24 59,-24 59,-30 53,-36 47,-36"/>
<text text-anchor="middle" x="29.5" y="-14.3" font-family="Times,serif" font-size="14.00">path (3)</text>
</g>
<!-- v1 -->
<g id="node2" class="node"><title>v1</title>
<ellipse fill="none" stroke="black" cx="104.5" cy="-18" rx="27" ry="18"/>
<text text-anchor="middle" x="104.5" y="-14.3" font-family="Times,serif" font-size="14.00">1</text>
</g>
<!-- v2 -->
<g id="node3" class="node"><title>v2</title>
<ellipse fill="none" stroke="black" cx="176.5" cy="-90" rx="27" ry="18"/>
<text text-anchor="middle" x="176.5" y="-86.3" font-family="Times,serif" font-size="14.00">2</text>
</g>
<!-- v2&#45;&gt;p0 -->
<g id="edge5" class="edge"><title>v2&#45;&gt;p0</title>
<path fill="none" stroke="black" d="M155.125,-78.8214C132.375,-67.9879 95.8973,-50.6178 68.0966,-37.3793"/>
<polygon fill="black" stroke="black" points="69.567,-34.203 59.0336,-33.0636 66.5574,-40.523 69.567,-34.203"/>
</g>
<!-- v2&#45;&gt;v1 -->
<g id="edge3" class="edge"><title>v2&#45;&gt;v1</title>
<path fill="none" stroke="black" d="M161.93,-74.8345C151.75,-64.9376 137.976,-51.5462 126.469,-40.3591"/>
<polygon fill="black" stroke="black" points="128.905,-37.8461 119.296,-33.3847 124.026,-42.865 128.905,-37.8461"/>
</g>
<!-- v4 -->
<g id="node5" class="node"><title>v4</title>
<ellipse fill="none" stroke="black" cx="176.5" cy="-18" rx="27" ry="18"/>
<text text-anchor="middle" x="176.5" y="-14.3" font-family="Times,serif" font-size="14.00">4</text>
</g>
<!-- v2&#45;&gt;v4 -->
<g id="edge9" class="edge"><title>v2&#45;&gt;v4</title>
<path fill="none" stroke="black" d="M176.5,-71.6966C176.5,-63.9827 176.5,-54.7125 176.5,-46.1124"/>
<polygon fill="black" stroke="black" points="180,-46.1043 176.5,-36.1043 173,-46.1044 180,-46.1043"/>
</g>
<!-- v10 -->
<g id="node10" class="node"><title>v10</title>
<ellipse fill="none" stroke="black" cx="248.5" cy="-18" rx="27" ry="18"/>
<text text-anchor="middle" x="248.5" y="-14.3" font-family="Times,serif" font-size="14.00">10</text>
</g>
<!-- v2&#45;&gt;v10 -->
<g id="edge4" class="edge"><title>v2&#45;&gt;v10</title>
<path fill="none" stroke="black" d="M191.07,-74.8345C201.25,-64.9376 215.024,-51.5462 226.531,-40.3591"/>
<polygon fill="black" stroke="black" points="228.974,-42.865 233.704,-33.3847 224.095,-37.8461 228.974,-42.865"/>
</g>
<!-- v12 -->
<g id="node11" class="node"><title>v12</title>
<ellipse fill="none" stroke="black" cx="320.5" cy="-18" rx="27" ry="18"/>
<text text-anchor="middle" x="320.5" y="-14.3" font-family="Times,serif" font-size="14.00">12</text>
</g>
<!-- v2&#45;&gt;v12 -->
<g id="edge6" class="edge"><title>v2&#45;&gt;v12</title>
<path fill="none" stroke="black" d="M197.748,-78.6713C222.102,-66.8324 262.219,-47.3312 289.928,-33.8615"/>
<polygon fill="black" stroke="black" points="291.702,-36.8909 299.165,-29.3711 288.641,-30.5953 291.702,-36.8909"/>
</g>
<!-- v3 -->
<g id="node4" class="node"><title>v3</title>
<ellipse fill="none" stroke="black" cx="288.5" cy="-162" rx="27" ry="18"/>
<text text-anchor="middle" x="288.5" y="-158.3" font-family="Times,serif" font-size="14.00">3</text>
</g>
<!-- v3&#45;&gt;v2 -->
<g id="edge1" class="edge"><title>v3&#45;&gt;v2</title>
<path fill="none" stroke="black" d="M269.501,-149.125C251.56,-137.913 224.449,-120.968 204.12,-108.263"/>
<polygon fill="black" stroke="black" points="205.927,-105.265 195.592,-102.933 202.217,-111.201 205.927,-105.265"/>
</g>
<!-- p1 -->
<g id="node6" class="node"><title>p1</title>
<path fill="none" stroke="black" d="M269,-108C269,-108 234,-108 234,-108 228,-108 222,-102 222,-96 222,-96 222,-84 222,-84 222,-78 228,-72 234,-72 234,-72 269,-72 269,-72 275,-72 281,-78 281,-84 281,-84 281,-96 281,-96 281,-102 275,-108 269,-108"/>
<text text-anchor="middle" x="251.5" y="-86.3" font-family="Times,serif" font-size="14.00">path (2)</text>
</g>
<!-- v3&#45;&gt;p1 -->
<g id="edge10" class="edge"><title>v3&#45;&gt;p1</title>
<path fill="none" stroke="black" d="M279.918,-144.765C275.563,-136.525 270.167,-126.317 265.251,-117.016"/>
<polygon fill="black" stroke="black" points="268.319,-115.329 260.551,-108.124 262.13,-118.6 268.319,-115.329"/>
</g>
<!-- v6 -->
<g id="node7" class="node"><title>v6</title>
<ellipse fill="none" stroke="black" cx="326.5" cy="-90" rx="27" ry="18"/>
<text text-anchor="middle" x="326.5" y="-86.3" font-family="Times,serif" font-size="14.00">6</text>
</g>
<!-- v3&#45;&gt;v6 -->
<g id="edge7" class="edge"><title>v3&#45;&gt;v6</title>
<path fill="none" stroke="black" d="M297.313,-144.765C301.918,-136.283 307.655,-125.714 312.821,-116.197"/>
<polygon fill="black" stroke="black" points="316.039,-117.606 317.734,-107.147 309.887,-114.266 316.039,-117.606"/>
</g>
<!-- v7 -->
<g id="node8" class="node"><title>v7</title>
<ellipse fill="none" stroke="black" cx="398.5" cy="-90" rx="27" ry="18"/>
<text text-anchor="middle" x="398.5" y="-86.3" font-family="Times,serif" font-size="14.00">7</text>
</g>
<!-- v3&#45;&gt;v7 -->
<g id="edge8" class="edge"><title>v3&#45;&gt;v7</title>
<path fill="none" stroke="black" d="M307.661,-148.807C325.169,-137.665 351.259,-121.062 370.993,-108.504"/>
<polygon fill="black" stroke="black" points="373.001,-111.375 379.559,-103.053 369.243,-105.469 373.001,-111.375"/>
</g>
<!-- p2 -->
<g id="node9" class="node"><title>p2</title>
<path fill="none" stroke="black" d="M306,-252C306,-252 271,-252 271,-252 265,-252 259,-246 259,-240 259,-240 259,-228 259,-228 259,-222 265,-216 271,-216 271,-216 306,-216 306,-216 312,-216 318,-222 318,-228 318,-228 318,-240 318,-240 318,-246 312,-252 306,-252"/>
<text text-anchor="middle" x="288.5" y="-230.3" font-family="Times,serif" font-size="14.00">path (2)</text>
</g>
<!-- p2&#45;&gt;v3 -->
<g id="edge2" class="edge"><title>p2&#45;&gt;v3</title>
<path fill="none" stroke="black" d="M288.5,-215.697C288.5,-207.983 288.5,-198.712 288.5,-190.112"/>
<polygon fill="black" stroke="black" points="292,-190.104 288.5,-180.104 285,-190.104 292,-190.104"/>
</g>
</g>
</svg>
