<?xml version="1.0" encoding="UTF-8" standalone="no"?>
<!DOCTYPE svg PUBLIC "-//W3C//DTD SVG 1.1//EN"
 "http://www.w3.org/Graphics/SVG/1.1/DTD/svg11.dtd">
<!-- Generated by graphviz version 2.38.0 (20140413.2041)
 -->
<!-- Title: %3 Pages: 1 -->
<svg width="661pt" height="260pt"
 viewBox="0.00 0.00 660.50 260.00" xmlns="http://www.w3.org/2000/svg" xmlns:xlink="http://www.w3.org/1999/xlink">
<g id="graph0" class="graph" transform="scale(1 1) rotate(0) translate(4 256)">
<title>%3</title>
<polygon fill="white" stroke="none" points="-4,4 -4,-256 656.5,-256 656.5,4 -4,4"/>
<!-- v0 -->
<g id="node1" class="node"><title>v0</title>
<ellipse fill="none" stroke="black" cx="331.5" cy="-234" rx="27" ry="18"/>
<text text-anchor="middle" x="331.5" y="-230.3" font-family="Times,serif" font-size="14.00">0</text>
</g>
<!-- p0 -->
<g id="node3" class="node"><title>p0</title>
<path fill="none" stroke="black" d="M47,-180C47,-180 12,-180 12,-180 6,-180 0,-174 0,-168 0,-168 0,-156 0,-156 0,-150 6,-144 12,-144 12,-144 47,-144 47,-144 53,-144 59,-150 59,-156 59,-156 59,-168 59,-168 59,-174 53,-180 47,-180"/>
<text text-anchor="middle" x="29.5" y="-158.3" font-family="Times,serif" font-size="14.00">path (2)</text>
</g>
<!-- v0&#45;&gt;p0 -->
<g id="edge15" class="edge"><title>v0&#45;&gt;p0</title>
<path fill="none" stroke="black" d="M305.281,-229.599C257.445,-222.982 153.136,-206.642 68.5,-180 68.4031,-179.97 68.3062,-179.939 68.2091,-179.908"/>
<polygon fill="black" stroke="black" points="69.6567,-176.708 59.062,-176.658 67.3134,-183.304 69.6567,-176.708"/>
</g>
<!-- p1 -->
<g id="node4" class="node"><title>p1</title>
<path fill="none" stroke="black" d="M124,-180C124,-180 89,-180 89,-180 83,-180 77,-174 77,-168 77,-168 77,-156 77,-156 77,-150 83,-144 89,-144 89,-144 124,-144 124,-144 130,-144 136,-150 136,-156 136,-156 136,-168 136,-168 136,-174 130,-180 124,-180"/>
<text text-anchor="middle" x="106.5" y="-158.3" font-family="Times,serif" font-size="14.00">path (2)</text>
</g>
<!-- v0&#45;&gt;p1 -->
<g id="edge4" class="edge"><title>v0&#45;&gt;p1</title>
<path fill="none" stroke="black" d="M306.496,-227.006C270.47,-218.117 202.075,-200.289 145.5,-180 145.404,-179.966 145.309,-179.931 145.213,-179.897"/>
<polygon fill="black" stroke="black" points="146.736,-176.733 136.146,-176.409 144.223,-183.266 146.736,-176.733"/>
</g>
<!-- v4 -->
<g id="node5" class="node"><title>v4</title>
<ellipse fill="none" stroke="black" cx="181.5" cy="-162" rx="27" ry="18"/>
<text text-anchor="middle" x="181.5" y="-158.3" font-family="Times,serif" font-size="14.00">4</text>
</g>
<!-- v0&#45;&gt;v4 -->
<g id="edge8" class="edge"><title>v0&#45;&gt;v4</title>
<path fill="none" stroke="black" d="M310.009,-222.971C284.39,-211.015 241.39,-190.949 212.255,-177.352"/>
<polygon fill="black" stroke="black" points="213.493,-174.068 202.951,-173.011 210.533,-180.411 213.493,-174.068"/>
</g>
<!-- p3 -->
<g id="node8" class="node"><title>p3</title>
<path fill="none" stroke="black" d="M274,-180C274,-180 239,-180 239,-180 233,-180 227,-174 227,-168 227,-168 227,-156 227,-156 227,-150 233,-144 239,-144 239,-144 274,-144 274,-144 280,-144 286,-150 286,-156 286,-156 286,-168 286,-168 286,-174 280,-180 274,-180"/>
<text text-anchor="middle" x="256.5" y="-158.3" font-family="Times,serif" font-size="14.00">path (3)</text>
</g>
<!-- v0&#45;&gt;p3 -->
<g id="edge7" class="edge"><title>v0&#45;&gt;p3</title>
<path fill="none" stroke="black" d="M316.323,-218.834C306.585,-209.746 293.69,-197.71 282.366,-187.141"/>
<polygon fill="black" stroke="black" points="284.534,-184.377 274.835,-180.113 279.758,-189.495 284.534,-184.377"/>
</g>
<!-- v9 -->
<g id="node9" class="node"><title>v9</title>
<ellipse fill="none" stroke="black" cx="331.5" cy="-162" rx="27" ry="18"/>
<text text-anchor="middle" x="331.5" y="-158.3" font-family="Times,serif" font-size="14.00">9</text>
</g>
<!-- v0&#45;&gt;v9 -->
<g id="edge14" class="edge"><title>v0&#45;&gt;v9</title>
<path fill="none" stroke="black" d="M331.5,-215.697C331.5,-207.983 331.5,-198.712 331.5,-190.112"/>
<polygon fill="black" stroke="black" points="335,-190.104 331.5,-180.104 328,-190.104 335,-190.104"/>
</g>
<!-- v10 -->
<g id="node10" class="node"><title>v10</title>
<ellipse fill="none" stroke="black" cx="403.5" cy="-162" rx="27" ry="18"/>
<text text-anchor="middle" x="403.5" y="-158.3" font-family="Times,serif" font-size="14.00">10</text>
</g>
<!-- v0&#45;&gt;v10 -->
<g id="edge3" class="edge"><title>v0&#45;&gt;v10</title>
<path fill="none" stroke="black" d="M346.07,-218.834C356.25,-208.938 370.024,-195.546 381.531,-184.359"/>
<polygon fill="black" stroke="black" points="383.974,-186.865 388.704,-177.385 379.095,-181.846 383.974,-186.865"/>
</g>
<!-- p4 -->
<g id="node11" class="node"><title>p4</title>
<path fill="none" stroke="black" d="M496,-180C496,-180 461,-180 461,-180 455,-180 449,-174 449,-168 449,-168 449,-156 449,-156 449,-150 455,-144 461,-144 461,-144 496,-144 496,-144 502,-144 508,-150 508,-156 508,-156 508,-168 508,-168 508,-174 502,-180 496,-180"/>
<text text-anchor="middle" x="478.5" y="-158.3" font-family="Times,serif" font-size="14.00">path (2)</text>
</g>
<!-- v0&#45;&gt;p4 -->
<g id="edge11" class="edge"><title>v0&#45;&gt;p4</title>
<path fill="none" stroke="black" d="M352.875,-222.821C375.625,-211.988 412.103,-194.618 439.903,-181.379"/>
<polygon fill="black" stroke="black" points="441.443,-184.523 448.966,-177.064 438.433,-178.203 441.443,-184.523"/>
</g>
<!-- v18 -->
<g id="node13" class="node"><title>v18</title>
<ellipse fill="none" stroke="black" cx="553.5" cy="-162" rx="27" ry="18"/>
<text text-anchor="middle" x="553.5" y="-158.3" font-family="Times,serif" font-size="14.00">18</text>
</g>
<!-- v0&#45;&gt;v18 -->
<g id="edge10" class="edge"><title>v0&#45;&gt;v18</title>
<path fill="none" stroke="black" d="M356.589,-227.237C392.718,-218.628 461.237,-201.138 517.5,-180 519.344,-179.307 521.224,-178.558 523.108,-177.773"/>
<polygon fill="black" stroke="black" points="524.696,-180.898 532.428,-173.655 521.866,-174.496 524.696,-180.898"/>
</g>
<!-- v22 -->
<g id="node16" class="node"><title>v22</title>
<ellipse fill="none" stroke="black" cx="625.5" cy="-162" rx="27" ry="18"/>
<text text-anchor="middle" x="625.5" y="-158.3" font-family="Times,serif" font-size="14.00">22</text>
</g>
<!-- v0&#45;&gt;v22 -->
<g id="edge1" class="edge"><title>v0&#45;&gt;v22</title>
<path fill="none" stroke="black" d="M358.043,-229.678C405.423,-223.283 507.298,-207.414 589.5,-180 591.418,-179.36 593.367,-178.645 595.316,-177.88"/>
<polygon fill="black" stroke="black" points="597.105,-180.921 604.907,-173.753 594.338,-174.49 597.105,-180.921"/>
</g>
<!-- v1 -->
<g id="node2" class="node"><title>v1</title>
<ellipse fill="none" stroke="black" cx="145.5" cy="-90" rx="27" ry="18"/>
<text text-anchor="middle" x="145.5" y="-86.3" font-family="Times,serif" font-size="14.00">1</text>
</g>
<!-- p2 -->
<g id="node6" class="node"><title>p2</title>
<path fill="none" stroke="black" d="M52,-36C52,-36 17,-36 17,-36 11,-36 5,-30 5,-24 5,-24 5,-12 5,-12 5,-6 11,-0 17,-0 17,-0 52,-0 52,-0 58,-0 64,-6 64,-12 64,-12 64,-24 64,-24 64,-30 58,-36 52,-36"/>
<text text-anchor="middle" x="34.5" y="-14.3" font-family="Times,serif" font-size="14.00">path (2)</text>
</g>
<!-- v1&#45;&gt;p2 -->
<g id="edge6" class="edge"><title>v1&#45;&gt;p2</title>
<path fill="none" stroke="black" d="M126.418,-76.9666C111.007,-67.2478 88.8887,-53.2992 70.2108,-41.5203"/>
<polygon fill="black" stroke="black" points="71.9614,-38.4865 61.6359,-36.1127 68.2274,-44.4075 71.9614,-38.4865"/>
</g>
<!-- v6 -->
<g id="node7" class="node"><title>v6</title>
<ellipse fill="none" stroke="black" cx="109.5" cy="-18" rx="27" ry="18"/>
<text text-anchor="middle" x="109.5" y="-14.3" font-family="Times,serif" font-size="14.00">6</text>
</g>
<!-- v1&#45;&gt;v6 -->
<g id="edge2" class="edge"><title>v1&#45;&gt;v6</title>
<path fill="none" stroke="black" d="M137.15,-72.7646C132.788,-64.2831 127.353,-53.7144 122.459,-44.1974"/>
<polygon fill="black" stroke="black" points="125.49,-42.4395 117.804,-35.1473 119.265,-45.6409 125.49,-42.4395"/>
</g>
<!-- v19 -->
<g id="node14" class="node"><title>v19</title>
<ellipse fill="none" stroke="black" cx="181.5" cy="-18" rx="27" ry="18"/>
<text text-anchor="middle" x="181.5" y="-14.3" font-family="Times,serif" font-size="14.00">19</text>
</g>
<!-- v1&#45;&gt;v19 -->
<g id="edge12" class="edge"><title>v1&#45;&gt;v19</title>
<path fill="none" stroke="black" d="M153.85,-72.7646C158.212,-64.2831 163.647,-53.7144 168.541,-44.1974"/>
<polygon fill="black" stroke="black" points="171.735,-45.6409 173.196,-35.1473 165.51,-42.4395 171.735,-45.6409"/>
</g>
<!-- p5 -->
<g id="node15" class="node"><title>p5</title>
<path fill="none" stroke="black" d="M274,-36C274,-36 239,-36 239,-36 233,-36 227,-30 227,-24 227,-24 227,-12 227,-12 227,-6 233,-0 239,-0 239,-0 274,-0 274,-0 280,-0 286,-6 286,-12 286,-12 286,-24 286,-24 286,-30 280,-36 274,-36"/>
<text text-anchor="middle" x="256.5" y="-14.3" font-family="Times,serif" font-size="14.00">path (2)</text>
</g>
<!-- v1&#45;&gt;p5 -->
<g id="edge5" class="edge"><title>v1&#45;&gt;p5</title>
<path fill="none" stroke="black" d="M164.582,-76.9666C179.993,-67.2478 202.111,-53.2992 220.789,-41.5203"/>
<polygon fill="black" stroke="black" points="222.773,-44.4075 229.364,-36.1127 219.039,-38.4865 222.773,-44.4075"/>
</g>
<!-- v4&#45;&gt;v1 -->
<g id="edge9" class="edge"><title>v4&#45;&gt;v1</title>
<path fill="none" stroke="black" d="M173.15,-144.765C168.788,-136.283 163.353,-125.714 158.459,-116.197"/>
<polygon fill="black" stroke="black" points="161.49,-114.439 153.804,-107.147 155.265,-117.641 161.49,-114.439"/>
</g>
<!-- v17 -->
<g id="node12" class="node"><title>v17</title>
<ellipse fill="none" stroke="black" cx="217.5" cy="-90" rx="27" ry="18"/>
<text text-anchor="middle" x="217.5" y="-86.3" font-family="Times,serif" font-size="14.00">17</text>
</g>
<!-- v4&#45;&gt;v17 -->
<g id="edge13" class="edge"><title>v4&#45;&gt;v17</title>
<path fill="none" stroke="black" d="M189.85,-144.765C194.212,-136.283 199.647,-125.714 204.541,-116.197"/>
<polygon fill="black" stroke="black" points="207.735,-117.641 209.196,-107.147 201.51,-114.439 207.735,-117.641"/>
</g>
</g>
</svg>
