<?xml version="1.0" encoding="UTF-8" standalone="no"?>
<!DOCTYPE svg PUBLIC "-//W3C//DTD SVG 1.1//EN"
 "http://www.w3.org/Graphics/SVG/1.1/DTD/svg11.dtd">
<!-- Generated by graphviz version 2.38.0 (20140413.2041)
 -->
<!-- Title: %3 Pages: 1 -->
<svg width="691pt" height="620pt"
 viewBox="0.00 0.00 690.50 620.00" xmlns="http://www.w3.org/2000/svg" xmlns:xlink="http://www.w3.org/1999/xlink">
<g id="graph0" class="graph" transform="scale(1 1) rotate(0) translate(4 616)">
<title>%3</title>
<polygon fill="white" stroke="none" points="-4,4 -4,-616 686.5,-616 686.5,4 -4,4"/>
<!-- p0 -->
<g id="node1" class="node"><title>p0</title>
<path fill="none" stroke="black" d="M166,-180C166,-180 131,-180 131,-180 125,-180 119,-174 119,-168 119,-168 119,-156 119,-156 119,-150 125,-144 131,-144 131,-144 166,-144 166,-144 172,-144 178,-150 178,-156 178,-156 178,-168 178,-168 178,-174 172,-180 166,-180"/>
<text text-anchor="middle" x="148.5" y="-158.3" font-family="Times,serif" font-size="14.00">path (2)</text>
</g>
<!-- v1 -->
<g id="node2" class="node"><title>v1</title>
<ellipse fill="none" stroke="black" cx="439.5" cy="-234" rx="27" ry="18"/>
<text text-anchor="middle" x="439.5" y="-230.3" font-family="Times,serif" font-size="14.00">1</text>
</g>
<!-- v1&#45;&gt;p0 -->
<g id="edge20" class="edge"><title>v1&#45;&gt;p0</title>
<path fill="none" stroke="black" d="M413.292,-229.293C366.986,-222.346 267.99,-205.71 187.5,-180 187.403,-179.969 187.306,-179.938 187.21,-179.907"/>
<polygon fill="black" stroke="black" points="188.665,-176.711 178.071,-176.632 186.303,-183.3 188.665,-176.711"/>
</g>
<!-- v3 -->
<g id="node3" class="node"><title>v3</title>
<ellipse fill="none" stroke="black" cx="223.5" cy="-162" rx="27" ry="18"/>
<text text-anchor="middle" x="223.5" y="-158.3" font-family="Times,serif" font-size="14.00">3</text>
</g>
<!-- v1&#45;&gt;v3 -->
<g id="edge4" class="edge"><title>v1&#45;&gt;v3</title>
<path fill="none" stroke="black" d="M414.348,-226.909C379.176,-218.097 313.54,-200.573 259.5,-180 257.659,-179.299 255.782,-178.544 253.899,-177.754"/>
<polygon fill="black" stroke="black" points="255.144,-174.478 244.584,-173.623 252.306,-180.877 255.144,-174.478"/>
</g>
<!-- v20 -->
<g id="node17" class="node"><title>v20</title>
<ellipse fill="none" stroke="black" cx="295.5" cy="-162" rx="27" ry="18"/>
<text text-anchor="middle" x="295.5" y="-158.3" font-family="Times,serif" font-size="14.00">20</text>
</g>
<!-- v1&#45;&gt;v20 -->
<g id="edge9" class="edge"><title>v1&#45;&gt;v20</title>
<path fill="none" stroke="black" d="M418.252,-222.671C393.898,-210.832 353.781,-191.331 326.072,-177.862"/>
<polygon fill="black" stroke="black" points="327.359,-174.595 316.835,-173.371 324.298,-180.891 327.359,-174.595"/>
</g>
<!-- v21 -->
<g id="node18" class="node"><title>v21</title>
<ellipse fill="none" stroke="black" cx="367.5" cy="-162" rx="27" ry="18"/>
<text text-anchor="middle" x="367.5" y="-158.3" font-family="Times,serif" font-size="14.00">21</text>
</g>
<!-- v1&#45;&gt;v21 -->
<g id="edge2" class="edge"><title>v1&#45;&gt;v21</title>
<path fill="none" stroke="black" d="M424.93,-218.834C414.75,-208.938 400.976,-195.546 389.469,-184.359"/>
<polygon fill="black" stroke="black" points="391.905,-181.846 382.296,-177.385 387.026,-186.865 391.905,-181.846"/>
</g>
<!-- v22 -->
<g id="node19" class="node"><title>v22</title>
<ellipse fill="none" stroke="black" cx="439.5" cy="-162" rx="27" ry="18"/>
<text text-anchor="middle" x="439.5" y="-158.3" font-family="Times,serif" font-size="14.00">22</text>
</g>
<!-- v1&#45;&gt;v22 -->
<g id="edge24" class="edge"><title>v1&#45;&gt;v22</title>
<path fill="none" stroke="black" d="M433.66,-216.411C432.797,-208.507 432.548,-198.852 432.912,-189.935"/>
<polygon fill="black" stroke="black" points="436.403,-190.179 433.621,-179.956 429.421,-189.683 436.403,-190.179"/>
</g>
<!-- v33 -->
<g id="node29" class="node"><title>v33</title>
<ellipse fill="none" stroke="black" cx="511.5" cy="-162" rx="27" ry="18"/>
<text text-anchor="middle" x="511.5" y="-158.3" font-family="Times,serif" font-size="14.00">33</text>
</g>
<!-- v1&#45;&gt;v33 -->
<g id="edge8" class="edge"><title>v1&#45;&gt;v33</title>
<path fill="none" stroke="black" d="M454.07,-218.834C464.25,-208.938 478.024,-195.546 489.531,-184.359"/>
<polygon fill="black" stroke="black" points="491.974,-186.865 496.704,-177.385 487.095,-181.846 491.974,-186.865"/>
</g>
<!-- v34 -->
<g id="node30" class="node"><title>v34</title>
<ellipse fill="none" stroke="black" cx="583.5" cy="-162" rx="27" ry="18"/>
<text text-anchor="middle" x="583.5" y="-158.3" font-family="Times,serif" font-size="14.00">34</text>
</g>
<!-- v1&#45;&gt;v34 -->
<g id="edge1" class="edge"><title>v1&#45;&gt;v34</title>
<path fill="none" stroke="black" d="M460.748,-222.671C485.102,-210.832 525.219,-191.331 552.928,-177.862"/>
<polygon fill="black" stroke="black" points="554.702,-180.891 562.165,-173.371 551.641,-174.595 554.702,-180.891"/>
</g>
<!-- v35 -->
<g id="node31" class="node"><title>v35</title>
<ellipse fill="none" stroke="black" cx="655.5" cy="-162" rx="27" ry="18"/>
<text text-anchor="middle" x="655.5" y="-158.3" font-family="Times,serif" font-size="14.00">35</text>
</g>
<!-- v1&#45;&gt;v35 -->
<g id="edge23" class="edge"><title>v1&#45;&gt;v35</title>
<path fill="none" stroke="black" d="M460.528,-222.226C465.371,-219.983 470.553,-217.767 475.5,-216 537.625,-193.809 557.375,-202.191 619.5,-180 621.355,-179.337 623.243,-178.612 625.134,-177.845"/>
<polygon fill="black" stroke="black" points="626.704,-180.979 634.472,-173.774 623.906,-174.562 626.704,-180.979"/>
</g>
<!-- v4 -->
<g id="node4" class="node"><title>v4</title>
<ellipse fill="none" stroke="black" cx="476.5" cy="-306" rx="27" ry="18"/>
<text text-anchor="middle" x="476.5" y="-302.3" font-family="Times,serif" font-size="14.00">4</text>
</g>
<!-- v4&#45;&gt;v1 -->
<g id="edge16" class="edge"><title>v4&#45;&gt;v1</title>
<path fill="none" stroke="black" d="M467.918,-288.765C463.435,-280.283 457.849,-269.714 452.819,-260.197"/>
<polygon fill="black" stroke="black" points="455.802,-258.353 448.035,-251.147 449.614,-261.624 455.802,-258.353"/>
</g>
<!-- p4 -->
<g id="node20" class="node"><title>p4</title>
<path fill="none" stroke="black" d="M532,-252C532,-252 497,-252 497,-252 491,-252 485,-246 485,-240 485,-240 485,-228 485,-228 485,-222 491,-216 497,-216 497,-216 532,-216 532,-216 538,-216 544,-222 544,-228 544,-228 544,-240 544,-240 544,-246 538,-252 532,-252"/>
<text text-anchor="middle" x="514.5" y="-230.3" font-family="Times,serif" font-size="14.00">path (2)</text>
</g>
<!-- v4&#45;&gt;p4 -->
<g id="edge14" class="edge"><title>v4&#45;&gt;p4</title>
<path fill="none" stroke="black" d="M485.313,-288.765C489.786,-280.525 495.328,-270.317 500.377,-261.016"/>
<polygon fill="black" stroke="black" points="503.509,-262.582 505.204,-252.124 497.357,-259.243 503.509,-262.582"/>
</g>
<!-- v5 -->
<g id="node5" class="node"><title>v5</title>
<ellipse fill="none" stroke="black" cx="104.5" cy="-378" rx="27" ry="18"/>
<text text-anchor="middle" x="104.5" y="-374.3" font-family="Times,serif" font-size="14.00">5</text>
</g>
<!-- p2 -->
<g id="node14" class="node"><title>p2</title>
<path fill="none" stroke="black" d="M47,-324C47,-324 12,-324 12,-324 6,-324 0,-318 0,-312 0,-312 0,-300 0,-300 0,-294 6,-288 12,-288 12,-288 47,-288 47,-288 53,-288 59,-294 59,-300 59,-300 59,-312 59,-312 59,-318 53,-324 47,-324"/>
<text text-anchor="middle" x="29.5" y="-302.3" font-family="Times,serif" font-size="14.00">path (2)</text>
</g>
<!-- v5&#45;&gt;p2 -->
<g id="edge28" class="edge"><title>v5&#45;&gt;p2</title>
<path fill="none" stroke="black" d="M89.3226,-362.834C79.5849,-353.746 66.6898,-341.71 55.3657,-331.141"/>
<polygon fill="black" stroke="black" points="57.5338,-328.377 47.8351,-324.113 52.7575,-333.495 57.5338,-328.377"/>
</g>
<!-- v18 -->
<g id="node16" class="node"><title>v18</title>
<ellipse fill="none" stroke="black" cx="104.5" cy="-306" rx="27" ry="18"/>
<text text-anchor="middle" x="104.5" y="-302.3" font-family="Times,serif" font-size="14.00">18</text>
</g>
<!-- v5&#45;&gt;v18 -->
<g id="edge12" class="edge"><title>v5&#45;&gt;v18</title>
<path fill="none" stroke="black" d="M104.5,-359.697C104.5,-351.983 104.5,-342.712 104.5,-334.112"/>
<polygon fill="black" stroke="black" points="108,-334.104 104.5,-324.104 101,-334.104 108,-334.104"/>
</g>
<!-- v32 -->
<g id="node28" class="node"><title>v32</title>
<ellipse fill="none" stroke="black" cx="176.5" cy="-306" rx="27" ry="18"/>
<text text-anchor="middle" x="176.5" y="-302.3" font-family="Times,serif" font-size="14.00">32</text>
</g>
<!-- v5&#45;&gt;v32 -->
<g id="edge6" class="edge"><title>v5&#45;&gt;v32</title>
<path fill="none" stroke="black" d="M119.07,-362.834C129.25,-352.938 143.024,-339.546 154.531,-328.359"/>
<polygon fill="black" stroke="black" points="156.974,-330.865 161.704,-321.385 152.095,-325.846 156.974,-330.865"/>
</g>
<!-- p1 -->
<g id="node6" class="node"><title>p1</title>
<path fill="none" stroke="black" d="M197,-396C197,-396 162,-396 162,-396 156,-396 150,-390 150,-384 150,-384 150,-372 150,-372 150,-366 156,-360 162,-360 162,-360 197,-360 197,-360 203,-360 209,-366 209,-372 209,-372 209,-384 209,-384 209,-390 203,-396 197,-396"/>
<text text-anchor="middle" x="179.5" y="-374.3" font-family="Times,serif" font-size="14.00">path (2)</text>
</g>
<!-- v7 -->
<g id="node7" class="node"><title>v7</title>
<ellipse fill="none" stroke="black" cx="254.5" cy="-378" rx="27" ry="18"/>
<text text-anchor="middle" x="254.5" y="-374.3" font-family="Times,serif" font-size="14.00">7</text>
</g>
<!-- v8 -->
<g id="node8" class="node"><title>v8</title>
<ellipse fill="none" stroke="black" cx="182.5" cy="-522" rx="27" ry="18"/>
<text text-anchor="middle" x="182.5" y="-518.3" font-family="Times,serif" font-size="14.00">8</text>
</g>
<!-- v9 -->
<g id="node9" class="node"><title>v9</title>
<ellipse fill="none" stroke="black" cx="218.5" cy="-450" rx="27" ry="18"/>
<text text-anchor="middle" x="218.5" y="-446.3" font-family="Times,serif" font-size="14.00">9</text>
</g>
<!-- v10 -->
<g id="node10" class="node"><title>v10</title>
<ellipse fill="none" stroke="black" cx="326.5" cy="-378" rx="27" ry="18"/>
<text text-anchor="middle" x="326.5" y="-374.3" font-family="Times,serif" font-size="14.00">10</text>
</g>
<!-- v11 -->
<g id="node11" class="node"><title>v11</title>
<ellipse fill="none" stroke="black" cx="218.5" cy="-594" rx="27" ry="18"/>
<text text-anchor="middle" x="218.5" y="-590.3" font-family="Times,serif" font-size="14.00">11</text>
</g>
<!-- v11&#45;&gt;v8 -->
<g id="edge25" class="edge"><title>v11&#45;&gt;v8</title>
<path fill="none" stroke="black" d="M210.15,-576.765C205.788,-568.283 200.353,-557.714 195.459,-548.197"/>
<polygon fill="black" stroke="black" points="198.49,-546.439 190.804,-539.147 192.265,-549.641 198.49,-546.439"/>
</g>
<!-- v12 -->
<g id="node12" class="node"><title>v12</title>
<ellipse fill="none" stroke="black" cx="254.5" cy="-522" rx="27" ry="18"/>
<text text-anchor="middle" x="254.5" y="-518.3" font-family="Times,serif" font-size="14.00">12</text>
</g>
<!-- v11&#45;&gt;v12 -->
<g id="edge11" class="edge"><title>v11&#45;&gt;v12</title>
<path fill="none" stroke="black" d="M226.85,-576.765C231.212,-568.283 236.647,-557.714 241.541,-548.197"/>
<polygon fill="black" stroke="black" points="244.735,-549.641 246.196,-539.147 238.51,-546.439 244.735,-549.641"/>
</g>
<!-- v12&#45;&gt;v9 -->
<g id="edge7" class="edge"><title>v12&#45;&gt;v9</title>
<path fill="none" stroke="black" d="M246.15,-504.765C241.788,-496.283 236.353,-485.714 231.459,-476.197"/>
<polygon fill="black" stroke="black" points="234.49,-474.439 226.804,-467.147 228.265,-477.641 234.49,-474.439"/>
</g>
<!-- v13 -->
<g id="node13" class="node"><title>v13</title>
<ellipse fill="none" stroke="black" cx="290.5" cy="-450" rx="27" ry="18"/>
<text text-anchor="middle" x="290.5" y="-446.3" font-family="Times,serif" font-size="14.00">13</text>
</g>
<!-- v12&#45;&gt;v13 -->
<g id="edge10" class="edge"><title>v12&#45;&gt;v13</title>
<path fill="none" stroke="black" d="M262.85,-504.765C267.212,-496.283 272.647,-485.714 277.541,-476.197"/>
<polygon fill="black" stroke="black" points="280.735,-477.641 282.196,-467.147 274.51,-474.439 280.735,-477.641"/>
</g>
<!-- v13&#45;&gt;v5 -->
<g id="edge27" class="edge"><title>v13&#45;&gt;v5</title>
<path fill="none" stroke="black" d="M269.388,-438.448C264.55,-436.194 259.391,-433.917 254.5,-432 205.031,-412.612 189.969,-415.388 140.5,-396 138.666,-395.281 136.794,-394.512 134.916,-393.712"/>
<polygon fill="black" stroke="black" points="136.169,-390.438 125.612,-389.552 133.312,-396.829 136.169,-390.438"/>
</g>
<!-- v13&#45;&gt;p1 -->
<g id="edge18" class="edge"><title>v13&#45;&gt;p1</title>
<path fill="none" stroke="black" d="M271.418,-436.967C256.007,-427.248 233.889,-413.299 215.211,-401.52"/>
<polygon fill="black" stroke="black" points="216.961,-398.486 206.636,-396.113 213.227,-404.407 216.961,-398.486"/>
</g>
<!-- v13&#45;&gt;v7 -->
<g id="edge15" class="edge"><title>v13&#45;&gt;v7</title>
<path fill="none" stroke="black" d="M282.15,-432.765C277.788,-424.283 272.353,-413.714 267.459,-404.197"/>
<polygon fill="black" stroke="black" points="270.49,-402.439 262.804,-395.147 264.265,-405.641 270.49,-402.439"/>
</g>
<!-- v13&#45;&gt;v10 -->
<g id="edge21" class="edge"><title>v13&#45;&gt;v10</title>
<path fill="none" stroke="black" d="M298.85,-432.765C303.212,-424.283 308.647,-413.714 313.541,-404.197"/>
<polygon fill="black" stroke="black" points="316.735,-405.641 318.196,-395.147 310.51,-402.439 316.735,-405.641"/>
</g>
<!-- p3 -->
<g id="node15" class="node"><title>p3</title>
<path fill="none" stroke="black" d="M419,-396C419,-396 384,-396 384,-396 378,-396 372,-390 372,-384 372,-384 372,-372 372,-372 372,-366 378,-360 384,-360 384,-360 419,-360 419,-360 425,-360 431,-366 431,-372 431,-372 431,-384 431,-384 431,-390 425,-396 419,-396"/>
<text text-anchor="middle" x="401.5" y="-374.3" font-family="Times,serif" font-size="14.00">path (2)</text>
</g>
<!-- v13&#45;&gt;p3 -->
<g id="edge17" class="edge"><title>v13&#45;&gt;p3</title>
<path fill="none" stroke="black" d="M309.582,-436.967C324.993,-427.248 347.111,-413.299 365.789,-401.52"/>
<polygon fill="black" stroke="black" points="367.773,-404.407 374.364,-396.113 364.039,-398.486 367.773,-404.407"/>
</g>
<!-- v31 -->
<g id="node27" class="node"><title>v31</title>
<ellipse fill="none" stroke="black" cx="476.5" cy="-378" rx="27" ry="18"/>
<text text-anchor="middle" x="476.5" y="-374.3" font-family="Times,serif" font-size="14.00">31</text>
</g>
<!-- v13&#45;&gt;v31 -->
<g id="edge31" class="edge"><title>v13&#45;&gt;v31</title>
<path fill="none" stroke="black" d="M314.228,-441.286C343.835,-431.495 395.882,-413.737 439.5,-396 441.575,-395.156 443.703,-394.261 445.84,-393.34"/>
<polygon fill="black" stroke="black" points="447.403,-396.475 455.12,-389.215 444.56,-390.078 447.403,-396.475"/>
</g>
<!-- v22&#45;&gt;v1 -->
<g id="edge30" class="edge"><title>v22&#45;&gt;v1</title>
<path fill="none" stroke="black" d="M445.379,-179.956C446.214,-187.827 446.448,-197.374 446.083,-206.187"/>
<polygon fill="black" stroke="black" points="442.574,-206.184 445.34,-216.411 449.556,-206.691 442.574,-206.184"/>
</g>
<!-- v25 -->
<g id="node21" class="node"><title>v25</title>
<ellipse fill="none" stroke="black" cx="367.5" cy="-90" rx="27" ry="18"/>
<text text-anchor="middle" x="367.5" y="-86.3" font-family="Times,serif" font-size="14.00">25</text>
</g>
<!-- v22&#45;&gt;v25 -->
<g id="edge22" class="edge"><title>v22&#45;&gt;v25</title>
<path fill="none" stroke="black" d="M424.93,-146.834C414.75,-136.938 400.976,-123.546 389.469,-112.359"/>
<polygon fill="black" stroke="black" points="391.905,-109.846 382.296,-105.385 387.026,-114.865 391.905,-109.846"/>
</g>
<!-- v26 -->
<g id="node22" class="node"><title>v26</title>
<ellipse fill="none" stroke="black" cx="439.5" cy="-90" rx="27" ry="18"/>
<text text-anchor="middle" x="439.5" y="-86.3" font-family="Times,serif" font-size="14.00">26</text>
</g>
<!-- v22&#45;&gt;v26 -->
<g id="edge5" class="edge"><title>v22&#45;&gt;v26</title>
<path fill="none" stroke="black" d="M433.66,-144.411C432.797,-136.507 432.548,-126.852 432.912,-117.935"/>
<polygon fill="black" stroke="black" points="436.403,-118.179 433.621,-107.956 429.421,-117.683 436.403,-118.179"/>
</g>
<!-- v27 -->
<g id="node23" class="node"><title>v27</title>
<ellipse fill="none" stroke="black" cx="511.5" cy="-90" rx="27" ry="18"/>
<text text-anchor="middle" x="511.5" y="-86.3" font-family="Times,serif" font-size="14.00">27</text>
</g>
<!-- v22&#45;&gt;v27 -->
<g id="edge29" class="edge"><title>v22&#45;&gt;v27</title>
<path fill="none" stroke="black" d="M454.07,-146.834C464.25,-136.938 478.024,-123.546 489.531,-112.359"/>
<polygon fill="black" stroke="black" points="491.974,-114.865 496.704,-105.385 487.095,-109.846 491.974,-114.865"/>
</g>
<!-- v29 -->
<g id="node25" class="node"><title>v29</title>
<ellipse fill="none" stroke="black" cx="583.5" cy="-90" rx="27" ry="18"/>
<text text-anchor="middle" x="583.5" y="-86.3" font-family="Times,serif" font-size="14.00">29</text>
</g>
<!-- v22&#45;&gt;v29 -->
<g id="edge19" class="edge"><title>v22&#45;&gt;v29</title>
<path fill="none" stroke="black" d="M460.748,-150.671C485.102,-138.832 525.219,-119.331 552.928,-105.862"/>
<polygon fill="black" stroke="black" points="554.702,-108.891 562.165,-101.371 551.641,-102.595 554.702,-108.891"/>
</g>
<!-- v26&#45;&gt;v22 -->
<g id="edge26" class="edge"><title>v26&#45;&gt;v22</title>
<path fill="none" stroke="black" d="M445.379,-107.956C446.214,-115.827 446.448,-125.374 446.083,-134.187"/>
<polygon fill="black" stroke="black" points="442.574,-134.184 445.34,-144.411 449.556,-134.691 442.574,-134.184"/>
</g>
<!-- v28 -->
<g id="node24" class="node"><title>v28</title>
<ellipse fill="none" stroke="black" cx="547.5" cy="-18" rx="27" ry="18"/>
<text text-anchor="middle" x="547.5" y="-14.3" font-family="Times,serif" font-size="14.00">28</text>
</g>
<!-- v29&#45;&gt;v28 -->
<g id="edge3" class="edge"><title>v29&#45;&gt;v28</title>
<path fill="none" stroke="black" d="M575.15,-72.7646C570.788,-64.2831 565.353,-53.7144 560.459,-44.1974"/>
<polygon fill="black" stroke="black" points="563.49,-42.4395 555.804,-35.1473 557.265,-45.6409 563.49,-42.4395"/>
</g>
<!-- v30 -->
<g id="node26" class="node"><title>v30</title>
<ellipse fill="none" stroke="black" cx="619.5" cy="-18" rx="27" ry="18"/>
<text text-anchor="middle" x="619.5" y="-14.3" font-family="Times,serif" font-size="14.00">30</text>
</g>
<!-- v29&#45;&gt;v30 -->
<g id="edge13" class="edge"><title>v29&#45;&gt;v30</title>
<path fill="none" stroke="black" d="M591.85,-72.7646C596.212,-64.2831 601.647,-53.7144 606.541,-44.1974"/>
<polygon fill="black" stroke="black" points="609.735,-45.6409 611.196,-35.1473 603.51,-42.4395 609.735,-45.6409"/>
</g>
<!-- v31&#45;&gt;v4 -->
<g id="edge32" class="edge"><title>v31&#45;&gt;v4</title>
<path fill="none" stroke="black" d="M476.5,-359.697C476.5,-351.983 476.5,-342.712 476.5,-334.112"/>
<polygon fill="black" stroke="black" points="480,-334.104 476.5,-324.104 473,-334.104 480,-334.104"/>
</g>
</g>
</svg>
