<?xml version="1.0" encoding="UTF-8" standalone="no"?>
<!DOCTYPE svg PUBLIC "-//W3C//DTD SVG 1.1//EN"
 "http://www.w3.org/Graphics/SVG/1.1/DTD/svg11.dtd">
<!-- Generated by graphviz version 2.38.0 (20140413.2041)
 -->
<!-- Title: %3 Pages: 1 -->
<svg width="2111pt" height="476pt"
 viewBox="0.00 0.00 2110.79 476.00" xmlns="http://www.w3.org/2000/svg" xmlns:xlink="http://www.w3.org/1999/xlink">
<g id="graph0" class="graph" transform="scale(1 1) rotate(0) translate(4 472)">
<title>%3</title>
<polygon fill="white" stroke="none" points="-4,4 -4,-472 2106.79,-472 2106.79,4 -4,4"/>
<!-- 0 -->
<g id="node1" class="node"><title>0</title>
<g id="a_node1"><a xlink:title="0, diversity: 1, multiplicities: 121, labels: 0,3,2">
<ellipse fill="#fb7c5c" stroke="black" cx="861.196" cy="-162" rx="50.8918" ry="18"/>
<text text-anchor="middle" x="861.196" y="-158.3" font-family="Times,serif" font-size="14.00">0 (1): 0,3,2</text>
</a>
</g>
</g>
<!-- 1 -->
<g id="node2" class="node"><title>1</title>
<g id="a_node2"><a xlink:title="1, diversity: 1, multiplicities: 5, labels: 0,3">
<ellipse fill="#fee3d6" stroke="black" cx="145.196" cy="-18" rx="44.393" ry="18"/>
<text text-anchor="middle" x="145.196" y="-14.3" font-family="Times,serif" font-size="14.00">1 (1): 0,3</text>
</a>
</g>
</g>
<!-- 2 -->
<g id="node3" class="node"><title>2</title>
<g id="a_node3"><a xlink:title="2, diversity: 1, multiplicities: 1, labels: 3">
<ellipse fill="#fff5f0" stroke="black" cx="861.196" cy="-234" rx="37.0935" ry="18"/>
<text text-anchor="middle" x="861.196" y="-230.3" font-family="Times,serif" font-size="14.00">2 (1): 3</text>
</a>
</g>
</g>
<!-- 2&#45;&gt;0 -->
<g id="edge18" class="edge"><title>2&#45;&gt;0</title>
<path fill="none" stroke="black" d="M861.196,-215.697C861.196,-207.983 861.196,-198.712 861.196,-190.112"/>
<polygon fill="black" stroke="black" points="864.696,-190.104 861.196,-180.104 857.696,-190.104 864.696,-190.104"/>
</g>
<!-- 3 -->
<g id="node4" class="node"><title>3</title>
<g id="a_node4"><a xlink:title="3, diversity: 1, multiplicities: 4, labels: 3">
<ellipse fill="#fee3d6" stroke="black" cx="1468.2" cy="-234" rx="37.0935" ry="18"/>
<text text-anchor="middle" x="1468.2" y="-230.3" font-family="Times,serif" font-size="14.00">3 (1): 3</text>
</a>
</g>
</g>
<!-- 60 -->
<g id="node61" class="node"><title>60</title>
<g id="a_node61"><a xlink:title="60, diversity: 1, multiplicities: 6, labels: 3">
<ellipse fill="#fcc4ad" stroke="black" cx="1481.2" cy="-162" rx="41.6928" ry="18"/>
<text text-anchor="middle" x="1481.2" y="-158.3" font-family="Times,serif" font-size="14.00">60 (1): 3</text>
</a>
</g>
</g>
<!-- 3&#45;&gt;60 -->
<g id="edge60" class="edge"><title>3&#45;&gt;60</title>
<path fill="none" stroke="black" d="M1471.34,-216.055C1472.77,-208.346 1474.51,-199.027 1476.11,-190.364"/>
<polygon fill="black" stroke="black" points="1479.6,-190.746 1477.99,-180.275 1472.72,-189.468 1479.6,-190.746"/>
</g>
<!-- 4 -->
<g id="node5" class="node"><title>4</title>
<g id="a_node5"><a xlink:title="4, diversity: 1, multiplicities: 5, labels: 3">
<ellipse fill="#fee3d6" stroke="black" cx="1459.2" cy="-306" rx="37.0935" ry="18"/>
<text text-anchor="middle" x="1459.2" y="-302.3" font-family="Times,serif" font-size="14.00">4 (1): 3</text>
</a>
</g>
</g>
<!-- 4&#45;&gt;3 -->
<g id="edge62" class="edge"><title>4&#45;&gt;3</title>
<path fill="none" stroke="black" d="M1461.42,-287.697C1462.41,-279.983 1463.6,-270.712 1464.71,-262.112"/>
<polygon fill="black" stroke="black" points="1468.19,-262.469 1466,-252.104 1461.25,-261.576 1468.19,-262.469"/>
</g>
<!-- 5 -->
<g id="node6" class="node"><title>5</title>
<g id="a_node6"><a xlink:title="5, diversity: 1, multiplicities: 8, labels: 3">
<ellipse fill="#fcc4ad" stroke="black" cx="451.196" cy="-306" rx="37.0935" ry="18"/>
<text text-anchor="middle" x="451.196" y="-302.3" font-family="Times,serif" font-size="14.00">5 (1): 3</text>
</a>
</g>
</g>
<!-- 6 -->
<g id="node7" class="node"><title>6</title>
<g id="a_node7"><a xlink:title="6, diversity: 1, multiplicities: 18, labels: 3">
<ellipse fill="#fca082" stroke="black" cx="1256.2" cy="-162" rx="37.0935" ry="18"/>
<text text-anchor="middle" x="1256.2" y="-158.3" font-family="Times,serif" font-size="14.00">6 (1): 3</text>
</a>
</g>
</g>
<!-- 7 -->
<g id="node8" class="node"><title>7</title>
<g id="a_node8"><a xlink:title="7, diversity: 1, multiplicities: 1, labels: 3">
<ellipse fill="#fff5f0" stroke="black" cx="861.196" cy="-306" rx="37.0935" ry="18"/>
<text text-anchor="middle" x="861.196" y="-302.3" font-family="Times,serif" font-size="14.00">7 (1): 3</text>
</a>
</g>
</g>
<!-- 7&#45;&gt;2 -->
<g id="edge12" class="edge"><title>7&#45;&gt;2</title>
<path fill="none" stroke="black" d="M861.196,-287.697C861.196,-279.983 861.196,-270.712 861.196,-262.112"/>
<polygon fill="black" stroke="black" points="864.696,-262.104 861.196,-252.104 857.696,-262.104 864.696,-262.104"/>
</g>
<!-- 8 -->
<g id="node9" class="node"><title>8</title>
<g id="a_node9"><a xlink:title="8, diversity: 1, multiplicities: 53, labels: 3,2">
<ellipse fill="#fca082" stroke="black" cx="44.1961" cy="-378" rx="44.393" ry="18"/>
<text text-anchor="middle" x="44.1961" y="-374.3" font-family="Times,serif" font-size="14.00">8 (1): 3,2</text>
</a>
</g>
</g>
<!-- 62 -->
<g id="node63" class="node"><title>62</title>
<g id="a_node63"><a xlink:title="62, diversity: 1, multiplicities: 18, labels: 2">
<ellipse fill="#fca082" stroke="black" cx="44.1961" cy="-306" rx="41.6928" ry="18"/>
<text text-anchor="middle" x="44.1961" y="-302.3" font-family="Times,serif" font-size="14.00">62 (1): 2</text>
</a>
</g>
</g>
<!-- 8&#45;&gt;62 -->
<g id="edge58" class="edge"><title>8&#45;&gt;62</title>
<path fill="none" stroke="black" d="M44.1961,-359.697C44.1961,-351.983 44.1961,-342.712 44.1961,-334.112"/>
<polygon fill="black" stroke="black" points="47.6962,-334.104 44.1961,-324.104 40.6962,-334.104 47.6962,-334.104"/>
</g>
<!-- 9 -->
<g id="node10" class="node"><title>9</title>
<g id="a_node10"><a xlink:title="9, diversity: 2, multiplicities: 37,419, labels: 3,2">
<ellipse fill="#f6553c" stroke="black" cx="145.196" cy="-162" rx="44.393" ry="18"/>
<text text-anchor="middle" x="145.196" y="-158.3" font-family="Times,serif" font-size="14.00">9 (2): 3,2</text>
</a>
</g>
</g>
<!-- 10 -->
<g id="node11" class="node"><title>10</title>
<g id="a_node11"><a xlink:title="10, diversity: 1, multiplicities: 1, labels: 3">
<ellipse fill="#fff5f0" stroke="black" cx="145.196" cy="-90" rx="41.6928" ry="18"/>
<text text-anchor="middle" x="145.196" y="-86.3" font-family="Times,serif" font-size="14.00">10 (1): 3</text>
</a>
</g>
</g>
<!-- 9&#45;&gt;10 -->
<g id="edge42" class="edge"><title>9&#45;&gt;10</title>
<path fill="none" stroke="black" d="M145.196,-143.697C145.196,-135.983 145.196,-126.712 145.196,-118.112"/>
<polygon fill="black" stroke="black" points="148.696,-118.104 145.196,-108.104 141.696,-118.104 148.696,-118.104"/>
</g>
<!-- 10&#45;&gt;1 -->
<g id="edge45" class="edge"><title>10&#45;&gt;1</title>
<path fill="none" stroke="black" d="M145.196,-71.6966C145.196,-63.9827 145.196,-54.7125 145.196,-46.1124"/>
<polygon fill="black" stroke="black" points="148.696,-46.1043 145.196,-36.1043 141.696,-46.1044 148.696,-46.1043"/>
</g>
<!-- 11 -->
<g id="node12" class="node"><title>11</title>
<g id="a_node12"><a xlink:title="11, diversity: 1, multiplicities: 1, labels: 3">
<ellipse fill="#fff5f0" stroke="black" cx="148.196" cy="-378" rx="41.6928" ry="18"/>
<text text-anchor="middle" x="148.196" y="-374.3" font-family="Times,serif" font-size="14.00">11 (1): 3</text>
</a>
</g>
</g>
<!-- 13 -->
<g id="node14" class="node"><title>13</title>
<g id="a_node14"><a xlink:title="13, diversity: 1, multiplicities: 2, labels: 3">
<ellipse fill="#fee3d6" stroke="black" cx="148.196" cy="-306" rx="41.6928" ry="18"/>
<text text-anchor="middle" x="148.196" y="-302.3" font-family="Times,serif" font-size="14.00">13 (1): 3</text>
</a>
</g>
</g>
<!-- 11&#45;&gt;13 -->
<g id="edge32" class="edge"><title>11&#45;&gt;13</title>
<path fill="none" stroke="black" d="M148.196,-359.697C148.196,-351.983 148.196,-342.712 148.196,-334.112"/>
<polygon fill="black" stroke="black" points="151.696,-334.104 148.196,-324.104 144.696,-334.104 151.696,-334.104"/>
</g>
<!-- 12 -->
<g id="node13" class="node"><title>12</title>
<g id="a_node13"><a xlink:title="12, diversity: 1, multiplicities: 3, labels: 3">
<ellipse fill="#fee3d6" stroke="black" cx="145.196" cy="-234" rx="41.6928" ry="18"/>
<text text-anchor="middle" x="145.196" y="-230.3" font-family="Times,serif" font-size="14.00">12 (1): 3</text>
</a>
</g>
</g>
<!-- 12&#45;&gt;9 -->
<g id="edge20" class="edge"><title>12&#45;&gt;9</title>
<path fill="none" stroke="black" d="M145.196,-215.697C145.196,-207.983 145.196,-198.712 145.196,-190.112"/>
<polygon fill="black" stroke="black" points="148.696,-190.104 145.196,-180.104 141.696,-190.104 148.696,-190.104"/>
</g>
<!-- 13&#45;&gt;12 -->
<g id="edge15" class="edge"><title>13&#45;&gt;12</title>
<path fill="none" stroke="black" d="M147.455,-287.697C147.124,-279.983 146.727,-270.712 146.358,-262.112"/>
<polygon fill="black" stroke="black" points="149.854,-261.945 145.929,-252.104 142.861,-262.245 149.854,-261.945"/>
</g>
<!-- 64 -->
<g id="node65" class="node"><title>64</title>
<g id="a_node65"><a xlink:title="64, diversity: 1, multiplicities: 5, labels: 3">
<ellipse fill="#fee3d6" stroke="black" cx="246.196" cy="-234" rx="41.6928" ry="18"/>
<text text-anchor="middle" x="246.196" y="-230.3" font-family="Times,serif" font-size="14.00">64 (1): 3</text>
</a>
</g>
</g>
<!-- 13&#45;&gt;64 -->
<g id="edge31" class="edge"><title>13&#45;&gt;64</title>
<path fill="none" stroke="black" d="M168.979,-290.155C183.012,-280.132 201.727,-266.763 217.219,-255.698"/>
<polygon fill="black" stroke="black" points="219.34,-258.484 225.443,-249.824 215.271,-252.788 219.34,-258.484"/>
</g>
<!-- 14 -->
<g id="node15" class="node"><title>14</title>
<g id="a_node15"><a xlink:title="14, diversity: 6, multiplicities: 1,1,1,3,23,535, labels: 1,3,2">
<ellipse fill="#e32f27" stroke="black" cx="933.196" cy="-450" rx="55.4913" ry="18"/>
<text text-anchor="middle" x="933.196" y="-446.3" font-family="Times,serif" font-size="14.00">14 (6): 1,3,2</text>
</a>
</g>
</g>
<!-- 14&#45;&gt;8 -->
<g id="edge64" class="edge"><title>14&#45;&gt;8</title>
<path fill="none" stroke="black" d="M878.472,-447.295C717.565,-442.004 247.865,-424.485 97.1961,-396 93.5138,-395.304 89.7309,-394.428 85.9623,-393.444"/>
<polygon fill="black" stroke="black" points="86.6757,-390.008 76.0993,-390.632 84.7566,-396.74 86.6757,-390.008"/>
</g>
<!-- 14&#45;&gt;11 -->
<g id="edge52" class="edge"><title>14&#45;&gt;11</title>
<path fill="none" stroke="black" d="M877.684,-449.802C754.214,-450.544 448.033,-446.608 198.196,-396 194.814,-395.315 191.345,-394.464 187.888,-393.51"/>
<polygon fill="black" stroke="black" points="188.846,-390.143 178.261,-390.604 186.823,-396.845 188.846,-390.143"/>
</g>
<!-- 15 -->
<g id="node16" class="node"><title>15</title>
<g id="a_node16"><a xlink:title="15, diversity: 1, multiplicities: 1, labels: 2">
<ellipse fill="#fff5f0" stroke="black" cx="249.196" cy="-378" rx="41.6928" ry="18"/>
<text text-anchor="middle" x="249.196" y="-374.3" font-family="Times,serif" font-size="14.00">15 (1): 2</text>
</a>
</g>
</g>
<!-- 14&#45;&gt;15 -->
<g id="edge44" class="edge"><title>14&#45;&gt;15</title>
<path fill="none" stroke="black" d="M877.957,-448.773C767.2,-447.356 510.573,-439.224 300.196,-396 296.602,-395.262 292.909,-394.349 289.233,-393.333"/>
<polygon fill="black" stroke="black" points="290.201,-389.97 279.617,-390.452 288.192,-396.675 290.201,-389.97"/>
</g>
<!-- 16 -->
<g id="node17" class="node"><title>16</title>
<g id="a_node17"><a xlink:title="16, diversity: 2, multiplicities: 21,48, labels: 3,2">
<ellipse fill="#fca082" stroke="black" cx="357.196" cy="-378" rx="48.1917" ry="18"/>
<text text-anchor="middle" x="357.196" y="-374.3" font-family="Times,serif" font-size="14.00">16 (2): 3,2</text>
</a>
</g>
</g>
<!-- 14&#45;&gt;16 -->
<g id="edge54" class="edge"><title>14&#45;&gt;16</title>
<path fill="none" stroke="black" d="M878.527,-446.799C783.363,-442.218 581.441,-429.173 414.196,-396 410.094,-395.186 405.863,-394.205 401.647,-393.128"/>
<polygon fill="black" stroke="black" points="402.471,-389.726 391.903,-390.48 400.635,-396.481 402.471,-389.726"/>
</g>
<!-- 18 -->
<g id="node19" class="node"><title>18</title>
<g id="a_node19"><a xlink:title="18, diversity: 1, multiplicities: 2, labels: 2">
<ellipse fill="#fee3d6" stroke="black" cx="465.196" cy="-378" rx="41.6928" ry="18"/>
<text text-anchor="middle" x="465.196" y="-374.3" font-family="Times,serif" font-size="14.00">18 (1): 2</text>
</a>
</g>
</g>
<!-- 14&#45;&gt;18 -->
<g id="edge21" class="edge"><title>14&#45;&gt;18</title>
<path fill="none" stroke="black" d="M879.473,-445.665C799.312,-439.91 644.026,-425.748 515.196,-396 511.98,-395.257 508.68,-394.387 505.382,-393.441"/>
<polygon fill="black" stroke="black" points="506.174,-390.022 495.587,-390.42 504.112,-396.712 506.174,-390.022"/>
</g>
<!-- 19 -->
<g id="node20" class="node"><title>19</title>
<g id="a_node20"><a xlink:title="19, diversity: 1, multiplicities: 1, labels: 3">
<ellipse fill="#fff5f0" stroke="black" cx="566.196" cy="-378" rx="41.6928" ry="18"/>
<text text-anchor="middle" x="566.196" y="-374.3" font-family="Times,serif" font-size="14.00">19 (1): 3</text>
</a>
</g>
</g>
<!-- 14&#45;&gt;19 -->
<g id="edge37" class="edge"><title>14&#45;&gt;19</title>
<path fill="none" stroke="black" d="M882.162,-443.058C819.079,-435.121 708.723,-419.301 616.196,-396 613.04,-395.205 609.797,-394.304 606.553,-393.341"/>
<polygon fill="black" stroke="black" points="607.491,-389.967 596.902,-390.312 605.395,-396.646 607.491,-389.967"/>
</g>
<!-- 21 -->
<g id="node22" class="node"><title>21</title>
<g id="a_node22"><a xlink:title="21, diversity: 1, multiplicities: 1, labels: 3">
<ellipse fill="#fff5f0" stroke="black" cx="667.196" cy="-378" rx="41.6928" ry="18"/>
<text text-anchor="middle" x="667.196" y="-374.3" font-family="Times,serif" font-size="14.00">21 (1): 3</text>
</a>
</g>
</g>
<!-- 14&#45;&gt;21 -->
<g id="edge35" class="edge"><title>14&#45;&gt;21</title>
<path fill="none" stroke="black" d="M888.862,-439.164C845.198,-429.22 776.727,-412.94 718.196,-396 715.013,-395.079 711.733,-394.086 708.442,-393.06"/>
<polygon fill="black" stroke="black" points="709.222,-389.634 698.631,-389.916 707.086,-396.301 709.222,-389.634"/>
</g>
<!-- 22 -->
<g id="node23" class="node"><title>22</title>
<g id="a_node23"><a xlink:title="22, diversity: 1, multiplicities: 3, labels: 3,2">
<ellipse fill="#fee3d6" stroke="black" cx="775.196" cy="-378" rx="48.1917" ry="18"/>
<text text-anchor="middle" x="775.196" y="-374.3" font-family="Times,serif" font-size="14.00">22 (1): 3,2</text>
</a>
</g>
</g>
<!-- 14&#45;&gt;22 -->
<g id="edge13" class="edge"><title>14&#45;&gt;22</title>
<path fill="none" stroke="black" d="M901.602,-435.003C876.578,-423.916 841.483,-408.368 814.62,-396.466"/>
<polygon fill="black" stroke="black" points="815.69,-393.112 805.129,-392.262 812.855,-399.512 815.69,-393.112"/>
</g>
<!-- 24 -->
<g id="node25" class="node"><title>24</title>
<g id="a_node25"><a xlink:title="24, diversity: 1, multiplicities: 20, labels: 3">
<ellipse fill="#fca082" stroke="black" cx="883.196" cy="-378" rx="41.6928" ry="18"/>
<text text-anchor="middle" x="883.196" y="-374.3" font-family="Times,serif" font-size="14.00">24 (1): 3</text>
</a>
</g>
</g>
<!-- 14&#45;&gt;24 -->
<g id="edge39" class="edge"><title>14&#45;&gt;24</title>
<path fill="none" stroke="black" d="M921.347,-432.411C915.244,-423.868 907.681,-413.278 900.901,-403.787"/>
<polygon fill="black" stroke="black" points="903.621,-401.573 894.96,-395.47 897.925,-405.642 903.621,-401.573"/>
</g>
<!-- 26 -->
<g id="node27" class="node"><title>26</title>
<g id="a_node27"><a xlink:title="26, diversity: 1, multiplicities: 1, labels: 3">
<ellipse fill="#fff5f0" stroke="black" cx="984.196" cy="-378" rx="41.6928" ry="18"/>
<text text-anchor="middle" x="984.196" y="-374.3" font-family="Times,serif" font-size="14.00">26 (1): 3</text>
</a>
</g>
</g>
<!-- 14&#45;&gt;26 -->
<g id="edge8" class="edge"><title>14&#45;&gt;26</title>
<path fill="none" stroke="black" d="M945.282,-432.411C951.507,-423.868 959.222,-413.278 966.137,-403.787"/>
<polygon fill="black" stroke="black" points="969.137,-405.613 972.197,-395.47 963.479,-401.491 969.137,-405.613"/>
</g>
<!-- 27 -->
<g id="node28" class="node"><title>27</title>
<g id="a_node28"><a xlink:title="27, diversity: 1, multiplicities: 8, labels: 3">
<ellipse fill="#fcc4ad" stroke="black" cx="1085.2" cy="-378" rx="41.6928" ry="18"/>
<text text-anchor="middle" x="1085.2" y="-374.3" font-family="Times,serif" font-size="14.00">27 (1): 3</text>
</a>
</g>
</g>
<!-- 14&#45;&gt;27 -->
<g id="edge25" class="edge"><title>14&#45;&gt;27</title>
<path fill="none" stroke="black" d="M963.956,-434.834C988.447,-423.556 1022.79,-407.738 1048.68,-395.817"/>
<polygon fill="black" stroke="black" points="1050.18,-398.979 1057.8,-391.617 1047.25,-392.621 1050.18,-398.979"/>
</g>
<!-- 28 -->
<g id="node29" class="node"><title>28</title>
<g id="a_node29"><a xlink:title="28, diversity: 1, multiplicities: 2, labels: 2">
<ellipse fill="#fee3d6" stroke="black" cx="1187.2" cy="-378" rx="41.6928" ry="18"/>
<text text-anchor="middle" x="1187.2" y="-374.3" font-family="Times,serif" font-size="14.00">28 (1): 2</text>
</a>
</g>
</g>
<!-- 14&#45;&gt;28 -->
<g id="edge33" class="edge"><title>14&#45;&gt;28</title>
<path fill="none" stroke="black" d="M976.196,-438.653C1017.44,-428.521 1081.37,-412.274 1136.2,-396 1139.37,-395.057 1142.65,-394.049 1145.94,-393.011"/>
<polygon fill="black" stroke="black" points="1147.3,-396.249 1155.74,-389.848 1145.15,-389.587 1147.3,-396.249"/>
</g>
<!-- 29 -->
<g id="node30" class="node"><title>29</title>
<g id="a_node30"><a xlink:title="29, diversity: 1, multiplicities: 1, labels: 2">
<ellipse fill="#fff5f0" stroke="black" cx="1290.2" cy="-378" rx="41.6928" ry="18"/>
<text text-anchor="middle" x="1290.2" y="-374.3" font-family="Times,serif" font-size="14.00">29 (1): 2</text>
</a>
</g>
</g>
<!-- 14&#45;&gt;29 -->
<g id="edge50" class="edge"><title>14&#45;&gt;29</title>
<path fill="none" stroke="black" d="M983.583,-442.511C1044.44,-434.155 1149.67,-418.041 1238.2,-396 1241.82,-395.098 1245.56,-394.072 1249.29,-392.982"/>
<polygon fill="black" stroke="black" points="1250.53,-396.262 1259.06,-389.985 1248.47,-389.57 1250.53,-396.262"/>
</g>
<!-- 31 -->
<g id="node32" class="node"><title>31</title>
<g id="a_node32"><a xlink:title="31, diversity: 1, multiplicities: 1, labels: 3">
<ellipse fill="#fff5f0" stroke="black" cx="1395.2" cy="-378" rx="41.6928" ry="18"/>
<text text-anchor="middle" x="1395.2" y="-374.3" font-family="Times,serif" font-size="14.00">31 (1): 3</text>
</a>
</g>
</g>
<!-- 14&#45;&gt;31 -->
<g id="edge16" class="edge"><title>14&#45;&gt;31</title>
<path fill="none" stroke="black" d="M986.525,-445.082C1064.94,-438.645 1215.64,-423.692 1341.2,-396 1345.35,-395.083 1349.65,-393.99 1353.92,-392.806"/>
<polygon fill="black" stroke="black" points="1355.14,-396.095 1363.75,-389.92 1353.17,-389.378 1355.14,-396.095"/>
</g>
<!-- 34 -->
<g id="node35" class="node"><title>34</title>
<g id="a_node35"><a xlink:title="34, diversity: 1, multiplicities: 3, labels: 3">
<ellipse fill="#fee3d6" stroke="black" cx="1504.2" cy="-378" rx="41.6928" ry="18"/>
<text text-anchor="middle" x="1504.2" y="-374.3" font-family="Times,serif" font-size="14.00">34 (1): 3</text>
</a>
</g>
</g>
<!-- 14&#45;&gt;34 -->
<g id="edge30" class="edge"><title>14&#45;&gt;34</title>
<path fill="none" stroke="black" d="M987.592,-446.638C1081.79,-441.826 1281.03,-428.457 1446.2,-396 1451.34,-394.989 1456.69,-393.725 1461.96,-392.345"/>
<polygon fill="black" stroke="black" points="1463.23,-395.625 1471.94,-389.585 1461.37,-388.878 1463.23,-395.625"/>
</g>
<!-- 39 -->
<g id="node40" class="node"><title>39</title>
<g id="a_node40"><a xlink:title="39, diversity: 1, multiplicities: 1, labels: 2">
<ellipse fill="#fff5f0" stroke="black" cx="1621.2" cy="-378" rx="41.6928" ry="18"/>
<text text-anchor="middle" x="1621.2" y="-374.3" font-family="Times,serif" font-size="14.00">39 (1): 2</text>
</a>
</g>
</g>
<!-- 14&#45;&gt;39 -->
<g id="edge38" class="edge"><title>14&#45;&gt;39</title>
<path fill="none" stroke="black" d="M988.081,-447.401C1096.95,-443.552 1347.66,-431.316 1555.2,-396 1562.49,-394.758 1570.17,-393.108 1577.59,-391.323"/>
<polygon fill="black" stroke="black" points="1578.67,-394.662 1587.51,-388.832 1576.96,-387.873 1578.67,-394.662"/>
</g>
<!-- 49 -->
<g id="node50" class="node"><title>49</title>
<g id="a_node50"><a xlink:title="49, diversity: 1, multiplicities: 1, labels: 3">
<ellipse fill="#fff5f0" stroke="black" cx="1753.2" cy="-378" rx="41.6928" ry="18"/>
<text text-anchor="middle" x="1753.2" y="-374.3" font-family="Times,serif" font-size="14.00">49 (1): 3</text>
</a>
</g>
</g>
<!-- 14&#45;&gt;49 -->
<g id="edge53" class="edge"><title>14&#45;&gt;49</title>
<path fill="none" stroke="black" d="M988.161,-447.599C1111.22,-443.907 1418.07,-431.614 1672.2,-396 1683.75,-394.38 1696.13,-392.078 1707.64,-389.688"/>
<polygon fill="black" stroke="black" points="1708.45,-393.095 1717.49,-387.581 1706.98,-386.25 1708.45,-393.095"/>
</g>
<!-- 55 -->
<g id="node56" class="node"><title>55</title>
<g id="a_node56"><a xlink:title="55, diversity: 2, multiplicities: 7,19, labels: 3">
<ellipse fill="#fca082" stroke="black" cx="1909.2" cy="-378" rx="41.6928" ry="18"/>
<text text-anchor="middle" x="1909.2" y="-374.3" font-family="Times,serif" font-size="14.00">55 (2): 3</text>
</a>
</g>
</g>
<!-- 14&#45;&gt;55 -->
<g id="edge10" class="edge"><title>14&#45;&gt;55</title>
<path fill="none" stroke="black" d="M988.135,-447.559C1125.86,-443.535 1496.85,-430.145 1804.2,-396 1823,-393.911 1843.57,-390.771 1861.49,-387.756"/>
<polygon fill="black" stroke="black" points="1862.15,-391.193 1871.41,-386.052 1860.96,-384.294 1862.15,-391.193"/>
</g>
<!-- 17 -->
<g id="node18" class="node"><title>17</title>
<g id="a_node18"><a xlink:title="17, diversity: 1, multiplicities: 7, labels: 2">
<ellipse fill="#fcc4ad" stroke="black" cx="249.196" cy="-306" rx="41.6928" ry="18"/>
<text text-anchor="middle" x="249.196" y="-302.3" font-family="Times,serif" font-size="14.00">17 (1): 2</text>
</a>
</g>
</g>
<!-- 15&#45;&gt;17 -->
<g id="edge51" class="edge"><title>15&#45;&gt;17</title>
<path fill="none" stroke="black" d="M249.196,-359.697C249.196,-351.983 249.196,-342.712 249.196,-334.112"/>
<polygon fill="black" stroke="black" points="252.696,-334.104 249.196,-324.104 245.696,-334.104 252.696,-334.104"/>
</g>
<!-- 44 -->
<g id="node45" class="node"><title>44</title>
<g id="a_node45"><a xlink:title="44, diversity: 1, multiplicities: 10, labels: 3">
<ellipse fill="#fcc4ad" stroke="black" cx="354.196" cy="-306" rx="41.6928" ry="18"/>
<text text-anchor="middle" x="354.196" y="-302.3" font-family="Times,serif" font-size="14.00">44 (1): 3</text>
</a>
</g>
</g>
<!-- 18&#45;&gt;44 -->
<g id="edge3" class="edge"><title>18&#45;&gt;44</title>
<path fill="none" stroke="black" d="M442.734,-362.834C426.293,-352.466 403.77,-338.263 385.556,-326.777"/>
<polygon fill="black" stroke="black" points="387.332,-323.758 377.006,-321.385 383.598,-329.679 387.332,-323.758"/>
</g>
<!-- 19&#45;&gt;5 -->
<g id="edge57" class="edge"><title>19&#45;&gt;5</title>
<path fill="none" stroke="black" d="M542.924,-362.834C525.473,-352.212 501.409,-337.565 482.307,-325.937"/>
<polygon fill="black" stroke="black" points="484.013,-322.878 473.651,-320.668 480.373,-328.857 484.013,-322.878"/>
</g>
<!-- 25 -->
<g id="node26" class="node"><title>25</title>
<g id="a_node26"><a xlink:title="25, diversity: 1, multiplicities: 7, labels: 3">
<ellipse fill="#fcc4ad" stroke="black" cx="548.196" cy="-306" rx="41.6928" ry="18"/>
<text text-anchor="middle" x="548.196" y="-302.3" font-family="Times,serif" font-size="14.00">25 (1): 3</text>
</a>
</g>
</g>
<!-- 19&#45;&gt;25 -->
<g id="edge27" class="edge"><title>19&#45;&gt;25</title>
<path fill="none" stroke="black" d="M561.839,-360.055C559.835,-352.261 557.407,-342.822 555.159,-334.079"/>
<polygon fill="black" stroke="black" points="558.519,-333.089 552.638,-324.275 551.739,-334.832 558.519,-333.089"/>
</g>
<!-- 20 -->
<g id="node21" class="node"><title>20</title>
<g id="a_node21"><a xlink:title="20, diversity: 1, multiplicities: 12, labels: 3">
<ellipse fill="#fca082" stroke="black" cx="958.196" cy="-306" rx="41.6928" ry="18"/>
<text text-anchor="middle" x="958.196" y="-302.3" font-family="Times,serif" font-size="14.00">20 (1): 3</text>
</a>
</g>
</g>
<!-- 42 -->
<g id="node43" class="node"><title>42</title>
<g id="a_node43"><a xlink:title="42, diversity: 1, multiplicities: 12, labels: 3,2">
<ellipse fill="#fca082" stroke="black" cx="656.196" cy="-306" rx="48.1917" ry="18"/>
<text text-anchor="middle" x="656.196" y="-302.3" font-family="Times,serif" font-size="14.00">42 (1): 3,2</text>
</a>
</g>
</g>
<!-- 21&#45;&gt;42 -->
<g id="edge9" class="edge"><title>21&#45;&gt;42</title>
<path fill="none" stroke="black" d="M664.477,-359.697C663.265,-351.983 661.808,-342.712 660.457,-334.112"/>
<polygon fill="black" stroke="black" points="663.894,-333.44 658.884,-324.104 656.979,-334.526 663.894,-333.44"/>
</g>
<!-- 59 -->
<g id="node60" class="node"><title>59</title>
<g id="a_node60"><a xlink:title="59, diversity: 1, multiplicities: 1, labels: 3">
<ellipse fill="#fff5f0" stroke="black" cx="764.196" cy="-306" rx="41.6928" ry="18"/>
<text text-anchor="middle" x="764.196" y="-302.3" font-family="Times,serif" font-size="14.00">59 (1): 3</text>
</a>
</g>
</g>
<!-- 22&#45;&gt;59 -->
<g id="edge26" class="edge"><title>22&#45;&gt;59</title>
<path fill="none" stroke="black" d="M772.477,-359.697C771.265,-351.983 769.808,-342.712 768.457,-334.112"/>
<polygon fill="black" stroke="black" points="771.894,-333.44 766.884,-324.104 764.979,-334.526 771.894,-333.44"/>
</g>
<!-- 23 -->
<g id="node24" class="node"><title>23</title>
<g id="a_node24"><a xlink:title="23, diversity: 1, multiplicities: 17, labels: 3">
<ellipse fill="#fca082" stroke="black" cx="1059.2" cy="-306" rx="41.6928" ry="18"/>
<text text-anchor="middle" x="1059.2" y="-302.3" font-family="Times,serif" font-size="14.00">23 (1): 3</text>
</a>
</g>
</g>
<!-- 26&#45;&gt;7 -->
<g id="edge29" class="edge"><title>26&#45;&gt;7</title>
<path fill="none" stroke="black" d="M959.895,-363.17C940.867,-352.341 914.23,-337.182 893.423,-325.34"/>
<polygon fill="black" stroke="black" points="895.034,-322.23 884.612,-320.326 891.572,-328.314 895.034,-322.23"/>
</g>
<!-- 26&#45;&gt;20 -->
<g id="edge17" class="edge"><title>26&#45;&gt;20</title>
<path fill="none" stroke="black" d="M977.902,-360.055C974.976,-352.176 971.425,-342.617 968.148,-333.794"/>
<polygon fill="black" stroke="black" points="971.376,-332.431 964.613,-324.275 964.814,-334.868 971.376,-332.431"/>
</g>
<!-- 27&#45;&gt;23 -->
<g id="edge4" class="edge"><title>27&#45;&gt;23</title>
<path fill="none" stroke="black" d="M1078.9,-360.055C1075.98,-352.176 1072.43,-342.617 1069.15,-333.794"/>
<polygon fill="black" stroke="black" points="1072.38,-332.431 1065.61,-324.275 1065.81,-334.868 1072.38,-332.431"/>
</g>
<!-- 30 -->
<g id="node31" class="node"><title>30</title>
<g id="a_node31"><a xlink:title="30, diversity: 2, multiplicities: 14,112, labels: 3">
<ellipse fill="#fb7c5c" stroke="black" cx="1160.2" cy="-306" rx="41.6928" ry="18"/>
<text text-anchor="middle" x="1160.2" y="-302.3" font-family="Times,serif" font-size="14.00">30 (2): 3</text>
</a>
</g>
</g>
<!-- 27&#45;&gt;30 -->
<g id="edge41" class="edge"><title>27&#45;&gt;30</title>
<path fill="none" stroke="black" d="M1101.84,-361.465C1111.87,-352.105 1124.82,-340.022 1135.96,-329.616"/>
<polygon fill="black" stroke="black" points="1138.42,-332.116 1143.34,-322.734 1133.64,-326.998 1138.42,-332.116"/>
</g>
<!-- 61 -->
<g id="node62" class="node"><title>61</title>
<g id="a_node62"><a xlink:title="61, diversity: 1, multiplicities: 5, labels: 3">
<ellipse fill="#fee3d6" stroke="black" cx="1261.2" cy="-306" rx="41.6928" ry="18"/>
<text text-anchor="middle" x="1261.2" y="-302.3" font-family="Times,serif" font-size="14.00">61 (1): 3</text>
</a>
</g>
</g>
<!-- 28&#45;&gt;61 -->
<g id="edge56" class="edge"><title>28&#45;&gt;61</title>
<path fill="none" stroke="black" d="M1203.99,-361.116C1213.8,-351.833 1226.35,-339.961 1237.2,-329.704"/>
<polygon fill="black" stroke="black" points="1239.87,-331.995 1244.73,-322.58 1235.06,-326.909 1239.87,-331.995"/>
</g>
<!-- 51 -->
<g id="node52" class="node"><title>51</title>
<g id="a_node52"><a xlink:title="51, diversity: 1, multiplicities: 16, labels: 3">
<ellipse fill="#fca082" stroke="black" cx="1362.2" cy="-306" rx="41.6928" ry="18"/>
<text text-anchor="middle" x="1362.2" y="-302.3" font-family="Times,serif" font-size="14.00">51 (1): 3</text>
</a>
</g>
</g>
<!-- 29&#45;&gt;51 -->
<g id="edge55" class="edge"><title>29&#45;&gt;51</title>
<path fill="none" stroke="black" d="M1306.53,-361.116C1316.02,-351.897 1328.12,-340.127 1338.62,-329.919"/>
<polygon fill="black" stroke="black" points="1341.19,-332.302 1345.92,-322.821 1336.31,-327.283 1341.19,-332.302"/>
</g>
<!-- 31&#45;&gt;4 -->
<g id="edge22" class="edge"><title>31&#45;&gt;4</title>
<path fill="none" stroke="black" d="M1409.72,-361.116C1418.07,-351.987 1428.7,-340.355 1437.97,-330.217"/>
<polygon fill="black" stroke="black" points="1440.57,-332.563 1444.73,-322.821 1435.4,-327.84 1440.57,-332.563"/>
</g>
<!-- 32 -->
<g id="node33" class="node"><title>32</title>
<g id="a_node33"><a xlink:title="32, diversity: 1, multiplicities: 273, labels: 1,3,2">
<ellipse fill="#f6553c" stroke="black" cx="1582.2" cy="-90" rx="55.4913" ry="18"/>
<text text-anchor="middle" x="1582.2" y="-86.3" font-family="Times,serif" font-size="14.00">32 (1): 1,3,2</text>
</a>
</g>
</g>
<!-- 33 -->
<g id="node34" class="node"><title>33</title>
<g id="a_node34"><a xlink:title="33, diversity: 1, multiplicities: 1, labels: 3">
<ellipse fill="#fff5f0" stroke="black" cx="1556.2" cy="-306" rx="41.6928" ry="18"/>
<text text-anchor="middle" x="1556.2" y="-302.3" font-family="Times,serif" font-size="14.00">33 (1): 3</text>
</a>
</g>
</g>
<!-- 53 -->
<g id="node54" class="node"><title>53</title>
<g id="a_node54"><a xlink:title="53, diversity: 1, multiplicities: 2, labels: 3">
<ellipse fill="#fee3d6" stroke="black" cx="1574.2" cy="-234" rx="41.6928" ry="18"/>
<text text-anchor="middle" x="1574.2" y="-230.3" font-family="Times,serif" font-size="14.00">53 (1): 3</text>
</a>
</g>
</g>
<!-- 33&#45;&gt;53 -->
<g id="edge23" class="edge"><title>33&#45;&gt;53</title>
<path fill="none" stroke="black" d="M1560.55,-288.055C1562.56,-280.261 1564.98,-270.822 1567.23,-262.079"/>
<polygon fill="black" stroke="black" points="1570.65,-262.832 1569.75,-252.275 1563.87,-261.089 1570.65,-262.832"/>
</g>
<!-- 34&#45;&gt;33 -->
<g id="edge40" class="edge"><title>34&#45;&gt;33</title>
<path fill="none" stroke="black" d="M1516.26,-360.765C1522.66,-352.143 1530.67,-341.365 1537.83,-331.727"/>
<polygon fill="black" stroke="black" points="1540.69,-333.748 1543.84,-323.633 1535.07,-329.574 1540.69,-333.748"/>
</g>
<!-- 35 -->
<g id="node36" class="node"><title>35</title>
<g id="a_node36"><a xlink:title="35, diversity: 3, multiplicities: 7,11,48, labels: 1,3,2">
<ellipse fill="#fca082" stroke="black" cx="1366.2" cy="-162" rx="55.4913" ry="18"/>
<text text-anchor="middle" x="1366.2" y="-158.3" font-family="Times,serif" font-size="14.00">35 (3): 1,3,2</text>
</a>
</g>
</g>
<!-- 36 -->
<g id="node37" class="node"><title>36</title>
<g id="a_node37"><a xlink:title="36, diversity: 1, multiplicities: 7, labels: 3">
<ellipse fill="#fcc4ad" stroke="black" cx="1063.2" cy="-234" rx="41.6928" ry="18"/>
<text text-anchor="middle" x="1063.2" y="-230.3" font-family="Times,serif" font-size="14.00">36 (1): 3</text>
</a>
</g>
</g>
<!-- 37 -->
<g id="node38" class="node"><title>37</title>
<g id="a_node38"><a xlink:title="37, diversity: 1, multiplicities: 38, labels: 3,2">
<ellipse fill="#fca082" stroke="black" cx="1153.2" cy="-162" rx="48.1917" ry="18"/>
<text text-anchor="middle" x="1153.2" y="-158.3" font-family="Times,serif" font-size="14.00">37 (1): 3,2</text>
</a>
</g>
</g>
<!-- 38 -->
<g id="node39" class="node"><title>38</title>
<g id="a_node39"><a xlink:title="38, diversity: 2, multiplicities: 5,5, labels: 3">
<ellipse fill="#fcc4ad" stroke="black" cx="1164.2" cy="-234" rx="41.6928" ry="18"/>
<text text-anchor="middle" x="1164.2" y="-230.3" font-family="Times,serif" font-size="14.00">38 (2): 3</text>
</a>
</g>
</g>
<!-- 38&#45;&gt;37 -->
<g id="edge28" class="edge"><title>38&#45;&gt;37</title>
<path fill="none" stroke="black" d="M1161.48,-215.697C1160.26,-207.983 1158.81,-198.712 1157.46,-190.112"/>
<polygon fill="black" stroke="black" points="1160.89,-189.44 1155.88,-180.104 1153.98,-190.526 1160.89,-189.44"/>
</g>
<!-- 46 -->
<g id="node47" class="node"><title>46</title>
<g id="a_node47"><a xlink:title="46, diversity: 1, multiplicities: 7, labels: 2">
<ellipse fill="#fcc4ad" stroke="black" cx="1657.2" cy="-306" rx="41.6928" ry="18"/>
<text text-anchor="middle" x="1657.2" y="-302.3" font-family="Times,serif" font-size="14.00">46 (1): 2</text>
</a>
</g>
</g>
<!-- 39&#45;&gt;46 -->
<g id="edge2" class="edge"><title>39&#45;&gt;46</title>
<path fill="none" stroke="black" d="M1629.91,-360.055C1634.11,-351.887 1639.24,-341.912 1643.91,-332.824"/>
<polygon fill="black" stroke="black" points="1647.1,-334.283 1648.56,-323.789 1640.88,-331.081 1647.1,-334.283"/>
</g>
<!-- 40 -->
<g id="node41" class="node"><title>40</title>
<g id="a_node41"><a xlink:title="40, diversity: 2, multiplicities: 1,23, labels: 2">
<ellipse fill="#fca082" stroke="black" cx="1265.2" cy="-234" rx="41.6928" ry="18"/>
<text text-anchor="middle" x="1265.2" y="-230.3" font-family="Times,serif" font-size="14.00">40 (2): 2</text>
</a>
</g>
</g>
<!-- 40&#45;&gt;6 -->
<g id="edge47" class="edge"><title>40&#45;&gt;6</title>
<path fill="none" stroke="black" d="M1262.97,-215.697C1261.98,-207.983 1260.79,-198.712 1259.68,-190.112"/>
<polygon fill="black" stroke="black" points="1263.14,-189.576 1258.4,-180.104 1256.2,-190.469 1263.14,-189.576"/>
</g>
<!-- 41 -->
<g id="node42" class="node"><title>41</title>
<g id="a_node42"><a xlink:title="41, diversity: 1, multiplicities: 1, labels: 2">
<ellipse fill="#fff5f0" stroke="black" cx="656.196" cy="-234" rx="41.6928" ry="18"/>
<text text-anchor="middle" x="656.196" y="-230.3" font-family="Times,serif" font-size="14.00">41 (1): 2</text>
</a>
</g>
</g>
<!-- 63 -->
<g id="node64" class="node"><title>63</title>
<g id="a_node64"><a xlink:title="63, diversity: 1, multiplicities: 22, labels: 2">
<ellipse fill="#fca082" stroke="black" cx="656.196" cy="-162" rx="41.6928" ry="18"/>
<text text-anchor="middle" x="656.196" y="-158.3" font-family="Times,serif" font-size="14.00">63 (1): 2</text>
</a>
</g>
</g>
<!-- 41&#45;&gt;63 -->
<g id="edge46" class="edge"><title>41&#45;&gt;63</title>
<path fill="none" stroke="black" d="M656.196,-215.697C656.196,-207.983 656.196,-198.712 656.196,-190.112"/>
<polygon fill="black" stroke="black" points="659.696,-190.104 656.196,-180.104 652.696,-190.104 659.696,-190.104"/>
</g>
<!-- 42&#45;&gt;41 -->
<g id="edge61" class="edge"><title>42&#45;&gt;41</title>
<path fill="none" stroke="black" d="M656.196,-287.697C656.196,-279.983 656.196,-270.712 656.196,-262.112"/>
<polygon fill="black" stroke="black" points="659.696,-262.104 656.196,-252.104 652.696,-262.104 659.696,-262.104"/>
</g>
<!-- 43 -->
<g id="node44" class="node"><title>43</title>
<g id="a_node44"><a xlink:title="43, diversity: 1, multiplicities: 39, labels: 3,2">
<ellipse fill="#fca082" stroke="black" cx="354.196" cy="-162" rx="48.1917" ry="18"/>
<text text-anchor="middle" x="354.196" y="-158.3" font-family="Times,serif" font-size="14.00">43 (1): 3,2</text>
</a>
</g>
</g>
<!-- 45 -->
<g id="node46" class="node"><title>45</title>
<g id="a_node46"><a xlink:title="45, diversity: 1, multiplicities: 1, labels: 3">
<ellipse fill="#fff5f0" stroke="black" cx="354.196" cy="-234" rx="41.6928" ry="18"/>
<text text-anchor="middle" x="354.196" y="-230.3" font-family="Times,serif" font-size="14.00">45 (1): 3</text>
</a>
</g>
</g>
<!-- 44&#45;&gt;45 -->
<g id="edge19" class="edge"><title>44&#45;&gt;45</title>
<path fill="none" stroke="black" d="M354.196,-287.697C354.196,-279.983 354.196,-270.712 354.196,-262.112"/>
<polygon fill="black" stroke="black" points="357.696,-262.104 354.196,-252.104 350.696,-262.104 357.696,-262.104"/>
</g>
<!-- 45&#45;&gt;43 -->
<g id="edge63" class="edge"><title>45&#45;&gt;43</title>
<path fill="none" stroke="black" d="M354.196,-215.697C354.196,-207.983 354.196,-198.712 354.196,-190.112"/>
<polygon fill="black" stroke="black" points="357.696,-190.104 354.196,-180.104 350.696,-190.104 357.696,-190.104"/>
</g>
<!-- 47 -->
<g id="node48" class="node"><title>47</title>
<g id="a_node48"><a xlink:title="47, diversity: 1, multiplicities: 21, labels: 3,2">
<ellipse fill="#fca082" stroke="black" cx="1758.2" cy="-234" rx="48.1917" ry="18"/>
<text text-anchor="middle" x="1758.2" y="-230.3" font-family="Times,serif" font-size="14.00">47 (1): 3,2</text>
</a>
</g>
</g>
<!-- 48 -->
<g id="node49" class="node"><title>48</title>
<g id="a_node49"><a xlink:title="48, diversity: 1, multiplicities: 1, labels: 3">
<ellipse fill="#fff5f0" stroke="black" cx="1758.2" cy="-306" rx="41.6928" ry="18"/>
<text text-anchor="middle" x="1758.2" y="-302.3" font-family="Times,serif" font-size="14.00">48 (1): 3</text>
</a>
</g>
</g>
<!-- 48&#45;&gt;47 -->
<g id="edge36" class="edge"><title>48&#45;&gt;47</title>
<path fill="none" stroke="black" d="M1758.2,-287.697C1758.2,-279.983 1758.2,-270.712 1758.2,-262.112"/>
<polygon fill="black" stroke="black" points="1761.7,-262.104 1758.2,-252.104 1754.7,-262.104 1761.7,-262.104"/>
</g>
<!-- 49&#45;&gt;48 -->
<g id="edge48" class="edge"><title>49&#45;&gt;48</title>
<path fill="none" stroke="black" d="M1754.43,-359.697C1754.98,-351.983 1755.65,-342.712 1756.26,-334.112"/>
<polygon fill="black" stroke="black" points="1759.75,-334.328 1756.97,-324.104 1752.77,-333.83 1759.75,-334.328"/>
</g>
<!-- 50 -->
<g id="node51" class="node"><title>50</title>
<g id="a_node51"><a xlink:title="50, diversity: 1, multiplicities: 5, labels: 3">
<ellipse fill="#fee3d6" stroke="black" cx="1366.2" cy="-234" rx="41.6928" ry="18"/>
<text text-anchor="middle" x="1366.2" y="-230.3" font-family="Times,serif" font-size="14.00">50 (1): 3</text>
</a>
</g>
</g>
<!-- 50&#45;&gt;35 -->
<g id="edge43" class="edge"><title>50&#45;&gt;35</title>
<path fill="none" stroke="black" d="M1366.2,-215.697C1366.2,-207.983 1366.2,-198.712 1366.2,-190.112"/>
<polygon fill="black" stroke="black" points="1369.7,-190.104 1366.2,-180.104 1362.7,-190.104 1369.7,-190.104"/>
</g>
<!-- 51&#45;&gt;36 -->
<g id="edge6" class="edge"><title>51&#45;&gt;36</title>
<path fill="none" stroke="black" d="M1331.47,-293.754C1325.15,-291.666 1318.5,-289.632 1312.2,-288 1225.19,-265.471 1200.21,-274.529 1113.2,-252 1110.05,-251.184 1106.81,-250.268 1103.57,-249.294"/>
<polygon fill="black" stroke="black" points="1104.51,-245.922 1093.92,-246.246 1102.4,-252.596 1104.51,-245.922"/>
</g>
<!-- 51&#45;&gt;38 -->
<g id="edge7" class="edge"><title>51&#45;&gt;38</title>
<path fill="none" stroke="black" d="M1330.82,-293.908C1296.79,-281.876 1242.33,-262.623 1204.99,-249.424"/>
<polygon fill="black" stroke="black" points="1206.02,-246.073 1195.42,-246.04 1203.68,-252.673 1206.02,-246.073"/>
</g>
<!-- 51&#45;&gt;40 -->
<g id="edge1" class="edge"><title>51&#45;&gt;40</title>
<path fill="none" stroke="black" d="M1341.62,-290.155C1327.74,-280.132 1309.21,-266.763 1293.88,-255.698"/>
<polygon fill="black" stroke="black" points="1295.89,-252.838 1285.74,-249.824 1291.8,-258.514 1295.89,-252.838"/>
</g>
<!-- 51&#45;&gt;50 -->
<g id="edge14" class="edge"><title>51&#45;&gt;50</title>
<path fill="none" stroke="black" d="M1363.18,-287.697C1363.63,-279.983 1364.16,-270.712 1364.65,-262.112"/>
<polygon fill="black" stroke="black" points="1368.14,-262.288 1365.22,-252.104 1361.15,-261.888 1368.14,-262.288"/>
</g>
<!-- 52 -->
<g id="node53" class="node"><title>52</title>
<g id="a_node53"><a xlink:title="52, diversity: 1, multiplicities: 1, labels: 3">
<ellipse fill="#fff5f0" stroke="black" cx="1582.2" cy="-162" rx="41.6928" ry="18"/>
<text text-anchor="middle" x="1582.2" y="-158.3" font-family="Times,serif" font-size="14.00">52 (1): 3</text>
</a>
</g>
</g>
<!-- 52&#45;&gt;32 -->
<g id="edge24" class="edge"><title>52&#45;&gt;32</title>
<path fill="none" stroke="black" d="M1582.2,-143.697C1582.2,-135.983 1582.2,-126.712 1582.2,-118.112"/>
<polygon fill="black" stroke="black" points="1585.7,-118.104 1582.2,-108.104 1578.7,-118.104 1585.7,-118.104"/>
</g>
<!-- 53&#45;&gt;52 -->
<g id="edge11" class="edge"><title>53&#45;&gt;52</title>
<path fill="none" stroke="black" d="M1576.17,-215.697C1577.06,-207.983 1578.11,-198.712 1579.1,-190.112"/>
<polygon fill="black" stroke="black" points="1582.58,-190.437 1580.24,-180.104 1575.63,-189.642 1582.58,-190.437"/>
</g>
<!-- 54 -->
<g id="node55" class="node"><title>54</title>
<g id="a_node55"><a xlink:title="54, diversity: 1, multiplicities: 20, labels: 3">
<ellipse fill="#fca082" stroke="black" cx="1859.2" cy="-306" rx="41.6928" ry="18"/>
<text text-anchor="middle" x="1859.2" y="-302.3" font-family="Times,serif" font-size="14.00">54 (1): 3</text>
</a>
</g>
</g>
<!-- 55&#45;&gt;54 -->
<g id="edge5" class="edge"><title>55&#45;&gt;54</title>
<path fill="none" stroke="black" d="M1897.35,-360.411C1891.24,-351.868 1883.68,-341.278 1876.9,-331.787"/>
<polygon fill="black" stroke="black" points="1879.62,-329.573 1870.96,-323.47 1873.92,-333.642 1879.62,-329.573"/>
</g>
<!-- 56 -->
<g id="node57" class="node"><title>56</title>
<g id="a_node57"><a xlink:title="56, diversity: 1, multiplicities: 18, labels: 3">
<ellipse fill="#fca082" stroke="black" cx="1960.2" cy="-306" rx="41.6928" ry="18"/>
<text text-anchor="middle" x="1960.2" y="-302.3" font-family="Times,serif" font-size="14.00">56 (1): 3</text>
</a>
</g>
</g>
<!-- 55&#45;&gt;56 -->
<g id="edge49" class="edge"><title>55&#45;&gt;56</title>
<path fill="none" stroke="black" d="M1921.28,-360.411C1927.51,-351.868 1935.22,-341.278 1942.14,-331.787"/>
<polygon fill="black" stroke="black" points="1945.14,-333.613 1948.2,-323.47 1939.48,-329.491 1945.14,-333.613"/>
</g>
<!-- 57 -->
<g id="node58" class="node"><title>57</title>
<g id="a_node58"><a xlink:title="57, diversity: 1, multiplicities: 12, labels: 3">
<ellipse fill="#fca082" stroke="black" cx="2061.2" cy="-306" rx="41.6928" ry="18"/>
<text text-anchor="middle" x="2061.2" y="-302.3" font-family="Times,serif" font-size="14.00">57 (1): 3</text>
</a>
</g>
</g>
<!-- 55&#45;&gt;57 -->
<g id="edge59" class="edge"><title>55&#45;&gt;57</title>
<path fill="none" stroke="black" d="M1936.72,-364.324C1961.36,-352.975 1997.68,-336.253 2024.73,-323.795"/>
<polygon fill="black" stroke="black" points="2026.26,-326.944 2033.87,-319.582 2023.33,-320.586 2026.26,-326.944"/>
</g>
<!-- 58 -->
<g id="node59" class="node"><title>58</title>
<g id="a_node59"><a xlink:title="58, diversity: 1, multiplicities: 18, labels: 3">
<ellipse fill="#fca082" stroke="black" cx="764.196" cy="-234" rx="41.6928" ry="18"/>
<text text-anchor="middle" x="764.196" y="-230.3" font-family="Times,serif" font-size="14.00">58 (1): 3</text>
</a>
</g>
</g>
<!-- 59&#45;&gt;58 -->
<g id="edge34" class="edge"><title>59&#45;&gt;58</title>
<path fill="none" stroke="black" d="M764.196,-287.697C764.196,-279.983 764.196,-270.712 764.196,-262.112"/>
<polygon fill="black" stroke="black" points="767.696,-262.104 764.196,-252.104 760.696,-262.104 767.696,-262.104"/>
</g>
</g>
</svg>
