<?xml version="1.0" encoding="UTF-8" standalone="no"?>
<!DOCTYPE svg PUBLIC "-//W3C//DTD SVG 1.1//EN"
 "http://www.w3.org/Graphics/SVG/1.1/DTD/svg11.dtd">
<!-- Generated by graphviz version 2.40.1 (20161225.0304)
 -->
<!-- Title: %3 Pages: 1 -->
<svg width="746pt" height="836pt"
 viewBox="0.00 0.00 746.00 836.00" xmlns="http://www.w3.org/2000/svg" xmlns:xlink="http://www.w3.org/1999/xlink">
<g id="graph0" class="graph" transform="scale(1 1) rotate(0) translate(4 832)">
<title>%3</title>
<polygon fill="#ffffff" stroke="transparent" points="-4,4 -4,-832 742,-832 742,4 -4,4"/>
<!-- 0 -->
<g id="node1" class="node">
<title>0</title>
<g id="a_node1"><a xlink:title="F">
<ellipse fill="#0054ff" stroke="#000000" stroke-width="0" cx="288" cy="-594" rx="18" ry="18"/>
</a>
</g>
</g>
<!-- 6 -->
<g id="node7" class="node">
<title>6</title>
<g id="a_node7"><a xlink:title="F">
<ellipse fill="#0054ff" stroke="#000000" stroke-width="0" cx="22" cy="-522" rx="18" ry="18"/>
</a>
</g>
</g>
<!-- 0&#45;&gt;6 -->
<g id="edge49" class="edge">
<title>0&#45;&gt;6</title>
<path fill="none" stroke="#000000" d="M270.2932,-589.9475C233.752,-581.4842 147.4273,-560.9716 76,-540 67.1404,-537.3987 57.5543,-534.2984 48.9524,-531.4099"/>
<polygon fill="#000000" stroke="#000000" points="50.0035,-528.0705 39.4091,-528.1589 47.7463,-534.6966 50.0035,-528.0705"/>
</g>
<!-- 11 -->
<g id="node12" class="node">
<title>11</title>
<g id="a_node12"><a xlink:title="F">
<ellipse fill="#0054ff" stroke="#000000" stroke-width="0" cx="103" cy="-522" rx="18" ry="18"/>
</a>
</g>
</g>
<!-- 0&#45;&gt;11 -->
<g id="edge28" class="edge">
<title>0&#45;&gt;11</title>
<path fill="none" stroke="#000000" d="M270.4738,-588.637C241.9998,-579.7241 184.1306,-560.7749 137,-540 133.9442,-538.653 130.7851,-537.1456 127.6796,-535.5917"/>
<polygon fill="#000000" stroke="#000000" points="129.1667,-532.42 118.6808,-530.9049 125.9332,-538.6285 129.1667,-532.42"/>
</g>
<!-- 12 -->
<g id="node13" class="node">
<title>12</title>
<g id="a_node13"><a xlink:title="F">
<ellipse fill="#0054ff" stroke="#000000" stroke-width="0" cx="164" cy="-522" rx="18" ry="18"/>
</a>
</g>
</g>
<!-- 0&#45;&gt;12 -->
<g id="edge36" class="edge">
<title>0&#45;&gt;12</title>
<path fill="none" stroke="#000000" d="M272.2953,-584.8812C251.1453,-572.6005 213.2964,-550.6237 188.416,-536.177"/>
<polygon fill="#000000" stroke="#000000" points="189.9826,-533.0394 179.5772,-531.0448 186.4676,-539.093 189.9826,-533.0394"/>
</g>
<!-- 15 -->
<g id="node16" class="node">
<title>15</title>
<g id="a_node16"><a xlink:title="F">
<ellipse fill="#0054ff" stroke="#000000" stroke-width="0" cx="231" cy="-522" rx="18" ry="18"/>
</a>
</g>
</g>
<!-- 0&#45;&gt;15 -->
<g id="edge19" class="edge">
<title>0&#45;&gt;15</title>
<path fill="none" stroke="#000000" d="M276.7386,-579.7751C268.6975,-569.6179 257.7237,-555.7562 248.5406,-544.1566"/>
<polygon fill="#000000" stroke="#000000" points="251.1892,-541.8633 242.238,-536.1953 245.7009,-546.2083 251.1892,-541.8633"/>
</g>
<!-- 19 -->
<g id="node20" class="node">
<title>19</title>
<g id="a_node20"><a xlink:title="F">
<ellipse fill="#0054ff" stroke="#000000" stroke-width="0" cx="288" cy="-522" rx="18" ry="18"/>
</a>
</g>
</g>
<!-- 0&#45;&gt;19 -->
<g id="edge45" class="edge">
<title>0&#45;&gt;19</title>
<path fill="none" stroke="#000000" d="M288,-575.8314C288,-568.131 288,-558.9743 288,-550.4166"/>
<polygon fill="#000000" stroke="#000000" points="291.5001,-550.4132 288,-540.4133 284.5001,-550.4133 291.5001,-550.4132"/>
</g>
<!-- 21 -->
<g id="node22" class="node">
<title>21</title>
<g id="a_node22"><a xlink:title="F">
<ellipse fill="#0054ff" stroke="#000000" stroke-width="0" cx="369" cy="-522" rx="18" ry="18"/>
</a>
</g>
</g>
<!-- 0&#45;&gt;21 -->
<g id="edge17" class="edge">
<title>0&#45;&gt;21</title>
<path fill="none" stroke="#000000" d="M301.7405,-581.7862C314.3843,-570.5473 333.3262,-553.7101 347.8897,-540.7647"/>
<polygon fill="#000000" stroke="#000000" points="350.3135,-543.2931 355.4624,-534.0334 345.663,-538.0612 350.3135,-543.2931"/>
</g>
<!-- 24 -->
<g id="node25" class="node">
<title>24</title>
<g id="a_node25"><a xlink:title="F">
<ellipse fill="#0054ff" stroke="#000000" stroke-width="0" cx="450" cy="-522" rx="18" ry="18"/>
</a>
</g>
</g>
<!-- 0&#45;&gt;24 -->
<g id="edge24" class="edge">
<title>0&#45;&gt;24</title>
<path fill="none" stroke="#000000" d="M304.7267,-586.5659C332.9807,-574.0086 390.3538,-548.5094 423.9262,-533.5883"/>
<polygon fill="#000000" stroke="#000000" points="425.405,-536.7613 433.1216,-529.5015 422.562,-530.3646 425.405,-536.7613"/>
</g>
<!-- 49 -->
<g id="node50" class="node">
<title>49</title>
<g id="a_node50"><a xlink:title="F">
<ellipse fill="#0054ff" stroke="#000000" stroke-width="0" cx="558" cy="-522" rx="18" ry="18"/>
</a>
</g>
</g>
<!-- 0&#45;&gt;49 -->
<g id="edge8" class="edge">
<title>0&#45;&gt;49</title>
<path fill="none" stroke="#000000" d="M305.7155,-589.2759C351.7859,-576.9904 475.5933,-543.9751 530.7919,-529.2555"/>
<polygon fill="#000000" stroke="#000000" points="531.8098,-532.6064 540.5703,-526.6479 530.0061,-525.8428 531.8098,-532.6064"/>
</g>
<!-- 1 -->
<g id="node2" class="node">
<title>1</title>
<g id="a_node2"><a xlink:title="F">
<ellipse fill="#0054ff" stroke="#000000" stroke-width="0" cx="666" cy="-738" rx="18" ry="18"/>
</a>
</g>
</g>
<!-- 5 -->
<g id="node6" class="node">
<title>5</title>
<g id="a_node6"><a xlink:title="F">
<ellipse fill="#0054ff" stroke="#000000" stroke-width="0" cx="450" cy="-666" rx="18" ry="18"/>
</a>
</g>
</g>
<!-- 1&#45;&gt;5 -->
<g id="edge27" class="edge">
<title>1&#45;&gt;5</title>
<path fill="none" stroke="#000000" d="M648.6889,-732.2296C611.0746,-719.6915 521.6652,-689.8884 476.7374,-674.9125"/>
<polygon fill="#000000" stroke="#000000" points="477.6873,-671.5398 467.0937,-671.6979 475.4737,-678.1806 477.6873,-671.5398"/>
</g>
<!-- 27 -->
<g id="node28" class="node">
<title>27</title>
<g id="a_node28"><a xlink:title="F">
<ellipse fill="#0054ff" stroke="#000000" stroke-width="0" cx="666" cy="-666" rx="18" ry="18"/>
</a>
</g>
</g>
<!-- 1&#45;&gt;27 -->
<g id="edge46" class="edge">
<title>1&#45;&gt;27</title>
<path fill="none" stroke="#000000" d="M666,-719.8314C666,-712.131 666,-702.9743 666,-694.4166"/>
<polygon fill="#000000" stroke="#000000" points="669.5001,-694.4132 666,-684.4133 662.5001,-694.4133 669.5001,-694.4132"/>
</g>
<!-- 28 -->
<g id="node29" class="node">
<title>28</title>
<g id="a_node29"><a xlink:title="F">
<ellipse fill="#0054ff" stroke="#000000" stroke-width="0" cx="720" cy="-666" rx="18" ry="18"/>
</a>
</g>
</g>
<!-- 1&#45;&gt;28 -->
<g id="edge34" class="edge">
<title>1&#45;&gt;28</title>
<path fill="none" stroke="#000000" d="M676.9277,-723.4297C684.3934,-713.4754 694.4368,-700.0842 702.9474,-688.7368"/>
<polygon fill="#000000" stroke="#000000" points="705.8885,-690.6486 709.0885,-680.5486 700.2885,-686.4486 705.8885,-690.6486"/>
</g>
<!-- 2 -->
<g id="node3" class="node">
<title>2</title>
<g id="a_node3"><a xlink:title="F">
<ellipse fill="#0054ff" stroke="#000000" stroke-width="0" cx="720" cy="-594" rx="18" ry="18"/>
</a>
</g>
</g>
<!-- 3 -->
<g id="node4" class="node">
<title>3</title>
<g id="a_node4"><a xlink:title="F">
<ellipse fill="#0054ff" stroke="#000000" stroke-width="0" cx="720" cy="-522" rx="18" ry="18"/>
</a>
</g>
</g>
<!-- 2&#45;&gt;3 -->
<g id="edge38" class="edge">
<title>2&#45;&gt;3</title>
<path fill="none" stroke="#000000" d="M720,-575.8314C720,-568.131 720,-558.9743 720,-550.4166"/>
<polygon fill="#000000" stroke="#000000" points="723.5001,-550.4132 720,-540.4133 716.5001,-550.4133 723.5001,-550.4132"/>
</g>
<!-- 20 -->
<g id="node21" class="node">
<title>20</title>
<g id="a_node21"><a xlink:title="F">
<ellipse fill="#0054ff" stroke="#000000" stroke-width="0" cx="720" cy="-450" rx="18" ry="18"/>
</a>
</g>
</g>
<!-- 3&#45;&gt;20 -->
<g id="edge25" class="edge">
<title>3&#45;&gt;20</title>
<path fill="none" stroke="#000000" d="M720,-503.8314C720,-496.131 720,-486.9743 720,-478.4166"/>
<polygon fill="#000000" stroke="#000000" points="723.5001,-478.4132 720,-468.4133 716.5001,-478.4133 723.5001,-478.4132"/>
</g>
<!-- 4 -->
<g id="node5" class="node">
<title>4</title>
<g id="a_node5"><a xlink:title="F">
<ellipse fill="#0054ff" stroke="#000000" stroke-width="0" cx="18" cy="-450" rx="18" ry="18"/>
</a>
</g>
</g>
<!-- 26 -->
<g id="node27" class="node">
<title>26</title>
<g id="a_node27"><a xlink:title="F">
<ellipse fill="#0054ff" stroke="#000000" stroke-width="0" cx="18" cy="-378" rx="18" ry="18"/>
</a>
</g>
</g>
<!-- 4&#45;&gt;26 -->
<g id="edge10" class="edge">
<title>4&#45;&gt;26</title>
<path fill="none" stroke="#000000" d="M18,-431.8314C18,-424.131 18,-414.9743 18,-406.4166"/>
<polygon fill="#000000" stroke="#000000" points="21.5001,-406.4132 18,-396.4133 14.5001,-406.4133 21.5001,-406.4132"/>
</g>
<!-- 5&#45;&gt;0 -->
<g id="edge29" class="edge">
<title>5&#45;&gt;0</title>
<path fill="none" stroke="#000000" d="M433.2733,-658.5659C405.0193,-646.0086 347.6462,-620.5094 314.0738,-605.5883"/>
<polygon fill="#000000" stroke="#000000" points="315.438,-602.3646 304.8784,-601.5015 312.595,-608.7613 315.438,-602.3646"/>
</g>
<!-- 6&#45;&gt;4 -->
<g id="edge33" class="edge">
<title>6&#45;&gt;4</title>
<path fill="none" stroke="#000000" d="M20.9906,-503.8314C20.5628,-496.131 20.0541,-486.9743 19.5787,-478.4166"/>
<polygon fill="#000000" stroke="#000000" points="23.0724,-478.2037 19.023,-468.4133 16.0831,-478.592 23.0724,-478.2037"/>
</g>
<!-- 7 -->
<g id="node8" class="node">
<title>7</title>
<g id="a_node8"><a xlink:title="F">
<ellipse fill="#0054ff" stroke="#000000" stroke-width="0" cx="450" cy="-450" rx="18" ry="18"/>
</a>
</g>
</g>
<!-- 8 -->
<g id="node9" class="node">
<title>8</title>
<g id="a_node9"><a xlink:title="F">
<ellipse fill="#0054ff" stroke="#000000" stroke-width="0" cx="720" cy="-738" rx="18" ry="18"/>
</a>
</g>
</g>
<!-- 9 -->
<g id="node10" class="node">
<title>9</title>
<g id="a_node10"><a xlink:title="F">
<ellipse fill="#0054ff" stroke="#000000" stroke-width="0" cx="126" cy="-450" rx="18" ry="18"/>
</a>
</g>
</g>
<!-- 10 -->
<g id="node11" class="node">
<title>10</title>
<g id="a_node11"><a xlink:title="F">
<ellipse fill="#0054ff" stroke="#000000" stroke-width="0" cx="396" cy="-378" rx="18" ry="18"/>
</a>
</g>
</g>
<!-- 39 -->
<g id="node40" class="node">
<title>39</title>
<g id="a_node40"><a xlink:title="F">
<ellipse fill="#0054ff" stroke="#000000" stroke-width="0" cx="72" cy="-450" rx="18" ry="18"/>
</a>
</g>
</g>
<!-- 11&#45;&gt;39 -->
<g id="edge1" class="edge">
<title>11&#45;&gt;39</title>
<path fill="none" stroke="#000000" d="M95.8101,-505.3008C92.054,-496.577 87.3735,-485.7062 83.1589,-475.9174"/>
<polygon fill="#000000" stroke="#000000" points="86.3203,-474.4094 79.151,-466.6087 79.8909,-477.1776 86.3203,-474.4094"/>
</g>
<!-- 12&#45;&gt;9 -->
<g id="edge13" class="edge">
<title>12&#45;&gt;9</title>
<path fill="none" stroke="#000000" d="M155.5666,-506.0209C150.7452,-496.8857 144.5929,-485.2286 139.1502,-474.9162"/>
<polygon fill="#000000" stroke="#000000" points="142.1728,-473.1447 134.4099,-465.9345 135.9821,-476.412 142.1728,-473.1447"/>
</g>
<!-- 13 -->
<g id="node14" class="node">
<title>13</title>
<g id="a_node14"><a xlink:title="F">
<ellipse fill="#0054ff" stroke="#000000" stroke-width="0" cx="720" cy="-378" rx="18" ry="18"/>
</a>
</g>
</g>
<!-- 23 -->
<g id="node24" class="node">
<title>23</title>
<g id="a_node24"><a xlink:title="F">
<ellipse fill="#0054ff" stroke="#000000" stroke-width="0" cx="720" cy="-306" rx="18" ry="18"/>
</a>
</g>
</g>
<!-- 13&#45;&gt;23 -->
<g id="edge41" class="edge">
<title>13&#45;&gt;23</title>
<path fill="none" stroke="#000000" d="M720,-359.8314C720,-352.131 720,-342.9743 720,-334.4166"/>
<polygon fill="#000000" stroke="#000000" points="723.5001,-334.4132 720,-324.4133 716.5001,-334.4133 723.5001,-334.4132"/>
</g>
<!-- 14 -->
<g id="node15" class="node">
<title>14</title>
<g id="a_node15"><a xlink:title="F">
<ellipse fill="#0054ff" stroke="#000000" stroke-width="0" cx="693" cy="-810" rx="18" ry="18"/>
</a>
</g>
</g>
<!-- 14&#45;&gt;1 -->
<g id="edge26" class="edge">
<title>14&#45;&gt;1</title>
<path fill="none" stroke="#000000" d="M686.6014,-792.937C683.407,-784.4186 679.471,-773.9227 675.8982,-764.3952"/>
<polygon fill="#000000" stroke="#000000" points="679.1411,-763.0749 672.3527,-754.9405 672.5868,-765.5328 679.1411,-763.0749"/>
</g>
<!-- 14&#45;&gt;8 -->
<g id="edge48" class="edge">
<title>14&#45;&gt;8</title>
<path fill="none" stroke="#000000" d="M699.3986,-792.937C702.593,-784.4186 706.529,-773.9227 710.1018,-764.3952"/>
<polygon fill="#000000" stroke="#000000" points="713.4132,-765.5328 713.6473,-754.9405 706.8589,-763.0749 713.4132,-765.5328"/>
</g>
<!-- 41 -->
<g id="node42" class="node">
<title>41</title>
<g id="a_node42"><a xlink:title="F">
<ellipse fill="#0054ff" stroke="#000000" stroke-width="0" cx="180" cy="-450" rx="18" ry="18"/>
</a>
</g>
</g>
<!-- 15&#45;&gt;41 -->
<g id="edge39" class="edge">
<title>15&#45;&gt;41</title>
<path fill="none" stroke="#000000" d="M220.4328,-507.0816C213.5262,-497.3311 204.3631,-484.395 196.5065,-473.3032"/>
<polygon fill="#000000" stroke="#000000" points="199.19,-471.0365 190.5537,-464.8993 193.4778,-475.0827 199.19,-471.0365"/>
</g>
<!-- 16 -->
<g id="node17" class="node">
<title>16</title>
<g id="a_node17"><a xlink:title="F">
<ellipse fill="#0054ff" stroke="#000000" stroke-width="0" cx="504" cy="-90" rx="18" ry="18"/>
</a>
</g>
</g>
<!-- 47 -->
<g id="node48" class="node">
<title>47</title>
<g id="a_node48"><a xlink:title="F">
<ellipse fill="#0054ff" stroke="#000000" stroke-width="0" cx="504" cy="-18" rx="18" ry="18"/>
</a>
</g>
</g>
<!-- 16&#45;&gt;47 -->
<g id="edge3" class="edge">
<title>16&#45;&gt;47</title>
<path fill="none" stroke="#000000" d="M504,-71.8314C504,-64.131 504,-54.9743 504,-46.4166"/>
<polygon fill="#000000" stroke="#000000" points="507.5001,-46.4132 504,-36.4133 500.5001,-46.4133 507.5001,-46.4132"/>
</g>
<!-- 17 -->
<g id="node18" class="node">
<title>17</title>
<g id="a_node18"><a xlink:title="F">
<ellipse fill="#0054ff" stroke="#000000" stroke-width="0" cx="504" cy="-450" rx="18" ry="18"/>
</a>
</g>
</g>
<!-- 31 -->
<g id="node32" class="node">
<title>31</title>
<g id="a_node32"><a xlink:title="F">
<ellipse fill="#0054ff" stroke="#000000" stroke-width="0" cx="504" cy="-378" rx="18" ry="18"/>
</a>
</g>
</g>
<!-- 17&#45;&gt;31 -->
<g id="edge15" class="edge">
<title>17&#45;&gt;31</title>
<path fill="none" stroke="#000000" d="M504,-431.8314C504,-424.131 504,-414.9743 504,-406.4166"/>
<polygon fill="#000000" stroke="#000000" points="507.5001,-406.4132 504,-396.4133 500.5001,-406.4133 507.5001,-406.4132"/>
</g>
<!-- 18 -->
<g id="node19" class="node">
<title>18</title>
<g id="a_node19"><a xlink:title="F">
<ellipse fill="#0054ff" stroke="#000000" stroke-width="0" cx="504" cy="-162" rx="18" ry="18"/>
</a>
</g>
</g>
<!-- 18&#45;&gt;16 -->
<g id="edge20" class="edge">
<title>18&#45;&gt;16</title>
<path fill="none" stroke="#000000" d="M504,-143.8314C504,-136.131 504,-126.9743 504,-118.4166"/>
<polygon fill="#000000" stroke="#000000" points="507.5001,-118.4132 504,-108.4133 500.5001,-118.4133 507.5001,-118.4132"/>
</g>
<!-- 36 -->
<g id="node37" class="node">
<title>36</title>
<g id="a_node37"><a xlink:title="F">
<ellipse fill="#0054ff" stroke="#000000" stroke-width="0" cx="234" cy="-450" rx="18" ry="18"/>
</a>
</g>
</g>
<!-- 19&#45;&gt;36 -->
<g id="edge5" class="edge">
<title>19&#45;&gt;36</title>
<path fill="none" stroke="#000000" d="M277.0723,-507.4297C269.6066,-497.4754 259.5632,-484.0842 251.0526,-472.7368"/>
<polygon fill="#000000" stroke="#000000" points="253.7115,-470.4486 244.9115,-464.5486 248.1115,-474.6486 253.7115,-470.4486"/>
</g>
<!-- 37 -->
<g id="node38" class="node">
<title>37</title>
<g id="a_node38"><a xlink:title="F">
<ellipse fill="#0054ff" stroke="#000000" stroke-width="0" cx="288" cy="-450" rx="18" ry="18"/>
</a>
</g>
</g>
<!-- 19&#45;&gt;37 -->
<g id="edge40" class="edge">
<title>19&#45;&gt;37</title>
<path fill="none" stroke="#000000" d="M288,-503.8314C288,-496.131 288,-486.9743 288,-478.4166"/>
<polygon fill="#000000" stroke="#000000" points="291.5001,-478.4132 288,-468.4133 284.5001,-478.4133 291.5001,-478.4132"/>
</g>
<!-- 38 -->
<g id="node39" class="node">
<title>38</title>
<g id="a_node39"><a xlink:title="F">
<ellipse fill="#0054ff" stroke="#000000" stroke-width="0" cx="342" cy="-450" rx="18" ry="18"/>
</a>
</g>
</g>
<!-- 19&#45;&gt;38 -->
<g id="edge43" class="edge">
<title>19&#45;&gt;38</title>
<path fill="none" stroke="#000000" d="M298.9277,-507.4297C306.3934,-497.4754 316.4368,-484.0842 324.9474,-472.7368"/>
<polygon fill="#000000" stroke="#000000" points="327.8885,-474.6486 331.0885,-464.5486 322.2885,-470.4486 327.8885,-474.6486"/>
</g>
<!-- 20&#45;&gt;13 -->
<g id="edge32" class="edge">
<title>20&#45;&gt;13</title>
<path fill="none" stroke="#000000" d="M720,-431.8314C720,-424.131 720,-414.9743 720,-406.4166"/>
<polygon fill="#000000" stroke="#000000" points="723.5001,-406.4132 720,-396.4133 716.5001,-406.4133 723.5001,-406.4132"/>
</g>
<!-- 22 -->
<g id="node23" class="node">
<title>22</title>
<g id="a_node23"><a xlink:title="F">
<ellipse fill="#0054ff" stroke="#000000" stroke-width="0" cx="396" cy="-450" rx="18" ry="18"/>
</a>
</g>
</g>
<!-- 21&#45;&gt;22 -->
<g id="edge44" class="edge">
<title>21&#45;&gt;22</title>
<path fill="none" stroke="#000000" d="M375.3986,-504.937C378.593,-496.4186 382.529,-485.9227 386.1018,-476.3952"/>
<polygon fill="#000000" stroke="#000000" points="389.4132,-477.5328 389.6473,-466.9405 382.8589,-475.0749 389.4132,-477.5328"/>
</g>
<!-- 22&#45;&gt;10 -->
<g id="edge30" class="edge">
<title>22&#45;&gt;10</title>
<path fill="none" stroke="#000000" d="M396,-431.8314C396,-424.131 396,-414.9743 396,-406.4166"/>
<polygon fill="#000000" stroke="#000000" points="399.5001,-406.4132 396,-396.4133 392.5001,-406.4133 399.5001,-406.4132"/>
</g>
<!-- 24&#45;&gt;7 -->
<g id="edge42" class="edge">
<title>24&#45;&gt;7</title>
<path fill="none" stroke="#000000" d="M450,-503.8314C450,-496.131 450,-486.9743 450,-478.4166"/>
<polygon fill="#000000" stroke="#000000" points="453.5001,-478.4132 450,-468.4133 446.5001,-478.4133 453.5001,-478.4132"/>
</g>
<!-- 24&#45;&gt;17 -->
<g id="edge4" class="edge">
<title>24&#45;&gt;17</title>
<path fill="none" stroke="#000000" d="M460.9277,-507.4297C468.3934,-497.4754 478.4368,-484.0842 486.9474,-472.7368"/>
<polygon fill="#000000" stroke="#000000" points="489.8885,-474.6486 493.0885,-464.5486 484.2885,-470.4486 489.8885,-474.6486"/>
</g>
<!-- 25 -->
<g id="node26" class="node">
<title>25</title>
<g id="a_node26"><a xlink:title="F">
<ellipse fill="#0054ff" stroke="#000000" stroke-width="0" cx="666" cy="-594" rx="18" ry="18"/>
</a>
</g>
</g>
<!-- 43 -->
<g id="node44" class="node">
<title>43</title>
<g id="a_node44"><a xlink:title="F">
<ellipse fill="#0054ff" stroke="#000000" stroke-width="0" cx="666" cy="-522" rx="18" ry="18"/>
</a>
</g>
</g>
<!-- 25&#45;&gt;43 -->
<g id="edge16" class="edge">
<title>25&#45;&gt;43</title>
<path fill="none" stroke="#000000" d="M666,-575.8314C666,-568.131 666,-558.9743 666,-550.4166"/>
<polygon fill="#000000" stroke="#000000" points="669.5001,-550.4132 666,-540.4133 662.5001,-550.4133 669.5001,-550.4132"/>
</g>
<!-- 29 -->
<g id="node30" class="node">
<title>29</title>
<g id="a_node30"><a xlink:title="F">
<ellipse fill="#0054ff" stroke="#000000" stroke-width="0" cx="18" cy="-306" rx="18" ry="18"/>
</a>
</g>
</g>
<!-- 26&#45;&gt;29 -->
<g id="edge23" class="edge">
<title>26&#45;&gt;29</title>
<path fill="none" stroke="#000000" d="M18,-359.8314C18,-352.131 18,-342.9743 18,-334.4166"/>
<polygon fill="#000000" stroke="#000000" points="21.5001,-334.4132 18,-324.4133 14.5001,-334.4133 21.5001,-334.4132"/>
</g>
<!-- 27&#45;&gt;25 -->
<g id="edge2" class="edge">
<title>27&#45;&gt;25</title>
<path fill="none" stroke="#000000" d="M666,-647.8314C666,-640.131 666,-630.9743 666,-622.4166"/>
<polygon fill="#000000" stroke="#000000" points="669.5001,-622.4132 666,-612.4133 662.5001,-622.4133 669.5001,-622.4132"/>
</g>
<!-- 28&#45;&gt;2 -->
<g id="edge47" class="edge">
<title>28&#45;&gt;2</title>
<path fill="none" stroke="#000000" d="M720,-647.8314C720,-640.131 720,-630.9743 720,-622.4166"/>
<polygon fill="#000000" stroke="#000000" points="723.5001,-622.4132 720,-612.4133 716.5001,-622.4133 723.5001,-622.4132"/>
</g>
<!-- 30 -->
<g id="node31" class="node">
<title>30</title>
<g id="a_node31"><a xlink:title="F">
<ellipse fill="#0054ff" stroke="#000000" stroke-width="0" cx="504" cy="-234" rx="18" ry="18"/>
</a>
</g>
</g>
<!-- 30&#45;&gt;18 -->
<g id="edge12" class="edge">
<title>30&#45;&gt;18</title>
<path fill="none" stroke="#000000" d="M504,-215.8314C504,-208.131 504,-198.9743 504,-190.4166"/>
<polygon fill="#000000" stroke="#000000" points="507.5001,-190.4132 504,-180.4133 500.5001,-190.4133 507.5001,-190.4132"/>
</g>
<!-- 32 -->
<g id="node33" class="node">
<title>32</title>
<g id="a_node33"><a xlink:title="F">
<ellipse fill="#0054ff" stroke="#000000" stroke-width="0" cx="504" cy="-306" rx="18" ry="18"/>
</a>
</g>
</g>
<!-- 31&#45;&gt;32 -->
<g id="edge22" class="edge">
<title>31&#45;&gt;32</title>
<path fill="none" stroke="#000000" d="M504,-359.8314C504,-352.131 504,-342.9743 504,-334.4166"/>
<polygon fill="#000000" stroke="#000000" points="507.5001,-334.4132 504,-324.4133 500.5001,-334.4133 507.5001,-334.4132"/>
</g>
<!-- 32&#45;&gt;30 -->
<g id="edge50" class="edge">
<title>32&#45;&gt;30</title>
<path fill="none" stroke="#000000" d="M504,-287.8314C504,-280.131 504,-270.9743 504,-262.4166"/>
<polygon fill="#000000" stroke="#000000" points="507.5001,-262.4132 504,-252.4133 500.5001,-262.4133 507.5001,-262.4132"/>
</g>
<!-- 33 -->
<g id="node34" class="node">
<title>33</title>
<g id="a_node34"><a xlink:title="L">
<ellipse fill="#66ff90" stroke="#000000" stroke-width="0" cx="342" cy="-306" rx="18" ry="18"/>
</a>
</g>
</g>
<!-- 34 -->
<g id="node35" class="node">
<title>34</title>
<g id="a_node35"><a xlink:title="L">
<ellipse fill="#66ff90" stroke="#000000" stroke-width="0" cx="342" cy="-378" rx="18" ry="18"/>
</a>
</g>
</g>
<!-- 34&#45;&gt;33 -->
<g id="edge35" class="edge">
<title>34&#45;&gt;33</title>
<path fill="none" stroke="#000000" d="M342,-359.8314C342,-352.131 342,-342.9743 342,-334.4166"/>
<polygon fill="#000000" stroke="#000000" points="345.5001,-334.4132 342,-324.4133 338.5001,-334.4133 345.5001,-334.4132"/>
</g>
<!-- 35 -->
<g id="node36" class="node">
<title>35</title>
<g id="a_node36"><a xlink:title="F">
<ellipse fill="#0054ff" stroke="#000000" stroke-width="0" cx="234" cy="-378" rx="18" ry="18"/>
</a>
</g>
</g>
<!-- 36&#45;&gt;35 -->
<g id="edge6" class="edge">
<title>36&#45;&gt;35</title>
<path fill="none" stroke="#000000" d="M234,-431.8314C234,-424.131 234,-414.9743 234,-406.4166"/>
<polygon fill="#000000" stroke="#000000" points="237.5001,-406.4132 234,-396.4133 230.5001,-406.4133 237.5001,-406.4132"/>
</g>
<!-- 38&#45;&gt;34 -->
<g id="edge37" class="edge">
<title>38&#45;&gt;34</title>
<path fill="none" stroke="#000000" d="M342,-431.8314C342,-424.131 342,-414.9743 342,-406.4166"/>
<polygon fill="#000000" stroke="#000000" points="345.5001,-406.4132 342,-396.4133 338.5001,-406.4133 345.5001,-406.4132"/>
</g>
<!-- 40 -->
<g id="node41" class="node">
<title>40</title>
<g id="a_node41"><a xlink:title="F">
<ellipse fill="#0054ff" stroke="#000000" stroke-width="0" cx="666" cy="-378" rx="18" ry="18"/>
</a>
</g>
</g>
<!-- 42 -->
<g id="node43" class="node">
<title>42</title>
<g id="a_node43"><a xlink:title="F">
<ellipse fill="#0054ff" stroke="#000000" stroke-width="0" cx="666" cy="-306" rx="18" ry="18"/>
</a>
</g>
</g>
<!-- 40&#45;&gt;42 -->
<g id="edge7" class="edge">
<title>40&#45;&gt;42</title>
<path fill="none" stroke="#000000" d="M666,-359.8314C666,-352.131 666,-342.9743 666,-334.4166"/>
<polygon fill="#000000" stroke="#000000" points="669.5001,-334.4132 666,-324.4133 662.5001,-334.4133 669.5001,-334.4132"/>
</g>
<!-- 44 -->
<g id="node45" class="node">
<title>44</title>
<g id="a_node45"><a xlink:title="F">
<ellipse fill="#0054ff" stroke="#000000" stroke-width="0" cx="180" cy="-378" rx="18" ry="18"/>
</a>
</g>
</g>
<!-- 41&#45;&gt;44 -->
<g id="edge52" class="edge">
<title>41&#45;&gt;44</title>
<path fill="none" stroke="#000000" d="M180,-431.8314C180,-424.131 180,-414.9743 180,-406.4166"/>
<polygon fill="#000000" stroke="#000000" points="183.5001,-406.4132 180,-396.4133 176.5001,-406.4133 183.5001,-406.4132"/>
</g>
<!-- 46 -->
<g id="node47" class="node">
<title>46</title>
<g id="a_node47"><a xlink:title="F">
<ellipse fill="#0054ff" stroke="#000000" stroke-width="0" cx="666" cy="-450" rx="18" ry="18"/>
</a>
</g>
</g>
<!-- 43&#45;&gt;46 -->
<g id="edge9" class="edge">
<title>43&#45;&gt;46</title>
<path fill="none" stroke="#000000" d="M666,-503.8314C666,-496.131 666,-486.9743 666,-478.4166"/>
<polygon fill="#000000" stroke="#000000" points="669.5001,-478.4132 666,-468.4133 662.5001,-478.4133 669.5001,-478.4132"/>
</g>
<!-- 45 -->
<g id="node46" class="node">
<title>45</title>
<g id="a_node46"><a xlink:title="F">
<ellipse fill="#0054ff" stroke="#000000" stroke-width="0" cx="180" cy="-306" rx="18" ry="18"/>
</a>
</g>
</g>
<!-- 44&#45;&gt;45 -->
<g id="edge21" class="edge">
<title>44&#45;&gt;45</title>
<path fill="none" stroke="#000000" d="M180,-359.8314C180,-352.131 180,-342.9743 180,-334.4166"/>
<polygon fill="#000000" stroke="#000000" points="183.5001,-334.4132 180,-324.4133 176.5001,-334.4133 183.5001,-334.4132"/>
</g>
<!-- 46&#45;&gt;40 -->
<g id="edge31" class="edge">
<title>46&#45;&gt;40</title>
<path fill="none" stroke="#000000" d="M666,-431.8314C666,-424.131 666,-414.9743 666,-406.4166"/>
<polygon fill="#000000" stroke="#000000" points="669.5001,-406.4132 666,-396.4133 662.5001,-406.4133 669.5001,-406.4132"/>
</g>
<!-- 48 -->
<g id="node49" class="node">
<title>48</title>
<g id="a_node49"><a xlink:title="F">
<ellipse fill="#0054ff" stroke="#000000" stroke-width="0" cx="558" cy="-306" rx="18" ry="18"/>
</a>
</g>
</g>
<!-- 51 -->
<g id="node52" class="node">
<title>51</title>
<g id="a_node52"><a xlink:title="F">
<ellipse fill="#0054ff" stroke="#000000" stroke-width="0" cx="558" cy="-234" rx="18" ry="18"/>
</a>
</g>
</g>
<!-- 48&#45;&gt;51 -->
<g id="edge11" class="edge">
<title>48&#45;&gt;51</title>
<path fill="none" stroke="#000000" d="M558,-287.8314C558,-280.131 558,-270.9743 558,-262.4166"/>
<polygon fill="#000000" stroke="#000000" points="561.5001,-262.4132 558,-252.4133 554.5001,-262.4133 561.5001,-262.4132"/>
</g>
<!-- 50 -->
<g id="node51" class="node">
<title>50</title>
<g id="a_node51"><a xlink:title="F">
<ellipse fill="#0054ff" stroke="#000000" stroke-width="0" cx="558" cy="-450" rx="18" ry="18"/>
</a>
</g>
</g>
<!-- 49&#45;&gt;50 -->
<g id="edge14" class="edge">
<title>49&#45;&gt;50</title>
<path fill="none" stroke="#000000" d="M558,-503.8314C558,-496.131 558,-486.9743 558,-478.4166"/>
<polygon fill="#000000" stroke="#000000" points="561.5001,-478.4132 558,-468.4133 554.5001,-478.4133 561.5001,-478.4132"/>
</g>
<!-- 53 -->
<g id="node54" class="node">
<title>53</title>
<g id="a_node54"><a xlink:title="F">
<ellipse fill="#0054ff" stroke="#000000" stroke-width="0" cx="612" cy="-450" rx="18" ry="18"/>
</a>
</g>
</g>
<!-- 49&#45;&gt;53 -->
<g id="edge18" class="edge">
<title>49&#45;&gt;53</title>
<path fill="none" stroke="#000000" d="M568.9277,-507.4297C576.3934,-497.4754 586.4368,-484.0842 594.9474,-472.7368"/>
<polygon fill="#000000" stroke="#000000" points="597.8885,-474.6486 601.0885,-464.5486 592.2885,-470.4486 597.8885,-474.6486"/>
</g>
<!-- 52 -->
<g id="node53" class="node">
<title>52</title>
<g id="a_node53"><a xlink:title="F">
<ellipse fill="#0054ff" stroke="#000000" stroke-width="0" cx="558" cy="-378" rx="18" ry="18"/>
</a>
</g>
</g>
<!-- 50&#45;&gt;52 -->
<g id="edge51" class="edge">
<title>50&#45;&gt;52</title>
<path fill="none" stroke="#000000" d="M558,-431.8314C558,-424.131 558,-414.9743 558,-406.4166"/>
<polygon fill="#000000" stroke="#000000" points="561.5001,-406.4132 558,-396.4133 554.5001,-406.4133 561.5001,-406.4132"/>
</g>
<!-- 52&#45;&gt;48 -->
<g id="edge53" class="edge">
<title>52&#45;&gt;48</title>
<path fill="none" stroke="#000000" d="M558,-359.8314C558,-352.131 558,-342.9743 558,-334.4166"/>
<polygon fill="#000000" stroke="#000000" points="561.5001,-334.4132 558,-324.4133 554.5001,-334.4133 561.5001,-334.4132"/>
</g>
</g>
</svg>
