<?xml version="1.0" encoding="UTF-8" standalone="no"?>
<!DOCTYPE svg PUBLIC "-//W3C//DTD SVG 1.1//EN"
 "http://www.w3.org/Graphics/SVG/1.1/DTD/svg11.dtd">
<!-- Generated by graphviz version 2.38.0 (20140413.2041)
 -->
<!-- Title: %3 Pages: 1 -->
<svg width="414pt" height="332pt"
 viewBox="0.00 0.00 413.64 332.00" xmlns="http://www.w3.org/2000/svg" xmlns:xlink="http://www.w3.org/1999/xlink">
<g id="graph0" class="graph" transform="scale(1 1) rotate(0) translate(4 328)">
<title>%3</title>
<polygon fill="white" stroke="none" points="-4,4 -4,-328 409.643,-328 409.643,4 -4,4"/>
<!-- 0 -->
<g id="node1" class="node"><title>0</title>
<g id="a_node1"><a xlink:title="0, diversity: 1, multiplicities: 5, labels: 0">
<ellipse fill="#fee3d6" stroke="black" cx="175.047" cy="-234" rx="37.0935" ry="18"/>
<text text-anchor="middle" x="175.047" y="-230.3" font-family="Times,serif" font-size="14.00">0 (1): 0</text>
</a>
</g>
</g>
<!-- 1 -->
<g id="node2" class="node"><title>1</title>
<g id="a_node2"><a xlink:title="1, diversity: 2, multiplicities: 1,19, labels: 0">
<ellipse fill="#fca082" stroke="black" cx="37.0467" cy="-90" rx="37.0935" ry="18"/>
<text text-anchor="middle" x="37.0467" y="-86.3" font-family="Times,serif" font-size="14.00">1 (2): 0</text>
</a>
</g>
</g>
<!-- 2 -->
<g id="node3" class="node"><title>2</title>
<g id="a_node3"><a xlink:title="2, diversity: 1, multiplicities: 18, labels: 0">
<ellipse fill="#fca082" stroke="black" cx="37.0467" cy="-18" rx="37.0935" ry="18"/>
<text text-anchor="middle" x="37.0467" y="-14.3" font-family="Times,serif" font-size="14.00">2 (1): 0</text>
</a>
</g>
</g>
<!-- 1&#45;&gt;2 -->
<g id="edge1" class="edge"><title>1&#45;&gt;2</title>
<path fill="none" stroke="black" d="M37.0467,-71.6966C37.0467,-63.9827 37.0467,-54.7125 37.0467,-46.1124"/>
<polygon fill="black" stroke="black" points="40.5468,-46.1043 37.0467,-36.1043 33.5468,-46.1044 40.5468,-46.1043"/>
</g>
<!-- 3 -->
<g id="node4" class="node"><title>3</title>
<g id="a_node4"><a xlink:title="3, diversity: 1, multiplicities: 7, labels: 0">
<ellipse fill="#fcc4ad" stroke="black" cx="267.047" cy="-306" rx="37.0935" ry="18"/>
<text text-anchor="middle" x="267.047" y="-302.3" font-family="Times,serif" font-size="14.00">3 (1): 0</text>
</a>
</g>
</g>
<!-- 3&#45;&gt;0 -->
<g id="edge6" class="edge"><title>3&#45;&gt;0</title>
<path fill="none" stroke="black" d="M247.984,-290.496C234.785,-280.453 217.018,-266.934 202.324,-255.754"/>
<polygon fill="black" stroke="black" points="204.162,-252.755 194.085,-249.485 199.924,-258.326 204.162,-252.755"/>
</g>
<!-- 6 -->
<g id="node7" class="node"><title>6</title>
<g id="a_node7"><a xlink:title="6, diversity: 2, multiplicities: 30,79, labels: 0">
<ellipse fill="#fb7c5c" stroke="black" cx="267.047" cy="-234" rx="37.0935" ry="18"/>
<text text-anchor="middle" x="267.047" y="-230.3" font-family="Times,serif" font-size="14.00">6 (2): 0</text>
</a>
</g>
</g>
<!-- 3&#45;&gt;6 -->
<g id="edge9" class="edge"><title>3&#45;&gt;6</title>
<path fill="none" stroke="black" d="M267.047,-287.697C267.047,-279.983 267.047,-270.712 267.047,-262.112"/>
<polygon fill="black" stroke="black" points="270.547,-262.104 267.047,-252.104 263.547,-262.104 270.547,-262.104"/>
</g>
<!-- 11 -->
<g id="node12" class="node"><title>11</title>
<g id="a_node12"><a xlink:title="11, diversity: 1, multiplicities: 32, labels: 0">
<ellipse fill="#fca082" stroke="black" cx="364.047" cy="-234" rx="41.6928" ry="18"/>
<text text-anchor="middle" x="364.047" y="-230.3" font-family="Times,serif" font-size="14.00">11 (1): 0</text>
</a>
</g>
</g>
<!-- 3&#45;&gt;11 -->
<g id="edge7" class="edge"><title>3&#45;&gt;11</title>
<path fill="none" stroke="black" d="M287.145,-290.496C301.098,-280.427 319.893,-266.864 335.409,-255.666"/>
<polygon fill="black" stroke="black" points="337.579,-258.416 343.64,-249.726 333.483,-252.74 337.579,-258.416"/>
</g>
<!-- 4 -->
<g id="node5" class="node"><title>4</title>
<g id="a_node5"><a xlink:title="4, diversity: 3, multiplicities: 5,43,147, labels: 0">
<ellipse fill="#fb7c5c" stroke="black" cx="175.047" cy="-162" rx="37.0935" ry="18"/>
<text text-anchor="middle" x="175.047" y="-158.3" font-family="Times,serif" font-size="14.00">4 (3): 0</text>
</a>
</g>
</g>
<!-- 4&#45;&gt;1 -->
<g id="edge11" class="edge"><title>4&#45;&gt;1</title>
<path fill="none" stroke="black" d="M150.375,-148.485C128.239,-137.257 95.5484,-120.675 70.9587,-108.202"/>
<polygon fill="black" stroke="black" points="72.4717,-105.045 61.97,-103.642 69.305,-111.287 72.4717,-105.045"/>
</g>
<!-- 5 -->
<g id="node6" class="node"><title>5</title>
<g id="a_node6"><a xlink:title="5, diversity: 1, multiplicities: 18, labels: 0">
<ellipse fill="#fca082" stroke="black" cx="129.047" cy="-90" rx="37.0935" ry="18"/>
<text text-anchor="middle" x="129.047" y="-86.3" font-family="Times,serif" font-size="14.00">5 (1): 0</text>
</a>
</g>
</g>
<!-- 4&#45;&gt;5 -->
<g id="edge8" class="edge"><title>4&#45;&gt;5</title>
<path fill="none" stroke="black" d="M164.145,-144.411C158.588,-135.955 151.714,-125.494 145.527,-116.078"/>
<polygon fill="black" stroke="black" points="148.287,-113.905 139.87,-107.47 142.437,-117.749 148.287,-113.905"/>
</g>
<!-- 8 -->
<g id="node9" class="node"><title>8</title>
<g id="a_node9"><a xlink:title="8, diversity: 1, multiplicities: 19, labels: 0">
<ellipse fill="#fca082" stroke="black" cx="221.047" cy="-90" rx="37.0935" ry="18"/>
<text text-anchor="middle" x="221.047" y="-86.3" font-family="Times,serif" font-size="14.00">8 (1): 0</text>
</a>
</g>
</g>
<!-- 4&#45;&gt;8 -->
<g id="edge5" class="edge"><title>4&#45;&gt;8</title>
<path fill="none" stroke="black" d="M185.948,-144.411C191.505,-135.955 198.379,-125.494 204.567,-116.078"/>
<polygon fill="black" stroke="black" points="207.657,-117.749 210.224,-107.47 201.807,-113.905 207.657,-117.749"/>
</g>
<!-- 9 -->
<g id="node10" class="node"><title>9</title>
<g id="a_node10"><a xlink:title="9, diversity: 1, multiplicities: 15, labels: 0">
<ellipse fill="#fca082" stroke="black" cx="313.047" cy="-90" rx="37.0935" ry="18"/>
<text text-anchor="middle" x="313.047" y="-86.3" font-family="Times,serif" font-size="14.00">9 (1): 0</text>
</a>
</g>
</g>
<!-- 4&#45;&gt;9 -->
<g id="edge10" class="edge"><title>4&#45;&gt;9</title>
<path fill="none" stroke="black" d="M199.718,-148.485C221.854,-137.257 254.545,-120.675 279.135,-108.202"/>
<polygon fill="black" stroke="black" points="280.788,-111.287 288.123,-103.642 277.622,-105.045 280.788,-111.287"/>
</g>
<!-- 6&#45;&gt;4 -->
<g id="edge2" class="edge"><title>6&#45;&gt;4</title>
<path fill="none" stroke="black" d="M247.984,-218.496C234.785,-208.453 217.018,-194.934 202.324,-183.754"/>
<polygon fill="black" stroke="black" points="204.162,-180.755 194.085,-177.485 199.924,-186.326 204.162,-180.755"/>
</g>
<!-- 7 -->
<g id="node8" class="node"><title>7</title>
<g id="a_node8"><a xlink:title="7, diversity: 1, multiplicities: 15, labels: 0">
<ellipse fill="#fca082" stroke="black" cx="267.047" cy="-162" rx="37.0935" ry="18"/>
<text text-anchor="middle" x="267.047" y="-158.3" font-family="Times,serif" font-size="14.00">7 (1): 0</text>
</a>
</g>
</g>
<!-- 6&#45;&gt;7 -->
<g id="edge4" class="edge"><title>6&#45;&gt;7</title>
<path fill="none" stroke="black" d="M267.047,-215.697C267.047,-207.983 267.047,-198.712 267.047,-190.112"/>
<polygon fill="black" stroke="black" points="270.547,-190.104 267.047,-180.104 263.547,-190.104 270.547,-190.104"/>
</g>
<!-- 10 -->
<g id="node11" class="node"><title>10</title>
<g id="a_node11"><a xlink:title="10, diversity: 1, multiplicities: 19, labels: 0">
<ellipse fill="#fca082" stroke="black" cx="364.047" cy="-162" rx="41.6928" ry="18"/>
<text text-anchor="middle" x="364.047" y="-158.3" font-family="Times,serif" font-size="14.00">10 (1): 0</text>
</a>
</g>
</g>
<!-- 11&#45;&gt;10 -->
<g id="edge3" class="edge"><title>11&#45;&gt;10</title>
<path fill="none" stroke="black" d="M364.047,-215.697C364.047,-207.983 364.047,-198.712 364.047,-190.112"/>
<polygon fill="black" stroke="black" points="367.547,-190.104 364.047,-180.104 360.547,-190.104 367.547,-190.104"/>
</g>
</g>
</svg>
