<?xml version="1.0" encoding="UTF-8" standalone="no"?>
<!DOCTYPE svg PUBLIC "-//W3C//DTD SVG 1.1//EN"
 "http://www.w3.org/Graphics/SVG/1.1/DTD/svg11.dtd">
<!-- Generated by graphviz version 2.38.0 (20140413.2041)
 -->
<!-- Title: %3 Pages: 1 -->
<svg width="457pt" height="332pt"
 viewBox="0.00 0.00 457.09 332.00" xmlns="http://www.w3.org/2000/svg" xmlns:xlink="http://www.w3.org/1999/xlink">
<g id="graph0" class="graph" transform="scale(1 1) rotate(0) translate(4 328)">
<title>%3</title>
<polygon fill="white" stroke="none" points="-4,4 -4,-328 453.093,-328 453.093,4 -4,4"/>
<!-- 0 -->
<g id="node1" class="node"><title>0</title>
<g id="a_node1"><a xlink:title="0, diversity: 2, multiplicities: 13,115, labels: 0">
<ellipse fill="#fb7c5c" stroke="black" cx="274.047" cy="-234" rx="37.0935" ry="18"/>
<text text-anchor="middle" x="274.047" y="-230.3" font-family="Times,serif" font-size="14.00">0 (2): 0</text>
</a>
</g>
</g>
<!-- 3 -->
<g id="node4" class="node"><title>3</title>
<g id="a_node4"><a xlink:title="3, diversity: 2, multiplicities: 12,17, labels: 0">
<ellipse fill="#fca082" stroke="black" cx="134.047" cy="-162" rx="37.0935" ry="18"/>
<text text-anchor="middle" x="134.047" y="-158.3" font-family="Times,serif" font-size="14.00">3 (2): 0</text>
</a>
</g>
</g>
<!-- 0&#45;&gt;3 -->
<g id="edge9" class="edge"><title>0&#45;&gt;3</title>
<path fill="none" stroke="black" d="M249.018,-220.485C226.422,-209.187 192.984,-192.469 167.986,-179.97"/>
<polygon fill="black" stroke="black" points="169.369,-176.748 158.859,-175.406 166.238,-183.009 169.369,-176.748"/>
</g>
<!-- 4 -->
<g id="node5" class="node"><title>4</title>
<g id="a_node5"><a xlink:title="4, diversity: 1, multiplicities: 14, labels: 0">
<ellipse fill="#fca082" stroke="black" cx="228.047" cy="-162" rx="37.0935" ry="18"/>
<text text-anchor="middle" x="228.047" y="-158.3" font-family="Times,serif" font-size="14.00">4 (1): 0</text>
</a>
</g>
</g>
<!-- 0&#45;&gt;4 -->
<g id="edge7" class="edge"><title>0&#45;&gt;4</title>
<path fill="none" stroke="black" d="M263.145,-216.411C257.588,-207.955 250.714,-197.494 244.527,-188.078"/>
<polygon fill="black" stroke="black" points="247.287,-185.905 238.87,-179.47 241.437,-189.749 247.287,-185.905"/>
</g>
<!-- 5 -->
<g id="node6" class="node"><title>5</title>
<g id="a_node6"><a xlink:title="5, diversity: 1, multiplicities: 14, labels: 0">
<ellipse fill="#fca082" stroke="black" cx="320.047" cy="-162" rx="37.0935" ry="18"/>
<text text-anchor="middle" x="320.047" y="-158.3" font-family="Times,serif" font-size="14.00">5 (1): 0</text>
</a>
</g>
</g>
<!-- 0&#45;&gt;5 -->
<g id="edge6" class="edge"><title>0&#45;&gt;5</title>
<path fill="none" stroke="black" d="M284.948,-216.411C290.505,-207.955 297.379,-197.494 303.567,-188.078"/>
<polygon fill="black" stroke="black" points="306.657,-189.749 309.224,-179.47 300.807,-185.905 306.657,-189.749"/>
</g>
<!-- 6 -->
<g id="node7" class="node"><title>6</title>
<g id="a_node7"><a xlink:title="6, diversity: 1, multiplicities: 103, labels: 0">
<ellipse fill="#fb7c5c" stroke="black" cx="412.047" cy="-162" rx="37.0935" ry="18"/>
<text text-anchor="middle" x="412.047" y="-158.3" font-family="Times,serif" font-size="14.00">6 (1): 0</text>
</a>
</g>
</g>
<!-- 0&#45;&gt;6 -->
<g id="edge4" class="edge"><title>0&#45;&gt;6</title>
<path fill="none" stroke="black" d="M298.718,-220.485C320.854,-209.257 353.545,-192.675 378.135,-180.202"/>
<polygon fill="black" stroke="black" points="379.788,-183.287 387.123,-175.642 376.622,-177.045 379.788,-183.287"/>
</g>
<!-- 1 -->
<g id="node2" class="node"><title>1</title>
<g id="a_node2"><a xlink:title="1, diversity: 1, multiplicities: 159, labels: 0">
<ellipse fill="#fb7c5c" stroke="black" cx="274.047" cy="-306" rx="37.0935" ry="18"/>
<text text-anchor="middle" x="274.047" y="-302.3" font-family="Times,serif" font-size="14.00">1 (1): 0</text>
</a>
</g>
</g>
<!-- 1&#45;&gt;0 -->
<g id="edge10" class="edge"><title>1&#45;&gt;0</title>
<path fill="none" stroke="black" d="M274.047,-287.697C274.047,-279.983 274.047,-270.712 274.047,-262.112"/>
<polygon fill="black" stroke="black" points="277.547,-262.104 274.047,-252.104 270.547,-262.104 277.547,-262.104"/>
</g>
<!-- 2 -->
<g id="node3" class="node"><title>2</title>
<g id="a_node3"><a xlink:title="2, diversity: 1, multiplicities: 22, labels: 0">
<ellipse fill="#fca082" stroke="black" cx="231.047" cy="-90" rx="37.0935" ry="18"/>
<text text-anchor="middle" x="231.047" y="-86.3" font-family="Times,serif" font-size="14.00">2 (1): 0</text>
</a>
</g>
</g>
<!-- 7 -->
<g id="node8" class="node"><title>7</title>
<g id="a_node8"><a xlink:title="7, diversity: 1, multiplicities: 14, labels: 0">
<ellipse fill="#fca082" stroke="black" cx="185.047" cy="-18" rx="37.0935" ry="18"/>
<text text-anchor="middle" x="185.047" y="-14.3" font-family="Times,serif" font-size="14.00">7 (1): 0</text>
</a>
</g>
</g>
<!-- 2&#45;&gt;7 -->
<g id="edge1" class="edge"><title>2&#45;&gt;7</title>
<path fill="none" stroke="black" d="M220.145,-72.411C214.588,-63.9549 207.714,-53.4944 201.527,-44.0783"/>
<polygon fill="black" stroke="black" points="204.287,-41.9049 195.87,-35.4699 198.437,-45.7492 204.287,-41.9049"/>
</g>
<!-- 8 -->
<g id="node9" class="node"><title>8</title>
<g id="a_node9"><a xlink:title="8, diversity: 1, multiplicities: 30, labels: 0">
<ellipse fill="#fca082" stroke="black" cx="277.047" cy="-18" rx="37.0935" ry="18"/>
<text text-anchor="middle" x="277.047" y="-14.3" font-family="Times,serif" font-size="14.00">8 (1): 0</text>
</a>
</g>
</g>
<!-- 2&#45;&gt;8 -->
<g id="edge2" class="edge"><title>2&#45;&gt;8</title>
<path fill="none" stroke="black" d="M241.948,-72.411C247.505,-63.9549 254.379,-53.4944 260.567,-44.0783"/>
<polygon fill="black" stroke="black" points="263.657,-45.7492 266.224,-35.4699 257.807,-41.9049 263.657,-45.7492"/>
</g>
<!-- 9 -->
<g id="node10" class="node"><title>9</title>
<g id="a_node10"><a xlink:title="9, diversity: 1, multiplicities: 10, labels: 0">
<ellipse fill="#fcc4ad" stroke="black" cx="37.0467" cy="-90" rx="37.0935" ry="18"/>
<text text-anchor="middle" x="37.0467" y="-86.3" font-family="Times,serif" font-size="14.00">9 (1): 0</text>
</a>
</g>
</g>
<!-- 3&#45;&gt;9 -->
<g id="edge5" class="edge"><title>3&#45;&gt;9</title>
<path fill="none" stroke="black" d="M113.948,-146.496C99.8082,-136.292 80.6952,-122.499 65.0614,-111.217"/>
<polygon fill="black" stroke="black" points="66.9447,-108.26 56.7875,-105.246 62.8484,-113.936 66.9447,-108.26"/>
</g>
<!-- 10 -->
<g id="node11" class="node"><title>10</title>
<g id="a_node11"><a xlink:title="10, diversity: 1, multiplicities: 22, labels: 0">
<ellipse fill="#fca082" stroke="black" cx="134.047" cy="-90" rx="41.6928" ry="18"/>
<text text-anchor="middle" x="134.047" y="-86.3" font-family="Times,serif" font-size="14.00">10 (1): 0</text>
</a>
</g>
</g>
<!-- 3&#45;&gt;10 -->
<g id="edge3" class="edge"><title>3&#45;&gt;10</title>
<path fill="none" stroke="black" d="M134.047,-143.697C134.047,-135.983 134.047,-126.712 134.047,-118.112"/>
<polygon fill="black" stroke="black" points="137.547,-118.104 134.047,-108.104 130.547,-118.104 137.547,-118.104"/>
</g>
<!-- 4&#45;&gt;2 -->
<g id="edge8" class="edge"><title>4&#45;&gt;2</title>
<path fill="none" stroke="black" d="M228.788,-143.697C229.119,-135.983 229.516,-126.712 229.885,-118.112"/>
<polygon fill="black" stroke="black" points="233.382,-118.245 230.314,-108.104 226.389,-117.945 233.382,-118.245"/>
</g>
</g>
</svg>
