<?xml version="1.0" encoding="UTF-8" standalone="no"?>
<!DOCTYPE svg PUBLIC "-//W3C//DTD SVG 1.1//EN"
 "http://www.w3.org/Graphics/SVG/1.1/DTD/svg11.dtd">
<!-- Generated by graphviz version 2.38.0 (20140413.2041)
 -->
<!-- Title: %3 Pages: 1 -->
<svg width="517pt" height="332pt"
 viewBox="0.00 0.00 516.64 332.00" xmlns="http://www.w3.org/2000/svg" xmlns:xlink="http://www.w3.org/1999/xlink">
<g id="graph0" class="graph" transform="scale(1 1) rotate(0) translate(4 328)">
<title>%3</title>
<polygon fill="white" stroke="none" points="-4,4 -4,-328 512.643,-328 512.643,4 -4,4"/>
<!-- 0 -->
<g id="node1" class="node"><title>0</title>
<g id="a_node1"><a xlink:title="0, diversity: 1, multiplicities: 945, labels: 0">
<ellipse fill="#e32f27" stroke="black" cx="221.047" cy="-306" rx="37.0935" ry="18"/>
<text text-anchor="middle" x="221.047" y="-302.3" font-family="Times,serif" font-size="14.00">0 (1): 0</text>
</a>
</g>
</g>
<!-- 1 -->
<g id="node2" class="node"><title>1</title>
<g id="a_node2"><a xlink:title="1, diversity: 1, multiplicities: 57, labels: 0">
<ellipse fill="#fca082" stroke="black" cx="37.0467" cy="-234" rx="37.0935" ry="18"/>
<text text-anchor="middle" x="37.0467" y="-230.3" font-family="Times,serif" font-size="14.00">1 (1): 0</text>
</a>
</g>
</g>
<!-- 0&#45;&gt;1 -->
<g id="edge1" class="edge"><title>0&#45;&gt;1</title>
<path fill="none" stroke="black" d="M192.7,-294.216C161.094,-282.192 109.83,-262.689 74.8349,-249.376"/>
<polygon fill="black" stroke="black" points="76.0167,-246.081 65.4257,-245.796 73.5276,-252.623 76.0167,-246.081"/>
</g>
<!-- 4 -->
<g id="node5" class="node"><title>4</title>
<g id="a_node5"><a xlink:title="4, diversity: 1, multiplicities: 48, labels: 0">
<ellipse fill="#fca082" stroke="black" cx="129.047" cy="-234" rx="37.0935" ry="18"/>
<text text-anchor="middle" x="129.047" y="-230.3" font-family="Times,serif" font-size="14.00">4 (1): 0</text>
</a>
</g>
</g>
<!-- 0&#45;&gt;4 -->
<g id="edge10" class="edge"><title>0&#45;&gt;4</title>
<path fill="none" stroke="black" d="M201.984,-290.496C188.785,-280.453 171.018,-266.934 156.324,-255.754"/>
<polygon fill="black" stroke="black" points="158.162,-252.755 148.085,-249.485 153.924,-258.326 158.162,-252.755"/>
</g>
<!-- 9 -->
<g id="node10" class="node"><title>9</title>
<g id="a_node10"><a xlink:title="9, diversity: 1, multiplicities: 13, labels: 0">
<ellipse fill="#fca082" stroke="black" cx="221.047" cy="-234" rx="37.0935" ry="18"/>
<text text-anchor="middle" x="221.047" y="-230.3" font-family="Times,serif" font-size="14.00">9 (1): 0</text>
</a>
</g>
</g>
<!-- 0&#45;&gt;9 -->
<g id="edge11" class="edge"><title>0&#45;&gt;9</title>
<path fill="none" stroke="black" d="M221.047,-287.697C221.047,-279.983 221.047,-270.712 221.047,-262.112"/>
<polygon fill="black" stroke="black" points="224.547,-262.104 221.047,-252.104 217.547,-262.104 224.547,-262.104"/>
</g>
<!-- 10 -->
<g id="node11" class="node"><title>10</title>
<g id="a_node11"><a xlink:title="10, diversity: 1, multiplicities: 3, labels: 0">
<ellipse fill="#fee3d6" stroke="black" cx="318.047" cy="-234" rx="41.6928" ry="18"/>
<text text-anchor="middle" x="318.047" y="-230.3" font-family="Times,serif" font-size="14.00">10 (1): 0</text>
</a>
</g>
</g>
<!-- 0&#45;&gt;10 -->
<g id="edge9" class="edge"><title>0&#45;&gt;10</title>
<path fill="none" stroke="black" d="M241.145,-290.496C255.098,-280.427 273.893,-266.864 289.409,-255.666"/>
<polygon fill="black" stroke="black" points="291.579,-258.416 297.64,-249.726 287.483,-252.74 291.579,-258.416"/>
</g>
<!-- 12 -->
<g id="node13" class="node"><title>12</title>
<g id="a_node13"><a xlink:title="12, diversity: 1, multiplicities: 1, labels: 0">
<ellipse fill="#fff5f0" stroke="black" cx="419.047" cy="-234" rx="41.6928" ry="18"/>
<text text-anchor="middle" x="419.047" y="-230.3" font-family="Times,serif" font-size="14.00">12 (1): 0</text>
</a>
</g>
</g>
<!-- 0&#45;&gt;12 -->
<g id="edge6" class="edge"><title>0&#45;&gt;12</title>
<path fill="none" stroke="black" d="M250.262,-294.671C284.034,-282.732 339.85,-262.999 377.979,-249.519"/>
<polygon fill="black" stroke="black" points="379.487,-252.698 387.748,-246.065 377.153,-246.099 379.487,-252.698"/>
</g>
<!-- 2 -->
<g id="node3" class="node"><title>2</title>
<g id="a_node3"><a xlink:title="2, diversity: 1, multiplicities: 129, labels: 0">
<ellipse fill="#fb7c5c" stroke="black" cx="370.047" cy="-90" rx="37.0935" ry="18"/>
<text text-anchor="middle" x="370.047" y="-86.3" font-family="Times,serif" font-size="14.00">2 (1): 0</text>
</a>
</g>
</g>
<!-- 8 -->
<g id="node9" class="node"><title>8</title>
<g id="a_node9"><a xlink:title="8, diversity: 1, multiplicities: 7, labels: 0">
<ellipse fill="#fcc4ad" stroke="black" cx="370.047" cy="-18" rx="37.0935" ry="18"/>
<text text-anchor="middle" x="370.047" y="-14.3" font-family="Times,serif" font-size="14.00">8 (1): 0</text>
</a>
</g>
</g>
<!-- 2&#45;&gt;8 -->
<g id="edge4" class="edge"><title>2&#45;&gt;8</title>
<path fill="none" stroke="black" d="M370.047,-71.6966C370.047,-63.9827 370.047,-54.7125 370.047,-46.1124"/>
<polygon fill="black" stroke="black" points="373.547,-46.1043 370.047,-36.1043 366.547,-46.1044 373.547,-46.1043"/>
</g>
<!-- 3 -->
<g id="node4" class="node"><title>3</title>
<g id="a_node4"><a xlink:title="3, diversity: 1, multiplicities: 74, labels: 0">
<ellipse fill="#fca082" stroke="black" cx="467.047" cy="-18" rx="37.0935" ry="18"/>
<text text-anchor="middle" x="467.047" y="-14.3" font-family="Times,serif" font-size="14.00">3 (1): 0</text>
</a>
</g>
</g>
<!-- 5 -->
<g id="node6" class="node"><title>5</title>
<g id="a_node6"><a xlink:title="5, diversity: 1, multiplicities: 61, labels: 0">
<ellipse fill="#fca082" stroke="black" cx="221.047" cy="-162" rx="37.0935" ry="18"/>
<text text-anchor="middle" x="221.047" y="-158.3" font-family="Times,serif" font-size="14.00">5 (1): 0</text>
</a>
</g>
</g>
<!-- 6 -->
<g id="node7" class="node"><title>6</title>
<g id="a_node7"><a xlink:title="6, diversity: 2, multiplicities: 1,266, labels: 0">
<ellipse fill="#f6553c" stroke="black" cx="419.047" cy="-162" rx="37.0935" ry="18"/>
<text text-anchor="middle" x="419.047" y="-158.3" font-family="Times,serif" font-size="14.00">6 (2): 0</text>
</a>
</g>
</g>
<!-- 6&#45;&gt;2 -->
<g id="edge8" class="edge"><title>6&#45;&gt;2</title>
<path fill="none" stroke="black" d="M407.682,-144.765C401.621,-136.106 394.038,-125.273 387.27,-115.604"/>
<polygon fill="black" stroke="black" points="389.952,-113.333 381.35,-107.147 384.217,-117.347 389.952,-113.333"/>
</g>
<!-- 11 -->
<g id="node12" class="node"><title>11</title>
<g id="a_node12"><a xlink:title="11, diversity: 1, multiplicities: 1, labels: 0">
<ellipse fill="#fff5f0" stroke="black" cx="467.047" cy="-90" rx="41.6928" ry="18"/>
<text text-anchor="middle" x="467.047" y="-86.3" font-family="Times,serif" font-size="14.00">11 (1): 0</text>
</a>
</g>
</g>
<!-- 6&#45;&gt;11 -->
<g id="edge7" class="edge"><title>6&#45;&gt;11</title>
<path fill="none" stroke="black" d="M430.18,-144.765C436.032,-136.23 443.333,-125.582 449.891,-116.019"/>
<polygon fill="black" stroke="black" points="452.872,-117.86 455.641,-107.633 447.099,-113.901 452.872,-117.86"/>
</g>
<!-- 7 -->
<g id="node8" class="node"><title>7</title>
<g id="a_node8"><a xlink:title="7, diversity: 2, multiplicities: 1,105, labels: 0">
<ellipse fill="#fb7c5c" stroke="black" cx="318.047" cy="-162" rx="37.0935" ry="18"/>
<text text-anchor="middle" x="318.047" y="-158.3" font-family="Times,serif" font-size="14.00">7 (2): 0</text>
</a>
</g>
</g>
<!-- 9&#45;&gt;5 -->
<g id="edge12" class="edge"><title>9&#45;&gt;5</title>
<path fill="none" stroke="black" d="M221.047,-215.697C221.047,-207.983 221.047,-198.712 221.047,-190.112"/>
<polygon fill="black" stroke="black" points="224.547,-190.104 221.047,-180.104 217.547,-190.104 224.547,-190.104"/>
</g>
<!-- 10&#45;&gt;7 -->
<g id="edge3" class="edge"><title>10&#45;&gt;7</title>
<path fill="none" stroke="black" d="M318.047,-215.697C318.047,-207.983 318.047,-198.712 318.047,-190.112"/>
<polygon fill="black" stroke="black" points="321.547,-190.104 318.047,-180.104 314.547,-190.104 321.547,-190.104"/>
</g>
<!-- 11&#45;&gt;3 -->
<g id="edge5" class="edge"><title>11&#45;&gt;3</title>
<path fill="none" stroke="black" d="M467.047,-71.6966C467.047,-63.9827 467.047,-54.7125 467.047,-46.1124"/>
<polygon fill="black" stroke="black" points="470.547,-46.1043 467.047,-36.1043 463.547,-46.1044 470.547,-46.1043"/>
</g>
<!-- 12&#45;&gt;6 -->
<g id="edge2" class="edge"><title>12&#45;&gt;6</title>
<path fill="none" stroke="black" d="M419.047,-215.697C419.047,-207.983 419.047,-198.712 419.047,-190.112"/>
<polygon fill="black" stroke="black" points="422.547,-190.104 419.047,-180.104 415.547,-190.104 422.547,-190.104"/>
</g>
</g>
</svg>
