<?xml version="1.0" encoding="UTF-8" standalone="no"?>
<!DOCTYPE svg PUBLIC "-//W3C//DTD SVG 1.1//EN"
 "http://www.w3.org/Graphics/SVG/1.1/DTD/svg11.dtd">
<!-- Generated by graphviz version 2.38.0 (20140413.2041)
 -->
<!-- Title: %3 Pages: 1 -->
<svg width="678pt" height="620pt"
 viewBox="0.00 0.00 677.64 620.00" xmlns="http://www.w3.org/2000/svg" xmlns:xlink="http://www.w3.org/1999/xlink">
<g id="graph0" class="graph" transform="scale(1 1) rotate(0) translate(4 616)">
<title>%3</title>
<polygon fill="white" stroke="none" points="-4,4 -4,-616 673.643,-616 673.643,4 -4,4"/>
<!-- 0 -->
<g id="node1" class="node"><title>0</title>
<g id="a_node1"><a xlink:title="0, diversity: 1, multiplicities: 59, labels: 0">
<ellipse fill="#f7fcf5" stroke="black" cx="37.0467" cy="-162" rx="37.0935" ry="18"/>
<text text-anchor="middle" x="37.0467" y="-158.3" font-family="Times,serif" font-size="14.00">0 (1): 0</text>
</a>
</g>
</g>
<!-- 1 -->
<g id="node2" class="node"><title>1</title>
<g id="a_node2"><a xlink:title="1, diversity: 1, multiplicities: 48, labels: 0">
<ellipse fill="#f7fcf5" stroke="black" cx="375.047" cy="-594" rx="37.0935" ry="18"/>
<text text-anchor="middle" x="375.047" y="-590.3" font-family="Times,serif" font-size="14.00">1 (1): 0</text>
</a>
</g>
</g>
<!-- 20 -->
<g id="node21" class="node"><title>20</title>
<g id="a_node21"><a xlink:title="20, diversity: 1, multiplicities: 1, labels: 0">
<ellipse fill="#f7fcf5" stroke="black" cx="375.047" cy="-522" rx="41.6928" ry="18"/>
<text text-anchor="middle" x="375.047" y="-518.3" font-family="Times,serif" font-size="14.00">20 (1): 0</text>
</a>
</g>
</g>
<!-- 1&#45;&gt;20 -->
<g id="edge5" class="edge"><title>1&#45;&gt;20</title>
<path fill="none" stroke="black" d="M375.047,-575.697C375.047,-567.983 375.047,-558.712 375.047,-550.112"/>
<polygon fill="black" stroke="black" points="378.547,-550.104 375.047,-540.104 371.547,-550.104 378.547,-550.104"/>
</g>
<!-- 2 -->
<g id="node3" class="node"><title>2</title>
<g id="a_node3"><a xlink:title="2, diversity: 2, multiplicities: 1,114, labels: 0">
<ellipse fill="#f7fcf5" stroke="black" cx="231.047" cy="-234" rx="37.0935" ry="18"/>
<text text-anchor="middle" x="231.047" y="-230.3" font-family="Times,serif" font-size="14.00">2 (2): 0</text>
</a>
</g>
</g>
<!-- 4 -->
<g id="node5" class="node"><title>4</title>
<g id="a_node5"><a xlink:title="4, diversity: 2, multiplicities: 3,14, labels: 0">
<ellipse fill="#f7fcf5" stroke="black" cx="231.047" cy="-162" rx="37.0935" ry="18"/>
<text text-anchor="middle" x="231.047" y="-158.3" font-family="Times,serif" font-size="14.00">4 (2): 0</text>
</a>
</g>
</g>
<!-- 2&#45;&gt;4 -->
<g id="edge25" class="edge"><title>2&#45;&gt;4</title>
<path fill="none" stroke="black" d="M231.047,-215.697C231.047,-207.983 231.047,-198.712 231.047,-190.112"/>
<polygon fill="black" stroke="black" points="234.547,-190.104 231.047,-180.104 227.547,-190.104 234.547,-190.104"/>
</g>
<!-- 3 -->
<g id="node4" class="node"><title>3</title>
<g id="a_node4"><a xlink:title="3, diversity: 1, multiplicities: 82, labels: 0">
<ellipse fill="#f7fcf5" stroke="black" cx="42.0467" cy="-306" rx="37.0935" ry="18"/>
<text text-anchor="middle" x="42.0467" y="-302.3" font-family="Times,serif" font-size="14.00">3 (1): 0</text>
</a>
</g>
</g>
<!-- 5 -->
<g id="node6" class="node"><title>5</title>
<g id="a_node6"><a xlink:title="5, diversity: 2, multiplicities: 1,144, labels: 0">
<ellipse fill="#f7fcf5" stroke="black" cx="134.047" cy="-306" rx="37.0935" ry="18"/>
<text text-anchor="middle" x="134.047" y="-302.3" font-family="Times,serif" font-size="14.00">5 (2): 0</text>
</a>
</g>
</g>
<!-- 9 -->
<g id="node10" class="node"><title>9</title>
<g id="a_node10"><a xlink:title="9, diversity: 1, multiplicities: 1, labels: 0">
<ellipse fill="#f7fcf5" stroke="black" cx="37.0467" cy="-234" rx="37.0935" ry="18"/>
<text text-anchor="middle" x="37.0467" y="-230.3" font-family="Times,serif" font-size="14.00">9 (1): 0</text>
</a>
</g>
</g>
<!-- 5&#45;&gt;9 -->
<g id="edge1" class="edge"><title>5&#45;&gt;9</title>
<path fill="none" stroke="black" d="M113.948,-290.496C99.8082,-280.292 80.6952,-266.499 65.0614,-255.217"/>
<polygon fill="black" stroke="black" points="66.9447,-252.26 56.7875,-249.246 62.8484,-257.936 66.9447,-252.26"/>
</g>
<!-- 23 -->
<g id="node24" class="node"><title>23</title>
<g id="a_node24"><a xlink:title="23, diversity: 1, multiplicities: 5, labels: 0">
<ellipse fill="#f7fcf5" stroke="black" cx="134.047" cy="-234" rx="41.6928" ry="18"/>
<text text-anchor="middle" x="134.047" y="-230.3" font-family="Times,serif" font-size="14.00">23 (1): 0</text>
</a>
</g>
</g>
<!-- 5&#45;&gt;23 -->
<g id="edge3" class="edge"><title>5&#45;&gt;23</title>
<path fill="none" stroke="black" d="M134.047,-287.697C134.047,-279.983 134.047,-270.712 134.047,-262.112"/>
<polygon fill="black" stroke="black" points="137.547,-262.104 134.047,-252.104 130.547,-262.104 137.547,-262.104"/>
</g>
<!-- 6 -->
<g id="node7" class="node"><title>6</title>
<g id="a_node7"><a xlink:title="6, diversity: 2, multiplicities: 1,89, labels: 0">
<ellipse fill="#f7fcf5" stroke="black" cx="224.047" cy="-378" rx="37.0935" ry="18"/>
<text text-anchor="middle" x="224.047" y="-374.3" font-family="Times,serif" font-size="14.00">6 (2): 0</text>
</a>
</g>
</g>
<!-- 6&#45;&gt;3 -->
<g id="edge9" class="edge"><title>6&#45;&gt;3</title>
<path fill="none" stroke="black" d="M196.008,-366.216C164.88,-354.243 114.472,-334.856 79.8689,-321.547"/>
<polygon fill="black" stroke="black" points="80.7071,-318.119 70.1172,-317.796 78.1942,-324.653 80.7071,-318.119"/>
</g>
<!-- 6&#45;&gt;5 -->
<g id="edge19" class="edge"><title>6&#45;&gt;5</title>
<path fill="none" stroke="black" d="M204.96,-362.155C192.106,-352.157 174.973,-338.832 160.768,-327.783"/>
<polygon fill="black" stroke="black" points="162.84,-324.96 152.797,-321.584 158.542,-330.486 162.84,-324.96"/>
</g>
<!-- 8 -->
<g id="node9" class="node"><title>8</title>
<g id="a_node9"><a xlink:title="8, diversity: 1, multiplicities: 1, labels: 0">
<ellipse fill="#f7fcf5" stroke="black" cx="226.047" cy="-306" rx="37.0935" ry="18"/>
<text text-anchor="middle" x="226.047" y="-302.3" font-family="Times,serif" font-size="14.00">8 (1): 0</text>
</a>
</g>
</g>
<!-- 6&#45;&gt;8 -->
<g id="edge22" class="edge"><title>6&#45;&gt;8</title>
<path fill="none" stroke="black" d="M224.541,-359.697C224.761,-351.983 225.026,-342.712 225.272,-334.112"/>
<polygon fill="black" stroke="black" points="228.771,-334.2 225.558,-324.104 221.774,-334 228.771,-334.2"/>
</g>
<!-- 15 -->
<g id="node16" class="node"><title>15</title>
<g id="a_node16"><a xlink:title="15, diversity: 1, multiplicities: 50, labels: 0">
<ellipse fill="#f7fcf5" stroke="black" cx="323.047" cy="-306" rx="41.6928" ry="18"/>
<text text-anchor="middle" x="323.047" y="-302.3" font-family="Times,serif" font-size="14.00">15 (1): 0</text>
</a>
</g>
</g>
<!-- 6&#45;&gt;15 -->
<g id="edge11" class="edge"><title>6&#45;&gt;15</title>
<path fill="none" stroke="black" d="M244.081,-362.834C258.382,-352.722 277.844,-338.962 293.867,-327.632"/>
<polygon fill="black" stroke="black" points="296.216,-330.257 302.361,-321.626 292.175,-324.542 296.216,-330.257"/>
</g>
<!-- 7 -->
<g id="node8" class="node"><title>7</title>
<g id="a_node8"><a xlink:title="7, diversity: 1, multiplicities: 29, labels: 0">
<ellipse fill="#f7fcf5" stroke="black" cx="134.047" cy="-18" rx="37.0935" ry="18"/>
<text text-anchor="middle" x="134.047" y="-14.3" font-family="Times,serif" font-size="14.00">7 (1): 0</text>
</a>
</g>
</g>
<!-- 8&#45;&gt;2 -->
<g id="edge13" class="edge"><title>8&#45;&gt;2</title>
<path fill="none" stroke="black" d="M227.283,-287.697C227.834,-279.983 228.496,-270.712 229.11,-262.112"/>
<polygon fill="black" stroke="black" points="232.604,-262.328 229.825,-252.104 225.621,-261.83 232.604,-262.328"/>
</g>
<!-- 9&#45;&gt;0 -->
<g id="edge6" class="edge"><title>9&#45;&gt;0</title>
<path fill="none" stroke="black" d="M37.0467,-215.697C37.0467,-207.983 37.0467,-198.712 37.0467,-190.112"/>
<polygon fill="black" stroke="black" points="40.5468,-190.104 37.0467,-180.104 33.5468,-190.104 40.5468,-190.104"/>
</g>
<!-- 10 -->
<g id="node11" class="node"><title>10</title>
<g id="a_node11"><a xlink:title="10, diversity: 1, multiplicities: 143, labels: 0">
<ellipse fill="#f7fcf5" stroke="black" cx="224.047" cy="-450" rx="41.6928" ry="18"/>
<text text-anchor="middle" x="224.047" y="-446.3" font-family="Times,serif" font-size="14.00">10 (1): 0</text>
</a>
</g>
</g>
<!-- 10&#45;&gt;6 -->
<g id="edge2" class="edge"><title>10&#45;&gt;6</title>
<path fill="none" stroke="black" d="M224.047,-431.697C224.047,-423.983 224.047,-414.712 224.047,-406.112"/>
<polygon fill="black" stroke="black" points="227.547,-406.104 224.047,-396.104 220.547,-406.104 227.547,-406.104"/>
</g>
<!-- 11 -->
<g id="node12" class="node"><title>11</title>
<g id="a_node12"><a xlink:title="11, diversity: 1, multiplicities: 41, labels: 0">
<ellipse fill="#f7fcf5" stroke="black" cx="426.047" cy="-306" rx="41.6928" ry="18"/>
<text text-anchor="middle" x="426.047" y="-302.3" font-family="Times,serif" font-size="14.00">11 (1): 0</text>
</a>
</g>
</g>
<!-- 17 -->
<g id="node18" class="node"><title>17</title>
<g id="a_node18"><a xlink:title="17, diversity: 1, multiplicities: 6, labels: 0">
<ellipse fill="#f7fcf5" stroke="black" cx="377.047" cy="-234" rx="41.6928" ry="18"/>
<text text-anchor="middle" x="377.047" y="-230.3" font-family="Times,serif" font-size="14.00">17 (1): 0</text>
</a>
</g>
</g>
<!-- 11&#45;&gt;17 -->
<g id="edge21" class="edge"><title>11&#45;&gt;17</title>
<path fill="none" stroke="black" d="M414.434,-288.411C408.454,-279.868 401.042,-269.278 394.398,-259.787"/>
<polygon fill="black" stroke="black" points="397.178,-257.655 388.576,-251.47 391.443,-261.669 397.178,-257.655"/>
</g>
<!-- 18 -->
<g id="node19" class="node"><title>18</title>
<g id="a_node19"><a xlink:title="18, diversity: 1, multiplicities: 16, labels: 0">
<ellipse fill="#f7fcf5" stroke="black" cx="478.047" cy="-234" rx="41.6928" ry="18"/>
<text text-anchor="middle" x="478.047" y="-230.3" font-family="Times,serif" font-size="14.00">18 (1): 0</text>
</a>
</g>
</g>
<!-- 11&#45;&gt;18 -->
<g id="edge10" class="edge"><title>11&#45;&gt;18</title>
<path fill="none" stroke="black" d="M438.107,-288.765C444.512,-280.143 452.519,-269.365 459.678,-259.727"/>
<polygon fill="black" stroke="black" points="462.537,-261.748 465.69,-251.633 456.918,-257.574 462.537,-261.748"/>
</g>
<!-- 12 -->
<g id="node13" class="node"><title>12</title>
<g id="a_node13"><a xlink:title="12, diversity: 1, multiplicities: 76, labels: 0">
<ellipse fill="#f7fcf5" stroke="black" cx="325.047" cy="-450" rx="41.6928" ry="18"/>
<text text-anchor="middle" x="325.047" y="-446.3" font-family="Times,serif" font-size="14.00">12 (1): 0</text>
</a>
</g>
</g>
<!-- 22 -->
<g id="node23" class="node"><title>22</title>
<g id="a_node23"><a xlink:title="22, diversity: 1, multiplicities: 6, labels: 0">
<ellipse fill="#f7fcf5" stroke="black" cx="325.047" cy="-378" rx="41.6928" ry="18"/>
<text text-anchor="middle" x="325.047" y="-374.3" font-family="Times,serif" font-size="14.00">22 (1): 0</text>
</a>
</g>
</g>
<!-- 12&#45;&gt;22 -->
<g id="edge8" class="edge"><title>12&#45;&gt;22</title>
<path fill="none" stroke="black" d="M325.047,-431.697C325.047,-423.983 325.047,-414.712 325.047,-406.112"/>
<polygon fill="black" stroke="black" points="328.547,-406.104 325.047,-396.104 321.547,-406.104 328.547,-406.104"/>
</g>
<!-- 13 -->
<g id="node14" class="node"><title>13</title>
<g id="a_node14"><a xlink:title="13, diversity: 1, multiplicities: 75, labels: 0">
<ellipse fill="#f7fcf5" stroke="black" cx="426.047" cy="-450" rx="41.6928" ry="18"/>
<text text-anchor="middle" x="426.047" y="-446.3" font-family="Times,serif" font-size="14.00">13 (1): 0</text>
</a>
</g>
</g>
<!-- 19 -->
<g id="node20" class="node"><title>19</title>
<g id="a_node20"><a xlink:title="19, diversity: 1, multiplicities: 1, labels: 0">
<ellipse fill="#f7fcf5" stroke="black" cx="426.047" cy="-378" rx="41.6928" ry="18"/>
<text text-anchor="middle" x="426.047" y="-374.3" font-family="Times,serif" font-size="14.00">19 (1): 0</text>
</a>
</g>
</g>
<!-- 13&#45;&gt;19 -->
<g id="edge16" class="edge"><title>13&#45;&gt;19</title>
<path fill="none" stroke="black" d="M426.047,-431.697C426.047,-423.983 426.047,-414.712 426.047,-406.112"/>
<polygon fill="black" stroke="black" points="429.547,-406.104 426.047,-396.104 422.547,-406.104 429.547,-406.104"/>
</g>
<!-- 14 -->
<g id="node15" class="node"><title>14</title>
<g id="a_node15"><a xlink:title="14, diversity: 1, multiplicities: 111, labels: 0">
<ellipse fill="#f7fcf5" stroke="black" cx="527.047" cy="-450" rx="41.6928" ry="18"/>
<text text-anchor="middle" x="527.047" y="-446.3" font-family="Times,serif" font-size="14.00">14 (1): 0</text>
</a>
</g>
</g>
<!-- 16 -->
<g id="node17" class="node"><title>16</title>
<g id="a_node17"><a xlink:title="16, diversity: 1, multiplicities: 8, labels: 0">
<ellipse fill="#f7fcf5" stroke="black" cx="527.047" cy="-378" rx="41.6928" ry="18"/>
<text text-anchor="middle" x="527.047" y="-374.3" font-family="Times,serif" font-size="14.00">16 (1): 0</text>
</a>
</g>
</g>
<!-- 14&#45;&gt;16 -->
<g id="edge20" class="edge"><title>14&#45;&gt;16</title>
<path fill="none" stroke="black" d="M527.047,-431.697C527.047,-423.983 527.047,-414.712 527.047,-406.112"/>
<polygon fill="black" stroke="black" points="530.547,-406.104 527.047,-396.104 523.547,-406.104 530.547,-406.104"/>
</g>
<!-- 21 -->
<g id="node22" class="node"><title>21</title>
<g id="a_node22"><a xlink:title="21, diversity: 1, multiplicities: 7, labels: 0">
<ellipse fill="#f7fcf5" stroke="black" cx="628.047" cy="-378" rx="41.6928" ry="18"/>
<text text-anchor="middle" x="628.047" y="-374.3" font-family="Times,serif" font-size="14.00">21 (1): 0</text>
</a>
</g>
</g>
<!-- 14&#45;&gt;21 -->
<g id="edge24" class="edge"><title>14&#45;&gt;21</title>
<path fill="none" stroke="black" d="M548.466,-434.155C563.026,-424.064 582.478,-410.583 598.505,-399.474"/>
<polygon fill="black" stroke="black" points="600.779,-402.157 607.004,-393.584 596.792,-396.403 600.779,-402.157"/>
</g>
<!-- 19&#45;&gt;11 -->
<g id="edge4" class="edge"><title>19&#45;&gt;11</title>
<path fill="none" stroke="black" d="M426.047,-359.697C426.047,-351.983 426.047,-342.712 426.047,-334.112"/>
<polygon fill="black" stroke="black" points="429.547,-334.104 426.047,-324.104 422.547,-334.104 429.547,-334.104"/>
</g>
<!-- 20&#45;&gt;10 -->
<g id="edge15" class="edge"><title>20&#45;&gt;10</title>
<path fill="none" stroke="black" d="M347.702,-508.324C323.298,-497.01 287.374,-480.357 260.527,-467.911"/>
<polygon fill="black" stroke="black" points="261.988,-464.731 251.443,-463.7 259.043,-471.082 261.988,-464.731"/>
</g>
<!-- 20&#45;&gt;12 -->
<g id="edge7" class="edge"><title>20&#45;&gt;12</title>
<path fill="none" stroke="black" d="M363.197,-504.411C357.095,-495.868 349.531,-485.278 342.752,-475.787"/>
<polygon fill="black" stroke="black" points="345.471,-473.573 336.811,-467.47 339.775,-477.642 345.471,-473.573"/>
</g>
<!-- 20&#45;&gt;13 -->
<g id="edge12" class="edge"><title>20&#45;&gt;13</title>
<path fill="none" stroke="black" d="M387.133,-504.411C393.357,-495.868 401.072,-485.278 407.987,-475.787"/>
<polygon fill="black" stroke="black" points="410.987,-477.613 414.047,-467.47 405.33,-473.491 410.987,-477.613"/>
</g>
<!-- 20&#45;&gt;14 -->
<g id="edge18" class="edge"><title>20&#45;&gt;14</title>
<path fill="none" stroke="black" d="M402.573,-508.324C427.215,-496.975 463.526,-480.253 490.577,-467.795"/>
<polygon fill="black" stroke="black" points="492.106,-470.944 499.725,-463.582 489.178,-464.586 492.106,-470.944"/>
</g>
<!-- 24 -->
<g id="node25" class="node"><title>24</title>
<g id="a_node25"><a xlink:title="24, diversity: 1, multiplicities: 1, labels: 0">
<ellipse fill="#f7fcf5" stroke="black" cx="134.047" cy="-162" rx="41.6928" ry="18"/>
<text text-anchor="middle" x="134.047" y="-158.3" font-family="Times,serif" font-size="14.00">24 (1): 0</text>
</a>
</g>
</g>
<!-- 23&#45;&gt;24 -->
<g id="edge17" class="edge"><title>23&#45;&gt;24</title>
<path fill="none" stroke="black" d="M134.047,-215.697C134.047,-207.983 134.047,-198.712 134.047,-190.112"/>
<polygon fill="black" stroke="black" points="137.547,-190.104 134.047,-180.104 130.547,-190.104 137.547,-190.104"/>
</g>
<!-- 25 -->
<g id="node26" class="node"><title>25</title>
<g id="a_node26"><a xlink:title="25, diversity: 1, multiplicities: 1, labels: 0">
<ellipse fill="#f7fcf5" stroke="black" cx="134.047" cy="-90" rx="41.6928" ry="18"/>
<text text-anchor="middle" x="134.047" y="-86.3" font-family="Times,serif" font-size="14.00">25 (1): 0</text>
</a>
</g>
</g>
<!-- 24&#45;&gt;25 -->
<g id="edge23" class="edge"><title>24&#45;&gt;25</title>
<path fill="none" stroke="black" d="M134.047,-143.697C134.047,-135.983 134.047,-126.712 134.047,-118.112"/>
<polygon fill="black" stroke="black" points="137.547,-118.104 134.047,-108.104 130.547,-118.104 137.547,-118.104"/>
</g>
<!-- 25&#45;&gt;7 -->
<g id="edge14" class="edge"><title>25&#45;&gt;7</title>
<path fill="none" stroke="black" d="M134.047,-71.6966C134.047,-63.9827 134.047,-54.7125 134.047,-46.1124"/>
<polygon fill="black" stroke="black" points="137.547,-46.1043 134.047,-36.1043 130.547,-46.1044 137.547,-46.1043"/>
</g>
</g>
</svg>
