<?xml version="1.0" encoding="UTF-8" standalone="no"?>
<!DOCTYPE svg PUBLIC "-//W3C//DTD SVG 1.1//EN"
 "http://www.w3.org/Graphics/SVG/1.1/DTD/svg11.dtd">
<!-- Generated by graphviz version 2.38.0 (20140413.2041)
 -->
<!-- Title: %3 Pages: 1 -->
<svg width="266pt" height="332pt"
 viewBox="0.00 0.00 266.09 332.00" xmlns="http://www.w3.org/2000/svg" xmlns:xlink="http://www.w3.org/1999/xlink">
<g id="graph0" class="graph" transform="scale(1 1) rotate(0) translate(4 328)">
<title>%3</title>
<polygon fill="white" stroke="none" points="-4,4 -4,-328 262.093,-328 262.093,4 -4,4"/>
<!-- 0 -->
<g id="node1" class="node"><title>0</title>
<g id="a_node1"><a xlink:title="0, diversity: 1, multiplicities: 388, labels: 0">
<ellipse fill="#f7fcf5" stroke="black" cx="129.047" cy="-162" rx="37.0935" ry="18"/>
<text text-anchor="middle" x="129.047" y="-158.3" font-family="Times,serif" font-size="14.00">0 (1): 0</text>
</a>
</g>
</g>
<!-- 1 -->
<g id="node2" class="node"><title>1</title>
<g id="a_node2"><a xlink:title="1, diversity: 1, multiplicities: 97, labels: 0">
<ellipse fill="#f7fcf5" stroke="black" cx="37.0467" cy="-90" rx="37.0935" ry="18"/>
<text text-anchor="middle" x="37.0467" y="-86.3" font-family="Times,serif" font-size="14.00">1 (1): 0</text>
</a>
</g>
</g>
<!-- 0&#45;&gt;1 -->
<g id="edge1" class="edge"><title>0&#45;&gt;1</title>
<path fill="none" stroke="black" d="M109.984,-146.496C96.7852,-136.453 79.0176,-122.934 64.3235,-111.754"/>
<polygon fill="black" stroke="black" points="66.1624,-108.755 56.0848,-105.485 61.9237,-114.326 66.1624,-108.755"/>
</g>
<!-- 4 -->
<g id="node5" class="node"><title>4</title>
<g id="a_node5"><a xlink:title="4, diversity: 1, multiplicities: 2, labels: 0">
<ellipse fill="#f7fcf5" stroke="black" cx="129.047" cy="-90" rx="37.0935" ry="18"/>
<text text-anchor="middle" x="129.047" y="-86.3" font-family="Times,serif" font-size="14.00">4 (1): 0</text>
</a>
</g>
</g>
<!-- 0&#45;&gt;4 -->
<g id="edge6" class="edge"><title>0&#45;&gt;4</title>
<path fill="none" stroke="black" d="M129.047,-143.697C129.047,-135.983 129.047,-126.712 129.047,-118.112"/>
<polygon fill="black" stroke="black" points="132.547,-118.104 129.047,-108.104 125.547,-118.104 132.547,-118.104"/>
</g>
<!-- 6 -->
<g id="node7" class="node"><title>6</title>
<g id="a_node7"><a xlink:title="6, diversity: 1, multiplicities: 1, labels: 0">
<ellipse fill="#f7fcf5" stroke="black" cx="221.047" cy="-90" rx="37.0935" ry="18"/>
<text text-anchor="middle" x="221.047" y="-86.3" font-family="Times,serif" font-size="14.00">6 (1): 0</text>
</a>
</g>
</g>
<!-- 0&#45;&gt;6 -->
<g id="edge5" class="edge"><title>0&#45;&gt;6</title>
<path fill="none" stroke="black" d="M148.109,-146.496C161.308,-136.453 179.076,-122.934 193.77,-111.754"/>
<polygon fill="black" stroke="black" points="196.17,-114.326 202.009,-105.485 191.931,-108.755 196.17,-114.326"/>
</g>
<!-- 2 -->
<g id="node3" class="node"><title>2</title>
<g id="a_node3"><a xlink:title="2, diversity: 3, multiplicities: 2,80,249, labels: 0">
<ellipse fill="#f7fcf5" stroke="black" cx="129.047" cy="-18" rx="37.0935" ry="18"/>
<text text-anchor="middle" x="129.047" y="-14.3" font-family="Times,serif" font-size="14.00">2 (3): 0</text>
</a>
</g>
</g>
<!-- 3 -->
<g id="node4" class="node"><title>3</title>
<g id="a_node4"><a xlink:title="3, diversity: 1, multiplicities: 78, labels: 0">
<ellipse fill="#f7fcf5" stroke="black" cx="221.047" cy="-18" rx="37.0935" ry="18"/>
<text text-anchor="middle" x="221.047" y="-14.3" font-family="Times,serif" font-size="14.00">3 (1): 0</text>
</a>
</g>
</g>
<!-- 4&#45;&gt;2 -->
<g id="edge7" class="edge"><title>4&#45;&gt;2</title>
<path fill="none" stroke="black" d="M129.047,-71.6966C129.047,-63.9827 129.047,-54.7125 129.047,-46.1124"/>
<polygon fill="black" stroke="black" points="132.547,-46.1043 129.047,-36.1043 125.547,-46.1044 132.547,-46.1043"/>
</g>
<!-- 5 -->
<g id="node6" class="node"><title>5</title>
<g id="a_node6"><a xlink:title="5, diversity: 2, multiplicities: 1,10, labels: 0">
<ellipse fill="#f7fcf5" stroke="black" cx="129.047" cy="-306" rx="37.0935" ry="18"/>
<text text-anchor="middle" x="129.047" y="-302.3" font-family="Times,serif" font-size="14.00">5 (2): 0</text>
</a>
</g>
</g>
<!-- 7 -->
<g id="node8" class="node"><title>7</title>
<g id="a_node8"><a xlink:title="7, diversity: 2, multiplicities: 1,2, labels: 0">
<ellipse fill="#f7fcf5" stroke="black" cx="129.047" cy="-234" rx="37.0935" ry="18"/>
<text text-anchor="middle" x="129.047" y="-230.3" font-family="Times,serif" font-size="14.00">7 (2): 0</text>
</a>
</g>
</g>
<!-- 5&#45;&gt;7 -->
<g id="edge3" class="edge"><title>5&#45;&gt;7</title>
<path fill="none" stroke="black" d="M129.047,-287.697C129.047,-279.983 129.047,-270.712 129.047,-262.112"/>
<polygon fill="black" stroke="black" points="132.547,-262.104 129.047,-252.104 125.547,-262.104 132.547,-262.104"/>
</g>
<!-- 6&#45;&gt;3 -->
<g id="edge4" class="edge"><title>6&#45;&gt;3</title>
<path fill="none" stroke="black" d="M221.047,-71.6966C221.047,-63.9827 221.047,-54.7125 221.047,-46.1124"/>
<polygon fill="black" stroke="black" points="224.547,-46.1043 221.047,-36.1043 217.547,-46.1044 224.547,-46.1043"/>
</g>
<!-- 7&#45;&gt;0 -->
<g id="edge2" class="edge"><title>7&#45;&gt;0</title>
<path fill="none" stroke="black" d="M129.047,-215.697C129.047,-207.983 129.047,-198.712 129.047,-190.112"/>
<polygon fill="black" stroke="black" points="132.547,-190.104 129.047,-180.104 125.547,-190.104 132.547,-190.104"/>
</g>
</g>
</svg>
