<?xml version="1.0" encoding="UTF-8" standalone="no"?>
<!DOCTYPE svg PUBLIC "-//W3C//DTD SVG 1.1//EN"
 "http://www.w3.org/Graphics/SVG/1.1/DTD/svg11.dtd">
<!-- Generated by graphviz version 2.38.0 (20140413.2041)
 -->
<!-- Title: %3 Pages: 1 -->
<svg width="473pt" height="404pt"
 viewBox="0.00 0.00 472.64 404.00" xmlns="http://www.w3.org/2000/svg" xmlns:xlink="http://www.w3.org/1999/xlink">
<g id="graph0" class="graph" transform="scale(1 1) rotate(0) translate(4 400)">
<title>%3</title>
<polygon fill="white" stroke="none" points="-4,4 -4,-400 468.643,-400 468.643,4 -4,4"/>
<!-- 0 -->
<g id="node1" class="node"><title>0</title>
<g id="a_node1"><a xlink:title="0, diversity: 1, multiplicities: 185, labels: 0">
<ellipse fill="#f7fcf5" stroke="black" cx="37.0467" cy="-90" rx="37.0935" ry="18"/>
<text text-anchor="middle" x="37.0467" y="-86.3" font-family="Times,serif" font-size="14.00">0 (1): 0</text>
</a>
</g>
</g>
<!-- 1 -->
<g id="node2" class="node"><title>1</title>
<g id="a_node2"><a xlink:title="1, diversity: 1, multiplicities: 126, labels: 0">
<ellipse fill="#f7fcf5" stroke="black" cx="322.047" cy="-90" rx="37.0935" ry="18"/>
<text text-anchor="middle" x="322.047" y="-86.3" font-family="Times,serif" font-size="14.00">1 (1): 0</text>
</a>
</g>
</g>
<!-- 9 -->
<g id="node10" class="node"><title>9</title>
<g id="a_node10"><a xlink:title="9, diversity: 1, multiplicities: 19, labels: 0">
<ellipse fill="#f7fcf5" stroke="black" cx="322.047" cy="-18" rx="37.0935" ry="18"/>
<text text-anchor="middle" x="322.047" y="-14.3" font-family="Times,serif" font-size="14.00">9 (1): 0</text>
</a>
</g>
</g>
<!-- 1&#45;&gt;9 -->
<g id="edge10" class="edge"><title>1&#45;&gt;9</title>
<path fill="none" stroke="black" d="M322.047,-71.6966C322.047,-63.9827 322.047,-54.7125 322.047,-46.1124"/>
<polygon fill="black" stroke="black" points="325.547,-46.1043 322.047,-36.1043 318.547,-46.1044 325.547,-46.1043"/>
</g>
<!-- 2 -->
<g id="node3" class="node"><title>2</title>
<g id="a_node3"><a xlink:title="2, diversity: 1, multiplicities: 6, labels: 0">
<ellipse fill="#f7fcf5" stroke="black" cx="322.047" cy="-234" rx="37.0935" ry="18"/>
<text text-anchor="middle" x="322.047" y="-230.3" font-family="Times,serif" font-size="14.00">2 (1): 0</text>
</a>
</g>
</g>
<!-- 14 -->
<g id="node15" class="node"><title>14</title>
<g id="a_node15"><a xlink:title="14, diversity: 1, multiplicities: 1, labels: 0">
<ellipse fill="#f7fcf5" stroke="black" cx="322.047" cy="-162" rx="41.6928" ry="18"/>
<text text-anchor="middle" x="322.047" y="-158.3" font-family="Times,serif" font-size="14.00">14 (1): 0</text>
</a>
</g>
</g>
<!-- 2&#45;&gt;14 -->
<g id="edge12" class="edge"><title>2&#45;&gt;14</title>
<path fill="none" stroke="black" d="M322.047,-215.697C322.047,-207.983 322.047,-198.712 322.047,-190.112"/>
<polygon fill="black" stroke="black" points="325.547,-190.104 322.047,-180.104 318.547,-190.104 325.547,-190.104"/>
</g>
<!-- 3 -->
<g id="node4" class="node"><title>3</title>
<g id="a_node4"><a xlink:title="3, diversity: 2, multiplicities: 249,275, labels: 0">
<ellipse fill="#f7fcf5" stroke="black" cx="322.047" cy="-378" rx="37.0935" ry="18"/>
<text text-anchor="middle" x="322.047" y="-374.3" font-family="Times,serif" font-size="14.00">3 (2): 0</text>
</a>
</g>
</g>
<!-- 4 -->
<g id="node5" class="node"><title>4</title>
<g id="a_node5"><a xlink:title="4, diversity: 3, multiplicities: 8,81,100, labels: 0">
<ellipse fill="#f7fcf5" stroke="black" cx="225.047" cy="-306" rx="37.0935" ry="18"/>
<text text-anchor="middle" x="225.047" y="-302.3" font-family="Times,serif" font-size="14.00">4 (3): 0</text>
</a>
</g>
</g>
<!-- 3&#45;&gt;4 -->
<g id="edge13" class="edge"><title>3&#45;&gt;4</title>
<path fill="none" stroke="black" d="M301.948,-362.496C287.808,-352.292 268.695,-338.499 253.061,-327.217"/>
<polygon fill="black" stroke="black" points="254.945,-324.26 244.788,-321.246 250.848,-329.936 254.945,-324.26"/>
</g>
<!-- 10 -->
<g id="node11" class="node"><title>10</title>
<g id="a_node11"><a xlink:title="10, diversity: 1, multiplicities: 1, labels: 0">
<ellipse fill="#f7fcf5" stroke="black" cx="322.047" cy="-306" rx="41.6928" ry="18"/>
<text text-anchor="middle" x="322.047" y="-302.3" font-family="Times,serif" font-size="14.00">10 (1): 0</text>
</a>
</g>
</g>
<!-- 3&#45;&gt;10 -->
<g id="edge4" class="edge"><title>3&#45;&gt;10</title>
<path fill="none" stroke="black" d="M322.047,-359.697C322.047,-351.983 322.047,-342.712 322.047,-334.112"/>
<polygon fill="black" stroke="black" points="325.547,-334.104 322.047,-324.104 318.547,-334.104 325.547,-334.104"/>
</g>
<!-- 15 -->
<g id="node16" class="node"><title>15</title>
<g id="a_node16"><a xlink:title="15, diversity: 1, multiplicities: 1, labels: 0">
<ellipse fill="#f7fcf5" stroke="black" cx="423.047" cy="-306" rx="41.6928" ry="18"/>
<text text-anchor="middle" x="423.047" y="-302.3" font-family="Times,serif" font-size="14.00">15 (1): 0</text>
</a>
</g>
</g>
<!-- 3&#45;&gt;15 -->
<g id="edge2" class="edge"><title>3&#45;&gt;15</title>
<path fill="none" stroke="black" d="M342.486,-362.834C357.076,-352.722 376.93,-338.962 393.278,-327.632"/>
<polygon fill="black" stroke="black" points="395.718,-330.199 401.943,-321.626 391.73,-324.446 395.718,-330.199"/>
</g>
<!-- 11 -->
<g id="node12" class="node"><title>11</title>
<g id="a_node12"><a xlink:title="11, diversity: 2, multiplicities: 1,1, labels: 0">
<ellipse fill="#f7fcf5" stroke="black" cx="124.047" cy="-234" rx="41.6928" ry="18"/>
<text text-anchor="middle" x="124.047" y="-230.3" font-family="Times,serif" font-size="14.00">11 (2): 0</text>
</a>
</g>
</g>
<!-- 4&#45;&gt;11 -->
<g id="edge14" class="edge"><title>4&#45;&gt;11</title>
<path fill="none" stroke="black" d="M204.608,-290.834C190.017,-280.722 170.163,-266.962 153.816,-255.632"/>
<polygon fill="black" stroke="black" points="155.363,-252.446 145.15,-249.626 151.376,-258.199 155.363,-252.446"/>
</g>
<!-- 13 -->
<g id="node14" class="node"><title>13</title>
<g id="a_node14"><a xlink:title="13, diversity: 1, multiplicities: 1, labels: 0">
<ellipse fill="#f7fcf5" stroke="black" cx="225.047" cy="-234" rx="41.6928" ry="18"/>
<text text-anchor="middle" x="225.047" y="-230.3" font-family="Times,serif" font-size="14.00">13 (1): 0</text>
</a>
</g>
</g>
<!-- 4&#45;&gt;13 -->
<g id="edge7" class="edge"><title>4&#45;&gt;13</title>
<path fill="none" stroke="black" d="M225.047,-287.697C225.047,-279.983 225.047,-270.712 225.047,-262.112"/>
<polygon fill="black" stroke="black" points="228.547,-262.104 225.047,-252.104 221.547,-262.104 228.547,-262.104"/>
</g>
<!-- 5 -->
<g id="node6" class="node"><title>5</title>
<g id="a_node6"><a xlink:title="5, diversity: 1, multiplicities: 93, labels: 0">
<ellipse fill="#f7fcf5" stroke="black" cx="225.047" cy="-90" rx="37.0935" ry="18"/>
<text text-anchor="middle" x="225.047" y="-86.3" font-family="Times,serif" font-size="14.00">5 (1): 0</text>
</a>
</g>
</g>
<!-- 6 -->
<g id="node7" class="node"><title>6</title>
<g id="a_node7"><a xlink:title="6, diversity: 1, multiplicities: 92, labels: 0">
<ellipse fill="#f7fcf5" stroke="black" cx="124.047" cy="-162" rx="37.0935" ry="18"/>
<text text-anchor="middle" x="124.047" y="-158.3" font-family="Times,serif" font-size="14.00">6 (1): 0</text>
</a>
</g>
</g>
<!-- 6&#45;&gt;0 -->
<g id="edge5" class="edge"><title>6&#45;&gt;0</title>
<path fill="none" stroke="black" d="M105.596,-146.155C93.3697,-136.317 77.138,-123.257 63.5386,-112.315"/>
<polygon fill="black" stroke="black" points="65.4559,-109.366 55.4706,-105.824 61.0677,-114.82 65.4559,-109.366"/>
</g>
<!-- 8 -->
<g id="node9" class="node"><title>8</title>
<g id="a_node9"><a xlink:title="8, diversity: 1, multiplicities: 5, labels: 0">
<ellipse fill="#f7fcf5" stroke="black" cx="129.047" cy="-90" rx="37.0935" ry="18"/>
<text text-anchor="middle" x="129.047" y="-86.3" font-family="Times,serif" font-size="14.00">8 (1): 0</text>
</a>
</g>
</g>
<!-- 6&#45;&gt;8 -->
<g id="edge3" class="edge"><title>6&#45;&gt;8</title>
<path fill="none" stroke="black" d="M125.283,-143.697C125.834,-135.983 126.496,-126.712 127.11,-118.112"/>
<polygon fill="black" stroke="black" points="130.604,-118.328 127.825,-108.104 123.621,-117.83 130.604,-118.328"/>
</g>
<!-- 7 -->
<g id="node8" class="node"><title>7</title>
<g id="a_node8"><a xlink:title="7, diversity: 1, multiplicities: 58, labels: 0">
<ellipse fill="#f7fcf5" stroke="black" cx="225.047" cy="-162" rx="37.0935" ry="18"/>
<text text-anchor="middle" x="225.047" y="-158.3" font-family="Times,serif" font-size="14.00">7 (1): 0</text>
</a>
</g>
</g>
<!-- 7&#45;&gt;5 -->
<g id="edge9" class="edge"><title>7&#45;&gt;5</title>
<path fill="none" stroke="black" d="M225.047,-143.697C225.047,-135.983 225.047,-126.712 225.047,-118.112"/>
<polygon fill="black" stroke="black" points="228.547,-118.104 225.047,-108.104 221.547,-118.104 228.547,-118.104"/>
</g>
<!-- 10&#45;&gt;2 -->
<g id="edge15" class="edge"><title>10&#45;&gt;2</title>
<path fill="none" stroke="black" d="M322.047,-287.697C322.047,-279.983 322.047,-270.712 322.047,-262.112"/>
<polygon fill="black" stroke="black" points="325.547,-262.104 322.047,-252.104 318.547,-262.104 325.547,-262.104"/>
</g>
<!-- 11&#45;&gt;6 -->
<g id="edge11" class="edge"><title>11&#45;&gt;6</title>
<path fill="none" stroke="black" d="M124.047,-215.697C124.047,-207.983 124.047,-198.712 124.047,-190.112"/>
<polygon fill="black" stroke="black" points="127.547,-190.104 124.047,-180.104 120.547,-190.104 127.547,-190.104"/>
</g>
<!-- 12 -->
<g id="node13" class="node"><title>12</title>
<g id="a_node13"><a xlink:title="12, diversity: 1, multiplicities: 9, labels: 0">
<ellipse fill="#f7fcf5" stroke="black" cx="423.047" cy="-234" rx="41.6928" ry="18"/>
<text text-anchor="middle" x="423.047" y="-230.3" font-family="Times,serif" font-size="14.00">12 (1): 0</text>
</a>
</g>
</g>
<!-- 13&#45;&gt;7 -->
<g id="edge1" class="edge"><title>13&#45;&gt;7</title>
<path fill="none" stroke="black" d="M225.047,-215.697C225.047,-207.983 225.047,-198.712 225.047,-190.112"/>
<polygon fill="black" stroke="black" points="228.547,-190.104 225.047,-180.104 221.547,-190.104 228.547,-190.104"/>
</g>
<!-- 14&#45;&gt;1 -->
<g id="edge8" class="edge"><title>14&#45;&gt;1</title>
<path fill="none" stroke="black" d="M322.047,-143.697C322.047,-135.983 322.047,-126.712 322.047,-118.112"/>
<polygon fill="black" stroke="black" points="325.547,-118.104 322.047,-108.104 318.547,-118.104 325.547,-118.104"/>
</g>
<!-- 15&#45;&gt;12 -->
<g id="edge6" class="edge"><title>15&#45;&gt;12</title>
<path fill="none" stroke="black" d="M423.047,-287.697C423.047,-279.983 423.047,-270.712 423.047,-262.112"/>
<polygon fill="black" stroke="black" points="426.547,-262.104 423.047,-252.104 419.547,-262.104 426.547,-262.104"/>
</g>
</g>
</svg>
