<?xml version="1.0" encoding="UTF-8" standalone="no"?>
<!DOCTYPE svg PUBLIC "-//W3C//DTD SVG 1.1//EN"
 "http://www.w3.org/Graphics/SVG/1.1/DTD/svg11.dtd">
<!-- Generated by graphviz version 2.38.0 (20140413.2041)
 -->
<!-- Title: %3 Pages: 1 -->
<svg width="915pt" height="764pt"
 viewBox="0.00 0.00 914.64 764.00" xmlns="http://www.w3.org/2000/svg" xmlns:xlink="http://www.w3.org/1999/xlink">
<g id="graph0" class="graph" transform="scale(1 1) rotate(0) translate(4 760)">
<title>%3</title>
<polygon fill="white" stroke="none" points="-4,4 -4,-760 910.643,-760 910.643,4 -4,4"/>
<!-- 0 -->
<g id="node1" class="node"><title>0</title>
<g id="a_node1"><a xlink:title="0, diversity: 1, multiplicities: 53, labels: 0">
<ellipse fill="#f7fcf5" stroke="black" cx="152.047" cy="-666" rx="37.0935" ry="18"/>
<text text-anchor="middle" x="152.047" y="-662.3" font-family="Times,serif" font-size="14.00">0 (1): 0</text>
</a>
</g>
</g>
<!-- 1 -->
<g id="node2" class="node"><title>1</title>
<g id="a_node2"><a xlink:title="1, diversity: 1, multiplicities: 60, labels: 0">
<ellipse fill="#f7fcf5" stroke="black" cx="244.047" cy="-666" rx="37.0935" ry="18"/>
<text text-anchor="middle" x="244.047" y="-662.3" font-family="Times,serif" font-size="14.00">1 (1): 0</text>
</a>
</g>
</g>
<!-- 2 -->
<g id="node3" class="node"><title>2</title>
<g id="a_node3"><a xlink:title="2, diversity: 2, multiplicities: 1,24, labels: 0">
<ellipse fill="#f7fcf5" stroke="black" cx="437.047" cy="-450" rx="37.0935" ry="18"/>
<text text-anchor="middle" x="437.047" y="-446.3" font-family="Times,serif" font-size="14.00">2 (2): 0</text>
</a>
</g>
</g>
<!-- 3 -->
<g id="node4" class="node"><title>3</title>
<g id="a_node4"><a xlink:title="3, diversity: 2, multiplicities: 1,134, labels: 0">
<ellipse fill="#f7fcf5" stroke="black" cx="336.047" cy="-666" rx="37.0935" ry="18"/>
<text text-anchor="middle" x="336.047" y="-662.3" font-family="Times,serif" font-size="14.00">3 (2): 0</text>
</a>
</g>
</g>
<!-- 7 -->
<g id="node8" class="node"><title>7</title>
<g id="a_node8"><a xlink:title="7, diversity: 1, multiplicities: 50, labels: 0">
<ellipse fill="#f7fcf5" stroke="black" cx="37.0467" cy="-594" rx="37.0935" ry="18"/>
<text text-anchor="middle" x="37.0467" y="-590.3" font-family="Times,serif" font-size="14.00">7 (1): 0</text>
</a>
</g>
</g>
<!-- 3&#45;&gt;7 -->
<g id="edge7" class="edge"><title>3&#45;&gt;7</title>
<path fill="none" stroke="black" d="M308.09,-653.749C302.194,-651.636 295.966,-649.594 290.047,-648 199.879,-623.714 173.214,-636.286 83.0467,-612 80.2721,-611.253 77.4296,-610.407 74.5852,-609.502"/>
<polygon fill="black" stroke="black" points="75.5983,-606.15 65.0039,-606.251 73.3495,-612.778 75.5983,-606.15"/>
</g>
<!-- 13 -->
<g id="node14" class="node"><title>13</title>
<g id="a_node14"><a xlink:title="13, diversity: 1, multiplicities: 1, labels: 0">
<ellipse fill="#f7fcf5" stroke="black" cx="134.047" cy="-594" rx="41.6928" ry="18"/>
<text text-anchor="middle" x="134.047" y="-590.3" font-family="Times,serif" font-size="14.00">13 (1): 0</text>
</a>
</g>
</g>
<!-- 3&#45;&gt;13 -->
<g id="edge23" class="edge"><title>3&#45;&gt;13</title>
<path fill="none" stroke="black" d="M307.38,-654.272C301.649,-652.165 295.664,-649.991 290.047,-648 243.153,-631.375 231.155,-628.008 184.047,-612 181.187,-611.028 178.236,-610.025 175.264,-609.015"/>
<polygon fill="black" stroke="black" points="176.381,-605.698 165.787,-605.793 174.128,-612.326 176.381,-605.698"/>
</g>
<!-- 17 -->
<g id="node18" class="node"><title>17</title>
<g id="a_node18"><a xlink:title="17, diversity: 1, multiplicities: 1, labels: 0">
<ellipse fill="#f7fcf5" stroke="black" cx="235.047" cy="-594" rx="41.6928" ry="18"/>
<text text-anchor="middle" x="235.047" y="-590.3" font-family="Times,serif" font-size="14.00">17 (1): 0</text>
</a>
</g>
</g>
<!-- 3&#45;&gt;17 -->
<g id="edge9" class="edge"><title>3&#45;&gt;17</title>
<path fill="none" stroke="black" d="M315.608,-650.834C301.017,-640.722 281.163,-626.962 264.816,-615.632"/>
<polygon fill="black" stroke="black" points="266.363,-612.446 256.15,-609.626 262.376,-618.199 266.363,-612.446"/>
</g>
<!-- 20 -->
<g id="node21" class="node"><title>20</title>
<g id="a_node21"><a xlink:title="20, diversity: 2, multiplicities: 1,9, labels: 0">
<ellipse fill="#f7fcf5" stroke="black" cx="336.047" cy="-594" rx="41.6928" ry="18"/>
<text text-anchor="middle" x="336.047" y="-590.3" font-family="Times,serif" font-size="14.00">20 (2): 0</text>
</a>
</g>
</g>
<!-- 3&#45;&gt;20 -->
<g id="edge15" class="edge"><title>3&#45;&gt;20</title>
<path fill="none" stroke="black" d="M336.047,-647.697C336.047,-639.983 336.047,-630.712 336.047,-622.112"/>
<polygon fill="black" stroke="black" points="339.547,-622.104 336.047,-612.104 332.547,-622.104 339.547,-622.104"/>
</g>
<!-- 30 -->
<g id="node31" class="node"><title>30</title>
<g id="a_node31"><a xlink:title="30, diversity: 2, multiplicities: 1,62, labels: 0">
<ellipse fill="#f7fcf5" stroke="black" cx="437.047" cy="-594" rx="41.6928" ry="18"/>
<text text-anchor="middle" x="437.047" y="-590.3" font-family="Times,serif" font-size="14.00">30 (2): 0</text>
</a>
</g>
</g>
<!-- 3&#45;&gt;30 -->
<g id="edge26" class="edge"><title>3&#45;&gt;30</title>
<path fill="none" stroke="black" d="M356.486,-650.834C371.076,-640.722 390.93,-626.962 407.278,-615.632"/>
<polygon fill="black" stroke="black" points="409.718,-618.199 415.943,-609.626 405.73,-612.446 409.718,-618.199"/>
</g>
<!-- 34 -->
<g id="node35" class="node"><title>34</title>
<g id="a_node35"><a xlink:title="34, diversity: 1, multiplicities: 21, labels: 0">
<ellipse fill="#f7fcf5" stroke="black" cx="538.047" cy="-594" rx="41.6928" ry="18"/>
<text text-anchor="middle" x="538.047" y="-590.3" font-family="Times,serif" font-size="14.00">34 (1): 0</text>
</a>
</g>
</g>
<!-- 3&#45;&gt;34 -->
<g id="edge6" class="edge"><title>3&#45;&gt;34</title>
<path fill="none" stroke="black" d="M364.714,-654.272C370.445,-652.165 376.429,-649.991 382.047,-648 428.941,-631.375 440.938,-628.008 488.047,-612 490.906,-611.028 493.857,-610.025 496.829,-609.015"/>
<polygon fill="black" stroke="black" points="497.965,-612.326 506.307,-605.793 495.712,-605.698 497.965,-612.326"/>
</g>
<!-- 4 -->
<g id="node5" class="node"><title>4</title>
<g id="a_node5"><a xlink:title="4, diversity: 1, multiplicities: 130, labels: 0">
<ellipse fill="#f7fcf5" stroke="black" cx="428.047" cy="-666" rx="37.0935" ry="18"/>
<text text-anchor="middle" x="428.047" y="-662.3" font-family="Times,serif" font-size="14.00">4 (1): 0</text>
</a>
</g>
</g>
<!-- 5 -->
<g id="node6" class="node"><title>5</title>
<g id="a_node6"><a xlink:title="5, diversity: 1, multiplicities: 40, labels: 0">
<ellipse fill="#f7fcf5" stroke="black" cx="134.047" cy="-522" rx="37.0935" ry="18"/>
<text text-anchor="middle" x="134.047" y="-518.3" font-family="Times,serif" font-size="14.00">5 (1): 0</text>
</a>
</g>
</g>
<!-- 6 -->
<g id="node7" class="node"><title>6</title>
<g id="a_node7"><a xlink:title="6, diversity: 4, multiplicities: 1,6,79,134, labels: 0">
<ellipse fill="#f7fcf5" stroke="black" cx="336.047" cy="-738" rx="37.0935" ry="18"/>
<text text-anchor="middle" x="336.047" y="-734.3" font-family="Times,serif" font-size="14.00">6 (4): 0</text>
</a>
</g>
</g>
<!-- 6&#45;&gt;0 -->
<g id="edge25" class="edge"><title>6&#45;&gt;0</title>
<path fill="none" stroke="black" d="M307.7,-726.216C276.094,-714.192 224.83,-694.689 189.835,-681.376"/>
<polygon fill="black" stroke="black" points="191.017,-678.081 180.426,-677.796 188.528,-684.623 191.017,-678.081"/>
</g>
<!-- 6&#45;&gt;1 -->
<g id="edge36" class="edge"><title>6&#45;&gt;1</title>
<path fill="none" stroke="black" d="M316.984,-722.496C303.785,-712.453 286.018,-698.934 271.324,-687.754"/>
<polygon fill="black" stroke="black" points="273.162,-684.755 263.085,-681.485 268.924,-690.326 273.162,-684.755"/>
</g>
<!-- 6&#45;&gt;3 -->
<g id="edge16" class="edge"><title>6&#45;&gt;3</title>
<path fill="none" stroke="black" d="M336.047,-719.697C336.047,-711.983 336.047,-702.712 336.047,-694.112"/>
<polygon fill="black" stroke="black" points="339.547,-694.104 336.047,-684.104 332.547,-694.104 339.547,-694.104"/>
</g>
<!-- 6&#45;&gt;4 -->
<g id="edge21" class="edge"><title>6&#45;&gt;4</title>
<path fill="none" stroke="black" d="M355.109,-722.496C368.308,-712.453 386.076,-698.934 400.77,-687.754"/>
<polygon fill="black" stroke="black" points="403.17,-690.326 409.009,-681.485 398.931,-684.755 403.17,-690.326"/>
</g>
<!-- 8 -->
<g id="node9" class="node"><title>8</title>
<g id="a_node9"><a xlink:title="8, diversity: 1, multiplicities: 53, labels: 0">
<ellipse fill="#f7fcf5" stroke="black" cx="639.047" cy="-666" rx="37.0935" ry="18"/>
<text text-anchor="middle" x="639.047" y="-662.3" font-family="Times,serif" font-size="14.00">8 (1): 0</text>
</a>
</g>
</g>
<!-- 6&#45;&gt;8 -->
<g id="edge32" class="edge"><title>6&#45;&gt;8</title>
<path fill="none" stroke="black" d="M368.761,-729.442C423.731,-716.743 534.613,-691.127 595.893,-676.97"/>
<polygon fill="black" stroke="black" points="597.054,-680.294 606.01,-674.632 595.478,-673.473 597.054,-680.294"/>
</g>
<!-- 11 -->
<g id="node12" class="node"><title>11</title>
<g id="a_node12"><a xlink:title="11, diversity: 2, multiplicities: 1,18, labels: 0">
<ellipse fill="#f7fcf5" stroke="black" cx="639.047" cy="-594" rx="41.6928" ry="18"/>
<text text-anchor="middle" x="639.047" y="-590.3" font-family="Times,serif" font-size="14.00">11 (2): 0</text>
</a>
</g>
</g>
<!-- 8&#45;&gt;11 -->
<g id="edge24" class="edge"><title>8&#45;&gt;11</title>
<path fill="none" stroke="black" d="M639.047,-647.697C639.047,-639.983 639.047,-630.712 639.047,-622.112"/>
<polygon fill="black" stroke="black" points="642.547,-622.104 639.047,-612.104 635.547,-622.104 642.547,-622.104"/>
</g>
<!-- 12 -->
<g id="node13" class="node"><title>12</title>
<g id="a_node13"><a xlink:title="12, diversity: 1, multiplicities: 1, labels: 0">
<ellipse fill="#f7fcf5" stroke="black" cx="740.047" cy="-594" rx="41.6928" ry="18"/>
<text text-anchor="middle" x="740.047" y="-590.3" font-family="Times,serif" font-size="14.00">12 (1): 0</text>
</a>
</g>
</g>
<!-- 8&#45;&gt;12 -->
<g id="edge33" class="edge"><title>8&#45;&gt;12</title>
<path fill="none" stroke="black" d="M659.486,-650.834C674.076,-640.722 693.93,-626.962 710.278,-615.632"/>
<polygon fill="black" stroke="black" points="712.718,-618.199 718.943,-609.626 708.73,-612.446 712.718,-618.199"/>
</g>
<!-- 9 -->
<g id="node10" class="node"><title>9</title>
<g id="a_node10"><a xlink:title="9, diversity: 1, multiplicities: 1, labels: 0">
<ellipse fill="#f7fcf5" stroke="black" cx="740.047" cy="-522" rx="37.0935" ry="18"/>
<text text-anchor="middle" x="740.047" y="-518.3" font-family="Times,serif" font-size="14.00">9 (1): 0</text>
</a>
</g>
</g>
<!-- 10 -->
<g id="node11" class="node"><title>10</title>
<g id="a_node11"><a xlink:title="10, diversity: 1, multiplicities: 1, labels: 0">
<ellipse fill="#f7fcf5" stroke="black" cx="740.047" cy="-450" rx="41.6928" ry="18"/>
<text text-anchor="middle" x="740.047" y="-446.3" font-family="Times,serif" font-size="14.00">10 (1): 0</text>
</a>
</g>
</g>
<!-- 9&#45;&gt;10 -->
<g id="edge27" class="edge"><title>9&#45;&gt;10</title>
<path fill="none" stroke="black" d="M740.047,-503.697C740.047,-495.983 740.047,-486.712 740.047,-478.112"/>
<polygon fill="black" stroke="black" points="743.547,-478.104 740.047,-468.104 736.547,-478.104 743.547,-478.104"/>
</g>
<!-- 35 -->
<g id="node36" class="node"><title>35</title>
<g id="a_node36"><a xlink:title="35, diversity: 1, multiplicities: 1, labels: 0">
<ellipse fill="#f7fcf5" stroke="black" cx="740.047" cy="-378" rx="41.6928" ry="18"/>
<text text-anchor="middle" x="740.047" y="-374.3" font-family="Times,serif" font-size="14.00">35 (1): 0</text>
</a>
</g>
</g>
<!-- 10&#45;&gt;35 -->
<g id="edge19" class="edge"><title>10&#45;&gt;35</title>
<path fill="none" stroke="black" d="M740.047,-431.697C740.047,-423.983 740.047,-414.712 740.047,-406.112"/>
<polygon fill="black" stroke="black" points="743.547,-406.104 740.047,-396.104 736.547,-406.104 743.547,-406.104"/>
</g>
<!-- 12&#45;&gt;9 -->
<g id="edge10" class="edge"><title>12&#45;&gt;9</title>
<path fill="none" stroke="black" d="M740.047,-575.697C740.047,-567.983 740.047,-558.712 740.047,-550.112"/>
<polygon fill="black" stroke="black" points="743.547,-550.104 740.047,-540.104 736.547,-550.104 743.547,-550.104"/>
</g>
<!-- 13&#45;&gt;5 -->
<g id="edge37" class="edge"><title>13&#45;&gt;5</title>
<path fill="none" stroke="black" d="M134.047,-575.697C134.047,-567.983 134.047,-558.712 134.047,-550.112"/>
<polygon fill="black" stroke="black" points="137.547,-550.104 134.047,-540.104 130.547,-550.104 137.547,-550.104"/>
</g>
<!-- 14 -->
<g id="node15" class="node"><title>14</title>
<g id="a_node15"><a xlink:title="14, diversity: 1, multiplicities: 22, labels: 0">
<ellipse fill="#f7fcf5" stroke="black" cx="134.047" cy="-450" rx="41.6928" ry="18"/>
<text text-anchor="middle" x="134.047" y="-446.3" font-family="Times,serif" font-size="14.00">14 (1): 0</text>
</a>
</g>
</g>
<!-- 15 -->
<g id="node16" class="node"><title>15</title>
<g id="a_node16"><a xlink:title="15, diversity: 1, multiplicities: 15, labels: 0">
<ellipse fill="#f7fcf5" stroke="black" cx="235.047" cy="-522" rx="41.6928" ry="18"/>
<text text-anchor="middle" x="235.047" y="-518.3" font-family="Times,serif" font-size="14.00">15 (1): 0</text>
</a>
</g>
</g>
<!-- 15&#45;&gt;14 -->
<g id="edge29" class="edge"><title>15&#45;&gt;14</title>
<path fill="none" stroke="black" d="M213.627,-506.155C199.068,-496.064 179.616,-482.583 163.588,-471.474"/>
<polygon fill="black" stroke="black" points="165.302,-468.403 155.089,-465.584 161.314,-474.157 165.302,-468.403"/>
</g>
<!-- 16 -->
<g id="node17" class="node"><title>16</title>
<g id="a_node17"><a xlink:title="16, diversity: 1, multiplicities: 9, labels: 0">
<ellipse fill="#f7fcf5" stroke="black" cx="235.047" cy="-450" rx="41.6928" ry="18"/>
<text text-anchor="middle" x="235.047" y="-446.3" font-family="Times,serif" font-size="14.00">16 (1): 0</text>
</a>
</g>
</g>
<!-- 15&#45;&gt;16 -->
<g id="edge41" class="edge"><title>15&#45;&gt;16</title>
<path fill="none" stroke="black" d="M235.047,-503.697C235.047,-495.983 235.047,-486.712 235.047,-478.112"/>
<polygon fill="black" stroke="black" points="238.547,-478.104 235.047,-468.104 231.547,-478.104 238.547,-478.104"/>
</g>
<!-- 17&#45;&gt;15 -->
<g id="edge11" class="edge"><title>17&#45;&gt;15</title>
<path fill="none" stroke="black" d="M235.047,-575.697C235.047,-567.983 235.047,-558.712 235.047,-550.112"/>
<polygon fill="black" stroke="black" points="238.547,-550.104 235.047,-540.104 231.547,-550.104 238.547,-550.104"/>
</g>
<!-- 18 -->
<g id="node19" class="node"><title>18</title>
<g id="a_node19"><a xlink:title="18, diversity: 1, multiplicities: 96, labels: 0">
<ellipse fill="#f7fcf5" stroke="black" cx="336.047" cy="-378" rx="41.6928" ry="18"/>
<text text-anchor="middle" x="336.047" y="-374.3" font-family="Times,serif" font-size="14.00">18 (1): 0</text>
</a>
</g>
</g>
<!-- 19 -->
<g id="node20" class="node"><title>19</title>
<g id="a_node20"><a xlink:title="19, diversity: 1, multiplicities: 61, labels: 0">
<ellipse fill="#f7fcf5" stroke="black" cx="336.047" cy="-450" rx="41.6928" ry="18"/>
<text text-anchor="middle" x="336.047" y="-446.3" font-family="Times,serif" font-size="14.00">19 (1): 0</text>
</a>
</g>
</g>
<!-- 19&#45;&gt;18 -->
<g id="edge13" class="edge"><title>19&#45;&gt;18</title>
<path fill="none" stroke="black" d="M336.047,-431.697C336.047,-423.983 336.047,-414.712 336.047,-406.112"/>
<polygon fill="black" stroke="black" points="339.547,-406.104 336.047,-396.104 332.547,-406.104 339.547,-406.104"/>
</g>
<!-- 21 -->
<g id="node22" class="node"><title>21</title>
<g id="a_node22"><a xlink:title="21, diversity: 1, multiplicities: 2, labels: 0">
<ellipse fill="#f7fcf5" stroke="black" cx="336.047" cy="-522" rx="41.6928" ry="18"/>
<text text-anchor="middle" x="336.047" y="-518.3" font-family="Times,serif" font-size="14.00">21 (1): 0</text>
</a>
</g>
</g>
<!-- 20&#45;&gt;21 -->
<g id="edge14" class="edge"><title>20&#45;&gt;21</title>
<path fill="none" stroke="black" d="M336.047,-575.697C336.047,-567.983 336.047,-558.712 336.047,-550.112"/>
<polygon fill="black" stroke="black" points="339.547,-550.104 336.047,-540.104 332.547,-550.104 339.547,-550.104"/>
</g>
<!-- 21&#45;&gt;19 -->
<g id="edge20" class="edge"><title>21&#45;&gt;19</title>
<path fill="none" stroke="black" d="M336.047,-503.697C336.047,-495.983 336.047,-486.712 336.047,-478.112"/>
<polygon fill="black" stroke="black" points="339.547,-478.104 336.047,-468.104 332.547,-478.104 339.547,-478.104"/>
</g>
<!-- 22 -->
<g id="node23" class="node"><title>22</title>
<g id="a_node23"><a xlink:title="22, diversity: 1, multiplicities: 47, labels: 0">
<ellipse fill="#f7fcf5" stroke="black" cx="740.047" cy="-306" rx="41.6928" ry="18"/>
<text text-anchor="middle" x="740.047" y="-302.3" font-family="Times,serif" font-size="14.00">22 (1): 0</text>
</a>
</g>
</g>
<!-- 24 -->
<g id="node25" class="node"><title>24</title>
<g id="a_node25"><a xlink:title="24, diversity: 1, multiplicities: 29, labels: 0">
<ellipse fill="#f7fcf5" stroke="black" cx="714.047" cy="-234" rx="41.6928" ry="18"/>
<text text-anchor="middle" x="714.047" y="-230.3" font-family="Times,serif" font-size="14.00">24 (1): 0</text>
</a>
</g>
</g>
<!-- 22&#45;&gt;24 -->
<g id="edge22" class="edge"><title>22&#45;&gt;24</title>
<path fill="none" stroke="black" d="M733.753,-288.055C730.826,-280.176 727.276,-270.617 723.999,-261.794"/>
<polygon fill="black" stroke="black" points="727.226,-260.431 720.463,-252.275 720.664,-262.868 727.226,-260.431"/>
</g>
<!-- 36 -->
<g id="node37" class="node"><title>36</title>
<g id="a_node37"><a xlink:title="36, diversity: 1, multiplicities: 2, labels: 0">
<ellipse fill="#f7fcf5" stroke="black" cx="815.047" cy="-234" rx="41.6928" ry="18"/>
<text text-anchor="middle" x="815.047" y="-230.3" font-family="Times,serif" font-size="14.00">36 (1): 0</text>
</a>
</g>
</g>
<!-- 22&#45;&gt;36 -->
<g id="edge39" class="edge"><title>22&#45;&gt;36</title>
<path fill="none" stroke="black" d="M756.692,-289.465C766.72,-280.105 779.666,-268.022 790.815,-257.616"/>
<polygon fill="black" stroke="black" points="793.267,-260.116 798.189,-250.734 788.49,-254.998 793.267,-260.116"/>
</g>
<!-- 23 -->
<g id="node24" class="node"><title>23</title>
<g id="a_node24"><a xlink:title="23, diversity: 1, multiplicities: 34, labels: 0">
<ellipse fill="#f7fcf5" stroke="black" cx="462.047" cy="-306" rx="41.6928" ry="18"/>
<text text-anchor="middle" x="462.047" y="-302.3" font-family="Times,serif" font-size="14.00">23 (1): 0</text>
</a>
</g>
</g>
<!-- 28 -->
<g id="node29" class="node"><title>28</title>
<g id="a_node29"><a xlink:title="28, diversity: 1, multiplicities: 22, labels: 0">
<ellipse fill="#f7fcf5" stroke="black" cx="462.047" cy="-234" rx="41.6928" ry="18"/>
<text text-anchor="middle" x="462.047" y="-230.3" font-family="Times,serif" font-size="14.00">28 (1): 0</text>
</a>
</g>
</g>
<!-- 23&#45;&gt;28 -->
<g id="edge34" class="edge"><title>23&#45;&gt;28</title>
<path fill="none" stroke="black" d="M462.047,-287.697C462.047,-279.983 462.047,-270.712 462.047,-262.112"/>
<polygon fill="black" stroke="black" points="465.547,-262.104 462.047,-252.104 458.547,-262.104 465.547,-262.104"/>
</g>
<!-- 25 -->
<g id="node26" class="node"><title>25</title>
<g id="a_node26"><a xlink:title="25, diversity: 1, multiplicities: 8, labels: 0">
<ellipse fill="#f7fcf5" stroke="black" cx="462.047" cy="-90" rx="41.6928" ry="18"/>
<text text-anchor="middle" x="462.047" y="-86.3" font-family="Times,serif" font-size="14.00">25 (1): 0</text>
</a>
</g>
</g>
<!-- 32 -->
<g id="node33" class="node"><title>32</title>
<g id="a_node33"><a xlink:title="32, diversity: 1, multiplicities: 7, labels: 0">
<ellipse fill="#f7fcf5" stroke="black" cx="462.047" cy="-18" rx="41.6928" ry="18"/>
<text text-anchor="middle" x="462.047" y="-14.3" font-family="Times,serif" font-size="14.00">32 (1): 0</text>
</a>
</g>
</g>
<!-- 25&#45;&gt;32 -->
<g id="edge5" class="edge"><title>25&#45;&gt;32</title>
<path fill="none" stroke="black" d="M462.047,-71.6966C462.047,-63.9827 462.047,-54.7125 462.047,-46.1124"/>
<polygon fill="black" stroke="black" points="465.547,-46.1043 462.047,-36.1043 458.547,-46.1044 465.547,-46.1043"/>
</g>
<!-- 26 -->
<g id="node27" class="node"><title>26</title>
<g id="a_node27"><a xlink:title="26, diversity: 1, multiplicities: 9, labels: 0">
<ellipse fill="#f7fcf5" stroke="black" cx="764.047" cy="-162" rx="41.6928" ry="18"/>
<text text-anchor="middle" x="764.047" y="-158.3" font-family="Times,serif" font-size="14.00">26 (1): 0</text>
</a>
</g>
</g>
<!-- 31 -->
<g id="node32" class="node"><title>31</title>
<g id="a_node32"><a xlink:title="31, diversity: 1, multiplicities: 8, labels: 0">
<ellipse fill="#f7fcf5" stroke="black" cx="764.047" cy="-90" rx="41.6928" ry="18"/>
<text text-anchor="middle" x="764.047" y="-86.3" font-family="Times,serif" font-size="14.00">31 (1): 0</text>
</a>
</g>
</g>
<!-- 26&#45;&gt;31 -->
<g id="edge38" class="edge"><title>26&#45;&gt;31</title>
<path fill="none" stroke="black" d="M764.047,-143.697C764.047,-135.983 764.047,-126.712 764.047,-118.112"/>
<polygon fill="black" stroke="black" points="767.547,-118.104 764.047,-108.104 760.547,-118.104 767.547,-118.104"/>
</g>
<!-- 27 -->
<g id="node28" class="node"><title>27</title>
<g id="a_node28"><a xlink:title="27, diversity: 1, multiplicities: 8, labels: 0">
<ellipse fill="#f7fcf5" stroke="black" cx="538.047" cy="-378" rx="41.6928" ry="18"/>
<text text-anchor="middle" x="538.047" y="-374.3" font-family="Times,serif" font-size="14.00">27 (1): 0</text>
</a>
</g>
</g>
<!-- 27&#45;&gt;23 -->
<g id="edge3" class="edge"><title>27&#45;&gt;23</title>
<path fill="none" stroke="black" d="M521.18,-361.465C510.947,-352.04 497.716,-339.853 486.365,-329.398"/>
<polygon fill="black" stroke="black" points="488.593,-326.692 478.866,-322.492 483.851,-331.841 488.593,-326.692"/>
</g>
<!-- 29 -->
<g id="node30" class="node"><title>29</title>
<g id="a_node30"><a xlink:title="29, diversity: 1, multiplicities: 9, labels: 0">
<ellipse fill="#f7fcf5" stroke="black" cx="563.047" cy="-306" rx="41.6928" ry="18"/>
<text text-anchor="middle" x="563.047" y="-302.3" font-family="Times,serif" font-size="14.00">29 (1): 0</text>
</a>
</g>
</g>
<!-- 27&#45;&gt;29 -->
<g id="edge18" class="edge"><title>27&#45;&gt;29</title>
<path fill="none" stroke="black" d="M544.099,-360.055C546.912,-352.176 550.327,-342.617 553.477,-333.794"/>
<polygon fill="black" stroke="black" points="556.81,-334.87 556.877,-324.275 550.217,-332.516 556.81,-334.87"/>
</g>
<!-- 37 -->
<g id="node38" class="node"><title>37</title>
<g id="a_node38"><a xlink:title="37, diversity: 1, multiplicities: 1, labels: 0">
<ellipse fill="#f7fcf5" stroke="black" cx="462.047" cy="-162" rx="41.6928" ry="18"/>
<text text-anchor="middle" x="462.047" y="-158.3" font-family="Times,serif" font-size="14.00">37 (1): 0</text>
</a>
</g>
</g>
<!-- 28&#45;&gt;37 -->
<g id="edge1" class="edge"><title>28&#45;&gt;37</title>
<path fill="none" stroke="black" d="M462.047,-215.697C462.047,-207.983 462.047,-198.712 462.047,-190.112"/>
<polygon fill="black" stroke="black" points="465.547,-190.104 462.047,-180.104 458.547,-190.104 465.547,-190.104"/>
</g>
<!-- 33 -->
<g id="node34" class="node"><title>33</title>
<g id="a_node34"><a xlink:title="33, diversity: 1, multiplicities: 5, labels: 0">
<ellipse fill="#f7fcf5" stroke="black" cx="563.047" cy="-234" rx="41.6928" ry="18"/>
<text text-anchor="middle" x="563.047" y="-230.3" font-family="Times,serif" font-size="14.00">33 (1): 0</text>
</a>
</g>
</g>
<!-- 29&#45;&gt;33 -->
<g id="edge28" class="edge"><title>29&#45;&gt;33</title>
<path fill="none" stroke="black" d="M563.047,-287.697C563.047,-279.983 563.047,-270.712 563.047,-262.112"/>
<polygon fill="black" stroke="black" points="566.547,-262.104 563.047,-252.104 559.547,-262.104 566.547,-262.104"/>
</g>
<!-- 38 -->
<g id="node39" class="node"><title>38</title>
<g id="a_node39"><a xlink:title="38, diversity: 1, multiplicities: 1, labels: 0">
<ellipse fill="#f7fcf5" stroke="black" cx="437.047" cy="-522" rx="41.6928" ry="18"/>
<text text-anchor="middle" x="437.047" y="-518.3" font-family="Times,serif" font-size="14.00">38 (1): 0</text>
</a>
</g>
</g>
<!-- 30&#45;&gt;38 -->
<g id="edge40" class="edge"><title>30&#45;&gt;38</title>
<path fill="none" stroke="black" d="M437.047,-575.697C437.047,-567.983 437.047,-558.712 437.047,-550.112"/>
<polygon fill="black" stroke="black" points="440.547,-550.104 437.047,-540.104 433.547,-550.104 440.547,-550.104"/>
</g>
<!-- 39 -->
<g id="node40" class="node"><title>39</title>
<g id="a_node40"><a xlink:title="39, diversity: 1, multiplicities: 1, labels: 0">
<ellipse fill="#f7fcf5" stroke="black" cx="538.047" cy="-522" rx="41.6928" ry="18"/>
<text text-anchor="middle" x="538.047" y="-518.3" font-family="Times,serif" font-size="14.00">39 (1): 0</text>
</a>
</g>
</g>
<!-- 34&#45;&gt;39 -->
<g id="edge12" class="edge"><title>34&#45;&gt;39</title>
<path fill="none" stroke="black" d="M538.047,-575.697C538.047,-567.983 538.047,-558.712 538.047,-550.112"/>
<polygon fill="black" stroke="black" points="541.547,-550.104 538.047,-540.104 534.547,-550.104 541.547,-550.104"/>
</g>
<!-- 35&#45;&gt;22 -->
<g id="edge2" class="edge"><title>35&#45;&gt;22</title>
<path fill="none" stroke="black" d="M740.047,-359.697C740.047,-351.983 740.047,-342.712 740.047,-334.112"/>
<polygon fill="black" stroke="black" points="743.547,-334.104 740.047,-324.104 736.547,-334.104 743.547,-334.104"/>
</g>
<!-- 36&#45;&gt;26 -->
<g id="edge4" class="edge"><title>36&#45;&gt;26</title>
<path fill="none" stroke="black" d="M802.96,-216.411C796.736,-207.868 789.021,-197.278 782.106,-187.787"/>
<polygon fill="black" stroke="black" points="784.764,-185.491 776.046,-179.47 779.106,-189.613 784.764,-185.491"/>
</g>
<!-- 41 -->
<g id="node42" class="node"><title>41</title>
<g id="a_node42"><a xlink:title="41, diversity: 2, multiplicities: 1,5, labels: 0">
<ellipse fill="#f7fcf5" stroke="black" cx="865.047" cy="-162" rx="41.6928" ry="18"/>
<text text-anchor="middle" x="865.047" y="-158.3" font-family="Times,serif" font-size="14.00">41 (2): 0</text>
</a>
</g>
</g>
<!-- 36&#45;&gt;41 -->
<g id="edge31" class="edge"><title>36&#45;&gt;41</title>
<path fill="none" stroke="black" d="M826.896,-216.411C832.998,-207.868 840.562,-197.278 847.341,-187.787"/>
<polygon fill="black" stroke="black" points="850.318,-189.642 853.282,-179.47 844.622,-185.573 850.318,-189.642"/>
</g>
<!-- 37&#45;&gt;25 -->
<g id="edge30" class="edge"><title>37&#45;&gt;25</title>
<path fill="none" stroke="black" d="M462.047,-143.697C462.047,-135.983 462.047,-126.712 462.047,-118.112"/>
<polygon fill="black" stroke="black" points="465.547,-118.104 462.047,-108.104 458.547,-118.104 465.547,-118.104"/>
</g>
<!-- 38&#45;&gt;2 -->
<g id="edge17" class="edge"><title>38&#45;&gt;2</title>
<path fill="none" stroke="black" d="M437.047,-503.697C437.047,-495.983 437.047,-486.712 437.047,-478.112"/>
<polygon fill="black" stroke="black" points="440.547,-478.104 437.047,-468.104 433.547,-478.104 440.547,-478.104"/>
</g>
<!-- 40 -->
<g id="node41" class="node"><title>40</title>
<g id="a_node41"><a xlink:title="40, diversity: 2, multiplicities: 1,16, labels: 0">
<ellipse fill="#f7fcf5" stroke="black" cx="538.047" cy="-450" rx="41.6928" ry="18"/>
<text text-anchor="middle" x="538.047" y="-446.3" font-family="Times,serif" font-size="14.00">40 (2): 0</text>
</a>
</g>
</g>
<!-- 39&#45;&gt;40 -->
<g id="edge35" class="edge"><title>39&#45;&gt;40</title>
<path fill="none" stroke="black" d="M538.047,-503.697C538.047,-495.983 538.047,-486.712 538.047,-478.112"/>
<polygon fill="black" stroke="black" points="541.547,-478.104 538.047,-468.104 534.547,-478.104 541.547,-478.104"/>
</g>
<!-- 40&#45;&gt;27 -->
<g id="edge8" class="edge"><title>40&#45;&gt;27</title>
<path fill="none" stroke="black" d="M538.047,-431.697C538.047,-423.983 538.047,-414.712 538.047,-406.112"/>
<polygon fill="black" stroke="black" points="541.547,-406.104 538.047,-396.104 534.547,-406.104 541.547,-406.104"/>
</g>
</g>
</svg>
