<?xml version="1.0" encoding="UTF-8" standalone="no"?>
<!DOCTYPE svg PUBLIC "-//W3C//DTD SVG 1.1//EN"
 "http://www.w3.org/Graphics/SVG/1.1/DTD/svg11.dtd">
<!-- Generated by graphviz version 2.38.0 (20140413.2041)
 -->
<!-- Title: %3 Pages: 1 -->
<svg width="480pt" height="2420pt"
 viewBox="0.00 0.00 479.64 2420.00" xmlns="http://www.w3.org/2000/svg" xmlns:xlink="http://www.w3.org/1999/xlink">
<g id="graph0" class="graph" transform="scale(1 1) rotate(0) translate(4 2416)">
<title>%3</title>
<polygon fill="white" stroke="none" points="-4,4 -4,-2416 475.643,-2416 475.643,4 -4,4"/>
<!-- 0 -->
<g id="node1" class="node"><title>0</title>
<g id="a_node1"><a xlink:title="0, diversity: 6, multiplicities: 2,4,5,7,8,1139, labels: 0">
<ellipse fill="#c2161b" stroke="black" cx="232.047" cy="-1818" rx="37.0935" ry="18"/>
<text text-anchor="middle" x="232.047" y="-1814.3" font-family="Times,serif" font-size="14.00">0 (6): 0</text>
</a>
</g>
</g>
<!-- 2 -->
<g id="node3" class="node"><title>2</title>
<g id="a_node3"><a xlink:title="2, diversity: 2, multiplicities: 4,6, labels: 0">
<ellipse fill="#fcc4ad" stroke="black" cx="328.047" cy="-1746" rx="37.0935" ry="18"/>
<text text-anchor="middle" x="328.047" y="-1742.3" font-family="Times,serif" font-size="14.00">2 (2): 0</text>
</a>
</g>
</g>
<!-- 0&#45;&gt;2 -->
<g id="edge61" class="edge"><title>0&#45;&gt;2</title>
<path fill="none" stroke="black" d="M247.632,-1801.46C260.747,-1791 279.653,-1777.12 295.911,-1766"/>
<polygon fill="black" stroke="black" points="298.275,-1768.63 304.617,-1760.14 294.367,-1762.82 298.275,-1768.63"/>
</g>
<!-- 5 -->
<g id="node6" class="node"><title>5</title>
<g id="a_node6"><a xlink:title="5, diversity: 4, multiplicities: 1,1,2,3, labels: 0">
<ellipse fill="#fcc4ad" stroke="black" cx="234.047" cy="-1746" rx="37.0935" ry="18"/>
<text text-anchor="middle" x="234.047" y="-1742.3" font-family="Times,serif" font-size="14.00">5 (4): 0</text>
</a>
</g>
</g>
<!-- 0&#45;&gt;5 -->
<g id="edge45" class="edge"><title>0&#45;&gt;5</title>
<path fill="none" stroke="black" d="M232.541,-1799.7C232.761,-1791.98 233.026,-1782.71 233.272,-1774.11"/>
<polygon fill="black" stroke="black" points="236.771,-1774.2 233.558,-1764.1 229.774,-1774 236.771,-1774.2"/>
</g>
<!-- 6 -->
<g id="node7" class="node"><title>6</title>
<g id="a_node7"><a xlink:title="6, diversity: 2, multiplicities: 1,2, labels: 0">
<ellipse fill="#fee3d6" stroke="black" cx="38.0467" cy="-1746" rx="37.0935" ry="18"/>
<text text-anchor="middle" x="38.0467" y="-1742.3" font-family="Times,serif" font-size="14.00">6 (2): 0</text>
</a>
</g>
</g>
<!-- 0&#45;&gt;6 -->
<g id="edge23" class="edge"><title>0&#45;&gt;6</title>
<path fill="none" stroke="black" d="M203.089,-1806.73C173.231,-1796.11 125.339,-1779.02 84.0467,-1764 81.5089,-1763.08 78.8938,-1762.12 76.2595,-1761.16"/>
<polygon fill="black" stroke="black" points="77.3335,-1757.82 66.74,-1757.65 74.9174,-1764.39 77.3335,-1757.82"/>
</g>
<!-- 11 -->
<g id="node12" class="node"><title>11</title>
<g id="a_node12"><a xlink:title="11, diversity: 1, multiplicities: 5, labels: 0">
<ellipse fill="#fee3d6" stroke="black" cx="135.047" cy="-1746" rx="41.6928" ry="18"/>
<text text-anchor="middle" x="135.047" y="-1742.3" font-family="Times,serif" font-size="14.00">11 (1): 0</text>
</a>
</g>
</g>
<!-- 0&#45;&gt;11 -->
<g id="edge27" class="edge"><title>0&#45;&gt;11</title>
<path fill="none" stroke="black" d="M211.948,-1802.5C197.995,-1792.43 179.201,-1778.86 163.684,-1767.67"/>
<polygon fill="black" stroke="black" points="165.61,-1764.74 155.453,-1761.73 161.514,-1770.42 165.61,-1764.74"/>
</g>
<!-- 1 -->
<g id="node2" class="node"><title>1</title>
<g id="a_node2"><a xlink:title="1, diversity: 1, multiplicities: 6, labels: 0">
<ellipse fill="#fcc4ad" stroke="black" cx="430.047" cy="-1746" rx="37.0935" ry="18"/>
<text text-anchor="middle" x="430.047" y="-1742.3" font-family="Times,serif" font-size="14.00">1 (1): 0</text>
</a>
</g>
</g>
<!-- 2&#45;&gt;0 -->
<g id="edge54" class="edge"><title>2&#45;&gt;0</title>
<path fill="none" stroke="black" d="M312.441,-1762.55C299.336,-1773.01 280.457,-1786.86 264.214,-1797.98"/>
<polygon fill="black" stroke="black" points="261.857,-1795.35 255.515,-1803.83 265.765,-1801.15 261.857,-1795.35"/>
</g>
<!-- 44 -->
<g id="node45" class="node"><title>44</title>
<g id="a_node45"><a xlink:title="44, diversity: 1, multiplicities: 1, labels: 0">
<ellipse fill="#fff5f0" stroke="black" cx="336.047" cy="-1674" rx="41.6928" ry="18"/>
<text text-anchor="middle" x="336.047" y="-1670.3" font-family="Times,serif" font-size="14.00">44 (1): 0</text>
</a>
</g>
</g>
<!-- 2&#45;&gt;44 -->
<g id="edge56" class="edge"><title>2&#45;&gt;44</title>
<path fill="none" stroke="black" d="M330.024,-1727.7C330.906,-1719.98 331.965,-1710.71 332.948,-1702.11"/>
<polygon fill="black" stroke="black" points="336.434,-1702.44 334.092,-1692.1 329.479,-1701.64 336.434,-1702.44"/>
</g>
<!-- 3 -->
<g id="node4" class="node"><title>3</title>
<g id="a_node4"><a xlink:title="3, diversity: 1, multiplicities: 1, labels: 0">
<ellipse fill="#fff5f0" stroke="black" cx="430.047" cy="-1890" rx="37.0935" ry="18"/>
<text text-anchor="middle" x="430.047" y="-1886.3" font-family="Times,serif" font-size="14.00">3 (1): 0</text>
</a>
</g>
</g>
<!-- 26 -->
<g id="node27" class="node"><title>26</title>
<g id="a_node27"><a xlink:title="26, diversity: 1, multiplicities: 7, labels: 0">
<ellipse fill="#fcc4ad" stroke="black" cx="430.047" cy="-1818" rx="41.6928" ry="18"/>
<text text-anchor="middle" x="430.047" y="-1814.3" font-family="Times,serif" font-size="14.00">26 (1): 0</text>
</a>
</g>
</g>
<!-- 3&#45;&gt;26 -->
<g id="edge47" class="edge"><title>3&#45;&gt;26</title>
<path fill="none" stroke="black" d="M430.047,-1871.7C430.047,-1863.98 430.047,-1854.71 430.047,-1846.11"/>
<polygon fill="black" stroke="black" points="433.547,-1846.1 430.047,-1836.1 426.547,-1846.1 433.547,-1846.1"/>
</g>
<!-- 4 -->
<g id="node5" class="node"><title>4</title>
<g id="a_node5"><a xlink:title="4, diversity: 1, multiplicities: 3, labels: 0">
<ellipse fill="#fee3d6" stroke="black" cx="235.047" cy="-1386" rx="37.0935" ry="18"/>
<text text-anchor="middle" x="235.047" y="-1382.3" font-family="Times,serif" font-size="14.00">4 (1): 0</text>
</a>
</g>
</g>
<!-- 30 -->
<g id="node31" class="node"><title>30</title>
<g id="a_node31"><a xlink:title="30, diversity: 1, multiplicities: 1, labels: 0">
<ellipse fill="#fff5f0" stroke="black" cx="235.047" cy="-1314" rx="41.6928" ry="18"/>
<text text-anchor="middle" x="235.047" y="-1310.3" font-family="Times,serif" font-size="14.00">30 (1): 0</text>
</a>
</g>
</g>
<!-- 4&#45;&gt;30 -->
<g id="edge53" class="edge"><title>4&#45;&gt;30</title>
<path fill="none" stroke="black" d="M235.047,-1367.7C235.047,-1359.98 235.047,-1350.71 235.047,-1342.11"/>
<polygon fill="black" stroke="black" points="238.547,-1342.1 235.047,-1332.1 231.547,-1342.1 238.547,-1342.1"/>
</g>
<!-- 22 -->
<g id="node23" class="node"><title>22</title>
<g id="a_node23"><a xlink:title="22, diversity: 1, multiplicities: 1, labels: 0">
<ellipse fill="#fff5f0" stroke="black" cx="235.047" cy="-1674" rx="41.6928" ry="18"/>
<text text-anchor="middle" x="235.047" y="-1670.3" font-family="Times,serif" font-size="14.00">22 (1): 0</text>
</a>
</g>
</g>
<!-- 5&#45;&gt;22 -->
<g id="edge32" class="edge"><title>5&#45;&gt;22</title>
<path fill="none" stroke="black" d="M234.294,-1727.7C234.404,-1719.98 234.537,-1710.71 234.659,-1702.11"/>
<polygon fill="black" stroke="black" points="238.159,-1702.15 234.802,-1692.1 231.16,-1702.05 238.159,-1702.15"/>
</g>
<!-- 9 -->
<g id="node10" class="node"><title>9</title>
<g id="a_node10"><a xlink:title="9, diversity: 1, multiplicities: 24, labels: 0">
<ellipse fill="#fca082" stroke="black" cx="37.0467" cy="-1674" rx="37.0935" ry="18"/>
<text text-anchor="middle" x="37.0467" y="-1670.3" font-family="Times,serif" font-size="14.00">9 (1): 0</text>
</a>
</g>
</g>
<!-- 6&#45;&gt;9 -->
<g id="edge1" class="edge"><title>6&#45;&gt;9</title>
<path fill="none" stroke="black" d="M37.7995,-1727.7C37.6893,-1719.98 37.5569,-1710.71 37.434,-1702.11"/>
<polygon fill="black" stroke="black" points="40.9336,-1702.05 37.2911,-1692.1 33.9344,-1702.15 40.9336,-1702.05"/>
</g>
<!-- 7 -->
<g id="node8" class="node"><title>7</title>
<g id="a_node8"><a xlink:title="7, diversity: 1, multiplicities: 10, labels: 0">
<ellipse fill="#fcc4ad" stroke="black" cx="187.047" cy="-378" rx="37.0935" ry="18"/>
<text text-anchor="middle" x="187.047" y="-374.3" font-family="Times,serif" font-size="14.00">7 (1): 0</text>
</a>
</g>
</g>
<!-- 8 -->
<g id="node9" class="node"><title>8</title>
<g id="a_node9"><a xlink:title="8, diversity: 1, multiplicities: 5, labels: 0">
<ellipse fill="#fee3d6" stroke="black" cx="284.047" cy="-18" rx="37.0935" ry="18"/>
<text text-anchor="middle" x="284.047" y="-14.3" font-family="Times,serif" font-size="14.00">8 (1): 0</text>
</a>
</g>
</g>
<!-- 10 -->
<g id="node11" class="node"><title>10</title>
<g id="a_node11"><a xlink:title="10, diversity: 2, multiplicities: 1,2, labels: 0">
<ellipse fill="#fee3d6" stroke="black" cx="134.047" cy="-1242" rx="41.6928" ry="18"/>
<text text-anchor="middle" x="134.047" y="-1238.3" font-family="Times,serif" font-size="14.00">10 (2): 0</text>
</a>
</g>
</g>
<!-- 48 -->
<g id="node49" class="node"><title>48</title>
<g id="a_node49"><a xlink:title="48, diversity: 1, multiplicities: 2, labels: 0">
<ellipse fill="#fee3d6" stroke="black" cx="134.047" cy="-1170" rx="41.6928" ry="18"/>
<text text-anchor="middle" x="134.047" y="-1166.3" font-family="Times,serif" font-size="14.00">48 (1): 0</text>
</a>
</g>
</g>
<!-- 10&#45;&gt;48 -->
<g id="edge5" class="edge"><title>10&#45;&gt;48</title>
<path fill="none" stroke="black" d="M134.047,-1223.7C134.047,-1215.98 134.047,-1206.71 134.047,-1198.11"/>
<polygon fill="black" stroke="black" points="137.547,-1198.1 134.047,-1188.1 130.547,-1198.1 137.547,-1198.1"/>
</g>
<!-- 42 -->
<g id="node43" class="node"><title>42</title>
<g id="a_node43"><a xlink:title="42, diversity: 1, multiplicities: 3, labels: 0">
<ellipse fill="#fee3d6" stroke="black" cx="134.047" cy="-1674" rx="41.6928" ry="18"/>
<text text-anchor="middle" x="134.047" y="-1670.3" font-family="Times,serif" font-size="14.00">42 (1): 0</text>
</a>
</g>
</g>
<!-- 11&#45;&gt;42 -->
<g id="edge37" class="edge"><title>11&#45;&gt;42</title>
<path fill="none" stroke="black" d="M134.8,-1727.7C134.689,-1719.98 134.557,-1710.71 134.434,-1702.11"/>
<polygon fill="black" stroke="black" points="137.934,-1702.05 134.291,-1692.1 130.934,-1702.15 137.934,-1702.05"/>
</g>
<!-- 12 -->
<g id="node13" class="node"><title>12</title>
<g id="a_node13"><a xlink:title="12, diversity: 3, multiplicities: 1,2,5, labels: 0">
<ellipse fill="#fcc4ad" stroke="black" cx="430.047" cy="-1962" rx="41.6928" ry="18"/>
<text text-anchor="middle" x="430.047" y="-1958.3" font-family="Times,serif" font-size="14.00">12 (3): 0</text>
</a>
</g>
</g>
<!-- 12&#45;&gt;3 -->
<g id="edge36" class="edge"><title>12&#45;&gt;3</title>
<path fill="none" stroke="black" d="M430.047,-1943.7C430.047,-1935.98 430.047,-1926.71 430.047,-1918.11"/>
<polygon fill="black" stroke="black" points="433.547,-1918.1 430.047,-1908.1 426.547,-1918.1 433.547,-1918.1"/>
</g>
<!-- 13 -->
<g id="node14" class="node"><title>13</title>
<g id="a_node14"><a xlink:title="13, diversity: 3, multiplicities: 2,3,6, labels: 0">
<ellipse fill="#fca082" stroke="black" cx="379.047" cy="-2394" rx="41.6928" ry="18"/>
<text text-anchor="middle" x="379.047" y="-2390.3" font-family="Times,serif" font-size="14.00">13 (3): 0</text>
</a>
</g>
</g>
<!-- 54 -->
<g id="node55" class="node"><title>54</title>
<g id="a_node55"><a xlink:title="54, diversity: 1, multiplicities: 1, labels: 0">
<ellipse fill="#fff5f0" stroke="black" cx="379.047" cy="-2322" rx="41.6928" ry="18"/>
<text text-anchor="middle" x="379.047" y="-2318.3" font-family="Times,serif" font-size="14.00">54 (1): 0</text>
</a>
</g>
</g>
<!-- 13&#45;&gt;54 -->
<g id="edge18" class="edge"><title>13&#45;&gt;54</title>
<path fill="none" stroke="black" d="M379.047,-2375.7C379.047,-2367.98 379.047,-2358.71 379.047,-2350.11"/>
<polygon fill="black" stroke="black" points="382.547,-2350.1 379.047,-2340.1 375.547,-2350.1 382.547,-2350.1"/>
</g>
<!-- 14 -->
<g id="node15" class="node"><title>14</title>
<g id="a_node15"><a xlink:title="14, diversity: 1, multiplicities: 4, labels: 0">
<ellipse fill="#fee3d6" stroke="black" cx="430.047" cy="-2178" rx="41.6928" ry="18"/>
<text text-anchor="middle" x="430.047" y="-2174.3" font-family="Times,serif" font-size="14.00">14 (1): 0</text>
</a>
</g>
</g>
<!-- 21 -->
<g id="node22" class="node"><title>21</title>
<g id="a_node22"><a xlink:title="21, diversity: 1, multiplicities: 2, labels: 0">
<ellipse fill="#fee3d6" stroke="black" cx="430.047" cy="-2106" rx="41.6928" ry="18"/>
<text text-anchor="middle" x="430.047" y="-2102.3" font-family="Times,serif" font-size="14.00">21 (1): 0</text>
</a>
</g>
</g>
<!-- 14&#45;&gt;21 -->
<g id="edge57" class="edge"><title>14&#45;&gt;21</title>
<path fill="none" stroke="black" d="M430.047,-2159.7C430.047,-2151.98 430.047,-2142.71 430.047,-2134.11"/>
<polygon fill="black" stroke="black" points="433.547,-2134.1 430.047,-2124.1 426.547,-2134.1 433.547,-2134.1"/>
</g>
<!-- 15 -->
<g id="node16" class="node"><title>15</title>
<g id="a_node16"><a xlink:title="15, diversity: 1, multiplicities: 6, labels: 0">
<ellipse fill="#fcc4ad" stroke="black" cx="284.047" cy="-306" rx="41.6928" ry="18"/>
<text text-anchor="middle" x="284.047" y="-302.3" font-family="Times,serif" font-size="14.00">15 (1): 0</text>
</a>
</g>
</g>
<!-- 35 -->
<g id="node36" class="node"><title>35</title>
<g id="a_node36"><a xlink:title="35, diversity: 1, multiplicities: 1, labels: 0">
<ellipse fill="#fff5f0" stroke="black" cx="284.047" cy="-234" rx="41.6928" ry="18"/>
<text text-anchor="middle" x="284.047" y="-230.3" font-family="Times,serif" font-size="14.00">35 (1): 0</text>
</a>
</g>
</g>
<!-- 15&#45;&gt;35 -->
<g id="edge24" class="edge"><title>15&#45;&gt;35</title>
<path fill="none" stroke="black" d="M284.047,-287.697C284.047,-279.983 284.047,-270.712 284.047,-262.112"/>
<polygon fill="black" stroke="black" points="287.547,-262.104 284.047,-252.104 280.547,-262.104 287.547,-262.104"/>
</g>
<!-- 16 -->
<g id="node17" class="node"><title>16</title>
<g id="a_node17"><a xlink:title="16, diversity: 2, multiplicities: 2,4, labels: 0">
<ellipse fill="#fcc4ad" stroke="black" cx="134.047" cy="-882" rx="41.6928" ry="18"/>
<text text-anchor="middle" x="134.047" y="-878.3" font-family="Times,serif" font-size="14.00">16 (2): 0</text>
</a>
</g>
</g>
<!-- 18 -->
<g id="node19" class="node"><title>18</title>
<g id="a_node19"><a xlink:title="18, diversity: 3, multiplicities: 1,4,9, labels: 0">
<ellipse fill="#fca082" stroke="black" cx="134.047" cy="-810" rx="41.6928" ry="18"/>
<text text-anchor="middle" x="134.047" y="-806.3" font-family="Times,serif" font-size="14.00">18 (3): 0</text>
</a>
</g>
</g>
<!-- 16&#45;&gt;18 -->
<g id="edge35" class="edge"><title>16&#45;&gt;18</title>
<path fill="none" stroke="black" d="M134.047,-863.697C134.047,-855.983 134.047,-846.712 134.047,-838.112"/>
<polygon fill="black" stroke="black" points="137.547,-838.104 134.047,-828.104 130.547,-838.104 137.547,-838.104"/>
</g>
<!-- 17 -->
<g id="node18" class="node"><title>17</title>
<g id="a_node18"><a xlink:title="17, diversity: 1, multiplicities: 1, labels: 0">
<ellipse fill="#fff5f0" stroke="black" cx="329.047" cy="-2034" rx="41.6928" ry="18"/>
<text text-anchor="middle" x="329.047" y="-2030.3" font-family="Times,serif" font-size="14.00">17 (1): 0</text>
</a>
</g>
</g>
<!-- 51 -->
<g id="node52" class="node"><title>51</title>
<g id="a_node52"><a xlink:title="51, diversity: 1, multiplicities: 1, labels: 0">
<ellipse fill="#fff5f0" stroke="black" cx="329.047" cy="-1962" rx="41.6928" ry="18"/>
<text text-anchor="middle" x="329.047" y="-1958.3" font-family="Times,serif" font-size="14.00">51 (1): 0</text>
</a>
</g>
</g>
<!-- 17&#45;&gt;51 -->
<g id="edge21" class="edge"><title>17&#45;&gt;51</title>
<path fill="none" stroke="black" d="M329.047,-2015.7C329.047,-2007.98 329.047,-1998.71 329.047,-1990.11"/>
<polygon fill="black" stroke="black" points="332.547,-1990.1 329.047,-1980.1 325.547,-1990.1 332.547,-1990.1"/>
</g>
<!-- 19 -->
<g id="node20" class="node"><title>19</title>
<g id="a_node20"><a xlink:title="19, diversity: 1, multiplicities: 5, labels: 0">
<ellipse fill="#fee3d6" stroke="black" cx="336.047" cy="-1602" rx="41.6928" ry="18"/>
<text text-anchor="middle" x="336.047" y="-1598.3" font-family="Times,serif" font-size="14.00">19 (1): 0</text>
</a>
</g>
</g>
<!-- 20 -->
<g id="node21" class="node"><title>20</title>
<g id="a_node21"><a xlink:title="20, diversity: 1, multiplicities: 1, labels: 0">
<ellipse fill="#fff5f0" stroke="black" cx="235.047" cy="-1170" rx="41.6928" ry="18"/>
<text text-anchor="middle" x="235.047" y="-1166.3" font-family="Times,serif" font-size="14.00">20 (1): 0</text>
</a>
</g>
</g>
<!-- 39 -->
<g id="node40" class="node"><title>39</title>
<g id="a_node40"><a xlink:title="39, diversity: 1, multiplicities: 1, labels: 0">
<ellipse fill="#fff5f0" stroke="black" cx="235.047" cy="-1098" rx="41.6928" ry="18"/>
<text text-anchor="middle" x="235.047" y="-1094.3" font-family="Times,serif" font-size="14.00">39 (1): 0</text>
</a>
</g>
</g>
<!-- 20&#45;&gt;39 -->
<g id="edge30" class="edge"><title>20&#45;&gt;39</title>
<path fill="none" stroke="black" d="M235.047,-1151.7C235.047,-1143.98 235.047,-1134.71 235.047,-1126.11"/>
<polygon fill="black" stroke="black" points="238.547,-1126.1 235.047,-1116.1 231.547,-1126.1 238.547,-1126.1"/>
</g>
<!-- 60 -->
<g id="node61" class="node"><title>60</title>
<g id="a_node61"><a xlink:title="60, diversity: 1, multiplicities: 1, labels: 0">
<ellipse fill="#fff5f0" stroke="black" cx="430.047" cy="-2034" rx="41.6928" ry="18"/>
<text text-anchor="middle" x="430.047" y="-2030.3" font-family="Times,serif" font-size="14.00">60 (1): 0</text>
</a>
</g>
</g>
<!-- 21&#45;&gt;60 -->
<g id="edge25" class="edge"><title>21&#45;&gt;60</title>
<path fill="none" stroke="black" d="M430.047,-2087.7C430.047,-2079.98 430.047,-2070.71 430.047,-2062.11"/>
<polygon fill="black" stroke="black" points="433.547,-2062.1 430.047,-2052.1 426.547,-2062.1 433.547,-2062.1"/>
</g>
<!-- 37 -->
<g id="node38" class="node"><title>37</title>
<g id="a_node38"><a xlink:title="37, diversity: 1, multiplicities: 2, labels: 0">
<ellipse fill="#fee3d6" stroke="black" cx="235.047" cy="-1602" rx="41.6928" ry="18"/>
<text text-anchor="middle" x="235.047" y="-1598.3" font-family="Times,serif" font-size="14.00">37 (1): 0</text>
</a>
</g>
</g>
<!-- 22&#45;&gt;37 -->
<g id="edge9" class="edge"><title>22&#45;&gt;37</title>
<path fill="none" stroke="black" d="M235.047,-1655.7C235.047,-1647.98 235.047,-1638.71 235.047,-1630.11"/>
<polygon fill="black" stroke="black" points="238.547,-1630.1 235.047,-1620.1 231.547,-1630.1 238.547,-1630.1"/>
</g>
<!-- 23 -->
<g id="node24" class="node"><title>23</title>
<g id="a_node24"><a xlink:title="23, diversity: 1, multiplicities: 9, labels: 0">
<ellipse fill="#fcc4ad" stroke="black" cx="134.047" cy="-1098" rx="41.6928" ry="18"/>
<text text-anchor="middle" x="134.047" y="-1094.3" font-family="Times,serif" font-size="14.00">23 (1): 0</text>
</a>
</g>
</g>
<!-- 47 -->
<g id="node48" class="node"><title>47</title>
<g id="a_node48"><a xlink:title="47, diversity: 1, multiplicities: 2, labels: 0">
<ellipse fill="#fee3d6" stroke="black" cx="134.047" cy="-1026" rx="41.6928" ry="18"/>
<text text-anchor="middle" x="134.047" y="-1022.3" font-family="Times,serif" font-size="14.00">47 (1): 0</text>
</a>
</g>
</g>
<!-- 23&#45;&gt;47 -->
<g id="edge46" class="edge"><title>23&#45;&gt;47</title>
<path fill="none" stroke="black" d="M134.047,-1079.7C134.047,-1071.98 134.047,-1062.71 134.047,-1054.11"/>
<polygon fill="black" stroke="black" points="137.547,-1054.1 134.047,-1044.1 130.547,-1054.1 137.547,-1054.1"/>
</g>
<!-- 24 -->
<g id="node25" class="node"><title>24</title>
<g id="a_node25"><a xlink:title="24, diversity: 1, multiplicities: 3, labels: 0">
<ellipse fill="#fee3d6" stroke="black" cx="329.047" cy="-2178" rx="41.6928" ry="18"/>
<text text-anchor="middle" x="329.047" y="-2174.3" font-family="Times,serif" font-size="14.00">24 (1): 0</text>
</a>
</g>
</g>
<!-- 55 -->
<g id="node56" class="node"><title>55</title>
<g id="a_node56"><a xlink:title="55, diversity: 1, multiplicities: 1, labels: 0">
<ellipse fill="#fff5f0" stroke="black" cx="329.047" cy="-2106" rx="41.6928" ry="18"/>
<text text-anchor="middle" x="329.047" y="-2102.3" font-family="Times,serif" font-size="14.00">55 (1): 0</text>
</a>
</g>
</g>
<!-- 24&#45;&gt;55 -->
<g id="edge14" class="edge"><title>24&#45;&gt;55</title>
<path fill="none" stroke="black" d="M329.047,-2159.7C329.047,-2151.98 329.047,-2142.71 329.047,-2134.11"/>
<polygon fill="black" stroke="black" points="332.547,-2134.1 329.047,-2124.1 325.547,-2134.1 332.547,-2134.1"/>
</g>
<!-- 25 -->
<g id="node26" class="node"><title>25</title>
<g id="a_node26"><a xlink:title="25, diversity: 1, multiplicities: 1, labels: 0">
<ellipse fill="#fff5f0" stroke="black" cx="235.047" cy="-666" rx="41.6928" ry="18"/>
<text text-anchor="middle" x="235.047" y="-662.3" font-family="Times,serif" font-size="14.00">25 (1): 0</text>
</a>
</g>
</g>
<!-- 32 -->
<g id="node33" class="node"><title>32</title>
<g id="a_node33"><a xlink:title="32, diversity: 1, multiplicities: 1, labels: 0">
<ellipse fill="#fff5f0" stroke="black" cx="235.047" cy="-594" rx="41.6928" ry="18"/>
<text text-anchor="middle" x="235.047" y="-590.3" font-family="Times,serif" font-size="14.00">32 (1): 0</text>
</a>
</g>
</g>
<!-- 25&#45;&gt;32 -->
<g id="edge12" class="edge"><title>25&#45;&gt;32</title>
<path fill="none" stroke="black" d="M235.047,-647.697C235.047,-639.983 235.047,-630.712 235.047,-622.112"/>
<polygon fill="black" stroke="black" points="238.547,-622.104 235.047,-612.104 231.547,-622.104 238.547,-622.104"/>
</g>
<!-- 26&#45;&gt;1 -->
<g id="edge50" class="edge"><title>26&#45;&gt;1</title>
<path fill="none" stroke="black" d="M430.047,-1799.7C430.047,-1791.98 430.047,-1782.71 430.047,-1774.11"/>
<polygon fill="black" stroke="black" points="433.547,-1774.1 430.047,-1764.1 426.547,-1774.1 433.547,-1774.1"/>
</g>
<!-- 27 -->
<g id="node28" class="node"><title>27</title>
<g id="a_node28"><a xlink:title="27, diversity: 3, multiplicities: 1,2,3, labels: 0">
<ellipse fill="#fcc4ad" stroke="black" cx="284.047" cy="-90" rx="41.6928" ry="18"/>
<text text-anchor="middle" x="284.047" y="-86.3" font-family="Times,serif" font-size="14.00">27 (3): 0</text>
</a>
</g>
</g>
<!-- 27&#45;&gt;8 -->
<g id="edge58" class="edge"><title>27&#45;&gt;8</title>
<path fill="none" stroke="black" d="M284.047,-71.6966C284.047,-63.9827 284.047,-54.7125 284.047,-46.1124"/>
<polygon fill="black" stroke="black" points="287.547,-46.1043 284.047,-36.1043 280.547,-46.1044 287.547,-46.1043"/>
</g>
<!-- 28 -->
<g id="node29" class="node"><title>28</title>
<g id="a_node29"><a xlink:title="28, diversity: 1, multiplicities: 1, labels: 0">
<ellipse fill="#fff5f0" stroke="black" cx="134.047" cy="-1530" rx="41.6928" ry="18"/>
<text text-anchor="middle" x="134.047" y="-1526.3" font-family="Times,serif" font-size="14.00">28 (1): 0</text>
</a>
</g>
</g>
<!-- 40 -->
<g id="node41" class="node"><title>40</title>
<g id="a_node41"><a xlink:title="40, diversity: 1, multiplicities: 2, labels: 0">
<ellipse fill="#fee3d6" stroke="black" cx="134.047" cy="-1458" rx="41.6928" ry="18"/>
<text text-anchor="middle" x="134.047" y="-1454.3" font-family="Times,serif" font-size="14.00">40 (1): 0</text>
</a>
</g>
</g>
<!-- 28&#45;&gt;40 -->
<g id="edge16" class="edge"><title>28&#45;&gt;40</title>
<path fill="none" stroke="black" d="M134.047,-1511.7C134.047,-1503.98 134.047,-1494.71 134.047,-1486.11"/>
<polygon fill="black" stroke="black" points="137.547,-1486.1 134.047,-1476.1 130.547,-1486.1 137.547,-1486.1"/>
</g>
<!-- 29 -->
<g id="node30" class="node"><title>29</title>
<g id="a_node30"><a xlink:title="29, diversity: 1, multiplicities: 1, labels: 0">
<ellipse fill="#fff5f0" stroke="black" cx="235.047" cy="-522" rx="41.6928" ry="18"/>
<text text-anchor="middle" x="235.047" y="-518.3" font-family="Times,serif" font-size="14.00">29 (1): 0</text>
</a>
</g>
</g>
<!-- 50 -->
<g id="node51" class="node"><title>50</title>
<g id="a_node51"><a xlink:title="50, diversity: 1, multiplicities: 2, labels: 0">
<ellipse fill="#fee3d6" stroke="black" cx="235.047" cy="-450" rx="41.6928" ry="18"/>
<text text-anchor="middle" x="235.047" y="-446.3" font-family="Times,serif" font-size="14.00">50 (1): 0</text>
</a>
</g>
</g>
<!-- 29&#45;&gt;50 -->
<g id="edge2" class="edge"><title>29&#45;&gt;50</title>
<path fill="none" stroke="black" d="M235.047,-503.697C235.047,-495.983 235.047,-486.712 235.047,-478.112"/>
<polygon fill="black" stroke="black" points="238.547,-478.104 235.047,-468.104 231.547,-478.104 238.547,-478.104"/>
</g>
<!-- 49 -->
<g id="node50" class="node"><title>49</title>
<g id="a_node50"><a xlink:title="49, diversity: 1, multiplicities: 1, labels: 0">
<ellipse fill="#fff5f0" stroke="black" cx="235.047" cy="-1242" rx="41.6928" ry="18"/>
<text text-anchor="middle" x="235.047" y="-1238.3" font-family="Times,serif" font-size="14.00">49 (1): 0</text>
</a>
</g>
</g>
<!-- 30&#45;&gt;49 -->
<g id="edge44" class="edge"><title>30&#45;&gt;49</title>
<path fill="none" stroke="black" d="M235.047,-1295.7C235.047,-1287.98 235.047,-1278.71 235.047,-1270.11"/>
<polygon fill="black" stroke="black" points="238.547,-1270.1 235.047,-1260.1 231.547,-1270.1 238.547,-1270.1"/>
</g>
<!-- 31 -->
<g id="node32" class="node"><title>31</title>
<g id="a_node32"><a xlink:title="31, diversity: 1, multiplicities: 2, labels: 0">
<ellipse fill="#fee3d6" stroke="black" cx="329.047" cy="-1818" rx="41.6928" ry="18"/>
<text text-anchor="middle" x="329.047" y="-1814.3" font-family="Times,serif" font-size="14.00">31 (1): 0</text>
</a>
</g>
</g>
<!-- 31&#45;&gt;2 -->
<g id="edge39" class="edge"><title>31&#45;&gt;2</title>
<path fill="none" stroke="black" d="M328.8,-1799.7C328.689,-1791.98 328.557,-1782.71 328.434,-1774.11"/>
<polygon fill="black" stroke="black" points="331.934,-1774.05 328.291,-1764.1 324.934,-1774.15 331.934,-1774.05"/>
</g>
<!-- 32&#45;&gt;29 -->
<g id="edge48" class="edge"><title>32&#45;&gt;29</title>
<path fill="none" stroke="black" d="M235.047,-575.697C235.047,-567.983 235.047,-558.712 235.047,-550.112"/>
<polygon fill="black" stroke="black" points="238.547,-550.104 235.047,-540.104 231.547,-550.104 238.547,-550.104"/>
</g>
<!-- 33 -->
<g id="node34" class="node"><title>33</title>
<g id="a_node34"><a xlink:title="33, diversity: 1, multiplicities: 4, labels: 0">
<ellipse fill="#fee3d6" stroke="black" cx="329.047" cy="-1890" rx="41.6928" ry="18"/>
<text text-anchor="middle" x="329.047" y="-1886.3" font-family="Times,serif" font-size="14.00">33 (1): 0</text>
</a>
</g>
</g>
<!-- 33&#45;&gt;31 -->
<g id="edge62" class="edge"><title>33&#45;&gt;31</title>
<path fill="none" stroke="black" d="M329.047,-1871.7C329.047,-1863.98 329.047,-1854.71 329.047,-1846.11"/>
<polygon fill="black" stroke="black" points="332.547,-1846.1 329.047,-1836.1 325.547,-1846.1 332.547,-1846.1"/>
</g>
<!-- 34 -->
<g id="node35" class="node"><title>34</title>
<g id="a_node35"><a xlink:title="34, diversity: 1, multiplicities: 1, labels: 0">
<ellipse fill="#fff5f0" stroke="black" cx="235.047" cy="-1530" rx="41.6928" ry="18"/>
<text text-anchor="middle" x="235.047" y="-1526.3" font-family="Times,serif" font-size="14.00">34 (1): 0</text>
</a>
</g>
</g>
<!-- 57 -->
<g id="node58" class="node"><title>57</title>
<g id="a_node58"><a xlink:title="57, diversity: 1, multiplicities: 1, labels: 0">
<ellipse fill="#fff5f0" stroke="black" cx="235.047" cy="-1458" rx="41.6928" ry="18"/>
<text text-anchor="middle" x="235.047" y="-1454.3" font-family="Times,serif" font-size="14.00">57 (1): 0</text>
</a>
</g>
</g>
<!-- 34&#45;&gt;57 -->
<g id="edge31" class="edge"><title>34&#45;&gt;57</title>
<path fill="none" stroke="black" d="M235.047,-1511.7C235.047,-1503.98 235.047,-1494.71 235.047,-1486.11"/>
<polygon fill="black" stroke="black" points="238.547,-1486.1 235.047,-1476.1 231.547,-1486.1 238.547,-1486.1"/>
</g>
<!-- 43 -->
<g id="node44" class="node"><title>43</title>
<g id="a_node44"><a xlink:title="43, diversity: 1, multiplicities: 1, labels: 0">
<ellipse fill="#fff5f0" stroke="black" cx="284.047" cy="-162" rx="41.6928" ry="18"/>
<text text-anchor="middle" x="284.047" y="-158.3" font-family="Times,serif" font-size="14.00">43 (1): 0</text>
</a>
</g>
</g>
<!-- 35&#45;&gt;43 -->
<g id="edge42" class="edge"><title>35&#45;&gt;43</title>
<path fill="none" stroke="black" d="M284.047,-215.697C284.047,-207.983 284.047,-198.712 284.047,-190.112"/>
<polygon fill="black" stroke="black" points="287.547,-190.104 284.047,-180.104 280.547,-190.104 287.547,-190.104"/>
</g>
<!-- 36 -->
<g id="node37" class="node"><title>36</title>
<g id="a_node37"><a xlink:title="36, diversity: 1, multiplicities: 1, labels: 0">
<ellipse fill="#fff5f0" stroke="black" cx="235.047" cy="-810" rx="41.6928" ry="18"/>
<text text-anchor="middle" x="235.047" y="-806.3" font-family="Times,serif" font-size="14.00">36 (1): 0</text>
</a>
</g>
</g>
<!-- 46 -->
<g id="node47" class="node"><title>46</title>
<g id="a_node47"><a xlink:title="46, diversity: 1, multiplicities: 1, labels: 0">
<ellipse fill="#fff5f0" stroke="black" cx="235.047" cy="-738" rx="41.6928" ry="18"/>
<text text-anchor="middle" x="235.047" y="-734.3" font-family="Times,serif" font-size="14.00">46 (1): 0</text>
</a>
</g>
</g>
<!-- 36&#45;&gt;46 -->
<g id="edge8" class="edge"><title>36&#45;&gt;46</title>
<path fill="none" stroke="black" d="M235.047,-791.697C235.047,-783.983 235.047,-774.712 235.047,-766.112"/>
<polygon fill="black" stroke="black" points="238.547,-766.104 235.047,-756.104 231.547,-766.104 238.547,-766.104"/>
</g>
<!-- 37&#45;&gt;34 -->
<g id="edge34" class="edge"><title>37&#45;&gt;34</title>
<path fill="none" stroke="black" d="M235.047,-1583.7C235.047,-1575.98 235.047,-1566.71 235.047,-1558.11"/>
<polygon fill="black" stroke="black" points="238.547,-1558.1 235.047,-1548.1 231.547,-1558.1 238.547,-1558.1"/>
</g>
<!-- 38 -->
<g id="node39" class="node"><title>38</title>
<g id="a_node39"><a xlink:title="38, diversity: 1, multiplicities: 1, labels: 0">
<ellipse fill="#fff5f0" stroke="black" cx="235.047" cy="-1026" rx="41.6928" ry="18"/>
<text text-anchor="middle" x="235.047" y="-1022.3" font-family="Times,serif" font-size="14.00">38 (1): 0</text>
</a>
</g>
</g>
<!-- 45 -->
<g id="node46" class="node"><title>45</title>
<g id="a_node46"><a xlink:title="45, diversity: 1, multiplicities: 1, labels: 0">
<ellipse fill="#fff5f0" stroke="black" cx="235.047" cy="-954" rx="41.6928" ry="18"/>
<text text-anchor="middle" x="235.047" y="-950.3" font-family="Times,serif" font-size="14.00">45 (1): 0</text>
</a>
</g>
</g>
<!-- 38&#45;&gt;45 -->
<g id="edge13" class="edge"><title>38&#45;&gt;45</title>
<path fill="none" stroke="black" d="M235.047,-1007.7C235.047,-999.983 235.047,-990.712 235.047,-982.112"/>
<polygon fill="black" stroke="black" points="238.547,-982.104 235.047,-972.104 231.547,-982.104 238.547,-982.104"/>
</g>
<!-- 39&#45;&gt;38 -->
<g id="edge51" class="edge"><title>39&#45;&gt;38</title>
<path fill="none" stroke="black" d="M235.047,-1079.7C235.047,-1071.98 235.047,-1062.71 235.047,-1054.11"/>
<polygon fill="black" stroke="black" points="238.547,-1054.1 235.047,-1044.1 231.547,-1054.1 238.547,-1054.1"/>
</g>
<!-- 59 -->
<g id="node60" class="node"><title>59</title>
<g id="a_node60"><a xlink:title="59, diversity: 1, multiplicities: 1, labels: 0">
<ellipse fill="#fff5f0" stroke="black" cx="134.047" cy="-1386" rx="41.6928" ry="18"/>
<text text-anchor="middle" x="134.047" y="-1382.3" font-family="Times,serif" font-size="14.00">59 (1): 0</text>
</a>
</g>
</g>
<!-- 40&#45;&gt;59 -->
<g id="edge59" class="edge"><title>40&#45;&gt;59</title>
<path fill="none" stroke="black" d="M134.047,-1439.7C134.047,-1431.98 134.047,-1422.71 134.047,-1414.11"/>
<polygon fill="black" stroke="black" points="137.547,-1414.1 134.047,-1404.1 130.547,-1414.1 137.547,-1414.1"/>
</g>
<!-- 41 -->
<g id="node42" class="node"><title>41</title>
<g id="a_node42"><a xlink:title="41, diversity: 1, multiplicities: 4, labels: 0">
<ellipse fill="#fee3d6" stroke="black" cx="284.047" cy="-378" rx="41.6928" ry="18"/>
<text text-anchor="middle" x="284.047" y="-374.3" font-family="Times,serif" font-size="14.00">41 (1): 0</text>
</a>
</g>
</g>
<!-- 41&#45;&gt;15 -->
<g id="edge41" class="edge"><title>41&#45;&gt;15</title>
<path fill="none" stroke="black" d="M284.047,-359.697C284.047,-351.983 284.047,-342.712 284.047,-334.112"/>
<polygon fill="black" stroke="black" points="287.547,-334.104 284.047,-324.104 280.547,-334.104 287.547,-334.104"/>
</g>
<!-- 61 -->
<g id="node62" class="node"><title>61</title>
<g id="a_node62"><a xlink:title="61, diversity: 1, multiplicities: 1, labels: 0">
<ellipse fill="#fff5f0" stroke="black" cx="134.047" cy="-1602" rx="41.6928" ry="18"/>
<text text-anchor="middle" x="134.047" y="-1598.3" font-family="Times,serif" font-size="14.00">61 (1): 0</text>
</a>
</g>
</g>
<!-- 42&#45;&gt;61 -->
<g id="edge49" class="edge"><title>42&#45;&gt;61</title>
<path fill="none" stroke="black" d="M134.047,-1655.7C134.047,-1647.98 134.047,-1638.71 134.047,-1630.11"/>
<polygon fill="black" stroke="black" points="137.547,-1630.1 134.047,-1620.1 130.547,-1630.1 137.547,-1630.1"/>
</g>
<!-- 43&#45;&gt;27 -->
<g id="edge3" class="edge"><title>43&#45;&gt;27</title>
<path fill="none" stroke="black" d="M284.047,-143.697C284.047,-135.983 284.047,-126.712 284.047,-118.112"/>
<polygon fill="black" stroke="black" points="287.547,-118.104 284.047,-108.104 280.547,-118.104 287.547,-118.104"/>
</g>
<!-- 44&#45;&gt;19 -->
<g id="edge17" class="edge"><title>44&#45;&gt;19</title>
<path fill="none" stroke="black" d="M336.047,-1655.7C336.047,-1647.98 336.047,-1638.71 336.047,-1630.11"/>
<polygon fill="black" stroke="black" points="339.547,-1630.1 336.047,-1620.1 332.547,-1630.1 339.547,-1630.1"/>
</g>
<!-- 56 -->
<g id="node57" class="node"><title>56</title>
<g id="a_node57"><a xlink:title="56, diversity: 1, multiplicities: 1, labels: 0">
<ellipse fill="#fff5f0" stroke="black" cx="235.047" cy="-882" rx="41.6928" ry="18"/>
<text text-anchor="middle" x="235.047" y="-878.3" font-family="Times,serif" font-size="14.00">56 (1): 0</text>
</a>
</g>
</g>
<!-- 45&#45;&gt;56 -->
<g id="edge40" class="edge"><title>45&#45;&gt;56</title>
<path fill="none" stroke="black" d="M235.047,-935.697C235.047,-927.983 235.047,-918.712 235.047,-910.112"/>
<polygon fill="black" stroke="black" points="238.547,-910.104 235.047,-900.104 231.547,-910.104 238.547,-910.104"/>
</g>
<!-- 46&#45;&gt;25 -->
<g id="edge6" class="edge"><title>46&#45;&gt;25</title>
<path fill="none" stroke="black" d="M235.047,-719.697C235.047,-711.983 235.047,-702.712 235.047,-694.112"/>
<polygon fill="black" stroke="black" points="238.547,-694.104 235.047,-684.104 231.547,-694.104 238.547,-694.104"/>
</g>
<!-- 53 -->
<g id="node54" class="node"><title>53</title>
<g id="a_node54"><a xlink:title="53, diversity: 1, multiplicities: 1, labels: 0">
<ellipse fill="#fff5f0" stroke="black" cx="134.047" cy="-954" rx="41.6928" ry="18"/>
<text text-anchor="middle" x="134.047" y="-950.3" font-family="Times,serif" font-size="14.00">53 (1): 0</text>
</a>
</g>
</g>
<!-- 47&#45;&gt;53 -->
<g id="edge26" class="edge"><title>47&#45;&gt;53</title>
<path fill="none" stroke="black" d="M134.047,-1007.7C134.047,-999.983 134.047,-990.712 134.047,-982.112"/>
<polygon fill="black" stroke="black" points="137.547,-982.104 134.047,-972.104 130.547,-982.104 137.547,-982.104"/>
</g>
<!-- 48&#45;&gt;23 -->
<g id="edge52" class="edge"><title>48&#45;&gt;23</title>
<path fill="none" stroke="black" d="M134.047,-1151.7C134.047,-1143.98 134.047,-1134.71 134.047,-1126.11"/>
<polygon fill="black" stroke="black" points="137.547,-1126.1 134.047,-1116.1 130.547,-1126.1 137.547,-1126.1"/>
</g>
<!-- 49&#45;&gt;20 -->
<g id="edge28" class="edge"><title>49&#45;&gt;20</title>
<path fill="none" stroke="black" d="M235.047,-1223.7C235.047,-1215.98 235.047,-1206.71 235.047,-1198.11"/>
<polygon fill="black" stroke="black" points="238.547,-1198.1 235.047,-1188.1 231.547,-1198.1 238.547,-1198.1"/>
</g>
<!-- 50&#45;&gt;7 -->
<g id="edge10" class="edge"><title>50&#45;&gt;7</title>
<path fill="none" stroke="black" d="M223.671,-432.411C217.813,-423.868 210.552,-413.278 204.044,-403.787"/>
<polygon fill="black" stroke="black" points="206.882,-401.738 198.34,-395.47 201.109,-405.697 206.882,-401.738"/>
</g>
<!-- 50&#45;&gt;41 -->
<g id="edge11" class="edge"><title>50&#45;&gt;41</title>
<path fill="none" stroke="black" d="M246.659,-432.411C252.639,-423.868 260.052,-413.278 266.696,-403.787"/>
<polygon fill="black" stroke="black" points="269.65,-405.669 272.518,-395.47 263.916,-401.655 269.65,-405.669"/>
</g>
<!-- 51&#45;&gt;33 -->
<g id="edge60" class="edge"><title>51&#45;&gt;33</title>
<path fill="none" stroke="black" d="M329.047,-1943.7C329.047,-1935.98 329.047,-1926.71 329.047,-1918.11"/>
<polygon fill="black" stroke="black" points="332.547,-1918.1 329.047,-1908.1 325.547,-1918.1 332.547,-1918.1"/>
</g>
<!-- 52 -->
<g id="node53" class="node"><title>52</title>
<g id="a_node53"><a xlink:title="52, diversity: 1, multiplicities: 1, labels: 0">
<ellipse fill="#fff5f0" stroke="black" cx="379.047" cy="-2250" rx="41.6928" ry="18"/>
<text text-anchor="middle" x="379.047" y="-2246.3" font-family="Times,serif" font-size="14.00">52 (1): 0</text>
</a>
</g>
</g>
<!-- 52&#45;&gt;14 -->
<g id="edge15" class="edge"><title>52&#45;&gt;14</title>
<path fill="none" stroke="black" d="M391.133,-2232.41C397.357,-2223.87 405.072,-2213.28 411.987,-2203.79"/>
<polygon fill="black" stroke="black" points="414.987,-2205.61 418.047,-2195.47 409.33,-2201.49 414.987,-2205.61"/>
</g>
<!-- 52&#45;&gt;24 -->
<g id="edge4" class="edge"><title>52&#45;&gt;24</title>
<path fill="none" stroke="black" d="M367.197,-2232.41C361.095,-2223.87 353.531,-2213.28 346.752,-2203.79"/>
<polygon fill="black" stroke="black" points="349.471,-2201.57 340.811,-2195.47 343.775,-2205.64 349.471,-2201.57"/>
</g>
<!-- 53&#45;&gt;16 -->
<g id="edge29" class="edge"><title>53&#45;&gt;16</title>
<path fill="none" stroke="black" d="M134.047,-935.697C134.047,-927.983 134.047,-918.712 134.047,-910.112"/>
<polygon fill="black" stroke="black" points="137.547,-910.104 134.047,-900.104 130.547,-910.104 137.547,-910.104"/>
</g>
<!-- 54&#45;&gt;52 -->
<g id="edge19" class="edge"><title>54&#45;&gt;52</title>
<path fill="none" stroke="black" d="M379.047,-2303.7C379.047,-2295.98 379.047,-2286.71 379.047,-2278.11"/>
<polygon fill="black" stroke="black" points="382.547,-2278.1 379.047,-2268.1 375.547,-2278.1 382.547,-2278.1"/>
</g>
<!-- 55&#45;&gt;17 -->
<g id="edge38" class="edge"><title>55&#45;&gt;17</title>
<path fill="none" stroke="black" d="M329.047,-2087.7C329.047,-2079.98 329.047,-2070.71 329.047,-2062.11"/>
<polygon fill="black" stroke="black" points="332.547,-2062.1 329.047,-2052.1 325.547,-2062.1 332.547,-2062.1"/>
</g>
<!-- 56&#45;&gt;36 -->
<g id="edge43" class="edge"><title>56&#45;&gt;36</title>
<path fill="none" stroke="black" d="M235.047,-863.697C235.047,-855.983 235.047,-846.712 235.047,-838.112"/>
<polygon fill="black" stroke="black" points="238.547,-838.104 235.047,-828.104 231.547,-838.104 238.547,-838.104"/>
</g>
<!-- 57&#45;&gt;4 -->
<g id="edge22" class="edge"><title>57&#45;&gt;4</title>
<path fill="none" stroke="black" d="M235.047,-1439.7C235.047,-1431.98 235.047,-1422.71 235.047,-1414.11"/>
<polygon fill="black" stroke="black" points="238.547,-1414.1 235.047,-1404.1 231.547,-1414.1 238.547,-1414.1"/>
</g>
<!-- 58 -->
<g id="node59" class="node"><title>58</title>
<g id="a_node59"><a xlink:title="58, diversity: 1, multiplicities: 1, labels: 0">
<ellipse fill="#fff5f0" stroke="black" cx="134.047" cy="-1314" rx="41.6928" ry="18"/>
<text text-anchor="middle" x="134.047" y="-1310.3" font-family="Times,serif" font-size="14.00">58 (1): 0</text>
</a>
</g>
</g>
<!-- 58&#45;&gt;10 -->
<g id="edge7" class="edge"><title>58&#45;&gt;10</title>
<path fill="none" stroke="black" d="M134.047,-1295.7C134.047,-1287.98 134.047,-1278.71 134.047,-1270.11"/>
<polygon fill="black" stroke="black" points="137.547,-1270.1 134.047,-1260.1 130.547,-1270.1 137.547,-1270.1"/>
</g>
<!-- 59&#45;&gt;58 -->
<g id="edge55" class="edge"><title>59&#45;&gt;58</title>
<path fill="none" stroke="black" d="M134.047,-1367.7C134.047,-1359.98 134.047,-1350.71 134.047,-1342.11"/>
<polygon fill="black" stroke="black" points="137.547,-1342.1 134.047,-1332.1 130.547,-1342.1 137.547,-1342.1"/>
</g>
<!-- 60&#45;&gt;12 -->
<g id="edge33" class="edge"><title>60&#45;&gt;12</title>
<path fill="none" stroke="black" d="M430.047,-2015.7C430.047,-2007.98 430.047,-1998.71 430.047,-1990.11"/>
<polygon fill="black" stroke="black" points="433.547,-1990.1 430.047,-1980.1 426.547,-1990.1 433.547,-1990.1"/>
</g>
<!-- 61&#45;&gt;28 -->
<g id="edge20" class="edge"><title>61&#45;&gt;28</title>
<path fill="none" stroke="black" d="M134.047,-1583.7C134.047,-1575.98 134.047,-1566.71 134.047,-1558.11"/>
<polygon fill="black" stroke="black" points="137.547,-1558.1 134.047,-1548.1 130.547,-1558.1 137.547,-1558.1"/>
</g>
</g>
</svg>
