<?xml version="1.0" encoding="UTF-8" standalone="no"?>
<!DOCTYPE svg PUBLIC "-//W3C//DTD SVG 1.1//EN"
 "http://www.w3.org/Graphics/SVG/1.1/DTD/svg11.dtd">
<!-- Generated by graphviz version 2.38.0 (20140413.2041)
 -->
<!-- Title: %3 Pages: 1 -->
<svg width="1546pt" height="620pt"
 viewBox="0.00 0.00 1546.19 620.00" xmlns="http://www.w3.org/2000/svg" xmlns:xlink="http://www.w3.org/1999/xlink">
<g id="graph0" class="graph" transform="scale(1 1) rotate(0) translate(4 616)">
<title>%3</title>
<polygon fill="white" stroke="none" points="-4,4 -4,-616 1542.19,-616 1542.19,4 -4,4"/>
<!-- 0 -->
<g id="node1" class="node"><title>0</title>
<g id="a_node1"><a xlink:title="0, diversity: 1, multiplicities: 3, labels: 0">
<ellipse fill="#fee3d6" stroke="black" cx="1396.6" cy="-378" rx="37.0935" ry="18"/>
<text text-anchor="middle" x="1396.6" y="-374.3" font-family="Times,serif" font-size="14.00">0 (1): 0</text>
</a>
</g>
</g>
<!-- 30 -->
<g id="node31" class="node"><title>30</title>
<g id="a_node31"><a xlink:title="30, diversity: 1, multiplicities: 7, labels: 0">
<ellipse fill="#fcc4ad" stroke="black" cx="1395.6" cy="-306" rx="41.6928" ry="18"/>
<text text-anchor="middle" x="1395.6" y="-302.3" font-family="Times,serif" font-size="14.00">30 (1): 0</text>
</a>
</g>
</g>
<!-- 0&#45;&gt;30 -->
<g id="edge44" class="edge"><title>0&#45;&gt;30</title>
<path fill="none" stroke="black" d="M1396.35,-359.697C1396.24,-351.983 1396.11,-342.712 1395.98,-334.112"/>
<polygon fill="black" stroke="black" points="1399.48,-334.053 1395.84,-324.104 1392.48,-334.153 1399.48,-334.053"/>
</g>
<!-- 1 -->
<g id="node2" class="node"><title>1</title>
<g id="a_node2"><a xlink:title="1, diversity: 1, multiplicities: 6, labels: 0">
<ellipse fill="#fcc4ad" stroke="black" cx="1143.6" cy="-450" rx="37.0935" ry="18"/>
<text text-anchor="middle" x="1143.6" y="-446.3" font-family="Times,serif" font-size="14.00">1 (1): 0</text>
</a>
</g>
</g>
<!-- 2 -->
<g id="node3" class="node"><title>2</title>
<g id="a_node3"><a xlink:title="2, diversity: 1, multiplicities: 31, labels: 0">
<ellipse fill="#fca082" stroke="black" cx="1345.6" cy="-450" rx="37.0935" ry="18"/>
<text text-anchor="middle" x="1345.6" y="-446.3" font-family="Times,serif" font-size="14.00">2 (1): 0</text>
</a>
</g>
</g>
<!-- 3 -->
<g id="node4" class="node"><title>3</title>
<g id="a_node4"><a xlink:title="3, diversity: 1, multiplicities: 11, labels: 0">
<ellipse fill="#fca082" stroke="black" cx="546.596" cy="-162" rx="37.0935" ry="18"/>
<text text-anchor="middle" x="546.596" y="-158.3" font-family="Times,serif" font-size="14.00">3 (1): 0</text>
</a>
</g>
</g>
<!-- 51 -->
<g id="node52" class="node"><title>51</title>
<g id="a_node52"><a xlink:title="51, diversity: 1, multiplicities: 1, labels: 0">
<ellipse fill="#fff5f0" stroke="black" cx="496.596" cy="-90" rx="41.6928" ry="18"/>
<text text-anchor="middle" x="496.596" y="-86.3" font-family="Times,serif" font-size="14.00">51 (1): 0</text>
</a>
</g>
</g>
<!-- 3&#45;&gt;51 -->
<g id="edge23" class="edge"><title>3&#45;&gt;51</title>
<path fill="none" stroke="black" d="M535,-144.765C528.904,-136.23 521.298,-125.582 514.467,-116.019"/>
<polygon fill="black" stroke="black" points="517.138,-113.736 508.477,-107.633 511.442,-117.805 517.138,-113.736"/>
</g>
<!-- 55 -->
<g id="node56" class="node"><title>55</title>
<g id="a_node56"><a xlink:title="55, diversity: 1, multiplicities: 1, labels: 0">
<ellipse fill="#fff5f0" stroke="black" cx="647.596" cy="-90" rx="41.6928" ry="18"/>
<text text-anchor="middle" x="647.596" y="-86.3" font-family="Times,serif" font-size="14.00">55 (1): 0</text>
</a>
</g>
</g>
<!-- 3&#45;&gt;55 -->
<g id="edge15" class="edge"><title>3&#45;&gt;55</title>
<path fill="none" stroke="black" d="M567.035,-146.834C581.626,-136.722 601.48,-122.962 617.827,-111.632"/>
<polygon fill="black" stroke="black" points="620.267,-114.199 626.493,-105.626 616.28,-108.446 620.267,-114.199"/>
</g>
<!-- 4 -->
<g id="node5" class="node"><title>4</title>
<g id="a_node5"><a xlink:title="4, diversity: 1, multiplicities: 17, labels: 0">
<ellipse fill="#fca082" stroke="black" cx="744.596" cy="-450" rx="37.0935" ry="18"/>
<text text-anchor="middle" x="744.596" y="-446.3" font-family="Times,serif" font-size="14.00">4 (1): 0</text>
</a>
</g>
</g>
<!-- 5 -->
<g id="node6" class="node"><title>5</title>
<g id="a_node6"><a xlink:title="5, diversity: 1, multiplicities: 21, labels: 0">
<ellipse fill="#fca082" stroke="black" cx="748.596" cy="-162" rx="37.0935" ry="18"/>
<text text-anchor="middle" x="748.596" y="-158.3" font-family="Times,serif" font-size="14.00">5 (1): 0</text>
</a>
</g>
</g>
<!-- 6 -->
<g id="node7" class="node"><title>6</title>
<g id="a_node7"><a xlink:title="6, diversity: 1, multiplicities: 65, labels: 0">
<ellipse fill="#fca082" stroke="black" cx="840.596" cy="-450" rx="37.0935" ry="18"/>
<text text-anchor="middle" x="840.596" y="-446.3" font-family="Times,serif" font-size="14.00">6 (1): 0</text>
</a>
</g>
</g>
<!-- 7 -->
<g id="node8" class="node"><title>7</title>
<g id="a_node8"><a xlink:title="7, diversity: 1, multiplicities: 34, labels: 0">
<ellipse fill="#fca082" stroke="black" cx="647.596" cy="-306" rx="37.0935" ry="18"/>
<text text-anchor="middle" x="647.596" y="-302.3" font-family="Times,serif" font-size="14.00">7 (1): 0</text>
</a>
</g>
</g>
<!-- 8 -->
<g id="node9" class="node"><title>8</title>
<g id="a_node9"><a xlink:title="8, diversity: 1, multiplicities: 19, labels: 0">
<ellipse fill="#fca082" stroke="black" cx="445.596" cy="-306" rx="37.0935" ry="18"/>
<text text-anchor="middle" x="445.596" y="-302.3" font-family="Times,serif" font-size="14.00">8 (1): 0</text>
</a>
</g>
</g>
<!-- 17 -->
<g id="node18" class="node"><title>17</title>
<g id="a_node18"><a xlink:title="17, diversity: 1, multiplicities: 1, labels: 0">
<ellipse fill="#fff5f0" stroke="black" cx="445.596" cy="-234" rx="41.6928" ry="18"/>
<text text-anchor="middle" x="445.596" y="-230.3" font-family="Times,serif" font-size="14.00">17 (1): 0</text>
</a>
</g>
</g>
<!-- 8&#45;&gt;17 -->
<g id="edge43" class="edge"><title>8&#45;&gt;17</title>
<path fill="none" stroke="black" d="M445.596,-287.697C445.596,-279.983 445.596,-270.712 445.596,-262.112"/>
<polygon fill="black" stroke="black" points="449.096,-262.104 445.596,-252.104 442.096,-262.104 449.096,-262.104"/>
</g>
<!-- 32 -->
<g id="node33" class="node"><title>32</title>
<g id="a_node33"><a xlink:title="32, diversity: 1, multiplicities: 1, labels: 0">
<ellipse fill="#fff5f0" stroke="black" cx="546.596" cy="-234" rx="41.6928" ry="18"/>
<text text-anchor="middle" x="546.596" y="-230.3" font-family="Times,serif" font-size="14.00">32 (1): 0</text>
</a>
</g>
</g>
<!-- 8&#45;&gt;32 -->
<g id="edge17" class="edge"><title>8&#45;&gt;32</title>
<path fill="none" stroke="black" d="M466.035,-290.834C480.626,-280.722 500.48,-266.962 516.827,-255.632"/>
<polygon fill="black" stroke="black" points="519.267,-258.199 525.493,-249.626 515.28,-252.446 519.267,-258.199"/>
</g>
<!-- 9 -->
<g id="node10" class="node"><title>9</title>
<g id="a_node10"><a xlink:title="9, diversity: 1, multiplicities: 14, labels: 0">
<ellipse fill="#fca082" stroke="black" cx="1496.6" cy="-234" rx="37.0935" ry="18"/>
<text text-anchor="middle" x="1496.6" y="-230.3" font-family="Times,serif" font-size="14.00">9 (1): 0</text>
</a>
</g>
</g>
<!-- 42 -->
<g id="node43" class="node"><title>42</title>
<g id="a_node43"><a xlink:title="42, diversity: 1, multiplicities: 9, labels: 0">
<ellipse fill="#fcc4ad" stroke="black" cx="1496.6" cy="-162" rx="41.6928" ry="18"/>
<text text-anchor="middle" x="1496.6" y="-158.3" font-family="Times,serif" font-size="14.00">42 (1): 0</text>
</a>
</g>
</g>
<!-- 9&#45;&gt;42 -->
<g id="edge59" class="edge"><title>9&#45;&gt;42</title>
<path fill="none" stroke="black" d="M1496.6,-215.697C1496.6,-207.983 1496.6,-198.712 1496.6,-190.112"/>
<polygon fill="black" stroke="black" points="1500.1,-190.104 1496.6,-180.104 1493.1,-190.104 1500.1,-190.104"/>
</g>
<!-- 10 -->
<g id="node11" class="node"><title>10</title>
<g id="a_node11"><a xlink:title="10, diversity: 1, multiplicities: 18, labels: 0">
<ellipse fill="#fca082" stroke="black" cx="941.596" cy="-378" rx="41.6928" ry="18"/>
<text text-anchor="middle" x="941.596" y="-374.3" font-family="Times,serif" font-size="14.00">10 (1): 0</text>
</a>
</g>
</g>
<!-- 11 -->
<g id="node12" class="node"><title>11</title>
<g id="a_node12"><a xlink:title="11, diversity: 1, multiplicities: 9, labels: 0">
<ellipse fill="#fcc4ad" stroke="black" cx="142.596" cy="-522" rx="41.6928" ry="18"/>
<text text-anchor="middle" x="142.596" y="-518.3" font-family="Times,serif" font-size="14.00">11 (1): 0</text>
</a>
</g>
</g>
<!-- 14 -->
<g id="node15" class="node"><title>14</title>
<g id="a_node15"><a xlink:title="14, diversity: 1, multiplicities: 11, labels: 0">
<ellipse fill="#fca082" stroke="black" cx="41.5963" cy="-450" rx="41.6928" ry="18"/>
<text text-anchor="middle" x="41.5963" y="-446.3" font-family="Times,serif" font-size="14.00">14 (1): 0</text>
</a>
</g>
</g>
<!-- 11&#45;&gt;14 -->
<g id="edge5" class="edge"><title>11&#45;&gt;14</title>
<path fill="none" stroke="black" d="M121.177,-506.155C106.617,-496.064 87.1654,-482.583 71.1378,-471.474"/>
<polygon fill="black" stroke="black" points="72.8513,-468.403 62.6386,-465.584 68.8639,-474.157 72.8513,-468.403"/>
</g>
<!-- 19 -->
<g id="node20" class="node"><title>19</title>
<g id="a_node20"><a xlink:title="19, diversity: 1, multiplicities: 3, labels: 0">
<ellipse fill="#fee3d6" stroke="black" cx="142.596" cy="-450" rx="41.6928" ry="18"/>
<text text-anchor="middle" x="142.596" y="-446.3" font-family="Times,serif" font-size="14.00">19 (1): 0</text>
</a>
</g>
</g>
<!-- 11&#45;&gt;19 -->
<g id="edge8" class="edge"><title>11&#45;&gt;19</title>
<path fill="none" stroke="black" d="M142.596,-503.697C142.596,-495.983 142.596,-486.712 142.596,-478.112"/>
<polygon fill="black" stroke="black" points="146.096,-478.104 142.596,-468.104 139.096,-478.104 146.096,-478.104"/>
</g>
<!-- 12 -->
<g id="node13" class="node"><title>12</title>
<g id="a_node13"><a xlink:title="12, diversity: 1, multiplicities: 24, labels: 0">
<ellipse fill="#fca082" stroke="black" cx="344.596" cy="-234" rx="41.6928" ry="18"/>
<text text-anchor="middle" x="344.596" y="-230.3" font-family="Times,serif" font-size="14.00">12 (1): 0</text>
</a>
</g>
</g>
<!-- 13 -->
<g id="node14" class="node"><title>13</title>
<g id="a_node14"><a xlink:title="13, diversity: 3, multiplicities: 8,14,20, labels: 0">
<ellipse fill="#fca082" stroke="black" cx="840.596" cy="-594" rx="41.6928" ry="18"/>
<text text-anchor="middle" x="840.596" y="-590.3" font-family="Times,serif" font-size="14.00">13 (3): 0</text>
</a>
</g>
</g>
<!-- 13&#45;&gt;11 -->
<g id="edge30" class="edge"><title>13&#45;&gt;11</title>
<path fill="none" stroke="black" d="M800.428,-589.323C709.921,-580.991 483.141,-559.851 293.596,-540 259.799,-536.46 221.783,-532.179 192.35,-528.798"/>
<polygon fill="black" stroke="black" points="192.654,-525.31 182.319,-527.642 191.853,-532.264 192.654,-525.31"/>
</g>
<!-- 15 -->
<g id="node16" class="node"><title>15</title>
<g id="a_node16"><a xlink:title="15, diversity: 3, multiplicities: 1,2,11, labels: 0">
<ellipse fill="#fca082" stroke="black" cx="344.596" cy="-522" rx="41.6928" ry="18"/>
<text text-anchor="middle" x="344.596" y="-518.3" font-family="Times,serif" font-size="14.00">15 (3): 0</text>
</a>
</g>
</g>
<!-- 13&#45;&gt;15 -->
<g id="edge37" class="edge"><title>13&#45;&gt;15</title>
<path fill="none" stroke="black" d="M801.676,-587.507C712.236,-574.885 492.185,-543.829 393.67,-529.926"/>
<polygon fill="black" stroke="black" points="394.069,-526.447 383.678,-528.516 393.091,-533.379 394.069,-526.447"/>
</g>
<!-- 16 -->
<g id="node17" class="node"><title>16</title>
<g id="a_node17"><a xlink:title="16, diversity: 2, multiplicities: 1,5, labels: 0">
<ellipse fill="#fcc4ad" stroke="black" cx="537.596" cy="-522" rx="41.6928" ry="18"/>
<text text-anchor="middle" x="537.596" y="-518.3" font-family="Times,serif" font-size="14.00">16 (2): 0</text>
</a>
</g>
</g>
<!-- 13&#45;&gt;16 -->
<g id="edge19" class="edge"><title>13&#45;&gt;16</title>
<path fill="none" stroke="black" d="M802.535,-586.514C752.726,-577.689 662.913,-560.611 587.596,-540 584.598,-539.179 581.517,-538.278 578.427,-537.332"/>
<polygon fill="black" stroke="black" points="579.213,-533.908 568.622,-534.199 577.082,-540.576 579.213,-533.908"/>
</g>
<!-- 20 -->
<g id="node21" class="node"><title>20</title>
<g id="a_node21"><a xlink:title="20, diversity: 2, multiplicities: 4,7, labels: 0">
<ellipse fill="#fca082" stroke="black" cx="638.596" cy="-522" rx="41.6928" ry="18"/>
<text text-anchor="middle" x="638.596" y="-518.3" font-family="Times,serif" font-size="14.00">20 (2): 0</text>
</a>
</g>
</g>
<!-- 13&#45;&gt;20 -->
<g id="edge26" class="edge"><title>13&#45;&gt;20</title>
<path fill="none" stroke="black" d="M807.21,-583.119C771.483,-571.495 715.116,-552.059 677.445,-538.441"/>
<polygon fill="black" stroke="black" points="678.416,-535.069 667.822,-534.939 676.022,-541.648 678.416,-535.069"/>
</g>
<!-- 25 -->
<g id="node26" class="node"><title>25</title>
<g id="a_node26"><a xlink:title="25, diversity: 1, multiplicities: 1, labels: 0">
<ellipse fill="#fff5f0" stroke="black" cx="739.596" cy="-522" rx="41.6928" ry="18"/>
<text text-anchor="middle" x="739.596" y="-518.3" font-family="Times,serif" font-size="14.00">25 (1): 0</text>
</a>
</g>
</g>
<!-- 13&#45;&gt;25 -->
<g id="edge60" class="edge"><title>13&#45;&gt;25</title>
<path fill="none" stroke="black" d="M819.177,-578.155C804.617,-568.064 785.165,-554.583 769.138,-543.474"/>
<polygon fill="black" stroke="black" points="770.851,-540.403 760.639,-537.584 766.864,-546.157 770.851,-540.403"/>
</g>
<!-- 26 -->
<g id="node27" class="node"><title>26</title>
<g id="a_node27"><a xlink:title="26, diversity: 1, multiplicities: 10, labels: 0">
<ellipse fill="#fcc4ad" stroke="black" cx="840.596" cy="-522" rx="41.6928" ry="18"/>
<text text-anchor="middle" x="840.596" y="-518.3" font-family="Times,serif" font-size="14.00">26 (1): 0</text>
</a>
</g>
</g>
<!-- 13&#45;&gt;26 -->
<g id="edge3" class="edge"><title>13&#45;&gt;26</title>
<path fill="none" stroke="black" d="M840.596,-575.697C840.596,-567.983 840.596,-558.712 840.596,-550.112"/>
<polygon fill="black" stroke="black" points="844.096,-550.104 840.596,-540.104 837.096,-550.104 844.096,-550.104"/>
</g>
<!-- 28 -->
<g id="node29" class="node"><title>28</title>
<g id="a_node29"><a xlink:title="28, diversity: 1, multiplicities: 5, labels: 0">
<ellipse fill="#fee3d6" stroke="black" cx="941.596" cy="-522" rx="41.6928" ry="18"/>
<text text-anchor="middle" x="941.596" y="-518.3" font-family="Times,serif" font-size="14.00">28 (1): 0</text>
</a>
</g>
</g>
<!-- 13&#45;&gt;28 -->
<g id="edge41" class="edge"><title>13&#45;&gt;28</title>
<path fill="none" stroke="black" d="M862.016,-578.155C876.575,-568.064 896.027,-554.583 912.055,-543.474"/>
<polygon fill="black" stroke="black" points="914.329,-546.157 920.554,-537.584 910.341,-540.403 914.329,-546.157"/>
</g>
<!-- 40 -->
<g id="node41" class="node"><title>40</title>
<g id="a_node41"><a xlink:title="40, diversity: 1, multiplicities: 5, labels: 0">
<ellipse fill="#fee3d6" stroke="black" cx="1042.6" cy="-522" rx="41.6928" ry="18"/>
<text text-anchor="middle" x="1042.6" y="-518.3" font-family="Times,serif" font-size="14.00">40 (1): 0</text>
</a>
</g>
</g>
<!-- 13&#45;&gt;40 -->
<g id="edge24" class="edge"><title>13&#45;&gt;40</title>
<path fill="none" stroke="black" d="M872.159,-582.062C906.995,-569.991 963.191,-550.517 1001.46,-537.257"/>
<polygon fill="black" stroke="black" points="1002.95,-540.442 1011.26,-533.861 1000.66,-533.828 1002.95,-540.442"/>
</g>
<!-- 46 -->
<g id="node47" class="node"><title>46</title>
<g id="a_node47"><a xlink:title="46, diversity: 1, multiplicities: 2, labels: 0">
<ellipse fill="#fee3d6" stroke="black" cx="1143.6" cy="-522" rx="41.6928" ry="18"/>
<text text-anchor="middle" x="1143.6" y="-518.3" font-family="Times,serif" font-size="14.00">46 (1): 0</text>
</a>
</g>
</g>
<!-- 13&#45;&gt;46 -->
<g id="edge2" class="edge"><title>13&#45;&gt;46</title>
<path fill="none" stroke="black" d="M878.658,-586.514C928.467,-577.689 1018.28,-560.611 1093.6,-540 1096.59,-539.179 1099.68,-538.278 1102.77,-537.332"/>
<polygon fill="black" stroke="black" points="1104.11,-540.576 1112.57,-534.199 1101.98,-533.908 1104.11,-540.576"/>
</g>
<!-- 47 -->
<g id="node48" class="node"><title>47</title>
<g id="a_node48"><a xlink:title="47, diversity: 1, multiplicities: 1, labels: 0">
<ellipse fill="#fff5f0" stroke="black" cx="1244.6" cy="-522" rx="41.6928" ry="18"/>
<text text-anchor="middle" x="1244.6" y="-518.3" font-family="Times,serif" font-size="14.00">47 (1): 0</text>
</a>
</g>
</g>
<!-- 13&#45;&gt;47 -->
<g id="edge54" class="edge"><title>13&#45;&gt;47</title>
<path fill="none" stroke="black" d="M880.864,-589.343C947.026,-582.808 1082.57,-567.197 1194.6,-540 1197.8,-539.221 1201.1,-538.325 1204.39,-537.361"/>
<polygon fill="black" stroke="black" points="1205.67,-540.627 1214.18,-534.308 1203.59,-533.944 1205.67,-540.627"/>
</g>
<!-- 53 -->
<g id="node54" class="node"><title>53</title>
<g id="a_node54"><a xlink:title="53, diversity: 1, multiplicities: 1, labels: 0">
<ellipse fill="#fff5f0" stroke="black" cx="1345.6" cy="-522" rx="41.6928" ry="18"/>
<text text-anchor="middle" x="1345.6" y="-518.3" font-family="Times,serif" font-size="14.00">53 (1): 0</text>
</a>
</g>
</g>
<!-- 13&#45;&gt;53 -->
<g id="edge28" class="edge"><title>13&#45;&gt;53</title>
<path fill="none" stroke="black" d="M881.872,-591.12C962.346,-586.813 1145.48,-573.86 1295.6,-540 1298.82,-539.274 1302.12,-538.416 1305.42,-537.477"/>
<polygon fill="black" stroke="black" points="1306.68,-540.75 1315.22,-534.471 1304.63,-534.058 1306.68,-540.75"/>
</g>
<!-- 57 -->
<g id="node58" class="node"><title>57</title>
<g id="a_node58"><a xlink:title="57, diversity: 1, multiplicities: 1, labels: 0">
<ellipse fill="#fff5f0" stroke="black" cx="1446.6" cy="-522" rx="41.6928" ry="18"/>
<text text-anchor="middle" x="1446.6" y="-518.3" font-family="Times,serif" font-size="14.00">57 (1): 0</text>
</a>
</g>
</g>
<!-- 13&#45;&gt;57 -->
<g id="edge35" class="edge"><title>13&#45;&gt;57</title>
<path fill="none" stroke="black" d="M882.251,-592.326C975.448,-590.103 1207.46,-580.588 1396.6,-540 1399.97,-539.276 1403.43,-538.397 1406.89,-537.425"/>
<polygon fill="black" stroke="black" points="1407.96,-540.755 1416.51,-534.489 1405.92,-534.06 1407.96,-540.755"/>
</g>
<!-- 45 -->
<g id="node46" class="node"><title>45</title>
<g id="a_node46"><a xlink:title="45, diversity: 1, multiplicities: 1, labels: 0">
<ellipse fill="#fff5f0" stroke="black" cx="243.596" cy="-450" rx="41.6928" ry="18"/>
<text text-anchor="middle" x="243.596" y="-446.3" font-family="Times,serif" font-size="14.00">45 (1): 0</text>
</a>
</g>
</g>
<!-- 15&#45;&gt;45 -->
<g id="edge49" class="edge"><title>15&#45;&gt;45</title>
<path fill="none" stroke="black" d="M323.177,-506.155C308.617,-496.064 289.165,-482.583 273.138,-471.474"/>
<polygon fill="black" stroke="black" points="274.851,-468.403 264.639,-465.584 270.864,-474.157 274.851,-468.403"/>
</g>
<!-- 48 -->
<g id="node49" class="node"><title>48</title>
<g id="a_node49"><a xlink:title="48, diversity: 1, multiplicities: 2, labels: 0">
<ellipse fill="#fee3d6" stroke="black" cx="344.596" cy="-450" rx="41.6928" ry="18"/>
<text text-anchor="middle" x="344.596" y="-446.3" font-family="Times,serif" font-size="14.00">48 (1): 0</text>
</a>
</g>
</g>
<!-- 15&#45;&gt;48 -->
<g id="edge46" class="edge"><title>15&#45;&gt;48</title>
<path fill="none" stroke="black" d="M344.596,-503.697C344.596,-495.983 344.596,-486.712 344.596,-478.112"/>
<polygon fill="black" stroke="black" points="348.096,-478.104 344.596,-468.104 341.096,-478.104 348.096,-478.104"/>
</g>
<!-- 41 -->
<g id="node42" class="node"><title>41</title>
<g id="a_node42"><a xlink:title="41, diversity: 1, multiplicities: 1, labels: 0">
<ellipse fill="#fff5f0" stroke="black" cx="445.596" cy="-450" rx="41.6928" ry="18"/>
<text text-anchor="middle" x="445.596" y="-446.3" font-family="Times,serif" font-size="14.00">41 (1): 0</text>
</a>
</g>
</g>
<!-- 16&#45;&gt;41 -->
<g id="edge52" class="edge"><title>16&#45;&gt;41</title>
<path fill="none" stroke="black" d="M517.634,-505.811C504.646,-495.929 487.528,-482.905 473.238,-472.032"/>
<polygon fill="black" stroke="black" points="475.282,-469.189 465.204,-465.919 471.043,-474.76 475.282,-469.189"/>
</g>
<!-- 60 -->
<g id="node61" class="node"><title>60</title>
<g id="a_node61"><a xlink:title="60, diversity: 1, multiplicities: 1, labels: 0">
<ellipse fill="#fff5f0" stroke="black" cx="546.596" cy="-450" rx="41.6928" ry="18"/>
<text text-anchor="middle" x="546.596" y="-446.3" font-family="Times,serif" font-size="14.00">60 (1): 0</text>
</a>
</g>
</g>
<!-- 16&#45;&gt;60 -->
<g id="edge58" class="edge"><title>16&#45;&gt;60</title>
<path fill="none" stroke="black" d="M539.821,-503.697C540.813,-495.983 542.005,-486.712 543.11,-478.112"/>
<polygon fill="black" stroke="black" points="546.593,-478.469 544.397,-468.104 539.65,-477.576 546.593,-478.469"/>
</g>
<!-- 23 -->
<g id="node24" class="node"><title>23</title>
<g id="a_node24"><a xlink:title="23, diversity: 1, multiplicities: 9, labels: 0">
<ellipse fill="#fcc4ad" stroke="black" cx="445.596" cy="-162" rx="41.6928" ry="18"/>
<text text-anchor="middle" x="445.596" y="-158.3" font-family="Times,serif" font-size="14.00">23 (1): 0</text>
</a>
</g>
</g>
<!-- 17&#45;&gt;23 -->
<g id="edge25" class="edge"><title>17&#45;&gt;23</title>
<path fill="none" stroke="black" d="M445.596,-215.697C445.596,-207.983 445.596,-198.712 445.596,-190.112"/>
<polygon fill="black" stroke="black" points="449.096,-190.104 445.596,-180.104 442.096,-190.104 449.096,-190.104"/>
</g>
<!-- 18 -->
<g id="node19" class="node"><title>18</title>
<g id="a_node19"><a xlink:title="18, diversity: 1, multiplicities: 14, labels: 0">
<ellipse fill="#fca082" stroke="black" cx="673.596" cy="-18" rx="41.6928" ry="18"/>
<text text-anchor="middle" x="673.596" y="-14.3" font-family="Times,serif" font-size="14.00">18 (1): 0</text>
</a>
</g>
</g>
<!-- 61 -->
<g id="node62" class="node"><title>61</title>
<g id="a_node62"><a xlink:title="61, diversity: 1, multiplicities: 1, labels: 0">
<ellipse fill="#fff5f0" stroke="black" cx="142.596" cy="-378" rx="41.6928" ry="18"/>
<text text-anchor="middle" x="142.596" y="-374.3" font-family="Times,serif" font-size="14.00">61 (1): 0</text>
</a>
</g>
</g>
<!-- 19&#45;&gt;61 -->
<g id="edge33" class="edge"><title>19&#45;&gt;61</title>
<path fill="none" stroke="black" d="M142.596,-431.697C142.596,-423.983 142.596,-414.712 142.596,-406.112"/>
<polygon fill="black" stroke="black" points="146.096,-406.104 142.596,-396.104 139.096,-406.104 146.096,-406.104"/>
</g>
<!-- 20&#45;&gt;13 -->
<g id="edge31" class="edge"><title>20&#45;&gt;13</title>
<path fill="none" stroke="black" d="M671.872,-532.845C707.508,-544.437 763.767,-563.834 801.476,-577.461"/>
<polygon fill="black" stroke="black" points="800.519,-580.837 811.113,-580.967 802.912,-574.259 800.519,-580.837"/>
</g>
<!-- 62 -->
<g id="node63" class="node"><title>62</title>
<g id="a_node63"><a xlink:title="62, diversity: 1, multiplicities: 1, labels: 0">
<ellipse fill="#fff5f0" stroke="black" cx="647.596" cy="-450" rx="41.6928" ry="18"/>
<text text-anchor="middle" x="647.596" y="-446.3" font-family="Times,serif" font-size="14.00">62 (1): 0</text>
</a>
</g>
</g>
<!-- 20&#45;&gt;62 -->
<g id="edge39" class="edge"><title>20&#45;&gt;62</title>
<path fill="none" stroke="black" d="M640.821,-503.697C641.813,-495.983 643.005,-486.712 644.11,-478.112"/>
<polygon fill="black" stroke="black" points="647.593,-478.469 645.397,-468.104 640.65,-477.576 647.593,-478.469"/>
</g>
<!-- 21 -->
<g id="node22" class="node"><title>21</title>
<g id="a_node22"><a xlink:title="21, diversity: 1, multiplicities: 49, labels: 0">
<ellipse fill="#fca082" stroke="black" cx="1395.6" cy="-234" rx="41.6928" ry="18"/>
<text text-anchor="middle" x="1395.6" y="-230.3" font-family="Times,serif" font-size="14.00">21 (1): 0</text>
</a>
</g>
</g>
<!-- 22 -->
<g id="node23" class="node"><title>22</title>
<g id="a_node23"><a xlink:title="22, diversity: 1, multiplicities: 6, labels: 0">
<ellipse fill="#fcc4ad" stroke="black" cx="344.596" cy="-378" rx="41.6928" ry="18"/>
<text text-anchor="middle" x="344.596" y="-374.3" font-family="Times,serif" font-size="14.00">22 (1): 0</text>
</a>
</g>
</g>
<!-- 31 -->
<g id="node32" class="node"><title>31</title>
<g id="a_node32"><a xlink:title="31, diversity: 1, multiplicities: 1, labels: 0">
<ellipse fill="#fff5f0" stroke="black" cx="344.596" cy="-306" rx="41.6928" ry="18"/>
<text text-anchor="middle" x="344.596" y="-302.3" font-family="Times,serif" font-size="14.00">31 (1): 0</text>
</a>
</g>
</g>
<!-- 22&#45;&gt;31 -->
<g id="edge7" class="edge"><title>22&#45;&gt;31</title>
<path fill="none" stroke="black" d="M344.596,-359.697C344.596,-351.983 344.596,-342.712 344.596,-334.112"/>
<polygon fill="black" stroke="black" points="348.096,-334.104 344.596,-324.104 341.096,-334.104 348.096,-334.104"/>
</g>
<!-- 24 -->
<g id="node25" class="node"><title>24</title>
<g id="a_node25"><a xlink:title="24, diversity: 2, multiplicities: 3,7, labels: 0">
<ellipse fill="#fcc4ad" stroke="black" cx="370.596" cy="-18" rx="41.6928" ry="18"/>
<text text-anchor="middle" x="370.596" y="-14.3" font-family="Times,serif" font-size="14.00">24 (2): 0</text>
</a>
</g>
</g>
<!-- 25&#45;&gt;4 -->
<g id="edge13" class="edge"><title>25&#45;&gt;4</title>
<path fill="none" stroke="black" d="M740.832,-503.697C741.383,-495.983 742.045,-486.712 742.66,-478.112"/>
<polygon fill="black" stroke="black" points="746.153,-478.328 743.375,-468.104 739.171,-477.83 746.153,-478.328"/>
</g>
<!-- 26&#45;&gt;6 -->
<g id="edge6" class="edge"><title>26&#45;&gt;6</title>
<path fill="none" stroke="black" d="M840.596,-503.697C840.596,-495.983 840.596,-486.712 840.596,-478.112"/>
<polygon fill="black" stroke="black" points="844.096,-478.104 840.596,-468.104 837.096,-478.104 844.096,-478.104"/>
</g>
<!-- 27 -->
<g id="node28" class="node"><title>27</title>
<g id="a_node28"><a xlink:title="27, diversity: 1, multiplicities: 9, labels: 0">
<ellipse fill="#fcc4ad" stroke="black" cx="471.596" cy="-18" rx="41.6928" ry="18"/>
<text text-anchor="middle" x="471.596" y="-14.3" font-family="Times,serif" font-size="14.00">27 (1): 0</text>
</a>
</g>
</g>
<!-- 50 -->
<g id="node51" class="node"><title>50</title>
<g id="a_node51"><a xlink:title="50, diversity: 1, multiplicities: 1, labels: 0">
<ellipse fill="#fff5f0" stroke="black" cx="941.596" cy="-450" rx="41.6928" ry="18"/>
<text text-anchor="middle" x="941.596" y="-446.3" font-family="Times,serif" font-size="14.00">50 (1): 0</text>
</a>
</g>
</g>
<!-- 28&#45;&gt;50 -->
<g id="edge48" class="edge"><title>28&#45;&gt;50</title>
<path fill="none" stroke="black" d="M941.596,-503.697C941.596,-495.983 941.596,-486.712 941.596,-478.112"/>
<polygon fill="black" stroke="black" points="945.096,-478.104 941.596,-468.104 938.096,-478.104 945.096,-478.104"/>
</g>
<!-- 29 -->
<g id="node30" class="node"><title>29</title>
<g id="a_node30"><a xlink:title="29, diversity: 1, multiplicities: 5, labels: 0">
<ellipse fill="#fee3d6" stroke="black" cx="572.596" cy="-18" rx="41.6928" ry="18"/>
<text text-anchor="middle" x="572.596" y="-14.3" font-family="Times,serif" font-size="14.00">29 (1): 0</text>
</a>
</g>
</g>
<!-- 30&#45;&gt;21 -->
<g id="edge50" class="edge"><title>30&#45;&gt;21</title>
<path fill="none" stroke="black" d="M1395.6,-287.697C1395.6,-279.983 1395.6,-270.712 1395.6,-262.112"/>
<polygon fill="black" stroke="black" points="1399.1,-262.104 1395.6,-252.104 1392.1,-262.104 1399.1,-262.104"/>
</g>
<!-- 31&#45;&gt;12 -->
<g id="edge20" class="edge"><title>31&#45;&gt;12</title>
<path fill="none" stroke="black" d="M344.596,-287.697C344.596,-279.983 344.596,-270.712 344.596,-262.112"/>
<polygon fill="black" stroke="black" points="348.096,-262.104 344.596,-252.104 341.096,-262.104 348.096,-262.104"/>
</g>
<!-- 32&#45;&gt;3 -->
<g id="edge47" class="edge"><title>32&#45;&gt;3</title>
<path fill="none" stroke="black" d="M546.596,-215.697C546.596,-207.983 546.596,-198.712 546.596,-190.112"/>
<polygon fill="black" stroke="black" points="550.096,-190.104 546.596,-180.104 543.096,-190.104 550.096,-190.104"/>
</g>
<!-- 33 -->
<g id="node34" class="node"><title>33</title>
<g id="a_node34"><a xlink:title="33, diversity: 1, multiplicities: 4, labels: 0">
<ellipse fill="#fee3d6" stroke="black" cx="748.596" cy="-234" rx="41.6928" ry="18"/>
<text text-anchor="middle" x="748.596" y="-230.3" font-family="Times,serif" font-size="14.00">33 (1): 0</text>
</a>
</g>
</g>
<!-- 33&#45;&gt;5 -->
<g id="edge40" class="edge"><title>33&#45;&gt;5</title>
<path fill="none" stroke="black" d="M748.596,-215.697C748.596,-207.983 748.596,-198.712 748.596,-190.112"/>
<polygon fill="black" stroke="black" points="752.096,-190.104 748.596,-180.104 745.096,-190.104 752.096,-190.104"/>
</g>
<!-- 34 -->
<g id="node35" class="node"><title>34</title>
<g id="a_node35"><a xlink:title="34, diversity: 2, multiplicities: 1,5, labels: 0">
<ellipse fill="#fcc4ad" stroke="black" cx="243.596" cy="-306" rx="41.6928" ry="18"/>
<text text-anchor="middle" x="243.596" y="-302.3" font-family="Times,serif" font-size="14.00">34 (2): 0</text>
</a>
</g>
</g>
<!-- 35 -->
<g id="node36" class="node"><title>35</title>
<g id="a_node36"><a xlink:title="35, diversity: 1, multiplicities: 1, labels: 0">
<ellipse fill="#fff5f0" stroke="black" cx="748.596" cy="-378" rx="41.6928" ry="18"/>
<text text-anchor="middle" x="748.596" y="-374.3" font-family="Times,serif" font-size="14.00">35 (1): 0</text>
</a>
</g>
</g>
<!-- 52 -->
<g id="node53" class="node"><title>52</title>
<g id="a_node53"><a xlink:title="52, diversity: 1, multiplicities: 2, labels: 0">
<ellipse fill="#fee3d6" stroke="black" cx="748.596" cy="-306" rx="41.6928" ry="18"/>
<text text-anchor="middle" x="748.596" y="-302.3" font-family="Times,serif" font-size="14.00">52 (1): 0</text>
</a>
</g>
</g>
<!-- 35&#45;&gt;52 -->
<g id="edge55" class="edge"><title>35&#45;&gt;52</title>
<path fill="none" stroke="black" d="M748.596,-359.697C748.596,-351.983 748.596,-342.712 748.596,-334.112"/>
<polygon fill="black" stroke="black" points="752.096,-334.104 748.596,-324.104 745.096,-334.104 752.096,-334.104"/>
</g>
<!-- 36 -->
<g id="node37" class="node"><title>36</title>
<g id="a_node37"><a xlink:title="36, diversity: 1, multiplicities: 20, labels: 0">
<ellipse fill="#fca082" stroke="black" cx="142.596" cy="-306" rx="41.6928" ry="18"/>
<text text-anchor="middle" x="142.596" y="-302.3" font-family="Times,serif" font-size="14.00">36 (1): 0</text>
</a>
</g>
</g>
<!-- 37 -->
<g id="node38" class="node"><title>37</title>
<g id="a_node38"><a xlink:title="37, diversity: 1, multiplicities: 23, labels: 0">
<ellipse fill="#fca082" stroke="black" cx="546.596" cy="-306" rx="41.6928" ry="18"/>
<text text-anchor="middle" x="546.596" y="-302.3" font-family="Times,serif" font-size="14.00">37 (1): 0</text>
</a>
</g>
</g>
<!-- 38 -->
<g id="node39" class="node"><title>38</title>
<g id="a_node39"><a xlink:title="38, diversity: 1, multiplicities: 5, labels: 0">
<ellipse fill="#fee3d6" stroke="black" cx="1244.6" cy="-450" rx="41.6928" ry="18"/>
<text text-anchor="middle" x="1244.6" y="-446.3" font-family="Times,serif" font-size="14.00">38 (1): 0</text>
</a>
</g>
</g>
<!-- 39 -->
<g id="node40" class="node"><title>39</title>
<g id="a_node40"><a xlink:title="39, diversity: 1, multiplicities: 1, labels: 0">
<ellipse fill="#fff5f0" stroke="black" cx="445.596" cy="-378" rx="41.6928" ry="18"/>
<text text-anchor="middle" x="445.596" y="-374.3" font-family="Times,serif" font-size="14.00">39 (1): 0</text>
</a>
</g>
</g>
<!-- 39&#45;&gt;8 -->
<g id="edge16" class="edge"><title>39&#45;&gt;8</title>
<path fill="none" stroke="black" d="M445.596,-359.697C445.596,-351.983 445.596,-342.712 445.596,-334.112"/>
<polygon fill="black" stroke="black" points="449.096,-334.104 445.596,-324.104 442.096,-334.104 449.096,-334.104"/>
</g>
<!-- 44 -->
<g id="node45" class="node"><title>44</title>
<g id="a_node45"><a xlink:title="44, diversity: 1, multiplicities: 17, labels: 0">
<ellipse fill="#fca082" stroke="black" cx="1042.6" cy="-450" rx="41.6928" ry="18"/>
<text text-anchor="middle" x="1042.6" y="-446.3" font-family="Times,serif" font-size="14.00">44 (1): 0</text>
</a>
</g>
</g>
<!-- 40&#45;&gt;44 -->
<g id="edge51" class="edge"><title>40&#45;&gt;44</title>
<path fill="none" stroke="black" d="M1042.6,-503.697C1042.6,-495.983 1042.6,-486.712 1042.6,-478.112"/>
<polygon fill="black" stroke="black" points="1046.1,-478.104 1042.6,-468.104 1039.1,-478.104 1046.1,-478.104"/>
</g>
<!-- 41&#45;&gt;39 -->
<g id="edge61" class="edge"><title>41&#45;&gt;39</title>
<path fill="none" stroke="black" d="M445.596,-431.697C445.596,-423.983 445.596,-414.712 445.596,-406.112"/>
<polygon fill="black" stroke="black" points="449.096,-406.104 445.596,-396.104 442.096,-406.104 449.096,-406.104"/>
</g>
<!-- 43 -->
<g id="node44" class="node"><title>43</title>
<g id="a_node44"><a xlink:title="43, diversity: 1, multiplicities: 2, labels: 0">
<ellipse fill="#fee3d6" stroke="black" cx="546.596" cy="-378" rx="41.6928" ry="18"/>
<text text-anchor="middle" x="546.596" y="-374.3" font-family="Times,serif" font-size="14.00">43 (1): 0</text>
</a>
</g>
</g>
<!-- 41&#45;&gt;43 -->
<g id="edge22" class="edge"><title>41&#45;&gt;43</title>
<path fill="none" stroke="black" d="M467.016,-434.155C481.575,-424.064 501.027,-410.583 517.055,-399.474"/>
<polygon fill="black" stroke="black" points="519.329,-402.157 525.554,-393.584 515.341,-396.403 519.329,-402.157"/>
</g>
<!-- 43&#45;&gt;37 -->
<g id="edge14" class="edge"><title>43&#45;&gt;37</title>
<path fill="none" stroke="black" d="M546.596,-359.697C546.596,-351.983 546.596,-342.712 546.596,-334.112"/>
<polygon fill="black" stroke="black" points="550.096,-334.104 546.596,-324.104 543.096,-334.104 550.096,-334.104"/>
</g>
<!-- 54 -->
<g id="node55" class="node"><title>54</title>
<g id="a_node55"><a xlink:title="54, diversity: 1, multiplicities: 2, labels: 0">
<ellipse fill="#fee3d6" stroke="black" cx="243.596" cy="-378" rx="41.6928" ry="18"/>
<text text-anchor="middle" x="243.596" y="-374.3" font-family="Times,serif" font-size="14.00">54 (1): 0</text>
</a>
</g>
</g>
<!-- 45&#45;&gt;54 -->
<g id="edge1" class="edge"><title>45&#45;&gt;54</title>
<path fill="none" stroke="black" d="M243.596,-431.697C243.596,-423.983 243.596,-414.712 243.596,-406.112"/>
<polygon fill="black" stroke="black" points="247.096,-406.104 243.596,-396.104 240.096,-406.104 247.096,-406.104"/>
</g>
<!-- 46&#45;&gt;1 -->
<g id="edge56" class="edge"><title>46&#45;&gt;1</title>
<path fill="none" stroke="black" d="M1143.6,-503.697C1143.6,-495.983 1143.6,-486.712 1143.6,-478.112"/>
<polygon fill="black" stroke="black" points="1147.1,-478.104 1143.6,-468.104 1140.1,-478.104 1147.1,-478.104"/>
</g>
<!-- 47&#45;&gt;38 -->
<g id="edge21" class="edge"><title>47&#45;&gt;38</title>
<path fill="none" stroke="black" d="M1244.6,-503.697C1244.6,-495.983 1244.6,-486.712 1244.6,-478.112"/>
<polygon fill="black" stroke="black" points="1248.1,-478.104 1244.6,-468.104 1241.1,-478.104 1248.1,-478.104"/>
</g>
<!-- 48&#45;&gt;22 -->
<g id="edge29" class="edge"><title>48&#45;&gt;22</title>
<path fill="none" stroke="black" d="M344.596,-431.697C344.596,-423.983 344.596,-414.712 344.596,-406.112"/>
<polygon fill="black" stroke="black" points="348.096,-406.104 344.596,-396.104 341.096,-406.104 348.096,-406.104"/>
</g>
<!-- 49 -->
<g id="node50" class="node"><title>49</title>
<g id="a_node50"><a xlink:title="49, diversity: 1, multiplicities: 3, labels: 0">
<ellipse fill="#fee3d6" stroke="black" cx="647.596" cy="-378" rx="41.6928" ry="18"/>
<text text-anchor="middle" x="647.596" y="-374.3" font-family="Times,serif" font-size="14.00">49 (1): 0</text>
</a>
</g>
</g>
<!-- 49&#45;&gt;7 -->
<g id="edge36" class="edge"><title>49&#45;&gt;7</title>
<path fill="none" stroke="black" d="M647.596,-359.697C647.596,-351.983 647.596,-342.712 647.596,-334.112"/>
<polygon fill="black" stroke="black" points="651.096,-334.104 647.596,-324.104 644.096,-334.104 651.096,-334.104"/>
</g>
<!-- 50&#45;&gt;10 -->
<g id="edge63" class="edge"><title>50&#45;&gt;10</title>
<path fill="none" stroke="black" d="M941.596,-431.697C941.596,-423.983 941.596,-414.712 941.596,-406.112"/>
<polygon fill="black" stroke="black" points="945.096,-406.104 941.596,-396.104 938.096,-406.104 945.096,-406.104"/>
</g>
<!-- 51&#45;&gt;24 -->
<g id="edge10" class="edge"><title>51&#45;&gt;24</title>
<path fill="none" stroke="black" d="M472.003,-75.3371C452.577,-64.5447 425.272,-49.3754 403.889,-37.4959"/>
<polygon fill="black" stroke="black" points="405.569,-34.4253 395.127,-32.6284 402.169,-40.5445 405.569,-34.4253"/>
</g>
<!-- 51&#45;&gt;27 -->
<g id="edge4" class="edge"><title>51&#45;&gt;27</title>
<path fill="none" stroke="black" d="M490.545,-72.055C487.731,-64.1762 484.316,-54.6165 481.166,-45.794"/>
<polygon fill="black" stroke="black" points="484.426,-44.5155 477.766,-36.2753 477.833,-46.8699 484.426,-44.5155"/>
</g>
<!-- 51&#45;&gt;29 -->
<g id="edge45" class="edge"><title>51&#45;&gt;29</title>
<path fill="none" stroke="black" d="M513.463,-73.4647C523.696,-64.0396 536.927,-51.8531 548.278,-41.3981"/>
<polygon fill="black" stroke="black" points="550.792,-43.841 555.777,-34.4918 546.05,-38.6922 550.792,-43.841"/>
</g>
<!-- 52&#45;&gt;33 -->
<g id="edge38" class="edge"><title>52&#45;&gt;33</title>
<path fill="none" stroke="black" d="M748.596,-287.697C748.596,-279.983 748.596,-270.712 748.596,-262.112"/>
<polygon fill="black" stroke="black" points="752.096,-262.104 748.596,-252.104 745.096,-262.104 752.096,-262.104"/>
</g>
<!-- 53&#45;&gt;2 -->
<g id="edge18" class="edge"><title>53&#45;&gt;2</title>
<path fill="none" stroke="black" d="M1345.6,-503.697C1345.6,-495.983 1345.6,-486.712 1345.6,-478.112"/>
<polygon fill="black" stroke="black" points="1349.1,-478.104 1345.6,-468.104 1342.1,-478.104 1349.1,-478.104"/>
</g>
<!-- 54&#45;&gt;34 -->
<g id="edge11" class="edge"><title>54&#45;&gt;34</title>
<path fill="none" stroke="black" d="M243.596,-359.697C243.596,-351.983 243.596,-342.712 243.596,-334.112"/>
<polygon fill="black" stroke="black" points="247.096,-334.104 243.596,-324.104 240.096,-334.104 247.096,-334.104"/>
</g>
<!-- 55&#45;&gt;18 -->
<g id="edge9" class="edge"><title>55&#45;&gt;18</title>
<path fill="none" stroke="black" d="M653.89,-72.055C656.817,-64.1762 660.367,-54.6165 663.644,-45.794"/>
<polygon fill="black" stroke="black" points="666.979,-46.8682 667.18,-36.2753 660.417,-44.4309 666.979,-46.8682"/>
</g>
<!-- 56 -->
<g id="node57" class="node"><title>56</title>
<g id="a_node57"><a xlink:title="56, diversity: 1, multiplicities: 1, labels: 0">
<ellipse fill="#fff5f0" stroke="black" cx="1446.6" cy="-450" rx="41.6928" ry="18"/>
<text text-anchor="middle" x="1446.6" y="-446.3" font-family="Times,serif" font-size="14.00">56 (1): 0</text>
</a>
</g>
</g>
<!-- 56&#45;&gt;0 -->
<g id="edge27" class="edge"><title>56&#45;&gt;0</title>
<path fill="none" stroke="black" d="M1434.75,-432.411C1428.64,-423.868 1421.08,-413.278 1414.3,-403.787"/>
<polygon fill="black" stroke="black" points="1417.02,-401.573 1408.36,-395.47 1411.32,-405.642 1417.02,-401.573"/>
</g>
<!-- 59 -->
<g id="node60" class="node"><title>59</title>
<g id="a_node60"><a xlink:title="59, diversity: 1, multiplicities: 1, labels: 0">
<ellipse fill="#fff5f0" stroke="black" cx="1495.6" cy="-378" rx="41.6928" ry="18"/>
<text text-anchor="middle" x="1495.6" y="-374.3" font-family="Times,serif" font-size="14.00">59 (1): 0</text>
</a>
</g>
</g>
<!-- 56&#45;&gt;59 -->
<g id="edge53" class="edge"><title>56&#45;&gt;59</title>
<path fill="none" stroke="black" d="M1458.21,-432.411C1464.19,-423.868 1471.6,-413.278 1478.25,-403.787"/>
<polygon fill="black" stroke="black" points="1481.2,-405.669 1484.07,-395.47 1475.47,-401.655 1481.2,-405.669"/>
</g>
<!-- 57&#45;&gt;56 -->
<g id="edge62" class="edge"><title>57&#45;&gt;56</title>
<path fill="none" stroke="black" d="M1446.6,-503.697C1446.6,-495.983 1446.6,-486.712 1446.6,-478.112"/>
<polygon fill="black" stroke="black" points="1450.1,-478.104 1446.6,-468.104 1443.1,-478.104 1450.1,-478.104"/>
</g>
<!-- 58 -->
<g id="node59" class="node"><title>58</title>
<g id="a_node59"><a xlink:title="58, diversity: 1, multiplicities: 2, labels: 0">
<ellipse fill="#fee3d6" stroke="black" cx="1496.6" cy="-306" rx="41.6928" ry="18"/>
<text text-anchor="middle" x="1496.6" y="-302.3" font-family="Times,serif" font-size="14.00">58 (1): 0</text>
</a>
</g>
</g>
<!-- 58&#45;&gt;9 -->
<g id="edge57" class="edge"><title>58&#45;&gt;9</title>
<path fill="none" stroke="black" d="M1496.6,-287.697C1496.6,-279.983 1496.6,-270.712 1496.6,-262.112"/>
<polygon fill="black" stroke="black" points="1500.1,-262.104 1496.6,-252.104 1493.1,-262.104 1500.1,-262.104"/>
</g>
<!-- 59&#45;&gt;58 -->
<g id="edge32" class="edge"><title>59&#45;&gt;58</title>
<path fill="none" stroke="black" d="M1495.84,-359.697C1495.95,-351.983 1496.09,-342.712 1496.21,-334.112"/>
<polygon fill="black" stroke="black" points="1499.71,-334.153 1496.35,-324.104 1492.71,-334.053 1499.71,-334.153"/>
</g>
<!-- 60&#45;&gt;49 -->
<g id="edge12" class="edge"><title>60&#45;&gt;49</title>
<path fill="none" stroke="black" d="M568.016,-434.155C582.575,-424.064 602.027,-410.583 618.055,-399.474"/>
<polygon fill="black" stroke="black" points="620.329,-402.157 626.554,-393.584 616.341,-396.403 620.329,-402.157"/>
</g>
<!-- 61&#45;&gt;36 -->
<g id="edge42" class="edge"><title>61&#45;&gt;36</title>
<path fill="none" stroke="black" d="M142.596,-359.697C142.596,-351.983 142.596,-342.712 142.596,-334.112"/>
<polygon fill="black" stroke="black" points="146.096,-334.104 142.596,-324.104 139.096,-334.104 146.096,-334.104"/>
</g>
<!-- 62&#45;&gt;35 -->
<g id="edge34" class="edge"><title>62&#45;&gt;35</title>
<path fill="none" stroke="black" d="M669.016,-434.155C683.575,-424.064 703.027,-410.583 719.055,-399.474"/>
<polygon fill="black" stroke="black" points="721.329,-402.157 727.554,-393.584 717.341,-396.403 721.329,-402.157"/>
</g>
</g>
</svg>
