<?xml version="1.0" encoding="UTF-8" standalone="no"?>
<!DOCTYPE svg PUBLIC "-//W3C//DTD SVG 1.1//EN"
 "http://www.w3.org/Graphics/SVG/1.1/DTD/svg11.dtd">
<!-- Generated by graphviz version 2.38.0 (20140413.2041)
 -->
<!-- Title: %3 Pages: 1 -->
<svg width="570pt" height="764pt"
 viewBox="0.00 0.00 569.64 764.00" xmlns="http://www.w3.org/2000/svg" xmlns:xlink="http://www.w3.org/1999/xlink">
<g id="graph0" class="graph" transform="scale(1 1) rotate(0) translate(4 760)">
<title>%3</title>
<polygon fill="white" stroke="none" points="-4,4 -4,-760 565.643,-760 565.643,4 -4,4"/>
<!-- 0 -->
<g id="node1" class="node"><title>0</title>
<g id="a_node1"><a xlink:title="0, diversity: 1, multiplicities: 429, labels: 0">
<ellipse fill="#f6553c" stroke="black" cx="270.047" cy="-738" rx="37.0935" ry="18"/>
<text text-anchor="middle" x="270.047" y="-734.3" font-family="Times,serif" font-size="14.00">0 (1): 0</text>
</a>
</g>
</g>
<!-- 1 -->
<g id="node2" class="node"><title>1</title>
<g id="a_node2"><a xlink:title="1, diversity: 1, multiplicities: 103, labels: 0">
<ellipse fill="#fb7c5c" stroke="black" cx="86.0467" cy="-666" rx="37.0935" ry="18"/>
<text text-anchor="middle" x="86.0467" y="-662.3" font-family="Times,serif" font-size="14.00">1 (1): 0</text>
</a>
</g>
</g>
<!-- 0&#45;&gt;1 -->
<g id="edge18" class="edge"><title>0&#45;&gt;1</title>
<path fill="none" stroke="black" d="M241.7,-726.216C210.094,-714.192 158.83,-694.689 123.835,-681.376"/>
<polygon fill="black" stroke="black" points="125.017,-678.081 114.426,-677.796 122.528,-684.623 125.017,-678.081"/>
</g>
<!-- 2 -->
<g id="node3" class="node"><title>2</title>
<g id="a_node3"><a xlink:title="2, diversity: 1, multiplicities: 54, labels: 0">
<ellipse fill="#fca082" stroke="black" cx="178.047" cy="-666" rx="37.0935" ry="18"/>
<text text-anchor="middle" x="178.047" y="-662.3" font-family="Times,serif" font-size="14.00">2 (1): 0</text>
</a>
</g>
</g>
<!-- 0&#45;&gt;2 -->
<g id="edge24" class="edge"><title>0&#45;&gt;2</title>
<path fill="none" stroke="black" d="M250.984,-722.496C237.785,-712.453 220.018,-698.934 205.324,-687.754"/>
<polygon fill="black" stroke="black" points="207.162,-684.755 197.085,-681.485 202.924,-690.326 207.162,-684.755"/>
</g>
<!-- 8 -->
<g id="node9" class="node"><title>8</title>
<g id="a_node9"><a xlink:title="8, diversity: 2, multiplicities: 12,17, labels: 0">
<ellipse fill="#fca082" stroke="black" cx="270.047" cy="-666" rx="37.0935" ry="18"/>
<text text-anchor="middle" x="270.047" y="-662.3" font-family="Times,serif" font-size="14.00">8 (2): 0</text>
</a>
</g>
</g>
<!-- 0&#45;&gt;8 -->
<g id="edge16" class="edge"><title>0&#45;&gt;8</title>
<path fill="none" stroke="black" d="M270.047,-719.697C270.047,-711.983 270.047,-702.712 270.047,-694.112"/>
<polygon fill="black" stroke="black" points="273.547,-694.104 270.047,-684.104 266.547,-694.104 273.547,-694.104"/>
</g>
<!-- 21 -->
<g id="node22" class="node"><title>21</title>
<g id="a_node22"><a xlink:title="21, diversity: 2, multiplicities: 1,2, labels: 0">
<ellipse fill="#fee3d6" stroke="black" cx="368.047" cy="-666" rx="41.6928" ry="18"/>
<text text-anchor="middle" x="368.047" y="-662.3" font-family="Times,serif" font-size="14.00">21 (2): 0</text>
</a>
</g>
</g>
<!-- 0&#45;&gt;21 -->
<g id="edge6" class="edge"><title>0&#45;&gt;21</title>
<path fill="none" stroke="black" d="M290.352,-722.496C304.449,-712.427 323.438,-698.864 339.114,-687.666"/>
<polygon fill="black" stroke="black" points="341.327,-690.387 347.43,-681.726 337.258,-684.691 341.327,-690.387"/>
</g>
<!-- 24 -->
<g id="node25" class="node"><title>24</title>
<g id="a_node25"><a xlink:title="24, diversity: 1, multiplicities: 1, labels: 0">
<ellipse fill="#fff5f0" stroke="black" cx="471.047" cy="-666" rx="41.6928" ry="18"/>
<text text-anchor="middle" x="471.047" y="-662.3" font-family="Times,serif" font-size="14.00">24 (1): 0</text>
</a>
</g>
</g>
<!-- 0&#45;&gt;24 -->
<g id="edge8" class="edge"><title>0&#45;&gt;24</title>
<path fill="none" stroke="black" d="M299.274,-726.821C333.803,-714.796 391.457,-694.718 430.343,-681.176"/>
<polygon fill="black" stroke="black" points="431.506,-684.476 439.799,-677.882 429.204,-677.866 431.506,-684.476"/>
</g>
<!-- 3 -->
<g id="node4" class="node"><title>3</title>
<g id="a_node4"><a xlink:title="3, diversity: 1, multiplicities: 53, labels: 0">
<ellipse fill="#fca082" stroke="black" cx="37.0467" cy="-594" rx="37.0935" ry="18"/>
<text text-anchor="middle" x="37.0467" y="-590.3" font-family="Times,serif" font-size="14.00">3 (1): 0</text>
</a>
</g>
</g>
<!-- 4 -->
<g id="node5" class="node"><title>4</title>
<g id="a_node5"><a xlink:title="4, diversity: 1, multiplicities: 11, labels: 0">
<ellipse fill="#fca082" stroke="black" cx="419.047" cy="-306" rx="37.0935" ry="18"/>
<text text-anchor="middle" x="419.047" y="-302.3" font-family="Times,serif" font-size="14.00">4 (1): 0</text>
</a>
</g>
</g>
<!-- 15 -->
<g id="node16" class="node"><title>15</title>
<g id="a_node16"><a xlink:title="15, diversity: 1, multiplicities: 2, labels: 0">
<ellipse fill="#fee3d6" stroke="black" cx="419.047" cy="-234" rx="41.6928" ry="18"/>
<text text-anchor="middle" x="419.047" y="-230.3" font-family="Times,serif" font-size="14.00">15 (1): 0</text>
</a>
</g>
</g>
<!-- 4&#45;&gt;15 -->
<g id="edge22" class="edge"><title>4&#45;&gt;15</title>
<path fill="none" stroke="black" d="M419.047,-287.697C419.047,-279.983 419.047,-270.712 419.047,-262.112"/>
<polygon fill="black" stroke="black" points="422.547,-262.104 419.047,-252.104 415.547,-262.104 422.547,-262.104"/>
</g>
<!-- 5 -->
<g id="node6" class="node"><title>5</title>
<g id="a_node6"><a xlink:title="5, diversity: 1, multiplicities: 3, labels: 0">
<ellipse fill="#fee3d6" stroke="black" cx="129.047" cy="-594" rx="37.0935" ry="18"/>
<text text-anchor="middle" x="129.047" y="-590.3" font-family="Times,serif" font-size="14.00">5 (1): 0</text>
</a>
</g>
</g>
<!-- 10 -->
<g id="node11" class="node"><title>10</title>
<g id="a_node11"><a xlink:title="10, diversity: 1, multiplicities: 10, labels: 0">
<ellipse fill="#fcc4ad" stroke="black" cx="129.047" cy="-522" rx="41.6928" ry="18"/>
<text text-anchor="middle" x="129.047" y="-518.3" font-family="Times,serif" font-size="14.00">10 (1): 0</text>
</a>
</g>
</g>
<!-- 5&#45;&gt;10 -->
<g id="edge20" class="edge"><title>5&#45;&gt;10</title>
<path fill="none" stroke="black" d="M129.047,-575.697C129.047,-567.983 129.047,-558.712 129.047,-550.112"/>
<polygon fill="black" stroke="black" points="132.547,-550.104 129.047,-540.104 125.547,-550.104 132.547,-550.104"/>
</g>
<!-- 6 -->
<g id="node7" class="node"><title>6</title>
<g id="a_node7"><a xlink:title="6, diversity: 2, multiplicities: 5,10, labels: 0">
<ellipse fill="#fca082" stroke="black" cx="419.047" cy="-90" rx="37.0935" ry="18"/>
<text text-anchor="middle" x="419.047" y="-86.3" font-family="Times,serif" font-size="14.00">6 (2): 0</text>
</a>
</g>
</g>
<!-- 11 -->
<g id="node12" class="node"><title>11</title>
<g id="a_node12"><a xlink:title="11, diversity: 1, multiplicities: 7, labels: 0">
<ellipse fill="#fcc4ad" stroke="black" cx="419.047" cy="-18" rx="41.6928" ry="18"/>
<text text-anchor="middle" x="419.047" y="-14.3" font-family="Times,serif" font-size="14.00">11 (1): 0</text>
</a>
</g>
</g>
<!-- 6&#45;&gt;11 -->
<g id="edge13" class="edge"><title>6&#45;&gt;11</title>
<path fill="none" stroke="black" d="M419.047,-71.6966C419.047,-63.9827 419.047,-54.7125 419.047,-46.1124"/>
<polygon fill="black" stroke="black" points="422.547,-46.1043 419.047,-36.1043 415.547,-46.1044 422.547,-46.1043"/>
</g>
<!-- 7 -->
<g id="node8" class="node"><title>7</title>
<g id="a_node8"><a xlink:title="7, diversity: 1, multiplicities: 2, labels: 0">
<ellipse fill="#fee3d6" stroke="black" cx="520.047" cy="-450" rx="37.0935" ry="18"/>
<text text-anchor="middle" x="520.047" y="-446.3" font-family="Times,serif" font-size="14.00">7 (1): 0</text>
</a>
</g>
</g>
<!-- 23 -->
<g id="node24" class="node"><title>23</title>
<g id="a_node24"><a xlink:title="23, diversity: 1, multiplicities: 7, labels: 0">
<ellipse fill="#fcc4ad" stroke="black" cx="520.047" cy="-378" rx="41.6928" ry="18"/>
<text text-anchor="middle" x="520.047" y="-374.3" font-family="Times,serif" font-size="14.00">23 (1): 0</text>
</a>
</g>
</g>
<!-- 7&#45;&gt;23 -->
<g id="edge12" class="edge"><title>7&#45;&gt;23</title>
<path fill="none" stroke="black" d="M520.047,-431.697C520.047,-423.983 520.047,-414.712 520.047,-406.112"/>
<polygon fill="black" stroke="black" points="523.547,-406.104 520.047,-396.104 516.547,-406.104 523.547,-406.104"/>
</g>
<!-- 8&#45;&gt;3 -->
<g id="edge19" class="edge"><title>8&#45;&gt;3</title>
<path fill="none" stroke="black" d="M241.987,-654.103C236.099,-651.966 229.899,-649.823 224.047,-648 162.297,-628.764 144.797,-631.236 83.0467,-612 80.3033,-611.145 77.4837,-610.221 74.6557,-609.259"/>
<polygon fill="black" stroke="black" points="75.7017,-605.917 65.1069,-605.897 73.3767,-612.519 75.7017,-605.917"/>
</g>
<!-- 8&#45;&gt;5 -->
<g id="edge4" class="edge"><title>8&#45;&gt;5</title>
<path fill="none" stroke="black" d="M245.163,-652.647C222.45,-641.37 188.666,-624.598 163.387,-612.048"/>
<polygon fill="black" stroke="black" points="164.669,-608.777 154.156,-607.465 161.556,-615.047 164.669,-608.777"/>
</g>
<!-- 9 -->
<g id="node10" class="node"><title>9</title>
<g id="a_node10"><a xlink:title="9, diversity: 1, multiplicities: 9, labels: 0">
<ellipse fill="#fcc4ad" stroke="black" cx="221.047" cy="-594" rx="37.0935" ry="18"/>
<text text-anchor="middle" x="221.047" y="-590.3" font-family="Times,serif" font-size="14.00">9 (1): 0</text>
</a>
</g>
</g>
<!-- 8&#45;&gt;9 -->
<g id="edge1" class="edge"><title>8&#45;&gt;9</title>
<path fill="none" stroke="black" d="M258.682,-648.765C252.621,-640.106 245.038,-629.273 238.27,-619.604"/>
<polygon fill="black" stroke="black" points="240.952,-617.333 232.35,-611.147 235.217,-621.347 240.952,-617.333"/>
</g>
<!-- 14 -->
<g id="node15" class="node"><title>14</title>
<g id="a_node15"><a xlink:title="14, diversity: 1, multiplicities: 7, labels: 0">
<ellipse fill="#fcc4ad" stroke="black" cx="318.047" cy="-594" rx="41.6928" ry="18"/>
<text text-anchor="middle" x="318.047" y="-590.3" font-family="Times,serif" font-size="14.00">14 (1): 0</text>
</a>
</g>
</g>
<!-- 8&#45;&gt;14 -->
<g id="edge5" class="edge"><title>8&#45;&gt;14</title>
<path fill="none" stroke="black" d="M281.18,-648.765C287.032,-640.23 294.333,-629.582 300.891,-620.019"/>
<polygon fill="black" stroke="black" points="303.872,-621.86 306.641,-611.633 298.099,-617.901 303.872,-621.86"/>
</g>
<!-- 12 -->
<g id="node13" class="node"><title>12</title>
<g id="a_node13"><a xlink:title="12, diversity: 1, multiplicities: 1, labels: 0">
<ellipse fill="#fff5f0" stroke="black" cx="419.047" cy="-594" rx="41.6928" ry="18"/>
<text text-anchor="middle" x="419.047" y="-590.3" font-family="Times,serif" font-size="14.00">12 (1): 0</text>
</a>
</g>
</g>
<!-- 19 -->
<g id="node20" class="node"><title>19</title>
<g id="a_node20"><a xlink:title="19, diversity: 1, multiplicities: 1, labels: 0">
<ellipse fill="#fff5f0" stroke="black" cx="419.047" cy="-522" rx="41.6928" ry="18"/>
<text text-anchor="middle" x="419.047" y="-518.3" font-family="Times,serif" font-size="14.00">19 (1): 0</text>
</a>
</g>
</g>
<!-- 12&#45;&gt;19 -->
<g id="edge23" class="edge"><title>12&#45;&gt;19</title>
<path fill="none" stroke="black" d="M419.047,-575.697C419.047,-567.983 419.047,-558.712 419.047,-550.112"/>
<polygon fill="black" stroke="black" points="422.547,-550.104 419.047,-540.104 415.547,-550.104 422.547,-550.104"/>
</g>
<!-- 13 -->
<g id="node14" class="node"><title>13</title>
<g id="a_node14"><a xlink:title="13, diversity: 1, multiplicities: 8, labels: 0">
<ellipse fill="#fcc4ad" stroke="black" cx="520.047" cy="-594" rx="41.6928" ry="18"/>
<text text-anchor="middle" x="520.047" y="-590.3" font-family="Times,serif" font-size="14.00">13 (1): 0</text>
</a>
</g>
</g>
<!-- 20 -->
<g id="node21" class="node"><title>20</title>
<g id="a_node21"><a xlink:title="20, diversity: 1, multiplicities: 1, labels: 0">
<ellipse fill="#fff5f0" stroke="black" cx="520.047" cy="-522" rx="41.6928" ry="18"/>
<text text-anchor="middle" x="520.047" y="-518.3" font-family="Times,serif" font-size="14.00">20 (1): 0</text>
</a>
</g>
</g>
<!-- 13&#45;&gt;20 -->
<g id="edge17" class="edge"><title>13&#45;&gt;20</title>
<path fill="none" stroke="black" d="M520.047,-575.697C520.047,-567.983 520.047,-558.712 520.047,-550.112"/>
<polygon fill="black" stroke="black" points="523.547,-550.104 520.047,-540.104 516.547,-550.104 523.547,-550.104"/>
</g>
<!-- 18 -->
<g id="node19" class="node"><title>18</title>
<g id="a_node19"><a xlink:title="18, diversity: 1, multiplicities: 2, labels: 0">
<ellipse fill="#fee3d6" stroke="black" cx="419.047" cy="-162" rx="41.6928" ry="18"/>
<text text-anchor="middle" x="419.047" y="-158.3" font-family="Times,serif" font-size="14.00">18 (1): 0</text>
</a>
</g>
</g>
<!-- 15&#45;&gt;18 -->
<g id="edge10" class="edge"><title>15&#45;&gt;18</title>
<path fill="none" stroke="black" d="M419.047,-215.697C419.047,-207.983 419.047,-198.712 419.047,-190.112"/>
<polygon fill="black" stroke="black" points="422.547,-190.104 419.047,-180.104 415.547,-190.104 422.547,-190.104"/>
</g>
<!-- 16 -->
<g id="node17" class="node"><title>16</title>
<g id="a_node17"><a xlink:title="16, diversity: 1, multiplicities: 4, labels: 0">
<ellipse fill="#fee3d6" stroke="black" cx="419.047" cy="-450" rx="41.6928" ry="18"/>
<text text-anchor="middle" x="419.047" y="-446.3" font-family="Times,serif" font-size="14.00">16 (1): 0</text>
</a>
</g>
</g>
<!-- 22 -->
<g id="node23" class="node"><title>22</title>
<g id="a_node23"><a xlink:title="22, diversity: 1, multiplicities: 7, labels: 0">
<ellipse fill="#fcc4ad" stroke="black" cx="419.047" cy="-378" rx="41.6928" ry="18"/>
<text text-anchor="middle" x="419.047" y="-374.3" font-family="Times,serif" font-size="14.00">22 (1): 0</text>
</a>
</g>
</g>
<!-- 16&#45;&gt;22 -->
<g id="edge9" class="edge"><title>16&#45;&gt;22</title>
<path fill="none" stroke="black" d="M419.047,-431.697C419.047,-423.983 419.047,-414.712 419.047,-406.112"/>
<polygon fill="black" stroke="black" points="422.547,-406.104 419.047,-396.104 415.547,-406.104 422.547,-406.104"/>
</g>
<!-- 17 -->
<g id="node18" class="node"><title>17</title>
<g id="a_node18"><a xlink:title="17, diversity: 1, multiplicities: 5, labels: 0">
<ellipse fill="#fee3d6" stroke="black" cx="520.047" cy="-306" rx="41.6928" ry="18"/>
<text text-anchor="middle" x="520.047" y="-302.3" font-family="Times,serif" font-size="14.00">17 (1): 0</text>
</a>
</g>
</g>
<!-- 18&#45;&gt;6 -->
<g id="edge15" class="edge"><title>18&#45;&gt;6</title>
<path fill="none" stroke="black" d="M419.047,-143.697C419.047,-135.983 419.047,-126.712 419.047,-118.112"/>
<polygon fill="black" stroke="black" points="422.547,-118.104 419.047,-108.104 415.547,-118.104 422.547,-118.104"/>
</g>
<!-- 19&#45;&gt;16 -->
<g id="edge21" class="edge"><title>19&#45;&gt;16</title>
<path fill="none" stroke="black" d="M419.047,-503.697C419.047,-495.983 419.047,-486.712 419.047,-478.112"/>
<polygon fill="black" stroke="black" points="422.547,-478.104 419.047,-468.104 415.547,-478.104 422.547,-478.104"/>
</g>
<!-- 20&#45;&gt;7 -->
<g id="edge2" class="edge"><title>20&#45;&gt;7</title>
<path fill="none" stroke="black" d="M520.047,-503.697C520.047,-495.983 520.047,-486.712 520.047,-478.112"/>
<polygon fill="black" stroke="black" points="523.547,-478.104 520.047,-468.104 516.547,-478.104 523.547,-478.104"/>
</g>
<!-- 21&#45;&gt;12 -->
<g id="edge11" class="edge"><title>21&#45;&gt;12</title>
<path fill="none" stroke="black" d="M380.133,-648.411C386.357,-639.868 394.072,-629.278 400.987,-619.787"/>
<polygon fill="black" stroke="black" points="403.987,-621.613 407.047,-611.47 398.33,-617.491 403.987,-621.613"/>
</g>
<!-- 22&#45;&gt;4 -->
<g id="edge14" class="edge"><title>22&#45;&gt;4</title>
<path fill="none" stroke="black" d="M419.047,-359.697C419.047,-351.983 419.047,-342.712 419.047,-334.112"/>
<polygon fill="black" stroke="black" points="422.547,-334.104 419.047,-324.104 415.547,-334.104 422.547,-334.104"/>
</g>
<!-- 23&#45;&gt;17 -->
<g id="edge7" class="edge"><title>23&#45;&gt;17</title>
<path fill="none" stroke="black" d="M520.047,-359.697C520.047,-351.983 520.047,-342.712 520.047,-334.112"/>
<polygon fill="black" stroke="black" points="523.547,-334.104 520.047,-324.104 516.547,-334.104 523.547,-334.104"/>
</g>
<!-- 24&#45;&gt;13 -->
<g id="edge3" class="edge"><title>24&#45;&gt;13</title>
<path fill="none" stroke="black" d="M482.659,-648.411C488.639,-639.868 496.052,-629.278 502.696,-619.787"/>
<polygon fill="black" stroke="black" points="505.65,-621.669 508.518,-611.47 499.916,-617.655 505.65,-621.669"/>
</g>
</g>
</svg>
