<?xml version="1.0" encoding="UTF-8" standalone="no"?>
<!DOCTYPE svg PUBLIC "-//W3C//DTD SVG 1.1//EN"
 "http://www.w3.org/Graphics/SVG/1.1/DTD/svg11.dtd">
<!-- Generated by graphviz version 2.38.0 (20140413.2041)
 -->
<!-- Title: %3 Pages: 1 -->
<svg width="943pt" height="1628pt"
 viewBox="0.00 0.00 943.19 1628.00" xmlns="http://www.w3.org/2000/svg" xmlns:xlink="http://www.w3.org/1999/xlink">
<g id="graph0" class="graph" transform="scale(1 1) rotate(0) translate(4 1624)">
<title>%3</title>
<polygon fill="white" stroke="none" points="-4,4 -4,-1624 939.193,-1624 939.193,4 -4,4"/>
<!-- 0 -->
<g id="node1" class="node"><title>0</title>
<g id="a_node1"><a xlink:title="0, diversity: 1, multiplicities: 179, labels: 0">
<ellipse fill="#fb7c5c" stroke="black" cx="792.596" cy="-1170" rx="37.0935" ry="18"/>
<text text-anchor="middle" x="792.596" y="-1166.3" font-family="Times,serif" font-size="14.00">0 (1): 0</text>
</a>
</g>
</g>
<!-- 1 -->
<g id="node2" class="node"><title>1</title>
<g id="a_node2"><a xlink:title="1, diversity: 1, multiplicities: 125, labels: 0">
<ellipse fill="#fb7c5c" stroke="black" cx="98.5963" cy="-1386" rx="37.0935" ry="18"/>
<text text-anchor="middle" x="98.5963" y="-1382.3" font-family="Times,serif" font-size="14.00">1 (1): 0</text>
</a>
</g>
</g>
<!-- 52 -->
<g id="node53" class="node"><title>52</title>
<g id="a_node53"><a xlink:title="52, diversity: 1, multiplicities: 1, labels: 0">
<ellipse fill="#fff5f0" stroke="black" cx="41.5963" cy="-1314" rx="41.6928" ry="18"/>
<text text-anchor="middle" x="41.5963" y="-1310.3" font-family="Times,serif" font-size="14.00">52 (1): 0</text>
</a>
</g>
</g>
<!-- 1&#45;&gt;52 -->
<g id="edge69" class="edge"><title>1&#45;&gt;52</title>
<path fill="none" stroke="black" d="M85.6621,-1369.12C78.477,-1360.29 69.3877,-1349.13 61.333,-1339.24"/>
<polygon fill="black" stroke="black" points="63.9032,-1336.85 54.8749,-1331.31 58.4751,-1341.27 63.9032,-1336.85"/>
</g>
<!-- 57 -->
<g id="node58" class="node"><title>57</title>
<g id="a_node58"><a xlink:title="57, diversity: 1, multiplicities: 1, labels: 0">
<ellipse fill="#fff5f0" stroke="black" cx="142.596" cy="-1314" rx="41.6928" ry="18"/>
<text text-anchor="middle" x="142.596" y="-1310.3" font-family="Times,serif" font-size="14.00">57 (1): 0</text>
</a>
</g>
</g>
<!-- 1&#45;&gt;57 -->
<g id="edge3" class="edge"><title>1&#45;&gt;57</title>
<path fill="none" stroke="black" d="M109.024,-1368.41C114.339,-1359.95 120.914,-1349.49 126.833,-1340.08"/>
<polygon fill="black" stroke="black" points="129.885,-1341.8 132.244,-1331.47 123.959,-1338.07 129.885,-1341.8"/>
</g>
<!-- 2 -->
<g id="node3" class="node"><title>2</title>
<g id="a_node3"><a xlink:title="2, diversity: 1, multiplicities: 5, labels: 0">
<ellipse fill="#fee3d6" stroke="black" cx="893.596" cy="-1026" rx="37.0935" ry="18"/>
<text text-anchor="middle" x="893.596" y="-1022.3" font-family="Times,serif" font-size="14.00">2 (1): 0</text>
</a>
</g>
</g>
<!-- 13 -->
<g id="node14" class="node"><title>13</title>
<g id="a_node14"><a xlink:title="13, diversity: 1, multiplicities: 6, labels: 0">
<ellipse fill="#fcc4ad" stroke="black" cx="893.596" cy="-954" rx="41.6928" ry="18"/>
<text text-anchor="middle" x="893.596" y="-950.3" font-family="Times,serif" font-size="14.00">13 (1): 0</text>
</a>
</g>
</g>
<!-- 2&#45;&gt;13 -->
<g id="edge27" class="edge"><title>2&#45;&gt;13</title>
<path fill="none" stroke="black" d="M893.596,-1007.7C893.596,-999.983 893.596,-990.712 893.596,-982.112"/>
<polygon fill="black" stroke="black" points="897.096,-982.104 893.596,-972.104 890.096,-982.104 897.096,-982.104"/>
</g>
<!-- 3 -->
<g id="node4" class="node"><title>3</title>
<g id="a_node4"><a xlink:title="3, diversity: 1, multiplicities: 195, labels: 0">
<ellipse fill="#fb7c5c" stroke="black" cx="190.596" cy="-1386" rx="37.0935" ry="18"/>
<text text-anchor="middle" x="190.596" y="-1382.3" font-family="Times,serif" font-size="14.00">3 (1): 0</text>
</a>
</g>
</g>
<!-- 4 -->
<g id="node5" class="node"><title>4</title>
<g id="a_node5"><a xlink:title="4, diversity: 1, multiplicities: 6, labels: 0">
<ellipse fill="#fcc4ad" stroke="black" cx="590.596" cy="-1386" rx="37.0935" ry="18"/>
<text text-anchor="middle" x="590.596" y="-1382.3" font-family="Times,serif" font-size="14.00">4 (1): 0</text>
</a>
</g>
</g>
<!-- 5 -->
<g id="node6" class="node"><title>5</title>
<g id="a_node6"><a xlink:title="5, diversity: 1, multiplicities: 40, labels: 0">
<ellipse fill="#fca082" stroke="black" cx="291.596" cy="-378" rx="37.0935" ry="18"/>
<text text-anchor="middle" x="291.596" y="-374.3" font-family="Times,serif" font-size="14.00">5 (1): 0</text>
</a>
</g>
</g>
<!-- 6 -->
<g id="node7" class="node"><title>6</title>
<g id="a_node7"><a xlink:title="6, diversity: 1, multiplicities: 171, labels: 0">
<ellipse fill="#fb7c5c" stroke="black" cx="392.596" cy="-306" rx="37.0935" ry="18"/>
<text text-anchor="middle" x="392.596" y="-302.3" font-family="Times,serif" font-size="14.00">6 (1): 0</text>
</a>
</g>
</g>
<!-- 65 -->
<g id="node66" class="node"><title>65</title>
<g id="a_node66"><a xlink:title="65, diversity: 1, multiplicities: 2, labels: 0">
<ellipse fill="#fee3d6" stroke="black" cx="393.596" cy="-234" rx="41.6928" ry="18"/>
<text text-anchor="middle" x="393.596" y="-230.3" font-family="Times,serif" font-size="14.00">65 (1): 0</text>
</a>
</g>
</g>
<!-- 6&#45;&gt;65 -->
<g id="edge23" class="edge"><title>6&#45;&gt;65</title>
<path fill="none" stroke="black" d="M392.844,-287.697C392.954,-279.983 393.086,-270.712 393.209,-262.112"/>
<polygon fill="black" stroke="black" points="396.709,-262.153 393.352,-252.104 389.709,-262.053 396.709,-262.153"/>
</g>
<!-- 7 -->
<g id="node8" class="node"><title>7</title>
<g id="a_node8"><a xlink:title="7, diversity: 2, multiplicities: 37,263, labels: 0">
<ellipse fill="#f6553c" stroke="black" cx="489.596" cy="-450" rx="37.0935" ry="18"/>
<text text-anchor="middle" x="489.596" y="-446.3" font-family="Times,serif" font-size="14.00">7 (2): 0</text>
</a>
</g>
</g>
<!-- 7&#45;&gt;5 -->
<g id="edge46" class="edge"><title>7&#45;&gt;5</title>
<path fill="none" stroke="black" d="M460.116,-438.901C429.451,-428.355 380.075,-411.254 337.596,-396 335.055,-395.087 332.437,-394.14 329.8,-393.18"/>
<polygon fill="black" stroke="black" points="330.87,-389.845 320.276,-389.692 328.463,-396.418 330.87,-389.845"/>
</g>
<!-- 30 -->
<g id="node31" class="node"><title>30</title>
<g id="a_node31"><a xlink:title="30, diversity: 1, multiplicities: 3, labels: 0">
<ellipse fill="#fee3d6" stroke="black" cx="388.596" cy="-378" rx="41.6928" ry="18"/>
<text text-anchor="middle" x="388.596" y="-374.3" font-family="Times,serif" font-size="14.00">30 (1): 0</text>
</a>
</g>
</g>
<!-- 7&#45;&gt;30 -->
<g id="edge63" class="edge"><title>7&#45;&gt;30</title>
<path fill="none" stroke="black" d="M469.157,-434.834C454.567,-424.722 434.713,-410.962 418.365,-399.632"/>
<polygon fill="black" stroke="black" points="419.913,-396.446 409.7,-393.626 415.925,-402.199 419.913,-396.446"/>
</g>
<!-- 31 -->
<g id="node32" class="node"><title>31</title>
<g id="a_node32"><a xlink:title="31, diversity: 1, multiplicities: 2, labels: 0">
<ellipse fill="#fee3d6" stroke="black" cx="489.596" cy="-378" rx="41.6928" ry="18"/>
<text text-anchor="middle" x="489.596" y="-374.3" font-family="Times,serif" font-size="14.00">31 (1): 0</text>
</a>
</g>
</g>
<!-- 7&#45;&gt;31 -->
<g id="edge48" class="edge"><title>7&#45;&gt;31</title>
<path fill="none" stroke="black" d="M489.596,-431.697C489.596,-423.983 489.596,-414.712 489.596,-406.112"/>
<polygon fill="black" stroke="black" points="493.096,-406.104 489.596,-396.104 486.096,-406.104 493.096,-406.104"/>
</g>
<!-- 36 -->
<g id="node37" class="node"><title>36</title>
<g id="a_node37"><a xlink:title="36, diversity: 1, multiplicities: 4, labels: 0">
<ellipse fill="#fee3d6" stroke="black" cx="590.596" cy="-378" rx="41.6928" ry="18"/>
<text text-anchor="middle" x="590.596" y="-374.3" font-family="Times,serif" font-size="14.00">36 (1): 0</text>
</a>
</g>
</g>
<!-- 7&#45;&gt;36 -->
<g id="edge45" class="edge"><title>7&#45;&gt;36</title>
<path fill="none" stroke="black" d="M510.035,-434.834C524.626,-424.722 544.48,-410.962 560.827,-399.632"/>
<polygon fill="black" stroke="black" points="563.267,-402.199 569.493,-393.626 559.28,-396.446 563.267,-402.199"/>
</g>
<!-- 60 -->
<g id="node61" class="node"><title>60</title>
<g id="a_node61"><a xlink:title="60, diversity: 1, multiplicities: 1, labels: 0">
<ellipse fill="#fff5f0" stroke="black" cx="691.596" cy="-378" rx="41.6928" ry="18"/>
<text text-anchor="middle" x="691.596" y="-374.3" font-family="Times,serif" font-size="14.00">60 (1): 0</text>
</a>
</g>
</g>
<!-- 7&#45;&gt;60 -->
<g id="edge13" class="edge"><title>7&#45;&gt;60</title>
<path fill="none" stroke="black" d="M518.969,-438.821C553.669,-426.796 611.61,-406.718 650.69,-393.176"/>
<polygon fill="black" stroke="black" points="651.89,-396.464 660.193,-389.882 649.598,-389.85 651.89,-396.464"/>
</g>
<!-- 8 -->
<g id="node9" class="node"><title>8</title>
<g id="a_node9"><a xlink:title="8, diversity: 4, multiplicities: 1,2,14,614, labels: 0">
<ellipse fill="#e32f27" stroke="black" cx="438.596" cy="-1530" rx="37.0935" ry="18"/>
<text text-anchor="middle" x="438.596" y="-1526.3" font-family="Times,serif" font-size="14.00">8 (4): 0</text>
</a>
</g>
</g>
<!-- 11 -->
<g id="node12" class="node"><title>11</title>
<g id="a_node12"><a xlink:title="11, diversity: 2, multiplicities: 1,148, labels: 0">
<ellipse fill="#fb7c5c" stroke="black" cx="85.5963" cy="-1458" rx="41.6928" ry="18"/>
<text text-anchor="middle" x="85.5963" y="-1454.3" font-family="Times,serif" font-size="14.00">11 (2): 0</text>
</a>
</g>
</g>
<!-- 8&#45;&gt;11 -->
<g id="edge40" class="edge"><title>8&#45;&gt;11</title>
<path fill="none" stroke="black" d="M403.229,-1524.62C346.299,-1517.17 231.051,-1500.42 135.596,-1476 132.443,-1475.19 129.203,-1474.28 125.96,-1473.31"/>
<polygon fill="black" stroke="black" points="126.901,-1469.94 116.311,-1470.27 124.797,-1476.62 126.901,-1469.94"/>
</g>
<!-- 25 -->
<g id="node26" class="node"><title>25</title>
<g id="a_node26"><a xlink:title="25, diversity: 1, multiplicities: 31, labels: 0">
<ellipse fill="#fca082" stroke="black" cx="186.596" cy="-1458" rx="41.6928" ry="18"/>
<text text-anchor="middle" x="186.596" y="-1454.3" font-family="Times,serif" font-size="14.00">25 (1): 0</text>
</a>
</g>
</g>
<!-- 8&#45;&gt;25 -->
<g id="edge36" class="edge"><title>8&#45;&gt;25</title>
<path fill="none" stroke="black" d="M406.212,-1521.26C366.151,-1511.51 295.968,-1493.86 236.596,-1476 233.662,-1475.12 230.641,-1474.18 227.607,-1473.2"/>
<polygon fill="black" stroke="black" points="228.552,-1469.83 217.96,-1470.04 226.373,-1476.48 228.552,-1469.83"/>
</g>
<!-- 29 -->
<g id="node30" class="node"><title>29</title>
<g id="a_node30"><a xlink:title="29, diversity: 1, multiplicities: 9, labels: 0">
<ellipse fill="#fcc4ad" stroke="black" cx="287.596" cy="-1458" rx="41.6928" ry="18"/>
<text text-anchor="middle" x="287.596" y="-1454.3" font-family="Times,serif" font-size="14.00">29 (1): 0</text>
</a>
</g>
</g>
<!-- 8&#45;&gt;29 -->
<g id="edge28" class="edge"><title>8&#45;&gt;29</title>
<path fill="none" stroke="black" d="M412.638,-1516.97C388.275,-1505.67 351.588,-1488.67 324.246,-1475.99"/>
<polygon fill="black" stroke="black" points="325.544,-1472.73 314.999,-1471.7 322.6,-1479.08 325.544,-1472.73"/>
</g>
<!-- 50 -->
<g id="node51" class="node"><title>50</title>
<g id="a_node51"><a xlink:title="50, diversity: 1, multiplicities: 1, labels: 0">
<ellipse fill="#fff5f0" stroke="black" cx="388.596" cy="-1458" rx="41.6928" ry="18"/>
<text text-anchor="middle" x="388.596" y="-1454.3" font-family="Times,serif" font-size="14.00">50 (1): 0</text>
</a>
</g>
</g>
<!-- 8&#45;&gt;50 -->
<g id="edge11" class="edge"><title>8&#45;&gt;50</title>
<path fill="none" stroke="black" d="M427,-1512.76C420.904,-1504.23 413.298,-1493.58 406.467,-1484.02"/>
<polygon fill="black" stroke="black" points="409.138,-1481.74 400.477,-1475.63 403.442,-1485.81 409.138,-1481.74"/>
</g>
<!-- 51 -->
<g id="node52" class="node"><title>51</title>
<g id="a_node52"><a xlink:title="51, diversity: 3, multiplicities: 1,2,8, labels: 0">
<ellipse fill="#fca082" stroke="black" cx="489.596" cy="-1458" rx="41.6928" ry="18"/>
<text text-anchor="middle" x="489.596" y="-1454.3" font-family="Times,serif" font-size="14.00">51 (3): 0</text>
</a>
</g>
</g>
<!-- 8&#45;&gt;51 -->
<g id="edge26" class="edge"><title>8&#45;&gt;51</title>
<path fill="none" stroke="black" d="M450.425,-1512.76C456.706,-1504.14 464.559,-1493.36 471.581,-1483.73"/>
<polygon fill="black" stroke="black" points="474.418,-1485.78 477.478,-1475.63 468.76,-1481.65 474.418,-1485.78"/>
</g>
<!-- 61 -->
<g id="node62" class="node"><title>61</title>
<g id="a_node62"><a xlink:title="61, diversity: 1, multiplicities: 1, labels: 0">
<ellipse fill="#fff5f0" stroke="black" cx="590.596" cy="-1458" rx="41.6928" ry="18"/>
<text text-anchor="middle" x="590.596" y="-1454.3" font-family="Times,serif" font-size="14.00">61 (1): 0</text>
</a>
</g>
</g>
<!-- 8&#45;&gt;61 -->
<g id="edge47" class="edge"><title>8&#45;&gt;61</title>
<path fill="none" stroke="black" d="M464.726,-1516.97C489.327,-1505.64 526.409,-1488.56 553.96,-1475.87"/>
<polygon fill="black" stroke="black" points="555.652,-1478.95 563.271,-1471.58 552.724,-1472.59 555.652,-1478.95"/>
</g>
<!-- 63 -->
<g id="node64" class="node"><title>63</title>
<g id="a_node64"><a xlink:title="63, diversity: 2, multiplicities: 1,5, labels: 0">
<ellipse fill="#fcc4ad" stroke="black" cx="691.596" cy="-1458" rx="41.6928" ry="18"/>
<text text-anchor="middle" x="691.596" y="-1454.3" font-family="Times,serif" font-size="14.00">63 (2): 0</text>
</a>
</g>
</g>
<!-- 8&#45;&gt;63 -->
<g id="edge8" class="edge"><title>8&#45;&gt;63</title>
<path fill="none" stroke="black" d="M471.143,-1521.27C511.405,-1511.54 581.939,-1493.9 641.596,-1476 644.574,-1475.11 647.64,-1474.15 650.718,-1473.17"/>
<polygon fill="black" stroke="black" points="652.089,-1476.4 660.502,-1469.96 649.909,-1469.75 652.089,-1476.4"/>
</g>
<!-- 9 -->
<g id="node10" class="node"><title>9</title>
<g id="a_node10"><a xlink:title="9, diversity: 1, multiplicities: 1, labels: 0">
<ellipse fill="#fff5f0" stroke="black" cx="893.596" cy="-1170" rx="37.0935" ry="18"/>
<text text-anchor="middle" x="893.596" y="-1166.3" font-family="Times,serif" font-size="14.00">9 (1): 0</text>
</a>
</g>
</g>
<!-- 27 -->
<g id="node28" class="node"><title>27</title>
<g id="a_node28"><a xlink:title="27, diversity: 1, multiplicities: 3, labels: 0">
<ellipse fill="#fee3d6" stroke="black" cx="893.596" cy="-1098" rx="41.6928" ry="18"/>
<text text-anchor="middle" x="893.596" y="-1094.3" font-family="Times,serif" font-size="14.00">27 (1): 0</text>
</a>
</g>
</g>
<!-- 9&#45;&gt;27 -->
<g id="edge55" class="edge"><title>9&#45;&gt;27</title>
<path fill="none" stroke="black" d="M893.596,-1151.7C893.596,-1143.98 893.596,-1134.71 893.596,-1126.11"/>
<polygon fill="black" stroke="black" points="897.096,-1126.1 893.596,-1116.1 890.096,-1126.1 897.096,-1126.1"/>
</g>
<!-- 10 -->
<g id="node11" class="node"><title>10</title>
<g id="a_node11"><a xlink:title="10, diversity: 2, multiplicities: 1,9, labels: 0">
<ellipse fill="#fcc4ad" stroke="black" cx="792.596" cy="-1530" rx="41.6928" ry="18"/>
<text text-anchor="middle" x="792.596" y="-1526.3" font-family="Times,serif" font-size="14.00">10 (2): 0</text>
</a>
</g>
</g>
<!-- 38 -->
<g id="node39" class="node"><title>38</title>
<g id="a_node39"><a xlink:title="38, diversity: 1, multiplicities: 1, labels: 0">
<ellipse fill="#fff5f0" stroke="black" cx="792.596" cy="-1458" rx="41.6928" ry="18"/>
<text text-anchor="middle" x="792.596" y="-1454.3" font-family="Times,serif" font-size="14.00">38 (1): 0</text>
</a>
</g>
</g>
<!-- 10&#45;&gt;38 -->
<g id="edge24" class="edge"><title>10&#45;&gt;38</title>
<path fill="none" stroke="black" d="M792.596,-1511.7C792.596,-1503.98 792.596,-1494.71 792.596,-1486.11"/>
<polygon fill="black" stroke="black" points="796.096,-1486.1 792.596,-1476.1 789.096,-1486.1 796.096,-1486.1"/>
</g>
<!-- 41 -->
<g id="node42" class="node"><title>41</title>
<g id="a_node42"><a xlink:title="41, diversity: 1, multiplicities: 1, labels: 0">
<ellipse fill="#fff5f0" stroke="black" cx="893.596" cy="-1458" rx="41.6928" ry="18"/>
<text text-anchor="middle" x="893.596" y="-1454.3" font-family="Times,serif" font-size="14.00">41 (1): 0</text>
</a>
</g>
</g>
<!-- 10&#45;&gt;41 -->
<g id="edge29" class="edge"><title>10&#45;&gt;41</title>
<path fill="none" stroke="black" d="M814.016,-1514.15C828.575,-1504.06 848.027,-1490.58 864.055,-1479.47"/>
<polygon fill="black" stroke="black" points="866.329,-1482.16 872.554,-1473.58 862.341,-1476.4 866.329,-1482.16"/>
</g>
<!-- 12 -->
<g id="node13" class="node"><title>12</title>
<g id="a_node13"><a xlink:title="12, diversity: 1, multiplicities: 9, labels: 0">
<ellipse fill="#fcc4ad" stroke="black" cx="489.596" cy="-810" rx="41.6928" ry="18"/>
<text text-anchor="middle" x="489.596" y="-806.3" font-family="Times,serif" font-size="14.00">12 (1): 0</text>
</a>
</g>
</g>
<!-- 35 -->
<g id="node36" class="node"><title>35</title>
<g id="a_node36"><a xlink:title="35, diversity: 1, multiplicities: 3, labels: 0">
<ellipse fill="#fee3d6" stroke="black" cx="489.596" cy="-738" rx="41.6928" ry="18"/>
<text text-anchor="middle" x="489.596" y="-734.3" font-family="Times,serif" font-size="14.00">35 (1): 0</text>
</a>
</g>
</g>
<!-- 12&#45;&gt;35 -->
<g id="edge51" class="edge"><title>12&#45;&gt;35</title>
<path fill="none" stroke="black" d="M489.596,-791.697C489.596,-783.983 489.596,-774.712 489.596,-766.112"/>
<polygon fill="black" stroke="black" points="493.096,-766.104 489.596,-756.104 486.096,-766.104 493.096,-766.104"/>
</g>
<!-- 14 -->
<g id="node15" class="node"><title>14</title>
<g id="a_node15"><a xlink:title="14, diversity: 3, multiplicities: 2,2,67, labels: 0">
<ellipse fill="#fca082" stroke="black" cx="41.5963" cy="-1170" rx="41.6928" ry="18"/>
<text text-anchor="middle" x="41.5963" y="-1166.3" font-family="Times,serif" font-size="14.00">14 (3): 0</text>
</a>
</g>
</g>
<!-- 15 -->
<g id="node16" class="node"><title>15</title>
<g id="a_node16"><a xlink:title="15, diversity: 1, multiplicities: 9, labels: 0">
<ellipse fill="#fcc4ad" stroke="black" cx="393.596" cy="-162" rx="41.6928" ry="18"/>
<text text-anchor="middle" x="393.596" y="-158.3" font-family="Times,serif" font-size="14.00">15 (1): 0</text>
</a>
</g>
</g>
<!-- 16 -->
<g id="node17" class="node"><title>16</title>
<g id="a_node17"><a xlink:title="16, diversity: 1, multiplicities: 16, labels: 0">
<ellipse fill="#fca082" stroke="black" cx="388.596" cy="-1170" rx="41.6928" ry="18"/>
<text text-anchor="middle" x="388.596" y="-1166.3" font-family="Times,serif" font-size="14.00">16 (1): 0</text>
</a>
</g>
</g>
<!-- 17 -->
<g id="node18" class="node"><title>17</title>
<g id="a_node18"><a xlink:title="17, diversity: 1, multiplicities: 128, labels: 0">
<ellipse fill="#fb7c5c" stroke="black" cx="489.596" cy="-306" rx="41.6928" ry="18"/>
<text text-anchor="middle" x="489.596" y="-302.3" font-family="Times,serif" font-size="14.00">17 (1): 0</text>
</a>
</g>
</g>
<!-- 18 -->
<g id="node19" class="node"><title>18</title>
<g id="a_node19"><a xlink:title="18, diversity: 1, multiplicities: 8, labels: 0">
<ellipse fill="#fcc4ad" stroke="black" cx="640.596" cy="-1602" rx="41.6928" ry="18"/>
<text text-anchor="middle" x="640.596" y="-1598.3" font-family="Times,serif" font-size="14.00">18 (1): 0</text>
</a>
</g>
</g>
<!-- 18&#45;&gt;8 -->
<g id="edge14" class="edge"><title>18&#45;&gt;8</title>
<path fill="none" stroke="black" d="M609.034,-1590.06C573.587,-1577.78 516.023,-1557.83 477.74,-1544.56"/>
<polygon fill="black" stroke="black" points="478.564,-1541.15 467.969,-1541.18 476.272,-1547.76 478.564,-1541.15"/>
</g>
<!-- 18&#45;&gt;10 -->
<g id="edge52" class="edge"><title>18&#45;&gt;10</title>
<path fill="none" stroke="black" d="M668.122,-1588.32C692.764,-1576.98 729.075,-1560.25 756.127,-1547.8"/>
<polygon fill="black" stroke="black" points="757.656,-1550.94 765.275,-1543.58 754.728,-1544.59 757.656,-1550.94"/>
</g>
<!-- 19 -->
<g id="node20" class="node"><title>19</title>
<g id="a_node20"><a xlink:title="19, diversity: 2, multiplicities: 1,36, labels: 0">
<ellipse fill="#fca082" stroke="black" cx="691.596" cy="-234" rx="41.6928" ry="18"/>
<text text-anchor="middle" x="691.596" y="-230.3" font-family="Times,serif" font-size="14.00">19 (2): 0</text>
</a>
</g>
</g>
<!-- 59 -->
<g id="node60" class="node"><title>59</title>
<g id="a_node60"><a xlink:title="59, diversity: 1, multiplicities: 1, labels: 0">
<ellipse fill="#fff5f0" stroke="black" cx="691.596" cy="-162" rx="41.6928" ry="18"/>
<text text-anchor="middle" x="691.596" y="-158.3" font-family="Times,serif" font-size="14.00">59 (1): 0</text>
</a>
</g>
</g>
<!-- 19&#45;&gt;59 -->
<g id="edge7" class="edge"><title>19&#45;&gt;59</title>
<path fill="none" stroke="black" d="M691.596,-215.697C691.596,-207.983 691.596,-198.712 691.596,-190.112"/>
<polygon fill="black" stroke="black" points="695.096,-190.104 691.596,-180.104 688.096,-190.104 695.096,-190.104"/>
</g>
<!-- 20 -->
<g id="node21" class="node"><title>20</title>
<g id="a_node21"><a xlink:title="20, diversity: 1, multiplicities: 12, labels: 0">
<ellipse fill="#fca082" stroke="black" cx="287.596" cy="-1386" rx="41.6928" ry="18"/>
<text text-anchor="middle" x="287.596" y="-1382.3" font-family="Times,serif" font-size="14.00">20 (1): 0</text>
</a>
</g>
</g>
<!-- 21 -->
<g id="node22" class="node"><title>21</title>
<g id="a_node22"><a xlink:title="21, diversity: 1, multiplicities: 38, labels: 0">
<ellipse fill="#fca082" stroke="black" cx="691.596" cy="-18" rx="41.6928" ry="18"/>
<text text-anchor="middle" x="691.596" y="-14.3" font-family="Times,serif" font-size="14.00">21 (1): 0</text>
</a>
</g>
</g>
<!-- 22 -->
<g id="node23" class="node"><title>22</title>
<g id="a_node23"><a xlink:title="22, diversity: 1, multiplicities: 6, labels: 0">
<ellipse fill="#fcc4ad" stroke="black" cx="590.596" cy="-306" rx="41.6928" ry="18"/>
<text text-anchor="middle" x="590.596" y="-302.3" font-family="Times,serif" font-size="14.00">22 (1): 0</text>
</a>
</g>
</g>
<!-- 23 -->
<g id="node24" class="node"><title>23</title>
<g id="a_node24"><a xlink:title="23, diversity: 1, multiplicities: 6, labels: 0">
<ellipse fill="#fcc4ad" stroke="black" cx="691.596" cy="-306" rx="41.6928" ry="18"/>
<text text-anchor="middle" x="691.596" y="-302.3" font-family="Times,serif" font-size="14.00">23 (1): 0</text>
</a>
</g>
</g>
<!-- 23&#45;&gt;19 -->
<g id="edge53" class="edge"><title>23&#45;&gt;19</title>
<path fill="none" stroke="black" d="M691.596,-287.697C691.596,-279.983 691.596,-270.712 691.596,-262.112"/>
<polygon fill="black" stroke="black" points="695.096,-262.104 691.596,-252.104 688.096,-262.104 695.096,-262.104"/>
</g>
<!-- 24 -->
<g id="node25" class="node"><title>24</title>
<g id="a_node25"><a xlink:title="24, diversity: 1, multiplicities: 10, labels: 0">
<ellipse fill="#fcc4ad" stroke="black" cx="142.596" cy="-1170" rx="41.6928" ry="18"/>
<text text-anchor="middle" x="142.596" y="-1166.3" font-family="Times,serif" font-size="14.00">24 (1): 0</text>
</a>
</g>
</g>
<!-- 44 -->
<g id="node45" class="node"><title>44</title>
<g id="a_node45"><a xlink:title="44, diversity: 1, multiplicities: 5, labels: 0">
<ellipse fill="#fee3d6" stroke="black" cx="142.596" cy="-1098" rx="41.6928" ry="18"/>
<text text-anchor="middle" x="142.596" y="-1094.3" font-family="Times,serif" font-size="14.00">44 (1): 0</text>
</a>
</g>
</g>
<!-- 24&#45;&gt;44 -->
<g id="edge49" class="edge"><title>24&#45;&gt;44</title>
<path fill="none" stroke="black" d="M142.596,-1151.7C142.596,-1143.98 142.596,-1134.71 142.596,-1126.11"/>
<polygon fill="black" stroke="black" points="146.096,-1126.1 142.596,-1116.1 139.096,-1126.1 146.096,-1126.1"/>
</g>
<!-- 26 -->
<g id="node27" class="node"><title>26</title>
<g id="a_node27"><a xlink:title="26, diversity: 1, multiplicities: 9, labels: 0">
<ellipse fill="#fcc4ad" stroke="black" cx="489.596" cy="-882" rx="41.6928" ry="18"/>
<text text-anchor="middle" x="489.596" y="-878.3" font-family="Times,serif" font-size="14.00">26 (1): 0</text>
</a>
</g>
</g>
<!-- 26&#45;&gt;12 -->
<g id="edge34" class="edge"><title>26&#45;&gt;12</title>
<path fill="none" stroke="black" d="M489.596,-863.697C489.596,-855.983 489.596,-846.712 489.596,-838.112"/>
<polygon fill="black" stroke="black" points="493.096,-838.104 489.596,-828.104 486.096,-838.104 493.096,-838.104"/>
</g>
<!-- 27&#45;&gt;2 -->
<g id="edge15" class="edge"><title>27&#45;&gt;2</title>
<path fill="none" stroke="black" d="M893.596,-1079.7C893.596,-1071.98 893.596,-1062.71 893.596,-1054.11"/>
<polygon fill="black" stroke="black" points="897.096,-1054.1 893.596,-1044.1 890.096,-1054.1 897.096,-1054.1"/>
</g>
<!-- 28 -->
<g id="node29" class="node"><title>28</title>
<g id="a_node29"><a xlink:title="28, diversity: 1, multiplicities: 8, labels: 0">
<ellipse fill="#fcc4ad" stroke="black" cx="489.596" cy="-1242" rx="41.6928" ry="18"/>
<text text-anchor="middle" x="489.596" y="-1238.3" font-family="Times,serif" font-size="14.00">28 (1): 0</text>
</a>
</g>
</g>
<!-- 62 -->
<g id="node63" class="node"><title>62</title>
<g id="a_node63"><a xlink:title="62, diversity: 1, multiplicities: 1, labels: 0">
<ellipse fill="#fff5f0" stroke="black" cx="489.596" cy="-1170" rx="41.6928" ry="18"/>
<text text-anchor="middle" x="489.596" y="-1166.3" font-family="Times,serif" font-size="14.00">62 (1): 0</text>
</a>
</g>
</g>
<!-- 28&#45;&gt;62 -->
<g id="edge16" class="edge"><title>28&#45;&gt;62</title>
<path fill="none" stroke="black" d="M489.596,-1223.7C489.596,-1215.98 489.596,-1206.71 489.596,-1198.11"/>
<polygon fill="black" stroke="black" points="493.096,-1198.1 489.596,-1188.1 486.096,-1198.1 493.096,-1198.1"/>
</g>
<!-- 29&#45;&gt;1 -->
<g id="edge62" class="edge"><title>29&#45;&gt;1</title>
<path fill="none" stroke="black" d="M256.81,-1445.6C224.015,-1433.45 172.058,-1414.21 136.704,-1401.11"/>
<polygon fill="black" stroke="black" points="137.796,-1397.79 127.203,-1397.59 135.365,-1404.35 137.796,-1397.79"/>
</g>
<!-- 29&#45;&gt;3 -->
<g id="edge30" class="edge"><title>29&#45;&gt;3</title>
<path fill="none" stroke="black" d="M267.025,-1442.15C252.948,-1432 234.11,-1418.4 218.658,-1407.25"/>
<polygon fill="black" stroke="black" points="220.632,-1404.36 210.474,-1401.35 216.535,-1410.04 220.632,-1404.36"/>
</g>
<!-- 29&#45;&gt;20 -->
<g id="edge59" class="edge"><title>29&#45;&gt;20</title>
<path fill="none" stroke="black" d="M287.596,-1439.7C287.596,-1431.98 287.596,-1422.71 287.596,-1414.11"/>
<polygon fill="black" stroke="black" points="291.096,-1414.1 287.596,-1404.1 284.096,-1414.1 291.096,-1414.1"/>
</g>
<!-- 45 -->
<g id="node46" class="node"><title>45</title>
<g id="a_node46"><a xlink:title="45, diversity: 1, multiplicities: 1, labels: 0">
<ellipse fill="#fff5f0" stroke="black" cx="293.596" cy="-306" rx="41.6928" ry="18"/>
<text text-anchor="middle" x="293.596" y="-302.3" font-family="Times,serif" font-size="14.00">45 (1): 0</text>
</a>
</g>
</g>
<!-- 30&#45;&gt;45 -->
<g id="edge64" class="edge"><title>30&#45;&gt;45</title>
<path fill="none" stroke="black" d="M368.449,-362.155C354.972,-352.225 337.039,-339.011 322.105,-328.006"/>
<polygon fill="black" stroke="black" points="323.841,-324.938 313.714,-321.824 319.689,-330.574 323.841,-324.938"/>
</g>
<!-- 31&#45;&gt;6 -->
<g id="edge1" class="edge"><title>31&#45;&gt;6</title>
<path fill="none" stroke="black" d="M469.025,-362.155C454.948,-351.996 436.11,-338.401 420.658,-327.251"/>
<polygon fill="black" stroke="black" points="422.632,-324.359 412.474,-321.345 418.535,-330.035 422.632,-324.359"/>
</g>
<!-- 31&#45;&gt;17 -->
<g id="edge44" class="edge"><title>31&#45;&gt;17</title>
<path fill="none" stroke="black" d="M489.596,-359.697C489.596,-351.983 489.596,-342.712 489.596,-334.112"/>
<polygon fill="black" stroke="black" points="493.096,-334.104 489.596,-324.104 486.096,-334.104 493.096,-334.104"/>
</g>
<!-- 32 -->
<g id="node33" class="node"><title>32</title>
<g id="a_node33"><a xlink:title="32, diversity: 1, multiplicities: 7, labels: 0">
<ellipse fill="#fcc4ad" stroke="black" cx="243.596" cy="-1170" rx="41.6928" ry="18"/>
<text text-anchor="middle" x="243.596" y="-1166.3" font-family="Times,serif" font-size="14.00">32 (1): 0</text>
</a>
</g>
</g>
<!-- 33 -->
<g id="node34" class="node"><title>33</title>
<g id="a_node34"><a xlink:title="33, diversity: 1, multiplicities: 6, labels: 0">
<ellipse fill="#fcc4ad" stroke="black" cx="893.596" cy="-1386" rx="41.6928" ry="18"/>
<text text-anchor="middle" x="893.596" y="-1382.3" font-family="Times,serif" font-size="14.00">33 (1): 0</text>
</a>
</g>
</g>
<!-- 49 -->
<g id="node50" class="node"><title>49</title>
<g id="a_node50"><a xlink:title="49, diversity: 1, multiplicities: 4, labels: 0">
<ellipse fill="#fee3d6" stroke="black" cx="893.596" cy="-1314" rx="41.6928" ry="18"/>
<text text-anchor="middle" x="893.596" y="-1310.3" font-family="Times,serif" font-size="14.00">49 (1): 0</text>
</a>
</g>
</g>
<!-- 33&#45;&gt;49 -->
<g id="edge43" class="edge"><title>33&#45;&gt;49</title>
<path fill="none" stroke="black" d="M893.596,-1367.7C893.596,-1359.98 893.596,-1350.71 893.596,-1342.11"/>
<polygon fill="black" stroke="black" points="897.096,-1342.1 893.596,-1332.1 890.096,-1342.1 897.096,-1342.1"/>
</g>
<!-- 34 -->
<g id="node35" class="node"><title>34</title>
<g id="a_node35"><a xlink:title="34, diversity: 1, multiplicities: 5, labels: 0">
<ellipse fill="#fee3d6" stroke="black" cx="292.596" cy="-162" rx="41.6928" ry="18"/>
<text text-anchor="middle" x="292.596" y="-158.3" font-family="Times,serif" font-size="14.00">34 (1): 0</text>
</a>
</g>
</g>
<!-- 42 -->
<g id="node43" class="node"><title>42</title>
<g id="a_node43"><a xlink:title="42, diversity: 2, multiplicities: 1,1, labels: 0">
<ellipse fill="#fee3d6" stroke="black" cx="489.596" cy="-666" rx="41.6928" ry="18"/>
<text text-anchor="middle" x="489.596" y="-662.3" font-family="Times,serif" font-size="14.00">42 (2): 0</text>
</a>
</g>
</g>
<!-- 35&#45;&gt;42 -->
<g id="edge68" class="edge"><title>35&#45;&gt;42</title>
<path fill="none" stroke="black" d="M489.596,-719.697C489.596,-711.983 489.596,-702.712 489.596,-694.112"/>
<polygon fill="black" stroke="black" points="493.096,-694.104 489.596,-684.104 486.096,-694.104 493.096,-694.104"/>
</g>
<!-- 36&#45;&gt;22 -->
<g id="edge35" class="edge"><title>36&#45;&gt;22</title>
<path fill="none" stroke="black" d="M590.596,-359.697C590.596,-351.983 590.596,-342.712 590.596,-334.112"/>
<polygon fill="black" stroke="black" points="594.096,-334.104 590.596,-324.104 587.096,-334.104 594.096,-334.104"/>
</g>
<!-- 37 -->
<g id="node38" class="node"><title>37</title>
<g id="a_node38"><a xlink:title="37, diversity: 2, multiplicities: 1,4, labels: 0">
<ellipse fill="#fee3d6" stroke="black" cx="489.596" cy="-1026" rx="41.6928" ry="18"/>
<text text-anchor="middle" x="489.596" y="-1022.3" font-family="Times,serif" font-size="14.00">37 (2): 0</text>
</a>
</g>
</g>
<!-- 56 -->
<g id="node57" class="node"><title>56</title>
<g id="a_node57"><a xlink:title="56, diversity: 1, multiplicities: 3, labels: 0">
<ellipse fill="#fee3d6" stroke="black" cx="489.596" cy="-954" rx="41.6928" ry="18"/>
<text text-anchor="middle" x="489.596" y="-950.3" font-family="Times,serif" font-size="14.00">56 (1): 0</text>
</a>
</g>
</g>
<!-- 37&#45;&gt;56 -->
<g id="edge4" class="edge"><title>37&#45;&gt;56</title>
<path fill="none" stroke="black" d="M489.596,-1007.7C489.596,-999.983 489.596,-990.712 489.596,-982.112"/>
<polygon fill="black" stroke="black" points="493.096,-982.104 489.596,-972.104 486.096,-982.104 493.096,-982.104"/>
</g>
<!-- 46 -->
<g id="node47" class="node"><title>46</title>
<g id="a_node47"><a xlink:title="46, diversity: 1, multiplicities: 2, labels: 0">
<ellipse fill="#fee3d6" stroke="black" cx="792.596" cy="-1386" rx="41.6928" ry="18"/>
<text text-anchor="middle" x="792.596" y="-1382.3" font-family="Times,serif" font-size="14.00">46 (1): 0</text>
</a>
</g>
</g>
<!-- 38&#45;&gt;46 -->
<g id="edge33" class="edge"><title>38&#45;&gt;46</title>
<path fill="none" stroke="black" d="M792.596,-1439.7C792.596,-1431.98 792.596,-1422.71 792.596,-1414.11"/>
<polygon fill="black" stroke="black" points="796.096,-1414.1 792.596,-1404.1 789.096,-1414.1 796.096,-1414.1"/>
</g>
<!-- 39 -->
<g id="node40" class="node"><title>39</title>
<g id="a_node40"><a xlink:title="39, diversity: 1, multiplicities: 7, labels: 0">
<ellipse fill="#fcc4ad" stroke="black" cx="388.596" cy="-1314" rx="41.6928" ry="18"/>
<text text-anchor="middle" x="388.596" y="-1310.3" font-family="Times,serif" font-size="14.00">39 (1): 0</text>
</a>
</g>
</g>
<!-- 67 -->
<g id="node68" class="node"><title>67</title>
<g id="a_node68"><a xlink:title="67, diversity: 1, multiplicities: 1, labels: 0">
<ellipse fill="#fff5f0" stroke="black" cx="388.596" cy="-1242" rx="41.6928" ry="18"/>
<text text-anchor="middle" x="388.596" y="-1238.3" font-family="Times,serif" font-size="14.00">67 (1): 0</text>
</a>
</g>
</g>
<!-- 39&#45;&gt;67 -->
<g id="edge39" class="edge"><title>39&#45;&gt;67</title>
<path fill="none" stroke="black" d="M388.596,-1295.7C388.596,-1287.98 388.596,-1278.71 388.596,-1270.11"/>
<polygon fill="black" stroke="black" points="392.096,-1270.1 388.596,-1260.1 385.096,-1270.1 392.096,-1270.1"/>
</g>
<!-- 40 -->
<g id="node41" class="node"><title>40</title>
<g id="a_node41"><a xlink:title="40, diversity: 1, multiplicities: 8, labels: 0">
<ellipse fill="#fcc4ad" stroke="black" cx="792.596" cy="-1242" rx="41.6928" ry="18"/>
<text text-anchor="middle" x="792.596" y="-1238.3" font-family="Times,serif" font-size="14.00">40 (1): 0</text>
</a>
</g>
</g>
<!-- 40&#45;&gt;0 -->
<g id="edge2" class="edge"><title>40&#45;&gt;0</title>
<path fill="none" stroke="black" d="M792.596,-1223.7C792.596,-1215.98 792.596,-1206.71 792.596,-1198.11"/>
<polygon fill="black" stroke="black" points="796.096,-1198.1 792.596,-1188.1 789.096,-1198.1 796.096,-1198.1"/>
</g>
<!-- 41&#45;&gt;33 -->
<g id="edge38" class="edge"><title>41&#45;&gt;33</title>
<path fill="none" stroke="black" d="M893.596,-1439.7C893.596,-1431.98 893.596,-1422.71 893.596,-1414.11"/>
<polygon fill="black" stroke="black" points="897.096,-1414.1 893.596,-1404.1 890.096,-1414.1 897.096,-1414.1"/>
</g>
<!-- 64 -->
<g id="node65" class="node"><title>64</title>
<g id="a_node65"><a xlink:title="64, diversity: 2, multiplicities: 1,2, labels: 0">
<ellipse fill="#fee3d6" stroke="black" cx="489.596" cy="-594" rx="41.6928" ry="18"/>
<text text-anchor="middle" x="489.596" y="-590.3" font-family="Times,serif" font-size="14.00">64 (2): 0</text>
</a>
</g>
</g>
<!-- 42&#45;&gt;64 -->
<g id="edge12" class="edge"><title>42&#45;&gt;64</title>
<path fill="none" stroke="black" d="M489.596,-647.697C489.596,-639.983 489.596,-630.712 489.596,-622.112"/>
<polygon fill="black" stroke="black" points="493.096,-622.104 489.596,-612.104 486.096,-622.104 493.096,-622.104"/>
</g>
<!-- 43 -->
<g id="node44" class="node"><title>43</title>
<g id="a_node44"><a xlink:title="43, diversity: 2, multiplicities: 4,5, labels: 0">
<ellipse fill="#fcc4ad" stroke="black" cx="489.596" cy="-1314" rx="41.6928" ry="18"/>
<text text-anchor="middle" x="489.596" y="-1310.3" font-family="Times,serif" font-size="14.00">43 (2): 0</text>
</a>
</g>
</g>
<!-- 43&#45;&gt;28 -->
<g id="edge25" class="edge"><title>43&#45;&gt;28</title>
<path fill="none" stroke="black" d="M489.596,-1295.7C489.596,-1287.98 489.596,-1278.71 489.596,-1270.11"/>
<polygon fill="black" stroke="black" points="493.096,-1270.1 489.596,-1260.1 486.096,-1270.1 493.096,-1270.1"/>
</g>
<!-- 47 -->
<g id="node48" class="node"><title>47</title>
<g id="a_node48"><a xlink:title="47, diversity: 1, multiplicities: 3, labels: 0">
<ellipse fill="#fee3d6" stroke="black" cx="292.596" cy="-234" rx="41.6928" ry="18"/>
<text text-anchor="middle" x="292.596" y="-230.3" font-family="Times,serif" font-size="14.00">47 (1): 0</text>
</a>
</g>
</g>
<!-- 45&#45;&gt;47 -->
<g id="edge41" class="edge"><title>45&#45;&gt;47</title>
<path fill="none" stroke="black" d="M293.349,-287.697C293.239,-279.983 293.106,-270.712 292.984,-262.112"/>
<polygon fill="black" stroke="black" points="296.483,-262.053 292.841,-252.104 289.484,-262.153 296.483,-262.053"/>
</g>
<!-- 66 -->
<g id="node67" class="node"><title>66</title>
<g id="a_node67"><a xlink:title="66, diversity: 1, multiplicities: 1, labels: 0">
<ellipse fill="#fff5f0" stroke="black" cx="792.596" cy="-1314" rx="41.6928" ry="18"/>
<text text-anchor="middle" x="792.596" y="-1310.3" font-family="Times,serif" font-size="14.00">66 (1): 0</text>
</a>
</g>
</g>
<!-- 46&#45;&gt;66 -->
<g id="edge20" class="edge"><title>46&#45;&gt;66</title>
<path fill="none" stroke="black" d="M792.596,-1367.7C792.596,-1359.98 792.596,-1350.71 792.596,-1342.11"/>
<polygon fill="black" stroke="black" points="796.096,-1342.1 792.596,-1332.1 789.096,-1342.1 796.096,-1342.1"/>
</g>
<!-- 47&#45;&gt;34 -->
<g id="edge21" class="edge"><title>47&#45;&gt;34</title>
<path fill="none" stroke="black" d="M292.596,-215.697C292.596,-207.983 292.596,-198.712 292.596,-190.112"/>
<polygon fill="black" stroke="black" points="296.096,-190.104 292.596,-180.104 289.096,-190.104 296.096,-190.104"/>
</g>
<!-- 48 -->
<g id="node49" class="node"><title>48</title>
<g id="a_node49"><a xlink:title="48, diversity: 1, multiplicities: 1, labels: 0">
<ellipse fill="#fff5f0" stroke="black" cx="691.596" cy="-90" rx="41.6928" ry="18"/>
<text text-anchor="middle" x="691.596" y="-86.3" font-family="Times,serif" font-size="14.00">48 (1): 0</text>
</a>
</g>
</g>
<!-- 48&#45;&gt;21 -->
<g id="edge31" class="edge"><title>48&#45;&gt;21</title>
<path fill="none" stroke="black" d="M691.596,-71.6966C691.596,-63.9827 691.596,-54.7125 691.596,-46.1124"/>
<polygon fill="black" stroke="black" points="695.096,-46.1043 691.596,-36.1043 688.096,-46.1044 695.096,-46.1043"/>
</g>
<!-- 54 -->
<g id="node55" class="node"><title>54</title>
<g id="a_node55"><a xlink:title="54, diversity: 1, multiplicities: 2, labels: 0">
<ellipse fill="#fee3d6" stroke="black" cx="893.596" cy="-1242" rx="41.6928" ry="18"/>
<text text-anchor="middle" x="893.596" y="-1238.3" font-family="Times,serif" font-size="14.00">54 (1): 0</text>
</a>
</g>
</g>
<!-- 49&#45;&gt;54 -->
<g id="edge10" class="edge"><title>49&#45;&gt;54</title>
<path fill="none" stroke="black" d="M893.596,-1295.7C893.596,-1287.98 893.596,-1278.71 893.596,-1270.11"/>
<polygon fill="black" stroke="black" points="897.096,-1270.1 893.596,-1260.1 890.096,-1270.1 897.096,-1270.1"/>
</g>
<!-- 68 -->
<g id="node69" class="node"><title>68</title>
<g id="a_node69"><a xlink:title="68, diversity: 1, multiplicities: 1, labels: 0">
<ellipse fill="#fff5f0" stroke="black" cx="388.596" cy="-1386" rx="41.6928" ry="18"/>
<text text-anchor="middle" x="388.596" y="-1382.3" font-family="Times,serif" font-size="14.00">68 (1): 0</text>
</a>
</g>
</g>
<!-- 50&#45;&gt;68 -->
<g id="edge60" class="edge"><title>50&#45;&gt;68</title>
<path fill="none" stroke="black" d="M388.596,-1439.7C388.596,-1431.98 388.596,-1422.71 388.596,-1414.11"/>
<polygon fill="black" stroke="black" points="392.096,-1414.1 388.596,-1404.1 385.096,-1414.1 392.096,-1414.1"/>
</g>
<!-- 53 -->
<g id="node54" class="node"><title>53</title>
<g id="a_node54"><a xlink:title="53, diversity: 1, multiplicities: 3, labels: 0">
<ellipse fill="#fee3d6" stroke="black" cx="489.596" cy="-1386" rx="41.6928" ry="18"/>
<text text-anchor="middle" x="489.596" y="-1382.3" font-family="Times,serif" font-size="14.00">53 (1): 0</text>
</a>
</g>
</g>
<!-- 51&#45;&gt;53 -->
<g id="edge67" class="edge"><title>51&#45;&gt;53</title>
<path fill="none" stroke="black" d="M489.596,-1439.7C489.596,-1431.98 489.596,-1422.71 489.596,-1414.11"/>
<polygon fill="black" stroke="black" points="493.096,-1414.1 489.596,-1404.1 486.096,-1414.1 493.096,-1414.1"/>
</g>
<!-- 55 -->
<g id="node56" class="node"><title>55</title>
<g id="a_node56"><a xlink:title="55, diversity: 1, multiplicities: 2, labels: 0">
<ellipse fill="#fee3d6" stroke="black" cx="41.5963" cy="-1242" rx="41.6928" ry="18"/>
<text text-anchor="middle" x="41.5963" y="-1238.3" font-family="Times,serif" font-size="14.00">55 (1): 0</text>
</a>
</g>
</g>
<!-- 52&#45;&gt;55 -->
<g id="edge54" class="edge"><title>52&#45;&gt;55</title>
<path fill="none" stroke="black" d="M41.5963,-1295.7C41.5963,-1287.98 41.5963,-1278.71 41.5963,-1270.11"/>
<polygon fill="black" stroke="black" points="45.0964,-1270.1 41.5963,-1260.1 38.0964,-1270.1 45.0964,-1270.1"/>
</g>
<!-- 53&#45;&gt;43 -->
<g id="edge6" class="edge"><title>53&#45;&gt;43</title>
<path fill="none" stroke="black" d="M489.596,-1367.7C489.596,-1359.98 489.596,-1350.71 489.596,-1342.11"/>
<polygon fill="black" stroke="black" points="493.096,-1342.1 489.596,-1332.1 486.096,-1342.1 493.096,-1342.1"/>
</g>
<!-- 54&#45;&gt;9 -->
<g id="edge56" class="edge"><title>54&#45;&gt;9</title>
<path fill="none" stroke="black" d="M893.596,-1223.7C893.596,-1215.98 893.596,-1206.71 893.596,-1198.11"/>
<polygon fill="black" stroke="black" points="897.096,-1198.1 893.596,-1188.1 890.096,-1198.1 897.096,-1198.1"/>
</g>
<!-- 55&#45;&gt;14 -->
<g id="edge58" class="edge"><title>55&#45;&gt;14</title>
<path fill="none" stroke="black" d="M41.5963,-1223.7C41.5963,-1215.98 41.5963,-1206.71 41.5963,-1198.11"/>
<polygon fill="black" stroke="black" points="45.0964,-1198.1 41.5963,-1188.1 38.0964,-1198.1 45.0964,-1198.1"/>
</g>
<!-- 56&#45;&gt;26 -->
<g id="edge9" class="edge"><title>56&#45;&gt;26</title>
<path fill="none" stroke="black" d="M489.596,-935.697C489.596,-927.983 489.596,-918.712 489.596,-910.112"/>
<polygon fill="black" stroke="black" points="493.096,-910.104 489.596,-900.104 486.096,-910.104 493.096,-910.104"/>
</g>
<!-- 70 -->
<g id="node71" class="node"><title>70</title>
<g id="a_node71"><a xlink:title="70, diversity: 1, multiplicities: 2, labels: 0">
<ellipse fill="#fee3d6" stroke="black" cx="142.596" cy="-1242" rx="41.6928" ry="18"/>
<text text-anchor="middle" x="142.596" y="-1238.3" font-family="Times,serif" font-size="14.00">70 (1): 0</text>
</a>
</g>
</g>
<!-- 57&#45;&gt;70 -->
<g id="edge42" class="edge"><title>57&#45;&gt;70</title>
<path fill="none" stroke="black" d="M142.596,-1295.7C142.596,-1287.98 142.596,-1278.71 142.596,-1270.11"/>
<polygon fill="black" stroke="black" points="146.096,-1270.1 142.596,-1260.1 139.096,-1270.1 146.096,-1270.1"/>
</g>
<!-- 58 -->
<g id="node59" class="node"><title>58</title>
<g id="a_node59"><a xlink:title="58, diversity: 1, multiplicities: 2, labels: 0">
<ellipse fill="#fee3d6" stroke="black" cx="489.596" cy="-1098" rx="41.6928" ry="18"/>
<text text-anchor="middle" x="489.596" y="-1094.3" font-family="Times,serif" font-size="14.00">58 (1): 0</text>
</a>
</g>
</g>
<!-- 58&#45;&gt;37 -->
<g id="edge57" class="edge"><title>58&#45;&gt;37</title>
<path fill="none" stroke="black" d="M489.596,-1079.7C489.596,-1071.98 489.596,-1062.71 489.596,-1054.11"/>
<polygon fill="black" stroke="black" points="493.096,-1054.1 489.596,-1044.1 486.096,-1054.1 493.096,-1054.1"/>
</g>
<!-- 59&#45;&gt;48 -->
<g id="edge61" class="edge"><title>59&#45;&gt;48</title>
<path fill="none" stroke="black" d="M691.596,-143.697C691.596,-135.983 691.596,-126.712 691.596,-118.112"/>
<polygon fill="black" stroke="black" points="695.096,-118.104 691.596,-108.104 688.096,-118.104 695.096,-118.104"/>
</g>
<!-- 60&#45;&gt;23 -->
<g id="edge19" class="edge"><title>60&#45;&gt;23</title>
<path fill="none" stroke="black" d="M691.596,-359.697C691.596,-351.983 691.596,-342.712 691.596,-334.112"/>
<polygon fill="black" stroke="black" points="695.096,-334.104 691.596,-324.104 688.096,-334.104 695.096,-334.104"/>
</g>
<!-- 61&#45;&gt;4 -->
<g id="edge32" class="edge"><title>61&#45;&gt;4</title>
<path fill="none" stroke="black" d="M590.596,-1439.7C590.596,-1431.98 590.596,-1422.71 590.596,-1414.11"/>
<polygon fill="black" stroke="black" points="594.096,-1414.1 590.596,-1404.1 587.096,-1414.1 594.096,-1414.1"/>
</g>
<!-- 62&#45;&gt;58 -->
<g id="edge37" class="edge"><title>62&#45;&gt;58</title>
<path fill="none" stroke="black" d="M489.596,-1151.7C489.596,-1143.98 489.596,-1134.71 489.596,-1126.11"/>
<polygon fill="black" stroke="black" points="493.096,-1126.1 489.596,-1116.1 486.096,-1126.1 493.096,-1126.1"/>
</g>
<!-- 69 -->
<g id="node70" class="node"><title>69</title>
<g id="a_node70"><a xlink:title="69, diversity: 1, multiplicities: 2, labels: 0">
<ellipse fill="#fee3d6" stroke="black" cx="489.596" cy="-522" rx="41.6928" ry="18"/>
<text text-anchor="middle" x="489.596" y="-518.3" font-family="Times,serif" font-size="14.00">69 (1): 0</text>
</a>
</g>
</g>
<!-- 64&#45;&gt;69 -->
<g id="edge66" class="edge"><title>64&#45;&gt;69</title>
<path fill="none" stroke="black" d="M489.596,-575.697C489.596,-567.983 489.596,-558.712 489.596,-550.112"/>
<polygon fill="black" stroke="black" points="493.096,-550.104 489.596,-540.104 486.096,-550.104 493.096,-550.104"/>
</g>
<!-- 65&#45;&gt;15 -->
<g id="edge50" class="edge"><title>65&#45;&gt;15</title>
<path fill="none" stroke="black" d="M393.596,-215.697C393.596,-207.983 393.596,-198.712 393.596,-190.112"/>
<polygon fill="black" stroke="black" points="397.096,-190.104 393.596,-180.104 390.096,-190.104 397.096,-190.104"/>
</g>
<!-- 66&#45;&gt;40 -->
<g id="edge22" class="edge"><title>66&#45;&gt;40</title>
<path fill="none" stroke="black" d="M792.596,-1295.7C792.596,-1287.98 792.596,-1278.71 792.596,-1270.11"/>
<polygon fill="black" stroke="black" points="796.096,-1270.1 792.596,-1260.1 789.096,-1270.1 796.096,-1270.1"/>
</g>
<!-- 67&#45;&gt;16 -->
<g id="edge65" class="edge"><title>67&#45;&gt;16</title>
<path fill="none" stroke="black" d="M388.596,-1223.7C388.596,-1215.98 388.596,-1206.71 388.596,-1198.11"/>
<polygon fill="black" stroke="black" points="392.096,-1198.1 388.596,-1188.1 385.096,-1198.1 392.096,-1198.1"/>
</g>
<!-- 68&#45;&gt;39 -->
<g id="edge17" class="edge"><title>68&#45;&gt;39</title>
<path fill="none" stroke="black" d="M388.596,-1367.7C388.596,-1359.98 388.596,-1350.71 388.596,-1342.11"/>
<polygon fill="black" stroke="black" points="392.096,-1342.1 388.596,-1332.1 385.096,-1342.1 392.096,-1342.1"/>
</g>
<!-- 69&#45;&gt;7 -->
<g id="edge5" class="edge"><title>69&#45;&gt;7</title>
<path fill="none" stroke="black" d="M489.596,-503.697C489.596,-495.983 489.596,-486.712 489.596,-478.112"/>
<polygon fill="black" stroke="black" points="493.096,-478.104 489.596,-468.104 486.096,-478.104 493.096,-478.104"/>
</g>
<!-- 70&#45;&gt;24 -->
<g id="edge70" class="edge"><title>70&#45;&gt;24</title>
<path fill="none" stroke="black" d="M142.596,-1223.7C142.596,-1215.98 142.596,-1206.71 142.596,-1198.11"/>
<polygon fill="black" stroke="black" points="146.096,-1198.1 142.596,-1188.1 139.096,-1198.1 146.096,-1198.1"/>
</g>
<!-- 70&#45;&gt;32 -->
<g id="edge18" class="edge"><title>70&#45;&gt;32</title>
<path fill="none" stroke="black" d="M164.016,-1226.15C178.575,-1216.06 198.027,-1202.58 214.055,-1191.47"/>
<polygon fill="black" stroke="black" points="216.329,-1194.16 222.554,-1185.58 212.341,-1188.4 216.329,-1194.16"/>
</g>
</g>
</svg>
