<?xml version="1.0" encoding="UTF-8" standalone="no"?>
<!DOCTYPE svg PUBLIC "-//W3C//DTD SVG 1.1//EN"
 "http://www.w3.org/Graphics/SVG/1.1/DTD/svg11.dtd">
<!-- Generated by graphviz version 2.38.0 (20140413.2041)
 -->
<!-- Title: %3 Pages: 1 -->
<svg width="786pt" height="2276pt"
 viewBox="0.00 0.00 786.19 2276.00" xmlns="http://www.w3.org/2000/svg" xmlns:xlink="http://www.w3.org/1999/xlink">
<g id="graph0" class="graph" transform="scale(1 1) rotate(0) translate(4 2272)">
<title>%3</title>
<polygon fill="white" stroke="none" points="-4,4 -4,-2272 782.193,-2272 782.193,4 -4,4"/>
<!-- 0 -->
<g id="node1" class="node"><title>0</title>
<g id="a_node1"><a xlink:title="0, diversity: 6, multiplicities: 5,7,8,36,68,601, labels: 0">
<ellipse fill="#e32f27" stroke="black" cx="336.596" cy="-1674" rx="37.0935" ry="18"/>
<text text-anchor="middle" x="336.596" y="-1670.3" font-family="Times,serif" font-size="14.00">0 (6): 0</text>
</a>
</g>
</g>
<!-- 1 -->
<g id="node2" class="node"><title>1</title>
<g id="a_node2"><a xlink:title="1, diversity: 3, multiplicities: 5,29,333, labels: 0">
<ellipse fill="#f6553c" stroke="black" cx="152.596" cy="-1602" rx="37.0935" ry="18"/>
<text text-anchor="middle" x="152.596" y="-1598.3" font-family="Times,serif" font-size="14.00">1 (3): 0</text>
</a>
</g>
</g>
<!-- 0&#45;&gt;1 -->
<g id="edge39" class="edge"><title>0&#45;&gt;1</title>
<path fill="none" stroke="black" d="M308.25,-1662.22C276.644,-1650.19 225.38,-1630.69 190.385,-1617.38"/>
<polygon fill="black" stroke="black" points="191.566,-1614.08 180.975,-1613.8 189.077,-1620.62 191.566,-1614.08"/>
</g>
<!-- 2 -->
<g id="node3" class="node"><title>2</title>
<g id="a_node3"><a xlink:title="2, diversity: 1, multiplicities: 6, labels: 0">
<ellipse fill="#fcc4ad" stroke="black" cx="244.596" cy="-1602" rx="37.0935" ry="18"/>
<text text-anchor="middle" x="244.596" y="-1598.3" font-family="Times,serif" font-size="14.00">2 (1): 0</text>
</a>
</g>
</g>
<!-- 0&#45;&gt;2 -->
<g id="edge53" class="edge"><title>0&#45;&gt;2</title>
<path fill="none" stroke="black" d="M317.534,-1658.5C304.335,-1648.45 286.567,-1634.93 271.873,-1623.75"/>
<polygon fill="black" stroke="black" points="273.712,-1620.76 263.634,-1617.49 269.473,-1626.33 273.712,-1620.76"/>
</g>
<!-- 9 -->
<g id="node10" class="node"><title>9</title>
<g id="a_node10"><a xlink:title="9, diversity: 1, multiplicities: 54, labels: 0">
<ellipse fill="#fca082" stroke="black" cx="336.596" cy="-1602" rx="37.0935" ry="18"/>
<text text-anchor="middle" x="336.596" y="-1598.3" font-family="Times,serif" font-size="14.00">9 (1): 0</text>
</a>
</g>
</g>
<!-- 0&#45;&gt;9 -->
<g id="edge33" class="edge"><title>0&#45;&gt;9</title>
<path fill="none" stroke="black" d="M336.596,-1655.7C336.596,-1647.98 336.596,-1638.71 336.596,-1630.11"/>
<polygon fill="black" stroke="black" points="340.096,-1630.1 336.596,-1620.1 333.096,-1630.1 340.096,-1630.1"/>
</g>
<!-- 10 -->
<g id="node11" class="node"><title>10</title>
<g id="a_node11"><a xlink:title="10, diversity: 2, multiplicities: 15,21, labels: 0">
<ellipse fill="#fca082" stroke="black" cx="433.596" cy="-1602" rx="41.6928" ry="18"/>
<text text-anchor="middle" x="433.596" y="-1598.3" font-family="Times,serif" font-size="14.00">10 (2): 0</text>
</a>
</g>
</g>
<!-- 0&#45;&gt;10 -->
<g id="edge9" class="edge"><title>0&#45;&gt;10</title>
<path fill="none" stroke="black" d="M356.695,-1658.5C370.648,-1648.43 389.442,-1634.86 404.959,-1623.67"/>
<polygon fill="black" stroke="black" points="407.129,-1626.42 413.19,-1617.73 403.033,-1620.74 407.129,-1626.42"/>
</g>
<!-- 17 -->
<g id="node18" class="node"><title>17</title>
<g id="a_node18"><a xlink:title="17, diversity: 2, multiplicities: 1,4, labels: 0">
<ellipse fill="#fee3d6" stroke="black" cx="534.596" cy="-1602" rx="41.6928" ry="18"/>
<text text-anchor="middle" x="534.596" y="-1598.3" font-family="Times,serif" font-size="14.00">17 (2): 0</text>
</a>
</g>
</g>
<!-- 0&#45;&gt;17 -->
<g id="edge19" class="edge"><title>0&#45;&gt;17</title>
<path fill="none" stroke="black" d="M365.812,-1662.67C399.584,-1650.73 455.4,-1631 493.528,-1617.52"/>
<polygon fill="black" stroke="black" points="495.036,-1620.7 503.298,-1614.07 492.703,-1614.1 495.036,-1620.7"/>
</g>
<!-- 6 -->
<g id="node7" class="node"><title>6</title>
<g id="a_node7"><a xlink:title="6, diversity: 2, multiplicities: 10,182, labels: 0">
<ellipse fill="#fb7c5c" stroke="black" cx="55.5963" cy="-1530" rx="37.0935" ry="18"/>
<text text-anchor="middle" x="55.5963" y="-1526.3" font-family="Times,serif" font-size="14.00">6 (2): 0</text>
</a>
</g>
</g>
<!-- 1&#45;&gt;6 -->
<g id="edge8" class="edge"><title>1&#45;&gt;6</title>
<path fill="none" stroke="black" d="M132.498,-1586.5C118.358,-1576.29 99.2448,-1562.5 83.611,-1551.22"/>
<polygon fill="black" stroke="black" points="85.4943,-1548.26 75.3371,-1545.25 81.398,-1553.94 85.4943,-1548.26"/>
</g>
<!-- 11 -->
<g id="node12" class="node"><title>11</title>
<g id="a_node12"><a xlink:title="11, diversity: 1, multiplicities: 36, labels: 0">
<ellipse fill="#fca082" stroke="black" cx="152.596" cy="-1530" rx="41.6928" ry="18"/>
<text text-anchor="middle" x="152.596" y="-1526.3" font-family="Times,serif" font-size="14.00">11 (1): 0</text>
</a>
</g>
</g>
<!-- 1&#45;&gt;11 -->
<g id="edge15" class="edge"><title>1&#45;&gt;11</title>
<path fill="none" stroke="black" d="M152.596,-1583.7C152.596,-1575.98 152.596,-1566.71 152.596,-1558.11"/>
<polygon fill="black" stroke="black" points="156.096,-1558.1 152.596,-1548.1 149.096,-1558.1 156.096,-1558.1"/>
</g>
<!-- 14 -->
<g id="node15" class="node"><title>14</title>
<g id="a_node15"><a xlink:title="14, diversity: 1, multiplicities: 6, labels: 0">
<ellipse fill="#fcc4ad" stroke="black" cx="253.596" cy="-1530" rx="41.6928" ry="18"/>
<text text-anchor="middle" x="253.596" y="-1526.3" font-family="Times,serif" font-size="14.00">14 (1): 0</text>
</a>
</g>
</g>
<!-- 1&#45;&gt;14 -->
<g id="edge17" class="edge"><title>1&#45;&gt;14</title>
<path fill="none" stroke="black" d="M173.035,-1586.83C187.626,-1576.72 207.48,-1562.96 223.827,-1551.63"/>
<polygon fill="black" stroke="black" points="226.267,-1554.2 232.493,-1545.63 222.28,-1548.45 226.267,-1554.2"/>
</g>
<!-- 3 -->
<g id="node4" class="node"><title>3</title>
<g id="a_node4"><a xlink:title="3, diversity: 1, multiplicities: 6, labels: 0">
<ellipse fill="#fcc4ad" stroke="black" cx="229.596" cy="-2106" rx="37.0935" ry="18"/>
<text text-anchor="middle" x="229.596" y="-2102.3" font-family="Times,serif" font-size="14.00">3 (1): 0</text>
</a>
</g>
</g>
<!-- 4 -->
<g id="node5" class="node"><title>4</title>
<g id="a_node5"><a xlink:title="4, diversity: 1, multiplicities: 9, labels: 0">
<ellipse fill="#fcc4ad" stroke="black" cx="138.596" cy="-2034" rx="37.0935" ry="18"/>
<text text-anchor="middle" x="138.596" y="-2030.3" font-family="Times,serif" font-size="14.00">4 (1): 0</text>
</a>
</g>
</g>
<!-- 3&#45;&gt;4 -->
<g id="edge52" class="edge"><title>3&#45;&gt;4</title>
<path fill="none" stroke="black" d="M210.741,-2090.5C197.773,-2080.52 180.345,-2067.11 165.868,-2055.98"/>
<polygon fill="black" stroke="black" points="167.801,-2053.05 157.74,-2049.73 163.533,-2058.6 167.801,-2053.05"/>
</g>
<!-- 35 -->
<g id="node36" class="node"><title>35</title>
<g id="a_node36"><a xlink:title="35, diversity: 1, multiplicities: 1, labels: 0">
<ellipse fill="#fff5f0" stroke="black" cx="235.596" cy="-2034" rx="41.6928" ry="18"/>
<text text-anchor="middle" x="235.596" y="-2030.3" font-family="Times,serif" font-size="14.00">35 (1): 0</text>
</a>
</g>
</g>
<!-- 3&#45;&gt;35 -->
<g id="edge3" class="edge"><title>3&#45;&gt;35</title>
<path fill="none" stroke="black" d="M231.079,-2087.7C231.741,-2079.98 232.535,-2070.71 233.272,-2062.11"/>
<polygon fill="black" stroke="black" points="236.763,-2062.37 234.13,-2052.1 229.789,-2061.77 236.763,-2062.37"/>
</g>
<!-- 36 -->
<g id="node37" class="node"><title>36</title>
<g id="a_node37"><a xlink:title="36, diversity: 1, multiplicities: 1, labels: 0">
<ellipse fill="#fff5f0" stroke="black" cx="336.596" cy="-2034" rx="41.6928" ry="18"/>
<text text-anchor="middle" x="336.596" y="-2030.3" font-family="Times,serif" font-size="14.00">36 (1): 0</text>
</a>
</g>
</g>
<!-- 3&#45;&gt;36 -->
<g id="edge36" class="edge"><title>3&#45;&gt;36</title>
<path fill="none" stroke="black" d="M250.736,-2091.17C266.399,-2080.92 287.989,-2066.8 305.601,-2055.28"/>
<polygon fill="black" stroke="black" points="307.943,-2057.93 314.395,-2049.52 304.111,-2052.07 307.943,-2057.93"/>
</g>
<!-- 5 -->
<g id="node6" class="node"><title>5</title>
<g id="a_node6"><a xlink:title="5, diversity: 2, multiplicities: 1,7, labels: 0">
<ellipse fill="#fcc4ad" stroke="black" cx="336.596" cy="-1818" rx="37.0935" ry="18"/>
<text text-anchor="middle" x="336.596" y="-1814.3" font-family="Times,serif" font-size="14.00">5 (2): 0</text>
</a>
</g>
</g>
<!-- 18 -->
<g id="node19" class="node"><title>18</title>
<g id="a_node19"><a xlink:title="18, diversity: 1, multiplicities: 8, labels: 0">
<ellipse fill="#fcc4ad" stroke="black" cx="336.596" cy="-1746" rx="41.6928" ry="18"/>
<text text-anchor="middle" x="336.596" y="-1742.3" font-family="Times,serif" font-size="14.00">18 (1): 0</text>
</a>
</g>
</g>
<!-- 5&#45;&gt;18 -->
<g id="edge5" class="edge"><title>5&#45;&gt;18</title>
<path fill="none" stroke="black" d="M336.596,-1799.7C336.596,-1791.98 336.596,-1782.71 336.596,-1774.11"/>
<polygon fill="black" stroke="black" points="340.096,-1774.1 336.596,-1764.1 333.096,-1774.1 340.096,-1774.1"/>
</g>
<!-- 7 -->
<g id="node8" class="node"><title>7</title>
<g id="a_node8"><a xlink:title="7, diversity: 1, multiplicities: 3, labels: 0">
<ellipse fill="#fee3d6" stroke="black" cx="584.596" cy="-1386" rx="37.0935" ry="18"/>
<text text-anchor="middle" x="584.596" y="-1382.3" font-family="Times,serif" font-size="14.00">7 (1): 0</text>
</a>
</g>
</g>
<!-- 13 -->
<g id="node14" class="node"><title>13</title>
<g id="a_node14"><a xlink:title="13, diversity: 2, multiplicities: 3,3, labels: 0">
<ellipse fill="#fcc4ad" stroke="black" cx="584.596" cy="-1314" rx="41.6928" ry="18"/>
<text text-anchor="middle" x="584.596" y="-1310.3" font-family="Times,serif" font-size="14.00">13 (2): 0</text>
</a>
</g>
</g>
<!-- 7&#45;&gt;13 -->
<g id="edge43" class="edge"><title>7&#45;&gt;13</title>
<path fill="none" stroke="black" d="M584.596,-1367.7C584.596,-1359.98 584.596,-1350.71 584.596,-1342.11"/>
<polygon fill="black" stroke="black" points="588.096,-1342.1 584.596,-1332.1 581.096,-1342.1 588.096,-1342.1"/>
</g>
<!-- 8 -->
<g id="node9" class="node"><title>8</title>
<g id="a_node9"><a xlink:title="8, diversity: 3, multiplicities: 1,3,4, labels: 0">
<ellipse fill="#fcc4ad" stroke="black" cx="336.596" cy="-1890" rx="37.0935" ry="18"/>
<text text-anchor="middle" x="336.596" y="-1886.3" font-family="Times,serif" font-size="14.00">8 (3): 0</text>
</a>
</g>
</g>
<!-- 8&#45;&gt;5 -->
<g id="edge12" class="edge"><title>8&#45;&gt;5</title>
<path fill="none" stroke="black" d="M336.596,-1871.7C336.596,-1863.98 336.596,-1854.71 336.596,-1846.11"/>
<polygon fill="black" stroke="black" points="340.096,-1846.1 336.596,-1836.1 333.096,-1846.1 340.096,-1846.1"/>
</g>
<!-- 12 -->
<g id="node13" class="node"><title>12</title>
<g id="a_node13"><a xlink:title="12, diversity: 2, multiplicities: 1,7, labels: 0">
<ellipse fill="#fcc4ad" stroke="black" cx="483.596" cy="-1530" rx="41.6928" ry="18"/>
<text text-anchor="middle" x="483.596" y="-1526.3" font-family="Times,serif" font-size="14.00">12 (2): 0</text>
</a>
</g>
</g>
<!-- 21 -->
<g id="node22" class="node"><title>21</title>
<g id="a_node22"><a xlink:title="21, diversity: 1, multiplicities: 3, labels: 0">
<ellipse fill="#fee3d6" stroke="black" cx="584.596" cy="-1242" rx="41.6928" ry="18"/>
<text text-anchor="middle" x="584.596" y="-1238.3" font-family="Times,serif" font-size="14.00">21 (1): 0</text>
</a>
</g>
</g>
<!-- 13&#45;&gt;21 -->
<g id="edge13" class="edge"><title>13&#45;&gt;21</title>
<path fill="none" stroke="black" d="M584.596,-1295.7C584.596,-1287.98 584.596,-1278.71 584.596,-1270.11"/>
<polygon fill="black" stroke="black" points="588.096,-1270.1 584.596,-1260.1 581.096,-1270.1 588.096,-1270.1"/>
</g>
<!-- 15 -->
<g id="node16" class="node"><title>15</title>
<g id="a_node16"><a xlink:title="15, diversity: 1, multiplicities: 5, labels: 0">
<ellipse fill="#fee3d6" stroke="black" cx="534.596" cy="-666" rx="41.6928" ry="18"/>
<text text-anchor="middle" x="534.596" y="-662.3" font-family="Times,serif" font-size="14.00">15 (1): 0</text>
</a>
</g>
</g>
<!-- 16 -->
<g id="node17" class="node"><title>16</title>
<g id="a_node17"><a xlink:title="16, diversity: 2, multiplicities: 1,7, labels: 0">
<ellipse fill="#fcc4ad" stroke="black" cx="99.5963" cy="-2178" rx="41.6928" ry="18"/>
<text text-anchor="middle" x="99.5963" y="-2174.3" font-family="Times,serif" font-size="14.00">16 (2): 0</text>
</a>
</g>
</g>
<!-- 24 -->
<g id="node25" class="node"><title>24</title>
<g id="a_node25"><a xlink:title="24, diversity: 1, multiplicities: 3, labels: 0">
<ellipse fill="#fee3d6" stroke="black" cx="87.5963" cy="-2106" rx="41.6928" ry="18"/>
<text text-anchor="middle" x="87.5963" y="-2102.3" font-family="Times,serif" font-size="14.00">24 (1): 0</text>
</a>
</g>
</g>
<!-- 16&#45;&gt;24 -->
<g id="edge11" class="edge"><title>16&#45;&gt;24</title>
<path fill="none" stroke="black" d="M96.63,-2159.7C95.3076,-2151.98 93.7184,-2142.71 92.2442,-2134.11"/>
<polygon fill="black" stroke="black" points="95.6679,-2133.37 90.5285,-2124.1 88.7685,-2134.55 95.6679,-2133.37"/>
</g>
<!-- 17&#45;&gt;12 -->
<g id="edge48" class="edge"><title>17&#45;&gt;12</title>
<path fill="none" stroke="black" d="M522.51,-1584.41C516.286,-1575.87 508.571,-1565.28 501.656,-1555.79"/>
<polygon fill="black" stroke="black" points="504.313,-1553.49 495.596,-1547.47 498.656,-1557.61 504.313,-1553.49"/>
</g>
<!-- 26 -->
<g id="node27" class="node"><title>26</title>
<g id="a_node27"><a xlink:title="26, diversity: 1, multiplicities: 3, labels: 0">
<ellipse fill="#fee3d6" stroke="black" cx="584.596" cy="-1530" rx="41.6928" ry="18"/>
<text text-anchor="middle" x="584.596" y="-1526.3" font-family="Times,serif" font-size="14.00">26 (1): 0</text>
</a>
</g>
</g>
<!-- 17&#45;&gt;26 -->
<g id="edge49" class="edge"><title>17&#45;&gt;26</title>
<path fill="none" stroke="black" d="M546.446,-1584.41C552.548,-1575.87 560.112,-1565.28 566.891,-1555.79"/>
<polygon fill="black" stroke="black" points="569.868,-1557.64 572.832,-1547.47 564.172,-1553.57 569.868,-1557.64"/>
</g>
<!-- 18&#45;&gt;0 -->
<g id="edge2" class="edge"><title>18&#45;&gt;0</title>
<path fill="none" stroke="black" d="M336.596,-1727.7C336.596,-1719.98 336.596,-1710.71 336.596,-1702.11"/>
<polygon fill="black" stroke="black" points="340.096,-1702.1 336.596,-1692.1 333.096,-1702.1 340.096,-1702.1"/>
</g>
<!-- 19 -->
<g id="node20" class="node"><title>19</title>
<g id="a_node20"><a xlink:title="19, diversity: 1, multiplicities: 1, labels: 0">
<ellipse fill="#fff5f0" stroke="black" cx="584.596" cy="-1170" rx="41.6928" ry="18"/>
<text text-anchor="middle" x="584.596" y="-1166.3" font-family="Times,serif" font-size="14.00">19 (1): 0</text>
</a>
</g>
</g>
<!-- 22 -->
<g id="node23" class="node"><title>22</title>
<g id="a_node23"><a xlink:title="22, diversity: 1, multiplicities: 1, labels: 0">
<ellipse fill="#fff5f0" stroke="black" cx="584.596" cy="-1098" rx="41.6928" ry="18"/>
<text text-anchor="middle" x="584.596" y="-1094.3" font-family="Times,serif" font-size="14.00">22 (1): 0</text>
</a>
</g>
</g>
<!-- 19&#45;&gt;22 -->
<g id="edge10" class="edge"><title>19&#45;&gt;22</title>
<path fill="none" stroke="black" d="M584.596,-1151.7C584.596,-1143.98 584.596,-1134.71 584.596,-1126.11"/>
<polygon fill="black" stroke="black" points="588.096,-1126.1 584.596,-1116.1 581.096,-1126.1 588.096,-1126.1"/>
</g>
<!-- 20 -->
<g id="node21" class="node"><title>20</title>
<g id="a_node21"><a xlink:title="20, diversity: 1, multiplicities: 3, labels: 0">
<ellipse fill="#fee3d6" stroke="black" cx="235.596" cy="-1962" rx="41.6928" ry="18"/>
<text text-anchor="middle" x="235.596" y="-1958.3" font-family="Times,serif" font-size="14.00">20 (1): 0</text>
</a>
</g>
</g>
<!-- 32 -->
<g id="node33" class="node"><title>32</title>
<g id="a_node33"><a xlink:title="32, diversity: 1, multiplicities: 3, labels: 0">
<ellipse fill="#fee3d6" stroke="black" cx="235.596" cy="-1890" rx="41.6928" ry="18"/>
<text text-anchor="middle" x="235.596" y="-1886.3" font-family="Times,serif" font-size="14.00">32 (1): 0</text>
</a>
</g>
</g>
<!-- 20&#45;&gt;32 -->
<g id="edge31" class="edge"><title>20&#45;&gt;32</title>
<path fill="none" stroke="black" d="M235.596,-1943.7C235.596,-1935.98 235.596,-1926.71 235.596,-1918.11"/>
<polygon fill="black" stroke="black" points="239.096,-1918.1 235.596,-1908.1 232.096,-1918.1 239.096,-1918.1"/>
</g>
<!-- 21&#45;&gt;19 -->
<g id="edge24" class="edge"><title>21&#45;&gt;19</title>
<path fill="none" stroke="black" d="M584.596,-1223.7C584.596,-1215.98 584.596,-1206.71 584.596,-1198.11"/>
<polygon fill="black" stroke="black" points="588.096,-1198.1 584.596,-1188.1 581.096,-1198.1 588.096,-1198.1"/>
</g>
<!-- 37 -->
<g id="node38" class="node"><title>37</title>
<g id="a_node38"><a xlink:title="37, diversity: 1, multiplicities: 1, labels: 0">
<ellipse fill="#fff5f0" stroke="black" cx="584.596" cy="-1026" rx="41.6928" ry="18"/>
<text text-anchor="middle" x="584.596" y="-1022.3" font-family="Times,serif" font-size="14.00">37 (1): 0</text>
</a>
</g>
</g>
<!-- 22&#45;&gt;37 -->
<g id="edge6" class="edge"><title>22&#45;&gt;37</title>
<path fill="none" stroke="black" d="M584.596,-1079.7C584.596,-1071.98 584.596,-1062.71 584.596,-1054.11"/>
<polygon fill="black" stroke="black" points="588.096,-1054.1 584.596,-1044.1 581.096,-1054.1 588.096,-1054.1"/>
</g>
<!-- 23 -->
<g id="node24" class="node"><title>23</title>
<g id="a_node24"><a xlink:title="23, diversity: 1, multiplicities: 1, labels: 0">
<ellipse fill="#fff5f0" stroke="black" cx="152.596" cy="-2250" rx="41.6928" ry="18"/>
<text text-anchor="middle" x="152.596" y="-2246.3" font-family="Times,serif" font-size="14.00">23 (1): 0</text>
</a>
</g>
</g>
<!-- 23&#45;&gt;16 -->
<g id="edge26" class="edge"><title>23&#45;&gt;16</title>
<path fill="none" stroke="black" d="M140.304,-2232.76C133.776,-2224.14 125.615,-2213.36 118.318,-2203.73"/>
<polygon fill="black" stroke="black" points="121.017,-2201.49 112.19,-2195.63 115.436,-2205.72 121.017,-2201.49"/>
</g>
<!-- 38 -->
<g id="node39" class="node"><title>38</title>
<g id="a_node39"><a xlink:title="38, diversity: 1, multiplicities: 1, labels: 0">
<ellipse fill="#fff5f0" stroke="black" cx="206.596" cy="-2178" rx="41.6928" ry="18"/>
<text text-anchor="middle" x="206.596" y="-2174.3" font-family="Times,serif" font-size="14.00">38 (1): 0</text>
</a>
</g>
</g>
<!-- 23&#45;&gt;38 -->
<g id="edge34" class="edge"><title>23&#45;&gt;38</title>
<path fill="none" stroke="black" d="M165.121,-2232.76C171.772,-2224.14 180.086,-2213.36 187.521,-2203.73"/>
<polygon fill="black" stroke="black" points="190.428,-2205.69 193.765,-2195.63 184.886,-2201.41 190.428,-2205.69"/>
</g>
<!-- 30 -->
<g id="node31" class="node"><title>30</title>
<g id="a_node31"><a xlink:title="30, diversity: 1, multiplicities: 6, labels: 0">
<ellipse fill="#fcc4ad" stroke="black" cx="41.5963" cy="-2034" rx="41.6928" ry="18"/>
<text text-anchor="middle" x="41.5963" y="-2030.3" font-family="Times,serif" font-size="14.00">30 (1): 0</text>
</a>
</g>
</g>
<!-- 24&#45;&gt;30 -->
<g id="edge4" class="edge"><title>24&#45;&gt;30</title>
<path fill="none" stroke="black" d="M76.695,-2088.41C71.1381,-2079.95 64.264,-2069.49 58.0763,-2060.08"/>
<polygon fill="black" stroke="black" points="60.8362,-2057.9 52.4194,-2051.47 54.9863,-2061.75 60.8362,-2057.9"/>
</g>
<!-- 25 -->
<g id="node26" class="node"><title>25</title>
<g id="a_node26"><a xlink:title="25, diversity: 1, multiplicities: 4, labels: 0">
<ellipse fill="#fee3d6" stroke="black" cx="584.596" cy="-954" rx="41.6928" ry="18"/>
<text text-anchor="middle" x="584.596" y="-950.3" font-family="Times,serif" font-size="14.00">25 (1): 0</text>
</a>
</g>
</g>
<!-- 28 -->
<g id="node29" class="node"><title>28</title>
<g id="a_node29"><a xlink:title="28, diversity: 1, multiplicities: 4, labels: 0">
<ellipse fill="#fee3d6" stroke="black" cx="584.596" cy="-882" rx="41.6928" ry="18"/>
<text text-anchor="middle" x="584.596" y="-878.3" font-family="Times,serif" font-size="14.00">28 (1): 0</text>
</a>
</g>
</g>
<!-- 25&#45;&gt;28 -->
<g id="edge38" class="edge"><title>25&#45;&gt;28</title>
<path fill="none" stroke="black" d="M584.596,-935.697C584.596,-927.983 584.596,-918.712 584.596,-910.112"/>
<polygon fill="black" stroke="black" points="588.096,-910.104 584.596,-900.104 581.096,-910.104 588.096,-910.104"/>
</g>
<!-- 34 -->
<g id="node35" class="node"><title>34</title>
<g id="a_node35"><a xlink:title="34, diversity: 1, multiplicities: 1, labels: 0">
<ellipse fill="#fff5f0" stroke="black" cx="584.596" cy="-1458" rx="41.6928" ry="18"/>
<text text-anchor="middle" x="584.596" y="-1454.3" font-family="Times,serif" font-size="14.00">34 (1): 0</text>
</a>
</g>
</g>
<!-- 26&#45;&gt;34 -->
<g id="edge45" class="edge"><title>26&#45;&gt;34</title>
<path fill="none" stroke="black" d="M584.596,-1511.7C584.596,-1503.98 584.596,-1494.71 584.596,-1486.11"/>
<polygon fill="black" stroke="black" points="588.096,-1486.1 584.596,-1476.1 581.096,-1486.1 588.096,-1486.1"/>
</g>
<!-- 27 -->
<g id="node28" class="node"><title>27</title>
<g id="a_node28"><a xlink:title="27, diversity: 1, multiplicities: 5, labels: 0">
<ellipse fill="#fee3d6" stroke="black" cx="235.596" cy="-1746" rx="41.6928" ry="18"/>
<text text-anchor="middle" x="235.596" y="-1742.3" font-family="Times,serif" font-size="14.00">27 (1): 0</text>
</a>
</g>
</g>
<!-- 39 -->
<g id="node40" class="node"><title>39</title>
<g id="a_node40"><a xlink:title="39, diversity: 1, multiplicities: 1, labels: 0">
<ellipse fill="#fff5f0" stroke="black" cx="534.596" cy="-810" rx="41.6928" ry="18"/>
<text text-anchor="middle" x="534.596" y="-806.3" font-family="Times,serif" font-size="14.00">39 (1): 0</text>
</a>
</g>
</g>
<!-- 28&#45;&gt;39 -->
<g id="edge21" class="edge"><title>28&#45;&gt;39</title>
<path fill="none" stroke="black" d="M572.747,-864.411C566.645,-855.868 559.081,-845.278 552.302,-835.787"/>
<polygon fill="black" stroke="black" points="555.021,-833.573 546.361,-827.47 549.325,-837.642 555.021,-833.573"/>
</g>
<!-- 44 -->
<g id="node45" class="node"><title>44</title>
<g id="a_node45"><a xlink:title="44, diversity: 1, multiplicities: 1, labels: 0">
<ellipse fill="#fff5f0" stroke="black" cx="635.596" cy="-810" rx="41.6928" ry="18"/>
<text text-anchor="middle" x="635.596" y="-806.3" font-family="Times,serif" font-size="14.00">44 (1): 0</text>
</a>
</g>
</g>
<!-- 28&#45;&gt;44 -->
<g id="edge51" class="edge"><title>28&#45;&gt;44</title>
<path fill="none" stroke="black" d="M596.683,-864.411C602.907,-855.868 610.622,-845.278 617.537,-835.787"/>
<polygon fill="black" stroke="black" points="620.537,-837.613 623.597,-827.47 614.879,-833.491 620.537,-837.613"/>
</g>
<!-- 29 -->
<g id="node30" class="node"><title>29</title>
<g id="a_node30"><a xlink:title="29, diversity: 1, multiplicities: 4, labels: 0">
<ellipse fill="#fee3d6" stroke="black" cx="534.596" cy="-738" rx="41.6928" ry="18"/>
<text text-anchor="middle" x="534.596" y="-734.3" font-family="Times,serif" font-size="14.00">29 (1): 0</text>
</a>
</g>
</g>
<!-- 29&#45;&gt;15 -->
<g id="edge35" class="edge"><title>29&#45;&gt;15</title>
<path fill="none" stroke="black" d="M534.596,-719.697C534.596,-711.983 534.596,-702.712 534.596,-694.112"/>
<polygon fill="black" stroke="black" points="538.096,-694.104 534.596,-684.104 531.096,-694.104 538.096,-694.104"/>
</g>
<!-- 31 -->
<g id="node32" class="node"><title>31</title>
<g id="a_node32"><a xlink:title="31, diversity: 1, multiplicities: 1, labels: 0">
<ellipse fill="#fff5f0" stroke="black" cx="235.596" cy="-1818" rx="41.6928" ry="18"/>
<text text-anchor="middle" x="235.596" y="-1814.3" font-family="Times,serif" font-size="14.00">31 (1): 0</text>
</a>
</g>
</g>
<!-- 31&#45;&gt;27 -->
<g id="edge46" class="edge"><title>31&#45;&gt;27</title>
<path fill="none" stroke="black" d="M235.596,-1799.7C235.596,-1791.98 235.596,-1782.71 235.596,-1774.11"/>
<polygon fill="black" stroke="black" points="239.096,-1774.1 235.596,-1764.1 232.096,-1774.1 239.096,-1774.1"/>
</g>
<!-- 32&#45;&gt;31 -->
<g id="edge50" class="edge"><title>32&#45;&gt;31</title>
<path fill="none" stroke="black" d="M235.596,-1871.7C235.596,-1863.98 235.596,-1854.71 235.596,-1846.11"/>
<polygon fill="black" stroke="black" points="239.096,-1846.1 235.596,-1836.1 232.096,-1846.1 239.096,-1846.1"/>
</g>
<!-- 33 -->
<g id="node34" class="node"><title>33</title>
<g id="a_node34"><a xlink:title="33, diversity: 1, multiplicities: 1, labels: 0">
<ellipse fill="#fff5f0" stroke="black" cx="336.596" cy="-1962" rx="41.6928" ry="18"/>
<text text-anchor="middle" x="336.596" y="-1958.3" font-family="Times,serif" font-size="14.00">33 (1): 0</text>
</a>
</g>
</g>
<!-- 33&#45;&gt;8 -->
<g id="edge7" class="edge"><title>33&#45;&gt;8</title>
<path fill="none" stroke="black" d="M336.596,-1943.7C336.596,-1935.98 336.596,-1926.71 336.596,-1918.11"/>
<polygon fill="black" stroke="black" points="340.096,-1918.1 336.596,-1908.1 333.096,-1918.1 340.096,-1918.1"/>
</g>
<!-- 34&#45;&gt;7 -->
<g id="edge1" class="edge"><title>34&#45;&gt;7</title>
<path fill="none" stroke="black" d="M584.596,-1439.7C584.596,-1431.98 584.596,-1422.71 584.596,-1414.11"/>
<polygon fill="black" stroke="black" points="588.096,-1414.1 584.596,-1404.1 581.096,-1414.1 588.096,-1414.1"/>
</g>
<!-- 35&#45;&gt;20 -->
<g id="edge30" class="edge"><title>35&#45;&gt;20</title>
<path fill="none" stroke="black" d="M235.596,-2015.7C235.596,-2007.98 235.596,-1998.71 235.596,-1990.11"/>
<polygon fill="black" stroke="black" points="239.096,-1990.1 235.596,-1980.1 232.096,-1990.1 239.096,-1990.1"/>
</g>
<!-- 36&#45;&gt;33 -->
<g id="edge42" class="edge"><title>36&#45;&gt;33</title>
<path fill="none" stroke="black" d="M336.596,-2015.7C336.596,-2007.98 336.596,-1998.71 336.596,-1990.11"/>
<polygon fill="black" stroke="black" points="340.096,-1990.1 336.596,-1980.1 333.096,-1990.1 340.096,-1990.1"/>
</g>
<!-- 37&#45;&gt;25 -->
<g id="edge41" class="edge"><title>37&#45;&gt;25</title>
<path fill="none" stroke="black" d="M584.596,-1007.7C584.596,-999.983 584.596,-990.712 584.596,-982.112"/>
<polygon fill="black" stroke="black" points="588.096,-982.104 584.596,-972.104 581.096,-982.104 588.096,-982.104"/>
</g>
<!-- 38&#45;&gt;3 -->
<g id="edge32" class="edge"><title>38&#45;&gt;3</title>
<path fill="none" stroke="black" d="M212.164,-2160.05C214.753,-2152.18 217.894,-2142.62 220.793,-2133.79"/>
<polygon fill="black" stroke="black" points="224.124,-2134.87 223.92,-2124.28 217.473,-2132.68 224.124,-2134.87"/>
</g>
<!-- 39&#45;&gt;29 -->
<g id="edge22" class="edge"><title>39&#45;&gt;29</title>
<path fill="none" stroke="black" d="M534.596,-791.697C534.596,-783.983 534.596,-774.712 534.596,-766.112"/>
<polygon fill="black" stroke="black" points="538.096,-766.104 534.596,-756.104 531.096,-766.104 538.096,-766.104"/>
</g>
<!-- 40 -->
<g id="node41" class="node"><title>40</title>
<g id="a_node41"><a xlink:title="40, diversity: 4, multiplicities: 1,10,16,235, labels: 0">
<ellipse fill="#f6553c" stroke="black" cx="635.596" cy="-306" rx="41.6928" ry="18"/>
<text text-anchor="middle" x="635.596" y="-302.3" font-family="Times,serif" font-size="14.00">40 (4): 0</text>
</a>
</g>
</g>
<!-- 43 -->
<g id="node44" class="node"><title>43</title>
<g id="a_node44"><a xlink:title="43, diversity: 1, multiplicities: 28, labels: 0">
<ellipse fill="#fca082" stroke="black" cx="534.596" cy="-234" rx="41.6928" ry="18"/>
<text text-anchor="middle" x="534.596" y="-230.3" font-family="Times,serif" font-size="14.00">43 (1): 0</text>
</a>
</g>
</g>
<!-- 40&#45;&gt;43 -->
<g id="edge28" class="edge"><title>40&#45;&gt;43</title>
<path fill="none" stroke="black" d="M614.177,-290.155C599.617,-280.064 580.165,-266.583 564.138,-255.474"/>
<polygon fill="black" stroke="black" points="565.851,-252.403 555.639,-249.584 561.864,-258.157 565.851,-252.403"/>
</g>
<!-- 50 -->
<g id="node51" class="node"><title>50</title>
<g id="a_node51"><a xlink:title="50, diversity: 1, multiplicities: 5, labels: 0">
<ellipse fill="#fee3d6" stroke="black" cx="635.596" cy="-234" rx="41.6928" ry="18"/>
<text text-anchor="middle" x="635.596" y="-230.3" font-family="Times,serif" font-size="14.00">50 (1): 0</text>
</a>
</g>
</g>
<!-- 40&#45;&gt;50 -->
<g id="edge47" class="edge"><title>40&#45;&gt;50</title>
<path fill="none" stroke="black" d="M635.596,-287.697C635.596,-279.983 635.596,-270.712 635.596,-262.112"/>
<polygon fill="black" stroke="black" points="639.096,-262.104 635.596,-252.104 632.096,-262.104 639.096,-262.104"/>
</g>
<!-- 51 -->
<g id="node52" class="node"><title>51</title>
<g id="a_node52"><a xlink:title="51, diversity: 1, multiplicities: 1, labels: 0">
<ellipse fill="#fff5f0" stroke="black" cx="736.596" cy="-234" rx="41.6928" ry="18"/>
<text text-anchor="middle" x="736.596" y="-230.3" font-family="Times,serif" font-size="14.00">51 (1): 0</text>
</a>
</g>
</g>
<!-- 40&#45;&gt;51 -->
<g id="edge44" class="edge"><title>40&#45;&gt;51</title>
<path fill="none" stroke="black" d="M657.016,-290.155C671.575,-280.064 691.027,-266.583 707.055,-255.474"/>
<polygon fill="black" stroke="black" points="709.329,-258.157 715.554,-249.584 705.341,-252.403 709.329,-258.157"/>
</g>
<!-- 41 -->
<g id="node42" class="node"><title>41</title>
<g id="a_node42"><a xlink:title="41, diversity: 1, multiplicities: 1, labels: 0">
<ellipse fill="#fff5f0" stroke="black" cx="635.596" cy="-738" rx="41.6928" ry="18"/>
<text text-anchor="middle" x="635.596" y="-734.3" font-family="Times,serif" font-size="14.00">41 (1): 0</text>
</a>
</g>
</g>
<!-- 52 -->
<g id="node53" class="node"><title>52</title>
<g id="a_node53"><a xlink:title="52, diversity: 1, multiplicities: 1, labels: 0">
<ellipse fill="#fff5f0" stroke="black" cx="635.596" cy="-666" rx="41.6928" ry="18"/>
<text text-anchor="middle" x="635.596" y="-662.3" font-family="Times,serif" font-size="14.00">52 (1): 0</text>
</a>
</g>
</g>
<!-- 41&#45;&gt;52 -->
<g id="edge27" class="edge"><title>41&#45;&gt;52</title>
<path fill="none" stroke="black" d="M635.596,-719.697C635.596,-711.983 635.596,-702.712 635.596,-694.112"/>
<polygon fill="black" stroke="black" points="639.096,-694.104 635.596,-684.104 632.096,-694.104 639.096,-694.104"/>
</g>
<!-- 42 -->
<g id="node43" class="node"><title>42</title>
<g id="a_node43"><a xlink:title="42, diversity: 1, multiplicities: 1, labels: 0">
<ellipse fill="#fff5f0" stroke="black" cx="635.596" cy="-378" rx="41.6928" ry="18"/>
<text text-anchor="middle" x="635.596" y="-374.3" font-family="Times,serif" font-size="14.00">42 (1): 0</text>
</a>
</g>
</g>
<!-- 42&#45;&gt;40 -->
<g id="edge14" class="edge"><title>42&#45;&gt;40</title>
<path fill="none" stroke="black" d="M635.596,-359.697C635.596,-351.983 635.596,-342.712 635.596,-334.112"/>
<polygon fill="black" stroke="black" points="639.096,-334.104 635.596,-324.104 632.096,-334.104 639.096,-334.104"/>
</g>
<!-- 44&#45;&gt;41 -->
<g id="edge16" class="edge"><title>44&#45;&gt;41</title>
<path fill="none" stroke="black" d="M635.596,-791.697C635.596,-783.983 635.596,-774.712 635.596,-766.112"/>
<polygon fill="black" stroke="black" points="639.096,-766.104 635.596,-756.104 632.096,-766.104 639.096,-766.104"/>
</g>
<!-- 45 -->
<g id="node46" class="node"><title>45</title>
<g id="a_node46"><a xlink:title="45, diversity: 1, multiplicities: 1, labels: 0">
<ellipse fill="#fff5f0" stroke="black" cx="635.596" cy="-522" rx="41.6928" ry="18"/>
<text text-anchor="middle" x="635.596" y="-518.3" font-family="Times,serif" font-size="14.00">45 (1): 0</text>
</a>
</g>
</g>
<!-- 48 -->
<g id="node49" class="node"><title>48</title>
<g id="a_node49"><a xlink:title="48, diversity: 1, multiplicities: 2, labels: 0">
<ellipse fill="#fee3d6" stroke="black" cx="635.596" cy="-450" rx="41.6928" ry="18"/>
<text text-anchor="middle" x="635.596" y="-446.3" font-family="Times,serif" font-size="14.00">48 (1): 0</text>
</a>
</g>
</g>
<!-- 45&#45;&gt;48 -->
<g id="edge18" class="edge"><title>45&#45;&gt;48</title>
<path fill="none" stroke="black" d="M635.596,-503.697C635.596,-495.983 635.596,-486.712 635.596,-478.112"/>
<polygon fill="black" stroke="black" points="639.096,-478.104 635.596,-468.104 632.096,-478.104 639.096,-478.104"/>
</g>
<!-- 46 -->
<g id="node47" class="node"><title>46</title>
<g id="a_node47"><a xlink:title="46, diversity: 2, multiplicities: 1,1, labels: 0">
<ellipse fill="#fee3d6" stroke="black" cx="736.596" cy="-90" rx="41.6928" ry="18"/>
<text text-anchor="middle" x="736.596" y="-86.3" font-family="Times,serif" font-size="14.00">46 (2): 0</text>
</a>
</g>
</g>
<!-- 53 -->
<g id="node54" class="node"><title>53</title>
<g id="a_node54"><a xlink:title="53, diversity: 4, multiplicities: 2,4,9,114, labels: 0">
<ellipse fill="#fb7c5c" stroke="black" cx="736.596" cy="-18" rx="41.6928" ry="18"/>
<text text-anchor="middle" x="736.596" y="-14.3" font-family="Times,serif" font-size="14.00">53 (4): 0</text>
</a>
</g>
</g>
<!-- 46&#45;&gt;53 -->
<g id="edge20" class="edge"><title>46&#45;&gt;53</title>
<path fill="none" stroke="black" d="M736.596,-71.6966C736.596,-63.9827 736.596,-54.7125 736.596,-46.1124"/>
<polygon fill="black" stroke="black" points="740.096,-46.1043 736.596,-36.1043 733.096,-46.1044 740.096,-46.1043"/>
</g>
<!-- 47 -->
<g id="node48" class="node"><title>47</title>
<g id="a_node48"><a xlink:title="47, diversity: 1, multiplicities: 2, labels: 0">
<ellipse fill="#fee3d6" stroke="black" cx="635.596" cy="-594" rx="41.6928" ry="18"/>
<text text-anchor="middle" x="635.596" y="-590.3" font-family="Times,serif" font-size="14.00">47 (1): 0</text>
</a>
</g>
</g>
<!-- 47&#45;&gt;45 -->
<g id="edge25" class="edge"><title>47&#45;&gt;45</title>
<path fill="none" stroke="black" d="M635.596,-575.697C635.596,-567.983 635.596,-558.712 635.596,-550.112"/>
<polygon fill="black" stroke="black" points="639.096,-550.104 635.596,-540.104 632.096,-550.104 639.096,-550.104"/>
</g>
<!-- 48&#45;&gt;42 -->
<g id="edge40" class="edge"><title>48&#45;&gt;42</title>
<path fill="none" stroke="black" d="M635.596,-431.697C635.596,-423.983 635.596,-414.712 635.596,-406.112"/>
<polygon fill="black" stroke="black" points="639.096,-406.104 635.596,-396.104 632.096,-406.104 639.096,-406.104"/>
</g>
<!-- 49 -->
<g id="node50" class="node"><title>49</title>
<g id="a_node50"><a xlink:title="49, diversity: 1, multiplicities: 1, labels: 0">
<ellipse fill="#fff5f0" stroke="black" cx="736.596" cy="-162" rx="41.6928" ry="18"/>
<text text-anchor="middle" x="736.596" y="-158.3" font-family="Times,serif" font-size="14.00">49 (1): 0</text>
</a>
</g>
</g>
<!-- 49&#45;&gt;46 -->
<g id="edge23" class="edge"><title>49&#45;&gt;46</title>
<path fill="none" stroke="black" d="M736.596,-143.697C736.596,-135.983 736.596,-126.712 736.596,-118.112"/>
<polygon fill="black" stroke="black" points="740.096,-118.104 736.596,-108.104 733.096,-118.104 740.096,-118.104"/>
</g>
<!-- 51&#45;&gt;49 -->
<g id="edge29" class="edge"><title>51&#45;&gt;49</title>
<path fill="none" stroke="black" d="M736.596,-215.697C736.596,-207.983 736.596,-198.712 736.596,-190.112"/>
<polygon fill="black" stroke="black" points="740.096,-190.104 736.596,-180.104 733.096,-190.104 740.096,-190.104"/>
</g>
<!-- 52&#45;&gt;47 -->
<g id="edge37" class="edge"><title>52&#45;&gt;47</title>
<path fill="none" stroke="black" d="M635.596,-647.697C635.596,-639.983 635.596,-630.712 635.596,-622.112"/>
<polygon fill="black" stroke="black" points="639.096,-622.104 635.596,-612.104 632.096,-622.104 639.096,-622.104"/>
</g>
</g>
</svg>
