<?xml version="1.0" encoding="UTF-8" standalone="no"?>
<!DOCTYPE svg PUBLIC "-//W3C//DTD SVG 1.1//EN"
 "http://www.w3.org/Graphics/SVG/1.1/DTD/svg11.dtd">
<!-- Generated by graphviz version 2.38.0 (20140413.2041)
 -->
<!-- Title: %3 Pages: 1 -->
<svg width="484pt" height="836pt"
 viewBox="0.00 0.00 484.19 836.00" xmlns="http://www.w3.org/2000/svg" xmlns:xlink="http://www.w3.org/1999/xlink">
<g id="graph0" class="graph" transform="scale(1 1) rotate(0) translate(4 832)">
<title>%3</title>
<polygon fill="white" stroke="none" points="-4,4 -4,-832 480.193,-832 480.193,4 -4,4"/>
<!-- 0 -->
<g id="node1" class="node"><title>0</title>
<g id="a_node1"><a xlink:title="0, diversity: 1, multiplicities: 152, labels: 0">
<ellipse fill="#fb7c5c" stroke="black" cx="333.596" cy="-810" rx="37.0935" ry="18"/>
<text text-anchor="middle" x="333.596" y="-806.3" font-family="Times,serif" font-size="14.00">0 (1): 0</text>
</a>
</g>
</g>
<!-- 2 -->
<g id="node3" class="node"><title>2</title>
<g id="a_node3"><a xlink:title="2, diversity: 2, multiplicities: 2,104, labels: 0">
<ellipse fill="#fb7c5c" stroke="black" cx="333.596" cy="-738" rx="37.0935" ry="18"/>
<text text-anchor="middle" x="333.596" y="-734.3" font-family="Times,serif" font-size="14.00">2 (2): 0</text>
</a>
</g>
</g>
<!-- 0&#45;&gt;2 -->
<g id="edge23" class="edge"><title>0&#45;&gt;2</title>
<path fill="none" stroke="black" d="M333.596,-791.697C333.596,-783.983 333.596,-774.712 333.596,-766.112"/>
<polygon fill="black" stroke="black" points="337.096,-766.104 333.596,-756.104 330.096,-766.104 337.096,-766.104"/>
</g>
<!-- 1 -->
<g id="node2" class="node"><title>1</title>
<g id="a_node2"><a xlink:title="1, diversity: 1, multiplicities: 28, labels: 0">
<ellipse fill="#fca082" stroke="black" cx="142.596" cy="-90" rx="37.0935" ry="18"/>
<text text-anchor="middle" x="142.596" y="-86.3" font-family="Times,serif" font-size="14.00">1 (1): 0</text>
</a>
</g>
</g>
<!-- 3 -->
<g id="node4" class="node"><title>3</title>
<g id="a_node4"><a xlink:title="3, diversity: 2, multiplicities: 1,4, labels: 0">
<ellipse fill="#fee3d6" stroke="black" cx="333.596" cy="-666" rx="37.0935" ry="18"/>
<text text-anchor="middle" x="333.596" y="-662.3" font-family="Times,serif" font-size="14.00">3 (2): 0</text>
</a>
</g>
</g>
<!-- 2&#45;&gt;3 -->
<g id="edge13" class="edge"><title>2&#45;&gt;3</title>
<path fill="none" stroke="black" d="M333.596,-719.697C333.596,-711.983 333.596,-702.712 333.596,-694.112"/>
<polygon fill="black" stroke="black" points="337.096,-694.104 333.596,-684.104 330.096,-694.104 337.096,-694.104"/>
</g>
<!-- 15 -->
<g id="node16" class="node"><title>15</title>
<g id="a_node16"><a xlink:title="15, diversity: 3, multiplicities: 1,1,3, labels: 0">
<ellipse fill="#fee3d6" stroke="black" cx="333.596" cy="-594" rx="41.6928" ry="18"/>
<text text-anchor="middle" x="333.596" y="-590.3" font-family="Times,serif" font-size="14.00">15 (3): 0</text>
</a>
</g>
</g>
<!-- 3&#45;&gt;15 -->
<g id="edge2" class="edge"><title>3&#45;&gt;15</title>
<path fill="none" stroke="black" d="M333.596,-647.697C333.596,-639.983 333.596,-630.712 333.596,-622.112"/>
<polygon fill="black" stroke="black" points="337.096,-622.104 333.596,-612.104 330.096,-622.104 337.096,-622.104"/>
</g>
<!-- 4 -->
<g id="node5" class="node"><title>4</title>
<g id="a_node5"><a xlink:title="4, diversity: 1, multiplicities: 2, labels: 0">
<ellipse fill="#fee3d6" stroke="black" cx="335.596" cy="-234" rx="37.0935" ry="18"/>
<text text-anchor="middle" x="335.596" y="-230.3" font-family="Times,serif" font-size="14.00">4 (1): 0</text>
</a>
</g>
</g>
<!-- 7 -->
<g id="node8" class="node"><title>7</title>
<g id="a_node8"><a xlink:title="7, diversity: 1, multiplicities: 12, labels: 0">
<ellipse fill="#fca082" stroke="black" cx="340.596" cy="-162" rx="37.0935" ry="18"/>
<text text-anchor="middle" x="340.596" y="-158.3" font-family="Times,serif" font-size="14.00">7 (1): 0</text>
</a>
</g>
</g>
<!-- 4&#45;&gt;7 -->
<g id="edge3" class="edge"><title>4&#45;&gt;7</title>
<path fill="none" stroke="black" d="M336.832,-215.697C337.383,-207.983 338.045,-198.712 338.66,-190.112"/>
<polygon fill="black" stroke="black" points="342.153,-190.328 339.375,-180.104 335.171,-189.83 342.153,-190.328"/>
</g>
<!-- 5 -->
<g id="node6" class="node"><title>5</title>
<g id="a_node6"><a xlink:title="5, diversity: 1, multiplicities: 33, labels: 0">
<ellipse fill="#fca082" stroke="black" cx="434.596" cy="-18" rx="37.0935" ry="18"/>
<text text-anchor="middle" x="434.596" y="-14.3" font-family="Times,serif" font-size="14.00">5 (1): 0</text>
</a>
</g>
</g>
<!-- 6 -->
<g id="node7" class="node"><title>6</title>
<g id="a_node7"><a xlink:title="6, diversity: 3, multiplicities: 1,1,1, labels: 0">
<ellipse fill="#fee3d6" stroke="black" cx="189.596" cy="-306" rx="37.0935" ry="18"/>
<text text-anchor="middle" x="189.596" y="-302.3" font-family="Times,serif" font-size="14.00">6 (3): 0</text>
</a>
</g>
</g>
<!-- 10 -->
<g id="node11" class="node"><title>10</title>
<g id="a_node11"><a xlink:title="10, diversity: 2, multiplicities: 1,5, labels: 0">
<ellipse fill="#fcc4ad" stroke="black" cx="64.5963" cy="-234" rx="41.6928" ry="18"/>
<text text-anchor="middle" x="64.5963" y="-230.3" font-family="Times,serif" font-size="14.00">10 (2): 0</text>
</a>
</g>
</g>
<!-- 6&#45;&gt;10 -->
<g id="edge8" class="edge"><title>6&#45;&gt;10</title>
<path fill="none" stroke="black" d="M166.085,-291.834C146.902,-281.091 119.559,-265.779 98.0873,-253.755"/>
<polygon fill="black" stroke="black" points="99.7205,-250.658 89.2853,-248.826 96.3002,-256.766 99.7205,-250.658"/>
</g>
<!-- 13 -->
<g id="node14" class="node"><title>13</title>
<g id="a_node14"><a xlink:title="13, diversity: 1, multiplicities: 5, labels: 0">
<ellipse fill="#fee3d6" stroke="black" cx="189.596" cy="-234" rx="41.6928" ry="18"/>
<text text-anchor="middle" x="189.596" y="-230.3" font-family="Times,serif" font-size="14.00">13 (1): 0</text>
</a>
</g>
</g>
<!-- 6&#45;&gt;13 -->
<g id="edge22" class="edge"><title>6&#45;&gt;13</title>
<path fill="none" stroke="black" d="M189.596,-287.697C189.596,-279.983 189.596,-270.712 189.596,-262.112"/>
<polygon fill="black" stroke="black" points="193.096,-262.104 189.596,-252.104 186.096,-262.104 193.096,-262.104"/>
</g>
<!-- 8 -->
<g id="node9" class="node"><title>8</title>
<g id="a_node9"><a xlink:title="8, diversity: 1, multiplicities: 1, labels: 0">
<ellipse fill="#fff5f0" stroke="black" cx="434.596" cy="-162" rx="37.0935" ry="18"/>
<text text-anchor="middle" x="434.596" y="-158.3" font-family="Times,serif" font-size="14.00">8 (1): 0</text>
</a>
</g>
</g>
<!-- 23 -->
<g id="node24" class="node"><title>23</title>
<g id="a_node24"><a xlink:title="23, diversity: 1, multiplicities: 1, labels: 0">
<ellipse fill="#fff5f0" stroke="black" cx="434.596" cy="-90" rx="41.6928" ry="18"/>
<text text-anchor="middle" x="434.596" y="-86.3" font-family="Times,serif" font-size="14.00">23 (1): 0</text>
</a>
</g>
</g>
<!-- 8&#45;&gt;23 -->
<g id="edge4" class="edge"><title>8&#45;&gt;23</title>
<path fill="none" stroke="black" d="M434.596,-143.697C434.596,-135.983 434.596,-126.712 434.596,-118.112"/>
<polygon fill="black" stroke="black" points="438.096,-118.104 434.596,-108.104 431.096,-118.104 438.096,-118.104"/>
</g>
<!-- 9 -->
<g id="node10" class="node"><title>9</title>
<g id="a_node10"><a xlink:title="9, diversity: 1, multiplicities: 7, labels: 0">
<ellipse fill="#fcc4ad" stroke="black" cx="333.596" cy="-378" rx="37.0935" ry="18"/>
<text text-anchor="middle" x="333.596" y="-374.3" font-family="Times,serif" font-size="14.00">9 (1): 0</text>
</a>
</g>
</g>
<!-- 9&#45;&gt;6 -->
<g id="edge14" class="edge"><title>9&#45;&gt;6</title>
<path fill="none" stroke="black" d="M308.183,-364.647C284.741,-353.251 249.751,-336.242 223.849,-323.65"/>
<polygon fill="black" stroke="black" points="225.279,-320.454 214.755,-319.23 222.219,-326.75 225.279,-320.454"/>
</g>
<!-- 18 -->
<g id="node19" class="node"><title>18</title>
<g id="a_node19"><a xlink:title="18, diversity: 2, multiplicities: 1,1, labels: 0">
<ellipse fill="#fee3d6" stroke="black" cx="333.596" cy="-306" rx="41.6928" ry="18"/>
<text text-anchor="middle" x="333.596" y="-302.3" font-family="Times,serif" font-size="14.00">18 (2): 0</text>
</a>
</g>
</g>
<!-- 9&#45;&gt;18 -->
<g id="edge7" class="edge"><title>9&#45;&gt;18</title>
<path fill="none" stroke="black" d="M333.596,-359.697C333.596,-351.983 333.596,-342.712 333.596,-334.112"/>
<polygon fill="black" stroke="black" points="337.096,-334.104 333.596,-324.104 330.096,-334.104 337.096,-334.104"/>
</g>
<!-- 20 -->
<g id="node21" class="node"><title>20</title>
<g id="a_node21"><a xlink:title="20, diversity: 2, multiplicities: 1,2, labels: 0">
<ellipse fill="#fee3d6" stroke="black" cx="434.596" cy="-306" rx="41.6928" ry="18"/>
<text text-anchor="middle" x="434.596" y="-302.3" font-family="Times,serif" font-size="14.00">20 (2): 0</text>
</a>
</g>
</g>
<!-- 9&#45;&gt;20 -->
<g id="edge11" class="edge"><title>9&#45;&gt;20</title>
<path fill="none" stroke="black" d="M354.035,-362.834C368.626,-352.722 388.48,-338.962 404.827,-327.632"/>
<polygon fill="black" stroke="black" points="407.267,-330.199 413.493,-321.626 403.28,-324.446 407.267,-330.199"/>
</g>
<!-- 19 -->
<g id="node20" class="node"><title>19</title>
<g id="a_node20"><a xlink:title="19, diversity: 1, multiplicities: 3, labels: 0">
<ellipse fill="#fee3d6" stroke="black" cx="41.5963" cy="-162" rx="41.6928" ry="18"/>
<text text-anchor="middle" x="41.5963" y="-158.3" font-family="Times,serif" font-size="14.00">19 (1): 0</text>
</a>
</g>
</g>
<!-- 10&#45;&gt;19 -->
<g id="edge12" class="edge"><title>10&#45;&gt;19</title>
<path fill="none" stroke="black" d="M59.0287,-216.055C56.4399,-208.176 53.2989,-198.617 50.4001,-189.794"/>
<polygon fill="black" stroke="black" points="53.7192,-188.683 47.2725,-180.275 47.069,-190.868 53.7192,-188.683"/>
</g>
<!-- 11 -->
<g id="node12" class="node"><title>11</title>
<g id="a_node12"><a xlink:title="11, diversity: 4, multiplicities: 1,1,1,30, labels: 0">
<ellipse fill="#fca082" stroke="black" cx="434.596" cy="-234" rx="41.6928" ry="18"/>
<text text-anchor="middle" x="434.596" y="-230.3" font-family="Times,serif" font-size="14.00">11 (4): 0</text>
</a>
</g>
</g>
<!-- 11&#45;&gt;8 -->
<g id="edge17" class="edge"><title>11&#45;&gt;8</title>
<path fill="none" stroke="black" d="M434.596,-215.697C434.596,-207.983 434.596,-198.712 434.596,-190.112"/>
<polygon fill="black" stroke="black" points="438.096,-190.104 434.596,-180.104 431.096,-190.104 438.096,-190.104"/>
</g>
<!-- 12 -->
<g id="node13" class="node"><title>12</title>
<g id="a_node13"><a xlink:title="12, diversity: 1, multiplicities: 5, labels: 0">
<ellipse fill="#fee3d6" stroke="black" cx="41.5963" cy="-90" rx="41.6928" ry="18"/>
<text text-anchor="middle" x="41.5963" y="-86.3" font-family="Times,serif" font-size="14.00">12 (1): 0</text>
</a>
</g>
</g>
<!-- 16 -->
<g id="node17" class="node"><title>16</title>
<g id="a_node17"><a xlink:title="16, diversity: 1, multiplicities: 1, labels: 0">
<ellipse fill="#fff5f0" stroke="black" cx="142.596" cy="-162" rx="41.6928" ry="18"/>
<text text-anchor="middle" x="142.596" y="-158.3" font-family="Times,serif" font-size="14.00">16 (1): 0</text>
</a>
</g>
</g>
<!-- 13&#45;&gt;16 -->
<g id="edge9" class="edge"><title>13&#45;&gt;16</title>
<path fill="none" stroke="black" d="M178.458,-216.411C172.722,-207.868 165.612,-197.278 159.239,-187.787"/>
<polygon fill="black" stroke="black" points="162.135,-185.821 153.655,-179.47 156.323,-189.723 162.135,-185.821"/>
</g>
<!-- 22 -->
<g id="node23" class="node"><title>22</title>
<g id="a_node23"><a xlink:title="22, diversity: 1, multiplicities: 1, labels: 0">
<ellipse fill="#fff5f0" stroke="black" cx="243.596" cy="-162" rx="41.6928" ry="18"/>
<text text-anchor="middle" x="243.596" y="-158.3" font-family="Times,serif" font-size="14.00">22 (1): 0</text>
</a>
</g>
</g>
<!-- 13&#45;&gt;22 -->
<g id="edge1" class="edge"><title>13&#45;&gt;22</title>
<path fill="none" stroke="black" d="M202.121,-216.765C208.772,-208.143 217.086,-197.365 224.521,-187.727"/>
<polygon fill="black" stroke="black" points="227.428,-189.689 230.765,-179.633 221.886,-185.413 227.428,-189.689"/>
</g>
<!-- 14 -->
<g id="node15" class="node"><title>14</title>
<g id="a_node15"><a xlink:title="14, diversity: 1, multiplicities: 9, labels: 0">
<ellipse fill="#fcc4ad" stroke="black" cx="243.596" cy="-90" rx="41.6928" ry="18"/>
<text text-anchor="middle" x="243.596" y="-86.3" font-family="Times,serif" font-size="14.00">14 (1): 0</text>
</a>
</g>
</g>
<!-- 17 -->
<g id="node18" class="node"><title>17</title>
<g id="a_node18"><a xlink:title="17, diversity: 1, multiplicities: 3, labels: 0">
<ellipse fill="#fee3d6" stroke="black" cx="333.596" cy="-522" rx="41.6928" ry="18"/>
<text text-anchor="middle" x="333.596" y="-518.3" font-family="Times,serif" font-size="14.00">17 (1): 0</text>
</a>
</g>
</g>
<!-- 15&#45;&gt;17 -->
<g id="edge15" class="edge"><title>15&#45;&gt;17</title>
<path fill="none" stroke="black" d="M333.596,-575.697C333.596,-567.983 333.596,-558.712 333.596,-550.112"/>
<polygon fill="black" stroke="black" points="337.096,-550.104 333.596,-540.104 330.096,-550.104 337.096,-550.104"/>
</g>
<!-- 16&#45;&gt;1 -->
<g id="edge19" class="edge"><title>16&#45;&gt;1</title>
<path fill="none" stroke="black" d="M142.596,-143.697C142.596,-135.983 142.596,-126.712 142.596,-118.112"/>
<polygon fill="black" stroke="black" points="146.096,-118.104 142.596,-108.104 139.096,-118.104 146.096,-118.104"/>
</g>
<!-- 21 -->
<g id="node22" class="node"><title>21</title>
<g id="a_node22"><a xlink:title="21, diversity: 1, multiplicities: 1, labels: 0">
<ellipse fill="#fff5f0" stroke="black" cx="333.596" cy="-450" rx="41.6928" ry="18"/>
<text text-anchor="middle" x="333.596" y="-446.3" font-family="Times,serif" font-size="14.00">21 (1): 0</text>
</a>
</g>
</g>
<!-- 17&#45;&gt;21 -->
<g id="edge20" class="edge"><title>17&#45;&gt;21</title>
<path fill="none" stroke="black" d="M333.596,-503.697C333.596,-495.983 333.596,-486.712 333.596,-478.112"/>
<polygon fill="black" stroke="black" points="337.096,-478.104 333.596,-468.104 330.096,-478.104 337.096,-478.104"/>
</g>
<!-- 18&#45;&gt;4 -->
<g id="edge5" class="edge"><title>18&#45;&gt;4</title>
<path fill="none" stroke="black" d="M334.091,-287.697C334.311,-279.983 334.576,-270.712 334.822,-262.112"/>
<polygon fill="black" stroke="black" points="338.32,-262.2 335.108,-252.104 331.323,-262 338.32,-262.2"/>
</g>
<!-- 19&#45;&gt;12 -->
<g id="edge21" class="edge"><title>19&#45;&gt;12</title>
<path fill="none" stroke="black" d="M41.5963,-143.697C41.5963,-135.983 41.5963,-126.712 41.5963,-118.112"/>
<polygon fill="black" stroke="black" points="45.0964,-118.104 41.5963,-108.104 38.0964,-118.104 45.0964,-118.104"/>
</g>
<!-- 20&#45;&gt;11 -->
<g id="edge18" class="edge"><title>20&#45;&gt;11</title>
<path fill="none" stroke="black" d="M434.596,-287.697C434.596,-279.983 434.596,-270.712 434.596,-262.112"/>
<polygon fill="black" stroke="black" points="438.096,-262.104 434.596,-252.104 431.096,-262.104 438.096,-262.104"/>
</g>
<!-- 21&#45;&gt;9 -->
<g id="edge6" class="edge"><title>21&#45;&gt;9</title>
<path fill="none" stroke="black" d="M333.596,-431.697C333.596,-423.983 333.596,-414.712 333.596,-406.112"/>
<polygon fill="black" stroke="black" points="337.096,-406.104 333.596,-396.104 330.096,-406.104 337.096,-406.104"/>
</g>
<!-- 22&#45;&gt;14 -->
<g id="edge10" class="edge"><title>22&#45;&gt;14</title>
<path fill="none" stroke="black" d="M243.596,-143.697C243.596,-135.983 243.596,-126.712 243.596,-118.112"/>
<polygon fill="black" stroke="black" points="247.096,-118.104 243.596,-108.104 240.096,-118.104 247.096,-118.104"/>
</g>
<!-- 23&#45;&gt;5 -->
<g id="edge16" class="edge"><title>23&#45;&gt;5</title>
<path fill="none" stroke="black" d="M434.596,-71.6966C434.596,-63.9827 434.596,-54.7125 434.596,-46.1124"/>
<polygon fill="black" stroke="black" points="438.096,-46.1043 434.596,-36.1043 431.096,-46.1044 438.096,-46.1043"/>
</g>
</g>
</svg>
