<?xml version="1.0" encoding="UTF-8" standalone="no"?>
<!DOCTYPE svg PUBLIC "-//W3C//DTD SVG 1.1//EN"
 "http://www.w3.org/Graphics/SVG/1.1/DTD/svg11.dtd">
<!-- Generated by graphviz version 2.38.0 (20140413.2041)
 -->
<!-- Title: %3 Pages: 1 -->
<svg width="815pt" height="476pt"
 viewBox="0.00 0.00 815.00 476.00" xmlns="http://www.w3.org/2000/svg" xmlns:xlink="http://www.w3.org/1999/xlink">
<g id="graph0" class="graph" transform="scale(1 1) rotate(0) translate(4 472)">
<title>%3</title>
<polygon fill="white" stroke="none" points="-4,4 -4,-472 811,-472 811,4 -4,4"/>
<!-- p0 -->
<g id="node1" class="node"><title>p0</title>
<path fill="none" stroke="black" d="M47,-252C47,-252 12,-252 12,-252 6,-252 0,-246 0,-240 0,-240 0,-228 0,-228 0,-222 6,-216 12,-216 12,-216 47,-216 47,-216 53,-216 59,-222 59,-228 59,-228 59,-240 59,-240 59,-246 53,-252 47,-252"/>
<text text-anchor="middle" x="29.5" y="-230.3" font-family="Times,serif" font-size="14.00">path (6)</text>
</g>
<!-- v5 -->
<g id="node2" class="node"><title>v5</title>
<ellipse fill="none" stroke="black" cx="219.5" cy="-306" rx="27" ry="18"/>
<text text-anchor="middle" x="219.5" y="-302.3" font-family="Times,serif" font-size="14.00">5</text>
</g>
<!-- v5&#45;&gt;p0 -->
<g id="edge4" class="edge"><title>v5&#45;&gt;p0</title>
<path fill="none" stroke="black" d="M195.574,-297.357C167.199,-288.143 118.336,-271.805 68.5672,-252.286"/>
<polygon fill="black" stroke="black" points="69.8548,-249.032 59.2685,-248.605 67.2784,-255.54 69.8548,-249.032"/>
</g>
<!-- p1 -->
<g id="node3" class="node"><title>p1</title>
<path fill="none" stroke="black" d="M124,-252C124,-252 89,-252 89,-252 83,-252 77,-246 77,-240 77,-240 77,-228 77,-228 77,-222 83,-216 89,-216 89,-216 124,-216 124,-216 130,-216 136,-222 136,-228 136,-228 136,-240 136,-240 136,-246 130,-252 124,-252"/>
<text text-anchor="middle" x="106.5" y="-230.3" font-family="Times,serif" font-size="14.00">path (2)</text>
</g>
<!-- v5&#45;&gt;p1 -->
<g id="edge2" class="edge"><title>v5&#45;&gt;p1</title>
<path fill="none" stroke="black" d="M200.331,-293.125C184.605,-283.384 161.895,-269.315 142.756,-257.459"/>
<polygon fill="black" stroke="black" points="144.596,-254.482 134.251,-252.191 140.909,-260.433 144.596,-254.482"/>
</g>
<!-- v8 -->
<g id="node4" class="node"><title>v8</title>
<ellipse fill="none" stroke="black" cx="181.5" cy="-234" rx="27" ry="18"/>
<text text-anchor="middle" x="181.5" y="-230.3" font-family="Times,serif" font-size="14.00">8</text>
</g>
<!-- v5&#45;&gt;v8 -->
<g id="edge5" class="edge"><title>v5&#45;&gt;v8</title>
<path fill="none" stroke="black" d="M210.687,-288.765C206.082,-280.283 200.345,-269.714 195.179,-260.197"/>
<polygon fill="black" stroke="black" points="198.113,-258.266 190.266,-251.147 191.961,-261.606 198.113,-258.266"/>
</g>
<!-- p2 -->
<g id="node5" class="node"><title>p2</title>
<path fill="none" stroke="black" d="M274,-252C274,-252 239,-252 239,-252 233,-252 227,-246 227,-240 227,-240 227,-228 227,-228 227,-222 233,-216 239,-216 239,-216 274,-216 274,-216 280,-216 286,-222 286,-228 286,-228 286,-240 286,-240 286,-246 280,-252 274,-252"/>
<text text-anchor="middle" x="256.5" y="-230.3" font-family="Times,serif" font-size="14.00">path (2)</text>
</g>
<!-- v5&#45;&gt;p2 -->
<g id="edge1" class="edge"><title>v5&#45;&gt;p2</title>
<path fill="none" stroke="black" d="M228.082,-288.765C232.437,-280.525 237.833,-270.317 242.749,-261.016"/>
<polygon fill="black" stroke="black" points="245.87,-262.6 247.449,-252.124 239.681,-259.329 245.87,-262.6"/>
</g>
<!-- v12 -->
<g id="node8" class="node"><title>v12</title>
<ellipse fill="none" stroke="black" cx="331.5" cy="-234" rx="27" ry="18"/>
<text text-anchor="middle" x="331.5" y="-230.3" font-family="Times,serif" font-size="14.00">12</text>
</g>
<!-- v5&#45;&gt;v12 -->
<g id="edge10" class="edge"><title>v5&#45;&gt;v12</title>
<path fill="none" stroke="black" d="M238.499,-293.125C256.44,-281.913 283.551,-264.968 303.88,-252.263"/>
<polygon fill="black" stroke="black" points="305.783,-255.201 312.408,-246.933 302.073,-249.265 305.783,-255.201"/>
</g>
<!-- p3 -->
<g id="node6" class="node"><title>p3</title>
<path fill="none" stroke="black" d="M237,-180C237,-180 202,-180 202,-180 196,-180 190,-174 190,-168 190,-168 190,-156 190,-156 190,-150 196,-144 202,-144 202,-144 237,-144 237,-144 243,-144 249,-150 249,-156 249,-156 249,-168 249,-168 249,-174 243,-180 237,-180"/>
<text text-anchor="middle" x="219.5" y="-158.3" font-family="Times,serif" font-size="14.00">path (2)</text>
</g>
<!-- v11 -->
<g id="node7" class="node"><title>v11</title>
<ellipse fill="none" stroke="black" cx="407.5" cy="-18" rx="27" ry="18"/>
<text text-anchor="middle" x="407.5" y="-14.3" font-family="Times,serif" font-size="14.00">11</text>
</g>
<!-- v12&#45;&gt;p3 -->
<g id="edge22" class="edge"><title>v12&#45;&gt;p3</title>
<path fill="none" stroke="black" d="M312.501,-221.125C296.984,-211.427 274.607,-197.442 255.691,-185.62"/>
<polygon fill="black" stroke="black" points="257.341,-182.523 247.006,-180.191 253.631,-188.459 257.341,-182.523"/>
</g>
<!-- p4 -->
<g id="node9" class="node"><title>p4</title>
<path fill="none" stroke="black" d="M314,-180C314,-180 279,-180 279,-180 273,-180 267,-174 267,-168 267,-168 267,-156 267,-156 267,-150 273,-144 279,-144 279,-144 314,-144 314,-144 320,-144 326,-150 326,-156 326,-156 326,-168 326,-168 326,-174 320,-180 314,-180"/>
<text text-anchor="middle" x="296.5" y="-158.3" font-family="Times,serif" font-size="14.00">path (2)</text>
</g>
<!-- v12&#45;&gt;p4 -->
<g id="edge9" class="edge"><title>v12&#45;&gt;p4</title>
<path fill="none" stroke="black" d="M323.382,-216.765C319.306,-208.611 314.265,-198.529 309.653,-189.307"/>
<polygon fill="black" stroke="black" points="312.665,-187.503 305.062,-180.124 306.404,-190.633 312.665,-187.503"/>
</g>
<!-- v20 -->
<g id="node14" class="node"><title>v20</title>
<ellipse fill="none" stroke="black" cx="371.5" cy="-162" rx="27" ry="18"/>
<text text-anchor="middle" x="371.5" y="-158.3" font-family="Times,serif" font-size="14.00">20</text>
</g>
<!-- v12&#45;&gt;v20 -->
<g id="edge7" class="edge"><title>v12&#45;&gt;v20</title>
<path fill="none" stroke="black" d="M340.777,-216.765C345.674,-208.195 351.789,-197.494 357.271,-187.9"/>
<polygon fill="black" stroke="black" points="360.35,-189.566 362.273,-179.147 354.273,-186.093 360.35,-189.566"/>
</g>
<!-- v25 -->
<g id="node18" class="node"><title>v25</title>
<ellipse fill="none" stroke="black" cx="443.5" cy="-162" rx="27" ry="18"/>
<text text-anchor="middle" x="443.5" y="-158.3" font-family="Times,serif" font-size="14.00">25</text>
</g>
<!-- v12&#45;&gt;v25 -->
<g id="edge19" class="edge"><title>v12&#45;&gt;v25</title>
<path fill="none" stroke="black" d="M350.499,-221.125C368.44,-209.913 395.551,-192.968 415.88,-180.263"/>
<polygon fill="black" stroke="black" points="417.783,-183.201 424.408,-174.933 414.073,-177.265 417.783,-183.201"/>
</g>
<!-- v14 -->
<g id="node10" class="node"><title>v14</title>
<ellipse fill="none" stroke="black" cx="443.5" cy="-90" rx="27" ry="18"/>
<text text-anchor="middle" x="443.5" y="-86.3" font-family="Times,serif" font-size="14.00">14</text>
</g>
<!-- v14&#45;&gt;v11 -->
<g id="edge16" class="edge"><title>v14&#45;&gt;v11</title>
<path fill="none" stroke="black" d="M435.15,-72.7646C430.788,-64.2831 425.353,-53.7144 420.459,-44.1974"/>
<polygon fill="black" stroke="black" points="423.49,-42.4395 415.804,-35.1473 417.265,-45.6409 423.49,-42.4395"/>
</g>
<!-- v23 -->
<g id="node17" class="node"><title>v23</title>
<ellipse fill="none" stroke="black" cx="479.5" cy="-18" rx="27" ry="18"/>
<text text-anchor="middle" x="479.5" y="-14.3" font-family="Times,serif" font-size="14.00">23</text>
</g>
<!-- v14&#45;&gt;v23 -->
<g id="edge14" class="edge"><title>v14&#45;&gt;v23</title>
<path fill="none" stroke="black" d="M451.85,-72.7646C456.212,-64.2831 461.647,-53.7144 466.541,-44.1974"/>
<polygon fill="black" stroke="black" points="469.735,-45.6409 471.196,-35.1473 463.51,-42.4395 469.735,-45.6409"/>
</g>
<!-- v16 -->
<g id="node11" class="node"><title>v16</title>
<ellipse fill="none" stroke="black" cx="518.5" cy="-378" rx="27" ry="18"/>
<text text-anchor="middle" x="518.5" y="-374.3" font-family="Times,serif" font-size="14.00">16</text>
</g>
<!-- v16&#45;&gt;v5 -->
<g id="edge23" class="edge"><title>v16&#45;&gt;v5</title>
<path fill="none" stroke="black" d="M493.522,-371.152C440.317,-358.696 315.69,-329.519 254.563,-315.209"/>
<polygon fill="black" stroke="black" points="255.152,-311.752 244.617,-312.88 253.556,-318.568 255.152,-311.752"/>
</g>
<!-- v19 -->
<g id="node13" class="node"><title>v19</title>
<ellipse fill="none" stroke="black" cx="482.5" cy="-306" rx="27" ry="18"/>
<text text-anchor="middle" x="482.5" y="-302.3" font-family="Times,serif" font-size="14.00">19</text>
</g>
<!-- v16&#45;&gt;v19 -->
<g id="edge21" class="edge"><title>v16&#45;&gt;v19</title>
<path fill="none" stroke="black" d="M510.15,-360.765C505.788,-352.283 500.353,-341.714 495.459,-332.197"/>
<polygon fill="black" stroke="black" points="498.49,-330.439 490.804,-323.147 492.265,-333.641 498.49,-330.439"/>
</g>
<!-- v22 -->
<g id="node16" class="node"><title>v22</title>
<ellipse fill="none" stroke="black" cx="554.5" cy="-306" rx="27" ry="18"/>
<text text-anchor="middle" x="554.5" y="-302.3" font-family="Times,serif" font-size="14.00">22</text>
</g>
<!-- v16&#45;&gt;v22 -->
<g id="edge11" class="edge"><title>v16&#45;&gt;v22</title>
<path fill="none" stroke="black" d="M526.85,-360.765C531.212,-352.283 536.647,-341.714 541.541,-332.197"/>
<polygon fill="black" stroke="black" points="544.735,-333.641 546.196,-323.147 538.51,-330.439 544.735,-333.641"/>
</g>
<!-- p5 -->
<g id="node12" class="node"><title>p5</title>
<path fill="none" stroke="black" d="M424,-252C424,-252 389,-252 389,-252 383,-252 377,-246 377,-240 377,-240 377,-228 377,-228 377,-222 383,-216 389,-216 389,-216 424,-216 424,-216 430,-216 436,-222 436,-228 436,-228 436,-240 436,-240 436,-246 430,-252 424,-252"/>
<text text-anchor="middle" x="406.5" y="-230.3" font-family="Times,serif" font-size="14.00">path (2)</text>
</g>
<!-- v19&#45;&gt;p5 -->
<g id="edge18" class="edge"><title>v19&#45;&gt;p5</title>
<path fill="none" stroke="black" d="M467.12,-290.834C457.253,-281.746 444.186,-269.71 432.711,-259.141"/>
<polygon fill="black" stroke="black" points="434.806,-256.313 425.08,-252.113 430.064,-261.462 434.806,-256.313"/>
</g>
<!-- v21 -->
<g id="node15" class="node"><title>v21</title>
<ellipse fill="none" stroke="black" cx="481.5" cy="-234" rx="27" ry="18"/>
<text text-anchor="middle" x="481.5" y="-230.3" font-family="Times,serif" font-size="14.00">21</text>
</g>
<!-- v19&#45;&gt;v21 -->
<g id="edge15" class="edge"><title>v19&#45;&gt;v21</title>
<path fill="none" stroke="black" d="M482.253,-287.697C482.143,-279.983 482.01,-270.712 481.887,-262.112"/>
<polygon fill="black" stroke="black" points="485.387,-262.053 481.744,-252.104 478.388,-262.153 485.387,-262.053"/>
</g>
<!-- v35 -->
<g id="node25" class="node"><title>v35</title>
<ellipse fill="none" stroke="black" cx="553.5" cy="-234" rx="27" ry="18"/>
<text text-anchor="middle" x="553.5" y="-230.3" font-family="Times,serif" font-size="14.00">35</text>
</g>
<!-- v19&#45;&gt;v35 -->
<g id="edge20" class="edge"><title>v19&#45;&gt;v35</title>
<path fill="none" stroke="black" d="M497.211,-290.496C507.112,-280.735 520.343,-267.69 531.49,-256.7"/>
<polygon fill="black" stroke="black" points="534.144,-258.999 538.808,-249.485 529.229,-254.014 534.144,-258.999"/>
</g>
<!-- v38 -->
<g id="node28" class="node"><title>v38</title>
<ellipse fill="none" stroke="black" cx="625.5" cy="-234" rx="27" ry="18"/>
<text text-anchor="middle" x="625.5" y="-230.3" font-family="Times,serif" font-size="14.00">38</text>
</g>
<!-- v19&#45;&gt;v38 -->
<g id="edge24" class="edge"><title>v19&#45;&gt;v38</title>
<path fill="none" stroke="black" d="M503.6,-294.671C527.785,-282.832 567.623,-263.331 595.14,-249.862"/>
<polygon fill="black" stroke="black" points="596.87,-252.911 604.313,-245.371 593.793,-246.624 596.87,-252.911"/>
</g>
<!-- v25&#45;&gt;v14 -->
<g id="edge26" class="edge"><title>v25&#45;&gt;v14</title>
<path fill="none" stroke="black" d="M443.5,-143.697C443.5,-135.983 443.5,-126.712 443.5,-118.112"/>
<polygon fill="black" stroke="black" points="447,-118.104 443.5,-108.104 440,-118.104 447,-118.104"/>
</g>
<!-- p6 -->
<g id="node19" class="node"><title>p6</title>
<path fill="none" stroke="black" d="M718,-252C718,-252 683,-252 683,-252 677,-252 671,-246 671,-240 671,-240 671,-228 671,-228 671,-222 677,-216 683,-216 683,-216 718,-216 718,-216 724,-216 730,-222 730,-228 730,-228 730,-240 730,-240 730,-246 724,-252 718,-252"/>
<text text-anchor="middle" x="700.5" y="-230.3" font-family="Times,serif" font-size="14.00">path (2)</text>
</g>
<!-- v28 -->
<g id="node20" class="node"><title>v28</title>
<ellipse fill="none" stroke="black" cx="627.5" cy="-378" rx="27" ry="18"/>
<text text-anchor="middle" x="627.5" y="-374.3" font-family="Times,serif" font-size="14.00">28</text>
</g>
<!-- v29 -->
<g id="node21" class="node"><title>v29</title>
<ellipse fill="none" stroke="black" cx="627.5" cy="-306" rx="27" ry="18"/>
<text text-anchor="middle" x="627.5" y="-302.3" font-family="Times,serif" font-size="14.00">29</text>
</g>
<!-- v28&#45;&gt;v29 -->
<g id="edge3" class="edge"><title>v28&#45;&gt;v29</title>
<path fill="none" stroke="black" d="M627.5,-359.697C627.5,-351.983 627.5,-342.712 627.5,-334.112"/>
<polygon fill="black" stroke="black" points="631,-334.104 627.5,-324.104 624,-334.104 631,-334.104"/>
</g>
<!-- v30 -->
<g id="node22" class="node"><title>v30</title>
<ellipse fill="none" stroke="black" cx="700.5" cy="-306" rx="27" ry="18"/>
<text text-anchor="middle" x="700.5" y="-302.3" font-family="Times,serif" font-size="14.00">30</text>
</g>
<!-- v28&#45;&gt;v30 -->
<g id="edge8" class="edge"><title>v28&#45;&gt;v30</title>
<path fill="none" stroke="black" d="M642.273,-362.834C652.662,-352.872 666.744,-339.369 678.457,-328.137"/>
<polygon fill="black" stroke="black" points="680.954,-330.592 685.749,-321.144 676.109,-325.539 680.954,-330.592"/>
</g>
<!-- v30&#45;&gt;p6 -->
<g id="edge6" class="edge"><title>v30&#45;&gt;p6</title>
<path fill="none" stroke="black" d="M700.5,-287.697C700.5,-279.983 700.5,-270.712 700.5,-262.112"/>
<polygon fill="black" stroke="black" points="704,-262.104 700.5,-252.104 697,-262.104 704,-262.104"/>
</g>
<!-- p7 -->
<g id="node23" class="node"><title>p7</title>
<path fill="none" stroke="black" d="M795,-252C795,-252 760,-252 760,-252 754,-252 748,-246 748,-240 748,-240 748,-228 748,-228 748,-222 754,-216 760,-216 760,-216 795,-216 795,-216 801,-216 807,-222 807,-228 807,-228 807,-240 807,-240 807,-246 801,-252 795,-252"/>
<text text-anchor="middle" x="777.5" y="-230.3" font-family="Times,serif" font-size="14.00">path (2)</text>
</g>
<!-- v30&#45;&gt;p7 -->
<g id="edge17" class="edge"><title>v30&#45;&gt;p7</title>
<path fill="none" stroke="black" d="M716.082,-290.834C726.079,-281.746 739.318,-269.71 750.945,-259.141"/>
<polygon fill="black" stroke="black" points="753.631,-261.429 758.676,-252.113 748.922,-256.25 753.631,-261.429"/>
</g>
<!-- v32 -->
<g id="node24" class="node"><title>v32</title>
<ellipse fill="none" stroke="black" cx="572.5" cy="-450" rx="27" ry="18"/>
<text text-anchor="middle" x="572.5" y="-446.3" font-family="Times,serif" font-size="14.00">32</text>
</g>
<!-- v32&#45;&gt;v16 -->
<g id="edge12" class="edge"><title>v32&#45;&gt;v16</title>
<path fill="none" stroke="black" d="M560.516,-433.465C553.524,-424.402 544.564,-412.786 536.715,-402.612"/>
<polygon fill="black" stroke="black" points="539.33,-400.272 530.451,-394.492 533.788,-404.548 539.33,-400.272"/>
</g>
<!-- v32&#45;&gt;v28 -->
<g id="edge27" class="edge"><title>v32&#45;&gt;v28</title>
<path fill="none" stroke="black" d="M584.434,-433.811C591.714,-424.546 601.163,-412.52 609.354,-402.094"/>
<polygon fill="black" stroke="black" points="612.163,-404.185 615.589,-394.159 606.659,-399.86 612.163,-404.185"/>
</g>
<!-- v36 -->
<g id="node26" class="node"><title>v36</title>
<ellipse fill="none" stroke="black" cx="516.5" cy="-162" rx="27" ry="18"/>
<text text-anchor="middle" x="516.5" y="-158.3" font-family="Times,serif" font-size="14.00">36</text>
</g>
<!-- v35&#45;&gt;v36 -->
<g id="edge25" class="edge"><title>v35&#45;&gt;v36</title>
<path fill="none" stroke="black" d="M544.918,-216.765C540.435,-208.283 534.849,-197.714 529.819,-188.197"/>
<polygon fill="black" stroke="black" points="532.802,-186.353 525.035,-179.147 526.614,-189.624 532.802,-186.353"/>
</g>
<!-- v37 -->
<g id="node27" class="node"><title>v37</title>
<ellipse fill="none" stroke="black" cx="588.5" cy="-162" rx="27" ry="18"/>
<text text-anchor="middle" x="588.5" y="-158.3" font-family="Times,serif" font-size="14.00">37</text>
</g>
<!-- v35&#45;&gt;v37 -->
<g id="edge13" class="edge"><title>v35&#45;&gt;v37</title>
<path fill="none" stroke="black" d="M561.618,-216.765C565.798,-208.404 570.992,-198.016 575.697,-188.606"/>
<polygon fill="black" stroke="black" points="578.842,-190.143 580.183,-179.633 572.581,-187.012 578.842,-190.143"/>
</g>
</g>
</svg>
