<?xml version="1.0" encoding="UTF-8" standalone="no"?>
<!DOCTYPE svg PUBLIC "-//W3C//DTD SVG 1.1//EN"
 "http://www.w3.org/Graphics/SVG/1.1/DTD/svg11.dtd">
<!-- Generated by graphviz version 2.38.0 (20140413.2041)
 -->
<!-- Title: %3 Pages: 1 -->
<svg width="248pt" height="548pt"
 viewBox="0.00 0.00 247.74 548.00" xmlns="http://www.w3.org/2000/svg" xmlns:xlink="http://www.w3.org/1999/xlink">
<g id="graph0" class="graph" transform="scale(1 1) rotate(0) translate(4 544)">
<title>%3</title>
<polygon fill="white" stroke="none" points="-4,4 -4,-544 243.742,-544 243.742,4 -4,4"/>
<!-- 0 -->
<g id="node1" class="node"><title>0</title>
<g id="a_node1"><a xlink:title="0, diversity: 1, multiplicities: 2208, labels: 1,0,2">
<ellipse fill="#c2161b" stroke="black" cx="50.6955" cy="-18" rx="50.8918" ry="18"/>
<text text-anchor="middle" x="50.6955" y="-14.3" font-family="Times,serif" font-size="14.00">0 (1): 1,0,2</text>
</a>
</g>
</g>
<!-- 1 -->
<g id="node2" class="node"><title>1</title>
<g id="a_node2"><a xlink:title="1, diversity: 6, multiplicities: 4,5,7,19,24,712, labels: 1,2">
<ellipse fill="#e32f27" stroke="black" cx="103.696" cy="-90" rx="44.393" ry="18"/>
<text text-anchor="middle" x="103.696" y="-86.3" font-family="Times,serif" font-size="14.00">1 (6): 1,2</text>
</a>
</g>
</g>
<!-- 1&#45;&gt;0 -->
<g id="edge5" class="edge"><title>1&#45;&gt;0</title>
<path fill="none" stroke="black" d="M91.1352,-72.411C84.6008,-63.7805 76.4854,-53.0622 69.2434,-43.4972"/>
<polygon fill="black" stroke="black" points="71.9924,-41.3298 63.1656,-35.4699 66.4116,-45.5553 71.9924,-41.3298"/>
</g>
<!-- 9 -->
<g id="node10" class="node"><title>9</title>
<g id="a_node10"><a xlink:title="9, diversity: 1, multiplicities: 5, labels: 2">
<ellipse fill="#fee3d6" stroke="black" cx="156.696" cy="-18" rx="37.0935" ry="18"/>
<text text-anchor="middle" x="156.696" y="-14.3" font-family="Times,serif" font-size="14.00">9 (1): 2</text>
</a>
</g>
</g>
<!-- 1&#45;&gt;9 -->
<g id="edge3" class="edge"><title>1&#45;&gt;9</title>
<path fill="none" stroke="black" d="M116.256,-72.411C122.79,-63.7805 130.906,-53.0622 138.148,-43.4972"/>
<polygon fill="black" stroke="black" points="140.979,-45.5553 144.225,-35.4699 135.399,-41.3298 140.979,-45.5553"/>
</g>
<!-- 2 -->
<g id="node3" class="node"><title>2</title>
<g id="a_node3"><a xlink:title="2, diversity: 1, multiplicities: 2159, labels: 1,0,2">
<ellipse fill="#c2161b" stroke="black" cx="152.696" cy="-162" rx="50.8918" ry="18"/>
<text text-anchor="middle" x="152.696" y="-158.3" font-family="Times,serif" font-size="14.00">2 (1): 1,0,2</text>
</a>
</g>
</g>
<!-- 2&#45;&gt;1 -->
<g id="edge2" class="edge"><title>2&#45;&gt;1</title>
<path fill="none" stroke="black" d="M141.083,-144.411C135.103,-135.868 127.69,-125.278 121.047,-115.787"/>
<polygon fill="black" stroke="black" points="123.826,-113.655 115.224,-107.47 118.092,-117.669 123.826,-113.655"/>
</g>
<!-- 4 -->
<g id="node5" class="node"><title>4</title>
<g id="a_node5"><a xlink:title="4, diversity: 2, multiplicities: 5,29, labels: 2">
<ellipse fill="#fca082" stroke="black" cx="202.696" cy="-90" rx="37.0935" ry="18"/>
<text text-anchor="middle" x="202.696" y="-86.3" font-family="Times,serif" font-size="14.00">4 (2): 2</text>
</a>
</g>
</g>
<!-- 2&#45;&gt;4 -->
<g id="edge7" class="edge"><title>2&#45;&gt;4</title>
<path fill="none" stroke="black" d="M164.545,-144.411C170.647,-135.868 178.211,-125.278 184.99,-115.787"/>
<polygon fill="black" stroke="black" points="187.967,-117.642 190.931,-107.47 182.271,-113.573 187.967,-117.642"/>
</g>
<!-- 3 -->
<g id="node4" class="node"><title>3</title>
<g id="a_node4"><a xlink:title="3, diversity: 1, multiplicities: 6, labels: 2">
<ellipse fill="#fcc4ad" stroke="black" cx="152.696" cy="-234" rx="37.0935" ry="18"/>
<text text-anchor="middle" x="152.696" y="-230.3" font-family="Times,serif" font-size="14.00">3 (1): 2</text>
</a>
</g>
</g>
<!-- 3&#45;&gt;2 -->
<g id="edge1" class="edge"><title>3&#45;&gt;2</title>
<path fill="none" stroke="black" d="M152.696,-215.697C152.696,-207.983 152.696,-198.712 152.696,-190.112"/>
<polygon fill="black" stroke="black" points="156.196,-190.104 152.696,-180.104 149.196,-190.104 156.196,-190.104"/>
</g>
<!-- 5 -->
<g id="node6" class="node"><title>5</title>
<g id="a_node6"><a xlink:title="5, diversity: 1, multiplicities: 2, labels: 2">
<ellipse fill="#fee3d6" stroke="black" cx="152.696" cy="-306" rx="37.0935" ry="18"/>
<text text-anchor="middle" x="152.696" y="-302.3" font-family="Times,serif" font-size="14.00">5 (1): 2</text>
</a>
</g>
</g>
<!-- 5&#45;&gt;3 -->
<g id="edge9" class="edge"><title>5&#45;&gt;3</title>
<path fill="none" stroke="black" d="M152.696,-287.697C152.696,-279.983 152.696,-270.712 152.696,-262.112"/>
<polygon fill="black" stroke="black" points="156.196,-262.104 152.696,-252.104 149.196,-262.104 156.196,-262.104"/>
</g>
<!-- 6 -->
<g id="node7" class="node"><title>6</title>
<g id="a_node7"><a xlink:title="6, diversity: 1, multiplicities: 1, labels: 2">
<ellipse fill="#fff5f0" stroke="black" cx="152.696" cy="-378" rx="37.0935" ry="18"/>
<text text-anchor="middle" x="152.696" y="-374.3" font-family="Times,serif" font-size="14.00">6 (1): 2</text>
</a>
</g>
</g>
<!-- 6&#45;&gt;5 -->
<g id="edge8" class="edge"><title>6&#45;&gt;5</title>
<path fill="none" stroke="black" d="M152.696,-359.697C152.696,-351.983 152.696,-342.712 152.696,-334.112"/>
<polygon fill="black" stroke="black" points="156.196,-334.104 152.696,-324.104 149.196,-334.104 156.196,-334.104"/>
</g>
<!-- 7 -->
<g id="node8" class="node"><title>7</title>
<g id="a_node8"><a xlink:title="7, diversity: 1, multiplicities: 5, labels: 2">
<ellipse fill="#fee3d6" stroke="black" cx="152.696" cy="-522" rx="37.0935" ry="18"/>
<text text-anchor="middle" x="152.696" y="-518.3" font-family="Times,serif" font-size="14.00">7 (1): 2</text>
</a>
</g>
</g>
<!-- 8 -->
<g id="node9" class="node"><title>8</title>
<g id="a_node9"><a xlink:title="8, diversity: 1, multiplicities: 1, labels: 2">
<ellipse fill="#fff5f0" stroke="black" cx="152.696" cy="-450" rx="37.0935" ry="18"/>
<text text-anchor="middle" x="152.696" y="-446.3" font-family="Times,serif" font-size="14.00">8 (1): 2</text>
</a>
</g>
</g>
<!-- 7&#45;&gt;8 -->
<g id="edge6" class="edge"><title>7&#45;&gt;8</title>
<path fill="none" stroke="black" d="M152.696,-503.697C152.696,-495.983 152.696,-486.712 152.696,-478.112"/>
<polygon fill="black" stroke="black" points="156.196,-478.104 152.696,-468.104 149.196,-478.104 156.196,-478.104"/>
</g>
<!-- 8&#45;&gt;6 -->
<g id="edge4" class="edge"><title>8&#45;&gt;6</title>
<path fill="none" stroke="black" d="M152.696,-431.697C152.696,-423.983 152.696,-414.712 152.696,-406.112"/>
<polygon fill="black" stroke="black" points="156.196,-406.104 152.696,-396.104 149.196,-406.104 156.196,-406.104"/>
</g>
</g>
</svg>
