<?xml version="1.0" encoding="UTF-8" standalone="no"?>
<!DOCTYPE svg PUBLIC "-//W3C//DTD SVG 1.1//EN"
 "http://www.w3.org/Graphics/SVG/1.1/DTD/svg11.dtd">
<!-- Generated by graphviz version 2.38.0 (20140413.2041)
 -->
<!-- Title: %3 Pages: 1 -->
<svg width="1038pt" height="692pt"
 viewBox="0.00 0.00 1038.29 692.00" xmlns="http://www.w3.org/2000/svg" xmlns:xlink="http://www.w3.org/1999/xlink">
<g id="graph0" class="graph" transform="scale(1 1) rotate(0) translate(4 688)">
<title>%3</title>
<polygon fill="white" stroke="none" points="-4,4 -4,-688 1034.29,-688 1034.29,4 -4,4"/>
<!-- 0 -->
<g id="node1" class="node"><title>0</title>
<g id="a_node1"><a xlink:title="0, diversity: 2, multiplicities: 9,67, labels: 1,0">
<ellipse fill="#fca082" stroke="black" cx="44.1961" cy="-450" rx="44.393" ry="18"/>
<text text-anchor="middle" x="44.1961" y="-446.3" font-family="Times,serif" font-size="14.00">0 (2): 1,0</text>
</a>
</g>
</g>
<!-- 3 -->
<g id="node4" class="node"><title>3</title>
<g id="a_node4"><a xlink:title="3, diversity: 1, multiplicities: 6, labels: 0">
<ellipse fill="#fcc4ad" stroke="black" cx="44.1961" cy="-378" rx="37.0935" ry="18"/>
<text text-anchor="middle" x="44.1961" y="-374.3" font-family="Times,serif" font-size="14.00">3 (1): 0</text>
</a>
</g>
</g>
<!-- 0&#45;&gt;3 -->
<g id="edge7" class="edge"><title>0&#45;&gt;3</title>
<path fill="none" stroke="black" d="M44.1961,-431.697C44.1961,-423.983 44.1961,-414.712 44.1961,-406.112"/>
<polygon fill="black" stroke="black" points="47.6962,-406.104 44.1961,-396.104 40.6962,-406.104 47.6962,-406.104"/>
</g>
<!-- 1 -->
<g id="node2" class="node"><title>1</title>
<g id="a_node2"><a xlink:title="1, diversity: 1, multiplicities: 4, labels: 1">
<ellipse fill="#fee3d6" stroke="black" cx="101.196" cy="-522" rx="37.0935" ry="18"/>
<text text-anchor="middle" x="101.196" y="-518.3" font-family="Times,serif" font-size="14.00">1 (1): 1</text>
</a>
</g>
</g>
<!-- 1&#45;&gt;0 -->
<g id="edge28" class="edge"><title>1&#45;&gt;0</title>
<path fill="none" stroke="black" d="M88.2619,-505.116C81.0767,-496.292 71.9875,-485.13 63.9328,-475.238"/>
<polygon fill="black" stroke="black" points="66.503,-472.851 57.4746,-467.307 61.0749,-477.271 66.503,-472.851"/>
</g>
<!-- 2 -->
<g id="node3" class="node"><title>2</title>
<g id="a_node3"><a xlink:title="2, diversity: 6, multiplicities: 1,2,4,4,40,370, labels: 1,0">
<ellipse fill="#f6553c" stroke="black" cx="559.196" cy="-594" rx="44.393" ry="18"/>
<text text-anchor="middle" x="559.196" y="-590.3" font-family="Times,serif" font-size="14.00">2 (6): 1,0</text>
</a>
</g>
</g>
<!-- 2&#45;&gt;1 -->
<g id="edge4" class="edge"><title>2&#45;&gt;1</title>
<path fill="none" stroke="black" d="M518.317,-587.149C452.084,-577.617 317.23,-557.99 203.196,-540 184.282,-537.016 163.422,-533.568 145.522,-530.56"/>
<polygon fill="black" stroke="black" points="146.081,-527.105 135.638,-528.893 144.917,-534.007 146.081,-527.105"/>
</g>
<!-- 6 -->
<g id="node7" class="node"><title>6</title>
<g id="a_node7"><a xlink:title="6, diversity: 1, multiplicities: 28, labels: 1">
<ellipse fill="#fca082" stroke="black" cx="249.196" cy="-522" rx="37.0935" ry="18"/>
<text text-anchor="middle" x="249.196" y="-518.3" font-family="Times,serif" font-size="14.00">6 (1): 1</text>
</a>
</g>
</g>
<!-- 2&#45;&gt;6 -->
<g id="edge18" class="edge"><title>2&#45;&gt;6</title>
<path fill="none" stroke="black" d="M518.655,-586.749C466.619,-578.29 373.792,-561.723 296.196,-540 293.201,-539.162 290.123,-538.225 287.045,-537.233"/>
<polygon fill="black" stroke="black" points="287.903,-533.829 277.309,-533.935 285.657,-540.459 287.903,-533.829"/>
</g>
<!-- 8 -->
<g id="node9" class="node"><title>8</title>
<g id="a_node9"><a xlink:title="8, diversity: 1, multiplicities: 6, labels: 1,0">
<ellipse fill="#fcc4ad" stroke="black" cx="349.196" cy="-522" rx="44.393" ry="18"/>
<text text-anchor="middle" x="349.196" y="-518.3" font-family="Times,serif" font-size="14.00">8 (1): 1,0</text>
</a>
</g>
</g>
<!-- 2&#45;&gt;8 -->
<g id="edge3" class="edge"><title>2&#45;&gt;8</title>
<path fill="none" stroke="black" d="M525.921,-581.908C489.671,-569.825 431.573,-550.459 391.963,-537.256"/>
<polygon fill="black" stroke="black" points="392.909,-533.882 382.316,-534.04 390.696,-540.523 392.909,-533.882"/>
</g>
<!-- 9 -->
<g id="node10" class="node"><title>9</title>
<g id="a_node10"><a xlink:title="9, diversity: 2, multiplicities: 3,3, labels: 1,0">
<ellipse fill="#fcc4ad" stroke="black" cx="455.196" cy="-522" rx="44.393" ry="18"/>
<text text-anchor="middle" x="455.196" y="-518.3" font-family="Times,serif" font-size="14.00">9 (2): 1,0</text>
</a>
</g>
</g>
<!-- 2&#45;&gt;9 -->
<g id="edge11" class="edge"><title>2&#45;&gt;9</title>
<path fill="none" stroke="black" d="M537.394,-578.326C522.381,-568.22 502.228,-554.656 485.634,-543.487"/>
<polygon fill="black" stroke="black" points="487.578,-540.576 477.327,-537.896 483.669,-546.383 487.578,-540.576"/>
</g>
<!-- 13 -->
<g id="node14" class="node"><title>13</title>
<g id="a_node14"><a xlink:title="13, diversity: 1, multiplicities: 1, labels: 0">
<ellipse fill="#fff5f0" stroke="black" cx="559.196" cy="-522" rx="41.6928" ry="18"/>
<text text-anchor="middle" x="559.196" y="-518.3" font-family="Times,serif" font-size="14.00">13 (1): 0</text>
</a>
</g>
</g>
<!-- 2&#45;&gt;13 -->
<g id="edge14" class="edge"><title>2&#45;&gt;13</title>
<path fill="none" stroke="black" d="M553.318,-576.055C552.5,-568.346 552.257,-559.027 552.591,-550.364"/>
<polygon fill="black" stroke="black" points="556.09,-550.491 553.283,-540.275 549.107,-550.012 556.09,-550.491"/>
</g>
<!-- 25 -->
<g id="node26" class="node"><title>25</title>
<g id="a_node26"><a xlink:title="25, diversity: 1, multiplicities: 39, labels: 1,0">
<ellipse fill="#fca082" stroke="black" cx="667.196" cy="-522" rx="48.1917" ry="18"/>
<text text-anchor="middle" x="667.196" y="-518.3" font-family="Times,serif" font-size="14.00">25 (1): 1,0</text>
</a>
</g>
</g>
<!-- 2&#45;&gt;25 -->
<g id="edge32" class="edge"><title>2&#45;&gt;25</title>
<path fill="none" stroke="black" d="M581.836,-578.326C597.427,-568.22 618.356,-554.656 635.587,-543.487"/>
<polygon fill="black" stroke="black" points="637.726,-546.272 644.214,-537.896 633.918,-540.398 637.726,-546.272"/>
</g>
<!-- 32 -->
<g id="node33" class="node"><title>32</title>
<g id="a_node33"><a xlink:title="32, diversity: 1, multiplicities: 27, labels: 0">
<ellipse fill="#fca082" stroke="black" cx="775.196" cy="-522" rx="41.6928" ry="18"/>
<text text-anchor="middle" x="775.196" y="-518.3" font-family="Times,serif" font-size="14.00">32 (1): 0</text>
</a>
</g>
</g>
<!-- 2&#45;&gt;32 -->
<g id="edge23" class="edge"><title>2&#45;&gt;32</title>
<path fill="none" stroke="black" d="M593.044,-582.247C626.422,-571.615 678.873,-554.833 724.196,-540 727.301,-538.984 730.51,-537.928 733.736,-536.862"/>
<polygon fill="black" stroke="black" points="734.993,-540.133 743.384,-533.664 732.79,-533.488 734.993,-540.133"/>
</g>
<!-- 4 -->
<g id="node5" class="node"><title>4</title>
<g id="a_node5"><a xlink:title="4, diversity: 1, multiplicities: 17, labels: 0">
<ellipse fill="#fca082" stroke="black" cx="44.1961" cy="-306" rx="37.0935" ry="18"/>
<text text-anchor="middle" x="44.1961" y="-302.3" font-family="Times,serif" font-size="14.00">4 (1): 0</text>
</a>
</g>
</g>
<!-- 3&#45;&gt;4 -->
<g id="edge33" class="edge"><title>3&#45;&gt;4</title>
<path fill="none" stroke="black" d="M44.1961,-359.697C44.1961,-351.983 44.1961,-342.712 44.1961,-334.112"/>
<polygon fill="black" stroke="black" points="47.6962,-334.104 44.1961,-324.104 40.6962,-334.104 47.6962,-334.104"/>
</g>
<!-- 5 -->
<g id="node6" class="node"><title>5</title>
<g id="a_node6"><a xlink:title="5, diversity: 2, multiplicities: 2,18, labels: 1">
<ellipse fill="#fca082" stroke="black" cx="876.196" cy="-594" rx="37.0935" ry="18"/>
<text text-anchor="middle" x="876.196" y="-590.3" font-family="Times,serif" font-size="14.00">5 (2): 1</text>
</a>
</g>
</g>
<!-- 15 -->
<g id="node16" class="node"><title>15</title>
<g id="a_node16"><a xlink:title="15, diversity: 1, multiplicities: 14, labels: 1">
<ellipse fill="#fca082" stroke="black" cx="876.196" cy="-522" rx="41.6928" ry="18"/>
<text text-anchor="middle" x="876.196" y="-518.3" font-family="Times,serif" font-size="14.00">15 (1): 1</text>
</a>
</g>
</g>
<!-- 5&#45;&gt;15 -->
<g id="edge25" class="edge"><title>5&#45;&gt;15</title>
<path fill="none" stroke="black" d="M876.196,-575.697C876.196,-567.983 876.196,-558.712 876.196,-550.112"/>
<polygon fill="black" stroke="black" points="879.696,-550.104 876.196,-540.104 872.696,-550.104 879.696,-550.104"/>
</g>
<!-- 11 -->
<g id="node12" class="node"><title>11</title>
<g id="a_node12"><a xlink:title="11, diversity: 1, multiplicities: 1, labels: 1">
<ellipse fill="#fff5f0" stroke="black" cx="148.196" cy="-450" rx="41.6928" ry="18"/>
<text text-anchor="middle" x="148.196" y="-446.3" font-family="Times,serif" font-size="14.00">11 (1): 1</text>
</a>
</g>
</g>
<!-- 6&#45;&gt;11 -->
<g id="edge20" class="edge"><title>6&#45;&gt;11</title>
<path fill="none" stroke="black" d="M228.757,-506.834C214.167,-496.722 194.312,-482.962 177.965,-471.632"/>
<polygon fill="black" stroke="black" points="179.513,-468.446 169.3,-465.626 175.525,-474.199 179.513,-468.446"/>
</g>
<!-- 30 -->
<g id="node31" class="node"><title>30</title>
<g id="a_node31"><a xlink:title="30, diversity: 1, multiplicities: 1, labels: 1">
<ellipse fill="#fff5f0" stroke="black" cx="249.196" cy="-450" rx="41.6928" ry="18"/>
<text text-anchor="middle" x="249.196" y="-446.3" font-family="Times,serif" font-size="14.00">30 (1): 1</text>
</a>
</g>
</g>
<!-- 6&#45;&gt;30 -->
<g id="edge22" class="edge"><title>6&#45;&gt;30</title>
<path fill="none" stroke="black" d="M249.196,-503.697C249.196,-495.983 249.196,-486.712 249.196,-478.112"/>
<polygon fill="black" stroke="black" points="252.696,-478.104 249.196,-468.104 245.696,-478.104 252.696,-478.104"/>
</g>
<!-- 7 -->
<g id="node8" class="node"><title>7</title>
<g id="a_node8"><a xlink:title="7, diversity: 2, multiplicities: 14,129, labels: 1,0">
<ellipse fill="#fb7c5c" stroke="black" cx="353.196" cy="-450" rx="44.393" ry="18"/>
<text text-anchor="middle" x="353.196" y="-446.3" font-family="Times,serif" font-size="14.00">7 (2): 1,0</text>
</a>
</g>
</g>
<!-- 8&#45;&gt;7 -->
<g id="edge26" class="edge"><title>8&#45;&gt;7</title>
<path fill="none" stroke="black" d="M350.185,-503.697C350.626,-495.983 351.155,-486.712 351.647,-478.112"/>
<polygon fill="black" stroke="black" points="355.142,-478.288 352.219,-468.104 348.154,-477.888 355.142,-478.288"/>
</g>
<!-- 31 -->
<g id="node32" class="node"><title>31</title>
<g id="a_node32"><a xlink:title="31, diversity: 2, multiplicities: 9,86, labels: 0">
<ellipse fill="#fca082" stroke="black" cx="457.196" cy="-450" rx="41.6928" ry="18"/>
<text text-anchor="middle" x="457.196" y="-446.3" font-family="Times,serif" font-size="14.00">31 (2): 0</text>
</a>
</g>
</g>
<!-- 9&#45;&gt;31 -->
<g id="edge27" class="edge"><title>9&#45;&gt;31</title>
<path fill="none" stroke="black" d="M455.69,-503.697C455.911,-495.983 456.176,-486.712 456.421,-478.112"/>
<polygon fill="black" stroke="black" points="459.92,-478.2 456.707,-468.104 452.923,-478 459.92,-478.2"/>
</g>
<!-- 10 -->
<g id="node11" class="node"><title>10</title>
<g id="a_node11"><a xlink:title="10, diversity: 1, multiplicities: 1, labels: 1">
<ellipse fill="#fff5f0" stroke="black" cx="976.196" cy="-594" rx="41.6928" ry="18"/>
<text text-anchor="middle" x="976.196" y="-590.3" font-family="Times,serif" font-size="14.00">10 (1): 1</text>
</a>
</g>
</g>
<!-- 14 -->
<g id="node15" class="node"><title>14</title>
<g id="a_node15"><a xlink:title="14, diversity: 1, multiplicities: 1, labels: 0">
<ellipse fill="#fff5f0" stroke="black" cx="979.196" cy="-522" rx="41.6928" ry="18"/>
<text text-anchor="middle" x="979.196" y="-518.3" font-family="Times,serif" font-size="14.00">14 (1): 0</text>
</a>
</g>
</g>
<!-- 10&#45;&gt;14 -->
<g id="edge31" class="edge"><title>10&#45;&gt;14</title>
<path fill="none" stroke="black" d="M976.938,-575.697C977.268,-567.983 977.666,-558.712 978.034,-550.112"/>
<polygon fill="black" stroke="black" points="981.532,-550.245 978.463,-540.104 974.538,-549.945 981.532,-550.245"/>
</g>
<!-- 26 -->
<g id="node27" class="node"><title>26</title>
<g id="a_node27"><a xlink:title="26, diversity: 2, multiplicities: 6,47, labels: 1">
<ellipse fill="#fca082" stroke="black" cx="148.196" cy="-378" rx="41.6928" ry="18"/>
<text text-anchor="middle" x="148.196" y="-374.3" font-family="Times,serif" font-size="14.00">26 (2): 1</text>
</a>
</g>
</g>
<!-- 11&#45;&gt;26 -->
<g id="edge24" class="edge"><title>11&#45;&gt;26</title>
<path fill="none" stroke="black" d="M148.196,-431.697C148.196,-423.983 148.196,-414.712 148.196,-406.112"/>
<polygon fill="black" stroke="black" points="151.696,-406.104 148.196,-396.104 144.696,-406.104 151.696,-406.104"/>
</g>
<!-- 12 -->
<g id="node13" class="node"><title>12</title>
<g id="a_node13"><a xlink:title="12, diversity: 1, multiplicities: 6, labels: 1,0">
<ellipse fill="#fcc4ad" stroke="black" cx="876.196" cy="-666" rx="48.1917" ry="18"/>
<text text-anchor="middle" x="876.196" y="-662.3" font-family="Times,serif" font-size="14.00">12 (1): 1,0</text>
</a>
</g>
</g>
<!-- 12&#45;&gt;2 -->
<g id="edge9" class="edge"><title>12&#45;&gt;2</title>
<path fill="none" stroke="black" d="M835.726,-656.063C777.383,-643.18 669.817,-619.427 607.43,-605.651"/>
<polygon fill="black" stroke="black" points="607.966,-602.185 597.447,-603.446 606.457,-609.02 607.966,-602.185"/>
</g>
<!-- 12&#45;&gt;5 -->
<g id="edge5" class="edge"><title>12&#45;&gt;5</title>
<path fill="none" stroke="black" d="M876.196,-647.697C876.196,-639.983 876.196,-630.712 876.196,-622.112"/>
<polygon fill="black" stroke="black" points="879.696,-622.104 876.196,-612.104 872.696,-622.104 879.696,-622.104"/>
</g>
<!-- 12&#45;&gt;10 -->
<g id="edge17" class="edge"><title>12&#45;&gt;10</title>
<path fill="none" stroke="black" d="M897.895,-649.811C912.241,-639.769 931.222,-626.482 946.903,-615.505"/>
<polygon fill="black" stroke="black" points="949.04,-618.282 955.225,-609.68 945.026,-612.547 949.04,-618.282"/>
</g>
<!-- 13&#45;&gt;2 -->
<g id="edge19" class="edge"><title>13&#45;&gt;2</title>
<path fill="none" stroke="black" d="M565.109,-540.275C565.911,-548.03 566.136,-557.362 565.787,-566.005"/>
<polygon fill="black" stroke="black" points="562.29,-565.832 565.074,-576.055 569.273,-566.327 562.29,-565.832"/>
</g>
<!-- 18 -->
<g id="node19" class="node"><title>18</title>
<g id="a_node19"><a xlink:title="18, diversity: 1, multiplicities: 27, labels: 1,0">
<ellipse fill="#fca082" stroke="black" cx="982.196" cy="-450" rx="48.1917" ry="18"/>
<text text-anchor="middle" x="982.196" y="-446.3" font-family="Times,serif" font-size="14.00">18 (1): 1,0</text>
</a>
</g>
</g>
<!-- 14&#45;&gt;18 -->
<g id="edge13" class="edge"><title>14&#45;&gt;18</title>
<path fill="none" stroke="black" d="M979.938,-503.697C980.268,-495.983 980.666,-486.712 981.034,-478.112"/>
<polygon fill="black" stroke="black" points="984.532,-478.245 981.463,-468.104 977.538,-477.945 984.532,-478.245"/>
</g>
<!-- 17 -->
<g id="node18" class="node"><title>17</title>
<g id="a_node18"><a xlink:title="17, diversity: 1, multiplicities: 1, labels: 1">
<ellipse fill="#fff5f0" stroke="black" cx="874.196" cy="-450" rx="41.6928" ry="18"/>
<text text-anchor="middle" x="874.196" y="-446.3" font-family="Times,serif" font-size="14.00">17 (1): 1</text>
</a>
</g>
</g>
<!-- 15&#45;&gt;17 -->
<g id="edge29" class="edge"><title>15&#45;&gt;17</title>
<path fill="none" stroke="black" d="M875.702,-503.697C875.481,-495.983 875.216,-486.712 874.971,-478.112"/>
<polygon fill="black" stroke="black" points="878.469,-478 874.685,-468.104 871.472,-478.2 878.469,-478"/>
</g>
<!-- 16 -->
<g id="node17" class="node"><title>16</title>
<g id="a_node17"><a xlink:title="16, diversity: 1, multiplicities: 5, labels: 1">
<ellipse fill="#fee3d6" stroke="black" cx="874.196" cy="-378" rx="41.6928" ry="18"/>
<text text-anchor="middle" x="874.196" y="-374.3" font-family="Times,serif" font-size="14.00">16 (1): 1</text>
</a>
</g>
</g>
<!-- 17&#45;&gt;16 -->
<g id="edge8" class="edge"><title>17&#45;&gt;16</title>
<path fill="none" stroke="black" d="M874.196,-431.697C874.196,-423.983 874.196,-414.712 874.196,-406.112"/>
<polygon fill="black" stroke="black" points="877.696,-406.104 874.196,-396.104 870.696,-406.104 877.696,-406.104"/>
</g>
<!-- 24 -->
<g id="node25" class="node"><title>24</title>
<g id="a_node25"><a xlink:title="24, diversity: 1, multiplicities: 4, labels: 1">
<ellipse fill="#fee3d6" stroke="black" cx="982.196" cy="-378" rx="41.6928" ry="18"/>
<text text-anchor="middle" x="982.196" y="-374.3" font-family="Times,serif" font-size="14.00">24 (1): 1</text>
</a>
</g>
</g>
<!-- 18&#45;&gt;24 -->
<g id="edge21" class="edge"><title>18&#45;&gt;24</title>
<path fill="none" stroke="black" d="M982.196,-431.697C982.196,-423.983 982.196,-414.712 982.196,-406.112"/>
<polygon fill="black" stroke="black" points="985.696,-406.104 982.196,-396.104 978.696,-406.104 985.696,-406.104"/>
</g>
<!-- 19 -->
<g id="node20" class="node"><title>19</title>
<g id="a_node20"><a xlink:title="19, diversity: 2, multiplicities: 1,2, labels: 1">
<ellipse fill="#fee3d6" stroke="black" cx="195.196" cy="-306" rx="41.6928" ry="18"/>
<text text-anchor="middle" x="195.196" y="-302.3" font-family="Times,serif" font-size="14.00">19 (2): 1</text>
</a>
</g>
</g>
<!-- 22 -->
<g id="node23" class="node"><title>22</title>
<g id="a_node23"><a xlink:title="22, diversity: 1, multiplicities: 3, labels: 1">
<ellipse fill="#fee3d6" stroke="black" cx="195.196" cy="-234" rx="41.6928" ry="18"/>
<text text-anchor="middle" x="195.196" y="-230.3" font-family="Times,serif" font-size="14.00">22 (1): 1</text>
</a>
</g>
</g>
<!-- 19&#45;&gt;22 -->
<g id="edge6" class="edge"><title>19&#45;&gt;22</title>
<path fill="none" stroke="black" d="M195.196,-287.697C195.196,-279.983 195.196,-270.712 195.196,-262.112"/>
<polygon fill="black" stroke="black" points="198.696,-262.104 195.196,-252.104 191.696,-262.104 198.696,-262.104"/>
</g>
<!-- 20 -->
<g id="node21" class="node"><title>20</title>
<g id="a_node21"><a xlink:title="20, diversity: 1, multiplicities: 1, labels: 1">
<ellipse fill="#fff5f0" stroke="black" cx="249.196" cy="-378" rx="41.6928" ry="18"/>
<text text-anchor="middle" x="249.196" y="-374.3" font-family="Times,serif" font-size="14.00">20 (1): 1</text>
</a>
</g>
</g>
<!-- 20&#45;&gt;19 -->
<g id="edge2" class="edge"><title>20&#45;&gt;19</title>
<path fill="none" stroke="black" d="M236.672,-360.765C230.021,-352.143 221.706,-341.365 214.271,-331.727"/>
<polygon fill="black" stroke="black" points="216.907,-329.413 208.028,-323.633 211.364,-333.689 216.907,-329.413"/>
</g>
<!-- 28 -->
<g id="node29" class="node"><title>28</title>
<g id="a_node29"><a xlink:title="28, diversity: 1, multiplicities: 5, labels: 1,0">
<ellipse fill="#fee3d6" stroke="black" cx="303.196" cy="-306" rx="48.1917" ry="18"/>
<text text-anchor="middle" x="303.196" y="-302.3" font-family="Times,serif" font-size="14.00">28 (1): 1,0</text>
</a>
</g>
</g>
<!-- 20&#45;&gt;28 -->
<g id="edge15" class="edge"><title>20&#45;&gt;28</title>
<path fill="none" stroke="black" d="M261.72,-360.765C268.371,-352.143 276.686,-341.365 284.121,-331.727"/>
<polygon fill="black" stroke="black" points="287.028,-333.689 290.365,-323.633 281.485,-329.413 287.028,-333.689"/>
</g>
<!-- 21 -->
<g id="node22" class="node"><title>21</title>
<g id="a_node22"><a xlink:title="21, diversity: 2, multiplicities: 2,45, labels: 1">
<ellipse fill="#fca082" stroke="black" cx="195.196" cy="-90" rx="41.6928" ry="18"/>
<text text-anchor="middle" x="195.196" y="-86.3" font-family="Times,serif" font-size="14.00">21 (2): 1</text>
</a>
</g>
</g>
<!-- 27 -->
<g id="node28" class="node"><title>27</title>
<g id="a_node28"><a xlink:title="27, diversity: 2, multiplicities: 1,25, labels: 1">
<ellipse fill="#fca082" stroke="black" cx="195.196" cy="-18" rx="41.6928" ry="18"/>
<text text-anchor="middle" x="195.196" y="-14.3" font-family="Times,serif" font-size="14.00">27 (2): 1</text>
</a>
</g>
</g>
<!-- 21&#45;&gt;27 -->
<g id="edge12" class="edge"><title>21&#45;&gt;27</title>
<path fill="none" stroke="black" d="M195.196,-71.6966C195.196,-63.9827 195.196,-54.7125 195.196,-46.1124"/>
<polygon fill="black" stroke="black" points="198.696,-46.1043 195.196,-36.1043 191.696,-46.1044 198.696,-46.1043"/>
</g>
<!-- 23 -->
<g id="node24" class="node"><title>23</title>
<g id="a_node24"><a xlink:title="23, diversity: 1, multiplicities: 2, labels: 1">
<ellipse fill="#fee3d6" stroke="black" cx="195.196" cy="-162" rx="41.6928" ry="18"/>
<text text-anchor="middle" x="195.196" y="-158.3" font-family="Times,serif" font-size="14.00">23 (1): 1</text>
</a>
</g>
</g>
<!-- 22&#45;&gt;23 -->
<g id="edge1" class="edge"><title>22&#45;&gt;23</title>
<path fill="none" stroke="black" d="M195.196,-215.697C195.196,-207.983 195.196,-198.712 195.196,-190.112"/>
<polygon fill="black" stroke="black" points="198.696,-190.104 195.196,-180.104 191.696,-190.104 198.696,-190.104"/>
</g>
<!-- 23&#45;&gt;21 -->
<g id="edge10" class="edge"><title>23&#45;&gt;21</title>
<path fill="none" stroke="black" d="M195.196,-143.697C195.196,-135.983 195.196,-126.712 195.196,-118.112"/>
<polygon fill="black" stroke="black" points="198.696,-118.104 195.196,-108.104 191.696,-118.104 198.696,-118.104"/>
</g>
<!-- 29 -->
<g id="node30" class="node"><title>29</title>
<g id="a_node30"><a xlink:title="29, diversity: 2, multiplicities: 5,33, labels: 0">
<ellipse fill="#fca082" stroke="black" cx="982.196" cy="-306" rx="41.6928" ry="18"/>
<text text-anchor="middle" x="982.196" y="-302.3" font-family="Times,serif" font-size="14.00">29 (2): 0</text>
</a>
</g>
</g>
<!-- 24&#45;&gt;29 -->
<g id="edge30" class="edge"><title>24&#45;&gt;29</title>
<path fill="none" stroke="black" d="M982.196,-359.697C982.196,-351.983 982.196,-342.712 982.196,-334.112"/>
<polygon fill="black" stroke="black" points="985.696,-334.104 982.196,-324.104 978.696,-334.104 985.696,-334.104"/>
</g>
<!-- 30&#45;&gt;20 -->
<g id="edge16" class="edge"><title>30&#45;&gt;20</title>
<path fill="none" stroke="black" d="M249.196,-431.697C249.196,-423.983 249.196,-414.712 249.196,-406.112"/>
<polygon fill="black" stroke="black" points="252.696,-406.104 249.196,-396.104 245.696,-406.104 252.696,-406.104"/>
</g>
</g>
</svg>
