<?xml version="1.0" encoding="UTF-8" standalone="no"?>
<!DOCTYPE svg PUBLIC "-//W3C//DTD SVG 1.1//EN"
 "http://www.w3.org/Graphics/SVG/1.1/DTD/svg11.dtd">
<!-- Generated by graphviz version 2.38.0 (20140413.2041)
 -->
<!-- Title: %3 Pages: 1 -->
<svg width="1039pt" height="764pt"
 viewBox="0.00 0.00 1038.69 764.00" xmlns="http://www.w3.org/2000/svg" xmlns:xlink="http://www.w3.org/1999/xlink">
<g id="graph0" class="graph" transform="scale(1 1) rotate(0) translate(4 760)">
<title>%3</title>
<polygon fill="white" stroke="none" points="-4,4 -4,-760 1034.69,-760 1034.69,4 -4,4"/>
<!-- 0 -->
<g id="node1" class="node"><title>0</title>
<g id="a_node1"><a xlink:title="0, diversity: 1, multiplicities: 14, labels: 1,0">
<ellipse fill="#fca082" stroke="black" cx="284.596" cy="-18" rx="44.393" ry="18"/>
<text text-anchor="middle" x="284.596" y="-14.3" font-family="Times,serif" font-size="14.00">0 (1): 1,0</text>
</a>
</g>
</g>
<!-- 1 -->
<g id="node2" class="node"><title>1</title>
<g id="a_node2"><a xlink:title="1, diversity: 2, multiplicities: 5,8, labels: 1">
<ellipse fill="#fca082" stroke="black" cx="383.596" cy="-18" rx="37.0935" ry="18"/>
<text text-anchor="middle" x="383.596" y="-14.3" font-family="Times,serif" font-size="14.00">1 (2): 1</text>
</a>
</g>
</g>
<!-- 2 -->
<g id="node3" class="node"><title>2</title>
<g id="a_node3"><a xlink:title="2, diversity: 1, multiplicities: 6, labels: 1">
<ellipse fill="#fcc4ad" stroke="black" cx="475.596" cy="-18" rx="37.0935" ry="18"/>
<text text-anchor="middle" x="475.596" y="-14.3" font-family="Times,serif" font-size="14.00">2 (1): 1</text>
</a>
</g>
</g>
<!-- 3 -->
<g id="node4" class="node"><title>3</title>
<g id="a_node4"><a xlink:title="3, diversity: 4, multiplicities: 2,47,66,86, labels: 1,0,2">
<ellipse fill="#f6553c" stroke="black" cx="572.596" cy="-90" rx="50.8918" ry="18"/>
<text text-anchor="middle" x="572.596" y="-86.3" font-family="Times,serif" font-size="14.00">3 (4): 1,0,2</text>
</a>
</g>
</g>
<!-- 3&#45;&gt;0 -->
<g id="edge7" class="edge"><title>3&#45;&gt;0</title>
<path fill="none" stroke="black" d="M529.432,-80.4617C482.079,-70.8174 403.974,-54.0925 337.596,-36 334.231,-35.0828 330.762,-34.0863 327.284,-33.0511"/>
<polygon fill="black" stroke="black" points="328.127,-29.6489 317.54,-30.0649 326.075,-36.3416 328.127,-29.6489"/>
</g>
<!-- 3&#45;&gt;1 -->
<g id="edge3" class="edge"><title>3&#45;&gt;1</title>
<path fill="none" stroke="black" d="M538.807,-76.4854C505.95,-64.3161 456.112,-45.8576 421.822,-33.1578"/>
<polygon fill="black" stroke="black" points="422.747,-29.7679 412.154,-29.5769 420.316,-36.3322 422.747,-29.7679"/>
</g>
<!-- 3&#45;&gt;2 -->
<g id="edge33" class="edge"><title>3&#45;&gt;2</title>
<path fill="none" stroke="black" d="M551.069,-73.4647C537.165,-63.431 518.925,-50.2679 503.859,-39.3957"/>
<polygon fill="black" stroke="black" points="505.569,-36.3138 495.412,-33.3001 501.473,-41.9901 505.569,-36.3138"/>
</g>
<!-- 13 -->
<g id="node14" class="node"><title>13</title>
<g id="a_node14"><a xlink:title="13, diversity: 1, multiplicities: 29, labels: 1">
<ellipse fill="#fca082" stroke="black" cx="572.596" cy="-18" rx="41.6928" ry="18"/>
<text text-anchor="middle" x="572.596" y="-14.3" font-family="Times,serif" font-size="14.00">13 (1): 1</text>
</a>
</g>
</g>
<!-- 3&#45;&gt;13 -->
<g id="edge37" class="edge"><title>3&#45;&gt;13</title>
<path fill="none" stroke="black" d="M572.596,-71.6966C572.596,-63.9827 572.596,-54.7125 572.596,-46.1124"/>
<polygon fill="black" stroke="black" points="576.096,-46.1043 572.596,-36.1043 569.096,-46.1044 576.096,-46.1043"/>
</g>
<!-- 14 -->
<g id="node15" class="node"><title>14</title>
<g id="a_node15"><a xlink:title="14, diversity: 1, multiplicities: 5, labels: 1">
<ellipse fill="#fee3d6" stroke="black" cx="673.596" cy="-18" rx="41.6928" ry="18"/>
<text text-anchor="middle" x="673.596" y="-14.3" font-family="Times,serif" font-size="14.00">14 (1): 1</text>
</a>
</g>
</g>
<!-- 3&#45;&gt;14 -->
<g id="edge18" class="edge"><title>3&#45;&gt;14</title>
<path fill="none" stroke="black" d="M595.011,-73.4647C609.428,-63.4732 628.322,-50.3785 643.97,-39.5329"/>
<polygon fill="black" stroke="black" points="646.056,-42.346 652.281,-33.773 642.068,-36.5927 646.056,-42.346"/>
</g>
<!-- 15 -->
<g id="node16" class="node"><title>15</title>
<g id="a_node16"><a xlink:title="15, diversity: 4, multiplicities: 1,5,6,9, labels: 1">
<ellipse fill="#fca082" stroke="black" cx="774.596" cy="-18" rx="41.6928" ry="18"/>
<text text-anchor="middle" x="774.596" y="-14.3" font-family="Times,serif" font-size="14.00">15 (4): 1</text>
</a>
</g>
</g>
<!-- 3&#45;&gt;15 -->
<g id="edge1" class="edge"><title>3&#45;&gt;15</title>
<path fill="none" stroke="black" d="M607.782,-76.8069C642.854,-64.6533 696.679,-46.0009 733.649,-33.1896"/>
<polygon fill="black" stroke="black" points="734.828,-36.4853 743.131,-29.9039 732.536,-29.8712 734.828,-36.4853"/>
</g>
<!-- 4 -->
<g id="node5" class="node"><title>4</title>
<g id="a_node5"><a xlink:title="4, diversity: 1, multiplicities: 1, labels: 1">
<ellipse fill="#fff5f0" stroke="black" cx="628.596" cy="-306" rx="37.0935" ry="18"/>
<text text-anchor="middle" x="628.596" y="-302.3" font-family="Times,serif" font-size="14.00">4 (1): 1</text>
</a>
</g>
</g>
<!-- 5 -->
<g id="node6" class="node"><title>5</title>
<g id="a_node6"><a xlink:title="5, diversity: 1, multiplicities: 3, labels: 1">
<ellipse fill="#fee3d6" stroke="black" cx="622.596" cy="-234" rx="37.0935" ry="18"/>
<text text-anchor="middle" x="622.596" y="-230.3" font-family="Times,serif" font-size="14.00">5 (1): 1</text>
</a>
</g>
</g>
<!-- 4&#45;&gt;5 -->
<g id="edge38" class="edge"><title>4&#45;&gt;5</title>
<path fill="none" stroke="black" d="M627.113,-287.697C626.452,-279.983 625.657,-270.712 624.92,-262.112"/>
<polygon fill="black" stroke="black" points="628.404,-261.769 624.062,-252.104 621.429,-262.367 628.404,-261.769"/>
</g>
<!-- 7 -->
<g id="node8" class="node"><title>7</title>
<g id="a_node8"><a xlink:title="7, diversity: 1, multiplicities: 1, labels: 1">
<ellipse fill="#fff5f0" stroke="black" cx="619.596" cy="-162" rx="37.0935" ry="18"/>
<text text-anchor="middle" x="619.596" y="-158.3" font-family="Times,serif" font-size="14.00">7 (1): 1</text>
</a>
</g>
</g>
<!-- 5&#45;&gt;7 -->
<g id="edge52" class="edge"><title>5&#45;&gt;7</title>
<path fill="none" stroke="black" d="M621.855,-215.697C621.524,-207.983 621.127,-198.712 620.758,-190.112"/>
<polygon fill="black" stroke="black" points="624.254,-189.945 620.329,-180.104 617.261,-190.245 624.254,-189.945"/>
</g>
<!-- 6 -->
<g id="node7" class="node"><title>6</title>
<g id="a_node7"><a xlink:title="6, diversity: 2, multiplicities: 1,3, labels: 1">
<ellipse fill="#fee3d6" stroke="black" cx="773.596" cy="-378" rx="37.0935" ry="18"/>
<text text-anchor="middle" x="773.596" y="-374.3" font-family="Times,serif" font-size="14.00">6 (2): 1</text>
</a>
</g>
</g>
<!-- 6&#45;&gt;4 -->
<g id="edge32" class="edge"><title>6&#45;&gt;4</title>
<path fill="none" stroke="black" d="M748.339,-364.807C724.781,-353.434 689.435,-336.37 663.246,-323.727"/>
<polygon fill="black" stroke="black" points="664.578,-320.484 654.05,-319.288 661.534,-326.788 664.578,-320.484"/>
</g>
<!-- 12 -->
<g id="node13" class="node"><title>12</title>
<g id="a_node13"><a xlink:title="12, diversity: 1, multiplicities: 1, labels: 1">
<ellipse fill="#fff5f0" stroke="black" cx="773.596" cy="-306" rx="41.6928" ry="18"/>
<text text-anchor="middle" x="773.596" y="-302.3" font-family="Times,serif" font-size="14.00">12 (1): 1</text>
</a>
</g>
</g>
<!-- 6&#45;&gt;12 -->
<g id="edge45" class="edge"><title>6&#45;&gt;12</title>
<path fill="none" stroke="black" d="M773.596,-359.697C773.596,-351.983 773.596,-342.712 773.596,-334.112"/>
<polygon fill="black" stroke="black" points="777.096,-334.104 773.596,-324.104 770.096,-334.104 777.096,-334.104"/>
</g>
<!-- 7&#45;&gt;3 -->
<g id="edge6" class="edge"><title>7&#45;&gt;3</title>
<path fill="none" stroke="black" d="M608.695,-144.765C602.965,-136.23 595.816,-125.582 589.395,-116.019"/>
<polygon fill="black" stroke="black" points="592.245,-113.985 583.764,-107.633 586.433,-117.887 592.245,-113.985"/>
</g>
<!-- 8 -->
<g id="node9" class="node"><title>8</title>
<g id="a_node9"><a xlink:title="8, diversity: 1, multiplicities: 1, labels: 1">
<ellipse fill="#fff5f0" stroke="black" cx="773.596" cy="-162" rx="37.0935" ry="18"/>
<text text-anchor="middle" x="773.596" y="-158.3" font-family="Times,serif" font-size="14.00">8 (1): 1</text>
</a>
</g>
</g>
<!-- 11 -->
<g id="node12" class="node"><title>11</title>
<g id="a_node12"><a xlink:title="11, diversity: 1, multiplicities: 1, labels: 1">
<ellipse fill="#fff5f0" stroke="black" cx="773.596" cy="-90" rx="41.6928" ry="18"/>
<text text-anchor="middle" x="773.596" y="-86.3" font-family="Times,serif" font-size="14.00">11 (1): 1</text>
</a>
</g>
</g>
<!-- 8&#45;&gt;11 -->
<g id="edge39" class="edge"><title>8&#45;&gt;11</title>
<path fill="none" stroke="black" d="M773.596,-143.697C773.596,-135.983 773.596,-126.712 773.596,-118.112"/>
<polygon fill="black" stroke="black" points="777.096,-118.104 773.596,-108.104 770.096,-118.104 777.096,-118.104"/>
</g>
<!-- 9 -->
<g id="node10" class="node"><title>9</title>
<g id="a_node10"><a xlink:title="9, diversity: 1, multiplicities: 1, labels: 1">
<ellipse fill="#fff5f0" stroke="black" cx="773.596" cy="-234" rx="37.0935" ry="18"/>
<text text-anchor="middle" x="773.596" y="-230.3" font-family="Times,serif" font-size="14.00">9 (1): 1</text>
</a>
</g>
</g>
<!-- 9&#45;&gt;8 -->
<g id="edge9" class="edge"><title>9&#45;&gt;8</title>
<path fill="none" stroke="black" d="M773.596,-215.697C773.596,-207.983 773.596,-198.712 773.596,-190.112"/>
<polygon fill="black" stroke="black" points="777.096,-190.104 773.596,-180.104 770.096,-190.104 777.096,-190.104"/>
</g>
<!-- 10 -->
<g id="node11" class="node"><title>10</title>
<g id="a_node11"><a xlink:title="10, diversity: 1, multiplicities: 107, labels: 1">
<ellipse fill="#fb7c5c" stroke="black" cx="875.596" cy="-18" rx="41.6928" ry="18"/>
<text text-anchor="middle" x="875.596" y="-14.3" font-family="Times,serif" font-size="14.00">10 (1): 1</text>
</a>
</g>
</g>
<!-- 11&#45;&gt;10 -->
<g id="edge19" class="edge"><title>11&#45;&gt;10</title>
<path fill="none" stroke="black" d="M794.731,-74.496C809.403,-64.4269 829.166,-50.8636 845.482,-39.6664"/>
<polygon fill="black" stroke="black" points="847.873,-42.2706 854.138,-33.7263 843.912,-36.499 847.873,-42.2706"/>
</g>
<!-- 12&#45;&gt;9 -->
<g id="edge16" class="edge"><title>12&#45;&gt;9</title>
<path fill="none" stroke="black" d="M773.596,-287.697C773.596,-279.983 773.596,-270.712 773.596,-262.112"/>
<polygon fill="black" stroke="black" points="777.096,-262.104 773.596,-252.104 770.096,-262.104 777.096,-262.104"/>
</g>
<!-- 16 -->
<g id="node17" class="node"><title>16</title>
<g id="a_node17"><a xlink:title="16, diversity: 1, multiplicities: 5, labels: 1">
<ellipse fill="#fee3d6" stroke="black" cx="773.596" cy="-450" rx="41.6928" ry="18"/>
<text text-anchor="middle" x="773.596" y="-446.3" font-family="Times,serif" font-size="14.00">16 (1): 1</text>
</a>
</g>
</g>
<!-- 16&#45;&gt;6 -->
<g id="edge35" class="edge"><title>16&#45;&gt;6</title>
<path fill="none" stroke="black" d="M773.596,-431.697C773.596,-423.983 773.596,-414.712 773.596,-406.112"/>
<polygon fill="black" stroke="black" points="777.096,-406.104 773.596,-396.104 770.096,-406.104 777.096,-406.104"/>
</g>
<!-- 17 -->
<g id="node18" class="node"><title>17</title>
<g id="a_node18"><a xlink:title="17, diversity: 8, multiplicities: 2,2,2,4,18,32,35,329, labels: 1">
<ellipse fill="#f6553c" stroke="black" cx="621.596" cy="-738" rx="41.6928" ry="18"/>
<text text-anchor="middle" x="621.596" y="-734.3" font-family="Times,serif" font-size="14.00">17 (8): 1</text>
</a>
</g>
</g>
<!-- 19 -->
<g id="node20" class="node"><title>19</title>
<g id="a_node20"><a xlink:title="19, diversity: 5, multiplicities: 1,2,6,51,121, labels: 1">
<ellipse fill="#fb7c5c" stroke="black" cx="268.596" cy="-666" rx="41.6928" ry="18"/>
<text text-anchor="middle" x="268.596" y="-662.3" font-family="Times,serif" font-size="14.00">19 (5): 1</text>
</a>
</g>
</g>
<!-- 17&#45;&gt;19 -->
<g id="edge34" class="edge"><title>17&#45;&gt;19</title>
<path fill="none" stroke="black" d="M581.961,-732.059C523.688,-724.348 411.722,-707.824 318.596,-684 315.443,-683.193 312.203,-682.283 308.96,-681.315"/>
<polygon fill="black" stroke="black" points="309.901,-677.941 299.311,-678.275 307.797,-684.618 309.901,-677.941"/>
</g>
<!-- 21 -->
<g id="node22" class="node"><title>21</title>
<g id="a_node22"><a xlink:title="21, diversity: 3, multiplicities: 1,1,1, labels: 1">
<ellipse fill="#fee3d6" stroke="black" cx="369.596" cy="-666" rx="41.6928" ry="18"/>
<text text-anchor="middle" x="369.596" y="-662.3" font-family="Times,serif" font-size="14.00">21 (3): 1</text>
</a>
</g>
</g>
<!-- 17&#45;&gt;21 -->
<g id="edge54" class="edge"><title>17&#45;&gt;21</title>
<path fill="none" stroke="black" d="M585.988,-728.471C545.465,-718.577 477.405,-701.387 419.596,-684 416.662,-683.117 413.641,-682.175 410.607,-681.205"/>
<polygon fill="black" stroke="black" points="411.552,-677.831 400.96,-678.044 409.373,-684.483 411.552,-677.831"/>
</g>
<!-- 23 -->
<g id="node24" class="node"><title>23</title>
<g id="a_node24"><a xlink:title="23, diversity: 1, multiplicities: 41, labels: 1">
<ellipse fill="#fca082" stroke="black" cx="470.596" cy="-666" rx="41.6928" ry="18"/>
<text text-anchor="middle" x="470.596" y="-662.3" font-family="Times,serif" font-size="14.00">23 (1): 1</text>
</a>
</g>
</g>
<!-- 17&#45;&gt;23 -->
<g id="edge28" class="edge"><title>17&#45;&gt;23</title>
<path fill="none" stroke="black" d="M594.251,-724.324C569.847,-713.01 533.923,-696.357 507.076,-683.911"/>
<polygon fill="black" stroke="black" points="508.537,-680.731 497.993,-679.7 505.593,-687.082 508.537,-680.731"/>
</g>
<!-- 24 -->
<g id="node25" class="node"><title>24</title>
<g id="a_node25"><a xlink:title="24, diversity: 1, multiplicities: 2, labels: 1">
<ellipse fill="#fee3d6" stroke="black" cx="571.596" cy="-666" rx="41.6928" ry="18"/>
<text text-anchor="middle" x="571.596" y="-662.3" font-family="Times,serif" font-size="14.00">24 (1): 1</text>
</a>
</g>
</g>
<!-- 17&#45;&gt;24 -->
<g id="edge25" class="edge"><title>17&#45;&gt;24</title>
<path fill="none" stroke="black" d="M609.747,-720.411C603.645,-711.868 596.081,-701.278 589.302,-691.787"/>
<polygon fill="black" stroke="black" points="592.021,-689.573 583.361,-683.47 586.325,-693.642 592.021,-689.573"/>
</g>
<!-- 27 -->
<g id="node28" class="node"><title>27</title>
<g id="a_node28"><a xlink:title="27, diversity: 1, multiplicities: 1, labels: 1">
<ellipse fill="#fff5f0" stroke="black" cx="672.596" cy="-666" rx="41.6928" ry="18"/>
<text text-anchor="middle" x="672.596" y="-662.3" font-family="Times,serif" font-size="14.00">27 (1): 1</text>
</a>
</g>
</g>
<!-- 17&#45;&gt;27 -->
<g id="edge47" class="edge"><title>17&#45;&gt;27</title>
<path fill="none" stroke="black" d="M633.683,-720.411C639.907,-711.868 647.622,-701.278 654.537,-691.787"/>
<polygon fill="black" stroke="black" points="657.537,-693.613 660.597,-683.47 651.879,-689.491 657.537,-693.613"/>
</g>
<!-- 28 -->
<g id="node29" class="node"><title>28</title>
<g id="a_node29"><a xlink:title="28, diversity: 1, multiplicities: 1, labels: 1">
<ellipse fill="#fff5f0" stroke="black" cx="773.596" cy="-666" rx="41.6928" ry="18"/>
<text text-anchor="middle" x="773.596" y="-662.3" font-family="Times,serif" font-size="14.00">28 (1): 1</text>
</a>
</g>
</g>
<!-- 17&#45;&gt;28 -->
<g id="edge20" class="edge"><title>17&#45;&gt;28</title>
<path fill="none" stroke="black" d="M649.122,-724.324C673.764,-712.975 710.075,-696.253 737.127,-683.795"/>
<polygon fill="black" stroke="black" points="738.656,-686.944 746.275,-679.582 735.728,-680.586 738.656,-686.944"/>
</g>
<!-- 29 -->
<g id="node30" class="node"><title>29</title>
<g id="a_node30"><a xlink:title="29, diversity: 1, multiplicities: 1, labels: 1">
<ellipse fill="#fff5f0" stroke="black" cx="874.596" cy="-666" rx="41.6928" ry="18"/>
<text text-anchor="middle" x="874.596" y="-662.3" font-family="Times,serif" font-size="14.00">29 (1): 1</text>
</a>
</g>
</g>
<!-- 17&#45;&gt;29 -->
<g id="edge8" class="edge"><title>17&#45;&gt;29</title>
<path fill="none" stroke="black" d="M657.384,-728.488C698.11,-718.609 766.509,-701.433 824.596,-684 827.574,-683.106 830.64,-682.151 833.718,-681.167"/>
<polygon fill="black" stroke="black" points="835.089,-684.401 843.502,-677.96 832.909,-677.749 835.089,-684.401"/>
</g>
<!-- 45 -->
<g id="node46" class="node"><title>45</title>
<g id="a_node46"><a xlink:title="45, diversity: 5, multiplicities: 1,3,5,43,68, labels: 1,0">
<ellipse fill="#fb7c5c" stroke="black" cx="982.596" cy="-666" rx="48.1917" ry="18"/>
<text text-anchor="middle" x="982.596" y="-662.3" font-family="Times,serif" font-size="14.00">45 (5): 1,0</text>
</a>
</g>
</g>
<!-- 17&#45;&gt;45 -->
<g id="edge29" class="edge"><title>17&#45;&gt;45</title>
<path fill="none" stroke="black" d="M660.763,-731.672C718.947,-723.42 831.469,-706.161 925.596,-684 929.444,-683.094 933.416,-682.079 937.388,-681.007"/>
<polygon fill="black" stroke="black" points="938.51,-684.328 947.194,-678.258 936.621,-677.588 938.51,-684.328"/>
</g>
<!-- 18 -->
<g id="node19" class="node"><title>18</title>
<g id="a_node19"><a xlink:title="18, diversity: 3, multiplicities: 2,16,111, labels: 1">
<ellipse fill="#fb7c5c" stroke="black" cx="773.596" cy="-594" rx="41.6928" ry="18"/>
<text text-anchor="middle" x="773.596" y="-590.3" font-family="Times,serif" font-size="14.00">18 (3): 1</text>
</a>
</g>
</g>
<!-- 20 -->
<g id="node21" class="node"><title>20</title>
<g id="a_node21"><a xlink:title="20, diversity: 1, multiplicities: 5, labels: 1">
<ellipse fill="#fee3d6" stroke="black" cx="874.596" cy="-90" rx="41.6928" ry="18"/>
<text text-anchor="middle" x="874.596" y="-86.3" font-family="Times,serif" font-size="14.00">20 (1): 1</text>
</a>
</g>
</g>
<!-- 41 -->
<g id="node42" class="node"><title>41</title>
<g id="a_node42"><a xlink:title="41, diversity: 3, multiplicities: 2,7,12, labels: 1">
<ellipse fill="#fca082" stroke="black" cx="268.596" cy="-594" rx="41.6928" ry="18"/>
<text text-anchor="middle" x="268.596" y="-590.3" font-family="Times,serif" font-size="14.00">41 (3): 1</text>
</a>
</g>
</g>
<!-- 21&#45;&gt;41 -->
<g id="edge24" class="edge"><title>21&#45;&gt;41</title>
<path fill="none" stroke="black" d="M348.177,-650.155C333.617,-640.064 314.165,-626.583 298.138,-615.474"/>
<polygon fill="black" stroke="black" points="299.851,-612.403 289.639,-609.584 295.864,-618.157 299.851,-612.403"/>
</g>
<!-- 57 -->
<g id="node58" class="node"><title>57</title>
<g id="a_node58"><a xlink:title="57, diversity: 1, multiplicities: 1, labels: 1">
<ellipse fill="#fff5f0" stroke="black" cx="419.596" cy="-594" rx="41.6928" ry="18"/>
<text text-anchor="middle" x="419.596" y="-590.3" font-family="Times,serif" font-size="14.00">57 (1): 1</text>
</a>
</g>
</g>
<!-- 21&#45;&gt;57 -->
<g id="edge23" class="edge"><title>21&#45;&gt;57</title>
<path fill="none" stroke="black" d="M381.446,-648.411C387.548,-639.868 395.112,-629.278 401.891,-619.787"/>
<polygon fill="black" stroke="black" points="404.868,-621.642 407.832,-611.47 399.172,-617.573 404.868,-621.642"/>
</g>
<!-- 22 -->
<g id="node23" class="node"><title>22</title>
<g id="a_node23"><a xlink:title="22, diversity: 2, multiplicities: 6,9, labels: 1">
<ellipse fill="#fca082" stroke="black" cx="672.596" cy="-594" rx="41.6928" ry="18"/>
<text text-anchor="middle" x="672.596" y="-590.3" font-family="Times,serif" font-size="14.00">22 (2): 1</text>
</a>
</g>
</g>
<!-- 43 -->
<g id="node44" class="node"><title>43</title>
<g id="a_node44"><a xlink:title="43, diversity: 1, multiplicities: 29, labels: 1">
<ellipse fill="#fca082" stroke="black" cx="571.596" cy="-594" rx="41.6928" ry="18"/>
<text text-anchor="middle" x="571.596" y="-590.3" font-family="Times,serif" font-size="14.00">43 (1): 1</text>
</a>
</g>
</g>
<!-- 24&#45;&gt;43 -->
<g id="edge30" class="edge"><title>24&#45;&gt;43</title>
<path fill="none" stroke="black" d="M571.596,-647.697C571.596,-639.983 571.596,-630.712 571.596,-622.112"/>
<polygon fill="black" stroke="black" points="575.096,-622.104 571.596,-612.104 568.096,-622.104 575.096,-622.104"/>
</g>
<!-- 25 -->
<g id="node26" class="node"><title>25</title>
<g id="a_node26"><a xlink:title="25, diversity: 1, multiplicities: 1, labels: 1">
<ellipse fill="#fff5f0" stroke="black" cx="874.596" cy="-162" rx="41.6928" ry="18"/>
<text text-anchor="middle" x="874.596" y="-158.3" font-family="Times,serif" font-size="14.00">25 (1): 1</text>
</a>
</g>
</g>
<!-- 25&#45;&gt;20 -->
<g id="edge56" class="edge"><title>25&#45;&gt;20</title>
<path fill="none" stroke="black" d="M874.596,-143.697C874.596,-135.983 874.596,-126.712 874.596,-118.112"/>
<polygon fill="black" stroke="black" points="878.096,-118.104 874.596,-108.104 871.096,-118.104 878.096,-118.104"/>
</g>
<!-- 26 -->
<g id="node27" class="node"><title>26</title>
<g id="a_node27"><a xlink:title="26, diversity: 2, multiplicities: 2,2, labels: 1">
<ellipse fill="#fee3d6" stroke="black" cx="874.596" cy="-594" rx="41.6928" ry="18"/>
<text text-anchor="middle" x="874.596" y="-590.3" font-family="Times,serif" font-size="14.00">26 (2): 1</text>
</a>
</g>
</g>
<!-- 32 -->
<g id="node33" class="node"><title>32</title>
<g id="a_node33"><a xlink:title="32, diversity: 3, multiplicities: 1,41,386, labels: 1,0">
<ellipse fill="#f6553c" stroke="black" cx="874.596" cy="-522" rx="48.1917" ry="18"/>
<text text-anchor="middle" x="874.596" y="-518.3" font-family="Times,serif" font-size="14.00">32 (3): 1,0</text>
</a>
</g>
</g>
<!-- 26&#45;&gt;32 -->
<g id="edge21" class="edge"><title>26&#45;&gt;32</title>
<path fill="none" stroke="black" d="M874.596,-575.697C874.596,-567.983 874.596,-558.712 874.596,-550.112"/>
<polygon fill="black" stroke="black" points="878.096,-550.104 874.596,-540.104 871.096,-550.104 878.096,-550.104"/>
</g>
<!-- 27&#45;&gt;22 -->
<g id="edge49" class="edge"><title>27&#45;&gt;22</title>
<path fill="none" stroke="black" d="M672.596,-647.697C672.596,-639.983 672.596,-630.712 672.596,-622.112"/>
<polygon fill="black" stroke="black" points="676.096,-622.104 672.596,-612.104 669.096,-622.104 676.096,-622.104"/>
</g>
<!-- 28&#45;&gt;18 -->
<g id="edge11" class="edge"><title>28&#45;&gt;18</title>
<path fill="none" stroke="black" d="M773.596,-647.697C773.596,-639.983 773.596,-630.712 773.596,-622.112"/>
<polygon fill="black" stroke="black" points="777.096,-622.104 773.596,-612.104 770.096,-622.104 777.096,-622.104"/>
</g>
<!-- 29&#45;&gt;26 -->
<g id="edge31" class="edge"><title>29&#45;&gt;26</title>
<path fill="none" stroke="black" d="M874.596,-647.697C874.596,-639.983 874.596,-630.712 874.596,-622.112"/>
<polygon fill="black" stroke="black" points="878.096,-622.104 874.596,-612.104 871.096,-622.104 878.096,-622.104"/>
</g>
<!-- 30 -->
<g id="node31" class="node"><title>30</title>
<g id="a_node31"><a xlink:title="30, diversity: 5, multiplicities: 1,2,2,3,4, labels: 1">
<ellipse fill="#fca082" stroke="black" cx="92.5963" cy="-522" rx="41.6928" ry="18"/>
<text text-anchor="middle" x="92.5963" y="-518.3" font-family="Times,serif" font-size="14.00">30 (5): 1</text>
</a>
</g>
</g>
<!-- 31 -->
<g id="node32" class="node"><title>31</title>
<g id="a_node32"><a xlink:title="31, diversity: 2, multiplicities: 14,178, labels: 1">
<ellipse fill="#fb7c5c" stroke="black" cx="41.5963" cy="-450" rx="41.6928" ry="18"/>
<text text-anchor="middle" x="41.5963" y="-446.3" font-family="Times,serif" font-size="14.00">31 (2): 1</text>
</a>
</g>
</g>
<!-- 30&#45;&gt;31 -->
<g id="edge13" class="edge"><title>30&#45;&gt;31</title>
<path fill="none" stroke="black" d="M80.51,-504.411C74.2856,-495.868 66.5706,-485.278 59.6557,-475.787"/>
<polygon fill="black" stroke="black" points="62.3133,-473.491 53.5958,-467.47 56.6556,-477.613 62.3133,-473.491"/>
</g>
<!-- 37 -->
<g id="node38" class="node"><title>37</title>
<g id="a_node38"><a xlink:title="37, diversity: 1, multiplicities: 12, labels: 1">
<ellipse fill="#fca082" stroke="black" cx="41.5963" cy="-378" rx="41.6928" ry="18"/>
<text text-anchor="middle" x="41.5963" y="-374.3" font-family="Times,serif" font-size="14.00">37 (1): 1</text>
</a>
</g>
</g>
<!-- 31&#45;&gt;37 -->
<g id="edge10" class="edge"><title>31&#45;&gt;37</title>
<path fill="none" stroke="black" d="M41.5963,-431.697C41.5963,-423.983 41.5963,-414.712 41.5963,-406.112"/>
<polygon fill="black" stroke="black" points="45.0964,-406.104 41.5963,-396.104 38.0964,-406.104 45.0964,-406.104"/>
</g>
<!-- 32&#45;&gt;16 -->
<g id="edge26" class="edge"><title>32&#45;&gt;16</title>
<path fill="none" stroke="black" d="M852.681,-505.811C838.191,-495.769 819.02,-482.482 803.182,-471.505"/>
<polygon fill="black" stroke="black" points="804.99,-468.499 794.777,-465.68 801.002,-474.253 804.99,-468.499"/>
</g>
<!-- 35 -->
<g id="node36" class="node"><title>35</title>
<g id="a_node36"><a xlink:title="35, diversity: 1, multiplicities: 1, labels: 1">
<ellipse fill="#fff5f0" stroke="black" cx="874.596" cy="-450" rx="41.6928" ry="18"/>
<text text-anchor="middle" x="874.596" y="-446.3" font-family="Times,serif" font-size="14.00">35 (1): 1</text>
</a>
</g>
</g>
<!-- 32&#45;&gt;35 -->
<g id="edge46" class="edge"><title>32&#45;&gt;35</title>
<path fill="none" stroke="black" d="M874.596,-503.697C874.596,-495.983 874.596,-486.712 874.596,-478.112"/>
<polygon fill="black" stroke="black" points="878.096,-478.104 874.596,-468.104 871.096,-478.104 878.096,-478.104"/>
</g>
<!-- 44 -->
<g id="node45" class="node"><title>44</title>
<g id="a_node45"><a xlink:title="44, diversity: 2, multiplicities: 2,14, labels: 1">
<ellipse fill="#fca082" stroke="black" cx="975.596" cy="-450" rx="41.6928" ry="18"/>
<text text-anchor="middle" x="975.596" y="-446.3" font-family="Times,serif" font-size="14.00">44 (2): 1</text>
</a>
</g>
</g>
<!-- 32&#45;&gt;44 -->
<g id="edge12" class="edge"><title>32&#45;&gt;44</title>
<path fill="none" stroke="black" d="M896.512,-505.811C911.002,-495.769 930.173,-482.482 946.011,-471.505"/>
<polygon fill="black" stroke="black" points="948.19,-474.253 954.416,-465.68 944.203,-468.499 948.19,-474.253"/>
</g>
<!-- 33 -->
<g id="node34" class="node"><title>33</title>
<g id="a_node34"><a xlink:title="33, diversity: 3, multiplicities: 1,1,2, labels: 1">
<ellipse fill="#fee3d6" stroke="black" cx="874.596" cy="-306" rx="41.6928" ry="18"/>
<text text-anchor="middle" x="874.596" y="-302.3" font-family="Times,serif" font-size="14.00">33 (3): 1</text>
</a>
</g>
</g>
<!-- 36 -->
<g id="node37" class="node"><title>36</title>
<g id="a_node37"><a xlink:title="36, diversity: 1, multiplicities: 3, labels: 1">
<ellipse fill="#fee3d6" stroke="black" cx="874.596" cy="-234" rx="41.6928" ry="18"/>
<text text-anchor="middle" x="874.596" y="-230.3" font-family="Times,serif" font-size="14.00">36 (1): 1</text>
</a>
</g>
</g>
<!-- 33&#45;&gt;36 -->
<g id="edge43" class="edge"><title>33&#45;&gt;36</title>
<path fill="none" stroke="black" d="M874.596,-287.697C874.596,-279.983 874.596,-270.712 874.596,-262.112"/>
<polygon fill="black" stroke="black" points="878.096,-262.104 874.596,-252.104 871.096,-262.104 878.096,-262.104"/>
</g>
<!-- 34 -->
<g id="node35" class="node"><title>34</title>
<g id="a_node35"><a xlink:title="34, diversity: 2, multiplicities: 2,2, labels: 1">
<ellipse fill="#fee3d6" stroke="black" cx="874.596" cy="-378" rx="41.6928" ry="18"/>
<text text-anchor="middle" x="874.596" y="-374.3" font-family="Times,serif" font-size="14.00">34 (2): 1</text>
</a>
</g>
</g>
<!-- 34&#45;&gt;33 -->
<g id="edge41" class="edge"><title>34&#45;&gt;33</title>
<path fill="none" stroke="black" d="M874.596,-359.697C874.596,-351.983 874.596,-342.712 874.596,-334.112"/>
<polygon fill="black" stroke="black" points="878.096,-334.104 874.596,-324.104 871.096,-334.104 878.096,-334.104"/>
</g>
<!-- 35&#45;&gt;34 -->
<g id="edge2" class="edge"><title>35&#45;&gt;34</title>
<path fill="none" stroke="black" d="M874.596,-431.697C874.596,-423.983 874.596,-414.712 874.596,-406.112"/>
<polygon fill="black" stroke="black" points="878.096,-406.104 874.596,-396.104 871.096,-406.104 878.096,-406.104"/>
</g>
<!-- 36&#45;&gt;25 -->
<g id="edge55" class="edge"><title>36&#45;&gt;25</title>
<path fill="none" stroke="black" d="M874.596,-215.697C874.596,-207.983 874.596,-198.712 874.596,-190.112"/>
<polygon fill="black" stroke="black" points="878.096,-190.104 874.596,-180.104 871.096,-190.104 878.096,-190.104"/>
</g>
<!-- 40 -->
<g id="node41" class="node"><title>40</title>
<g id="a_node41"><a xlink:title="40, diversity: 1, multiplicities: 7, labels: 1">
<ellipse fill="#fcc4ad" stroke="black" cx="41.5963" cy="-306" rx="41.6928" ry="18"/>
<text text-anchor="middle" x="41.5963" y="-302.3" font-family="Times,serif" font-size="14.00">40 (1): 1</text>
</a>
</g>
</g>
<!-- 37&#45;&gt;40 -->
<g id="edge27" class="edge"><title>37&#45;&gt;40</title>
<path fill="none" stroke="black" d="M41.5963,-359.697C41.5963,-351.983 41.5963,-342.712 41.5963,-334.112"/>
<polygon fill="black" stroke="black" points="45.0964,-334.104 41.5963,-324.104 38.0964,-334.104 45.0964,-334.104"/>
</g>
<!-- 38 -->
<g id="node39" class="node"><title>38</title>
<g id="a_node39"><a xlink:title="38, diversity: 2, multiplicities: 5,52, labels: 1">
<ellipse fill="#fca082" stroke="black" cx="243.596" cy="-522" rx="41.6928" ry="18"/>
<text text-anchor="middle" x="243.596" y="-518.3" font-family="Times,serif" font-size="14.00">38 (2): 1</text>
</a>
</g>
</g>
<!-- 39 -->
<g id="node40" class="node"><title>39</title>
<g id="a_node40"><a xlink:title="39, diversity: 1, multiplicities: 5, labels: 1">
<ellipse fill="#fee3d6" stroke="black" cx="142.596" cy="-450" rx="41.6928" ry="18"/>
<text text-anchor="middle" x="142.596" y="-446.3" font-family="Times,serif" font-size="14.00">39 (1): 1</text>
</a>
</g>
</g>
<!-- 38&#45;&gt;39 -->
<g id="edge50" class="edge"><title>38&#45;&gt;39</title>
<path fill="none" stroke="black" d="M222.177,-506.155C207.617,-496.064 188.165,-482.583 172.138,-471.474"/>
<polygon fill="black" stroke="black" points="173.851,-468.403 163.639,-465.584 169.864,-474.157 173.851,-468.403"/>
</g>
<!-- 53 -->
<g id="node54" class="node"><title>53</title>
<g id="a_node54"><a xlink:title="53, diversity: 2, multiplicities: 2,3, labels: 1">
<ellipse fill="#fee3d6" stroke="black" cx="243.596" cy="-450" rx="41.6928" ry="18"/>
<text text-anchor="middle" x="243.596" y="-446.3" font-family="Times,serif" font-size="14.00">53 (2): 1</text>
</a>
</g>
</g>
<!-- 38&#45;&gt;53 -->
<g id="edge4" class="edge"><title>38&#45;&gt;53</title>
<path fill="none" stroke="black" d="M243.596,-503.697C243.596,-495.983 243.596,-486.712 243.596,-478.112"/>
<polygon fill="black" stroke="black" points="247.096,-478.104 243.596,-468.104 240.096,-478.104 247.096,-478.104"/>
</g>
<!-- 41&#45;&gt;30 -->
<g id="edge57" class="edge"><title>41&#45;&gt;30</title>
<path fill="none" stroke="black" d="M239.138,-581.284C209.695,-569.573 164.251,-551.499 131.78,-538.584"/>
<polygon fill="black" stroke="black" points="132.736,-535.198 122.151,-534.755 130.149,-541.703 132.736,-535.198"/>
</g>
<!-- 41&#45;&gt;38 -->
<g id="edge48" class="edge"><title>41&#45;&gt;38</title>
<path fill="none" stroke="black" d="M262.545,-576.055C259.731,-568.176 256.316,-558.617 253.166,-549.794"/>
<polygon fill="black" stroke="black" points="256.426,-548.516 249.766,-540.275 249.833,-550.87 256.426,-548.516"/>
</g>
<!-- 42 -->
<g id="node43" class="node"><title>42</title>
<g id="a_node43"><a xlink:title="42, diversity: 1, multiplicities: 11, labels: 1">
<ellipse fill="#fca082" stroke="black" cx="344.596" cy="-522" rx="41.6928" ry="18"/>
<text text-anchor="middle" x="344.596" y="-518.3" font-family="Times,serif" font-size="14.00">42 (1): 1</text>
</a>
</g>
</g>
<!-- 41&#45;&gt;42 -->
<g id="edge42" class="edge"><title>41&#45;&gt;42</title>
<path fill="none" stroke="black" d="M285.463,-577.465C295.696,-568.04 308.927,-555.853 320.278,-545.398"/>
<polygon fill="black" stroke="black" points="322.792,-547.841 327.777,-538.492 318.05,-542.692 322.792,-547.841"/>
</g>
<!-- 49 -->
<g id="node50" class="node"><title>49</title>
<g id="a_node50"><a xlink:title="49, diversity: 1, multiplicities: 2, labels: 1">
<ellipse fill="#fee3d6" stroke="black" cx="344.596" cy="-450" rx="41.6928" ry="18"/>
<text text-anchor="middle" x="344.596" y="-446.3" font-family="Times,serif" font-size="14.00">49 (1): 1</text>
</a>
</g>
</g>
<!-- 42&#45;&gt;49 -->
<g id="edge5" class="edge"><title>42&#45;&gt;49</title>
<path fill="none" stroke="black" d="M344.596,-503.697C344.596,-495.983 344.596,-486.712 344.596,-478.112"/>
<polygon fill="black" stroke="black" points="348.096,-478.104 344.596,-468.104 341.096,-478.104 348.096,-478.104"/>
</g>
<!-- 46 -->
<g id="node47" class="node"><title>46</title>
<g id="a_node47"><a xlink:title="46, diversity: 2, multiplicities: 1,2, labels: 1">
<ellipse fill="#fee3d6" stroke="black" cx="344.596" cy="-234" rx="41.6928" ry="18"/>
<text text-anchor="middle" x="344.596" y="-230.3" font-family="Times,serif" font-size="14.00">46 (2): 1</text>
</a>
</g>
</g>
<!-- 47 -->
<g id="node48" class="node"><title>47</title>
<g id="a_node48"><a xlink:title="47, diversity: 3, multiplicities: 1,1,77, labels: 1">
<ellipse fill="#fca082" stroke="black" cx="344.596" cy="-162" rx="41.6928" ry="18"/>
<text text-anchor="middle" x="344.596" y="-158.3" font-family="Times,serif" font-size="14.00">47 (3): 1</text>
</a>
</g>
</g>
<!-- 46&#45;&gt;47 -->
<g id="edge44" class="edge"><title>46&#45;&gt;47</title>
<path fill="none" stroke="black" d="M344.596,-215.697C344.596,-207.983 344.596,-198.712 344.596,-190.112"/>
<polygon fill="black" stroke="black" points="348.096,-190.104 344.596,-180.104 341.096,-190.104 348.096,-190.104"/>
</g>
<!-- 50 -->
<g id="node51" class="node"><title>50</title>
<g id="a_node51"><a xlink:title="50, diversity: 1, multiplicities: 60, labels: 1">
<ellipse fill="#fca082" stroke="black" cx="294.596" cy="-90" rx="41.6928" ry="18"/>
<text text-anchor="middle" x="294.596" y="-86.3" font-family="Times,serif" font-size="14.00">50 (1): 1</text>
</a>
</g>
</g>
<!-- 47&#45;&gt;50 -->
<g id="edge36" class="edge"><title>47&#45;&gt;50</title>
<path fill="none" stroke="black" d="M332.747,-144.411C326.645,-135.868 319.081,-125.278 312.302,-115.787"/>
<polygon fill="black" stroke="black" points="315.021,-113.573 306.361,-107.47 309.325,-117.642 315.021,-113.573"/>
</g>
<!-- 55 -->
<g id="node56" class="node"><title>55</title>
<g id="a_node56"><a xlink:title="55, diversity: 1, multiplicities: 10, labels: 1">
<ellipse fill="#fcc4ad" stroke="black" cx="395.596" cy="-90" rx="41.6928" ry="18"/>
<text text-anchor="middle" x="395.596" y="-86.3" font-family="Times,serif" font-size="14.00">55 (1): 1</text>
</a>
</g>
</g>
<!-- 47&#45;&gt;55 -->
<g id="edge51" class="edge"><title>47&#45;&gt;55</title>
<path fill="none" stroke="black" d="M356.683,-144.411C362.907,-135.868 370.622,-125.278 377.537,-115.787"/>
<polygon fill="black" stroke="black" points="380.537,-117.613 383.597,-107.47 374.879,-113.491 380.537,-117.613"/>
</g>
<!-- 48 -->
<g id="node49" class="node"><title>48</title>
<g id="a_node49"><a xlink:title="48, diversity: 3, multiplicities: 1,2,3, labels: 1">
<ellipse fill="#fcc4ad" stroke="black" cx="344.596" cy="-378" rx="41.6928" ry="18"/>
<text text-anchor="middle" x="344.596" y="-374.3" font-family="Times,serif" font-size="14.00">48 (3): 1</text>
</a>
</g>
</g>
<!-- 51 -->
<g id="node52" class="node"><title>51</title>
<g id="a_node52"><a xlink:title="51, diversity: 1, multiplicities: 1, labels: 1">
<ellipse fill="#fff5f0" stroke="black" cx="344.596" cy="-306" rx="41.6928" ry="18"/>
<text text-anchor="middle" x="344.596" y="-302.3" font-family="Times,serif" font-size="14.00">51 (1): 1</text>
</a>
</g>
</g>
<!-- 48&#45;&gt;51 -->
<g id="edge15" class="edge"><title>48&#45;&gt;51</title>
<path fill="none" stroke="black" d="M344.596,-359.697C344.596,-351.983 344.596,-342.712 344.596,-334.112"/>
<polygon fill="black" stroke="black" points="348.096,-334.104 344.596,-324.104 341.096,-334.104 348.096,-334.104"/>
</g>
<!-- 49&#45;&gt;48 -->
<g id="edge17" class="edge"><title>49&#45;&gt;48</title>
<path fill="none" stroke="black" d="M344.596,-431.697C344.596,-423.983 344.596,-414.712 344.596,-406.112"/>
<polygon fill="black" stroke="black" points="348.096,-406.104 344.596,-396.104 341.096,-406.104 348.096,-406.104"/>
</g>
<!-- 51&#45;&gt;46 -->
<g id="edge22" class="edge"><title>51&#45;&gt;46</title>
<path fill="none" stroke="black" d="M344.596,-287.697C344.596,-279.983 344.596,-270.712 344.596,-262.112"/>
<polygon fill="black" stroke="black" points="348.096,-262.104 344.596,-252.104 341.096,-262.104 348.096,-262.104"/>
</g>
<!-- 52 -->
<g id="node53" class="node"><title>52</title>
<g id="a_node53"><a xlink:title="52, diversity: 2, multiplicities: 1,18, labels: 1">
<ellipse fill="#fca082" stroke="black" cx="243.596" cy="-378" rx="41.6928" ry="18"/>
<text text-anchor="middle" x="243.596" y="-374.3" font-family="Times,serif" font-size="14.00">52 (2): 1</text>
</a>
</g>
</g>
<!-- 53&#45;&gt;52 -->
<g id="edge40" class="edge"><title>53&#45;&gt;52</title>
<path fill="none" stroke="black" d="M243.596,-431.697C243.596,-423.983 243.596,-414.712 243.596,-406.112"/>
<polygon fill="black" stroke="black" points="247.096,-406.104 243.596,-396.104 240.096,-406.104 247.096,-406.104"/>
</g>
<!-- 54 -->
<g id="node55" class="node"><title>54</title>
<g id="a_node55"><a xlink:title="54, diversity: 1, multiplicities: 12, labels: 1">
<ellipse fill="#fca082" stroke="black" cx="445.596" cy="-378" rx="41.6928" ry="18"/>
<text text-anchor="middle" x="445.596" y="-374.3" font-family="Times,serif" font-size="14.00">54 (1): 1</text>
</a>
</g>
</g>
<!-- 56 -->
<g id="node57" class="node"><title>56</title>
<g id="a_node57"><a xlink:title="56, diversity: 1, multiplicities: 5, labels: 1">
<ellipse fill="#fee3d6" stroke="black" cx="445.596" cy="-450" rx="41.6928" ry="18"/>
<text text-anchor="middle" x="445.596" y="-446.3" font-family="Times,serif" font-size="14.00">56 (1): 1</text>
</a>
</g>
</g>
<!-- 56&#45;&gt;54 -->
<g id="edge14" class="edge"><title>56&#45;&gt;54</title>
<path fill="none" stroke="black" d="M445.596,-431.697C445.596,-423.983 445.596,-414.712 445.596,-406.112"/>
<polygon fill="black" stroke="black" points="449.096,-406.104 445.596,-396.104 442.096,-406.104 449.096,-406.104"/>
</g>
<!-- 58 -->
<g id="node59" class="node"><title>58</title>
<g id="a_node59"><a xlink:title="58, diversity: 1, multiplicities: 1, labels: 1">
<ellipse fill="#fff5f0" stroke="black" cx="445.596" cy="-522" rx="41.6928" ry="18"/>
<text text-anchor="middle" x="445.596" y="-518.3" font-family="Times,serif" font-size="14.00">58 (1): 1</text>
</a>
</g>
</g>
<!-- 57&#45;&gt;58 -->
<g id="edge53" class="edge"><title>57&#45;&gt;58</title>
<path fill="none" stroke="black" d="M425.89,-576.055C428.817,-568.176 432.367,-558.617 435.644,-549.794"/>
<polygon fill="black" stroke="black" points="438.979,-550.868 439.18,-540.275 432.417,-548.431 438.979,-550.868"/>
</g>
<!-- 58&#45;&gt;56 -->
<g id="edge58" class="edge"><title>58&#45;&gt;56</title>
<path fill="none" stroke="black" d="M445.596,-503.697C445.596,-495.983 445.596,-486.712 445.596,-478.112"/>
<polygon fill="black" stroke="black" points="449.096,-478.104 445.596,-468.104 442.096,-478.104 449.096,-478.104"/>
</g>
</g>
</svg>
