<?xml version="1.0" encoding="UTF-8" standalone="no"?>
<!DOCTYPE svg PUBLIC "-//W3C//DTD SVG 1.1//EN"
 "http://www.w3.org/Graphics/SVG/1.1/DTD/svg11.dtd">
<!-- Generated by graphviz version 2.38.0 (20140413.2041)
 -->
<!-- Title: %3 Pages: 1 -->
<svg width="822pt" height="1196pt"
 viewBox="0.00 0.00 821.69 1196.00" xmlns="http://www.w3.org/2000/svg" xmlns:xlink="http://www.w3.org/1999/xlink">
<g id="graph0" class="graph" transform="scale(1 1) rotate(0) translate(4 1192)">
<title>%3</title>
<polygon fill="white" stroke="none" points="-4,4 -4,-1192 817.692,-1192 817.692,4 -4,4"/>
<!-- 0 -->
<g id="node1" class="node"><title>0</title>
<g id="a_node1"><a xlink:title="0, diversity: 1, multiplicities: 128, labels: 0">
<ellipse fill="#fb7c5c" stroke="black" cx="444.096" cy="-1098" rx="37.0935" ry="18"/>
<text text-anchor="middle" x="444.096" y="-1094.3" font-family="Times,serif" font-size="14.00">0 (1): 0</text>
</a>
</g>
</g>
<!-- 3 -->
<g id="node4" class="node"><title>3</title>
<g id="a_node4"><a xlink:title="3, diversity: 1, multiplicities: 250, labels: 1,0">
<ellipse fill="#f6553c" stroke="black" cx="392.096" cy="-1026" rx="44.393" ry="18"/>
<text text-anchor="middle" x="392.096" y="-1022.3" font-family="Times,serif" font-size="14.00">3 (1): 1,0</text>
</a>
</g>
</g>
<!-- 0&#45;&gt;3 -->
<g id="edge10" class="edge"><title>0&#45;&gt;3</title>
<path fill="none" stroke="black" d="M432.035,-1080.76C425.631,-1072.14 417.624,-1061.36 410.464,-1051.73"/>
<polygon fill="black" stroke="black" points="413.225,-1049.57 404.452,-1043.63 407.606,-1053.75 413.225,-1049.57"/>
</g>
<!-- 15 -->
<g id="node16" class="node"><title>15</title>
<g id="a_node16"><a xlink:title="15, diversity: 1, multiplicities: 9, labels: 0">
<ellipse fill="#fcc4ad" stroke="black" cx="496.096" cy="-1026" rx="41.6928" ry="18"/>
<text text-anchor="middle" x="496.096" y="-1022.3" font-family="Times,serif" font-size="14.00">15 (1): 0</text>
</a>
</g>
</g>
<!-- 0&#45;&gt;15 -->
<g id="edge16" class="edge"><title>0&#45;&gt;15</title>
<path fill="none" stroke="black" d="M456.156,-1080.76C462.561,-1072.14 470.568,-1061.36 477.727,-1051.73"/>
<polygon fill="black" stroke="black" points="480.586,-1053.75 483.739,-1043.63 474.967,-1049.57 480.586,-1053.75"/>
</g>
<!-- 1 -->
<g id="node2" class="node"><title>1</title>
<g id="a_node2"><a xlink:title="1, diversity: 1, multiplicities: 1, labels: 0">
<ellipse fill="#fff5f0" stroke="black" cx="240.096" cy="-954" rx="37.0935" ry="18"/>
<text text-anchor="middle" x="240.096" y="-950.3" font-family="Times,serif" font-size="14.00">1 (1): 0</text>
</a>
</g>
</g>
<!-- 9 -->
<g id="node10" class="node"><title>9</title>
<g id="a_node10"><a xlink:title="9, diversity: 1, multiplicities: 1, labels: 1">
<ellipse fill="#fff5f0" stroke="black" cx="240.096" cy="-882" rx="37.0935" ry="18"/>
<text text-anchor="middle" x="240.096" y="-878.3" font-family="Times,serif" font-size="14.00">9 (1): 1</text>
</a>
</g>
</g>
<!-- 1&#45;&gt;9 -->
<g id="edge34" class="edge"><title>1&#45;&gt;9</title>
<path fill="none" stroke="black" d="M240.096,-935.697C240.096,-927.983 240.096,-918.712 240.096,-910.112"/>
<polygon fill="black" stroke="black" points="243.596,-910.104 240.096,-900.104 236.596,-910.104 243.596,-910.104"/>
</g>
<!-- 2 -->
<g id="node3" class="node"><title>2</title>
<g id="a_node3"><a xlink:title="2, diversity: 1, multiplicities: 56, labels: 1,0">
<ellipse fill="#fca082" stroke="black" cx="240.096" cy="-810" rx="44.393" ry="18"/>
<text text-anchor="middle" x="240.096" y="-806.3" font-family="Times,serif" font-size="14.00">2 (1): 1,0</text>
</a>
</g>
</g>
<!-- 7 -->
<g id="node8" class="node"><title>7</title>
<g id="a_node8"><a xlink:title="7, diversity: 1, multiplicities: 1, labels: 1">
<ellipse fill="#fff5f0" stroke="black" cx="142.096" cy="-738" rx="37.0935" ry="18"/>
<text text-anchor="middle" x="142.096" y="-734.3" font-family="Times,serif" font-size="14.00">7 (1): 1</text>
</a>
</g>
</g>
<!-- 2&#45;&gt;7 -->
<g id="edge40" class="edge"><title>2&#45;&gt;7</title>
<path fill="none" stroke="black" d="M218.831,-793.811C204.582,-783.633 185.666,-770.122 170.181,-759.061"/>
<polygon fill="black" stroke="black" points="172.155,-756.169 161.983,-753.205 168.086,-761.866 172.155,-756.169"/>
</g>
<!-- 11 -->
<g id="node12" class="node"><title>11</title>
<g id="a_node12"><a xlink:title="11, diversity: 1, multiplicities: 2, labels: 1">
<ellipse fill="#fee3d6" stroke="black" cx="240.096" cy="-738" rx="41.6928" ry="18"/>
<text text-anchor="middle" x="240.096" y="-734.3" font-family="Times,serif" font-size="14.00">11 (1): 1</text>
</a>
</g>
</g>
<!-- 2&#45;&gt;11 -->
<g id="edge46" class="edge"><title>2&#45;&gt;11</title>
<path fill="none" stroke="black" d="M240.096,-791.697C240.096,-783.983 240.096,-774.712 240.096,-766.112"/>
<polygon fill="black" stroke="black" points="243.596,-766.104 240.096,-756.104 236.596,-766.104 243.596,-766.104"/>
</g>
<!-- 43 -->
<g id="node44" class="node"><title>43</title>
<g id="a_node44"><a xlink:title="43, diversity: 1, multiplicities: 9, labels: 1,0">
<ellipse fill="#fcc4ad" stroke="black" cx="348.096" cy="-738" rx="48.1917" ry="18"/>
<text text-anchor="middle" x="348.096" y="-734.3" font-family="Times,serif" font-size="14.00">43 (1): 1,0</text>
</a>
</g>
</g>
<!-- 2&#45;&gt;43 -->
<g id="edge31" class="edge"><title>2&#45;&gt;43</title>
<path fill="none" stroke="black" d="M262.736,-794.326C278.327,-784.22 299.255,-770.656 316.487,-759.487"/>
<polygon fill="black" stroke="black" points="318.625,-762.272 325.113,-753.896 314.818,-756.398 318.625,-762.272"/>
</g>
<!-- 3&#45;&gt;1 -->
<g id="edge45" class="edge"><title>3&#45;&gt;1</title>
<path fill="none" stroke="black" d="M363.862,-1012C338.825,-1000.47 302.158,-983.582 275.232,-971.181"/>
<polygon fill="black" stroke="black" points="276.696,-968.002 266.149,-966.998 273.768,-974.36 276.696,-968.002"/>
</g>
<!-- 6 -->
<g id="node7" class="node"><title>6</title>
<g id="a_node7"><a xlink:title="6, diversity: 1, multiplicities: 17, labels: 1,0">
<ellipse fill="#fca082" stroke="black" cx="340.096" cy="-954" rx="44.393" ry="18"/>
<text text-anchor="middle" x="340.096" y="-950.3" font-family="Times,serif" font-size="14.00">6 (1): 1,0</text>
</a>
</g>
</g>
<!-- 3&#45;&gt;6 -->
<g id="edge25" class="edge"><title>3&#45;&gt;6</title>
<path fill="none" stroke="black" d="M379.772,-1008.41C373.426,-999.868 365.56,-989.278 358.509,-979.787"/>
<polygon fill="black" stroke="black" points="361.103,-977.41 352.331,-971.47 355.484,-981.585 361.103,-977.41"/>
</g>
<!-- 13 -->
<g id="node14" class="node"><title>13</title>
<g id="a_node14"><a xlink:title="13, diversity: 1, multiplicities: 1, labels: 1">
<ellipse fill="#fff5f0" stroke="black" cx="444.096" cy="-954" rx="41.6928" ry="18"/>
<text text-anchor="middle" x="444.096" y="-950.3" font-family="Times,serif" font-size="14.00">13 (1): 1</text>
</a>
</g>
</g>
<!-- 3&#45;&gt;13 -->
<g id="edge30" class="edge"><title>3&#45;&gt;13</title>
<path fill="none" stroke="black" d="M404.419,-1008.41C410.765,-999.868 418.632,-989.278 425.682,-979.787"/>
<polygon fill="black" stroke="black" points="428.707,-981.585 431.861,-971.47 423.088,-977.41 428.707,-981.585"/>
</g>
<!-- 30 -->
<g id="node31" class="node"><title>30</title>
<g id="a_node31"><a xlink:title="30, diversity: 1, multiplicities: 3, labels: 0">
<ellipse fill="#fee3d6" stroke="black" cx="549.096" cy="-954" rx="41.6928" ry="18"/>
<text text-anchor="middle" x="549.096" y="-950.3" font-family="Times,serif" font-size="14.00">30 (1): 0</text>
</a>
</g>
</g>
<!-- 3&#45;&gt;30 -->
<g id="edge32" class="edge"><title>3&#45;&gt;30</title>
<path fill="none" stroke="black" d="M420.892,-1012.16C446.47,-1000.76 484.007,-984.02 511.86,-971.602"/>
<polygon fill="black" stroke="black" points="513.565,-974.674 521.273,-967.405 510.715,-968.281 513.565,-974.674"/>
</g>
<!-- 4 -->
<g id="node5" class="node"><title>4</title>
<g id="a_node5"><a xlink:title="4, diversity: 1, multiplicities: 5, labels: 1,0">
<ellipse fill="#fee3d6" stroke="black" cx="137.096" cy="-594" rx="44.393" ry="18"/>
<text text-anchor="middle" x="137.096" y="-590.3" font-family="Times,serif" font-size="14.00">4 (1): 1,0</text>
</a>
</g>
</g>
<!-- 5 -->
<g id="node6" class="node"><title>5</title>
<g id="a_node6"><a xlink:title="5, diversity: 1, multiplicities: 40, labels: 1,0">
<ellipse fill="#fca082" stroke="black" cx="240.096" cy="-666" rx="44.393" ry="18"/>
<text text-anchor="middle" x="240.096" y="-662.3" font-family="Times,serif" font-size="14.00">5 (1): 1,0</text>
</a>
</g>
</g>
<!-- 5&#45;&gt;4 -->
<g id="edge28" class="edge"><title>5&#45;&gt;4</title>
<path fill="none" stroke="black" d="M218.252,-650.155C203.504,-640.132 183.833,-626.763 167.552,-615.698"/>
<polygon fill="black" stroke="black" points="169.146,-612.55 158.908,-609.824 165.211,-618.34 169.146,-612.55"/>
</g>
<!-- 12 -->
<g id="node13" class="node"><title>12</title>
<g id="a_node13"><a xlink:title="12, diversity: 1, multiplicities: 6, labels: 1">
<ellipse fill="#fcc4ad" stroke="black" cx="241.096" cy="-594" rx="41.6928" ry="18"/>
<text text-anchor="middle" x="241.096" y="-590.3" font-family="Times,serif" font-size="14.00">12 (1): 1</text>
</a>
</g>
</g>
<!-- 5&#45;&gt;12 -->
<g id="edge19" class="edge"><title>5&#45;&gt;12</title>
<path fill="none" stroke="black" d="M240.343,-647.697C240.453,-639.983 240.586,-630.712 240.708,-622.112"/>
<polygon fill="black" stroke="black" points="244.208,-622.153 240.851,-612.104 237.209,-622.053 244.208,-622.153"/>
</g>
<!-- 8 -->
<g id="node9" class="node"><title>8</title>
<g id="a_node9"><a xlink:title="8, diversity: 1, multiplicities: 10, labels: 1">
<ellipse fill="#fcc4ad" stroke="black" cx="141.096" cy="-666" rx="37.0935" ry="18"/>
<text text-anchor="middle" x="141.096" y="-662.3" font-family="Times,serif" font-size="14.00">8 (1): 1</text>
</a>
</g>
</g>
<!-- 7&#45;&gt;8 -->
<g id="edge48" class="edge"><title>7&#45;&gt;8</title>
<path fill="none" stroke="black" d="M141.849,-719.697C141.738,-711.983 141.606,-702.712 141.483,-694.112"/>
<polygon fill="black" stroke="black" points="144.983,-694.053 141.34,-684.104 137.983,-694.153 144.983,-694.053"/>
</g>
<!-- 9&#45;&gt;2 -->
<g id="edge44" class="edge"><title>9&#45;&gt;2</title>
<path fill="none" stroke="black" d="M240.096,-863.697C240.096,-855.983 240.096,-846.712 240.096,-838.112"/>
<polygon fill="black" stroke="black" points="243.596,-838.104 240.096,-828.104 236.596,-838.104 243.596,-838.104"/>
</g>
<!-- 10 -->
<g id="node11" class="node"><title>10</title>
<g id="a_node11"><a xlink:title="10, diversity: 1, multiplicities: 11, labels: 1,0">
<ellipse fill="#fca082" stroke="black" cx="444.096" cy="-882" rx="48.1917" ry="18"/>
<text text-anchor="middle" x="444.096" y="-878.3" font-family="Times,serif" font-size="14.00">10 (1): 1,0</text>
</a>
</g>
</g>
<!-- 11&#45;&gt;5 -->
<g id="edge17" class="edge"><title>11&#45;&gt;5</title>
<path fill="none" stroke="black" d="M240.096,-719.697C240.096,-711.983 240.096,-702.712 240.096,-694.112"/>
<polygon fill="black" stroke="black" points="243.596,-694.104 240.096,-684.104 236.596,-694.104 243.596,-694.104"/>
</g>
<!-- 13&#45;&gt;10 -->
<g id="edge37" class="edge"><title>13&#45;&gt;10</title>
<path fill="none" stroke="black" d="M444.096,-935.697C444.096,-927.983 444.096,-918.712 444.096,-910.112"/>
<polygon fill="black" stroke="black" points="447.596,-910.104 444.096,-900.104 440.596,-910.104 447.596,-910.104"/>
</g>
<!-- 14 -->
<g id="node15" class="node"><title>14</title>
<g id="a_node15"><a xlink:title="14, diversity: 1, multiplicities: 7, labels: 0">
<ellipse fill="#fcc4ad" stroke="black" cx="444.096" cy="-1170" rx="41.6928" ry="18"/>
<text text-anchor="middle" x="444.096" y="-1166.3" font-family="Times,serif" font-size="14.00">14 (1): 0</text>
</a>
</g>
</g>
<!-- 14&#45;&gt;0 -->
<g id="edge9" class="edge"><title>14&#45;&gt;0</title>
<path fill="none" stroke="black" d="M444.096,-1151.7C444.096,-1143.98 444.096,-1134.71 444.096,-1126.11"/>
<polygon fill="black" stroke="black" points="447.596,-1126.1 444.096,-1116.1 440.596,-1126.1 447.596,-1126.1"/>
</g>
<!-- 16 -->
<g id="node17" class="node"><title>16</title>
<g id="a_node17"><a xlink:title="16, diversity: 1, multiplicities: 66, labels: 1,0">
<ellipse fill="#fca082" stroke="black" cx="551.096" cy="-378" rx="48.1917" ry="18"/>
<text text-anchor="middle" x="551.096" y="-374.3" font-family="Times,serif" font-size="14.00">16 (1): 1,0</text>
</a>
</g>
</g>
<!-- 17 -->
<g id="node18" class="node"><title>17</title>
<g id="a_node18"><a xlink:title="17, diversity: 3, multiplicities: 1,9,18, labels: 1,0">
<ellipse fill="#fca082" stroke="black" cx="550.096" cy="-450" rx="48.1917" ry="18"/>
<text text-anchor="middle" x="550.096" y="-446.3" font-family="Times,serif" font-size="14.00">17 (3): 1,0</text>
</a>
</g>
</g>
<!-- 17&#45;&gt;16 -->
<g id="edge12" class="edge"><title>17&#45;&gt;16</title>
<path fill="none" stroke="black" d="M550.343,-431.697C550.453,-423.983 550.586,-414.712 550.708,-406.112"/>
<polygon fill="black" stroke="black" points="554.208,-406.153 550.851,-396.104 547.209,-406.053 554.208,-406.153"/>
</g>
<!-- 18 -->
<g id="node19" class="node"><title>18</title>
<g id="a_node19"><a xlink:title="18, diversity: 3, multiplicities: 1,24,89, labels: 1,0">
<ellipse fill="#fb7c5c" stroke="black" cx="552.096" cy="-738" rx="48.1917" ry="18"/>
<text text-anchor="middle" x="552.096" y="-734.3" font-family="Times,serif" font-size="14.00">18 (3): 1,0</text>
</a>
</g>
</g>
<!-- 20 -->
<g id="node21" class="node"><title>20</title>
<g id="a_node21"><a xlink:title="20, diversity: 1, multiplicities: 1, labels: 0">
<ellipse fill="#fff5f0" stroke="black" cx="344.096" cy="-666" rx="41.6928" ry="18"/>
<text text-anchor="middle" x="344.096" y="-662.3" font-family="Times,serif" font-size="14.00">20 (1): 0</text>
</a>
</g>
</g>
<!-- 18&#45;&gt;20 -->
<g id="edge26" class="edge"><title>18&#45;&gt;20</title>
<path fill="none" stroke="black" d="M517.562,-725.461C485.543,-714.752 436.584,-698.349 394.096,-684 391.235,-683.034 388.282,-682.035 385.309,-681.027"/>
<polygon fill="black" stroke="black" points="386.424,-677.71 375.83,-677.811 384.175,-684.339 386.424,-677.71"/>
</g>
<!-- 22 -->
<g id="node23" class="node"><title>22</title>
<g id="a_node23"><a xlink:title="22, diversity: 1, multiplicities: 9, labels: 0">
<ellipse fill="#fcc4ad" stroke="black" cx="445.096" cy="-666" rx="41.6928" ry="18"/>
<text text-anchor="middle" x="445.096" y="-662.3" font-family="Times,serif" font-size="14.00">22 (1): 0</text>
</a>
</g>
</g>
<!-- 18&#45;&gt;22 -->
<g id="edge3" class="edge"><title>18&#45;&gt;22</title>
<path fill="none" stroke="black" d="M529.142,-721.983C513.559,-711.789 492.776,-698.193 475.777,-687.072"/>
<polygon fill="black" stroke="black" points="477.564,-684.058 467.279,-681.513 473.732,-689.916 477.564,-684.058"/>
</g>
<!-- 23 -->
<g id="node24" class="node"><title>23</title>
<g id="a_node24"><a xlink:title="23, diversity: 1, multiplicities: 5, labels: 1,0">
<ellipse fill="#fee3d6" stroke="black" cx="553.096" cy="-666" rx="48.1917" ry="18"/>
<text text-anchor="middle" x="553.096" y="-662.3" font-family="Times,serif" font-size="14.00">23 (1): 1,0</text>
</a>
</g>
</g>
<!-- 18&#45;&gt;23 -->
<g id="edge15" class="edge"><title>18&#45;&gt;23</title>
<path fill="none" stroke="black" d="M552.343,-719.697C552.453,-711.983 552.586,-702.712 552.708,-694.112"/>
<polygon fill="black" stroke="black" points="556.208,-694.153 552.851,-684.104 549.209,-694.053 556.208,-694.153"/>
</g>
<!-- 26 -->
<g id="node27" class="node"><title>26</title>
<g id="a_node27"><a xlink:title="26, diversity: 1, multiplicities: 1, labels: 0">
<ellipse fill="#fff5f0" stroke="black" cx="661.096" cy="-666" rx="41.6928" ry="18"/>
<text text-anchor="middle" x="661.096" y="-662.3" font-family="Times,serif" font-size="14.00">26 (1): 0</text>
</a>
</g>
</g>
<!-- 18&#45;&gt;26 -->
<g id="edge5" class="edge"><title>18&#45;&gt;26</title>
<path fill="none" stroke="black" d="M575.212,-722.155C591.177,-711.902 612.592,-698.149 630.043,-686.942"/>
<polygon fill="black" stroke="black" points="632.235,-689.694 638.758,-681.345 628.453,-683.804 632.235,-689.694"/>
</g>
<!-- 49 -->
<g id="node50" class="node"><title>49</title>
<g id="a_node50"><a xlink:title="49, diversity: 1, multiplicities: 2, labels: 1">
<ellipse fill="#fee3d6" stroke="black" cx="762.096" cy="-666" rx="41.6928" ry="18"/>
<text text-anchor="middle" x="762.096" y="-662.3" font-family="Times,serif" font-size="14.00">49 (1): 1</text>
</a>
</g>
</g>
<!-- 18&#45;&gt;49 -->
<g id="edge21" class="edge"><title>18&#45;&gt;49</title>
<path fill="none" stroke="black" d="M587.08,-725.499C619.512,-714.817 669.097,-698.431 712.096,-684 714.959,-683.039 717.913,-682.044 720.887,-681.04"/>
<polygon fill="black" stroke="black" points="722.019,-684.352 730.368,-677.829 719.774,-677.721 722.019,-684.352"/>
</g>
<!-- 19 -->
<g id="node20" class="node"><title>19</title>
<g id="a_node20"><a xlink:title="19, diversity: 2, multiplicities: 22,549, labels: 1,0">
<ellipse fill="#e32f27" stroke="black" cx="664.096" cy="-450" rx="48.1917" ry="18"/>
<text text-anchor="middle" x="664.096" y="-446.3" font-family="Times,serif" font-size="14.00">19 (2): 1,0</text>
</a>
</g>
</g>
<!-- 29 -->
<g id="node30" class="node"><title>29</title>
<g id="a_node30"><a xlink:title="29, diversity: 1, multiplicities: 1, labels: 1">
<ellipse fill="#fff5f0" stroke="black" cx="343.096" cy="-594" rx="41.6928" ry="18"/>
<text text-anchor="middle" x="343.096" y="-590.3" font-family="Times,serif" font-size="14.00">29 (1): 1</text>
</a>
</g>
</g>
<!-- 20&#45;&gt;29 -->
<g id="edge6" class="edge"><title>20&#45;&gt;29</title>
<path fill="none" stroke="black" d="M343.849,-647.697C343.738,-639.983 343.606,-630.712 343.483,-622.112"/>
<polygon fill="black" stroke="black" points="346.983,-622.053 343.34,-612.104 339.983,-622.153 346.983,-622.053"/>
</g>
<!-- 21 -->
<g id="node22" class="node"><title>21</title>
<g id="a_node22"><a xlink:title="21, diversity: 1, multiplicities: 1, labels: 0">
<ellipse fill="#fff5f0" stroke="black" cx="552.096" cy="-810" rx="41.6928" ry="18"/>
<text text-anchor="middle" x="552.096" y="-806.3" font-family="Times,serif" font-size="14.00">21 (1): 0</text>
</a>
</g>
</g>
<!-- 21&#45;&gt;18 -->
<g id="edge18" class="edge"><title>21&#45;&gt;18</title>
<path fill="none" stroke="black" d="M552.096,-791.697C552.096,-783.983 552.096,-774.712 552.096,-766.112"/>
<polygon fill="black" stroke="black" points="555.596,-766.104 552.096,-756.104 548.596,-766.104 555.596,-766.104"/>
</g>
<!-- 24 -->
<g id="node25" class="node"><title>24</title>
<g id="a_node25"><a xlink:title="24, diversity: 1, multiplicities: 4, labels: 0">
<ellipse fill="#fee3d6" stroke="black" cx="661.096" cy="-594" rx="41.6928" ry="18"/>
<text text-anchor="middle" x="661.096" y="-590.3" font-family="Times,serif" font-size="14.00">24 (1): 0</text>
</a>
</g>
</g>
<!-- 25 -->
<g id="node26" class="node"><title>25</title>
<g id="a_node26"><a xlink:title="25, diversity: 1, multiplicities: 28, labels: 1,0">
<ellipse fill="#fca082" stroke="black" cx="663.096" cy="-522" rx="48.1917" ry="18"/>
<text text-anchor="middle" x="663.096" y="-518.3" font-family="Times,serif" font-size="14.00">25 (1): 1,0</text>
</a>
</g>
</g>
<!-- 24&#45;&gt;25 -->
<g id="edge47" class="edge"><title>24&#45;&gt;25</title>
<path fill="none" stroke="black" d="M661.59,-575.697C661.811,-567.983 662.075,-558.712 662.321,-550.112"/>
<polygon fill="black" stroke="black" points="665.82,-550.2 662.607,-540.104 658.823,-550 665.82,-550.2"/>
</g>
<!-- 25&#45;&gt;17 -->
<g id="edge41" class="edge"><title>25&#45;&gt;17</title>
<path fill="none" stroke="black" d="M639.407,-506.326C622.945,-496.128 600.795,-482.407 582.673,-471.18"/>
<polygon fill="black" stroke="black" points="584.486,-468.187 574.142,-465.896 580.8,-474.138 584.486,-468.187"/>
</g>
<!-- 25&#45;&gt;19 -->
<g id="edge20" class="edge"><title>25&#45;&gt;19</title>
<path fill="none" stroke="black" d="M663.343,-503.697C663.453,-495.983 663.586,-486.712 663.708,-478.112"/>
<polygon fill="black" stroke="black" points="667.208,-478.153 663.851,-468.104 660.209,-478.053 667.208,-478.153"/>
</g>
<!-- 28 -->
<g id="node29" class="node"><title>28</title>
<g id="a_node29"><a xlink:title="28, diversity: 1, multiplicities: 6, labels: 0">
<ellipse fill="#fcc4ad" stroke="black" cx="772.096" cy="-450" rx="41.6928" ry="18"/>
<text text-anchor="middle" x="772.096" y="-446.3" font-family="Times,serif" font-size="14.00">28 (1): 0</text>
</a>
</g>
</g>
<!-- 25&#45;&gt;28 -->
<g id="edge39" class="edge"><title>25&#45;&gt;28</title>
<path fill="none" stroke="black" d="M686.212,-506.155C702.177,-495.902 723.592,-482.149 741.043,-470.942"/>
<polygon fill="black" stroke="black" points="743.235,-473.694 749.758,-465.345 739.453,-467.804 743.235,-473.694"/>
</g>
<!-- 26&#45;&gt;24 -->
<g id="edge1" class="edge"><title>26&#45;&gt;24</title>
<path fill="none" stroke="black" d="M661.096,-647.697C661.096,-639.983 661.096,-630.712 661.096,-622.112"/>
<polygon fill="black" stroke="black" points="664.596,-622.104 661.096,-612.104 657.596,-622.104 664.596,-622.104"/>
</g>
<!-- 27 -->
<g id="node28" class="node"><title>27</title>
<g id="a_node28"><a xlink:title="27, diversity: 1, multiplicities: 1, labels: 0">
<ellipse fill="#fff5f0" stroke="black" cx="552.096" cy="-882" rx="41.6928" ry="18"/>
<text text-anchor="middle" x="552.096" y="-878.3" font-family="Times,serif" font-size="14.00">27 (1): 0</text>
</a>
</g>
</g>
<!-- 27&#45;&gt;21 -->
<g id="edge4" class="edge"><title>27&#45;&gt;21</title>
<path fill="none" stroke="black" d="M552.096,-863.697C552.096,-855.983 552.096,-846.712 552.096,-838.112"/>
<polygon fill="black" stroke="black" points="555.596,-838.104 552.096,-828.104 548.596,-838.104 555.596,-838.104"/>
</g>
<!-- 34 -->
<g id="node35" class="node"><title>34</title>
<g id="a_node35"><a xlink:title="34, diversity: 1, multiplicities: 1, labels: 1">
<ellipse fill="#fff5f0" stroke="black" cx="342.096" cy="-522" rx="41.6928" ry="18"/>
<text text-anchor="middle" x="342.096" y="-518.3" font-family="Times,serif" font-size="14.00">34 (1): 1</text>
</a>
</g>
</g>
<!-- 29&#45;&gt;34 -->
<g id="edge23" class="edge"><title>29&#45;&gt;34</title>
<path fill="none" stroke="black" d="M342.849,-575.697C342.738,-567.983 342.606,-558.712 342.483,-550.112"/>
<polygon fill="black" stroke="black" points="345.983,-550.053 342.34,-540.104 338.983,-550.153 345.983,-550.053"/>
</g>
<!-- 30&#45;&gt;27 -->
<g id="edge27" class="edge"><title>30&#45;&gt;27</title>
<path fill="none" stroke="black" d="M549.837,-935.697C550.168,-927.983 550.565,-918.712 550.934,-910.112"/>
<polygon fill="black" stroke="black" points="554.431,-910.245 551.363,-900.104 547.438,-909.945 554.431,-910.245"/>
</g>
<!-- 31 -->
<g id="node32" class="node"><title>31</title>
<g id="a_node32"><a xlink:title="31, diversity: 1, multiplicities: 12, labels: 1,0">
<ellipse fill="#fca082" stroke="black" cx="177.096" cy="-378" rx="48.1917" ry="18"/>
<text text-anchor="middle" x="177.096" y="-374.3" font-family="Times,serif" font-size="14.00">31 (1): 1,0</text>
</a>
</g>
</g>
<!-- 32 -->
<g id="node33" class="node"><title>32</title>
<g id="a_node33"><a xlink:title="32, diversity: 1, multiplicities: 1, labels: 0">
<ellipse fill="#fff5f0" stroke="black" cx="48.0957" cy="-306" rx="41.6928" ry="18"/>
<text text-anchor="middle" x="48.0957" y="-302.3" font-family="Times,serif" font-size="14.00">32 (1): 0</text>
</a>
</g>
</g>
<!-- 31&#45;&gt;32 -->
<g id="edge11" class="edge"><title>31&#45;&gt;32</title>
<path fill="none" stroke="black" d="M150.991,-362.834C131.15,-352.068 103.688,-337.166 82.1247,-325.465"/>
<polygon fill="black" stroke="black" points="83.7427,-322.361 73.2841,-320.668 80.4041,-328.514 83.7427,-322.361"/>
</g>
<!-- 33 -->
<g id="node34" class="node"><title>33</title>
<g id="a_node34"><a xlink:title="33, diversity: 1, multiplicities: 11, labels: 1">
<ellipse fill="#fca082" stroke="black" cx="149.096" cy="-306" rx="41.6928" ry="18"/>
<text text-anchor="middle" x="149.096" y="-302.3" font-family="Times,serif" font-size="14.00">33 (1): 1</text>
</a>
</g>
</g>
<!-- 31&#45;&gt;33 -->
<g id="edge49" class="edge"><title>31&#45;&gt;33</title>
<path fill="none" stroke="black" d="M170.318,-360.055C167.085,-351.973 163.144,-342.121 159.54,-333.112"/>
<polygon fill="black" stroke="black" points="162.775,-331.774 155.811,-323.789 156.276,-334.374 162.775,-331.774"/>
</g>
<!-- 41 -->
<g id="node42" class="node"><title>41</title>
<g id="a_node42"><a xlink:title="41, diversity: 1, multiplicities: 6, labels: 1,0">
<ellipse fill="#fcc4ad" stroke="black" cx="257.096" cy="-306" rx="48.1917" ry="18"/>
<text text-anchor="middle" x="257.096" y="-302.3" font-family="Times,serif" font-size="14.00">41 (1): 1,0</text>
</a>
</g>
</g>
<!-- 31&#45;&gt;41 -->
<g id="edge43" class="edge"><title>31&#45;&gt;41</title>
<path fill="none" stroke="black" d="M195.249,-361.116C205.887,-351.808 219.498,-339.898 231.242,-329.622"/>
<polygon fill="black" stroke="black" points="233.793,-332.04 239.014,-322.821 229.184,-326.772 233.793,-332.04"/>
</g>
<!-- 47 -->
<g id="node48" class="node"><title>47</title>
<g id="a_node48"><a xlink:title="47, diversity: 1, multiplicities: 1, labels: 0">
<ellipse fill="#fff5f0" stroke="black" cx="48.0957" cy="-234" rx="41.6928" ry="18"/>
<text text-anchor="middle" x="48.0957" y="-230.3" font-family="Times,serif" font-size="14.00">47 (1): 0</text>
</a>
</g>
</g>
<!-- 32&#45;&gt;47 -->
<g id="edge42" class="edge"><title>32&#45;&gt;47</title>
<path fill="none" stroke="black" d="M48.0957,-287.697C48.0957,-279.983 48.0957,-270.712 48.0957,-262.112"/>
<polygon fill="black" stroke="black" points="51.5958,-262.104 48.0957,-252.104 44.5958,-262.104 51.5958,-262.104"/>
</g>
<!-- 35 -->
<g id="node36" class="node"><title>35</title>
<g id="a_node36"><a xlink:title="35, diversity: 1, multiplicities: 3, labels: 0">
<ellipse fill="#fee3d6" stroke="black" cx="234.096" cy="-450" rx="41.6928" ry="18"/>
<text text-anchor="middle" x="234.096" y="-446.3" font-family="Times,serif" font-size="14.00">35 (1): 0</text>
</a>
</g>
</g>
<!-- 34&#45;&gt;35 -->
<g id="edge8" class="edge"><title>34&#45;&gt;35</title>
<path fill="none" stroke="black" d="M319.98,-506.666C304.109,-496.379 282.514,-482.382 264.949,-470.997"/>
<polygon fill="black" stroke="black" points="266.477,-467.817 256.182,-465.315 262.67,-473.691 266.477,-467.817"/>
</g>
<!-- 38 -->
<g id="node39" class="node"><title>38</title>
<g id="a_node39"><a xlink:title="38, diversity: 1, multiplicities: 59, labels: 1,0">
<ellipse fill="#fca082" stroke="black" cx="342.096" cy="-450" rx="48.1917" ry="18"/>
<text text-anchor="middle" x="342.096" y="-446.3" font-family="Times,serif" font-size="14.00">38 (1): 1,0</text>
</a>
</g>
</g>
<!-- 34&#45;&gt;38 -->
<g id="edge7" class="edge"><title>34&#45;&gt;38</title>
<path fill="none" stroke="black" d="M342.096,-503.697C342.096,-495.983 342.096,-486.712 342.096,-478.112"/>
<polygon fill="black" stroke="black" points="345.596,-478.104 342.096,-468.104 338.596,-478.104 345.596,-478.104"/>
</g>
<!-- 35&#45;&gt;31 -->
<g id="edge33" class="edge"><title>35&#45;&gt;31</title>
<path fill="none" stroke="black" d="M220.876,-432.765C213.784,-424.056 204.901,-413.147 196.993,-403.435"/>
<polygon fill="black" stroke="black" points="199.668,-401.178 190.64,-395.633 194.24,-405.598 199.668,-401.178"/>
</g>
<!-- 36 -->
<g id="node37" class="node"><title>36</title>
<g id="a_node37"><a xlink:title="36, diversity: 1, multiplicities: 17, labels: 1,0">
<ellipse fill="#fca082" stroke="black" cx="371.096" cy="-306" rx="48.1917" ry="18"/>
<text text-anchor="middle" x="371.096" y="-302.3" font-family="Times,serif" font-size="14.00">36 (1): 1,0</text>
</a>
</g>
</g>
<!-- 40 -->
<g id="node41" class="node"><title>40</title>
<g id="a_node41"><a xlink:title="40, diversity: 1, multiplicities: 1, labels: 0">
<ellipse fill="#fff5f0" stroke="black" cx="371.096" cy="-234" rx="41.6928" ry="18"/>
<text text-anchor="middle" x="371.096" y="-230.3" font-family="Times,serif" font-size="14.00">40 (1): 0</text>
</a>
</g>
</g>
<!-- 36&#45;&gt;40 -->
<g id="edge29" class="edge"><title>36&#45;&gt;40</title>
<path fill="none" stroke="black" d="M371.096,-287.697C371.096,-279.983 371.096,-270.712 371.096,-262.112"/>
<polygon fill="black" stroke="black" points="374.596,-262.104 371.096,-252.104 367.596,-262.104 374.596,-262.104"/>
</g>
<!-- 37 -->
<g id="node38" class="node"><title>37</title>
<g id="a_node38"><a xlink:title="37, diversity: 1, multiplicities: 1, labels: 0">
<ellipse fill="#fff5f0" stroke="black" cx="342.096" cy="-378" rx="41.6928" ry="18"/>
<text text-anchor="middle" x="342.096" y="-374.3" font-family="Times,serif" font-size="14.00">37 (1): 0</text>
</a>
</g>
</g>
<!-- 37&#45;&gt;36 -->
<g id="edge2" class="edge"><title>37&#45;&gt;36</title>
<path fill="none" stroke="black" d="M349.116,-360.055C352.38,-352.176 356.34,-342.617 359.995,-333.794"/>
<polygon fill="black" stroke="black" points="363.345,-334.853 363.939,-324.275 356.878,-332.174 363.345,-334.853"/>
</g>
<!-- 38&#45;&gt;37 -->
<g id="edge13" class="edge"><title>38&#45;&gt;37</title>
<path fill="none" stroke="black" d="M342.096,-431.697C342.096,-423.983 342.096,-414.712 342.096,-406.112"/>
<polygon fill="black" stroke="black" points="345.596,-406.104 342.096,-396.104 338.596,-406.104 345.596,-406.104"/>
</g>
<!-- 42 -->
<g id="node43" class="node"><title>42</title>
<g id="a_node43"><a xlink:title="42, diversity: 1, multiplicities: 5, labels: 1">
<ellipse fill="#fee3d6" stroke="black" cx="443.096" cy="-378" rx="41.6928" ry="18"/>
<text text-anchor="middle" x="443.096" y="-374.3" font-family="Times,serif" font-size="14.00">42 (1): 1</text>
</a>
</g>
</g>
<!-- 38&#45;&gt;42 -->
<g id="edge38" class="edge"><title>38&#45;&gt;42</title>
<path fill="none" stroke="black" d="M364.011,-433.811C378.501,-423.769 397.672,-410.482 413.51,-399.505"/>
<polygon fill="black" stroke="black" points="415.69,-402.253 421.915,-393.68 411.702,-396.499 415.69,-402.253"/>
</g>
<!-- 39 -->
<g id="node40" class="node"><title>39</title>
<g id="a_node40"><a xlink:title="39, diversity: 1, multiplicities: 12, labels: 0">
<ellipse fill="#fca082" stroke="black" cx="371.096" cy="-162" rx="41.6928" ry="18"/>
<text text-anchor="middle" x="371.096" y="-158.3" font-family="Times,serif" font-size="14.00">39 (1): 0</text>
</a>
</g>
</g>
<!-- 40&#45;&gt;39 -->
<g id="edge35" class="edge"><title>40&#45;&gt;39</title>
<path fill="none" stroke="black" d="M371.096,-215.697C371.096,-207.983 371.096,-198.712 371.096,-190.112"/>
<polygon fill="black" stroke="black" points="374.596,-190.104 371.096,-180.104 367.596,-190.104 374.596,-190.104"/>
</g>
<!-- 44 -->
<g id="node45" class="node"><title>44</title>
<g id="a_node45"><a xlink:title="44, diversity: 1, multiplicities: 49, labels: 1,0">
<ellipse fill="#fca082" stroke="black" cx="48.0957" cy="-162" rx="48.1917" ry="18"/>
<text text-anchor="middle" x="48.0957" y="-158.3" font-family="Times,serif" font-size="14.00">44 (1): 1,0</text>
</a>
</g>
</g>
<!-- 46 -->
<g id="node47" class="node"><title>46</title>
<g id="a_node47"><a xlink:title="46, diversity: 1, multiplicities: 5, labels: 0">
<ellipse fill="#fee3d6" stroke="black" cx="48.0957" cy="-90" rx="41.6928" ry="18"/>
<text text-anchor="middle" x="48.0957" y="-86.3" font-family="Times,serif" font-size="14.00">46 (1): 0</text>
</a>
</g>
</g>
<!-- 44&#45;&gt;46 -->
<g id="edge14" class="edge"><title>44&#45;&gt;46</title>
<path fill="none" stroke="black" d="M48.0957,-143.697C48.0957,-135.983 48.0957,-126.712 48.0957,-118.112"/>
<polygon fill="black" stroke="black" points="51.5958,-118.104 48.0957,-108.104 44.5958,-118.104 51.5958,-118.104"/>
</g>
<!-- 45 -->
<g id="node46" class="node"><title>45</title>
<g id="a_node46"><a xlink:title="45, diversity: 1, multiplicities: 19, labels: 0">
<ellipse fill="#fca082" stroke="black" cx="48.0957" cy="-18" rx="41.6928" ry="18"/>
<text text-anchor="middle" x="48.0957" y="-14.3" font-family="Times,serif" font-size="14.00">45 (1): 0</text>
</a>
</g>
</g>
<!-- 46&#45;&gt;45 -->
<g id="edge22" class="edge"><title>46&#45;&gt;45</title>
<path fill="none" stroke="black" d="M48.0957,-71.6966C48.0957,-63.9827 48.0957,-54.7125 48.0957,-46.1124"/>
<polygon fill="black" stroke="black" points="51.5958,-46.1043 48.0957,-36.1043 44.5958,-46.1044 51.5958,-46.1043"/>
</g>
<!-- 47&#45;&gt;44 -->
<g id="edge24" class="edge"><title>47&#45;&gt;44</title>
<path fill="none" stroke="black" d="M48.0957,-215.697C48.0957,-207.983 48.0957,-198.712 48.0957,-190.112"/>
<polygon fill="black" stroke="black" points="51.5958,-190.104 48.0957,-180.104 44.5958,-190.104 51.5958,-190.104"/>
</g>
<!-- 48 -->
<g id="node49" class="node"><title>48</title>
<g id="a_node49"><a xlink:title="48, diversity: 1, multiplicities: 8, labels: 1">
<ellipse fill="#fcc4ad" stroke="black" cx="762.096" cy="-594" rx="41.6928" ry="18"/>
<text text-anchor="middle" x="762.096" y="-590.3" font-family="Times,serif" font-size="14.00">48 (1): 1</text>
</a>
</g>
</g>
<!-- 49&#45;&gt;48 -->
<g id="edge36" class="edge"><title>49&#45;&gt;48</title>
<path fill="none" stroke="black" d="M762.096,-647.697C762.096,-639.983 762.096,-630.712 762.096,-622.112"/>
<polygon fill="black" stroke="black" points="765.596,-622.104 762.096,-612.104 758.596,-622.104 765.596,-622.104"/>
</g>
</g>
</svg>
