<?xml version="1.0" encoding="UTF-8" standalone="no"?>
<!DOCTYPE svg PUBLIC "-//W3C//DTD SVG 1.1//EN"
 "http://www.w3.org/Graphics/SVG/1.1/DTD/svg11.dtd">
<!-- Generated by graphviz version 2.38.0 (20140413.2041)
 -->
<!-- Title: %3 Pages: 1 -->
<svg width="692pt" height="404pt"
 viewBox="0.00 0.00 691.50 404.00" xmlns="http://www.w3.org/2000/svg" xmlns:xlink="http://www.w3.org/1999/xlink">
<g id="graph0" class="graph" transform="scale(1 1) rotate(0) translate(4 400)">
<title>%3</title>
<polygon fill="white" stroke="none" points="-4,4 -4,-400 687.5,-400 687.5,4 -4,4"/>
<!-- p0 -->
<g id="node1" class="node"><title>p0</title>
<path fill="none" stroke="black" d="M47,-108C47,-108 12,-108 12,-108 6,-108 0,-102 0,-96 0,-96 0,-84 0,-84 0,-78 6,-72 12,-72 12,-72 47,-72 47,-72 53,-72 59,-78 59,-84 59,-84 59,-96 59,-96 59,-102 53,-108 47,-108"/>
<text text-anchor="middle" x="29.5" y="-86.3" font-family="Times,serif" font-size="14.00">path (2)</text>
</g>
<!-- v2 -->
<g id="node2" class="node"><title>v2</title>
<ellipse fill="none" stroke="black" cx="218.5" cy="-162" rx="27" ry="18"/>
<text text-anchor="middle" x="218.5" y="-158.3" font-family="Times,serif" font-size="14.00">2</text>
</g>
<!-- p1 -->
<g id="node3" class="node"><title>p1</title>
<path fill="none" stroke="black" d="M124,-108C124,-108 89,-108 89,-108 83,-108 77,-102 77,-96 77,-96 77,-84 77,-84 77,-78 83,-72 89,-72 89,-72 124,-72 124,-72 130,-72 136,-78 136,-84 136,-84 136,-96 136,-96 136,-102 130,-108 124,-108"/>
<text text-anchor="middle" x="106.5" y="-86.3" font-family="Times,serif" font-size="14.00">path (2)</text>
</g>
<!-- v4 -->
<g id="node4" class="node"><title>v4</title>
<ellipse fill="none" stroke="black" cx="290.5" cy="-162" rx="27" ry="18"/>
<text text-anchor="middle" x="290.5" y="-158.3" font-family="Times,serif" font-size="14.00">4</text>
</g>
<!-- v4&#45;&gt;p0 -->
<g id="edge6" class="edge"><title>v4&#45;&gt;p0</title>
<path fill="none" stroke="black" d="M269.922,-150.2C264.969,-147.906 259.625,-145.674 254.5,-144 177.031,-118.698 150.212,-132.341 68.7824,-108.014"/>
<polygon fill="black" stroke="black" points="69.7058,-104.636 59.1182,-105.028 67.6392,-111.324 69.7058,-104.636"/>
</g>
<!-- v4&#45;&gt;p1 -->
<g id="edge22" class="edge"><title>v4&#45;&gt;p1</title>
<path fill="none" stroke="black" d="M269.37,-150.496C264.533,-148.239 259.378,-145.949 254.5,-144 207.123,-125.072 193.157,-126.212 145.5,-108 145.405,-107.964 145.31,-107.927 145.215,-107.891"/>
<polygon fill="black" stroke="black" points="146.779,-104.747 136.194,-104.279 144.177,-111.245 146.779,-104.747"/>
</g>
<!-- v7 -->
<g id="node6" class="node"><title>v7</title>
<ellipse fill="none" stroke="black" cx="181.5" cy="-90" rx="27" ry="18"/>
<text text-anchor="middle" x="181.5" y="-86.3" font-family="Times,serif" font-size="14.00">7</text>
</g>
<!-- v4&#45;&gt;v7 -->
<g id="edge1" class="edge"><title>v4&#45;&gt;v7</title>
<path fill="none" stroke="black" d="M271.514,-148.807C254.165,-137.665 228.311,-121.062 208.757,-108.504"/>
<polygon fill="black" stroke="black" points="210.574,-105.512 200.269,-103.053 206.792,-111.402 210.574,-105.512"/>
</g>
<!-- v11 -->
<g id="node10" class="node"><title>v11</title>
<ellipse fill="none" stroke="black" cx="253.5" cy="-90" rx="27" ry="18"/>
<text text-anchor="middle" x="253.5" y="-86.3" font-family="Times,serif" font-size="14.00">11</text>
</g>
<!-- v4&#45;&gt;v11 -->
<g id="edge14" class="edge"><title>v4&#45;&gt;v11</title>
<path fill="none" stroke="black" d="M281.918,-144.765C277.435,-136.283 271.849,-125.714 266.819,-116.197"/>
<polygon fill="black" stroke="black" points="269.802,-114.353 262.035,-107.147 263.614,-117.624 269.802,-114.353"/>
</g>
<!-- p2 -->
<g id="node11" class="node"><title>p2</title>
<path fill="none" stroke="black" d="M346,-108C346,-108 311,-108 311,-108 305,-108 299,-102 299,-96 299,-96 299,-84 299,-84 299,-78 305,-72 311,-72 311,-72 346,-72 346,-72 352,-72 358,-78 358,-84 358,-84 358,-96 358,-96 358,-102 352,-108 346,-108"/>
<text text-anchor="middle" x="328.5" y="-86.3" font-family="Times,serif" font-size="14.00">path (3)</text>
</g>
<!-- v4&#45;&gt;p2 -->
<g id="edge18" class="edge"><title>v4&#45;&gt;p2</title>
<path fill="none" stroke="black" d="M299.313,-144.765C303.786,-136.525 309.328,-126.317 314.377,-117.016"/>
<polygon fill="black" stroke="black" points="317.509,-118.582 319.204,-108.124 311.357,-115.243 317.509,-118.582"/>
</g>
<!-- p4 -->
<g id="node14" class="node"><title>p4</title>
<path fill="none" stroke="black" d="M423,-108C423,-108 388,-108 388,-108 382,-108 376,-102 376,-96 376,-96 376,-84 376,-84 376,-78 382,-72 388,-72 388,-72 423,-72 423,-72 429,-72 435,-78 435,-84 435,-84 435,-96 435,-96 435,-102 429,-108 423,-108"/>
<text text-anchor="middle" x="405.5" y="-86.3" font-family="Times,serif" font-size="14.00">path (2)</text>
</g>
<!-- v4&#45;&gt;p4 -->
<g id="edge2" class="edge"><title>v4&#45;&gt;p4</title>
<path fill="none" stroke="black" d="M309.748,-149.284C325.829,-139.496 349.213,-125.262 368.847,-113.311"/>
<polygon fill="black" stroke="black" points="370.842,-116.194 377.564,-108.004 367.202,-110.214 370.842,-116.194"/>
</g>
<!-- p5 -->
<g id="node18" class="node"><title>p5</title>
<path fill="none" stroke="black" d="M500,-108C500,-108 465,-108 465,-108 459,-108 453,-102 453,-96 453,-96 453,-84 453,-84 453,-78 459,-72 465,-72 465,-72 500,-72 500,-72 506,-72 512,-78 512,-84 512,-84 512,-96 512,-96 512,-102 506,-108 500,-108"/>
<text text-anchor="middle" x="482.5" y="-86.3" font-family="Times,serif" font-size="14.00">path (2)</text>
</g>
<!-- v4&#45;&gt;p5 -->
<g id="edge9" class="edge"><title>v4&#45;&gt;p5</title>
<path fill="none" stroke="black" d="M311.601,-150.421C316.44,-148.168 321.602,-145.899 326.5,-144 377.227,-124.334 392.482,-126.9 443.5,-108 443.595,-107.965 443.691,-107.929 443.786,-107.894"/>
<polygon fill="black" stroke="black" points="444.801,-111.256 452.83,-104.343 442.243,-104.74 444.801,-111.256"/>
</g>
<!-- v29 -->
<g id="node23" class="node"><title>v29</title>
<ellipse fill="none" stroke="black" cx="557.5" cy="-90" rx="27" ry="18"/>
<text text-anchor="middle" x="557.5" y="-86.3" font-family="Times,serif" font-size="14.00">29</text>
</g>
<!-- v4&#45;&gt;v29 -->
<g id="edge10" class="edge"><title>v4&#45;&gt;v29</title>
<path fill="none" stroke="black" d="M311.069,-150.176C316.024,-147.882 321.37,-145.657 326.5,-144 409.952,-117.054 436.908,-134.508 520.5,-108 522.774,-107.279 525.092,-106.452 527.402,-105.561"/>
<polygon fill="black" stroke="black" points="528.869,-108.741 536.726,-101.633 526.151,-102.29 528.869,-108.741"/>
</g>
<!-- v5 -->
<g id="node5" class="node"><title>v5</title>
<ellipse fill="none" stroke="black" cx="440.5" cy="-234" rx="27" ry="18"/>
<text text-anchor="middle" x="440.5" y="-230.3" font-family="Times,serif" font-size="14.00">5</text>
</g>
<!-- v5&#45;&gt;v2 -->
<g id="edge24" class="edge"><title>v5&#45;&gt;v2</title>
<path fill="none" stroke="black" d="M415.411,-227.237C379.282,-218.628 310.763,-201.138 254.5,-180 252.656,-179.307 250.776,-178.558 248.892,-177.773"/>
<polygon fill="black" stroke="black" points="250.134,-174.496 239.572,-173.655 247.304,-180.898 250.134,-174.496"/>
</g>
<!-- v5&#45;&gt;v4 -->
<g id="edge11" class="edge"><title>v5&#45;&gt;v4</title>
<path fill="none" stroke="black" d="M418.627,-222.878C395.664,-212.241 358.518,-195.002 326.5,-180 324.716,-179.164 322.883,-178.304 321.035,-177.435"/>
<polygon fill="black" stroke="black" points="322.348,-174.185 311.81,-173.089 319.365,-180.517 322.348,-174.185"/>
</g>
<!-- p3 -->
<g id="node12" class="node"><title>p3</title>
<path fill="none" stroke="black" d="M383,-180C383,-180 348,-180 348,-180 342,-180 336,-174 336,-168 336,-168 336,-156 336,-156 336,-150 342,-144 348,-144 348,-144 383,-144 383,-144 389,-144 395,-150 395,-156 395,-156 395,-168 395,-168 395,-174 389,-180 383,-180"/>
<text text-anchor="middle" x="365.5" y="-158.3" font-family="Times,serif" font-size="14.00">path (2)</text>
</g>
<!-- v5&#45;&gt;p3 -->
<g id="edge19" class="edge"><title>v5&#45;&gt;p3</title>
<path fill="none" stroke="black" d="M425.323,-218.834C415.585,-209.746 402.69,-197.71 391.366,-187.141"/>
<polygon fill="black" stroke="black" points="393.534,-184.377 383.835,-180.113 388.758,-189.495 393.534,-184.377"/>
</g>
<!-- v16 -->
<g id="node13" class="node"><title>v16</title>
<ellipse fill="none" stroke="black" cx="440.5" cy="-162" rx="27" ry="18"/>
<text text-anchor="middle" x="440.5" y="-158.3" font-family="Times,serif" font-size="14.00">16</text>
</g>
<!-- v5&#45;&gt;v16 -->
<g id="edge16" class="edge"><title>v5&#45;&gt;v16</title>
<path fill="none" stroke="black" d="M440.5,-215.697C440.5,-207.983 440.5,-198.712 440.5,-190.112"/>
<polygon fill="black" stroke="black" points="444,-190.104 440.5,-180.104 437,-190.104 444,-190.104"/>
</g>
<!-- v28 -->
<g id="node22" class="node"><title>v28</title>
<ellipse fill="none" stroke="black" cx="512.5" cy="-162" rx="27" ry="18"/>
<text text-anchor="middle" x="512.5" y="-158.3" font-family="Times,serif" font-size="14.00">28</text>
</g>
<!-- v5&#45;&gt;v28 -->
<g id="edge12" class="edge"><title>v5&#45;&gt;v28</title>
<path fill="none" stroke="black" d="M451.077,-217.116C460.505,-206.792 474.301,-193.267 486.519,-182.321"/>
<polygon fill="black" stroke="black" points="489.03,-184.775 494.258,-175.56 484.425,-179.503 489.03,-184.775"/>
</g>
<!-- v19 -->
<g id="node15" class="node"><title>v19</title>
<ellipse fill="none" stroke="black" cx="109.5" cy="-18" rx="27" ry="18"/>
<text text-anchor="middle" x="109.5" y="-14.3" font-family="Times,serif" font-size="14.00">19</text>
</g>
<!-- v7&#45;&gt;v19 -->
<g id="edge8" class="edge"><title>v7&#45;&gt;v19</title>
<path fill="none" stroke="black" d="M166.93,-74.8345C156.75,-64.9376 142.976,-51.5462 131.469,-40.3591"/>
<polygon fill="black" stroke="black" points="133.905,-37.8461 124.296,-33.3847 129.026,-42.865 133.905,-37.8461"/>
</g>
<!-- v25 -->
<g id="node19" class="node"><title>v25</title>
<ellipse fill="none" stroke="black" cx="181.5" cy="-18" rx="27" ry="18"/>
<text text-anchor="middle" x="181.5" y="-14.3" font-family="Times,serif" font-size="14.00">25</text>
</g>
<!-- v7&#45;&gt;v25 -->
<g id="edge4" class="edge"><title>v7&#45;&gt;v25</title>
<path fill="none" stroke="black" d="M181.5,-71.6966C181.5,-63.9827 181.5,-54.7125 181.5,-46.1124"/>
<polygon fill="black" stroke="black" points="185,-46.1043 181.5,-36.1043 178,-46.1044 185,-46.1043"/>
</g>
<!-- v30 -->
<g id="node24" class="node"><title>v30</title>
<ellipse fill="none" stroke="black" cx="253.5" cy="-18" rx="27" ry="18"/>
<text text-anchor="middle" x="253.5" y="-14.3" font-family="Times,serif" font-size="14.00">30</text>
</g>
<!-- v7&#45;&gt;v30 -->
<g id="edge20" class="edge"><title>v7&#45;&gt;v30</title>
<path fill="none" stroke="black" d="M196.07,-74.8345C206.25,-64.9376 220.024,-51.5462 231.531,-40.3591"/>
<polygon fill="black" stroke="black" points="233.974,-42.865 238.704,-33.3847 229.095,-37.8461 233.974,-42.865"/>
</g>
<!-- v8 -->
<g id="node7" class="node"><title>v8</title>
<ellipse fill="none" stroke="black" cx="530.5" cy="-378" rx="27" ry="18"/>
<text text-anchor="middle" x="530.5" y="-374.3" font-family="Times,serif" font-size="14.00">8</text>
</g>
<!-- v9 -->
<g id="node8" class="node"><title>v9</title>
<ellipse fill="none" stroke="black" cx="476.5" cy="-306" rx="27" ry="18"/>
<text text-anchor="middle" x="476.5" y="-302.3" font-family="Times,serif" font-size="14.00">9</text>
</g>
<!-- v8&#45;&gt;v9 -->
<g id="edge5" class="edge"><title>v8&#45;&gt;v9</title>
<path fill="none" stroke="black" d="M518.516,-361.465C511.524,-352.402 502.564,-340.786 494.715,-330.612"/>
<polygon fill="black" stroke="black" points="497.33,-328.272 488.451,-322.492 491.788,-332.548 497.33,-328.272"/>
</g>
<!-- v26 -->
<g id="node20" class="node"><title>v26</title>
<ellipse fill="none" stroke="black" cx="584.5" cy="-306" rx="27" ry="18"/>
<text text-anchor="middle" x="584.5" y="-302.3" font-family="Times,serif" font-size="14.00">26</text>
</g>
<!-- v8&#45;&gt;v26 -->
<g id="edge13" class="edge"><title>v8&#45;&gt;v26</title>
<path fill="none" stroke="black" d="M542.484,-361.465C549.476,-352.402 558.436,-340.786 566.285,-330.612"/>
<polygon fill="black" stroke="black" points="569.212,-332.548 572.549,-322.492 563.67,-328.272 569.212,-332.548"/>
</g>
<!-- v9&#45;&gt;v5 -->
<g id="edge23" class="edge"><title>v9&#45;&gt;v5</title>
<path fill="none" stroke="black" d="M468.15,-288.765C463.788,-280.283 458.353,-269.714 453.459,-260.197"/>
<polygon fill="black" stroke="black" points="456.49,-258.439 448.804,-251.147 450.265,-261.641 456.49,-258.439"/>
</g>
<!-- v10 -->
<g id="node9" class="node"><title>v10</title>
<ellipse fill="none" stroke="black" cx="584.5" cy="-162" rx="27" ry="18"/>
<text text-anchor="middle" x="584.5" y="-158.3" font-family="Times,serif" font-size="14.00">10</text>
</g>
<!-- v21 -->
<g id="node16" class="node"><title>v21</title>
<ellipse fill="none" stroke="black" cx="584.5" cy="-234" rx="27" ry="18"/>
<text text-anchor="middle" x="584.5" y="-230.3" font-family="Times,serif" font-size="14.00">21</text>
</g>
<!-- v21&#45;&gt;v10 -->
<g id="edge21" class="edge"><title>v21&#45;&gt;v10</title>
<path fill="none" stroke="black" d="M584.5,-215.697C584.5,-207.983 584.5,-198.712 584.5,-190.112"/>
<polygon fill="black" stroke="black" points="588,-190.104 584.5,-180.104 581,-190.104 588,-190.104"/>
</g>
<!-- v22 -->
<g id="node17" class="node"><title>v22</title>
<ellipse fill="none" stroke="black" cx="656.5" cy="-162" rx="27" ry="18"/>
<text text-anchor="middle" x="656.5" y="-158.3" font-family="Times,serif" font-size="14.00">22</text>
</g>
<!-- v21&#45;&gt;v22 -->
<g id="edge17" class="edge"><title>v21&#45;&gt;v22</title>
<path fill="none" stroke="black" d="M599.07,-218.834C609.25,-208.938 623.024,-195.546 634.531,-184.359"/>
<polygon fill="black" stroke="black" points="636.974,-186.865 641.704,-177.385 632.095,-181.846 636.974,-186.865"/>
</g>
<!-- v26&#45;&gt;v21 -->
<g id="edge3" class="edge"><title>v26&#45;&gt;v21</title>
<path fill="none" stroke="black" d="M584.5,-287.697C584.5,-279.983 584.5,-270.712 584.5,-262.112"/>
<polygon fill="black" stroke="black" points="588,-262.104 584.5,-252.104 581,-262.104 588,-262.104"/>
</g>
<!-- v27 -->
<g id="node21" class="node"><title>v27</title>
<ellipse fill="none" stroke="black" cx="656.5" cy="-234" rx="27" ry="18"/>
<text text-anchor="middle" x="656.5" y="-230.3" font-family="Times,serif" font-size="14.00">27</text>
</g>
<!-- v26&#45;&gt;v27 -->
<g id="edge15" class="edge"><title>v26&#45;&gt;v27</title>
<path fill="none" stroke="black" d="M599.07,-290.834C609.25,-280.938 623.024,-267.546 634.531,-256.359"/>
<polygon fill="black" stroke="black" points="636.974,-258.865 641.704,-249.385 632.095,-253.846 636.974,-258.865"/>
</g>
<!-- v28&#45;&gt;v5 -->
<g id="edge7" class="edge"><title>v28&#45;&gt;v5</title>
<path fill="none" stroke="black" d="M501.958,-178.846C492.519,-189.186 478.684,-202.749 466.441,-213.714"/>
<polygon fill="black" stroke="black" points="463.918,-211.271 458.688,-220.485 468.522,-216.544 463.918,-211.271"/>
</g>
</g>
</svg>
