<?xml version="1.0" encoding="UTF-8" standalone="no"?>
<!DOCTYPE svg PUBLIC "-//W3C//DTD SVG 1.1//EN"
 "http://www.w3.org/Graphics/SVG/1.1/DTD/svg11.dtd">
<!-- Generated by graphviz version 2.38.0 (20140413.2041)
 -->
<!-- Title: %3 Pages: 1 -->
<svg width="452pt" height="188pt"
 viewBox="0.00 0.00 452.00 188.00" xmlns="http://www.w3.org/2000/svg" xmlns:xlink="http://www.w3.org/1999/xlink">
<g id="graph0" class="graph" transform="scale(1 1) rotate(0) translate(4 184)">
<title>%3</title>
<polygon fill="white" stroke="none" points="-4,4 -4,-184 448,-184 448,4 -4,4"/>
<!-- v0 -->
<g id="node1" class="node"><title>v0</title>
<ellipse fill="none" stroke="black" cx="221.5" cy="-90" rx="27" ry="18"/>
<text text-anchor="middle" x="221.5" y="-86.3" font-family="Times,serif" font-size="14.00">0</text>
</g>
<!-- p0 -->
<g id="node3" class="node"><title>p0</title>
<path fill="none" stroke="black" d="M47,-36C47,-36 12,-36 12,-36 6,-36 0,-30 0,-24 0,-24 0,-12 0,-12 0,-6 6,-0 12,-0 12,-0 47,-0 47,-0 53,-0 59,-6 59,-12 59,-12 59,-24 59,-24 59,-30 53,-36 47,-36"/>
<text text-anchor="middle" x="29.5" y="-14.3" font-family="Times,serif" font-size="14.00">path (2)</text>
</g>
<!-- v0&#45;&gt;p0 -->
<g id="edge9" class="edge"><title>v0&#45;&gt;p0</title>
<path fill="none" stroke="black" d="M197.516,-81.4798C168.804,-72.3199 119.131,-55.9754 68.687,-36.3239"/>
<polygon fill="black" stroke="black" points="69.8511,-33.0208 59.2639,-32.617 67.2885,-39.5349 69.8511,-33.0208"/>
</g>
<!-- p2 -->
<g id="node5" class="node"><title>p2</title>
<path fill="none" stroke="black" d="M124,-36C124,-36 89,-36 89,-36 83,-36 77,-30 77,-24 77,-24 77,-12 77,-12 77,-6 83,-0 89,-0 89,-0 124,-0 124,-0 130,-0 136,-6 136,-12 136,-12 136,-24 136,-24 136,-30 130,-36 124,-36"/>
<text text-anchor="middle" x="106.5" y="-14.3" font-family="Times,serif" font-size="14.00">path (3)</text>
</g>
<!-- v0&#45;&gt;p2 -->
<g id="edge7" class="edge"><title>v0&#45;&gt;p2</title>
<path fill="none" stroke="black" d="M202.252,-77.2836C186.171,-67.4957 162.787,-53.2616 143.153,-41.3106"/>
<polygon fill="black" stroke="black" points="144.798,-38.2142 134.436,-36.0044 141.158,-44.1936 144.798,-38.2142"/>
</g>
<!-- p3 -->
<g id="node6" class="node"><title>p3</title>
<path fill="none" stroke="black" d="M201,-36C201,-36 166,-36 166,-36 160,-36 154,-30 154,-24 154,-24 154,-12 154,-12 154,-6 160,-0 166,-0 166,-0 201,-0 201,-0 207,-0 213,-6 213,-12 213,-12 213,-24 213,-24 213,-30 207,-36 201,-36"/>
<text text-anchor="middle" x="183.5" y="-14.3" font-family="Times,serif" font-size="14.00">path (2)</text>
</g>
<!-- v0&#45;&gt;p3 -->
<g id="edge4" class="edge"><title>v0&#45;&gt;p3</title>
<path fill="none" stroke="black" d="M212.687,-72.7646C208.214,-64.5255 202.672,-54.3166 197.623,-45.0157"/>
<polygon fill="black" stroke="black" points="200.643,-43.2426 192.796,-36.1239 194.491,-46.5823 200.643,-43.2426"/>
</g>
<!-- p4 -->
<g id="node7" class="node"><title>p4</title>
<path fill="none" stroke="black" d="M278,-36C278,-36 243,-36 243,-36 237,-36 231,-30 231,-24 231,-24 231,-12 231,-12 231,-6 237,-0 243,-0 243,-0 278,-0 278,-0 284,-0 290,-6 290,-12 290,-12 290,-24 290,-24 290,-30 284,-36 278,-36"/>
<text text-anchor="middle" x="260.5" y="-14.3" font-family="Times,serif" font-size="14.00">path (4)</text>
</g>
<!-- v0&#45;&gt;p4 -->
<g id="edge5" class="edge"><title>v0&#45;&gt;p4</title>
<path fill="none" stroke="black" d="M230.545,-72.7646C235.136,-64.5255 240.824,-54.3166 246.006,-45.0157"/>
<polygon fill="black" stroke="black" points="249.15,-46.5631 250.96,-36.1239 243.035,-43.1561 249.15,-46.5631"/>
</g>
<!-- p6 -->
<g id="node9" class="node"><title>p6</title>
<path fill="none" stroke="black" d="M355,-36C355,-36 320,-36 320,-36 314,-36 308,-30 308,-24 308,-24 308,-12 308,-12 308,-6 314,-0 320,-0 320,-0 355,-0 355,-0 361,-0 367,-6 367,-12 367,-12 367,-24 367,-24 367,-30 361,-36 355,-36"/>
<text text-anchor="middle" x="337.5" y="-14.3" font-family="Times,serif" font-size="14.00">path (3)</text>
</g>
<!-- v0&#45;&gt;p6 -->
<g id="edge3" class="edge"><title>v0&#45;&gt;p6</title>
<path fill="none" stroke="black" d="M240.916,-77.2836C257.136,-67.4957 280.724,-53.2616 300.528,-41.3106"/>
<polygon fill="black" stroke="black" points="302.568,-44.1677 309.321,-36.0044 298.951,-38.1744 302.568,-44.1677"/>
</g>
<!-- p7 -->
<g id="node10" class="node"><title>p7</title>
<path fill="none" stroke="black" d="M432,-36C432,-36 397,-36 397,-36 391,-36 385,-30 385,-24 385,-24 385,-12 385,-12 385,-6 391,-0 397,-0 397,-0 432,-0 432,-0 438,-0 444,-6 444,-12 444,-12 444,-24 444,-24 444,-30 438,-36 432,-36"/>
<text text-anchor="middle" x="414.5" y="-14.3" font-family="Times,serif" font-size="14.00">path (2)</text>
</g>
<!-- v0&#45;&gt;p7 -->
<g id="edge1" class="edge"><title>v0&#45;&gt;p7</title>
<path fill="none" stroke="black" d="M242.594,-78.4042C247.433,-76.1521 252.598,-73.8872 257.5,-72 306.247,-53.2344 322.911,-55.0431 375.312,-36.2095"/>
<polygon fill="black" stroke="black" points="376.602,-39.4642 384.778,-32.7256 374.184,-32.8949 376.602,-39.4642"/>
</g>
<!-- v1 -->
<g id="node2" class="node"><title>v1</title>
<ellipse fill="none" stroke="black" cx="296.5" cy="-162" rx="27" ry="18"/>
<text text-anchor="middle" x="296.5" y="-158.3" font-family="Times,serif" font-size="14.00">1</text>
</g>
<!-- v1&#45;&gt;v0 -->
<g id="edge6" class="edge"><title>v1&#45;&gt;v0</title>
<path fill="none" stroke="black" d="M281.323,-146.834C270.649,-136.872 256.181,-123.369 244.147,-112.137"/>
<polygon fill="black" stroke="black" points="246.354,-109.409 236.655,-105.144 241.577,-114.526 246.354,-109.409"/>
</g>
<!-- p1 -->
<g id="node4" class="node"><title>p1</title>
<path fill="none" stroke="black" d="M314,-108C314,-108 279,-108 279,-108 273,-108 267,-102 267,-96 267,-96 267,-84 267,-84 267,-78 273,-72 279,-72 279,-72 314,-72 314,-72 320,-72 326,-78 326,-84 326,-84 326,-96 326,-96 326,-102 320,-108 314,-108"/>
<text text-anchor="middle" x="296.5" y="-86.3" font-family="Times,serif" font-size="14.00">path (5)</text>
</g>
<!-- v1&#45;&gt;p1 -->
<g id="edge2" class="edge"><title>v1&#45;&gt;p1</title>
<path fill="none" stroke="black" d="M296.5,-143.697C296.5,-135.983 296.5,-126.712 296.5,-118.112"/>
<polygon fill="black" stroke="black" points="300,-118.104 296.5,-108.104 293,-118.104 300,-118.104"/>
</g>
<!-- p5 -->
<g id="node8" class="node"><title>p5</title>
<path fill="none" stroke="black" d="M391,-108C391,-108 356,-108 356,-108 350,-108 344,-102 344,-96 344,-96 344,-84 344,-84 344,-78 350,-72 356,-72 356,-72 391,-72 391,-72 397,-72 403,-78 403,-84 403,-84 403,-96 403,-96 403,-102 397,-108 391,-108"/>
<text text-anchor="middle" x="373.5" y="-86.3" font-family="Times,serif" font-size="14.00">path (2)</text>
</g>
<!-- v1&#45;&gt;p5 -->
<g id="edge8" class="edge"><title>v1&#45;&gt;p5</title>
<path fill="none" stroke="black" d="M312.082,-146.834C322.079,-137.746 335.318,-125.71 346.945,-115.141"/>
<polygon fill="black" stroke="black" points="349.631,-117.429 354.676,-108.113 344.922,-112.25 349.631,-117.429"/>
</g>
</g>
</svg>
