<?xml version="1.0" encoding="UTF-8" standalone="no"?>
<!DOCTYPE svg PUBLIC "-//W3C//DTD SVG 1.1//EN"
 "http://www.w3.org/Graphics/SVG/1.1/DTD/svg11.dtd">
<!-- Generated by graphviz version 2.38.0 (20140413.2041)
 -->
<!-- Title: %3 Pages: 1 -->
<svg width="537pt" height="260pt"
 viewBox="0.00 0.00 536.50 260.00" xmlns="http://www.w3.org/2000/svg" xmlns:xlink="http://www.w3.org/1999/xlink">
<g id="graph0" class="graph" transform="scale(1 1) rotate(0) translate(4 256)">
<title>%3</title>
<polygon fill="white" stroke="none" points="-4,4 -4,-256 532.5,-256 532.5,4 -4,4"/>
<!-- p0 -->
<g id="node1" class="node"><title>p0</title>
<path fill="none" stroke="black" d="M47,-36C47,-36 12,-36 12,-36 6,-36 0,-30 0,-24 0,-24 0,-12 0,-12 0,-6 6,-0 12,-0 12,-0 47,-0 47,-0 53,-0 59,-6 59,-12 59,-12 59,-24 59,-24 59,-30 53,-36 47,-36"/>
<text text-anchor="middle" x="29.5" y="-14.3" font-family="Times,serif" font-size="14.00">path (2)</text>
</g>
<!-- v1 -->
<g id="node2" class="node"><title>v1</title>
<ellipse fill="none" stroke="black" cx="104.5" cy="-18" rx="27" ry="18"/>
<text text-anchor="middle" x="104.5" y="-14.3" font-family="Times,serif" font-size="14.00">1</text>
</g>
<!-- v2 -->
<g id="node3" class="node"><title>v2</title>
<ellipse fill="none" stroke="black" cx="176.5" cy="-18" rx="27" ry="18"/>
<text text-anchor="middle" x="176.5" y="-14.3" font-family="Times,serif" font-size="14.00">2</text>
</g>
<!-- v3 -->
<g id="node4" class="node"><title>v3</title>
<ellipse fill="none" stroke="black" cx="213.5" cy="-90" rx="27" ry="18"/>
<text text-anchor="middle" x="213.5" y="-86.3" font-family="Times,serif" font-size="14.00">3</text>
</g>
<!-- v3&#45;&gt;p0 -->
<g id="edge7" class="edge"><title>v3&#45;&gt;p0</title>
<path fill="none" stroke="black" d="M189.979,-80.8961C161.158,-70.8531 110.926,-52.9822 68.5,-36 68.4057,-35.9623 68.3113,-35.9244 68.2168,-35.8865"/>
<polygon fill="black" stroke="black" points="69.8114,-32.7582 59.2323,-32.1813 67.1426,-39.2296 69.8114,-32.7582"/>
</g>
<!-- v3&#45;&gt;v1 -->
<g id="edge4" class="edge"><title>v3&#45;&gt;v1</title>
<path fill="none" stroke="black" d="M194.514,-76.8069C177.165,-65.6653 151.311,-49.0622 131.757,-36.5043"/>
<polygon fill="black" stroke="black" points="133.574,-33.5121 123.269,-31.0533 129.792,-39.4021 133.574,-33.5121"/>
</g>
<!-- v3&#45;&gt;v2 -->
<g id="edge1" class="edge"><title>v3&#45;&gt;v2</title>
<path fill="none" stroke="black" d="M204.918,-72.7646C200.435,-64.2831 194.849,-53.7144 189.819,-44.1974"/>
<polygon fill="black" stroke="black" points="192.802,-42.3527 185.035,-35.1473 186.614,-45.6239 192.802,-42.3527"/>
</g>
<!-- p1 -->
<g id="node9" class="node"><title>p1</title>
<path fill="none" stroke="black" d="M269,-36C269,-36 234,-36 234,-36 228,-36 222,-30 222,-24 222,-24 222,-12 222,-12 222,-6 228,-0 234,-0 234,-0 269,-0 269,-0 275,-0 281,-6 281,-12 281,-12 281,-24 281,-24 281,-30 275,-36 269,-36"/>
<text text-anchor="middle" x="251.5" y="-14.3" font-family="Times,serif" font-size="14.00">path (6)</text>
</g>
<!-- v3&#45;&gt;p1 -->
<g id="edge12" class="edge"><title>v3&#45;&gt;p1</title>
<path fill="none" stroke="black" d="M222.313,-72.7646C226.786,-64.5255 232.328,-54.3166 237.377,-45.0157"/>
<polygon fill="black" stroke="black" points="240.509,-46.5823 242.204,-36.1239 234.357,-43.2426 240.509,-46.5823"/>
</g>
<!-- v16 -->
<g id="node11" class="node"><title>v16</title>
<ellipse fill="none" stroke="black" cx="326.5" cy="-18" rx="27" ry="18"/>
<text text-anchor="middle" x="326.5" y="-14.3" font-family="Times,serif" font-size="14.00">16</text>
</g>
<!-- v3&#45;&gt;v16 -->
<g id="edge10" class="edge"><title>v3&#45;&gt;v16</title>
<path fill="none" stroke="black" d="M232.669,-77.1255C250.77,-65.9126 278.123,-48.9681 298.633,-36.2626"/>
<polygon fill="black" stroke="black" points="300.579,-39.1744 307.237,-30.9328 296.893,-33.2236 300.579,-39.1744"/>
</g>
<!-- v17 -->
<g id="node12" class="node"><title>v17</title>
<ellipse fill="none" stroke="black" cx="398.5" cy="-18" rx="27" ry="18"/>
<text text-anchor="middle" x="398.5" y="-14.3" font-family="Times,serif" font-size="14.00">17</text>
</g>
<!-- v3&#45;&gt;v17 -->
<g id="edge11" class="edge"><title>v3&#45;&gt;v17</title>
<path fill="none" stroke="black" d="M237.258,-81.3609C266.896,-71.6462 318.975,-53.9656 362.5,-36 364.321,-35.2484 366.182,-34.4535 368.053,-33.6342"/>
<polygon fill="black" stroke="black" points="369.676,-36.7413 377.336,-29.4222 366.784,-30.3668 369.676,-36.7413"/>
</g>
<!-- v4 -->
<g id="node5" class="node"><title>v4</title>
<ellipse fill="none" stroke="black" cx="213.5" cy="-162" rx="27" ry="18"/>
<text text-anchor="middle" x="213.5" y="-158.3" font-family="Times,serif" font-size="14.00">4</text>
</g>
<!-- v4&#45;&gt;v3 -->
<g id="edge9" class="edge"><title>v4&#45;&gt;v3</title>
<path fill="none" stroke="black" d="M213.5,-143.697C213.5,-135.983 213.5,-126.712 213.5,-118.112"/>
<polygon fill="black" stroke="black" points="217,-118.104 213.5,-108.104 210,-118.104 217,-118.104"/>
</g>
<!-- v5 -->
<g id="node6" class="node"><title>v5</title>
<ellipse fill="none" stroke="black" cx="357.5" cy="-234" rx="27" ry="18"/>
<text text-anchor="middle" x="357.5" y="-230.3" font-family="Times,serif" font-size="14.00">5</text>
</g>
<!-- v5&#45;&gt;v4 -->
<g id="edge6" class="edge"><title>v5&#45;&gt;v4</title>
<path fill="none" stroke="black" d="M336.252,-222.671C311.898,-210.832 271.781,-191.331 244.072,-177.862"/>
<polygon fill="black" stroke="black" points="245.359,-174.595 234.835,-173.371 242.298,-180.891 245.359,-174.595"/>
</g>
<!-- v6 -->
<g id="node7" class="node"><title>v6</title>
<ellipse fill="none" stroke="black" cx="285.5" cy="-162" rx="27" ry="18"/>
<text text-anchor="middle" x="285.5" y="-158.3" font-family="Times,serif" font-size="14.00">6</text>
</g>
<!-- v5&#45;&gt;v6 -->
<g id="edge3" class="edge"><title>v5&#45;&gt;v6</title>
<path fill="none" stroke="black" d="M342.93,-218.834C332.75,-208.938 318.976,-195.546 307.469,-184.359"/>
<polygon fill="black" stroke="black" points="309.905,-181.846 300.296,-177.385 305.026,-186.865 309.905,-181.846"/>
</g>
<!-- v7 -->
<g id="node8" class="node"><title>v7</title>
<ellipse fill="none" stroke="black" cx="357.5" cy="-162" rx="27" ry="18"/>
<text text-anchor="middle" x="357.5" y="-158.3" font-family="Times,serif" font-size="14.00">7</text>
</g>
<!-- v5&#45;&gt;v7 -->
<g id="edge2" class="edge"><title>v5&#45;&gt;v7</title>
<path fill="none" stroke="black" d="M357.5,-215.697C357.5,-207.983 357.5,-198.712 357.5,-190.112"/>
<polygon fill="black" stroke="black" points="361,-190.104 357.5,-180.104 354,-190.104 361,-190.104"/>
</g>
<!-- v15 -->
<g id="node10" class="node"><title>v15</title>
<ellipse fill="none" stroke="black" cx="429.5" cy="-162" rx="27" ry="18"/>
<text text-anchor="middle" x="429.5" y="-158.3" font-family="Times,serif" font-size="14.00">15</text>
</g>
<!-- v5&#45;&gt;v15 -->
<g id="edge8" class="edge"><title>v5&#45;&gt;v15</title>
<path fill="none" stroke="black" d="M372.07,-218.834C382.25,-208.938 396.024,-195.546 407.531,-184.359"/>
<polygon fill="black" stroke="black" points="409.974,-186.865 414.704,-177.385 405.095,-181.846 409.974,-186.865"/>
</g>
<!-- v18 -->
<g id="node13" class="node"><title>v18</title>
<ellipse fill="none" stroke="black" cx="501.5" cy="-162" rx="27" ry="18"/>
<text text-anchor="middle" x="501.5" y="-158.3" font-family="Times,serif" font-size="14.00">18</text>
</g>
<!-- v5&#45;&gt;v18 -->
<g id="edge5" class="edge"><title>v5&#45;&gt;v18</title>
<path fill="none" stroke="black" d="M378.748,-222.671C403.102,-210.832 443.219,-191.331 470.928,-177.862"/>
<polygon fill="black" stroke="black" points="472.702,-180.891 480.165,-173.371 469.641,-174.595 472.702,-180.891"/>
</g>
</g>
</svg>
