<?xml version="1.0" encoding="UTF-8" standalone="no"?>
<!DOCTYPE svg PUBLIC "-//W3C//DTD SVG 1.1//EN"
 "http://www.w3.org/Graphics/SVG/1.1/DTD/svg11.dtd">
<!-- Generated by graphviz version 2.38.0 (20140413.2041)
 -->
<!-- Title: %3 Pages: 1 -->
<svg width="294pt" height="332pt"
 viewBox="0.00 0.00 294.00 332.00" xmlns="http://www.w3.org/2000/svg" xmlns:xlink="http://www.w3.org/1999/xlink">
<g id="graph0" class="graph" transform="scale(1 1) rotate(0) translate(4 328)">
<title>%3</title>
<polygon fill="white" stroke="none" points="-4,4 -4,-328 290,-328 290,4 -4,4"/>
<!-- p0 -->
<g id="node1" class="node"><title>p0</title>
<path fill="none" stroke="black" d="M47,-108C47,-108 12,-108 12,-108 6,-108 0,-102 0,-96 0,-96 0,-84 0,-84 0,-78 6,-72 12,-72 12,-72 47,-72 47,-72 53,-72 59,-78 59,-84 59,-84 59,-96 59,-96 59,-102 53,-108 47,-108"/>
<text text-anchor="middle" x="29.5" y="-86.3" font-family="Times,serif" font-size="14.00">path (3)</text>
</g>
<!-- v1 -->
<g id="node2" class="node"><title>v1</title>
<ellipse fill="none" stroke="black" cx="68.5" cy="-18" rx="27" ry="18"/>
<text text-anchor="middle" x="68.5" y="-14.3" font-family="Times,serif" font-size="14.00">1</text>
</g>
<!-- v2 -->
<g id="node3" class="node"><title>v2</title>
<ellipse fill="none" stroke="black" cx="104.5" cy="-90" rx="27" ry="18"/>
<text text-anchor="middle" x="104.5" y="-86.3" font-family="Times,serif" font-size="14.00">2</text>
</g>
<!-- v2&#45;&gt;v1 -->
<g id="edge5" class="edge"><title>v2&#45;&gt;v1</title>
<path fill="none" stroke="black" d="M96.1504,-72.7646C91.7885,-64.2831 86.3531,-53.7144 81.4587,-44.1974"/>
<polygon fill="black" stroke="black" points="84.4904,-42.4395 76.8043,-35.1473 78.2654,-45.6409 84.4904,-42.4395"/>
</g>
<!-- v7 -->
<g id="node7" class="node"><title>v7</title>
<ellipse fill="none" stroke="black" cx="140.5" cy="-18" rx="27" ry="18"/>
<text text-anchor="middle" x="140.5" y="-14.3" font-family="Times,serif" font-size="14.00">7</text>
</g>
<!-- v2&#45;&gt;v7 -->
<g id="edge1" class="edge"><title>v2&#45;&gt;v7</title>
<path fill="none" stroke="black" d="M112.85,-72.7646C117.212,-64.2831 122.647,-53.7144 127.541,-44.1974"/>
<polygon fill="black" stroke="black" points="130.735,-45.6409 132.196,-35.1473 124.51,-42.4395 130.735,-45.6409"/>
</g>
<!-- v3 -->
<g id="node4" class="node"><title>v3</title>
<ellipse fill="none" stroke="black" cx="179.5" cy="-234" rx="27" ry="18"/>
<text text-anchor="middle" x="179.5" y="-230.3" font-family="Times,serif" font-size="14.00">3</text>
</g>
<!-- v6 -->
<g id="node6" class="node"><title>v6</title>
<ellipse fill="none" stroke="black" cx="104.5" cy="-162" rx="27" ry="18"/>
<text text-anchor="middle" x="104.5" y="-158.3" font-family="Times,serif" font-size="14.00">6</text>
</g>
<!-- v3&#45;&gt;v6 -->
<g id="edge8" class="edge"><title>v3&#45;&gt;v6</title>
<path fill="none" stroke="black" d="M164.323,-218.834C153.649,-208.872 139.181,-195.369 127.147,-184.137"/>
<polygon fill="black" stroke="black" points="129.354,-181.409 119.655,-177.144 124.577,-186.526 129.354,-181.409"/>
</g>
<!-- p2 -->
<g id="node9" class="node"><title>p2</title>
<path fill="none" stroke="black" d="M197,-180C197,-180 162,-180 162,-180 156,-180 150,-174 150,-168 150,-168 150,-156 150,-156 150,-150 156,-144 162,-144 162,-144 197,-144 197,-144 203,-144 209,-150 209,-156 209,-156 209,-168 209,-168 209,-174 203,-180 197,-180"/>
<text text-anchor="middle" x="179.5" y="-158.3" font-family="Times,serif" font-size="14.00">path (2)</text>
</g>
<!-- v3&#45;&gt;p2 -->
<g id="edge4" class="edge"><title>v3&#45;&gt;p2</title>
<path fill="none" stroke="black" d="M179.5,-215.697C179.5,-207.983 179.5,-198.712 179.5,-190.112"/>
<polygon fill="black" stroke="black" points="183,-190.104 179.5,-180.104 176,-190.104 183,-190.104"/>
</g>
<!-- p3 -->
<g id="node10" class="node"><title>p3</title>
<path fill="none" stroke="black" d="M274,-180C274,-180 239,-180 239,-180 233,-180 227,-174 227,-168 227,-168 227,-156 227,-156 227,-150 233,-144 239,-144 239,-144 274,-144 274,-144 280,-144 286,-150 286,-156 286,-156 286,-168 286,-168 286,-174 280,-180 274,-180"/>
<text text-anchor="middle" x="256.5" y="-158.3" font-family="Times,serif" font-size="14.00">path (2)</text>
</g>
<!-- v3&#45;&gt;p3 -->
<g id="edge9" class="edge"><title>v3&#45;&gt;p3</title>
<path fill="none" stroke="black" d="M195.082,-218.834C205.079,-209.746 218.318,-197.71 229.945,-187.141"/>
<polygon fill="black" stroke="black" points="232.631,-189.429 237.676,-180.113 227.922,-184.25 232.631,-189.429"/>
</g>
<!-- p1 -->
<g id="node5" class="node"><title>p1</title>
<path fill="none" stroke="black" d="M197,-108C197,-108 162,-108 162,-108 156,-108 150,-102 150,-96 150,-96 150,-84 150,-84 150,-78 156,-72 162,-72 162,-72 197,-72 197,-72 203,-72 209,-78 209,-84 209,-84 209,-96 209,-96 209,-102 203,-108 197,-108"/>
<text text-anchor="middle" x="179.5" y="-86.3" font-family="Times,serif" font-size="14.00">path (6)</text>
</g>
<!-- v6&#45;&gt;p0 -->
<g id="edge7" class="edge"><title>v6&#45;&gt;p0</title>
<path fill="none" stroke="black" d="M89.3226,-146.834C79.5849,-137.746 66.6898,-125.71 55.3657,-115.141"/>
<polygon fill="black" stroke="black" points="57.5338,-112.377 47.8351,-108.113 52.7575,-117.495 57.5338,-112.377"/>
</g>
<!-- v6&#45;&gt;v2 -->
<g id="edge6" class="edge"><title>v6&#45;&gt;v2</title>
<path fill="none" stroke="black" d="M104.5,-143.697C104.5,-135.983 104.5,-126.712 104.5,-118.112"/>
<polygon fill="black" stroke="black" points="108,-118.104 104.5,-108.104 101,-118.104 108,-118.104"/>
</g>
<!-- v6&#45;&gt;p1 -->
<g id="edge2" class="edge"><title>v6&#45;&gt;p1</title>
<path fill="none" stroke="black" d="M119.677,-146.834C129.415,-137.746 142.31,-125.71 153.634,-115.141"/>
<polygon fill="black" stroke="black" points="156.242,-117.495 161.165,-108.113 151.466,-112.377 156.242,-117.495"/>
</g>
<!-- v9 -->
<g id="node8" class="node"><title>v9</title>
<ellipse fill="none" stroke="black" cx="179.5" cy="-306" rx="27" ry="18"/>
<text text-anchor="middle" x="179.5" y="-302.3" font-family="Times,serif" font-size="14.00">9</text>
</g>
<!-- v9&#45;&gt;v3 -->
<g id="edge3" class="edge"><title>v9&#45;&gt;v3</title>
<path fill="none" stroke="black" d="M179.5,-287.697C179.5,-279.983 179.5,-270.712 179.5,-262.112"/>
<polygon fill="black" stroke="black" points="183,-262.104 179.5,-252.104 176,-262.104 183,-262.104"/>
</g>
</g>
</svg>
