<?xml version="1.0" encoding="UTF-8" standalone="no"?>
<!DOCTYPE svg PUBLIC "-//W3C//DTD SVG 1.1//EN"
 "http://www.w3.org/Graphics/SVG/1.1/DTD/svg11.dtd">
<!-- Generated by graphviz version 2.38.0 (20140413.2041)
 -->
<!-- Title: %3 Pages: 1 -->
<svg width="332pt" height="404pt"
 viewBox="0.00 0.00 331.50 404.00" xmlns="http://www.w3.org/2000/svg" xmlns:xlink="http://www.w3.org/1999/xlink">
<g id="graph0" class="graph" transform="scale(1 1) rotate(0) translate(4 400)">
<title>%3</title>
<polygon fill="white" stroke="none" points="-4,4 -4,-400 327.5,-400 327.5,4 -4,4"/>
<!-- v0 -->
<g id="node1" class="node"><title>v0</title>
<ellipse fill="none" stroke="black" cx="28" cy="-306" rx="27" ry="18"/>
<text text-anchor="middle" x="28" y="-302.3" font-family="Times,serif" font-size="14.00">0</text>
</g>
<!-- v1 -->
<g id="node2" class="node"><title>v1</title>
<ellipse fill="none" stroke="black" cx="178" cy="-234" rx="27" ry="18"/>
<text text-anchor="middle" x="178" y="-230.3" font-family="Times,serif" font-size="14.00">1</text>
</g>
<!-- p0 -->
<g id="node3" class="node"><title>p0</title>
<path fill="none" stroke="black" d="M80.5,-180C80.5,-180 45.5,-180 45.5,-180 39.5,-180 33.5,-174 33.5,-168 33.5,-168 33.5,-156 33.5,-156 33.5,-150 39.5,-144 45.5,-144 45.5,-144 80.5,-144 80.5,-144 86.5,-144 92.5,-150 92.5,-156 92.5,-156 92.5,-168 92.5,-168 92.5,-174 86.5,-180 80.5,-180"/>
<text text-anchor="middle" x="63" y="-158.3" font-family="Times,serif" font-size="14.00">path (5)</text>
</g>
<!-- v1&#45;&gt;p0 -->
<g id="edge7" class="edge"><title>v1&#45;&gt;p0</title>
<path fill="none" stroke="black" d="M158.752,-221.284C142.671,-211.496 119.287,-197.262 99.6531,-185.311"/>
<polygon fill="black" stroke="black" points="101.298,-182.214 90.9358,-180.004 97.6579,-188.194 101.298,-182.214"/>
</g>
<!-- p1 -->
<g id="node4" class="node"><title>p1</title>
<path fill="none" stroke="black" d="M157.5,-180C157.5,-180 122.5,-180 122.5,-180 116.5,-180 110.5,-174 110.5,-168 110.5,-168 110.5,-156 110.5,-156 110.5,-150 116.5,-144 122.5,-144 122.5,-144 157.5,-144 157.5,-144 163.5,-144 169.5,-150 169.5,-156 169.5,-156 169.5,-168 169.5,-168 169.5,-174 163.5,-180 157.5,-180"/>
<text text-anchor="middle" x="140" y="-158.3" font-family="Times,serif" font-size="14.00">path (2)</text>
</g>
<!-- v1&#45;&gt;p1 -->
<g id="edge3" class="edge"><title>v1&#45;&gt;p1</title>
<path fill="none" stroke="black" d="M169.187,-216.765C164.714,-208.525 159.172,-198.317 154.123,-189.016"/>
<polygon fill="black" stroke="black" points="157.143,-187.243 149.296,-180.124 150.991,-190.582 157.143,-187.243"/>
</g>
<!-- p2 -->
<g id="node5" class="node"><title>p2</title>
<path fill="none" stroke="black" d="M234.5,-180C234.5,-180 199.5,-180 199.5,-180 193.5,-180 187.5,-174 187.5,-168 187.5,-168 187.5,-156 187.5,-156 187.5,-150 193.5,-144 199.5,-144 199.5,-144 234.5,-144 234.5,-144 240.5,-144 246.5,-150 246.5,-156 246.5,-156 246.5,-168 246.5,-168 246.5,-174 240.5,-180 234.5,-180"/>
<text text-anchor="middle" x="217" y="-158.3" font-family="Times,serif" font-size="14.00">path (2)</text>
</g>
<!-- v1&#45;&gt;p2 -->
<g id="edge9" class="edge"><title>v1&#45;&gt;p2</title>
<path fill="none" stroke="black" d="M187.045,-216.765C191.636,-208.525 197.324,-198.317 202.506,-189.016"/>
<polygon fill="black" stroke="black" points="205.65,-190.563 207.46,-180.124 199.535,-187.156 205.65,-190.563"/>
</g>
<!-- p4 -->
<g id="node8" class="node"><title>p4</title>
<path fill="none" stroke="black" d="M311.5,-180C311.5,-180 276.5,-180 276.5,-180 270.5,-180 264.5,-174 264.5,-168 264.5,-168 264.5,-156 264.5,-156 264.5,-150 270.5,-144 276.5,-144 276.5,-144 311.5,-144 311.5,-144 317.5,-144 323.5,-150 323.5,-156 323.5,-156 323.5,-168 323.5,-168 323.5,-174 317.5,-180 311.5,-180"/>
<text text-anchor="middle" x="294" y="-158.3" font-family="Times,serif" font-size="14.00">path (3)</text>
</g>
<!-- v1&#45;&gt;p4 -->
<g id="edge10" class="edge"><title>v1&#45;&gt;p4</title>
<path fill="none" stroke="black" d="M197.416,-221.284C213.636,-211.496 237.224,-197.262 257.028,-185.311"/>
<polygon fill="black" stroke="black" points="259.068,-188.168 265.821,-180.004 255.451,-182.174 259.068,-188.168"/>
</g>
<!-- v8 -->
<g id="node6" class="node"><title>v8</title>
<ellipse fill="none" stroke="black" cx="63" cy="-90" rx="27" ry="18"/>
<text text-anchor="middle" x="63" y="-86.3" font-family="Times,serif" font-size="14.00">8</text>
</g>
<!-- p0&#45;&gt;v8 -->
<g id="edge6" class="edge"><title>p0&#45;&gt;v8</title>
<path fill="none" stroke="black" d="M63,-143.697C63,-135.983 63,-126.712 63,-118.112"/>
<polygon fill="black" stroke="black" points="66.5001,-118.104 63,-108.104 59.5001,-118.104 66.5001,-118.104"/>
</g>
<!-- v12 -->
<g id="node9" class="node"><title>v12</title>
<ellipse fill="none" stroke="black" cx="27" cy="-18" rx="27" ry="18"/>
<text text-anchor="middle" x="27" y="-14.3" font-family="Times,serif" font-size="14.00">12</text>
</g>
<!-- v8&#45;&gt;v12 -->
<g id="edge4" class="edge"><title>v8&#45;&gt;v12</title>
<path fill="none" stroke="black" d="M54.6504,-72.7646C50.2885,-64.2831 44.8531,-53.7144 39.9587,-44.1974"/>
<polygon fill="black" stroke="black" points="42.9904,-42.4395 35.3043,-35.1473 36.7654,-45.6409 42.9904,-42.4395"/>
</g>
<!-- v14 -->
<g id="node10" class="node"><title>v14</title>
<ellipse fill="none" stroke="black" cx="99" cy="-18" rx="27" ry="18"/>
<text text-anchor="middle" x="99" y="-14.3" font-family="Times,serif" font-size="14.00">14</text>
</g>
<!-- v8&#45;&gt;v14 -->
<g id="edge1" class="edge"><title>v8&#45;&gt;v14</title>
<path fill="none" stroke="black" d="M71.3496,-72.7646C75.7115,-64.2831 81.1469,-53.7144 86.0413,-44.1974"/>
<polygon fill="black" stroke="black" points="89.2346,-45.6409 90.6957,-35.1473 83.0096,-42.4395 89.2346,-45.6409"/>
</g>
<!-- p3 -->
<g id="node7" class="node"><title>p3</title>
<path fill="none" stroke="black" d="M120.5,-324C120.5,-324 85.5,-324 85.5,-324 79.5,-324 73.5,-318 73.5,-312 73.5,-312 73.5,-300 73.5,-300 73.5,-294 79.5,-288 85.5,-288 85.5,-288 120.5,-288 120.5,-288 126.5,-288 132.5,-294 132.5,-300 132.5,-300 132.5,-312 132.5,-312 132.5,-318 126.5,-324 120.5,-324"/>
<text text-anchor="middle" x="103" y="-302.3" font-family="Times,serif" font-size="14.00">path (2)</text>
</g>
<!-- v16 -->
<g id="node11" class="node"><title>v16</title>
<ellipse fill="none" stroke="black" cx="103" cy="-378" rx="27" ry="18"/>
<text text-anchor="middle" x="103" y="-374.3" font-family="Times,serif" font-size="14.00">16</text>
</g>
<!-- v16&#45;&gt;v0 -->
<g id="edge8" class="edge"><title>v16&#45;&gt;v0</title>
<path fill="none" stroke="black" d="M87.8226,-362.834C77.1486,-352.872 62.6808,-339.369 50.6469,-328.137"/>
<polygon fill="black" stroke="black" points="52.8535,-325.409 43.1548,-321.144 48.0773,-330.526 52.8535,-325.409"/>
</g>
<!-- v16&#45;&gt;p3 -->
<g id="edge5" class="edge"><title>v16&#45;&gt;p3</title>
<path fill="none" stroke="black" d="M103,-359.697C103,-351.983 103,-342.712 103,-334.112"/>
<polygon fill="black" stroke="black" points="106.5,-334.104 103,-324.104 99.5001,-334.104 106.5,-334.104"/>
</g>
<!-- v18 -->
<g id="node12" class="node"><title>v18</title>
<ellipse fill="none" stroke="black" cx="178" cy="-306" rx="27" ry="18"/>
<text text-anchor="middle" x="178" y="-302.3" font-family="Times,serif" font-size="14.00">18</text>
</g>
<!-- v16&#45;&gt;v18 -->
<g id="edge11" class="edge"><title>v16&#45;&gt;v18</title>
<path fill="none" stroke="black" d="M118.177,-362.834C128.851,-352.872 143.319,-339.369 155.353,-328.137"/>
<polygon fill="black" stroke="black" points="157.923,-330.526 162.845,-321.144 153.146,-325.409 157.923,-330.526"/>
</g>
<!-- v18&#45;&gt;v1 -->
<g id="edge2" class="edge"><title>v18&#45;&gt;v1</title>
<path fill="none" stroke="black" d="M178,-287.697C178,-279.983 178,-270.712 178,-262.112"/>
<polygon fill="black" stroke="black" points="181.5,-262.104 178,-252.104 174.5,-262.104 181.5,-262.104"/>
</g>
</g>
</svg>
