<?xml version="1.0" encoding="UTF-8" standalone="no"?>
<!DOCTYPE svg PUBLIC "-//W3C//DTD SVG 1.1//EN"
 "http://www.w3.org/Graphics/SVG/1.1/DTD/svg11.dtd">
<!-- Generated by graphviz version 2.38.0 (20140413.2041)
 -->
<!-- Title: %3 Pages: 1 -->
<svg width="477pt" height="188pt"
 viewBox="0.00 0.00 477.00 188.00" xmlns="http://www.w3.org/2000/svg" xmlns:xlink="http://www.w3.org/1999/xlink">
<g id="graph0" class="graph" transform="scale(1 1) rotate(0) translate(4 184)">
<title>%3</title>
<polygon fill="white" stroke="none" points="-4,4 -4,-184 473,-184 473,4 -4,4"/>
<!-- v0 -->
<g id="node1" class="node"><title>v0</title>
<ellipse fill="none" stroke="black" cx="177" cy="-162" rx="27" ry="18"/>
<text text-anchor="middle" x="177" y="-158.3" font-family="Times,serif" font-size="14.00">0</text>
</g>
<!-- v1 -->
<g id="node2" class="node"><title>v1</title>
<ellipse fill="none" stroke="black" cx="27" cy="-90" rx="27" ry="18"/>
<text text-anchor="middle" x="27" y="-86.3" font-family="Times,serif" font-size="14.00">1</text>
</g>
<!-- v0&#45;&gt;v1 -->
<g id="edge7" class="edge"><title>v0&#45;&gt;v1</title>
<path fill="none" stroke="black" d="M155.127,-150.878C132.164,-140.241 95.0177,-123.002 63,-108 61.2162,-107.164 59.3835,-106.304 57.5347,-105.435"/>
<polygon fill="black" stroke="black" points="58.8485,-102.185 48.3104,-101.089 55.8652,-108.517 58.8485,-102.185"/>
</g>
<!-- v2 -->
<g id="node3" class="node"><title>v2</title>
<ellipse fill="none" stroke="black" cx="99" cy="-90" rx="27" ry="18"/>
<text text-anchor="middle" x="99" y="-86.3" font-family="Times,serif" font-size="14.00">2</text>
</g>
<!-- v0&#45;&gt;v2 -->
<g id="edge9" class="edge"><title>v0&#45;&gt;v2</title>
<path fill="none" stroke="black" d="M161.59,-147.17C150.266,-137.008 134.691,-123.03 121.911,-111.561"/>
<polygon fill="black" stroke="black" points="124.158,-108.875 114.378,-104.801 119.483,-114.085 124.158,-108.875"/>
</g>
<!-- p0 -->
<g id="node5" class="node"><title>p0</title>
<path fill="none" stroke="black" d="M198,-108C198,-108 156,-108 156,-108 150,-108 144,-102 144,-96 144,-96 144,-84 144,-84 144,-78 150,-72 156,-72 156,-72 198,-72 198,-72 204,-72 210,-78 210,-84 210,-84 210,-96 210,-96 210,-102 204,-108 198,-108"/>
<text text-anchor="middle" x="177" y="-86.3" font-family="Times,serif" font-size="14.00">path (10)</text>
</g>
<!-- v0&#45;&gt;p0 -->
<g id="edge4" class="edge"><title>v0&#45;&gt;p0</title>
<path fill="none" stroke="black" d="M177,-143.697C177,-135.983 177,-126.712 177,-118.112"/>
<polygon fill="black" stroke="black" points="180.5,-118.104 177,-108.104 173.5,-118.104 180.5,-118.104"/>
</g>
<!-- p2 -->
<g id="node7" class="node"><title>p2</title>
<path fill="none" stroke="black" d="M275.5,-108C275.5,-108 240.5,-108 240.5,-108 234.5,-108 228.5,-102 228.5,-96 228.5,-96 228.5,-84 228.5,-84 228.5,-78 234.5,-72 240.5,-72 240.5,-72 275.5,-72 275.5,-72 281.5,-72 287.5,-78 287.5,-84 287.5,-84 287.5,-96 287.5,-96 287.5,-102 281.5,-108 275.5,-108"/>
<text text-anchor="middle" x="258" y="-86.3" font-family="Times,serif" font-size="14.00">path (6)</text>
</g>
<!-- v0&#45;&gt;p2 -->
<g id="edge5" class="edge"><title>v0&#45;&gt;p2</title>
<path fill="none" stroke="black" d="M193.003,-147.17C203.668,-137.953 217.964,-125.599 230.433,-114.823"/>
<polygon fill="black" stroke="black" points="233.029,-117.206 238.307,-108.019 228.452,-111.91 233.029,-117.206"/>
</g>
<!-- v8 -->
<g id="node8" class="node"><title>v8</title>
<ellipse fill="none" stroke="black" cx="333" cy="-90" rx="27" ry="18"/>
<text text-anchor="middle" x="333" y="-86.3" font-family="Times,serif" font-size="14.00">8</text>
</g>
<!-- v0&#45;&gt;v8 -->
<g id="edge6" class="edge"><title>v0&#45;&gt;v8</title>
<path fill="none" stroke="black" d="M199.192,-151.398C223.334,-140.907 263.027,-123.521 297,-108 298.792,-107.181 300.631,-106.334 302.484,-105.475"/>
<polygon fill="black" stroke="black" points="304.144,-108.563 311.721,-101.157 301.18,-102.222 304.144,-108.563"/>
</g>
<!-- v3 -->
<g id="node4" class="node"><title>v3</title>
<ellipse fill="none" stroke="black" cx="220" cy="-18" rx="27" ry="18"/>
<text text-anchor="middle" x="220" y="-14.3" font-family="Times,serif" font-size="14.00">3</text>
</g>
<!-- p1 -->
<g id="node6" class="node"><title>p1</title>
<path fill="none" stroke="black" d="M312.5,-36C312.5,-36 277.5,-36 277.5,-36 271.5,-36 265.5,-30 265.5,-24 265.5,-24 265.5,-12 265.5,-12 265.5,-6 271.5,-0 277.5,-0 277.5,-0 312.5,-0 312.5,-0 318.5,-0 324.5,-6 324.5,-12 324.5,-12 324.5,-24 324.5,-24 324.5,-30 318.5,-36 312.5,-36"/>
<text text-anchor="middle" x="295" y="-14.3" font-family="Times,serif" font-size="14.00">path (2)</text>
</g>
<!-- v8&#45;&gt;v3 -->
<g id="edge8" class="edge"><title>v8&#45;&gt;v3</title>
<path fill="none" stroke="black" d="M313.831,-77.1255C295.73,-65.9126 268.377,-48.9681 247.867,-36.2626"/>
<polygon fill="black" stroke="black" points="249.607,-33.2236 239.263,-30.9328 245.921,-39.1744 249.607,-33.2236"/>
</g>
<!-- v8&#45;&gt;p1 -->
<g id="edge2" class="edge"><title>v8&#45;&gt;p1</title>
<path fill="none" stroke="black" d="M324.187,-72.7646C319.714,-64.5255 314.172,-54.3166 309.123,-45.0157"/>
<polygon fill="black" stroke="black" points="312.143,-43.2426 304.296,-36.1239 305.991,-46.5823 312.143,-43.2426"/>
</g>
<!-- v9 -->
<g id="node9" class="node"><title>v9</title>
<ellipse fill="none" stroke="black" cx="370" cy="-18" rx="27" ry="18"/>
<text text-anchor="middle" x="370" y="-14.3" font-family="Times,serif" font-size="14.00">9</text>
</g>
<!-- v8&#45;&gt;v9 -->
<g id="edge1" class="edge"><title>v8&#45;&gt;v9</title>
<path fill="none" stroke="black" d="M341.582,-72.7646C346.065,-64.2831 351.651,-53.7144 356.681,-44.1974"/>
<polygon fill="black" stroke="black" points="359.886,-45.6239 361.465,-35.1473 353.698,-42.3527 359.886,-45.6239"/>
</g>
<!-- v14 -->
<g id="node10" class="node"><title>v14</title>
<ellipse fill="none" stroke="black" cx="442" cy="-18" rx="27" ry="18"/>
<text text-anchor="middle" x="442" y="-14.3" font-family="Times,serif" font-size="14.00">14</text>
</g>
<!-- v8&#45;&gt;v14 -->
<g id="edge3" class="edge"><title>v8&#45;&gt;v14</title>
<path fill="none" stroke="black" d="M351.986,-76.8069C369.335,-65.6653 395.189,-49.0622 414.743,-36.5043"/>
<polygon fill="black" stroke="black" points="416.708,-39.4021 423.231,-31.0533 412.926,-33.5121 416.708,-39.4021"/>
</g>
</g>
</svg>
