<?xml version="1.0" encoding="UTF-8" standalone="no"?>
<!DOCTYPE svg PUBLIC "-//W3C//DTD SVG 1.1//EN"
 "http://www.w3.org/Graphics/SVG/1.1/DTD/svg11.dtd">
<!-- Generated by graphviz version 2.38.0 (20140413.2041)
 -->
<!-- Title: %3 Pages: 1 -->
<svg width="689pt" height="692pt"
 viewBox="0.00 0.00 689.00 692.00" xmlns="http://www.w3.org/2000/svg" xmlns:xlink="http://www.w3.org/1999/xlink">
<g id="graph0" class="graph" transform="scale(1 1) rotate(0) translate(4 688)">
<title>%3</title>
<polygon fill="white" stroke="none" points="-4,4 -4,-688 685,-688 685,4 -4,4"/>
<!-- v0 -->
<g id="node1" class="node"><title>v0</title>
<ellipse fill="none" stroke="black" cx="357" cy="-378" rx="27" ry="18"/>
<text text-anchor="middle" x="357" y="-374.3" font-family="Times,serif" font-size="14.00">0</text>
</g>
<!-- v1 -->
<g id="node2" class="node"><title>v1</title>
<ellipse fill="none" stroke="black" cx="188" cy="-306" rx="27" ry="18"/>
<text text-anchor="middle" x="188" y="-302.3" font-family="Times,serif" font-size="14.00">1</text>
</g>
<!-- v0&#45;&gt;v1 -->
<g id="edge31" class="edge"><title>v0&#45;&gt;v1</title>
<path fill="none" stroke="black" d="M333.755,-368.239C307.066,-358.064 262.066,-340.554 224,-324 222.194,-323.214 220.343,-322.393 218.481,-321.554"/>
<polygon fill="black" stroke="black" points="219.768,-318.293 209.221,-317.288 216.839,-324.651 219.768,-318.293"/>
</g>
<!-- p0 -->
<g id="node5" class="node"><title>p0</title>
<path fill="none" stroke="black" d="M280.5,-324C280.5,-324 245.5,-324 245.5,-324 239.5,-324 233.5,-318 233.5,-312 233.5,-312 233.5,-300 233.5,-300 233.5,-294 239.5,-288 245.5,-288 245.5,-288 280.5,-288 280.5,-288 286.5,-288 292.5,-294 292.5,-300 292.5,-300 292.5,-312 292.5,-312 292.5,-318 286.5,-324 280.5,-324"/>
<text text-anchor="middle" x="263" y="-302.3" font-family="Times,serif" font-size="14.00">path (2)</text>
</g>
<!-- v0&#45;&gt;p0 -->
<g id="edge21" class="edge"><title>v0&#45;&gt;p0</title>
<path fill="none" stroke="black" d="M339.319,-363.834C326.575,-354.343 309.043,-341.288 293.996,-330.082"/>
<polygon fill="black" stroke="black" points="296.05,-327.247 285.939,-324.082 291.869,-332.862 296.05,-327.247"/>
</g>
<!-- p2 -->
<g id="node8" class="node"><title>p2</title>
<path fill="none" stroke="black" d="M357.5,-324C357.5,-324 322.5,-324 322.5,-324 316.5,-324 310.5,-318 310.5,-312 310.5,-312 310.5,-300 310.5,-300 310.5,-294 316.5,-288 322.5,-288 322.5,-288 357.5,-288 357.5,-288 363.5,-288 369.5,-294 369.5,-300 369.5,-300 369.5,-312 369.5,-312 369.5,-318 363.5,-324 357.5,-324"/>
<text text-anchor="middle" x="340" y="-302.3" font-family="Times,serif" font-size="14.00">path (2)</text>
</g>
<!-- v0&#45;&gt;p2 -->
<g id="edge34" class="edge"><title>v0&#45;&gt;p2</title>
<path fill="none" stroke="black" d="M352.885,-360.055C350.992,-352.261 348.7,-342.822 346.576,-334.079"/>
<polygon fill="black" stroke="black" points="349.957,-333.167 344.195,-324.275 343.154,-334.819 349.957,-333.167"/>
</g>
<!-- p4 -->
<g id="node13" class="node"><title>p4</title>
<path fill="none" stroke="black" d="M434.5,-324C434.5,-324 399.5,-324 399.5,-324 393.5,-324 387.5,-318 387.5,-312 387.5,-312 387.5,-300 387.5,-300 387.5,-294 393.5,-288 399.5,-288 399.5,-288 434.5,-288 434.5,-288 440.5,-288 446.5,-294 446.5,-300 446.5,-300 446.5,-312 446.5,-312 446.5,-318 440.5,-324 434.5,-324"/>
<text text-anchor="middle" x="417" y="-302.3" font-family="Times,serif" font-size="14.00">path (2)</text>
</g>
<!-- v0&#45;&gt;p4 -->
<g id="edge7" class="edge"><title>v0&#45;&gt;p4</title>
<path fill="none" stroke="black" d="M370.019,-361.811C377.525,-353.054 387.146,-341.83 395.724,-331.822"/>
<polygon fill="black" stroke="black" points="398.469,-333.997 402.32,-324.127 393.155,-329.442 398.469,-333.997"/>
</g>
<!-- v17 -->
<g id="node14" class="node"><title>v17</title>
<ellipse fill="none" stroke="black" cx="492" cy="-306" rx="27" ry="18"/>
<text text-anchor="middle" x="492" y="-302.3" font-family="Times,serif" font-size="14.00">17</text>
</g>
<!-- v0&#45;&gt;v17 -->
<g id="edge18" class="edge"><title>v0&#45;&gt;v17</title>
<path fill="none" stroke="black" d="M377.798,-366.216C400.458,-354.466 436.891,-335.575 462.5,-322.296"/>
<polygon fill="black" stroke="black" points="464.134,-325.392 471.4,-317.681 460.911,-319.178 464.134,-325.392"/>
</g>
<!-- p5 -->
<g id="node17" class="node"><title>p5</title>
<path fill="none" stroke="black" d="M584.5,-324C584.5,-324 549.5,-324 549.5,-324 543.5,-324 537.5,-318 537.5,-312 537.5,-312 537.5,-300 537.5,-300 537.5,-294 543.5,-288 549.5,-288 549.5,-288 584.5,-288 584.5,-288 590.5,-288 596.5,-294 596.5,-300 596.5,-300 596.5,-312 596.5,-312 596.5,-318 590.5,-324 584.5,-324"/>
<text text-anchor="middle" x="567" y="-302.3" font-family="Times,serif" font-size="14.00">path (5)</text>
</g>
<!-- v0&#45;&gt;p5 -->
<g id="edge16" class="edge"><title>v0&#45;&gt;p5</title>
<path fill="none" stroke="black" d="M378.049,-366.283C382.89,-364.037 388.067,-361.806 393,-360 451.313,-338.655 469.372,-344.464 528,-324 528.096,-323.967 528.192,-323.933 528.288,-323.899"/>
<polygon fill="black" stroke="black" points="529.258,-327.274 537.373,-320.463 526.781,-320.727 529.258,-327.274"/>
</g>
<!-- v60 -->
<g id="node39" class="node"><title>v60</title>
<ellipse fill="none" stroke="black" cx="188" cy="-234" rx="27" ry="18"/>
<text text-anchor="middle" x="188" y="-230.3" font-family="Times,serif" font-size="14.00">60</text>
</g>
<!-- v1&#45;&gt;v60 -->
<g id="edge9" class="edge"><title>v1&#45;&gt;v60</title>
<path fill="none" stroke="black" d="M188,-287.697C188,-279.983 188,-270.712 188,-262.112"/>
<polygon fill="black" stroke="black" points="191.5,-262.104 188,-252.104 184.5,-262.104 191.5,-262.104"/>
</g>
<!-- v2 -->
<g id="node3" class="node"><title>v2</title>
<ellipse fill="none" stroke="black" cx="414" cy="-18" rx="27" ry="18"/>
<text text-anchor="middle" x="414" y="-14.3" font-family="Times,serif" font-size="14.00">2</text>
</g>
<!-- v3 -->
<g id="node4" class="node"><title>v3</title>
<ellipse fill="none" stroke="black" cx="27" cy="-378" rx="27" ry="18"/>
<text text-anchor="middle" x="27" y="-374.3" font-family="Times,serif" font-size="14.00">3</text>
</g>
<!-- p1 -->
<g id="node6" class="node"><title>p1</title>
<path fill="none" stroke="black" d="M234.5,-612C234.5,-612 199.5,-612 199.5,-612 193.5,-612 187.5,-606 187.5,-600 187.5,-600 187.5,-588 187.5,-588 187.5,-582 193.5,-576 199.5,-576 199.5,-576 234.5,-576 234.5,-576 240.5,-576 246.5,-582 246.5,-588 246.5,-588 246.5,-600 246.5,-600 246.5,-606 240.5,-612 234.5,-612"/>
<text text-anchor="middle" x="217" y="-590.3" font-family="Times,serif" font-size="14.00">path (6)</text>
</g>
<!-- v39 -->
<g id="node24" class="node"><title>v39</title>
<ellipse fill="none" stroke="black" cx="217" cy="-522" rx="27" ry="18"/>
<text text-anchor="middle" x="217" y="-518.3" font-family="Times,serif" font-size="14.00">39</text>
</g>
<!-- p1&#45;&gt;v39 -->
<g id="edge32" class="edge"><title>p1&#45;&gt;v39</title>
<path fill="none" stroke="black" d="M217,-575.697C217,-567.983 217,-558.712 217,-550.112"/>
<polygon fill="black" stroke="black" points="220.5,-550.104 217,-540.104 213.5,-550.104 220.5,-550.104"/>
</g>
<!-- v7 -->
<g id="node7" class="node"><title>v7</title>
<ellipse fill="none" stroke="black" cx="324" cy="-162" rx="27" ry="18"/>
<text text-anchor="middle" x="324" y="-158.3" font-family="Times,serif" font-size="14.00">7</text>
</g>
<!-- v10 -->
<g id="node9" class="node"><title>v10</title>
<ellipse fill="none" stroke="black" cx="67" cy="-450" rx="27" ry="18"/>
<text text-anchor="middle" x="67" y="-446.3" font-family="Times,serif" font-size="14.00">10</text>
</g>
<!-- v10&#45;&gt;v3 -->
<g id="edge11" class="edge"><title>v10&#45;&gt;v3</title>
<path fill="none" stroke="black" d="M57.7227,-432.765C52.8256,-424.195 46.7109,-413.494 41.2288,-403.9"/>
<polygon fill="black" stroke="black" points="44.2273,-402.093 36.227,-395.147 38.1496,-405.566 44.2273,-402.093"/>
</g>
<!-- p3 -->
<g id="node11" class="node"><title>p3</title>
<path fill="none" stroke="black" d="M119.5,-396C119.5,-396 84.5,-396 84.5,-396 78.5,-396 72.5,-390 72.5,-384 72.5,-384 72.5,-372 72.5,-372 72.5,-366 78.5,-360 84.5,-360 84.5,-360 119.5,-360 119.5,-360 125.5,-360 131.5,-366 131.5,-372 131.5,-372 131.5,-384 131.5,-384 131.5,-390 125.5,-396 119.5,-396"/>
<text text-anchor="middle" x="102" y="-374.3" font-family="Times,serif" font-size="14.00">path (3)</text>
</g>
<!-- v10&#45;&gt;p3 -->
<g id="edge17" class="edge"><title>v10&#45;&gt;p3</title>
<path fill="none" stroke="black" d="M75.1177,-432.765C79.1944,-424.611 84.2355,-414.529 88.8467,-405.307"/>
<polygon fill="black" stroke="black" points="92.0963,-406.633 93.438,-396.124 85.8353,-403.503 92.0963,-406.633"/>
</g>
<!-- v11 -->
<g id="node10" class="node"><title>v11</title>
<ellipse fill="none" stroke="black" cx="102" cy="-306" rx="27" ry="18"/>
<text text-anchor="middle" x="102" y="-302.3" font-family="Times,serif" font-size="14.00">11</text>
</g>
<!-- v18 -->
<g id="node15" class="node"><title>v18</title>
<ellipse fill="none" stroke="black" cx="35" cy="-234" rx="27" ry="18"/>
<text text-anchor="middle" x="35" y="-230.3" font-family="Times,serif" font-size="14.00">18</text>
</g>
<!-- v11&#45;&gt;v18 -->
<g id="edge22" class="edge"><title>v11&#45;&gt;v18</title>
<path fill="none" stroke="black" d="M88.1176,-290.496C78.8646,-280.829 66.5286,-267.94 56.0738,-257.017"/>
<polygon fill="black" stroke="black" points="58.3077,-254.29 48.8647,-249.485 53.2508,-259.13 58.3077,-254.29"/>
</g>
<!-- v52 -->
<g id="node35" class="node"><title>v52</title>
<ellipse fill="none" stroke="black" cx="107" cy="-234" rx="27" ry="18"/>
<text text-anchor="middle" x="107" y="-230.3" font-family="Times,serif" font-size="14.00">52</text>
</g>
<!-- v11&#45;&gt;v52 -->
<g id="edge8" class="edge"><title>v11&#45;&gt;v52</title>
<path fill="none" stroke="black" d="M103.236,-287.697C103.787,-279.983 104.449,-270.712 105.063,-262.112"/>
<polygon fill="black" stroke="black" points="108.557,-262.328 105.778,-252.104 101.575,-261.83 108.557,-262.328"/>
</g>
<!-- p3&#45;&gt;v11 -->
<g id="edge25" class="edge"><title>p3&#45;&gt;v11</title>
<path fill="none" stroke="black" d="M102,-359.697C102,-351.983 102,-342.712 102,-334.112"/>
<polygon fill="black" stroke="black" points="105.5,-334.104 102,-324.104 98.5001,-334.104 105.5,-334.104"/>
</g>
<!-- v13 -->
<g id="node12" class="node"><title>v13</title>
<ellipse fill="none" stroke="black" cx="396" cy="-162" rx="27" ry="18"/>
<text text-anchor="middle" x="396" y="-158.3" font-family="Times,serif" font-size="14.00">13</text>
</g>
<!-- v19 -->
<g id="node16" class="node"><title>v19</title>
<ellipse fill="none" stroke="black" cx="471" cy="-234" rx="27" ry="18"/>
<text text-anchor="middle" x="471" y="-230.3" font-family="Times,serif" font-size="14.00">19</text>
</g>
<!-- v17&#45;&gt;v19 -->
<g id="edge26" class="edge"><title>v17&#45;&gt;v19</title>
<path fill="none" stroke="black" d="M486.916,-288.055C484.518,-280.059 481.599,-270.331 478.92,-261.4"/>
<polygon fill="black" stroke="black" points="482.263,-260.362 476.037,-251.789 475.558,-262.373 482.263,-260.362"/>
</g>
<!-- v51 -->
<g id="node34" class="node"><title>v51</title>
<ellipse fill="none" stroke="black" cx="543" cy="-234" rx="27" ry="18"/>
<text text-anchor="middle" x="543" y="-230.3" font-family="Times,serif" font-size="14.00">51</text>
</g>
<!-- v17&#45;&gt;v51 -->
<g id="edge13" class="edge"><title>v17&#45;&gt;v51</title>
<path fill="none" stroke="black" d="M503.319,-289.465C509.921,-280.402 518.384,-268.786 525.797,-258.612"/>
<polygon fill="black" stroke="black" points="528.653,-260.635 531.713,-250.492 522.996,-256.513 528.653,-260.635"/>
</g>
<!-- v19&#45;&gt;v7 -->
<g id="edge15" class="edge"><title>v19&#45;&gt;v7</title>
<path fill="none" stroke="black" d="M449.625,-222.821C424.585,-210.898 382.917,-191.056 354.49,-177.519"/>
<polygon fill="black" stroke="black" points="355.934,-174.33 345.401,-173.191 352.925,-180.65 355.934,-174.33"/>
</g>
<!-- v19&#45;&gt;v13 -->
<g id="edge28" class="edge"><title>v19&#45;&gt;v13</title>
<path fill="none" stroke="black" d="M455.823,-218.834C445.149,-208.872 430.681,-195.369 418.647,-184.137"/>
<polygon fill="black" stroke="black" points="420.854,-181.409 411.155,-177.144 416.077,-186.526 420.854,-181.409"/>
</g>
<!-- p8 -->
<g id="node21" class="node"><title>p8</title>
<path fill="none" stroke="black" d="M488.5,-180C488.5,-180 453.5,-180 453.5,-180 447.5,-180 441.5,-174 441.5,-168 441.5,-168 441.5,-156 441.5,-156 441.5,-150 447.5,-144 453.5,-144 453.5,-144 488.5,-144 488.5,-144 494.5,-144 500.5,-150 500.5,-156 500.5,-156 500.5,-168 500.5,-168 500.5,-174 494.5,-180 488.5,-180"/>
<text text-anchor="middle" x="471" y="-158.3" font-family="Times,serif" font-size="14.00">path (3)</text>
</g>
<!-- v19&#45;&gt;p8 -->
<g id="edge36" class="edge"><title>v19&#45;&gt;p8</title>
<path fill="none" stroke="black" d="M471,-215.697C471,-207.983 471,-198.712 471,-190.112"/>
<polygon fill="black" stroke="black" points="474.5,-190.104 471,-180.104 467.5,-190.104 474.5,-190.104"/>
</g>
<!-- v47 -->
<g id="node31" class="node"><title>v47</title>
<ellipse fill="none" stroke="black" cx="546" cy="-162" rx="27" ry="18"/>
<text text-anchor="middle" x="546" y="-158.3" font-family="Times,serif" font-size="14.00">47</text>
</g>
<!-- v19&#45;&gt;v47 -->
<g id="edge19" class="edge"><title>v19&#45;&gt;v47</title>
<path fill="none" stroke="black" d="M486.177,-218.834C496.851,-208.872 511.319,-195.369 523.353,-184.137"/>
<polygon fill="black" stroke="black" points="525.923,-186.526 530.845,-177.144 521.146,-181.409 525.923,-186.526"/>
</g>
<!-- p10 -->
<g id="node33" class="node"><title>p10</title>
<path fill="none" stroke="black" d="M638.5,-180C638.5,-180 603.5,-180 603.5,-180 597.5,-180 591.5,-174 591.5,-168 591.5,-168 591.5,-156 591.5,-156 591.5,-150 597.5,-144 603.5,-144 603.5,-144 638.5,-144 638.5,-144 644.5,-144 650.5,-150 650.5,-156 650.5,-156 650.5,-168 650.5,-168 650.5,-174 644.5,-180 638.5,-180"/>
<text text-anchor="middle" x="621" y="-158.3" font-family="Times,serif" font-size="14.00">path (2)</text>
</g>
<!-- v19&#45;&gt;p10 -->
<g id="edge30" class="edge"><title>v19&#45;&gt;p10</title>
<path fill="none" stroke="black" d="M492.31,-222.911C497.138,-220.633 502.243,-218.229 507,-216 531.964,-204.303 560.045,-191.246 582.091,-181.019"/>
<polygon fill="black" stroke="black" points="583.852,-184.06 591.452,-176.678 580.908,-177.71 583.852,-184.06"/>
</g>
<!-- p6 -->
<g id="node18" class="node"><title>p6</title>
<path fill="none" stroke="black" d="M159.5,-468C159.5,-468 124.5,-468 124.5,-468 118.5,-468 112.5,-462 112.5,-456 112.5,-456 112.5,-444 112.5,-444 112.5,-438 118.5,-432 124.5,-432 124.5,-432 159.5,-432 159.5,-432 165.5,-432 171.5,-438 171.5,-444 171.5,-444 171.5,-456 171.5,-456 171.5,-462 165.5,-468 159.5,-468"/>
<text text-anchor="middle" x="142" y="-446.3" font-family="Times,serif" font-size="14.00">path (3)</text>
</g>
<!-- p7 -->
<g id="node19" class="node"><title>p7</title>
<path fill="none" stroke="black" d="M506.5,-36C506.5,-36 471.5,-36 471.5,-36 465.5,-36 459.5,-30 459.5,-24 459.5,-24 459.5,-12 459.5,-12 459.5,-6 465.5,-0 471.5,-0 471.5,-0 506.5,-0 506.5,-0 512.5,-0 518.5,-6 518.5,-12 518.5,-12 518.5,-24 518.5,-24 518.5,-30 512.5,-36 506.5,-36"/>
<text text-anchor="middle" x="489" y="-14.3" font-family="Times,serif" font-size="14.00">path (3)</text>
</g>
<!-- v24 -->
<g id="node20" class="node"><title>v24</title>
<ellipse fill="none" stroke="black" cx="254" cy="-666" rx="27" ry="18"/>
<text text-anchor="middle" x="254" y="-662.3" font-family="Times,serif" font-size="14.00">24</text>
</g>
<!-- v24&#45;&gt;p1 -->
<g id="edge33" class="edge"><title>v24&#45;&gt;p1</title>
<path fill="none" stroke="black" d="M245.418,-648.765C241.063,-640.525 235.667,-630.317 230.751,-621.016"/>
<polygon fill="black" stroke="black" points="233.819,-619.329 226.051,-612.124 227.63,-622.6 233.819,-619.329"/>
</g>
<!-- v30 -->
<g id="node22" class="node"><title>v30</title>
<ellipse fill="none" stroke="black" cx="292" cy="-594" rx="27" ry="18"/>
<text text-anchor="middle" x="292" y="-590.3" font-family="Times,serif" font-size="14.00">30</text>
</g>
<!-- v24&#45;&gt;v30 -->
<g id="edge1" class="edge"><title>v24&#45;&gt;v30</title>
<path fill="none" stroke="black" d="M262.813,-648.765C267.418,-640.283 273.155,-629.714 278.321,-620.197"/>
<polygon fill="black" stroke="black" points="281.539,-621.606 283.234,-611.147 275.387,-618.266 281.539,-621.606"/>
</g>
<!-- v55 -->
<g id="node36" class="node"><title>v55</title>
<ellipse fill="none" stroke="black" cx="471" cy="-90" rx="27" ry="18"/>
<text text-anchor="middle" x="471" y="-86.3" font-family="Times,serif" font-size="14.00">55</text>
</g>
<!-- p8&#45;&gt;v55 -->
<g id="edge6" class="edge"><title>p8&#45;&gt;v55</title>
<path fill="none" stroke="black" d="M471,-143.697C471,-135.983 471,-126.712 471,-118.112"/>
<polygon fill="black" stroke="black" points="474.5,-118.104 471,-108.104 467.5,-118.104 474.5,-118.104"/>
</g>
<!-- p9 -->
<g id="node23" class="node"><title>p9</title>
<path fill="none" stroke="black" d="M449.5,-396C449.5,-396 414.5,-396 414.5,-396 408.5,-396 402.5,-390 402.5,-384 402.5,-384 402.5,-372 402.5,-372 402.5,-366 408.5,-360 414.5,-360 414.5,-360 449.5,-360 449.5,-360 455.5,-360 461.5,-366 461.5,-372 461.5,-372 461.5,-384 461.5,-384 461.5,-390 455.5,-396 449.5,-396"/>
<text text-anchor="middle" x="432" y="-374.3" font-family="Times,serif" font-size="14.00">path (2)</text>
</g>
<!-- v39&#45;&gt;v10 -->
<g id="edge2" class="edge"><title>v39&#45;&gt;v10</title>
<path fill="none" stroke="black" d="M195.127,-510.878C172.164,-500.241 135.018,-483.002 103,-468 101.216,-467.164 99.3835,-466.304 97.5347,-465.435"/>
<polygon fill="black" stroke="black" points="98.8485,-462.185 88.3104,-461.089 95.8652,-468.517 98.8485,-462.185"/>
</g>
<!-- v39&#45;&gt;p6 -->
<g id="edge12" class="edge"><title>v39&#45;&gt;p6</title>
<path fill="none" stroke="black" d="M201.823,-506.834C192.085,-497.746 179.19,-485.71 167.866,-475.141"/>
<polygon fill="black" stroke="black" points="170.034,-472.377 160.335,-468.113 165.258,-477.495 170.034,-472.377"/>
</g>
<!-- v40 -->
<g id="node25" class="node"><title>v40</title>
<ellipse fill="none" stroke="black" cx="217" cy="-450" rx="27" ry="18"/>
<text text-anchor="middle" x="217" y="-446.3" font-family="Times,serif" font-size="14.00">40</text>
</g>
<!-- v39&#45;&gt;v40 -->
<g id="edge24" class="edge"><title>v39&#45;&gt;v40</title>
<path fill="none" stroke="black" d="M217,-503.697C217,-495.983 217,-486.712 217,-478.112"/>
<polygon fill="black" stroke="black" points="220.5,-478.104 217,-468.104 213.5,-478.104 220.5,-478.104"/>
</g>
<!-- v41 -->
<g id="node26" class="node"><title>v41</title>
<ellipse fill="none" stroke="black" cx="289" cy="-450" rx="27" ry="18"/>
<text text-anchor="middle" x="289" y="-446.3" font-family="Times,serif" font-size="14.00">41</text>
</g>
<!-- v39&#45;&gt;v41 -->
<g id="edge23" class="edge"><title>v39&#45;&gt;v41</title>
<path fill="none" stroke="black" d="M231.57,-506.834C241.75,-496.938 255.524,-483.546 267.031,-472.359"/>
<polygon fill="black" stroke="black" points="269.474,-474.865 274.204,-465.385 264.595,-469.846 269.474,-474.865"/>
</g>
<!-- v42 -->
<g id="node27" class="node"><title>v42</title>
<ellipse fill="none" stroke="black" cx="361" cy="-450" rx="27" ry="18"/>
<text text-anchor="middle" x="361" y="-446.3" font-family="Times,serif" font-size="14.00">42</text>
</g>
<!-- v39&#45;&gt;v42 -->
<g id="edge38" class="edge"><title>v39&#45;&gt;v42</title>
<path fill="none" stroke="black" d="M238.248,-510.671C262.602,-498.832 302.719,-479.331 330.428,-465.862"/>
<polygon fill="black" stroke="black" points="332.202,-468.891 339.665,-461.371 329.141,-462.595 332.202,-468.891"/>
</g>
<!-- v42&#45;&gt;v0 -->
<g id="edge29" class="edge"><title>v42&#45;&gt;v0</title>
<path fill="none" stroke="black" d="M360.011,-431.697C359.57,-423.983 359.041,-414.712 358.549,-406.112"/>
<polygon fill="black" stroke="black" points="362.042,-405.888 357.977,-396.104 355.054,-406.288 362.042,-405.888"/>
</g>
<!-- v42&#45;&gt;p9 -->
<g id="edge4" class="edge"><title>v42&#45;&gt;p9</title>
<path fill="none" stroke="black" d="M375.711,-434.496C384.798,-425.538 396.689,-413.813 407.201,-403.45"/>
<polygon fill="black" stroke="black" points="409.887,-405.717 414.55,-396.204 404.972,-400.732 409.887,-405.717"/>
</g>
<!-- v44 -->
<g id="node28" class="node"><title>v44</title>
<ellipse fill="none" stroke="black" cx="545" cy="-90" rx="27" ry="18"/>
<text text-anchor="middle" x="545" y="-86.3" font-family="Times,serif" font-size="14.00">44</text>
</g>
<!-- v45 -->
<g id="node29" class="node"><title>v45</title>
<ellipse fill="none" stroke="black" cx="617" cy="-90" rx="27" ry="18"/>
<text text-anchor="middle" x="617" y="-86.3" font-family="Times,serif" font-size="14.00">45</text>
</g>
<!-- v46 -->
<g id="node30" class="node"><title>v46</title>
<ellipse fill="none" stroke="black" cx="582" cy="-18" rx="27" ry="18"/>
<text text-anchor="middle" x="582" y="-14.3" font-family="Times,serif" font-size="14.00">46</text>
</g>
<!-- v45&#45;&gt;v46 -->
<g id="edge35" class="edge"><title>v45&#45;&gt;v46</title>
<path fill="none" stroke="black" d="M608.882,-72.7646C604.702,-64.4043 599.508,-54.0159 594.803,-44.6059"/>
<polygon fill="black" stroke="black" points="597.919,-43.0124 590.317,-35.6334 591.658,-46.1429 597.919,-43.0124"/>
</g>
<!-- v59 -->
<g id="node38" class="node"><title>v59</title>
<ellipse fill="none" stroke="black" cx="654" cy="-18" rx="27" ry="18"/>
<text text-anchor="middle" x="654" y="-14.3" font-family="Times,serif" font-size="14.00">59</text>
</g>
<!-- v45&#45;&gt;v59 -->
<g id="edge37" class="edge"><title>v45&#45;&gt;v59</title>
<path fill="none" stroke="black" d="M625.582,-72.7646C630.065,-64.2831 635.651,-53.7144 640.681,-44.1974"/>
<polygon fill="black" stroke="black" points="643.886,-45.6239 645.465,-35.1473 637.698,-42.3527 643.886,-45.6239"/>
</g>
<!-- v47&#45;&gt;v44 -->
<g id="edge20" class="edge"><title>v47&#45;&gt;v44</title>
<path fill="none" stroke="black" d="M545.753,-143.697C545.643,-135.983 545.51,-126.712 545.387,-118.112"/>
<polygon fill="black" stroke="black" points="548.887,-118.053 545.244,-108.104 541.888,-118.153 548.887,-118.053"/>
</g>
<!-- v47&#45;&gt;v45 -->
<g id="edge14" class="edge"><title>v47&#45;&gt;v45</title>
<path fill="none" stroke="black" d="M560.711,-146.496C570.612,-136.735 583.843,-123.69 594.99,-112.7"/>
<polygon fill="black" stroke="black" points="597.644,-114.999 602.308,-105.485 592.729,-110.014 597.644,-114.999"/>
</g>
<!-- v48 -->
<g id="node32" class="node"><title>v48</title>
<ellipse fill="none" stroke="black" cx="159" cy="-162" rx="27" ry="18"/>
<text text-anchor="middle" x="159" y="-158.3" font-family="Times,serif" font-size="14.00">48</text>
</g>
<!-- v55&#45;&gt;v2 -->
<g id="edge27" class="edge"><title>v55&#45;&gt;v2</title>
<path fill="none" stroke="black" d="M458.632,-73.811C451.088,-64.5464 441.295,-52.5203 432.805,-42.0944"/>
<polygon fill="black" stroke="black" points="435.372,-39.7037 426.344,-34.1593 429.944,-44.1237 435.372,-39.7037"/>
</g>
<!-- v55&#45;&gt;p7 -->
<g id="edge3" class="edge"><title>v55&#45;&gt;p7</title>
<path fill="none" stroke="black" d="M475.357,-72.055C477.361,-64.2609 479.789,-54.8219 482.037,-46.0789"/>
<polygon fill="black" stroke="black" points="485.457,-46.8319 484.558,-36.2753 478.678,-45.0886 485.457,-46.8319"/>
</g>
<!-- v58 -->
<g id="node37" class="node"><title>v58</title>
<ellipse fill="none" stroke="black" cx="231" cy="-162" rx="27" ry="18"/>
<text text-anchor="middle" x="231" y="-158.3" font-family="Times,serif" font-size="14.00">58</text>
</g>
<!-- v60&#45;&gt;v48 -->
<g id="edge5" class="edge"><title>v60&#45;&gt;v48</title>
<path fill="none" stroke="black" d="M181.127,-216.411C177.733,-208.216 173.558,-198.14 169.753,-188.955"/>
<polygon fill="black" stroke="black" points="172.884,-187.369 165.823,-179.47 166.417,-190.048 172.884,-187.369"/>
</g>
<!-- v60&#45;&gt;v58 -->
<g id="edge10" class="edge"><title>v60&#45;&gt;v58</title>
<path fill="none" stroke="black" d="M197.757,-217.116C203.145,-208.345 209.952,-197.264 216.001,-187.416"/>
<polygon fill="black" stroke="black" points="219.029,-189.174 221.281,-178.821 213.065,-185.51 219.029,-189.174"/>
</g>
</g>
</svg>
