<?xml version="1.0" encoding="UTF-8" standalone="no"?>
<!DOCTYPE svg PUBLIC "-//W3C//DTD SVG 1.1//EN"
 "http://www.w3.org/Graphics/SVG/1.1/DTD/svg11.dtd">
<!-- Generated by graphviz version 2.38.0 (20140413.2041)
 -->
<!-- Title: %3 Pages: 1 -->
<svg width="752pt" height="548pt"
 viewBox="0.00 0.00 751.50 548.00" xmlns="http://www.w3.org/2000/svg" xmlns:xlink="http://www.w3.org/1999/xlink">
<g id="graph0" class="graph" transform="scale(1 1) rotate(0) translate(4 544)">
<title>%3</title>
<polygon fill="white" stroke="none" points="-4,4 -4,-544 747.5,-544 747.5,4 -4,4"/>
<!-- v0 -->
<g id="node1" class="node"><title>v0</title>
<ellipse fill="none" stroke="black" cx="452.5" cy="-450" rx="27" ry="18"/>
<text text-anchor="middle" x="452.5" y="-446.3" font-family="Times,serif" font-size="14.00">0</text>
</g>
<!-- v1 -->
<g id="node2" class="node"><title>v1</title>
<ellipse fill="none" stroke="black" cx="184.5" cy="-378" rx="27" ry="18"/>
<text text-anchor="middle" x="184.5" y="-374.3" font-family="Times,serif" font-size="14.00">1</text>
</g>
<!-- v0&#45;&gt;v1 -->
<g id="edge21" class="edge"><title>v0&#45;&gt;v1</title>
<path fill="none" stroke="black" d="M426.382,-444.811C383.064,-437.466 293.949,-420.663 221.5,-396 219.241,-395.231 216.935,-394.37 214.633,-393.453"/>
<polygon fill="black" stroke="black" points="215.898,-390.187 205.327,-389.473 213.145,-396.623 215.898,-390.187"/>
</g>
<!-- p0 -->
<g id="node4" class="node"><title>p0</title>
<path fill="none" stroke="black" d="M278,-396C278,-396 243,-396 243,-396 237,-396 231,-390 231,-384 231,-384 231,-372 231,-372 231,-366 237,-360 243,-360 243,-360 278,-360 278,-360 284,-360 290,-366 290,-372 290,-372 290,-384 290,-384 290,-390 284,-396 278,-396"/>
<text text-anchor="middle" x="260.5" y="-374.3" font-family="Times,serif" font-size="14.00">path (4)</text>
</g>
<!-- v0&#45;&gt;p0 -->
<g id="edge19" class="edge"><title>v0&#45;&gt;p0</title>
<path fill="none" stroke="black" d="M428.516,-441.48C399.804,-432.32 350.131,-415.975 299.687,-396.324"/>
<polygon fill="black" stroke="black" points="300.851,-393.021 290.264,-392.617 298.288,-399.535 300.851,-393.021"/>
</g>
<!-- p3 -->
<g id="node11" class="node"><title>p3</title>
<path fill="none" stroke="black" d="M355,-396C355,-396 320,-396 320,-396 314,-396 308,-390 308,-384 308,-384 308,-372 308,-372 308,-366 314,-360 320,-360 320,-360 355,-360 355,-360 361,-360 367,-366 367,-372 367,-372 367,-384 367,-384 367,-390 361,-396 355,-396"/>
<text text-anchor="middle" x="337.5" y="-374.3" font-family="Times,serif" font-size="14.00">path (3)</text>
</g>
<!-- v0&#45;&gt;p3 -->
<g id="edge1" class="edge"><title>v0&#45;&gt;p3</title>
<path fill="none" stroke="black" d="M433.252,-437.284C417.171,-427.496 393.787,-413.262 374.153,-401.311"/>
<polygon fill="black" stroke="black" points="375.798,-398.214 365.436,-396.004 372.158,-404.194 375.798,-398.214"/>
</g>
<!-- p4 -->
<g id="node12" class="node"><title>p4</title>
<path fill="none" stroke="black" d="M432,-396C432,-396 397,-396 397,-396 391,-396 385,-390 385,-384 385,-384 385,-372 385,-372 385,-366 391,-360 397,-360 397,-360 432,-360 432,-360 438,-360 444,-366 444,-372 444,-372 444,-384 444,-384 444,-390 438,-396 432,-396"/>
<text text-anchor="middle" x="414.5" y="-374.3" font-family="Times,serif" font-size="14.00">path (2)</text>
</g>
<!-- v0&#45;&gt;p4 -->
<g id="edge24" class="edge"><title>v0&#45;&gt;p4</title>
<path fill="none" stroke="black" d="M443.687,-432.765C439.214,-424.525 433.672,-414.317 428.623,-405.016"/>
<polygon fill="black" stroke="black" points="431.643,-403.243 423.796,-396.124 425.491,-406.582 431.643,-403.243"/>
</g>
<!-- p6 -->
<g id="node15" class="node"><title>p6</title>
<path fill="none" stroke="black" d="M509,-396C509,-396 474,-396 474,-396 468,-396 462,-390 462,-384 462,-384 462,-372 462,-372 462,-366 468,-360 474,-360 474,-360 509,-360 509,-360 515,-360 521,-366 521,-372 521,-372 521,-384 521,-384 521,-390 515,-396 509,-396"/>
<text text-anchor="middle" x="491.5" y="-374.3" font-family="Times,serif" font-size="14.00">path (3)</text>
</g>
<!-- v0&#45;&gt;p6 -->
<g id="edge7" class="edge"><title>v0&#45;&gt;p6</title>
<path fill="none" stroke="black" d="M461.545,-432.765C466.136,-424.525 471.824,-414.317 477.006,-405.016"/>
<polygon fill="black" stroke="black" points="480.15,-406.563 481.96,-396.124 474.035,-403.156 480.15,-406.563"/>
</g>
<!-- v18 -->
<g id="node16" class="node"><title>v18</title>
<ellipse fill="none" stroke="black" cx="566.5" cy="-378" rx="27" ry="18"/>
<text text-anchor="middle" x="566.5" y="-374.3" font-family="Times,serif" font-size="14.00">18</text>
</g>
<!-- v0&#45;&gt;v18 -->
<g id="edge16" class="edge"><title>v0&#45;&gt;v18</title>
<path fill="none" stroke="black" d="M471.839,-437.125C490.099,-425.913 517.695,-408.968 538.387,-396.263"/>
<polygon fill="black" stroke="black" points="540.376,-399.148 547.067,-390.933 536.713,-393.183 540.376,-399.148"/>
</g>
<!-- p10 -->
<g id="node22" class="node"><title>p10</title>
<path fill="none" stroke="black" d="M659,-396C659,-396 624,-396 624,-396 618,-396 612,-390 612,-384 612,-384 612,-372 612,-372 612,-366 618,-360 624,-360 624,-360 659,-360 659,-360 665,-360 671,-366 671,-372 671,-372 671,-384 671,-384 671,-390 665,-396 659,-396"/>
<text text-anchor="middle" x="641.5" y="-374.3" font-family="Times,serif" font-size="14.00">path (2)</text>
</g>
<!-- v0&#45;&gt;p10 -->
<g id="edge10" class="edge"><title>v0&#45;&gt;p10</title>
<path fill="none" stroke="black" d="M476.335,-441.165C506.088,-431.25 558.43,-413.365 602.5,-396 602.594,-395.963 602.689,-395.925 602.784,-395.888"/>
<polygon fill="black" stroke="black" points="603.846,-399.235 611.781,-392.215 601.2,-392.754 603.846,-399.235"/>
</g>
<!-- v31 -->
<g id="node25" class="node"><title>v31</title>
<ellipse fill="none" stroke="black" cx="716.5" cy="-378" rx="27" ry="18"/>
<text text-anchor="middle" x="716.5" y="-374.3" font-family="Times,serif" font-size="14.00">31</text>
</g>
<!-- v0&#45;&gt;v31 -->
<g id="edge25" class="edge"><title>v0&#45;&gt;v31</title>
<path fill="none" stroke="black" d="M478.507,-444.691C521.195,-437.228 608.48,-420.329 679.5,-396 681.757,-395.227 684.062,-394.362 686.363,-393.443"/>
<polygon fill="black" stroke="black" points="687.853,-396.613 695.668,-389.458 685.098,-390.178 687.853,-396.613"/>
</g>
<!-- v30 -->
<g id="node24" class="node"><title>v30</title>
<ellipse fill="none" stroke="black" cx="184.5" cy="-306" rx="27" ry="18"/>
<text text-anchor="middle" x="184.5" y="-302.3" font-family="Times,serif" font-size="14.00">30</text>
</g>
<!-- v1&#45;&gt;v30 -->
<g id="edge12" class="edge"><title>v1&#45;&gt;v30</title>
<path fill="none" stroke="black" d="M184.5,-359.697C184.5,-351.983 184.5,-342.712 184.5,-334.112"/>
<polygon fill="black" stroke="black" points="188,-334.104 184.5,-324.104 181,-334.104 188,-334.104"/>
</g>
<!-- v2 -->
<g id="node3" class="node"><title>v2</title>
<ellipse fill="none" stroke="black" cx="299.5" cy="-90" rx="27" ry="18"/>
<text text-anchor="middle" x="299.5" y="-86.3" font-family="Times,serif" font-size="14.00">2</text>
</g>
<!-- v25 -->
<g id="node20" class="node"><title>v25</title>
<ellipse fill="none" stroke="black" cx="295.5" cy="-306" rx="27" ry="18"/>
<text text-anchor="middle" x="295.5" y="-302.3" font-family="Times,serif" font-size="14.00">25</text>
</g>
<!-- p0&#45;&gt;v25 -->
<g id="edge26" class="edge"><title>p0&#45;&gt;v25</title>
<path fill="none" stroke="black" d="M269.152,-359.697C273.238,-351.523 278.198,-341.603 282.708,-332.584"/>
<polygon fill="black" stroke="black" points="285.847,-334.132 287.189,-323.622 279.586,-331.001 285.847,-334.132"/>
</g>
<!-- p1 -->
<g id="node5" class="node"><title>p1</title>
<path fill="none" stroke="black" d="M47,-180C47,-180 12,-180 12,-180 6,-180 0,-174 0,-168 0,-168 0,-156 0,-156 0,-150 6,-144 12,-144 12,-144 47,-144 47,-144 53,-144 59,-150 59,-156 59,-156 59,-168 59,-168 59,-174 53,-180 47,-180"/>
<text text-anchor="middle" x="29.5" y="-158.3" font-family="Times,serif" font-size="14.00">path (2)</text>
</g>
<!-- p2 -->
<g id="node6" class="node"><title>p2</title>
<path fill="none" stroke="black" d="M351,-36C351,-36 316,-36 316,-36 310,-36 304,-30 304,-24 304,-24 304,-12 304,-12 304,-6 310,-0 316,-0 316,-0 351,-0 351,-0 357,-0 363,-6 363,-12 363,-12 363,-24 363,-24 363,-30 357,-36 351,-36"/>
<text text-anchor="middle" x="333.5" y="-14.3" font-family="Times,serif" font-size="14.00">path (2)</text>
</g>
<!-- v6 -->
<g id="node7" class="node"><title>v6</title>
<ellipse fill="none" stroke="black" cx="452.5" cy="-522" rx="27" ry="18"/>
<text text-anchor="middle" x="452.5" y="-518.3" font-family="Times,serif" font-size="14.00">6</text>
</g>
<!-- v6&#45;&gt;v0 -->
<g id="edge17" class="edge"><title>v6&#45;&gt;v0</title>
<path fill="none" stroke="black" d="M452.5,-503.697C452.5,-495.983 452.5,-486.712 452.5,-478.112"/>
<polygon fill="black" stroke="black" points="456,-478.104 452.5,-468.104 449,-478.104 456,-478.104"/>
</g>
<!-- v7 -->
<g id="node8" class="node"><title>v7</title>
<ellipse fill="none" stroke="black" cx="106.5" cy="-234" rx="27" ry="18"/>
<text text-anchor="middle" x="106.5" y="-230.3" font-family="Times,serif" font-size="14.00">7</text>
</g>
<!-- v7&#45;&gt;p1 -->
<g id="edge4" class="edge"><title>v7&#45;&gt;p1</title>
<path fill="none" stroke="black" d="M90.9179,-218.834C80.9205,-209.746 67.6815,-197.71 56.0555,-187.141"/>
<polygon fill="black" stroke="black" points="58.0778,-184.25 48.324,-180.113 53.3691,-189.429 58.0778,-184.25"/>
</g>
<!-- p12 -->
<g id="node27" class="node"><title>p12</title>
<path fill="none" stroke="black" d="M124,-180C124,-180 89,-180 89,-180 83,-180 77,-174 77,-168 77,-168 77,-156 77,-156 77,-150 83,-144 89,-144 89,-144 124,-144 124,-144 130,-144 136,-150 136,-156 136,-156 136,-168 136,-168 136,-174 130,-180 124,-180"/>
<text text-anchor="middle" x="106.5" y="-158.3" font-family="Times,serif" font-size="14.00">path (2)</text>
</g>
<!-- v7&#45;&gt;p12 -->
<g id="edge23" class="edge"><title>v7&#45;&gt;p12</title>
<path fill="none" stroke="black" d="M106.5,-215.697C106.5,-207.983 106.5,-198.712 106.5,-190.112"/>
<polygon fill="black" stroke="black" points="110,-190.104 106.5,-180.104 103,-190.104 110,-190.104"/>
</g>
<!-- v8 -->
<g id="node9" class="node"><title>v8</title>
<ellipse fill="none" stroke="black" cx="566.5" cy="-306" rx="27" ry="18"/>
<text text-anchor="middle" x="566.5" y="-302.3" font-family="Times,serif" font-size="14.00">8</text>
</g>
<!-- p5 -->
<g id="node13" class="node"><title>p5</title>
<path fill="none" stroke="black" d="M546,-252C546,-252 511,-252 511,-252 505,-252 499,-246 499,-240 499,-240 499,-228 499,-228 499,-222 505,-216 511,-216 511,-216 546,-216 546,-216 552,-216 558,-222 558,-228 558,-228 558,-240 558,-240 558,-246 552,-252 546,-252"/>
<text text-anchor="middle" x="528.5" y="-230.3" font-family="Times,serif" font-size="14.00">path (2)</text>
</g>
<!-- v8&#45;&gt;p5 -->
<g id="edge9" class="edge"><title>v8&#45;&gt;p5</title>
<path fill="none" stroke="black" d="M557.687,-288.765C553.214,-280.525 547.672,-270.317 542.623,-261.016"/>
<polygon fill="black" stroke="black" points="545.643,-259.243 537.796,-252.124 539.491,-262.582 545.643,-259.243"/>
</g>
<!-- v40 -->
<g id="node28" class="node"><title>v40</title>
<ellipse fill="none" stroke="black" cx="603.5" cy="-234" rx="27" ry="18"/>
<text text-anchor="middle" x="603.5" y="-230.3" font-family="Times,serif" font-size="14.00">40</text>
</g>
<!-- v8&#45;&gt;v40 -->
<g id="edge2" class="edge"><title>v8&#45;&gt;v40</title>
<path fill="none" stroke="black" d="M575.082,-288.765C579.565,-280.283 585.151,-269.714 590.181,-260.197"/>
<polygon fill="black" stroke="black" points="593.386,-261.624 594.965,-251.147 587.198,-258.353 593.386,-261.624"/>
</g>
<!-- v9 -->
<g id="node10" class="node"><title>v9</title>
<ellipse fill="none" stroke="black" cx="258.5" cy="-234" rx="27" ry="18"/>
<text text-anchor="middle" x="258.5" y="-230.3" font-family="Times,serif" font-size="14.00">9</text>
</g>
<!-- v14 -->
<g id="node14" class="node"><title>v14</title>
<ellipse fill="none" stroke="black" cx="184.5" cy="-234" rx="27" ry="18"/>
<text text-anchor="middle" x="184.5" y="-230.3" font-family="Times,serif" font-size="14.00">14</text>
</g>
<!-- p7 -->
<g id="node17" class="node"><title>p7</title>
<path fill="none" stroke="black" d="M201,-180C201,-180 166,-180 166,-180 160,-180 154,-174 154,-168 154,-168 154,-156 154,-156 154,-150 160,-144 166,-144 166,-144 201,-144 201,-144 207,-144 213,-150 213,-156 213,-156 213,-168 213,-168 213,-174 207,-180 201,-180"/>
<text text-anchor="middle" x="183.5" y="-158.3" font-family="Times,serif" font-size="14.00">path (2)</text>
</g>
<!-- v14&#45;&gt;p7 -->
<g id="edge14" class="edge"><title>v14&#45;&gt;p7</title>
<path fill="none" stroke="black" d="M184.253,-215.697C184.143,-207.983 184.01,-198.712 183.887,-190.112"/>
<polygon fill="black" stroke="black" points="187.387,-190.053 183.744,-180.104 180.388,-190.153 187.387,-190.053"/>
</g>
<!-- p8 -->
<g id="node19" class="node"><title>p8</title>
<path fill="none" stroke="black" d="M278,-180C278,-180 243,-180 243,-180 237,-180 231,-174 231,-168 231,-168 231,-156 231,-156 231,-150 237,-144 243,-144 243,-144 278,-144 278,-144 284,-144 290,-150 290,-156 290,-156 290,-168 290,-168 290,-174 284,-180 278,-180"/>
<text text-anchor="middle" x="260.5" y="-158.3" font-family="Times,serif" font-size="14.00">path (2)</text>
</g>
<!-- v14&#45;&gt;p8 -->
<g id="edge18" class="edge"><title>v14&#45;&gt;p8</title>
<path fill="none" stroke="black" d="M199.88,-218.834C209.747,-209.746 222.814,-197.71 234.289,-187.141"/>
<polygon fill="black" stroke="black" points="236.936,-189.462 241.92,-180.113 232.194,-184.313 236.936,-189.462"/>
</g>
<!-- v18&#45;&gt;v8 -->
<g id="edge3" class="edge"><title>v18&#45;&gt;v8</title>
<path fill="none" stroke="black" d="M566.5,-359.697C566.5,-351.983 566.5,-342.712 566.5,-334.112"/>
<polygon fill="black" stroke="black" points="570,-334.104 566.5,-324.104 563,-334.104 570,-334.104"/>
</g>
<!-- v20 -->
<g id="node18" class="node"><title>v20</title>
<ellipse fill="none" stroke="black" cx="335.5" cy="-162" rx="27" ry="18"/>
<text text-anchor="middle" x="335.5" y="-158.3" font-family="Times,serif" font-size="14.00">20</text>
</g>
<!-- v20&#45;&gt;v2 -->
<g id="edge22" class="edge"><title>v20&#45;&gt;v2</title>
<path fill="none" stroke="black" d="M327.15,-144.765C322.788,-136.283 317.353,-125.714 312.459,-116.197"/>
<polygon fill="black" stroke="black" points="315.49,-114.439 307.804,-107.147 309.265,-117.641 315.49,-114.439"/>
</g>
<!-- v44 -->
<g id="node29" class="node"><title>v44</title>
<ellipse fill="none" stroke="black" cx="371.5" cy="-90" rx="27" ry="18"/>
<text text-anchor="middle" x="371.5" y="-86.3" font-family="Times,serif" font-size="14.00">44</text>
</g>
<!-- v20&#45;&gt;v44 -->
<g id="edge11" class="edge"><title>v20&#45;&gt;v44</title>
<path fill="none" stroke="black" d="M343.85,-144.765C348.212,-136.283 353.647,-125.714 358.541,-116.197"/>
<polygon fill="black" stroke="black" points="361.735,-117.641 363.196,-107.147 355.51,-114.439 361.735,-117.641"/>
</g>
<!-- v25&#45;&gt;v9 -->
<g id="edge28" class="edge"><title>v25&#45;&gt;v9</title>
<path fill="none" stroke="black" d="M286.918,-288.765C282.435,-280.283 276.849,-269.714 271.819,-260.197"/>
<polygon fill="black" stroke="black" points="274.802,-258.353 267.035,-251.147 268.614,-261.624 274.802,-258.353"/>
</g>
<!-- p9 -->
<g id="node21" class="node"><title>p9</title>
<path fill="none" stroke="black" d="M351,-252C351,-252 316,-252 316,-252 310,-252 304,-246 304,-240 304,-240 304,-228 304,-228 304,-222 310,-216 316,-216 316,-216 351,-216 351,-216 357,-216 363,-222 363,-228 363,-228 363,-240 363,-240 363,-246 357,-252 351,-252"/>
<text text-anchor="middle" x="333.5" y="-230.3" font-family="Times,serif" font-size="14.00">path (2)</text>
</g>
<!-- v25&#45;&gt;p9 -->
<g id="edge15" class="edge"><title>v25&#45;&gt;p9</title>
<path fill="none" stroke="black" d="M304.313,-288.765C308.786,-280.525 314.328,-270.317 319.377,-261.016"/>
<polygon fill="black" stroke="black" points="322.509,-262.582 324.204,-252.124 316.357,-259.243 322.509,-262.582"/>
</g>
<!-- v28 -->
<g id="node23" class="node"><title>v28</title>
<ellipse fill="none" stroke="black" cx="408.5" cy="-234" rx="27" ry="18"/>
<text text-anchor="middle" x="408.5" y="-230.3" font-family="Times,serif" font-size="14.00">28</text>
</g>
<!-- v25&#45;&gt;v28 -->
<g id="edge20" class="edge"><title>v25&#45;&gt;v28</title>
<path fill="none" stroke="black" d="M314.669,-293.125C332.77,-281.913 360.123,-264.968 380.633,-252.263"/>
<polygon fill="black" stroke="black" points="382.579,-255.174 389.237,-246.933 378.893,-249.224 382.579,-255.174"/>
</g>
<!-- p9&#45;&gt;v20 -->
<g id="edge6" class="edge"><title>p9&#45;&gt;v20</title>
<path fill="none" stroke="black" d="M333.994,-215.697C334.215,-207.983 334.48,-198.712 334.725,-190.112"/>
<polygon fill="black" stroke="black" points="338.224,-190.2 335.011,-180.104 331.227,-190 338.224,-190.2"/>
</g>
<!-- v30&#45;&gt;v7 -->
<g id="edge27" class="edge"><title>v30&#45;&gt;v7</title>
<path fill="none" stroke="black" d="M169.09,-291.17C157.766,-281.008 142.191,-267.03 129.411,-255.561"/>
<polygon fill="black" stroke="black" points="131.658,-252.875 121.878,-248.801 126.983,-258.085 131.658,-252.875"/>
</g>
<!-- v30&#45;&gt;v14 -->
<g id="edge13" class="edge"><title>v30&#45;&gt;v14</title>
<path fill="none" stroke="black" d="M184.5,-287.697C184.5,-279.983 184.5,-270.712 184.5,-262.112"/>
<polygon fill="black" stroke="black" points="188,-262.104 184.5,-252.104 181,-262.104 188,-262.104"/>
</g>
<!-- p11 -->
<g id="node26" class="node"><title>p11</title>
<path fill="none" stroke="black" d="M428,-36C428,-36 393,-36 393,-36 387,-36 381,-30 381,-24 381,-24 381,-12 381,-12 381,-6 387,-0 393,-0 393,-0 428,-0 428,-0 434,-0 440,-6 440,-12 440,-12 440,-24 440,-24 440,-30 434,-36 428,-36"/>
<text text-anchor="middle" x="410.5" y="-14.3" font-family="Times,serif" font-size="14.00">path (2)</text>
</g>
<!-- v44&#45;&gt;p2 -->
<g id="edge8" class="edge"><title>v44&#45;&gt;p2</title>
<path fill="none" stroke="black" d="M362.687,-72.7646C358.214,-64.5255 352.672,-54.3166 347.623,-45.0157"/>
<polygon fill="black" stroke="black" points="350.643,-43.2426 342.796,-36.1239 344.491,-46.5823 350.643,-43.2426"/>
</g>
<!-- v44&#45;&gt;p11 -->
<g id="edge5" class="edge"><title>v44&#45;&gt;p11</title>
<path fill="none" stroke="black" d="M380.545,-72.7646C385.136,-64.5255 390.824,-54.3166 396.006,-45.0157"/>
<polygon fill="black" stroke="black" points="399.15,-46.5631 400.96,-36.1239 393.035,-43.1561 399.15,-46.5631"/>
</g>
</g>
</svg>
