<?xml version="1.0" encoding="UTF-8" standalone="no"?>
<!DOCTYPE svg PUBLIC "-//W3C//DTD SVG 1.1//EN"
 "http://www.w3.org/Graphics/SVG/1.1/DTD/svg11.dtd">
<!-- Generated by graphviz version 2.38.0 (20140413.2041)
 -->
<!-- Title: %3 Pages: 1 -->
<svg width="1054pt" height="404pt"
 viewBox="0.00 0.00 1054.19 404.00" xmlns="http://www.w3.org/2000/svg" xmlns:xlink="http://www.w3.org/1999/xlink">
<g id="graph0" class="graph" transform="scale(1 1) rotate(0) translate(4 400)">
<title>%3</title>
<polygon fill="white" stroke="none" points="-4,4 -4,-400 1050.19,-400 1050.19,4 -4,4"/>
<!-- 0 -->
<g id="node1" class="node"><title>0</title>
<g id="a_node1"><a xlink:title="0, diversity: 2, multiplicities: 33,75, labels: 0">
<ellipse fill="#fb7c5c" stroke="black" cx="331.596" cy="-162" rx="37.0935" ry="18"/>
<text text-anchor="middle" x="331.596" y="-158.3" font-family="Times,serif" font-size="14.00">0 (2): 0</text>
</a>
</g>
</g>
<!-- 2 -->
<g id="node3" class="node"><title>2</title>
<g id="a_node3"><a xlink:title="2, diversity: 2, multiplicities: 9,28, labels: 0">
<ellipse fill="#fca082" stroke="black" cx="239.596" cy="-90" rx="37.0935" ry="18"/>
<text text-anchor="middle" x="239.596" y="-86.3" font-family="Times,serif" font-size="14.00">2 (2): 0</text>
</a>
</g>
</g>
<!-- 0&#45;&gt;2 -->
<g id="edge22" class="edge"><title>0&#45;&gt;2</title>
<path fill="none" stroke="black" d="M312.534,-146.496C299.335,-136.453 281.567,-122.934 266.873,-111.754"/>
<polygon fill="black" stroke="black" points="268.712,-108.755 258.634,-105.485 264.473,-114.326 268.712,-108.755"/>
</g>
<!-- 3 -->
<g id="node4" class="node"><title>3</title>
<g id="a_node4"><a xlink:title="3, diversity: 1, multiplicities: 14, labels: 0">
<ellipse fill="#fca082" stroke="black" cx="331.596" cy="-90" rx="37.0935" ry="18"/>
<text text-anchor="middle" x="331.596" y="-86.3" font-family="Times,serif" font-size="14.00">3 (1): 0</text>
</a>
</g>
</g>
<!-- 0&#45;&gt;3 -->
<g id="edge3" class="edge"><title>0&#45;&gt;3</title>
<path fill="none" stroke="black" d="M331.596,-143.697C331.596,-135.983 331.596,-126.712 331.596,-118.112"/>
<polygon fill="black" stroke="black" points="335.096,-118.104 331.596,-108.104 328.096,-118.104 335.096,-118.104"/>
</g>
<!-- 4 -->
<g id="node5" class="node"><title>4</title>
<g id="a_node5"><a xlink:title="4, diversity: 1, multiplicities: 17, labels: 0">
<ellipse fill="#fca082" stroke="black" cx="423.596" cy="-90" rx="37.0935" ry="18"/>
<text text-anchor="middle" x="423.596" y="-86.3" font-family="Times,serif" font-size="14.00">4 (1): 0</text>
</a>
</g>
</g>
<!-- 0&#45;&gt;4 -->
<g id="edge12" class="edge"><title>0&#45;&gt;4</title>
<path fill="none" stroke="black" d="M350.659,-146.496C363.858,-136.453 381.625,-122.934 396.32,-111.754"/>
<polygon fill="black" stroke="black" points="398.719,-114.326 404.558,-105.485 394.481,-108.755 398.719,-114.326"/>
</g>
<!-- 11 -->
<g id="node12" class="node"><title>11</title>
<g id="a_node12"><a xlink:title="11, diversity: 1, multiplicities: 6, labels: 0">
<ellipse fill="#fcc4ad" stroke="black" cx="520.596" cy="-90" rx="41.6928" ry="18"/>
<text text-anchor="middle" x="520.596" y="-86.3" font-family="Times,serif" font-size="14.00">11 (1): 0</text>
</a>
</g>
</g>
<!-- 0&#45;&gt;11 -->
<g id="edge10" class="edge"><title>0&#45;&gt;11</title>
<path fill="none" stroke="black" d="M360.301,-150.369C392.3,-138.517 444.28,-119.265 480.334,-105.912"/>
<polygon fill="black" stroke="black" points="481.889,-109.068 490.051,-102.313 479.458,-102.504 481.889,-109.068"/>
</g>
<!-- 15 -->
<g id="node16" class="node"><title>15</title>
<g id="a_node16"><a xlink:title="15, diversity: 1, multiplicities: 12, labels: 0">
<ellipse fill="#fca082" stroke="black" cx="41.5963" cy="-90" rx="41.6928" ry="18"/>
<text text-anchor="middle" x="41.5963" y="-86.3" font-family="Times,serif" font-size="14.00">15 (1): 0</text>
</a>
</g>
</g>
<!-- 0&#45;&gt;15 -->
<g id="edge5" class="edge"><title>0&#45;&gt;15</title>
<path fill="none" stroke="black" d="M297.521,-154.706C250.729,-145.785 164.13,-128.273 91.5963,-108 88.6023,-107.163 85.5243,-106.25 82.4371,-105.295"/>
<polygon fill="black" stroke="black" points="83.228,-101.873 72.6366,-102.146 81.0866,-108.537 83.228,-101.873"/>
</g>
<!-- 19 -->
<g id="node20" class="node"><title>19</title>
<g id="a_node20"><a xlink:title="19, diversity: 1, multiplicities: 9, labels: 0">
<ellipse fill="#fcc4ad" stroke="black" cx="142.596" cy="-90" rx="41.6928" ry="18"/>
<text text-anchor="middle" x="142.596" y="-86.3" font-family="Times,serif" font-size="14.00">19 (1): 0</text>
</a>
</g>
</g>
<!-- 0&#45;&gt;19 -->
<g id="edge20" class="edge"><title>0&#45;&gt;19</title>
<path fill="none" stroke="black" d="M302.891,-150.369C270.893,-138.517 218.913,-119.265 182.858,-105.912"/>
<polygon fill="black" stroke="black" points="183.734,-102.504 173.141,-102.313 181.303,-109.068 183.734,-102.504"/>
</g>
<!-- 1 -->
<g id="node2" class="node"><title>1</title>
<g id="a_node2"><a xlink:title="1, diversity: 1, multiplicities: 7, labels: 0">
<ellipse fill="#fcc4ad" stroke="black" cx="423.596" cy="-18" rx="37.0935" ry="18"/>
<text text-anchor="middle" x="423.596" y="-14.3" font-family="Times,serif" font-size="14.00">1 (1): 0</text>
</a>
</g>
</g>
<!-- 4&#45;&gt;1 -->
<g id="edge13" class="edge"><title>4&#45;&gt;1</title>
<path fill="none" stroke="black" d="M423.596,-71.6966C423.596,-63.9827 423.596,-54.7125 423.596,-46.1124"/>
<polygon fill="black" stroke="black" points="427.096,-46.1043 423.596,-36.1043 420.096,-46.1044 427.096,-46.1043"/>
</g>
<!-- 5 -->
<g id="node6" class="node"><title>5</title>
<g id="a_node6"><a xlink:title="5, diversity: 2, multiplicities: 1,150, labels: 0">
<ellipse fill="#fb7c5c" stroke="black" cx="718.596" cy="-162" rx="37.0935" ry="18"/>
<text text-anchor="middle" x="718.596" y="-158.3" font-family="Times,serif" font-size="14.00">5 (2): 0</text>
</a>
</g>
</g>
<!-- 6 -->
<g id="node7" class="node"><title>6</title>
<g id="a_node7"><a xlink:title="6, diversity: 1, multiplicities: 20, labels: 0">
<ellipse fill="#fca082" stroke="black" cx="718.596" cy="-90" rx="37.0935" ry="18"/>
<text text-anchor="middle" x="718.596" y="-86.3" font-family="Times,serif" font-size="14.00">6 (1): 0</text>
</a>
</g>
</g>
<!-- 5&#45;&gt;6 -->
<g id="edge1" class="edge"><title>5&#45;&gt;6</title>
<path fill="none" stroke="black" d="M718.596,-143.697C718.596,-135.983 718.596,-126.712 718.596,-118.112"/>
<polygon fill="black" stroke="black" points="722.096,-118.104 718.596,-108.104 715.096,-118.104 722.096,-118.104"/>
</g>
<!-- 7 -->
<g id="node8" class="node"><title>7</title>
<g id="a_node8"><a xlink:title="7, diversity: 5, multiplicities: 1,1,8,58,108, labels: 0">
<ellipse fill="#fb7c5c" stroke="black" cx="810.596" cy="-234" rx="37.0935" ry="18"/>
<text text-anchor="middle" x="810.596" y="-230.3" font-family="Times,serif" font-size="14.00">7 (5): 0</text>
</a>
</g>
</g>
<!-- 7&#45;&gt;0 -->
<g id="edge19" class="edge"><title>7&#45;&gt;0</title>
<path fill="none" stroke="black" d="M775.374,-227.853C689.889,-215.36 471.503,-183.446 376.676,-169.588"/>
<polygon fill="black" stroke="black" points="376.947,-166.09 366.546,-168.108 375.935,-173.017 376.947,-166.09"/>
</g>
<!-- 7&#45;&gt;5 -->
<g id="edge16" class="edge"><title>7&#45;&gt;5</title>
<path fill="none" stroke="black" d="M791.534,-218.496C778.335,-208.453 760.567,-194.934 745.873,-183.754"/>
<polygon fill="black" stroke="black" points="747.712,-180.755 737.634,-177.485 743.473,-186.326 747.712,-180.755"/>
</g>
<!-- 8 -->
<g id="node9" class="node"><title>8</title>
<g id="a_node9"><a xlink:title="8, diversity: 1, multiplicities: 47, labels: 0">
<ellipse fill="#fca082" stroke="black" cx="810.596" cy="-162" rx="37.0935" ry="18"/>
<text text-anchor="middle" x="810.596" y="-158.3" font-family="Times,serif" font-size="14.00">8 (1): 0</text>
</a>
</g>
</g>
<!-- 7&#45;&gt;8 -->
<g id="edge21" class="edge"><title>7&#45;&gt;8</title>
<path fill="none" stroke="black" d="M810.596,-215.697C810.596,-207.983 810.596,-198.712 810.596,-190.112"/>
<polygon fill="black" stroke="black" points="814.096,-190.104 810.596,-180.104 807.096,-190.104 814.096,-190.104"/>
</g>
<!-- 9 -->
<g id="node10" class="node"><title>9</title>
<g id="a_node10"><a xlink:title="9, diversity: 2, multiplicities: 21,27, labels: 0">
<ellipse fill="#fca082" stroke="black" cx="1004.6" cy="-162" rx="37.0935" ry="18"/>
<text text-anchor="middle" x="1004.6" y="-158.3" font-family="Times,serif" font-size="14.00">9 (2): 0</text>
</a>
</g>
</g>
<!-- 7&#45;&gt;9 -->
<g id="edge17" class="edge"><title>7&#45;&gt;9</title>
<path fill="none" stroke="black" d="M836.782,-221.203C864.86,-210.525 910.227,-194.323 949.596,-180 954.062,-178.375 958.767,-176.651 963.488,-174.948"/>
<polygon fill="black" stroke="black" points="964.879,-178.168 973.129,-171.52 962.534,-171.572 964.879,-178.168"/>
</g>
<!-- 12 -->
<g id="node13" class="node"><title>12</title>
<g id="a_node13"><a xlink:title="12, diversity: 2, multiplicities: 22,34, labels: 0">
<ellipse fill="#fca082" stroke="black" cx="907.596" cy="-162" rx="41.6928" ry="18"/>
<text text-anchor="middle" x="907.596" y="-158.3" font-family="Times,serif" font-size="14.00">12 (2): 0</text>
</a>
</g>
</g>
<!-- 7&#45;&gt;12 -->
<g id="edge9" class="edge"><title>7&#45;&gt;12</title>
<path fill="none" stroke="black" d="M830.695,-218.496C844.648,-208.427 863.442,-194.864 878.959,-183.666"/>
<polygon fill="black" stroke="black" points="881.129,-186.416 887.19,-177.726 877.033,-180.74 881.129,-186.416"/>
</g>
<!-- 14 -->
<g id="node15" class="node"><title>14</title>
<g id="a_node15"><a xlink:title="14, diversity: 1, multiplicities: 3, labels: 0">
<ellipse fill="#fee3d6" stroke="black" cx="621.596" cy="-162" rx="41.6928" ry="18"/>
<text text-anchor="middle" x="621.596" y="-158.3" font-family="Times,serif" font-size="14.00">14 (1): 0</text>
</a>
</g>
</g>
<!-- 7&#45;&gt;14 -->
<g id="edge15" class="edge"><title>7&#45;&gt;14</title>
<path fill="none" stroke="black" d="M781.891,-222.369C749.893,-210.517 697.913,-191.265 661.858,-177.912"/>
<polygon fill="black" stroke="black" points="662.734,-174.504 652.141,-174.313 660.303,-181.068 662.734,-174.504"/>
</g>
<!-- 10 -->
<g id="node11" class="node"><title>10</title>
<g id="a_node11"><a xlink:title="10, diversity: 1, multiplicities: 10, labels: 0">
<ellipse fill="#fcc4ad" stroke="black" cx="815.596" cy="-90" rx="41.6928" ry="18"/>
<text text-anchor="middle" x="815.596" y="-86.3" font-family="Times,serif" font-size="14.00">10 (1): 0</text>
</a>
</g>
</g>
<!-- 8&#45;&gt;10 -->
<g id="edge8" class="edge"><title>8&#45;&gt;10</title>
<path fill="none" stroke="black" d="M811.832,-143.697C812.383,-135.983 813.045,-126.712 813.66,-118.112"/>
<polygon fill="black" stroke="black" points="817.153,-118.328 814.375,-108.104 810.171,-117.83 817.153,-118.328"/>
</g>
<!-- 9&#45;&gt;7 -->
<g id="edge14" class="edge"><title>9&#45;&gt;7</title>
<path fill="none" stroke="black" d="M979.879,-175.48C975.789,-177.009 971.597,-178.545 967.596,-180 928.6,-194.188 883.719,-210.218 851.814,-220.898"/>
<polygon fill="black" stroke="black" points="850.328,-217.703 841.935,-224.168 852.528,-224.348 850.328,-217.703"/>
</g>
<!-- 13 -->
<g id="node14" class="node"><title>13</title>
<g id="a_node14"><a xlink:title="13, diversity: 2, multiplicities: 6,7, labels: 0">
<ellipse fill="#fca082" stroke="black" cx="960.596" cy="-90" rx="41.6928" ry="18"/>
<text text-anchor="middle" x="960.596" y="-86.3" font-family="Times,serif" font-size="14.00">13 (2): 0</text>
</a>
</g>
</g>
<!-- 9&#45;&gt;13 -->
<g id="edge18" class="edge"><title>9&#45;&gt;13</title>
<path fill="none" stroke="black" d="M994.169,-144.411C988.854,-135.955 982.278,-125.494 976.36,-116.078"/>
<polygon fill="black" stroke="black" points="979.234,-114.074 970.949,-107.47 973.307,-117.799 979.234,-114.074"/>
</g>
<!-- 12&#45;&gt;13 -->
<g id="edge6" class="edge"><title>12&#45;&gt;13</title>
<path fill="none" stroke="black" d="M919.889,-144.765C926.417,-136.143 934.577,-125.365 941.875,-115.727"/>
<polygon fill="black" stroke="black" points="944.756,-117.719 948.002,-107.633 939.176,-113.493 944.756,-117.719"/>
</g>
<!-- 18 -->
<g id="node19" class="node"><title>18</title>
<g id="a_node19"><a xlink:title="18, diversity: 1, multiplicities: 10, labels: 0">
<ellipse fill="#fcc4ad" stroke="black" cx="621.596" cy="-90" rx="41.6928" ry="18"/>
<text text-anchor="middle" x="621.596" y="-86.3" font-family="Times,serif" font-size="14.00">18 (1): 0</text>
</a>
</g>
</g>
<!-- 14&#45;&gt;18 -->
<g id="edge7" class="edge"><title>14&#45;&gt;18</title>
<path fill="none" stroke="black" d="M621.596,-143.697C621.596,-135.983 621.596,-126.712 621.596,-118.112"/>
<polygon fill="black" stroke="black" points="625.096,-118.104 621.596,-108.104 618.096,-118.104 625.096,-118.104"/>
</g>
<!-- 16 -->
<g id="node17" class="node"><title>16</title>
<g id="a_node17"><a xlink:title="16, diversity: 1, multiplicities: 28, labels: 0">
<ellipse fill="#fca082" stroke="black" cx="1004.6" cy="-378" rx="41.6928" ry="18"/>
<text text-anchor="middle" x="1004.6" y="-374.3" font-family="Times,serif" font-size="14.00">16 (1): 0</text>
</a>
</g>
</g>
<!-- 17 -->
<g id="node18" class="node"><title>17</title>
<g id="a_node18"><a xlink:title="17, diversity: 1, multiplicities: 11, labels: 0">
<ellipse fill="#fca082" stroke="black" cx="1004.6" cy="-306" rx="41.6928" ry="18"/>
<text text-anchor="middle" x="1004.6" y="-302.3" font-family="Times,serif" font-size="14.00">17 (1): 0</text>
</a>
</g>
</g>
<!-- 16&#45;&gt;17 -->
<g id="edge4" class="edge"><title>16&#45;&gt;17</title>
<path fill="none" stroke="black" d="M1004.6,-359.697C1004.6,-351.983 1004.6,-342.712 1004.6,-334.112"/>
<polygon fill="black" stroke="black" points="1008.1,-334.104 1004.6,-324.104 1001.1,-334.104 1008.1,-334.104"/>
</g>
<!-- 20 -->
<g id="node21" class="node"><title>20</title>
<g id="a_node21"><a xlink:title="20, diversity: 1, multiplicities: 1, labels: 0">
<ellipse fill="#fff5f0" stroke="black" cx="1004.6" cy="-234" rx="41.6928" ry="18"/>
<text text-anchor="middle" x="1004.6" y="-230.3" font-family="Times,serif" font-size="14.00">20 (1): 0</text>
</a>
</g>
</g>
<!-- 17&#45;&gt;20 -->
<g id="edge2" class="edge"><title>17&#45;&gt;20</title>
<path fill="none" stroke="black" d="M1004.6,-287.697C1004.6,-279.983 1004.6,-270.712 1004.6,-262.112"/>
<polygon fill="black" stroke="black" points="1008.1,-262.104 1004.6,-252.104 1001.1,-262.104 1008.1,-262.104"/>
</g>
<!-- 20&#45;&gt;9 -->
<g id="edge11" class="edge"><title>20&#45;&gt;9</title>
<path fill="none" stroke="black" d="M1004.6,-215.697C1004.6,-207.983 1004.6,-198.712 1004.6,-190.112"/>
<polygon fill="black" stroke="black" points="1008.1,-190.104 1004.6,-180.104 1001.1,-190.104 1008.1,-190.104"/>
</g>
</g>
</svg>
