<?xml version="1.0" encoding="UTF-8" standalone="no"?>
<!DOCTYPE svg PUBLIC "-//W3C//DTD SVG 1.1//EN"
 "http://www.w3.org/Graphics/SVG/1.1/DTD/svg11.dtd">
<!-- Generated by graphviz version 2.38.0 (20140413.2041)
 -->
<!-- Title: %3 Pages: 1 -->
<svg width="432pt" height="620pt"
 viewBox="0.00 0.00 431.64 620.00" xmlns="http://www.w3.org/2000/svg" xmlns:xlink="http://www.w3.org/1999/xlink">
<g id="graph0" class="graph" transform="scale(1 1) rotate(0) translate(4 616)">
<title>%3</title>
<polygon fill="white" stroke="none" points="-4,4 -4,-616 427.643,-616 427.643,4 -4,4"/>
<!-- 0 -->
<g id="node1" class="node"><title>0</title>
<g id="a_node1"><a xlink:title="0, diversity: 1, multiplicities: 117, labels: 0">
<ellipse fill="#fb7c5c" stroke="black" cx="83.0467" cy="-378" rx="37.0935" ry="18"/>
<text text-anchor="middle" x="83.0467" y="-374.3" font-family="Times,serif" font-size="14.00">0 (1): 0</text>
</a>
</g>
</g>
<!-- 1 -->
<g id="node2" class="node"><title>1</title>
<g id="a_node2"><a xlink:title="1, diversity: 1, multiplicities: 11, labels: 0">
<ellipse fill="#fca082" stroke="black" cx="37.0467" cy="-306" rx="37.0935" ry="18"/>
<text text-anchor="middle" x="37.0467" y="-302.3" font-family="Times,serif" font-size="14.00">1 (1): 0</text>
</a>
</g>
</g>
<!-- 0&#45;&gt;1 -->
<g id="edge1" class="edge"><title>0&#45;&gt;1</title>
<path fill="none" stroke="black" d="M72.1454,-360.411C66.5885,-351.955 59.7144,-341.494 53.5267,-332.078"/>
<polygon fill="black" stroke="black" points="56.2866,-329.905 47.8698,-323.47 50.4367,-333.749 56.2866,-329.905"/>
</g>
<!-- 9 -->
<g id="node10" class="node"><title>9</title>
<g id="a_node10"><a xlink:title="9, diversity: 1, multiplicities: 23, labels: 0">
<ellipse fill="#fca082" stroke="black" cx="129.047" cy="-306" rx="37.0935" ry="18"/>
<text text-anchor="middle" x="129.047" y="-302.3" font-family="Times,serif" font-size="14.00">9 (1): 0</text>
</a>
</g>
</g>
<!-- 0&#45;&gt;9 -->
<g id="edge14" class="edge"><title>0&#45;&gt;9</title>
<path fill="none" stroke="black" d="M93.9481,-360.411C99.5049,-351.955 106.379,-341.494 112.567,-332.078"/>
<polygon fill="black" stroke="black" points="115.657,-333.749 118.224,-323.47 109.807,-329.905 115.657,-333.749"/>
</g>
<!-- 2 -->
<g id="node3" class="node"><title>2</title>
<g id="a_node3"><a xlink:title="2, diversity: 1, multiplicities: 9, labels: 0">
<ellipse fill="#fcc4ad" stroke="black" cx="181.047" cy="-594" rx="37.0935" ry="18"/>
<text text-anchor="middle" x="181.047" y="-590.3" font-family="Times,serif" font-size="14.00">2 (1): 0</text>
</a>
</g>
</g>
<!-- 4 -->
<g id="node5" class="node"><title>4</title>
<g id="a_node5"><a xlink:title="4, diversity: 1, multiplicities: 1, labels: 0">
<ellipse fill="#fff5f0" stroke="black" cx="87.0467" cy="-522" rx="37.0935" ry="18"/>
<text text-anchor="middle" x="87.0467" y="-518.3" font-family="Times,serif" font-size="14.00">4 (1): 0</text>
</a>
</g>
</g>
<!-- 2&#45;&gt;4 -->
<g id="edge18" class="edge"><title>2&#45;&gt;4</title>
<path fill="none" stroke="black" d="M161.57,-578.496C148.084,-568.453 129.93,-554.934 114.916,-543.754"/>
<polygon fill="black" stroke="black" points="116.61,-540.651 106.499,-537.485 112.429,-546.265 116.61,-540.651"/>
</g>
<!-- 5 -->
<g id="node6" class="node"><title>5</title>
<g id="a_node6"><a xlink:title="5, diversity: 1, multiplicities: 22, labels: 0">
<ellipse fill="#fca082" stroke="black" cx="181.047" cy="-522" rx="37.0935" ry="18"/>
<text text-anchor="middle" x="181.047" y="-518.3" font-family="Times,serif" font-size="14.00">5 (1): 0</text>
</a>
</g>
</g>
<!-- 2&#45;&gt;5 -->
<g id="edge15" class="edge"><title>2&#45;&gt;5</title>
<path fill="none" stroke="black" d="M181.047,-575.697C181.047,-567.983 181.047,-558.712 181.047,-550.112"/>
<polygon fill="black" stroke="black" points="184.547,-550.104 181.047,-540.104 177.547,-550.104 184.547,-550.104"/>
</g>
<!-- 15 -->
<g id="node16" class="node"><title>15</title>
<g id="a_node16"><a xlink:title="15, diversity: 1, multiplicities: 7, labels: 0">
<ellipse fill="#fcc4ad" stroke="black" cx="279.047" cy="-522" rx="41.6928" ry="18"/>
<text text-anchor="middle" x="279.047" y="-518.3" font-family="Times,serif" font-size="14.00">15 (1): 0</text>
</a>
</g>
</g>
<!-- 2&#45;&gt;15 -->
<g id="edge11" class="edge"><title>2&#45;&gt;15</title>
<path fill="none" stroke="black" d="M201.352,-578.496C215.449,-568.427 234.438,-554.864 250.114,-543.666"/>
<polygon fill="black" stroke="black" points="252.327,-546.387 258.43,-537.726 248.258,-540.691 252.327,-546.387"/>
</g>
<!-- 3 -->
<g id="node4" class="node"><title>3</title>
<g id="a_node4"><a xlink:title="3, diversity: 1, multiplicities: 1, labels: 0">
<ellipse fill="#fff5f0" stroke="black" cx="83.0467" cy="-450" rx="37.0935" ry="18"/>
<text text-anchor="middle" x="83.0467" y="-446.3" font-family="Times,serif" font-size="14.00">3 (1): 0</text>
</a>
</g>
</g>
<!-- 3&#45;&gt;0 -->
<g id="edge6" class="edge"><title>3&#45;&gt;0</title>
<path fill="none" stroke="black" d="M83.0467,-431.697C83.0467,-423.983 83.0467,-414.712 83.0467,-406.112"/>
<polygon fill="black" stroke="black" points="86.5468,-406.104 83.0467,-396.104 79.5468,-406.104 86.5468,-406.104"/>
</g>
<!-- 4&#45;&gt;3 -->
<g id="edge13" class="edge"><title>4&#45;&gt;3</title>
<path fill="none" stroke="black" d="M86.0579,-503.697C85.6172,-495.983 85.0874,-486.712 84.596,-478.112"/>
<polygon fill="black" stroke="black" points="88.089,-477.888 84.0241,-468.104 81.1004,-478.288 88.089,-477.888"/>
</g>
<!-- 6 -->
<g id="node7" class="node"><title>6</title>
<g id="a_node7"><a xlink:title="6, diversity: 1, multiplicities: 23, labels: 0">
<ellipse fill="#fca082" stroke="black" cx="382.047" cy="-18" rx="37.0935" ry="18"/>
<text text-anchor="middle" x="382.047" y="-14.3" font-family="Times,serif" font-size="14.00">6 (1): 0</text>
</a>
</g>
</g>
<!-- 7 -->
<g id="node8" class="node"><title>7</title>
<g id="a_node8"><a xlink:title="7, diversity: 2, multiplicities: 6,37, labels: 0">
<ellipse fill="#fca082" stroke="black" cx="129.047" cy="-234" rx="37.0935" ry="18"/>
<text text-anchor="middle" x="129.047" y="-230.3" font-family="Times,serif" font-size="14.00">7 (2): 0</text>
</a>
</g>
</g>
<!-- 8 -->
<g id="node9" class="node"><title>8</title>
<g id="a_node9"><a xlink:title="8, diversity: 1, multiplicities: 8, labels: 0">
<ellipse fill="#fcc4ad" stroke="black" cx="129.047" cy="-162" rx="37.0935" ry="18"/>
<text text-anchor="middle" x="129.047" y="-158.3" font-family="Times,serif" font-size="14.00">8 (1): 0</text>
</a>
</g>
</g>
<!-- 7&#45;&gt;8 -->
<g id="edge17" class="edge"><title>7&#45;&gt;8</title>
<path fill="none" stroke="black" d="M129.047,-215.697C129.047,-207.983 129.047,-198.712 129.047,-190.112"/>
<polygon fill="black" stroke="black" points="132.547,-190.104 129.047,-180.104 125.547,-190.104 132.547,-190.104"/>
</g>
<!-- 10 -->
<g id="node11" class="node"><title>10</title>
<g id="a_node11"><a xlink:title="10, diversity: 1, multiplicities: 8, labels: 0">
<ellipse fill="#fcc4ad" stroke="black" cx="129.047" cy="-90" rx="41.6928" ry="18"/>
<text text-anchor="middle" x="129.047" y="-86.3" font-family="Times,serif" font-size="14.00">10 (1): 0</text>
</a>
</g>
</g>
<!-- 8&#45;&gt;10 -->
<g id="edge9" class="edge"><title>8&#45;&gt;10</title>
<path fill="none" stroke="black" d="M129.047,-143.697C129.047,-135.983 129.047,-126.712 129.047,-118.112"/>
<polygon fill="black" stroke="black" points="132.547,-118.104 129.047,-108.104 125.547,-118.104 132.547,-118.104"/>
</g>
<!-- 9&#45;&gt;7 -->
<g id="edge19" class="edge"><title>9&#45;&gt;7</title>
<path fill="none" stroke="black" d="M129.047,-287.697C129.047,-279.983 129.047,-270.712 129.047,-262.112"/>
<polygon fill="black" stroke="black" points="132.547,-262.104 129.047,-252.104 125.547,-262.104 132.547,-262.104"/>
</g>
<!-- 11 -->
<g id="node12" class="node"><title>11</title>
<g id="a_node12"><a xlink:title="11, diversity: 2, multiplicities: 5,19, labels: 0">
<ellipse fill="#fca082" stroke="black" cx="382.047" cy="-162" rx="41.6928" ry="18"/>
<text text-anchor="middle" x="382.047" y="-158.3" font-family="Times,serif" font-size="14.00">11 (2): 0</text>
</a>
</g>
</g>
<!-- 13 -->
<g id="node14" class="node"><title>13</title>
<g id="a_node14"><a xlink:title="13, diversity: 1, multiplicities: 5, labels: 0">
<ellipse fill="#fee3d6" stroke="black" cx="382.047" cy="-90" rx="41.6928" ry="18"/>
<text text-anchor="middle" x="382.047" y="-86.3" font-family="Times,serif" font-size="14.00">13 (1): 0</text>
</a>
</g>
</g>
<!-- 11&#45;&gt;13 -->
<g id="edge16" class="edge"><title>11&#45;&gt;13</title>
<path fill="none" stroke="black" d="M382.047,-143.697C382.047,-135.983 382.047,-126.712 382.047,-118.112"/>
<polygon fill="black" stroke="black" points="385.547,-118.104 382.047,-108.104 378.547,-118.104 385.547,-118.104"/>
</g>
<!-- 12 -->
<g id="node13" class="node"><title>12</title>
<g id="a_node13"><a xlink:title="12, diversity: 1, multiplicities: 18, labels: 0">
<ellipse fill="#fca082" stroke="black" cx="382.047" cy="-234" rx="41.6928" ry="18"/>
<text text-anchor="middle" x="382.047" y="-230.3" font-family="Times,serif" font-size="14.00">12 (1): 0</text>
</a>
</g>
</g>
<!-- 12&#45;&gt;11 -->
<g id="edge4" class="edge"><title>12&#45;&gt;11</title>
<path fill="none" stroke="black" d="M382.047,-215.697C382.047,-207.983 382.047,-198.712 382.047,-190.112"/>
<polygon fill="black" stroke="black" points="385.547,-190.104 382.047,-180.104 378.547,-190.104 385.547,-190.104"/>
</g>
<!-- 13&#45;&gt;6 -->
<g id="edge10" class="edge"><title>13&#45;&gt;6</title>
<path fill="none" stroke="black" d="M382.047,-71.6966C382.047,-63.9827 382.047,-54.7125 382.047,-46.1124"/>
<polygon fill="black" stroke="black" points="385.547,-46.1043 382.047,-36.1043 378.547,-46.1044 385.547,-46.1043"/>
</g>
<!-- 14 -->
<g id="node15" class="node"><title>14</title>
<g id="a_node15"><a xlink:title="14, diversity: 1, multiplicities: 6, labels: 0">
<ellipse fill="#fcc4ad" stroke="black" cx="180.047" cy="-450" rx="41.6928" ry="18"/>
<text text-anchor="middle" x="180.047" y="-446.3" font-family="Times,serif" font-size="14.00">14 (1): 0</text>
</a>
</g>
</g>
<!-- 15&#45;&gt;14 -->
<g id="edge3" class="edge"><title>15&#45;&gt;14</title>
<path fill="none" stroke="black" d="M258.051,-506.155C243.876,-496.132 224.969,-482.763 209.32,-471.698"/>
<polygon fill="black" stroke="black" points="211.198,-468.739 201.012,-465.824 207.156,-474.455 211.198,-468.739"/>
</g>
<!-- 16 -->
<g id="node17" class="node"><title>16</title>
<g id="a_node17"><a xlink:title="16, diversity: 1, multiplicities: 5, labels: 0">
<ellipse fill="#fee3d6" stroke="black" cx="281.047" cy="-450" rx="41.6928" ry="18"/>
<text text-anchor="middle" x="281.047" y="-446.3" font-family="Times,serif" font-size="14.00">16 (1): 0</text>
</a>
</g>
</g>
<!-- 15&#45;&gt;16 -->
<g id="edge7" class="edge"><title>15&#45;&gt;16</title>
<path fill="none" stroke="black" d="M279.541,-503.697C279.761,-495.983 280.026,-486.712 280.272,-478.112"/>
<polygon fill="black" stroke="black" points="283.771,-478.2 280.558,-468.104 276.774,-478 283.771,-478.2"/>
</g>
<!-- 18 -->
<g id="node19" class="node"><title>18</title>
<g id="a_node19"><a xlink:title="18, diversity: 1, multiplicities: 1, labels: 0">
<ellipse fill="#fff5f0" stroke="black" cx="382.047" cy="-450" rx="41.6928" ry="18"/>
<text text-anchor="middle" x="382.047" y="-446.3" font-family="Times,serif" font-size="14.00">18 (1): 0</text>
</a>
</g>
</g>
<!-- 15&#45;&gt;18 -->
<g id="edge5" class="edge"><title>15&#45;&gt;18</title>
<path fill="none" stroke="black" d="M300.388,-506.496C315.442,-496.266 335.803,-482.428 352.427,-471.13"/>
<polygon fill="black" stroke="black" points="354.429,-474.001 360.732,-465.485 350.494,-468.212 354.429,-474.001"/>
</g>
<!-- 17 -->
<g id="node18" class="node"><title>17</title>
<g id="a_node18"><a xlink:title="17, diversity: 1, multiplicities: 1, labels: 0">
<ellipse fill="#fff5f0" stroke="black" cx="382.047" cy="-306" rx="41.6928" ry="18"/>
<text text-anchor="middle" x="382.047" y="-302.3" font-family="Times,serif" font-size="14.00">17 (1): 0</text>
</a>
</g>
</g>
<!-- 17&#45;&gt;12 -->
<g id="edge2" class="edge"><title>17&#45;&gt;12</title>
<path fill="none" stroke="black" d="M382.047,-287.697C382.047,-279.983 382.047,-270.712 382.047,-262.112"/>
<polygon fill="black" stroke="black" points="385.547,-262.104 382.047,-252.104 378.547,-262.104 385.547,-262.104"/>
</g>
<!-- 19 -->
<g id="node20" class="node"><title>19</title>
<g id="a_node20"><a xlink:title="19, diversity: 1, multiplicities: 1, labels: 0">
<ellipse fill="#fff5f0" stroke="black" cx="382.047" cy="-378" rx="41.6928" ry="18"/>
<text text-anchor="middle" x="382.047" y="-374.3" font-family="Times,serif" font-size="14.00">19 (1): 0</text>
</a>
</g>
</g>
<!-- 18&#45;&gt;19 -->
<g id="edge12" class="edge"><title>18&#45;&gt;19</title>
<path fill="none" stroke="black" d="M382.047,-431.697C382.047,-423.983 382.047,-414.712 382.047,-406.112"/>
<polygon fill="black" stroke="black" points="385.547,-406.104 382.047,-396.104 378.547,-406.104 385.547,-406.104"/>
</g>
<!-- 19&#45;&gt;17 -->
<g id="edge8" class="edge"><title>19&#45;&gt;17</title>
<path fill="none" stroke="black" d="M382.047,-359.697C382.047,-351.983 382.047,-342.712 382.047,-334.112"/>
<polygon fill="black" stroke="black" points="385.547,-334.104 382.047,-324.104 378.547,-334.104 385.547,-334.104"/>
</g>
</g>
</svg>
