<?xml version="1.0" encoding="UTF-8" standalone="no"?>
<!DOCTYPE svg PUBLIC "-//W3C//DTD SVG 1.1//EN"
 "http://www.w3.org/Graphics/SVG/1.1/DTD/svg11.dtd">
<!-- Generated by graphviz version 2.38.0 (20140413.2041)
 -->
<!-- Title: %3 Pages: 1 -->
<svg width="266pt" height="332pt"
 viewBox="0.00 0.00 266.09 332.00" xmlns="http://www.w3.org/2000/svg" xmlns:xlink="http://www.w3.org/1999/xlink">
<g id="graph0" class="graph" transform="scale(1 1) rotate(0) translate(4 328)">
<title>%3</title>
<polygon fill="white" stroke="none" points="-4,4 -4,-328 262.093,-328 262.093,4 -4,4"/>
<!-- 0 -->
<g id="node1" class="node"><title>0</title>
<g id="a_node1"><a xlink:title="0, diversity: 1, multiplicities: 15, labels: 0">
<ellipse fill="#fca082" stroke="black" cx="129.047" cy="-234" rx="37.0935" ry="18"/>
<text text-anchor="middle" x="129.047" y="-230.3" font-family="Times,serif" font-size="14.00">0 (1): 0</text>
</a>
</g>
</g>
<!-- 2 -->
<g id="node3" class="node"><title>2</title>
<g id="a_node3"><a xlink:title="2, diversity: 2, multiplicities: 11,13, labels: 0">
<ellipse fill="#fca082" stroke="black" cx="37.0467" cy="-162" rx="37.0935" ry="18"/>
<text text-anchor="middle" x="37.0467" y="-158.3" font-family="Times,serif" font-size="14.00">2 (2): 0</text>
</a>
</g>
</g>
<!-- 0&#45;&gt;2 -->
<g id="edge7" class="edge"><title>0&#45;&gt;2</title>
<path fill="none" stroke="black" d="M109.984,-218.496C96.7852,-208.453 79.0176,-194.934 64.3235,-183.754"/>
<polygon fill="black" stroke="black" points="66.1624,-180.755 56.0848,-177.485 61.9237,-186.326 66.1624,-180.755"/>
</g>
<!-- 3 -->
<g id="node4" class="node"><title>3</title>
<g id="a_node4"><a xlink:title="3, diversity: 2, multiplicities: 1,44, labels: 0">
<ellipse fill="#fca082" stroke="black" cx="129.047" cy="-162" rx="37.0935" ry="18"/>
<text text-anchor="middle" x="129.047" y="-158.3" font-family="Times,serif" font-size="14.00">3 (2): 0</text>
</a>
</g>
</g>
<!-- 0&#45;&gt;3 -->
<g id="edge6" class="edge"><title>0&#45;&gt;3</title>
<path fill="none" stroke="black" d="M129.047,-215.697C129.047,-207.983 129.047,-198.712 129.047,-190.112"/>
<polygon fill="black" stroke="black" points="132.547,-190.104 129.047,-180.104 125.547,-190.104 132.547,-190.104"/>
</g>
<!-- 5 -->
<g id="node6" class="node"><title>5</title>
<g id="a_node6"><a xlink:title="5, diversity: 1, multiplicities: 20, labels: 0">
<ellipse fill="#fca082" stroke="black" cx="221.047" cy="-162" rx="37.0935" ry="18"/>
<text text-anchor="middle" x="221.047" y="-158.3" font-family="Times,serif" font-size="14.00">5 (1): 0</text>
</a>
</g>
</g>
<!-- 0&#45;&gt;5 -->
<g id="edge5" class="edge"><title>0&#45;&gt;5</title>
<path fill="none" stroke="black" d="M148.109,-218.496C161.308,-208.453 179.076,-194.934 193.77,-183.754"/>
<polygon fill="black" stroke="black" points="196.17,-186.326 202.009,-177.485 191.931,-180.755 196.17,-186.326"/>
</g>
<!-- 1 -->
<g id="node2" class="node"><title>1</title>
<g id="a_node2"><a xlink:title="1, diversity: 1, multiplicities: 8, labels: 0">
<ellipse fill="#fcc4ad" stroke="black" cx="221.047" cy="-234" rx="37.0935" ry="18"/>
<text text-anchor="middle" x="221.047" y="-230.3" font-family="Times,serif" font-size="14.00">1 (1): 0</text>
</a>
</g>
</g>
<!-- 4 -->
<g id="node5" class="node"><title>4</title>
<g id="a_node5"><a xlink:title="4, diversity: 2, multiplicities: 24,26, labels: 0">
<ellipse fill="#fca082" stroke="black" cx="221.047" cy="-18" rx="37.0935" ry="18"/>
<text text-anchor="middle" x="221.047" y="-14.3" font-family="Times,serif" font-size="14.00">4 (2): 0</text>
</a>
</g>
</g>
<!-- 6 -->
<g id="node7" class="node"><title>6</title>
<g id="a_node7"><a xlink:title="6, diversity: 1, multiplicities: 6, labels: 0">
<ellipse fill="#fcc4ad" stroke="black" cx="221.047" cy="-90" rx="37.0935" ry="18"/>
<text text-anchor="middle" x="221.047" y="-86.3" font-family="Times,serif" font-size="14.00">6 (1): 0</text>
</a>
</g>
</g>
<!-- 5&#45;&gt;6 -->
<g id="edge4" class="edge"><title>5&#45;&gt;6</title>
<path fill="none" stroke="black" d="M221.047,-143.697C221.047,-135.983 221.047,-126.712 221.047,-118.112"/>
<polygon fill="black" stroke="black" points="224.547,-118.104 221.047,-108.104 217.547,-118.104 224.547,-118.104"/>
</g>
<!-- 6&#45;&gt;4 -->
<g id="edge1" class="edge"><title>6&#45;&gt;4</title>
<path fill="none" stroke="black" d="M221.047,-71.6966C221.047,-63.9827 221.047,-54.7125 221.047,-46.1124"/>
<polygon fill="black" stroke="black" points="224.547,-46.1043 221.047,-36.1043 217.547,-46.1044 224.547,-46.1043"/>
</g>
<!-- 7 -->
<g id="node8" class="node"><title>7</title>
<g id="a_node8"><a xlink:title="7, diversity: 1, multiplicities: 49, labels: 0">
<ellipse fill="#fca082" stroke="black" cx="175.047" cy="-306" rx="37.0935" ry="18"/>
<text text-anchor="middle" x="175.047" y="-302.3" font-family="Times,serif" font-size="14.00">7 (1): 0</text>
</a>
</g>
</g>
<!-- 7&#45;&gt;0 -->
<g id="edge2" class="edge"><title>7&#45;&gt;0</title>
<path fill="none" stroke="black" d="M164.145,-288.411C158.588,-279.955 151.714,-269.494 145.527,-260.078"/>
<polygon fill="black" stroke="black" points="148.287,-257.905 139.87,-251.47 142.437,-261.749 148.287,-257.905"/>
</g>
<!-- 7&#45;&gt;1 -->
<g id="edge3" class="edge"><title>7&#45;&gt;1</title>
<path fill="none" stroke="black" d="M185.948,-288.411C191.505,-279.955 198.379,-269.494 204.567,-260.078"/>
<polygon fill="black" stroke="black" points="207.657,-261.749 210.224,-251.47 201.807,-257.905 207.657,-261.749"/>
</g>
</g>
</svg>
