<?xml version="1.0" encoding="UTF-8" standalone="no"?>
<!DOCTYPE svg PUBLIC "-//W3C//DTD SVG 1.1//EN"
 "http://www.w3.org/Graphics/SVG/1.1/DTD/svg11.dtd">
<!-- Generated by graphviz version 2.38.0 (20140413.2041)
 -->
<!-- Title: %3 Pages: 1 -->
<svg width="404pt" height="620pt"
 viewBox="0.00 0.00 404.09 620.00" xmlns="http://www.w3.org/2000/svg" xmlns:xlink="http://www.w3.org/1999/xlink">
<g id="graph0" class="graph" transform="scale(1 1) rotate(0) translate(4 616)">
<title>%3</title>
<polygon fill="white" stroke="none" points="-4,4 -4,-616 400.093,-616 400.093,4 -4,4"/>
<!-- 0 -->
<g id="node1" class="node"><title>0</title>
<g id="a_node1"><a xlink:title="0, diversity: 1, multiplicities: 35, labels: 0">
<ellipse fill="#fca082" stroke="black" cx="175.047" cy="-18" rx="37.0935" ry="18"/>
<text text-anchor="middle" x="175.047" y="-14.3" font-family="Times,serif" font-size="14.00">0 (1): 0</text>
</a>
</g>
</g>
<!-- 1 -->
<g id="node2" class="node"><title>1</title>
<g id="a_node2"><a xlink:title="1, diversity: 1, multiplicities: 47, labels: 0">
<ellipse fill="#fca082" stroke="black" cx="129.047" cy="-162" rx="37.0935" ry="18"/>
<text text-anchor="middle" x="129.047" y="-158.3" font-family="Times,serif" font-size="14.00">1 (1): 0</text>
</a>
</g>
</g>
<!-- 3 -->
<g id="node4" class="node"><title>3</title>
<g id="a_node4"><a xlink:title="3, diversity: 1, multiplicities: 24, labels: 0">
<ellipse fill="#fca082" stroke="black" cx="37.0467" cy="-90" rx="37.0935" ry="18"/>
<text text-anchor="middle" x="37.0467" y="-86.3" font-family="Times,serif" font-size="14.00">3 (1): 0</text>
</a>
</g>
</g>
<!-- 1&#45;&gt;3 -->
<g id="edge2" class="edge"><title>1&#45;&gt;3</title>
<path fill="none" stroke="black" d="M109.984,-146.496C96.7852,-136.453 79.0176,-122.934 64.3235,-111.754"/>
<polygon fill="black" stroke="black" points="66.1624,-108.755 56.0848,-105.485 61.9237,-114.326 66.1624,-108.755"/>
</g>
<!-- 4 -->
<g id="node5" class="node"><title>4</title>
<g id="a_node5"><a xlink:title="4, diversity: 1, multiplicities: 20, labels: 0">
<ellipse fill="#fca082" stroke="black" cx="129.047" cy="-90" rx="37.0935" ry="18"/>
<text text-anchor="middle" x="129.047" y="-86.3" font-family="Times,serif" font-size="14.00">4 (1): 0</text>
</a>
</g>
</g>
<!-- 1&#45;&gt;4 -->
<g id="edge8" class="edge"><title>1&#45;&gt;4</title>
<path fill="none" stroke="black" d="M129.047,-143.697C129.047,-135.983 129.047,-126.712 129.047,-118.112"/>
<polygon fill="black" stroke="black" points="132.547,-118.104 129.047,-108.104 125.547,-118.104 132.547,-118.104"/>
</g>
<!-- 6 -->
<g id="node7" class="node"><title>6</title>
<g id="a_node7"><a xlink:title="6, diversity: 2, multiplicities: 17,44, labels: 0">
<ellipse fill="#fca082" stroke="black" cx="221.047" cy="-90" rx="37.0935" ry="18"/>
<text text-anchor="middle" x="221.047" y="-86.3" font-family="Times,serif" font-size="14.00">6 (2): 0</text>
</a>
</g>
</g>
<!-- 1&#45;&gt;6 -->
<g id="edge11" class="edge"><title>1&#45;&gt;6</title>
<path fill="none" stroke="black" d="M148.109,-146.496C161.308,-136.453 179.076,-122.934 193.77,-111.754"/>
<polygon fill="black" stroke="black" points="196.17,-114.326 202.009,-105.485 191.931,-108.755 196.17,-114.326"/>
</g>
<!-- 2 -->
<g id="node3" class="node"><title>2</title>
<g id="a_node3"><a xlink:title="2, diversity: 1, multiplicities: 108, labels: 0">
<ellipse fill="#fb7c5c" stroke="black" cx="267.047" cy="-18" rx="37.0935" ry="18"/>
<text text-anchor="middle" x="267.047" y="-14.3" font-family="Times,serif" font-size="14.00">2 (1): 0</text>
</a>
</g>
</g>
<!-- 5 -->
<g id="node6" class="node"><title>5</title>
<g id="a_node6"><a xlink:title="5, diversity: 1, multiplicities: 16, labels: 0">
<ellipse fill="#fca082" stroke="black" cx="83.0467" cy="-18" rx="37.0935" ry="18"/>
<text text-anchor="middle" x="83.0467" y="-14.3" font-family="Times,serif" font-size="14.00">5 (1): 0</text>
</a>
</g>
</g>
<!-- 4&#45;&gt;5 -->
<g id="edge5" class="edge"><title>4&#45;&gt;5</title>
<path fill="none" stroke="black" d="M118.145,-72.411C112.588,-63.9549 105.714,-53.4944 99.5267,-44.0783"/>
<polygon fill="black" stroke="black" points="102.287,-41.9049 93.8698,-35.4699 96.4367,-45.7492 102.287,-41.9049"/>
</g>
<!-- 6&#45;&gt;0 -->
<g id="edge7" class="edge"><title>6&#45;&gt;0</title>
<path fill="none" stroke="black" d="M210.145,-72.411C204.588,-63.9549 197.714,-53.4944 191.527,-44.0783"/>
<polygon fill="black" stroke="black" points="194.287,-41.9049 185.87,-35.4699 188.437,-45.7492 194.287,-41.9049"/>
</g>
<!-- 6&#45;&gt;2 -->
<g id="edge10" class="edge"><title>6&#45;&gt;2</title>
<path fill="none" stroke="black" d="M231.948,-72.411C237.505,-63.9549 244.379,-53.4944 250.567,-44.0783"/>
<polygon fill="black" stroke="black" points="253.657,-45.7492 256.224,-35.4699 247.807,-41.9049 253.657,-45.7492"/>
</g>
<!-- 7 -->
<g id="node8" class="node"><title>7</title>
<g id="a_node8"><a xlink:title="7, diversity: 1, multiplicities: 14, labels: 0">
<ellipse fill="#fca082" stroke="black" cx="359.047" cy="-18" rx="37.0935" ry="18"/>
<text text-anchor="middle" x="359.047" y="-14.3" font-family="Times,serif" font-size="14.00">7 (1): 0</text>
</a>
</g>
</g>
<!-- 6&#45;&gt;7 -->
<g id="edge3" class="edge"><title>6&#45;&gt;7</title>
<path fill="none" stroke="black" d="M245.718,-76.4854C267.854,-65.2571 300.545,-48.6748 325.135,-36.2017"/>
<polygon fill="black" stroke="black" points="326.788,-39.2875 334.123,-31.6423 323.622,-33.0447 326.788,-39.2875"/>
</g>
<!-- 8 -->
<g id="node9" class="node"><title>8</title>
<g id="a_node9"><a xlink:title="8, diversity: 1, multiplicities: 16, labels: 0">
<ellipse fill="#fca082" stroke="black" cx="221.047" cy="-162" rx="37.0935" ry="18"/>
<text text-anchor="middle" x="221.047" y="-158.3" font-family="Times,serif" font-size="14.00">8 (1): 0</text>
</a>
</g>
</g>
<!-- 9 -->
<g id="node10" class="node"><title>9</title>
<g id="a_node10"><a xlink:title="9, diversity: 1, multiplicities: 36, labels: 0">
<ellipse fill="#fca082" stroke="black" cx="170.047" cy="-450" rx="37.0935" ry="18"/>
<text text-anchor="middle" x="170.047" y="-446.3" font-family="Times,serif" font-size="14.00">9 (1): 0</text>
</a>
</g>
</g>
<!-- 17 -->
<g id="node18" class="node"><title>17</title>
<g id="a_node18"><a xlink:title="17, diversity: 1, multiplicities: 1, labels: 0">
<ellipse fill="#fff5f0" stroke="black" cx="120.047" cy="-378" rx="41.6928" ry="18"/>
<text text-anchor="middle" x="120.047" y="-374.3" font-family="Times,serif" font-size="14.00">17 (1): 0</text>
</a>
</g>
</g>
<!-- 9&#45;&gt;17 -->
<g id="edge12" class="edge"><title>9&#45;&gt;17</title>
<path fill="none" stroke="black" d="M158.45,-432.765C152.354,-424.23 144.748,-413.582 137.918,-404.019"/>
<polygon fill="black" stroke="black" points="140.588,-401.736 131.928,-395.633 134.892,-405.805 140.588,-401.736"/>
</g>
<!-- 18 -->
<g id="node19" class="node"><title>18</title>
<g id="a_node19"><a xlink:title="18, diversity: 1, multiplicities: 1, labels: 0">
<ellipse fill="#fff5f0" stroke="black" cx="221.047" cy="-378" rx="41.6928" ry="18"/>
<text text-anchor="middle" x="221.047" y="-374.3" font-family="Times,serif" font-size="14.00">18 (1): 0</text>
</a>
</g>
</g>
<!-- 9&#45;&gt;18 -->
<g id="edge15" class="edge"><title>9&#45;&gt;18</title>
<path fill="none" stroke="black" d="M181.875,-432.765C188.157,-424.143 196.01,-413.365 203.032,-403.727"/>
<polygon fill="black" stroke="black" points="205.868,-405.777 208.928,-395.633 200.211,-401.655 205.868,-405.777"/>
</g>
<!-- 10 -->
<g id="node11" class="node"><title>10</title>
<g id="a_node11"><a xlink:title="10, diversity: 1, multiplicities: 64, labels: 0">
<ellipse fill="#fca082" stroke="black" cx="120.047" cy="-234" rx="41.6928" ry="18"/>
<text text-anchor="middle" x="120.047" y="-230.3" font-family="Times,serif" font-size="14.00">10 (1): 0</text>
</a>
</g>
</g>
<!-- 11 -->
<g id="node12" class="node"><title>11</title>
<g id="a_node12"><a xlink:title="11, diversity: 1, multiplicities: 37, labels: 0">
<ellipse fill="#fca082" stroke="black" cx="318.047" cy="-162" rx="41.6928" ry="18"/>
<text text-anchor="middle" x="318.047" y="-158.3" font-family="Times,serif" font-size="14.00">11 (1): 0</text>
</a>
</g>
</g>
<!-- 14 -->
<g id="node15" class="node"><title>14</title>
<g id="a_node15"><a xlink:title="14, diversity: 1, multiplicities: 27, labels: 0">
<ellipse fill="#fca082" stroke="black" cx="318.047" cy="-90" rx="41.6928" ry="18"/>
<text text-anchor="middle" x="318.047" y="-86.3" font-family="Times,serif" font-size="14.00">14 (1): 0</text>
</a>
</g>
</g>
<!-- 11&#45;&gt;14 -->
<g id="edge13" class="edge"><title>11&#45;&gt;14</title>
<path fill="none" stroke="black" d="M318.047,-143.697C318.047,-135.983 318.047,-126.712 318.047,-118.112"/>
<polygon fill="black" stroke="black" points="321.547,-118.104 318.047,-108.104 314.547,-118.104 321.547,-118.104"/>
</g>
<!-- 12 -->
<g id="node13" class="node"><title>12</title>
<g id="a_node13"><a xlink:title="12, diversity: 1, multiplicities: 32, labels: 0">
<ellipse fill="#fca082" stroke="black" cx="221.047" cy="-234" rx="41.6928" ry="18"/>
<text text-anchor="middle" x="221.047" y="-230.3" font-family="Times,serif" font-size="14.00">12 (1): 0</text>
</a>
</g>
</g>
<!-- 12&#45;&gt;1 -->
<g id="edge16" class="edge"><title>12&#45;&gt;1</title>
<path fill="none" stroke="black" d="M201.084,-217.811C188.008,-207.862 170.745,-194.727 156.397,-183.81"/>
<polygon fill="black" stroke="black" points="158.418,-180.949 148.34,-177.68 154.179,-186.52 158.418,-180.949"/>
</g>
<!-- 12&#45;&gt;8 -->
<g id="edge19" class="edge"><title>12&#45;&gt;8</title>
<path fill="none" stroke="black" d="M221.047,-215.697C221.047,-207.983 221.047,-198.712 221.047,-190.112"/>
<polygon fill="black" stroke="black" points="224.547,-190.104 221.047,-180.104 217.547,-190.104 224.547,-190.104"/>
</g>
<!-- 12&#45;&gt;11 -->
<g id="edge4" class="edge"><title>12&#45;&gt;11</title>
<path fill="none" stroke="black" d="M241.618,-218.155C255.507,-208.132 274.032,-194.763 289.365,-183.698"/>
<polygon fill="black" stroke="black" points="291.444,-186.514 297.505,-177.824 287.348,-180.838 291.444,-186.514"/>
</g>
<!-- 13 -->
<g id="node14" class="node"><title>13</title>
<g id="a_node14"><a xlink:title="13, diversity: 1, multiplicities: 36, labels: 0">
<ellipse fill="#fca082" stroke="black" cx="120.047" cy="-306" rx="41.6928" ry="18"/>
<text text-anchor="middle" x="120.047" y="-302.3" font-family="Times,serif" font-size="14.00">13 (1): 0</text>
</a>
</g>
</g>
<!-- 13&#45;&gt;10 -->
<g id="edge17" class="edge"><title>13&#45;&gt;10</title>
<path fill="none" stroke="black" d="M120.047,-287.697C120.047,-279.983 120.047,-270.712 120.047,-262.112"/>
<polygon fill="black" stroke="black" points="123.547,-262.104 120.047,-252.104 116.547,-262.104 123.547,-262.104"/>
</g>
<!-- 15 -->
<g id="node16" class="node"><title>15</title>
<g id="a_node16"><a xlink:title="15, diversity: 1, multiplicities: 50, labels: 0">
<ellipse fill="#fca082" stroke="black" cx="170.047" cy="-594" rx="41.6928" ry="18"/>
<text text-anchor="middle" x="170.047" y="-590.3" font-family="Times,serif" font-size="14.00">15 (1): 0</text>
</a>
</g>
</g>
<!-- 16 -->
<g id="node17" class="node"><title>16</title>
<g id="a_node17"><a xlink:title="16, diversity: 1, multiplicities: 10, labels: 0">
<ellipse fill="#fcc4ad" stroke="black" cx="170.047" cy="-522" rx="41.6928" ry="18"/>
<text text-anchor="middle" x="170.047" y="-518.3" font-family="Times,serif" font-size="14.00">16 (1): 0</text>
</a>
</g>
</g>
<!-- 15&#45;&gt;16 -->
<g id="edge6" class="edge"><title>15&#45;&gt;16</title>
<path fill="none" stroke="black" d="M170.047,-575.697C170.047,-567.983 170.047,-558.712 170.047,-550.112"/>
<polygon fill="black" stroke="black" points="173.547,-550.104 170.047,-540.104 166.547,-550.104 173.547,-550.104"/>
</g>
<!-- 16&#45;&gt;9 -->
<g id="edge9" class="edge"><title>16&#45;&gt;9</title>
<path fill="none" stroke="black" d="M170.047,-503.697C170.047,-495.983 170.047,-486.712 170.047,-478.112"/>
<polygon fill="black" stroke="black" points="173.547,-478.104 170.047,-468.104 166.547,-478.104 173.547,-478.104"/>
</g>
<!-- 17&#45;&gt;13 -->
<g id="edge14" class="edge"><title>17&#45;&gt;13</title>
<path fill="none" stroke="black" d="M120.047,-359.697C120.047,-351.983 120.047,-342.712 120.047,-334.112"/>
<polygon fill="black" stroke="black" points="123.547,-334.104 120.047,-324.104 116.547,-334.104 123.547,-334.104"/>
</g>
<!-- 19 -->
<g id="node20" class="node"><title>19</title>
<g id="a_node20"><a xlink:title="19, diversity: 2, multiplicities: 1,1, labels: 0">
<ellipse fill="#fee3d6" stroke="black" cx="221.047" cy="-306" rx="41.6928" ry="18"/>
<text text-anchor="middle" x="221.047" y="-302.3" font-family="Times,serif" font-size="14.00">19 (2): 0</text>
</a>
</g>
</g>
<!-- 18&#45;&gt;19 -->
<g id="edge18" class="edge"><title>18&#45;&gt;19</title>
<path fill="none" stroke="black" d="M221.047,-359.697C221.047,-351.983 221.047,-342.712 221.047,-334.112"/>
<polygon fill="black" stroke="black" points="224.547,-334.104 221.047,-324.104 217.547,-334.104 224.547,-334.104"/>
</g>
<!-- 19&#45;&gt;12 -->
<g id="edge1" class="edge"><title>19&#45;&gt;12</title>
<path fill="none" stroke="black" d="M221.047,-287.697C221.047,-279.983 221.047,-270.712 221.047,-262.112"/>
<polygon fill="black" stroke="black" points="224.547,-262.104 221.047,-252.104 217.547,-262.104 224.547,-262.104"/>
</g>
</g>
</svg>
