<?xml version="1.0" encoding="UTF-8" standalone="no"?>
<!DOCTYPE svg PUBLIC "-//W3C//DTD SVG 1.1//EN"
 "http://www.w3.org/Graphics/SVG/1.1/DTD/svg11.dtd">
<!-- Generated by graphviz version 2.38.0 (20140413.2041)
 -->
<!-- Title: %3 Pages: 1 -->
<svg width="1198pt" height="620pt"
 viewBox="0.00 0.00 1198.19 620.00" xmlns="http://www.w3.org/2000/svg" xmlns:xlink="http://www.w3.org/1999/xlink">
<g id="graph0" class="graph" transform="scale(1 1) rotate(0) translate(4 616)">
<title>%3</title>
<polygon fill="white" stroke="none" points="-4,4 -4,-616 1194.19,-616 1194.19,4 -4,4"/>
<!-- 0 -->
<g id="node1" class="node"><title>0</title>
<g id="a_node1"><a xlink:title="0, diversity: 1, multiplicities: 65, labels: 0">
<ellipse fill="#fca082" stroke="black" cx="247.596" cy="-378" rx="37.0935" ry="18"/>
<text text-anchor="middle" x="247.596" y="-374.3" font-family="Times,serif" font-size="14.00">0 (1): 0</text>
</a>
</g>
</g>
<!-- 1 -->
<g id="node2" class="node"><title>1</title>
<g id="a_node2"><a xlink:title="1, diversity: 2, multiplicities: 31,36, labels: 0">
<ellipse fill="#fca082" stroke="black" cx="247.596" cy="-306" rx="37.0935" ry="18"/>
<text text-anchor="middle" x="247.596" y="-302.3" font-family="Times,serif" font-size="14.00">1 (2): 0</text>
</a>
</g>
</g>
<!-- 0&#45;&gt;1 -->
<g id="edge32" class="edge"><title>0&#45;&gt;1</title>
<path fill="none" stroke="black" d="M247.596,-359.697C247.596,-351.983 247.596,-342.712 247.596,-334.112"/>
<polygon fill="black" stroke="black" points="251.096,-334.104 247.596,-324.104 244.096,-334.104 251.096,-334.104"/>
</g>
<!-- 2 -->
<g id="node3" class="node"><title>2</title>
<g id="a_node3"><a xlink:title="2, diversity: 6, multiplicities: 23,41,43,49,86,101, labels: 0">
<ellipse fill="#f6553c" stroke="black" cx="744.596" cy="-522" rx="37.0935" ry="18"/>
<text text-anchor="middle" x="744.596" y="-518.3" font-family="Times,serif" font-size="14.00">2 (6): 0</text>
</a>
</g>
</g>
<!-- 6 -->
<g id="node7" class="node"><title>6</title>
<g id="a_node7"><a xlink:title="6, diversity: 1, multiplicities: 50, labels: 0">
<ellipse fill="#fca082" stroke="black" cx="445.596" cy="-450" rx="37.0935" ry="18"/>
<text text-anchor="middle" x="445.596" y="-446.3" font-family="Times,serif" font-size="14.00">6 (1): 0</text>
</a>
</g>
</g>
<!-- 2&#45;&gt;6 -->
<g id="edge21" class="edge"><title>2&#45;&gt;6</title>
<path fill="none" stroke="black" d="M709.827,-515.391C660.69,-507.087 568.361,-490.095 491.596,-468 488.835,-467.205 486.002,-466.325 483.165,-465.394"/>
<polygon fill="black" stroke="black" points="484.192,-462.046 473.597,-462.094 481.91,-468.664 484.192,-462.046"/>
</g>
<!-- 10 -->
<g id="node11" class="node"><title>10</title>
<g id="a_node11"><a xlink:title="10, diversity: 1, multiplicities: 18, labels: 0">
<ellipse fill="#fca082" stroke="black" cx="542.596" cy="-450" rx="41.6928" ry="18"/>
<text text-anchor="middle" x="542.596" y="-446.3" font-family="Times,serif" font-size="14.00">10 (1): 0</text>
</a>
</g>
</g>
<!-- 2&#45;&gt;10 -->
<g id="edge25" class="edge"><title>2&#45;&gt;10</title>
<path fill="none" stroke="black" d="M715.224,-510.821C680.523,-498.796 622.582,-478.718 583.503,-465.176"/>
<polygon fill="black" stroke="black" points="584.594,-461.85 573.999,-461.882 582.302,-468.464 584.594,-461.85"/>
</g>
<!-- 16 -->
<g id="node17" class="node"><title>16</title>
<g id="a_node17"><a xlink:title="16, diversity: 1, multiplicities: 27, labels: 0">
<ellipse fill="#fca082" stroke="black" cx="643.596" cy="-450" rx="41.6928" ry="18"/>
<text text-anchor="middle" x="643.596" y="-446.3" font-family="Times,serif" font-size="14.00">16 (1): 0</text>
</a>
</g>
</g>
<!-- 2&#45;&gt;16 -->
<g id="edge20" class="edge"><title>2&#45;&gt;16</title>
<path fill="none" stroke="black" d="M724.157,-506.834C709.567,-496.722 689.713,-482.962 673.365,-471.632"/>
<polygon fill="black" stroke="black" points="674.913,-468.446 664.7,-465.626 670.925,-474.199 674.913,-468.446"/>
</g>
<!-- 17 -->
<g id="node18" class="node"><title>17</title>
<g id="a_node18"><a xlink:title="17, diversity: 1, multiplicities: 41, labels: 0">
<ellipse fill="#fca082" stroke="black" cx="744.596" cy="-450" rx="41.6928" ry="18"/>
<text text-anchor="middle" x="744.596" y="-446.3" font-family="Times,serif" font-size="14.00">17 (1): 0</text>
</a>
</g>
</g>
<!-- 2&#45;&gt;17 -->
<g id="edge30" class="edge"><title>2&#45;&gt;17</title>
<path fill="none" stroke="black" d="M744.596,-503.697C744.596,-495.983 744.596,-486.712 744.596,-478.112"/>
<polygon fill="black" stroke="black" points="748.096,-478.104 744.596,-468.104 741.096,-478.104 748.096,-478.104"/>
</g>
<!-- 18 -->
<g id="node19" class="node"><title>18</title>
<g id="a_node19"><a xlink:title="18, diversity: 1, multiplicities: 35, labels: 0">
<ellipse fill="#fca082" stroke="black" cx="845.596" cy="-450" rx="41.6928" ry="18"/>
<text text-anchor="middle" x="845.596" y="-446.3" font-family="Times,serif" font-size="14.00">18 (1): 0</text>
</a>
</g>
</g>
<!-- 2&#45;&gt;18 -->
<g id="edge3" class="edge"><title>2&#45;&gt;18</title>
<path fill="none" stroke="black" d="M765.035,-506.834C779.626,-496.722 799.48,-482.962 815.827,-471.632"/>
<polygon fill="black" stroke="black" points="818.267,-474.199 824.493,-465.626 814.28,-468.446 818.267,-474.199"/>
</g>
<!-- 38 -->
<g id="node39" class="node"><title>38</title>
<g id="a_node39"><a xlink:title="38, diversity: 1, multiplicities: 9, labels: 0">
<ellipse fill="#fcc4ad" stroke="black" cx="946.596" cy="-450" rx="41.6928" ry="18"/>
<text text-anchor="middle" x="946.596" y="-446.3" font-family="Times,serif" font-size="14.00">38 (1): 0</text>
</a>
</g>
</g>
<!-- 2&#45;&gt;38 -->
<g id="edge26" class="edge"><title>2&#45;&gt;38</title>
<path fill="none" stroke="black" d="M773.969,-510.821C808.669,-498.796 866.61,-478.718 905.69,-465.176"/>
<polygon fill="black" stroke="black" points="906.89,-468.464 915.193,-461.882 904.598,-461.85 906.89,-468.464"/>
</g>
<!-- 3 -->
<g id="node4" class="node"><title>3</title>
<g id="a_node4"><a xlink:title="3, diversity: 1, multiplicities: 30, labels: 0">
<ellipse fill="#fca082" stroke="black" cx="955.596" cy="-522" rx="37.0935" ry="18"/>
<text text-anchor="middle" x="955.596" y="-518.3" font-family="Times,serif" font-size="14.00">3 (1): 0</text>
</a>
</g>
</g>
<!-- 4 -->
<g id="node5" class="node"><title>4</title>
<g id="a_node5"><a xlink:title="4, diversity: 1, multiplicities: 54, labels: 0">
<ellipse fill="#fca082" stroke="black" cx="546.596" cy="-306" rx="37.0935" ry="18"/>
<text text-anchor="middle" x="546.596" y="-302.3" font-family="Times,serif" font-size="14.00">4 (1): 0</text>
</a>
</g>
</g>
<!-- 5 -->
<g id="node6" class="node"><title>5</title>
<g id="a_node6"><a xlink:title="5, diversity: 1, multiplicities: 6, labels: 0">
<ellipse fill="#fcc4ad" stroke="black" cx="1001.6" cy="-594" rx="37.0935" ry="18"/>
<text text-anchor="middle" x="1001.6" y="-590.3" font-family="Times,serif" font-size="14.00">5 (1): 0</text>
</a>
</g>
</g>
<!-- 5&#45;&gt;2 -->
<g id="edge37" class="edge"><title>5&#45;&gt;2</title>
<path fill="none" stroke="black" d="M970.083,-584.417C923.841,-571.821 837.536,-548.314 786.156,-534.32"/>
<polygon fill="black" stroke="black" points="786.936,-530.905 776.367,-531.654 785.096,-537.659 786.936,-530.905"/>
</g>
<!-- 5&#45;&gt;3 -->
<g id="edge31" class="edge"><title>5&#45;&gt;3</title>
<path fill="none" stroke="black" d="M990.695,-576.411C985.138,-567.955 978.264,-557.494 972.076,-548.078"/>
<polygon fill="black" stroke="black" points="974.836,-545.905 966.419,-539.47 968.986,-549.749 974.836,-545.905"/>
</g>
<!-- 7 -->
<g id="node8" class="node"><title>7</title>
<g id="a_node8"><a xlink:title="7, diversity: 1, multiplicities: 76, labels: 0">
<ellipse fill="#fca082" stroke="black" cx="1047.6" cy="-522" rx="37.0935" ry="18"/>
<text text-anchor="middle" x="1047.6" y="-518.3" font-family="Times,serif" font-size="14.00">7 (1): 0</text>
</a>
</g>
</g>
<!-- 5&#45;&gt;7 -->
<g id="edge33" class="edge"><title>5&#45;&gt;7</title>
<path fill="none" stroke="black" d="M1012.5,-576.411C1018.05,-567.955 1024.93,-557.494 1031.12,-548.078"/>
<polygon fill="black" stroke="black" points="1034.21,-549.749 1036.77,-539.47 1028.36,-545.905 1034.21,-549.749"/>
</g>
<!-- 28 -->
<g id="node29" class="node"><title>28</title>
<g id="a_node29"><a xlink:title="28, diversity: 1, multiplicities: 1, labels: 0">
<ellipse fill="#fff5f0" stroke="black" cx="1146.6" cy="-522" rx="41.6928" ry="18"/>
<text text-anchor="middle" x="1146.6" y="-518.3" font-family="Times,serif" font-size="14.00">28 (1): 0</text>
</a>
</g>
</g>
<!-- 5&#45;&gt;28 -->
<g id="edge29" class="edge"><title>5&#45;&gt;28</title>
<path fill="none" stroke="black" d="M1026.85,-580.807C1049.98,-569.643 1084.46,-552.996 1110.49,-540.43"/>
<polygon fill="black" stroke="black" points="1112.18,-543.502 1119.66,-536.002 1109.14,-537.198 1112.18,-543.502"/>
</g>
<!-- 6&#45;&gt;0 -->
<g id="edge24" class="edge"><title>6&#45;&gt;0</title>
<path fill="none" stroke="black" d="M416.116,-438.901C385.451,-428.355 336.075,-411.254 293.596,-396 291.055,-395.087 288.437,-394.14 285.8,-393.18"/>
<polygon fill="black" stroke="black" points="286.87,-389.845 276.276,-389.692 284.463,-396.418 286.87,-389.845"/>
</g>
<!-- 11 -->
<g id="node12" class="node"><title>11</title>
<g id="a_node12"><a xlink:title="11, diversity: 2, multiplicities: 34,97, labels: 0">
<ellipse fill="#fb7c5c" stroke="black" cx="344.596" cy="-378" rx="41.6928" ry="18"/>
<text text-anchor="middle" x="344.596" y="-374.3" font-family="Times,serif" font-size="14.00">11 (2): 0</text>
</a>
</g>
</g>
<!-- 6&#45;&gt;11 -->
<g id="edge22" class="edge"><title>6&#45;&gt;11</title>
<path fill="none" stroke="black" d="M425.157,-434.834C410.567,-424.722 390.713,-410.962 374.365,-399.632"/>
<polygon fill="black" stroke="black" points="375.913,-396.446 365.7,-393.626 371.925,-402.199 375.913,-396.446"/>
</g>
<!-- 12 -->
<g id="node13" class="node"><title>12</title>
<g id="a_node13"><a xlink:title="12, diversity: 1, multiplicities: 40, labels: 0">
<ellipse fill="#fca082" stroke="black" cx="445.596" cy="-378" rx="41.6928" ry="18"/>
<text text-anchor="middle" x="445.596" y="-374.3" font-family="Times,serif" font-size="14.00">12 (1): 0</text>
</a>
</g>
</g>
<!-- 6&#45;&gt;12 -->
<g id="edge28" class="edge"><title>6&#45;&gt;12</title>
<path fill="none" stroke="black" d="M445.596,-431.697C445.596,-423.983 445.596,-414.712 445.596,-406.112"/>
<polygon fill="black" stroke="black" points="449.096,-406.104 445.596,-396.104 442.096,-406.104 449.096,-406.104"/>
</g>
<!-- 14 -->
<g id="node15" class="node"><title>14</title>
<g id="a_node15"><a xlink:title="14, diversity: 1, multiplicities: 5, labels: 0">
<ellipse fill="#fee3d6" stroke="black" cx="546.596" cy="-378" rx="41.6928" ry="18"/>
<text text-anchor="middle" x="546.596" y="-374.3" font-family="Times,serif" font-size="14.00">14 (1): 0</text>
</a>
</g>
</g>
<!-- 6&#45;&gt;14 -->
<g id="edge12" class="edge"><title>6&#45;&gt;14</title>
<path fill="none" stroke="black" d="M466.035,-434.834C480.626,-424.722 500.48,-410.962 516.827,-399.632"/>
<polygon fill="black" stroke="black" points="519.267,-402.199 525.493,-393.626 515.28,-396.446 519.267,-402.199"/>
</g>
<!-- 34 -->
<g id="node35" class="node"><title>34</title>
<g id="a_node35"><a xlink:title="34, diversity: 1, multiplicities: 1, labels: 0">
<ellipse fill="#fff5f0" stroke="black" cx="647.596" cy="-378" rx="41.6928" ry="18"/>
<text text-anchor="middle" x="647.596" y="-374.3" font-family="Times,serif" font-size="14.00">34 (1): 0</text>
</a>
</g>
</g>
<!-- 6&#45;&gt;34 -->
<g id="edge36" class="edge"><title>6&#45;&gt;34</title>
<path fill="none" stroke="black" d="M474.263,-438.272C479.994,-436.165 485.979,-433.991 491.596,-432 538.49,-415.375 550.488,-412.008 597.596,-396 600.456,-395.028 603.407,-394.025 606.379,-393.015"/>
<polygon fill="black" stroke="black" points="607.515,-396.326 615.856,-389.793 605.262,-389.698 607.515,-396.326"/>
</g>
<!-- 31 -->
<g id="node32" class="node"><title>31</title>
<g id="a_node32"><a xlink:title="31, diversity: 1, multiplicities: 7, labels: 0">
<ellipse fill="#fcc4ad" stroke="black" cx="1047.6" cy="-450" rx="41.6928" ry="18"/>
<text text-anchor="middle" x="1047.6" y="-446.3" font-family="Times,serif" font-size="14.00">31 (1): 0</text>
</a>
</g>
</g>
<!-- 7&#45;&gt;31 -->
<g id="edge27" class="edge"><title>7&#45;&gt;31</title>
<path fill="none" stroke="black" d="M1047.6,-503.697C1047.6,-495.983 1047.6,-486.712 1047.6,-478.112"/>
<polygon fill="black" stroke="black" points="1051.1,-478.104 1047.6,-468.104 1044.1,-478.104 1051.1,-478.104"/>
</g>
<!-- 8 -->
<g id="node9" class="node"><title>8</title>
<g id="a_node9"><a xlink:title="8, diversity: 1, multiplicities: 43, labels: 0">
<ellipse fill="#fca082" stroke="black" cx="43.5963" cy="-234" rx="37.0935" ry="18"/>
<text text-anchor="middle" x="43.5963" y="-230.3" font-family="Times,serif" font-size="14.00">8 (1): 0</text>
</a>
</g>
</g>
<!-- 19 -->
<g id="node20" class="node"><title>19</title>
<g id="a_node20"><a xlink:title="19, diversity: 1, multiplicities: 55, labels: 0">
<ellipse fill="#fca082" stroke="black" cx="41.5963" cy="-162" rx="41.6928" ry="18"/>
<text text-anchor="middle" x="41.5963" y="-158.3" font-family="Times,serif" font-size="14.00">19 (1): 0</text>
</a>
</g>
</g>
<!-- 8&#45;&gt;19 -->
<g id="edge6" class="edge"><title>8&#45;&gt;19</title>
<path fill="none" stroke="black" d="M43.1019,-215.697C42.8815,-207.983 42.6167,-198.712 42.3709,-190.112"/>
<polygon fill="black" stroke="black" points="45.8693,-190 42.085,-180.104 38.8721,-190.2 45.8693,-190"/>
</g>
<!-- 9 -->
<g id="node10" class="node"><title>9</title>
<g id="a_node10"><a xlink:title="9, diversity: 1, multiplicities: 30, labels: 0">
<ellipse fill="#fca082" stroke="black" cx="647.596" cy="-234" rx="37.0935" ry="18"/>
<text text-anchor="middle" x="647.596" y="-230.3" font-family="Times,serif" font-size="14.00">9 (1): 0</text>
</a>
</g>
</g>
<!-- 15 -->
<g id="node16" class="node"><title>15</title>
<g id="a_node16"><a xlink:title="15, diversity: 1, multiplicities: 5, labels: 0">
<ellipse fill="#fee3d6" stroke="black" cx="647.596" cy="-162" rx="41.6928" ry="18"/>
<text text-anchor="middle" x="647.596" y="-158.3" font-family="Times,serif" font-size="14.00">15 (1): 0</text>
</a>
</g>
</g>
<!-- 9&#45;&gt;15 -->
<g id="edge14" class="edge"><title>9&#45;&gt;15</title>
<path fill="none" stroke="black" d="M647.596,-215.697C647.596,-207.983 647.596,-198.712 647.596,-190.112"/>
<polygon fill="black" stroke="black" points="651.096,-190.104 647.596,-180.104 644.096,-190.104 651.096,-190.104"/>
</g>
<!-- 13 -->
<g id="node14" class="node"><title>13</title>
<g id="a_node14"><a xlink:title="13, diversity: 3, multiplicities: 1,1,132, labels: 0">
<ellipse fill="#fb7c5c" stroke="black" cx="344.596" cy="-306" rx="41.6928" ry="18"/>
<text text-anchor="middle" x="344.596" y="-302.3" font-family="Times,serif" font-size="14.00">13 (3): 0</text>
</a>
</g>
</g>
<!-- 11&#45;&gt;13 -->
<g id="edge19" class="edge"><title>11&#45;&gt;13</title>
<path fill="none" stroke="black" d="M344.596,-359.697C344.596,-351.983 344.596,-342.712 344.596,-334.112"/>
<polygon fill="black" stroke="black" points="348.096,-334.104 344.596,-324.104 341.096,-334.104 348.096,-334.104"/>
</g>
<!-- 13&#45;&gt;8 -->
<g id="edge8" class="edge"><title>13&#45;&gt;8</title>
<path fill="none" stroke="black" d="M313.523,-293.845C306.992,-291.726 300.109,-289.656 293.596,-288 205.218,-265.522 179.762,-275.3 91.5963,-252 88.2469,-251.115 84.7982,-250.102 81.359,-249.022"/>
<polygon fill="black" stroke="black" points="82.3758,-245.672 71.7825,-245.849 80.1738,-252.317 82.3758,-245.672"/>
</g>
<!-- 20 -->
<g id="node21" class="node"><title>20</title>
<g id="a_node21"><a xlink:title="20, diversity: 1, multiplicities: 207, labels: 0">
<ellipse fill="#f6553c" stroke="black" cx="142.596" cy="-234" rx="41.6928" ry="18"/>
<text text-anchor="middle" x="142.596" y="-230.3" font-family="Times,serif" font-size="14.00">20 (1): 0</text>
</a>
</g>
</g>
<!-- 13&#45;&gt;20 -->
<g id="edge17" class="edge"><title>13&#45;&gt;20</title>
<path fill="none" stroke="black" d="M313.034,-294.062C278.198,-281.991 222.001,-262.517 183.737,-249.257"/>
<polygon fill="black" stroke="black" points="184.532,-245.828 173.937,-245.861 182.24,-252.442 184.532,-245.828"/>
</g>
<!-- 21 -->
<g id="node22" class="node"><title>21</title>
<g id="a_node22"><a xlink:title="21, diversity: 1, multiplicities: 103, labels: 0">
<ellipse fill="#fb7c5c" stroke="black" cx="243.596" cy="-234" rx="41.6928" ry="18"/>
<text text-anchor="middle" x="243.596" y="-230.3" font-family="Times,serif" font-size="14.00">21 (1): 0</text>
</a>
</g>
</g>
<!-- 13&#45;&gt;21 -->
<g id="edge11" class="edge"><title>13&#45;&gt;21</title>
<path fill="none" stroke="black" d="M323.177,-290.155C308.617,-280.064 289.165,-266.583 273.138,-255.474"/>
<polygon fill="black" stroke="black" points="274.851,-252.403 264.639,-249.584 270.864,-258.157 274.851,-252.403"/>
</g>
<!-- 22 -->
<g id="node23" class="node"><title>22</title>
<g id="a_node23"><a xlink:title="22, diversity: 1, multiplicities: 49, labels: 0">
<ellipse fill="#fca082" stroke="black" cx="344.596" cy="-234" rx="41.6928" ry="18"/>
<text text-anchor="middle" x="344.596" y="-230.3" font-family="Times,serif" font-size="14.00">22 (1): 0</text>
</a>
</g>
</g>
<!-- 13&#45;&gt;22 -->
<g id="edge1" class="edge"><title>13&#45;&gt;22</title>
<path fill="none" stroke="black" d="M344.596,-287.697C344.596,-279.983 344.596,-270.712 344.596,-262.112"/>
<polygon fill="black" stroke="black" points="348.096,-262.104 344.596,-252.104 341.096,-262.104 348.096,-262.104"/>
</g>
<!-- 25 -->
<g id="node26" class="node"><title>25</title>
<g id="a_node26"><a xlink:title="25, diversity: 1, multiplicities: 1, labels: 0">
<ellipse fill="#fff5f0" stroke="black" cx="445.596" cy="-234" rx="41.6928" ry="18"/>
<text text-anchor="middle" x="445.596" y="-230.3" font-family="Times,serif" font-size="14.00">25 (1): 0</text>
</a>
</g>
</g>
<!-- 13&#45;&gt;25 -->
<g id="edge15" class="edge"><title>13&#45;&gt;25</title>
<path fill="none" stroke="black" d="M366.016,-290.155C380.575,-280.064 400.027,-266.583 416.055,-255.474"/>
<polygon fill="black" stroke="black" points="418.329,-258.157 424.554,-249.584 414.341,-252.403 418.329,-258.157"/>
</g>
<!-- 27 -->
<g id="node28" class="node"><title>27</title>
<g id="a_node28"><a xlink:title="27, diversity: 1, multiplicities: 50, labels: 0">
<ellipse fill="#fca082" stroke="black" cx="546.596" cy="-234" rx="41.6928" ry="18"/>
<text text-anchor="middle" x="546.596" y="-230.3" font-family="Times,serif" font-size="14.00">27 (1): 0</text>
</a>
</g>
</g>
<!-- 13&#45;&gt;27 -->
<g id="edge35" class="edge"><title>13&#45;&gt;27</title>
<path fill="none" stroke="black" d="M376.159,-294.062C410.995,-281.991 467.191,-262.517 505.455,-249.257"/>
<polygon fill="black" stroke="black" points="506.953,-252.442 515.255,-245.861 504.661,-245.828 506.953,-252.442"/>
</g>
<!-- 14&#45;&gt;4 -->
<g id="edge4" class="edge"><title>14&#45;&gt;4</title>
<path fill="none" stroke="black" d="M546.596,-359.697C546.596,-351.983 546.596,-342.712 546.596,-334.112"/>
<polygon fill="black" stroke="black" points="550.096,-334.104 546.596,-324.104 543.096,-334.104 550.096,-334.104"/>
</g>
<!-- 39 -->
<g id="node40" class="node"><title>39</title>
<g id="a_node40"><a xlink:title="39, diversity: 1, multiplicities: 5, labels: 0">
<ellipse fill="#fee3d6" stroke="black" cx="41.5963" cy="-90" rx="41.6928" ry="18"/>
<text text-anchor="middle" x="41.5963" y="-86.3" font-family="Times,serif" font-size="14.00">39 (1): 0</text>
</a>
</g>
</g>
<!-- 19&#45;&gt;39 -->
<g id="edge23" class="edge"><title>19&#45;&gt;39</title>
<path fill="none" stroke="black" d="M41.5963,-143.697C41.5963,-135.983 41.5963,-126.712 41.5963,-118.112"/>
<polygon fill="black" stroke="black" points="45.0964,-118.104 41.5963,-108.104 38.0964,-118.104 45.0964,-118.104"/>
</g>
<!-- 24 -->
<g id="node25" class="node"><title>24</title>
<g id="a_node25"><a xlink:title="24, diversity: 1, multiplicities: 2, labels: 0">
<ellipse fill="#fee3d6" stroke="black" cx="142.596" cy="-162" rx="41.6928" ry="18"/>
<text text-anchor="middle" x="142.596" y="-158.3" font-family="Times,serif" font-size="14.00">24 (1): 0</text>
</a>
</g>
</g>
<!-- 21&#45;&gt;24 -->
<g id="edge38" class="edge"><title>21&#45;&gt;24</title>
<path fill="none" stroke="black" d="M222.177,-218.155C207.617,-208.064 188.165,-194.583 172.138,-183.474"/>
<polygon fill="black" stroke="black" points="173.851,-180.403 163.639,-177.584 169.864,-186.157 173.851,-180.403"/>
</g>
<!-- 29 -->
<g id="node30" class="node"><title>29</title>
<g id="a_node30"><a xlink:title="29, diversity: 1, multiplicities: 8, labels: 0">
<ellipse fill="#fcc4ad" stroke="black" cx="243.596" cy="-162" rx="41.6928" ry="18"/>
<text text-anchor="middle" x="243.596" y="-158.3" font-family="Times,serif" font-size="14.00">29 (1): 0</text>
</a>
</g>
</g>
<!-- 21&#45;&gt;29 -->
<g id="edge34" class="edge"><title>21&#45;&gt;29</title>
<path fill="none" stroke="black" d="M243.596,-215.697C243.596,-207.983 243.596,-198.712 243.596,-190.112"/>
<polygon fill="black" stroke="black" points="247.096,-190.104 243.596,-180.104 240.096,-190.104 247.096,-190.104"/>
</g>
<!-- 30 -->
<g id="node31" class="node"><title>30</title>
<g id="a_node31"><a xlink:title="30, diversity: 1, multiplicities: 5, labels: 0">
<ellipse fill="#fee3d6" stroke="black" cx="344.596" cy="-162" rx="41.6928" ry="18"/>
<text text-anchor="middle" x="344.596" y="-158.3" font-family="Times,serif" font-size="14.00">30 (1): 0</text>
</a>
</g>
</g>
<!-- 22&#45;&gt;30 -->
<g id="edge39" class="edge"><title>22&#45;&gt;30</title>
<path fill="none" stroke="black" d="M344.596,-215.697C344.596,-207.983 344.596,-198.712 344.596,-190.112"/>
<polygon fill="black" stroke="black" points="348.096,-190.104 344.596,-180.104 341.096,-190.104 348.096,-190.104"/>
</g>
<!-- 23 -->
<g id="node24" class="node"><title>23</title>
<g id="a_node24"><a xlink:title="23, diversity: 1, multiplicities: 63, labels: 0">
<ellipse fill="#fca082" stroke="black" cx="445.596" cy="-162" rx="41.6928" ry="18"/>
<text text-anchor="middle" x="445.596" y="-158.3" font-family="Times,serif" font-size="14.00">23 (1): 0</text>
</a>
</g>
</g>
<!-- 37 -->
<g id="node38" class="node"><title>37</title>
<g id="a_node38"><a xlink:title="37, diversity: 1, multiplicities: 1, labels: 0">
<ellipse fill="#fff5f0" stroke="black" cx="142.596" cy="-90" rx="41.6928" ry="18"/>
<text text-anchor="middle" x="142.596" y="-86.3" font-family="Times,serif" font-size="14.00">37 (1): 0</text>
</a>
</g>
</g>
<!-- 24&#45;&gt;37 -->
<g id="edge5" class="edge"><title>24&#45;&gt;37</title>
<path fill="none" stroke="black" d="M142.596,-143.697C142.596,-135.983 142.596,-126.712 142.596,-118.112"/>
<polygon fill="black" stroke="black" points="146.096,-118.104 142.596,-108.104 139.096,-118.104 146.096,-118.104"/>
</g>
<!-- 25&#45;&gt;23 -->
<g id="edge18" class="edge"><title>25&#45;&gt;23</title>
<path fill="none" stroke="black" d="M445.596,-215.697C445.596,-207.983 445.596,-198.712 445.596,-190.112"/>
<polygon fill="black" stroke="black" points="449.096,-190.104 445.596,-180.104 442.096,-190.104 449.096,-190.104"/>
</g>
<!-- 26 -->
<g id="node27" class="node"><title>26</title>
<g id="a_node27"><a xlink:title="26, diversity: 1, multiplicities: 19, labels: 0">
<ellipse fill="#fca082" stroke="black" cx="1148.6" cy="-450" rx="41.6928" ry="18"/>
<text text-anchor="middle" x="1148.6" y="-446.3" font-family="Times,serif" font-size="14.00">26 (1): 0</text>
</a>
</g>
</g>
<!-- 33 -->
<g id="node34" class="node"><title>33</title>
<g id="a_node34"><a xlink:title="33, diversity: 1, multiplicities: 29, labels: 0">
<ellipse fill="#fca082" stroke="black" cx="546.596" cy="-162" rx="41.6928" ry="18"/>
<text text-anchor="middle" x="546.596" y="-158.3" font-family="Times,serif" font-size="14.00">33 (1): 0</text>
</a>
</g>
</g>
<!-- 27&#45;&gt;33 -->
<g id="edge13" class="edge"><title>27&#45;&gt;33</title>
<path fill="none" stroke="black" d="M546.596,-215.697C546.596,-207.983 546.596,-198.712 546.596,-190.112"/>
<polygon fill="black" stroke="black" points="550.096,-190.104 546.596,-180.104 543.096,-190.104 550.096,-190.104"/>
</g>
<!-- 28&#45;&gt;26 -->
<g id="edge9" class="edge"><title>28&#45;&gt;26</title>
<path fill="none" stroke="black" d="M1147.09,-503.697C1147.31,-495.983 1147.58,-486.712 1147.82,-478.112"/>
<polygon fill="black" stroke="black" points="1151.32,-478.2 1148.11,-468.104 1144.32,-478 1151.32,-478.2"/>
</g>
<!-- 32 -->
<g id="node33" class="node"><title>32</title>
<g id="a_node33"><a xlink:title="32, diversity: 1, multiplicities: 5, labels: 0">
<ellipse fill="#fee3d6" stroke="black" cx="546.596" cy="-90" rx="41.6928" ry="18"/>
<text text-anchor="middle" x="546.596" y="-86.3" font-family="Times,serif" font-size="14.00">32 (1): 0</text>
</a>
</g>
</g>
<!-- 33&#45;&gt;32 -->
<g id="edge10" class="edge"><title>33&#45;&gt;32</title>
<path fill="none" stroke="black" d="M546.596,-143.697C546.596,-135.983 546.596,-126.712 546.596,-118.112"/>
<polygon fill="black" stroke="black" points="550.096,-118.104 546.596,-108.104 543.096,-118.104 550.096,-118.104"/>
</g>
<!-- 35 -->
<g id="node36" class="node"><title>35</title>
<g id="a_node36"><a xlink:title="35, diversity: 1, multiplicities: 1, labels: 0">
<ellipse fill="#fff5f0" stroke="black" cx="647.596" cy="-306" rx="41.6928" ry="18"/>
<text text-anchor="middle" x="647.596" y="-302.3" font-family="Times,serif" font-size="14.00">35 (1): 0</text>
</a>
</g>
</g>
<!-- 34&#45;&gt;35 -->
<g id="edge7" class="edge"><title>34&#45;&gt;35</title>
<path fill="none" stroke="black" d="M647.596,-359.697C647.596,-351.983 647.596,-342.712 647.596,-334.112"/>
<polygon fill="black" stroke="black" points="651.096,-334.104 647.596,-324.104 644.096,-334.104 651.096,-334.104"/>
</g>
<!-- 35&#45;&gt;9 -->
<g id="edge16" class="edge"><title>35&#45;&gt;9</title>
<path fill="none" stroke="black" d="M647.596,-287.697C647.596,-279.983 647.596,-270.712 647.596,-262.112"/>
<polygon fill="black" stroke="black" points="651.096,-262.104 647.596,-252.104 644.096,-262.104 651.096,-262.104"/>
</g>
<!-- 36 -->
<g id="node37" class="node"><title>36</title>
<g id="a_node37"><a xlink:title="36, diversity: 1, multiplicities: 10, labels: 0">
<ellipse fill="#fcc4ad" stroke="black" cx="142.596" cy="-18" rx="41.6928" ry="18"/>
<text text-anchor="middle" x="142.596" y="-14.3" font-family="Times,serif" font-size="14.00">36 (1): 0</text>
</a>
</g>
</g>
<!-- 37&#45;&gt;36 -->
<g id="edge2" class="edge"><title>37&#45;&gt;36</title>
<path fill="none" stroke="black" d="M142.596,-71.6966C142.596,-63.9827 142.596,-54.7125 142.596,-46.1124"/>
<polygon fill="black" stroke="black" points="146.096,-46.1043 142.596,-36.1043 139.096,-46.1044 146.096,-46.1043"/>
</g>
</g>
</svg>
