<?xml version="1.0" encoding="UTF-8" standalone="no"?>
<!DOCTYPE svg PUBLIC "-//W3C//DTD SVG 1.1//EN"
 "http://www.w3.org/Graphics/SVG/1.1/DTD/svg11.dtd">
<!-- Generated by graphviz version 2.38.0 (20140413.2041)
 -->
<!-- Title: %3 Pages: 1 -->
<svg width="903pt" height="1124pt"
 viewBox="0.00 0.00 902.64 1124.00" xmlns="http://www.w3.org/2000/svg" xmlns:xlink="http://www.w3.org/1999/xlink">
<g id="graph0" class="graph" transform="scale(1 1) rotate(0) translate(4 1120)">
<title>%3</title>
<polygon fill="white" stroke="none" points="-4,4 -4,-1120 898.643,-1120 898.643,4 -4,4"/>
<!-- 0 -->
<g id="node1" class="node"><title>0</title>
<g id="a_node1"><a xlink:title="0, diversity: 6, multiplicities: 1,1,9,28,34,375, labels: 0">
<ellipse fill="#f6553c" stroke="black" cx="453.047" cy="-666" rx="37.0935" ry="18"/>
<text text-anchor="middle" x="453.047" y="-662.3" font-family="Times,serif" font-size="14.00">0 (6): 0</text>
</a>
</g>
</g>
<!-- 2 -->
<g id="node3" class="node"><title>2</title>
<g id="a_node3"><a xlink:title="2, diversity: 3, multiplicities: 15,32,152, labels: 0">
<ellipse fill="#fb7c5c" stroke="black" cx="85.0467" cy="-594" rx="37.0935" ry="18"/>
<text text-anchor="middle" x="85.0467" y="-590.3" font-family="Times,serif" font-size="14.00">2 (3): 0</text>
</a>
</g>
</g>
<!-- 0&#45;&gt;2 -->
<g id="edge33" class="edge"><title>0&#45;&gt;2</title>
<path fill="none" stroke="black" d="M416.838,-661.323C356.741,-654.714 232.922,-638.945 131.047,-612 128.096,-611.22 125.07,-610.325 122.048,-609.362"/>
<polygon fill="black" stroke="black" points="123.097,-606.022 112.502,-606.117 120.844,-612.65 123.097,-606.022"/>
</g>
<!-- 3 -->
<g id="node4" class="node"><title>3</title>
<g id="a_node4"><a xlink:title="3, diversity: 1, multiplicities: 81, labels: 0">
<ellipse fill="#fca082" stroke="black" cx="177.047" cy="-594" rx="37.0935" ry="18"/>
<text text-anchor="middle" x="177.047" y="-590.3" font-family="Times,serif" font-size="14.00">3 (1): 0</text>
</a>
</g>
</g>
<!-- 0&#45;&gt;3 -->
<g id="edge7" class="edge"><title>0&#45;&gt;3</title>
<path fill="none" stroke="black" d="M419.176,-658.603C374.007,-649.754 291.757,-632.522 223.047,-612 220.293,-611.178 217.467,-610.277 214.633,-609.332"/>
<polygon fill="black" stroke="black" points="215.669,-605.987 205.074,-606.003 213.367,-612.597 215.669,-605.987"/>
</g>
<!-- 4 -->
<g id="node5" class="node"><title>4</title>
<g id="a_node5"><a xlink:title="4, diversity: 1, multiplicities: 43, labels: 0">
<ellipse fill="#fca082" stroke="black" cx="269.047" cy="-594" rx="37.0935" ry="18"/>
<text text-anchor="middle" x="269.047" y="-590.3" font-family="Times,serif" font-size="14.00">4 (1): 0</text>
</a>
</g>
</g>
<!-- 0&#45;&gt;4 -->
<g id="edge14" class="edge"><title>0&#45;&gt;4</title>
<path fill="none" stroke="black" d="M424.7,-654.216C393.094,-642.192 341.83,-622.689 306.835,-609.376"/>
<polygon fill="black" stroke="black" points="308.017,-606.081 297.426,-605.796 305.528,-612.623 308.017,-606.081"/>
</g>
<!-- 6 -->
<g id="node7" class="node"><title>6</title>
<g id="a_node7"><a xlink:title="6, diversity: 1, multiplicities: 25, labels: 0">
<ellipse fill="#fca082" stroke="black" cx="361.047" cy="-594" rx="37.0935" ry="18"/>
<text text-anchor="middle" x="361.047" y="-590.3" font-family="Times,serif" font-size="14.00">6 (1): 0</text>
</a>
</g>
</g>
<!-- 0&#45;&gt;6 -->
<g id="edge30" class="edge"><title>0&#45;&gt;6</title>
<path fill="none" stroke="black" d="M433.984,-650.496C420.785,-640.453 403.018,-626.934 388.324,-615.754"/>
<polygon fill="black" stroke="black" points="390.162,-612.755 380.085,-609.485 385.924,-618.326 390.162,-612.755"/>
</g>
<!-- 7 -->
<g id="node8" class="node"><title>7</title>
<g id="a_node8"><a xlink:title="7, diversity: 1, multiplicities: 23, labels: 0">
<ellipse fill="#fca082" stroke="black" cx="453.047" cy="-594" rx="37.0935" ry="18"/>
<text text-anchor="middle" x="453.047" y="-590.3" font-family="Times,serif" font-size="14.00">7 (1): 0</text>
</a>
</g>
</g>
<!-- 0&#45;&gt;7 -->
<g id="edge23" class="edge"><title>0&#45;&gt;7</title>
<path fill="none" stroke="black" d="M453.047,-647.697C453.047,-639.983 453.047,-630.712 453.047,-622.112"/>
<polygon fill="black" stroke="black" points="456.547,-622.104 453.047,-612.104 449.547,-622.104 456.547,-622.104"/>
</g>
<!-- 20 -->
<g id="node21" class="node"><title>20</title>
<g id="a_node21"><a xlink:title="20, diversity: 1, multiplicities: 7, labels: 0">
<ellipse fill="#fcc4ad" stroke="black" cx="550.047" cy="-594" rx="41.6928" ry="18"/>
<text text-anchor="middle" x="550.047" y="-590.3" font-family="Times,serif" font-size="14.00">20 (1): 0</text>
</a>
</g>
</g>
<!-- 0&#45;&gt;20 -->
<g id="edge11" class="edge"><title>0&#45;&gt;20</title>
<path fill="none" stroke="black" d="M473.145,-650.496C487.098,-640.427 505.893,-626.864 521.409,-615.666"/>
<polygon fill="black" stroke="black" points="523.579,-618.416 529.64,-609.726 519.483,-612.74 523.579,-618.416"/>
</g>
<!-- 21 -->
<g id="node22" class="node"><title>21</title>
<g id="a_node22"><a xlink:title="21, diversity: 1, multiplicities: 1, labels: 0">
<ellipse fill="#fff5f0" stroke="black" cx="651.047" cy="-594" rx="41.6928" ry="18"/>
<text text-anchor="middle" x="651.047" y="-590.3" font-family="Times,serif" font-size="14.00">21 (1): 0</text>
</a>
</g>
</g>
<!-- 0&#45;&gt;21 -->
<g id="edge9" class="edge"><title>0&#45;&gt;21</title>
<path fill="none" stroke="black" d="M482.262,-654.671C516.034,-642.732 571.85,-622.999 609.979,-609.519"/>
<polygon fill="black" stroke="black" points="611.487,-612.698 619.748,-606.065 609.153,-606.099 611.487,-612.698"/>
</g>
<!-- 30 -->
<g id="node31" class="node"><title>30</title>
<g id="a_node31"><a xlink:title="30, diversity: 1, multiplicities: 1, labels: 0">
<ellipse fill="#fff5f0" stroke="black" cx="752.047" cy="-594" rx="41.6928" ry="18"/>
<text text-anchor="middle" x="752.047" y="-590.3" font-family="Times,serif" font-size="14.00">30 (1): 0</text>
</a>
</g>
</g>
<!-- 0&#45;&gt;30 -->
<g id="edge25" class="edge"><title>0&#45;&gt;30</title>
<path fill="none" stroke="black" d="M487.592,-658.981C535.955,-650.254 626.412,-632.829 702.047,-612 705.044,-611.175 708.124,-610.27 711.213,-609.321"/>
<polygon fill="black" stroke="black" points="712.559,-612.565 721.017,-606.183 710.426,-605.898 712.559,-612.565"/>
</g>
<!-- 1 -->
<g id="node2" class="node"><title>1</title>
<g id="a_node2"><a xlink:title="1, diversity: 1, multiplicities: 39, labels: 0">
<ellipse fill="#fca082" stroke="black" cx="37.0467" cy="-522" rx="37.0935" ry="18"/>
<text text-anchor="middle" x="37.0467" y="-518.3" font-family="Times,serif" font-size="14.00">1 (1): 0</text>
</a>
</g>
</g>
<!-- 2&#45;&gt;1 -->
<g id="edge3" class="edge"><title>2&#45;&gt;1</title>
<path fill="none" stroke="black" d="M73.9139,-576.765C68.0617,-568.23 60.7602,-557.582 54.2027,-548.019"/>
<polygon fill="black" stroke="black" points="56.9944,-545.901 48.4525,-539.633 51.2212,-549.86 56.9944,-545.901"/>
</g>
<!-- 18 -->
<g id="node19" class="node"><title>18</title>
<g id="a_node19"><a xlink:title="18, diversity: 1, multiplicities: 14, labels: 0">
<ellipse fill="#fca082" stroke="black" cx="134.047" cy="-522" rx="41.6928" ry="18"/>
<text text-anchor="middle" x="134.047" y="-518.3" font-family="Times,serif" font-size="14.00">18 (1): 0</text>
</a>
</g>
</g>
<!-- 2&#45;&gt;18 -->
<g id="edge2" class="edge"><title>2&#45;&gt;18</title>
<path fill="none" stroke="black" d="M96.4115,-576.765C102.386,-568.23 109.839,-557.582 116.533,-548.019"/>
<polygon fill="black" stroke="black" points="119.536,-549.833 122.403,-539.633 113.801,-545.819 119.536,-549.833"/>
</g>
<!-- 5 -->
<g id="node6" class="node"><title>5</title>
<g id="a_node6"><a xlink:title="5, diversity: 1, multiplicities: 6, labels: 0">
<ellipse fill="#fcc4ad" stroke="black" cx="752.047" cy="-378" rx="37.0935" ry="18"/>
<text text-anchor="middle" x="752.047" y="-374.3" font-family="Times,serif" font-size="14.00">5 (1): 0</text>
</a>
</g>
</g>
<!-- 8 -->
<g id="node9" class="node"><title>8</title>
<g id="a_node9"><a xlink:title="8, diversity: 1, multiplicities: 11, labels: 0">
<ellipse fill="#fca082" stroke="black" cx="853.047" cy="-90" rx="37.0935" ry="18"/>
<text text-anchor="middle" x="853.047" y="-86.3" font-family="Times,serif" font-size="14.00">8 (1): 0</text>
</a>
</g>
</g>
<!-- 14 -->
<g id="node15" class="node"><title>14</title>
<g id="a_node15"><a xlink:title="14, diversity: 1, multiplicities: 12, labels: 0">
<ellipse fill="#fca082" stroke="black" cx="853.047" cy="-18" rx="41.6928" ry="18"/>
<text text-anchor="middle" x="853.047" y="-14.3" font-family="Times,serif" font-size="14.00">14 (1): 0</text>
</a>
</g>
</g>
<!-- 8&#45;&gt;14 -->
<g id="edge8" class="edge"><title>8&#45;&gt;14</title>
<path fill="none" stroke="black" d="M853.047,-71.6966C853.047,-63.9827 853.047,-54.7125 853.047,-46.1124"/>
<polygon fill="black" stroke="black" points="856.547,-46.1043 853.047,-36.1043 849.547,-46.1044 856.547,-46.1043"/>
</g>
<!-- 9 -->
<g id="node10" class="node"><title>9</title>
<g id="a_node10"><a xlink:title="9, diversity: 1, multiplicities: 1, labels: 0">
<ellipse fill="#fff5f0" stroke="black" cx="752.047" cy="-450" rx="37.0935" ry="18"/>
<text text-anchor="middle" x="752.047" y="-446.3" font-family="Times,serif" font-size="14.00">9 (1): 0</text>
</a>
</g>
</g>
<!-- 9&#45;&gt;5 -->
<g id="edge31" class="edge"><title>9&#45;&gt;5</title>
<path fill="none" stroke="black" d="M752.047,-431.697C752.047,-423.983 752.047,-414.712 752.047,-406.112"/>
<polygon fill="black" stroke="black" points="755.547,-406.104 752.047,-396.104 748.547,-406.104 755.547,-406.104"/>
</g>
<!-- 10 -->
<g id="node11" class="node"><title>10</title>
<g id="a_node11"><a xlink:title="10, diversity: 1, multiplicities: 1, labels: 0">
<ellipse fill="#fff5f0" stroke="black" cx="853.047" cy="-234" rx="41.6928" ry="18"/>
<text text-anchor="middle" x="853.047" y="-230.3" font-family="Times,serif" font-size="14.00">10 (1): 0</text>
</a>
</g>
</g>
<!-- 32 -->
<g id="node33" class="node"><title>32</title>
<g id="a_node33"><a xlink:title="32, diversity: 1, multiplicities: 1, labels: 0">
<ellipse fill="#fff5f0" stroke="black" cx="853.047" cy="-162" rx="41.6928" ry="18"/>
<text text-anchor="middle" x="853.047" y="-158.3" font-family="Times,serif" font-size="14.00">32 (1): 0</text>
</a>
</g>
</g>
<!-- 10&#45;&gt;32 -->
<g id="edge5" class="edge"><title>10&#45;&gt;32</title>
<path fill="none" stroke="black" d="M853.047,-215.697C853.047,-207.983 853.047,-198.712 853.047,-190.112"/>
<polygon fill="black" stroke="black" points="856.547,-190.104 853.047,-180.104 849.547,-190.104 856.547,-190.104"/>
</g>
<!-- 11 -->
<g id="node12" class="node"><title>11</title>
<g id="a_node12"><a xlink:title="11, diversity: 1, multiplicities: 3, labels: 0">
<ellipse fill="#fee3d6" stroke="black" cx="752.047" cy="-522" rx="41.6928" ry="18"/>
<text text-anchor="middle" x="752.047" y="-518.3" font-family="Times,serif" font-size="14.00">11 (1): 0</text>
</a>
</g>
</g>
<!-- 11&#45;&gt;9 -->
<g id="edge19" class="edge"><title>11&#45;&gt;9</title>
<path fill="none" stroke="black" d="M752.047,-503.697C752.047,-495.983 752.047,-486.712 752.047,-478.112"/>
<polygon fill="black" stroke="black" points="755.547,-478.104 752.047,-468.104 748.547,-478.104 755.547,-478.104"/>
</g>
<!-- 12 -->
<g id="node13" class="node"><title>12</title>
<g id="a_node13"><a xlink:title="12, diversity: 2, multiplicities: 2,9, labels: 0">
<ellipse fill="#fca082" stroke="black" cx="299.047" cy="-1026" rx="41.6928" ry="18"/>
<text text-anchor="middle" x="299.047" y="-1022.3" font-family="Times,serif" font-size="14.00">12 (2): 0</text>
</a>
</g>
</g>
<!-- 13 -->
<g id="node14" class="node"><title>13</title>
<g id="a_node14"><a xlink:title="13, diversity: 1, multiplicities: 1, labels: 0">
<ellipse fill="#fff5f0" stroke="black" cx="501.047" cy="-810" rx="41.6928" ry="18"/>
<text text-anchor="middle" x="501.047" y="-806.3" font-family="Times,serif" font-size="14.00">13 (1): 0</text>
</a>
</g>
</g>
<!-- 22 -->
<g id="node23" class="node"><title>22</title>
<g id="a_node23"><a xlink:title="22, diversity: 3, multiplicities: 1,1,7, labels: 0">
<ellipse fill="#fcc4ad" stroke="black" cx="501.047" cy="-738" rx="41.6928" ry="18"/>
<text text-anchor="middle" x="501.047" y="-734.3" font-family="Times,serif" font-size="14.00">22 (3): 0</text>
</a>
</g>
</g>
<!-- 13&#45;&gt;22 -->
<g id="edge1" class="edge"><title>13&#45;&gt;22</title>
<path fill="none" stroke="black" d="M501.047,-791.697C501.047,-783.983 501.047,-774.712 501.047,-766.112"/>
<polygon fill="black" stroke="black" points="504.547,-766.104 501.047,-756.104 497.547,-766.104 504.547,-766.104"/>
</g>
<!-- 15 -->
<g id="node16" class="node"><title>15</title>
<g id="a_node16"><a xlink:title="15, diversity: 3, multiplicities: 1,1,1, labels: 0">
<ellipse fill="#fee3d6" stroke="black" cx="400.047" cy="-1026" rx="41.6928" ry="18"/>
<text text-anchor="middle" x="400.047" y="-1022.3" font-family="Times,serif" font-size="14.00">15 (3): 0</text>
</a>
</g>
</g>
<!-- 17 -->
<g id="node18" class="node"><title>17</title>
<g id="a_node18"><a xlink:title="17, diversity: 1, multiplicities: 9, labels: 0">
<ellipse fill="#fcc4ad" stroke="black" cx="400.047" cy="-954" rx="41.6928" ry="18"/>
<text text-anchor="middle" x="400.047" y="-950.3" font-family="Times,serif" font-size="14.00">17 (1): 0</text>
</a>
</g>
</g>
<!-- 15&#45;&gt;17 -->
<g id="edge27" class="edge"><title>15&#45;&gt;17</title>
<path fill="none" stroke="black" d="M400.047,-1007.7C400.047,-999.983 400.047,-990.712 400.047,-982.112"/>
<polygon fill="black" stroke="black" points="403.547,-982.104 400.047,-972.104 396.547,-982.104 403.547,-982.104"/>
</g>
<!-- 16 -->
<g id="node17" class="node"><title>16</title>
<g id="a_node17"><a xlink:title="16, diversity: 1, multiplicities: 5, labels: 0">
<ellipse fill="#fee3d6" stroke="black" cx="651.047" cy="-522" rx="41.6928" ry="18"/>
<text text-anchor="middle" x="651.047" y="-518.3" font-family="Times,serif" font-size="14.00">16 (1): 0</text>
</a>
</g>
</g>
<!-- 19 -->
<g id="node20" class="node"><title>19</title>
<g id="a_node20"><a xlink:title="19, diversity: 1, multiplicities: 3, labels: 0">
<ellipse fill="#fee3d6" stroke="black" cx="501.047" cy="-1026" rx="41.6928" ry="18"/>
<text text-anchor="middle" x="501.047" y="-1022.3" font-family="Times,serif" font-size="14.00">19 (1): 0</text>
</a>
</g>
</g>
<!-- 24 -->
<g id="node25" class="node"><title>24</title>
<g id="a_node25"><a xlink:title="24, diversity: 1, multiplicities: 1, labels: 0">
<ellipse fill="#fff5f0" stroke="black" cx="501.047" cy="-954" rx="41.6928" ry="18"/>
<text text-anchor="middle" x="501.047" y="-950.3" font-family="Times,serif" font-size="14.00">24 (1): 0</text>
</a>
</g>
</g>
<!-- 19&#45;&gt;24 -->
<g id="edge22" class="edge"><title>19&#45;&gt;24</title>
<path fill="none" stroke="black" d="M501.047,-1007.7C501.047,-999.983 501.047,-990.712 501.047,-982.112"/>
<polygon fill="black" stroke="black" points="504.547,-982.104 501.047,-972.104 497.547,-982.104 504.547,-982.104"/>
</g>
<!-- 21&#45;&gt;16 -->
<g id="edge4" class="edge"><title>21&#45;&gt;16</title>
<path fill="none" stroke="black" d="M651.047,-575.697C651.047,-567.983 651.047,-558.712 651.047,-550.112"/>
<polygon fill="black" stroke="black" points="654.547,-550.104 651.047,-540.104 647.547,-550.104 654.547,-550.104"/>
</g>
<!-- 22&#45;&gt;0 -->
<g id="edge26" class="edge"><title>22&#45;&gt;0</title>
<path fill="none" stroke="black" d="M489.671,-720.411C483.813,-711.868 476.552,-701.278 470.044,-691.787"/>
<polygon fill="black" stroke="black" points="472.882,-689.738 464.34,-683.47 467.109,-693.697 472.882,-689.738"/>
</g>
<!-- 28 -->
<g id="node29" class="node"><title>28</title>
<g id="a_node29"><a xlink:title="28, diversity: 2, multiplicities: 1,1, labels: 0">
<ellipse fill="#fee3d6" stroke="black" cx="701.047" cy="-666" rx="41.6928" ry="18"/>
<text text-anchor="middle" x="701.047" y="-662.3" font-family="Times,serif" font-size="14.00">28 (2): 0</text>
</a>
</g>
</g>
<!-- 22&#45;&gt;28 -->
<g id="edge15" class="edge"><title>22&#45;&gt;28</title>
<path fill="none" stroke="black" d="M532.297,-726.062C566.687,-714.026 622.103,-694.63 659.98,-681.373"/>
<polygon fill="black" stroke="black" points="661.404,-684.583 669.687,-677.976 659.092,-677.976 661.404,-684.583"/>
</g>
<!-- 23 -->
<g id="node24" class="node"><title>23</title>
<g id="a_node24"><a xlink:title="23, diversity: 1, multiplicities: 1, labels: 0">
<ellipse fill="#fff5f0" stroke="black" cx="400.047" cy="-1098" rx="41.6928" ry="18"/>
<text text-anchor="middle" x="400.047" y="-1094.3" font-family="Times,serif" font-size="14.00">23 (1): 0</text>
</a>
</g>
</g>
<!-- 23&#45;&gt;12 -->
<g id="edge6" class="edge"><title>23&#45;&gt;12</title>
<path fill="none" stroke="black" d="M378.627,-1082.15C364.068,-1072.06 344.616,-1058.58 328.588,-1047.47"/>
<polygon fill="black" stroke="black" points="330.302,-1044.4 320.089,-1041.58 326.314,-1050.16 330.302,-1044.4"/>
</g>
<!-- 23&#45;&gt;15 -->
<g id="edge13" class="edge"><title>23&#45;&gt;15</title>
<path fill="none" stroke="black" d="M400.047,-1079.7C400.047,-1071.98 400.047,-1062.71 400.047,-1054.11"/>
<polygon fill="black" stroke="black" points="403.547,-1054.1 400.047,-1044.1 396.547,-1054.1 403.547,-1054.1"/>
</g>
<!-- 23&#45;&gt;19 -->
<g id="edge28" class="edge"><title>23&#45;&gt;19</title>
<path fill="none" stroke="black" d="M421.466,-1082.15C436.026,-1072.06 455.478,-1058.58 471.505,-1047.47"/>
<polygon fill="black" stroke="black" points="473.779,-1050.16 480.004,-1041.58 469.792,-1044.4 473.779,-1050.16"/>
</g>
<!-- 27 -->
<g id="node28" class="node"><title>27</title>
<g id="a_node28"><a xlink:title="27, diversity: 1, multiplicities: 3, labels: 0">
<ellipse fill="#fee3d6" stroke="black" cx="501.047" cy="-882" rx="41.6928" ry="18"/>
<text text-anchor="middle" x="501.047" y="-878.3" font-family="Times,serif" font-size="14.00">27 (1): 0</text>
</a>
</g>
</g>
<!-- 24&#45;&gt;27 -->
<g id="edge10" class="edge"><title>24&#45;&gt;27</title>
<path fill="none" stroke="black" d="M501.047,-935.697C501.047,-927.983 501.047,-918.712 501.047,-910.112"/>
<polygon fill="black" stroke="black" points="504.547,-910.104 501.047,-900.104 497.547,-910.104 504.547,-910.104"/>
</g>
<!-- 25 -->
<g id="node26" class="node"><title>25</title>
<g id="a_node26"><a xlink:title="25, diversity: 1, multiplicities: 1, labels: 0">
<ellipse fill="#fff5f0" stroke="black" cx="853.047" cy="-450" rx="41.6928" ry="18"/>
<text text-anchor="middle" x="853.047" y="-446.3" font-family="Times,serif" font-size="14.00">25 (1): 0</text>
</a>
</g>
</g>
<!-- 26 -->
<g id="node27" class="node"><title>26</title>
<g id="a_node27"><a xlink:title="26, diversity: 1, multiplicities: 1, labels: 0">
<ellipse fill="#fff5f0" stroke="black" cx="853.047" cy="-378" rx="41.6928" ry="18"/>
<text text-anchor="middle" x="853.047" y="-374.3" font-family="Times,serif" font-size="14.00">26 (1): 0</text>
</a>
</g>
</g>
<!-- 25&#45;&gt;26 -->
<g id="edge12" class="edge"><title>25&#45;&gt;26</title>
<path fill="none" stroke="black" d="M853.047,-431.697C853.047,-423.983 853.047,-414.712 853.047,-406.112"/>
<polygon fill="black" stroke="black" points="856.547,-406.104 853.047,-396.104 849.547,-406.104 856.547,-406.104"/>
</g>
<!-- 33 -->
<g id="node34" class="node"><title>33</title>
<g id="a_node34"><a xlink:title="33, diversity: 1, multiplicities: 1, labels: 0">
<ellipse fill="#fff5f0" stroke="black" cx="853.047" cy="-306" rx="41.6928" ry="18"/>
<text text-anchor="middle" x="853.047" y="-302.3" font-family="Times,serif" font-size="14.00">33 (1): 0</text>
</a>
</g>
</g>
<!-- 26&#45;&gt;33 -->
<g id="edge18" class="edge"><title>26&#45;&gt;33</title>
<path fill="none" stroke="black" d="M853.047,-359.697C853.047,-351.983 853.047,-342.712 853.047,-334.112"/>
<polygon fill="black" stroke="black" points="856.547,-334.104 853.047,-324.104 849.547,-334.104 856.547,-334.104"/>
</g>
<!-- 27&#45;&gt;13 -->
<g id="edge21" class="edge"><title>27&#45;&gt;13</title>
<path fill="none" stroke="black" d="M501.047,-863.697C501.047,-855.983 501.047,-846.712 501.047,-838.112"/>
<polygon fill="black" stroke="black" points="504.547,-838.104 501.047,-828.104 497.547,-838.104 504.547,-838.104"/>
</g>
<!-- 31 -->
<g id="node32" class="node"><title>31</title>
<g id="a_node32"><a xlink:title="31, diversity: 1, multiplicities: 1, labels: 0">
<ellipse fill="#fff5f0" stroke="black" cx="853.047" cy="-594" rx="41.6928" ry="18"/>
<text text-anchor="middle" x="853.047" y="-590.3" font-family="Times,serif" font-size="14.00">31 (1): 0</text>
</a>
</g>
</g>
<!-- 28&#45;&gt;31 -->
<g id="edge16" class="edge"><title>28&#45;&gt;31</title>
<path fill="none" stroke="black" d="M728.573,-652.324C753.215,-640.975 789.526,-624.253 816.577,-611.795"/>
<polygon fill="black" stroke="black" points="818.106,-614.944 825.725,-607.582 815.178,-608.586 818.106,-614.944"/>
</g>
<!-- 29 -->
<g id="node30" class="node"><title>29</title>
<g id="a_node30"><a xlink:title="29, diversity: 1, multiplicities: 1, labels: 0">
<ellipse fill="#fff5f0" stroke="black" cx="853.047" cy="-522" rx="41.6928" ry="18"/>
<text text-anchor="middle" x="853.047" y="-518.3" font-family="Times,serif" font-size="14.00">29 (1): 0</text>
</a>
</g>
</g>
<!-- 29&#45;&gt;25 -->
<g id="edge20" class="edge"><title>29&#45;&gt;25</title>
<path fill="none" stroke="black" d="M853.047,-503.697C853.047,-495.983 853.047,-486.712 853.047,-478.112"/>
<polygon fill="black" stroke="black" points="856.547,-478.104 853.047,-468.104 849.547,-478.104 856.547,-478.104"/>
</g>
<!-- 30&#45;&gt;11 -->
<g id="edge29" class="edge"><title>30&#45;&gt;11</title>
<path fill="none" stroke="black" d="M752.047,-575.697C752.047,-567.983 752.047,-558.712 752.047,-550.112"/>
<polygon fill="black" stroke="black" points="755.547,-550.104 752.047,-540.104 748.547,-550.104 755.547,-550.104"/>
</g>
<!-- 31&#45;&gt;29 -->
<g id="edge17" class="edge"><title>31&#45;&gt;29</title>
<path fill="none" stroke="black" d="M853.047,-575.697C853.047,-567.983 853.047,-558.712 853.047,-550.112"/>
<polygon fill="black" stroke="black" points="856.547,-550.104 853.047,-540.104 849.547,-550.104 856.547,-550.104"/>
</g>
<!-- 32&#45;&gt;8 -->
<g id="edge32" class="edge"><title>32&#45;&gt;8</title>
<path fill="none" stroke="black" d="M853.047,-143.697C853.047,-135.983 853.047,-126.712 853.047,-118.112"/>
<polygon fill="black" stroke="black" points="856.547,-118.104 853.047,-108.104 849.547,-118.104 856.547,-118.104"/>
</g>
<!-- 33&#45;&gt;10 -->
<g id="edge24" class="edge"><title>33&#45;&gt;10</title>
<path fill="none" stroke="black" d="M853.047,-287.697C853.047,-279.983 853.047,-270.712 853.047,-262.112"/>
<polygon fill="black" stroke="black" points="856.547,-262.104 853.047,-252.104 849.547,-262.104 856.547,-262.104"/>
</g>
</g>
</svg>
