<?xml version="1.0" encoding="UTF-8" standalone="no"?>
<!DOCTYPE svg PUBLIC "-//W3C//DTD SVG 1.1//EN"
 "http://www.w3.org/Graphics/SVG/1.1/DTD/svg11.dtd">
<!-- Generated by graphviz version 2.38.0 (20140413.2041)
 -->
<!-- Title: %3 Pages: 1 -->
<svg width="758pt" height="1268pt"
 viewBox="0.00 0.00 757.64 1268.00" xmlns="http://www.w3.org/2000/svg" xmlns:xlink="http://www.w3.org/1999/xlink">
<g id="graph0" class="graph" transform="scale(1 1) rotate(0) translate(4 1264)">
<title>%3</title>
<polygon fill="white" stroke="none" points="-4,4 -4,-1264 753.643,-1264 753.643,4 -4,4"/>
<!-- 0 -->
<g id="node1" class="node"><title>0</title>
<g id="a_node1"><a xlink:title="0, diversity: 1, multiplicities: 1, labels: 0">
<ellipse fill="#fff5f0" stroke="black" cx="435.047" cy="-882" rx="37.0935" ry="18"/>
<text text-anchor="middle" x="435.047" y="-878.3" font-family="Times,serif" font-size="14.00">0 (1): 0</text>
</a>
</g>
</g>
<!-- 28 -->
<g id="node29" class="node"><title>28</title>
<g id="a_node29"><a xlink:title="28, diversity: 1, multiplicities: 1, labels: 0">
<ellipse fill="#fff5f0" stroke="black" cx="435.047" cy="-810" rx="41.6928" ry="18"/>
<text text-anchor="middle" x="435.047" y="-806.3" font-family="Times,serif" font-size="14.00">28 (1): 0</text>
</a>
</g>
</g>
<!-- 0&#45;&gt;28 -->
<g id="edge12" class="edge"><title>0&#45;&gt;28</title>
<path fill="none" stroke="black" d="M435.047,-863.697C435.047,-855.983 435.047,-846.712 435.047,-838.112"/>
<polygon fill="black" stroke="black" points="438.547,-838.104 435.047,-828.104 431.547,-838.104 438.547,-838.104"/>
</g>
<!-- 1 -->
<g id="node2" class="node"><title>1</title>
<g id="a_node2"><a xlink:title="1, diversity: 1, multiplicities: 258, labels: 0">
<ellipse fill="#f6553c" stroke="black" cx="37.0467" cy="-306" rx="37.0935" ry="18"/>
<text text-anchor="middle" x="37.0467" y="-302.3" font-family="Times,serif" font-size="14.00">1 (1): 0</text>
</a>
</g>
</g>
<!-- 4 -->
<g id="node5" class="node"><title>4</title>
<g id="a_node5"><a xlink:title="4, diversity: 1, multiplicities: 39, labels: 0">
<ellipse fill="#fca082" stroke="black" cx="37.0467" cy="-234" rx="37.0935" ry="18"/>
<text text-anchor="middle" x="37.0467" y="-230.3" font-family="Times,serif" font-size="14.00">4 (1): 0</text>
</a>
</g>
</g>
<!-- 1&#45;&gt;4 -->
<g id="edge26" class="edge"><title>1&#45;&gt;4</title>
<path fill="none" stroke="black" d="M37.0467,-287.697C37.0467,-279.983 37.0467,-270.712 37.0467,-262.112"/>
<polygon fill="black" stroke="black" points="40.5468,-262.104 37.0467,-252.104 33.5468,-262.104 40.5468,-262.104"/>
</g>
<!-- 2 -->
<g id="node3" class="node"><title>2</title>
<g id="a_node3"><a xlink:title="2, diversity: 1, multiplicities: 19, labels: 0">
<ellipse fill="#fca082" stroke="black" cx="129.047" cy="-306" rx="37.0935" ry="18"/>
<text text-anchor="middle" x="129.047" y="-302.3" font-family="Times,serif" font-size="14.00">2 (1): 0</text>
</a>
</g>
</g>
<!-- 3 -->
<g id="node4" class="node"><title>3</title>
<g id="a_node4"><a xlink:title="3, diversity: 2, multiplicities: 3,301, labels: 0">
<ellipse fill="#f6553c" stroke="black" cx="313.047" cy="-378" rx="37.0935" ry="18"/>
<text text-anchor="middle" x="313.047" y="-374.3" font-family="Times,serif" font-size="14.00">3 (2): 0</text>
</a>
</g>
</g>
<!-- 3&#45;&gt;1 -->
<g id="edge34" class="edge"><title>3&#45;&gt;1</title>
<path fill="none" stroke="black" d="M279.176,-370.603C234.007,-361.754 151.757,-344.522 83.0467,-324 80.2934,-323.178 77.4666,-322.277 74.6334,-321.332"/>
<polygon fill="black" stroke="black" points="75.6692,-317.987 65.0743,-318.003 73.3671,-324.597 75.6692,-317.987"/>
</g>
<!-- 3&#45;&gt;2 -->
<g id="edge21" class="edge"><title>3&#45;&gt;2</title>
<path fill="none" stroke="black" d="M284.7,-366.216C253.094,-354.192 201.83,-334.689 166.835,-321.376"/>
<polygon fill="black" stroke="black" points="168.017,-318.081 157.426,-317.796 165.528,-324.623 168.017,-318.081"/>
</g>
<!-- 6 -->
<g id="node7" class="node"><title>6</title>
<g id="a_node7"><a xlink:title="6, diversity: 1, multiplicities: 63, labels: 0">
<ellipse fill="#fca082" stroke="black" cx="221.047" cy="-306" rx="37.0935" ry="18"/>
<text text-anchor="middle" x="221.047" y="-302.3" font-family="Times,serif" font-size="14.00">6 (1): 0</text>
</a>
</g>
</g>
<!-- 3&#45;&gt;6 -->
<g id="edge19" class="edge"><title>3&#45;&gt;6</title>
<path fill="none" stroke="black" d="M293.984,-362.496C280.785,-352.453 263.018,-338.934 248.324,-327.754"/>
<polygon fill="black" stroke="black" points="250.162,-324.755 240.085,-321.485 245.924,-330.326 250.162,-324.755"/>
</g>
<!-- 7 -->
<g id="node8" class="node"><title>7</title>
<g id="a_node8"><a xlink:title="7, diversity: 1, multiplicities: 17, labels: 0">
<ellipse fill="#fca082" stroke="black" cx="313.047" cy="-306" rx="37.0935" ry="18"/>
<text text-anchor="middle" x="313.047" y="-302.3" font-family="Times,serif" font-size="14.00">7 (1): 0</text>
</a>
</g>
</g>
<!-- 3&#45;&gt;7 -->
<g id="edge32" class="edge"><title>3&#45;&gt;7</title>
<path fill="none" stroke="black" d="M313.047,-359.697C313.047,-351.983 313.047,-342.712 313.047,-334.112"/>
<polygon fill="black" stroke="black" points="316.547,-334.104 313.047,-324.104 309.547,-334.104 316.547,-334.104"/>
</g>
<!-- 10 -->
<g id="node11" class="node"><title>10</title>
<g id="a_node11"><a xlink:title="10, diversity: 2, multiplicities: 2,14, labels: 0">
<ellipse fill="#fca082" stroke="black" cx="410.047" cy="-306" rx="41.6928" ry="18"/>
<text text-anchor="middle" x="410.047" y="-302.3" font-family="Times,serif" font-size="14.00">10 (2): 0</text>
</a>
</g>
</g>
<!-- 3&#45;&gt;10 -->
<g id="edge16" class="edge"><title>3&#45;&gt;10</title>
<path fill="none" stroke="black" d="M333.145,-362.496C347.098,-352.427 365.893,-338.864 381.409,-327.666"/>
<polygon fill="black" stroke="black" points="383.579,-330.416 389.64,-321.726 379.483,-324.74 383.579,-330.416"/>
</g>
<!-- 15 -->
<g id="node16" class="node"><title>15</title>
<g id="a_node16"><a xlink:title="15, diversity: 2, multiplicities: 1,16, labels: 0">
<ellipse fill="#fca082" stroke="black" cx="511.047" cy="-306" rx="41.6928" ry="18"/>
<text text-anchor="middle" x="511.047" y="-302.3" font-family="Times,serif" font-size="14.00">15 (2): 0</text>
</a>
</g>
</g>
<!-- 3&#45;&gt;15 -->
<g id="edge1" class="edge"><title>3&#45;&gt;15</title>
<path fill="none" stroke="black" d="M342.262,-366.671C376.034,-354.732 431.85,-334.999 469.979,-321.519"/>
<polygon fill="black" stroke="black" points="471.487,-324.698 479.748,-318.065 469.153,-318.099 471.487,-324.698"/>
</g>
<!-- 31 -->
<g id="node32" class="node"><title>31</title>
<g id="a_node32"><a xlink:title="31, diversity: 1, multiplicities: 1, labels: 0">
<ellipse fill="#fff5f0" stroke="black" cx="612.047" cy="-306" rx="41.6928" ry="18"/>
<text text-anchor="middle" x="612.047" y="-302.3" font-family="Times,serif" font-size="14.00">31 (1): 0</text>
</a>
</g>
</g>
<!-- 3&#45;&gt;31 -->
<g id="edge17" class="edge"><title>3&#45;&gt;31</title>
<path fill="none" stroke="black" d="M347.592,-370.981C395.955,-362.254 486.412,-344.829 562.047,-324 565.044,-323.175 568.124,-322.27 571.213,-321.321"/>
<polygon fill="black" stroke="black" points="572.559,-324.565 581.017,-318.183 570.426,-317.898 572.559,-324.565"/>
</g>
<!-- 5 -->
<g id="node6" class="node"><title>5</title>
<g id="a_node6"><a xlink:title="5, diversity: 1, multiplicities: 16, labels: 0">
<ellipse fill="#fca082" stroke="black" cx="612.047" cy="-18" rx="37.0935" ry="18"/>
<text text-anchor="middle" x="612.047" y="-14.3" font-family="Times,serif" font-size="14.00">5 (1): 0</text>
</a>
</g>
</g>
<!-- 8 -->
<g id="node9" class="node"><title>8</title>
<g id="a_node9"><a xlink:title="8, diversity: 1, multiplicities: 6, labels: 0">
<ellipse fill="#fcc4ad" stroke="black" cx="709.047" cy="-306" rx="37.0935" ry="18"/>
<text text-anchor="middle" x="709.047" y="-302.3" font-family="Times,serif" font-size="14.00">8 (1): 0</text>
</a>
</g>
</g>
<!-- 9 -->
<g id="node10" class="node"><title>9</title>
<g id="a_node10"><a xlink:title="9, diversity: 2, multiplicities: 2,2, labels: 0">
<ellipse fill="#fee3d6" stroke="black" cx="561.047" cy="-450" rx="37.0935" ry="18"/>
<text text-anchor="middle" x="561.047" y="-446.3" font-family="Times,serif" font-size="14.00">9 (2): 0</text>
</a>
</g>
</g>
<!-- 20 -->
<g id="node21" class="node"><title>20</title>
<g id="a_node21"><a xlink:title="20, diversity: 1, multiplicities: 1, labels: 0">
<ellipse fill="#fff5f0" stroke="black" cx="708.047" cy="-378" rx="41.6928" ry="18"/>
<text text-anchor="middle" x="708.047" y="-374.3" font-family="Times,serif" font-size="14.00">20 (1): 0</text>
</a>
</g>
</g>
<!-- 9&#45;&gt;20 -->
<g id="edge15" class="edge"><title>9&#45;&gt;20</title>
<path fill="none" stroke="black" d="M586.652,-436.807C610.096,-425.643 645.054,-408.996 671.444,-396.43"/>
<polygon fill="black" stroke="black" points="673.218,-399.462 680.742,-392.002 670.208,-393.142 673.218,-399.462"/>
</g>
<!-- 11 -->
<g id="node12" class="node"><title>11</title>
<g id="a_node12"><a xlink:title="11, diversity: 1, multiplicities: 1, labels: 0">
<ellipse fill="#fff5f0" stroke="black" cx="334.047" cy="-1170" rx="41.6928" ry="18"/>
<text text-anchor="middle" x="334.047" y="-1166.3" font-family="Times,serif" font-size="14.00">11 (1): 0</text>
</a>
</g>
</g>
<!-- 19 -->
<g id="node20" class="node"><title>19</title>
<g id="a_node20"><a xlink:title="19, diversity: 1, multiplicities: 1, labels: 0">
<ellipse fill="#fff5f0" stroke="black" cx="334.047" cy="-1098" rx="41.6928" ry="18"/>
<text text-anchor="middle" x="334.047" y="-1094.3" font-family="Times,serif" font-size="14.00">19 (1): 0</text>
</a>
</g>
</g>
<!-- 11&#45;&gt;19 -->
<g id="edge11" class="edge"><title>11&#45;&gt;19</title>
<path fill="none" stroke="black" d="M334.047,-1151.7C334.047,-1143.98 334.047,-1134.71 334.047,-1126.11"/>
<polygon fill="black" stroke="black" points="337.547,-1126.1 334.047,-1116.1 330.547,-1126.1 337.547,-1126.1"/>
</g>
<!-- 12 -->
<g id="node13" class="node"><title>12</title>
<g id="a_node13"><a xlink:title="12, diversity: 1, multiplicities: 4, labels: 0">
<ellipse fill="#fee3d6" stroke="black" cx="445.047" cy="-666" rx="41.6928" ry="18"/>
<text text-anchor="middle" x="445.047" y="-662.3" font-family="Times,serif" font-size="14.00">12 (1): 0</text>
</a>
</g>
</g>
<!-- 26 -->
<g id="node27" class="node"><title>26</title>
<g id="a_node27"><a xlink:title="26, diversity: 1, multiplicities: 1, labels: 0">
<ellipse fill="#fff5f0" stroke="black" cx="450.047" cy="-594" rx="41.6928" ry="18"/>
<text text-anchor="middle" x="450.047" y="-590.3" font-family="Times,serif" font-size="14.00">26 (1): 0</text>
</a>
</g>
</g>
<!-- 12&#45;&gt;26 -->
<g id="edge33" class="edge"><title>12&#45;&gt;26</title>
<path fill="none" stroke="black" d="M446.283,-647.697C446.834,-639.983 447.496,-630.712 448.11,-622.112"/>
<polygon fill="black" stroke="black" points="451.604,-622.328 448.825,-612.104 444.621,-621.83 451.604,-622.328"/>
</g>
<!-- 13 -->
<g id="node14" class="node"><title>13</title>
<g id="a_node14"><a xlink:title="13, diversity: 1, multiplicities: 1, labels: 0">
<ellipse fill="#fff5f0" stroke="black" cx="612.047" cy="-90" rx="41.6928" ry="18"/>
<text text-anchor="middle" x="612.047" y="-86.3" font-family="Times,serif" font-size="14.00">13 (1): 0</text>
</a>
</g>
</g>
<!-- 13&#45;&gt;5 -->
<g id="edge36" class="edge"><title>13&#45;&gt;5</title>
<path fill="none" stroke="black" d="M612.047,-71.6966C612.047,-63.9827 612.047,-54.7125 612.047,-46.1124"/>
<polygon fill="black" stroke="black" points="615.547,-46.1043 612.047,-36.1043 608.547,-46.1044 615.547,-46.1043"/>
</g>
<!-- 14 -->
<g id="node15" class="node"><title>14</title>
<g id="a_node15"><a xlink:title="14, diversity: 1, multiplicities: 52, labels: 0">
<ellipse fill="#fca082" stroke="black" cx="313.047" cy="-522" rx="41.6928" ry="18"/>
<text text-anchor="middle" x="313.047" y="-518.3" font-family="Times,serif" font-size="14.00">14 (1): 0</text>
</a>
</g>
</g>
<!-- 23 -->
<g id="node24" class="node"><title>23</title>
<g id="a_node24"><a xlink:title="23, diversity: 1, multiplicities: 9, labels: 0">
<ellipse fill="#fcc4ad" stroke="black" cx="212.047" cy="-450" rx="41.6928" ry="18"/>
<text text-anchor="middle" x="212.047" y="-446.3" font-family="Times,serif" font-size="14.00">23 (1): 0</text>
</a>
</g>
</g>
<!-- 14&#45;&gt;23 -->
<g id="edge20" class="edge"><title>14&#45;&gt;23</title>
<path fill="none" stroke="black" d="M291.627,-506.155C277.068,-496.064 257.616,-482.583 241.588,-471.474"/>
<polygon fill="black" stroke="black" points="243.302,-468.403 233.089,-465.584 239.314,-474.157 243.302,-468.403"/>
</g>
<!-- 36 -->
<g id="node37" class="node"><title>36</title>
<g id="a_node37"><a xlink:title="36, diversity: 1, multiplicities: 1, labels: 0">
<ellipse fill="#fff5f0" stroke="black" cx="313.047" cy="-450" rx="41.6928" ry="18"/>
<text text-anchor="middle" x="313.047" y="-446.3" font-family="Times,serif" font-size="14.00">36 (1): 0</text>
</a>
</g>
</g>
<!-- 14&#45;&gt;36 -->
<g id="edge38" class="edge"><title>14&#45;&gt;36</title>
<path fill="none" stroke="black" d="M313.047,-503.697C313.047,-495.983 313.047,-486.712 313.047,-478.112"/>
<polygon fill="black" stroke="black" points="316.547,-478.104 313.047,-468.104 309.547,-478.104 316.547,-478.104"/>
</g>
<!-- 16 -->
<g id="node17" class="node"><title>16</title>
<g id="a_node17"><a xlink:title="16, diversity: 1, multiplicities: 1, labels: 0">
<ellipse fill="#fff5f0" stroke="black" cx="313.047" cy="-594" rx="41.6928" ry="18"/>
<text text-anchor="middle" x="313.047" y="-590.3" font-family="Times,serif" font-size="14.00">16 (1): 0</text>
</a>
</g>
</g>
<!-- 16&#45;&gt;14 -->
<g id="edge8" class="edge"><title>16&#45;&gt;14</title>
<path fill="none" stroke="black" d="M313.047,-575.697C313.047,-567.983 313.047,-558.712 313.047,-550.112"/>
<polygon fill="black" stroke="black" points="316.547,-550.104 313.047,-540.104 309.547,-550.104 316.547,-550.104"/>
</g>
<!-- 17 -->
<g id="node18" class="node"><title>17</title>
<g id="a_node18"><a xlink:title="17, diversity: 1, multiplicities: 2, labels: 0">
<ellipse fill="#fee3d6" stroke="black" cx="331.047" cy="-666" rx="41.6928" ry="18"/>
<text text-anchor="middle" x="331.047" y="-662.3" font-family="Times,serif" font-size="14.00">17 (1): 0</text>
</a>
</g>
</g>
<!-- 17&#45;&gt;16 -->
<g id="edge9" class="edge"><title>17&#45;&gt;16</title>
<path fill="none" stroke="black" d="M326.689,-648.055C324.685,-640.261 322.258,-630.822 320.01,-622.079"/>
<polygon fill="black" stroke="black" points="323.369,-621.089 317.489,-612.275 316.59,-622.832 323.369,-621.089"/>
</g>
<!-- 18 -->
<g id="node19" class="node"><title>18</title>
<g id="a_node19"><a xlink:title="18, diversity: 1, multiplicities: 4, labels: 0">
<ellipse fill="#fee3d6" stroke="black" cx="331.047" cy="-738" rx="41.6928" ry="18"/>
<text text-anchor="middle" x="331.047" y="-734.3" font-family="Times,serif" font-size="14.00">18 (1): 0</text>
</a>
</g>
</g>
<!-- 18&#45;&gt;17 -->
<g id="edge29" class="edge"><title>18&#45;&gt;17</title>
<path fill="none" stroke="black" d="M331.047,-719.697C331.047,-711.983 331.047,-702.712 331.047,-694.112"/>
<polygon fill="black" stroke="black" points="334.547,-694.104 331.047,-684.104 327.547,-694.104 334.547,-694.104"/>
</g>
<!-- 33 -->
<g id="node34" class="node"><title>33</title>
<g id="a_node34"><a xlink:title="33, diversity: 1, multiplicities: 1, labels: 0">
<ellipse fill="#fff5f0" stroke="black" cx="334.047" cy="-1026" rx="41.6928" ry="18"/>
<text text-anchor="middle" x="334.047" y="-1022.3" font-family="Times,serif" font-size="14.00">33 (1): 0</text>
</a>
</g>
</g>
<!-- 19&#45;&gt;33 -->
<g id="edge10" class="edge"><title>19&#45;&gt;33</title>
<path fill="none" stroke="black" d="M334.047,-1079.7C334.047,-1071.98 334.047,-1062.71 334.047,-1054.11"/>
<polygon fill="black" stroke="black" points="337.547,-1054.1 334.047,-1044.1 330.547,-1054.1 337.547,-1054.1"/>
</g>
<!-- 20&#45;&gt;8 -->
<g id="edge6" class="edge"><title>20&#45;&gt;8</title>
<path fill="none" stroke="black" d="M708.294,-359.697C708.404,-351.983 708.537,-342.712 708.659,-334.112"/>
<polygon fill="black" stroke="black" points="712.159,-334.153 708.802,-324.104 705.16,-334.053 712.159,-334.153"/>
</g>
<!-- 21 -->
<g id="node22" class="node"><title>21</title>
<g id="a_node22"><a xlink:title="21, diversity: 2, multiplicities: 1,1, labels: 0">
<ellipse fill="#fee3d6" stroke="black" cx="435.047" cy="-954" rx="41.6928" ry="18"/>
<text text-anchor="middle" x="435.047" y="-950.3" font-family="Times,serif" font-size="14.00">21 (2): 0</text>
</a>
</g>
</g>
<!-- 21&#45;&gt;0 -->
<g id="edge23" class="edge"><title>21&#45;&gt;0</title>
<path fill="none" stroke="black" d="M435.047,-935.697C435.047,-927.983 435.047,-918.712 435.047,-910.112"/>
<polygon fill="black" stroke="black" points="438.547,-910.104 435.047,-900.104 431.547,-910.104 438.547,-910.104"/>
</g>
<!-- 22 -->
<g id="node23" class="node"><title>22</title>
<g id="a_node23"><a xlink:title="22, diversity: 1, multiplicities: 5, labels: 0">
<ellipse fill="#fee3d6" stroke="black" cx="487.047" cy="-522" rx="41.6928" ry="18"/>
<text text-anchor="middle" x="487.047" y="-518.3" font-family="Times,serif" font-size="14.00">22 (1): 0</text>
</a>
</g>
</g>
<!-- 22&#45;&gt;9 -->
<g id="edge4" class="edge"><title>22&#45;&gt;9</title>
<path fill="none" stroke="black" d="M503.838,-505.116C513.721,-495.768 526.378,-483.795 537.273,-473.489"/>
<polygon fill="black" stroke="black" points="539.97,-475.755 544.83,-466.34 535.16,-470.67 539.97,-475.755"/>
</g>
<!-- 24 -->
<g id="node25" class="node"><title>24</title>
<g id="a_node25"><a xlink:title="24, diversity: 1, multiplicities: 1, labels: 0">
<ellipse fill="#fff5f0" stroke="black" cx="334.047" cy="-954" rx="41.6928" ry="18"/>
<text text-anchor="middle" x="334.047" y="-950.3" font-family="Times,serif" font-size="14.00">24 (1): 0</text>
</a>
</g>
</g>
<!-- 35 -->
<g id="node36" class="node"><title>35</title>
<g id="a_node36"><a xlink:title="35, diversity: 1, multiplicities: 2, labels: 0">
<ellipse fill="#fee3d6" stroke="black" cx="334.047" cy="-882" rx="41.6928" ry="18"/>
<text text-anchor="middle" x="334.047" y="-878.3" font-family="Times,serif" font-size="14.00">35 (1): 0</text>
</a>
</g>
</g>
<!-- 24&#45;&gt;35 -->
<g id="edge27" class="edge"><title>24&#45;&gt;35</title>
<path fill="none" stroke="black" d="M334.047,-935.697C334.047,-927.983 334.047,-918.712 334.047,-910.112"/>
<polygon fill="black" stroke="black" points="337.547,-910.104 334.047,-900.104 330.547,-910.104 337.547,-910.104"/>
</g>
<!-- 25 -->
<g id="node26" class="node"><title>25</title>
<g id="a_node26"><a xlink:title="25, diversity: 1, multiplicities: 2, labels: 0">
<ellipse fill="#fee3d6" stroke="black" cx="333.047" cy="-810" rx="41.6928" ry="18"/>
<text text-anchor="middle" x="333.047" y="-806.3" font-family="Times,serif" font-size="14.00">25 (1): 0</text>
</a>
</g>
</g>
<!-- 25&#45;&gt;18 -->
<g id="edge24" class="edge"><title>25&#45;&gt;18</title>
<path fill="none" stroke="black" d="M332.552,-791.697C332.332,-783.983 332.067,-774.712 331.821,-766.112"/>
<polygon fill="black" stroke="black" points="335.32,-766 331.535,-756.104 328.323,-766.2 335.32,-766"/>
</g>
<!-- 26&#45;&gt;22 -->
<g id="edge2" class="edge"><title>26&#45;&gt;22</title>
<path fill="none" stroke="black" d="M459.003,-576.055C463.321,-567.887 468.593,-557.912 473.397,-548.824"/>
<polygon fill="black" stroke="black" points="476.594,-550.266 478.173,-539.789 470.405,-546.994 476.594,-550.266"/>
</g>
<!-- 27 -->
<g id="node28" class="node"><title>27</title>
<g id="a_node28"><a xlink:title="27, diversity: 1, multiplicities: 1, labels: 0">
<ellipse fill="#fff5f0" stroke="black" cx="436.047" cy="-738" rx="41.6928" ry="18"/>
<text text-anchor="middle" x="436.047" y="-734.3" font-family="Times,serif" font-size="14.00">27 (1): 0</text>
</a>
</g>
</g>
<!-- 27&#45;&gt;12 -->
<g id="edge35" class="edge"><title>27&#45;&gt;12</title>
<path fill="none" stroke="black" d="M438.271,-719.697C439.263,-711.983 440.455,-702.712 441.561,-694.112"/>
<polygon fill="black" stroke="black" points="445.044,-694.469 442.848,-684.104 438.101,-693.576 445.044,-694.469"/>
</g>
<!-- 28&#45;&gt;27 -->
<g id="edge22" class="edge"><title>28&#45;&gt;27</title>
<path fill="none" stroke="black" d="M435.294,-791.697C435.404,-783.983 435.537,-774.712 435.659,-766.112"/>
<polygon fill="black" stroke="black" points="439.159,-766.153 435.802,-756.104 432.16,-766.053 439.159,-766.153"/>
</g>
<!-- 29 -->
<g id="node30" class="node"><title>29</title>
<g id="a_node30"><a xlink:title="29, diversity: 1, multiplicities: 1, labels: 0">
<ellipse fill="#fff5f0" stroke="black" cx="435.047" cy="-1170" rx="41.6928" ry="18"/>
<text text-anchor="middle" x="435.047" y="-1166.3" font-family="Times,serif" font-size="14.00">29 (1): 0</text>
</a>
</g>
</g>
<!-- 30 -->
<g id="node31" class="node"><title>30</title>
<g id="a_node31"><a xlink:title="30, diversity: 1, multiplicities: 2, labels: 0">
<ellipse fill="#fee3d6" stroke="black" cx="435.047" cy="-1098" rx="41.6928" ry="18"/>
<text text-anchor="middle" x="435.047" y="-1094.3" font-family="Times,serif" font-size="14.00">30 (1): 0</text>
</a>
</g>
</g>
<!-- 29&#45;&gt;30 -->
<g id="edge7" class="edge"><title>29&#45;&gt;30</title>
<path fill="none" stroke="black" d="M435.047,-1151.7C435.047,-1143.98 435.047,-1134.71 435.047,-1126.11"/>
<polygon fill="black" stroke="black" points="438.547,-1126.1 435.047,-1116.1 431.547,-1126.1 438.547,-1126.1"/>
</g>
<!-- 37 -->
<g id="node38" class="node"><title>37</title>
<g id="a_node38"><a xlink:title="37, diversity: 1, multiplicities: 1, labels: 0">
<ellipse fill="#fff5f0" stroke="black" cx="435.047" cy="-1026" rx="41.6928" ry="18"/>
<text text-anchor="middle" x="435.047" y="-1022.3" font-family="Times,serif" font-size="14.00">37 (1): 0</text>
</a>
</g>
</g>
<!-- 30&#45;&gt;37 -->
<g id="edge5" class="edge"><title>30&#45;&gt;37</title>
<path fill="none" stroke="black" d="M435.047,-1079.7C435.047,-1071.98 435.047,-1062.71 435.047,-1054.11"/>
<polygon fill="black" stroke="black" points="438.547,-1054.1 435.047,-1044.1 431.547,-1054.1 438.547,-1054.1"/>
</g>
<!-- 38 -->
<g id="node39" class="node"><title>38</title>
<g id="a_node39"><a xlink:title="38, diversity: 1, multiplicities: 2, labels: 0">
<ellipse fill="#fee3d6" stroke="black" cx="612.047" cy="-234" rx="41.6928" ry="18"/>
<text text-anchor="middle" x="612.047" y="-230.3" font-family="Times,serif" font-size="14.00">38 (1): 0</text>
</a>
</g>
</g>
<!-- 31&#45;&gt;38 -->
<g id="edge31" class="edge"><title>31&#45;&gt;38</title>
<path fill="none" stroke="black" d="M612.047,-287.697C612.047,-279.983 612.047,-270.712 612.047,-262.112"/>
<polygon fill="black" stroke="black" points="615.547,-262.104 612.047,-252.104 608.547,-262.104 615.547,-262.104"/>
</g>
<!-- 32 -->
<g id="node33" class="node"><title>32</title>
<g id="a_node33"><a xlink:title="32, diversity: 1, multiplicities: 1, labels: 0">
<ellipse fill="#fff5f0" stroke="black" cx="384.047" cy="-1242" rx="41.6928" ry="18"/>
<text text-anchor="middle" x="384.047" y="-1238.3" font-family="Times,serif" font-size="14.00">32 (1): 0</text>
</a>
</g>
</g>
<!-- 32&#45;&gt;11 -->
<g id="edge13" class="edge"><title>32&#45;&gt;11</title>
<path fill="none" stroke="black" d="M372.197,-1224.41C366.095,-1215.87 358.531,-1205.28 351.752,-1195.79"/>
<polygon fill="black" stroke="black" points="354.471,-1193.57 345.811,-1187.47 348.775,-1197.64 354.471,-1193.57"/>
</g>
<!-- 32&#45;&gt;29 -->
<g id="edge30" class="edge"><title>32&#45;&gt;29</title>
<path fill="none" stroke="black" d="M396.133,-1224.41C402.357,-1215.87 410.072,-1205.28 416.987,-1195.79"/>
<polygon fill="black" stroke="black" points="419.987,-1197.61 423.047,-1187.47 414.33,-1193.49 419.987,-1197.61"/>
</g>
<!-- 33&#45;&gt;24 -->
<g id="edge25" class="edge"><title>33&#45;&gt;24</title>
<path fill="none" stroke="black" d="M334.047,-1007.7C334.047,-999.983 334.047,-990.712 334.047,-982.112"/>
<polygon fill="black" stroke="black" points="337.547,-982.104 334.047,-972.104 330.547,-982.104 337.547,-982.104"/>
</g>
<!-- 34 -->
<g id="node35" class="node"><title>34</title>
<g id="a_node35"><a xlink:title="34, diversity: 1, multiplicities: 3, labels: 0">
<ellipse fill="#fee3d6" stroke="black" cx="612.047" cy="-162" rx="41.6928" ry="18"/>
<text text-anchor="middle" x="612.047" y="-158.3" font-family="Times,serif" font-size="14.00">34 (1): 0</text>
</a>
</g>
</g>
<!-- 34&#45;&gt;13 -->
<g id="edge18" class="edge"><title>34&#45;&gt;13</title>
<path fill="none" stroke="black" d="M612.047,-143.697C612.047,-135.983 612.047,-126.712 612.047,-118.112"/>
<polygon fill="black" stroke="black" points="615.547,-118.104 612.047,-108.104 608.547,-118.104 615.547,-118.104"/>
</g>
<!-- 35&#45;&gt;25 -->
<g id="edge14" class="edge"><title>35&#45;&gt;25</title>
<path fill="none" stroke="black" d="M333.8,-863.697C333.689,-855.983 333.557,-846.712 333.434,-838.112"/>
<polygon fill="black" stroke="black" points="336.934,-838.053 333.291,-828.104 329.934,-838.153 336.934,-838.053"/>
</g>
<!-- 36&#45;&gt;3 -->
<g id="edge3" class="edge"><title>36&#45;&gt;3</title>
<path fill="none" stroke="black" d="M313.047,-431.697C313.047,-423.983 313.047,-414.712 313.047,-406.112"/>
<polygon fill="black" stroke="black" points="316.547,-406.104 313.047,-396.104 309.547,-406.104 316.547,-406.104"/>
</g>
<!-- 37&#45;&gt;21 -->
<g id="edge37" class="edge"><title>37&#45;&gt;21</title>
<path fill="none" stroke="black" d="M435.047,-1007.7C435.047,-999.983 435.047,-990.712 435.047,-982.112"/>
<polygon fill="black" stroke="black" points="438.547,-982.104 435.047,-972.104 431.547,-982.104 438.547,-982.104"/>
</g>
<!-- 38&#45;&gt;34 -->
<g id="edge28" class="edge"><title>38&#45;&gt;34</title>
<path fill="none" stroke="black" d="M612.047,-215.697C612.047,-207.983 612.047,-198.712 612.047,-190.112"/>
<polygon fill="black" stroke="black" points="615.547,-190.104 612.047,-180.104 608.547,-190.104 615.547,-190.104"/>
</g>
</g>
</svg>
