<?xml version="1.0" encoding="UTF-8" standalone="no"?>
<!DOCTYPE svg PUBLIC "-//W3C//DTD SVG 1.1//EN"
 "http://www.w3.org/Graphics/SVG/1.1/DTD/svg11.dtd">
<!-- Generated by graphviz version 2.40.1 (20161225.0304)
 -->
<!-- Title: %3 Pages: 1 -->
<svg width="422pt" height="908pt"
 viewBox="0.00 0.00 422.00 908.00" xmlns="http://www.w3.org/2000/svg" xmlns:xlink="http://www.w3.org/1999/xlink">
<g id="graph0" class="graph" transform="scale(1 1) rotate(0) translate(4 904)">
<title>%3</title>
<polygon fill="#ffffff" stroke="transparent" points="-4,4 -4,-904 418,-904 418,4 -4,4"/>
<!-- 0 -->
<g id="node1" class="node">
<title>0</title>
<g id="a_node1"><a xlink:title="S">
<ellipse fill="#ff6f00" stroke="#000000" stroke-width="0" cx="126" cy="-234" rx="18" ry="18"/>
</a>
</g>
</g>
<!-- 2 -->
<g id="node3" class="node">
<title>2</title>
<g id="a_node3"><a xlink:title="N">
<ellipse fill="#beff39" stroke="#000000" stroke-width="0" cx="126" cy="-162" rx="18" ry="18"/>
</a>
</g>
</g>
<!-- 0&#45;&gt;2 -->
<g id="edge52" class="edge">
<title>0&#45;&gt;2</title>
<path fill="none" stroke="#000000" d="M126,-215.8314C126,-208.131 126,-198.9743 126,-190.4166"/>
<polygon fill="#000000" stroke="#000000" points="129.5001,-190.4132 126,-180.4133 122.5001,-190.4133 129.5001,-190.4132"/>
</g>
<!-- 1 -->
<g id="node2" class="node">
<title>1</title>
<g id="a_node2"><a xlink:title="N">
<ellipse fill="#beff39" stroke="#000000" stroke-width="0" cx="126" cy="-90" rx="18" ry="18"/>
</a>
</g>
</g>
<!-- 13 -->
<g id="node14" class="node">
<title>13</title>
<g id="a_node14"><a xlink:title="N">
<ellipse fill="#beff39" stroke="#000000" stroke-width="0" cx="126" cy="-18" rx="18" ry="18"/>
</a>
</g>
</g>
<!-- 1&#45;&gt;13 -->
<g id="edge30" class="edge">
<title>1&#45;&gt;13</title>
<path fill="none" stroke="#000000" d="M126,-71.8314C126,-64.131 126,-54.9743 126,-46.4166"/>
<polygon fill="#000000" stroke="#000000" points="129.5001,-46.4132 126,-36.4133 122.5001,-46.4133 129.5001,-46.4132"/>
</g>
<!-- 2&#45;&gt;1 -->
<g id="edge7" class="edge">
<title>2&#45;&gt;1</title>
<path fill="none" stroke="#000000" d="M126,-143.8314C126,-136.131 126,-126.9743 126,-118.4166"/>
<polygon fill="#000000" stroke="#000000" points="129.5001,-118.4132 126,-108.4133 122.5001,-118.4133 129.5001,-118.4132"/>
</g>
<!-- 3 -->
<g id="node4" class="node">
<title>3</title>
<g id="a_node4"><a xlink:title="S">
<ellipse fill="#ff6f00" stroke="#000000" stroke-width="0" cx="126" cy="-666" rx="18" ry="18"/>
</a>
</g>
</g>
<!-- 5 -->
<g id="node6" class="node">
<title>5</title>
<g id="a_node6"><a xlink:title="S">
<ellipse fill="#ff6f00" stroke="#000000" stroke-width="0" cx="72" cy="-594" rx="18" ry="18"/>
</a>
</g>
</g>
<!-- 3&#45;&gt;5 -->
<g id="edge41" class="edge">
<title>3&#45;&gt;5</title>
<path fill="none" stroke="#000000" d="M115.0723,-651.4297C107.6066,-641.4754 97.5632,-628.0842 89.0526,-616.7368"/>
<polygon fill="#000000" stroke="#000000" points="91.7115,-614.4486 82.9115,-608.5486 86.1115,-618.6486 91.7115,-614.4486"/>
</g>
<!-- 9 -->
<g id="node10" class="node">
<title>9</title>
<g id="a_node10"><a xlink:title="S">
<ellipse fill="#ff6f00" stroke="#000000" stroke-width="0" cx="126" cy="-594" rx="18" ry="18"/>
</a>
</g>
</g>
<!-- 3&#45;&gt;9 -->
<g id="edge37" class="edge">
<title>3&#45;&gt;9</title>
<path fill="none" stroke="#000000" d="M126,-647.8314C126,-640.131 126,-630.9743 126,-622.4166"/>
<polygon fill="#000000" stroke="#000000" points="129.5001,-622.4132 126,-612.4133 122.5001,-622.4133 129.5001,-622.4132"/>
</g>
<!-- 11 -->
<g id="node12" class="node">
<title>11</title>
<g id="a_node12"><a xlink:title="S">
<ellipse fill="#ff6f00" stroke="#000000" stroke-width="0" cx="18" cy="-594" rx="18" ry="18"/>
</a>
</g>
</g>
<!-- 3&#45;&gt;11 -->
<g id="edge6" class="edge">
<title>3&#45;&gt;11</title>
<path fill="none" stroke="#000000" d="M110.9831,-655.9887C93.03,-644.02 62.7675,-623.845 41.6604,-609.7736"/>
<polygon fill="#000000" stroke="#000000" points="43.4995,-606.7932 33.2376,-604.1584 39.6166,-612.6176 43.4995,-606.7932"/>
</g>
<!-- 22 -->
<g id="node23" class="node">
<title>22</title>
<g id="a_node23"><a xlink:title="S">
<ellipse fill="#ff6f00" stroke="#000000" stroke-width="0" cx="180" cy="-594" rx="18" ry="18"/>
</a>
</g>
</g>
<!-- 3&#45;&gt;22 -->
<g id="edge46" class="edge">
<title>3&#45;&gt;22</title>
<path fill="none" stroke="#000000" d="M132.7236,-649.3008C139.5795,-638.6037 149.9323,-624.6787 159.3176,-613.4783"/>
<polygon fill="#000000" stroke="#000000" points="161.996,-615.732 165.9167,-605.8893 156.7137,-611.1388 161.996,-615.732"/>
</g>
<!-- 4 -->
<g id="node5" class="node">
<title>4</title>
<g id="a_node5"><a xlink:title="S">
<ellipse fill="#ff6f00" stroke="#000000" stroke-width="0" cx="18" cy="-450" rx="18" ry="18"/>
</a>
</g>
</g>
<!-- 10 -->
<g id="node11" class="node">
<title>10</title>
<g id="a_node11"><a xlink:title="S">
<ellipse fill="#ff6f00" stroke="#000000" stroke-width="0" cx="18" cy="-378" rx="18" ry="18"/>
</a>
</g>
</g>
<!-- 4&#45;&gt;10 -->
<g id="edge4" class="edge">
<title>4&#45;&gt;10</title>
<path fill="none" stroke="#000000" d="M18,-431.8314C18,-424.131 18,-414.9743 18,-406.4166"/>
<polygon fill="#000000" stroke="#000000" points="21.5001,-406.4132 18,-396.4133 14.5001,-406.4133 21.5001,-406.4132"/>
</g>
<!-- 43 -->
<g id="node44" class="node">
<title>43</title>
<g id="a_node44"><a xlink:title="S">
<ellipse fill="#ff6f00" stroke="#000000" stroke-width="0" cx="72" cy="-522" rx="18" ry="18"/>
</a>
</g>
</g>
<!-- 5&#45;&gt;43 -->
<g id="edge16" class="edge">
<title>5&#45;&gt;43</title>
<path fill="none" stroke="#000000" d="M72,-575.8314C72,-568.131 72,-558.9743 72,-550.4166"/>
<polygon fill="#000000" stroke="#000000" points="75.5001,-550.4132 72,-540.4133 68.5001,-550.4133 75.5001,-550.4132"/>
</g>
<!-- 6 -->
<g id="node7" class="node">
<title>6</title>
<g id="a_node7"><a xlink:title="S">
<ellipse fill="#ff6f00" stroke="#000000" stroke-width="0" cx="18" cy="-522" rx="18" ry="18"/>
</a>
</g>
</g>
<!-- 6&#45;&gt;4 -->
<g id="edge27" class="edge">
<title>6&#45;&gt;4</title>
<path fill="none" stroke="#000000" d="M18,-503.8314C18,-496.131 18,-486.9743 18,-478.4166"/>
<polygon fill="#000000" stroke="#000000" points="21.5001,-478.4132 18,-468.4133 14.5001,-478.4133 21.5001,-478.4132"/>
</g>
<!-- 7 -->
<g id="node8" class="node">
<title>7</title>
<g id="a_node8"><a xlink:title="S">
<ellipse fill="#ff6f00" stroke="#000000" stroke-width="0" cx="126" cy="-450" rx="18" ry="18"/>
</a>
</g>
</g>
<!-- 44 -->
<g id="node45" class="node">
<title>44</title>
<g id="a_node45"><a xlink:title="S">
<ellipse fill="#ff6f00" stroke="#000000" stroke-width="0" cx="126" cy="-378" rx="18" ry="18"/>
</a>
</g>
</g>
<!-- 7&#45;&gt;44 -->
<g id="edge48" class="edge">
<title>7&#45;&gt;44</title>
<path fill="none" stroke="#000000" d="M126,-431.8314C126,-424.131 126,-414.9743 126,-406.4166"/>
<polygon fill="#000000" stroke="#000000" points="129.5001,-406.4132 126,-396.4133 122.5001,-406.4133 129.5001,-406.4132"/>
</g>
<!-- 8 -->
<g id="node9" class="node">
<title>8</title>
<g id="a_node9"><a xlink:title="S">
<ellipse fill="#ff6f00" stroke="#000000" stroke-width="0" cx="126" cy="-522" rx="18" ry="18"/>
</a>
</g>
</g>
<!-- 8&#45;&gt;7 -->
<g id="edge39" class="edge">
<title>8&#45;&gt;7</title>
<path fill="none" stroke="#000000" d="M126,-503.8314C126,-496.131 126,-486.9743 126,-478.4166"/>
<polygon fill="#000000" stroke="#000000" points="129.5001,-478.4132 126,-468.4133 122.5001,-478.4133 129.5001,-478.4132"/>
</g>
<!-- 9&#45;&gt;8 -->
<g id="edge5" class="edge">
<title>9&#45;&gt;8</title>
<path fill="none" stroke="#000000" d="M126,-575.8314C126,-568.131 126,-558.9743 126,-550.4166"/>
<polygon fill="#000000" stroke="#000000" points="129.5001,-550.4132 126,-540.4133 122.5001,-550.4133 129.5001,-550.4132"/>
</g>
<!-- 12 -->
<g id="node13" class="node">
<title>12</title>
<g id="a_node13"><a xlink:title="S">
<ellipse fill="#ff6f00" stroke="#000000" stroke-width="0" cx="18" cy="-306" rx="18" ry="18"/>
</a>
</g>
</g>
<!-- 10&#45;&gt;12 -->
<g id="edge19" class="edge">
<title>10&#45;&gt;12</title>
<path fill="none" stroke="#000000" d="M18,-359.8314C18,-352.131 18,-342.9743 18,-334.4166"/>
<polygon fill="#000000" stroke="#000000" points="21.5001,-334.4132 18,-324.4133 14.5001,-334.4133 21.5001,-334.4132"/>
</g>
<!-- 11&#45;&gt;6 -->
<g id="edge53" class="edge">
<title>11&#45;&gt;6</title>
<path fill="none" stroke="#000000" d="M18,-575.8314C18,-568.131 18,-558.9743 18,-550.4166"/>
<polygon fill="#000000" stroke="#000000" points="21.5001,-550.4132 18,-540.4133 14.5001,-550.4133 21.5001,-550.4132"/>
</g>
<!-- 31 -->
<g id="node32" class="node">
<title>31</title>
<g id="a_node32"><a xlink:title="S">
<ellipse fill="#ff6f00" stroke="#000000" stroke-width="0" cx="18" cy="-234" rx="18" ry="18"/>
</a>
</g>
</g>
<!-- 12&#45;&gt;31 -->
<g id="edge8" class="edge">
<title>12&#45;&gt;31</title>
<path fill="none" stroke="#000000" d="M18,-287.8314C18,-280.131 18,-270.9743 18,-262.4166"/>
<polygon fill="#000000" stroke="#000000" points="21.5001,-262.4132 18,-252.4133 14.5001,-262.4133 21.5001,-262.4132"/>
</g>
<!-- 14 -->
<g id="node15" class="node">
<title>14</title>
<g id="a_node15"><a xlink:title="S">
<ellipse fill="#ff6f00" stroke="#000000" stroke-width="0" cx="275" cy="-810" rx="18" ry="18"/>
</a>
</g>
</g>
<!-- 34 -->
<g id="node35" class="node">
<title>34</title>
<g id="a_node35"><a xlink:title="S">
<ellipse fill="#ff6f00" stroke="#000000" stroke-width="0" cx="288" cy="-738" rx="18" ry="18"/>
</a>
</g>
</g>
<!-- 14&#45;&gt;34 -->
<g id="edge24" class="edge">
<title>14&#45;&gt;34</title>
<path fill="none" stroke="#000000" d="M278.2135,-792.2022C279.651,-784.2406 281.3795,-774.6671 282.9813,-765.7957"/>
<polygon fill="#000000" stroke="#000000" points="286.4458,-766.3053 284.7784,-755.8425 279.5572,-765.0615 286.4458,-766.3053"/>
</g>
<!-- 52 -->
<g id="node53" class="node">
<title>52</title>
<g id="a_node53"><a xlink:title="S">
<ellipse fill="#ff6f00" stroke="#000000" stroke-width="0" cx="234" cy="-738" rx="18" ry="18"/>
</a>
</g>
</g>
<!-- 14&#45;&gt;52 -->
<g id="edge22" class="edge">
<title>14&#45;&gt;52</title>
<path fill="none" stroke="#000000" d="M265.9008,-794.0209C260.6988,-784.8857 254.0608,-773.2286 248.1884,-762.9162"/>
<polygon fill="#000000" stroke="#000000" points="251.0637,-760.8924 243.0738,-753.9345 244.9808,-764.3563 251.0637,-760.8924"/>
</g>
<!-- 15 -->
<g id="node16" class="node">
<title>15</title>
<g id="a_node16"><a xlink:title="S">
<ellipse fill="#ff6f00" stroke="#000000" stroke-width="0" cx="396" cy="-666" rx="18" ry="18"/>
</a>
</g>
</g>
<!-- 24 -->
<g id="node25" class="node">
<title>24</title>
<g id="a_node25"><a xlink:title="S">
<ellipse fill="#ff6f00" stroke="#000000" stroke-width="0" cx="396" cy="-594" rx="18" ry="18"/>
</a>
</g>
</g>
<!-- 15&#45;&gt;24 -->
<g id="edge44" class="edge">
<title>15&#45;&gt;24</title>
<path fill="none" stroke="#000000" d="M396,-647.8314C396,-640.131 396,-630.9743 396,-622.4166"/>
<polygon fill="#000000" stroke="#000000" points="399.5001,-622.4132 396,-612.4133 392.5001,-622.4133 399.5001,-622.4132"/>
</g>
<!-- 16 -->
<g id="node17" class="node">
<title>16</title>
<g id="a_node17"><a xlink:title="S">
<ellipse fill="#ff6f00" stroke="#000000" stroke-width="0" cx="396" cy="-738" rx="18" ry="18"/>
</a>
</g>
</g>
<!-- 16&#45;&gt;15 -->
<g id="edge21" class="edge">
<title>16&#45;&gt;15</title>
<path fill="none" stroke="#000000" d="M396,-719.8314C396,-712.131 396,-702.9743 396,-694.4166"/>
<polygon fill="#000000" stroke="#000000" points="399.5001,-694.4132 396,-684.4133 392.5001,-694.4133 399.5001,-694.4132"/>
</g>
<!-- 17 -->
<g id="node18" class="node">
<title>17</title>
<g id="a_node18"><a xlink:title="S">
<ellipse fill="#ff6f00" stroke="#000000" stroke-width="0" cx="396" cy="-162" rx="18" ry="18"/>
</a>
</g>
</g>
<!-- 35 -->
<g id="node36" class="node">
<title>35</title>
<g id="a_node36"><a xlink:title="S">
<ellipse fill="#ff6f00" stroke="#000000" stroke-width="0" cx="396" cy="-90" rx="18" ry="18"/>
</a>
</g>
</g>
<!-- 17&#45;&gt;35 -->
<g id="edge50" class="edge">
<title>17&#45;&gt;35</title>
<path fill="none" stroke="#000000" d="M396,-143.8314C396,-136.131 396,-126.9743 396,-118.4166"/>
<polygon fill="#000000" stroke="#000000" points="399.5001,-118.4132 396,-108.4133 392.5001,-118.4133 399.5001,-118.4132"/>
</g>
<!-- 18 -->
<g id="node19" class="node">
<title>18</title>
<g id="a_node19"><a xlink:title="S">
<ellipse fill="#ff6f00" stroke="#000000" stroke-width="0" cx="18" cy="-162" rx="18" ry="18"/>
</a>
</g>
</g>
<!-- 29 -->
<g id="node30" class="node">
<title>29</title>
<g id="a_node30"><a xlink:title="S">
<ellipse fill="#ff6f00" stroke="#000000" stroke-width="0" cx="18" cy="-90" rx="18" ry="18"/>
</a>
</g>
</g>
<!-- 18&#45;&gt;29 -->
<g id="edge49" class="edge">
<title>18&#45;&gt;29</title>
<path fill="none" stroke="#000000" d="M18,-143.8314C18,-136.131 18,-126.9743 18,-118.4166"/>
<polygon fill="#000000" stroke="#000000" points="21.5001,-118.4132 18,-108.4133 14.5001,-118.4133 21.5001,-118.4132"/>
</g>
<!-- 19 -->
<g id="node20" class="node">
<title>19</title>
<g id="a_node20"><a xlink:title="S">
<ellipse fill="#ff6f00" stroke="#000000" stroke-width="0" cx="396" cy="-234" rx="18" ry="18"/>
</a>
</g>
</g>
<!-- 19&#45;&gt;17 -->
<g id="edge31" class="edge">
<title>19&#45;&gt;17</title>
<path fill="none" stroke="#000000" d="M396,-215.8314C396,-208.131 396,-198.9743 396,-190.4166"/>
<polygon fill="#000000" stroke="#000000" points="399.5001,-190.4132 396,-180.4133 392.5001,-190.4133 399.5001,-190.4132"/>
</g>
<!-- 20 -->
<g id="node21" class="node">
<title>20</title>
<g id="a_node21"><a xlink:title="S">
<ellipse fill="#ff6f00" stroke="#000000" stroke-width="0" cx="342" cy="-810" rx="18" ry="18"/>
</a>
</g>
</g>
<!-- 20&#45;&gt;16 -->
<g id="edge54" class="edge">
<title>20&#45;&gt;16</title>
<path fill="none" stroke="#000000" d="M352.9277,-795.4297C360.3934,-785.4754 370.4368,-772.0842 378.9474,-760.7368"/>
<polygon fill="#000000" stroke="#000000" points="381.8885,-762.6486 385.0885,-752.5486 376.2885,-758.4486 381.8885,-762.6486"/>
</g>
<!-- 37 -->
<g id="node38" class="node">
<title>37</title>
<g id="a_node38"><a xlink:title="I">
<ellipse fill="#0ff8e7" stroke="#000000" stroke-width="0" cx="342" cy="-738" rx="18" ry="18"/>
</a>
</g>
</g>
<!-- 20&#45;&gt;37 -->
<g id="edge51" class="edge">
<title>20&#45;&gt;37</title>
<path fill="none" stroke="#000000" d="M342,-791.8314C342,-784.131 342,-774.9743 342,-766.4166"/>
<polygon fill="#000000" stroke="#000000" points="345.5001,-766.4132 342,-756.4133 338.5001,-766.4133 345.5001,-766.4132"/>
</g>
<!-- 21 -->
<g id="node22" class="node">
<title>21</title>
<g id="a_node22"><a xlink:title="S">
<ellipse fill="#ff6f00" stroke="#000000" stroke-width="0" cx="396" cy="-450" rx="18" ry="18"/>
</a>
</g>
</g>
<!-- 30 -->
<g id="node31" class="node">
<title>30</title>
<g id="a_node31"><a xlink:title="S">
<ellipse fill="#ff6f00" stroke="#000000" stroke-width="0" cx="396" cy="-378" rx="18" ry="18"/>
</a>
</g>
</g>
<!-- 21&#45;&gt;30 -->
<g id="edge42" class="edge">
<title>21&#45;&gt;30</title>
<path fill="none" stroke="#000000" d="M396,-431.8314C396,-424.131 396,-414.9743 396,-406.4166"/>
<polygon fill="#000000" stroke="#000000" points="399.5001,-406.4132 396,-396.4133 392.5001,-406.4133 399.5001,-406.4132"/>
</g>
<!-- 22&#45;&gt;3 -->
<g id="edge26" class="edge">
<title>22&#45;&gt;3</title>
<path fill="none" stroke="#000000" d="M173.1416,-610.9092C166.2138,-621.6894 155.7916,-635.6831 146.3909,-646.8691"/>
<polygon fill="#000000" stroke="#000000" points="143.7291,-644.5962 139.7909,-654.432 149.0031,-649.1989 143.7291,-644.5962"/>
</g>
<!-- 45 -->
<g id="node46" class="node">
<title>45</title>
<g id="a_node46"><a xlink:title="T">
<ellipse fill="#ff3f00" stroke="#000000" stroke-width="0" cx="180" cy="-522" rx="18" ry="18"/>
</a>
</g>
</g>
<!-- 22&#45;&gt;45 -->
<g id="edge15" class="edge">
<title>22&#45;&gt;45</title>
<path fill="none" stroke="#000000" d="M180,-575.8314C180,-568.131 180,-558.9743 180,-550.4166"/>
<polygon fill="#000000" stroke="#000000" points="183.5001,-550.4132 180,-540.4133 176.5001,-550.4133 183.5001,-550.4132"/>
</g>
<!-- 23 -->
<g id="node24" class="node">
<title>23</title>
<g id="a_node24"><a xlink:title="S">
<ellipse fill="#ff6f00" stroke="#000000" stroke-width="0" cx="275" cy="-882" rx="18" ry="18"/>
</a>
</g>
</g>
<!-- 23&#45;&gt;14 -->
<g id="edge36" class="edge">
<title>23&#45;&gt;14</title>
<path fill="none" stroke="#000000" d="M275,-863.8314C275,-856.131 275,-846.9743 275,-838.4166"/>
<polygon fill="#000000" stroke="#000000" points="278.5001,-838.4132 275,-828.4133 271.5001,-838.4133 278.5001,-838.4132"/>
</g>
<!-- 23&#45;&gt;20 -->
<g id="edge35" class="edge">
<title>23&#45;&gt;20</title>
<path fill="none" stroke="#000000" d="M287.2888,-868.7941C297.0816,-858.2705 310.9824,-843.3324 322.3214,-831.1472"/>
<polygon fill="#000000" stroke="#000000" points="325.0837,-833.3164 329.3338,-823.6114 319.9592,-828.5478 325.0837,-833.3164"/>
</g>
<!-- 28 -->
<g id="node29" class="node">
<title>28</title>
<g id="a_node29"><a xlink:title="S">
<ellipse fill="#ff6f00" stroke="#000000" stroke-width="0" cx="194" cy="-810" rx="18" ry="18"/>
</a>
</g>
</g>
<!-- 23&#45;&gt;28 -->
<g id="edge47" class="edge">
<title>23&#45;&gt;28</title>
<path fill="none" stroke="#000000" d="M261.2595,-869.7862C248.6157,-858.5473 229.6738,-841.7101 215.1103,-828.7647"/>
<polygon fill="#000000" stroke="#000000" points="217.337,-826.0612 207.5376,-822.0334 212.6865,-831.2931 217.337,-826.0612"/>
</g>
<!-- 26 -->
<g id="node27" class="node">
<title>26</title>
<g id="a_node27"><a xlink:title="S">
<ellipse fill="#ff6f00" stroke="#000000" stroke-width="0" cx="396" cy="-522" rx="18" ry="18"/>
</a>
</g>
</g>
<!-- 24&#45;&gt;26 -->
<g id="edge29" class="edge">
<title>24&#45;&gt;26</title>
<path fill="none" stroke="#000000" d="M396,-575.8314C396,-568.131 396,-558.9743 396,-550.4166"/>
<polygon fill="#000000" stroke="#000000" points="399.5001,-550.4132 396,-540.4133 392.5001,-550.4133 399.5001,-550.4132"/>
</g>
<!-- 25 -->
<g id="node26" class="node">
<title>25</title>
<g id="a_node26"><a xlink:title="S">
<ellipse fill="#ff6f00" stroke="#000000" stroke-width="0" cx="396" cy="-18" rx="18" ry="18"/>
</a>
</g>
</g>
<!-- 26&#45;&gt;21 -->
<g id="edge28" class="edge">
<title>26&#45;&gt;21</title>
<path fill="none" stroke="#000000" d="M396,-503.8314C396,-496.131 396,-486.9743 396,-478.4166"/>
<polygon fill="#000000" stroke="#000000" points="399.5001,-478.4132 396,-468.4133 392.5001,-478.4133 399.5001,-478.4132"/>
</g>
<!-- 27 -->
<g id="node28" class="node">
<title>27</title>
<g id="a_node28"><a xlink:title="S">
<ellipse fill="#ff6f00" stroke="#000000" stroke-width="0" cx="396" cy="-306" rx="18" ry="18"/>
</a>
</g>
</g>
<!-- 27&#45;&gt;19 -->
<g id="edge33" class="edge">
<title>27&#45;&gt;19</title>
<path fill="none" stroke="#000000" d="M396,-287.8314C396,-280.131 396,-270.9743 396,-262.4166"/>
<polygon fill="#000000" stroke="#000000" points="399.5001,-262.4132 396,-252.4133 392.5001,-262.4133 399.5001,-262.4132"/>
</g>
<!-- 39 -->
<g id="node40" class="node">
<title>39</title>
<g id="a_node40"><a xlink:title="S">
<ellipse fill="#ff6f00" stroke="#000000" stroke-width="0" cx="180" cy="-738" rx="18" ry="18"/>
</a>
</g>
</g>
<!-- 28&#45;&gt;39 -->
<g id="edge23" class="edge">
<title>28&#45;&gt;39</title>
<path fill="none" stroke="#000000" d="M190.5393,-792.2022C188.9912,-784.2406 187.1297,-774.6671 185.4047,-765.7957"/>
<polygon fill="#000000" stroke="#000000" points="188.8138,-764.9906 183.4694,-755.8425 181.9425,-766.3268 188.8138,-764.9906"/>
</g>
<!-- 30&#45;&gt;27 -->
<g id="edge11" class="edge">
<title>30&#45;&gt;27</title>
<path fill="none" stroke="#000000" d="M396,-359.8314C396,-352.131 396,-342.9743 396,-334.4166"/>
<polygon fill="#000000" stroke="#000000" points="399.5001,-334.4132 396,-324.4133 392.5001,-334.4133 399.5001,-334.4132"/>
</g>
<!-- 31&#45;&gt;18 -->
<g id="edge45" class="edge">
<title>31&#45;&gt;18</title>
<path fill="none" stroke="#000000" d="M18,-215.8314C18,-208.131 18,-198.9743 18,-190.4166"/>
<polygon fill="#000000" stroke="#000000" points="21.5001,-190.4132 18,-180.4133 14.5001,-190.4133 21.5001,-190.4132"/>
</g>
<!-- 32 -->
<g id="node33" class="node">
<title>32</title>
<g id="a_node33"><a xlink:title="S">
<ellipse fill="#ff6f00" stroke="#000000" stroke-width="0" cx="288" cy="-594" rx="18" ry="18"/>
</a>
</g>
</g>
<!-- 50 -->
<g id="node51" class="node">
<title>50</title>
<g id="a_node51"><a xlink:title="S">
<ellipse fill="#ff6f00" stroke="#000000" stroke-width="0" cx="288" cy="-522" rx="18" ry="18"/>
</a>
</g>
</g>
<!-- 32&#45;&gt;50 -->
<g id="edge34" class="edge">
<title>32&#45;&gt;50</title>
<path fill="none" stroke="#000000" d="M288,-575.8314C288,-568.131 288,-558.9743 288,-550.4166"/>
<polygon fill="#000000" stroke="#000000" points="291.5001,-550.4132 288,-540.4133 284.5001,-550.4133 291.5001,-550.4132"/>
</g>
<!-- 33 -->
<g id="node34" class="node">
<title>33</title>
<g id="a_node34"><a xlink:title="S">
<ellipse fill="#ff6f00" stroke="#000000" stroke-width="0" cx="180" cy="-666" rx="18" ry="18"/>
</a>
</g>
</g>
<!-- 33&#45;&gt;22 -->
<g id="edge3" class="edge">
<title>33&#45;&gt;22</title>
<path fill="none" stroke="#000000" d="M180,-647.8314C180,-640.131 180,-630.9743 180,-622.4166"/>
<polygon fill="#000000" stroke="#000000" points="183.5001,-622.4132 180,-612.4133 176.5001,-622.4133 183.5001,-622.4132"/>
</g>
<!-- 38 -->
<g id="node39" class="node">
<title>38</title>
<g id="a_node39"><a xlink:title="S">
<ellipse fill="#ff6f00" stroke="#000000" stroke-width="0" cx="288" cy="-666" rx="18" ry="18"/>
</a>
</g>
</g>
<!-- 34&#45;&gt;38 -->
<g id="edge2" class="edge">
<title>34&#45;&gt;38</title>
<path fill="none" stroke="#000000" d="M288,-719.8314C288,-712.131 288,-702.9743 288,-694.4166"/>
<polygon fill="#000000" stroke="#000000" points="291.5001,-694.4132 288,-684.4133 284.5001,-694.4133 291.5001,-694.4132"/>
</g>
<!-- 35&#45;&gt;25 -->
<g id="edge14" class="edge">
<title>35&#45;&gt;25</title>
<path fill="none" stroke="#000000" d="M396,-71.8314C396,-64.131 396,-54.9743 396,-46.4166"/>
<polygon fill="#000000" stroke="#000000" points="399.5001,-46.4132 396,-36.4133 392.5001,-46.4133 399.5001,-46.4132"/>
</g>
<!-- 36 -->
<g id="node37" class="node">
<title>36</title>
<g id="a_node37"><a xlink:title="I">
<ellipse fill="#0ff8e7" stroke="#000000" stroke-width="0" cx="342" cy="-666" rx="18" ry="18"/>
</a>
</g>
</g>
<!-- 46 -->
<g id="node47" class="node">
<title>46</title>
<g id="a_node47"><a xlink:title="I">
<ellipse fill="#0ff8e7" stroke="#000000" stroke-width="0" cx="342" cy="-594" rx="18" ry="18"/>
</a>
</g>
</g>
<!-- 36&#45;&gt;46 -->
<g id="edge9" class="edge">
<title>36&#45;&gt;46</title>
<path fill="none" stroke="#000000" d="M342,-647.8314C342,-640.131 342,-630.9743 342,-622.4166"/>
<polygon fill="#000000" stroke="#000000" points="345.5001,-622.4132 342,-612.4133 338.5001,-622.4133 345.5001,-622.4132"/>
</g>
<!-- 37&#45;&gt;36 -->
<g id="edge1" class="edge">
<title>37&#45;&gt;36</title>
<path fill="none" stroke="#000000" d="M342,-719.8314C342,-712.131 342,-702.9743 342,-694.4166"/>
<polygon fill="#000000" stroke="#000000" points="345.5001,-694.4132 342,-684.4133 338.5001,-694.4133 345.5001,-694.4132"/>
</g>
<!-- 38&#45;&gt;32 -->
<g id="edge20" class="edge">
<title>38&#45;&gt;32</title>
<path fill="none" stroke="#000000" d="M288,-647.8314C288,-640.131 288,-630.9743 288,-622.4166"/>
<polygon fill="#000000" stroke="#000000" points="291.5001,-622.4132 288,-612.4133 284.5001,-622.4133 291.5001,-622.4132"/>
</g>
<!-- 39&#45;&gt;33 -->
<g id="edge18" class="edge">
<title>39&#45;&gt;33</title>
<path fill="none" stroke="#000000" d="M180,-719.8314C180,-712.131 180,-702.9743 180,-694.4166"/>
<polygon fill="#000000" stroke="#000000" points="183.5001,-694.4132 180,-684.4133 176.5001,-694.4133 183.5001,-694.4132"/>
</g>
<!-- 40 -->
<g id="node41" class="node">
<title>40</title>
<g id="a_node41"><a xlink:title="T">
<ellipse fill="#ff3f00" stroke="#000000" stroke-width="0" cx="72" cy="-378" rx="18" ry="18"/>
</a>
</g>
</g>
<!-- 41 -->
<g id="node42" class="node">
<title>41</title>
<g id="a_node42"><a xlink:title="I">
<ellipse fill="#0ff8e7" stroke="#000000" stroke-width="0" cx="342" cy="-522" rx="18" ry="18"/>
</a>
</g>
</g>
<!-- 42 -->
<g id="node43" class="node">
<title>42</title>
<g id="a_node43"><a xlink:title="S">
<ellipse fill="#ff6f00" stroke="#000000" stroke-width="0" cx="72" cy="-450" rx="18" ry="18"/>
</a>
</g>
</g>
<!-- 42&#45;&gt;40 -->
<g id="edge12" class="edge">
<title>42&#45;&gt;40</title>
<path fill="none" stroke="#000000" d="M72,-431.8314C72,-424.131 72,-414.9743 72,-406.4166"/>
<polygon fill="#000000" stroke="#000000" points="75.5001,-406.4132 72,-396.4133 68.5001,-406.4133 75.5001,-406.4132"/>
</g>
<!-- 43&#45;&gt;42 -->
<g id="edge13" class="edge">
<title>43&#45;&gt;42</title>
<path fill="none" stroke="#000000" d="M72,-503.8314C72,-496.131 72,-486.9743 72,-478.4166"/>
<polygon fill="#000000" stroke="#000000" points="75.5001,-478.4132 72,-468.4133 68.5001,-478.4133 75.5001,-478.4132"/>
</g>
<!-- 47 -->
<g id="node48" class="node">
<title>47</title>
<g id="a_node48"><a xlink:title="S">
<ellipse fill="#ff6f00" stroke="#000000" stroke-width="0" cx="126" cy="-306" rx="18" ry="18"/>
</a>
</g>
</g>
<!-- 44&#45;&gt;47 -->
<g id="edge43" class="edge">
<title>44&#45;&gt;47</title>
<path fill="none" stroke="#000000" d="M126,-359.8314C126,-352.131 126,-342.9743 126,-334.4166"/>
<polygon fill="#000000" stroke="#000000" points="129.5001,-334.4132 126,-324.4133 122.5001,-334.4133 129.5001,-334.4132"/>
</g>
<!-- 46&#45;&gt;41 -->
<g id="edge10" class="edge">
<title>46&#45;&gt;41</title>
<path fill="none" stroke="#000000" d="M342,-575.8314C342,-568.131 342,-558.9743 342,-550.4166"/>
<polygon fill="#000000" stroke="#000000" points="345.5001,-550.4132 342,-540.4133 338.5001,-550.4133 345.5001,-550.4132"/>
</g>
<!-- 47&#45;&gt;0 -->
<g id="edge32" class="edge">
<title>47&#45;&gt;0</title>
<path fill="none" stroke="#000000" d="M126,-287.8314C126,-280.131 126,-270.9743 126,-262.4166"/>
<polygon fill="#000000" stroke="#000000" points="129.5001,-262.4132 126,-252.4133 122.5001,-262.4133 129.5001,-262.4132"/>
</g>
<!-- 48 -->
<g id="node49" class="node">
<title>48</title>
<g id="a_node49"><a xlink:title="S">
<ellipse fill="#ff6f00" stroke="#000000" stroke-width="0" cx="288" cy="-378" rx="18" ry="18"/>
</a>
</g>
</g>
<!-- 49 -->
<g id="node50" class="node">
<title>49</title>
<g id="a_node50"><a xlink:title="S">
<ellipse fill="#ff6f00" stroke="#000000" stroke-width="0" cx="288" cy="-450" rx="18" ry="18"/>
</a>
</g>
</g>
<!-- 49&#45;&gt;48 -->
<g id="edge40" class="edge">
<title>49&#45;&gt;48</title>
<path fill="none" stroke="#000000" d="M288,-431.8314C288,-424.131 288,-414.9743 288,-406.4166"/>
<polygon fill="#000000" stroke="#000000" points="291.5001,-406.4132 288,-396.4133 284.5001,-406.4133 291.5001,-406.4132"/>
</g>
<!-- 50&#45;&gt;49 -->
<g id="edge38" class="edge">
<title>50&#45;&gt;49</title>
<path fill="none" stroke="#000000" d="M288,-503.8314C288,-496.131 288,-486.9743 288,-478.4166"/>
<polygon fill="#000000" stroke="#000000" points="291.5001,-478.4132 288,-468.4133 284.5001,-478.4133 291.5001,-478.4132"/>
</g>
<!-- 51 -->
<g id="node52" class="node">
<title>51</title>
<g id="a_node52"><a xlink:title="S">
<ellipse fill="#ff6f00" stroke="#000000" stroke-width="0" cx="234" cy="-594" rx="18" ry="18"/>
</a>
</g>
</g>
<!-- 53 -->
<g id="node54" class="node">
<title>53</title>
<g id="a_node54"><a xlink:title="S">
<ellipse fill="#ff6f00" stroke="#000000" stroke-width="0" cx="234" cy="-666" rx="18" ry="18"/>
</a>
</g>
</g>
<!-- 52&#45;&gt;53 -->
<g id="edge17" class="edge">
<title>52&#45;&gt;53</title>
<path fill="none" stroke="#000000" d="M234,-719.8314C234,-712.131 234,-702.9743 234,-694.4166"/>
<polygon fill="#000000" stroke="#000000" points="237.5001,-694.4132 234,-684.4133 230.5001,-694.4133 237.5001,-694.4132"/>
</g>
<!-- 53&#45;&gt;51 -->
<g id="edge25" class="edge">
<title>53&#45;&gt;51</title>
<path fill="none" stroke="#000000" d="M234,-647.8314C234,-640.131 234,-630.9743 234,-622.4166"/>
<polygon fill="#000000" stroke="#000000" points="237.5001,-622.4132 234,-612.4133 230.5001,-622.4133 237.5001,-622.4132"/>
</g>
</g>
</svg>
