<?xml version="1.0" encoding="UTF-8" standalone="no"?>
<!DOCTYPE svg PUBLIC "-//W3C//DTD SVG 1.1//EN"
 "http://www.w3.org/Graphics/SVG/1.1/DTD/svg11.dtd">
<!-- Generated by graphviz version 2.38.0 (20140413.2041)
 -->
<!-- Title: %3 Pages: 1 -->
<svg width="1401pt" height="836pt"
 viewBox="0.00 0.00 1401.19 836.00" xmlns="http://www.w3.org/2000/svg" xmlns:xlink="http://www.w3.org/1999/xlink">
<g id="graph0" class="graph" transform="scale(1 1) rotate(0) translate(4 832)">
<title>%3</title>
<polygon fill="white" stroke="none" points="-4,4 -4,-832 1397.19,-832 1397.19,4 -4,4"/>
<!-- 0 -->
<g id="node1" class="node"><title>0</title>
<g id="a_node1"><a xlink:title="0, diversity: 7, multiplicities: 1,1,1,2,3,46,1697, labels: 1,0,3,2">
<ellipse fill="#f7fcf5" stroke="black" cx="546.596" cy="-594" rx="57.6901" ry="18"/>
<text text-anchor="middle" x="546.596" y="-590.3" font-family="Times,serif" font-size="14.00">0 (7): 1,0,3,2</text>
</a>
</g>
</g>
<!-- 6 -->
<g id="node7" class="node"><title>6</title>
<g id="a_node7"><a xlink:title="6, diversity: 1, multiplicities: 1, labels: 3">
<ellipse fill="#228a44" stroke="black" cx="49.5963" cy="-522" rx="37.0935" ry="18"/>
<text text-anchor="middle" x="49.5963" y="-518.3" font-family="Times,serif" font-size="14.00">6 (1): 3</text>
</a>
</g>
</g>
<!-- 0&#45;&gt;6 -->
<g id="edge47" class="edge"><title>0&#45;&gt;6</title>
<path fill="none" stroke="black" d="M490.449,-589.64C405.812,-583.822 240.845,-569.545 103.596,-540 98.6194,-538.929 93.4458,-537.595 88.3589,-536.149"/>
<polygon fill="black" stroke="black" points="89.3418,-532.79 78.7578,-533.269 87.3305,-539.494 89.3418,-532.79"/>
</g>
<!-- 11 -->
<g id="node12" class="node"><title>11</title>
<g id="a_node12"><a xlink:title="11, diversity: 1, multiplicities: 1, labels: 3">
<ellipse fill="#228a44" stroke="black" cx="154.596" cy="-522" rx="41.6928" ry="18"/>
<text text-anchor="middle" x="154.596" y="-518.3" font-family="Times,serif" font-size="14.00">11 (1): 3</text>
</a>
</g>
</g>
<!-- 0&#45;&gt;11 -->
<g id="edge24" class="edge"><title>0&#45;&gt;11</title>
<path fill="none" stroke="black" d="M497.221,-584.606C437.213,-574.349 332.899,-556.338 243.596,-540 230.032,-537.518 215.323,-534.743 201.842,-532.166"/>
<polygon fill="black" stroke="black" points="202.293,-528.689 191.812,-530.243 200.974,-535.564 202.293,-528.689"/>
</g>
<!-- 12 -->
<g id="node13" class="node"><title>12</title>
<g id="a_node13"><a xlink:title="12, diversity: 1, multiplicities: 1, labels: 3">
<ellipse fill="#228a44" stroke="black" cx="294.596" cy="-522" rx="41.6928" ry="18"/>
<text text-anchor="middle" x="294.596" y="-518.3" font-family="Times,serif" font-size="14.00">12 (1): 3</text>
</a>
</g>
</g>
<!-- 0&#45;&gt;12 -->
<g id="edge34" class="edge"><title>0&#45;&gt;12</title>
<path fill="none" stroke="black" d="M504.984,-581.441C459.009,-568.67 385.294,-548.194 338.444,-535.18"/>
<polygon fill="black" stroke="black" points="339.158,-531.746 328.586,-532.442 337.285,-538.49 339.158,-531.746"/>
</g>
<!-- 15 -->
<g id="node16" class="node"><title>15</title>
<g id="a_node16"><a xlink:title="15, diversity: 1, multiplicities: 12, labels: 3,2">
<ellipse fill="#73c476" stroke="black" cx="422.596" cy="-522" rx="48.1917" ry="18"/>
<text text-anchor="middle" x="422.596" y="-518.3" font-family="Times,serif" font-size="14.00">15 (1): 3,2</text>
</a>
</g>
</g>
<!-- 0&#45;&gt;15 -->
<g id="edge17" class="edge"><title>0&#45;&gt;15</title>
<path fill="none" stroke="black" d="M519.995,-577.983C501.605,-567.602 476.967,-553.693 457.072,-542.462"/>
<polygon fill="black" stroke="black" points="458.733,-539.381 448.304,-537.513 455.292,-545.477 458.733,-539.381"/>
</g>
<!-- 19 -->
<g id="node20" class="node"><title>19</title>
<g id="a_node20"><a xlink:title="19, diversity: 2, multiplicities: 2,25, labels: 3,2">
<ellipse fill="#73c476" stroke="black" cx="546.596" cy="-522" rx="48.1917" ry="18"/>
<text text-anchor="middle" x="546.596" y="-518.3" font-family="Times,serif" font-size="14.00">19 (2): 3,2</text>
</a>
</g>
</g>
<!-- 0&#45;&gt;19 -->
<g id="edge44" class="edge"><title>0&#45;&gt;19</title>
<path fill="none" stroke="black" d="M546.596,-575.697C546.596,-567.983 546.596,-558.712 546.596,-550.112"/>
<polygon fill="black" stroke="black" points="550.096,-550.104 546.596,-540.104 543.096,-550.104 550.096,-550.104"/>
</g>
<!-- 21 -->
<g id="node22" class="node"><title>21</title>
<g id="a_node22"><a xlink:title="21, diversity: 1, multiplicities: 1, labels: 3">
<ellipse fill="#228a44" stroke="black" cx="699.596" cy="-522" rx="41.6928" ry="18"/>
<text text-anchor="middle" x="699.596" y="-518.3" font-family="Times,serif" font-size="14.00">21 (1): 3</text>
</a>
</g>
</g>
<!-- 0&#45;&gt;21 -->
<g id="edge15" class="edge"><title>0&#45;&gt;21</title>
<path fill="none" stroke="black" d="M577.927,-578.666C602.61,-567.373 637.067,-551.608 663.014,-539.737"/>
<polygon fill="black" stroke="black" points="664.517,-542.898 672.154,-535.555 661.604,-536.533 664.517,-542.898"/>
</g>
<!-- 24 -->
<g id="node25" class="node"><title>24</title>
<g id="a_node25"><a xlink:title="24, diversity: 1, multiplicities: 1, labels: 3">
<ellipse fill="#228a44" stroke="black" cx="845.596" cy="-522" rx="41.6928" ry="18"/>
<text text-anchor="middle" x="845.596" y="-518.3" font-family="Times,serif" font-size="14.00">24 (1): 3</text>
</a>
</g>
</g>
<!-- 0&#45;&gt;24 -->
<g id="edge22" class="edge"><title>0&#45;&gt;24</title>
<path fill="none" stroke="black" d="M591.36,-582.52C647.608,-569.352 743.609,-546.877 800.169,-533.635"/>
<polygon fill="black" stroke="black" points="800.974,-537.041 809.913,-531.354 799.378,-530.226 800.974,-537.041"/>
</g>
<!-- 49 -->
<g id="node50" class="node"><title>49</title>
<g id="a_node50"><a xlink:title="49, diversity: 2, multiplicities: 1,1, labels: 3">
<ellipse fill="#228a44" stroke="black" cx="1043.6" cy="-522" rx="41.6928" ry="18"/>
<text text-anchor="middle" x="1043.6" y="-518.3" font-family="Times,serif" font-size="14.00">49 (2): 3</text>
</a>
</g>
</g>
<!-- 0&#45;&gt;49 -->
<g id="edge7" class="edge"><title>0&#45;&gt;49</title>
<path fill="none" stroke="black" d="M598.378,-585.707C694.712,-572.139 900.225,-543.193 994.494,-529.916"/>
<polygon fill="black" stroke="black" points="995.201,-533.351 1004.62,-528.49 994.225,-526.419 995.201,-533.351"/>
</g>
<!-- 1 -->
<g id="node2" class="node"><title>1</title>
<g id="a_node2"><a xlink:title="1, diversity: 3, multiplicities: 1,9,111, labels: 1,3,2">
<ellipse fill="#c7e9c0" stroke="black" cx="1245.6" cy="-738" rx="50.8918" ry="18"/>
<text text-anchor="middle" x="1245.6" y="-734.3" font-family="Times,serif" font-size="14.00">1 (3): 1,3,2</text>
</a>
</g>
</g>
<!-- 5 -->
<g id="node6" class="node"><title>5</title>
<g id="a_node6"><a xlink:title="5, diversity: 1, multiplicities: 1, labels: 3">
<ellipse fill="#228a44" stroke="black" cx="847.596" cy="-666" rx="37.0935" ry="18"/>
<text text-anchor="middle" x="847.596" y="-662.3" font-family="Times,serif" font-size="14.00">5 (1): 3</text>
</a>
</g>
</g>
<!-- 1&#45;&gt;5 -->
<g id="edge18" class="edge"><title>1&#45;&gt;5</title>
<path fill="none" stroke="black" d="M1201.1,-729.174C1124.57,-715.715 968.899,-688.335 892.26,-674.855"/>
<polygon fill="black" stroke="black" points="892.442,-671.334 881.987,-673.049 891.229,-678.228 892.442,-671.334"/>
</g>
<!-- 27 -->
<g id="node28" class="node"><title>27</title>
<g id="a_node28"><a xlink:title="27, diversity: 1, multiplicities: 1, labels: 2">
<ellipse fill="#73c476" stroke="black" cx="1245.6" cy="-666" rx="41.6928" ry="18"/>
<text text-anchor="middle" x="1245.6" y="-662.3" font-family="Times,serif" font-size="14.00">27 (1): 2</text>
</a>
</g>
</g>
<!-- 1&#45;&gt;27 -->
<g id="edge45" class="edge"><title>1&#45;&gt;27</title>
<path fill="none" stroke="black" d="M1245.6,-719.697C1245.6,-711.983 1245.6,-702.712 1245.6,-694.112"/>
<polygon fill="black" stroke="black" points="1249.1,-694.104 1245.6,-684.104 1242.1,-694.104 1249.1,-694.104"/>
</g>
<!-- 28 -->
<g id="node29" class="node"><title>28</title>
<g id="a_node29"><a xlink:title="28, diversity: 1, multiplicities: 2, labels: 2">
<ellipse fill="#73c476" stroke="black" cx="1346.6" cy="-666" rx="41.6928" ry="18"/>
<text text-anchor="middle" x="1346.6" y="-662.3" font-family="Times,serif" font-size="14.00">28 (1): 2</text>
</a>
</g>
</g>
<!-- 1&#45;&gt;28 -->
<g id="edge32" class="edge"><title>1&#45;&gt;28</title>
<path fill="none" stroke="black" d="M1268.01,-721.465C1282.43,-711.473 1301.32,-698.378 1316.97,-687.533"/>
<polygon fill="black" stroke="black" points="1319.06,-690.346 1325.28,-681.773 1315.07,-684.593 1319.06,-690.346"/>
</g>
<!-- 2 -->
<g id="node3" class="node"><title>2</title>
<g id="a_node3"><a xlink:title="2, diversity: 1, multiplicities: 3, labels: 1">
<ellipse fill="#c7e9c0" stroke="black" cx="1346.6" cy="-594" rx="37.0935" ry="18"/>
<text text-anchor="middle" x="1346.6" y="-590.3" font-family="Times,serif" font-size="14.00">2 (1): 1</text>
</a>
</g>
</g>
<!-- 3 -->
<g id="node4" class="node"><title>3</title>
<g id="a_node4"><a xlink:title="3, diversity: 1, multiplicities: 2, labels: 1">
<ellipse fill="#c7e9c0" stroke="black" cx="1346.6" cy="-522" rx="37.0935" ry="18"/>
<text text-anchor="middle" x="1346.6" y="-518.3" font-family="Times,serif" font-size="14.00">3 (1): 1</text>
</a>
</g>
</g>
<!-- 2&#45;&gt;3 -->
<g id="edge37" class="edge"><title>2&#45;&gt;3</title>
<path fill="none" stroke="black" d="M1346.6,-575.697C1346.6,-567.983 1346.6,-558.712 1346.6,-550.112"/>
<polygon fill="black" stroke="black" points="1350.1,-550.104 1346.6,-540.104 1343.1,-550.104 1350.1,-550.104"/>
</g>
<!-- 20 -->
<g id="node21" class="node"><title>20</title>
<g id="a_node21"><a xlink:title="20, diversity: 1, multiplicities: 2, labels: 3">
<ellipse fill="#228a44" stroke="black" cx="1349.6" cy="-450" rx="41.6928" ry="18"/>
<text text-anchor="middle" x="1349.6" y="-446.3" font-family="Times,serif" font-size="14.00">20 (1): 3</text>
</a>
</g>
</g>
<!-- 3&#45;&gt;20 -->
<g id="edge23" class="edge"><title>3&#45;&gt;20</title>
<path fill="none" stroke="black" d="M1347.34,-503.697C1347.67,-495.983 1348.07,-486.712 1348.43,-478.112"/>
<polygon fill="black" stroke="black" points="1351.93,-478.245 1348.86,-468.104 1344.94,-477.945 1351.93,-478.245"/>
</g>
<!-- 4 -->
<g id="node5" class="node"><title>4</title>
<g id="a_node5"><a xlink:title="4, diversity: 1, multiplicities: 1, labels: 3">
<ellipse fill="#228a44" stroke="black" cx="41.5963" cy="-450" rx="37.0935" ry="18"/>
<text text-anchor="middle" x="41.5963" y="-446.3" font-family="Times,serif" font-size="14.00">4 (1): 3</text>
</a>
</g>
</g>
<!-- 26 -->
<g id="node27" class="node"><title>26</title>
<g id="a_node27"><a xlink:title="26, diversity: 1, multiplicities: 18, labels: 3">
<ellipse fill="#228a44" stroke="black" cx="41.5963" cy="-378" rx="41.6928" ry="18"/>
<text text-anchor="middle" x="41.5963" y="-374.3" font-family="Times,serif" font-size="14.00">26 (1): 3</text>
</a>
</g>
</g>
<!-- 4&#45;&gt;26 -->
<g id="edge48" class="edge"><title>4&#45;&gt;26</title>
<path fill="none" stroke="black" d="M41.5963,-431.697C41.5963,-423.983 41.5963,-414.712 41.5963,-406.112"/>
<polygon fill="black" stroke="black" points="45.0964,-406.104 41.5963,-396.104 38.0964,-406.104 45.0964,-406.104"/>
</g>
<!-- 5&#45;&gt;0 -->
<g id="edge27" class="edge"><title>5&#45;&gt;0</title>
<path fill="none" stroke="black" d="M814.811,-657.376C763.573,-645.46 663.938,-622.289 601.583,-607.788"/>
<polygon fill="black" stroke="black" points="602.064,-604.306 591.531,-605.45 600.478,-611.124 602.064,-604.306"/>
</g>
<!-- 6&#45;&gt;4 -->
<g id="edge31" class="edge"><title>6&#45;&gt;4</title>
<path fill="none" stroke="black" d="M47.6188,-503.697C46.7372,-495.983 45.6777,-486.712 44.6949,-478.112"/>
<polygon fill="black" stroke="black" points="48.164,-477.642 43.5511,-468.104 41.2093,-478.437 48.164,-477.642"/>
</g>
<!-- 7 -->
<g id="node8" class="node"><title>7</title>
<g id="a_node8"><a xlink:title="7, diversity: 1, multiplicities: 60, labels: 3">
<ellipse fill="#228a44" stroke="black" cx="845.596" cy="-450" rx="37.0935" ry="18"/>
<text text-anchor="middle" x="845.596" y="-446.3" font-family="Times,serif" font-size="14.00">7 (1): 3</text>
</a>
</g>
</g>
<!-- 8 -->
<g id="node9" class="node"><title>8</title>
<g id="a_node9"><a xlink:title="8, diversity: 1, multiplicities: 6, labels: 3">
<ellipse fill="#228a44" stroke="black" cx="1351.6" cy="-738" rx="37.0935" ry="18"/>
<text text-anchor="middle" x="1351.6" y="-734.3" font-family="Times,serif" font-size="14.00">8 (1): 3</text>
</a>
</g>
</g>
<!-- 9 -->
<g id="node10" class="node"><title>9</title>
<g id="a_node10"><a xlink:title="9, diversity: 1, multiplicities: 22, labels: 3">
<ellipse fill="#228a44" stroke="black" cx="247.596" cy="-450" rx="37.0935" ry="18"/>
<text text-anchor="middle" x="247.596" y="-446.3" font-family="Times,serif" font-size="14.00">9 (1): 3</text>
</a>
</g>
</g>
<!-- 10 -->
<g id="node11" class="node"><title>10</title>
<g id="a_node11"><a xlink:title="10, diversity: 1, multiplicities: 25, labels: 3">
<ellipse fill="#228a44" stroke="black" cx="748.596" cy="-378" rx="41.6928" ry="18"/>
<text text-anchor="middle" x="748.596" y="-374.3" font-family="Times,serif" font-size="14.00">10 (1): 3</text>
</a>
</g>
</g>
<!-- 39 -->
<g id="node40" class="node"><title>39</title>
<g id="a_node40"><a xlink:title="39, diversity: 1, multiplicities: 8, labels: 3,2">
<ellipse fill="#73c476" stroke="black" cx="144.596" cy="-450" rx="48.1917" ry="18"/>
<text text-anchor="middle" x="144.596" y="-446.3" font-family="Times,serif" font-size="14.00">39 (1): 3,2</text>
</a>
</g>
</g>
<!-- 11&#45;&gt;39 -->
<g id="edge1" class="edge"><title>11&#45;&gt;39</title>
<path fill="none" stroke="black" d="M152.124,-503.697C151.022,-495.983 149.698,-486.712 148.47,-478.112"/>
<polygon fill="black" stroke="black" points="151.919,-477.509 147.04,-468.104 144.989,-478.499 151.919,-477.509"/>
</g>
<!-- 12&#45;&gt;9 -->
<g id="edge12" class="edge"><title>12&#45;&gt;9</title>
<path fill="none" stroke="black" d="M283.458,-504.411C277.722,-495.868 270.612,-485.278 264.239,-475.787"/>
<polygon fill="black" stroke="black" points="267.135,-473.821 258.655,-467.47 261.323,-477.723 267.135,-473.821"/>
</g>
<!-- 13 -->
<g id="node14" class="node"><title>13</title>
<g id="a_node14"><a xlink:title="13, diversity: 1, multiplicities: 1, labels: 3">
<ellipse fill="#228a44" stroke="black" cx="1351.6" cy="-378" rx="41.6928" ry="18"/>
<text text-anchor="middle" x="1351.6" y="-374.3" font-family="Times,serif" font-size="14.00">13 (1): 3</text>
</a>
</g>
</g>
<!-- 23 -->
<g id="node24" class="node"><title>23</title>
<g id="a_node24"><a xlink:title="23, diversity: 1, multiplicities: 12, labels: 3">
<ellipse fill="#228a44" stroke="black" cx="1351.6" cy="-306" rx="41.6928" ry="18"/>
<text text-anchor="middle" x="1351.6" y="-302.3" font-family="Times,serif" font-size="14.00">23 (1): 3</text>
</a>
</g>
</g>
<!-- 13&#45;&gt;23 -->
<g id="edge40" class="edge"><title>13&#45;&gt;23</title>
<path fill="none" stroke="black" d="M1351.6,-359.697C1351.6,-351.983 1351.6,-342.712 1351.6,-334.112"/>
<polygon fill="black" stroke="black" points="1355.1,-334.104 1351.6,-324.104 1348.1,-334.104 1355.1,-334.104"/>
</g>
<!-- 14 -->
<g id="node15" class="node"><title>14</title>
<g id="a_node15"><a xlink:title="14, diversity: 1, multiplicities: 11, labels: 3">
<ellipse fill="#228a44" stroke="black" cx="1298.6" cy="-810" rx="41.6928" ry="18"/>
<text text-anchor="middle" x="1298.6" y="-806.3" font-family="Times,serif" font-size="14.00">14 (1): 3</text>
</a>
</g>
</g>
<!-- 14&#45;&gt;1 -->
<g id="edge26" class="edge"><title>14&#45;&gt;1</title>
<path fill="none" stroke="black" d="M1286.3,-792.765C1279.78,-784.143 1271.62,-773.365 1264.32,-763.727"/>
<polygon fill="black" stroke="black" points="1267.02,-761.493 1258.19,-755.633 1261.44,-765.719 1267.02,-761.493"/>
</g>
<!-- 14&#45;&gt;8 -->
<g id="edge51" class="edge"><title>14&#45;&gt;8</title>
<path fill="none" stroke="black" d="M1310.89,-792.765C1317.51,-784.018 1325.81,-773.052 1333.19,-763.308"/>
<polygon fill="black" stroke="black" points="1336.12,-765.233 1339.37,-755.147 1330.54,-761.007 1336.12,-765.233"/>
</g>
<!-- 41 -->
<g id="node42" class="node"><title>41</title>
<g id="a_node42"><a xlink:title="41, diversity: 1, multiplicities: 2, labels: 3">
<ellipse fill="#228a44" stroke="black" cx="344.596" cy="-450" rx="41.6928" ry="18"/>
<text text-anchor="middle" x="344.596" y="-446.3" font-family="Times,serif" font-size="14.00">41 (1): 3</text>
</a>
</g>
</g>
<!-- 15&#45;&gt;41 -->
<g id="edge38" class="edge"><title>15&#45;&gt;41</title>
<path fill="none" stroke="black" d="M404.897,-505.116C394.452,-495.742 381.067,-483.73 369.562,-473.405"/>
<polygon fill="black" stroke="black" points="371.737,-470.654 361.957,-466.58 367.062,-475.864 371.737,-470.654"/>
</g>
<!-- 16 -->
<g id="node17" class="node"><title>16</title>
<g id="a_node17"><a xlink:title="16, diversity: 1, multiplicities: 1, labels: 3">
<ellipse fill="#228a44" stroke="black" cx="931.596" cy="-90" rx="41.6928" ry="18"/>
<text text-anchor="middle" x="931.596" y="-86.3" font-family="Times,serif" font-size="14.00">16 (1): 3</text>
</a>
</g>
</g>
<!-- 47 -->
<g id="node48" class="node"><title>47</title>
<g id="a_node48"><a xlink:title="47, diversity: 1, multiplicities: 43, labels: 1,3">
<ellipse fill="#c7e9c0" stroke="black" cx="931.596" cy="-18" rx="48.1917" ry="18"/>
<text text-anchor="middle" x="931.596" y="-14.3" font-family="Times,serif" font-size="14.00">47 (1): 1,3</text>
</a>
</g>
</g>
<!-- 16&#45;&gt;47 -->
<g id="edge9" class="edge"><title>16&#45;&gt;47</title>
<path fill="none" stroke="black" d="M931.596,-71.6966C931.596,-63.9827 931.596,-54.7125 931.596,-46.1124"/>
<polygon fill="black" stroke="black" points="935.096,-46.1043 931.596,-36.1043 928.096,-46.1044 935.096,-46.1043"/>
</g>
<!-- 17 -->
<g id="node18" class="node"><title>17</title>
<g id="a_node18"><a xlink:title="17, diversity: 1, multiplicities: 1, labels: 3">
<ellipse fill="#228a44" stroke="black" cx="942.596" cy="-450" rx="41.6928" ry="18"/>
<text text-anchor="middle" x="942.596" y="-446.3" font-family="Times,serif" font-size="14.00">17 (1): 3</text>
</a>
</g>
</g>
<!-- 31 -->
<g id="node32" class="node"><title>31</title>
<g id="a_node32"><a xlink:title="31, diversity: 1, multiplicities: 2, labels: 3">
<ellipse fill="#228a44" stroke="black" cx="939.596" cy="-378" rx="41.6928" ry="18"/>
<text text-anchor="middle" x="939.596" y="-374.3" font-family="Times,serif" font-size="14.00">31 (1): 3</text>
</a>
</g>
</g>
<!-- 17&#45;&gt;31 -->
<g id="edge39" class="edge"><title>17&#45;&gt;31</title>
<path fill="none" stroke="black" d="M941.855,-431.697C941.524,-423.983 941.127,-414.712 940.758,-406.112"/>
<polygon fill="black" stroke="black" points="944.254,-405.945 940.329,-396.104 937.261,-406.245 944.254,-405.945"/>
</g>
<!-- 18 -->
<g id="node19" class="node"><title>18</title>
<g id="a_node19"><a xlink:title="18, diversity: 1, multiplicities: 2, labels: 3">
<ellipse fill="#228a44" stroke="black" cx="931.596" cy="-162" rx="41.6928" ry="18"/>
<text text-anchor="middle" x="931.596" y="-158.3" font-family="Times,serif" font-size="14.00">18 (1): 3</text>
</a>
</g>
</g>
<!-- 18&#45;&gt;16 -->
<g id="edge25" class="edge"><title>18&#45;&gt;16</title>
<path fill="none" stroke="black" d="M931.596,-143.697C931.596,-135.983 931.596,-126.712 931.596,-118.112"/>
<polygon fill="black" stroke="black" points="935.096,-118.104 931.596,-108.104 928.096,-118.104 935.096,-118.104"/>
</g>
<!-- 36 -->
<g id="node37" class="node"><title>36</title>
<g id="a_node37"><a xlink:title="36, diversity: 1, multiplicities: 1, labels: 3">
<ellipse fill="#228a44" stroke="black" cx="445.596" cy="-450" rx="41.6928" ry="18"/>
<text text-anchor="middle" x="445.596" y="-446.3" font-family="Times,serif" font-size="14.00">36 (1): 3</text>
</a>
</g>
</g>
<!-- 19&#45;&gt;36 -->
<g id="edge5" class="edge"><title>19&#45;&gt;36</title>
<path fill="none" stroke="black" d="M524.681,-505.811C510.191,-495.769 491.02,-482.482 475.182,-471.505"/>
<polygon fill="black" stroke="black" points="476.99,-468.499 466.777,-465.68 473.002,-474.253 476.99,-468.499"/>
</g>
<!-- 37 -->
<g id="node38" class="node"><title>37</title>
<g id="a_node38"><a xlink:title="37, diversity: 1, multiplicities: 16, labels: 3">
<ellipse fill="#228a44" stroke="black" cx="546.596" cy="-450" rx="41.6928" ry="18"/>
<text text-anchor="middle" x="546.596" y="-446.3" font-family="Times,serif" font-size="14.00">37 (1): 3</text>
</a>
</g>
</g>
<!-- 19&#45;&gt;37 -->
<g id="edge6" class="edge"><title>19&#45;&gt;37</title>
<path fill="none" stroke="black" d="M546.596,-503.697C546.596,-495.983 546.596,-486.712 546.596,-478.112"/>
<polygon fill="black" stroke="black" points="550.096,-478.104 546.596,-468.104 543.096,-478.104 550.096,-478.104"/>
</g>
<!-- 38 -->
<g id="node39" class="node"><title>38</title>
<g id="a_node39"><a xlink:title="38, diversity: 1, multiplicities: 5, labels: 2">
<ellipse fill="#73c476" stroke="black" cx="647.596" cy="-450" rx="41.6928" ry="18"/>
<text text-anchor="middle" x="647.596" y="-446.3" font-family="Times,serif" font-size="14.00">38 (1): 2</text>
</a>
</g>
</g>
<!-- 19&#45;&gt;38 -->
<g id="edge41" class="edge"><title>19&#45;&gt;38</title>
<path fill="none" stroke="black" d="M568.512,-505.811C583.002,-495.769 602.173,-482.482 618.011,-471.505"/>
<polygon fill="black" stroke="black" points="620.19,-474.253 626.416,-465.68 616.203,-468.499 620.19,-474.253"/>
</g>
<!-- 20&#45;&gt;13 -->
<g id="edge30" class="edge"><title>20&#45;&gt;13</title>
<path fill="none" stroke="black" d="M1350.09,-431.697C1350.31,-423.983 1350.58,-414.712 1350.82,-406.112"/>
<polygon fill="black" stroke="black" points="1354.32,-406.2 1351.11,-396.104 1347.32,-406 1354.32,-406.2"/>
</g>
<!-- 22 -->
<g id="node23" class="node"><title>22</title>
<g id="a_node23"><a xlink:title="22, diversity: 1, multiplicities: 4, labels: 3">
<ellipse fill="#228a44" stroke="black" cx="748.596" cy="-450" rx="41.6928" ry="18"/>
<text text-anchor="middle" x="748.596" y="-446.3" font-family="Times,serif" font-size="14.00">22 (1): 3</text>
</a>
</g>
</g>
<!-- 21&#45;&gt;22 -->
<g id="edge43" class="edge"><title>21&#45;&gt;22</title>
<path fill="none" stroke="black" d="M711.209,-504.411C717.189,-495.868 724.601,-485.278 731.245,-475.787"/>
<polygon fill="black" stroke="black" points="734.2,-477.669 737.067,-467.47 728.465,-473.655 734.2,-477.669"/>
</g>
<!-- 22&#45;&gt;10 -->
<g id="edge28" class="edge"><title>22&#45;&gt;10</title>
<path fill="none" stroke="black" d="M748.596,-431.697C748.596,-423.983 748.596,-414.712 748.596,-406.112"/>
<polygon fill="black" stroke="black" points="752.096,-406.104 748.596,-396.104 745.096,-406.104 752.096,-406.104"/>
</g>
<!-- 24&#45;&gt;7 -->
<g id="edge42" class="edge"><title>24&#45;&gt;7</title>
<path fill="none" stroke="black" d="M845.596,-503.697C845.596,-495.983 845.596,-486.712 845.596,-478.112"/>
<polygon fill="black" stroke="black" points="849.096,-478.104 845.596,-468.104 842.096,-478.104 849.096,-478.104"/>
</g>
<!-- 24&#45;&gt;17 -->
<g id="edge4" class="edge"><title>24&#45;&gt;17</title>
<path fill="none" stroke="black" d="M866.168,-506.155C880.057,-496.132 898.581,-482.763 913.914,-471.698"/>
<polygon fill="black" stroke="black" points="915.994,-474.514 922.055,-465.824 911.898,-468.838 915.994,-474.514"/>
</g>
<!-- 25 -->
<g id="node26" class="node"><title>25</title>
<g id="a_node26"><a xlink:title="25, diversity: 1, multiplicities: 1, labels: 3">
<ellipse fill="#228a44" stroke="black" cx="1245.6" cy="-594" rx="41.6928" ry="18"/>
<text text-anchor="middle" x="1245.6" y="-590.3" font-family="Times,serif" font-size="14.00">25 (1): 3</text>
</a>
</g>
</g>
<!-- 43 -->
<g id="node44" class="node"><title>43</title>
<g id="a_node44"><a xlink:title="43, diversity: 1, multiplicities: 11, labels: 3">
<ellipse fill="#228a44" stroke="black" cx="1245.6" cy="-522" rx="41.6928" ry="18"/>
<text text-anchor="middle" x="1245.6" y="-518.3" font-family="Times,serif" font-size="14.00">43 (1): 3</text>
</a>
</g>
</g>
<!-- 25&#45;&gt;43 -->
<g id="edge14" class="edge"><title>25&#45;&gt;43</title>
<path fill="none" stroke="black" d="M1245.6,-575.697C1245.6,-567.983 1245.6,-558.712 1245.6,-550.112"/>
<polygon fill="black" stroke="black" points="1249.1,-550.104 1245.6,-540.104 1242.1,-550.104 1249.1,-550.104"/>
</g>
<!-- 29 -->
<g id="node30" class="node"><title>29</title>
<g id="a_node30"><a xlink:title="29, diversity: 1, multiplicities: 7, labels: 2">
<ellipse fill="#73c476" stroke="black" cx="41.5963" cy="-306" rx="41.6928" ry="18"/>
<text text-anchor="middle" x="41.5963" y="-302.3" font-family="Times,serif" font-size="14.00">29 (1): 2</text>
</a>
</g>
</g>
<!-- 26&#45;&gt;29 -->
<g id="edge21" class="edge"><title>26&#45;&gt;29</title>
<path fill="none" stroke="black" d="M41.5963,-359.697C41.5963,-351.983 41.5963,-342.712 41.5963,-334.112"/>
<polygon fill="black" stroke="black" points="45.0964,-334.104 41.5963,-324.104 38.0964,-334.104 45.0964,-334.104"/>
</g>
<!-- 27&#45;&gt;25 -->
<g id="edge2" class="edge"><title>27&#45;&gt;25</title>
<path fill="none" stroke="black" d="M1245.6,-647.697C1245.6,-639.983 1245.6,-630.712 1245.6,-622.112"/>
<polygon fill="black" stroke="black" points="1249.1,-622.104 1245.6,-612.104 1242.1,-622.104 1249.1,-622.104"/>
</g>
<!-- 28&#45;&gt;2 -->
<g id="edge46" class="edge"><title>28&#45;&gt;2</title>
<path fill="none" stroke="black" d="M1346.6,-647.697C1346.6,-639.983 1346.6,-630.712 1346.6,-622.112"/>
<polygon fill="black" stroke="black" points="1350.1,-622.104 1346.6,-612.104 1343.1,-622.104 1350.1,-622.104"/>
</g>
<!-- 30 -->
<g id="node31" class="node"><title>30</title>
<g id="a_node31"><a xlink:title="30, diversity: 2, multiplicities: 5,153, labels: 1,0,3,2">
<ellipse fill="#f7fcf5" stroke="black" cx="931.596" cy="-234" rx="61.99" ry="18"/>
<text text-anchor="middle" x="931.596" y="-230.3" font-family="Times,serif" font-size="14.00">30 (2): 1,0,3,2</text>
</a>
</g>
</g>
<!-- 30&#45;&gt;18 -->
<g id="edge11" class="edge"><title>30&#45;&gt;18</title>
<path fill="none" stroke="black" d="M931.596,-215.697C931.596,-207.983 931.596,-198.712 931.596,-190.112"/>
<polygon fill="black" stroke="black" points="935.096,-190.104 931.596,-180.104 928.096,-190.104 935.096,-190.104"/>
</g>
<!-- 32 -->
<g id="node33" class="node"><title>32</title>
<g id="a_node33"><a xlink:title="32, diversity: 1, multiplicities: 1, labels: 3">
<ellipse fill="#228a44" stroke="black" cx="932.596" cy="-306" rx="41.6928" ry="18"/>
<text text-anchor="middle" x="932.596" y="-302.3" font-family="Times,serif" font-size="14.00">32 (1): 3</text>
</a>
</g>
</g>
<!-- 31&#45;&gt;32 -->
<g id="edge20" class="edge"><title>31&#45;&gt;32</title>
<path fill="none" stroke="black" d="M937.866,-359.697C937.095,-351.983 936.168,-342.712 935.308,-334.112"/>
<polygon fill="black" stroke="black" points="938.784,-333.706 934.307,-324.104 931.819,-334.403 938.784,-333.706"/>
</g>
<!-- 32&#45;&gt;30 -->
<g id="edge49" class="edge"><title>32&#45;&gt;30</title>
<path fill="none" stroke="black" d="M932.349,-287.697C932.239,-279.983 932.106,-270.712 931.984,-262.112"/>
<polygon fill="black" stroke="black" points="935.483,-262.053 931.841,-252.104 928.484,-262.153 935.483,-262.053"/>
</g>
<!-- 33 -->
<g id="node34" class="node"><title>33</title>
<g id="a_node34"><a xlink:title="33, diversity: 1, multiplicities: 22, labels: 0,3">
<ellipse fill="#f7fcf5" stroke="black" cx="647.596" cy="-306" rx="48.1917" ry="18"/>
<text text-anchor="middle" x="647.596" y="-302.3" font-family="Times,serif" font-size="14.00">33 (1): 0,3</text>
</a>
</g>
</g>
<!-- 34 -->
<g id="node35" class="node"><title>34</title>
<g id="a_node35"><a xlink:title="34, diversity: 1, multiplicities: 2, labels: 3">
<ellipse fill="#228a44" stroke="black" cx="647.596" cy="-378" rx="41.6928" ry="18"/>
<text text-anchor="middle" x="647.596" y="-374.3" font-family="Times,serif" font-size="14.00">34 (1): 3</text>
</a>
</g>
</g>
<!-- 34&#45;&gt;33 -->
<g id="edge33" class="edge"><title>34&#45;&gt;33</title>
<path fill="none" stroke="black" d="M647.596,-359.697C647.596,-351.983 647.596,-342.712 647.596,-334.112"/>
<polygon fill="black" stroke="black" points="651.096,-334.104 647.596,-324.104 644.096,-334.104 651.096,-334.104"/>
</g>
<!-- 35 -->
<g id="node36" class="node"><title>35</title>
<g id="a_node36"><a xlink:title="35, diversity: 1, multiplicities: 29, labels: 0,3">
<ellipse fill="#f7fcf5" stroke="black" cx="448.596" cy="-378" rx="48.1917" ry="18"/>
<text text-anchor="middle" x="448.596" y="-374.3" font-family="Times,serif" font-size="14.00">35 (1): 0,3</text>
</a>
</g>
</g>
<!-- 36&#45;&gt;35 -->
<g id="edge53" class="edge"><title>36&#45;&gt;35</title>
<path fill="none" stroke="black" d="M446.338,-431.697C446.668,-423.983 447.066,-414.712 447.434,-406.112"/>
<polygon fill="black" stroke="black" points="450.932,-406.245 447.863,-396.104 443.938,-405.945 450.932,-406.245"/>
</g>
<!-- 38&#45;&gt;34 -->
<g id="edge36" class="edge"><title>38&#45;&gt;34</title>
<path fill="none" stroke="black" d="M647.596,-431.697C647.596,-423.983 647.596,-414.712 647.596,-406.112"/>
<polygon fill="black" stroke="black" points="651.096,-406.104 647.596,-396.104 644.096,-406.104 651.096,-406.104"/>
</g>
<!-- 40 -->
<g id="node41" class="node"><title>40</title>
<g id="a_node41"><a xlink:title="40, diversity: 1, multiplicities: 3, labels: 3">
<ellipse fill="#228a44" stroke="black" cx="1244.6" cy="-378" rx="41.6928" ry="18"/>
<text text-anchor="middle" x="1244.6" y="-374.3" font-family="Times,serif" font-size="14.00">40 (1): 3</text>
</a>
</g>
</g>
<!-- 42 -->
<g id="node43" class="node"><title>42</title>
<g id="a_node43"><a xlink:title="42, diversity: 1, multiplicities: 12, labels: 3,2">
<ellipse fill="#73c476" stroke="black" cx="1243.6" cy="-306" rx="48.1917" ry="18"/>
<text text-anchor="middle" x="1243.6" y="-302.3" font-family="Times,serif" font-size="14.00">42 (1): 3,2</text>
</a>
</g>
</g>
<!-- 40&#45;&gt;42 -->
<g id="edge8" class="edge"><title>40&#45;&gt;42</title>
<path fill="none" stroke="black" d="M1244.35,-359.697C1244.24,-351.983 1244.11,-342.712 1243.98,-334.112"/>
<polygon fill="black" stroke="black" points="1247.48,-334.053 1243.84,-324.104 1240.48,-334.153 1247.48,-334.053"/>
</g>
<!-- 44 -->
<g id="node45" class="node"><title>44</title>
<g id="a_node45"><a xlink:title="44, diversity: 1, multiplicities: 4, labels: 3">
<ellipse fill="#228a44" stroke="black" cx="340.596" cy="-378" rx="41.6928" ry="18"/>
<text text-anchor="middle" x="340.596" y="-374.3" font-family="Times,serif" font-size="14.00">44 (1): 3</text>
</a>
</g>
</g>
<!-- 41&#45;&gt;44 -->
<g id="edge52" class="edge"><title>41&#45;&gt;44</title>
<path fill="none" stroke="black" d="M343.608,-431.697C343.167,-423.983 342.637,-414.712 342.146,-406.112"/>
<polygon fill="black" stroke="black" points="345.639,-405.888 341.574,-396.104 338.65,-406.288 345.639,-405.888"/>
</g>
<!-- 46 -->
<g id="node47" class="node"><title>46</title>
<g id="a_node47"><a xlink:title="46, diversity: 1, multiplicities: 16, labels: 3">
<ellipse fill="#228a44" stroke="black" cx="1245.6" cy="-450" rx="41.6928" ry="18"/>
<text text-anchor="middle" x="1245.6" y="-446.3" font-family="Times,serif" font-size="14.00">46 (1): 3</text>
</a>
</g>
</g>
<!-- 43&#45;&gt;46 -->
<g id="edge3" class="edge"><title>43&#45;&gt;46</title>
<path fill="none" stroke="black" d="M1245.6,-503.697C1245.6,-495.983 1245.6,-486.712 1245.6,-478.112"/>
<polygon fill="black" stroke="black" points="1249.1,-478.104 1245.6,-468.104 1242.1,-478.104 1249.1,-478.104"/>
</g>
<!-- 45 -->
<g id="node46" class="node"><title>45</title>
<g id="a_node46"><a xlink:title="45, diversity: 1, multiplicities: 52, labels: 3,2">
<ellipse fill="#73c476" stroke="black" cx="340.596" cy="-306" rx="48.1917" ry="18"/>
<text text-anchor="middle" x="340.596" y="-302.3" font-family="Times,serif" font-size="14.00">45 (1): 3,2</text>
</a>
</g>
</g>
<!-- 44&#45;&gt;45 -->
<g id="edge19" class="edge"><title>44&#45;&gt;45</title>
<path fill="none" stroke="black" d="M340.596,-359.697C340.596,-351.983 340.596,-342.712 340.596,-334.112"/>
<polygon fill="black" stroke="black" points="344.096,-334.104 340.596,-324.104 337.096,-334.104 344.096,-334.104"/>
</g>
<!-- 46&#45;&gt;40 -->
<g id="edge29" class="edge"><title>46&#45;&gt;40</title>
<path fill="none" stroke="black" d="M1245.35,-431.697C1245.24,-423.983 1245.11,-414.712 1244.98,-406.112"/>
<polygon fill="black" stroke="black" points="1248.48,-406.053 1244.84,-396.104 1241.48,-406.153 1248.48,-406.053"/>
</g>
<!-- 48 -->
<g id="node49" class="node"><title>48</title>
<g id="a_node49"><a xlink:title="48, diversity: 1, multiplicities: 1, labels: 3">
<ellipse fill="#228a44" stroke="black" cx="1046.6" cy="-306" rx="41.6928" ry="18"/>
<text text-anchor="middle" x="1046.6" y="-302.3" font-family="Times,serif" font-size="14.00">48 (1): 3</text>
</a>
</g>
</g>
<!-- 51 -->
<g id="node52" class="node"><title>51</title>
<g id="a_node52"><a xlink:title="51, diversity: 1, multiplicities: 15, labels: 3,2">
<ellipse fill="#73c476" stroke="black" cx="1059.6" cy="-234" rx="48.1917" ry="18"/>
<text text-anchor="middle" x="1059.6" y="-230.3" font-family="Times,serif" font-size="14.00">51 (1): 3,2</text>
</a>
</g>
</g>
<!-- 48&#45;&gt;51 -->
<g id="edge10" class="edge"><title>48&#45;&gt;51</title>
<path fill="none" stroke="black" d="M1049.81,-287.697C1051.24,-279.983 1052.96,-270.712 1054.56,-262.112"/>
<polygon fill="black" stroke="black" points="1058.03,-262.575 1056.42,-252.104 1051.15,-261.297 1058.03,-262.575"/>
</g>
<!-- 50 -->
<g id="node51" class="node"><title>50</title>
<g id="a_node51"><a xlink:title="50, diversity: 2, multiplicities: 1,1, labels: 3">
<ellipse fill="#228a44" stroke="black" cx="1043.6" cy="-450" rx="41.6928" ry="18"/>
<text text-anchor="middle" x="1043.6" y="-446.3" font-family="Times,serif" font-size="14.00">50 (2): 3</text>
</a>
</g>
</g>
<!-- 49&#45;&gt;50 -->
<g id="edge13" class="edge"><title>49&#45;&gt;50</title>
<path fill="none" stroke="black" d="M1043.6,-503.697C1043.6,-495.983 1043.6,-486.712 1043.6,-478.112"/>
<polygon fill="black" stroke="black" points="1047.1,-478.104 1043.6,-468.104 1040.1,-478.104 1047.1,-478.104"/>
</g>
<!-- 53 -->
<g id="node54" class="node"><title>53</title>
<g id="a_node54"><a xlink:title="53, diversity: 1, multiplicities: 15, labels: 3">
<ellipse fill="#228a44" stroke="black" cx="1144.6" cy="-450" rx="41.6928" ry="18"/>
<text text-anchor="middle" x="1144.6" y="-446.3" font-family="Times,serif" font-size="14.00">53 (1): 3</text>
</a>
</g>
</g>
<!-- 49&#45;&gt;53 -->
<g id="edge16" class="edge"><title>49&#45;&gt;53</title>
<path fill="none" stroke="black" d="M1065.02,-506.155C1079.58,-496.064 1099.03,-482.583 1115.05,-471.474"/>
<polygon fill="black" stroke="black" points="1117.33,-474.157 1123.55,-465.584 1113.34,-468.403 1117.33,-474.157"/>
</g>
<!-- 52 -->
<g id="node53" class="node"><title>52</title>
<g id="a_node53"><a xlink:title="52, diversity: 1, multiplicities: 15, labels: 3">
<ellipse fill="#228a44" stroke="black" cx="1044.6" cy="-378" rx="41.6928" ry="18"/>
<text text-anchor="middle" x="1044.6" y="-374.3" font-family="Times,serif" font-size="14.00">52 (1): 3</text>
</a>
</g>
</g>
<!-- 50&#45;&gt;52 -->
<g id="edge35" class="edge"><title>50&#45;&gt;52</title>
<path fill="none" stroke="black" d="M1043.84,-431.697C1043.95,-423.983 1044.09,-414.712 1044.21,-406.112"/>
<polygon fill="black" stroke="black" points="1047.71,-406.153 1044.35,-396.104 1040.71,-406.053 1047.71,-406.153"/>
</g>
<!-- 52&#45;&gt;48 -->
<g id="edge50" class="edge"><title>52&#45;&gt;48</title>
<path fill="none" stroke="black" d="M1045.09,-359.697C1045.31,-351.983 1045.58,-342.712 1045.82,-334.112"/>
<polygon fill="black" stroke="black" points="1049.32,-334.2 1046.11,-324.104 1042.32,-334 1049.32,-334.2"/>
</g>
</g>
</svg>
