<?xml version="1.0" encoding="UTF-8" standalone="no"?>
<!DOCTYPE svg PUBLIC "-//W3C//DTD SVG 1.1//EN"
 "http://www.w3.org/Graphics/SVG/1.1/DTD/svg11.dtd">
<!-- Generated by graphviz version 2.38.0 (20140413.2041)
 -->
<!-- Title: %3 Pages: 1 -->
<svg width="700pt" height="836pt"
 viewBox="0.00 0.00 699.69 836.00" xmlns="http://www.w3.org/2000/svg" xmlns:xlink="http://www.w3.org/1999/xlink">
<g id="graph0" class="graph" transform="scale(1 1) rotate(0) translate(4 832)">
<title>%3</title>
<polygon fill="white" stroke="none" points="-4,4 -4,-832 695.692,-832 695.692,4 -4,4"/>
<!-- 0 -->
<g id="node1" class="node"><title>0</title>
<g id="a_node1"><a xlink:title="0, diversity: 1, multiplicities: 10, labels: 1">
<ellipse fill="#c7e9c0" stroke="black" cx="257.096" cy="-666" rx="37.0935" ry="18"/>
<text text-anchor="middle" x="257.096" y="-662.3" font-family="Times,serif" font-size="14.00">0 (1): 1</text>
</a>
</g>
</g>
<!-- 2 -->
<g id="node3" class="node"><title>2</title>
<g id="a_node3"><a xlink:title="2, diversity: 1, multiplicities: 1, labels: 1">
<ellipse fill="#c7e9c0" stroke="black" cx="104.096" cy="-594" rx="37.0935" ry="18"/>
<text text-anchor="middle" x="104.096" y="-590.3" font-family="Times,serif" font-size="14.00">2 (1): 1</text>
</a>
</g>
</g>
<!-- 0&#45;&gt;2 -->
<g id="edge31" class="edge"><title>0&#45;&gt;2</title>
<path fill="none" stroke="black" d="M231.141,-653.125C205.974,-641.611 167.595,-624.052 139.606,-611.246"/>
<polygon fill="black" stroke="black" points="140.727,-607.911 130.177,-606.933 137.815,-614.276 140.727,-607.911"/>
</g>
<!-- 26 -->
<g id="node27" class="node"><title>26</title>
<g id="a_node27"><a xlink:title="26, diversity: 1, multiplicities: 1, labels: 1">
<ellipse fill="#c7e9c0" stroke="black" cx="257.096" cy="-594" rx="41.6928" ry="18"/>
<text text-anchor="middle" x="257.096" y="-590.3" font-family="Times,serif" font-size="14.00">26 (1): 1</text>
</a>
</g>
</g>
<!-- 0&#45;&gt;26 -->
<g id="edge26" class="edge"><title>0&#45;&gt;26</title>
<path fill="none" stroke="black" d="M257.096,-647.697C257.096,-639.983 257.096,-630.712 257.096,-622.112"/>
<polygon fill="black" stroke="black" points="260.596,-622.104 257.096,-612.104 253.596,-622.104 260.596,-622.104"/>
</g>
<!-- 1 -->
<g id="node2" class="node"><title>1</title>
<g id="a_node2"><a xlink:title="1, diversity: 4, multiplicities: 4,8,45,65, labels: 1,0,3">
<ellipse fill="#f7fcf5" stroke="black" cx="397.096" cy="-810" rx="50.8918" ry="18"/>
<text text-anchor="middle" x="397.096" y="-806.3" font-family="Times,serif" font-size="14.00">1 (4): 1,0,3</text>
</a>
</g>
</g>
<!-- 3 -->
<g id="node4" class="node"><title>3</title>
<g id="a_node4"><a xlink:title="3, diversity: 1, multiplicities: 12, labels: 1">
<ellipse fill="#c7e9c0" stroke="black" cx="213.096" cy="-738" rx="37.0935" ry="18"/>
<text text-anchor="middle" x="213.096" y="-734.3" font-family="Times,serif" font-size="14.00">3 (1): 1</text>
</a>
</g>
</g>
<!-- 1&#45;&gt;3 -->
<g id="edge3" class="edge"><title>1&#45;&gt;3</title>
<path fill="none" stroke="black" d="M363.775,-796.324C331.916,-784.203 283.944,-765.953 250.724,-753.315"/>
<polygon fill="black" stroke="black" points="251.938,-750.032 241.347,-749.748 249.449,-756.575 251.938,-750.032"/>
</g>
<!-- 4 -->
<g id="node5" class="node"><title>4</title>
<g id="a_node5"><a xlink:title="4, diversity: 1, multiplicities: 1, labels: 1">
<ellipse fill="#c7e9c0" stroke="black" cx="305.096" cy="-738" rx="37.0935" ry="18"/>
<text text-anchor="middle" x="305.096" y="-734.3" font-family="Times,serif" font-size="14.00">4 (1): 1</text>
</a>
</g>
</g>
<!-- 1&#45;&gt;4 -->
<g id="edge23" class="edge"><title>1&#45;&gt;4</title>
<path fill="none" stroke="black" d="M376.678,-793.465C363.579,-783.498 346.423,-770.444 332.19,-759.615"/>
<polygon fill="black" stroke="black" points="334.278,-756.806 324.2,-753.536 330.039,-762.377 334.278,-756.806"/>
</g>
<!-- 6 -->
<g id="node7" class="node"><title>6</title>
<g id="a_node7"><a xlink:title="6, diversity: 1, multiplicities: 6, labels: 1">
<ellipse fill="#c7e9c0" stroke="black" cx="397.096" cy="-738" rx="37.0935" ry="18"/>
<text text-anchor="middle" x="397.096" y="-734.3" font-family="Times,serif" font-size="14.00">6 (1): 1</text>
</a>
</g>
</g>
<!-- 1&#45;&gt;6 -->
<g id="edge6" class="edge"><title>1&#45;&gt;6</title>
<path fill="none" stroke="black" d="M397.096,-791.697C397.096,-783.983 397.096,-774.712 397.096,-766.112"/>
<polygon fill="black" stroke="black" points="400.596,-766.104 397.096,-756.104 393.596,-766.104 400.596,-766.104"/>
</g>
<!-- 15 -->
<g id="node16" class="node"><title>15</title>
<g id="a_node16"><a xlink:title="15, diversity: 1, multiplicities: 5, labels: 1">
<ellipse fill="#c7e9c0" stroke="black" cx="494.096" cy="-738" rx="41.6928" ry="18"/>
<text text-anchor="middle" x="494.096" y="-734.3" font-family="Times,serif" font-size="14.00">15 (1): 1</text>
</a>
</g>
</g>
<!-- 1&#45;&gt;15 -->
<g id="edge4" class="edge"><title>1&#45;&gt;15</title>
<path fill="none" stroke="black" d="M418.623,-793.465C432.34,-783.566 450.279,-770.621 465.225,-759.835"/>
<polygon fill="black" stroke="black" points="467.564,-762.463 473.625,-753.773 463.467,-756.787 467.564,-762.463"/>
</g>
<!-- 34 -->
<g id="node35" class="node"><title>34</title>
<g id="a_node35"><a xlink:title="34, diversity: 2, multiplicities: 1,1, labels: 1">
<ellipse fill="#c7e9c0" stroke="black" cx="595.096" cy="-738" rx="41.6928" ry="18"/>
<text text-anchor="middle" x="595.096" y="-734.3" font-family="Times,serif" font-size="14.00">34 (2): 1</text>
</a>
</g>
</g>
<!-- 1&#45;&gt;34 -->
<g id="edge1" class="edge"><title>1&#45;&gt;34</title>
<path fill="none" stroke="black" d="M431.585,-796.807C465.715,-784.741 517.963,-766.269 554.174,-753.467"/>
<polygon fill="black" stroke="black" points="555.672,-756.65 563.934,-750.017 553.339,-750.05 555.672,-756.65"/>
</g>
<!-- 5 -->
<g id="node6" class="node"><title>5</title>
<g id="a_node6"><a xlink:title="5, diversity: 1, multiplicities: 1, labels: 1">
<ellipse fill="#c7e9c0" stroke="black" cx="76.0957" cy="-522" rx="37.0935" ry="18"/>
<text text-anchor="middle" x="76.0957" y="-518.3" font-family="Times,serif" font-size="14.00">5 (1): 1</text>
</a>
</g>
</g>
<!-- 2&#45;&gt;5 -->
<g id="edge8" class="edge"><title>2&#45;&gt;5</title>
<path fill="none" stroke="black" d="M97.3177,-576.055C94.0848,-567.973 90.1443,-558.121 86.5404,-549.112"/>
<polygon fill="black" stroke="black" points="89.775,-547.774 82.8113,-539.789 83.2756,-550.374 89.775,-547.774"/>
</g>
<!-- 4&#45;&gt;0 -->
<g id="edge10" class="edge"><title>4&#45;&gt;0</title>
<path fill="none" stroke="black" d="M293.963,-720.765C288.111,-712.23 280.809,-701.582 274.252,-692.019"/>
<polygon fill="black" stroke="black" points="277.043,-689.901 268.501,-683.633 271.27,-693.86 277.043,-689.901"/>
</g>
<!-- 7 -->
<g id="node8" class="node"><title>7</title>
<g id="a_node8"><a xlink:title="7, diversity: 1, multiplicities: 1, labels: 1">
<ellipse fill="#c7e9c0" stroke="black" cx="353.096" cy="-666" rx="37.0935" ry="18"/>
<text text-anchor="middle" x="353.096" y="-662.3" font-family="Times,serif" font-size="14.00">7 (1): 1</text>
</a>
</g>
</g>
<!-- 4&#45;&gt;7 -->
<g id="edge2" class="edge"><title>4&#45;&gt;7</title>
<path fill="none" stroke="black" d="M316.229,-720.765C322.081,-712.23 329.382,-701.582 335.94,-692.019"/>
<polygon fill="black" stroke="black" points="338.921,-693.86 341.69,-683.633 333.148,-689.901 338.921,-693.86"/>
</g>
<!-- 33 -->
<g id="node34" class="node"><title>33</title>
<g id="a_node34"><a xlink:title="33, diversity: 1, multiplicities: 42, labels: 1,0">
<ellipse fill="#f7fcf5" stroke="black" cx="48.0957" cy="-450" rx="48.1917" ry="18"/>
<text text-anchor="middle" x="48.0957" y="-446.3" font-family="Times,serif" font-size="14.00">33 (1): 1,0</text>
</a>
</g>
</g>
<!-- 5&#45;&gt;33 -->
<g id="edge34" class="edge"><title>5&#45;&gt;33</title>
<path fill="none" stroke="black" d="M69.3177,-504.055C66.1662,-496.176 62.3423,-486.617 58.8133,-477.794"/>
<polygon fill="black" stroke="black" points="61.9695,-476.26 55.0059,-468.275 55.4701,-478.86 61.9695,-476.26"/>
</g>
<!-- 28 -->
<g id="node29" class="node"><title>28</title>
<g id="a_node29"><a xlink:title="28, diversity: 1, multiplicities: 2, labels: 1">
<ellipse fill="#c7e9c0" stroke="black" cx="408.096" cy="-594" rx="41.6928" ry="18"/>
<text text-anchor="middle" x="408.096" y="-590.3" font-family="Times,serif" font-size="14.00">28 (1): 1</text>
</a>
</g>
</g>
<!-- 7&#45;&gt;28 -->
<g id="edge17" class="edge"><title>7&#45;&gt;28</title>
<path fill="none" stroke="black" d="M365.852,-648.765C372.794,-639.93 381.515,-628.83 389.228,-619.014"/>
<polygon fill="black" stroke="black" points="391.982,-621.173 395.409,-611.147 386.478,-616.848 391.982,-621.173"/>
</g>
<!-- 8 -->
<g id="node9" class="node"><title>8</title>
<g id="a_node9"><a xlink:title="8, diversity: 1, multiplicities: 15, labels: 1,2">
<ellipse fill="#c7e9c0" stroke="black" cx="549.096" cy="-18" rx="44.393" ry="18"/>
<text text-anchor="middle" x="549.096" y="-14.3" font-family="Times,serif" font-size="14.00">8 (1): 1,2</text>
</a>
</g>
</g>
<!-- 9 -->
<g id="node10" class="node"><title>9</title>
<g id="a_node10"><a xlink:title="9, diversity: 2, multiplicities: 5,78, labels: 1,0,3">
<ellipse fill="#f7fcf5" stroke="black" cx="256.096" cy="-378" rx="50.8918" ry="18"/>
<text text-anchor="middle" x="256.096" y="-374.3" font-family="Times,serif" font-size="14.00">9 (2): 1,0,3</text>
</a>
</g>
</g>
<!-- 12 -->
<g id="node13" class="node"><title>12</title>
<g id="a_node13"><a xlink:title="12, diversity: 1, multiplicities: 6, labels: 1">
<ellipse fill="#c7e9c0" stroke="black" cx="196.096" cy="-306" rx="41.6928" ry="18"/>
<text text-anchor="middle" x="196.096" y="-302.3" font-family="Times,serif" font-size="14.00">12 (1): 1</text>
</a>
</g>
</g>
<!-- 9&#45;&gt;12 -->
<g id="edge33" class="edge"><title>9&#45;&gt;12</title>
<path fill="none" stroke="black" d="M241.877,-360.411C234.404,-351.693 225.106,-340.845 216.845,-331.208"/>
<polygon fill="black" stroke="black" points="219.378,-328.785 210.213,-323.47 214.063,-333.34 219.378,-328.785"/>
</g>
<!-- 20 -->
<g id="node21" class="node"><title>20</title>
<g id="a_node21"><a xlink:title="20, diversity: 1, multiplicities: 1, labels: 1">
<ellipse fill="#c7e9c0" stroke="black" cx="297.096" cy="-306" rx="41.6928" ry="18"/>
<text text-anchor="middle" x="297.096" y="-302.3" font-family="Times,serif" font-size="14.00">20 (1): 1</text>
</a>
</g>
</g>
<!-- 9&#45;&gt;20 -->
<g id="edge20" class="edge"><title>9&#45;&gt;20</title>
<path fill="none" stroke="black" d="M266.021,-360.055C270.855,-351.801 276.771,-341.701 282.138,-332.538"/>
<polygon fill="black" stroke="black" points="285.228,-334.187 287.262,-323.789 279.188,-330.649 285.228,-334.187"/>
</g>
<!-- 10 -->
<g id="node11" class="node"><title>10</title>
<g id="a_node11"><a xlink:title="10, diversity: 1, multiplicities: 3, labels: 1">
<ellipse fill="#c7e9c0" stroke="black" cx="549.096" cy="-234" rx="41.6928" ry="18"/>
<text text-anchor="middle" x="549.096" y="-230.3" font-family="Times,serif" font-size="14.00">10 (1): 1</text>
</a>
</g>
</g>
<!-- 13 -->
<g id="node14" class="node"><title>13</title>
<g id="a_node14"><a xlink:title="13, diversity: 2, multiplicities: 2,7, labels: 1">
<ellipse fill="#c7e9c0" stroke="black" cx="549.096" cy="-162" rx="41.6928" ry="18"/>
<text text-anchor="middle" x="549.096" y="-158.3" font-family="Times,serif" font-size="14.00">13 (2): 1</text>
</a>
</g>
</g>
<!-- 10&#45;&gt;13 -->
<g id="edge21" class="edge"><title>10&#45;&gt;13</title>
<path fill="none" stroke="black" d="M549.096,-215.697C549.096,-207.983 549.096,-198.712 549.096,-190.112"/>
<polygon fill="black" stroke="black" points="552.596,-190.104 549.096,-180.104 545.596,-190.104 552.596,-190.104"/>
</g>
<!-- 11 -->
<g id="node12" class="node"><title>11</title>
<g id="a_node12"><a xlink:title="11, diversity: 1, multiplicities: 5, labels: 1">
<ellipse fill="#c7e9c0" stroke="black" cx="398.096" cy="-306" rx="41.6928" ry="18"/>
<text text-anchor="middle" x="398.096" y="-302.3" font-family="Times,serif" font-size="14.00">11 (1): 1</text>
</a>
</g>
</g>
<!-- 14 -->
<g id="node15" class="node"><title>14</title>
<g id="a_node15"><a xlink:title="14, diversity: 1, multiplicities: 1, labels: 1">
<ellipse fill="#c7e9c0" stroke="black" cx="549.096" cy="-90" rx="41.6928" ry="18"/>
<text text-anchor="middle" x="549.096" y="-86.3" font-family="Times,serif" font-size="14.00">14 (1): 1</text>
</a>
</g>
</g>
<!-- 13&#45;&gt;14 -->
<g id="edge28" class="edge"><title>13&#45;&gt;14</title>
<path fill="none" stroke="black" d="M549.096,-143.697C549.096,-135.983 549.096,-126.712 549.096,-118.112"/>
<polygon fill="black" stroke="black" points="552.596,-118.104 549.096,-108.104 545.596,-118.104 552.596,-118.104"/>
</g>
<!-- 14&#45;&gt;8 -->
<g id="edge35" class="edge"><title>14&#45;&gt;8</title>
<path fill="none" stroke="black" d="M549.096,-71.6966C549.096,-63.9827 549.096,-54.7125 549.096,-46.1124"/>
<polygon fill="black" stroke="black" points="552.596,-46.1043 549.096,-36.1043 545.596,-46.1044 552.596,-46.1043"/>
</g>
<!-- 16 -->
<g id="node17" class="node"><title>16</title>
<g id="a_node17"><a xlink:title="16, diversity: 1, multiplicities: 10, labels: 1">
<ellipse fill="#c7e9c0" stroke="black" cx="95.0957" cy="-306" rx="41.6928" ry="18"/>
<text text-anchor="middle" x="95.0957" y="-302.3" font-family="Times,serif" font-size="14.00">16 (1): 1</text>
</a>
</g>
</g>
<!-- 31 -->
<g id="node32" class="node"><title>31</title>
<g id="a_node32"><a xlink:title="31, diversity: 1, multiplicities: 17, labels: 1,0,3">
<ellipse fill="#f7fcf5" stroke="black" cx="95.0957" cy="-234" rx="55.4913" ry="18"/>
<text text-anchor="middle" x="95.0957" y="-230.3" font-family="Times,serif" font-size="14.00">31 (1): 1,0,3</text>
</a>
</g>
</g>
<!-- 16&#45;&gt;31 -->
<g id="edge27" class="edge"><title>16&#45;&gt;31</title>
<path fill="none" stroke="black" d="M95.0957,-287.697C95.0957,-279.983 95.0957,-270.712 95.0957,-262.112"/>
<polygon fill="black" stroke="black" points="98.5958,-262.104 95.0957,-252.104 91.5958,-262.104 98.5958,-262.104"/>
</g>
<!-- 17 -->
<g id="node18" class="node"><title>17</title>
<g id="a_node18"><a xlink:title="17, diversity: 1, multiplicities: 2, labels: 1">
<ellipse fill="#c7e9c0" stroke="black" cx="105.096" cy="-378" rx="41.6928" ry="18"/>
<text text-anchor="middle" x="105.096" y="-374.3" font-family="Times,serif" font-size="14.00">17 (1): 1</text>
</a>
</g>
</g>
<!-- 17&#45;&gt;16 -->
<g id="edge7" class="edge"><title>17&#45;&gt;16</title>
<path fill="none" stroke="black" d="M102.624,-359.697C101.522,-351.983 100.198,-342.712 98.9689,-334.112"/>
<polygon fill="black" stroke="black" points="102.418,-333.509 97.5392,-324.104 95.4887,-334.499 102.418,-333.509"/>
</g>
<!-- 18 -->
<g id="node19" class="node"><title>18</title>
<g id="a_node19"><a xlink:title="18, diversity: 1, multiplicities: 5, labels: 1">
<ellipse fill="#c7e9c0" stroke="black" cx="650.096" cy="-234" rx="41.6928" ry="18"/>
<text text-anchor="middle" x="650.096" y="-230.3" font-family="Times,serif" font-size="14.00">18 (1): 1</text>
</a>
</g>
</g>
<!-- 19 -->
<g id="node20" class="node"><title>19</title>
<g id="a_node20"><a xlink:title="19, diversity: 1, multiplicities: 1, labels: 1">
<ellipse fill="#c7e9c0" stroke="black" cx="465.096" cy="-450" rx="41.6928" ry="18"/>
<text text-anchor="middle" x="465.096" y="-446.3" font-family="Times,serif" font-size="14.00">19 (1): 1</text>
</a>
</g>
</g>
<!-- 30 -->
<g id="node31" class="node"><title>30</title>
<g id="a_node31"><a xlink:title="30, diversity: 1, multiplicities: 1, labels: 1">
<ellipse fill="#c7e9c0" stroke="black" cx="488.096" cy="-378" rx="41.6928" ry="18"/>
<text text-anchor="middle" x="488.096" y="-374.3" font-family="Times,serif" font-size="14.00">30 (1): 1</text>
</a>
</g>
</g>
<!-- 19&#45;&gt;30 -->
<g id="edge36" class="edge"><title>19&#45;&gt;30</title>
<path fill="none" stroke="black" d="M470.663,-432.055C473.252,-424.176 476.393,-414.617 479.292,-405.794"/>
<polygon fill="black" stroke="black" points="482.623,-406.868 482.42,-396.275 475.973,-404.683 482.623,-406.868"/>
</g>
<!-- 21 -->
<g id="node22" class="node"><title>21</title>
<g id="a_node22"><a xlink:title="21, diversity: 1, multiplicities: 12, labels: 1">
<ellipse fill="#c7e9c0" stroke="black" cx="297.096" cy="-234" rx="41.6928" ry="18"/>
<text text-anchor="middle" x="297.096" y="-230.3" font-family="Times,serif" font-size="14.00">21 (1): 1</text>
</a>
</g>
</g>
<!-- 20&#45;&gt;21 -->
<g id="edge14" class="edge"><title>20&#45;&gt;21</title>
<path fill="none" stroke="black" d="M297.096,-287.697C297.096,-279.983 297.096,-270.712 297.096,-262.112"/>
<polygon fill="black" stroke="black" points="300.596,-262.104 297.096,-252.104 293.596,-262.104 300.596,-262.104"/>
</g>
<!-- 22 -->
<g id="node23" class="node"><title>22</title>
<g id="a_node23"><a xlink:title="22, diversity: 2, multiplicities: 2,30, labels: 1">
<ellipse fill="#c7e9c0" stroke="black" cx="499.096" cy="-306" rx="41.6928" ry="18"/>
<text text-anchor="middle" x="499.096" y="-302.3" font-family="Times,serif" font-size="14.00">22 (2): 1</text>
</a>
</g>
</g>
<!-- 23 -->
<g id="node24" class="node"><title>23</title>
<g id="a_node24"><a xlink:title="23, diversity: 1, multiplicities: 2, labels: 1">
<ellipse fill="#c7e9c0" stroke="black" cx="156.096" cy="-450" rx="41.6928" ry="18"/>
<text text-anchor="middle" x="156.096" y="-446.3" font-family="Times,serif" font-size="14.00">23 (1): 1</text>
</a>
</g>
</g>
<!-- 23&#45;&gt;17 -->
<g id="edge13" class="edge"><title>23&#45;&gt;17</title>
<path fill="none" stroke="black" d="M144.009,-432.411C137.785,-423.868 130.07,-413.278 123.155,-403.787"/>
<polygon fill="black" stroke="black" points="125.813,-401.491 117.095,-395.47 120.155,-405.613 125.813,-401.491"/>
</g>
<!-- 24 -->
<g id="node25" class="node"><title>24</title>
<g id="a_node25"><a xlink:title="24, diversity: 1, multiplicities: 3, labels: 1">
<ellipse fill="#c7e9c0" stroke="black" cx="257.096" cy="-450" rx="41.6928" ry="18"/>
<text text-anchor="middle" x="257.096" y="-446.3" font-family="Times,serif" font-size="14.00">24 (1): 1</text>
</a>
</g>
</g>
<!-- 24&#45;&gt;9 -->
<g id="edge11" class="edge"><title>24&#45;&gt;9</title>
<path fill="none" stroke="black" d="M256.849,-431.697C256.738,-423.983 256.606,-414.712 256.483,-406.112"/>
<polygon fill="black" stroke="black" points="259.983,-406.053 256.34,-396.104 252.983,-406.153 259.983,-406.053"/>
</g>
<!-- 25 -->
<g id="node26" class="node"><title>25</title>
<g id="a_node26"><a xlink:title="25, diversity: 2, multiplicities: 3,3, labels: 1">
<ellipse fill="#c7e9c0" stroke="black" cx="257.096" cy="-522" rx="41.6928" ry="18"/>
<text text-anchor="middle" x="257.096" y="-518.3" font-family="Times,serif" font-size="14.00">25 (2): 1</text>
</a>
</g>
</g>
<!-- 25&#45;&gt;23 -->
<g id="edge5" class="edge"><title>25&#45;&gt;23</title>
<path fill="none" stroke="black" d="M235.676,-506.155C221.117,-496.064 201.665,-482.583 185.637,-471.474"/>
<polygon fill="black" stroke="black" points="187.351,-468.403 177.138,-465.584 183.363,-474.157 187.351,-468.403"/>
</g>
<!-- 25&#45;&gt;24 -->
<g id="edge29" class="edge"><title>25&#45;&gt;24</title>
<path fill="none" stroke="black" d="M257.096,-503.697C257.096,-495.983 257.096,-486.712 257.096,-478.112"/>
<polygon fill="black" stroke="black" points="260.596,-478.104 257.096,-468.104 253.596,-478.104 260.596,-478.104"/>
</g>
<!-- 35 -->
<g id="node36" class="node"><title>35</title>
<g id="a_node36"><a xlink:title="35, diversity: 1, multiplicities: 1, labels: 1">
<ellipse fill="#c7e9c0" stroke="black" cx="362.096" cy="-450" rx="41.6928" ry="18"/>
<text text-anchor="middle" x="362.096" y="-446.3" font-family="Times,serif" font-size="14.00">35 (1): 1</text>
</a>
</g>
</g>
<!-- 25&#45;&gt;35 -->
<g id="edge18" class="edge"><title>25&#45;&gt;35</title>
<path fill="none" stroke="black" d="M278.852,-506.496C294.197,-496.266 314.954,-482.428 331.901,-471.13"/>
<polygon fill="black" stroke="black" points="333.988,-473.945 340.368,-465.485 330.106,-468.12 333.988,-473.945"/>
</g>
<!-- 26&#45;&gt;25 -->
<g id="edge9" class="edge"><title>26&#45;&gt;25</title>
<path fill="none" stroke="black" d="M257.096,-575.697C257.096,-567.983 257.096,-558.712 257.096,-550.112"/>
<polygon fill="black" stroke="black" points="260.596,-550.104 257.096,-540.104 253.596,-550.104 260.596,-550.104"/>
</g>
<!-- 27 -->
<g id="node28" class="node"><title>27</title>
<g id="a_node28"><a xlink:title="27, diversity: 1, multiplicities: 3, labels: 1">
<ellipse fill="#c7e9c0" stroke="black" cx="408.096" cy="-522" rx="41.6928" ry="18"/>
<text text-anchor="middle" x="408.096" y="-518.3" font-family="Times,serif" font-size="14.00">27 (1): 1</text>
</a>
</g>
</g>
<!-- 27&#45;&gt;19 -->
<g id="edge22" class="edge"><title>27&#45;&gt;19</title>
<path fill="none" stroke="black" d="M421.316,-504.765C428.51,-495.93 437.548,-484.83 445.542,-475.014"/>
<polygon fill="black" stroke="black" points="448.347,-477.112 451.947,-467.147 442.919,-472.692 448.347,-477.112"/>
</g>
<!-- 28&#45;&gt;27 -->
<g id="edge16" class="edge"><title>28&#45;&gt;27</title>
<path fill="none" stroke="black" d="M408.096,-575.697C408.096,-567.983 408.096,-558.712 408.096,-550.112"/>
<polygon fill="black" stroke="black" points="411.596,-550.104 408.096,-540.104 404.596,-550.104 411.596,-550.104"/>
</g>
<!-- 29 -->
<g id="node30" class="node"><title>29</title>
<g id="a_node30"><a xlink:title="29, diversity: 1, multiplicities: 2, labels: 1">
<ellipse fill="#c7e9c0" stroke="black" cx="600.096" cy="-306" rx="41.6928" ry="18"/>
<text text-anchor="middle" x="600.096" y="-302.3" font-family="Times,serif" font-size="14.00">29 (1): 1</text>
</a>
</g>
</g>
<!-- 29&#45;&gt;10 -->
<g id="edge30" class="edge"><title>29&#45;&gt;10</title>
<path fill="none" stroke="black" d="M588.009,-288.411C581.785,-279.868 574.07,-269.278 567.155,-259.787"/>
<polygon fill="black" stroke="black" points="569.813,-257.491 561.095,-251.47 564.155,-261.613 569.813,-257.491"/>
</g>
<!-- 29&#45;&gt;18 -->
<g id="edge12" class="edge"><title>29&#45;&gt;18</title>
<path fill="none" stroke="black" d="M611.945,-288.411C618.047,-279.868 625.611,-269.278 632.39,-259.787"/>
<polygon fill="black" stroke="black" points="635.367,-261.642 638.331,-251.47 629.671,-257.573 635.367,-261.642"/>
</g>
<!-- 30&#45;&gt;11 -->
<g id="edge32" class="edge"><title>30&#45;&gt;11</title>
<path fill="none" stroke="black" d="M468.567,-361.811C456.066,-352.088 439.654,-339.323 425.813,-328.558"/>
<polygon fill="black" stroke="black" points="427.629,-325.536 417.586,-322.159 423.331,-331.061 427.629,-325.536"/>
</g>
<!-- 30&#45;&gt;22 -->
<g id="edge25" class="edge"><title>30&#45;&gt;22</title>
<path fill="none" stroke="black" d="M490.815,-359.697C492.027,-351.983 493.484,-342.712 494.835,-334.112"/>
<polygon fill="black" stroke="black" points="498.313,-334.526 496.408,-324.104 491.398,-333.44 498.313,-334.526"/>
</g>
<!-- 30&#45;&gt;29 -->
<g id="edge24" class="edge"><title>30&#45;&gt;29</title>
<path fill="none" stroke="black" d="M510.761,-362.834C527.46,-352.398 550.376,-338.075 568.818,-326.549"/>
<polygon fill="black" stroke="black" points="570.84,-329.413 577.465,-321.144 567.13,-323.477 570.84,-329.413"/>
</g>
<!-- 32 -->
<g id="node33" class="node"><title>32</title>
<g id="a_node33"><a xlink:title="32, diversity: 1, multiplicities: 23, labels: 1">
<ellipse fill="#c7e9c0" stroke="black" cx="595.096" cy="-666" rx="41.6928" ry="18"/>
<text text-anchor="middle" x="595.096" y="-662.3" font-family="Times,serif" font-size="14.00">32 (1): 1</text>
</a>
</g>
</g>
<!-- 34&#45;&gt;32 -->
<g id="edge15" class="edge"><title>34&#45;&gt;32</title>
<path fill="none" stroke="black" d="M595.096,-719.697C595.096,-711.983 595.096,-702.712 595.096,-694.112"/>
<polygon fill="black" stroke="black" points="598.596,-694.104 595.096,-684.104 591.596,-694.104 598.596,-694.104"/>
</g>
<!-- 36 -->
<g id="node37" class="node"><title>36</title>
<g id="a_node37"><a xlink:title="36, diversity: 1, multiplicities: 11, labels: 1">
<ellipse fill="#c7e9c0" stroke="black" cx="366.096" cy="-378" rx="41.6928" ry="18"/>
<text text-anchor="middle" x="366.096" y="-374.3" font-family="Times,serif" font-size="14.00">36 (1): 1</text>
</a>
</g>
</g>
<!-- 35&#45;&gt;36 -->
<g id="edge19" class="edge"><title>35&#45;&gt;36</title>
<path fill="none" stroke="black" d="M363.084,-431.697C363.525,-423.983 364.055,-414.712 364.546,-406.112"/>
<polygon fill="black" stroke="black" points="368.042,-406.288 365.118,-396.104 361.053,-405.888 368.042,-406.288"/>
</g>
</g>
</svg>
