<?xml version="1.0" encoding="UTF-8" standalone="no"?>
<!DOCTYPE svg PUBLIC "-//W3C//DTD SVG 1.1//EN"
 "http://www.w3.org/Graphics/SVG/1.1/DTD/svg11.dtd">
<!-- Generated by graphviz version 2.38.0 (20140413.2041)
 -->
<!-- Title: %3 Pages: 1 -->
<svg width="1516pt" height="980pt"
 viewBox="0.00 0.00 1515.79 980.00" xmlns="http://www.w3.org/2000/svg" xmlns:xlink="http://www.w3.org/1999/xlink">
<g id="graph0" class="graph" transform="scale(1 1) rotate(0) translate(4 976)">
<title>%3</title>
<polygon fill="white" stroke="none" points="-4,4 -4,-976 1511.79,-976 1511.79,4 -4,4"/>
<!-- 0 -->
<g id="node1" class="node"><title>0</title>
<g id="a_node1"><a xlink:title="0, diversity: 1, multiplicities: 15, labels: 1">
<ellipse fill="#c7e9c0" stroke="black" cx="44.1961" cy="-234" rx="37.0935" ry="18"/>
<text text-anchor="middle" x="44.1961" y="-230.3" font-family="Times,serif" font-size="14.00">0 (1): 1</text>
</a>
</g>
</g>
<!-- 1 -->
<g id="node2" class="node"><title>1</title>
<g id="a_node2"><a xlink:title="1, diversity: 2, multiplicities: 9,14, labels: 1">
<ellipse fill="#c7e9c0" stroke="black" cx="93.1961" cy="-522" rx="37.0935" ry="18"/>
<text text-anchor="middle" x="93.1961" y="-518.3" font-family="Times,serif" font-size="14.00">1 (2): 1</text>
</a>
</g>
</g>
<!-- 5 -->
<g id="node6" class="node"><title>5</title>
<g id="a_node6"><a xlink:title="5, diversity: 1, multiplicities: 5, labels: 1">
<ellipse fill="#c7e9c0" stroke="black" cx="93.1961" cy="-450" rx="37.0935" ry="18"/>
<text text-anchor="middle" x="93.1961" y="-446.3" font-family="Times,serif" font-size="14.00">5 (1): 1</text>
</a>
</g>
</g>
<!-- 1&#45;&gt;5 -->
<g id="edge21" class="edge"><title>1&#45;&gt;5</title>
<path fill="none" stroke="black" d="M93.1961,-503.697C93.1961,-495.983 93.1961,-486.712 93.1961,-478.112"/>
<polygon fill="black" stroke="black" points="96.6962,-478.104 93.1961,-468.104 89.6962,-478.104 96.6962,-478.104"/>
</g>
<!-- 2 -->
<g id="node3" class="node"><title>2</title>
<g id="a_node3"><a xlink:title="2, diversity: 3, multiplicities: 7,11,149, labels: 1,0">
<ellipse fill="#f7fcf5" stroke="black" cx="44.1961" cy="-306" rx="44.393" ry="18"/>
<text text-anchor="middle" x="44.1961" y="-302.3" font-family="Times,serif" font-size="14.00">2 (3): 1,0</text>
</a>
</g>
</g>
<!-- 2&#45;&gt;0 -->
<g id="edge58" class="edge"><title>2&#45;&gt;0</title>
<path fill="none" stroke="black" d="M44.1961,-287.697C44.1961,-279.983 44.1961,-270.712 44.1961,-262.112"/>
<polygon fill="black" stroke="black" points="47.6962,-262.104 44.1961,-252.104 40.6962,-262.104 47.6962,-262.104"/>
</g>
<!-- 3 -->
<g id="node4" class="node"><title>3</title>
<g id="a_node4"><a xlink:title="3, diversity: 2, multiplicities: 7,25, labels: 1,3">
<ellipse fill="#c7e9c0" stroke="black" cx="93.1961" cy="-378" rx="44.393" ry="18"/>
<text text-anchor="middle" x="93.1961" y="-374.3" font-family="Times,serif" font-size="14.00">3 (2): 1,3</text>
</a>
</g>
</g>
<!-- 3&#45;&gt;2 -->
<g id="edge36" class="edge"><title>3&#45;&gt;2</title>
<path fill="none" stroke="black" d="M81.5838,-360.411C75.6035,-351.868 68.191,-341.278 61.5472,-331.787"/>
<polygon fill="black" stroke="black" points="64.327,-329.655 55.725,-323.47 58.5924,-333.669 64.327,-329.655"/>
</g>
<!-- 7 -->
<g id="node8" class="node"><title>7</title>
<g id="a_node8"><a xlink:title="7, diversity: 1, multiplicities: 16, labels: 1">
<ellipse fill="#c7e9c0" stroke="black" cx="143.196" cy="-306" rx="37.0935" ry="18"/>
<text text-anchor="middle" x="143.196" y="-302.3" font-family="Times,serif" font-size="14.00">7 (1): 1</text>
</a>
</g>
</g>
<!-- 3&#45;&gt;7 -->
<g id="edge14" class="edge"><title>3&#45;&gt;7</title>
<path fill="none" stroke="black" d="M105.045,-360.411C111.148,-351.868 118.711,-341.278 125.491,-331.787"/>
<polygon fill="black" stroke="black" points="128.467,-333.642 131.432,-323.47 122.771,-329.573 128.467,-333.642"/>
</g>
<!-- 4 -->
<g id="node5" class="node"><title>4</title>
<g id="a_node5"><a xlink:title="4, diversity: 1, multiplicities: 2, labels: 1">
<ellipse fill="#c7e9c0" stroke="black" cx="93.1961" cy="-594" rx="37.0935" ry="18"/>
<text text-anchor="middle" x="93.1961" y="-590.3" font-family="Times,serif" font-size="14.00">4 (1): 1</text>
</a>
</g>
</g>
<!-- 4&#45;&gt;1 -->
<g id="edge32" class="edge"><title>4&#45;&gt;1</title>
<path fill="none" stroke="black" d="M93.1961,-575.697C93.1961,-567.983 93.1961,-558.712 93.1961,-550.112"/>
<polygon fill="black" stroke="black" points="96.6962,-550.104 93.1961,-540.104 89.6962,-550.104 96.6962,-550.104"/>
</g>
<!-- 5&#45;&gt;3 -->
<g id="edge49" class="edge"><title>5&#45;&gt;3</title>
<path fill="none" stroke="black" d="M93.1961,-431.697C93.1961,-423.983 93.1961,-414.712 93.1961,-406.112"/>
<polygon fill="black" stroke="black" points="96.6962,-406.104 93.1961,-396.104 89.6962,-406.104 96.6962,-406.104"/>
</g>
<!-- 6 -->
<g id="node7" class="node"><title>6</title>
<g id="a_node7"><a xlink:title="6, diversity: 1, multiplicities: 5, labels: 1">
<ellipse fill="#c7e9c0" stroke="black" cx="1374.2" cy="-90" rx="37.0935" ry="18"/>
<text text-anchor="middle" x="1374.2" y="-86.3" font-family="Times,serif" font-size="14.00">6 (1): 1</text>
</a>
</g>
</g>
<!-- 8 -->
<g id="node9" class="node"><title>8</title>
<g id="a_node9"><a xlink:title="8, diversity: 1, multiplicities: 2, labels: 1">
<ellipse fill="#c7e9c0" stroke="black" cx="1466.2" cy="-90" rx="37.0935" ry="18"/>
<text text-anchor="middle" x="1466.2" y="-86.3" font-family="Times,serif" font-size="14.00">8 (1): 1</text>
</a>
</g>
</g>
<!-- 10 -->
<g id="node11" class="node"><title>10</title>
<g id="a_node11"><a xlink:title="10, diversity: 1, multiplicities: 5, labels: 1">
<ellipse fill="#c7e9c0" stroke="black" cx="1466.2" cy="-18" rx="41.6928" ry="18"/>
<text text-anchor="middle" x="1466.2" y="-14.3" font-family="Times,serif" font-size="14.00">10 (1): 1</text>
</a>
</g>
</g>
<!-- 8&#45;&gt;10 -->
<g id="edge24" class="edge"><title>8&#45;&gt;10</title>
<path fill="none" stroke="black" d="M1466.2,-71.6966C1466.2,-63.9827 1466.2,-54.7125 1466.2,-46.1124"/>
<polygon fill="black" stroke="black" points="1469.7,-46.1043 1466.2,-36.1043 1462.7,-46.1044 1469.7,-46.1043"/>
</g>
<!-- 9 -->
<g id="node10" class="node"><title>9</title>
<g id="a_node10"><a xlink:title="9, diversity: 1, multiplicities: 1, labels: 1">
<ellipse fill="#c7e9c0" stroke="black" cx="1420.2" cy="-162" rx="37.0935" ry="18"/>
<text text-anchor="middle" x="1420.2" y="-158.3" font-family="Times,serif" font-size="14.00">9 (1): 1</text>
</a>
</g>
</g>
<!-- 9&#45;&gt;6 -->
<g id="edge47" class="edge"><title>9&#45;&gt;6</title>
<path fill="none" stroke="black" d="M1409.29,-144.411C1403.74,-135.955 1396.86,-125.494 1390.68,-116.078"/>
<polygon fill="black" stroke="black" points="1393.44,-113.905 1385.02,-107.47 1387.59,-117.749 1393.44,-113.905"/>
</g>
<!-- 9&#45;&gt;8 -->
<g id="edge5" class="edge"><title>9&#45;&gt;8</title>
<path fill="none" stroke="black" d="M1431.1,-144.411C1436.65,-135.955 1443.53,-125.494 1449.72,-116.078"/>
<polygon fill="black" stroke="black" points="1452.81,-117.749 1455.37,-107.47 1446.96,-113.905 1452.81,-117.749"/>
</g>
<!-- 11 -->
<g id="node12" class="node"><title>11</title>
<g id="a_node12"><a xlink:title="11, diversity: 1, multiplicities: 35, labels: 1">
<ellipse fill="#c7e9c0" stroke="black" cx="911.196" cy="-522" rx="41.6928" ry="18"/>
<text text-anchor="middle" x="911.196" y="-518.3" font-family="Times,serif" font-size="14.00">11 (1): 1</text>
</a>
</g>
</g>
<!-- 12 -->
<g id="node13" class="node"><title>12</title>
<g id="a_node13"><a xlink:title="12, diversity: 1, multiplicities: 7, labels: 1">
<ellipse fill="#c7e9c0" stroke="black" cx="835.196" cy="-450" rx="41.6928" ry="18"/>
<text text-anchor="middle" x="835.196" y="-446.3" font-family="Times,serif" font-size="14.00">12 (1): 1</text>
</a>
</g>
</g>
<!-- 11&#45;&gt;12 -->
<g id="edge23" class="edge"><title>11&#45;&gt;12</title>
<path fill="none" stroke="black" d="M894.329,-505.465C884.096,-496.04 870.865,-483.853 859.514,-473.398"/>
<polygon fill="black" stroke="black" points="861.742,-470.692 852.016,-466.492 857,-475.841 861.742,-470.692"/>
</g>
<!-- 46 -->
<g id="node47" class="node"><title>46</title>
<g id="a_node47"><a xlink:title="46, diversity: 1, multiplicities: 4, labels: 1">
<ellipse fill="#c7e9c0" stroke="black" cx="936.196" cy="-450" rx="41.6928" ry="18"/>
<text text-anchor="middle" x="936.196" y="-446.3" font-family="Times,serif" font-size="14.00">46 (1): 1</text>
</a>
</g>
</g>
<!-- 11&#45;&gt;46 -->
<g id="edge29" class="edge"><title>11&#45;&gt;46</title>
<path fill="none" stroke="black" d="M917.248,-504.055C920.062,-496.176 923.476,-486.617 926.627,-477.794"/>
<polygon fill="black" stroke="black" points="929.959,-478.87 930.026,-468.275 923.367,-476.516 929.959,-478.87"/>
</g>
<!-- 13 -->
<g id="node14" class="node"><title>13</title>
<g id="a_node14"><a xlink:title="13, diversity: 1, multiplicities: 6, labels: 1">
<ellipse fill="#c7e9c0" stroke="black" cx="911.196" cy="-666" rx="41.6928" ry="18"/>
<text text-anchor="middle" x="911.196" y="-662.3" font-family="Times,serif" font-size="14.00">13 (1): 1</text>
</a>
</g>
</g>
<!-- 15 -->
<g id="node16" class="node"><title>15</title>
<g id="a_node16"><a xlink:title="15, diversity: 1, multiplicities: 3, labels: 1">
<ellipse fill="#c7e9c0" stroke="black" cx="709.196" cy="-594" rx="41.6928" ry="18"/>
<text text-anchor="middle" x="709.196" y="-590.3" font-family="Times,serif" font-size="14.00">15 (1): 1</text>
</a>
</g>
</g>
<!-- 13&#45;&gt;15 -->
<g id="edge40" class="edge"><title>13&#45;&gt;15</title>
<path fill="none" stroke="black" d="M879.634,-654.062C844.798,-641.991 788.601,-622.517 750.337,-609.257"/>
<polygon fill="black" stroke="black" points="751.132,-605.828 740.537,-605.861 748.84,-612.442 751.132,-605.828"/>
</g>
<!-- 20 -->
<g id="node21" class="node"><title>20</title>
<g id="a_node21"><a xlink:title="20, diversity: 1, multiplicities: 5, labels: 1">
<ellipse fill="#c7e9c0" stroke="black" cx="810.196" cy="-594" rx="41.6928" ry="18"/>
<text text-anchor="middle" x="810.196" y="-590.3" font-family="Times,serif" font-size="14.00">20 (1): 1</text>
</a>
</g>
</g>
<!-- 13&#45;&gt;20 -->
<g id="edge30" class="edge"><title>13&#45;&gt;20</title>
<path fill="none" stroke="black" d="M889.777,-650.155C875.217,-640.064 855.765,-626.583 839.738,-615.474"/>
<polygon fill="black" stroke="black" points="841.451,-612.403 831.238,-609.584 837.464,-618.157 841.451,-612.403"/>
</g>
<!-- 22 -->
<g id="node23" class="node"><title>22</title>
<g id="a_node23"><a xlink:title="22, diversity: 1, multiplicities: 2, labels: 1">
<ellipse fill="#c7e9c0" stroke="black" cx="911.196" cy="-594" rx="41.6928" ry="18"/>
<text text-anchor="middle" x="911.196" y="-590.3" font-family="Times,serif" font-size="14.00">22 (1): 1</text>
</a>
</g>
</g>
<!-- 13&#45;&gt;22 -->
<g id="edge1" class="edge"><title>13&#45;&gt;22</title>
<path fill="none" stroke="black" d="M911.196,-647.697C911.196,-639.983 911.196,-630.712 911.196,-622.112"/>
<polygon fill="black" stroke="black" points="914.696,-622.104 911.196,-612.104 907.696,-622.104 914.696,-622.104"/>
</g>
<!-- 37 -->
<g id="node38" class="node"><title>37</title>
<g id="a_node38"><a xlink:title="37, diversity: 1, multiplicities: 14, labels: 1">
<ellipse fill="#c7e9c0" stroke="black" cx="1012.2" cy="-594" rx="41.6928" ry="18"/>
<text text-anchor="middle" x="1012.2" y="-590.3" font-family="Times,serif" font-size="14.00">37 (1): 1</text>
</a>
</g>
</g>
<!-- 13&#45;&gt;37 -->
<g id="edge7" class="edge"><title>13&#45;&gt;37</title>
<path fill="none" stroke="black" d="M932.616,-650.155C947.175,-640.064 966.627,-626.583 982.655,-615.474"/>
<polygon fill="black" stroke="black" points="984.929,-618.157 991.154,-609.584 980.941,-612.403 984.929,-618.157"/>
</g>
<!-- 49 -->
<g id="node50" class="node"><title>49</title>
<g id="a_node50"><a xlink:title="49, diversity: 1, multiplicities: 2, labels: 1">
<ellipse fill="#c7e9c0" stroke="black" cx="1113.2" cy="-594" rx="41.6928" ry="18"/>
<text text-anchor="middle" x="1113.2" y="-590.3" font-family="Times,serif" font-size="14.00">49 (1): 1</text>
</a>
</g>
</g>
<!-- 13&#45;&gt;49 -->
<g id="edge25" class="edge"><title>13&#45;&gt;49</title>
<path fill="none" stroke="black" d="M942.759,-654.062C977.595,-641.991 1033.79,-622.517 1072.05,-609.257"/>
<polygon fill="black" stroke="black" points="1073.55,-612.442 1081.86,-605.861 1071.26,-605.828 1073.55,-612.442"/>
</g>
<!-- 63 -->
<g id="node64" class="node"><title>63</title>
<g id="a_node64"><a xlink:title="63, diversity: 1, multiplicities: 1, labels: 1">
<ellipse fill="#c7e9c0" stroke="black" cx="1214.2" cy="-594" rx="41.6928" ry="18"/>
<text text-anchor="middle" x="1214.2" y="-590.3" font-family="Times,serif" font-size="14.00">63 (1): 1</text>
</a>
</g>
</g>
<!-- 13&#45;&gt;63 -->
<g id="edge16" class="edge"><title>13&#45;&gt;63</title>
<path fill="none" stroke="black" d="M949.258,-658.514C999.067,-649.689 1088.88,-632.611 1164.2,-612 1167.19,-611.179 1170.28,-610.278 1173.37,-609.332"/>
<polygon fill="black" stroke="black" points="1174.71,-612.576 1183.17,-606.199 1172.58,-605.908 1174.71,-612.576"/>
</g>
<!-- 14 -->
<g id="node15" class="node"><title>14</title>
<g id="a_node15"><a xlink:title="14, diversity: 1, multiplicities: 17, labels: 1">
<ellipse fill="#c7e9c0" stroke="black" cx="708.196" cy="-954" rx="41.6928" ry="18"/>
<text text-anchor="middle" x="708.196" y="-950.3" font-family="Times,serif" font-size="14.00">14 (1): 1</text>
</a>
</g>
</g>
<!-- 21 -->
<g id="node22" class="node"><title>21</title>
<g id="a_node22"><a xlink:title="21, diversity: 1, multiplicities: 11, labels: 1">
<ellipse fill="#c7e9c0" stroke="black" cx="708.196" cy="-882" rx="41.6928" ry="18"/>
<text text-anchor="middle" x="708.196" y="-878.3" font-family="Times,serif" font-size="14.00">21 (1): 1</text>
</a>
</g>
</g>
<!-- 14&#45;&gt;21 -->
<g id="edge61" class="edge"><title>14&#45;&gt;21</title>
<path fill="none" stroke="black" d="M708.196,-935.697C708.196,-927.983 708.196,-918.712 708.196,-910.112"/>
<polygon fill="black" stroke="black" points="711.696,-910.104 708.196,-900.104 704.696,-910.104 711.696,-910.104"/>
</g>
<!-- 56 -->
<g id="node57" class="node"><title>56</title>
<g id="a_node57"><a xlink:title="56, diversity: 1, multiplicities: 5, labels: 1">
<ellipse fill="#c7e9c0" stroke="black" cx="709.196" cy="-522" rx="41.6928" ry="18"/>
<text text-anchor="middle" x="709.196" y="-518.3" font-family="Times,serif" font-size="14.00">56 (1): 1</text>
</a>
</g>
</g>
<!-- 15&#45;&gt;56 -->
<g id="edge38" class="edge"><title>15&#45;&gt;56</title>
<path fill="none" stroke="black" d="M709.196,-575.697C709.196,-567.983 709.196,-558.712 709.196,-550.112"/>
<polygon fill="black" stroke="black" points="712.696,-550.104 709.196,-540.104 705.696,-550.104 712.696,-550.104"/>
</g>
<!-- 16 -->
<g id="node17" class="node"><title>16</title>
<g id="a_node17"><a xlink:title="16, diversity: 1, multiplicities: 1, labels: 1">
<ellipse fill="#c7e9c0" stroke="black" cx="352.196" cy="-738" rx="41.6928" ry="18"/>
<text text-anchor="middle" x="352.196" y="-734.3" font-family="Times,serif" font-size="14.00">16 (1): 1</text>
</a>
</g>
</g>
<!-- 50 -->
<g id="node51" class="node"><title>50</title>
<g id="a_node51"><a xlink:title="50, diversity: 1, multiplicities: 5, labels: 1">
<ellipse fill="#c7e9c0" stroke="black" cx="298.196" cy="-666" rx="41.6928" ry="18"/>
<text text-anchor="middle" x="298.196" y="-662.3" font-family="Times,serif" font-size="14.00">50 (1): 1</text>
</a>
</g>
</g>
<!-- 16&#45;&gt;50 -->
<g id="edge17" class="edge"><title>16&#45;&gt;50</title>
<path fill="none" stroke="black" d="M339.672,-720.765C333.021,-712.143 324.706,-701.365 317.271,-691.727"/>
<polygon fill="black" stroke="black" points="319.907,-689.413 311.028,-683.633 314.364,-693.689 319.907,-689.413"/>
</g>
<!-- 17 -->
<g id="node18" class="node"><title>17</title>
<g id="a_node18"><a xlink:title="17, diversity: 1, multiplicities: 5, labels: 1">
<ellipse fill="#c7e9c0" stroke="black" cx="658.196" cy="-810" rx="41.6928" ry="18"/>
<text text-anchor="middle" x="658.196" y="-806.3" font-family="Times,serif" font-size="14.00">17 (1): 1</text>
</a>
</g>
</g>
<!-- 17&#45;&gt;16 -->
<g id="edge15" class="edge"><title>17&#45;&gt;16</title>
<path fill="none" stroke="black" d="M622.194,-800.764C566.373,-787.995 459.013,-763.435 397.833,-749.44"/>
<polygon fill="black" stroke="black" points="398.59,-746.023 388.061,-747.204 397.029,-752.846 398.59,-746.023"/>
</g>
<!-- 36 -->
<g id="node37" class="node"><title>36</title>
<g id="a_node37"><a xlink:title="36, diversity: 1, multiplicities: 11, labels: 1">
<ellipse fill="#c7e9c0" stroke="black" cx="507.196" cy="-738" rx="41.6928" ry="18"/>
<text text-anchor="middle" x="507.196" y="-734.3" font-family="Times,serif" font-size="14.00">36 (1): 1</text>
</a>
</g>
</g>
<!-- 17&#45;&gt;36 -->
<g id="edge34" class="edge"><title>17&#45;&gt;36</title>
<path fill="none" stroke="black" d="M630.851,-796.324C606.447,-785.01 570.523,-768.357 543.676,-755.911"/>
<polygon fill="black" stroke="black" points="545.137,-752.731 534.592,-751.7 542.193,-759.082 545.137,-752.731"/>
</g>
<!-- 42 -->
<g id="node43" class="node"><title>42</title>
<g id="a_node43"><a xlink:title="42, diversity: 1, multiplicities: 1, labels: 1">
<ellipse fill="#c7e9c0" stroke="black" cx="608.196" cy="-738" rx="41.6928" ry="18"/>
<text text-anchor="middle" x="608.196" y="-734.3" font-family="Times,serif" font-size="14.00">42 (1): 1</text>
</a>
</g>
</g>
<!-- 17&#45;&gt;42 -->
<g id="edge22" class="edge"><title>17&#45;&gt;42</title>
<path fill="none" stroke="black" d="M646.347,-792.411C640.244,-783.868 632.681,-773.278 625.901,-763.787"/>
<polygon fill="black" stroke="black" points="628.621,-761.573 619.96,-755.47 622.925,-765.642 628.621,-761.573"/>
</g>
<!-- 58 -->
<g id="node59" class="node"><title>58</title>
<g id="a_node59"><a xlink:title="58, diversity: 1, multiplicities: 1, labels: 1">
<ellipse fill="#c7e9c0" stroke="black" cx="709.196" cy="-738" rx="41.6928" ry="18"/>
<text text-anchor="middle" x="709.196" y="-734.3" font-family="Times,serif" font-size="14.00">58 (1): 1</text>
</a>
</g>
</g>
<!-- 17&#45;&gt;58 -->
<g id="edge45" class="edge"><title>17&#45;&gt;58</title>
<path fill="none" stroke="black" d="M670.282,-792.411C676.507,-783.868 684.222,-773.278 691.137,-763.787"/>
<polygon fill="black" stroke="black" points="694.137,-765.613 697.197,-755.47 688.479,-761.491 694.137,-765.613"/>
</g>
<!-- 59 -->
<g id="node60" class="node"><title>59</title>
<g id="a_node60"><a xlink:title="59, diversity: 2, multiplicities: 1,9, labels: 1">
<ellipse fill="#c7e9c0" stroke="black" cx="861.196" cy="-738" rx="41.6928" ry="18"/>
<text text-anchor="middle" x="861.196" y="-734.3" font-family="Times,serif" font-size="14.00">59 (2): 1</text>
</a>
</g>
</g>
<!-- 17&#45;&gt;59 -->
<g id="edge31" class="edge"><title>17&#45;&gt;59</title>
<path fill="none" stroke="black" d="M689.915,-798.062C724.923,-785.991 781.398,-766.517 819.851,-753.257"/>
<polygon fill="black" stroke="black" points="821.387,-756.429 829.7,-749.861 819.105,-749.812 821.387,-756.429"/>
</g>
<!-- 18 -->
<g id="node19" class="node"><title>18</title>
<g id="a_node19"><a xlink:title="18, diversity: 1, multiplicities: 2, labels: 1">
<ellipse fill="#c7e9c0" stroke="black" cx="1163.2" cy="-738" rx="41.6928" ry="18"/>
<text text-anchor="middle" x="1163.2" y="-734.3" font-family="Times,serif" font-size="14.00">18 (1): 1</text>
</a>
</g>
</g>
<!-- 35 -->
<g id="node36" class="node"><title>35</title>
<g id="a_node36"><a xlink:title="35, diversity: 2, multiplicities: 2,17, labels: 1">
<ellipse fill="#c7e9c0" stroke="black" cx="1163.2" cy="-666" rx="41.6928" ry="18"/>
<text text-anchor="middle" x="1163.2" y="-662.3" font-family="Times,serif" font-size="14.00">35 (2): 1</text>
</a>
</g>
</g>
<!-- 18&#45;&gt;35 -->
<g id="edge57" class="edge"><title>18&#45;&gt;35</title>
<path fill="none" stroke="black" d="M1163.2,-719.697C1163.2,-711.983 1163.2,-702.712 1163.2,-694.112"/>
<polygon fill="black" stroke="black" points="1166.7,-694.104 1163.2,-684.104 1159.7,-694.104 1166.7,-694.104"/>
</g>
<!-- 19 -->
<g id="node20" class="node"><title>19</title>
<g id="a_node20"><a xlink:title="19, diversity: 1, multiplicities: 6, labels: 1">
<ellipse fill="#c7e9c0" stroke="black" cx="910.196" cy="-810" rx="41.6928" ry="18"/>
<text text-anchor="middle" x="910.196" y="-806.3" font-family="Times,serif" font-size="14.00">19 (1): 1</text>
</a>
</g>
</g>
<!-- 19&#45;&gt;18 -->
<g id="edge19" class="edge"><title>19&#45;&gt;18</title>
<path fill="none" stroke="black" d="M944.317,-799.559C989.618,-787.026 1069.67,-764.876 1119.39,-751.12"/>
<polygon fill="black" stroke="black" points="1120.51,-754.442 1129.21,-748.402 1118.64,-747.696 1120.51,-754.442"/>
</g>
<!-- 21&#45;&gt;17 -->
<g id="edge62" class="edge"><title>21&#45;&gt;17</title>
<path fill="none" stroke="black" d="M696.347,-864.411C690.244,-855.868 682.681,-845.278 675.901,-835.787"/>
<polygon fill="black" stroke="black" points="678.621,-833.573 669.96,-827.47 672.925,-837.642 678.621,-833.573"/>
</g>
<!-- 21&#45;&gt;19 -->
<g id="edge35" class="edge"><title>21&#45;&gt;19</title>
<path fill="none" stroke="black" d="M739.759,-870.062C774.595,-857.991 830.791,-838.517 869.055,-825.257"/>
<polygon fill="black" stroke="black" points="870.552,-828.442 878.855,-821.861 868.26,-821.828 870.552,-828.442"/>
</g>
<!-- 22&#45;&gt;11 -->
<g id="edge9" class="edge"><title>22&#45;&gt;11</title>
<path fill="none" stroke="black" d="M911.196,-575.697C911.196,-567.983 911.196,-558.712 911.196,-550.112"/>
<polygon fill="black" stroke="black" points="914.696,-550.104 911.196,-540.104 907.696,-550.104 914.696,-550.104"/>
</g>
<!-- 23 -->
<g id="node24" class="node"><title>23</title>
<g id="a_node24"><a xlink:title="23, diversity: 1, multiplicities: 29, labels: 1">
<ellipse fill="#c7e9c0" stroke="black" cx="1357.2" cy="-522" rx="41.6928" ry="18"/>
<text text-anchor="middle" x="1357.2" y="-518.3" font-family="Times,serif" font-size="14.00">23 (1): 1</text>
</a>
</g>
</g>
<!-- 26 -->
<g id="node27" class="node"><title>26</title>
<g id="a_node27"><a xlink:title="26, diversity: 1, multiplicities: 1, labels: 1">
<ellipse fill="#c7e9c0" stroke="black" cx="1394.2" cy="-450" rx="41.6928" ry="18"/>
<text text-anchor="middle" x="1394.2" y="-446.3" font-family="Times,serif" font-size="14.00">26 (1): 1</text>
</a>
</g>
</g>
<!-- 23&#45;&gt;26 -->
<g id="edge12" class="edge"><title>23&#45;&gt;26</title>
<path fill="none" stroke="black" d="M1366.15,-504.055C1370.47,-495.887 1375.74,-485.912 1380.55,-476.824"/>
<polygon fill="black" stroke="black" points="1383.74,-478.266 1385.32,-467.789 1377.55,-474.994 1383.74,-478.266"/>
</g>
<!-- 24 -->
<g id="node25" class="node"><title>24</title>
<g id="a_node25"><a xlink:title="24, diversity: 1, multiplicities: 1, labels: 1">
<ellipse fill="#c7e9c0" stroke="black" cx="1420.2" cy="-306" rx="41.6928" ry="18"/>
<text text-anchor="middle" x="1420.2" y="-302.3" font-family="Times,serif" font-size="14.00">24 (1): 1</text>
</a>
</g>
</g>
<!-- 33 -->
<g id="node34" class="node"><title>33</title>
<g id="a_node34"><a xlink:title="33, diversity: 1, multiplicities: 2, labels: 1">
<ellipse fill="#c7e9c0" stroke="black" cx="1420.2" cy="-234" rx="41.6928" ry="18"/>
<text text-anchor="middle" x="1420.2" y="-230.3" font-family="Times,serif" font-size="14.00">33 (1): 1</text>
</a>
</g>
</g>
<!-- 24&#45;&gt;33 -->
<g id="edge13" class="edge"><title>24&#45;&gt;33</title>
<path fill="none" stroke="black" d="M1420.2,-287.697C1420.2,-279.983 1420.2,-270.712 1420.2,-262.112"/>
<polygon fill="black" stroke="black" points="1423.7,-262.104 1420.2,-252.104 1416.7,-262.104 1423.7,-262.104"/>
</g>
<!-- 25 -->
<g id="node26" class="node"><title>25</title>
<g id="a_node26"><a xlink:title="25, diversity: 1, multiplicities: 2, labels: 1">
<ellipse fill="#c7e9c0" stroke="black" cx="1401.2" cy="-378" rx="41.6928" ry="18"/>
<text text-anchor="middle" x="1401.2" y="-374.3" font-family="Times,serif" font-size="14.00">25 (1): 1</text>
</a>
</g>
</g>
<!-- 25&#45;&gt;24 -->
<g id="edge54" class="edge"><title>25&#45;&gt;24</title>
<path fill="none" stroke="black" d="M1405.8,-360.055C1407.91,-352.261 1410.47,-342.822 1412.85,-334.079"/>
<polygon fill="black" stroke="black" points="1416.27,-334.843 1415.51,-324.275 1409.51,-333.009 1416.27,-334.843"/>
</g>
<!-- 26&#45;&gt;25 -->
<g id="edge18" class="edge"><title>26&#45;&gt;25</title>
<path fill="none" stroke="black" d="M1395.93,-431.697C1396.7,-423.983 1397.62,-414.712 1398.48,-406.112"/>
<polygon fill="black" stroke="black" points="1401.97,-406.403 1399.49,-396.104 1395.01,-405.706 1401.97,-406.403"/>
</g>
<!-- 27 -->
<g id="node28" class="node"><title>27</title>
<g id="a_node28"><a xlink:title="27, diversity: 1, multiplicities: 13, labels: 1,3">
<ellipse fill="#c7e9c0" stroke="black" cx="1117.2" cy="-234" rx="48.1917" ry="18"/>
<text text-anchor="middle" x="1117.2" y="-230.3" font-family="Times,serif" font-size="14.00">27 (1): 1,3</text>
</a>
</g>
</g>
<!-- 28 -->
<g id="node29" class="node"><title>28</title>
<g id="a_node29"><a xlink:title="28, diversity: 1, multiplicities: 7, labels: 1">
<ellipse fill="#c7e9c0" stroke="black" cx="1218.2" cy="-306" rx="41.6928" ry="18"/>
<text text-anchor="middle" x="1218.2" y="-302.3" font-family="Times,serif" font-size="14.00">28 (1): 1</text>
</a>
</g>
</g>
<!-- 29 -->
<g id="node30" class="node"><title>29</title>
<g id="a_node30"><a xlink:title="29, diversity: 1, multiplicities: 23, labels: 1">
<ellipse fill="#c7e9c0" stroke="black" cx="1214.2" cy="-522" rx="41.6928" ry="18"/>
<text text-anchor="middle" x="1214.2" y="-518.3" font-family="Times,serif" font-size="14.00">29 (1): 1</text>
</a>
</g>
</g>
<!-- 32 -->
<g id="node33" class="node"><title>32</title>
<g id="a_node33"><a xlink:title="32, diversity: 1, multiplicities: 1, labels: 1">
<ellipse fill="#c7e9c0" stroke="black" cx="1184.2" cy="-450" rx="41.6928" ry="18"/>
<text text-anchor="middle" x="1184.2" y="-446.3" font-family="Times,serif" font-size="14.00">32 (1): 1</text>
</a>
</g>
</g>
<!-- 29&#45;&gt;32 -->
<g id="edge55" class="edge"><title>29&#45;&gt;32</title>
<path fill="none" stroke="black" d="M1206.93,-504.055C1203.47,-495.973 1199.25,-486.121 1195.39,-477.112"/>
<polygon fill="black" stroke="black" points="1198.55,-475.602 1191.39,-467.789 1192.11,-478.359 1198.55,-475.602"/>
</g>
<!-- 34 -->
<g id="node35" class="node"><title>34</title>
<g id="a_node35"><a xlink:title="34, diversity: 1, multiplicities: 1, labels: 1">
<ellipse fill="#c7e9c0" stroke="black" cx="1285.2" cy="-450" rx="41.6928" ry="18"/>
<text text-anchor="middle" x="1285.2" y="-446.3" font-family="Times,serif" font-size="14.00">34 (1): 1</text>
</a>
</g>
</g>
<!-- 29&#45;&gt;34 -->
<g id="edge27" class="edge"><title>29&#45;&gt;34</title>
<path fill="none" stroke="black" d="M1230.31,-505.116C1239.66,-495.897 1251.6,-484.127 1261.95,-473.919"/>
<polygon fill="black" stroke="black" points="1264.49,-476.334 1269.15,-466.821 1259.57,-471.35 1264.49,-476.334"/>
</g>
<!-- 30 -->
<g id="node31" class="node"><title>30</title>
<g id="a_node31"><a xlink:title="30, diversity: 1, multiplicities: 43, labels: 1">
<ellipse fill="#c7e9c0" stroke="black" cx="1285.2" cy="-378" rx="41.6928" ry="18"/>
<text text-anchor="middle" x="1285.2" y="-374.3" font-family="Times,serif" font-size="14.00">30 (1): 1</text>
</a>
</g>
</g>
<!-- 30&#45;&gt;28 -->
<g id="edge2" class="edge"><title>30&#45;&gt;28</title>
<path fill="none" stroke="black" d="M1269.99,-361.116C1261.26,-351.987 1250.12,-340.355 1240.42,-330.217"/>
<polygon fill="black" stroke="black" points="1242.78,-327.625 1233.34,-322.821 1237.73,-332.466 1242.78,-327.625"/>
</g>
<!-- 39 -->
<g id="node40" class="node"><title>39</title>
<g id="a_node40"><a xlink:title="39, diversity: 1, multiplicities: 14, labels: 1">
<ellipse fill="#c7e9c0" stroke="black" cx="1319.2" cy="-306" rx="41.6928" ry="18"/>
<text text-anchor="middle" x="1319.2" y="-302.3" font-family="Times,serif" font-size="14.00">39 (1): 1</text>
</a>
</g>
</g>
<!-- 30&#45;&gt;39 -->
<g id="edge11" class="edge"><title>30&#45;&gt;39</title>
<path fill="none" stroke="black" d="M1293.43,-360.055C1297.39,-351.887 1302.24,-341.912 1306.65,-332.824"/>
<polygon fill="black" stroke="black" points="1309.82,-334.313 1311.04,-323.789 1303.52,-331.255 1309.82,-334.313"/>
</g>
<!-- 31 -->
<g id="node32" class="node"><title>31</title>
<g id="a_node32"><a xlink:title="31, diversity: 1, multiplicities: 2, labels: 1">
<ellipse fill="#c7e9c0" stroke="black" cx="1134.2" cy="-378" rx="41.6928" ry="18"/>
<text text-anchor="middle" x="1134.2" y="-374.3" font-family="Times,serif" font-size="14.00">31 (1): 1</text>
</a>
</g>
</g>
<!-- 48 -->
<g id="node49" class="node"><title>48</title>
<g id="a_node49"><a xlink:title="48, diversity: 1, multiplicities: 1, labels: 1">
<ellipse fill="#c7e9c0" stroke="black" cx="1117.2" cy="-306" rx="41.6928" ry="18"/>
<text text-anchor="middle" x="1117.2" y="-302.3" font-family="Times,serif" font-size="14.00">48 (1): 1</text>
</a>
</g>
</g>
<!-- 31&#45;&gt;48 -->
<g id="edge41" class="edge"><title>31&#45;&gt;48</title>
<path fill="none" stroke="black" d="M1130.08,-360.055C1128.19,-352.261 1125.9,-342.822 1123.77,-334.079"/>
<polygon fill="black" stroke="black" points="1127.15,-333.167 1121.39,-324.275 1120.35,-334.819 1127.15,-333.167"/>
</g>
<!-- 32&#45;&gt;31 -->
<g id="edge4" class="edge"><title>32&#45;&gt;31</title>
<path fill="none" stroke="black" d="M1172.35,-432.411C1166.24,-423.868 1158.68,-413.278 1151.9,-403.787"/>
<polygon fill="black" stroke="black" points="1154.62,-401.573 1145.96,-395.47 1148.92,-405.642 1154.62,-401.573"/>
</g>
<!-- 33&#45;&gt;9 -->
<g id="edge60" class="edge"><title>33&#45;&gt;9</title>
<path fill="none" stroke="black" d="M1420.2,-215.697C1420.2,-207.983 1420.2,-198.712 1420.2,-190.112"/>
<polygon fill="black" stroke="black" points="1423.7,-190.104 1420.2,-180.104 1416.7,-190.104 1423.7,-190.104"/>
</g>
<!-- 34&#45;&gt;30 -->
<g id="edge37" class="edge"><title>34&#45;&gt;30</title>
<path fill="none" stroke="black" d="M1285.2,-431.697C1285.2,-423.983 1285.2,-414.712 1285.2,-406.112"/>
<polygon fill="black" stroke="black" points="1288.7,-406.104 1285.2,-396.104 1281.7,-406.104 1288.7,-406.104"/>
</g>
<!-- 64 -->
<g id="node65" class="node"><title>64</title>
<g id="a_node65"><a xlink:title="64, diversity: 1, multiplicities: 2, labels: 1">
<ellipse fill="#c7e9c0" stroke="black" cx="1357.2" cy="-594" rx="41.6928" ry="18"/>
<text text-anchor="middle" x="1357.2" y="-590.3" font-family="Times,serif" font-size="14.00">64 (1): 1</text>
</a>
</g>
</g>
<!-- 35&#45;&gt;64 -->
<g id="edge53" class="edge"><title>35&#45;&gt;64</title>
<path fill="none" stroke="black" d="M1194.37,-653.753C1227.46,-641.813 1279.9,-622.89 1316.29,-609.758"/>
<polygon fill="black" stroke="black" points="1317.89,-612.905 1326.1,-606.219 1315.51,-606.321 1317.89,-612.905"/>
</g>
<!-- 60 -->
<g id="node61" class="node"><title>60</title>
<g id="a_node61"><a xlink:title="60, diversity: 1, multiplicities: 1, labels: 1">
<ellipse fill="#c7e9c0" stroke="black" cx="507.196" cy="-666" rx="41.6928" ry="18"/>
<text text-anchor="middle" x="507.196" y="-662.3" font-family="Times,serif" font-size="14.00">60 (1): 1</text>
</a>
</g>
</g>
<!-- 36&#45;&gt;60 -->
<g id="edge3" class="edge"><title>36&#45;&gt;60</title>
<path fill="none" stroke="black" d="M507.196,-719.697C507.196,-711.983 507.196,-702.712 507.196,-694.112"/>
<polygon fill="black" stroke="black" points="510.696,-694.104 507.196,-684.104 503.696,-694.104 510.696,-694.104"/>
</g>
<!-- 38 -->
<g id="node39" class="node"><title>38</title>
<g id="a_node39"><a xlink:title="38, diversity: 2, multiplicities: 1,5, labels: 1">
<ellipse fill="#c7e9c0" stroke="black" cx="1012.2" cy="-522" rx="41.6928" ry="18"/>
<text text-anchor="middle" x="1012.2" y="-518.3" font-family="Times,serif" font-size="14.00">38 (2): 1</text>
</a>
</g>
</g>
<!-- 37&#45;&gt;38 -->
<g id="edge39" class="edge"><title>37&#45;&gt;38</title>
<path fill="none" stroke="black" d="M1012.2,-575.697C1012.2,-567.983 1012.2,-558.712 1012.2,-550.112"/>
<polygon fill="black" stroke="black" points="1015.7,-550.104 1012.2,-540.104 1008.7,-550.104 1015.7,-550.104"/>
</g>
<!-- 40 -->
<g id="node41" class="node"><title>40</title>
<g id="a_node41"><a xlink:title="40, diversity: 1, multiplicities: 13, labels: 1">
<ellipse fill="#c7e9c0" stroke="black" cx="190.196" cy="-594" rx="41.6928" ry="18"/>
<text text-anchor="middle" x="190.196" y="-590.3" font-family="Times,serif" font-size="14.00">40 (1): 1</text>
</a>
</g>
</g>
<!-- 41 -->
<g id="node42" class="node"><title>41</title>
<g id="a_node42"><a xlink:title="41, diversity: 1, multiplicities: 4, labels: 1">
<ellipse fill="#c7e9c0" stroke="black" cx="608.196" cy="-594" rx="41.6928" ry="18"/>
<text text-anchor="middle" x="608.196" y="-590.3" font-family="Times,serif" font-size="14.00">41 (1): 1</text>
</a>
</g>
</g>
<!-- 62 -->
<g id="node63" class="node"><title>62</title>
<g id="a_node63"><a xlink:title="62, diversity: 1, multiplicities: 6, labels: 1">
<ellipse fill="#c7e9c0" stroke="black" cx="608.196" cy="-522" rx="41.6928" ry="18"/>
<text text-anchor="middle" x="608.196" y="-518.3" font-family="Times,serif" font-size="14.00">62 (1): 1</text>
</a>
</g>
</g>
<!-- 41&#45;&gt;62 -->
<g id="edge59" class="edge"><title>41&#45;&gt;62</title>
<path fill="none" stroke="black" d="M608.196,-575.697C608.196,-567.983 608.196,-558.712 608.196,-550.112"/>
<polygon fill="black" stroke="black" points="611.696,-550.104 608.196,-540.104 604.696,-550.104 611.696,-550.104"/>
</g>
<!-- 55 -->
<g id="node56" class="node"><title>55</title>
<g id="a_node56"><a xlink:title="55, diversity: 1, multiplicities: 18, labels: 1">
<ellipse fill="#c7e9c0" stroke="black" cx="608.196" cy="-666" rx="41.6928" ry="18"/>
<text text-anchor="middle" x="608.196" y="-662.3" font-family="Times,serif" font-size="14.00">55 (1): 1</text>
</a>
</g>
</g>
<!-- 42&#45;&gt;55 -->
<g id="edge50" class="edge"><title>42&#45;&gt;55</title>
<path fill="none" stroke="black" d="M608.196,-719.697C608.196,-711.983 608.196,-702.712 608.196,-694.112"/>
<polygon fill="black" stroke="black" points="611.696,-694.104 608.196,-684.104 604.696,-694.104 611.696,-694.104"/>
</g>
<!-- 43 -->
<g id="node44" class="node"><title>43</title>
<g id="a_node44"><a xlink:title="43, diversity: 1, multiplicities: 6, labels: 1">
<ellipse fill="#c7e9c0" stroke="black" cx="986.196" cy="-306" rx="41.6928" ry="18"/>
<text text-anchor="middle" x="986.196" y="-302.3" font-family="Times,serif" font-size="14.00">43 (1): 1</text>
</a>
</g>
</g>
<!-- 44 -->
<g id="node45" class="node"><title>44</title>
<g id="a_node45"><a xlink:title="44, diversity: 1, multiplicities: 8, labels: 1">
<ellipse fill="#c7e9c0" stroke="black" cx="885.196" cy="-378" rx="41.6928" ry="18"/>
<text text-anchor="middle" x="885.196" y="-374.3" font-family="Times,serif" font-size="14.00">44 (1): 1</text>
</a>
</g>
</g>
<!-- 45 -->
<g id="node46" class="node"><title>45</title>
<g id="a_node46"><a xlink:title="45, diversity: 1, multiplicities: 10, labels: 1">
<ellipse fill="#c7e9c0" stroke="black" cx="986.196" cy="-378" rx="41.6928" ry="18"/>
<text text-anchor="middle" x="986.196" y="-374.3" font-family="Times,serif" font-size="14.00">45 (1): 1</text>
</a>
</g>
</g>
<!-- 45&#45;&gt;43 -->
<g id="edge64" class="edge"><title>45&#45;&gt;43</title>
<path fill="none" stroke="black" d="M986.196,-359.697C986.196,-351.983 986.196,-342.712 986.196,-334.112"/>
<polygon fill="black" stroke="black" points="989.696,-334.104 986.196,-324.104 982.696,-334.104 989.696,-334.104"/>
</g>
<!-- 46&#45;&gt;44 -->
<g id="edge51" class="edge"><title>46&#45;&gt;44</title>
<path fill="none" stroke="black" d="M924.11,-432.411C917.885,-423.868 910.17,-413.278 903.255,-403.787"/>
<polygon fill="black" stroke="black" points="905.913,-401.491 897.196,-395.47 900.255,-405.613 905.913,-401.491"/>
</g>
<!-- 46&#45;&gt;45 -->
<g id="edge42" class="edge"><title>46&#45;&gt;45</title>
<path fill="none" stroke="black" d="M948.045,-432.411C954.148,-423.868 961.711,-413.278 968.491,-403.787"/>
<polygon fill="black" stroke="black" points="971.467,-405.642 974.432,-395.47 965.771,-401.573 971.467,-405.642"/>
</g>
<!-- 47 -->
<g id="node48" class="node"><title>47</title>
<g id="a_node48"><a xlink:title="47, diversity: 2, multiplicities: 6,16, labels: 1,3">
<ellipse fill="#c7e9c0" stroke="black" cx="298.196" cy="-594" rx="48.1917" ry="18"/>
<text text-anchor="middle" x="298.196" y="-590.3" font-family="Times,serif" font-size="14.00">47 (2): 1,3</text>
</a>
</g>
</g>
<!-- 52 -->
<g id="node53" class="node"><title>52</title>
<g id="a_node53"><a xlink:title="52, diversity: 1, multiplicities: 17, labels: 1">
<ellipse fill="#c7e9c0" stroke="black" cx="298.196" cy="-522" rx="41.6928" ry="18"/>
<text text-anchor="middle" x="298.196" y="-518.3" font-family="Times,serif" font-size="14.00">52 (1): 1</text>
</a>
</g>
</g>
<!-- 47&#45;&gt;52 -->
<g id="edge6" class="edge"><title>47&#45;&gt;52</title>
<path fill="none" stroke="black" d="M298.196,-575.697C298.196,-567.983 298.196,-558.712 298.196,-550.112"/>
<polygon fill="black" stroke="black" points="301.696,-550.104 298.196,-540.104 294.696,-550.104 301.696,-550.104"/>
</g>
<!-- 48&#45;&gt;27 -->
<g id="edge10" class="edge"><title>48&#45;&gt;27</title>
<path fill="none" stroke="black" d="M1117.2,-287.697C1117.2,-279.983 1117.2,-270.712 1117.2,-262.112"/>
<polygon fill="black" stroke="black" points="1120.7,-262.104 1117.2,-252.104 1113.7,-262.104 1120.7,-262.104"/>
</g>
<!-- 53 -->
<g id="node54" class="node"><title>53</title>
<g id="a_node54"><a xlink:title="53, diversity: 1, multiplicities: 2, labels: 1">
<ellipse fill="#c7e9c0" stroke="black" cx="1113.2" cy="-522" rx="41.6928" ry="18"/>
<text text-anchor="middle" x="1113.2" y="-518.3" font-family="Times,serif" font-size="14.00">53 (1): 1</text>
</a>
</g>
</g>
<!-- 49&#45;&gt;53 -->
<g id="edge20" class="edge"><title>49&#45;&gt;53</title>
<path fill="none" stroke="black" d="M1113.2,-575.697C1113.2,-567.983 1113.2,-558.712 1113.2,-550.112"/>
<polygon fill="black" stroke="black" points="1116.7,-550.104 1113.2,-540.104 1109.7,-550.104 1116.7,-550.104"/>
</g>
<!-- 50&#45;&gt;4 -->
<g id="edge8" class="edge"><title>50&#45;&gt;4</title>
<path fill="none" stroke="black" d="M265.812,-654.544C233.609,-644.067 182.845,-627.336 139.196,-612 136.648,-611.105 134.026,-610.17 131.386,-609.22"/>
<polygon fill="black" stroke="black" points="132.448,-605.883 121.854,-605.753 130.055,-612.461 132.448,-605.883"/>
</g>
<!-- 50&#45;&gt;40 -->
<g id="edge46" class="edge"><title>50&#45;&gt;40</title>
<path fill="none" stroke="black" d="M276.08,-650.666C260.209,-640.379 238.614,-626.382 221.049,-614.997"/>
<polygon fill="black" stroke="black" points="222.578,-611.817 212.283,-609.315 218.77,-617.691 222.578,-611.817"/>
</g>
<!-- 50&#45;&gt;47 -->
<g id="edge43" class="edge"><title>50&#45;&gt;47</title>
<path fill="none" stroke="black" d="M298.196,-647.697C298.196,-639.983 298.196,-630.712 298.196,-622.112"/>
<polygon fill="black" stroke="black" points="301.696,-622.104 298.196,-612.104 294.696,-622.104 301.696,-622.104"/>
</g>
<!-- 61 -->
<g id="node62" class="node"><title>61</title>
<g id="a_node62"><a xlink:title="61, diversity: 1, multiplicities: 7, labels: 1">
<ellipse fill="#c7e9c0" stroke="black" cx="406.196" cy="-594" rx="41.6928" ry="18"/>
<text text-anchor="middle" x="406.196" y="-590.3" font-family="Times,serif" font-size="14.00">61 (1): 1</text>
</a>
</g>
</g>
<!-- 50&#45;&gt;61 -->
<g id="edge26" class="edge"><title>50&#45;&gt;61</title>
<path fill="none" stroke="black" d="M320.312,-650.666C336.183,-640.379 357.778,-626.382 375.343,-614.997"/>
<polygon fill="black" stroke="black" points="377.622,-617.691 384.11,-609.315 373.814,-611.817 377.622,-617.691"/>
</g>
<!-- 51 -->
<g id="node52" class="node"><title>51</title>
<g id="a_node52"><a xlink:title="51, diversity: 1, multiplicities: 19, labels: 1">
<ellipse fill="#c7e9c0" stroke="black" cx="507.196" cy="-594" rx="41.6928" ry="18"/>
<text text-anchor="middle" x="507.196" y="-590.3" font-family="Times,serif" font-size="14.00">51 (1): 1</text>
</a>
</g>
</g>
<!-- 54 -->
<g id="node55" class="node"><title>54</title>
<g id="a_node55"><a xlink:title="54, diversity: 1, multiplicities: 8, labels: 1">
<ellipse fill="#c7e9c0" stroke="black" cx="1083.2" cy="-450" rx="41.6928" ry="18"/>
<text text-anchor="middle" x="1083.2" y="-446.3" font-family="Times,serif" font-size="14.00">54 (1): 1</text>
</a>
</g>
</g>
<!-- 53&#45;&gt;54 -->
<g id="edge44" class="edge"><title>53&#45;&gt;54</title>
<path fill="none" stroke="black" d="M1105.93,-504.055C1102.47,-495.973 1098.25,-486.121 1094.39,-477.112"/>
<polygon fill="black" stroke="black" points="1097.55,-475.602 1090.39,-467.789 1091.11,-478.359 1097.55,-475.602"/>
</g>
<!-- 57 -->
<g id="node58" class="node"><title>57</title>
<g id="a_node58"><a xlink:title="57, diversity: 1, multiplicities: 3, labels: 1">
<ellipse fill="#c7e9c0" stroke="black" cx="709.196" cy="-666" rx="41.6928" ry="18"/>
<text text-anchor="middle" x="709.196" y="-662.3" font-family="Times,serif" font-size="14.00">57 (1): 1</text>
</a>
</g>
</g>
<!-- 57&#45;&gt;41 -->
<g id="edge33" class="edge"><title>57&#45;&gt;41</title>
<path fill="none" stroke="black" d="M687.777,-650.155C673.217,-640.064 653.765,-626.583 637.738,-615.474"/>
<polygon fill="black" stroke="black" points="639.451,-612.403 629.238,-609.584 635.464,-618.157 639.451,-612.403"/>
</g>
<!-- 58&#45;&gt;57 -->
<g id="edge48" class="edge"><title>58&#45;&gt;57</title>
<path fill="none" stroke="black" d="M709.196,-719.697C709.196,-711.983 709.196,-702.712 709.196,-694.112"/>
<polygon fill="black" stroke="black" points="712.696,-694.104 709.196,-684.104 705.696,-694.104 712.696,-694.104"/>
</g>
<!-- 59&#45;&gt;13 -->
<g id="edge56" class="edge"><title>59&#45;&gt;13</title>
<path fill="none" stroke="black" d="M873.045,-720.411C879.148,-711.868 886.711,-701.278 893.491,-691.787"/>
<polygon fill="black" stroke="black" points="896.467,-693.642 899.432,-683.47 890.771,-689.573 896.467,-693.642"/>
</g>
<!-- 60&#45;&gt;51 -->
<g id="edge28" class="edge"><title>60&#45;&gt;51</title>
<path fill="none" stroke="black" d="M507.196,-647.697C507.196,-639.983 507.196,-630.712 507.196,-622.112"/>
<polygon fill="black" stroke="black" points="510.696,-622.104 507.196,-612.104 503.696,-622.104 510.696,-622.104"/>
</g>
<!-- 63&#45;&gt;29 -->
<g id="edge52" class="edge"><title>63&#45;&gt;29</title>
<path fill="none" stroke="black" d="M1214.2,-575.697C1214.2,-567.983 1214.2,-558.712 1214.2,-550.112"/>
<polygon fill="black" stroke="black" points="1217.7,-550.104 1214.2,-540.104 1210.7,-550.104 1217.7,-550.104"/>
</g>
<!-- 64&#45;&gt;23 -->
<g id="edge63" class="edge"><title>64&#45;&gt;23</title>
<path fill="none" stroke="black" d="M1357.2,-575.697C1357.2,-567.983 1357.2,-558.712 1357.2,-550.112"/>
<polygon fill="black" stroke="black" points="1360.7,-550.104 1357.2,-540.104 1353.7,-550.104 1360.7,-550.104"/>
</g>
</g>
</svg>
