<?xml version="1.0" encoding="UTF-8" standalone="no"?>
<!DOCTYPE svg PUBLIC "-//W3C//DTD SVG 1.1//EN"
 "http://www.w3.org/Graphics/SVG/1.1/DTD/svg11.dtd">
<!-- Generated by graphviz version 2.38.0 (20140413.2041)
 -->
<!-- Title: %3 Pages: 1 -->
<svg width="1278pt" height="1052pt"
 viewBox="0.00 0.00 1277.79 1052.00" xmlns="http://www.w3.org/2000/svg" xmlns:xlink="http://www.w3.org/1999/xlink">
<g id="graph0" class="graph" transform="scale(1 1) rotate(0) translate(4 1048)">
<title>%3</title>
<polygon fill="white" stroke="none" points="-4,4 -4,-1048 1273.79,-1048 1273.79,4 -4,4"/>
<!-- 0 -->
<g id="node1" class="node"><title>0</title>
<g id="a_node1"><a xlink:title="0, diversity: 1, multiplicities: 26, labels: 1,3,2">
<ellipse fill="#c7e9c0" stroke="black" cx="690.196" cy="-234" rx="50.8918" ry="18"/>
<text text-anchor="middle" x="690.196" y="-230.3" font-family="Times,serif" font-size="14.00">0 (1): 1,3,2</text>
</a>
</g>
</g>
<!-- 1 -->
<g id="node2" class="node"><title>1</title>
<g id="a_node2"><a xlink:title="1, diversity: 3, multiplicities: 3,43,4421, labels: 1,0,3,2">
<ellipse fill="#f7fcf5" stroke="black" cx="646.196" cy="-378" rx="57.6901" ry="18"/>
<text text-anchor="middle" x="646.196" y="-374.3" font-family="Times,serif" font-size="14.00">1 (3): 1,0,3,2</text>
</a>
</g>
</g>
<!-- 2 -->
<g id="node3" class="node"><title>2</title>
<g id="a_node3"><a xlink:title="2, diversity: 1, multiplicities: 49, labels: 1,0,3">
<ellipse fill="#f7fcf5" stroke="black" cx="383.196" cy="-306" rx="50.8918" ry="18"/>
<text text-anchor="middle" x="383.196" y="-302.3" font-family="Times,serif" font-size="14.00">2 (1): 1,0,3</text>
</a>
</g>
</g>
<!-- 1&#45;&gt;2 -->
<g id="edge21" class="edge"><title>1&#45;&gt;2</title>
<path fill="none" stroke="black" d="M603.648,-365.675C556.861,-353.223 481.791,-333.242 432.479,-320.117"/>
<polygon fill="black" stroke="black" points="433.236,-316.697 422.672,-317.507 431.435,-323.461 433.236,-316.697"/>
</g>
<!-- 19 -->
<g id="node20" class="node"><title>19</title>
<g id="a_node20"><a xlink:title="19, diversity: 4, multiplicities: 2,2,3,4, labels: 3">
<ellipse fill="#228a44" stroke="black" cx="545.196" cy="-306" rx="41.6928" ry="18"/>
<text text-anchor="middle" x="545.196" y="-302.3" font-family="Times,serif" font-size="14.00">19 (4): 3</text>
</a>
</g>
</g>
<!-- 1&#45;&gt;19 -->
<g id="edge49" class="edge"><title>1&#45;&gt;19</title>
<path fill="none" stroke="black" d="M623.53,-361.291C609.102,-351.291 590.267,-338.237 574.682,-327.436"/>
<polygon fill="black" stroke="black" points="576.619,-324.52 566.406,-321.7 572.632,-330.273 576.619,-324.52"/>
</g>
<!-- 20 -->
<g id="node21" class="node"><title>20</title>
<g id="a_node21"><a xlink:title="20, diversity: 1, multiplicities: 1, labels: 3">
<ellipse fill="#228a44" stroke="black" cx="646.196" cy="-306" rx="41.6928" ry="18"/>
<text text-anchor="middle" x="646.196" y="-302.3" font-family="Times,serif" font-size="14.00">20 (1): 3</text>
</a>
</g>
</g>
<!-- 1&#45;&gt;20 -->
<g id="edge20" class="edge"><title>1&#45;&gt;20</title>
<path fill="none" stroke="black" d="M646.196,-359.697C646.196,-351.983 646.196,-342.712 646.196,-334.112"/>
<polygon fill="black" stroke="black" points="649.696,-334.104 646.196,-324.104 642.696,-334.104 649.696,-334.104"/>
</g>
<!-- 36 -->
<g id="node37" class="node"><title>36</title>
<g id="a_node37"><a xlink:title="36, diversity: 1, multiplicities: 10, labels: 3">
<ellipse fill="#228a44" stroke="black" cx="747.196" cy="-306" rx="41.6928" ry="18"/>
<text text-anchor="middle" x="747.196" y="-302.3" font-family="Times,serif" font-size="14.00">36 (1): 3</text>
</a>
</g>
</g>
<!-- 1&#45;&gt;36 -->
<g id="edge30" class="edge"><title>1&#45;&gt;36</title>
<path fill="none" stroke="black" d="M668.862,-361.291C683.29,-351.291 702.125,-338.237 717.71,-327.436"/>
<polygon fill="black" stroke="black" points="719.76,-330.273 725.986,-321.7 715.773,-324.52 719.76,-330.273"/>
</g>
<!-- 64 -->
<g id="node65" class="node"><title>64</title>
<g id="a_node65"><a xlink:title="64, diversity: 1, multiplicities: 5, labels: 2">
<ellipse fill="#73c476" stroke="black" cx="848.196" cy="-306" rx="41.6928" ry="18"/>
<text text-anchor="middle" x="848.196" y="-302.3" font-family="Times,serif" font-size="14.00">64 (1): 2</text>
</a>
</g>
</g>
<!-- 1&#45;&gt;64 -->
<g id="edge16" class="edge"><title>1&#45;&gt;64</title>
<path fill="none" stroke="black" d="M683.246,-364.161C718.227,-352.039 770.594,-333.892 806.902,-321.31"/>
<polygon fill="black" stroke="black" points="808.386,-324.5 816.689,-317.918 806.094,-317.886 808.386,-324.5"/>
</g>
<!-- 42 -->
<g id="node43" class="node"><title>42</title>
<g id="a_node43"><a xlink:title="42, diversity: 2, multiplicities: 5,7, labels: 3">
<ellipse fill="#228a44" stroke="black" cx="255.196" cy="-234" rx="41.6928" ry="18"/>
<text text-anchor="middle" x="255.196" y="-230.3" font-family="Times,serif" font-size="14.00">42 (2): 3</text>
</a>
</g>
</g>
<!-- 2&#45;&gt;42 -->
<g id="edge17" class="edge"><title>2&#45;&gt;42</title>
<path fill="none" stroke="black" d="M356.674,-290.496C337.028,-279.752 310.106,-265.029 288.929,-253.448"/>
<polygon fill="black" stroke="black" points="290.4,-250.263 279.947,-248.536 287.041,-256.405 290.4,-250.263"/>
</g>
<!-- 47 -->
<g id="node48" class="node"><title>47</title>
<g id="a_node48"><a xlink:title="47, diversity: 1, multiplicities: 145, labels: 3,2">
<ellipse fill="#73c476" stroke="black" cx="366.196" cy="-234" rx="48.1917" ry="18"/>
<text text-anchor="middle" x="366.196" y="-230.3" font-family="Times,serif" font-size="14.00">47 (1): 3,2</text>
</a>
</g>
</g>
<!-- 2&#45;&gt;47 -->
<g id="edge53" class="edge"><title>2&#45;&gt;47</title>
<path fill="none" stroke="black" d="M379.081,-288.055C377.188,-280.261 374.896,-270.822 372.772,-262.079"/>
<polygon fill="black" stroke="black" points="376.153,-261.167 370.392,-252.275 369.35,-262.819 376.153,-261.167"/>
</g>
<!-- 3 -->
<g id="node4" class="node"><title>3</title>
<g id="a_node4"><a xlink:title="3, diversity: 2, multiplicities: 1,5, labels: 1,3">
<ellipse fill="#c7e9c0" stroke="black" cx="1050.2" cy="-522" rx="44.393" ry="18"/>
<text text-anchor="middle" x="1050.2" y="-518.3" font-family="Times,serif" font-size="14.00">3 (2): 1,3</text>
</a>
</g>
</g>
<!-- 4 -->
<g id="node5" class="node"><title>4</title>
<g id="a_node5"><a xlink:title="4, diversity: 3, multiplicities: 1,1,8, labels: 1,3">
<ellipse fill="#c7e9c0" stroke="black" cx="44.1961" cy="-234" rx="44.393" ry="18"/>
<text text-anchor="middle" x="44.1961" y="-230.3" font-family="Times,serif" font-size="14.00">4 (3): 1,3</text>
</a>
</g>
</g>
<!-- 5 -->
<g id="node6" class="node"><title>5</title>
<g id="a_node6"><a xlink:title="5, diversity: 1, multiplicities: 57, labels: 0,3">
<ellipse fill="#f7fcf5" stroke="black" cx="476.196" cy="-234" rx="44.393" ry="18"/>
<text text-anchor="middle" x="476.196" y="-230.3" font-family="Times,serif" font-size="14.00">5 (1): 0,3</text>
</a>
</g>
</g>
<!-- 6 -->
<g id="node7" class="node"><title>6</title>
<g id="a_node7"><a xlink:title="6, diversity: 1, multiplicities: 1, labels: 3">
<ellipse fill="#228a44" stroke="black" cx="345.196" cy="-450" rx="37.0935" ry="18"/>
<text text-anchor="middle" x="345.196" y="-446.3" font-family="Times,serif" font-size="14.00">6 (1): 3</text>
</a>
</g>
</g>
<!-- 29 -->
<g id="node30" class="node"><title>29</title>
<g id="a_node30"><a xlink:title="29, diversity: 1, multiplicities: 4, labels: 3">
<ellipse fill="#228a44" stroke="black" cx="345.196" cy="-378" rx="41.6928" ry="18"/>
<text text-anchor="middle" x="345.196" y="-374.3" font-family="Times,serif" font-size="14.00">29 (1): 3</text>
</a>
</g>
</g>
<!-- 6&#45;&gt;29 -->
<g id="edge26" class="edge"><title>6&#45;&gt;29</title>
<path fill="none" stroke="black" d="M345.196,-431.697C345.196,-423.983 345.196,-414.712 345.196,-406.112"/>
<polygon fill="black" stroke="black" points="348.696,-406.104 345.196,-396.104 341.696,-406.104 348.696,-406.104"/>
</g>
<!-- 7 -->
<g id="node8" class="node"><title>7</title>
<g id="a_node8"><a xlink:title="7, diversity: 1, multiplicities: 1, labels: 3">
<ellipse fill="#228a44" stroke="black" cx="1228.2" cy="-522" rx="37.0935" ry="18"/>
<text text-anchor="middle" x="1228.2" y="-518.3" font-family="Times,serif" font-size="14.00">7 (1): 3</text>
</a>
</g>
</g>
<!-- 45 -->
<g id="node46" class="node"><title>45</title>
<g id="a_node46"><a xlink:title="45, diversity: 1, multiplicities: 2, labels: 3">
<ellipse fill="#228a44" stroke="black" cx="1228.2" cy="-450" rx="41.6928" ry="18"/>
<text text-anchor="middle" x="1228.2" y="-446.3" font-family="Times,serif" font-size="14.00">45 (1): 3</text>
</a>
</g>
</g>
<!-- 7&#45;&gt;45 -->
<g id="edge45" class="edge"><title>7&#45;&gt;45</title>
<path fill="none" stroke="black" d="M1228.2,-503.697C1228.2,-495.983 1228.2,-486.712 1228.2,-478.112"/>
<polygon fill="black" stroke="black" points="1231.7,-478.104 1228.2,-468.104 1224.7,-478.104 1231.7,-478.104"/>
</g>
<!-- 8 -->
<g id="node9" class="node"><title>8</title>
<g id="a_node9"><a xlink:title="8, diversity: 1, multiplicities: 9, labels: 3">
<ellipse fill="#228a44" stroke="black" cx="444.196" cy="-522" rx="37.0935" ry="18"/>
<text text-anchor="middle" x="444.196" y="-518.3" font-family="Times,serif" font-size="14.00">8 (1): 3</text>
</a>
</g>
</g>
<!-- 9 -->
<g id="node10" class="node"><title>9</title>
<g id="a_node10"><a xlink:title="9, diversity: 1, multiplicities: 2, labels: 3">
<ellipse fill="#228a44" stroke="black" cx="848.196" cy="-594" rx="37.0935" ry="18"/>
<text text-anchor="middle" x="848.196" y="-590.3" font-family="Times,serif" font-size="14.00">9 (1): 3</text>
</a>
</g>
</g>
<!-- 59 -->
<g id="node60" class="node"><title>59</title>
<g id="a_node60"><a xlink:title="59, diversity: 1, multiplicities: 5, labels: 3">
<ellipse fill="#228a44" stroke="black" cx="848.196" cy="-522" rx="41.6928" ry="18"/>
<text text-anchor="middle" x="848.196" y="-518.3" font-family="Times,serif" font-size="14.00">59 (1): 3</text>
</a>
</g>
</g>
<!-- 9&#45;&gt;59 -->
<g id="edge2" class="edge"><title>9&#45;&gt;59</title>
<path fill="none" stroke="black" d="M848.196,-575.697C848.196,-567.983 848.196,-558.712 848.196,-550.112"/>
<polygon fill="black" stroke="black" points="851.696,-550.104 848.196,-540.104 844.696,-550.104 851.696,-550.104"/>
</g>
<!-- 10 -->
<g id="node11" class="node"><title>10</title>
<g id="a_node11"><a xlink:title="10, diversity: 1, multiplicities: 2, labels: 3">
<ellipse fill="#228a44" stroke="black" cx="115.196" cy="-594" rx="41.6928" ry="18"/>
<text text-anchor="middle" x="115.196" y="-590.3" font-family="Times,serif" font-size="14.00">10 (1): 3</text>
</a>
</g>
</g>
<!-- 54 -->
<g id="node55" class="node"><title>54</title>
<g id="a_node55"><a xlink:title="54, diversity: 1, multiplicities: 6, labels: 3">
<ellipse fill="#228a44" stroke="black" cx="69.1961" cy="-522" rx="41.6928" ry="18"/>
<text text-anchor="middle" x="69.1961" y="-518.3" font-family="Times,serif" font-size="14.00">54 (1): 3</text>
</a>
</g>
</g>
<!-- 10&#45;&gt;54 -->
<g id="edge55" class="edge"><title>10&#45;&gt;54</title>
<path fill="none" stroke="black" d="M104.295,-576.411C98.7379,-567.955 91.8638,-557.494 85.6761,-548.078"/>
<polygon fill="black" stroke="black" points="88.436,-545.905 80.0192,-539.47 82.586,-549.749 88.436,-545.905"/>
</g>
<!-- 11 -->
<g id="node12" class="node"><title>11</title>
<g id="a_node12"><a xlink:title="11, diversity: 2, multiplicities: 1,2, labels: 3">
<ellipse fill="#228a44" stroke="black" cx="1050.2" cy="-666" rx="41.6928" ry="18"/>
<text text-anchor="middle" x="1050.2" y="-662.3" font-family="Times,serif" font-size="14.00">11 (2): 3</text>
</a>
</g>
</g>
<!-- 48 -->
<g id="node49" class="node"><title>48</title>
<g id="a_node49"><a xlink:title="48, diversity: 1, multiplicities: 1, labels: 3">
<ellipse fill="#228a44" stroke="black" cx="1050.2" cy="-594" rx="41.6928" ry="18"/>
<text text-anchor="middle" x="1050.2" y="-590.3" font-family="Times,serif" font-size="14.00">48 (1): 3</text>
</a>
</g>
</g>
<!-- 11&#45;&gt;48 -->
<g id="edge40" class="edge"><title>11&#45;&gt;48</title>
<path fill="none" stroke="black" d="M1050.2,-647.697C1050.2,-639.983 1050.2,-630.712 1050.2,-622.112"/>
<polygon fill="black" stroke="black" points="1053.7,-622.104 1050.2,-612.104 1046.7,-622.104 1053.7,-622.104"/>
</g>
<!-- 12 -->
<g id="node13" class="node"><title>12</title>
<g id="a_node13"><a xlink:title="12, diversity: 1, multiplicities: 1, labels: 3">
<ellipse fill="#228a44" stroke="black" cx="646.196" cy="-522" rx="41.6928" ry="18"/>
<text text-anchor="middle" x="646.196" y="-518.3" font-family="Times,serif" font-size="14.00">12 (1): 3</text>
</a>
</g>
</g>
<!-- 57 -->
<g id="node58" class="node"><title>57</title>
<g id="a_node58"><a xlink:title="57, diversity: 1, multiplicities: 7, labels: 3">
<ellipse fill="#228a44" stroke="black" cx="646.196" cy="-450" rx="41.6928" ry="18"/>
<text text-anchor="middle" x="646.196" y="-446.3" font-family="Times,serif" font-size="14.00">57 (1): 3</text>
</a>
</g>
</g>
<!-- 12&#45;&gt;57 -->
<g id="edge65" class="edge"><title>12&#45;&gt;57</title>
<path fill="none" stroke="black" d="M646.196,-503.697C646.196,-495.983 646.196,-486.712 646.196,-478.112"/>
<polygon fill="black" stroke="black" points="649.696,-478.104 646.196,-468.104 642.696,-478.104 649.696,-478.104"/>
</g>
<!-- 13 -->
<g id="node14" class="node"><title>13</title>
<g id="a_node14"><a xlink:title="13, diversity: 2, multiplicities: 1,2, labels: 3">
<ellipse fill="#228a44" stroke="black" cx="1026.2" cy="-954" rx="41.6928" ry="18"/>
<text text-anchor="middle" x="1026.2" y="-950.3" font-family="Times,serif" font-size="14.00">13 (2): 3</text>
</a>
</g>
</g>
<!-- 40 -->
<g id="node41" class="node"><title>40</title>
<g id="a_node41"><a xlink:title="40, diversity: 2, multiplicities: 7,19, labels: 3,2">
<ellipse fill="#73c476" stroke="black" cx="1026.2" cy="-882" rx="48.1917" ry="18"/>
<text text-anchor="middle" x="1026.2" y="-878.3" font-family="Times,serif" font-size="14.00">40 (2): 3,2</text>
</a>
</g>
</g>
<!-- 13&#45;&gt;40 -->
<g id="edge34" class="edge"><title>13&#45;&gt;40</title>
<path fill="none" stroke="black" d="M1026.2,-935.697C1026.2,-927.983 1026.2,-918.712 1026.2,-910.112"/>
<polygon fill="black" stroke="black" points="1029.7,-910.104 1026.2,-900.104 1022.7,-910.104 1029.7,-910.104"/>
</g>
<!-- 14 -->
<g id="node15" class="node"><title>14</title>
<g id="a_node15"><a xlink:title="14, diversity: 1, multiplicities: 9, labels: 3">
<ellipse fill="#228a44" stroke="black" cx="747.196" cy="-450" rx="41.6928" ry="18"/>
<text text-anchor="middle" x="747.196" y="-446.3" font-family="Times,serif" font-size="14.00">14 (1): 3</text>
</a>
</g>
</g>
<!-- 15 -->
<g id="node16" class="node"><title>15</title>
<g id="a_node16"><a xlink:title="15, diversity: 3, multiplicities: 1,1,3, labels: 3">
<ellipse fill="#228a44" stroke="black" cx="1228.2" cy="-378" rx="41.6928" ry="18"/>
<text text-anchor="middle" x="1228.2" y="-374.3" font-family="Times,serif" font-size="14.00">15 (3): 3</text>
</a>
</g>
</g>
<!-- 49 -->
<g id="node50" class="node"><title>49</title>
<g id="a_node50"><a xlink:title="49, diversity: 1, multiplicities: 12, labels: 3">
<ellipse fill="#228a44" stroke="black" cx="1228.2" cy="-306" rx="41.6928" ry="18"/>
<text text-anchor="middle" x="1228.2" y="-302.3" font-family="Times,serif" font-size="14.00">49 (1): 3</text>
</a>
</g>
</g>
<!-- 15&#45;&gt;49 -->
<g id="edge39" class="edge"><title>15&#45;&gt;49</title>
<path fill="none" stroke="black" d="M1228.2,-359.697C1228.2,-351.983 1228.2,-342.712 1228.2,-334.112"/>
<polygon fill="black" stroke="black" points="1231.7,-334.104 1228.2,-324.104 1224.7,-334.104 1231.7,-334.104"/>
</g>
<!-- 16 -->
<g id="node17" class="node"><title>16</title>
<g id="a_node17"><a xlink:title="16, diversity: 1, multiplicities: 5, labels: 3">
<ellipse fill="#228a44" stroke="black" cx="244.196" cy="-378" rx="41.6928" ry="18"/>
<text text-anchor="middle" x="244.196" y="-374.3" font-family="Times,serif" font-size="14.00">16 (1): 3</text>
</a>
</g>
</g>
<!-- 17 -->
<g id="node18" class="node"><title>17</title>
<g id="a_node18"><a xlink:title="17, diversity: 1, multiplicities: 5, labels: 3">
<ellipse fill="#228a44" stroke="black" cx="44.1961" cy="-378" rx="41.6928" ry="18"/>
<text text-anchor="middle" x="44.1961" y="-374.3" font-family="Times,serif" font-size="14.00">17 (1): 3</text>
</a>
</g>
</g>
<!-- 44 -->
<g id="node45" class="node"><title>44</title>
<g id="a_node45"><a xlink:title="44, diversity: 1, multiplicities: 1, labels: 3">
<ellipse fill="#228a44" stroke="black" cx="44.1961" cy="-306" rx="41.6928" ry="18"/>
<text text-anchor="middle" x="44.1961" y="-302.3" font-family="Times,serif" font-size="14.00">44 (1): 3</text>
</a>
</g>
</g>
<!-- 17&#45;&gt;44 -->
<g id="edge51" class="edge"><title>17&#45;&gt;44</title>
<path fill="none" stroke="black" d="M44.1961,-359.697C44.1961,-351.983 44.1961,-342.712 44.1961,-334.112"/>
<polygon fill="black" stroke="black" points="47.6962,-334.104 44.1961,-324.104 40.6962,-334.104 47.6962,-334.104"/>
</g>
<!-- 18 -->
<g id="node19" class="node"><title>18</title>
<g id="a_node19"><a xlink:title="18, diversity: 1, multiplicities: 6, labels: 3">
<ellipse fill="#228a44" stroke="black" cx="242.196" cy="-594" rx="41.6928" ry="18"/>
<text text-anchor="middle" x="242.196" y="-590.3" font-family="Times,serif" font-size="14.00">18 (1): 3</text>
</a>
</g>
</g>
<!-- 19&#45;&gt;5 -->
<g id="edge66" class="edge"><title>19&#45;&gt;5</title>
<path fill="none" stroke="black" d="M529.539,-289.116C520.667,-280.116 509.397,-268.682 499.504,-258.646"/>
<polygon fill="black" stroke="black" points="501.783,-255.972 492.27,-251.307 496.798,-260.886 501.783,-255.972"/>
</g>
<!-- 52 -->
<g id="node53" class="node"><title>52</title>
<g id="a_node53"><a xlink:title="52, diversity: 1, multiplicities: 5, labels: 3">
<ellipse fill="#228a44" stroke="black" cx="580.196" cy="-234" rx="41.6928" ry="18"/>
<text text-anchor="middle" x="580.196" y="-230.3" font-family="Times,serif" font-size="14.00">52 (1): 3</text>
</a>
</g>
</g>
<!-- 19&#45;&gt;52 -->
<g id="edge69" class="edge"><title>19&#45;&gt;52</title>
<path fill="none" stroke="black" d="M553.669,-288.055C557.753,-279.887 562.74,-269.912 567.284,-260.824"/>
<polygon fill="black" stroke="black" points="570.46,-262.299 571.802,-251.789 564.199,-259.168 570.46,-262.299"/>
</g>
<!-- 20&#45;&gt;0 -->
<g id="edge31" class="edge"><title>20&#45;&gt;0</title>
<path fill="none" stroke="black" d="M656.623,-288.411C661.862,-280.077 668.324,-269.797 674.175,-260.488"/>
<polygon fill="black" stroke="black" points="677.179,-262.285 679.538,-251.956 671.253,-258.56 677.179,-262.285"/>
</g>
<!-- 21 -->
<g id="node22" class="node"><title>21</title>
<g id="a_node22"><a xlink:title="21, diversity: 1, multiplicities: 1, labels: 3">
<ellipse fill="#228a44" stroke="black" cx="949.196" cy="-306" rx="41.6928" ry="18"/>
<text text-anchor="middle" x="949.196" y="-302.3" font-family="Times,serif" font-size="14.00">21 (1): 3</text>
</a>
</g>
</g>
<!-- 33 -->
<g id="node34" class="node"><title>33</title>
<g id="a_node34"><a xlink:title="33, diversity: 1, multiplicities: 1, labels: 3">
<ellipse fill="#228a44" stroke="black" cx="949.196" cy="-234" rx="41.6928" ry="18"/>
<text text-anchor="middle" x="949.196" y="-230.3" font-family="Times,serif" font-size="14.00">33 (1): 3</text>
</a>
</g>
</g>
<!-- 21&#45;&gt;33 -->
<g id="edge43" class="edge"><title>21&#45;&gt;33</title>
<path fill="none" stroke="black" d="M949.196,-287.697C949.196,-279.983 949.196,-270.712 949.196,-262.112"/>
<polygon fill="black" stroke="black" points="952.696,-262.104 949.196,-252.104 945.696,-262.104 952.696,-262.104"/>
</g>
<!-- 22 -->
<g id="node23" class="node"><title>22</title>
<g id="a_node23"><a xlink:title="22, diversity: 1, multiplicities: 4, labels: 3,2">
<ellipse fill="#73c476" stroke="black" cx="871.196" cy="-810" rx="48.1917" ry="18"/>
<text text-anchor="middle" x="871.196" y="-806.3" font-family="Times,serif" font-size="14.00">22 (1): 3,2</text>
</a>
</g>
</g>
<!-- 31 -->
<g id="node32" class="node"><title>31</title>
<g id="a_node32"><a xlink:title="31, diversity: 1, multiplicities: 24, labels: 3,2">
<ellipse fill="#73c476" stroke="black" cx="848.196" cy="-738" rx="48.1917" ry="18"/>
<text text-anchor="middle" x="848.196" y="-734.3" font-family="Times,serif" font-size="14.00">31 (1): 3,2</text>
</a>
</g>
</g>
<!-- 22&#45;&gt;31 -->
<g id="edge18" class="edge"><title>22&#45;&gt;31</title>
<path fill="none" stroke="black" d="M865.628,-792.055C863.04,-784.176 859.899,-774.617 857,-765.794"/>
<polygon fill="black" stroke="black" points="860.319,-764.683 853.872,-756.275 853.669,-766.868 860.319,-764.683"/>
</g>
<!-- 23 -->
<g id="node24" class="node"><title>23</title>
<g id="a_node24"><a xlink:title="23, diversity: 1, multiplicities: 24, labels: 3">
<ellipse fill="#228a44" stroke="black" cx="368.196" cy="-162" rx="41.6928" ry="18"/>
<text text-anchor="middle" x="368.196" y="-158.3" font-family="Times,serif" font-size="14.00">23 (1): 3</text>
</a>
</g>
</g>
<!-- 24 -->
<g id="node25" class="node"><title>24</title>
<g id="a_node25"><a xlink:title="24, diversity: 2, multiplicities: 1,92, labels: 3,2">
<ellipse fill="#73c476" stroke="black" cx="444.196" cy="-666" rx="48.1917" ry="18"/>
<text text-anchor="middle" x="444.196" y="-662.3" font-family="Times,serif" font-size="14.00">24 (2): 3,2</text>
</a>
</g>
</g>
<!-- 24&#45;&gt;10 -->
<g id="edge38" class="edge"><title>24&#45;&gt;10</title>
<path fill="none" stroke="black" d="M402.967,-656.542C352.86,-646.222 265.758,-628.148 191.196,-612 181.385,-609.875 170.871,-607.553 160.888,-605.326"/>
<polygon fill="black" stroke="black" points="161.651,-601.91 151.128,-603.142 160.123,-608.741 161.651,-601.91"/>
</g>
<!-- 24&#45;&gt;18 -->
<g id="edge25" class="edge"><title>24&#45;&gt;18</title>
<path fill="none" stroke="black" d="M409.93,-653.125C374.901,-640.987 320.49,-622.131 283.197,-609.208"/>
<polygon fill="black" stroke="black" points="284.23,-605.862 273.636,-605.895 281.938,-612.476 284.23,-605.862"/>
</g>
<!-- 37 -->
<g id="node38" class="node"><title>37</title>
<g id="a_node38"><a xlink:title="37, diversity: 1, multiplicities: 24, labels: 3">
<ellipse fill="#228a44" stroke="black" cx="343.196" cy="-594" rx="41.6928" ry="18"/>
<text text-anchor="middle" x="343.196" y="-590.3" font-family="Times,serif" font-size="14.00">37 (1): 3</text>
</a>
</g>
</g>
<!-- 24&#45;&gt;37 -->
<g id="edge52" class="edge"><title>24&#45;&gt;37</title>
<path fill="none" stroke="black" d="M422.281,-649.811C407.791,-639.769 388.619,-626.482 372.782,-615.505"/>
<polygon fill="black" stroke="black" points="374.589,-612.499 364.377,-609.68 370.602,-618.253 374.589,-612.499"/>
</g>
<!-- 43 -->
<g id="node44" class="node"><title>43</title>
<g id="a_node44"><a xlink:title="43, diversity: 2, multiplicities: 1,2, labels: 3">
<ellipse fill="#228a44" stroke="black" cx="444.196" cy="-594" rx="41.6928" ry="18"/>
<text text-anchor="middle" x="444.196" y="-590.3" font-family="Times,serif" font-size="14.00">43 (2): 3</text>
</a>
</g>
</g>
<!-- 24&#45;&gt;43 -->
<g id="edge37" class="edge"><title>24&#45;&gt;43</title>
<path fill="none" stroke="black" d="M444.196,-647.697C444.196,-639.983 444.196,-630.712 444.196,-622.112"/>
<polygon fill="black" stroke="black" points="447.696,-622.104 444.196,-612.104 440.696,-622.104 447.696,-622.104"/>
</g>
<!-- 51 -->
<g id="node52" class="node"><title>51</title>
<g id="a_node52"><a xlink:title="51, diversity: 1, multiplicities: 5, labels: 3">
<ellipse fill="#228a44" stroke="black" cx="545.196" cy="-594" rx="41.6928" ry="18"/>
<text text-anchor="middle" x="545.196" y="-590.3" font-family="Times,serif" font-size="14.00">51 (1): 3</text>
</a>
</g>
</g>
<!-- 24&#45;&gt;51 -->
<g id="edge22" class="edge"><title>24&#45;&gt;51</title>
<path fill="none" stroke="black" d="M466.112,-649.811C480.601,-639.769 499.773,-626.482 515.611,-615.505"/>
<polygon fill="black" stroke="black" points="517.79,-618.253 524.015,-609.68 513.803,-612.499 517.79,-618.253"/>
</g>
<!-- 53 -->
<g id="node54" class="node"><title>53</title>
<g id="a_node54"><a xlink:title="53, diversity: 1, multiplicities: 3, labels: 3">
<ellipse fill="#228a44" stroke="black" cx="646.196" cy="-594" rx="41.6928" ry="18"/>
<text text-anchor="middle" x="646.196" y="-590.3" font-family="Times,serif" font-size="14.00">53 (1): 3</text>
</a>
</g>
</g>
<!-- 24&#45;&gt;53 -->
<g id="edge56" class="edge"><title>24&#45;&gt;53</title>
<path fill="none" stroke="black" d="M478.463,-653.125C513.491,-640.987 567.902,-622.131 605.195,-609.208"/>
<polygon fill="black" stroke="black" points="606.454,-612.476 614.757,-605.895 604.162,-605.862 606.454,-612.476"/>
</g>
<!-- 25 -->
<g id="node26" class="node"><title>25</title>
<g id="a_node26"><a xlink:title="25, diversity: 1, multiplicities: 6, labels: 3">
<ellipse fill="#228a44" stroke="black" cx="244.196" cy="-522" rx="41.6928" ry="18"/>
<text text-anchor="middle" x="244.196" y="-518.3" font-family="Times,serif" font-size="14.00">25 (1): 3</text>
</a>
</g>
</g>
<!-- 27 -->
<g id="node28" class="node"><title>27</title>
<g id="a_node28"><a xlink:title="27, diversity: 1, multiplicities: 5, labels: 3">
<ellipse fill="#228a44" stroke="black" cx="145.196" cy="-450" rx="41.6928" ry="18"/>
<text text-anchor="middle" x="145.196" y="-446.3" font-family="Times,serif" font-size="14.00">27 (1): 3</text>
</a>
</g>
</g>
<!-- 25&#45;&gt;27 -->
<g id="edge12" class="edge"><title>25&#45;&gt;27</title>
<path fill="none" stroke="black" d="M223.201,-506.155C209.025,-496.132 190.119,-482.763 174.469,-471.698"/>
<polygon fill="black" stroke="black" points="176.347,-468.739 166.161,-465.824 172.306,-474.455 176.347,-468.739"/>
</g>
<!-- 63 -->
<g id="node64" class="node"><title>63</title>
<g id="a_node64"><a xlink:title="63, diversity: 1, multiplicities: 1, labels: 3">
<ellipse fill="#228a44" stroke="black" cx="246.196" cy="-450" rx="41.6928" ry="18"/>
<text text-anchor="middle" x="246.196" y="-446.3" font-family="Times,serif" font-size="14.00">63 (1): 3</text>
</a>
</g>
</g>
<!-- 25&#45;&gt;63 -->
<g id="edge60" class="edge"><title>25&#45;&gt;63</title>
<path fill="none" stroke="black" d="M244.69,-503.697C244.911,-495.983 245.176,-486.712 245.421,-478.112"/>
<polygon fill="black" stroke="black" points="248.92,-478.2 245.707,-468.104 241.923,-478 248.92,-478.2"/>
</g>
<!-- 26 -->
<g id="node27" class="node"><title>26</title>
<g id="a_node27"><a xlink:title="26, diversity: 1, multiplicities: 3, labels: 3">
<ellipse fill="#228a44" stroke="black" cx="1228.2" cy="-594" rx="41.6928" ry="18"/>
<text text-anchor="middle" x="1228.2" y="-590.3" font-family="Times,serif" font-size="14.00">26 (1): 3</text>
</a>
</g>
</g>
<!-- 26&#45;&gt;7 -->
<g id="edge36" class="edge"><title>26&#45;&gt;7</title>
<path fill="none" stroke="black" d="M1228.2,-575.697C1228.2,-567.983 1228.2,-558.712 1228.2,-550.112"/>
<polygon fill="black" stroke="black" points="1231.7,-550.104 1228.2,-540.104 1224.7,-550.104 1231.7,-550.104"/>
</g>
<!-- 28 -->
<g id="node29" class="node"><title>28</title>
<g id="a_node29"><a xlink:title="28, diversity: 1, multiplicities: 2, labels: 3">
<ellipse fill="#228a44" stroke="black" cx="1026.2" cy="-810" rx="41.6928" ry="18"/>
<text text-anchor="middle" x="1026.2" y="-806.3" font-family="Times,serif" font-size="14.00">28 (1): 3</text>
</a>
</g>
</g>
<!-- 41 -->
<g id="node42" class="node"><title>41</title>
<g id="a_node42"><a xlink:title="41, diversity: 1, multiplicities: 1, labels: 3">
<ellipse fill="#228a44" stroke="black" cx="1026.2" cy="-738" rx="41.6928" ry="18"/>
<text text-anchor="middle" x="1026.2" y="-734.3" font-family="Times,serif" font-size="14.00">41 (1): 3</text>
</a>
</g>
</g>
<!-- 28&#45;&gt;41 -->
<g id="edge8" class="edge"><title>28&#45;&gt;41</title>
<path fill="none" stroke="black" d="M1026.2,-791.697C1026.2,-783.983 1026.2,-774.712 1026.2,-766.112"/>
<polygon fill="black" stroke="black" points="1029.7,-766.104 1026.2,-756.104 1022.7,-766.104 1029.7,-766.104"/>
</g>
<!-- 35 -->
<g id="node36" class="node"><title>35</title>
<g id="a_node36"><a xlink:title="35, diversity: 1, multiplicities: 12, labels: 3">
<ellipse fill="#228a44" stroke="black" cx="273.196" cy="-306" rx="41.6928" ry="18"/>
<text text-anchor="middle" x="273.196" y="-302.3" font-family="Times,serif" font-size="14.00">35 (1): 3</text>
</a>
</g>
</g>
<!-- 29&#45;&gt;35 -->
<g id="edge14" class="edge"><title>29&#45;&gt;35</title>
<path fill="none" stroke="black" d="M328.858,-361.116C319.376,-351.897 307.269,-340.127 296.77,-329.919"/>
<polygon fill="black" stroke="black" points="299.079,-327.283 289.469,-322.821 294.2,-332.302 299.079,-327.283"/>
</g>
<!-- 30 -->
<g id="node31" class="node"><title>30</title>
<g id="a_node31"><a xlink:title="30, diversity: 1, multiplicities: 1, labels: 3">
<ellipse fill="#228a44" stroke="black" cx="747.196" cy="-666" rx="41.6928" ry="18"/>
<text text-anchor="middle" x="747.196" y="-662.3" font-family="Times,serif" font-size="14.00">30 (1): 3</text>
</a>
</g>
</g>
<!-- 60 -->
<g id="node61" class="node"><title>60</title>
<g id="a_node61"><a xlink:title="60, diversity: 1, multiplicities: 1, labels: 3">
<ellipse fill="#228a44" stroke="black" cx="747.196" cy="-594" rx="41.6928" ry="18"/>
<text text-anchor="middle" x="747.196" y="-590.3" font-family="Times,serif" font-size="14.00">60 (1): 3</text>
</a>
</g>
</g>
<!-- 30&#45;&gt;60 -->
<g id="edge10" class="edge"><title>30&#45;&gt;60</title>
<path fill="none" stroke="black" d="M747.196,-647.697C747.196,-639.983 747.196,-630.712 747.196,-622.112"/>
<polygon fill="black" stroke="black" points="750.696,-622.104 747.196,-612.104 743.696,-622.104 750.696,-622.104"/>
</g>
<!-- 31&#45;&gt;24 -->
<g id="edge50" class="edge"><title>31&#45;&gt;24</title>
<path fill="none" stroke="black" d="M805.343,-729.575C730.853,-716.668 577.731,-690.137 496.878,-676.128"/>
<polygon fill="black" stroke="black" points="497.363,-672.66 486.913,-674.401 496.168,-679.557 497.363,-672.66"/>
</g>
<!-- 31&#45;&gt;30 -->
<g id="edge19" class="edge"><title>31&#45;&gt;30</title>
<path fill="none" stroke="black" d="M826.281,-721.811C811.791,-711.769 792.619,-698.482 776.782,-687.505"/>
<polygon fill="black" stroke="black" points="778.589,-684.499 768.377,-681.68 774.602,-690.253 778.589,-684.499"/>
</g>
<!-- 32 -->
<g id="node33" class="node"><title>32</title>
<g id="a_node33"><a xlink:title="32, diversity: 1, multiplicities: 1, labels: 3">
<ellipse fill="#228a44" stroke="black" cx="848.196" cy="-666" rx="41.6928" ry="18"/>
<text text-anchor="middle" x="848.196" y="-662.3" font-family="Times,serif" font-size="14.00">32 (1): 3</text>
</a>
</g>
</g>
<!-- 31&#45;&gt;32 -->
<g id="edge27" class="edge"><title>31&#45;&gt;32</title>
<path fill="none" stroke="black" d="M848.196,-719.697C848.196,-711.983 848.196,-702.712 848.196,-694.112"/>
<polygon fill="black" stroke="black" points="851.696,-694.104 848.196,-684.104 844.696,-694.104 851.696,-694.104"/>
</g>
<!-- 46 -->
<g id="node47" class="node"><title>46</title>
<g id="a_node47"><a xlink:title="46, diversity: 1, multiplicities: 10, labels: 3">
<ellipse fill="#228a44" stroke="black" cx="949.196" cy="-666" rx="41.6928" ry="18"/>
<text text-anchor="middle" x="949.196" y="-662.3" font-family="Times,serif" font-size="14.00">46 (1): 3</text>
</a>
</g>
</g>
<!-- 31&#45;&gt;46 -->
<g id="edge44" class="edge"><title>31&#45;&gt;46</title>
<path fill="none" stroke="black" d="M870.112,-721.811C884.601,-711.769 903.773,-698.482 919.611,-687.505"/>
<polygon fill="black" stroke="black" points="921.79,-690.253 928.015,-681.68 917.803,-684.499 921.79,-690.253"/>
</g>
<!-- 32&#45;&gt;9 -->
<g id="edge15" class="edge"><title>32&#45;&gt;9</title>
<path fill="none" stroke="black" d="M848.196,-647.697C848.196,-639.983 848.196,-630.712 848.196,-622.112"/>
<polygon fill="black" stroke="black" points="851.696,-622.104 848.196,-612.104 844.696,-622.104 851.696,-622.104"/>
</g>
<!-- 69 -->
<g id="node70" class="node"><title>69</title>
<g id="a_node70"><a xlink:title="69, diversity: 1, multiplicities: 9, labels: 3">
<ellipse fill="#228a44" stroke="black" cx="949.196" cy="-162" rx="41.6928" ry="18"/>
<text text-anchor="middle" x="949.196" y="-158.3" font-family="Times,serif" font-size="14.00">69 (1): 3</text>
</a>
</g>
</g>
<!-- 33&#45;&gt;69 -->
<g id="edge61" class="edge"><title>33&#45;&gt;69</title>
<path fill="none" stroke="black" d="M949.196,-215.697C949.196,-207.983 949.196,-198.712 949.196,-190.112"/>
<polygon fill="black" stroke="black" points="952.696,-190.104 949.196,-180.104 945.696,-190.104 952.696,-190.104"/>
</g>
<!-- 34 -->
<g id="node35" class="node"><title>34</title>
<g id="a_node35"><a xlink:title="34, diversity: 1, multiplicities: 5, labels: 3">
<ellipse fill="#228a44" stroke="black" cx="1127.2" cy="-738" rx="41.6928" ry="18"/>
<text text-anchor="middle" x="1127.2" y="-734.3" font-family="Times,serif" font-size="14.00">34 (1): 3</text>
</a>
</g>
</g>
<!-- 67 -->
<g id="node68" class="node"><title>67</title>
<g id="a_node68"><a xlink:title="67, diversity: 1, multiplicities: 7, labels: 1,0">
<ellipse fill="#f7fcf5" stroke="black" cx="807.196" cy="-234" rx="48.1917" ry="18"/>
<text text-anchor="middle" x="807.196" y="-230.3" font-family="Times,serif" font-size="14.00">67 (1): 1,0</text>
</a>
</g>
</g>
<!-- 36&#45;&gt;67 -->
<g id="edge3" class="edge"><title>36&#45;&gt;67</title>
<path fill="none" stroke="black" d="M761.112,-288.765C768.577,-280.056 777.927,-269.147 786.252,-259.435"/>
<polygon fill="black" stroke="black" points="789.088,-261.504 792.939,-251.633 783.774,-256.948 789.088,-261.504"/>
</g>
<!-- 37&#45;&gt;25 -->
<g id="edge47" class="edge"><title>37&#45;&gt;25</title>
<path fill="none" stroke="black" d="M322.201,-578.155C308.025,-568.132 289.119,-554.763 273.469,-543.698"/>
<polygon fill="black" stroke="black" points="275.347,-540.739 265.161,-537.824 271.306,-546.455 275.347,-540.739"/>
</g>
<!-- 39 -->
<g id="node40" class="node"><title>39</title>
<g id="a_node40"><a xlink:title="39, diversity: 1, multiplicities: 4, labels: 3">
<ellipse fill="#228a44" stroke="black" cx="345.196" cy="-522" rx="41.6928" ry="18"/>
<text text-anchor="middle" x="345.196" y="-518.3" font-family="Times,serif" font-size="14.00">39 (1): 3</text>
</a>
</g>
</g>
<!-- 37&#45;&gt;39 -->
<g id="edge28" class="edge"><title>37&#45;&gt;39</title>
<path fill="none" stroke="black" d="M343.69,-575.697C343.911,-567.983 344.176,-558.712 344.421,-550.112"/>
<polygon fill="black" stroke="black" points="347.92,-550.2 344.707,-540.104 340.923,-550 347.92,-550.2"/>
</g>
<!-- 38 -->
<g id="node39" class="node"><title>38</title>
<g id="a_node39"><a xlink:title="38, diversity: 1, multiplicities: 3, labels: 3">
<ellipse fill="#228a44" stroke="black" cx="856.196" cy="-378" rx="41.6928" ry="18"/>
<text text-anchor="middle" x="856.196" y="-374.3" font-family="Times,serif" font-size="14.00">38 (1): 3</text>
</a>
</g>
</g>
<!-- 38&#45;&gt;21 -->
<g id="edge13" class="edge"><title>38&#45;&gt;21</title>
<path fill="none" stroke="black" d="M876.376,-361.811C889.505,-351.929 906.808,-338.905 921.254,-328.032"/>
<polygon fill="black" stroke="black" points="923.49,-330.729 929.375,-321.919 919.281,-325.136 923.49,-330.729"/>
</g>
<!-- 39&#45;&gt;6 -->
<g id="edge4" class="edge"><title>39&#45;&gt;6</title>
<path fill="none" stroke="black" d="M345.196,-503.697C345.196,-495.983 345.196,-486.712 345.196,-478.112"/>
<polygon fill="black" stroke="black" points="348.696,-478.104 345.196,-468.104 341.696,-478.104 348.696,-478.104"/>
</g>
<!-- 40&#45;&gt;22 -->
<g id="edge7" class="edge"><title>40&#45;&gt;22</title>
<path fill="none" stroke="black" d="M996.677,-867.669C972.005,-856.527 936.639,-840.555 909.736,-828.405"/>
<polygon fill="black" stroke="black" points="911.16,-825.208 900.605,-824.282 908.278,-831.587 911.16,-825.208"/>
</g>
<!-- 40&#45;&gt;28 -->
<g id="edge35" class="edge"><title>40&#45;&gt;28</title>
<path fill="none" stroke="black" d="M1026.2,-863.697C1026.2,-855.983 1026.2,-846.712 1026.2,-838.112"/>
<polygon fill="black" stroke="black" points="1029.7,-838.104 1026.2,-828.104 1022.7,-838.104 1029.7,-838.104"/>
</g>
<!-- 56 -->
<g id="node57" class="node"><title>56</title>
<g id="a_node57"><a xlink:title="56, diversity: 1, multiplicities: 2, labels: 3">
<ellipse fill="#228a44" stroke="black" cx="1127.2" cy="-810" rx="41.6928" ry="18"/>
<text text-anchor="middle" x="1127.2" y="-806.3" font-family="Times,serif" font-size="14.00">56 (1): 3</text>
</a>
</g>
</g>
<!-- 40&#45;&gt;56 -->
<g id="edge23" class="edge"><title>40&#45;&gt;56</title>
<path fill="none" stroke="black" d="M1048.11,-865.811C1062.6,-855.769 1081.77,-842.482 1097.61,-831.505"/>
<polygon fill="black" stroke="black" points="1099.79,-834.253 1106.02,-825.68 1095.8,-828.499 1099.79,-834.253"/>
</g>
<!-- 41&#45;&gt;11 -->
<g id="edge68" class="edge"><title>41&#45;&gt;11</title>
<path fill="none" stroke="black" d="M1032.01,-720.055C1034.71,-712.176 1037.98,-702.617 1041.01,-693.794"/>
<polygon fill="black" stroke="black" points="1044.34,-694.87 1044.27,-684.275 1037.72,-692.6 1044.34,-694.87"/>
</g>
<!-- 66 -->
<g id="node67" class="node"><title>66</title>
<g id="a_node67"><a xlink:title="66, diversity: 1, multiplicities: 311, labels: 1,3,2">
<ellipse fill="#c7e9c0" stroke="black" cx="253.196" cy="-162" rx="55.4913" ry="18"/>
<text text-anchor="middle" x="253.196" y="-158.3" font-family="Times,serif" font-size="14.00">66 (1): 1,3,2</text>
</a>
</g>
</g>
<!-- 42&#45;&gt;66 -->
<g id="edge58" class="edge"><title>42&#45;&gt;66</title>
<path fill="none" stroke="black" d="M254.702,-215.697C254.481,-207.983 254.216,-198.712 253.971,-190.112"/>
<polygon fill="black" stroke="black" points="257.469,-190 253.685,-180.104 250.472,-190.2 257.469,-190"/>
</g>
<!-- 43&#45;&gt;8 -->
<g id="edge6" class="edge"><title>43&#45;&gt;8</title>
<path fill="none" stroke="black" d="M444.196,-575.697C444.196,-567.983 444.196,-558.712 444.196,-550.112"/>
<polygon fill="black" stroke="black" points="447.696,-550.104 444.196,-540.104 440.696,-550.104 447.696,-550.104"/>
</g>
<!-- 44&#45;&gt;4 -->
<g id="edge1" class="edge"><title>44&#45;&gt;4</title>
<path fill="none" stroke="black" d="M44.1961,-287.697C44.1961,-279.983 44.1961,-270.712 44.1961,-262.112"/>
<polygon fill="black" stroke="black" points="47.6962,-262.104 44.1961,-252.104 40.6962,-262.104 47.6962,-262.104"/>
</g>
<!-- 45&#45;&gt;15 -->
<g id="edge64" class="edge"><title>45&#45;&gt;15</title>
<path fill="none" stroke="black" d="M1228.2,-431.697C1228.2,-423.983 1228.2,-414.712 1228.2,-406.112"/>
<polygon fill="black" stroke="black" points="1231.7,-406.104 1228.2,-396.104 1224.7,-406.104 1231.7,-406.104"/>
</g>
<!-- 47&#45;&gt;23 -->
<g id="edge41" class="edge"><title>47&#45;&gt;23</title>
<path fill="none" stroke="black" d="M366.69,-215.697C366.911,-207.983 367.176,-198.712 367.421,-190.112"/>
<polygon fill="black" stroke="black" points="370.92,-190.2 367.707,-180.104 363.923,-190 370.92,-190.2"/>
</g>
<!-- 48&#45;&gt;3 -->
<g id="edge46" class="edge"><title>48&#45;&gt;3</title>
<path fill="none" stroke="black" d="M1050.2,-575.697C1050.2,-567.983 1050.2,-558.712 1050.2,-550.112"/>
<polygon fill="black" stroke="black" points="1053.7,-550.104 1050.2,-540.104 1046.7,-550.104 1053.7,-550.104"/>
</g>
<!-- 50 -->
<g id="node51" class="node"><title>50</title>
<g id="a_node51"><a xlink:title="50, diversity: 1, multiplicities: 6, labels: 3,2">
<ellipse fill="#73c476" stroke="black" cx="1026.2" cy="-1026" rx="48.1917" ry="18"/>
<text text-anchor="middle" x="1026.2" y="-1022.3" font-family="Times,serif" font-size="14.00">50 (1): 3,2</text>
</a>
</g>
</g>
<!-- 50&#45;&gt;13 -->
<g id="edge59" class="edge"><title>50&#45;&gt;13</title>
<path fill="none" stroke="black" d="M1026.2,-1007.7C1026.2,-999.983 1026.2,-990.712 1026.2,-982.112"/>
<polygon fill="black" stroke="black" points="1029.7,-982.104 1026.2,-972.104 1022.7,-982.104 1029.7,-982.104"/>
</g>
<!-- 53&#45;&gt;12 -->
<g id="edge54" class="edge"><title>53&#45;&gt;12</title>
<path fill="none" stroke="black" d="M646.196,-575.697C646.196,-567.983 646.196,-558.712 646.196,-550.112"/>
<polygon fill="black" stroke="black" points="649.696,-550.104 646.196,-540.104 642.696,-550.104 649.696,-550.104"/>
</g>
<!-- 62 -->
<g id="node63" class="node"><title>62</title>
<g id="a_node63"><a xlink:title="62, diversity: 1, multiplicities: 1, labels: 3">
<ellipse fill="#228a44" stroke="black" cx="44.1961" cy="-450" rx="41.6928" ry="18"/>
<text text-anchor="middle" x="44.1961" y="-446.3" font-family="Times,serif" font-size="14.00">62 (1): 3</text>
</a>
</g>
</g>
<!-- 54&#45;&gt;62 -->
<g id="edge70" class="edge"><title>54&#45;&gt;62</title>
<path fill="none" stroke="black" d="M63.1443,-504.055C60.3304,-496.176 56.9163,-486.617 53.7654,-477.794"/>
<polygon fill="black" stroke="black" points="57.0254,-476.516 50.3658,-468.275 50.4332,-478.87 57.0254,-476.516"/>
</g>
<!-- 55 -->
<g id="node56" class="node"><title>55</title>
<g id="a_node56"><a xlink:title="55, diversity: 1, multiplicities: 2, labels: 3">
<ellipse fill="#228a44" stroke="black" cx="747.196" cy="-522" rx="41.6928" ry="18"/>
<text text-anchor="middle" x="747.196" y="-518.3" font-family="Times,serif" font-size="14.00">55 (1): 3</text>
</a>
</g>
</g>
<!-- 55&#45;&gt;14 -->
<g id="edge67" class="edge"><title>55&#45;&gt;14</title>
<path fill="none" stroke="black" d="M747.196,-503.697C747.196,-495.983 747.196,-486.712 747.196,-478.112"/>
<polygon fill="black" stroke="black" points="750.696,-478.104 747.196,-468.104 743.696,-478.104 750.696,-478.104"/>
</g>
<!-- 56&#45;&gt;34 -->
<g id="edge42" class="edge"><title>56&#45;&gt;34</title>
<path fill="none" stroke="black" d="M1127.2,-791.697C1127.2,-783.983 1127.2,-774.712 1127.2,-766.112"/>
<polygon fill="black" stroke="black" points="1130.7,-766.104 1127.2,-756.104 1123.7,-766.104 1130.7,-766.104"/>
</g>
<!-- 61 -->
<g id="node62" class="node"><title>61</title>
<g id="a_node62"><a xlink:title="61, diversity: 1, multiplicities: 1, labels: 3">
<ellipse fill="#228a44" stroke="black" cx="1228.2" cy="-738" rx="41.6928" ry="18"/>
<text text-anchor="middle" x="1228.2" y="-734.3" font-family="Times,serif" font-size="14.00">61 (1): 3</text>
</a>
</g>
</g>
<!-- 56&#45;&gt;61 -->
<g id="edge24" class="edge"><title>56&#45;&gt;61</title>
<path fill="none" stroke="black" d="M1148.62,-794.155C1163.18,-784.064 1182.63,-770.583 1198.65,-759.474"/>
<polygon fill="black" stroke="black" points="1200.93,-762.157 1207.15,-753.584 1196.94,-756.403 1200.93,-762.157"/>
</g>
<!-- 57&#45;&gt;1 -->
<g id="edge33" class="edge"><title>57&#45;&gt;1</title>
<path fill="none" stroke="black" d="M646.196,-431.697C646.196,-423.983 646.196,-414.712 646.196,-406.112"/>
<polygon fill="black" stroke="black" points="649.696,-406.104 646.196,-396.104 642.696,-406.104 649.696,-406.104"/>
</g>
<!-- 57&#45;&gt;38 -->
<g id="edge29" class="edge"><title>57&#45;&gt;38</title>
<path fill="none" stroke="black" d="M677.924,-438.171C683.987,-436.113 690.285,-433.984 696.196,-432 736.295,-418.542 782.122,-403.385 814.424,-392.737"/>
<polygon fill="black" stroke="black" points="815.59,-396.038 823.993,-389.585 813.4,-389.39 815.59,-396.038"/>
</g>
<!-- 58 -->
<g id="node59" class="node"><title>58</title>
<g id="a_node59"><a xlink:title="58, diversity: 1, multiplicities: 6, labels: 3">
<ellipse fill="#228a44" stroke="black" cx="1228.2" cy="-666" rx="41.6928" ry="18"/>
<text text-anchor="middle" x="1228.2" y="-662.3" font-family="Times,serif" font-size="14.00">58 (1): 3</text>
</a>
</g>
</g>
<!-- 58&#45;&gt;26 -->
<g id="edge57" class="edge"><title>58&#45;&gt;26</title>
<path fill="none" stroke="black" d="M1228.2,-647.697C1228.2,-639.983 1228.2,-630.712 1228.2,-622.112"/>
<polygon fill="black" stroke="black" points="1231.7,-622.104 1228.2,-612.104 1224.7,-622.104 1231.7,-622.104"/>
</g>
<!-- 60&#45;&gt;55 -->
<g id="edge63" class="edge"><title>60&#45;&gt;55</title>
<path fill="none" stroke="black" d="M747.196,-575.697C747.196,-567.983 747.196,-558.712 747.196,-550.112"/>
<polygon fill="black" stroke="black" points="750.696,-550.104 747.196,-540.104 743.696,-550.104 750.696,-550.104"/>
</g>
<!-- 61&#45;&gt;58 -->
<g id="edge62" class="edge"><title>61&#45;&gt;58</title>
<path fill="none" stroke="black" d="M1228.2,-719.697C1228.2,-711.983 1228.2,-702.712 1228.2,-694.112"/>
<polygon fill="black" stroke="black" points="1231.7,-694.104 1228.2,-684.104 1224.7,-694.104 1231.7,-694.104"/>
</g>
<!-- 62&#45;&gt;17 -->
<g id="edge11" class="edge"><title>62&#45;&gt;17</title>
<path fill="none" stroke="black" d="M44.1961,-431.697C44.1961,-423.983 44.1961,-414.712 44.1961,-406.112"/>
<polygon fill="black" stroke="black" points="47.6962,-406.104 44.1961,-396.104 40.6962,-406.104 47.6962,-406.104"/>
</g>
<!-- 63&#45;&gt;16 -->
<g id="edge48" class="edge"><title>63&#45;&gt;16</title>
<path fill="none" stroke="black" d="M245.702,-431.697C245.481,-423.983 245.216,-414.712 244.971,-406.112"/>
<polygon fill="black" stroke="black" points="248.469,-406 244.685,-396.104 241.472,-406.2 248.469,-406"/>
</g>
<!-- 65 -->
<g id="node66" class="node"><title>65</title>
<g id="a_node66"><a xlink:title="65, diversity: 1, multiplicities: 33, labels: 1,3">
<ellipse fill="#c7e9c0" stroke="black" cx="253.196" cy="-90" rx="48.1917" ry="18"/>
<text text-anchor="middle" x="253.196" y="-86.3" font-family="Times,serif" font-size="14.00">65 (1): 1,3</text>
</a>
</g>
</g>
<!-- 66&#45;&gt;65 -->
<g id="edge9" class="edge"><title>66&#45;&gt;65</title>
<path fill="none" stroke="black" d="M253.196,-143.697C253.196,-135.983 253.196,-126.712 253.196,-118.112"/>
<polygon fill="black" stroke="black" points="256.696,-118.104 253.196,-108.104 249.696,-118.104 256.696,-118.104"/>
</g>
<!-- 68 -->
<g id="node69" class="node"><title>68</title>
<g id="a_node69"><a xlink:title="68, diversity: 1, multiplicities: 24, labels: 1,0">
<ellipse fill="#f7fcf5" stroke="black" cx="949.196" cy="-18" rx="48.1917" ry="18"/>
<text text-anchor="middle" x="949.196" y="-14.3" font-family="Times,serif" font-size="14.00">68 (1): 1,0</text>
</a>
</g>
</g>
<!-- 70 -->
<g id="node71" class="node"><title>70</title>
<g id="a_node71"><a xlink:title="70, diversity: 1, multiplicities: 3, labels: 2">
<ellipse fill="#73c476" stroke="black" cx="949.196" cy="-90" rx="41.6928" ry="18"/>
<text text-anchor="middle" x="949.196" y="-86.3" font-family="Times,serif" font-size="14.00">70 (1): 2</text>
</a>
</g>
</g>
<!-- 69&#45;&gt;70 -->
<g id="edge32" class="edge"><title>69&#45;&gt;70</title>
<path fill="none" stroke="black" d="M949.196,-143.697C949.196,-135.983 949.196,-126.712 949.196,-118.112"/>
<polygon fill="black" stroke="black" points="952.696,-118.104 949.196,-108.104 945.696,-118.104 952.696,-118.104"/>
</g>
<!-- 70&#45;&gt;68 -->
<g id="edge5" class="edge"><title>70&#45;&gt;68</title>
<path fill="none" stroke="black" d="M949.196,-71.6966C949.196,-63.9827 949.196,-54.7125 949.196,-46.1124"/>
<polygon fill="black" stroke="black" points="952.696,-46.1043 949.196,-36.1043 945.696,-46.1044 952.696,-46.1043"/>
</g>
</g>
</svg>
