<?xml version="1.0" encoding="UTF-8" standalone="no"?>
<!DOCTYPE svg PUBLIC "-//W3C//DTD SVG 1.1//EN"
 "http://www.w3.org/Graphics/SVG/1.1/DTD/svg11.dtd">
<!-- Generated by graphviz version 2.38.0 (20140413.2041)
 -->
<!-- Title: %3 Pages: 1 -->
<svg width="533pt" height="764pt"
 viewBox="0.00 0.00 532.79 764.00" xmlns="http://www.w3.org/2000/svg" xmlns:xlink="http://www.w3.org/1999/xlink">
<g id="graph0" class="graph" transform="scale(1 1) rotate(0) translate(4 760)">
<title>%3</title>
<polygon fill="white" stroke="none" points="-4,4 -4,-760 528.791,-760 528.791,4 -4,4"/>
<!-- 0 -->
<g id="node1" class="node"><title>0</title>
<g id="a_node1"><a xlink:title="0, diversity: 1, multiplicities: 440, labels: 1,3,2">
<ellipse fill="#c7e9c0" stroke="black" cx="50.6955" cy="-450" rx="50.8918" ry="18"/>
<text text-anchor="middle" x="50.6955" y="-446.3" font-family="Times,serif" font-size="14.00">0 (1): 1,3,2</text>
</a>
</g>
</g>
<!-- 1 -->
<g id="node2" class="node"><title>1</title>
<g id="a_node2"><a xlink:title="1, diversity: 2, multiplicities: 8,25, labels: 0,3">
<ellipse fill="#f7fcf5" stroke="black" cx="50.6955" cy="-378" rx="44.393" ry="18"/>
<text text-anchor="middle" x="50.6955" y="-374.3" font-family="Times,serif" font-size="14.00">1 (2): 0,3</text>
</a>
</g>
</g>
<!-- 0&#45;&gt;1 -->
<g id="edge24" class="edge"><title>0&#45;&gt;1</title>
<path fill="none" stroke="black" d="M50.6955,-431.697C50.6955,-423.983 50.6955,-414.712 50.6955,-406.112"/>
<polygon fill="black" stroke="black" points="54.1956,-406.104 50.6955,-396.104 47.1956,-406.104 54.1956,-406.104"/>
</g>
<!-- 20 -->
<g id="node21" class="node"><title>20</title>
<g id="a_node21"><a xlink:title="20, diversity: 2, multiplicities: 1,3, labels: 3">
<ellipse fill="#228a44" stroke="black" cx="50.6955" cy="-306" rx="41.6928" ry="18"/>
<text text-anchor="middle" x="50.6955" y="-302.3" font-family="Times,serif" font-size="14.00">20 (2): 3</text>
</a>
</g>
</g>
<!-- 1&#45;&gt;20 -->
<g id="edge7" class="edge"><title>1&#45;&gt;20</title>
<path fill="none" stroke="black" d="M50.6955,-359.697C50.6955,-351.983 50.6955,-342.712 50.6955,-334.112"/>
<polygon fill="black" stroke="black" points="54.1956,-334.104 50.6955,-324.104 47.1956,-334.104 54.1956,-334.104"/>
</g>
<!-- 2 -->
<g id="node3" class="node"><title>2</title>
<g id="a_node3"><a xlink:title="2, diversity: 4, multiplicities: 8,15,45,66, labels: 1,0,3,2">
<ellipse fill="#f7fcf5" stroke="black" cx="262.696" cy="-666" rx="57.6901" ry="18"/>
<text text-anchor="middle" x="262.696" y="-662.3" font-family="Times,serif" font-size="14.00">2 (4): 1,0,3,2</text>
</a>
</g>
</g>
<!-- 3 -->
<g id="node4" class="node"><title>3</title>
<g id="a_node4"><a xlink:title="3, diversity: 4, multiplicities: 1,1,25,208, labels: 0,3,2">
<ellipse fill="#f7fcf5" stroke="black" cx="262.696" cy="-594" rx="50.8918" ry="18"/>
<text text-anchor="middle" x="262.696" y="-590.3" font-family="Times,serif" font-size="14.00">3 (4): 0,3,2</text>
</a>
</g>
</g>
<!-- 2&#45;&gt;3 -->
<g id="edge20" class="edge"><title>2&#45;&gt;3</title>
<path fill="none" stroke="black" d="M262.696,-647.697C262.696,-639.983 262.696,-630.712 262.696,-622.112"/>
<polygon fill="black" stroke="black" points="266.196,-622.104 262.696,-612.104 259.196,-622.104 266.196,-622.104"/>
</g>
<!-- 4 -->
<g id="node5" class="node"><title>4</title>
<g id="a_node5"><a xlink:title="4, diversity: 1, multiplicities: 1, labels: 3">
<ellipse fill="#228a44" stroke="black" cx="50.6955" cy="-594" rx="37.0935" ry="18"/>
<text text-anchor="middle" x="50.6955" y="-590.3" font-family="Times,serif" font-size="14.00">4 (1): 3</text>
</a>
</g>
</g>
<!-- 2&#45;&gt;4 -->
<g id="edge28" class="edge"><title>2&#45;&gt;4</title>
<path fill="none" stroke="black" d="M222.953,-652.862C189.22,-642.428 139.604,-626.77 96.6955,-612 94.142,-611.121 91.5151,-610.199 88.8722,-609.258"/>
<polygon fill="black" stroke="black" points="89.9282,-605.918 79.3339,-605.81 87.5485,-612.501 89.9282,-605.918"/>
</g>
<!-- 5 -->
<g id="node6" class="node"><title>5</title>
<g id="a_node6"><a xlink:title="5, diversity: 4, multiplicities: 1,1,1,149, labels: 0,3">
<ellipse fill="#f7fcf5" stroke="black" cx="149.696" cy="-594" rx="44.393" ry="18"/>
<text text-anchor="middle" x="149.696" y="-590.3" font-family="Times,serif" font-size="14.00">5 (4): 0,3</text>
</a>
</g>
</g>
<!-- 2&#45;&gt;5 -->
<g id="edge6" class="edge"><title>2&#45;&gt;5</title>
<path fill="none" stroke="black" d="M233.393,-650.326C216.036,-640.357 194.301,-627.022 177.26,-615.941"/>
<polygon fill="black" stroke="black" points="179.101,-612.963 168.825,-610.382 175.249,-618.807 179.101,-612.963"/>
</g>
<!-- 6 -->
<g id="node7" class="node"><title>6</title>
<g id="a_node7"><a xlink:title="6, diversity: 2, multiplicities: 10,106, labels: 3,2">
<ellipse fill="#73c476" stroke="black" cx="467.696" cy="-594" rx="44.393" ry="18"/>
<text text-anchor="middle" x="467.696" y="-590.3" font-family="Times,serif" font-size="14.00">6 (2): 3,2</text>
</a>
</g>
</g>
<!-- 2&#45;&gt;6 -->
<g id="edge17" class="edge"><title>2&#45;&gt;6</title>
<path fill="none" stroke="black" d="M297.227,-651.337C331.889,-638.919 385.241,-620.706 423.077,-608.378"/>
<polygon fill="black" stroke="black" points="424.388,-611.632 432.824,-605.222 422.232,-604.972 424.388,-611.632"/>
</g>
<!-- 9 -->
<g id="node10" class="node"><title>9</title>
<g id="a_node10"><a xlink:title="9, diversity: 1, multiplicities: 1, labels: 3">
<ellipse fill="#228a44" stroke="black" cx="368.696" cy="-594" rx="37.0935" ry="18"/>
<text text-anchor="middle" x="368.696" y="-590.3" font-family="Times,serif" font-size="14.00">9 (1): 3</text>
</a>
</g>
</g>
<!-- 2&#45;&gt;9 -->
<g id="edge11" class="edge"><title>2&#45;&gt;9</title>
<path fill="none" stroke="black" d="M286.22,-649.465C301.659,-639.269 321.991,-625.843 338.604,-614.872"/>
<polygon fill="black" stroke="black" points="340.98,-617.497 347.396,-609.066 337.123,-611.656 340.98,-617.497"/>
</g>
<!-- 13 -->
<g id="node14" class="node"><title>13</title>
<g id="a_node14"><a xlink:title="13, diversity: 1, multiplicities: 1, labels: 3">
<ellipse fill="#228a44" stroke="black" cx="262.696" cy="-522" rx="41.6928" ry="18"/>
<text text-anchor="middle" x="262.696" y="-518.3" font-family="Times,serif" font-size="14.00">13 (1): 3</text>
</a>
</g>
</g>
<!-- 3&#45;&gt;13 -->
<g id="edge18" class="edge"><title>3&#45;&gt;13</title>
<path fill="none" stroke="black" d="M262.696,-575.697C262.696,-567.983 262.696,-558.712 262.696,-550.112"/>
<polygon fill="black" stroke="black" points="266.196,-550.104 262.696,-540.104 259.196,-550.104 266.196,-550.104"/>
</g>
<!-- 8 -->
<g id="node9" class="node"><title>8</title>
<g id="a_node9"><a xlink:title="8, diversity: 1, multiplicities: 1, labels: 3">
<ellipse fill="#228a44" stroke="black" cx="50.6955" cy="-522" rx="37.0935" ry="18"/>
<text text-anchor="middle" x="50.6955" y="-518.3" font-family="Times,serif" font-size="14.00">8 (1): 3</text>
</a>
</g>
</g>
<!-- 4&#45;&gt;8 -->
<g id="edge1" class="edge"><title>4&#45;&gt;8</title>
<path fill="none" stroke="black" d="M50.6955,-575.697C50.6955,-567.983 50.6955,-558.712 50.6955,-550.112"/>
<polygon fill="black" stroke="black" points="54.1956,-550.104 50.6955,-540.104 47.1956,-550.104 54.1956,-550.104"/>
</g>
<!-- 5&#45;&gt;2 -->
<g id="edge27" class="edge"><title>5&#45;&gt;2</title>
<path fill="none" stroke="black" d="M176.769,-608.398C194.034,-618.239 216.246,-631.821 233.829,-643.214"/>
<polygon fill="black" stroke="black" points="232.272,-646.378 242.552,-648.941 236.113,-640.527 232.272,-646.378"/>
</g>
<!-- 6&#45;&gt;2 -->
<g id="edge25" class="edge"><title>6&#45;&gt;2</title>
<path fill="none" stroke="black" d="M437.156,-607.228C404.273,-619.08 351.67,-637.088 312.756,-649.844"/>
<polygon fill="black" stroke="black" points="311.601,-646.539 303.178,-652.967 313.771,-653.194 311.601,-646.539"/>
</g>
<!-- 23 -->
<g id="node24" class="node"><title>23</title>
<g id="a_node24"><a xlink:title="23, diversity: 1, multiplicities: 2, labels: 3">
<ellipse fill="#228a44" stroke="black" cx="472.696" cy="-522" rx="41.6928" ry="18"/>
<text text-anchor="middle" x="472.696" y="-518.3" font-family="Times,serif" font-size="14.00">23 (1): 3</text>
</a>
</g>
</g>
<!-- 6&#45;&gt;23 -->
<g id="edge26" class="edge"><title>6&#45;&gt;23</title>
<path fill="none" stroke="black" d="M468.931,-575.697C469.482,-567.983 470.145,-558.712 470.759,-550.112"/>
<polygon fill="black" stroke="black" points="474.252,-550.328 471.474,-540.104 467.27,-549.83 474.252,-550.328"/>
</g>
<!-- 7 -->
<g id="node8" class="node"><title>7</title>
<g id="a_node8"><a xlink:title="7, diversity: 1, multiplicities: 6, labels: 3">
<ellipse fill="#228a44" stroke="black" cx="467.696" cy="-738" rx="37.0935" ry="18"/>
<text text-anchor="middle" x="467.696" y="-734.3" font-family="Times,serif" font-size="14.00">7 (1): 3</text>
</a>
</g>
</g>
<!-- 10 -->
<g id="node11" class="node"><title>10</title>
<g id="a_node11"><a xlink:title="10, diversity: 1, multiplicities: 1, labels: 3">
<ellipse fill="#228a44" stroke="black" cx="467.696" cy="-666" rx="41.6928" ry="18"/>
<text text-anchor="middle" x="467.696" y="-662.3" font-family="Times,serif" font-size="14.00">10 (1): 3</text>
</a>
</g>
</g>
<!-- 7&#45;&gt;10 -->
<g id="edge15" class="edge"><title>7&#45;&gt;10</title>
<path fill="none" stroke="black" d="M467.696,-719.697C467.696,-711.983 467.696,-702.712 467.696,-694.112"/>
<polygon fill="black" stroke="black" points="471.196,-694.104 467.696,-684.104 464.196,-694.104 471.196,-694.104"/>
</g>
<!-- 8&#45;&gt;0 -->
<g id="edge21" class="edge"><title>8&#45;&gt;0</title>
<path fill="none" stroke="black" d="M50.6955,-503.697C50.6955,-495.983 50.6955,-486.712 50.6955,-478.112"/>
<polygon fill="black" stroke="black" points="54.1956,-478.104 50.6955,-468.104 47.1956,-478.104 54.1956,-478.104"/>
</g>
<!-- 22 -->
<g id="node23" class="node"><title>22</title>
<g id="a_node23"><a xlink:title="22, diversity: 1, multiplicities: 12, labels: 3">
<ellipse fill="#228a44" stroke="black" cx="368.696" cy="-522" rx="41.6928" ry="18"/>
<text text-anchor="middle" x="368.696" y="-518.3" font-family="Times,serif" font-size="14.00">22 (1): 3</text>
</a>
</g>
</g>
<!-- 9&#45;&gt;22 -->
<g id="edge3" class="edge"><title>9&#45;&gt;22</title>
<path fill="none" stroke="black" d="M368.696,-575.697C368.696,-567.983 368.696,-558.712 368.696,-550.112"/>
<polygon fill="black" stroke="black" points="372.196,-550.104 368.696,-540.104 365.196,-550.104 372.196,-550.104"/>
</g>
<!-- 10&#45;&gt;6 -->
<g id="edge2" class="edge"><title>10&#45;&gt;6</title>
<path fill="none" stroke="black" d="M467.696,-647.697C467.696,-639.983 467.696,-630.712 467.696,-622.112"/>
<polygon fill="black" stroke="black" points="471.196,-622.104 467.696,-612.104 464.196,-622.104 471.196,-622.104"/>
</g>
<!-- 11 -->
<g id="node12" class="node"><title>11</title>
<g id="a_node12"><a xlink:title="11, diversity: 1, multiplicities: 9, labels: 3">
<ellipse fill="#228a44" stroke="black" cx="261.696" cy="-162" rx="41.6928" ry="18"/>
<text text-anchor="middle" x="261.696" y="-158.3" font-family="Times,serif" font-size="14.00">11 (1): 3</text>
</a>
</g>
</g>
<!-- 12 -->
<g id="node13" class="node"><title>12</title>
<g id="a_node13"><a xlink:title="12, diversity: 2, multiplicities: 1,48, labels: 0,3">
<ellipse fill="#f7fcf5" stroke="black" cx="50.6955" cy="-18" rx="48.1917" ry="18"/>
<text text-anchor="middle" x="50.6955" y="-14.3" font-family="Times,serif" font-size="14.00">12 (2): 0,3</text>
</a>
</g>
</g>
<!-- 15 -->
<g id="node16" class="node"><title>15</title>
<g id="a_node16"><a xlink:title="15, diversity: 1, multiplicities: 1, labels: 3">
<ellipse fill="#228a44" stroke="black" cx="262.696" cy="-450" rx="41.6928" ry="18"/>
<text text-anchor="middle" x="262.696" y="-446.3" font-family="Times,serif" font-size="14.00">15 (1): 3</text>
</a>
</g>
</g>
<!-- 13&#45;&gt;15 -->
<g id="edge19" class="edge"><title>13&#45;&gt;15</title>
<path fill="none" stroke="black" d="M262.696,-503.697C262.696,-495.983 262.696,-486.712 262.696,-478.112"/>
<polygon fill="black" stroke="black" points="266.196,-478.104 262.696,-468.104 259.196,-478.104 266.196,-478.104"/>
</g>
<!-- 14 -->
<g id="node15" class="node"><title>14</title>
<g id="a_node15"><a xlink:title="14, diversity: 1, multiplicities: 38, labels: 3,2">
<ellipse fill="#73c476" stroke="black" cx="261.696" cy="-378" rx="48.1917" ry="18"/>
<text text-anchor="middle" x="261.696" y="-374.3" font-family="Times,serif" font-size="14.00">14 (1): 3,2</text>
</a>
</g>
</g>
<!-- 26 -->
<g id="node27" class="node"><title>26</title>
<g id="a_node27"><a xlink:title="26, diversity: 1, multiplicities: 1, labels: 3">
<ellipse fill="#228a44" stroke="black" cx="261.696" cy="-306" rx="41.6928" ry="18"/>
<text text-anchor="middle" x="261.696" y="-302.3" font-family="Times,serif" font-size="14.00">26 (1): 3</text>
</a>
</g>
</g>
<!-- 14&#45;&gt;26 -->
<g id="edge5" class="edge"><title>14&#45;&gt;26</title>
<path fill="none" stroke="black" d="M261.696,-359.697C261.696,-351.983 261.696,-342.712 261.696,-334.112"/>
<polygon fill="black" stroke="black" points="265.196,-334.104 261.696,-324.104 258.196,-334.104 265.196,-334.104"/>
</g>
<!-- 15&#45;&gt;14 -->
<g id="edge22" class="edge"><title>15&#45;&gt;14</title>
<path fill="none" stroke="black" d="M262.448,-431.697C262.338,-423.983 262.206,-414.712 262.083,-406.112"/>
<polygon fill="black" stroke="black" points="265.582,-406.053 261.94,-396.104 258.583,-406.153 265.582,-406.053"/>
</g>
<!-- 16 -->
<g id="node17" class="node"><title>16</title>
<g id="a_node17"><a xlink:title="16, diversity: 1, multiplicities: 11, labels: 3">
<ellipse fill="#228a44" stroke="black" cx="368.696" cy="-450" rx="41.6928" ry="18"/>
<text text-anchor="middle" x="368.696" y="-446.3" font-family="Times,serif" font-size="14.00">16 (1): 3</text>
</a>
</g>
</g>
<!-- 17 -->
<g id="node18" class="node"><title>17</title>
<g id="a_node18"><a xlink:title="17, diversity: 1, multiplicities: 8, labels: 3">
<ellipse fill="#228a44" stroke="black" cx="369.696" cy="-378" rx="41.6928" ry="18"/>
<text text-anchor="middle" x="369.696" y="-374.3" font-family="Times,serif" font-size="14.00">17 (1): 3</text>
</a>
</g>
</g>
<!-- 16&#45;&gt;17 -->
<g id="edge8" class="edge"><title>16&#45;&gt;17</title>
<path fill="none" stroke="black" d="M368.943,-431.697C369.053,-423.983 369.185,-414.712 369.308,-406.112"/>
<polygon fill="black" stroke="black" points="372.808,-406.153 369.451,-396.104 365.809,-406.053 372.808,-406.153"/>
</g>
<!-- 18 -->
<g id="node19" class="node"><title>18</title>
<g id="a_node19"><a xlink:title="18, diversity: 1, multiplicities: 41, labels: 3">
<ellipse fill="#228a44" stroke="black" cx="50.6955" cy="-90" rx="41.6928" ry="18"/>
<text text-anchor="middle" x="50.6955" y="-86.3" font-family="Times,serif" font-size="14.00">18 (1): 3</text>
</a>
</g>
</g>
<!-- 18&#45;&gt;12 -->
<g id="edge10" class="edge"><title>18&#45;&gt;12</title>
<path fill="none" stroke="black" d="M50.6955,-71.6966C50.6955,-63.9827 50.6955,-54.7125 50.6955,-46.1124"/>
<polygon fill="black" stroke="black" points="54.1956,-46.1043 50.6955,-36.1043 47.1956,-46.1044 54.1956,-46.1043"/>
</g>
<!-- 19 -->
<g id="node20" class="node"><title>19</title>
<g id="a_node20"><a xlink:title="19, diversity: 1, multiplicities: 1, labels: 3">
<ellipse fill="#228a44" stroke="black" cx="50.6955" cy="-162" rx="41.6928" ry="18"/>
<text text-anchor="middle" x="50.6955" y="-158.3" font-family="Times,serif" font-size="14.00">19 (1): 3</text>
</a>
</g>
</g>
<!-- 19&#45;&gt;18 -->
<g id="edge9" class="edge"><title>19&#45;&gt;18</title>
<path fill="none" stroke="black" d="M50.6955,-143.697C50.6955,-135.983 50.6955,-126.712 50.6955,-118.112"/>
<polygon fill="black" stroke="black" points="54.1956,-118.104 50.6955,-108.104 47.1956,-118.104 54.1956,-118.104"/>
</g>
<!-- 21 -->
<g id="node22" class="node"><title>21</title>
<g id="a_node22"><a xlink:title="21, diversity: 1, multiplicities: 2, labels: 3">
<ellipse fill="#228a44" stroke="black" cx="50.6955" cy="-234" rx="41.6928" ry="18"/>
<text text-anchor="middle" x="50.6955" y="-230.3" font-family="Times,serif" font-size="14.00">21 (1): 3</text>
</a>
</g>
</g>
<!-- 20&#45;&gt;21 -->
<g id="edge12" class="edge"><title>20&#45;&gt;21</title>
<path fill="none" stroke="black" d="M50.6955,-287.697C50.6955,-279.983 50.6955,-270.712 50.6955,-262.112"/>
<polygon fill="black" stroke="black" points="54.1956,-262.104 50.6955,-252.104 47.1956,-262.104 54.1956,-262.104"/>
</g>
<!-- 21&#45;&gt;19 -->
<g id="edge16" class="edge"><title>21&#45;&gt;19</title>
<path fill="none" stroke="black" d="M50.6955,-215.697C50.6955,-207.983 50.6955,-198.712 50.6955,-190.112"/>
<polygon fill="black" stroke="black" points="54.1956,-190.104 50.6955,-180.104 47.1956,-190.104 54.1956,-190.104"/>
</g>
<!-- 22&#45;&gt;16 -->
<g id="edge13" class="edge"><title>22&#45;&gt;16</title>
<path fill="none" stroke="black" d="M368.696,-503.697C368.696,-495.983 368.696,-486.712 368.696,-478.112"/>
<polygon fill="black" stroke="black" points="372.196,-478.104 368.696,-468.104 365.196,-478.104 372.196,-478.104"/>
</g>
<!-- 24 -->
<g id="node25" class="node"><title>24</title>
<g id="a_node25"><a xlink:title="24, diversity: 2, multiplicities: 2,24, labels: 3,2">
<ellipse fill="#73c476" stroke="black" cx="476.696" cy="-450" rx="48.1917" ry="18"/>
<text text-anchor="middle" x="476.696" y="-446.3" font-family="Times,serif" font-size="14.00">24 (2): 3,2</text>
</a>
</g>
</g>
<!-- 23&#45;&gt;24 -->
<g id="edge23" class="edge"><title>23&#45;&gt;24</title>
<path fill="none" stroke="black" d="M473.684,-503.697C474.125,-495.983 474.655,-486.712 475.146,-478.112"/>
<polygon fill="black" stroke="black" points="478.642,-478.288 475.718,-468.104 471.653,-477.888 478.642,-478.288"/>
</g>
<!-- 25 -->
<g id="node26" class="node"><title>25</title>
<g id="a_node26"><a xlink:title="25, diversity: 1, multiplicities: 1, labels: 3">
<ellipse fill="#228a44" stroke="black" cx="261.696" cy="-234" rx="41.6928" ry="18"/>
<text text-anchor="middle" x="261.696" y="-230.3" font-family="Times,serif" font-size="14.00">25 (1): 3</text>
</a>
</g>
</g>
<!-- 25&#45;&gt;11 -->
<g id="edge4" class="edge"><title>25&#45;&gt;11</title>
<path fill="none" stroke="black" d="M261.696,-215.697C261.696,-207.983 261.696,-198.712 261.696,-190.112"/>
<polygon fill="black" stroke="black" points="265.196,-190.104 261.696,-180.104 258.196,-190.104 265.196,-190.104"/>
</g>
<!-- 26&#45;&gt;25 -->
<g id="edge14" class="edge"><title>26&#45;&gt;25</title>
<path fill="none" stroke="black" d="M261.696,-287.697C261.696,-279.983 261.696,-270.712 261.696,-262.112"/>
<polygon fill="black" stroke="black" points="265.196,-262.104 261.696,-252.104 258.196,-262.104 265.196,-262.104"/>
</g>
</g>
</svg>
