<?xml version="1.0" encoding="UTF-8" standalone="no"?>
<!DOCTYPE svg PUBLIC "-//W3C//DTD SVG 1.1//EN"
 "http://www.w3.org/Graphics/SVG/1.1/DTD/svg11.dtd">
<!-- Generated by graphviz version 2.38.0 (20140413.2041)
 -->
<!-- Title: %3 Pages: 1 -->
<svg width="610pt" height="260pt"
 viewBox="0.00 0.00 610.00 260.00" xmlns="http://www.w3.org/2000/svg" xmlns:xlink="http://www.w3.org/1999/xlink">
<g id="graph0" class="graph" transform="scale(1 1) rotate(0) translate(4 256)">
<title>%3</title>
<polygon fill="white" stroke="none" points="-4,4 -4,-256 606,-256 606,4 -4,4"/>
<!-- p0 -->
<g id="node1" class="node"><title>p0</title>
<path fill="none" stroke="black" d="M47,-108C47,-108 12,-108 12,-108 6,-108 0,-102 0,-96 0,-96 0,-84 0,-84 0,-78 6,-72 12,-72 12,-72 47,-72 47,-72 53,-72 59,-78 59,-84 59,-84 59,-96 59,-96 59,-102 53,-108 47,-108"/>
<text text-anchor="middle" x="29.5" y="-86.3" font-family="Times,serif" font-size="14.00">path (9)</text>
</g>
<!-- v3 -->
<g id="node2" class="node"><title>v3</title>
<ellipse fill="none" stroke="black" cx="183.5" cy="-162" rx="27" ry="18"/>
<text text-anchor="middle" x="183.5" y="-158.3" font-family="Times,serif" font-size="14.00">3</text>
</g>
<!-- v3&#45;&gt;p0 -->
<g id="edge7" class="edge"><title>v3&#45;&gt;p0</title>
<path fill="none" stroke="black" d="M161.762,-151.119C137.523,-140.101 97.8402,-122.064 68.2547,-108.616"/>
<polygon fill="black" stroke="black" points="69.5881,-105.377 59.0361,-104.426 66.6915,-111.75 69.5881,-105.377"/>
</g>
<!-- p1 -->
<g id="node3" class="node"><title>p1</title>
<path fill="none" stroke="black" d="M124,-108C124,-108 89,-108 89,-108 83,-108 77,-102 77,-96 77,-96 77,-84 77,-84 77,-78 83,-72 89,-72 89,-72 124,-72 124,-72 130,-72 136,-78 136,-84 136,-84 136,-96 136,-96 136,-102 130,-108 124,-108"/>
<text text-anchor="middle" x="106.5" y="-86.3" font-family="Times,serif" font-size="14.00">path (8)</text>
</g>
<!-- v3&#45;&gt;p1 -->
<g id="edge2" class="edge"><title>v3&#45;&gt;p1</title>
<path fill="none" stroke="black" d="M167.918,-146.834C157.921,-137.746 144.682,-125.71 133.055,-115.141"/>
<polygon fill="black" stroke="black" points="135.078,-112.25 125.324,-108.113 130.369,-117.429 135.078,-112.25"/>
</g>
<!-- p2 -->
<g id="node4" class="node"><title>p2</title>
<path fill="none" stroke="black" d="M201,-108C201,-108 166,-108 166,-108 160,-108 154,-102 154,-96 154,-96 154,-84 154,-84 154,-78 160,-72 166,-72 166,-72 201,-72 201,-72 207,-72 213,-78 213,-84 213,-84 213,-96 213,-96 213,-102 207,-108 201,-108"/>
<text text-anchor="middle" x="183.5" y="-86.3" font-family="Times,serif" font-size="14.00">path (4)</text>
</g>
<!-- v3&#45;&gt;p2 -->
<g id="edge8" class="edge"><title>v3&#45;&gt;p2</title>
<path fill="none" stroke="black" d="M183.5,-143.697C183.5,-135.983 183.5,-126.712 183.5,-118.112"/>
<polygon fill="black" stroke="black" points="187,-118.104 183.5,-108.104 180,-118.104 187,-118.104"/>
</g>
<!-- v22 -->
<g id="node8" class="node"><title>v22</title>
<ellipse fill="none" stroke="black" cx="258.5" cy="-90" rx="27" ry="18"/>
<text text-anchor="middle" x="258.5" y="-86.3" font-family="Times,serif" font-size="14.00">22</text>
</g>
<!-- v3&#45;&gt;v22 -->
<g id="edge11" class="edge"><title>v3&#45;&gt;v22</title>
<path fill="none" stroke="black" d="M194.425,-145.465C204.469,-134.924 219.349,-120.931 232.334,-109.767"/>
<polygon fill="black" stroke="black" points="234.704,-112.348 240.114,-103.238 230.204,-106.986 234.704,-112.348"/>
</g>
<!-- v14 -->
<g id="node5" class="node"><title>v14</title>
<ellipse fill="none" stroke="black" cx="371.5" cy="-162" rx="27" ry="18"/>
<text text-anchor="middle" x="371.5" y="-158.3" font-family="Times,serif" font-size="14.00">14</text>
</g>
<!-- p5 -->
<g id="node11" class="node"><title>p5</title>
<path fill="none" stroke="black" d="M351,-108C351,-108 316,-108 316,-108 310,-108 304,-102 304,-96 304,-96 304,-84 304,-84 304,-78 310,-72 316,-72 316,-72 351,-72 351,-72 357,-72 363,-78 363,-84 363,-84 363,-96 363,-96 363,-102 357,-108 351,-108"/>
<text text-anchor="middle" x="333.5" y="-86.3" font-family="Times,serif" font-size="14.00">path (6)</text>
</g>
<!-- v14&#45;&gt;p5 -->
<g id="edge4" class="edge"><title>v14&#45;&gt;p5</title>
<path fill="none" stroke="black" d="M362.687,-144.765C358.214,-136.525 352.672,-126.317 347.623,-117.016"/>
<polygon fill="black" stroke="black" points="350.643,-115.243 342.796,-108.124 344.491,-118.582 350.643,-115.243"/>
</g>
<!-- p7 -->
<g id="node14" class="node"><title>p7</title>
<path fill="none" stroke="black" d="M428,-108C428,-108 393,-108 393,-108 387,-108 381,-102 381,-96 381,-96 381,-84 381,-84 381,-78 387,-72 393,-72 393,-72 428,-72 428,-72 434,-72 440,-78 440,-84 440,-84 440,-96 440,-96 440,-102 434,-108 428,-108"/>
<text text-anchor="middle" x="410.5" y="-86.3" font-family="Times,serif" font-size="14.00">path (3)</text>
</g>
<!-- v14&#45;&gt;p7 -->
<g id="edge3" class="edge"><title>v14&#45;&gt;p7</title>
<path fill="none" stroke="black" d="M380.545,-144.765C385.136,-136.525 390.824,-126.317 396.006,-117.016"/>
<polygon fill="black" stroke="black" points="399.15,-118.563 400.96,-108.124 393.035,-115.156 399.15,-118.563"/>
</g>
<!-- p3 -->
<g id="node6" class="node"><title>p3</title>
<path fill="none" stroke="black" d="M512.5,-108C512.5,-108 470.5,-108 470.5,-108 464.5,-108 458.5,-102 458.5,-96 458.5,-96 458.5,-84 458.5,-84 458.5,-78 464.5,-72 470.5,-72 470.5,-72 512.5,-72 512.5,-72 518.5,-72 524.5,-78 524.5,-84 524.5,-84 524.5,-96 524.5,-96 524.5,-102 518.5,-108 512.5,-108"/>
<text text-anchor="middle" x="491.5" y="-86.3" font-family="Times,serif" font-size="14.00">path (11)</text>
</g>
<!-- v20 -->
<g id="node7" class="node"><title>v20</title>
<ellipse fill="none" stroke="black" cx="491.5" cy="-162" rx="27" ry="18"/>
<text text-anchor="middle" x="491.5" y="-158.3" font-family="Times,serif" font-size="14.00">20</text>
</g>
<!-- v20&#45;&gt;p3 -->
<g id="edge14" class="edge"><title>v20&#45;&gt;p3</title>
<path fill="none" stroke="black" d="M491.5,-143.697C491.5,-135.983 491.5,-126.712 491.5,-118.112"/>
<polygon fill="black" stroke="black" points="495,-118.104 491.5,-108.104 488,-118.104 495,-118.104"/>
</g>
<!-- p6 -->
<g id="node12" class="node"><title>p6</title>
<path fill="none" stroke="black" d="M590,-108C590,-108 555,-108 555,-108 549,-108 543,-102 543,-96 543,-96 543,-84 543,-84 543,-78 549,-72 555,-72 555,-72 590,-72 590,-72 596,-72 602,-78 602,-84 602,-84 602,-96 602,-96 602,-102 596,-108 590,-108"/>
<text text-anchor="middle" x="572.5" y="-86.3" font-family="Times,serif" font-size="14.00">path (4)</text>
</g>
<!-- v20&#45;&gt;p6 -->
<g id="edge13" class="edge"><title>v20&#45;&gt;p6</title>
<path fill="none" stroke="black" d="M507.503,-147.17C518.168,-137.953 532.464,-125.599 544.933,-114.823"/>
<polygon fill="black" stroke="black" points="547.529,-117.206 552.807,-108.019 542.952,-111.91 547.529,-117.206"/>
</g>
<!-- v22&#45;&gt;v3 -->
<g id="edge5" class="edge"><title>v22&#45;&gt;v3</title>
<path fill="none" stroke="black" d="M247.522,-106.591C237.555,-117.046 222.851,-130.879 209.959,-141.981"/>
<polygon fill="black" stroke="black" points="207.625,-139.37 202.224,-148.485 212.13,-144.728 207.625,-139.37"/>
</g>
<!-- v45 -->
<g id="node13" class="node"><title>v45</title>
<ellipse fill="none" stroke="black" cx="258.5" cy="-18" rx="27" ry="18"/>
<text text-anchor="middle" x="258.5" y="-14.3" font-family="Times,serif" font-size="14.00">45</text>
</g>
<!-- v22&#45;&gt;v45 -->
<g id="edge10" class="edge"><title>v22&#45;&gt;v45</title>
<path fill="none" stroke="black" d="M258.5,-71.6966C258.5,-63.9827 258.5,-54.7125 258.5,-46.1124"/>
<polygon fill="black" stroke="black" points="262,-46.1043 258.5,-36.1043 255,-46.1044 262,-46.1043"/>
</g>
<!-- v23 -->
<g id="node9" class="node"><title>v23</title>
<ellipse fill="none" stroke="black" cx="371.5" cy="-234" rx="27" ry="18"/>
<text text-anchor="middle" x="371.5" y="-230.3" font-family="Times,serif" font-size="14.00">23</text>
</g>
<!-- v23&#45;&gt;v14 -->
<g id="edge6" class="edge"><title>v23&#45;&gt;v14</title>
<path fill="none" stroke="black" d="M371.5,-215.697C371.5,-207.983 371.5,-198.712 371.5,-190.112"/>
<polygon fill="black" stroke="black" points="375,-190.104 371.5,-180.104 368,-190.104 375,-190.104"/>
</g>
<!-- v23&#45;&gt;v20 -->
<g id="edge9" class="edge"><title>v23&#45;&gt;v20</title>
<path fill="none" stroke="black" d="M391.316,-221.441C410.77,-210.092 440.657,-192.658 462.728,-179.784"/>
<polygon fill="black" stroke="black" points="464.781,-182.638 471.655,-174.576 461.254,-176.592 464.781,-182.638"/>
</g>
<!-- p4 -->
<g id="node10" class="node"><title>p4</title>
<path fill="none" stroke="black" d="M314,-180C314,-180 279,-180 279,-180 273,-180 267,-174 267,-168 267,-168 267,-156 267,-156 267,-150 273,-144 279,-144 279,-144 314,-144 314,-144 320,-144 326,-150 326,-156 326,-156 326,-168 326,-168 326,-174 320,-180 314,-180"/>
<text text-anchor="middle" x="296.5" y="-158.3" font-family="Times,serif" font-size="14.00">path (3)</text>
</g>
<!-- v23&#45;&gt;p4 -->
<g id="edge12" class="edge"><title>v23&#45;&gt;p4</title>
<path fill="none" stroke="black" d="M356.323,-218.834C346.585,-209.746 333.69,-197.71 322.366,-187.141"/>
<polygon fill="black" stroke="black" points="324.534,-184.377 314.835,-180.113 319.758,-189.495 324.534,-184.377"/>
</g>
<!-- p4&#45;&gt;v22 -->
<g id="edge1" class="edge"><title>p4&#45;&gt;v22</title>
<path fill="none" stroke="black" d="M287.107,-143.697C282.605,-135.403 277.126,-125.311 272.173,-116.187"/>
<polygon fill="black" stroke="black" points="275.111,-114.263 267.264,-107.145 268.959,-117.603 275.111,-114.263"/>
</g>
</g>
</svg>
