<?xml version="1.0" encoding="UTF-8" standalone="no"?>
<!DOCTYPE svg PUBLIC "-//W3C//DTD SVG 1.1//EN"
 "http://www.w3.org/Graphics/SVG/1.1/DTD/svg11.dtd">
<!-- Generated by graphviz version 2.38.0 (20140413.2041)
 -->
<!-- Title: %3 Pages: 1 -->
<svg width="469pt" height="332pt"
 viewBox="0.00 0.00 468.50 332.00" xmlns="http://www.w3.org/2000/svg" xmlns:xlink="http://www.w3.org/1999/xlink">
<g id="graph0" class="graph" transform="scale(1 1) rotate(0) translate(4 328)">
<title>%3</title>
<polygon fill="white" stroke="none" points="-4,4 -4,-328 464.5,-328 464.5,4 -4,4"/>
<!-- p0 -->
<g id="node1" class="node"><title>p0</title>
<path fill="none" stroke="black" d="M47,-180C47,-180 12,-180 12,-180 6,-180 0,-174 0,-168 0,-168 0,-156 0,-156 0,-150 6,-144 12,-144 12,-144 47,-144 47,-144 53,-144 59,-150 59,-156 59,-156 59,-168 59,-168 59,-174 53,-180 47,-180"/>
<text text-anchor="middle" x="29.5" y="-158.3" font-family="Times,serif" font-size="14.00">path (2)</text>
</g>
<!-- p1 -->
<g id="node2" class="node"><title>p1</title>
<path fill="none" stroke="black" d="M124,-180C124,-180 89,-180 89,-180 83,-180 77,-174 77,-168 77,-168 77,-156 77,-156 77,-150 83,-144 89,-144 89,-144 124,-144 124,-144 130,-144 136,-150 136,-156 136,-156 136,-168 136,-168 136,-174 130,-180 124,-180"/>
<text text-anchor="middle" x="106.5" y="-158.3" font-family="Times,serif" font-size="14.00">path (2)</text>
</g>
<!-- p2 -->
<g id="node3" class="node"><title>p2</title>
<path fill="none" stroke="black" d="M160,-252C160,-252 125,-252 125,-252 119,-252 113,-246 113,-240 113,-240 113,-228 113,-228 113,-222 119,-216 125,-216 125,-216 160,-216 160,-216 166,-216 172,-222 172,-228 172,-228 172,-240 172,-240 172,-246 166,-252 160,-252"/>
<text text-anchor="middle" x="142.5" y="-230.3" font-family="Times,serif" font-size="14.00">path (4)</text>
</g>
<!-- v4 -->
<g id="node4" class="node"><title>v4</title>
<ellipse fill="none" stroke="black" cx="397.5" cy="-90" rx="27" ry="18"/>
<text text-anchor="middle" x="397.5" y="-86.3" font-family="Times,serif" font-size="14.00">4</text>
</g>
<!-- v6 -->
<g id="node6" class="node"><title>v6</title>
<ellipse fill="none" stroke="black" cx="361.5" cy="-18" rx="27" ry="18"/>
<text text-anchor="middle" x="361.5" y="-14.3" font-family="Times,serif" font-size="14.00">6</text>
</g>
<!-- v4&#45;&gt;v6 -->
<g id="edge1" class="edge"><title>v4&#45;&gt;v6</title>
<path fill="none" stroke="black" d="M389.15,-72.7646C384.788,-64.2831 379.353,-53.7144 374.459,-44.1974"/>
<polygon fill="black" stroke="black" points="377.49,-42.4395 369.804,-35.1473 371.265,-45.6409 377.49,-42.4395"/>
</g>
<!-- v12 -->
<g id="node10" class="node"><title>v12</title>
<ellipse fill="none" stroke="black" cx="433.5" cy="-18" rx="27" ry="18"/>
<text text-anchor="middle" x="433.5" y="-14.3" font-family="Times,serif" font-size="14.00">12</text>
</g>
<!-- v4&#45;&gt;v12 -->
<g id="edge6" class="edge"><title>v4&#45;&gt;v12</title>
<path fill="none" stroke="black" d="M405.85,-72.7646C410.212,-64.2831 415.647,-53.7144 420.541,-44.1974"/>
<polygon fill="black" stroke="black" points="423.735,-45.6409 425.196,-35.1473 417.51,-42.4395 423.735,-45.6409"/>
</g>
<!-- v5 -->
<g id="node5" class="node"><title>v5</title>
<ellipse fill="none" stroke="black" cx="181.5" cy="-162" rx="27" ry="18"/>
<text text-anchor="middle" x="181.5" y="-158.3" font-family="Times,serif" font-size="14.00">5</text>
</g>
<!-- v7 -->
<g id="node7" class="node"><title>v7</title>
<ellipse fill="none" stroke="black" cx="253.5" cy="-162" rx="27" ry="18"/>
<text text-anchor="middle" x="253.5" y="-158.3" font-family="Times,serif" font-size="14.00">7</text>
</g>
<!-- v8 -->
<g id="node8" class="node"><title>v8</title>
<ellipse fill="none" stroke="black" cx="217.5" cy="-234" rx="27" ry="18"/>
<text text-anchor="middle" x="217.5" y="-230.3" font-family="Times,serif" font-size="14.00">8</text>
</g>
<!-- v8&#45;&gt;p0 -->
<g id="edge2" class="edge"><title>v8&#45;&gt;p0</title>
<path fill="none" stroke="black" d="M196.169,-222.661C191.085,-220.348 185.642,-217.992 180.5,-216 134.133,-198.04 118.511,-198.652 68.6111,-180.218"/>
<polygon fill="black" stroke="black" points="69.83,-176.937 59.2382,-176.683 67.36,-183.487 69.83,-176.937"/>
</g>
<!-- v8&#45;&gt;p1 -->
<g id="edge3" class="edge"><title>v8&#45;&gt;p1</title>
<path fill="none" stroke="black" d="M198.418,-220.967C183.007,-211.248 160.889,-197.299 142.211,-185.52"/>
<polygon fill="black" stroke="black" points="143.961,-182.486 133.636,-180.113 140.227,-188.407 143.961,-182.486"/>
</g>
<!-- v8&#45;&gt;v5 -->
<g id="edge10" class="edge"><title>v8&#45;&gt;v5</title>
<path fill="none" stroke="black" d="M209.15,-216.765C204.788,-208.283 199.353,-197.714 194.459,-188.197"/>
<polygon fill="black" stroke="black" points="197.49,-186.439 189.804,-179.147 191.265,-189.641 197.49,-186.439"/>
</g>
<!-- v8&#45;&gt;v7 -->
<g id="edge8" class="edge"><title>v8&#45;&gt;v7</title>
<path fill="none" stroke="black" d="M225.85,-216.765C230.212,-208.283 235.647,-197.714 240.541,-188.197"/>
<polygon fill="black" stroke="black" points="243.735,-189.641 245.196,-179.147 237.51,-186.439 243.735,-189.641"/>
</g>
<!-- v9 -->
<g id="node9" class="node"><title>v9</title>
<ellipse fill="none" stroke="black" cx="325.5" cy="-162" rx="27" ry="18"/>
<text text-anchor="middle" x="325.5" y="-158.3" font-family="Times,serif" font-size="14.00">9</text>
</g>
<!-- v8&#45;&gt;v9 -->
<g id="edge4" class="edge"><title>v8&#45;&gt;v9</title>
<path fill="none" stroke="black" d="M236.312,-220.807C253.502,-209.665 279.118,-193.062 298.493,-180.504"/>
<polygon fill="black" stroke="black" points="300.416,-183.429 306.903,-175.053 296.608,-177.555 300.416,-183.429"/>
</g>
<!-- v15 -->
<g id="node12" class="node"><title>v15</title>
<ellipse fill="none" stroke="black" cx="397.5" cy="-162" rx="27" ry="18"/>
<text text-anchor="middle" x="397.5" y="-158.3" font-family="Times,serif" font-size="14.00">15</text>
</g>
<!-- v8&#45;&gt;v15 -->
<g id="edge11" class="edge"><title>v8&#45;&gt;v15</title>
<path fill="none" stroke="black" d="M241.194,-225.002C269.937,-215.135 319.734,-197.507 361.5,-180 363.317,-179.238 365.175,-178.436 367.043,-177.611"/>
<polygon fill="black" stroke="black" points="368.672,-180.715 376.32,-173.383 365.769,-174.345 368.672,-180.715"/>
</g>
<!-- v13 -->
<g id="node11" class="node"><title>v13</title>
<ellipse fill="none" stroke="black" cx="179.5" cy="-306" rx="27" ry="18"/>
<text text-anchor="middle" x="179.5" y="-302.3" font-family="Times,serif" font-size="14.00">13</text>
</g>
<!-- v13&#45;&gt;p2 -->
<g id="edge9" class="edge"><title>v13&#45;&gt;p2</title>
<path fill="none" stroke="black" d="M170.918,-288.765C166.563,-280.525 161.167,-270.317 156.251,-261.016"/>
<polygon fill="black" stroke="black" points="159.319,-259.329 151.551,-252.124 153.13,-262.6 159.319,-259.329"/>
</g>
<!-- v13&#45;&gt;v8 -->
<g id="edge7" class="edge"><title>v13&#45;&gt;v8</title>
<path fill="none" stroke="black" d="M188.313,-288.765C192.918,-280.283 198.655,-269.714 203.821,-260.197"/>
<polygon fill="black" stroke="black" points="207.039,-261.606 208.734,-251.147 200.887,-258.266 207.039,-261.606"/>
</g>
<!-- v15&#45;&gt;v4 -->
<g id="edge5" class="edge"><title>v15&#45;&gt;v4</title>
<path fill="none" stroke="black" d="M397.5,-143.697C397.5,-135.983 397.5,-126.712 397.5,-118.112"/>
<polygon fill="black" stroke="black" points="401,-118.104 397.5,-108.104 394,-118.104 401,-118.104"/>
</g>
</g>
</svg>
