<?xml version="1.0" encoding="UTF-8" standalone="no"?>
<!DOCTYPE svg PUBLIC "-//W3C//DTD SVG 1.1//EN"
 "http://www.w3.org/Graphics/SVG/1.1/DTD/svg11.dtd">
<!-- Generated by graphviz version 2.38.0 (20140413.2041)
 -->
<!-- Title: %3 Pages: 1 -->
<svg width="302pt" height="260pt"
 viewBox="0.00 0.00 301.50 260.00" xmlns="http://www.w3.org/2000/svg" xmlns:xlink="http://www.w3.org/1999/xlink">
<g id="graph0" class="graph" transform="scale(1 1) rotate(0) translate(4 256)">
<title>%3</title>
<polygon fill="white" stroke="none" points="-4,4 -4,-256 297.5,-256 297.5,4 -4,4"/>
<!-- p0 -->
<g id="node1" class="node"><title>p0</title>
<path fill="none" stroke="black" d="M209,-36C209,-36 174,-36 174,-36 168,-36 162,-30 162,-24 162,-24 162,-12 162,-12 162,-6 168,-0 174,-0 174,-0 209,-0 209,-0 215,-0 221,-6 221,-12 221,-12 221,-24 221,-24 221,-30 215,-36 209,-36"/>
<text text-anchor="middle" x="191.5" y="-14.3" font-family="Times,serif" font-size="14.00">path (3)</text>
</g>
<!-- p1 -->
<g id="node2" class="node"><title>p1</title>
<path fill="none" stroke="black" d="M47,-36C47,-36 12,-36 12,-36 6,-36 0,-30 0,-24 0,-24 0,-12 0,-12 0,-6 6,-0 12,-0 12,-0 47,-0 47,-0 53,-0 59,-6 59,-12 59,-12 59,-24 59,-24 59,-30 53,-36 47,-36"/>
<text text-anchor="middle" x="29.5" y="-14.3" font-family="Times,serif" font-size="14.00">path (2)</text>
</g>
<!-- v3 -->
<g id="node3" class="node"><title>v3</title>
<ellipse fill="none" stroke="black" cx="110.5" cy="-162" rx="27" ry="18"/>
<text text-anchor="middle" x="110.5" y="-158.3" font-family="Times,serif" font-size="14.00">3</text>
</g>
<!-- v9 -->
<g id="node7" class="node"><title>v9</title>
<ellipse fill="none" stroke="black" cx="38.5" cy="-90" rx="27" ry="18"/>
<text text-anchor="middle" x="38.5" y="-86.3" font-family="Times,serif" font-size="14.00">9</text>
</g>
<!-- v3&#45;&gt;v9 -->
<g id="edge5" class="edge"><title>v3&#45;&gt;v9</title>
<path fill="none" stroke="black" d="M95.9297,-146.834C85.7501,-136.938 71.9761,-123.546 60.4694,-112.359"/>
<polygon fill="black" stroke="black" points="62.9055,-109.846 53.2957,-105.385 58.0259,-114.865 62.9055,-109.846"/>
</g>
<!-- v20 -->
<g id="node10" class="node"><title>v20</title>
<ellipse fill="none" stroke="black" cx="110.5" cy="-90" rx="27" ry="18"/>
<text text-anchor="middle" x="110.5" y="-86.3" font-family="Times,serif" font-size="14.00">20</text>
</g>
<!-- v3&#45;&gt;v20 -->
<g id="edge3" class="edge"><title>v3&#45;&gt;v20</title>
<path fill="none" stroke="black" d="M110.5,-143.697C110.5,-135.983 110.5,-126.712 110.5,-118.112"/>
<polygon fill="black" stroke="black" points="114,-118.104 110.5,-108.104 107,-118.104 114,-118.104"/>
</g>
<!-- p2 -->
<g id="node4" class="node"><title>p2</title>
<path fill="none" stroke="black" d="M131.5,-36C131.5,-36 89.5,-36 89.5,-36 83.5,-36 77.5,-30 77.5,-24 77.5,-24 77.5,-12 77.5,-12 77.5,-6 83.5,-0 89.5,-0 89.5,-0 131.5,-0 131.5,-0 137.5,-0 143.5,-6 143.5,-12 143.5,-12 143.5,-24 143.5,-24 143.5,-30 137.5,-36 131.5,-36"/>
<text text-anchor="middle" x="110.5" y="-14.3" font-family="Times,serif" font-size="14.00">path (10)</text>
</g>
<!-- v6 -->
<g id="node5" class="node"><title>v6</title>
<ellipse fill="none" stroke="black" cx="191.5" cy="-90" rx="27" ry="18"/>
<text text-anchor="middle" x="191.5" y="-86.3" font-family="Times,serif" font-size="14.00">6</text>
</g>
<!-- v6&#45;&gt;p0 -->
<g id="edge9" class="edge"><title>v6&#45;&gt;p0</title>
<path fill="none" stroke="black" d="M191.5,-71.6966C191.5,-63.9827 191.5,-54.7125 191.5,-46.1124"/>
<polygon fill="black" stroke="black" points="195,-46.1043 191.5,-36.1043 188,-46.1044 195,-46.1043"/>
</g>
<!-- v12 -->
<g id="node8" class="node"><title>v12</title>
<ellipse fill="none" stroke="black" cx="266.5" cy="-18" rx="27" ry="18"/>
<text text-anchor="middle" x="266.5" y="-14.3" font-family="Times,serif" font-size="14.00">12</text>
</g>
<!-- v6&#45;&gt;v12 -->
<g id="edge6" class="edge"><title>v6&#45;&gt;v12</title>
<path fill="none" stroke="black" d="M206.677,-74.8345C217.351,-64.872 231.819,-51.3687 243.853,-40.1371"/>
<polygon fill="black" stroke="black" points="246.423,-42.5264 251.345,-33.1445 241.646,-37.409 246.423,-42.5264"/>
</g>
<!-- v7 -->
<g id="node6" class="node"><title>v7</title>
<ellipse fill="none" stroke="black" cx="186.5" cy="-162" rx="27" ry="18"/>
<text text-anchor="middle" x="186.5" y="-158.3" font-family="Times,serif" font-size="14.00">7</text>
</g>
<!-- v7&#45;&gt;v6 -->
<g id="edge1" class="edge"><title>v7&#45;&gt;v6</title>
<path fill="none" stroke="black" d="M187.736,-143.697C188.287,-135.983 188.949,-126.712 189.563,-118.112"/>
<polygon fill="black" stroke="black" points="193.057,-118.328 190.278,-108.104 186.075,-117.83 193.057,-118.328"/>
</g>
<!-- v17 -->
<g id="node9" class="node"><title>v17</title>
<ellipse fill="none" stroke="black" cx="148.5" cy="-234" rx="27" ry="18"/>
<text text-anchor="middle" x="148.5" y="-230.3" font-family="Times,serif" font-size="14.00">17</text>
</g>
<!-- v17&#45;&gt;v3 -->
<g id="edge7" class="edge"><title>v17&#45;&gt;v3</title>
<path fill="none" stroke="black" d="M139.687,-216.765C135.082,-208.283 129.345,-197.714 124.179,-188.197"/>
<polygon fill="black" stroke="black" points="127.113,-186.266 119.266,-179.147 120.961,-189.606 127.113,-186.266"/>
</g>
<!-- v17&#45;&gt;v7 -->
<g id="edge2" class="edge"><title>v17&#45;&gt;v7</title>
<path fill="none" stroke="black" d="M157.313,-216.765C161.918,-208.283 167.655,-197.714 172.821,-188.197"/>
<polygon fill="black" stroke="black" points="176.039,-189.606 177.734,-179.147 169.887,-186.266 176.039,-189.606"/>
</g>
<!-- v20&#45;&gt;p1 -->
<g id="edge8" class="edge"><title>v20&#45;&gt;p1</title>
<path fill="none" stroke="black" d="M94.497,-75.1703C83.8316,-65.9532 69.5355,-53.5986 57.0668,-42.8232"/>
<polygon fill="black" stroke="black" points="59.0482,-39.9096 49.1935,-36.019 54.4711,-45.2059 59.0482,-39.9096"/>
</g>
<!-- v20&#45;&gt;p2 -->
<g id="edge4" class="edge"><title>v20&#45;&gt;p2</title>
<path fill="none" stroke="black" d="M110.5,-71.6966C110.5,-63.9827 110.5,-54.7125 110.5,-46.1124"/>
<polygon fill="black" stroke="black" points="114,-46.1043 110.5,-36.1043 107,-46.1044 114,-46.1043"/>
</g>
</g>
</svg>
