<?xml version="1.0" encoding="UTF-8" standalone="no"?>
<!DOCTYPE svg PUBLIC "-//W3C//DTD SVG 1.1//EN"
 "http://www.w3.org/Graphics/SVG/1.1/DTD/svg11.dtd">
<!-- Generated by graphviz version 2.38.0 (20140413.2041)
 -->
<!-- Title: %3 Pages: 1 -->
<svg width="307pt" height="404pt"
 viewBox="0.00 0.00 306.69 404.00" xmlns="http://www.w3.org/2000/svg" xmlns:xlink="http://www.w3.org/1999/xlink">
<g id="graph0" class="graph" transform="scale(1 1) rotate(0) translate(4 400)">
<title>%3</title>
<polygon fill="white" stroke="none" points="-4,4 -4,-400 302.692,-400 302.692,4 -4,4"/>
<!-- 0 -->
<g id="node1" class="node"><title>0</title>
<g id="a_node1"><a xlink:title="0, diversity: 1, multiplicities: 27, labels: 28">
<ellipse fill="#37a055" stroke="black" cx="102.096" cy="-378" rx="41.6928" ry="18"/>
<text text-anchor="middle" x="102.096" y="-374.3" font-family="Times,serif" font-size="14.00">0 (1): 28</text>
</a>
</g>
</g>
<!-- 4 -->
<g id="node5" class="node"><title>4</title>
<g id="a_node5"><a xlink:title="4, diversity: 1, multiplicities: 62, labels: 28,7">
<ellipse fill="#f7fcf5" stroke="black" cx="102.096" cy="-306" rx="48.1917" ry="18"/>
<text text-anchor="middle" x="102.096" y="-302.3" font-family="Times,serif" font-size="14.00">4 (1): 28,7</text>
</a>
</g>
</g>
<!-- 0&#45;&gt;4 -->
<g id="edge6" class="edge"><title>0&#45;&gt;4</title>
<path fill="none" stroke="black" d="M102.096,-359.697C102.096,-351.983 102.096,-342.712 102.096,-334.112"/>
<polygon fill="black" stroke="black" points="105.596,-334.104 102.096,-324.104 98.5958,-334.104 105.596,-334.104"/>
</g>
<!-- 1 -->
<g id="node2" class="node"><title>1</title>
<g id="a_node2"><a xlink:title="1, diversity: 1, multiplicities: 7, labels: 28">
<ellipse fill="#37a055" stroke="black" cx="55.0957" cy="-162" rx="41.6928" ry="18"/>
<text text-anchor="middle" x="55.0957" y="-158.3" font-family="Times,serif" font-size="14.00">1 (1): 28</text>
</a>
</g>
</g>
<!-- 6 -->
<g id="node7" class="node"><title>6</title>
<g id="a_node7"><a xlink:title="6, diversity: 1, multiplicities: 62, labels: 28">
<ellipse fill="#37a055" stroke="black" cx="55.0957" cy="-90" rx="41.6928" ry="18"/>
<text text-anchor="middle" x="55.0957" y="-86.3" font-family="Times,serif" font-size="14.00">6 (1): 28</text>
</a>
</g>
</g>
<!-- 1&#45;&gt;6 -->
<g id="edge5" class="edge"><title>1&#45;&gt;6</title>
<path fill="none" stroke="black" d="M55.0957,-143.697C55.0957,-135.983 55.0957,-126.712 55.0957,-118.112"/>
<polygon fill="black" stroke="black" points="58.5958,-118.104 55.0957,-108.104 51.5958,-118.104 58.5958,-118.104"/>
</g>
<!-- 2 -->
<g id="node3" class="node"><title>2</title>
<g id="a_node3"><a xlink:title="2, diversity: 1, multiplicities: 6, labels: 28,7">
<ellipse fill="#f7fcf5" stroke="black" cx="48.0957" cy="-234" rx="48.1917" ry="18"/>
<text text-anchor="middle" x="48.0957" y="-230.3" font-family="Times,serif" font-size="14.00">2 (1): 28,7</text>
</a>
</g>
</g>
<!-- 3 -->
<g id="node4" class="node"><title>3</title>
<g id="a_node4"><a xlink:title="3, diversity: 1, multiplicities: 9, labels: 28">
<ellipse fill="#37a055" stroke="black" cx="156.096" cy="-162" rx="41.6928" ry="18"/>
<text text-anchor="middle" x="156.096" y="-158.3" font-family="Times,serif" font-size="14.00">3 (1): 28</text>
</a>
</g>
</g>
<!-- 4&#45;&gt;2 -->
<g id="edge7" class="edge"><title>4&#45;&gt;2</title>
<path fill="none" stroke="black" d="M89.2985,-288.411C82.6407,-279.781 74.3723,-269.062 66.9936,-259.497"/>
<polygon fill="black" stroke="black" points="69.6804,-257.25 60.8011,-251.47 64.1379,-261.526 69.6804,-257.25"/>
</g>
<!-- 7 -->
<g id="node8" class="node"><title>7</title>
<g id="a_node8"><a xlink:title="7, diversity: 2, multiplicities: 13,21, labels: 28">
<ellipse fill="#37a055" stroke="black" cx="156.096" cy="-234" rx="41.6928" ry="18"/>
<text text-anchor="middle" x="156.096" y="-230.3" font-family="Times,serif" font-size="14.00">7 (2): 28</text>
</a>
</g>
</g>
<!-- 4&#45;&gt;7 -->
<g id="edge2" class="edge"><title>4&#45;&gt;7</title>
<path fill="none" stroke="black" d="M114.893,-288.411C121.551,-279.781 129.819,-269.062 137.198,-259.497"/>
<polygon fill="black" stroke="black" points="140.054,-261.526 143.39,-251.47 134.511,-257.25 140.054,-261.526"/>
</g>
<!-- 5 -->
<g id="node6" class="node"><title>5</title>
<g id="a_node6"><a xlink:title="5, diversity: 1, multiplicities: 5, labels: 28">
<ellipse fill="#37a055" stroke="black" cx="55.0957" cy="-18" rx="41.6928" ry="18"/>
<text text-anchor="middle" x="55.0957" y="-14.3" font-family="Times,serif" font-size="14.00">5 (1): 28</text>
</a>
</g>
</g>
<!-- 6&#45;&gt;5 -->
<g id="edge9" class="edge"><title>6&#45;&gt;5</title>
<path fill="none" stroke="black" d="M55.0957,-71.6966C55.0957,-63.9827 55.0957,-54.7125 55.0957,-46.1124"/>
<polygon fill="black" stroke="black" points="58.5958,-46.1043 55.0957,-36.1043 51.5958,-46.1044 58.5958,-46.1043"/>
</g>
<!-- 7&#45;&gt;1 -->
<g id="edge3" class="edge"><title>7&#45;&gt;1</title>
<path fill="none" stroke="black" d="M134.676,-218.155C120.117,-208.064 100.665,-194.583 84.6372,-183.474"/>
<polygon fill="black" stroke="black" points="86.3508,-180.403 76.138,-177.584 82.3633,-186.157 86.3508,-180.403"/>
</g>
<!-- 7&#45;&gt;3 -->
<g id="edge1" class="edge"><title>7&#45;&gt;3</title>
<path fill="none" stroke="black" d="M156.096,-215.697C156.096,-207.983 156.096,-198.712 156.096,-190.112"/>
<polygon fill="black" stroke="black" points="159.596,-190.104 156.096,-180.104 152.596,-190.104 159.596,-190.104"/>
</g>
<!-- 8 -->
<g id="node9" class="node"><title>8</title>
<g id="a_node9"><a xlink:title="8, diversity: 1, multiplicities: 14, labels: 28">
<ellipse fill="#37a055" stroke="black" cx="257.096" cy="-162" rx="41.6928" ry="18"/>
<text text-anchor="middle" x="257.096" y="-158.3" font-family="Times,serif" font-size="14.00">8 (1): 28</text>
</a>
</g>
</g>
<!-- 7&#45;&gt;8 -->
<g id="edge8" class="edge"><title>7&#45;&gt;8</title>
<path fill="none" stroke="black" d="M177.515,-218.155C192.075,-208.064 211.527,-194.583 227.554,-183.474"/>
<polygon fill="black" stroke="black" points="229.828,-186.157 236.053,-177.584 225.841,-180.403 229.828,-186.157"/>
</g>
<!-- 9 -->
<g id="node10" class="node"><title>9</title>
<g id="a_node10"><a xlink:title="9, diversity: 1, multiplicities: 9, labels: 28">
<ellipse fill="#37a055" stroke="black" cx="257.096" cy="-90" rx="41.6928" ry="18"/>
<text text-anchor="middle" x="257.096" y="-86.3" font-family="Times,serif" font-size="14.00">9 (1): 28</text>
</a>
</g>
</g>
<!-- 8&#45;&gt;9 -->
<g id="edge4" class="edge"><title>8&#45;&gt;9</title>
<path fill="none" stroke="black" d="M257.096,-143.697C257.096,-135.983 257.096,-126.712 257.096,-118.112"/>
<polygon fill="black" stroke="black" points="260.596,-118.104 257.096,-108.104 253.596,-118.104 260.596,-118.104"/>
</g>
</g>
</svg>
