<?xml version="1.0" encoding="UTF-8" standalone="no"?>
<!DOCTYPE svg PUBLIC "-//W3C//DTD SVG 1.1//EN"
 "http://www.w3.org/Graphics/SVG/1.1/DTD/svg11.dtd">
<!-- Generated by graphviz version 2.38.0 (20140413.2041)
 -->
<!-- Title: %3 Pages: 1 -->
<svg width="531pt" height="476pt"
 viewBox="0.00 0.00 530.69 476.00" xmlns="http://www.w3.org/2000/svg" xmlns:xlink="http://www.w3.org/1999/xlink">
<g id="graph0" class="graph" transform="scale(1 1) rotate(0) translate(4 472)">
<title>%3</title>
<polygon fill="white" stroke="none" points="-4,4 -4,-472 526.692,-472 526.692,4 -4,4"/>
<!-- 0 -->
<g id="node1" class="node"><title>0</title>
<g id="a_node1"><a xlink:title="0, diversity: 1, multiplicities: 1, labels: 28">
<ellipse fill="#37a055" stroke="black" cx="59.0957" cy="-378" rx="41.6928" ry="18"/>
<text text-anchor="middle" x="59.0957" y="-374.3" font-family="Times,serif" font-size="14.00">0 (1): 28</text>
</a>
</g>
</g>
<!-- 8 -->
<g id="node9" class="node"><title>8</title>
<g id="a_node9"><a xlink:title="8, diversity: 1, multiplicities: 69, labels: 28">
<ellipse fill="#37a055" stroke="black" cx="59.0957" cy="-306" rx="41.6928" ry="18"/>
<text text-anchor="middle" x="59.0957" y="-302.3" font-family="Times,serif" font-size="14.00">8 (1): 28</text>
</a>
</g>
</g>
<!-- 0&#45;&gt;8 -->
<g id="edge11" class="edge"><title>0&#45;&gt;8</title>
<path fill="none" stroke="black" d="M59.0957,-359.697C59.0957,-351.983 59.0957,-342.712 59.0957,-334.112"/>
<polygon fill="black" stroke="black" points="62.5958,-334.104 59.0957,-324.104 55.5958,-334.104 62.5958,-334.104"/>
</g>
<!-- 1 -->
<g id="node2" class="node"><title>1</title>
<g id="a_node2"><a xlink:title="1, diversity: 1, multiplicities: 25, labels: 28">
<ellipse fill="#37a055" stroke="black" cx="279.096" cy="-18" rx="41.6928" ry="18"/>
<text text-anchor="middle" x="279.096" y="-14.3" font-family="Times,serif" font-size="14.00">1 (1): 28</text>
</a>
</g>
</g>
<!-- 2 -->
<g id="node3" class="node"><title>2</title>
<g id="a_node3"><a xlink:title="2, diversity: 1, multiplicities: 9, labels: 28,7">
<ellipse fill="#f7fcf5" stroke="black" cx="48.0957" cy="-234" rx="48.1917" ry="18"/>
<text text-anchor="middle" x="48.0957" y="-230.3" font-family="Times,serif" font-size="14.00">2 (1): 28,7</text>
</a>
</g>
</g>
<!-- 3 -->
<g id="node4" class="node"><title>3</title>
<g id="a_node4"><a xlink:title="3, diversity: 1, multiplicities: 99, labels: 28,7">
<ellipse fill="#f7fcf5" stroke="black" cx="167.096" cy="-306" rx="48.1917" ry="18"/>
<text text-anchor="middle" x="167.096" y="-302.3" font-family="Times,serif" font-size="14.00">3 (1): 28,7</text>
</a>
</g>
</g>
<!-- 3&#45;&gt;2 -->
<g id="edge1" class="edge"><title>3&#45;&gt;2</title>
<path fill="none" stroke="black" d="M142.439,-290.496C124.808,-280.125 100.874,-266.046 81.5257,-254.665"/>
<polygon fill="black" stroke="black" points="83.115,-251.539 72.721,-249.485 79.5658,-257.572 83.115,-251.539"/>
</g>
<!-- 10 -->
<g id="node11" class="node"><title>10</title>
<g id="a_node11"><a xlink:title="10, diversity: 1, multiplicities: 5, labels: 28,7">
<ellipse fill="#f7fcf5" stroke="black" cx="167.096" cy="-234" rx="52.7911" ry="18"/>
<text text-anchor="middle" x="167.096" y="-230.3" font-family="Times,serif" font-size="14.00">10 (1): 28,7</text>
</a>
</g>
</g>
<!-- 3&#45;&gt;10 -->
<g id="edge5" class="edge"><title>3&#45;&gt;10</title>
<path fill="none" stroke="black" d="M167.096,-287.697C167.096,-279.983 167.096,-270.712 167.096,-262.112"/>
<polygon fill="black" stroke="black" points="170.596,-262.104 167.096,-252.104 163.596,-262.104 170.596,-262.104"/>
</g>
<!-- 4 -->
<g id="node5" class="node"><title>4</title>
<g id="a_node5"><a xlink:title="4, diversity: 1, multiplicities: 1, labels: 28">
<ellipse fill="#37a055" stroke="black" cx="279.096" cy="-90" rx="41.6928" ry="18"/>
<text text-anchor="middle" x="279.096" y="-86.3" font-family="Times,serif" font-size="14.00">4 (1): 28</text>
</a>
</g>
</g>
<!-- 4&#45;&gt;1 -->
<g id="edge12" class="edge"><title>4&#45;&gt;1</title>
<path fill="none" stroke="black" d="M279.096,-71.6966C279.096,-63.9827 279.096,-54.7125 279.096,-46.1124"/>
<polygon fill="black" stroke="black" points="282.596,-46.1043 279.096,-36.1043 275.596,-46.1044 282.596,-46.1043"/>
</g>
<!-- 5 -->
<g id="node6" class="node"><title>5</title>
<g id="a_node6"><a xlink:title="5, diversity: 1, multiplicities: 15, labels: 28,7">
<ellipse fill="#f7fcf5" stroke="black" cx="167.096" cy="-378" rx="48.1917" ry="18"/>
<text text-anchor="middle" x="167.096" y="-374.3" font-family="Times,serif" font-size="14.00">5 (1): 28,7</text>
</a>
</g>
</g>
<!-- 5&#45;&gt;3 -->
<g id="edge15" class="edge"><title>5&#45;&gt;3</title>
<path fill="none" stroke="black" d="M167.096,-359.697C167.096,-351.983 167.096,-342.712 167.096,-334.112"/>
<polygon fill="black" stroke="black" points="170.596,-334.104 167.096,-324.104 163.596,-334.104 170.596,-334.104"/>
</g>
<!-- 6 -->
<g id="node7" class="node"><title>6</title>
<g id="a_node7"><a xlink:title="6, diversity: 1, multiplicities: 52, labels: 28">
<ellipse fill="#37a055" stroke="black" cx="224.096" cy="-450" rx="41.6928" ry="18"/>
<text text-anchor="middle" x="224.096" y="-446.3" font-family="Times,serif" font-size="14.00">6 (1): 28</text>
</a>
</g>
</g>
<!-- 6&#45;&gt;0 -->
<g id="edge6" class="edge"><title>6&#45;&gt;0</title>
<path fill="none" stroke="black" d="M195.355,-436.807C168.111,-425.249 127.014,-407.814 97.0787,-395.114"/>
<polygon fill="black" stroke="black" points="98.3563,-391.854 87.7835,-391.171 95.6224,-398.298 98.3563,-391.854"/>
</g>
<!-- 6&#45;&gt;5 -->
<g id="edge14" class="edge"><title>6&#45;&gt;5</title>
<path fill="none" stroke="black" d="M210.876,-432.765C203.784,-424.056 194.901,-413.147 186.993,-403.435"/>
<polygon fill="black" stroke="black" points="189.668,-401.178 180.64,-395.633 184.24,-405.598 189.668,-401.178"/>
</g>
<!-- 7 -->
<g id="node8" class="node"><title>7</title>
<g id="a_node8"><a xlink:title="7, diversity: 1, multiplicities: 15, labels: 28,7">
<ellipse fill="#f7fcf5" stroke="black" cx="281.096" cy="-378" rx="48.1917" ry="18"/>
<text text-anchor="middle" x="281.096" y="-374.3" font-family="Times,serif" font-size="14.00">7 (1): 28,7</text>
</a>
</g>
</g>
<!-- 6&#45;&gt;7 -->
<g id="edge2" class="edge"><title>6&#45;&gt;7</title>
<path fill="none" stroke="black" d="M237.316,-432.765C244.407,-424.056 253.291,-413.147 261.199,-403.435"/>
<polygon fill="black" stroke="black" points="263.951,-405.598 267.551,-395.633 258.523,-401.178 263.951,-405.598"/>
</g>
<!-- 9 -->
<g id="node10" class="node"><title>9</title>
<g id="a_node10"><a xlink:title="9, diversity: 1, multiplicities: 10, labels: 28">
<ellipse fill="#37a055" stroke="black" cx="389.096" cy="-378" rx="41.6928" ry="18"/>
<text text-anchor="middle" x="389.096" y="-374.3" font-family="Times,serif" font-size="14.00">9 (1): 28</text>
</a>
</g>
</g>
<!-- 6&#45;&gt;9 -->
<g id="edge10" class="edge"><title>6&#45;&gt;9</title>
<path fill="none" stroke="black" d="M252.837,-436.807C280.08,-425.249 321.178,-407.814 351.113,-395.114"/>
<polygon fill="black" stroke="black" points="352.569,-398.298 360.408,-391.171 349.835,-391.854 352.569,-398.298"/>
</g>
<!-- 11 -->
<g id="node12" class="node"><title>11</title>
<g id="a_node12"><a xlink:title="11, diversity: 2, multiplicities: 9,60, labels: 7">
<ellipse fill="#f7fcf5" stroke="black" cx="330.096" cy="-306" rx="41.6928" ry="18"/>
<text text-anchor="middle" x="330.096" y="-302.3" font-family="Times,serif" font-size="14.00">11 (2): 7</text>
</a>
</g>
</g>
<!-- 7&#45;&gt;11 -->
<g id="edge9" class="edge"><title>7&#45;&gt;11</title>
<path fill="none" stroke="black" d="M292.708,-360.411C298.688,-351.868 306.101,-341.278 312.745,-331.787"/>
<polygon fill="black" stroke="black" points="315.699,-333.669 318.567,-323.47 309.965,-329.655 315.699,-333.669"/>
</g>
<!-- 12 -->
<g id="node13" class="node"><title>12</title>
<g id="a_node13"><a xlink:title="12, diversity: 1, multiplicities: 42, labels: 7">
<ellipse fill="#f7fcf5" stroke="black" cx="279.096" cy="-234" rx="41.6928" ry="18"/>
<text text-anchor="middle" x="279.096" y="-230.3" font-family="Times,serif" font-size="14.00">12 (1): 7</text>
</a>
</g>
</g>
<!-- 11&#45;&gt;12 -->
<g id="edge4" class="edge"><title>11&#45;&gt;12</title>
<path fill="none" stroke="black" d="M318.009,-288.411C311.785,-279.868 304.07,-269.278 297.155,-259.787"/>
<polygon fill="black" stroke="black" points="299.813,-257.491 291.095,-251.47 294.155,-261.613 299.813,-257.491"/>
</g>
<!-- 14 -->
<g id="node15" class="node"><title>14</title>
<g id="a_node15"><a xlink:title="14, diversity: 1, multiplicities: 8, labels: 7">
<ellipse fill="#f7fcf5" stroke="black" cx="380.096" cy="-234" rx="41.6928" ry="18"/>
<text text-anchor="middle" x="380.096" y="-230.3" font-family="Times,serif" font-size="14.00">14 (1): 7</text>
</a>
</g>
</g>
<!-- 11&#45;&gt;14 -->
<g id="edge7" class="edge"><title>11&#45;&gt;14</title>
<path fill="none" stroke="black" d="M341.945,-288.411C348.047,-279.868 355.611,-269.278 362.39,-259.787"/>
<polygon fill="black" stroke="black" points="365.367,-261.642 368.331,-251.47 359.671,-257.573 365.367,-261.642"/>
</g>
<!-- 15 -->
<g id="node16" class="node"><title>15</title>
<g id="a_node16"><a xlink:title="15, diversity: 1, multiplicities: 6, labels: 7">
<ellipse fill="#f7fcf5" stroke="black" cx="481.096" cy="-234" rx="41.6928" ry="18"/>
<text text-anchor="middle" x="481.096" y="-230.3" font-family="Times,serif" font-size="14.00">15 (1): 7</text>
</a>
</g>
</g>
<!-- 11&#45;&gt;15 -->
<g id="edge8" class="edge"><title>11&#45;&gt;15</title>
<path fill="none" stroke="black" d="M357.441,-292.324C381.845,-281.01 417.769,-264.357 444.616,-251.911"/>
<polygon fill="black" stroke="black" points="446.099,-255.082 453.699,-247.7 443.155,-248.731 446.099,-255.082"/>
</g>
<!-- 13 -->
<g id="node14" class="node"><title>13</title>
<g id="a_node14"><a xlink:title="13, diversity: 1, multiplicities: 9, labels: 7">
<ellipse fill="#f7fcf5" stroke="black" cx="279.096" cy="-162" rx="41.6928" ry="18"/>
<text text-anchor="middle" x="279.096" y="-158.3" font-family="Times,serif" font-size="14.00">13 (1): 7</text>
</a>
</g>
</g>
<!-- 12&#45;&gt;13 -->
<g id="edge3" class="edge"><title>12&#45;&gt;13</title>
<path fill="none" stroke="black" d="M279.096,-215.697C279.096,-207.983 279.096,-198.712 279.096,-190.112"/>
<polygon fill="black" stroke="black" points="282.596,-190.104 279.096,-180.104 275.596,-190.104 282.596,-190.104"/>
</g>
<!-- 13&#45;&gt;4 -->
<g id="edge13" class="edge"><title>13&#45;&gt;4</title>
<path fill="none" stroke="black" d="M279.096,-143.697C279.096,-135.983 279.096,-126.712 279.096,-118.112"/>
<polygon fill="black" stroke="black" points="282.596,-118.104 279.096,-108.104 275.596,-118.104 282.596,-118.104"/>
</g>
</g>
</svg>
