<?xml version="1.0" encoding="UTF-8" standalone="no"?>
<!DOCTYPE svg PUBLIC "-//W3C//DTD SVG 1.1//EN"
 "http://www.w3.org/Graphics/SVG/1.1/DTD/svg11.dtd">
<!-- Generated by graphviz version 2.38.0 (20140413.2041)
 -->
<!-- Title: %3 Pages: 1 -->
<svg width="241pt" height="332pt"
 viewBox="0.00 0.00 240.69 332.00" xmlns="http://www.w3.org/2000/svg" xmlns:xlink="http://www.w3.org/1999/xlink">
<g id="graph0" class="graph" transform="scale(1 1) rotate(0) translate(4 328)">
<title>%3</title>
<polygon fill="white" stroke="none" points="-4,4 -4,-328 236.692,-328 236.692,4 -4,4"/>
<!-- 0 -->
<g id="node1" class="node"><title>0</title>
<g id="a_node1"><a xlink:title="0, diversity: 4, multiplicities: 1,1,12,424, labels: 28">
<ellipse fill="#37a055" stroke="black" cx="102.096" cy="-306" rx="41.6928" ry="18"/>
<text text-anchor="middle" x="102.096" y="-302.3" font-family="Times,serif" font-size="14.00">0 (4): 28</text>
</a>
</g>
</g>
<!-- 1 -->
<g id="node2" class="node"><title>1</title>
<g id="a_node2"><a xlink:title="1, diversity: 10, multiplicities: 1,7,8,10,13,20,202,312,460,463, labels: 28,7">
<ellipse fill="#f7fcf5" stroke="black" cx="102.096" cy="-234" rx="52.7911" ry="18"/>
<text text-anchor="middle" x="102.096" y="-230.3" font-family="Times,serif" font-size="14.00">1 (10): 28,7</text>
</a>
</g>
</g>
<!-- 0&#45;&gt;1 -->
<g id="edge1" class="edge"><title>0&#45;&gt;1</title>
<path fill="none" stroke="black" d="M96.2175,-288.055C95.3994,-280.346 95.1571,-271.027 95.4906,-262.364"/>
<polygon fill="black" stroke="black" points="98.99,-262.491 96.1829,-252.275 92.0064,-262.012 98.99,-262.491"/>
</g>
<!-- 1&#45;&gt;0 -->
<g id="edge8" class="edge"><title>1&#45;&gt;0</title>
<path fill="none" stroke="black" d="M108.009,-252.275C108.81,-260.03 109.036,-269.362 108.686,-278.005"/>
<polygon fill="black" stroke="black" points="105.19,-277.832 107.974,-288.055 112.172,-278.327 105.19,-277.832"/>
</g>
<!-- 2 -->
<g id="node3" class="node"><title>2</title>
<g id="a_node3"><a xlink:title="2, diversity: 4, multiplicities: 22,41,50,81, labels: 28,7">
<ellipse fill="#f7fcf5" stroke="black" cx="48.0957" cy="-162" rx="48.1917" ry="18"/>
<text text-anchor="middle" x="48.0957" y="-158.3" font-family="Times,serif" font-size="14.00">2 (4): 28,7</text>
</a>
</g>
</g>
<!-- 1&#45;&gt;2 -->
<g id="edge2" class="edge"><title>1&#45;&gt;2</title>
<path fill="none" stroke="black" d="M83.7705,-216.765C76.3384,-208.354 68.0266,-197.89 61.1966,-188.436"/>
<polygon fill="black" stroke="black" points="63.9955,-186.33 55.4085,-180.124 58.2511,-190.33 63.9955,-186.33"/>
</g>
<!-- 4 -->
<g id="node5" class="node"><title>4</title>
<g id="a_node5"><a xlink:title="4, diversity: 1, multiplicities: 1, labels: 28">
<ellipse fill="#37a055" stroke="black" cx="156.096" cy="-162" rx="41.6928" ry="18"/>
<text text-anchor="middle" x="156.096" y="-158.3" font-family="Times,serif" font-size="14.00">4 (1): 28</text>
</a>
</g>
</g>
<!-- 1&#45;&gt;4 -->
<g id="edge5" class="edge"><title>1&#45;&gt;4</title>
<path fill="none" stroke="black" d="M114.893,-216.411C121.551,-207.781 129.819,-197.062 137.198,-187.497"/>
<polygon fill="black" stroke="black" points="140.054,-189.526 143.39,-179.47 134.511,-185.25 140.054,-189.526"/>
</g>
<!-- 2&#45;&gt;1 -->
<g id="edge6" class="edge"><title>2&#45;&gt;1</title>
<path fill="none" stroke="black" d="M66.0615,-178.829C73.5957,-187.321 82.0806,-197.99 89.0268,-207.609"/>
<polygon fill="black" stroke="black" points="86.3184,-209.844 94.9021,-216.055 92.0649,-205.847 86.3184,-209.844"/>
</g>
<!-- 6 -->
<g id="node7" class="node"><title>6</title>
<g id="a_node7"><a xlink:title="6, diversity: 1, multiplicities: 57, labels: 28">
<ellipse fill="#37a055" stroke="black" cx="48.0957" cy="-90" rx="41.6928" ry="18"/>
<text text-anchor="middle" x="48.0957" y="-86.3" font-family="Times,serif" font-size="14.00">6 (1): 28</text>
</a>
</g>
</g>
<!-- 2&#45;&gt;6 -->
<g id="edge3" class="edge"><title>2&#45;&gt;6</title>
<path fill="none" stroke="black" d="M48.0957,-143.697C48.0957,-135.983 48.0957,-126.712 48.0957,-118.112"/>
<polygon fill="black" stroke="black" points="51.5958,-118.104 48.0957,-108.104 44.5958,-118.104 51.5958,-118.104"/>
</g>
<!-- 3 -->
<g id="node4" class="node"><title>3</title>
<g id="a_node4"><a xlink:title="3, diversity: 3, multiplicities: 2,21,606, labels: 28">
<ellipse fill="#37a055" stroke="black" cx="191.096" cy="-90" rx="41.6928" ry="18"/>
<text text-anchor="middle" x="191.096" y="-86.3" font-family="Times,serif" font-size="14.00">3 (3): 28</text>
</a>
</g>
</g>
<!-- 3&#45;&gt;1 -->
<g id="edge4" class="edge"><title>3&#45;&gt;1</title>
<path fill="none" stroke="black" d="M200.535,-107.695C209.841,-126.601 220.837,-157.672 207.096,-180 195.27,-199.216 174.09,-211.718 153.835,-219.722"/>
<polygon fill="black" stroke="black" points="152.515,-216.478 144.322,-223.195 154.915,-223.053 152.515,-216.478"/>
</g>
<!-- 5 -->
<g id="node6" class="node"><title>5</title>
<g id="a_node6"><a xlink:title="5, diversity: 1, multiplicities: 85, labels: 28">
<ellipse fill="#37a055" stroke="black" cx="191.096" cy="-18" rx="41.6928" ry="18"/>
<text text-anchor="middle" x="191.096" y="-14.3" font-family="Times,serif" font-size="14.00">5 (1): 28</text>
</a>
</g>
</g>
<!-- 3&#45;&gt;5 -->
<g id="edge9" class="edge"><title>3&#45;&gt;5</title>
<path fill="none" stroke="black" d="M191.096,-71.6966C191.096,-63.9827 191.096,-54.7125 191.096,-46.1124"/>
<polygon fill="black" stroke="black" points="194.596,-46.1043 191.096,-36.1043 187.596,-46.1044 194.596,-46.1043"/>
</g>
<!-- 4&#45;&gt;3 -->
<g id="edge7" class="edge"><title>4&#45;&gt;3</title>
<path fill="none" stroke="black" d="M164.568,-144.055C168.652,-135.887 173.64,-125.912 178.184,-116.824"/>
<polygon fill="black" stroke="black" points="181.36,-118.299 182.701,-107.789 175.099,-115.168 181.36,-118.299"/>
</g>
</g>
</svg>
