<?xml version="1.0" encoding="UTF-8" standalone="no"?>
<!DOCTYPE svg PUBLIC "-//W3C//DTD SVG 1.1//EN"
 "http://www.w3.org/Graphics/SVG/1.1/DTD/svg11.dtd">
<!-- Generated by graphviz version 2.38.0 (20140413.2041)
 -->
<!-- Title: %3 Pages: 1 -->
<svg width="1180pt" height="1196pt"
 viewBox="0.00 0.00 1180.19 1196.00" xmlns="http://www.w3.org/2000/svg" xmlns:xlink="http://www.w3.org/1999/xlink">
<g id="graph0" class="graph" transform="scale(1 1) rotate(0) translate(4 1192)">
<title>%3</title>
<polygon fill="white" stroke="none" points="-4,4 -4,-1192 1176.19,-1192 1176.19,4 -4,4"/>
<!-- 0 -->
<g id="node1" class="node"><title>0</title>
<g id="a_node1"><a xlink:title="0, diversity: 2, multiplicities: 1,6, labels: 0">
<ellipse fill="#fcc4ad" stroke="black" cx="706.596" cy="-306" rx="37.0935" ry="18"/>
<text text-anchor="middle" x="706.596" y="-302.3" font-family="Times,serif" font-size="14.00">0 (2): 0</text>
</a>
</g>
</g>
<!-- 1 -->
<g id="node2" class="node"><title>1</title>
<g id="a_node2"><a xlink:title="1, diversity: 1, multiplicities: 201, labels: 0">
<ellipse fill="#f6553c" stroke="black" cx="50.5963" cy="-1026" rx="37.0935" ry="18"/>
<text text-anchor="middle" x="50.5963" y="-1022.3" font-family="Times,serif" font-size="14.00">1 (1): 0</text>
</a>
</g>
</g>
<!-- 2 -->
<g id="node3" class="node"><title>2</title>
<g id="a_node3"><a xlink:title="2, diversity: 1, multiplicities: 31, labels: 0">
<ellipse fill="#fca082" stroke="black" cx="574.596" cy="-1170" rx="37.0935" ry="18"/>
<text text-anchor="middle" x="574.596" y="-1166.3" font-family="Times,serif" font-size="14.00">2 (1): 0</text>
</a>
</g>
</g>
<!-- 3 -->
<g id="node4" class="node"><title>3</title>
<g id="a_node4"><a xlink:title="3, diversity: 7, multiplicities: 1,6,6,7,28,58,576, labels: 0">
<ellipse fill="#e32f27" stroke="black" cx="574.596" cy="-1098" rx="37.0935" ry="18"/>
<text text-anchor="middle" x="574.596" y="-1094.3" font-family="Times,serif" font-size="14.00">3 (7): 0</text>
</a>
</g>
</g>
<!-- 2&#45;&gt;3 -->
<g id="edge44" class="edge"><title>2&#45;&gt;3</title>
<path fill="none" stroke="black" d="M574.596,-1151.7C574.596,-1143.98 574.596,-1134.71 574.596,-1126.11"/>
<polygon fill="black" stroke="black" points="578.096,-1126.1 574.596,-1116.1 571.096,-1126.1 578.096,-1126.1"/>
</g>
<!-- 3&#45;&gt;1 -->
<g id="edge54" class="edge"><title>3&#45;&gt;1</title>
<path fill="none" stroke="black" d="M537.495,-1095.95C456.438,-1093 257.885,-1082.14 96.5963,-1044 93.6265,-1043.3 90.5865,-1042.46 87.5542,-1041.54"/>
<polygon fill="black" stroke="black" points="88.5841,-1038.19 77.9907,-1038.36 86.3791,-1044.83 88.5841,-1038.19"/>
</g>
<!-- 4 -->
<g id="node5" class="node"><title>4</title>
<g id="a_node5"><a xlink:title="4, diversity: 3, multiplicities: 4,22,28, labels: 0">
<ellipse fill="#fca082" stroke="black" cx="142.596" cy="-1026" rx="37.0935" ry="18"/>
<text text-anchor="middle" x="142.596" y="-1022.3" font-family="Times,serif" font-size="14.00">4 (3): 0</text>
</a>
</g>
</g>
<!-- 3&#45;&gt;4 -->
<g id="edge65" class="edge"><title>3&#45;&gt;4</title>
<path fill="none" stroke="black" d="M538.176,-1094.65C469.117,-1089.61 314.749,-1075.57 188.596,-1044 185.636,-1043.26 182.603,-1042.39 179.575,-1041.45"/>
<polygon fill="black" stroke="black" points="180.614,-1038.11 170.02,-1038.24 178.385,-1044.74 180.614,-1038.11"/>
</g>
<!-- 5 -->
<g id="node6" class="node"><title>5</title>
<g id="a_node6"><a xlink:title="5, diversity: 1, multiplicities: 8, labels: 0">
<ellipse fill="#fcc4ad" stroke="black" cx="234.596" cy="-1026" rx="37.0935" ry="18"/>
<text text-anchor="middle" x="234.596" y="-1022.3" font-family="Times,serif" font-size="14.00">5 (1): 0</text>
</a>
</g>
</g>
<!-- 3&#45;&gt;5 -->
<g id="edge47" class="edge"><title>3&#45;&gt;5</title>
<path fill="none" stroke="black" d="M538.849,-1092.62C483.054,-1085.32 372.166,-1068.97 280.596,-1044 277.824,-1043.24 274.983,-1042.39 272.14,-1041.48"/>
<polygon fill="black" stroke="black" points="273.156,-1038.13 262.561,-1038.22 270.901,-1044.76 273.156,-1038.13"/>
</g>
<!-- 8 -->
<g id="node9" class="node"><title>8</title>
<g id="a_node9"><a xlink:title="8, diversity: 1, multiplicities: 150, labels: 0">
<ellipse fill="#fb7c5c" stroke="black" cx="326.596" cy="-1026" rx="37.0935" ry="18"/>
<text text-anchor="middle" x="326.596" y="-1022.3" font-family="Times,serif" font-size="14.00">8 (1): 0</text>
</a>
</g>
</g>
<!-- 3&#45;&gt;8 -->
<g id="edge57" class="edge"><title>3&#45;&gt;8</title>
<path fill="none" stroke="black" d="M541.78,-1089.43C501.581,-1079.92 431.555,-1062.58 372.596,-1044 369.856,-1043.14 367.038,-1042.2 364.212,-1041.24"/>
<polygon fill="black" stroke="black" points="365.261,-1037.9 354.666,-1037.87 362.929,-1044.5 365.261,-1037.9"/>
</g>
<!-- 11 -->
<g id="node12" class="node"><title>11</title>
<g id="a_node12"><a xlink:title="11, diversity: 1, multiplicities: 2, labels: 0">
<ellipse fill="#fee3d6" stroke="black" cx="423.596" cy="-1026" rx="41.6928" ry="18"/>
<text text-anchor="middle" x="423.596" y="-1022.3" font-family="Times,serif" font-size="14.00">11 (1): 0</text>
</a>
</g>
</g>
<!-- 3&#45;&gt;11 -->
<g id="edge8" class="edge"><title>3&#45;&gt;11</title>
<path fill="none" stroke="black" d="M548.638,-1084.97C524.275,-1073.67 487.588,-1056.67 460.246,-1043.99"/>
<polygon fill="black" stroke="black" points="461.544,-1040.73 450.999,-1039.7 458.6,-1047.08 461.544,-1040.73"/>
</g>
<!-- 12 -->
<g id="node13" class="node"><title>12</title>
<g id="a_node13"><a xlink:title="12, diversity: 1, multiplicities: 7, labels: 0">
<ellipse fill="#fcc4ad" stroke="black" cx="524.596" cy="-1026" rx="41.6928" ry="18"/>
<text text-anchor="middle" x="524.596" y="-1022.3" font-family="Times,serif" font-size="14.00">12 (1): 0</text>
</a>
</g>
</g>
<!-- 3&#45;&gt;12 -->
<g id="edge52" class="edge"><title>3&#45;&gt;12</title>
<path fill="none" stroke="black" d="M563,-1080.76C556.904,-1072.23 549.298,-1061.58 542.467,-1052.02"/>
<polygon fill="black" stroke="black" points="545.138,-1049.74 536.477,-1043.63 539.442,-1053.81 545.138,-1049.74"/>
</g>
<!-- 16 -->
<g id="node17" class="node"><title>16</title>
<g id="a_node17"><a xlink:title="16, diversity: 2, multiplicities: 2,27, labels: 0">
<ellipse fill="#fca082" stroke="black" cx="625.596" cy="-1026" rx="41.6928" ry="18"/>
<text text-anchor="middle" x="625.596" y="-1022.3" font-family="Times,serif" font-size="14.00">16 (2): 0</text>
</a>
</g>
</g>
<!-- 3&#45;&gt;16 -->
<g id="edge26" class="edge"><title>3&#45;&gt;16</title>
<path fill="none" stroke="black" d="M586.425,-1080.76C592.706,-1072.14 600.559,-1061.36 607.581,-1051.73"/>
<polygon fill="black" stroke="black" points="610.418,-1053.78 613.478,-1043.63 604.76,-1049.65 610.418,-1053.78"/>
</g>
<!-- 19 -->
<g id="node20" class="node"><title>19</title>
<g id="a_node20"><a xlink:title="19, diversity: 2, multiplicities: 1,1, labels: 0">
<ellipse fill="#fee3d6" stroke="black" cx="726.596" cy="-1026" rx="41.6928" ry="18"/>
<text text-anchor="middle" x="726.596" y="-1022.3" font-family="Times,serif" font-size="14.00">19 (2): 0</text>
</a>
</g>
</g>
<!-- 3&#45;&gt;19 -->
<g id="edge45" class="edge"><title>3&#45;&gt;19</title>
<path fill="none" stroke="black" d="M600.726,-1084.97C625.327,-1073.64 662.409,-1056.56 689.96,-1043.87"/>
<polygon fill="black" stroke="black" points="691.652,-1046.95 699.271,-1039.58 688.724,-1040.59 691.652,-1046.95"/>
</g>
<!-- 34 -->
<g id="node35" class="node"><title>34</title>
<g id="a_node35"><a xlink:title="34, diversity: 2, multiplicities: 1,4, labels: 0">
<ellipse fill="#fee3d6" stroke="black" cx="827.596" cy="-1026" rx="41.6928" ry="18"/>
<text text-anchor="middle" x="827.596" y="-1022.3" font-family="Times,serif" font-size="14.00">34 (2): 0</text>
</a>
</g>
</g>
<!-- 3&#45;&gt;34 -->
<g id="edge18" class="edge"><title>3&#45;&gt;34</title>
<path fill="none" stroke="black" d="M607.143,-1089.27C647.405,-1079.54 717.939,-1061.9 777.596,-1044 780.574,-1043.11 783.64,-1042.15 786.718,-1041.17"/>
<polygon fill="black" stroke="black" points="788.089,-1044.4 796.502,-1037.96 785.909,-1037.75 788.089,-1044.4"/>
</g>
<!-- 52 -->
<g id="node53" class="node"><title>52</title>
<g id="a_node53"><a xlink:title="52, diversity: 1, multiplicities: 1, labels: 0">
<ellipse fill="#fff5f0" stroke="black" cx="928.596" cy="-1026" rx="41.6928" ry="18"/>
<text text-anchor="middle" x="928.596" y="-1022.3" font-family="Times,serif" font-size="14.00">52 (1): 0</text>
</a>
</g>
</g>
<!-- 3&#45;&gt;52 -->
<g id="edge7" class="edge"><title>3&#45;&gt;52</title>
<path fill="none" stroke="black" d="M610.081,-1092.63C667.2,-1085.2 782.83,-1068.47 878.596,-1044 881.75,-1043.19 884.99,-1042.28 888.233,-1041.32"/>
<polygon fill="black" stroke="black" points="889.395,-1044.62 897.882,-1038.28 887.293,-1037.94 889.395,-1044.62"/>
</g>
<!-- 56 -->
<g id="node57" class="node"><title>56</title>
<g id="a_node57"><a xlink:title="56, diversity: 1, multiplicities: 1, labels: 0">
<ellipse fill="#fff5f0" stroke="black" cx="1029.6" cy="-1026" rx="41.6928" ry="18"/>
<text text-anchor="middle" x="1029.6" y="-1022.3" font-family="Times,serif" font-size="14.00">56 (1): 0</text>
</a>
</g>
</g>
<!-- 3&#45;&gt;56 -->
<g id="edge1" class="edge"><title>3&#45;&gt;56</title>
<path fill="none" stroke="black" d="M611.056,-1094.65C682.538,-1089.52 845.789,-1075.18 979.596,-1044 982.811,-1043.25 986.11,-1042.38 989.407,-1041.43"/>
<polygon fill="black" stroke="black" points="990.68,-1044.7 999.201,-1038.4 988.613,-1038.01 990.68,-1044.7"/>
</g>
<!-- 60 -->
<g id="node61" class="node"><title>60</title>
<g id="a_node61"><a xlink:title="60, diversity: 1, multiplicities: 1, labels: 0">
<ellipse fill="#fff5f0" stroke="black" cx="1130.6" cy="-1026" rx="41.6928" ry="18"/>
<text text-anchor="middle" x="1130.6" y="-1022.3" font-family="Times,serif" font-size="14.00">60 (1): 0</text>
</a>
</g>
</g>
<!-- 3&#45;&gt;60 -->
<g id="edge27" class="edge"><title>3&#45;&gt;60</title>
<path fill="none" stroke="black" d="M611.556,-1095.95C695.739,-1092.94 907.832,-1081.92 1080.6,-1044 1083.97,-1043.26 1087.43,-1042.37 1090.88,-1041.39"/>
<polygon fill="black" stroke="black" points="1091.96,-1044.72 1100.5,-1038.44 1089.91,-1038.03 1091.96,-1044.72"/>
</g>
<!-- 10 -->
<g id="node11" class="node"><title>10</title>
<g id="a_node11"><a xlink:title="10, diversity: 1, multiplicities: 144, labels: 0">
<ellipse fill="#fb7c5c" stroke="black" cx="41.5963" cy="-954" rx="41.6928" ry="18"/>
<text text-anchor="middle" x="41.5963" y="-950.3" font-family="Times,serif" font-size="14.00">10 (1): 0</text>
</a>
</g>
</g>
<!-- 4&#45;&gt;10 -->
<g id="edge30" class="edge"><title>4&#45;&gt;10</title>
<path fill="none" stroke="black" d="M122.157,-1010.83C107.567,-1000.72 87.7126,-986.962 71.3653,-975.632"/>
<polygon fill="black" stroke="black" points="72.9128,-972.446 62.7,-969.626 68.9253,-978.199 72.9128,-972.446"/>
</g>
<!-- 22 -->
<g id="node23" class="node"><title>22</title>
<g id="a_node23"><a xlink:title="22, diversity: 1, multiplicities: 7, labels: 0">
<ellipse fill="#fcc4ad" stroke="black" cx="142.596" cy="-954" rx="41.6928" ry="18"/>
<text text-anchor="middle" x="142.596" y="-950.3" font-family="Times,serif" font-size="14.00">22 (1): 0</text>
</a>
</g>
</g>
<!-- 4&#45;&gt;22 -->
<g id="edge12" class="edge"><title>4&#45;&gt;22</title>
<path fill="none" stroke="black" d="M142.596,-1007.7C142.596,-999.983 142.596,-990.712 142.596,-982.112"/>
<polygon fill="black" stroke="black" points="146.096,-982.104 142.596,-972.104 139.096,-982.104 146.096,-982.104"/>
</g>
<!-- 36 -->
<g id="node37" class="node"><title>36</title>
<g id="a_node37"><a xlink:title="36, diversity: 1, multiplicities: 5, labels: 0">
<ellipse fill="#fee3d6" stroke="black" cx="243.596" cy="-954" rx="41.6928" ry="18"/>
<text text-anchor="middle" x="243.596" y="-950.3" font-family="Times,serif" font-size="14.00">36 (1): 0</text>
</a>
</g>
</g>
<!-- 4&#45;&gt;36 -->
<g id="edge6" class="edge"><title>4&#45;&gt;36</title>
<path fill="none" stroke="black" d="M163.035,-1010.83C177.626,-1000.72 197.48,-986.962 213.827,-975.632"/>
<polygon fill="black" stroke="black" points="216.267,-978.199 222.493,-969.626 212.28,-972.446 216.267,-978.199"/>
</g>
<!-- 6 -->
<g id="node7" class="node"><title>6</title>
<g id="a_node7"><a xlink:title="6, diversity: 2, multiplicities: 3,54, labels: 0">
<ellipse fill="#fca082" stroke="black" cx="524.596" cy="-954" rx="37.0935" ry="18"/>
<text text-anchor="middle" x="524.596" y="-950.3" font-family="Times,serif" font-size="14.00">6 (2): 0</text>
</a>
</g>
</g>
<!-- 7 -->
<g id="node8" class="node"><title>7</title>
<g id="a_node8"><a xlink:title="7, diversity: 1, multiplicities: 75, labels: 0">
<ellipse fill="#fca082" stroke="black" cx="1130.6" cy="-954" rx="37.0935" ry="18"/>
<text text-anchor="middle" x="1130.6" y="-950.3" font-family="Times,serif" font-size="14.00">7 (1): 0</text>
</a>
</g>
</g>
<!-- 9 -->
<g id="node10" class="node"><title>9</title>
<g id="a_node10"><a xlink:title="9, diversity: 2, multiplicities: 1,7, labels: 0">
<ellipse fill="#fcc4ad" stroke="black" cx="928.596" cy="-954" rx="37.0935" ry="18"/>
<text text-anchor="middle" x="928.596" y="-950.3" font-family="Times,serif" font-size="14.00">9 (2): 0</text>
</a>
</g>
</g>
<!-- 20 -->
<g id="node21" class="node"><title>20</title>
<g id="a_node21"><a xlink:title="20, diversity: 1, multiplicities: 2, labels: 0">
<ellipse fill="#fee3d6" stroke="black" cx="423.596" cy="-954" rx="41.6928" ry="18"/>
<text text-anchor="middle" x="423.596" y="-950.3" font-family="Times,serif" font-size="14.00">20 (1): 0</text>
</a>
</g>
</g>
<!-- 11&#45;&gt;20 -->
<g id="edge60" class="edge"><title>11&#45;&gt;20</title>
<path fill="none" stroke="black" d="M423.596,-1007.7C423.596,-999.983 423.596,-990.712 423.596,-982.112"/>
<polygon fill="black" stroke="black" points="427.096,-982.104 423.596,-972.104 420.096,-982.104 427.096,-982.104"/>
</g>
<!-- 12&#45;&gt;6 -->
<g id="edge23" class="edge"><title>12&#45;&gt;6</title>
<path fill="none" stroke="black" d="M524.596,-1007.7C524.596,-999.983 524.596,-990.712 524.596,-982.112"/>
<polygon fill="black" stroke="black" points="528.096,-982.104 524.596,-972.104 521.096,-982.104 528.096,-982.104"/>
</g>
<!-- 13 -->
<g id="node14" class="node"><title>13</title>
<g id="a_node14"><a xlink:title="13, diversity: 2, multiplicities: 1,3, labels: 0">
<ellipse fill="#fee3d6" stroke="black" cx="553.596" cy="-522" rx="41.6928" ry="18"/>
<text text-anchor="middle" x="553.596" y="-518.3" font-family="Times,serif" font-size="14.00">13 (2): 0</text>
</a>
</g>
</g>
<!-- 43 -->
<g id="node44" class="node"><title>43</title>
<g id="a_node44"><a xlink:title="43, diversity: 1, multiplicities: 1, labels: 0">
<ellipse fill="#fff5f0" stroke="black" cx="452.596" cy="-450" rx="41.6928" ry="18"/>
<text text-anchor="middle" x="452.596" y="-446.3" font-family="Times,serif" font-size="14.00">43 (1): 0</text>
</a>
</g>
</g>
<!-- 13&#45;&gt;43 -->
<g id="edge28" class="edge"><title>13&#45;&gt;43</title>
<path fill="none" stroke="black" d="M532.177,-506.155C517.617,-496.064 498.165,-482.583 482.138,-471.474"/>
<polygon fill="black" stroke="black" points="483.851,-468.403 473.639,-465.584 479.864,-474.157 483.851,-468.403"/>
</g>
<!-- 44 -->
<g id="node45" class="node"><title>44</title>
<g id="a_node45"><a xlink:title="44, diversity: 2, multiplicities: 1,5, labels: 0">
<ellipse fill="#fcc4ad" stroke="black" cx="553.596" cy="-450" rx="41.6928" ry="18"/>
<text text-anchor="middle" x="553.596" y="-446.3" font-family="Times,serif" font-size="14.00">44 (2): 0</text>
</a>
</g>
</g>
<!-- 13&#45;&gt;44 -->
<g id="edge5" class="edge"><title>13&#45;&gt;44</title>
<path fill="none" stroke="black" d="M553.596,-503.697C553.596,-495.983 553.596,-486.712 553.596,-478.112"/>
<polygon fill="black" stroke="black" points="557.096,-478.104 553.596,-468.104 550.096,-478.104 557.096,-478.104"/>
</g>
<!-- 58 -->
<g id="node59" class="node"><title>58</title>
<g id="a_node59"><a xlink:title="58, diversity: 1, multiplicities: 2, labels: 0">
<ellipse fill="#fee3d6" stroke="black" cx="654.596" cy="-450" rx="41.6928" ry="18"/>
<text text-anchor="middle" x="654.596" y="-446.3" font-family="Times,serif" font-size="14.00">58 (1): 0</text>
</a>
</g>
</g>
<!-- 13&#45;&gt;58 -->
<g id="edge22" class="edge"><title>13&#45;&gt;58</title>
<path fill="none" stroke="black" d="M575.016,-506.155C589.575,-496.064 609.027,-482.583 625.055,-471.474"/>
<polygon fill="black" stroke="black" points="627.329,-474.157 633.554,-465.584 623.341,-468.403 627.329,-474.157"/>
</g>
<!-- 14 -->
<g id="node15" class="node"><title>14</title>
<g id="a_node15"><a xlink:title="14, diversity: 1, multiplicities: 6, labels: 0">
<ellipse fill="#fcc4ad" stroke="black" cx="503.596" cy="-18" rx="41.6928" ry="18"/>
<text text-anchor="middle" x="503.596" y="-14.3" font-family="Times,serif" font-size="14.00">14 (1): 0</text>
</a>
</g>
</g>
<!-- 15 -->
<g id="node16" class="node"><title>15</title>
<g id="a_node16"><a xlink:title="15, diversity: 1, multiplicities: 1, labels: 0">
<ellipse fill="#fff5f0" stroke="black" cx="554.596" cy="-666" rx="41.6928" ry="18"/>
<text text-anchor="middle" x="554.596" y="-662.3" font-family="Times,serif" font-size="14.00">15 (1): 0</text>
</a>
</g>
</g>
<!-- 53 -->
<g id="node54" class="node"><title>53</title>
<g id="a_node54"><a xlink:title="53, diversity: 1, multiplicities: 1, labels: 0">
<ellipse fill="#fff5f0" stroke="black" cx="553.596" cy="-594" rx="41.6928" ry="18"/>
<text text-anchor="middle" x="553.596" y="-590.3" font-family="Times,serif" font-size="14.00">53 (1): 0</text>
</a>
</g>
</g>
<!-- 15&#45;&gt;53 -->
<g id="edge39" class="edge"><title>15&#45;&gt;53</title>
<path fill="none" stroke="black" d="M554.349,-647.697C554.239,-639.983 554.106,-630.712 553.984,-622.112"/>
<polygon fill="black" stroke="black" points="557.483,-622.053 553.841,-612.104 550.484,-622.153 557.483,-622.053"/>
</g>
<!-- 17 -->
<g id="node18" class="node"><title>17</title>
<g id="a_node18"><a xlink:title="17, diversity: 2, multiplicities: 1,4, labels: 0">
<ellipse fill="#fee3d6" stroke="black" cx="829.596" cy="-882" rx="41.6928" ry="18"/>
<text text-anchor="middle" x="829.596" y="-878.3" font-family="Times,serif" font-size="14.00">17 (2): 0</text>
</a>
</g>
</g>
<!-- 35 -->
<g id="node36" class="node"><title>35</title>
<g id="a_node36"><a xlink:title="35, diversity: 2, multiplicities: 3,5, labels: 0">
<ellipse fill="#fcc4ad" stroke="black" cx="827.596" cy="-810" rx="41.6928" ry="18"/>
<text text-anchor="middle" x="827.596" y="-806.3" font-family="Times,serif" font-size="14.00">35 (2): 0</text>
</a>
</g>
</g>
<!-- 17&#45;&gt;35 -->
<g id="edge59" class="edge"><title>17&#45;&gt;35</title>
<path fill="none" stroke="black" d="M829.102,-863.697C828.882,-855.983 828.617,-846.712 828.371,-838.112"/>
<polygon fill="black" stroke="black" points="831.869,-838 828.085,-828.104 824.872,-838.2 831.869,-838"/>
</g>
<!-- 42 -->
<g id="node43" class="node"><title>42</title>
<g id="a_node43"><a xlink:title="42, diversity: 1, multiplicities: 1, labels: 0">
<ellipse fill="#fff5f0" stroke="black" cx="928.596" cy="-810" rx="41.6928" ry="18"/>
<text text-anchor="middle" x="928.596" y="-806.3" font-family="Times,serif" font-size="14.00">42 (1): 0</text>
</a>
</g>
</g>
<!-- 17&#45;&gt;42 -->
<g id="edge20" class="edge"><title>17&#45;&gt;42</title>
<path fill="none" stroke="black" d="M850.592,-866.155C864.767,-856.132 883.674,-842.763 899.323,-831.698"/>
<polygon fill="black" stroke="black" points="901.487,-834.455 907.631,-825.824 897.445,-828.739 901.487,-834.455"/>
</g>
<!-- 57 -->
<g id="node58" class="node"><title>57</title>
<g id="a_node58"><a xlink:title="57, diversity: 1, multiplicities: 1, labels: 0">
<ellipse fill="#fff5f0" stroke="black" cx="1029.6" cy="-810" rx="41.6928" ry="18"/>
<text text-anchor="middle" x="1029.6" y="-806.3" font-family="Times,serif" font-size="14.00">57 (1): 0</text>
</a>
</g>
</g>
<!-- 17&#45;&gt;57 -->
<g id="edge61" class="edge"><title>17&#45;&gt;57</title>
<path fill="none" stroke="black" d="M860.846,-870.062C895.237,-858.026 950.652,-838.63 988.53,-825.373"/>
<polygon fill="black" stroke="black" points="989.954,-828.583 998.236,-821.976 987.642,-821.976 989.954,-828.583"/>
</g>
<!-- 18 -->
<g id="node19" class="node"><title>18</title>
<g id="a_node19"><a xlink:title="18, diversity: 1, multiplicities: 10, labels: 0">
<ellipse fill="#fcc4ad" stroke="black" cx="1029.6" cy="-954" rx="41.6928" ry="18"/>
<text text-anchor="middle" x="1029.6" y="-950.3" font-family="Times,serif" font-size="14.00">18 (1): 0</text>
</a>
</g>
</g>
<!-- 27 -->
<g id="node28" class="node"><title>27</title>
<g id="a_node28"><a xlink:title="27, diversity: 1, multiplicities: 1, labels: 0">
<ellipse fill="#fff5f0" stroke="black" cx="623.596" cy="-954" rx="41.6928" ry="18"/>
<text text-anchor="middle" x="623.596" y="-950.3" font-family="Times,serif" font-size="14.00">27 (1): 0</text>
</a>
</g>
</g>
<!-- 19&#45;&gt;27 -->
<g id="edge55" class="edge"><title>19&#45;&gt;27</title>
<path fill="none" stroke="black" d="M705.255,-1010.5C690.201,-1000.27 669.84,-986.428 653.216,-975.13"/>
<polygon fill="black" stroke="black" points="655.149,-972.212 644.911,-969.485 651.214,-978.001 655.149,-972.212"/>
</g>
<!-- 62 -->
<g id="node63" class="node"><title>62</title>
<g id="a_node63"><a xlink:title="62, diversity: 1, multiplicities: 1, labels: 0">
<ellipse fill="#fff5f0" stroke="black" cx="726.596" cy="-954" rx="41.6928" ry="18"/>
<text text-anchor="middle" x="726.596" y="-950.3" font-family="Times,serif" font-size="14.00">62 (1): 0</text>
</a>
</g>
</g>
<!-- 19&#45;&gt;62 -->
<g id="edge15" class="edge"><title>19&#45;&gt;62</title>
<path fill="none" stroke="black" d="M726.596,-1007.7C726.596,-999.983 726.596,-990.712 726.596,-982.112"/>
<polygon fill="black" stroke="black" points="730.096,-982.104 726.596,-972.104 723.096,-982.104 730.096,-982.104"/>
</g>
<!-- 48 -->
<g id="node49" class="node"><title>48</title>
<g id="a_node49"><a xlink:title="48, diversity: 1, multiplicities: 1, labels: 0">
<ellipse fill="#fff5f0" stroke="black" cx="423.596" cy="-882" rx="41.6928" ry="18"/>
<text text-anchor="middle" x="423.596" y="-878.3" font-family="Times,serif" font-size="14.00">48 (1): 0</text>
</a>
</g>
</g>
<!-- 20&#45;&gt;48 -->
<g id="edge16" class="edge"><title>20&#45;&gt;48</title>
<path fill="none" stroke="black" d="M423.596,-935.697C423.596,-927.983 423.596,-918.712 423.596,-910.112"/>
<polygon fill="black" stroke="black" points="427.096,-910.104 423.596,-900.104 420.096,-910.104 427.096,-910.104"/>
</g>
<!-- 21 -->
<g id="node22" class="node"><title>21</title>
<g id="a_node22"><a xlink:title="21, diversity: 1, multiplicities: 5, labels: 0">
<ellipse fill="#fee3d6" stroke="black" cx="803.596" cy="-306" rx="41.6928" ry="18"/>
<text text-anchor="middle" x="803.596" y="-302.3" font-family="Times,serif" font-size="14.00">21 (1): 0</text>
</a>
</g>
</g>
<!-- 23 -->
<g id="node24" class="node"><title>23</title>
<g id="a_node24"><a xlink:title="23, diversity: 1, multiplicities: 6, labels: 0">
<ellipse fill="#fcc4ad" stroke="black" cx="423.596" cy="-666" rx="41.6928" ry="18"/>
<text text-anchor="middle" x="423.596" y="-662.3" font-family="Times,serif" font-size="14.00">23 (1): 0</text>
</a>
</g>
</g>
<!-- 24 -->
<g id="node25" class="node"><title>24</title>
<g id="a_node25"><a xlink:title="24, diversity: 1, multiplicities: 2, labels: 0">
<ellipse fill="#fee3d6" stroke="black" cx="611.596" cy="-882" rx="41.6928" ry="18"/>
<text text-anchor="middle" x="611.596" y="-878.3" font-family="Times,serif" font-size="14.00">24 (1): 0</text>
</a>
</g>
</g>
<!-- 28 -->
<g id="node29" class="node"><title>28</title>
<g id="a_node29"><a xlink:title="28, diversity: 2, multiplicities: 2,2, labels: 0">
<ellipse fill="#fee3d6" stroke="black" cx="562.596" cy="-810" rx="41.6928" ry="18"/>
<text text-anchor="middle" x="562.596" y="-806.3" font-family="Times,serif" font-size="14.00">28 (2): 0</text>
</a>
</g>
</g>
<!-- 24&#45;&gt;28 -->
<g id="edge35" class="edge"><title>24&#45;&gt;28</title>
<path fill="none" stroke="black" d="M599.984,-864.411C594.004,-855.868 586.591,-845.278 579.947,-835.787"/>
<polygon fill="black" stroke="black" points="582.727,-833.655 574.125,-827.47 576.993,-837.669 582.727,-833.655"/>
</g>
<!-- 25 -->
<g id="node26" class="node"><title>25</title>
<g id="a_node26"><a xlink:title="25, diversity: 1, multiplicities: 1, labels: 0">
<ellipse fill="#fff5f0" stroke="black" cx="730.596" cy="-666" rx="41.6928" ry="18"/>
<text text-anchor="middle" x="730.596" y="-662.3" font-family="Times,serif" font-size="14.00">25 (1): 0</text>
</a>
</g>
</g>
<!-- 64 -->
<g id="node65" class="node"><title>64</title>
<g id="a_node65"><a xlink:title="64, diversity: 1, multiplicities: 1, labels: 0">
<ellipse fill="#fff5f0" stroke="black" cx="730.596" cy="-594" rx="41.6928" ry="18"/>
<text text-anchor="middle" x="730.596" y="-590.3" font-family="Times,serif" font-size="14.00">64 (1): 0</text>
</a>
</g>
</g>
<!-- 25&#45;&gt;64 -->
<g id="edge58" class="edge"><title>25&#45;&gt;64</title>
<path fill="none" stroke="black" d="M730.596,-647.697C730.596,-639.983 730.596,-630.712 730.596,-622.112"/>
<polygon fill="black" stroke="black" points="734.096,-622.104 730.596,-612.104 727.096,-622.104 734.096,-622.104"/>
</g>
<!-- 26 -->
<g id="node27" class="node"><title>26</title>
<g id="a_node27"><a xlink:title="26, diversity: 2, multiplicities: 1,2, labels: 0">
<ellipse fill="#fee3d6" stroke="black" cx="755.596" cy="-378" rx="41.6928" ry="18"/>
<text text-anchor="middle" x="755.596" y="-374.3" font-family="Times,serif" font-size="14.00">26 (2): 0</text>
</a>
</g>
</g>
<!-- 26&#45;&gt;0 -->
<g id="edge37" class="edge"><title>26&#45;&gt;0</title>
<path fill="none" stroke="black" d="M743.984,-360.411C738.004,-351.868 730.591,-341.278 723.947,-331.787"/>
<polygon fill="black" stroke="black" points="726.727,-329.655 718.125,-323.47 720.993,-333.669 726.727,-329.655"/>
</g>
<!-- 26&#45;&gt;21 -->
<g id="edge31" class="edge"><title>26&#45;&gt;21</title>
<path fill="none" stroke="black" d="M766.972,-360.411C772.83,-351.868 780.091,-341.278 786.599,-331.787"/>
<polygon fill="black" stroke="black" points="789.534,-333.697 792.303,-323.47 783.761,-329.738 789.534,-333.697"/>
</g>
<!-- 27&#45;&gt;24 -->
<g id="edge36" class="edge"><title>27&#45;&gt;24</title>
<path fill="none" stroke="black" d="M620.63,-935.697C619.308,-927.983 617.718,-918.712 616.244,-910.112"/>
<polygon fill="black" stroke="black" points="619.668,-909.369 614.528,-900.104 612.769,-910.552 619.668,-909.369"/>
</g>
<!-- 32 -->
<g id="node33" class="node"><title>32</title>
<g id="a_node33"><a xlink:title="32, diversity: 1, multiplicities: 1, labels: 0">
<ellipse fill="#fff5f0" stroke="black" cx="560.596" cy="-738" rx="41.6928" ry="18"/>
<text text-anchor="middle" x="560.596" y="-734.3" font-family="Times,serif" font-size="14.00">32 (1): 0</text>
</a>
</g>
</g>
<!-- 28&#45;&gt;32 -->
<g id="edge46" class="edge"><title>28&#45;&gt;32</title>
<path fill="none" stroke="black" d="M562.102,-791.697C561.882,-783.983 561.617,-774.712 561.371,-766.112"/>
<polygon fill="black" stroke="black" points="564.869,-766 561.085,-756.104 557.872,-766.2 564.869,-766"/>
</g>
<!-- 29 -->
<g id="node30" class="node"><title>29</title>
<g id="a_node30"><a xlink:title="29, diversity: 2, multiplicities: 1,6, labels: 0">
<ellipse fill="#fcc4ad" stroke="black" cx="402.596" cy="-90" rx="41.6928" ry="18"/>
<text text-anchor="middle" x="402.596" y="-86.3" font-family="Times,serif" font-size="14.00">29 (2): 0</text>
</a>
</g>
</g>
<!-- 30 -->
<g id="node31" class="node"><title>30</title>
<g id="a_node31"><a xlink:title="30, diversity: 1, multiplicities: 10, labels: 0">
<ellipse fill="#fcc4ad" stroke="black" cx="1029.6" cy="-666" rx="41.6928" ry="18"/>
<text text-anchor="middle" x="1029.6" y="-662.3" font-family="Times,serif" font-size="14.00">30 (1): 0</text>
</a>
</g>
</g>
<!-- 31 -->
<g id="node32" class="node"><title>31</title>
<g id="a_node32"><a xlink:title="31, diversity: 1, multiplicities: 1, labels: 0">
<ellipse fill="#fff5f0" stroke="black" cx="423.596" cy="-810" rx="41.6928" ry="18"/>
<text text-anchor="middle" x="423.596" y="-806.3" font-family="Times,serif" font-size="14.00">31 (1): 0</text>
</a>
</g>
</g>
<!-- 38 -->
<g id="node39" class="node"><title>38</title>
<g id="a_node39"><a xlink:title="38, diversity: 2, multiplicities: 1,3, labels: 0">
<ellipse fill="#fee3d6" stroke="black" cx="423.596" cy="-738" rx="41.6928" ry="18"/>
<text text-anchor="middle" x="423.596" y="-734.3" font-family="Times,serif" font-size="14.00">38 (2): 0</text>
</a>
</g>
</g>
<!-- 31&#45;&gt;38 -->
<g id="edge50" class="edge"><title>31&#45;&gt;38</title>
<path fill="none" stroke="black" d="M423.596,-791.697C423.596,-783.983 423.596,-774.712 423.596,-766.112"/>
<polygon fill="black" stroke="black" points="427.096,-766.104 423.596,-756.104 420.096,-766.104 427.096,-766.104"/>
</g>
<!-- 32&#45;&gt;15 -->
<g id="edge34" class="edge"><title>32&#45;&gt;15</title>
<path fill="none" stroke="black" d="M559.113,-719.697C558.452,-711.983 557.657,-702.712 556.92,-694.112"/>
<polygon fill="black" stroke="black" points="560.404,-693.769 556.062,-684.104 553.429,-694.367 560.404,-693.769"/>
</g>
<!-- 33 -->
<g id="node34" class="node"><title>33</title>
<g id="a_node34"><a xlink:title="33, diversity: 2, multiplicities: 1,1, labels: 0">
<ellipse fill="#fee3d6" stroke="black" cx="730.596" cy="-522" rx="41.6928" ry="18"/>
<text text-anchor="middle" x="730.596" y="-518.3" font-family="Times,serif" font-size="14.00">33 (2): 0</text>
</a>
</g>
</g>
<!-- 66 -->
<g id="node67" class="node"><title>66</title>
<g id="a_node67"><a xlink:title="66, diversity: 1, multiplicities: 1, labels: 0">
<ellipse fill="#fff5f0" stroke="black" cx="755.596" cy="-450" rx="41.6928" ry="18"/>
<text text-anchor="middle" x="755.596" y="-446.3" font-family="Times,serif" font-size="14.00">66 (1): 0</text>
</a>
</g>
</g>
<!-- 33&#45;&gt;66 -->
<g id="edge2" class="edge"><title>33&#45;&gt;66</title>
<path fill="none" stroke="black" d="M736.648,-504.055C739.462,-496.176 742.876,-486.617 746.027,-477.794"/>
<polygon fill="black" stroke="black" points="749.359,-478.87 749.427,-468.275 742.767,-476.516 749.359,-478.87"/>
</g>
<!-- 65 -->
<g id="node66" class="node"><title>65</title>
<g id="a_node66"><a xlink:title="65, diversity: 1, multiplicities: 1, labels: 0">
<ellipse fill="#fff5f0" stroke="black" cx="829.596" cy="-954" rx="41.6928" ry="18"/>
<text text-anchor="middle" x="829.596" y="-950.3" font-family="Times,serif" font-size="14.00">65 (1): 0</text>
</a>
</g>
</g>
<!-- 34&#45;&gt;65 -->
<g id="edge56" class="edge"><title>34&#45;&gt;65</title>
<path fill="none" stroke="black" d="M828.091,-1007.7C828.311,-999.983 828.576,-990.712 828.822,-982.112"/>
<polygon fill="black" stroke="black" points="832.32,-982.2 829.108,-972.104 825.323,-982 832.32,-982.2"/>
</g>
<!-- 37 -->
<g id="node38" class="node"><title>37</title>
<g id="a_node38"><a xlink:title="37, diversity: 2, multiplicities: 1,5, labels: 0">
<ellipse fill="#fcc4ad" stroke="black" cx="727.596" cy="-738" rx="41.6928" ry="18"/>
<text text-anchor="middle" x="727.596" y="-734.3" font-family="Times,serif" font-size="14.00">37 (2): 0</text>
</a>
</g>
</g>
<!-- 37&#45;&gt;25 -->
<g id="edge43" class="edge"><title>37&#45;&gt;25</title>
<path fill="none" stroke="black" d="M728.338,-719.697C728.668,-711.983 729.066,-702.712 729.434,-694.112"/>
<polygon fill="black" stroke="black" points="732.932,-694.245 729.863,-684.104 725.938,-693.945 732.932,-694.245"/>
</g>
<!-- 38&#45;&gt;23 -->
<g id="edge62" class="edge"><title>38&#45;&gt;23</title>
<path fill="none" stroke="black" d="M423.596,-719.697C423.596,-711.983 423.596,-702.712 423.596,-694.112"/>
<polygon fill="black" stroke="black" points="427.096,-694.104 423.596,-684.104 420.096,-694.104 427.096,-694.104"/>
</g>
<!-- 39 -->
<g id="node40" class="node"><title>39</title>
<g id="a_node40"><a xlink:title="39, diversity: 2, multiplicities: 1,2, labels: 0">
<ellipse fill="#fee3d6" stroke="black" cx="726.596" cy="-810" rx="41.6928" ry="18"/>
<text text-anchor="middle" x="726.596" y="-806.3" font-family="Times,serif" font-size="14.00">39 (2): 0</text>
</a>
</g>
</g>
<!-- 39&#45;&gt;37 -->
<g id="edge10" class="edge"><title>39&#45;&gt;37</title>
<path fill="none" stroke="black" d="M726.844,-791.697C726.954,-783.983 727.086,-774.712 727.209,-766.112"/>
<polygon fill="black" stroke="black" points="730.709,-766.153 727.352,-756.104 723.709,-766.053 730.709,-766.153"/>
</g>
<!-- 40 -->
<g id="node41" class="node"><title>40</title>
<g id="a_node41"><a xlink:title="40, diversity: 1, multiplicities: 1, labels: 0">
<ellipse fill="#fff5f0" stroke="black" cx="402.596" cy="-378" rx="41.6928" ry="18"/>
<text text-anchor="middle" x="402.596" y="-374.3" font-family="Times,serif" font-size="14.00">40 (1): 0</text>
</a>
</g>
</g>
<!-- 41 -->
<g id="node42" class="node"><title>41</title>
<g id="a_node42"><a xlink:title="41, diversity: 1, multiplicities: 1, labels: 0">
<ellipse fill="#fff5f0" stroke="black" cx="402.596" cy="-306" rx="41.6928" ry="18"/>
<text text-anchor="middle" x="402.596" y="-302.3" font-family="Times,serif" font-size="14.00">41 (1): 0</text>
</a>
</g>
</g>
<!-- 40&#45;&gt;41 -->
<g id="edge9" class="edge"><title>40&#45;&gt;41</title>
<path fill="none" stroke="black" d="M402.596,-359.697C402.596,-351.983 402.596,-342.712 402.596,-334.112"/>
<polygon fill="black" stroke="black" points="406.096,-334.104 402.596,-324.104 399.096,-334.104 406.096,-334.104"/>
</g>
<!-- 59 -->
<g id="node60" class="node"><title>59</title>
<g id="a_node60"><a xlink:title="59, diversity: 1, multiplicities: 1, labels: 0">
<ellipse fill="#fff5f0" stroke="black" cx="402.596" cy="-234" rx="41.6928" ry="18"/>
<text text-anchor="middle" x="402.596" y="-230.3" font-family="Times,serif" font-size="14.00">59 (1): 0</text>
</a>
</g>
</g>
<!-- 41&#45;&gt;59 -->
<g id="edge51" class="edge"><title>41&#45;&gt;59</title>
<path fill="none" stroke="black" d="M402.596,-287.697C402.596,-279.983 402.596,-270.712 402.596,-262.112"/>
<polygon fill="black" stroke="black" points="406.096,-262.104 402.596,-252.104 399.096,-262.104 406.096,-262.104"/>
</g>
<!-- 45 -->
<g id="node46" class="node"><title>45</title>
<g id="a_node46"><a xlink:title="45, diversity: 1, multiplicities: 5, labels: 0">
<ellipse fill="#fee3d6" stroke="black" cx="928.596" cy="-738" rx="41.6928" ry="18"/>
<text text-anchor="middle" x="928.596" y="-734.3" font-family="Times,serif" font-size="14.00">45 (1): 0</text>
</a>
</g>
</g>
<!-- 42&#45;&gt;45 -->
<g id="edge38" class="edge"><title>42&#45;&gt;45</title>
<path fill="none" stroke="black" d="M928.596,-791.697C928.596,-783.983 928.596,-774.712 928.596,-766.112"/>
<polygon fill="black" stroke="black" points="932.096,-766.104 928.596,-756.104 925.096,-766.104 932.096,-766.104"/>
</g>
<!-- 43&#45;&gt;40 -->
<g id="edge53" class="edge"><title>43&#45;&gt;40</title>
<path fill="none" stroke="black" d="M440.747,-432.411C434.645,-423.868 427.081,-413.278 420.302,-403.787"/>
<polygon fill="black" stroke="black" points="423.021,-401.573 414.361,-395.47 417.325,-405.642 423.021,-401.573"/>
</g>
<!-- 51 -->
<g id="node52" class="node"><title>51</title>
<g id="a_node52"><a xlink:title="51, diversity: 1, multiplicities: 1, labels: 0">
<ellipse fill="#fff5f0" stroke="black" cx="503.596" cy="-378" rx="41.6928" ry="18"/>
<text text-anchor="middle" x="503.596" y="-374.3" font-family="Times,serif" font-size="14.00">51 (1): 0</text>
</a>
</g>
</g>
<!-- 43&#45;&gt;51 -->
<g id="edge14" class="edge"><title>43&#45;&gt;51</title>
<path fill="none" stroke="black" d="M464.683,-432.411C470.907,-423.868 478.622,-413.278 485.537,-403.787"/>
<polygon fill="black" stroke="black" points="488.537,-405.613 491.597,-395.47 482.879,-401.491 488.537,-405.613"/>
</g>
<!-- 46 -->
<g id="node47" class="node"><title>46</title>
<g id="a_node47"><a xlink:title="46, diversity: 1, multiplicities: 1, labels: 0">
<ellipse fill="#fff5f0" stroke="black" cx="1029.6" cy="-738" rx="41.6928" ry="18"/>
<text text-anchor="middle" x="1029.6" y="-734.3" font-family="Times,serif" font-size="14.00">46 (1): 0</text>
</a>
</g>
</g>
<!-- 46&#45;&gt;30 -->
<g id="edge19" class="edge"><title>46&#45;&gt;30</title>
<path fill="none" stroke="black" d="M1029.6,-719.697C1029.6,-711.983 1029.6,-702.712 1029.6,-694.112"/>
<polygon fill="black" stroke="black" points="1033.1,-694.104 1029.6,-684.104 1026.1,-694.104 1033.1,-694.104"/>
</g>
<!-- 47 -->
<g id="node48" class="node"><title>47</title>
<g id="a_node48"><a xlink:title="47, diversity: 1, multiplicities: 5, labels: 0">
<ellipse fill="#fee3d6" stroke="black" cx="654.596" cy="-378" rx="41.6928" ry="18"/>
<text text-anchor="middle" x="654.596" y="-374.3" font-family="Times,serif" font-size="14.00">47 (1): 0</text>
</a>
</g>
</g>
<!-- 48&#45;&gt;31 -->
<g id="edge4" class="edge"><title>48&#45;&gt;31</title>
<path fill="none" stroke="black" d="M423.596,-863.697C423.596,-855.983 423.596,-846.712 423.596,-838.112"/>
<polygon fill="black" stroke="black" points="427.096,-838.104 423.596,-828.104 420.096,-838.104 427.096,-838.104"/>
</g>
<!-- 49 -->
<g id="node50" class="node"><title>49</title>
<g id="a_node50"><a xlink:title="49, diversity: 1, multiplicities: 1, labels: 0">
<ellipse fill="#fff5f0" stroke="black" cx="503.596" cy="-162" rx="41.6928" ry="18"/>
<text text-anchor="middle" x="503.596" y="-158.3" font-family="Times,serif" font-size="14.00">49 (1): 0</text>
</a>
</g>
</g>
<!-- 50 -->
<g id="node51" class="node"><title>50</title>
<g id="a_node51"><a xlink:title="50, diversity: 1, multiplicities: 1, labels: 0">
<ellipse fill="#fff5f0" stroke="black" cx="503.596" cy="-90" rx="41.6928" ry="18"/>
<text text-anchor="middle" x="503.596" y="-86.3" font-family="Times,serif" font-size="14.00">50 (1): 0</text>
</a>
</g>
</g>
<!-- 49&#45;&gt;50 -->
<g id="edge17" class="edge"><title>49&#45;&gt;50</title>
<path fill="none" stroke="black" d="M503.596,-143.697C503.596,-135.983 503.596,-126.712 503.596,-118.112"/>
<polygon fill="black" stroke="black" points="507.096,-118.104 503.596,-108.104 500.096,-118.104 507.096,-118.104"/>
</g>
<!-- 50&#45;&gt;14 -->
<g id="edge32" class="edge"><title>50&#45;&gt;14</title>
<path fill="none" stroke="black" d="M503.596,-71.6966C503.596,-63.9827 503.596,-54.7125 503.596,-46.1124"/>
<polygon fill="black" stroke="black" points="507.096,-46.1043 503.596,-36.1043 500.096,-46.1044 507.096,-46.1043"/>
</g>
<!-- 63 -->
<g id="node64" class="node"><title>63</title>
<g id="a_node64"><a xlink:title="63, diversity: 1, multiplicities: 1, labels: 0">
<ellipse fill="#fff5f0" stroke="black" cx="503.596" cy="-306" rx="41.6928" ry="18"/>
<text text-anchor="middle" x="503.596" y="-302.3" font-family="Times,serif" font-size="14.00">63 (1): 0</text>
</a>
</g>
</g>
<!-- 51&#45;&gt;63 -->
<g id="edge49" class="edge"><title>51&#45;&gt;63</title>
<path fill="none" stroke="black" d="M503.596,-359.697C503.596,-351.983 503.596,-342.712 503.596,-334.112"/>
<polygon fill="black" stroke="black" points="507.096,-334.104 503.596,-324.104 500.096,-334.104 507.096,-334.104"/>
</g>
<!-- 52&#45;&gt;9 -->
<g id="edge63" class="edge"><title>52&#45;&gt;9</title>
<path fill="none" stroke="black" d="M928.596,-1007.7C928.596,-999.983 928.596,-990.712 928.596,-982.112"/>
<polygon fill="black" stroke="black" points="932.096,-982.104 928.596,-972.104 925.096,-982.104 932.096,-982.104"/>
</g>
<!-- 53&#45;&gt;13 -->
<g id="edge29" class="edge"><title>53&#45;&gt;13</title>
<path fill="none" stroke="black" d="M553.596,-575.697C553.596,-567.983 553.596,-558.712 553.596,-550.112"/>
<polygon fill="black" stroke="black" points="557.096,-550.104 553.596,-540.104 550.096,-550.104 557.096,-550.104"/>
</g>
<!-- 54 -->
<g id="node55" class="node"><title>54</title>
<g id="a_node55"><a xlink:title="54, diversity: 1, multiplicities: 1, labels: 0">
<ellipse fill="#fff5f0" stroke="black" cx="726.596" cy="-882" rx="41.6928" ry="18"/>
<text text-anchor="middle" x="726.596" y="-878.3" font-family="Times,serif" font-size="14.00">54 (1): 0</text>
</a>
</g>
</g>
<!-- 54&#45;&gt;39 -->
<g id="edge25" class="edge"><title>54&#45;&gt;39</title>
<path fill="none" stroke="black" d="M726.596,-863.697C726.596,-855.983 726.596,-846.712 726.596,-838.112"/>
<polygon fill="black" stroke="black" points="730.096,-838.104 726.596,-828.104 723.096,-838.104 730.096,-838.104"/>
</g>
<!-- 55 -->
<g id="node56" class="node"><title>55</title>
<g id="a_node56"><a xlink:title="55, diversity: 1, multiplicities: 1, labels: 0">
<ellipse fill="#fff5f0" stroke="black" cx="503.596" cy="-234" rx="41.6928" ry="18"/>
<text text-anchor="middle" x="503.596" y="-230.3" font-family="Times,serif" font-size="14.00">55 (1): 0</text>
</a>
</g>
</g>
<!-- 55&#45;&gt;49 -->
<g id="edge41" class="edge"><title>55&#45;&gt;49</title>
<path fill="none" stroke="black" d="M503.596,-215.697C503.596,-207.983 503.596,-198.712 503.596,-190.112"/>
<polygon fill="black" stroke="black" points="507.096,-190.104 503.596,-180.104 500.096,-190.104 507.096,-190.104"/>
</g>
<!-- 56&#45;&gt;18 -->
<g id="edge33" class="edge"><title>56&#45;&gt;18</title>
<path fill="none" stroke="black" d="M1029.6,-1007.7C1029.6,-999.983 1029.6,-990.712 1029.6,-982.112"/>
<polygon fill="black" stroke="black" points="1033.1,-982.104 1029.6,-972.104 1026.1,-982.104 1033.1,-982.104"/>
</g>
<!-- 57&#45;&gt;46 -->
<g id="edge11" class="edge"><title>57&#45;&gt;46</title>
<path fill="none" stroke="black" d="M1029.6,-791.697C1029.6,-783.983 1029.6,-774.712 1029.6,-766.112"/>
<polygon fill="black" stroke="black" points="1033.1,-766.104 1029.6,-756.104 1026.1,-766.104 1033.1,-766.104"/>
</g>
<!-- 58&#45;&gt;47 -->
<g id="edge48" class="edge"><title>58&#45;&gt;47</title>
<path fill="none" stroke="black" d="M654.596,-431.697C654.596,-423.983 654.596,-414.712 654.596,-406.112"/>
<polygon fill="black" stroke="black" points="658.096,-406.104 654.596,-396.104 651.096,-406.104 658.096,-406.104"/>
</g>
<!-- 61 -->
<g id="node62" class="node"><title>61</title>
<g id="a_node62"><a xlink:title="61, diversity: 1, multiplicities: 1, labels: 0">
<ellipse fill="#fff5f0" stroke="black" cx="402.596" cy="-162" rx="41.6928" ry="18"/>
<text text-anchor="middle" x="402.596" y="-158.3" font-family="Times,serif" font-size="14.00">61 (1): 0</text>
</a>
</g>
</g>
<!-- 59&#45;&gt;61 -->
<g id="edge21" class="edge"><title>59&#45;&gt;61</title>
<path fill="none" stroke="black" d="M402.596,-215.697C402.596,-207.983 402.596,-198.712 402.596,-190.112"/>
<polygon fill="black" stroke="black" points="406.096,-190.104 402.596,-180.104 399.096,-190.104 406.096,-190.104"/>
</g>
<!-- 60&#45;&gt;7 -->
<g id="edge64" class="edge"><title>60&#45;&gt;7</title>
<path fill="none" stroke="black" d="M1130.6,-1007.7C1130.6,-999.983 1130.6,-990.712 1130.6,-982.112"/>
<polygon fill="black" stroke="black" points="1134.1,-982.104 1130.6,-972.104 1127.1,-982.104 1134.1,-982.104"/>
</g>
<!-- 61&#45;&gt;29 -->
<g id="edge3" class="edge"><title>61&#45;&gt;29</title>
<path fill="none" stroke="black" d="M402.596,-143.697C402.596,-135.983 402.596,-126.712 402.596,-118.112"/>
<polygon fill="black" stroke="black" points="406.096,-118.104 402.596,-108.104 399.096,-118.104 406.096,-118.104"/>
</g>
<!-- 62&#45;&gt;54 -->
<g id="edge42" class="edge"><title>62&#45;&gt;54</title>
<path fill="none" stroke="black" d="M726.596,-935.697C726.596,-927.983 726.596,-918.712 726.596,-910.112"/>
<polygon fill="black" stroke="black" points="730.096,-910.104 726.596,-900.104 723.096,-910.104 730.096,-910.104"/>
</g>
<!-- 63&#45;&gt;55 -->
<g id="edge66" class="edge"><title>63&#45;&gt;55</title>
<path fill="none" stroke="black" d="M503.596,-287.697C503.596,-279.983 503.596,-270.712 503.596,-262.112"/>
<polygon fill="black" stroke="black" points="507.096,-262.104 503.596,-252.104 500.096,-262.104 507.096,-262.104"/>
</g>
<!-- 64&#45;&gt;33 -->
<g id="edge24" class="edge"><title>64&#45;&gt;33</title>
<path fill="none" stroke="black" d="M730.596,-575.697C730.596,-567.983 730.596,-558.712 730.596,-550.112"/>
<polygon fill="black" stroke="black" points="734.096,-550.104 730.596,-540.104 727.096,-550.104 734.096,-550.104"/>
</g>
<!-- 65&#45;&gt;17 -->
<g id="edge40" class="edge"><title>65&#45;&gt;17</title>
<path fill="none" stroke="black" d="M829.596,-935.697C829.596,-927.983 829.596,-918.712 829.596,-910.112"/>
<polygon fill="black" stroke="black" points="833.096,-910.104 829.596,-900.104 826.096,-910.104 833.096,-910.104"/>
</g>
<!-- 66&#45;&gt;26 -->
<g id="edge13" class="edge"><title>66&#45;&gt;26</title>
<path fill="none" stroke="black" d="M755.596,-431.697C755.596,-423.983 755.596,-414.712 755.596,-406.112"/>
<polygon fill="black" stroke="black" points="759.096,-406.104 755.596,-396.104 752.096,-406.104 759.096,-406.104"/>
</g>
</g>
</svg>
