<?xml version="1.0" encoding="UTF-8" standalone="no"?>
<!DOCTYPE svg PUBLIC "-//W3C//DTD SVG 1.1//EN"
 "http://www.w3.org/Graphics/SVG/1.1/DTD/svg11.dtd">
<!-- Generated by graphviz version 2.38.0 (20140413.2041)
 -->
<!-- Title: %3 Pages: 1 -->
<svg width="560pt" height="332pt"
 viewBox="0.00 0.00 559.50 332.00" xmlns="http://www.w3.org/2000/svg" xmlns:xlink="http://www.w3.org/1999/xlink">
<g id="graph0" class="graph" transform="scale(1 1) rotate(0) translate(4 328)">
<title>%3</title>
<polygon fill="white" stroke="none" points="-4,4 -4,-328 555.5,-328 555.5,4 -4,4"/>
<!-- p0 -->
<g id="node1" class="node"><title>p0</title>
<path fill="none" stroke="black" d="M47,-180C47,-180 12,-180 12,-180 6,-180 0,-174 0,-168 0,-168 0,-156 0,-156 0,-150 6,-144 12,-144 12,-144 47,-144 47,-144 53,-144 59,-150 59,-156 59,-156 59,-168 59,-168 59,-174 53,-180 47,-180"/>
<text text-anchor="middle" x="29.5" y="-158.3" font-family="Times,serif" font-size="14.00">path (3)</text>
</g>
<!-- v1 -->
<g id="node2" class="node"><title>v1</title>
<ellipse fill="none" stroke="black" cx="303.5" cy="-306" rx="27" ry="18"/>
<text text-anchor="middle" x="303.5" y="-302.3" font-family="Times,serif" font-size="14.00">1</text>
</g>
<!-- v2 -->
<g id="node3" class="node"><title>v2</title>
<ellipse fill="none" stroke="black" cx="114.5" cy="-234" rx="27" ry="18"/>
<text text-anchor="middle" x="114.5" y="-230.3" font-family="Times,serif" font-size="14.00">2</text>
</g>
<!-- v1&#45;&gt;v2 -->
<g id="edge4" class="edge"><title>v1&#45;&gt;v2</title>
<path fill="none" stroke="black" d="M279.352,-297.525C248.947,-287.91 195.269,-270.263 150.5,-252 148.676,-251.256 146.812,-250.467 144.939,-249.652"/>
<polygon fill="black" stroke="black" points="146.205,-246.383 135.651,-245.452 143.321,-252.761 146.205,-246.383"/>
</g>
<!-- p1 -->
<g id="node7" class="node"><title>p1</title>
<path fill="none" stroke="black" d="M207,-252C207,-252 172,-252 172,-252 166,-252 160,-246 160,-240 160,-240 160,-228 160,-228 160,-222 166,-216 172,-216 172,-216 207,-216 207,-216 213,-216 219,-222 219,-228 219,-228 219,-240 219,-240 219,-246 213,-252 207,-252"/>
<text text-anchor="middle" x="189.5" y="-230.3" font-family="Times,serif" font-size="14.00">path (2)</text>
</g>
<!-- v1&#45;&gt;p1 -->
<g id="edge10" class="edge"><title>v1&#45;&gt;p1</title>
<path fill="none" stroke="black" d="M284.161,-293.125C268.296,-283.384 245.385,-269.315 226.077,-257.459"/>
<polygon fill="black" stroke="black" points="227.85,-254.441 217.497,-252.191 224.187,-260.406 227.85,-254.441"/>
</g>
<!-- p2 -->
<g id="node8" class="node"><title>p2</title>
<path fill="none" stroke="black" d="M284,-252C284,-252 249,-252 249,-252 243,-252 237,-246 237,-240 237,-240 237,-228 237,-228 237,-222 243,-216 249,-216 249,-216 284,-216 284,-216 290,-216 296,-222 296,-228 296,-228 296,-240 296,-240 296,-246 290,-252 284,-252"/>
<text text-anchor="middle" x="266.5" y="-230.3" font-family="Times,serif" font-size="14.00">path (3)</text>
</g>
<!-- v1&#45;&gt;p2 -->
<g id="edge12" class="edge"><title>v1&#45;&gt;p2</title>
<path fill="none" stroke="black" d="M294.918,-288.765C290.563,-280.525 285.167,-270.317 280.251,-261.016"/>
<polygon fill="black" stroke="black" points="283.319,-259.329 275.551,-252.124 277.13,-262.6 283.319,-259.329"/>
</g>
<!-- v11 -->
<g id="node9" class="node"><title>v11</title>
<ellipse fill="none" stroke="black" cx="341.5" cy="-234" rx="27" ry="18"/>
<text text-anchor="middle" x="341.5" y="-230.3" font-family="Times,serif" font-size="14.00">11</text>
</g>
<!-- v1&#45;&gt;v11 -->
<g id="edge2" class="edge"><title>v1&#45;&gt;v11</title>
<path fill="none" stroke="black" d="M312.313,-288.765C316.918,-280.283 322.655,-269.714 327.821,-260.197"/>
<polygon fill="black" stroke="black" points="331.039,-261.606 332.734,-251.147 324.887,-258.266 331.039,-261.606"/>
</g>
<!-- v14 -->
<g id="node10" class="node"><title>v14</title>
<ellipse fill="none" stroke="black" cx="413.5" cy="-234" rx="27" ry="18"/>
<text text-anchor="middle" x="413.5" y="-230.3" font-family="Times,serif" font-size="14.00">14</text>
</g>
<!-- v1&#45;&gt;v14 -->
<g id="edge6" class="edge"><title>v1&#45;&gt;v14</title>
<path fill="none" stroke="black" d="M322.661,-292.807C340.169,-281.665 366.259,-265.062 385.993,-252.504"/>
<polygon fill="black" stroke="black" points="388.001,-255.375 394.559,-247.053 384.243,-249.469 388.001,-255.375"/>
</g>
<!-- p4 -->
<g id="node14" class="node"><title>p4</title>
<path fill="none" stroke="black" d="M506,-252C506,-252 471,-252 471,-252 465,-252 459,-246 459,-240 459,-240 459,-228 459,-228 459,-222 465,-216 471,-216 471,-216 506,-216 506,-216 512,-216 518,-222 518,-228 518,-228 518,-240 518,-240 518,-246 512,-252 506,-252"/>
<text text-anchor="middle" x="488.5" y="-230.3" font-family="Times,serif" font-size="14.00">path (2)</text>
</g>
<!-- v1&#45;&gt;p4 -->
<g id="edge1" class="edge"><title>v1&#45;&gt;p4</title>
<path fill="none" stroke="black" d="M326.934,-297.003C355.917,-286.995 406.672,-269.088 449.5,-252 449.594,-251.962 449.689,-251.925 449.783,-251.887"/>
<polygon fill="black" stroke="black" points="450.855,-255.231 458.77,-248.188 448.191,-248.757 450.855,-255.231"/>
</g>
<!-- v2&#45;&gt;p0 -->
<g id="edge8" class="edge"><title>v2&#45;&gt;p0</title>
<path fill="none" stroke="black" d="M98.1111,-219.503C86.8451,-210.225 71.5823,-197.656 58.3126,-186.728"/>
<polygon fill="black" stroke="black" points="60.3057,-183.835 50.3614,-180.18 55.8557,-189.239 60.3057,-183.835"/>
</g>
<!-- v4 -->
<g id="node4" class="node"><title>v4</title>
<ellipse fill="none" stroke="black" cx="150.5" cy="-90" rx="27" ry="18"/>
<text text-anchor="middle" x="150.5" y="-86.3" font-family="Times,serif" font-size="14.00">4</text>
</g>
<!-- v2&#45;&gt;v4 -->
<g id="edge15" class="edge"><title>v2&#45;&gt;v4</title>
<path fill="none" stroke="black" d="M108.891,-216.384C103.644,-198.09 97.8083,-168.077 106.5,-144 110.771,-132.168 118.961,-121.111 127.128,-112.19"/>
<polygon fill="black" stroke="black" points="129.727,-114.539 134.2,-104.935 124.714,-109.653 129.727,-114.539"/>
</g>
<!-- v5 -->
<g id="node5" class="node"><title>v5</title>
<ellipse fill="none" stroke="black" cx="142.5" cy="-162" rx="27" ry="18"/>
<text text-anchor="middle" x="142.5" y="-158.3" font-family="Times,serif" font-size="14.00">5</text>
</g>
<!-- v2&#45;&gt;v5 -->
<g id="edge3" class="edge"><title>v2&#45;&gt;v5</title>
<path fill="none" stroke="black" d="M121.136,-216.411C124.413,-208.216 128.444,-198.14 132.118,-188.955"/>
<polygon fill="black" stroke="black" points="135.448,-190.055 135.912,-179.47 128.948,-187.455 135.448,-190.055"/>
</g>
<!-- v7 -->
<g id="node6" class="node"><title>v7</title>
<ellipse fill="none" stroke="black" cx="214.5" cy="-162" rx="27" ry="18"/>
<text text-anchor="middle" x="214.5" y="-158.3" font-family="Times,serif" font-size="14.00">7</text>
</g>
<!-- v2&#45;&gt;v7 -->
<g id="edge11" class="edge"><title>v2&#45;&gt;v7</title>
<path fill="none" stroke="black" d="M132.378,-220.485C147.782,-209.702 170.241,-193.981 187.78,-181.704"/>
<polygon fill="black" stroke="black" points="190.254,-184.244 196.44,-175.642 186.24,-178.51 190.254,-184.244"/>
</g>
<!-- p3 -->
<g id="node11" class="node"><title>p3</title>
<path fill="none" stroke="black" d="M168,-36C168,-36 133,-36 133,-36 127,-36 121,-30 121,-24 121,-24 121,-12 121,-12 121,-6 127,-0 133,-0 133,-0 168,-0 168,-0 174,-0 180,-6 180,-12 180,-12 180,-24 180,-24 180,-30 174,-36 168,-36"/>
<text text-anchor="middle" x="150.5" y="-14.3" font-family="Times,serif" font-size="14.00">path (2)</text>
</g>
<!-- v4&#45;&gt;p3 -->
<g id="edge13" class="edge"><title>v4&#45;&gt;p3</title>
<path fill="none" stroke="black" d="M150.5,-71.6966C150.5,-63.9827 150.5,-54.7125 150.5,-46.1124"/>
<polygon fill="black" stroke="black" points="154,-46.1043 150.5,-36.1043 147,-46.1044 154,-46.1043"/>
</g>
<!-- v7&#45;&gt;v4 -->
<g id="edge14" class="edge"><title>v7&#45;&gt;v4</title>
<path fill="none" stroke="black" d="M200.927,-146.155C192.188,-136.596 180.666,-123.994 170.842,-113.249"/>
<polygon fill="black" stroke="black" points="173.384,-110.842 164.053,-105.824 168.218,-115.566 173.384,-110.842"/>
</g>
<!-- v17 -->
<g id="node12" class="node"><title>v17</title>
<ellipse fill="none" stroke="black" cx="452.5" cy="-90" rx="27" ry="18"/>
<text text-anchor="middle" x="452.5" y="-86.3" font-family="Times,serif" font-size="14.00">17</text>
</g>
<!-- v18 -->
<g id="node13" class="node"><title>v18</title>
<ellipse fill="none" stroke="black" cx="488.5" cy="-162" rx="27" ry="18"/>
<text text-anchor="middle" x="488.5" y="-158.3" font-family="Times,serif" font-size="14.00">18</text>
</g>
<!-- v18&#45;&gt;v17 -->
<g id="edge9" class="edge"><title>v18&#45;&gt;v17</title>
<path fill="none" stroke="black" d="M480.15,-144.765C475.788,-136.283 470.353,-125.714 465.459,-116.197"/>
<polygon fill="black" stroke="black" points="468.49,-114.439 460.804,-107.147 462.265,-117.641 468.49,-114.439"/>
</g>
<!-- v20 -->
<g id="node15" class="node"><title>v20</title>
<ellipse fill="none" stroke="black" cx="524.5" cy="-90" rx="27" ry="18"/>
<text text-anchor="middle" x="524.5" y="-86.3" font-family="Times,serif" font-size="14.00">20</text>
</g>
<!-- v18&#45;&gt;v20 -->
<g id="edge7" class="edge"><title>v18&#45;&gt;v20</title>
<path fill="none" stroke="black" d="M496.85,-144.765C501.212,-136.283 506.647,-125.714 511.541,-116.197"/>
<polygon fill="black" stroke="black" points="514.735,-117.641 516.196,-107.147 508.51,-114.439 514.735,-117.641"/>
</g>
<!-- p4&#45;&gt;v18 -->
<g id="edge5" class="edge"><title>p4&#45;&gt;v18</title>
<path fill="none" stroke="black" d="M488.5,-215.697C488.5,-207.983 488.5,-198.712 488.5,-190.112"/>
<polygon fill="black" stroke="black" points="492,-190.104 488.5,-180.104 485,-190.104 492,-190.104"/>
</g>
</g>
</svg>
