<?xml version="1.0" encoding="UTF-8" standalone="no"?>
<!DOCTYPE svg PUBLIC "-//W3C//DTD SVG 1.1//EN"
 "http://www.w3.org/Graphics/SVG/1.1/DTD/svg11.dtd">
<!-- Generated by graphviz version 2.38.0 (20140413.2041)
 -->
<!-- Title: %3 Pages: 1 -->
<svg width="1314pt" height="764pt"
 viewBox="0.00 0.00 1313.64 764.00" xmlns="http://www.w3.org/2000/svg" xmlns:xlink="http://www.w3.org/1999/xlink">
<g id="graph0" class="graph" transform="scale(1 1) rotate(0) translate(4 760)">
<title>%3</title>
<polygon fill="white" stroke="none" points="-4,4 -4,-760 1309.64,-760 1309.64,4 -4,4"/>
<!-- 0 -->
<g id="node1" class="node"><title>0</title>
<g id="a_node1"><a xlink:title="0, diversity: 5, multiplicities: 36,63,66,79,81, labels: 0">
<ellipse fill="#f7fcf5" stroke="black" cx="504.047" cy="-450" rx="37.0935" ry="18"/>
<text text-anchor="middle" x="504.047" y="-446.3" font-family="Times,serif" font-size="14.00">0 (5): 0</text>
</a>
</g>
</g>
<!-- 1 -->
<g id="node2" class="node"><title>1</title>
<g id="a_node2"><a xlink:title="1, diversity: 1, multiplicities: 232, labels: 0">
<ellipse fill="#f7fcf5" stroke="black" cx="177.047" cy="-378" rx="37.0935" ry="18"/>
<text text-anchor="middle" x="177.047" y="-374.3" font-family="Times,serif" font-size="14.00">1 (1): 0</text>
</a>
</g>
</g>
<!-- 0&#45;&gt;1 -->
<g id="edge46" class="edge"><title>0&#45;&gt;1</title>
<path fill="none" stroke="black" d="M470.893,-441.903C411.401,-429.168 286.574,-402.446 220.388,-388.278"/>
<polygon fill="black" stroke="black" points="220.8,-384.787 210.289,-386.116 219.334,-391.632 220.8,-384.787"/>
</g>
<!-- 3 -->
<g id="node4" class="node"><title>3</title>
<g id="a_node4"><a xlink:title="3, diversity: 1, multiplicities: 250, labels: 0">
<ellipse fill="#f7fcf5" stroke="black" cx="327.047" cy="-378" rx="37.0935" ry="18"/>
<text text-anchor="middle" x="327.047" y="-374.3" font-family="Times,serif" font-size="14.00">3 (1): 0</text>
</a>
</g>
</g>
<!-- 0&#45;&gt;3 -->
<g id="edge8" class="edge"><title>0&#45;&gt;3</title>
<path fill="none" stroke="black" d="M476.001,-437.908C445.835,-425.979 397.721,-406.95 364.374,-393.762"/>
<polygon fill="black" stroke="black" points="365.548,-390.463 354.962,-390.04 362.974,-396.972 365.548,-390.463"/>
</g>
<!-- 8 -->
<g id="node9" class="node"><title>8</title>
<g id="a_node9"><a xlink:title="8, diversity: 3, multiplicities: 8,12,12, labels: 0">
<ellipse fill="#f7fcf5" stroke="black" cx="419.047" cy="-378" rx="37.0935" ry="18"/>
<text text-anchor="middle" x="419.047" y="-374.3" font-family="Times,serif" font-size="14.00">8 (3): 0</text>
</a>
</g>
</g>
<!-- 0&#45;&gt;8 -->
<g id="edge43" class="edge"><title>0&#45;&gt;8</title>
<path fill="none" stroke="black" d="M486.02,-434.155C474.075,-424.317 458.216,-411.257 444.93,-400.315"/>
<polygon fill="black" stroke="black" points="446.991,-397.479 437.047,-393.824 442.541,-402.883 446.991,-397.479"/>
</g>
<!-- 15 -->
<g id="node16" class="node"><title>15</title>
<g id="a_node16"><a xlink:title="15, diversity: 1, multiplicities: 12, labels: 0">
<ellipse fill="#f7fcf5" stroke="black" cx="516.047" cy="-378" rx="41.6928" ry="18"/>
<text text-anchor="middle" x="516.047" y="-374.3" font-family="Times,serif" font-size="14.00">15 (1): 0</text>
</a>
</g>
</g>
<!-- 0&#45;&gt;15 -->
<g id="edge13" class="edge"><title>0&#45;&gt;15</title>
<path fill="none" stroke="black" d="M506.952,-432.055C508.273,-424.346 509.871,-415.027 511.356,-406.364"/>
<polygon fill="black" stroke="black" points="514.845,-406.723 513.085,-396.275 507.946,-405.54 514.845,-406.723"/>
</g>
<!-- 18 -->
<g id="node19" class="node"><title>18</title>
<g id="a_node19"><a xlink:title="18, diversity: 1, multiplicities: 6, labels: 0">
<ellipse fill="#f7fcf5" stroke="black" cx="617.047" cy="-378" rx="41.6928" ry="18"/>
<text text-anchor="middle" x="617.047" y="-374.3" font-family="Times,serif" font-size="14.00">18 (1): 0</text>
</a>
</g>
</g>
<!-- 0&#45;&gt;18 -->
<g id="edge36" class="edge"><title>0&#45;&gt;18</title>
<path fill="none" stroke="black" d="M526.103,-435.337C543.069,-424.827 566.738,-410.165 585.676,-398.433"/>
<polygon fill="black" stroke="black" points="587.614,-401.35 594.272,-393.108 583.928,-395.399 587.614,-401.35"/>
</g>
<!-- 45 -->
<g id="node46" class="node"><title>45</title>
<g id="a_node46"><a xlink:title="45, diversity: 1, multiplicities: 25, labels: 0">
<ellipse fill="#f7fcf5" stroke="black" cx="718.047" cy="-378" rx="41.6928" ry="18"/>
<text text-anchor="middle" x="718.047" y="-374.3" font-family="Times,serif" font-size="14.00">45 (1): 0</text>
</a>
</g>
</g>
<!-- 0&#45;&gt;45 -->
<g id="edge35" class="edge"><title>0&#45;&gt;45</title>
<path fill="none" stroke="black" d="M532.665,-438.132C538.401,-436.037 544.399,-433.903 550.047,-432 602.006,-414.489 615.862,-412.827 668.047,-396 670.963,-395.06 673.97,-394.075 676.995,-393.074"/>
<polygon fill="black" stroke="black" points="678.251,-396.344 686.624,-389.853 676.03,-389.706 678.251,-396.344"/>
</g>
<!-- 4 -->
<g id="node5" class="node"><title>4</title>
<g id="a_node5"><a xlink:title="4, diversity: 1, multiplicities: 29, labels: 0">
<ellipse fill="#f7fcf5" stroke="black" cx="37.0467" cy="-306" rx="37.0935" ry="18"/>
<text text-anchor="middle" x="37.0467" y="-302.3" font-family="Times,serif" font-size="14.00">4 (1): 0</text>
</a>
</g>
</g>
<!-- 1&#45;&gt;4 -->
<g id="edge37" class="edge"><title>1&#45;&gt;4</title>
<path fill="none" stroke="black" d="M152.018,-364.485C129.422,-353.187 95.9839,-336.469 70.9863,-323.97"/>
<polygon fill="black" stroke="black" points="72.3688,-320.748 61.8592,-319.406 69.2382,-327.009 72.3688,-320.748"/>
</g>
<!-- 5 -->
<g id="node6" class="node"><title>5</title>
<g id="a_node6"><a xlink:title="5, diversity: 1, multiplicities: 81, labels: 0">
<ellipse fill="#f7fcf5" stroke="black" cx="129.047" cy="-306" rx="37.0935" ry="18"/>
<text text-anchor="middle" x="129.047" y="-302.3" font-family="Times,serif" font-size="14.00">5 (1): 0</text>
</a>
</g>
</g>
<!-- 1&#45;&gt;5 -->
<g id="edge18" class="edge"><title>1&#45;&gt;5</title>
<path fill="none" stroke="black" d="M165.914,-360.765C160.062,-352.23 152.76,-341.582 146.203,-332.019"/>
<polygon fill="black" stroke="black" points="148.994,-329.901 140.452,-323.633 143.221,-333.86 148.994,-329.901"/>
</g>
<!-- 11 -->
<g id="node12" class="node"><title>11</title>
<g id="a_node12"><a xlink:title="11, diversity: 1, multiplicities: 56, labels: 0">
<ellipse fill="#f7fcf5" stroke="black" cx="226.047" cy="-306" rx="41.6928" ry="18"/>
<text text-anchor="middle" x="226.047" y="-302.3" font-family="Times,serif" font-size="14.00">11 (1): 0</text>
</a>
</g>
</g>
<!-- 1&#45;&gt;11 -->
<g id="edge9" class="edge"><title>1&#45;&gt;11</title>
<path fill="none" stroke="black" d="M188.411,-360.765C194.386,-352.23 201.839,-341.582 208.533,-332.019"/>
<polygon fill="black" stroke="black" points="211.536,-333.833 214.403,-323.633 205.801,-329.819 211.536,-333.833"/>
</g>
<!-- 2 -->
<g id="node3" class="node"><title>2</title>
<g id="a_node3"><a xlink:title="2, diversity: 1, multiplicities: 106, labels: 0">
<ellipse fill="#f7fcf5" stroke="black" cx="323.047" cy="-306" rx="37.0935" ry="18"/>
<text text-anchor="middle" x="323.047" y="-302.3" font-family="Times,serif" font-size="14.00">2 (1): 0</text>
</a>
</g>
</g>
<!-- 6 -->
<g id="node7" class="node"><title>6</title>
<g id="a_node7"><a xlink:title="6, diversity: 1, multiplicities: 38, labels: 0">
<ellipse fill="#f7fcf5" stroke="black" cx="320.047" cy="-234" rx="37.0935" ry="18"/>
<text text-anchor="middle" x="320.047" y="-230.3" font-family="Times,serif" font-size="14.00">6 (1): 0</text>
</a>
</g>
</g>
<!-- 2&#45;&gt;6 -->
<g id="edge29" class="edge"><title>2&#45;&gt;6</title>
<path fill="none" stroke="black" d="M322.305,-287.697C321.975,-279.983 321.577,-270.712 321.209,-262.112"/>
<polygon fill="black" stroke="black" points="324.705,-261.945 320.78,-252.104 317.711,-262.245 324.705,-261.945"/>
</g>
<!-- 39 -->
<g id="node40" class="node"><title>39</title>
<g id="a_node40"><a xlink:title="39, diversity: 1, multiplicities: 6, labels: 0">
<ellipse fill="#f7fcf5" stroke="black" cx="417.047" cy="-234" rx="41.6928" ry="18"/>
<text text-anchor="middle" x="417.047" y="-230.3" font-family="Times,serif" font-size="14.00">39 (1): 0</text>
</a>
</g>
</g>
<!-- 2&#45;&gt;39 -->
<g id="edge26" class="edge"><title>2&#45;&gt;39</title>
<path fill="none" stroke="black" d="M342.524,-290.496C355.83,-280.587 373.68,-267.294 388.575,-256.203"/>
<polygon fill="black" stroke="black" points="391.016,-258.748 396.946,-249.968 386.835,-253.134 391.016,-258.748"/>
</g>
<!-- 3&#45;&gt;2 -->
<g id="edge28" class="edge"><title>3&#45;&gt;2</title>
<path fill="none" stroke="black" d="M326.058,-359.697C325.617,-351.983 325.087,-342.712 324.596,-334.112"/>
<polygon fill="black" stroke="black" points="328.089,-333.888 324.024,-324.104 321.1,-334.288 328.089,-333.888"/>
</g>
<!-- 10 -->
<g id="node11" class="node"><title>10</title>
<g id="a_node11"><a xlink:title="10, diversity: 1, multiplicities: 64, labels: 0">
<ellipse fill="#f7fcf5" stroke="black" cx="420.047" cy="-306" rx="41.6928" ry="18"/>
<text text-anchor="middle" x="420.047" y="-302.3" font-family="Times,serif" font-size="14.00">10 (1): 0</text>
</a>
</g>
</g>
<!-- 3&#45;&gt;10 -->
<g id="edge14" class="edge"><title>3&#45;&gt;10</title>
<path fill="none" stroke="black" d="M346.316,-362.496C359.481,-352.587 377.141,-339.294 391.878,-328.203"/>
<polygon fill="black" stroke="black" points="394.275,-330.779 400.16,-321.968 390.066,-325.186 394.275,-330.779"/>
</g>
<!-- 7 -->
<g id="node8" class="node"><title>7</title>
<g id="a_node8"><a xlink:title="7, diversity: 1, multiplicities: 62, labels: 0">
<ellipse fill="#f7fcf5" stroke="black" cx="129.047" cy="-234" rx="37.0935" ry="18"/>
<text text-anchor="middle" x="129.047" y="-230.3" font-family="Times,serif" font-size="14.00">7 (1): 0</text>
</a>
</g>
</g>
<!-- 5&#45;&gt;7 -->
<g id="edge51" class="edge"><title>5&#45;&gt;7</title>
<path fill="none" stroke="black" d="M129.047,-287.697C129.047,-279.983 129.047,-270.712 129.047,-262.112"/>
<polygon fill="black" stroke="black" points="132.547,-262.104 129.047,-252.104 125.547,-262.104 132.547,-262.104"/>
</g>
<!-- 12 -->
<g id="node13" class="node"><title>12</title>
<g id="a_node13"><a xlink:title="12, diversity: 1, multiplicities: 5, labels: 0">
<ellipse fill="#f7fcf5" stroke="black" cx="129.047" cy="-162" rx="41.6928" ry="18"/>
<text text-anchor="middle" x="129.047" y="-158.3" font-family="Times,serif" font-size="14.00">12 (1): 0</text>
</a>
</g>
</g>
<!-- 7&#45;&gt;12 -->
<g id="edge3" class="edge"><title>7&#45;&gt;12</title>
<path fill="none" stroke="black" d="M129.047,-215.697C129.047,-207.983 129.047,-198.712 129.047,-190.112"/>
<polygon fill="black" stroke="black" points="132.547,-190.104 129.047,-180.104 125.547,-190.104 132.547,-190.104"/>
</g>
<!-- 9 -->
<g id="node10" class="node"><title>9</title>
<g id="a_node10"><a xlink:title="9, diversity: 1, multiplicities: 8, labels: 0">
<ellipse fill="#f7fcf5" stroke="black" cx="226.047" cy="-234" rx="37.0935" ry="18"/>
<text text-anchor="middle" x="226.047" y="-230.3" font-family="Times,serif" font-size="14.00">9 (1): 0</text>
</a>
</g>
</g>
<!-- 11&#45;&gt;9 -->
<g id="edge34" class="edge"><title>11&#45;&gt;9</title>
<path fill="none" stroke="black" d="M226.047,-287.697C226.047,-279.983 226.047,-270.712 226.047,-262.112"/>
<polygon fill="black" stroke="black" points="229.547,-262.104 226.047,-252.104 222.547,-262.104 229.547,-262.104"/>
</g>
<!-- 13 -->
<g id="node14" class="node"><title>13</title>
<g id="a_node14"><a xlink:title="13, diversity: 1, multiplicities: 13, labels: 0">
<ellipse fill="#f7fcf5" stroke="black" cx="519.047" cy="-234" rx="41.6928" ry="18"/>
<text text-anchor="middle" x="519.047" y="-230.3" font-family="Times,serif" font-size="14.00">13 (1): 0</text>
</a>
</g>
</g>
<!-- 16 -->
<g id="node17" class="node"><title>16</title>
<g id="a_node17"><a xlink:title="16, diversity: 1, multiplicities: 10, labels: 0">
<ellipse fill="#f7fcf5" stroke="black" cx="519.047" cy="-162" rx="41.6928" ry="18"/>
<text text-anchor="middle" x="519.047" y="-158.3" font-family="Times,serif" font-size="14.00">16 (1): 0</text>
</a>
</g>
</g>
<!-- 13&#45;&gt;16 -->
<g id="edge16" class="edge"><title>13&#45;&gt;16</title>
<path fill="none" stroke="black" d="M519.047,-215.697C519.047,-207.983 519.047,-198.712 519.047,-190.112"/>
<polygon fill="black" stroke="black" points="522.547,-190.104 519.047,-180.104 515.547,-190.104 522.547,-190.104"/>
</g>
<!-- 14 -->
<g id="node15" class="node"><title>14</title>
<g id="a_node15"><a xlink:title="14, diversity: 1, multiplicities: 14, labels: 0">
<ellipse fill="#f7fcf5" stroke="black" cx="521.047" cy="-306" rx="41.6928" ry="18"/>
<text text-anchor="middle" x="521.047" y="-302.3" font-family="Times,serif" font-size="14.00">14 (1): 0</text>
</a>
</g>
</g>
<!-- 14&#45;&gt;13 -->
<g id="edge5" class="edge"><title>14&#45;&gt;13</title>
<path fill="none" stroke="black" d="M520.552,-287.697C520.332,-279.983 520.067,-270.712 519.821,-262.112"/>
<polygon fill="black" stroke="black" points="523.32,-262 519.535,-252.104 516.323,-262.2 523.32,-262"/>
</g>
<!-- 17 -->
<g id="node18" class="node"><title>17</title>
<g id="a_node18"><a xlink:title="17, diversity: 2, multiplicities: 6,20, labels: 0">
<ellipse fill="#f7fcf5" stroke="black" cx="620.047" cy="-234" rx="41.6928" ry="18"/>
<text text-anchor="middle" x="620.047" y="-230.3" font-family="Times,serif" font-size="14.00">17 (2): 0</text>
</a>
</g>
</g>
<!-- 14&#45;&gt;17 -->
<g id="edge1" class="edge"><title>14&#45;&gt;17</title>
<path fill="none" stroke="black" d="M542.042,-290.155C556.218,-280.132 575.124,-266.763 590.773,-255.698"/>
<polygon fill="black" stroke="black" points="592.937,-258.455 599.082,-249.824 588.896,-252.739 592.937,-258.455"/>
</g>
<!-- 15&#45;&gt;14 -->
<g id="edge42" class="edge"><title>15&#45;&gt;14</title>
<path fill="none" stroke="black" d="M517.283,-359.697C517.834,-351.983 518.496,-342.712 519.11,-334.112"/>
<polygon fill="black" stroke="black" points="522.604,-334.328 519.825,-324.104 515.621,-333.83 522.604,-334.328"/>
</g>
<!-- 32 -->
<g id="node33" class="node"><title>32</title>
<g id="a_node33"><a xlink:title="32, diversity: 1, multiplicities: 6, labels: 0">
<ellipse fill="#f7fcf5" stroke="black" cx="620.047" cy="-162" rx="41.6928" ry="18"/>
<text text-anchor="middle" x="620.047" y="-158.3" font-family="Times,serif" font-size="14.00">32 (1): 0</text>
</a>
</g>
</g>
<!-- 17&#45;&gt;32 -->
<g id="edge33" class="edge"><title>17&#45;&gt;32</title>
<path fill="none" stroke="black" d="M620.047,-215.697C620.047,-207.983 620.047,-198.712 620.047,-190.112"/>
<polygon fill="black" stroke="black" points="623.547,-190.104 620.047,-180.104 616.547,-190.104 623.547,-190.104"/>
</g>
<!-- 19 -->
<g id="node20" class="node"><title>19</title>
<g id="a_node20"><a xlink:title="19, diversity: 2, multiplicities: 1,111, labels: 0">
<ellipse fill="#f7fcf5" stroke="black" cx="1062.05" cy="-378" rx="41.6928" ry="18"/>
<text text-anchor="middle" x="1062.05" y="-374.3" font-family="Times,serif" font-size="14.00">19 (2): 0</text>
</a>
</g>
</g>
<!-- 22 -->
<g id="node23" class="node"><title>22</title>
<g id="a_node23"><a xlink:title="22, diversity: 1, multiplicities: 22, labels: 0">
<ellipse fill="#f7fcf5" stroke="black" cx="860.047" cy="-306" rx="41.6928" ry="18"/>
<text text-anchor="middle" x="860.047" y="-302.3" font-family="Times,serif" font-size="14.00">22 (1): 0</text>
</a>
</g>
</g>
<!-- 19&#45;&gt;22 -->
<g id="edge7" class="edge"><title>19&#45;&gt;22</title>
<path fill="none" stroke="black" d="M1030.48,-366.062C995.648,-353.991 939.452,-334.517 901.188,-321.257"/>
<polygon fill="black" stroke="black" points="901.982,-317.828 891.388,-317.861 899.69,-324.442 901.982,-317.828"/>
</g>
<!-- 24 -->
<g id="node25" class="node"><title>24</title>
<g id="a_node25"><a xlink:title="24, diversity: 1, multiplicities: 13, labels: 0">
<ellipse fill="#f7fcf5" stroke="black" cx="961.047" cy="-306" rx="41.6928" ry="18"/>
<text text-anchor="middle" x="961.047" y="-302.3" font-family="Times,serif" font-size="14.00">24 (1): 0</text>
</a>
</g>
</g>
<!-- 19&#45;&gt;24 -->
<g id="edge38" class="edge"><title>19&#45;&gt;24</title>
<path fill="none" stroke="black" d="M1040.63,-362.155C1026.07,-352.064 1006.62,-338.583 990.588,-327.474"/>
<polygon fill="black" stroke="black" points="992.302,-324.403 982.089,-321.584 988.314,-330.157 992.302,-324.403"/>
</g>
<!-- 27 -->
<g id="node28" class="node"><title>27</title>
<g id="a_node28"><a xlink:title="27, diversity: 1, multiplicities: 1, labels: 0">
<ellipse fill="#f7fcf5" stroke="black" cx="1062.05" cy="-306" rx="41.6928" ry="18"/>
<text text-anchor="middle" x="1062.05" y="-302.3" font-family="Times,serif" font-size="14.00">27 (1): 0</text>
</a>
</g>
</g>
<!-- 19&#45;&gt;27 -->
<g id="edge52" class="edge"><title>19&#45;&gt;27</title>
<path fill="none" stroke="black" d="M1062.05,-359.697C1062.05,-351.983 1062.05,-342.712 1062.05,-334.112"/>
<polygon fill="black" stroke="black" points="1065.55,-334.104 1062.05,-324.104 1058.55,-334.104 1065.55,-334.104"/>
</g>
<!-- 20 -->
<g id="node21" class="node"><title>20</title>
<g id="a_node21"><a xlink:title="20, diversity: 2, multiplicities: 14,26, labels: 0">
<ellipse fill="#f7fcf5" stroke="black" cx="1011.05" cy="-162" rx="41.6928" ry="18"/>
<text text-anchor="middle" x="1011.05" y="-158.3" font-family="Times,serif" font-size="14.00">20 (2): 0</text>
</a>
</g>
</g>
<!-- 21 -->
<g id="node22" class="node"><title>21</title>
<g id="a_node22"><a xlink:title="21, diversity: 3, multiplicities: 1,19,25, labels: 0">
<ellipse fill="#f7fcf5" stroke="black" cx="1062.05" cy="-234" rx="41.6928" ry="18"/>
<text text-anchor="middle" x="1062.05" y="-230.3" font-family="Times,serif" font-size="14.00">21 (3): 0</text>
</a>
</g>
</g>
<!-- 21&#45;&gt;20 -->
<g id="edge11" class="edge"><title>21&#45;&gt;20</title>
<path fill="none" stroke="black" d="M1049.96,-216.411C1043.74,-207.868 1036.02,-197.278 1029.11,-187.787"/>
<polygon fill="black" stroke="black" points="1031.76,-185.491 1023.05,-179.47 1026.11,-189.613 1031.76,-185.491"/>
</g>
<!-- 23 -->
<g id="node24" class="node"><title>23</title>
<g id="a_node24"><a xlink:title="23, diversity: 1, multiplicities: 34, labels: 0">
<ellipse fill="#f7fcf5" stroke="black" cx="1112.05" cy="-162" rx="41.6928" ry="18"/>
<text text-anchor="middle" x="1112.05" y="-158.3" font-family="Times,serif" font-size="14.00">23 (1): 0</text>
</a>
</g>
</g>
<!-- 21&#45;&gt;23 -->
<g id="edge21" class="edge"><title>21&#45;&gt;23</title>
<path fill="none" stroke="black" d="M1073.9,-216.411C1080,-207.868 1087.56,-197.278 1094.34,-187.787"/>
<polygon fill="black" stroke="black" points="1097.32,-189.642 1100.28,-179.47 1091.62,-185.573 1097.32,-189.642"/>
</g>
<!-- 55 -->
<g id="node56" class="node"><title>55</title>
<g id="a_node56"><a xlink:title="55, diversity: 1, multiplicities: 5, labels: 0">
<ellipse fill="#f7fcf5" stroke="black" cx="860.047" cy="-234" rx="41.6928" ry="18"/>
<text text-anchor="middle" x="860.047" y="-230.3" font-family="Times,serif" font-size="14.00">55 (1): 0</text>
</a>
</g>
</g>
<!-- 22&#45;&gt;55 -->
<g id="edge12" class="edge"><title>22&#45;&gt;55</title>
<path fill="none" stroke="black" d="M860.047,-287.697C860.047,-279.983 860.047,-270.712 860.047,-262.112"/>
<polygon fill="black" stroke="black" points="863.547,-262.104 860.047,-252.104 856.547,-262.104 863.547,-262.104"/>
</g>
<!-- 25 -->
<g id="node26" class="node"><title>25</title>
<g id="a_node26"><a xlink:title="25, diversity: 1, multiplicities: 19, labels: 0">
<ellipse fill="#f7fcf5" stroke="black" cx="1112.05" cy="-90" rx="41.6928" ry="18"/>
<text text-anchor="middle" x="1112.05" y="-86.3" font-family="Times,serif" font-size="14.00">25 (1): 0</text>
</a>
</g>
</g>
<!-- 23&#45;&gt;25 -->
<g id="edge25" class="edge"><title>23&#45;&gt;25</title>
<path fill="none" stroke="black" d="M1112.05,-143.697C1112.05,-135.983 1112.05,-126.712 1112.05,-118.112"/>
<polygon fill="black" stroke="black" points="1115.55,-118.104 1112.05,-108.104 1108.55,-118.104 1115.55,-118.104"/>
</g>
<!-- 26 -->
<g id="node27" class="node"><title>26</title>
<g id="a_node27"><a xlink:title="26, diversity: 1, multiplicities: 6, labels: 0">
<ellipse fill="#f7fcf5" stroke="black" cx="1112.05" cy="-18" rx="41.6928" ry="18"/>
<text text-anchor="middle" x="1112.05" y="-14.3" font-family="Times,serif" font-size="14.00">26 (1): 0</text>
</a>
</g>
</g>
<!-- 25&#45;&gt;26 -->
<g id="edge17" class="edge"><title>25&#45;&gt;26</title>
<path fill="none" stroke="black" d="M1112.05,-71.6966C1112.05,-63.9827 1112.05,-54.7125 1112.05,-46.1124"/>
<polygon fill="black" stroke="black" points="1115.55,-46.1043 1112.05,-36.1043 1108.55,-46.1044 1115.55,-46.1043"/>
</g>
<!-- 27&#45;&gt;21 -->
<g id="edge2" class="edge"><title>27&#45;&gt;21</title>
<path fill="none" stroke="black" d="M1062.05,-287.697C1062.05,-279.983 1062.05,-270.712 1062.05,-262.112"/>
<polygon fill="black" stroke="black" points="1065.55,-262.104 1062.05,-252.104 1058.55,-262.104 1065.55,-262.104"/>
</g>
<!-- 28 -->
<g id="node29" class="node"><title>28</title>
<g id="a_node29"><a xlink:title="28, diversity: 1, multiplicities: 10, labels: 0">
<ellipse fill="#f7fcf5" stroke="black" cx="626.047" cy="-594" rx="41.6928" ry="18"/>
<text text-anchor="middle" x="626.047" y="-590.3" font-family="Times,serif" font-size="14.00">28 (1): 0</text>
</a>
</g>
</g>
<!-- 29 -->
<g id="node30" class="node"><title>29</title>
<g id="a_node30"><a xlink:title="29, diversity: 1, multiplicities: 12, labels: 0">
<ellipse fill="#f7fcf5" stroke="black" cx="727.047" cy="-594" rx="41.6928" ry="18"/>
<text text-anchor="middle" x="727.047" y="-590.3" font-family="Times,serif" font-size="14.00">29 (1): 0</text>
</a>
</g>
</g>
<!-- 30 -->
<g id="node31" class="node"><title>30</title>
<g id="a_node31"><a xlink:title="30, diversity: 1, multiplicities: 5, labels: 0">
<ellipse fill="#f7fcf5" stroke="black" cx="525.047" cy="-522" rx="41.6928" ry="18"/>
<text text-anchor="middle" x="525.047" y="-518.3" font-family="Times,serif" font-size="14.00">30 (1): 0</text>
</a>
</g>
</g>
<!-- 29&#45;&gt;30 -->
<g id="edge31" class="edge"><title>29&#45;&gt;30</title>
<path fill="none" stroke="black" d="M695.484,-582.062C660.648,-569.991 604.452,-550.517 566.188,-537.257"/>
<polygon fill="black" stroke="black" points="566.982,-533.828 556.388,-533.861 564.69,-540.442 566.982,-533.828"/>
</g>
<!-- 33 -->
<g id="node34" class="node"><title>33</title>
<g id="a_node34"><a xlink:title="33, diversity: 1, multiplicities: 34, labels: 0">
<ellipse fill="#f7fcf5" stroke="black" cx="626.047" cy="-522" rx="41.6928" ry="18"/>
<text text-anchor="middle" x="626.047" y="-518.3" font-family="Times,serif" font-size="14.00">33 (1): 0</text>
</a>
</g>
</g>
<!-- 29&#45;&gt;33 -->
<g id="edge39" class="edge"><title>29&#45;&gt;33</title>
<path fill="none" stroke="black" d="M705.627,-578.155C691.068,-568.064 671.616,-554.583 655.588,-543.474"/>
<polygon fill="black" stroke="black" points="657.302,-540.403 647.089,-537.584 653.314,-546.157 657.302,-540.403"/>
</g>
<!-- 47 -->
<g id="node48" class="node"><title>47</title>
<g id="a_node48"><a xlink:title="47, diversity: 1, multiplicities: 8, labels: 0">
<ellipse fill="#f7fcf5" stroke="black" cx="727.047" cy="-522" rx="41.6928" ry="18"/>
<text text-anchor="middle" x="727.047" y="-518.3" font-family="Times,serif" font-size="14.00">47 (1): 0</text>
</a>
</g>
</g>
<!-- 29&#45;&gt;47 -->
<g id="edge22" class="edge"><title>29&#45;&gt;47</title>
<path fill="none" stroke="black" d="M727.047,-575.697C727.047,-567.983 727.047,-558.712 727.047,-550.112"/>
<polygon fill="black" stroke="black" points="730.547,-550.104 727.047,-540.104 723.547,-550.104 730.547,-550.104"/>
</g>
<!-- 51 -->
<g id="node52" class="node"><title>51</title>
<g id="a_node52"><a xlink:title="51, diversity: 1, multiplicities: 1, labels: 0">
<ellipse fill="#f7fcf5" stroke="black" cx="854.047" cy="-522" rx="41.6928" ry="18"/>
<text text-anchor="middle" x="854.047" y="-518.3" font-family="Times,serif" font-size="14.00">51 (1): 0</text>
</a>
</g>
</g>
<!-- 29&#45;&gt;51 -->
<g id="edge48" class="edge"><title>29&#45;&gt;51</title>
<path fill="none" stroke="black" d="M751.835,-579.337C771.416,-568.545 798.937,-553.375 820.49,-541.496"/>
<polygon fill="black" stroke="black" points="822.253,-544.521 829.321,-536.628 818.874,-538.39 822.253,-544.521"/>
</g>
<!-- 53 -->
<g id="node54" class="node"><title>53</title>
<g id="a_node54"><a xlink:title="53, diversity: 1, multiplicities: 3, labels: 0">
<ellipse fill="#f7fcf5" stroke="black" cx="1005.05" cy="-522" rx="41.6928" ry="18"/>
<text text-anchor="middle" x="1005.05" y="-518.3" font-family="Times,serif" font-size="14.00">53 (1): 0</text>
</a>
</g>
</g>
<!-- 29&#45;&gt;53 -->
<g id="edge15" class="edge"><title>29&#45;&gt;53</title>
<path fill="none" stroke="black" d="M761.974,-584.205C812.221,-571.553 904.921,-548.212 960.18,-534.297"/>
<polygon fill="black" stroke="black" points="961.201,-537.65 970.044,-531.814 959.492,-530.862 961.201,-537.65"/>
</g>
<!-- 31 -->
<g id="node32" class="node"><title>31</title>
<g id="a_node32"><a xlink:title="31, diversity: 1, multiplicities: 4, labels: 0">
<ellipse fill="#f7fcf5" stroke="black" cx="676.047" cy="-666" rx="41.6928" ry="18"/>
<text text-anchor="middle" x="676.047" y="-662.3" font-family="Times,serif" font-size="14.00">31 (1): 0</text>
</a>
</g>
</g>
<!-- 31&#45;&gt;28 -->
<g id="edge27" class="edge"><title>31&#45;&gt;28</title>
<path fill="none" stroke="black" d="M664.197,-648.411C658.095,-639.868 650.531,-629.278 643.752,-619.787"/>
<polygon fill="black" stroke="black" points="646.471,-617.573 637.811,-611.47 640.775,-621.642 646.471,-617.573"/>
</g>
<!-- 31&#45;&gt;29 -->
<g id="edge6" class="edge"><title>31&#45;&gt;29</title>
<path fill="none" stroke="black" d="M688.133,-648.411C694.357,-639.868 702.072,-629.278 708.987,-619.787"/>
<polygon fill="black" stroke="black" points="711.987,-621.613 715.047,-611.47 706.33,-617.491 711.987,-621.613"/>
</g>
<!-- 33&#45;&gt;0 -->
<g id="edge55" class="edge"><title>33&#45;&gt;0</title>
<path fill="none" stroke="black" d="M601.943,-507.17C583.07,-496.341 556.649,-481.182 536.011,-469.34"/>
<polygon fill="black" stroke="black" points="537.688,-466.267 527.272,-464.326 534.204,-472.339 537.688,-466.267"/>
</g>
<!-- 34 -->
<g id="node35" class="node"><title>34</title>
<g id="a_node35"><a xlink:title="34, diversity: 1, multiplicities: 11, labels: 0">
<ellipse fill="#f7fcf5" stroke="black" cx="601.047" cy="-450" rx="41.6928" ry="18"/>
<text text-anchor="middle" x="601.047" y="-446.3" font-family="Times,serif" font-size="14.00">34 (1): 0</text>
</a>
</g>
</g>
<!-- 33&#45;&gt;34 -->
<g id="edge32" class="edge"><title>33&#45;&gt;34</title>
<path fill="none" stroke="black" d="M619.995,-504.055C617.181,-496.176 613.767,-486.617 610.616,-477.794"/>
<polygon fill="black" stroke="black" points="613.876,-476.516 607.216,-468.275 607.284,-478.87 613.876,-476.516"/>
</g>
<!-- 35 -->
<g id="node36" class="node"><title>35</title>
<g id="a_node36"><a xlink:title="35, diversity: 2, multiplicities: 5,22, labels: 0">
<ellipse fill="#f7fcf5" stroke="black" cx="961.047" cy="-378" rx="41.6928" ry="18"/>
<text text-anchor="middle" x="961.047" y="-374.3" font-family="Times,serif" font-size="14.00">35 (2): 0</text>
</a>
</g>
</g>
<!-- 36 -->
<g id="node37" class="node"><title>36</title>
<g id="a_node37"><a xlink:title="36, diversity: 2, multiplicities: 12,16, labels: 0">
<ellipse fill="#f7fcf5" stroke="black" cx="1005.05" cy="-450" rx="41.6928" ry="18"/>
<text text-anchor="middle" x="1005.05" y="-446.3" font-family="Times,serif" font-size="14.00">36 (2): 0</text>
</a>
</g>
</g>
<!-- 35&#45;&gt;36 -->
<g id="edge23" class="edge"><title>35&#45;&gt;36</title>
<path fill="none" stroke="black" d="M976.751,-394.829C982.943,-403.148 989.749,-413.555 995.262,-423.019"/>
<polygon fill="black" stroke="black" points="992.363,-425.007 1000.27,-432.055 998.485,-421.612 992.363,-425.007"/>
</g>
<!-- 36&#45;&gt;19 -->
<g id="edge30" class="edge"><title>36&#45;&gt;19</title>
<path fill="none" stroke="black" d="M1018.27,-432.765C1025.46,-423.93 1034.5,-412.83 1042.49,-403.014"/>
<polygon fill="black" stroke="black" points="1045.3,-405.112 1048.9,-395.147 1039.87,-400.692 1045.3,-405.112"/>
</g>
<!-- 36&#45;&gt;35 -->
<g id="edge19" class="edge"><title>36&#45;&gt;35</title>
<path fill="none" stroke="black" d="M989.302,-433.116C983.18,-424.887 976.463,-414.624 970.991,-405.255"/>
<polygon fill="black" stroke="black" points="973.923,-403.327 966.001,-396.292 967.807,-406.732 973.923,-403.327"/>
</g>
<!-- 37 -->
<g id="node38" class="node"><title>37</title>
<g id="a_node38"><a xlink:title="37, diversity: 1, multiplicities: 37, labels: 0">
<ellipse fill="#f7fcf5" stroke="black" cx="1163.05" cy="-378" rx="41.6928" ry="18"/>
<text text-anchor="middle" x="1163.05" y="-374.3" font-family="Times,serif" font-size="14.00">37 (1): 0</text>
</a>
</g>
</g>
<!-- 36&#45;&gt;37 -->
<g id="edge24" class="edge"><title>36&#45;&gt;37</title>
<path fill="none" stroke="black" d="M1033.29,-436.485C1059.13,-425.038 1097.53,-408.026 1125.86,-395.476"/>
<polygon fill="black" stroke="black" points="1127.32,-398.657 1135.04,-391.406 1124.48,-392.257 1127.32,-398.657"/>
</g>
<!-- 41 -->
<g id="node42" class="node"><title>41</title>
<g id="a_node42"><a xlink:title="41, diversity: 1, multiplicities: 11, labels: 0">
<ellipse fill="#f7fcf5" stroke="black" cx="1264.05" cy="-378" rx="41.6928" ry="18"/>
<text text-anchor="middle" x="1264.05" y="-374.3" font-family="Times,serif" font-size="14.00">41 (1): 0</text>
</a>
</g>
</g>
<!-- 36&#45;&gt;41 -->
<g id="edge47" class="edge"><title>36&#45;&gt;41</title>
<path fill="none" stroke="black" d="M1036.09,-437.88C1042.33,-435.805 1048.87,-433.744 1055.05,-432 1124.78,-412.311 1144.32,-415.689 1214.05,-396 1217.04,-395.155 1220.11,-394.236 1223.2,-393.277"/>
<polygon fill="black" stroke="black" points="1224.55,-396.518 1233,-390.12 1222.41,-389.855 1224.55,-396.518"/>
</g>
<!-- 38 -->
<g id="node39" class="node"><title>38</title>
<g id="a_node39"><a xlink:title="38, diversity: 1, multiplicities: 9, labels: 0">
<ellipse fill="#f7fcf5" stroke="black" cx="1163.05" cy="-306" rx="41.6928" ry="18"/>
<text text-anchor="middle" x="1163.05" y="-302.3" font-family="Times,serif" font-size="14.00">38 (1): 0</text>
</a>
</g>
</g>
<!-- 37&#45;&gt;38 -->
<g id="edge56" class="edge"><title>37&#45;&gt;38</title>
<path fill="none" stroke="black" d="M1163.05,-359.697C1163.05,-351.983 1163.05,-342.712 1163.05,-334.112"/>
<polygon fill="black" stroke="black" points="1166.55,-334.104 1163.05,-324.104 1159.55,-334.104 1166.55,-334.104"/>
</g>
<!-- 40 -->
<g id="node41" class="node"><title>40</title>
<g id="a_node41"><a xlink:title="40, diversity: 1, multiplicities: 8, labels: 0">
<ellipse fill="#f7fcf5" stroke="black" cx="1264.05" cy="-306" rx="41.6928" ry="18"/>
<text text-anchor="middle" x="1264.05" y="-302.3" font-family="Times,serif" font-size="14.00">40 (1): 0</text>
</a>
</g>
</g>
<!-- 41&#45;&gt;40 -->
<g id="edge4" class="edge"><title>41&#45;&gt;40</title>
<path fill="none" stroke="black" d="M1264.05,-359.697C1264.05,-351.983 1264.05,-342.712 1264.05,-334.112"/>
<polygon fill="black" stroke="black" points="1267.55,-334.104 1264.05,-324.104 1260.55,-334.104 1267.55,-334.104"/>
</g>
<!-- 42 -->
<g id="node43" class="node"><title>42</title>
<g id="a_node43"><a xlink:title="42, diversity: 1, multiplicities: 7, labels: 0">
<ellipse fill="#f7fcf5" stroke="black" cx="702.047" cy="-450" rx="41.6928" ry="18"/>
<text text-anchor="middle" x="702.047" y="-446.3" font-family="Times,serif" font-size="14.00">42 (1): 0</text>
</a>
</g>
</g>
<!-- 43 -->
<g id="node44" class="node"><title>43</title>
<g id="a_node44"><a xlink:title="43, diversity: 1, multiplicities: 18, labels: 0">
<ellipse fill="#f7fcf5" stroke="black" cx="726.047" cy="-738" rx="41.6928" ry="18"/>
<text text-anchor="middle" x="726.047" y="-734.3" font-family="Times,serif" font-size="14.00">43 (1): 0</text>
</a>
</g>
</g>
<!-- 43&#45;&gt;31 -->
<g id="edge20" class="edge"><title>43&#45;&gt;31</title>
<path fill="none" stroke="black" d="M714.197,-720.411C708.095,-711.868 700.531,-701.278 693.752,-691.787"/>
<polygon fill="black" stroke="black" points="696.471,-689.573 687.811,-683.47 690.775,-693.642 696.471,-689.573"/>
</g>
<!-- 44 -->
<g id="node45" class="node"><title>44</title>
<g id="a_node45"><a xlink:title="44, diversity: 1, multiplicities: 12, labels: 0">
<ellipse fill="#f7fcf5" stroke="black" cx="777.047" cy="-666" rx="41.6928" ry="18"/>
<text text-anchor="middle" x="777.047" y="-662.3" font-family="Times,serif" font-size="14.00">44 (1): 0</text>
</a>
</g>
</g>
<!-- 43&#45;&gt;44 -->
<g id="edge44" class="edge"><title>43&#45;&gt;44</title>
<path fill="none" stroke="black" d="M738.133,-720.411C744.357,-711.868 752.072,-701.278 758.987,-691.787"/>
<polygon fill="black" stroke="black" points="761.987,-693.613 765.047,-683.47 756.33,-689.491 761.987,-693.613"/>
</g>
<!-- 46 -->
<g id="node47" class="node"><title>46</title>
<g id="a_node47"><a xlink:title="46, diversity: 1, multiplicities: 9, labels: 0">
<ellipse fill="#f7fcf5" stroke="black" cx="646.047" cy="-306" rx="41.6928" ry="18"/>
<text text-anchor="middle" x="646.047" y="-302.3" font-family="Times,serif" font-size="14.00">46 (1): 0</text>
</a>
</g>
</g>
<!-- 45&#45;&gt;46 -->
<g id="edge49" class="edge"><title>45&#45;&gt;46</title>
<path fill="none" stroke="black" d="M701.709,-361.116C692.227,-351.897 680.12,-340.127 669.621,-329.919"/>
<polygon fill="black" stroke="black" points="671.93,-327.283 662.32,-322.821 667.05,-332.302 671.93,-327.283"/>
</g>
<!-- 52 -->
<g id="node53" class="node"><title>52</title>
<g id="a_node53"><a xlink:title="52, diversity: 1, multiplicities: 11, labels: 0">
<ellipse fill="#f7fcf5" stroke="black" cx="747.047" cy="-306" rx="41.6928" ry="18"/>
<text text-anchor="middle" x="747.047" y="-302.3" font-family="Times,serif" font-size="14.00">52 (1): 0</text>
</a>
</g>
</g>
<!-- 45&#45;&gt;52 -->
<g id="edge45" class="edge"><title>45&#45;&gt;52</title>
<path fill="none" stroke="black" d="M725.067,-360.055C728.415,-351.973 732.496,-342.121 736.229,-333.112"/>
<polygon fill="black" stroke="black" points="739.497,-334.367 740.091,-323.789 733.03,-331.688 739.497,-334.367"/>
</g>
<!-- 47&#45;&gt;42 -->
<g id="edge41" class="edge"><title>47&#45;&gt;42</title>
<path fill="none" stroke="black" d="M720.995,-504.055C718.181,-496.176 714.767,-486.617 711.616,-477.794"/>
<polygon fill="black" stroke="black" points="714.876,-476.516 708.216,-468.275 708.284,-478.87 714.876,-476.516"/>
</g>
<!-- 48 -->
<g id="node49" class="node"><title>48</title>
<g id="a_node49"><a xlink:title="48, diversity: 1, multiplicities: 6, labels: 0">
<ellipse fill="#f7fcf5" stroke="black" cx="803.047" cy="-450" rx="41.6928" ry="18"/>
<text text-anchor="middle" x="803.047" y="-446.3" font-family="Times,serif" font-size="14.00">48 (1): 0</text>
</a>
</g>
</g>
<!-- 47&#45;&gt;48 -->
<g id="edge50" class="edge"><title>47&#45;&gt;48</title>
<path fill="none" stroke="black" d="M743.914,-505.465C754.147,-496.04 767.378,-483.853 778.729,-473.398"/>
<polygon fill="black" stroke="black" points="781.243,-475.841 786.227,-466.492 776.5,-470.692 781.243,-475.841"/>
</g>
<!-- 49 -->
<g id="node50" class="node"><title>49</title>
<g id="a_node50"><a xlink:title="49, diversity: 1, multiplicities: 10, labels: 0">
<ellipse fill="#f7fcf5" stroke="black" cx="904.047" cy="-450" rx="41.6928" ry="18"/>
<text text-anchor="middle" x="904.047" y="-446.3" font-family="Times,serif" font-size="14.00">49 (1): 0</text>
</a>
</g>
</g>
<!-- 50 -->
<g id="node51" class="node"><title>50</title>
<g id="a_node51"><a xlink:title="50, diversity: 1, multiplicities: 13, labels: 0">
<ellipse fill="#f7fcf5" stroke="black" cx="860.047" cy="-378" rx="41.6928" ry="18"/>
<text text-anchor="middle" x="860.047" y="-374.3" font-family="Times,serif" font-size="14.00">50 (1): 0</text>
</a>
</g>
</g>
<!-- 49&#45;&gt;50 -->
<g id="edge10" class="edge"><title>49&#45;&gt;50</title>
<path fill="none" stroke="black" d="M893.619,-432.411C888.304,-423.955 881.729,-413.494 875.81,-404.078"/>
<polygon fill="black" stroke="black" points="878.684,-402.074 870.399,-395.47 872.758,-405.799 878.684,-402.074"/>
</g>
<!-- 51&#45;&gt;49 -->
<g id="edge54" class="edge"><title>51&#45;&gt;49</title>
<path fill="none" stroke="black" d="M865.896,-504.411C871.998,-495.868 879.562,-485.278 886.341,-475.787"/>
<polygon fill="black" stroke="black" points="889.318,-477.642 892.282,-467.47 883.622,-473.573 889.318,-477.642"/>
</g>
<!-- 53&#45;&gt;36 -->
<g id="edge40" class="edge"><title>53&#45;&gt;36</title>
<path fill="none" stroke="black" d="M1005.05,-503.697C1005.05,-495.983 1005.05,-486.712 1005.05,-478.112"/>
<polygon fill="black" stroke="black" points="1008.55,-478.104 1005.05,-468.104 1001.55,-478.104 1008.55,-478.104"/>
</g>
<!-- 54 -->
<g id="node55" class="node"><title>54</title>
<g id="a_node55"><a xlink:title="54, diversity: 1, multiplicities: 5, labels: 0">
<ellipse fill="#f7fcf5" stroke="black" cx="1106.05" cy="-450" rx="41.6928" ry="18"/>
<text text-anchor="middle" x="1106.05" y="-446.3" font-family="Times,serif" font-size="14.00">54 (1): 0</text>
</a>
</g>
</g>
<!-- 53&#45;&gt;54 -->
<g id="edge53" class="edge"><title>53&#45;&gt;54</title>
<path fill="none" stroke="black" d="M1026.47,-506.155C1041.03,-496.064 1060.48,-482.583 1076.51,-471.474"/>
<polygon fill="black" stroke="black" points="1078.78,-474.157 1085,-465.584 1074.79,-468.403 1078.78,-474.157"/>
</g>
</g>
</svg>
