<?xml version="1.0" encoding="UTF-8" standalone="no"?>
<!DOCTYPE svg PUBLIC "-//W3C//DTD SVG 1.1//EN"
 "http://www.w3.org/Graphics/SVG/1.1/DTD/svg11.dtd">
<!-- Generated by graphviz version 2.38.0 (20140413.2041)
 -->
<!-- Title: %3 Pages: 1 -->
<svg width="441pt" height="332pt"
 viewBox="0.00 0.00 440.50 332.00" xmlns="http://www.w3.org/2000/svg" xmlns:xlink="http://www.w3.org/1999/xlink">
<g id="graph0" class="graph" transform="scale(1 1) rotate(0) translate(4 328)">
<title>%3</title>
<polygon fill="white" stroke="none" points="-4,4 -4,-328 436.5,-328 436.5,4 -4,4"/>
<!-- v0 -->
<g id="node1" class="node"><title>v0</title>
<ellipse fill="none" stroke="black" cx="183.5" cy="-90" rx="27" ry="18"/>
<text text-anchor="middle" x="183.5" y="-86.3" font-family="Times,serif" font-size="14.00">0</text>
</g>
<!-- p0 -->
<g id="node2" class="node"><title>p0</title>
<path fill="none" stroke="black" d="M47,-36C47,-36 12,-36 12,-36 6,-36 0,-30 0,-24 0,-24 0,-12 0,-12 0,-6 6,-0 12,-0 12,-0 47,-0 47,-0 53,-0 59,-6 59,-12 59,-12 59,-24 59,-24 59,-30 53,-36 47,-36"/>
<text text-anchor="middle" x="29.5" y="-14.3" font-family="Times,serif" font-size="14.00">path (5)</text>
</g>
<!-- v0&#45;&gt;p0 -->
<g id="edge5" class="edge"><title>v0&#45;&gt;p0</title>
<path fill="none" stroke="black" d="M161.762,-79.1192C137.523,-68.1011 97.8402,-50.0637 68.2547,-36.6158"/>
<polygon fill="black" stroke="black" points="69.5881,-33.3773 59.0361,-32.4255 66.6915,-39.7499 69.5881,-33.3773"/>
</g>
<!-- p1 -->
<g id="node3" class="node"><title>p1</title>
<path fill="none" stroke="black" d="M124,-36C124,-36 89,-36 89,-36 83,-36 77,-30 77,-24 77,-24 77,-12 77,-12 77,-6 83,-0 89,-0 89,-0 124,-0 124,-0 130,-0 136,-6 136,-12 136,-12 136,-24 136,-24 136,-30 130,-36 124,-36"/>
<text text-anchor="middle" x="106.5" y="-14.3" font-family="Times,serif" font-size="14.00">path (4)</text>
</g>
<!-- v0&#45;&gt;p1 -->
<g id="edge7" class="edge"><title>v0&#45;&gt;p1</title>
<path fill="none" stroke="black" d="M167.918,-74.8345C157.921,-65.7459 144.682,-53.7105 133.055,-43.1413"/>
<polygon fill="black" stroke="black" points="135.078,-40.2497 125.324,-36.1127 130.369,-45.4293 135.078,-40.2497"/>
</g>
<!-- p3 -->
<g id="node6" class="node"><title>p3</title>
<path fill="none" stroke="black" d="M201,-36C201,-36 166,-36 166,-36 160,-36 154,-30 154,-24 154,-24 154,-12 154,-12 154,-6 160,-0 166,-0 166,-0 201,-0 201,-0 207,-0 213,-6 213,-12 213,-12 213,-24 213,-24 213,-30 207,-36 201,-36"/>
<text text-anchor="middle" x="183.5" y="-14.3" font-family="Times,serif" font-size="14.00">path (2)</text>
</g>
<!-- v0&#45;&gt;p3 -->
<g id="edge12" class="edge"><title>v0&#45;&gt;p3</title>
<path fill="none" stroke="black" d="M183.5,-71.6966C183.5,-63.9827 183.5,-54.7125 183.5,-46.1124"/>
<polygon fill="black" stroke="black" points="187,-46.1043 183.5,-36.1043 180,-46.1044 187,-46.1043"/>
</g>
<!-- v8 -->
<g id="node8" class="node"><title>v8</title>
<ellipse fill="none" stroke="black" cx="258.5" cy="-18" rx="27" ry="18"/>
<text text-anchor="middle" x="258.5" y="-14.3" font-family="Times,serif" font-size="14.00">8</text>
</g>
<!-- v0&#45;&gt;v8 -->
<g id="edge8" class="edge"><title>v0&#45;&gt;v8</title>
<path fill="none" stroke="black" d="M198.677,-74.8345C209.351,-64.872 223.819,-51.3687 235.853,-40.1371"/>
<polygon fill="black" stroke="black" points="238.423,-42.5264 243.345,-33.1445 233.646,-37.409 238.423,-42.5264"/>
</g>
<!-- v14 -->
<g id="node9" class="node"><title>v14</title>
<ellipse fill="none" stroke="black" cx="330.5" cy="-18" rx="27" ry="18"/>
<text text-anchor="middle" x="330.5" y="-14.3" font-family="Times,serif" font-size="14.00">14</text>
</g>
<!-- v0&#45;&gt;v14 -->
<g id="edge3" class="edge"><title>v0&#45;&gt;v14</title>
<path fill="none" stroke="black" d="M204.875,-78.8214C229.915,-66.8978 271.583,-47.0557 300.01,-33.5192"/>
<polygon fill="black" stroke="black" points="301.575,-36.6503 309.099,-29.1909 298.566,-30.3303 301.575,-36.6503"/>
</g>
<!-- v3 -->
<g id="node4" class="node"><title>v3</title>
<ellipse fill="none" stroke="black" cx="292.5" cy="-162" rx="27" ry="18"/>
<text text-anchor="middle" x="292.5" y="-158.3" font-family="Times,serif" font-size="14.00">3</text>
</g>
<!-- v3&#45;&gt;v0 -->
<g id="edge2" class="edge"><title>v3&#45;&gt;v0</title>
<path fill="none" stroke="black" d="M273.514,-148.807C256.165,-137.665 230.311,-121.062 210.757,-108.504"/>
<polygon fill="black" stroke="black" points="212.574,-105.512 202.269,-103.053 208.792,-111.402 212.574,-105.512"/>
</g>
<!-- v17 -->
<g id="node10" class="node"><title>v17</title>
<ellipse fill="none" stroke="black" cx="255.5" cy="-90" rx="27" ry="18"/>
<text text-anchor="middle" x="255.5" y="-86.3" font-family="Times,serif" font-size="14.00">17</text>
</g>
<!-- v3&#45;&gt;v17 -->
<g id="edge4" class="edge"><title>v3&#45;&gt;v17</title>
<path fill="none" stroke="black" d="M283.918,-144.765C279.435,-136.283 273.849,-125.714 268.819,-116.197"/>
<polygon fill="black" stroke="black" points="271.802,-114.353 264.035,-107.147 265.614,-117.624 271.802,-114.353"/>
</g>
<!-- p5 -->
<g id="node12" class="node"><title>p5</title>
<path fill="none" stroke="black" d="M348,-108C348,-108 313,-108 313,-108 307,-108 301,-102 301,-96 301,-96 301,-84 301,-84 301,-78 307,-72 313,-72 313,-72 348,-72 348,-72 354,-72 360,-78 360,-84 360,-84 360,-96 360,-96 360,-102 354,-108 348,-108"/>
<text text-anchor="middle" x="330.5" y="-86.3" font-family="Times,serif" font-size="14.00">path (2)</text>
</g>
<!-- v3&#45;&gt;p5 -->
<g id="edge10" class="edge"><title>v3&#45;&gt;p5</title>
<path fill="none" stroke="black" d="M301.313,-144.765C305.786,-136.525 311.328,-126.317 316.377,-117.016"/>
<polygon fill="black" stroke="black" points="319.509,-118.582 321.204,-108.124 313.357,-115.243 319.509,-118.582"/>
</g>
<!-- v33 -->
<g id="node13" class="node"><title>v33</title>
<ellipse fill="none" stroke="black" cx="405.5" cy="-90" rx="27" ry="18"/>
<text text-anchor="middle" x="405.5" y="-86.3" font-family="Times,serif" font-size="14.00">33</text>
</g>
<!-- v3&#45;&gt;v33 -->
<g id="edge6" class="edge"><title>v3&#45;&gt;v33</title>
<path fill="none" stroke="black" d="M311.669,-149.125C329.77,-137.913 357.123,-120.968 377.633,-108.263"/>
<polygon fill="black" stroke="black" points="379.579,-111.174 386.237,-102.933 375.893,-105.224 379.579,-111.174"/>
</g>
<!-- p2 -->
<g id="node5" class="node"><title>p2</title>
<path fill="none" stroke="black" d="M233,-252C233,-252 198,-252 198,-252 192,-252 186,-246 186,-240 186,-240 186,-228 186,-228 186,-222 192,-216 198,-216 198,-216 233,-216 233,-216 239,-216 245,-222 245,-228 245,-228 245,-240 245,-240 245,-246 239,-252 233,-252"/>
<text text-anchor="middle" x="215.5" y="-230.3" font-family="Times,serif" font-size="14.00">path (8)</text>
</g>
<!-- p4 -->
<g id="node7" class="node"><title>p4</title>
<path fill="none" stroke="black" d="M310,-252C310,-252 275,-252 275,-252 269,-252 263,-246 263,-240 263,-240 263,-228 263,-228 263,-222 269,-216 275,-216 275,-216 310,-216 310,-216 316,-216 322,-222 322,-228 322,-228 322,-240 322,-240 322,-246 316,-252 310,-252"/>
<text text-anchor="middle" x="292.5" y="-230.3" font-family="Times,serif" font-size="14.00">path (6)</text>
</g>
<!-- p4&#45;&gt;v3 -->
<g id="edge1" class="edge"><title>p4&#45;&gt;v3</title>
<path fill="none" stroke="black" d="M292.5,-215.697C292.5,-207.983 292.5,-198.712 292.5,-190.112"/>
<polygon fill="black" stroke="black" points="296,-190.104 292.5,-180.104 289,-190.104 296,-190.104"/>
</g>
<!-- v26 -->
<g id="node11" class="node"><title>v26</title>
<ellipse fill="none" stroke="black" cx="253.5" cy="-306" rx="27" ry="18"/>
<text text-anchor="middle" x="253.5" y="-302.3" font-family="Times,serif" font-size="14.00">26</text>
</g>
<!-- v26&#45;&gt;p2 -->
<g id="edge9" class="edge"><title>v26&#45;&gt;p2</title>
<path fill="none" stroke="black" d="M244.687,-288.765C240.214,-280.525 234.672,-270.317 229.623,-261.016"/>
<polygon fill="black" stroke="black" points="232.643,-259.243 224.796,-252.124 226.491,-262.582 232.643,-259.243"/>
</g>
<!-- v26&#45;&gt;p4 -->
<g id="edge11" class="edge"><title>v26&#45;&gt;p4</title>
<path fill="none" stroke="black" d="M262.545,-288.765C267.136,-280.525 272.824,-270.317 278.006,-261.016"/>
<polygon fill="black" stroke="black" points="281.15,-262.563 282.96,-252.124 275.035,-259.156 281.15,-262.563"/>
</g>
</g>
</svg>
