<?xml version="1.0" encoding="UTF-8" standalone="no"?>
<!DOCTYPE svg PUBLIC "-//W3C//DTD SVG 1.1//EN"
 "http://www.w3.org/Graphics/SVG/1.1/DTD/svg11.dtd">
<!-- Generated by graphviz version 2.40.1 (20161225.0304)
 -->
<!-- Title: %3 Pages: 1 -->
<svg width="827pt" height="548pt"
 viewBox="0.00 0.00 827.00 548.00" xmlns="http://www.w3.org/2000/svg" xmlns:xlink="http://www.w3.org/1999/xlink">
<g id="graph0" class="graph" transform="scale(1 1) rotate(0) translate(4 544)">
<title>%3</title>
<polygon fill="#ffffff" stroke="transparent" points="-4,4 -4,-544 823,-544 823,4 -4,4"/>
<!-- 0 -->
<g id="node1" class="node">
<title>0</title>
<g id="a_node1"><a xlink:title="M">
<ellipse fill="#90ff66" stroke="#000000" stroke-width="0" cx="639" cy="-90" rx="18" ry="18"/>
</a>
</g>
</g>
<!-- 1 -->
<g id="node2" class="node">
<title>1</title>
<g id="a_node2"><a xlink:title="M">
<ellipse fill="#90ff66" stroke="#000000" stroke-width="0" cx="693" cy="-162" rx="18" ry="18"/>
</a>
</g>
</g>
<!-- 2 -->
<g id="node3" class="node">
<title>2</title>
<g id="a_node3"><a xlink:title="M">
<ellipse fill="#90ff66" stroke="#000000" stroke-width="0" cx="531" cy="-234" rx="18" ry="18"/>
</a>
</g>
</g>
<!-- 28 -->
<g id="node29" class="node">
<title>28</title>
<g id="a_node29"><a xlink:title="M">
<ellipse fill="#90ff66" stroke="#000000" stroke-width="0" cx="423" cy="-162" rx="18" ry="18"/>
</a>
</g>
</g>
<!-- 2&#45;&gt;28 -->
<g id="edge49" class="edge">
<title>2&#45;&gt;28</title>
<path fill="none" stroke="#000000" d="M515.9831,-223.9887C498.03,-212.02 467.7675,-191.845 446.6604,-177.7736"/>
<polygon fill="#000000" stroke="#000000" points="448.4995,-174.7932 438.2376,-172.1584 444.6166,-180.6176 448.4995,-174.7932"/>
</g>
<!-- 40 -->
<g id="node41" class="node">
<title>40</title>
<g id="a_node41"><a xlink:title="M">
<ellipse fill="#90ff66" stroke="#000000" stroke-width="0" cx="477" cy="-162" rx="18" ry="18"/>
</a>
</g>
</g>
<!-- 2&#45;&gt;40 -->
<g id="edge51" class="edge">
<title>2&#45;&gt;40</title>
<path fill="none" stroke="#000000" d="M520.0723,-219.4297C512.6066,-209.4754 502.5632,-196.0842 494.0526,-184.7368"/>
<polygon fill="#000000" stroke="#000000" points="496.7115,-182.4486 487.9115,-176.5486 491.1115,-186.6486 496.7115,-182.4486"/>
</g>
<!-- 43 -->
<g id="node44" class="node">
<title>43</title>
<g id="a_node44"><a xlink:title="M">
<ellipse fill="#90ff66" stroke="#000000" stroke-width="0" cx="531" cy="-162" rx="18" ry="18"/>
</a>
</g>
</g>
<!-- 2&#45;&gt;43 -->
<g id="edge32" class="edge">
<title>2&#45;&gt;43</title>
<path fill="none" stroke="#000000" d="M531,-215.8314C531,-208.131 531,-198.9743 531,-190.4166"/>
<polygon fill="#000000" stroke="#000000" points="534.5001,-190.4132 531,-180.4133 527.5001,-190.4133 534.5001,-190.4132"/>
</g>
<!-- 3 -->
<g id="node4" class="node">
<title>3</title>
<g id="a_node4"><a xlink:title="M">
<ellipse fill="#90ff66" stroke="#000000" stroke-width="0" cx="639" cy="-162" rx="18" ry="18"/>
</a>
</g>
</g>
<!-- 3&#45;&gt;0 -->
<g id="edge3" class="edge">
<title>3&#45;&gt;0</title>
<path fill="none" stroke="#000000" d="M639,-143.8314C639,-136.131 639,-126.9743 639,-118.4166"/>
<polygon fill="#000000" stroke="#000000" points="642.5001,-118.4132 639,-108.4133 635.5001,-118.4133 642.5001,-118.4132"/>
</g>
<!-- 4 -->
<g id="node5" class="node">
<title>4</title>
<g id="a_node5"><a xlink:title="M">
<ellipse fill="#90ff66" stroke="#000000" stroke-width="0" cx="423" cy="-378" rx="18" ry="18"/>
</a>
</g>
</g>
<!-- 6 -->
<g id="node7" class="node">
<title>6</title>
<g id="a_node7"><a xlink:title="M">
<ellipse fill="#90ff66" stroke="#000000" stroke-width="0" cx="234" cy="-306" rx="18" ry="18"/>
</a>
</g>
</g>
<!-- 4&#45;&gt;6 -->
<g id="edge29" class="edge">
<title>4&#45;&gt;6</title>
<path fill="none" stroke="#000000" d="M405.8942,-371.4835C372.7922,-358.8732 299.7756,-331.0574 260.4004,-316.0573"/>
<polygon fill="#000000" stroke="#000000" points="261.5219,-312.7392 250.931,-312.4499 259.0299,-319.2806 261.5219,-312.7392"/>
</g>
<!-- 7 -->
<g id="node8" class="node">
<title>7</title>
<g id="a_node8"><a xlink:title="M">
<ellipse fill="#90ff66" stroke="#000000" stroke-width="0" cx="315" cy="-306" rx="18" ry="18"/>
</a>
</g>
</g>
<!-- 4&#45;&gt;7 -->
<g id="edge2" class="edge">
<title>4&#45;&gt;7</title>
<path fill="none" stroke="#000000" d="M407.9831,-367.9887C390.03,-356.02 359.7675,-335.845 338.6604,-321.7736"/>
<polygon fill="#000000" stroke="#000000" points="340.4995,-318.7932 330.2376,-316.1584 336.6166,-324.6176 340.4995,-318.7932"/>
</g>
<!-- 9 -->
<g id="node10" class="node">
<title>9</title>
<g id="a_node10"><a xlink:title="M">
<ellipse fill="#90ff66" stroke="#000000" stroke-width="0" cx="369" cy="-306" rx="18" ry="18"/>
</a>
</g>
</g>
<!-- 4&#45;&gt;9 -->
<g id="edge15" class="edge">
<title>4&#45;&gt;9</title>
<path fill="none" stroke="#000000" d="M412.0723,-363.4297C404.6066,-353.4754 394.5632,-340.0842 386.0526,-328.7368"/>
<polygon fill="#000000" stroke="#000000" points="388.7115,-326.4486 379.9115,-320.5486 383.1115,-330.6486 388.7115,-326.4486"/>
</g>
<!-- 10 -->
<g id="node11" class="node">
<title>10</title>
<g id="a_node11"><a xlink:title="M">
<ellipse fill="#90ff66" stroke="#000000" stroke-width="0" cx="423" cy="-306" rx="18" ry="18"/>
</a>
</g>
</g>
<!-- 4&#45;&gt;10 -->
<g id="edge28" class="edge">
<title>4&#45;&gt;10</title>
<path fill="none" stroke="#000000" d="M423,-359.8314C423,-352.131 423,-342.9743 423,-334.4166"/>
<polygon fill="#000000" stroke="#000000" points="426.5001,-334.4132 423,-324.4133 419.5001,-334.4133 426.5001,-334.4132"/>
</g>
<!-- 11 -->
<g id="node12" class="node">
<title>11</title>
<g id="a_node12"><a xlink:title="M">
<ellipse fill="#90ff66" stroke="#000000" stroke-width="0" cx="477" cy="-306" rx="18" ry="18"/>
</a>
</g>
</g>
<!-- 4&#45;&gt;11 -->
<g id="edge22" class="edge">
<title>4&#45;&gt;11</title>
<path fill="none" stroke="#000000" d="M433.9277,-363.4297C441.3934,-353.4754 451.4368,-340.0842 459.9474,-328.7368"/>
<polygon fill="#000000" stroke="#000000" points="462.8885,-330.6486 466.0885,-320.5486 457.2885,-326.4486 462.8885,-330.6486"/>
</g>
<!-- 29 -->
<g id="node30" class="node">
<title>29</title>
<g id="a_node30"><a xlink:title="M">
<ellipse fill="#90ff66" stroke="#000000" stroke-width="0" cx="585" cy="-306" rx="18" ry="18"/>
</a>
</g>
</g>
<!-- 4&#45;&gt;29 -->
<g id="edge45" class="edge">
<title>4&#45;&gt;29</title>
<path fill="none" stroke="#000000" d="M437.7978,-367.3379C441.672,-364.7703 445.9115,-362.1507 450,-360 486.0539,-341.0346 530.3007,-324.5209 558.0828,-314.9047"/>
<polygon fill="#000000" stroke="#000000" points="559.5378,-318.1066 567.873,-311.5663 557.2785,-311.4812 559.5378,-318.1066"/>
</g>
<!-- 52 -->
<g id="node53" class="node">
<title>52</title>
<g id="a_node53"><a xlink:title="M">
<ellipse fill="#90ff66" stroke="#000000" stroke-width="0" cx="639" cy="-306" rx="18" ry="18"/>
</a>
</g>
</g>
<!-- 4&#45;&gt;52 -->
<g id="edge47" class="edge">
<title>4&#45;&gt;52</title>
<path fill="none" stroke="#000000" d="M437.2923,-367.0575C441.2443,-364.4338 445.6474,-361.8574 450,-360 517.8379,-331.0515 544.1621,-352.9485 612,-324 613.3602,-323.4196 614.7253,-322.7689 616.08,-322.0686"/>
<polygon fill="#000000" stroke="#000000" points="617.8984,-325.0594 624.7077,-316.9425 614.3228,-319.0415 617.8984,-325.0594"/>
</g>
<!-- 5 -->
<g id="node6" class="node">
<title>5</title>
<g id="a_node6"><a xlink:title="M">
<ellipse fill="#90ff66" stroke="#000000" stroke-width="0" cx="261" cy="-234" rx="18" ry="18"/>
</a>
</g>
</g>
<!-- 49 -->
<g id="node50" class="node">
<title>49</title>
<g id="a_node50"><a xlink:title="M">
<ellipse fill="#90ff66" stroke="#000000" stroke-width="0" cx="207" cy="-234" rx="18" ry="18"/>
</a>
</g>
</g>
<!-- 6&#45;&gt;49 -->
<g id="edge59" class="edge">
<title>6&#45;&gt;49</title>
<path fill="none" stroke="#000000" d="M227.6014,-288.937C224.407,-280.4186 220.471,-269.9227 216.8982,-260.3952"/>
<polygon fill="#000000" stroke="#000000" points="220.1411,-259.0749 213.3527,-250.9405 213.5868,-261.5328 220.1411,-259.0749"/>
</g>
<!-- 7&#45;&gt;5 -->
<g id="edge36" class="edge">
<title>7&#45;&gt;5</title>
<path fill="none" stroke="#000000" d="M304.0723,-291.4297C296.6066,-281.4754 286.5632,-268.0842 278.0526,-256.7368"/>
<polygon fill="#000000" stroke="#000000" points="280.7115,-254.4486 271.9115,-248.5486 275.1115,-258.6486 280.7115,-254.4486"/>
</g>
<!-- 8 -->
<g id="node9" class="node">
<title>8</title>
<g id="a_node9"><a xlink:title="M">
<ellipse fill="#90ff66" stroke="#000000" stroke-width="0" cx="315" cy="-234" rx="18" ry="18"/>
</a>
</g>
</g>
<!-- 7&#45;&gt;8 -->
<g id="edge61" class="edge">
<title>7&#45;&gt;8</title>
<path fill="none" stroke="#000000" d="M315,-287.8314C315,-280.131 315,-270.9743 315,-262.4166"/>
<polygon fill="#000000" stroke="#000000" points="318.5001,-262.4132 315,-252.4133 311.5001,-262.4133 318.5001,-262.4132"/>
</g>
<!-- 50 -->
<g id="node51" class="node">
<title>50</title>
<g id="a_node51"><a xlink:title="M">
<ellipse fill="#90ff66" stroke="#000000" stroke-width="0" cx="369" cy="-234" rx="18" ry="18"/>
</a>
</g>
</g>
<!-- 9&#45;&gt;50 -->
<g id="edge23" class="edge">
<title>9&#45;&gt;50</title>
<path fill="none" stroke="#000000" d="M369,-287.8314C369,-280.131 369,-270.9743 369,-262.4166"/>
<polygon fill="#000000" stroke="#000000" points="372.5001,-262.4132 369,-252.4133 365.5001,-262.4133 372.5001,-262.4132"/>
</g>
<!-- 54 -->
<g id="node55" class="node">
<title>54</title>
<g id="a_node55"><a xlink:title="M">
<ellipse fill="#90ff66" stroke="#000000" stroke-width="0" cx="423" cy="-234" rx="18" ry="18"/>
</a>
</g>
</g>
<!-- 10&#45;&gt;54 -->
<g id="edge40" class="edge">
<title>10&#45;&gt;54</title>
<path fill="none" stroke="#000000" d="M423,-287.8314C423,-280.131 423,-270.9743 423,-262.4166"/>
<polygon fill="#000000" stroke="#000000" points="426.5001,-262.4132 423,-252.4133 419.5001,-262.4133 426.5001,-262.4132"/>
</g>
<!-- 47 -->
<g id="node48" class="node">
<title>47</title>
<g id="a_node48"><a xlink:title="M">
<ellipse fill="#90ff66" stroke="#000000" stroke-width="0" cx="477" cy="-234" rx="18" ry="18"/>
</a>
</g>
</g>
<!-- 11&#45;&gt;47 -->
<g id="edge8" class="edge">
<title>11&#45;&gt;47</title>
<path fill="none" stroke="#000000" d="M477,-287.8314C477,-280.131 477,-270.9743 477,-262.4166"/>
<polygon fill="#000000" stroke="#000000" points="480.5001,-262.4132 477,-252.4133 473.5001,-262.4133 480.5001,-262.4132"/>
</g>
<!-- 12 -->
<g id="node13" class="node">
<title>12</title>
<g id="a_node13"><a xlink:title="M">
<ellipse fill="#90ff66" stroke="#000000" stroke-width="0" cx="126" cy="-378" rx="18" ry="18"/>
</a>
</g>
</g>
<!-- 13 -->
<g id="node14" class="node">
<title>13</title>
<g id="a_node14"><a xlink:title="M">
<ellipse fill="#90ff66" stroke="#000000" stroke-width="0" cx="45" cy="-306" rx="18" ry="18"/>
</a>
</g>
</g>
<!-- 12&#45;&gt;13 -->
<g id="edge16" class="edge">
<title>12&#45;&gt;13</title>
<path fill="none" stroke="#000000" d="M112.2595,-365.7862C99.6157,-354.5473 80.6738,-337.7101 66.1103,-324.7647"/>
<polygon fill="#000000" stroke="#000000" points="68.337,-322.0612 58.5376,-318.0334 63.6865,-327.2931 68.337,-322.0612"/>
</g>
<!-- 14 -->
<g id="node15" class="node">
<title>14</title>
<g id="a_node15"><a xlink:title="M">
<ellipse fill="#90ff66" stroke="#000000" stroke-width="0" cx="99" cy="-306" rx="18" ry="18"/>
</a>
</g>
</g>
<!-- 12&#45;&gt;14 -->
<g id="edge30" class="edge">
<title>12&#45;&gt;14</title>
<path fill="none" stroke="#000000" d="M119.6014,-360.937C116.407,-352.4186 112.471,-341.9227 108.8982,-332.3952"/>
<polygon fill="#000000" stroke="#000000" points="112.1411,-331.0749 105.3527,-322.9405 105.5868,-333.5328 112.1411,-331.0749"/>
</g>
<!-- 26 -->
<g id="node27" class="node">
<title>26</title>
<g id="a_node27"><a xlink:title="M">
<ellipse fill="#90ff66" stroke="#000000" stroke-width="0" cx="153" cy="-306" rx="18" ry="18"/>
</a>
</g>
</g>
<!-- 12&#45;&gt;26 -->
<g id="edge57" class="edge">
<title>12&#45;&gt;26</title>
<path fill="none" stroke="#000000" d="M132.3986,-360.937C135.593,-352.4186 139.529,-341.9227 143.1018,-332.3952"/>
<polygon fill="#000000" stroke="#000000" points="146.4132,-333.5328 146.6473,-322.9405 139.8589,-331.0749 146.4132,-333.5328"/>
</g>
<!-- 15 -->
<g id="node16" class="node">
<title>15</title>
<g id="a_node16"><a xlink:title="M">
<ellipse fill="#90ff66" stroke="#000000" stroke-width="0" cx="261" cy="-450" rx="18" ry="18"/>
</a>
</g>
</g>
<!-- 15&#45;&gt;12 -->
<g id="edge13" class="edge">
<title>15&#45;&gt;12</title>
<path fill="none" stroke="#000000" d="M244.9836,-441.4579C221.7419,-429.0624 178.4511,-405.9739 150.9899,-391.328"/>
<polygon fill="#000000" stroke="#000000" points="152.4662,-388.1487 141.9956,-386.531 149.172,-394.3251 152.4662,-388.1487"/>
</g>
<!-- 16 -->
<g id="node17" class="node">
<title>16</title>
<g id="a_node17"><a xlink:title="M">
<ellipse fill="#90ff66" stroke="#000000" stroke-width="0" cx="693" cy="-306" rx="18" ry="18"/>
</a>
</g>
</g>
<!-- 17 -->
<g id="node18" class="node">
<title>17</title>
<g id="a_node18"><a xlink:title="M">
<ellipse fill="#90ff66" stroke="#000000" stroke-width="0" cx="423" cy="-450" rx="18" ry="18"/>
</a>
</g>
</g>
<!-- 17&#45;&gt;4 -->
<g id="edge60" class="edge">
<title>17&#45;&gt;4</title>
<path fill="none" stroke="#000000" d="M423,-431.8314C423,-424.131 423,-414.9743 423,-406.4166"/>
<polygon fill="#000000" stroke="#000000" points="426.5001,-406.4132 423,-396.4133 419.5001,-406.4133 426.5001,-406.4132"/>
</g>
<!-- 22 -->
<g id="node23" class="node">
<title>22</title>
<g id="a_node23"><a xlink:title="M">
<ellipse fill="#90ff66" stroke="#000000" stroke-width="0" cx="477" cy="-378" rx="18" ry="18"/>
</a>
</g>
</g>
<!-- 17&#45;&gt;22 -->
<g id="edge37" class="edge">
<title>17&#45;&gt;22</title>
<path fill="none" stroke="#000000" d="M433.9277,-435.4297C441.3934,-425.4754 451.4368,-412.0842 459.9474,-400.7368"/>
<polygon fill="#000000" stroke="#000000" points="462.8885,-402.6486 466.0885,-392.5486 457.2885,-398.4486 462.8885,-402.6486"/>
</g>
<!-- 18 -->
<g id="node19" class="node">
<title>18</title>
<g id="a_node19"><a xlink:title="M">
<ellipse fill="#90ff66" stroke="#000000" stroke-width="0" cx="477" cy="-450" rx="18" ry="18"/>
</a>
</g>
</g>
<!-- 19 -->
<g id="node20" class="node">
<title>19</title>
<g id="a_node20"><a xlink:title="M">
<ellipse fill="#90ff66" stroke="#000000" stroke-width="0" cx="504" cy="-522" rx="18" ry="18"/>
</a>
</g>
</g>
<!-- 19&#45;&gt;15 -->
<g id="edge6" class="edge">
<title>19&#45;&gt;15</title>
<path fill="none" stroke="#000000" d="M486.524,-516.8219C444.666,-504.4196 338.4189,-472.9389 288.1512,-458.0448"/>
<polygon fill="#000000" stroke="#000000" points="288.8999,-454.6163 278.3176,-455.1311 286.9113,-461.3279 288.8999,-454.6163"/>
</g>
<!-- 19&#45;&gt;17 -->
<g id="edge31" class="edge">
<title>19&#45;&gt;17</title>
<path fill="none" stroke="#000000" d="M490.2595,-509.7862C477.6157,-498.5473 458.6738,-481.7101 444.1103,-468.7647"/>
<polygon fill="#000000" stroke="#000000" points="446.337,-466.0612 436.5376,-462.0334 441.6865,-471.2931 446.337,-466.0612"/>
</g>
<!-- 19&#45;&gt;18 -->
<g id="edge14" class="edge">
<title>19&#45;&gt;18</title>
<path fill="none" stroke="#000000" d="M497.6014,-504.937C494.407,-496.4186 490.471,-485.9227 486.8982,-476.3952"/>
<polygon fill="#000000" stroke="#000000" points="490.1411,-475.0749 483.3527,-466.9405 483.5868,-477.5328 490.1411,-475.0749"/>
</g>
<!-- 20 -->
<g id="node21" class="node">
<title>20</title>
<g id="a_node21"><a xlink:title="M">
<ellipse fill="#90ff66" stroke="#000000" stroke-width="0" cx="531" cy="-450" rx="18" ry="18"/>
</a>
</g>
</g>
<!-- 19&#45;&gt;20 -->
<g id="edge41" class="edge">
<title>19&#45;&gt;20</title>
<path fill="none" stroke="#000000" d="M510.3986,-504.937C513.593,-496.4186 517.529,-485.9227 521.1018,-476.3952"/>
<polygon fill="#000000" stroke="#000000" points="524.4132,-477.5328 524.6473,-466.9405 517.8589,-475.0749 524.4132,-477.5328"/>
</g>
<!-- 23 -->
<g id="node24" class="node">
<title>23</title>
<g id="a_node24"><a xlink:title="M">
<ellipse fill="#90ff66" stroke="#000000" stroke-width="0" cx="585" cy="-450" rx="18" ry="18"/>
</a>
</g>
</g>
<!-- 19&#45;&gt;23 -->
<g id="edge56" class="edge">
<title>19&#45;&gt;23</title>
<path fill="none" stroke="#000000" d="M517.7405,-509.7862C530.3843,-498.5473 549.3262,-481.7101 563.8897,-468.7647"/>
<polygon fill="#000000" stroke="#000000" points="566.3135,-471.2931 571.4624,-462.0334 561.663,-466.0612 566.3135,-471.2931"/>
</g>
<!-- 24 -->
<g id="node25" class="node">
<title>24</title>
<g id="a_node25"><a xlink:title="M">
<ellipse fill="#90ff66" stroke="#000000" stroke-width="0" cx="639" cy="-450" rx="18" ry="18"/>
</a>
</g>
</g>
<!-- 19&#45;&gt;24 -->
<g id="edge33" class="edge">
<title>19&#45;&gt;24</title>
<path fill="none" stroke="#000000" d="M520.4332,-514.5634C541.896,-504.6754 580.4517,-486.3082 612,-468 613.1237,-467.3479 614.2642,-466.6671 615.4091,-465.9683"/>
<polygon fill="#000000" stroke="#000000" points="617.5333,-468.7644 624.0735,-460.4291 613.7628,-462.8666 617.5333,-468.7644"/>
</g>
<!-- 21 -->
<g id="node22" class="node">
<title>21</title>
<g id="a_node22"><a xlink:title="M">
<ellipse fill="#90ff66" stroke="#000000" stroke-width="0" cx="531" cy="-378" rx="18" ry="18"/>
</a>
</g>
</g>
<!-- 20&#45;&gt;21 -->
<g id="edge53" class="edge">
<title>20&#45;&gt;21</title>
<path fill="none" stroke="#000000" d="M531,-431.8314C531,-424.131 531,-414.9743 531,-406.4166"/>
<polygon fill="#000000" stroke="#000000" points="534.5001,-406.4132 531,-396.4133 527.5001,-406.4133 534.5001,-406.4132"/>
</g>
<!-- 48 -->
<g id="node49" class="node">
<title>48</title>
<g id="a_node49"><a xlink:title="M">
<ellipse fill="#90ff66" stroke="#000000" stroke-width="0" cx="585" cy="-378" rx="18" ry="18"/>
</a>
</g>
</g>
<!-- 20&#45;&gt;48 -->
<g id="edge25" class="edge">
<title>20&#45;&gt;48</title>
<path fill="none" stroke="#000000" d="M541.9277,-435.4297C549.3934,-425.4754 559.4368,-412.0842 567.9474,-400.7368"/>
<polygon fill="#000000" stroke="#000000" points="570.8885,-402.6486 574.0885,-392.5486 565.2885,-398.4486 570.8885,-402.6486"/>
</g>
<!-- 44 -->
<g id="node45" class="node">
<title>44</title>
<g id="a_node45"><a xlink:title="M">
<ellipse fill="#90ff66" stroke="#000000" stroke-width="0" cx="639" cy="-378" rx="18" ry="18"/>
</a>
</g>
</g>
<!-- 24&#45;&gt;44 -->
<g id="edge35" class="edge">
<title>24&#45;&gt;44</title>
<path fill="none" stroke="#000000" d="M639,-431.8314C639,-424.131 639,-414.9743 639,-406.4166"/>
<polygon fill="#000000" stroke="#000000" points="642.5001,-406.4132 639,-396.4133 635.5001,-406.4133 642.5001,-406.4132"/>
</g>
<!-- 56 -->
<g id="node57" class="node">
<title>56</title>
<g id="a_node57"><a xlink:title="M">
<ellipse fill="#90ff66" stroke="#000000" stroke-width="0" cx="693" cy="-378" rx="18" ry="18"/>
</a>
</g>
</g>
<!-- 24&#45;&gt;56 -->
<g id="edge21" class="edge">
<title>24&#45;&gt;56</title>
<path fill="none" stroke="#000000" d="M649.9277,-435.4297C657.3934,-425.4754 667.4368,-412.0842 675.9474,-400.7368"/>
<polygon fill="#000000" stroke="#000000" points="678.8885,-402.6486 682.0885,-392.5486 673.2885,-398.4486 678.8885,-402.6486"/>
</g>
<!-- 25 -->
<g id="node26" class="node">
<title>25</title>
<g id="a_node26"><a xlink:title="M">
<ellipse fill="#90ff66" stroke="#000000" stroke-width="0" cx="99" cy="-234" rx="18" ry="18"/>
</a>
</g>
</g>
<!-- 45 -->
<g id="node46" class="node">
<title>45</title>
<g id="a_node46"><a xlink:title="M">
<ellipse fill="#90ff66" stroke="#000000" stroke-width="0" cx="18" cy="-162" rx="18" ry="18"/>
</a>
</g>
</g>
<!-- 25&#45;&gt;45 -->
<g id="edge34" class="edge">
<title>25&#45;&gt;45</title>
<path fill="none" stroke="#000000" d="M85.2595,-221.7862C72.6157,-210.5473 53.6738,-193.7101 39.1103,-180.7647"/>
<polygon fill="#000000" stroke="#000000" points="41.337,-178.0612 31.5376,-174.0334 36.6865,-183.2931 41.337,-178.0612"/>
</g>
<!-- 53 -->
<g id="node54" class="node">
<title>53</title>
<g id="a_node54"><a xlink:title="M">
<ellipse fill="#90ff66" stroke="#000000" stroke-width="0" cx="72" cy="-162" rx="18" ry="18"/>
</a>
</g>
</g>
<!-- 25&#45;&gt;53 -->
<g id="edge38" class="edge">
<title>25&#45;&gt;53</title>
<path fill="none" stroke="#000000" d="M92.6014,-216.937C89.407,-208.4186 85.471,-197.9227 81.8982,-188.3952"/>
<polygon fill="#000000" stroke="#000000" points="85.1411,-187.0749 78.3527,-178.9405 78.5868,-189.5328 85.1411,-187.0749"/>
</g>
<!-- 57 -->
<g id="node58" class="node">
<title>57</title>
<g id="a_node58"><a xlink:title="M">
<ellipse fill="#90ff66" stroke="#000000" stroke-width="0" cx="126" cy="-162" rx="18" ry="18"/>
</a>
</g>
</g>
<!-- 25&#45;&gt;57 -->
<g id="edge19" class="edge">
<title>25&#45;&gt;57</title>
<path fill="none" stroke="#000000" d="M105.3986,-216.937C108.593,-208.4186 112.529,-197.9227 116.1018,-188.3952"/>
<polygon fill="#000000" stroke="#000000" points="119.4132,-189.5328 119.6473,-178.9405 112.8589,-187.0749 119.4132,-189.5328"/>
</g>
<!-- 60 -->
<g id="node61" class="node">
<title>60</title>
<g id="a_node61"><a xlink:title="M">
<ellipse fill="#90ff66" stroke="#000000" stroke-width="0" cx="180" cy="-162" rx="18" ry="18"/>
</a>
</g>
</g>
<!-- 25&#45;&gt;60 -->
<g id="edge18" class="edge">
<title>25&#45;&gt;60</title>
<path fill="none" stroke="#000000" d="M112.7405,-221.7862C125.3843,-210.5473 144.3262,-193.7101 158.8897,-180.7647"/>
<polygon fill="#000000" stroke="#000000" points="161.3135,-183.2931 166.4624,-174.0334 156.663,-178.0612 161.3135,-183.2931"/>
</g>
<!-- 26&#45;&gt;25 -->
<g id="edge11" class="edge">
<title>26&#45;&gt;25</title>
<path fill="none" stroke="#000000" d="M142.0723,-291.4297C134.6066,-281.4754 124.5632,-268.0842 116.0526,-256.7368"/>
<polygon fill="#000000" stroke="#000000" points="118.7115,-254.4486 109.9115,-248.5486 113.1115,-258.6486 118.7115,-254.4486"/>
</g>
<!-- 27 -->
<g id="node28" class="node">
<title>27</title>
<g id="a_node28"><a xlink:title="M">
<ellipse fill="#90ff66" stroke="#000000" stroke-width="0" cx="153" cy="-234" rx="18" ry="18"/>
</a>
</g>
</g>
<!-- 26&#45;&gt;27 -->
<g id="edge48" class="edge">
<title>26&#45;&gt;27</title>
<path fill="none" stroke="#000000" d="M153,-287.8314C153,-280.131 153,-270.9743 153,-262.4166"/>
<polygon fill="#000000" stroke="#000000" points="156.5001,-262.4132 153,-252.4133 149.5001,-262.4133 156.5001,-262.4132"/>
</g>
<!-- 29&#45;&gt;2 -->
<g id="edge58" class="edge">
<title>29&#45;&gt;2</title>
<path fill="none" stroke="#000000" d="M574.0723,-291.4297C566.6066,-281.4754 556.5632,-268.0842 548.0526,-256.7368"/>
<polygon fill="#000000" stroke="#000000" points="550.7115,-254.4486 541.9115,-248.5486 545.1115,-258.6486 550.7115,-254.4486"/>
</g>
<!-- 33 -->
<g id="node34" class="node">
<title>33</title>
<g id="a_node34"><a xlink:title="M">
<ellipse fill="#90ff66" stroke="#000000" stroke-width="0" cx="585" cy="-234" rx="18" ry="18"/>
</a>
</g>
</g>
<!-- 29&#45;&gt;33 -->
<g id="edge50" class="edge">
<title>29&#45;&gt;33</title>
<path fill="none" stroke="#000000" d="M585,-287.8314C585,-280.131 585,-270.9743 585,-262.4166"/>
<polygon fill="#000000" stroke="#000000" points="588.5001,-262.4132 585,-252.4133 581.5001,-262.4133 588.5001,-262.4132"/>
</g>
<!-- 35 -->
<g id="node36" class="node">
<title>35</title>
<g id="a_node36"><a xlink:title="M">
<ellipse fill="#90ff66" stroke="#000000" stroke-width="0" cx="639" cy="-234" rx="18" ry="18"/>
</a>
</g>
</g>
<!-- 29&#45;&gt;35 -->
<g id="edge7" class="edge">
<title>29&#45;&gt;35</title>
<path fill="none" stroke="#000000" d="M595.9277,-291.4297C603.3934,-281.4754 613.4368,-268.0842 621.9474,-256.7368"/>
<polygon fill="#000000" stroke="#000000" points="624.8885,-258.6486 628.0885,-248.5486 619.2885,-254.4486 624.8885,-258.6486"/>
</g>
<!-- 37 -->
<g id="node38" class="node">
<title>37</title>
<g id="a_node38"><a xlink:title="M">
<ellipse fill="#90ff66" stroke="#000000" stroke-width="0" cx="693" cy="-234" rx="18" ry="18"/>
</a>
</g>
</g>
<!-- 29&#45;&gt;37 -->
<g id="edge42" class="edge">
<title>29&#45;&gt;37</title>
<path fill="none" stroke="#000000" d="M600.0169,-295.9887C617.97,-284.02 648.2325,-263.845 669.3396,-249.7736"/>
<polygon fill="#000000" stroke="#000000" points="671.3834,-252.6176 677.7624,-244.1584 667.5005,-246.7932 671.3834,-252.6176"/>
</g>
<!-- 55 -->
<g id="node56" class="node">
<title>55</title>
<g id="a_node56"><a xlink:title="M">
<ellipse fill="#90ff66" stroke="#000000" stroke-width="0" cx="747" cy="-234" rx="18" ry="18"/>
</a>
</g>
</g>
<!-- 29&#45;&gt;55 -->
<g id="edge54" class="edge">
<title>29&#45;&gt;55</title>
<path fill="none" stroke="#000000" d="M599.7126,-295.1702C603.5886,-292.6058 607.8501,-290.0296 612,-288 657.4516,-265.7704 674.5484,-274.2296 720,-252 721.1672,-251.4292 722.3431,-250.8151 723.5169,-250.1702"/>
<polygon fill="#000000" stroke="#000000" points="725.5665,-253.0201 732.2874,-244.8298 721.9259,-247.0412 725.5665,-253.0201"/>
</g>
<!-- 61 -->
<g id="node62" class="node">
<title>61</title>
<g id="a_node62"><a xlink:title="M">
<ellipse fill="#90ff66" stroke="#000000" stroke-width="0" cx="801" cy="-234" rx="18" ry="18"/>
</a>
</g>
</g>
<!-- 29&#45;&gt;61 -->
<g id="edge12" class="edge">
<title>29&#45;&gt;61</title>
<path fill="none" stroke="#000000" d="M599.2923,-295.0575C603.2443,-292.4338 607.6474,-289.8574 612,-288 679.8379,-259.0515 706.1621,-280.9485 774,-252 775.3602,-251.4196 776.7253,-250.7689 778.08,-250.0686"/>
<polygon fill="#000000" stroke="#000000" points="779.8984,-253.0594 786.7077,-244.9425 776.3228,-247.0415 779.8984,-253.0594"/>
</g>
<!-- 30 -->
<g id="node31" class="node">
<title>30</title>
<g id="a_node31"><a xlink:title="M">
<ellipse fill="#90ff66" stroke="#000000" stroke-width="0" cx="585" cy="-90" rx="18" ry="18"/>
</a>
</g>
</g>
<!-- 31 -->
<g id="node32" class="node">
<title>31</title>
<g id="a_node32"><a xlink:title="M">
<ellipse fill="#90ff66" stroke="#000000" stroke-width="0" cx="369" cy="-162" rx="18" ry="18"/>
</a>
</g>
</g>
<!-- 32 -->
<g id="node33" class="node">
<title>32</title>
<g id="a_node33"><a xlink:title="M">
<ellipse fill="#90ff66" stroke="#000000" stroke-width="0" cx="369" cy="-90" rx="18" ry="18"/>
</a>
</g>
</g>
<!-- 31&#45;&gt;32 -->
<g id="edge9" class="edge">
<title>31&#45;&gt;32</title>
<path fill="none" stroke="#000000" d="M369,-143.8314C369,-136.131 369,-126.9743 369,-118.4166"/>
<polygon fill="#000000" stroke="#000000" points="372.5001,-118.4132 369,-108.4133 365.5001,-118.4133 372.5001,-118.4132"/>
</g>
<!-- 34 -->
<g id="node35" class="node">
<title>34</title>
<g id="a_node35"><a xlink:title="M">
<ellipse fill="#90ff66" stroke="#000000" stroke-width="0" cx="369" cy="-18" rx="18" ry="18"/>
</a>
</g>
</g>
<!-- 32&#45;&gt;34 -->
<g id="edge26" class="edge">
<title>32&#45;&gt;34</title>
<path fill="none" stroke="#000000" d="M369,-71.8314C369,-64.131 369,-54.9743 369,-46.4166"/>
<polygon fill="#000000" stroke="#000000" points="372.5001,-46.4132 369,-36.4133 365.5001,-46.4133 372.5001,-46.4132"/>
</g>
<!-- 36 -->
<g id="node37" class="node">
<title>36</title>
<g id="a_node37"><a xlink:title="M">
<ellipse fill="#90ff66" stroke="#000000" stroke-width="0" cx="585" cy="-162" rx="18" ry="18"/>
</a>
</g>
</g>
<!-- 33&#45;&gt;36 -->
<g id="edge5" class="edge">
<title>33&#45;&gt;36</title>
<path fill="none" stroke="#000000" d="M585,-215.8314C585,-208.131 585,-198.9743 585,-190.4166"/>
<polygon fill="#000000" stroke="#000000" points="588.5001,-190.4132 585,-180.4133 581.5001,-190.4133 588.5001,-190.4132"/>
</g>
<!-- 35&#45;&gt;3 -->
<g id="edge46" class="edge">
<title>35&#45;&gt;3</title>
<path fill="none" stroke="#000000" d="M639,-215.8314C639,-208.131 639,-198.9743 639,-190.4166"/>
<polygon fill="#000000" stroke="#000000" points="642.5001,-190.4132 639,-180.4133 635.5001,-190.4133 642.5001,-190.4132"/>
</g>
<!-- 36&#45;&gt;30 -->
<g id="edge20" class="edge">
<title>36&#45;&gt;30</title>
<path fill="none" stroke="#000000" d="M585,-143.8314C585,-136.131 585,-126.9743 585,-118.4166"/>
<polygon fill="#000000" stroke="#000000" points="588.5001,-118.4132 585,-108.4133 581.5001,-118.4133 588.5001,-118.4132"/>
</g>
<!-- 37&#45;&gt;1 -->
<g id="edge24" class="edge">
<title>37&#45;&gt;1</title>
<path fill="none" stroke="#000000" d="M693,-215.8314C693,-208.131 693,-198.9743 693,-190.4166"/>
<polygon fill="#000000" stroke="#000000" points="696.5001,-190.4132 693,-180.4133 689.5001,-190.4133 696.5001,-190.4132"/>
</g>
<!-- 38 -->
<g id="node39" class="node">
<title>38</title>
<g id="a_node39"><a xlink:title="M">
<ellipse fill="#90ff66" stroke="#000000" stroke-width="0" cx="477" cy="-90" rx="18" ry="18"/>
</a>
</g>
</g>
<!-- 39 -->
<g id="node40" class="node">
<title>39</title>
<g id="a_node40"><a xlink:title="M">
<ellipse fill="#90ff66" stroke="#000000" stroke-width="0" cx="747" cy="-162" rx="18" ry="18"/>
</a>
</g>
</g>
<!-- 40&#45;&gt;38 -->
<g id="edge55" class="edge">
<title>40&#45;&gt;38</title>
<path fill="none" stroke="#000000" d="M477,-143.8314C477,-136.131 477,-126.9743 477,-118.4166"/>
<polygon fill="#000000" stroke="#000000" points="480.5001,-118.4132 477,-108.4133 473.5001,-118.4133 480.5001,-118.4132"/>
</g>
<!-- 41 -->
<g id="node42" class="node">
<title>41</title>
<g id="a_node42"><a xlink:title="M">
<ellipse fill="#90ff66" stroke="#000000" stroke-width="0" cx="18" cy="-18" rx="18" ry="18"/>
</a>
</g>
</g>
<!-- 42 -->
<g id="node43" class="node">
<title>42</title>
<g id="a_node43"><a xlink:title="M">
<ellipse fill="#90ff66" stroke="#000000" stroke-width="0" cx="18" cy="-90" rx="18" ry="18"/>
</a>
</g>
</g>
<!-- 42&#45;&gt;41 -->
<g id="edge27" class="edge">
<title>42&#45;&gt;41</title>
<path fill="none" stroke="#000000" d="M18,-71.8314C18,-64.131 18,-54.9743 18,-46.4166"/>
<polygon fill="#000000" stroke="#000000" points="21.5001,-46.4132 18,-36.4133 14.5001,-46.4133 21.5001,-46.4132"/>
</g>
<!-- 45&#45;&gt;42 -->
<g id="edge17" class="edge">
<title>45&#45;&gt;42</title>
<path fill="none" stroke="#000000" d="M18,-143.8314C18,-136.131 18,-126.9743 18,-118.4166"/>
<polygon fill="#000000" stroke="#000000" points="21.5001,-118.4132 18,-108.4133 14.5001,-118.4133 21.5001,-118.4132"/>
</g>
<!-- 46 -->
<g id="node47" class="node">
<title>46</title>
<g id="a_node47"><a xlink:title="M">
<ellipse fill="#90ff66" stroke="#000000" stroke-width="0" cx="72" cy="-90" rx="18" ry="18"/>
</a>
</g>
</g>
<!-- 50&#45;&gt;31 -->
<g id="edge39" class="edge">
<title>50&#45;&gt;31</title>
<path fill="none" stroke="#000000" d="M369,-215.8314C369,-208.131 369,-198.9743 369,-190.4166"/>
<polygon fill="#000000" stroke="#000000" points="372.5001,-190.4132 369,-180.4133 365.5001,-190.4133 372.5001,-190.4132"/>
</g>
<!-- 51 -->
<g id="node52" class="node">
<title>51</title>
<g id="a_node52"><a xlink:title="M">
<ellipse fill="#90ff66" stroke="#000000" stroke-width="0" cx="180" cy="-90" rx="18" ry="18"/>
</a>
</g>
</g>
<!-- 53&#45;&gt;46 -->
<g id="edge1" class="edge">
<title>53&#45;&gt;46</title>
<path fill="none" stroke="#000000" d="M72,-143.8314C72,-136.131 72,-126.9743 72,-118.4166"/>
<polygon fill="#000000" stroke="#000000" points="75.5001,-118.4132 72,-108.4133 68.5001,-118.4133 75.5001,-118.4132"/>
</g>
<!-- 55&#45;&gt;39 -->
<g id="edge10" class="edge">
<title>55&#45;&gt;39</title>
<path fill="none" stroke="#000000" d="M747,-215.8314C747,-208.131 747,-198.9743 747,-190.4166"/>
<polygon fill="#000000" stroke="#000000" points="750.5001,-190.4132 747,-180.4133 743.5001,-190.4133 750.5001,-190.4132"/>
</g>
<!-- 56&#45;&gt;16 -->
<g id="edge4" class="edge">
<title>56&#45;&gt;16</title>
<path fill="none" stroke="#000000" d="M693,-359.8314C693,-352.131 693,-342.9743 693,-334.4166"/>
<polygon fill="#000000" stroke="#000000" points="696.5001,-334.4132 693,-324.4133 689.5001,-334.4133 696.5001,-334.4132"/>
</g>
<!-- 58 -->
<g id="node59" class="node">
<title>58</title>
<g id="a_node59"><a xlink:title="M">
<ellipse fill="#90ff66" stroke="#000000" stroke-width="0" cx="126" cy="-90" rx="18" ry="18"/>
</a>
</g>
</g>
<!-- 57&#45;&gt;58 -->
<g id="edge52" class="edge">
<title>57&#45;&gt;58</title>
<path fill="none" stroke="#000000" d="M126,-143.8314C126,-136.131 126,-126.9743 126,-118.4166"/>
<polygon fill="#000000" stroke="#000000" points="129.5001,-118.4132 126,-108.4133 122.5001,-118.4133 129.5001,-118.4132"/>
</g>
<!-- 59 -->
<g id="node60" class="node">
<title>59</title>
<g id="a_node60"><a xlink:title="M">
<ellipse fill="#90ff66" stroke="#000000" stroke-width="0" cx="801" cy="-162" rx="18" ry="18"/>
</a>
</g>
</g>
<!-- 60&#45;&gt;51 -->
<g id="edge43" class="edge">
<title>60&#45;&gt;51</title>
<path fill="none" stroke="#000000" d="M180,-143.8314C180,-136.131 180,-126.9743 180,-118.4166"/>
<polygon fill="#000000" stroke="#000000" points="183.5001,-118.4132 180,-108.4133 176.5001,-118.4133 183.5001,-118.4132"/>
</g>
<!-- 61&#45;&gt;59 -->
<g id="edge44" class="edge">
<title>61&#45;&gt;59</title>
<path fill="none" stroke="#000000" d="M801,-215.8314C801,-208.131 801,-198.9743 801,-190.4166"/>
<polygon fill="#000000" stroke="#000000" points="804.5001,-190.4132 801,-180.4133 797.5001,-190.4133 804.5001,-190.4132"/>
</g>
</g>
</svg>
