<?xml version="1.0" encoding="UTF-8" standalone="no"?>
<!DOCTYPE svg PUBLIC "-//W3C//DTD SVG 1.1//EN"
 "http://www.w3.org/Graphics/SVG/1.1/DTD/svg11.dtd">
<!-- Generated by graphviz version 2.38.0 (20140413.2041)
 -->
<!-- Title: %3 Pages: 1 -->
<svg width="670pt" height="692pt"
 viewBox="0.00 0.00 669.50 692.00" xmlns="http://www.w3.org/2000/svg" xmlns:xlink="http://www.w3.org/1999/xlink">
<g id="graph0" class="graph" transform="scale(1 1) rotate(0) translate(4 688)">
<title>%3</title>
<polygon fill="white" stroke="none" points="-4,4 -4,-688 665.5,-688 665.5,4 -4,4"/>
<!-- p0 -->
<g id="node1" class="node"><title>p0</title>
<path fill="none" stroke="black" d="M47,-108C47,-108 12,-108 12,-108 6,-108 0,-102 0,-96 0,-96 0,-84 0,-84 0,-78 6,-72 12,-72 12,-72 47,-72 47,-72 53,-72 59,-78 59,-84 59,-84 59,-96 59,-96 59,-102 53,-108 47,-108"/>
<text text-anchor="middle" x="29.5" y="-86.3" font-family="Times,serif" font-size="14.00">path (7)</text>
</g>
<!-- p1 -->
<g id="node2" class="node"><title>p1</title>
<path fill="none" stroke="black" d="M197,-36C197,-36 162,-36 162,-36 156,-36 150,-30 150,-24 150,-24 150,-12 150,-12 150,-6 156,-0 162,-0 162,-0 197,-0 197,-0 203,-0 209,-6 209,-12 209,-12 209,-24 209,-24 209,-30 203,-36 197,-36"/>
<text text-anchor="middle" x="179.5" y="-14.3" font-family="Times,serif" font-size="14.00">path (2)</text>
</g>
<!-- p2 -->
<g id="node3" class="node"><title>p2</title>
<path fill="none" stroke="black" d="M281.5,-36C281.5,-36 239.5,-36 239.5,-36 233.5,-36 227.5,-30 227.5,-24 227.5,-24 227.5,-12 227.5,-12 227.5,-6 233.5,-0 239.5,-0 239.5,-0 281.5,-0 281.5,-0 287.5,-0 293.5,-6 293.5,-12 293.5,-12 293.5,-24 293.5,-24 293.5,-30 287.5,-36 281.5,-36"/>
<text text-anchor="middle" x="260.5" y="-14.3" font-family="Times,serif" font-size="14.00">path (17)</text>
</g>
<!-- v9 -->
<g id="node4" class="node"><title>v9</title>
<ellipse fill="none" stroke="black" cx="412.5" cy="-306" rx="27" ry="18"/>
<text text-anchor="middle" x="412.5" y="-302.3" font-family="Times,serif" font-size="14.00">9</text>
</g>
<!-- p7 -->
<g id="node21" class="node"><title>p7</title>
<path fill="none" stroke="black" d="M393,-252C393,-252 358,-252 358,-252 352,-252 346,-246 346,-240 346,-240 346,-228 346,-228 346,-222 352,-216 358,-216 358,-216 393,-216 393,-216 399,-216 405,-222 405,-228 405,-228 405,-240 405,-240 405,-246 399,-252 393,-252"/>
<text text-anchor="middle" x="375.5" y="-230.3" font-family="Times,serif" font-size="14.00">path (2)</text>
</g>
<!-- v9&#45;&gt;p7 -->
<g id="edge6" class="edge"><title>v9&#45;&gt;p7</title>
<path fill="none" stroke="black" d="M403.918,-288.765C399.563,-280.525 394.167,-270.317 389.251,-261.016"/>
<polygon fill="black" stroke="black" points="392.319,-259.329 384.551,-252.124 386.13,-262.6 392.319,-259.329"/>
</g>
<!-- v63 -->
<g id="node29" class="node"><title>v63</title>
<ellipse fill="none" stroke="black" cx="450.5" cy="-234" rx="27" ry="18"/>
<text text-anchor="middle" x="450.5" y="-230.3" font-family="Times,serif" font-size="14.00">63</text>
</g>
<!-- v9&#45;&gt;v63 -->
<g id="edge20" class="edge"><title>v9&#45;&gt;v63</title>
<path fill="none" stroke="black" d="M421.313,-288.765C425.918,-280.283 431.655,-269.714 436.821,-260.197"/>
<polygon fill="black" stroke="black" points="440.039,-261.606 441.734,-251.147 433.887,-258.266 440.039,-261.606"/>
</g>
<!-- p14 -->
<g id="node33" class="node"><title>p14</title>
<path fill="none" stroke="black" d="M543,-252C543,-252 508,-252 508,-252 502,-252 496,-246 496,-240 496,-240 496,-228 496,-228 496,-222 502,-216 508,-216 508,-216 543,-216 543,-216 549,-216 555,-222 555,-228 555,-228 555,-240 555,-240 555,-246 549,-252 543,-252"/>
<text text-anchor="middle" x="525.5" y="-230.3" font-family="Times,serif" font-size="14.00">path (2)</text>
</g>
<!-- v9&#45;&gt;p14 -->
<g id="edge24" class="edge"><title>v9&#45;&gt;p14</title>
<path fill="none" stroke="black" d="M431.669,-293.125C447.395,-283.384 470.105,-269.315 489.244,-257.459"/>
<polygon fill="black" stroke="black" points="491.091,-260.433 497.749,-252.191 487.404,-254.482 491.091,-260.433"/>
</g>
<!-- v10 -->
<g id="node5" class="node"><title>v10</title>
<ellipse fill="none" stroke="black" cx="356.5" cy="-450" rx="27" ry="18"/>
<text text-anchor="middle" x="356.5" y="-446.3" font-family="Times,serif" font-size="14.00">10</text>
</g>
<!-- v23 -->
<g id="node12" class="node"><title>v23</title>
<ellipse fill="none" stroke="black" cx="334.5" cy="-378" rx="27" ry="18"/>
<text text-anchor="middle" x="334.5" y="-374.3" font-family="Times,serif" font-size="14.00">23</text>
</g>
<!-- v10&#45;&gt;v23 -->
<g id="edge7" class="edge"><title>v10&#45;&gt;v23</title>
<path fill="none" stroke="black" d="M351.174,-432.055C348.661,-424.059 345.604,-414.331 342.797,-405.4"/>
<polygon fill="black" stroke="black" points="346.114,-404.28 339.777,-395.789 339.436,-406.378 346.114,-404.28"/>
</g>
<!-- p3 -->
<g id="node6" class="node"><title>p3</title>
<path fill="none" stroke="black" d="M335.5,-612C335.5,-612 293.5,-612 293.5,-612 287.5,-612 281.5,-606 281.5,-600 281.5,-600 281.5,-588 281.5,-588 281.5,-582 287.5,-576 293.5,-576 293.5,-576 335.5,-576 335.5,-576 341.5,-576 347.5,-582 347.5,-588 347.5,-588 347.5,-600 347.5,-600 347.5,-606 341.5,-612 335.5,-612"/>
<text text-anchor="middle" x="314.5" y="-590.3" font-family="Times,serif" font-size="14.00">path (12)</text>
</g>
<!-- v14 -->
<g id="node7" class="node"><title>v14</title>
<ellipse fill="none" stroke="black" cx="219.5" cy="-90" rx="27" ry="18"/>
<text text-anchor="middle" x="219.5" y="-86.3" font-family="Times,serif" font-size="14.00">14</text>
</g>
<!-- v14&#45;&gt;p1 -->
<g id="edge18" class="edge"><title>v14&#45;&gt;p1</title>
<path fill="none" stroke="black" d="M210.223,-72.7646C205.515,-64.5255 199.681,-54.3166 194.366,-45.0157"/>
<polygon fill="black" stroke="black" points="197.285,-43.0699 189.285,-36.1239 191.208,-46.5429 197.285,-43.0699"/>
</g>
<!-- v14&#45;&gt;p2 -->
<g id="edge15" class="edge"><title>v14&#45;&gt;p2</title>
<path fill="none" stroke="black" d="M229.009,-72.7646C233.835,-64.5255 239.815,-54.3166 245.262,-45.0157"/>
<polygon fill="black" stroke="black" points="248.436,-46.5217 250.47,-36.1239 242.396,-42.9838 248.436,-46.5217"/>
</g>
<!-- v19 -->
<g id="node8" class="node"><title>v19</title>
<ellipse fill="none" stroke="black" cx="484.5" cy="-378" rx="27" ry="18"/>
<text text-anchor="middle" x="484.5" y="-374.3" font-family="Times,serif" font-size="14.00">19</text>
</g>
<!-- v19&#45;&gt;v9 -->
<g id="edge30" class="edge"><title>v19&#45;&gt;v9</title>
<path fill="none" stroke="black" d="M469.93,-362.834C459.75,-352.938 445.976,-339.546 434.469,-328.359"/>
<polygon fill="black" stroke="black" points="436.905,-325.846 427.296,-321.385 432.026,-330.865 436.905,-325.846"/>
</g>
<!-- v20 -->
<g id="node9" class="node"><title>v20</title>
<ellipse fill="none" stroke="black" cx="484.5" cy="-306" rx="27" ry="18"/>
<text text-anchor="middle" x="484.5" y="-302.3" font-family="Times,serif" font-size="14.00">20</text>
</g>
<!-- v19&#45;&gt;v20 -->
<g id="edge29" class="edge"><title>v19&#45;&gt;v20</title>
<path fill="none" stroke="black" d="M484.5,-359.697C484.5,-351.983 484.5,-342.712 484.5,-334.112"/>
<polygon fill="black" stroke="black" points="488,-334.104 484.5,-324.104 481,-334.104 488,-334.104"/>
</g>
<!-- p4 -->
<g id="node13" class="node"><title>p4</title>
<path fill="none" stroke="black" d="M577,-324C577,-324 542,-324 542,-324 536,-324 530,-318 530,-312 530,-312 530,-300 530,-300 530,-294 536,-288 542,-288 542,-288 577,-288 577,-288 583,-288 589,-294 589,-300 589,-300 589,-312 589,-312 589,-318 583,-324 577,-324"/>
<text text-anchor="middle" x="559.5" y="-302.3" font-family="Times,serif" font-size="14.00">path (3)</text>
</g>
<!-- v19&#45;&gt;p4 -->
<g id="edge23" class="edge"><title>v19&#45;&gt;p4</title>
<path fill="none" stroke="black" d="M499.677,-362.834C509.415,-353.746 522.31,-341.71 533.634,-331.141"/>
<polygon fill="black" stroke="black" points="536.242,-333.495 541.165,-324.113 531.466,-328.377 536.242,-333.495"/>
</g>
<!-- v27 -->
<g id="node14" class="node"><title>v27</title>
<ellipse fill="none" stroke="black" cx="634.5" cy="-306" rx="27" ry="18"/>
<text text-anchor="middle" x="634.5" y="-302.3" font-family="Times,serif" font-size="14.00">27</text>
</g>
<!-- v19&#45;&gt;v27 -->
<g id="edge13" class="edge"><title>v19&#45;&gt;v27</title>
<path fill="none" stroke="black" d="M505.991,-366.971C531.61,-355.015 574.61,-334.949 603.745,-321.352"/>
<polygon fill="black" stroke="black" points="605.467,-324.411 613.049,-317.011 602.507,-318.068 605.467,-324.411"/>
</g>
<!-- v21 -->
<g id="node10" class="node"><title>v21</title>
<ellipse fill="none" stroke="black" cx="392.5" cy="-522" rx="27" ry="18"/>
<text text-anchor="middle" x="392.5" y="-518.3" font-family="Times,serif" font-size="14.00">21</text>
</g>
<!-- v21&#45;&gt;v10 -->
<g id="edge19" class="edge"><title>v21&#45;&gt;v10</title>
<path fill="none" stroke="black" d="M384.15,-504.765C379.788,-496.283 374.353,-485.714 369.459,-476.197"/>
<polygon fill="black" stroke="black" points="372.49,-474.439 364.804,-467.147 366.265,-477.641 372.49,-474.439"/>
</g>
<!-- v22 -->
<g id="node11" class="node"><title>v22</title>
<ellipse fill="none" stroke="black" cx="465.5" cy="-450" rx="27" ry="18"/>
<text text-anchor="middle" x="465.5" y="-446.3" font-family="Times,serif" font-size="14.00">22</text>
</g>
<!-- v21&#45;&gt;v22 -->
<g id="edge31" class="edge"><title>v21&#45;&gt;v22</title>
<path fill="none" stroke="black" d="M407.273,-506.834C417.662,-496.872 431.744,-483.369 443.457,-472.137"/>
<polygon fill="black" stroke="black" points="445.954,-474.592 450.749,-465.144 441.109,-469.539 445.954,-474.592"/>
</g>
<!-- v22&#45;&gt;v19 -->
<g id="edge1" class="edge"><title>v22&#45;&gt;v19</title>
<path fill="none" stroke="black" d="M470.099,-432.055C472.246,-424.145 474.853,-414.54 477.256,-405.688"/>
<polygon fill="black" stroke="black" points="480.701,-406.357 479.943,-395.789 473.946,-404.523 480.701,-406.357"/>
</g>
<!-- v35 -->
<g id="node17" class="node"><title>v35</title>
<ellipse fill="none" stroke="black" cx="219.5" cy="-306" rx="27" ry="18"/>
<text text-anchor="middle" x="219.5" y="-302.3" font-family="Times,serif" font-size="14.00">35</text>
</g>
<!-- v23&#45;&gt;v35 -->
<g id="edge3" class="edge"><title>v23&#45;&gt;v35</title>
<path fill="none" stroke="black" d="M315.252,-365.284C296.76,-354.028 268.608,-336.892 247.609,-324.11"/>
<polygon fill="black" stroke="black" points="249.173,-320.964 238.811,-318.755 245.533,-326.944 249.173,-320.964"/>
</g>
<!-- p8 -->
<g id="node22" class="node"><title>p8</title>
<path fill="none" stroke="black" d="M352,-324C352,-324 317,-324 317,-324 311,-324 305,-318 305,-312 305,-312 305,-300 305,-300 305,-294 311,-288 317,-288 317,-288 352,-288 352,-288 358,-288 364,-294 364,-300 364,-300 364,-312 364,-312 364,-318 358,-324 352,-324"/>
<text text-anchor="middle" x="334.5" y="-302.3" font-family="Times,serif" font-size="14.00">path (6)</text>
</g>
<!-- v23&#45;&gt;p8 -->
<g id="edge17" class="edge"><title>v23&#45;&gt;p8</title>
<path fill="none" stroke="black" d="M334.5,-359.697C334.5,-351.983 334.5,-342.712 334.5,-334.112"/>
<polygon fill="black" stroke="black" points="338,-334.104 334.5,-324.104 331,-334.104 338,-334.104"/>
</g>
<!-- v29 -->
<g id="node15" class="node"><title>v29</title>
<ellipse fill="none" stroke="black" cx="353.5" cy="-666" rx="27" ry="18"/>
<text text-anchor="middle" x="353.5" y="-662.3" font-family="Times,serif" font-size="14.00">29</text>
</g>
<!-- v29&#45;&gt;p3 -->
<g id="edge21" class="edge"><title>v29&#45;&gt;p3</title>
<path fill="none" stroke="black" d="M344.455,-648.765C339.864,-640.525 334.176,-630.317 328.994,-621.016"/>
<polygon fill="black" stroke="black" points="331.965,-619.156 324.04,-612.124 325.85,-622.563 331.965,-619.156"/>
</g>
<!-- v31 -->
<g id="node16" class="node"><title>v31</title>
<ellipse fill="none" stroke="black" cx="392.5" cy="-594" rx="27" ry="18"/>
<text text-anchor="middle" x="392.5" y="-590.3" font-family="Times,serif" font-size="14.00">31</text>
</g>
<!-- v29&#45;&gt;v31 -->
<g id="edge22" class="edge"><title>v29&#45;&gt;v31</title>
<path fill="none" stroke="black" d="M362.545,-648.765C367.32,-640.195 373.282,-629.494 378.627,-619.9"/>
<polygon fill="black" stroke="black" points="381.694,-621.586 383.504,-611.147 375.579,-618.18 381.694,-621.586"/>
</g>
<!-- v31&#45;&gt;v21 -->
<g id="edge8" class="edge"><title>v31&#45;&gt;v21</title>
<path fill="none" stroke="black" d="M392.5,-575.697C392.5,-567.983 392.5,-558.712 392.5,-550.112"/>
<polygon fill="black" stroke="black" points="396,-550.104 392.5,-540.104 389,-550.104 396,-550.104"/>
</g>
<!-- v40 -->
<g id="node18" class="node"><title>v40</title>
<ellipse fill="none" stroke="black" cx="68.5" cy="-234" rx="27" ry="18"/>
<text text-anchor="middle" x="68.5" y="-230.3" font-family="Times,serif" font-size="14.00">40</text>
</g>
<!-- v35&#45;&gt;v40 -->
<g id="edge12" class="edge"><title>v35&#45;&gt;v40</title>
<path fill="none" stroke="black" d="M197.865,-294.971C172.076,-283.015 128.789,-262.949 99.4603,-249.352"/>
<polygon fill="black" stroke="black" points="100.639,-246.041 90.0945,-245.011 97.695,-252.392 100.639,-246.041"/>
</g>
<!-- p6 -->
<g id="node20" class="node"><title>p6</title>
<path fill="none" stroke="black" d="M162,-252C162,-252 127,-252 127,-252 121,-252 115,-246 115,-240 115,-240 115,-228 115,-228 115,-222 121,-216 127,-216 127,-216 162,-216 162,-216 168,-216 174,-222 174,-228 174,-228 174,-240 174,-240 174,-246 168,-252 162,-252"/>
<text text-anchor="middle" x="144.5" y="-230.3" font-family="Times,serif" font-size="14.00">path (2)</text>
</g>
<!-- v35&#45;&gt;p6 -->
<g id="edge9" class="edge"><title>v35&#45;&gt;p6</title>
<path fill="none" stroke="black" d="M204.323,-290.834C194.585,-281.746 181.69,-269.71 170.366,-259.141"/>
<polygon fill="black" stroke="black" points="172.534,-256.377 162.835,-252.113 167.758,-261.495 172.534,-256.377"/>
</g>
<!-- v52 -->
<g id="node24" class="node"><title>v52</title>
<ellipse fill="none" stroke="black" cx="219.5" cy="-234" rx="27" ry="18"/>
<text text-anchor="middle" x="219.5" y="-230.3" font-family="Times,serif" font-size="14.00">52</text>
</g>
<!-- v35&#45;&gt;v52 -->
<g id="edge10" class="edge"><title>v35&#45;&gt;v52</title>
<path fill="none" stroke="black" d="M219.5,-287.697C219.5,-279.983 219.5,-270.712 219.5,-262.112"/>
<polygon fill="black" stroke="black" points="223,-262.104 219.5,-252.104 216,-262.104 223,-262.104"/>
</g>
<!-- v57 -->
<g id="node26" class="node"><title>v57</title>
<ellipse fill="none" stroke="black" cx="296.5" cy="-234" rx="27" ry="18"/>
<text text-anchor="middle" x="296.5" y="-230.3" font-family="Times,serif" font-size="14.00">57</text>
</g>
<!-- v35&#45;&gt;v57 -->
<g id="edge5" class="edge"><title>v35&#45;&gt;v57</title>
<path fill="none" stroke="black" d="M235.082,-290.834C246.113,-280.806 261.09,-267.191 273.493,-255.916"/>
<polygon fill="black" stroke="black" points="276.159,-258.222 281.204,-248.906 271.45,-253.043 276.159,-258.222"/>
</g>
<!-- v60 -->
<g id="node28" class="node"><title>v60</title>
<ellipse fill="none" stroke="black" cx="67.5" cy="-162" rx="27" ry="18"/>
<text text-anchor="middle" x="67.5" y="-158.3" font-family="Times,serif" font-size="14.00">60</text>
</g>
<!-- v40&#45;&gt;v60 -->
<g id="edge2" class="edge"><title>v40&#45;&gt;v60</title>
<path fill="none" stroke="black" d="M68.2528,-215.697C68.1426,-207.983 68.0102,-198.712 67.8873,-190.112"/>
<polygon fill="black" stroke="black" points="71.3869,-190.053 67.7443,-180.104 64.3876,-190.153 71.3869,-190.053"/>
</g>
<!-- p5 -->
<g id="node19" class="node"><title>p5</title>
<path fill="none" stroke="black" d="M124,-108C124,-108 89,-108 89,-108 83,-108 77,-102 77,-96 77,-96 77,-84 77,-84 77,-78 83,-72 89,-72 89,-72 124,-72 124,-72 130,-72 136,-78 136,-84 136,-84 136,-96 136,-96 136,-102 130,-108 124,-108"/>
<text text-anchor="middle" x="106.5" y="-86.3" font-family="Times,serif" font-size="14.00">path (5)</text>
</g>
<!-- p9 -->
<g id="node23" class="node"><title>p9</title>
<path fill="none" stroke="black" d="M160,-180C160,-180 125,-180 125,-180 119,-180 113,-174 113,-168 113,-168 113,-156 113,-156 113,-150 119,-144 125,-144 125,-144 160,-144 160,-144 166,-144 172,-150 172,-156 172,-156 172,-168 172,-168 172,-174 166,-180 160,-180"/>
<text text-anchor="middle" x="142.5" y="-158.3" font-family="Times,serif" font-size="14.00">path (3)</text>
</g>
<!-- v52&#45;&gt;p9 -->
<g id="edge26" class="edge"><title>v52&#45;&gt;p9</title>
<path fill="none" stroke="black" d="M203.918,-218.834C193.921,-209.746 180.682,-197.71 169.055,-187.141"/>
<polygon fill="black" stroke="black" points="171.078,-184.25 161.324,-180.113 166.369,-189.429 171.078,-184.25"/>
</g>
<!-- p13 -->
<g id="node31" class="node"><title>p13</title>
<path fill="none" stroke="black" d="M237,-180C237,-180 202,-180 202,-180 196,-180 190,-174 190,-168 190,-168 190,-156 190,-156 190,-150 196,-144 202,-144 202,-144 237,-144 237,-144 243,-144 249,-150 249,-156 249,-156 249,-168 249,-168 249,-174 243,-180 237,-180"/>
<text text-anchor="middle" x="219.5" y="-158.3" font-family="Times,serif" font-size="14.00">path (4)</text>
</g>
<!-- v52&#45;&gt;p13 -->
<g id="edge32" class="edge"><title>v52&#45;&gt;p13</title>
<path fill="none" stroke="black" d="M219.5,-215.697C219.5,-207.983 219.5,-198.712 219.5,-190.112"/>
<polygon fill="black" stroke="black" points="223,-190.104 219.5,-180.104 216,-190.104 223,-190.104"/>
</g>
<!-- p10 -->
<g id="node25" class="node"><title>p10</title>
<path fill="none" stroke="black" d="M314,-180C314,-180 279,-180 279,-180 273,-180 267,-174 267,-168 267,-168 267,-156 267,-156 267,-150 273,-144 279,-144 279,-144 314,-144 314,-144 320,-144 326,-150 326,-156 326,-156 326,-168 326,-168 326,-174 320,-180 314,-180"/>
<text text-anchor="middle" x="296.5" y="-158.3" font-family="Times,serif" font-size="14.00">path (5)</text>
</g>
<!-- v57&#45;&gt;p10 -->
<g id="edge14" class="edge"><title>v57&#45;&gt;p10</title>
<path fill="none" stroke="black" d="M296.5,-215.697C296.5,-207.983 296.5,-198.712 296.5,-190.112"/>
<polygon fill="black" stroke="black" points="300,-190.104 296.5,-180.104 293,-190.104 300,-190.104"/>
</g>
<!-- p12 -->
<g id="node30" class="node"><title>p12</title>
<path fill="none" stroke="black" d="M391,-180C391,-180 356,-180 356,-180 350,-180 344,-174 344,-168 344,-168 344,-156 344,-156 344,-150 350,-144 356,-144 356,-144 391,-144 391,-144 397,-144 403,-150 403,-156 403,-156 403,-168 403,-168 403,-174 397,-180 391,-180"/>
<text text-anchor="middle" x="373.5" y="-158.3" font-family="Times,serif" font-size="14.00">path (8)</text>
</g>
<!-- v57&#45;&gt;p12 -->
<g id="edge27" class="edge"><title>v57&#45;&gt;p12</title>
<path fill="none" stroke="black" d="M312.082,-218.834C322.079,-209.746 335.318,-197.71 346.945,-187.141"/>
<polygon fill="black" stroke="black" points="349.631,-189.429 354.676,-180.113 344.922,-184.25 349.631,-189.429"/>
</g>
<!-- p11 -->
<g id="node27" class="node"><title>p11</title>
<path fill="none" stroke="black" d="M468,-180C468,-180 433,-180 433,-180 427,-180 421,-174 421,-168 421,-168 421,-156 421,-156 421,-150 427,-144 433,-144 433,-144 468,-144 468,-144 474,-144 480,-150 480,-156 480,-156 480,-168 480,-168 480,-174 474,-180 468,-180"/>
<text text-anchor="middle" x="450.5" y="-158.3" font-family="Times,serif" font-size="14.00">path (2)</text>
</g>
<!-- v60&#45;&gt;p0 -->
<g id="edge25" class="edge"><title>v60&#45;&gt;p0</title>
<path fill="none" stroke="black" d="M58.6865,-144.765C54.2138,-136.525 48.6719,-126.317 43.6228,-117.016"/>
<polygon fill="black" stroke="black" points="46.6428,-115.243 38.7958,-108.124 40.4908,-118.582 46.6428,-115.243"/>
</g>
<!-- v60&#45;&gt;p5 -->
<g id="edge16" class="edge"><title>v60&#45;&gt;p5</title>
<path fill="none" stroke="black" d="M76.5454,-144.765C81.1358,-136.525 86.8236,-126.317 92.0056,-117.016"/>
<polygon fill="black" stroke="black" points="95.1499,-118.563 96.9595,-108.124 89.035,-115.156 95.1499,-118.563"/>
</g>
<!-- v63&#45;&gt;p11 -->
<g id="edge28" class="edge"><title>v63&#45;&gt;p11</title>
<path fill="none" stroke="black" d="M450.5,-215.697C450.5,-207.983 450.5,-198.712 450.5,-190.112"/>
<polygon fill="black" stroke="black" points="454,-190.104 450.5,-180.104 447,-190.104 454,-190.104"/>
</g>
<!-- v92 -->
<g id="node32" class="node"><title>v92</title>
<ellipse fill="none" stroke="black" cx="525.5" cy="-162" rx="27" ry="18"/>
<text text-anchor="middle" x="525.5" y="-158.3" font-family="Times,serif" font-size="14.00">92</text>
</g>
<!-- v63&#45;&gt;v92 -->
<g id="edge4" class="edge"><title>v63&#45;&gt;v92</title>
<path fill="none" stroke="black" d="M465.677,-218.834C476.351,-208.872 490.819,-195.369 502.853,-184.137"/>
<polygon fill="black" stroke="black" points="505.423,-186.526 510.345,-177.144 500.646,-181.409 505.423,-186.526"/>
</g>
<!-- p13&#45;&gt;v14 -->
<g id="edge11" class="edge"><title>p13&#45;&gt;v14</title>
<path fill="none" stroke="black" d="M219.5,-143.697C219.5,-135.983 219.5,-126.712 219.5,-118.112"/>
<polygon fill="black" stroke="black" points="223,-118.104 219.5,-108.104 216,-118.104 223,-118.104"/>
</g>
</g>
</svg>
