<?xml version="1.0" encoding="UTF-8" standalone="no"?>
<!DOCTYPE svg PUBLIC "-//W3C//DTD SVG 1.1//EN"
 "http://www.w3.org/Graphics/SVG/1.1/DTD/svg11.dtd">
<!-- Generated by graphviz version 2.38.0 (20140413.2041)
 -->
<!-- Title: %3 Pages: 1 -->
<svg width="425pt" height="764pt"
 viewBox="0.00 0.00 425.00 764.00" xmlns="http://www.w3.org/2000/svg" xmlns:xlink="http://www.w3.org/1999/xlink">
<g id="graph0" class="graph" transform="scale(1 1) rotate(0) translate(4 760)">
<title>%3</title>
<polygon fill="white" stroke="none" points="-4,4 -4,-760 421,-760 421,4 -4,4"/>
<!-- v0 -->
<g id="node1" class="node"><title>v0</title>
<ellipse fill="none" stroke="black" cx="68.5" cy="-18" rx="27" ry="18"/>
<text text-anchor="middle" x="68.5" y="-14.3" font-family="Times,serif" font-size="14.00">0</text>
</g>
<!-- p0 -->
<g id="node2" class="node"><title>p0</title>
<path fill="none" stroke="black" d="M122,-180C122,-180 87,-180 87,-180 81,-180 75,-174 75,-168 75,-168 75,-156 75,-156 75,-150 81,-144 87,-144 87,-144 122,-144 122,-144 128,-144 134,-150 134,-156 134,-156 134,-168 134,-168 134,-174 128,-180 122,-180"/>
<text text-anchor="middle" x="104.5" y="-158.3" font-family="Times,serif" font-size="14.00">path (9)</text>
</g>
<!-- v3 -->
<g id="node3" class="node"><title>v3</title>
<ellipse fill="none" stroke="black" cx="104.5" cy="-90" rx="27" ry="18"/>
<text text-anchor="middle" x="104.5" y="-86.3" font-family="Times,serif" font-size="14.00">3</text>
</g>
<!-- p0&#45;&gt;v3 -->
<g id="edge23" class="edge"><title>p0&#45;&gt;v3</title>
<path fill="none" stroke="black" d="M104.5,-143.697C104.5,-135.983 104.5,-126.712 104.5,-118.112"/>
<polygon fill="black" stroke="black" points="108,-118.104 104.5,-108.104 101,-118.104 108,-118.104"/>
</g>
<!-- v3&#45;&gt;v0 -->
<g id="edge2" class="edge"><title>v3&#45;&gt;v0</title>
<path fill="none" stroke="black" d="M96.1504,-72.7646C91.7885,-64.2831 86.3531,-53.7144 81.4587,-44.1974"/>
<polygon fill="black" stroke="black" points="84.4904,-42.4395 76.8043,-35.1473 78.2654,-45.6409 84.4904,-42.4395"/>
</g>
<!-- v4 -->
<g id="node4" class="node"><title>v4</title>
<ellipse fill="none" stroke="black" cx="140.5" cy="-18" rx="27" ry="18"/>
<text text-anchor="middle" x="140.5" y="-14.3" font-family="Times,serif" font-size="14.00">4</text>
</g>
<!-- v3&#45;&gt;v4 -->
<g id="edge25" class="edge"><title>v3&#45;&gt;v4</title>
<path fill="none" stroke="black" d="M112.85,-72.7646C117.212,-64.2831 122.647,-53.7144 127.541,-44.1974"/>
<polygon fill="black" stroke="black" points="130.735,-45.6409 132.196,-35.1473 124.51,-42.4395 130.735,-45.6409"/>
</g>
<!-- p1 -->
<g id="node5" class="node"><title>p1</title>
<path fill="none" stroke="black" d="M199,-180C199,-180 164,-180 164,-180 158,-180 152,-174 152,-168 152,-168 152,-156 152,-156 152,-150 158,-144 164,-144 164,-144 199,-144 199,-144 205,-144 211,-150 211,-156 211,-156 211,-168 211,-168 211,-174 205,-180 199,-180"/>
<text text-anchor="middle" x="181.5" y="-158.3" font-family="Times,serif" font-size="14.00">path (4)</text>
</g>
<!-- v8 -->
<g id="node6" class="node"><title>v8</title>
<ellipse fill="none" stroke="black" cx="181.5" cy="-522" rx="27" ry="18"/>
<text text-anchor="middle" x="181.5" y="-518.3" font-family="Times,serif" font-size="14.00">8</text>
</g>
<!-- v9 -->
<g id="node7" class="node"><title>v9</title>
<ellipse fill="none" stroke="black" cx="144.5" cy="-450" rx="27" ry="18"/>
<text text-anchor="middle" x="144.5" y="-446.3" font-family="Times,serif" font-size="14.00">9</text>
</g>
<!-- v8&#45;&gt;v9 -->
<g id="edge6" class="edge"><title>v8&#45;&gt;v9</title>
<path fill="none" stroke="black" d="M172.918,-504.765C168.435,-496.283 162.849,-485.714 157.819,-476.197"/>
<polygon fill="black" stroke="black" points="160.802,-474.353 153.035,-467.147 154.614,-477.624 160.802,-474.353"/>
</g>
<!-- p3 -->
<g id="node13" class="node"><title>p3</title>
<path fill="none" stroke="black" d="M237,-468C237,-468 202,-468 202,-468 196,-468 190,-462 190,-456 190,-456 190,-444 190,-444 190,-438 196,-432 202,-432 202,-432 237,-432 237,-432 243,-432 249,-438 249,-444 249,-444 249,-456 249,-456 249,-462 243,-468 237,-468"/>
<text text-anchor="middle" x="219.5" y="-446.3" font-family="Times,serif" font-size="14.00">path (6)</text>
</g>
<!-- v8&#45;&gt;p3 -->
<g id="edge15" class="edge"><title>v8&#45;&gt;p3</title>
<path fill="none" stroke="black" d="M190.313,-504.765C194.786,-496.525 200.328,-486.317 205.377,-477.016"/>
<polygon fill="black" stroke="black" points="208.509,-478.582 210.204,-468.124 202.357,-475.243 208.509,-478.582"/>
</g>
<!-- v10 -->
<g id="node8" class="node"><title>v10</title>
<ellipse fill="none" stroke="black" cx="218.5" cy="-738" rx="27" ry="18"/>
<text text-anchor="middle" x="218.5" y="-734.3" font-family="Times,serif" font-size="14.00">10</text>
</g>
<!-- v28 -->
<g id="node16" class="node"><title>v28</title>
<ellipse fill="none" stroke="black" cx="218.5" cy="-666" rx="27" ry="18"/>
<text text-anchor="middle" x="218.5" y="-662.3" font-family="Times,serif" font-size="14.00">28</text>
</g>
<!-- v10&#45;&gt;v28 -->
<g id="edge22" class="edge"><title>v10&#45;&gt;v28</title>
<path fill="none" stroke="black" d="M218.5,-719.697C218.5,-711.983 218.5,-702.712 218.5,-694.112"/>
<polygon fill="black" stroke="black" points="222,-694.104 218.5,-684.104 215,-694.104 222,-694.104"/>
</g>
<!-- v11 -->
<g id="node9" class="node"><title>v11</title>
<ellipse fill="none" stroke="black" cx="253.5" cy="-522" rx="27" ry="18"/>
<text text-anchor="middle" x="253.5" y="-518.3" font-family="Times,serif" font-size="14.00">11</text>
</g>
<!-- v13 -->
<g id="node10" class="node"><title>v13</title>
<ellipse fill="none" stroke="black" cx="219.5" cy="-378" rx="27" ry="18"/>
<text text-anchor="middle" x="219.5" y="-374.3" font-family="Times,serif" font-size="14.00">13</text>
</g>
<!-- p2 -->
<g id="node11" class="node"><title>p2</title>
<path fill="none" stroke="black" d="M160,-324C160,-324 125,-324 125,-324 119,-324 113,-318 113,-312 113,-312 113,-300 113,-300 113,-294 119,-288 125,-288 125,-288 160,-288 160,-288 166,-288 172,-294 172,-300 172,-300 172,-312 172,-312 172,-318 166,-324 160,-324"/>
<text text-anchor="middle" x="142.5" y="-302.3" font-family="Times,serif" font-size="14.00">path (6)</text>
</g>
<!-- v13&#45;&gt;p2 -->
<g id="edge10" class="edge"><title>v13&#45;&gt;p2</title>
<path fill="none" stroke="black" d="M203.918,-362.834C193.921,-353.746 180.682,-341.71 169.055,-331.141"/>
<polygon fill="black" stroke="black" points="171.078,-328.25 161.324,-324.113 166.369,-333.429 171.078,-328.25"/>
</g>
<!-- p4 -->
<g id="node15" class="node"><title>p4</title>
<path fill="none" stroke="black" d="M237,-324C237,-324 202,-324 202,-324 196,-324 190,-318 190,-312 190,-312 190,-300 190,-300 190,-294 196,-288 202,-288 202,-288 237,-288 237,-288 243,-288 249,-294 249,-300 249,-300 249,-312 249,-312 249,-318 243,-324 237,-324"/>
<text text-anchor="middle" x="219.5" y="-302.3" font-family="Times,serif" font-size="14.00">path (5)</text>
</g>
<!-- v13&#45;&gt;p4 -->
<g id="edge16" class="edge"><title>v13&#45;&gt;p4</title>
<path fill="none" stroke="black" d="M219.5,-359.697C219.5,-351.983 219.5,-342.712 219.5,-334.112"/>
<polygon fill="black" stroke="black" points="223,-334.104 219.5,-324.104 216,-334.104 223,-334.104"/>
</g>
<!-- v46 -->
<g id="node21" class="node"><title>v46</title>
<ellipse fill="none" stroke="black" cx="294.5" cy="-306" rx="27" ry="18"/>
<text text-anchor="middle" x="294.5" y="-302.3" font-family="Times,serif" font-size="14.00">46</text>
</g>
<!-- v13&#45;&gt;v46 -->
<g id="edge12" class="edge"><title>v13&#45;&gt;v46</title>
<path fill="none" stroke="black" d="M234.677,-362.834C245.351,-352.872 259.819,-339.369 271.853,-328.137"/>
<polygon fill="black" stroke="black" points="274.423,-330.526 279.345,-321.144 269.646,-325.409 274.423,-330.526"/>
</g>
<!-- v15 -->
<g id="node12" class="node"><title>v15</title>
<ellipse fill="none" stroke="black" cx="142.5" cy="-234" rx="27" ry="18"/>
<text text-anchor="middle" x="142.5" y="-230.3" font-family="Times,serif" font-size="14.00">15</text>
</g>
<!-- p2&#45;&gt;v15 -->
<g id="edge21" class="edge"><title>p2&#45;&gt;v15</title>
<path fill="none" stroke="black" d="M142.5,-287.697C142.5,-279.983 142.5,-270.712 142.5,-262.112"/>
<polygon fill="black" stroke="black" points="146,-262.104 142.5,-252.104 139,-262.104 146,-262.104"/>
</g>
<!-- v15&#45;&gt;p0 -->
<g id="edge8" class="edge"><title>v15&#45;&gt;p0</title>
<path fill="none" stroke="black" d="M133.687,-216.765C129.214,-208.525 123.672,-198.317 118.623,-189.016"/>
<polygon fill="black" stroke="black" points="121.643,-187.243 113.796,-180.124 115.491,-190.582 121.643,-187.243"/>
</g>
<!-- v15&#45;&gt;p1 -->
<g id="edge14" class="edge"><title>v15&#45;&gt;p1</title>
<path fill="none" stroke="black" d="M151.545,-216.765C156.136,-208.525 161.824,-198.317 167.006,-189.016"/>
<polygon fill="black" stroke="black" points="170.15,-190.563 171.96,-180.124 164.035,-187.156 170.15,-190.563"/>
</g>
<!-- p3&#45;&gt;v13 -->
<g id="edge18" class="edge"><title>p3&#45;&gt;v13</title>
<path fill="none" stroke="black" d="M219.5,-431.697C219.5,-423.983 219.5,-414.712 219.5,-406.112"/>
<polygon fill="black" stroke="black" points="223,-406.104 219.5,-396.104 216,-406.104 223,-406.104"/>
</g>
<!-- v23 -->
<g id="node14" class="node"><title>v23</title>
<ellipse fill="none" stroke="black" cx="106.5" cy="-594" rx="27" ry="18"/>
<text text-anchor="middle" x="106.5" y="-590.3" font-family="Times,serif" font-size="14.00">23</text>
</g>
<!-- p5 -->
<g id="node18" class="node"><title>p5</title>
<path fill="none" stroke="black" d="M47,-540C47,-540 12,-540 12,-540 6,-540 0,-534 0,-528 0,-528 0,-516 0,-516 0,-510 6,-504 12,-504 12,-504 47,-504 47,-504 53,-504 59,-510 59,-516 59,-516 59,-528 59,-528 59,-534 53,-540 47,-540"/>
<text text-anchor="middle" x="29.5" y="-518.3" font-family="Times,serif" font-size="14.00">path (2)</text>
</g>
<!-- v23&#45;&gt;p5 -->
<g id="edge17" class="edge"><title>v23&#45;&gt;p5</title>
<path fill="none" stroke="black" d="M90.9179,-578.834C80.9205,-569.746 67.6815,-557.71 56.0555,-547.141"/>
<polygon fill="black" stroke="black" points="58.0778,-544.25 48.324,-540.113 53.3691,-549.429 58.0778,-544.25"/>
</g>
<!-- p6 -->
<g id="node19" class="node"><title>p6</title>
<path fill="none" stroke="black" d="M124,-540C124,-540 89,-540 89,-540 83,-540 77,-534 77,-528 77,-528 77,-516 77,-516 77,-510 83,-504 89,-504 89,-504 124,-504 124,-504 130,-504 136,-510 136,-516 136,-516 136,-528 136,-528 136,-534 130,-540 124,-540"/>
<text text-anchor="middle" x="106.5" y="-518.3" font-family="Times,serif" font-size="14.00">path (9)</text>
</g>
<!-- v23&#45;&gt;p6 -->
<g id="edge5" class="edge"><title>v23&#45;&gt;p6</title>
<path fill="none" stroke="black" d="M106.5,-575.697C106.5,-567.983 106.5,-558.712 106.5,-550.112"/>
<polygon fill="black" stroke="black" points="110,-550.104 106.5,-540.104 103,-550.104 110,-550.104"/>
</g>
<!-- v28&#45;&gt;v23 -->
<g id="edge11" class="edge"><title>v28&#45;&gt;v23</title>
<path fill="none" stroke="black" d="M199.501,-653.125C181.56,-641.913 154.449,-624.968 134.12,-612.263"/>
<polygon fill="black" stroke="black" points="135.927,-609.265 125.592,-606.933 132.217,-615.201 135.927,-609.265"/>
</g>
<!-- v30 -->
<g id="node17" class="node"><title>v30</title>
<ellipse fill="none" stroke="black" cx="181.5" cy="-594" rx="27" ry="18"/>
<text text-anchor="middle" x="181.5" y="-590.3" font-family="Times,serif" font-size="14.00">30</text>
</g>
<!-- v28&#45;&gt;v30 -->
<g id="edge9" class="edge"><title>v28&#45;&gt;v30</title>
<path fill="none" stroke="black" d="M209.918,-648.765C205.435,-640.283 199.849,-629.714 194.819,-620.197"/>
<polygon fill="black" stroke="black" points="197.802,-618.353 190.035,-611.147 191.614,-621.624 197.802,-618.353"/>
</g>
<!-- p10 -->
<g id="node26" class="node"><title>p10</title>
<path fill="none" stroke="black" d="M274,-612C274,-612 239,-612 239,-612 233,-612 227,-606 227,-600 227,-600 227,-588 227,-588 227,-582 233,-576 239,-576 239,-576 274,-576 274,-576 280,-576 286,-582 286,-588 286,-588 286,-600 286,-600 286,-606 280,-612 274,-612"/>
<text text-anchor="middle" x="256.5" y="-590.3" font-family="Times,serif" font-size="14.00">path (3)</text>
</g>
<!-- v28&#45;&gt;p10 -->
<g id="edge26" class="edge"><title>v28&#45;&gt;p10</title>
<path fill="none" stroke="black" d="M227.313,-648.765C231.786,-640.525 237.328,-630.317 242.377,-621.016"/>
<polygon fill="black" stroke="black" points="245.509,-622.582 247.204,-612.124 239.357,-619.243 245.509,-622.582"/>
</g>
<!-- v71 -->
<g id="node27" class="node"><title>v71</title>
<ellipse fill="none" stroke="black" cx="331.5" cy="-594" rx="27" ry="18"/>
<text text-anchor="middle" x="331.5" y="-590.3" font-family="Times,serif" font-size="14.00">71</text>
</g>
<!-- v28&#45;&gt;v71 -->
<g id="edge7" class="edge"><title>v28&#45;&gt;v71</title>
<path fill="none" stroke="black" d="M237.669,-653.125C255.77,-641.913 283.123,-624.968 303.633,-612.263"/>
<polygon fill="black" stroke="black" points="305.579,-615.174 312.237,-606.933 301.893,-609.224 305.579,-615.174"/>
</g>
<!-- v30&#45;&gt;v8 -->
<g id="edge4" class="edge"><title>v30&#45;&gt;v8</title>
<path fill="none" stroke="black" d="M181.5,-575.697C181.5,-567.983 181.5,-558.712 181.5,-550.112"/>
<polygon fill="black" stroke="black" points="185,-550.104 181.5,-540.104 178,-550.104 185,-550.104"/>
</g>
<!-- v30&#45;&gt;v11 -->
<g id="edge24" class="edge"><title>v30&#45;&gt;v11</title>
<path fill="none" stroke="black" d="M196.07,-578.834C206.25,-568.938 220.024,-555.546 231.531,-544.359"/>
<polygon fill="black" stroke="black" points="233.974,-546.865 238.704,-537.385 229.095,-541.846 233.974,-546.865"/>
</g>
<!-- v44 -->
<g id="node20" class="node"><title>v44</title>
<ellipse fill="none" stroke="black" cx="312.5" cy="-450" rx="27" ry="18"/>
<text text-anchor="middle" x="312.5" y="-446.3" font-family="Times,serif" font-size="14.00">44</text>
</g>
<!-- p8 -->
<g id="node23" class="node"><title>p8</title>
<path fill="none" stroke="black" d="M273,-252C273,-252 238,-252 238,-252 232,-252 226,-246 226,-240 226,-240 226,-228 226,-228 226,-222 232,-216 238,-216 238,-216 273,-216 273,-216 279,-216 285,-222 285,-228 285,-228 285,-240 285,-240 285,-246 279,-252 273,-252"/>
<text text-anchor="middle" x="255.5" y="-230.3" font-family="Times,serif" font-size="14.00">path (5)</text>
</g>
<!-- v46&#45;&gt;p8 -->
<g id="edge1" class="edge"><title>v46&#45;&gt;p8</title>
<path fill="none" stroke="black" d="M285.455,-288.765C280.864,-280.525 275.176,-270.317 269.994,-261.016"/>
<polygon fill="black" stroke="black" points="272.965,-259.156 265.04,-252.124 266.85,-262.563 272.965,-259.156"/>
</g>
<!-- p9 -->
<g id="node25" class="node"><title>p9</title>
<path fill="none" stroke="black" d="M350,-252C350,-252 315,-252 315,-252 309,-252 303,-246 303,-240 303,-240 303,-228 303,-228 303,-222 309,-216 315,-216 315,-216 350,-216 350,-216 356,-216 362,-222 362,-228 362,-228 362,-240 362,-240 362,-246 356,-252 350,-252"/>
<text text-anchor="middle" x="332.5" y="-230.3" font-family="Times,serif" font-size="14.00">path (4)</text>
</g>
<!-- v46&#45;&gt;p9 -->
<g id="edge19" class="edge"><title>v46&#45;&gt;p9</title>
<path fill="none" stroke="black" d="M303.313,-288.765C307.786,-280.525 313.328,-270.317 318.377,-261.016"/>
<polygon fill="black" stroke="black" points="321.509,-262.582 323.204,-252.124 315.357,-259.243 321.509,-262.582"/>
</g>
<!-- p7 -->
<g id="node22" class="node"><title>p7</title>
<path fill="none" stroke="black" d="M405,-468C405,-468 370,-468 370,-468 364,-468 358,-462 358,-456 358,-456 358,-444 358,-444 358,-438 364,-432 370,-432 370,-432 405,-432 405,-432 411,-432 417,-438 417,-444 417,-444 417,-456 417,-456 417,-462 411,-468 405,-468"/>
<text text-anchor="middle" x="387.5" y="-446.3" font-family="Times,serif" font-size="14.00">path (3)</text>
</g>
<!-- v63 -->
<g id="node24" class="node"><title>v63</title>
<ellipse fill="none" stroke="black" cx="331.5" cy="-522" rx="27" ry="18"/>
<text text-anchor="middle" x="331.5" y="-518.3" font-family="Times,serif" font-size="14.00">63</text>
</g>
<!-- v63&#45;&gt;v44 -->
<g id="edge3" class="edge"><title>v63&#45;&gt;v44</title>
<path fill="none" stroke="black" d="M326.901,-504.055C324.754,-496.145 322.147,-486.54 319.744,-477.688"/>
<polygon fill="black" stroke="black" points="323.054,-476.523 317.057,-467.789 316.299,-478.357 323.054,-476.523"/>
</g>
<!-- v63&#45;&gt;p7 -->
<g id="edge20" class="edge"><title>v63&#45;&gt;p7</title>
<path fill="none" stroke="black" d="M343.651,-505.811C350.587,-497.141 359.458,-486.052 367.404,-476.12"/>
<polygon fill="black" stroke="black" points="370.285,-478.122 373.799,-468.127 364.819,-473.749 370.285,-478.122"/>
</g>
<!-- v71&#45;&gt;v63 -->
<g id="edge13" class="edge"><title>v71&#45;&gt;v63</title>
<path fill="none" stroke="black" d="M331.5,-575.697C331.5,-567.983 331.5,-558.712 331.5,-550.112"/>
<polygon fill="black" stroke="black" points="335,-550.104 331.5,-540.104 328,-550.104 335,-550.104"/>
</g>
</g>
</svg>
