<?xml version="1.0" encoding="UTF-8" standalone="no"?>
<!DOCTYPE svg PUBLIC "-//W3C//DTD SVG 1.1//EN"
 "http://www.w3.org/Graphics/SVG/1.1/DTD/svg11.dtd">
<!-- Generated by graphviz version 2.38.0 (20140413.2041)
 -->
<!-- Title: %3 Pages: 1 -->
<svg width="358pt" height="332pt"
 viewBox="0.00 0.00 358.00 332.00" xmlns="http://www.w3.org/2000/svg" xmlns:xlink="http://www.w3.org/1999/xlink">
<g id="graph0" class="graph" transform="scale(1 1) rotate(0) translate(4 328)">
<title>%3</title>
<polygon fill="white" stroke="none" points="-4,4 -4,-328 354,-328 354,4 -4,4"/>
<!-- p0 -->
<g id="node1" class="node"><title>p0</title>
<path fill="none" stroke="black" d="M193.5,-36C193.5,-36 158.5,-36 158.5,-36 152.5,-36 146.5,-30 146.5,-24 146.5,-24 146.5,-12 146.5,-12 146.5,-6 152.5,-0 158.5,-0 158.5,-0 193.5,-0 193.5,-0 199.5,-0 205.5,-6 205.5,-12 205.5,-12 205.5,-24 205.5,-24 205.5,-30 199.5,-36 193.5,-36"/>
<text text-anchor="middle" x="176" y="-14.3" font-family="Times,serif" font-size="14.00">path (3)</text>
</g>
<!-- p1 -->
<g id="node2" class="node"><title>p1</title>
<path fill="none" stroke="black" d="M191.5,-180C191.5,-180 156.5,-180 156.5,-180 150.5,-180 144.5,-174 144.5,-168 144.5,-168 144.5,-156 144.5,-156 144.5,-150 150.5,-144 156.5,-144 156.5,-144 191.5,-144 191.5,-144 197.5,-144 203.5,-150 203.5,-156 203.5,-156 203.5,-168 203.5,-168 203.5,-174 197.5,-180 191.5,-180"/>
<text text-anchor="middle" x="174" y="-158.3" font-family="Times,serif" font-size="14.00">path (2)</text>
</g>
<!-- v2 -->
<g id="node3" class="node"><title>v2</title>
<ellipse fill="none" stroke="black" cx="99" cy="-234" rx="27" ry="18"/>
<text text-anchor="middle" x="99" y="-230.3" font-family="Times,serif" font-size="14.00">2</text>
</g>
<!-- v4 -->
<g id="node5" class="node"><title>v4</title>
<ellipse fill="none" stroke="black" cx="27" cy="-162" rx="27" ry="18"/>
<text text-anchor="middle" x="27" y="-158.3" font-family="Times,serif" font-size="14.00">4</text>
</g>
<!-- v2&#45;&gt;v4 -->
<g id="edge8" class="edge"><title>v2&#45;&gt;v4</title>
<path fill="none" stroke="black" d="M84.4297,-218.834C74.2501,-208.938 60.4761,-195.546 48.9694,-184.359"/>
<polygon fill="black" stroke="black" points="51.4055,-181.846 41.7957,-177.385 46.5259,-186.865 51.4055,-181.846"/>
</g>
<!-- v13 -->
<g id="node10" class="node"><title>v13</title>
<ellipse fill="none" stroke="black" cx="99" cy="-162" rx="27" ry="18"/>
<text text-anchor="middle" x="99" y="-158.3" font-family="Times,serif" font-size="14.00">13</text>
</g>
<!-- v2&#45;&gt;v13 -->
<g id="edge3" class="edge"><title>v2&#45;&gt;v13</title>
<path fill="none" stroke="black" d="M99,-215.697C99,-207.983 99,-198.712 99,-190.112"/>
<polygon fill="black" stroke="black" points="102.5,-190.104 99,-180.104 95.5001,-190.104 102.5,-190.104"/>
</g>
<!-- p2 -->
<g id="node4" class="node"><title>p2</title>
<path fill="none" stroke="black" d="M268.5,-180C268.5,-180 233.5,-180 233.5,-180 227.5,-180 221.5,-174 221.5,-168 221.5,-168 221.5,-156 221.5,-156 221.5,-150 227.5,-144 233.5,-144 233.5,-144 268.5,-144 268.5,-144 274.5,-144 280.5,-150 280.5,-156 280.5,-156 280.5,-168 280.5,-168 280.5,-174 274.5,-180 268.5,-180"/>
<text text-anchor="middle" x="251" y="-158.3" font-family="Times,serif" font-size="14.00">path (2)</text>
</g>
<!-- v5 -->
<g id="node6" class="node"><title>v5</title>
<ellipse fill="none" stroke="black" cx="251" cy="-90" rx="27" ry="18"/>
<text text-anchor="middle" x="251" y="-86.3" font-family="Times,serif" font-size="14.00">5</text>
</g>
<!-- p2&#45;&gt;v5 -->
<g id="edge10" class="edge"><title>p2&#45;&gt;v5</title>
<path fill="none" stroke="black" d="M251,-143.697C251,-135.983 251,-126.712 251,-118.112"/>
<polygon fill="black" stroke="black" points="254.5,-118.104 251,-108.104 247.5,-118.104 254.5,-118.104"/>
</g>
<!-- v5&#45;&gt;p0 -->
<g id="edge5" class="edge"><title>v5&#45;&gt;p0</title>
<path fill="none" stroke="black" d="M235.823,-74.8345C226.085,-65.7459 213.19,-53.7105 201.866,-43.1413"/>
<polygon fill="black" stroke="black" points="204.034,-40.3772 194.335,-36.1127 199.258,-45.4946 204.034,-40.3772"/>
</g>
<!-- v8 -->
<g id="node8" class="node"><title>v8</title>
<ellipse fill="none" stroke="black" cx="251" cy="-18" rx="27" ry="18"/>
<text text-anchor="middle" x="251" y="-14.3" font-family="Times,serif" font-size="14.00">8</text>
</g>
<!-- v5&#45;&gt;v8 -->
<g id="edge6" class="edge"><title>v5&#45;&gt;v8</title>
<path fill="none" stroke="black" d="M251,-71.6966C251,-63.9827 251,-54.7125 251,-46.1124"/>
<polygon fill="black" stroke="black" points="254.5,-46.1043 251,-36.1043 247.5,-46.1044 254.5,-46.1043"/>
</g>
<!-- v14 -->
<g id="node11" class="node"><title>v14</title>
<ellipse fill="none" stroke="black" cx="323" cy="-18" rx="27" ry="18"/>
<text text-anchor="middle" x="323" y="-14.3" font-family="Times,serif" font-size="14.00">14</text>
</g>
<!-- v5&#45;&gt;v14 -->
<g id="edge2" class="edge"><title>v5&#45;&gt;v14</title>
<path fill="none" stroke="black" d="M265.57,-74.8345C275.75,-64.9376 289.524,-51.5462 301.031,-40.3591"/>
<polygon fill="black" stroke="black" points="303.474,-42.865 308.204,-33.3847 298.595,-37.8461 303.474,-42.865"/>
</g>
<!-- v7 -->
<g id="node7" class="node"><title>v7</title>
<ellipse fill="none" stroke="black" cx="136" cy="-306" rx="27" ry="18"/>
<text text-anchor="middle" x="136" y="-302.3" font-family="Times,serif" font-size="14.00">7</text>
</g>
<!-- v7&#45;&gt;v2 -->
<g id="edge9" class="edge"><title>v7&#45;&gt;v2</title>
<path fill="none" stroke="black" d="M127.418,-288.765C122.935,-280.283 117.349,-269.714 112.319,-260.197"/>
<polygon fill="black" stroke="black" points="115.302,-258.353 107.535,-251.147 109.114,-261.624 115.302,-258.353"/>
</g>
<!-- v9 -->
<g id="node9" class="node"><title>v9</title>
<ellipse fill="none" stroke="black" cx="174" cy="-234" rx="27" ry="18"/>
<text text-anchor="middle" x="174" y="-230.3" font-family="Times,serif" font-size="14.00">9</text>
</g>
<!-- v7&#45;&gt;v9 -->
<g id="edge7" class="edge"><title>v7&#45;&gt;v9</title>
<path fill="none" stroke="black" d="M144.813,-288.765C149.418,-280.283 155.155,-269.714 160.321,-260.197"/>
<polygon fill="black" stroke="black" points="163.539,-261.606 165.234,-251.147 157.387,-258.266 163.539,-261.606"/>
</g>
<!-- v9&#45;&gt;p1 -->
<g id="edge4" class="edge"><title>v9&#45;&gt;p1</title>
<path fill="none" stroke="black" d="M174,-215.697C174,-207.983 174,-198.712 174,-190.112"/>
<polygon fill="black" stroke="black" points="177.5,-190.104 174,-180.104 170.5,-190.104 177.5,-190.104"/>
</g>
<!-- v9&#45;&gt;p2 -->
<g id="edge1" class="edge"><title>v9&#45;&gt;p2</title>
<path fill="none" stroke="black" d="M189.582,-218.834C199.579,-209.746 212.818,-197.71 224.445,-187.141"/>
<polygon fill="black" stroke="black" points="227.131,-189.429 232.176,-180.113 222.422,-184.25 227.131,-189.429"/>
</g>
</g>
</svg>
