<?xml version="1.0" encoding="UTF-8" standalone="no"?>
<!DOCTYPE svg PUBLIC "-//W3C//DTD SVG 1.1//EN"
 "http://www.w3.org/Graphics/SVG/1.1/DTD/svg11.dtd">
<!-- Generated by graphviz version 2.38.0 (20140413.2041)
 -->
<!-- Title: %3 Pages: 1 -->
<svg width="857pt" height="476pt"
 viewBox="0.00 0.00 857.00 476.00" xmlns="http://www.w3.org/2000/svg" xmlns:xlink="http://www.w3.org/1999/xlink">
<g id="graph0" class="graph" transform="scale(1 1) rotate(0) translate(4 472)">
<title>%3</title>
<polygon fill="white" stroke="none" points="-4,4 -4,-472 853,-472 853,4 -4,4"/>
<!-- p0 -->
<g id="node1" class="node"><title>p0</title>
<path fill="none" stroke="black" d="M159,-252C159,-252 124,-252 124,-252 118,-252 112,-246 112,-240 112,-240 112,-228 112,-228 112,-222 118,-216 124,-216 124,-216 159,-216 159,-216 165,-216 171,-222 171,-228 171,-228 171,-240 171,-240 171,-246 165,-252 159,-252"/>
<text text-anchor="middle" x="141.5" y="-230.3" font-family="Times,serif" font-size="14.00">path (2)</text>
</g>
<!-- v27 -->
<g id="node21" class="node"><title>v27</title>
<ellipse fill="none" stroke="black" cx="104.5" cy="-162" rx="27" ry="18"/>
<text text-anchor="middle" x="104.5" y="-158.3" font-family="Times,serif" font-size="14.00">27</text>
</g>
<!-- p0&#45;&gt;v27 -->
<g id="edge1" class="edge"><title>p0&#45;&gt;v27</title>
<path fill="none" stroke="black" d="M132.354,-215.697C127.97,-207.403 122.636,-197.311 117.813,-188.187"/>
<polygon fill="black" stroke="black" points="120.801,-186.35 113.034,-179.145 114.612,-189.621 120.801,-186.35"/>
</g>
<!-- v1 -->
<g id="node2" class="node"><title>v1</title>
<ellipse fill="none" stroke="black" cx="375.5" cy="-306" rx="27" ry="18"/>
<text text-anchor="middle" x="375.5" y="-302.3" font-family="Times,serif" font-size="14.00">1</text>
</g>
<!-- v1&#45;&gt;p0 -->
<g id="edge12" class="edge"><title>v1&#45;&gt;p0</title>
<path fill="none" stroke="black" d="M350.209,-299.372C312.676,-290.742 240.236,-273.012 180.5,-252 180.404,-251.966 180.308,-251.932 180.212,-251.899"/>
<polygon fill="black" stroke="black" points="181.723,-248.729 171.132,-248.447 179.236,-255.272 181.723,-248.729"/>
</g>
<!-- v3 -->
<g id="node4" class="node"><title>v3</title>
<ellipse fill="none" stroke="black" cx="216.5" cy="-234" rx="27" ry="18"/>
<text text-anchor="middle" x="216.5" y="-230.3" font-family="Times,serif" font-size="14.00">3</text>
</g>
<!-- v1&#45;&gt;v3 -->
<g id="edge2" class="edge"><title>v1&#45;&gt;v3</title>
<path fill="none" stroke="black" d="M353.179,-295.654C328.457,-285.239 287.469,-267.785 252.5,-252 250.705,-251.19 248.863,-250.349 247.007,-249.495"/>
<polygon fill="black" stroke="black" points="248.307,-246.239 237.764,-245.189 245.351,-252.585 248.307,-246.239"/>
</g>
<!-- p4 -->
<g id="node8" class="node"><title>p4</title>
<path fill="none" stroke="black" d="M309,-252C309,-252 274,-252 274,-252 268,-252 262,-246 262,-240 262,-240 262,-228 262,-228 262,-222 268,-216 274,-216 274,-216 309,-216 309,-216 315,-216 321,-222 321,-228 321,-228 321,-240 321,-240 321,-246 315,-252 309,-252"/>
<text text-anchor="middle" x="291.5" y="-230.3" font-family="Times,serif" font-size="14.00">path (2)</text>
</g>
<!-- v1&#45;&gt;p4 -->
<g id="edge24" class="edge"><title>v1&#45;&gt;p4</title>
<path fill="none" stroke="black" d="M359.304,-291.503C348.17,-282.225 333.087,-269.656 319.974,-258.728"/>
<polygon fill="black" stroke="black" points="322.039,-255.893 312.116,-252.18 317.558,-261.271 322.039,-255.893"/>
</g>
<!-- v12 -->
<g id="node13" class="node"><title>v12</title>
<ellipse fill="none" stroke="black" cx="366.5" cy="-234" rx="27" ry="18"/>
<text text-anchor="middle" x="366.5" y="-230.3" font-family="Times,serif" font-size="14.00">12</text>
</g>
<!-- v1&#45;&gt;v12 -->
<g id="edge21" class="edge"><title>v1&#45;&gt;v12</title>
<path fill="none" stroke="black" d="M373.321,-288.055C372.33,-280.346 371.132,-271.027 370.018,-262.364"/>
<polygon fill="black" stroke="black" points="373.468,-261.747 368.721,-252.275 366.525,-262.64 373.468,-261.747"/>
</g>
<!-- p6 -->
<g id="node16" class="node"><title>p6</title>
<path fill="none" stroke="black" d="M465.5,-252C465.5,-252 423.5,-252 423.5,-252 417.5,-252 411.5,-246 411.5,-240 411.5,-240 411.5,-228 411.5,-228 411.5,-222 417.5,-216 423.5,-216 423.5,-216 465.5,-216 465.5,-216 471.5,-216 477.5,-222 477.5,-228 477.5,-228 477.5,-240 477.5,-240 477.5,-246 471.5,-252 465.5,-252"/>
<text text-anchor="middle" x="444.5" y="-230.3" font-family="Times,serif" font-size="14.00">path (12)</text>
</g>
<!-- v1&#45;&gt;p6 -->
<g id="edge22" class="edge"><title>v1&#45;&gt;p6</title>
<path fill="none" stroke="black" d="M389.797,-290.496C398.627,-281.538 410.184,-269.813 420.399,-259.45"/>
<polygon fill="black" stroke="black" points="423.015,-261.783 427.542,-252.204 418.029,-256.869 423.015,-261.783"/>
</g>
<!-- p8 -->
<g id="node18" class="node"><title>p8</title>
<path fill="none" stroke="black" d="M543,-252C543,-252 508,-252 508,-252 502,-252 496,-246 496,-240 496,-240 496,-228 496,-228 496,-222 502,-216 508,-216 508,-216 543,-216 543,-216 549,-216 555,-222 555,-228 555,-228 555,-240 555,-240 555,-246 549,-252 543,-252"/>
<text text-anchor="middle" x="525.5" y="-230.3" font-family="Times,serif" font-size="14.00">path (2)</text>
</g>
<!-- v1&#45;&gt;p8 -->
<g id="edge16" class="edge"><title>v1&#45;&gt;p8</title>
<path fill="none" stroke="black" d="M396.991,-294.971C420.281,-284.102 457.935,-266.53 486.479,-253.21"/>
<polygon fill="black" stroke="black" points="488.193,-256.272 495.775,-248.872 485.233,-249.929 488.193,-256.272"/>
</g>
<!-- v25 -->
<g id="node19" class="node"><title>v25</title>
<ellipse fill="none" stroke="black" cx="600.5" cy="-234" rx="27" ry="18"/>
<text text-anchor="middle" x="600.5" y="-230.3" font-family="Times,serif" font-size="14.00">25</text>
</g>
<!-- v1&#45;&gt;v25 -->
<g id="edge8" class="edge"><title>v1&#45;&gt;v25</title>
<path fill="none" stroke="black" d="M400.833,-299.191C437.318,-290.527 506.536,-272.97 563.5,-252 565.602,-251.226 567.751,-250.383 569.902,-249.501"/>
<polygon fill="black" stroke="black" points="571.433,-252.652 579.216,-245.464 568.649,-246.229 571.433,-252.652"/>
</g>
<!-- v2 -->
<g id="node3" class="node"><title>v2</title>
<ellipse fill="none" stroke="black" cx="528.5" cy="-378" rx="27" ry="18"/>
<text text-anchor="middle" x="528.5" y="-374.3" font-family="Times,serif" font-size="14.00">2</text>
</g>
<!-- v2&#45;&gt;v1 -->
<g id="edge3" class="edge"><title>v2&#45;&gt;v1</title>
<path fill="none" stroke="black" d="M506.903,-367.119C480.74,-355.149 436.468,-334.894 406.624,-321.24"/>
<polygon fill="black" stroke="black" points="408.032,-318.035 397.482,-317.057 405.12,-324.4 408.032,-318.035"/>
</g>
<!-- p1 -->
<g id="node5" class="node"><title>p1</title>
<path fill="none" stroke="black" d="M509.5,-324C509.5,-324 467.5,-324 467.5,-324 461.5,-324 455.5,-318 455.5,-312 455.5,-312 455.5,-300 455.5,-300 455.5,-294 461.5,-288 467.5,-288 467.5,-288 509.5,-288 509.5,-288 515.5,-288 521.5,-294 521.5,-300 521.5,-300 521.5,-312 521.5,-312 521.5,-318 515.5,-324 509.5,-324"/>
<text text-anchor="middle" x="488.5" y="-302.3" font-family="Times,serif" font-size="14.00">path (18)</text>
</g>
<!-- v2&#45;&gt;p1 -->
<g id="edge15" class="edge"><title>v2&#45;&gt;p1</title>
<path fill="none" stroke="black" d="M519.223,-360.765C514.515,-352.525 508.681,-342.317 503.366,-333.016"/>
<polygon fill="black" stroke="black" points="506.285,-331.07 498.285,-324.124 500.208,-334.543 506.285,-331.07"/>
</g>
<!-- p9 -->
<g id="node22" class="node"><title>p9</title>
<path fill="none" stroke="black" d="M587,-324C587,-324 552,-324 552,-324 546,-324 540,-318 540,-312 540,-312 540,-300 540,-300 540,-294 546,-288 552,-288 552,-288 587,-288 587,-288 593,-288 599,-294 599,-300 599,-300 599,-312 599,-312 599,-318 593,-324 587,-324"/>
<text text-anchor="middle" x="569.5" y="-302.3" font-family="Times,serif" font-size="14.00">path (2)</text>
</g>
<!-- v2&#45;&gt;p9 -->
<g id="edge11" class="edge"><title>v2&#45;&gt;p9</title>
<path fill="none" stroke="black" d="M538.009,-360.765C542.835,-352.525 548.815,-342.317 554.262,-333.016"/>
<polygon fill="black" stroke="black" points="557.436,-334.522 559.47,-324.124 551.396,-330.984 557.436,-334.522"/>
</g>
<!-- p11 -->
<g id="node24" class="node"><title>p11</title>
<path fill="none" stroke="black" d="M681,-324C681,-324 646,-324 646,-324 640,-324 634,-318 634,-312 634,-312 634,-300 634,-300 634,-294 640,-288 646,-288 646,-288 681,-288 681,-288 687,-288 693,-294 693,-300 693,-300 693,-312 693,-312 693,-318 687,-324 681,-324"/>
<text text-anchor="middle" x="663.5" y="-302.3" font-family="Times,serif" font-size="14.00">path (5)</text>
</g>
<!-- v2&#45;&gt;p11 -->
<g id="edge13" class="edge"><title>v2&#45;&gt;p11</title>
<path fill="none" stroke="black" d="M549.298,-366.216C569.366,-355.81 600.238,-339.803 624.826,-327.053"/>
<polygon fill="black" stroke="black" points="626.64,-330.055 633.906,-322.345 623.418,-323.841 626.64,-330.055"/>
</g>
<!-- p3 -->
<g id="node7" class="node"><title>p3</title>
<path fill="none" stroke="black" d="M197,-180C197,-180 162,-180 162,-180 156,-180 150,-174 150,-168 150,-168 150,-156 150,-156 150,-150 156,-144 162,-144 162,-144 197,-144 197,-144 203,-144 209,-150 209,-156 209,-156 209,-168 209,-168 209,-174 203,-180 197,-180"/>
<text text-anchor="middle" x="179.5" y="-158.3" font-family="Times,serif" font-size="14.00">path (2)</text>
</g>
<!-- v3&#45;&gt;p3 -->
<g id="edge9" class="edge"><title>v3&#45;&gt;p3</title>
<path fill="none" stroke="black" d="M207.918,-216.765C203.563,-208.525 198.167,-198.317 193.251,-189.016"/>
<polygon fill="black" stroke="black" points="196.319,-187.329 188.551,-180.124 190.13,-190.6 196.319,-187.329"/>
</g>
<!-- v9 -->
<g id="node10" class="node"><title>v9</title>
<ellipse fill="none" stroke="black" cx="254.5" cy="-162" rx="27" ry="18"/>
<text text-anchor="middle" x="254.5" y="-158.3" font-family="Times,serif" font-size="14.00">9</text>
</g>
<!-- v3&#45;&gt;v9 -->
<g id="edge20" class="edge"><title>v3&#45;&gt;v9</title>
<path fill="none" stroke="black" d="M225.313,-216.765C229.918,-208.283 235.655,-197.714 240.821,-188.197"/>
<polygon fill="black" stroke="black" points="244.039,-189.606 245.734,-179.147 237.887,-186.266 244.039,-189.606"/>
</g>
<!-- v10 -->
<g id="node11" class="node"><title>v10</title>
<ellipse fill="none" stroke="black" cx="326.5" cy="-162" rx="27" ry="18"/>
<text text-anchor="middle" x="326.5" y="-158.3" font-family="Times,serif" font-size="14.00">10</text>
</g>
<!-- v3&#45;&gt;v10 -->
<g id="edge10" class="edge"><title>v3&#45;&gt;v10</title>
<path fill="none" stroke="black" d="M235.661,-220.807C253.169,-209.665 279.259,-193.062 298.993,-180.504"/>
<polygon fill="black" stroke="black" points="301.001,-183.375 307.559,-175.053 297.243,-177.469 301.001,-183.375"/>
</g>
<!-- p2 -->
<g id="node6" class="node"><title>p2</title>
<path fill="none" stroke="black" d="M687,-36C687,-36 652,-36 652,-36 646,-36 640,-30 640,-24 640,-24 640,-12 640,-12 640,-6 646,-0 652,-0 652,-0 687,-0 687,-0 693,-0 699,-6 699,-12 699,-12 699,-24 699,-24 699,-30 693,-36 687,-36"/>
<text text-anchor="middle" x="669.5" y="-14.3" font-family="Times,serif" font-size="14.00">path (2)</text>
</g>
<!-- p5 -->
<g id="node9" class="node"><title>p5</title>
<path fill="none" stroke="black" d="M47,-108C47,-108 12,-108 12,-108 6,-108 0,-102 0,-96 0,-96 0,-84 0,-84 0,-78 6,-72 12,-72 12,-72 47,-72 47,-72 53,-72 59,-78 59,-84 59,-84 59,-96 59,-96 59,-102 53,-108 47,-108"/>
<text text-anchor="middle" x="29.5" y="-86.3" font-family="Times,serif" font-size="14.00">path (5)</text>
</g>
<!-- v11 -->
<g id="node12" class="node"><title>v11</title>
<ellipse fill="none" stroke="black" cx="744.5" cy="-90" rx="27" ry="18"/>
<text text-anchor="middle" x="744.5" y="-86.3" font-family="Times,serif" font-size="14.00">11</text>
</g>
<!-- v11&#45;&gt;p2 -->
<g id="edge6" class="edge"><title>v11&#45;&gt;p2</title>
<path fill="none" stroke="black" d="M729.323,-74.8345C719.585,-65.7459 706.69,-53.7105 695.366,-43.1413"/>
<polygon fill="black" stroke="black" points="697.534,-40.3772 687.835,-36.1127 692.758,-45.4946 697.534,-40.3772"/>
</g>
<!-- v14 -->
<g id="node15" class="node"><title>v14</title>
<ellipse fill="none" stroke="black" cx="744.5" cy="-18" rx="27" ry="18"/>
<text text-anchor="middle" x="744.5" y="-14.3" font-family="Times,serif" font-size="14.00">14</text>
</g>
<!-- v11&#45;&gt;v14 -->
<g id="edge5" class="edge"><title>v11&#45;&gt;v14</title>
<path fill="none" stroke="black" d="M744.5,-71.6966C744.5,-63.9827 744.5,-54.7125 744.5,-46.1124"/>
<polygon fill="black" stroke="black" points="748,-46.1043 744.5,-36.1043 741,-46.1044 748,-46.1043"/>
</g>
<!-- p10 -->
<g id="node23" class="node"><title>p10</title>
<path fill="none" stroke="black" d="M837,-36C837,-36 802,-36 802,-36 796,-36 790,-30 790,-24 790,-24 790,-12 790,-12 790,-6 796,-0 802,-0 802,-0 837,-0 837,-0 843,-0 849,-6 849,-12 849,-12 849,-24 849,-24 849,-30 843,-36 837,-36"/>
<text text-anchor="middle" x="819.5" y="-14.3" font-family="Times,serif" font-size="14.00">path (3)</text>
</g>
<!-- v11&#45;&gt;p10 -->
<g id="edge23" class="edge"><title>v11&#45;&gt;p10</title>
<path fill="none" stroke="black" d="M759.677,-74.8345C769.415,-65.7459 782.31,-53.7105 793.634,-43.1413"/>
<polygon fill="black" stroke="black" points="796.242,-45.4946 801.165,-36.1127 791.466,-40.3772 796.242,-45.4946"/>
</g>
<!-- v13 -->
<g id="node14" class="node"><title>v13</title>
<ellipse fill="none" stroke="black" cx="104.5" cy="-90" rx="27" ry="18"/>
<text text-anchor="middle" x="104.5" y="-86.3" font-family="Times,serif" font-size="14.00">13</text>
</g>
<!-- p7 -->
<g id="node17" class="node"><title>p7</title>
<path fill="none" stroke="black" d="M546,-468C546,-468 511,-468 511,-468 505,-468 499,-462 499,-456 499,-456 499,-444 499,-444 499,-438 505,-432 511,-432 511,-432 546,-432 546,-432 552,-432 558,-438 558,-444 558,-444 558,-456 558,-456 558,-462 552,-468 546,-468"/>
<text text-anchor="middle" x="528.5" y="-446.3" font-family="Times,serif" font-size="14.00">path (4)</text>
</g>
<!-- p7&#45;&gt;v2 -->
<g id="edge14" class="edge"><title>p7&#45;&gt;v2</title>
<path fill="none" stroke="black" d="M528.5,-431.697C528.5,-423.983 528.5,-414.712 528.5,-406.112"/>
<polygon fill="black" stroke="black" points="532,-406.104 528.5,-396.104 525,-406.104 532,-406.104"/>
</g>
<!-- v26 -->
<g id="node20" class="node"><title>v26</title>
<ellipse fill="none" stroke="black" cx="672.5" cy="-162" rx="27" ry="18"/>
<text text-anchor="middle" x="672.5" y="-158.3" font-family="Times,serif" font-size="14.00">26</text>
</g>
<!-- v57 -->
<g id="node27" class="node"><title>v57</title>
<ellipse fill="none" stroke="black" cx="672.5" cy="-234" rx="27" ry="18"/>
<text text-anchor="middle" x="672.5" y="-230.3" font-family="Times,serif" font-size="14.00">57</text>
</g>
<!-- v26&#45;&gt;v57 -->
<g id="edge27" class="edge"><title>v26&#45;&gt;v57</title>
<path fill="none" stroke="black" d="M678.379,-179.956C679.214,-187.827 679.448,-197.374 679.083,-206.187"/>
<polygon fill="black" stroke="black" points="675.574,-206.184 678.34,-216.411 682.556,-206.691 675.574,-206.184"/>
</g>
<!-- v27&#45;&gt;p5 -->
<g id="edge7" class="edge"><title>v27&#45;&gt;p5</title>
<path fill="none" stroke="black" d="M89.3226,-146.834C79.5849,-137.746 66.6898,-125.71 55.3657,-115.141"/>
<polygon fill="black" stroke="black" points="57.5338,-112.377 47.8351,-108.113 52.7575,-117.495 57.5338,-112.377"/>
</g>
<!-- v27&#45;&gt;v13 -->
<g id="edge18" class="edge"><title>v27&#45;&gt;v13</title>
<path fill="none" stroke="black" d="M104.5,-143.697C104.5,-135.983 104.5,-126.712 104.5,-118.112"/>
<polygon fill="black" stroke="black" points="108,-118.104 104.5,-108.104 101,-118.104 108,-118.104"/>
</g>
<!-- v42 -->
<g id="node25" class="node"><title>v42</title>
<ellipse fill="none" stroke="black" cx="176.5" cy="-90" rx="27" ry="18"/>
<text text-anchor="middle" x="176.5" y="-86.3" font-family="Times,serif" font-size="14.00">42</text>
</g>
<!-- v27&#45;&gt;v42 -->
<g id="edge4" class="edge"><title>v27&#45;&gt;v42</title>
<path fill="none" stroke="black" d="M119.07,-146.834C129.25,-136.938 143.024,-123.546 154.531,-112.359"/>
<polygon fill="black" stroke="black" points="156.974,-114.865 161.704,-105.385 152.095,-109.846 156.974,-114.865"/>
</g>
<!-- p11&#45;&gt;v57 -->
<g id="edge17" class="edge"><title>p11&#45;&gt;v57</title>
<path fill="none" stroke="black" d="M665.725,-287.697C666.717,-279.983 667.908,-270.712 669.014,-262.112"/>
<polygon fill="black" stroke="black" points="672.497,-262.469 670.301,-252.104 665.554,-261.576 672.497,-262.469"/>
</g>
<!-- v54 -->
<g id="node26" class="node"><title>v54</title>
<ellipse fill="none" stroke="black" cx="744.5" cy="-162" rx="27" ry="18"/>
<text text-anchor="middle" x="744.5" y="-158.3" font-family="Times,serif" font-size="14.00">54</text>
</g>
<!-- v54&#45;&gt;v11 -->
<g id="edge25" class="edge"><title>v54&#45;&gt;v11</title>
<path fill="none" stroke="black" d="M744.5,-143.697C744.5,-135.983 744.5,-126.712 744.5,-118.112"/>
<polygon fill="black" stroke="black" points="748,-118.104 744.5,-108.104 741,-118.104 748,-118.104"/>
</g>
<!-- v57&#45;&gt;v26 -->
<g id="edge19" class="edge"><title>v57&#45;&gt;v26</title>
<path fill="none" stroke="black" d="M666.66,-216.411C665.797,-208.507 665.548,-198.852 665.912,-189.935"/>
<polygon fill="black" stroke="black" points="669.403,-190.179 666.621,-179.956 662.421,-189.683 669.403,-190.179"/>
</g>
<!-- v57&#45;&gt;v54 -->
<g id="edge26" class="edge"><title>v57&#45;&gt;v54</title>
<path fill="none" stroke="black" d="M687.07,-218.834C697.25,-208.938 711.024,-195.546 722.531,-184.359"/>
<polygon fill="black" stroke="black" points="724.974,-186.865 729.704,-177.385 720.095,-181.846 724.974,-186.865"/>
</g>
</g>
</svg>
