<?xml version="1.0" encoding="UTF-8" standalone="no"?>
<!DOCTYPE svg PUBLIC "-//W3C//DTD SVG 1.1//EN"
 "http://www.w3.org/Graphics/SVG/1.1/DTD/svg11.dtd">
<!-- Generated by graphviz version 2.38.0 (20140413.2041)
 -->
<!-- Title: %3 Pages: 1 -->
<svg width="443pt" height="404pt"
 viewBox="0.00 0.00 443.00 404.00" xmlns="http://www.w3.org/2000/svg" xmlns:xlink="http://www.w3.org/1999/xlink">
<g id="graph0" class="graph" transform="scale(1 1) rotate(0) translate(4 400)">
<title>%3</title>
<polygon fill="white" stroke="none" points="-4,4 -4,-400 439,-400 439,4 -4,4"/>
<!-- v0 -->
<g id="node1" class="node"><title>v0</title>
<ellipse fill="none" stroke="black" cx="139.5" cy="-90" rx="27" ry="18"/>
<text text-anchor="middle" x="139.5" y="-86.3" font-family="Times,serif" font-size="14.00">0</text>
</g>
<!-- p3 -->
<g id="node7" class="node"><title>p3</title>
<path fill="none" stroke="black" d="M80,-36C80,-36 45,-36 45,-36 39,-36 33,-30 33,-24 33,-24 33,-12 33,-12 33,-6 39,-0 45,-0 45,-0 80,-0 80,-0 86,-0 92,-6 92,-12 92,-12 92,-24 92,-24 92,-30 86,-36 80,-36"/>
<text text-anchor="middle" x="62.5" y="-14.3" font-family="Times,serif" font-size="14.00">path (3)</text>
</g>
<!-- v0&#45;&gt;p3 -->
<g id="edge12" class="edge"><title>v0&#45;&gt;p3</title>
<path fill="none" stroke="black" d="M123.918,-74.8345C113.921,-65.7459 100.682,-53.7105 89.0555,-43.1413"/>
<polygon fill="black" stroke="black" points="91.0778,-40.2497 81.324,-36.1127 86.3691,-45.4293 91.0778,-40.2497"/>
</g>
<!-- p4 -->
<g id="node8" class="node"><title>p4</title>
<path fill="none" stroke="black" d="M157,-36C157,-36 122,-36 122,-36 116,-36 110,-30 110,-24 110,-24 110,-12 110,-12 110,-6 116,-0 122,-0 122,-0 157,-0 157,-0 163,-0 169,-6 169,-12 169,-12 169,-24 169,-24 169,-30 163,-36 157,-36"/>
<text text-anchor="middle" x="139.5" y="-14.3" font-family="Times,serif" font-size="14.00">path (5)</text>
</g>
<!-- v0&#45;&gt;p4 -->
<g id="edge14" class="edge"><title>v0&#45;&gt;p4</title>
<path fill="none" stroke="black" d="M139.5,-71.6966C139.5,-63.9827 139.5,-54.7125 139.5,-46.1124"/>
<polygon fill="black" stroke="black" points="143,-46.1043 139.5,-36.1043 136,-46.1044 143,-46.1043"/>
</g>
<!-- v48 -->
<g id="node18" class="node"><title>v48</title>
<ellipse fill="none" stroke="black" cx="214.5" cy="-18" rx="27" ry="18"/>
<text text-anchor="middle" x="214.5" y="-14.3" font-family="Times,serif" font-size="14.00">48</text>
</g>
<!-- v0&#45;&gt;v48 -->
<g id="edge16" class="edge"><title>v0&#45;&gt;v48</title>
<path fill="none" stroke="black" d="M154.677,-74.8345C165.351,-64.872 179.819,-51.3687 191.853,-40.1371"/>
<polygon fill="black" stroke="black" points="194.423,-42.5264 199.345,-33.1445 189.646,-37.409 194.423,-42.5264"/>
</g>
<!-- p0 -->
<g id="node2" class="node"><title>p0</title>
<path fill="none" stroke="black" d="M119,-324C119,-324 84,-324 84,-324 78,-324 72,-318 72,-312 72,-312 72,-300 72,-300 72,-294 78,-288 84,-288 84,-288 119,-288 119,-288 125,-288 131,-294 131,-300 131,-300 131,-312 131,-312 131,-318 125,-324 119,-324"/>
<text text-anchor="middle" x="101.5" y="-302.3" font-family="Times,serif" font-size="14.00">path (6)</text>
</g>
<!-- p1 -->
<g id="node3" class="node"><title>p1</title>
<path fill="none" stroke="black" d="M232,-108C232,-108 197,-108 197,-108 191,-108 185,-102 185,-96 185,-96 185,-84 185,-84 185,-78 191,-72 197,-72 197,-72 232,-72 232,-72 238,-72 244,-78 244,-84 244,-84 244,-96 244,-96 244,-102 238,-108 232,-108"/>
<text text-anchor="middle" x="214.5" y="-86.3" font-family="Times,serif" font-size="14.00">path (5)</text>
</g>
<!-- p2 -->
<g id="node4" class="node"><title>p2</title>
<path fill="none" stroke="black" d="M47,-180C47,-180 12,-180 12,-180 6,-180 0,-174 0,-168 0,-168 0,-156 0,-156 0,-150 6,-144 12,-144 12,-144 47,-144 47,-144 53,-144 59,-150 59,-156 59,-156 59,-168 59,-168 59,-174 53,-180 47,-180"/>
<text text-anchor="middle" x="29.5" y="-158.3" font-family="Times,serif" font-size="14.00">path (3)</text>
</g>
<!-- v9 -->
<g id="node5" class="node"><title>v9</title>
<ellipse fill="none" stroke="black" cx="104.5" cy="-234" rx="27" ry="18"/>
<text text-anchor="middle" x="104.5" y="-230.3" font-family="Times,serif" font-size="14.00">9</text>
</g>
<!-- v10 -->
<g id="node6" class="node"><title>v10</title>
<ellipse fill="none" stroke="black" cx="104.5" cy="-162" rx="27" ry="18"/>
<text text-anchor="middle" x="104.5" y="-158.3" font-family="Times,serif" font-size="14.00">10</text>
</g>
<!-- v14 -->
<g id="node9" class="node"><title>v14</title>
<ellipse fill="none" stroke="black" cx="176.5" cy="-234" rx="27" ry="18"/>
<text text-anchor="middle" x="176.5" y="-230.3" font-family="Times,serif" font-size="14.00">14</text>
</g>
<!-- v14&#45;&gt;p2 -->
<g id="edge1" class="edge"><title>v14&#45;&gt;p2</title>
<path fill="none" stroke="black" d="M155.125,-222.821C132.375,-211.988 95.8973,-194.618 68.0966,-181.379"/>
<polygon fill="black" stroke="black" points="69.567,-178.203 59.0336,-177.064 66.5574,-184.523 69.567,-178.203"/>
</g>
<!-- v14&#45;&gt;v10 -->
<g id="edge7" class="edge"><title>v14&#45;&gt;v10</title>
<path fill="none" stroke="black" d="M161.93,-218.834C151.75,-208.938 137.976,-195.546 126.469,-184.359"/>
<polygon fill="black" stroke="black" points="128.905,-181.846 119.296,-177.385 124.026,-186.865 128.905,-181.846"/>
</g>
<!-- v22 -->
<g id="node12" class="node"><title>v22</title>
<ellipse fill="none" stroke="black" cx="176.5" cy="-162" rx="27" ry="18"/>
<text text-anchor="middle" x="176.5" y="-158.3" font-family="Times,serif" font-size="14.00">22</text>
</g>
<!-- v14&#45;&gt;v22 -->
<g id="edge5" class="edge"><title>v14&#45;&gt;v22</title>
<path fill="none" stroke="black" d="M176.5,-215.697C176.5,-207.983 176.5,-198.712 176.5,-190.112"/>
<polygon fill="black" stroke="black" points="180,-190.104 176.5,-180.104 173,-190.104 180,-190.104"/>
</g>
<!-- p8 -->
<g id="node17" class="node"><title>p8</title>
<path fill="none" stroke="black" d="M269,-180C269,-180 234,-180 234,-180 228,-180 222,-174 222,-168 222,-168 222,-156 222,-156 222,-150 228,-144 234,-144 234,-144 269,-144 269,-144 275,-144 281,-150 281,-156 281,-156 281,-168 281,-168 281,-174 275,-180 269,-180"/>
<text text-anchor="middle" x="251.5" y="-158.3" font-family="Times,serif" font-size="14.00">path (3)</text>
</g>
<!-- v14&#45;&gt;p8 -->
<g id="edge9" class="edge"><title>v14&#45;&gt;p8</title>
<path fill="none" stroke="black" d="M191.677,-218.834C201.415,-209.746 214.31,-197.71 225.634,-187.141"/>
<polygon fill="black" stroke="black" points="228.242,-189.495 233.165,-180.113 223.466,-184.377 228.242,-189.495"/>
</g>
<!-- v15 -->
<g id="node10" class="node"><title>v15</title>
<ellipse fill="none" stroke="black" cx="176.5" cy="-378" rx="27" ry="18"/>
<text text-anchor="middle" x="176.5" y="-374.3" font-family="Times,serif" font-size="14.00">15</text>
</g>
<!-- v15&#45;&gt;p0 -->
<g id="edge15" class="edge"><title>v15&#45;&gt;p0</title>
<path fill="none" stroke="black" d="M161.323,-362.834C151.585,-353.746 138.69,-341.71 127.366,-331.141"/>
<polygon fill="black" stroke="black" points="129.534,-328.377 119.835,-324.113 124.758,-333.495 129.534,-328.377"/>
</g>
<!-- v19 -->
<g id="node11" class="node"><title>v19</title>
<ellipse fill="none" stroke="black" cx="176.5" cy="-306" rx="27" ry="18"/>
<text text-anchor="middle" x="176.5" y="-302.3" font-family="Times,serif" font-size="14.00">19</text>
</g>
<!-- v15&#45;&gt;v19 -->
<g id="edge4" class="edge"><title>v15&#45;&gt;v19</title>
<path fill="none" stroke="black" d="M176.5,-359.697C176.5,-351.983 176.5,-342.712 176.5,-334.112"/>
<polygon fill="black" stroke="black" points="180,-334.104 176.5,-324.104 173,-334.104 180,-334.104"/>
</g>
<!-- p7 -->
<g id="node16" class="node"><title>p7</title>
<path fill="none" stroke="black" d="M307,-324C307,-324 272,-324 272,-324 266,-324 260,-318 260,-312 260,-312 260,-300 260,-300 260,-294 266,-288 272,-288 272,-288 307,-288 307,-288 313,-288 319,-294 319,-300 319,-300 319,-312 319,-312 319,-318 313,-324 307,-324"/>
<text text-anchor="middle" x="289.5" y="-302.3" font-family="Times,serif" font-size="14.00">path (5)</text>
</g>
<!-- v15&#45;&gt;p7 -->
<g id="edge10" class="edge"><title>v15&#45;&gt;p7</title>
<path fill="none" stroke="black" d="M195.669,-365.125C211.395,-355.384 234.105,-341.315 253.244,-329.459"/>
<polygon fill="black" stroke="black" points="255.091,-332.433 261.749,-324.191 251.404,-326.482 255.091,-332.433"/>
</g>
<!-- v19&#45;&gt;v9 -->
<g id="edge13" class="edge"><title>v19&#45;&gt;v9</title>
<path fill="none" stroke="black" d="M161.93,-290.834C151.75,-280.938 137.976,-267.546 126.469,-256.359"/>
<polygon fill="black" stroke="black" points="128.905,-253.846 119.296,-249.385 124.026,-258.865 128.905,-253.846"/>
</g>
<!-- v19&#45;&gt;v14 -->
<g id="edge6" class="edge"><title>v19&#45;&gt;v14</title>
<path fill="none" stroke="black" d="M176.5,-287.697C176.5,-279.983 176.5,-270.712 176.5,-262.112"/>
<polygon fill="black" stroke="black" points="180,-262.104 176.5,-252.104 173,-262.104 180,-262.104"/>
</g>
<!-- v22&#45;&gt;v0 -->
<g id="edge11" class="edge"><title>v22&#45;&gt;v0</title>
<path fill="none" stroke="black" d="M167.918,-144.765C163.435,-136.283 157.849,-125.714 152.819,-116.197"/>
<polygon fill="black" stroke="black" points="155.802,-114.353 148.035,-107.147 149.614,-117.624 155.802,-114.353"/>
</g>
<!-- v22&#45;&gt;p1 -->
<g id="edge8" class="edge"><title>v22&#45;&gt;p1</title>
<path fill="none" stroke="black" d="M185.313,-144.765C189.786,-136.525 195.328,-126.317 200.377,-117.016"/>
<polygon fill="black" stroke="black" points="203.509,-118.582 205.204,-108.124 197.357,-115.243 203.509,-118.582"/>
</g>
<!-- p5 -->
<g id="node13" class="node"><title>p5</title>
<path fill="none" stroke="black" d="M346,-180C346,-180 311,-180 311,-180 305,-180 299,-174 299,-168 299,-168 299,-156 299,-156 299,-150 305,-144 311,-144 311,-144 346,-144 346,-144 352,-144 358,-150 358,-156 358,-156 358,-168 358,-168 358,-174 352,-180 346,-180"/>
<text text-anchor="middle" x="328.5" y="-158.3" font-family="Times,serif" font-size="14.00">path (5)</text>
</g>
<!-- v27 -->
<g id="node14" class="node"><title>v27</title>
<ellipse fill="none" stroke="black" cx="328.5" cy="-234" rx="27" ry="18"/>
<text text-anchor="middle" x="328.5" y="-230.3" font-family="Times,serif" font-size="14.00">27</text>
</g>
<!-- v27&#45;&gt;p5 -->
<g id="edge17" class="edge"><title>v27&#45;&gt;p5</title>
<path fill="none" stroke="black" d="M328.5,-215.697C328.5,-207.983 328.5,-198.712 328.5,-190.112"/>
<polygon fill="black" stroke="black" points="332,-190.104 328.5,-180.104 325,-190.104 332,-190.104"/>
</g>
<!-- p6 -->
<g id="node15" class="node"><title>p6</title>
<path fill="none" stroke="black" d="M423,-180C423,-180 388,-180 388,-180 382,-180 376,-174 376,-168 376,-168 376,-156 376,-156 376,-150 382,-144 388,-144 388,-144 423,-144 423,-144 429,-144 435,-150 435,-156 435,-156 435,-168 435,-168 435,-174 429,-180 423,-180"/>
<text text-anchor="middle" x="405.5" y="-158.3" font-family="Times,serif" font-size="14.00">path (5)</text>
</g>
<!-- v27&#45;&gt;p6 -->
<g id="edge3" class="edge"><title>v27&#45;&gt;p6</title>
<path fill="none" stroke="black" d="M344.082,-218.834C354.079,-209.746 367.318,-197.71 378.945,-187.141"/>
<polygon fill="black" stroke="black" points="381.631,-189.429 386.676,-180.113 376.922,-184.25 381.631,-189.429"/>
</g>
<!-- p7&#45;&gt;v27 -->
<g id="edge2" class="edge"><title>p7&#45;&gt;v27</title>
<path fill="none" stroke="black" d="M299.14,-287.697C303.81,-279.316 309.502,-269.098 314.628,-259.899"/>
<polygon fill="black" stroke="black" points="317.696,-261.584 319.505,-251.145 311.581,-258.177 317.696,-261.584"/>
</g>
</g>
</svg>
