<?xml version="1.0" encoding="UTF-8" standalone="no"?>
<!DOCTYPE svg PUBLIC "-//W3C//DTD SVG 1.1//EN"
 "http://www.w3.org/Graphics/SVG/1.1/DTD/svg11.dtd">
<!-- Generated by graphviz version 2.38.0 (20140413.2041)
 -->
<!-- Title: %3 Pages: 1 -->
<svg width="1143pt" height="1124pt"
 viewBox="0.00 0.00 1142.64 1124.00" xmlns="http://www.w3.org/2000/svg" xmlns:xlink="http://www.w3.org/1999/xlink">
<g id="graph0" class="graph" transform="scale(1 1) rotate(0) translate(4 1120)">
<title>%3</title>
<polygon fill="white" stroke="none" points="-4,4 -4,-1120 1138.64,-1120 1138.64,4 -4,4"/>
<!-- 0 -->
<g id="node1" class="node"><title>0</title>
<g id="a_node1"><a xlink:title="0, diversity: 2, multiplicities: 2,216, labels: 0">
<ellipse fill="#f6553c" stroke="black" cx="913.596" cy="-594" rx="37.0935" ry="18"/>
<text text-anchor="middle" x="913.596" y="-590.3" font-family="Times,serif" font-size="14.00">0 (2): 0</text>
</a>
</g>
</g>
<!-- 1 -->
<g id="node2" class="node"><title>1</title>
<g id="a_node2"><a xlink:title="1, diversity: 1, multiplicities: 83, labels: 0">
<ellipse fill="#fca082" stroke="black" cx="1097.6" cy="-522" rx="37.0935" ry="18"/>
<text text-anchor="middle" x="1097.6" y="-518.3" font-family="Times,serif" font-size="14.00">1 (1): 0</text>
</a>
</g>
</g>
<!-- 0&#45;&gt;1 -->
<g id="edge49" class="edge"><title>0&#45;&gt;1</title>
<path fill="none" stroke="black" d="M941.943,-582.216C973.549,-570.192 1024.81,-550.689 1059.81,-537.376"/>
<polygon fill="black" stroke="black" points="1061.12,-540.623 1069.22,-533.796 1058.63,-534.081 1061.12,-540.623"/>
</g>
<!-- 2 -->
<g id="node3" class="node"><title>2</title>
<g id="a_node3"><a xlink:title="2, diversity: 1, multiplicities: 100, labels: 0">
<ellipse fill="#fca082" stroke="black" cx="913.596" cy="-522" rx="37.0935" ry="18"/>
<text text-anchor="middle" x="913.596" y="-518.3" font-family="Times,serif" font-size="14.00">2 (1): 0</text>
</a>
</g>
</g>
<!-- 0&#45;&gt;2 -->
<g id="edge59" class="edge"><title>0&#45;&gt;2</title>
<path fill="none" stroke="black" d="M913.596,-575.697C913.596,-567.983 913.596,-558.712 913.596,-550.112"/>
<polygon fill="black" stroke="black" points="917.096,-550.104 913.596,-540.104 910.096,-550.104 917.096,-550.104"/>
</g>
<!-- 4 -->
<g id="node5" class="node"><title>4</title>
<g id="a_node5"><a xlink:title="4, diversity: 1, multiplicities: 60, labels: 0">
<ellipse fill="#fca082" stroke="black" cx="1005.6" cy="-522" rx="37.0935" ry="18"/>
<text text-anchor="middle" x="1005.6" y="-518.3" font-family="Times,serif" font-size="14.00">4 (1): 0</text>
</a>
</g>
</g>
<!-- 0&#45;&gt;4 -->
<g id="edge29" class="edge"><title>0&#45;&gt;4</title>
<path fill="none" stroke="black" d="M932.659,-578.496C945.858,-568.453 963.625,-554.934 978.32,-543.754"/>
<polygon fill="black" stroke="black" points="980.719,-546.326 986.558,-537.485 976.481,-540.755 980.719,-546.326"/>
</g>
<!-- 7 -->
<g id="node8" class="node"><title>7</title>
<g id="a_node8"><a xlink:title="7, diversity: 1, multiplicities: 30, labels: 0">
<ellipse fill="#fca082" stroke="black" cx="986.596" cy="-450" rx="37.0935" ry="18"/>
<text text-anchor="middle" x="986.596" y="-446.3" font-family="Times,serif" font-size="14.00">7 (1): 0</text>
</a>
</g>
</g>
<!-- 2&#45;&gt;7 -->
<g id="edge33" class="edge"><title>2&#45;&gt;7</title>
<path fill="none" stroke="black" d="M929.797,-505.465C939.532,-496.13 952.091,-484.087 962.923,-473.7"/>
<polygon fill="black" stroke="black" points="965.645,-475.939 970.441,-466.492 960.8,-470.887 965.645,-475.939"/>
</g>
<!-- 24 -->
<g id="node25" class="node"><title>24</title>
<g id="a_node25"><a xlink:title="24, diversity: 1, multiplicities: 1, labels: 0">
<ellipse fill="#fff5f0" stroke="black" cx="889.596" cy="-450" rx="41.6928" ry="18"/>
<text text-anchor="middle" x="889.596" y="-446.3" font-family="Times,serif" font-size="14.00">24 (1): 0</text>
</a>
</g>
</g>
<!-- 2&#45;&gt;24 -->
<g id="edge12" class="edge"><title>2&#45;&gt;24</title>
<path fill="none" stroke="black" d="M907.787,-504.055C905.085,-496.176 901.808,-486.617 898.783,-477.794"/>
<polygon fill="black" stroke="black" points="902.073,-476.6 895.519,-468.275 895.452,-478.87 902.073,-476.6"/>
</g>
<!-- 3 -->
<g id="node4" class="node"><title>3</title>
<g id="a_node4"><a xlink:title="3, diversity: 5, multiplicities: 1,2,23,29,44, labels: 0">
<ellipse fill="#fca082" stroke="black" cx="699.596" cy="-666" rx="37.0935" ry="18"/>
<text text-anchor="middle" x="699.596" y="-662.3" font-family="Times,serif" font-size="14.00">3 (5): 0</text>
</a>
</g>
</g>
<!-- 3&#45;&gt;0 -->
<g id="edge4" class="edge"><title>3&#45;&gt;0</title>
<path fill="none" stroke="black" d="M730.189,-655.691C763.769,-645.38 819.213,-628.081 866.596,-612 869.462,-611.027 872.419,-610.004 875.389,-608.963"/>
<polygon fill="black" stroke="black" points="876.575,-612.256 884.827,-605.61 874.232,-605.659 876.575,-612.256"/>
</g>
<!-- 9 -->
<g id="node10" class="node"><title>9</title>
<g id="a_node10"><a xlink:title="9, diversity: 1, multiplicities: 19, labels: 0">
<ellipse fill="#fca082" stroke="black" cx="1005.6" cy="-594" rx="37.0935" ry="18"/>
<text text-anchor="middle" x="1005.6" y="-590.3" font-family="Times,serif" font-size="14.00">9 (1): 0</text>
</a>
</g>
</g>
<!-- 3&#45;&gt;9 -->
<g id="edge41" class="edge"><title>3&#45;&gt;9</title>
<path fill="none" stroke="black" d="M734.489,-659.632C784.774,-651.504 880.292,-634.594 959.596,-612 962.36,-611.213 965.194,-610.337 968.033,-609.411"/>
<polygon fill="black" stroke="black" points="969.285,-612.682 977.602,-606.119 967.008,-606.063 969.285,-612.682"/>
</g>
<!-- 11 -->
<g id="node12" class="node"><title>11</title>
<g id="a_node12"><a xlink:title="11, diversity: 1, multiplicities: 2, labels: 0">
<ellipse fill="#fee3d6" stroke="black" cx="377.596" cy="-594" rx="41.6928" ry="18"/>
<text text-anchor="middle" x="377.596" y="-590.3" font-family="Times,serif" font-size="14.00">11 (1): 0</text>
</a>
</g>
</g>
<!-- 3&#45;&gt;11 -->
<g id="edge6" class="edge"><title>3&#45;&gt;11</title>
<path fill="none" stroke="black" d="M666.349,-657.772C608.695,-645.239 490.039,-619.444 424.195,-605.13"/>
<polygon fill="black" stroke="black" points="424.613,-601.639 414.098,-602.935 423.126,-608.48 424.613,-601.639"/>
</g>
<!-- 14 -->
<g id="node15" class="node"><title>14</title>
<g id="a_node15"><a xlink:title="14, diversity: 2, multiplicities: 1,107, labels: 0">
<ellipse fill="#fb7c5c" stroke="black" cx="513.596" cy="-594" rx="41.6928" ry="18"/>
<text text-anchor="middle" x="513.596" y="-590.3" font-family="Times,serif" font-size="14.00">14 (2): 0</text>
</a>
</g>
</g>
<!-- 3&#45;&gt;14 -->
<g id="edge17" class="edge"><title>3&#45;&gt;14</title>
<path fill="none" stroke="black" d="M670.941,-654.216C639.458,-642.367 588.678,-623.256 553.353,-609.962"/>
<polygon fill="black" stroke="black" points="554.42,-606.624 543.828,-606.377 551.954,-613.176 554.42,-606.624"/>
</g>
<!-- 25 -->
<g id="node26" class="node"><title>25</title>
<g id="a_node26"><a xlink:title="25, diversity: 1, multiplicities: 84, labels: 0">
<ellipse fill="#fca082" stroke="black" cx="699.596" cy="-594" rx="41.6928" ry="18"/>
<text text-anchor="middle" x="699.596" y="-590.3" font-family="Times,serif" font-size="14.00">25 (1): 0</text>
</a>
</g>
</g>
<!-- 3&#45;&gt;25 -->
<g id="edge1" class="edge"><title>3&#45;&gt;25</title>
<path fill="none" stroke="black" d="M699.596,-647.697C699.596,-639.983 699.596,-630.712 699.596,-622.112"/>
<polygon fill="black" stroke="black" points="703.096,-622.104 699.596,-612.104 696.096,-622.104 703.096,-622.104"/>
</g>
<!-- 53 -->
<g id="node54" class="node"><title>53</title>
<g id="a_node54"><a xlink:title="53, diversity: 1, multiplicities: 15, labels: 0">
<ellipse fill="#fca082" stroke="black" cx="815.596" cy="-594" rx="41.6928" ry="18"/>
<text text-anchor="middle" x="815.596" y="-590.3" font-family="Times,serif" font-size="14.00">53 (1): 0</text>
</a>
</g>
</g>
<!-- 3&#45;&gt;53 -->
<g id="edge55" class="edge"><title>3&#45;&gt;53</title>
<path fill="none" stroke="black" d="M721.962,-651.503C739.433,-640.961 763.945,-626.169 783.508,-614.364"/>
<polygon fill="black" stroke="black" points="785.351,-617.339 792.105,-609.176 781.734,-611.346 785.351,-617.339"/>
</g>
<!-- 10 -->
<g id="node11" class="node"><title>10</title>
<g id="a_node11"><a xlink:title="10, diversity: 1, multiplicities: 17, labels: 0">
<ellipse fill="#fca082" stroke="black" cx="1083.6" cy="-450" rx="41.6928" ry="18"/>
<text text-anchor="middle" x="1083.6" y="-446.3" font-family="Times,serif" font-size="14.00">10 (1): 0</text>
</a>
</g>
</g>
<!-- 4&#45;&gt;10 -->
<g id="edge3" class="edge"><title>4&#45;&gt;10</title>
<path fill="none" stroke="black" d="M1022.52,-505.811C1033.18,-496.245 1047.12,-483.736 1058.99,-473.084"/>
<polygon fill="black" stroke="black" points="1061.33,-475.685 1066.44,-466.401 1056.66,-470.475 1061.33,-475.685"/>
</g>
<!-- 5 -->
<g id="node6" class="node"><title>5</title>
<g id="a_node6"><a xlink:title="5, diversity: 1, multiplicities: 39, labels: 0">
<ellipse fill="#fca082" stroke="black" cx="277.596" cy="-522" rx="37.0935" ry="18"/>
<text text-anchor="middle" x="277.596" y="-518.3" font-family="Times,serif" font-size="14.00">5 (1): 0</text>
</a>
</g>
</g>
<!-- 8 -->
<g id="node9" class="node"><title>8</title>
<g id="a_node9"><a xlink:title="8, diversity: 1, multiplicities: 14, labels: 0">
<ellipse fill="#fca082" stroke="black" cx="239.596" cy="-450" rx="37.0935" ry="18"/>
<text text-anchor="middle" x="239.596" y="-446.3" font-family="Times,serif" font-size="14.00">8 (1): 0</text>
</a>
</g>
</g>
<!-- 5&#45;&gt;8 -->
<g id="edge28" class="edge"><title>5&#45;&gt;8</title>
<path fill="none" stroke="black" d="M268.591,-504.411C264.048,-496.042 258.439,-485.71 253.368,-476.37"/>
<polygon fill="black" stroke="black" points="256.384,-474.589 248.537,-467.47 250.232,-477.928 256.384,-474.589"/>
</g>
<!-- 6 -->
<g id="node7" class="node"><title>6</title>
<g id="a_node7"><a xlink:title="6, diversity: 1, multiplicities: 8, labels: 0">
<ellipse fill="#fcc4ad" stroke="black" cx="694.596" cy="-810" rx="37.0935" ry="18"/>
<text text-anchor="middle" x="694.596" y="-806.3" font-family="Times,serif" font-size="14.00">6 (1): 0</text>
</a>
</g>
</g>
<!-- 12 -->
<g id="node13" class="node"><title>12</title>
<g id="a_node13"><a xlink:title="12, diversity: 1, multiplicities: 1, labels: 0">
<ellipse fill="#fff5f0" stroke="black" cx="698.596" cy="-738" rx="41.6928" ry="18"/>
<text text-anchor="middle" x="698.596" y="-734.3" font-family="Times,serif" font-size="14.00">12 (1): 0</text>
</a>
</g>
</g>
<!-- 6&#45;&gt;12 -->
<g id="edge45" class="edge"><title>6&#45;&gt;12</title>
<path fill="none" stroke="black" d="M695.585,-791.697C696.026,-783.983 696.556,-774.712 697.047,-766.112"/>
<polygon fill="black" stroke="black" points="700.543,-766.288 697.619,-756.104 693.554,-765.888 700.543,-766.288"/>
</g>
<!-- 11&#45;&gt;5 -->
<g id="edge22" class="edge"><title>11&#45;&gt;5</title>
<path fill="none" stroke="black" d="M356.389,-578.155C341.78,-567.929 322.196,-554.22 306.208,-543.028"/>
<polygon fill="black" stroke="black" points="307.95,-539.975 297.75,-537.108 303.935,-545.71 307.95,-539.975"/>
</g>
<!-- 12&#45;&gt;3 -->
<g id="edge31" class="edge"><title>12&#45;&gt;3</title>
<path fill="none" stroke="black" d="M698.844,-719.697C698.954,-711.983 699.086,-702.712 699.209,-694.112"/>
<polygon fill="black" stroke="black" points="702.709,-694.153 699.352,-684.104 695.709,-694.053 702.709,-694.153"/>
</g>
<!-- 13 -->
<g id="node14" class="node"><title>13</title>
<g id="a_node14"><a xlink:title="13, diversity: 2, multiplicities: 1,17, labels: 0">
<ellipse fill="#fca082" stroke="black" cx="648.596" cy="-954" rx="41.6928" ry="18"/>
<text text-anchor="middle" x="648.596" y="-950.3" font-family="Times,serif" font-size="14.00">13 (2): 0</text>
</a>
</g>
</g>
<!-- 59 -->
<g id="node60" class="node"><title>59</title>
<g id="a_node60"><a xlink:title="59, diversity: 1, multiplicities: 1, labels: 0">
<ellipse fill="#fff5f0" stroke="black" cx="663.596" cy="-882" rx="41.6928" ry="18"/>
<text text-anchor="middle" x="663.596" y="-878.3" font-family="Times,serif" font-size="14.00">59 (1): 0</text>
</a>
</g>
</g>
<!-- 13&#45;&gt;59 -->
<g id="edge7" class="edge"><title>13&#45;&gt;59</title>
<path fill="none" stroke="black" d="M652.227,-936.055C653.898,-928.261 655.92,-918.822 657.794,-910.079"/>
<polygon fill="black" stroke="black" points="661.221,-910.787 659.894,-900.275 654.377,-909.32 661.221,-910.787"/>
</g>
<!-- 16 -->
<g id="node17" class="node"><title>16</title>
<g id="a_node17"><a xlink:title="16, diversity: 1, multiplicities: 23, labels: 0">
<ellipse fill="#fca082" stroke="black" cx="513.596" cy="-522" rx="41.6928" ry="18"/>
<text text-anchor="middle" x="513.596" y="-518.3" font-family="Times,serif" font-size="14.00">16 (1): 0</text>
</a>
</g>
</g>
<!-- 14&#45;&gt;16 -->
<g id="edge51" class="edge"><title>14&#45;&gt;16</title>
<path fill="none" stroke="black" d="M513.596,-575.697C513.596,-567.983 513.596,-558.712 513.596,-550.112"/>
<polygon fill="black" stroke="black" points="517.096,-550.104 513.596,-540.104 510.096,-550.104 517.096,-550.104"/>
</g>
<!-- 18 -->
<g id="node19" class="node"><title>18</title>
<g id="a_node19"><a xlink:title="18, diversity: 2, multiplicities: 8,27, labels: 0">
<ellipse fill="#fca082" stroke="black" cx="412.596" cy="-522" rx="41.6928" ry="18"/>
<text text-anchor="middle" x="412.596" y="-518.3" font-family="Times,serif" font-size="14.00">18 (2): 0</text>
</a>
</g>
</g>
<!-- 14&#45;&gt;18 -->
<g id="edge24" class="edge"><title>14&#45;&gt;18</title>
<path fill="none" stroke="black" d="M492.177,-578.155C477.617,-568.064 458.165,-554.583 442.138,-543.474"/>
<polygon fill="black" stroke="black" points="443.851,-540.403 433.639,-537.584 439.864,-546.157 443.851,-540.403"/>
</g>
<!-- 15 -->
<g id="node16" class="node"><title>15</title>
<g id="a_node16"><a xlink:title="15, diversity: 1, multiplicities: 56, labels: 0">
<ellipse fill="#fca082" stroke="black" cx="437.596" cy="-450" rx="41.6928" ry="18"/>
<text text-anchor="middle" x="437.596" y="-446.3" font-family="Times,serif" font-size="14.00">15 (1): 0</text>
</a>
</g>
</g>
<!-- 17 -->
<g id="node18" class="node"><title>17</title>
<g id="a_node18"><a xlink:title="17, diversity: 1, multiplicities: 26, labels: 0">
<ellipse fill="#fca082" stroke="black" cx="437.596" cy="-378" rx="41.6928" ry="18"/>
<text text-anchor="middle" x="437.596" y="-374.3" font-family="Times,serif" font-size="14.00">17 (1): 0</text>
</a>
</g>
</g>
<!-- 15&#45;&gt;17 -->
<g id="edge48" class="edge"><title>15&#45;&gt;17</title>
<path fill="none" stroke="black" d="M437.596,-431.697C437.596,-423.983 437.596,-414.712 437.596,-406.112"/>
<polygon fill="black" stroke="black" points="441.096,-406.104 437.596,-396.104 434.096,-406.104 441.096,-406.104"/>
</g>
<!-- 18&#45;&gt;15 -->
<g id="edge27" class="edge"><title>18&#45;&gt;15</title>
<path fill="none" stroke="black" d="M418.648,-504.055C421.462,-496.176 424.876,-486.617 428.027,-477.794"/>
<polygon fill="black" stroke="black" points="431.359,-478.87 431.427,-468.275 424.767,-476.516 431.359,-478.87"/>
</g>
<!-- 48 -->
<g id="node49" class="node"><title>48</title>
<g id="a_node49"><a xlink:title="48, diversity: 1, multiplicities: 32, labels: 0">
<ellipse fill="#fca082" stroke="black" cx="538.596" cy="-450" rx="41.6928" ry="18"/>
<text text-anchor="middle" x="538.596" y="-446.3" font-family="Times,serif" font-size="14.00">48 (1): 0</text>
</a>
</g>
</g>
<!-- 18&#45;&gt;48 -->
<g id="edge8" class="edge"><title>18&#45;&gt;48</title>
<path fill="none" stroke="black" d="M437.189,-507.337C456.616,-496.545 483.921,-481.375 505.304,-469.496"/>
<polygon fill="black" stroke="black" points="507.023,-472.544 514.065,-464.628 503.624,-466.425 507.023,-472.544"/>
</g>
<!-- 50 -->
<g id="node51" class="node"><title>50</title>
<g id="a_node51"><a xlink:title="50, diversity: 1, multiplicities: 11, labels: 0">
<ellipse fill="#fca082" stroke="black" cx="336.596" cy="-450" rx="41.6928" ry="18"/>
<text text-anchor="middle" x="336.596" y="-446.3" font-family="Times,serif" font-size="14.00">50 (1): 0</text>
</a>
</g>
</g>
<!-- 18&#45;&gt;50 -->
<g id="edge44" class="edge"><title>18&#45;&gt;50</title>
<path fill="none" stroke="black" d="M395.729,-505.465C385.496,-496.04 372.265,-483.853 360.914,-473.398"/>
<polygon fill="black" stroke="black" points="363.143,-470.692 353.416,-466.492 358.4,-475.841 363.143,-470.692"/>
</g>
<!-- 19 -->
<g id="node20" class="node"><title>19</title>
<g id="a_node20"><a xlink:title="19, diversity: 1, multiplicities: 28, labels: 0">
<ellipse fill="#fca082" stroke="black" cx="343.596" cy="-954" rx="41.6928" ry="18"/>
<text text-anchor="middle" x="343.596" y="-950.3" font-family="Times,serif" font-size="14.00">19 (1): 0</text>
</a>
</g>
</g>
<!-- 20 -->
<g id="node21" class="node"><title>20</title>
<g id="a_node21"><a xlink:title="20, diversity: 1, multiplicities: 7, labels: 0">
<ellipse fill="#fcc4ad" stroke="black" cx="343.596" cy="-882" rx="41.6928" ry="18"/>
<text text-anchor="middle" x="343.596" y="-878.3" font-family="Times,serif" font-size="14.00">20 (1): 0</text>
</a>
</g>
</g>
<!-- 19&#45;&gt;20 -->
<g id="edge46" class="edge"><title>19&#45;&gt;20</title>
<path fill="none" stroke="black" d="M343.596,-935.697C343.596,-927.983 343.596,-918.712 343.596,-910.112"/>
<polygon fill="black" stroke="black" points="347.096,-910.104 343.596,-900.104 340.096,-910.104 347.096,-910.104"/>
</g>
<!-- 35 -->
<g id="node36" class="node"><title>35</title>
<g id="a_node36"><a xlink:title="35, diversity: 2, multiplicities: 21,26, labels: 0">
<ellipse fill="#fca082" stroke="black" cx="250.596" cy="-738" rx="41.6928" ry="18"/>
<text text-anchor="middle" x="250.596" y="-734.3" font-family="Times,serif" font-size="14.00">35 (2): 0</text>
</a>
</g>
</g>
<!-- 19&#45;&gt;35 -->
<g id="edge42" class="edge"><title>19&#45;&gt;35</title>
<path fill="none" stroke="black" d="M324.591,-937.646C313.735,-927.923 300.71,-914.482 292.596,-900 268.495,-856.981 257.861,-799.747 253.45,-766.383"/>
<polygon fill="black" stroke="black" points="256.873,-765.538 252.183,-756.038 249.925,-766.39 256.873,-765.538"/>
</g>
<!-- 40 -->
<g id="node41" class="node"><title>40</title>
<g id="a_node41"><a xlink:title="40, diversity: 2, multiplicities: 1,10, labels: 0">
<ellipse fill="#fca082" stroke="black" cx="343.596" cy="-810" rx="41.6928" ry="18"/>
<text text-anchor="middle" x="343.596" y="-806.3" font-family="Times,serif" font-size="14.00">40 (2): 0</text>
</a>
</g>
</g>
<!-- 20&#45;&gt;40 -->
<g id="edge39" class="edge"><title>20&#45;&gt;40</title>
<path fill="none" stroke="black" d="M343.596,-863.697C343.596,-855.983 343.596,-846.712 343.596,-838.112"/>
<polygon fill="black" stroke="black" points="347.096,-838.104 343.596,-828.104 340.096,-838.104 347.096,-838.104"/>
</g>
<!-- 21 -->
<g id="node22" class="node"><title>21</title>
<g id="a_node22"><a xlink:title="21, diversity: 1, multiplicities: 2, labels: 0">
<ellipse fill="#fee3d6" stroke="black" cx="343.596" cy="-1026" rx="41.6928" ry="18"/>
<text text-anchor="middle" x="343.596" y="-1022.3" font-family="Times,serif" font-size="14.00">21 (1): 0</text>
</a>
</g>
</g>
<!-- 21&#45;&gt;19 -->
<g id="edge32" class="edge"><title>21&#45;&gt;19</title>
<path fill="none" stroke="black" d="M343.596,-1007.7C343.596,-999.983 343.596,-990.712 343.596,-982.112"/>
<polygon fill="black" stroke="black" points="347.096,-982.104 343.596,-972.104 340.096,-982.104 347.096,-982.104"/>
</g>
<!-- 22 -->
<g id="node23" class="node"><title>22</title>
<g id="a_node23"><a xlink:title="22, diversity: 1, multiplicities: 20, labels: 0">
<ellipse fill="#fca082" stroke="black" cx="889.596" cy="-378" rx="41.6928" ry="18"/>
<text text-anchor="middle" x="889.596" y="-374.3" font-family="Times,serif" font-size="14.00">22 (1): 0</text>
</a>
</g>
</g>
<!-- 23 -->
<g id="node24" class="node"><title>23</title>
<g id="a_node24"><a xlink:title="23, diversity: 1, multiplicities: 26, labels: 0">
<ellipse fill="#fca082" stroke="black" cx="889.596" cy="-306" rx="41.6928" ry="18"/>
<text text-anchor="middle" x="889.596" y="-302.3" font-family="Times,serif" font-size="14.00">23 (1): 0</text>
</a>
</g>
</g>
<!-- 22&#45;&gt;23 -->
<g id="edge2" class="edge"><title>22&#45;&gt;23</title>
<path fill="none" stroke="black" d="M889.596,-359.697C889.596,-351.983 889.596,-342.712 889.596,-334.112"/>
<polygon fill="black" stroke="black" points="893.096,-334.104 889.596,-324.104 886.096,-334.104 893.096,-334.104"/>
</g>
<!-- 24&#45;&gt;22 -->
<g id="edge13" class="edge"><title>24&#45;&gt;22</title>
<path fill="none" stroke="black" d="M889.596,-431.697C889.596,-423.983 889.596,-414.712 889.596,-406.112"/>
<polygon fill="black" stroke="black" points="893.096,-406.104 889.596,-396.104 886.096,-406.104 893.096,-406.104"/>
</g>
<!-- 26 -->
<g id="node27" class="node"><title>26</title>
<g id="a_node27"><a xlink:title="26, diversity: 1, multiplicities: 15, labels: 0">
<ellipse fill="#fca082" stroke="black" cx="715.596" cy="-522" rx="41.6928" ry="18"/>
<text text-anchor="middle" x="715.596" y="-518.3" font-family="Times,serif" font-size="14.00">26 (1): 0</text>
</a>
</g>
</g>
<!-- 25&#45;&gt;26 -->
<g id="edge26" class="edge"><title>25&#45;&gt;26</title>
<path fill="none" stroke="black" d="M703.469,-576.055C705.251,-568.261 707.408,-558.822 709.407,-550.079"/>
<polygon fill="black" stroke="black" points="712.831,-550.804 711.648,-540.275 706.007,-549.244 712.831,-550.804"/>
</g>
<!-- 27 -->
<g id="node28" class="node"><title>27</title>
<g id="a_node28"><a xlink:title="27, diversity: 1, multiplicities: 50, labels: 0">
<ellipse fill="#fca082" stroke="black" cx="614.596" cy="-522" rx="41.6928" ry="18"/>
<text text-anchor="middle" x="614.596" y="-518.3" font-family="Times,serif" font-size="14.00">27 (1): 0</text>
</a>
</g>
</g>
<!-- 25&#45;&gt;27 -->
<g id="edge9" class="edge"><title>25&#45;&gt;27</title>
<path fill="none" stroke="black" d="M681.153,-577.811C669.346,-568.088 653.845,-555.323 640.774,-544.558"/>
<polygon fill="black" stroke="black" points="642.948,-541.815 633.004,-538.159 638.498,-547.218 642.948,-541.815"/>
</g>
<!-- 28 -->
<g id="node29" class="node"><title>28</title>
<g id="a_node29"><a xlink:title="28, diversity: 1, multiplicities: 5, labels: 0">
<ellipse fill="#fee3d6" stroke="black" cx="639.596" cy="-450" rx="41.6928" ry="18"/>
<text text-anchor="middle" x="639.596" y="-446.3" font-family="Times,serif" font-size="14.00">28 (1): 0</text>
</a>
</g>
</g>
<!-- 27&#45;&gt;28 -->
<g id="edge30" class="edge"><title>27&#45;&gt;28</title>
<path fill="none" stroke="black" d="M620.648,-504.055C623.462,-496.176 626.876,-486.617 630.027,-477.794"/>
<polygon fill="black" stroke="black" points="633.359,-478.87 633.427,-468.275 626.767,-476.516 633.359,-478.87"/>
</g>
<!-- 29 -->
<g id="node30" class="node"><title>29</title>
<g id="a_node30"><a xlink:title="29, diversity: 2, multiplicities: 1,46, labels: 0">
<ellipse fill="#fca082" stroke="black" cx="149.596" cy="-666" rx="41.6928" ry="18"/>
<text text-anchor="middle" x="149.596" y="-662.3" font-family="Times,serif" font-size="14.00">29 (2): 0</text>
</a>
</g>
</g>
<!-- 30 -->
<g id="node31" class="node"><title>30</title>
<g id="a_node31"><a xlink:title="30, diversity: 1, multiplicities: 7, labels: 0">
<ellipse fill="#fcc4ad" stroke="black" cx="149.596" cy="-594" rx="41.6928" ry="18"/>
<text text-anchor="middle" x="149.596" y="-590.3" font-family="Times,serif" font-size="14.00">30 (1): 0</text>
</a>
</g>
</g>
<!-- 29&#45;&gt;30 -->
<g id="edge37" class="edge"><title>29&#45;&gt;30</title>
<path fill="none" stroke="black" d="M149.596,-647.697C149.596,-639.983 149.596,-630.712 149.596,-622.112"/>
<polygon fill="black" stroke="black" points="153.096,-622.104 149.596,-612.104 146.096,-622.104 153.096,-622.104"/>
</g>
<!-- 31 -->
<g id="node32" class="node"><title>31</title>
<g id="a_node32"><a xlink:title="31, diversity: 1, multiplicities: 56, labels: 0">
<ellipse fill="#fca082" stroke="black" cx="788.596" cy="-306" rx="41.6928" ry="18"/>
<text text-anchor="middle" x="788.596" y="-302.3" font-family="Times,serif" font-size="14.00">31 (1): 0</text>
</a>
</g>
</g>
<!-- 57 -->
<g id="node58" class="node"><title>57</title>
<g id="a_node58"><a xlink:title="57, diversity: 1, multiplicities: 2, labels: 0">
<ellipse fill="#fee3d6" stroke="black" cx="788.596" cy="-234" rx="41.6928" ry="18"/>
<text text-anchor="middle" x="788.596" y="-230.3" font-family="Times,serif" font-size="14.00">57 (1): 0</text>
</a>
</g>
</g>
<!-- 31&#45;&gt;57 -->
<g id="edge5" class="edge"><title>31&#45;&gt;57</title>
<path fill="none" stroke="black" d="M788.596,-287.697C788.596,-279.983 788.596,-270.712 788.596,-262.112"/>
<polygon fill="black" stroke="black" points="792.096,-262.104 788.596,-252.104 785.096,-262.104 792.096,-262.104"/>
</g>
<!-- 32 -->
<g id="node33" class="node"><title>32</title>
<g id="a_node33"><a xlink:title="32, diversity: 1, multiplicities: 4, labels: 0">
<ellipse fill="#fee3d6" stroke="black" cx="788.596" cy="-378" rx="41.6928" ry="18"/>
<text text-anchor="middle" x="788.596" y="-374.3" font-family="Times,serif" font-size="14.00">32 (1): 0</text>
</a>
</g>
</g>
<!-- 32&#45;&gt;31 -->
<g id="edge11" class="edge"><title>32&#45;&gt;31</title>
<path fill="none" stroke="black" d="M788.596,-359.697C788.596,-351.983 788.596,-342.712 788.596,-334.112"/>
<polygon fill="black" stroke="black" points="792.096,-334.104 788.596,-324.104 785.096,-334.104 792.096,-334.104"/>
</g>
<!-- 33 -->
<g id="node34" class="node"><title>33</title>
<g id="a_node34"><a xlink:title="33, diversity: 1, multiplicities: 1, labels: 0">
<ellipse fill="#fff5f0" stroke="black" cx="788.596" cy="-450" rx="41.6928" ry="18"/>
<text text-anchor="middle" x="788.596" y="-446.3" font-family="Times,serif" font-size="14.00">33 (1): 0</text>
</a>
</g>
</g>
<!-- 33&#45;&gt;32 -->
<g id="edge14" class="edge"><title>33&#45;&gt;32</title>
<path fill="none" stroke="black" d="M788.596,-431.697C788.596,-423.983 788.596,-414.712 788.596,-406.112"/>
<polygon fill="black" stroke="black" points="792.096,-406.104 788.596,-396.104 785.096,-406.104 792.096,-406.104"/>
</g>
<!-- 34 -->
<g id="node35" class="node"><title>34</title>
<g id="a_node35"><a xlink:title="34, diversity: 1, multiplicities: 19, labels: 0">
<ellipse fill="#fca082" stroke="black" cx="351.596" cy="-666" rx="41.6928" ry="18"/>
<text text-anchor="middle" x="351.596" y="-662.3" font-family="Times,serif" font-size="14.00">34 (1): 0</text>
</a>
</g>
</g>
<!-- 44 -->
<g id="node45" class="node"><title>44</title>
<g id="a_node45"><a xlink:title="44, diversity: 1, multiplicities: 2, labels: 0">
<ellipse fill="#fee3d6" stroke="black" cx="259.596" cy="-594" rx="41.6928" ry="18"/>
<text text-anchor="middle" x="259.596" y="-590.3" font-family="Times,serif" font-size="14.00">44 (1): 0</text>
</a>
</g>
</g>
<!-- 34&#45;&gt;44 -->
<g id="edge60" class="edge"><title>34&#45;&gt;44</title>
<path fill="none" stroke="black" d="M331.634,-649.811C318.646,-639.929 301.528,-626.905 287.238,-616.032"/>
<polygon fill="black" stroke="black" points="289.282,-613.189 279.204,-609.919 285.043,-618.76 289.282,-613.189"/>
</g>
<!-- 35&#45;&gt;29 -->
<g id="edge19" class="edge"><title>35&#45;&gt;29</title>
<path fill="none" stroke="black" d="M229.177,-722.155C214.617,-712.064 195.165,-698.583 179.138,-687.474"/>
<polygon fill="black" stroke="black" points="180.851,-684.403 170.639,-681.584 176.864,-690.157 180.851,-684.403"/>
</g>
<!-- 37 -->
<g id="node38" class="node"><title>37</title>
<g id="a_node38"><a xlink:title="37, diversity: 1, multiplicities: 8, labels: 0">
<ellipse fill="#fcc4ad" stroke="black" cx="250.596" cy="-666" rx="41.6928" ry="18"/>
<text text-anchor="middle" x="250.596" y="-662.3" font-family="Times,serif" font-size="14.00">37 (1): 0</text>
</a>
</g>
</g>
<!-- 35&#45;&gt;37 -->
<g id="edge18" class="edge"><title>35&#45;&gt;37</title>
<path fill="none" stroke="black" d="M250.596,-719.697C250.596,-711.983 250.596,-702.712 250.596,-694.112"/>
<polygon fill="black" stroke="black" points="254.096,-694.104 250.596,-684.104 247.096,-694.104 254.096,-694.104"/>
</g>
<!-- 36 -->
<g id="node37" class="node"><title>36</title>
<g id="a_node37"><a xlink:title="36, diversity: 1, multiplicities: 23, labels: 0">
<ellipse fill="#fca082" stroke="black" cx="142.596" cy="-522" rx="41.6928" ry="18"/>
<text text-anchor="middle" x="142.596" y="-518.3" font-family="Times,serif" font-size="14.00">36 (1): 0</text>
</a>
</g>
</g>
<!-- 38 -->
<g id="node39" class="node"><title>38</title>
<g id="a_node39"><a xlink:title="38, diversity: 1, multiplicities: 42, labels: 0">
<ellipse fill="#fca082" stroke="black" cx="142.596" cy="-450" rx="41.6928" ry="18"/>
<text text-anchor="middle" x="142.596" y="-446.3" font-family="Times,serif" font-size="14.00">38 (1): 0</text>
</a>
</g>
</g>
<!-- 36&#45;&gt;38 -->
<g id="edge21" class="edge"><title>36&#45;&gt;38</title>
<path fill="none" stroke="black" d="M142.596,-503.697C142.596,-495.983 142.596,-486.712 142.596,-478.112"/>
<polygon fill="black" stroke="black" points="146.096,-478.104 142.596,-468.104 139.096,-478.104 146.096,-478.104"/>
</g>
<!-- 45 -->
<g id="node46" class="node"><title>45</title>
<g id="a_node46"><a xlink:title="45, diversity: 1, multiplicities: 6, labels: 0">
<ellipse fill="#fcc4ad" stroke="black" cx="41.5963" cy="-450" rx="41.6928" ry="18"/>
<text text-anchor="middle" x="41.5963" y="-446.3" font-family="Times,serif" font-size="14.00">45 (1): 0</text>
</a>
</g>
</g>
<!-- 36&#45;&gt;45 -->
<g id="edge56" class="edge"><title>36&#45;&gt;45</title>
<path fill="none" stroke="black" d="M121.177,-506.155C106.617,-496.064 87.1654,-482.583 71.1378,-471.474"/>
<polygon fill="black" stroke="black" points="72.8513,-468.403 62.6386,-465.584 68.8639,-474.157 72.8513,-468.403"/>
</g>
<!-- 41 -->
<g id="node42" class="node"><title>41</title>
<g id="a_node42"><a xlink:title="41, diversity: 1, multiplicities: 6, labels: 0">
<ellipse fill="#fcc4ad" stroke="black" cx="92.5963" cy="-378" rx="41.6928" ry="18"/>
<text text-anchor="middle" x="92.5963" y="-374.3" font-family="Times,serif" font-size="14.00">41 (1): 0</text>
</a>
</g>
</g>
<!-- 38&#45;&gt;41 -->
<g id="edge34" class="edge"><title>38&#45;&gt;41</title>
<path fill="none" stroke="black" d="M130.747,-432.411C124.645,-423.868 117.081,-413.278 110.302,-403.787"/>
<polygon fill="black" stroke="black" points="113.021,-401.573 104.361,-395.47 107.325,-405.642 113.021,-401.573"/>
</g>
<!-- 42 -->
<g id="node43" class="node"><title>42</title>
<g id="a_node43"><a xlink:title="42, diversity: 1, multiplicities: 10, labels: 0">
<ellipse fill="#fcc4ad" stroke="black" cx="193.596" cy="-378" rx="41.6928" ry="18"/>
<text text-anchor="middle" x="193.596" y="-374.3" font-family="Times,serif" font-size="14.00">42 (1): 0</text>
</a>
</g>
</g>
<!-- 38&#45;&gt;42 -->
<g id="edge54" class="edge"><title>38&#45;&gt;42</title>
<path fill="none" stroke="black" d="M154.683,-432.411C160.907,-423.868 168.622,-413.278 175.537,-403.787"/>
<polygon fill="black" stroke="black" points="178.537,-405.613 181.597,-395.47 172.879,-401.491 178.537,-405.613"/>
</g>
<!-- 39 -->
<g id="node40" class="node"><title>39</title>
<g id="a_node40"><a xlink:title="39, diversity: 1, multiplicities: 2, labels: 0">
<ellipse fill="#fee3d6" stroke="black" cx="351.596" cy="-738" rx="41.6928" ry="18"/>
<text text-anchor="middle" x="351.596" y="-734.3" font-family="Times,serif" font-size="14.00">39 (1): 0</text>
</a>
</g>
</g>
<!-- 39&#45;&gt;34 -->
<g id="edge47" class="edge"><title>39&#45;&gt;34</title>
<path fill="none" stroke="black" d="M351.596,-719.697C351.596,-711.983 351.596,-702.712 351.596,-694.112"/>
<polygon fill="black" stroke="black" points="355.096,-694.104 351.596,-684.104 348.096,-694.104 355.096,-694.104"/>
</g>
<!-- 40&#45;&gt;35 -->
<g id="edge50" class="edge"><title>40&#45;&gt;35</title>
<path fill="none" stroke="black" d="M323.417,-793.811C310.287,-783.929 292.984,-770.905 278.539,-760.032"/>
<polygon fill="black" stroke="black" points="280.512,-757.136 270.417,-753.919 276.302,-762.729 280.512,-757.136"/>
</g>
<!-- 40&#45;&gt;39 -->
<g id="edge43" class="edge"><title>40&#45;&gt;39</title>
<path fill="none" stroke="black" d="M345.574,-791.697C346.455,-783.983 347.515,-774.712 348.498,-766.112"/>
<polygon fill="black" stroke="black" points="351.983,-766.437 349.642,-756.104 345.029,-765.642 351.983,-766.437"/>
</g>
<!-- 43 -->
<g id="node44" class="node"><title>43</title>
<g id="a_node44"><a xlink:title="43, diversity: 1, multiplicities: 5, labels: 0">
<ellipse fill="#fee3d6" stroke="black" cx="193.596" cy="-306" rx="41.6928" ry="18"/>
<text text-anchor="middle" x="193.596" y="-302.3" font-family="Times,serif" font-size="14.00">43 (1): 0</text>
</a>
</g>
</g>
<!-- 42&#45;&gt;43 -->
<g id="edge36" class="edge"><title>42&#45;&gt;43</title>
<path fill="none" stroke="black" d="M193.596,-359.697C193.596,-351.983 193.596,-342.712 193.596,-334.112"/>
<polygon fill="black" stroke="black" points="197.096,-334.104 193.596,-324.104 190.096,-334.104 197.096,-334.104"/>
</g>
<!-- 44&#45;&gt;36 -->
<g id="edge57" class="edge"><title>44&#45;&gt;36</title>
<path fill="none" stroke="black" d="M236.201,-579.003C218.585,-568.463 194.229,-553.891 174.778,-542.254"/>
<polygon fill="black" stroke="black" points="176.33,-539.104 165.951,-536.973 172.736,-545.111 176.33,-539.104"/>
</g>
<!-- 46 -->
<g id="node47" class="node"><title>46</title>
<g id="a_node47"><a xlink:title="46, diversity: 1, multiplicities: 49, labels: 0">
<ellipse fill="#fca082" stroke="black" cx="444.596" cy="-1026" rx="41.6928" ry="18"/>
<text text-anchor="middle" x="444.596" y="-1022.3" font-family="Times,serif" font-size="14.00">46 (1): 0</text>
</a>
</g>
</g>
<!-- 47 -->
<g id="node48" class="node"><title>47</title>
<g id="a_node48"><a xlink:title="47, diversity: 1, multiplicities: 1, labels: 0">
<ellipse fill="#fff5f0" stroke="black" cx="444.596" cy="-1098" rx="41.6928" ry="18"/>
<text text-anchor="middle" x="444.596" y="-1094.3" font-family="Times,serif" font-size="14.00">47 (1): 0</text>
</a>
</g>
</g>
<!-- 47&#45;&gt;21 -->
<g id="edge35" class="edge"><title>47&#45;&gt;21</title>
<path fill="none" stroke="black" d="M423.177,-1082.15C408.617,-1072.06 389.165,-1058.58 373.138,-1047.47"/>
<polygon fill="black" stroke="black" points="374.851,-1044.4 364.639,-1041.58 370.864,-1050.16 374.851,-1044.4"/>
</g>
<!-- 47&#45;&gt;46 -->
<g id="edge16" class="edge"><title>47&#45;&gt;46</title>
<path fill="none" stroke="black" d="M444.596,-1079.7C444.596,-1071.98 444.596,-1062.71 444.596,-1054.11"/>
<polygon fill="black" stroke="black" points="448.096,-1054.1 444.596,-1044.1 441.096,-1054.1 448.096,-1054.1"/>
</g>
<!-- 55 -->
<g id="node56" class="node"><title>55</title>
<g id="a_node56"><a xlink:title="55, diversity: 1, multiplicities: 31, labels: 0">
<ellipse fill="#fca082" stroke="black" cx="545.596" cy="-1026" rx="41.6928" ry="18"/>
<text text-anchor="middle" x="545.596" y="-1022.3" font-family="Times,serif" font-size="14.00">55 (1): 0</text>
</a>
</g>
</g>
<!-- 47&#45;&gt;55 -->
<g id="edge10" class="edge"><title>47&#45;&gt;55</title>
<path fill="none" stroke="black" d="M466.016,-1082.15C480.575,-1072.06 500.027,-1058.58 516.055,-1047.47"/>
<polygon fill="black" stroke="black" points="518.329,-1050.16 524.554,-1041.58 514.341,-1044.4 518.329,-1050.16"/>
</g>
<!-- 49 -->
<g id="node50" class="node"><title>49</title>
<g id="a_node50"><a xlink:title="49, diversity: 1, multiplicities: 11, labels: 0">
<ellipse fill="#fca082" stroke="black" cx="538.596" cy="-378" rx="41.6928" ry="18"/>
<text text-anchor="middle" x="538.596" y="-374.3" font-family="Times,serif" font-size="14.00">49 (1): 0</text>
</a>
</g>
</g>
<!-- 48&#45;&gt;49 -->
<g id="edge38" class="edge"><title>48&#45;&gt;49</title>
<path fill="none" stroke="black" d="M538.596,-431.697C538.596,-423.983 538.596,-414.712 538.596,-406.112"/>
<polygon fill="black" stroke="black" points="542.096,-406.104 538.596,-396.104 535.096,-406.104 542.096,-406.104"/>
</g>
<!-- 51 -->
<g id="node52" class="node"><title>51</title>
<g id="a_node52"><a xlink:title="51, diversity: 1, multiplicities: 17, labels: 0">
<ellipse fill="#fca082" stroke="black" cx="788.596" cy="-90" rx="41.6928" ry="18"/>
<text text-anchor="middle" x="788.596" y="-86.3" font-family="Times,serif" font-size="14.00">51 (1): 0</text>
</a>
</g>
</g>
<!-- 52 -->
<g id="node53" class="node"><title>52</title>
<g id="a_node53"><a xlink:title="52, diversity: 1, multiplicities: 6, labels: 0">
<ellipse fill="#fcc4ad" stroke="black" cx="788.596" cy="-18" rx="41.6928" ry="18"/>
<text text-anchor="middle" x="788.596" y="-14.3" font-family="Times,serif" font-size="14.00">52 (1): 0</text>
</a>
</g>
</g>
<!-- 51&#45;&gt;52 -->
<g id="edge23" class="edge"><title>51&#45;&gt;52</title>
<path fill="none" stroke="black" d="M788.596,-71.6966C788.596,-63.9827 788.596,-54.7125 788.596,-46.1124"/>
<polygon fill="black" stroke="black" points="792.096,-46.1043 788.596,-36.1043 785.096,-46.1044 792.096,-46.1043"/>
</g>
<!-- 54 -->
<g id="node55" class="node"><title>54</title>
<g id="a_node55"><a xlink:title="54, diversity: 1, multiplicities: 1, labels: 0">
<ellipse fill="#fff5f0" stroke="black" cx="816.596" cy="-522" rx="41.6928" ry="18"/>
<text text-anchor="middle" x="816.596" y="-518.3" font-family="Times,serif" font-size="14.00">54 (1): 0</text>
</a>
</g>
</g>
<!-- 53&#45;&gt;54 -->
<g id="edge52" class="edge"><title>53&#45;&gt;54</title>
<path fill="none" stroke="black" d="M815.844,-575.697C815.954,-567.983 816.086,-558.712 816.209,-550.112"/>
<polygon fill="black" stroke="black" points="819.709,-550.153 816.352,-540.104 812.709,-550.053 819.709,-550.153"/>
</g>
<!-- 54&#45;&gt;33 -->
<g id="edge58" class="edge"><title>54&#45;&gt;33</title>
<path fill="none" stroke="black" d="M809.818,-504.055C806.585,-495.973 802.645,-486.121 799.041,-477.112"/>
<polygon fill="black" stroke="black" points="802.276,-475.774 795.312,-467.789 795.776,-478.374 802.276,-475.774"/>
</g>
<!-- 55&#45;&gt;13 -->
<g id="edge15" class="edge"><title>55&#45;&gt;13</title>
<path fill="none" stroke="black" d="M566.938,-1010.5C581.991,-1000.27 602.353,-986.428 618.977,-975.13"/>
<polygon fill="black" stroke="black" points="620.979,-978.001 627.282,-969.485 617.044,-972.212 620.979,-978.001"/>
</g>
<!-- 56 -->
<g id="node57" class="node"><title>56</title>
<g id="a_node57"><a xlink:title="56, diversity: 1, multiplicities: 5, labels: 0">
<ellipse fill="#fee3d6" stroke="black" cx="545.596" cy="-954" rx="41.6928" ry="18"/>
<text text-anchor="middle" x="545.596" y="-950.3" font-family="Times,serif" font-size="14.00">56 (1): 0</text>
</a>
</g>
</g>
<!-- 55&#45;&gt;56 -->
<g id="edge40" class="edge"><title>55&#45;&gt;56</title>
<path fill="none" stroke="black" d="M545.596,-1007.7C545.596,-999.983 545.596,-990.712 545.596,-982.112"/>
<polygon fill="black" stroke="black" points="549.096,-982.104 545.596,-972.104 542.096,-982.104 549.096,-982.104"/>
</g>
<!-- 58 -->
<g id="node59" class="node"><title>58</title>
<g id="a_node59"><a xlink:title="58, diversity: 1, multiplicities: 1, labels: 0">
<ellipse fill="#fff5f0" stroke="black" cx="788.596" cy="-162" rx="41.6928" ry="18"/>
<text text-anchor="middle" x="788.596" y="-158.3" font-family="Times,serif" font-size="14.00">58 (1): 0</text>
</a>
</g>
</g>
<!-- 57&#45;&gt;58 -->
<g id="edge20" class="edge"><title>57&#45;&gt;58</title>
<path fill="none" stroke="black" d="M788.596,-215.697C788.596,-207.983 788.596,-198.712 788.596,-190.112"/>
<polygon fill="black" stroke="black" points="792.096,-190.104 788.596,-180.104 785.096,-190.104 792.096,-190.104"/>
</g>
<!-- 58&#45;&gt;51 -->
<g id="edge53" class="edge"><title>58&#45;&gt;51</title>
<path fill="none" stroke="black" d="M788.596,-143.697C788.596,-135.983 788.596,-126.712 788.596,-118.112"/>
<polygon fill="black" stroke="black" points="792.096,-118.104 788.596,-108.104 785.096,-118.104 792.096,-118.104"/>
</g>
<!-- 59&#45;&gt;6 -->
<g id="edge25" class="edge"><title>59&#45;&gt;6</title>
<path fill="none" stroke="black" d="M671.101,-864.055C674.68,-855.973 679.043,-846.121 683.033,-837.112"/>
<polygon fill="black" stroke="black" points="686.312,-838.35 687.161,-827.789 679.912,-835.515 686.312,-838.35"/>
</g>
</g>
</svg>
