<?xml version="1.0" encoding="UTF-8" standalone="no"?>
<!DOCTYPE svg PUBLIC "-//W3C//DTD SVG 1.1//EN"
 "http://www.w3.org/Graphics/SVG/1.1/DTD/svg11.dtd">
<!-- Generated by graphviz version 2.38.0 (20140413.2041)
 -->
<!-- Title: %3 Pages: 1 -->
<svg width="420pt" height="476pt"
 viewBox="0.00 0.00 420.19 476.00" xmlns="http://www.w3.org/2000/svg" xmlns:xlink="http://www.w3.org/1999/xlink">
<g id="graph0" class="graph" transform="scale(1 1) rotate(0) translate(4 472)">
<title>%3</title>
<polygon fill="white" stroke="none" points="-4,4 -4,-472 416.193,-472 416.193,4 -4,4"/>
<!-- 0 -->
<g id="node1" class="node"><title>0</title>
<g id="a_node1"><a xlink:title="0, diversity: 1, multiplicities: 119, labels: 0">
<ellipse fill="#fb7c5c" stroke="black" cx="138.596" cy="-18" rx="37.0935" ry="18"/>
<text text-anchor="middle" x="138.596" y="-14.3" font-family="Times,serif" font-size="14.00">0 (1): 0</text>
</a>
</g>
</g>
<!-- 1 -->
<g id="node2" class="node"><title>1</title>
<g id="a_node2"><a xlink:title="1, diversity: 1, multiplicities: 295, labels: 0">
<ellipse fill="#f6553c" stroke="black" cx="89.5963" cy="-378" rx="37.0935" ry="18"/>
<text text-anchor="middle" x="89.5963" y="-374.3" font-family="Times,serif" font-size="14.00">1 (1): 0</text>
</a>
</g>
</g>
<!-- 9 -->
<g id="node10" class="node"><title>9</title>
<g id="a_node10"><a xlink:title="9, diversity: 1, multiplicities: 1, labels: 0">
<ellipse fill="#fff5f0" stroke="black" cx="89.5963" cy="-306" rx="37.0935" ry="18"/>
<text text-anchor="middle" x="89.5963" y="-302.3" font-family="Times,serif" font-size="14.00">9 (1): 0</text>
</a>
</g>
</g>
<!-- 1&#45;&gt;9 -->
<g id="edge10" class="edge"><title>1&#45;&gt;9</title>
<path fill="none" stroke="black" d="M89.5963,-359.697C89.5963,-351.983 89.5963,-342.712 89.5963,-334.112"/>
<polygon fill="black" stroke="black" points="93.0964,-334.104 89.5963,-324.104 86.0964,-334.104 93.0964,-334.104"/>
</g>
<!-- 2 -->
<g id="node3" class="node"><title>2</title>
<g id="a_node3"><a xlink:title="2, diversity: 1, multiplicities: 162, labels: 0">
<ellipse fill="#fb7c5c" stroke="black" cx="181.596" cy="-378" rx="37.0935" ry="18"/>
<text text-anchor="middle" x="181.596" y="-374.3" font-family="Times,serif" font-size="14.00">2 (1): 0</text>
</a>
</g>
</g>
<!-- 3 -->
<g id="node4" class="node"><title>3</title>
<g id="a_node4"><a xlink:title="3, diversity: 4, multiplicities: 1,2,65,282, labels: 0">
<ellipse fill="#f6553c" stroke="black" cx="227.596" cy="-450" rx="37.0935" ry="18"/>
<text text-anchor="middle" x="227.596" y="-446.3" font-family="Times,serif" font-size="14.00">3 (4): 0</text>
</a>
</g>
</g>
<!-- 3&#45;&gt;1 -->
<g id="edge6" class="edge"><title>3&#45;&gt;1</title>
<path fill="none" stroke="black" d="M202.925,-436.485C180.789,-425.257 148.098,-408.675 123.508,-396.202"/>
<polygon fill="black" stroke="black" points="125.021,-393.045 114.52,-391.642 121.855,-399.287 125.021,-393.045"/>
</g>
<!-- 3&#45;&gt;2 -->
<g id="edge2" class="edge"><title>3&#45;&gt;2</title>
<path fill="none" stroke="black" d="M216.695,-432.411C211.138,-423.955 204.264,-413.494 198.076,-404.078"/>
<polygon fill="black" stroke="black" points="200.836,-401.905 192.419,-395.47 194.986,-405.749 200.836,-401.905"/>
</g>
<!-- 5 -->
<g id="node6" class="node"><title>5</title>
<g id="a_node6"><a xlink:title="5, diversity: 1, multiplicities: 50, labels: 0">
<ellipse fill="#fca082" stroke="black" cx="273.596" cy="-378" rx="37.0935" ry="18"/>
<text text-anchor="middle" x="273.596" y="-374.3" font-family="Times,serif" font-size="14.00">5 (1): 0</text>
</a>
</g>
</g>
<!-- 3&#45;&gt;5 -->
<g id="edge15" class="edge"><title>3&#45;&gt;5</title>
<path fill="none" stroke="black" d="M238.498,-432.411C244.055,-423.955 250.929,-413.494 257.116,-404.078"/>
<polygon fill="black" stroke="black" points="260.206,-405.749 262.773,-395.47 254.356,-401.905 260.206,-405.749"/>
</g>
<!-- 14 -->
<g id="node15" class="node"><title>14</title>
<g id="a_node15"><a xlink:title="14, diversity: 1, multiplicities: 1, labels: 0">
<ellipse fill="#fff5f0" stroke="black" cx="370.596" cy="-378" rx="41.6928" ry="18"/>
<text text-anchor="middle" x="370.596" y="-374.3" font-family="Times,serif" font-size="14.00">14 (1): 0</text>
</a>
</g>
</g>
<!-- 3&#45;&gt;14 -->
<g id="edge14" class="edge"><title>3&#45;&gt;14</title>
<path fill="none" stroke="black" d="M252.833,-436.647C275.684,-425.461 309.584,-408.866 335.153,-396.35"/>
<polygon fill="black" stroke="black" points="336.717,-399.481 344.16,-391.941 333.639,-393.194 336.717,-399.481"/>
</g>
<!-- 4 -->
<g id="node5" class="node"><title>4</title>
<g id="a_node5"><a xlink:title="4, diversity: 1, multiplicities: 87, labels: 0">
<ellipse fill="#fca082" stroke="black" cx="370.596" cy="-234" rx="37.0935" ry="18"/>
<text text-anchor="middle" x="370.596" y="-230.3" font-family="Times,serif" font-size="14.00">4 (1): 0</text>
</a>
</g>
</g>
<!-- 6 -->
<g id="node7" class="node"><title>6</title>
<g id="a_node7"><a xlink:title="6, diversity: 1, multiplicities: 1, labels: 0">
<ellipse fill="#fff5f0" stroke="black" cx="138.596" cy="-90" rx="37.0935" ry="18"/>
<text text-anchor="middle" x="138.596" y="-86.3" font-family="Times,serif" font-size="14.00">6 (1): 0</text>
</a>
</g>
</g>
<!-- 6&#45;&gt;0 -->
<g id="edge7" class="edge"><title>6&#45;&gt;0</title>
<path fill="none" stroke="black" d="M138.596,-71.6966C138.596,-63.9827 138.596,-54.7125 138.596,-46.1124"/>
<polygon fill="black" stroke="black" points="142.096,-46.1043 138.596,-36.1043 135.096,-46.1044 142.096,-46.1043"/>
</g>
<!-- 7 -->
<g id="node8" class="node"><title>7</title>
<g id="a_node8"><a xlink:title="7, diversity: 1, multiplicities: 10, labels: 0">
<ellipse fill="#fcc4ad" stroke="black" cx="230.596" cy="-18" rx="37.0935" ry="18"/>
<text text-anchor="middle" x="230.596" y="-14.3" font-family="Times,serif" font-size="14.00">7 (1): 0</text>
</a>
</g>
</g>
<!-- 6&#45;&gt;7 -->
<g id="edge3" class="edge"><title>6&#45;&gt;7</title>
<path fill="none" stroke="black" d="M157.659,-74.496C170.858,-64.4532 188.625,-50.9344 203.32,-39.7541"/>
<polygon fill="black" stroke="black" points="205.719,-42.3261 211.558,-33.4855 201.481,-36.7553 205.719,-42.3261"/>
</g>
<!-- 8 -->
<g id="node9" class="node"><title>8</title>
<g id="a_node9"><a xlink:title="8, diversity: 1, multiplicities: 1, labels: 0">
<ellipse fill="#fff5f0" stroke="black" cx="41.5963" cy="-162" rx="37.0935" ry="18"/>
<text text-anchor="middle" x="41.5963" y="-158.3" font-family="Times,serif" font-size="14.00">8 (1): 0</text>
</a>
</g>
</g>
<!-- 12 -->
<g id="node13" class="node"><title>12</title>
<g id="a_node13"><a xlink:title="12, diversity: 1, multiplicities: 81, labels: 0">
<ellipse fill="#fca082" stroke="black" cx="41.5963" cy="-90" rx="41.6928" ry="18"/>
<text text-anchor="middle" x="41.5963" y="-86.3" font-family="Times,serif" font-size="14.00">12 (1): 0</text>
</a>
</g>
</g>
<!-- 8&#45;&gt;12 -->
<g id="edge4" class="edge"><title>8&#45;&gt;12</title>
<path fill="none" stroke="black" d="M41.5963,-143.697C41.5963,-135.983 41.5963,-126.712 41.5963,-118.112"/>
<polygon fill="black" stroke="black" points="45.0964,-118.104 41.5963,-108.104 38.0964,-118.104 45.0964,-118.104"/>
</g>
<!-- 10 -->
<g id="node11" class="node"><title>10</title>
<g id="a_node11"><a xlink:title="10, diversity: 2, multiplicities: 5,5, labels: 0">
<ellipse fill="#fcc4ad" stroke="black" cx="89.5963" cy="-234" rx="41.6928" ry="18"/>
<text text-anchor="middle" x="89.5963" y="-230.3" font-family="Times,serif" font-size="14.00">10 (2): 0</text>
</a>
</g>
</g>
<!-- 9&#45;&gt;10 -->
<g id="edge8" class="edge"><title>9&#45;&gt;10</title>
<path fill="none" stroke="black" d="M89.5963,-287.697C89.5963,-279.983 89.5963,-270.712 89.5963,-262.112"/>
<polygon fill="black" stroke="black" points="93.0964,-262.104 89.5963,-252.104 86.0964,-262.104 93.0964,-262.104"/>
</g>
<!-- 10&#45;&gt;8 -->
<g id="edge1" class="edge"><title>10&#45;&gt;8</title>
<path fill="none" stroke="black" d="M78.221,-216.411C72.3627,-207.868 65.1016,-197.278 58.5934,-187.787"/>
<polygon fill="black" stroke="black" points="61.4319,-185.738 52.89,-179.47 55.6588,-189.697 61.4319,-185.738"/>
</g>
<!-- 11 -->
<g id="node12" class="node"><title>11</title>
<g id="a_node12"><a xlink:title="11, diversity: 2, multiplicities: 1,105, labels: 0">
<ellipse fill="#fb7c5c" stroke="black" cx="138.596" cy="-162" rx="41.6928" ry="18"/>
<text text-anchor="middle" x="138.596" y="-158.3" font-family="Times,serif" font-size="14.00">11 (2): 0</text>
</a>
</g>
</g>
<!-- 10&#45;&gt;11 -->
<g id="edge12" class="edge"><title>10&#45;&gt;11</title>
<path fill="none" stroke="black" d="M101.209,-216.411C107.189,-207.868 114.601,-197.278 121.245,-187.787"/>
<polygon fill="black" stroke="black" points="124.2,-189.669 127.067,-179.47 118.465,-185.655 124.2,-189.669"/>
</g>
<!-- 11&#45;&gt;6 -->
<g id="edge13" class="edge"><title>11&#45;&gt;6</title>
<path fill="none" stroke="black" d="M138.596,-143.697C138.596,-135.983 138.596,-126.712 138.596,-118.112"/>
<polygon fill="black" stroke="black" points="142.096,-118.104 138.596,-108.104 135.096,-118.104 142.096,-118.104"/>
</g>
<!-- 13 -->
<g id="node14" class="node"><title>13</title>
<g id="a_node14"><a xlink:title="13, diversity: 1, multiplicities: 95, labels: 0">
<ellipse fill="#fca082" stroke="black" cx="41.5963" cy="-18" rx="41.6928" ry="18"/>
<text text-anchor="middle" x="41.5963" y="-14.3" font-family="Times,serif" font-size="14.00">13 (1): 0</text>
</a>
</g>
</g>
<!-- 12&#45;&gt;13 -->
<g id="edge5" class="edge"><title>12&#45;&gt;13</title>
<path fill="none" stroke="black" d="M41.5963,-71.6966C41.5963,-63.9827 41.5963,-54.7125 41.5963,-46.1124"/>
<polygon fill="black" stroke="black" points="45.0964,-46.1043 41.5963,-36.1043 38.0964,-46.1044 45.0964,-46.1043"/>
</g>
<!-- 15 -->
<g id="node16" class="node"><title>15</title>
<g id="a_node16"><a xlink:title="15, diversity: 1, multiplicities: 1, labels: 0">
<ellipse fill="#fff5f0" stroke="black" cx="370.596" cy="-306" rx="41.6928" ry="18"/>
<text text-anchor="middle" x="370.596" y="-302.3" font-family="Times,serif" font-size="14.00">15 (1): 0</text>
</a>
</g>
</g>
<!-- 14&#45;&gt;15 -->
<g id="edge9" class="edge"><title>14&#45;&gt;15</title>
<path fill="none" stroke="black" d="M370.596,-359.697C370.596,-351.983 370.596,-342.712 370.596,-334.112"/>
<polygon fill="black" stroke="black" points="374.096,-334.104 370.596,-324.104 367.096,-334.104 374.096,-334.104"/>
</g>
<!-- 15&#45;&gt;4 -->
<g id="edge11" class="edge"><title>15&#45;&gt;4</title>
<path fill="none" stroke="black" d="M370.596,-287.697C370.596,-279.983 370.596,-270.712 370.596,-262.112"/>
<polygon fill="black" stroke="black" points="374.096,-262.104 370.596,-252.104 367.096,-262.104 374.096,-262.104"/>
</g>
</g>
</svg>
