<?xml version="1.0" encoding="UTF-8" standalone="no"?>
<!DOCTYPE svg PUBLIC "-//W3C//DTD SVG 1.1//EN"
 "http://www.w3.org/Graphics/SVG/1.1/DTD/svg11.dtd">
<!-- Generated by graphviz version 2.38.0 (20140413.2041)
 -->
<!-- Title: %3 Pages: 1 -->
<svg width="450pt" height="188pt"
 viewBox="0.00 0.00 450.09 188.00" xmlns="http://www.w3.org/2000/svg" xmlns:xlink="http://www.w3.org/1999/xlink">
<g id="graph0" class="graph" transform="scale(1 1) rotate(0) translate(4 184)">
<title>%3</title>
<polygon fill="white" stroke="none" points="-4,4 -4,-184 446.093,-184 446.093,4 -4,4"/>
<!-- 0 -->
<g id="node1" class="node"><title>0</title>
<g id="a_node1"><a xlink:title="0, diversity: 4, multiplicities: 1,49,60,76, labels: 0">
<ellipse fill="#fb7c5c" stroke="black" cx="267.047" cy="-162" rx="37.0935" ry="18"/>
<text text-anchor="middle" x="267.047" y="-158.3" font-family="Times,serif" font-size="14.00">0 (4): 0</text>
</a>
</g>
</g>
<!-- 2 -->
<g id="node3" class="node"><title>2</title>
<g id="a_node3"><a xlink:title="2, diversity: 1, multiplicities: 39, labels: 0">
<ellipse fill="#fca082" stroke="black" cx="37.0467" cy="-90" rx="37.0935" ry="18"/>
<text text-anchor="middle" x="37.0467" y="-86.3" font-family="Times,serif" font-size="14.00">2 (1): 0</text>
</a>
</g>
</g>
<!-- 0&#45;&gt;2 -->
<g id="edge4" class="edge"><title>0&#45;&gt;2</title>
<path fill="none" stroke="black" d="M235.249,-152.605C198.396,-142.699 135.951,-125.369 83.0467,-108 80.3166,-107.104 77.5068,-106.148 74.6859,-105.165"/>
<polygon fill="black" stroke="black" points="75.7456,-101.827 65.151,-101.759 73.3908,-108.419 75.7456,-101.827"/>
</g>
<!-- 3 -->
<g id="node4" class="node"><title>3</title>
<g id="a_node4"><a xlink:title="3, diversity: 3, multiplicities: 13,14,14, labels: 0">
<ellipse fill="#fca082" stroke="black" cx="129.047" cy="-90" rx="37.0935" ry="18"/>
<text text-anchor="middle" x="129.047" y="-86.3" font-family="Times,serif" font-size="14.00">3 (3): 0</text>
</a>
</g>
</g>
<!-- 0&#45;&gt;3 -->
<g id="edge10" class="edge"><title>0&#45;&gt;3</title>
<path fill="none" stroke="black" d="M242.375,-148.485C220.239,-137.257 187.548,-120.675 162.959,-108.202"/>
<polygon fill="black" stroke="black" points="164.472,-105.045 153.97,-103.642 161.305,-111.287 164.472,-105.045"/>
</g>
<!-- 4 -->
<g id="node5" class="node"><title>4</title>
<g id="a_node5"><a xlink:title="4, diversity: 1, multiplicities: 53, labels: 0">
<ellipse fill="#fca082" stroke="black" cx="221.047" cy="-90" rx="37.0935" ry="18"/>
<text text-anchor="middle" x="221.047" y="-86.3" font-family="Times,serif" font-size="14.00">4 (1): 0</text>
</a>
</g>
</g>
<!-- 0&#45;&gt;4 -->
<g id="edge6" class="edge"><title>0&#45;&gt;4</title>
<path fill="none" stroke="black" d="M256.145,-144.411C250.588,-135.955 243.714,-125.494 237.527,-116.078"/>
<polygon fill="black" stroke="black" points="240.287,-113.905 231.87,-107.47 234.437,-117.749 240.287,-113.905"/>
</g>
<!-- 7 -->
<g id="node8" class="node"><title>7</title>
<g id="a_node8"><a xlink:title="7, diversity: 2, multiplicities: 11,11, labels: 0">
<ellipse fill="#fca082" stroke="black" cx="313.047" cy="-90" rx="37.0935" ry="18"/>
<text text-anchor="middle" x="313.047" y="-86.3" font-family="Times,serif" font-size="14.00">7 (2): 0</text>
</a>
</g>
</g>
<!-- 0&#45;&gt;7 -->
<g id="edge3" class="edge"><title>0&#45;&gt;7</title>
<path fill="none" stroke="black" d="M277.948,-144.411C283.505,-135.955 290.379,-125.494 296.567,-116.078"/>
<polygon fill="black" stroke="black" points="299.657,-117.749 302.224,-107.47 293.807,-113.905 299.657,-117.749"/>
</g>
<!-- 8 -->
<g id="node9" class="node"><title>8</title>
<g id="a_node9"><a xlink:title="8, diversity: 2, multiplicities: 7,37, labels: 0">
<ellipse fill="#fca082" stroke="black" cx="405.047" cy="-90" rx="37.0935" ry="18"/>
<text text-anchor="middle" x="405.047" y="-86.3" font-family="Times,serif" font-size="14.00">8 (2): 0</text>
</a>
</g>
</g>
<!-- 0&#45;&gt;8 -->
<g id="edge8" class="edge"><title>0&#45;&gt;8</title>
<path fill="none" stroke="black" d="M288.807,-147.17C310.212,-135.511 343.017,-118.832 368.4,-106.679"/>
<polygon fill="black" stroke="black" points="370.186,-109.706 377.726,-102.262 367.19,-103.379 370.186,-109.706"/>
</g>
<!-- 1 -->
<g id="node2" class="node"><title>1</title>
<g id="a_node2"><a xlink:title="1, diversity: 1, multiplicities: 11, labels: 0">
<ellipse fill="#fca082" stroke="black" cx="175.047" cy="-18" rx="37.0935" ry="18"/>
<text text-anchor="middle" x="175.047" y="-14.3" font-family="Times,serif" font-size="14.00">1 (1): 0</text>
</a>
</g>
</g>
<!-- 5 -->
<g id="node6" class="node"><title>5</title>
<g id="a_node6"><a xlink:title="5, diversity: 1, multiplicities: 7, labels: 0">
<ellipse fill="#fcc4ad" stroke="black" cx="37.0467" cy="-18" rx="37.0935" ry="18"/>
<text text-anchor="middle" x="37.0467" y="-14.3" font-family="Times,serif" font-size="14.00">5 (1): 0</text>
</a>
</g>
</g>
<!-- 2&#45;&gt;5 -->
<g id="edge7" class="edge"><title>2&#45;&gt;5</title>
<path fill="none" stroke="black" d="M37.0467,-71.6966C37.0467,-63.9827 37.0467,-54.7125 37.0467,-46.1124"/>
<polygon fill="black" stroke="black" points="40.5468,-46.1043 37.0467,-36.1043 33.5468,-46.1044 40.5468,-46.1043"/>
</g>
<!-- 4&#45;&gt;1 -->
<g id="edge9" class="edge"><title>4&#45;&gt;1</title>
<path fill="none" stroke="black" d="M210.145,-72.411C204.588,-63.9549 197.714,-53.4944 191.527,-44.0783"/>
<polygon fill="black" stroke="black" points="194.287,-41.9049 185.87,-35.4699 188.437,-45.7492 194.287,-41.9049"/>
</g>
<!-- 6 -->
<g id="node7" class="node"><title>6</title>
<g id="a_node7"><a xlink:title="6, diversity: 1, multiplicities: 5, labels: 0">
<ellipse fill="#fee3d6" stroke="black" cx="267.047" cy="-18" rx="37.0935" ry="18"/>
<text text-anchor="middle" x="267.047" y="-14.3" font-family="Times,serif" font-size="14.00">6 (1): 0</text>
</a>
</g>
</g>
<!-- 4&#45;&gt;6 -->
<g id="edge1" class="edge"><title>4&#45;&gt;6</title>
<path fill="none" stroke="black" d="M231.948,-72.411C237.505,-63.9549 244.379,-53.4944 250.567,-44.0783"/>
<polygon fill="black" stroke="black" points="253.657,-45.7492 256.224,-35.4699 247.807,-41.9049 253.657,-45.7492"/>
</g>
<!-- 8&#45;&gt;0 -->
<g id="edge2" class="edge"><title>8&#45;&gt;0</title>
<path fill="none" stroke="black" d="M383.214,-104.869C361.796,-116.533 329.012,-133.2 303.651,-145.342"/>
<polygon fill="black" stroke="black" points="301.874,-142.31 294.334,-149.753 304.869,-148.637 301.874,-142.31"/>
</g>
<!-- 9 -->
<g id="node10" class="node"><title>9</title>
<g id="a_node10"><a xlink:title="9, diversity: 1, multiplicities: 6, labels: 0">
<ellipse fill="#fcc4ad" stroke="black" cx="405.047" cy="-18" rx="37.0935" ry="18"/>
<text text-anchor="middle" x="405.047" y="-14.3" font-family="Times,serif" font-size="14.00">9 (1): 0</text>
</a>
</g>
</g>
<!-- 8&#45;&gt;9 -->
<g id="edge5" class="edge"><title>8&#45;&gt;9</title>
<path fill="none" stroke="black" d="M405.047,-71.6966C405.047,-63.9827 405.047,-54.7125 405.047,-46.1124"/>
<polygon fill="black" stroke="black" points="408.547,-46.1043 405.047,-36.1043 401.547,-46.1044 408.547,-46.1043"/>
</g>
</g>
</svg>
