<?xml version="1.0" encoding="UTF-8" standalone="no"?>
<!DOCTYPE svg PUBLIC "-//W3C//DTD SVG 1.1//EN"
 "http://www.w3.org/Graphics/SVG/1.1/DTD/svg11.dtd">
<!-- Generated by graphviz version 2.38.0 (20140413.2041)
 -->
<!-- Title: %3 Pages: 1 -->
<svg width="370pt" height="476pt"
 viewBox="0.00 0.00 369.64 476.00" xmlns="http://www.w3.org/2000/svg" xmlns:xlink="http://www.w3.org/1999/xlink">
<g id="graph0" class="graph" transform="scale(1 1) rotate(0) translate(4 472)">
<title>%3</title>
<polygon fill="white" stroke="none" points="-4,4 -4,-472 365.643,-472 365.643,4 -4,4"/>
<!-- 0 -->
<g id="node1" class="node"><title>0</title>
<g id="a_node1"><a xlink:title="0, diversity: 1, multiplicities: 83, labels: 0">
<ellipse fill="#fca082" stroke="black" cx="42.5963" cy="-306" rx="37.0935" ry="18"/>
<text text-anchor="middle" x="42.5963" y="-302.3" font-family="Times,serif" font-size="14.00">0 (1): 0</text>
</a>
</g>
</g>
<!-- 12 -->
<g id="node13" class="node"><title>12</title>
<g id="a_node13"><a xlink:title="12, diversity: 1, multiplicities: 96, labels: 0">
<ellipse fill="#fca082" stroke="black" cx="41.5963" cy="-234" rx="41.6928" ry="18"/>
<text text-anchor="middle" x="41.5963" y="-230.3" font-family="Times,serif" font-size="14.00">12 (1): 0</text>
</a>
</g>
</g>
<!-- 0&#45;&gt;12 -->
<g id="edge7" class="edge"><title>0&#45;&gt;12</title>
<path fill="none" stroke="black" d="M42.3491,-287.697C42.2389,-279.983 42.1065,-270.712 41.9836,-262.112"/>
<polygon fill="black" stroke="black" points="45.4832,-262.053 41.8407,-252.104 38.484,-262.153 45.4832,-262.053"/>
</g>
<!-- 1 -->
<g id="node2" class="node"><title>1</title>
<g id="a_node2"><a xlink:title="1, diversity: 1, multiplicities: 7, labels: 0">
<ellipse fill="#fcc4ad" stroke="black" cx="43.5963" cy="-378" rx="37.0935" ry="18"/>
<text text-anchor="middle" x="43.5963" y="-374.3" font-family="Times,serif" font-size="14.00">1 (1): 0</text>
</a>
</g>
</g>
<!-- 1&#45;&gt;0 -->
<g id="edge9" class="edge"><title>1&#45;&gt;0</title>
<path fill="none" stroke="black" d="M43.3491,-359.697C43.2389,-351.983 43.1065,-342.712 42.9836,-334.112"/>
<polygon fill="black" stroke="black" points="46.4832,-334.053 42.8407,-324.104 39.484,-334.153 46.4832,-334.053"/>
</g>
<!-- 2 -->
<g id="node3" class="node"><title>2</title>
<g id="a_node3"><a xlink:title="2, diversity: 1, multiplicities: 140, labels: 0">
<ellipse fill="#fb7c5c" stroke="black" cx="138.596" cy="-306" rx="37.0935" ry="18"/>
<text text-anchor="middle" x="138.596" y="-302.3" font-family="Times,serif" font-size="14.00">2 (1): 0</text>
</a>
</g>
</g>
<!-- 5 -->
<g id="node6" class="node"><title>5</title>
<g id="a_node6"><a xlink:title="5, diversity: 1, multiplicities: 145, labels: 0">
<ellipse fill="#fb7c5c" stroke="black" cx="138.596" cy="-234" rx="37.0935" ry="18"/>
<text text-anchor="middle" x="138.596" y="-230.3" font-family="Times,serif" font-size="14.00">5 (1): 0</text>
</a>
</g>
</g>
<!-- 2&#45;&gt;5 -->
<g id="edge11" class="edge"><title>2&#45;&gt;5</title>
<path fill="none" stroke="black" d="M138.596,-287.697C138.596,-279.983 138.596,-270.712 138.596,-262.112"/>
<polygon fill="black" stroke="black" points="142.096,-262.104 138.596,-252.104 135.096,-262.104 142.096,-262.104"/>
</g>
<!-- 6 -->
<g id="node7" class="node"><title>6</title>
<g id="a_node7"><a xlink:title="6, diversity: 1, multiplicities: 75, labels: 0">
<ellipse fill="#fca082" stroke="black" cx="232.596" cy="-234" rx="37.0935" ry="18"/>
<text text-anchor="middle" x="232.596" y="-230.3" font-family="Times,serif" font-size="14.00">6 (1): 0</text>
</a>
</g>
</g>
<!-- 2&#45;&gt;6 -->
<g id="edge3" class="edge"><title>2&#45;&gt;6</title>
<path fill="none" stroke="black" d="M158.073,-290.496C171.559,-280.453 189.713,-266.934 204.727,-255.754"/>
<polygon fill="black" stroke="black" points="207.214,-258.265 213.144,-249.485 203.034,-252.651 207.214,-258.265"/>
</g>
<!-- 3 -->
<g id="node4" class="node"><title>3</title>
<g id="a_node4"><a xlink:title="3, diversity: 1, multiplicities: 107, labels: 0">
<ellipse fill="#fb7c5c" stroke="black" cx="232.596" cy="-162" rx="37.0935" ry="18"/>
<text text-anchor="middle" x="232.596" y="-158.3" font-family="Times,serif" font-size="14.00">3 (1): 0</text>
</a>
</g>
</g>
<!-- 4 -->
<g id="node5" class="node"><title>4</title>
<g id="a_node5"><a xlink:title="4, diversity: 1, multiplicities: 80, labels: 0">
<ellipse fill="#fca082" stroke="black" cx="324.596" cy="-162" rx="37.0935" ry="18"/>
<text text-anchor="middle" x="324.596" y="-158.3" font-family="Times,serif" font-size="14.00">4 (1): 0</text>
</a>
</g>
</g>
<!-- 11 -->
<g id="node12" class="node"><title>11</title>
<g id="a_node12"><a xlink:title="11, diversity: 1, multiplicities: 1, labels: 0">
<ellipse fill="#fff5f0" stroke="black" cx="135.596" cy="-162" rx="41.6928" ry="18"/>
<text text-anchor="middle" x="135.596" y="-158.3" font-family="Times,serif" font-size="14.00">11 (1): 0</text>
</a>
</g>
</g>
<!-- 5&#45;&gt;11 -->
<g id="edge5" class="edge"><title>5&#45;&gt;11</title>
<path fill="none" stroke="black" d="M137.855,-215.697C137.524,-207.983 137.127,-198.712 136.758,-190.112"/>
<polygon fill="black" stroke="black" points="140.254,-189.945 136.329,-180.104 133.261,-190.245 140.254,-189.945"/>
</g>
<!-- 6&#45;&gt;3 -->
<g id="edge8" class="edge"><title>6&#45;&gt;3</title>
<path fill="none" stroke="black" d="M232.596,-215.697C232.596,-207.983 232.596,-198.712 232.596,-190.112"/>
<polygon fill="black" stroke="black" points="236.096,-190.104 232.596,-180.104 229.096,-190.104 236.096,-190.104"/>
</g>
<!-- 6&#45;&gt;4 -->
<g id="edge1" class="edge"><title>6&#45;&gt;4</title>
<path fill="none" stroke="black" d="M251.659,-218.496C264.858,-208.453 282.625,-194.934 297.32,-183.754"/>
<polygon fill="black" stroke="black" points="299.719,-186.326 305.558,-177.485 295.481,-180.755 299.719,-186.326"/>
</g>
<!-- 7 -->
<g id="node8" class="node"><title>7</title>
<g id="a_node8"><a xlink:title="7, diversity: 1, multiplicities: 1, labels: 0">
<ellipse fill="#fff5f0" stroke="black" cx="89.5963" cy="-450" rx="37.0935" ry="18"/>
<text text-anchor="middle" x="89.5963" y="-446.3" font-family="Times,serif" font-size="14.00">7 (1): 0</text>
</a>
</g>
</g>
<!-- 7&#45;&gt;1 -->
<g id="edge6" class="edge"><title>7&#45;&gt;1</title>
<path fill="none" stroke="black" d="M78.695,-432.411C73.1381,-423.955 66.264,-413.494 60.0763,-404.078"/>
<polygon fill="black" stroke="black" points="62.8362,-401.905 54.4194,-395.47 56.9863,-405.749 62.8362,-401.905"/>
</g>
<!-- 8 -->
<g id="node9" class="node"><title>8</title>
<g id="a_node9"><a xlink:title="8, diversity: 2, multiplicities: 1,1, labels: 0">
<ellipse fill="#fee3d6" stroke="black" cx="136.596" cy="-378" rx="37.0935" ry="18"/>
<text text-anchor="middle" x="136.596" y="-374.3" font-family="Times,serif" font-size="14.00">8 (2): 0</text>
</a>
</g>
</g>
<!-- 7&#45;&gt;8 -->
<g id="edge10" class="edge"><title>7&#45;&gt;8</title>
<path fill="none" stroke="black" d="M100.497,-432.765C106.228,-424.23 113.377,-413.582 119.798,-404.019"/>
<polygon fill="black" stroke="black" points="122.76,-405.887 125.428,-395.633 116.948,-401.985 122.76,-405.887"/>
</g>
<!-- 8&#45;&gt;2 -->
<g id="edge4" class="edge"><title>8&#45;&gt;2</title>
<path fill="none" stroke="black" d="M137.091,-359.697C137.311,-351.983 137.576,-342.712 137.822,-334.112"/>
<polygon fill="black" stroke="black" points="141.32,-334.2 138.108,-324.104 134.323,-334 141.32,-334.2"/>
</g>
<!-- 9 -->
<g id="node10" class="node"><title>9</title>
<g id="a_node10"><a xlink:title="9, diversity: 1, multiplicities: 233, labels: 0">
<ellipse fill="#f6553c" stroke="black" cx="135.596" cy="-18" rx="37.0935" ry="18"/>
<text text-anchor="middle" x="135.596" y="-14.3" font-family="Times,serif" font-size="14.00">9 (1): 0</text>
</a>
</g>
</g>
<!-- 10 -->
<g id="node11" class="node"><title>10</title>
<g id="a_node11"><a xlink:title="10, diversity: 1, multiplicities: 1, labels: 0">
<ellipse fill="#fff5f0" stroke="black" cx="135.596" cy="-90" rx="41.6928" ry="18"/>
<text text-anchor="middle" x="135.596" y="-86.3" font-family="Times,serif" font-size="14.00">10 (1): 0</text>
</a>
</g>
</g>
<!-- 10&#45;&gt;9 -->
<g id="edge12" class="edge"><title>10&#45;&gt;9</title>
<path fill="none" stroke="black" d="M135.596,-71.6966C135.596,-63.9827 135.596,-54.7125 135.596,-46.1124"/>
<polygon fill="black" stroke="black" points="139.096,-46.1043 135.596,-36.1043 132.096,-46.1044 139.096,-46.1043"/>
</g>
<!-- 11&#45;&gt;10 -->
<g id="edge2" class="edge"><title>11&#45;&gt;10</title>
<path fill="none" stroke="black" d="M135.596,-143.697C135.596,-135.983 135.596,-126.712 135.596,-118.112"/>
<polygon fill="black" stroke="black" points="139.096,-118.104 135.596,-108.104 132.096,-118.104 139.096,-118.104"/>
</g>
</g>
</svg>
