<?xml version="1.0" encoding="UTF-8" standalone="no"?>
<!DOCTYPE svg PUBLIC "-//W3C//DTD SVG 1.1//EN"
 "http://www.w3.org/Graphics/SVG/1.1/DTD/svg11.dtd">
<!-- Generated by graphviz version 2.38.0 (20140413.2041)
 -->
<!-- Title: %3 Pages: 1 -->
<svg width="773pt" height="404pt"
 viewBox="0.00 0.00 772.64 404.00" xmlns="http://www.w3.org/2000/svg" xmlns:xlink="http://www.w3.org/1999/xlink">
<g id="graph0" class="graph" transform="scale(1 1) rotate(0) translate(4 400)">
<title>%3</title>
<polygon fill="white" stroke="none" points="-4,4 -4,-400 768.643,-400 768.643,4 -4,4"/>
<!-- 0 -->
<g id="node1" class="node"><title>0</title>
<g id="a_node1"><a xlink:title="0, diversity: 1, multiplicities: 37, labels: 0">
<ellipse fill="#fca082" stroke="black" cx="408.047" cy="-306" rx="37.0935" ry="18"/>
<text text-anchor="middle" x="408.047" y="-302.3" font-family="Times,serif" font-size="14.00">0 (1): 0</text>
</a>
</g>
</g>
<!-- 2 -->
<g id="node3" class="node"><title>2</title>
<g id="a_node3"><a xlink:title="2, diversity: 1, multiplicities: 10, labels: 0">
<ellipse fill="#fcc4ad" stroke="black" cx="244.047" cy="-234" rx="37.0935" ry="18"/>
<text text-anchor="middle" x="244.047" y="-230.3" font-family="Times,serif" font-size="14.00">2 (1): 0</text>
</a>
</g>
</g>
<!-- 0&#45;&gt;2 -->
<g id="edge22" class="edge"><title>0&#45;&gt;2</title>
<path fill="none" stroke="black" d="M380.965,-293.441C353.464,-281.703 310.71,-263.454 280.3,-250.474"/>
<polygon fill="black" stroke="black" points="281.467,-247.167 270.896,-246.46 278.719,-253.605 281.467,-247.167"/>
</g>
<!-- 3 -->
<g id="node4" class="node"><title>3</title>
<g id="a_node4"><a xlink:title="3, diversity: 3, multiplicities: 39,56,74, labels: 0">
<ellipse fill="#fb7c5c" stroke="black" cx="336.047" cy="-234" rx="37.0935" ry="18"/>
<text text-anchor="middle" x="336.047" y="-230.3" font-family="Times,serif" font-size="14.00">3 (3): 0</text>
</a>
</g>
</g>
<!-- 0&#45;&gt;3 -->
<g id="edge4" class="edge"><title>0&#45;&gt;3</title>
<path fill="none" stroke="black" d="M392.068,-289.465C382.466,-280.13 370.079,-268.087 359.395,-257.7"/>
<polygon fill="black" stroke="black" points="361.591,-254.953 351.981,-250.492 356.711,-259.972 361.591,-254.953"/>
</g>
<!-- 5 -->
<g id="node6" class="node"><title>5</title>
<g id="a_node6"><a xlink:title="5, diversity: 1, multiplicities: 23, labels: 0">
<ellipse fill="#fca082" stroke="black" cx="481.047" cy="-234" rx="37.0935" ry="18"/>
<text text-anchor="middle" x="481.047" y="-230.3" font-family="Times,serif" font-size="14.00">5 (1): 0</text>
</a>
</g>
</g>
<!-- 0&#45;&gt;5 -->
<g id="edge13" class="edge"><title>0&#45;&gt;5</title>
<path fill="none" stroke="black" d="M424.248,-289.465C433.982,-280.13 446.541,-268.087 457.374,-257.7"/>
<polygon fill="black" stroke="black" points="460.096,-259.939 464.891,-250.492 455.251,-254.887 460.096,-259.939"/>
</g>
<!-- 8 -->
<g id="node9" class="node"><title>8</title>
<g id="a_node9"><a xlink:title="8, diversity: 1, multiplicities: 43, labels: 0">
<ellipse fill="#fca082" stroke="black" cx="626.047" cy="-234" rx="37.0935" ry="18"/>
<text text-anchor="middle" x="626.047" y="-230.3" font-family="Times,serif" font-size="14.00">8 (1): 0</text>
</a>
</g>
</g>
<!-- 0&#45;&gt;8 -->
<g id="edge16" class="edge"><title>0&#45;&gt;8</title>
<path fill="none" stroke="black" d="M436.67,-294.145C442.404,-292.048 448.402,-289.911 454.047,-288 498.628,-272.906 550.295,-257.225 585.275,-246.874"/>
<polygon fill="black" stroke="black" points="586.521,-250.156 595.123,-243.97 584.541,-243.441 586.521,-250.156"/>
</g>
<!-- 1 -->
<g id="node2" class="node"><title>1</title>
<g id="a_node2"><a xlink:title="1, diversity: 1, multiplicities: 70, labels: 0">
<ellipse fill="#fca082" stroke="black" cx="454.047" cy="-378" rx="37.0935" ry="18"/>
<text text-anchor="middle" x="454.047" y="-374.3" font-family="Times,serif" font-size="14.00">1 (1): 0</text>
</a>
</g>
</g>
<!-- 1&#45;&gt;0 -->
<g id="edge15" class="edge"><title>1&#45;&gt;0</title>
<path fill="none" stroke="black" d="M443.145,-360.411C437.588,-351.955 430.714,-341.494 424.527,-332.078"/>
<polygon fill="black" stroke="black" points="427.287,-329.905 418.87,-323.47 421.437,-333.749 427.287,-329.905"/>
</g>
<!-- 7 -->
<g id="node8" class="node"><title>7</title>
<g id="a_node8"><a xlink:title="7, diversity: 1, multiplicities: 8, labels: 0">
<ellipse fill="#fcc4ad" stroke="black" cx="500.047" cy="-306" rx="37.0935" ry="18"/>
<text text-anchor="middle" x="500.047" y="-302.3" font-family="Times,serif" font-size="14.00">7 (1): 0</text>
</a>
</g>
</g>
<!-- 1&#45;&gt;7 -->
<g id="edge19" class="edge"><title>1&#45;&gt;7</title>
<path fill="none" stroke="black" d="M464.948,-360.411C470.505,-351.955 477.379,-341.494 483.567,-332.078"/>
<polygon fill="black" stroke="black" points="486.657,-333.749 489.224,-323.47 480.807,-329.905 486.657,-333.749"/>
</g>
<!-- 4 -->
<g id="node5" class="node"><title>4</title>
<g id="a_node5"><a xlink:title="4, diversity: 3, multiplicities: 9,12,20, labels: 0">
<ellipse fill="#fca082" stroke="black" cx="37.0467" cy="-162" rx="37.0935" ry="18"/>
<text text-anchor="middle" x="37.0467" y="-158.3" font-family="Times,serif" font-size="14.00">4 (3): 0</text>
</a>
</g>
</g>
<!-- 3&#45;&gt;4 -->
<g id="edge21" class="edge"><title>3&#45;&gt;4</title>
<path fill="none" stroke="black" d="M308.09,-221.749C302.194,-219.636 295.966,-217.594 290.047,-216 199.879,-191.714 173.214,-204.286 83.0467,-180 80.2721,-179.253 77.4296,-178.407 74.5852,-177.502"/>
<polygon fill="black" stroke="black" points="75.5983,-174.15 65.0039,-174.251 73.3495,-180.778 75.5983,-174.15"/>
</g>
<!-- 13 -->
<g id="node14" class="node"><title>13</title>
<g id="a_node14"><a xlink:title="13, diversity: 1, multiplicities: 103, labels: 0">
<ellipse fill="#fb7c5c" stroke="black" cx="134.047" cy="-162" rx="41.6928" ry="18"/>
<text text-anchor="middle" x="134.047" y="-158.3" font-family="Times,serif" font-size="14.00">13 (1): 0</text>
</a>
</g>
</g>
<!-- 3&#45;&gt;13 -->
<g id="edge12" class="edge"><title>3&#45;&gt;13</title>
<path fill="none" stroke="black" d="M307.38,-222.272C301.649,-220.165 295.664,-217.991 290.047,-216 243.153,-199.375 231.155,-196.008 184.047,-180 181.187,-179.028 178.236,-178.025 175.264,-177.015"/>
<polygon fill="black" stroke="black" points="176.381,-173.698 165.787,-173.793 174.128,-180.326 176.381,-173.698"/>
</g>
<!-- 14 -->
<g id="node15" class="node"><title>14</title>
<g id="a_node15"><a xlink:title="14, diversity: 2, multiplicities: 1,70, labels: 0">
<ellipse fill="#fca082" stroke="black" cx="235.047" cy="-162" rx="41.6928" ry="18"/>
<text text-anchor="middle" x="235.047" y="-158.3" font-family="Times,serif" font-size="14.00">14 (2): 0</text>
</a>
</g>
</g>
<!-- 3&#45;&gt;14 -->
<g id="edge5" class="edge"><title>3&#45;&gt;14</title>
<path fill="none" stroke="black" d="M315.608,-218.834C301.017,-208.722 281.163,-194.962 264.816,-183.632"/>
<polygon fill="black" stroke="black" points="266.363,-180.446 256.15,-177.626 262.376,-186.199 266.363,-180.446"/>
</g>
<!-- 16 -->
<g id="node17" class="node"><title>16</title>
<g id="a_node17"><a xlink:title="16, diversity: 1, multiplicities: 8, labels: 0">
<ellipse fill="#fcc4ad" stroke="black" cx="336.047" cy="-162" rx="41.6928" ry="18"/>
<text text-anchor="middle" x="336.047" y="-158.3" font-family="Times,serif" font-size="14.00">16 (1): 0</text>
</a>
</g>
</g>
<!-- 3&#45;&gt;16 -->
<g id="edge10" class="edge"><title>3&#45;&gt;16</title>
<path fill="none" stroke="black" d="M336.047,-215.697C336.047,-207.983 336.047,-198.712 336.047,-190.112"/>
<polygon fill="black" stroke="black" points="339.547,-190.104 336.047,-180.104 332.547,-190.104 339.547,-190.104"/>
</g>
<!-- 19 -->
<g id="node20" class="node"><title>19</title>
<g id="a_node20"><a xlink:title="19, diversity: 1, multiplicities: 1, labels: 0">
<ellipse fill="#fff5f0" stroke="black" cx="437.047" cy="-162" rx="41.6928" ry="18"/>
<text text-anchor="middle" x="437.047" y="-158.3" font-family="Times,serif" font-size="14.00">19 (1): 0</text>
</a>
</g>
</g>
<!-- 3&#45;&gt;19 -->
<g id="edge14" class="edge"><title>3&#45;&gt;19</title>
<path fill="none" stroke="black" d="M356.486,-218.834C371.076,-208.722 390.93,-194.962 407.278,-183.632"/>
<polygon fill="black" stroke="black" points="409.718,-186.199 415.943,-177.626 405.73,-180.446 409.718,-186.199"/>
</g>
<!-- 6 -->
<g id="node7" class="node"><title>6</title>
<g id="a_node7"><a xlink:title="6, diversity: 1, multiplicities: 5, labels: 0">
<ellipse fill="#fee3d6" stroke="black" cx="534.047" cy="-162" rx="37.0935" ry="18"/>
<text text-anchor="middle" x="534.047" y="-158.3" font-family="Times,serif" font-size="14.00">6 (1): 0</text>
</a>
</g>
</g>
<!-- 5&#45;&gt;6 -->
<g id="edge2" class="edge"><title>5&#45;&gt;6</title>
<path fill="none" stroke="black" d="M493.339,-216.765C499.962,-208.018 508.265,-197.052 515.642,-187.308"/>
<polygon fill="black" stroke="black" points="518.575,-189.233 521.821,-179.147 512.994,-185.007 518.575,-189.233"/>
</g>
<!-- 9 -->
<g id="node10" class="node"><title>9</title>
<g id="a_node10"><a xlink:title="9, diversity: 1, multiplicities: 13, labels: 0">
<ellipse fill="#fca082" stroke="black" cx="626.047" cy="-162" rx="37.0935" ry="18"/>
<text text-anchor="middle" x="626.047" y="-158.3" font-family="Times,serif" font-size="14.00">9 (1): 0</text>
</a>
</g>
</g>
<!-- 8&#45;&gt;9 -->
<g id="edge3" class="edge"><title>8&#45;&gt;9</title>
<path fill="none" stroke="black" d="M626.047,-215.697C626.047,-207.983 626.047,-198.712 626.047,-190.112"/>
<polygon fill="black" stroke="black" points="629.547,-190.104 626.047,-180.104 622.547,-190.104 629.547,-190.104"/>
</g>
<!-- 22 -->
<g id="node23" class="node"><title>22</title>
<g id="a_node23"><a xlink:title="22, diversity: 1, multiplicities: 1, labels: 0">
<ellipse fill="#fff5f0" stroke="black" cx="723.047" cy="-162" rx="41.6928" ry="18"/>
<text text-anchor="middle" x="723.047" y="-158.3" font-family="Times,serif" font-size="14.00">22 (1): 0</text>
</a>
</g>
</g>
<!-- 8&#45;&gt;22 -->
<g id="edge18" class="edge"><title>8&#45;&gt;22</title>
<path fill="none" stroke="black" d="M646.145,-218.496C660.098,-208.427 678.893,-194.864 694.409,-183.666"/>
<polygon fill="black" stroke="black" points="696.579,-186.416 702.64,-177.726 692.483,-180.74 696.579,-186.416"/>
</g>
<!-- 10 -->
<g id="node11" class="node"><title>10</title>
<g id="a_node11"><a xlink:title="10, diversity: 2, multiplicities: 1,131, labels: 0">
<ellipse fill="#fb7c5c" stroke="black" cx="437.047" cy="-90" rx="41.6928" ry="18"/>
<text text-anchor="middle" x="437.047" y="-86.3" font-family="Times,serif" font-size="14.00">10 (2): 0</text>
</a>
</g>
</g>
<!-- 11 -->
<g id="node12" class="node"><title>11</title>
<g id="a_node12"><a xlink:title="11, diversity: 1, multiplicities: 51, labels: 0">
<ellipse fill="#fca082" stroke="black" cx="437.047" cy="-18" rx="41.6928" ry="18"/>
<text text-anchor="middle" x="437.047" y="-14.3" font-family="Times,serif" font-size="14.00">11 (1): 0</text>
</a>
</g>
</g>
<!-- 10&#45;&gt;11 -->
<g id="edge1" class="edge"><title>10&#45;&gt;11</title>
<path fill="none" stroke="black" d="M437.047,-71.6966C437.047,-63.9827 437.047,-54.7125 437.047,-46.1124"/>
<polygon fill="black" stroke="black" points="440.547,-46.1043 437.047,-36.1043 433.547,-46.1044 440.547,-46.1043"/>
</g>
<!-- 12 -->
<g id="node13" class="node"><title>12</title>
<g id="a_node13"><a xlink:title="12, diversity: 1, multiplicities: 27, labels: 0">
<ellipse fill="#fca082" stroke="black" cx="134.047" cy="-90" rx="41.6928" ry="18"/>
<text text-anchor="middle" x="134.047" y="-86.3" font-family="Times,serif" font-size="14.00">12 (1): 0</text>
</a>
</g>
</g>
<!-- 13&#45;&gt;12 -->
<g id="edge7" class="edge"><title>13&#45;&gt;12</title>
<path fill="none" stroke="black" d="M134.047,-143.697C134.047,-135.983 134.047,-126.712 134.047,-118.112"/>
<polygon fill="black" stroke="black" points="137.547,-118.104 134.047,-108.104 130.547,-118.104 137.547,-118.104"/>
</g>
<!-- 15 -->
<g id="node16" class="node"><title>15</title>
<g id="a_node16"><a xlink:title="15, diversity: 1, multiplicities: 24, labels: 0">
<ellipse fill="#fca082" stroke="black" cx="235.047" cy="-90" rx="41.6928" ry="18"/>
<text text-anchor="middle" x="235.047" y="-86.3" font-family="Times,serif" font-size="14.00">15 (1): 0</text>
</a>
</g>
</g>
<!-- 14&#45;&gt;15 -->
<g id="edge20" class="edge"><title>14&#45;&gt;15</title>
<path fill="none" stroke="black" d="M235.047,-143.697C235.047,-135.983 235.047,-126.712 235.047,-118.112"/>
<polygon fill="black" stroke="black" points="238.547,-118.104 235.047,-108.104 231.547,-118.104 238.547,-118.104"/>
</g>
<!-- 18 -->
<g id="node19" class="node"><title>18</title>
<g id="a_node19"><a xlink:title="18, diversity: 1, multiplicities: 5, labels: 0">
<ellipse fill="#fee3d6" stroke="black" cx="336.047" cy="-90" rx="41.6928" ry="18"/>
<text text-anchor="middle" x="336.047" y="-86.3" font-family="Times,serif" font-size="14.00">18 (1): 0</text>
</a>
</g>
</g>
<!-- 14&#45;&gt;18 -->
<g id="edge9" class="edge"><title>14&#45;&gt;18</title>
<path fill="none" stroke="black" d="M256.466,-146.155C271.026,-136.064 290.478,-122.583 306.505,-111.474"/>
<polygon fill="black" stroke="black" points="308.779,-114.157 315.004,-105.584 304.792,-108.403 308.779,-114.157"/>
</g>
<!-- 17 -->
<g id="node18" class="node"><title>17</title>
<g id="a_node18"><a xlink:title="17, diversity: 1, multiplicities: 5, labels: 0">
<ellipse fill="#fee3d6" stroke="black" cx="235.047" cy="-18" rx="41.6928" ry="18"/>
<text text-anchor="middle" x="235.047" y="-14.3" font-family="Times,serif" font-size="14.00">17 (1): 0</text>
</a>
</g>
</g>
<!-- 15&#45;&gt;17 -->
<g id="edge17" class="edge"><title>15&#45;&gt;17</title>
<path fill="none" stroke="black" d="M235.047,-71.6966C235.047,-63.9827 235.047,-54.7125 235.047,-46.1124"/>
<polygon fill="black" stroke="black" points="238.547,-46.1043 235.047,-36.1043 231.547,-46.1044 238.547,-46.1043"/>
</g>
<!-- 19&#45;&gt;10 -->
<g id="edge11" class="edge"><title>19&#45;&gt;10</title>
<path fill="none" stroke="black" d="M437.047,-143.697C437.047,-135.983 437.047,-126.712 437.047,-118.112"/>
<polygon fill="black" stroke="black" points="440.547,-118.104 437.047,-108.104 433.547,-118.104 440.547,-118.104"/>
</g>
<!-- 20 -->
<g id="node21" class="node"><title>20</title>
<g id="a_node21"><a xlink:title="20, diversity: 1, multiplicities: 24, labels: 0">
<ellipse fill="#fca082" stroke="black" cx="723.047" cy="-90" rx="41.6928" ry="18"/>
<text text-anchor="middle" x="723.047" y="-86.3" font-family="Times,serif" font-size="14.00">20 (1): 0</text>
</a>
</g>
</g>
<!-- 21 -->
<g id="node22" class="node"><title>21</title>
<g id="a_node22"><a xlink:title="21, diversity: 1, multiplicities: 13, labels: 0">
<ellipse fill="#fca082" stroke="black" cx="723.047" cy="-18" rx="41.6928" ry="18"/>
<text text-anchor="middle" x="723.047" y="-14.3" font-family="Times,serif" font-size="14.00">21 (1): 0</text>
</a>
</g>
</g>
<!-- 20&#45;&gt;21 -->
<g id="edge8" class="edge"><title>20&#45;&gt;21</title>
<path fill="none" stroke="black" d="M723.047,-71.6966C723.047,-63.9827 723.047,-54.7125 723.047,-46.1124"/>
<polygon fill="black" stroke="black" points="726.547,-46.1043 723.047,-36.1043 719.547,-46.1044 726.547,-46.1043"/>
</g>
<!-- 22&#45;&gt;20 -->
<g id="edge6" class="edge"><title>22&#45;&gt;20</title>
<path fill="none" stroke="black" d="M723.047,-143.697C723.047,-135.983 723.047,-126.712 723.047,-118.112"/>
<polygon fill="black" stroke="black" points="726.547,-118.104 723.047,-108.104 719.547,-118.104 726.547,-118.104"/>
</g>
</g>
</svg>
