<?xml version="1.0" encoding="UTF-8" standalone="no"?>
<!DOCTYPE svg PUBLIC "-//W3C//DTD SVG 1.1//EN"
 "http://www.w3.org/Graphics/SVG/1.1/DTD/svg11.dtd">
<!-- Generated by graphviz version 2.38.0 (20140413.2041)
 -->
<!-- Title: %3 Pages: 1 -->
<svg width="689pt" height="476pt"
 viewBox="0.00 0.00 688.64 476.00" xmlns="http://www.w3.org/2000/svg" xmlns:xlink="http://www.w3.org/1999/xlink">
<g id="graph0" class="graph" transform="scale(1 1) rotate(0) translate(4 472)">
<title>%3</title>
<polygon fill="white" stroke="none" points="-4,4 -4,-472 684.643,-472 684.643,4 -4,4"/>
<!-- 0 -->
<g id="node1" class="node"><title>0</title>
<g id="a_node1"><a xlink:title="0, diversity: 1, multiplicities: 8, labels: 0">
<ellipse fill="#fcc4ad" stroke="black" cx="639.047" cy="-162" rx="37.0935" ry="18"/>
<text text-anchor="middle" x="639.047" y="-158.3" font-family="Times,serif" font-size="14.00">0 (1): 0</text>
</a>
</g>
</g>
<!-- 1 -->
<g id="node2" class="node"><title>1</title>
<g id="a_node2"><a xlink:title="1, diversity: 1, multiplicities: 11, labels: 0">
<ellipse fill="#fca082" stroke="black" cx="639.047" cy="-234" rx="37.0935" ry="18"/>
<text text-anchor="middle" x="639.047" y="-230.3" font-family="Times,serif" font-size="14.00">1 (1): 0</text>
</a>
</g>
</g>
<!-- 1&#45;&gt;0 -->
<g id="edge15" class="edge"><title>1&#45;&gt;0</title>
<path fill="none" stroke="black" d="M639.047,-215.697C639.047,-207.983 639.047,-198.712 639.047,-190.112"/>
<polygon fill="black" stroke="black" points="642.547,-190.104 639.047,-180.104 635.547,-190.104 642.547,-190.104"/>
</g>
<!-- 2 -->
<g id="node3" class="node"><title>2</title>
<g id="a_node3"><a xlink:title="2, diversity: 4, multiplicities: 6,9,10,41, labels: 0">
<ellipse fill="#fca082" stroke="black" cx="37.0467" cy="-90" rx="37.0935" ry="18"/>
<text text-anchor="middle" x="37.0467" y="-86.3" font-family="Times,serif" font-size="14.00">2 (4): 0</text>
</a>
</g>
</g>
<!-- 3 -->
<g id="node4" class="node"><title>3</title>
<g id="a_node4"><a xlink:title="3, diversity: 2, multiplicities: 11,23, labels: 0">
<ellipse fill="#fca082" stroke="black" cx="37.0467" cy="-18" rx="37.0935" ry="18"/>
<text text-anchor="middle" x="37.0467" y="-14.3" font-family="Times,serif" font-size="14.00">3 (2): 0</text>
</a>
</g>
</g>
<!-- 2&#45;&gt;3 -->
<g id="edge13" class="edge"><title>2&#45;&gt;3</title>
<path fill="none" stroke="black" d="M37.0467,-71.6966C37.0467,-63.9827 37.0467,-54.7125 37.0467,-46.1124"/>
<polygon fill="black" stroke="black" points="40.5468,-46.1043 37.0467,-36.1043 33.5468,-46.1044 40.5468,-46.1043"/>
</g>
<!-- 4 -->
<g id="node5" class="node"><title>4</title>
<g id="a_node5"><a xlink:title="4, diversity: 1, multiplicities: 1, labels: 0">
<ellipse fill="#fff5f0" stroke="black" cx="37.0467" cy="-234" rx="37.0935" ry="18"/>
<text text-anchor="middle" x="37.0467" y="-230.3" font-family="Times,serif" font-size="14.00">4 (1): 0</text>
</a>
</g>
</g>
<!-- 5 -->
<g id="node6" class="node"><title>5</title>
<g id="a_node6"><a xlink:title="5, diversity: 1, multiplicities: 1, labels: 0">
<ellipse fill="#fff5f0" stroke="black" cx="37.0467" cy="-162" rx="37.0935" ry="18"/>
<text text-anchor="middle" x="37.0467" y="-158.3" font-family="Times,serif" font-size="14.00">5 (1): 0</text>
</a>
</g>
</g>
<!-- 4&#45;&gt;5 -->
<g id="edge12" class="edge"><title>4&#45;&gt;5</title>
<path fill="none" stroke="black" d="M37.0467,-215.697C37.0467,-207.983 37.0467,-198.712 37.0467,-190.112"/>
<polygon fill="black" stroke="black" points="40.5468,-190.104 37.0467,-180.104 33.5468,-190.104 40.5468,-190.104"/>
</g>
<!-- 5&#45;&gt;2 -->
<g id="edge22" class="edge"><title>5&#45;&gt;2</title>
<path fill="none" stroke="black" d="M37.0467,-143.697C37.0467,-135.983 37.0467,-126.712 37.0467,-118.112"/>
<polygon fill="black" stroke="black" points="40.5468,-118.104 37.0467,-108.104 33.5468,-118.104 40.5468,-118.104"/>
</g>
<!-- 6 -->
<g id="node7" class="node"><title>6</title>
<g id="a_node7"><a xlink:title="6, diversity: 1, multiplicities: 1, labels: 0">
<ellipse fill="#fff5f0" stroke="black" cx="90.0467" cy="-306" rx="37.0935" ry="18"/>
<text text-anchor="middle" x="90.0467" y="-302.3" font-family="Times,serif" font-size="14.00">6 (1): 0</text>
</a>
</g>
</g>
<!-- 6&#45;&gt;4 -->
<g id="edge9" class="edge"><title>6&#45;&gt;4</title>
<path fill="none" stroke="black" d="M77.7542,-288.765C71.1318,-280.018 62.8288,-269.052 55.4516,-259.308"/>
<polygon fill="black" stroke="black" points="58.0994,-257.007 49.2725,-251.147 52.5185,-261.233 58.0994,-257.007"/>
</g>
<!-- 7 -->
<g id="node8" class="node"><title>7</title>
<g id="a_node8"><a xlink:title="7, diversity: 1, multiplicities: 18, labels: 0">
<ellipse fill="#fca082" stroke="black" cx="235.047" cy="-306" rx="37.0935" ry="18"/>
<text text-anchor="middle" x="235.047" y="-302.3" font-family="Times,serif" font-size="14.00">7 (1): 0</text>
</a>
</g>
</g>
<!-- 10 -->
<g id="node11" class="node"><title>10</title>
<g id="a_node11"><a xlink:title="10, diversity: 2, multiplicities: 14,17, labels: 0">
<ellipse fill="#fca082" stroke="black" cx="134.047" cy="-234" rx="41.6928" ry="18"/>
<text text-anchor="middle" x="134.047" y="-230.3" font-family="Times,serif" font-size="14.00">10 (2): 0</text>
</a>
</g>
</g>
<!-- 7&#45;&gt;10 -->
<g id="edge11" class="edge"><title>7&#45;&gt;10</title>
<path fill="none" stroke="black" d="M214.608,-290.834C200.017,-280.722 180.163,-266.962 163.816,-255.632"/>
<polygon fill="black" stroke="black" points="165.363,-252.446 155.15,-249.626 161.376,-258.199 165.363,-252.446"/>
</g>
<!-- 17 -->
<g id="node18" class="node"><title>17</title>
<g id="a_node18"><a xlink:title="17, diversity: 2, multiplicities: 1,10, labels: 0">
<ellipse fill="#fca082" stroke="black" cx="235.047" cy="-234" rx="41.6928" ry="18"/>
<text text-anchor="middle" x="235.047" y="-230.3" font-family="Times,serif" font-size="14.00">17 (2): 0</text>
</a>
</g>
</g>
<!-- 7&#45;&gt;17 -->
<g id="edge21" class="edge"><title>7&#45;&gt;17</title>
<path fill="none" stroke="black" d="M235.047,-287.697C235.047,-279.983 235.047,-270.712 235.047,-262.112"/>
<polygon fill="black" stroke="black" points="238.547,-262.104 235.047,-252.104 231.547,-262.104 238.547,-262.104"/>
</g>
<!-- 8 -->
<g id="node9" class="node"><title>8</title>
<g id="a_node9"><a xlink:title="8, diversity: 1, multiplicities: 37, labels: 0">
<ellipse fill="#fca082" stroke="black" cx="134.047" cy="-162" rx="37.0935" ry="18"/>
<text text-anchor="middle" x="134.047" y="-158.3" font-family="Times,serif" font-size="14.00">8 (1): 0</text>
</a>
</g>
</g>
<!-- 9 -->
<g id="node10" class="node"><title>9</title>
<g id="a_node10"><a xlink:title="9, diversity: 1, multiplicities: 21, labels: 0">
<ellipse fill="#fca082" stroke="black" cx="134.047" cy="-90" rx="37.0935" ry="18"/>
<text text-anchor="middle" x="134.047" y="-86.3" font-family="Times,serif" font-size="14.00">9 (1): 0</text>
</a>
</g>
</g>
<!-- 8&#45;&gt;9 -->
<g id="edge1" class="edge"><title>8&#45;&gt;9</title>
<path fill="none" stroke="black" d="M134.047,-143.697C134.047,-135.983 134.047,-126.712 134.047,-118.112"/>
<polygon fill="black" stroke="black" points="137.547,-118.104 134.047,-108.104 130.547,-118.104 137.547,-118.104"/>
</g>
<!-- 10&#45;&gt;8 -->
<g id="edge5" class="edge"><title>10&#45;&gt;8</title>
<path fill="none" stroke="black" d="M134.047,-215.697C134.047,-207.983 134.047,-198.712 134.047,-190.112"/>
<polygon fill="black" stroke="black" points="137.547,-190.104 134.047,-180.104 130.547,-190.104 137.547,-190.104"/>
</g>
<!-- 11 -->
<g id="node12" class="node"><title>11</title>
<g id="a_node12"><a xlink:title="11, diversity: 2, multiplicities: 1,54, labels: 0">
<ellipse fill="#fca082" stroke="black" cx="386.047" cy="-378" rx="41.6928" ry="18"/>
<text text-anchor="middle" x="386.047" y="-374.3" font-family="Times,serif" font-size="14.00">11 (2): 0</text>
</a>
</g>
</g>
<!-- 11&#45;&gt;6 -->
<g id="edge23" class="edge"><title>11&#45;&gt;6</title>
<path fill="none" stroke="black" d="M350.342,-368.556C295.657,-355.624 191.35,-330.957 132.744,-317.097"/>
<polygon fill="black" stroke="black" points="133.24,-313.618 122.703,-314.723 131.629,-320.43 133.24,-313.618"/>
</g>
<!-- 11&#45;&gt;7 -->
<g id="edge18" class="edge"><title>11&#45;&gt;7</title>
<path fill="none" stroke="black" d="M358.702,-364.324C333.842,-352.799 297.027,-335.732 270.031,-323.218"/>
<polygon fill="black" stroke="black" points="271.472,-320.028 260.927,-318.998 268.528,-326.379 271.472,-320.028"/>
</g>
<!-- 13 -->
<g id="node14" class="node"><title>13</title>
<g id="a_node14"><a xlink:title="13, diversity: 1, multiplicities: 29, labels: 0">
<ellipse fill="#fca082" stroke="black" cx="336.047" cy="-306" rx="41.6928" ry="18"/>
<text text-anchor="middle" x="336.047" y="-302.3" font-family="Times,serif" font-size="14.00">13 (1): 0</text>
</a>
</g>
</g>
<!-- 11&#45;&gt;13 -->
<g id="edge8" class="edge"><title>11&#45;&gt;13</title>
<path fill="none" stroke="black" d="M374.197,-360.411C368.095,-351.868 360.531,-341.278 353.752,-331.787"/>
<polygon fill="black" stroke="black" points="356.471,-329.573 347.811,-323.47 350.775,-333.642 356.471,-329.573"/>
</g>
<!-- 14 -->
<g id="node15" class="node"><title>14</title>
<g id="a_node15"><a xlink:title="14, diversity: 1, multiplicities: 1, labels: 0">
<ellipse fill="#fff5f0" stroke="black" cx="437.047" cy="-306" rx="41.6928" ry="18"/>
<text text-anchor="middle" x="437.047" y="-302.3" font-family="Times,serif" font-size="14.00">14 (1): 0</text>
</a>
</g>
</g>
<!-- 11&#45;&gt;14 -->
<g id="edge3" class="edge"><title>11&#45;&gt;14</title>
<path fill="none" stroke="black" d="M398.133,-360.411C404.357,-351.868 412.072,-341.278 418.987,-331.787"/>
<polygon fill="black" stroke="black" points="421.987,-333.613 425.047,-323.47 416.33,-329.491 421.987,-333.613"/>
</g>
<!-- 19 -->
<g id="node20" class="node"><title>19</title>
<g id="a_node20"><a xlink:title="19, diversity: 3, multiplicities: 1,1,32, labels: 0">
<ellipse fill="#fca082" stroke="black" cx="538.047" cy="-306" rx="41.6928" ry="18"/>
<text text-anchor="middle" x="538.047" y="-302.3" font-family="Times,serif" font-size="14.00">19 (3): 0</text>
</a>
</g>
</g>
<!-- 11&#45;&gt;19 -->
<g id="edge4" class="edge"><title>11&#45;&gt;19</title>
<path fill="none" stroke="black" d="M413.573,-364.324C438.215,-352.975 474.526,-336.253 501.577,-323.795"/>
<polygon fill="black" stroke="black" points="503.106,-326.944 510.725,-319.582 500.178,-320.586 503.106,-326.944"/>
</g>
<!-- 23 -->
<g id="node24" class="node"><title>23</title>
<g id="a_node24"><a xlink:title="23, diversity: 1, multiplicities: 25, labels: 0">
<ellipse fill="#fca082" stroke="black" cx="639.047" cy="-306" rx="41.6928" ry="18"/>
<text text-anchor="middle" x="639.047" y="-302.3" font-family="Times,serif" font-size="14.00">23 (1): 0</text>
</a>
</g>
</g>
<!-- 11&#45;&gt;23 -->
<g id="edge2" class="edge"><title>11&#45;&gt;23</title>
<path fill="none" stroke="black" d="M417.106,-365.921C423.344,-363.843 429.878,-361.77 436.047,-360 503.194,-340.734 521.899,-343.266 589.047,-324 592.035,-323.143 595.109,-322.214 598.193,-321.248"/>
<polygon fill="black" stroke="black" points="599.551,-324.488 607.987,-318.079 597.395,-317.828 599.551,-324.488"/>
</g>
<!-- 12 -->
<g id="node13" class="node"><title>12</title>
<g id="a_node13"><a xlink:title="12, diversity: 1, multiplicities: 8, labels: 0">
<ellipse fill="#fcc4ad" stroke="black" cx="336.047" cy="-234" rx="41.6928" ry="18"/>
<text text-anchor="middle" x="336.047" y="-230.3" font-family="Times,serif" font-size="14.00">12 (1): 0</text>
</a>
</g>
</g>
<!-- 13&#45;&gt;12 -->
<g id="edge6" class="edge"><title>13&#45;&gt;12</title>
<path fill="none" stroke="black" d="M336.047,-287.697C336.047,-279.983 336.047,-270.712 336.047,-262.112"/>
<polygon fill="black" stroke="black" points="339.547,-262.104 336.047,-252.104 332.547,-262.104 339.547,-262.104"/>
</g>
<!-- 21 -->
<g id="node22" class="node"><title>21</title>
<g id="a_node22"><a xlink:title="21, diversity: 1, multiplicities: 21, labels: 0">
<ellipse fill="#fca082" stroke="black" cx="437.047" cy="-234" rx="41.6928" ry="18"/>
<text text-anchor="middle" x="437.047" y="-230.3" font-family="Times,serif" font-size="14.00">21 (1): 0</text>
</a>
</g>
</g>
<!-- 14&#45;&gt;21 -->
<g id="edge20" class="edge"><title>14&#45;&gt;21</title>
<path fill="none" stroke="black" d="M437.047,-287.697C437.047,-279.983 437.047,-270.712 437.047,-262.112"/>
<polygon fill="black" stroke="black" points="440.547,-262.104 437.047,-252.104 433.547,-262.104 440.547,-262.104"/>
</g>
<!-- 15 -->
<g id="node16" class="node"><title>15</title>
<g id="a_node16"><a xlink:title="15, diversity: 1, multiplicities: 12, labels: 0">
<ellipse fill="#fca082" stroke="black" cx="487.047" cy="-378" rx="41.6928" ry="18"/>
<text text-anchor="middle" x="487.047" y="-374.3" font-family="Times,serif" font-size="14.00">15 (1): 0</text>
</a>
</g>
</g>
<!-- 16 -->
<g id="node17" class="node"><title>16</title>
<g id="a_node17"><a xlink:title="16, diversity: 1, multiplicities: 1, labels: 0">
<ellipse fill="#fff5f0" stroke="black" cx="436.047" cy="-450" rx="41.6928" ry="18"/>
<text text-anchor="middle" x="436.047" y="-446.3" font-family="Times,serif" font-size="14.00">16 (1): 0</text>
</a>
</g>
</g>
<!-- 16&#45;&gt;11 -->
<g id="edge10" class="edge"><title>16&#45;&gt;11</title>
<path fill="none" stroke="black" d="M424.197,-432.411C418.095,-423.868 410.531,-413.278 403.752,-403.787"/>
<polygon fill="black" stroke="black" points="406.471,-401.573 397.811,-395.47 400.775,-405.642 406.471,-401.573"/>
</g>
<!-- 16&#45;&gt;15 -->
<g id="edge7" class="edge"><title>16&#45;&gt;15</title>
<path fill="none" stroke="black" d="M448.133,-432.411C454.357,-423.868 462.072,-413.278 468.987,-403.787"/>
<polygon fill="black" stroke="black" points="471.987,-405.613 475.047,-395.47 466.33,-401.491 471.987,-405.613"/>
</g>
<!-- 18 -->
<g id="node19" class="node"><title>18</title>
<g id="a_node19"><a xlink:title="18, diversity: 1, multiplicities: 12, labels: 0">
<ellipse fill="#fca082" stroke="black" cx="235.047" cy="-162" rx="41.6928" ry="18"/>
<text text-anchor="middle" x="235.047" y="-158.3" font-family="Times,serif" font-size="14.00">18 (1): 0</text>
</a>
</g>
</g>
<!-- 17&#45;&gt;18 -->
<g id="edge17" class="edge"><title>17&#45;&gt;18</title>
<path fill="none" stroke="black" d="M235.047,-215.697C235.047,-207.983 235.047,-198.712 235.047,-190.112"/>
<polygon fill="black" stroke="black" points="238.547,-190.104 235.047,-180.104 231.547,-190.104 238.547,-190.104"/>
</g>
<!-- 20 -->
<g id="node21" class="node"><title>20</title>
<g id="a_node21"><a xlink:title="20, diversity: 1, multiplicities: 15, labels: 0">
<ellipse fill="#fca082" stroke="black" cx="538.047" cy="-234" rx="41.6928" ry="18"/>
<text text-anchor="middle" x="538.047" y="-230.3" font-family="Times,serif" font-size="14.00">20 (1): 0</text>
</a>
</g>
</g>
<!-- 19&#45;&gt;20 -->
<g id="edge16" class="edge"><title>19&#45;&gt;20</title>
<path fill="none" stroke="black" d="M538.047,-287.697C538.047,-279.983 538.047,-270.712 538.047,-262.112"/>
<polygon fill="black" stroke="black" points="541.547,-262.104 538.047,-252.104 534.547,-262.104 541.547,-262.104"/>
</g>
<!-- 22 -->
<g id="node23" class="node"><title>22</title>
<g id="a_node23"><a xlink:title="22, diversity: 1, multiplicities: 11, labels: 0">
<ellipse fill="#fca082" stroke="black" cx="437.047" cy="-162" rx="41.6928" ry="18"/>
<text text-anchor="middle" x="437.047" y="-158.3" font-family="Times,serif" font-size="14.00">22 (1): 0</text>
</a>
</g>
</g>
<!-- 21&#45;&gt;22 -->
<g id="edge19" class="edge"><title>21&#45;&gt;22</title>
<path fill="none" stroke="black" d="M437.047,-215.697C437.047,-207.983 437.047,-198.712 437.047,-190.112"/>
<polygon fill="black" stroke="black" points="440.547,-190.104 437.047,-180.104 433.547,-190.104 440.547,-190.104"/>
</g>
<!-- 23&#45;&gt;1 -->
<g id="edge14" class="edge"><title>23&#45;&gt;1</title>
<path fill="none" stroke="black" d="M639.047,-287.697C639.047,-279.983 639.047,-270.712 639.047,-262.112"/>
<polygon fill="black" stroke="black" points="642.547,-262.104 639.047,-252.104 635.547,-262.104 642.547,-262.104"/>
</g>
</g>
</svg>
