<?xml version="1.0" encoding="UTF-8" standalone="no"?>
<!DOCTYPE svg PUBLIC "-//W3C//DTD SVG 1.1//EN"
 "http://www.w3.org/Graphics/SVG/1.1/DTD/svg11.dtd">
<!-- Generated by graphviz version 2.38.0 (20140413.2041)
 -->
<!-- Title: %3 Pages: 1 -->
<svg width="322pt" height="836pt"
 viewBox="0.00 0.00 321.64 836.00" xmlns="http://www.w3.org/2000/svg" xmlns:xlink="http://www.w3.org/1999/xlink">
<g id="graph0" class="graph" transform="scale(1 1) rotate(0) translate(4 832)">
<title>%3</title>
<polygon fill="white" stroke="none" points="-4,4 -4,-832 317.643,-832 317.643,4 -4,4"/>
<!-- 0 -->
<g id="node1" class="node"><title>0</title>
<g id="a_node1"><a xlink:title="0, diversity: 1, multiplicities: 308, labels: 0">
<ellipse fill="#f6553c" stroke="black" cx="83.0467" cy="-234" rx="37.0935" ry="18"/>
<text text-anchor="middle" x="83.0467" y="-230.3" font-family="Times,serif" font-size="14.00">0 (1): 0</text>
</a>
</g>
</g>
<!-- 2 -->
<g id="node3" class="node"><title>2</title>
<g id="a_node3"><a xlink:title="2, diversity: 2, multiplicities: 3,10, labels: 0">
<ellipse fill="#fca082" stroke="black" cx="37.0467" cy="-162" rx="37.0935" ry="18"/>
<text text-anchor="middle" x="37.0467" y="-158.3" font-family="Times,serif" font-size="14.00">2 (2): 0</text>
</a>
</g>
</g>
<!-- 0&#45;&gt;2 -->
<g id="edge18" class="edge"><title>0&#45;&gt;2</title>
<path fill="none" stroke="black" d="M72.1454,-216.411C66.5885,-207.955 59.7144,-197.494 53.5267,-188.078"/>
<polygon fill="black" stroke="black" points="56.2866,-185.905 47.8698,-179.47 50.4367,-189.749 56.2866,-185.905"/>
</g>
<!-- 7 -->
<g id="node8" class="node"><title>7</title>
<g id="a_node8"><a xlink:title="7, diversity: 1, multiplicities: 44, labels: 0">
<ellipse fill="#fca082" stroke="black" cx="129.047" cy="-162" rx="37.0935" ry="18"/>
<text text-anchor="middle" x="129.047" y="-158.3" font-family="Times,serif" font-size="14.00">7 (1): 0</text>
</a>
</g>
</g>
<!-- 0&#45;&gt;7 -->
<g id="edge8" class="edge"><title>0&#45;&gt;7</title>
<path fill="none" stroke="black" d="M93.9481,-216.411C99.5049,-207.955 106.379,-197.494 112.567,-188.078"/>
<polygon fill="black" stroke="black" points="115.657,-189.749 118.224,-179.47 109.807,-185.905 115.657,-189.749"/>
</g>
<!-- 1 -->
<g id="node2" class="node"><title>1</title>
<g id="a_node2"><a xlink:title="1, diversity: 1, multiplicities: 62, labels: 0">
<ellipse fill="#fca082" stroke="black" cx="175.047" cy="-306" rx="37.0935" ry="18"/>
<text text-anchor="middle" x="175.047" y="-302.3" font-family="Times,serif" font-size="14.00">1 (1): 0</text>
</a>
</g>
</g>
<!-- 1&#45;&gt;0 -->
<g id="edge15" class="edge"><title>1&#45;&gt;0</title>
<path fill="none" stroke="black" d="M155.984,-290.496C142.785,-280.453 125.018,-266.934 110.324,-255.754"/>
<polygon fill="black" stroke="black" points="112.162,-252.755 102.085,-249.485 107.924,-258.326 112.162,-252.755"/>
</g>
<!-- 6 -->
<g id="node7" class="node"><title>6</title>
<g id="a_node7"><a xlink:title="6, diversity: 1, multiplicities: 21, labels: 0">
<ellipse fill="#fca082" stroke="black" cx="175.047" cy="-234" rx="37.0935" ry="18"/>
<text text-anchor="middle" x="175.047" y="-230.3" font-family="Times,serif" font-size="14.00">6 (1): 0</text>
</a>
</g>
</g>
<!-- 1&#45;&gt;6 -->
<g id="edge12" class="edge"><title>1&#45;&gt;6</title>
<path fill="none" stroke="black" d="M175.047,-287.697C175.047,-279.983 175.047,-270.712 175.047,-262.112"/>
<polygon fill="black" stroke="black" points="178.547,-262.104 175.047,-252.104 171.547,-262.104 178.547,-262.104"/>
</g>
<!-- 18 -->
<g id="node19" class="node"><title>18</title>
<g id="a_node19"><a xlink:title="18, diversity: 1, multiplicities: 3, labels: 0">
<ellipse fill="#fee3d6" stroke="black" cx="272.047" cy="-234" rx="41.6928" ry="18"/>
<text text-anchor="middle" x="272.047" y="-230.3" font-family="Times,serif" font-size="14.00">18 (1): 0</text>
</a>
</g>
</g>
<!-- 1&#45;&gt;18 -->
<g id="edge9" class="edge"><title>1&#45;&gt;18</title>
<path fill="none" stroke="black" d="M195.145,-290.496C209.098,-280.427 227.893,-266.864 243.409,-255.666"/>
<polygon fill="black" stroke="black" points="245.579,-258.416 251.64,-249.726 241.483,-252.74 245.579,-258.416"/>
</g>
<!-- 3 -->
<g id="node4" class="node"><title>3</title>
<g id="a_node4"><a xlink:title="3, diversity: 1, multiplicities: 1, labels: 0">
<ellipse fill="#fff5f0" stroke="black" cx="175.047" cy="-450" rx="37.0935" ry="18"/>
<text text-anchor="middle" x="175.047" y="-446.3" font-family="Times,serif" font-size="14.00">3 (1): 0</text>
</a>
</g>
</g>
<!-- 4 -->
<g id="node5" class="node"><title>4</title>
<g id="a_node5"><a xlink:title="4, diversity: 1, multiplicities: 1, labels: 0">
<ellipse fill="#fff5f0" stroke="black" cx="175.047" cy="-378" rx="37.0935" ry="18"/>
<text text-anchor="middle" x="175.047" y="-374.3" font-family="Times,serif" font-size="14.00">4 (1): 0</text>
</a>
</g>
</g>
<!-- 3&#45;&gt;4 -->
<g id="edge17" class="edge"><title>3&#45;&gt;4</title>
<path fill="none" stroke="black" d="M175.047,-431.697C175.047,-423.983 175.047,-414.712 175.047,-406.112"/>
<polygon fill="black" stroke="black" points="178.547,-406.104 175.047,-396.104 171.547,-406.104 178.547,-406.104"/>
</g>
<!-- 4&#45;&gt;1 -->
<g id="edge5" class="edge"><title>4&#45;&gt;1</title>
<path fill="none" stroke="black" d="M175.047,-359.697C175.047,-351.983 175.047,-342.712 175.047,-334.112"/>
<polygon fill="black" stroke="black" points="178.547,-334.104 175.047,-324.104 171.547,-334.104 178.547,-334.104"/>
</g>
<!-- 5 -->
<g id="node6" class="node"><title>5</title>
<g id="a_node6"><a xlink:title="5, diversity: 1, multiplicities: 40, labels: 0">
<ellipse fill="#fca082" stroke="black" cx="60.0467" cy="-90" rx="37.0935" ry="18"/>
<text text-anchor="middle" x="60.0467" y="-86.3" font-family="Times,serif" font-size="14.00">5 (1): 0</text>
</a>
</g>
</g>
<!-- 9 -->
<g id="node10" class="node"><title>9</title>
<g id="a_node10"><a xlink:title="9, diversity: 1, multiplicities: 12, labels: 0">
<ellipse fill="#fca082" stroke="black" cx="60.0467" cy="-18" rx="37.0935" ry="18"/>
<text text-anchor="middle" x="60.0467" y="-14.3" font-family="Times,serif" font-size="14.00">9 (1): 0</text>
</a>
</g>
</g>
<!-- 5&#45;&gt;9 -->
<g id="edge1" class="edge"><title>5&#45;&gt;9</title>
<path fill="none" stroke="black" d="M60.0467,-71.6966C60.0467,-63.9827 60.0467,-54.7125 60.0467,-46.1124"/>
<polygon fill="black" stroke="black" points="63.5468,-46.1043 60.0467,-36.1043 56.5468,-46.1044 63.5468,-46.1043"/>
</g>
<!-- 7&#45;&gt;5 -->
<g id="edge11" class="edge"><title>7&#45;&gt;5</title>
<path fill="none" stroke="black" d="M113.733,-145.465C104.532,-136.13 92.6613,-124.087 82.4226,-113.7"/>
<polygon fill="black" stroke="black" points="84.8299,-111.157 75.3172,-106.492 79.8447,-116.071 84.8299,-111.157"/>
</g>
<!-- 8 -->
<g id="node9" class="node"><title>8</title>
<g id="a_node9"><a xlink:title="8, diversity: 1, multiplicities: 18, labels: 0">
<ellipse fill="#fca082" stroke="black" cx="152.047" cy="-90" rx="37.0935" ry="18"/>
<text text-anchor="middle" x="152.047" y="-86.3" font-family="Times,serif" font-size="14.00">8 (1): 0</text>
</a>
</g>
</g>
<!-- 7&#45;&gt;8 -->
<g id="edge19" class="edge"><title>7&#45;&gt;8</title>
<path fill="none" stroke="black" d="M134.614,-144.055C137.203,-136.176 140.344,-126.617 143.243,-117.794"/>
<polygon fill="black" stroke="black" points="146.574,-118.868 146.371,-108.275 139.924,-116.683 146.574,-118.868"/>
</g>
<!-- 10 -->
<g id="node11" class="node"><title>10</title>
<g id="a_node11"><a xlink:title="10, diversity: 1, multiplicities: 62, labels: 0">
<ellipse fill="#fca082" stroke="black" cx="124.047" cy="-666" rx="41.6928" ry="18"/>
<text text-anchor="middle" x="124.047" y="-662.3" font-family="Times,serif" font-size="14.00">10 (1): 0</text>
</a>
</g>
</g>
<!-- 11 -->
<g id="node12" class="node"><title>11</title>
<g id="a_node12"><a xlink:title="11, diversity: 1, multiplicities: 17, labels: 0">
<ellipse fill="#fca082" stroke="black" cx="74.0467" cy="-594" rx="41.6928" ry="18"/>
<text text-anchor="middle" x="74.0467" y="-590.3" font-family="Times,serif" font-size="14.00">11 (1): 0</text>
</a>
</g>
</g>
<!-- 10&#45;&gt;11 -->
<g id="edge3" class="edge"><title>10&#45;&gt;11</title>
<path fill="none" stroke="black" d="M112.197,-648.411C106.095,-639.868 98.5313,-629.278 91.752,-619.787"/>
<polygon fill="black" stroke="black" points="94.4715,-617.573 85.811,-611.47 88.7753,-621.642 94.4715,-617.573"/>
</g>
<!-- 15 -->
<g id="node16" class="node"><title>15</title>
<g id="a_node16"><a xlink:title="15, diversity: 1, multiplicities: 54, labels: 0">
<ellipse fill="#fca082" stroke="black" cx="175.047" cy="-594" rx="41.6928" ry="18"/>
<text text-anchor="middle" x="175.047" y="-590.3" font-family="Times,serif" font-size="14.00">15 (1): 0</text>
</a>
</g>
</g>
<!-- 10&#45;&gt;15 -->
<g id="edge13" class="edge"><title>10&#45;&gt;15</title>
<path fill="none" stroke="black" d="M136.133,-648.411C142.357,-639.868 150.072,-629.278 156.987,-619.787"/>
<polygon fill="black" stroke="black" points="159.987,-621.613 163.047,-611.47 154.33,-617.491 159.987,-621.613"/>
</g>
<!-- 12 -->
<g id="node13" class="node"><title>12</title>
<g id="a_node13"><a xlink:title="12, diversity: 1, multiplicities: 1, labels: 0">
<ellipse fill="#fff5f0" stroke="black" cx="124.047" cy="-738" rx="41.6928" ry="18"/>
<text text-anchor="middle" x="124.047" y="-734.3" font-family="Times,serif" font-size="14.00">12 (1): 0</text>
</a>
</g>
</g>
<!-- 12&#45;&gt;10 -->
<g id="edge14" class="edge"><title>12&#45;&gt;10</title>
<path fill="none" stroke="black" d="M124.047,-719.697C124.047,-711.983 124.047,-702.712 124.047,-694.112"/>
<polygon fill="black" stroke="black" points="127.547,-694.104 124.047,-684.104 120.547,-694.104 127.547,-694.104"/>
</g>
<!-- 13 -->
<g id="node14" class="node"><title>13</title>
<g id="a_node14"><a xlink:title="13, diversity: 2, multiplicities: 1,18, labels: 0">
<ellipse fill="#fca082" stroke="black" cx="174.047" cy="-810" rx="41.6928" ry="18"/>
<text text-anchor="middle" x="174.047" y="-806.3" font-family="Times,serif" font-size="14.00">13 (2): 0</text>
</a>
</g>
</g>
<!-- 13&#45;&gt;12 -->
<g id="edge2" class="edge"><title>13&#45;&gt;12</title>
<path fill="none" stroke="black" d="M162.197,-792.411C156.095,-783.868 148.531,-773.278 141.752,-763.787"/>
<polygon fill="black" stroke="black" points="144.471,-761.573 135.811,-755.47 138.775,-765.642 144.471,-761.573"/>
</g>
<!-- 14 -->
<g id="node15" class="node"><title>14</title>
<g id="a_node15"><a xlink:title="14, diversity: 1, multiplicities: 6, labels: 0">
<ellipse fill="#fcc4ad" stroke="black" cx="225.047" cy="-738" rx="41.6928" ry="18"/>
<text text-anchor="middle" x="225.047" y="-734.3" font-family="Times,serif" font-size="14.00">14 (1): 0</text>
</a>
</g>
</g>
<!-- 13&#45;&gt;14 -->
<g id="edge4" class="edge"><title>13&#45;&gt;14</title>
<path fill="none" stroke="black" d="M186.133,-792.411C192.357,-783.868 200.072,-773.278 206.987,-763.787"/>
<polygon fill="black" stroke="black" points="209.987,-765.613 213.047,-755.47 204.33,-761.491 209.987,-765.613"/>
</g>
<!-- 16 -->
<g id="node17" class="node"><title>16</title>
<g id="a_node17"><a xlink:title="16, diversity: 1, multiplicities: 20, labels: 0">
<ellipse fill="#fca082" stroke="black" cx="175.047" cy="-522" rx="41.6928" ry="18"/>
<text text-anchor="middle" x="175.047" y="-518.3" font-family="Times,serif" font-size="14.00">16 (1): 0</text>
</a>
</g>
</g>
<!-- 15&#45;&gt;16 -->
<g id="edge10" class="edge"><title>15&#45;&gt;16</title>
<path fill="none" stroke="black" d="M175.047,-575.697C175.047,-567.983 175.047,-558.712 175.047,-550.112"/>
<polygon fill="black" stroke="black" points="178.547,-550.104 175.047,-540.104 171.547,-550.104 178.547,-550.104"/>
</g>
<!-- 16&#45;&gt;3 -->
<g id="edge6" class="edge"><title>16&#45;&gt;3</title>
<path fill="none" stroke="black" d="M175.047,-503.697C175.047,-495.983 175.047,-486.712 175.047,-478.112"/>
<polygon fill="black" stroke="black" points="178.547,-478.104 175.047,-468.104 171.547,-478.104 178.547,-478.104"/>
</g>
<!-- 17 -->
<g id="node18" class="node"><title>17</title>
<g id="a_node18"><a xlink:title="17, diversity: 1, multiplicities: 57, labels: 0">
<ellipse fill="#fca082" stroke="black" cx="272.047" cy="-90" rx="41.6928" ry="18"/>
<text text-anchor="middle" x="272.047" y="-86.3" font-family="Times,serif" font-size="14.00">17 (1): 0</text>
</a>
</g>
</g>
<!-- 19 -->
<g id="node20" class="node"><title>19</title>
<g id="a_node20"><a xlink:title="19, diversity: 1, multiplicities: 9, labels: 0">
<ellipse fill="#fcc4ad" stroke="black" cx="272.047" cy="-162" rx="41.6928" ry="18"/>
<text text-anchor="middle" x="272.047" y="-158.3" font-family="Times,serif" font-size="14.00">19 (1): 0</text>
</a>
</g>
</g>
<!-- 18&#45;&gt;19 -->
<g id="edge16" class="edge"><title>18&#45;&gt;19</title>
<path fill="none" stroke="black" d="M272.047,-215.697C272.047,-207.983 272.047,-198.712 272.047,-190.112"/>
<polygon fill="black" stroke="black" points="275.547,-190.104 272.047,-180.104 268.547,-190.104 275.547,-190.104"/>
</g>
<!-- 19&#45;&gt;17 -->
<g id="edge7" class="edge"><title>19&#45;&gt;17</title>
<path fill="none" stroke="black" d="M272.047,-143.697C272.047,-135.983 272.047,-126.712 272.047,-118.112"/>
<polygon fill="black" stroke="black" points="275.547,-118.104 272.047,-108.104 268.547,-118.104 275.547,-118.104"/>
</g>
</g>
</svg>
