<?xml version="1.0" encoding="UTF-8" standalone="no"?>
<!DOCTYPE svg PUBLIC "-//W3C//DTD SVG 1.1//EN"
 "http://www.w3.org/Graphics/SVG/1.1/DTD/svg11.dtd">
<!-- Generated by graphviz version 2.38.0 (20140413.2041)
 -->
<!-- Title: %3 Pages: 1 -->
<svg width="1353pt" height="908pt"
 viewBox="0.00 0.00 1352.50 908.00" xmlns="http://www.w3.org/2000/svg" xmlns:xlink="http://www.w3.org/1999/xlink">
<g id="graph0" class="graph" transform="scale(1 1) rotate(0) translate(4 904)">
<title>%3</title>
<polygon fill="white" stroke="none" points="-4,4 -4,-904 1348.5,-904 1348.5,4 -4,4"/>
<!-- p0 -->
<g id="node1" class="node"><title>p0</title>
<path fill="none" stroke="black" d="M686.5,-828C686.5,-828 644.5,-828 644.5,-828 638.5,-828 632.5,-822 632.5,-816 632.5,-816 632.5,-804 632.5,-804 632.5,-798 638.5,-792 644.5,-792 644.5,-792 686.5,-792 686.5,-792 692.5,-792 698.5,-798 698.5,-804 698.5,-804 698.5,-816 698.5,-816 698.5,-822 692.5,-828 686.5,-828"/>
<text text-anchor="middle" x="665.5" y="-806.3" font-family="Times,serif" font-size="14.00">path (17)</text>
</g>
<!-- v1 -->
<g id="node2" class="node"><title>v1</title>
<ellipse fill="none" stroke="black" cx="483.5" cy="-738" rx="27" ry="18"/>
<text text-anchor="middle" x="483.5" y="-734.3" font-family="Times,serif" font-size="14.00">1</text>
</g>
<!-- p0&#45;&gt;v1 -->
<g id="edge13" class="edge"><title>p0&#45;&gt;v1</title>
<path fill="none" stroke="black" d="M632.118,-796.161C599.01,-783.427 548.616,-764.045 515.867,-751.449"/>
<polygon fill="black" stroke="black" points="516.899,-748.096 506.309,-747.773 514.386,-754.629 516.899,-748.096"/>
</g>
<!-- p2 -->
<g id="node4" class="node"><title>p2</title>
<path fill="none" stroke="black" d="M127,-684C127,-684 92,-684 92,-684 86,-684 80,-678 80,-672 80,-672 80,-660 80,-660 80,-654 86,-648 92,-648 92,-648 127,-648 127,-648 133,-648 139,-654 139,-660 139,-660 139,-672 139,-672 139,-678 133,-684 127,-684"/>
<text text-anchor="middle" x="109.5" y="-662.3" font-family="Times,serif" font-size="14.00">path (4)</text>
</g>
<!-- v1&#45;&gt;p2 -->
<g id="edge28" class="edge"><title>v1&#45;&gt;p2</title>
<path fill="none" stroke="black" d="M456.503,-735.067C398.909,-730.437 260.136,-716.584 148.5,-684 148.403,-683.972 148.305,-683.943 148.207,-683.914"/>
<polygon fill="black" stroke="black" points="149.616,-680.696 139.021,-680.793 147.364,-687.324 149.616,-680.696"/>
</g>
<!-- v4 -->
<g id="node5" class="node"><title>v4</title>
<ellipse fill="none" stroke="black" cx="184.5" cy="-666" rx="27" ry="18"/>
<text text-anchor="middle" x="184.5" y="-662.3" font-family="Times,serif" font-size="14.00">4</text>
</g>
<!-- v1&#45;&gt;v4 -->
<g id="edge49" class="edge"><title>v1&#45;&gt;v4</title>
<path fill="none" stroke="black" d="M457.2,-733.849C409.235,-727.632 304.726,-711.913 220.5,-684 218.581,-683.364 216.63,-682.651 214.681,-681.888"/>
<polygon fill="black" stroke="black" points="215.658,-678.498 205.088,-677.767 212.895,-684.93 215.658,-678.498"/>
</g>
<!-- p4 -->
<g id="node9" class="node"><title>p4</title>
<path fill="none" stroke="black" d="M277,-684C277,-684 242,-684 242,-684 236,-684 230,-678 230,-672 230,-672 230,-660 230,-660 230,-654 236,-648 242,-648 242,-648 277,-648 277,-648 283,-648 289,-654 289,-660 289,-660 289,-672 289,-672 289,-678 283,-684 277,-684"/>
<text text-anchor="middle" x="259.5" y="-662.3" font-family="Times,serif" font-size="14.00">path (6)</text>
</g>
<!-- v1&#45;&gt;p4 -->
<g id="edge51" class="edge"><title>v1&#45;&gt;p4</title>
<path fill="none" stroke="black" d="M458.469,-731.08C424.172,-722.71 360.583,-706.269 298.715,-684.213"/>
<polygon fill="black" stroke="black" points="299.799,-680.884 289.205,-680.773 297.418,-687.466 299.799,-680.884"/>
</g>
<!-- p5 -->
<g id="node10" class="node"><title>p5</title>
<path fill="none" stroke="black" d="M354,-684C354,-684 319,-684 319,-684 313,-684 307,-678 307,-672 307,-672 307,-660 307,-660 307,-654 313,-648 319,-648 319,-648 354,-648 354,-648 360,-648 366,-654 366,-660 366,-660 366,-672 366,-672 366,-678 360,-684 354,-684"/>
<text text-anchor="middle" x="336.5" y="-662.3" font-family="Times,serif" font-size="14.00">path (2)</text>
</g>
<!-- v1&#45;&gt;p5 -->
<g id="edge26" class="edge"><title>v1&#45;&gt;p5</title>
<path fill="none" stroke="black" d="M462.125,-726.821C439.375,-715.988 402.897,-698.618 375.097,-685.379"/>
<polygon fill="black" stroke="black" points="376.567,-682.203 366.034,-681.064 373.557,-688.523 376.567,-682.203"/>
</g>
<!-- v12 -->
<g id="node11" class="node"><title>v12</title>
<ellipse fill="none" stroke="black" cx="411.5" cy="-666" rx="27" ry="18"/>
<text text-anchor="middle" x="411.5" y="-662.3" font-family="Times,serif" font-size="14.00">12</text>
</g>
<!-- v1&#45;&gt;v12 -->
<g id="edge15" class="edge"><title>v1&#45;&gt;v12</title>
<path fill="none" stroke="black" d="M468.93,-722.834C458.75,-712.938 444.976,-699.546 433.469,-688.359"/>
<polygon fill="black" stroke="black" points="435.905,-685.846 426.296,-681.385 431.026,-690.865 435.905,-685.846"/>
</g>
<!-- v26 -->
<g id="node21" class="node"><title>v26</title>
<ellipse fill="none" stroke="black" cx="483.5" cy="-666" rx="27" ry="18"/>
<text text-anchor="middle" x="483.5" y="-662.3" font-family="Times,serif" font-size="14.00">26</text>
</g>
<!-- v1&#45;&gt;v26 -->
<g id="edge18" class="edge"><title>v1&#45;&gt;v26</title>
<path fill="none" stroke="black" d="M483.5,-719.697C483.5,-711.983 483.5,-702.712 483.5,-694.112"/>
<polygon fill="black" stroke="black" points="487,-694.104 483.5,-684.104 480,-694.104 487,-694.104"/>
</g>
<!-- p9 -->
<g id="node22" class="node"><title>p9</title>
<path fill="none" stroke="black" d="M576,-684C576,-684 541,-684 541,-684 535,-684 529,-678 529,-672 529,-672 529,-660 529,-660 529,-654 535,-648 541,-648 541,-648 576,-648 576,-648 582,-648 588,-654 588,-660 588,-660 588,-672 588,-672 588,-678 582,-684 576,-684"/>
<text text-anchor="middle" x="558.5" y="-662.3" font-family="Times,serif" font-size="14.00">path (8)</text>
</g>
<!-- v1&#45;&gt;p9 -->
<g id="edge70" class="edge"><title>v1&#45;&gt;p9</title>
<path fill="none" stroke="black" d="M498.677,-722.834C508.415,-713.746 521.31,-701.71 532.634,-691.141"/>
<polygon fill="black" stroke="black" points="535.242,-693.495 540.165,-684.113 530.466,-688.377 535.242,-693.495"/>
</g>
<!-- v33 -->
<g id="node26" class="node"><title>v33</title>
<ellipse fill="none" stroke="black" cx="633.5" cy="-666" rx="27" ry="18"/>
<text text-anchor="middle" x="633.5" y="-662.3" font-family="Times,serif" font-size="14.00">33</text>
</g>
<!-- v1&#45;&gt;v33 -->
<g id="edge20" class="edge"><title>v1&#45;&gt;v33</title>
<path fill="none" stroke="black" d="M504.991,-726.971C530.61,-715.015 573.61,-694.949 602.745,-681.352"/>
<polygon fill="black" stroke="black" points="604.467,-684.411 612.049,-677.011 601.507,-678.068 604.467,-684.411"/>
</g>
<!-- v39 -->
<g id="node30" class="node"><title>v39</title>
<ellipse fill="none" stroke="black" cx="705.5" cy="-666" rx="27" ry="18"/>
<text text-anchor="middle" x="705.5" y="-662.3" font-family="Times,serif" font-size="14.00">39</text>
</g>
<!-- v1&#45;&gt;v39 -->
<g id="edge68" class="edge"><title>v1&#45;&gt;v39</title>
<path fill="none" stroke="black" d="M508.589,-731.237C544.718,-722.628 613.237,-705.138 669.5,-684 671.344,-683.307 673.224,-682.558 675.108,-681.773"/>
<polygon fill="black" stroke="black" points="676.696,-684.898 684.428,-677.655 673.866,-678.496 676.696,-684.898"/>
</g>
<!-- v58 -->
<g id="node35" class="node"><title>v58</title>
<ellipse fill="none" stroke="black" cx="777.5" cy="-666" rx="27" ry="18"/>
<text text-anchor="middle" x="777.5" y="-662.3" font-family="Times,serif" font-size="14.00">58</text>
</g>
<!-- v1&#45;&gt;v58 -->
<g id="edge32" class="edge"><title>v1&#45;&gt;v58</title>
<path fill="none" stroke="black" d="M510.043,-733.678C557.423,-727.283 659.298,-711.414 741.5,-684 743.418,-683.36 745.367,-682.645 747.316,-681.88"/>
<polygon fill="black" stroke="black" points="749.105,-684.921 756.907,-677.753 746.338,-678.49 749.105,-684.921"/>
</g>
<!-- p1 -->
<g id="node3" class="node"><title>p1</title>
<path fill="none" stroke="black" d="M612,-540C612,-540 577,-540 577,-540 571,-540 565,-534 565,-528 565,-528 565,-516 565,-516 565,-510 571,-504 577,-504 577,-504 612,-504 612,-504 618,-504 624,-510 624,-516 624,-516 624,-528 624,-528 624,-534 618,-540 612,-540"/>
<text text-anchor="middle" x="594.5" y="-518.3" font-family="Times,serif" font-size="14.00">path (2)</text>
</g>
<!-- p3 -->
<g id="node8" class="node"><title>p3</title>
<path fill="none" stroke="black" d="M88,-612C88,-612 53,-612 53,-612 47,-612 41,-606 41,-600 41,-600 41,-588 41,-588 41,-582 47,-576 53,-576 53,-576 88,-576 88,-576 94,-576 100,-582 100,-588 100,-588 100,-600 100,-600 100,-606 94,-612 88,-612"/>
<text text-anchor="middle" x="70.5" y="-590.3" font-family="Times,serif" font-size="14.00">path (3)</text>
</g>
<!-- v4&#45;&gt;p3 -->
<g id="edge21" class="edge"><title>v4&#45;&gt;p3</title>
<path fill="none" stroke="black" d="M165.161,-653.125C149.296,-643.384 126.385,-629.315 107.077,-617.459"/>
<polygon fill="black" stroke="black" points="108.85,-614.441 98.497,-612.191 105.187,-620.406 108.85,-614.441"/>
</g>
<!-- p8 -->
<g id="node19" class="node"><title>p8</title>
<path fill="none" stroke="black" d="M165,-612C165,-612 130,-612 130,-612 124,-612 118,-606 118,-600 118,-600 118,-588 118,-588 118,-582 124,-576 130,-576 130,-576 165,-576 165,-576 171,-576 177,-582 177,-588 177,-588 177,-600 177,-600 177,-606 171,-612 165,-612"/>
<text text-anchor="middle" x="147.5" y="-590.3" font-family="Times,serif" font-size="14.00">path (2)</text>
</g>
<!-- v4&#45;&gt;p8 -->
<g id="edge41" class="edge"><title>v4&#45;&gt;p8</title>
<path fill="none" stroke="black" d="M175.918,-648.765C171.563,-640.525 166.167,-630.317 161.251,-621.016"/>
<polygon fill="black" stroke="black" points="164.319,-619.329 156.551,-612.124 158.13,-622.6 164.319,-619.329"/>
</g>
<!-- v41 -->
<g id="node32" class="node"><title>v41</title>
<ellipse fill="none" stroke="black" cx="222.5" cy="-594" rx="27" ry="18"/>
<text text-anchor="middle" x="222.5" y="-590.3" font-family="Times,serif" font-size="14.00">41</text>
</g>
<!-- v4&#45;&gt;v41 -->
<g id="edge1" class="edge"><title>v4&#45;&gt;v41</title>
<path fill="none" stroke="black" d="M193.313,-648.765C197.918,-640.283 203.655,-629.714 208.821,-620.197"/>
<polygon fill="black" stroke="black" points="212.039,-621.606 213.734,-611.147 205.887,-618.266 212.039,-621.606"/>
</g>
<!-- v46 -->
<g id="node33" class="node"><title>v46</title>
<ellipse fill="none" stroke="black" cx="294.5" cy="-594" rx="27" ry="18"/>
<text text-anchor="middle" x="294.5" y="-590.3" font-family="Times,serif" font-size="14.00">46</text>
</g>
<!-- v4&#45;&gt;v46 -->
<g id="edge10" class="edge"><title>v4&#45;&gt;v46</title>
<path fill="none" stroke="black" d="M203.661,-652.807C221.169,-641.665 247.259,-625.062 266.993,-612.504"/>
<polygon fill="black" stroke="black" points="269.001,-615.375 275.559,-607.053 265.243,-609.469 269.001,-615.375"/>
</g>
<!-- v5 -->
<g id="node6" class="node"><title>v5</title>
<ellipse fill="none" stroke="black" cx="294.5" cy="-378" rx="27" ry="18"/>
<text text-anchor="middle" x="294.5" y="-374.3" font-family="Times,serif" font-size="14.00">5</text>
</g>
<!-- v15 -->
<g id="node14" class="node"><title>v15</title>
<ellipse fill="none" stroke="black" cx="258.5" cy="-306" rx="27" ry="18"/>
<text text-anchor="middle" x="258.5" y="-302.3" font-family="Times,serif" font-size="14.00">15</text>
</g>
<!-- v5&#45;&gt;v15 -->
<g id="edge66" class="edge"><title>v5&#45;&gt;v15</title>
<path fill="none" stroke="black" d="M286.15,-360.765C281.788,-352.283 276.353,-341.714 271.459,-332.197"/>
<polygon fill="black" stroke="black" points="274.49,-330.439 266.804,-323.147 268.265,-333.641 274.49,-330.439"/>
</g>
<!-- v20 -->
<g id="node18" class="node"><title>v20</title>
<ellipse fill="none" stroke="black" cx="330.5" cy="-306" rx="27" ry="18"/>
<text text-anchor="middle" x="330.5" y="-302.3" font-family="Times,serif" font-size="14.00">20</text>
</g>
<!-- v5&#45;&gt;v20 -->
<g id="edge34" class="edge"><title>v5&#45;&gt;v20</title>
<path fill="none" stroke="black" d="M302.85,-360.765C307.212,-352.283 312.647,-341.714 317.541,-332.197"/>
<polygon fill="black" stroke="black" points="320.735,-333.641 322.196,-323.147 314.51,-330.439 320.735,-333.641"/>
</g>
<!-- v6 -->
<g id="node7" class="node"><title>v6</title>
<ellipse fill="none" stroke="black" cx="447.5" cy="-594" rx="27" ry="18"/>
<text text-anchor="middle" x="447.5" y="-590.3" font-family="Times,serif" font-size="14.00">6</text>
</g>
<!-- v13 -->
<g id="node12" class="node"><title>v13</title>
<ellipse fill="none" stroke="black" cx="294.5" cy="-522" rx="27" ry="18"/>
<text text-anchor="middle" x="294.5" y="-518.3" font-family="Times,serif" font-size="14.00">13</text>
</g>
<!-- p7 -->
<g id="node17" class="node"><title>p7</title>
<path fill="none" stroke="black" d="M237,-468C237,-468 202,-468 202,-468 196,-468 190,-462 190,-456 190,-456 190,-444 190,-444 190,-438 196,-432 202,-432 202,-432 237,-432 237,-432 243,-432 249,-438 249,-444 249,-444 249,-456 249,-456 249,-462 243,-468 237,-468"/>
<text text-anchor="middle" x="219.5" y="-446.3" font-family="Times,serif" font-size="14.00">path (2)</text>
</g>
<!-- v13&#45;&gt;p7 -->
<g id="edge31" class="edge"><title>v13&#45;&gt;p7</title>
<path fill="none" stroke="black" d="M279.323,-506.834C269.585,-497.746 256.69,-485.71 245.366,-475.141"/>
<polygon fill="black" stroke="black" points="247.534,-472.377 237.835,-468.113 242.758,-477.495 247.534,-472.377"/>
</g>
<!-- v29 -->
<g id="node24" class="node"><title>v29</title>
<ellipse fill="none" stroke="black" cx="294.5" cy="-450" rx="27" ry="18"/>
<text text-anchor="middle" x="294.5" y="-446.3" font-family="Times,serif" font-size="14.00">29</text>
</g>
<!-- v13&#45;&gt;v29 -->
<g id="edge25" class="edge"><title>v13&#45;&gt;v29</title>
<path fill="none" stroke="black" d="M294.5,-503.697C294.5,-495.983 294.5,-486.712 294.5,-478.112"/>
<polygon fill="black" stroke="black" points="298,-478.104 294.5,-468.104 291,-478.104 298,-478.104"/>
</g>
<!-- v32 -->
<g id="node25" class="node"><title>v32</title>
<ellipse fill="none" stroke="black" cx="366.5" cy="-450" rx="27" ry="18"/>
<text text-anchor="middle" x="366.5" y="-446.3" font-family="Times,serif" font-size="14.00">32</text>
</g>
<!-- v13&#45;&gt;v32 -->
<g id="edge9" class="edge"><title>v13&#45;&gt;v32</title>
<path fill="none" stroke="black" d="M309.07,-506.834C319.25,-496.938 333.024,-483.546 344.531,-472.359"/>
<polygon fill="black" stroke="black" points="346.974,-474.865 351.704,-465.385 342.095,-469.846 346.974,-474.865"/>
</g>
<!-- p6 -->
<g id="node13" class="node"><title>p6</title>
<path fill="none" stroke="black" d="M165.5,-180C165.5,-180 123.5,-180 123.5,-180 117.5,-180 111.5,-174 111.5,-168 111.5,-168 111.5,-156 111.5,-156 111.5,-150 117.5,-144 123.5,-144 123.5,-144 165.5,-144 165.5,-144 171.5,-144 177.5,-150 177.5,-156 177.5,-156 177.5,-168 177.5,-168 177.5,-174 171.5,-180 165.5,-180"/>
<text text-anchor="middle" x="144.5" y="-158.3" font-family="Times,serif" font-size="14.00">path (11)</text>
</g>
<!-- v68 -->
<g id="node37" class="node"><title>v68</title>
<ellipse fill="none" stroke="black" cx="144.5" cy="-90" rx="27" ry="18"/>
<text text-anchor="middle" x="144.5" y="-86.3" font-family="Times,serif" font-size="14.00">68</text>
</g>
<!-- p6&#45;&gt;v68 -->
<g id="edge29" class="edge"><title>p6&#45;&gt;v68</title>
<path fill="none" stroke="black" d="M144.5,-143.697C144.5,-135.983 144.5,-126.712 144.5,-118.112"/>
<polygon fill="black" stroke="black" points="148,-118.104 144.5,-108.104 141,-118.104 148,-118.104"/>
</g>
<!-- v38 -->
<g id="node29" class="node"><title>v38</title>
<ellipse fill="none" stroke="black" cx="222.5" cy="-234" rx="27" ry="18"/>
<text text-anchor="middle" x="222.5" y="-230.3" font-family="Times,serif" font-size="14.00">38</text>
</g>
<!-- v15&#45;&gt;v38 -->
<g id="edge65" class="edge"><title>v15&#45;&gt;v38</title>
<path fill="none" stroke="black" d="M250.15,-288.765C245.788,-280.283 240.353,-269.714 235.459,-260.197"/>
<polygon fill="black" stroke="black" points="238.49,-258.439 230.804,-251.147 232.265,-261.641 238.49,-258.439"/>
</g>
<!-- v40 -->
<g id="node31" class="node"><title>v40</title>
<ellipse fill="none" stroke="black" cx="294.5" cy="-234" rx="27" ry="18"/>
<text text-anchor="middle" x="294.5" y="-230.3" font-family="Times,serif" font-size="14.00">40</text>
</g>
<!-- v15&#45;&gt;v40 -->
<g id="edge71" class="edge"><title>v15&#45;&gt;v40</title>
<path fill="none" stroke="black" d="M266.85,-288.765C271.212,-280.283 276.647,-269.714 281.541,-260.197"/>
<polygon fill="black" stroke="black" points="284.735,-261.641 286.196,-251.147 278.51,-258.439 284.735,-261.641"/>
</g>
<!-- v17 -->
<g id="node15" class="node"><title>v17</title>
<ellipse fill="none" stroke="black" cx="258.5" cy="-90" rx="27" ry="18"/>
<text text-anchor="middle" x="258.5" y="-86.3" font-family="Times,serif" font-size="14.00">17</text>
</g>
<!-- v18 -->
<g id="node16" class="node"><title>v18</title>
<ellipse fill="none" stroke="black" cx="330.5" cy="-90" rx="27" ry="18"/>
<text text-anchor="middle" x="330.5" y="-86.3" font-family="Times,serif" font-size="14.00">18</text>
</g>
<!-- v24 -->
<g id="node20" class="node"><title>v24</title>
<ellipse fill="none" stroke="black" cx="669.5" cy="-522" rx="27" ry="18"/>
<text text-anchor="middle" x="669.5" y="-518.3" font-family="Times,serif" font-size="14.00">24</text>
</g>
<!-- v26&#45;&gt;v6 -->
<g id="edge8" class="edge"><title>v26&#45;&gt;v6</title>
<path fill="none" stroke="black" d="M475.15,-648.765C470.788,-640.283 465.353,-629.714 460.459,-620.197"/>
<polygon fill="black" stroke="black" points="463.49,-618.439 455.804,-611.147 457.265,-621.641 463.49,-618.439"/>
</g>
<!-- v35 -->
<g id="node28" class="node"><title>v35</title>
<ellipse fill="none" stroke="black" cx="519.5" cy="-594" rx="27" ry="18"/>
<text text-anchor="middle" x="519.5" y="-590.3" font-family="Times,serif" font-size="14.00">35</text>
</g>
<!-- v26&#45;&gt;v35 -->
<g id="edge56" class="edge"><title>v26&#45;&gt;v35</title>
<path fill="none" stroke="black" d="M491.85,-648.765C496.212,-640.283 501.647,-629.714 506.541,-620.197"/>
<polygon fill="black" stroke="black" points="509.735,-621.641 511.196,-611.147 503.51,-618.439 509.735,-621.641"/>
</g>
<!-- v28 -->
<g id="node23" class="node"><title>v28</title>
<ellipse fill="none" stroke="black" cx="633.5" cy="-594" rx="27" ry="18"/>
<text text-anchor="middle" x="633.5" y="-590.3" font-family="Times,serif" font-size="14.00">28</text>
</g>
<!-- v28&#45;&gt;p1 -->
<g id="edge44" class="edge"><title>v28&#45;&gt;p1</title>
<path fill="none" stroke="black" d="M624.455,-576.765C619.864,-568.525 614.176,-558.317 608.994,-549.016"/>
<polygon fill="black" stroke="black" points="611.965,-547.156 604.04,-540.124 605.85,-550.563 611.965,-547.156"/>
</g>
<!-- v28&#45;&gt;v24 -->
<g id="edge46" class="edge"><title>v28&#45;&gt;v24</title>
<path fill="none" stroke="black" d="M641.85,-576.765C646.212,-568.283 651.647,-557.714 656.541,-548.197"/>
<polygon fill="black" stroke="black" points="659.735,-549.641 661.196,-539.147 653.51,-546.439 659.735,-549.641"/>
</g>
<!-- v29&#45;&gt;v5 -->
<g id="edge72" class="edge"><title>v29&#45;&gt;v5</title>
<path fill="none" stroke="black" d="M294.5,-431.697C294.5,-423.983 294.5,-414.712 294.5,-406.112"/>
<polygon fill="black" stroke="black" points="298,-406.104 294.5,-396.104 291,-406.104 298,-406.104"/>
</g>
<!-- v33&#45;&gt;v28 -->
<g id="edge52" class="edge"><title>v33&#45;&gt;v28</title>
<path fill="none" stroke="black" d="M633.5,-647.697C633.5,-639.983 633.5,-630.712 633.5,-622.112"/>
<polygon fill="black" stroke="black" points="637,-622.104 633.5,-612.104 630,-622.104 637,-622.104"/>
</g>
<!-- v34 -->
<g id="node27" class="node"><title>v34</title>
<ellipse fill="none" stroke="black" cx="222.5" cy="-162" rx="27" ry="18"/>
<text text-anchor="middle" x="222.5" y="-158.3" font-family="Times,serif" font-size="14.00">34</text>
</g>
<!-- v38&#45;&gt;p6 -->
<g id="edge50" class="edge"><title>v38&#45;&gt;p6</title>
<path fill="none" stroke="black" d="M207.09,-219.17C196.819,-209.953 183.053,-197.599 171.046,-186.823"/>
<polygon fill="black" stroke="black" points="173.244,-184.093 163.464,-180.019 168.569,-189.303 173.244,-184.093"/>
</g>
<!-- v38&#45;&gt;v34 -->
<g id="edge35" class="edge"><title>v38&#45;&gt;v34</title>
<path fill="none" stroke="black" d="M222.5,-215.697C222.5,-207.983 222.5,-198.712 222.5,-190.112"/>
<polygon fill="black" stroke="black" points="226,-190.104 222.5,-180.104 219,-190.104 226,-190.104"/>
</g>
<!-- v47 -->
<g id="node34" class="node"><title>v47</title>
<ellipse fill="none" stroke="black" cx="294.5" cy="-162" rx="27" ry="18"/>
<text text-anchor="middle" x="294.5" y="-158.3" font-family="Times,serif" font-size="14.00">47</text>
</g>
<!-- v40&#45;&gt;v47 -->
<g id="edge63" class="edge"><title>v40&#45;&gt;v47</title>
<path fill="none" stroke="black" d="M294.5,-215.697C294.5,-207.983 294.5,-198.712 294.5,-190.112"/>
<polygon fill="black" stroke="black" points="298,-190.104 294.5,-180.104 291,-190.104 298,-190.104"/>
</g>
<!-- v46&#45;&gt;v13 -->
<g id="edge23" class="edge"><title>v46&#45;&gt;v13</title>
<path fill="none" stroke="black" d="M294.5,-575.697C294.5,-567.983 294.5,-558.712 294.5,-550.112"/>
<polygon fill="black" stroke="black" points="298,-550.104 294.5,-540.104 291,-550.104 298,-550.104"/>
</g>
<!-- v47&#45;&gt;v17 -->
<g id="edge37" class="edge"><title>v47&#45;&gt;v17</title>
<path fill="none" stroke="black" d="M286.15,-144.765C281.788,-136.283 276.353,-125.714 271.459,-116.197"/>
<polygon fill="black" stroke="black" points="274.49,-114.439 266.804,-107.147 268.265,-117.641 274.49,-114.439"/>
</g>
<!-- v47&#45;&gt;v18 -->
<g id="edge30" class="edge"><title>v47&#45;&gt;v18</title>
<path fill="none" stroke="black" d="M302.85,-144.765C307.212,-136.283 312.647,-125.714 317.541,-116.197"/>
<polygon fill="black" stroke="black" points="320.735,-117.641 322.196,-107.147 314.51,-114.439 320.735,-117.641"/>
</g>
<!-- v65 -->
<g id="node36" class="node"><title>v65</title>
<ellipse fill="none" stroke="black" cx="818.5" cy="-450" rx="27" ry="18"/>
<text text-anchor="middle" x="818.5" y="-446.3" font-family="Times,serif" font-size="14.00">65</text>
</g>
<!-- p10 -->
<g id="node38" class="node"><title>p10</title>
<path fill="none" stroke="black" d="M47,-36C47,-36 12,-36 12,-36 6,-36 0,-30 0,-24 0,-24 0,-12 0,-12 0,-6 6,-0 12,-0 12,-0 47,-0 47,-0 53,-0 59,-6 59,-12 59,-12 59,-24 59,-24 59,-30 53,-36 47,-36"/>
<text text-anchor="middle" x="29.5" y="-14.3" font-family="Times,serif" font-size="14.00">path (3)</text>
</g>
<!-- v68&#45;&gt;p10 -->
<g id="edge64" class="edge"><title>v68&#45;&gt;p10</title>
<path fill="none" stroke="black" d="M125.252,-77.2836C109.171,-67.4957 85.787,-53.2616 66.1531,-41.3106"/>
<polygon fill="black" stroke="black" points="67.7976,-38.2142 57.4358,-36.0044 64.1579,-44.1936 67.7976,-38.2142"/>
</g>
<!-- p11 -->
<g id="node39" class="node"><title>p11</title>
<path fill="none" stroke="black" d="M124,-36C124,-36 89,-36 89,-36 83,-36 77,-30 77,-24 77,-24 77,-12 77,-12 77,-6 83,-0 89,-0 89,-0 124,-0 124,-0 130,-0 136,-6 136,-12 136,-12 136,-24 136,-24 136,-30 130,-36 124,-36"/>
<text text-anchor="middle" x="106.5" y="-14.3" font-family="Times,serif" font-size="14.00">path (9)</text>
</g>
<!-- v68&#45;&gt;p11 -->
<g id="edge14" class="edge"><title>v68&#45;&gt;p11</title>
<path fill="none" stroke="black" d="M135.687,-72.7646C131.214,-64.5255 125.672,-54.3166 120.623,-45.0157"/>
<polygon fill="black" stroke="black" points="123.643,-43.2426 115.796,-36.1239 117.491,-46.5823 123.643,-43.2426"/>
</g>
<!-- p12 -->
<g id="node40" class="node"><title>p12</title>
<path fill="none" stroke="black" d="M201,-36C201,-36 166,-36 166,-36 160,-36 154,-30 154,-24 154,-24 154,-12 154,-12 154,-6 160,-0 166,-0 166,-0 201,-0 201,-0 207,-0 213,-6 213,-12 213,-12 213,-24 213,-24 213,-30 207,-36 201,-36"/>
<text text-anchor="middle" x="183.5" y="-14.3" font-family="Times,serif" font-size="14.00">path (2)</text>
</g>
<!-- v68&#45;&gt;p12 -->
<g id="edge38" class="edge"><title>v68&#45;&gt;p12</title>
<path fill="none" stroke="black" d="M153.545,-72.7646C158.136,-64.5255 163.824,-54.3166 169.006,-45.0157"/>
<polygon fill="black" stroke="black" points="172.15,-46.5631 173.96,-36.1239 166.035,-43.1561 172.15,-46.5631"/>
</g>
<!-- p13 -->
<g id="node41" class="node"><title>p13</title>
<path fill="none" stroke="black" d="M278,-36C278,-36 243,-36 243,-36 237,-36 231,-30 231,-24 231,-24 231,-12 231,-12 231,-6 237,-0 243,-0 243,-0 278,-0 278,-0 284,-0 290,-6 290,-12 290,-12 290,-24 290,-24 290,-30 284,-36 278,-36"/>
<text text-anchor="middle" x="260.5" y="-14.3" font-family="Times,serif" font-size="14.00">path (2)</text>
</g>
<!-- v68&#45;&gt;p13 -->
<g id="edge6" class="edge"><title>v68&#45;&gt;p13</title>
<path fill="none" stroke="black" d="M163.916,-77.2836C180.136,-67.4957 203.724,-53.2616 223.528,-41.3106"/>
<polygon fill="black" stroke="black" points="225.568,-44.1677 232.321,-36.0044 221.951,-38.1744 225.568,-44.1677"/>
</g>
<!-- v87 -->
<g id="node42" class="node"><title>v87</title>
<ellipse fill="none" stroke="black" cx="818.5" cy="-594" rx="27" ry="18"/>
<text text-anchor="middle" x="818.5" y="-590.3" font-family="Times,serif" font-size="14.00">87</text>
</g>
<!-- p15 -->
<g id="node44" class="node"><title>p15</title>
<path fill="none" stroke="black" d="M799,-540C799,-540 764,-540 764,-540 758,-540 752,-534 752,-528 752,-528 752,-516 752,-516 752,-510 758,-504 764,-504 764,-504 799,-504 799,-504 805,-504 811,-510 811,-516 811,-516 811,-528 811,-528 811,-534 805,-540 799,-540"/>
<text text-anchor="middle" x="781.5" y="-518.3" font-family="Times,serif" font-size="14.00">path (5)</text>
</g>
<!-- v87&#45;&gt;p15 -->
<g id="edge47" class="edge"><title>v87&#45;&gt;p15</title>
<path fill="none" stroke="black" d="M809.918,-576.765C805.563,-568.525 800.167,-558.317 795.251,-549.016"/>
<polygon fill="black" stroke="black" points="798.319,-547.329 790.551,-540.124 792.13,-550.6 798.319,-547.329"/>
</g>
<!-- v104 -->
<g id="node49" class="node"><title>v104</title>
<ellipse fill="none" stroke="black" cx="856.5" cy="-522" rx="27" ry="18"/>
<text text-anchor="middle" x="856.5" y="-518.3" font-family="Times,serif" font-size="14.00">104</text>
</g>
<!-- v87&#45;&gt;v104 -->
<g id="edge60" class="edge"><title>v87&#45;&gt;v104</title>
<path fill="none" stroke="black" d="M827.313,-576.765C831.918,-568.283 837.655,-557.714 842.821,-548.197"/>
<polygon fill="black" stroke="black" points="846.039,-549.606 847.734,-539.147 839.887,-546.266 846.039,-549.606"/>
</g>
<!-- p14 -->
<g id="node43" class="node"><title>p14</title>
<path fill="none" stroke="black" d="M870,-684C870,-684 835,-684 835,-684 829,-684 823,-678 823,-672 823,-672 823,-660 823,-660 823,-654 829,-648 835,-648 835,-648 870,-648 870,-648 876,-648 882,-654 882,-660 882,-660 882,-672 882,-672 882,-678 876,-684 870,-684"/>
<text text-anchor="middle" x="852.5" y="-662.3" font-family="Times,serif" font-size="14.00">path (2)</text>
</g>
<!-- p14&#45;&gt;v87 -->
<g id="edge33" class="edge"><title>p14&#45;&gt;v87</title>
<path fill="none" stroke="black" d="M844.096,-647.697C840.167,-639.609 835.409,-629.812 831.065,-620.869"/>
<polygon fill="black" stroke="black" points="834.091,-619.088 826.574,-611.622 827.795,-622.147 834.091,-619.088"/>
</g>
<!-- p16 -->
<g id="node45" class="node"><title>p16</title>
<path fill="none" stroke="black" d="M947,-684C947,-684 912,-684 912,-684 906,-684 900,-678 900,-672 900,-672 900,-660 900,-660 900,-654 906,-648 912,-648 912,-648 947,-648 947,-648 953,-648 959,-654 959,-660 959,-660 959,-672 959,-672 959,-678 953,-684 947,-684"/>
<text text-anchor="middle" x="929.5" y="-662.3" font-family="Times,serif" font-size="14.00">path (2)</text>
</g>
<!-- p17 -->
<g id="node46" class="node"><title>p17</title>
<path fill="none" stroke="black" d="M964,-828C964,-828 929,-828 929,-828 923,-828 917,-822 917,-816 917,-816 917,-804 917,-804 917,-798 923,-792 929,-792 929,-792 964,-792 964,-792 970,-792 976,-798 976,-804 976,-804 976,-816 976,-816 976,-822 970,-828 964,-828"/>
<text text-anchor="middle" x="946.5" y="-806.3" font-family="Times,serif" font-size="14.00">path (6)</text>
</g>
<!-- v99 -->
<g id="node47" class="node"><title>v99</title>
<ellipse fill="none" stroke="black" cx="910.5" cy="-738" rx="27" ry="18"/>
<text text-anchor="middle" x="910.5" y="-734.3" font-family="Times,serif" font-size="14.00">99</text>
</g>
<!-- p17&#45;&gt;v99 -->
<g id="edge62" class="edge"><title>p17&#45;&gt;v99</title>
<path fill="none" stroke="black" d="M937.601,-791.697C933.336,-783.403 928.146,-773.311 923.453,-764.187"/>
<polygon fill="black" stroke="black" points="926.489,-762.437 918.803,-755.145 920.264,-765.638 926.489,-762.437"/>
</g>
<!-- v99&#45;&gt;p14 -->
<g id="edge27" class="edge"><title>v99&#45;&gt;p14</title>
<path fill="none" stroke="black" d="M897.915,-721.811C890.731,-713.141 881.543,-702.052 873.313,-692.12"/>
<polygon fill="black" stroke="black" points="875.766,-689.594 866.691,-684.127 870.376,-694.06 875.766,-689.594"/>
</g>
<!-- v99&#45;&gt;p16 -->
<g id="edge69" class="edge"><title>v99&#45;&gt;p16</title>
<path fill="none" stroke="black" d="M915.099,-720.055C917.215,-712.261 919.777,-702.822 922.15,-694.079"/>
<polygon fill="black" stroke="black" points="925.569,-694.843 924.811,-684.275 918.814,-693.009 925.569,-694.843"/>
</g>
<!-- p18 -->
<g id="node48" class="node"><title>p18</title>
<path fill="none" stroke="black" d="M911,-468C911,-468 876,-468 876,-468 870,-468 864,-462 864,-456 864,-456 864,-444 864,-444 864,-438 870,-432 876,-432 876,-432 911,-432 911,-432 917,-432 923,-438 923,-444 923,-444 923,-456 923,-456 923,-462 917,-468 911,-468"/>
<text text-anchor="middle" x="893.5" y="-446.3" font-family="Times,serif" font-size="14.00">path (3)</text>
</g>
<!-- v104&#45;&gt;v65 -->
<g id="edge61" class="edge"><title>v104&#45;&gt;v65</title>
<path fill="none" stroke="black" d="M847.687,-504.765C843.082,-496.283 837.345,-485.714 832.179,-476.197"/>
<polygon fill="black" stroke="black" points="835.113,-474.266 827.266,-467.147 828.961,-477.606 835.113,-474.266"/>
</g>
<!-- v104&#45;&gt;p18 -->
<g id="edge11" class="edge"><title>v104&#45;&gt;p18</title>
<path fill="none" stroke="black" d="M865.082,-504.765C869.437,-496.525 874.833,-486.317 879.749,-477.016"/>
<polygon fill="black" stroke="black" points="882.87,-478.6 884.449,-468.124 876.681,-475.329 882.87,-478.6"/>
</g>
<!-- v110 -->
<g id="node50" class="node"><title>v110</title>
<ellipse fill="none" stroke="black" cx="1039.5" cy="-882" rx="27" ry="18"/>
<text text-anchor="middle" x="1039.5" y="-878.3" font-family="Times,serif" font-size="14.00">110</text>
</g>
<!-- v110&#45;&gt;p0 -->
<g id="edge12" class="edge"><title>v110&#45;&gt;p0</title>
<path fill="none" stroke="black" d="M1013.79,-876.189C950.617,-864.364 787.207,-833.779 708.766,-819.098"/>
<polygon fill="black" stroke="black" points="709.204,-815.619 698.731,-817.22 707.916,-822.5 709.204,-815.619"/>
</g>
<!-- v110&#45;&gt;p17 -->
<g id="edge67" class="edge"><title>v110&#45;&gt;p17</title>
<path fill="none" stroke="black" d="M1022.01,-867.834C1009.52,-858.431 992.374,-845.529 977.581,-834.394"/>
<polygon fill="black" stroke="black" points="979.289,-831.299 969.195,-828.082 975.079,-836.892 979.289,-831.299"/>
</g>
<!-- v111 -->
<g id="node51" class="node"><title>v111</title>
<ellipse fill="none" stroke="black" cx="1039.5" cy="-810" rx="27" ry="18"/>
<text text-anchor="middle" x="1039.5" y="-806.3" font-family="Times,serif" font-size="14.00">111</text>
</g>
<!-- v110&#45;&gt;v111 -->
<g id="edge7" class="edge"><title>v110&#45;&gt;v111</title>
<path fill="none" stroke="black" d="M1039.5,-863.697C1039.5,-855.983 1039.5,-846.712 1039.5,-838.112"/>
<polygon fill="black" stroke="black" points="1043,-838.104 1039.5,-828.104 1036,-838.104 1043,-838.104"/>
</g>
<!-- p19 -->
<g id="node54" class="node"><title>p19</title>
<path fill="none" stroke="black" d="M1138.5,-828C1138.5,-828 1096.5,-828 1096.5,-828 1090.5,-828 1084.5,-822 1084.5,-816 1084.5,-816 1084.5,-804 1084.5,-804 1084.5,-798 1090.5,-792 1096.5,-792 1096.5,-792 1138.5,-792 1138.5,-792 1144.5,-792 1150.5,-798 1150.5,-804 1150.5,-804 1150.5,-816 1150.5,-816 1150.5,-822 1144.5,-828 1138.5,-828"/>
<text text-anchor="middle" x="1117.5" y="-806.3" font-family="Times,serif" font-size="14.00">path (11)</text>
</g>
<!-- v110&#45;&gt;p19 -->
<g id="edge40" class="edge"><title>v110&#45;&gt;p19</title>
<path fill="none" stroke="black" d="M1054.91,-867.17C1065.18,-857.953 1078.95,-845.599 1090.95,-834.823"/>
<polygon fill="black" stroke="black" points="1093.43,-837.303 1098.54,-828.019 1088.76,-832.093 1093.43,-837.303"/>
</g>
<!-- p23 -->
<g id="node67" class="node"><title>p23</title>
<path fill="none" stroke="black" d="M1216,-828C1216,-828 1181,-828 1181,-828 1175,-828 1169,-822 1169,-816 1169,-816 1169,-804 1169,-804 1169,-798 1175,-792 1181,-792 1181,-792 1216,-792 1216,-792 1222,-792 1228,-798 1228,-804 1228,-804 1228,-816 1228,-816 1228,-822 1222,-828 1216,-828"/>
<text text-anchor="middle" x="1198.5" y="-806.3" font-family="Times,serif" font-size="14.00">path (2)</text>
</g>
<!-- v110&#45;&gt;p23 -->
<g id="edge43" class="edge"><title>v110&#45;&gt;p23</title>
<path fill="none" stroke="black" d="M1061.61,-871.267C1086.9,-860.134 1128.77,-841.699 1159.56,-828.144"/>
<polygon fill="black" stroke="black" points="1160.99,-831.34 1168.73,-824.107 1158.16,-824.933 1160.99,-831.34"/>
</g>
<!-- v136 -->
<g id="node60" class="node"><title>v136</title>
<ellipse fill="none" stroke="black" cx="982.5" cy="-738" rx="27" ry="18"/>
<text text-anchor="middle" x="982.5" y="-734.3" font-family="Times,serif" font-size="14.00">136</text>
</g>
<!-- v111&#45;&gt;v136 -->
<g id="edge55" class="edge"><title>v111&#45;&gt;v136</title>
<path fill="none" stroke="black" d="M1027.13,-793.811C1019.59,-784.546 1009.8,-772.52 1001.31,-762.094"/>
<polygon fill="black" stroke="black" points="1003.87,-759.704 994.844,-754.159 998.444,-764.124 1003.87,-759.704"/>
</g>
<!-- p21 -->
<g id="node63" class="node"><title>p21</title>
<path fill="none" stroke="black" d="M1075,-756C1075,-756 1040,-756 1040,-756 1034,-756 1028,-750 1028,-744 1028,-744 1028,-732 1028,-732 1028,-726 1034,-720 1040,-720 1040,-720 1075,-720 1075,-720 1081,-720 1087,-726 1087,-732 1087,-732 1087,-744 1087,-744 1087,-750 1081,-756 1075,-756"/>
<text text-anchor="middle" x="1057.5" y="-734.3" font-family="Times,serif" font-size="14.00">path (2)</text>
</g>
<!-- v111&#45;&gt;p21 -->
<g id="edge58" class="edge"><title>v111&#45;&gt;p21</title>
<path fill="none" stroke="black" d="M1043.86,-792.055C1045.86,-784.261 1048.29,-774.822 1050.54,-766.079"/>
<polygon fill="black" stroke="black" points="1053.96,-766.832 1053.06,-756.275 1047.18,-765.089 1053.96,-766.832"/>
</g>
<!-- p24 -->
<g id="node69" class="node"><title>p24</title>
<path fill="none" stroke="black" d="M1152,-756C1152,-756 1117,-756 1117,-756 1111,-756 1105,-750 1105,-744 1105,-744 1105,-732 1105,-732 1105,-726 1111,-720 1117,-720 1117,-720 1152,-720 1152,-720 1158,-720 1164,-726 1164,-732 1164,-732 1164,-744 1164,-744 1164,-750 1158,-756 1152,-756"/>
<text text-anchor="middle" x="1134.5" y="-734.3" font-family="Times,serif" font-size="14.00">path (4)</text>
</g>
<!-- v111&#45;&gt;p24 -->
<g id="edge16" class="edge"><title>v111&#45;&gt;p24</title>
<path fill="none" stroke="black" d="M1056.92,-796.161C1069.76,-786.703 1087.57,-773.578 1102.89,-762.289"/>
<polygon fill="black" stroke="black" points="1105.13,-764.991 1111.1,-756.242 1100.97,-759.356 1105.13,-764.991"/>
</g>
<!-- v112 -->
<g id="node52" class="node"><title>v112</title>
<ellipse fill="none" stroke="black" cx="1115.5" cy="-306" rx="27" ry="18"/>
<text text-anchor="middle" x="1115.5" y="-302.3" font-family="Times,serif" font-size="14.00">112</text>
</g>
<!-- v113 -->
<g id="node53" class="node"><title>v113</title>
<ellipse fill="none" stroke="black" cx="1153.5" cy="-450" rx="27" ry="18"/>
<text text-anchor="middle" x="1153.5" y="-446.3" font-family="Times,serif" font-size="14.00">113</text>
</g>
<!-- v134 -->
<g id="node59" class="node"><title>v134</title>
<ellipse fill="none" stroke="black" cx="1153.5" cy="-378" rx="27" ry="18"/>
<text text-anchor="middle" x="1153.5" y="-374.3" font-family="Times,serif" font-size="14.00">134</text>
</g>
<!-- v113&#45;&gt;v134 -->
<g id="edge17" class="edge"><title>v113&#45;&gt;v134</title>
<path fill="none" stroke="black" d="M1153.5,-431.697C1153.5,-423.983 1153.5,-414.712 1153.5,-406.112"/>
<polygon fill="black" stroke="black" points="1157,-406.104 1153.5,-396.104 1150,-406.104 1157,-406.104"/>
</g>
<!-- v116 -->
<g id="node55" class="node"><title>v116</title>
<ellipse fill="none" stroke="black" cx="1245.5" cy="-738" rx="27" ry="18"/>
<text text-anchor="middle" x="1245.5" y="-734.3" font-family="Times,serif" font-size="14.00">116</text>
</g>
<!-- p19&#45;&gt;v116 -->
<g id="edge39" class="edge"><title>p19&#45;&gt;v116</title>
<path fill="none" stroke="black" d="M1148.81,-791.876C1169.39,-780.625 1196.12,-766.005 1216.26,-754.99"/>
<polygon fill="black" stroke="black" points="1218.19,-757.925 1225.28,-750.056 1214.83,-751.783 1218.19,-757.925"/>
</g>
<!-- v145 -->
<g id="node65" class="node"><title>v145</title>
<ellipse fill="none" stroke="black" cx="1245.5" cy="-666" rx="27" ry="18"/>
<text text-anchor="middle" x="1245.5" y="-662.3" font-family="Times,serif" font-size="14.00">145</text>
</g>
<!-- v116&#45;&gt;v145 -->
<g id="edge36" class="edge"><title>v116&#45;&gt;v145</title>
<path fill="none" stroke="black" d="M1245.5,-719.697C1245.5,-711.983 1245.5,-702.712 1245.5,-694.112"/>
<polygon fill="black" stroke="black" points="1249,-694.104 1245.5,-684.104 1242,-694.104 1249,-694.104"/>
</g>
<!-- v155 -->
<g id="node70" class="node"><title>v155</title>
<ellipse fill="none" stroke="black" cx="1317.5" cy="-666" rx="27" ry="18"/>
<text text-anchor="middle" x="1317.5" y="-662.3" font-family="Times,serif" font-size="14.00">155</text>
</g>
<!-- v116&#45;&gt;v155 -->
<g id="edge48" class="edge"><title>v116&#45;&gt;v155</title>
<path fill="none" stroke="black" d="M1260.07,-722.834C1270.25,-712.938 1284.02,-699.546 1295.53,-688.359"/>
<polygon fill="black" stroke="black" points="1297.97,-690.865 1302.7,-681.385 1293.09,-685.846 1297.97,-690.865"/>
</g>
<!-- v120 -->
<g id="node56" class="node"><title>v120</title>
<ellipse fill="none" stroke="black" cx="1189.5" cy="-594" rx="27" ry="18"/>
<text text-anchor="middle" x="1189.5" y="-590.3" font-family="Times,serif" font-size="14.00">120</text>
</g>
<!-- v125 -->
<g id="node57" class="node"><title>v125</title>
<ellipse fill="none" stroke="black" cx="1189.5" cy="-522" rx="27" ry="18"/>
<text text-anchor="middle" x="1189.5" y="-518.3" font-family="Times,serif" font-size="14.00">125</text>
</g>
<!-- v120&#45;&gt;v125 -->
<g id="edge59" class="edge"><title>v120&#45;&gt;v125</title>
<path fill="none" stroke="black" d="M1189.5,-575.697C1189.5,-567.983 1189.5,-558.712 1189.5,-550.112"/>
<polygon fill="black" stroke="black" points="1193,-550.104 1189.5,-540.104 1186,-550.104 1193,-550.104"/>
</g>
<!-- v125&#45;&gt;v113 -->
<g id="edge2" class="edge"><title>v125&#45;&gt;v113</title>
<path fill="none" stroke="black" d="M1181.15,-504.765C1176.79,-496.283 1171.35,-485.714 1166.46,-476.197"/>
<polygon fill="black" stroke="black" points="1169.49,-474.439 1161.8,-467.147 1163.27,-477.641 1169.49,-474.439"/>
</g>
<!-- v153 -->
<g id="node68" class="node"><title>v153</title>
<ellipse fill="none" stroke="black" cx="1225.5" cy="-450" rx="27" ry="18"/>
<text text-anchor="middle" x="1225.5" y="-446.3" font-family="Times,serif" font-size="14.00">153</text>
</g>
<!-- v125&#45;&gt;v153 -->
<g id="edge45" class="edge"><title>v125&#45;&gt;v153</title>
<path fill="none" stroke="black" d="M1197.85,-504.765C1202.21,-496.283 1207.65,-485.714 1212.54,-476.197"/>
<polygon fill="black" stroke="black" points="1215.73,-477.641 1217.2,-467.147 1209.51,-474.439 1215.73,-477.641"/>
</g>
<!-- p20 -->
<g id="node58" class="node"><title>p20</title>
<path fill="none" stroke="black" d="M1208,-324C1208,-324 1173,-324 1173,-324 1167,-324 1161,-318 1161,-312 1161,-312 1161,-300 1161,-300 1161,-294 1167,-288 1173,-288 1173,-288 1208,-288 1208,-288 1214,-288 1220,-294 1220,-300 1220,-300 1220,-312 1220,-312 1220,-318 1214,-324 1208,-324"/>
<text text-anchor="middle" x="1190.5" y="-302.3" font-family="Times,serif" font-size="14.00">path (3)</text>
</g>
<!-- v134&#45;&gt;v112 -->
<g id="edge24" class="edge"><title>v134&#45;&gt;v112</title>
<path fill="none" stroke="black" d="M1144.69,-360.765C1140.08,-352.283 1134.34,-341.714 1129.18,-332.197"/>
<polygon fill="black" stroke="black" points="1132.11,-330.266 1124.27,-323.147 1125.96,-333.606 1132.11,-330.266"/>
</g>
<!-- v134&#45;&gt;p20 -->
<g id="edge4" class="edge"><title>v134&#45;&gt;p20</title>
<path fill="none" stroke="black" d="M1162.08,-360.765C1166.44,-352.525 1171.83,-342.317 1176.75,-333.016"/>
<polygon fill="black" stroke="black" points="1179.87,-334.6 1181.45,-324.124 1173.68,-331.329 1179.87,-334.6"/>
</g>
<!-- v141 -->
<g id="node61" class="node"><title>v141</title>
<ellipse fill="none" stroke="black" cx="890.5" cy="-594" rx="27" ry="18"/>
<text text-anchor="middle" x="890.5" y="-590.3" font-family="Times,serif" font-size="14.00">141</text>
</g>
<!-- v142 -->
<g id="node62" class="node"><title>v142</title>
<ellipse fill="none" stroke="black" cx="1037.5" cy="-666" rx="27" ry="18"/>
<text text-anchor="middle" x="1037.5" y="-662.3" font-family="Times,serif" font-size="14.00">142</text>
</g>
<!-- v142&#45;&gt;v141 -->
<g id="edge57" class="edge"><title>v142&#45;&gt;v141</title>
<path fill="none" stroke="black" d="M1016.12,-654.821C991.085,-642.898 949.417,-623.056 920.99,-609.519"/>
<polygon fill="black" stroke="black" points="922.434,-606.33 911.901,-605.191 919.425,-612.65 922.434,-606.33"/>
</g>
<!-- v144 -->
<g id="node64" class="node"><title>v144</title>
<ellipse fill="none" stroke="black" cx="962.5" cy="-594" rx="27" ry="18"/>
<text text-anchor="middle" x="962.5" y="-590.3" font-family="Times,serif" font-size="14.00">144</text>
</g>
<!-- v142&#45;&gt;v144 -->
<g id="edge54" class="edge"><title>v142&#45;&gt;v144</title>
<path fill="none" stroke="black" d="M1022.32,-650.834C1011.65,-640.872 997.181,-627.369 985.147,-616.137"/>
<polygon fill="black" stroke="black" points="987.354,-613.409 977.655,-609.144 982.577,-618.526 987.354,-613.409"/>
</g>
<!-- p22 -->
<g id="node66" class="node"><title>p22</title>
<path fill="none" stroke="black" d="M1055,-612C1055,-612 1020,-612 1020,-612 1014,-612 1008,-606 1008,-600 1008,-600 1008,-588 1008,-588 1008,-582 1014,-576 1020,-576 1020,-576 1055,-576 1055,-576 1061,-576 1067,-582 1067,-588 1067,-588 1067,-600 1067,-600 1067,-606 1061,-612 1055,-612"/>
<text text-anchor="middle" x="1037.5" y="-590.3" font-family="Times,serif" font-size="14.00">path (4)</text>
</g>
<!-- v142&#45;&gt;p22 -->
<g id="edge42" class="edge"><title>v142&#45;&gt;p22</title>
<path fill="none" stroke="black" d="M1037.5,-647.697C1037.5,-639.983 1037.5,-630.712 1037.5,-622.112"/>
<polygon fill="black" stroke="black" points="1041,-622.104 1037.5,-612.104 1034,-622.104 1041,-622.104"/>
</g>
<!-- p26 -->
<g id="node73" class="node"><title>p26</title>
<path fill="none" stroke="black" d="M1132,-612C1132,-612 1097,-612 1097,-612 1091,-612 1085,-606 1085,-600 1085,-600 1085,-588 1085,-588 1085,-582 1091,-576 1097,-576 1097,-576 1132,-576 1132,-576 1138,-576 1144,-582 1144,-588 1144,-588 1144,-600 1144,-600 1144,-606 1138,-612 1132,-612"/>
<text text-anchor="middle" x="1114.5" y="-590.3" font-family="Times,serif" font-size="14.00">path (3)</text>
</g>
<!-- v142&#45;&gt;p26 -->
<g id="edge53" class="edge"><title>v142&#45;&gt;p26</title>
<path fill="none" stroke="black" d="M1053.08,-650.834C1063.08,-641.746 1076.32,-629.71 1087.94,-619.141"/>
<polygon fill="black" stroke="black" points="1090.63,-621.429 1095.68,-612.113 1085.92,-616.25 1090.63,-621.429"/>
</g>
<!-- p21&#45;&gt;v142 -->
<g id="edge5" class="edge"><title>p21&#45;&gt;v142</title>
<path fill="none" stroke="black" d="M1052.56,-719.697C1050.33,-711.898 1047.65,-702.509 1045.17,-693.829"/>
<polygon fill="black" stroke="black" points="1048.5,-692.758 1042.39,-684.104 1041.77,-694.681 1048.5,-692.758"/>
</g>
<!-- v157 -->
<g id="node71" class="node"><title>v157</title>
<ellipse fill="none" stroke="black" cx="1173.5" cy="-666" rx="27" ry="18"/>
<text text-anchor="middle" x="1173.5" y="-662.3" font-family="Times,serif" font-size="14.00">157</text>
</g>
<!-- p24&#45;&gt;v157 -->
<g id="edge3" class="edge"><title>p24&#45;&gt;v157</title>
<path fill="none" stroke="black" d="M1144.14,-719.697C1148.81,-711.316 1154.5,-701.098 1159.63,-691.899"/>
<polygon fill="black" stroke="black" points="1162.7,-693.584 1164.51,-683.145 1156.58,-690.177 1162.7,-693.584"/>
</g>
<!-- v157&#45;&gt;v120 -->
<g id="edge19" class="edge"><title>v157&#45;&gt;v120</title>
<path fill="none" stroke="black" d="M1177.37,-648.055C1179.15,-640.261 1181.31,-630.822 1183.31,-622.079"/>
<polygon fill="black" stroke="black" points="1186.74,-622.804 1185.55,-612.275 1179.91,-621.244 1186.74,-622.804"/>
</g>
<!-- p25 -->
<g id="node72" class="node"><title>p25</title>
<path fill="none" stroke="black" d="M1282,-612C1282,-612 1247,-612 1247,-612 1241,-612 1235,-606 1235,-600 1235,-600 1235,-588 1235,-588 1235,-582 1241,-576 1247,-576 1247,-576 1282,-576 1282,-576 1288,-576 1294,-582 1294,-588 1294,-588 1294,-600 1294,-600 1294,-606 1288,-612 1282,-612"/>
<text text-anchor="middle" x="1264.5" y="-590.3" font-family="Times,serif" font-size="14.00">path (2)</text>
</g>
<!-- v157&#45;&gt;p25 -->
<g id="edge22" class="edge"><title>v157&#45;&gt;p25</title>
<path fill="none" stroke="black" d="M1190.62,-651.834C1202.84,-642.431 1219.61,-629.529 1234.09,-618.394"/>
<polygon fill="black" stroke="black" points="1236.5,-620.953 1242.29,-612.082 1232.23,-615.405 1236.5,-620.953"/>
</g>
</g>
</svg>
