<?xml version="1.0" encoding="UTF-8" standalone="no"?>
<!DOCTYPE svg PUBLIC "-//W3C//DTD SVG 1.1//EN"
 "http://www.w3.org/Graphics/SVG/1.1/DTD/svg11.dtd">
<!-- Generated by graphviz version 2.38.0 (20140413.2041)
 -->
<!-- Title: %3 Pages: 1 -->
<svg width="217pt" height="404pt"
 viewBox="0.00 0.00 217.00 404.00" xmlns="http://www.w3.org/2000/svg" xmlns:xlink="http://www.w3.org/1999/xlink">
<g id="graph0" class="graph" transform="scale(1 1) rotate(0) translate(4 400)">
<title>%3</title>
<polygon fill="white" stroke="none" points="-4,4 -4,-400 213,-400 213,4 -4,4"/>
<!-- p0 -->
<g id="node1" class="node"><title>p0</title>
<path fill="none" stroke="black" d="M47,-108C47,-108 12,-108 12,-108 6,-108 0,-102 0,-96 0,-96 0,-84 0,-84 0,-78 6,-72 12,-72 12,-72 47,-72 47,-72 53,-72 59,-78 59,-84 59,-84 59,-96 59,-96 59,-102 53,-108 47,-108"/>
<text text-anchor="middle" x="29.5" y="-86.3" font-family="Times,serif" font-size="14.00">path (2)</text>
</g>
<!-- v1 -->
<g id="node2" class="node"><title>v1</title>
<ellipse fill="none" stroke="black" cx="104.5" cy="-234" rx="27" ry="18"/>
<text text-anchor="middle" x="104.5" y="-230.3" font-family="Times,serif" font-size="14.00">1</text>
</g>
<!-- v2 -->
<g id="node3" class="node"><title>v2</title>
<ellipse fill="none" stroke="black" cx="49.5" cy="-162" rx="27" ry="18"/>
<text text-anchor="middle" x="49.5" y="-158.3" font-family="Times,serif" font-size="14.00">2</text>
</g>
<!-- v1&#45;&gt;v2 -->
<g id="edge1" class="edge"><title>v1&#45;&gt;v2</title>
<path fill="none" stroke="black" d="M92.5658,-217.811C85.2864,-208.546 75.8374,-196.52 67.6456,-186.094"/>
<polygon fill="black" stroke="black" points="70.3413,-183.86 61.4109,-178.159 64.837,-188.185 70.3413,-183.86"/>
</g>
<!-- v3 -->
<g id="node4" class="node"><title>v3</title>
<ellipse fill="none" stroke="black" cx="104.5" cy="-90" rx="27" ry="18"/>
<text text-anchor="middle" x="104.5" y="-86.3" font-family="Times,serif" font-size="14.00">3</text>
</g>
<!-- v1&#45;&gt;v3 -->
<g id="edge3" class="edge"><title>v1&#45;&gt;v3</title>
<path fill="none" stroke="black" d="M104.5,-215.871C104.5,-191.67 104.5,-147.211 104.5,-118.393"/>
<polygon fill="black" stroke="black" points="108,-118.189 104.5,-108.189 101,-118.189 108,-118.189"/>
</g>
<!-- v6 -->
<g id="node7" class="node"><title>v6</title>
<ellipse fill="none" stroke="black" cx="159.5" cy="-162" rx="27" ry="18"/>
<text text-anchor="middle" x="159.5" y="-158.3" font-family="Times,serif" font-size="14.00">6</text>
</g>
<!-- v1&#45;&gt;v6 -->
<g id="edge9" class="edge"><title>v1&#45;&gt;v6</title>
<path fill="none" stroke="black" d="M116.434,-217.811C123.714,-208.546 133.163,-196.52 141.354,-186.094"/>
<polygon fill="black" stroke="black" points="144.163,-188.185 147.589,-178.159 138.659,-183.86 144.163,-188.185"/>
</g>
<!-- v2&#45;&gt;p0 -->
<g id="edge6" class="edge"><title>v2&#45;&gt;p0</title>
<path fill="none" stroke="black" d="M44.6586,-144.055C42.4317,-136.261 39.7348,-126.822 37.2368,-118.079"/>
<polygon fill="black" stroke="black" points="40.5484,-116.929 34.4358,-108.275 33.8177,-118.852 40.5484,-116.929"/>
</g>
<!-- v2&#45;&gt;v3 -->
<g id="edge8" class="edge"><title>v2&#45;&gt;v3</title>
<path fill="none" stroke="black" d="M61.4342,-145.811C68.7136,-136.546 78.1626,-124.52 86.3544,-114.094"/>
<polygon fill="black" stroke="black" points="89.163,-116.185 92.5891,-106.159 83.6587,-111.86 89.163,-116.185"/>
</g>
<!-- p1 -->
<g id="node6" class="node"><title>p1</title>
<path fill="none" stroke="black" d="M122,-36C122,-36 87,-36 87,-36 81,-36 75,-30 75,-24 75,-24 75,-12 75,-12 75,-6 81,-0 87,-0 87,-0 122,-0 122,-0 128,-0 134,-6 134,-12 134,-12 134,-24 134,-24 134,-30 128,-36 122,-36"/>
<text text-anchor="middle" x="104.5" y="-14.3" font-family="Times,serif" font-size="14.00">path (2)</text>
</g>
<!-- v3&#45;&gt;p1 -->
<g id="edge7" class="edge"><title>v3&#45;&gt;p1</title>
<path fill="none" stroke="black" d="M104.5,-71.6966C104.5,-63.9827 104.5,-54.7125 104.5,-46.1124"/>
<polygon fill="black" stroke="black" points="108,-46.1043 104.5,-36.1043 101,-46.1044 108,-46.1043"/>
</g>
<!-- v4 -->
<g id="node5" class="node"><title>v4</title>
<ellipse fill="none" stroke="black" cx="141.5" cy="-378" rx="27" ry="18"/>
<text text-anchor="middle" x="141.5" y="-374.3" font-family="Times,serif" font-size="14.00">4</text>
</g>
<!-- v8 -->
<g id="node8" class="node"><title>v8</title>
<ellipse fill="none" stroke="black" cx="104.5" cy="-306" rx="27" ry="18"/>
<text text-anchor="middle" x="104.5" y="-302.3" font-family="Times,serif" font-size="14.00">8</text>
</g>
<!-- v4&#45;&gt;v8 -->
<g id="edge4" class="edge"><title>v4&#45;&gt;v8</title>
<path fill="none" stroke="black" d="M132.918,-360.765C128.435,-352.283 122.849,-341.714 117.819,-332.197"/>
<polygon fill="black" stroke="black" points="120.802,-330.353 113.035,-323.147 114.614,-333.624 120.802,-330.353"/>
</g>
<!-- p2 -->
<g id="node9" class="node"><title>p2</title>
<path fill="none" stroke="black" d="M197,-324C197,-324 162,-324 162,-324 156,-324 150,-318 150,-312 150,-312 150,-300 150,-300 150,-294 156,-288 162,-288 162,-288 197,-288 197,-288 203,-288 209,-294 209,-300 209,-300 209,-312 209,-312 209,-318 203,-324 197,-324"/>
<text text-anchor="middle" x="179.5" y="-302.3" font-family="Times,serif" font-size="14.00">path (2)</text>
</g>
<!-- v4&#45;&gt;p2 -->
<g id="edge2" class="edge"><title>v4&#45;&gt;p2</title>
<path fill="none" stroke="black" d="M150.313,-360.765C154.786,-352.525 160.328,-342.317 165.377,-333.016"/>
<polygon fill="black" stroke="black" points="168.509,-334.582 170.204,-324.124 162.357,-331.243 168.509,-334.582"/>
</g>
<!-- v8&#45;&gt;v1 -->
<g id="edge5" class="edge"><title>v8&#45;&gt;v1</title>
<path fill="none" stroke="black" d="M104.5,-287.697C104.5,-279.983 104.5,-270.712 104.5,-262.112"/>
<polygon fill="black" stroke="black" points="108,-262.104 104.5,-252.104 101,-262.104 108,-262.104"/>
</g>
</g>
</svg>
