<?xml version="1.0" encoding="UTF-8" standalone="no"?>
<!DOCTYPE svg PUBLIC "-//W3C//DTD SVG 1.1//EN"
 "http://www.w3.org/Graphics/SVG/1.1/DTD/svg11.dtd">
<!-- Generated by graphviz version 2.38.0 (20140413.2041)
 -->
<!-- Title: %3 Pages: 1 -->
<svg width="366pt" height="260pt"
 viewBox="0.00 0.00 366.00 260.00" xmlns="http://www.w3.org/2000/svg" xmlns:xlink="http://www.w3.org/1999/xlink">
<g id="graph0" class="graph" transform="scale(1 1) rotate(0) translate(4 256)">
<title>%3</title>
<polygon fill="white" stroke="none" points="-4,4 -4,-256 362,-256 362,4 -4,4"/>
<!-- v0 -->
<g id="node1" class="node"><title>v0</title>
<ellipse fill="none" stroke="black" cx="215.5" cy="-18" rx="27" ry="18"/>
<text text-anchor="middle" x="215.5" y="-14.3" font-family="Times,serif" font-size="14.00">0</text>
</g>
<!-- p0 -->
<g id="node2" class="node"><title>p0</title>
<path fill="none" stroke="black" d="M47,-180C47,-180 12,-180 12,-180 6,-180 0,-174 0,-168 0,-168 0,-156 0,-156 0,-150 6,-144 12,-144 12,-144 47,-144 47,-144 53,-144 59,-150 59,-156 59,-156 59,-168 59,-168 59,-174 53,-180 47,-180"/>
<text text-anchor="middle" x="29.5" y="-158.3" font-family="Times,serif" font-size="14.00">path (2)</text>
</g>
<!-- v2 -->
<g id="node3" class="node"><title>v2</title>
<ellipse fill="none" stroke="black" cx="104.5" cy="-162" rx="27" ry="18"/>
<text text-anchor="middle" x="104.5" y="-158.3" font-family="Times,serif" font-size="14.00">2</text>
</g>
<!-- v3 -->
<g id="node4" class="node"><title>v3</title>
<ellipse fill="none" stroke="black" cx="176.5" cy="-234" rx="27" ry="18"/>
<text text-anchor="middle" x="176.5" y="-230.3" font-family="Times,serif" font-size="14.00">3</text>
</g>
<!-- v3&#45;&gt;p0 -->
<g id="edge2" class="edge"><title>v3&#45;&gt;p0</title>
<path fill="none" stroke="black" d="M155.125,-222.821C132.375,-211.988 95.8973,-194.618 68.0966,-181.379"/>
<polygon fill="black" stroke="black" points="69.567,-178.203 59.0336,-177.064 66.5574,-184.523 69.567,-178.203"/>
</g>
<!-- v3&#45;&gt;v2 -->
<g id="edge1" class="edge"><title>v3&#45;&gt;v2</title>
<path fill="none" stroke="black" d="M161.93,-218.834C151.75,-208.938 137.976,-195.546 126.469,-184.359"/>
<polygon fill="black" stroke="black" points="128.905,-181.846 119.296,-177.385 124.026,-186.865 128.905,-181.846"/>
</g>
<!-- v5 -->
<g id="node5" class="node"><title>v5</title>
<ellipse fill="none" stroke="black" cx="176.5" cy="-162" rx="27" ry="18"/>
<text text-anchor="middle" x="176.5" y="-158.3" font-family="Times,serif" font-size="14.00">5</text>
</g>
<!-- v3&#45;&gt;v5 -->
<g id="edge8" class="edge"><title>v3&#45;&gt;v5</title>
<path fill="none" stroke="black" d="M176.5,-215.697C176.5,-207.983 176.5,-198.712 176.5,-190.112"/>
<polygon fill="black" stroke="black" points="180,-190.104 176.5,-180.104 173,-190.104 180,-190.104"/>
</g>
<!-- p1 -->
<g id="node6" class="node"><title>p1</title>
<path fill="none" stroke="black" d="M269,-180C269,-180 234,-180 234,-180 228,-180 222,-174 222,-168 222,-168 222,-156 222,-156 222,-150 228,-144 234,-144 234,-144 269,-144 269,-144 275,-144 281,-150 281,-156 281,-156 281,-168 281,-168 281,-174 275,-180 269,-180"/>
<text text-anchor="middle" x="251.5" y="-158.3" font-family="Times,serif" font-size="14.00">path (5)</text>
</g>
<!-- v3&#45;&gt;p1 -->
<g id="edge6" class="edge"><title>v3&#45;&gt;p1</title>
<path fill="none" stroke="black" d="M191.677,-218.834C201.415,-209.746 214.31,-197.71 225.634,-187.141"/>
<polygon fill="black" stroke="black" points="228.242,-189.495 233.165,-180.113 223.466,-184.377 228.242,-189.495"/>
</g>
<!-- p2 -->
<g id="node7" class="node"><title>p2</title>
<path fill="none" stroke="black" d="M346,-180C346,-180 311,-180 311,-180 305,-180 299,-174 299,-168 299,-168 299,-156 299,-156 299,-150 305,-144 311,-144 311,-144 346,-144 346,-144 352,-144 358,-150 358,-156 358,-156 358,-168 358,-168 358,-174 352,-180 346,-180"/>
<text text-anchor="middle" x="328.5" y="-158.3" font-family="Times,serif" font-size="14.00">path (4)</text>
</g>
<!-- v3&#45;&gt;p2 -->
<g id="edge5" class="edge"><title>v3&#45;&gt;p2</title>
<path fill="none" stroke="black" d="M198.278,-222.971C222.026,-212.034 260.512,-194.31 289.499,-180.961"/>
<polygon fill="black" stroke="black" points="291.312,-183.98 298.931,-176.617 288.384,-177.621 291.312,-183.98"/>
</g>
<!-- v13 -->
<g id="node8" class="node"><title>v13</title>
<ellipse fill="none" stroke="black" cx="251.5" cy="-90" rx="27" ry="18"/>
<text text-anchor="middle" x="251.5" y="-86.3" font-family="Times,serif" font-size="14.00">13</text>
</g>
<!-- p1&#45;&gt;v13 -->
<g id="edge4" class="edge"><title>p1&#45;&gt;v13</title>
<path fill="none" stroke="black" d="M251.5,-143.697C251.5,-135.983 251.5,-126.712 251.5,-118.112"/>
<polygon fill="black" stroke="black" points="255,-118.104 251.5,-108.104 248,-118.104 255,-118.104"/>
</g>
<!-- v13&#45;&gt;v0 -->
<g id="edge7" class="edge"><title>v13&#45;&gt;v0</title>
<path fill="none" stroke="black" d="M243.15,-72.7646C238.788,-64.2831 233.353,-53.7144 228.459,-44.1974"/>
<polygon fill="black" stroke="black" points="231.49,-42.4395 223.804,-35.1473 225.265,-45.6409 231.49,-42.4395"/>
</g>
<!-- v15 -->
<g id="node9" class="node"><title>v15</title>
<ellipse fill="none" stroke="black" cx="287.5" cy="-18" rx="27" ry="18"/>
<text text-anchor="middle" x="287.5" y="-14.3" font-family="Times,serif" font-size="14.00">15</text>
</g>
<!-- v13&#45;&gt;v15 -->
<g id="edge3" class="edge"><title>v13&#45;&gt;v15</title>
<path fill="none" stroke="black" d="M259.85,-72.7646C264.212,-64.2831 269.647,-53.7144 274.541,-44.1974"/>
<polygon fill="black" stroke="black" points="277.735,-45.6409 279.196,-35.1473 271.51,-42.4395 277.735,-45.6409"/>
</g>
</g>
</svg>
