<?xml version="1.0" encoding="UTF-8" standalone="no"?>
<!DOCTYPE svg PUBLIC "-//W3C//DTD SVG 1.1//EN"
 "http://www.w3.org/Graphics/SVG/1.1/DTD/svg11.dtd">
<!-- Generated by graphviz version 2.38.0 (20140413.2041)
 -->
<!-- Title: %3 Pages: 1 -->
<svg width="970pt" height="692pt"
 viewBox="0.00 0.00 969.50 692.00" xmlns="http://www.w3.org/2000/svg" xmlns:xlink="http://www.w3.org/1999/xlink">
<g id="graph0" class="graph" transform="scale(1 1) rotate(0) translate(4 688)">
<title>%3</title>
<polygon fill="white" stroke="none" points="-4,4 -4,-688 965.5,-688 965.5,4 -4,4"/>
<!-- p0 -->
<g id="node1" class="node"><title>p0</title>
<path fill="none" stroke="black" d="M47,-540C47,-540 12,-540 12,-540 6,-540 0,-534 0,-528 0,-528 0,-516 0,-516 0,-510 6,-504 12,-504 12,-504 47,-504 47,-504 53,-504 59,-510 59,-516 59,-516 59,-528 59,-528 59,-534 53,-540 47,-540"/>
<text text-anchor="middle" x="29.5" y="-518.3" font-family="Times,serif" font-size="14.00">path (3)</text>
</g>
<!-- v2 -->
<g id="node2" class="node"><title>v2</title>
<ellipse fill="none" stroke="black" cx="311.5" cy="-234" rx="27" ry="18"/>
<text text-anchor="middle" x="311.5" y="-230.3" font-family="Times,serif" font-size="14.00">2</text>
</g>
<!-- v5 -->
<g id="node4" class="node"><title>v5</title>
<ellipse fill="none" stroke="black" cx="402.5" cy="-450" rx="27" ry="18"/>
<text text-anchor="middle" x="402.5" y="-446.3" font-family="Times,serif" font-size="14.00">5</text>
</g>
<!-- v2&#45;&gt;v5 -->
<g id="edge9" class="edge"><title>v2&#45;&gt;v5</title>
<path fill="none" stroke="black" d="M309.276,-252.369C306.169,-283.48 303.611,-349.776 330.5,-396 340.001,-412.333 356.747,-425.117 371.699,-434.034"/>
<polygon fill="black" stroke="black" points="370.263,-437.241 380.696,-439.083 373.689,-431.137 370.263,-437.241"/>
</g>
<!-- p4 -->
<g id="node13" class="node"><title>p4</title>
<path fill="none" stroke="black" d="M328,-180C328,-180 293,-180 293,-180 287,-180 281,-174 281,-168 281,-168 281,-156 281,-156 281,-150 287,-144 293,-144 293,-144 328,-144 328,-144 334,-144 340,-150 340,-156 340,-156 340,-168 340,-168 340,-174 334,-180 328,-180"/>
<text text-anchor="middle" x="310.5" y="-158.3" font-family="Times,serif" font-size="14.00">path (3)</text>
</g>
<!-- v2&#45;&gt;p4 -->
<g id="edge13" class="edge"><title>v2&#45;&gt;p4</title>
<path fill="none" stroke="black" d="M311.253,-215.697C311.143,-207.983 311.01,-198.712 310.887,-190.112"/>
<polygon fill="black" stroke="black" points="314.387,-190.053 310.744,-180.104 307.388,-190.153 314.387,-190.053"/>
</g>
<!-- p1 -->
<g id="node3" class="node"><title>p1</title>
<path fill="none" stroke="black" d="M403,-108C403,-108 368,-108 368,-108 362,-108 356,-102 356,-96 356,-96 356,-84 356,-84 356,-78 362,-72 368,-72 368,-72 403,-72 403,-72 409,-72 415,-78 415,-84 415,-84 415,-96 415,-96 415,-102 409,-108 403,-108"/>
<text text-anchor="middle" x="385.5" y="-86.3" font-family="Times,serif" font-size="14.00">path (3)</text>
</g>
<!-- v9 -->
<g id="node8" class="node"><title>v9</title>
<ellipse fill="none" stroke="black" cx="366.5" cy="-378" rx="27" ry="18"/>
<text text-anchor="middle" x="366.5" y="-374.3" font-family="Times,serif" font-size="14.00">9</text>
</g>
<!-- v5&#45;&gt;v9 -->
<g id="edge1" class="edge"><title>v5&#45;&gt;v9</title>
<path fill="none" stroke="black" d="M394.15,-432.765C389.788,-424.283 384.353,-413.714 379.459,-404.197"/>
<polygon fill="black" stroke="black" points="382.49,-402.439 374.804,-395.147 376.265,-405.641 382.49,-402.439"/>
</g>
<!-- v22 -->
<g id="node19" class="node"><title>v22</title>
<ellipse fill="none" stroke="black" cx="402.5" cy="-666" rx="27" ry="18"/>
<text text-anchor="middle" x="402.5" y="-662.3" font-family="Times,serif" font-size="14.00">22</text>
</g>
<!-- v5&#45;&gt;v22 -->
<g id="edge22" class="edge"><title>v5&#45;&gt;v22</title>
<path fill="none" stroke="black" d="M399.252,-468.112C397.454,-478.458 395.405,-491.937 394.5,-504 390.908,-551.865 390.908,-564.135 394.5,-612 395.137,-620.482 396.338,-629.664 397.621,-637.964"/>
<polygon fill="black" stroke="black" points="394.176,-638.588 399.252,-647.888 401.084,-637.453 394.176,-638.588"/>
</g>
<!-- v25 -->
<g id="node22" class="node"><title>v25</title>
<ellipse fill="none" stroke="black" cx="430.5" cy="-522" rx="27" ry="18"/>
<text text-anchor="middle" x="430.5" y="-518.3" font-family="Times,serif" font-size="14.00">25</text>
</g>
<!-- v5&#45;&gt;v25 -->
<g id="edge20" class="edge"><title>v5&#45;&gt;v25</title>
<path fill="none" stroke="black" d="M414.505,-466.671C418.68,-474.743 422.992,-484.814 426.321,-494.084"/>
<polygon fill="black" stroke="black" points="423.036,-495.298 429.494,-503.697 429.683,-493.103 423.036,-495.298"/>
</g>
<!-- v36 -->
<g id="node30" class="node"><title>v36</title>
<ellipse fill="none" stroke="black" cx="438.5" cy="-378" rx="27" ry="18"/>
<text text-anchor="middle" x="438.5" y="-374.3" font-family="Times,serif" font-size="14.00">36</text>
</g>
<!-- v5&#45;&gt;v36 -->
<g id="edge12" class="edge"><title>v5&#45;&gt;v36</title>
<path fill="none" stroke="black" d="M410.85,-432.765C415.212,-424.283 420.647,-413.714 425.541,-404.197"/>
<polygon fill="black" stroke="black" points="428.735,-405.641 430.196,-395.147 422.51,-402.439 428.735,-405.641"/>
</g>
<!-- v6 -->
<g id="node5" class="node"><title>v6</title>
<ellipse fill="none" stroke="black" cx="384.5" cy="-234" rx="27" ry="18"/>
<text text-anchor="middle" x="384.5" y="-230.3" font-family="Times,serif" font-size="14.00">6</text>
</g>
<!-- v24 -->
<g id="node21" class="node"><title>v24</title>
<ellipse fill="none" stroke="black" cx="385.5" cy="-162" rx="27" ry="18"/>
<text text-anchor="middle" x="385.5" y="-158.3" font-family="Times,serif" font-size="14.00">24</text>
</g>
<!-- v6&#45;&gt;v24 -->
<g id="edge7" class="edge"><title>v6&#45;&gt;v24</title>
<path fill="none" stroke="black" d="M384.747,-215.697C384.857,-207.983 384.99,-198.712 385.113,-190.112"/>
<polygon fill="black" stroke="black" points="388.612,-190.153 385.256,-180.104 381.613,-190.053 388.612,-190.153"/>
</g>
<!-- v7 -->
<g id="node6" class="node"><title>v7</title>
<ellipse fill="none" stroke="black" cx="212.5" cy="-594" rx="27" ry="18"/>
<text text-anchor="middle" x="212.5" y="-590.3" font-family="Times,serif" font-size="14.00">7</text>
</g>
<!-- v7&#45;&gt;p0 -->
<g id="edge32" class="edge"><title>v7&#45;&gt;p0</title>
<path fill="none" stroke="black" d="M189.146,-584.877C160.529,-574.816 110.649,-556.926 68.5,-540 68.4058,-539.962 68.3114,-539.924 68.2169,-539.886"/>
<polygon fill="black" stroke="black" points="69.8138,-536.759 59.2351,-536.174 67.1402,-543.228 69.8138,-536.759"/>
</g>
<!-- v21 -->
<g id="node18" class="node"><title>v21</title>
<ellipse fill="none" stroke="black" cx="104.5" cy="-522" rx="27" ry="18"/>
<text text-anchor="middle" x="104.5" y="-518.3" font-family="Times,serif" font-size="14.00">21</text>
</g>
<!-- v7&#45;&gt;v21 -->
<g id="edge2" class="edge"><title>v7&#45;&gt;v21</title>
<path fill="none" stroke="black" d="M193.688,-580.807C176.498,-569.665 150.882,-553.062 131.507,-540.504"/>
<polygon fill="black" stroke="black" points="133.392,-537.555 123.097,-535.053 129.584,-543.429 133.392,-537.555"/>
</g>
<!-- v32 -->
<g id="node28" class="node"><title>v32</title>
<ellipse fill="none" stroke="black" cx="176.5" cy="-522" rx="27" ry="18"/>
<text text-anchor="middle" x="176.5" y="-518.3" font-family="Times,serif" font-size="14.00">32</text>
</g>
<!-- v7&#45;&gt;v32 -->
<g id="edge25" class="edge"><title>v7&#45;&gt;v32</title>
<path fill="none" stroke="black" d="M204.15,-576.765C199.788,-568.283 194.353,-557.714 189.459,-548.197"/>
<polygon fill="black" stroke="black" points="192.49,-546.439 184.804,-539.147 186.265,-549.641 192.49,-546.439"/>
</g>
<!-- v40 -->
<g id="node31" class="node"><title>v40</title>
<ellipse fill="none" stroke="black" cx="248.5" cy="-522" rx="27" ry="18"/>
<text text-anchor="middle" x="248.5" y="-518.3" font-family="Times,serif" font-size="14.00">40</text>
</g>
<!-- v7&#45;&gt;v40 -->
<g id="edge30" class="edge"><title>v7&#45;&gt;v40</title>
<path fill="none" stroke="black" d="M220.85,-576.765C225.212,-568.283 230.647,-557.714 235.541,-548.197"/>
<polygon fill="black" stroke="black" points="238.735,-549.641 240.196,-539.147 232.51,-546.439 238.735,-549.641"/>
</g>
<!-- v41 -->
<g id="node32" class="node"><title>v41</title>
<ellipse fill="none" stroke="black" cx="320.5" cy="-522" rx="27" ry="18"/>
<text text-anchor="middle" x="320.5" y="-518.3" font-family="Times,serif" font-size="14.00">41</text>
</g>
<!-- v7&#45;&gt;v41 -->
<g id="edge23" class="edge"><title>v7&#45;&gt;v41</title>
<path fill="none" stroke="black" d="M231.312,-580.807C248.502,-569.665 274.118,-553.062 293.493,-540.504"/>
<polygon fill="black" stroke="black" points="295.416,-543.429 301.903,-535.053 291.608,-537.555 295.416,-543.429"/>
</g>
<!-- v8 -->
<g id="node7" class="node"><title>v8</title>
<ellipse fill="none" stroke="black" cx="140.5" cy="-450" rx="27" ry="18"/>
<text text-anchor="middle" x="140.5" y="-446.3" font-family="Times,serif" font-size="14.00">8</text>
</g>
<!-- v20 -->
<g id="node17" class="node"><title>v20</title>
<ellipse fill="none" stroke="black" cx="366.5" cy="-306" rx="27" ry="18"/>
<text text-anchor="middle" x="366.5" y="-302.3" font-family="Times,serif" font-size="14.00">20</text>
</g>
<!-- v9&#45;&gt;v20 -->
<g id="edge27" class="edge"><title>v9&#45;&gt;v20</title>
<path fill="none" stroke="black" d="M366.5,-359.697C366.5,-351.983 366.5,-342.712 366.5,-334.112"/>
<polygon fill="black" stroke="black" points="370,-334.104 366.5,-324.104 363,-334.104 370,-334.104"/>
</g>
<!-- v10 -->
<g id="node9" class="node"><title>v10</title>
<ellipse fill="none" stroke="black" cx="582.5" cy="-450" rx="27" ry="18"/>
<text text-anchor="middle" x="582.5" y="-446.3" font-family="Times,serif" font-size="14.00">10</text>
</g>
<!-- v16 -->
<g id="node15" class="node"><title>v16</title>
<ellipse fill="none" stroke="black" cx="510.5" cy="-378" rx="27" ry="18"/>
<text text-anchor="middle" x="510.5" y="-374.3" font-family="Times,serif" font-size="14.00">16</text>
</g>
<!-- v10&#45;&gt;v16 -->
<g id="edge40" class="edge"><title>v10&#45;&gt;v16</title>
<path fill="none" stroke="black" d="M567.93,-434.834C557.75,-424.938 543.976,-411.546 532.469,-400.359"/>
<polygon fill="black" stroke="black" points="534.905,-397.846 525.296,-393.385 530.026,-402.865 534.905,-397.846"/>
</g>
<!-- v17 -->
<g id="node16" class="node"><title>v17</title>
<ellipse fill="none" stroke="black" cx="582.5" cy="-378" rx="27" ry="18"/>
<text text-anchor="middle" x="582.5" y="-374.3" font-family="Times,serif" font-size="14.00">17</text>
</g>
<!-- v10&#45;&gt;v17 -->
<g id="edge3" class="edge"><title>v10&#45;&gt;v17</title>
<path fill="none" stroke="black" d="M582.5,-431.697C582.5,-423.983 582.5,-414.712 582.5,-406.112"/>
<polygon fill="black" stroke="black" points="586,-406.104 582.5,-396.104 579,-406.104 586,-406.104"/>
</g>
<!-- v34 -->
<g id="node29" class="node"><title>v34</title>
<ellipse fill="none" stroke="black" cx="654.5" cy="-378" rx="27" ry="18"/>
<text text-anchor="middle" x="654.5" y="-374.3" font-family="Times,serif" font-size="14.00">34</text>
</g>
<!-- v10&#45;&gt;v34 -->
<g id="edge11" class="edge"><title>v10&#45;&gt;v34</title>
<path fill="none" stroke="black" d="M597.07,-434.834C607.25,-424.938 621.024,-411.546 632.531,-400.359"/>
<polygon fill="black" stroke="black" points="634.974,-402.865 639.704,-393.385 630.095,-397.846 634.974,-402.865"/>
</g>
<!-- p11 -->
<g id="node37" class="node"><title>p11</title>
<path fill="none" stroke="black" d="M747,-396C747,-396 712,-396 712,-396 706,-396 700,-390 700,-384 700,-384 700,-372 700,-372 700,-366 706,-360 712,-360 712,-360 747,-360 747,-360 753,-360 759,-366 759,-372 759,-372 759,-384 759,-384 759,-390 753,-396 747,-396"/>
<text text-anchor="middle" x="729.5" y="-374.3" font-family="Times,serif" font-size="14.00">path (3)</text>
</g>
<!-- v10&#45;&gt;p11 -->
<g id="edge36" class="edge"><title>v10&#45;&gt;p11</title>
<path fill="none" stroke="black" d="M603.875,-438.821C626.625,-427.988 663.103,-410.618 690.903,-397.379"/>
<polygon fill="black" stroke="black" points="692.443,-400.523 699.966,-393.064 689.433,-394.203 692.443,-400.523"/>
</g>
<!-- p2 -->
<g id="node10" class="node"><title>p2</title>
<path fill="none" stroke="black" d="M480,-108C480,-108 445,-108 445,-108 439,-108 433,-102 433,-96 433,-96 433,-84 433,-84 433,-78 439,-72 445,-72 445,-72 480,-72 480,-72 486,-72 492,-78 492,-84 492,-84 492,-96 492,-96 492,-102 486,-108 480,-108"/>
<text text-anchor="middle" x="462.5" y="-86.3" font-family="Times,serif" font-size="14.00">path (2)</text>
</g>
<!-- v12 -->
<g id="node11" class="node"><title>v12</title>
<ellipse fill="none" stroke="black" cx="310.5" cy="-90" rx="27" ry="18"/>
<text text-anchor="middle" x="310.5" y="-86.3" font-family="Times,serif" font-size="14.00">12</text>
</g>
<!-- p5 -->
<g id="node23" class="node"><title>p5</title>
<path fill="none" stroke="black" d="M251,-36C251,-36 216,-36 216,-36 210,-36 204,-30 204,-24 204,-24 204,-12 204,-12 204,-6 210,-0 216,-0 216,-0 251,-0 251,-0 257,-0 263,-6 263,-12 263,-12 263,-24 263,-24 263,-30 257,-36 251,-36"/>
<text text-anchor="middle" x="233.5" y="-14.3" font-family="Times,serif" font-size="14.00">path (3)</text>
</g>
<!-- v12&#45;&gt;p5 -->
<g id="edge6" class="edge"><title>v12&#45;&gt;p5</title>
<path fill="none" stroke="black" d="M294.918,-74.8345C284.921,-65.7459 271.682,-53.7105 260.055,-43.1413"/>
<polygon fill="black" stroke="black" points="262.078,-40.2497 252.324,-36.1127 257.369,-45.4293 262.078,-40.2497"/>
</g>
<!-- p8 -->
<g id="node33" class="node"><title>p8</title>
<path fill="none" stroke="black" d="M328,-36C328,-36 293,-36 293,-36 287,-36 281,-30 281,-24 281,-24 281,-12 281,-12 281,-6 287,-0 293,-0 293,-0 328,-0 328,-0 334,-0 340,-6 340,-12 340,-12 340,-24 340,-24 340,-30 334,-36 328,-36"/>
<text text-anchor="middle" x="310.5" y="-14.3" font-family="Times,serif" font-size="14.00">path (2)</text>
</g>
<!-- v12&#45;&gt;p8 -->
<g id="edge26" class="edge"><title>v12&#45;&gt;p8</title>
<path fill="none" stroke="black" d="M310.5,-71.6966C310.5,-63.9827 310.5,-54.7125 310.5,-46.1124"/>
<polygon fill="black" stroke="black" points="314,-46.1043 310.5,-36.1043 307,-46.1044 314,-46.1043"/>
</g>
<!-- p12 -->
<g id="node42" class="node"><title>p12</title>
<path fill="none" stroke="black" d="M405,-36C405,-36 370,-36 370,-36 364,-36 358,-30 358,-24 358,-24 358,-12 358,-12 358,-6 364,-0 370,-0 370,-0 405,-0 405,-0 411,-0 417,-6 417,-12 417,-12 417,-24 417,-24 417,-30 411,-36 405,-36"/>
<text text-anchor="middle" x="387.5" y="-14.3" font-family="Times,serif" font-size="14.00">path (2)</text>
</g>
<!-- v12&#45;&gt;p12 -->
<g id="edge10" class="edge"><title>v12&#45;&gt;p12</title>
<path fill="none" stroke="black" d="M326.082,-74.8345C336.079,-65.7459 349.318,-53.7105 360.945,-43.1413"/>
<polygon fill="black" stroke="black" points="363.631,-45.4293 368.676,-36.1127 358.922,-40.2497 363.631,-45.4293"/>
</g>
<!-- p3 -->
<g id="node12" class="node"><title>p3</title>
<path fill="none" stroke="black" d="M598,-324C598,-324 563,-324 563,-324 557,-324 551,-318 551,-312 551,-312 551,-300 551,-300 551,-294 557,-288 563,-288 563,-288 598,-288 598,-288 604,-288 610,-294 610,-300 610,-300 610,-312 610,-312 610,-318 604,-324 598,-324"/>
<text text-anchor="middle" x="580.5" y="-302.3" font-family="Times,serif" font-size="14.00">path (3)</text>
</g>
<!-- p4&#45;&gt;v12 -->
<g id="edge38" class="edge"><title>p4&#45;&gt;v12</title>
<path fill="none" stroke="black" d="M310.5,-143.697C310.5,-135.983 310.5,-126.712 310.5,-118.112"/>
<polygon fill="black" stroke="black" points="314,-118.104 310.5,-108.104 307,-118.104 314,-118.104"/>
</g>
<!-- v15 -->
<g id="node14" class="node"><title>v15</title>
<ellipse fill="none" stroke="black" cx="655.5" cy="-306" rx="27" ry="18"/>
<text text-anchor="middle" x="655.5" y="-302.3" font-family="Times,serif" font-size="14.00">15</text>
</g>
<!-- v20&#45;&gt;v2 -->
<g id="edge34" class="edge"><title>v20&#45;&gt;v2</title>
<path fill="none" stroke="black" d="M354.566,-289.811C347.286,-280.546 337.837,-268.52 329.646,-258.094"/>
<polygon fill="black" stroke="black" points="332.341,-255.86 323.411,-250.159 326.837,-260.185 332.341,-255.86"/>
</g>
<!-- v20&#45;&gt;v6 -->
<g id="edge39" class="edge"><title>v20&#45;&gt;v6</title>
<path fill="none" stroke="black" d="M370.857,-288.055C372.891,-280.145 375.361,-270.54 377.637,-261.688"/>
<polygon fill="black" stroke="black" points="381.082,-262.346 380.183,-251.789 374.303,-260.602 381.082,-262.346"/>
</g>
<!-- v22&#45;&gt;v7 -->
<g id="edge21" class="edge"><title>v22&#45;&gt;v7</title>
<path fill="none" stroke="black" d="M379.202,-656.417C345.637,-644.05 283.52,-621.165 245.321,-607.092"/>
<polygon fill="black" stroke="black" points="246.284,-603.717 235.691,-603.544 243.864,-610.285 246.284,-603.717"/>
</g>
<!-- v27 -->
<g id="node24" class="node"><title>v27</title>
<ellipse fill="none" stroke="black" cx="430.5" cy="-594" rx="27" ry="18"/>
<text text-anchor="middle" x="430.5" y="-590.3" font-family="Times,serif" font-size="14.00">27</text>
</g>
<!-- v22&#45;&gt;v27 -->
<g id="edge17" class="edge"><title>v22&#45;&gt;v27</title>
<path fill="none" stroke="black" d="M409.136,-648.411C412.413,-640.216 416.444,-630.14 420.118,-620.955"/>
<polygon fill="black" stroke="black" points="423.448,-622.055 423.912,-611.47 416.948,-619.455 423.448,-622.055"/>
</g>
<!-- p7 -->
<g id="node27" class="node"><title>p7</title>
<path fill="none" stroke="black" d="M523,-612C523,-612 488,-612 488,-612 482,-612 476,-606 476,-600 476,-600 476,-588 476,-588 476,-582 482,-576 488,-576 488,-576 523,-576 523,-576 529,-576 535,-582 535,-588 535,-588 535,-600 535,-600 535,-606 529,-612 523,-612"/>
<text text-anchor="middle" x="505.5" y="-590.3" font-family="Times,serif" font-size="14.00">path (3)</text>
</g>
<!-- v22&#45;&gt;p7 -->
<g id="edge45" class="edge"><title>v22&#45;&gt;p7</title>
<path fill="none" stroke="black" d="M420.914,-652.485C435.007,-642.908 454.832,-629.435 471.746,-617.939"/>
<polygon fill="black" stroke="black" points="473.977,-620.655 480.281,-612.139 470.043,-614.866 473.977,-620.655"/>
</g>
<!-- v23 -->
<g id="node20" class="node"><title>v23</title>
<ellipse fill="none" stroke="black" cx="746.5" cy="-162" rx="27" ry="18"/>
<text text-anchor="middle" x="746.5" y="-158.3" font-family="Times,serif" font-size="14.00">23</text>
</g>
<!-- p6 -->
<g id="node25" class="node"><title>p6</title>
<path fill="none" stroke="black" d="M584,-108C584,-108 549,-108 549,-108 543,-108 537,-102 537,-96 537,-96 537,-84 537,-84 537,-78 543,-72 549,-72 549,-72 584,-72 584,-72 590,-72 596,-78 596,-84 596,-84 596,-96 596,-96 596,-102 590,-108 584,-108"/>
<text text-anchor="middle" x="566.5" y="-86.3" font-family="Times,serif" font-size="14.00">path (2)</text>
</g>
<!-- v23&#45;&gt;p6 -->
<g id="edge33" class="edge"><title>v23&#45;&gt;p6</title>
<path fill="none" stroke="black" d="M722.905,-152.552C694.786,-142.388 646.456,-124.611 605.5,-108 605.406,-107.962 605.312,-107.924 605.217,-107.885"/>
<polygon fill="black" stroke="black" points="606.821,-104.762 596.244,-104.153 604.133,-111.225 606.821,-104.762"/>
</g>
<!-- p9 -->
<g id="node34" class="node"><title>p9</title>
<path fill="none" stroke="black" d="M661,-108C661,-108 626,-108 626,-108 620,-108 614,-102 614,-96 614,-96 614,-84 614,-84 614,-78 620,-72 626,-72 626,-72 661,-72 661,-72 667,-72 673,-78 673,-84 673,-84 673,-96 673,-96 673,-102 667,-108 661,-108"/>
<text text-anchor="middle" x="643.5" y="-86.3" font-family="Times,serif" font-size="14.00">path (2)</text>
</g>
<!-- v23&#45;&gt;p9 -->
<g id="edge37" class="edge"><title>v23&#45;&gt;p9</title>
<path fill="none" stroke="black" d="M728.086,-148.485C713.993,-138.908 694.168,-125.435 677.254,-113.939"/>
<polygon fill="black" stroke="black" points="678.957,-110.866 668.719,-108.139 675.023,-116.655 678.957,-110.866"/>
</g>
<!-- v54 -->
<g id="node38" class="node"><title>v54</title>
<ellipse fill="none" stroke="black" cx="718.5" cy="-90" rx="27" ry="18"/>
<text text-anchor="middle" x="718.5" y="-86.3" font-family="Times,serif" font-size="14.00">54</text>
</g>
<!-- v23&#45;&gt;v54 -->
<g id="edge18" class="edge"><title>v23&#45;&gt;v54</title>
<path fill="none" stroke="black" d="M739.864,-144.411C736.587,-136.216 732.556,-126.14 728.882,-116.955"/>
<polygon fill="black" stroke="black" points="732.052,-115.455 725.088,-107.47 725.552,-118.055 732.052,-115.455"/>
</g>
<!-- v56 -->
<g id="node40" class="node"><title>v56</title>
<ellipse fill="none" stroke="black" cx="790.5" cy="-90" rx="27" ry="18"/>
<text text-anchor="middle" x="790.5" y="-86.3" font-family="Times,serif" font-size="14.00">56</text>
</g>
<!-- v23&#45;&gt;v56 -->
<g id="edge43" class="edge"><title>v23&#45;&gt;v56</title>
<path fill="none" stroke="black" d="M756.484,-145.116C761.997,-136.345 768.963,-125.264 775.153,-115.416"/>
<polygon fill="black" stroke="black" points="778.197,-117.15 780.555,-106.821 772.27,-113.425 778.197,-117.15"/>
</g>
<!-- v60 -->
<g id="node41" class="node"><title>v60</title>
<ellipse fill="none" stroke="black" cx="862.5" cy="-90" rx="27" ry="18"/>
<text text-anchor="middle" x="862.5" y="-86.3" font-family="Times,serif" font-size="14.00">60</text>
</g>
<!-- v23&#45;&gt;v60 -->
<g id="edge4" class="edge"><title>v23&#45;&gt;v60</title>
<path fill="none" stroke="black" d="M765.916,-149.284C784.652,-137.977 813.22,-120.738 834.431,-107.938"/>
<polygon fill="black" stroke="black" points="836.267,-110.918 843.021,-102.755 832.651,-104.925 836.267,-110.918"/>
</g>
<!-- v63 -->
<g id="node43" class="node"><title>v63</title>
<ellipse fill="none" stroke="black" cx="934.5" cy="-90" rx="27" ry="18"/>
<text text-anchor="middle" x="934.5" y="-86.3" font-family="Times,serif" font-size="14.00">63</text>
</g>
<!-- v23&#45;&gt;v63 -->
<g id="edge14" class="edge"><title>v23&#45;&gt;v63</title>
<path fill="none" stroke="black" d="M770.486,-153.505C800.688,-143.87 854.01,-126.201 898.5,-108 900.323,-107.254 902.187,-106.464 904.059,-105.648"/>
<polygon fill="black" stroke="black" points="905.678,-108.757 913.346,-101.445 902.792,-102.379 905.678,-108.757"/>
</g>
<!-- v24&#45;&gt;p1 -->
<g id="edge28" class="edge"><title>v24&#45;&gt;p1</title>
<path fill="none" stroke="black" d="M385.5,-143.697C385.5,-135.983 385.5,-126.712 385.5,-118.112"/>
<polygon fill="black" stroke="black" points="389,-118.104 385.5,-108.104 382,-118.104 389,-118.104"/>
</g>
<!-- v24&#45;&gt;p2 -->
<g id="edge29" class="edge"><title>v24&#45;&gt;p2</title>
<path fill="none" stroke="black" d="M401.082,-146.834C411.079,-137.746 424.318,-125.71 435.945,-115.141"/>
<polygon fill="black" stroke="black" points="438.631,-117.429 443.676,-108.113 433.922,-112.25 438.631,-117.429"/>
</g>
<!-- v25&#45;&gt;v5 -->
<g id="edge5" class="edge"><title>v25&#45;&gt;v5</title>
<path fill="none" stroke="black" d="M418.566,-505.465C414.394,-497.419 410.079,-487.361 406.74,-478.086"/>
<polygon fill="black" stroke="black" points="410.019,-476.853 403.552,-468.461 403.374,-479.054 410.019,-476.853"/>
</g>
<!-- v25&#45;&gt;v10 -->
<g id="edge24" class="edge"><title>v25&#45;&gt;v10</title>
<path fill="none" stroke="black" d="M452.278,-510.971C478.238,-499.015 521.811,-478.949 551.335,-465.352"/>
<polygon fill="black" stroke="black" points="553.143,-468.373 560.763,-461.011 550.215,-462.015 553.143,-468.373"/>
</g>
<!-- v27&#45;&gt;v25 -->
<g id="edge19" class="edge"><title>v27&#45;&gt;v25</title>
<path fill="none" stroke="black" d="M430.5,-575.697C430.5,-567.983 430.5,-558.712 430.5,-550.112"/>
<polygon fill="black" stroke="black" points="434,-550.104 430.5,-540.104 427,-550.104 434,-550.104"/>
</g>
<!-- v29 -->
<g id="node26" class="node"><title>v29</title>
<ellipse fill="none" stroke="black" cx="212.5" cy="-450" rx="27" ry="18"/>
<text text-anchor="middle" x="212.5" y="-446.3" font-family="Times,serif" font-size="14.00">29</text>
</g>
<!-- v32&#45;&gt;v8 -->
<g id="edge42" class="edge"><title>v32&#45;&gt;v8</title>
<path fill="none" stroke="black" d="M168.15,-504.765C163.788,-496.283 158.353,-485.714 153.459,-476.197"/>
<polygon fill="black" stroke="black" points="156.49,-474.439 148.804,-467.147 150.265,-477.641 156.49,-474.439"/>
</g>
<!-- v32&#45;&gt;v29 -->
<g id="edge44" class="edge"><title>v32&#45;&gt;v29</title>
<path fill="none" stroke="black" d="M184.85,-504.765C189.212,-496.283 194.647,-485.714 199.541,-476.197"/>
<polygon fill="black" stroke="black" points="202.735,-477.641 204.196,-467.147 196.51,-474.439 202.735,-477.641"/>
</g>
<!-- v34&#45;&gt;p3 -->
<g id="edge16" class="edge"><title>v34&#45;&gt;p3</title>
<path fill="none" stroke="black" d="M639.525,-362.834C629.917,-353.746 617.194,-341.71 606.021,-331.141"/>
<polygon fill="black" stroke="black" points="608.261,-328.442 598.591,-324.113 603.45,-333.527 608.261,-328.442"/>
</g>
<!-- v34&#45;&gt;v15 -->
<g id="edge8" class="edge"><title>v34&#45;&gt;v15</title>
<path fill="none" stroke="black" d="M654.747,-359.697C654.857,-351.983 654.99,-342.712 655.113,-334.112"/>
<polygon fill="black" stroke="black" points="658.612,-334.153 655.256,-324.104 651.613,-334.053 658.612,-334.153"/>
</g>
<!-- v48 -->
<g id="node35" class="node"><title>v48</title>
<ellipse fill="none" stroke="black" cx="671.5" cy="-234" rx="27" ry="18"/>
<text text-anchor="middle" x="671.5" y="-230.3" font-family="Times,serif" font-size="14.00">48</text>
</g>
<!-- p10 -->
<g id="node36" class="node"><title>p10</title>
<path fill="none" stroke="black" d="M764,-252C764,-252 729,-252 729,-252 723,-252 717,-246 717,-240 717,-240 717,-228 717,-228 717,-222 723,-216 729,-216 729,-216 764,-216 764,-216 770,-216 776,-222 776,-228 776,-228 776,-240 776,-240 776,-246 770,-252 764,-252"/>
<text text-anchor="middle" x="746.5" y="-230.3" font-family="Times,serif" font-size="14.00">path (4)</text>
</g>
<!-- p10&#45;&gt;v23 -->
<g id="edge31" class="edge"><title>p10&#45;&gt;v23</title>
<path fill="none" stroke="black" d="M746.5,-215.697C746.5,-207.983 746.5,-198.712 746.5,-190.112"/>
<polygon fill="black" stroke="black" points="750,-190.104 746.5,-180.104 743,-190.104 750,-190.104"/>
</g>
<!-- v55 -->
<g id="node39" class="node"><title>v55</title>
<ellipse fill="none" stroke="black" cx="729.5" cy="-306" rx="27" ry="18"/>
<text text-anchor="middle" x="729.5" y="-302.3" font-family="Times,serif" font-size="14.00">55</text>
</g>
<!-- p11&#45;&gt;v55 -->
<g id="edge41" class="edge"><title>p11&#45;&gt;v55</title>
<path fill="none" stroke="black" d="M729.5,-359.697C729.5,-351.983 729.5,-342.712 729.5,-334.112"/>
<polygon fill="black" stroke="black" points="733,-334.104 729.5,-324.104 726,-334.104 733,-334.104"/>
</g>
<!-- v55&#45;&gt;v48 -->
<g id="edge15" class="edge"><title>v55&#45;&gt;v48</title>
<path fill="none" stroke="black" d="M716.915,-289.811C709.238,-280.546 699.274,-268.52 690.635,-258.094"/>
<polygon fill="black" stroke="black" points="693.136,-255.626 684.061,-250.159 687.746,-260.093 693.136,-255.626"/>
</g>
<!-- v55&#45;&gt;p10 -->
<g id="edge35" class="edge"><title>v55&#45;&gt;p10</title>
<path fill="none" stroke="black" d="M733.615,-288.055C735.508,-280.261 737.8,-270.822 739.924,-262.079"/>
<polygon fill="black" stroke="black" points="743.346,-262.819 742.305,-252.275 736.543,-261.167 743.346,-262.819"/>
</g>
</g>
</svg>
