<?xml version="1.0" encoding="UTF-8" standalone="no"?>
<!DOCTYPE svg PUBLIC "-//W3C//DTD SVG 1.1//EN"
 "http://www.w3.org/Graphics/SVG/1.1/DTD/svg11.dtd">
<!-- Generated by graphviz version 2.38.0 (20140413.2041)
 -->
<!-- Title: %3 Pages: 1 -->
<svg width="588pt" height="692pt"
 viewBox="0.00 0.00 588.00 692.00" xmlns="http://www.w3.org/2000/svg" xmlns:xlink="http://www.w3.org/1999/xlink">
<g id="graph0" class="graph" transform="scale(1 1) rotate(0) translate(4 688)">
<title>%3</title>
<polygon fill="white" stroke="none" points="-4,4 -4,-688 584,-688 584,4 -4,4"/>
<!-- v0 -->
<g id="node1" class="node"><title>v0</title>
<ellipse fill="none" stroke="black" cx="295.5" cy="-594" rx="27" ry="18"/>
<text text-anchor="middle" x="295.5" y="-590.3" font-family="Times,serif" font-size="14.00">0</text>
</g>
<!-- v3 -->
<g id="node4" class="node"><title>v3</title>
<ellipse fill="none" stroke="black" cx="259.5" cy="-522" rx="27" ry="18"/>
<text text-anchor="middle" x="259.5" y="-518.3" font-family="Times,serif" font-size="14.00">3</text>
</g>
<!-- v0&#45;&gt;v3 -->
<g id="edge6" class="edge"><title>v0&#45;&gt;v3</title>
<path fill="none" stroke="black" d="M287.15,-576.765C282.788,-568.283 277.353,-557.714 272.459,-548.197"/>
<polygon fill="black" stroke="black" points="275.49,-546.439 267.804,-539.147 269.265,-549.641 275.49,-546.439"/>
</g>
<!-- v15 -->
<g id="node13" class="node"><title>v15</title>
<ellipse fill="none" stroke="black" cx="331.5" cy="-522" rx="27" ry="18"/>
<text text-anchor="middle" x="331.5" y="-518.3" font-family="Times,serif" font-size="14.00">15</text>
</g>
<!-- v0&#45;&gt;v15 -->
<g id="edge10" class="edge"><title>v0&#45;&gt;v15</title>
<path fill="none" stroke="black" d="M303.85,-576.765C308.212,-568.283 313.647,-557.714 318.541,-548.197"/>
<polygon fill="black" stroke="black" points="321.735,-549.641 323.196,-539.147 315.51,-546.439 321.735,-549.641"/>
</g>
<!-- p0 -->
<g id="node2" class="node"><title>p0</title>
<path fill="none" stroke="black" d="M132,-468C132,-468 97,-468 97,-468 91,-468 85,-462 85,-456 85,-456 85,-444 85,-444 85,-438 91,-432 97,-432 97,-432 132,-432 132,-432 138,-432 144,-438 144,-444 144,-444 144,-456 144,-456 144,-462 138,-468 132,-468"/>
<text text-anchor="middle" x="114.5" y="-446.3" font-family="Times,serif" font-size="14.00">path (2)</text>
</g>
<!-- v2 -->
<g id="node3" class="node"><title>v2</title>
<ellipse fill="none" stroke="black" cx="106.5" cy="-378" rx="27" ry="18"/>
<text text-anchor="middle" x="106.5" y="-374.3" font-family="Times,serif" font-size="14.00">2</text>
</g>
<!-- p0&#45;&gt;v2 -->
<g id="edge29" class="edge"><title>p0&#45;&gt;v2</title>
<path fill="none" stroke="black" d="M112.522,-431.697C111.641,-423.983 110.581,-414.712 109.599,-406.112"/>
<polygon fill="black" stroke="black" points="113.068,-405.642 108.455,-396.104 106.113,-406.437 113.068,-405.642"/>
</g>
<!-- p1 -->
<g id="node8" class="node"><title>p1</title>
<path fill="none" stroke="black" d="M47,-324C47,-324 12,-324 12,-324 6,-324 0,-318 0,-312 0,-312 0,-300 0,-300 0,-294 6,-288 12,-288 12,-288 47,-288 47,-288 53,-288 59,-294 59,-300 59,-300 59,-312 59,-312 59,-318 53,-324 47,-324"/>
<text text-anchor="middle" x="29.5" y="-302.3" font-family="Times,serif" font-size="14.00">path (2)</text>
</g>
<!-- v2&#45;&gt;p1 -->
<g id="edge26" class="edge"><title>v2&#45;&gt;p1</title>
<path fill="none" stroke="black" d="M90.9179,-362.834C80.9205,-353.746 67.6815,-341.71 56.0555,-331.141"/>
<polygon fill="black" stroke="black" points="58.0778,-328.25 48.324,-324.113 53.3691,-333.429 58.0778,-328.25"/>
</g>
<!-- v11 -->
<g id="node10" class="node"><title>v11</title>
<ellipse fill="none" stroke="black" cx="104.5" cy="-306" rx="27" ry="18"/>
<text text-anchor="middle" x="104.5" y="-302.3" font-family="Times,serif" font-size="14.00">11</text>
</g>
<!-- v2&#45;&gt;v11 -->
<g id="edge31" class="edge"><title>v2&#45;&gt;v11</title>
<path fill="none" stroke="black" d="M106.006,-359.697C105.785,-351.983 105.52,-342.712 105.275,-334.112"/>
<polygon fill="black" stroke="black" points="108.773,-334 104.989,-324.104 101.776,-334.2 108.773,-334"/>
</g>
<!-- v43 -->
<g id="node33" class="node"><title>v43</title>
<ellipse fill="none" stroke="black" cx="176.5" cy="-306" rx="27" ry="18"/>
<text text-anchor="middle" x="176.5" y="-302.3" font-family="Times,serif" font-size="14.00">43</text>
</g>
<!-- v2&#45;&gt;v43 -->
<g id="edge21" class="edge"><title>v2&#45;&gt;v43</title>
<path fill="none" stroke="black" d="M121.004,-362.496C130.765,-352.735 143.81,-339.69 154.8,-328.7"/>
<polygon fill="black" stroke="black" points="157.418,-331.031 162.015,-321.485 152.469,-326.082 157.418,-331.031"/>
</g>
<!-- v3&#45;&gt;p0 -->
<g id="edge30" class="edge"><title>v3&#45;&gt;p0</title>
<path fill="none" stroke="black" d="M238.105,-510.671C215.837,-499.921 180.481,-482.853 153.276,-469.72"/>
<polygon fill="black" stroke="black" points="154.556,-466.451 144.029,-465.255 151.513,-472.755 154.556,-466.451"/>
</g>
<!-- v6 -->
<g id="node7" class="node"><title>v6</title>
<ellipse fill="none" stroke="black" cx="222.5" cy="-450" rx="27" ry="18"/>
<text text-anchor="middle" x="222.5" y="-446.3" font-family="Times,serif" font-size="14.00">6</text>
</g>
<!-- v3&#45;&gt;v6 -->
<g id="edge17" class="edge"><title>v3&#45;&gt;v6</title>
<path fill="none" stroke="black" d="M250.918,-504.765C246.435,-496.283 240.849,-485.714 235.819,-476.197"/>
<polygon fill="black" stroke="black" points="238.802,-474.353 231.035,-467.147 232.614,-477.624 238.802,-474.353"/>
</g>
<!-- p2 -->
<g id="node9" class="node"><title>p2</title>
<path fill="none" stroke="black" d="M315,-468C315,-468 280,-468 280,-468 274,-468 268,-462 268,-456 268,-456 268,-444 268,-444 268,-438 274,-432 280,-432 280,-432 315,-432 315,-432 321,-432 327,-438 327,-444 327,-444 327,-456 327,-456 327,-462 321,-468 315,-468"/>
<text text-anchor="middle" x="297.5" y="-446.3" font-family="Times,serif" font-size="14.00">path (2)</text>
</g>
<!-- v3&#45;&gt;p2 -->
<g id="edge20" class="edge"><title>v3&#45;&gt;p2</title>
<path fill="none" stroke="black" d="M268.313,-504.765C272.786,-496.525 278.328,-486.317 283.377,-477.016"/>
<polygon fill="black" stroke="black" points="286.509,-478.582 288.204,-468.124 280.357,-475.243 286.509,-478.582"/>
</g>
<!-- p5 -->
<g id="node18" class="node"><title>p5</title>
<path fill="none" stroke="black" d="M409,-468C409,-468 374,-468 374,-468 368,-468 362,-462 362,-456 362,-456 362,-444 362,-444 362,-438 368,-432 374,-432 374,-432 409,-432 409,-432 415,-432 421,-438 421,-444 421,-444 421,-456 421,-456 421,-462 415,-468 409,-468"/>
<text text-anchor="middle" x="391.5" y="-446.3" font-family="Times,serif" font-size="14.00">path (3)</text>
</g>
<!-- v3&#45;&gt;p5 -->
<g id="edge22" class="edge"><title>v3&#45;&gt;p5</title>
<path fill="none" stroke="black" d="M280.125,-510.062C299.457,-499.811 328.855,-484.221 352.594,-471.632"/>
<polygon fill="black" stroke="black" points="354.517,-474.574 361.712,-466.797 351.238,-468.39 354.517,-474.574"/>
</g>
<!-- v4 -->
<g id="node5" class="node"><title>v4</title>
<ellipse fill="none" stroke="black" cx="51.5" cy="-162" rx="27" ry="18"/>
<text text-anchor="middle" x="51.5" y="-158.3" font-family="Times,serif" font-size="14.00">4</text>
</g>
<!-- v5 -->
<g id="node6" class="node"><title>v5</title>
<ellipse fill="none" stroke="black" cx="104.5" cy="-234" rx="27" ry="18"/>
<text text-anchor="middle" x="104.5" y="-230.3" font-family="Times,serif" font-size="14.00">5</text>
</g>
<!-- v5&#45;&gt;v4 -->
<g id="edge19" class="edge"><title>v5&#45;&gt;v4</title>
<path fill="none" stroke="black" d="M92.7376,-217.465C85.8759,-208.402 77.0812,-196.786 69.3776,-186.612"/>
<polygon fill="black" stroke="black" points="72.0564,-184.352 63.2295,-178.492 66.4755,-188.577 72.0564,-184.352"/>
</g>
<!-- v12 -->
<g id="node11" class="node"><title>v12</title>
<ellipse fill="none" stroke="black" cx="123.5" cy="-162" rx="27" ry="18"/>
<text text-anchor="middle" x="123.5" y="-158.3" font-family="Times,serif" font-size="14.00">12</text>
</g>
<!-- v5&#45;&gt;v12 -->
<g id="edge13" class="edge"><title>v5&#45;&gt;v12</title>
<path fill="none" stroke="black" d="M109.099,-216.055C111.246,-208.145 113.853,-198.54 116.256,-189.688"/>
<polygon fill="black" stroke="black" points="119.701,-190.357 118.943,-179.789 112.946,-188.523 119.701,-190.357"/>
</g>
<!-- v11&#45;&gt;v5 -->
<g id="edge11" class="edge"><title>v11&#45;&gt;v5</title>
<path fill="none" stroke="black" d="M104.5,-287.697C104.5,-279.983 104.5,-270.712 104.5,-262.112"/>
<polygon fill="black" stroke="black" points="108,-262.104 104.5,-252.104 101,-262.104 108,-262.104"/>
</g>
<!-- v14 -->
<g id="node12" class="node"><title>v14</title>
<ellipse fill="none" stroke="black" cx="295.5" cy="-666" rx="27" ry="18"/>
<text text-anchor="middle" x="295.5" y="-662.3" font-family="Times,serif" font-size="14.00">14</text>
</g>
<!-- v14&#45;&gt;v0 -->
<g id="edge5" class="edge"><title>v14&#45;&gt;v0</title>
<path fill="none" stroke="black" d="M295.5,-647.697C295.5,-639.983 295.5,-630.712 295.5,-622.112"/>
<polygon fill="black" stroke="black" points="299,-622.104 295.5,-612.104 292,-622.104 299,-622.104"/>
</g>
<!-- p3 -->
<g id="node14" class="node"><title>p3</title>
<path fill="none" stroke="black" d="M416,-180C416,-180 381,-180 381,-180 375,-180 369,-174 369,-168 369,-168 369,-156 369,-156 369,-150 375,-144 381,-144 381,-144 416,-144 416,-144 422,-144 428,-150 428,-156 428,-156 428,-168 428,-168 428,-174 422,-180 416,-180"/>
<text text-anchor="middle" x="398.5" y="-158.3" font-family="Times,serif" font-size="14.00">path (2)</text>
</g>
<!-- v18 -->
<g id="node15" class="node"><title>v18</title>
<ellipse fill="none" stroke="black" cx="395.5" cy="-378" rx="27" ry="18"/>
<text text-anchor="middle" x="395.5" y="-374.3" font-family="Times,serif" font-size="14.00">18</text>
</g>
<!-- p4 -->
<g id="node17" class="node"><title>p4</title>
<path fill="none" stroke="black" d="M269,-324C269,-324 234,-324 234,-324 228,-324 222,-318 222,-312 222,-312 222,-300 222,-300 222,-294 228,-288 234,-288 234,-288 269,-288 269,-288 275,-288 281,-294 281,-300 281,-300 281,-312 281,-312 281,-318 275,-324 269,-324"/>
<text text-anchor="middle" x="251.5" y="-302.3" font-family="Times,serif" font-size="14.00">path (2)</text>
</g>
<!-- v18&#45;&gt;p4 -->
<g id="edge18" class="edge"><title>v18&#45;&gt;p4</title>
<path fill="none" stroke="black" d="M374.252,-366.671C352.208,-355.955 317.248,-338.961 290.266,-325.844"/>
<polygon fill="black" stroke="black" points="291.613,-322.608 281.089,-321.383 288.552,-328.903 291.613,-322.608"/>
</g>
<!-- v22 -->
<g id="node19" class="node"><title>v22</title>
<ellipse fill="none" stroke="black" cx="326.5" cy="-306" rx="27" ry="18"/>
<text text-anchor="middle" x="326.5" y="-302.3" font-family="Times,serif" font-size="14.00">22</text>
</g>
<!-- v18&#45;&gt;v22 -->
<g id="edge1" class="edge"><title>v18&#45;&gt;v22</title>
<path fill="none" stroke="black" d="M381.203,-362.496C371.581,-352.735 358.723,-339.69 347.89,-328.7"/>
<polygon fill="black" stroke="black" points="350.291,-326.15 340.779,-321.485 345.306,-331.064 350.291,-326.15"/>
</g>
<!-- v23 -->
<g id="node20" class="node"><title>v23</title>
<ellipse fill="none" stroke="black" cx="398.5" cy="-306" rx="27" ry="18"/>
<text text-anchor="middle" x="398.5" y="-302.3" font-family="Times,serif" font-size="14.00">23</text>
</g>
<!-- v18&#45;&gt;v23 -->
<g id="edge9" class="edge"><title>v18&#45;&gt;v23</title>
<path fill="none" stroke="black" d="M396.242,-359.697C396.572,-351.983 396.969,-342.712 397.338,-334.112"/>
<polygon fill="black" stroke="black" points="400.835,-334.245 397.767,-324.104 393.842,-333.945 400.835,-334.245"/>
</g>
<!-- p6 -->
<g id="node21" class="node"><title>p6</title>
<path fill="none" stroke="black" d="M491,-324C491,-324 456,-324 456,-324 450,-324 444,-318 444,-312 444,-312 444,-300 444,-300 444,-294 450,-288 456,-288 456,-288 491,-288 491,-288 497,-288 503,-294 503,-300 503,-300 503,-312 503,-312 503,-318 497,-324 491,-324"/>
<text text-anchor="middle" x="473.5" y="-302.3" font-family="Times,serif" font-size="14.00">path (2)</text>
</g>
<!-- v18&#45;&gt;p6 -->
<g id="edge2" class="edge"><title>v18&#45;&gt;p6</title>
<path fill="none" stroke="black" d="M410.91,-363.17C421.181,-353.953 434.947,-341.599 446.954,-330.823"/>
<polygon fill="black" stroke="black" points="449.431,-333.303 454.536,-324.019 444.756,-328.093 449.431,-333.303"/>
</g>
<!-- p9 -->
<g id="node34" class="node"><title>p9</title>
<path fill="none" stroke="black" d="M568,-324C568,-324 533,-324 533,-324 527,-324 521,-318 521,-312 521,-312 521,-300 521,-300 521,-294 527,-288 533,-288 533,-288 568,-288 568,-288 574,-288 580,-294 580,-300 580,-300 580,-312 580,-312 580,-318 574,-324 568,-324"/>
<text text-anchor="middle" x="550.5" y="-302.3" font-family="Times,serif" font-size="14.00">path (2)</text>
</g>
<!-- v18&#45;&gt;p9 -->
<g id="edge15" class="edge"><title>v18&#45;&gt;p9</title>
<path fill="none" stroke="black" d="M417.379,-367.119C441.776,-356.101 481.716,-338.064 511.494,-324.616"/>
<polygon fill="black" stroke="black" points="513.099,-327.731 520.772,-320.426 510.218,-321.352 513.099,-327.731"/>
</g>
<!-- v19 -->
<g id="node16" class="node"><title>v19</title>
<ellipse fill="none" stroke="black" cx="473.5" cy="-162" rx="27" ry="18"/>
<text text-anchor="middle" x="473.5" y="-158.3" font-family="Times,serif" font-size="14.00">19</text>
</g>
<!-- v34 -->
<g id="node27" class="node"><title>v34</title>
<ellipse fill="none" stroke="black" cx="251.5" cy="-234" rx="27" ry="18"/>
<text text-anchor="middle" x="251.5" y="-230.3" font-family="Times,serif" font-size="14.00">34</text>
</g>
<!-- p4&#45;&gt;v34 -->
<g id="edge16" class="edge"><title>p4&#45;&gt;v34</title>
<path fill="none" stroke="black" d="M251.5,-287.697C251.5,-279.983 251.5,-270.712 251.5,-262.112"/>
<polygon fill="black" stroke="black" points="255,-262.104 251.5,-252.104 248,-262.104 255,-262.104"/>
</g>
<!-- p5&#45;&gt;v18 -->
<g id="edge12" class="edge"><title>p5&#45;&gt;v18</title>
<path fill="none" stroke="black" d="M392.489,-431.697C392.93,-423.983 393.459,-414.712 393.951,-406.112"/>
<polygon fill="black" stroke="black" points="397.446,-406.288 394.523,-396.104 390.458,-405.888 397.446,-406.288"/>
</g>
<!-- v25 -->
<g id="node22" class="node"><title>v25</title>
<ellipse fill="none" stroke="black" cx="473.5" cy="-234" rx="27" ry="18"/>
<text text-anchor="middle" x="473.5" y="-230.3" font-family="Times,serif" font-size="14.00">25</text>
</g>
<!-- p6&#45;&gt;v25 -->
<g id="edge32" class="edge"><title>p6&#45;&gt;v25</title>
<path fill="none" stroke="black" d="M473.5,-287.697C473.5,-279.983 473.5,-270.712 473.5,-262.112"/>
<polygon fill="black" stroke="black" points="477,-262.104 473.5,-252.104 470,-262.104 477,-262.104"/>
</g>
<!-- v25&#45;&gt;p3 -->
<g id="edge27" class="edge"><title>v25&#45;&gt;p3</title>
<path fill="none" stroke="black" d="M458.323,-218.834C448.585,-209.746 435.69,-197.71 424.366,-187.141"/>
<polygon fill="black" stroke="black" points="426.534,-184.377 416.835,-180.113 421.758,-189.495 426.534,-184.377"/>
</g>
<!-- v25&#45;&gt;v19 -->
<g id="edge14" class="edge"><title>v25&#45;&gt;v19</title>
<path fill="none" stroke="black" d="M473.5,-215.697C473.5,-207.983 473.5,-198.712 473.5,-190.112"/>
<polygon fill="black" stroke="black" points="477,-190.104 473.5,-180.104 470,-190.104 477,-190.104"/>
</g>
<!-- v28 -->
<g id="node23" class="node"><title>v28</title>
<ellipse fill="none" stroke="black" cx="545.5" cy="-162" rx="27" ry="18"/>
<text text-anchor="middle" x="545.5" y="-158.3" font-family="Times,serif" font-size="14.00">28</text>
</g>
<!-- v25&#45;&gt;v28 -->
<g id="edge25" class="edge"><title>v25&#45;&gt;v28</title>
<path fill="none" stroke="black" d="M488.07,-218.834C498.25,-208.938 512.024,-195.546 523.531,-184.359"/>
<polygon fill="black" stroke="black" points="525.974,-186.865 530.704,-177.385 521.095,-181.846 525.974,-186.865"/>
</g>
<!-- v31 -->
<g id="node24" class="node"><title>v31</title>
<ellipse fill="none" stroke="black" cx="230.5" cy="-90" rx="27" ry="18"/>
<text text-anchor="middle" x="230.5" y="-86.3" font-family="Times,serif" font-size="14.00">31</text>
</g>
<!-- p7 -->
<g id="node25" class="node"><title>p7</title>
<path fill="none" stroke="black" d="M173,-36C173,-36 138,-36 138,-36 132,-36 126,-30 126,-24 126,-24 126,-12 126,-12 126,-6 132,-0 138,-0 138,-0 173,-0 173,-0 179,-0 185,-6 185,-12 185,-12 185,-24 185,-24 185,-30 179,-36 173,-36"/>
<text text-anchor="middle" x="155.5" y="-14.3" font-family="Times,serif" font-size="14.00">path (5)</text>
</g>
<!-- v31&#45;&gt;p7 -->
<g id="edge7" class="edge"><title>v31&#45;&gt;p7</title>
<path fill="none" stroke="black" d="M215.323,-74.8345C205.585,-65.7459 192.69,-53.7105 181.366,-43.1413"/>
<polygon fill="black" stroke="black" points="183.534,-40.3772 173.835,-36.1127 178.758,-45.4946 183.534,-40.3772"/>
</g>
<!-- v33 -->
<g id="node26" class="node"><title>v33</title>
<ellipse fill="none" stroke="black" cx="230.5" cy="-18" rx="27" ry="18"/>
<text text-anchor="middle" x="230.5" y="-14.3" font-family="Times,serif" font-size="14.00">33</text>
</g>
<!-- v31&#45;&gt;v33 -->
<g id="edge33" class="edge"><title>v31&#45;&gt;v33</title>
<path fill="none" stroke="black" d="M230.5,-71.6966C230.5,-63.9827 230.5,-54.7125 230.5,-46.1124"/>
<polygon fill="black" stroke="black" points="234,-46.1043 230.5,-36.1043 227,-46.1044 234,-46.1043"/>
</g>
<!-- v41 -->
<g id="node31" class="node"><title>v41</title>
<ellipse fill="none" stroke="black" cx="302.5" cy="-18" rx="27" ry="18"/>
<text text-anchor="middle" x="302.5" y="-14.3" font-family="Times,serif" font-size="14.00">41</text>
</g>
<!-- v31&#45;&gt;v41 -->
<g id="edge28" class="edge"><title>v31&#45;&gt;v41</title>
<path fill="none" stroke="black" d="M245.07,-74.8345C255.25,-64.9376 269.024,-51.5462 280.531,-40.3591"/>
<polygon fill="black" stroke="black" points="282.974,-42.865 287.704,-33.3847 278.095,-37.8461 282.974,-42.865"/>
</g>
<!-- v35 -->
<g id="node28" class="node"><title>v35</title>
<ellipse fill="none" stroke="black" cx="231.5" cy="-162" rx="27" ry="18"/>
<text text-anchor="middle" x="231.5" y="-158.3" font-family="Times,serif" font-size="14.00">35</text>
</g>
<!-- v34&#45;&gt;v35 -->
<g id="edge4" class="edge"><title>v34&#45;&gt;v35</title>
<path fill="none" stroke="black" d="M246.659,-216.055C244.398,-208.145 241.654,-198.54 239.125,-189.688"/>
<polygon fill="black" stroke="black" points="242.409,-188.443 236.297,-179.789 235.679,-190.366 242.409,-188.443"/>
</g>
<!-- v38 -->
<g id="node30" class="node"><title>v38</title>
<ellipse fill="none" stroke="black" cx="305.5" cy="-162" rx="27" ry="18"/>
<text text-anchor="middle" x="305.5" y="-158.3" font-family="Times,serif" font-size="14.00">38</text>
</g>
<!-- v34&#45;&gt;v38 -->
<g id="edge3" class="edge"><title>v34&#45;&gt;v38</title>
<path fill="none" stroke="black" d="M263.484,-217.465C270.476,-208.402 279.436,-196.786 287.285,-186.612"/>
<polygon fill="black" stroke="black" points="290.212,-188.548 293.549,-178.492 284.67,-184.272 290.212,-188.548"/>
</g>
<!-- v35&#45;&gt;v31 -->
<g id="edge23" class="edge"><title>v35&#45;&gt;v31</title>
<path fill="none" stroke="black" d="M231.253,-143.697C231.143,-135.983 231.01,-126.712 230.887,-118.112"/>
<polygon fill="black" stroke="black" points="234.387,-118.053 230.744,-108.104 227.388,-118.153 234.387,-118.053"/>
</g>
<!-- p8 -->
<g id="node29" class="node"><title>p8</title>
<path fill="none" stroke="black" d="M323,-108C323,-108 288,-108 288,-108 282,-108 276,-102 276,-96 276,-96 276,-84 276,-84 276,-78 282,-72 288,-72 288,-72 323,-72 323,-72 329,-72 335,-78 335,-84 335,-84 335,-96 335,-96 335,-102 329,-108 323,-108"/>
<text text-anchor="middle" x="305.5" y="-86.3" font-family="Times,serif" font-size="14.00">path (4)</text>
</g>
<!-- v38&#45;&gt;p8 -->
<g id="edge8" class="edge"><title>v38&#45;&gt;p8</title>
<path fill="none" stroke="black" d="M305.5,-143.697C305.5,-135.983 305.5,-126.712 305.5,-118.112"/>
<polygon fill="black" stroke="black" points="309,-118.104 305.5,-108.104 302,-118.104 309,-118.104"/>
</g>
<!-- v42 -->
<g id="node32" class="node"><title>v42</title>
<ellipse fill="none" stroke="black" cx="380.5" cy="-90" rx="27" ry="18"/>
<text text-anchor="middle" x="380.5" y="-86.3" font-family="Times,serif" font-size="14.00">42</text>
</g>
<!-- v38&#45;&gt;v42 -->
<g id="edge24" class="edge"><title>v38&#45;&gt;v42</title>
<path fill="none" stroke="black" d="M320.677,-146.834C331.351,-136.872 345.819,-123.369 357.853,-112.137"/>
<polygon fill="black" stroke="black" points="360.423,-114.526 365.345,-105.144 355.646,-109.409 360.423,-114.526"/>
</g>
</g>
</svg>
