<?xml version="1.0" encoding="UTF-8" standalone="no"?>
<!DOCTYPE svg PUBLIC "-//W3C//DTD SVG 1.1//EN"
 "http://www.w3.org/Graphics/SVG/1.1/DTD/svg11.dtd">
<!-- Generated by graphviz version 2.38.0 (20140413.2041)
 -->
<!-- Title: %3 Pages: 1 -->
<svg width="280pt" height="332pt"
 viewBox="0.00 0.00 280.00 332.00" xmlns="http://www.w3.org/2000/svg" xmlns:xlink="http://www.w3.org/1999/xlink">
<g id="graph0" class="graph" transform="scale(1 1) rotate(0) translate(4 328)">
<title>%3</title>
<polygon fill="white" stroke="none" points="-4,4 -4,-328 276,-328 276,4 -4,4"/>
<!-- v0 -->
<g id="node1" class="node"><title>v0</title>
<ellipse fill="none" stroke="black" cx="27" cy="-162" rx="27" ry="18"/>
<text text-anchor="middle" x="27" y="-158.3" font-family="Times,serif" font-size="14.00">0</text>
</g>
<!-- v1 -->
<g id="node2" class="node"><title>v1</title>
<ellipse fill="none" stroke="black" cx="99" cy="-306" rx="27" ry="18"/>
<text text-anchor="middle" x="99" y="-302.3" font-family="Times,serif" font-size="14.00">1</text>
</g>
<!-- v2 -->
<g id="node3" class="node"><title>v2</title>
<ellipse fill="none" stroke="black" cx="99" cy="-234" rx="27" ry="18"/>
<text text-anchor="middle" x="99" y="-230.3" font-family="Times,serif" font-size="14.00">2</text>
</g>
<!-- v1&#45;&gt;v2 -->
<g id="edge1" class="edge"><title>v1&#45;&gt;v2</title>
<path fill="none" stroke="black" d="M99,-287.697C99,-279.983 99,-270.712 99,-262.112"/>
<polygon fill="black" stroke="black" points="102.5,-262.104 99,-252.104 95.5001,-262.104 102.5,-262.104"/>
</g>
<!-- v2&#45;&gt;v0 -->
<g id="edge6" class="edge"><title>v2&#45;&gt;v0</title>
<path fill="none" stroke="black" d="M84.4297,-218.834C74.2501,-208.938 60.4761,-195.546 48.9694,-184.359"/>
<polygon fill="black" stroke="black" points="51.4055,-181.846 41.7957,-177.385 46.5259,-186.865 51.4055,-181.846"/>
</g>
<!-- v3 -->
<g id="node4" class="node"><title>v3</title>
<ellipse fill="none" stroke="black" cx="99" cy="-162" rx="27" ry="18"/>
<text text-anchor="middle" x="99" y="-158.3" font-family="Times,serif" font-size="14.00">3</text>
</g>
<!-- v2&#45;&gt;v3 -->
<g id="edge7" class="edge"><title>v2&#45;&gt;v3</title>
<path fill="none" stroke="black" d="M99,-215.697C99,-207.983 99,-198.712 99,-190.112"/>
<polygon fill="black" stroke="black" points="102.5,-190.104 99,-180.104 95.5001,-190.104 102.5,-190.104"/>
</g>
<!-- v4 -->
<g id="node5" class="node"><title>v4</title>
<ellipse fill="none" stroke="black" cx="171" cy="-162" rx="27" ry="18"/>
<text text-anchor="middle" x="171" y="-158.3" font-family="Times,serif" font-size="14.00">4</text>
</g>
<!-- v2&#45;&gt;v4 -->
<g id="edge8" class="edge"><title>v2&#45;&gt;v4</title>
<path fill="none" stroke="black" d="M113.57,-218.834C123.75,-208.938 137.524,-195.546 149.031,-184.359"/>
<polygon fill="black" stroke="black" points="151.474,-186.865 156.204,-177.385 146.595,-181.846 151.474,-186.865"/>
</g>
<!-- p0 -->
<g id="node6" class="node"><title>p0</title>
<path fill="none" stroke="black" d="M151.5,-108C151.5,-108 116.5,-108 116.5,-108 110.5,-108 104.5,-102 104.5,-96 104.5,-96 104.5,-84 104.5,-84 104.5,-78 110.5,-72 116.5,-72 116.5,-72 151.5,-72 151.5,-72 157.5,-72 163.5,-78 163.5,-84 163.5,-84 163.5,-96 163.5,-96 163.5,-102 157.5,-108 151.5,-108"/>
<text text-anchor="middle" x="134" y="-86.3" font-family="Times,serif" font-size="14.00">path (3)</text>
</g>
<!-- v4&#45;&gt;p0 -->
<g id="edge2" class="edge"><title>v4&#45;&gt;p0</title>
<path fill="none" stroke="black" d="M162.418,-144.765C158.063,-136.525 152.667,-126.317 147.751,-117.016"/>
<polygon fill="black" stroke="black" points="150.819,-115.329 143.051,-108.124 144.63,-118.6 150.819,-115.329"/>
</g>
<!-- v8 -->
<g id="node7" class="node"><title>v8</title>
<ellipse fill="none" stroke="black" cx="209" cy="-90" rx="27" ry="18"/>
<text text-anchor="middle" x="209" y="-86.3" font-family="Times,serif" font-size="14.00">8</text>
</g>
<!-- v4&#45;&gt;v8 -->
<g id="edge3" class="edge"><title>v4&#45;&gt;v8</title>
<path fill="none" stroke="black" d="M179.813,-144.765C184.418,-136.283 190.155,-125.714 195.321,-116.197"/>
<polygon fill="black" stroke="black" points="198.539,-117.606 200.234,-107.147 192.387,-114.266 198.539,-117.606"/>
</g>
<!-- v9 -->
<g id="node8" class="node"><title>v9</title>
<ellipse fill="none" stroke="black" cx="173" cy="-18" rx="27" ry="18"/>
<text text-anchor="middle" x="173" y="-14.3" font-family="Times,serif" font-size="14.00">9</text>
</g>
<!-- v8&#45;&gt;v9 -->
<g id="edge5" class="edge"><title>v8&#45;&gt;v9</title>
<path fill="none" stroke="black" d="M200.65,-72.7646C196.288,-64.2831 190.853,-53.7144 185.959,-44.1974"/>
<polygon fill="black" stroke="black" points="188.99,-42.4395 181.304,-35.1473 182.765,-45.6409 188.99,-42.4395"/>
</g>
<!-- v10 -->
<g id="node9" class="node"><title>v10</title>
<ellipse fill="none" stroke="black" cx="245" cy="-18" rx="27" ry="18"/>
<text text-anchor="middle" x="245" y="-14.3" font-family="Times,serif" font-size="14.00">10</text>
</g>
<!-- v8&#45;&gt;v10 -->
<g id="edge4" class="edge"><title>v8&#45;&gt;v10</title>
<path fill="none" stroke="black" d="M217.35,-72.7646C221.712,-64.2831 227.147,-53.7144 232.041,-44.1974"/>
<polygon fill="black" stroke="black" points="235.235,-45.6409 236.696,-35.1473 229.01,-42.4395 235.235,-45.6409"/>
</g>
</g>
</svg>
