<?xml version="1.0" encoding="UTF-8" standalone="no"?>
<!DOCTYPE svg PUBLIC "-//W3C//DTD SVG 1.1//EN"
 "http://www.w3.org/Graphics/SVG/1.1/DTD/svg11.dtd">
<!-- Generated by graphviz version 2.38.0 (20140413.2041)
 -->
<!-- Title: %3 Pages: 1 -->
<svg width="362pt" height="260pt"
 viewBox="0.00 0.00 361.50 260.00" xmlns="http://www.w3.org/2000/svg" xmlns:xlink="http://www.w3.org/1999/xlink">
<g id="graph0" class="graph" transform="scale(1 1) rotate(0) translate(4 256)">
<title>%3</title>
<polygon fill="white" stroke="none" points="-4,4 -4,-256 357.5,-256 357.5,4 -4,4"/>
<!-- p0 -->
<g id="node1" class="node"><title>p0</title>
<path fill="none" stroke="black" d="M235,-36C235,-36 200,-36 200,-36 194,-36 188,-30 188,-24 188,-24 188,-12 188,-12 188,-6 194,-0 200,-0 200,-0 235,-0 235,-0 241,-0 247,-6 247,-12 247,-12 247,-24 247,-24 247,-30 241,-36 235,-36"/>
<text text-anchor="middle" x="217.5" y="-14.3" font-family="Times,serif" font-size="14.00">path (4)</text>
</g>
<!-- p1 -->
<g id="node2" class="node"><title>p1</title>
<path fill="none" stroke="black" d="M47,-180C47,-180 12,-180 12,-180 6,-180 0,-174 0,-168 0,-168 0,-156 0,-156 0,-150 6,-144 12,-144 12,-144 47,-144 47,-144 53,-144 59,-150 59,-156 59,-156 59,-168 59,-168 59,-174 53,-180 47,-180"/>
<text text-anchor="middle" x="29.5" y="-158.3" font-family="Times,serif" font-size="14.00">path (2)</text>
</g>
<!-- v3 -->
<g id="node3" class="node"><title>v3</title>
<ellipse fill="none" stroke="black" cx="141.5" cy="-234" rx="27" ry="18"/>
<text text-anchor="middle" x="141.5" y="-230.3" font-family="Times,serif" font-size="14.00">3</text>
</g>
<!-- v3&#45;&gt;p1 -->
<g id="edge5" class="edge"><title>v3&#45;&gt;p1</title>
<path fill="none" stroke="black" d="M122.501,-221.125C106.984,-211.427 84.6071,-197.442 65.6915,-185.62"/>
<polygon fill="black" stroke="black" points="67.3409,-182.523 57.0058,-180.191 63.6308,-188.459 67.3409,-182.523"/>
</g>
<!-- v4 -->
<g id="node4" class="node"><title>v4</title>
<ellipse fill="none" stroke="black" cx="104.5" cy="-162" rx="27" ry="18"/>
<text text-anchor="middle" x="104.5" y="-158.3" font-family="Times,serif" font-size="14.00">4</text>
</g>
<!-- v3&#45;&gt;v4 -->
<g id="edge9" class="edge"><title>v3&#45;&gt;v4</title>
<path fill="none" stroke="black" d="M132.918,-216.765C128.435,-208.283 122.849,-197.714 117.819,-188.197"/>
<polygon fill="black" stroke="black" points="120.802,-186.353 113.035,-179.147 114.614,-189.624 120.802,-186.353"/>
</g>
<!-- p2 -->
<g id="node5" class="node"><title>p2</title>
<path fill="none" stroke="black" d="M197,-180C197,-180 162,-180 162,-180 156,-180 150,-174 150,-168 150,-168 150,-156 150,-156 150,-150 156,-144 162,-144 162,-144 197,-144 197,-144 203,-144 209,-150 209,-156 209,-156 209,-168 209,-168 209,-174 203,-180 197,-180"/>
<text text-anchor="middle" x="179.5" y="-158.3" font-family="Times,serif" font-size="14.00">path (2)</text>
</g>
<!-- v3&#45;&gt;p2 -->
<g id="edge7" class="edge"><title>v3&#45;&gt;p2</title>
<path fill="none" stroke="black" d="M150.313,-216.765C154.786,-208.525 160.328,-198.317 165.377,-189.016"/>
<polygon fill="black" stroke="black" points="168.509,-190.582 170.204,-180.124 162.357,-187.243 168.509,-190.582"/>
</g>
<!-- v12 -->
<g id="node9" class="node"><title>v12</title>
<ellipse fill="none" stroke="black" cx="254.5" cy="-162" rx="27" ry="18"/>
<text text-anchor="middle" x="254.5" y="-158.3" font-family="Times,serif" font-size="14.00">12</text>
</g>
<!-- v3&#45;&gt;v12 -->
<g id="edge1" class="edge"><title>v3&#45;&gt;v12</title>
<path fill="none" stroke="black" d="M160.669,-221.125C178.77,-209.913 206.123,-192.968 226.633,-180.263"/>
<polygon fill="black" stroke="black" points="228.579,-183.174 235.237,-174.933 224.893,-177.224 228.579,-183.174"/>
</g>
<!-- p3 -->
<g id="node6" class="node"><title>p3</title>
<path fill="none" stroke="black" d="M197,-108C197,-108 162,-108 162,-108 156,-108 150,-102 150,-96 150,-96 150,-84 150,-84 150,-78 156,-72 162,-72 162,-72 197,-72 197,-72 203,-72 209,-78 209,-84 209,-84 209,-96 209,-96 209,-102 203,-108 197,-108"/>
<text text-anchor="middle" x="179.5" y="-86.3" font-family="Times,serif" font-size="14.00">path (2)</text>
</g>
<!-- v9 -->
<g id="node7" class="node"><title>v9</title>
<ellipse fill="none" stroke="black" cx="254.5" cy="-90" rx="27" ry="18"/>
<text text-anchor="middle" x="254.5" y="-86.3" font-family="Times,serif" font-size="14.00">9</text>
</g>
<!-- v9&#45;&gt;p0 -->
<g id="edge2" class="edge"><title>v9&#45;&gt;p0</title>
<path fill="none" stroke="black" d="M245.918,-72.7646C241.563,-64.5255 236.167,-54.3166 231.251,-45.0157"/>
<polygon fill="black" stroke="black" points="234.319,-43.3293 226.551,-36.1239 228.13,-46.6005 234.319,-43.3293"/>
</g>
<!-- v10 -->
<g id="node8" class="node"><title>v10</title>
<ellipse fill="none" stroke="black" cx="292.5" cy="-18" rx="27" ry="18"/>
<text text-anchor="middle" x="292.5" y="-14.3" font-family="Times,serif" font-size="14.00">10</text>
</g>
<!-- v9&#45;&gt;v10 -->
<g id="edge6" class="edge"><title>v9&#45;&gt;v10</title>
<path fill="none" stroke="black" d="M263.313,-72.7646C267.918,-64.2831 273.655,-53.7144 278.821,-44.1974"/>
<polygon fill="black" stroke="black" points="282.039,-45.6057 283.734,-35.1473 275.887,-42.266 282.039,-45.6057"/>
</g>
<!-- v12&#45;&gt;p3 -->
<g id="edge4" class="edge"><title>v12&#45;&gt;p3</title>
<path fill="none" stroke="black" d="M239.323,-146.834C229.585,-137.746 216.69,-125.71 205.366,-115.141"/>
<polygon fill="black" stroke="black" points="207.534,-112.377 197.835,-108.113 202.758,-117.495 207.534,-112.377"/>
</g>
<!-- v12&#45;&gt;v9 -->
<g id="edge8" class="edge"><title>v12&#45;&gt;v9</title>
<path fill="none" stroke="black" d="M254.5,-143.697C254.5,-135.983 254.5,-126.712 254.5,-118.112"/>
<polygon fill="black" stroke="black" points="258,-118.104 254.5,-108.104 251,-118.104 258,-118.104"/>
</g>
<!-- v13 -->
<g id="node10" class="node"><title>v13</title>
<ellipse fill="none" stroke="black" cx="326.5" cy="-90" rx="27" ry="18"/>
<text text-anchor="middle" x="326.5" y="-86.3" font-family="Times,serif" font-size="14.00">13</text>
</g>
<!-- v12&#45;&gt;v13 -->
<g id="edge3" class="edge"><title>v12&#45;&gt;v13</title>
<path fill="none" stroke="black" d="M269.07,-146.834C279.25,-136.938 293.024,-123.546 304.531,-112.359"/>
<polygon fill="black" stroke="black" points="306.974,-114.865 311.704,-105.385 302.095,-109.846 306.974,-114.865"/>
</g>
</g>
</svg>
