<?xml version="1.0" encoding="UTF-8" standalone="no"?>
<!DOCTYPE svg PUBLIC "-//W3C//DTD SVG 1.1//EN"
 "http://www.w3.org/Graphics/SVG/1.1/DTD/svg11.dtd">
<!-- Generated by graphviz version 2.38.0 (20140413.2041)
 -->
<!-- Title: %3 Pages: 1 -->
<svg width="428pt" height="548pt"
 viewBox="0.00 0.00 428.00 548.00" xmlns="http://www.w3.org/2000/svg" xmlns:xlink="http://www.w3.org/1999/xlink">
<g id="graph0" class="graph" transform="scale(1 1) rotate(0) translate(4 544)">
<title>%3</title>
<polygon fill="white" stroke="none" points="-4,4 -4,-544 424,-544 424,4 -4,4"/>
<!-- v0 -->
<g id="node1" class="node"><title>v0</title>
<ellipse fill="none" stroke="black" cx="69" cy="-450" rx="27" ry="18"/>
<text text-anchor="middle" x="69" y="-446.3" font-family="Times,serif" font-size="14.00">0</text>
</g>
<!-- v1 -->
<g id="node2" class="node"><title>v1</title>
<ellipse fill="none" stroke="black" cx="177" cy="-522" rx="27" ry="18"/>
<text text-anchor="middle" x="177" y="-518.3" font-family="Times,serif" font-size="14.00">1</text>
</g>
<!-- v1&#45;&gt;v0 -->
<g id="edge12" class="edge"><title>v1&#45;&gt;v0</title>
<path fill="none" stroke="black" d="M158.188,-508.807C140.998,-497.665 115.382,-481.062 96.0067,-468.504"/>
<polygon fill="black" stroke="black" points="97.8918,-465.555 87.5966,-463.053 94.0845,-471.429 97.8918,-465.555"/>
</g>
<!-- v2 -->
<g id="node3" class="node"><title>v2</title>
<ellipse fill="none" stroke="black" cx="141" cy="-450" rx="27" ry="18"/>
<text text-anchor="middle" x="141" y="-446.3" font-family="Times,serif" font-size="14.00">2</text>
</g>
<!-- v1&#45;&gt;v2 -->
<g id="edge5" class="edge"><title>v1&#45;&gt;v2</title>
<path fill="none" stroke="black" d="M168.65,-504.765C164.288,-496.283 158.853,-485.714 153.959,-476.197"/>
<polygon fill="black" stroke="black" points="156.99,-474.439 149.304,-467.147 150.765,-477.641 156.99,-474.439"/>
</g>
<!-- v11 -->
<g id="node10" class="node"><title>v11</title>
<ellipse fill="none" stroke="black" cx="213" cy="-450" rx="27" ry="18"/>
<text text-anchor="middle" x="213" y="-446.3" font-family="Times,serif" font-size="14.00">11</text>
</g>
<!-- v1&#45;&gt;v11 -->
<g id="edge4" class="edge"><title>v1&#45;&gt;v11</title>
<path fill="none" stroke="black" d="M185.35,-504.765C189.712,-496.283 195.147,-485.714 200.041,-476.197"/>
<polygon fill="black" stroke="black" points="203.235,-477.641 204.696,-467.147 197.01,-474.439 203.235,-477.641"/>
</g>
<!-- v25 -->
<g id="node20" class="node"><title>v25</title>
<ellipse fill="none" stroke="black" cx="285" cy="-450" rx="27" ry="18"/>
<text text-anchor="middle" x="285" y="-446.3" font-family="Times,serif" font-size="14.00">25</text>
</g>
<!-- v1&#45;&gt;v25 -->
<g id="edge6" class="edge"><title>v1&#45;&gt;v25</title>
<path fill="none" stroke="black" d="M195.812,-508.807C213.002,-497.665 238.618,-481.062 257.993,-468.504"/>
<polygon fill="black" stroke="black" points="259.916,-471.429 266.403,-463.053 256.108,-465.555 259.916,-471.429"/>
</g>
<!-- v3 -->
<g id="node4" class="node"><title>v3</title>
<ellipse fill="none" stroke="black" cx="27" cy="-162" rx="27" ry="18"/>
<text text-anchor="middle" x="27" y="-158.3" font-family="Times,serif" font-size="14.00">3</text>
</g>
<!-- v4 -->
<g id="node5" class="node"><title>v4</title>
<ellipse fill="none" stroke="black" cx="213" cy="-234" rx="27" ry="18"/>
<text text-anchor="middle" x="213" y="-230.3" font-family="Times,serif" font-size="14.00">4</text>
</g>
<!-- v4&#45;&gt;v3 -->
<g id="edge19" class="edge"><title>v4&#45;&gt;v3</title>
<path fill="none" stroke="black" d="M189.272,-225.286C159.665,-215.495 107.618,-197.737 64,-180 61.925,-179.156 59.7967,-178.261 57.6602,-177.34"/>
<polygon fill="black" stroke="black" points="58.9398,-174.078 48.3802,-173.215 56.0965,-180.475 58.9398,-174.078"/>
</g>
<!-- p1 -->
<g id="node7" class="node"><title>p1</title>
<path fill="none" stroke="black" d="M119.5,-180C119.5,-180 84.5,-180 84.5,-180 78.5,-180 72.5,-174 72.5,-168 72.5,-168 72.5,-156 72.5,-156 72.5,-150 78.5,-144 84.5,-144 84.5,-144 119.5,-144 119.5,-144 125.5,-144 131.5,-150 131.5,-156 131.5,-156 131.5,-168 131.5,-168 131.5,-174 125.5,-180 119.5,-180"/>
<text text-anchor="middle" x="102" y="-158.3" font-family="Times,serif" font-size="14.00">path (2)</text>
</g>
<!-- v4&#45;&gt;p1 -->
<g id="edge14" class="edge"><title>v4&#45;&gt;p1</title>
<path fill="none" stroke="black" d="M193.918,-220.967C178.507,-211.248 156.389,-197.299 137.711,-185.52"/>
<polygon fill="black" stroke="black" points="139.461,-182.486 129.136,-180.113 135.727,-188.407 139.461,-182.486"/>
</g>
<!-- v10 -->
<g id="node9" class="node"><title>v10</title>
<ellipse fill="none" stroke="black" cx="177" cy="-162" rx="27" ry="18"/>
<text text-anchor="middle" x="177" y="-158.3" font-family="Times,serif" font-size="14.00">10</text>
</g>
<!-- v4&#45;&gt;v10 -->
<g id="edge10" class="edge"><title>v4&#45;&gt;v10</title>
<path fill="none" stroke="black" d="M204.65,-216.765C200.288,-208.283 194.853,-197.714 189.959,-188.197"/>
<polygon fill="black" stroke="black" points="192.99,-186.439 185.304,-179.147 186.765,-189.641 192.99,-186.439"/>
</g>
<!-- v13 -->
<g id="node12" class="node"><title>v13</title>
<ellipse fill="none" stroke="black" cx="249" cy="-162" rx="27" ry="18"/>
<text text-anchor="middle" x="249" y="-158.3" font-family="Times,serif" font-size="14.00">13</text>
</g>
<!-- v4&#45;&gt;v13 -->
<g id="edge7" class="edge"><title>v4&#45;&gt;v13</title>
<path fill="none" stroke="black" d="M221.35,-216.765C225.712,-208.283 231.147,-197.714 236.041,-188.197"/>
<polygon fill="black" stroke="black" points="239.235,-189.641 240.696,-179.147 233.01,-186.439 239.235,-189.641"/>
</g>
<!-- v23 -->
<g id="node18" class="node"><title>v23</title>
<ellipse fill="none" stroke="black" cx="321" cy="-162" rx="27" ry="18"/>
<text text-anchor="middle" x="321" y="-158.3" font-family="Times,serif" font-size="14.00">23</text>
</g>
<!-- v4&#45;&gt;v23 -->
<g id="edge8" class="edge"><title>v4&#45;&gt;v23</title>
<path fill="none" stroke="black" d="M231.812,-220.807C249.002,-209.665 274.618,-193.062 293.993,-180.504"/>
<polygon fill="black" stroke="black" points="295.916,-183.429 302.403,-175.053 292.108,-177.555 295.916,-183.429"/>
</g>
<!-- v24 -->
<g id="node19" class="node"><title>v24</title>
<ellipse fill="none" stroke="black" cx="393" cy="-162" rx="27" ry="18"/>
<text text-anchor="middle" x="393" y="-158.3" font-family="Times,serif" font-size="14.00">24</text>
</g>
<!-- v4&#45;&gt;v24 -->
<g id="edge9" class="edge"><title>v4&#45;&gt;v24</title>
<path fill="none" stroke="black" d="M236.694,-225.002C265.437,-215.135 315.234,-197.507 357,-180 358.817,-179.238 360.675,-178.436 362.543,-177.611"/>
<polygon fill="black" stroke="black" points="364.172,-180.715 371.82,-173.383 361.269,-174.345 364.172,-180.715"/>
</g>
<!-- p0 -->
<g id="node6" class="node"><title>p0</title>
<path fill="none" stroke="black" d="M155.5,-324C155.5,-324 120.5,-324 120.5,-324 114.5,-324 108.5,-318 108.5,-312 108.5,-312 108.5,-300 108.5,-300 108.5,-294 114.5,-288 120.5,-288 120.5,-288 155.5,-288 155.5,-288 161.5,-288 167.5,-294 167.5,-300 167.5,-300 167.5,-312 167.5,-312 167.5,-318 161.5,-324 155.5,-324"/>
<text text-anchor="middle" x="138" y="-302.3" font-family="Times,serif" font-size="14.00">path (2)</text>
</g>
<!-- v8 -->
<g id="node8" class="node"><title>v8</title>
<ellipse fill="none" stroke="black" cx="213" cy="-378" rx="27" ry="18"/>
<text text-anchor="middle" x="213" y="-374.3" font-family="Times,serif" font-size="14.00">8</text>
</g>
<!-- v8&#45;&gt;p0 -->
<g id="edge11" class="edge"><title>v8&#45;&gt;p0</title>
<path fill="none" stroke="black" d="M197.823,-362.834C188.085,-353.746 175.19,-341.71 163.866,-331.141"/>
<polygon fill="black" stroke="black" points="166.034,-328.377 156.335,-324.113 161.258,-333.495 166.034,-328.377"/>
</g>
<!-- v12 -->
<g id="node11" class="node"><title>v12</title>
<ellipse fill="none" stroke="black" cx="213" cy="-306" rx="27" ry="18"/>
<text text-anchor="middle" x="213" y="-302.3" font-family="Times,serif" font-size="14.00">12</text>
</g>
<!-- v8&#45;&gt;v12 -->
<g id="edge15" class="edge"><title>v8&#45;&gt;v12</title>
<path fill="none" stroke="black" d="M213,-359.697C213,-351.983 213,-342.712 213,-334.112"/>
<polygon fill="black" stroke="black" points="216.5,-334.104 213,-324.104 209.5,-334.104 216.5,-334.104"/>
</g>
<!-- p4 -->
<g id="node17" class="node"><title>p4</title>
<path fill="none" stroke="black" d="M305.5,-324C305.5,-324 270.5,-324 270.5,-324 264.5,-324 258.5,-318 258.5,-312 258.5,-312 258.5,-300 258.5,-300 258.5,-294 264.5,-288 270.5,-288 270.5,-288 305.5,-288 305.5,-288 311.5,-288 317.5,-294 317.5,-300 317.5,-300 317.5,-312 317.5,-312 317.5,-318 311.5,-324 305.5,-324"/>
<text text-anchor="middle" x="288" y="-302.3" font-family="Times,serif" font-size="14.00">path (2)</text>
</g>
<!-- v8&#45;&gt;p4 -->
<g id="edge17" class="edge"><title>v8&#45;&gt;p4</title>
<path fill="none" stroke="black" d="M228.177,-362.834C237.915,-353.746 250.81,-341.71 262.134,-331.141"/>
<polygon fill="black" stroke="black" points="264.742,-333.495 269.665,-324.113 259.966,-328.377 264.742,-333.495"/>
</g>
<!-- v11&#45;&gt;v8 -->
<g id="edge16" class="edge"><title>v11&#45;&gt;v8</title>
<path fill="none" stroke="black" d="M213,-431.697C213,-423.983 213,-414.712 213,-406.112"/>
<polygon fill="black" stroke="black" points="216.5,-406.104 213,-396.104 209.5,-406.104 216.5,-406.104"/>
</g>
<!-- v12&#45;&gt;v4 -->
<g id="edge18" class="edge"><title>v12&#45;&gt;v4</title>
<path fill="none" stroke="black" d="M213,-287.697C213,-279.983 213,-270.712 213,-262.112"/>
<polygon fill="black" stroke="black" points="216.5,-262.104 213,-252.104 209.5,-262.104 216.5,-262.104"/>
</g>
<!-- p3 -->
<g id="node14" class="node"><title>p3</title>
<path fill="none" stroke="black" d="M228.5,-108C228.5,-108 193.5,-108 193.5,-108 187.5,-108 181.5,-102 181.5,-96 181.5,-96 181.5,-84 181.5,-84 181.5,-78 187.5,-72 193.5,-72 193.5,-72 228.5,-72 228.5,-72 234.5,-72 240.5,-78 240.5,-84 240.5,-84 240.5,-96 240.5,-96 240.5,-102 234.5,-108 228.5,-108"/>
<text text-anchor="middle" x="211" y="-86.3" font-family="Times,serif" font-size="14.00">path (3)</text>
</g>
<!-- v13&#45;&gt;p3 -->
<g id="edge1" class="edge"><title>v13&#45;&gt;p3</title>
<path fill="none" stroke="black" d="M240.187,-144.765C235.714,-136.525 230.172,-126.317 225.123,-117.016"/>
<polygon fill="black" stroke="black" points="228.143,-115.243 220.296,-108.124 221.991,-118.582 228.143,-115.243"/>
</g>
<!-- v17 -->
<g id="node16" class="node"><title>v17</title>
<ellipse fill="none" stroke="black" cx="286" cy="-90" rx="27" ry="18"/>
<text text-anchor="middle" x="286" y="-86.3" font-family="Times,serif" font-size="14.00">17</text>
</g>
<!-- v13&#45;&gt;v17 -->
<g id="edge2" class="edge"><title>v13&#45;&gt;v17</title>
<path fill="none" stroke="black" d="M257.582,-144.765C262.065,-136.283 267.651,-125.714 272.681,-116.197"/>
<polygon fill="black" stroke="black" points="275.886,-117.624 277.465,-107.147 269.698,-114.353 275.886,-117.624"/>
</g>
<!-- p2 -->
<g id="node13" class="node"><title>p2</title>
<path fill="none" stroke="black" d="M265.5,-36C265.5,-36 230.5,-36 230.5,-36 224.5,-36 218.5,-30 218.5,-24 218.5,-24 218.5,-12 218.5,-12 218.5,-6 224.5,-0 230.5,-0 230.5,-0 265.5,-0 265.5,-0 271.5,-0 277.5,-6 277.5,-12 277.5,-12 277.5,-24 277.5,-24 277.5,-30 271.5,-36 265.5,-36"/>
<text text-anchor="middle" x="248" y="-14.3" font-family="Times,serif" font-size="14.00">path (3)</text>
</g>
<!-- v16 -->
<g id="node15" class="node"><title>v16</title>
<ellipse fill="none" stroke="black" cx="323" cy="-18" rx="27" ry="18"/>
<text text-anchor="middle" x="323" y="-14.3" font-family="Times,serif" font-size="14.00">16</text>
</g>
<!-- v17&#45;&gt;p2 -->
<g id="edge13" class="edge"><title>v17&#45;&gt;p2</title>
<path fill="none" stroke="black" d="M277.187,-72.7646C272.714,-64.5255 267.172,-54.3166 262.123,-45.0157"/>
<polygon fill="black" stroke="black" points="265.143,-43.2426 257.296,-36.1239 258.991,-46.5823 265.143,-43.2426"/>
</g>
<!-- v17&#45;&gt;v16 -->
<g id="edge3" class="edge"><title>v17&#45;&gt;v16</title>
<path fill="none" stroke="black" d="M294.582,-72.7646C299.065,-64.2831 304.651,-53.7144 309.681,-44.1974"/>
<polygon fill="black" stroke="black" points="312.886,-45.6239 314.465,-35.1473 306.698,-42.3527 312.886,-45.6239"/>
</g>
</g>
</svg>
