<?xml version="1.0" encoding="UTF-8" standalone="no"?>
<!DOCTYPE svg PUBLIC "-//W3C//DTD SVG 1.1//EN"
 "http://www.w3.org/Graphics/SVG/1.1/DTD/svg11.dtd">
<!-- Generated by graphviz version 2.38.0 (20140413.2041)
 -->
<!-- Title: %3 Pages: 1 -->
<svg width="326pt" height="188pt"
 viewBox="0.00 0.00 326.00 188.00" xmlns="http://www.w3.org/2000/svg" xmlns:xlink="http://www.w3.org/1999/xlink">
<g id="graph0" class="graph" transform="scale(1 1) rotate(0) translate(4 184)">
<title>%3</title>
<polygon fill="white" stroke="none" points="-4,4 -4,-184 322,-184 322,4 -4,4"/>
<!-- v0 -->
<g id="node1" class="node"><title>v0</title>
<ellipse fill="none" stroke="black" cx="27" cy="-18" rx="27" ry="18"/>
<text text-anchor="middle" x="27" y="-14.3" font-family="Times,serif" font-size="14.00">0</text>
</g>
<!-- v1 -->
<g id="node2" class="node"><title>v1</title>
<ellipse fill="none" stroke="black" cx="141" cy="-90" rx="27" ry="18"/>
<text text-anchor="middle" x="141" y="-86.3" font-family="Times,serif" font-size="14.00">1</text>
</g>
<!-- v1&#45;&gt;v0 -->
<g id="edge7" class="edge"><title>v1&#45;&gt;v0</title>
<path fill="none" stroke="black" d="M121.661,-77.1255C103.401,-65.9126 75.8053,-48.9681 55.1134,-36.2626"/>
<polygon fill="black" stroke="black" points="56.7866,-33.1829 46.4334,-30.9328 53.1237,-39.1481 56.7866,-33.1829"/>
</g>
<!-- v2 -->
<g id="node3" class="node"><title>v2</title>
<ellipse fill="none" stroke="black" cx="254" cy="-18" rx="27" ry="18"/>
<text text-anchor="middle" x="254" y="-14.3" font-family="Times,serif" font-size="14.00">2</text>
</g>
<!-- v1&#45;&gt;v2 -->
<g id="edge1" class="edge"><title>v1&#45;&gt;v2</title>
<path fill="none" stroke="black" d="M157.33,-75.5033C174.765,-63.684 202.393,-46.5231 223.751,-34.2186"/>
<polygon fill="black" stroke="black" points="225.5,-37.2501 232.472,-29.2723 222.047,-31.1611 225.5,-37.2501"/>
</g>
<!-- p1 -->
<g id="node7" class="node"><title>p1</title>
<path fill="none" stroke="black" d="M119.5,-36C119.5,-36 84.5,-36 84.5,-36 78.5,-36 72.5,-30 72.5,-24 72.5,-24 72.5,-12 72.5,-12 72.5,-6 78.5,-0 84.5,-0 84.5,-0 119.5,-0 119.5,-0 125.5,-0 131.5,-6 131.5,-12 131.5,-12 131.5,-24 131.5,-24 131.5,-30 125.5,-36 119.5,-36"/>
<text text-anchor="middle" x="102" y="-14.3" font-family="Times,serif" font-size="14.00">path (2)</text>
</g>
<!-- v1&#45;&gt;p1 -->
<g id="edge4" class="edge"><title>v1&#45;&gt;p1</title>
<path fill="none" stroke="black" d="M131.955,-72.7646C127.364,-64.5255 121.676,-54.3166 116.494,-45.0157"/>
<polygon fill="black" stroke="black" points="119.465,-43.1561 111.54,-36.1239 113.35,-46.5631 119.465,-43.1561"/>
</g>
<!-- p2 -->
<g id="node8" class="node"><title>p2</title>
<path fill="none" stroke="black" d="M196.5,-36C196.5,-36 161.5,-36 161.5,-36 155.5,-36 149.5,-30 149.5,-24 149.5,-24 149.5,-12 149.5,-12 149.5,-6 155.5,-0 161.5,-0 161.5,-0 196.5,-0 196.5,-0 202.5,-0 208.5,-6 208.5,-12 208.5,-12 208.5,-24 208.5,-24 208.5,-30 202.5,-36 196.5,-36"/>
<text text-anchor="middle" x="179" y="-14.3" font-family="Times,serif" font-size="14.00">path (2)</text>
</g>
<!-- v1&#45;&gt;p2 -->
<g id="edge6" class="edge"><title>v1&#45;&gt;p2</title>
<path fill="none" stroke="black" d="M149.813,-72.7646C154.286,-64.5255 159.828,-54.3166 164.877,-45.0157"/>
<polygon fill="black" stroke="black" points="168.009,-46.5823 169.704,-36.1239 161.857,-43.2426 168.009,-46.5823"/>
</g>
<!-- v2&#45;&gt;v1 -->
<g id="edge3" class="edge"><title>v2&#45;&gt;v1</title>
<path fill="none" stroke="black" d="M237.583,-32.5557C220.095,-44.4058 192.419,-61.5923 171.072,-73.8833"/>
<polygon fill="black" stroke="black" points="169.333,-70.8457 162.359,-78.8214 172.785,-76.9356 169.333,-70.8457"/>
</g>
<!-- p0 -->
<g id="node4" class="node"><title>p0</title>
<path fill="none" stroke="black" d="M233.5,-108C233.5,-108 198.5,-108 198.5,-108 192.5,-108 186.5,-102 186.5,-96 186.5,-96 186.5,-84 186.5,-84 186.5,-78 192.5,-72 198.5,-72 198.5,-72 233.5,-72 233.5,-72 239.5,-72 245.5,-78 245.5,-84 245.5,-84 245.5,-96 245.5,-96 245.5,-102 239.5,-108 233.5,-108"/>
<text text-anchor="middle" x="216" y="-86.3" font-family="Times,serif" font-size="14.00">path (2)</text>
</g>
<!-- v5 -->
<g id="node5" class="node"><title>v5</title>
<ellipse fill="none" stroke="black" cx="253" cy="-162" rx="27" ry="18"/>
<text text-anchor="middle" x="253" y="-158.3" font-family="Times,serif" font-size="14.00">5</text>
</g>
<!-- v5&#45;&gt;p0 -->
<g id="edge8" class="edge"><title>v5&#45;&gt;p0</title>
<path fill="none" stroke="black" d="M244.418,-144.765C240.063,-136.525 234.667,-126.317 229.751,-117.016"/>
<polygon fill="black" stroke="black" points="232.819,-115.329 225.051,-108.124 226.63,-118.6 232.819,-115.329"/>
</g>
<!-- v6 -->
<g id="node6" class="node"><title>v6</title>
<ellipse fill="none" stroke="black" cx="291" cy="-90" rx="27" ry="18"/>
<text text-anchor="middle" x="291" y="-86.3" font-family="Times,serif" font-size="14.00">6</text>
</g>
<!-- v5&#45;&gt;v6 -->
<g id="edge2" class="edge"><title>v5&#45;&gt;v6</title>
<path fill="none" stroke="black" d="M261.813,-144.765C266.418,-136.283 272.155,-125.714 277.321,-116.197"/>
<polygon fill="black" stroke="black" points="280.539,-117.606 282.234,-107.147 274.387,-114.266 280.539,-117.606"/>
</g>
<!-- v6&#45;&gt;v2 -->
<g id="edge5" class="edge"><title>v6&#45;&gt;v2</title>
<path fill="none" stroke="black" d="M282.418,-72.7646C277.935,-64.2831 272.349,-53.7144 267.319,-44.1974"/>
<polygon fill="black" stroke="black" points="270.302,-42.3527 262.535,-35.1473 264.114,-45.6239 270.302,-42.3527"/>
</g>
</g>
</svg>
