<?xml version="1.0" encoding="UTF-8" standalone="no"?>
<!DOCTYPE svg PUBLIC "-//W3C//DTD SVG 1.1//EN"
 "http://www.w3.org/Graphics/SVG/1.1/DTD/svg11.dtd">
<!-- Generated by graphviz version 2.38.0 (20140413.2041)
 -->
<!-- Title: %3 Pages: 1 -->
<svg width="328pt" height="404pt"
 viewBox="0.00 0.00 328.00 404.00" xmlns="http://www.w3.org/2000/svg" xmlns:xlink="http://www.w3.org/1999/xlink">
<g id="graph0" class="graph" transform="scale(1 1) rotate(0) translate(4 400)">
<title>%3</title>
<polygon fill="white" stroke="none" points="-4,4 -4,-400 324,-400 324,4 -4,4"/>
<!-- v0 -->
<g id="node1" class="node"><title>v0</title>
<ellipse fill="none" stroke="black" cx="176.5" cy="-90" rx="27" ry="18"/>
<text text-anchor="middle" x="176.5" y="-86.3" font-family="Times,serif" font-size="14.00">0</text>
</g>
<!-- v1 -->
<g id="node2" class="node"><title>v1</title>
<ellipse fill="none" stroke="black" cx="68.5" cy="-18" rx="27" ry="18"/>
<text text-anchor="middle" x="68.5" y="-14.3" font-family="Times,serif" font-size="14.00">1</text>
</g>
<!-- v0&#45;&gt;v1 -->
<g id="edge1" class="edge"><title>v0&#45;&gt;v1</title>
<path fill="none" stroke="black" d="M157.688,-76.8069C140.498,-65.6653 114.882,-49.0622 95.5067,-36.5043"/>
<polygon fill="black" stroke="black" points="97.3918,-33.5553 87.0966,-31.0533 93.5845,-39.4294 97.3918,-33.5553"/>
</g>
<!-- v2 -->
<g id="node3" class="node"><title>v2</title>
<ellipse fill="none" stroke="black" cx="140.5" cy="-18" rx="27" ry="18"/>
<text text-anchor="middle" x="140.5" y="-14.3" font-family="Times,serif" font-size="14.00">2</text>
</g>
<!-- v0&#45;&gt;v2 -->
<g id="edge12" class="edge"><title>v0&#45;&gt;v2</title>
<path fill="none" stroke="black" d="M168.15,-72.7646C163.788,-64.2831 158.353,-53.7144 153.459,-44.1974"/>
<polygon fill="black" stroke="black" points="156.49,-42.4395 148.804,-35.1473 150.265,-45.6409 156.49,-42.4395"/>
</g>
<!-- v3 -->
<g id="node4" class="node"><title>v3</title>
<ellipse fill="none" stroke="black" cx="212.5" cy="-18" rx="27" ry="18"/>
<text text-anchor="middle" x="212.5" y="-14.3" font-family="Times,serif" font-size="14.00">3</text>
</g>
<!-- v0&#45;&gt;v3 -->
<g id="edge11" class="edge"><title>v0&#45;&gt;v3</title>
<path fill="none" stroke="black" d="M184.85,-72.7646C189.212,-64.2831 194.647,-53.7144 199.541,-44.1974"/>
<polygon fill="black" stroke="black" points="202.735,-45.6409 204.196,-35.1473 196.51,-42.4395 202.735,-45.6409"/>
</g>
<!-- p2 -->
<g id="node11" class="node"><title>p2</title>
<path fill="none" stroke="black" d="M305,-36C305,-36 270,-36 270,-36 264,-36 258,-30 258,-24 258,-24 258,-12 258,-12 258,-6 264,-0 270,-0 270,-0 305,-0 305,-0 311,-0 317,-6 317,-12 317,-12 317,-24 317,-24 317,-30 311,-36 305,-36"/>
<text text-anchor="middle" x="287.5" y="-14.3" font-family="Times,serif" font-size="14.00">path (3)</text>
</g>
<!-- v0&#45;&gt;p2 -->
<g id="edge5" class="edge"><title>v0&#45;&gt;p2</title>
<path fill="none" stroke="black" d="M195.582,-76.9666C210.993,-67.2478 233.111,-53.2992 251.789,-41.5203"/>
<polygon fill="black" stroke="black" points="253.773,-44.4075 260.364,-36.1127 250.039,-38.4865 253.773,-44.4075"/>
</g>
<!-- p0 -->
<g id="node5" class="node"><title>p0</title>
<path fill="none" stroke="black" d="M47,-180C47,-180 12,-180 12,-180 6,-180 0,-174 0,-168 0,-168 0,-156 0,-156 0,-150 6,-144 12,-144 12,-144 47,-144 47,-144 53,-144 59,-150 59,-156 59,-156 59,-168 59,-168 59,-174 53,-180 47,-180"/>
<text text-anchor="middle" x="29.5" y="-158.3" font-family="Times,serif" font-size="14.00">path (2)</text>
</g>
<!-- v5 -->
<g id="node6" class="node"><title>v5</title>
<ellipse fill="none" stroke="black" cx="104.5" cy="-162" rx="27" ry="18"/>
<text text-anchor="middle" x="104.5" y="-158.3" font-family="Times,serif" font-size="14.00">5</text>
</g>
<!-- v6 -->
<g id="node7" class="node"><title>v6</title>
<ellipse fill="none" stroke="black" cx="140.5" cy="-234" rx="27" ry="18"/>
<text text-anchor="middle" x="140.5" y="-230.3" font-family="Times,serif" font-size="14.00">6</text>
</g>
<!-- v6&#45;&gt;p0 -->
<g id="edge2" class="edge"><title>v6&#45;&gt;p0</title>
<path fill="none" stroke="black" d="M121.418,-220.967C106.007,-211.248 83.8887,-197.299 65.2108,-185.52"/>
<polygon fill="black" stroke="black" points="66.9614,-182.486 56.6359,-180.113 63.2274,-188.407 66.9614,-182.486"/>
</g>
<!-- v6&#45;&gt;v5 -->
<g id="edge13" class="edge"><title>v6&#45;&gt;v5</title>
<path fill="none" stroke="black" d="M132.15,-216.765C127.788,-208.283 122.353,-197.714 117.459,-188.197"/>
<polygon fill="black" stroke="black" points="120.49,-186.439 112.804,-179.147 114.265,-189.641 120.49,-186.439"/>
</g>
<!-- v10 -->
<g id="node9" class="node"><title>v10</title>
<ellipse fill="none" stroke="black" cx="176.5" cy="-162" rx="27" ry="18"/>
<text text-anchor="middle" x="176.5" y="-158.3" font-family="Times,serif" font-size="14.00">10</text>
</g>
<!-- v6&#45;&gt;v10 -->
<g id="edge4" class="edge"><title>v6&#45;&gt;v10</title>
<path fill="none" stroke="black" d="M148.85,-216.765C153.212,-208.283 158.647,-197.714 163.541,-188.197"/>
<polygon fill="black" stroke="black" points="166.735,-189.641 168.196,-179.147 160.51,-186.439 166.735,-189.641"/>
</g>
<!-- v11 -->
<g id="node10" class="node"><title>v11</title>
<ellipse fill="none" stroke="black" cx="248.5" cy="-162" rx="27" ry="18"/>
<text text-anchor="middle" x="248.5" y="-158.3" font-family="Times,serif" font-size="14.00">11</text>
</g>
<!-- v6&#45;&gt;v11 -->
<g id="edge3" class="edge"><title>v6&#45;&gt;v11</title>
<path fill="none" stroke="black" d="M159.312,-220.807C176.502,-209.665 202.118,-193.062 221.493,-180.504"/>
<polygon fill="black" stroke="black" points="223.416,-183.429 229.903,-175.053 219.608,-177.555 223.416,-183.429"/>
</g>
<!-- p1 -->
<g id="node8" class="node"><title>p1</title>
<path fill="none" stroke="black" d="M158,-324C158,-324 123,-324 123,-324 117,-324 111,-318 111,-312 111,-312 111,-300 111,-300 111,-294 117,-288 123,-288 123,-288 158,-288 158,-288 164,-288 170,-294 170,-300 170,-300 170,-312 170,-312 170,-318 164,-324 158,-324"/>
<text text-anchor="middle" x="140.5" y="-302.3" font-family="Times,serif" font-size="14.00">path (2)</text>
</g>
<!-- p1&#45;&gt;v6 -->
<g id="edge10" class="edge"><title>p1&#45;&gt;v6</title>
<path fill="none" stroke="black" d="M140.5,-287.697C140.5,-279.983 140.5,-270.712 140.5,-262.112"/>
<polygon fill="black" stroke="black" points="144,-262.104 140.5,-252.104 137,-262.104 144,-262.104"/>
</g>
<!-- v10&#45;&gt;v0 -->
<g id="edge9" class="edge"><title>v10&#45;&gt;v0</title>
<path fill="none" stroke="black" d="M176.5,-143.697C176.5,-135.983 176.5,-126.712 176.5,-118.112"/>
<polygon fill="black" stroke="black" points="180,-118.104 176.5,-108.104 173,-118.104 180,-118.104"/>
</g>
<!-- v15 -->
<g id="node12" class="node"><title>v15</title>
<ellipse fill="none" stroke="black" cx="215.5" cy="-306" rx="27" ry="18"/>
<text text-anchor="middle" x="215.5" y="-302.3" font-family="Times,serif" font-size="14.00">15</text>
</g>
<!-- v16 -->
<g id="node13" class="node"><title>v16</title>
<ellipse fill="none" stroke="black" cx="215.5" cy="-378" rx="27" ry="18"/>
<text text-anchor="middle" x="215.5" y="-374.3" font-family="Times,serif" font-size="14.00">16</text>
</g>
<!-- v16&#45;&gt;p1 -->
<g id="edge7" class="edge"><title>v16&#45;&gt;p1</title>
<path fill="none" stroke="black" d="M200.323,-362.834C190.585,-353.746 177.69,-341.71 166.366,-331.141"/>
<polygon fill="black" stroke="black" points="168.534,-328.377 158.835,-324.113 163.758,-333.495 168.534,-328.377"/>
</g>
<!-- v16&#45;&gt;v15 -->
<g id="edge8" class="edge"><title>v16&#45;&gt;v15</title>
<path fill="none" stroke="black" d="M215.5,-359.697C215.5,-351.983 215.5,-342.712 215.5,-334.112"/>
<polygon fill="black" stroke="black" points="219,-334.104 215.5,-324.104 212,-334.104 219,-334.104"/>
</g>
<!-- p3 -->
<g id="node14" class="node"><title>p3</title>
<path fill="none" stroke="black" d="M308,-324C308,-324 273,-324 273,-324 267,-324 261,-318 261,-312 261,-312 261,-300 261,-300 261,-294 267,-288 273,-288 273,-288 308,-288 308,-288 314,-288 320,-294 320,-300 320,-300 320,-312 320,-312 320,-318 314,-324 308,-324"/>
<text text-anchor="middle" x="290.5" y="-302.3" font-family="Times,serif" font-size="14.00">path (2)</text>
</g>
<!-- v16&#45;&gt;p3 -->
<g id="edge6" class="edge"><title>v16&#45;&gt;p3</title>
<path fill="none" stroke="black" d="M230.677,-362.834C240.415,-353.746 253.31,-341.71 264.634,-331.141"/>
<polygon fill="black" stroke="black" points="267.242,-333.495 272.165,-324.113 262.466,-328.377 267.242,-333.495"/>
</g>
</g>
</svg>
