<?xml version="1.0" encoding="UTF-8" standalone="no"?>
<!DOCTYPE svg PUBLIC "-//W3C//DTD SVG 1.1//EN"
 "http://www.w3.org/Graphics/SVG/1.1/DTD/svg11.dtd">
<!-- Generated by graphviz version 2.38.0 (20140413.2041)
 -->
<!-- Title: %3 Pages: 1 -->
<svg width="407pt" height="260pt"
 viewBox="0.00 0.00 406.50 260.00" xmlns="http://www.w3.org/2000/svg" xmlns:xlink="http://www.w3.org/1999/xlink">
<g id="graph0" class="graph" transform="scale(1 1) rotate(0) translate(4 256)">
<title>%3</title>
<polygon fill="white" stroke="none" points="-4,4 -4,-256 402.5,-256 402.5,4 -4,4"/>
<!-- v0 -->
<g id="node1" class="node"><title>v0</title>
<ellipse fill="none" stroke="black" cx="370.5" cy="-90" rx="27" ry="18"/>
<text text-anchor="middle" x="370.5" y="-86.3" font-family="Times,serif" font-size="14.00">0</text>
</g>
<!-- v1 -->
<g id="node2" class="node"><title>v1</title>
<ellipse fill="none" stroke="black" cx="299.5" cy="-18" rx="27" ry="18"/>
<text text-anchor="middle" x="299.5" y="-14.3" font-family="Times,serif" font-size="14.00">1</text>
</g>
<!-- v0&#45;&gt;v1 -->
<g id="edge1" class="edge"><title>v0&#45;&gt;v1</title>
<path fill="none" stroke="black" d="M355.789,-74.496C345.888,-64.7348 332.657,-51.6897 321.51,-40.6999"/>
<polygon fill="black" stroke="black" points="323.771,-38.0139 314.192,-33.4855 318.856,-42.9986 323.771,-38.0139"/>
</g>
<!-- v2 -->
<g id="node3" class="node"><title>v2</title>
<ellipse fill="none" stroke="black" cx="371.5" cy="-18" rx="27" ry="18"/>
<text text-anchor="middle" x="371.5" y="-14.3" font-family="Times,serif" font-size="14.00">2</text>
</g>
<!-- v0&#45;&gt;v2 -->
<g id="edge11" class="edge"><title>v0&#45;&gt;v2</title>
<path fill="none" stroke="black" d="M370.747,-71.6966C370.857,-63.9827 370.99,-54.7125 371.113,-46.1124"/>
<polygon fill="black" stroke="black" points="374.612,-46.1533 371.256,-36.1043 367.613,-46.0533 374.612,-46.1533"/>
</g>
<!-- v3 -->
<g id="node4" class="node"><title>v3</title>
<ellipse fill="none" stroke="black" cx="182.5" cy="-234" rx="27" ry="18"/>
<text text-anchor="middle" x="182.5" y="-230.3" font-family="Times,serif" font-size="14.00">3</text>
</g>
<!-- p1 -->
<g id="node6" class="node"><title>p1</title>
<path fill="none" stroke="black" d="M47,-180C47,-180 12,-180 12,-180 6,-180 0,-174 0,-168 0,-168 0,-156 0,-156 0,-150 6,-144 12,-144 12,-144 47,-144 47,-144 53,-144 59,-150 59,-156 59,-156 59,-168 59,-168 59,-174 53,-180 47,-180"/>
<text text-anchor="middle" x="29.5" y="-158.3" font-family="Times,serif" font-size="14.00">path (2)</text>
</g>
<!-- v3&#45;&gt;p1 -->
<g id="edge7" class="edge"><title>v3&#45;&gt;p1</title>
<path fill="none" stroke="black" d="M160.903,-223.119C136.895,-212.135 97.6396,-194.175 68.2755,-180.74"/>
<polygon fill="black" stroke="black" points="69.6707,-177.53 59.1211,-176.552 66.7584,-183.895 69.6707,-177.53"/>
</g>
<!-- v6 -->
<g id="node7" class="node"><title>v6</title>
<ellipse fill="none" stroke="black" cx="117.5" cy="-90" rx="27" ry="18"/>
<text text-anchor="middle" x="117.5" y="-86.3" font-family="Times,serif" font-size="14.00">6</text>
</g>
<!-- v3&#45;&gt;v6 -->
<g id="edge9" class="edge"><title>v3&#45;&gt;v6</title>
<path fill="none" stroke="black" d="M159.579,-224.1C141.514,-215.717 117.588,-201.249 106.5,-180 96.3518,-160.551 100.708,-135.549 106.675,-116.999"/>
<polygon fill="black" stroke="black" points="110.024,-118.028 110.075,-107.433 103.428,-115.684 110.024,-118.028"/>
</g>
<!-- p2 -->
<g id="node8" class="node"><title>p2</title>
<path fill="none" stroke="black" d="M163,-180C163,-180 128,-180 128,-180 122,-180 116,-174 116,-168 116,-168 116,-156 116,-156 116,-150 122,-144 128,-144 128,-144 163,-144 163,-144 169,-144 175,-150 175,-156 175,-156 175,-168 175,-168 175,-174 169,-180 163,-180"/>
<text text-anchor="middle" x="145.5" y="-158.3" font-family="Times,serif" font-size="14.00">path (2)</text>
</g>
<!-- v3&#45;&gt;p2 -->
<g id="edge8" class="edge"><title>v3&#45;&gt;p2</title>
<path fill="none" stroke="black" d="M173.918,-216.765C169.563,-208.525 164.167,-198.317 159.251,-189.016"/>
<polygon fill="black" stroke="black" points="162.319,-187.329 154.551,-180.124 156.13,-190.6 162.319,-187.329"/>
</g>
<!-- v11 -->
<g id="node9" class="node"><title>v11</title>
<ellipse fill="none" stroke="black" cx="220.5" cy="-162" rx="27" ry="18"/>
<text text-anchor="middle" x="220.5" y="-158.3" font-family="Times,serif" font-size="14.00">11</text>
</g>
<!-- v3&#45;&gt;v11 -->
<g id="edge6" class="edge"><title>v3&#45;&gt;v11</title>
<path fill="none" stroke="black" d="M191.313,-216.765C195.918,-208.283 201.655,-197.714 206.821,-188.197"/>
<polygon fill="black" stroke="black" points="210.039,-189.606 211.734,-179.147 203.887,-186.266 210.039,-189.606"/>
</g>
<!-- p3 -->
<g id="node10" class="node"><title>p3</title>
<path fill="none" stroke="black" d="M313,-180C313,-180 278,-180 278,-180 272,-180 266,-174 266,-168 266,-168 266,-156 266,-156 266,-150 272,-144 278,-144 278,-144 313,-144 313,-144 319,-144 325,-150 325,-156 325,-156 325,-168 325,-168 325,-174 319,-180 313,-180"/>
<text text-anchor="middle" x="295.5" y="-158.3" font-family="Times,serif" font-size="14.00">path (2)</text>
</g>
<!-- v3&#45;&gt;p3 -->
<g id="edge4" class="edge"><title>v3&#45;&gt;p3</title>
<path fill="none" stroke="black" d="M201.669,-221.125C217.395,-211.384 240.105,-197.315 259.244,-185.459"/>
<polygon fill="black" stroke="black" points="261.091,-188.433 267.749,-180.191 257.404,-182.482 261.091,-188.433"/>
</g>
<!-- v17 -->
<g id="node13" class="node"><title>v17</title>
<ellipse fill="none" stroke="black" cx="370.5" cy="-162" rx="27" ry="18"/>
<text text-anchor="middle" x="370.5" y="-158.3" font-family="Times,serif" font-size="14.00">17</text>
</g>
<!-- v3&#45;&gt;v17 -->
<g id="edge10" class="edge"><title>v3&#45;&gt;v17</title>
<path fill="none" stroke="black" d="M206.486,-225.505C236.688,-215.87 290.01,-198.201 334.5,-180 336.323,-179.254 338.187,-178.464 340.059,-177.648"/>
<polygon fill="black" stroke="black" points="341.678,-180.757 349.346,-173.445 338.792,-174.379 341.678,-180.757"/>
</g>
<!-- p0 -->
<g id="node5" class="node"><title>p0</title>
<path fill="none" stroke="black" d="M135,-36C135,-36 100,-36 100,-36 94,-36 88,-30 88,-24 88,-24 88,-12 88,-12 88,-6 94,-0 100,-0 100,-0 135,-0 135,-0 141,-0 147,-6 147,-12 147,-12 147,-24 147,-24 147,-30 141,-36 135,-36"/>
<text text-anchor="middle" x="117.5" y="-14.3" font-family="Times,serif" font-size="14.00">path (2)</text>
</g>
<!-- v6&#45;&gt;p0 -->
<g id="edge2" class="edge"><title>v6&#45;&gt;p0</title>
<path fill="none" stroke="black" d="M117.5,-71.6966C117.5,-63.9827 117.5,-54.7125 117.5,-46.1124"/>
<polygon fill="black" stroke="black" points="121,-46.1043 117.5,-36.1043 114,-46.1044 121,-46.1043"/>
</g>
<!-- p4 -->
<g id="node11" class="node"><title>p4</title>
<path fill="none" stroke="black" d="M212,-36C212,-36 177,-36 177,-36 171,-36 165,-30 165,-24 165,-24 165,-12 165,-12 165,-6 171,-0 177,-0 177,-0 212,-0 212,-0 218,-0 224,-6 224,-12 224,-12 224,-24 224,-24 224,-30 218,-36 212,-36"/>
<text text-anchor="middle" x="194.5" y="-14.3" font-family="Times,serif" font-size="14.00">path (2)</text>
</g>
<!-- v6&#45;&gt;p4 -->
<g id="edge13" class="edge"><title>v6&#45;&gt;p4</title>
<path fill="none" stroke="black" d="M133.082,-74.8345C143.079,-65.7459 156.318,-53.7105 167.945,-43.1413"/>
<polygon fill="black" stroke="black" points="170.631,-45.4293 175.676,-36.1127 165.922,-40.2497 170.631,-45.4293"/>
</g>
<!-- v11&#45;&gt;v6 -->
<g id="edge12" class="edge"><title>v11&#45;&gt;v6</title>
<path fill="none" stroke="black" d="M202.086,-148.485C185.974,-137.536 162.371,-121.495 144.189,-109.138"/>
<polygon fill="black" stroke="black" points="145.993,-106.132 135.755,-103.406 142.058,-111.922 145.993,-106.132"/>
</g>
<!-- v16 -->
<g id="node12" class="node"><title>v16</title>
<ellipse fill="none" stroke="black" cx="220.5" cy="-90" rx="27" ry="18"/>
<text text-anchor="middle" x="220.5" y="-86.3" font-family="Times,serif" font-size="14.00">16</text>
</g>
<!-- v11&#45;&gt;v16 -->
<g id="edge5" class="edge"><title>v11&#45;&gt;v16</title>
<path fill="none" stroke="black" d="M220.5,-143.697C220.5,-135.983 220.5,-126.712 220.5,-118.112"/>
<polygon fill="black" stroke="black" points="224,-118.104 220.5,-108.104 217,-118.104 224,-118.104"/>
</g>
<!-- v17&#45;&gt;v0 -->
<g id="edge3" class="edge"><title>v17&#45;&gt;v0</title>
<path fill="none" stroke="black" d="M370.5,-143.697C370.5,-135.983 370.5,-126.712 370.5,-118.112"/>
<polygon fill="black" stroke="black" points="374,-118.104 370.5,-108.104 367,-118.104 374,-118.104"/>
</g>
</g>
</svg>
