<?xml version="1.0" encoding="UTF-8" standalone="no"?>
<!DOCTYPE svg PUBLIC "-//W3C//DTD SVG 1.1//EN"
 "http://www.w3.org/Graphics/SVG/1.1/DTD/svg11.dtd">
<!-- Generated by graphviz version 2.38.0 (20140413.2041)
 -->
<!-- Title: %3 Pages: 1 -->
<svg width="217pt" height="260pt"
 viewBox="0.00 0.00 216.50 260.00" xmlns="http://www.w3.org/2000/svg" xmlns:xlink="http://www.w3.org/1999/xlink">
<g id="graph0" class="graph" transform="scale(1 1) rotate(0) translate(4 256)">
<title>%3</title>
<polygon fill="white" stroke="none" points="-4,4 -4,-256 212.5,-256 212.5,4 -4,4"/>
<!-- v0 -->
<g id="node1" class="node"><title>v0</title>
<ellipse fill="none" stroke="black" cx="34.5" cy="-162" rx="27" ry="18"/>
<text text-anchor="middle" x="34.5" y="-158.3" font-family="Times,serif" font-size="14.00">0</text>
</g>
<!-- v1 -->
<g id="node2" class="node"><title>v1</title>
<ellipse fill="none" stroke="black" cx="106.5" cy="-234" rx="27" ry="18"/>
<text text-anchor="middle" x="106.5" y="-230.3" font-family="Times,serif" font-size="14.00">1</text>
</g>
<!-- v1&#45;&gt;v0 -->
<g id="edge6" class="edge"><title>v1&#45;&gt;v0</title>
<path fill="none" stroke="black" d="M91.9297,-218.834C81.7501,-208.938 67.9761,-195.546 56.4694,-184.359"/>
<polygon fill="black" stroke="black" points="58.9055,-181.846 49.2957,-177.385 54.0259,-186.865 58.9055,-181.846"/>
</g>
<!-- v2 -->
<g id="node3" class="node"><title>v2</title>
<ellipse fill="none" stroke="black" cx="106.5" cy="-162" rx="27" ry="18"/>
<text text-anchor="middle" x="106.5" y="-158.3" font-family="Times,serif" font-size="14.00">2</text>
</g>
<!-- v1&#45;&gt;v2 -->
<g id="edge1" class="edge"><title>v1&#45;&gt;v2</title>
<path fill="none" stroke="black" d="M106.5,-215.697C106.5,-207.983 106.5,-198.712 106.5,-190.112"/>
<polygon fill="black" stroke="black" points="110,-190.104 106.5,-180.104 103,-190.104 110,-190.104"/>
</g>
<!-- v8 -->
<g id="node7" class="node"><title>v8</title>
<ellipse fill="none" stroke="black" cx="178.5" cy="-162" rx="27" ry="18"/>
<text text-anchor="middle" x="178.5" y="-158.3" font-family="Times,serif" font-size="14.00">8</text>
</g>
<!-- v1&#45;&gt;v8 -->
<g id="edge2" class="edge"><title>v1&#45;&gt;v8</title>
<path fill="none" stroke="black" d="M121.07,-218.834C131.25,-208.938 145.024,-195.546 156.531,-184.359"/>
<polygon fill="black" stroke="black" points="158.974,-186.865 163.704,-177.385 154.095,-181.846 158.974,-186.865"/>
</g>
<!-- v3 -->
<g id="node4" class="node"><title>v3</title>
<ellipse fill="none" stroke="black" cx="106.5" cy="-90" rx="27" ry="18"/>
<text text-anchor="middle" x="106.5" y="-86.3" font-family="Times,serif" font-size="14.00">3</text>
</g>
<!-- v2&#45;&gt;v3 -->
<g id="edge4" class="edge"><title>v2&#45;&gt;v3</title>
<path fill="none" stroke="black" d="M106.5,-143.697C106.5,-135.983 106.5,-126.712 106.5,-118.112"/>
<polygon fill="black" stroke="black" points="110,-118.104 106.5,-108.104 103,-118.104 110,-118.104"/>
</g>
<!-- p0 -->
<g id="node5" class="node"><title>p0</title>
<path fill="none" stroke="black" d="M47,-36C47,-36 12,-36 12,-36 6,-36 0,-30 0,-24 0,-24 0,-12 0,-12 0,-6 6,-0 12,-0 12,-0 47,-0 47,-0 53,-0 59,-6 59,-12 59,-12 59,-24 59,-24 59,-30 53,-36 47,-36"/>
<text text-anchor="middle" x="29.5" y="-14.3" font-family="Times,serif" font-size="14.00">path (2)</text>
</g>
<!-- v3&#45;&gt;p0 -->
<g id="edge7" class="edge"><title>v3&#45;&gt;p0</title>
<path fill="none" stroke="black" d="M90.9179,-74.8345C80.9205,-65.7459 67.6815,-53.7105 56.0555,-43.1413"/>
<polygon fill="black" stroke="black" points="58.0778,-40.2497 48.324,-36.1127 53.3691,-45.4293 58.0778,-40.2497"/>
</g>
<!-- p1 -->
<g id="node6" class="node"><title>p1</title>
<path fill="none" stroke="black" d="M124,-36C124,-36 89,-36 89,-36 83,-36 77,-30 77,-24 77,-24 77,-12 77,-12 77,-6 83,-0 89,-0 89,-0 124,-0 124,-0 130,-0 136,-6 136,-12 136,-12 136,-24 136,-24 136,-30 130,-36 124,-36"/>
<text text-anchor="middle" x="106.5" y="-14.3" font-family="Times,serif" font-size="14.00">path (2)</text>
</g>
<!-- v3&#45;&gt;p1 -->
<g id="edge5" class="edge"><title>v3&#45;&gt;p1</title>
<path fill="none" stroke="black" d="M106.5,-71.6966C106.5,-63.9827 106.5,-54.7125 106.5,-46.1124"/>
<polygon fill="black" stroke="black" points="110,-46.1043 106.5,-36.1043 103,-46.1044 110,-46.1043"/>
</g>
<!-- v9 -->
<g id="node8" class="node"><title>v9</title>
<ellipse fill="none" stroke="black" cx="181.5" cy="-18" rx="27" ry="18"/>
<text text-anchor="middle" x="181.5" y="-14.3" font-family="Times,serif" font-size="14.00">9</text>
</g>
<!-- v3&#45;&gt;v9 -->
<g id="edge3" class="edge"><title>v3&#45;&gt;v9</title>
<path fill="none" stroke="black" d="M121.677,-74.8345C132.351,-64.872 146.819,-51.3687 158.853,-40.1371"/>
<polygon fill="black" stroke="black" points="161.423,-42.5264 166.345,-33.1445 156.646,-37.409 161.423,-42.5264"/>
</g>
</g>
</svg>
