<?xml version="1.0" encoding="UTF-8" standalone="no"?>
<!DOCTYPE svg PUBLIC "-//W3C//DTD SVG 1.1//EN"
 "http://www.w3.org/Graphics/SVG/1.1/DTD/svg11.dtd">
<!-- Generated by graphviz version 2.38.0 (20140413.2041)
 -->
<!-- Title: %3 Pages: 1 -->
<svg width="448pt" height="260pt"
 viewBox="0.00 0.00 448.00 260.00" xmlns="http://www.w3.org/2000/svg" xmlns:xlink="http://www.w3.org/1999/xlink">
<g id="graph0" class="graph" transform="scale(1 1) rotate(0) translate(4 256)">
<title>%3</title>
<polygon fill="white" stroke="none" points="-4,4 -4,-256 444,-256 444,4 -4,4"/>
<!-- p0 -->
<g id="node1" class="node"><title>p0</title>
<path fill="none" stroke="black" d="M47,-108C47,-108 12,-108 12,-108 6,-108 0,-102 0,-96 0,-96 0,-84 0,-84 0,-78 6,-72 12,-72 12,-72 47,-72 47,-72 53,-72 59,-78 59,-84 59,-84 59,-96 59,-96 59,-102 53,-108 47,-108"/>
<text text-anchor="middle" x="29.5" y="-86.3" font-family="Times,serif" font-size="14.00">path (3)</text>
</g>
<!-- p1 -->
<g id="node2" class="node"><title>p1</title>
<path fill="none" stroke="black" d="M124,-108C124,-108 89,-108 89,-108 83,-108 77,-102 77,-96 77,-96 77,-84 77,-84 77,-78 83,-72 89,-72 89,-72 124,-72 124,-72 130,-72 136,-78 136,-84 136,-84 136,-96 136,-96 136,-102 130,-108 124,-108"/>
<text text-anchor="middle" x="106.5" y="-86.3" font-family="Times,serif" font-size="14.00">path (5)</text>
</g>
<!-- v7 -->
<g id="node3" class="node"><title>v7</title>
<ellipse fill="none" stroke="black" cx="181.5" cy="-90" rx="27" ry="18"/>
<text text-anchor="middle" x="181.5" y="-86.3" font-family="Times,serif" font-size="14.00">7</text>
</g>
<!-- p2 -->
<g id="node4" class="node"><title>p2</title>
<path fill="none" stroke="black" d="M161,-36C161,-36 126,-36 126,-36 120,-36 114,-30 114,-24 114,-24 114,-12 114,-12 114,-6 120,-0 126,-0 126,-0 161,-0 161,-0 167,-0 173,-6 173,-12 173,-12 173,-24 173,-24 173,-30 167,-36 161,-36"/>
<text text-anchor="middle" x="143.5" y="-14.3" font-family="Times,serif" font-size="14.00">path (3)</text>
</g>
<!-- v7&#45;&gt;p2 -->
<g id="edge7" class="edge"><title>v7&#45;&gt;p2</title>
<path fill="none" stroke="black" d="M172.687,-72.7646C168.214,-64.5255 162.672,-54.3166 157.623,-45.0157"/>
<polygon fill="black" stroke="black" points="160.643,-43.2426 152.796,-36.1239 154.491,-46.5823 160.643,-43.2426"/>
</g>
<!-- p5 -->
<g id="node10" class="node"><title>p5</title>
<path fill="none" stroke="black" d="M238,-36C238,-36 203,-36 203,-36 197,-36 191,-30 191,-24 191,-24 191,-12 191,-12 191,-6 197,-0 203,-0 203,-0 238,-0 238,-0 244,-0 250,-6 250,-12 250,-12 250,-24 250,-24 250,-30 244,-36 238,-36"/>
<text text-anchor="middle" x="220.5" y="-14.3" font-family="Times,serif" font-size="14.00">path (2)</text>
</g>
<!-- v7&#45;&gt;p5 -->
<g id="edge9" class="edge"><title>v7&#45;&gt;p5</title>
<path fill="none" stroke="black" d="M190.545,-72.7646C195.136,-64.5255 200.824,-54.3166 206.006,-45.0157"/>
<polygon fill="black" stroke="black" points="209.15,-46.5631 210.96,-36.1239 203.035,-43.1561 209.15,-46.5631"/>
</g>
<!-- v11 -->
<g id="node5" class="node"><title>v11</title>
<ellipse fill="none" stroke="black" cx="218.5" cy="-162" rx="27" ry="18"/>
<text text-anchor="middle" x="218.5" y="-158.3" font-family="Times,serif" font-size="14.00">11</text>
</g>
<!-- v11&#45;&gt;p0 -->
<g id="edge1" class="edge"><title>v11&#45;&gt;p0</title>
<path fill="none" stroke="black" d="M194.735,-153.338C166.61,-144.125 118.216,-127.817 68.8273,-108.393"/>
<polygon fill="black" stroke="black" points="69.8567,-105.036 59.2709,-104.6 67.274,-111.542 69.8567,-105.036"/>
</g>
<!-- v11&#45;&gt;p1 -->
<g id="edge10" class="edge"><title>v11&#45;&gt;p1</title>
<path fill="none" stroke="black" d="M199.501,-149.125C183.984,-139.427 161.607,-125.442 142.691,-113.62"/>
<polygon fill="black" stroke="black" points="144.341,-110.523 134.006,-108.191 140.631,-116.459 144.341,-110.523"/>
</g>
<!-- v11&#45;&gt;v7 -->
<g id="edge8" class="edge"><title>v11&#45;&gt;v7</title>
<path fill="none" stroke="black" d="M209.918,-144.765C205.435,-136.283 199.849,-125.714 194.819,-116.197"/>
<polygon fill="black" stroke="black" points="197.802,-114.353 190.035,-107.147 191.614,-117.624 197.802,-114.353"/>
</g>
<!-- p3 -->
<g id="node6" class="node"><title>p3</title>
<path fill="none" stroke="black" d="M274,-108C274,-108 239,-108 239,-108 233,-108 227,-102 227,-96 227,-96 227,-84 227,-84 227,-78 233,-72 239,-72 239,-72 274,-72 274,-72 280,-72 286,-78 286,-84 286,-84 286,-96 286,-96 286,-102 280,-108 274,-108"/>
<text text-anchor="middle" x="256.5" y="-86.3" font-family="Times,serif" font-size="14.00">path (2)</text>
</g>
<!-- v11&#45;&gt;p3 -->
<g id="edge5" class="edge"><title>v11&#45;&gt;p3</title>
<path fill="none" stroke="black" d="M227.313,-144.765C231.786,-136.525 237.328,-126.317 242.377,-117.016"/>
<polygon fill="black" stroke="black" points="245.509,-118.582 247.204,-108.124 239.357,-115.243 245.509,-118.582"/>
</g>
<!-- p4 -->
<g id="node7" class="node"><title>p4</title>
<path fill="none" stroke="black" d="M351,-108C351,-108 316,-108 316,-108 310,-108 304,-102 304,-96 304,-96 304,-84 304,-84 304,-78 310,-72 316,-72 316,-72 351,-72 351,-72 357,-72 363,-78 363,-84 363,-84 363,-96 363,-96 363,-102 357,-108 351,-108"/>
<text text-anchor="middle" x="333.5" y="-86.3" font-family="Times,serif" font-size="14.00">path (3)</text>
</g>
<!-- v11&#45;&gt;p4 -->
<g id="edge2" class="edge"><title>v11&#45;&gt;p4</title>
<path fill="none" stroke="black" d="M237.748,-149.284C253.829,-139.496 277.213,-125.262 296.847,-113.311"/>
<polygon fill="black" stroke="black" points="298.842,-116.194 305.564,-108.004 295.202,-110.214 298.842,-116.194"/>
</g>
<!-- p6 -->
<g id="node11" class="node"><title>p6</title>
<path fill="none" stroke="black" d="M428,-108C428,-108 393,-108 393,-108 387,-108 381,-102 381,-96 381,-96 381,-84 381,-84 381,-78 387,-72 393,-72 393,-72 428,-72 428,-72 434,-72 440,-78 440,-84 440,-84 440,-96 440,-96 440,-102 434,-108 428,-108"/>
<text text-anchor="middle" x="410.5" y="-86.3" font-family="Times,serif" font-size="14.00">path (2)</text>
</g>
<!-- v11&#45;&gt;p6 -->
<g id="edge3" class="edge"><title>v11&#45;&gt;p6</title>
<path fill="none" stroke="black" d="M239.601,-150.421C244.44,-148.168 249.602,-145.899 254.5,-144 305.227,-124.334 320.482,-126.9 371.5,-108 371.595,-107.965 371.691,-107.929 371.786,-107.894"/>
<polygon fill="black" stroke="black" points="372.801,-111.256 380.83,-104.343 370.243,-104.74 372.801,-111.256"/>
</g>
<!-- v15 -->
<g id="node8" class="node"><title>v15</title>
<ellipse fill="none" stroke="black" cx="290.5" cy="-162" rx="27" ry="18"/>
<text text-anchor="middle" x="290.5" y="-158.3" font-family="Times,serif" font-size="14.00">15</text>
</g>
<!-- v16 -->
<g id="node9" class="node"><title>v16</title>
<ellipse fill="none" stroke="black" cx="254.5" cy="-234" rx="27" ry="18"/>
<text text-anchor="middle" x="254.5" y="-230.3" font-family="Times,serif" font-size="14.00">16</text>
</g>
<!-- v16&#45;&gt;v11 -->
<g id="edge6" class="edge"><title>v16&#45;&gt;v11</title>
<path fill="none" stroke="black" d="M246.15,-216.765C241.788,-208.283 236.353,-197.714 231.459,-188.197"/>
<polygon fill="black" stroke="black" points="234.49,-186.439 226.804,-179.147 228.265,-189.641 234.49,-186.439"/>
</g>
<!-- v16&#45;&gt;v15 -->
<g id="edge4" class="edge"><title>v16&#45;&gt;v15</title>
<path fill="none" stroke="black" d="M262.85,-216.765C267.212,-208.283 272.647,-197.714 277.541,-188.197"/>
<polygon fill="black" stroke="black" points="280.735,-189.641 282.196,-179.147 274.51,-186.439 280.735,-189.641"/>
</g>
</g>
</svg>
