<?xml version="1.0" encoding="UTF-8" standalone="no"?>
<!DOCTYPE svg PUBLIC "-//W3C//DTD SVG 1.1//EN"
 "http://www.w3.org/Graphics/SVG/1.1/DTD/svg11.dtd">
<!-- Generated by graphviz version 2.38.0 (20140413.2041)
 -->
<!-- Title: %3 Pages: 1 -->
<svg width="354pt" height="404pt"
 viewBox="0.00 0.00 354.00 404.00" xmlns="http://www.w3.org/2000/svg" xmlns:xlink="http://www.w3.org/1999/xlink">
<g id="graph0" class="graph" transform="scale(1 1) rotate(0) translate(4 400)">
<title>%3</title>
<polygon fill="white" stroke="none" points="-4,4 -4,-400 350,-400 350,4 -4,4"/>
<!-- v0 -->
<g id="node1" class="node"><title>v0</title>
<ellipse fill="none" stroke="black" cx="27" cy="-18" rx="27" ry="18"/>
<text text-anchor="middle" x="27" y="-14.3" font-family="Times,serif" font-size="14.00">0</text>
</g>
<!-- v1 -->
<g id="node2" class="node"><title>v1</title>
<ellipse fill="none" stroke="black" cx="64" cy="-90" rx="27" ry="18"/>
<text text-anchor="middle" x="64" y="-86.3" font-family="Times,serif" font-size="14.00">1</text>
</g>
<!-- v1&#45;&gt;v0 -->
<g id="edge10" class="edge"><title>v1&#45;&gt;v0</title>
<path fill="none" stroke="black" d="M55.4185,-72.7646C50.9354,-64.2831 45.349,-53.7144 40.3186,-44.1974"/>
<polygon fill="black" stroke="black" points="43.3025,-42.3527 35.535,-35.1473 37.1138,-45.6239 43.3025,-42.3527"/>
</g>
<!-- p0 -->
<g id="node4" class="node"><title>p0</title>
<path fill="none" stroke="black" d="M119.5,-36C119.5,-36 84.5,-36 84.5,-36 78.5,-36 72.5,-30 72.5,-24 72.5,-24 72.5,-12 72.5,-12 72.5,-6 78.5,-0 84.5,-0 84.5,-0 119.5,-0 119.5,-0 125.5,-0 131.5,-6 131.5,-12 131.5,-12 131.5,-24 131.5,-24 131.5,-30 125.5,-36 119.5,-36"/>
<text text-anchor="middle" x="102" y="-14.3" font-family="Times,serif" font-size="14.00">path (2)</text>
</g>
<!-- v1&#45;&gt;p0 -->
<g id="edge2" class="edge"><title>v1&#45;&gt;p0</title>
<path fill="none" stroke="black" d="M72.8135,-72.7646C77.2862,-64.5255 82.8281,-54.3166 87.8772,-45.0157"/>
<polygon fill="black" stroke="black" points="91.0092,-46.5823 92.7042,-36.1239 84.8572,-43.2426 91.0092,-46.5823"/>
</g>
<!-- v2 -->
<g id="node3" class="node"><title>v2</title>
<ellipse fill="none" stroke="black" cx="136" cy="-90" rx="27" ry="18"/>
<text text-anchor="middle" x="136" y="-86.3" font-family="Times,serif" font-size="14.00">2</text>
</g>
<!-- v5 -->
<g id="node5" class="node"><title>v5</title>
<ellipse fill="none" stroke="black" cx="211" cy="-234" rx="27" ry="18"/>
<text text-anchor="middle" x="211" y="-230.3" font-family="Times,serif" font-size="14.00">5</text>
</g>
<!-- v7 -->
<g id="node7" class="node"><title>v7</title>
<ellipse fill="none" stroke="black" cx="136" cy="-162" rx="27" ry="18"/>
<text text-anchor="middle" x="136" y="-158.3" font-family="Times,serif" font-size="14.00">7</text>
</g>
<!-- v5&#45;&gt;v7 -->
<g id="edge6" class="edge"><title>v5&#45;&gt;v7</title>
<path fill="none" stroke="black" d="M195.823,-218.834C185.149,-208.872 170.681,-195.369 158.647,-184.137"/>
<polygon fill="black" stroke="black" points="160.854,-181.409 151.155,-177.144 156.077,-186.526 160.854,-181.409"/>
</g>
<!-- p1 -->
<g id="node12" class="node"><title>p1</title>
<path fill="none" stroke="black" d="M228.5,-180C228.5,-180 193.5,-180 193.5,-180 187.5,-180 181.5,-174 181.5,-168 181.5,-168 181.5,-156 181.5,-156 181.5,-150 187.5,-144 193.5,-144 193.5,-144 228.5,-144 228.5,-144 234.5,-144 240.5,-150 240.5,-156 240.5,-156 240.5,-168 240.5,-168 240.5,-174 234.5,-180 228.5,-180"/>
<text text-anchor="middle" x="211" y="-158.3" font-family="Times,serif" font-size="14.00">path (2)</text>
</g>
<!-- v5&#45;&gt;p1 -->
<g id="edge5" class="edge"><title>v5&#45;&gt;p1</title>
<path fill="none" stroke="black" d="M211,-215.697C211,-207.983 211,-198.712 211,-190.112"/>
<polygon fill="black" stroke="black" points="214.5,-190.104 211,-180.104 207.5,-190.104 214.5,-190.104"/>
</g>
<!-- p2 -->
<g id="node13" class="node"><title>p2</title>
<path fill="none" stroke="black" d="M305.5,-180C305.5,-180 270.5,-180 270.5,-180 264.5,-180 258.5,-174 258.5,-168 258.5,-168 258.5,-156 258.5,-156 258.5,-150 264.5,-144 270.5,-144 270.5,-144 305.5,-144 305.5,-144 311.5,-144 317.5,-150 317.5,-156 317.5,-156 317.5,-168 317.5,-168 317.5,-174 311.5,-180 305.5,-180"/>
<text text-anchor="middle" x="288" y="-158.3" font-family="Times,serif" font-size="14.00">path (2)</text>
</g>
<!-- v5&#45;&gt;p2 -->
<g id="edge8" class="edge"><title>v5&#45;&gt;p2</title>
<path fill="none" stroke="black" d="M226.582,-218.834C236.579,-209.746 249.818,-197.71 261.445,-187.141"/>
<polygon fill="black" stroke="black" points="264.131,-189.429 269.176,-180.113 259.422,-184.25 264.131,-189.429"/>
</g>
<!-- v6 -->
<g id="node6" class="node"><title>v6</title>
<ellipse fill="none" stroke="black" cx="208" cy="-90" rx="27" ry="18"/>
<text text-anchor="middle" x="208" y="-86.3" font-family="Times,serif" font-size="14.00">6</text>
</g>
<!-- v7&#45;&gt;v1 -->
<g id="edge3" class="edge"><title>v7&#45;&gt;v1</title>
<path fill="none" stroke="black" d="M121.43,-146.834C111.25,-136.938 97.4761,-123.546 85.9694,-112.359"/>
<polygon fill="black" stroke="black" points="88.4055,-109.846 78.7957,-105.385 83.5259,-114.865 88.4055,-109.846"/>
</g>
<!-- v7&#45;&gt;v2 -->
<g id="edge12" class="edge"><title>v7&#45;&gt;v2</title>
<path fill="none" stroke="black" d="M136,-143.697C136,-135.983 136,-126.712 136,-118.112"/>
<polygon fill="black" stroke="black" points="139.5,-118.104 136,-108.104 132.5,-118.104 139.5,-118.104"/>
</g>
<!-- v7&#45;&gt;v6 -->
<g id="edge11" class="edge"><title>v7&#45;&gt;v6</title>
<path fill="none" stroke="black" d="M150.57,-146.834C160.75,-136.938 174.524,-123.546 186.031,-112.359"/>
<polygon fill="black" stroke="black" points="188.474,-114.865 193.204,-105.385 183.595,-109.846 188.474,-114.865"/>
</g>
<!-- v8 -->
<g id="node8" class="node"><title>v8</title>
<ellipse fill="none" stroke="black" cx="247" cy="-306" rx="27" ry="18"/>
<text text-anchor="middle" x="247" y="-302.3" font-family="Times,serif" font-size="14.00">8</text>
</g>
<!-- v8&#45;&gt;v5 -->
<g id="edge4" class="edge"><title>v8&#45;&gt;v5</title>
<path fill="none" stroke="black" d="M238.65,-288.765C234.288,-280.283 228.853,-269.714 223.959,-260.197"/>
<polygon fill="black" stroke="black" points="226.99,-258.439 219.304,-251.147 220.765,-261.641 226.99,-258.439"/>
</g>
<!-- v11 -->
<g id="node11" class="node"><title>v11</title>
<ellipse fill="none" stroke="black" cx="283" cy="-234" rx="27" ry="18"/>
<text text-anchor="middle" x="283" y="-230.3" font-family="Times,serif" font-size="14.00">11</text>
</g>
<!-- v8&#45;&gt;v11 -->
<g id="edge9" class="edge"><title>v8&#45;&gt;v11</title>
<path fill="none" stroke="black" d="M255.35,-288.765C259.712,-280.283 265.147,-269.714 270.041,-260.197"/>
<polygon fill="black" stroke="black" points="273.235,-261.641 274.696,-251.147 267.01,-258.439 273.235,-261.641"/>
</g>
<!-- v9 -->
<g id="node9" class="node"><title>v9</title>
<ellipse fill="none" stroke="black" cx="283" cy="-378" rx="27" ry="18"/>
<text text-anchor="middle" x="283" y="-374.3" font-family="Times,serif" font-size="14.00">9</text>
</g>
<!-- v9&#45;&gt;v8 -->
<g id="edge7" class="edge"><title>v9&#45;&gt;v8</title>
<path fill="none" stroke="black" d="M274.65,-360.765C270.288,-352.283 264.853,-341.714 259.959,-332.197"/>
<polygon fill="black" stroke="black" points="262.99,-330.439 255.304,-323.147 256.765,-333.641 262.99,-330.439"/>
</g>
<!-- v10 -->
<g id="node10" class="node"><title>v10</title>
<ellipse fill="none" stroke="black" cx="319" cy="-306" rx="27" ry="18"/>
<text text-anchor="middle" x="319" y="-302.3" font-family="Times,serif" font-size="14.00">10</text>
</g>
<!-- v9&#45;&gt;v10 -->
<g id="edge1" class="edge"><title>v9&#45;&gt;v10</title>
<path fill="none" stroke="black" d="M291.35,-360.765C295.712,-352.283 301.147,-341.714 306.041,-332.197"/>
<polygon fill="black" stroke="black" points="309.235,-333.641 310.696,-323.147 303.01,-330.439 309.235,-333.641"/>
</g>
</g>
</svg>
