<?xml version="1.0" encoding="UTF-8" standalone="no"?>
<!DOCTYPE svg PUBLIC "-//W3C//DTD SVG 1.1//EN"
 "http://www.w3.org/Graphics/SVG/1.1/DTD/svg11.dtd">
<!-- Generated by graphviz version 2.38.0 (20140413.2041)
 -->
<!-- Title: %3 Pages: 1 -->
<svg width="1037pt" height="332pt"
 viewBox="0.00 0.00 1037.00 332.00" xmlns="http://www.w3.org/2000/svg" xmlns:xlink="http://www.w3.org/1999/xlink">
<g id="graph0" class="graph" transform="scale(1 1) rotate(0) translate(4 328)">
<title>%3</title>
<polygon fill="white" stroke="none" points="-4,4 -4,-328 1033,-328 1033,4 -4,4"/>
<!-- v0 -->
<g id="node1" class="node"><title>v0</title>
<ellipse fill="none" stroke="black" cx="731.5" cy="-90" rx="27" ry="18"/>
<text text-anchor="middle" x="731.5" y="-86.3" font-family="Times,serif" font-size="14.00">0</text>
</g>
<!-- v1 -->
<g id="node2" class="node"><title>v1</title>
<ellipse fill="none" stroke="black" cx="398.5" cy="-18" rx="27" ry="18"/>
<text text-anchor="middle" x="398.5" y="-14.3" font-family="Times,serif" font-size="14.00">1</text>
</g>
<!-- v0&#45;&gt;v1 -->
<g id="edge24" class="edge"><title>v0&#45;&gt;v1</title>
<path fill="none" stroke="black" d="M704.71,-86.6151C651.95,-81.399 531.303,-66.8896 434.5,-36 432.574,-35.3854 430.618,-34.6893 428.664,-33.9384"/>
<polygon fill="black" stroke="black" points="429.633,-30.5469 419.061,-29.8501 426.891,-36.9875 429.633,-30.5469"/>
</g>
<!-- v2 -->
<g id="node3" class="node"><title>v2</title>
<ellipse fill="none" stroke="black" cx="470.5" cy="-18" rx="27" ry="18"/>
<text text-anchor="middle" x="470.5" y="-14.3" font-family="Times,serif" font-size="14.00">2</text>
</g>
<!-- v0&#45;&gt;v2 -->
<g id="edge34" class="edge"><title>v0&#45;&gt;v2</title>
<path fill="none" stroke="black" d="M705.499,-84.5838C663.256,-77.0255 577.405,-60.0626 507.5,-36 505.382,-35.2709 503.221,-34.4619 501.061,-33.6038"/>
<polygon fill="black" stroke="black" points="502.298,-30.3264 491.727,-29.6242 499.553,-36.7657 502.298,-30.3264"/>
</g>
<!-- p0 -->
<g id="node4" class="node"><title>p0</title>
<path fill="none" stroke="black" d="M563,-36C563,-36 528,-36 528,-36 522,-36 516,-30 516,-24 516,-24 516,-12 516,-12 516,-6 522,-0 528,-0 528,-0 563,-0 563,-0 569,-0 575,-6 575,-12 575,-12 575,-24 575,-24 575,-30 569,-36 563,-36"/>
<text text-anchor="middle" x="545.5" y="-14.3" font-family="Times,serif" font-size="14.00">path (2)</text>
</g>
<!-- v0&#45;&gt;p0 -->
<g id="edge5" class="edge"><title>v0&#45;&gt;p0</title>
<path fill="none" stroke="black" d="M707.901,-81.0215C678.714,-71.0328 627.606,-53.1447 584.5,-36 584.406,-35.9625 584.311,-35.9248 584.217,-35.8871"/>
<polygon fill="black" stroke="black" points="585.807,-32.7566 575.227,-32.195 583.147,-39.2318 585.807,-32.7566"/>
</g>
<!-- p1 -->
<g id="node5" class="node"><title>p1</title>
<path fill="none" stroke="black" d="M640,-36C640,-36 605,-36 605,-36 599,-36 593,-30 593,-24 593,-24 593,-12 593,-12 593,-6 599,-0 605,-0 605,-0 640,-0 640,-0 646,-0 652,-6 652,-12 652,-12 652,-24 652,-24 652,-30 646,-36 640,-36"/>
<text text-anchor="middle" x="622.5" y="-14.3" font-family="Times,serif" font-size="14.00">path (2)</text>
</g>
<!-- v0&#45;&gt;p1 -->
<g id="edge19" class="edge"><title>v0&#45;&gt;p1</title>
<path fill="none" stroke="black" d="M712.514,-76.8069C697.417,-67.1121 675.882,-53.2823 657.661,-41.5805"/>
<polygon fill="black" stroke="black" points="659.331,-38.4931 649.025,-36.0344 655.548,-44.3831 659.331,-38.4931"/>
</g>
<!-- p2 -->
<g id="node6" class="node"><title>p2</title>
<path fill="none" stroke="black" d="M717,-36C717,-36 682,-36 682,-36 676,-36 670,-30 670,-24 670,-24 670,-12 670,-12 670,-6 676,-0 682,-0 682,-0 717,-0 717,-0 723,-0 729,-6 729,-12 729,-12 729,-24 729,-24 729,-30 723,-36 717,-36"/>
<text text-anchor="middle" x="699.5" y="-14.3" font-family="Times,serif" font-size="14.00">path (3)</text>
</g>
<!-- v0&#45;&gt;p2 -->
<g id="edge14" class="edge"><title>v0&#45;&gt;p2</title>
<path fill="none" stroke="black" d="M723.916,-72.411C720.279,-64.4539 715.83,-54.7221 711.731,-45.7557"/>
<polygon fill="black" stroke="black" points="714.816,-44.0864 707.476,-36.4468 708.45,-46.9967 714.816,-44.0864"/>
</g>
<!-- v6 -->
<g id="node7" class="node"><title>v6</title>
<ellipse fill="none" stroke="black" cx="774.5" cy="-18" rx="27" ry="18"/>
<text text-anchor="middle" x="774.5" y="-14.3" font-family="Times,serif" font-size="14.00">6</text>
</g>
<!-- v0&#45;&gt;v6 -->
<g id="edge29" class="edge"><title>v0&#45;&gt;v6</title>
<path fill="none" stroke="black" d="M736.031,-72.055C740.675,-62.9168 747.516,-51.5174 754.238,-41.6297"/>
<polygon fill="black" stroke="black" points="757.128,-43.6063 760.057,-33.4245 751.417,-39.5573 757.128,-43.6063"/>
</g>
<!-- p3 -->
<g id="node8" class="node"><title>p3</title>
<path fill="none" stroke="black" d="M867,-36C867,-36 832,-36 832,-36 826,-36 820,-30 820,-24 820,-24 820,-12 820,-12 820,-6 826,-0 832,-0 832,-0 867,-0 867,-0 873,-0 879,-6 879,-12 879,-12 879,-24 879,-24 879,-30 873,-36 867,-36"/>
<text text-anchor="middle" x="849.5" y="-14.3" font-family="Times,serif" font-size="14.00">path (2)</text>
</g>
<!-- v0&#45;&gt;p3 -->
<g id="edge23" class="edge"><title>v0&#45;&gt;p3</title>
<path fill="none" stroke="black" d="M750.985,-77.4409C767.522,-67.6313 791.722,-53.275 811.998,-41.2467"/>
<polygon fill="black" stroke="black" points="813.89,-44.1942 820.705,-36.082 810.318,-38.1738 813.89,-44.1942"/>
</g>
<!-- v9 -->
<g id="node9" class="node"><title>v9</title>
<ellipse fill="none" stroke="black" cx="924.5" cy="-18" rx="27" ry="18"/>
<text text-anchor="middle" x="924.5" y="-14.3" font-family="Times,serif" font-size="14.00">9</text>
</g>
<!-- v0&#45;&gt;v9 -->
<g id="edge31" class="edge"><title>v0&#45;&gt;v9</title>
<path fill="none" stroke="black" d="M755.754,-81.7695C786.872,-72.2754 842.344,-54.6161 888.5,-36 890.327,-35.2632 892.193,-34.4797 894.067,-33.6691"/>
<polygon fill="black" stroke="black" points="895.682,-36.7807 903.36,-29.4805 892.805,-30.399 895.682,-36.7807"/>
</g>
<!-- p11 -->
<g id="node33" class="node"><title>p11</title>
<path fill="none" stroke="black" d="M1017,-36C1017,-36 982,-36 982,-36 976,-36 970,-30 970,-24 970,-24 970,-12 970,-12 970,-6 976,-0 982,-0 982,-0 1017,-0 1017,-0 1023,-0 1029,-6 1029,-12 1029,-12 1029,-24 1029,-24 1029,-30 1023,-36 1017,-36"/>
<text text-anchor="middle" x="999.5" y="-14.3" font-family="Times,serif" font-size="14.00">path (3)</text>
</g>
<!-- v0&#45;&gt;p11 -->
<g id="edge13" class="edge"><title>v0&#45;&gt;p11</title>
<path fill="none" stroke="black" d="M757.337,-84.6225C800.201,-77.0062 888.433,-59.8224 960.5,-36 960.596,-35.9681 960.693,-35.9361 960.79,-35.9039"/>
<polygon fill="black" stroke="black" points="961.72,-39.2905 969.909,-32.5675 959.315,-32.7166 961.72,-39.2905"/>
</g>
<!-- v6&#45;&gt;v0 -->
<g id="edge18" class="edge"><title>v6&#45;&gt;v0</title>
<path fill="none" stroke="black" d="M769.966,-35.9506C765.333,-45.0667 758.514,-56.4318 751.808,-66.3016"/>
<polygon fill="black" stroke="black" points="748.928,-64.313 746.002,-74.496 754.639,-68.3598 748.928,-64.313"/>
</g>
<!-- p4 -->
<g id="node10" class="node"><title>p4</title>
<path fill="none" stroke="black" d="M47,-252C47,-252 12,-252 12,-252 6,-252 0,-246 0,-240 0,-240 0,-228 0,-228 0,-222 6,-216 12,-216 12,-216 47,-216 47,-216 53,-216 59,-222 59,-228 59,-228 59,-240 59,-240 59,-246 53,-252 47,-252"/>
<text text-anchor="middle" x="29.5" y="-230.3" font-family="Times,serif" font-size="14.00">path (2)</text>
</g>
<!-- v14 -->
<g id="node11" class="node"><title>v14</title>
<ellipse fill="none" stroke="black" cx="104.5" cy="-234" rx="27" ry="18"/>
<text text-anchor="middle" x="104.5" y="-230.3" font-family="Times,serif" font-size="14.00">14</text>
</g>
<!-- p5 -->
<g id="node12" class="node"><title>p5</title>
<path fill="none" stroke="black" d="M84,-180C84,-180 49,-180 49,-180 43,-180 37,-174 37,-168 37,-168 37,-156 37,-156 37,-150 43,-144 49,-144 49,-144 84,-144 84,-144 90,-144 96,-150 96,-156 96,-156 96,-168 96,-168 96,-174 90,-180 84,-180"/>
<text text-anchor="middle" x="66.5" y="-158.3" font-family="Times,serif" font-size="14.00">path (2)</text>
</g>
<!-- v14&#45;&gt;p5 -->
<g id="edge20" class="edge"><title>v14&#45;&gt;p5</title>
<path fill="none" stroke="black" d="M95.6865,-216.765C91.2138,-208.525 85.6719,-198.317 80.6228,-189.016"/>
<polygon fill="black" stroke="black" points="83.6428,-187.243 75.7958,-180.124 77.4908,-190.582 83.6428,-187.243"/>
</g>
<!-- v21 -->
<g id="node16" class="node"><title>v21</title>
<ellipse fill="none" stroke="black" cx="141.5" cy="-162" rx="27" ry="18"/>
<text text-anchor="middle" x="141.5" y="-158.3" font-family="Times,serif" font-size="14.00">21</text>
</g>
<!-- v14&#45;&gt;v21 -->
<g id="edge30" class="edge"><title>v14&#45;&gt;v21</title>
<path fill="none" stroke="black" d="M113.082,-216.765C117.565,-208.283 123.151,-197.714 128.181,-188.197"/>
<polygon fill="black" stroke="black" points="131.386,-189.624 132.965,-179.147 125.198,-186.353 131.386,-189.624"/>
</g>
<!-- p6 -->
<g id="node13" class="node"><title>p6</title>
<path fill="none" stroke="black" d="M197,-252C197,-252 162,-252 162,-252 156,-252 150,-246 150,-240 150,-240 150,-228 150,-228 150,-222 156,-216 162,-216 162,-216 197,-216 197,-216 203,-216 209,-222 209,-228 209,-228 209,-240 209,-240 209,-246 203,-252 197,-252"/>
<text text-anchor="middle" x="179.5" y="-230.3" font-family="Times,serif" font-size="14.00">path (4)</text>
</g>
<!-- v17 -->
<g id="node14" class="node"><title>v17</title>
<ellipse fill="none" stroke="black" cx="326.5" cy="-306" rx="27" ry="18"/>
<text text-anchor="middle" x="326.5" y="-302.3" font-family="Times,serif" font-size="14.00">17</text>
</g>
<!-- v17&#45;&gt;p4 -->
<g id="edge22" class="edge"><title>v17&#45;&gt;p4</title>
<path fill="none" stroke="black" d="M300.039,-301.427C252.786,-294.639 151.105,-278.173 68.5,-252 68.4032,-251.969 68.3063,-251.938 68.2093,-251.907"/>
<polygon fill="black" stroke="black" points="69.6604,-248.709 59.0658,-248.646 67.3089,-255.302 69.6604,-248.709"/>
</g>
<!-- v17&#45;&gt;v14 -->
<g id="edge16" class="edge"><title>v17&#45;&gt;v14</title>
<path fill="none" stroke="black" d="M301.411,-299.237C265.282,-290.628 196.763,-273.138 140.5,-252 138.656,-251.307 136.776,-250.558 134.892,-249.773"/>
<polygon fill="black" stroke="black" points="136.134,-246.496 125.572,-245.655 133.304,-252.898 136.134,-246.496"/>
</g>
<!-- v17&#45;&gt;p6 -->
<g id="edge9" class="edge"><title>v17&#45;&gt;p6</title>
<path fill="none" stroke="black" d="M305.125,-294.821C282.375,-283.988 245.897,-266.618 218.097,-253.379"/>
<polygon fill="black" stroke="black" points="219.567,-250.203 209.034,-249.064 216.557,-256.523 219.567,-250.203"/>
</g>
<!-- v18 -->
<g id="node15" class="node"><title>v18</title>
<ellipse fill="none" stroke="black" cx="254.5" cy="-234" rx="27" ry="18"/>
<text text-anchor="middle" x="254.5" y="-230.3" font-family="Times,serif" font-size="14.00">18</text>
</g>
<!-- v17&#45;&gt;v18 -->
<g id="edge17" class="edge"><title>v17&#45;&gt;v18</title>
<path fill="none" stroke="black" d="M311.93,-290.834C301.75,-280.938 287.976,-267.546 276.469,-256.359"/>
<polygon fill="black" stroke="black" points="278.905,-253.846 269.296,-249.385 274.026,-258.865 278.905,-253.846"/>
</g>
<!-- v22 -->
<g id="node17" class="node"><title>v22</title>
<ellipse fill="none" stroke="black" cx="326.5" cy="-234" rx="27" ry="18"/>
<text text-anchor="middle" x="326.5" y="-230.3" font-family="Times,serif" font-size="14.00">22</text>
</g>
<!-- v17&#45;&gt;v22 -->
<g id="edge32" class="edge"><title>v17&#45;&gt;v22</title>
<path fill="none" stroke="black" d="M326.5,-287.697C326.5,-279.983 326.5,-270.712 326.5,-262.112"/>
<polygon fill="black" stroke="black" points="330,-262.104 326.5,-252.104 323,-262.104 330,-262.104"/>
</g>
<!-- p7 -->
<g id="node18" class="node"><title>p7</title>
<path fill="none" stroke="black" d="M419,-252C419,-252 384,-252 384,-252 378,-252 372,-246 372,-240 372,-240 372,-228 372,-228 372,-222 378,-216 384,-216 384,-216 419,-216 419,-216 425,-216 431,-222 431,-228 431,-228 431,-240 431,-240 431,-246 425,-252 419,-252"/>
<text text-anchor="middle" x="401.5" y="-230.3" font-family="Times,serif" font-size="14.00">path (3)</text>
</g>
<!-- v17&#45;&gt;p7 -->
<g id="edge15" class="edge"><title>v17&#45;&gt;p7</title>
<path fill="none" stroke="black" d="M341.677,-290.834C351.415,-281.746 364.31,-269.71 375.634,-259.141"/>
<polygon fill="black" stroke="black" points="378.242,-261.495 383.165,-252.113 373.466,-256.377 378.242,-261.495"/>
</g>
<!-- v27 -->
<g id="node21" class="node"><title>v27</title>
<ellipse fill="none" stroke="black" cx="476.5" cy="-234" rx="27" ry="18"/>
<text text-anchor="middle" x="476.5" y="-230.3" font-family="Times,serif" font-size="14.00">27</text>
</g>
<!-- v17&#45;&gt;v27 -->
<g id="edge2" class="edge"><title>v17&#45;&gt;v27</title>
<path fill="none" stroke="black" d="M348.373,-294.878C371.336,-284.241 408.482,-267.002 440.5,-252 442.284,-251.164 444.117,-250.304 445.965,-249.435"/>
<polygon fill="black" stroke="black" points="447.635,-252.517 455.19,-245.089 444.652,-246.185 447.635,-252.517"/>
</g>
<!-- v29 -->
<g id="node23" class="node"><title>v29</title>
<ellipse fill="none" stroke="black" cx="584.5" cy="-234" rx="27" ry="18"/>
<text text-anchor="middle" x="584.5" y="-230.3" font-family="Times,serif" font-size="14.00">29</text>
</g>
<!-- v17&#45;&gt;v29 -->
<g id="edge3" class="edge"><title>v17&#45;&gt;v29</title>
<path fill="none" stroke="black" d="M351.238,-298.288C397.47,-285.744 497.067,-258.722 549.919,-244.382"/>
<polygon fill="black" stroke="black" points="551.102,-247.688 559.837,-241.692 549.269,-240.932 551.102,-247.688"/>
</g>
<!-- v30 -->
<g id="node24" class="node"><title>v30</title>
<ellipse fill="none" stroke="black" cx="656.5" cy="-234" rx="27" ry="18"/>
<text text-anchor="middle" x="656.5" y="-230.3" font-family="Times,serif" font-size="14.00">30</text>
</g>
<!-- v17&#45;&gt;v30 -->
<g id="edge27" class="edge"><title>v17&#45;&gt;v30</title>
<path fill="none" stroke="black" d="M353.018,-302.577C405.245,-297.294 524.672,-282.672 620.5,-252 622.425,-251.384 624.381,-250.686 626.334,-249.934"/>
<polygon fill="black" stroke="black" points="628.109,-252.983 635.937,-245.844 625.365,-246.543 628.109,-252.983"/>
</g>
<!-- v40 -->
<g id="node30" class="node"><title>v40</title>
<ellipse fill="none" stroke="black" cx="290.5" cy="-162" rx="27" ry="18"/>
<text text-anchor="middle" x="290.5" y="-158.3" font-family="Times,serif" font-size="14.00">40</text>
</g>
<!-- v22&#45;&gt;v40 -->
<g id="edge7" class="edge"><title>v22&#45;&gt;v40</title>
<path fill="none" stroke="black" d="M318.15,-216.765C313.788,-208.283 308.353,-197.714 303.459,-188.197"/>
<polygon fill="black" stroke="black" points="306.49,-186.439 298.804,-179.147 300.265,-189.641 306.49,-186.439"/>
</g>
<!-- p8 -->
<g id="node19" class="node"><title>p8</title>
<path fill="none" stroke="black" d="M383,-180C383,-180 348,-180 348,-180 342,-180 336,-174 336,-168 336,-168 336,-156 336,-156 336,-150 342,-144 348,-144 348,-144 383,-144 383,-144 389,-144 395,-150 395,-156 395,-156 395,-168 395,-168 395,-174 389,-180 383,-180"/>
<text text-anchor="middle" x="365.5" y="-158.3" font-family="Times,serif" font-size="14.00">path (7)</text>
</g>
<!-- v26 -->
<g id="node20" class="node"><title>v26</title>
<ellipse fill="none" stroke="black" cx="440.5" cy="-162" rx="27" ry="18"/>
<text text-anchor="middle" x="440.5" y="-158.3" font-family="Times,serif" font-size="14.00">26</text>
</g>
<!-- v27&#45;&gt;p8 -->
<g id="edge33" class="edge"><title>v27&#45;&gt;p8</title>
<path fill="none" stroke="black" d="M457.418,-220.967C442.007,-211.248 419.889,-197.299 401.211,-185.52"/>
<polygon fill="black" stroke="black" points="402.961,-182.486 392.636,-180.113 399.227,-188.407 402.961,-182.486"/>
</g>
<!-- v27&#45;&gt;v26 -->
<g id="edge1" class="edge"><title>v27&#45;&gt;v26</title>
<path fill="none" stroke="black" d="M468.15,-216.765C463.788,-208.283 458.353,-197.714 453.459,-188.197"/>
<polygon fill="black" stroke="black" points="456.49,-186.439 448.804,-179.147 450.265,-189.641 456.49,-186.439"/>
</g>
<!-- v33 -->
<g id="node27" class="node"><title>v33</title>
<ellipse fill="none" stroke="black" cx="512.5" cy="-162" rx="27" ry="18"/>
<text text-anchor="middle" x="512.5" y="-158.3" font-family="Times,serif" font-size="14.00">33</text>
</g>
<!-- v27&#45;&gt;v33 -->
<g id="edge10" class="edge"><title>v27&#45;&gt;v33</title>
<path fill="none" stroke="black" d="M484.85,-216.765C489.212,-208.283 494.647,-197.714 499.541,-188.197"/>
<polygon fill="black" stroke="black" points="502.735,-189.641 504.196,-179.147 496.51,-186.439 502.735,-189.641"/>
</g>
<!-- v28 -->
<g id="node22" class="node"><title>v28</title>
<ellipse fill="none" stroke="black" cx="584.5" cy="-162" rx="27" ry="18"/>
<text text-anchor="middle" x="584.5" y="-158.3" font-family="Times,serif" font-size="14.00">28</text>
</g>
<!-- v29&#45;&gt;v28 -->
<g id="edge4" class="edge"><title>v29&#45;&gt;v28</title>
<path fill="none" stroke="black" d="M584.5,-215.697C584.5,-207.983 584.5,-198.712 584.5,-190.112"/>
<polygon fill="black" stroke="black" points="588,-190.104 584.5,-180.104 581,-190.104 588,-190.104"/>
</g>
<!-- v31 -->
<g id="node25" class="node"><title>v31</title>
<ellipse fill="none" stroke="black" cx="656.5" cy="-162" rx="27" ry="18"/>
<text text-anchor="middle" x="656.5" y="-158.3" font-family="Times,serif" font-size="14.00">31</text>
</g>
<!-- v29&#45;&gt;v31 -->
<g id="edge12" class="edge"><title>v29&#45;&gt;v31</title>
<path fill="none" stroke="black" d="M599.07,-218.834C609.25,-208.938 623.024,-195.546 634.531,-184.359"/>
<polygon fill="black" stroke="black" points="636.974,-186.865 641.704,-177.385 632.095,-181.846 636.974,-186.865"/>
</g>
<!-- p9 -->
<g id="node26" class="node"><title>p9</title>
<path fill="none" stroke="black" d="M749,-180C749,-180 714,-180 714,-180 708,-180 702,-174 702,-168 702,-168 702,-156 702,-156 702,-150 708,-144 714,-144 714,-144 749,-144 749,-144 755,-144 761,-150 761,-156 761,-156 761,-168 761,-168 761,-174 755,-180 749,-180"/>
<text text-anchor="middle" x="731.5" y="-158.3" font-family="Times,serif" font-size="14.00">path (2)</text>
</g>
<!-- v29&#45;&gt;p9 -->
<g id="edge28" class="edge"><title>v29&#45;&gt;p9</title>
<path fill="none" stroke="black" d="M605.875,-222.821C628.625,-211.988 665.103,-194.618 692.903,-181.379"/>
<polygon fill="black" stroke="black" points="694.443,-184.523 701.966,-177.064 691.433,-178.203 694.443,-184.523"/>
</g>
<!-- p9&#45;&gt;v0 -->
<g id="edge11" class="edge"><title>p9&#45;&gt;v0</title>
<path fill="none" stroke="black" d="M731.5,-143.697C731.5,-135.983 731.5,-126.712 731.5,-118.112"/>
<polygon fill="black" stroke="black" points="735,-118.104 731.5,-108.104 728,-118.104 735,-118.104"/>
</g>
<!-- v38 -->
<g id="node28" class="node"><title>v38</title>
<ellipse fill="none" stroke="black" cx="232.5" cy="-18" rx="27" ry="18"/>
<text text-anchor="middle" x="232.5" y="-14.3" font-family="Times,serif" font-size="14.00">38</text>
</g>
<!-- v39 -->
<g id="node29" class="node"><title>v39</title>
<ellipse fill="none" stroke="black" cx="290.5" cy="-90" rx="27" ry="18"/>
<text text-anchor="middle" x="290.5" y="-86.3" font-family="Times,serif" font-size="14.00">39</text>
</g>
<!-- v39&#45;&gt;v38 -->
<g id="edge26" class="edge"><title>v39&#45;&gt;v38</title>
<path fill="none" stroke="black" d="M277.915,-73.811C270.238,-64.5464 260.274,-52.5203 251.635,-42.0944"/>
<polygon fill="black" stroke="black" points="254.136,-39.6265 245.061,-34.1593 248.746,-44.0926 254.136,-39.6265"/>
</g>
<!-- v39&#45;&gt;v40 -->
<g id="edge25" class="edge"><title>v39&#45;&gt;v40</title>
<path fill="none" stroke="black" d="M296.379,-107.956C297.214,-115.827 297.448,-125.374 297.083,-134.187"/>
<polygon fill="black" stroke="black" points="293.574,-134.184 296.34,-144.411 300.556,-134.691 293.574,-134.184"/>
</g>
<!-- p10 -->
<g id="node32" class="node"><title>p10</title>
<path fill="none" stroke="black" d="M325,-36C325,-36 290,-36 290,-36 284,-36 278,-30 278,-24 278,-24 278,-12 278,-12 278,-6 284,-0 290,-0 290,-0 325,-0 325,-0 331,-0 337,-6 337,-12 337,-12 337,-24 337,-24 337,-30 331,-36 325,-36"/>
<text text-anchor="middle" x="307.5" y="-14.3" font-family="Times,serif" font-size="14.00">path (2)</text>
</g>
<!-- v39&#45;&gt;p10 -->
<g id="edge8" class="edge"><title>v39&#45;&gt;p10</title>
<path fill="none" stroke="black" d="M294.615,-72.055C296.508,-64.2609 298.8,-54.8219 300.924,-46.0789"/>
<polygon fill="black" stroke="black" points="304.346,-46.8189 303.305,-36.2753 297.543,-45.1668 304.346,-46.8189"/>
</g>
<!-- v40&#45;&gt;v39 -->
<g id="edge21" class="edge"><title>v40&#45;&gt;v39</title>
<path fill="none" stroke="black" d="M284.66,-144.411C283.797,-136.507 283.548,-126.852 283.912,-117.935"/>
<polygon fill="black" stroke="black" points="287.403,-118.179 284.621,-107.956 280.421,-117.683 287.403,-118.179"/>
</g>
<!-- v41 -->
<g id="node31" class="node"><title>v41</title>
<ellipse fill="none" stroke="black" cx="362.5" cy="-90" rx="27" ry="18"/>
<text text-anchor="middle" x="362.5" y="-86.3" font-family="Times,serif" font-size="14.00">41</text>
</g>
<!-- v40&#45;&gt;v41 -->
<g id="edge6" class="edge"><title>v40&#45;&gt;v41</title>
<path fill="none" stroke="black" d="M305.07,-146.834C315.25,-136.938 329.024,-123.546 340.531,-112.359"/>
<polygon fill="black" stroke="black" points="342.974,-114.865 347.704,-105.385 338.095,-109.846 342.974,-114.865"/>
</g>
</g>
</svg>
