<?xml version="1.0" encoding="UTF-8" standalone="no"?>
<!DOCTYPE svg PUBLIC "-//W3C//DTD SVG 1.1//EN"
 "http://www.w3.org/Graphics/SVG/1.1/DTD/svg11.dtd">
<!-- Generated by graphviz version 2.38.0 (20140413.2041)
 -->
<!-- Title: %3 Pages: 1 -->
<svg width="1423pt" height="404pt"
 viewBox="0.00 0.00 1423.00 404.00" xmlns="http://www.w3.org/2000/svg" xmlns:xlink="http://www.w3.org/1999/xlink">
<g id="graph0" class="graph" transform="scale(1 1) rotate(0) translate(4 400)">
<title>%3</title>
<polygon fill="white" stroke="none" points="-4,4 -4,-400 1419,-400 1419,4 -4,4"/>
<!-- v0 -->
<g id="node1" class="node"><title>v0</title>
<ellipse fill="none" stroke="black" cx="788.5" cy="-90" rx="27" ry="18"/>
<text text-anchor="middle" x="788.5" y="-86.3" font-family="Times,serif" font-size="14.00">0</text>
</g>
<!-- p0 -->
<g id="node2" class="node"><title>p0</title>
<path fill="none" stroke="black" d="M806,-36C806,-36 771,-36 771,-36 765,-36 759,-30 759,-24 759,-24 759,-12 759,-12 759,-6 765,-0 771,-0 771,-0 806,-0 806,-0 812,-0 818,-6 818,-12 818,-12 818,-24 818,-24 818,-30 812,-36 806,-36"/>
<text text-anchor="middle" x="788.5" y="-14.3" font-family="Times,serif" font-size="14.00">path (4)</text>
</g>
<!-- v0&#45;&gt;p0 -->
<g id="edge35" class="edge"><title>v0&#45;&gt;p0</title>
<path fill="none" stroke="black" d="M788.5,-71.6966C788.5,-63.9827 788.5,-54.7125 788.5,-46.1124"/>
<polygon fill="black" stroke="black" points="792,-46.1043 788.5,-36.1043 785,-46.1044 792,-46.1043"/>
</g>
<!-- p1 -->
<g id="node3" class="node"><title>p1</title>
<path fill="none" stroke="black" d="M729,-36C729,-36 694,-36 694,-36 688,-36 682,-30 682,-24 682,-24 682,-12 682,-12 682,-6 688,-0 694,-0 694,-0 729,-0 729,-0 735,-0 741,-6 741,-12 741,-12 741,-24 741,-24 741,-30 735,-36 729,-36"/>
<text text-anchor="middle" x="711.5" y="-14.3" font-family="Times,serif" font-size="14.00">path (2)</text>
</g>
<!-- v0&#45;&gt;p1 -->
<g id="edge45" class="edge"><title>v0&#45;&gt;p1</title>
<path fill="none" stroke="black" d="M772.918,-74.8345C762.921,-65.7459 749.682,-53.7105 738.055,-43.1413"/>
<polygon fill="black" stroke="black" points="740.078,-40.2497 730.324,-36.1127 735.369,-45.4293 740.078,-40.2497"/>
</g>
<!-- p2 -->
<g id="node4" class="node"><title>p2</title>
<path fill="none" stroke="black" d="M809,-252C809,-252 774,-252 774,-252 768,-252 762,-246 762,-240 762,-240 762,-228 762,-228 762,-222 768,-216 774,-216 774,-216 809,-216 809,-216 815,-216 821,-222 821,-228 821,-228 821,-240 821,-240 821,-246 815,-252 809,-252"/>
<text text-anchor="middle" x="791.5" y="-230.3" font-family="Times,serif" font-size="14.00">path (3)</text>
</g>
<!-- v6 -->
<g id="node6" class="node"><title>v6</title>
<ellipse fill="none" stroke="black" cx="716.5" cy="-162" rx="27" ry="18"/>
<text text-anchor="middle" x="716.5" y="-158.3" font-family="Times,serif" font-size="14.00">6</text>
</g>
<!-- p2&#45;&gt;v6 -->
<g id="edge36" class="edge"><title>p2&#45;&gt;v6</title>
<path fill="none" stroke="black" d="M772.961,-215.697C762.768,-206.184 750.04,-194.304 739.249,-184.233"/>
<polygon fill="black" stroke="black" points="741.498,-181.543 731.799,-177.279 736.721,-186.661 741.498,-181.543"/>
</g>
<!-- v5 -->
<g id="node5" class="node"><title>v5</title>
<ellipse fill="none" stroke="black" cx="716.5" cy="-90" rx="27" ry="18"/>
<text text-anchor="middle" x="716.5" y="-86.3" font-family="Times,serif" font-size="14.00">5</text>
</g>
<!-- v6&#45;&gt;v5 -->
<g id="edge34" class="edge"><title>v6&#45;&gt;v5</title>
<path fill="none" stroke="black" d="M716.5,-143.697C716.5,-135.983 716.5,-126.712 716.5,-118.112"/>
<polygon fill="black" stroke="black" points="720,-118.104 716.5,-108.104 713,-118.104 720,-118.104"/>
</g>
<!-- v39 -->
<g id="node23" class="node"><title>v39</title>
<ellipse fill="none" stroke="black" cx="644.5" cy="-90" rx="27" ry="18"/>
<text text-anchor="middle" x="644.5" y="-86.3" font-family="Times,serif" font-size="14.00">39</text>
</g>
<!-- v6&#45;&gt;v39 -->
<g id="edge3" class="edge"><title>v6&#45;&gt;v39</title>
<path fill="none" stroke="black" d="M701.93,-146.834C691.75,-136.938 677.976,-123.546 666.469,-112.359"/>
<polygon fill="black" stroke="black" points="668.905,-109.846 659.296,-105.385 664.026,-114.865 668.905,-109.846"/>
</g>
<!-- p3 -->
<g id="node7" class="node"><title>p3</title>
<path fill="none" stroke="black" d="M47,-252C47,-252 12,-252 12,-252 6,-252 0,-246 0,-240 0,-240 0,-228 0,-228 0,-222 6,-216 12,-216 12,-216 47,-216 47,-216 53,-216 59,-222 59,-228 59,-228 59,-240 59,-240 59,-246 53,-252 47,-252"/>
<text text-anchor="middle" x="29.5" y="-230.3" font-family="Times,serif" font-size="14.00">path (2)</text>
</g>
<!-- p4 -->
<g id="node8" class="node"><title>p4</title>
<path fill="none" stroke="black" d="M124,-252C124,-252 89,-252 89,-252 83,-252 77,-246 77,-240 77,-240 77,-228 77,-228 77,-222 83,-216 89,-216 89,-216 124,-216 124,-216 130,-216 136,-222 136,-228 136,-228 136,-240 136,-240 136,-246 130,-252 124,-252"/>
<text text-anchor="middle" x="106.5" y="-230.3" font-family="Times,serif" font-size="14.00">path (2)</text>
</g>
<!-- v10 -->
<g id="node9" class="node"><title>v10</title>
<ellipse fill="none" stroke="black" cx="487.5" cy="-306" rx="27" ry="18"/>
<text text-anchor="middle" x="487.5" y="-302.3" font-family="Times,serif" font-size="14.00">10</text>
</g>
<!-- v10&#45;&gt;p2 -->
<g id="edge30" class="edge"><title>v10&#45;&gt;p2</title>
<path fill="none" stroke="black" d="M514.045,-301.719C560.815,-295.513 660.887,-280.336 752.215,-252.06"/>
<polygon fill="black" stroke="black" points="753.394,-255.358 761.876,-249.009 751.286,-248.683 753.394,-255.358"/>
</g>
<!-- v10&#45;&gt;p3 -->
<g id="edge14" class="edge"><title>v10&#45;&gt;p3</title>
<path fill="none" stroke="black" d="M460.423,-304.333C394.307,-302.132 219.598,-292.849 68.9481,-251.959"/>
<polygon fill="black" stroke="black" points="69.6328,-248.517 59.0613,-249.219 67.7636,-255.262 69.6328,-248.517"/>
</g>
<!-- v10&#45;&gt;p4 -->
<g id="edge22" class="edge"><title>v10&#45;&gt;p4</title>
<path fill="none" stroke="black" d="M460.723,-303.304C403.796,-299.186 266.699,-286.547 145.864,-251.993"/>
<polygon fill="black" stroke="black" points="146.665,-248.58 136.085,-249.137 144.703,-255.3 146.665,-248.58"/>
</g>
<!-- p5 -->
<g id="node10" class="node"><title>p5</title>
<path fill="none" stroke="black" d="M201,-252C201,-252 166,-252 166,-252 160,-252 154,-246 154,-240 154,-240 154,-228 154,-228 154,-222 160,-216 166,-216 166,-216 201,-216 201,-216 207,-216 213,-222 213,-228 213,-228 213,-240 213,-240 213,-246 207,-252 201,-252"/>
<text text-anchor="middle" x="183.5" y="-230.3" font-family="Times,serif" font-size="14.00">path (3)</text>
</g>
<!-- v10&#45;&gt;p5 -->
<g id="edge20" class="edge"><title>v10&#45;&gt;p5</title>
<path fill="none" stroke="black" d="M460.955,-301.719C414.185,-295.513 314.113,-280.336 222.785,-252.06"/>
<polygon fill="black" stroke="black" points="223.714,-248.683 213.124,-249.009 221.606,-255.358 223.714,-248.683"/>
</g>
<!-- p6 -->
<g id="node11" class="node"><title>p6</title>
<path fill="none" stroke="black" d="M278,-252C278,-252 243,-252 243,-252 237,-252 231,-246 231,-240 231,-240 231,-228 231,-228 231,-222 237,-216 243,-216 243,-216 278,-216 278,-216 284,-216 290,-222 290,-228 290,-228 290,-240 290,-240 290,-246 284,-252 278,-252"/>
<text text-anchor="middle" x="260.5" y="-230.3" font-family="Times,serif" font-size="14.00">path (2)</text>
</g>
<!-- v10&#45;&gt;p6 -->
<g id="edge23" class="edge"><title>v10&#45;&gt;p6</title>
<path fill="none" stroke="black" d="M462.527,-299.113C426.19,-290.289 356.826,-272.467 299.5,-252 299.404,-251.966 299.309,-251.932 299.213,-251.897"/>
<polygon fill="black" stroke="black" points="300.733,-248.732 290.143,-248.418 298.226,-255.267 300.733,-248.732"/>
</g>
<!-- v13 -->
<g id="node12" class="node"><title>v13</title>
<ellipse fill="none" stroke="black" cx="335.5" cy="-234" rx="27" ry="18"/>
<text text-anchor="middle" x="335.5" y="-230.3" font-family="Times,serif" font-size="14.00">13</text>
</g>
<!-- v10&#45;&gt;v13 -->
<g id="edge27" class="edge"><title>v10&#45;&gt;v13</title>
<path fill="none" stroke="black" d="M465.722,-294.971C439.762,-283.015 396.189,-262.949 366.665,-249.352"/>
<polygon fill="black" stroke="black" points="367.785,-246.015 357.237,-245.011 364.857,-252.373 367.785,-246.015"/>
</g>
<!-- p7 -->
<g id="node14" class="node"><title>p7</title>
<path fill="none" stroke="black" d="M428,-252C428,-252 393,-252 393,-252 387,-252 381,-246 381,-240 381,-240 381,-228 381,-228 381,-222 387,-216 393,-216 393,-216 428,-216 428,-216 434,-216 440,-222 440,-228 440,-228 440,-240 440,-240 440,-246 434,-252 428,-252"/>
<text text-anchor="middle" x="410.5" y="-230.3" font-family="Times,serif" font-size="14.00">path (2)</text>
</g>
<!-- v10&#45;&gt;p7 -->
<g id="edge38" class="edge"><title>v10&#45;&gt;p7</title>
<path fill="none" stroke="black" d="M471.918,-290.834C461.921,-281.746 448.682,-269.71 437.055,-259.141"/>
<polygon fill="black" stroke="black" points="439.078,-256.25 429.324,-252.113 434.369,-261.429 439.078,-256.25"/>
</g>
<!-- p8 -->
<g id="node15" class="node"><title>p8</title>
<path fill="none" stroke="black" d="M505,-252C505,-252 470,-252 470,-252 464,-252 458,-246 458,-240 458,-240 458,-228 458,-228 458,-222 464,-216 470,-216 470,-216 505,-216 505,-216 511,-216 517,-222 517,-228 517,-228 517,-240 517,-240 517,-246 511,-252 505,-252"/>
<text text-anchor="middle" x="487.5" y="-230.3" font-family="Times,serif" font-size="14.00">path (2)</text>
</g>
<!-- v10&#45;&gt;p8 -->
<g id="edge16" class="edge"><title>v10&#45;&gt;p8</title>
<path fill="none" stroke="black" d="M487.5,-287.697C487.5,-279.983 487.5,-270.712 487.5,-262.112"/>
<polygon fill="black" stroke="black" points="491,-262.104 487.5,-252.104 484,-262.104 491,-262.104"/>
</g>
<!-- v24 -->
<g id="node16" class="node"><title>v24</title>
<ellipse fill="none" stroke="black" cx="562.5" cy="-234" rx="27" ry="18"/>
<text text-anchor="middle" x="562.5" y="-230.3" font-family="Times,serif" font-size="14.00">24</text>
</g>
<!-- v10&#45;&gt;v24 -->
<g id="edge28" class="edge"><title>v10&#45;&gt;v24</title>
<path fill="none" stroke="black" d="M502.677,-290.834C513.351,-280.872 527.819,-267.369 539.853,-256.137"/>
<polygon fill="black" stroke="black" points="542.423,-258.526 547.345,-249.144 537.646,-253.409 542.423,-258.526"/>
</g>
<!-- p11 -->
<g id="node21" class="node"><title>p11</title>
<path fill="none" stroke="black" d="M655,-252C655,-252 620,-252 620,-252 614,-252 608,-246 608,-240 608,-240 608,-228 608,-228 608,-222 614,-216 620,-216 620,-216 655,-216 655,-216 661,-216 667,-222 667,-228 667,-228 667,-240 667,-240 667,-246 661,-252 655,-252"/>
<text text-anchor="middle" x="637.5" y="-230.3" font-family="Times,serif" font-size="14.00">path (2)</text>
</g>
<!-- v10&#45;&gt;p11 -->
<g id="edge21" class="edge"><title>v10&#45;&gt;p11</title>
<path fill="none" stroke="black" d="M508.991,-294.971C532.281,-284.102 569.935,-266.53 598.479,-253.21"/>
<polygon fill="black" stroke="black" points="600.193,-256.272 607.775,-248.872 597.233,-249.929 600.193,-256.272"/>
</g>
<!-- p13 -->
<g id="node26" class="node"><title>p13</title>
<path fill="none" stroke="black" d="M732,-252C732,-252 697,-252 697,-252 691,-252 685,-246 685,-240 685,-240 685,-228 685,-228 685,-222 691,-216 697,-216 697,-216 732,-216 732,-216 738,-216 744,-222 744,-228 744,-228 744,-240 744,-240 744,-246 738,-252 732,-252"/>
<text text-anchor="middle" x="714.5" y="-230.3" font-family="Times,serif" font-size="14.00">path (3)</text>
</g>
<!-- v10&#45;&gt;p13 -->
<g id="edge13" class="edge"><title>v10&#45;&gt;p13</title>
<path fill="none" stroke="black" d="M512.635,-299.204C547.415,-290.916 612.241,-274.51 675.133,-252.258"/>
<polygon fill="black" stroke="black" points="676.572,-255.46 684.799,-248.785 674.205,-248.872 676.572,-255.46"/>
</g>
<!-- v46 -->
<g id="node30" class="node"><title>v46</title>
<ellipse fill="none" stroke="black" cx="970.5" cy="-234" rx="27" ry="18"/>
<text text-anchor="middle" x="970.5" y="-230.3" font-family="Times,serif" font-size="14.00">46</text>
</g>
<!-- v10&#45;&gt;v46 -->
<g id="edge10" class="edge"><title>v10&#45;&gt;v46</title>
<path fill="none" stroke="black" d="M513.811,-301.187C594.94,-289.429 841.349,-253.718 934.403,-240.232"/>
<polygon fill="black" stroke="black" points="935.065,-243.672 944.46,-238.774 934.061,-236.745 935.065,-243.672"/>
</g>
<!-- v14 -->
<g id="node13" class="node"><title>v14</title>
<ellipse fill="none" stroke="black" cx="798.5" cy="-378" rx="27" ry="18"/>
<text text-anchor="middle" x="798.5" y="-374.3" font-family="Times,serif" font-size="14.00">14</text>
</g>
<!-- v14&#45;&gt;v10 -->
<g id="edge25" class="edge"><title>v14&#45;&gt;v10</title>
<path fill="none" stroke="black" d="M773.313,-371.331C718.11,-358.906 586.336,-329.246 522.863,-314.959"/>
<polygon fill="black" stroke="black" points="523.447,-311.503 512.922,-312.722 521.909,-318.333 523.447,-311.503"/>
</g>
<!-- v45 -->
<g id="node29" class="node"><title>v45</title>
<ellipse fill="none" stroke="black" cx="1232.5" cy="-162" rx="27" ry="18"/>
<text text-anchor="middle" x="1232.5" y="-158.3" font-family="Times,serif" font-size="14.00">45</text>
</g>
<!-- v14&#45;&gt;v45 -->
<g id="edge41" class="edge"><title>v14&#45;&gt;v45</title>
<path fill="none" stroke="black" d="M819.727,-366.533C890.609,-331.582 1119.33,-218.803 1202.18,-177.951"/>
<polygon fill="black" stroke="black" points="1203.89,-181.008 1211.31,-173.446 1200.8,-174.73 1203.89,-181.008"/>
</g>
<!-- v41 -->
<g id="node25" class="node"><title>v41</title>
<ellipse fill="none" stroke="black" cx="528.5" cy="-162" rx="27" ry="18"/>
<text text-anchor="middle" x="528.5" y="-158.3" font-family="Times,serif" font-size="14.00">41</text>
</g>
<!-- v24&#45;&gt;v41 -->
<g id="edge1" class="edge"><title>v24&#45;&gt;v41</title>
<path fill="none" stroke="black" d="M554.614,-216.765C550.596,-208.491 545.613,-198.232 541.08,-188.9"/>
<polygon fill="black" stroke="black" points="544.096,-187.099 536.579,-179.633 537.8,-190.158 544.096,-187.099"/>
</g>
<!-- v25 -->
<g id="node17" class="node"><title>v25</title>
<ellipse fill="none" stroke="black" cx="494.5" cy="-90" rx="27" ry="18"/>
<text text-anchor="middle" x="494.5" y="-86.3" font-family="Times,serif" font-size="14.00">25</text>
</g>
<!-- v26 -->
<g id="node18" class="node"><title>v26</title>
<ellipse fill="none" stroke="black" cx="419.5" cy="-18" rx="27" ry="18"/>
<text text-anchor="middle" x="419.5" y="-14.3" font-family="Times,serif" font-size="14.00">26</text>
</g>
<!-- v25&#45;&gt;v26 -->
<g id="edge17" class="edge"><title>v25&#45;&gt;v26</title>
<path fill="none" stroke="black" d="M479.323,-74.8345C468.649,-64.872 454.181,-51.3687 442.147,-40.1371"/>
<polygon fill="black" stroke="black" points="444.354,-37.409 434.655,-33.1445 439.577,-42.5264 444.354,-37.409"/>
</g>
<!-- p9 -->
<g id="node19" class="node"><title>p9</title>
<path fill="none" stroke="black" d="M512,-36C512,-36 477,-36 477,-36 471,-36 465,-30 465,-24 465,-24 465,-12 465,-12 465,-6 471,-0 477,-0 477,-0 512,-0 512,-0 518,-0 524,-6 524,-12 524,-12 524,-24 524,-24 524,-30 518,-36 512,-36"/>
<text text-anchor="middle" x="494.5" y="-14.3" font-family="Times,serif" font-size="14.00">path (2)</text>
</g>
<!-- v25&#45;&gt;p9 -->
<g id="edge43" class="edge"><title>v25&#45;&gt;p9</title>
<path fill="none" stroke="black" d="M494.5,-71.6966C494.5,-63.9827 494.5,-54.7125 494.5,-46.1124"/>
<polygon fill="black" stroke="black" points="498,-46.1043 494.5,-36.1043 491,-46.1044 498,-46.1043"/>
</g>
<!-- p10 -->
<g id="node20" class="node"><title>p10</title>
<path fill="none" stroke="black" d="M589,-36C589,-36 554,-36 554,-36 548,-36 542,-30 542,-24 542,-24 542,-12 542,-12 542,-6 548,-0 554,-0 554,-0 589,-0 589,-0 595,-0 601,-6 601,-12 601,-12 601,-24 601,-24 601,-30 595,-36 589,-36"/>
<text text-anchor="middle" x="571.5" y="-14.3" font-family="Times,serif" font-size="14.00">path (3)</text>
</g>
<!-- v25&#45;&gt;p10 -->
<g id="edge8" class="edge"><title>v25&#45;&gt;p10</title>
<path fill="none" stroke="black" d="M510.082,-74.8345C520.079,-65.7459 533.318,-53.7105 544.945,-43.1413"/>
<polygon fill="black" stroke="black" points="547.631,-45.4293 552.676,-36.1127 542.922,-40.2497 547.631,-45.4293"/>
</g>
<!-- p12 -->
<g id="node22" class="node"><title>p12</title>
<path fill="none" stroke="black" d="M587,-108C587,-108 552,-108 552,-108 546,-108 540,-102 540,-96 540,-96 540,-84 540,-84 540,-78 546,-72 552,-72 552,-72 587,-72 587,-72 593,-72 599,-78 599,-84 599,-84 599,-96 599,-96 599,-102 593,-108 587,-108"/>
<text text-anchor="middle" x="569.5" y="-86.3" font-family="Times,serif" font-size="14.00">path (2)</text>
</g>
<!-- v40 -->
<g id="node24" class="node"><title>v40</title>
<ellipse fill="none" stroke="black" cx="422.5" cy="-90" rx="27" ry="18"/>
<text text-anchor="middle" x="422.5" y="-86.3" font-family="Times,serif" font-size="14.00">40</text>
</g>
<!-- v41&#45;&gt;v25 -->
<g id="edge42" class="edge"><title>v41&#45;&gt;v25</title>
<path fill="none" stroke="black" d="M520.614,-144.765C516.596,-136.491 511.613,-126.232 507.08,-116.9"/>
<polygon fill="black" stroke="black" points="510.096,-115.099 502.579,-107.633 503.8,-118.158 510.096,-115.099"/>
</g>
<!-- v41&#45;&gt;p12 -->
<g id="edge44" class="edge"><title>v41&#45;&gt;p12</title>
<path fill="none" stroke="black" d="M538.009,-144.765C542.835,-136.525 548.815,-126.317 554.262,-117.016"/>
<polygon fill="black" stroke="black" points="557.436,-118.522 559.47,-108.124 551.396,-114.984 557.436,-118.522"/>
</g>
<!-- v41&#45;&gt;v40 -->
<g id="edge6" class="edge"><title>v41&#45;&gt;v40</title>
<path fill="none" stroke="black" d="M510.036,-148.807C493.343,-137.783 468.554,-121.413 449.612,-108.904"/>
<polygon fill="black" stroke="black" points="451.381,-105.878 441.108,-103.288 447.524,-111.72 451.381,-105.878"/>
</g>
<!-- v43 -->
<g id="node27" class="node"><title>v43</title>
<ellipse fill="none" stroke="black" cx="1079.5" cy="-90" rx="27" ry="18"/>
<text text-anchor="middle" x="1079.5" y="-86.3" font-family="Times,serif" font-size="14.00">43</text>
</g>
<!-- p14 -->
<g id="node28" class="node"><title>p14</title>
<path fill="none" stroke="black" d="M1403,-108C1403,-108 1368,-108 1368,-108 1362,-108 1356,-102 1356,-96 1356,-96 1356,-84 1356,-84 1356,-78 1362,-72 1368,-72 1368,-72 1403,-72 1403,-72 1409,-72 1415,-78 1415,-84 1415,-84 1415,-96 1415,-96 1415,-102 1409,-108 1403,-108"/>
<text text-anchor="middle" x="1385.5" y="-86.3" font-family="Times,serif" font-size="14.00">path (2)</text>
</g>
<!-- v45&#45;&gt;p14 -->
<g id="edge2" class="edge"><title>v45&#45;&gt;p14</title>
<path fill="none" stroke="black" d="M1254.1,-151.119C1278.1,-140.135 1317.36,-122.175 1346.72,-108.74"/>
<polygon fill="black" stroke="black" points="1348.24,-111.895 1355.88,-104.552 1345.33,-105.53 1348.24,-111.895"/>
</g>
<!-- p15 -->
<g id="node31" class="node"><title>p15</title>
<path fill="none" stroke="black" d="M1249,-108C1249,-108 1214,-108 1214,-108 1208,-108 1202,-102 1202,-96 1202,-96 1202,-84 1202,-84 1202,-78 1208,-72 1214,-72 1214,-72 1249,-72 1249,-72 1255,-72 1261,-78 1261,-84 1261,-84 1261,-96 1261,-96 1261,-102 1255,-108 1249,-108"/>
<text text-anchor="middle" x="1231.5" y="-86.3" font-family="Times,serif" font-size="14.00">path (2)</text>
</g>
<!-- v45&#45;&gt;p15 -->
<g id="edge19" class="edge"><title>v45&#45;&gt;p15</title>
<path fill="none" stroke="black" d="M1232.25,-143.697C1232.14,-135.983 1232.01,-126.712 1231.89,-118.112"/>
<polygon fill="black" stroke="black" points="1235.39,-118.053 1231.74,-108.104 1228.39,-118.153 1235.39,-118.053"/>
</g>
<!-- p17 -->
<g id="node34" class="node"><title>p17</title>
<path fill="none" stroke="black" d="M1326,-108C1326,-108 1291,-108 1291,-108 1285,-108 1279,-102 1279,-96 1279,-96 1279,-84 1279,-84 1279,-78 1285,-72 1291,-72 1291,-72 1326,-72 1326,-72 1332,-72 1338,-78 1338,-84 1338,-84 1338,-96 1338,-96 1338,-102 1332,-108 1326,-108"/>
<text text-anchor="middle" x="1308.5" y="-86.3" font-family="Times,serif" font-size="14.00">path (3)</text>
</g>
<!-- v45&#45;&gt;p17 -->
<g id="edge26" class="edge"><title>v45&#45;&gt;p17</title>
<path fill="none" stroke="black" d="M1247.88,-146.834C1257.75,-137.746 1270.81,-125.71 1282.29,-115.141"/>
<polygon fill="black" stroke="black" points="1284.94,-117.462 1289.92,-108.113 1280.19,-112.313 1284.94,-117.462"/>
</g>
<!-- v46&#45;&gt;v45 -->
<g id="edge39" class="edge"><title>v46&#45;&gt;v45</title>
<path fill="none" stroke="black" d="M996.42,-228.76C1038.96,-221.395 1125.92,-204.632 1196.5,-180 1198.41,-179.334 1200.35,-178.598 1202.3,-177.817"/>
<polygon fill="black" stroke="black" points="1204.1,-180.849 1211.87,-173.651 1201.31,-174.431 1204.1,-180.849"/>
</g>
<!-- v48 -->
<g id="node32" class="node"><title>v48</title>
<ellipse fill="none" stroke="black" cx="1082.5" cy="-162" rx="27" ry="18"/>
<text text-anchor="middle" x="1082.5" y="-158.3" font-family="Times,serif" font-size="14.00">48</text>
</g>
<!-- v46&#45;&gt;v48 -->
<g id="edge15" class="edge"><title>v46&#45;&gt;v48</title>
<path fill="none" stroke="black" d="M989.499,-221.125C1007.44,-209.913 1034.55,-192.968 1054.88,-180.263"/>
<polygon fill="black" stroke="black" points="1056.78,-183.201 1063.41,-174.933 1053.07,-177.265 1056.78,-183.201"/>
</g>
<!-- p16 -->
<g id="node33" class="node"><title>p16</title>
<path fill="none" stroke="black" d="M1175,-180C1175,-180 1140,-180 1140,-180 1134,-180 1128,-174 1128,-168 1128,-168 1128,-156 1128,-156 1128,-150 1134,-144 1140,-144 1140,-144 1175,-144 1175,-144 1181,-144 1187,-150 1187,-156 1187,-156 1187,-168 1187,-168 1187,-174 1181,-180 1175,-180"/>
<text text-anchor="middle" x="1157.5" y="-158.3" font-family="Times,serif" font-size="14.00">path (2)</text>
</g>
<!-- v46&#45;&gt;p16 -->
<g id="edge5" class="edge"><title>v46&#45;&gt;p16</title>
<path fill="none" stroke="black" d="M994.008,-225.127C1023.35,-215.175 1074.99,-197.251 1118.5,-180 1118.59,-179.963 1118.69,-179.925 1118.78,-179.887"/>
<polygon fill="black" stroke="black" points="1119.85,-183.233 1127.78,-176.202 1117.2,-176.756 1119.85,-183.233"/>
</g>
<!-- v53 -->
<g id="node35" class="node"><title>v53</title>
<ellipse fill="none" stroke="black" cx="788.5" cy="-162" rx="27" ry="18"/>
<text text-anchor="middle" x="788.5" y="-158.3" font-family="Times,serif" font-size="14.00">53</text>
</g>
<!-- v46&#45;&gt;v53 -->
<g id="edge18" class="edge"><title>v46&#45;&gt;v53</title>
<path fill="none" stroke="black" d="M946.724,-225.129C917.612,-215.319 866.941,-197.679 824.5,-180 822.682,-179.243 820.822,-178.443 818.953,-177.62"/>
<polygon fill="black" stroke="black" points="820.225,-174.354 809.673,-173.399 817.326,-180.726 820.225,-174.354"/>
</g>
<!-- v60 -->
<g id="node37" class="node"><title>v60</title>
<ellipse fill="none" stroke="black" cx="860.5" cy="-162" rx="27" ry="18"/>
<text text-anchor="middle" x="860.5" y="-158.3" font-family="Times,serif" font-size="14.00">60</text>
</g>
<!-- v46&#45;&gt;v60 -->
<g id="edge4" class="edge"><title>v46&#45;&gt;v60</title>
<path fill="none" stroke="black" d="M951.339,-220.807C933.831,-209.665 907.741,-193.062 888.007,-180.504"/>
<polygon fill="black" stroke="black" points="889.757,-177.469 879.441,-175.053 885.999,-183.375 889.757,-177.469"/>
</g>
<!-- v65 -->
<g id="node41" class="node"><title>v65</title>
<ellipse fill="none" stroke="black" cx="932.5" cy="-162" rx="27" ry="18"/>
<text text-anchor="middle" x="932.5" y="-158.3" font-family="Times,serif" font-size="14.00">65</text>
</g>
<!-- v46&#45;&gt;v65 -->
<g id="edge9" class="edge"><title>v46&#45;&gt;v65</title>
<path fill="none" stroke="black" d="M961.687,-216.765C957.082,-208.283 951.345,-197.714 946.179,-188.197"/>
<polygon fill="black" stroke="black" points="949.113,-186.266 941.266,-179.147 942.961,-189.606 949.113,-186.266"/>
</g>
<!-- p20 -->
<g id="node44" class="node"><title>p20</title>
<path fill="none" stroke="black" d="M1025,-180C1025,-180 990,-180 990,-180 984,-180 978,-174 978,-168 978,-168 978,-156 978,-156 978,-150 984,-144 990,-144 990,-144 1025,-144 1025,-144 1031,-144 1037,-150 1037,-156 1037,-156 1037,-168 1037,-168 1037,-174 1031,-180 1025,-180"/>
<text text-anchor="middle" x="1007.5" y="-158.3" font-family="Times,serif" font-size="14.00">path (4)</text>
</g>
<!-- v46&#45;&gt;p20 -->
<g id="edge33" class="edge"><title>v46&#45;&gt;p20</title>
<path fill="none" stroke="black" d="M979.082,-216.765C983.437,-208.525 988.833,-198.317 993.749,-189.016"/>
<polygon fill="black" stroke="black" points="996.87,-190.6 998.449,-180.124 990.681,-187.329 996.87,-190.6"/>
</g>
<!-- v48&#45;&gt;v43 -->
<g id="edge7" class="edge"><title>v48&#45;&gt;v43</title>
<path fill="none" stroke="black" d="M1081.76,-143.697C1081.43,-135.983 1081.03,-126.712 1080.66,-118.112"/>
<polygon fill="black" stroke="black" points="1084.16,-117.945 1080.23,-108.104 1077.16,-118.245 1084.16,-117.945"/>
</g>
<!-- p18 -->
<g id="node36" class="node"><title>p18</title>
<path fill="none" stroke="black" d="M1172,-108C1172,-108 1137,-108 1137,-108 1131,-108 1125,-102 1125,-96 1125,-96 1125,-84 1125,-84 1125,-78 1131,-72 1137,-72 1137,-72 1172,-72 1172,-72 1178,-72 1184,-78 1184,-84 1184,-84 1184,-96 1184,-96 1184,-102 1178,-108 1172,-108"/>
<text text-anchor="middle" x="1154.5" y="-86.3" font-family="Times,serif" font-size="14.00">path (2)</text>
</g>
<!-- v48&#45;&gt;p18 -->
<g id="edge11" class="edge"><title>v48&#45;&gt;p18</title>
<path fill="none" stroke="black" d="M1097.07,-146.834C1106.42,-137.746 1118.8,-125.71 1129.67,-115.141"/>
<polygon fill="black" stroke="black" points="1132.17,-117.593 1136.9,-108.113 1127.29,-112.574 1132.17,-117.593"/>
</g>
<!-- v53&#45;&gt;v0 -->
<g id="edge37" class="edge"><title>v53&#45;&gt;v0</title>
<path fill="none" stroke="black" d="M788.5,-143.697C788.5,-135.983 788.5,-126.712 788.5,-118.112"/>
<polygon fill="black" stroke="black" points="792,-118.104 788.5,-108.104 785,-118.104 792,-118.104"/>
</g>
<!-- v62 -->
<g id="node38" class="node"><title>v62</title>
<ellipse fill="none" stroke="black" cx="935.5" cy="-18" rx="27" ry="18"/>
<text text-anchor="middle" x="935.5" y="-14.3" font-family="Times,serif" font-size="14.00">62</text>
</g>
<!-- v63 -->
<g id="node39" class="node"><title>v63</title>
<ellipse fill="none" stroke="black" cx="863.5" cy="-18" rx="27" ry="18"/>
<text text-anchor="middle" x="863.5" y="-14.3" font-family="Times,serif" font-size="14.00">63</text>
</g>
<!-- v64 -->
<g id="node40" class="node"><title>v64</title>
<ellipse fill="none" stroke="black" cx="932.5" cy="-90" rx="27" ry="18"/>
<text text-anchor="middle" x="932.5" y="-86.3" font-family="Times,serif" font-size="14.00">64</text>
</g>
<!-- v64&#45;&gt;v62 -->
<g id="edge29" class="edge"><title>v64&#45;&gt;v62</title>
<path fill="none" stroke="black" d="M933.242,-71.6966C933.572,-63.9827 933.969,-54.7125 934.338,-46.1124"/>
<polygon fill="black" stroke="black" points="937.835,-46.2451 934.767,-36.1043 930.842,-45.9453 937.835,-46.2451"/>
</g>
<!-- v64&#45;&gt;v63 -->
<g id="edge12" class="edge"><title>v64&#45;&gt;v63</title>
<path fill="none" stroke="black" d="M918.203,-74.496C908.581,-64.7348 895.723,-51.6897 884.89,-40.6999"/>
<polygon fill="black" stroke="black" points="887.291,-38.1502 877.779,-33.4855 882.306,-43.0643 887.291,-38.1502"/>
</g>
<!-- v65&#45;&gt;v64 -->
<g id="edge32" class="edge"><title>v65&#45;&gt;v64</title>
<path fill="none" stroke="black" d="M932.5,-143.697C932.5,-135.983 932.5,-126.712 932.5,-118.112"/>
<polygon fill="black" stroke="black" points="936,-118.104 932.5,-108.104 929,-118.104 936,-118.104"/>
</g>
<!-- p19 -->
<g id="node42" class="node"><title>p19</title>
<path fill="none" stroke="black" d="M1100,-36C1100,-36 1065,-36 1065,-36 1059,-36 1053,-30 1053,-24 1053,-24 1053,-12 1053,-12 1053,-6 1059,-0 1065,-0 1065,-0 1100,-0 1100,-0 1106,-0 1112,-6 1112,-12 1112,-12 1112,-24 1112,-24 1112,-30 1106,-36 1100,-36"/>
<text text-anchor="middle" x="1082.5" y="-14.3" font-family="Times,serif" font-size="14.00">path (2)</text>
</g>
<!-- v68 -->
<g id="node43" class="node"><title>v68</title>
<ellipse fill="none" stroke="black" cx="1007.5" cy="-90" rx="27" ry="18"/>
<text text-anchor="middle" x="1007.5" y="-86.3" font-family="Times,serif" font-size="14.00">68</text>
</g>
<!-- v68&#45;&gt;p19 -->
<g id="edge31" class="edge"><title>v68&#45;&gt;p19</title>
<path fill="none" stroke="black" d="M1022.68,-74.8345C1032.42,-65.7459 1045.31,-53.7105 1056.63,-43.1413"/>
<polygon fill="black" stroke="black" points="1059.24,-45.4946 1064.16,-36.1127 1054.47,-40.3772 1059.24,-45.4946"/>
</g>
<!-- v71 -->
<g id="node45" class="node"><title>v71</title>
<ellipse fill="none" stroke="black" cx="1007.5" cy="-18" rx="27" ry="18"/>
<text text-anchor="middle" x="1007.5" y="-14.3" font-family="Times,serif" font-size="14.00">71</text>
</g>
<!-- v68&#45;&gt;v71 -->
<g id="edge40" class="edge"><title>v68&#45;&gt;v71</title>
<path fill="none" stroke="black" d="M1007.5,-71.6966C1007.5,-63.9827 1007.5,-54.7125 1007.5,-46.1124"/>
<polygon fill="black" stroke="black" points="1011,-46.1043 1007.5,-36.1043 1004,-46.1044 1011,-46.1043"/>
</g>
<!-- p20&#45;&gt;v68 -->
<g id="edge24" class="edge"><title>p20&#45;&gt;v68</title>
<path fill="none" stroke="black" d="M1007.5,-143.697C1007.5,-135.983 1007.5,-126.712 1007.5,-118.112"/>
<polygon fill="black" stroke="black" points="1011,-118.104 1007.5,-108.104 1004,-118.104 1011,-118.104"/>
</g>
</g>
</svg>
