<?xml version="1.0" encoding="UTF-8" standalone="no"?>
<!DOCTYPE svg PUBLIC "-//W3C//DTD SVG 1.1//EN"
 "http://www.w3.org/Graphics/SVG/1.1/DTD/svg11.dtd">
<!-- Generated by graphviz version 2.38.0 (20140413.2041)
 -->
<!-- Title: %3 Pages: 1 -->
<svg width="281pt" height="404pt"
 viewBox="0.00 0.00 281.00 404.00" xmlns="http://www.w3.org/2000/svg" xmlns:xlink="http://www.w3.org/1999/xlink">
<g id="graph0" class="graph" transform="scale(1 1) rotate(0) translate(4 400)">
<title>%3</title>
<polygon fill="white" stroke="none" points="-4,4 -4,-400 277,-400 277,4 -4,4"/>
<!-- v0 -->
<g id="node1" class="node"><title>v0</title>
<ellipse fill="none" stroke="black" cx="27" cy="-162" rx="27" ry="18"/>
<text text-anchor="middle" x="27" y="-158.3" font-family="Times,serif" font-size="14.00">0</text>
</g>
<!-- p0 -->
<g id="node2" class="node"><title>p0</title>
<path fill="none" stroke="black" d="M119.5,-180C119.5,-180 84.5,-180 84.5,-180 78.5,-180 72.5,-174 72.5,-168 72.5,-168 72.5,-156 72.5,-156 72.5,-150 78.5,-144 84.5,-144 84.5,-144 119.5,-144 119.5,-144 125.5,-144 131.5,-150 131.5,-156 131.5,-156 131.5,-168 131.5,-168 131.5,-174 125.5,-180 119.5,-180"/>
<text text-anchor="middle" x="102" y="-158.3" font-family="Times,serif" font-size="14.00">path (3)</text>
</g>
<!-- v4 -->
<g id="node5" class="node"><title>v4</title>
<ellipse fill="none" stroke="black" cx="102" cy="-90" rx="27" ry="18"/>
<text text-anchor="middle" x="102" y="-86.3" font-family="Times,serif" font-size="14.00">4</text>
</g>
<!-- p0&#45;&gt;v4 -->
<g id="edge7" class="edge"><title>p0&#45;&gt;v4</title>
<path fill="none" stroke="black" d="M102,-143.697C102,-135.983 102,-126.712 102,-118.112"/>
<polygon fill="black" stroke="black" points="105.5,-118.104 102,-108.104 98.5001,-118.104 105.5,-118.104"/>
</g>
<!-- p1 -->
<g id="node3" class="node"><title>p1</title>
<path fill="none" stroke="black" d="M196.5,-180C196.5,-180 161.5,-180 161.5,-180 155.5,-180 149.5,-174 149.5,-168 149.5,-168 149.5,-156 149.5,-156 149.5,-150 155.5,-144 161.5,-144 161.5,-144 196.5,-144 196.5,-144 202.5,-144 208.5,-150 208.5,-156 208.5,-156 208.5,-168 208.5,-168 208.5,-174 202.5,-180 196.5,-180"/>
<text text-anchor="middle" x="179" y="-158.3" font-family="Times,serif" font-size="14.00">path (2)</text>
</g>
<!-- v3 -->
<g id="node4" class="node"><title>v3</title>
<ellipse fill="none" stroke="black" cx="30" cy="-18" rx="27" ry="18"/>
<text text-anchor="middle" x="30" y="-14.3" font-family="Times,serif" font-size="14.00">3</text>
</g>
<!-- v4&#45;&gt;v3 -->
<g id="edge9" class="edge"><title>v4&#45;&gt;v3</title>
<path fill="none" stroke="black" d="M87.4297,-74.8345C77.2501,-64.9376 63.4761,-51.5462 51.9694,-40.3591"/>
<polygon fill="black" stroke="black" points="54.4055,-37.8461 44.7957,-33.3847 49.5259,-42.865 54.4055,-37.8461"/>
</g>
<!-- v7 -->
<g id="node7" class="node"><title>v7</title>
<ellipse fill="none" stroke="black" cx="102" cy="-18" rx="27" ry="18"/>
<text text-anchor="middle" x="102" y="-14.3" font-family="Times,serif" font-size="14.00">7</text>
</g>
<!-- v4&#45;&gt;v7 -->
<g id="edge1" class="edge"><title>v4&#45;&gt;v7</title>
<path fill="none" stroke="black" d="M102,-71.6966C102,-63.9827 102,-54.7125 102,-46.1124"/>
<polygon fill="black" stroke="black" points="105.5,-46.1043 102,-36.1043 98.5001,-46.1044 105.5,-46.1043"/>
</g>
<!-- v9 -->
<g id="node9" class="node"><title>v9</title>
<ellipse fill="none" stroke="black" cx="174" cy="-18" rx="27" ry="18"/>
<text text-anchor="middle" x="174" y="-14.3" font-family="Times,serif" font-size="14.00">9</text>
</g>
<!-- v4&#45;&gt;v9 -->
<g id="edge2" class="edge"><title>v4&#45;&gt;v9</title>
<path fill="none" stroke="black" d="M116.57,-74.8345C126.75,-64.9376 140.524,-51.5462 152.031,-40.3591"/>
<polygon fill="black" stroke="black" points="154.474,-42.865 159.204,-33.3847 149.595,-37.8461 154.474,-42.865"/>
</g>
<!-- v5 -->
<g id="node6" class="node"><title>v5</title>
<ellipse fill="none" stroke="black" cx="102" cy="-306" rx="27" ry="18"/>
<text text-anchor="middle" x="102" y="-302.3" font-family="Times,serif" font-size="14.00">5</text>
</g>
<!-- v8 -->
<g id="node8" class="node"><title>v8</title>
<ellipse fill="none" stroke="black" cx="102" cy="-234" rx="27" ry="18"/>
<text text-anchor="middle" x="102" y="-230.3" font-family="Times,serif" font-size="14.00">8</text>
</g>
<!-- v5&#45;&gt;v8 -->
<g id="edge11" class="edge"><title>v5&#45;&gt;v8</title>
<path fill="none" stroke="black" d="M102,-287.697C102,-279.983 102,-270.712 102,-262.112"/>
<polygon fill="black" stroke="black" points="105.5,-262.104 102,-252.104 98.5001,-262.104 105.5,-262.104"/>
</g>
<!-- v8&#45;&gt;v0 -->
<g id="edge5" class="edge"><title>v8&#45;&gt;v0</title>
<path fill="none" stroke="black" d="M86.8226,-218.834C76.1486,-208.872 61.6808,-195.369 49.6469,-184.137"/>
<polygon fill="black" stroke="black" points="51.8535,-181.409 42.1548,-177.144 47.0773,-186.526 51.8535,-181.409"/>
</g>
<!-- v8&#45;&gt;p0 -->
<g id="edge6" class="edge"><title>v8&#45;&gt;p0</title>
<path fill="none" stroke="black" d="M102,-215.697C102,-207.983 102,-198.712 102,-190.112"/>
<polygon fill="black" stroke="black" points="105.5,-190.104 102,-180.104 98.5001,-190.104 105.5,-190.104"/>
</g>
<!-- v8&#45;&gt;p1 -->
<g id="edge10" class="edge"><title>v8&#45;&gt;p1</title>
<path fill="none" stroke="black" d="M117.582,-218.834C127.579,-209.746 140.818,-197.71 152.445,-187.141"/>
<polygon fill="black" stroke="black" points="155.131,-189.429 160.176,-180.113 150.422,-184.25 155.131,-189.429"/>
</g>
<!-- v12 -->
<g id="node10" class="node"><title>v12</title>
<ellipse fill="none" stroke="black" cx="174" cy="-378" rx="27" ry="18"/>
<text text-anchor="middle" x="174" y="-374.3" font-family="Times,serif" font-size="14.00">12</text>
</g>
<!-- v12&#45;&gt;v5 -->
<g id="edge8" class="edge"><title>v12&#45;&gt;v5</title>
<path fill="none" stroke="black" d="M159.43,-362.834C149.25,-352.938 135.476,-339.546 123.969,-328.359"/>
<polygon fill="black" stroke="black" points="126.405,-325.846 116.796,-321.385 121.526,-330.865 126.405,-325.846"/>
</g>
<!-- v13 -->
<g id="node11" class="node"><title>v13</title>
<ellipse fill="none" stroke="black" cx="174" cy="-306" rx="27" ry="18"/>
<text text-anchor="middle" x="174" y="-302.3" font-family="Times,serif" font-size="14.00">13</text>
</g>
<!-- v12&#45;&gt;v13 -->
<g id="edge4" class="edge"><title>v12&#45;&gt;v13</title>
<path fill="none" stroke="black" d="M174,-359.697C174,-351.983 174,-342.712 174,-334.112"/>
<polygon fill="black" stroke="black" points="177.5,-334.104 174,-324.104 170.5,-334.104 177.5,-334.104"/>
</g>
<!-- v14 -->
<g id="node12" class="node"><title>v14</title>
<ellipse fill="none" stroke="black" cx="246" cy="-306" rx="27" ry="18"/>
<text text-anchor="middle" x="246" y="-302.3" font-family="Times,serif" font-size="14.00">14</text>
</g>
<!-- v12&#45;&gt;v14 -->
<g id="edge3" class="edge"><title>v12&#45;&gt;v14</title>
<path fill="none" stroke="black" d="M188.57,-362.834C198.75,-352.938 212.524,-339.546 224.031,-328.359"/>
<polygon fill="black" stroke="black" points="226.474,-330.865 231.204,-321.385 221.595,-325.846 226.474,-330.865"/>
</g>
</g>
</svg>
