<?xml version="1.0" encoding="UTF-8" standalone="no"?>
<!DOCTYPE svg PUBLIC "-//W3C//DTD SVG 1.1//EN"
 "http://www.w3.org/Graphics/SVG/1.1/DTD/svg11.dtd">
<!-- Generated by graphviz version 2.38.0 (20140413.2041)
 -->
<!-- Title: %3 Pages: 1 -->
<svg width="421pt" height="548pt"
 viewBox="0.00 0.00 421.00 548.00" xmlns="http://www.w3.org/2000/svg" xmlns:xlink="http://www.w3.org/1999/xlink">
<g id="graph0" class="graph" transform="scale(1 1) rotate(0) translate(4 544)">
<title>%3</title>
<polygon fill="white" stroke="none" points="-4,4 -4,-544 417,-544 417,4 -4,4"/>
<!-- v0 -->
<g id="node1" class="node"><title>v0</title>
<ellipse fill="none" stroke="black" cx="176.5" cy="-522" rx="27" ry="18"/>
<text text-anchor="middle" x="176.5" y="-518.3" font-family="Times,serif" font-size="14.00">0</text>
</g>
<!-- p0 -->
<g id="node2" class="node"><title>p0</title>
<path fill="none" stroke="black" d="M47,-468C47,-468 12,-468 12,-468 6,-468 0,-462 0,-456 0,-456 0,-444 0,-444 0,-438 6,-432 12,-432 12,-432 47,-432 47,-432 53,-432 59,-438 59,-444 59,-444 59,-456 59,-456 59,-462 53,-468 47,-468"/>
<text text-anchor="middle" x="29.5" y="-446.3" font-family="Times,serif" font-size="14.00">path (2)</text>
</g>
<!-- v0&#45;&gt;p0 -->
<g id="edge16" class="edge"><title>v0&#45;&gt;p0</title>
<path fill="none" stroke="black" d="M155.125,-510.821C132.375,-499.988 95.8973,-482.618 68.0966,-469.379"/>
<polygon fill="black" stroke="black" points="69.567,-466.203 59.0336,-465.064 66.5574,-472.523 69.567,-466.203"/>
</g>
<!-- v3 -->
<g id="node3" class="node"><title>v3</title>
<ellipse fill="none" stroke="black" cx="104.5" cy="-450" rx="27" ry="18"/>
<text text-anchor="middle" x="104.5" y="-446.3" font-family="Times,serif" font-size="14.00">3</text>
</g>
<!-- v0&#45;&gt;v3 -->
<g id="edge4" class="edge"><title>v0&#45;&gt;v3</title>
<path fill="none" stroke="black" d="M161.93,-506.834C151.75,-496.938 137.976,-483.546 126.469,-472.359"/>
<polygon fill="black" stroke="black" points="128.905,-469.846 119.296,-465.385 124.026,-474.865 128.905,-469.846"/>
</g>
<!-- v5 -->
<g id="node5" class="node"><title>v5</title>
<ellipse fill="none" stroke="black" cx="176.5" cy="-450" rx="27" ry="18"/>
<text text-anchor="middle" x="176.5" y="-446.3" font-family="Times,serif" font-size="14.00">5</text>
</g>
<!-- v0&#45;&gt;v5 -->
<g id="edge12" class="edge"><title>v0&#45;&gt;v5</title>
<path fill="none" stroke="black" d="M176.5,-503.697C176.5,-495.983 176.5,-486.712 176.5,-478.112"/>
<polygon fill="black" stroke="black" points="180,-478.104 176.5,-468.104 173,-478.104 180,-478.104"/>
</g>
<!-- p3 -->
<g id="node18" class="node"><title>p3</title>
<path fill="none" stroke="black" d="M269,-468C269,-468 234,-468 234,-468 228,-468 222,-462 222,-456 222,-456 222,-444 222,-444 222,-438 228,-432 234,-432 234,-432 269,-432 269,-432 275,-432 281,-438 281,-444 281,-444 281,-456 281,-456 281,-462 275,-468 269,-468"/>
<text text-anchor="middle" x="251.5" y="-446.3" font-family="Times,serif" font-size="14.00">path (2)</text>
</g>
<!-- v0&#45;&gt;p3 -->
<g id="edge6" class="edge"><title>v0&#45;&gt;p3</title>
<path fill="none" stroke="black" d="M191.677,-506.834C201.415,-497.746 214.31,-485.71 225.634,-475.141"/>
<polygon fill="black" stroke="black" points="228.242,-477.495 233.165,-468.113 223.466,-472.377 228.242,-477.495"/>
</g>
<!-- v26 -->
<g id="node21" class="node"><title>v26</title>
<ellipse fill="none" stroke="black" cx="326.5" cy="-450" rx="27" ry="18"/>
<text text-anchor="middle" x="326.5" y="-446.3" font-family="Times,serif" font-size="14.00">26</text>
</g>
<!-- v0&#45;&gt;v26 -->
<g id="edge17" class="edge"><title>v0&#45;&gt;v26</title>
<path fill="none" stroke="black" d="M198.373,-510.878C221.336,-500.241 258.482,-483.002 290.5,-468 292.284,-467.164 294.117,-466.304 295.965,-465.435"/>
<polygon fill="black" stroke="black" points="297.635,-468.517 305.19,-461.089 294.652,-462.185 297.635,-468.517"/>
</g>
<!-- v4 -->
<g id="node4" class="node"><title>v4</title>
<ellipse fill="none" stroke="black" cx="27.5" cy="-378" rx="27" ry="18"/>
<text text-anchor="middle" x="27.5" y="-374.3" font-family="Times,serif" font-size="14.00">4</text>
</g>
<!-- v5&#45;&gt;v4 -->
<g id="edge14" class="edge"><title>v5&#45;&gt;v4</title>
<path fill="none" stroke="black" d="M155.186,-438.919C150.359,-436.64 145.254,-434.234 140.5,-432 106.309,-415.934 97.6914,-412.066 63.5,-396 61.7171,-395.162 59.8851,-394.3 58.0368,-393.43"/>
<polygon fill="black" stroke="black" points="59.3517,-390.181 48.814,-389.081 56.3663,-396.512 59.3517,-390.181"/>
</g>
<!-- p1 -->
<g id="node8" class="node"><title>p1</title>
<path fill="none" stroke="black" d="M120,-396C120,-396 85,-396 85,-396 79,-396 73,-390 73,-384 73,-384 73,-372 73,-372 73,-366 79,-360 85,-360 85,-360 120,-360 120,-360 126,-360 132,-366 132,-372 132,-372 132,-384 132,-384 132,-390 126,-396 120,-396"/>
<text text-anchor="middle" x="102.5" y="-374.3" font-family="Times,serif" font-size="14.00">path (2)</text>
</g>
<!-- v5&#45;&gt;p1 -->
<g id="edge5" class="edge"><title>v5&#45;&gt;p1</title>
<path fill="none" stroke="black" d="M161.525,-434.834C151.917,-425.746 139.194,-413.71 128.021,-403.141"/>
<polygon fill="black" stroke="black" points="130.261,-400.442 120.591,-396.113 125.45,-405.527 130.261,-400.442"/>
</g>
<!-- v13 -->
<g id="node12" class="node"><title>v13</title>
<ellipse fill="none" stroke="black" cx="177.5" cy="-378" rx="27" ry="18"/>
<text text-anchor="middle" x="177.5" y="-374.3" font-family="Times,serif" font-size="14.00">13</text>
</g>
<!-- v5&#45;&gt;v13 -->
<g id="edge3" class="edge"><title>v5&#45;&gt;v13</title>
<path fill="none" stroke="black" d="M176.747,-431.697C176.857,-423.983 176.99,-414.712 177.113,-406.112"/>
<polygon fill="black" stroke="black" points="180.612,-406.153 177.256,-396.104 173.613,-406.053 180.612,-406.153"/>
</g>
<!-- v6 -->
<g id="node6" class="node"><title>v6</title>
<ellipse fill="none" stroke="black" cx="158.5" cy="-306" rx="27" ry="18"/>
<text text-anchor="middle" x="158.5" y="-302.3" font-family="Times,serif" font-size="14.00">6</text>
</g>
<!-- v9 -->
<g id="node9" class="node"><title>v9</title>
<ellipse fill="none" stroke="black" cx="122.5" cy="-234" rx="27" ry="18"/>
<text text-anchor="middle" x="122.5" y="-230.3" font-family="Times,serif" font-size="14.00">9</text>
</g>
<!-- v6&#45;&gt;v9 -->
<g id="edge1" class="edge"><title>v6&#45;&gt;v9</title>
<path fill="none" stroke="black" d="M150.15,-288.765C145.788,-280.283 140.353,-269.714 135.459,-260.197"/>
<polygon fill="black" stroke="black" points="138.49,-258.439 130.804,-251.147 132.265,-261.641 138.49,-258.439"/>
</g>
<!-- v11 -->
<g id="node10" class="node"><title>v11</title>
<ellipse fill="none" stroke="black" cx="194.5" cy="-234" rx="27" ry="18"/>
<text text-anchor="middle" x="194.5" y="-230.3" font-family="Times,serif" font-size="14.00">11</text>
</g>
<!-- v6&#45;&gt;v11 -->
<g id="edge10" class="edge"><title>v6&#45;&gt;v11</title>
<path fill="none" stroke="black" d="M166.85,-288.765C171.212,-280.283 176.647,-269.714 181.541,-260.197"/>
<polygon fill="black" stroke="black" points="184.735,-261.641 186.196,-251.147 178.51,-258.439 184.735,-261.641"/>
</g>
<!-- v7 -->
<g id="node7" class="node"><title>v7</title>
<ellipse fill="none" stroke="black" cx="122.5" cy="-162" rx="27" ry="18"/>
<text text-anchor="middle" x="122.5" y="-158.3" font-family="Times,serif" font-size="14.00">7</text>
</g>
<!-- v12 -->
<g id="node11" class="node"><title>v12</title>
<ellipse fill="none" stroke="black" cx="86.5" cy="-90" rx="27" ry="18"/>
<text text-anchor="middle" x="86.5" y="-86.3" font-family="Times,serif" font-size="14.00">12</text>
</g>
<!-- v7&#45;&gt;v12 -->
<g id="edge2" class="edge"><title>v7&#45;&gt;v12</title>
<path fill="none" stroke="black" d="M114.15,-144.765C109.788,-136.283 104.353,-125.714 99.4587,-116.197"/>
<polygon fill="black" stroke="black" points="102.49,-114.439 94.8043,-107.147 96.2654,-117.641 102.49,-114.439"/>
</g>
<!-- v14 -->
<g id="node13" class="node"><title>v14</title>
<ellipse fill="none" stroke="black" cx="158.5" cy="-90" rx="27" ry="18"/>
<text text-anchor="middle" x="158.5" y="-86.3" font-family="Times,serif" font-size="14.00">14</text>
</g>
<!-- v7&#45;&gt;v14 -->
<g id="edge8" class="edge"><title>v7&#45;&gt;v14</title>
<path fill="none" stroke="black" d="M130.85,-144.765C135.212,-136.283 140.647,-125.714 145.541,-116.197"/>
<polygon fill="black" stroke="black" points="148.735,-117.641 150.196,-107.147 142.51,-114.439 148.735,-117.641"/>
</g>
<!-- v9&#45;&gt;v7 -->
<g id="edge7" class="edge"><title>v9&#45;&gt;v7</title>
<path fill="none" stroke="black" d="M122.5,-215.697C122.5,-207.983 122.5,-198.712 122.5,-190.112"/>
<polygon fill="black" stroke="black" points="126,-190.104 122.5,-180.104 119,-190.104 126,-190.104"/>
</g>
<!-- v13&#45;&gt;v6 -->
<g id="edge11" class="edge"><title>v13&#45;&gt;v6</title>
<path fill="none" stroke="black" d="M172.901,-360.055C170.754,-352.145 168.147,-342.54 165.744,-333.688"/>
<polygon fill="black" stroke="black" points="169.054,-332.523 163.057,-323.789 162.299,-334.357 169.054,-332.523"/>
</g>
<!-- v15 -->
<g id="node14" class="node"><title>v15</title>
<ellipse fill="none" stroke="black" cx="122.5" cy="-18" rx="27" ry="18"/>
<text text-anchor="middle" x="122.5" y="-14.3" font-family="Times,serif" font-size="14.00">15</text>
</g>
<!-- v14&#45;&gt;v15 -->
<g id="edge20" class="edge"><title>v14&#45;&gt;v15</title>
<path fill="none" stroke="black" d="M150.15,-72.7646C145.788,-64.2831 140.353,-53.7144 135.459,-44.1974"/>
<polygon fill="black" stroke="black" points="138.49,-42.4395 130.804,-35.1473 132.265,-45.6409 138.49,-42.4395"/>
</g>
<!-- v16 -->
<g id="node15" class="node"><title>v16</title>
<ellipse fill="none" stroke="black" cx="194.5" cy="-18" rx="27" ry="18"/>
<text text-anchor="middle" x="194.5" y="-14.3" font-family="Times,serif" font-size="14.00">16</text>
</g>
<!-- v14&#45;&gt;v16 -->
<g id="edge15" class="edge"><title>v14&#45;&gt;v16</title>
<path fill="none" stroke="black" d="M166.85,-72.7646C171.212,-64.2831 176.647,-53.7144 181.541,-44.1974"/>
<polygon fill="black" stroke="black" points="184.735,-45.6409 186.196,-35.1473 178.51,-42.4395 184.735,-45.6409"/>
</g>
<!-- p2 -->
<g id="node16" class="node"><title>p2</title>
<path fill="none" stroke="black" d="M251,-324C251,-324 216,-324 216,-324 210,-324 204,-318 204,-312 204,-312 204,-300 204,-300 204,-294 210,-288 216,-288 216,-288 251,-288 251,-288 257,-288 263,-294 263,-300 263,-300 263,-312 263,-312 263,-318 257,-324 251,-324"/>
<text text-anchor="middle" x="233.5" y="-302.3" font-family="Times,serif" font-size="14.00">path (3)</text>
</g>
<!-- v20 -->
<g id="node17" class="node"><title>v20</title>
<ellipse fill="none" stroke="black" cx="289.5" cy="-378" rx="27" ry="18"/>
<text text-anchor="middle" x="289.5" y="-374.3" font-family="Times,serif" font-size="14.00">20</text>
</g>
<!-- v20&#45;&gt;p2 -->
<g id="edge13" class="edge"><title>v20&#45;&gt;p2</title>
<path fill="none" stroke="black" d="M277.349,-361.811C270.413,-353.141 261.542,-342.052 253.596,-332.12"/>
<polygon fill="black" stroke="black" points="256.181,-329.749 247.201,-324.127 250.715,-334.122 256.181,-329.749"/>
</g>
<!-- v22 -->
<g id="node19" class="node"><title>v22</title>
<ellipse fill="none" stroke="black" cx="308.5" cy="-306" rx="27" ry="18"/>
<text text-anchor="middle" x="308.5" y="-302.3" font-family="Times,serif" font-size="14.00">22</text>
</g>
<!-- v20&#45;&gt;v22 -->
<g id="edge9" class="edge"><title>v20&#45;&gt;v22</title>
<path fill="none" stroke="black" d="M294.099,-360.055C296.246,-352.145 298.853,-342.54 301.256,-333.688"/>
<polygon fill="black" stroke="black" points="304.701,-334.357 303.943,-323.789 297.946,-332.523 304.701,-334.357"/>
</g>
<!-- p4 -->
<g id="node20" class="node"><title>p4</title>
<path fill="none" stroke="black" d="M401,-324C401,-324 366,-324 366,-324 360,-324 354,-318 354,-312 354,-312 354,-300 354,-300 354,-294 360,-288 366,-288 366,-288 401,-288 401,-288 407,-288 413,-294 413,-300 413,-300 413,-312 413,-312 413,-318 407,-324 401,-324"/>
<text text-anchor="middle" x="383.5" y="-302.3" font-family="Times,serif" font-size="14.00">path (2)</text>
</g>
<!-- v20&#45;&gt;p4 -->
<g id="edge18" class="edge"><title>v20&#45;&gt;p4</title>
<path fill="none" stroke="black" d="M307.181,-363.834C319.925,-354.343 337.457,-341.288 352.504,-330.082"/>
<polygon fill="black" stroke="black" points="354.631,-332.862 360.561,-324.082 350.45,-327.247 354.631,-332.862"/>
</g>
<!-- p3&#45;&gt;v20 -->
<g id="edge19" class="edge"><title>p3&#45;&gt;v20</title>
<path fill="none" stroke="black" d="M260.893,-431.697C265.395,-423.403 270.874,-413.311 275.827,-404.187"/>
<polygon fill="black" stroke="black" points="279.041,-405.603 280.736,-395.145 272.889,-402.263 279.041,-405.603"/>
</g>
</g>
</svg>
