<?xml version="1.0" encoding="UTF-8" standalone="no"?>
<!DOCTYPE svg PUBLIC "-//W3C//DTD SVG 1.1//EN"
 "http://www.w3.org/Graphics/SVG/1.1/DTD/svg11.dtd">
<!-- Generated by graphviz version 2.38.0 (20140413.2041)
 -->
<!-- Title: %3 Pages: 1 -->
<svg width="830pt" height="1412pt"
 viewBox="0.00 0.00 830.09 1412.00" xmlns="http://www.w3.org/2000/svg" xmlns:xlink="http://www.w3.org/1999/xlink">
<g id="graph0" class="graph" transform="scale(1 1) rotate(0) translate(4 1408)">
<title>%3</title>
<polygon fill="white" stroke="none" points="-4,4 -4,-1408 826.093,-1408 826.093,4 -4,4"/>
<!-- 0 -->
<g id="node1" class="node"><title>0</title>
<g id="a_node1"><a xlink:title="0, diversity: 3, multiplicities: 1,39,119, labels: 0">
<ellipse fill="#f7fcf5" stroke="black" cx="134.047" cy="-1314" rx="37.0935" ry="18"/>
<text text-anchor="middle" x="134.047" y="-1310.3" font-family="Times,serif" font-size="14.00">0 (3): 0</text>
</a>
</g>
</g>
<!-- 1 -->
<g id="node2" class="node"><title>1</title>
<g id="a_node2"><a xlink:title="1, diversity: 1, multiplicities: 70, labels: 0">
<ellipse fill="#f7fcf5" stroke="black" cx="37.0467" cy="-1242" rx="37.0935" ry="18"/>
<text text-anchor="middle" x="37.0467" y="-1238.3" font-family="Times,serif" font-size="14.00">1 (1): 0</text>
</a>
</g>
</g>
<!-- 0&#45;&gt;1 -->
<g id="edge27" class="edge"><title>0&#45;&gt;1</title>
<path fill="none" stroke="black" d="M113.948,-1298.5C99.8082,-1288.29 80.6952,-1274.5 65.0614,-1263.22"/>
<polygon fill="black" stroke="black" points="66.9447,-1260.26 56.7875,-1257.25 62.8484,-1265.94 66.9447,-1260.26"/>
</g>
<!-- 10 -->
<g id="node11" class="node"><title>10</title>
<g id="a_node11"><a xlink:title="10, diversity: 2, multiplicities: 3,3, labels: 0">
<ellipse fill="#f7fcf5" stroke="black" cx="134.047" cy="-1242" rx="41.6928" ry="18"/>
<text text-anchor="middle" x="134.047" y="-1238.3" font-family="Times,serif" font-size="14.00">10 (2): 0</text>
</a>
</g>
</g>
<!-- 0&#45;&gt;10 -->
<g id="edge4" class="edge"><title>0&#45;&gt;10</title>
<path fill="none" stroke="black" d="M134.047,-1295.7C134.047,-1287.98 134.047,-1278.71 134.047,-1270.11"/>
<polygon fill="black" stroke="black" points="137.547,-1270.1 134.047,-1260.1 130.547,-1270.1 137.547,-1270.1"/>
</g>
<!-- 8 -->
<g id="node9" class="node"><title>8</title>
<g id="a_node9"><a xlink:title="8, diversity: 2, multiplicities: 1,75, labels: 0">
<ellipse fill="#f7fcf5" stroke="black" cx="37.0467" cy="-1170" rx="37.0935" ry="18"/>
<text text-anchor="middle" x="37.0467" y="-1166.3" font-family="Times,serif" font-size="14.00">8 (2): 0</text>
</a>
</g>
</g>
<!-- 1&#45;&gt;8 -->
<g id="edge12" class="edge"><title>1&#45;&gt;8</title>
<path fill="none" stroke="black" d="M37.0467,-1223.7C37.0467,-1215.98 37.0467,-1206.71 37.0467,-1198.11"/>
<polygon fill="black" stroke="black" points="40.5468,-1198.1 37.0467,-1188.1 33.5468,-1198.1 40.5468,-1198.1"/>
</g>
<!-- 2 -->
<g id="node3" class="node"><title>2</title>
<g id="a_node3"><a xlink:title="2, diversity: 1, multiplicities: 3, labels: 0">
<ellipse fill="#f7fcf5" stroke="black" cx="134.047" cy="-90" rx="37.0935" ry="18"/>
<text text-anchor="middle" x="134.047" y="-86.3" font-family="Times,serif" font-size="14.00">2 (1): 0</text>
</a>
</g>
</g>
<!-- 15 -->
<g id="node16" class="node"><title>15</title>
<g id="a_node16"><a xlink:title="15, diversity: 1, multiplicities: 5, labels: 0">
<ellipse fill="#f7fcf5" stroke="black" cx="134.047" cy="-18" rx="41.6928" ry="18"/>
<text text-anchor="middle" x="134.047" y="-14.3" font-family="Times,serif" font-size="14.00">15 (1): 0</text>
</a>
</g>
</g>
<!-- 2&#45;&gt;15 -->
<g id="edge36" class="edge"><title>2&#45;&gt;15</title>
<path fill="none" stroke="black" d="M134.047,-71.6966C134.047,-63.9827 134.047,-54.7125 134.047,-46.1124"/>
<polygon fill="black" stroke="black" points="137.547,-46.1043 134.047,-36.1043 130.547,-46.1044 137.547,-46.1043"/>
</g>
<!-- 3 -->
<g id="node4" class="node"><title>3</title>
<g id="a_node4"><a xlink:title="3, diversity: 1, multiplicities: 9, labels: 0">
<ellipse fill="#f7fcf5" stroke="black" cx="235.047" cy="-1314" rx="37.0935" ry="18"/>
<text text-anchor="middle" x="235.047" y="-1310.3" font-family="Times,serif" font-size="14.00">3 (1): 0</text>
</a>
</g>
</g>
<!-- 9 -->
<g id="node10" class="node"><title>9</title>
<g id="a_node10"><a xlink:title="9, diversity: 1, multiplicities: 13, labels: 0">
<ellipse fill="#f7fcf5" stroke="black" cx="235.047" cy="-1242" rx="37.0935" ry="18"/>
<text text-anchor="middle" x="235.047" y="-1238.3" font-family="Times,serif" font-size="14.00">9 (1): 0</text>
</a>
</g>
</g>
<!-- 3&#45;&gt;9 -->
<g id="edge24" class="edge"><title>3&#45;&gt;9</title>
<path fill="none" stroke="black" d="M235.047,-1295.7C235.047,-1287.98 235.047,-1278.71 235.047,-1270.11"/>
<polygon fill="black" stroke="black" points="238.547,-1270.1 235.047,-1260.1 231.547,-1270.1 238.547,-1270.1"/>
</g>
<!-- 4 -->
<g id="node5" class="node"><title>4</title>
<g id="a_node5"><a xlink:title="4, diversity: 1, multiplicities: 1, labels: 0">
<ellipse fill="#f7fcf5" stroke="black" cx="134.047" cy="-1026" rx="37.0935" ry="18"/>
<text text-anchor="middle" x="134.047" y="-1022.3" font-family="Times,serif" font-size="14.00">4 (1): 0</text>
</a>
</g>
</g>
<!-- 26 -->
<g id="node27" class="node"><title>26</title>
<g id="a_node27"><a xlink:title="26, diversity: 1, multiplicities: 1, labels: 0">
<ellipse fill="#f7fcf5" stroke="black" cx="134.047" cy="-954" rx="41.6928" ry="18"/>
<text text-anchor="middle" x="134.047" y="-950.3" font-family="Times,serif" font-size="14.00">26 (1): 0</text>
</a>
</g>
</g>
<!-- 4&#45;&gt;26 -->
<g id="edge9" class="edge"><title>4&#45;&gt;26</title>
<path fill="none" stroke="black" d="M134.047,-1007.7C134.047,-999.983 134.047,-990.712 134.047,-982.112"/>
<polygon fill="black" stroke="black" points="137.547,-982.104 134.047,-972.104 130.547,-982.104 137.547,-982.104"/>
</g>
<!-- 5 -->
<g id="node6" class="node"><title>5</title>
<g id="a_node6"><a xlink:title="5, diversity: 1, multiplicities: 7, labels: 0">
<ellipse fill="#f7fcf5" stroke="black" cx="330.047" cy="-1314" rx="37.0935" ry="18"/>
<text text-anchor="middle" x="330.047" y="-1310.3" font-family="Times,serif" font-size="14.00">5 (1): 0</text>
</a>
</g>
</g>
<!-- 20 -->
<g id="node21" class="node"><title>20</title>
<g id="a_node21"><a xlink:title="20, diversity: 1, multiplicities: 1, labels: 0">
<ellipse fill="#f7fcf5" stroke="black" cx="334.047" cy="-1242" rx="41.6928" ry="18"/>
<text text-anchor="middle" x="334.047" y="-1238.3" font-family="Times,serif" font-size="14.00">20 (1): 0</text>
</a>
</g>
</g>
<!-- 5&#45;&gt;20 -->
<g id="edge34" class="edge"><title>5&#45;&gt;20</title>
<path fill="none" stroke="black" d="M331.035,-1295.7C331.476,-1287.98 332.006,-1278.71 332.497,-1270.11"/>
<polygon fill="black" stroke="black" points="335.993,-1270.29 333.069,-1260.1 329.004,-1269.89 335.993,-1270.29"/>
</g>
<!-- 6 -->
<g id="node7" class="node"><title>6</title>
<g id="a_node7"><a xlink:title="6, diversity: 1, multiplicities: 9, labels: 0">
<ellipse fill="#f7fcf5" stroke="black" cx="785.047" cy="-1026" rx="37.0935" ry="18"/>
<text text-anchor="middle" x="785.047" y="-1022.3" font-family="Times,serif" font-size="14.00">6 (1): 0</text>
</a>
</g>
</g>
<!-- 7 -->
<g id="node8" class="node"><title>7</title>
<g id="a_node8"><a xlink:title="7, diversity: 1, multiplicities: 27, labels: 0">
<ellipse fill="#f7fcf5" stroke="black" cx="235.047" cy="-1098" rx="37.0935" ry="18"/>
<text text-anchor="middle" x="235.047" y="-1094.3" font-family="Times,serif" font-size="14.00">7 (1): 0</text>
</a>
</g>
</g>
<!-- 25 -->
<g id="node26" class="node"><title>25</title>
<g id="a_node26"><a xlink:title="25, diversity: 1, multiplicities: 1, labels: 0">
<ellipse fill="#f7fcf5" stroke="black" cx="134.047" cy="-1170" rx="41.6928" ry="18"/>
<text text-anchor="middle" x="134.047" y="-1166.3" font-family="Times,serif" font-size="14.00">25 (1): 0</text>
</a>
</g>
</g>
<!-- 10&#45;&gt;25 -->
<g id="edge32" class="edge"><title>10&#45;&gt;25</title>
<path fill="none" stroke="black" d="M134.047,-1223.7C134.047,-1215.98 134.047,-1206.71 134.047,-1198.11"/>
<polygon fill="black" stroke="black" points="137.547,-1198.1 134.047,-1188.1 130.547,-1198.1 137.547,-1198.1"/>
</g>
<!-- 11 -->
<g id="node12" class="node"><title>11</title>
<g id="a_node12"><a xlink:title="11, diversity: 1, multiplicities: 1, labels: 0">
<ellipse fill="#f7fcf5" stroke="black" cx="334.047" cy="-1098" rx="41.6928" ry="18"/>
<text text-anchor="middle" x="334.047" y="-1094.3" font-family="Times,serif" font-size="14.00">11 (1): 0</text>
</a>
</g>
</g>
<!-- 18 -->
<g id="node19" class="node"><title>18</title>
<g id="a_node19"><a xlink:title="18, diversity: 1, multiplicities: 1, labels: 0">
<ellipse fill="#f7fcf5" stroke="black" cx="284.047" cy="-1026" rx="41.6928" ry="18"/>
<text text-anchor="middle" x="284.047" y="-1022.3" font-family="Times,serif" font-size="14.00">18 (1): 0</text>
</a>
</g>
</g>
<!-- 11&#45;&gt;18 -->
<g id="edge16" class="edge"><title>11&#45;&gt;18</title>
<path fill="none" stroke="black" d="M322.197,-1080.41C316.095,-1071.87 308.531,-1061.28 301.752,-1051.79"/>
<polygon fill="black" stroke="black" points="304.471,-1049.57 295.811,-1043.47 298.775,-1053.64 304.471,-1049.57"/>
</g>
<!-- 12 -->
<g id="node13" class="node"><title>12</title>
<g id="a_node13"><a xlink:title="12, diversity: 2, multiplicities: 1,18, labels: 0">
<ellipse fill="#f7fcf5" stroke="black" cx="284.047" cy="-882" rx="41.6928" ry="18"/>
<text text-anchor="middle" x="284.047" y="-878.3" font-family="Times,serif" font-size="14.00">12 (2): 0</text>
</a>
</g>
</g>
<!-- 13 -->
<g id="node14" class="node"><title>13</title>
<g id="a_node14"><a xlink:title="13, diversity: 1, multiplicities: 1, labels: 0">
<ellipse fill="#f7fcf5" stroke="black" cx="134.047" cy="-1098" rx="41.6928" ry="18"/>
<text text-anchor="middle" x="134.047" y="-1094.3" font-family="Times,serif" font-size="14.00">13 (1): 0</text>
</a>
</g>
</g>
<!-- 13&#45;&gt;4 -->
<g id="edge2" class="edge"><title>13&#45;&gt;4</title>
<path fill="none" stroke="black" d="M134.047,-1079.7C134.047,-1071.98 134.047,-1062.71 134.047,-1054.11"/>
<polygon fill="black" stroke="black" points="137.547,-1054.1 134.047,-1044.1 130.547,-1054.1 137.547,-1054.1"/>
</g>
<!-- 14 -->
<g id="node15" class="node"><title>14</title>
<g id="a_node15"><a xlink:title="14, diversity: 1, multiplicities: 10, labels: 0">
<ellipse fill="#f7fcf5" stroke="black" cx="284.047" cy="-954" rx="41.6928" ry="18"/>
<text text-anchor="middle" x="284.047" y="-950.3" font-family="Times,serif" font-size="14.00">14 (1): 0</text>
</a>
</g>
</g>
<!-- 14&#45;&gt;12 -->
<g id="edge33" class="edge"><title>14&#45;&gt;12</title>
<path fill="none" stroke="black" d="M284.047,-935.697C284.047,-927.983 284.047,-918.712 284.047,-910.112"/>
<polygon fill="black" stroke="black" points="287.547,-910.104 284.047,-900.104 280.547,-910.104 287.547,-910.104"/>
</g>
<!-- 16 -->
<g id="node17" class="node"><title>16</title>
<g id="a_node17"><a xlink:title="16, diversity: 2, multiplicities: 1,3, labels: 0">
<ellipse fill="#f7fcf5" stroke="black" cx="134.047" cy="-666" rx="41.6928" ry="18"/>
<text text-anchor="middle" x="134.047" y="-662.3" font-family="Times,serif" font-size="14.00">16 (2): 0</text>
</a>
</g>
</g>
<!-- 32 -->
<g id="node33" class="node"><title>32</title>
<g id="a_node33"><a xlink:title="32, diversity: 1, multiplicities: 1, labels: 0">
<ellipse fill="#f7fcf5" stroke="black" cx="134.047" cy="-594" rx="41.6928" ry="18"/>
<text text-anchor="middle" x="134.047" y="-590.3" font-family="Times,serif" font-size="14.00">32 (1): 0</text>
</a>
</g>
</g>
<!-- 16&#45;&gt;32 -->
<g id="edge14" class="edge"><title>16&#45;&gt;32</title>
<path fill="none" stroke="black" d="M134.047,-647.697C134.047,-639.983 134.047,-630.712 134.047,-622.112"/>
<polygon fill="black" stroke="black" points="137.547,-622.104 134.047,-612.104 130.547,-622.104 137.547,-622.104"/>
</g>
<!-- 17 -->
<g id="node18" class="node"><title>17</title>
<g id="a_node18"><a xlink:title="17, diversity: 1, multiplicities: 1, labels: 0">
<ellipse fill="#f7fcf5" stroke="black" cx="134.047" cy="-306" rx="41.6928" ry="18"/>
<text text-anchor="middle" x="134.047" y="-302.3" font-family="Times,serif" font-size="14.00">17 (1): 0</text>
</a>
</g>
</g>
<!-- 19 -->
<g id="node20" class="node"><title>19</title>
<g id="a_node20"><a xlink:title="19, diversity: 1, multiplicities: 3, labels: 0">
<ellipse fill="#f7fcf5" stroke="black" cx="134.047" cy="-234" rx="41.6928" ry="18"/>
<text text-anchor="middle" x="134.047" y="-230.3" font-family="Times,serif" font-size="14.00">19 (1): 0</text>
</a>
</g>
</g>
<!-- 17&#45;&gt;19 -->
<g id="edge19" class="edge"><title>17&#45;&gt;19</title>
<path fill="none" stroke="black" d="M134.047,-287.697C134.047,-279.983 134.047,-270.712 134.047,-262.112"/>
<polygon fill="black" stroke="black" points="137.547,-262.104 134.047,-252.104 130.547,-262.104 137.547,-262.104"/>
</g>
<!-- 18&#45;&gt;14 -->
<g id="edge30" class="edge"><title>18&#45;&gt;14</title>
<path fill="none" stroke="black" d="M284.047,-1007.7C284.047,-999.983 284.047,-990.712 284.047,-982.112"/>
<polygon fill="black" stroke="black" points="287.547,-982.104 284.047,-972.104 280.547,-982.104 287.547,-982.104"/>
</g>
<!-- 23 -->
<g id="node24" class="node"><title>23</title>
<g id="a_node24"><a xlink:title="23, diversity: 1, multiplicities: 3, labels: 0">
<ellipse fill="#f7fcf5" stroke="black" cx="134.047" cy="-162" rx="41.6928" ry="18"/>
<text text-anchor="middle" x="134.047" y="-158.3" font-family="Times,serif" font-size="14.00">23 (1): 0</text>
</a>
</g>
</g>
<!-- 19&#45;&gt;23 -->
<g id="edge37" class="edge"><title>19&#45;&gt;23</title>
<path fill="none" stroke="black" d="M134.047,-215.697C134.047,-207.983 134.047,-198.712 134.047,-190.112"/>
<polygon fill="black" stroke="black" points="137.547,-190.104 134.047,-180.104 130.547,-190.104 137.547,-190.104"/>
</g>
<!-- 21 -->
<g id="node22" class="node"><title>21</title>
<g id="a_node22"><a xlink:title="21, diversity: 1, multiplicities: 1, labels: 0">
<ellipse fill="#f7fcf5" stroke="black" cx="235.047" cy="-1170" rx="41.6928" ry="18"/>
<text text-anchor="middle" x="235.047" y="-1166.3" font-family="Times,serif" font-size="14.00">21 (1): 0</text>
</a>
</g>
</g>
<!-- 20&#45;&gt;21 -->
<g id="edge10" class="edge"><title>20&#45;&gt;21</title>
<path fill="none" stroke="black" d="M313.051,-1226.15C298.876,-1216.13 279.969,-1202.76 264.32,-1191.7"/>
<polygon fill="black" stroke="black" points="266.198,-1188.74 256.012,-1185.82 262.156,-1194.45 266.198,-1188.74"/>
</g>
<!-- 28 -->
<g id="node29" class="node"><title>28</title>
<g id="a_node29"><a xlink:title="28, diversity: 1, multiplicities: 1, labels: 0">
<ellipse fill="#f7fcf5" stroke="black" cx="336.047" cy="-1170" rx="41.6928" ry="18"/>
<text text-anchor="middle" x="336.047" y="-1166.3" font-family="Times,serif" font-size="14.00">28 (1): 0</text>
</a>
</g>
</g>
<!-- 20&#45;&gt;28 -->
<g id="edge35" class="edge"><title>20&#45;&gt;28</title>
<path fill="none" stroke="black" d="M334.541,-1223.7C334.761,-1215.98 335.026,-1206.71 335.272,-1198.11"/>
<polygon fill="black" stroke="black" points="338.771,-1198.2 335.558,-1188.1 331.774,-1198 338.771,-1198.2"/>
</g>
<!-- 33 -->
<g id="node34" class="node"><title>33</title>
<g id="a_node34"><a xlink:title="33, diversity: 1, multiplicities: 1, labels: 0">
<ellipse fill="#f7fcf5" stroke="black" cx="535.047" cy="-1170" rx="41.6928" ry="18"/>
<text text-anchor="middle" x="535.047" y="-1166.3" font-family="Times,serif" font-size="14.00">33 (1): 0</text>
</a>
</g>
</g>
<!-- 20&#45;&gt;33 -->
<g id="edge31" class="edge"><title>20&#45;&gt;33</title>
<path fill="none" stroke="black" d="M365.453,-1230.06C400.015,-1218.03 455.708,-1198.63 493.775,-1185.37"/>
<polygon fill="black" stroke="black" points="495.237,-1188.57 503.53,-1181.98 492.935,-1181.96 495.237,-1188.57"/>
</g>
<!-- 21&#45;&gt;7 -->
<g id="edge39" class="edge"><title>21&#45;&gt;7</title>
<path fill="none" stroke="black" d="M235.047,-1151.7C235.047,-1143.98 235.047,-1134.71 235.047,-1126.11"/>
<polygon fill="black" stroke="black" points="238.547,-1126.1 235.047,-1116.1 231.547,-1126.1 238.547,-1126.1"/>
</g>
<!-- 22 -->
<g id="node23" class="node"><title>22</title>
<g id="a_node23"><a xlink:title="22, diversity: 1, multiplicities: 1, labels: 0">
<ellipse fill="#f7fcf5" stroke="black" cx="235.047" cy="-1386" rx="41.6928" ry="18"/>
<text text-anchor="middle" x="235.047" y="-1382.3" font-family="Times,serif" font-size="14.00">22 (1): 0</text>
</a>
</g>
</g>
<!-- 22&#45;&gt;0 -->
<g id="edge26" class="edge"><title>22&#45;&gt;0</title>
<path fill="none" stroke="black" d="M213.627,-1370.15C198.872,-1359.93 179.093,-1346.22 162.945,-1335.03"/>
<polygon fill="black" stroke="black" points="164.615,-1331.93 154.402,-1329.11 160.627,-1337.68 164.615,-1331.93"/>
</g>
<!-- 22&#45;&gt;3 -->
<g id="edge18" class="edge"><title>22&#45;&gt;3</title>
<path fill="none" stroke="black" d="M235.047,-1367.7C235.047,-1359.98 235.047,-1350.71 235.047,-1342.11"/>
<polygon fill="black" stroke="black" points="238.547,-1342.1 235.047,-1332.1 231.547,-1342.1 238.547,-1342.1"/>
</g>
<!-- 22&#45;&gt;5 -->
<g id="edge15" class="edge"><title>22&#45;&gt;5</title>
<path fill="none" stroke="black" d="M255.194,-1370.15C268.853,-1360.09 287.089,-1346.65 302.142,-1335.56"/>
<polygon fill="black" stroke="black" points="304.604,-1338.09 310.578,-1329.35 300.452,-1332.46 304.604,-1338.09"/>
</g>
<!-- 23&#45;&gt;2 -->
<g id="edge13" class="edge"><title>23&#45;&gt;2</title>
<path fill="none" stroke="black" d="M134.047,-143.697C134.047,-135.983 134.047,-126.712 134.047,-118.112"/>
<polygon fill="black" stroke="black" points="137.547,-118.104 134.047,-108.104 130.547,-118.104 137.547,-118.104"/>
</g>
<!-- 24 -->
<g id="node25" class="node"><title>24</title>
<g id="a_node25"><a xlink:title="24, diversity: 1, multiplicities: 1, labels: 0">
<ellipse fill="#f7fcf5" stroke="black" cx="134.047" cy="-738" rx="41.6928" ry="18"/>
<text text-anchor="middle" x="134.047" y="-734.3" font-family="Times,serif" font-size="14.00">24 (1): 0</text>
</a>
</g>
</g>
<!-- 24&#45;&gt;16 -->
<g id="edge1" class="edge"><title>24&#45;&gt;16</title>
<path fill="none" stroke="black" d="M134.047,-719.697C134.047,-711.983 134.047,-702.712 134.047,-694.112"/>
<polygon fill="black" stroke="black" points="137.547,-694.104 134.047,-684.104 130.547,-694.104 137.547,-694.104"/>
</g>
<!-- 25&#45;&gt;13 -->
<g id="edge22" class="edge"><title>25&#45;&gt;13</title>
<path fill="none" stroke="black" d="M134.047,-1151.7C134.047,-1143.98 134.047,-1134.71 134.047,-1126.11"/>
<polygon fill="black" stroke="black" points="137.547,-1126.1 134.047,-1116.1 130.547,-1126.1 137.547,-1126.1"/>
</g>
<!-- 37 -->
<g id="node38" class="node"><title>37</title>
<g id="a_node38"><a xlink:title="37, diversity: 1, multiplicities: 1, labels: 0">
<ellipse fill="#f7fcf5" stroke="black" cx="134.047" cy="-882" rx="41.6928" ry="18"/>
<text text-anchor="middle" x="134.047" y="-878.3" font-family="Times,serif" font-size="14.00">37 (1): 0</text>
</a>
</g>
</g>
<!-- 26&#45;&gt;37 -->
<g id="edge23" class="edge"><title>26&#45;&gt;37</title>
<path fill="none" stroke="black" d="M134.047,-935.697C134.047,-927.983 134.047,-918.712 134.047,-910.112"/>
<polygon fill="black" stroke="black" points="137.547,-910.104 134.047,-900.104 130.547,-910.104 137.547,-910.104"/>
</g>
<!-- 27 -->
<g id="node28" class="node"><title>27</title>
<g id="a_node28"><a xlink:title="27, diversity: 1, multiplicities: 1, labels: 0">
<ellipse fill="#f7fcf5" stroke="black" cx="134.047" cy="-378" rx="41.6928" ry="18"/>
<text text-anchor="middle" x="134.047" y="-374.3" font-family="Times,serif" font-size="14.00">27 (1): 0</text>
</a>
</g>
</g>
<!-- 27&#45;&gt;17 -->
<g id="edge3" class="edge"><title>27&#45;&gt;17</title>
<path fill="none" stroke="black" d="M134.047,-359.697C134.047,-351.983 134.047,-342.712 134.047,-334.112"/>
<polygon fill="black" stroke="black" points="137.547,-334.104 134.047,-324.104 130.547,-334.104 137.547,-334.104"/>
</g>
<!-- 28&#45;&gt;11 -->
<g id="edge29" class="edge"><title>28&#45;&gt;11</title>
<path fill="none" stroke="black" d="M335.552,-1151.7C335.332,-1143.98 335.067,-1134.71 334.821,-1126.11"/>
<polygon fill="black" stroke="black" points="338.32,-1126 334.535,-1116.1 331.323,-1126.2 338.32,-1126"/>
</g>
<!-- 29 -->
<g id="node30" class="node"><title>29</title>
<g id="a_node30"><a xlink:title="29, diversity: 2, multiplicities: 1,36, labels: 0">
<ellipse fill="#f7fcf5" stroke="black" cx="535.047" cy="-1098" rx="41.6928" ry="18"/>
<text text-anchor="middle" x="535.047" y="-1094.3" font-family="Times,serif" font-size="14.00">29 (2): 0</text>
</a>
</g>
</g>
<!-- 30 -->
<g id="node31" class="node"><title>30</title>
<g id="a_node31"><a xlink:title="30, diversity: 1, multiplicities: 24, labels: 0">
<ellipse fill="#f7fcf5" stroke="black" cx="385.047" cy="-1026" rx="41.6928" ry="18"/>
<text text-anchor="middle" x="385.047" y="-1022.3" font-family="Times,serif" font-size="14.00">30 (1): 0</text>
</a>
</g>
</g>
<!-- 29&#45;&gt;30 -->
<g id="edge20" class="edge"><title>29&#45;&gt;30</title>
<path fill="none" stroke="black" d="M507.883,-1084.32C483.746,-1073.06 448.266,-1056.5 421.635,-1044.07"/>
<polygon fill="black" stroke="black" points="422.803,-1040.76 412.262,-1039.7 419.843,-1047.1 422.803,-1040.76"/>
</g>
<!-- 31 -->
<g id="node32" class="node"><title>31</title>
<g id="a_node32"><a xlink:title="31, diversity: 1, multiplicities: 7, labels: 0">
<ellipse fill="#f7fcf5" stroke="black" cx="486.047" cy="-1026" rx="41.6928" ry="18"/>
<text text-anchor="middle" x="486.047" y="-1022.3" font-family="Times,serif" font-size="14.00">31 (1): 0</text>
</a>
</g>
</g>
<!-- 29&#45;&gt;31 -->
<g id="edge11" class="edge"><title>29&#45;&gt;31</title>
<path fill="none" stroke="black" d="M523.434,-1080.41C517.454,-1071.87 510.042,-1061.28 503.398,-1051.79"/>
<polygon fill="black" stroke="black" points="506.178,-1049.66 497.576,-1043.47 500.443,-1053.67 506.178,-1049.66"/>
</g>
<!-- 35 -->
<g id="node36" class="node"><title>35</title>
<g id="a_node36"><a xlink:title="35, diversity: 1, multiplicities: 5, labels: 0">
<ellipse fill="#f7fcf5" stroke="black" cx="587.047" cy="-1026" rx="41.6928" ry="18"/>
<text text-anchor="middle" x="587.047" y="-1022.3" font-family="Times,serif" font-size="14.00">35 (1): 0</text>
</a>
</g>
</g>
<!-- 29&#45;&gt;35 -->
<g id="edge5" class="edge"><title>29&#45;&gt;35</title>
<path fill="none" stroke="black" d="M547.107,-1080.76C553.512,-1072.14 561.519,-1061.36 568.678,-1051.73"/>
<polygon fill="black" stroke="black" points="571.537,-1053.75 574.69,-1043.63 565.918,-1049.57 571.537,-1053.75"/>
</g>
<!-- 36 -->
<g id="node37" class="node"><title>36</title>
<g id="a_node37"><a xlink:title="36, diversity: 1, multiplicities: 1, labels: 0">
<ellipse fill="#f7fcf5" stroke="black" cx="688.047" cy="-1026" rx="41.6928" ry="18"/>
<text text-anchor="middle" x="688.047" y="-1022.3" font-family="Times,serif" font-size="14.00">36 (1): 0</text>
</a>
</g>
</g>
<!-- 29&#45;&gt;36 -->
<g id="edge38" class="edge"><title>29&#45;&gt;36</title>
<path fill="none" stroke="black" d="M562.754,-1084.32C587.558,-1072.98 624.108,-1056.25 651.338,-1043.8"/>
<polygon fill="black" stroke="black" points="652.908,-1046.93 660.546,-1039.58 649.996,-1040.56 652.908,-1046.93"/>
</g>
<!-- 40 -->
<g id="node41" class="node"><title>40</title>
<g id="a_node41"><a xlink:title="40, diversity: 1, multiplicities: 1, labels: 0">
<ellipse fill="#f7fcf5" stroke="black" cx="134.047" cy="-522" rx="41.6928" ry="18"/>
<text text-anchor="middle" x="134.047" y="-518.3" font-family="Times,serif" font-size="14.00">40 (1): 0</text>
</a>
</g>
</g>
<!-- 32&#45;&gt;40 -->
<g id="edge8" class="edge"><title>32&#45;&gt;40</title>
<path fill="none" stroke="black" d="M134.047,-575.697C134.047,-567.983 134.047,-558.712 134.047,-550.112"/>
<polygon fill="black" stroke="black" points="137.547,-550.104 134.047,-540.104 130.547,-550.104 137.547,-550.104"/>
</g>
<!-- 33&#45;&gt;29 -->
<g id="edge25" class="edge"><title>33&#45;&gt;29</title>
<path fill="none" stroke="black" d="M535.047,-1151.7C535.047,-1143.98 535.047,-1134.71 535.047,-1126.11"/>
<polygon fill="black" stroke="black" points="538.547,-1126.1 535.047,-1116.1 531.547,-1126.1 538.547,-1126.1"/>
</g>
<!-- 41 -->
<g id="node42" class="node"><title>41</title>
<g id="a_node42"><a xlink:title="41, diversity: 1, multiplicities: 1, labels: 0">
<ellipse fill="#f7fcf5" stroke="black" cx="735.047" cy="-1098" rx="41.6928" ry="18"/>
<text text-anchor="middle" x="735.047" y="-1094.3" font-family="Times,serif" font-size="14.00">41 (1): 0</text>
</a>
</g>
</g>
<!-- 33&#45;&gt;41 -->
<g id="edge41" class="edge"><title>33&#45;&gt;41</title>
<path fill="none" stroke="black" d="M566.297,-1158.06C600.687,-1146.03 656.103,-1126.63 693.98,-1113.37"/>
<polygon fill="black" stroke="black" points="695.404,-1116.58 703.687,-1109.98 693.092,-1109.98 695.404,-1116.58"/>
</g>
<!-- 34 -->
<g id="node35" class="node"><title>34</title>
<g id="a_node35"><a xlink:title="34, diversity: 1, multiplicities: 43, labels: 0">
<ellipse fill="#f7fcf5" stroke="black" cx="688.047" cy="-954" rx="41.6928" ry="18"/>
<text text-anchor="middle" x="688.047" y="-950.3" font-family="Times,serif" font-size="14.00">34 (1): 0</text>
</a>
</g>
</g>
<!-- 36&#45;&gt;34 -->
<g id="edge7" class="edge"><title>36&#45;&gt;34</title>
<path fill="none" stroke="black" d="M688.047,-1007.7C688.047,-999.983 688.047,-990.712 688.047,-982.112"/>
<polygon fill="black" stroke="black" points="691.547,-982.104 688.047,-972.104 684.547,-982.104 691.547,-982.104"/>
</g>
<!-- 39 -->
<g id="node40" class="node"><title>39</title>
<g id="a_node40"><a xlink:title="39, diversity: 1, multiplicities: 1, labels: 0">
<ellipse fill="#f7fcf5" stroke="black" cx="134.047" cy="-810" rx="41.6928" ry="18"/>
<text text-anchor="middle" x="134.047" y="-806.3" font-family="Times,serif" font-size="14.00">39 (1): 0</text>
</a>
</g>
</g>
<!-- 37&#45;&gt;39 -->
<g id="edge17" class="edge"><title>37&#45;&gt;39</title>
<path fill="none" stroke="black" d="M134.047,-863.697C134.047,-855.983 134.047,-846.712 134.047,-838.112"/>
<polygon fill="black" stroke="black" points="137.547,-838.104 134.047,-828.104 130.547,-838.104 137.547,-838.104"/>
</g>
<!-- 38 -->
<g id="node39" class="node"><title>38</title>
<g id="a_node39"><a xlink:title="38, diversity: 1, multiplicities: 1, labels: 0">
<ellipse fill="#f7fcf5" stroke="black" cx="134.047" cy="-450" rx="41.6928" ry="18"/>
<text text-anchor="middle" x="134.047" y="-446.3" font-family="Times,serif" font-size="14.00">38 (1): 0</text>
</a>
</g>
</g>
<!-- 38&#45;&gt;27 -->
<g id="edge6" class="edge"><title>38&#45;&gt;27</title>
<path fill="none" stroke="black" d="M134.047,-431.697C134.047,-423.983 134.047,-414.712 134.047,-406.112"/>
<polygon fill="black" stroke="black" points="137.547,-406.104 134.047,-396.104 130.547,-406.104 137.547,-406.104"/>
</g>
<!-- 39&#45;&gt;24 -->
<g id="edge21" class="edge"><title>39&#45;&gt;24</title>
<path fill="none" stroke="black" d="M134.047,-791.697C134.047,-783.983 134.047,-774.712 134.047,-766.112"/>
<polygon fill="black" stroke="black" points="137.547,-766.104 134.047,-756.104 130.547,-766.104 137.547,-766.104"/>
</g>
<!-- 40&#45;&gt;38 -->
<g id="edge28" class="edge"><title>40&#45;&gt;38</title>
<path fill="none" stroke="black" d="M134.047,-503.697C134.047,-495.983 134.047,-486.712 134.047,-478.112"/>
<polygon fill="black" stroke="black" points="137.547,-478.104 134.047,-468.104 130.547,-478.104 137.547,-478.104"/>
</g>
<!-- 41&#45;&gt;6 -->
<g id="edge40" class="edge"><title>41&#45;&gt;6</title>
<path fill="none" stroke="black" d="M746.896,-1080.41C752.998,-1071.87 760.562,-1061.28 767.341,-1051.79"/>
<polygon fill="black" stroke="black" points="770.318,-1053.64 773.282,-1043.47 764.622,-1049.57 770.318,-1053.64"/>
</g>
</g>
</svg>
