<?xml version="1.0" encoding="UTF-8" standalone="no"?>
<!DOCTYPE svg PUBLIC "-//W3C//DTD SVG 1.1//EN"
 "http://www.w3.org/Graphics/SVG/1.1/DTD/svg11.dtd">
<!-- Generated by graphviz version 2.38.0 (20140413.2041)
 -->
<!-- Title: %3 Pages: 1 -->
<svg width="442pt" height="2132pt"
 viewBox="0.00 0.00 442.19 2132.00" xmlns="http://www.w3.org/2000/svg" xmlns:xlink="http://www.w3.org/1999/xlink">
<g id="graph0" class="graph" transform="scale(1 1) rotate(0) translate(4 2128)">
<title>%3</title>
<polygon fill="white" stroke="none" points="-4,4 -4,-2128 438.193,-2128 438.193,4 -4,4"/>
<!-- 0 -->
<g id="node1" class="node"><title>0</title>
<g id="a_node1"><a xlink:title="0, diversity: 1, multiplicities: 1, labels: 0">
<ellipse fill="#f7fcf5" stroke="black" cx="142.596" cy="-954" rx="37.0935" ry="18"/>
<text text-anchor="middle" x="142.596" y="-950.3" font-family="Times,serif" font-size="14.00">0 (1): 0</text>
</a>
</g>
</g>
<!-- 2 -->
<g id="node3" class="node"><title>2</title>
<g id="a_node3"><a xlink:title="2, diversity: 2, multiplicities: 1,1, labels: 0">
<ellipse fill="#f7fcf5" stroke="black" cx="142.596" cy="-882" rx="37.0935" ry="18"/>
<text text-anchor="middle" x="142.596" y="-878.3" font-family="Times,serif" font-size="14.00">2 (2): 0</text>
</a>
</g>
</g>
<!-- 0&#45;&gt;2 -->
<g id="edge41" class="edge"><title>0&#45;&gt;2</title>
<path fill="none" stroke="black" d="M142.596,-935.697C142.596,-927.983 142.596,-918.712 142.596,-910.112"/>
<polygon fill="black" stroke="black" points="146.096,-910.104 142.596,-900.104 139.096,-910.104 146.096,-910.104"/>
</g>
<!-- 1 -->
<g id="node2" class="node"><title>1</title>
<g id="a_node2"><a xlink:title="1, diversity: 1, multiplicities: 37, labels: 0">
<ellipse fill="#f7fcf5" stroke="black" cx="50.5963" cy="-1458" rx="37.0935" ry="18"/>
<text text-anchor="middle" x="50.5963" y="-1454.3" font-family="Times,serif" font-size="14.00">1 (1): 0</text>
</a>
</g>
</g>
<!-- 26 -->
<g id="node27" class="node"><title>26</title>
<g id="a_node27"><a xlink:title="26, diversity: 1, multiplicities: 1, labels: 0">
<ellipse fill="#f7fcf5" stroke="black" cx="142.596" cy="-810" rx="41.6928" ry="18"/>
<text text-anchor="middle" x="142.596" y="-806.3" font-family="Times,serif" font-size="14.00">26 (1): 0</text>
</a>
</g>
</g>
<!-- 2&#45;&gt;26 -->
<g id="edge14" class="edge"><title>2&#45;&gt;26</title>
<path fill="none" stroke="black" d="M142.596,-863.697C142.596,-855.983 142.596,-846.712 142.596,-838.112"/>
<polygon fill="black" stroke="black" points="146.096,-838.104 142.596,-828.104 139.096,-838.104 146.096,-838.104"/>
</g>
<!-- 3 -->
<g id="node4" class="node"><title>3</title>
<g id="a_node4"><a xlink:title="3, diversity: 4, multiplicities: 2,3,17,296, labels: 0">
<ellipse fill="#f7fcf5" stroke="black" cx="142.596" cy="-1170" rx="37.0935" ry="18"/>
<text text-anchor="middle" x="142.596" y="-1166.3" font-family="Times,serif" font-size="14.00">3 (4): 0</text>
</a>
</g>
</g>
<!-- 11 -->
<g id="node12" class="node"><title>11</title>
<g id="a_node12"><a xlink:title="11, diversity: 2, multiplicities: 6,15, labels: 0">
<ellipse fill="#f7fcf5" stroke="black" cx="142.596" cy="-1098" rx="41.6928" ry="18"/>
<text text-anchor="middle" x="142.596" y="-1094.3" font-family="Times,serif" font-size="14.00">11 (2): 0</text>
</a>
</g>
</g>
<!-- 3&#45;&gt;11 -->
<g id="edge5" class="edge"><title>3&#45;&gt;11</title>
<path fill="none" stroke="black" d="M142.596,-1151.7C142.596,-1143.98 142.596,-1134.71 142.596,-1126.11"/>
<polygon fill="black" stroke="black" points="146.096,-1126.1 142.596,-1116.1 139.096,-1126.1 146.096,-1126.1"/>
</g>
<!-- 4 -->
<g id="node5" class="node"><title>4</title>
<g id="a_node5"><a xlink:title="4, diversity: 2, multiplicities: 8,110, labels: 0">
<ellipse fill="#f7fcf5" stroke="black" cx="344.596" cy="-1314" rx="37.0935" ry="18"/>
<text text-anchor="middle" x="344.596" y="-1310.3" font-family="Times,serif" font-size="14.00">4 (2): 0</text>
</a>
</g>
</g>
<!-- 9 -->
<g id="node10" class="node"><title>9</title>
<g id="a_node10"><a xlink:title="9, diversity: 1, multiplicities: 17, labels: 0">
<ellipse fill="#f7fcf5" stroke="black" cx="295.596" cy="-1242" rx="37.0935" ry="18"/>
<text text-anchor="middle" x="295.596" y="-1238.3" font-family="Times,serif" font-size="14.00">9 (1): 0</text>
</a>
</g>
</g>
<!-- 4&#45;&gt;9 -->
<g id="edge17" class="edge"><title>4&#45;&gt;9</title>
<path fill="none" stroke="black" d="M333.232,-1296.76C327.171,-1288.11 319.587,-1277.27 312.819,-1267.6"/>
<polygon fill="black" stroke="black" points="315.501,-1265.33 306.899,-1259.15 309.767,-1269.35 315.501,-1265.33"/>
</g>
<!-- 10 -->
<g id="node11" class="node"><title>10</title>
<g id="a_node11"><a xlink:title="10, diversity: 1, multiplicities: 7, labels: 0">
<ellipse fill="#f7fcf5" stroke="black" cx="392.596" cy="-1242" rx="41.6928" ry="18"/>
<text text-anchor="middle" x="392.596" y="-1238.3" font-family="Times,serif" font-size="14.00">10 (1): 0</text>
</a>
</g>
</g>
<!-- 4&#45;&gt;10 -->
<g id="edge25" class="edge"><title>4&#45;&gt;10</title>
<path fill="none" stroke="black" d="M355.729,-1296.76C361.581,-1288.23 368.883,-1277.58 375.44,-1268.02"/>
<polygon fill="black" stroke="black" points="378.422,-1269.86 381.191,-1259.63 372.649,-1265.9 378.422,-1269.86"/>
</g>
<!-- 5 -->
<g id="node6" class="node"><title>5</title>
<g id="a_node6"><a xlink:title="5, diversity: 3, multiplicities: 1,2,12, labels: 0">
<ellipse fill="#f7fcf5" stroke="black" cx="142.596" cy="-1602" rx="37.0935" ry="18"/>
<text text-anchor="middle" x="142.596" y="-1598.3" font-family="Times,serif" font-size="14.00">5 (3): 0</text>
</a>
</g>
</g>
<!-- 6 -->
<g id="node7" class="node"><title>6</title>
<g id="a_node7"><a xlink:title="6, diversity: 1, multiplicities: 27, labels: 0">
<ellipse fill="#f7fcf5" stroke="black" cx="142.596" cy="-1530" rx="37.0935" ry="18"/>
<text text-anchor="middle" x="142.596" y="-1526.3" font-family="Times,serif" font-size="14.00">6 (1): 0</text>
</a>
</g>
</g>
<!-- 5&#45;&gt;6 -->
<g id="edge3" class="edge"><title>5&#45;&gt;6</title>
<path fill="none" stroke="black" d="M142.596,-1583.7C142.596,-1575.98 142.596,-1566.71 142.596,-1558.11"/>
<polygon fill="black" stroke="black" points="146.096,-1558.1 142.596,-1548.1 139.096,-1558.1 146.096,-1558.1"/>
</g>
<!-- 6&#45;&gt;1 -->
<g id="edge34" class="edge"><title>6&#45;&gt;1</title>
<path fill="none" stroke="black" d="M123.534,-1514.5C110.335,-1504.45 92.5672,-1490.93 77.8731,-1479.75"/>
<polygon fill="black" stroke="black" points="79.712,-1476.76 69.6343,-1473.49 75.4733,-1482.33 79.712,-1476.76"/>
</g>
<!-- 8 -->
<g id="node9" class="node"><title>8</title>
<g id="a_node9"><a xlink:title="8, diversity: 3, multiplicities: 2,3,25, labels: 0">
<ellipse fill="#f7fcf5" stroke="black" cx="142.596" cy="-1458" rx="37.0935" ry="18"/>
<text text-anchor="middle" x="142.596" y="-1454.3" font-family="Times,serif" font-size="14.00">8 (3): 0</text>
</a>
</g>
</g>
<!-- 6&#45;&gt;8 -->
<g id="edge33" class="edge"><title>6&#45;&gt;8</title>
<path fill="none" stroke="black" d="M142.596,-1511.7C142.596,-1503.98 142.596,-1494.71 142.596,-1486.11"/>
<polygon fill="black" stroke="black" points="146.096,-1486.1 142.596,-1476.1 139.096,-1486.1 146.096,-1486.1"/>
</g>
<!-- 17 -->
<g id="node18" class="node"><title>17</title>
<g id="a_node18"><a xlink:title="17, diversity: 1, multiplicities: 12, labels: 0">
<ellipse fill="#f7fcf5" stroke="black" cx="243.596" cy="-1458" rx="41.6928" ry="18"/>
<text text-anchor="middle" x="243.596" y="-1454.3" font-family="Times,serif" font-size="14.00">17 (1): 0</text>
</a>
</g>
</g>
<!-- 6&#45;&gt;17 -->
<g id="edge12" class="edge"><title>6&#45;&gt;17</title>
<path fill="none" stroke="black" d="M163.035,-1514.83C177.626,-1504.72 197.48,-1490.96 213.827,-1479.63"/>
<polygon fill="black" stroke="black" points="216.267,-1482.2 222.493,-1473.63 212.28,-1476.45 216.267,-1482.2"/>
</g>
<!-- 7 -->
<g id="node8" class="node"><title>7</title>
<g id="a_node8"><a xlink:title="7, diversity: 1, multiplicities: 1, labels: 0">
<ellipse fill="#f7fcf5" stroke="black" cx="142.596" cy="-666" rx="37.0935" ry="18"/>
<text text-anchor="middle" x="142.596" y="-662.3" font-family="Times,serif" font-size="14.00">7 (1): 0</text>
</a>
</g>
</g>
<!-- 31 -->
<g id="node32" class="node"><title>31</title>
<g id="a_node32"><a xlink:title="31, diversity: 1, multiplicities: 1, labels: 0">
<ellipse fill="#f7fcf5" stroke="black" cx="142.596" cy="-594" rx="41.6928" ry="18"/>
<text text-anchor="middle" x="142.596" y="-590.3" font-family="Times,serif" font-size="14.00">31 (1): 0</text>
</a>
</g>
</g>
<!-- 7&#45;&gt;31 -->
<g id="edge30" class="edge"><title>7&#45;&gt;31</title>
<path fill="none" stroke="black" d="M142.596,-647.697C142.596,-639.983 142.596,-630.712 142.596,-622.112"/>
<polygon fill="black" stroke="black" points="146.096,-622.104 142.596,-612.104 139.096,-622.104 146.096,-622.104"/>
</g>
<!-- 14 -->
<g id="node15" class="node"><title>14</title>
<g id="a_node15"><a xlink:title="14, diversity: 1, multiplicities: 11, labels: 0">
<ellipse fill="#f7fcf5" stroke="black" cx="41.5963" cy="-1386" rx="41.6928" ry="18"/>
<text text-anchor="middle" x="41.5963" y="-1382.3" font-family="Times,serif" font-size="14.00">14 (1): 0</text>
</a>
</g>
</g>
<!-- 8&#45;&gt;14 -->
<g id="edge15" class="edge"><title>8&#45;&gt;14</title>
<path fill="none" stroke="black" d="M122.157,-1442.83C107.567,-1432.72 87.7126,-1418.96 71.3653,-1407.63"/>
<polygon fill="black" stroke="black" points="72.9128,-1404.45 62.7,-1401.63 68.9253,-1410.2 72.9128,-1404.45"/>
</g>
<!-- 15 -->
<g id="node16" class="node"><title>15</title>
<g id="a_node16"><a xlink:title="15, diversity: 1, multiplicities: 1, labels: 0">
<ellipse fill="#f7fcf5" stroke="black" cx="142.596" cy="-1386" rx="41.6928" ry="18"/>
<text text-anchor="middle" x="142.596" y="-1382.3" font-family="Times,serif" font-size="14.00">15 (1): 0</text>
</a>
</g>
</g>
<!-- 8&#45;&gt;15 -->
<g id="edge24" class="edge"><title>8&#45;&gt;15</title>
<path fill="none" stroke="black" d="M142.596,-1439.7C142.596,-1431.98 142.596,-1422.71 142.596,-1414.11"/>
<polygon fill="black" stroke="black" points="146.096,-1414.1 142.596,-1404.1 139.096,-1414.1 146.096,-1414.1"/>
</g>
<!-- 23 -->
<g id="node24" class="node"><title>23</title>
<g id="a_node24"><a xlink:title="23, diversity: 1, multiplicities: 3, labels: 0">
<ellipse fill="#f7fcf5" stroke="black" cx="142.596" cy="-1026" rx="41.6928" ry="18"/>
<text text-anchor="middle" x="142.596" y="-1022.3" font-family="Times,serif" font-size="14.00">23 (1): 0</text>
</a>
</g>
</g>
<!-- 11&#45;&gt;23 -->
<g id="edge7" class="edge"><title>11&#45;&gt;23</title>
<path fill="none" stroke="black" d="M142.596,-1079.7C142.596,-1071.98 142.596,-1062.71 142.596,-1054.11"/>
<polygon fill="black" stroke="black" points="146.096,-1054.1 142.596,-1044.1 139.096,-1054.1 146.096,-1054.1"/>
</g>
<!-- 12 -->
<g id="node13" class="node"><title>12</title>
<g id="a_node13"><a xlink:title="12, diversity: 1, multiplicities: 8, labels: 0">
<ellipse fill="#f7fcf5" stroke="black" cx="142.596" cy="-18" rx="41.6928" ry="18"/>
<text text-anchor="middle" x="142.596" y="-14.3" font-family="Times,serif" font-size="14.00">12 (1): 0</text>
</a>
</g>
</g>
<!-- 13 -->
<g id="node14" class="node"><title>13</title>
<g id="a_node14"><a xlink:title="13, diversity: 1, multiplicities: 19, labels: 0">
<ellipse fill="#f7fcf5" stroke="black" cx="243.596" cy="-1386" rx="41.6928" ry="18"/>
<text text-anchor="middle" x="243.596" y="-1382.3" font-family="Times,serif" font-size="14.00">13 (1): 0</text>
</a>
</g>
</g>
<!-- 27 -->
<g id="node28" class="node"><title>27</title>
<g id="a_node28"><a xlink:title="27, diversity: 1, multiplicities: 1, labels: 0">
<ellipse fill="#f7fcf5" stroke="black" cx="142.596" cy="-1314" rx="41.6928" ry="18"/>
<text text-anchor="middle" x="142.596" y="-1310.3" font-family="Times,serif" font-size="14.00">27 (1): 0</text>
</a>
</g>
</g>
<!-- 15&#45;&gt;27 -->
<g id="edge1" class="edge"><title>15&#45;&gt;27</title>
<path fill="none" stroke="black" d="M142.596,-1367.7C142.596,-1359.98 142.596,-1350.71 142.596,-1342.11"/>
<polygon fill="black" stroke="black" points="146.096,-1342.1 142.596,-1332.1 139.096,-1342.1 146.096,-1342.1"/>
</g>
<!-- 16 -->
<g id="node17" class="node"><title>16</title>
<g id="a_node17"><a xlink:title="16, diversity: 2, multiplicities: 1,3, labels: 0">
<ellipse fill="#f7fcf5" stroke="black" cx="142.596" cy="-1746" rx="41.6928" ry="18"/>
<text text-anchor="middle" x="142.596" y="-1742.3" font-family="Times,serif" font-size="14.00">16 (2): 0</text>
</a>
</g>
</g>
<!-- 21 -->
<g id="node22" class="node"><title>21</title>
<g id="a_node22"><a xlink:title="21, diversity: 1, multiplicities: 1, labels: 0">
<ellipse fill="#f7fcf5" stroke="black" cx="142.596" cy="-1674" rx="41.6928" ry="18"/>
<text text-anchor="middle" x="142.596" y="-1670.3" font-family="Times,serif" font-size="14.00">21 (1): 0</text>
</a>
</g>
</g>
<!-- 16&#45;&gt;21 -->
<g id="edge8" class="edge"><title>16&#45;&gt;21</title>
<path fill="none" stroke="black" d="M142.596,-1727.7C142.596,-1719.98 142.596,-1710.71 142.596,-1702.11"/>
<polygon fill="black" stroke="black" points="146.096,-1702.1 142.596,-1692.1 139.096,-1702.1 146.096,-1702.1"/>
</g>
<!-- 17&#45;&gt;13 -->
<g id="edge32" class="edge"><title>17&#45;&gt;13</title>
<path fill="none" stroke="black" d="M243.596,-1439.7C243.596,-1431.98 243.596,-1422.71 243.596,-1414.11"/>
<polygon fill="black" stroke="black" points="247.096,-1414.1 243.596,-1404.1 240.096,-1414.1 247.096,-1414.1"/>
</g>
<!-- 32 -->
<g id="node33" class="node"><title>32</title>
<g id="a_node33"><a xlink:title="32, diversity: 1, multiplicities: 1, labels: 0">
<ellipse fill="#f7fcf5" stroke="black" cx="344.596" cy="-1386" rx="41.6928" ry="18"/>
<text text-anchor="middle" x="344.596" y="-1382.3" font-family="Times,serif" font-size="14.00">32 (1): 0</text>
</a>
</g>
</g>
<!-- 17&#45;&gt;32 -->
<g id="edge28" class="edge"><title>17&#45;&gt;32</title>
<path fill="none" stroke="black" d="M265.016,-1442.15C279.575,-1432.06 299.027,-1418.58 315.055,-1407.47"/>
<polygon fill="black" stroke="black" points="317.329,-1410.16 323.554,-1401.58 313.341,-1404.4 317.329,-1410.16"/>
</g>
<!-- 18 -->
<g id="node19" class="node"><title>18</title>
<g id="a_node19"><a xlink:title="18, diversity: 1, multiplicities: 1, labels: 0">
<ellipse fill="#f7fcf5" stroke="black" cx="142.596" cy="-90" rx="41.6928" ry="18"/>
<text text-anchor="middle" x="142.596" y="-86.3" font-family="Times,serif" font-size="14.00">18 (1): 0</text>
</a>
</g>
</g>
<!-- 18&#45;&gt;12 -->
<g id="edge18" class="edge"><title>18&#45;&gt;12</title>
<path fill="none" stroke="black" d="M142.596,-71.6966C142.596,-63.9827 142.596,-54.7125 142.596,-46.1124"/>
<polygon fill="black" stroke="black" points="146.096,-46.1043 142.596,-36.1043 139.096,-46.1044 146.096,-46.1043"/>
</g>
<!-- 19 -->
<g id="node20" class="node"><title>19</title>
<g id="a_node20"><a xlink:title="19, diversity: 1, multiplicities: 4, labels: 0">
<ellipse fill="#f7fcf5" stroke="black" cx="142.596" cy="-162" rx="41.6928" ry="18"/>
<text text-anchor="middle" x="142.596" y="-158.3" font-family="Times,serif" font-size="14.00">19 (1): 0</text>
</a>
</g>
</g>
<!-- 19&#45;&gt;18 -->
<g id="edge16" class="edge"><title>19&#45;&gt;18</title>
<path fill="none" stroke="black" d="M142.596,-143.697C142.596,-135.983 142.596,-126.712 142.596,-118.112"/>
<polygon fill="black" stroke="black" points="146.096,-118.104 142.596,-108.104 139.096,-118.104 146.096,-118.104"/>
</g>
<!-- 20 -->
<g id="node21" class="node"><title>20</title>
<g id="a_node21"><a xlink:title="20, diversity: 1, multiplicities: 4, labels: 0">
<ellipse fill="#f7fcf5" stroke="black" cx="142.596" cy="-450" rx="41.6928" ry="18"/>
<text text-anchor="middle" x="142.596" y="-446.3" font-family="Times,serif" font-size="14.00">20 (1): 0</text>
</a>
</g>
</g>
<!-- 25 -->
<g id="node26" class="node"><title>25</title>
<g id="a_node26"><a xlink:title="25, diversity: 1, multiplicities: 1, labels: 0">
<ellipse fill="#f7fcf5" stroke="black" cx="142.596" cy="-378" rx="41.6928" ry="18"/>
<text text-anchor="middle" x="142.596" y="-374.3" font-family="Times,serif" font-size="14.00">25 (1): 0</text>
</a>
</g>
</g>
<!-- 20&#45;&gt;25 -->
<g id="edge2" class="edge"><title>20&#45;&gt;25</title>
<path fill="none" stroke="black" d="M142.596,-431.697C142.596,-423.983 142.596,-414.712 142.596,-406.112"/>
<polygon fill="black" stroke="black" points="146.096,-406.104 142.596,-396.104 139.096,-406.104 146.096,-406.104"/>
</g>
<!-- 21&#45;&gt;5 -->
<g id="edge20" class="edge"><title>21&#45;&gt;5</title>
<path fill="none" stroke="black" d="M142.596,-1655.7C142.596,-1647.98 142.596,-1638.71 142.596,-1630.11"/>
<polygon fill="black" stroke="black" points="146.096,-1630.1 142.596,-1620.1 139.096,-1630.1 146.096,-1630.1"/>
</g>
<!-- 22 -->
<g id="node23" class="node"><title>22</title>
<g id="a_node23"><a xlink:title="22, diversity: 1, multiplicities: 2, labels: 0">
<ellipse fill="#f7fcf5" stroke="black" cx="142.596" cy="-738" rx="41.6928" ry="18"/>
<text text-anchor="middle" x="142.596" y="-734.3" font-family="Times,serif" font-size="14.00">22 (1): 0</text>
</a>
</g>
</g>
<!-- 22&#45;&gt;7 -->
<g id="edge19" class="edge"><title>22&#45;&gt;7</title>
<path fill="none" stroke="black" d="M142.596,-719.697C142.596,-711.983 142.596,-702.712 142.596,-694.112"/>
<polygon fill="black" stroke="black" points="146.096,-694.104 142.596,-684.104 139.096,-694.104 146.096,-694.104"/>
</g>
<!-- 23&#45;&gt;0 -->
<g id="edge38" class="edge"><title>23&#45;&gt;0</title>
<path fill="none" stroke="black" d="M142.596,-1007.7C142.596,-999.983 142.596,-990.712 142.596,-982.112"/>
<polygon fill="black" stroke="black" points="146.096,-982.104 142.596,-972.104 139.096,-982.104 146.096,-982.104"/>
</g>
<!-- 24 -->
<g id="node25" class="node"><title>24</title>
<g id="a_node25"><a xlink:title="24, diversity: 1, multiplicities: 2, labels: 0">
<ellipse fill="#f7fcf5" stroke="black" cx="142.596" cy="-234" rx="41.6928" ry="18"/>
<text text-anchor="middle" x="142.596" y="-230.3" font-family="Times,serif" font-size="14.00">24 (1): 0</text>
</a>
</g>
</g>
<!-- 24&#45;&gt;19 -->
<g id="edge26" class="edge"><title>24&#45;&gt;19</title>
<path fill="none" stroke="black" d="M142.596,-215.697C142.596,-207.983 142.596,-198.712 142.596,-190.112"/>
<polygon fill="black" stroke="black" points="146.096,-190.104 142.596,-180.104 139.096,-190.104 146.096,-190.104"/>
</g>
<!-- 30 -->
<g id="node31" class="node"><title>30</title>
<g id="a_node31"><a xlink:title="30, diversity: 1, multiplicities: 1, labels: 0">
<ellipse fill="#f7fcf5" stroke="black" cx="142.596" cy="-306" rx="41.6928" ry="18"/>
<text text-anchor="middle" x="142.596" y="-302.3" font-family="Times,serif" font-size="14.00">30 (1): 0</text>
</a>
</g>
</g>
<!-- 25&#45;&gt;30 -->
<g id="edge37" class="edge"><title>25&#45;&gt;30</title>
<path fill="none" stroke="black" d="M142.596,-359.697C142.596,-351.983 142.596,-342.712 142.596,-334.112"/>
<polygon fill="black" stroke="black" points="146.096,-334.104 142.596,-324.104 139.096,-334.104 146.096,-334.104"/>
</g>
<!-- 26&#45;&gt;22 -->
<g id="edge35" class="edge"><title>26&#45;&gt;22</title>
<path fill="none" stroke="black" d="M142.596,-791.697C142.596,-783.983 142.596,-774.712 142.596,-766.112"/>
<polygon fill="black" stroke="black" points="146.096,-766.104 142.596,-756.104 139.096,-766.104 146.096,-766.104"/>
</g>
<!-- 29 -->
<g id="node30" class="node"><title>29</title>
<g id="a_node30"><a xlink:title="29, diversity: 1, multiplicities: 1, labels: 0">
<ellipse fill="#f7fcf5" stroke="black" cx="142.596" cy="-1242" rx="41.6928" ry="18"/>
<text text-anchor="middle" x="142.596" y="-1238.3" font-family="Times,serif" font-size="14.00">29 (1): 0</text>
</a>
</g>
</g>
<!-- 27&#45;&gt;29 -->
<g id="edge22" class="edge"><title>27&#45;&gt;29</title>
<path fill="none" stroke="black" d="M142.596,-1295.7C142.596,-1287.98 142.596,-1278.71 142.596,-1270.11"/>
<polygon fill="black" stroke="black" points="146.096,-1270.1 142.596,-1260.1 139.096,-1270.1 146.096,-1270.1"/>
</g>
<!-- 28 -->
<g id="node29" class="node"><title>28</title>
<g id="a_node29"><a xlink:title="28, diversity: 2, multiplicities: 1,2, labels: 0">
<ellipse fill="#f7fcf5" stroke="black" cx="142.596" cy="-1818" rx="41.6928" ry="18"/>
<text text-anchor="middle" x="142.596" y="-1814.3" font-family="Times,serif" font-size="14.00">28 (2): 0</text>
</a>
</g>
</g>
<!-- 28&#45;&gt;16 -->
<g id="edge27" class="edge"><title>28&#45;&gt;16</title>
<path fill="none" stroke="black" d="M142.596,-1799.7C142.596,-1791.98 142.596,-1782.71 142.596,-1774.11"/>
<polygon fill="black" stroke="black" points="146.096,-1774.1 142.596,-1764.1 139.096,-1774.1 146.096,-1774.1"/>
</g>
<!-- 29&#45;&gt;3 -->
<g id="edge21" class="edge"><title>29&#45;&gt;3</title>
<path fill="none" stroke="black" d="M142.596,-1223.7C142.596,-1215.98 142.596,-1206.71 142.596,-1198.11"/>
<polygon fill="black" stroke="black" points="146.096,-1198.1 142.596,-1188.1 139.096,-1198.1 146.096,-1198.1"/>
</g>
<!-- 30&#45;&gt;24 -->
<g id="edge23" class="edge"><title>30&#45;&gt;24</title>
<path fill="none" stroke="black" d="M142.596,-287.697C142.596,-279.983 142.596,-270.712 142.596,-262.112"/>
<polygon fill="black" stroke="black" points="146.096,-262.104 142.596,-252.104 139.096,-262.104 146.096,-262.104"/>
</g>
<!-- 42 -->
<g id="node43" class="node"><title>42</title>
<g id="a_node43"><a xlink:title="42, diversity: 1, multiplicities: 1, labels: 0">
<ellipse fill="#f7fcf5" stroke="black" cx="142.596" cy="-522" rx="41.6928" ry="18"/>
<text text-anchor="middle" x="142.596" y="-518.3" font-family="Times,serif" font-size="14.00">42 (1): 0</text>
</a>
</g>
</g>
<!-- 31&#45;&gt;42 -->
<g id="edge39" class="edge"><title>31&#45;&gt;42</title>
<path fill="none" stroke="black" d="M142.596,-575.697C142.596,-567.983 142.596,-558.712 142.596,-550.112"/>
<polygon fill="black" stroke="black" points="146.096,-550.104 142.596,-540.104 139.096,-550.104 146.096,-550.104"/>
</g>
<!-- 32&#45;&gt;4 -->
<g id="edge31" class="edge"><title>32&#45;&gt;4</title>
<path fill="none" stroke="black" d="M344.596,-1367.7C344.596,-1359.98 344.596,-1350.71 344.596,-1342.11"/>
<polygon fill="black" stroke="black" points="348.096,-1342.1 344.596,-1332.1 341.096,-1342.1 348.096,-1342.1"/>
</g>
<!-- 33 -->
<g id="node34" class="node"><title>33</title>
<g id="a_node34"><a xlink:title="33, diversity: 2, multiplicities: 2,60, labels: 0">
<ellipse fill="#f7fcf5" stroke="black" cx="344.596" cy="-1962" rx="41.6928" ry="18"/>
<text text-anchor="middle" x="344.596" y="-1958.3" font-family="Times,serif" font-size="14.00">33 (2): 0</text>
</a>
</g>
</g>
<!-- 36 -->
<g id="node37" class="node"><title>36</title>
<g id="a_node37"><a xlink:title="36, diversity: 1, multiplicities: 25, labels: 0">
<ellipse fill="#f7fcf5" stroke="black" cx="344.596" cy="-1890" rx="41.6928" ry="18"/>
<text text-anchor="middle" x="344.596" y="-1886.3" font-family="Times,serif" font-size="14.00">36 (1): 0</text>
</a>
</g>
</g>
<!-- 33&#45;&gt;36 -->
<g id="edge6" class="edge"><title>33&#45;&gt;36</title>
<path fill="none" stroke="black" d="M344.596,-1943.7C344.596,-1935.98 344.596,-1926.71 344.596,-1918.11"/>
<polygon fill="black" stroke="black" points="348.096,-1918.1 344.596,-1908.1 341.096,-1918.1 348.096,-1918.1"/>
</g>
<!-- 34 -->
<g id="node35" class="node"><title>34</title>
<g id="a_node35"><a xlink:title="34, diversity: 1, multiplicities: 15, labels: 0">
<ellipse fill="#f7fcf5" stroke="black" cx="344.596" cy="-1818" rx="41.6928" ry="18"/>
<text text-anchor="middle" x="344.596" y="-1814.3" font-family="Times,serif" font-size="14.00">34 (1): 0</text>
</a>
</g>
</g>
<!-- 35 -->
<g id="node36" class="node"><title>35</title>
<g id="a_node36"><a xlink:title="35, diversity: 1, multiplicities: 3, labels: 0">
<ellipse fill="#f7fcf5" stroke="black" cx="243.596" cy="-2034" rx="41.6928" ry="18"/>
<text text-anchor="middle" x="243.596" y="-2030.3" font-family="Times,serif" font-size="14.00">35 (1): 0</text>
</a>
</g>
</g>
<!-- 39 -->
<g id="node40" class="node"><title>39</title>
<g id="a_node40"><a xlink:title="39, diversity: 1, multiplicities: 1, labels: 0">
<ellipse fill="#f7fcf5" stroke="black" cx="243.596" cy="-1962" rx="41.6928" ry="18"/>
<text text-anchor="middle" x="243.596" y="-1958.3" font-family="Times,serif" font-size="14.00">39 (1): 0</text>
</a>
</g>
</g>
<!-- 35&#45;&gt;39 -->
<g id="edge10" class="edge"><title>35&#45;&gt;39</title>
<path fill="none" stroke="black" d="M243.596,-2015.7C243.596,-2007.98 243.596,-1998.71 243.596,-1990.11"/>
<polygon fill="black" stroke="black" points="247.096,-1990.1 243.596,-1980.1 240.096,-1990.1 247.096,-1990.1"/>
</g>
<!-- 36&#45;&gt;34 -->
<g id="edge11" class="edge"><title>36&#45;&gt;34</title>
<path fill="none" stroke="black" d="M344.596,-1871.7C344.596,-1863.98 344.596,-1854.71 344.596,-1846.11"/>
<polygon fill="black" stroke="black" points="348.096,-1846.1 344.596,-1836.1 341.096,-1846.1 348.096,-1846.1"/>
</g>
<!-- 37 -->
<g id="node38" class="node"><title>37</title>
<g id="a_node38"><a xlink:title="37, diversity: 2, multiplicities: 1,1, labels: 0">
<ellipse fill="#f7fcf5" stroke="black" cx="344.596" cy="-2034" rx="41.6928" ry="18"/>
<text text-anchor="middle" x="344.596" y="-2030.3" font-family="Times,serif" font-size="14.00">37 (2): 0</text>
</a>
</g>
</g>
<!-- 37&#45;&gt;33 -->
<g id="edge42" class="edge"><title>37&#45;&gt;33</title>
<path fill="none" stroke="black" d="M344.596,-2015.7C344.596,-2007.98 344.596,-1998.71 344.596,-1990.11"/>
<polygon fill="black" stroke="black" points="348.096,-1990.1 344.596,-1980.1 341.096,-1990.1 348.096,-1990.1"/>
</g>
<!-- 38 -->
<g id="node39" class="node"><title>38</title>
<g id="a_node39"><a xlink:title="38, diversity: 1, multiplicities: 4, labels: 0">
<ellipse fill="#f7fcf5" stroke="black" cx="293.596" cy="-2106" rx="41.6928" ry="18"/>
<text text-anchor="middle" x="293.596" y="-2102.3" font-family="Times,serif" font-size="14.00">38 (1): 0</text>
</a>
</g>
</g>
<!-- 38&#45;&gt;35 -->
<g id="edge36" class="edge"><title>38&#45;&gt;35</title>
<path fill="none" stroke="black" d="M281.747,-2088.41C275.645,-2079.87 268.081,-2069.28 261.302,-2059.79"/>
<polygon fill="black" stroke="black" points="264.021,-2057.57 255.361,-2051.47 258.325,-2061.64 264.021,-2057.57"/>
</g>
<!-- 38&#45;&gt;37 -->
<g id="edge13" class="edge"><title>38&#45;&gt;37</title>
<path fill="none" stroke="black" d="M305.683,-2088.41C311.907,-2079.87 319.622,-2069.28 326.537,-2059.79"/>
<polygon fill="black" stroke="black" points="329.537,-2061.61 332.597,-2051.47 323.879,-2057.49 329.537,-2061.61"/>
</g>
<!-- 41 -->
<g id="node42" class="node"><title>41</title>
<g id="a_node42"><a xlink:title="41, diversity: 2, multiplicities: 1,2, labels: 0">
<ellipse fill="#f7fcf5" stroke="black" cx="243.596" cy="-1890" rx="41.6928" ry="18"/>
<text text-anchor="middle" x="243.596" y="-1886.3" font-family="Times,serif" font-size="14.00">41 (2): 0</text>
</a>
</g>
</g>
<!-- 39&#45;&gt;41 -->
<g id="edge40" class="edge"><title>39&#45;&gt;41</title>
<path fill="none" stroke="black" d="M243.596,-1943.7C243.596,-1935.98 243.596,-1926.71 243.596,-1918.11"/>
<polygon fill="black" stroke="black" points="247.096,-1918.1 243.596,-1908.1 240.096,-1918.1 247.096,-1918.1"/>
</g>
<!-- 40 -->
<g id="node41" class="node"><title>40</title>
<g id="a_node41"><a xlink:title="40, diversity: 1, multiplicities: 18, labels: 0">
<ellipse fill="#f7fcf5" stroke="black" cx="243.596" cy="-1818" rx="41.6928" ry="18"/>
<text text-anchor="middle" x="243.596" y="-1814.3" font-family="Times,serif" font-size="14.00">40 (1): 0</text>
</a>
</g>
</g>
<!-- 41&#45;&gt;28 -->
<g id="edge29" class="edge"><title>41&#45;&gt;28</title>
<path fill="none" stroke="black" d="M222.177,-1874.15C207.617,-1864.06 188.165,-1850.58 172.138,-1839.47"/>
<polygon fill="black" stroke="black" points="173.851,-1836.4 163.639,-1833.58 169.864,-1842.16 173.851,-1836.4"/>
</g>
<!-- 41&#45;&gt;40 -->
<g id="edge4" class="edge"><title>41&#45;&gt;40</title>
<path fill="none" stroke="black" d="M243.596,-1871.7C243.596,-1863.98 243.596,-1854.71 243.596,-1846.11"/>
<polygon fill="black" stroke="black" points="247.096,-1846.1 243.596,-1836.1 240.096,-1846.1 247.096,-1846.1"/>
</g>
<!-- 42&#45;&gt;20 -->
<g id="edge9" class="edge"><title>42&#45;&gt;20</title>
<path fill="none" stroke="black" d="M142.596,-503.697C142.596,-495.983 142.596,-486.712 142.596,-478.112"/>
<polygon fill="black" stroke="black" points="146.096,-478.104 142.596,-468.104 139.096,-478.104 146.096,-478.104"/>
</g>
</g>
</svg>
