<?xml version="1.0" encoding="UTF-8" standalone="no"?>
<!DOCTYPE svg PUBLIC "-//W3C//DTD SVG 1.1//EN"
 "http://www.w3.org/Graphics/SVG/1.1/DTD/svg11.dtd">
<!-- Generated by graphviz version 2.38.0 (20140413.2041)
 -->
<!-- Title: %3 Pages: 1 -->
<svg width="661pt" height="332pt"
 viewBox="0.00 0.00 660.64 332.00" xmlns="http://www.w3.org/2000/svg" xmlns:xlink="http://www.w3.org/1999/xlink">
<g id="graph0" class="graph" transform="scale(1 1) rotate(0) translate(4 328)">
<title>%3</title>
<polygon fill="white" stroke="none" points="-4,4 -4,-328 656.643,-328 656.643,4 -4,4"/>
<!-- 0 -->
<g id="node1" class="node"><title>0</title>
<g id="a_node1"><a xlink:title="0, diversity: 1, multiplicities: 35, labels: 0">
<ellipse fill="#f7fcf5" stroke="black" cx="37.0467" cy="-90" rx="37.0935" ry="18"/>
<text text-anchor="middle" x="37.0467" y="-86.3" font-family="Times,serif" font-size="14.00">0 (1): 0</text>
</a>
</g>
</g>
<!-- 1 -->
<g id="node2" class="node"><title>1</title>
<g id="a_node2"><a xlink:title="1, diversity: 1, multiplicities: 1, labels: 0">
<ellipse fill="#f7fcf5" stroke="black" cx="37.0467" cy="-162" rx="37.0935" ry="18"/>
<text text-anchor="middle" x="37.0467" y="-158.3" font-family="Times,serif" font-size="14.00">1 (1): 0</text>
</a>
</g>
</g>
<!-- 1&#45;&gt;0 -->
<g id="edge12" class="edge"><title>1&#45;&gt;0</title>
<path fill="none" stroke="black" d="M37.0467,-143.697C37.0467,-135.983 37.0467,-126.712 37.0467,-118.112"/>
<polygon fill="black" stroke="black" points="40.5468,-118.104 37.0467,-108.104 33.5468,-118.104 40.5468,-118.104"/>
</g>
<!-- 2 -->
<g id="node3" class="node"><title>2</title>
<g id="a_node3"><a xlink:title="2, diversity: 1, multiplicities: 15, labels: 0">
<ellipse fill="#f7fcf5" stroke="black" cx="410.047" cy="-90" rx="37.0935" ry="18"/>
<text text-anchor="middle" x="410.047" y="-86.3" font-family="Times,serif" font-size="14.00">2 (1): 0</text>
</a>
</g>
</g>
<!-- 3 -->
<g id="node4" class="node"><title>3</title>
<g id="a_node4"><a xlink:title="3, diversity: 1, multiplicities: 10, labels: 0">
<ellipse fill="#f7fcf5" stroke="black" cx="610.047" cy="-162" rx="37.0935" ry="18"/>
<text text-anchor="middle" x="610.047" y="-158.3" font-family="Times,serif" font-size="14.00">3 (1): 0</text>
</a>
</g>
</g>
<!-- 16 -->
<g id="node17" class="node"><title>16</title>
<g id="a_node17"><a xlink:title="16, diversity: 1, multiplicities: 2, labels: 0">
<ellipse fill="#f7fcf5" stroke="black" cx="610.047" cy="-90" rx="41.6928" ry="18"/>
<text text-anchor="middle" x="610.047" y="-86.3" font-family="Times,serif" font-size="14.00">16 (1): 0</text>
</a>
</g>
</g>
<!-- 3&#45;&gt;16 -->
<g id="edge10" class="edge"><title>3&#45;&gt;16</title>
<path fill="none" stroke="black" d="M610.047,-143.697C610.047,-135.983 610.047,-126.712 610.047,-118.112"/>
<polygon fill="black" stroke="black" points="613.547,-118.104 610.047,-108.104 606.547,-118.104 613.547,-118.104"/>
</g>
<!-- 4 -->
<g id="node5" class="node"><title>4</title>
<g id="a_node5"><a xlink:title="4, diversity: 1, multiplicities: 51, labels: 0">
<ellipse fill="#f7fcf5" stroke="black" cx="510.047" cy="-90" rx="37.0935" ry="18"/>
<text text-anchor="middle" x="510.047" y="-86.3" font-family="Times,serif" font-size="14.00">4 (1): 0</text>
</a>
</g>
</g>
<!-- 6 -->
<g id="node7" class="node"><title>6</title>
<g id="a_node7"><a xlink:title="6, diversity: 1, multiplicities: 33, labels: 0">
<ellipse fill="#f7fcf5" stroke="black" cx="413.047" cy="-18" rx="37.0935" ry="18"/>
<text text-anchor="middle" x="413.047" y="-14.3" font-family="Times,serif" font-size="14.00">6 (1): 0</text>
</a>
</g>
</g>
<!-- 4&#45;&gt;6 -->
<g id="edge1" class="edge"><title>4&#45;&gt;6</title>
<path fill="none" stroke="black" d="M489.948,-74.496C475.808,-64.2918 456.695,-50.4989 441.061,-39.2168"/>
<polygon fill="black" stroke="black" points="442.945,-36.2597 432.788,-33.246 438.848,-41.936 442.945,-36.2597"/>
</g>
<!-- 12 -->
<g id="node13" class="node"><title>12</title>
<g id="a_node13"><a xlink:title="12, diversity: 1, multiplicities: 7, labels: 0">
<ellipse fill="#f7fcf5" stroke="black" cx="510.047" cy="-18" rx="41.6928" ry="18"/>
<text text-anchor="middle" x="510.047" y="-14.3" font-family="Times,serif" font-size="14.00">12 (1): 0</text>
</a>
</g>
</g>
<!-- 4&#45;&gt;12 -->
<g id="edge7" class="edge"><title>4&#45;&gt;12</title>
<path fill="none" stroke="black" d="M510.047,-71.6966C510.047,-63.9827 510.047,-54.7125 510.047,-46.1124"/>
<polygon fill="black" stroke="black" points="513.547,-46.1043 510.047,-36.1043 506.547,-46.1044 513.547,-46.1043"/>
</g>
<!-- 5 -->
<g id="node6" class="node"><title>5</title>
<g id="a_node6"><a xlink:title="5, diversity: 1, multiplicities: 85, labels: 0">
<ellipse fill="#f7fcf5" stroke="black" cx="129.047" cy="-162" rx="37.0935" ry="18"/>
<text text-anchor="middle" x="129.047" y="-158.3" font-family="Times,serif" font-size="14.00">5 (1): 0</text>
</a>
</g>
</g>
<!-- 7 -->
<g id="node8" class="node"><title>7</title>
<g id="a_node8"><a xlink:title="7, diversity: 1, multiplicities: 46, labels: 0">
<ellipse fill="#f7fcf5" stroke="black" cx="221.047" cy="-162" rx="37.0935" ry="18"/>
<text text-anchor="middle" x="221.047" y="-158.3" font-family="Times,serif" font-size="14.00">7 (1): 0</text>
</a>
</g>
</g>
<!-- 8 -->
<g id="node9" class="node"><title>8</title>
<g id="a_node9"><a xlink:title="8, diversity: 1, multiplicities: 125, labels: 0">
<ellipse fill="#f7fcf5" stroke="black" cx="313.047" cy="-234" rx="37.0935" ry="18"/>
<text text-anchor="middle" x="313.047" y="-230.3" font-family="Times,serif" font-size="14.00">8 (1): 0</text>
</a>
</g>
</g>
<!-- 8&#45;&gt;1 -->
<g id="edge2" class="edge"><title>8&#45;&gt;1</title>
<path fill="none" stroke="black" d="M279.176,-226.603C234.007,-217.754 151.757,-200.522 83.0467,-180 80.2934,-179.178 77.4666,-178.277 74.6334,-177.332"/>
<polygon fill="black" stroke="black" points="75.6692,-173.987 65.0743,-174.003 73.3671,-180.597 75.6692,-173.987"/>
</g>
<!-- 8&#45;&gt;5 -->
<g id="edge14" class="edge"><title>8&#45;&gt;5</title>
<path fill="none" stroke="black" d="M284.7,-222.216C253.094,-210.192 201.83,-190.689 166.835,-177.376"/>
<polygon fill="black" stroke="black" points="168.017,-174.081 157.426,-173.796 165.528,-180.623 168.017,-174.081"/>
</g>
<!-- 8&#45;&gt;7 -->
<g id="edge9" class="edge"><title>8&#45;&gt;7</title>
<path fill="none" stroke="black" d="M293.984,-218.496C280.785,-208.453 263.018,-194.934 248.324,-183.754"/>
<polygon fill="black" stroke="black" points="250.162,-180.755 240.085,-177.485 245.924,-186.326 250.162,-180.755"/>
</g>
<!-- 9 -->
<g id="node10" class="node"><title>9</title>
<g id="a_node10"><a xlink:title="9, diversity: 2, multiplicities: 3,79, labels: 0">
<ellipse fill="#f7fcf5" stroke="black" cx="313.047" cy="-162" rx="37.0935" ry="18"/>
<text text-anchor="middle" x="313.047" y="-158.3" font-family="Times,serif" font-size="14.00">9 (2): 0</text>
</a>
</g>
</g>
<!-- 8&#45;&gt;9 -->
<g id="edge5" class="edge"><title>8&#45;&gt;9</title>
<path fill="none" stroke="black" d="M313.047,-215.697C313.047,-207.983 313.047,-198.712 313.047,-190.112"/>
<polygon fill="black" stroke="black" points="316.547,-190.104 313.047,-180.104 309.547,-190.104 316.547,-190.104"/>
</g>
<!-- 10 -->
<g id="node11" class="node"><title>10</title>
<g id="a_node11"><a xlink:title="10, diversity: 2, multiplicities: 2,13, labels: 0">
<ellipse fill="#f7fcf5" stroke="black" cx="410.047" cy="-162" rx="41.6928" ry="18"/>
<text text-anchor="middle" x="410.047" y="-158.3" font-family="Times,serif" font-size="14.00">10 (2): 0</text>
</a>
</g>
</g>
<!-- 8&#45;&gt;10 -->
<g id="edge3" class="edge"><title>8&#45;&gt;10</title>
<path fill="none" stroke="black" d="M333.145,-218.496C347.098,-208.427 365.893,-194.864 381.409,-183.666"/>
<polygon fill="black" stroke="black" points="383.579,-186.416 389.64,-177.726 379.483,-180.74 383.579,-186.416"/>
</g>
<!-- 15 -->
<g id="node16" class="node"><title>15</title>
<g id="a_node16"><a xlink:title="15, diversity: 1, multiplicities: 1, labels: 0">
<ellipse fill="#f7fcf5" stroke="black" cx="511.047" cy="-162" rx="41.6928" ry="18"/>
<text text-anchor="middle" x="511.047" y="-158.3" font-family="Times,serif" font-size="14.00">15 (1): 0</text>
</a>
</g>
</g>
<!-- 8&#45;&gt;15 -->
<g id="edge15" class="edge"><title>8&#45;&gt;15</title>
<path fill="none" stroke="black" d="M342.262,-222.671C376.034,-210.732 431.85,-190.999 469.979,-177.519"/>
<polygon fill="black" stroke="black" points="471.487,-180.698 479.748,-174.065 469.153,-174.099 471.487,-180.698"/>
</g>
<!-- 10&#45;&gt;2 -->
<g id="edge16" class="edge"><title>10&#45;&gt;2</title>
<path fill="none" stroke="black" d="M410.047,-143.697C410.047,-135.983 410.047,-126.712 410.047,-118.112"/>
<polygon fill="black" stroke="black" points="413.547,-118.104 410.047,-108.104 406.547,-118.104 413.547,-118.104"/>
</g>
<!-- 11 -->
<g id="node12" class="node"><title>11</title>
<g id="a_node12"><a xlink:title="11, diversity: 1, multiplicities: 4, labels: 0">
<ellipse fill="#f7fcf5" stroke="black" cx="510.047" cy="-234" rx="41.6928" ry="18"/>
<text text-anchor="middle" x="510.047" y="-230.3" font-family="Times,serif" font-size="14.00">11 (1): 0</text>
</a>
</g>
</g>
<!-- 11&#45;&gt;3 -->
<g id="edge4" class="edge"><title>11&#45;&gt;3</title>
<path fill="none" stroke="black" d="M531.254,-218.155C545.863,-207.929 565.447,-194.22 581.435,-183.028"/>
<polygon fill="black" stroke="black" points="583.708,-185.71 589.893,-177.108 579.693,-179.975 583.708,-185.71"/>
</g>
<!-- 13 -->
<g id="node14" class="node"><title>13</title>
<g id="a_node14"><a xlink:title="13, diversity: 1, multiplicities: 2, labels: 0">
<ellipse fill="#f7fcf5" stroke="black" cx="411.047" cy="-306" rx="41.6928" ry="18"/>
<text text-anchor="middle" x="411.047" y="-302.3" font-family="Times,serif" font-size="14.00">13 (1): 0</text>
</a>
</g>
</g>
<!-- 13&#45;&gt;8 -->
<g id="edge8" class="edge"><title>13&#45;&gt;8</title>
<path fill="none" stroke="black" d="M390.263,-290.155C376.041,-279.996 357.009,-266.401 341.398,-255.251"/>
<polygon fill="black" stroke="black" points="343.301,-252.309 333.13,-249.345 339.233,-258.006 343.301,-252.309"/>
</g>
<!-- 13&#45;&gt;11 -->
<g id="edge13" class="edge"><title>13&#45;&gt;11</title>
<path fill="none" stroke="black" d="M432.042,-290.155C446.218,-280.132 465.124,-266.763 480.773,-255.698"/>
<polygon fill="black" stroke="black" points="482.937,-258.455 489.082,-249.824 478.896,-252.739 482.937,-258.455"/>
</g>
<!-- 14 -->
<g id="node15" class="node"><title>14</title>
<g id="a_node15"><a xlink:title="14, diversity: 1, multiplicities: 5, labels: 0">
<ellipse fill="#f7fcf5" stroke="black" cx="611.047" cy="-18" rx="41.6928" ry="18"/>
<text text-anchor="middle" x="611.047" y="-14.3" font-family="Times,serif" font-size="14.00">14 (1): 0</text>
</a>
</g>
</g>
<!-- 15&#45;&gt;4 -->
<g id="edge6" class="edge"><title>15&#45;&gt;4</title>
<path fill="none" stroke="black" d="M510.8,-143.697C510.689,-135.983 510.557,-126.712 510.434,-118.112"/>
<polygon fill="black" stroke="black" points="513.934,-118.053 510.291,-108.104 506.934,-118.153 513.934,-118.053"/>
</g>
<!-- 16&#45;&gt;14 -->
<g id="edge11" class="edge"><title>16&#45;&gt;14</title>
<path fill="none" stroke="black" d="M610.294,-71.6966C610.404,-63.9827 610.537,-54.7125 610.659,-46.1124"/>
<polygon fill="black" stroke="black" points="614.159,-46.1533 610.802,-36.1043 607.16,-46.0533 614.159,-46.1533"/>
</g>
</g>
</svg>
