<?xml version="1.0" encoding="UTF-8" standalone="no"?>
<!DOCTYPE svg PUBLIC "-//W3C//DTD SVG 1.1//EN"
 "http://www.w3.org/Graphics/SVG/1.1/DTD/svg11.dtd">
<!-- Generated by graphviz version 2.38.0 (20140413.2041)
 -->
<!-- Title: %3 Pages: 1 -->
<svg width="212pt" height="332pt"
 viewBox="0.00 0.00 212.09 332.00" xmlns="http://www.w3.org/2000/svg" xmlns:xlink="http://www.w3.org/1999/xlink">
<g id="graph0" class="graph" transform="scale(1 1) rotate(0) translate(4 328)">
<title>%3</title>
<polygon fill="white" stroke="none" points="-4,4 -4,-328 208.093,-328 208.093,4 -4,4"/>
<!-- 0 -->
<g id="node1" class="node"><title>0</title>
<g id="a_node1"><a xlink:title="0, diversity: 2, multiplicities: 42,105, labels: 0">
<ellipse fill="#f7fcf5" stroke="black" cx="37.0467" cy="-234" rx="37.0935" ry="18"/>
<text text-anchor="middle" x="37.0467" y="-230.3" font-family="Times,serif" font-size="14.00">0 (2): 0</text>
</a>
</g>
</g>
<!-- 6 -->
<g id="node7" class="node"><title>6</title>
<g id="a_node7"><a xlink:title="6, diversity: 1, multiplicities: 1, labels: 0">
<ellipse fill="#f7fcf5" stroke="black" cx="37.0467" cy="-162" rx="37.0935" ry="18"/>
<text text-anchor="middle" x="37.0467" y="-158.3" font-family="Times,serif" font-size="14.00">6 (1): 0</text>
</a>
</g>
</g>
<!-- 0&#45;&gt;6 -->
<g id="edge3" class="edge"><title>0&#45;&gt;6</title>
<path fill="none" stroke="black" d="M37.0467,-215.697C37.0467,-207.983 37.0467,-198.712 37.0467,-190.112"/>
<polygon fill="black" stroke="black" points="40.5468,-190.104 37.0467,-180.104 33.5468,-190.104 40.5468,-190.104"/>
</g>
<!-- 1 -->
<g id="node2" class="node"><title>1</title>
<g id="a_node2"><a xlink:title="1, diversity: 4, multiplicities: 2,38,63,91, labels: 0">
<ellipse fill="#f7fcf5" stroke="black" cx="102.047" cy="-306" rx="37.0935" ry="18"/>
<text text-anchor="middle" x="102.047" y="-302.3" font-family="Times,serif" font-size="14.00">1 (4): 0</text>
</a>
</g>
</g>
<!-- 1&#45;&gt;0 -->
<g id="edge6" class="edge"><title>1&#45;&gt;0</title>
<path fill="none" stroke="black" d="M87.2972,-289.116C78.8203,-279.987 68.0194,-268.355 58.6052,-258.217"/>
<polygon fill="black" stroke="black" points="61.1072,-255.768 51.7378,-250.821 55.9776,-260.531 61.1072,-255.768"/>
</g>
<!-- 2 -->
<g id="node3" class="node"><title>2</title>
<g id="a_node3"><a xlink:title="2, diversity: 2, multiplicities: 19,71, labels: 0">
<ellipse fill="#f7fcf5" stroke="black" cx="69.0467" cy="-90" rx="37.0935" ry="18"/>
<text text-anchor="middle" x="69.0467" y="-86.3" font-family="Times,serif" font-size="14.00">2 (2): 0</text>
</a>
</g>
</g>
<!-- 1&#45;&gt;2 -->
<g id="edge1" class="edge"><title>1&#45;&gt;2</title>
<path fill="none" stroke="black" d="M100.829,-287.959C98.5433,-258.444 92.9287,-195.982 83.0467,-144 81.4221,-135.454 79.1728,-126.254 76.952,-117.956"/>
<polygon fill="black" stroke="black" points="80.2487,-116.747 74.2035,-108.046 73.5034,-118.617 80.2487,-116.747"/>
</g>
<!-- 4 -->
<g id="node5" class="node"><title>4</title>
<g id="a_node5"><a xlink:title="4, diversity: 1, multiplicities: 25, labels: 0">
<ellipse fill="#f7fcf5" stroke="black" cx="167.047" cy="-234" rx="37.0935" ry="18"/>
<text text-anchor="middle" x="167.047" y="-230.3" font-family="Times,serif" font-size="14.00">4 (1): 0</text>
</a>
</g>
</g>
<!-- 1&#45;&gt;4 -->
<g id="edge2" class="edge"><title>1&#45;&gt;4</title>
<path fill="none" stroke="black" d="M116.796,-289.116C125.273,-279.987 136.074,-268.355 145.488,-258.217"/>
<polygon fill="black" stroke="black" points="148.116,-260.531 152.356,-250.821 142.986,-255.768 148.116,-260.531"/>
</g>
<!-- 5 -->
<g id="node6" class="node"><title>5</title>
<g id="a_node6"><a xlink:title="5, diversity: 1, multiplicities: 5, labels: 0">
<ellipse fill="#f7fcf5" stroke="black" cx="69.0467" cy="-18" rx="37.0935" ry="18"/>
<text text-anchor="middle" x="69.0467" y="-14.3" font-family="Times,serif" font-size="14.00">5 (1): 0</text>
</a>
</g>
</g>
<!-- 2&#45;&gt;5 -->
<g id="edge7" class="edge"><title>2&#45;&gt;5</title>
<path fill="none" stroke="black" d="M69.0467,-71.6966C69.0467,-63.9827 69.0467,-54.7125 69.0467,-46.1124"/>
<polygon fill="black" stroke="black" points="72.5468,-46.1043 69.0467,-36.1043 65.5468,-46.1044 72.5468,-46.1043"/>
</g>
<!-- 3 -->
<g id="node4" class="node"><title>3</title>
<g id="a_node4"><a xlink:title="3, diversity: 2, multiplicities: 1,26, labels: 0">
<ellipse fill="#f7fcf5" stroke="black" cx="167.047" cy="-162" rx="37.0935" ry="18"/>
<text text-anchor="middle" x="167.047" y="-158.3" font-family="Times,serif" font-size="14.00">3 (2): 0</text>
</a>
</g>
</g>
<!-- 4&#45;&gt;3 -->
<g id="edge5" class="edge"><title>4&#45;&gt;3</title>
<path fill="none" stroke="black" d="M167.047,-215.697C167.047,-207.983 167.047,-198.712 167.047,-190.112"/>
<polygon fill="black" stroke="black" points="170.547,-190.104 167.047,-180.104 163.547,-190.104 170.547,-190.104"/>
</g>
<!-- 6&#45;&gt;2 -->
<g id="edge4" class="edge"><title>6&#45;&gt;2</title>
<path fill="none" stroke="black" d="M44.793,-144.055C48.4878,-135.973 52.9912,-126.121 57.1099,-117.112"/>
<polygon fill="black" stroke="black" points="60.3973,-118.339 61.3717,-107.789 54.0309,-115.429 60.3973,-118.339"/>
</g>
</g>
</svg>
