<?xml version="1.0" encoding="UTF-8" standalone="no"?>
<!DOCTYPE svg PUBLIC "-//W3C//DTD SVG 1.1//EN"
 "http://www.w3.org/Graphics/SVG/1.1/DTD/svg11.dtd">
<!-- Generated by graphviz version 2.38.0 (20140413.2041)
 -->
<!-- Title: %3 Pages: 1 -->
<svg width="1020pt" height="476pt"
 viewBox="0.00 0.00 1020.00 476.00" xmlns="http://www.w3.org/2000/svg" xmlns:xlink="http://www.w3.org/1999/xlink">
<g id="graph0" class="graph" transform="scale(1 1) rotate(0) translate(4 472)">
<title>%3</title>
<polygon fill="white" stroke="none" points="-4,4 -4,-472 1016,-472 1016,4 -4,4"/>
<!-- p0 -->
<g id="node1" class="node"><title>p0</title>
<path fill="none" stroke="black" d="M263.5,-396C263.5,-396 228.5,-396 228.5,-396 222.5,-396 216.5,-390 216.5,-384 216.5,-384 216.5,-372 216.5,-372 216.5,-366 222.5,-360 228.5,-360 228.5,-360 263.5,-360 263.5,-360 269.5,-360 275.5,-366 275.5,-372 275.5,-372 275.5,-384 275.5,-384 275.5,-390 269.5,-396 263.5,-396"/>
<text text-anchor="middle" x="246" y="-374.3" font-family="Times,serif" font-size="14.00">path (2)</text>
</g>
<!-- p1 -->
<g id="node2" class="node"><title>p1</title>
<path fill="none" stroke="black" d="M340.5,-396C340.5,-396 305.5,-396 305.5,-396 299.5,-396 293.5,-390 293.5,-384 293.5,-384 293.5,-372 293.5,-372 293.5,-366 299.5,-360 305.5,-360 305.5,-360 340.5,-360 340.5,-360 346.5,-360 352.5,-366 352.5,-372 352.5,-372 352.5,-384 352.5,-384 352.5,-390 346.5,-396 340.5,-396"/>
<text text-anchor="middle" x="323" y="-374.3" font-family="Times,serif" font-size="14.00">path (3)</text>
</g>
<!-- v25 -->
<g id="node15" class="node"><title>v25</title>
<ellipse fill="none" stroke="black" cx="323" cy="-306" rx="27" ry="18"/>
<text text-anchor="middle" x="323" y="-302.3" font-family="Times,serif" font-size="14.00">25</text>
</g>
<!-- p1&#45;&gt;v25 -->
<g id="edge20" class="edge"><title>p1&#45;&gt;v25</title>
<path fill="none" stroke="black" d="M323,-359.697C323,-351.983 323,-342.712 323,-334.112"/>
<polygon fill="black" stroke="black" points="326.5,-334.104 323,-324.104 319.5,-334.104 326.5,-334.104"/>
</g>
<!-- v2 -->
<g id="node3" class="node"><title>v2</title>
<ellipse fill="none" stroke="black" cx="622" cy="-450" rx="27" ry="18"/>
<text text-anchor="middle" x="622" y="-446.3" font-family="Times,serif" font-size="14.00">2</text>
</g>
<!-- v2&#45;&gt;p0 -->
<g id="edge5" class="edge"><title>v2&#45;&gt;p0</title>
<path fill="none" stroke="black" d="M595.28,-447.123C537.611,-442.57 397.586,-428.805 285,-396 284.902,-395.972 284.805,-395.943 284.707,-395.914"/>
<polygon fill="black" stroke="black" points="286.115,-392.696 275.52,-392.796 283.865,-399.324 286.115,-392.696"/>
</g>
<!-- v2&#45;&gt;p1 -->
<g id="edge14" class="edge"><title>v2&#45;&gt;p1</title>
<path fill="none" stroke="black" d="M595.708,-445.507C548.253,-438.794 445.46,-422.374 362,-396 361.903,-395.969 361.806,-395.939 361.709,-395.908"/>
<polygon fill="black" stroke="black" points="363.159,-392.709 352.564,-392.651 360.811,-399.303 363.159,-392.709"/>
</g>
<!-- v3 -->
<g id="node4" class="node"><title>v3</title>
<ellipse fill="none" stroke="black" cx="398" cy="-378" rx="27" ry="18"/>
<text text-anchor="middle" x="398" y="-374.3" font-family="Times,serif" font-size="14.00">3</text>
</g>
<!-- v2&#45;&gt;v3 -->
<g id="edge18" class="edge"><title>v2&#45;&gt;v3</title>
<path fill="none" stroke="black" d="M596.637,-443.272C560.115,-434.706 490.853,-417.269 434,-396 432.155,-395.31 430.275,-394.563 428.39,-393.78"/>
<polygon fill="black" stroke="black" points="429.63,-390.501 419.068,-389.665 426.803,-396.905 429.63,-390.501"/>
</g>
<!-- v7 -->
<g id="node5" class="node"><title>v7</title>
<ellipse fill="none" stroke="black" cx="470" cy="-378" rx="27" ry="18"/>
<text text-anchor="middle" x="470" y="-374.3" font-family="Times,serif" font-size="14.00">7</text>
</g>
<!-- v2&#45;&gt;v7 -->
<g id="edge21" class="edge"><title>v2&#45;&gt;v7</title>
<path fill="none" stroke="black" d="M600.222,-438.971C574.262,-427.015 530.689,-406.949 501.165,-393.352"/>
<polygon fill="black" stroke="black" points="502.285,-390.015 491.737,-389.011 499.357,-396.373 502.285,-390.015"/>
</g>
<!-- p4 -->
<g id="node11" class="node"><title>p4</title>
<path fill="none" stroke="black" d="M562.5,-396C562.5,-396 527.5,-396 527.5,-396 521.5,-396 515.5,-390 515.5,-384 515.5,-384 515.5,-372 515.5,-372 515.5,-366 521.5,-360 527.5,-360 527.5,-360 562.5,-360 562.5,-360 568.5,-360 574.5,-366 574.5,-372 574.5,-372 574.5,-384 574.5,-384 574.5,-390 568.5,-396 562.5,-396"/>
<text text-anchor="middle" x="545" y="-374.3" font-family="Times,serif" font-size="14.00">path (5)</text>
</g>
<!-- v2&#45;&gt;p4 -->
<g id="edge7" class="edge"><title>v2&#45;&gt;p4</title>
<path fill="none" stroke="black" d="M606.418,-434.834C596.421,-425.746 583.182,-413.71 571.555,-403.141"/>
<polygon fill="black" stroke="black" points="573.578,-400.25 563.824,-396.113 568.869,-405.429 573.578,-400.25"/>
</g>
<!-- p7 -->
<g id="node17" class="node"><title>p7</title>
<path fill="none" stroke="black" d="M639.5,-396C639.5,-396 604.5,-396 604.5,-396 598.5,-396 592.5,-390 592.5,-384 592.5,-384 592.5,-372 592.5,-372 592.5,-366 598.5,-360 604.5,-360 604.5,-360 639.5,-360 639.5,-360 645.5,-360 651.5,-366 651.5,-372 651.5,-372 651.5,-384 651.5,-384 651.5,-390 645.5,-396 639.5,-396"/>
<text text-anchor="middle" x="622" y="-374.3" font-family="Times,serif" font-size="14.00">path (4)</text>
</g>
<!-- v2&#45;&gt;p7 -->
<g id="edge15" class="edge"><title>v2&#45;&gt;p7</title>
<path fill="none" stroke="black" d="M622,-431.697C622,-423.983 622,-414.712 622,-406.112"/>
<polygon fill="black" stroke="black" points="625.5,-406.104 622,-396.104 618.5,-406.104 625.5,-406.104"/>
</g>
<!-- v29 -->
<g id="node18" class="node"><title>v29</title>
<ellipse fill="none" stroke="black" cx="697" cy="-378" rx="27" ry="18"/>
<text text-anchor="middle" x="697" y="-374.3" font-family="Times,serif" font-size="14.00">29</text>
</g>
<!-- v2&#45;&gt;v29 -->
<g id="edge2" class="edge"><title>v2&#45;&gt;v29</title>
<path fill="none" stroke="black" d="M637.177,-434.834C647.851,-424.872 662.319,-411.369 674.353,-400.137"/>
<polygon fill="black" stroke="black" points="676.923,-402.526 681.845,-393.144 672.146,-397.409 676.923,-402.526"/>
</g>
<!-- v32 -->
<g id="node19" class="node"><title>v32</title>
<ellipse fill="none" stroke="black" cx="769" cy="-378" rx="27" ry="18"/>
<text text-anchor="middle" x="769" y="-374.3" font-family="Times,serif" font-size="14.00">32</text>
</g>
<!-- v2&#45;&gt;v32 -->
<g id="edge17" class="edge"><title>v2&#45;&gt;v32</title>
<path fill="none" stroke="black" d="M643.375,-438.821C668.415,-426.898 710.083,-407.056 738.51,-393.519"/>
<polygon fill="black" stroke="black" points="740.075,-396.65 747.599,-389.191 737.066,-390.33 740.075,-396.65"/>
</g>
<!-- v34 -->
<g id="node20" class="node"><title>v34</title>
<ellipse fill="none" stroke="black" cx="841" cy="-378" rx="27" ry="18"/>
<text text-anchor="middle" x="841" y="-374.3" font-family="Times,serif" font-size="14.00">34</text>
</g>
<!-- v2&#45;&gt;v34 -->
<g id="edge4" class="edge"><title>v2&#45;&gt;v34</title>
<path fill="none" stroke="black" d="M646.976,-443.111C682.592,-434.412 749.775,-416.884 805,-396 806.843,-395.303 808.721,-394.551 810.605,-393.764"/>
<polygon fill="black" stroke="black" points="812.195,-396.888 819.922,-389.639 809.361,-390.487 812.195,-396.888"/>
</g>
<!-- v42 -->
<g id="node25" class="node"><title>v42</title>
<ellipse fill="none" stroke="black" cx="913" cy="-378" rx="27" ry="18"/>
<text text-anchor="middle" x="913" y="-374.3" font-family="Times,serif" font-size="14.00">42</text>
</g>
<!-- v2&#45;&gt;v42 -->
<g id="edge12" class="edge"><title>v2&#45;&gt;v42</title>
<path fill="none" stroke="black" d="M648.233,-445.636C695.06,-439.174 795.746,-423.202 877,-396 878.917,-395.358 880.866,-394.641 882.815,-393.874"/>
<polygon fill="black" stroke="black" points="884.604,-396.915 892.404,-389.745 881.835,-390.485 884.604,-396.915"/>
</g>
<!-- v46 -->
<g id="node27" class="node"><title>v46</title>
<ellipse fill="none" stroke="black" cx="985" cy="-378" rx="27" ry="18"/>
<text text-anchor="middle" x="985" y="-374.3" font-family="Times,serif" font-size="14.00">46</text>
</g>
<!-- v2&#45;&gt;v46 -->
<g id="edge13" class="edge"><title>v2&#45;&gt;v46</title>
<path fill="none" stroke="black" d="M648.858,-447.203C705.481,-442.865 840.793,-429.583 949,-396 950.931,-395.401 952.89,-394.717 954.847,-393.975"/>
<polygon fill="black" stroke="black" points="956.611,-397.029 964.457,-389.909 953.884,-390.582 956.611,-397.029"/>
</g>
<!-- p2 -->
<g id="node9" class="node"><title>p2</title>
<path fill="none" stroke="black" d="M415.5,-324C415.5,-324 380.5,-324 380.5,-324 374.5,-324 368.5,-318 368.5,-312 368.5,-312 368.5,-300 368.5,-300 368.5,-294 374.5,-288 380.5,-288 380.5,-288 415.5,-288 415.5,-288 421.5,-288 427.5,-294 427.5,-300 427.5,-300 427.5,-312 427.5,-312 427.5,-318 421.5,-324 415.5,-324"/>
<text text-anchor="middle" x="398" y="-302.3" font-family="Times,serif" font-size="14.00">path (2)</text>
</g>
<!-- v3&#45;&gt;p2 -->
<g id="edge23" class="edge"><title>v3&#45;&gt;p2</title>
<path fill="none" stroke="black" d="M398,-359.697C398,-351.983 398,-342.712 398,-334.112"/>
<polygon fill="black" stroke="black" points="401.5,-334.104 398,-324.104 394.5,-334.104 401.5,-334.104"/>
</g>
<!-- p8 -->
<g id="node21" class="node"><title>p8</title>
<path fill="none" stroke="black" d="M492.5,-324C492.5,-324 457.5,-324 457.5,-324 451.5,-324 445.5,-318 445.5,-312 445.5,-312 445.5,-300 445.5,-300 445.5,-294 451.5,-288 457.5,-288 457.5,-288 492.5,-288 492.5,-288 498.5,-288 504.5,-294 504.5,-300 504.5,-300 504.5,-312 504.5,-312 504.5,-318 498.5,-324 492.5,-324"/>
<text text-anchor="middle" x="475" y="-302.3" font-family="Times,serif" font-size="14.00">path (2)</text>
</g>
<!-- v3&#45;&gt;p8 -->
<g id="edge19" class="edge"><title>v3&#45;&gt;p8</title>
<path fill="none" stroke="black" d="M413.582,-362.834C423.579,-353.746 436.818,-341.71 448.445,-331.141"/>
<polygon fill="black" stroke="black" points="451.131,-333.429 456.176,-324.113 446.422,-328.25 451.131,-333.429"/>
</g>
<!-- v8 -->
<g id="node6" class="node"><title>v8</title>
<ellipse fill="none" stroke="black" cx="63" cy="-162" rx="27" ry="18"/>
<text text-anchor="middle" x="63" y="-158.3" font-family="Times,serif" font-size="14.00">8</text>
</g>
<!-- v24 -->
<g id="node14" class="node"><title>v24</title>
<ellipse fill="none" stroke="black" cx="63" cy="-90" rx="27" ry="18"/>
<text text-anchor="middle" x="63" y="-86.3" font-family="Times,serif" font-size="14.00">24</text>
</g>
<!-- v8&#45;&gt;v24 -->
<g id="edge8" class="edge"><title>v8&#45;&gt;v24</title>
<path fill="none" stroke="black" d="M63,-143.697C63,-135.983 63,-126.712 63,-118.112"/>
<polygon fill="black" stroke="black" points="66.5001,-118.104 63,-108.104 59.5001,-118.104 66.5001,-118.104"/>
</g>
<!-- v9 -->
<g id="node7" class="node"><title>v9</title>
<ellipse fill="none" stroke="black" cx="248" cy="-234" rx="27" ry="18"/>
<text text-anchor="middle" x="248" y="-230.3" font-family="Times,serif" font-size="14.00">9</text>
</g>
<!-- v9&#45;&gt;v8 -->
<g id="edge3" class="edge"><title>v9&#45;&gt;v8</title>
<path fill="none" stroke="black" d="M224.242,-225.361C194.604,-215.646 142.525,-197.966 99,-180 97.1791,-179.248 95.3175,-178.453 93.4468,-177.634"/>
<polygon fill="black" stroke="black" points="94.7164,-174.367 84.1637,-173.422 91.824,-180.741 94.7164,-174.367"/>
</g>
<!-- v10 -->
<g id="node8" class="node"><title>v10</title>
<ellipse fill="none" stroke="black" cx="135" cy="-162" rx="27" ry="18"/>
<text text-anchor="middle" x="135" y="-158.3" font-family="Times,serif" font-size="14.00">10</text>
</g>
<!-- v9&#45;&gt;v10 -->
<g id="edge16" class="edge"><title>v9&#45;&gt;v10</title>
<path fill="none" stroke="black" d="M228.831,-221.125C210.73,-209.913 183.377,-192.968 162.867,-180.263"/>
<polygon fill="black" stroke="black" points="164.607,-177.224 154.263,-174.933 160.921,-183.174 164.607,-177.224"/>
</g>
<!-- p3 -->
<g id="node10" class="node"><title>p3</title>
<path fill="none" stroke="black" d="M227.5,-180C227.5,-180 192.5,-180 192.5,-180 186.5,-180 180.5,-174 180.5,-168 180.5,-168 180.5,-156 180.5,-156 180.5,-150 186.5,-144 192.5,-144 192.5,-144 227.5,-144 227.5,-144 233.5,-144 239.5,-150 239.5,-156 239.5,-156 239.5,-168 239.5,-168 239.5,-174 233.5,-180 227.5,-180"/>
<text text-anchor="middle" x="210" y="-158.3" font-family="Times,serif" font-size="14.00">path (3)</text>
</g>
<!-- v9&#45;&gt;p3 -->
<g id="edge25" class="edge"><title>v9&#45;&gt;p3</title>
<path fill="none" stroke="black" d="M239.187,-216.765C234.714,-208.525 229.172,-198.317 224.123,-189.016"/>
<polygon fill="black" stroke="black" points="227.143,-187.243 219.296,-180.124 220.991,-190.582 227.143,-187.243"/>
</g>
<!-- p5 -->
<g id="node12" class="node"><title>p5</title>
<path fill="none" stroke="black" d="M304.5,-180C304.5,-180 269.5,-180 269.5,-180 263.5,-180 257.5,-174 257.5,-168 257.5,-168 257.5,-156 257.5,-156 257.5,-150 263.5,-144 269.5,-144 269.5,-144 304.5,-144 304.5,-144 310.5,-144 316.5,-150 316.5,-156 316.5,-156 316.5,-168 316.5,-168 316.5,-174 310.5,-180 304.5,-180"/>
<text text-anchor="middle" x="287" y="-158.3" font-family="Times,serif" font-size="14.00">path (8)</text>
</g>
<!-- v9&#45;&gt;p5 -->
<g id="edge9" class="edge"><title>v9&#45;&gt;p5</title>
<path fill="none" stroke="black" d="M257.045,-216.765C261.636,-208.525 267.324,-198.317 272.506,-189.016"/>
<polygon fill="black" stroke="black" points="275.65,-190.563 277.46,-180.124 269.535,-187.156 275.65,-190.563"/>
</g>
<!-- v40 -->
<g id="node24" class="node"><title>v40</title>
<ellipse fill="none" stroke="black" cx="362" cy="-162" rx="27" ry="18"/>
<text text-anchor="middle" x="362" y="-158.3" font-family="Times,serif" font-size="14.00">40</text>
</g>
<!-- v9&#45;&gt;v40 -->
<g id="edge11" class="edge"><title>v9&#45;&gt;v40</title>
<path fill="none" stroke="black" d="M267.339,-221.125C285.599,-209.913 313.195,-192.968 333.887,-180.263"/>
<polygon fill="black" stroke="black" points="335.876,-183.148 342.567,-174.933 332.213,-177.183 335.876,-183.148"/>
</g>
<!-- v45 -->
<g id="node26" class="node"><title>v45</title>
<ellipse fill="none" stroke="black" cx="434" cy="-162" rx="27" ry="18"/>
<text text-anchor="middle" x="434" y="-158.3" font-family="Times,serif" font-size="14.00">45</text>
</g>
<!-- v9&#45;&gt;v45 -->
<g id="edge1" class="edge"><title>v9&#45;&gt;v45</title>
<path fill="none" stroke="black" d="M269.331,-222.661C274.415,-220.348 279.858,-217.992 285,-216 334.151,-196.961 348.95,-199.296 398,-180 399.833,-179.279 401.704,-178.508 403.582,-177.706"/>
<polygon fill="black" stroke="black" points="405.187,-180.823 412.885,-173.543 402.327,-174.433 405.187,-180.823"/>
</g>
<!-- p6 -->
<g id="node13" class="node"><title>p6</title>
<path fill="none" stroke="black" d="M340.5,-252C340.5,-252 305.5,-252 305.5,-252 299.5,-252 293.5,-246 293.5,-240 293.5,-240 293.5,-228 293.5,-228 293.5,-222 299.5,-216 305.5,-216 305.5,-216 340.5,-216 340.5,-216 346.5,-216 352.5,-222 352.5,-228 352.5,-228 352.5,-240 352.5,-240 352.5,-246 346.5,-252 340.5,-252"/>
<text text-anchor="middle" x="323" y="-230.3" font-family="Times,serif" font-size="14.00">path (4)</text>
</g>
<!-- v27 -->
<g id="node16" class="node"><title>v27</title>
<ellipse fill="none" stroke="black" cx="27" cy="-18" rx="27" ry="18"/>
<text text-anchor="middle" x="27" y="-14.3" font-family="Times,serif" font-size="14.00">27</text>
</g>
<!-- v24&#45;&gt;v27 -->
<g id="edge26" class="edge"><title>v24&#45;&gt;v27</title>
<path fill="none" stroke="black" d="M54.6504,-72.7646C50.2885,-64.2831 44.8531,-53.7144 39.9587,-44.1974"/>
<polygon fill="black" stroke="black" points="42.9904,-42.4395 35.3043,-35.1473 36.7654,-45.6409 42.9904,-42.4395"/>
</g>
<!-- v38 -->
<g id="node23" class="node"><title>v38</title>
<ellipse fill="none" stroke="black" cx="99" cy="-18" rx="27" ry="18"/>
<text text-anchor="middle" x="99" y="-14.3" font-family="Times,serif" font-size="14.00">38</text>
</g>
<!-- v24&#45;&gt;v38 -->
<g id="edge10" class="edge"><title>v24&#45;&gt;v38</title>
<path fill="none" stroke="black" d="M71.3496,-72.7646C75.7115,-64.2831 81.1469,-53.7144 86.0413,-44.1974"/>
<polygon fill="black" stroke="black" points="89.2346,-45.6409 90.6957,-35.1473 83.0096,-42.4395 89.2346,-45.6409"/>
</g>
<!-- v25&#45;&gt;v9 -->
<g id="edge24" class="edge"><title>v25&#45;&gt;v9</title>
<path fill="none" stroke="black" d="M307.823,-290.834C297.149,-280.872 282.681,-267.369 270.647,-256.137"/>
<polygon fill="black" stroke="black" points="272.854,-253.409 263.155,-249.144 268.077,-258.526 272.854,-253.409"/>
</g>
<!-- v25&#45;&gt;p6 -->
<g id="edge6" class="edge"><title>v25&#45;&gt;p6</title>
<path fill="none" stroke="black" d="M323,-287.697C323,-279.983 323,-270.712 323,-262.112"/>
<polygon fill="black" stroke="black" points="326.5,-262.104 323,-252.104 319.5,-262.104 326.5,-262.104"/>
</g>
<!-- v37 -->
<g id="node22" class="node"><title>v37</title>
<ellipse fill="none" stroke="black" cx="398" cy="-234" rx="27" ry="18"/>
<text text-anchor="middle" x="398" y="-230.3" font-family="Times,serif" font-size="14.00">37</text>
</g>
<!-- v25&#45;&gt;v37 -->
<g id="edge22" class="edge"><title>v25&#45;&gt;v37</title>
<path fill="none" stroke="black" d="M338.177,-290.834C348.851,-280.872 363.319,-267.369 375.353,-256.137"/>
<polygon fill="black" stroke="black" points="377.923,-258.526 382.845,-249.144 373.146,-253.409 377.923,-258.526"/>
</g>
</g>
</svg>
