<?xml version="1.0" encoding="UTF-8" standalone="no"?>
<!DOCTYPE svg PUBLIC "-//W3C//DTD SVG 1.1//EN"
 "http://www.w3.org/Graphics/SVG/1.1/DTD/svg11.dtd">
<!-- Generated by graphviz version 2.38.0 (20140413.2041)
 -->
<!-- Title: %3 Pages: 1 -->
<svg width="371pt" height="188pt"
 viewBox="0.00 0.00 370.50 188.00" xmlns="http://www.w3.org/2000/svg" xmlns:xlink="http://www.w3.org/1999/xlink">
<g id="graph0" class="graph" transform="scale(1 1) rotate(0) translate(4 184)">
<title>%3</title>
<polygon fill="white" stroke="none" points="-4,4 -4,-184 366.5,-184 366.5,4 -4,4"/>
<!-- p0 -->
<g id="node1" class="node"><title>p0</title>
<path fill="none" stroke="black" d="M196.5,-180C196.5,-180 161.5,-180 161.5,-180 155.5,-180 149.5,-174 149.5,-168 149.5,-168 149.5,-156 149.5,-156 149.5,-150 155.5,-144 161.5,-144 161.5,-144 196.5,-144 196.5,-144 202.5,-144 208.5,-150 208.5,-156 208.5,-156 208.5,-168 208.5,-168 208.5,-174 202.5,-180 196.5,-180"/>
<text text-anchor="middle" x="179" y="-158.3" font-family="Times,serif" font-size="14.00">path (4)</text>
</g>
<!-- v3 -->
<g id="node4" class="node"><title>v3</title>
<ellipse fill="none" stroke="black" cx="179" cy="-90" rx="27" ry="18"/>
<text text-anchor="middle" x="179" y="-86.3" font-family="Times,serif" font-size="14.00">3</text>
</g>
<!-- p0&#45;&gt;v3 -->
<g id="edge5" class="edge"><title>p0&#45;&gt;v3</title>
<path fill="none" stroke="black" d="M179,-143.697C179,-135.983 179,-126.712 179,-118.112"/>
<polygon fill="black" stroke="black" points="182.5,-118.104 179,-108.104 175.5,-118.104 182.5,-118.104"/>
</g>
<!-- v1 -->
<g id="node2" class="node"><title>v1</title>
<ellipse fill="none" stroke="black" cx="27" cy="-18" rx="27" ry="18"/>
<text text-anchor="middle" x="27" y="-14.3" font-family="Times,serif" font-size="14.00">1</text>
</g>
<!-- p1 -->
<g id="node3" class="node"><title>p1</title>
<path fill="none" stroke="black" d="M119.5,-36C119.5,-36 84.5,-36 84.5,-36 78.5,-36 72.5,-30 72.5,-24 72.5,-24 72.5,-12 72.5,-12 72.5,-6 78.5,-0 84.5,-0 84.5,-0 119.5,-0 119.5,-0 125.5,-0 131.5,-6 131.5,-12 131.5,-12 131.5,-24 131.5,-24 131.5,-30 125.5,-36 119.5,-36"/>
<text text-anchor="middle" x="102" y="-14.3" font-family="Times,serif" font-size="14.00">path (2)</text>
</g>
<!-- v3&#45;&gt;v1 -->
<g id="edge2" class="edge"><title>v3&#45;&gt;v1</title>
<path fill="none" stroke="black" d="M157.155,-79.1182C133.809,-68.534 95.7312,-51.2049 63,-36 61.2135,-35.1701 59.3786,-34.3143 57.5282,-33.4486"/>
<polygon fill="black" stroke="black" points="58.8387,-30.1973 48.2995,-29.1124 55.8618,-36.5328 58.8387,-30.1973"/>
</g>
<!-- v3&#45;&gt;p1 -->
<g id="edge4" class="edge"><title>v3&#45;&gt;p1</title>
<path fill="none" stroke="black" d="M163.418,-74.8345C153.421,-65.7459 140.182,-53.7105 128.555,-43.1413"/>
<polygon fill="black" stroke="black" points="130.578,-40.2497 120.824,-36.1127 125.869,-45.4293 130.578,-40.2497"/>
</g>
<!-- p2 -->
<g id="node5" class="node"><title>p2</title>
<path fill="none" stroke="black" d="M196.5,-36C196.5,-36 161.5,-36 161.5,-36 155.5,-36 149.5,-30 149.5,-24 149.5,-24 149.5,-12 149.5,-12 149.5,-6 155.5,-0 161.5,-0 161.5,-0 196.5,-0 196.5,-0 202.5,-0 208.5,-6 208.5,-12 208.5,-12 208.5,-24 208.5,-24 208.5,-30 202.5,-36 196.5,-36"/>
<text text-anchor="middle" x="179" y="-14.3" font-family="Times,serif" font-size="14.00">path (4)</text>
</g>
<!-- v3&#45;&gt;p2 -->
<g id="edge6" class="edge"><title>v3&#45;&gt;p2</title>
<path fill="none" stroke="black" d="M179,-71.6966C179,-63.9827 179,-54.7125 179,-46.1124"/>
<polygon fill="black" stroke="black" points="182.5,-46.1043 179,-36.1043 175.5,-46.1044 182.5,-46.1043"/>
</g>
<!-- p3 -->
<g id="node6" class="node"><title>p3</title>
<path fill="none" stroke="black" d="M273.5,-36C273.5,-36 238.5,-36 238.5,-36 232.5,-36 226.5,-30 226.5,-24 226.5,-24 226.5,-12 226.5,-12 226.5,-6 232.5,-0 238.5,-0 238.5,-0 273.5,-0 273.5,-0 279.5,-0 285.5,-6 285.5,-12 285.5,-12 285.5,-24 285.5,-24 285.5,-30 279.5,-36 273.5,-36"/>
<text text-anchor="middle" x="256" y="-14.3" font-family="Times,serif" font-size="14.00">path (2)</text>
</g>
<!-- v3&#45;&gt;p3 -->
<g id="edge3" class="edge"><title>v3&#45;&gt;p3</title>
<path fill="none" stroke="black" d="M194.582,-74.8345C204.579,-65.7459 217.818,-53.7105 229.445,-43.1413"/>
<polygon fill="black" stroke="black" points="232.131,-45.4293 237.176,-36.1127 227.422,-40.2497 232.131,-45.4293"/>
</g>
<!-- p4 -->
<g id="node7" class="node"><title>p4</title>
<path fill="none" stroke="black" d="M350.5,-36C350.5,-36 315.5,-36 315.5,-36 309.5,-36 303.5,-30 303.5,-24 303.5,-24 303.5,-12 303.5,-12 303.5,-6 309.5,-0 315.5,-0 315.5,-0 350.5,-0 350.5,-0 356.5,-0 362.5,-6 362.5,-12 362.5,-12 362.5,-24 362.5,-24 362.5,-30 356.5,-36 350.5,-36"/>
<text text-anchor="middle" x="333" y="-14.3" font-family="Times,serif" font-size="14.00">path (2)</text>
</g>
<!-- v3&#45;&gt;p4 -->
<g id="edge1" class="edge"><title>v3&#45;&gt;p4</title>
<path fill="none" stroke="black" d="M200.738,-79.1192C224.977,-68.1011 264.66,-50.0637 294.245,-36.6158"/>
<polygon fill="black" stroke="black" points="295.809,-39.7499 303.464,-32.4255 292.912,-33.3773 295.809,-39.7499"/>
</g>
</g>
</svg>
