<?xml version="1.0" encoding="UTF-8" standalone="no"?>
<!DOCTYPE svg PUBLIC "-//W3C//DTD SVG 1.1//EN"
 "http://www.w3.org/Graphics/SVG/1.1/DTD/svg11.dtd">
<!-- Generated by graphviz version 2.38.0 (20140413.2041)
 -->
<!-- Title: %3 Pages: 1 -->
<svg width="398pt" height="260pt"
 viewBox="0.00 0.00 398.00 260.00" xmlns="http://www.w3.org/2000/svg" xmlns:xlink="http://www.w3.org/1999/xlink">
<g id="graph0" class="graph" transform="scale(1 1) rotate(0) translate(4 256)">
<title>%3</title>
<polygon fill="white" stroke="none" points="-4,4 -4,-256 394,-256 394,4 -4,4"/>
<!-- p0 -->
<g id="node1" class="node"><title>p0</title>
<path fill="none" stroke="black" d="M156.5,-108C156.5,-108 121.5,-108 121.5,-108 115.5,-108 109.5,-102 109.5,-96 109.5,-96 109.5,-84 109.5,-84 109.5,-78 115.5,-72 121.5,-72 121.5,-72 156.5,-72 156.5,-72 162.5,-72 168.5,-78 168.5,-84 168.5,-84 168.5,-96 168.5,-96 168.5,-102 162.5,-108 156.5,-108"/>
<text text-anchor="middle" x="139" y="-86.3" font-family="Times,serif" font-size="14.00">path (4)</text>
</g>
<!-- v1 -->
<g id="node2" class="node"><title>v1</title>
<ellipse fill="none" stroke="black" cx="64" cy="-90" rx="27" ry="18"/>
<text text-anchor="middle" x="64" y="-86.3" font-family="Times,serif" font-size="14.00">1</text>
</g>
<!-- v3 -->
<g id="node4" class="node"><title>v3</title>
<ellipse fill="none" stroke="black" cx="27" cy="-18" rx="27" ry="18"/>
<text text-anchor="middle" x="27" y="-14.3" font-family="Times,serif" font-size="14.00">3</text>
</g>
<!-- v1&#45;&gt;v3 -->
<g id="edge1" class="edge"><title>v1&#45;&gt;v3</title>
<path fill="none" stroke="black" d="M55.4185,-72.7646C50.9354,-64.2831 45.349,-53.7144 40.3186,-44.1974"/>
<polygon fill="black" stroke="black" points="43.3025,-42.3527 35.535,-35.1473 37.1138,-45.6239 43.3025,-42.3527"/>
</g>
<!-- p1 -->
<g id="node6" class="node"><title>p1</title>
<path fill="none" stroke="black" d="M119.5,-36C119.5,-36 84.5,-36 84.5,-36 78.5,-36 72.5,-30 72.5,-24 72.5,-24 72.5,-12 72.5,-12 72.5,-6 78.5,-0 84.5,-0 84.5,-0 119.5,-0 119.5,-0 125.5,-0 131.5,-6 131.5,-12 131.5,-12 131.5,-24 131.5,-24 131.5,-30 125.5,-36 119.5,-36"/>
<text text-anchor="middle" x="102" y="-14.3" font-family="Times,serif" font-size="14.00">path (3)</text>
</g>
<!-- v1&#45;&gt;p1 -->
<g id="edge5" class="edge"><title>v1&#45;&gt;p1</title>
<path fill="none" stroke="black" d="M72.8135,-72.7646C77.2862,-64.5255 82.8281,-54.3166 87.8772,-45.0157"/>
<polygon fill="black" stroke="black" points="91.0092,-46.5823 92.7042,-36.1239 84.8572,-43.2426 91.0092,-46.5823"/>
</g>
<!-- v2 -->
<g id="node3" class="node"><title>v2</title>
<ellipse fill="none" stroke="black" cx="160" cy="-234" rx="27" ry="18"/>
<text text-anchor="middle" x="160" y="-230.3" font-family="Times,serif" font-size="14.00">2</text>
</g>
<!-- v4 -->
<g id="node5" class="node"><title>v4</title>
<ellipse fill="none" stroke="black" cx="104" cy="-162" rx="27" ry="18"/>
<text text-anchor="middle" x="104" y="-158.3" font-family="Times,serif" font-size="14.00">4</text>
</g>
<!-- v2&#45;&gt;v4 -->
<g id="edge8" class="edge"><title>v2&#45;&gt;v4</title>
<path fill="none" stroke="black" d="M147.849,-217.811C140.437,-208.546 130.816,-196.52 122.475,-186.094"/>
<polygon fill="black" stroke="black" points="125.107,-183.782 116.127,-178.159 119.641,-188.154 125.107,-183.782"/>
</g>
<!-- v9 -->
<g id="node8" class="node"><title>v9</title>
<ellipse fill="none" stroke="black" cx="216" cy="-162" rx="27" ry="18"/>
<text text-anchor="middle" x="216" y="-158.3" font-family="Times,serif" font-size="14.00">9</text>
</g>
<!-- v2&#45;&gt;v9 -->
<g id="edge2" class="edge"><title>v2&#45;&gt;v9</title>
<path fill="none" stroke="black" d="M172.151,-217.811C179.563,-208.546 189.184,-196.52 197.525,-186.094"/>
<polygon fill="black" stroke="black" points="200.359,-188.154 203.873,-178.159 194.893,-183.782 200.359,-188.154"/>
</g>
<!-- v4&#45;&gt;v1 -->
<g id="edge7" class="edge"><title>v4&#45;&gt;v1</title>
<path fill="none" stroke="black" d="M94.7227,-144.765C89.8256,-136.195 83.7109,-125.494 78.2288,-115.9"/>
<polygon fill="black" stroke="black" points="81.2273,-114.093 73.227,-107.147 75.1496,-117.566 81.2273,-114.093"/>
</g>
<!-- p2 -->
<g id="node7" class="node"><title>p2</title>
<path fill="none" stroke="black" d="M233.5,-108C233.5,-108 198.5,-108 198.5,-108 192.5,-108 186.5,-102 186.5,-96 186.5,-96 186.5,-84 186.5,-84 186.5,-78 192.5,-72 198.5,-72 198.5,-72 233.5,-72 233.5,-72 239.5,-72 245.5,-78 245.5,-84 245.5,-84 245.5,-96 245.5,-96 245.5,-102 239.5,-108 233.5,-108"/>
<text text-anchor="middle" x="216" y="-86.3" font-family="Times,serif" font-size="14.00">path (2)</text>
</g>
<!-- v9&#45;&gt;p0 -->
<g id="edge4" class="edge"><title>v9&#45;&gt;p0</title>
<path fill="none" stroke="black" d="M200.418,-146.834C190.421,-137.746 177.182,-125.71 165.555,-115.141"/>
<polygon fill="black" stroke="black" points="167.578,-112.25 157.824,-108.113 162.869,-117.429 167.578,-112.25"/>
</g>
<!-- v9&#45;&gt;p2 -->
<g id="edge6" class="edge"><title>v9&#45;&gt;p2</title>
<path fill="none" stroke="black" d="M216,-143.697C216,-135.983 216,-126.712 216,-118.112"/>
<polygon fill="black" stroke="black" points="219.5,-118.104 216,-108.104 212.5,-118.104 219.5,-118.104"/>
</g>
<!-- v12 -->
<g id="node9" class="node"><title>v12</title>
<ellipse fill="none" stroke="black" cx="291" cy="-90" rx="27" ry="18"/>
<text text-anchor="middle" x="291" y="-86.3" font-family="Times,serif" font-size="14.00">12</text>
</g>
<!-- v9&#45;&gt;v12 -->
<g id="edge9" class="edge"><title>v9&#45;&gt;v12</title>
<path fill="none" stroke="black" d="M231.177,-146.834C241.851,-136.872 256.319,-123.369 268.353,-112.137"/>
<polygon fill="black" stroke="black" points="270.923,-114.526 275.845,-105.144 266.146,-109.409 270.923,-114.526"/>
</g>
<!-- v15 -->
<g id="node10" class="node"><title>v15</title>
<ellipse fill="none" stroke="black" cx="363" cy="-90" rx="27" ry="18"/>
<text text-anchor="middle" x="363" y="-86.3" font-family="Times,serif" font-size="14.00">15</text>
</g>
<!-- v9&#45;&gt;v15 -->
<g id="edge3" class="edge"><title>v9&#45;&gt;v15</title>
<path fill="none" stroke="black" d="M237.375,-150.821C262.415,-138.898 304.083,-119.056 332.51,-105.519"/>
<polygon fill="black" stroke="black" points="334.075,-108.65 341.599,-101.191 331.066,-102.33 334.075,-108.65"/>
</g>
</g>
</svg>
