<?xml version="1.0" encoding="UTF-8" standalone="no"?>
<!DOCTYPE svg PUBLIC "-//W3C//DTD SVG 1.1//EN"
 "http://www.w3.org/Graphics/SVG/1.1/DTD/svg11.dtd">
<!-- Generated by graphviz version 2.38.0 (20140413.2041)
 -->
<!-- Title: %3 Pages: 1 -->
<svg width="253pt" height="692pt"
 viewBox="0.00 0.00 253.00 692.00" xmlns="http://www.w3.org/2000/svg" xmlns:xlink="http://www.w3.org/1999/xlink">
<g id="graph0" class="graph" transform="scale(1 1) rotate(0) translate(4 688)">
<title>%3</title>
<polygon fill="white" stroke="none" points="-4,4 -4,-688 249,-688 249,4 -4,4"/>
<!-- p0 -->
<g id="node1" class="node"><title>p0</title>
<path fill="none" stroke="black" d="M47,-108C47,-108 12,-108 12,-108 6,-108 0,-102 0,-96 0,-96 0,-84 0,-84 0,-78 6,-72 12,-72 12,-72 47,-72 47,-72 53,-72 59,-78 59,-84 59,-84 59,-96 59,-96 59,-102 53,-108 47,-108"/>
<text text-anchor="middle" x="29.5" y="-86.3" font-family="Times,serif" font-size="14.00">path (3)</text>
</g>
<!-- v1 -->
<g id="node2" class="node"><title>v1</title>
<ellipse fill="none" stroke="black" cx="177.5" cy="-306" rx="27" ry="18"/>
<text text-anchor="middle" x="177.5" y="-302.3" font-family="Times,serif" font-size="14.00">1</text>
</g>
<!-- v2 -->
<g id="node3" class="node"><title>v2</title>
<ellipse fill="none" stroke="black" cx="140.5" cy="-234" rx="27" ry="18"/>
<text text-anchor="middle" x="140.5" y="-230.3" font-family="Times,serif" font-size="14.00">2</text>
</g>
<!-- v1&#45;&gt;v2 -->
<g id="edge3" class="edge"><title>v1&#45;&gt;v2</title>
<path fill="none" stroke="black" d="M168.918,-288.765C164.435,-280.283 158.849,-269.714 153.819,-260.197"/>
<polygon fill="black" stroke="black" points="156.802,-258.353 149.035,-251.147 150.614,-261.624 156.802,-258.353"/>
</g>
<!-- p3 -->
<g id="node9" class="node"><title>p3</title>
<path fill="none" stroke="black" d="M233,-252C233,-252 198,-252 198,-252 192,-252 186,-246 186,-240 186,-240 186,-228 186,-228 186,-222 192,-216 198,-216 198,-216 233,-216 233,-216 239,-216 245,-222 245,-228 245,-228 245,-240 245,-240 245,-246 239,-252 233,-252"/>
<text text-anchor="middle" x="215.5" y="-230.3" font-family="Times,serif" font-size="14.00">path (7)</text>
</g>
<!-- v1&#45;&gt;p3 -->
<g id="edge9" class="edge"><title>v1&#45;&gt;p3</title>
<path fill="none" stroke="black" d="M186.313,-288.765C190.786,-280.525 196.328,-270.317 201.377,-261.016"/>
<polygon fill="black" stroke="black" points="204.509,-262.582 206.204,-252.124 198.357,-259.243 204.509,-262.582"/>
</g>
<!-- v12 -->
<g id="node10" class="node"><title>v12</title>
<ellipse fill="none" stroke="black" cx="104.5" cy="-162" rx="27" ry="18"/>
<text text-anchor="middle" x="104.5" y="-158.3" font-family="Times,serif" font-size="14.00">12</text>
</g>
<!-- v2&#45;&gt;v12 -->
<g id="edge1" class="edge"><title>v2&#45;&gt;v12</title>
<path fill="none" stroke="black" d="M132.15,-216.765C127.788,-208.283 122.353,-197.714 117.459,-188.197"/>
<polygon fill="black" stroke="black" points="120.49,-186.439 112.804,-179.147 114.265,-189.641 120.49,-186.439"/>
</g>
<!-- v36 -->
<g id="node18" class="node"><title>v36</title>
<ellipse fill="none" stroke="black" cx="176.5" cy="-162" rx="27" ry="18"/>
<text text-anchor="middle" x="176.5" y="-158.3" font-family="Times,serif" font-size="14.00">36</text>
</g>
<!-- v2&#45;&gt;v36 -->
<g id="edge11" class="edge"><title>v2&#45;&gt;v36</title>
<path fill="none" stroke="black" d="M148.85,-216.765C153.212,-208.283 158.647,-197.714 163.541,-188.197"/>
<polygon fill="black" stroke="black" points="166.735,-189.641 168.196,-179.147 160.51,-186.439 166.735,-189.641"/>
</g>
<!-- v4 -->
<g id="node4" class="node"><title>v4</title>
<ellipse fill="none" stroke="black" cx="104.5" cy="-90" rx="27" ry="18"/>
<text text-anchor="middle" x="104.5" y="-86.3" font-family="Times,serif" font-size="14.00">4</text>
</g>
<!-- p1 -->
<g id="node5" class="node"><title>p1</title>
<path fill="none" stroke="black" d="M118,-396C118,-396 83,-396 83,-396 77,-396 71,-390 71,-384 71,-384 71,-372 71,-372 71,-366 77,-360 83,-360 83,-360 118,-360 118,-360 124,-360 130,-366 130,-372 130,-372 130,-384 130,-384 130,-390 124,-396 118,-396"/>
<text text-anchor="middle" x="100.5" y="-374.3" font-family="Times,serif" font-size="14.00">path (2)</text>
</g>
<!-- p2 -->
<g id="node6" class="node"><title>p2</title>
<path fill="none" stroke="black" d="M195,-396C195,-396 160,-396 160,-396 154,-396 148,-390 148,-384 148,-384 148,-372 148,-372 148,-366 154,-360 160,-360 160,-360 195,-360 195,-360 201,-360 207,-366 207,-372 207,-372 207,-384 207,-384 207,-390 201,-396 195,-396"/>
<text text-anchor="middle" x="177.5" y="-374.3" font-family="Times,serif" font-size="14.00">path (2)</text>
</g>
<!-- p2&#45;&gt;v1 -->
<g id="edge13" class="edge"><title>p2&#45;&gt;v1</title>
<path fill="none" stroke="black" d="M177.5,-359.697C177.5,-351.983 177.5,-342.712 177.5,-334.112"/>
<polygon fill="black" stroke="black" points="181,-334.104 177.5,-324.104 174,-334.104 181,-334.104"/>
</g>
<!-- v7 -->
<g id="node7" class="node"><title>v7</title>
<ellipse fill="none" stroke="black" cx="139.5" cy="-18" rx="27" ry="18"/>
<text text-anchor="middle" x="139.5" y="-14.3" font-family="Times,serif" font-size="14.00">7</text>
</g>
<!-- v8 -->
<g id="node8" class="node"><title>v8</title>
<ellipse fill="none" stroke="black" cx="176.5" cy="-90" rx="27" ry="18"/>
<text text-anchor="middle" x="176.5" y="-86.3" font-family="Times,serif" font-size="14.00">8</text>
</g>
<!-- v8&#45;&gt;v7 -->
<g id="edge10" class="edge"><title>v8&#45;&gt;v7</title>
<path fill="none" stroke="black" d="M167.918,-72.7646C163.435,-64.2831 157.849,-53.7144 152.819,-44.1974"/>
<polygon fill="black" stroke="black" points="155.802,-42.3527 148.035,-35.1473 149.614,-45.6239 155.802,-42.3527"/>
</g>
<!-- p4 -->
<g id="node11" class="node"><title>p4</title>
<path fill="none" stroke="black" d="M232,-36C232,-36 197,-36 197,-36 191,-36 185,-30 185,-24 185,-24 185,-12 185,-12 185,-6 191,-0 197,-0 197,-0 232,-0 232,-0 238,-0 244,-6 244,-12 244,-12 244,-24 244,-24 244,-30 238,-36 232,-36"/>
<text text-anchor="middle" x="214.5" y="-14.3" font-family="Times,serif" font-size="14.00">path (2)</text>
</g>
<!-- v8&#45;&gt;p4 -->
<g id="edge16" class="edge"><title>v8&#45;&gt;p4</title>
<path fill="none" stroke="black" d="M185.313,-72.7646C189.786,-64.5255 195.328,-54.3166 200.377,-45.0157"/>
<polygon fill="black" stroke="black" points="203.509,-46.5823 205.204,-36.1239 197.357,-43.2426 203.509,-46.5823"/>
</g>
<!-- v12&#45;&gt;p0 -->
<g id="edge12" class="edge"><title>v12&#45;&gt;p0</title>
<path fill="none" stroke="black" d="M89.3226,-146.834C79.5849,-137.746 66.6898,-125.71 55.3657,-115.141"/>
<polygon fill="black" stroke="black" points="57.5338,-112.377 47.8351,-108.113 52.7575,-117.495 57.5338,-112.377"/>
</g>
<!-- v12&#45;&gt;v4 -->
<g id="edge15" class="edge"><title>v12&#45;&gt;v4</title>
<path fill="none" stroke="black" d="M104.5,-143.697C104.5,-135.983 104.5,-126.712 104.5,-118.112"/>
<polygon fill="black" stroke="black" points="108,-118.104 104.5,-108.104 101,-118.104 108,-118.104"/>
</g>
<!-- v12&#45;&gt;v8 -->
<g id="edge17" class="edge"><title>v12&#45;&gt;v8</title>
<path fill="none" stroke="black" d="M119.07,-146.834C129.25,-136.938 143.024,-123.546 154.531,-112.359"/>
<polygon fill="black" stroke="black" points="156.974,-114.865 161.704,-105.385 152.095,-109.846 156.974,-114.865"/>
</g>
<!-- v19 -->
<g id="node12" class="node"><title>v19</title>
<ellipse fill="none" stroke="black" cx="138.5" cy="-450" rx="27" ry="18"/>
<text text-anchor="middle" x="138.5" y="-446.3" font-family="Times,serif" font-size="14.00">19</text>
</g>
<!-- v19&#45;&gt;p1 -->
<g id="edge2" class="edge"><title>v19&#45;&gt;p1</title>
<path fill="none" stroke="black" d="M129.687,-432.765C125.214,-424.525 119.672,-414.317 114.623,-405.016"/>
<polygon fill="black" stroke="black" points="117.643,-403.243 109.796,-396.124 111.491,-406.582 117.643,-403.243"/>
</g>
<!-- v19&#45;&gt;p2 -->
<g id="edge6" class="edge"><title>v19&#45;&gt;p2</title>
<path fill="none" stroke="black" d="M147.545,-432.765C152.136,-424.525 157.824,-414.317 163.006,-405.016"/>
<polygon fill="black" stroke="black" points="166.15,-406.563 167.96,-396.124 160.035,-403.156 166.15,-406.563"/>
</g>
<!-- v20 -->
<g id="node13" class="node"><title>v20</title>
<ellipse fill="none" stroke="black" cx="137.5" cy="-666" rx="27" ry="18"/>
<text text-anchor="middle" x="137.5" y="-662.3" font-family="Times,serif" font-size="14.00">20</text>
</g>
<!-- v21 -->
<g id="node14" class="node"><title>v21</title>
<ellipse fill="none" stroke="black" cx="100.5" cy="-594" rx="27" ry="18"/>
<text text-anchor="middle" x="100.5" y="-590.3" font-family="Times,serif" font-size="14.00">21</text>
</g>
<!-- v20&#45;&gt;v21 -->
<g id="edge5" class="edge"><title>v20&#45;&gt;v21</title>
<path fill="none" stroke="black" d="M128.918,-648.765C124.435,-640.283 118.849,-629.714 113.819,-620.197"/>
<polygon fill="black" stroke="black" points="116.802,-618.353 109.035,-611.147 110.614,-621.624 116.802,-618.353"/>
</g>
<!-- p6 -->
<g id="node17" class="node"><title>p6</title>
<path fill="none" stroke="black" d="M193,-612C193,-612 158,-612 158,-612 152,-612 146,-606 146,-600 146,-600 146,-588 146,-588 146,-582 152,-576 158,-576 158,-576 193,-576 193,-576 199,-576 205,-582 205,-588 205,-588 205,-600 205,-600 205,-606 199,-612 193,-612"/>
<text text-anchor="middle" x="175.5" y="-590.3" font-family="Times,serif" font-size="14.00">path (4)</text>
</g>
<!-- v20&#45;&gt;p6 -->
<g id="edge14" class="edge"><title>v20&#45;&gt;p6</title>
<path fill="none" stroke="black" d="M146.313,-648.765C150.786,-640.525 156.328,-630.317 161.377,-621.016"/>
<polygon fill="black" stroke="black" points="164.509,-622.582 166.204,-612.124 158.357,-619.243 164.509,-622.582"/>
</g>
<!-- v23 -->
<g id="node15" class="node"><title>v23</title>
<ellipse fill="none" stroke="black" cx="63.5" cy="-522" rx="27" ry="18"/>
<text text-anchor="middle" x="63.5" y="-518.3" font-family="Times,serif" font-size="14.00">23</text>
</g>
<!-- v21&#45;&gt;v23 -->
<g id="edge8" class="edge"><title>v21&#45;&gt;v23</title>
<path fill="none" stroke="black" d="M91.9185,-576.765C87.4354,-568.283 81.849,-557.714 76.8186,-548.197"/>
<polygon fill="black" stroke="black" points="79.8025,-546.353 72.035,-539.147 73.6138,-549.624 79.8025,-546.353"/>
</g>
<!-- p5 -->
<g id="node16" class="node"><title>p5</title>
<path fill="none" stroke="black" d="M156,-540C156,-540 121,-540 121,-540 115,-540 109,-534 109,-528 109,-528 109,-516 109,-516 109,-510 115,-504 121,-504 121,-504 156,-504 156,-504 162,-504 168,-510 168,-516 168,-516 168,-528 168,-528 168,-534 162,-540 156,-540"/>
<text text-anchor="middle" x="138.5" y="-518.3" font-family="Times,serif" font-size="14.00">path (6)</text>
</g>
<!-- v21&#45;&gt;p5 -->
<g id="edge4" class="edge"><title>v21&#45;&gt;p5</title>
<path fill="none" stroke="black" d="M109.313,-576.765C113.786,-568.525 119.328,-558.317 124.377,-549.016"/>
<polygon fill="black" stroke="black" points="127.509,-550.582 129.204,-540.124 121.357,-547.243 127.509,-550.582"/>
</g>
<!-- p5&#45;&gt;v19 -->
<g id="edge7" class="edge"><title>p5&#45;&gt;v19</title>
<path fill="none" stroke="black" d="M138.5,-503.697C138.5,-495.983 138.5,-486.712 138.5,-478.112"/>
<polygon fill="black" stroke="black" points="142,-478.104 138.5,-468.104 135,-478.104 142,-478.104"/>
</g>
</g>
</svg>
