<?xml version="1.0" encoding="UTF-8" standalone="no"?>
<!DOCTYPE svg PUBLIC "-//W3C//DTD SVG 1.1//EN"
 "http://www.w3.org/Graphics/SVG/1.1/DTD/svg11.dtd">
<!-- Generated by graphviz version 2.38.0 (20140413.2041)
 -->
<!-- Title: %3 Pages: 1 -->
<svg width="335pt" height="260pt"
 viewBox="0.00 0.00 335.00 260.00" xmlns="http://www.w3.org/2000/svg" xmlns:xlink="http://www.w3.org/1999/xlink">
<g id="graph0" class="graph" transform="scale(1 1) rotate(0) translate(4 256)">
<title>%3</title>
<polygon fill="white" stroke="none" points="-4,4 -4,-256 331,-256 331,4 -4,4"/>
<!-- p0 -->
<g id="node1" class="node"><title>p0</title>
<path fill="none" stroke="black" d="M238,-36C238,-36 203,-36 203,-36 197,-36 191,-30 191,-24 191,-24 191,-12 191,-12 191,-6 197,-0 203,-0 203,-0 238,-0 238,-0 244,-0 250,-6 250,-12 250,-12 250,-24 250,-24 250,-30 244,-36 238,-36"/>
<text text-anchor="middle" x="220.5" y="-14.3" font-family="Times,serif" font-size="14.00">path (5)</text>
</g>
<!-- v1 -->
<g id="node2" class="node"><title>v1</title>
<ellipse fill="none" stroke="black" cx="144.5" cy="-234" rx="27" ry="18"/>
<text text-anchor="middle" x="144.5" y="-230.3" font-family="Times,serif" font-size="14.00">1</text>
</g>
<!-- p1 -->
<g id="node4" class="node"><title>p1</title>
<path fill="none" stroke="black" d="M47,-180C47,-180 12,-180 12,-180 6,-180 0,-174 0,-168 0,-168 0,-156 0,-156 0,-150 6,-144 12,-144 12,-144 47,-144 47,-144 53,-144 59,-150 59,-156 59,-156 59,-168 59,-168 59,-174 53,-180 47,-180"/>
<text text-anchor="middle" x="29.5" y="-158.3" font-family="Times,serif" font-size="14.00">path (5)</text>
</g>
<!-- v1&#45;&gt;p1 -->
<g id="edge4" class="edge"><title>v1&#45;&gt;p1</title>
<path fill="none" stroke="black" d="M125.252,-221.284C109.171,-211.496 85.787,-197.262 66.1531,-185.311"/>
<polygon fill="black" stroke="black" points="67.7976,-182.214 57.4358,-180.004 64.1579,-188.194 67.7976,-182.214"/>
</g>
<!-- p2 -->
<g id="node5" class="node"><title>p2</title>
<path fill="none" stroke="black" d="M124,-180C124,-180 89,-180 89,-180 83,-180 77,-174 77,-168 77,-168 77,-156 77,-156 77,-150 83,-144 89,-144 89,-144 124,-144 124,-144 130,-144 136,-150 136,-156 136,-156 136,-168 136,-168 136,-174 130,-180 124,-180"/>
<text text-anchor="middle" x="106.5" y="-158.3" font-family="Times,serif" font-size="14.00">path (7)</text>
</g>
<!-- v1&#45;&gt;p2 -->
<g id="edge7" class="edge"><title>v1&#45;&gt;p2</title>
<path fill="none" stroke="black" d="M135.687,-216.765C131.214,-208.525 125.672,-198.317 120.623,-189.016"/>
<polygon fill="black" stroke="black" points="123.643,-187.243 115.796,-180.124 117.491,-190.582 123.643,-187.243"/>
</g>
<!-- p4 -->
<g id="node7" class="node"><title>p4</title>
<path fill="none" stroke="black" d="M201,-180C201,-180 166,-180 166,-180 160,-180 154,-174 154,-168 154,-168 154,-156 154,-156 154,-150 160,-144 166,-144 166,-144 201,-144 201,-144 207,-144 213,-150 213,-156 213,-156 213,-168 213,-168 213,-174 207,-180 201,-180"/>
<text text-anchor="middle" x="183.5" y="-158.3" font-family="Times,serif" font-size="14.00">path (7)</text>
</g>
<!-- v1&#45;&gt;p4 -->
<g id="edge1" class="edge"><title>v1&#45;&gt;p4</title>
<path fill="none" stroke="black" d="M153.545,-216.765C158.136,-208.525 163.824,-198.317 169.006,-189.016"/>
<polygon fill="black" stroke="black" points="172.15,-190.563 173.96,-180.124 166.035,-187.156 172.15,-190.563"/>
</g>
<!-- v23 -->
<g id="node8" class="node"><title>v23</title>
<ellipse fill="none" stroke="black" cx="258.5" cy="-162" rx="27" ry="18"/>
<text text-anchor="middle" x="258.5" y="-158.3" font-family="Times,serif" font-size="14.00">23</text>
</g>
<!-- v1&#45;&gt;v23 -->
<g id="edge5" class="edge"><title>v1&#45;&gt;v23</title>
<path fill="none" stroke="black" d="M163.839,-221.125C182.099,-209.913 209.695,-192.968 230.387,-180.263"/>
<polygon fill="black" stroke="black" points="232.376,-183.148 239.067,-174.933 228.713,-177.183 232.376,-183.148"/>
</g>
<!-- v3 -->
<g id="node3" class="node"><title>v3</title>
<ellipse fill="none" stroke="black" cx="258.5" cy="-90" rx="27" ry="18"/>
<text text-anchor="middle" x="258.5" y="-86.3" font-family="Times,serif" font-size="14.00">3</text>
</g>
<!-- v3&#45;&gt;p0 -->
<g id="edge6" class="edge"><title>v3&#45;&gt;p0</title>
<path fill="none" stroke="black" d="M249.687,-72.7646C245.214,-64.5255 239.672,-54.3166 234.623,-45.0157"/>
<polygon fill="black" stroke="black" points="237.643,-43.2426 229.796,-36.1239 231.491,-46.5823 237.643,-43.2426"/>
</g>
<!-- p3 -->
<g id="node6" class="node"><title>p3</title>
<path fill="none" stroke="black" d="M315,-36C315,-36 280,-36 280,-36 274,-36 268,-30 268,-24 268,-24 268,-12 268,-12 268,-6 274,-0 280,-0 280,-0 315,-0 315,-0 321,-0 327,-6 327,-12 327,-12 327,-24 327,-24 327,-30 321,-36 315,-36"/>
<text text-anchor="middle" x="297.5" y="-14.3" font-family="Times,serif" font-size="14.00">path (8)</text>
</g>
<!-- v3&#45;&gt;p3 -->
<g id="edge2" class="edge"><title>v3&#45;&gt;p3</title>
<path fill="none" stroke="black" d="M267.545,-72.7646C272.136,-64.5255 277.824,-54.3166 283.006,-45.0157"/>
<polygon fill="black" stroke="black" points="286.15,-46.5631 287.96,-36.1239 280.035,-43.1561 286.15,-46.5631"/>
</g>
<!-- v23&#45;&gt;v3 -->
<g id="edge3" class="edge"><title>v23&#45;&gt;v3</title>
<path fill="none" stroke="black" d="M258.5,-143.697C258.5,-135.983 258.5,-126.712 258.5,-118.112"/>
<polygon fill="black" stroke="black" points="262,-118.104 258.5,-108.104 255,-118.104 262,-118.104"/>
</g>
</g>
</svg>
