<?xml version="1.0" encoding="UTF-8" standalone="no"?>
<!DOCTYPE svg PUBLIC "-//W3C//DTD SVG 1.1//EN"
 "http://www.w3.org/Graphics/SVG/1.1/DTD/svg11.dtd">
<!-- Generated by graphviz version 2.38.0 (20140413.2041)
 -->
<!-- Title: %3 Pages: 1 -->
<svg width="304pt" height="188pt"
 viewBox="0.00 0.00 303.50 188.00" xmlns="http://www.w3.org/2000/svg" xmlns:xlink="http://www.w3.org/1999/xlink">
<g id="graph0" class="graph" transform="scale(1 1) rotate(0) translate(4 184)">
<title>%3</title>
<polygon fill="white" stroke="none" points="-4,4 -4,-184 299.5,-184 299.5,4 -4,4"/>
<!-- v0 -->
<g id="node1" class="node"><title>v0</title>
<ellipse fill="none" stroke="black" cx="114" cy="-90" rx="27" ry="18"/>
<text text-anchor="middle" x="114" y="-86.3" font-family="Times,serif" font-size="14.00">0</text>
</g>
<!-- p1 -->
<g id="node3" class="node"><title>p1</title>
<path fill="none" stroke="black" d="M54,-36C54,-36 12,-36 12,-36 6,-36 0,-30 0,-24 0,-24 0,-12 0,-12 0,-6 6,-0 12,-0 12,-0 54,-0 54,-0 60,-0 66,-6 66,-12 66,-12 66,-24 66,-24 66,-30 60,-36 54,-36"/>
<text text-anchor="middle" x="33" y="-14.3" font-family="Times,serif" font-size="14.00">path (15)</text>
</g>
<!-- v0&#45;&gt;p1 -->
<g id="edge6" class="edge"><title>v0&#45;&gt;p1</title>
<path fill="none" stroke="black" d="M97.997,-75.1703C87.3316,-65.9532 73.0355,-53.5986 60.5668,-42.8232"/>
<polygon fill="black" stroke="black" points="62.5482,-39.9096 52.6935,-36.019 57.9711,-45.2059 62.5482,-39.9096"/>
</g>
<!-- p2 -->
<g id="node4" class="node"><title>p2</title>
<path fill="none" stroke="black" d="M131.5,-36C131.5,-36 96.5,-36 96.5,-36 90.5,-36 84.5,-30 84.5,-24 84.5,-24 84.5,-12 84.5,-12 84.5,-6 90.5,-0 96.5,-0 96.5,-0 131.5,-0 131.5,-0 137.5,-0 143.5,-6 143.5,-12 143.5,-12 143.5,-24 143.5,-24 143.5,-30 137.5,-36 131.5,-36"/>
<text text-anchor="middle" x="114" y="-14.3" font-family="Times,serif" font-size="14.00">path (2)</text>
</g>
<!-- v0&#45;&gt;p2 -->
<g id="edge2" class="edge"><title>v0&#45;&gt;p2</title>
<path fill="none" stroke="black" d="M114,-71.6966C114,-63.9827 114,-54.7125 114,-46.1124"/>
<polygon fill="black" stroke="black" points="117.5,-46.1043 114,-36.1043 110.5,-46.1044 117.5,-46.1043"/>
</g>
<!-- p3 -->
<g id="node6" class="node"><title>p3</title>
<path fill="none" stroke="black" d="M208.5,-36C208.5,-36 173.5,-36 173.5,-36 167.5,-36 161.5,-30 161.5,-24 161.5,-24 161.5,-12 161.5,-12 161.5,-6 167.5,-0 173.5,-0 173.5,-0 208.5,-0 208.5,-0 214.5,-0 220.5,-6 220.5,-12 220.5,-12 220.5,-24 220.5,-24 220.5,-30 214.5,-36 208.5,-36"/>
<text text-anchor="middle" x="191" y="-14.3" font-family="Times,serif" font-size="14.00">path (2)</text>
</g>
<!-- v0&#45;&gt;p3 -->
<g id="edge5" class="edge"><title>v0&#45;&gt;p3</title>
<path fill="none" stroke="black" d="M129.582,-74.8345C139.579,-65.7459 152.818,-53.7105 164.445,-43.1413"/>
<polygon fill="black" stroke="black" points="167.131,-45.4293 172.176,-36.1127 162.422,-40.2497 167.131,-45.4293"/>
</g>
<!-- p0 -->
<g id="node2" class="node"><title>p0</title>
<path fill="none" stroke="black" d="M206.5,-108C206.5,-108 171.5,-108 171.5,-108 165.5,-108 159.5,-102 159.5,-96 159.5,-96 159.5,-84 159.5,-84 159.5,-78 165.5,-72 171.5,-72 171.5,-72 206.5,-72 206.5,-72 212.5,-72 218.5,-78 218.5,-84 218.5,-84 218.5,-96 218.5,-96 218.5,-102 212.5,-108 206.5,-108"/>
<text text-anchor="middle" x="189" y="-86.3" font-family="Times,serif" font-size="14.00">path (4)</text>
</g>
<!-- v4 -->
<g id="node5" class="node"><title>v4</title>
<ellipse fill="none" stroke="black" cx="189" cy="-162" rx="27" ry="18"/>
<text text-anchor="middle" x="189" y="-158.3" font-family="Times,serif" font-size="14.00">4</text>
</g>
<!-- v4&#45;&gt;v0 -->
<g id="edge3" class="edge"><title>v4&#45;&gt;v0</title>
<path fill="none" stroke="black" d="M173.823,-146.834C163.149,-136.872 148.681,-123.369 136.647,-112.137"/>
<polygon fill="black" stroke="black" points="138.854,-109.409 129.155,-105.144 134.077,-114.526 138.854,-109.409"/>
</g>
<!-- v4&#45;&gt;p0 -->
<g id="edge4" class="edge"><title>v4&#45;&gt;p0</title>
<path fill="none" stroke="black" d="M189,-143.697C189,-135.983 189,-126.712 189,-118.112"/>
<polygon fill="black" stroke="black" points="192.5,-118.104 189,-108.104 185.5,-118.104 192.5,-118.104"/>
</g>
<!-- p4 -->
<g id="node7" class="node"><title>p4</title>
<path fill="none" stroke="black" d="M283.5,-108C283.5,-108 248.5,-108 248.5,-108 242.5,-108 236.5,-102 236.5,-96 236.5,-96 236.5,-84 236.5,-84 236.5,-78 242.5,-72 248.5,-72 248.5,-72 283.5,-72 283.5,-72 289.5,-72 295.5,-78 295.5,-84 295.5,-84 295.5,-96 295.5,-96 295.5,-102 289.5,-108 283.5,-108"/>
<text text-anchor="middle" x="266" y="-86.3" font-family="Times,serif" font-size="14.00">path (2)</text>
</g>
<!-- v4&#45;&gt;p4 -->
<g id="edge1" class="edge"><title>v4&#45;&gt;p4</title>
<path fill="none" stroke="black" d="M204.582,-146.834C214.579,-137.746 227.818,-125.71 239.445,-115.141"/>
<polygon fill="black" stroke="black" points="242.131,-117.429 247.176,-108.113 237.422,-112.25 242.131,-117.429"/>
</g>
</g>
</svg>
