<?xml version="1.0" encoding="UTF-8" standalone="no"?>
<!DOCTYPE svg PUBLIC "-//W3C//DTD SVG 1.1//EN"
 "http://www.w3.org/Graphics/SVG/1.1/DTD/svg11.dtd">
<!-- Generated by graphviz version 2.38.0 (20140413.2041)
 -->
<!-- Title: %3 Pages: 1 -->
<svg width="841pt" height="404pt"
 viewBox="0.00 0.00 841.00 404.00" xmlns="http://www.w3.org/2000/svg" xmlns:xlink="http://www.w3.org/1999/xlink">
<g id="graph0" class="graph" transform="scale(1 1) rotate(0) translate(4 400)">
<title>%3</title>
<polygon fill="white" stroke="none" points="-4,4 -4,-400 837,-400 837,4 -4,4"/>
<!-- v0 -->
<g id="node1" class="node"><title>v0</title>
<ellipse fill="none" stroke="black" cx="130" cy="-162" rx="27" ry="18"/>
<text text-anchor="middle" x="130" y="-158.3" font-family="Times,serif" font-size="14.00">0</text>
</g>
<!-- v1 -->
<g id="node2" class="node"><title>v1</title>
<ellipse fill="none" stroke="black" cx="734" cy="-234" rx="27" ry="18"/>
<text text-anchor="middle" x="734" y="-230.3" font-family="Times,serif" font-size="14.00">1</text>
</g>
<!-- v19 -->
<g id="node10" class="node"><title>v19</title>
<ellipse fill="none" stroke="black" cx="734" cy="-162" rx="27" ry="18"/>
<text text-anchor="middle" x="734" y="-158.3" font-family="Times,serif" font-size="14.00">19</text>
</g>
<!-- v1&#45;&gt;v19 -->
<g id="edge12" class="edge"><title>v1&#45;&gt;v19</title>
<path fill="none" stroke="black" d="M734,-215.697C734,-207.983 734,-198.712 734,-190.112"/>
<polygon fill="black" stroke="black" points="737.5,-190.104 734,-180.104 730.5,-190.104 737.5,-190.104"/>
</g>
<!-- v40 -->
<g id="node23" class="node"><title>v40</title>
<ellipse fill="none" stroke="black" cx="806" cy="-162" rx="27" ry="18"/>
<text text-anchor="middle" x="806" y="-158.3" font-family="Times,serif" font-size="14.00">40</text>
</g>
<!-- v1&#45;&gt;v40 -->
<g id="edge11" class="edge"><title>v1&#45;&gt;v40</title>
<path fill="none" stroke="black" d="M748.57,-218.834C758.75,-208.938 772.524,-195.546 784.031,-184.359"/>
<polygon fill="black" stroke="black" points="786.474,-186.865 791.204,-177.385 781.595,-181.846 786.474,-186.865"/>
</g>
<!-- p0 -->
<g id="node3" class="node"><title>p0</title>
<path fill="none" stroke="black" d="M563.5,-36C563.5,-36 528.5,-36 528.5,-36 522.5,-36 516.5,-30 516.5,-24 516.5,-24 516.5,-12 516.5,-12 516.5,-6 522.5,-0 528.5,-0 528.5,-0 563.5,-0 563.5,-0 569.5,-0 575.5,-6 575.5,-12 575.5,-12 575.5,-24 575.5,-24 575.5,-30 569.5,-36 563.5,-36"/>
<text text-anchor="middle" x="546" y="-14.3" font-family="Times,serif" font-size="14.00">path (2)</text>
</g>
<!-- p1 -->
<g id="node4" class="node"><title>p1</title>
<path fill="none" stroke="black" d="M222.5,-180C222.5,-180 187.5,-180 187.5,-180 181.5,-180 175.5,-174 175.5,-168 175.5,-168 175.5,-156 175.5,-156 175.5,-150 181.5,-144 187.5,-144 187.5,-144 222.5,-144 222.5,-144 228.5,-144 234.5,-150 234.5,-156 234.5,-156 234.5,-168 234.5,-168 234.5,-174 228.5,-180 222.5,-180"/>
<text text-anchor="middle" x="205" y="-158.3" font-family="Times,serif" font-size="14.00">path (3)</text>
</g>
<!-- p2 -->
<g id="node5" class="node"><title>p2</title>
<path fill="none" stroke="black" d="M372.5,-180C372.5,-180 337.5,-180 337.5,-180 331.5,-180 325.5,-174 325.5,-168 325.5,-168 325.5,-156 325.5,-156 325.5,-150 331.5,-144 337.5,-144 337.5,-144 372.5,-144 372.5,-144 378.5,-144 384.5,-150 384.5,-156 384.5,-156 384.5,-168 384.5,-168 384.5,-174 378.5,-180 372.5,-180"/>
<text text-anchor="middle" x="355" y="-158.3" font-family="Times,serif" font-size="14.00">path (5)</text>
</g>
<!-- p3 -->
<g id="node6" class="node"><title>p3</title>
<path fill="none" stroke="black" d="M640.5,-36C640.5,-36 605.5,-36 605.5,-36 599.5,-36 593.5,-30 593.5,-24 593.5,-24 593.5,-12 593.5,-12 593.5,-6 599.5,-0 605.5,-0 605.5,-0 640.5,-0 640.5,-0 646.5,-0 652.5,-6 652.5,-12 652.5,-12 652.5,-24 652.5,-24 652.5,-30 646.5,-36 640.5,-36"/>
<text text-anchor="middle" x="623" y="-14.3" font-family="Times,serif" font-size="14.00">path (5)</text>
</g>
<!-- p4 -->
<g id="node7" class="node"><title>p4</title>
<path fill="none" stroke="black" d="M449.5,-180C449.5,-180 414.5,-180 414.5,-180 408.5,-180 402.5,-174 402.5,-168 402.5,-168 402.5,-156 402.5,-156 402.5,-150 408.5,-144 414.5,-144 414.5,-144 449.5,-144 449.5,-144 455.5,-144 461.5,-150 461.5,-156 461.5,-156 461.5,-168 461.5,-168 461.5,-174 455.5,-180 449.5,-180"/>
<text text-anchor="middle" x="432" y="-158.3" font-family="Times,serif" font-size="14.00">path (2)</text>
</g>
<!-- v15 -->
<g id="node8" class="node"><title>v15</title>
<ellipse fill="none" stroke="black" cx="509" cy="-234" rx="27" ry="18"/>
<text text-anchor="middle" x="509" y="-230.3" font-family="Times,serif" font-size="14.00">15</text>
</g>
<!-- v15&#45;&gt;p2 -->
<g id="edge9" class="edge"><title>v15&#45;&gt;p2</title>
<path fill="none" stroke="black" d="M487.262,-223.119C463.023,-212.101 423.34,-194.064 393.755,-180.616"/>
<polygon fill="black" stroke="black" points="395.088,-177.377 384.536,-176.426 392.191,-183.75 395.088,-177.377"/>
</g>
<!-- v15&#45;&gt;p4 -->
<g id="edge14" class="edge"><title>v15&#45;&gt;p4</title>
<path fill="none" stroke="black" d="M493.418,-218.834C483.421,-209.746 470.182,-197.71 458.555,-187.141"/>
<polygon fill="black" stroke="black" points="460.578,-184.25 450.824,-180.113 455.869,-189.429 460.578,-184.25"/>
</g>
<!-- p5 -->
<g id="node9" class="node"><title>p5</title>
<path fill="none" stroke="black" d="M526.5,-180C526.5,-180 491.5,-180 491.5,-180 485.5,-180 479.5,-174 479.5,-168 479.5,-168 479.5,-156 479.5,-156 479.5,-150 485.5,-144 491.5,-144 491.5,-144 526.5,-144 526.5,-144 532.5,-144 538.5,-150 538.5,-156 538.5,-156 538.5,-168 538.5,-168 538.5,-174 532.5,-180 526.5,-180"/>
<text text-anchor="middle" x="509" y="-158.3" font-family="Times,serif" font-size="14.00">path (3)</text>
</g>
<!-- v15&#45;&gt;p5 -->
<g id="edge16" class="edge"><title>v15&#45;&gt;p5</title>
<path fill="none" stroke="black" d="M509,-215.697C509,-207.983 509,-198.712 509,-190.112"/>
<polygon fill="black" stroke="black" points="512.5,-190.104 509,-180.104 505.5,-190.104 512.5,-190.104"/>
</g>
<!-- v38 -->
<g id="node22" class="node"><title>v38</title>
<ellipse fill="none" stroke="black" cx="584" cy="-162" rx="27" ry="18"/>
<text text-anchor="middle" x="584" y="-158.3" font-family="Times,serif" font-size="14.00">38</text>
</g>
<!-- v15&#45;&gt;v38 -->
<g id="edge21" class="edge"><title>v15&#45;&gt;v38</title>
<path fill="none" stroke="black" d="M524.177,-218.834C534.851,-208.872 549.319,-195.369 561.353,-184.137"/>
<polygon fill="black" stroke="black" points="563.923,-186.526 568.845,-177.144 559.146,-181.409 563.923,-186.526"/>
</g>
<!-- p8 -->
<g id="node24" class="node"><title>p8</title>
<path fill="none" stroke="black" d="M676.5,-180C676.5,-180 641.5,-180 641.5,-180 635.5,-180 629.5,-174 629.5,-168 629.5,-168 629.5,-156 629.5,-156 629.5,-150 635.5,-144 641.5,-144 641.5,-144 676.5,-144 676.5,-144 682.5,-144 688.5,-150 688.5,-156 688.5,-156 688.5,-168 688.5,-168 688.5,-174 682.5,-180 676.5,-180"/>
<text text-anchor="middle" x="659" y="-158.3" font-family="Times,serif" font-size="14.00">path (2)</text>
</g>
<!-- v15&#45;&gt;p8 -->
<g id="edge6" class="edge"><title>v15&#45;&gt;p8</title>
<path fill="none" stroke="black" d="M530.491,-222.971C553.781,-212.102 591.435,-194.53 619.979,-181.21"/>
<polygon fill="black" stroke="black" points="621.693,-184.272 629.275,-176.872 618.733,-177.929 621.693,-184.272"/>
</g>
<!-- v20 -->
<g id="node11" class="node"><title>v20</title>
<ellipse fill="none" stroke="black" cx="171" cy="-306" rx="27" ry="18"/>
<text text-anchor="middle" x="171" y="-302.3" font-family="Times,serif" font-size="14.00">20</text>
</g>
<!-- v23 -->
<g id="node14" class="node"><title>v23</title>
<ellipse fill="none" stroke="black" cx="27" cy="-234" rx="27" ry="18"/>
<text text-anchor="middle" x="27" y="-230.3" font-family="Times,serif" font-size="14.00">23</text>
</g>
<!-- v20&#45;&gt;v23 -->
<g id="edge18" class="edge"><title>v20&#45;&gt;v23</title>
<path fill="none" stroke="black" d="M149.752,-294.671C125.398,-282.832 85.2814,-263.331 57.5723,-249.862"/>
<polygon fill="black" stroke="black" points="58.8588,-246.595 48.3349,-245.371 55.7984,-252.891 58.8588,-246.595"/>
</g>
<!-- v25 -->
<g id="node16" class="node"><title>v25</title>
<ellipse fill="none" stroke="black" cx="99" cy="-234" rx="27" ry="18"/>
<text text-anchor="middle" x="99" y="-230.3" font-family="Times,serif" font-size="14.00">25</text>
</g>
<!-- v20&#45;&gt;v25 -->
<g id="edge2" class="edge"><title>v20&#45;&gt;v25</title>
<path fill="none" stroke="black" d="M156.43,-290.834C146.25,-280.938 132.476,-267.546 120.969,-256.359"/>
<polygon fill="black" stroke="black" points="123.405,-253.846 113.796,-249.385 118.526,-258.865 123.405,-253.846"/>
</g>
<!-- v28 -->
<g id="node18" class="node"><title>v28</title>
<ellipse fill="none" stroke="black" cx="171" cy="-234" rx="27" ry="18"/>
<text text-anchor="middle" x="171" y="-230.3" font-family="Times,serif" font-size="14.00">28</text>
</g>
<!-- v20&#45;&gt;v28 -->
<g id="edge22" class="edge"><title>v20&#45;&gt;v28</title>
<path fill="none" stroke="black" d="M171,-287.697C171,-279.983 171,-270.712 171,-262.112"/>
<polygon fill="black" stroke="black" points="174.5,-262.104 171,-252.104 167.5,-262.104 174.5,-262.104"/>
</g>
<!-- v32 -->
<g id="node19" class="node"><title>v32</title>
<ellipse fill="none" stroke="black" cx="243" cy="-234" rx="27" ry="18"/>
<text text-anchor="middle" x="243" y="-230.3" font-family="Times,serif" font-size="14.00">32</text>
</g>
<!-- v20&#45;&gt;v32 -->
<g id="edge10" class="edge"><title>v20&#45;&gt;v32</title>
<path fill="none" stroke="black" d="M185.57,-290.834C195.75,-280.938 209.524,-267.546 221.031,-256.359"/>
<polygon fill="black" stroke="black" points="223.474,-258.865 228.204,-249.385 218.595,-253.846 223.474,-258.865"/>
</g>
<!-- p6 -->
<g id="node12" class="node"><title>p6</title>
<path fill="none" stroke="black" d="M449.5,-324C449.5,-324 414.5,-324 414.5,-324 408.5,-324 402.5,-318 402.5,-312 402.5,-312 402.5,-300 402.5,-300 402.5,-294 408.5,-288 414.5,-288 414.5,-288 449.5,-288 449.5,-288 455.5,-288 461.5,-294 461.5,-300 461.5,-300 461.5,-312 461.5,-312 461.5,-318 455.5,-324 449.5,-324"/>
<text text-anchor="middle" x="432" y="-302.3" font-family="Times,serif" font-size="14.00">path (3)</text>
</g>
<!-- v22 -->
<g id="node13" class="node"><title>v22</title>
<ellipse fill="none" stroke="black" cx="280" cy="-162" rx="27" ry="18"/>
<text text-anchor="middle" x="280" y="-158.3" font-family="Times,serif" font-size="14.00">22</text>
</g>
<!-- p7 -->
<g id="node15" class="node"><title>p7</title>
<path fill="none" stroke="black" d="M526.5,-324C526.5,-324 491.5,-324 491.5,-324 485.5,-324 479.5,-318 479.5,-312 479.5,-312 479.5,-300 479.5,-300 479.5,-294 485.5,-288 491.5,-288 491.5,-288 526.5,-288 526.5,-288 532.5,-288 538.5,-294 538.5,-300 538.5,-300 538.5,-312 538.5,-312 538.5,-318 532.5,-324 526.5,-324"/>
<text text-anchor="middle" x="509" y="-302.3" font-family="Times,serif" font-size="14.00">path (3)</text>
</g>
<!-- p7&#45;&gt;v15 -->
<g id="edge13" class="edge"><title>p7&#45;&gt;v15</title>
<path fill="none" stroke="black" d="M509,-287.697C509,-279.983 509,-270.712 509,-262.112"/>
<polygon fill="black" stroke="black" points="512.5,-262.104 509,-252.104 505.5,-262.104 512.5,-262.104"/>
</g>
<!-- v26 -->
<g id="node17" class="node"><title>v26</title>
<ellipse fill="none" stroke="black" cx="470" cy="-378" rx="27" ry="18"/>
<text text-anchor="middle" x="470" y="-374.3" font-family="Times,serif" font-size="14.00">26</text>
</g>
<!-- v26&#45;&gt;v20 -->
<g id="edge5" class="edge"><title>v26&#45;&gt;v20</title>
<path fill="none" stroke="black" d="M445.022,-371.152C391.817,-358.696 267.19,-329.519 206.063,-315.209"/>
<polygon fill="black" stroke="black" points="206.652,-311.752 196.117,-312.88 205.056,-318.568 206.652,-311.752"/>
</g>
<!-- v26&#45;&gt;p6 -->
<g id="edge20" class="edge"><title>v26&#45;&gt;p6</title>
<path fill="none" stroke="black" d="M461.187,-360.765C456.714,-352.525 451.172,-342.317 446.123,-333.016"/>
<polygon fill="black" stroke="black" points="449.143,-331.243 441.296,-324.124 442.991,-334.582 449.143,-331.243"/>
</g>
<!-- v26&#45;&gt;p7 -->
<g id="edge1" class="edge"><title>v26&#45;&gt;p7</title>
<path fill="none" stroke="black" d="M479.045,-360.765C483.636,-352.525 489.324,-342.317 494.506,-333.016"/>
<polygon fill="black" stroke="black" points="497.65,-334.563 499.46,-324.124 491.535,-331.156 497.65,-334.563"/>
</g>
<!-- v33 -->
<g id="node20" class="node"><title>v33</title>
<ellipse fill="none" stroke="black" cx="659" cy="-306" rx="27" ry="18"/>
<text text-anchor="middle" x="659" y="-302.3" font-family="Times,serif" font-size="14.00">33</text>
</g>
<!-- v26&#45;&gt;v33 -->
<g id="edge8" class="edge"><title>v26&#45;&gt;v33</title>
<path fill="none" stroke="black" d="M493.175,-368.417C526.564,-356.05 588.354,-333.165 626.352,-319.092"/>
<polygon fill="black" stroke="black" points="627.769,-322.299 635.931,-315.544 625.338,-315.735 627.769,-322.299"/>
</g>
<!-- v32&#45;&gt;v0 -->
<g id="edge19" class="edge"><title>v32&#45;&gt;v0</title>
<path fill="none" stroke="black" d="M223.831,-221.125C205.73,-209.913 178.377,-192.968 157.867,-180.263"/>
<polygon fill="black" stroke="black" points="159.607,-177.224 149.263,-174.933 155.921,-183.174 159.607,-177.224"/>
</g>
<!-- v32&#45;&gt;p1 -->
<g id="edge7" class="edge"><title>v32&#45;&gt;p1</title>
<path fill="none" stroke="black" d="M234.187,-216.765C229.714,-208.525 224.172,-198.317 219.123,-189.016"/>
<polygon fill="black" stroke="black" points="222.143,-187.243 214.296,-180.124 215.991,-190.582 222.143,-187.243"/>
</g>
<!-- v32&#45;&gt;v22 -->
<g id="edge17" class="edge"><title>v32&#45;&gt;v22</title>
<path fill="none" stroke="black" d="M251.582,-216.765C256.065,-208.283 261.651,-197.714 266.681,-188.197"/>
<polygon fill="black" stroke="black" points="269.886,-189.624 271.465,-179.147 263.698,-186.353 269.886,-189.624"/>
</g>
<!-- v33&#45;&gt;v1 -->
<g id="edge15" class="edge"><title>v33&#45;&gt;v1</title>
<path fill="none" stroke="black" d="M674.177,-290.834C684.851,-280.872 699.319,-267.369 711.353,-256.137"/>
<polygon fill="black" stroke="black" points="713.923,-258.526 718.845,-249.144 709.146,-253.409 713.923,-258.526"/>
</g>
<!-- v36 -->
<g id="node21" class="node"><title>v36</title>
<ellipse fill="none" stroke="black" cx="584" cy="-90" rx="27" ry="18"/>
<text text-anchor="middle" x="584" y="-86.3" font-family="Times,serif" font-size="14.00">36</text>
</g>
<!-- v36&#45;&gt;p0 -->
<g id="edge23" class="edge"><title>v36&#45;&gt;p0</title>
<path fill="none" stroke="black" d="M575.187,-72.7646C570.714,-64.5255 565.172,-54.3166 560.123,-45.0157"/>
<polygon fill="black" stroke="black" points="563.143,-43.2426 555.296,-36.1239 556.991,-46.5823 563.143,-43.2426"/>
</g>
<!-- v36&#45;&gt;p3 -->
<g id="edge4" class="edge"><title>v36&#45;&gt;p3</title>
<path fill="none" stroke="black" d="M593.045,-72.7646C597.636,-64.5255 603.324,-54.3166 608.506,-45.0157"/>
<polygon fill="black" stroke="black" points="611.65,-46.5631 613.46,-36.1239 605.535,-43.1561 611.65,-46.5631"/>
</g>
<!-- v38&#45;&gt;v36 -->
<g id="edge3" class="edge"><title>v38&#45;&gt;v36</title>
<path fill="none" stroke="black" d="M584,-143.697C584,-135.983 584,-126.712 584,-118.112"/>
<polygon fill="black" stroke="black" points="587.5,-118.104 584,-108.104 580.5,-118.104 587.5,-118.104"/>
</g>
</g>
</svg>
