<?xml version="1.0" encoding="UTF-8" standalone="no"?>
<!DOCTYPE svg PUBLIC "-//W3C//DTD SVG 1.1//EN"
 "http://www.w3.org/Graphics/SVG/1.1/DTD/svg11.dtd">
<!-- Generated by graphviz version 2.38.0 (20140413.2041)
 -->
<!-- Title: %3 Pages: 1 -->
<svg width="675pt" height="1556pt"
 viewBox="0.00 0.00 674.50 1556.00" xmlns="http://www.w3.org/2000/svg" xmlns:xlink="http://www.w3.org/1999/xlink">
<g id="graph0" class="graph" transform="scale(1 1) rotate(0) translate(4 1552)">
<title>%3</title>
<polygon fill="white" stroke="none" points="-4,4 -4,-1552 670.5,-1552 670.5,4 -4,4"/>
<!-- p0 -->
<g id="node1" class="node"><title>p0</title>
<path fill="none" stroke="black" d="M54,-684C54,-684 12,-684 12,-684 6,-684 0,-678 0,-672 0,-672 0,-660 0,-660 0,-654 6,-648 12,-648 12,-648 54,-648 54,-648 60,-648 66,-654 66,-660 66,-660 66,-672 66,-672 66,-678 60,-684 54,-684"/>
<text text-anchor="middle" x="33" y="-662.3" font-family="Times,serif" font-size="14.00">path (23)</text>
</g>
<!-- p1 -->
<g id="node2" class="node"><title>p1</title>
<path fill="none" stroke="black" d="M131.5,-684C131.5,-684 96.5,-684 96.5,-684 90.5,-684 84.5,-678 84.5,-672 84.5,-672 84.5,-660 84.5,-660 84.5,-654 90.5,-648 96.5,-648 96.5,-648 131.5,-648 131.5,-648 137.5,-648 143.5,-654 143.5,-660 143.5,-660 143.5,-672 143.5,-672 143.5,-678 137.5,-684 131.5,-684"/>
<text text-anchor="middle" x="114" y="-662.3" font-family="Times,serif" font-size="14.00">path (4)</text>
</g>
<!-- v2 -->
<g id="node3" class="node"><title>v2</title>
<ellipse fill="none" stroke="black" cx="152" cy="-738" rx="27" ry="18"/>
<text text-anchor="middle" x="152" y="-734.3" font-family="Times,serif" font-size="14.00">2</text>
</g>
<!-- v2&#45;&gt;p0 -->
<g id="edge67" class="edge"><title>v2&#45;&gt;p0</title>
<path fill="none" stroke="black" d="M132.35,-725.441C115.673,-715.631 91.2675,-701.275 70.8193,-689.247"/>
<polygon fill="black" stroke="black" points="72.4333,-686.135 62.0393,-684.082 68.8841,-692.169 72.4333,-686.135"/>
</g>
<!-- v2&#45;&gt;p1 -->
<g id="edge36" class="edge"><title>v2&#45;&gt;p1</title>
<path fill="none" stroke="black" d="M143.187,-720.765C138.714,-712.525 133.172,-702.317 128.123,-693.016"/>
<polygon fill="black" stroke="black" points="131.143,-691.243 123.296,-684.124 124.991,-694.582 131.143,-691.243"/>
</g>
<!-- p2 -->
<g id="node5" class="node"><title>p2</title>
<path fill="none" stroke="black" d="M208.5,-684C208.5,-684 173.5,-684 173.5,-684 167.5,-684 161.5,-678 161.5,-672 161.5,-672 161.5,-660 161.5,-660 161.5,-654 167.5,-648 173.5,-648 173.5,-648 208.5,-648 208.5,-648 214.5,-648 220.5,-654 220.5,-660 220.5,-660 220.5,-672 220.5,-672 220.5,-678 214.5,-684 208.5,-684"/>
<text text-anchor="middle" x="191" y="-662.3" font-family="Times,serif" font-size="14.00">path (5)</text>
</g>
<!-- v2&#45;&gt;p2 -->
<g id="edge63" class="edge"><title>v2&#45;&gt;p2</title>
<path fill="none" stroke="black" d="M161.045,-720.765C165.636,-712.525 171.324,-702.317 176.506,-693.016"/>
<polygon fill="black" stroke="black" points="179.65,-694.563 181.46,-684.124 173.535,-691.156 179.65,-694.563"/>
</g>
<!-- v5 -->
<g id="node4" class="node"><title>v5</title>
<ellipse fill="none" stroke="black" cx="306" cy="-882" rx="27" ry="18"/>
<text text-anchor="middle" x="306" y="-878.3" font-family="Times,serif" font-size="14.00">5</text>
</g>
<!-- v14 -->
<g id="node6" class="node"><title>v14</title>
<ellipse fill="none" stroke="black" cx="233" cy="-810" rx="27" ry="18"/>
<text text-anchor="middle" x="233" y="-806.3" font-family="Times,serif" font-size="14.00">14</text>
</g>
<!-- v5&#45;&gt;v14 -->
<g id="edge19" class="edge"><title>v5&#45;&gt;v14</title>
<path fill="none" stroke="black" d="M291.227,-866.834C280.838,-856.872 266.756,-843.369 255.043,-832.137"/>
<polygon fill="black" stroke="black" points="257.391,-829.539 247.751,-825.144 252.546,-834.592 257.391,-829.539"/>
</g>
<!-- v15 -->
<g id="node7" class="node"><title>v15</title>
<ellipse fill="none" stroke="black" cx="306" cy="-810" rx="27" ry="18"/>
<text text-anchor="middle" x="306" y="-806.3" font-family="Times,serif" font-size="14.00">15</text>
</g>
<!-- v5&#45;&gt;v15 -->
<g id="edge64" class="edge"><title>v5&#45;&gt;v15</title>
<path fill="none" stroke="black" d="M306,-863.697C306,-855.983 306,-846.712 306,-838.112"/>
<polygon fill="black" stroke="black" points="309.5,-838.104 306,-828.104 302.5,-838.104 309.5,-838.104"/>
</g>
<!-- v126 -->
<g id="node42" class="node"><title>v126</title>
<ellipse fill="none" stroke="black" cx="181" cy="-594" rx="27" ry="18"/>
<text text-anchor="middle" x="181" y="-590.3" font-family="Times,serif" font-size="14.00">126</text>
</g>
<!-- p2&#45;&gt;v126 -->
<g id="edge21" class="edge"><title>p2&#45;&gt;v126</title>
<path fill="none" stroke="black" d="M188.528,-647.697C187.426,-639.983 186.102,-630.712 184.873,-622.112"/>
<polygon fill="black" stroke="black" points="188.323,-621.509 183.443,-612.104 181.393,-622.499 188.323,-621.509"/>
</g>
<!-- v14&#45;&gt;v2 -->
<g id="edge14" class="edge"><title>v14&#45;&gt;v2</title>
<path fill="none" stroke="black" d="M216.997,-795.17C205.237,-785.008 189.064,-771.03 175.793,-759.561"/>
<polygon fill="black" stroke="black" points="177.824,-756.692 167.97,-752.801 173.247,-761.988 177.824,-756.692"/>
</g>
<!-- v36 -->
<g id="node19" class="node"><title>v36</title>
<ellipse fill="none" stroke="black" cx="306" cy="-738" rx="27" ry="18"/>
<text text-anchor="middle" x="306" y="-734.3" font-family="Times,serif" font-size="14.00">36</text>
</g>
<!-- v15&#45;&gt;v36 -->
<g id="edge24" class="edge"><title>v15&#45;&gt;v36</title>
<path fill="none" stroke="black" d="M306,-791.697C306,-783.983 306,-774.712 306,-766.112"/>
<polygon fill="black" stroke="black" points="309.5,-766.104 306,-756.104 302.5,-766.104 309.5,-766.104"/>
</g>
<!-- v17 -->
<g id="node8" class="node"><title>v17</title>
<ellipse fill="none" stroke="black" cx="308" cy="-954" rx="27" ry="18"/>
<text text-anchor="middle" x="308" y="-950.3" font-family="Times,serif" font-size="14.00">17</text>
</g>
<!-- v17&#45;&gt;v5 -->
<g id="edge51" class="edge"><title>v17&#45;&gt;v5</title>
<path fill="none" stroke="black" d="M307.506,-935.697C307.285,-927.983 307.02,-918.712 306.775,-910.112"/>
<polygon fill="black" stroke="black" points="310.273,-910 306.489,-900.104 303.276,-910.2 310.273,-910"/>
</g>
<!-- p3 -->
<g id="node9" class="node"><title>p3</title>
<path fill="none" stroke="black" d="M398.5,-900C398.5,-900 363.5,-900 363.5,-900 357.5,-900 351.5,-894 351.5,-888 351.5,-888 351.5,-876 351.5,-876 351.5,-870 357.5,-864 363.5,-864 363.5,-864 398.5,-864 398.5,-864 404.5,-864 410.5,-870 410.5,-876 410.5,-876 410.5,-888 410.5,-888 410.5,-894 404.5,-900 398.5,-900"/>
<text text-anchor="middle" x="381" y="-878.3" font-family="Times,serif" font-size="14.00">path (4)</text>
</g>
<!-- v17&#45;&gt;p3 -->
<g id="edge16" class="edge"><title>v17&#45;&gt;p3</title>
<path fill="none" stroke="black" d="M322.773,-938.834C332.251,-929.746 344.802,-917.71 355.824,-907.141"/>
<polygon fill="black" stroke="black" points="358.358,-909.56 363.154,-900.113 353.514,-904.508 358.358,-909.56"/>
</g>
<!-- v86 -->
<g id="node30" class="node"><title>v86</title>
<ellipse fill="none" stroke="black" cx="381" cy="-810" rx="27" ry="18"/>
<text text-anchor="middle" x="381" y="-806.3" font-family="Times,serif" font-size="14.00">86</text>
</g>
<!-- p3&#45;&gt;v86 -->
<g id="edge23" class="edge"><title>p3&#45;&gt;v86</title>
<path fill="none" stroke="black" d="M381,-863.697C381,-855.983 381,-846.712 381,-838.112"/>
<polygon fill="black" stroke="black" points="384.5,-838.104 381,-828.104 377.5,-838.104 384.5,-838.104"/>
</g>
<!-- p4 -->
<g id="node10" class="node"><title>p4</title>
<path fill="none" stroke="black" d="M83.5,-252C83.5,-252 48.5,-252 48.5,-252 42.5,-252 36.5,-246 36.5,-240 36.5,-240 36.5,-228 36.5,-228 36.5,-222 42.5,-216 48.5,-216 48.5,-216 83.5,-216 83.5,-216 89.5,-216 95.5,-222 95.5,-228 95.5,-228 95.5,-240 95.5,-240 95.5,-246 89.5,-252 83.5,-252"/>
<text text-anchor="middle" x="66" y="-230.3" font-family="Times,serif" font-size="14.00">path (7)</text>
</g>
<!-- v23 -->
<g id="node11" class="node"><title>v23</title>
<ellipse fill="none" stroke="black" cx="270" cy="-1242" rx="27" ry="18"/>
<text text-anchor="middle" x="270" y="-1238.3" font-family="Times,serif" font-size="14.00">23</text>
</g>
<!-- p5 -->
<g id="node12" class="node"><title>p5</title>
<path fill="none" stroke="black" d="M249.5,-1188C249.5,-1188 214.5,-1188 214.5,-1188 208.5,-1188 202.5,-1182 202.5,-1176 202.5,-1176 202.5,-1164 202.5,-1164 202.5,-1158 208.5,-1152 214.5,-1152 214.5,-1152 249.5,-1152 249.5,-1152 255.5,-1152 261.5,-1158 261.5,-1164 261.5,-1164 261.5,-1176 261.5,-1176 261.5,-1182 255.5,-1188 249.5,-1188"/>
<text text-anchor="middle" x="232" y="-1166.3" font-family="Times,serif" font-size="14.00">path (4)</text>
</g>
<!-- v23&#45;&gt;p5 -->
<g id="edge8" class="edge"><title>v23&#45;&gt;p5</title>
<path fill="none" stroke="black" d="M261.187,-1224.76C256.714,-1216.53 251.172,-1206.32 246.123,-1197.02"/>
<polygon fill="black" stroke="black" points="249.143,-1195.24 241.296,-1188.12 242.991,-1198.58 249.143,-1195.24"/>
</g>
<!-- v39 -->
<g id="node21" class="node"><title>v39</title>
<ellipse fill="none" stroke="black" cx="308" cy="-1170" rx="27" ry="18"/>
<text text-anchor="middle" x="308" y="-1166.3" font-family="Times,serif" font-size="14.00">39</text>
</g>
<!-- v23&#45;&gt;v39 -->
<g id="edge61" class="edge"><title>v23&#45;&gt;v39</title>
<path fill="none" stroke="black" d="M278.813,-1224.76C283.418,-1216.28 289.155,-1205.71 294.321,-1196.2"/>
<polygon fill="black" stroke="black" points="297.539,-1197.61 299.234,-1187.15 291.387,-1194.27 297.539,-1197.61"/>
</g>
<!-- v54 -->
<g id="node25" class="node"><title>v54</title>
<ellipse fill="none" stroke="black" cx="231" cy="-1098" rx="27" ry="18"/>
<text text-anchor="middle" x="231" y="-1094.3" font-family="Times,serif" font-size="14.00">54</text>
</g>
<!-- p5&#45;&gt;v54 -->
<g id="edge2" class="edge"><title>p5&#45;&gt;v54</title>
<path fill="none" stroke="black" d="M231.753,-1151.7C231.643,-1143.98 231.51,-1134.71 231.387,-1126.11"/>
<polygon fill="black" stroke="black" points="234.887,-1126.05 231.244,-1116.1 227.888,-1126.15 234.887,-1126.05"/>
</g>
<!-- p6 -->
<g id="node13" class="node"><title>p6</title>
<path fill="none" stroke="black" d="M323.5,-684C323.5,-684 288.5,-684 288.5,-684 282.5,-684 276.5,-678 276.5,-672 276.5,-672 276.5,-660 276.5,-660 276.5,-654 282.5,-648 288.5,-648 288.5,-648 323.5,-648 323.5,-648 329.5,-648 335.5,-654 335.5,-660 335.5,-660 335.5,-672 335.5,-672 335.5,-678 329.5,-684 323.5,-684"/>
<text text-anchor="middle" x="306" y="-662.3" font-family="Times,serif" font-size="14.00">path (4)</text>
</g>
<!-- p7 -->
<g id="node14" class="node"><title>p7</title>
<path fill="none" stroke="black" d="M325.5,-1044C325.5,-1044 290.5,-1044 290.5,-1044 284.5,-1044 278.5,-1038 278.5,-1032 278.5,-1032 278.5,-1020 278.5,-1020 278.5,-1014 284.5,-1008 290.5,-1008 290.5,-1008 325.5,-1008 325.5,-1008 331.5,-1008 337.5,-1014 337.5,-1020 337.5,-1020 337.5,-1032 337.5,-1032 337.5,-1038 331.5,-1044 325.5,-1044"/>
<text text-anchor="middle" x="308" y="-1022.3" font-family="Times,serif" font-size="14.00">path (3)</text>
</g>
<!-- p7&#45;&gt;v17 -->
<g id="edge3" class="edge"><title>p7&#45;&gt;v17</title>
<path fill="none" stroke="black" d="M308,-1007.7C308,-999.983 308,-990.712 308,-982.112"/>
<polygon fill="black" stroke="black" points="311.5,-982.104 308,-972.104 304.5,-982.104 311.5,-982.104"/>
</g>
<!-- v29 -->
<g id="node15" class="node"><title>v29</title>
<ellipse fill="none" stroke="black" cx="308" cy="-1098" rx="27" ry="18"/>
<text text-anchor="middle" x="308" y="-1094.3" font-family="Times,serif" font-size="14.00">29</text>
</g>
<!-- v29&#45;&gt;p7 -->
<g id="edge42" class="edge"><title>v29&#45;&gt;p7</title>
<path fill="none" stroke="black" d="M308,-1079.7C308,-1071.98 308,-1062.71 308,-1054.11"/>
<polygon fill="black" stroke="black" points="311.5,-1054.1 308,-1044.1 304.5,-1054.1 311.5,-1054.1"/>
</g>
<!-- p17 -->
<g id="node31" class="node"><title>p17</title>
<path fill="none" stroke="black" d="M402.5,-1044C402.5,-1044 367.5,-1044 367.5,-1044 361.5,-1044 355.5,-1038 355.5,-1032 355.5,-1032 355.5,-1020 355.5,-1020 355.5,-1014 361.5,-1008 367.5,-1008 367.5,-1008 402.5,-1008 402.5,-1008 408.5,-1008 414.5,-1014 414.5,-1020 414.5,-1020 414.5,-1032 414.5,-1032 414.5,-1038 408.5,-1044 402.5,-1044"/>
<text text-anchor="middle" x="385" y="-1022.3" font-family="Times,serif" font-size="14.00">path (9)</text>
</g>
<!-- v29&#45;&gt;p17 -->
<g id="edge55" class="edge"><title>v29&#45;&gt;p17</title>
<path fill="none" stroke="black" d="M323.582,-1082.83C333.579,-1073.75 346.818,-1061.71 358.445,-1051.14"/>
<polygon fill="black" stroke="black" points="361.131,-1053.43 366.176,-1044.11 356.422,-1048.25 361.131,-1053.43"/>
</g>
<!-- p8 -->
<g id="node16" class="node"><title>p8</title>
<path fill="none" stroke="black" d="M351.5,-396C351.5,-396 316.5,-396 316.5,-396 310.5,-396 304.5,-390 304.5,-384 304.5,-384 304.5,-372 304.5,-372 304.5,-366 310.5,-360 316.5,-360 316.5,-360 351.5,-360 351.5,-360 357.5,-360 363.5,-366 363.5,-372 363.5,-372 363.5,-384 363.5,-384 363.5,-390 357.5,-396 351.5,-396"/>
<text text-anchor="middle" x="334" y="-374.3" font-family="Times,serif" font-size="14.00">path (6)</text>
</g>
<!-- p9 -->
<g id="node17" class="node"><title>p9</title>
<path fill="none" stroke="black" d="M350.5,-324C350.5,-324 315.5,-324 315.5,-324 309.5,-324 303.5,-318 303.5,-312 303.5,-312 303.5,-300 303.5,-300 303.5,-294 309.5,-288 315.5,-288 315.5,-288 350.5,-288 350.5,-288 356.5,-288 362.5,-294 362.5,-300 362.5,-300 362.5,-312 362.5,-312 362.5,-318 356.5,-324 350.5,-324"/>
<text text-anchor="middle" x="333" y="-302.3" font-family="Times,serif" font-size="14.00">path (5)</text>
</g>
<!-- v35 -->
<g id="node18" class="node"><title>v35</title>
<ellipse fill="none" stroke="black" cx="407" cy="-450" rx="27" ry="18"/>
<text text-anchor="middle" x="407" y="-446.3" font-family="Times,serif" font-size="14.00">35</text>
</g>
<!-- v35&#45;&gt;p8 -->
<g id="edge18" class="edge"><title>v35&#45;&gt;p8</title>
<path fill="none" stroke="black" d="M392.227,-434.834C382.749,-425.746 370.198,-413.71 359.176,-403.141"/>
<polygon fill="black" stroke="black" points="361.486,-400.508 351.846,-396.113 356.642,-405.56 361.486,-400.508"/>
</g>
<!-- v104 -->
<g id="node34" class="node"><title>v104</title>
<ellipse fill="none" stroke="black" cx="409" cy="-378" rx="27" ry="18"/>
<text text-anchor="middle" x="409" y="-374.3" font-family="Times,serif" font-size="14.00">104</text>
</g>
<!-- v35&#45;&gt;v104 -->
<g id="edge48" class="edge"><title>v35&#45;&gt;v104</title>
<path fill="none" stroke="black" d="M407.494,-431.697C407.715,-423.983 407.98,-414.712 408.225,-406.112"/>
<polygon fill="black" stroke="black" points="411.724,-406.2 408.511,-396.104 404.727,-406 411.724,-406.2"/>
</g>
<!-- v36&#45;&gt;p6 -->
<g id="edge66" class="edge"><title>v36&#45;&gt;p6</title>
<path fill="none" stroke="black" d="M306,-719.697C306,-711.983 306,-702.712 306,-694.112"/>
<polygon fill="black" stroke="black" points="309.5,-694.104 306,-684.104 302.5,-694.104 309.5,-694.104"/>
</g>
<!-- p10 -->
<g id="node20" class="node"><title>p10</title>
<path fill="none" stroke="black" d="M419.5,-684C419.5,-684 384.5,-684 384.5,-684 378.5,-684 372.5,-678 372.5,-672 372.5,-672 372.5,-660 372.5,-660 372.5,-654 378.5,-648 384.5,-648 384.5,-648 419.5,-648 419.5,-648 425.5,-648 431.5,-654 431.5,-660 431.5,-660 431.5,-672 431.5,-672 431.5,-678 425.5,-684 419.5,-684"/>
<text text-anchor="middle" x="402" y="-662.3" font-family="Times,serif" font-size="14.00">path (7)</text>
</g>
<!-- v36&#45;&gt;p10 -->
<g id="edge35" class="edge"><title>v36&#45;&gt;p10</title>
<path fill="none" stroke="black" d="M323.608,-724.161C336.579,-714.703 354.579,-701.578 370.061,-690.289"/>
<polygon fill="black" stroke="black" points="372.336,-692.961 378.354,-684.242 368.212,-687.305 372.336,-692.961"/>
</g>
<!-- v99 -->
<g id="node32" class="node"><title>v99</title>
<ellipse fill="none" stroke="black" cx="407" cy="-594" rx="27" ry="18"/>
<text text-anchor="middle" x="407" y="-590.3" font-family="Times,serif" font-size="14.00">99</text>
</g>
<!-- p10&#45;&gt;v99 -->
<g id="edge47" class="edge"><title>p10&#45;&gt;v99</title>
<path fill="none" stroke="black" d="M403.236,-647.697C403.787,-639.983 404.449,-630.712 405.063,-622.112"/>
<polygon fill="black" stroke="black" points="408.557,-622.328 405.778,-612.104 401.575,-621.83 408.557,-622.328"/>
</g>
<!-- v39&#45;&gt;v29 -->
<g id="edge29" class="edge"><title>v39&#45;&gt;v29</title>
<path fill="none" stroke="black" d="M308,-1151.7C308,-1143.98 308,-1134.71 308,-1126.11"/>
<polygon fill="black" stroke="black" points="311.5,-1126.1 308,-1116.1 304.5,-1126.1 311.5,-1126.1"/>
</g>
<!-- p11 -->
<g id="node22" class="node"><title>p11</title>
<path fill="none" stroke="black" d="M398.5,-756C398.5,-756 363.5,-756 363.5,-756 357.5,-756 351.5,-750 351.5,-744 351.5,-744 351.5,-732 351.5,-732 351.5,-726 357.5,-720 363.5,-720 363.5,-720 398.5,-720 398.5,-720 404.5,-720 410.5,-726 410.5,-732 410.5,-732 410.5,-744 410.5,-744 410.5,-750 404.5,-756 398.5,-756"/>
<text text-anchor="middle" x="381" y="-734.3" font-family="Times,serif" font-size="14.00">path (5)</text>
</g>
<!-- p12 -->
<g id="node23" class="node"><title>p12</title>
<path fill="none" stroke="black" d="M501.5,-468C501.5,-468 466.5,-468 466.5,-468 460.5,-468 454.5,-462 454.5,-456 454.5,-456 454.5,-444 454.5,-444 454.5,-438 460.5,-432 466.5,-432 466.5,-432 501.5,-432 501.5,-432 507.5,-432 513.5,-438 513.5,-444 513.5,-444 513.5,-456 513.5,-456 513.5,-462 507.5,-468 501.5,-468"/>
<text text-anchor="middle" x="484" y="-446.3" font-family="Times,serif" font-size="14.00">path (2)</text>
</g>
<!-- v193 -->
<g id="node58" class="node"><title>v193</title>
<ellipse fill="none" stroke="black" cx="521" cy="-378" rx="27" ry="18"/>
<text text-anchor="middle" x="521" y="-374.3" font-family="Times,serif" font-size="14.00">193</text>
</g>
<!-- p12&#45;&gt;v193 -->
<g id="edge46" class="edge"><title>p12&#45;&gt;v193</title>
<path fill="none" stroke="black" d="M493.146,-431.697C497.53,-423.403 502.864,-413.311 507.687,-404.187"/>
<polygon fill="black" stroke="black" points="510.888,-405.621 512.466,-395.145 504.699,-402.35 510.888,-405.621"/>
</g>
<!-- p13 -->
<g id="node24" class="node"><title>p13</title>
<path fill="none" stroke="black" d="M171.5,-1044C171.5,-1044 136.5,-1044 136.5,-1044 130.5,-1044 124.5,-1038 124.5,-1032 124.5,-1032 124.5,-1020 124.5,-1020 124.5,-1014 130.5,-1008 136.5,-1008 136.5,-1008 171.5,-1008 171.5,-1008 177.5,-1008 183.5,-1014 183.5,-1020 183.5,-1020 183.5,-1032 183.5,-1032 183.5,-1038 177.5,-1044 171.5,-1044"/>
<text text-anchor="middle" x="154" y="-1022.3" font-family="Times,serif" font-size="14.00">path (2)</text>
</g>
<!-- v54&#45;&gt;p13 -->
<g id="edge54" class="edge"><title>v54&#45;&gt;p13</title>
<path fill="none" stroke="black" d="M215.418,-1082.83C205.421,-1073.75 192.182,-1061.71 180.555,-1051.14"/>
<polygon fill="black" stroke="black" points="182.578,-1048.25 172.824,-1044.11 177.869,-1053.43 182.578,-1048.25"/>
</g>
<!-- p35 -->
<g id="node66" class="node"><title>p35</title>
<path fill="none" stroke="black" d="M248.5,-1044C248.5,-1044 213.5,-1044 213.5,-1044 207.5,-1044 201.5,-1038 201.5,-1032 201.5,-1032 201.5,-1020 201.5,-1020 201.5,-1014 207.5,-1008 213.5,-1008 213.5,-1008 248.5,-1008 248.5,-1008 254.5,-1008 260.5,-1014 260.5,-1020 260.5,-1020 260.5,-1032 260.5,-1032 260.5,-1038 254.5,-1044 248.5,-1044"/>
<text text-anchor="middle" x="231" y="-1022.3" font-family="Times,serif" font-size="14.00">path (9)</text>
</g>
<!-- v54&#45;&gt;p35 -->
<g id="edge53" class="edge"><title>v54&#45;&gt;p35</title>
<path fill="none" stroke="black" d="M231,-1079.7C231,-1071.98 231,-1062.71 231,-1054.11"/>
<polygon fill="black" stroke="black" points="234.5,-1054.1 231,-1044.1 227.5,-1054.1 234.5,-1054.1"/>
</g>
<!-- p14 -->
<g id="node26" class="node"><title>p14</title>
<path fill="none" stroke="black" d="M121.5,-540C121.5,-540 86.5,-540 86.5,-540 80.5,-540 74.5,-534 74.5,-528 74.5,-528 74.5,-516 74.5,-516 74.5,-510 80.5,-504 86.5,-504 86.5,-504 121.5,-504 121.5,-504 127.5,-504 133.5,-510 133.5,-516 133.5,-516 133.5,-528 133.5,-528 133.5,-534 127.5,-540 121.5,-540"/>
<text text-anchor="middle" x="104" y="-518.3" font-family="Times,serif" font-size="14.00">path (9)</text>
</g>
<!-- p15 -->
<g id="node27" class="node"><title>p15</title>
<path fill="none" stroke="black" d="M424.5,-540C424.5,-540 389.5,-540 389.5,-540 383.5,-540 377.5,-534 377.5,-528 377.5,-528 377.5,-516 377.5,-516 377.5,-510 383.5,-504 389.5,-504 389.5,-504 424.5,-504 424.5,-504 430.5,-504 436.5,-510 436.5,-516 436.5,-516 436.5,-528 436.5,-528 436.5,-534 430.5,-540 424.5,-540"/>
<text text-anchor="middle" x="407" y="-518.3" font-family="Times,serif" font-size="14.00">path (6)</text>
</g>
<!-- p15&#45;&gt;v35 -->
<g id="edge50" class="edge"><title>p15&#45;&gt;v35</title>
<path fill="none" stroke="black" d="M407,-503.697C407,-495.983 407,-486.712 407,-478.112"/>
<polygon fill="black" stroke="black" points="410.5,-478.104 407,-468.104 403.5,-478.104 410.5,-478.104"/>
</g>
<!-- v72 -->
<g id="node28" class="node"><title>v72</title>
<ellipse fill="none" stroke="black" cx="484" cy="-522" rx="27" ry="18"/>
<text text-anchor="middle" x="484" y="-518.3" font-family="Times,serif" font-size="14.00">72</text>
</g>
<!-- v72&#45;&gt;p12 -->
<g id="edge59" class="edge"><title>v72&#45;&gt;p12</title>
<path fill="none" stroke="black" d="M484,-503.697C484,-495.983 484,-486.712 484,-478.112"/>
<polygon fill="black" stroke="black" points="487.5,-478.104 484,-468.104 480.5,-478.104 487.5,-478.104"/>
</g>
<!-- v199 -->
<g id="node62" class="node"><title>v199</title>
<ellipse fill="none" stroke="black" cx="559" cy="-450" rx="27" ry="18"/>
<text text-anchor="middle" x="559" y="-446.3" font-family="Times,serif" font-size="14.00">199</text>
</g>
<!-- v72&#45;&gt;v199 -->
<g id="edge13" class="edge"><title>v72&#45;&gt;v199</title>
<path fill="none" stroke="black" d="M499.177,-506.834C509.851,-496.872 524.319,-483.369 536.353,-472.137"/>
<polygon fill="black" stroke="black" points="538.923,-474.526 543.845,-465.144 534.146,-469.409 538.923,-474.526"/>
</g>
<!-- p16 -->
<g id="node29" class="node"><title>p16</title>
<path fill="none" stroke="black" d="M483,-756C483,-756 441,-756 441,-756 435,-756 429,-750 429,-744 429,-744 429,-732 429,-732 429,-726 435,-720 441,-720 441,-720 483,-720 483,-720 489,-720 495,-726 495,-732 495,-732 495,-744 495,-744 495,-750 489,-756 483,-756"/>
<text text-anchor="middle" x="462" y="-734.3" font-family="Times,serif" font-size="14.00">path (10)</text>
</g>
<!-- v86&#45;&gt;p11 -->
<g id="edge32" class="edge"><title>v86&#45;&gt;p11</title>
<path fill="none" stroke="black" d="M381,-791.697C381,-783.983 381,-774.712 381,-766.112"/>
<polygon fill="black" stroke="black" points="384.5,-766.104 381,-756.104 377.5,-766.104 384.5,-766.104"/>
</g>
<!-- v86&#45;&gt;p16 -->
<g id="edge27" class="edge"><title>v86&#45;&gt;p16</title>
<path fill="none" stroke="black" d="M397.003,-795.17C407.668,-785.953 421.964,-773.599 434.433,-762.823"/>
<polygon fill="black" stroke="black" points="437.029,-765.206 442.307,-756.019 432.452,-759.91 437.029,-765.206"/>
</g>
<!-- v99&#45;&gt;p15 -->
<g id="edge17" class="edge"><title>v99&#45;&gt;p15</title>
<path fill="none" stroke="black" d="M407,-575.697C407,-567.983 407,-558.712 407,-550.112"/>
<polygon fill="black" stroke="black" points="410.5,-550.104 407,-540.104 403.5,-550.104 410.5,-550.104"/>
</g>
<!-- v99&#45;&gt;v72 -->
<g id="edge22" class="edge"><title>v99&#45;&gt;v72</title>
<path fill="none" stroke="black" d="M422.582,-578.834C433.613,-568.806 448.59,-555.191 460.993,-543.916"/>
<polygon fill="black" stroke="black" points="463.659,-546.222 468.704,-536.906 458.95,-541.043 463.659,-546.222"/>
</g>
<!-- p18 -->
<g id="node33" class="node"><title>p18</title>
<path fill="none" stroke="black" d="M427.5,-324C427.5,-324 392.5,-324 392.5,-324 386.5,-324 380.5,-318 380.5,-312 380.5,-312 380.5,-300 380.5,-300 380.5,-294 386.5,-288 392.5,-288 392.5,-288 427.5,-288 427.5,-288 433.5,-288 439.5,-294 439.5,-300 439.5,-300 439.5,-312 439.5,-312 439.5,-318 433.5,-324 427.5,-324"/>
<text text-anchor="middle" x="410" y="-302.3" font-family="Times,serif" font-size="14.00">path (2)</text>
</g>
<!-- v104&#45;&gt;p9 -->
<g id="edge43" class="edge"><title>v104&#45;&gt;p9</title>
<path fill="none" stroke="black" d="M393.62,-362.834C383.753,-353.746 370.686,-341.71 359.211,-331.141"/>
<polygon fill="black" stroke="black" points="361.306,-328.313 351.58,-324.113 356.564,-333.462 361.306,-328.313"/>
</g>
<!-- v104&#45;&gt;p18 -->
<g id="edge33" class="edge"><title>v104&#45;&gt;p18</title>
<path fill="none" stroke="black" d="M409.247,-359.697C409.357,-351.983 409.49,-342.712 409.613,-334.112"/>
<polygon fill="black" stroke="black" points="413.112,-334.153 409.756,-324.104 406.113,-334.053 413.112,-334.153"/>
</g>
<!-- v110 -->
<g id="node35" class="node"><title>v110</title>
<ellipse fill="none" stroke="black" cx="448" cy="-90" rx="27" ry="18"/>
<text text-anchor="middle" x="448" y="-86.3" font-family="Times,serif" font-size="14.00">110</text>
</g>
<!-- p19 -->
<g id="node36" class="node"><title>p19</title>
<path fill="none" stroke="black" d="M427.5,-36C427.5,-36 392.5,-36 392.5,-36 386.5,-36 380.5,-30 380.5,-24 380.5,-24 380.5,-12 380.5,-12 380.5,-6 386.5,-0 392.5,-0 392.5,-0 427.5,-0 427.5,-0 433.5,-0 439.5,-6 439.5,-12 439.5,-12 439.5,-24 439.5,-24 439.5,-30 433.5,-36 427.5,-36"/>
<text text-anchor="middle" x="410" y="-14.3" font-family="Times,serif" font-size="14.00">path (3)</text>
</g>
<!-- v110&#45;&gt;p19 -->
<g id="edge28" class="edge"><title>v110&#45;&gt;p19</title>
<path fill="none" stroke="black" d="M439.187,-72.7646C434.714,-64.5255 429.172,-54.3166 424.123,-45.0157"/>
<polygon fill="black" stroke="black" points="427.143,-43.2426 419.296,-36.1239 420.991,-46.5823 427.143,-43.2426"/>
</g>
<!-- p29 -->
<g id="node52" class="node"><title>p29</title>
<path fill="none" stroke="black" d="M504.5,-36C504.5,-36 469.5,-36 469.5,-36 463.5,-36 457.5,-30 457.5,-24 457.5,-24 457.5,-12 457.5,-12 457.5,-6 463.5,-0 469.5,-0 469.5,-0 504.5,-0 504.5,-0 510.5,-0 516.5,-6 516.5,-12 516.5,-12 516.5,-24 516.5,-24 516.5,-30 510.5,-36 504.5,-36"/>
<text text-anchor="middle" x="487" y="-14.3" font-family="Times,serif" font-size="14.00">path (4)</text>
</g>
<!-- v110&#45;&gt;p29 -->
<g id="edge39" class="edge"><title>v110&#45;&gt;p29</title>
<path fill="none" stroke="black" d="M457.045,-72.7646C461.636,-64.5255 467.324,-54.3166 472.506,-45.0157"/>
<polygon fill="black" stroke="black" points="475.65,-46.5631 477.46,-36.1239 469.535,-43.1561 475.65,-46.5631"/>
</g>
<!-- p20 -->
<g id="node37" class="node"><title>p20</title>
<path fill="none" stroke="black" d="M196.5,-324C196.5,-324 161.5,-324 161.5,-324 155.5,-324 149.5,-318 149.5,-312 149.5,-312 149.5,-300 149.5,-300 149.5,-294 155.5,-288 161.5,-288 161.5,-288 196.5,-288 196.5,-288 202.5,-288 208.5,-294 208.5,-300 208.5,-300 208.5,-312 208.5,-312 208.5,-318 202.5,-324 196.5,-324"/>
<text text-anchor="middle" x="179" y="-302.3" font-family="Times,serif" font-size="14.00">path (2)</text>
</g>
<!-- p21 -->
<g id="node38" class="node"><title>p21</title>
<path fill="none" stroke="black" d="M160.5,-252C160.5,-252 125.5,-252 125.5,-252 119.5,-252 113.5,-246 113.5,-240 113.5,-240 113.5,-228 113.5,-228 113.5,-222 119.5,-216 125.5,-216 125.5,-216 160.5,-216 160.5,-216 166.5,-216 172.5,-222 172.5,-228 172.5,-228 172.5,-240 172.5,-240 172.5,-246 166.5,-252 160.5,-252"/>
<text text-anchor="middle" x="143" y="-230.3" font-family="Times,serif" font-size="14.00">path (4)</text>
</g>
<!-- p22 -->
<g id="node39" class="node"><title>p22</title>
<path fill="none" stroke="black" d="M198.5,-540C198.5,-540 163.5,-540 163.5,-540 157.5,-540 151.5,-534 151.5,-528 151.5,-528 151.5,-516 151.5,-516 151.5,-510 157.5,-504 163.5,-504 163.5,-504 198.5,-504 198.5,-504 204.5,-504 210.5,-510 210.5,-516 210.5,-516 210.5,-528 210.5,-528 210.5,-534 204.5,-540 198.5,-540"/>
<text text-anchor="middle" x="181" y="-518.3" font-family="Times,serif" font-size="14.00">path (7)</text>
</g>
<!-- v129 -->
<g id="node43" class="node"><title>v129</title>
<ellipse fill="none" stroke="black" cx="180" cy="-450" rx="27" ry="18"/>
<text text-anchor="middle" x="180" y="-446.3" font-family="Times,serif" font-size="14.00">129</text>
</g>
<!-- p22&#45;&gt;v129 -->
<g id="edge10" class="edge"><title>p22&#45;&gt;v129</title>
<path fill="none" stroke="black" d="M180.753,-503.697C180.643,-495.983 180.51,-486.712 180.387,-478.112"/>
<polygon fill="black" stroke="black" points="183.887,-478.053 180.244,-468.104 176.888,-478.153 183.887,-478.053"/>
</g>
<!-- p23 -->
<g id="node40" class="node"><title>p23</title>
<path fill="none" stroke="black" d="M121.5,-396C121.5,-396 86.5,-396 86.5,-396 80.5,-396 74.5,-390 74.5,-384 74.5,-384 74.5,-372 74.5,-372 74.5,-366 80.5,-360 86.5,-360 86.5,-360 121.5,-360 121.5,-360 127.5,-360 133.5,-366 133.5,-372 133.5,-372 133.5,-384 133.5,-384 133.5,-390 127.5,-396 121.5,-396"/>
<text text-anchor="middle" x="104" y="-374.3" font-family="Times,serif" font-size="14.00">path (2)</text>
</g>
<!-- v146 -->
<g id="node45" class="node"><title>v146</title>
<ellipse fill="none" stroke="black" cx="104" cy="-306" rx="27" ry="18"/>
<text text-anchor="middle" x="104" y="-302.3" font-family="Times,serif" font-size="14.00">146</text>
</g>
<!-- p23&#45;&gt;v146 -->
<g id="edge31" class="edge"><title>p23&#45;&gt;v146</title>
<path fill="none" stroke="black" d="M104,-359.697C104,-351.983 104,-342.712 104,-334.112"/>
<polygon fill="black" stroke="black" points="107.5,-334.104 104,-324.104 100.5,-334.104 107.5,-334.104"/>
</g>
<!-- p24 -->
<g id="node41" class="node"><title>p24</title>
<path fill="none" stroke="black" d="M273.5,-324C273.5,-324 238.5,-324 238.5,-324 232.5,-324 226.5,-318 226.5,-312 226.5,-312 226.5,-300 226.5,-300 226.5,-294 232.5,-288 238.5,-288 238.5,-288 273.5,-288 273.5,-288 279.5,-288 285.5,-294 285.5,-300 285.5,-300 285.5,-312 285.5,-312 285.5,-318 279.5,-324 273.5,-324"/>
<text text-anchor="middle" x="256" y="-302.3" font-family="Times,serif" font-size="14.00">path (4)</text>
</g>
<!-- v126&#45;&gt;p14 -->
<g id="edge30" class="edge"><title>v126&#45;&gt;p14</title>
<path fill="none" stroke="black" d="M165.418,-578.834C155.421,-569.746 142.182,-557.71 130.555,-547.141"/>
<polygon fill="black" stroke="black" points="132.578,-544.25 122.824,-540.113 127.869,-549.429 132.578,-544.25"/>
</g>
<!-- v126&#45;&gt;p22 -->
<g id="edge62" class="edge"><title>v126&#45;&gt;p22</title>
<path fill="none" stroke="black" d="M181,-575.697C181,-567.983 181,-558.712 181,-550.112"/>
<polygon fill="black" stroke="black" points="184.5,-550.104 181,-540.104 177.5,-550.104 184.5,-550.104"/>
</g>
<!-- v129&#45;&gt;p23 -->
<g id="edge69" class="edge"><title>v129&#45;&gt;p23</title>
<path fill="none" stroke="black" d="M164.62,-434.834C154.753,-425.746 141.686,-413.71 130.211,-403.141"/>
<polygon fill="black" stroke="black" points="132.306,-400.313 122.58,-396.113 127.564,-405.462 132.306,-400.313"/>
</g>
<!-- v130 -->
<g id="node44" class="node"><title>v130</title>
<ellipse fill="none" stroke="black" cx="180" cy="-378" rx="27" ry="18"/>
<text text-anchor="middle" x="180" y="-374.3" font-family="Times,serif" font-size="14.00">130</text>
</g>
<!-- v129&#45;&gt;v130 -->
<g id="edge58" class="edge"><title>v129&#45;&gt;v130</title>
<path fill="none" stroke="black" d="M180,-431.697C180,-423.983 180,-414.712 180,-406.112"/>
<polygon fill="black" stroke="black" points="183.5,-406.104 180,-396.104 176.5,-406.104 183.5,-406.104"/>
</g>
<!-- v130&#45;&gt;p20 -->
<g id="edge9" class="edge"><title>v130&#45;&gt;p20</title>
<path fill="none" stroke="black" d="M179.753,-359.697C179.643,-351.983 179.51,-342.712 179.387,-334.112"/>
<polygon fill="black" stroke="black" points="182.887,-334.053 179.244,-324.104 175.888,-334.153 182.887,-334.053"/>
</g>
<!-- v130&#45;&gt;p24 -->
<g id="edge68" class="edge"><title>v130&#45;&gt;p24</title>
<path fill="none" stroke="black" d="M195.38,-362.834C205.247,-353.746 218.314,-341.71 229.789,-331.141"/>
<polygon fill="black" stroke="black" points="232.436,-333.462 237.42,-324.113 227.694,-328.313 232.436,-333.462"/>
</g>
<!-- v146&#45;&gt;p4 -->
<g id="edge20" class="edge"><title>v146&#45;&gt;p4</title>
<path fill="none" stroke="black" d="M95.1865,-288.765C90.7138,-280.525 85.1719,-270.317 80.1228,-261.016"/>
<polygon fill="black" stroke="black" points="83.1428,-259.243 75.2958,-252.124 76.9908,-262.582 83.1428,-259.243"/>
</g>
<!-- v146&#45;&gt;p21 -->
<g id="edge6" class="edge"><title>v146&#45;&gt;p21</title>
<path fill="none" stroke="black" d="M113.045,-288.765C117.636,-280.525 123.324,-270.317 128.506,-261.016"/>
<polygon fill="black" stroke="black" points="131.65,-262.563 133.46,-252.124 125.535,-259.156 131.65,-262.563"/>
</g>
<!-- p25 -->
<g id="node46" class="node"><title>p25</title>
<path fill="none" stroke="black" d="M171.5,-1476C171.5,-1476 136.5,-1476 136.5,-1476 130.5,-1476 124.5,-1470 124.5,-1464 124.5,-1464 124.5,-1452 124.5,-1452 124.5,-1446 130.5,-1440 136.5,-1440 136.5,-1440 171.5,-1440 171.5,-1440 177.5,-1440 183.5,-1446 183.5,-1452 183.5,-1452 183.5,-1464 183.5,-1464 183.5,-1470 177.5,-1476 171.5,-1476"/>
<text text-anchor="middle" x="154" y="-1454.3" font-family="Times,serif" font-size="14.00">path (3)</text>
</g>
<!-- p26 -->
<g id="node47" class="node"><title>p26</title>
<path fill="none" stroke="black" d="M210.5,-1332C210.5,-1332 175.5,-1332 175.5,-1332 169.5,-1332 163.5,-1326 163.5,-1320 163.5,-1320 163.5,-1308 163.5,-1308 163.5,-1302 169.5,-1296 175.5,-1296 175.5,-1296 210.5,-1296 210.5,-1296 216.5,-1296 222.5,-1302 222.5,-1308 222.5,-1308 222.5,-1320 222.5,-1320 222.5,-1326 216.5,-1332 210.5,-1332"/>
<text text-anchor="middle" x="193" y="-1310.3" font-family="Times,serif" font-size="14.00">path (5)</text>
</g>
<!-- p27 -->
<g id="node48" class="node"><title>p27</title>
<path fill="none" stroke="black" d="M287.5,-1332C287.5,-1332 252.5,-1332 252.5,-1332 246.5,-1332 240.5,-1326 240.5,-1320 240.5,-1320 240.5,-1308 240.5,-1308 240.5,-1302 246.5,-1296 252.5,-1296 252.5,-1296 287.5,-1296 287.5,-1296 293.5,-1296 299.5,-1302 299.5,-1308 299.5,-1308 299.5,-1320 299.5,-1320 299.5,-1326 293.5,-1332 287.5,-1332"/>
<text text-anchor="middle" x="270" y="-1310.3" font-family="Times,serif" font-size="14.00">path (8)</text>
</g>
<!-- p27&#45;&gt;v23 -->
<g id="edge44" class="edge"><title>p27&#45;&gt;v23</title>
<path fill="none" stroke="black" d="M270,-1295.7C270,-1287.98 270,-1278.71 270,-1270.11"/>
<polygon fill="black" stroke="black" points="273.5,-1270.1 270,-1260.1 266.5,-1270.1 273.5,-1270.1"/>
</g>
<!-- p28 -->
<g id="node49" class="node"><title>p28</title>
<path fill="none" stroke="black" d="M248.5,-1476C248.5,-1476 213.5,-1476 213.5,-1476 207.5,-1476 201.5,-1470 201.5,-1464 201.5,-1464 201.5,-1452 201.5,-1452 201.5,-1446 207.5,-1440 213.5,-1440 213.5,-1440 248.5,-1440 248.5,-1440 254.5,-1440 260.5,-1446 260.5,-1452 260.5,-1452 260.5,-1464 260.5,-1464 260.5,-1470 254.5,-1476 248.5,-1476"/>
<text text-anchor="middle" x="231" y="-1454.3" font-family="Times,serif" font-size="14.00">path (7)</text>
</g>
<!-- v160 -->
<g id="node50" class="node"><title>v160</title>
<ellipse fill="none" stroke="black" cx="231" cy="-1386" rx="27" ry="18"/>
<text text-anchor="middle" x="231" y="-1382.3" font-family="Times,serif" font-size="14.00">160</text>
</g>
<!-- p28&#45;&gt;v160 -->
<g id="edge57" class="edge"><title>p28&#45;&gt;v160</title>
<path fill="none" stroke="black" d="M231,-1439.7C231,-1431.98 231,-1422.71 231,-1414.11"/>
<polygon fill="black" stroke="black" points="234.5,-1414.1 231,-1404.1 227.5,-1414.1 234.5,-1414.1"/>
</g>
<!-- v160&#45;&gt;p26 -->
<g id="edge25" class="edge"><title>v160&#45;&gt;p26</title>
<path fill="none" stroke="black" d="M222.187,-1368.76C217.714,-1360.53 212.172,-1350.32 207.123,-1341.02"/>
<polygon fill="black" stroke="black" points="210.143,-1339.24 202.296,-1332.12 203.991,-1342.58 210.143,-1339.24"/>
</g>
<!-- v160&#45;&gt;p27 -->
<g id="edge34" class="edge"><title>v160&#45;&gt;p27</title>
<path fill="none" stroke="black" d="M240.045,-1368.76C244.636,-1360.53 250.324,-1350.32 255.506,-1341.02"/>
<polygon fill="black" stroke="black" points="258.65,-1342.56 260.46,-1332.12 252.535,-1339.16 258.65,-1342.56"/>
</g>
<!-- v169 -->
<g id="node51" class="node"><title>v169</title>
<ellipse fill="none" stroke="black" cx="192" cy="-1530" rx="27" ry="18"/>
<text text-anchor="middle" x="192" y="-1526.3" font-family="Times,serif" font-size="14.00">169</text>
</g>
<!-- v169&#45;&gt;p25 -->
<g id="edge5" class="edge"><title>v169&#45;&gt;p25</title>
<path fill="none" stroke="black" d="M183.187,-1512.76C178.714,-1504.53 173.172,-1494.32 168.123,-1485.02"/>
<polygon fill="black" stroke="black" points="171.143,-1483.24 163.296,-1476.12 164.991,-1486.58 171.143,-1483.24"/>
</g>
<!-- v169&#45;&gt;p28 -->
<g id="edge4" class="edge"><title>v169&#45;&gt;p28</title>
<path fill="none" stroke="black" d="M201.045,-1512.76C205.636,-1504.53 211.324,-1494.32 216.506,-1485.02"/>
<polygon fill="black" stroke="black" points="219.65,-1486.56 221.46,-1476.12 213.535,-1483.16 219.65,-1486.56"/>
</g>
<!-- v186 -->
<g id="node53" class="node"><title>v186</title>
<ellipse fill="none" stroke="black" cx="485" cy="-306" rx="27" ry="18"/>
<text text-anchor="middle" x="485" y="-302.3" font-family="Times,serif" font-size="14.00">186</text>
</g>
<!-- v197 -->
<g id="node61" class="node"><title>v197</title>
<ellipse fill="none" stroke="black" cx="485" cy="-234" rx="27" ry="18"/>
<text text-anchor="middle" x="485" y="-230.3" font-family="Times,serif" font-size="14.00">197</text>
</g>
<!-- v186&#45;&gt;v197 -->
<g id="edge60" class="edge"><title>v186&#45;&gt;v197</title>
<path fill="none" stroke="black" d="M485,-287.697C485,-279.983 485,-270.712 485,-262.112"/>
<polygon fill="black" stroke="black" points="488.5,-262.104 485,-252.104 481.5,-262.104 488.5,-262.104"/>
</g>
<!-- p30 -->
<g id="node54" class="node"><title>p30</title>
<path fill="none" stroke="black" d="M390.5,-180C390.5,-180 355.5,-180 355.5,-180 349.5,-180 343.5,-174 343.5,-168 343.5,-168 343.5,-156 343.5,-156 343.5,-150 349.5,-144 355.5,-144 355.5,-144 390.5,-144 390.5,-144 396.5,-144 402.5,-150 402.5,-156 402.5,-156 402.5,-168 402.5,-168 402.5,-174 396.5,-180 390.5,-180"/>
<text text-anchor="middle" x="373" y="-158.3" font-family="Times,serif" font-size="14.00">path (3)</text>
</g>
<!-- p31 -->
<g id="node55" class="node"><title>p31</title>
<path fill="none" stroke="black" d="M577.5,-108C577.5,-108 542.5,-108 542.5,-108 536.5,-108 530.5,-102 530.5,-96 530.5,-96 530.5,-84 530.5,-84 530.5,-78 536.5,-72 542.5,-72 542.5,-72 577.5,-72 577.5,-72 583.5,-72 589.5,-78 589.5,-84 589.5,-84 589.5,-96 589.5,-96 589.5,-102 583.5,-108 577.5,-108"/>
<text text-anchor="middle" x="560" y="-86.3" font-family="Times,serif" font-size="14.00">path (2)</text>
</g>
<!-- v189 -->
<g id="node56" class="node"><title>v189</title>
<ellipse fill="none" stroke="black" cx="557" cy="-306" rx="27" ry="18"/>
<text text-anchor="middle" x="557" y="-302.3" font-family="Times,serif" font-size="14.00">189</text>
</g>
<!-- p32 -->
<g id="node57" class="node"><title>p32</title>
<path fill="none" stroke="black" d="M654.5,-108C654.5,-108 619.5,-108 619.5,-108 613.5,-108 607.5,-102 607.5,-96 607.5,-96 607.5,-84 607.5,-84 607.5,-78 613.5,-72 619.5,-72 619.5,-72 654.5,-72 654.5,-72 660.5,-72 666.5,-78 666.5,-84 666.5,-84 666.5,-96 666.5,-96 666.5,-102 660.5,-108 654.5,-108"/>
<text text-anchor="middle" x="637" y="-86.3" font-family="Times,serif" font-size="14.00">path (2)</text>
</g>
<!-- v193&#45;&gt;v186 -->
<g id="edge40" class="edge"><title>v193&#45;&gt;v186</title>
<path fill="none" stroke="black" d="M512.65,-360.765C508.288,-352.283 502.853,-341.714 497.959,-332.197"/>
<polygon fill="black" stroke="black" points="500.99,-330.439 493.304,-323.147 494.765,-333.641 500.99,-330.439"/>
</g>
<!-- v193&#45;&gt;v189 -->
<g id="edge7" class="edge"><title>v193&#45;&gt;v189</title>
<path fill="none" stroke="black" d="M529.35,-360.765C533.712,-352.283 539.147,-341.714 544.041,-332.197"/>
<polygon fill="black" stroke="black" points="547.235,-333.641 548.696,-323.147 541.01,-330.439 547.235,-333.641"/>
</g>
<!-- v194 -->
<g id="node59" class="node"><title>v194</title>
<ellipse fill="none" stroke="black" cx="629" cy="-306" rx="27" ry="18"/>
<text text-anchor="middle" x="629" y="-302.3" font-family="Times,serif" font-size="14.00">194</text>
</g>
<!-- v193&#45;&gt;v194 -->
<g id="edge26" class="edge"><title>v193&#45;&gt;v194</title>
<path fill="none" stroke="black" d="M539.812,-364.807C557.002,-353.665 582.618,-337.062 601.993,-324.504"/>
<polygon fill="black" stroke="black" points="603.916,-327.429 610.403,-319.053 600.108,-321.555 603.916,-327.429"/>
</g>
<!-- v196 -->
<g id="node60" class="node"><title>v196</title>
<ellipse fill="none" stroke="black" cx="448" cy="-162" rx="27" ry="18"/>
<text text-anchor="middle" x="448" y="-158.3" font-family="Times,serif" font-size="14.00">196</text>
</g>
<!-- v196&#45;&gt;v110 -->
<g id="edge41" class="edge"><title>v196&#45;&gt;v110</title>
<path fill="none" stroke="black" d="M448,-143.697C448,-135.983 448,-126.712 448,-118.112"/>
<polygon fill="black" stroke="black" points="451.5,-118.104 448,-108.104 444.5,-118.104 451.5,-118.104"/>
</g>
<!-- v197&#45;&gt;p30 -->
<g id="edge15" class="edge"><title>v197&#45;&gt;p30</title>
<path fill="none" stroke="black" d="M466.001,-221.125C450.484,-211.427 428.107,-197.442 409.191,-185.62"/>
<polygon fill="black" stroke="black" points="410.841,-182.523 400.506,-180.191 407.131,-188.459 410.841,-182.523"/>
</g>
<!-- v197&#45;&gt;v196 -->
<g id="edge1" class="edge"><title>v197&#45;&gt;v196</title>
<path fill="none" stroke="black" d="M476.418,-216.765C471.935,-208.283 466.349,-197.714 461.319,-188.197"/>
<polygon fill="black" stroke="black" points="464.302,-186.353 456.535,-179.147 458.114,-189.624 464.302,-186.353"/>
</g>
<!-- p33 -->
<g id="node63" class="node"><title>p33</title>
<path fill="none" stroke="black" d="M540.5,-180C540.5,-180 505.5,-180 505.5,-180 499.5,-180 493.5,-174 493.5,-168 493.5,-168 493.5,-156 493.5,-156 493.5,-150 499.5,-144 505.5,-144 505.5,-144 540.5,-144 540.5,-144 546.5,-144 552.5,-150 552.5,-156 552.5,-156 552.5,-168 552.5,-168 552.5,-174 546.5,-180 540.5,-180"/>
<text text-anchor="middle" x="523" y="-158.3" font-family="Times,serif" font-size="14.00">path (2)</text>
</g>
<!-- v197&#45;&gt;p33 -->
<g id="edge56" class="edge"><title>v197&#45;&gt;p33</title>
<path fill="none" stroke="black" d="M493.813,-216.765C498.286,-208.525 503.828,-198.317 508.877,-189.016"/>
<polygon fill="black" stroke="black" points="512.009,-190.582 513.704,-180.124 505.857,-187.243 512.009,-190.582"/>
</g>
<!-- v203 -->
<g id="node64" class="node"><title>v203</title>
<ellipse fill="none" stroke="black" cx="598" cy="-162" rx="27" ry="18"/>
<text text-anchor="middle" x="598" y="-158.3" font-family="Times,serif" font-size="14.00">203</text>
</g>
<!-- v197&#45;&gt;v203 -->
<g id="edge45" class="edge"><title>v197&#45;&gt;v203</title>
<path fill="none" stroke="black" d="M504.169,-221.125C522.27,-209.913 549.623,-192.968 570.133,-180.263"/>
<polygon fill="black" stroke="black" points="572.079,-183.174 578.737,-174.933 568.393,-177.224 572.079,-183.174"/>
</g>
<!-- v203&#45;&gt;p31 -->
<g id="edge12" class="edge"><title>v203&#45;&gt;p31</title>
<path fill="none" stroke="black" d="M589.187,-144.765C584.714,-136.525 579.172,-126.317 574.123,-117.016"/>
<polygon fill="black" stroke="black" points="577.143,-115.243 569.296,-108.124 570.991,-118.582 577.143,-115.243"/>
</g>
<!-- v203&#45;&gt;p32 -->
<g id="edge52" class="edge"><title>v203&#45;&gt;p32</title>
<path fill="none" stroke="black" d="M607.045,-144.765C611.636,-136.525 617.324,-126.317 622.506,-117.016"/>
<polygon fill="black" stroke="black" points="625.65,-118.563 627.46,-108.124 619.535,-115.156 625.65,-118.563"/>
</g>
<!-- p34 -->
<g id="node65" class="node"><title>p34</title>
<path fill="none" stroke="black" d="M102.5,-828C102.5,-828 67.5,-828 67.5,-828 61.5,-828 55.5,-822 55.5,-816 55.5,-816 55.5,-804 55.5,-804 55.5,-798 61.5,-792 67.5,-792 67.5,-792 102.5,-792 102.5,-792 108.5,-792 114.5,-798 114.5,-804 114.5,-804 114.5,-816 114.5,-816 114.5,-822 108.5,-828 102.5,-828"/>
<text text-anchor="middle" x="85" y="-806.3" font-family="Times,serif" font-size="14.00">path (5)</text>
</g>
<!-- v214 -->
<g id="node69" class="node"><title>v214</title>
<ellipse fill="none" stroke="black" cx="231" cy="-954" rx="27" ry="18"/>
<text text-anchor="middle" x="231" y="-950.3" font-family="Times,serif" font-size="14.00">214</text>
</g>
<!-- p35&#45;&gt;v214 -->
<g id="edge49" class="edge"><title>p35&#45;&gt;v214</title>
<path fill="none" stroke="black" d="M231,-1007.7C231,-999.983 231,-990.712 231,-982.112"/>
<polygon fill="black" stroke="black" points="234.5,-982.104 231,-972.104 227.5,-982.104 234.5,-982.104"/>
</g>
<!-- v207 -->
<g id="node67" class="node"><title>v207</title>
<ellipse fill="none" stroke="black" cx="160" cy="-882" rx="27" ry="18"/>
<text text-anchor="middle" x="160" y="-878.3" font-family="Times,serif" font-size="14.00">207</text>
</g>
<!-- v207&#45;&gt;p34 -->
<g id="edge38" class="edge"><title>v207&#45;&gt;p34</title>
<path fill="none" stroke="black" d="M144.823,-866.834C135.085,-857.746 122.19,-845.71 110.866,-835.141"/>
<polygon fill="black" stroke="black" points="113.034,-832.377 103.335,-828.113 108.258,-837.495 113.034,-832.377"/>
</g>
<!-- v215 -->
<g id="node70" class="node"><title>v215</title>
<ellipse fill="none" stroke="black" cx="160" cy="-810" rx="27" ry="18"/>
<text text-anchor="middle" x="160" y="-806.3" font-family="Times,serif" font-size="14.00">215</text>
</g>
<!-- v207&#45;&gt;v215 -->
<g id="edge65" class="edge"><title>v207&#45;&gt;v215</title>
<path fill="none" stroke="black" d="M160,-863.697C160,-855.983 160,-846.712 160,-838.112"/>
<polygon fill="black" stroke="black" points="163.5,-838.104 160,-828.104 156.5,-838.104 163.5,-838.104"/>
</g>
<!-- v208 -->
<g id="node68" class="node"><title>v208</title>
<ellipse fill="none" stroke="black" cx="232" cy="-882" rx="27" ry="18"/>
<text text-anchor="middle" x="232" y="-878.3" font-family="Times,serif" font-size="14.00">208</text>
</g>
<!-- v214&#45;&gt;v207 -->
<g id="edge11" class="edge"><title>v214&#45;&gt;v207</title>
<path fill="none" stroke="black" d="M216.289,-938.496C206.388,-928.735 193.157,-915.69 182.01,-904.7"/>
<polygon fill="black" stroke="black" points="184.271,-902.014 174.692,-897.485 179.356,-906.999 184.271,-902.014"/>
</g>
<!-- v214&#45;&gt;v208 -->
<g id="edge37" class="edge"><title>v214&#45;&gt;v208</title>
<path fill="none" stroke="black" d="M231.247,-935.697C231.357,-927.983 231.49,-918.712 231.613,-910.112"/>
<polygon fill="black" stroke="black" points="235.112,-910.153 231.756,-900.104 228.113,-910.053 235.112,-910.153"/>
</g>
</g>
</svg>
