<?xml version="1.0" encoding="UTF-8" standalone="no"?>
<!DOCTYPE svg PUBLIC "-//W3C//DTD SVG 1.1//EN"
 "http://www.w3.org/Graphics/SVG/1.1/DTD/svg11.dtd">
<!-- Generated by graphviz version 2.38.0 (20140413.2041)
 -->
<!-- Title: %3 Pages: 1 -->
<svg width="474pt" height="332pt"
 viewBox="0.00 0.00 473.50 332.00" xmlns="http://www.w3.org/2000/svg" xmlns:xlink="http://www.w3.org/1999/xlink">
<g id="graph0" class="graph" transform="scale(1 1) rotate(0) translate(4 328)">
<title>%3</title>
<polygon fill="white" stroke="none" points="-4,4 -4,-328 469.5,-328 469.5,4 -4,4"/>
<!-- p0 -->
<g id="node1" class="node"><title>p0</title>
<path fill="none" stroke="black" d="M47,-180C47,-180 12,-180 12,-180 6,-180 0,-174 0,-168 0,-168 0,-156 0,-156 0,-150 6,-144 12,-144 12,-144 47,-144 47,-144 53,-144 59,-150 59,-156 59,-156 59,-168 59,-168 59,-174 53,-180 47,-180"/>
<text text-anchor="middle" x="29.5" y="-158.3" font-family="Times,serif" font-size="14.00">path (2)</text>
</g>
<!-- p1 -->
<g id="node2" class="node"><title>p1</title>
<path fill="none" stroke="black" d="M124,-180C124,-180 89,-180 89,-180 83,-180 77,-174 77,-168 77,-168 77,-156 77,-156 77,-150 83,-144 89,-144 89,-144 124,-144 124,-144 130,-144 136,-150 136,-156 136,-156 136,-168 136,-168 136,-174 130,-180 124,-180"/>
<text text-anchor="middle" x="106.5" y="-158.3" font-family="Times,serif" font-size="14.00">path (2)</text>
</g>
<!-- v2 -->
<g id="node3" class="node"><title>v2</title>
<ellipse fill="none" stroke="black" cx="220.5" cy="-234" rx="27" ry="18"/>
<text text-anchor="middle" x="220.5" y="-230.3" font-family="Times,serif" font-size="14.00">2</text>
</g>
<!-- v2&#45;&gt;p0 -->
<g id="edge9" class="edge"><title>v2&#45;&gt;p0</title>
<path fill="none" stroke="black" d="M196.676,-225.461C168.155,-216.283 118.808,-199.919 68.6387,-180.31"/>
<polygon fill="black" stroke="black" points="69.8529,-177.026 59.2662,-176.611 67.2835,-183.538 69.8529,-177.026"/>
</g>
<!-- v2&#45;&gt;p1 -->
<g id="edge4" class="edge"><title>v2&#45;&gt;p1</title>
<path fill="none" stroke="black" d="M201.161,-221.125C185.296,-211.384 162.385,-197.315 143.077,-185.459"/>
<polygon fill="black" stroke="black" points="144.85,-182.441 134.497,-180.191 141.187,-188.406 144.85,-182.441"/>
</g>
<!-- p3 -->
<g id="node6" class="node"><title>p3</title>
<path fill="none" stroke="black" d="M201,-180C201,-180 166,-180 166,-180 160,-180 154,-174 154,-168 154,-168 154,-156 154,-156 154,-150 160,-144 166,-144 166,-144 201,-144 201,-144 207,-144 213,-150 213,-156 213,-156 213,-168 213,-168 213,-174 207,-180 201,-180"/>
<text text-anchor="middle" x="183.5" y="-158.3" font-family="Times,serif" font-size="14.00">path (3)</text>
</g>
<!-- v2&#45;&gt;p3 -->
<g id="edge7" class="edge"><title>v2&#45;&gt;p3</title>
<path fill="none" stroke="black" d="M211.918,-216.765C207.563,-208.525 202.167,-198.317 197.251,-189.016"/>
<polygon fill="black" stroke="black" points="200.319,-187.329 192.551,-180.124 194.13,-190.6 200.319,-187.329"/>
</g>
<!-- v12 -->
<g id="node9" class="node"><title>v12</title>
<ellipse fill="none" stroke="black" cx="258.5" cy="-162" rx="27" ry="18"/>
<text text-anchor="middle" x="258.5" y="-158.3" font-family="Times,serif" font-size="14.00">12</text>
</g>
<!-- v2&#45;&gt;v12 -->
<g id="edge5" class="edge"><title>v2&#45;&gt;v12</title>
<path fill="none" stroke="black" d="M229.313,-216.765C233.918,-208.283 239.655,-197.714 244.821,-188.197"/>
<polygon fill="black" stroke="black" points="248.039,-189.606 249.734,-179.147 241.887,-186.266 248.039,-189.606"/>
</g>
<!-- v14 -->
<g id="node10" class="node"><title>v14</title>
<ellipse fill="none" stroke="black" cx="330.5" cy="-162" rx="27" ry="18"/>
<text text-anchor="middle" x="330.5" y="-158.3" font-family="Times,serif" font-size="14.00">14</text>
</g>
<!-- v2&#45;&gt;v14 -->
<g id="edge10" class="edge"><title>v2&#45;&gt;v14</title>
<path fill="none" stroke="black" d="M239.661,-220.807C257.169,-209.665 283.259,-193.062 302.993,-180.504"/>
<polygon fill="black" stroke="black" points="305.001,-183.375 311.559,-175.053 301.243,-177.469 305.001,-183.375"/>
</g>
<!-- v18 -->
<g id="node13" class="node"><title>v18</title>
<ellipse fill="none" stroke="black" cx="402.5" cy="-162" rx="27" ry="18"/>
<text text-anchor="middle" x="402.5" y="-158.3" font-family="Times,serif" font-size="14.00">18</text>
</g>
<!-- v2&#45;&gt;v18 -->
<g id="edge2" class="edge"><title>v2&#45;&gt;v18</title>
<path fill="none" stroke="black" d="M244.276,-225.129C273.388,-215.319 324.059,-197.679 366.5,-180 368.318,-179.243 370.178,-178.443 372.047,-177.62"/>
<polygon fill="black" stroke="black" points="373.674,-180.726 381.327,-173.399 370.775,-174.354 373.674,-180.726"/>
</g>
<!-- v3 -->
<g id="node4" class="node"><title>v3</title>
<ellipse fill="none" stroke="black" cx="402.5" cy="-90" rx="27" ry="18"/>
<text text-anchor="middle" x="402.5" y="-86.3" font-family="Times,serif" font-size="14.00">3</text>
</g>
<!-- v15 -->
<g id="node11" class="node"><title>v15</title>
<ellipse fill="none" stroke="black" cx="366.5" cy="-18" rx="27" ry="18"/>
<text text-anchor="middle" x="366.5" y="-14.3" font-family="Times,serif" font-size="14.00">15</text>
</g>
<!-- v3&#45;&gt;v15 -->
<g id="edge1" class="edge"><title>v3&#45;&gt;v15</title>
<path fill="none" stroke="black" d="M394.15,-72.7646C389.788,-64.2831 384.353,-53.7144 379.459,-44.1974"/>
<polygon fill="black" stroke="black" points="382.49,-42.4395 374.804,-35.1473 376.265,-45.6409 382.49,-42.4395"/>
</g>
<!-- v16 -->
<g id="node12" class="node"><title>v16</title>
<ellipse fill="none" stroke="black" cx="438.5" cy="-18" rx="27" ry="18"/>
<text text-anchor="middle" x="438.5" y="-14.3" font-family="Times,serif" font-size="14.00">16</text>
</g>
<!-- v3&#45;&gt;v16 -->
<g id="edge8" class="edge"><title>v3&#45;&gt;v16</title>
<path fill="none" stroke="black" d="M410.85,-72.7646C415.212,-64.2831 420.647,-53.7144 425.541,-44.1974"/>
<polygon fill="black" stroke="black" points="428.735,-45.6409 430.196,-35.1473 422.51,-42.4395 428.735,-45.6409"/>
</g>
<!-- p2 -->
<g id="node5" class="node"><title>p2</title>
<path fill="none" stroke="black" d="M273,-108C273,-108 238,-108 238,-108 232,-108 226,-102 226,-96 226,-96 226,-84 226,-84 226,-78 232,-72 238,-72 238,-72 273,-72 273,-72 279,-72 285,-78 285,-84 285,-84 285,-96 285,-96 285,-102 279,-108 273,-108"/>
<text text-anchor="middle" x="255.5" y="-86.3" font-family="Times,serif" font-size="14.00">path (2)</text>
</g>
<!-- v7 -->
<g id="node7" class="node"><title>v7</title>
<ellipse fill="none" stroke="black" cx="330.5" cy="-90" rx="27" ry="18"/>
<text text-anchor="middle" x="330.5" y="-86.3" font-family="Times,serif" font-size="14.00">7</text>
</g>
<!-- p4 -->
<g id="node8" class="node"><title>p4</title>
<path fill="none" stroke="black" d="M238,-324C238,-324 203,-324 203,-324 197,-324 191,-318 191,-312 191,-312 191,-300 191,-300 191,-294 197,-288 203,-288 203,-288 238,-288 238,-288 244,-288 250,-294 250,-300 250,-300 250,-312 250,-312 250,-318 244,-324 238,-324"/>
<text text-anchor="middle" x="220.5" y="-302.3" font-family="Times,serif" font-size="14.00">path (7)</text>
</g>
<!-- p4&#45;&gt;v2 -->
<g id="edge3" class="edge"><title>p4&#45;&gt;v2</title>
<path fill="none" stroke="black" d="M220.5,-287.697C220.5,-279.983 220.5,-270.712 220.5,-262.112"/>
<polygon fill="black" stroke="black" points="224,-262.104 220.5,-252.104 217,-262.104 224,-262.104"/>
</g>
<!-- v14&#45;&gt;p2 -->
<g id="edge6" class="edge"><title>v14&#45;&gt;p2</title>
<path fill="none" stroke="black" d="M315.323,-146.834C305.585,-137.746 292.69,-125.71 281.366,-115.141"/>
<polygon fill="black" stroke="black" points="283.534,-112.377 273.835,-108.113 278.758,-117.495 283.534,-112.377"/>
</g>
<!-- v14&#45;&gt;v7 -->
<g id="edge12" class="edge"><title>v14&#45;&gt;v7</title>
<path fill="none" stroke="black" d="M330.5,-143.697C330.5,-135.983 330.5,-126.712 330.5,-118.112"/>
<polygon fill="black" stroke="black" points="334,-118.104 330.5,-108.104 327,-118.104 334,-118.104"/>
</g>
<!-- v18&#45;&gt;v3 -->
<g id="edge11" class="edge"><title>v18&#45;&gt;v3</title>
<path fill="none" stroke="black" d="M402.5,-143.697C402.5,-135.983 402.5,-126.712 402.5,-118.112"/>
<polygon fill="black" stroke="black" points="406,-118.104 402.5,-108.104 399,-118.104 406,-118.104"/>
</g>
</g>
</svg>
