<?xml version="1.0" encoding="UTF-8" standalone="no"?>
<!DOCTYPE svg PUBLIC "-//W3C//DTD SVG 1.1//EN"
 "http://www.w3.org/Graphics/SVG/1.1/DTD/svg11.dtd">
<!-- Generated by graphviz version 2.38.0 (20140413.2041)
 -->
<!-- Title: %3 Pages: 1 -->
<svg width="846pt" height="836pt"
 viewBox="0.00 0.00 846.19 836.00" xmlns="http://www.w3.org/2000/svg" xmlns:xlink="http://www.w3.org/1999/xlink">
<g id="graph0" class="graph" transform="scale(1 1) rotate(0) translate(4 832)">
<title>%3</title>
<polygon fill="white" stroke="none" points="-4,4 -4,-832 842.193,-832 842.193,4 -4,4"/>
<!-- 0 -->
<g id="node1" class="node"><title>0</title>
<g id="a_node1"><a xlink:title="0, diversity: 1, multiplicities: 19, labels: 0">
<ellipse fill="#fca082" stroke="black" cx="179.596" cy="-594" rx="37.0935" ry="18"/>
<text text-anchor="middle" x="179.596" y="-590.3" font-family="Times,serif" font-size="14.00">0 (1): 0</text>
</a>
</g>
</g>
<!-- 1 -->
<g id="node2" class="node"><title>1</title>
<g id="a_node2"><a xlink:title="1, diversity: 5, multiplicities: 1,1,7,14,37, labels: 0">
<ellipse fill="#fca082" stroke="black" cx="695.596" cy="-666" rx="37.0935" ry="18"/>
<text text-anchor="middle" x="695.596" y="-662.3" font-family="Times,serif" font-size="14.00">1 (5): 0</text>
</a>
</g>
</g>
<!-- 19 -->
<g id="node20" class="node"><title>19</title>
<g id="a_node20"><a xlink:title="19, diversity: 1, multiplicities: 15, labels: 0">
<ellipse fill="#fca082" stroke="black" cx="695.596" cy="-594" rx="41.6928" ry="18"/>
<text text-anchor="middle" x="695.596" y="-590.3" font-family="Times,serif" font-size="14.00">19 (1): 0</text>
</a>
</g>
</g>
<!-- 1&#45;&gt;19 -->
<g id="edge25" class="edge"><title>1&#45;&gt;19</title>
<path fill="none" stroke="black" d="M695.596,-647.697C695.596,-639.983 695.596,-630.712 695.596,-622.112"/>
<polygon fill="black" stroke="black" points="699.096,-622.104 695.596,-612.104 692.096,-622.104 699.096,-622.104"/>
</g>
<!-- 40 -->
<g id="node41" class="node"><title>40</title>
<g id="a_node41"><a xlink:title="40, diversity: 1, multiplicities: 8, labels: 0">
<ellipse fill="#fcc4ad" stroke="black" cx="796.596" cy="-594" rx="41.6928" ry="18"/>
<text text-anchor="middle" x="796.596" y="-590.3" font-family="Times,serif" font-size="14.00">40 (1): 0</text>
</a>
</g>
</g>
<!-- 1&#45;&gt;40 -->
<g id="edge24" class="edge"><title>1&#45;&gt;40</title>
<path fill="none" stroke="black" d="M716.035,-650.834C730.626,-640.722 750.48,-626.962 766.827,-615.632"/>
<polygon fill="black" stroke="black" points="769.267,-618.199 775.493,-609.626 765.28,-612.446 769.267,-618.199"/>
</g>
<!-- 2 -->
<g id="node3" class="node"><title>2</title>
<g id="a_node3"><a xlink:title="2, diversity: 1, multiplicities: 10, labels: 0">
<ellipse fill="#fcc4ad" stroke="black" cx="669.596" cy="-306" rx="37.0935" ry="18"/>
<text text-anchor="middle" x="669.596" y="-302.3" font-family="Times,serif" font-size="14.00">2 (1): 0</text>
</a>
</g>
</g>
<!-- 34 -->
<g id="node35" class="node"><title>34</title>
<g id="a_node35"><a xlink:title="34, diversity: 1, multiplicities: 22, labels: 0">
<ellipse fill="#fca082" stroke="black" cx="668.596" cy="-234" rx="41.6928" ry="18"/>
<text text-anchor="middle" x="668.596" y="-230.3" font-family="Times,serif" font-size="14.00">34 (1): 0</text>
</a>
</g>
</g>
<!-- 2&#45;&gt;34 -->
<g id="edge7" class="edge"><title>2&#45;&gt;34</title>
<path fill="none" stroke="black" d="M669.349,-287.697C669.239,-279.983 669.106,-270.712 668.984,-262.112"/>
<polygon fill="black" stroke="black" points="672.483,-262.053 668.841,-252.104 665.484,-262.153 672.483,-262.053"/>
</g>
<!-- 3 -->
<g id="node4" class="node"><title>3</title>
<g id="a_node4"><a xlink:title="3, diversity: 2, multiplicities: 2,35, labels: 0">
<ellipse fill="#fca082" stroke="black" cx="271.596" cy="-594" rx="37.0935" ry="18"/>
<text text-anchor="middle" x="271.596" y="-590.3" font-family="Times,serif" font-size="14.00">3 (2): 0</text>
</a>
</g>
</g>
<!-- 5 -->
<g id="node6" class="node"><title>5</title>
<g id="a_node6"><a xlink:title="5, diversity: 1, multiplicities: 4, labels: 0">
<ellipse fill="#fee3d6" stroke="black" cx="271.596" cy="-522" rx="37.0935" ry="18"/>
<text text-anchor="middle" x="271.596" y="-518.3" font-family="Times,serif" font-size="14.00">5 (1): 0</text>
</a>
</g>
</g>
<!-- 3&#45;&gt;5 -->
<g id="edge40" class="edge"><title>3&#45;&gt;5</title>
<path fill="none" stroke="black" d="M271.596,-575.697C271.596,-567.983 271.596,-558.712 271.596,-550.112"/>
<polygon fill="black" stroke="black" points="275.096,-550.104 271.596,-540.104 268.096,-550.104 275.096,-550.104"/>
</g>
<!-- 4 -->
<g id="node5" class="node"><title>4</title>
<g id="a_node5"><a xlink:title="4, diversity: 2, multiplicities: 1,5, labels: 0">
<ellipse fill="#fcc4ad" stroke="black" cx="271.596" cy="-450" rx="37.0935" ry="18"/>
<text text-anchor="middle" x="271.596" y="-446.3" font-family="Times,serif" font-size="14.00">4 (2): 0</text>
</a>
</g>
</g>
<!-- 5&#45;&gt;4 -->
<g id="edge19" class="edge"><title>5&#45;&gt;4</title>
<path fill="none" stroke="black" d="M271.596,-503.697C271.596,-495.983 271.596,-486.712 271.596,-478.112"/>
<polygon fill="black" stroke="black" points="275.096,-478.104 271.596,-468.104 268.096,-478.104 275.096,-478.104"/>
</g>
<!-- 6 -->
<g id="node7" class="node"><title>6</title>
<g id="a_node7"><a xlink:title="6, diversity: 1, multiplicities: 43, labels: 0">
<ellipse fill="#fca082" stroke="black" cx="368.596" cy="-162" rx="37.0935" ry="18"/>
<text text-anchor="middle" x="368.596" y="-158.3" font-family="Times,serif" font-size="14.00">6 (1): 0</text>
</a>
</g>
</g>
<!-- 7 -->
<g id="node8" class="node"><title>7</title>
<g id="a_node8"><a xlink:title="7, diversity: 1, multiplicities: 4, labels: 0">
<ellipse fill="#fee3d6" stroke="black" cx="368.596" cy="-378" rx="37.0935" ry="18"/>
<text text-anchor="middle" x="368.596" y="-374.3" font-family="Times,serif" font-size="14.00">7 (1): 0</text>
</a>
</g>
</g>
<!-- 9 -->
<g id="node10" class="node"><title>9</title>
<g id="a_node10"><a xlink:title="9, diversity: 1, multiplicities: 1, labels: 0">
<ellipse fill="#fff5f0" stroke="black" cx="368.596" cy="-306" rx="37.0935" ry="18"/>
<text text-anchor="middle" x="368.596" y="-302.3" font-family="Times,serif" font-size="14.00">9 (1): 0</text>
</a>
</g>
</g>
<!-- 7&#45;&gt;9 -->
<g id="edge17" class="edge"><title>7&#45;&gt;9</title>
<path fill="none" stroke="black" d="M368.596,-359.697C368.596,-351.983 368.596,-342.712 368.596,-334.112"/>
<polygon fill="black" stroke="black" points="372.096,-334.104 368.596,-324.104 365.096,-334.104 372.096,-334.104"/>
</g>
<!-- 8 -->
<g id="node9" class="node"><title>8</title>
<g id="a_node9"><a xlink:title="8, diversity: 1, multiplicities: 2, labels: 0">
<ellipse fill="#fee3d6" stroke="black" cx="368.596" cy="-234" rx="37.0935" ry="18"/>
<text text-anchor="middle" x="368.596" y="-230.3" font-family="Times,serif" font-size="14.00">8 (1): 0</text>
</a>
</g>
</g>
<!-- 8&#45;&gt;6 -->
<g id="edge15" class="edge"><title>8&#45;&gt;6</title>
<path fill="none" stroke="black" d="M368.596,-215.697C368.596,-207.983 368.596,-198.712 368.596,-190.112"/>
<polygon fill="black" stroke="black" points="372.096,-190.104 368.596,-180.104 365.096,-190.104 372.096,-190.104"/>
</g>
<!-- 9&#45;&gt;8 -->
<g id="edge5" class="edge"><title>9&#45;&gt;8</title>
<path fill="none" stroke="black" d="M368.596,-287.697C368.596,-279.983 368.596,-270.712 368.596,-262.112"/>
<polygon fill="black" stroke="black" points="372.096,-262.104 368.596,-252.104 365.096,-262.104 372.096,-262.104"/>
</g>
<!-- 10 -->
<g id="node11" class="node"><title>10</title>
<g id="a_node11"><a xlink:title="10, diversity: 2, multiplicities: 1,1, labels: 0">
<ellipse fill="#fee3d6" stroke="black" cx="368.596" cy="-450" rx="41.6928" ry="18"/>
<text text-anchor="middle" x="368.596" y="-446.3" font-family="Times,serif" font-size="14.00">10 (2): 0</text>
</a>
</g>
</g>
<!-- 10&#45;&gt;7 -->
<g id="edge12" class="edge"><title>10&#45;&gt;7</title>
<path fill="none" stroke="black" d="M368.596,-431.697C368.596,-423.983 368.596,-414.712 368.596,-406.112"/>
<polygon fill="black" stroke="black" points="372.096,-406.104 368.596,-396.104 365.096,-406.104 372.096,-406.104"/>
</g>
<!-- 11 -->
<g id="node12" class="node"><title>11</title>
<g id="a_node12"><a xlink:title="11, diversity: 1, multiplicities: 11, labels: 0">
<ellipse fill="#fca082" stroke="black" cx="769.596" cy="-18" rx="41.6928" ry="18"/>
<text text-anchor="middle" x="769.596" y="-14.3" font-family="Times,serif" font-size="14.00">11 (1): 0</text>
</a>
</g>
</g>
<!-- 12 -->
<g id="node13" class="node"><title>12</title>
<g id="a_node13"><a xlink:title="12, diversity: 1, multiplicities: 1, labels: 0">
<ellipse fill="#fff5f0" stroke="black" cx="769.596" cy="-90" rx="41.6928" ry="18"/>
<text text-anchor="middle" x="769.596" y="-86.3" font-family="Times,serif" font-size="14.00">12 (1): 0</text>
</a>
</g>
</g>
<!-- 12&#45;&gt;11 -->
<g id="edge26" class="edge"><title>12&#45;&gt;11</title>
<path fill="none" stroke="black" d="M769.596,-71.6966C769.596,-63.9827 769.596,-54.7125 769.596,-46.1124"/>
<polygon fill="black" stroke="black" points="773.096,-46.1043 769.596,-36.1043 766.096,-46.1044 773.096,-46.1043"/>
</g>
<!-- 13 -->
<g id="node14" class="node"><title>13</title>
<g id="a_node14"><a xlink:title="13, diversity: 1, multiplicities: 43, labels: 0">
<ellipse fill="#fca082" stroke="black" cx="469.596" cy="-378" rx="41.6928" ry="18"/>
<text text-anchor="middle" x="469.596" y="-374.3" font-family="Times,serif" font-size="14.00">13 (1): 0</text>
</a>
</g>
</g>
<!-- 14 -->
<g id="node15" class="node"><title>14</title>
<g id="a_node15"><a xlink:title="14, diversity: 1, multiplicities: 1, labels: 0">
<ellipse fill="#fff5f0" stroke="black" cx="469.596" cy="-450" rx="41.6928" ry="18"/>
<text text-anchor="middle" x="469.596" y="-446.3" font-family="Times,serif" font-size="14.00">14 (1): 0</text>
</a>
</g>
</g>
<!-- 14&#45;&gt;13 -->
<g id="edge6" class="edge"><title>14&#45;&gt;13</title>
<path fill="none" stroke="black" d="M469.596,-431.697C469.596,-423.983 469.596,-414.712 469.596,-406.112"/>
<polygon fill="black" stroke="black" points="473.096,-406.104 469.596,-396.104 466.096,-406.104 473.096,-406.104"/>
</g>
<!-- 15 -->
<g id="node16" class="node"><title>15</title>
<g id="a_node16"><a xlink:title="15, diversity: 1, multiplicities: 1, labels: 0">
<ellipse fill="#fff5f0" stroke="black" cx="493.596" cy="-522" rx="41.6928" ry="18"/>
<text text-anchor="middle" x="493.596" y="-518.3" font-family="Times,serif" font-size="14.00">15 (1): 0</text>
</a>
</g>
</g>
<!-- 15&#45;&gt;10 -->
<g id="edge22" class="edge"><title>15&#45;&gt;10</title>
<path fill="none" stroke="black" d="M469.198,-507.337C450.012,-496.593 423.08,-481.511 401.909,-469.655"/>
<polygon fill="black" stroke="black" points="403.368,-466.461 392.933,-464.628 399.948,-472.568 403.368,-466.461"/>
</g>
<!-- 15&#45;&gt;14 -->
<g id="edge28" class="edge"><title>15&#45;&gt;14</title>
<path fill="none" stroke="black" d="M487.787,-504.055C485.085,-496.176 481.808,-486.617 478.783,-477.794"/>
<polygon fill="black" stroke="black" points="482.073,-476.6 475.519,-468.275 475.452,-478.87 482.073,-476.6"/>
</g>
<!-- 17 -->
<g id="node18" class="node"><title>17</title>
<g id="a_node18"><a xlink:title="17, diversity: 1, multiplicities: 1, labels: 0">
<ellipse fill="#fff5f0" stroke="black" cx="570.596" cy="-450" rx="41.6928" ry="18"/>
<text text-anchor="middle" x="570.596" y="-446.3" font-family="Times,serif" font-size="14.00">17 (1): 0</text>
</a>
</g>
</g>
<!-- 15&#45;&gt;17 -->
<g id="edge30" class="edge"><title>15&#45;&gt;17</title>
<path fill="none" stroke="black" d="M510.685,-505.465C521.053,-496.04 534.458,-483.853 545.958,-473.398"/>
<polygon fill="black" stroke="black" points="548.51,-475.808 553.555,-466.492 543.801,-470.629 548.51,-475.808"/>
</g>
<!-- 38 -->
<g id="node39" class="node"><title>38</title>
<g id="a_node39"><a xlink:title="38, diversity: 1, multiplicities: 1, labels: 0">
<ellipse fill="#fff5f0" stroke="black" cx="671.596" cy="-450" rx="41.6928" ry="18"/>
<text text-anchor="middle" x="671.596" y="-446.3" font-family="Times,serif" font-size="14.00">38 (1): 0</text>
</a>
</g>
</g>
<!-- 15&#45;&gt;38 -->
<g id="edge38" class="edge"><title>15&#45;&gt;38</title>
<path fill="none" stroke="black" d="M523.39,-509.284C553.295,-497.523 599.524,-479.343 632.392,-466.418"/>
<polygon fill="black" stroke="black" points="633.681,-469.672 641.706,-462.755 631.119,-463.157 633.681,-469.672"/>
</g>
<!-- 42 -->
<g id="node43" class="node"><title>42</title>
<g id="a_node43"><a xlink:title="42, diversity: 1, multiplicities: 1, labels: 0">
<ellipse fill="#fff5f0" stroke="black" cx="772.596" cy="-450" rx="41.6928" ry="18"/>
<text text-anchor="middle" x="772.596" y="-446.3" font-family="Times,serif" font-size="14.00">42 (1): 0</text>
</a>
</g>
</g>
<!-- 15&#45;&gt;42 -->
<g id="edge13" class="edge"><title>15&#45;&gt;42</title>
<path fill="none" stroke="black" d="M530.774,-513.594C576.321,-504.246 655.682,-487.067 722.596,-468 725.586,-467.148 728.661,-466.224 731.746,-465.261"/>
<polygon fill="black" stroke="black" points="733.102,-468.501 741.542,-462.097 730.95,-461.84 733.102,-468.501"/>
</g>
<!-- 16 -->
<g id="node17" class="node"><title>16</title>
<g id="a_node17"><a xlink:title="16, diversity: 2, multiplicities: 7,69, labels: 0">
<ellipse fill="#fca082" stroke="black" cx="570.596" cy="-306" rx="41.6928" ry="18"/>
<text text-anchor="middle" x="570.596" y="-302.3" font-family="Times,serif" font-size="14.00">16 (2): 0</text>
</a>
</g>
</g>
<!-- 18 -->
<g id="node19" class="node"><title>18</title>
<g id="a_node19"><a xlink:title="18, diversity: 1, multiplicities: 1, labels: 0">
<ellipse fill="#fff5f0" stroke="black" cx="570.596" cy="-378" rx="41.6928" ry="18"/>
<text text-anchor="middle" x="570.596" y="-374.3" font-family="Times,serif" font-size="14.00">18 (1): 0</text>
</a>
</g>
</g>
<!-- 17&#45;&gt;18 -->
<g id="edge31" class="edge"><title>17&#45;&gt;18</title>
<path fill="none" stroke="black" d="M570.596,-431.697C570.596,-423.983 570.596,-414.712 570.596,-406.112"/>
<polygon fill="black" stroke="black" points="574.096,-406.104 570.596,-396.104 567.096,-406.104 574.096,-406.104"/>
</g>
<!-- 18&#45;&gt;16 -->
<g id="edge14" class="edge"><title>18&#45;&gt;16</title>
<path fill="none" stroke="black" d="M570.596,-359.697C570.596,-351.983 570.596,-342.712 570.596,-334.112"/>
<polygon fill="black" stroke="black" points="574.096,-334.104 570.596,-324.104 567.096,-334.104 574.096,-334.104"/>
</g>
<!-- 20 -->
<g id="node21" class="node"><title>20</title>
<g id="a_node21"><a xlink:title="20, diversity: 2, multiplicities: 3,75, labels: 0">
<ellipse fill="#fca082" stroke="black" cx="243.596" cy="-738" rx="41.6928" ry="18"/>
<text text-anchor="middle" x="243.596" y="-734.3" font-family="Times,serif" font-size="14.00">20 (2): 0</text>
</a>
</g>
</g>
<!-- 23 -->
<g id="node24" class="node"><title>23</title>
<g id="a_node24"><a xlink:title="23, diversity: 1, multiplicities: 25, labels: 0">
<ellipse fill="#fca082" stroke="black" cx="41.5963" cy="-666" rx="41.6928" ry="18"/>
<text text-anchor="middle" x="41.5963" y="-662.3" font-family="Times,serif" font-size="14.00">23 (1): 0</text>
</a>
</g>
</g>
<!-- 20&#45;&gt;23 -->
<g id="edge33" class="edge"><title>20&#45;&gt;23</title>
<path fill="none" stroke="black" d="M212.034,-726.062C177.198,-713.991 121.001,-694.517 82.7375,-681.257"/>
<polygon fill="black" stroke="black" points="83.532,-677.828 72.9372,-677.861 81.2399,-684.442 83.532,-677.828"/>
</g>
<!-- 25 -->
<g id="node26" class="node"><title>25</title>
<g id="a_node26"><a xlink:title="25, diversity: 1, multiplicities: 16, labels: 0">
<ellipse fill="#fca082" stroke="black" cx="142.596" cy="-666" rx="41.6928" ry="18"/>
<text text-anchor="middle" x="142.596" y="-662.3" font-family="Times,serif" font-size="14.00">25 (1): 0</text>
</a>
</g>
</g>
<!-- 20&#45;&gt;25 -->
<g id="edge2" class="edge"><title>20&#45;&gt;25</title>
<path fill="none" stroke="black" d="M222.177,-722.155C207.617,-712.064 188.165,-698.583 172.138,-687.474"/>
<polygon fill="black" stroke="black" points="173.851,-684.403 163.639,-681.584 169.864,-690.157 173.851,-684.403"/>
</g>
<!-- 28 -->
<g id="node29" class="node"><title>28</title>
<g id="a_node29"><a xlink:title="28, diversity: 1, multiplicities: 10, labels: 0">
<ellipse fill="#fcc4ad" stroke="black" cx="243.596" cy="-666" rx="41.6928" ry="18"/>
<text text-anchor="middle" x="243.596" y="-662.3" font-family="Times,serif" font-size="14.00">28 (1): 0</text>
</a>
</g>
</g>
<!-- 20&#45;&gt;28 -->
<g id="edge41" class="edge"><title>20&#45;&gt;28</title>
<path fill="none" stroke="black" d="M243.596,-719.697C243.596,-711.983 243.596,-702.712 243.596,-694.112"/>
<polygon fill="black" stroke="black" points="247.096,-694.104 243.596,-684.104 240.096,-694.104 247.096,-694.104"/>
</g>
<!-- 32 -->
<g id="node33" class="node"><title>32</title>
<g id="a_node33"><a xlink:title="32, diversity: 1, multiplicities: 1, labels: 0">
<ellipse fill="#fff5f0" stroke="black" cx="344.596" cy="-666" rx="41.6928" ry="18"/>
<text text-anchor="middle" x="344.596" y="-662.3" font-family="Times,serif" font-size="14.00">32 (1): 0</text>
</a>
</g>
</g>
<!-- 20&#45;&gt;32 -->
<g id="edge23" class="edge"><title>20&#45;&gt;32</title>
<path fill="none" stroke="black" d="M265.016,-722.155C279.575,-712.064 299.027,-698.583 315.055,-687.474"/>
<polygon fill="black" stroke="black" points="317.329,-690.157 323.554,-681.584 313.341,-684.403 317.329,-690.157"/>
</g>
<!-- 21 -->
<g id="node22" class="node"><title>21</title>
<g id="a_node22"><a xlink:title="21, diversity: 1, multiplicities: 10, labels: 0">
<ellipse fill="#fcc4ad" stroke="black" cx="594.596" cy="-594" rx="41.6928" ry="18"/>
<text text-anchor="middle" x="594.596" y="-590.3" font-family="Times,serif" font-size="14.00">21 (1): 0</text>
</a>
</g>
</g>
<!-- 22 -->
<g id="node23" class="node"><title>22</title>
<g id="a_node23"><a xlink:title="22, diversity: 1, multiplicities: 20, labels: 0">
<ellipse fill="#fca082" stroke="black" cx="368.596" cy="-594" rx="41.6928" ry="18"/>
<text text-anchor="middle" x="368.596" y="-590.3" font-family="Times,serif" font-size="14.00">22 (1): 0</text>
</a>
</g>
</g>
<!-- 24 -->
<g id="node25" class="node"><title>24</title>
<g id="a_node25"><a xlink:title="24, diversity: 2, multiplicities: 1,2, labels: 0">
<ellipse fill="#fee3d6" stroke="black" cx="493.596" cy="-738" rx="41.6928" ry="18"/>
<text text-anchor="middle" x="493.596" y="-734.3" font-family="Times,serif" font-size="14.00">24 (2): 0</text>
</a>
</g>
</g>
<!-- 31 -->
<g id="node32" class="node"><title>31</title>
<g id="a_node32"><a xlink:title="31, diversity: 1, multiplicities: 1, labels: 0">
<ellipse fill="#fff5f0" stroke="black" cx="493.596" cy="-666" rx="41.6928" ry="18"/>
<text text-anchor="middle" x="493.596" y="-662.3" font-family="Times,serif" font-size="14.00">31 (1): 0</text>
</a>
</g>
</g>
<!-- 24&#45;&gt;31 -->
<g id="edge9" class="edge"><title>24&#45;&gt;31</title>
<path fill="none" stroke="black" d="M493.596,-719.697C493.596,-711.983 493.596,-702.712 493.596,-694.112"/>
<polygon fill="black" stroke="black" points="497.096,-694.104 493.596,-684.104 490.096,-694.104 497.096,-694.104"/>
</g>
<!-- 26 -->
<g id="node27" class="node"><title>26</title>
<g id="a_node27"><a xlink:title="26, diversity: 1, multiplicities: 4, labels: 0">
<ellipse fill="#fee3d6" stroke="black" cx="543.596" cy="-810" rx="41.6928" ry="18"/>
<text text-anchor="middle" x="543.596" y="-806.3" font-family="Times,serif" font-size="14.00">26 (1): 0</text>
</a>
</g>
</g>
<!-- 26&#45;&gt;20 -->
<g id="edge11" class="edge"><title>26&#45;&gt;20</title>
<path fill="none" stroke="black" d="M507.707,-800.626C453.162,-787.899 349.421,-763.692 289.473,-749.705"/>
<polygon fill="black" stroke="black" points="290.06,-746.248 279.527,-747.384 288.47,-753.065 290.06,-746.248"/>
</g>
<!-- 26&#45;&gt;24 -->
<g id="edge1" class="edge"><title>26&#45;&gt;24</title>
<path fill="none" stroke="black" d="M531.747,-792.411C525.645,-783.868 518.081,-773.278 511.302,-763.787"/>
<polygon fill="black" stroke="black" points="514.021,-761.573 505.361,-755.47 508.325,-765.642 514.021,-761.573"/>
</g>
<!-- 27 -->
<g id="node28" class="node"><title>27</title>
<g id="a_node28"><a xlink:title="27, diversity: 1, multiplicities: 1, labels: 0">
<ellipse fill="#fff5f0" stroke="black" cx="594.596" cy="-738" rx="41.6928" ry="18"/>
<text text-anchor="middle" x="594.596" y="-734.3" font-family="Times,serif" font-size="14.00">27 (1): 0</text>
</a>
</g>
</g>
<!-- 26&#45;&gt;27 -->
<g id="edge35" class="edge"><title>26&#45;&gt;27</title>
<path fill="none" stroke="black" d="M555.683,-792.411C561.907,-783.868 569.622,-773.278 576.537,-763.787"/>
<polygon fill="black" stroke="black" points="579.537,-765.613 582.597,-755.47 573.879,-761.491 579.537,-765.613"/>
</g>
<!-- 33 -->
<g id="node34" class="node"><title>33</title>
<g id="a_node34"><a xlink:title="33, diversity: 1, multiplicities: 1, labels: 0">
<ellipse fill="#fff5f0" stroke="black" cx="695.596" cy="-738" rx="41.6928" ry="18"/>
<text text-anchor="middle" x="695.596" y="-734.3" font-family="Times,serif" font-size="14.00">33 (1): 0</text>
</a>
</g>
</g>
<!-- 26&#45;&gt;33 -->
<g id="edge20" class="edge"><title>26&#45;&gt;33</title>
<path fill="none" stroke="black" d="M571.122,-796.324C595.764,-784.975 632.075,-768.253 659.127,-755.795"/>
<polygon fill="black" stroke="black" points="660.656,-758.944 668.275,-751.582 657.728,-752.586 660.656,-758.944"/>
</g>
<!-- 29 -->
<g id="node30" class="node"><title>29</title>
<g id="a_node30"><a xlink:title="29, diversity: 1, multiplicities: 2, labels: 0">
<ellipse fill="#fee3d6" stroke="black" cx="594.596" cy="-666" rx="41.6928" ry="18"/>
<text text-anchor="middle" x="594.596" y="-662.3" font-family="Times,serif" font-size="14.00">29 (1): 0</text>
</a>
</g>
</g>
<!-- 27&#45;&gt;29 -->
<g id="edge10" class="edge"><title>27&#45;&gt;29</title>
<path fill="none" stroke="black" d="M594.596,-719.697C594.596,-711.983 594.596,-702.712 594.596,-694.112"/>
<polygon fill="black" stroke="black" points="598.096,-694.104 594.596,-684.104 591.096,-694.104 598.096,-694.104"/>
</g>
<!-- 29&#45;&gt;21 -->
<g id="edge21" class="edge"><title>29&#45;&gt;21</title>
<path fill="none" stroke="black" d="M594.596,-647.697C594.596,-639.983 594.596,-630.712 594.596,-622.112"/>
<polygon fill="black" stroke="black" points="598.096,-622.104 594.596,-612.104 591.096,-622.104 598.096,-622.104"/>
</g>
<!-- 30 -->
<g id="node31" class="node"><title>30</title>
<g id="a_node31"><a xlink:title="30, diversity: 1, multiplicities: 1, labels: 0">
<ellipse fill="#fff5f0" stroke="black" cx="493.596" cy="-594" rx="41.6928" ry="18"/>
<text text-anchor="middle" x="493.596" y="-590.3" font-family="Times,serif" font-size="14.00">30 (1): 0</text>
</a>
</g>
</g>
<!-- 30&#45;&gt;15 -->
<g id="edge27" class="edge"><title>30&#45;&gt;15</title>
<path fill="none" stroke="black" d="M493.596,-575.697C493.596,-567.983 493.596,-558.712 493.596,-550.112"/>
<polygon fill="black" stroke="black" points="497.096,-550.104 493.596,-540.104 490.096,-550.104 497.096,-550.104"/>
</g>
<!-- 31&#45;&gt;30 -->
<g id="edge8" class="edge"><title>31&#45;&gt;30</title>
<path fill="none" stroke="black" d="M493.596,-647.697C493.596,-639.983 493.596,-630.712 493.596,-622.112"/>
<polygon fill="black" stroke="black" points="497.096,-622.104 493.596,-612.104 490.096,-622.104 497.096,-622.104"/>
</g>
<!-- 32&#45;&gt;0 -->
<g id="edge34" class="edge"><title>32&#45;&gt;0</title>
<path fill="none" stroke="black" d="M315.856,-652.807C288.112,-641.037 246.001,-623.172 215.943,-610.42"/>
<polygon fill="black" stroke="black" points="217.213,-607.157 206.641,-606.473 214.48,-613.601 217.213,-607.157"/>
</g>
<!-- 32&#45;&gt;3 -->
<g id="edge16" class="edge"><title>32&#45;&gt;3</title>
<path fill="none" stroke="black" d="M328.031,-649.116C318.283,-639.768 305.797,-627.795 295.049,-617.489"/>
<polygon fill="black" stroke="black" points="297.234,-614.735 287.594,-610.34 292.389,-619.788 297.234,-614.735"/>
</g>
<!-- 32&#45;&gt;22 -->
<g id="edge32" class="edge"><title>32&#45;&gt;22</title>
<path fill="none" stroke="black" d="M350.406,-648.055C353.107,-640.176 356.385,-630.617 359.41,-621.794"/>
<polygon fill="black" stroke="black" points="362.741,-622.87 362.673,-612.275 356.119,-620.6 362.741,-622.87"/>
</g>
<!-- 33&#45;&gt;1 -->
<g id="edge29" class="edge"><title>33&#45;&gt;1</title>
<path fill="none" stroke="black" d="M695.596,-719.697C695.596,-711.983 695.596,-702.712 695.596,-694.112"/>
<polygon fill="black" stroke="black" points="699.096,-694.104 695.596,-684.104 692.096,-694.104 699.096,-694.104"/>
</g>
<!-- 35 -->
<g id="node36" class="node"><title>35</title>
<g id="a_node36"><a xlink:title="35, diversity: 1, multiplicities: 1, labels: 0">
<ellipse fill="#fff5f0" stroke="black" cx="769.596" cy="-234" rx="41.6928" ry="18"/>
<text text-anchor="middle" x="769.596" y="-230.3" font-family="Times,serif" font-size="14.00">35 (1): 0</text>
</a>
</g>
</g>
<!-- 39 -->
<g id="node40" class="node"><title>39</title>
<g id="a_node40"><a xlink:title="39, diversity: 1, multiplicities: 1, labels: 0">
<ellipse fill="#fff5f0" stroke="black" cx="769.596" cy="-162" rx="41.6928" ry="18"/>
<text text-anchor="middle" x="769.596" y="-158.3" font-family="Times,serif" font-size="14.00">39 (1): 0</text>
</a>
</g>
</g>
<!-- 35&#45;&gt;39 -->
<g id="edge37" class="edge"><title>35&#45;&gt;39</title>
<path fill="none" stroke="black" d="M769.596,-215.697C769.596,-207.983 769.596,-198.712 769.596,-190.112"/>
<polygon fill="black" stroke="black" points="773.096,-190.104 769.596,-180.104 766.096,-190.104 773.096,-190.104"/>
</g>
<!-- 36 -->
<g id="node37" class="node"><title>36</title>
<g id="a_node37"><a xlink:title="36, diversity: 1, multiplicities: 6, labels: 0">
<ellipse fill="#fcc4ad" stroke="black" cx="671.596" cy="-378" rx="41.6928" ry="18"/>
<text text-anchor="middle" x="671.596" y="-374.3" font-family="Times,serif" font-size="14.00">36 (1): 0</text>
</a>
</g>
</g>
<!-- 36&#45;&gt;2 -->
<g id="edge42" class="edge"><title>36&#45;&gt;2</title>
<path fill="none" stroke="black" d="M671.102,-359.697C670.882,-351.983 670.617,-342.712 670.371,-334.112"/>
<polygon fill="black" stroke="black" points="673.869,-334 670.085,-324.104 666.872,-334.2 673.869,-334"/>
</g>
<!-- 37 -->
<g id="node38" class="node"><title>37</title>
<g id="a_node38"><a xlink:title="37, diversity: 1, multiplicities: 1, labels: 0">
<ellipse fill="#fff5f0" stroke="black" cx="768.596" cy="-306" rx="41.6928" ry="18"/>
<text text-anchor="middle" x="768.596" y="-302.3" font-family="Times,serif" font-size="14.00">37 (1): 0</text>
</a>
</g>
</g>
<!-- 36&#45;&gt;37 -->
<g id="edge4" class="edge"><title>36&#45;&gt;37</title>
<path fill="none" stroke="black" d="M692.168,-362.155C706.057,-352.132 724.581,-338.763 739.914,-327.698"/>
<polygon fill="black" stroke="black" points="741.994,-330.514 748.055,-321.824 737.898,-324.838 741.994,-330.514"/>
</g>
<!-- 37&#45;&gt;35 -->
<g id="edge36" class="edge"><title>37&#45;&gt;35</title>
<path fill="none" stroke="black" d="M768.844,-287.697C768.954,-279.983 769.086,-270.712 769.209,-262.112"/>
<polygon fill="black" stroke="black" points="772.709,-262.153 769.352,-252.104 765.709,-262.053 772.709,-262.153"/>
</g>
<!-- 38&#45;&gt;36 -->
<g id="edge3" class="edge"><title>38&#45;&gt;36</title>
<path fill="none" stroke="black" d="M671.596,-431.697C671.596,-423.983 671.596,-414.712 671.596,-406.112"/>
<polygon fill="black" stroke="black" points="675.096,-406.104 671.596,-396.104 668.096,-406.104 675.096,-406.104"/>
</g>
<!-- 39&#45;&gt;12 -->
<g id="edge39" class="edge"><title>39&#45;&gt;12</title>
<path fill="none" stroke="black" d="M769.596,-143.697C769.596,-135.983 769.596,-126.712 769.596,-118.112"/>
<polygon fill="black" stroke="black" points="773.096,-118.104 769.596,-108.104 766.096,-118.104 773.096,-118.104"/>
</g>
<!-- 41 -->
<g id="node42" class="node"><title>41</title>
<g id="a_node42"><a xlink:title="41, diversity: 1, multiplicities: 8, labels: 0">
<ellipse fill="#fcc4ad" stroke="black" cx="772.596" cy="-378" rx="41.6928" ry="18"/>
<text text-anchor="middle" x="772.596" y="-374.3" font-family="Times,serif" font-size="14.00">41 (1): 0</text>
</a>
</g>
</g>
<!-- 42&#45;&gt;41 -->
<g id="edge18" class="edge"><title>42&#45;&gt;41</title>
<path fill="none" stroke="black" d="M772.596,-431.697C772.596,-423.983 772.596,-414.712 772.596,-406.112"/>
<polygon fill="black" stroke="black" points="776.096,-406.104 772.596,-396.104 769.096,-406.104 776.096,-406.104"/>
</g>
</g>
</svg>
