<?xml version="1.0" encoding="UTF-8" standalone="no"?>
<!DOCTYPE svg PUBLIC "-//W3C//DTD SVG 1.1//EN"
 "http://www.w3.org/Graphics/SVG/1.1/DTD/svg11.dtd">
<!-- Generated by graphviz version 2.38.0 (20140413.2041)
 -->
<!-- Title: %3 Pages: 1 -->
<svg width="1830pt" height="620pt"
 viewBox="0.00 0.00 1830.19 620.00" xmlns="http://www.w3.org/2000/svg" xmlns:xlink="http://www.w3.org/1999/xlink">
<g id="graph0" class="graph" transform="scale(1 1) rotate(0) translate(4 616)">
<title>%3</title>
<polygon fill="white" stroke="none" points="-4,4 -4,-616 1826.19,-616 1826.19,4 -4,4"/>
<!-- 0 -->
<g id="node1" class="node"><title>0</title>
<g id="a_node1"><a xlink:title="0, diversity: 1, multiplicities: 9, labels: 0">
<ellipse fill="#fcc4ad" stroke="black" cx="239.596" cy="-90" rx="37.0935" ry="18"/>
<text text-anchor="middle" x="239.596" y="-86.3" font-family="Times,serif" font-size="14.00">0 (1): 0</text>
</a>
</g>
</g>
<!-- 1 -->
<g id="node2" class="node"><title>1</title>
<g id="a_node2"><a xlink:title="1, diversity: 2, multiplicities: 23,138, labels: 0">
<ellipse fill="#fb7c5c" stroke="black" cx="517.596" cy="-162" rx="37.0935" ry="18"/>
<text text-anchor="middle" x="517.596" y="-158.3" font-family="Times,serif" font-size="14.00">1 (2): 0</text>
</a>
</g>
</g>
<!-- 1&#45;&gt;0 -->
<g id="edge42" class="edge"><title>1&#45;&gt;0</title>
<path fill="none" stroke="black" d="M483.428,-154.635C437.862,-145.819 354.894,-128.626 285.596,-108 282.842,-107.18 280.015,-106.281 277.181,-105.338"/>
<polygon fill="black" stroke="black" points="278.216,-101.992 267.621,-102.012 275.916,-108.604 278.216,-101.992"/>
</g>
<!-- 2 -->
<g id="node3" class="node"><title>2</title>
<g id="a_node3"><a xlink:title="2, diversity: 1, multiplicities: 161, labels: 0">
<ellipse fill="#fb7c5c" stroke="black" cx="1679.6" cy="-90" rx="37.0935" ry="18"/>
<text text-anchor="middle" x="1679.6" y="-86.3" font-family="Times,serif" font-size="14.00">2 (1): 0</text>
</a>
</g>
</g>
<!-- 3 -->
<g id="node4" class="node"><title>3</title>
<g id="a_node4"><a xlink:title="3, diversity: 2, multiplicities: 11,18, labels: 0">
<ellipse fill="#fca082" stroke="black" cx="1481.6" cy="-162" rx="37.0935" ry="18"/>
<text text-anchor="middle" x="1481.6" y="-158.3" font-family="Times,serif" font-size="14.00">3 (2): 0</text>
</a>
</g>
</g>
<!-- 34 -->
<g id="node35" class="node"><title>34</title>
<g id="a_node35"><a xlink:title="34, diversity: 1, multiplicities: 7, labels: 0">
<ellipse fill="#fcc4ad" stroke="black" cx="1479.6" cy="-90" rx="41.6928" ry="18"/>
<text text-anchor="middle" x="1479.6" y="-86.3" font-family="Times,serif" font-size="14.00">34 (1): 0</text>
</a>
</g>
</g>
<!-- 3&#45;&gt;34 -->
<g id="edge19" class="edge"><title>3&#45;&gt;34</title>
<path fill="none" stroke="black" d="M1481.1,-143.697C1480.88,-135.983 1480.62,-126.712 1480.37,-118.112"/>
<polygon fill="black" stroke="black" points="1483.87,-118 1480.09,-108.104 1476.87,-118.2 1483.87,-118"/>
</g>
<!-- 4 -->
<g id="node5" class="node"><title>4</title>
<g id="a_node5"><a xlink:title="4, diversity: 1, multiplicities: 206, labels: 0">
<ellipse fill="#f6553c" stroke="black" cx="41.5963" cy="-18" rx="37.0935" ry="18"/>
<text text-anchor="middle" x="41.5963" y="-14.3" font-family="Times,serif" font-size="14.00">4 (1): 0</text>
</a>
</g>
</g>
<!-- 5 -->
<g id="node6" class="node"><title>5</title>
<g id="a_node6"><a xlink:title="5, diversity: 1, multiplicities: 1, labels: 0">
<ellipse fill="#fff5f0" stroke="black" cx="1408.6" cy="-234" rx="37.0935" ry="18"/>
<text text-anchor="middle" x="1408.6" y="-230.3" font-family="Times,serif" font-size="14.00">5 (1): 0</text>
</a>
</g>
</g>
<!-- 30 -->
<g id="node31" class="node"><title>30</title>
<g id="a_node31"><a xlink:title="30, diversity: 1, multiplicities: 5, labels: 0">
<ellipse fill="#fee3d6" stroke="black" cx="1384.6" cy="-162" rx="41.6928" ry="18"/>
<text text-anchor="middle" x="1384.6" y="-158.3" font-family="Times,serif" font-size="14.00">30 (1): 0</text>
</a>
</g>
</g>
<!-- 5&#45;&gt;30 -->
<g id="edge18" class="edge"><title>5&#45;&gt;30</title>
<path fill="none" stroke="black" d="M1402.79,-216.055C1400.09,-208.176 1396.81,-198.617 1393.78,-189.794"/>
<polygon fill="black" stroke="black" points="1397.07,-188.6 1390.52,-180.275 1390.45,-190.87 1397.07,-188.6"/>
</g>
<!-- 6 -->
<g id="node7" class="node"><title>6</title>
<g id="a_node7"><a xlink:title="6, diversity: 1, multiplicities: 129, labels: 0">
<ellipse fill="#fb7c5c" stroke="black" cx="1031.6" cy="-378" rx="37.0935" ry="18"/>
<text text-anchor="middle" x="1031.6" y="-374.3" font-family="Times,serif" font-size="14.00">6 (1): 0</text>
</a>
</g>
</g>
<!-- 10 -->
<g id="node11" class="node"><title>10</title>
<g id="a_node11"><a xlink:title="10, diversity: 3, multiplicities: 1,38,104, labels: 0">
<ellipse fill="#fb7c5c" stroke="black" cx="784.596" cy="-306" rx="41.6928" ry="18"/>
<text text-anchor="middle" x="784.596" y="-302.3" font-family="Times,serif" font-size="14.00">10 (3): 0</text>
</a>
</g>
</g>
<!-- 6&#45;&gt;10 -->
<g id="edge21" class="edge"><title>6&#45;&gt;10</title>
<path fill="none" stroke="black" d="M1000.31,-368.134C956.714,-355.778 877.491,-333.326 828.141,-319.341"/>
<polygon fill="black" stroke="black" points="828.964,-315.936 818.388,-316.577 827.055,-322.671 828.964,-315.936"/>
</g>
<!-- 22 -->
<g id="node23" class="node"><title>22</title>
<g id="a_node23"><a xlink:title="22, diversity: 1, multiplicities: 15, labels: 0">
<ellipse fill="#fca082" stroke="black" cx="930.596" cy="-306" rx="41.6928" ry="18"/>
<text text-anchor="middle" x="930.596" y="-302.3" font-family="Times,serif" font-size="14.00">22 (1): 0</text>
</a>
</g>
</g>
<!-- 6&#45;&gt;22 -->
<g id="edge24" class="edge"><title>6&#45;&gt;22</title>
<path fill="none" stroke="black" d="M1011.16,-362.834C996.567,-352.722 976.713,-338.962 960.365,-327.632"/>
<polygon fill="black" stroke="black" points="961.913,-324.446 951.7,-321.626 957.925,-330.199 961.913,-324.446"/>
</g>
<!-- 24 -->
<g id="node25" class="node"><title>24</title>
<g id="a_node25"><a xlink:title="24, diversity: 1, multiplicities: 18, labels: 0">
<ellipse fill="#fca082" stroke="black" cx="1031.6" cy="-306" rx="41.6928" ry="18"/>
<text text-anchor="middle" x="1031.6" y="-302.3" font-family="Times,serif" font-size="14.00">24 (1): 0</text>
</a>
</g>
</g>
<!-- 6&#45;&gt;24 -->
<g id="edge11" class="edge"><title>6&#45;&gt;24</title>
<path fill="none" stroke="black" d="M1031.6,-359.697C1031.6,-351.983 1031.6,-342.712 1031.6,-334.112"/>
<polygon fill="black" stroke="black" points="1035.1,-334.104 1031.6,-324.104 1028.1,-334.104 1035.1,-334.104"/>
</g>
<!-- 32 -->
<g id="node33" class="node"><title>32</title>
<g id="a_node33"><a xlink:title="32, diversity: 1, multiplicities: 4, labels: 0">
<ellipse fill="#fee3d6" stroke="black" cx="1132.6" cy="-306" rx="41.6928" ry="18"/>
<text text-anchor="middle" x="1132.6" y="-302.3" font-family="Times,serif" font-size="14.00">32 (1): 0</text>
</a>
</g>
</g>
<!-- 6&#45;&gt;32 -->
<g id="edge22" class="edge"><title>6&#45;&gt;32</title>
<path fill="none" stroke="black" d="M1052.04,-362.834C1066.63,-352.722 1086.48,-338.962 1102.83,-327.632"/>
<polygon fill="black" stroke="black" points="1105.27,-330.199 1111.49,-321.626 1101.28,-324.446 1105.27,-330.199"/>
</g>
<!-- 53 -->
<g id="node54" class="node"><title>53</title>
<g id="a_node54"><a xlink:title="53, diversity: 1, multiplicities: 3, labels: 0">
<ellipse fill="#fee3d6" stroke="black" cx="1233.6" cy="-306" rx="41.6928" ry="18"/>
<text text-anchor="middle" x="1233.6" y="-302.3" font-family="Times,serif" font-size="14.00">53 (1): 0</text>
</a>
</g>
</g>
<!-- 6&#45;&gt;53 -->
<g id="edge53" class="edge"><title>6&#45;&gt;53</title>
<path fill="none" stroke="black" d="M1060.97,-366.821C1095.67,-354.796 1153.61,-334.718 1192.69,-321.176"/>
<polygon fill="black" stroke="black" points="1193.89,-324.464 1202.19,-317.882 1191.6,-317.85 1193.89,-324.464"/>
</g>
<!-- 7 -->
<g id="node8" class="node"><title>7</title>
<g id="a_node8"><a xlink:title="7, diversity: 1, multiplicities: 30, labels: 0">
<ellipse fill="#fca082" stroke="black" cx="938.596" cy="-234" rx="37.0935" ry="18"/>
<text text-anchor="middle" x="938.596" y="-230.3" font-family="Times,serif" font-size="14.00">7 (1): 0</text>
</a>
</g>
</g>
<!-- 8 -->
<g id="node9" class="node"><title>8</title>
<g id="a_node9"><a xlink:title="8, diversity: 2, multiplicities: 24,70, labels: 0">
<ellipse fill="#fca082" stroke="black" cx="1233.6" cy="-234" rx="37.0935" ry="18"/>
<text text-anchor="middle" x="1233.6" y="-230.3" font-family="Times,serif" font-size="14.00">8 (2): 0</text>
</a>
</g>
</g>
<!-- 11 -->
<g id="node12" class="node"><title>11</title>
<g id="a_node12"><a xlink:title="11, diversity: 1, multiplicities: 5, labels: 0">
<ellipse fill="#fee3d6" stroke="black" cx="1081.6" cy="-162" rx="41.6928" ry="18"/>
<text text-anchor="middle" x="1081.6" y="-158.3" font-family="Times,serif" font-size="14.00">11 (1): 0</text>
</a>
</g>
</g>
<!-- 8&#45;&gt;11 -->
<g id="edge34" class="edge"><title>8&#45;&gt;11</title>
<path fill="none" stroke="black" d="M1207.47,-220.967C1182.87,-209.637 1145.78,-192.56 1118.23,-179.872"/>
<polygon fill="black" stroke="black" points="1119.47,-176.588 1108.92,-175.584 1116.54,-182.946 1119.47,-176.588"/>
</g>
<!-- 27 -->
<g id="node28" class="node"><title>27</title>
<g id="a_node28"><a xlink:title="27, diversity: 1, multiplicities: 26, labels: 0">
<ellipse fill="#fca082" stroke="black" cx="1182.6" cy="-162" rx="41.6928" ry="18"/>
<text text-anchor="middle" x="1182.6" y="-158.3" font-family="Times,serif" font-size="14.00">27 (1): 0</text>
</a>
</g>
</g>
<!-- 8&#45;&gt;27 -->
<g id="edge59" class="edge"><title>8&#45;&gt;27</title>
<path fill="none" stroke="black" d="M1221.77,-216.765C1215.49,-208.143 1207.63,-197.365 1200.61,-187.727"/>
<polygon fill="black" stroke="black" points="1203.43,-185.655 1194.71,-179.633 1197.77,-189.777 1203.43,-185.655"/>
</g>
<!-- 49 -->
<g id="node50" class="node"><title>49</title>
<g id="a_node50"><a xlink:title="49, diversity: 1, multiplicities: 5, labels: 0">
<ellipse fill="#fee3d6" stroke="black" cx="1283.6" cy="-162" rx="41.6928" ry="18"/>
<text text-anchor="middle" x="1283.6" y="-158.3" font-family="Times,serif" font-size="14.00">49 (1): 0</text>
</a>
</g>
</g>
<!-- 8&#45;&gt;49 -->
<g id="edge58" class="edge"><title>8&#45;&gt;49</title>
<path fill="none" stroke="black" d="M1245.19,-216.765C1251.29,-208.23 1258.89,-197.582 1265.73,-188.019"/>
<polygon fill="black" stroke="black" points="1268.75,-189.805 1271.72,-179.633 1263.05,-185.736 1268.75,-189.805"/>
</g>
<!-- 9 -->
<g id="node10" class="node"><title>9</title>
<g id="a_node10"><a xlink:title="9, diversity: 1, multiplicities: 84, labels: 0">
<ellipse fill="#fca082" stroke="black" cx="942.596" cy="-18" rx="37.0935" ry="18"/>
<text text-anchor="middle" x="942.596" y="-14.3" font-family="Times,serif" font-size="14.00">9 (1): 0</text>
</a>
</g>
</g>
<!-- 17 -->
<g id="node18" class="node"><title>17</title>
<g id="a_node18"><a xlink:title="17, diversity: 3, multiplicities: 1,6,62, labels: 0">
<ellipse fill="#fca082" stroke="black" cx="639.596" cy="-234" rx="41.6928" ry="18"/>
<text text-anchor="middle" x="639.596" y="-230.3" font-family="Times,serif" font-size="14.00">17 (3): 0</text>
</a>
</g>
</g>
<!-- 10&#45;&gt;17 -->
<g id="edge3" class="edge"><title>10&#45;&gt;17</title>
<path fill="none" stroke="black" d="M757.663,-291.998C734.569,-280.849 701.101,-264.692 675.691,-252.425"/>
<polygon fill="black" stroke="black" points="676.913,-249.128 666.386,-247.933 673.87,-255.432 676.913,-249.128"/>
</g>
<!-- 35 -->
<g id="node36" class="node"><title>35</title>
<g id="a_node36"><a xlink:title="35, diversity: 1, multiplicities: 1, labels: 0">
<ellipse fill="#fff5f0" stroke="black" cx="740.596" cy="-234" rx="41.6928" ry="18"/>
<text text-anchor="middle" x="740.596" y="-230.3" font-family="Times,serif" font-size="14.00">35 (1): 0</text>
</a>
</g>
</g>
<!-- 10&#45;&gt;35 -->
<g id="edge27" class="edge"><title>10&#45;&gt;35</title>
<path fill="none" stroke="black" d="M774.169,-288.411C768.854,-279.955 762.278,-269.494 756.36,-260.078"/>
<polygon fill="black" stroke="black" points="759.234,-258.074 750.949,-251.47 753.307,-261.799 759.234,-258.074"/>
</g>
<!-- 42 -->
<g id="node43" class="node"><title>42</title>
<g id="a_node43"><a xlink:title="42, diversity: 1, multiplicities: 8, labels: 0">
<ellipse fill="#fcc4ad" stroke="black" cx="841.596" cy="-234" rx="41.6928" ry="18"/>
<text text-anchor="middle" x="841.596" y="-230.3" font-family="Times,serif" font-size="14.00">42 (1): 0</text>
</a>
</g>
</g>
<!-- 10&#45;&gt;42 -->
<g id="edge4" class="edge"><title>10&#45;&gt;42</title>
<path fill="none" stroke="black" d="M797.817,-288.765C805.011,-279.93 814.049,-268.83 822.042,-259.014"/>
<polygon fill="black" stroke="black" points="824.848,-261.112 828.448,-251.147 819.419,-256.692 824.848,-261.112"/>
</g>
<!-- 12 -->
<g id="node13" class="node"><title>12</title>
<g id="a_node13"><a xlink:title="12, diversity: 1, multiplicities: 10, labels: 0">
<ellipse fill="#fcc4ad" stroke="black" cx="336.596" cy="-90" rx="41.6928" ry="18"/>
<text text-anchor="middle" x="336.596" y="-86.3" font-family="Times,serif" font-size="14.00">12 (1): 0</text>
</a>
</g>
</g>
<!-- 13 -->
<g id="node14" class="node"><title>13</title>
<g id="a_node14"><a xlink:title="13, diversity: 1, multiplicities: 43, labels: 0">
<ellipse fill="#fca082" stroke="black" cx="1780.6" cy="-162" rx="41.6928" ry="18"/>
<text text-anchor="middle" x="1780.6" y="-158.3" font-family="Times,serif" font-size="14.00">13 (1): 0</text>
</a>
</g>
</g>
<!-- 14 -->
<g id="node15" class="node"><title>14</title>
<g id="a_node15"><a xlink:title="14, diversity: 1, multiplicities: 23, labels: 0">
<ellipse fill="#fca082" stroke="black" cx="437.596" cy="-90" rx="41.6928" ry="18"/>
<text text-anchor="middle" x="437.596" y="-86.3" font-family="Times,serif" font-size="14.00">14 (1): 0</text>
</a>
</g>
</g>
<!-- 15 -->
<g id="node16" class="node"><title>15</title>
<g id="a_node16"><a xlink:title="15, diversity: 1, multiplicities: 284, labels: 0">
<ellipse fill="#f6553c" stroke="black" cx="41.5963" cy="-90" rx="41.6928" ry="18"/>
<text text-anchor="middle" x="41.5963" y="-86.3" font-family="Times,serif" font-size="14.00">15 (1): 0</text>
</a>
</g>
</g>
<!-- 15&#45;&gt;4 -->
<g id="edge25" class="edge"><title>15&#45;&gt;4</title>
<path fill="none" stroke="black" d="M41.5963,-71.6966C41.5963,-63.9827 41.5963,-54.7125 41.5963,-46.1124"/>
<polygon fill="black" stroke="black" points="45.0964,-46.1043 41.5963,-36.1043 38.0964,-46.1044 45.0964,-46.1043"/>
</g>
<!-- 16 -->
<g id="node17" class="node"><title>16</title>
<g id="a_node17"><a xlink:title="16, diversity: 2, multiplicities: 1,10, labels: 0">
<ellipse fill="#fca082" stroke="black" cx="639.596" cy="-18" rx="41.6928" ry="18"/>
<text text-anchor="middle" x="639.596" y="-14.3" font-family="Times,serif" font-size="14.00">16 (2): 0</text>
</a>
</g>
</g>
<!-- 17&#45;&gt;1 -->
<g id="edge36" class="edge"><title>17&#45;&gt;1</title>
<path fill="none" stroke="black" d="M615.493,-219.17C596.62,-208.341 570.199,-193.182 549.561,-181.34"/>
<polygon fill="black" stroke="black" points="551.237,-178.267 540.822,-176.326 547.754,-184.339 551.237,-178.267"/>
</g>
<!-- 18 -->
<g id="node19" class="node"><title>18</title>
<g id="a_node19"><a xlink:title="18, diversity: 4, multiplicities: 1,1,26,35, labels: 0">
<ellipse fill="#fca082" stroke="black" cx="639.596" cy="-162" rx="41.6928" ry="18"/>
<text text-anchor="middle" x="639.596" y="-158.3" font-family="Times,serif" font-size="14.00">18 (4): 0</text>
</a>
</g>
</g>
<!-- 17&#45;&gt;18 -->
<g id="edge47" class="edge"><title>17&#45;&gt;18</title>
<path fill="none" stroke="black" d="M639.596,-215.697C639.596,-207.983 639.596,-198.712 639.596,-190.112"/>
<polygon fill="black" stroke="black" points="643.096,-190.104 639.596,-180.104 636.096,-190.104 643.096,-190.104"/>
</g>
<!-- 50 -->
<g id="node51" class="node"><title>50</title>
<g id="a_node51"><a xlink:title="50, diversity: 1, multiplicities: 2, labels: 0">
<ellipse fill="#fee3d6" stroke="black" cx="740.596" cy="-162" rx="41.6928" ry="18"/>
<text text-anchor="middle" x="740.596" y="-158.3" font-family="Times,serif" font-size="14.00">50 (1): 0</text>
</a>
</g>
</g>
<!-- 17&#45;&gt;50 -->
<g id="edge30" class="edge"><title>17&#45;&gt;50</title>
<path fill="none" stroke="black" d="M661.016,-218.155C675.575,-208.064 695.027,-194.583 711.055,-183.474"/>
<polygon fill="black" stroke="black" points="713.329,-186.157 719.554,-177.584 709.341,-180.403 713.329,-186.157"/>
</g>
<!-- 18&#45;&gt;12 -->
<g id="edge20" class="edge"><title>18&#45;&gt;12</title>
<path fill="none" stroke="black" d="M603.673,-152.814C591.018,-149.971 576.687,-146.795 563.596,-144 485.089,-127.237 464.088,-128.963 386.596,-108 383.454,-107.15 380.222,-106.209 376.986,-105.218"/>
<polygon fill="black" stroke="black" points="377.938,-101.848 367.347,-102.139 375.808,-108.516 377.938,-101.848"/>
</g>
<!-- 18&#45;&gt;14 -->
<g id="edge1" class="edge"><title>18&#45;&gt;14</title>
<path fill="none" stroke="black" d="M608.034,-150.062C573.198,-137.991 517.001,-118.517 478.737,-105.257"/>
<polygon fill="black" stroke="black" points="479.532,-101.828 468.937,-101.861 477.24,-108.442 479.532,-101.828"/>
</g>
<!-- 28 -->
<g id="node29" class="node"><title>28</title>
<g id="a_node29"><a xlink:title="28, diversity: 2, multiplicities: 8,17, labels: 0">
<ellipse fill="#fca082" stroke="black" cx="538.596" cy="-90" rx="41.6928" ry="18"/>
<text text-anchor="middle" x="538.596" y="-86.3" font-family="Times,serif" font-size="14.00">28 (2): 0</text>
</a>
</g>
</g>
<!-- 18&#45;&gt;28 -->
<g id="edge39" class="edge"><title>18&#45;&gt;28</title>
<path fill="none" stroke="black" d="M618.177,-146.155C603.617,-136.064 584.165,-122.583 568.138,-111.474"/>
<polygon fill="black" stroke="black" points="569.851,-108.403 559.639,-105.584 565.864,-114.157 569.851,-108.403"/>
</g>
<!-- 36 -->
<g id="node37" class="node"><title>36</title>
<g id="a_node37"><a xlink:title="36, diversity: 1, multiplicities: 3, labels: 0">
<ellipse fill="#fee3d6" stroke="black" cx="639.596" cy="-90" rx="41.6928" ry="18"/>
<text text-anchor="middle" x="639.596" y="-86.3" font-family="Times,serif" font-size="14.00">36 (1): 0</text>
</a>
</g>
</g>
<!-- 18&#45;&gt;36 -->
<g id="edge52" class="edge"><title>18&#45;&gt;36</title>
<path fill="none" stroke="black" d="M639.596,-143.697C639.596,-135.983 639.596,-126.712 639.596,-118.112"/>
<polygon fill="black" stroke="black" points="643.096,-118.104 639.596,-108.104 636.096,-118.104 643.096,-118.104"/>
</g>
<!-- 43 -->
<g id="node44" class="node"><title>43</title>
<g id="a_node44"><a xlink:title="43, diversity: 1, multiplicities: 6, labels: 0">
<ellipse fill="#fcc4ad" stroke="black" cx="740.596" cy="-90" rx="41.6928" ry="18"/>
<text text-anchor="middle" x="740.596" y="-86.3" font-family="Times,serif" font-size="14.00">43 (1): 0</text>
</a>
</g>
</g>
<!-- 18&#45;&gt;43 -->
<g id="edge44" class="edge"><title>18&#45;&gt;43</title>
<path fill="none" stroke="black" d="M661.016,-146.155C675.575,-136.064 695.027,-122.583 711.055,-111.474"/>
<polygon fill="black" stroke="black" points="713.329,-114.157 719.554,-105.584 709.341,-108.403 713.329,-114.157"/>
</g>
<!-- 44 -->
<g id="node45" class="node"><title>44</title>
<g id="a_node45"><a xlink:title="44, diversity: 1, multiplicities: 2, labels: 0">
<ellipse fill="#fee3d6" stroke="black" cx="841.596" cy="-90" rx="41.6928" ry="18"/>
<text text-anchor="middle" x="841.596" y="-86.3" font-family="Times,serif" font-size="14.00">44 (1): 0</text>
</a>
</g>
</g>
<!-- 18&#45;&gt;44 -->
<g id="edge2" class="edge"><title>18&#45;&gt;44</title>
<path fill="none" stroke="black" d="M671.159,-150.062C705.995,-137.991 762.191,-118.517 800.455,-105.257"/>
<polygon fill="black" stroke="black" points="801.953,-108.442 810.255,-101.861 799.661,-101.828 801.953,-108.442"/>
</g>
<!-- 51 -->
<g id="node52" class="node"><title>51</title>
<g id="a_node52"><a xlink:title="51, diversity: 1, multiplicities: 1, labels: 0">
<ellipse fill="#fff5f0" stroke="black" cx="942.596" cy="-90" rx="41.6928" ry="18"/>
<text text-anchor="middle" x="942.596" y="-86.3" font-family="Times,serif" font-size="14.00">51 (1): 0</text>
</a>
</g>
</g>
<!-- 18&#45;&gt;51 -->
<g id="edge55" class="edge"><title>18&#45;&gt;51</title>
<path fill="none" stroke="black" d="M670.314,-149.737C676.638,-147.65 683.292,-145.621 689.596,-144 778.341,-121.186 803.852,-130.814 892.596,-108 895.749,-107.19 898.988,-106.277 902.23,-105.306"/>
<polygon fill="black" stroke="black" points="903.394,-108.609 911.878,-102.263 901.289,-101.933 903.394,-108.609"/>
</g>
<!-- 52 -->
<g id="node53" class="node"><title>52</title>
<g id="a_node53"><a xlink:title="52, diversity: 1, multiplicities: 11, labels: 0">
<ellipse fill="#fca082" stroke="black" cx="1043.6" cy="-90" rx="41.6928" ry="18"/>
<text text-anchor="middle" x="1043.6" y="-86.3" font-family="Times,serif" font-size="14.00">52 (1): 0</text>
</a>
</g>
</g>
<!-- 18&#45;&gt;52 -->
<g id="edge15" class="edge"><title>18&#45;&gt;52</title>
<path fill="none" stroke="black" d="M669.978,-149.538C676.386,-147.442 683.158,-145.459 689.596,-144 822.288,-113.936 860.904,-138.064 993.596,-108 996.815,-107.271 1000.12,-106.41 1003.42,-105.47"/>
<polygon fill="black" stroke="black" points="1004.68,-108.743 1013.21,-102.462 1002.63,-102.051 1004.68,-108.743"/>
</g>
<!-- 19 -->
<g id="node20" class="node"><title>19</title>
<g id="a_node20"><a xlink:title="19, diversity: 1, multiplicities: 37, labels: 0">
<ellipse fill="#fca082" stroke="black" cx="1144.6" cy="-90" rx="41.6928" ry="18"/>
<text text-anchor="middle" x="1144.6" y="-86.3" font-family="Times,serif" font-size="14.00">19 (1): 0</text>
</a>
</g>
</g>
<!-- 20 -->
<g id="node21" class="node"><title>20</title>
<g id="a_node21"><a xlink:title="20, diversity: 1, multiplicities: 24, labels: 0">
<ellipse fill="#fca082" stroke="black" cx="742.596" cy="-18" rx="41.6928" ry="18"/>
<text text-anchor="middle" x="742.596" y="-14.3" font-family="Times,serif" font-size="14.00">20 (1): 0</text>
</a>
</g>
</g>
<!-- 21 -->
<g id="node22" class="node"><title>21</title>
<g id="a_node22"><a xlink:title="21, diversity: 1, multiplicities: 2, labels: 0">
<ellipse fill="#fee3d6" stroke="black" cx="142.596" cy="-234" rx="41.6928" ry="18"/>
<text text-anchor="middle" x="142.596" y="-230.3" font-family="Times,serif" font-size="14.00">21 (1): 0</text>
</a>
</g>
</g>
<!-- 46 -->
<g id="node47" class="node"><title>46</title>
<g id="a_node47"><a xlink:title="46, diversity: 1, multiplicities: 3, labels: 0">
<ellipse fill="#fee3d6" stroke="black" cx="41.5963" cy="-162" rx="41.6928" ry="18"/>
<text text-anchor="middle" x="41.5963" y="-158.3" font-family="Times,serif" font-size="14.00">46 (1): 0</text>
</a>
</g>
</g>
<!-- 21&#45;&gt;46 -->
<g id="edge31" class="edge"><title>21&#45;&gt;46</title>
<path fill="none" stroke="black" d="M121.177,-218.155C106.617,-208.064 87.1654,-194.583 71.1378,-183.474"/>
<polygon fill="black" stroke="black" points="72.8513,-180.403 62.6386,-177.584 68.8639,-186.157 72.8513,-180.403"/>
</g>
<!-- 55 -->
<g id="node56" class="node"><title>55</title>
<g id="a_node56"><a xlink:title="55, diversity: 1, multiplicities: 1, labels: 0">
<ellipse fill="#fff5f0" stroke="black" cx="142.596" cy="-162" rx="41.6928" ry="18"/>
<text text-anchor="middle" x="142.596" y="-158.3" font-family="Times,serif" font-size="14.00">55 (1): 0</text>
</a>
</g>
</g>
<!-- 21&#45;&gt;55 -->
<g id="edge51" class="edge"><title>21&#45;&gt;55</title>
<path fill="none" stroke="black" d="M142.596,-215.697C142.596,-207.983 142.596,-198.712 142.596,-190.112"/>
<polygon fill="black" stroke="black" points="146.096,-190.104 142.596,-180.104 139.096,-190.104 146.096,-190.104"/>
</g>
<!-- 23 -->
<g id="node24" class="node"><title>23</title>
<g id="a_node24"><a xlink:title="23, diversity: 1, multiplicities: 11, labels: 0">
<ellipse fill="#fca082" stroke="black" cx="841.596" cy="-162" rx="41.6928" ry="18"/>
<text text-anchor="middle" x="841.596" y="-158.3" font-family="Times,serif" font-size="14.00">23 (1): 0</text>
</a>
</g>
</g>
<!-- 24&#45;&gt;7 -->
<g id="edge49" class="edge"><title>24&#45;&gt;7</title>
<path fill="none" stroke="black" d="M1011.42,-289.811C998.109,-279.794 980.512,-266.55 965.951,-255.589"/>
<polygon fill="black" stroke="black" points="967.878,-252.659 957.783,-249.442 963.668,-258.252 967.878,-252.659"/>
</g>
<!-- 40 -->
<g id="node41" class="node"><title>40</title>
<g id="a_node41"><a xlink:title="40, diversity: 1, multiplicities: 7, labels: 0">
<ellipse fill="#fcc4ad" stroke="black" cx="1035.6" cy="-234" rx="41.6928" ry="18"/>
<text text-anchor="middle" x="1035.6" y="-230.3" font-family="Times,serif" font-size="14.00">40 (1): 0</text>
</a>
</g>
</g>
<!-- 24&#45;&gt;40 -->
<g id="edge48" class="edge"><title>24&#45;&gt;40</title>
<path fill="none" stroke="black" d="M1032.59,-287.697C1033.03,-279.983 1033.56,-270.712 1034.05,-262.112"/>
<polygon fill="black" stroke="black" points="1037.54,-262.288 1034.62,-252.104 1030.55,-261.888 1037.54,-262.288"/>
</g>
<!-- 25 -->
<g id="node26" class="node"><title>25</title>
<g id="a_node26"><a xlink:title="25, diversity: 1, multiplicities: 1, labels: 0">
<ellipse fill="#fff5f0" stroke="black" cx="1578.6" cy="-162" rx="41.6928" ry="18"/>
<text text-anchor="middle" x="1578.6" y="-158.3" font-family="Times,serif" font-size="14.00">25 (1): 0</text>
</a>
</g>
</g>
<!-- 47 -->
<g id="node48" class="node"><title>47</title>
<g id="a_node48"><a xlink:title="47, diversity: 1, multiplicities: 6, labels: 0">
<ellipse fill="#fcc4ad" stroke="black" cx="1580.6" cy="-90" rx="41.6928" ry="18"/>
<text text-anchor="middle" x="1580.6" y="-86.3" font-family="Times,serif" font-size="14.00">47 (1): 0</text>
</a>
</g>
</g>
<!-- 25&#45;&gt;47 -->
<g id="edge12" class="edge"><title>25&#45;&gt;47</title>
<path fill="none" stroke="black" d="M1579.09,-143.697C1579.31,-135.983 1579.58,-126.712 1579.82,-118.112"/>
<polygon fill="black" stroke="black" points="1583.32,-118.2 1580.11,-108.104 1576.32,-118 1583.32,-118.2"/>
</g>
<!-- 26 -->
<g id="node27" class="node"><title>26</title>
<g id="a_node27"><a xlink:title="26, diversity: 1, multiplicities: 12, labels: 0">
<ellipse fill="#fca082" stroke="black" cx="1679.6" cy="-162" rx="41.6928" ry="18"/>
<text text-anchor="middle" x="1679.6" y="-158.3" font-family="Times,serif" font-size="14.00">26 (1): 0</text>
</a>
</g>
</g>
<!-- 26&#45;&gt;2 -->
<g id="edge7" class="edge"><title>26&#45;&gt;2</title>
<path fill="none" stroke="black" d="M1679.6,-143.697C1679.6,-135.983 1679.6,-126.712 1679.6,-118.112"/>
<polygon fill="black" stroke="black" points="1683.1,-118.104 1679.6,-108.104 1676.1,-118.104 1683.1,-118.104"/>
</g>
<!-- 29 -->
<g id="node30" class="node"><title>29</title>
<g id="a_node30"><a xlink:title="29, diversity: 1, multiplicities: 9, labels: 0">
<ellipse fill="#fcc4ad" stroke="black" cx="142.596" cy="-90" rx="41.6928" ry="18"/>
<text text-anchor="middle" x="142.596" y="-86.3" font-family="Times,serif" font-size="14.00">29 (1): 0</text>
</a>
</g>
</g>
<!-- 31 -->
<g id="node32" class="node"><title>31</title>
<g id="a_node32"><a xlink:title="31, diversity: 1, multiplicities: 2, labels: 0">
<ellipse fill="#fee3d6" stroke="black" cx="567.596" cy="-522" rx="41.6928" ry="18"/>
<text text-anchor="middle" x="567.596" y="-518.3" font-family="Times,serif" font-size="14.00">31 (1): 0</text>
</a>
</g>
</g>
<!-- 39 -->
<g id="node40" class="node"><title>39</title>
<g id="a_node40"><a xlink:title="39, diversity: 1, multiplicities: 2, labels: 0">
<ellipse fill="#fee3d6" stroke="black" cx="506.596" cy="-450" rx="41.6928" ry="18"/>
<text text-anchor="middle" x="506.596" y="-446.3" font-family="Times,serif" font-size="14.00">39 (1): 0</text>
</a>
</g>
</g>
<!-- 31&#45;&gt;39 -->
<g id="edge33" class="edge"><title>31&#45;&gt;39</title>
<path fill="none" stroke="black" d="M553.448,-504.765C545.672,-495.841 535.883,-484.608 527.266,-474.719"/>
<polygon fill="black" stroke="black" points="529.876,-472.387 520.668,-467.147 524.599,-476.986 529.876,-472.387"/>
</g>
<!-- 33 -->
<g id="node34" class="node"><title>33</title>
<g id="a_node34"><a xlink:title="33, diversity: 1, multiplicities: 61, labels: 0">
<ellipse fill="#fca082" stroke="black" cx="1136.6" cy="-234" rx="41.6928" ry="18"/>
<text text-anchor="middle" x="1136.6" y="-230.3" font-family="Times,serif" font-size="14.00">33 (1): 0</text>
</a>
</g>
</g>
<!-- 32&#45;&gt;33 -->
<g id="edge29" class="edge"><title>32&#45;&gt;33</title>
<path fill="none" stroke="black" d="M1133.59,-287.697C1134.03,-279.983 1134.56,-270.712 1135.05,-262.112"/>
<polygon fill="black" stroke="black" points="1138.54,-262.288 1135.62,-252.104 1131.55,-261.888 1138.54,-262.288"/>
</g>
<!-- 35&#45;&gt;23 -->
<g id="edge50" class="edge"><title>35&#45;&gt;23</title>
<path fill="none" stroke="black" d="M762.016,-218.155C776.575,-208.064 796.027,-194.583 812.055,-183.474"/>
<polygon fill="black" stroke="black" points="814.329,-186.157 820.554,-177.584 810.341,-180.403 814.329,-186.157"/>
</g>
<!-- 36&#45;&gt;16 -->
<g id="edge54" class="edge"><title>36&#45;&gt;16</title>
<path fill="none" stroke="black" d="M639.596,-71.6966C639.596,-63.9827 639.596,-54.7125 639.596,-46.1124"/>
<polygon fill="black" stroke="black" points="643.096,-46.1043 639.596,-36.1043 636.096,-46.1044 643.096,-46.1043"/>
</g>
<!-- 37 -->
<g id="node38" class="node"><title>37</title>
<g id="a_node38"><a xlink:title="37, diversity: 1, multiplicities: 8, labels: 0">
<ellipse fill="#fcc4ad" stroke="black" cx="843.596" cy="-18" rx="41.6928" ry="18"/>
<text text-anchor="middle" x="843.596" y="-14.3" font-family="Times,serif" font-size="14.00">37 (1): 0</text>
</a>
</g>
</g>
<!-- 38 -->
<g id="node39" class="node"><title>38</title>
<g id="a_node39"><a xlink:title="38, diversity: 1, multiplicities: 1, labels: 0">
<ellipse fill="#fff5f0" stroke="black" cx="1480.6" cy="-306" rx="41.6928" ry="18"/>
<text text-anchor="middle" x="1480.6" y="-302.3" font-family="Times,serif" font-size="14.00">38 (1): 0</text>
</a>
</g>
</g>
<!-- 38&#45;&gt;5 -->
<g id="edge61" class="edge"><title>38&#45;&gt;5</title>
<path fill="none" stroke="black" d="M1464.26,-289.116C1454.64,-279.768 1442.33,-267.795 1431.73,-257.489"/>
<polygon fill="black" stroke="black" points="1433.98,-254.801 1424.37,-250.34 1429.1,-259.82 1433.98,-254.801"/>
</g>
<!-- 48 -->
<g id="node49" class="node"><title>48</title>
<g id="a_node49"><a xlink:title="48, diversity: 1, multiplicities: 6, labels: 0">
<ellipse fill="#fcc4ad" stroke="black" cx="1553.6" cy="-234" rx="41.6928" ry="18"/>
<text text-anchor="middle" x="1553.6" y="-230.3" font-family="Times,serif" font-size="14.00">48 (1): 0</text>
</a>
</g>
</g>
<!-- 38&#45;&gt;48 -->
<g id="edge28" class="edge"><title>38&#45;&gt;48</title>
<path fill="none" stroke="black" d="M1497.16,-289.116C1506.84,-279.833 1519.22,-267.961 1529.92,-257.704"/>
<polygon fill="black" stroke="black" points="1532.55,-260.028 1537.35,-250.58 1527.71,-254.975 1532.55,-260.028"/>
</g>
<!-- 56 -->
<g id="node57" class="node"><title>56</title>
<g id="a_node57"><a xlink:title="56, diversity: 1, multiplicities: 1, labels: 0">
<ellipse fill="#fff5f0" stroke="black" cx="1729.6" cy="-234" rx="41.6928" ry="18"/>
<text text-anchor="middle" x="1729.6" y="-230.3" font-family="Times,serif" font-size="14.00">56 (1): 0</text>
</a>
</g>
</g>
<!-- 38&#45;&gt;56 -->
<g id="edge62" class="edge"><title>38&#45;&gt;56</title>
<path fill="none" stroke="black" d="M1514.44,-295.487C1558.85,-283.002 1636.87,-261.066 1685.76,-247.323"/>
<polygon fill="black" stroke="black" points="1686.75,-250.681 1695.43,-244.605 1684.86,-243.942 1686.75,-250.681"/>
</g>
<!-- 41 -->
<g id="node42" class="node"><title>41</title>
<g id="a_node42"><a xlink:title="41, diversity: 1, multiplicities: 3, labels: 0">
<ellipse fill="#fee3d6" stroke="black" cx="370.596" cy="-378" rx="41.6928" ry="18"/>
<text text-anchor="middle" x="370.596" y="-374.3" font-family="Times,serif" font-size="14.00">41 (1): 0</text>
</a>
</g>
</g>
<!-- 39&#45;&gt;41 -->
<g id="edge17" class="edge"><title>39&#45;&gt;41</title>
<path fill="none" stroke="black" d="M480.696,-435.669C459.332,-424.673 428.828,-408.972 405.344,-396.885"/>
<polygon fill="black" stroke="black" points="406.894,-393.746 396.401,-392.282 403.69,-399.97 406.894,-393.746"/>
</g>
<!-- 54 -->
<g id="node55" class="node"><title>54</title>
<g id="a_node55"><a xlink:title="54, diversity: 1, multiplicities: 3, labels: 0">
<ellipse fill="#fee3d6" stroke="black" cx="168.596" cy="-306" rx="41.6928" ry="18"/>
<text text-anchor="middle" x="168.596" y="-302.3" font-family="Times,serif" font-size="14.00">54 (1): 0</text>
</a>
</g>
</g>
<!-- 41&#45;&gt;54 -->
<g id="edge6" class="edge"><title>41&#45;&gt;54</title>
<path fill="none" stroke="black" d="M339.034,-366.062C304.198,-353.991 248.001,-334.517 209.737,-321.257"/>
<polygon fill="black" stroke="black" points="210.532,-317.828 199.937,-317.861 208.24,-324.442 210.532,-317.828"/>
</g>
<!-- 61 -->
<g id="node62" class="node"><title>61</title>
<g id="a_node62"><a xlink:title="61, diversity: 1, multiplicities: 1, labels: 0">
<ellipse fill="#fff5f0" stroke="black" cx="370.596" cy="-306" rx="41.6928" ry="18"/>
<text text-anchor="middle" x="370.596" y="-302.3" font-family="Times,serif" font-size="14.00">61 (1): 0</text>
</a>
</g>
</g>
<!-- 41&#45;&gt;61 -->
<g id="edge9" class="edge"><title>41&#45;&gt;61</title>
<path fill="none" stroke="black" d="M370.596,-359.697C370.596,-351.983 370.596,-342.712 370.596,-334.112"/>
<polygon fill="black" stroke="black" points="374.096,-334.104 370.596,-324.104 367.096,-334.104 374.096,-334.104"/>
</g>
<!-- 44&#45;&gt;20 -->
<g id="edge32" class="edge"><title>44&#45;&gt;20</title>
<path fill="none" stroke="black" d="M820.601,-74.1548C806.425,-64.1317 787.519,-50.7633 771.87,-39.6982"/>
<polygon fill="black" stroke="black" points="773.747,-36.7394 763.561,-33.8238 769.706,-42.4549 773.747,-36.7394"/>
</g>
<!-- 44&#45;&gt;37 -->
<g id="edge8" class="edge"><title>44&#45;&gt;37</title>
<path fill="none" stroke="black" d="M842.091,-71.6966C842.311,-63.9827 842.576,-54.7125 842.822,-46.1124"/>
<polygon fill="black" stroke="black" points="846.32,-46.2002 843.108,-36.1043 839.323,-46.0003 846.32,-46.2002"/>
</g>
<!-- 45 -->
<g id="node46" class="node"><title>45</title>
<g id="a_node46"><a xlink:title="45, diversity: 1, multiplicities: 1, labels: 0">
<ellipse fill="#fff5f0" stroke="black" cx="370.596" cy="-234" rx="41.6928" ry="18"/>
<text text-anchor="middle" x="370.596" y="-230.3" font-family="Times,serif" font-size="14.00">45 (1): 0</text>
</a>
</g>
</g>
<!-- 59 -->
<g id="node60" class="node"><title>59</title>
<g id="a_node60"><a xlink:title="59, diversity: 1, multiplicities: 5, labels: 0">
<ellipse fill="#fee3d6" stroke="black" cx="370.596" cy="-162" rx="41.6928" ry="18"/>
<text text-anchor="middle" x="370.596" y="-158.3" font-family="Times,serif" font-size="14.00">59 (1): 0</text>
</a>
</g>
</g>
<!-- 45&#45;&gt;59 -->
<g id="edge14" class="edge"><title>45&#45;&gt;59</title>
<path fill="none" stroke="black" d="M370.596,-215.697C370.596,-207.983 370.596,-198.712 370.596,-190.112"/>
<polygon fill="black" stroke="black" points="374.096,-190.104 370.596,-180.104 367.096,-190.104 374.096,-190.104"/>
</g>
<!-- 46&#45;&gt;15 -->
<g id="edge26" class="edge"><title>46&#45;&gt;15</title>
<path fill="none" stroke="black" d="M41.5963,-143.697C41.5963,-135.983 41.5963,-126.712 41.5963,-118.112"/>
<polygon fill="black" stroke="black" points="45.0964,-118.104 41.5963,-108.104 38.0964,-118.104 45.0964,-118.104"/>
</g>
<!-- 48&#45;&gt;3 -->
<g id="edge35" class="edge"><title>48&#45;&gt;3</title>
<path fill="none" stroke="black" d="M1537.26,-217.116C1527.64,-207.768 1515.33,-195.795 1504.73,-185.489"/>
<polygon fill="black" stroke="black" points="1506.98,-182.801 1497.37,-178.34 1502.1,-187.82 1506.98,-182.801"/>
</g>
<!-- 48&#45;&gt;25 -->
<g id="edge40" class="edge"><title>48&#45;&gt;25</title>
<path fill="none" stroke="black" d="M1559.65,-216.055C1562.46,-208.176 1565.88,-198.617 1569.03,-189.794"/>
<polygon fill="black" stroke="black" points="1572.36,-190.87 1572.43,-180.275 1565.77,-188.516 1572.36,-190.87"/>
</g>
<!-- 48&#45;&gt;26 -->
<g id="edge56" class="edge"><title>48&#45;&gt;26</title>
<path fill="none" stroke="black" d="M1578.19,-219.337C1597.62,-208.545 1624.92,-193.375 1646.3,-181.496"/>
<polygon fill="black" stroke="black" points="1648.02,-184.544 1655.07,-176.628 1644.62,-178.425 1648.02,-184.544"/>
</g>
<!-- 50&#45;&gt;19 -->
<g id="edge23" class="edge"><title>50&#45;&gt;19</title>
<path fill="none" stroke="black" d="M770.978,-149.538C777.386,-147.442 784.158,-145.459 790.596,-144 923.288,-113.936 961.904,-138.064 1094.6,-108 1097.82,-107.271 1101.12,-106.41 1104.42,-105.47"/>
<polygon fill="black" stroke="black" points="1105.68,-108.743 1114.21,-102.462 1103.63,-102.051 1105.68,-108.743"/>
</g>
<!-- 51&#45;&gt;9 -->
<g id="edge10" class="edge"><title>51&#45;&gt;9</title>
<path fill="none" stroke="black" d="M942.596,-71.6966C942.596,-63.9827 942.596,-54.7125 942.596,-46.1124"/>
<polygon fill="black" stroke="black" points="946.096,-46.1043 942.596,-36.1043 939.096,-46.1044 946.096,-46.1043"/>
</g>
<!-- 53&#45;&gt;8 -->
<g id="edge37" class="edge"><title>53&#45;&gt;8</title>
<path fill="none" stroke="black" d="M1233.6,-287.697C1233.6,-279.983 1233.6,-270.712 1233.6,-262.112"/>
<polygon fill="black" stroke="black" points="1237.1,-262.104 1233.6,-252.104 1230.1,-262.104 1237.1,-262.104"/>
</g>
<!-- 54&#45;&gt;21 -->
<g id="edge46" class="edge"><title>54&#45;&gt;21</title>
<path fill="none" stroke="black" d="M162.302,-288.055C159.376,-280.176 155.825,-270.617 152.548,-261.794"/>
<polygon fill="black" stroke="black" points="155.776,-260.431 149.013,-252.275 149.214,-262.868 155.776,-260.431"/>
</g>
<!-- 55&#45;&gt;29 -->
<g id="edge57" class="edge"><title>55&#45;&gt;29</title>
<path fill="none" stroke="black" d="M142.596,-143.697C142.596,-135.983 142.596,-126.712 142.596,-118.112"/>
<polygon fill="black" stroke="black" points="146.096,-118.104 142.596,-108.104 139.096,-118.104 146.096,-118.104"/>
</g>
<!-- 56&#45;&gt;13 -->
<g id="edge13" class="edge"><title>56&#45;&gt;13</title>
<path fill="none" stroke="black" d="M1741.68,-216.411C1747.91,-207.868 1755.62,-197.278 1762.54,-187.787"/>
<polygon fill="black" stroke="black" points="1765.54,-189.613 1768.6,-179.47 1759.88,-185.491 1765.54,-189.613"/>
</g>
<!-- 57 -->
<g id="node58" class="node"><title>57</title>
<g id="a_node58"><a xlink:title="57, diversity: 1, multiplicities: 2, labels: 0">
<ellipse fill="#fee3d6" stroke="black" cx="789.596" cy="-522" rx="41.6928" ry="18"/>
<text text-anchor="middle" x="789.596" y="-518.3" font-family="Times,serif" font-size="14.00">57 (1): 0</text>
</a>
</g>
</g>
<!-- 60 -->
<g id="node61" class="node"><title>60</title>
<g id="a_node61"><a xlink:title="60, diversity: 1, multiplicities: 3, labels: 0">
<ellipse fill="#fee3d6" stroke="black" cx="1031.6" cy="-450" rx="41.6928" ry="18"/>
<text text-anchor="middle" x="1031.6" y="-446.3" font-family="Times,serif" font-size="14.00">60 (1): 0</text>
</a>
</g>
</g>
<!-- 57&#45;&gt;60 -->
<g id="edge16" class="edge"><title>57&#45;&gt;60</title>
<path fill="none" stroke="black" d="M823.245,-511.267C866.289,-498.816 940.91,-477.232 988.191,-463.555"/>
<polygon fill="black" stroke="black" points="989.21,-466.904 997.844,-460.763 987.265,-460.18 989.21,-466.904"/>
</g>
<!-- 58 -->
<g id="node59" class="node"><title>58</title>
<g id="a_node59"><a xlink:title="58, diversity: 1, multiplicities: 1, labels: 0">
<ellipse fill="#fff5f0" stroke="black" cx="1304.6" cy="-378" rx="41.6928" ry="18"/>
<text text-anchor="middle" x="1304.6" y="-374.3" font-family="Times,serif" font-size="14.00">58 (1): 0</text>
</a>
</g>
</g>
<!-- 58&#45;&gt;38 -->
<g id="edge43" class="edge"><title>58&#45;&gt;38</title>
<path fill="none" stroke="black" d="M1334.05,-365.284C1363.5,-353.573 1408.94,-335.499 1441.41,-322.584"/>
<polygon fill="black" stroke="black" points="1443.04,-325.703 1451.04,-318.755 1440.46,-319.198 1443.04,-325.703"/>
</g>
<!-- 60&#45;&gt;6 -->
<g id="edge45" class="edge"><title>60&#45;&gt;6</title>
<path fill="none" stroke="black" d="M1031.6,-431.697C1031.6,-423.983 1031.6,-414.712 1031.6,-406.112"/>
<polygon fill="black" stroke="black" points="1035.1,-406.104 1031.6,-396.104 1028.1,-406.104 1035.1,-406.104"/>
</g>
<!-- 60&#45;&gt;58 -->
<g id="edge41" class="edge"><title>60&#45;&gt;58</title>
<path fill="none" stroke="black" d="M1066.45,-440.063C1115.6,-427.459 1205.33,-404.453 1259.51,-390.561"/>
<polygon fill="black" stroke="black" points="1260.7,-393.868 1269.52,-387.994 1258.96,-387.088 1260.7,-393.868"/>
</g>
<!-- 61&#45;&gt;45 -->
<g id="edge38" class="edge"><title>61&#45;&gt;45</title>
<path fill="none" stroke="black" d="M370.596,-287.697C370.596,-279.983 370.596,-270.712 370.596,-262.112"/>
<polygon fill="black" stroke="black" points="374.096,-262.104 370.596,-252.104 367.096,-262.104 374.096,-262.104"/>
</g>
<!-- 62 -->
<g id="node63" class="node"><title>62</title>
<g id="a_node63"><a xlink:title="62, diversity: 1, multiplicities: 1, labels: 0">
<ellipse fill="#fff5f0" stroke="black" cx="678.596" cy="-594" rx="41.6928" ry="18"/>
<text text-anchor="middle" x="678.596" y="-590.3" font-family="Times,serif" font-size="14.00">62 (1): 0</text>
</a>
</g>
</g>
<!-- 62&#45;&gt;31 -->
<g id="edge60" class="edge"><title>62&#45;&gt;31</title>
<path fill="none" stroke="black" d="M656.134,-578.834C639.693,-568.466 617.17,-554.263 598.956,-542.777"/>
<polygon fill="black" stroke="black" points="600.732,-539.758 590.406,-537.385 596.998,-545.679 600.732,-539.758"/>
</g>
<!-- 62&#45;&gt;57 -->
<g id="edge5" class="edge"><title>62&#45;&gt;57</title>
<path fill="none" stroke="black" d="M701.059,-578.834C717.5,-568.466 740.022,-554.263 758.236,-542.777"/>
<polygon fill="black" stroke="black" points="760.195,-545.679 766.786,-537.385 756.461,-539.758 760.195,-545.679"/>
</g>
</g>
</svg>
