<?xml version="1.0" encoding="UTF-8" standalone="no"?>
<!DOCTYPE svg PUBLIC "-//W3C//DTD SVG 1.1//EN"
 "http://www.w3.org/Graphics/SVG/1.1/DTD/svg11.dtd">
<!-- Generated by graphviz version 2.38.0 (20140413.2041)
 -->
<!-- Title: %3 Pages: 1 -->
<svg width="1149pt" height="260pt"
 viewBox="0.00 0.00 1148.64 260.00" xmlns="http://www.w3.org/2000/svg" xmlns:xlink="http://www.w3.org/1999/xlink">
<g id="graph0" class="graph" transform="scale(1 1) rotate(0) translate(4 256)">
<title>%3</title>
<polygon fill="white" stroke="none" points="-4,4 -4,-256 1144.64,-256 1144.64,4 -4,4"/>
<!-- 0 -->
<g id="node1" class="node"><title>0</title>
<g id="a_node1"><a xlink:title="0, diversity: 2, multiplicities: 8,33, labels: 0">
<ellipse fill="#fca082" stroke="black" cx="37.0467" cy="-162" rx="37.0935" ry="18"/>
<text text-anchor="middle" x="37.0467" y="-158.3" font-family="Times,serif" font-size="14.00">0 (2): 0</text>
</a>
</g>
</g>
<!-- 1 -->
<g id="node2" class="node"><title>1</title>
<g id="a_node2"><a xlink:title="1, diversity: 2, multiplicities: 1,72, labels: 0">
<ellipse fill="#fca082" stroke="black" cx="129.047" cy="-162" rx="37.0935" ry="18"/>
<text text-anchor="middle" x="129.047" y="-158.3" font-family="Times,serif" font-size="14.00">1 (2): 0</text>
</a>
</g>
</g>
<!-- 2 -->
<g id="node3" class="node"><title>2</title>
<g id="a_node3"><a xlink:title="2, diversity: 6, multiplicities: 1,1,1,5,81,83, labels: 0">
<ellipse fill="#fb7c5c" stroke="black" cx="545.047" cy="-234" rx="37.0935" ry="18"/>
<text text-anchor="middle" x="545.047" y="-230.3" font-family="Times,serif" font-size="14.00">2 (6): 0</text>
</a>
</g>
</g>
<!-- 2&#45;&gt;0 -->
<g id="edge7" class="edge"><title>2&#45;&gt;0</title>
<path fill="none" stroke="black" d="M507.994,-231.757C428.91,-228.45 238.148,-216.989 83.0467,-180 80.0782,-179.292 77.0392,-178.449 74.0076,-177.523"/>
<polygon fill="black" stroke="black" points="75.0388,-174.177 64.4453,-174.344 72.8304,-180.82 75.0388,-174.177"/>
</g>
<!-- 2&#45;&gt;1 -->
<g id="edge9" class="edge"><title>2&#45;&gt;1</title>
<path fill="none" stroke="black" d="M508.574,-230.351C441.637,-224.923 295.037,-210.4 175.047,-180 172.088,-179.25 169.057,-178.378 166.03,-177.431"/>
<polygon fill="black" stroke="black" points="167.071,-174.088 156.477,-174.214 164.837,-180.722 167.071,-174.088"/>
</g>
<!-- 4 -->
<g id="node5" class="node"><title>4</title>
<g id="a_node5"><a xlink:title="4, diversity: 1, multiplicities: 5, labels: 0">
<ellipse fill="#fee3d6" stroke="black" cx="221.047" cy="-162" rx="37.0935" ry="18"/>
<text text-anchor="middle" x="221.047" y="-158.3" font-family="Times,serif" font-size="14.00">4 (1): 0</text>
</a>
</g>
</g>
<!-- 2&#45;&gt;4 -->
<g id="edge15" class="edge"><title>2&#45;&gt;4</title>
<path fill="none" stroke="black" d="M509.948,-228.216C456.793,-220.545 352.964,-203.889 267.047,-180 264.278,-179.23 261.44,-178.368 258.599,-177.451"/>
<polygon fill="black" stroke="black" points="259.619,-174.101 249.024,-174.177 257.354,-180.724 259.619,-174.101"/>
</g>
<!-- 6 -->
<g id="node7" class="node"><title>6</title>
<g id="a_node7"><a xlink:title="6, diversity: 2, multiplicities: 5,57, labels: 0">
<ellipse fill="#fca082" stroke="black" cx="313.047" cy="-162" rx="37.0935" ry="18"/>
<text text-anchor="middle" x="313.047" y="-158.3" font-family="Times,serif" font-size="14.00">6 (2): 0</text>
</a>
</g>
</g>
<!-- 2&#45;&gt;6 -->
<g id="edge4" class="edge"><title>2&#45;&gt;6</title>
<path fill="none" stroke="black" d="M513.229,-224.728C476.014,-214.87 412.667,-197.519 359.047,-180 356.315,-179.108 353.505,-178.155 350.683,-177.174"/>
<polygon fill="black" stroke="black" points="351.741,-173.835 341.147,-173.772 349.389,-180.428 351.741,-173.835"/>
</g>
<!-- 7 -->
<g id="node8" class="node"><title>7</title>
<g id="a_node8"><a xlink:title="7, diversity: 1, multiplicities: 24, labels: 0">
<ellipse fill="#fca082" stroke="black" cx="405.047" cy="-162" rx="37.0935" ry="18"/>
<text text-anchor="middle" x="405.047" y="-158.3" font-family="Times,serif" font-size="14.00">7 (1): 0</text>
</a>
</g>
</g>
<!-- 2&#45;&gt;7 -->
<g id="edge1" class="edge"><title>2&#45;&gt;7</title>
<path fill="none" stroke="black" d="M520.018,-220.485C497.422,-209.187 463.984,-192.469 438.986,-179.97"/>
<polygon fill="black" stroke="black" points="440.369,-176.748 429.859,-175.406 437.238,-183.009 440.369,-176.748"/>
</g>
<!-- 9 -->
<g id="node10" class="node"><title>9</title>
<g id="a_node10"><a xlink:title="9, diversity: 1, multiplicities: 9, labels: 0">
<ellipse fill="#fcc4ad" stroke="black" cx="497.047" cy="-162" rx="37.0935" ry="18"/>
<text text-anchor="middle" x="497.047" y="-158.3" font-family="Times,serif" font-size="14.00">9 (1): 0</text>
</a>
</g>
</g>
<!-- 2&#45;&gt;9 -->
<g id="edge6" class="edge"><title>2&#45;&gt;9</title>
<path fill="none" stroke="black" d="M533.914,-216.765C528.062,-208.23 520.76,-197.582 514.203,-188.019"/>
<polygon fill="black" stroke="black" points="516.994,-185.901 508.452,-179.633 511.221,-189.86 516.994,-185.901"/>
</g>
<!-- 10 -->
<g id="node11" class="node"><title>10</title>
<g id="a_node11"><a xlink:title="10, diversity: 1, multiplicities: 2, labels: 0">
<ellipse fill="#fee3d6" stroke="black" cx="594.047" cy="-162" rx="41.6928" ry="18"/>
<text text-anchor="middle" x="594.047" y="-158.3" font-family="Times,serif" font-size="14.00">10 (1): 0</text>
</a>
</g>
</g>
<!-- 2&#45;&gt;10 -->
<g id="edge10" class="edge"><title>2&#45;&gt;10</title>
<path fill="none" stroke="black" d="M556.411,-216.765C562.386,-208.23 569.839,-197.582 576.533,-188.019"/>
<polygon fill="black" stroke="black" points="579.536,-189.833 582.403,-179.633 573.801,-185.819 579.536,-189.833"/>
</g>
<!-- 11 -->
<g id="node12" class="node"><title>11</title>
<g id="a_node12"><a xlink:title="11, diversity: 2, multiplicities: 5,41, labels: 0">
<ellipse fill="#fca082" stroke="black" cx="695.047" cy="-162" rx="41.6928" ry="18"/>
<text text-anchor="middle" x="695.047" y="-158.3" font-family="Times,serif" font-size="14.00">11 (2): 0</text>
</a>
</g>
</g>
<!-- 2&#45;&gt;11 -->
<g id="edge8" class="edge"><title>2&#45;&gt;11</title>
<path fill="none" stroke="black" d="M570.833,-220.967C595.035,-209.672 631.479,-192.665 658.64,-179.99"/>
<polygon fill="black" stroke="black" points="660.243,-183.104 667.825,-175.703 657.283,-176.761 660.243,-183.104"/>
</g>
<!-- 13 -->
<g id="node14" class="node"><title>13</title>
<g id="a_node14"><a xlink:title="13, diversity: 2, multiplicities: 8,11, labels: 0">
<ellipse fill="#fca082" stroke="black" cx="796.047" cy="-162" rx="41.6928" ry="18"/>
<text text-anchor="middle" x="796.047" y="-158.3" font-family="Times,serif" font-size="14.00">13 (2): 0</text>
</a>
</g>
</g>
<!-- 2&#45;&gt;13 -->
<g id="edge12" class="edge"><title>2&#45;&gt;13</title>
<path fill="none" stroke="black" d="M577.618,-225.156C617.536,-215.372 687.134,-197.759 746.047,-180 748.981,-179.116 752.001,-178.172 755.034,-177.201"/>
<polygon fill="black" stroke="black" points="756.27,-180.479 764.682,-174.038 754.089,-173.827 756.27,-180.479"/>
</g>
<!-- 15 -->
<g id="node16" class="node"><title>15</title>
<g id="a_node16"><a xlink:title="15, diversity: 1, multiplicities: 6, labels: 0">
<ellipse fill="#fcc4ad" stroke="black" cx="897.047" cy="-162" rx="41.6928" ry="18"/>
<text text-anchor="middle" x="897.047" y="-158.3" font-family="Times,serif" font-size="14.00">15 (1): 0</text>
</a>
</g>
</g>
<!-- 2&#45;&gt;15 -->
<g id="edge14" class="edge"><title>2&#45;&gt;15</title>
<path fill="none" stroke="black" d="M580.759,-228.548C637.661,-221.05 752.163,-204.302 847.047,-180 850.2,-179.192 853.44,-178.282 856.682,-177.313"/>
<polygon fill="black" stroke="black" points="857.845,-180.616 866.331,-174.272 855.742,-173.939 857.845,-180.616"/>
</g>
<!-- 16 -->
<g id="node17" class="node"><title>16</title>
<g id="a_node17"><a xlink:title="16, diversity: 1, multiplicities: 5, labels: 0">
<ellipse fill="#fee3d6" stroke="black" cx="998.047" cy="-162" rx="41.6928" ry="18"/>
<text text-anchor="middle" x="998.047" y="-158.3" font-family="Times,serif" font-size="14.00">16 (1): 0</text>
</a>
</g>
</g>
<!-- 2&#45;&gt;16 -->
<g id="edge2" class="edge"><title>2&#45;&gt;16</title>
<path fill="none" stroke="black" d="M581.602,-230.614C652.874,-225.432 815.071,-211.03 948.047,-180 951.261,-179.25 954.56,-178.375 957.857,-177.424"/>
<polygon fill="black" stroke="black" points="959.13,-180.694 967.65,-174.397 957.063,-174.006 959.13,-180.694"/>
</g>
<!-- 17 -->
<g id="node18" class="node"><title>17</title>
<g id="a_node18"><a xlink:title="17, diversity: 1, multiplicities: 1, labels: 0">
<ellipse fill="#fff5f0" stroke="black" cx="1099.05" cy="-162" rx="41.6928" ry="18"/>
<text text-anchor="middle" x="1099.05" y="-158.3" font-family="Times,serif" font-size="14.00">17 (1): 0</text>
</a>
</g>
</g>
<!-- 2&#45;&gt;17 -->
<g id="edge16" class="edge"><title>2&#45;&gt;17</title>
<path fill="none" stroke="black" d="M581.86,-231.933C665.711,-228.895 876.966,-217.805 1049.05,-180 1052.42,-179.259 1055.88,-178.369 1059.33,-177.389"/>
<polygon fill="black" stroke="black" points="1060.41,-180.718 1068.95,-174.44 1058.36,-174.026 1060.41,-180.718"/>
</g>
<!-- 3 -->
<g id="node4" class="node"><title>3</title>
<g id="a_node4"><a xlink:title="3, diversity: 1, multiplicities: 76, labels: 0">
<ellipse fill="#fca082" stroke="black" cx="1099.05" cy="-90" rx="37.0935" ry="18"/>
<text text-anchor="middle" x="1099.05" y="-86.3" font-family="Times,serif" font-size="14.00">3 (1): 0</text>
</a>
</g>
</g>
<!-- 5 -->
<g id="node6" class="node"><title>5</title>
<g id="a_node6"><a xlink:title="5, diversity: 1, multiplicities: 41, labels: 0">
<ellipse fill="#fca082" stroke="black" cx="594.047" cy="-90" rx="37.0935" ry="18"/>
<text text-anchor="middle" x="594.047" y="-86.3" font-family="Times,serif" font-size="14.00">5 (1): 0</text>
</a>
</g>
</g>
<!-- 8 -->
<g id="node9" class="node"><title>8</title>
<g id="a_node9"><a xlink:title="8, diversity: 3, multiplicities: 6,7,42, labels: 0">
<ellipse fill="#fca082" stroke="black" cx="264.047" cy="-90" rx="37.0935" ry="18"/>
<text text-anchor="middle" x="264.047" y="-86.3" font-family="Times,serif" font-size="14.00">8 (3): 0</text>
</a>
</g>
</g>
<!-- 6&#45;&gt;8 -->
<g id="edge5" class="edge"><title>6&#45;&gt;8</title>
<path fill="none" stroke="black" d="M301.682,-144.765C295.621,-136.106 288.038,-125.273 281.27,-115.604"/>
<polygon fill="black" stroke="black" points="283.952,-113.333 275.35,-107.147 278.217,-117.347 283.952,-113.333"/>
</g>
<!-- 14 -->
<g id="node15" class="node"><title>14</title>
<g id="a_node15"><a xlink:title="14, diversity: 1, multiplicities: 3, labels: 0">
<ellipse fill="#fee3d6" stroke="black" cx="361.047" cy="-90" rx="41.6928" ry="18"/>
<text text-anchor="middle" x="361.047" y="-86.3" font-family="Times,serif" font-size="14.00">14 (1): 0</text>
</a>
</g>
</g>
<!-- 6&#45;&gt;14 -->
<g id="edge17" class="edge"><title>6&#45;&gt;14</title>
<path fill="none" stroke="black" d="M324.18,-144.765C330.032,-136.23 337.333,-125.582 343.891,-116.019"/>
<polygon fill="black" stroke="black" points="346.872,-117.86 349.641,-107.633 341.099,-113.901 346.872,-117.86"/>
</g>
<!-- 10&#45;&gt;5 -->
<g id="edge3" class="edge"><title>10&#45;&gt;5</title>
<path fill="none" stroke="black" d="M594.047,-143.697C594.047,-135.983 594.047,-126.712 594.047,-118.112"/>
<polygon fill="black" stroke="black" points="597.547,-118.104 594.047,-108.104 590.547,-118.104 597.547,-118.104"/>
</g>
<!-- 12 -->
<g id="node13" class="node"><title>12</title>
<g id="a_node13"><a xlink:title="12, diversity: 1, multiplicities: 12, labels: 0">
<ellipse fill="#fca082" stroke="black" cx="361.047" cy="-18" rx="41.6928" ry="18"/>
<text text-anchor="middle" x="361.047" y="-14.3" font-family="Times,serif" font-size="14.00">12 (1): 0</text>
</a>
</g>
</g>
<!-- 14&#45;&gt;12 -->
<g id="edge11" class="edge"><title>14&#45;&gt;12</title>
<path fill="none" stroke="black" d="M361.047,-71.6966C361.047,-63.9827 361.047,-54.7125 361.047,-46.1124"/>
<polygon fill="black" stroke="black" points="364.547,-46.1043 361.047,-36.1043 357.547,-46.1044 364.547,-46.1043"/>
</g>
<!-- 17&#45;&gt;3 -->
<g id="edge13" class="edge"><title>17&#45;&gt;3</title>
<path fill="none" stroke="black" d="M1099.05,-143.697C1099.05,-135.983 1099.05,-126.712 1099.05,-118.112"/>
<polygon fill="black" stroke="black" points="1102.55,-118.104 1099.05,-108.104 1095.55,-118.104 1102.55,-118.104"/>
</g>
</g>
</svg>
