<?xml version="1.0" encoding="UTF-8" standalone="no"?>
<!DOCTYPE svg PUBLIC "-//W3C//DTD SVG 1.1//EN"
 "http://www.w3.org/Graphics/SVG/1.1/DTD/svg11.dtd">
<!-- Generated by graphviz version 2.38.0 (20140413.2041)
 -->
<!-- Title: %3 Pages: 1 -->
<svg width="91pt" height="908pt"
 viewBox="0.00 0.00 91.19 908.00" xmlns="http://www.w3.org/2000/svg" xmlns:xlink="http://www.w3.org/1999/xlink">
<g id="graph0" class="graph" transform="scale(1 1) rotate(0) translate(4 904)">
<title>%3</title>
<polygon fill="white" stroke="none" points="-4,4 -4,-904 87.1926,-904 87.1926,4 -4,4"/>
<!-- 0 -->
<g id="node1" class="node"><title>0</title>
<g id="a_node1"><a xlink:title="0, diversity: 7, multiplicities: 3,9,9,15,34,48,835, labels: 0">
<ellipse fill="#e32f27" stroke="black" cx="41.5963" cy="-378" rx="37.0935" ry="18"/>
<text text-anchor="middle" x="41.5963" y="-374.3" font-family="Times,serif" font-size="14.00">0 (7): 0</text>
</a>
</g>
</g>
<!-- 3 -->
<g id="node4" class="node"><title>3</title>
<g id="a_node4"><a xlink:title="3, diversity: 1, multiplicities: 1, labels: 0">
<ellipse fill="#fff5f0" stroke="black" cx="41.5963" cy="-306" rx="37.0935" ry="18"/>
<text text-anchor="middle" x="41.5963" y="-302.3" font-family="Times,serif" font-size="14.00">3 (1): 0</text>
</a>
</g>
</g>
<!-- 0&#45;&gt;3 -->
<g id="edge11" class="edge"><title>0&#45;&gt;3</title>
<path fill="none" stroke="black" d="M41.5963,-359.697C41.5963,-351.983 41.5963,-342.712 41.5963,-334.112"/>
<polygon fill="black" stroke="black" points="45.0964,-334.104 41.5963,-324.104 38.0964,-334.104 45.0964,-334.104"/>
</g>
<!-- 1 -->
<g id="node2" class="node"><title>1</title>
<g id="a_node2"><a xlink:title="1, diversity: 1, multiplicities: 6, labels: 0">
<ellipse fill="#fcc4ad" stroke="black" cx="41.5963" cy="-18" rx="37.0935" ry="18"/>
<text text-anchor="middle" x="41.5963" y="-14.3" font-family="Times,serif" font-size="14.00">1 (1): 0</text>
</a>
</g>
</g>
<!-- 2 -->
<g id="node3" class="node"><title>2</title>
<g id="a_node3"><a xlink:title="2, diversity: 2, multiplicities: 3,7, labels: 0">
<ellipse fill="#fcc4ad" stroke="black" cx="41.5963" cy="-882" rx="37.0935" ry="18"/>
<text text-anchor="middle" x="41.5963" y="-878.3" font-family="Times,serif" font-size="14.00">2 (2): 0</text>
</a>
</g>
</g>
<!-- 6 -->
<g id="node7" class="node"><title>6</title>
<g id="a_node7"><a xlink:title="6, diversity: 1, multiplicities: 5, labels: 0">
<ellipse fill="#fee3d6" stroke="black" cx="41.5963" cy="-810" rx="37.0935" ry="18"/>
<text text-anchor="middle" x="41.5963" y="-806.3" font-family="Times,serif" font-size="14.00">6 (1): 0</text>
</a>
</g>
</g>
<!-- 2&#45;&gt;6 -->
<g id="edge3" class="edge"><title>2&#45;&gt;6</title>
<path fill="none" stroke="black" d="M41.5963,-863.697C41.5963,-855.983 41.5963,-846.712 41.5963,-838.112"/>
<polygon fill="black" stroke="black" points="45.0964,-838.104 41.5963,-828.104 38.0964,-838.104 45.0964,-838.104"/>
</g>
<!-- 8 -->
<g id="node9" class="node"><title>8</title>
<g id="a_node9"><a xlink:title="8, diversity: 1, multiplicities: 3, labels: 0">
<ellipse fill="#fee3d6" stroke="black" cx="41.5963" cy="-234" rx="37.0935" ry="18"/>
<text text-anchor="middle" x="41.5963" y="-230.3" font-family="Times,serif" font-size="14.00">8 (1): 0</text>
</a>
</g>
</g>
<!-- 3&#45;&gt;8 -->
<g id="edge7" class="edge"><title>3&#45;&gt;8</title>
<path fill="none" stroke="black" d="M41.5963,-287.697C41.5963,-279.983 41.5963,-270.712 41.5963,-262.112"/>
<polygon fill="black" stroke="black" points="45.0964,-262.104 41.5963,-252.104 38.0964,-262.104 45.0964,-262.104"/>
</g>
<!-- 4 -->
<g id="node5" class="node"><title>4</title>
<g id="a_node5"><a xlink:title="4, diversity: 1, multiplicities: 1, labels: 0">
<ellipse fill="#fff5f0" stroke="black" cx="41.5963" cy="-738" rx="37.0935" ry="18"/>
<text text-anchor="middle" x="41.5963" y="-734.3" font-family="Times,serif" font-size="14.00">4 (1): 0</text>
</a>
</g>
</g>
<!-- 7 -->
<g id="node8" class="node"><title>7</title>
<g id="a_node8"><a xlink:title="7, diversity: 1, multiplicities: 3, labels: 0">
<ellipse fill="#fee3d6" stroke="black" cx="41.5963" cy="-666" rx="37.0935" ry="18"/>
<text text-anchor="middle" x="41.5963" y="-662.3" font-family="Times,serif" font-size="14.00">7 (1): 0</text>
</a>
</g>
</g>
<!-- 4&#45;&gt;7 -->
<g id="edge2" class="edge"><title>4&#45;&gt;7</title>
<path fill="none" stroke="black" d="M41.5963,-719.697C41.5963,-711.983 41.5963,-702.712 41.5963,-694.112"/>
<polygon fill="black" stroke="black" points="45.0964,-694.104 41.5963,-684.104 38.0964,-694.104 45.0964,-694.104"/>
</g>
<!-- 5 -->
<g id="node6" class="node"><title>5</title>
<g id="a_node6"><a xlink:title="5, diversity: 1, multiplicities: 1, labels: 0">
<ellipse fill="#fff5f0" stroke="black" cx="41.5963" cy="-450" rx="37.0935" ry="18"/>
<text text-anchor="middle" x="41.5963" y="-446.3" font-family="Times,serif" font-size="14.00">5 (1): 0</text>
</a>
</g>
</g>
<!-- 5&#45;&gt;0 -->
<g id="edge9" class="edge"><title>5&#45;&gt;0</title>
<path fill="none" stroke="black" d="M41.5963,-431.697C41.5963,-423.983 41.5963,-414.712 41.5963,-406.112"/>
<polygon fill="black" stroke="black" points="45.0964,-406.104 41.5963,-396.104 38.0964,-406.104 45.0964,-406.104"/>
</g>
<!-- 6&#45;&gt;4 -->
<g id="edge1" class="edge"><title>6&#45;&gt;4</title>
<path fill="none" stroke="black" d="M41.5963,-791.697C41.5963,-783.983 41.5963,-774.712 41.5963,-766.112"/>
<polygon fill="black" stroke="black" points="45.0964,-766.104 41.5963,-756.104 38.0964,-766.104 45.0964,-766.104"/>
</g>
<!-- 10 -->
<g id="node11" class="node"><title>10</title>
<g id="a_node11"><a xlink:title="10, diversity: 1, multiplicities: 2, labels: 0">
<ellipse fill="#fee3d6" stroke="black" cx="41.5963" cy="-594" rx="41.6928" ry="18"/>
<text text-anchor="middle" x="41.5963" y="-590.3" font-family="Times,serif" font-size="14.00">10 (1): 0</text>
</a>
</g>
</g>
<!-- 7&#45;&gt;10 -->
<g id="edge4" class="edge"><title>7&#45;&gt;10</title>
<path fill="none" stroke="black" d="M41.5963,-647.697C41.5963,-639.983 41.5963,-630.712 41.5963,-622.112"/>
<polygon fill="black" stroke="black" points="45.0964,-622.104 41.5963,-612.104 38.0964,-622.104 45.0964,-622.104"/>
</g>
<!-- 9 -->
<g id="node10" class="node"><title>9</title>
<g id="a_node10"><a xlink:title="9, diversity: 1, multiplicities: 4, labels: 0">
<ellipse fill="#fee3d6" stroke="black" cx="41.5963" cy="-162" rx="37.0935" ry="18"/>
<text text-anchor="middle" x="41.5963" y="-158.3" font-family="Times,serif" font-size="14.00">9 (1): 0</text>
</a>
</g>
</g>
<!-- 8&#45;&gt;9 -->
<g id="edge12" class="edge"><title>8&#45;&gt;9</title>
<path fill="none" stroke="black" d="M41.5963,-215.697C41.5963,-207.983 41.5963,-198.712 41.5963,-190.112"/>
<polygon fill="black" stroke="black" points="45.0964,-190.104 41.5963,-180.104 38.0964,-190.104 45.0964,-190.104"/>
</g>
<!-- 11 -->
<g id="node12" class="node"><title>11</title>
<g id="a_node12"><a xlink:title="11, diversity: 1, multiplicities: 1, labels: 0">
<ellipse fill="#fff5f0" stroke="black" cx="41.5963" cy="-90" rx="41.6928" ry="18"/>
<text text-anchor="middle" x="41.5963" y="-86.3" font-family="Times,serif" font-size="14.00">11 (1): 0</text>
</a>
</g>
</g>
<!-- 9&#45;&gt;11 -->
<g id="edge8" class="edge"><title>9&#45;&gt;11</title>
<path fill="none" stroke="black" d="M41.5963,-143.697C41.5963,-135.983 41.5963,-126.712 41.5963,-118.112"/>
<polygon fill="black" stroke="black" points="45.0964,-118.104 41.5963,-108.104 38.0964,-118.104 45.0964,-118.104"/>
</g>
<!-- 12 -->
<g id="node13" class="node"><title>12</title>
<g id="a_node13"><a xlink:title="12, diversity: 1, multiplicities: 1, labels: 0">
<ellipse fill="#fff5f0" stroke="black" cx="41.5963" cy="-522" rx="41.6928" ry="18"/>
<text text-anchor="middle" x="41.5963" y="-518.3" font-family="Times,serif" font-size="14.00">12 (1): 0</text>
</a>
</g>
</g>
<!-- 10&#45;&gt;12 -->
<g id="edge6" class="edge"><title>10&#45;&gt;12</title>
<path fill="none" stroke="black" d="M41.5963,-575.697C41.5963,-567.983 41.5963,-558.712 41.5963,-550.112"/>
<polygon fill="black" stroke="black" points="45.0964,-550.104 41.5963,-540.104 38.0964,-550.104 45.0964,-550.104"/>
</g>
<!-- 11&#45;&gt;1 -->
<g id="edge10" class="edge"><title>11&#45;&gt;1</title>
<path fill="none" stroke="black" d="M41.5963,-71.6966C41.5963,-63.9827 41.5963,-54.7125 41.5963,-46.1124"/>
<polygon fill="black" stroke="black" points="45.0964,-46.1043 41.5963,-36.1043 38.0964,-46.1044 45.0964,-46.1043"/>
</g>
<!-- 12&#45;&gt;5 -->
<g id="edge5" class="edge"><title>12&#45;&gt;5</title>
<path fill="none" stroke="black" d="M41.5963,-503.697C41.5963,-495.983 41.5963,-486.712 41.5963,-478.112"/>
<polygon fill="black" stroke="black" points="45.0964,-478.104 41.5963,-468.104 38.0964,-478.104 45.0964,-478.104"/>
</g>
</g>
</svg>
