<?xml version="1.0" encoding="UTF-8" standalone="no"?>
<!DOCTYPE svg PUBLIC "-//W3C//DTD SVG 1.1//EN"
 "http://www.w3.org/Graphics/SVG/1.1/DTD/svg11.dtd">
<!-- Generated by graphviz version 2.38.0 (20140413.2041)
 -->
<!-- Title: %3 Pages: 1 -->
<svg width="491pt" height="1196pt"
 viewBox="0.00 0.00 491.19 1196.00" xmlns="http://www.w3.org/2000/svg" xmlns:xlink="http://www.w3.org/1999/xlink">
<g id="graph0" class="graph" transform="scale(1 1) rotate(0) translate(4 1192)">
<title>%3</title>
<polygon fill="white" stroke="none" points="-4,4 -4,-1192 487.193,-1192 487.193,4 -4,4"/>
<!-- 0 -->
<g id="node1" class="node"><title>0</title>
<g id="a_node1"><a xlink:title="0, diversity: 2, multiplicities: 1,643, labels: 0">
<ellipse fill="#f7fcf5" stroke="black" cx="191.596" cy="-1098" rx="37.0935" ry="18"/>
<text text-anchor="middle" x="191.596" y="-1094.3" font-family="Times,serif" font-size="14.00">0 (2): 0</text>
</a>
</g>
</g>
<!-- 3 -->
<g id="node4" class="node"><title>3</title>
<g id="a_node4"><a xlink:title="3, diversity: 1, multiplicities: 3, labels: 0">
<ellipse fill="#f7fcf5" stroke="black" cx="46.5963" cy="-1026" rx="37.0935" ry="18"/>
<text text-anchor="middle" x="46.5963" y="-1022.3" font-family="Times,serif" font-size="14.00">3 (1): 0</text>
</a>
</g>
</g>
<!-- 0&#45;&gt;3 -->
<g id="edge6" class="edge"><title>0&#45;&gt;3</title>
<path fill="none" stroke="black" d="M166.339,-1084.81C142.781,-1073.43 107.435,-1056.37 81.2459,-1043.73"/>
<polygon fill="black" stroke="black" points="82.5776,-1040.48 72.0505,-1039.29 79.5343,-1046.79 82.5776,-1040.48"/>
</g>
<!-- 5 -->
<g id="node6" class="node"><title>5</title>
<g id="a_node6"><a xlink:title="5, diversity: 1, multiplicities: 2, labels: 0">
<ellipse fill="#f7fcf5" stroke="black" cx="142.596" cy="-1026" rx="37.0935" ry="18"/>
<text text-anchor="middle" x="142.596" y="-1022.3" font-family="Times,serif" font-size="14.00">5 (1): 0</text>
</a>
</g>
</g>
<!-- 0&#45;&gt;5 -->
<g id="edge19" class="edge"><title>0&#45;&gt;5</title>
<path fill="none" stroke="black" d="M180.232,-1080.76C174.171,-1072.11 166.587,-1061.27 159.819,-1051.6"/>
<polygon fill="black" stroke="black" points="162.501,-1049.33 153.899,-1043.15 156.767,-1053.35 162.501,-1049.33"/>
</g>
<!-- 22 -->
<g id="node23" class="node"><title>22</title>
<g id="a_node23"><a xlink:title="22, diversity: 1, multiplicities: 2, labels: 0">
<ellipse fill="#f7fcf5" stroke="black" cx="239.596" cy="-1026" rx="41.6928" ry="18"/>
<text text-anchor="middle" x="239.596" y="-1022.3" font-family="Times,serif" font-size="14.00">22 (1): 0</text>
</a>
</g>
</g>
<!-- 0&#45;&gt;22 -->
<g id="edge13" class="edge"><title>0&#45;&gt;22</title>
<path fill="none" stroke="black" d="M202.729,-1080.76C208.581,-1072.23 215.883,-1061.58 222.44,-1052.02"/>
<polygon fill="black" stroke="black" points="225.422,-1053.86 228.191,-1043.63 219.649,-1049.9 225.422,-1053.86"/>
</g>
<!-- 1 -->
<g id="node2" class="node"><title>1</title>
<g id="a_node2"><a xlink:title="1, diversity: 2, multiplicities: 1,2, labels: 0">
<ellipse fill="#f7fcf5" stroke="black" cx="441.596" cy="-954" rx="37.0935" ry="18"/>
<text text-anchor="middle" x="441.596" y="-950.3" font-family="Times,serif" font-size="14.00">1 (2): 0</text>
</a>
</g>
</g>
<!-- 13 -->
<g id="node14" class="node"><title>13</title>
<g id="a_node14"><a xlink:title="13, diversity: 1, multiplicities: 8, labels: 0">
<ellipse fill="#f7fcf5" stroke="black" cx="441.596" cy="-882" rx="41.6928" ry="18"/>
<text text-anchor="middle" x="441.596" y="-878.3" font-family="Times,serif" font-size="14.00">13 (1): 0</text>
</a>
</g>
</g>
<!-- 1&#45;&gt;13 -->
<g id="edge15" class="edge"><title>1&#45;&gt;13</title>
<path fill="none" stroke="black" d="M441.596,-935.697C441.596,-927.983 441.596,-918.712 441.596,-910.112"/>
<polygon fill="black" stroke="black" points="445.096,-910.104 441.596,-900.104 438.096,-910.104 445.096,-910.104"/>
</g>
<!-- 2 -->
<g id="node3" class="node"><title>2</title>
<g id="a_node3"><a xlink:title="2, diversity: 1, multiplicities: 2, labels: 0">
<ellipse fill="#f7fcf5" stroke="black" cx="142.596" cy="-450" rx="37.0935" ry="18"/>
<text text-anchor="middle" x="142.596" y="-446.3" font-family="Times,serif" font-size="14.00">2 (1): 0</text>
</a>
</g>
</g>
<!-- 21 -->
<g id="node22" class="node"><title>21</title>
<g id="a_node22"><a xlink:title="21, diversity: 1, multiplicities: 6, labels: 0">
<ellipse fill="#f7fcf5" stroke="black" cx="142.596" cy="-378" rx="41.6928" ry="18"/>
<text text-anchor="middle" x="142.596" y="-374.3" font-family="Times,serif" font-size="14.00">21 (1): 0</text>
</a>
</g>
</g>
<!-- 2&#45;&gt;21 -->
<g id="edge23" class="edge"><title>2&#45;&gt;21</title>
<path fill="none" stroke="black" d="M142.596,-431.697C142.596,-423.983 142.596,-414.712 142.596,-406.112"/>
<polygon fill="black" stroke="black" points="146.096,-406.104 142.596,-396.104 139.096,-406.104 146.096,-406.104"/>
</g>
<!-- 10 -->
<g id="node11" class="node"><title>10</title>
<g id="a_node11"><a xlink:title="10, diversity: 1, multiplicities: 11, labels: 0">
<ellipse fill="#f7fcf5" stroke="black" cx="41.5963" cy="-954" rx="41.6928" ry="18"/>
<text text-anchor="middle" x="41.5963" y="-950.3" font-family="Times,serif" font-size="14.00">10 (1): 0</text>
</a>
</g>
</g>
<!-- 3&#45;&gt;10 -->
<g id="edge9" class="edge"><title>3&#45;&gt;10</title>
<path fill="none" stroke="black" d="M45.3604,-1007.7C44.8094,-999.983 44.1472,-990.712 43.5329,-982.112"/>
<polygon fill="black" stroke="black" points="47.0217,-981.83 42.818,-972.104 40.0395,-982.328 47.0217,-981.83"/>
</g>
<!-- 4 -->
<g id="node5" class="node"><title>4</title>
<g id="a_node5"><a xlink:title="4, diversity: 2, multiplicities: 3,18, labels: 0">
<ellipse fill="#f7fcf5" stroke="black" cx="340.596" cy="-1170" rx="37.0935" ry="18"/>
<text text-anchor="middle" x="340.596" y="-1166.3" font-family="Times,serif" font-size="14.00">4 (2): 0</text>
</a>
</g>
</g>
<!-- 4&#45;&gt;0 -->
<g id="edge7" class="edge"><title>4&#45;&gt;0</title>
<path fill="none" stroke="black" d="M314.982,-1156.97C290.569,-1145.5 253.617,-1128.14 226.514,-1115.4"/>
<polygon fill="black" stroke="black" points="227.914,-1112.2 217.375,-1111.11 224.937,-1118.53 227.914,-1112.2"/>
</g>
<!-- 12 -->
<g id="node13" class="node"><title>12</title>
<g id="a_node13"><a xlink:title="12, diversity: 2, multiplicities: 1,1, labels: 0">
<ellipse fill="#f7fcf5" stroke="black" cx="340.596" cy="-1098" rx="41.6928" ry="18"/>
<text text-anchor="middle" x="340.596" y="-1094.3" font-family="Times,serif" font-size="14.00">12 (2): 0</text>
</a>
</g>
</g>
<!-- 4&#45;&gt;12 -->
<g id="edge3" class="edge"><title>4&#45;&gt;12</title>
<path fill="none" stroke="black" d="M340.596,-1151.7C340.596,-1143.98 340.596,-1134.71 340.596,-1126.11"/>
<polygon fill="black" stroke="black" points="344.096,-1126.1 340.596,-1116.1 337.096,-1126.1 344.096,-1126.1"/>
</g>
<!-- 24 -->
<g id="node25" class="node"><title>24</title>
<g id="a_node25"><a xlink:title="24, diversity: 1, multiplicities: 1, labels: 0">
<ellipse fill="#f7fcf5" stroke="black" cx="441.596" cy="-1098" rx="41.6928" ry="18"/>
<text text-anchor="middle" x="441.596" y="-1094.3" font-family="Times,serif" font-size="14.00">24 (1): 0</text>
</a>
</g>
</g>
<!-- 4&#45;&gt;24 -->
<g id="edge11" class="edge"><title>4&#45;&gt;24</title>
<path fill="none" stroke="black" d="M361.035,-1154.83C375.626,-1144.72 395.48,-1130.96 411.827,-1119.63"/>
<polygon fill="black" stroke="black" points="414.267,-1122.2 420.493,-1113.63 410.28,-1116.45 414.267,-1122.2"/>
</g>
<!-- 11 -->
<g id="node12" class="node"><title>11</title>
<g id="a_node12"><a xlink:title="11, diversity: 3, multiplicities: 1,1,2, labels: 0">
<ellipse fill="#f7fcf5" stroke="black" cx="142.596" cy="-954" rx="41.6928" ry="18"/>
<text text-anchor="middle" x="142.596" y="-950.3" font-family="Times,serif" font-size="14.00">11 (3): 0</text>
</a>
</g>
</g>
<!-- 5&#45;&gt;11 -->
<g id="edge14" class="edge"><title>5&#45;&gt;11</title>
<path fill="none" stroke="black" d="M142.596,-1007.7C142.596,-999.983 142.596,-990.712 142.596,-982.112"/>
<polygon fill="black" stroke="black" points="146.096,-982.104 142.596,-972.104 139.096,-982.104 146.096,-982.104"/>
</g>
<!-- 6 -->
<g id="node7" class="node"><title>6</title>
<g id="a_node7"><a xlink:title="6, diversity: 1, multiplicities: 5, labels: 0">
<ellipse fill="#f7fcf5" stroke="black" cx="239.596" cy="-954" rx="37.0935" ry="18"/>
<text text-anchor="middle" x="239.596" y="-950.3" font-family="Times,serif" font-size="14.00">6 (1): 0</text>
</a>
</g>
</g>
<!-- 7 -->
<g id="node8" class="node"><title>7</title>
<g id="a_node8"><a xlink:title="7, diversity: 1, multiplicities: 3, labels: 0">
<ellipse fill="#f7fcf5" stroke="black" cx="142.596" cy="-234" rx="37.0935" ry="18"/>
<text text-anchor="middle" x="142.596" y="-230.3" font-family="Times,serif" font-size="14.00">7 (1): 0</text>
</a>
</g>
</g>
<!-- 8 -->
<g id="node9" class="node"><title>8</title>
<g id="a_node9"><a xlink:title="8, diversity: 1, multiplicities: 1, labels: 0">
<ellipse fill="#f7fcf5" stroke="black" cx="142.596" cy="-162" rx="37.0935" ry="18"/>
<text text-anchor="middle" x="142.596" y="-158.3" font-family="Times,serif" font-size="14.00">8 (1): 0</text>
</a>
</g>
</g>
<!-- 7&#45;&gt;8 -->
<g id="edge26" class="edge"><title>7&#45;&gt;8</title>
<path fill="none" stroke="black" d="M142.596,-215.697C142.596,-207.983 142.596,-198.712 142.596,-190.112"/>
<polygon fill="black" stroke="black" points="146.096,-190.104 142.596,-180.104 139.096,-190.104 146.096,-190.104"/>
</g>
<!-- 18 -->
<g id="node19" class="node"><title>18</title>
<g id="a_node19"><a xlink:title="18, diversity: 2, multiplicities: 1,2, labels: 0">
<ellipse fill="#f7fcf5" stroke="black" cx="142.596" cy="-90" rx="41.6928" ry="18"/>
<text text-anchor="middle" x="142.596" y="-86.3" font-family="Times,serif" font-size="14.00">18 (2): 0</text>
</a>
</g>
</g>
<!-- 8&#45;&gt;18 -->
<g id="edge24" class="edge"><title>8&#45;&gt;18</title>
<path fill="none" stroke="black" d="M142.596,-143.697C142.596,-135.983 142.596,-126.712 142.596,-118.112"/>
<polygon fill="black" stroke="black" points="146.096,-118.104 142.596,-108.104 139.096,-118.104 146.096,-118.104"/>
</g>
<!-- 9 -->
<g id="node10" class="node"><title>9</title>
<g id="a_node10"><a xlink:title="9, diversity: 1, multiplicities: 5, labels: 0">
<ellipse fill="#f7fcf5" stroke="black" cx="142.596" cy="-18" rx="37.0935" ry="18"/>
<text text-anchor="middle" x="142.596" y="-14.3" font-family="Times,serif" font-size="14.00">9 (1): 0</text>
</a>
</g>
</g>
<!-- 14 -->
<g id="node15" class="node"><title>14</title>
<g id="a_node15"><a xlink:title="14, diversity: 1, multiplicities: 1, labels: 0">
<ellipse fill="#f7fcf5" stroke="black" cx="142.596" cy="-882" rx="41.6928" ry="18"/>
<text text-anchor="middle" x="142.596" y="-878.3" font-family="Times,serif" font-size="14.00">14 (1): 0</text>
</a>
</g>
</g>
<!-- 11&#45;&gt;14 -->
<g id="edge4" class="edge"><title>11&#45;&gt;14</title>
<path fill="none" stroke="black" d="M142.596,-935.697C142.596,-927.983 142.596,-918.712 142.596,-910.112"/>
<polygon fill="black" stroke="black" points="146.096,-910.104 142.596,-900.104 139.096,-910.104 146.096,-910.104"/>
</g>
<!-- 15 -->
<g id="node16" class="node"><title>15</title>
<g id="a_node16"><a xlink:title="15, diversity: 1, multiplicities: 5, labels: 0">
<ellipse fill="#f7fcf5" stroke="black" cx="340.596" cy="-1026" rx="41.6928" ry="18"/>
<text text-anchor="middle" x="340.596" y="-1022.3" font-family="Times,serif" font-size="14.00">15 (1): 0</text>
</a>
</g>
</g>
<!-- 12&#45;&gt;15 -->
<g id="edge21" class="edge"><title>12&#45;&gt;15</title>
<path fill="none" stroke="black" d="M340.596,-1079.7C340.596,-1071.98 340.596,-1062.71 340.596,-1054.11"/>
<polygon fill="black" stroke="black" points="344.096,-1054.1 340.596,-1044.1 337.096,-1054.1 344.096,-1054.1"/>
</g>
<!-- 23 -->
<g id="node24" class="node"><title>23</title>
<g id="a_node24"><a xlink:title="23, diversity: 2, multiplicities: 1,2, labels: 0">
<ellipse fill="#f7fcf5" stroke="black" cx="142.596" cy="-810" rx="41.6928" ry="18"/>
<text text-anchor="middle" x="142.596" y="-806.3" font-family="Times,serif" font-size="14.00">23 (2): 0</text>
</a>
</g>
</g>
<!-- 14&#45;&gt;23 -->
<g id="edge12" class="edge"><title>14&#45;&gt;23</title>
<path fill="none" stroke="black" d="M142.596,-863.697C142.596,-855.983 142.596,-846.712 142.596,-838.112"/>
<polygon fill="black" stroke="black" points="146.096,-838.104 142.596,-828.104 139.096,-838.104 146.096,-838.104"/>
</g>
<!-- 16 -->
<g id="node17" class="node"><title>16</title>
<g id="a_node17"><a xlink:title="16, diversity: 1, multiplicities: 1, labels: 0">
<ellipse fill="#f7fcf5" stroke="black" cx="142.596" cy="-666" rx="41.6928" ry="18"/>
<text text-anchor="middle" x="142.596" y="-662.3" font-family="Times,serif" font-size="14.00">16 (1): 0</text>
</a>
</g>
</g>
<!-- 20 -->
<g id="node21" class="node"><title>20</title>
<g id="a_node21"><a xlink:title="20, diversity: 1, multiplicities: 1, labels: 0">
<ellipse fill="#f7fcf5" stroke="black" cx="142.596" cy="-594" rx="41.6928" ry="18"/>
<text text-anchor="middle" x="142.596" y="-590.3" font-family="Times,serif" font-size="14.00">20 (1): 0</text>
</a>
</g>
</g>
<!-- 16&#45;&gt;20 -->
<g id="edge25" class="edge"><title>16&#45;&gt;20</title>
<path fill="none" stroke="black" d="M142.596,-647.697C142.596,-639.983 142.596,-630.712 142.596,-622.112"/>
<polygon fill="black" stroke="black" points="146.096,-622.104 142.596,-612.104 139.096,-622.104 146.096,-622.104"/>
</g>
<!-- 17 -->
<g id="node18" class="node"><title>17</title>
<g id="a_node18"><a xlink:title="17, diversity: 1, multiplicities: 1, labels: 0">
<ellipse fill="#f7fcf5" stroke="black" cx="441.596" cy="-1026" rx="41.6928" ry="18"/>
<text text-anchor="middle" x="441.596" y="-1022.3" font-family="Times,serif" font-size="14.00">17 (1): 0</text>
</a>
</g>
</g>
<!-- 17&#45;&gt;1 -->
<g id="edge16" class="edge"><title>17&#45;&gt;1</title>
<path fill="none" stroke="black" d="M441.596,-1007.7C441.596,-999.983 441.596,-990.712 441.596,-982.112"/>
<polygon fill="black" stroke="black" points="445.096,-982.104 441.596,-972.104 438.096,-982.104 445.096,-982.104"/>
</g>
<!-- 18&#45;&gt;9 -->
<g id="edge10" class="edge"><title>18&#45;&gt;9</title>
<path fill="none" stroke="black" d="M142.596,-71.6966C142.596,-63.9827 142.596,-54.7125 142.596,-46.1124"/>
<polygon fill="black" stroke="black" points="146.096,-46.1043 142.596,-36.1043 139.096,-46.1044 146.096,-46.1043"/>
</g>
<!-- 19 -->
<g id="node20" class="node"><title>19</title>
<g id="a_node20"><a xlink:title="19, diversity: 1, multiplicities: 4, labels: 0">
<ellipse fill="#f7fcf5" stroke="black" cx="142.596" cy="-738" rx="41.6928" ry="18"/>
<text text-anchor="middle" x="142.596" y="-734.3" font-family="Times,serif" font-size="14.00">19 (1): 0</text>
</a>
</g>
</g>
<!-- 19&#45;&gt;16 -->
<g id="edge22" class="edge"><title>19&#45;&gt;16</title>
<path fill="none" stroke="black" d="M142.596,-719.697C142.596,-711.983 142.596,-702.712 142.596,-694.112"/>
<polygon fill="black" stroke="black" points="146.096,-694.104 142.596,-684.104 139.096,-694.104 146.096,-694.104"/>
</g>
<!-- 26 -->
<g id="node27" class="node"><title>26</title>
<g id="a_node27"><a xlink:title="26, diversity: 1, multiplicities: 1, labels: 0">
<ellipse fill="#f7fcf5" stroke="black" cx="142.596" cy="-522" rx="41.6928" ry="18"/>
<text text-anchor="middle" x="142.596" y="-518.3" font-family="Times,serif" font-size="14.00">26 (1): 0</text>
</a>
</g>
</g>
<!-- 20&#45;&gt;26 -->
<g id="edge8" class="edge"><title>20&#45;&gt;26</title>
<path fill="none" stroke="black" d="M142.596,-575.697C142.596,-567.983 142.596,-558.712 142.596,-550.112"/>
<polygon fill="black" stroke="black" points="146.096,-550.104 142.596,-540.104 139.096,-550.104 146.096,-550.104"/>
</g>
<!-- 25 -->
<g id="node26" class="node"><title>25</title>
<g id="a_node26"><a xlink:title="25, diversity: 1, multiplicities: 1, labels: 0">
<ellipse fill="#f7fcf5" stroke="black" cx="142.596" cy="-306" rx="41.6928" ry="18"/>
<text text-anchor="middle" x="142.596" y="-302.3" font-family="Times,serif" font-size="14.00">25 (1): 0</text>
</a>
</g>
</g>
<!-- 21&#45;&gt;25 -->
<g id="edge18" class="edge"><title>21&#45;&gt;25</title>
<path fill="none" stroke="black" d="M142.596,-359.697C142.596,-351.983 142.596,-342.712 142.596,-334.112"/>
<polygon fill="black" stroke="black" points="146.096,-334.104 142.596,-324.104 139.096,-334.104 146.096,-334.104"/>
</g>
<!-- 22&#45;&gt;6 -->
<g id="edge5" class="edge"><title>22&#45;&gt;6</title>
<path fill="none" stroke="black" d="M239.596,-1007.7C239.596,-999.983 239.596,-990.712 239.596,-982.112"/>
<polygon fill="black" stroke="black" points="243.096,-982.104 239.596,-972.104 236.096,-982.104 243.096,-982.104"/>
</g>
<!-- 23&#45;&gt;19 -->
<g id="edge20" class="edge"><title>23&#45;&gt;19</title>
<path fill="none" stroke="black" d="M142.596,-791.697C142.596,-783.983 142.596,-774.712 142.596,-766.112"/>
<polygon fill="black" stroke="black" points="146.096,-766.104 142.596,-756.104 139.096,-766.104 146.096,-766.104"/>
</g>
<!-- 24&#45;&gt;17 -->
<g id="edge1" class="edge"><title>24&#45;&gt;17</title>
<path fill="none" stroke="black" d="M441.596,-1079.7C441.596,-1071.98 441.596,-1062.71 441.596,-1054.11"/>
<polygon fill="black" stroke="black" points="445.096,-1054.1 441.596,-1044.1 438.096,-1054.1 445.096,-1054.1"/>
</g>
<!-- 25&#45;&gt;7 -->
<g id="edge17" class="edge"><title>25&#45;&gt;7</title>
<path fill="none" stroke="black" d="M142.596,-287.697C142.596,-279.983 142.596,-270.712 142.596,-262.112"/>
<polygon fill="black" stroke="black" points="146.096,-262.104 142.596,-252.104 139.096,-262.104 146.096,-262.104"/>
</g>
<!-- 26&#45;&gt;2 -->
<g id="edge2" class="edge"><title>26&#45;&gt;2</title>
<path fill="none" stroke="black" d="M142.596,-503.697C142.596,-495.983 142.596,-486.712 142.596,-478.112"/>
<polygon fill="black" stroke="black" points="146.096,-478.104 142.596,-468.104 139.096,-478.104 146.096,-478.104"/>
</g>
</g>
</svg>
