<?xml version="1.0" encoding="UTF-8" standalone="no"?>
<!DOCTYPE svg PUBLIC "-//W3C//DTD SVG 1.1//EN"
 "http://www.w3.org/Graphics/SVG/1.1/DTD/svg11.dtd">
<!-- Generated by graphviz version 2.38.0 (20140413.2041)
 -->
<!-- Title: %3 Pages: 1 -->
<svg width="1057pt" height="1412pt"
 viewBox="0.00 0.00 1056.74 1412.00" xmlns="http://www.w3.org/2000/svg" xmlns:xlink="http://www.w3.org/1999/xlink">
<g id="graph0" class="graph" transform="scale(1 1) rotate(0) translate(4 1408)">
<title>%3</title>
<polygon fill="white" stroke="none" points="-4,4 -4,-1408 1052.74,-1408 1052.74,4 -4,4"/>
<!-- 0 -->
<g id="node1" class="node"><title>0</title>
<g id="a_node1"><a xlink:title="0, diversity: 1, multiplicities: 11, labels: 14">
<ellipse fill="#fca082" stroke="black" cx="41.5963" cy="-1170" rx="41.6928" ry="18"/>
<text text-anchor="middle" x="41.5963" y="-1166.3" font-family="Times,serif" font-size="14.00">0 (1): 14</text>
</a>
</g>
</g>
<!-- 1 -->
<g id="node2" class="node"><title>1</title>
<g id="a_node2"><a xlink:title="1, diversity: 1, multiplicities: 16, labels: 14">
<ellipse fill="#fca082" stroke="black" cx="41.5963" cy="-1098" rx="41.6928" ry="18"/>
<text text-anchor="middle" x="41.5963" y="-1094.3" font-family="Times,serif" font-size="14.00">1 (1): 14</text>
</a>
</g>
</g>
<!-- 0&#45;&gt;1 -->
<g id="edge42" class="edge"><title>0&#45;&gt;1</title>
<path fill="none" stroke="black" d="M41.5963,-1151.7C41.5963,-1143.98 41.5963,-1134.71 41.5963,-1126.11"/>
<polygon fill="black" stroke="black" points="45.0964,-1126.1 41.5963,-1116.1 38.0964,-1126.1 45.0964,-1126.1"/>
</g>
<!-- 2 -->
<g id="node3" class="node"><title>2</title>
<g id="a_node3"><a xlink:title="2, diversity: 1, multiplicities: 13, labels: 14">
<ellipse fill="#fca082" stroke="black" cx="142.596" cy="-1170" rx="41.6928" ry="18"/>
<text text-anchor="middle" x="142.596" y="-1166.3" font-family="Times,serif" font-size="14.00">2 (1): 14</text>
</a>
</g>
</g>
<!-- 3 -->
<g id="node4" class="node"><title>3</title>
<g id="a_node4"><a xlink:title="3, diversity: 1, multiplicities: 9, labels: 14">
<ellipse fill="#fcc4ad" stroke="black" cx="243.596" cy="-1170" rx="41.6928" ry="18"/>
<text text-anchor="middle" x="243.596" y="-1166.3" font-family="Times,serif" font-size="14.00">3 (1): 14</text>
</a>
</g>
</g>
<!-- 4 -->
<g id="node5" class="node"><title>4</title>
<g id="a_node5"><a xlink:title="4, diversity: 1, multiplicities: 87, labels: 14">
<ellipse fill="#fca082" stroke="black" cx="344.596" cy="-1170" rx="41.6928" ry="18"/>
<text text-anchor="middle" x="344.596" y="-1166.3" font-family="Times,serif" font-size="14.00">4 (1): 14</text>
</a>
</g>
</g>
<!-- 5 -->
<g id="node6" class="node"><title>5</title>
<g id="a_node6"><a xlink:title="5, diversity: 1, multiplicities: 7, labels: 14">
<ellipse fill="#fcc4ad" stroke="black" cx="291.596" cy="-1098" rx="41.6928" ry="18"/>
<text text-anchor="middle" x="291.596" y="-1094.3" font-family="Times,serif" font-size="14.00">5 (1): 14</text>
</a>
</g>
</g>
<!-- 4&#45;&gt;5 -->
<g id="edge31" class="edge"><title>4&#45;&gt;5</title>
<path fill="none" stroke="black" d="M332.304,-1152.76C325.776,-1144.14 317.615,-1133.36 310.318,-1123.73"/>
<polygon fill="black" stroke="black" points="313.017,-1121.49 304.19,-1115.63 307.436,-1125.72 313.017,-1121.49"/>
</g>
<!-- 22 -->
<g id="node23" class="node"><title>22</title>
<g id="a_node23"><a xlink:title="22, diversity: 1, multiplicities: 1, labels: 14">
<ellipse fill="#fff5f0" stroke="black" cx="397.596" cy="-1098" rx="46.2923" ry="18"/>
<text text-anchor="middle" x="397.596" y="-1094.3" font-family="Times,serif" font-size="14.00">22 (1): 14</text>
</a>
</g>
</g>
<!-- 4&#45;&gt;22 -->
<g id="edge12" class="edge"><title>4&#45;&gt;22</title>
<path fill="none" stroke="black" d="M356.889,-1152.76C363.417,-1144.14 371.577,-1133.36 378.875,-1123.73"/>
<polygon fill="black" stroke="black" points="381.756,-1125.72 385.002,-1115.63 376.176,-1121.49 381.756,-1125.72"/>
</g>
<!-- 6 -->
<g id="node7" class="node"><title>6</title>
<g id="a_node7"><a xlink:title="6, diversity: 1, multiplicities: 4, labels: 14">
<ellipse fill="#fee3d6" stroke="black" cx="167.596" cy="-1242" rx="41.6928" ry="18"/>
<text text-anchor="middle" x="167.596" y="-1238.3" font-family="Times,serif" font-size="14.00">6 (1): 14</text>
</a>
</g>
</g>
<!-- 6&#45;&gt;0 -->
<g id="edge33" class="edge"><title>6&#45;&gt;0</title>
<path fill="none" stroke="black" d="M143.003,-1227.34C123.577,-1216.54 96.272,-1201.38 74.8889,-1189.5"/>
<polygon fill="black" stroke="black" points="76.5688,-1186.43 66.1275,-1184.63 73.1693,-1192.54 76.5688,-1186.43"/>
</g>
<!-- 6&#45;&gt;2 -->
<g id="edge10" class="edge"><title>6&#45;&gt;2</title>
<path fill="none" stroke="black" d="M161.545,-1224.05C158.731,-1216.18 155.316,-1206.62 152.166,-1197.79"/>
<polygon fill="black" stroke="black" points="155.426,-1196.52 148.766,-1188.28 148.833,-1198.87 155.426,-1196.52"/>
</g>
<!-- 6&#45;&gt;3 -->
<g id="edge21" class="edge"><title>6&#45;&gt;3</title>
<path fill="none" stroke="black" d="M184.463,-1225.46C194.696,-1216.04 207.927,-1203.85 219.278,-1193.4"/>
<polygon fill="black" stroke="black" points="221.792,-1195.84 226.777,-1186.49 217.05,-1190.69 221.792,-1195.84"/>
</g>
<!-- 7 -->
<g id="node8" class="node"><title>7</title>
<g id="a_node8"><a xlink:title="7, diversity: 1, multiplicities: 5, labels: 14">
<ellipse fill="#fee3d6" stroke="black" cx="318.596" cy="-1242" rx="41.6928" ry="18"/>
<text text-anchor="middle" x="318.596" y="-1238.3" font-family="Times,serif" font-size="14.00">7 (1): 14</text>
</a>
</g>
</g>
<!-- 7&#45;&gt;4 -->
<g id="edge47" class="edge"><title>7&#45;&gt;4</title>
<path fill="none" stroke="black" d="M324.89,-1224.05C327.817,-1216.18 331.367,-1206.62 334.644,-1197.79"/>
<polygon fill="black" stroke="black" points="337.979,-1198.87 338.18,-1188.28 331.417,-1196.43 337.979,-1198.87"/>
</g>
<!-- 8 -->
<g id="node9" class="node"><title>8</title>
<g id="a_node9"><a xlink:title="8, diversity: 1, multiplicities: 1, labels: 14">
<ellipse fill="#fff5f0" stroke="black" cx="371.596" cy="-1314" rx="41.6928" ry="18"/>
<text text-anchor="middle" x="371.596" y="-1310.3" font-family="Times,serif" font-size="14.00">8 (1): 14</text>
</a>
</g>
</g>
<!-- 8&#45;&gt;6 -->
<g id="edge24" class="edge"><title>8&#45;&gt;6</title>
<path fill="none" stroke="black" d="M339.721,-1302.06C304.54,-1289.99 247.788,-1270.52 209.145,-1257.26"/>
<polygon fill="black" stroke="black" points="209.842,-1253.8 199.247,-1253.86 207.57,-1260.42 209.842,-1253.8"/>
</g>
<!-- 8&#45;&gt;7 -->
<g id="edge37" class="edge"><title>8&#45;&gt;7</title>
<path fill="none" stroke="black" d="M359.304,-1296.76C352.776,-1288.14 344.615,-1277.36 337.318,-1267.73"/>
<polygon fill="black" stroke="black" points="340.017,-1265.49 331.19,-1259.63 334.436,-1269.72 340.017,-1265.49"/>
</g>
<!-- 43 -->
<g id="node44" class="node"><title>43</title>
<g id="a_node44"><a xlink:title="43, diversity: 1, multiplicities: 17, labels: 14">
<ellipse fill="#fca082" stroke="black" cx="424.596" cy="-1242" rx="46.2923" ry="18"/>
<text text-anchor="middle" x="424.596" y="-1238.3" font-family="Times,serif" font-size="14.00">43 (1): 14</text>
</a>
</g>
</g>
<!-- 8&#45;&gt;43 -->
<g id="edge46" class="edge"><title>8&#45;&gt;43</title>
<path fill="none" stroke="black" d="M383.889,-1296.76C390.417,-1288.14 398.577,-1277.36 405.875,-1267.73"/>
<polygon fill="black" stroke="black" points="408.756,-1269.72 412.002,-1259.63 403.176,-1265.49 408.756,-1269.72"/>
</g>
<!-- 46 -->
<g id="node47" class="node"><title>46</title>
<g id="a_node47"><a xlink:title="46, diversity: 1, multiplicities: 6, labels: 14">
<ellipse fill="#fcc4ad" stroke="black" cx="534.596" cy="-1242" rx="46.2923" ry="18"/>
<text text-anchor="middle" x="534.596" y="-1238.3" font-family="Times,serif" font-size="14.00">46 (1): 14</text>
</a>
</g>
</g>
<!-- 8&#45;&gt;46 -->
<g id="edge28" class="edge"><title>8&#45;&gt;46</title>
<path fill="none" stroke="black" d="M399.989,-1300.81C426.294,-1289.51 465.674,-1272.6 495.052,-1259.98"/>
<polygon fill="black" stroke="black" points="496.791,-1263.04 504.599,-1255.88 494.029,-1256.61 496.791,-1263.04"/>
</g>
<!-- 9 -->
<g id="node10" class="node"><title>9</title>
<g id="a_node10"><a xlink:title="9, diversity: 1, multiplicities: 91, labels: 14">
<ellipse fill="#fca082" stroke="black" cx="344.596" cy="-594" rx="41.6928" ry="18"/>
<text text-anchor="middle" x="344.596" y="-590.3" font-family="Times,serif" font-size="14.00">9 (1): 14</text>
</a>
</g>
</g>
<!-- 10 -->
<g id="node11" class="node"><title>10</title>
<g id="a_node11"><a xlink:title="10, diversity: 2, multiplicities: 17,50, labels: 14">
<ellipse fill="#fca082" stroke="black" cx="342.596" cy="-522" rx="46.2923" ry="18"/>
<text text-anchor="middle" x="342.596" y="-518.3" font-family="Times,serif" font-size="14.00">10 (2): 14</text>
</a>
</g>
</g>
<!-- 9&#45;&gt;10 -->
<g id="edge35" class="edge"><title>9&#45;&gt;10</title>
<path fill="none" stroke="black" d="M344.102,-575.697C343.882,-567.983 343.617,-558.712 343.371,-550.112"/>
<polygon fill="black" stroke="black" points="346.869,-550 343.085,-540.104 339.872,-550.2 346.869,-550"/>
</g>
<!-- 16 -->
<g id="node17" class="node"><title>16</title>
<g id="a_node17"><a xlink:title="16, diversity: 1, multiplicities: 39, labels: 14">
<ellipse fill="#fca082" stroke="black" cx="342.596" cy="-450" rx="46.2923" ry="18"/>
<text text-anchor="middle" x="342.596" y="-446.3" font-family="Times,serif" font-size="14.00">16 (1): 14</text>
</a>
</g>
</g>
<!-- 10&#45;&gt;16 -->
<g id="edge45" class="edge"><title>10&#45;&gt;16</title>
<path fill="none" stroke="black" d="M342.596,-503.697C342.596,-495.983 342.596,-486.712 342.596,-478.112"/>
<polygon fill="black" stroke="black" points="346.096,-478.104 342.596,-468.104 339.096,-478.104 346.096,-478.104"/>
</g>
<!-- 11 -->
<g id="node12" class="node"><title>11</title>
<g id="a_node12"><a xlink:title="11, diversity: 1, multiplicities: 1, labels: 14">
<ellipse fill="#fff5f0" stroke="black" cx="452.596" cy="-594" rx="46.2923" ry="18"/>
<text text-anchor="middle" x="452.596" y="-590.3" font-family="Times,serif" font-size="14.00">11 (1): 14</text>
</a>
</g>
</g>
<!-- 49 -->
<g id="node50" class="node"><title>49</title>
<g id="a_node50"><a xlink:title="49, diversity: 1, multiplicities: 20, labels: 14">
<ellipse fill="#fca082" stroke="black" cx="452.596" cy="-522" rx="46.2923" ry="18"/>
<text text-anchor="middle" x="452.596" y="-518.3" font-family="Times,serif" font-size="14.00">49 (1): 14</text>
</a>
</g>
</g>
<!-- 11&#45;&gt;49 -->
<g id="edge2" class="edge"><title>11&#45;&gt;49</title>
<path fill="none" stroke="black" d="M452.596,-575.697C452.596,-567.983 452.596,-558.712 452.596,-550.112"/>
<polygon fill="black" stroke="black" points="456.096,-550.104 452.596,-540.104 449.096,-550.104 456.096,-550.104"/>
</g>
<!-- 12 -->
<g id="node13" class="node"><title>12</title>
<g id="a_node13"><a xlink:title="12, diversity: 1, multiplicities: 1, labels: 14">
<ellipse fill="#fff5f0" stroke="black" cx="342.596" cy="-378" rx="46.2923" ry="18"/>
<text text-anchor="middle" x="342.596" y="-374.3" font-family="Times,serif" font-size="14.00">12 (1): 14</text>
</a>
</g>
</g>
<!-- 14 -->
<g id="node15" class="node"><title>14</title>
<g id="a_node15"><a xlink:title="14, diversity: 2, multiplicities: 2,92, labels: 14">
<ellipse fill="#fca082" stroke="black" cx="342.596" cy="-306" rx="46.2923" ry="18"/>
<text text-anchor="middle" x="342.596" y="-302.3" font-family="Times,serif" font-size="14.00">14 (2): 14</text>
</a>
</g>
</g>
<!-- 12&#45;&gt;14 -->
<g id="edge29" class="edge"><title>12&#45;&gt;14</title>
<path fill="none" stroke="black" d="M342.596,-359.697C342.596,-351.983 342.596,-342.712 342.596,-334.112"/>
<polygon fill="black" stroke="black" points="346.096,-334.104 342.596,-324.104 339.096,-334.104 346.096,-334.104"/>
</g>
<!-- 13 -->
<g id="node14" class="node"><title>13</title>
<g id="a_node14"><a xlink:title="13, diversity: 1, multiplicities: 56, labels: 14">
<ellipse fill="#fca082" stroke="black" cx="562.596" cy="-594" rx="46.2923" ry="18"/>
<text text-anchor="middle" x="562.596" y="-590.3" font-family="Times,serif" font-size="14.00">13 (1): 14</text>
</a>
</g>
</g>
<!-- 26 -->
<g id="node27" class="node"><title>26</title>
<g id="a_node27"><a xlink:title="26, diversity: 1, multiplicities: 13, labels: 14">
<ellipse fill="#fca082" stroke="black" cx="562.596" cy="-522" rx="46.2923" ry="18"/>
<text text-anchor="middle" x="562.596" y="-518.3" font-family="Times,serif" font-size="14.00">26 (1): 14</text>
</a>
</g>
</g>
<!-- 13&#45;&gt;26 -->
<g id="edge32" class="edge"><title>13&#45;&gt;26</title>
<path fill="none" stroke="black" d="M562.596,-575.697C562.596,-567.983 562.596,-558.712 562.596,-550.112"/>
<polygon fill="black" stroke="black" points="566.096,-550.104 562.596,-540.104 559.096,-550.104 566.096,-550.104"/>
</g>
<!-- 28 -->
<g id="node29" class="node"><title>28</title>
<g id="a_node29"><a xlink:title="28, diversity: 1, multiplicities: 6, labels: 14">
<ellipse fill="#fcc4ad" stroke="black" cx="287.596" cy="-234" rx="46.2923" ry="18"/>
<text text-anchor="middle" x="287.596" y="-230.3" font-family="Times,serif" font-size="14.00">28 (1): 14</text>
</a>
</g>
</g>
<!-- 14&#45;&gt;28 -->
<g id="edge4" class="edge"><title>14&#45;&gt;28</title>
<path fill="none" stroke="black" d="M329.562,-288.411C322.781,-279.781 314.359,-269.062 306.844,-259.497"/>
<polygon fill="black" stroke="black" points="309.467,-257.171 300.537,-251.47 303.963,-261.496 309.467,-257.171"/>
</g>
<!-- 30 -->
<g id="node31" class="node"><title>30</title>
<g id="a_node31"><a xlink:title="30, diversity: 1, multiplicities: 1, labels: 14">
<ellipse fill="#fff5f0" stroke="black" cx="397.596" cy="-234" rx="46.2923" ry="18"/>
<text text-anchor="middle" x="397.596" y="-230.3" font-family="Times,serif" font-size="14.00">30 (1): 14</text>
</a>
</g>
</g>
<!-- 14&#45;&gt;30 -->
<g id="edge20" class="edge"><title>14&#45;&gt;30</title>
<path fill="none" stroke="black" d="M355.631,-288.411C362.412,-279.781 370.833,-269.062 378.349,-259.497"/>
<polygon fill="black" stroke="black" points="381.23,-261.496 384.656,-251.47 375.725,-257.171 381.23,-261.496"/>
</g>
<!-- 15 -->
<g id="node16" class="node"><title>15</title>
<g id="a_node16"><a xlink:title="15, diversity: 1, multiplicities: 138, labels: 14">
<ellipse fill="#fb7c5c" stroke="black" cx="672.596" cy="-666" rx="46.2923" ry="18"/>
<text text-anchor="middle" x="672.596" y="-662.3" font-family="Times,serif" font-size="14.00">15 (1): 14</text>
</a>
</g>
</g>
<!-- 15&#45;&gt;9 -->
<g id="edge49" class="edge"><title>15&#45;&gt;9</title>
<path fill="none" stroke="black" d="M630.318,-658.472C576.026,-649.719 479.089,-632.842 397.596,-612 393.757,-611.018 389.787,-609.914 385.827,-608.753"/>
<polygon fill="black" stroke="black" points="386.671,-605.351 376.085,-605.785 384.631,-612.047 386.671,-605.351"/>
</g>
<!-- 15&#45;&gt;11 -->
<g id="edge22" class="edge"><title>15&#45;&gt;11</title>
<path fill="none" stroke="black" d="M637.737,-653.908C599.6,-641.774 538.38,-622.295 496.873,-609.088"/>
<polygon fill="black" stroke="black" points="497.883,-605.737 487.293,-606.04 495.761,-612.407 497.883,-605.737"/>
</g>
<!-- 15&#45;&gt;13 -->
<g id="edge16" class="edge"><title>15&#45;&gt;13</title>
<path fill="none" stroke="black" d="M649.537,-650.326C633.55,-640.152 612.053,-626.472 594.435,-615.261"/>
<polygon fill="black" stroke="black" points="595.941,-612.071 585.626,-609.655 592.183,-617.977 595.941,-612.071"/>
</g>
<!-- 32 -->
<g id="node33" class="node"><title>32</title>
<g id="a_node33"><a xlink:title="32, diversity: 1, multiplicities: 64, labels: 14">
<ellipse fill="#fca082" stroke="black" cx="672.596" cy="-594" rx="46.2923" ry="18"/>
<text text-anchor="middle" x="672.596" y="-590.3" font-family="Times,serif" font-size="14.00">32 (1): 14</text>
</a>
</g>
</g>
<!-- 15&#45;&gt;32 -->
<g id="edge7" class="edge"><title>15&#45;&gt;32</title>
<path fill="none" stroke="black" d="M672.596,-647.697C672.596,-639.983 672.596,-630.712 672.596,-622.112"/>
<polygon fill="black" stroke="black" points="676.096,-622.104 672.596,-612.104 669.096,-622.104 676.096,-622.104"/>
</g>
<!-- 34 -->
<g id="node35" class="node"><title>34</title>
<g id="a_node35"><a xlink:title="34, diversity: 1, multiplicities: 8, labels: 14">
<ellipse fill="#fcc4ad" stroke="black" cx="782.596" cy="-594" rx="46.2923" ry="18"/>
<text text-anchor="middle" x="782.596" y="-590.3" font-family="Times,serif" font-size="14.00">34 (1): 14</text>
</a>
</g>
</g>
<!-- 15&#45;&gt;34 -->
<g id="edge30" class="edge"><title>15&#45;&gt;34</title>
<path fill="none" stroke="black" d="M695.656,-650.326C711.643,-640.152 733.14,-626.472 750.757,-615.261"/>
<polygon fill="black" stroke="black" points="753.01,-617.977 759.567,-609.655 749.251,-612.071 753.01,-617.977"/>
</g>
<!-- 35 -->
<g id="node36" class="node"><title>35</title>
<g id="a_node36"><a xlink:title="35, diversity: 1, multiplicities: 80, labels: 14">
<ellipse fill="#fca082" stroke="black" cx="892.596" cy="-594" rx="46.2923" ry="18"/>
<text text-anchor="middle" x="892.596" y="-590.3" font-family="Times,serif" font-size="14.00">35 (1): 14</text>
</a>
</g>
</g>
<!-- 15&#45;&gt;35 -->
<g id="edge18" class="edge"><title>15&#45;&gt;35</title>
<path fill="none" stroke="black" d="M707.456,-653.908C745.593,-641.774 806.812,-622.295 848.319,-609.088"/>
<polygon fill="black" stroke="black" points="849.432,-612.407 857.9,-606.04 847.309,-605.737 849.432,-612.407"/>
</g>
<!-- 40 -->
<g id="node41" class="node"><title>40</title>
<g id="a_node41"><a xlink:title="40, diversity: 1, multiplicities: 1, labels: 14">
<ellipse fill="#fff5f0" stroke="black" cx="1002.6" cy="-594" rx="46.2923" ry="18"/>
<text text-anchor="middle" x="1002.6" y="-590.3" font-family="Times,serif" font-size="14.00">40 (1): 14</text>
</a>
</g>
</g>
<!-- 15&#45;&gt;40 -->
<g id="edge48" class="edge"><title>15&#45;&gt;40</title>
<path fill="none" stroke="black" d="M714.84,-658.335C769.096,-649.438 865.994,-632.41 947.596,-612 951.202,-611.098 954.921,-610.1 958.643,-609.052"/>
<polygon fill="black" stroke="black" points="959.814,-612.356 968.433,-606.194 957.852,-605.636 959.814,-612.356"/>
</g>
<!-- 16&#45;&gt;12 -->
<g id="edge41" class="edge"><title>16&#45;&gt;12</title>
<path fill="none" stroke="black" d="M342.596,-431.697C342.596,-423.983 342.596,-414.712 342.596,-406.112"/>
<polygon fill="black" stroke="black" points="346.096,-406.104 342.596,-396.104 339.096,-406.104 346.096,-406.104"/>
</g>
<!-- 17 -->
<g id="node18" class="node"><title>17</title>
<g id="a_node18"><a xlink:title="17, diversity: 1, multiplicities: 1, labels: 14">
<ellipse fill="#fff5f0" stroke="black" cx="397.596" cy="-954" rx="46.2923" ry="18"/>
<text text-anchor="middle" x="397.596" y="-950.3" font-family="Times,serif" font-size="14.00">17 (1): 14</text>
</a>
</g>
</g>
<!-- 18 -->
<g id="node19" class="node"><title>18</title>
<g id="a_node19"><a xlink:title="18, diversity: 4, multiplicities: 6,6,72,82, labels: 14">
<ellipse fill="#fb7c5c" stroke="black" cx="397.596" cy="-882" rx="46.2923" ry="18"/>
<text text-anchor="middle" x="397.596" y="-878.3" font-family="Times,serif" font-size="14.00">18 (4): 14</text>
</a>
</g>
</g>
<!-- 17&#45;&gt;18 -->
<g id="edge39" class="edge"><title>17&#45;&gt;18</title>
<path fill="none" stroke="black" d="M397.596,-935.697C397.596,-927.983 397.596,-918.712 397.596,-910.112"/>
<polygon fill="black" stroke="black" points="401.096,-910.104 397.596,-900.104 394.096,-910.104 401.096,-910.104"/>
</g>
<!-- 19 -->
<g id="node20" class="node"><title>19</title>
<g id="a_node20"><a xlink:title="19, diversity: 1, multiplicities: 12, labels: 14">
<ellipse fill="#fca082" stroke="black" cx="122.596" cy="-810" rx="46.2923" ry="18"/>
<text text-anchor="middle" x="122.596" y="-806.3" font-family="Times,serif" font-size="14.00">19 (1): 14</text>
</a>
</g>
</g>
<!-- 18&#45;&gt;19 -->
<g id="edge11" class="edge"><title>18&#45;&gt;19</title>
<path fill="none" stroke="black" d="M358.459,-872.36C314.317,-862.432 240.483,-845.275 177.596,-828 174.064,-827.03 170.415,-825.988 166.756,-824.917"/>
<polygon fill="black" stroke="black" points="167.702,-821.547 157.119,-822.037 165.698,-828.254 167.702,-821.547"/>
</g>
<!-- 20 -->
<g id="node21" class="node"><title>20</title>
<g id="a_node21"><a xlink:title="20, diversity: 1, multiplicities: 9, labels: 14">
<ellipse fill="#fcc4ad" stroke="black" cx="232.596" cy="-810" rx="46.2923" ry="18"/>
<text text-anchor="middle" x="232.596" y="-806.3" font-family="Times,serif" font-size="14.00">20 (1): 14</text>
</a>
</g>
</g>
<!-- 18&#45;&gt;20 -->
<g id="edge25" class="edge"><title>18&#45;&gt;20</title>
<path fill="none" stroke="black" d="M367.333,-868.161C340.585,-856.813 301.393,-840.186 272.165,-827.787"/>
<polygon fill="black" stroke="black" points="273.241,-824.441 262.668,-823.758 270.507,-830.885 273.241,-824.441"/>
</g>
<!-- 23 -->
<g id="node24" class="node"><title>23</title>
<g id="a_node24"><a xlink:title="23, diversity: 1, multiplicities: 10, labels: 14">
<ellipse fill="#fcc4ad" stroke="black" cx="342.596" cy="-810" rx="46.2923" ry="18"/>
<text text-anchor="middle" x="342.596" y="-806.3" font-family="Times,serif" font-size="14.00">23 (1): 14</text>
</a>
</g>
</g>
<!-- 18&#45;&gt;23 -->
<g id="edge15" class="edge"><title>18&#45;&gt;23</title>
<path fill="none" stroke="black" d="M384.562,-864.411C377.781,-855.781 369.359,-845.062 361.844,-835.497"/>
<polygon fill="black" stroke="black" points="364.467,-833.171 355.537,-827.47 358.963,-837.496 364.467,-833.171"/>
</g>
<!-- 25 -->
<g id="node26" class="node"><title>25</title>
<g id="a_node26"><a xlink:title="25, diversity: 1, multiplicities: 1, labels: 14">
<ellipse fill="#fff5f0" stroke="black" cx="452.596" cy="-810" rx="46.2923" ry="18"/>
<text text-anchor="middle" x="452.596" y="-806.3" font-family="Times,serif" font-size="14.00">25 (1): 14</text>
</a>
</g>
</g>
<!-- 18&#45;&gt;25 -->
<g id="edge44" class="edge"><title>18&#45;&gt;25</title>
<path fill="none" stroke="black" d="M410.631,-864.411C417.412,-855.781 425.833,-845.062 433.349,-835.497"/>
<polygon fill="black" stroke="black" points="436.23,-837.496 439.656,-827.47 430.725,-833.171 436.23,-837.496"/>
</g>
<!-- 44 -->
<g id="node45" class="node"><title>44</title>
<g id="a_node45"><a xlink:title="44, diversity: 1, multiplicities: 7, labels: 14">
<ellipse fill="#fcc4ad" stroke="black" cx="562.596" cy="-810" rx="46.2923" ry="18"/>
<text text-anchor="middle" x="562.596" y="-806.3" font-family="Times,serif" font-size="14.00">44 (1): 14</text>
</a>
</g>
</g>
<!-- 18&#45;&gt;44 -->
<g id="edge3" class="edge"><title>18&#45;&gt;44</title>
<path fill="none" stroke="black" d="M427.86,-868.161C454.608,-856.813 493.8,-840.186 523.027,-827.787"/>
<polygon fill="black" stroke="black" points="524.686,-830.885 532.525,-823.758 521.952,-824.441 524.686,-830.885"/>
</g>
<!-- 48 -->
<g id="node49" class="node"><title>48</title>
<g id="a_node49"><a xlink:title="48, diversity: 1, multiplicities: 1, labels: 14">
<ellipse fill="#fff5f0" stroke="black" cx="672.596" cy="-810" rx="46.2923" ry="18"/>
<text text-anchor="middle" x="672.596" y="-806.3" font-family="Times,serif" font-size="14.00">48 (1): 14</text>
</a>
</g>
</g>
<!-- 18&#45;&gt;48 -->
<g id="edge9" class="edge"><title>18&#45;&gt;48</title>
<path fill="none" stroke="black" d="M436.733,-872.36C480.875,-862.432 554.709,-845.275 617.596,-828 621.129,-827.03 624.778,-825.988 628.437,-824.917"/>
<polygon fill="black" stroke="black" points="629.495,-828.254 638.074,-822.037 627.49,-821.547 629.495,-828.254"/>
</g>
<!-- 21 -->
<g id="node22" class="node"><title>21</title>
<g id="a_node22"><a xlink:title="21, diversity: 1, multiplicities: 1, labels: 14">
<ellipse fill="#fff5f0" stroke="black" cx="397.596" cy="-1026" rx="46.2923" ry="18"/>
<text text-anchor="middle" x="397.596" y="-1022.3" font-family="Times,serif" font-size="14.00">21 (1): 14</text>
</a>
</g>
</g>
<!-- 21&#45;&gt;17 -->
<g id="edge50" class="edge"><title>21&#45;&gt;17</title>
<path fill="none" stroke="black" d="M397.596,-1007.7C397.596,-999.983 397.596,-990.712 397.596,-982.112"/>
<polygon fill="black" stroke="black" points="401.096,-982.104 397.596,-972.104 394.096,-982.104 401.096,-982.104"/>
</g>
<!-- 22&#45;&gt;21 -->
<g id="edge26" class="edge"><title>22&#45;&gt;21</title>
<path fill="none" stroke="black" d="M397.596,-1079.7C397.596,-1071.98 397.596,-1062.71 397.596,-1054.11"/>
<polygon fill="black" stroke="black" points="401.096,-1054.1 397.596,-1044.1 394.096,-1054.1 401.096,-1054.1"/>
</g>
<!-- 45 -->
<g id="node46" class="node"><title>45</title>
<g id="a_node46"><a xlink:title="45, diversity: 2, multiplicities: 1,10, labels: 14">
<ellipse fill="#fca082" stroke="black" cx="342.596" cy="-738" rx="46.2923" ry="18"/>
<text text-anchor="middle" x="342.596" y="-734.3" font-family="Times,serif" font-size="14.00">45 (2): 14</text>
</a>
</g>
</g>
<!-- 23&#45;&gt;45 -->
<g id="edge13" class="edge"><title>23&#45;&gt;45</title>
<path fill="none" stroke="black" d="M342.596,-791.697C342.596,-783.983 342.596,-774.712 342.596,-766.112"/>
<polygon fill="black" stroke="black" points="346.096,-766.104 342.596,-756.104 339.096,-766.104 346.096,-766.104"/>
</g>
<!-- 24 -->
<g id="node25" class="node"><title>24</title>
<g id="a_node25"><a xlink:title="24, diversity: 1, multiplicities: 23, labels: 14">
<ellipse fill="#fca082" stroke="black" cx="452.596" cy="-738" rx="46.2923" ry="18"/>
<text text-anchor="middle" x="452.596" y="-734.3" font-family="Times,serif" font-size="14.00">24 (1): 14</text>
</a>
</g>
</g>
<!-- 25&#45;&gt;24 -->
<g id="edge51" class="edge"><title>25&#45;&gt;24</title>
<path fill="none" stroke="black" d="M452.596,-791.697C452.596,-783.983 452.596,-774.712 452.596,-766.112"/>
<polygon fill="black" stroke="black" points="456.096,-766.104 452.596,-756.104 449.096,-766.104 456.096,-766.104"/>
</g>
<!-- 27 -->
<g id="node28" class="node"><title>27</title>
<g id="a_node28"><a xlink:title="27, diversity: 1, multiplicities: 44, labels: 14">
<ellipse fill="#fca082" stroke="black" cx="397.596" cy="-90" rx="46.2923" ry="18"/>
<text text-anchor="middle" x="397.596" y="-86.3" font-family="Times,serif" font-size="14.00">27 (1): 14</text>
</a>
</g>
</g>
<!-- 31 -->
<g id="node32" class="node"><title>31</title>
<g id="a_node32"><a xlink:title="31, diversity: 1, multiplicities: 16, labels: 14">
<ellipse fill="#fca082" stroke="black" cx="397.596" cy="-18" rx="46.2923" ry="18"/>
<text text-anchor="middle" x="397.596" y="-14.3" font-family="Times,serif" font-size="14.00">31 (1): 14</text>
</a>
</g>
</g>
<!-- 27&#45;&gt;31 -->
<g id="edge38" class="edge"><title>27&#45;&gt;31</title>
<path fill="none" stroke="black" d="M397.596,-71.6966C397.596,-63.9827 397.596,-54.7125 397.596,-46.1124"/>
<polygon fill="black" stroke="black" points="401.096,-46.1043 397.596,-36.1043 394.096,-46.1044 401.096,-46.1043"/>
</g>
<!-- 29 -->
<g id="node30" class="node"><title>29</title>
<g id="a_node30"><a xlink:title="29, diversity: 1, multiplicities: 2, labels: 14">
<ellipse fill="#fee3d6" stroke="black" cx="397.596" cy="-162" rx="46.2923" ry="18"/>
<text text-anchor="middle" x="397.596" y="-158.3" font-family="Times,serif" font-size="14.00">29 (1): 14</text>
</a>
</g>
</g>
<!-- 29&#45;&gt;27 -->
<g id="edge14" class="edge"><title>29&#45;&gt;27</title>
<path fill="none" stroke="black" d="M397.596,-143.697C397.596,-135.983 397.596,-126.712 397.596,-118.112"/>
<polygon fill="black" stroke="black" points="401.096,-118.104 397.596,-108.104 394.096,-118.104 401.096,-118.104"/>
</g>
<!-- 30&#45;&gt;29 -->
<g id="edge34" class="edge"><title>30&#45;&gt;29</title>
<path fill="none" stroke="black" d="M397.596,-215.697C397.596,-207.983 397.596,-198.712 397.596,-190.112"/>
<polygon fill="black" stroke="black" points="401.096,-190.104 397.596,-180.104 394.096,-190.104 401.096,-190.104"/>
</g>
<!-- 33 -->
<g id="node34" class="node"><title>33</title>
<g id="a_node34"><a xlink:title="33, diversity: 1, multiplicities: 27, labels: 14">
<ellipse fill="#fca082" stroke="black" cx="672.596" cy="-522" rx="46.2923" ry="18"/>
<text text-anchor="middle" x="672.596" y="-518.3" font-family="Times,serif" font-size="14.00">33 (1): 14</text>
</a>
</g>
</g>
<!-- 32&#45;&gt;33 -->
<g id="edge27" class="edge"><title>32&#45;&gt;33</title>
<path fill="none" stroke="black" d="M672.596,-575.697C672.596,-567.983 672.596,-558.712 672.596,-550.112"/>
<polygon fill="black" stroke="black" points="676.096,-550.104 672.596,-540.104 669.096,-550.104 676.096,-550.104"/>
</g>
<!-- 50 -->
<g id="node51" class="node"><title>50</title>
<g id="a_node51"><a xlink:title="50, diversity: 1, multiplicities: 1, labels: 14">
<ellipse fill="#fff5f0" stroke="black" cx="892.596" cy="-522" rx="46.2923" ry="18"/>
<text text-anchor="middle" x="892.596" y="-518.3" font-family="Times,serif" font-size="14.00">50 (1): 14</text>
</a>
</g>
</g>
<!-- 35&#45;&gt;50 -->
<g id="edge23" class="edge"><title>35&#45;&gt;50</title>
<path fill="none" stroke="black" d="M892.596,-575.697C892.596,-567.983 892.596,-558.712 892.596,-550.112"/>
<polygon fill="black" stroke="black" points="896.096,-550.104 892.596,-540.104 889.096,-550.104 896.096,-550.104"/>
</g>
<!-- 36 -->
<g id="node37" class="node"><title>36</title>
<g id="a_node37"><a xlink:title="36, diversity: 1, multiplicities: 7, labels: 14">
<ellipse fill="#fcc4ad" stroke="black" cx="532.596" cy="-1386" rx="46.2923" ry="18"/>
<text text-anchor="middle" x="532.596" y="-1382.3" font-family="Times,serif" font-size="14.00">36 (1): 14</text>
</a>
</g>
</g>
<!-- 36&#45;&gt;8 -->
<g id="edge17" class="edge"><title>36&#45;&gt;8</title>
<path fill="none" stroke="black" d="M503.066,-1372.16C476.641,-1360.67 437.767,-1343.77 409.141,-1331.32"/>
<polygon fill="black" stroke="black" points="410.425,-1328.07 399.859,-1327.29 407.634,-1334.49 410.425,-1328.07"/>
</g>
<!-- 37 -->
<g id="node38" class="node"><title>37</title>
<g id="a_node38"><a xlink:title="37, diversity: 2, multiplicities: 1,27, labels: 14">
<ellipse fill="#fca082" stroke="black" cx="477.596" cy="-1314" rx="46.2923" ry="18"/>
<text text-anchor="middle" x="477.596" y="-1310.3" font-family="Times,serif" font-size="14.00">37 (2): 14</text>
</a>
</g>
</g>
<!-- 36&#45;&gt;37 -->
<g id="edge5" class="edge"><title>36&#45;&gt;37</title>
<path fill="none" stroke="black" d="M519.562,-1368.41C512.781,-1359.78 504.359,-1349.06 496.844,-1339.5"/>
<polygon fill="black" stroke="black" points="499.467,-1337.17 490.537,-1331.47 493.963,-1341.5 499.467,-1337.17"/>
</g>
<!-- 42 -->
<g id="node43" class="node"><title>42</title>
<g id="a_node43"><a xlink:title="42, diversity: 2, multiplicities: 1,5, labels: 14">
<ellipse fill="#fcc4ad" stroke="black" cx="587.596" cy="-1314" rx="46.2923" ry="18"/>
<text text-anchor="middle" x="587.596" y="-1310.3" font-family="Times,serif" font-size="14.00">42 (2): 14</text>
</a>
</g>
</g>
<!-- 36&#45;&gt;42 -->
<g id="edge1" class="edge"><title>36&#45;&gt;42</title>
<path fill="none" stroke="black" d="M545.631,-1368.41C552.412,-1359.78 560.833,-1349.06 568.349,-1339.5"/>
<polygon fill="black" stroke="black" points="571.23,-1341.5 574.656,-1331.47 565.725,-1337.17 571.23,-1341.5"/>
</g>
<!-- 47 -->
<g id="node48" class="node"><title>47</title>
<g id="a_node48"><a xlink:title="47, diversity: 1, multiplicities: 6, labels: 14">
<ellipse fill="#fcc4ad" stroke="black" cx="697.596" cy="-1314" rx="46.2923" ry="18"/>
<text text-anchor="middle" x="697.596" y="-1310.3" font-family="Times,serif" font-size="14.00">47 (1): 14</text>
</a>
</g>
</g>
<!-- 36&#45;&gt;47 -->
<g id="edge19" class="edge"><title>36&#45;&gt;47</title>
<path fill="none" stroke="black" d="M562.86,-1372.16C589.608,-1360.81 628.8,-1344.19 658.027,-1331.79"/>
<polygon fill="black" stroke="black" points="659.686,-1334.89 667.525,-1327.76 656.952,-1328.44 659.686,-1334.89"/>
</g>
<!-- 38 -->
<g id="node39" class="node"><title>38</title>
<g id="a_node39"><a xlink:title="38, diversity: 1, multiplicities: 31, labels: 14">
<ellipse fill="#fca082" stroke="black" cx="342.596" cy="-666" rx="46.2923" ry="18"/>
<text text-anchor="middle" x="342.596" y="-662.3" font-family="Times,serif" font-size="14.00">38 (1): 14</text>
</a>
</g>
</g>
<!-- 39 -->
<g id="node40" class="node"><title>39</title>
<g id="a_node40"><a xlink:title="39, diversity: 1, multiplicities: 1, labels: 14">
<ellipse fill="#fff5f0" stroke="black" cx="672.596" cy="-738" rx="46.2923" ry="18"/>
<text text-anchor="middle" x="672.596" y="-734.3" font-family="Times,serif" font-size="14.00">39 (1): 14</text>
</a>
</g>
</g>
<!-- 39&#45;&gt;15 -->
<g id="edge6" class="edge"><title>39&#45;&gt;15</title>
<path fill="none" stroke="black" d="M672.596,-719.697C672.596,-711.983 672.596,-702.712 672.596,-694.112"/>
<polygon fill="black" stroke="black" points="676.096,-694.104 672.596,-684.104 669.096,-694.104 676.096,-694.104"/>
</g>
<!-- 41 -->
<g id="node42" class="node"><title>41</title>
<g id="a_node42"><a xlink:title="41, diversity: 1, multiplicities: 53, labels: 14">
<ellipse fill="#fca082" stroke="black" cx="1002.6" cy="-522" rx="46.2923" ry="18"/>
<text text-anchor="middle" x="1002.6" y="-518.3" font-family="Times,serif" font-size="14.00">41 (1): 14</text>
</a>
</g>
</g>
<!-- 40&#45;&gt;41 -->
<g id="edge8" class="edge"><title>40&#45;&gt;41</title>
<path fill="none" stroke="black" d="M1002.6,-575.697C1002.6,-567.983 1002.6,-558.712 1002.6,-550.112"/>
<polygon fill="black" stroke="black" points="1006.1,-550.104 1002.6,-540.104 999.096,-550.104 1006.1,-550.104"/>
</g>
<!-- 45&#45;&gt;38 -->
<g id="edge43" class="edge"><title>45&#45;&gt;38</title>
<path fill="none" stroke="black" d="M342.596,-719.697C342.596,-711.983 342.596,-702.712 342.596,-694.112"/>
<polygon fill="black" stroke="black" points="346.096,-694.104 342.596,-684.104 339.096,-694.104 346.096,-694.104"/>
</g>
<!-- 48&#45;&gt;39 -->
<g id="edge40" class="edge"><title>48&#45;&gt;39</title>
<path fill="none" stroke="black" d="M672.596,-791.697C672.596,-783.983 672.596,-774.712 672.596,-766.112"/>
<polygon fill="black" stroke="black" points="676.096,-766.104 672.596,-756.104 669.096,-766.104 676.096,-766.104"/>
</g>
<!-- 51 -->
<g id="node52" class="node"><title>51</title>
<g id="a_node52"><a xlink:title="51, diversity: 1, multiplicities: 12, labels: 14">
<ellipse fill="#fca082" stroke="black" cx="892.596" cy="-450" rx="46.2923" ry="18"/>
<text text-anchor="middle" x="892.596" y="-446.3" font-family="Times,serif" font-size="14.00">51 (1): 14</text>
</a>
</g>
</g>
<!-- 50&#45;&gt;51 -->
<g id="edge36" class="edge"><title>50&#45;&gt;51</title>
<path fill="none" stroke="black" d="M892.596,-503.697C892.596,-495.983 892.596,-486.712 892.596,-478.112"/>
<polygon fill="black" stroke="black" points="896.096,-478.104 892.596,-468.104 889.096,-478.104 896.096,-478.104"/>
</g>
</g>
</svg>
