<?xml version="1.0" encoding="UTF-8" standalone="no"?>
<!DOCTYPE svg PUBLIC "-//W3C//DTD SVG 1.1//EN"
 "http://www.w3.org/Graphics/SVG/1.1/DTD/svg11.dtd">
<!-- Generated by graphviz version 2.38.0 (20140413.2041)
 -->
<!-- Title: %3 Pages: 1 -->
<svg width="429pt" height="1772pt"
 viewBox="0.00 0.00 428.64 1772.00" xmlns="http://www.w3.org/2000/svg" xmlns:xlink="http://www.w3.org/1999/xlink">
<g id="graph0" class="graph" transform="scale(1 1) rotate(0) translate(4 1768)">
<title>%3</title>
<polygon fill="white" stroke="none" points="-4,4 -4,-1768 424.643,-1768 424.643,4 -4,4"/>
<!-- 0 -->
<g id="node1" class="node"><title>0</title>
<g id="a_node1"><a xlink:title="0, diversity: 4, multiplicities: 5,8,35,634, labels: 0">
<ellipse fill="#f7fcf5" stroke="black" cx="129.047" cy="-882" rx="37.0935" ry="18"/>
<text text-anchor="middle" x="129.047" y="-878.3" font-family="Times,serif" font-size="14.00">0 (4): 0</text>
</a>
</g>
</g>
<!-- 4 -->
<g id="node5" class="node"><title>4</title>
<g id="a_node5"><a xlink:title="4, diversity: 1, multiplicities: 102, labels: 0">
<ellipse fill="#f7fcf5" stroke="black" cx="37.0467" cy="-810" rx="37.0935" ry="18"/>
<text text-anchor="middle" x="37.0467" y="-806.3" font-family="Times,serif" font-size="14.00">4 (1): 0</text>
</a>
</g>
</g>
<!-- 0&#45;&gt;4 -->
<g id="edge13" class="edge"><title>0&#45;&gt;4</title>
<path fill="none" stroke="black" d="M109.984,-866.496C96.7852,-856.453 79.0176,-842.934 64.3235,-831.754"/>
<polygon fill="black" stroke="black" points="66.1624,-828.755 56.0848,-825.485 61.9237,-834.326 66.1624,-828.755"/>
</g>
<!-- 5 -->
<g id="node6" class="node"><title>5</title>
<g id="a_node6"><a xlink:title="5, diversity: 2, multiplicities: 8,11, labels: 0">
<ellipse fill="#f7fcf5" stroke="black" cx="129.047" cy="-810" rx="37.0935" ry="18"/>
<text text-anchor="middle" x="129.047" y="-806.3" font-family="Times,serif" font-size="14.00">5 (2): 0</text>
</a>
</g>
</g>
<!-- 0&#45;&gt;5 -->
<g id="edge18" class="edge"><title>0&#45;&gt;5</title>
<path fill="none" stroke="black" d="M129.047,-863.697C129.047,-855.983 129.047,-846.712 129.047,-838.112"/>
<polygon fill="black" stroke="black" points="132.547,-838.104 129.047,-828.104 125.547,-838.104 132.547,-838.104"/>
</g>
<!-- 12 -->
<g id="node13" class="node"><title>12</title>
<g id="a_node13"><a xlink:title="12, diversity: 1, multiplicities: 11, labels: 0">
<ellipse fill="#f7fcf5" stroke="black" cx="226.047" cy="-810" rx="41.6928" ry="18"/>
<text text-anchor="middle" x="226.047" y="-806.3" font-family="Times,serif" font-size="14.00">12 (1): 0</text>
</a>
</g>
</g>
<!-- 0&#45;&gt;12 -->
<g id="edge15" class="edge"><title>0&#45;&gt;12</title>
<path fill="none" stroke="black" d="M149.145,-866.496C163.098,-856.427 181.893,-842.864 197.409,-831.666"/>
<polygon fill="black" stroke="black" points="199.579,-834.416 205.64,-825.726 195.483,-828.74 199.579,-834.416"/>
</g>
<!-- 1 -->
<g id="node2" class="node"><title>1</title>
<g id="a_node2"><a xlink:title="1, diversity: 2, multiplicities: 1,5, labels: 0">
<ellipse fill="#f7fcf5" stroke="black" cx="129.047" cy="-234" rx="37.0935" ry="18"/>
<text text-anchor="middle" x="129.047" y="-230.3" font-family="Times,serif" font-size="14.00">1 (2): 0</text>
</a>
</g>
</g>
<!-- 8 -->
<g id="node9" class="node"><title>8</title>
<g id="a_node9"><a xlink:title="8, diversity: 1, multiplicities: 9, labels: 0">
<ellipse fill="#f7fcf5" stroke="black" cx="81.0467" cy="-162" rx="37.0935" ry="18"/>
<text text-anchor="middle" x="81.0467" y="-158.3" font-family="Times,serif" font-size="14.00">8 (1): 0</text>
</a>
</g>
</g>
<!-- 1&#45;&gt;8 -->
<g id="edge29" class="edge"><title>1&#45;&gt;8</title>
<path fill="none" stroke="black" d="M117.914,-216.765C112.062,-208.23 104.76,-197.582 98.2027,-188.019"/>
<polygon fill="black" stroke="black" points="100.994,-185.901 92.4525,-179.633 95.2212,-189.86 100.994,-185.901"/>
</g>
<!-- 28 -->
<g id="node29" class="node"><title>28</title>
<g id="a_node29"><a xlink:title="28, diversity: 1, multiplicities: 1, labels: 0">
<ellipse fill="#f7fcf5" stroke="black" cx="178.047" cy="-162" rx="41.6928" ry="18"/>
<text text-anchor="middle" x="178.047" y="-158.3" font-family="Times,serif" font-size="14.00">28 (1): 0</text>
</a>
</g>
</g>
<!-- 1&#45;&gt;28 -->
<g id="edge8" class="edge"><title>1&#45;&gt;28</title>
<path fill="none" stroke="black" d="M140.411,-216.765C146.386,-208.23 153.839,-197.582 160.533,-188.019"/>
<polygon fill="black" stroke="black" points="163.536,-189.833 166.403,-179.633 157.801,-185.819 163.536,-189.833"/>
</g>
<!-- 2 -->
<g id="node3" class="node"><title>2</title>
<g id="a_node3"><a xlink:title="2, diversity: 2, multiplicities: 4,283, labels: 0">
<ellipse fill="#f7fcf5" stroke="black" cx="177.047" cy="-1530" rx="37.0935" ry="18"/>
<text text-anchor="middle" x="177.047" y="-1526.3" font-family="Times,serif" font-size="14.00">2 (2): 0</text>
</a>
</g>
</g>
<!-- 7 -->
<g id="node8" class="node"><title>7</title>
<g id="a_node8"><a xlink:title="7, diversity: 1, multiplicities: 7, labels: 0">
<ellipse fill="#f7fcf5" stroke="black" cx="129.047" cy="-1458" rx="37.0935" ry="18"/>
<text text-anchor="middle" x="129.047" y="-1454.3" font-family="Times,serif" font-size="14.00">7 (1): 0</text>
</a>
</g>
</g>
<!-- 2&#45;&gt;7 -->
<g id="edge23" class="edge"><title>2&#45;&gt;7</title>
<path fill="none" stroke="black" d="M165.914,-1512.76C160.062,-1504.23 152.76,-1493.58 146.203,-1484.02"/>
<polygon fill="black" stroke="black" points="148.994,-1481.9 140.452,-1475.63 143.221,-1485.86 148.994,-1481.9"/>
</g>
<!-- 10 -->
<g id="node11" class="node"><title>10</title>
<g id="a_node11"><a xlink:title="10, diversity: 2, multiplicities: 3,10, labels: 0">
<ellipse fill="#f7fcf5" stroke="black" cx="226.047" cy="-1458" rx="41.6928" ry="18"/>
<text text-anchor="middle" x="226.047" y="-1454.3" font-family="Times,serif" font-size="14.00">10 (2): 0</text>
</a>
</g>
</g>
<!-- 2&#45;&gt;10 -->
<g id="edge21" class="edge"><title>2&#45;&gt;10</title>
<path fill="none" stroke="black" d="M188.411,-1512.76C194.386,-1504.23 201.839,-1493.58 208.533,-1484.02"/>
<polygon fill="black" stroke="black" points="211.536,-1485.83 214.403,-1475.63 205.801,-1481.82 211.536,-1485.83"/>
</g>
<!-- 3 -->
<g id="node4" class="node"><title>3</title>
<g id="a_node4"><a xlink:title="3, diversity: 1, multiplicities: 2, labels: 0">
<ellipse fill="#f7fcf5" stroke="black" cx="129.047" cy="-738" rx="37.0935" ry="18"/>
<text text-anchor="middle" x="129.047" y="-734.3" font-family="Times,serif" font-size="14.00">3 (1): 0</text>
</a>
</g>
</g>
<!-- 9 -->
<g id="node10" class="node"><title>9</title>
<g id="a_node10"><a xlink:title="9, diversity: 1, multiplicities: 7, labels: 0">
<ellipse fill="#f7fcf5" stroke="black" cx="129.047" cy="-666" rx="37.0935" ry="18"/>
<text text-anchor="middle" x="129.047" y="-662.3" font-family="Times,serif" font-size="14.00">9 (1): 0</text>
</a>
</g>
</g>
<!-- 3&#45;&gt;9 -->
<g id="edge17" class="edge"><title>3&#45;&gt;9</title>
<path fill="none" stroke="black" d="M129.047,-719.697C129.047,-711.983 129.047,-702.712 129.047,-694.112"/>
<polygon fill="black" stroke="black" points="132.547,-694.104 129.047,-684.104 125.547,-694.104 132.547,-694.104"/>
</g>
<!-- 5&#45;&gt;3 -->
<g id="edge22" class="edge"><title>5&#45;&gt;3</title>
<path fill="none" stroke="black" d="M129.047,-791.697C129.047,-783.983 129.047,-774.712 129.047,-766.112"/>
<polygon fill="black" stroke="black" points="132.547,-766.104 129.047,-756.104 125.547,-766.104 132.547,-766.104"/>
</g>
<!-- 6 -->
<g id="node7" class="node"><title>6</title>
<g id="a_node7"><a xlink:title="6, diversity: 1, multiplicities: 6, labels: 0">
<ellipse fill="#f7fcf5" stroke="black" cx="278.047" cy="-1674" rx="37.0935" ry="18"/>
<text text-anchor="middle" x="278.047" y="-1670.3" font-family="Times,serif" font-size="14.00">6 (1): 0</text>
</a>
</g>
</g>
<!-- 22 -->
<g id="node23" class="node"><title>22</title>
<g id="a_node23"><a xlink:title="22, diversity: 1, multiplicities: 1, labels: 0">
<ellipse fill="#f7fcf5" stroke="black" cx="177.047" cy="-1602" rx="41.6928" ry="18"/>
<text text-anchor="middle" x="177.047" y="-1598.3" font-family="Times,serif" font-size="14.00">22 (1): 0</text>
</a>
</g>
</g>
<!-- 6&#45;&gt;22 -->
<g id="edge9" class="edge"><title>6&#45;&gt;22</title>
<path fill="none" stroke="black" d="M257.608,-1658.83C243.017,-1648.72 223.163,-1634.96 206.816,-1623.63"/>
<polygon fill="black" stroke="black" points="208.363,-1620.45 198.15,-1617.63 204.376,-1626.2 208.363,-1620.45"/>
</g>
<!-- 31 -->
<g id="node32" class="node"><title>31</title>
<g id="a_node32"><a xlink:title="31, diversity: 1, multiplicities: 44, labels: 0">
<ellipse fill="#f7fcf5" stroke="black" cx="278.047" cy="-1602" rx="41.6928" ry="18"/>
<text text-anchor="middle" x="278.047" y="-1598.3" font-family="Times,serif" font-size="14.00">31 (1): 0</text>
</a>
</g>
</g>
<!-- 6&#45;&gt;31 -->
<g id="edge28" class="edge"><title>6&#45;&gt;31</title>
<path fill="none" stroke="black" d="M278.047,-1655.7C278.047,-1647.98 278.047,-1638.71 278.047,-1630.11"/>
<polygon fill="black" stroke="black" points="281.547,-1630.1 278.047,-1620.1 274.547,-1630.1 281.547,-1630.1"/>
</g>
<!-- 26 -->
<g id="node27" class="node"><title>26</title>
<g id="a_node27"><a xlink:title="26, diversity: 1, multiplicities: 1, labels: 0">
<ellipse fill="#f7fcf5" stroke="black" cx="129.047" cy="-1386" rx="41.6928" ry="18"/>
<text text-anchor="middle" x="129.047" y="-1382.3" font-family="Times,serif" font-size="14.00">26 (1): 0</text>
</a>
</g>
</g>
<!-- 7&#45;&gt;26 -->
<g id="edge25" class="edge"><title>7&#45;&gt;26</title>
<path fill="none" stroke="black" d="M129.047,-1439.7C129.047,-1431.98 129.047,-1422.71 129.047,-1414.11"/>
<polygon fill="black" stroke="black" points="132.547,-1414.1 129.047,-1404.1 125.547,-1414.1 132.547,-1414.1"/>
</g>
<!-- 18 -->
<g id="node19" class="node"><title>18</title>
<g id="a_node19"><a xlink:title="18, diversity: 2, multiplicities: 1,4, labels: 0">
<ellipse fill="#f7fcf5" stroke="black" cx="129.047" cy="-594" rx="41.6928" ry="18"/>
<text text-anchor="middle" x="129.047" y="-590.3" font-family="Times,serif" font-size="14.00">18 (2): 0</text>
</a>
</g>
</g>
<!-- 9&#45;&gt;18 -->
<g id="edge2" class="edge"><title>9&#45;&gt;18</title>
<path fill="none" stroke="black" d="M129.047,-647.697C129.047,-639.983 129.047,-630.712 129.047,-622.112"/>
<polygon fill="black" stroke="black" points="132.547,-622.104 129.047,-612.104 125.547,-622.104 132.547,-622.104"/>
</g>
<!-- 11 -->
<g id="node12" class="node"><title>11</title>
<g id="a_node12"><a xlink:title="11, diversity: 2, multiplicities: 1,1, labels: 0">
<ellipse fill="#f7fcf5" stroke="black" cx="327.047" cy="-1746" rx="41.6928" ry="18"/>
<text text-anchor="middle" x="327.047" y="-1742.3" font-family="Times,serif" font-size="14.00">11 (2): 0</text>
</a>
</g>
</g>
<!-- 11&#45;&gt;6 -->
<g id="edge31" class="edge"><title>11&#45;&gt;6</title>
<path fill="none" stroke="black" d="M315.434,-1728.41C309.454,-1719.87 302.042,-1709.28 295.398,-1699.79"/>
<polygon fill="black" stroke="black" points="298.178,-1697.66 289.576,-1691.47 292.443,-1701.67 298.178,-1697.66"/>
</g>
<!-- 30 -->
<g id="node31" class="node"><title>30</title>
<g id="a_node31"><a xlink:title="30, diversity: 1, multiplicities: 4, labels: 0">
<ellipse fill="#f7fcf5" stroke="black" cx="377.047" cy="-1674" rx="41.6928" ry="18"/>
<text text-anchor="middle" x="377.047" y="-1670.3" font-family="Times,serif" font-size="14.00">30 (1): 0</text>
</a>
</g>
</g>
<!-- 11&#45;&gt;30 -->
<g id="edge5" class="edge"><title>11&#45;&gt;30</title>
<path fill="none" stroke="black" d="M338.896,-1728.41C344.998,-1719.87 352.562,-1709.28 359.341,-1699.79"/>
<polygon fill="black" stroke="black" points="362.318,-1701.64 365.282,-1691.47 356.622,-1697.57 362.318,-1701.64"/>
</g>
<!-- 13 -->
<g id="node14" class="node"><title>13</title>
<g id="a_node14"><a xlink:title="13, diversity: 1, multiplicities: 1, labels: 0">
<ellipse fill="#f7fcf5" stroke="black" cx="129.047" cy="-1098" rx="41.6928" ry="18"/>
<text text-anchor="middle" x="129.047" y="-1094.3" font-family="Times,serif" font-size="14.00">13 (1): 0</text>
</a>
</g>
</g>
<!-- 24 -->
<g id="node25" class="node"><title>24</title>
<g id="a_node25"><a xlink:title="24, diversity: 1, multiplicities: 2, labels: 0">
<ellipse fill="#f7fcf5" stroke="black" cx="129.047" cy="-1026" rx="41.6928" ry="18"/>
<text text-anchor="middle" x="129.047" y="-1022.3" font-family="Times,serif" font-size="14.00">24 (1): 0</text>
</a>
</g>
</g>
<!-- 13&#45;&gt;24 -->
<g id="edge12" class="edge"><title>13&#45;&gt;24</title>
<path fill="none" stroke="black" d="M129.047,-1079.7C129.047,-1071.98 129.047,-1062.71 129.047,-1054.11"/>
<polygon fill="black" stroke="black" points="132.547,-1054.1 129.047,-1044.1 125.547,-1054.1 132.547,-1054.1"/>
</g>
<!-- 14 -->
<g id="node15" class="node"><title>14</title>
<g id="a_node15"><a xlink:title="14, diversity: 1, multiplicities: 6, labels: 0">
<ellipse fill="#f7fcf5" stroke="black" cx="178.047" cy="-18" rx="41.6928" ry="18"/>
<text text-anchor="middle" x="178.047" y="-14.3" font-family="Times,serif" font-size="14.00">14 (1): 0</text>
</a>
</g>
</g>
<!-- 15 -->
<g id="node16" class="node"><title>15</title>
<g id="a_node16"><a xlink:title="15, diversity: 1, multiplicities: 1, labels: 0">
<ellipse fill="#f7fcf5" stroke="black" cx="129.047" cy="-450" rx="41.6928" ry="18"/>
<text text-anchor="middle" x="129.047" y="-446.3" font-family="Times,serif" font-size="14.00">15 (1): 0</text>
</a>
</g>
</g>
<!-- 21 -->
<g id="node22" class="node"><title>21</title>
<g id="a_node22"><a xlink:title="21, diversity: 1, multiplicities: 1, labels: 0">
<ellipse fill="#f7fcf5" stroke="black" cx="129.047" cy="-378" rx="41.6928" ry="18"/>
<text text-anchor="middle" x="129.047" y="-374.3" font-family="Times,serif" font-size="14.00">21 (1): 0</text>
</a>
</g>
</g>
<!-- 15&#45;&gt;21 -->
<g id="edge27" class="edge"><title>15&#45;&gt;21</title>
<path fill="none" stroke="black" d="M129.047,-431.697C129.047,-423.983 129.047,-414.712 129.047,-406.112"/>
<polygon fill="black" stroke="black" points="132.547,-406.104 129.047,-396.104 125.547,-406.104 132.547,-406.104"/>
</g>
<!-- 16 -->
<g id="node17" class="node"><title>16</title>
<g id="a_node17"><a xlink:title="16, diversity: 1, multiplicities: 2, labels: 0">
<ellipse fill="#f7fcf5" stroke="black" cx="129.047" cy="-1314" rx="41.6928" ry="18"/>
<text text-anchor="middle" x="129.047" y="-1310.3" font-family="Times,serif" font-size="14.00">16 (1): 0</text>
</a>
</g>
</g>
<!-- 20 -->
<g id="node21" class="node"><title>20</title>
<g id="a_node21"><a xlink:title="20, diversity: 1, multiplicities: 2, labels: 0">
<ellipse fill="#f7fcf5" stroke="black" cx="129.047" cy="-1242" rx="41.6928" ry="18"/>
<text text-anchor="middle" x="129.047" y="-1238.3" font-family="Times,serif" font-size="14.00">20 (1): 0</text>
</a>
</g>
</g>
<!-- 16&#45;&gt;20 -->
<g id="edge30" class="edge"><title>16&#45;&gt;20</title>
<path fill="none" stroke="black" d="M129.047,-1295.7C129.047,-1287.98 129.047,-1278.71 129.047,-1270.11"/>
<polygon fill="black" stroke="black" points="132.547,-1270.1 129.047,-1260.1 125.547,-1270.1 132.547,-1270.1"/>
</g>
<!-- 17 -->
<g id="node18" class="node"><title>17</title>
<g id="a_node18"><a xlink:title="17, diversity: 1, multiplicities: 2, labels: 0">
<ellipse fill="#f7fcf5" stroke="black" cx="129.047" cy="-954" rx="41.6928" ry="18"/>
<text text-anchor="middle" x="129.047" y="-950.3" font-family="Times,serif" font-size="14.00">17 (1): 0</text>
</a>
</g>
</g>
<!-- 17&#45;&gt;0 -->
<g id="edge26" class="edge"><title>17&#45;&gt;0</title>
<path fill="none" stroke="black" d="M129.047,-935.697C129.047,-927.983 129.047,-918.712 129.047,-910.112"/>
<polygon fill="black" stroke="black" points="132.547,-910.104 129.047,-900.104 125.547,-910.104 132.547,-910.104"/>
</g>
<!-- 25 -->
<g id="node26" class="node"><title>25</title>
<g id="a_node26"><a xlink:title="25, diversity: 1, multiplicities: 1, labels: 0">
<ellipse fill="#f7fcf5" stroke="black" cx="129.047" cy="-522" rx="41.6928" ry="18"/>
<text text-anchor="middle" x="129.047" y="-518.3" font-family="Times,serif" font-size="14.00">25 (1): 0</text>
</a>
</g>
</g>
<!-- 18&#45;&gt;25 -->
<g id="edge24" class="edge"><title>18&#45;&gt;25</title>
<path fill="none" stroke="black" d="M129.047,-575.697C129.047,-567.983 129.047,-558.712 129.047,-550.112"/>
<polygon fill="black" stroke="black" points="132.547,-550.104 129.047,-540.104 125.547,-550.104 132.547,-550.104"/>
</g>
<!-- 19 -->
<g id="node20" class="node"><title>19</title>
<g id="a_node20"><a xlink:title="19, diversity: 2, multiplicities: 2,3, labels: 0">
<ellipse fill="#f7fcf5" stroke="black" cx="129.047" cy="-1170" rx="41.6928" ry="18"/>
<text text-anchor="middle" x="129.047" y="-1166.3" font-family="Times,serif" font-size="14.00">19 (2): 0</text>
</a>
</g>
</g>
<!-- 19&#45;&gt;13 -->
<g id="edge20" class="edge"><title>19&#45;&gt;13</title>
<path fill="none" stroke="black" d="M129.047,-1151.7C129.047,-1143.98 129.047,-1134.71 129.047,-1126.11"/>
<polygon fill="black" stroke="black" points="132.547,-1126.1 129.047,-1116.1 125.547,-1126.1 132.547,-1126.1"/>
</g>
<!-- 20&#45;&gt;19 -->
<g id="edge19" class="edge"><title>20&#45;&gt;19</title>
<path fill="none" stroke="black" d="M129.047,-1223.7C129.047,-1215.98 129.047,-1206.71 129.047,-1198.11"/>
<polygon fill="black" stroke="black" points="132.547,-1198.1 129.047,-1188.1 125.547,-1198.1 132.547,-1198.1"/>
</g>
<!-- 27 -->
<g id="node28" class="node"><title>27</title>
<g id="a_node28"><a xlink:title="27, diversity: 1, multiplicities: 1, labels: 0">
<ellipse fill="#f7fcf5" stroke="black" cx="129.047" cy="-306" rx="41.6928" ry="18"/>
<text text-anchor="middle" x="129.047" y="-302.3" font-family="Times,serif" font-size="14.00">27 (1): 0</text>
</a>
</g>
</g>
<!-- 21&#45;&gt;27 -->
<g id="edge6" class="edge"><title>21&#45;&gt;27</title>
<path fill="none" stroke="black" d="M129.047,-359.697C129.047,-351.983 129.047,-342.712 129.047,-334.112"/>
<polygon fill="black" stroke="black" points="132.547,-334.104 129.047,-324.104 125.547,-334.104 132.547,-334.104"/>
</g>
<!-- 22&#45;&gt;2 -->
<g id="edge4" class="edge"><title>22&#45;&gt;2</title>
<path fill="none" stroke="black" d="M177.047,-1583.7C177.047,-1575.98 177.047,-1566.71 177.047,-1558.11"/>
<polygon fill="black" stroke="black" points="180.547,-1558.1 177.047,-1548.1 173.547,-1558.1 180.547,-1558.1"/>
</g>
<!-- 23 -->
<g id="node24" class="node"><title>23</title>
<g id="a_node24"><a xlink:title="23, diversity: 2, multiplicities: 1,1, labels: 0">
<ellipse fill="#f7fcf5" stroke="black" cx="178.047" cy="-90" rx="41.6928" ry="18"/>
<text text-anchor="middle" x="178.047" y="-86.3" font-family="Times,serif" font-size="14.00">23 (2): 0</text>
</a>
</g>
</g>
<!-- 23&#45;&gt;14 -->
<g id="edge16" class="edge"><title>23&#45;&gt;14</title>
<path fill="none" stroke="black" d="M178.047,-71.6966C178.047,-63.9827 178.047,-54.7125 178.047,-46.1124"/>
<polygon fill="black" stroke="black" points="181.547,-46.1043 178.047,-36.1043 174.547,-46.1044 181.547,-46.1043"/>
</g>
<!-- 24&#45;&gt;17 -->
<g id="edge1" class="edge"><title>24&#45;&gt;17</title>
<path fill="none" stroke="black" d="M129.047,-1007.7C129.047,-999.983 129.047,-990.712 129.047,-982.112"/>
<polygon fill="black" stroke="black" points="132.547,-982.104 129.047,-972.104 125.547,-982.104 132.547,-982.104"/>
</g>
<!-- 25&#45;&gt;15 -->
<g id="edge10" class="edge"><title>25&#45;&gt;15</title>
<path fill="none" stroke="black" d="M129.047,-503.697C129.047,-495.983 129.047,-486.712 129.047,-478.112"/>
<polygon fill="black" stroke="black" points="132.547,-478.104 129.047,-468.104 125.547,-478.104 132.547,-478.104"/>
</g>
<!-- 26&#45;&gt;16 -->
<g id="edge3" class="edge"><title>26&#45;&gt;16</title>
<path fill="none" stroke="black" d="M129.047,-1367.7C129.047,-1359.98 129.047,-1350.71 129.047,-1342.11"/>
<polygon fill="black" stroke="black" points="132.547,-1342.1 129.047,-1332.1 125.547,-1342.1 132.547,-1342.1"/>
</g>
<!-- 27&#45;&gt;1 -->
<g id="edge11" class="edge"><title>27&#45;&gt;1</title>
<path fill="none" stroke="black" d="M129.047,-287.697C129.047,-279.983 129.047,-270.712 129.047,-262.112"/>
<polygon fill="black" stroke="black" points="132.547,-262.104 129.047,-252.104 125.547,-262.104 132.547,-262.104"/>
</g>
<!-- 28&#45;&gt;23 -->
<g id="edge7" class="edge"><title>28&#45;&gt;23</title>
<path fill="none" stroke="black" d="M178.047,-143.697C178.047,-135.983 178.047,-126.712 178.047,-118.112"/>
<polygon fill="black" stroke="black" points="181.547,-118.104 178.047,-108.104 174.547,-118.104 181.547,-118.104"/>
</g>
<!-- 29 -->
<g id="node30" class="node"><title>29</title>
<g id="a_node30"><a xlink:title="29, diversity: 1, multiplicities: 36, labels: 0">
<ellipse fill="#f7fcf5" stroke="black" cx="379.047" cy="-1602" rx="41.6928" ry="18"/>
<text text-anchor="middle" x="379.047" y="-1598.3" font-family="Times,serif" font-size="14.00">29 (1): 0</text>
</a>
</g>
</g>
<!-- 30&#45;&gt;29 -->
<g id="edge14" class="edge"><title>30&#45;&gt;29</title>
<path fill="none" stroke="black" d="M377.541,-1655.7C377.761,-1647.98 378.026,-1638.71 378.272,-1630.11"/>
<polygon fill="black" stroke="black" points="381.771,-1630.2 378.558,-1620.1 374.774,-1630 381.771,-1630.2"/>
</g>
</g>
</svg>
