<?xml version="1.0" encoding="UTF-8" standalone="no"?>
<!DOCTYPE svg PUBLIC "-//W3C//DTD SVG 1.1//EN"
 "http://www.w3.org/Graphics/SVG/1.1/DTD/svg11.dtd">
<!-- Generated by graphviz version 2.38.0 (20140413.2041)
 -->
<!-- Title: %3 Pages: 1 -->
<svg width="681pt" height="1844pt"
 viewBox="0.00 0.00 680.64 1844.00" xmlns="http://www.w3.org/2000/svg" xmlns:xlink="http://www.w3.org/1999/xlink">
<g id="graph0" class="graph" transform="scale(1 1) rotate(0) translate(4 1840)">
<title>%3</title>
<polygon fill="white" stroke="none" points="-4,4 -4,-1840 676.643,-1840 676.643,4 -4,4"/>
<!-- 0 -->
<g id="node1" class="node"><title>0</title>
<g id="a_node1"><a xlink:title="0, diversity: 2, multiplicities: 23,171, labels: 0">
<ellipse fill="#f7fcf5" stroke="black" cx="239.596" cy="-882" rx="37.0935" ry="18"/>
<text text-anchor="middle" x="239.596" y="-878.3" font-family="Times,serif" font-size="14.00">0 (2): 0</text>
</a>
</g>
</g>
<!-- 1 -->
<g id="node2" class="node"><title>1</title>
<g id="a_node2"><a xlink:title="1, diversity: 3, multiplicities: 25,41,77, labels: 0">
<ellipse fill="#f7fcf5" stroke="black" cx="386.596" cy="-954" rx="37.0935" ry="18"/>
<text text-anchor="middle" x="386.596" y="-950.3" font-family="Times,serif" font-size="14.00">1 (3): 0</text>
</a>
</g>
</g>
<!-- 1&#45;&gt;0 -->
<g id="edge37" class="edge"><title>1&#45;&gt;0</title>
<path fill="none" stroke="black" d="M360.991,-940.807C337.108,-929.434 301.274,-912.37 274.724,-899.727"/>
<polygon fill="black" stroke="black" points="275.935,-896.428 265.402,-895.288 272.925,-902.748 275.935,-896.428"/>
</g>
<!-- 22 -->
<g id="node23" class="node"><title>22</title>
<g id="a_node23"><a xlink:title="22, diversity: 1, multiplicities: 1, labels: 0">
<ellipse fill="#f7fcf5" stroke="black" cx="336.596" cy="-882" rx="41.6928" ry="18"/>
<text text-anchor="middle" x="336.596" y="-878.3" font-family="Times,serif" font-size="14.00">22 (1): 0</text>
</a>
</g>
</g>
<!-- 1&#45;&gt;22 -->
<g id="edge36" class="edge"><title>1&#45;&gt;22</title>
<path fill="none" stroke="black" d="M375,-936.765C368.904,-928.23 361.298,-917.582 354.467,-908.019"/>
<polygon fill="black" stroke="black" points="357.138,-905.736 348.477,-899.633 351.442,-909.805 357.138,-905.736"/>
</g>
<!-- 47 -->
<g id="node48" class="node"><title>47</title>
<g id="a_node48"><a xlink:title="47, diversity: 1, multiplicities: 1, labels: 0">
<ellipse fill="#f7fcf5" stroke="black" cx="437.596" cy="-882" rx="41.6928" ry="18"/>
<text text-anchor="middle" x="437.596" y="-878.3" font-family="Times,serif" font-size="14.00">47 (1): 0</text>
</a>
</g>
</g>
<!-- 1&#45;&gt;47 -->
<g id="edge43" class="edge"><title>1&#45;&gt;47</title>
<path fill="none" stroke="black" d="M398.425,-936.765C404.706,-928.143 412.559,-917.365 419.581,-907.727"/>
<polygon fill="black" stroke="black" points="422.418,-909.777 425.478,-899.633 416.76,-905.655 422.418,-909.777"/>
</g>
<!-- 50 -->
<g id="node51" class="node"><title>50</title>
<g id="a_node51"><a xlink:title="50, diversity: 1, multiplicities: 18, labels: 0">
<ellipse fill="#f7fcf5" stroke="black" cx="538.596" cy="-882" rx="41.6928" ry="18"/>
<text text-anchor="middle" x="538.596" y="-878.3" font-family="Times,serif" font-size="14.00">50 (1): 0</text>
</a>
</g>
</g>
<!-- 1&#45;&gt;50 -->
<g id="edge32" class="edge"><title>1&#45;&gt;50</title>
<path fill="none" stroke="black" d="M412.726,-940.967C437.327,-929.637 474.409,-912.56 501.96,-899.872"/>
<polygon fill="black" stroke="black" points="503.652,-902.946 511.271,-895.584 500.724,-896.588 503.652,-902.946"/>
</g>
<!-- 2 -->
<g id="node3" class="node"><title>2</title>
<g id="a_node3"><a xlink:title="2, diversity: 1, multiplicities: 1, labels: 0">
<ellipse fill="#f7fcf5" stroke="black" cx="389.596" cy="-1386" rx="37.0935" ry="18"/>
<text text-anchor="middle" x="389.596" y="-1382.3" font-family="Times,serif" font-size="14.00">2 (1): 0</text>
</a>
</g>
</g>
<!-- 12 -->
<g id="node13" class="node"><title>12</title>
<g id="a_node13"><a xlink:title="12, diversity: 1, multiplicities: 6, labels: 0">
<ellipse fill="#f7fcf5" stroke="black" cx="390.596" cy="-1314" rx="41.6928" ry="18"/>
<text text-anchor="middle" x="390.596" y="-1310.3" font-family="Times,serif" font-size="14.00">12 (1): 0</text>
</a>
</g>
</g>
<!-- 2&#45;&gt;12 -->
<g id="edge8" class="edge"><title>2&#45;&gt;12</title>
<path fill="none" stroke="black" d="M389.844,-1367.7C389.954,-1359.98 390.086,-1350.71 390.209,-1342.11"/>
<polygon fill="black" stroke="black" points="393.709,-1342.15 390.352,-1332.1 386.709,-1342.05 393.709,-1342.15"/>
</g>
<!-- 3 -->
<g id="node4" class="node"><title>3</title>
<g id="a_node4"><a xlink:title="3, diversity: 1, multiplicities: 40, labels: 0">
<ellipse fill="#f7fcf5" stroke="black" cx="336.596" cy="-810" rx="37.0935" ry="18"/>
<text text-anchor="middle" x="336.596" y="-806.3" font-family="Times,serif" font-size="14.00">3 (1): 0</text>
</a>
</g>
</g>
<!-- 4 -->
<g id="node5" class="node"><title>4</title>
<g id="a_node5"><a xlink:title="4, diversity: 4, multiplicities: 1,8,9,29, labels: 0">
<ellipse fill="#f7fcf5" stroke="black" cx="635.596" cy="-882" rx="37.0935" ry="18"/>
<text text-anchor="middle" x="635.596" y="-878.3" font-family="Times,serif" font-size="14.00">4 (4): 0</text>
</a>
</g>
</g>
<!-- 5 -->
<g id="node6" class="node"><title>5</title>
<g id="a_node6"><a xlink:title="5, diversity: 3, multiplicities: 1,3,169, labels: 0">
<ellipse fill="#f7fcf5" stroke="black" cx="412.596" cy="-1026" rx="37.0935" ry="18"/>
<text text-anchor="middle" x="412.596" y="-1022.3" font-family="Times,serif" font-size="14.00">5 (3): 0</text>
</a>
</g>
</g>
<!-- 5&#45;&gt;1 -->
<g id="edge11" class="edge"><title>5&#45;&gt;1</title>
<path fill="none" stroke="black" d="M406.302,-1008.05C403.332,-1000.06 399.719,-990.331 396.402,-981.4"/>
<polygon fill="black" stroke="black" points="399.595,-979.945 392.832,-971.789 393.033,-982.382 399.595,-979.945"/>
</g>
<!-- 10 -->
<g id="node11" class="node"><title>10</title>
<g id="a_node11"><a xlink:title="10, diversity: 1, multiplicities: 11, labels: 0">
<ellipse fill="#f7fcf5" stroke="black" cx="483.596" cy="-954" rx="41.6928" ry="18"/>
<text text-anchor="middle" x="483.596" y="-950.3" font-family="Times,serif" font-size="14.00">10 (1): 0</text>
</a>
</g>
</g>
<!-- 5&#45;&gt;10 -->
<g id="edge40" class="edge"><title>5&#45;&gt;10</title>
<path fill="none" stroke="black" d="M428.354,-1009.46C437.69,-1000.26 449.698,-988.421 460.132,-978.134"/>
<polygon fill="black" stroke="black" points="462.727,-980.49 467.391,-970.977 457.813,-975.506 462.727,-980.49"/>
</g>
<!-- 6 -->
<g id="node7" class="node"><title>6</title>
<g id="a_node7"><a xlink:title="6, diversity: 1, multiplicities: 7, labels: 0">
<ellipse fill="#f7fcf5" stroke="black" cx="557.596" cy="-1026" rx="37.0935" ry="18"/>
<text text-anchor="middle" x="557.596" y="-1022.3" font-family="Times,serif" font-size="14.00">6 (1): 0</text>
</a>
</g>
</g>
<!-- 16 -->
<g id="node17" class="node"><title>16</title>
<g id="a_node17"><a xlink:title="16, diversity: 1, multiplicities: 6, labels: 0">
<ellipse fill="#f7fcf5" stroke="black" cx="584.596" cy="-954" rx="41.6928" ry="18"/>
<text text-anchor="middle" x="584.596" y="-950.3" font-family="Times,serif" font-size="14.00">16 (1): 0</text>
</a>
</g>
</g>
<!-- 6&#45;&gt;16 -->
<g id="edge49" class="edge"><title>6&#45;&gt;16</title>
<path fill="none" stroke="black" d="M564.132,-1008.05C567.217,-1000.06 570.969,-990.331 574.414,-981.4"/>
<polygon fill="black" stroke="black" points="577.787,-982.379 578.121,-971.789 571.256,-979.859 577.787,-982.379"/>
</g>
<!-- 7 -->
<g id="node8" class="node"><title>7</title>
<g id="a_node8"><a xlink:title="7, diversity: 1, multiplicities: 7, labels: 0">
<ellipse fill="#f7fcf5" stroke="black" cx="397.596" cy="-1242" rx="37.0935" ry="18"/>
<text text-anchor="middle" x="397.596" y="-1238.3" font-family="Times,serif" font-size="14.00">7 (1): 0</text>
</a>
</g>
</g>
<!-- 13 -->
<g id="node14" class="node"><title>13</title>
<g id="a_node14"><a xlink:title="13, diversity: 1, multiplicities: 7, labels: 0">
<ellipse fill="#f7fcf5" stroke="black" cx="412.596" cy="-1170" rx="41.6928" ry="18"/>
<text text-anchor="middle" x="412.596" y="-1166.3" font-family="Times,serif" font-size="14.00">13 (1): 0</text>
</a>
</g>
</g>
<!-- 7&#45;&gt;13 -->
<g id="edge42" class="edge"><title>7&#45;&gt;13</title>
<path fill="none" stroke="black" d="M401.227,-1224.05C402.898,-1216.26 404.92,-1206.82 406.794,-1198.08"/>
<polygon fill="black" stroke="black" points="410.221,-1198.79 408.894,-1188.28 403.377,-1197.32 410.221,-1198.79"/>
</g>
<!-- 8 -->
<g id="node9" class="node"><title>8</title>
<g id="a_node9"><a xlink:title="8, diversity: 1, multiplicities: 1, labels: 0">
<ellipse fill="#f7fcf5" stroke="black" cx="290.596" cy="-1746" rx="37.0935" ry="18"/>
<text text-anchor="middle" x="290.596" y="-1742.3" font-family="Times,serif" font-size="14.00">8 (1): 0</text>
</a>
</g>
</g>
<!-- 11 -->
<g id="node12" class="node"><title>11</title>
<g id="a_node12"><a xlink:title="11, diversity: 1, multiplicities: 1, labels: 0">
<ellipse fill="#f7fcf5" stroke="black" cx="288.596" cy="-1674" rx="41.6928" ry="18"/>
<text text-anchor="middle" x="288.596" y="-1670.3" font-family="Times,serif" font-size="14.00">11 (1): 0</text>
</a>
</g>
</g>
<!-- 8&#45;&gt;11 -->
<g id="edge31" class="edge"><title>8&#45;&gt;11</title>
<path fill="none" stroke="black" d="M290.102,-1727.7C289.882,-1719.98 289.617,-1710.71 289.371,-1702.11"/>
<polygon fill="black" stroke="black" points="292.869,-1702 289.085,-1692.1 285.872,-1702.2 292.869,-1702"/>
</g>
<!-- 9 -->
<g id="node10" class="node"><title>9</title>
<g id="a_node10"><a xlink:title="9, diversity: 1, multiplicities: 10, labels: 0">
<ellipse fill="#f7fcf5" stroke="black" cx="412.596" cy="-1098" rx="37.0935" ry="18"/>
<text text-anchor="middle" x="412.596" y="-1094.3" font-family="Times,serif" font-size="14.00">9 (1): 0</text>
</a>
</g>
</g>
<!-- 9&#45;&gt;5 -->
<g id="edge35" class="edge"><title>9&#45;&gt;5</title>
<path fill="none" stroke="black" d="M412.596,-1079.7C412.596,-1071.98 412.596,-1062.71 412.596,-1054.11"/>
<polygon fill="black" stroke="black" points="416.096,-1054.1 412.596,-1044.1 409.096,-1054.1 416.096,-1054.1"/>
</g>
<!-- 9&#45;&gt;6 -->
<g id="edge38" class="edge"><title>9&#45;&gt;6</title>
<path fill="none" stroke="black" d="M437.853,-1084.81C461.412,-1073.43 496.758,-1056.37 522.947,-1043.73"/>
<polygon fill="black" stroke="black" points="524.658,-1046.79 532.142,-1039.29 521.615,-1040.48 524.658,-1046.79"/>
</g>
<!-- 10&#45;&gt;4 -->
<g id="edge29" class="edge"><title>10&#45;&gt;4</title>
<path fill="none" stroke="black" d="M511.122,-940.324C536.147,-928.799 573.206,-911.732 600.38,-899.218"/>
<polygon fill="black" stroke="black" points="601.925,-902.36 609.544,-894.998 598.997,-896.002 601.925,-902.36"/>
</g>
<!-- 24 -->
<g id="node25" class="node"><title>24</title>
<g id="a_node25"><a xlink:title="24, diversity: 1, multiplicities: 1, labels: 0">
<ellipse fill="#f7fcf5" stroke="black" cx="288.596" cy="-1602" rx="41.6928" ry="18"/>
<text text-anchor="middle" x="288.596" y="-1598.3" font-family="Times,serif" font-size="14.00">24 (1): 0</text>
</a>
</g>
</g>
<!-- 11&#45;&gt;24 -->
<g id="edge10" class="edge"><title>11&#45;&gt;24</title>
<path fill="none" stroke="black" d="M288.596,-1655.7C288.596,-1647.98 288.596,-1638.71 288.596,-1630.11"/>
<polygon fill="black" stroke="black" points="292.096,-1630.1 288.596,-1620.1 285.096,-1630.1 292.096,-1630.1"/>
</g>
<!-- 12&#45;&gt;7 -->
<g id="edge25" class="edge"><title>12&#45;&gt;7</title>
<path fill="none" stroke="black" d="M392.327,-1295.7C393.098,-1287.98 394.025,-1278.71 394.885,-1270.11"/>
<polygon fill="black" stroke="black" points="398.373,-1270.4 395.886,-1260.1 391.408,-1269.71 398.373,-1270.4"/>
</g>
<!-- 13&#45;&gt;9 -->
<g id="edge47" class="edge"><title>13&#45;&gt;9</title>
<path fill="none" stroke="black" d="M412.596,-1151.7C412.596,-1143.98 412.596,-1134.71 412.596,-1126.11"/>
<polygon fill="black" stroke="black" points="416.096,-1126.1 412.596,-1116.1 409.096,-1126.1 416.096,-1126.1"/>
</g>
<!-- 14 -->
<g id="node15" class="node"><title>14</title>
<g id="a_node15"><a xlink:title="14, diversity: 1, multiplicities: 2, labels: 0">
<ellipse fill="#f7fcf5" stroke="black" cx="286.596" cy="-1314" rx="41.6928" ry="18"/>
<text text-anchor="middle" x="286.596" y="-1310.3" font-family="Times,serif" font-size="14.00">14 (1): 0</text>
</a>
</g>
</g>
<!-- 37 -->
<g id="node38" class="node"><title>37</title>
<g id="a_node38"><a xlink:title="37, diversity: 1, multiplicities: 1, labels: 0">
<ellipse fill="#f7fcf5" stroke="black" cx="282.596" cy="-1242" rx="41.6928" ry="18"/>
<text text-anchor="middle" x="282.596" y="-1238.3" font-family="Times,serif" font-size="14.00">37 (1): 0</text>
</a>
</g>
</g>
<!-- 14&#45;&gt;37 -->
<g id="edge4" class="edge"><title>14&#45;&gt;37</title>
<path fill="none" stroke="black" d="M285.608,-1295.7C285.167,-1287.98 284.637,-1278.71 284.146,-1270.11"/>
<polygon fill="black" stroke="black" points="287.639,-1269.89 283.574,-1260.1 280.65,-1270.29 287.639,-1269.89"/>
</g>
<!-- 15 -->
<g id="node16" class="node"><title>15</title>
<g id="a_node16"><a xlink:title="15, diversity: 1, multiplicities: 2, labels: 0">
<ellipse fill="#f7fcf5" stroke="black" cx="389.596" cy="-1530" rx="41.6928" ry="18"/>
<text text-anchor="middle" x="389.596" y="-1526.3" font-family="Times,serif" font-size="14.00">15 (1): 0</text>
</a>
</g>
</g>
<!-- 23 -->
<g id="node24" class="node"><title>23</title>
<g id="a_node24"><a xlink:title="23, diversity: 1, multiplicities: 1, labels: 0">
<ellipse fill="#f7fcf5" stroke="black" cx="389.596" cy="-1458" rx="41.6928" ry="18"/>
<text text-anchor="middle" x="389.596" y="-1454.3" font-family="Times,serif" font-size="14.00">23 (1): 0</text>
</a>
</g>
</g>
<!-- 15&#45;&gt;23 -->
<g id="edge16" class="edge"><title>15&#45;&gt;23</title>
<path fill="none" stroke="black" d="M389.596,-1511.7C389.596,-1503.98 389.596,-1494.71 389.596,-1486.11"/>
<polygon fill="black" stroke="black" points="393.096,-1486.1 389.596,-1476.1 386.096,-1486.1 393.096,-1486.1"/>
</g>
<!-- 17 -->
<g id="node18" class="node"><title>17</title>
<g id="a_node18"><a xlink:title="17, diversity: 1, multiplicities: 1, labels: 0">
<ellipse fill="#f7fcf5" stroke="black" cx="339.596" cy="-1818" rx="41.6928" ry="18"/>
<text text-anchor="middle" x="339.596" y="-1814.3" font-family="Times,serif" font-size="14.00">17 (1): 0</text>
</a>
</g>
</g>
<!-- 17&#45;&gt;8 -->
<g id="edge2" class="edge"><title>17&#45;&gt;8</title>
<path fill="none" stroke="black" d="M327.984,-1800.41C322.004,-1791.87 314.591,-1781.28 307.947,-1771.79"/>
<polygon fill="black" stroke="black" points="310.727,-1769.66 302.125,-1763.47 304.993,-1773.67 310.727,-1769.66"/>
</g>
<!-- 18 -->
<g id="node19" class="node"><title>18</title>
<g id="a_node19"><a xlink:title="18, diversity: 2, multiplicities: 1,2, labels: 0">
<ellipse fill="#f7fcf5" stroke="black" cx="388.596" cy="-1746" rx="41.6928" ry="18"/>
<text text-anchor="middle" x="388.596" y="-1742.3" font-family="Times,serif" font-size="14.00">18 (2): 0</text>
</a>
</g>
</g>
<!-- 17&#45;&gt;18 -->
<g id="edge39" class="edge"><title>17&#45;&gt;18</title>
<path fill="none" stroke="black" d="M351.209,-1800.41C357.189,-1791.87 364.601,-1781.28 371.245,-1771.79"/>
<polygon fill="black" stroke="black" points="374.2,-1773.67 377.067,-1763.47 368.465,-1769.66 374.2,-1773.67"/>
</g>
<!-- 20 -->
<g id="node21" class="node"><title>20</title>
<g id="a_node21"><a xlink:title="20, diversity: 1, multiplicities: 1, labels: 0">
<ellipse fill="#f7fcf5" stroke="black" cx="389.596" cy="-1674" rx="41.6928" ry="18"/>
<text text-anchor="middle" x="389.596" y="-1670.3" font-family="Times,serif" font-size="14.00">20 (1): 0</text>
</a>
</g>
</g>
<!-- 18&#45;&gt;20 -->
<g id="edge5" class="edge"><title>18&#45;&gt;20</title>
<path fill="none" stroke="black" d="M388.844,-1727.7C388.954,-1719.98 389.086,-1710.71 389.209,-1702.11"/>
<polygon fill="black" stroke="black" points="392.709,-1702.15 389.352,-1692.1 385.709,-1702.05 392.709,-1702.15"/>
</g>
<!-- 19 -->
<g id="node20" class="node"><title>19</title>
<g id="a_node20"><a xlink:title="19, diversity: 1, multiplicities: 1, labels: 0">
<ellipse fill="#f7fcf5" stroke="black" cx="389.596" cy="-1602" rx="41.6928" ry="18"/>
<text text-anchor="middle" x="389.596" y="-1598.3" font-family="Times,serif" font-size="14.00">19 (1): 0</text>
</a>
</g>
</g>
<!-- 19&#45;&gt;15 -->
<g id="edge7" class="edge"><title>19&#45;&gt;15</title>
<path fill="none" stroke="black" d="M389.596,-1583.7C389.596,-1575.98 389.596,-1566.71 389.596,-1558.11"/>
<polygon fill="black" stroke="black" points="393.096,-1558.1 389.596,-1548.1 386.096,-1558.1 393.096,-1558.1"/>
</g>
<!-- 20&#45;&gt;19 -->
<g id="edge34" class="edge"><title>20&#45;&gt;19</title>
<path fill="none" stroke="black" d="M389.596,-1655.7C389.596,-1647.98 389.596,-1638.71 389.596,-1630.11"/>
<polygon fill="black" stroke="black" points="393.096,-1630.1 389.596,-1620.1 386.096,-1630.1 393.096,-1630.1"/>
</g>
<!-- 21 -->
<g id="node22" class="node"><title>21</title>
<g id="a_node22"><a xlink:title="21, diversity: 1, multiplicities: 1, labels: 0">
<ellipse fill="#f7fcf5" stroke="black" cx="288.596" cy="-1386" rx="41.6928" ry="18"/>
<text text-anchor="middle" x="288.596" y="-1382.3" font-family="Times,serif" font-size="14.00">21 (1): 0</text>
</a>
</g>
</g>
<!-- 21&#45;&gt;14 -->
<g id="edge1" class="edge"><title>21&#45;&gt;14</title>
<path fill="none" stroke="black" d="M288.102,-1367.7C287.882,-1359.98 287.617,-1350.71 287.371,-1342.11"/>
<polygon fill="black" stroke="black" points="290.869,-1342 287.085,-1332.1 283.872,-1342.2 290.869,-1342"/>
</g>
<!-- 22&#45;&gt;3 -->
<g id="edge28" class="edge"><title>22&#45;&gt;3</title>
<path fill="none" stroke="black" d="M336.596,-863.697C336.596,-855.983 336.596,-846.712 336.596,-838.112"/>
<polygon fill="black" stroke="black" points="340.096,-838.104 336.596,-828.104 333.096,-838.104 340.096,-838.104"/>
</g>
<!-- 23&#45;&gt;2 -->
<g id="edge19" class="edge"><title>23&#45;&gt;2</title>
<path fill="none" stroke="black" d="M389.596,-1439.7C389.596,-1431.98 389.596,-1422.71 389.596,-1414.11"/>
<polygon fill="black" stroke="black" points="393.096,-1414.1 389.596,-1404.1 386.096,-1414.1 393.096,-1414.1"/>
</g>
<!-- 49 -->
<g id="node50" class="node"><title>49</title>
<g id="a_node50"><a xlink:title="49, diversity: 1, multiplicities: 1, labels: 0">
<ellipse fill="#f7fcf5" stroke="black" cx="288.596" cy="-1530" rx="41.6928" ry="18"/>
<text text-anchor="middle" x="288.596" y="-1526.3" font-family="Times,serif" font-size="14.00">49 (1): 0</text>
</a>
</g>
</g>
<!-- 24&#45;&gt;49 -->
<g id="edge41" class="edge"><title>24&#45;&gt;49</title>
<path fill="none" stroke="black" d="M288.596,-1583.7C288.596,-1575.98 288.596,-1566.71 288.596,-1558.11"/>
<polygon fill="black" stroke="black" points="292.096,-1558.1 288.596,-1548.1 285.096,-1558.1 292.096,-1558.1"/>
</g>
<!-- 25 -->
<g id="node26" class="node"><title>25</title>
<g id="a_node26"><a xlink:title="25, diversity: 2, multiplicities: 1,36, labels: 0">
<ellipse fill="#f7fcf5" stroke="black" cx="41.5963" cy="-450" rx="41.6928" ry="18"/>
<text text-anchor="middle" x="41.5963" y="-446.3" font-family="Times,serif" font-size="14.00">25 (2): 0</text>
</a>
</g>
</g>
<!-- 26 -->
<g id="node27" class="node"><title>26</title>
<g id="a_node27"><a xlink:title="26, diversity: 2, multiplicities: 1,2, labels: 0">
<ellipse fill="#f7fcf5" stroke="black" cx="142.596" cy="-810" rx="41.6928" ry="18"/>
<text text-anchor="middle" x="142.596" y="-806.3" font-family="Times,serif" font-size="14.00">26 (2): 0</text>
</a>
</g>
</g>
<!-- 28 -->
<g id="node29" class="node"><title>28</title>
<g id="a_node29"><a xlink:title="28, diversity: 1, multiplicities: 1, labels: 0">
<ellipse fill="#f7fcf5" stroke="black" cx="142.596" cy="-738" rx="41.6928" ry="18"/>
<text text-anchor="middle" x="142.596" y="-734.3" font-family="Times,serif" font-size="14.00">28 (1): 0</text>
</a>
</g>
</g>
<!-- 26&#45;&gt;28 -->
<g id="edge6" class="edge"><title>26&#45;&gt;28</title>
<path fill="none" stroke="black" d="M142.596,-791.697C142.596,-783.983 142.596,-774.712 142.596,-766.112"/>
<polygon fill="black" stroke="black" points="146.096,-766.104 142.596,-756.104 139.096,-766.104 146.096,-766.104"/>
</g>
<!-- 27 -->
<g id="node28" class="node"><title>27</title>
<g id="a_node28"><a xlink:title="27, diversity: 1, multiplicities: 18, labels: 0">
<ellipse fill="#f7fcf5" stroke="black" cx="142.596" cy="-522" rx="41.6928" ry="18"/>
<text text-anchor="middle" x="142.596" y="-518.3" font-family="Times,serif" font-size="14.00">27 (1): 0</text>
</a>
</g>
</g>
<!-- 27&#45;&gt;25 -->
<g id="edge18" class="edge"><title>27&#45;&gt;25</title>
<path fill="none" stroke="black" d="M121.177,-506.155C106.617,-496.064 87.1654,-482.583 71.1378,-471.474"/>
<polygon fill="black" stroke="black" points="72.8513,-468.403 62.6386,-465.584 68.8639,-474.157 72.8513,-468.403"/>
</g>
<!-- 29 -->
<g id="node30" class="node"><title>29</title>
<g id="a_node30"><a xlink:title="29, diversity: 1, multiplicities: 10, labels: 0">
<ellipse fill="#f7fcf5" stroke="black" cx="142.596" cy="-450" rx="41.6928" ry="18"/>
<text text-anchor="middle" x="142.596" y="-446.3" font-family="Times,serif" font-size="14.00">29 (1): 0</text>
</a>
</g>
</g>
<!-- 27&#45;&gt;29 -->
<g id="edge15" class="edge"><title>27&#45;&gt;29</title>
<path fill="none" stroke="black" d="M142.596,-503.697C142.596,-495.983 142.596,-486.712 142.596,-478.112"/>
<polygon fill="black" stroke="black" points="146.096,-478.104 142.596,-468.104 139.096,-478.104 146.096,-478.104"/>
</g>
<!-- 30 -->
<g id="node31" class="node"><title>30</title>
<g id="a_node31"><a xlink:title="30, diversity: 1, multiplicities: 13, labels: 0">
<ellipse fill="#f7fcf5" stroke="black" cx="243.596" cy="-450" rx="41.6928" ry="18"/>
<text text-anchor="middle" x="243.596" y="-446.3" font-family="Times,serif" font-size="14.00">30 (1): 0</text>
</a>
</g>
</g>
<!-- 27&#45;&gt;30 -->
<g id="edge46" class="edge"><title>27&#45;&gt;30</title>
<path fill="none" stroke="black" d="M164.016,-506.155C178.575,-496.064 198.027,-482.583 214.055,-471.474"/>
<polygon fill="black" stroke="black" points="216.329,-474.157 222.554,-465.584 212.341,-468.403 216.329,-474.157"/>
</g>
<!-- 33 -->
<g id="node34" class="node"><title>33</title>
<g id="a_node34"><a xlink:title="33, diversity: 1, multiplicities: 1, labels: 0">
<ellipse fill="#f7fcf5" stroke="black" cx="142.596" cy="-666" rx="41.6928" ry="18"/>
<text text-anchor="middle" x="142.596" y="-662.3" font-family="Times,serif" font-size="14.00">33 (1): 0</text>
</a>
</g>
</g>
<!-- 28&#45;&gt;33 -->
<g id="edge45" class="edge"><title>28&#45;&gt;33</title>
<path fill="none" stroke="black" d="M142.596,-719.697C142.596,-711.983 142.596,-702.712 142.596,-694.112"/>
<polygon fill="black" stroke="black" points="146.096,-694.104 142.596,-684.104 139.096,-694.104 146.096,-694.104"/>
</g>
<!-- 36 -->
<g id="node37" class="node"><title>36</title>
<g id="a_node37"><a xlink:title="36, diversity: 1, multiplicities: 19, labels: 0">
<ellipse fill="#f7fcf5" stroke="black" cx="142.596" cy="-378" rx="41.6928" ry="18"/>
<text text-anchor="middle" x="142.596" y="-374.3" font-family="Times,serif" font-size="14.00">36 (1): 0</text>
</a>
</g>
</g>
<!-- 29&#45;&gt;36 -->
<g id="edge48" class="edge"><title>29&#45;&gt;36</title>
<path fill="none" stroke="black" d="M142.596,-431.697C142.596,-423.983 142.596,-414.712 142.596,-406.112"/>
<polygon fill="black" stroke="black" points="146.096,-406.104 142.596,-396.104 139.096,-406.104 146.096,-406.104"/>
</g>
<!-- 51 -->
<g id="node52" class="node"><title>51</title>
<g id="a_node52"><a xlink:title="51, diversity: 1, multiplicities: 12, labels: 0">
<ellipse fill="#f7fcf5" stroke="black" cx="243.596" cy="-378" rx="41.6928" ry="18"/>
<text text-anchor="middle" x="243.596" y="-374.3" font-family="Times,serif" font-size="14.00">51 (1): 0</text>
</a>
</g>
</g>
<!-- 30&#45;&gt;51 -->
<g id="edge9" class="edge"><title>30&#45;&gt;51</title>
<path fill="none" stroke="black" d="M243.596,-431.697C243.596,-423.983 243.596,-414.712 243.596,-406.112"/>
<polygon fill="black" stroke="black" points="247.096,-406.104 243.596,-396.104 240.096,-406.104 247.096,-406.104"/>
</g>
<!-- 31 -->
<g id="node32" class="node"><title>31</title>
<g id="a_node32"><a xlink:title="31, diversity: 1, multiplicities: 12, labels: 0">
<ellipse fill="#f7fcf5" stroke="black" cx="142.596" cy="-594" rx="41.6928" ry="18"/>
<text text-anchor="middle" x="142.596" y="-590.3" font-family="Times,serif" font-size="14.00">31 (1): 0</text>
</a>
</g>
</g>
<!-- 31&#45;&gt;27 -->
<g id="edge44" class="edge"><title>31&#45;&gt;27</title>
<path fill="none" stroke="black" d="M142.596,-575.697C142.596,-567.983 142.596,-558.712 142.596,-550.112"/>
<polygon fill="black" stroke="black" points="146.096,-550.104 142.596,-540.104 139.096,-550.104 146.096,-550.104"/>
</g>
<!-- 32 -->
<g id="node33" class="node"><title>32</title>
<g id="a_node33"><a xlink:title="32, diversity: 1, multiplicities: 1, labels: 0">
<ellipse fill="#f7fcf5" stroke="black" cx="142.596" cy="-882" rx="41.6928" ry="18"/>
<text text-anchor="middle" x="142.596" y="-878.3" font-family="Times,serif" font-size="14.00">32 (1): 0</text>
</a>
</g>
</g>
<!-- 32&#45;&gt;26 -->
<g id="edge3" class="edge"><title>32&#45;&gt;26</title>
<path fill="none" stroke="black" d="M142.596,-863.697C142.596,-855.983 142.596,-846.712 142.596,-838.112"/>
<polygon fill="black" stroke="black" points="146.096,-838.104 142.596,-828.104 139.096,-838.104 146.096,-838.104"/>
</g>
<!-- 33&#45;&gt;31 -->
<g id="edge51" class="edge"><title>33&#45;&gt;31</title>
<path fill="none" stroke="black" d="M142.596,-647.697C142.596,-639.983 142.596,-630.712 142.596,-622.112"/>
<polygon fill="black" stroke="black" points="146.096,-622.104 142.596,-612.104 139.096,-622.104 146.096,-622.104"/>
</g>
<!-- 34 -->
<g id="node35" class="node"><title>34</title>
<g id="a_node35"><a xlink:title="34, diversity: 1, multiplicities: 1, labels: 0">
<ellipse fill="#f7fcf5" stroke="black" cx="142.596" cy="-954" rx="41.6928" ry="18"/>
<text text-anchor="middle" x="142.596" y="-950.3" font-family="Times,serif" font-size="14.00">34 (1): 0</text>
</a>
</g>
</g>
<!-- 34&#45;&gt;32 -->
<g id="edge20" class="edge"><title>34&#45;&gt;32</title>
<path fill="none" stroke="black" d="M142.596,-935.697C142.596,-927.983 142.596,-918.712 142.596,-910.112"/>
<polygon fill="black" stroke="black" points="146.096,-910.104 142.596,-900.104 139.096,-910.104 146.096,-910.104"/>
</g>
<!-- 35 -->
<g id="node36" class="node"><title>35</title>
<g id="a_node36"><a xlink:title="35, diversity: 1, multiplicities: 14, labels: 0">
<ellipse fill="#f7fcf5" stroke="black" cx="92.5963" cy="-306" rx="41.6928" ry="18"/>
<text text-anchor="middle" x="92.5963" y="-302.3" font-family="Times,serif" font-size="14.00">35 (1): 0</text>
</a>
</g>
</g>
<!-- 36&#45;&gt;35 -->
<g id="edge22" class="edge"><title>36&#45;&gt;35</title>
<path fill="none" stroke="black" d="M130.747,-360.411C124.645,-351.868 117.081,-341.278 110.302,-331.787"/>
<polygon fill="black" stroke="black" points="113.021,-329.573 104.361,-323.47 107.325,-333.642 113.021,-329.573"/>
</g>
<!-- 43 -->
<g id="node44" class="node"><title>43</title>
<g id="a_node44"><a xlink:title="43, diversity: 1, multiplicities: 1, labels: 0">
<ellipse fill="#f7fcf5" stroke="black" cx="193.596" cy="-306" rx="41.6928" ry="18"/>
<text text-anchor="middle" x="193.596" y="-302.3" font-family="Times,serif" font-size="14.00">43 (1): 0</text>
</a>
</g>
</g>
<!-- 36&#45;&gt;43 -->
<g id="edge14" class="edge"><title>36&#45;&gt;43</title>
<path fill="none" stroke="black" d="M154.683,-360.411C160.907,-351.868 168.622,-341.278 175.537,-331.787"/>
<polygon fill="black" stroke="black" points="178.537,-333.613 181.597,-323.47 172.879,-329.491 178.537,-333.613"/>
</g>
<!-- 38 -->
<g id="node39" class="node"><title>38</title>
<g id="a_node39"><a xlink:title="38, diversity: 1, multiplicities: 1, labels: 0">
<ellipse fill="#f7fcf5" stroke="black" cx="252.596" cy="-1170" rx="41.6928" ry="18"/>
<text text-anchor="middle" x="252.596" y="-1166.3" font-family="Times,serif" font-size="14.00">38 (1): 0</text>
</a>
</g>
</g>
<!-- 37&#45;&gt;38 -->
<g id="edge30" class="edge"><title>37&#45;&gt;38</title>
<path fill="none" stroke="black" d="M275.334,-1224.05C271.87,-1215.97 267.648,-1206.12 263.787,-1197.11"/>
<polygon fill="black" stroke="black" points="266.948,-1195.6 259.792,-1187.79 260.514,-1198.36 266.948,-1195.6"/>
</g>
<!-- 39 -->
<g id="node40" class="node"><title>39</title>
<g id="a_node40"><a xlink:title="39, diversity: 1, multiplicities: 1, labels: 0">
<ellipse fill="#f7fcf5" stroke="black" cx="193.596" cy="-1098" rx="41.6928" ry="18"/>
<text text-anchor="middle" x="193.596" y="-1094.3" font-family="Times,serif" font-size="14.00">39 (1): 0</text>
</a>
</g>
</g>
<!-- 38&#45;&gt;39 -->
<g id="edge33" class="edge"><title>38&#45;&gt;39</title>
<path fill="none" stroke="black" d="M238.912,-1152.76C231.466,-1143.93 222.11,-1132.83 213.836,-1123.01"/>
<polygon fill="black" stroke="black" points="216.327,-1120.54 207.206,-1115.15 210.975,-1125.05 216.327,-1120.54"/>
</g>
<!-- 40 -->
<g id="node41" class="node"><title>40</title>
<g id="a_node41"><a xlink:title="40, diversity: 1, multiplicities: 1, labels: 0">
<ellipse fill="#f7fcf5" stroke="black" cx="193.596" cy="-1026" rx="41.6928" ry="18"/>
<text text-anchor="middle" x="193.596" y="-1022.3" font-family="Times,serif" font-size="14.00">40 (1): 0</text>
</a>
</g>
</g>
<!-- 39&#45;&gt;40 -->
<g id="edge24" class="edge"><title>39&#45;&gt;40</title>
<path fill="none" stroke="black" d="M193.596,-1079.7C193.596,-1071.98 193.596,-1062.71 193.596,-1054.11"/>
<polygon fill="black" stroke="black" points="197.096,-1054.1 193.596,-1044.1 190.096,-1054.1 197.096,-1054.1"/>
</g>
<!-- 40&#45;&gt;34 -->
<g id="edge23" class="edge"><title>40&#45;&gt;34</title>
<path fill="none" stroke="black" d="M181.51,-1008.41C175.286,-999.868 167.571,-989.278 160.656,-979.787"/>
<polygon fill="black" stroke="black" points="163.313,-977.491 154.596,-971.47 157.656,-981.613 163.313,-977.491"/>
</g>
<!-- 41 -->
<g id="node42" class="node"><title>41</title>
<g id="a_node42"><a xlink:title="41, diversity: 1, multiplicities: 21, labels: 0">
<ellipse fill="#f7fcf5" stroke="black" cx="193.596" cy="-90" rx="41.6928" ry="18"/>
<text text-anchor="middle" x="193.596" y="-86.3" font-family="Times,serif" font-size="14.00">41 (1): 0</text>
</a>
</g>
</g>
<!-- 44 -->
<g id="node45" class="node"><title>44</title>
<g id="a_node45"><a xlink:title="44, diversity: 1, multiplicities: 15, labels: 0">
<ellipse fill="#f7fcf5" stroke="black" cx="193.596" cy="-18" rx="41.6928" ry="18"/>
<text text-anchor="middle" x="193.596" y="-14.3" font-family="Times,serif" font-size="14.00">44 (1): 0</text>
</a>
</g>
</g>
<!-- 41&#45;&gt;44 -->
<g id="edge50" class="edge"><title>41&#45;&gt;44</title>
<path fill="none" stroke="black" d="M193.596,-71.6966C193.596,-63.9827 193.596,-54.7125 193.596,-46.1124"/>
<polygon fill="black" stroke="black" points="197.096,-46.1043 193.596,-36.1043 190.096,-46.1044 197.096,-46.1043"/>
</g>
<!-- 42 -->
<g id="node43" class="node"><title>42</title>
<g id="a_node43"><a xlink:title="42, diversity: 1, multiplicities: 15, labels: 0">
<ellipse fill="#f7fcf5" stroke="black" cx="193.596" cy="-162" rx="41.6928" ry="18"/>
<text text-anchor="middle" x="193.596" y="-158.3" font-family="Times,serif" font-size="14.00">42 (1): 0</text>
</a>
</g>
</g>
<!-- 42&#45;&gt;41 -->
<g id="edge26" class="edge"><title>42&#45;&gt;41</title>
<path fill="none" stroke="black" d="M193.596,-143.697C193.596,-135.983 193.596,-126.712 193.596,-118.112"/>
<polygon fill="black" stroke="black" points="197.096,-118.104 193.596,-108.104 190.096,-118.104 197.096,-118.104"/>
</g>
<!-- 45 -->
<g id="node46" class="node"><title>45</title>
<g id="a_node46"><a xlink:title="45, diversity: 1, multiplicities: 1, labels: 0">
<ellipse fill="#f7fcf5" stroke="black" cx="193.596" cy="-234" rx="41.6928" ry="18"/>
<text text-anchor="middle" x="193.596" y="-230.3" font-family="Times,serif" font-size="14.00">45 (1): 0</text>
</a>
</g>
</g>
<!-- 43&#45;&gt;45 -->
<g id="edge27" class="edge"><title>43&#45;&gt;45</title>
<path fill="none" stroke="black" d="M193.596,-287.697C193.596,-279.983 193.596,-270.712 193.596,-262.112"/>
<polygon fill="black" stroke="black" points="197.096,-262.104 193.596,-252.104 190.096,-262.104 197.096,-262.104"/>
</g>
<!-- 45&#45;&gt;42 -->
<g id="edge17" class="edge"><title>45&#45;&gt;42</title>
<path fill="none" stroke="black" d="M193.596,-215.697C193.596,-207.983 193.596,-198.712 193.596,-190.112"/>
<polygon fill="black" stroke="black" points="197.096,-190.104 193.596,-180.104 190.096,-190.104 197.096,-190.104"/>
</g>
<!-- 46 -->
<g id="node47" class="node"><title>46</title>
<g id="a_node47"><a xlink:title="46, diversity: 1, multiplicities: 29, labels: 0">
<ellipse fill="#f7fcf5" stroke="black" cx="437.596" cy="-810" rx="41.6928" ry="18"/>
<text text-anchor="middle" x="437.596" y="-806.3" font-family="Times,serif" font-size="14.00">46 (1): 0</text>
</a>
</g>
</g>
<!-- 47&#45;&gt;46 -->
<g id="edge12" class="edge"><title>47&#45;&gt;46</title>
<path fill="none" stroke="black" d="M437.596,-863.697C437.596,-855.983 437.596,-846.712 437.596,-838.112"/>
<polygon fill="black" stroke="black" points="441.096,-838.104 437.596,-828.104 434.096,-838.104 441.096,-838.104"/>
</g>
<!-- 48 -->
<g id="node49" class="node"><title>48</title>
<g id="a_node49"><a xlink:title="48, diversity: 1, multiplicities: 1, labels: 0">
<ellipse fill="#f7fcf5" stroke="black" cx="288.596" cy="-1458" rx="41.6928" ry="18"/>
<text text-anchor="middle" x="288.596" y="-1454.3" font-family="Times,serif" font-size="14.00">48 (1): 0</text>
</a>
</g>
</g>
<!-- 48&#45;&gt;21 -->
<g id="edge21" class="edge"><title>48&#45;&gt;21</title>
<path fill="none" stroke="black" d="M288.596,-1439.7C288.596,-1431.98 288.596,-1422.71 288.596,-1414.11"/>
<polygon fill="black" stroke="black" points="292.096,-1414.1 288.596,-1404.1 285.096,-1414.1 292.096,-1414.1"/>
</g>
<!-- 49&#45;&gt;48 -->
<g id="edge13" class="edge"><title>49&#45;&gt;48</title>
<path fill="none" stroke="black" d="M288.596,-1511.7C288.596,-1503.98 288.596,-1494.71 288.596,-1486.11"/>
<polygon fill="black" stroke="black" points="292.096,-1486.1 288.596,-1476.1 285.096,-1486.1 292.096,-1486.1"/>
</g>
</g>
</svg>
