<?xml version="1.0" encoding="UTF-8" standalone="no"?>
<!DOCTYPE svg PUBLIC "-//W3C//DTD SVG 1.1//EN"
 "http://www.w3.org/Graphics/SVG/1.1/DTD/svg11.dtd">
<!-- Generated by graphviz version 2.38.0 (20140413.2041)
 -->
<!-- Title: %3 Pages: 1 -->
<svg width="1150pt" height="620pt"
 viewBox="0.00 0.00 1150.00 620.00" xmlns="http://www.w3.org/2000/svg" xmlns:xlink="http://www.w3.org/1999/xlink">
<g id="graph0" class="graph" transform="scale(1 1) rotate(0) translate(4 616)">
<title>%3</title>
<polygon fill="white" stroke="none" points="-4,4 -4,-616 1146,-616 1146,4 -4,4"/>
<!-- v0 -->
<g id="node1" class="node"><title>v0</title>
<ellipse fill="none" stroke="black" cx="212" cy="-450" rx="27" ry="18"/>
<text text-anchor="middle" x="212" y="-446.3" font-family="Times,serif" font-size="14.00">0</text>
</g>
<!-- p1 -->
<g id="node5" class="node"><title>p1</title>
<path fill="none" stroke="black" d="M154.5,-396C154.5,-396 119.5,-396 119.5,-396 113.5,-396 107.5,-390 107.5,-384 107.5,-384 107.5,-372 107.5,-372 107.5,-366 113.5,-360 119.5,-360 119.5,-360 154.5,-360 154.5,-360 160.5,-360 166.5,-366 166.5,-372 166.5,-372 166.5,-384 166.5,-384 166.5,-390 160.5,-396 154.5,-396"/>
<text text-anchor="middle" x="137" y="-374.3" font-family="Times,serif" font-size="14.00">path (2)</text>
</g>
<!-- v0&#45;&gt;p1 -->
<g id="edge23" class="edge"><title>v0&#45;&gt;p1</title>
<path fill="none" stroke="black" d="M196.823,-434.834C187.085,-425.746 174.19,-413.71 162.866,-403.141"/>
<polygon fill="black" stroke="black" points="165.034,-400.377 155.335,-396.113 160.258,-405.495 165.034,-400.377"/>
</g>
<!-- v32 -->
<g id="node23" class="node"><title>v32</title>
<ellipse fill="none" stroke="black" cx="212" cy="-378" rx="27" ry="18"/>
<text text-anchor="middle" x="212" y="-374.3" font-family="Times,serif" font-size="14.00">32</text>
</g>
<!-- v0&#45;&gt;v32 -->
<g id="edge3" class="edge"><title>v0&#45;&gt;v32</title>
<path fill="none" stroke="black" d="M212,-431.697C212,-423.983 212,-414.712 212,-406.112"/>
<polygon fill="black" stroke="black" points="215.5,-406.104 212,-396.104 208.5,-406.104 215.5,-406.104"/>
</g>
<!-- p0 -->
<g id="node2" class="node"><title>p0</title>
<path fill="none" stroke="black" d="M435.5,-540C435.5,-540 400.5,-540 400.5,-540 394.5,-540 388.5,-534 388.5,-528 388.5,-528 388.5,-516 388.5,-516 388.5,-510 394.5,-504 400.5,-504 400.5,-504 435.5,-504 435.5,-504 441.5,-504 447.5,-510 447.5,-516 447.5,-516 447.5,-528 447.5,-528 447.5,-534 441.5,-540 435.5,-540"/>
<text text-anchor="middle" x="418" y="-518.3" font-family="Times,serif" font-size="14.00">path (2)</text>
</g>
<!-- p0&#45;&gt;v0 -->
<g id="edge24" class="edge"><title>p0&#45;&gt;v0</title>
<path fill="none" stroke="black" d="M388.485,-510.971C350.538,-498.076 284.824,-475.746 245.181,-462.275"/>
<polygon fill="black" stroke="black" points="246.291,-458.956 235.697,-459.052 244.039,-465.584 246.291,-458.956"/>
</g>
<!-- v2 -->
<g id="node3" class="node"><title>v2</title>
<ellipse fill="none" stroke="black" cx="539" cy="-594" rx="27" ry="18"/>
<text text-anchor="middle" x="539" y="-590.3" font-family="Times,serif" font-size="14.00">2</text>
</g>
<!-- v2&#45;&gt;p0 -->
<g id="edge39" class="edge"><title>v2&#45;&gt;p0</title>
<path fill="none" stroke="black" d="M519.29,-581.597C502.297,-571.767 477.269,-557.288 456.343,-545.182"/>
<polygon fill="black" stroke="black" points="458.07,-542.138 447.662,-540.16 454.565,-548.197 458.07,-542.138"/>
</g>
<!-- v31 -->
<g id="node22" class="node"><title>v31</title>
<ellipse fill="none" stroke="black" cx="661" cy="-522" rx="27" ry="18"/>
<text text-anchor="middle" x="661" y="-518.3" font-family="Times,serif" font-size="14.00">31</text>
</g>
<!-- v2&#45;&gt;v31 -->
<g id="edge20" class="edge"><title>v2&#45;&gt;v31</title>
<path fill="none" stroke="black" d="M558.873,-581.597C578.812,-570.157 609.726,-552.42 632.321,-539.455"/>
<polygon fill="black" stroke="black" points="634.204,-542.41 641.136,-534.398 630.72,-536.339 634.204,-542.41"/>
</g>
<!-- v3 -->
<g id="node4" class="node"><title>v3</title>
<ellipse fill="none" stroke="black" cx="434" cy="-378" rx="27" ry="18"/>
<text text-anchor="middle" x="434" y="-374.3" font-family="Times,serif" font-size="14.00">3</text>
</g>
<!-- v6 -->
<g id="node6" class="node"><title>v6</title>
<ellipse fill="none" stroke="black" cx="27" cy="-234" rx="27" ry="18"/>
<text text-anchor="middle" x="27" y="-230.3" font-family="Times,serif" font-size="14.00">6</text>
</g>
<!-- p2 -->
<g id="node7" class="node"><title>p2</title>
<path fill="none" stroke="black" d="M119.5,-252C119.5,-252 84.5,-252 84.5,-252 78.5,-252 72.5,-246 72.5,-240 72.5,-240 72.5,-228 72.5,-228 72.5,-222 78.5,-216 84.5,-216 84.5,-216 119.5,-216 119.5,-216 125.5,-216 131.5,-222 131.5,-228 131.5,-228 131.5,-240 131.5,-240 131.5,-246 125.5,-252 119.5,-252"/>
<text text-anchor="middle" x="102" y="-230.3" font-family="Times,serif" font-size="14.00">path (3)</text>
</g>
<!-- v8 -->
<g id="node8" class="node"><title>v8</title>
<ellipse fill="none" stroke="black" cx="215" cy="-306" rx="27" ry="18"/>
<text text-anchor="middle" x="215" y="-302.3" font-family="Times,serif" font-size="14.00">8</text>
</g>
<!-- v8&#45;&gt;v6 -->
<g id="edge22" class="edge"><title>v8&#45;&gt;v6</title>
<path fill="none" stroke="black" d="M191.014,-297.505C160.812,-287.87 107.49,-270.201 63,-252 61.1768,-251.254 59.3134,-250.464 57.4413,-249.648"/>
<polygon fill="black" stroke="black" points="58.708,-246.379 48.1545,-245.445 55.8218,-252.757 58.708,-246.379"/>
</g>
<!-- v8&#45;&gt;p2 -->
<g id="edge9" class="edge"><title>v8&#45;&gt;p2</title>
<path fill="none" stroke="black" d="M195.831,-293.125C180.105,-283.384 157.395,-269.315 138.256,-257.459"/>
<polygon fill="black" stroke="black" points="140.096,-254.482 129.751,-252.191 136.409,-260.433 140.096,-254.482"/>
</g>
<!-- p4 -->
<g id="node10" class="node"><title>p4</title>
<path fill="none" stroke="black" d="M196.5,-252C196.5,-252 161.5,-252 161.5,-252 155.5,-252 149.5,-246 149.5,-240 149.5,-240 149.5,-228 149.5,-228 149.5,-222 155.5,-216 161.5,-216 161.5,-216 196.5,-216 196.5,-216 202.5,-216 208.5,-222 208.5,-228 208.5,-228 208.5,-240 208.5,-240 208.5,-246 202.5,-252 196.5,-252"/>
<text text-anchor="middle" x="179" y="-230.3" font-family="Times,serif" font-size="14.00">path (2)</text>
</g>
<!-- v8&#45;&gt;p4 -->
<g id="edge26" class="edge"><title>v8&#45;&gt;p4</title>
<path fill="none" stroke="black" d="M206.65,-288.765C202.457,-280.611 197.272,-270.529 192.529,-261.307"/>
<polygon fill="black" stroke="black" points="195.493,-259.416 187.807,-252.124 189.268,-262.618 195.493,-259.416"/>
</g>
<!-- v12 -->
<g id="node11" class="node"><title>v12</title>
<ellipse fill="none" stroke="black" cx="254" cy="-234" rx="27" ry="18"/>
<text text-anchor="middle" x="254" y="-230.3" font-family="Times,serif" font-size="14.00">12</text>
</g>
<!-- v8&#45;&gt;v12 -->
<g id="edge13" class="edge"><title>v8&#45;&gt;v12</title>
<path fill="none" stroke="black" d="M224.045,-288.765C228.82,-280.195 234.782,-269.494 240.127,-259.9"/>
<polygon fill="black" stroke="black" points="243.194,-261.586 245.004,-251.147 237.079,-258.18 243.194,-261.586"/>
</g>
<!-- v15 -->
<g id="node13" class="node"><title>v15</title>
<ellipse fill="none" stroke="black" cx="326" cy="-234" rx="27" ry="18"/>
<text text-anchor="middle" x="326" y="-230.3" font-family="Times,serif" font-size="14.00">15</text>
</g>
<!-- v8&#45;&gt;v15 -->
<g id="edge37" class="edge"><title>v8&#45;&gt;v15</title>
<path fill="none" stroke="black" d="M234.082,-292.967C251.713,-281.848 278.123,-265.193 298.116,-252.585"/>
<polygon fill="black" stroke="black" points="300.204,-255.405 306.796,-247.111 296.47,-249.484 300.204,-255.405"/>
</g>
<!-- p3 -->
<g id="node9" class="node"><title>p3</title>
<path fill="none" stroke="black" d="M304.5,-396C304.5,-396 269.5,-396 269.5,-396 263.5,-396 257.5,-390 257.5,-384 257.5,-384 257.5,-372 257.5,-372 257.5,-366 263.5,-360 269.5,-360 269.5,-360 304.5,-360 304.5,-360 310.5,-360 316.5,-366 316.5,-372 316.5,-372 316.5,-384 316.5,-384 316.5,-390 310.5,-396 304.5,-396"/>
<text text-anchor="middle" x="287" y="-374.3" font-family="Times,serif" font-size="14.00">path (6)</text>
</g>
<!-- p3&#45;&gt;v8 -->
<g id="edge36" class="edge"><title>p3&#45;&gt;v8</title>
<path fill="none" stroke="black" d="M269.202,-359.697C259.512,-350.276 247.435,-338.534 237.142,-328.527"/>
<polygon fill="black" stroke="black" points="239.297,-325.74 229.687,-321.279 234.417,-330.759 239.297,-325.74"/>
</g>
<!-- v14 -->
<g id="node12" class="node"><title>v14</title>
<ellipse fill="none" stroke="black" cx="362" cy="-450" rx="27" ry="18"/>
<text text-anchor="middle" x="362" y="-446.3" font-family="Times,serif" font-size="14.00">14</text>
</g>
<!-- v14&#45;&gt;p3 -->
<g id="edge5" class="edge"><title>v14&#45;&gt;p3</title>
<path fill="none" stroke="black" d="M346.823,-434.834C337.085,-425.746 324.19,-413.71 312.866,-403.141"/>
<polygon fill="black" stroke="black" points="315.034,-400.377 305.335,-396.113 310.258,-405.495 315.034,-400.377"/>
</g>
<!-- v59 -->
<g id="node33" class="node"><title>v59</title>
<ellipse fill="none" stroke="black" cx="362" cy="-378" rx="27" ry="18"/>
<text text-anchor="middle" x="362" y="-374.3" font-family="Times,serif" font-size="14.00">59</text>
</g>
<!-- v14&#45;&gt;v59 -->
<g id="edge2" class="edge"><title>v14&#45;&gt;v59</title>
<path fill="none" stroke="black" d="M362,-431.697C362,-423.983 362,-414.712 362,-406.112"/>
<polygon fill="black" stroke="black" points="365.5,-406.104 362,-396.104 358.5,-406.104 365.5,-406.104"/>
</g>
<!-- p5 -->
<g id="node14" class="node"><title>p5</title>
<path fill="none" stroke="black" d="M526.5,-396C526.5,-396 491.5,-396 491.5,-396 485.5,-396 479.5,-390 479.5,-384 479.5,-384 479.5,-372 479.5,-372 479.5,-366 485.5,-360 491.5,-360 491.5,-360 526.5,-360 526.5,-360 532.5,-360 538.5,-366 538.5,-372 538.5,-372 538.5,-384 538.5,-384 538.5,-390 532.5,-396 526.5,-396"/>
<text text-anchor="middle" x="509" y="-374.3" font-family="Times,serif" font-size="14.00">path (2)</text>
</g>
<!-- v23 -->
<g id="node15" class="node"><title>v23</title>
<ellipse fill="none" stroke="black" cx="624" cy="-450" rx="27" ry="18"/>
<text text-anchor="middle" x="624" y="-446.3" font-family="Times,serif" font-size="14.00">23</text>
</g>
<!-- v23&#45;&gt;v3 -->
<g id="edge16" class="edge"><title>v23&#45;&gt;v3</title>
<path fill="none" stroke="black" d="M599.956,-441.628C569.396,-432.053 515.18,-414.377 470,-396 468.175,-395.258 466.311,-394.47 464.438,-393.656"/>
<polygon fill="black" stroke="black" points="465.703,-390.387 455.149,-389.459 462.82,-396.766 465.703,-390.387"/>
</g>
<!-- v23&#45;&gt;p5 -->
<g id="edge12" class="edge"><title>v23&#45;&gt;p5</title>
<path fill="none" stroke="black" d="M604.752,-437.284C588.671,-427.496 565.287,-413.262 545.653,-401.311"/>
<polygon fill="black" stroke="black" points="547.298,-398.214 536.936,-396.004 543.658,-404.194 547.298,-398.214"/>
</g>
<!-- p7 -->
<g id="node17" class="node"><title>p7</title>
<path fill="none" stroke="black" d="M603.5,-396C603.5,-396 568.5,-396 568.5,-396 562.5,-396 556.5,-390 556.5,-384 556.5,-384 556.5,-372 556.5,-372 556.5,-366 562.5,-360 568.5,-360 568.5,-360 603.5,-360 603.5,-360 609.5,-360 615.5,-366 615.5,-372 615.5,-372 615.5,-384 615.5,-384 615.5,-390 609.5,-396 603.5,-396"/>
<text text-anchor="middle" x="586" y="-374.3" font-family="Times,serif" font-size="14.00">path (5)</text>
</g>
<!-- v23&#45;&gt;p7 -->
<g id="edge34" class="edge"><title>v23&#45;&gt;p7</title>
<path fill="none" stroke="black" d="M615.187,-432.765C610.714,-424.525 605.172,-414.317 600.123,-405.016"/>
<polygon fill="black" stroke="black" points="603.143,-403.243 595.296,-396.124 596.991,-406.582 603.143,-403.243"/>
</g>
<!-- p8 -->
<g id="node18" class="node"><title>p8</title>
<path fill="none" stroke="black" d="M680.5,-396C680.5,-396 645.5,-396 645.5,-396 639.5,-396 633.5,-390 633.5,-384 633.5,-384 633.5,-372 633.5,-372 633.5,-366 639.5,-360 645.5,-360 645.5,-360 680.5,-360 680.5,-360 686.5,-360 692.5,-366 692.5,-372 692.5,-372 692.5,-384 692.5,-384 692.5,-390 686.5,-396 680.5,-396"/>
<text text-anchor="middle" x="663" y="-374.3" font-family="Times,serif" font-size="14.00">path (5)</text>
</g>
<!-- v23&#45;&gt;p8 -->
<g id="edge44" class="edge"><title>v23&#45;&gt;p8</title>
<path fill="none" stroke="black" d="M633.045,-432.765C637.636,-424.525 643.324,-414.317 648.506,-405.016"/>
<polygon fill="black" stroke="black" points="651.65,-406.563 653.46,-396.124 645.535,-403.156 651.65,-406.563"/>
</g>
<!-- v40 -->
<g id="node25" class="node"><title>v40</title>
<ellipse fill="none" stroke="black" cx="738" cy="-378" rx="27" ry="18"/>
<text text-anchor="middle" x="738" y="-374.3" font-family="Times,serif" font-size="14.00">40</text>
</g>
<!-- v23&#45;&gt;v40 -->
<g id="edge19" class="edge"><title>v23&#45;&gt;v40</title>
<path fill="none" stroke="black" d="M643.339,-437.125C661.599,-425.913 689.195,-408.968 709.887,-396.263"/>
<polygon fill="black" stroke="black" points="711.876,-399.148 718.567,-390.933 708.213,-393.183 711.876,-399.148"/>
</g>
<!-- v74 -->
<g id="node40" class="node"><title>v74</title>
<ellipse fill="none" stroke="black" cx="811" cy="-378" rx="27" ry="18"/>
<text text-anchor="middle" x="811" y="-374.3" font-family="Times,serif" font-size="14.00">74</text>
</g>
<!-- v23&#45;&gt;v74 -->
<g id="edge41" class="edge"><title>v23&#45;&gt;v74</title>
<path fill="none" stroke="black" d="M645.112,-438.448C649.95,-436.194 655.109,-433.917 660,-432 709.469,-412.612 724.43,-415.129 774,-396 776.09,-395.194 778.229,-394.326 780.374,-393.426"/>
<polygon fill="black" stroke="black" points="781.92,-396.569 789.673,-389.348 779.109,-390.159 781.92,-396.569"/>
</g>
<!-- p21 -->
<g id="node50" class="node"><title>p21</title>
<path fill="none" stroke="black" d="M903.5,-396C903.5,-396 868.5,-396 868.5,-396 862.5,-396 856.5,-390 856.5,-384 856.5,-384 856.5,-372 856.5,-372 856.5,-366 862.5,-360 868.5,-360 868.5,-360 903.5,-360 903.5,-360 909.5,-360 915.5,-366 915.5,-372 915.5,-372 915.5,-384 915.5,-384 915.5,-390 909.5,-396 903.5,-396"/>
<text text-anchor="middle" x="886" y="-374.3" font-family="Times,serif" font-size="14.00">path (4)</text>
</g>
<!-- v23&#45;&gt;p21 -->
<g id="edge30" class="edge"><title>v23&#45;&gt;p21</title>
<path fill="none" stroke="black" d="M644.578,-438.2C649.531,-435.906 654.875,-433.674 660,-432 740.455,-405.723 766.159,-421.063 847,-396 847.097,-395.97 847.194,-395.94 847.291,-395.909"/>
<polygon fill="black" stroke="black" points="848.176,-399.308 856.447,-392.686 845.852,-392.706 848.176,-399.308"/>
</g>
<!-- p6 -->
<g id="node16" class="node"><title>p6</title>
<path fill="none" stroke="black" d="M643.5,-108C643.5,-108 608.5,-108 608.5,-108 602.5,-108 596.5,-102 596.5,-96 596.5,-96 596.5,-84 596.5,-84 596.5,-78 602.5,-72 608.5,-72 608.5,-72 643.5,-72 643.5,-72 649.5,-72 655.5,-78 655.5,-84 655.5,-84 655.5,-96 655.5,-96 655.5,-102 649.5,-108 643.5,-108"/>
<text text-anchor="middle" x="626" y="-86.3" font-family="Times,serif" font-size="14.00">path (3)</text>
</g>
<!-- v27 -->
<g id="node19" class="node"><title>v27</title>
<ellipse fill="none" stroke="black" cx="626" cy="-162" rx="27" ry="18"/>
<text text-anchor="middle" x="626" y="-158.3" font-family="Times,serif" font-size="14.00">27</text>
</g>
<!-- p6&#45;&gt;v27 -->
<g id="edge4" class="edge"><title>p6&#45;&gt;v27</title>
<path fill="none" stroke="black" d="M631.93,-108.447C632.728,-116.269 632.944,-125.67 632.577,-134.345"/>
<polygon fill="black" stroke="black" points="629.079,-134.182 631.84,-144.411 636.06,-134.693 629.079,-134.182"/>
</g>
<!-- v27&#45;&gt;p6 -->
<g id="edge32" class="edge"><title>v27&#45;&gt;p6</title>
<path fill="none" stroke="black" d="M620.16,-144.411C619.319,-136.708 619.061,-127.341 619.385,-118.616"/>
<polygon fill="black" stroke="black" points="622.89,-118.659 620.07,-108.447 615.906,-118.189 622.89,-118.659"/>
</g>
<!-- p11 -->
<g id="node26" class="node"><title>p11</title>
<path fill="none" stroke="black" d="M720.5,-108C720.5,-108 685.5,-108 685.5,-108 679.5,-108 673.5,-102 673.5,-96 673.5,-96 673.5,-84 673.5,-84 673.5,-78 679.5,-72 685.5,-72 685.5,-72 720.5,-72 720.5,-72 726.5,-72 732.5,-78 732.5,-84 732.5,-84 732.5,-96 732.5,-96 732.5,-102 726.5,-108 720.5,-108"/>
<text text-anchor="middle" x="703" y="-86.3" font-family="Times,serif" font-size="14.00">path (3)</text>
</g>
<!-- v27&#45;&gt;p11 -->
<g id="edge1" class="edge"><title>v27&#45;&gt;p11</title>
<path fill="none" stroke="black" d="M641.582,-146.834C651.579,-137.746 664.818,-125.71 676.445,-115.141"/>
<polygon fill="black" stroke="black" points="679.131,-117.429 684.176,-108.113 674.422,-112.25 679.131,-117.429"/>
</g>
<!-- p9 -->
<g id="node20" class="node"><title>p9</title>
<path fill="none" stroke="black" d="M753.5,-324C753.5,-324 718.5,-324 718.5,-324 712.5,-324 706.5,-318 706.5,-312 706.5,-312 706.5,-300 706.5,-300 706.5,-294 712.5,-288 718.5,-288 718.5,-288 753.5,-288 753.5,-288 759.5,-288 765.5,-294 765.5,-300 765.5,-300 765.5,-312 765.5,-312 765.5,-318 759.5,-324 753.5,-324"/>
<text text-anchor="middle" x="736" y="-302.3" font-family="Times,serif" font-size="14.00">path (3)</text>
</g>
<!-- p10 -->
<g id="node21" class="node"><title>p10</title>
<path fill="none" stroke="black" d="M716.5,-468C716.5,-468 681.5,-468 681.5,-468 675.5,-468 669.5,-462 669.5,-456 669.5,-456 669.5,-444 669.5,-444 669.5,-438 675.5,-432 681.5,-432 681.5,-432 716.5,-432 716.5,-432 722.5,-432 728.5,-438 728.5,-444 728.5,-444 728.5,-456 728.5,-456 728.5,-462 722.5,-468 716.5,-468"/>
<text text-anchor="middle" x="699" y="-446.3" font-family="Times,serif" font-size="14.00">path (2)</text>
</g>
<!-- v31&#45;&gt;v14 -->
<g id="edge27" class="edge"><title>v31&#45;&gt;v14</title>
<path fill="none" stroke="black" d="M636.022,-515.152C582.817,-502.696 458.19,-473.519 397.063,-459.209"/>
<polygon fill="black" stroke="black" points="397.652,-455.752 387.117,-456.88 396.056,-462.568 397.652,-455.752"/>
</g>
<!-- v31&#45;&gt;v23 -->
<g id="edge43" class="edge"><title>v31&#45;&gt;v23</title>
<path fill="none" stroke="black" d="M652.418,-504.765C647.935,-496.283 642.349,-485.714 637.319,-476.197"/>
<polygon fill="black" stroke="black" points="640.302,-474.353 632.535,-467.147 634.114,-477.624 640.302,-474.353"/>
</g>
<!-- v31&#45;&gt;p10 -->
<g id="edge31" class="edge"><title>v31&#45;&gt;p10</title>
<path fill="none" stroke="black" d="M669.813,-504.765C674.286,-496.525 679.828,-486.317 684.877,-477.016"/>
<polygon fill="black" stroke="black" points="688.009,-478.582 689.704,-468.124 681.857,-475.243 688.009,-478.582"/>
</g>
<!-- p19 -->
<g id="node43" class="node"><title>p19</title>
<path fill="none" stroke="black" d="M793.5,-468C793.5,-468 758.5,-468 758.5,-468 752.5,-468 746.5,-462 746.5,-456 746.5,-456 746.5,-444 746.5,-444 746.5,-438 752.5,-432 758.5,-432 758.5,-432 793.5,-432 793.5,-432 799.5,-432 805.5,-438 805.5,-444 805.5,-444 805.5,-456 805.5,-456 805.5,-462 799.5,-468 793.5,-468"/>
<text text-anchor="middle" x="776" y="-446.3" font-family="Times,serif" font-size="14.00">path (6)</text>
</g>
<!-- v31&#45;&gt;p19 -->
<g id="edge47" class="edge"><title>v31&#45;&gt;p19</title>
<path fill="none" stroke="black" d="M680.248,-509.284C696.329,-499.496 719.713,-485.262 739.347,-473.311"/>
<polygon fill="black" stroke="black" points="741.342,-476.194 748.064,-468.004 737.702,-470.214 741.342,-476.194"/>
</g>
<!-- p22 -->
<g id="node51" class="node"><title>p22</title>
<path fill="none" stroke="black" d="M870.5,-468C870.5,-468 835.5,-468 835.5,-468 829.5,-468 823.5,-462 823.5,-456 823.5,-456 823.5,-444 823.5,-444 823.5,-438 829.5,-432 835.5,-432 835.5,-432 870.5,-432 870.5,-432 876.5,-432 882.5,-438 882.5,-444 882.5,-444 882.5,-456 882.5,-456 882.5,-462 876.5,-468 870.5,-468"/>
<text text-anchor="middle" x="853" y="-446.3" font-family="Times,serif" font-size="14.00">path (4)</text>
</g>
<!-- v31&#45;&gt;p22 -->
<g id="edge35" class="edge"><title>v31&#45;&gt;p22</title>
<path fill="none" stroke="black" d="M684.797,-513.392C715.065,-503.57 768.83,-485.638 814,-468 814.095,-467.963 814.189,-467.926 814.284,-467.889"/>
<polygon fill="black" stroke="black" points="815.339,-471.238 823.289,-464.234 812.706,-464.752 815.339,-471.238"/>
</g>
<!-- v37 -->
<g id="node24" class="node"><title>v37</title>
<ellipse fill="none" stroke="black" cx="661" cy="-306" rx="27" ry="18"/>
<text text-anchor="middle" x="661" y="-302.3" font-family="Times,serif" font-size="14.00">37</text>
</g>
<!-- v37&#45;&gt;v40 -->
<g id="edge25" class="edge"><title>v37&#45;&gt;v40</title>
<path fill="none" stroke="black" d="M679.736,-319.238C691.806,-328.864 707.224,-342.548 719.271,-354.18"/>
<polygon fill="black" stroke="black" points="717.062,-356.918 726.631,-361.465 721.986,-351.943 717.062,-356.918"/>
</g>
<!-- v47 -->
<g id="node27" class="node"><title>v47</title>
<ellipse fill="none" stroke="black" cx="661" cy="-234" rx="27" ry="18"/>
<text text-anchor="middle" x="661" y="-230.3" font-family="Times,serif" font-size="14.00">47</text>
</g>
<!-- v37&#45;&gt;v47 -->
<g id="edge17" class="edge"><title>v37&#45;&gt;v47</title>
<path fill="none" stroke="black" d="M661,-287.697C661,-279.983 661,-270.712 661,-262.112"/>
<polygon fill="black" stroke="black" points="664.5,-262.104 661,-252.104 657.5,-262.104 664.5,-262.104"/>
</g>
<!-- v40&#45;&gt;p9 -->
<g id="edge11" class="edge"><title>v40&#45;&gt;p9</title>
<path fill="none" stroke="black" d="M737.506,-359.697C737.285,-351.983 737.02,-342.712 736.775,-334.112"/>
<polygon fill="black" stroke="black" points="740.273,-334 736.489,-324.104 733.276,-334.2 740.273,-334"/>
</g>
<!-- v40&#45;&gt;v37 -->
<g id="edge45" class="edge"><title>v40&#45;&gt;v37</title>
<path fill="none" stroke="black" d="M719.321,-364.807C707.228,-355.167 691.759,-341.439 679.688,-329.78"/>
<polygon fill="black" stroke="black" points="681.884,-327.029 672.316,-322.481 676.959,-332.004 681.884,-327.029"/>
</g>
<!-- v47&#45;&gt;v27 -->
<g id="edge33" class="edge"><title>v47&#45;&gt;v27</title>
<path fill="none" stroke="black" d="M652.882,-216.765C648.702,-208.404 643.508,-198.016 638.803,-188.606"/>
<polygon fill="black" stroke="black" points="641.919,-187.012 634.317,-179.633 635.658,-190.143 641.919,-187.012"/>
</g>
<!-- v50 -->
<g id="node28" class="node"><title>v50</title>
<ellipse fill="none" stroke="black" cx="698" cy="-162" rx="27" ry="18"/>
<text text-anchor="middle" x="698" y="-158.3" font-family="Times,serif" font-size="14.00">50</text>
</g>
<!-- v47&#45;&gt;v50 -->
<g id="edge14" class="edge"><title>v47&#45;&gt;v50</title>
<path fill="none" stroke="black" d="M669.582,-216.765C674.065,-208.283 679.651,-197.714 684.681,-188.197"/>
<polygon fill="black" stroke="black" points="687.886,-189.624 689.465,-179.147 681.698,-186.353 687.886,-189.624"/>
</g>
<!-- p12 -->
<g id="node29" class="node"><title>p12</title>
<path fill="none" stroke="black" d="M1021.5,-180C1021.5,-180 986.5,-180 986.5,-180 980.5,-180 974.5,-174 974.5,-168 974.5,-168 974.5,-156 974.5,-156 974.5,-150 980.5,-144 986.5,-144 986.5,-144 1021.5,-144 1021.5,-144 1027.5,-144 1033.5,-150 1033.5,-156 1033.5,-156 1033.5,-168 1033.5,-168 1033.5,-174 1027.5,-180 1021.5,-180"/>
<text text-anchor="middle" x="1004" y="-158.3" font-family="Times,serif" font-size="14.00">path (4)</text>
</g>
<!-- v55 -->
<g id="node30" class="node"><title>v55</title>
<ellipse fill="none" stroke="black" cx="398" cy="-234" rx="27" ry="18"/>
<text text-anchor="middle" x="398" y="-230.3" font-family="Times,serif" font-size="14.00">55</text>
</g>
<!-- v57 -->
<g id="node32" class="node"><title>v57</title>
<ellipse fill="none" stroke="black" cx="362" cy="-162" rx="27" ry="18"/>
<text text-anchor="middle" x="362" y="-158.3" font-family="Times,serif" font-size="14.00">57</text>
</g>
<!-- v55&#45;&gt;v57 -->
<g id="edge49" class="edge"><title>v55&#45;&gt;v57</title>
<path fill="none" stroke="black" d="M389.65,-216.765C385.288,-208.283 379.853,-197.714 374.959,-188.197"/>
<polygon fill="black" stroke="black" points="377.99,-186.439 370.304,-179.147 371.765,-189.641 377.99,-186.439"/>
</g>
<!-- v63 -->
<g id="node35" class="node"><title>v63</title>
<ellipse fill="none" stroke="black" cx="434" cy="-162" rx="27" ry="18"/>
<text text-anchor="middle" x="434" y="-158.3" font-family="Times,serif" font-size="14.00">63</text>
</g>
<!-- v55&#45;&gt;v63 -->
<g id="edge15" class="edge"><title>v55&#45;&gt;v63</title>
<path fill="none" stroke="black" d="M406.35,-216.765C410.712,-208.283 416.147,-197.714 421.041,-188.197"/>
<polygon fill="black" stroke="black" points="424.235,-189.641 425.696,-179.147 418.01,-186.439 424.235,-189.641"/>
</g>
<!-- p13 -->
<g id="node31" class="node"><title>p13</title>
<path fill="none" stroke="black" d="M341.5,-108C341.5,-108 306.5,-108 306.5,-108 300.5,-108 294.5,-102 294.5,-96 294.5,-96 294.5,-84 294.5,-84 294.5,-78 300.5,-72 306.5,-72 306.5,-72 341.5,-72 341.5,-72 347.5,-72 353.5,-78 353.5,-84 353.5,-84 353.5,-96 353.5,-96 353.5,-102 347.5,-108 341.5,-108"/>
<text text-anchor="middle" x="324" y="-86.3" font-family="Times,serif" font-size="14.00">path (2)</text>
</g>
<!-- v57&#45;&gt;p13 -->
<g id="edge29" class="edge"><title>v57&#45;&gt;p13</title>
<path fill="none" stroke="black" d="M353.187,-144.765C348.714,-136.525 343.172,-126.317 338.123,-117.016"/>
<polygon fill="black" stroke="black" points="341.143,-115.243 333.296,-108.124 334.991,-118.582 341.143,-115.243"/>
</g>
<!-- p14 -->
<g id="node34" class="node"><title>p14</title>
<path fill="none" stroke="black" d="M418.5,-108C418.5,-108 383.5,-108 383.5,-108 377.5,-108 371.5,-102 371.5,-96 371.5,-96 371.5,-84 371.5,-84 371.5,-78 377.5,-72 383.5,-72 383.5,-72 418.5,-72 418.5,-72 424.5,-72 430.5,-78 430.5,-84 430.5,-84 430.5,-96 430.5,-96 430.5,-102 424.5,-108 418.5,-108"/>
<text text-anchor="middle" x="401" y="-86.3" font-family="Times,serif" font-size="14.00">path (3)</text>
</g>
<!-- v57&#45;&gt;p14 -->
<g id="edge51" class="edge"><title>v57&#45;&gt;p14</title>
<path fill="none" stroke="black" d="M371.045,-144.765C375.636,-136.525 381.324,-126.317 386.506,-117.016"/>
<polygon fill="black" stroke="black" points="389.65,-118.563 391.46,-108.124 383.535,-115.156 389.65,-118.563"/>
</g>
<!-- p15 -->
<g id="node36" class="node"><title>p15</title>
<path fill="none" stroke="black" d="M379.5,-324C379.5,-324 344.5,-324 344.5,-324 338.5,-324 332.5,-318 332.5,-312 332.5,-312 332.5,-300 332.5,-300 332.5,-294 338.5,-288 344.5,-288 344.5,-288 379.5,-288 379.5,-288 385.5,-288 391.5,-294 391.5,-300 391.5,-300 391.5,-312 391.5,-312 391.5,-318 385.5,-324 379.5,-324"/>
<text text-anchor="middle" x="362" y="-302.3" font-family="Times,serif" font-size="14.00">path (3)</text>
</g>
<!-- v59&#45;&gt;p15 -->
<g id="edge18" class="edge"><title>v59&#45;&gt;p15</title>
<path fill="none" stroke="black" d="M362,-359.697C362,-351.983 362,-342.712 362,-334.112"/>
<polygon fill="black" stroke="black" points="365.5,-334.104 362,-324.104 358.5,-334.104 365.5,-334.104"/>
</g>
<!-- p17 -->
<g id="node38" class="node"><title>p17</title>
<path fill="none" stroke="black" d="M456.5,-324C456.5,-324 421.5,-324 421.5,-324 415.5,-324 409.5,-318 409.5,-312 409.5,-312 409.5,-300 409.5,-300 409.5,-294 415.5,-288 421.5,-288 421.5,-288 456.5,-288 456.5,-288 462.5,-288 468.5,-294 468.5,-300 468.5,-300 468.5,-312 468.5,-312 468.5,-318 462.5,-324 456.5,-324"/>
<text text-anchor="middle" x="439" y="-302.3" font-family="Times,serif" font-size="14.00">path (2)</text>
</g>
<!-- v59&#45;&gt;p17 -->
<g id="edge10" class="edge"><title>v59&#45;&gt;p17</title>
<path fill="none" stroke="black" d="M377.582,-362.834C387.579,-353.746 400.818,-341.71 412.445,-331.141"/>
<polygon fill="black" stroke="black" points="415.131,-333.429 420.176,-324.113 410.422,-328.25 415.131,-333.429"/>
</g>
<!-- p15&#45;&gt;v55 -->
<g id="edge38" class="edge"><title>p15&#45;&gt;v55</title>
<path fill="none" stroke="black" d="M370.899,-287.697C375.164,-279.403 380.354,-269.311 385.047,-260.187"/>
<polygon fill="black" stroke="black" points="388.236,-261.638 389.697,-251.145 382.011,-258.437 388.236,-261.638"/>
</g>
<!-- p16 -->
<g id="node37" class="node"><title>p16</title>
<path fill="none" stroke="black" d="M830.5,-324C830.5,-324 795.5,-324 795.5,-324 789.5,-324 783.5,-318 783.5,-312 783.5,-312 783.5,-300 783.5,-300 783.5,-294 789.5,-288 795.5,-288 795.5,-288 830.5,-288 830.5,-288 836.5,-288 842.5,-294 842.5,-300 842.5,-300 842.5,-312 842.5,-312 842.5,-318 836.5,-324 830.5,-324"/>
<text text-anchor="middle" x="813" y="-302.3" font-family="Times,serif" font-size="14.00">path (6)</text>
</g>
<!-- p18 -->
<g id="node39" class="node"><title>p18</title>
<path fill="none" stroke="black" d="M907.5,-324C907.5,-324 872.5,-324 872.5,-324 866.5,-324 860.5,-318 860.5,-312 860.5,-312 860.5,-300 860.5,-300 860.5,-294 866.5,-288 872.5,-288 872.5,-288 907.5,-288 907.5,-288 913.5,-288 919.5,-294 919.5,-300 919.5,-300 919.5,-312 919.5,-312 919.5,-318 913.5,-324 907.5,-324"/>
<text text-anchor="middle" x="890" y="-302.3" font-family="Times,serif" font-size="14.00">path (2)</text>
</g>
<!-- v74&#45;&gt;p16 -->
<g id="edge7" class="edge"><title>v74&#45;&gt;p16</title>
<path fill="none" stroke="black" d="M811.494,-359.697C811.715,-351.983 811.98,-342.712 812.225,-334.112"/>
<polygon fill="black" stroke="black" points="815.724,-334.2 812.511,-324.104 808.727,-334 815.724,-334.2"/>
</g>
<!-- v74&#45;&gt;p18 -->
<g id="edge6" class="edge"><title>v74&#45;&gt;p18</title>
<path fill="none" stroke="black" d="M826.608,-363.17C837.01,-353.953 850.953,-341.599 863.114,-330.823"/>
<polygon fill="black" stroke="black" points="865.629,-333.271 870.793,-324.019 860.987,-328.031 865.629,-333.271"/>
</g>
<!-- v78 -->
<g id="node41" class="node"><title>v78</title>
<ellipse fill="none" stroke="black" cx="1079" cy="-90" rx="27" ry="18"/>
<text text-anchor="middle" x="1079" y="-86.3" font-family="Times,serif" font-size="14.00">78</text>
</g>
<!-- v81 -->
<g id="node44" class="node"><title>v81</title>
<ellipse fill="none" stroke="black" cx="1043" cy="-18" rx="27" ry="18"/>
<text text-anchor="middle" x="1043" y="-14.3" font-family="Times,serif" font-size="14.00">81</text>
</g>
<!-- v78&#45;&gt;v81 -->
<g id="edge40" class="edge"><title>v78&#45;&gt;v81</title>
<path fill="none" stroke="black" d="M1070.65,-72.7646C1066.29,-64.2831 1060.85,-53.7144 1055.96,-44.1974"/>
<polygon fill="black" stroke="black" points="1058.99,-42.4395 1051.3,-35.1473 1052.77,-45.6409 1058.99,-42.4395"/>
</g>
<!-- v83 -->
<g id="node46" class="node"><title>v83</title>
<ellipse fill="none" stroke="black" cx="1115" cy="-18" rx="27" ry="18"/>
<text text-anchor="middle" x="1115" y="-14.3" font-family="Times,serif" font-size="14.00">83</text>
</g>
<!-- v78&#45;&gt;v83 -->
<g id="edge8" class="edge"><title>v78&#45;&gt;v83</title>
<path fill="none" stroke="black" d="M1087.35,-72.7646C1091.71,-64.2831 1097.15,-53.7144 1102.04,-44.1974"/>
<polygon fill="black" stroke="black" points="1105.23,-45.6409 1106.7,-35.1473 1099.01,-42.4395 1105.23,-45.6409"/>
</g>
<!-- v79 -->
<g id="node42" class="node"><title>v79</title>
<ellipse fill="none" stroke="black" cx="1042" cy="-234" rx="27" ry="18"/>
<text text-anchor="middle" x="1042" y="-230.3" font-family="Times,serif" font-size="14.00">79</text>
</g>
<!-- v79&#45;&gt;p12 -->
<g id="edge46" class="edge"><title>v79&#45;&gt;p12</title>
<path fill="none" stroke="black" d="M1033.19,-216.765C1028.71,-208.525 1023.17,-198.317 1018.12,-189.016"/>
<polygon fill="black" stroke="black" points="1021.14,-187.243 1013.3,-180.124 1014.99,-190.582 1021.14,-187.243"/>
</g>
<!-- v82 -->
<g id="node45" class="node"><title>v82</title>
<ellipse fill="none" stroke="black" cx="1079" cy="-162" rx="27" ry="18"/>
<text text-anchor="middle" x="1079" y="-158.3" font-family="Times,serif" font-size="14.00">82</text>
</g>
<!-- v79&#45;&gt;v82 -->
<g id="edge21" class="edge"><title>v79&#45;&gt;v82</title>
<path fill="none" stroke="black" d="M1050.58,-216.765C1055.06,-208.283 1060.65,-197.714 1065.68,-188.197"/>
<polygon fill="black" stroke="black" points="1068.89,-189.624 1070.46,-179.147 1062.7,-186.353 1068.89,-189.624"/>
</g>
<!-- v86 -->
<g id="node48" class="node"><title>v86</title>
<ellipse fill="none" stroke="black" cx="967" cy="-378" rx="27" ry="18"/>
<text text-anchor="middle" x="967" y="-374.3" font-family="Times,serif" font-size="14.00">86</text>
</g>
<!-- p19&#45;&gt;v86 -->
<g id="edge42" class="edge"><title>p19&#45;&gt;v86</title>
<path fill="none" stroke="black" d="M805.744,-435.332C808.519,-434.166 811.302,-433.038 814,-432 862.407,-413.384 876.265,-413.74 925,-396 928.278,-394.807 931.68,-393.517 935.066,-392.2"/>
<polygon fill="black" stroke="black" points="936.445,-395.418 944.445,-388.472 933.859,-388.913 936.445,-395.418"/>
</g>
<!-- v82&#45;&gt;v78 -->
<g id="edge28" class="edge"><title>v82&#45;&gt;v78</title>
<path fill="none" stroke="black" d="M1079,-143.697C1079,-135.983 1079,-126.712 1079,-118.112"/>
<polygon fill="black" stroke="black" points="1082.5,-118.104 1079,-108.104 1075.5,-118.104 1082.5,-118.104"/>
</g>
<!-- p20 -->
<g id="node47" class="node"><title>p20</title>
<path fill="none" stroke="black" d="M984.5,-324C984.5,-324 949.5,-324 949.5,-324 943.5,-324 937.5,-318 937.5,-312 937.5,-312 937.5,-300 937.5,-300 937.5,-294 943.5,-288 949.5,-288 949.5,-288 984.5,-288 984.5,-288 990.5,-288 996.5,-294 996.5,-300 996.5,-300 996.5,-312 996.5,-312 996.5,-318 990.5,-324 984.5,-324"/>
<text text-anchor="middle" x="967" y="-302.3" font-family="Times,serif" font-size="14.00">path (2)</text>
</g>
<!-- v86&#45;&gt;p20 -->
<g id="edge50" class="edge"><title>v86&#45;&gt;p20</title>
<path fill="none" stroke="black" d="M967,-359.697C967,-351.983 967,-342.712 967,-334.112"/>
<polygon fill="black" stroke="black" points="970.5,-334.104 967,-324.104 963.5,-334.104 970.5,-334.104"/>
</g>
<!-- v89 -->
<g id="node49" class="node"><title>v89</title>
<ellipse fill="none" stroke="black" cx="1042" cy="-306" rx="27" ry="18"/>
<text text-anchor="middle" x="1042" y="-302.3" font-family="Times,serif" font-size="14.00">89</text>
</g>
<!-- v86&#45;&gt;v89 -->
<g id="edge52" class="edge"><title>v86&#45;&gt;v89</title>
<path fill="none" stroke="black" d="M982.177,-362.834C992.851,-352.872 1007.32,-339.369 1019.35,-328.137"/>
<polygon fill="black" stroke="black" points="1021.92,-330.526 1026.85,-321.144 1017.15,-325.409 1021.92,-330.526"/>
</g>
<!-- v89&#45;&gt;v79 -->
<g id="edge48" class="edge"><title>v89&#45;&gt;v79</title>
<path fill="none" stroke="black" d="M1042,-287.697C1042,-279.983 1042,-270.712 1042,-262.112"/>
<polygon fill="black" stroke="black" points="1045.5,-262.104 1042,-252.104 1038.5,-262.104 1045.5,-262.104"/>
</g>
</g>
</svg>
