<?xml version="1.0" encoding="UTF-8" standalone="no"?>
<!DOCTYPE svg PUBLIC "-//W3C//DTD SVG 1.1//EN"
 "http://www.w3.org/Graphics/SVG/1.1/DTD/svg11.dtd">
<!-- Generated by graphviz version 2.38.0 (20140413.2041)
 -->
<!-- Title: %3 Pages: 1 -->
<svg width="217pt" height="116pt"
 viewBox="0.00 0.00 216.50 116.00" xmlns="http://www.w3.org/2000/svg" xmlns:xlink="http://www.w3.org/1999/xlink">
<g id="graph0" class="graph" transform="scale(1 1) rotate(0) translate(4 112)">
<title>%3</title>
<polygon fill="white" stroke="none" points="-4,4 -4,-112 212.5,-112 212.5,4 -4,4"/>
<!-- v0 -->
<g id="node1" class="node"><title>v0</title>
<ellipse fill="none" stroke="black" cx="143.5" cy="-90" rx="27" ry="18"/>
<text text-anchor="middle" x="143.5" y="-86.3" font-family="Times,serif" font-size="14.00">0</text>
</g>
<!-- p0 -->
<g id="node2" class="node"><title>p0</title>
<path fill="none" stroke="black" d="M47,-36C47,-36 12,-36 12,-36 6,-36 0,-30 0,-24 0,-24 0,-12 0,-12 0,-6 6,-0 12,-0 12,-0 47,-0 47,-0 53,-0 59,-6 59,-12 59,-12 59,-24 59,-24 59,-30 53,-36 47,-36"/>
<text text-anchor="middle" x="29.5" y="-14.3" font-family="Times,serif" font-size="14.00">path (2)</text>
</g>
<!-- v0&#45;&gt;p0 -->
<g id="edge3" class="edge"><title>v0&#45;&gt;p0</title>
<path fill="none" stroke="black" d="M124.161,-77.1255C108.296,-67.3836 85.3849,-53.3153 66.0766,-41.4593"/>
<polygon fill="black" stroke="black" points="67.8502,-38.4412 57.497,-36.1912 64.1873,-44.4064 67.8502,-38.4412"/>
</g>
<!-- p1 -->
<g id="node3" class="node"><title>p1</title>
<path fill="none" stroke="black" d="M124,-36C124,-36 89,-36 89,-36 83,-36 77,-30 77,-24 77,-24 77,-12 77,-12 77,-6 83,-0 89,-0 89,-0 124,-0 124,-0 130,-0 136,-6 136,-12 136,-12 136,-24 136,-24 136,-30 130,-36 124,-36"/>
<text text-anchor="middle" x="106.5" y="-14.3" font-family="Times,serif" font-size="14.00">path (2)</text>
</g>
<!-- v0&#45;&gt;p1 -->
<g id="edge1" class="edge"><title>v0&#45;&gt;p1</title>
<path fill="none" stroke="black" d="M134.918,-72.7646C130.563,-64.5255 125.167,-54.3166 120.251,-45.0157"/>
<polygon fill="black" stroke="black" points="123.319,-43.3293 115.551,-36.1239 117.13,-46.6005 123.319,-43.3293"/>
</g>
<!-- v4 -->
<g id="node4" class="node"><title>v4</title>
<ellipse fill="none" stroke="black" cx="181.5" cy="-18" rx="27" ry="18"/>
<text text-anchor="middle" x="181.5" y="-14.3" font-family="Times,serif" font-size="14.00">4</text>
</g>
<!-- v0&#45;&gt;v4 -->
<g id="edge2" class="edge"><title>v0&#45;&gt;v4</title>
<path fill="none" stroke="black" d="M146.821,-72.055C150.677,-63.2241 156.436,-52.2815 162.248,-42.6321"/>
<polygon fill="black" stroke="black" points="165.391,-44.2108 167.777,-33.888 159.474,-40.4699 165.391,-44.2108"/>
</g>
<!-- v4&#45;&gt;v0 -->
<g id="edge4" class="edge"><title>v4&#45;&gt;v0</title>
<path fill="none" stroke="black" d="M178.138,-36.04C174.273,-44.8733 168.518,-55.8 162.715,-65.43"/>
<polygon fill="black" stroke="black" points="159.583,-63.8327 157.195,-74.1548 165.499,-67.5752 159.583,-63.8327"/>
</g>
</g>
</svg>
