<?xml version="1.0" encoding="UTF-8" standalone="no"?>
<!DOCTYPE svg PUBLIC "-//W3C//DTD SVG 1.1//EN"
 "http://www.w3.org/Graphics/SVG/1.1/DTD/svg11.dtd">
<!-- Generated by graphviz version 2.38.0 (20140413.2041)
 -->
<!-- Title: %3 Pages: 1 -->
<svg width="732pt" height="332pt"
 viewBox="0.00 0.00 732.00 332.00" xmlns="http://www.w3.org/2000/svg" xmlns:xlink="http://www.w3.org/1999/xlink">
<g id="graph0" class="graph" transform="scale(1 1) rotate(0) translate(4 328)">
<title>%3</title>
<polygon fill="white" stroke="none" points="-4,4 -4,-328 728,-328 728,4 -4,4"/>
<!-- v0 -->
<g id="node1" class="node"><title>v0</title>
<ellipse fill="none" stroke="black" cx="27" cy="-234" rx="27" ry="18"/>
<text text-anchor="middle" x="27" y="-230.3" font-family="Times,serif" font-size="14.00">0</text>
</g>
<!-- v1 -->
<g id="node2" class="node"><title>v1</title>
<ellipse fill="none" stroke="black" cx="27" cy="-162" rx="27" ry="18"/>
<text text-anchor="middle" x="27" y="-158.3" font-family="Times,serif" font-size="14.00">1</text>
</g>
<!-- v0&#45;&gt;v1 -->
<g id="edge20" class="edge"><title>v0&#45;&gt;v1</title>
<path fill="none" stroke="black" d="M21.1601,-216.411C20.2975,-208.507 20.0481,-198.852 20.4119,-189.935"/>
<polygon fill="black" stroke="black" points="23.9033,-190.179 21.1206,-179.956 16.9209,-189.683 23.9033,-190.179"/>
</g>
<!-- v1&#45;&gt;v0 -->
<g id="edge18" class="edge"><title>v1&#45;&gt;v0</title>
<path fill="none" stroke="black" d="M32.8794,-179.956C33.7139,-187.827 33.9485,-197.374 33.5831,-206.187"/>
<polygon fill="black" stroke="black" points="30.0742,-206.184 32.8399,-216.411 37.0558,-206.691 30.0742,-206.184"/>
</g>
<!-- v2 -->
<g id="node3" class="node"><title>v2</title>
<ellipse fill="none" stroke="black" cx="27" cy="-90" rx="27" ry="18"/>
<text text-anchor="middle" x="27" y="-86.3" font-family="Times,serif" font-size="14.00">2</text>
</g>
<!-- v1&#45;&gt;v2 -->
<g id="edge14" class="edge"><title>v1&#45;&gt;v2</title>
<path fill="none" stroke="black" d="M21.1601,-144.411C20.2975,-136.507 20.0481,-126.852 20.4119,-117.935"/>
<polygon fill="black" stroke="black" points="23.9033,-118.179 21.1206,-107.956 16.9209,-117.683 23.9033,-118.179"/>
</g>
<!-- v2&#45;&gt;v1 -->
<g id="edge5" class="edge"><title>v2&#45;&gt;v1</title>
<path fill="none" stroke="black" d="M32.8794,-107.956C33.7139,-115.827 33.9485,-125.374 33.5831,-134.187"/>
<polygon fill="black" stroke="black" points="30.0742,-134.184 32.8399,-144.411 37.0558,-134.691 30.0742,-134.184"/>
</g>
<!-- v3 -->
<g id="node4" class="node"><title>v3</title>
<ellipse fill="none" stroke="black" cx="287" cy="-234" rx="27" ry="18"/>
<text text-anchor="middle" x="287" y="-230.3" font-family="Times,serif" font-size="14.00">3</text>
</g>
<!-- v3&#45;&gt;v2 -->
<g id="edge15" class="edge"><title>v3&#45;&gt;v2</title>
<path fill="none" stroke="black" d="M260.836,-229.257C225.239,-223.261 160.543,-209.09 113,-180 85.096,-162.926 59.9643,-134.682 44.1771,-114.592"/>
<polygon fill="black" stroke="black" points="46.8643,-112.345 38.0024,-106.538 41.309,-116.604 46.8643,-112.345"/>
</g>
<!-- v4 -->
<g id="node5" class="node"><title>v4</title>
<ellipse fill="none" stroke="black" cx="103" cy="-90" rx="27" ry="18"/>
<text text-anchor="middle" x="103" y="-86.3" font-family="Times,serif" font-size="14.00">4</text>
</g>
<!-- v3&#45;&gt;v4 -->
<g id="edge24" class="edge"><title>v3&#45;&gt;v4</title>
<path fill="none" stroke="black" d="M260.59,-230.128C228.029,-225.263 172.859,-212.515 139,-180 121.778,-163.462 112.558,-137.564 107.776,-117.959"/>
<polygon fill="black" stroke="black" points="111.172,-117.106 105.608,-108.09 104.335,-118.608 111.172,-117.106"/>
</g>
<!-- v5 -->
<g id="node6" class="node"><title>v5</title>
<ellipse fill="none" stroke="black" cx="175" cy="-162" rx="27" ry="18"/>
<text text-anchor="middle" x="175" y="-158.3" font-family="Times,serif" font-size="14.00">5</text>
</g>
<!-- v3&#45;&gt;v5 -->
<g id="edge19" class="edge"><title>v3&#45;&gt;v5</title>
<path fill="none" stroke="black" d="M268.001,-221.125C250.06,-209.913 222.949,-192.968 202.62,-180.263"/>
<polygon fill="black" stroke="black" points="204.427,-177.265 194.092,-174.933 200.717,-183.201 204.427,-177.265"/>
</g>
<!-- p1 -->
<g id="node12" class="node"><title>p1</title>
<path fill="none" stroke="black" d="M267.5,-180C267.5,-180 232.5,-180 232.5,-180 226.5,-180 220.5,-174 220.5,-168 220.5,-168 220.5,-156 220.5,-156 220.5,-150 226.5,-144 232.5,-144 232.5,-144 267.5,-144 267.5,-144 273.5,-144 279.5,-150 279.5,-156 279.5,-156 279.5,-168 279.5,-168 279.5,-174 273.5,-180 267.5,-180"/>
<text text-anchor="middle" x="250" y="-158.3" font-family="Times,serif" font-size="14.00">path (2)</text>
</g>
<!-- v3&#45;&gt;p1 -->
<g id="edge9" class="edge"><title>v3&#45;&gt;p1</title>
<path fill="none" stroke="black" d="M278.418,-216.765C274.063,-208.525 268.667,-198.317 263.751,-189.016"/>
<polygon fill="black" stroke="black" points="266.819,-187.329 259.051,-180.124 260.63,-190.6 266.819,-187.329"/>
</g>
<!-- v15 -->
<g id="node16" class="node"><title>v15</title>
<ellipse fill="none" stroke="black" cx="325" cy="-162" rx="27" ry="18"/>
<text text-anchor="middle" x="325" y="-158.3" font-family="Times,serif" font-size="14.00">15</text>
</g>
<!-- v3&#45;&gt;v15 -->
<g id="edge2" class="edge"><title>v3&#45;&gt;v15</title>
<path fill="none" stroke="black" d="M295.813,-216.765C300.418,-208.283 306.155,-197.714 311.321,-188.197"/>
<polygon fill="black" stroke="black" points="314.539,-189.606 316.234,-179.147 308.387,-186.266 314.539,-189.606"/>
</g>
<!-- v16 -->
<g id="node17" class="node"><title>v16</title>
<ellipse fill="none" stroke="black" cx="397" cy="-162" rx="27" ry="18"/>
<text text-anchor="middle" x="397" y="-158.3" font-family="Times,serif" font-size="14.00">16</text>
</g>
<!-- v3&#45;&gt;v16 -->
<g id="edge13" class="edge"><title>v3&#45;&gt;v16</title>
<path fill="none" stroke="black" d="M306.161,-220.807C323.669,-209.665 349.759,-193.062 369.493,-180.504"/>
<polygon fill="black" stroke="black" points="371.501,-183.375 378.059,-175.053 367.743,-177.469 371.501,-183.375"/>
</g>
<!-- p3 -->
<g id="node20" class="node"><title>p3</title>
<path fill="none" stroke="black" d="M489.5,-180C489.5,-180 454.5,-180 454.5,-180 448.5,-180 442.5,-174 442.5,-168 442.5,-168 442.5,-156 442.5,-156 442.5,-150 448.5,-144 454.5,-144 454.5,-144 489.5,-144 489.5,-144 495.5,-144 501.5,-150 501.5,-156 501.5,-156 501.5,-168 501.5,-168 501.5,-174 495.5,-180 489.5,-180"/>
<text text-anchor="middle" x="472" y="-158.3" font-family="Times,serif" font-size="14.00">path (2)</text>
</g>
<!-- v3&#45;&gt;p3 -->
<g id="edge10" class="edge"><title>v3&#45;&gt;p3</title>
<path fill="none" stroke="black" d="M310.434,-225.003C339.417,-214.995 390.172,-197.088 433,-180 433.094,-179.962 433.189,-179.925 433.283,-179.887"/>
<polygon fill="black" stroke="black" points="434.355,-183.231 442.27,-176.188 431.691,-176.757 434.355,-183.231"/>
</g>
<!-- v25 -->
<g id="node21" class="node"><title>v25</title>
<ellipse fill="none" stroke="black" cx="547" cy="-162" rx="27" ry="18"/>
<text text-anchor="middle" x="547" y="-158.3" font-family="Times,serif" font-size="14.00">25</text>
</g>
<!-- v3&#45;&gt;v25 -->
<g id="edge7" class="edge"><title>v3&#45;&gt;v25</title>
<path fill="none" stroke="black" d="M312.884,-228.568C354.937,-220.988 440.402,-203.996 510,-180 512.118,-179.27 514.278,-178.46 516.438,-177.601"/>
<polygon fill="black" stroke="black" points="517.947,-180.763 525.772,-173.62 515.201,-174.324 517.947,-180.763"/>
</g>
<!-- v5&#45;&gt;v4 -->
<g id="edge4" class="edge"><title>v5&#45;&gt;v4</title>
<path fill="none" stroke="black" d="M160.43,-146.834C150.25,-136.938 136.476,-123.546 124.969,-112.359"/>
<polygon fill="black" stroke="black" points="127.405,-109.846 117.796,-105.385 122.526,-114.865 127.405,-109.846"/>
</g>
<!-- v6 -->
<g id="node7" class="node"><title>v6</title>
<ellipse fill="none" stroke="black" cx="175" cy="-90" rx="27" ry="18"/>
<text text-anchor="middle" x="175" y="-86.3" font-family="Times,serif" font-size="14.00">6</text>
</g>
<!-- v5&#45;&gt;v6 -->
<g id="edge3" class="edge"><title>v5&#45;&gt;v6</title>
<path fill="none" stroke="black" d="M175,-143.697C175,-135.983 175,-126.712 175,-118.112"/>
<polygon fill="black" stroke="black" points="178.5,-118.104 175,-108.104 171.5,-118.104 178.5,-118.104"/>
</g>
<!-- v7 -->
<g id="node8" class="node"><title>v7</title>
<ellipse fill="none" stroke="black" cx="247" cy="-90" rx="27" ry="18"/>
<text text-anchor="middle" x="247" y="-86.3" font-family="Times,serif" font-size="14.00">7</text>
</g>
<!-- v5&#45;&gt;v7 -->
<g id="edge22" class="edge"><title>v5&#45;&gt;v7</title>
<path fill="none" stroke="black" d="M189.57,-146.834C199.75,-136.938 213.524,-123.546 225.031,-112.359"/>
<polygon fill="black" stroke="black" points="227.474,-114.865 232.204,-105.385 222.595,-109.846 227.474,-114.865"/>
</g>
<!-- p0 -->
<g id="node9" class="node"><title>p0</title>
<path fill="none" stroke="black" d="M339.5,-108C339.5,-108 304.5,-108 304.5,-108 298.5,-108 292.5,-102 292.5,-96 292.5,-96 292.5,-84 292.5,-84 292.5,-78 298.5,-72 304.5,-72 304.5,-72 339.5,-72 339.5,-72 345.5,-72 351.5,-78 351.5,-84 351.5,-84 351.5,-96 351.5,-96 351.5,-102 345.5,-108 339.5,-108"/>
<text text-anchor="middle" x="322" y="-86.3" font-family="Times,serif" font-size="14.00">path (3)</text>
</g>
<!-- v5&#45;&gt;p0 -->
<g id="edge6" class="edge"><title>v5&#45;&gt;p0</title>
<path fill="none" stroke="black" d="M196.375,-150.821C219.125,-139.988 255.603,-122.618 283.403,-109.379"/>
<polygon fill="black" stroke="black" points="284.943,-112.523 292.466,-105.064 281.933,-106.203 284.943,-112.523"/>
</g>
<!-- v10 -->
<g id="node11" class="node"><title>v10</title>
<ellipse fill="none" stroke="black" cx="103" cy="-18" rx="27" ry="18"/>
<text text-anchor="middle" x="103" y="-14.3" font-family="Times,serif" font-size="14.00">10</text>
</g>
<!-- v6&#45;&gt;v10 -->
<g id="edge12" class="edge"><title>v6&#45;&gt;v10</title>
<path fill="none" stroke="black" d="M160.43,-74.8345C150.25,-64.9376 136.476,-51.5462 124.969,-40.3591"/>
<polygon fill="black" stroke="black" points="127.405,-37.8461 117.796,-33.3847 122.526,-42.865 127.405,-37.8461"/>
</g>
<!-- v12 -->
<g id="node13" class="node"><title>v12</title>
<ellipse fill="none" stroke="black" cx="175" cy="-18" rx="27" ry="18"/>
<text text-anchor="middle" x="175" y="-14.3" font-family="Times,serif" font-size="14.00">12</text>
</g>
<!-- v6&#45;&gt;v12 -->
<g id="edge8" class="edge"><title>v6&#45;&gt;v12</title>
<path fill="none" stroke="black" d="M175,-71.6966C175,-63.9827 175,-54.7125 175,-46.1124"/>
<polygon fill="black" stroke="black" points="178.5,-46.1043 175,-36.1043 171.5,-46.1044 178.5,-46.1043"/>
</g>
<!-- v13 -->
<g id="node14" class="node"><title>v13</title>
<ellipse fill="none" stroke="black" cx="247" cy="-18" rx="27" ry="18"/>
<text text-anchor="middle" x="247" y="-14.3" font-family="Times,serif" font-size="14.00">13</text>
</g>
<!-- v6&#45;&gt;v13 -->
<g id="edge23" class="edge"><title>v6&#45;&gt;v13</title>
<path fill="none" stroke="black" d="M189.57,-74.8345C199.75,-64.9376 213.524,-51.5462 225.031,-40.3591"/>
<polygon fill="black" stroke="black" points="227.474,-42.865 232.204,-33.3847 222.595,-37.8461 227.474,-42.865"/>
</g>
<!-- v9 -->
<g id="node10" class="node"><title>v9</title>
<ellipse fill="none" stroke="black" cx="287" cy="-306" rx="27" ry="18"/>
<text text-anchor="middle" x="287" y="-302.3" font-family="Times,serif" font-size="14.00">9</text>
</g>
<!-- v9&#45;&gt;v0 -->
<g id="edge17" class="edge"><title>v9&#45;&gt;v0</title>
<path fill="none" stroke="black" d="M262.07,-298.288C215.382,-285.718 114.692,-258.609 61.5165,-244.293"/>
<polygon fill="black" stroke="black" points="62.4205,-240.912 51.8544,-241.692 60.6006,-247.671 62.4205,-240.912"/>
</g>
<!-- v9&#45;&gt;v3 -->
<g id="edge16" class="edge"><title>v9&#45;&gt;v3</title>
<path fill="none" stroke="black" d="M287,-287.697C287,-279.983 287,-270.712 287,-262.112"/>
<polygon fill="black" stroke="black" points="290.5,-262.104 287,-252.104 283.5,-262.104 290.5,-262.104"/>
</g>
<!-- v21 -->
<g id="node18" class="node"><title>v21</title>
<ellipse fill="none" stroke="black" cx="622" cy="-234" rx="27" ry="18"/>
<text text-anchor="middle" x="622" y="-230.3" font-family="Times,serif" font-size="14.00">21</text>
</g>
<!-- v9&#45;&gt;v21 -->
<g id="edge11" class="edge"><title>v9&#45;&gt;v21</title>
<path fill="none" stroke="black" d="M312.454,-299.681C371.71,-287.299 518.976,-256.527 586.791,-242.357"/>
<polygon fill="black" stroke="black" points="587.512,-245.782 596.584,-240.311 586.08,-238.93 587.512,-245.782"/>
</g>
<!-- p2 -->
<g id="node15" class="node"><title>p2</title>
<path fill="none" stroke="black" d="M639.5,-180C639.5,-180 604.5,-180 604.5,-180 598.5,-180 592.5,-174 592.5,-168 592.5,-168 592.5,-156 592.5,-156 592.5,-150 598.5,-144 604.5,-144 604.5,-144 639.5,-144 639.5,-144 645.5,-144 651.5,-150 651.5,-156 651.5,-156 651.5,-168 651.5,-168 651.5,-174 645.5,-180 639.5,-180"/>
<text text-anchor="middle" x="622" y="-158.3" font-family="Times,serif" font-size="14.00">path (2)</text>
</g>
<!-- v21&#45;&gt;p2 -->
<g id="edge1" class="edge"><title>v21&#45;&gt;p2</title>
<path fill="none" stroke="black" d="M622,-215.697C622,-207.983 622,-198.712 622,-190.112"/>
<polygon fill="black" stroke="black" points="625.5,-190.104 622,-180.104 618.5,-190.104 625.5,-190.104"/>
</g>
<!-- v22 -->
<g id="node19" class="node"><title>v22</title>
<ellipse fill="none" stroke="black" cx="697" cy="-162" rx="27" ry="18"/>
<text text-anchor="middle" x="697" y="-158.3" font-family="Times,serif" font-size="14.00">22</text>
</g>
<!-- v21&#45;&gt;v22 -->
<g id="edge21" class="edge"><title>v21&#45;&gt;v22</title>
<path fill="none" stroke="black" d="M637.177,-218.834C647.851,-208.872 662.319,-195.369 674.353,-184.137"/>
<polygon fill="black" stroke="black" points="676.923,-186.526 681.845,-177.144 672.146,-181.409 676.923,-186.526"/>
</g>
</g>
</svg>
