<?xml version="1.0" encoding="UTF-8" standalone="no"?>
<!DOCTYPE svg PUBLIC "-//W3C//DTD SVG 1.1//EN"
 "http://www.w3.org/Graphics/SVG/1.1/DTD/svg11.dtd">
<!-- Generated by graphviz version 2.38.0 (20140413.2041)
 -->
<!-- Title: %3 Pages: 1 -->
<svg width="1502pt" height="332pt"
 viewBox="0.00 0.00 1502.00 332.00" xmlns="http://www.w3.org/2000/svg" xmlns:xlink="http://www.w3.org/1999/xlink">
<g id="graph0" class="graph" transform="scale(1 1) rotate(0) translate(4 328)">
<title>%3</title>
<polygon fill="white" stroke="none" points="-4,4 -4,-328 1498,-328 1498,4 -4,4"/>
<!-- v0 -->
<g id="node1" class="node"><title>v0</title>
<ellipse fill="none" stroke="black" cx="27" cy="-18" rx="27" ry="18"/>
<text text-anchor="middle" x="27" y="-14.3" font-family="Times,serif" font-size="14.00">0</text>
</g>
<!-- p0 -->
<g id="node2" class="node"><title>p0</title>
<path fill="none" stroke="black" d="M834.5,-252C834.5,-252 799.5,-252 799.5,-252 793.5,-252 787.5,-246 787.5,-240 787.5,-240 787.5,-228 787.5,-228 787.5,-222 793.5,-216 799.5,-216 799.5,-216 834.5,-216 834.5,-216 840.5,-216 846.5,-222 846.5,-228 846.5,-228 846.5,-240 846.5,-240 846.5,-246 840.5,-252 834.5,-252"/>
<text text-anchor="middle" x="817" y="-230.3" font-family="Times,serif" font-size="14.00">path (9)</text>
</g>
<!-- v10 -->
<g id="node10" class="node"><title>v10</title>
<ellipse fill="none" stroke="black" cx="817" cy="-162" rx="27" ry="18"/>
<text text-anchor="middle" x="817" y="-158.3" font-family="Times,serif" font-size="14.00">10</text>
</g>
<!-- p0&#45;&gt;v10 -->
<g id="edge13" class="edge"><title>p0&#45;&gt;v10</title>
<path fill="none" stroke="black" d="M817,-215.697C817,-207.983 817,-198.712 817,-190.112"/>
<polygon fill="black" stroke="black" points="820.5,-190.104 817,-180.104 813.5,-190.104 820.5,-190.104"/>
</g>
<!-- v2 -->
<g id="node3" class="node"><title>v2</title>
<ellipse fill="none" stroke="black" cx="747" cy="-90" rx="27" ry="18"/>
<text text-anchor="middle" x="747" y="-86.3" font-family="Times,serif" font-size="14.00">2</text>
</g>
<!-- v2&#45;&gt;v0 -->
<g id="edge24" class="edge"><title>v2&#45;&gt;v0</title>
<path fill="none" stroke="black" d="M720.027,-88.2142C609.429,-84.792 190.502,-69.8165 63,-36 60.8287,-35.4241 58.6285,-34.7205 56.4418,-33.9308"/>
<polygon fill="black" stroke="black" points="57.6499,-30.6428 47.0718,-30.0471 54.9696,-37.1094 57.6499,-30.6428"/>
</g>
<!-- v3 -->
<g id="node4" class="node"><title>v3</title>
<ellipse fill="none" stroke="black" cx="99" cy="-18" rx="27" ry="18"/>
<text text-anchor="middle" x="99" y="-14.3" font-family="Times,serif" font-size="14.00">3</text>
</g>
<!-- v2&#45;&gt;v3 -->
<g id="edge20" class="edge"><title>v2&#45;&gt;v3</title>
<path fill="none" stroke="black" d="M720.116,-87.9361C617.147,-83.6665 247.997,-66.5179 135,-36 133.048,-35.4729 131.072,-34.8443 129.104,-34.1443"/>
<polygon fill="black" stroke="black" points="130.042,-30.746 119.462,-30.1884 127.385,-37.2222 130.042,-30.746"/>
</g>
<!-- v4 -->
<g id="node5" class="node"><title>v4</title>
<ellipse fill="none" stroke="black" cx="171" cy="-18" rx="27" ry="18"/>
<text text-anchor="middle" x="171" y="-14.3" font-family="Times,serif" font-size="14.00">4</text>
</g>
<!-- v2&#45;&gt;v4 -->
<g id="edge27" class="edge"><title>v2&#45;&gt;v4</title>
<path fill="none" stroke="black" d="M720.002,-89.5759C640.047,-90.6019 398.134,-88.7965 207,-36 205.051,-35.4617 203.078,-34.8245 201.111,-34.118"/>
<polygon fill="black" stroke="black" points="202.053,-30.7205 191.473,-30.1452 199.385,-37.1922 202.053,-30.7205"/>
</g>
<!-- v5 -->
<g id="node6" class="node"><title>v5</title>
<ellipse fill="none" stroke="black" cx="243" cy="-18" rx="27" ry="18"/>
<text text-anchor="middle" x="243" y="-14.3" font-family="Times,serif" font-size="14.00">5</text>
</g>
<!-- v2&#45;&gt;v5 -->
<g id="edge7" class="edge"><title>v2&#45;&gt;v5</title>
<path fill="none" stroke="black" d="M720.021,-89.0052C647.316,-88.3708 441.812,-82.2841 279,-36 277.055,-35.4472 275.085,-34.7987 273.121,-34.0838"/>
<polygon fill="black" stroke="black" points="274.067,-30.6873 263.489,-30.089 271.385,-37.1532 274.067,-30.6873"/>
</g>
<!-- v8 -->
<g id="node8" class="node"><title>v8</title>
<ellipse fill="none" stroke="black" cx="315" cy="-18" rx="27" ry="18"/>
<text text-anchor="middle" x="315" y="-14.3" font-family="Times,serif" font-size="14.00">8</text>
</g>
<!-- v2&#45;&gt;v8 -->
<g id="edge3" class="edge"><title>v2&#45;&gt;v8</title>
<path fill="none" stroke="black" d="M719.994,-88.2349C655.084,-85.7876 485.71,-75.7762 351,-36 349.061,-35.4275 347.095,-34.7639 345.134,-34.0374"/>
<polygon fill="black" stroke="black" points="346.087,-30.6424 335.511,-30.0128 343.386,-37.1004 346.087,-30.6424"/>
</g>
<!-- v13 -->
<g id="node11" class="node"><title>v13</title>
<ellipse fill="none" stroke="black" cx="387" cy="-18" rx="27" ry="18"/>
<text text-anchor="middle" x="387" y="-14.3" font-family="Times,serif" font-size="14.00">13</text>
</g>
<!-- v2&#45;&gt;v13 -->
<g id="edge11" class="edge"><title>v2&#45;&gt;v13</title>
<path fill="none" stroke="black" d="M719.96,-87.1344C663.605,-82.6945 529.943,-69.2761 423,-36 421.07,-35.3993 419.11,-34.714 417.154,-33.9712"/>
<polygon fill="black" stroke="black" points="418.118,-30.5785 407.544,-29.904 415.389,-37.0249 418.118,-30.5785"/>
</g>
<!-- v15 -->
<g id="node13" class="node"><title>v15</title>
<ellipse fill="none" stroke="black" cx="459" cy="-18" rx="27" ry="18"/>
<text text-anchor="middle" x="459" y="-14.3" font-family="Times,serif" font-size="14.00">15</text>
</g>
<!-- v2&#45;&gt;v15 -->
<g id="edge26" class="edge"><title>v2&#45;&gt;v15</title>
<path fill="none" stroke="black" d="M720.71,-85.541C674.279,-78.9788 575.094,-62.9194 495,-36 493.084,-35.3559 491.135,-34.6371 489.187,-33.869"/>
<polygon fill="black" stroke="black" points="490.167,-30.4802 479.599,-29.736 487.396,-36.9085 490.167,-30.4802"/>
</g>
<!-- v16 -->
<g id="node14" class="node"><title>v16</title>
<ellipse fill="none" stroke="black" cx="531" cy="-18" rx="27" ry="18"/>
<text text-anchor="middle" x="531" y="-14.3" font-family="Times,serif" font-size="14.00">16</text>
</g>
<!-- v2&#45;&gt;v16 -->
<g id="edge17" class="edge"><title>v2&#45;&gt;v16</title>
<path fill="none" stroke="black" d="M721.848,-82.9092C686.676,-74.0968 621.04,-56.5733 567,-36 565.159,-35.2991 563.282,-34.5436 561.399,-33.7543"/>
<polygon fill="black" stroke="black" points="562.644,-30.4779 552.084,-29.6227 559.806,-36.8767 562.644,-30.4779"/>
</g>
<!-- v17 -->
<g id="node15" class="node"><title>v17</title>
<ellipse fill="none" stroke="black" cx="603" cy="-18" rx="27" ry="18"/>
<text text-anchor="middle" x="603" y="-14.3" font-family="Times,serif" font-size="14.00">17</text>
</g>
<!-- v2&#45;&gt;v17 -->
<g id="edge22" class="edge"><title>v2&#45;&gt;v17</title>
<path fill="none" stroke="black" d="M725.752,-78.6713C701.398,-66.8324 661.281,-47.3312 633.572,-33.8615"/>
<polygon fill="black" stroke="black" points="634.859,-30.5953 624.335,-29.3711 631.798,-36.8909 634.859,-30.5953"/>
</g>
<!-- v18 -->
<g id="node16" class="node"><title>v18</title>
<ellipse fill="none" stroke="black" cx="675" cy="-18" rx="27" ry="18"/>
<text text-anchor="middle" x="675" y="-14.3" font-family="Times,serif" font-size="14.00">18</text>
</g>
<!-- v2&#45;&gt;v18 -->
<g id="edge2" class="edge"><title>v2&#45;&gt;v18</title>
<path fill="none" stroke="black" d="M732.43,-74.8345C722.25,-64.9376 708.476,-51.5462 696.969,-40.3591"/>
<polygon fill="black" stroke="black" points="699.405,-37.8461 689.796,-33.3847 694.526,-42.865 699.405,-37.8461"/>
</g>
<!-- v20 -->
<g id="node17" class="node"><title>v20</title>
<ellipse fill="none" stroke="black" cx="747" cy="-18" rx="27" ry="18"/>
<text text-anchor="middle" x="747" y="-14.3" font-family="Times,serif" font-size="14.00">20</text>
</g>
<!-- v2&#45;&gt;v20 -->
<g id="edge19" class="edge"><title>v2&#45;&gt;v20</title>
<path fill="none" stroke="black" d="M747,-71.6966C747,-63.9827 747,-54.7125 747,-46.1124"/>
<polygon fill="black" stroke="black" points="750.5,-46.1043 747,-36.1043 743.5,-46.1044 750.5,-46.1043"/>
</g>
<!-- v21 -->
<g id="node18" class="node"><title>v21</title>
<ellipse fill="none" stroke="black" cx="819" cy="-18" rx="27" ry="18"/>
<text text-anchor="middle" x="819" y="-14.3" font-family="Times,serif" font-size="14.00">21</text>
</g>
<!-- v2&#45;&gt;v21 -->
<g id="edge23" class="edge"><title>v2&#45;&gt;v21</title>
<path fill="none" stroke="black" d="M761.57,-74.8345C771.75,-64.9376 785.524,-51.5462 797.031,-40.3591"/>
<polygon fill="black" stroke="black" points="799.474,-42.865 804.204,-33.3847 794.595,-37.8461 799.474,-42.865"/>
</g>
<!-- v22 -->
<g id="node19" class="node"><title>v22</title>
<ellipse fill="none" stroke="black" cx="891" cy="-18" rx="27" ry="18"/>
<text text-anchor="middle" x="891" y="-14.3" font-family="Times,serif" font-size="14.00">22</text>
</g>
<!-- v2&#45;&gt;v22 -->
<g id="edge5" class="edge"><title>v2&#45;&gt;v22</title>
<path fill="none" stroke="black" d="M768.248,-78.6713C792.602,-66.8324 832.719,-47.3312 860.428,-33.8615"/>
<polygon fill="black" stroke="black" points="862.202,-36.8909 869.665,-29.3711 859.141,-30.5953 862.202,-36.8909"/>
</g>
<!-- v23 -->
<g id="node20" class="node"><title>v23</title>
<ellipse fill="none" stroke="black" cx="963" cy="-18" rx="27" ry="18"/>
<text text-anchor="middle" x="963" y="-14.3" font-family="Times,serif" font-size="14.00">23</text>
</g>
<!-- v2&#45;&gt;v23 -->
<g id="edge10" class="edge"><title>v2&#45;&gt;v23</title>
<path fill="none" stroke="black" d="M768.028,-78.2261C772.871,-75.9832 778.053,-73.767 783,-72 845.125,-49.8086 864.875,-58.1914 927,-36 928.855,-35.3374 930.743,-34.6116 932.634,-33.8449"/>
<polygon fill="black" stroke="black" points="934.204,-36.9789 941.972,-29.7739 931.406,-30.5622 934.204,-36.9789"/>
</g>
<!-- v25 -->
<g id="node22" class="node"><title>v25</title>
<ellipse fill="none" stroke="black" cx="1035" cy="-18" rx="27" ry="18"/>
<text text-anchor="middle" x="1035" y="-14.3" font-family="Times,serif" font-size="14.00">25</text>
</g>
<!-- v2&#45;&gt;v25 -->
<g id="edge25" class="edge"><title>v2&#45;&gt;v25</title>
<path fill="none" stroke="black" d="M767.548,-78.1072C772.503,-75.8164 777.855,-73.6095 783,-72 875.886,-42.9447 906.114,-65.0553 999,-36 1000.93,-35.3964 1002.89,-34.7089 1004.84,-33.9644"/>
<polygon fill="black" stroke="black" points="1006.61,-37.0171 1014.45,-29.8928 1003.88,-30.5719 1006.61,-37.0171"/>
</g>
<!-- v27 -->
<g id="node23" class="node"><title>v27</title>
<ellipse fill="none" stroke="black" cx="1107" cy="-18" rx="27" ry="18"/>
<text text-anchor="middle" x="1107" y="-14.3" font-family="Times,serif" font-size="14.00">27</text>
</g>
<!-- v2&#45;&gt;v27 -->
<g id="edge14" class="edge"><title>v2&#45;&gt;v27</title>
<path fill="none" stroke="black" d="M767.502,-77.9545C772.459,-75.67 777.823,-73.5042 783,-72 906.873,-36.0083 947.127,-71.9917 1071,-36 1072.94,-35.4359 1074.91,-34.7788 1076.87,-34.0573"/>
<polygon fill="black" stroke="black" points="1078.61,-37.123 1086.5,-30.0455 1075.92,-30.6616 1078.61,-37.123"/>
</g>
<!-- v30 -->
<g id="node25" class="node"><title>v30</title>
<ellipse fill="none" stroke="black" cx="1179" cy="-18" rx="27" ry="18"/>
<text text-anchor="middle" x="1179" y="-14.3" font-family="Times,serif" font-size="14.00">30</text>
</g>
<!-- v2&#45;&gt;v30 -->
<g id="edge9" class="edge"><title>v2&#45;&gt;v30</title>
<path fill="none" stroke="black" d="M767.475,-77.8617C772.433,-75.581 777.805,-73.4402 783,-72 937.954,-29.0444 988.046,-78.9556 1143,-36 1144.95,-35.4599 1146.92,-34.8213 1148.89,-34.1138"/>
<polygon fill="black" stroke="black" points="1150.62,-37.1874 1158.52,-30.1383 1147.95,-30.7164 1150.62,-37.1874"/>
</g>
<!-- v34 -->
<g id="node26" class="node"><title>v34</title>
<ellipse fill="none" stroke="black" cx="1251" cy="-18" rx="27" ry="18"/>
<text text-anchor="middle" x="1251" y="-14.3" font-family="Times,serif" font-size="14.00">34</text>
</g>
<!-- v2&#45;&gt;v34 -->
<g id="edge6" class="edge"><title>v2&#45;&gt;v34</title>
<path fill="none" stroke="black" d="M767.458,-77.7994C772.417,-75.5212 777.793,-73.3972 783,-72 969.083,-22.0673 1028.92,-85.9327 1215,-36 1216.95,-35.476 1218.93,-34.8499 1220.9,-34.1517"/>
<polygon fill="black" stroke="black" points="1222.62,-37.2307 1230.54,-30.2006 1219.96,-30.7533 1222.62,-37.2307"/>
</g>
<!-- v35 -->
<g id="node27" class="node"><title>v35</title>
<ellipse fill="none" stroke="black" cx="1323" cy="-18" rx="27" ry="18"/>
<text text-anchor="middle" x="1323" y="-14.3" font-family="Times,serif" font-size="14.00">35</text>
</g>
<!-- v2&#45;&gt;v35 -->
<g id="edge12" class="edge"><title>v2&#45;&gt;v35</title>
<path fill="none" stroke="black" d="M767.066,-77.9301C772.13,-75.5871 777.651,-73.4014 783,-72 1000.24,-15.0829 1069.76,-92.9171 1287,-36 1289.17,-35.4307 1291.37,-34.7319 1293.56,-33.9457"/>
<polygon fill="black" stroke="black" points="1295.03,-37.1259 1302.93,-30.0699 1292.36,-30.6573 1295.03,-37.1259"/>
</g>
<!-- v36 -->
<g id="node28" class="node"><title>v36</title>
<ellipse fill="none" stroke="black" cx="1395" cy="-18" rx="27" ry="18"/>
<text text-anchor="middle" x="1395" y="-14.3" font-family="Times,serif" font-size="14.00">36</text>
</g>
<!-- v2&#45;&gt;v36 -->
<g id="edge21" class="edge"><title>v2&#45;&gt;v36</title>
<path fill="none" stroke="black" d="M767.057,-77.8963C772.121,-75.5544 777.645,-73.3776 783,-72 1031.41,-8.09397 1110.59,-99.906 1359,-36 1361.18,-35.4403 1363.38,-34.7488 1365.57,-33.9678"/>
<polygon fill="black" stroke="black" points="1367.03,-37.1504 1374.94,-30.1037 1364.36,-30.6786 1367.03,-37.1504"/>
</g>
<!-- v41 -->
<g id="node29" class="node"><title>v41</title>
<ellipse fill="none" stroke="black" cx="1467" cy="-18" rx="27" ry="18"/>
<text text-anchor="middle" x="1467" y="-14.3" font-family="Times,serif" font-size="14.00">41</text>
</g>
<!-- v2&#45;&gt;v41 -->
<g id="edge1" class="edge"><title>v2&#45;&gt;v41</title>
<path fill="none" stroke="black" d="M767.05,-77.87C772.115,-75.5289 777.64,-73.3591 783,-72 1062.6,-1.1021 1151.4,-106.898 1431,-36 1433.18,-35.4479 1435.38,-34.7619 1437.57,-33.9851"/>
<polygon fill="black" stroke="black" points="1439.03,-37.1694 1446.95,-30.13 1436.37,-30.6952 1439.03,-37.1694"/>
</g>
<!-- p1 -->
<g id="node7" class="node"><title>p1</title>
<path fill="none" stroke="black" d="M911.5,-252C911.5,-252 876.5,-252 876.5,-252 870.5,-252 864.5,-246 864.5,-240 864.5,-240 864.5,-228 864.5,-228 864.5,-222 870.5,-216 876.5,-216 876.5,-216 911.5,-216 911.5,-216 917.5,-216 923.5,-222 923.5,-228 923.5,-228 923.5,-240 923.5,-240 923.5,-246 917.5,-252 911.5,-252"/>
<text text-anchor="middle" x="894" y="-230.3" font-family="Times,serif" font-size="14.00">path (7)</text>
</g>
<!-- v24 -->
<g id="node21" class="node"><title>v24</title>
<ellipse fill="none" stroke="black" cx="894" cy="-162" rx="27" ry="18"/>
<text text-anchor="middle" x="894" y="-158.3" font-family="Times,serif" font-size="14.00">24</text>
</g>
<!-- p1&#45;&gt;v24 -->
<g id="edge18" class="edge"><title>p1&#45;&gt;v24</title>
<path fill="none" stroke="black" d="M894,-215.697C894,-207.983 894,-198.712 894,-190.112"/>
<polygon fill="black" stroke="black" points="897.5,-190.104 894,-180.104 890.5,-190.104 897.5,-190.104"/>
</g>
<!-- v9 -->
<g id="node9" class="node"><title>v9</title>
<ellipse fill="none" stroke="black" cx="819" cy="-90" rx="27" ry="18"/>
<text text-anchor="middle" x="819" y="-86.3" font-family="Times,serif" font-size="14.00">9</text>
</g>
<!-- v10&#45;&gt;v2 -->
<g id="edge29" class="edge"><title>v10&#45;&gt;v2</title>
<path fill="none" stroke="black" d="M802.496,-146.496C792.735,-136.735 779.69,-123.69 768.7,-112.7"/>
<polygon fill="black" stroke="black" points="771.031,-110.082 761.485,-105.485 766.082,-115.031 771.031,-110.082"/>
</g>
<!-- v10&#45;&gt;v9 -->
<g id="edge15" class="edge"><title>v10&#45;&gt;v9</title>
<path fill="none" stroke="black" d="M817.494,-143.697C817.715,-135.983 817.98,-126.712 818.225,-118.112"/>
<polygon fill="black" stroke="black" points="821.724,-118.2 818.511,-108.104 814.727,-118 821.724,-118.2"/>
</g>
<!-- v14 -->
<g id="node12" class="node"><title>v14</title>
<ellipse fill="none" stroke="black" cx="893" cy="-90" rx="27" ry="18"/>
<text text-anchor="middle" x="893" y="-86.3" font-family="Times,serif" font-size="14.00">14</text>
</g>
<!-- v24&#45;&gt;v14 -->
<g id="edge8" class="edge"><title>v24&#45;&gt;v14</title>
<path fill="none" stroke="black" d="M893.753,-143.697C893.643,-135.983 893.51,-126.712 893.387,-118.112"/>
<polygon fill="black" stroke="black" points="896.887,-118.053 893.244,-108.104 889.888,-118.153 896.887,-118.053"/>
</g>
<!-- p2 -->
<g id="node24" class="node"><title>p2</title>
<path fill="none" stroke="black" d="M985.5,-108C985.5,-108 950.5,-108 950.5,-108 944.5,-108 938.5,-102 938.5,-96 938.5,-96 938.5,-84 938.5,-84 938.5,-78 944.5,-72 950.5,-72 950.5,-72 985.5,-72 985.5,-72 991.5,-72 997.5,-78 997.5,-84 997.5,-84 997.5,-96 997.5,-96 997.5,-102 991.5,-108 985.5,-108"/>
<text text-anchor="middle" x="968" y="-86.3" font-family="Times,serif" font-size="14.00">path (4)</text>
</g>
<!-- v24&#45;&gt;p2 -->
<g id="edge4" class="edge"><title>v24&#45;&gt;p2</title>
<path fill="none" stroke="black" d="M908.975,-146.834C918.583,-137.746 931.306,-125.71 942.479,-115.141"/>
<polygon fill="black" stroke="black" points="945.05,-117.527 949.909,-108.113 940.239,-112.442 945.05,-117.527"/>
</g>
<!-- v45 -->
<g id="node30" class="node"><title>v45</title>
<ellipse fill="none" stroke="black" cx="855" cy="-306" rx="27" ry="18"/>
<text text-anchor="middle" x="855" y="-302.3" font-family="Times,serif" font-size="14.00">45</text>
</g>
<!-- v45&#45;&gt;p0 -->
<g id="edge16" class="edge"><title>v45&#45;&gt;p0</title>
<path fill="none" stroke="black" d="M846.187,-288.765C841.714,-280.525 836.172,-270.317 831.123,-261.016"/>
<polygon fill="black" stroke="black" points="834.143,-259.243 826.296,-252.124 827.991,-262.582 834.143,-259.243"/>
</g>
<!-- v45&#45;&gt;p1 -->
<g id="edge28" class="edge"><title>v45&#45;&gt;p1</title>
<path fill="none" stroke="black" d="M864.045,-288.765C868.636,-280.525 874.324,-270.317 879.506,-261.016"/>
<polygon fill="black" stroke="black" points="882.65,-262.563 884.46,-252.124 876.535,-259.156 882.65,-262.563"/>
</g>
</g>
</svg>
