<?xml version="1.0" encoding="UTF-8" standalone="no"?>
<!DOCTYPE svg PUBLIC "-//W3C//DTD SVG 1.1//EN"
 "http://www.w3.org/Graphics/SVG/1.1/DTD/svg11.dtd">
<!-- Generated by graphviz version 2.38.0 (20140413.2041)
 -->
<!-- Title: %3 Pages: 1 -->
<svg width="376pt" height="548pt"
 viewBox="0.00 0.00 375.50 548.00" xmlns="http://www.w3.org/2000/svg" xmlns:xlink="http://www.w3.org/1999/xlink">
<g id="graph0" class="graph" transform="scale(1 1) rotate(0) translate(4 544)">
<title>%3</title>
<polygon fill="white" stroke="none" points="-4,4 -4,-544 371.5,-544 371.5,4 -4,4"/>
<!-- p0 -->
<g id="node1" class="node"><title>p0</title>
<path fill="none" stroke="black" d="M54,-324C54,-324 12,-324 12,-324 6,-324 0,-318 0,-312 0,-312 0,-300 0,-300 0,-294 6,-288 12,-288 12,-288 54,-288 54,-288 60,-288 66,-294 66,-300 66,-300 66,-312 66,-312 66,-318 60,-324 54,-324"/>
<text text-anchor="middle" x="33" y="-302.3" font-family="Times,serif" font-size="14.00">path (10)</text>
</g>
<!-- v1 -->
<g id="node2" class="node"><title>v1</title>
<ellipse fill="none" stroke="black" cx="225" cy="-18" rx="27" ry="18"/>
<text text-anchor="middle" x="225" y="-14.3" font-family="Times,serif" font-size="14.00">1</text>
</g>
<!-- v2 -->
<g id="node3" class="node"><title>v2</title>
<ellipse fill="none" stroke="black" cx="148" cy="-522" rx="27" ry="18"/>
<text text-anchor="middle" x="148" y="-518.3" font-family="Times,serif" font-size="14.00">2</text>
</g>
<!-- v14 -->
<g id="node13" class="node"><title>v14</title>
<ellipse fill="none" stroke="black" cx="111" cy="-450" rx="27" ry="18"/>
<text text-anchor="middle" x="111" y="-446.3" font-family="Times,serif" font-size="14.00">14</text>
</g>
<!-- v2&#45;&gt;v14 -->
<g id="edge16" class="edge"><title>v2&#45;&gt;v14</title>
<path fill="none" stroke="black" d="M139.418,-504.765C134.935,-496.283 129.349,-485.714 124.319,-476.197"/>
<polygon fill="black" stroke="black" points="127.302,-474.353 119.535,-467.147 121.114,-477.624 127.302,-474.353"/>
</g>
<!-- p9 -->
<g id="node22" class="node"><title>p9</title>
<path fill="none" stroke="black" d="M203.5,-468C203.5,-468 168.5,-468 168.5,-468 162.5,-468 156.5,-462 156.5,-456 156.5,-456 156.5,-444 156.5,-444 156.5,-438 162.5,-432 168.5,-432 168.5,-432 203.5,-432 203.5,-432 209.5,-432 215.5,-438 215.5,-444 215.5,-444 215.5,-456 215.5,-456 215.5,-462 209.5,-468 203.5,-468"/>
<text text-anchor="middle" x="186" y="-446.3" font-family="Times,serif" font-size="14.00">path (2)</text>
</g>
<!-- v2&#45;&gt;p9 -->
<g id="edge19" class="edge"><title>v2&#45;&gt;p9</title>
<path fill="none" stroke="black" d="M156.813,-504.765C161.286,-496.525 166.828,-486.317 171.877,-477.016"/>
<polygon fill="black" stroke="black" points="175.009,-478.582 176.704,-468.124 168.857,-475.243 175.009,-478.582"/>
</g>
<!-- v3 -->
<g id="node4" class="node"><title>v3</title>
<ellipse fill="none" stroke="black" cx="186" cy="-234" rx="27" ry="18"/>
<text text-anchor="middle" x="186" y="-230.3" font-family="Times,serif" font-size="14.00">3</text>
</g>
<!-- p2 -->
<g id="node6" class="node"><title>p2</title>
<path fill="none" stroke="black" d="M128.5,-180C128.5,-180 93.5,-180 93.5,-180 87.5,-180 81.5,-174 81.5,-168 81.5,-168 81.5,-156 81.5,-156 81.5,-150 87.5,-144 93.5,-144 93.5,-144 128.5,-144 128.5,-144 134.5,-144 140.5,-150 140.5,-156 140.5,-156 140.5,-168 140.5,-168 140.5,-174 134.5,-180 128.5,-180"/>
<text text-anchor="middle" x="111" y="-158.3" font-family="Times,serif" font-size="14.00">path (2)</text>
</g>
<!-- v3&#45;&gt;p2 -->
<g id="edge17" class="edge"><title>v3&#45;&gt;p2</title>
<path fill="none" stroke="black" d="M170.823,-218.834C161.085,-209.746 148.19,-197.71 136.866,-187.141"/>
<polygon fill="black" stroke="black" points="139.034,-184.377 129.335,-180.113 134.258,-189.495 139.034,-184.377"/>
</g>
<!-- v9 -->
<g id="node9" class="node"><title>v9</title>
<ellipse fill="none" stroke="black" cx="186" cy="-162" rx="27" ry="18"/>
<text text-anchor="middle" x="186" y="-158.3" font-family="Times,serif" font-size="14.00">9</text>
</g>
<!-- v3&#45;&gt;v9 -->
<g id="edge12" class="edge"><title>v3&#45;&gt;v9</title>
<path fill="none" stroke="black" d="M186,-215.697C186,-207.983 186,-198.712 186,-190.112"/>
<polygon fill="black" stroke="black" points="189.5,-190.104 186,-180.104 182.5,-190.104 189.5,-190.104"/>
</g>
<!-- p7 -->
<g id="node16" class="node"><title>p7</title>
<path fill="none" stroke="black" d="M278.5,-180C278.5,-180 243.5,-180 243.5,-180 237.5,-180 231.5,-174 231.5,-168 231.5,-168 231.5,-156 231.5,-156 231.5,-150 237.5,-144 243.5,-144 243.5,-144 278.5,-144 278.5,-144 284.5,-144 290.5,-150 290.5,-156 290.5,-156 290.5,-168 290.5,-168 290.5,-174 284.5,-180 278.5,-180"/>
<text text-anchor="middle" x="261" y="-158.3" font-family="Times,serif" font-size="14.00">path (8)</text>
</g>
<!-- v3&#45;&gt;p7 -->
<g id="edge2" class="edge"><title>v3&#45;&gt;p7</title>
<path fill="none" stroke="black" d="M201.177,-218.834C210.915,-209.746 223.81,-197.71 235.134,-187.141"/>
<polygon fill="black" stroke="black" points="237.742,-189.495 242.665,-180.113 232.966,-184.377 237.742,-189.495"/>
</g>
<!-- p1 -->
<g id="node5" class="node"><title>p1</title>
<path fill="none" stroke="black" d="M130.5,-108C130.5,-108 95.5,-108 95.5,-108 89.5,-108 83.5,-102 83.5,-96 83.5,-96 83.5,-84 83.5,-84 83.5,-78 89.5,-72 95.5,-72 95.5,-72 130.5,-72 130.5,-72 136.5,-72 142.5,-78 142.5,-84 142.5,-84 142.5,-96 142.5,-96 142.5,-102 136.5,-108 130.5,-108"/>
<text text-anchor="middle" x="113" y="-86.3" font-family="Times,serif" font-size="14.00">path (4)</text>
</g>
<!-- p3 -->
<g id="node7" class="node"><title>p3</title>
<path fill="none" stroke="black" d="M55.5,-252C55.5,-252 20.5,-252 20.5,-252 14.5,-252 8.5,-246 8.5,-240 8.5,-240 8.5,-228 8.5,-228 8.5,-222 14.5,-216 20.5,-216 20.5,-216 55.5,-216 55.5,-216 61.5,-216 67.5,-222 67.5,-228 67.5,-228 67.5,-240 67.5,-240 67.5,-246 61.5,-252 55.5,-252"/>
<text text-anchor="middle" x="38" y="-230.3" font-family="Times,serif" font-size="14.00">path (2)</text>
</g>
<!-- p4 -->
<g id="node8" class="node"><title>p4</title>
<path fill="none" stroke="black" d="M278.5,-252C278.5,-252 243.5,-252 243.5,-252 237.5,-252 231.5,-246 231.5,-240 231.5,-240 231.5,-228 231.5,-228 231.5,-222 237.5,-216 243.5,-216 243.5,-216 278.5,-216 278.5,-216 284.5,-216 290.5,-222 290.5,-228 290.5,-228 290.5,-240 290.5,-240 290.5,-246 284.5,-252 278.5,-252"/>
<text text-anchor="middle" x="261" y="-230.3" font-family="Times,serif" font-size="14.00">path (2)</text>
</g>
<!-- v9&#45;&gt;p1 -->
<g id="edge4" class="edge"><title>v9&#45;&gt;p1</title>
<path fill="none" stroke="black" d="M171.227,-146.834C161.749,-137.746 149.198,-125.71 138.176,-115.141"/>
<polygon fill="black" stroke="black" points="140.486,-112.508 130.846,-108.113 135.642,-117.56 140.486,-112.508"/>
</g>
<!-- v31 -->
<g id="node21" class="node"><title>v31</title>
<ellipse fill="none" stroke="black" cx="188" cy="-90" rx="27" ry="18"/>
<text text-anchor="middle" x="188" y="-86.3" font-family="Times,serif" font-size="14.00">31</text>
</g>
<!-- v9&#45;&gt;v31 -->
<g id="edge5" class="edge"><title>v9&#45;&gt;v31</title>
<path fill="none" stroke="black" d="M186.494,-143.697C186.715,-135.983 186.98,-126.712 187.225,-118.112"/>
<polygon fill="black" stroke="black" points="190.724,-118.2 187.511,-108.104 183.727,-118 190.724,-118.2"/>
</g>
<!-- v10 -->
<g id="node10" class="node"><title>v10</title>
<ellipse fill="none" stroke="black" cx="111" cy="-306" rx="27" ry="18"/>
<text text-anchor="middle" x="111" y="-302.3" font-family="Times,serif" font-size="14.00">10</text>
</g>
<!-- v10&#45;&gt;p3 -->
<g id="edge15" class="edge"><title>v10&#45;&gt;p3</title>
<path fill="none" stroke="black" d="M96.2274,-290.834C86.7493,-281.746 74.1981,-269.71 63.176,-259.141"/>
<polygon fill="black" stroke="black" points="65.4864,-256.508 55.8461,-252.113 60.6416,-261.56 65.4864,-256.508"/>
</g>
<!-- v27 -->
<g id="node20" class="node"><title>v27</title>
<ellipse fill="none" stroke="black" cx="113" cy="-234" rx="27" ry="18"/>
<text text-anchor="middle" x="113" y="-230.3" font-family="Times,serif" font-size="14.00">27</text>
</g>
<!-- v10&#45;&gt;v27 -->
<g id="edge6" class="edge"><title>v10&#45;&gt;v27</title>
<path fill="none" stroke="black" d="M111.494,-287.697C111.715,-279.983 111.98,-270.712 112.225,-262.112"/>
<polygon fill="black" stroke="black" points="115.724,-262.2 112.511,-252.104 108.727,-262 115.724,-262.2"/>
</g>
<!-- p5 -->
<g id="node11" class="node"><title>p5</title>
<path fill="none" stroke="black" d="M355.5,-252C355.5,-252 320.5,-252 320.5,-252 314.5,-252 308.5,-246 308.5,-240 308.5,-240 308.5,-228 308.5,-228 308.5,-222 314.5,-216 320.5,-216 320.5,-216 355.5,-216 355.5,-216 361.5,-216 367.5,-222 367.5,-228 367.5,-228 367.5,-240 367.5,-240 367.5,-246 361.5,-252 355.5,-252"/>
<text text-anchor="middle" x="338" y="-230.3" font-family="Times,serif" font-size="14.00">path (3)</text>
</g>
<!-- p6 -->
<g id="node12" class="node"><title>p6</title>
<path fill="none" stroke="black" d="M203.5,-324C203.5,-324 168.5,-324 168.5,-324 162.5,-324 156.5,-318 156.5,-312 156.5,-312 156.5,-300 156.5,-300 156.5,-294 162.5,-288 168.5,-288 168.5,-288 203.5,-288 203.5,-288 209.5,-288 215.5,-294 215.5,-300 215.5,-300 215.5,-312 215.5,-312 215.5,-318 209.5,-324 203.5,-324"/>
<text text-anchor="middle" x="186" y="-302.3" font-family="Times,serif" font-size="14.00">path (6)</text>
</g>
<!-- p6&#45;&gt;v3 -->
<g id="edge9" class="edge"><title>p6&#45;&gt;v3</title>
<path fill="none" stroke="black" d="M186,-287.697C186,-279.983 186,-270.712 186,-262.112"/>
<polygon fill="black" stroke="black" points="189.5,-262.104 186,-252.104 182.5,-262.104 189.5,-262.104"/>
</g>
<!-- v16 -->
<g id="node14" class="node"><title>v16</title>
<ellipse fill="none" stroke="black" cx="261" cy="-306" rx="27" ry="18"/>
<text text-anchor="middle" x="261" y="-302.3" font-family="Times,serif" font-size="14.00">16</text>
</g>
<!-- v16&#45;&gt;p4 -->
<g id="edge7" class="edge"><title>v16&#45;&gt;p4</title>
<path fill="none" stroke="black" d="M261,-287.697C261,-279.983 261,-270.712 261,-262.112"/>
<polygon fill="black" stroke="black" points="264.5,-262.104 261,-252.104 257.5,-262.104 264.5,-262.104"/>
</g>
<!-- v16&#45;&gt;p5 -->
<g id="edge14" class="edge"><title>v16&#45;&gt;p5</title>
<path fill="none" stroke="black" d="M276.582,-290.834C286.579,-281.746 299.818,-269.71 311.445,-259.141"/>
<polygon fill="black" stroke="black" points="314.131,-261.429 319.176,-252.113 309.422,-256.25 314.131,-261.429"/>
</g>
<!-- v17 -->
<g id="node15" class="node"><title>v17</title>
<ellipse fill="none" stroke="black" cx="261" cy="-90" rx="27" ry="18"/>
<text text-anchor="middle" x="261" y="-86.3" font-family="Times,serif" font-size="14.00">17</text>
</g>
<!-- v17&#45;&gt;v1 -->
<g id="edge11" class="edge"><title>v17&#45;&gt;v1</title>
<path fill="none" stroke="black" d="M252.65,-72.7646C248.288,-64.2831 242.853,-53.7144 237.959,-44.1974"/>
<polygon fill="black" stroke="black" points="240.99,-42.4395 233.304,-35.1473 234.765,-45.6409 240.99,-42.4395"/>
</g>
<!-- v22 -->
<g id="node17" class="node"><title>v22</title>
<ellipse fill="none" stroke="black" cx="297" cy="-18" rx="27" ry="18"/>
<text text-anchor="middle" x="297" y="-14.3" font-family="Times,serif" font-size="14.00">22</text>
</g>
<!-- v17&#45;&gt;v22 -->
<g id="edge13" class="edge"><title>v17&#45;&gt;v22</title>
<path fill="none" stroke="black" d="M269.35,-72.7646C273.712,-64.2831 279.147,-53.7144 284.041,-44.1974"/>
<polygon fill="black" stroke="black" points="287.235,-45.6409 288.696,-35.1473 281.01,-42.4395 287.235,-45.6409"/>
</g>
<!-- p7&#45;&gt;v17 -->
<g id="edge10" class="edge"><title>p7&#45;&gt;v17</title>
<path fill="none" stroke="black" d="M261,-143.697C261,-135.983 261,-126.712 261,-118.112"/>
<polygon fill="black" stroke="black" points="264.5,-118.104 261,-108.104 257.5,-118.104 264.5,-118.104"/>
</g>
<!-- p8 -->
<g id="node18" class="node"><title>p8</title>
<path fill="none" stroke="black" d="M353.5,-324C353.5,-324 318.5,-324 318.5,-324 312.5,-324 306.5,-318 306.5,-312 306.5,-312 306.5,-300 306.5,-300 306.5,-294 312.5,-288 318.5,-288 318.5,-288 353.5,-288 353.5,-288 359.5,-288 365.5,-294 365.5,-300 365.5,-300 365.5,-312 365.5,-312 365.5,-318 359.5,-324 353.5,-324"/>
<text text-anchor="middle" x="336" y="-302.3" font-family="Times,serif" font-size="14.00">path (2)</text>
</g>
<!-- v25 -->
<g id="node19" class="node"><title>v25</title>
<ellipse fill="none" stroke="black" cx="186" cy="-378" rx="27" ry="18"/>
<text text-anchor="middle" x="186" y="-374.3" font-family="Times,serif" font-size="14.00">25</text>
</g>
<!-- v25&#45;&gt;p0 -->
<g id="edge3" class="edge"><title>v25&#45;&gt;p0</title>
<path fill="none" stroke="black" d="M164.403,-367.119C141.387,-356.589 104.358,-339.647 75.4643,-326.428"/>
<polygon fill="black" stroke="black" points="76.5593,-323.08 66.0096,-322.102 73.6469,-329.446 76.5593,-323.08"/>
</g>
<!-- v25&#45;&gt;v10 -->
<g id="edge18" class="edge"><title>v25&#45;&gt;v10</title>
<path fill="none" stroke="black" d="M170.823,-362.834C160.149,-352.872 145.681,-339.369 133.647,-328.137"/>
<polygon fill="black" stroke="black" points="135.854,-325.409 126.155,-321.144 131.077,-330.526 135.854,-325.409"/>
</g>
<!-- v25&#45;&gt;p6 -->
<g id="edge20" class="edge"><title>v25&#45;&gt;p6</title>
<path fill="none" stroke="black" d="M186,-359.697C186,-351.983 186,-342.712 186,-334.112"/>
<polygon fill="black" stroke="black" points="189.5,-334.104 186,-324.104 182.5,-334.104 189.5,-334.104"/>
</g>
<!-- v25&#45;&gt;v16 -->
<g id="edge1" class="edge"><title>v25&#45;&gt;v16</title>
<path fill="none" stroke="black" d="M201.177,-362.834C211.851,-352.872 226.319,-339.369 238.353,-328.137"/>
<polygon fill="black" stroke="black" points="240.923,-330.526 245.845,-321.144 236.146,-325.409 240.923,-330.526"/>
</g>
<!-- v25&#45;&gt;p8 -->
<g id="edge21" class="edge"><title>v25&#45;&gt;p8</title>
<path fill="none" stroke="black" d="M207.491,-366.971C230.781,-356.102 268.435,-338.53 296.979,-325.21"/>
<polygon fill="black" stroke="black" points="298.693,-328.272 306.275,-320.872 295.733,-321.929 298.693,-328.272"/>
</g>
<!-- p9&#45;&gt;v25 -->
<g id="edge8" class="edge"><title>p9&#45;&gt;v25</title>
<path fill="none" stroke="black" d="M186,-431.697C186,-423.983 186,-414.712 186,-406.112"/>
<polygon fill="black" stroke="black" points="189.5,-406.104 186,-396.104 182.5,-406.104 189.5,-406.104"/>
</g>
</g>
</svg>
