<?xml version="1.0" encoding="UTF-8" standalone="no"?>
<!DOCTYPE svg PUBLIC "-//W3C//DTD SVG 1.1//EN"
 "http://www.w3.org/Graphics/SVG/1.1/DTD/svg11.dtd">
<!-- Generated by graphviz version 2.38.0 (20140413.2041)
 -->
<!-- Title: %3 Pages: 1 -->
<svg width="987pt" height="404pt"
 viewBox="0.00 0.00 986.50 404.00" xmlns="http://www.w3.org/2000/svg" xmlns:xlink="http://www.w3.org/1999/xlink">
<g id="graph0" class="graph" transform="scale(1 1) rotate(0) translate(4 400)">
<title>%3</title>
<polygon fill="white" stroke="none" points="-4,4 -4,-400 982.5,-400 982.5,4 -4,4"/>
<!-- v0 -->
<g id="node1" class="node"><title>v0</title>
<ellipse fill="none" stroke="black" cx="665" cy="-378" rx="27" ry="18"/>
<text text-anchor="middle" x="665" y="-374.3" font-family="Times,serif" font-size="14.00">0</text>
</g>
<!-- v1 -->
<g id="node2" class="node"><title>v1</title>
<ellipse fill="none" stroke="black" cx="326" cy="-306" rx="27" ry="18"/>
<text text-anchor="middle" x="326" y="-302.3" font-family="Times,serif" font-size="14.00">1</text>
</g>
<!-- v0&#45;&gt;v1 -->
<g id="edge30" class="edge"><title>v0&#45;&gt;v1</title>
<path fill="none" stroke="black" d="M638.083,-374.731C584.474,-369.684 461.007,-355.406 362,-324 360.073,-323.389 358.116,-322.695 356.162,-321.946"/>
<polygon fill="black" stroke="black" points="357.129,-318.554 346.557,-317.863 354.391,-324.996 357.129,-318.554"/>
</g>
<!-- p3 -->
<g id="node12" class="node"><title>p3</title>
<path fill="none" stroke="black" d="M418.5,-324C418.5,-324 383.5,-324 383.5,-324 377.5,-324 371.5,-318 371.5,-312 371.5,-312 371.5,-300 371.5,-300 371.5,-294 377.5,-288 383.5,-288 383.5,-288 418.5,-288 418.5,-288 424.5,-288 430.5,-294 430.5,-300 430.5,-300 430.5,-312 430.5,-312 430.5,-318 424.5,-324 418.5,-324"/>
<text text-anchor="middle" x="401" y="-302.3" font-family="Times,serif" font-size="14.00">path (3)</text>
</g>
<!-- v0&#45;&gt;p3 -->
<g id="edge11" class="edge"><title>v0&#45;&gt;p3</title>
<path fill="none" stroke="black" d="M639.278,-372.503C597.044,-364.773 510.637,-347.503 440,-324 439.904,-323.968 439.807,-323.936 439.711,-323.903"/>
<polygon fill="black" stroke="black" points="441.189,-320.718 430.595,-320.555 438.775,-327.289 441.189,-320.718"/>
</g>
<!-- v18 -->
<g id="node13" class="node"><title>v18</title>
<ellipse fill="none" stroke="black" cx="476" cy="-306" rx="27" ry="18"/>
<text text-anchor="middle" x="476" y="-302.3" font-family="Times,serif" font-size="14.00">18</text>
</g>
<!-- v0&#45;&gt;v18 -->
<g id="edge25" class="edge"><title>v0&#45;&gt;v18</title>
<path fill="none" stroke="black" d="M640.852,-369.525C610.447,-359.91 556.769,-342.263 512,-324 510.176,-323.256 508.312,-322.467 506.439,-321.652"/>
<polygon fill="black" stroke="black" points="507.705,-318.383 497.151,-317.452 504.821,-324.761 507.705,-318.383"/>
</g>
<!-- p7 -->
<g id="node22" class="node"><title>p7</title>
<path fill="none" stroke="black" d="M568.5,-324C568.5,-324 533.5,-324 533.5,-324 527.5,-324 521.5,-318 521.5,-312 521.5,-312 521.5,-300 521.5,-300 521.5,-294 527.5,-288 533.5,-288 533.5,-288 568.5,-288 568.5,-288 574.5,-288 580.5,-294 580.5,-300 580.5,-300 580.5,-312 580.5,-312 580.5,-318 574.5,-324 568.5,-324"/>
<text text-anchor="middle" x="551" y="-302.3" font-family="Times,serif" font-size="14.00">path (3)</text>
</g>
<!-- v0&#45;&gt;p7 -->
<g id="edge29" class="edge"><title>v0&#45;&gt;p7</title>
<path fill="none" stroke="black" d="M645.661,-365.125C629.796,-355.384 606.885,-341.315 587.577,-329.459"/>
<polygon fill="black" stroke="black" points="589.35,-326.441 578.997,-324.191 585.687,-332.406 589.35,-326.441"/>
</g>
<!-- p8 -->
<g id="node23" class="node"><title>p8</title>
<path fill="none" stroke="black" d="M645.5,-324C645.5,-324 610.5,-324 610.5,-324 604.5,-324 598.5,-318 598.5,-312 598.5,-312 598.5,-300 598.5,-300 598.5,-294 604.5,-288 610.5,-288 610.5,-288 645.5,-288 645.5,-288 651.5,-288 657.5,-294 657.5,-300 657.5,-300 657.5,-312 657.5,-312 657.5,-318 651.5,-324 645.5,-324"/>
<text text-anchor="middle" x="628" y="-302.3" font-family="Times,serif" font-size="14.00">path (2)</text>
</g>
<!-- v0&#45;&gt;p8 -->
<g id="edge16" class="edge"><title>v0&#45;&gt;p8</title>
<path fill="none" stroke="black" d="M656.418,-360.765C652.063,-352.525 646.667,-342.317 641.751,-333.016"/>
<polygon fill="black" stroke="black" points="644.819,-331.329 637.051,-324.124 638.63,-334.6 644.819,-331.329"/>
</g>
<!-- v36 -->
<g id="node25" class="node"><title>v36</title>
<ellipse fill="none" stroke="black" cx="703" cy="-306" rx="27" ry="18"/>
<text text-anchor="middle" x="703" y="-302.3" font-family="Times,serif" font-size="14.00">36</text>
</g>
<!-- v0&#45;&gt;v36 -->
<g id="edge5" class="edge"><title>v0&#45;&gt;v36</title>
<path fill="none" stroke="black" d="M673.813,-360.765C678.418,-352.283 684.155,-341.714 689.321,-332.197"/>
<polygon fill="black" stroke="black" points="692.539,-333.606 694.234,-323.147 686.387,-330.266 692.539,-333.606"/>
</g>
<!-- v45 -->
<g id="node30" class="node"><title>v45</title>
<ellipse fill="none" stroke="black" cx="775" cy="-306" rx="27" ry="18"/>
<text text-anchor="middle" x="775" y="-302.3" font-family="Times,serif" font-size="14.00">45</text>
</g>
<!-- v0&#45;&gt;v45 -->
<g id="edge24" class="edge"><title>v0&#45;&gt;v45</title>
<path fill="none" stroke="black" d="M684.161,-364.807C701.669,-353.665 727.759,-337.062 747.493,-324.504"/>
<polygon fill="black" stroke="black" points="749.501,-327.375 756.059,-319.053 745.743,-321.469 749.501,-327.375"/>
</g>
<!-- v51 -->
<g id="node32" class="node"><title>v51</title>
<ellipse fill="none" stroke="black" cx="847" cy="-306" rx="27" ry="18"/>
<text text-anchor="middle" x="847" y="-302.3" font-family="Times,serif" font-size="14.00">51</text>
</g>
<!-- v0&#45;&gt;v51 -->
<g id="edge23" class="edge"><title>v0&#45;&gt;v51</title>
<path fill="none" stroke="black" d="M688.776,-369.129C717.888,-359.319 768.559,-341.679 811,-324 812.818,-323.243 814.678,-322.443 816.547,-321.62"/>
<polygon fill="black" stroke="black" points="818.174,-324.726 825.827,-317.399 815.275,-318.354 818.174,-324.726"/>
</g>
<!-- v56 -->
<g id="node34" class="node"><title>v56</title>
<ellipse fill="none" stroke="black" cx="919" cy="-306" rx="27" ry="18"/>
<text text-anchor="middle" x="919" y="-302.3" font-family="Times,serif" font-size="14.00">56</text>
</g>
<!-- v0&#45;&gt;v56 -->
<g id="edge3" class="edge"><title>v0&#45;&gt;v56</title>
<path fill="none" stroke="black" d="M690.998,-372.45C732.373,-364.817 815.431,-347.889 883,-324 884.906,-323.326 886.847,-322.584 888.789,-321.799"/>
<polygon fill="black" stroke="black" points="890.597,-324.829 898.362,-317.621 887.797,-318.413 890.597,-324.829"/>
</g>
<!-- v2 -->
<g id="node3" class="node"><title>v2</title>
<ellipse fill="none" stroke="black" cx="27" cy="-234" rx="27" ry="18"/>
<text text-anchor="middle" x="27" y="-230.3" font-family="Times,serif" font-size="14.00">2</text>
</g>
<!-- v1&#45;&gt;v2 -->
<g id="edge8" class="edge"><title>v1&#45;&gt;v2</title>
<path fill="none" stroke="black" d="M299.7,-301.849C251.735,-295.632 147.226,-279.913 63,-252 61.0809,-251.364 59.1304,-250.651 57.1807,-249.888"/>
<polygon fill="black" stroke="black" points="58.1577,-246.498 47.5881,-245.767 55.3948,-252.93 58.1577,-246.498"/>
</g>
<!-- v4 -->
<g id="node5" class="node"><title>v4</title>
<ellipse fill="none" stroke="black" cx="99" cy="-234" rx="27" ry="18"/>
<text text-anchor="middle" x="99" y="-230.3" font-family="Times,serif" font-size="14.00">4</text>
</g>
<!-- v1&#45;&gt;v4 -->
<g id="edge26" class="edge"><title>v1&#45;&gt;v4</title>
<path fill="none" stroke="black" d="M300.537,-299.397C263.507,-290.921 192.899,-273.525 135,-252 133.154,-251.314 131.272,-250.569 129.386,-249.789"/>
<polygon fill="black" stroke="black" points="130.625,-246.51 120.063,-245.68 127.802,-252.915 130.625,-246.51"/>
</g>
<!-- p0 -->
<g id="node6" class="node"><title>p0</title>
<path fill="none" stroke="black" d="M191.5,-252C191.5,-252 156.5,-252 156.5,-252 150.5,-252 144.5,-246 144.5,-240 144.5,-240 144.5,-228 144.5,-228 144.5,-222 150.5,-216 156.5,-216 156.5,-216 191.5,-216 191.5,-216 197.5,-216 203.5,-222 203.5,-228 203.5,-228 203.5,-240 203.5,-240 203.5,-246 197.5,-252 191.5,-252"/>
<text text-anchor="middle" x="174" y="-230.3" font-family="Times,serif" font-size="14.00">path (8)</text>
</g>
<!-- v1&#45;&gt;p0 -->
<g id="edge28" class="edge"><title>v1&#45;&gt;p0</title>
<path fill="none" stroke="black" d="M304.222,-294.971C280.474,-284.034 241.988,-266.31 213.001,-252.961"/>
<polygon fill="black" stroke="black" points="214.116,-249.621 203.569,-248.617 211.188,-255.98 214.116,-249.621"/>
</g>
<!-- p1 -->
<g id="node7" class="node"><title>p1</title>
<path fill="none" stroke="black" d="M268.5,-252C268.5,-252 233.5,-252 233.5,-252 227.5,-252 221.5,-246 221.5,-240 221.5,-240 221.5,-228 221.5,-228 221.5,-222 227.5,-216 233.5,-216 233.5,-216 268.5,-216 268.5,-216 274.5,-216 280.5,-222 280.5,-228 280.5,-228 280.5,-240 280.5,-240 280.5,-246 274.5,-252 268.5,-252"/>
<text text-anchor="middle" x="251" y="-230.3" font-family="Times,serif" font-size="14.00">path (4)</text>
</g>
<!-- v1&#45;&gt;p1 -->
<g id="edge22" class="edge"><title>v1&#45;&gt;p1</title>
<path fill="none" stroke="black" d="M310.823,-290.834C301.085,-281.746 288.19,-269.71 276.866,-259.141"/>
<polygon fill="black" stroke="black" points="279.034,-256.377 269.335,-252.113 274.258,-261.495 279.034,-256.377"/>
</g>
<!-- v7 -->
<g id="node8" class="node"><title>v7</title>
<ellipse fill="none" stroke="black" cx="326" cy="-234" rx="27" ry="18"/>
<text text-anchor="middle" x="326" y="-230.3" font-family="Times,serif" font-size="14.00">7</text>
</g>
<!-- v1&#45;&gt;v7 -->
<g id="edge33" class="edge"><title>v1&#45;&gt;v7</title>
<path fill="none" stroke="black" d="M326,-287.697C326,-279.983 326,-270.712 326,-262.112"/>
<polygon fill="black" stroke="black" points="329.5,-262.104 326,-252.104 322.5,-262.104 329.5,-262.104"/>
</g>
<!-- p2 -->
<g id="node11" class="node"><title>p2</title>
<path fill="none" stroke="black" d="M418.5,-252C418.5,-252 383.5,-252 383.5,-252 377.5,-252 371.5,-246 371.5,-240 371.5,-240 371.5,-228 371.5,-228 371.5,-222 377.5,-216 383.5,-216 383.5,-216 418.5,-216 418.5,-216 424.5,-216 430.5,-222 430.5,-228 430.5,-228 430.5,-240 430.5,-240 430.5,-246 424.5,-252 418.5,-252"/>
<text text-anchor="middle" x="401" y="-230.3" font-family="Times,serif" font-size="14.00">path (2)</text>
</g>
<!-- v1&#45;&gt;p2 -->
<g id="edge14" class="edge"><title>v1&#45;&gt;p2</title>
<path fill="none" stroke="black" d="M341.177,-290.834C350.915,-281.746 363.81,-269.71 375.134,-259.141"/>
<polygon fill="black" stroke="black" points="377.742,-261.495 382.665,-252.113 372.966,-256.377 377.742,-261.495"/>
</g>
<!-- v20 -->
<g id="node15" class="node"><title>v20</title>
<ellipse fill="none" stroke="black" cx="476" cy="-234" rx="27" ry="18"/>
<text text-anchor="middle" x="476" y="-230.3" font-family="Times,serif" font-size="14.00">20</text>
</g>
<!-- v1&#45;&gt;v20 -->
<g id="edge7" class="edge"><title>v1&#45;&gt;v20</title>
<path fill="none" stroke="black" d="M347.31,-294.911C352.138,-292.633 357.243,-290.229 362,-288 390.015,-274.873 421.958,-260.034 444.889,-249.403"/>
<polygon fill="black" stroke="black" points="446.526,-252.502 454.127,-245.122 443.583,-246.151 446.526,-252.502"/>
</g>
<!-- p5 -->
<g id="node19" class="node"><title>p5</title>
<path fill="none" stroke="black" d="M568.5,-252C568.5,-252 533.5,-252 533.5,-252 527.5,-252 521.5,-246 521.5,-240 521.5,-240 521.5,-228 521.5,-228 521.5,-222 527.5,-216 533.5,-216 533.5,-216 568.5,-216 568.5,-216 574.5,-216 580.5,-222 580.5,-228 580.5,-228 580.5,-240 580.5,-240 580.5,-246 574.5,-252 568.5,-252"/>
<text text-anchor="middle" x="551" y="-230.3" font-family="Times,serif" font-size="14.00">path (5)</text>
</g>
<!-- v1&#45;&gt;p5 -->
<g id="edge21" class="edge"><title>v1&#45;&gt;p5</title>
<path fill="none" stroke="black" d="M346.634,-294.368C351.586,-292.067 356.914,-289.79 362,-288 426.672,-265.242 446.992,-273.782 512,-252 512.096,-251.968 512.193,-251.935 512.289,-251.903"/>
<polygon fill="black" stroke="black" points="513.229,-255.287 521.4,-248.542 510.807,-248.719 513.229,-255.287"/>
</g>
<!-- v35 -->
<g id="node24" class="node"><title>v35</title>
<ellipse fill="none" stroke="black" cx="626" cy="-234" rx="27" ry="18"/>
<text text-anchor="middle" x="626" y="-230.3" font-family="Times,serif" font-size="14.00">35</text>
</g>
<!-- v1&#45;&gt;v35 -->
<g id="edge31" class="edge"><title>v1&#45;&gt;v35</title>
<path fill="none" stroke="black" d="M346.539,-294.078C351.494,-291.788 356.848,-289.589 362,-288 459.611,-257.888 491.233,-281.6 589,-252 591.283,-251.309 593.608,-250.504 595.923,-249.628"/>
<polygon fill="black" stroke="black" points="597.376,-252.815 605.257,-245.733 594.68,-246.354 597.376,-252.815"/>
</g>
<!-- p12 -->
<g id="node33" class="node"><title>p12</title>
<path fill="none" stroke="black" d="M718.5,-252C718.5,-252 683.5,-252 683.5,-252 677.5,-252 671.5,-246 671.5,-240 671.5,-240 671.5,-228 671.5,-228 671.5,-222 677.5,-216 683.5,-216 683.5,-216 718.5,-216 718.5,-216 724.5,-216 730.5,-222 730.5,-228 730.5,-228 730.5,-240 730.5,-240 730.5,-246 724.5,-252 718.5,-252"/>
<text text-anchor="middle" x="701" y="-230.3" font-family="Times,serif" font-size="14.00">path (2)</text>
</g>
<!-- v1&#45;&gt;p12 -->
<g id="edge10" class="edge"><title>v1&#45;&gt;p12</title>
<path fill="none" stroke="black" d="M346.496,-293.936C351.453,-291.652 356.819,-289.491 362,-288 487.898,-251.756 530.335,-285.472 661.095,-251.734"/>
<polygon fill="black" stroke="black" points="662.32,-255.03 671.081,-249.073 660.517,-248.266 662.32,-255.03"/>
</g>
<!-- v3 -->
<g id="node4" class="node"><title>v3</title>
<ellipse fill="none" stroke="black" cx="653" cy="-90" rx="27" ry="18"/>
<text text-anchor="middle" x="653" y="-86.3" font-family="Times,serif" font-size="14.00">3</text>
</g>
<!-- v19 -->
<g id="node14" class="node"><title>v19</title>
<ellipse fill="none" stroke="black" cx="140" cy="-162" rx="27" ry="18"/>
<text text-anchor="middle" x="140" y="-158.3" font-family="Times,serif" font-size="14.00">19</text>
</g>
<!-- v7&#45;&gt;v19 -->
<g id="edge12" class="edge"><title>v7&#45;&gt;v19</title>
<path fill="none" stroke="black" d="M304.669,-222.661C299.585,-220.348 294.142,-217.992 289,-216 239.849,-196.961 225.05,-199.296 176,-180 174.167,-179.279 172.296,-178.508 170.418,-177.706"/>
<polygon fill="black" stroke="black" points="171.673,-174.433 161.115,-173.543 168.813,-180.823 171.673,-174.433"/>
</g>
<!-- v21 -->
<g id="node16" class="node"><title>v21</title>
<ellipse fill="none" stroke="black" cx="797" cy="-162" rx="27" ry="18"/>
<text text-anchor="middle" x="797" y="-158.3" font-family="Times,serif" font-size="14.00">21</text>
</g>
<!-- v7&#45;&gt;v21 -->
<g id="edge2" class="edge"><title>v7&#45;&gt;v21</title>
<path fill="none" stroke="black" d="M346.498,-221.943C351.455,-219.659 356.821,-217.496 362,-216 436.701,-194.421 669.442,-173.512 760.219,-165.961"/>
<polygon fill="black" stroke="black" points="760.637,-169.438 770.315,-165.128 760.061,-162.462 760.637,-169.438"/>
</g>
<!-- p4 -->
<g id="node17" class="node"><title>p4</title>
<path fill="none" stroke="black" d="M232.5,-180C232.5,-180 197.5,-180 197.5,-180 191.5,-180 185.5,-174 185.5,-168 185.5,-168 185.5,-156 185.5,-156 185.5,-150 191.5,-144 197.5,-144 197.5,-144 232.5,-144 232.5,-144 238.5,-144 244.5,-150 244.5,-156 244.5,-156 244.5,-168 244.5,-168 244.5,-174 238.5,-180 232.5,-180"/>
<text text-anchor="middle" x="215" y="-158.3" font-family="Times,serif" font-size="14.00">path (2)</text>
</g>
<!-- v7&#45;&gt;p4 -->
<g id="edge6" class="edge"><title>v7&#45;&gt;p4</title>
<path fill="none" stroke="black" d="M306.918,-220.967C291.507,-211.248 269.389,-197.299 250.711,-185.52"/>
<polygon fill="black" stroke="black" points="252.461,-182.486 242.136,-180.113 248.727,-188.407 252.461,-182.486"/>
</g>
<!-- v27 -->
<g id="node21" class="node"><title>v27</title>
<ellipse fill="none" stroke="black" cx="290" cy="-162" rx="27" ry="18"/>
<text text-anchor="middle" x="290" y="-158.3" font-family="Times,serif" font-size="14.00">27</text>
</g>
<!-- v7&#45;&gt;v27 -->
<g id="edge15" class="edge"><title>v7&#45;&gt;v27</title>
<path fill="none" stroke="black" d="M317.65,-216.765C313.288,-208.283 307.853,-197.714 302.959,-188.197"/>
<polygon fill="black" stroke="black" points="305.99,-186.439 298.304,-179.147 299.765,-189.641 305.99,-186.439"/>
</g>
<!-- v37 -->
<g id="node26" class="node"><title>v37</title>
<ellipse fill="none" stroke="black" cx="362" cy="-162" rx="27" ry="18"/>
<text text-anchor="middle" x="362" y="-158.3" font-family="Times,serif" font-size="14.00">37</text>
</g>
<!-- v7&#45;&gt;v37 -->
<g id="edge13" class="edge"><title>v7&#45;&gt;v37</title>
<path fill="none" stroke="black" d="M334.35,-216.765C338.712,-208.283 344.147,-197.714 349.041,-188.197"/>
<polygon fill="black" stroke="black" points="352.235,-189.641 353.696,-179.147 346.01,-186.439 352.235,-189.641"/>
</g>
<!-- p10 -->
<g id="node28" class="node"><title>p10</title>
<path fill="none" stroke="black" d="M454.5,-180C454.5,-180 419.5,-180 419.5,-180 413.5,-180 407.5,-174 407.5,-168 407.5,-168 407.5,-156 407.5,-156 407.5,-150 413.5,-144 419.5,-144 419.5,-144 454.5,-144 454.5,-144 460.5,-144 466.5,-150 466.5,-156 466.5,-156 466.5,-168 466.5,-168 466.5,-174 460.5,-180 454.5,-180"/>
<text text-anchor="middle" x="437" y="-158.3" font-family="Times,serif" font-size="14.00">path (2)</text>
</g>
<!-- v7&#45;&gt;p10 -->
<g id="edge4" class="edge"><title>v7&#45;&gt;p10</title>
<path fill="none" stroke="black" d="M345.082,-220.967C360.493,-211.248 382.611,-197.299 401.289,-185.52"/>
<polygon fill="black" stroke="black" points="403.273,-188.407 409.864,-180.113 399.539,-182.486 403.273,-188.407"/>
</g>
<!-- v43 -->
<g id="node29" class="node"><title>v43</title>
<ellipse fill="none" stroke="black" cx="512" cy="-162" rx="27" ry="18"/>
<text text-anchor="middle" x="512" y="-158.3" font-family="Times,serif" font-size="14.00">43</text>
</g>
<!-- v7&#45;&gt;v43 -->
<g id="edge34" class="edge"><title>v7&#45;&gt;v43</title>
<path fill="none" stroke="black" d="M347.115,-222.457C351.953,-220.203 357.112,-217.923 362,-216 411.05,-196.704 425.849,-199.039 475,-180 477.089,-179.191 479.227,-178.322 481.371,-177.419"/>
<polygon fill="black" stroke="black" points="482.919,-180.563 490.669,-173.339 480.105,-174.153 482.919,-180.563"/>
</g>
<!-- v14 -->
<g id="node9" class="node"><title>v14</title>
<ellipse fill="none" stroke="black" cx="725" cy="-90" rx="27" ry="18"/>
<text text-anchor="middle" x="725" y="-86.3" font-family="Times,serif" font-size="14.00">14</text>
</g>
<!-- v15 -->
<g id="node10" class="node"><title>v15</title>
<ellipse fill="none" stroke="black" cx="688" cy="-18" rx="27" ry="18"/>
<text text-anchor="middle" x="688" y="-14.3" font-family="Times,serif" font-size="14.00">15</text>
</g>
<!-- v14&#45;&gt;v15 -->
<g id="edge27" class="edge"><title>v14&#45;&gt;v15</title>
<path fill="none" stroke="black" d="M716.418,-72.7646C711.935,-64.2831 706.349,-53.7144 701.319,-44.1974"/>
<polygon fill="black" stroke="black" points="704.302,-42.3527 696.535,-35.1473 698.114,-45.6239 704.302,-42.3527"/>
</g>
<!-- p9 -->
<g id="node27" class="node"><title>p9</title>
<path fill="none" stroke="black" d="M780.5,-36C780.5,-36 745.5,-36 745.5,-36 739.5,-36 733.5,-30 733.5,-24 733.5,-24 733.5,-12 733.5,-12 733.5,-6 739.5,-0 745.5,-0 745.5,-0 780.5,-0 780.5,-0 786.5,-0 792.5,-6 792.5,-12 792.5,-12 792.5,-24 792.5,-24 792.5,-30 786.5,-36 780.5,-36"/>
<text text-anchor="middle" x="763" y="-14.3" font-family="Times,serif" font-size="14.00">path (2)</text>
</g>
<!-- v14&#45;&gt;p9 -->
<g id="edge20" class="edge"><title>v14&#45;&gt;p9</title>
<path fill="none" stroke="black" d="M733.813,-72.7646C738.286,-64.5255 743.828,-54.3166 748.877,-45.0157"/>
<polygon fill="black" stroke="black" points="752.009,-46.5823 753.704,-36.1239 745.857,-43.2426 752.009,-46.5823"/>
</g>
<!-- v21&#45;&gt;v0 -->
<g id="edge9" class="edge"><title>v21&#45;&gt;v0</title>
<path fill="none" stroke="black" d="M819.435,-172.282C874.167,-196.191 1006.41,-262.339 955,-324 923.201,-362.138 772.999,-372.91 702.153,-375.891"/>
<polygon fill="black" stroke="black" points="701.753,-372.404 691.897,-376.291 702.026,-379.399 701.753,-372.404"/>
</g>
<!-- v21&#45;&gt;v3 -->
<g id="edge32" class="edge"><title>v21&#45;&gt;v3</title>
<path fill="none" stroke="black" d="M775.752,-150.671C751.398,-138.832 711.281,-119.331 683.572,-105.862"/>
<polygon fill="black" stroke="black" points="684.859,-102.595 674.335,-101.371 681.798,-108.891 684.859,-102.595"/>
</g>
<!-- v21&#45;&gt;v14 -->
<g id="edge1" class="edge"><title>v21&#45;&gt;v14</title>
<path fill="none" stroke="black" d="M782.43,-146.834C772.25,-136.938 758.476,-123.546 746.969,-112.359"/>
<polygon fill="black" stroke="black" points="749.405,-109.846 739.796,-105.385 744.526,-114.865 749.405,-109.846"/>
</g>
<!-- v23 -->
<g id="node18" class="node"><title>v23</title>
<ellipse fill="none" stroke="black" cx="797" cy="-90" rx="27" ry="18"/>
<text text-anchor="middle" x="797" y="-86.3" font-family="Times,serif" font-size="14.00">23</text>
</g>
<!-- v21&#45;&gt;v23 -->
<g id="edge18" class="edge"><title>v21&#45;&gt;v23</title>
<path fill="none" stroke="black" d="M797,-143.697C797,-135.983 797,-126.712 797,-118.112"/>
<polygon fill="black" stroke="black" points="800.5,-118.104 797,-108.104 793.5,-118.104 800.5,-118.104"/>
</g>
<!-- p6 -->
<g id="node20" class="node"><title>p6</title>
<path fill="none" stroke="black" d="M889.5,-108C889.5,-108 854.5,-108 854.5,-108 848.5,-108 842.5,-102 842.5,-96 842.5,-96 842.5,-84 842.5,-84 842.5,-78 848.5,-72 854.5,-72 854.5,-72 889.5,-72 889.5,-72 895.5,-72 901.5,-78 901.5,-84 901.5,-84 901.5,-96 901.5,-96 901.5,-102 895.5,-108 889.5,-108"/>
<text text-anchor="middle" x="872" y="-86.3" font-family="Times,serif" font-size="14.00">path (2)</text>
</g>
<!-- v21&#45;&gt;p6 -->
<g id="edge19" class="edge"><title>v21&#45;&gt;p6</title>
<path fill="none" stroke="black" d="M812.177,-146.834C821.915,-137.746 834.81,-125.71 846.134,-115.141"/>
<polygon fill="black" stroke="black" points="848.742,-117.495 853.665,-108.113 843.966,-112.377 848.742,-117.495"/>
</g>
<!-- p11 -->
<g id="node31" class="node"><title>p11</title>
<path fill="none" stroke="black" d="M966.5,-108C966.5,-108 931.5,-108 931.5,-108 925.5,-108 919.5,-102 919.5,-96 919.5,-96 919.5,-84 919.5,-84 919.5,-78 925.5,-72 931.5,-72 931.5,-72 966.5,-72 966.5,-72 972.5,-72 978.5,-78 978.5,-84 978.5,-84 978.5,-96 978.5,-96 978.5,-102 972.5,-108 966.5,-108"/>
<text text-anchor="middle" x="949" y="-86.3" font-family="Times,serif" font-size="14.00">path (2)</text>
</g>
<!-- v21&#45;&gt;p11 -->
<g id="edge17" class="edge"><title>v21&#45;&gt;p11</title>
<path fill="none" stroke="black" d="M818.778,-150.971C842.526,-140.034 881.012,-122.31 909.999,-108.961"/>
<polygon fill="black" stroke="black" points="911.812,-111.98 919.431,-104.617 908.884,-105.621 911.812,-111.98"/>
</g>
</g>
</svg>
