<?xml version="1.0" encoding="UTF-8" standalone="no"?>
<!DOCTYPE svg PUBLIC "-//W3C//DTD SVG 1.1//EN"
 "http://www.w3.org/Graphics/SVG/1.1/DTD/svg11.dtd">
<!-- Generated by graphviz version 2.38.0 (20140413.2041)
 -->
<!-- Title: %3 Pages: 1 -->
<svg width="877pt" height="476pt"
 viewBox="0.00 0.00 877.00 476.00" xmlns="http://www.w3.org/2000/svg" xmlns:xlink="http://www.w3.org/1999/xlink">
<g id="graph0" class="graph" transform="scale(1 1) rotate(0) translate(4 472)">
<title>%3</title>
<polygon fill="white" stroke="none" points="-4,4 -4,-472 873,-472 873,4 -4,4"/>
<!-- p0 -->
<g id="node1" class="node"><title>p0</title>
<path fill="none" stroke="black" d="M264.5,-468C264.5,-468 229.5,-468 229.5,-468 223.5,-468 217.5,-462 217.5,-456 217.5,-456 217.5,-444 217.5,-444 217.5,-438 223.5,-432 229.5,-432 229.5,-432 264.5,-432 264.5,-432 270.5,-432 276.5,-438 276.5,-444 276.5,-444 276.5,-456 276.5,-456 276.5,-462 270.5,-468 264.5,-468"/>
<text text-anchor="middle" x="247" y="-446.3" font-family="Times,serif" font-size="14.00">path (2)</text>
</g>
<!-- v28 -->
<g id="node24" class="node"><title>v28</title>
<ellipse fill="none" stroke="black" cx="247" cy="-378" rx="27" ry="18"/>
<text text-anchor="middle" x="247" y="-374.3" font-family="Times,serif" font-size="14.00">28</text>
</g>
<!-- p0&#45;&gt;v28 -->
<g id="edge16" class="edge"><title>p0&#45;&gt;v28</title>
<path fill="none" stroke="black" d="M247,-431.697C247,-423.983 247,-414.712 247,-406.112"/>
<polygon fill="black" stroke="black" points="250.5,-406.104 247,-396.104 243.5,-406.104 250.5,-406.104"/>
</g>
<!-- v1 -->
<g id="node2" class="node"><title>v1</title>
<ellipse fill="none" stroke="black" cx="699" cy="-90" rx="27" ry="18"/>
<text text-anchor="middle" x="699" y="-86.3" font-family="Times,serif" font-size="14.00">1</text>
</g>
<!-- v17 -->
<g id="node16" class="node"><title>v17</title>
<ellipse fill="none" stroke="black" cx="699" cy="-18" rx="27" ry="18"/>
<text text-anchor="middle" x="699" y="-14.3" font-family="Times,serif" font-size="14.00">17</text>
</g>
<!-- v1&#45;&gt;v17 -->
<g id="edge4" class="edge"><title>v1&#45;&gt;v17</title>
<path fill="none" stroke="black" d="M699,-71.6966C699,-63.9827 699,-54.7125 699,-46.1124"/>
<polygon fill="black" stroke="black" points="702.5,-46.1043 699,-36.1043 695.5,-46.1044 702.5,-46.1043"/>
</g>
<!-- v23 -->
<g id="node20" class="node"><title>v23</title>
<ellipse fill="none" stroke="black" cx="771" cy="-18" rx="27" ry="18"/>
<text text-anchor="middle" x="771" y="-14.3" font-family="Times,serif" font-size="14.00">23</text>
</g>
<!-- v1&#45;&gt;v23 -->
<g id="edge10" class="edge"><title>v1&#45;&gt;v23</title>
<path fill="none" stroke="black" d="M713.57,-74.8345C723.75,-64.9376 737.524,-51.5462 749.031,-40.3591"/>
<polygon fill="black" stroke="black" points="751.474,-42.865 756.204,-33.3847 746.595,-37.8461 751.474,-42.865"/>
</g>
<!-- v2 -->
<g id="node3" class="node"><title>v2</title>
<ellipse fill="none" stroke="black" cx="171" cy="-234" rx="27" ry="18"/>
<text text-anchor="middle" x="171" y="-230.3" font-family="Times,serif" font-size="14.00">2</text>
</g>
<!-- v3 -->
<g id="node4" class="node"><title>v3</title>
<ellipse fill="none" stroke="black" cx="27" cy="-234" rx="27" ry="18"/>
<text text-anchor="middle" x="27" y="-230.3" font-family="Times,serif" font-size="14.00">3</text>
</g>
<!-- p1 -->
<g id="node5" class="node"><title>p1</title>
<path fill="none" stroke="black" d="M564.5,-36C564.5,-36 529.5,-36 529.5,-36 523.5,-36 517.5,-30 517.5,-24 517.5,-24 517.5,-12 517.5,-12 517.5,-6 523.5,-0 529.5,-0 529.5,-0 564.5,-0 564.5,-0 570.5,-0 576.5,-6 576.5,-12 576.5,-12 576.5,-24 576.5,-24 576.5,-30 570.5,-36 564.5,-36"/>
<text text-anchor="middle" x="547" y="-14.3" font-family="Times,serif" font-size="14.00">path (2)</text>
</g>
<!-- p2 -->
<g id="node6" class="node"><title>p2</title>
<path fill="none" stroke="black" d="M263.5,-252C263.5,-252 228.5,-252 228.5,-252 222.5,-252 216.5,-246 216.5,-240 216.5,-240 216.5,-228 216.5,-228 216.5,-222 222.5,-216 228.5,-216 228.5,-216 263.5,-216 263.5,-216 269.5,-216 275.5,-222 275.5,-228 275.5,-228 275.5,-240 275.5,-240 275.5,-246 269.5,-252 263.5,-252"/>
<text text-anchor="middle" x="246" y="-230.3" font-family="Times,serif" font-size="14.00">path (4)</text>
</g>
<!-- v6 -->
<g id="node7" class="node"><title>v6</title>
<ellipse fill="none" stroke="black" cx="321" cy="-234" rx="27" ry="18"/>
<text text-anchor="middle" x="321" y="-230.3" font-family="Times,serif" font-size="14.00">6</text>
</g>
<!-- p3 -->
<g id="node8" class="node"><title>p3</title>
<path fill="none" stroke="black" d="M413.5,-252C413.5,-252 378.5,-252 378.5,-252 372.5,-252 366.5,-246 366.5,-240 366.5,-240 366.5,-228 366.5,-228 366.5,-222 372.5,-216 378.5,-216 378.5,-216 413.5,-216 413.5,-216 419.5,-216 425.5,-222 425.5,-228 425.5,-228 425.5,-240 425.5,-240 425.5,-246 419.5,-252 413.5,-252"/>
<text text-anchor="middle" x="396" y="-230.3" font-family="Times,serif" font-size="14.00">path (3)</text>
</g>
<!-- v8 -->
<g id="node9" class="node"><title>v8</title>
<ellipse fill="none" stroke="black" cx="553" cy="-162" rx="27" ry="18"/>
<text text-anchor="middle" x="553" y="-158.3" font-family="Times,serif" font-size="14.00">8</text>
</g>
<!-- p4 -->
<g id="node10" class="node"><title>p4</title>
<path fill="none" stroke="black" d="M641.5,-36C641.5,-36 606.5,-36 606.5,-36 600.5,-36 594.5,-30 594.5,-24 594.5,-24 594.5,-12 594.5,-12 594.5,-6 600.5,-0 606.5,-0 606.5,-0 641.5,-0 641.5,-0 647.5,-0 653.5,-6 653.5,-12 653.5,-12 653.5,-24 653.5,-24 653.5,-30 647.5,-36 641.5,-36"/>
<text text-anchor="middle" x="624" y="-14.3" font-family="Times,serif" font-size="14.00">path (2)</text>
</g>
<!-- v10 -->
<g id="node11" class="node"><title>v10</title>
<ellipse fill="none" stroke="black" cx="99" cy="-234" rx="27" ry="18"/>
<text text-anchor="middle" x="99" y="-230.3" font-family="Times,serif" font-size="14.00">10</text>
</g>
<!-- p5 -->
<g id="node12" class="node"><title>p5</title>
<path fill="none" stroke="black" d="M490.5,-252C490.5,-252 455.5,-252 455.5,-252 449.5,-252 443.5,-246 443.5,-240 443.5,-240 443.5,-228 443.5,-228 443.5,-222 449.5,-216 455.5,-216 455.5,-216 490.5,-216 490.5,-216 496.5,-216 502.5,-222 502.5,-228 502.5,-228 502.5,-240 502.5,-240 502.5,-246 496.5,-252 490.5,-252"/>
<text text-anchor="middle" x="473" y="-230.3" font-family="Times,serif" font-size="14.00">path (4)</text>
</g>
<!-- v12 -->
<g id="node13" class="node"><title>v12</title>
<ellipse fill="none" stroke="black" cx="99" cy="-306" rx="27" ry="18"/>
<text text-anchor="middle" x="99" y="-302.3" font-family="Times,serif" font-size="14.00">12</text>
</g>
<!-- v12&#45;&gt;v3 -->
<g id="edge14" class="edge"><title>v12&#45;&gt;v3</title>
<path fill="none" stroke="black" d="M84.4297,-290.834C74.2501,-280.938 60.4761,-267.546 48.9694,-256.359"/>
<polygon fill="black" stroke="black" points="51.4055,-253.846 41.7957,-249.385 46.5259,-258.865 51.4055,-253.846"/>
</g>
<!-- v12&#45;&gt;v10 -->
<g id="edge13" class="edge"><title>v12&#45;&gt;v10</title>
<path fill="none" stroke="black" d="M99,-287.697C99,-279.983 99,-270.712 99,-262.112"/>
<polygon fill="black" stroke="black" points="102.5,-262.104 99,-252.104 95.5001,-262.104 102.5,-262.104"/>
</g>
<!-- p6 -->
<g id="node14" class="node"><title>p6</title>
<path fill="none" stroke="black" d="M264.5,-324C264.5,-324 229.5,-324 229.5,-324 223.5,-324 217.5,-318 217.5,-312 217.5,-312 217.5,-300 217.5,-300 217.5,-294 223.5,-288 229.5,-288 229.5,-288 264.5,-288 264.5,-288 270.5,-288 276.5,-294 276.5,-300 276.5,-300 276.5,-312 276.5,-312 276.5,-318 270.5,-324 264.5,-324"/>
<text text-anchor="middle" x="247" y="-302.3" font-family="Times,serif" font-size="14.00">path (2)</text>
</g>
<!-- v15 -->
<g id="node15" class="node"><title>v15</title>
<ellipse fill="none" stroke="black" cx="698" cy="-162" rx="27" ry="18"/>
<text text-anchor="middle" x="698" y="-158.3" font-family="Times,serif" font-size="14.00">15</text>
</g>
<!-- v15&#45;&gt;v1 -->
<g id="edge5" class="edge"><title>v15&#45;&gt;v1</title>
<path fill="none" stroke="black" d="M698.247,-143.697C698.357,-135.983 698.49,-126.712 698.613,-118.112"/>
<polygon fill="black" stroke="black" points="702.112,-118.153 698.756,-108.104 695.113,-118.053 702.112,-118.153"/>
</g>
<!-- v18 -->
<g id="node17" class="node"><title>v18</title>
<ellipse fill="none" stroke="black" cx="396" cy="-306" rx="27" ry="18"/>
<text text-anchor="middle" x="396" y="-302.3" font-family="Times,serif" font-size="14.00">18</text>
</g>
<!-- v18&#45;&gt;v2 -->
<g id="edge17" class="edge"><title>v18&#45;&gt;v2</title>
<path fill="none" stroke="black" d="M370.807,-299.361C334.17,-290.843 264.307,-273.394 207,-252 205.155,-251.311 203.274,-250.565 201.388,-249.783"/>
<polygon fill="black" stroke="black" points="202.628,-246.504 192.066,-245.67 199.803,-252.909 202.628,-246.504"/>
</g>
<!-- v18&#45;&gt;p2 -->
<g id="edge23" class="edge"><title>v18&#45;&gt;p2</title>
<path fill="none" stroke="black" d="M374.509,-294.971C351.219,-284.102 313.565,-266.53 285.021,-253.21"/>
<polygon fill="black" stroke="black" points="286.267,-249.929 275.725,-248.872 283.307,-256.272 286.267,-249.929"/>
</g>
<!-- v18&#45;&gt;v6 -->
<g id="edge20" class="edge"><title>v18&#45;&gt;v6</title>
<path fill="none" stroke="black" d="M380.823,-290.834C370.149,-280.872 355.681,-267.369 343.647,-256.137"/>
<polygon fill="black" stroke="black" points="345.854,-253.409 336.155,-249.144 341.077,-258.526 345.854,-253.409"/>
</g>
<!-- v18&#45;&gt;p3 -->
<g id="edge25" class="edge"><title>v18&#45;&gt;p3</title>
<path fill="none" stroke="black" d="M396,-287.697C396,-279.983 396,-270.712 396,-262.112"/>
<polygon fill="black" stroke="black" points="399.5,-262.104 396,-252.104 392.5,-262.104 399.5,-262.104"/>
</g>
<!-- v18&#45;&gt;p5 -->
<g id="edge12" class="edge"><title>v18&#45;&gt;p5</title>
<path fill="none" stroke="black" d="M411.582,-290.834C421.579,-281.746 434.818,-269.71 446.445,-259.141"/>
<polygon fill="black" stroke="black" points="449.131,-261.429 454.176,-252.113 444.422,-256.25 449.131,-261.429"/>
</g>
<!-- p7 -->
<g id="node21" class="node"><title>p7</title>
<path fill="none" stroke="black" d="M567.5,-252C567.5,-252 532.5,-252 532.5,-252 526.5,-252 520.5,-246 520.5,-240 520.5,-240 520.5,-228 520.5,-228 520.5,-222 526.5,-216 532.5,-216 532.5,-216 567.5,-216 567.5,-216 573.5,-216 579.5,-222 579.5,-228 579.5,-228 579.5,-240 579.5,-240 579.5,-246 573.5,-252 567.5,-252"/>
<text text-anchor="middle" x="550" y="-230.3" font-family="Times,serif" font-size="14.00">path (2)</text>
</g>
<!-- v18&#45;&gt;p7 -->
<g id="edge6" class="edge"><title>v18&#45;&gt;p7</title>
<path fill="none" stroke="black" d="M417.738,-295.119C441.977,-284.101 481.66,-266.064 511.245,-252.616"/>
<polygon fill="black" stroke="black" points="512.809,-255.75 520.464,-248.426 509.912,-249.377 512.809,-255.75"/>
</g>
<!-- v25 -->
<g id="node22" class="node"><title>v25</title>
<ellipse fill="none" stroke="black" cx="625" cy="-234" rx="27" ry="18"/>
<text text-anchor="middle" x="625" y="-230.3" font-family="Times,serif" font-size="14.00">25</text>
</g>
<!-- v18&#45;&gt;v25 -->
<g id="edge21" class="edge"><title>v18&#45;&gt;v25</title>
<path fill="none" stroke="black" d="M421.422,-299.502C458.758,-291.096 530.346,-273.716 589,-252 590.847,-251.316 592.73,-250.574 594.616,-249.794"/>
<polygon fill="black" stroke="black" points="596.199,-252.922 603.941,-245.69 593.378,-246.515 596.199,-252.922"/>
</g>
<!-- v27 -->
<g id="node23" class="node"><title>v27</title>
<ellipse fill="none" stroke="black" cx="734" cy="-234" rx="27" ry="18"/>
<text text-anchor="middle" x="734" y="-230.3" font-family="Times,serif" font-size="14.00">27</text>
</g>
<!-- v18&#45;&gt;v27 -->
<g id="edge11" class="edge"><title>v18&#45;&gt;v27</title>
<path fill="none" stroke="black" d="M421.637,-300.15C469.009,-291.127 573.414,-270.952 661,-252 673.52,-249.291 687.205,-246.152 699.308,-243.314"/>
<polygon fill="black" stroke="black" points="700.113,-246.72 709.042,-241.017 698.505,-239.907 700.113,-246.72"/>
</g>
<!-- v20 -->
<g id="node18" class="node"><title>v20</title>
<ellipse fill="none" stroke="black" cx="770" cy="-162" rx="27" ry="18"/>
<text text-anchor="middle" x="770" y="-158.3" font-family="Times,serif" font-size="14.00">20</text>
</g>
<!-- v21 -->
<g id="node19" class="node"><title>v21</title>
<ellipse fill="none" stroke="black" cx="842" cy="-162" rx="27" ry="18"/>
<text text-anchor="middle" x="842" y="-158.3" font-family="Times,serif" font-size="14.00">21</text>
</g>
<!-- v25&#45;&gt;v8 -->
<g id="edge7" class="edge"><title>v25&#45;&gt;v8</title>
<path fill="none" stroke="black" d="M610.43,-218.834C600.25,-208.938 586.476,-195.546 574.969,-184.359"/>
<polygon fill="black" stroke="black" points="577.405,-181.846 567.796,-177.385 572.526,-186.865 577.405,-181.846"/>
</g>
<!-- v37 -->
<g id="node25" class="node"><title>v37</title>
<ellipse fill="none" stroke="black" cx="625" cy="-162" rx="27" ry="18"/>
<text text-anchor="middle" x="625" y="-158.3" font-family="Times,serif" font-size="14.00">37</text>
</g>
<!-- v25&#45;&gt;v37 -->
<g id="edge22" class="edge"><title>v25&#45;&gt;v37</title>
<path fill="none" stroke="black" d="M625,-215.697C625,-207.983 625,-198.712 625,-190.112"/>
<polygon fill="black" stroke="black" points="628.5,-190.104 625,-180.104 621.5,-190.104 628.5,-190.104"/>
</g>
<!-- v27&#45;&gt;v15 -->
<g id="edge3" class="edge"><title>v27&#45;&gt;v15</title>
<path fill="none" stroke="black" d="M725.65,-216.765C721.288,-208.283 715.853,-197.714 710.959,-188.197"/>
<polygon fill="black" stroke="black" points="713.99,-186.439 706.304,-179.147 707.765,-189.641 713.99,-186.439"/>
</g>
<!-- v27&#45;&gt;v20 -->
<g id="edge9" class="edge"><title>v27&#45;&gt;v20</title>
<path fill="none" stroke="black" d="M742.35,-216.765C746.712,-208.283 752.147,-197.714 757.041,-188.197"/>
<polygon fill="black" stroke="black" points="760.235,-189.641 761.696,-179.147 754.01,-186.439 760.235,-189.641"/>
</g>
<!-- v27&#45;&gt;v21 -->
<g id="edge24" class="edge"><title>v27&#45;&gt;v21</title>
<path fill="none" stroke="black" d="M752.812,-220.807C770.002,-209.665 795.618,-193.062 814.993,-180.504"/>
<polygon fill="black" stroke="black" points="816.916,-183.429 823.403,-175.053 813.108,-177.555 816.916,-183.429"/>
</g>
<!-- v28&#45;&gt;v12 -->
<g id="edge8" class="edge"><title>v28&#45;&gt;v12</title>
<path fill="none" stroke="black" d="M225.48,-366.821C200.27,-354.898 158.318,-335.056 129.698,-321.519"/>
<polygon fill="black" stroke="black" points="131.083,-318.303 120.546,-317.191 128.09,-324.631 131.083,-318.303"/>
</g>
<!-- v28&#45;&gt;p6 -->
<g id="edge19" class="edge"><title>v28&#45;&gt;p6</title>
<path fill="none" stroke="black" d="M247,-359.697C247,-351.983 247,-342.712 247,-334.112"/>
<polygon fill="black" stroke="black" points="250.5,-334.104 247,-324.104 243.5,-334.104 250.5,-334.104"/>
</g>
<!-- v28&#45;&gt;v18 -->
<g id="edge1" class="edge"><title>v28&#45;&gt;v18</title>
<path fill="none" stroke="black" d="M268.348,-366.971C293.652,-355.083 336.024,-335.176 364.955,-321.585"/>
<polygon fill="black" stroke="black" points="366.644,-324.658 374.207,-317.238 363.668,-318.323 366.644,-324.658"/>
</g>
<!-- v38 -->
<g id="node26" class="node"><title>v38</title>
<ellipse fill="none" stroke="black" cx="624" cy="-90" rx="27" ry="18"/>
<text text-anchor="middle" x="624" y="-86.3" font-family="Times,serif" font-size="14.00">38</text>
</g>
<!-- v37&#45;&gt;v38 -->
<g id="edge18" class="edge"><title>v37&#45;&gt;v38</title>
<path fill="none" stroke="black" d="M624.753,-143.697C624.643,-135.983 624.51,-126.712 624.387,-118.112"/>
<polygon fill="black" stroke="black" points="627.887,-118.053 624.244,-108.104 620.888,-118.153 627.887,-118.053"/>
</g>
<!-- v38&#45;&gt;p1 -->
<g id="edge2" class="edge"><title>v38&#45;&gt;p1</title>
<path fill="none" stroke="black" d="M608.418,-74.8345C598.421,-65.7459 585.182,-53.7105 573.555,-43.1413"/>
<polygon fill="black" stroke="black" points="575.578,-40.2497 565.824,-36.1127 570.869,-45.4293 575.578,-40.2497"/>
</g>
<!-- v38&#45;&gt;p4 -->
<g id="edge15" class="edge"><title>v38&#45;&gt;p4</title>
<path fill="none" stroke="black" d="M624,-71.6966C624,-63.9827 624,-54.7125 624,-46.1124"/>
<polygon fill="black" stroke="black" points="627.5,-46.1043 624,-36.1043 620.5,-46.1044 627.5,-46.1043"/>
</g>
</g>
</svg>
