<?xml version="1.0" encoding="UTF-8" standalone="no"?>
<!DOCTYPE svg PUBLIC "-//W3C//DTD SVG 1.1//EN"
 "http://www.w3.org/Graphics/SVG/1.1/DTD/svg11.dtd">
<!-- Generated by graphviz version 2.38.0 (20140413.2041)
 -->
<!-- Title: %3 Pages: 1 -->
<svg width="585pt" height="332pt"
 viewBox="0.00 0.00 584.50 332.00" xmlns="http://www.w3.org/2000/svg" xmlns:xlink="http://www.w3.org/1999/xlink">
<g id="graph0" class="graph" transform="scale(1 1) rotate(0) translate(4 328)">
<title>%3</title>
<polygon fill="white" stroke="none" points="-4,4 -4,-328 580.5,-328 580.5,4 -4,4"/>
<!-- p0 -->
<g id="node1" class="node"><title>p0</title>
<path fill="none" stroke="black" d="M492,-36C492,-36 457,-36 457,-36 451,-36 445,-30 445,-24 445,-24 445,-12 445,-12 445,-6 451,-0 457,-0 457,-0 492,-0 492,-0 498,-0 504,-6 504,-12 504,-12 504,-24 504,-24 504,-30 498,-36 492,-36"/>
<text text-anchor="middle" x="474.5" y="-14.3" font-family="Times,serif" font-size="14.00">path (3)</text>
</g>
<!-- v1 -->
<g id="node2" class="node"><title>v1</title>
<ellipse fill="none" stroke="black" cx="439.5" cy="-90" rx="27" ry="18"/>
<text text-anchor="middle" x="439.5" y="-86.3" font-family="Times,serif" font-size="14.00">1</text>
</g>
<!-- p1 -->
<g id="node3" class="node"><title>p1</title>
<path fill="none" stroke="black" d="M47,-180C47,-180 12,-180 12,-180 6,-180 0,-174 0,-168 0,-168 0,-156 0,-156 0,-150 6,-144 12,-144 12,-144 47,-144 47,-144 53,-144 59,-150 59,-156 59,-156 59,-168 59,-168 59,-174 53,-180 47,-180"/>
<text text-anchor="middle" x="29.5" y="-158.3" font-family="Times,serif" font-size="14.00">path (3)</text>
</g>
<!-- v3 -->
<g id="node4" class="node"><title>v3</title>
<ellipse fill="none" stroke="black" cx="104.5" cy="-162" rx="27" ry="18"/>
<text text-anchor="middle" x="104.5" y="-158.3" font-family="Times,serif" font-size="14.00">3</text>
</g>
<!-- v4 -->
<g id="node5" class="node"><title>v4</title>
<ellipse fill="none" stroke="black" cx="256.5" cy="-234" rx="27" ry="18"/>
<text text-anchor="middle" x="256.5" y="-230.3" font-family="Times,serif" font-size="14.00">4</text>
</g>
<!-- v4&#45;&gt;p1 -->
<g id="edge3" class="edge"><title>v4&#45;&gt;p1</title>
<path fill="none" stroke="black" d="M231.527,-227.113C195.19,-218.289 125.826,-200.467 68.5,-180 68.4044,-179.966 68.3086,-179.932 68.2128,-179.897"/>
<polygon fill="black" stroke="black" points="69.733,-176.732 59.1428,-176.418 67.2258,-183.267 69.733,-176.732"/>
</g>
<!-- v4&#45;&gt;v3 -->
<g id="edge12" class="edge"><title>v4&#45;&gt;v3</title>
<path fill="none" stroke="black" d="M234.655,-223.118C211.309,-212.534 173.231,-195.205 140.5,-180 138.713,-179.17 136.879,-178.314 135.028,-177.449"/>
<polygon fill="black" stroke="black" points="136.339,-174.197 125.8,-173.112 133.362,-180.533 136.339,-174.197"/>
</g>
<!-- p2 -->
<g id="node6" class="node"><title>p2</title>
<path fill="none" stroke="black" d="M197,-180C197,-180 162,-180 162,-180 156,-180 150,-174 150,-168 150,-168 150,-156 150,-156 150,-150 156,-144 162,-144 162,-144 197,-144 197,-144 203,-144 209,-150 209,-156 209,-156 209,-168 209,-168 209,-174 203,-180 197,-180"/>
<text text-anchor="middle" x="179.5" y="-158.3" font-family="Times,serif" font-size="14.00">path (5)</text>
</g>
<!-- v4&#45;&gt;p2 -->
<g id="edge6" class="edge"><title>v4&#45;&gt;p2</title>
<path fill="none" stroke="black" d="M240.918,-218.834C230.921,-209.746 217.682,-197.71 206.055,-187.141"/>
<polygon fill="black" stroke="black" points="208.078,-184.25 198.324,-180.113 203.369,-189.429 208.078,-184.25"/>
</g>
<!-- p3 -->
<g id="node7" class="node"><title>p3</title>
<path fill="none" stroke="black" d="M274,-180C274,-180 239,-180 239,-180 233,-180 227,-174 227,-168 227,-168 227,-156 227,-156 227,-150 233,-144 239,-144 239,-144 274,-144 274,-144 280,-144 286,-150 286,-156 286,-156 286,-168 286,-168 286,-174 280,-180 274,-180"/>
<text text-anchor="middle" x="256.5" y="-158.3" font-family="Times,serif" font-size="14.00">path (4)</text>
</g>
<!-- v4&#45;&gt;p3 -->
<g id="edge11" class="edge"><title>v4&#45;&gt;p3</title>
<path fill="none" stroke="black" d="M256.5,-215.697C256.5,-207.983 256.5,-198.712 256.5,-190.112"/>
<polygon fill="black" stroke="black" points="260,-190.104 256.5,-180.104 253,-190.104 260,-190.104"/>
</g>
<!-- v9 -->
<g id="node10" class="node"><title>v9</title>
<ellipse fill="none" stroke="black" cx="331.5" cy="-162" rx="27" ry="18"/>
<text text-anchor="middle" x="331.5" y="-158.3" font-family="Times,serif" font-size="14.00">9</text>
</g>
<!-- v4&#45;&gt;v9 -->
<g id="edge4" class="edge"><title>v4&#45;&gt;v9</title>
<path fill="none" stroke="black" d="M271.677,-218.834C282.351,-208.872 296.819,-195.369 308.853,-184.137"/>
<polygon fill="black" stroke="black" points="311.423,-186.526 316.345,-177.144 306.646,-181.409 311.423,-186.526"/>
</g>
<!-- v11 -->
<g id="node12" class="node"><title>v11</title>
<ellipse fill="none" stroke="black" cx="403.5" cy="-162" rx="27" ry="18"/>
<text text-anchor="middle" x="403.5" y="-158.3" font-family="Times,serif" font-size="14.00">11</text>
</g>
<!-- v4&#45;&gt;v11 -->
<g id="edge10" class="edge"><title>v4&#45;&gt;v11</title>
<path fill="none" stroke="black" d="M277.875,-222.821C302.915,-210.898 344.583,-191.056 373.01,-177.519"/>
<polygon fill="black" stroke="black" points="374.575,-180.65 382.099,-173.191 371.566,-174.33 374.575,-180.65"/>
</g>
<!-- v7 -->
<g id="node8" class="node"><title>v7</title>
<ellipse fill="none" stroke="black" cx="549.5" cy="-18" rx="27" ry="18"/>
<text text-anchor="middle" x="549.5" y="-14.3" font-family="Times,serif" font-size="14.00">7</text>
</g>
<!-- v8 -->
<g id="node9" class="node"><title>v8</title>
<ellipse fill="none" stroke="black" cx="511.5" cy="-90" rx="27" ry="18"/>
<text text-anchor="middle" x="511.5" y="-86.3" font-family="Times,serif" font-size="14.00">8</text>
</g>
<!-- v8&#45;&gt;p0 -->
<g id="edge2" class="edge"><title>v8&#45;&gt;p0</title>
<path fill="none" stroke="black" d="M502.918,-72.7646C498.563,-64.5255 493.167,-54.3166 488.251,-45.0157"/>
<polygon fill="black" stroke="black" points="491.319,-43.3293 483.551,-36.1239 485.13,-46.6005 491.319,-43.3293"/>
</g>
<!-- v8&#45;&gt;v7 -->
<g id="edge9" class="edge"><title>v8&#45;&gt;v7</title>
<path fill="none" stroke="black" d="M520.313,-72.7646C524.918,-64.2831 530.655,-53.7144 535.821,-44.1974"/>
<polygon fill="black" stroke="black" points="539.039,-45.6057 540.734,-35.1473 532.887,-42.266 539.039,-45.6057"/>
</g>
<!-- p4 -->
<g id="node11" class="node"><title>p4</title>
<path fill="none" stroke="black" d="M421,-252C421,-252 386,-252 386,-252 380,-252 374,-246 374,-240 374,-240 374,-228 374,-228 374,-222 380,-216 386,-216 386,-216 421,-216 421,-216 427,-216 433,-222 433,-228 433,-228 433,-240 433,-240 433,-246 427,-252 421,-252"/>
<text text-anchor="middle" x="403.5" y="-230.3" font-family="Times,serif" font-size="14.00">path (2)</text>
</g>
<!-- v12 -->
<g id="node13" class="node"><title>v12</title>
<ellipse fill="none" stroke="black" cx="475.5" cy="-162" rx="27" ry="18"/>
<text text-anchor="middle" x="475.5" y="-158.3" font-family="Times,serif" font-size="14.00">12</text>
</g>
<!-- p4&#45;&gt;v12 -->
<g id="edge5" class="edge"><title>p4&#45;&gt;v12</title>
<path fill="none" stroke="black" d="M421.298,-215.697C430.988,-206.276 443.065,-194.534 453.358,-184.527"/>
<polygon fill="black" stroke="black" points="456.083,-186.759 460.813,-177.279 451.203,-181.74 456.083,-186.759"/>
</g>
<!-- v12&#45;&gt;v1 -->
<g id="edge1" class="edge"><title>v12&#45;&gt;v1</title>
<path fill="none" stroke="black" d="M467.15,-144.765C462.788,-136.283 457.353,-125.714 452.459,-116.197"/>
<polygon fill="black" stroke="black" points="455.49,-114.439 447.804,-107.147 449.265,-117.641 455.49,-114.439"/>
</g>
<!-- v12&#45;&gt;v8 -->
<g id="edge13" class="edge"><title>v12&#45;&gt;v8</title>
<path fill="none" stroke="black" d="M483.85,-144.765C488.212,-136.283 493.647,-125.714 498.541,-116.197"/>
<polygon fill="black" stroke="black" points="501.735,-117.641 503.196,-107.147 495.51,-114.439 501.735,-117.641"/>
</g>
<!-- v15 -->
<g id="node14" class="node"><title>v15</title>
<ellipse fill="none" stroke="black" cx="329.5" cy="-306" rx="27" ry="18"/>
<text text-anchor="middle" x="329.5" y="-302.3" font-family="Times,serif" font-size="14.00">15</text>
</g>
<!-- v15&#45;&gt;v4 -->
<g id="edge7" class="edge"><title>v15&#45;&gt;v4</title>
<path fill="none" stroke="black" d="M314.727,-290.834C304.338,-280.872 290.256,-267.369 278.543,-256.137"/>
<polygon fill="black" stroke="black" points="280.891,-253.539 271.251,-249.144 276.046,-258.592 280.891,-253.539"/>
</g>
<!-- v15&#45;&gt;p4 -->
<g id="edge8" class="edge"><title>v15&#45;&gt;p4</title>
<path fill="none" stroke="black" d="M344.475,-290.834C354.083,-281.746 366.806,-269.71 377.979,-259.141"/>
<polygon fill="black" stroke="black" points="380.55,-261.527 385.409,-252.113 375.739,-256.442 380.55,-261.527"/>
</g>
</g>
</svg>
