<?xml version="1.0" encoding="UTF-8" standalone="no"?>
<!DOCTYPE svg PUBLIC "-//W3C//DTD SVG 1.1//EN"
 "http://www.w3.org/Graphics/SVG/1.1/DTD/svg11.dtd">
<!-- Generated by graphviz version 2.38.0 (20140413.2041)
 -->
<!-- Title: %3 Pages: 1 -->
<svg width="307pt" height="548pt"
 viewBox="0.00 0.00 307.44 548.00" xmlns="http://www.w3.org/2000/svg" xmlns:xlink="http://www.w3.org/1999/xlink">
<g id="graph0" class="graph" transform="scale(1 1) rotate(0) translate(4 544)">
<title>%3</title>
<polygon fill="white" stroke="none" points="-4,4 -4,-544 303.441,-544 303.441,4 -4,4"/>
<!-- 0 -->
<g id="node1" class="node"><title>0</title>
<g id="a_node1"><a xlink:title="0, diversity: 1, multiplicities: 1757, labels: 1,0,3,2">
<ellipse fill="#f7fcf5" stroke="black" cx="57.8449" cy="-450" rx="57.6901" ry="18"/>
<text text-anchor="middle" x="57.8449" y="-446.3" font-family="Times,serif" font-size="14.00">0 (1): 1,0,3,2</text>
</a>
</g>
</g>
<!-- 9 -->
<g id="node10" class="node"><title>9</title>
<g id="a_node10"><a xlink:title="9, diversity: 1, multiplicities: 1, labels: 3">
<ellipse fill="#228a44" stroke="black" cx="57.8449" cy="-378" rx="37.0935" ry="18"/>
<text text-anchor="middle" x="57.8449" y="-374.3" font-family="Times,serif" font-size="14.00">9 (1): 3</text>
</a>
</g>
</g>
<!-- 0&#45;&gt;9 -->
<g id="edge10" class="edge"><title>0&#45;&gt;9</title>
<path fill="none" stroke="black" d="M57.8449,-431.697C57.8449,-423.983 57.8449,-414.712 57.8449,-406.112"/>
<polygon fill="black" stroke="black" points="61.345,-406.104 57.8449,-396.104 54.345,-406.104 61.345,-406.104"/>
</g>
<!-- 1 -->
<g id="node2" class="node"><title>1</title>
<g id="a_node2"><a xlink:title="1, diversity: 2, multiplicities: 2,3, labels: 3">
<ellipse fill="#228a44" stroke="black" cx="160.845" cy="-306" rx="37.0935" ry="18"/>
<text text-anchor="middle" x="160.845" y="-302.3" font-family="Times,serif" font-size="14.00">1 (2): 3</text>
</a>
</g>
</g>
<!-- 4 -->
<g id="node5" class="node"><title>4</title>
<g id="a_node5"><a xlink:title="4, diversity: 1, multiplicities: 1, labels: 3">
<ellipse fill="#228a44" stroke="black" cx="68.8449" cy="-234" rx="37.0935" ry="18"/>
<text text-anchor="middle" x="68.8449" y="-230.3" font-family="Times,serif" font-size="14.00">4 (1): 3</text>
</a>
</g>
</g>
<!-- 1&#45;&gt;4 -->
<g id="edge6" class="edge"><title>1&#45;&gt;4</title>
<path fill="none" stroke="black" d="M141.782,-290.496C128.583,-280.453 110.816,-266.934 96.1217,-255.754"/>
<polygon fill="black" stroke="black" points="97.9606,-252.755 87.8829,-249.485 93.7219,-258.326 97.9606,-252.755"/>
</g>
<!-- 6 -->
<g id="node7" class="node"><title>6</title>
<g id="a_node7"><a xlink:title="6, diversity: 1, multiplicities: 5, labels: 3">
<ellipse fill="#228a44" stroke="black" cx="160.845" cy="-234" rx="37.0935" ry="18"/>
<text text-anchor="middle" x="160.845" y="-230.3" font-family="Times,serif" font-size="14.00">6 (1): 3</text>
</a>
</g>
</g>
<!-- 1&#45;&gt;6 -->
<g id="edge8" class="edge"><title>1&#45;&gt;6</title>
<path fill="none" stroke="black" d="M160.845,-287.697C160.845,-279.983 160.845,-270.712 160.845,-262.112"/>
<polygon fill="black" stroke="black" points="164.345,-262.104 160.845,-252.104 157.345,-262.104 164.345,-262.104"/>
</g>
<!-- 2 -->
<g id="node3" class="node"><title>2</title>
<g id="a_node3"><a xlink:title="2, diversity: 2, multiplicities: 5,9, labels: 3">
<ellipse fill="#228a44" stroke="black" cx="257.845" cy="-162" rx="37.0935" ry="18"/>
<text text-anchor="middle" x="257.845" y="-158.3" font-family="Times,serif" font-size="14.00">2 (2): 3</text>
</a>
</g>
</g>
<!-- 3 -->
<g id="node4" class="node"><title>3</title>
<g id="a_node4"><a xlink:title="3, diversity: 1, multiplicities: 1, labels: 3">
<ellipse fill="#228a44" stroke="black" cx="170.845" cy="-450" rx="37.0935" ry="18"/>
<text text-anchor="middle" x="170.845" y="-446.3" font-family="Times,serif" font-size="14.00">3 (1): 3</text>
</a>
</g>
</g>
<!-- 5 -->
<g id="node6" class="node"><title>5</title>
<g id="a_node6"><a xlink:title="5, diversity: 1, multiplicities: 4, labels: 3">
<ellipse fill="#228a44" stroke="black" cx="170.845" cy="-378" rx="37.0935" ry="18"/>
<text text-anchor="middle" x="170.845" y="-374.3" font-family="Times,serif" font-size="14.00">5 (1): 3</text>
</a>
</g>
</g>
<!-- 3&#45;&gt;5 -->
<g id="edge14" class="edge"><title>3&#45;&gt;5</title>
<path fill="none" stroke="black" d="M170.845,-431.697C170.845,-423.983 170.845,-414.712 170.845,-406.112"/>
<polygon fill="black" stroke="black" points="174.345,-406.104 170.845,-396.104 167.345,-406.104 174.345,-406.104"/>
</g>
<!-- 14 -->
<g id="node15" class="node"><title>14</title>
<g id="a_node15"><a xlink:title="14, diversity: 1, multiplicities: 2, labels: 2">
<ellipse fill="#73c476" stroke="black" cx="68.8449" cy="-162" rx="41.6928" ry="18"/>
<text text-anchor="middle" x="68.8449" y="-158.3" font-family="Times,serif" font-size="14.00">14 (1): 2</text>
</a>
</g>
</g>
<!-- 4&#45;&gt;14 -->
<g id="edge7" class="edge"><title>4&#45;&gt;14</title>
<path fill="none" stroke="black" d="M68.8449,-215.697C68.8449,-207.983 68.8449,-198.712 68.8449,-190.112"/>
<polygon fill="black" stroke="black" points="72.345,-190.104 68.8449,-180.104 65.345,-190.104 72.345,-190.104"/>
</g>
<!-- 5&#45;&gt;1 -->
<g id="edge11" class="edge"><title>5&#45;&gt;1</title>
<path fill="none" stroke="black" d="M168.373,-359.697C167.271,-351.983 165.947,-342.712 164.718,-334.112"/>
<polygon fill="black" stroke="black" points="168.167,-333.509 163.288,-324.104 161.238,-334.499 168.167,-333.509"/>
</g>
<!-- 13 -->
<g id="node14" class="node"><title>13</title>
<g id="a_node14"><a xlink:title="13, diversity: 1, multiplicities: 1, labels: 3">
<ellipse fill="#228a44" stroke="black" cx="257.845" cy="-306" rx="41.6928" ry="18"/>
<text text-anchor="middle" x="257.845" y="-302.3" font-family="Times,serif" font-size="14.00">13 (1): 3</text>
</a>
</g>
</g>
<!-- 5&#45;&gt;13 -->
<g id="edge5" class="edge"><title>5&#45;&gt;13</title>
<path fill="none" stroke="black" d="M189.295,-362.155C201.357,-352.45 217.316,-339.61 230.8,-328.76"/>
<polygon fill="black" stroke="black" points="233.222,-331.303 238.82,-322.308 228.834,-325.85 233.222,-331.303"/>
</g>
<!-- 7 -->
<g id="node8" class="node"><title>7</title>
<g id="a_node8"><a xlink:title="7, diversity: 1, multiplicities: 14, labels: 3">
<ellipse fill="#228a44" stroke="black" cx="57.8449" cy="-306" rx="37.0935" ry="18"/>
<text text-anchor="middle" x="57.8449" y="-302.3" font-family="Times,serif" font-size="14.00">7 (1): 3</text>
</a>
</g>
</g>
<!-- 8 -->
<g id="node9" class="node"><title>8</title>
<g id="a_node9"><a xlink:title="8, diversity: 1, multiplicities: 6, labels: 3,2">
<ellipse fill="#73c476" stroke="black" cx="68.8449" cy="-18" rx="44.393" ry="18"/>
<text text-anchor="middle" x="68.8449" y="-14.3" font-family="Times,serif" font-size="14.00">8 (1): 3,2</text>
</a>
</g>
</g>
<!-- 9&#45;&gt;7 -->
<g id="edge12" class="edge"><title>9&#45;&gt;7</title>
<path fill="none" stroke="black" d="M57.8449,-359.697C57.8449,-351.983 57.8449,-342.712 57.8449,-334.112"/>
<polygon fill="black" stroke="black" points="61.345,-334.104 57.8449,-324.104 54.345,-334.104 61.345,-334.104"/>
</g>
<!-- 10 -->
<g id="node11" class="node"><title>10</title>
<g id="a_node11"><a xlink:title="10, diversity: 1, multiplicities: 3, labels: 3">
<ellipse fill="#228a44" stroke="black" cx="113.845" cy="-522" rx="41.6928" ry="18"/>
<text text-anchor="middle" x="113.845" y="-518.3" font-family="Times,serif" font-size="14.00">10 (1): 3</text>
</a>
</g>
</g>
<!-- 10&#45;&gt;0 -->
<g id="edge9" class="edge"><title>10&#45;&gt;0</title>
<path fill="none" stroke="black" d="M100.857,-504.765C93.9593,-496.143 85.3366,-485.365 77.6262,-475.727"/>
<polygon fill="black" stroke="black" points="80.1316,-473.256 71.1516,-467.633 74.6655,-477.629 80.1316,-473.256"/>
</g>
<!-- 10&#45;&gt;3 -->
<g id="edge13" class="edge"><title>10&#45;&gt;3</title>
<path fill="none" stroke="black" d="M127.065,-504.765C134.259,-495.93 143.298,-484.83 151.291,-475.014"/>
<polygon fill="black" stroke="black" points="154.096,-477.112 157.696,-467.147 148.668,-472.692 154.096,-477.112"/>
</g>
<!-- 11 -->
<g id="node12" class="node"><title>11</title>
<g id="a_node12"><a xlink:title="11, diversity: 1, multiplicities: 1, labels: 3">
<ellipse fill="#228a44" stroke="black" cx="68.8449" cy="-90" rx="41.6928" ry="18"/>
<text text-anchor="middle" x="68.8449" y="-86.3" font-family="Times,serif" font-size="14.00">11 (1): 3</text>
</a>
</g>
</g>
<!-- 11&#45;&gt;8 -->
<g id="edge4" class="edge"><title>11&#45;&gt;8</title>
<path fill="none" stroke="black" d="M68.8449,-71.6966C68.8449,-63.9827 68.8449,-54.7125 68.8449,-46.1124"/>
<polygon fill="black" stroke="black" points="72.345,-46.1043 68.8449,-36.1043 65.345,-46.1044 72.345,-46.1043"/>
</g>
<!-- 12 -->
<g id="node13" class="node"><title>12</title>
<g id="a_node13"><a xlink:title="12, diversity: 1, multiplicities: 1, labels: 3">
<ellipse fill="#228a44" stroke="black" cx="257.845" cy="-234" rx="41.6928" ry="18"/>
<text text-anchor="middle" x="257.845" y="-230.3" font-family="Times,serif" font-size="14.00">12 (1): 3</text>
</a>
</g>
</g>
<!-- 12&#45;&gt;2 -->
<g id="edge2" class="edge"><title>12&#45;&gt;2</title>
<path fill="none" stroke="black" d="M257.845,-215.697C257.845,-207.983 257.845,-198.712 257.845,-190.112"/>
<polygon fill="black" stroke="black" points="261.345,-190.104 257.845,-180.104 254.345,-190.104 261.345,-190.104"/>
</g>
<!-- 13&#45;&gt;12 -->
<g id="edge3" class="edge"><title>13&#45;&gt;12</title>
<path fill="none" stroke="black" d="M257.845,-287.697C257.845,-279.983 257.845,-270.712 257.845,-262.112"/>
<polygon fill="black" stroke="black" points="261.345,-262.104 257.845,-252.104 254.345,-262.104 261.345,-262.104"/>
</g>
<!-- 14&#45;&gt;11 -->
<g id="edge1" class="edge"><title>14&#45;&gt;11</title>
<path fill="none" stroke="black" d="M68.8449,-143.697C68.8449,-135.983 68.8449,-126.712 68.8449,-118.112"/>
<polygon fill="black" stroke="black" points="72.345,-118.104 68.8449,-108.104 65.345,-118.104 72.345,-118.104"/>
</g>
</g>
</svg>
