<?xml version="1.0" encoding="UTF-8" standalone="no"?>
<!DOCTYPE svg PUBLIC "-//W3C//DTD SVG 1.1//EN"
 "http://www.w3.org/Graphics/SVG/1.1/DTD/svg11.dtd">
<!-- Generated by graphviz version 2.38.0 (20140413.2041)
 -->
<!-- Title: %3 Pages: 1 -->
<svg width="1543pt" height="692pt"
 viewBox="0.00 0.00 1543.29 692.00" xmlns="http://www.w3.org/2000/svg" xmlns:xlink="http://www.w3.org/1999/xlink">
<g id="graph0" class="graph" transform="scale(1 1) rotate(0) translate(4 688)">
<title>%3</title>
<polygon fill="white" stroke="none" points="-4,4 -4,-688 1539.29,-688 1539.29,4 -4,4"/>
<!-- 0 -->
<g id="node1" class="node"><title>0</title>
<g id="a_node1"><a xlink:title="0, diversity: 1, multiplicities: 18, labels: 1,0">
<ellipse fill="#f7fcf5" stroke="black" cx="246.596" cy="-306" rx="44.393" ry="18"/>
<text text-anchor="middle" x="246.596" y="-302.3" font-family="Times,serif" font-size="14.00">0 (1): 1,0</text>
</a>
</g>
</g>
<!-- 1 -->
<g id="node2" class="node"><title>1</title>
<g id="a_node2"><a xlink:title="1, diversity: 1, multiplicities: 14, labels: 3">
<ellipse fill="#228a44" stroke="black" cx="142.596" cy="-450" rx="37.0935" ry="18"/>
<text text-anchor="middle" x="142.596" y="-446.3" font-family="Times,serif" font-size="14.00">1 (1): 3</text>
</a>
</g>
</g>
<!-- 20 -->
<g id="node21" class="node"><title>20</title>
<g id="a_node21"><a xlink:title="20, diversity: 1, multiplicities: 9, labels: 3">
<ellipse fill="#228a44" stroke="black" cx="41.5963" cy="-378" rx="41.6928" ry="18"/>
<text text-anchor="middle" x="41.5963" y="-374.3" font-family="Times,serif" font-size="14.00">20 (1): 3</text>
</a>
</g>
</g>
<!-- 1&#45;&gt;20 -->
<g id="edge12" class="edge"><title>1&#45;&gt;20</title>
<path fill="none" stroke="black" d="M122.157,-434.834C107.567,-424.722 87.7126,-410.962 71.3653,-399.632"/>
<polygon fill="black" stroke="black" points="72.9128,-396.446 62.7,-393.626 68.9253,-402.199 72.9128,-396.446"/>
</g>
<!-- 51 -->
<g id="node52" class="node"><title>51</title>
<g id="a_node52"><a xlink:title="51, diversity: 1, multiplicities: 1, labels: 2">
<ellipse fill="#73c476" stroke="black" cx="142.596" cy="-378" rx="41.6928" ry="18"/>
<text text-anchor="middle" x="142.596" y="-374.3" font-family="Times,serif" font-size="14.00">51 (1): 2</text>
</a>
</g>
</g>
<!-- 1&#45;&gt;51 -->
<g id="edge21" class="edge"><title>1&#45;&gt;51</title>
<path fill="none" stroke="black" d="M142.596,-431.697C142.596,-423.983 142.596,-414.712 142.596,-406.112"/>
<polygon fill="black" stroke="black" points="146.096,-406.104 142.596,-396.104 139.096,-406.104 146.096,-406.104"/>
</g>
<!-- 2 -->
<g id="node3" class="node"><title>2</title>
<g id="a_node3"><a xlink:title="2, diversity: 1, multiplicities: 26, labels: 3,2">
<ellipse fill="#73c476" stroke="black" cx="246.596" cy="-378" rx="44.393" ry="18"/>
<text text-anchor="middle" x="246.596" y="-374.3" font-family="Times,serif" font-size="14.00">2 (1): 3,2</text>
</a>
</g>
</g>
<!-- 2&#45;&gt;0 -->
<g id="edge47" class="edge"><title>2&#45;&gt;0</title>
<path fill="none" stroke="black" d="M246.596,-359.697C246.596,-351.983 246.596,-342.712 246.596,-334.112"/>
<polygon fill="black" stroke="black" points="250.096,-334.104 246.596,-324.104 243.096,-334.104 250.096,-334.104"/>
</g>
<!-- 3 -->
<g id="node4" class="node"><title>3</title>
<g id="a_node4"><a xlink:title="3, diversity: 1, multiplicities: 11, labels: 3">
<ellipse fill="#228a44" stroke="black" cx="345.596" cy="-378" rx="37.0935" ry="18"/>
<text text-anchor="middle" x="345.596" y="-374.3" font-family="Times,serif" font-size="14.00">3 (1): 3</text>
</a>
</g>
</g>
<!-- 4 -->
<g id="node5" class="node"><title>4</title>
<g id="a_node5"><a xlink:title="4, diversity: 1, multiplicities: 1, labels: 3">
<ellipse fill="#228a44" stroke="black" cx="345.596" cy="-522" rx="37.0935" ry="18"/>
<text text-anchor="middle" x="345.596" y="-518.3" font-family="Times,serif" font-size="14.00">4 (1): 3</text>
</a>
</g>
</g>
<!-- 4&#45;&gt;1 -->
<g id="edge26" class="edge"><title>4&#45;&gt;1</title>
<path fill="none" stroke="black" d="M316.078,-510.821C280.496,-498.552 220.599,-477.897 181.332,-464.357"/>
<polygon fill="black" stroke="black" points="182.415,-461.028 171.821,-461.077 180.133,-467.646 182.415,-461.028"/>
</g>
<!-- 6 -->
<g id="node7" class="node"><title>6</title>
<g id="a_node7"><a xlink:title="6, diversity: 1, multiplicities: 1, labels: 2">
<ellipse fill="#73c476" stroke="black" cx="345.596" cy="-450" rx="37.0935" ry="18"/>
<text text-anchor="middle" x="345.596" y="-446.3" font-family="Times,serif" font-size="14.00">6 (1): 2</text>
</a>
</g>
</g>
<!-- 4&#45;&gt;6 -->
<g id="edge42" class="edge"><title>4&#45;&gt;6</title>
<path fill="none" stroke="black" d="M345.596,-503.697C345.596,-495.983 345.596,-486.712 345.596,-478.112"/>
<polygon fill="black" stroke="black" points="349.096,-478.104 345.596,-468.104 342.096,-478.104 349.096,-478.104"/>
</g>
<!-- 5 -->
<g id="node6" class="node"><title>5</title>
<g id="a_node6"><a xlink:title="5, diversity: 1, multiplicities: 2, labels: 3">
<ellipse fill="#228a44" stroke="black" cx="437.596" cy="-378" rx="37.0935" ry="18"/>
<text text-anchor="middle" x="437.596" y="-374.3" font-family="Times,serif" font-size="14.00">5 (1): 3</text>
</a>
</g>
</g>
<!-- 28 -->
<g id="node29" class="node"><title>28</title>
<g id="a_node29"><a xlink:title="28, diversity: 1, multiplicities: 17, labels: 3">
<ellipse fill="#228a44" stroke="black" cx="394.596" cy="-306" rx="41.6928" ry="18"/>
<text text-anchor="middle" x="394.596" y="-302.3" font-family="Times,serif" font-size="14.00">28 (1): 3</text>
</a>
</g>
</g>
<!-- 5&#45;&gt;28 -->
<g id="edge39" class="edge"><title>5&#45;&gt;28</title>
<path fill="none" stroke="black" d="M427.406,-360.411C422.211,-351.955 415.786,-341.494 410.002,-332.078"/>
<polygon fill="black" stroke="black" points="412.93,-330.159 404.714,-323.47 406.966,-333.823 412.93,-330.159"/>
</g>
<!-- 6&#45;&gt;2 -->
<g id="edge9" class="edge"><title>6&#45;&gt;2</title>
<path fill="none" stroke="black" d="M325.562,-434.834C311.356,-424.79 292.059,-411.145 276.097,-399.859"/>
<polygon fill="black" stroke="black" points="277.812,-396.785 267.626,-393.869 273.77,-402.5 277.812,-396.785"/>
</g>
<!-- 6&#45;&gt;3 -->
<g id="edge20" class="edge"><title>6&#45;&gt;3</title>
<path fill="none" stroke="black" d="M345.596,-431.697C345.596,-423.983 345.596,-414.712 345.596,-406.112"/>
<polygon fill="black" stroke="black" points="349.096,-406.104 345.596,-396.104 342.096,-406.104 349.096,-406.104"/>
</g>
<!-- 6&#45;&gt;5 -->
<g id="edge40" class="edge"><title>6&#45;&gt;5</title>
<path fill="none" stroke="black" d="M364.659,-434.496C377.858,-424.453 395.625,-410.934 410.32,-399.754"/>
<polygon fill="black" stroke="black" points="412.719,-402.326 418.558,-393.485 408.481,-396.755 412.719,-402.326"/>
</g>
<!-- 7 -->
<g id="node8" class="node"><title>7</title>
<g id="a_node8"><a xlink:title="7, diversity: 1, multiplicities: 13, labels: 3,2">
<ellipse fill="#73c476" stroke="black" cx="579.596" cy="-378" rx="44.393" ry="18"/>
<text text-anchor="middle" x="579.596" y="-374.3" font-family="Times,serif" font-size="14.00">7 (1): 3,2</text>
</a>
</g>
</g>
<!-- 8 -->
<g id="node9" class="node"><title>8</title>
<g id="a_node9"><a xlink:title="8, diversity: 1, multiplicities: 12, labels: 3">
<ellipse fill="#228a44" stroke="black" cx="491.596" cy="-306" rx="37.0935" ry="18"/>
<text text-anchor="middle" x="491.596" y="-302.3" font-family="Times,serif" font-size="14.00">8 (1): 3</text>
</a>
</g>
</g>
<!-- 7&#45;&gt;8 -->
<g id="edge51" class="edge"><title>7&#45;&gt;8</title>
<path fill="none" stroke="black" d="M560.066,-361.465C547.738,-351.658 531.652,-338.862 518.169,-328.138"/>
<polygon fill="black" stroke="black" points="520.173,-325.259 510.168,-321.773 515.815,-330.737 520.173,-325.259"/>
</g>
<!-- 45 -->
<g id="node46" class="node"><title>45</title>
<g id="a_node46"><a xlink:title="45, diversity: 1, multiplicities: 1, labels: 3">
<ellipse fill="#228a44" stroke="black" cx="588.596" cy="-306" rx="41.6928" ry="18"/>
<text text-anchor="middle" x="588.596" y="-302.3" font-family="Times,serif" font-size="14.00">45 (1): 3</text>
</a>
</g>
</g>
<!-- 7&#45;&gt;45 -->
<g id="edge29" class="edge"><title>7&#45;&gt;45</title>
<path fill="none" stroke="black" d="M581.821,-359.697C582.813,-351.983 584.005,-342.712 585.11,-334.112"/>
<polygon fill="black" stroke="black" points="588.593,-334.469 586.397,-324.104 581.65,-333.576 588.593,-334.469"/>
</g>
<!-- 9 -->
<g id="node10" class="node"><title>9</title>
<g id="a_node10"><a xlink:title="9, diversity: 1, multiplicities: 55, labels: 1,3,2">
<ellipse fill="#c7e9c0" stroke="black" cx="1484.6" cy="-234" rx="50.8918" ry="18"/>
<text text-anchor="middle" x="1484.6" y="-230.3" font-family="Times,serif" font-size="14.00">9 (1): 1,3,2</text>
</a>
</g>
</g>
<!-- 10 -->
<g id="node11" class="node"><title>10</title>
<g id="a_node11"><a xlink:title="10, diversity: 1, multiplicities: 1, labels: 3">
<ellipse fill="#228a44" stroke="black" cx="1484.6" cy="-378" rx="41.6928" ry="18"/>
<text text-anchor="middle" x="1484.6" y="-374.3" font-family="Times,serif" font-size="14.00">10 (1): 3</text>
</a>
</g>
</g>
<!-- 11 -->
<g id="node12" class="node"><title>11</title>
<g id="a_node12"><a xlink:title="11, diversity: 1, multiplicities: 1, labels: 2">
<ellipse fill="#73c476" stroke="black" cx="1484.6" cy="-306" rx="41.6928" ry="18"/>
<text text-anchor="middle" x="1484.6" y="-302.3" font-family="Times,serif" font-size="14.00">11 (1): 2</text>
</a>
</g>
</g>
<!-- 10&#45;&gt;11 -->
<g id="edge3" class="edge"><title>10&#45;&gt;11</title>
<path fill="none" stroke="black" d="M1484.6,-359.697C1484.6,-351.983 1484.6,-342.712 1484.6,-334.112"/>
<polygon fill="black" stroke="black" points="1488.1,-334.104 1484.6,-324.104 1481.1,-334.104 1488.1,-334.104"/>
</g>
<!-- 11&#45;&gt;9 -->
<g id="edge34" class="edge"><title>11&#45;&gt;9</title>
<path fill="none" stroke="black" d="M1484.6,-287.697C1484.6,-279.983 1484.6,-270.712 1484.6,-262.112"/>
<polygon fill="black" stroke="black" points="1488.1,-262.104 1484.6,-252.104 1481.1,-262.104 1488.1,-262.104"/>
</g>
<!-- 12 -->
<g id="node13" class="node"><title>12</title>
<g id="a_node13"><a xlink:title="12, diversity: 1, multiplicities: 1, labels: 2">
<ellipse fill="#73c476" stroke="black" cx="1167.6" cy="-90" rx="41.6928" ry="18"/>
<text text-anchor="middle" x="1167.6" y="-86.3" font-family="Times,serif" font-size="14.00">12 (1): 2</text>
</a>
</g>
</g>
<!-- 13 -->
<g id="node14" class="node"><title>13</title>
<g id="a_node14"><a xlink:title="13, diversity: 1, multiplicities: 42, labels: 2">
<ellipse fill="#73c476" stroke="black" cx="1167.6" cy="-18" rx="41.6928" ry="18"/>
<text text-anchor="middle" x="1167.6" y="-14.3" font-family="Times,serif" font-size="14.00">13 (1): 2</text>
</a>
</g>
</g>
<!-- 12&#45;&gt;13 -->
<g id="edge18" class="edge"><title>12&#45;&gt;13</title>
<path fill="none" stroke="black" d="M1167.6,-71.6966C1167.6,-63.9827 1167.6,-54.7125 1167.6,-46.1124"/>
<polygon fill="black" stroke="black" points="1171.1,-46.1043 1167.6,-36.1043 1164.1,-46.1044 1171.1,-46.1043"/>
</g>
<!-- 14 -->
<g id="node15" class="node"><title>14</title>
<g id="a_node15"><a xlink:title="14, diversity: 1, multiplicities: 22, labels: 3">
<ellipse fill="#228a44" stroke="black" cx="1383.6" cy="-306" rx="41.6928" ry="18"/>
<text text-anchor="middle" x="1383.6" y="-302.3" font-family="Times,serif" font-size="14.00">14 (1): 3</text>
</a>
</g>
</g>
<!-- 15 -->
<g id="node16" class="node"><title>15</title>
<g id="a_node16"><a xlink:title="15, diversity: 3, multiplicities: 1,1,439, labels: 1,0,3,2">
<ellipse fill="#f7fcf5" stroke="black" cx="1113.6" cy="-594" rx="61.99" ry="18"/>
<text text-anchor="middle" x="1113.6" y="-590.3" font-family="Times,serif" font-size="14.00">15 (3): 1,0,3,2</text>
</a>
</g>
</g>
<!-- 15&#45;&gt;4 -->
<g id="edge24" class="edge"><title>15&#45;&gt;4</title>
<path fill="none" stroke="black" d="M1055.56,-587.71C908.917,-574.344 525.736,-539.419 392.258,-527.253"/>
<polygon fill="black" stroke="black" points="392.249,-523.738 381.973,-526.316 391.614,-530.709 392.249,-523.738"/>
</g>
<!-- 18 -->
<g id="node19" class="node"><title>18</title>
<g id="a_node19"><a xlink:title="18, diversity: 2, multiplicities: 8,15, labels: 0,3,2">
<ellipse fill="#f7fcf5" stroke="black" cx="709.596" cy="-522" rx="55.4913" ry="18"/>
<text text-anchor="middle" x="709.596" y="-518.3" font-family="Times,serif" font-size="14.00">18 (2): 0,3,2</text>
</a>
</g>
</g>
<!-- 15&#45;&gt;18 -->
<g id="edge23" class="edge"><title>15&#45;&gt;18</title>
<path fill="none" stroke="black" d="M1062.02,-584.063C986.49,-570.977 846.234,-546.675 767.346,-533.006"/>
<polygon fill="black" stroke="black" points="767.553,-529.49 757.103,-531.231 766.358,-536.387 767.553,-529.49"/>
</g>
<!-- 27 -->
<g id="node28" class="node"><title>27</title>
<g id="a_node28"><a xlink:title="27, diversity: 1, multiplicities: 3, labels: 3,2">
<ellipse fill="#73c476" stroke="black" cx="951.596" cy="-522" rx="48.1917" ry="18"/>
<text text-anchor="middle" x="951.596" y="-518.3" font-family="Times,serif" font-size="14.00">27 (1): 3,2</text>
</a>
</g>
</g>
<!-- 15&#45;&gt;27 -->
<g id="edge1" class="edge"><title>15&#45;&gt;27</title>
<path fill="none" stroke="black" d="M1080.42,-578.666C1054.59,-567.502 1018.64,-551.969 991.279,-540.147"/>
<polygon fill="black" stroke="black" points="992.558,-536.887 981.99,-536.133 989.781,-543.313 992.558,-536.887"/>
</g>
<!-- 30 -->
<g id="node31" class="node"><title>30</title>
<g id="a_node31"><a xlink:title="30, diversity: 1, multiplicities: 1, labels: 2">
<ellipse fill="#73c476" stroke="black" cx="1059.6" cy="-522" rx="41.6928" ry="18"/>
<text text-anchor="middle" x="1059.6" y="-518.3" font-family="Times,serif" font-size="14.00">30 (1): 2</text>
</a>
</g>
</g>
<!-- 15&#45;&gt;30 -->
<g id="edge19" class="edge"><title>15&#45;&gt;30</title>
<path fill="none" stroke="black" d="M1100.52,-576.055C1093.86,-567.418 1085.64,-556.76 1078.32,-547.268"/>
<polygon fill="black" stroke="black" points="1081.06,-545.087 1072.18,-539.307 1075.51,-549.363 1081.06,-545.087"/>
</g>
<!-- 34 -->
<g id="node35" class="node"><title>34</title>
<g id="a_node35"><a xlink:title="34, diversity: 1, multiplicities: 47, labels: 0,3">
<ellipse fill="#f7fcf5" stroke="black" cx="1167.6" cy="-522" rx="48.1917" ry="18"/>
<text text-anchor="middle" x="1167.6" y="-518.3" font-family="Times,serif" font-size="14.00">34 (1): 0,3</text>
</a>
</g>
</g>
<!-- 15&#45;&gt;34 -->
<g id="edge32" class="edge"><title>15&#45;&gt;34</title>
<path fill="none" stroke="black" d="M1126.67,-576.055C1133.17,-567.629 1141.15,-557.28 1148.34,-547.966"/>
<polygon fill="black" stroke="black" points="1151.31,-549.845 1154.64,-539.789 1145.77,-545.569 1151.31,-549.845"/>
</g>
<!-- 39 -->
<g id="node40" class="node"><title>39</title>
<g id="a_node40"><a xlink:title="39, diversity: 1, multiplicities: 9, labels: 2">
<ellipse fill="#73c476" stroke="black" cx="1275.6" cy="-522" rx="41.6928" ry="18"/>
<text text-anchor="middle" x="1275.6" y="-518.3" font-family="Times,serif" font-size="14.00">39 (1): 2</text>
</a>
</g>
</g>
<!-- 15&#45;&gt;39 -->
<g id="edge22" class="edge"><title>15&#45;&gt;39</title>
<path fill="none" stroke="black" d="M1146.77,-578.666C1173.27,-567.216 1210.4,-551.169 1238,-539.245"/>
<polygon fill="black" stroke="black" points="1239.54,-542.393 1247.33,-535.213 1236.76,-535.967 1239.54,-542.393"/>
</g>
<!-- 43 -->
<g id="node44" class="node"><title>43</title>
<g id="a_node44"><a xlink:title="43, diversity: 1, multiplicities: 1, labels: 3">
<ellipse fill="#228a44" stroke="black" cx="1376.6" cy="-522" rx="41.6928" ry="18"/>
<text text-anchor="middle" x="1376.6" y="-518.3" font-family="Times,serif" font-size="14.00">43 (1): 3</text>
</a>
</g>
</g>
<!-- 15&#45;&gt;43 -->
<g id="edge8" class="edge"><title>15&#45;&gt;43</title>
<path fill="none" stroke="black" d="M1161.28,-582.343C1204.65,-572.364 1270.29,-556.545 1326.6,-540 1329.58,-539.124 1332.65,-538.181 1335.73,-537.205"/>
<polygon fill="black" stroke="black" points="1337.09,-540.442 1345.52,-534.016 1334.93,-533.786 1337.09,-540.442"/>
</g>
<!-- 54 -->
<g id="node55" class="node"><title>54</title>
<g id="a_node55"><a xlink:title="54, diversity: 1, multiplicities: 7, labels: 2">
<ellipse fill="#73c476" stroke="black" cx="1477.6" cy="-522" rx="41.6928" ry="18"/>
<text text-anchor="middle" x="1477.6" y="-518.3" font-family="Times,serif" font-size="14.00">54 (1): 2</text>
</a>
</g>
</g>
<!-- 15&#45;&gt;54 -->
<g id="edge16" class="edge"><title>15&#45;&gt;54</title>
<path fill="none" stroke="black" d="M1169.46,-586.327C1232.69,-578.139 1338.49,-562.514 1427.6,-540 1430.75,-539.203 1433.99,-538.3 1437.24,-537.335"/>
<polygon fill="black" stroke="black" points="1438.4,-540.64 1446.89,-534.304 1436.3,-533.962 1438.4,-540.64"/>
</g>
<!-- 16 -->
<g id="node17" class="node"><title>16</title>
<g id="a_node17"><a xlink:title="16, diversity: 1, multiplicities: 16, labels: 0,3,2">
<ellipse fill="#f7fcf5" stroke="black" cx="1052.6" cy="-234" rx="55.4913" ry="18"/>
<text text-anchor="middle" x="1052.6" y="-230.3" font-family="Times,serif" font-size="14.00">16 (1): 0,3,2</text>
</a>
</g>
</g>
<!-- 17 -->
<g id="node18" class="node"><title>17</title>
<g id="a_node18"><a xlink:title="17, diversity: 1, multiplicities: 65, labels: 0,2">
<ellipse fill="#f7fcf5" stroke="black" cx="1059.6" cy="-378" rx="48.1917" ry="18"/>
<text text-anchor="middle" x="1059.6" y="-374.3" font-family="Times,serif" font-size="14.00">17 (1): 0,2</text>
</a>
</g>
</g>
<!-- 22 -->
<g id="node23" class="node"><title>22</title>
<g id="a_node23"><a xlink:title="22, diversity: 1, multiplicities: 24, labels: 3">
<ellipse fill="#228a44" stroke="black" cx="493.596" cy="-450" rx="41.6928" ry="18"/>
<text text-anchor="middle" x="493.596" y="-446.3" font-family="Times,serif" font-size="14.00">22 (1): 3</text>
</a>
</g>
</g>
<!-- 18&#45;&gt;22 -->
<g id="edge2" class="edge"><title>18&#45;&gt;22</title>
<path fill="none" stroke="black" d="M671.548,-508.908C638.08,-498.242 588.061,-482.224 544.596,-468 541.492,-466.984 538.283,-465.928 535.056,-464.862"/>
<polygon fill="black" stroke="black" points="536.002,-461.488 525.409,-461.664 533.799,-468.133 536.002,-461.488"/>
</g>
<!-- 23 -->
<g id="node24" class="node"><title>23</title>
<g id="a_node24"><a xlink:title="23, diversity: 1, multiplicities: 15, labels: 3,2">
<ellipse fill="#73c476" stroke="black" cx="601.596" cy="-450" rx="48.1917" ry="18"/>
<text text-anchor="middle" x="601.596" y="-446.3" font-family="Times,serif" font-size="14.00">23 (1): 3,2</text>
</a>
</g>
</g>
<!-- 18&#45;&gt;23 -->
<g id="edge14" class="edge"><title>18&#45;&gt;23</title>
<path fill="none" stroke="black" d="M685.895,-505.638C670.35,-495.562 649.851,-482.276 632.96,-471.328"/>
<polygon fill="black" stroke="black" points="634.797,-468.348 624.501,-465.846 630.989,-474.222 634.797,-468.348"/>
</g>
<!-- 26 -->
<g id="node27" class="node"><title>26</title>
<g id="a_node27"><a xlink:title="26, diversity: 1, multiplicities: 14, labels: 3">
<ellipse fill="#228a44" stroke="black" cx="709.596" cy="-450" rx="41.6928" ry="18"/>
<text text-anchor="middle" x="709.596" y="-446.3" font-family="Times,serif" font-size="14.00">26 (1): 3</text>
</a>
</g>
</g>
<!-- 18&#45;&gt;26 -->
<g id="edge7" class="edge"><title>18&#45;&gt;26</title>
<path fill="none" stroke="black" d="M709.596,-503.697C709.596,-495.983 709.596,-486.712 709.596,-478.112"/>
<polygon fill="black" stroke="black" points="713.096,-478.104 709.596,-468.104 706.096,-478.104 713.096,-478.104"/>
</g>
<!-- 35 -->
<g id="node36" class="node"><title>35</title>
<g id="a_node36"><a xlink:title="35, diversity: 1, multiplicities: 25, labels: 0,3,2">
<ellipse fill="#f7fcf5" stroke="black" cx="824.596" cy="-450" rx="55.4913" ry="18"/>
<text text-anchor="middle" x="824.596" y="-446.3" font-family="Times,serif" font-size="14.00">35 (1): 0,3,2</text>
</a>
</g>
</g>
<!-- 18&#45;&gt;35 -->
<g id="edge30" class="edge"><title>18&#45;&gt;35</title>
<path fill="none" stroke="black" d="M734.55,-505.811C750.976,-495.813 772.686,-482.598 790.673,-471.649"/>
<polygon fill="black" stroke="black" points="792.97,-474.349 799.692,-466.159 789.33,-468.369 792.97,-474.349"/>
</g>
<!-- 19 -->
<g id="node20" class="node"><title>19</title>
<g id="a_node20"><a xlink:title="19, diversity: 1, multiplicities: 5, labels: 3,2">
<ellipse fill="#73c476" stroke="black" cx="1113.6" cy="-666" rx="48.1917" ry="18"/>
<text text-anchor="middle" x="1113.6" y="-662.3" font-family="Times,serif" font-size="14.00">19 (1): 3,2</text>
</a>
</g>
</g>
<!-- 19&#45;&gt;15 -->
<g id="edge44" class="edge"><title>19&#45;&gt;15</title>
<path fill="none" stroke="black" d="M1113.6,-647.697C1113.6,-639.983 1113.6,-630.712 1113.6,-622.112"/>
<polygon fill="black" stroke="black" points="1117.1,-622.104 1113.6,-612.104 1110.1,-622.104 1117.1,-622.104"/>
</g>
<!-- 21 -->
<g id="node22" class="node"><title>21</title>
<g id="a_node22"><a xlink:title="21, diversity: 1, multiplicities: 8, labels: 3">
<ellipse fill="#228a44" stroke="black" cx="1167.6" cy="-306" rx="41.6928" ry="18"/>
<text text-anchor="middle" x="1167.6" y="-302.3" font-family="Times,serif" font-size="14.00">21 (1): 3</text>
</a>
</g>
</g>
<!-- 21&#45;&gt;16 -->
<g id="edge10" class="edge"><title>21&#45;&gt;16</title>
<path fill="none" stroke="black" d="M1144.32,-290.834C1127.63,-280.672 1104.88,-266.826 1086.22,-255.464"/>
<polygon fill="black" stroke="black" points="1087.79,-252.323 1077.43,-250.114 1084.15,-258.303 1087.79,-252.323"/>
</g>
<!-- 24 -->
<g id="node25" class="node"><title>24</title>
<g id="a_node25"><a xlink:title="24, diversity: 1, multiplicities: 2, labels: 3">
<ellipse fill="#228a44" stroke="black" cx="1167.6" cy="-234" rx="41.6928" ry="18"/>
<text text-anchor="middle" x="1167.6" y="-230.3" font-family="Times,serif" font-size="14.00">24 (1): 3</text>
</a>
</g>
</g>
<!-- 21&#45;&gt;24 -->
<g id="edge53" class="edge"><title>21&#45;&gt;24</title>
<path fill="none" stroke="black" d="M1167.6,-287.697C1167.6,-279.983 1167.6,-270.712 1167.6,-262.112"/>
<polygon fill="black" stroke="black" points="1171.1,-262.104 1167.6,-252.104 1164.1,-262.104 1171.1,-262.104"/>
</g>
<!-- 53 -->
<g id="node54" class="node"><title>53</title>
<g id="a_node54"><a xlink:title="53, diversity: 1, multiplicities: 12, labels: 2">
<ellipse fill="#73c476" stroke="black" cx="1268.6" cy="-234" rx="41.6928" ry="18"/>
<text text-anchor="middle" x="1268.6" y="-230.3" font-family="Times,serif" font-size="14.00">53 (1): 2</text>
</a>
</g>
</g>
<!-- 21&#45;&gt;53 -->
<g id="edge17" class="edge"><title>21&#45;&gt;53</title>
<path fill="none" stroke="black" d="M1189.02,-290.155C1203.58,-280.064 1223.03,-266.583 1239.05,-255.474"/>
<polygon fill="black" stroke="black" points="1241.33,-258.157 1247.55,-249.584 1237.34,-252.403 1241.33,-258.157"/>
</g>
<!-- 50 -->
<g id="node51" class="node"><title>50</title>
<g id="a_node51"><a xlink:title="50, diversity: 1, multiplicities: 1, labels: 2">
<ellipse fill="#73c476" stroke="black" cx="1167.6" cy="-162" rx="41.6928" ry="18"/>
<text text-anchor="middle" x="1167.6" y="-158.3" font-family="Times,serif" font-size="14.00">50 (1): 2</text>
</a>
</g>
</g>
<!-- 24&#45;&gt;50 -->
<g id="edge4" class="edge"><title>24&#45;&gt;50</title>
<path fill="none" stroke="black" d="M1167.6,-215.697C1167.6,-207.983 1167.6,-198.712 1167.6,-190.112"/>
<polygon fill="black" stroke="black" points="1171.1,-190.104 1167.6,-180.104 1164.1,-190.104 1171.1,-190.104"/>
</g>
<!-- 25 -->
<g id="node26" class="node"><title>25</title>
<g id="a_node26"><a xlink:title="25, diversity: 1, multiplicities: 4, labels: 3">
<ellipse fill="#228a44" stroke="black" cx="1167.6" cy="-378" rx="41.6928" ry="18"/>
<text text-anchor="middle" x="1167.6" y="-374.3" font-family="Times,serif" font-size="14.00">25 (1): 3</text>
</a>
</g>
</g>
<!-- 25&#45;&gt;21 -->
<g id="edge38" class="edge"><title>25&#45;&gt;21</title>
<path fill="none" stroke="black" d="M1167.6,-359.697C1167.6,-351.983 1167.6,-342.712 1167.6,-334.112"/>
<polygon fill="black" stroke="black" points="1171.1,-334.104 1167.6,-324.104 1164.1,-334.104 1171.1,-334.104"/>
</g>
<!-- 44 -->
<g id="node45" class="node"><title>44</title>
<g id="a_node45"><a xlink:title="44, diversity: 1, multiplicities: 7, labels: 2">
<ellipse fill="#73c476" stroke="black" cx="951.596" cy="-450" rx="41.6928" ry="18"/>
<text text-anchor="middle" x="951.596" y="-446.3" font-family="Times,serif" font-size="14.00">44 (1): 2</text>
</a>
</g>
</g>
<!-- 27&#45;&gt;44 -->
<g id="edge35" class="edge"><title>27&#45;&gt;44</title>
<path fill="none" stroke="black" d="M951.596,-503.697C951.596,-495.983 951.596,-486.712 951.596,-478.112"/>
<polygon fill="black" stroke="black" points="955.096,-478.104 951.596,-468.104 948.096,-478.104 955.096,-478.104"/>
</g>
<!-- 29 -->
<g id="node30" class="node"><title>29</title>
<g id="a_node30"><a xlink:title="29, diversity: 1, multiplicities: 1, labels: 2">
<ellipse fill="#73c476" stroke="black" cx="1059.6" cy="-450" rx="41.6928" ry="18"/>
<text text-anchor="middle" x="1059.6" y="-446.3" font-family="Times,serif" font-size="14.00">29 (1): 2</text>
</a>
</g>
</g>
<!-- 29&#45;&gt;17 -->
<g id="edge28" class="edge"><title>29&#45;&gt;17</title>
<path fill="none" stroke="black" d="M1059.6,-431.697C1059.6,-423.983 1059.6,-414.712 1059.6,-406.112"/>
<polygon fill="black" stroke="black" points="1063.1,-406.104 1059.6,-396.104 1056.1,-406.104 1063.1,-406.104"/>
</g>
<!-- 30&#45;&gt;29 -->
<g id="edge37" class="edge"><title>30&#45;&gt;29</title>
<path fill="none" stroke="black" d="M1059.6,-503.697C1059.6,-495.983 1059.6,-486.712 1059.6,-478.112"/>
<polygon fill="black" stroke="black" points="1063.1,-478.104 1059.6,-468.104 1056.1,-478.104 1063.1,-478.104"/>
</g>
<!-- 31 -->
<g id="node32" class="node"><title>31</title>
<g id="a_node32"><a xlink:title="31, diversity: 1, multiplicities: 1, labels: 0">
<ellipse fill="#f7fcf5" stroke="black" cx="696.596" cy="-234" rx="41.6928" ry="18"/>
<text text-anchor="middle" x="696.596" y="-230.3" font-family="Times,serif" font-size="14.00">31 (1): 0</text>
</a>
</g>
</g>
<!-- 41 -->
<g id="node42" class="node"><title>41</title>
<g id="a_node42"><a xlink:title="41, diversity: 1, multiplicities: 1, labels: 2">
<ellipse fill="#73c476" stroke="black" cx="696.596" cy="-162" rx="41.6928" ry="18"/>
<text text-anchor="middle" x="696.596" y="-158.3" font-family="Times,serif" font-size="14.00">41 (1): 2</text>
</a>
</g>
</g>
<!-- 31&#45;&gt;41 -->
<g id="edge46" class="edge"><title>31&#45;&gt;41</title>
<path fill="none" stroke="black" d="M696.596,-215.697C696.596,-207.983 696.596,-198.712 696.596,-190.112"/>
<polygon fill="black" stroke="black" points="700.096,-190.104 696.596,-180.104 693.096,-190.104 700.096,-190.104"/>
</g>
<!-- 32 -->
<g id="node33" class="node"><title>32</title>
<g id="a_node33"><a xlink:title="32, diversity: 1, multiplicities: 11, labels: 1,3,2">
<ellipse fill="#c7e9c0" stroke="black" cx="696.596" cy="-378" rx="55.4913" ry="18"/>
<text text-anchor="middle" x="696.596" y="-374.3" font-family="Times,serif" font-size="14.00">32 (1): 1,3,2</text>
</a>
</g>
</g>
<!-- 33 -->
<g id="node34" class="node"><title>33</title>
<g id="a_node34"><a xlink:title="33, diversity: 1, multiplicities: 18, labels: 3,2">
<ellipse fill="#73c476" stroke="black" cx="696.596" cy="-306" rx="48.1917" ry="18"/>
<text text-anchor="middle" x="696.596" y="-302.3" font-family="Times,serif" font-size="14.00">33 (1): 3,2</text>
</a>
</g>
</g>
<!-- 32&#45;&gt;33 -->
<g id="edge27" class="edge"><title>32&#45;&gt;33</title>
<path fill="none" stroke="black" d="M696.596,-359.697C696.596,-351.983 696.596,-342.712 696.596,-334.112"/>
<polygon fill="black" stroke="black" points="700.096,-334.104 696.596,-324.104 693.096,-334.104 700.096,-334.104"/>
</g>
<!-- 47 -->
<g id="node48" class="node"><title>47</title>
<g id="a_node48"><a xlink:title="47, diversity: 1, multiplicities: 6, labels: 2">
<ellipse fill="#73c476" stroke="black" cx="804.596" cy="-306" rx="41.6928" ry="18"/>
<text text-anchor="middle" x="804.596" y="-302.3" font-family="Times,serif" font-size="14.00">47 (1): 2</text>
</a>
</g>
</g>
<!-- 32&#45;&gt;47 -->
<g id="edge43" class="edge"><title>32&#45;&gt;47</title>
<path fill="none" stroke="black" d="M720.297,-361.638C736.054,-351.425 756.9,-337.914 773.92,-326.883"/>
<polygon fill="black" stroke="black" points="775.936,-329.747 782.424,-321.371 772.129,-323.873 775.936,-329.747"/>
</g>
<!-- 33&#45;&gt;31 -->
<g id="edge54" class="edge"><title>33&#45;&gt;31</title>
<path fill="none" stroke="black" d="M696.596,-287.697C696.596,-279.983 696.596,-270.712 696.596,-262.112"/>
<polygon fill="black" stroke="black" points="700.096,-262.104 696.596,-252.104 693.096,-262.104 700.096,-262.104"/>
</g>
<!-- 35&#45;&gt;7 -->
<g id="edge25" class="edge"><title>35&#45;&gt;7</title>
<path fill="none" stroke="black" d="M783.267,-437.805C735.746,-424.895 660.68,-404.376 632.596,-396 629.302,-395.017 625.899,-393.98 622.482,-392.921"/>
<polygon fill="black" stroke="black" points="623.482,-389.566 612.893,-389.91 621.386,-396.245 623.482,-389.566"/>
</g>
<!-- 35&#45;&gt;32 -->
<g id="edge33" class="edge"><title>35&#45;&gt;32</title>
<path fill="none" stroke="black" d="M797.451,-434.155C778.529,-423.807 753.087,-409.893 732.491,-398.63"/>
<polygon fill="black" stroke="black" points="734.156,-395.551 723.703,-393.824 730.797,-401.693 734.156,-395.551"/>
</g>
<!-- 37 -->
<g id="node38" class="node"><title>37</title>
<g id="a_node38"><a xlink:title="37, diversity: 1, multiplicities: 10, labels: 0,3,2">
<ellipse fill="#f7fcf5" stroke="black" cx="824.596" cy="-378" rx="55.4913" ry="18"/>
<text text-anchor="middle" x="824.596" y="-374.3" font-family="Times,serif" font-size="14.00">37 (1): 0,3,2</text>
</a>
</g>
</g>
<!-- 35&#45;&gt;37 -->
<g id="edge13" class="edge"><title>35&#45;&gt;37</title>
<path fill="none" stroke="black" d="M824.596,-431.697C824.596,-423.983 824.596,-414.712 824.596,-406.112"/>
<polygon fill="black" stroke="black" points="828.096,-406.104 824.596,-396.104 821.096,-406.104 828.096,-406.104"/>
</g>
<!-- 48 -->
<g id="node49" class="node"><title>48</title>
<g id="a_node49"><a xlink:title="48, diversity: 1, multiplicities: 5, labels: 3,2">
<ellipse fill="#73c476" stroke="black" cx="945.596" cy="-378" rx="48.1917" ry="18"/>
<text text-anchor="middle" x="945.596" y="-374.3" font-family="Times,serif" font-size="14.00">48 (1): 3,2</text>
</a>
</g>
</g>
<!-- 35&#45;&gt;48 -->
<g id="edge50" class="edge"><title>35&#45;&gt;48</title>
<path fill="none" stroke="black" d="M850.554,-433.983C868.418,-423.649 892.325,-409.818 911.692,-398.614"/>
<polygon fill="black" stroke="black" points="913.607,-401.55 920.51,-393.513 910.102,-395.491 913.607,-401.55"/>
</g>
<!-- 36 -->
<g id="node37" class="node"><title>36</title>
<g id="a_node37"><a xlink:title="36, diversity: 1, multiplicities: 145, labels: 1,2">
<ellipse fill="#c7e9c0" stroke="black" cx="1275.6" cy="-450" rx="48.1917" ry="18"/>
<text text-anchor="middle" x="1275.6" y="-446.3" font-family="Times,serif" font-size="14.00">36 (1): 1,2</text>
</a>
</g>
</g>
<!-- 36&#45;&gt;25 -->
<g id="edge49" class="edge"><title>36&#45;&gt;25</title>
<path fill="none" stroke="black" d="M1252.69,-434.155C1236.87,-423.902 1215.66,-410.149 1198.36,-398.942"/>
<polygon fill="black" stroke="black" points="1200.02,-395.847 1189.73,-393.345 1196.22,-401.721 1200.02,-395.847"/>
</g>
<!-- 38 -->
<g id="node39" class="node"><title>38</title>
<g id="a_node39"><a xlink:title="38, diversity: 1, multiplicities: 8, labels: 3,2">
<ellipse fill="#73c476" stroke="black" cx="1275.6" cy="-378" rx="48.1917" ry="18"/>
<text text-anchor="middle" x="1275.6" y="-374.3" font-family="Times,serif" font-size="14.00">38 (1): 3,2</text>
</a>
</g>
</g>
<!-- 36&#45;&gt;38 -->
<g id="edge41" class="edge"><title>36&#45;&gt;38</title>
<path fill="none" stroke="black" d="M1275.6,-431.697C1275.6,-423.983 1275.6,-414.712 1275.6,-406.112"/>
<polygon fill="black" stroke="black" points="1279.1,-406.104 1275.6,-396.104 1272.1,-406.104 1279.1,-406.104"/>
</g>
<!-- 52 -->
<g id="node53" class="node"><title>52</title>
<g id="a_node53"><a xlink:title="52, diversity: 1, multiplicities: 1, labels: 2">
<ellipse fill="#73c476" stroke="black" cx="1383.6" cy="-378" rx="41.6928" ry="18"/>
<text text-anchor="middle" x="1383.6" y="-374.3" font-family="Times,serif" font-size="14.00">52 (1): 2</text>
</a>
</g>
</g>
<!-- 36&#45;&gt;52 -->
<g id="edge11" class="edge"><title>36&#45;&gt;52</title>
<path fill="none" stroke="black" d="M1298.5,-434.155C1314.32,-423.902 1335.54,-410.149 1352.83,-398.942"/>
<polygon fill="black" stroke="black" points="1354.98,-401.721 1361.46,-393.345 1351.17,-395.847 1354.98,-401.721"/>
</g>
<!-- 39&#45;&gt;36 -->
<g id="edge15" class="edge"><title>39&#45;&gt;36</title>
<path fill="none" stroke="black" d="M1275.6,-503.697C1275.6,-495.983 1275.6,-486.712 1275.6,-478.112"/>
<polygon fill="black" stroke="black" points="1279.1,-478.104 1275.6,-468.104 1272.1,-478.104 1279.1,-478.104"/>
</g>
<!-- 40 -->
<g id="node41" class="node"><title>40</title>
<g id="a_node41"><a xlink:title="40, diversity: 1, multiplicities: 16, labels: 0,2">
<ellipse fill="#f7fcf5" stroke="black" cx="696.596" cy="-90" rx="48.1917" ry="18"/>
<text text-anchor="middle" x="696.596" y="-86.3" font-family="Times,serif" font-size="14.00">40 (1): 0,2</text>
</a>
</g>
</g>
<!-- 41&#45;&gt;40 -->
<g id="edge6" class="edge"><title>41&#45;&gt;40</title>
<path fill="none" stroke="black" d="M696.596,-143.697C696.596,-135.983 696.596,-126.712 696.596,-118.112"/>
<polygon fill="black" stroke="black" points="700.096,-118.104 696.596,-108.104 693.096,-118.104 700.096,-118.104"/>
</g>
<!-- 42 -->
<g id="node43" class="node"><title>42</title>
<g id="a_node43"><a xlink:title="42, diversity: 1, multiplicities: 1, labels: 0">
<ellipse fill="#f7fcf5" stroke="black" cx="1433.6" cy="-450" rx="41.6928" ry="18"/>
<text text-anchor="middle" x="1433.6" y="-446.3" font-family="Times,serif" font-size="14.00">42 (1): 0</text>
</a>
</g>
</g>
<!-- 42&#45;&gt;10 -->
<g id="edge5" class="edge"><title>42&#45;&gt;10</title>
<path fill="none" stroke="black" d="M1445.68,-432.411C1451.91,-423.868 1459.62,-413.278 1466.54,-403.787"/>
<polygon fill="black" stroke="black" points="1469.54,-405.613 1472.6,-395.47 1463.88,-401.491 1469.54,-405.613"/>
</g>
<!-- 43&#45;&gt;42 -->
<g id="edge36" class="edge"><title>43&#45;&gt;42</title>
<path fill="none" stroke="black" d="M1389.82,-504.765C1397.01,-495.93 1406.05,-484.83 1414.04,-475.014"/>
<polygon fill="black" stroke="black" points="1416.85,-477.112 1420.45,-467.147 1411.42,-472.692 1416.85,-477.112"/>
</g>
<!-- 46 -->
<g id="node47" class="node"><title>46</title>
<g id="a_node47"><a xlink:title="46, diversity: 1, multiplicities: 6, labels: 3,2">
<ellipse fill="#73c476" stroke="black" cx="588.596" cy="-234" rx="48.1917" ry="18"/>
<text text-anchor="middle" x="588.596" y="-230.3" font-family="Times,serif" font-size="14.00">46 (1): 3,2</text>
</a>
</g>
</g>
<!-- 45&#45;&gt;46 -->
<g id="edge45" class="edge"><title>45&#45;&gt;46</title>
<path fill="none" stroke="black" d="M588.596,-287.697C588.596,-279.983 588.596,-270.712 588.596,-262.112"/>
<polygon fill="black" stroke="black" points="592.096,-262.104 588.596,-252.104 585.096,-262.104 592.096,-262.104"/>
</g>
<!-- 49 -->
<g id="node50" class="node"><title>49</title>
<g id="a_node50"><a xlink:title="49, diversity: 1, multiplicities: 90, labels: 2">
<ellipse fill="#73c476" stroke="black" cx="142.596" cy="-306" rx="41.6928" ry="18"/>
<text text-anchor="middle" x="142.596" y="-302.3" font-family="Times,serif" font-size="14.00">49 (1): 2</text>
</a>
</g>
</g>
<!-- 50&#45;&gt;12 -->
<g id="edge31" class="edge"><title>50&#45;&gt;12</title>
<path fill="none" stroke="black" d="M1167.6,-143.697C1167.6,-135.983 1167.6,-126.712 1167.6,-118.112"/>
<polygon fill="black" stroke="black" points="1171.1,-118.104 1167.6,-108.104 1164.1,-118.104 1171.1,-118.104"/>
</g>
<!-- 51&#45;&gt;49 -->
<g id="edge48" class="edge"><title>51&#45;&gt;49</title>
<path fill="none" stroke="black" d="M142.596,-359.697C142.596,-351.983 142.596,-342.712 142.596,-334.112"/>
<polygon fill="black" stroke="black" points="146.096,-334.104 142.596,-324.104 139.096,-334.104 146.096,-334.104"/>
</g>
<!-- 52&#45;&gt;14 -->
<g id="edge52" class="edge"><title>52&#45;&gt;14</title>
<path fill="none" stroke="black" d="M1383.6,-359.697C1383.6,-351.983 1383.6,-342.712 1383.6,-334.112"/>
<polygon fill="black" stroke="black" points="1387.1,-334.104 1383.6,-324.104 1380.1,-334.104 1387.1,-334.104"/>
</g>
</g>
</svg>
