<?xml version="1.0" encoding="UTF-8" standalone="no"?>
<!DOCTYPE svg PUBLIC "-//W3C//DTD SVG 1.1//EN"
 "http://www.w3.org/Graphics/SVG/1.1/DTD/svg11.dtd">
<!-- Generated by graphviz version 2.40.1 (20161225.0304)
 -->
<!-- Title: %3 Pages: 1 -->
<svg width="665pt" height="1052pt"
 viewBox="0.00 0.00 665.00 1052.00" xmlns="http://www.w3.org/2000/svg" xmlns:xlink="http://www.w3.org/1999/xlink">
<g id="graph0" class="graph" transform="scale(1 1) rotate(0) translate(4 1048)">
<title>%3</title>
<polygon fill="#ffffff" stroke="transparent" points="-4,4 -4,-1048 661,-1048 661,4 -4,4"/>
<!-- 0 -->
<g id="node1" class="node">
<title>0</title>
<g id="a_node1"><a xlink:title="Y">
<ellipse fill="#800000" stroke="#000000" stroke-width="0" cx="369" cy="-234" rx="18" ry="18"/>
</a>
</g>
</g>
<!-- 1 -->
<g id="node2" class="node">
<title>1</title>
<g id="a_node2"><a xlink:title="Y">
<ellipse fill="#800000" stroke="#000000" stroke-width="0" cx="342" cy="-378" rx="18" ry="18"/>
</a>
</g>
</g>
<!-- 2 -->
<g id="node3" class="node">
<title>2</title>
<g id="a_node3"><a xlink:title="Y">
<ellipse fill="#800000" stroke="#000000" stroke-width="0" cx="234" cy="-306" rx="18" ry="18"/>
</a>
</g>
</g>
<!-- 1&#45;&gt;2 -->
<g id="edge20" class="edge">
<title>1&#45;&gt;2</title>
<path fill="none" stroke="#000000" d="M326.9831,-367.9887C309.03,-356.02 278.7675,-335.845 257.6604,-321.7736"/>
<polygon fill="#000000" stroke="#000000" points="259.4995,-318.7932 249.2376,-316.1584 255.6166,-324.6176 259.4995,-318.7932"/>
</g>
<!-- 19 -->
<g id="node20" class="node">
<title>19</title>
<g id="a_node20"><a xlink:title="Y">
<ellipse fill="#800000" stroke="#000000" stroke-width="0" cx="288" cy="-306" rx="18" ry="18"/>
</a>
</g>
</g>
<!-- 1&#45;&gt;19 -->
<g id="edge68" class="edge">
<title>1&#45;&gt;19</title>
<path fill="none" stroke="#000000" d="M331.0723,-363.4297C323.6066,-353.4754 313.5632,-340.0842 305.0526,-328.7368"/>
<polygon fill="#000000" stroke="#000000" points="307.7115,-326.4486 298.9115,-320.5486 302.1115,-330.6486 307.7115,-326.4486"/>
</g>
<!-- 20 -->
<g id="node21" class="node">
<title>20</title>
<g id="a_node21"><a xlink:title="Y">
<ellipse fill="#800000" stroke="#000000" stroke-width="0" cx="342" cy="-306" rx="18" ry="18"/>
</a>
</g>
</g>
<!-- 1&#45;&gt;20 -->
<g id="edge19" class="edge">
<title>1&#45;&gt;20</title>
<path fill="none" stroke="#000000" d="M342,-359.8314C342,-352.131 342,-342.9743 342,-334.4166"/>
<polygon fill="#000000" stroke="#000000" points="345.5001,-334.4132 342,-324.4133 338.5001,-334.4133 345.5001,-334.4132"/>
</g>
<!-- 36 -->
<g id="node37" class="node">
<title>36</title>
<g id="a_node37"><a xlink:title="Y">
<ellipse fill="#800000" stroke="#000000" stroke-width="0" cx="396" cy="-306" rx="18" ry="18"/>
</a>
</g>
</g>
<!-- 1&#45;&gt;36 -->
<g id="edge12" class="edge">
<title>1&#45;&gt;36</title>
<path fill="none" stroke="#000000" d="M352.9277,-363.4297C360.3934,-353.4754 370.4368,-340.0842 378.9474,-328.7368"/>
<polygon fill="#000000" stroke="#000000" points="381.8885,-330.6486 385.0885,-320.5486 376.2885,-326.4486 381.8885,-330.6486"/>
</g>
<!-- 64 -->
<g id="node65" class="node">
<title>64</title>
<g id="a_node65"><a xlink:title="Y">
<ellipse fill="#800000" stroke="#000000" stroke-width="0" cx="450" cy="-306" rx="18" ry="18"/>
</a>
</g>
</g>
<!-- 1&#45;&gt;64 -->
<g id="edge15" class="edge">
<title>1&#45;&gt;64</title>
<path fill="none" stroke="#000000" d="M357.0169,-367.9887C374.97,-356.02 405.2325,-335.845 426.3396,-321.7736"/>
<polygon fill="#000000" stroke="#000000" points="428.3834,-324.6176 434.7624,-316.1584 424.5005,-318.7932 428.3834,-324.6176"/>
</g>
<!-- 42 -->
<g id="node43" class="node">
<title>42</title>
<g id="a_node43"><a xlink:title="Y">
<ellipse fill="#800000" stroke="#000000" stroke-width="0" cx="153" cy="-234" rx="18" ry="18"/>
</a>
</g>
</g>
<!-- 2&#45;&gt;42 -->
<g id="edge16" class="edge">
<title>2&#45;&gt;42</title>
<path fill="none" stroke="#000000" d="M220.2595,-293.7862C207.6157,-282.5473 188.6738,-265.7101 174.1103,-252.7647"/>
<polygon fill="#000000" stroke="#000000" points="176.337,-250.0612 166.5376,-246.0334 171.6865,-255.2931 176.337,-250.0612"/>
</g>
<!-- 47 -->
<g id="node48" class="node">
<title>47</title>
<g id="a_node48"><a xlink:title="Y">
<ellipse fill="#800000" stroke="#000000" stroke-width="0" cx="207" cy="-234" rx="18" ry="18"/>
</a>
</g>
</g>
<!-- 2&#45;&gt;47 -->
<g id="edge54" class="edge">
<title>2&#45;&gt;47</title>
<path fill="none" stroke="#000000" d="M227.6014,-288.937C224.407,-280.4186 220.471,-269.9227 216.8982,-260.3952"/>
<polygon fill="#000000" stroke="#000000" points="220.1411,-259.0749 213.3527,-250.9405 213.5868,-261.5328 220.1411,-259.0749"/>
</g>
<!-- 3 -->
<g id="node4" class="node">
<title>3</title>
<g id="a_node4"><a xlink:title="Y">
<ellipse fill="#800000" stroke="#000000" stroke-width="0" cx="558" cy="-522" rx="18" ry="18"/>
</a>
</g>
</g>
<!-- 4 -->
<g id="node5" class="node">
<title>4</title>
<g id="a_node5"><a xlink:title="Y">
<ellipse fill="#800000" stroke="#000000" stroke-width="0" cx="18" cy="-234" rx="18" ry="18"/>
</a>
</g>
</g>
<!-- 5 -->
<g id="node6" class="node">
<title>5</title>
<g id="a_node6"><a xlink:title="Y">
<ellipse fill="#800000" stroke="#000000" stroke-width="0" cx="261" cy="-234" rx="18" ry="18"/>
</a>
</g>
</g>
<!-- 6 -->
<g id="node7" class="node">
<title>6</title>
<g id="a_node7"><a xlink:title="Y">
<ellipse fill="#800000" stroke="#000000" stroke-width="0" cx="180" cy="-450" rx="18" ry="18"/>
</a>
</g>
</g>
<!-- 29 -->
<g id="node30" class="node">
<title>29</title>
<g id="a_node30"><a xlink:title="Y">
<ellipse fill="#800000" stroke="#000000" stroke-width="0" cx="180" cy="-378" rx="18" ry="18"/>
</a>
</g>
</g>
<!-- 6&#45;&gt;29 -->
<g id="edge25" class="edge">
<title>6&#45;&gt;29</title>
<path fill="none" stroke="#000000" d="M180,-431.8314C180,-424.131 180,-414.9743 180,-406.4166"/>
<polygon fill="#000000" stroke="#000000" points="183.5001,-406.4132 180,-396.4133 176.5001,-406.4133 183.5001,-406.4132"/>
</g>
<!-- 7 -->
<g id="node8" class="node">
<title>7</title>
<g id="a_node8"><a xlink:title="H">
<ellipse fill="#00c0ff" stroke="#000000" stroke-width="0" cx="639" cy="-522" rx="18" ry="18"/>
</a>
</g>
</g>
<!-- 45 -->
<g id="node46" class="node">
<title>45</title>
<g id="a_node46"><a xlink:title="H">
<ellipse fill="#00c0ff" stroke="#000000" stroke-width="0" cx="639" cy="-450" rx="18" ry="18"/>
</a>
</g>
</g>
<!-- 7&#45;&gt;45 -->
<g id="edge47" class="edge">
<title>7&#45;&gt;45</title>
<path fill="none" stroke="#000000" d="M639,-503.8314C639,-496.131 639,-486.9743 639,-478.4166"/>
<polygon fill="#000000" stroke="#000000" points="642.5001,-478.4132 639,-468.4133 635.5001,-478.4133 642.5001,-478.4132"/>
</g>
<!-- 8 -->
<g id="node9" class="node">
<title>8</title>
<g id="a_node9"><a xlink:title="Y">
<ellipse fill="#800000" stroke="#000000" stroke-width="0" cx="234" cy="-522" rx="18" ry="18"/>
</a>
</g>
</g>
<!-- 9 -->
<g id="node10" class="node">
<title>9</title>
<g id="a_node10"><a xlink:title="Y">
<ellipse fill="#800000" stroke="#000000" stroke-width="0" cx="450" cy="-594" rx="18" ry="18"/>
</a>
</g>
</g>
<!-- 59 -->
<g id="node60" class="node">
<title>59</title>
<g id="a_node60"><a xlink:title="Y">
<ellipse fill="#800000" stroke="#000000" stroke-width="0" cx="450" cy="-522" rx="18" ry="18"/>
</a>
</g>
</g>
<!-- 9&#45;&gt;59 -->
<g id="edge2" class="edge">
<title>9&#45;&gt;59</title>
<path fill="none" stroke="#000000" d="M450,-575.8314C450,-568.131 450,-558.9743 450,-550.4166"/>
<polygon fill="#000000" stroke="#000000" points="453.5001,-550.4132 450,-540.4133 446.5001,-550.4133 453.5001,-550.4132"/>
</g>
<!-- 10 -->
<g id="node11" class="node">
<title>10</title>
<g id="a_node11"><a xlink:title="Y">
<ellipse fill="#800000" stroke="#000000" stroke-width="0" cx="59" cy="-594" rx="18" ry="18"/>
</a>
</g>
</g>
<!-- 54 -->
<g id="node55" class="node">
<title>54</title>
<g id="a_node55"><a xlink:title="Y">
<ellipse fill="#800000" stroke="#000000" stroke-width="0" cx="45" cy="-522" rx="18" ry="18"/>
</a>
</g>
</g>
<!-- 10&#45;&gt;54 -->
<g id="edge56" class="edge">
<title>10&#45;&gt;54</title>
<path fill="none" stroke="#000000" d="M55.5393,-576.2022C53.9912,-568.2406 52.1297,-558.6671 50.4047,-549.7957"/>
<polygon fill="#000000" stroke="#000000" points="53.8138,-548.9906 48.4694,-539.8425 46.9425,-550.3268 53.8138,-548.9906"/>
</g>
<!-- 11 -->
<g id="node12" class="node">
<title>11</title>
<g id="a_node12"><a xlink:title="Y">
<ellipse fill="#800000" stroke="#000000" stroke-width="0" cx="558" cy="-666" rx="18" ry="18"/>
</a>
</g>
</g>
<!-- 48 -->
<g id="node49" class="node">
<title>48</title>
<g id="a_node49"><a xlink:title="Y">
<ellipse fill="#800000" stroke="#000000" stroke-width="0" cx="558" cy="-594" rx="18" ry="18"/>
</a>
</g>
</g>
<!-- 11&#45;&gt;48 -->
<g id="edge49" class="edge">
<title>11&#45;&gt;48</title>
<path fill="none" stroke="#000000" d="M558,-647.8314C558,-640.131 558,-630.9743 558,-622.4166"/>
<polygon fill="#000000" stroke="#000000" points="561.5001,-622.4132 558,-612.4133 554.5001,-622.4133 561.5001,-622.4132"/>
</g>
<!-- 12 -->
<g id="node13" class="node">
<title>12</title>
<g id="a_node13"><a xlink:title="Y">
<ellipse fill="#800000" stroke="#000000" stroke-width="0" cx="342" cy="-522" rx="18" ry="18"/>
</a>
</g>
</g>
<!-- 57 -->
<g id="node58" class="node">
<title>57</title>
<g id="a_node58"><a xlink:title="Y">
<ellipse fill="#800000" stroke="#000000" stroke-width="0" cx="342" cy="-450" rx="18" ry="18"/>
</a>
</g>
</g>
<!-- 12&#45;&gt;57 -->
<g id="edge65" class="edge">
<title>12&#45;&gt;57</title>
<path fill="none" stroke="#000000" d="M342,-503.8314C342,-496.131 342,-486.9743 342,-478.4166"/>
<polygon fill="#000000" stroke="#000000" points="345.5001,-478.4132 342,-468.4133 338.5001,-478.4133 345.5001,-478.4132"/>
</g>
<!-- 13 -->
<g id="node14" class="node">
<title>13</title>
<g id="a_node14"><a xlink:title="Y">
<ellipse fill="#800000" stroke="#000000" stroke-width="0" cx="531" cy="-954" rx="18" ry="18"/>
</a>
</g>
</g>
<!-- 40 -->
<g id="node41" class="node">
<title>40</title>
<g id="a_node41"><a xlink:title="Y">
<ellipse fill="#800000" stroke="#000000" stroke-width="0" cx="531" cy="-882" rx="18" ry="18"/>
</a>
</g>
</g>
<!-- 13&#45;&gt;40 -->
<g id="edge35" class="edge">
<title>13&#45;&gt;40</title>
<path fill="none" stroke="#000000" d="M531,-935.8314C531,-928.131 531,-918.9743 531,-910.4166"/>
<polygon fill="#000000" stroke="#000000" points="534.5001,-910.4132 531,-900.4133 527.5001,-910.4133 534.5001,-910.4132"/>
</g>
<!-- 14 -->
<g id="node15" class="node">
<title>14</title>
<g id="a_node15"><a xlink:title="Y">
<ellipse fill="#800000" stroke="#000000" stroke-width="0" cx="396" cy="-450" rx="18" ry="18"/>
</a>
</g>
</g>
<!-- 15 -->
<g id="node16" class="node">
<title>15</title>
<g id="a_node16"><a xlink:title="H">
<ellipse fill="#00c0ff" stroke="#000000" stroke-width="0" cx="639" cy="-378" rx="18" ry="18"/>
</a>
</g>
</g>
<!-- 49 -->
<g id="node50" class="node">
<title>49</title>
<g id="a_node50"><a xlink:title="H">
<ellipse fill="#00c0ff" stroke="#000000" stroke-width="0" cx="639" cy="-306" rx="18" ry="18"/>
</a>
</g>
</g>
<!-- 15&#45;&gt;49 -->
<g id="edge41" class="edge">
<title>15&#45;&gt;49</title>
<path fill="none" stroke="#000000" d="M639,-359.8314C639,-352.131 639,-342.9743 639,-334.4166"/>
<polygon fill="#000000" stroke="#000000" points="642.5001,-334.4132 639,-324.4133 635.5001,-334.4133 642.5001,-334.4132"/>
</g>
<!-- 16 -->
<g id="node17" class="node">
<title>16</title>
<g id="a_node17"><a xlink:title="Y">
<ellipse fill="#800000" stroke="#000000" stroke-width="0" cx="126" cy="-378" rx="18" ry="18"/>
</a>
</g>
</g>
<!-- 17 -->
<g id="node18" class="node">
<title>17</title>
<g id="a_node18"><a xlink:title="Y">
<ellipse fill="#800000" stroke="#000000" stroke-width="0" cx="18" cy="-378" rx="18" ry="18"/>
</a>
</g>
</g>
<!-- 44 -->
<g id="node45" class="node">
<title>44</title>
<g id="a_node45"><a xlink:title="Y">
<ellipse fill="#800000" stroke="#000000" stroke-width="0" cx="18" cy="-306" rx="18" ry="18"/>
</a>
</g>
</g>
<!-- 17&#45;&gt;44 -->
<g id="edge53" class="edge">
<title>17&#45;&gt;44</title>
<path fill="none" stroke="#000000" d="M18,-359.8314C18,-352.131 18,-342.9743 18,-334.4166"/>
<polygon fill="#000000" stroke="#000000" points="21.5001,-334.4132 18,-324.4133 14.5001,-334.4133 21.5001,-334.4132"/>
</g>
<!-- 18 -->
<g id="node19" class="node">
<title>18</title>
<g id="a_node19"><a xlink:title="Y">
<ellipse fill="#800000" stroke="#000000" stroke-width="0" cx="126" cy="-594" rx="18" ry="18"/>
</a>
</g>
</g>
<!-- 19&#45;&gt;5 -->
<g id="edge66" class="edge">
<title>19&#45;&gt;5</title>
<path fill="none" stroke="#000000" d="M281.6014,-288.937C278.407,-280.4186 274.471,-269.9227 270.8982,-260.3952"/>
<polygon fill="#000000" stroke="#000000" points="274.1411,-259.0749 267.3527,-250.9405 267.5868,-261.5328 274.1411,-259.0749"/>
</g>
<!-- 52 -->
<g id="node53" class="node">
<title>52</title>
<g id="a_node53"><a xlink:title="Y">
<ellipse fill="#800000" stroke="#000000" stroke-width="0" cx="315" cy="-234" rx="18" ry="18"/>
</a>
</g>
</g>
<!-- 19&#45;&gt;52 -->
<g id="edge69" class="edge">
<title>19&#45;&gt;52</title>
<path fill="none" stroke="#000000" d="M294.3986,-288.937C297.593,-280.4186 301.529,-269.9227 305.1018,-260.3952"/>
<polygon fill="#000000" stroke="#000000" points="308.4132,-261.5328 308.6473,-250.9405 301.8589,-259.0749 308.4132,-261.5328"/>
</g>
<!-- 20&#45;&gt;0 -->
<g id="edge31" class="edge">
<title>20&#45;&gt;0</title>
<path fill="none" stroke="#000000" d="M348.3986,-288.937C351.593,-280.4186 355.529,-269.9227 359.1018,-260.3952"/>
<polygon fill="#000000" stroke="#000000" points="362.4132,-261.5328 362.6473,-250.9405 355.8589,-259.0749 362.4132,-261.5328"/>
</g>
<!-- 21 -->
<g id="node22" class="node">
<title>21</title>
<g id="a_node22"><a xlink:title="Y">
<ellipse fill="#800000" stroke="#000000" stroke-width="0" cx="504" cy="-306" rx="18" ry="18"/>
</a>
</g>
</g>
<!-- 33 -->
<g id="node34" class="node">
<title>33</title>
<g id="a_node34"><a xlink:title="Y">
<ellipse fill="#800000" stroke="#000000" stroke-width="0" cx="504" cy="-234" rx="18" ry="18"/>
</a>
</g>
</g>
<!-- 21&#45;&gt;33 -->
<g id="edge27" class="edge">
<title>21&#45;&gt;33</title>
<path fill="none" stroke="#000000" d="M504,-287.8314C504,-280.131 504,-270.9743 504,-262.4166"/>
<polygon fill="#000000" stroke="#000000" points="507.5001,-262.4132 504,-252.4133 500.5001,-262.4133 507.5001,-262.4132"/>
</g>
<!-- 22 -->
<g id="node23" class="node">
<title>22</title>
<g id="a_node23"><a xlink:title="Y">
<ellipse fill="#800000" stroke="#000000" stroke-width="0" cx="450" cy="-810" rx="18" ry="18"/>
</a>
</g>
</g>
<!-- 31 -->
<g id="node32" class="node">
<title>31</title>
<g id="a_node32"><a xlink:title="Y">
<ellipse fill="#800000" stroke="#000000" stroke-width="0" cx="450" cy="-738" rx="18" ry="18"/>
</a>
</g>
</g>
<!-- 22&#45;&gt;31 -->
<g id="edge26" class="edge">
<title>22&#45;&gt;31</title>
<path fill="none" stroke="#000000" d="M450,-791.8314C450,-784.131 450,-774.9743 450,-766.4166"/>
<polygon fill="#000000" stroke="#000000" points="453.5001,-766.4132 450,-756.4133 446.5001,-766.4133 453.5001,-766.4132"/>
</g>
<!-- 23 -->
<g id="node24" class="node">
<title>23</title>
<g id="a_node24"><a xlink:title="Y">
<ellipse fill="#800000" stroke="#000000" stroke-width="0" cx="207" cy="-162" rx="18" ry="18"/>
</a>
</g>
</g>
<!-- 24 -->
<g id="node25" class="node">
<title>24</title>
<g id="a_node25"><a xlink:title="Y">
<ellipse fill="#800000" stroke="#000000" stroke-width="0" cx="234" cy="-666" rx="18" ry="18"/>
</a>
</g>
</g>
<!-- 24&#45;&gt;10 -->
<g id="edge40" class="edge">
<title>24&#45;&gt;10</title>
<path fill="none" stroke="#000000" d="M216.8563,-659.4108C191.1261,-649.4609 141.0531,-629.8631 99,-612 94.4222,-610.0555 89.5767,-607.9315 84.898,-605.8463"/>
<polygon fill="#000000" stroke="#000000" points="86.2231,-602.6046 75.6678,-601.6903 83.3491,-608.9874 86.2231,-602.6046"/>
</g>
<!-- 24&#45;&gt;18 -->
<g id="edge24" class="edge">
<title>24&#45;&gt;18</title>
<path fill="none" stroke="#000000" d="M218.9831,-655.9887C201.03,-644.02 170.7675,-623.845 149.6604,-609.7736"/>
<polygon fill="#000000" stroke="#000000" points="151.4995,-606.7932 141.2376,-604.1584 147.6166,-612.6176 151.4995,-606.7932"/>
</g>
<!-- 37 -->
<g id="node38" class="node">
<title>37</title>
<g id="a_node38"><a xlink:title="Y">
<ellipse fill="#800000" stroke="#000000" stroke-width="0" cx="180" cy="-594" rx="18" ry="18"/>
</a>
</g>
</g>
<!-- 24&#45;&gt;37 -->
<g id="edge7" class="edge">
<title>24&#45;&gt;37</title>
<path fill="none" stroke="#000000" d="M223.0723,-651.4297C215.6066,-641.4754 205.5632,-628.0842 197.0526,-616.7368"/>
<polygon fill="#000000" stroke="#000000" points="199.7115,-614.4486 190.9115,-608.5486 194.1115,-618.6486 199.7115,-614.4486"/>
</g>
<!-- 43 -->
<g id="node44" class="node">
<title>43</title>
<g id="a_node44"><a xlink:title="Y">
<ellipse fill="#800000" stroke="#000000" stroke-width="0" cx="234" cy="-594" rx="18" ry="18"/>
</a>
</g>
</g>
<!-- 24&#45;&gt;43 -->
<g id="edge38" class="edge">
<title>24&#45;&gt;43</title>
<path fill="none" stroke="#000000" d="M234,-647.8314C234,-640.131 234,-630.9743 234,-622.4166"/>
<polygon fill="#000000" stroke="#000000" points="237.5001,-622.4132 234,-612.4133 230.5001,-622.4133 237.5001,-622.4132"/>
</g>
<!-- 51 -->
<g id="node52" class="node">
<title>51</title>
<g id="a_node52"><a xlink:title="Y">
<ellipse fill="#800000" stroke="#000000" stroke-width="0" cx="288" cy="-594" rx="18" ry="18"/>
</a>
</g>
</g>
<!-- 24&#45;&gt;51 -->
<g id="edge21" class="edge">
<title>24&#45;&gt;51</title>
<path fill="none" stroke="#000000" d="M244.9277,-651.4297C252.3934,-641.4754 262.4368,-628.0842 270.9474,-616.7368"/>
<polygon fill="#000000" stroke="#000000" points="273.8885,-618.6486 277.0885,-608.5486 268.2885,-614.4486 273.8885,-618.6486"/>
</g>
<!-- 53 -->
<g id="node54" class="node">
<title>53</title>
<g id="a_node54"><a xlink:title="Y">
<ellipse fill="#800000" stroke="#000000" stroke-width="0" cx="342" cy="-594" rx="18" ry="18"/>
</a>
</g>
</g>
<!-- 24&#45;&gt;53 -->
<g id="edge57" class="edge">
<title>24&#45;&gt;53</title>
<path fill="none" stroke="#000000" d="M249.0169,-655.9887C266.97,-644.02 297.2325,-623.845 318.3396,-609.7736"/>
<polygon fill="#000000" stroke="#000000" points="320.3834,-612.6176 326.7624,-604.1584 316.5005,-606.7932 320.3834,-612.6176"/>
</g>
<!-- 25 -->
<g id="node26" class="node">
<title>25</title>
<g id="a_node26"><a xlink:title="Y">
<ellipse fill="#800000" stroke="#000000" stroke-width="0" cx="126" cy="-522" rx="18" ry="18"/>
</a>
</g>
</g>
<!-- 27 -->
<g id="node28" class="node">
<title>27</title>
<g id="a_node28"><a xlink:title="Y">
<ellipse fill="#800000" stroke="#000000" stroke-width="0" cx="72" cy="-450" rx="18" ry="18"/>
</a>
</g>
</g>
<!-- 25&#45;&gt;27 -->
<g id="edge11" class="edge">
<title>25&#45;&gt;27</title>
<path fill="none" stroke="#000000" d="M115.0723,-507.4297C107.6066,-497.4754 97.5632,-484.0842 89.0526,-472.7368"/>
<polygon fill="#000000" stroke="#000000" points="91.7115,-470.4486 82.9115,-464.5486 86.1115,-474.6486 91.7115,-470.4486"/>
</g>
<!-- 63 -->
<g id="node64" class="node">
<title>63</title>
<g id="a_node64"><a xlink:title="Y">
<ellipse fill="#800000" stroke="#000000" stroke-width="0" cx="126" cy="-450" rx="18" ry="18"/>
</a>
</g>
</g>
<!-- 25&#45;&gt;63 -->
<g id="edge60" class="edge">
<title>25&#45;&gt;63</title>
<path fill="none" stroke="#000000" d="M126,-503.8314C126,-496.131 126,-486.9743 126,-478.4166"/>
<polygon fill="#000000" stroke="#000000" points="129.5001,-478.4132 126,-468.4133 122.5001,-478.4133 129.5001,-478.4132"/>
</g>
<!-- 26 -->
<g id="node27" class="node">
<title>26</title>
<g id="a_node27"><a xlink:title="H">
<ellipse fill="#00c0ff" stroke="#000000" stroke-width="0" cx="639" cy="-594" rx="18" ry="18"/>
</a>
</g>
</g>
<!-- 26&#45;&gt;7 -->
<g id="edge37" class="edge">
<title>26&#45;&gt;7</title>
<path fill="none" stroke="#000000" d="M639,-575.8314C639,-568.131 639,-558.9743 639,-550.4166"/>
<polygon fill="#000000" stroke="#000000" points="642.5001,-550.4132 639,-540.4133 635.5001,-550.4133 642.5001,-550.4132"/>
</g>
<!-- 28 -->
<g id="node29" class="node">
<title>28</title>
<g id="a_node29"><a xlink:title="Y">
<ellipse fill="#800000" stroke="#000000" stroke-width="0" cx="531" cy="-810" rx="18" ry="18"/>
</a>
</g>
</g>
<!-- 41 -->
<g id="node42" class="node">
<title>41</title>
<g id="a_node42"><a xlink:title="Y">
<ellipse fill="#800000" stroke="#000000" stroke-width="0" cx="531" cy="-738" rx="18" ry="18"/>
</a>
</g>
</g>
<!-- 28&#45;&gt;41 -->
<g id="edge42" class="edge">
<title>28&#45;&gt;41</title>
<path fill="none" stroke="#000000" d="M531,-791.8314C531,-784.131 531,-774.9743 531,-766.4166"/>
<polygon fill="#000000" stroke="#000000" points="534.5001,-766.4132 531,-756.4133 527.5001,-766.4133 534.5001,-766.4132"/>
</g>
<!-- 35 -->
<g id="node36" class="node">
<title>35</title>
<g id="a_node36"><a xlink:title="Y">
<ellipse fill="#800000" stroke="#000000" stroke-width="0" cx="180" cy="-306" rx="18" ry="18"/>
</a>
</g>
</g>
<!-- 29&#45;&gt;35 -->
<g id="edge13" class="edge">
<title>29&#45;&gt;35</title>
<path fill="none" stroke="#000000" d="M180,-359.8314C180,-352.131 180,-342.9743 180,-334.4166"/>
<polygon fill="#000000" stroke="#000000" points="183.5001,-334.4132 180,-324.4133 176.5001,-334.4133 183.5001,-334.4132"/>
</g>
<!-- 30 -->
<g id="node31" class="node">
<title>30</title>
<g id="a_node31"><a xlink:title="Y">
<ellipse fill="#800000" stroke="#000000" stroke-width="0" cx="396" cy="-666" rx="18" ry="18"/>
</a>
</g>
</g>
<!-- 60 -->
<g id="node61" class="node">
<title>60</title>
<g id="a_node61"><a xlink:title="Y">
<ellipse fill="#800000" stroke="#000000" stroke-width="0" cx="396" cy="-594" rx="18" ry="18"/>
</a>
</g>
</g>
<!-- 30&#45;&gt;60 -->
<g id="edge9" class="edge">
<title>30&#45;&gt;60</title>
<path fill="none" stroke="#000000" d="M396,-647.8314C396,-640.131 396,-630.9743 396,-622.4166"/>
<polygon fill="#000000" stroke="#000000" points="399.5001,-622.4132 396,-612.4133 392.5001,-622.4133 399.5001,-622.4132"/>
</g>
<!-- 31&#45;&gt;24 -->
<g id="edge52" class="edge">
<title>31&#45;&gt;24</title>
<path fill="none" stroke="#000000" d="M432.6889,-732.2296C395.0746,-719.6915 305.6652,-689.8884 260.7374,-674.9125"/>
<polygon fill="#000000" stroke="#000000" points="261.6873,-671.5398 251.0937,-671.6979 259.4737,-678.1806 261.6873,-671.5398"/>
</g>
<!-- 31&#45;&gt;30 -->
<g id="edge18" class="edge">
<title>31&#45;&gt;30</title>
<path fill="none" stroke="#000000" d="M439.0723,-723.4297C431.6066,-713.4754 421.5632,-700.0842 413.0526,-688.7368"/>
<polygon fill="#000000" stroke="#000000" points="415.7115,-686.4486 406.9115,-680.5486 410.1115,-690.6486 415.7115,-686.4486"/>
</g>
<!-- 32 -->
<g id="node33" class="node">
<title>32</title>
<g id="a_node33"><a xlink:title="Y">
<ellipse fill="#800000" stroke="#000000" stroke-width="0" cx="450" cy="-666" rx="18" ry="18"/>
</a>
</g>
</g>
<!-- 31&#45;&gt;32 -->
<g id="edge17" class="edge">
<title>31&#45;&gt;32</title>
<path fill="none" stroke="#000000" d="M450,-719.8314C450,-712.131 450,-702.9743 450,-694.4166"/>
<polygon fill="#000000" stroke="#000000" points="453.5001,-694.4132 450,-684.4133 446.5001,-694.4133 453.5001,-694.4132"/>
</g>
<!-- 46 -->
<g id="node47" class="node">
<title>46</title>
<g id="a_node47"><a xlink:title="Y">
<ellipse fill="#800000" stroke="#000000" stroke-width="0" cx="504" cy="-666" rx="18" ry="18"/>
</a>
</g>
</g>
<!-- 31&#45;&gt;46 -->
<g id="edge39" class="edge">
<title>31&#45;&gt;46</title>
<path fill="none" stroke="#000000" d="M460.9277,-723.4297C468.3934,-713.4754 478.4368,-700.0842 486.9474,-688.7368"/>
<polygon fill="#000000" stroke="#000000" points="489.8885,-690.6486 493.0885,-680.5486 484.2885,-686.4486 489.8885,-690.6486"/>
</g>
<!-- 32&#45;&gt;9 -->
<g id="edge14" class="edge">
<title>32&#45;&gt;9</title>
<path fill="none" stroke="#000000" d="M450,-647.8314C450,-640.131 450,-630.9743 450,-622.4166"/>
<polygon fill="#000000" stroke="#000000" points="453.5001,-622.4132 450,-612.4133 446.5001,-622.4133 453.5001,-622.4132"/>
</g>
<!-- 69 -->
<g id="node70" class="node">
<title>69</title>
<g id="a_node70"><a xlink:title="Y">
<ellipse fill="#800000" stroke="#000000" stroke-width="0" cx="504" cy="-162" rx="18" ry="18"/>
</a>
</g>
</g>
<!-- 33&#45;&gt;69 -->
<g id="edge61" class="edge">
<title>33&#45;&gt;69</title>
<path fill="none" stroke="#000000" d="M504,-215.8314C504,-208.131 504,-198.9743 504,-190.4166"/>
<polygon fill="#000000" stroke="#000000" points="507.5001,-190.4132 504,-180.4133 500.5001,-190.4133 507.5001,-190.4132"/>
</g>
<!-- 34 -->
<g id="node35" class="node">
<title>34</title>
<g id="a_node35"><a xlink:title="Y">
<ellipse fill="#800000" stroke="#000000" stroke-width="0" cx="585" cy="-738" rx="18" ry="18"/>
</a>
</g>
</g>
<!-- 67 -->
<g id="node68" class="node">
<title>67</title>
<g id="a_node68"><a xlink:title="Y">
<ellipse fill="#800000" stroke="#000000" stroke-width="0" cx="423" cy="-234" rx="18" ry="18"/>
</a>
</g>
</g>
<!-- 36&#45;&gt;67 -->
<g id="edge3" class="edge">
<title>36&#45;&gt;67</title>
<path fill="none" stroke="#000000" d="M402.3986,-288.937C405.593,-280.4186 409.529,-269.9227 413.1018,-260.3952"/>
<polygon fill="#000000" stroke="#000000" points="416.4132,-261.5328 416.6473,-250.9405 409.8589,-259.0749 416.4132,-261.5328"/>
</g>
<!-- 37&#45;&gt;25 -->
<g id="edge50" class="edge">
<title>37&#45;&gt;25</title>
<path fill="none" stroke="#000000" d="M169.0723,-579.4297C161.6066,-569.4754 151.5632,-556.0842 143.0526,-544.7368"/>
<polygon fill="#000000" stroke="#000000" points="145.7115,-542.4486 136.9115,-536.5486 140.1115,-546.6486 145.7115,-542.4486"/>
</g>
<!-- 39 -->
<g id="node40" class="node">
<title>39</title>
<g id="a_node40"><a xlink:title="Y">
<ellipse fill="#800000" stroke="#000000" stroke-width="0" cx="180" cy="-522" rx="18" ry="18"/>
</a>
</g>
</g>
<!-- 37&#45;&gt;39 -->
<g id="edge28" class="edge">
<title>37&#45;&gt;39</title>
<path fill="none" stroke="#000000" d="M180,-575.8314C180,-568.131 180,-558.9743 180,-550.4166"/>
<polygon fill="#000000" stroke="#000000" points="183.5001,-550.4132 180,-540.4133 176.5001,-550.4133 183.5001,-550.4132"/>
</g>
<!-- 38 -->
<g id="node39" class="node">
<title>38</title>
<g id="a_node39"><a xlink:title="Y">
<ellipse fill="#800000" stroke="#000000" stroke-width="0" cx="450" cy="-378" rx="18" ry="18"/>
</a>
</g>
</g>
<!-- 38&#45;&gt;21 -->
<g id="edge30" class="edge">
<title>38&#45;&gt;21</title>
<path fill="none" stroke="#000000" d="M460.9277,-363.4297C468.3934,-353.4754 478.4368,-340.0842 486.9474,-328.7368"/>
<polygon fill="#000000" stroke="#000000" points="489.8885,-330.6486 493.0885,-320.5486 484.2885,-326.4486 489.8885,-330.6486"/>
</g>
<!-- 39&#45;&gt;6 -->
<g id="edge46" class="edge">
<title>39&#45;&gt;6</title>
<path fill="none" stroke="#000000" d="M180,-503.8314C180,-496.131 180,-486.9743 180,-478.4166"/>
<polygon fill="#000000" stroke="#000000" points="183.5001,-478.4132 180,-468.4133 176.5001,-478.4133 183.5001,-478.4132"/>
</g>
<!-- 40&#45;&gt;22 -->
<g id="edge6" class="edge">
<title>40&#45;&gt;22</title>
<path fill="none" stroke="#000000" d="M517.2595,-869.7862C504.6157,-858.5473 485.6738,-841.7101 471.1103,-828.7647"/>
<polygon fill="#000000" stroke="#000000" points="473.337,-826.0612 463.5376,-822.0334 468.6865,-831.2931 473.337,-826.0612"/>
</g>
<!-- 40&#45;&gt;28 -->
<g id="edge36" class="edge">
<title>40&#45;&gt;28</title>
<path fill="none" stroke="#000000" d="M531,-863.8314C531,-856.131 531,-846.9743 531,-838.4166"/>
<polygon fill="#000000" stroke="#000000" points="534.5001,-838.4132 531,-828.4133 527.5001,-838.4133 534.5001,-838.4132"/>
</g>
<!-- 56 -->
<g id="node57" class="node">
<title>56</title>
<g id="a_node57"><a xlink:title="Y">
<ellipse fill="#800000" stroke="#000000" stroke-width="0" cx="585" cy="-810" rx="18" ry="18"/>
</a>
</g>
</g>
<!-- 40&#45;&gt;56 -->
<g id="edge22" class="edge">
<title>40&#45;&gt;56</title>
<path fill="none" stroke="#000000" d="M541.9277,-867.4297C549.3934,-857.4754 559.4368,-844.0842 567.9474,-832.7368"/>
<polygon fill="#000000" stroke="#000000" points="570.8885,-834.6486 574.0885,-824.5486 565.2885,-830.4486 570.8885,-834.6486"/>
</g>
<!-- 41&#45;&gt;11 -->
<g id="edge51" class="edge">
<title>41&#45;&gt;11</title>
<path fill="none" stroke="#000000" d="M537.3986,-720.937C540.593,-712.4186 544.529,-701.9227 548.1018,-692.3952"/>
<polygon fill="#000000" stroke="#000000" points="551.4132,-693.5328 551.6473,-682.9405 544.8589,-691.0749 551.4132,-693.5328"/>
</g>
<!-- 66 -->
<g id="node67" class="node">
<title>66</title>
<g id="a_node67"><a xlink:title="Y">
<ellipse fill="#800000" stroke="#000000" stroke-width="0" cx="153" cy="-162" rx="18" ry="18"/>
</a>
</g>
</g>
<!-- 42&#45;&gt;66 -->
<g id="edge58" class="edge">
<title>42&#45;&gt;66</title>
<path fill="none" stroke="#000000" d="M153,-215.8314C153,-208.131 153,-198.9743 153,-190.4166"/>
<polygon fill="#000000" stroke="#000000" points="156.5001,-190.4132 153,-180.4133 149.5001,-190.4133 156.5001,-190.4132"/>
</g>
<!-- 43&#45;&gt;8 -->
<g id="edge5" class="edge">
<title>43&#45;&gt;8</title>
<path fill="none" stroke="#000000" d="M234,-575.8314C234,-568.131 234,-558.9743 234,-550.4166"/>
<polygon fill="#000000" stroke="#000000" points="237.5001,-550.4132 234,-540.4133 230.5001,-550.4133 237.5001,-550.4132"/>
</g>
<!-- 44&#45;&gt;4 -->
<g id="edge1" class="edge">
<title>44&#45;&gt;4</title>
<path fill="none" stroke="#000000" d="M18,-287.8314C18,-280.131 18,-270.9743 18,-262.4166"/>
<polygon fill="#000000" stroke="#000000" points="21.5001,-262.4132 18,-252.4133 14.5001,-262.4133 21.5001,-262.4132"/>
</g>
<!-- 45&#45;&gt;15 -->
<g id="edge33" class="edge">
<title>45&#45;&gt;15</title>
<path fill="none" stroke="#000000" d="M639,-431.8314C639,-424.131 639,-414.9743 639,-406.4166"/>
<polygon fill="#000000" stroke="#000000" points="642.5001,-406.4132 639,-396.4133 635.5001,-406.4133 642.5001,-406.4132"/>
</g>
<!-- 47&#45;&gt;23 -->
<g id="edge43" class="edge">
<title>47&#45;&gt;23</title>
<path fill="none" stroke="#000000" d="M207,-215.8314C207,-208.131 207,-198.9743 207,-190.4166"/>
<polygon fill="#000000" stroke="#000000" points="210.5001,-190.4132 207,-180.4133 203.5001,-190.4133 210.5001,-190.4132"/>
</g>
<!-- 48&#45;&gt;3 -->
<g id="edge48" class="edge">
<title>48&#45;&gt;3</title>
<path fill="none" stroke="#000000" d="M558,-575.8314C558,-568.131 558,-558.9743 558,-550.4166"/>
<polygon fill="#000000" stroke="#000000" points="561.5001,-550.4132 558,-540.4133 554.5001,-550.4133 561.5001,-550.4132"/>
</g>
<!-- 50 -->
<g id="node51" class="node">
<title>50</title>
<g id="a_node51"><a xlink:title="Y">
<ellipse fill="#800000" stroke="#000000" stroke-width="0" cx="531" cy="-1026" rx="18" ry="18"/>
</a>
</g>
</g>
<!-- 50&#45;&gt;13 -->
<g id="edge59" class="edge">
<title>50&#45;&gt;13</title>
<path fill="none" stroke="#000000" d="M531,-1007.8314C531,-1000.131 531,-990.9743 531,-982.4166"/>
<polygon fill="#000000" stroke="#000000" points="534.5001,-982.4132 531,-972.4133 527.5001,-982.4133 534.5001,-982.4132"/>
</g>
<!-- 53&#45;&gt;12 -->
<g id="edge55" class="edge">
<title>53&#45;&gt;12</title>
<path fill="none" stroke="#000000" d="M342,-575.8314C342,-568.131 342,-558.9743 342,-550.4166"/>
<polygon fill="#000000" stroke="#000000" points="345.5001,-550.4132 342,-540.4133 338.5001,-550.4133 345.5001,-550.4132"/>
</g>
<!-- 62 -->
<g id="node63" class="node">
<title>62</title>
<g id="a_node63"><a xlink:title="Y">
<ellipse fill="#800000" stroke="#000000" stroke-width="0" cx="18" cy="-450" rx="18" ry="18"/>
</a>
</g>
</g>
<!-- 54&#45;&gt;62 -->
<g id="edge70" class="edge">
<title>54&#45;&gt;62</title>
<path fill="none" stroke="#000000" d="M38.6014,-504.937C35.407,-496.4186 31.471,-485.9227 27.8982,-476.3952"/>
<polygon fill="#000000" stroke="#000000" points="31.1411,-475.0749 24.3527,-466.9405 24.5868,-477.5328 31.1411,-475.0749"/>
</g>
<!-- 55 -->
<g id="node56" class="node">
<title>55</title>
<g id="a_node56"><a xlink:title="Y">
<ellipse fill="#800000" stroke="#000000" stroke-width="0" cx="396" cy="-522" rx="18" ry="18"/>
</a>
</g>
</g>
<!-- 55&#45;&gt;14 -->
<g id="edge67" class="edge">
<title>55&#45;&gt;14</title>
<path fill="none" stroke="#000000" d="M396,-503.8314C396,-496.131 396,-486.9743 396,-478.4166"/>
<polygon fill="#000000" stroke="#000000" points="399.5001,-478.4132 396,-468.4133 392.5001,-478.4133 399.5001,-478.4132"/>
</g>
<!-- 56&#45;&gt;34 -->
<g id="edge44" class="edge">
<title>56&#45;&gt;34</title>
<path fill="none" stroke="#000000" d="M585,-791.8314C585,-784.131 585,-774.9743 585,-766.4166"/>
<polygon fill="#000000" stroke="#000000" points="588.5001,-766.4132 585,-756.4133 581.5001,-766.4133 588.5001,-766.4132"/>
</g>
<!-- 61 -->
<g id="node62" class="node">
<title>61</title>
<g id="a_node62"><a xlink:title="Y">
<ellipse fill="#800000" stroke="#000000" stroke-width="0" cx="639" cy="-738" rx="18" ry="18"/>
</a>
</g>
</g>
<!-- 56&#45;&gt;61 -->
<g id="edge23" class="edge">
<title>56&#45;&gt;61</title>
<path fill="none" stroke="#000000" d="M595.9277,-795.4297C603.3934,-785.4754 613.4368,-772.0842 621.9474,-760.7368"/>
<polygon fill="#000000" stroke="#000000" points="624.8885,-762.6486 628.0885,-752.5486 619.2885,-758.4486 624.8885,-762.6486"/>
</g>
<!-- 57&#45;&gt;1 -->
<g id="edge34" class="edge">
<title>57&#45;&gt;1</title>
<path fill="none" stroke="#000000" d="M342,-431.8314C342,-424.131 342,-414.9743 342,-406.4166"/>
<polygon fill="#000000" stroke="#000000" points="345.5001,-406.4132 342,-396.4133 338.5001,-406.4133 345.5001,-406.4132"/>
</g>
<!-- 57&#45;&gt;38 -->
<g id="edge29" class="edge">
<title>57&#45;&gt;38</title>
<path fill="none" stroke="#000000" d="M357.0169,-439.9887C374.97,-428.02 405.2325,-407.845 426.3396,-393.7736"/>
<polygon fill="#000000" stroke="#000000" points="428.3834,-396.6176 434.7624,-388.1584 424.5005,-390.7932 428.3834,-396.6176"/>
</g>
<!-- 58 -->
<g id="node59" class="node">
<title>58</title>
<g id="a_node59"><a xlink:title="H">
<ellipse fill="#00c0ff" stroke="#000000" stroke-width="0" cx="639" cy="-666" rx="18" ry="18"/>
</a>
</g>
</g>
<!-- 58&#45;&gt;26 -->
<g id="edge64" class="edge">
<title>58&#45;&gt;26</title>
<path fill="none" stroke="#000000" d="M639,-647.8314C639,-640.131 639,-630.9743 639,-622.4166"/>
<polygon fill="#000000" stroke="#000000" points="642.5001,-622.4132 639,-612.4133 635.5001,-622.4133 642.5001,-622.4132"/>
</g>
<!-- 60&#45;&gt;55 -->
<g id="edge63" class="edge">
<title>60&#45;&gt;55</title>
<path fill="none" stroke="#000000" d="M396,-575.8314C396,-568.131 396,-558.9743 396,-550.4166"/>
<polygon fill="#000000" stroke="#000000" points="399.5001,-550.4132 396,-540.4133 392.5001,-550.4133 399.5001,-550.4132"/>
</g>
<!-- 61&#45;&gt;58 -->
<g id="edge62" class="edge">
<title>61&#45;&gt;58</title>
<path fill="none" stroke="#000000" d="M639,-719.8314C639,-712.131 639,-702.9743 639,-694.4166"/>
<polygon fill="#000000" stroke="#000000" points="642.5001,-694.4132 639,-684.4133 635.5001,-694.4133 642.5001,-694.4132"/>
</g>
<!-- 62&#45;&gt;17 -->
<g id="edge10" class="edge">
<title>62&#45;&gt;17</title>
<path fill="none" stroke="#000000" d="M18,-431.8314C18,-424.131 18,-414.9743 18,-406.4166"/>
<polygon fill="#000000" stroke="#000000" points="21.5001,-406.4132 18,-396.4133 14.5001,-406.4133 21.5001,-406.4132"/>
</g>
<!-- 63&#45;&gt;16 -->
<g id="edge45" class="edge">
<title>63&#45;&gt;16</title>
<path fill="none" stroke="#000000" d="M126,-431.8314C126,-424.131 126,-414.9743 126,-406.4166"/>
<polygon fill="#000000" stroke="#000000" points="129.5001,-406.4132 126,-396.4133 122.5001,-406.4133 129.5001,-406.4132"/>
</g>
<!-- 65 -->
<g id="node66" class="node">
<title>65</title>
<g id="a_node66"><a xlink:title="Y">
<ellipse fill="#800000" stroke="#000000" stroke-width="0" cx="153" cy="-90" rx="18" ry="18"/>
</a>
</g>
</g>
<!-- 66&#45;&gt;65 -->
<g id="edge8" class="edge">
<title>66&#45;&gt;65</title>
<path fill="none" stroke="#000000" d="M153,-143.8314C153,-136.131 153,-126.9743 153,-118.4166"/>
<polygon fill="#000000" stroke="#000000" points="156.5001,-118.4132 153,-108.4133 149.5001,-118.4133 156.5001,-118.4132"/>
</g>
<!-- 68 -->
<g id="node69" class="node">
<title>68</title>
<g id="a_node69"><a xlink:title="Y">
<ellipse fill="#800000" stroke="#000000" stroke-width="0" cx="504" cy="-18" rx="18" ry="18"/>
</a>
</g>
</g>
<!-- 70 -->
<g id="node71" class="node">
<title>70</title>
<g id="a_node71"><a xlink:title="Y">
<ellipse fill="#800000" stroke="#000000" stroke-width="0" cx="504" cy="-90" rx="18" ry="18"/>
</a>
</g>
</g>
<!-- 69&#45;&gt;70 -->
<g id="edge32" class="edge">
<title>69&#45;&gt;70</title>
<path fill="none" stroke="#000000" d="M504,-143.8314C504,-136.131 504,-126.9743 504,-118.4166"/>
<polygon fill="#000000" stroke="#000000" points="507.5001,-118.4132 504,-108.4133 500.5001,-118.4133 507.5001,-118.4132"/>
</g>
<!-- 70&#45;&gt;68 -->
<g id="edge4" class="edge">
<title>70&#45;&gt;68</title>
<path fill="none" stroke="#000000" d="M504,-71.8314C504,-64.131 504,-54.9743 504,-46.4166"/>
<polygon fill="#000000" stroke="#000000" points="507.5001,-46.4132 504,-36.4133 500.5001,-46.4133 507.5001,-46.4132"/>
</g>
</g>
</svg>
