<?xml version="1.0" encoding="UTF-8" standalone="no"?>
<!DOCTYPE svg PUBLIC "-//W3C//DTD SVG 1.1//EN"
 "http://www.w3.org/Graphics/SVG/1.1/DTD/svg11.dtd">
<!-- Generated by graphviz version 2.38.0 (20140413.2041)
 -->
<!-- Title: %3 Pages: 1 -->
<svg width="466pt" height="620pt"
 viewBox="0.00 0.00 465.50 620.00" xmlns="http://www.w3.org/2000/svg" xmlns:xlink="http://www.w3.org/1999/xlink">
<g id="graph0" class="graph" transform="scale(1 1) rotate(0) translate(4 616)">
<title>%3</title>
<polygon fill="white" stroke="none" points="-4,4 -4,-616 461.5,-616 461.5,4 -4,4"/>
<!-- p0 -->
<g id="node1" class="node"><title>p0</title>
<path fill="none" stroke="black" d="M259,-252C259,-252 224,-252 224,-252 218,-252 212,-246 212,-240 212,-240 212,-228 212,-228 212,-222 218,-216 224,-216 224,-216 259,-216 259,-216 265,-216 271,-222 271,-228 271,-228 271,-240 271,-240 271,-246 265,-252 259,-252"/>
<text text-anchor="middle" x="241.5" y="-230.3" font-family="Times,serif" font-size="14.00">path (7)</text>
</g>
<!-- p1 -->
<g id="node2" class="node"><title>p1</title>
<path fill="none" stroke="black" d="M201,-396C201,-396 166,-396 166,-396 160,-396 154,-390 154,-384 154,-384 154,-372 154,-372 154,-366 160,-360 166,-360 166,-360 201,-360 201,-360 207,-360 213,-366 213,-372 213,-372 213,-384 213,-384 213,-390 207,-396 201,-396"/>
<text text-anchor="middle" x="183.5" y="-374.3" font-family="Times,serif" font-size="14.00">path (2)</text>
</g>
<!-- p2 -->
<g id="node3" class="node"><title>p2</title>
<path fill="none" stroke="black" d="M124,-540C124,-540 89,-540 89,-540 83,-540 77,-534 77,-528 77,-528 77,-516 77,-516 77,-510 83,-504 89,-504 89,-504 124,-504 124,-504 130,-504 136,-510 136,-516 136,-516 136,-528 136,-528 136,-534 130,-540 124,-540"/>
<text text-anchor="middle" x="106.5" y="-518.3" font-family="Times,serif" font-size="14.00">path (4)</text>
</g>
<!-- v27 -->
<g id="node14" class="node"><title>v27</title>
<ellipse fill="none" stroke="black" cx="106.5" cy="-450" rx="27" ry="18"/>
<text text-anchor="middle" x="106.5" y="-446.3" font-family="Times,serif" font-size="14.00">27</text>
</g>
<!-- p2&#45;&gt;v27 -->
<g id="edge14" class="edge"><title>p2&#45;&gt;v27</title>
<path fill="none" stroke="black" d="M106.5,-503.697C106.5,-495.983 106.5,-486.712 106.5,-478.112"/>
<polygon fill="black" stroke="black" points="110,-478.104 106.5,-468.104 103,-478.104 110,-478.104"/>
</g>
<!-- p3 -->
<g id="node4" class="node"><title>p3</title>
<path fill="none" stroke="black" d="M219,-180C219,-180 184,-180 184,-180 178,-180 172,-174 172,-168 172,-168 172,-156 172,-156 172,-150 178,-144 184,-144 184,-144 219,-144 219,-144 225,-144 231,-150 231,-156 231,-156 231,-168 231,-168 231,-174 225,-180 219,-180"/>
<text text-anchor="middle" x="201.5" y="-158.3" font-family="Times,serif" font-size="14.00">path (2)</text>
</g>
<!-- p4 -->
<g id="node5" class="node"><title>p4</title>
<path fill="none" stroke="black" d="M201,-540C201,-540 166,-540 166,-540 160,-540 154,-534 154,-528 154,-528 154,-516 154,-516 154,-510 160,-504 166,-504 166,-504 201,-504 201,-504 207,-504 213,-510 213,-516 213,-516 213,-528 213,-528 213,-534 207,-540 201,-540"/>
<text text-anchor="middle" x="183.5" y="-518.3" font-family="Times,serif" font-size="14.00">path (4)</text>
</g>
<!-- v31 -->
<g id="node17" class="node"><title>v31</title>
<ellipse fill="none" stroke="black" cx="183.5" cy="-450" rx="27" ry="18"/>
<text text-anchor="middle" x="183.5" y="-446.3" font-family="Times,serif" font-size="14.00">31</text>
</g>
<!-- p4&#45;&gt;v31 -->
<g id="edge1" class="edge"><title>p4&#45;&gt;v31</title>
<path fill="none" stroke="black" d="M183.5,-503.697C183.5,-495.983 183.5,-486.712 183.5,-478.112"/>
<polygon fill="black" stroke="black" points="187,-478.104 183.5,-468.104 180,-478.104 187,-478.104"/>
</g>
<!-- v6 -->
<g id="node6" class="node"><title>v6</title>
<ellipse fill="none" stroke="black" cx="316.5" cy="-234" rx="27" ry="18"/>
<text text-anchor="middle" x="316.5" y="-230.3" font-family="Times,serif" font-size="14.00">6</text>
</g>
<!-- v6&#45;&gt;p3 -->
<g id="edge8" class="edge"><title>v6&#45;&gt;p3</title>
<path fill="none" stroke="black" d="M297.252,-221.284C281.171,-211.496 257.787,-197.262 238.153,-185.311"/>
<polygon fill="black" stroke="black" points="239.798,-182.214 229.436,-180.004 236.158,-188.194 239.798,-182.214"/>
</g>
<!-- p5 -->
<g id="node9" class="node"><title>p5</title>
<path fill="none" stroke="black" d="M296,-180C296,-180 261,-180 261,-180 255,-180 249,-174 249,-168 249,-168 249,-156 249,-156 249,-150 255,-144 261,-144 261,-144 296,-144 296,-144 302,-144 308,-150 308,-156 308,-156 308,-168 308,-168 308,-174 302,-180 296,-180"/>
<text text-anchor="middle" x="278.5" y="-158.3" font-family="Times,serif" font-size="14.00">path (2)</text>
</g>
<!-- v6&#45;&gt;p5 -->
<g id="edge16" class="edge"><title>v6&#45;&gt;p5</title>
<path fill="none" stroke="black" d="M307.687,-216.765C303.214,-208.525 297.672,-198.317 292.623,-189.016"/>
<polygon fill="black" stroke="black" points="295.643,-187.243 287.796,-180.124 289.491,-190.582 295.643,-187.243"/>
</g>
<!-- p12 -->
<g id="node20" class="node"><title>p12</title>
<path fill="none" stroke="black" d="M373,-180C373,-180 338,-180 338,-180 332,-180 326,-174 326,-168 326,-168 326,-156 326,-156 326,-150 332,-144 338,-144 338,-144 373,-144 373,-144 379,-144 385,-150 385,-156 385,-156 385,-168 385,-168 385,-174 379,-180 373,-180"/>
<text text-anchor="middle" x="355.5" y="-158.3" font-family="Times,serif" font-size="14.00">path (2)</text>
</g>
<!-- v6&#45;&gt;p12 -->
<g id="edge22" class="edge"><title>v6&#45;&gt;p12</title>
<path fill="none" stroke="black" d="M325.545,-216.765C330.136,-208.525 335.824,-198.317 341.006,-189.016"/>
<polygon fill="black" stroke="black" points="344.15,-190.563 345.96,-180.124 338.035,-187.156 344.15,-190.563"/>
</g>
<!-- v48 -->
<g id="node22" class="node"><title>v48</title>
<ellipse fill="none" stroke="black" cx="430.5" cy="-162" rx="27" ry="18"/>
<text text-anchor="middle" x="430.5" y="-158.3" font-family="Times,serif" font-size="14.00">48</text>
</g>
<!-- v6&#45;&gt;v48 -->
<g id="edge18" class="edge"><title>v6&#45;&gt;v48</title>
<path fill="none" stroke="black" d="M335.839,-221.125C354.099,-209.913 381.695,-192.968 402.387,-180.263"/>
<polygon fill="black" stroke="black" points="404.376,-183.148 411.067,-174.933 400.713,-177.183 404.376,-183.148"/>
</g>
<!-- v7 -->
<g id="node7" class="node"><title>v7</title>
<ellipse fill="none" stroke="black" cx="278.5" cy="-90" rx="27" ry="18"/>
<text text-anchor="middle" x="278.5" y="-86.3" font-family="Times,serif" font-size="14.00">7</text>
</g>
<!-- p7 -->
<g id="node11" class="node"><title>p7</title>
<path fill="none" stroke="black" d="M219,-36C219,-36 184,-36 184,-36 178,-36 172,-30 172,-24 172,-24 172,-12 172,-12 172,-6 178,-0 184,-0 184,-0 219,-0 219,-0 225,-0 231,-6 231,-12 231,-12 231,-24 231,-24 231,-30 225,-36 219,-36"/>
<text text-anchor="middle" x="201.5" y="-14.3" font-family="Times,serif" font-size="14.00">path (2)</text>
</g>
<!-- v7&#45;&gt;p7 -->
<g id="edge7" class="edge"><title>v7&#45;&gt;p7</title>
<path fill="none" stroke="black" d="M262.918,-74.8345C252.921,-65.7459 239.682,-53.7105 228.055,-43.1413"/>
<polygon fill="black" stroke="black" points="230.078,-40.2497 220.324,-36.1127 225.369,-45.4293 230.078,-40.2497"/>
</g>
<!-- p9 -->
<g id="node13" class="node"><title>p9</title>
<path fill="none" stroke="black" d="M296,-36C296,-36 261,-36 261,-36 255,-36 249,-30 249,-24 249,-24 249,-12 249,-12 249,-6 255,-0 261,-0 261,-0 296,-0 296,-0 302,-0 308,-6 308,-12 308,-12 308,-24 308,-24 308,-30 302,-36 296,-36"/>
<text text-anchor="middle" x="278.5" y="-14.3" font-family="Times,serif" font-size="14.00">path (3)</text>
</g>
<!-- v7&#45;&gt;p9 -->
<g id="edge17" class="edge"><title>v7&#45;&gt;p9</title>
<path fill="none" stroke="black" d="M278.5,-71.6966C278.5,-63.9827 278.5,-54.7125 278.5,-46.1124"/>
<polygon fill="black" stroke="black" points="282,-46.1043 278.5,-36.1043 275,-46.1044 282,-46.1043"/>
</g>
<!-- v8 -->
<g id="node8" class="node"><title>v8</title>
<ellipse fill="none" stroke="black" cx="183.5" cy="-594" rx="27" ry="18"/>
<text text-anchor="middle" x="183.5" y="-590.3" font-family="Times,serif" font-size="14.00">8</text>
</g>
<!-- v8&#45;&gt;p2 -->
<g id="edge23" class="edge"><title>v8&#45;&gt;p2</title>
<path fill="none" stroke="black" d="M167.918,-578.834C157.921,-569.746 144.682,-557.71 133.055,-547.141"/>
<polygon fill="black" stroke="black" points="135.078,-544.25 125.324,-540.113 130.369,-549.429 135.078,-544.25"/>
</g>
<!-- v8&#45;&gt;p4 -->
<g id="edge9" class="edge"><title>v8&#45;&gt;p4</title>
<path fill="none" stroke="black" d="M183.5,-575.697C183.5,-567.983 183.5,-558.712 183.5,-550.112"/>
<polygon fill="black" stroke="black" points="187,-550.104 183.5,-540.104 180,-550.104 187,-550.104"/>
</g>
<!-- p6 -->
<g id="node10" class="node"><title>p6</title>
<path fill="none" stroke="black" d="M278,-540C278,-540 243,-540 243,-540 237,-540 231,-534 231,-528 231,-528 231,-516 231,-516 231,-510 237,-504 243,-504 243,-504 278,-504 278,-504 284,-504 290,-510 290,-516 290,-516 290,-528 290,-528 290,-534 284,-540 278,-540"/>
<text text-anchor="middle" x="260.5" y="-518.3" font-family="Times,serif" font-size="14.00">path (3)</text>
</g>
<!-- v8&#45;&gt;p6 -->
<g id="edge2" class="edge"><title>v8&#45;&gt;p6</title>
<path fill="none" stroke="black" d="M199.082,-578.834C209.079,-569.746 222.318,-557.71 233.945,-547.141"/>
<polygon fill="black" stroke="black" points="236.631,-549.429 241.676,-540.113 231.922,-544.25 236.631,-549.429"/>
</g>
<!-- p5&#45;&gt;v7 -->
<g id="edge24" class="edge"><title>p5&#45;&gt;v7</title>
<path fill="none" stroke="black" d="M278.5,-143.697C278.5,-135.983 278.5,-126.712 278.5,-118.112"/>
<polygon fill="black" stroke="black" points="282,-118.104 278.5,-108.104 275,-118.104 282,-118.104"/>
</g>
<!-- p8 -->
<g id="node12" class="node"><title>p8</title>
<path fill="none" stroke="black" d="M47,-396C47,-396 12,-396 12,-396 6,-396 0,-390 0,-384 0,-384 0,-372 0,-372 0,-366 6,-360 12,-360 12,-360 47,-360 47,-360 53,-360 59,-366 59,-372 59,-372 59,-384 59,-384 59,-390 53,-396 47,-396"/>
<text text-anchor="middle" x="29.5" y="-374.3" font-family="Times,serif" font-size="14.00">path (7)</text>
</g>
<!-- v27&#45;&gt;p8 -->
<g id="edge11" class="edge"><title>v27&#45;&gt;p8</title>
<path fill="none" stroke="black" d="M90.9179,-434.834C80.9205,-425.746 67.6815,-413.71 56.0555,-403.141"/>
<polygon fill="black" stroke="black" points="58.0778,-400.25 48.324,-396.113 53.3691,-405.429 58.0778,-400.25"/>
</g>
<!-- p14 -->
<g id="node24" class="node"><title>p14</title>
<path fill="none" stroke="black" d="M124,-396C124,-396 89,-396 89,-396 83,-396 77,-390 77,-384 77,-384 77,-372 77,-372 77,-366 83,-360 89,-360 89,-360 124,-360 124,-360 130,-360 136,-366 136,-372 136,-372 136,-384 136,-384 136,-390 130,-396 124,-396"/>
<text text-anchor="middle" x="106.5" y="-374.3" font-family="Times,serif" font-size="14.00">path (2)</text>
</g>
<!-- v27&#45;&gt;p14 -->
<g id="edge10" class="edge"><title>v27&#45;&gt;p14</title>
<path fill="none" stroke="black" d="M106.5,-431.697C106.5,-423.983 106.5,-414.712 106.5,-406.112"/>
<polygon fill="black" stroke="black" points="110,-406.104 106.5,-396.104 103,-406.104 110,-406.104"/>
</g>
<!-- v28 -->
<g id="node15" class="node"><title>v28</title>
<ellipse fill="none" stroke="black" cx="260.5" cy="-306" rx="27" ry="18"/>
<text text-anchor="middle" x="260.5" y="-302.3" font-family="Times,serif" font-size="14.00">28</text>
</g>
<!-- v28&#45;&gt;p0 -->
<g id="edge4" class="edge"><title>v28&#45;&gt;p0</title>
<path fill="none" stroke="black" d="M255.901,-288.055C253.785,-280.261 251.223,-270.822 248.85,-262.079"/>
<polygon fill="black" stroke="black" points="252.186,-261.009 246.189,-252.275 245.431,-262.843 252.186,-261.009"/>
</g>
<!-- v28&#45;&gt;v6 -->
<g id="edge15" class="edge"><title>v28&#45;&gt;v6</title>
<path fill="none" stroke="black" d="M272.651,-289.811C280.063,-280.546 289.684,-268.52 298.025,-258.094"/>
<polygon fill="black" stroke="black" points="300.859,-260.154 304.373,-250.159 295.393,-255.782 300.859,-260.154"/>
</g>
<!-- p10 -->
<g id="node16" class="node"><title>p10</title>
<path fill="none" stroke="black" d="M278,-396C278,-396 243,-396 243,-396 237,-396 231,-390 231,-384 231,-384 231,-372 231,-372 231,-366 237,-360 243,-360 243,-360 278,-360 278,-360 284,-360 290,-366 290,-372 290,-372 290,-384 290,-384 290,-390 284,-396 278,-396"/>
<text text-anchor="middle" x="260.5" y="-374.3" font-family="Times,serif" font-size="14.00">path (2)</text>
</g>
<!-- p10&#45;&gt;v28 -->
<g id="edge13" class="edge"><title>p10&#45;&gt;v28</title>
<path fill="none" stroke="black" d="M260.5,-359.697C260.5,-351.983 260.5,-342.712 260.5,-334.112"/>
<polygon fill="black" stroke="black" points="264,-334.104 260.5,-324.104 257,-334.104 264,-334.104"/>
</g>
<!-- v31&#45;&gt;p1 -->
<g id="edge12" class="edge"><title>v31&#45;&gt;p1</title>
<path fill="none" stroke="black" d="M183.5,-431.697C183.5,-423.983 183.5,-414.712 183.5,-406.112"/>
<polygon fill="black" stroke="black" points="187,-406.104 183.5,-396.104 180,-406.104 187,-406.104"/>
</g>
<!-- v31&#45;&gt;p10 -->
<g id="edge6" class="edge"><title>v31&#45;&gt;p10</title>
<path fill="none" stroke="black" d="M199.082,-434.834C209.079,-425.746 222.318,-413.71 233.945,-403.141"/>
<polygon fill="black" stroke="black" points="236.631,-405.429 241.676,-396.113 231.922,-400.25 236.631,-405.429"/>
</g>
<!-- p11 -->
<g id="node18" class="node"><title>p11</title>
<path fill="none" stroke="black" d="M373,-36C373,-36 338,-36 338,-36 332,-36 326,-30 326,-24 326,-24 326,-12 326,-12 326,-6 332,-0 338,-0 338,-0 373,-0 373,-0 379,-0 385,-6 385,-12 385,-12 385,-24 385,-24 385,-30 379,-36 373,-36"/>
<text text-anchor="middle" x="355.5" y="-14.3" font-family="Times,serif" font-size="14.00">path (2)</text>
</g>
<!-- v36 -->
<g id="node19" class="node"><title>v36</title>
<ellipse fill="none" stroke="black" cx="430.5" cy="-18" rx="27" ry="18"/>
<text text-anchor="middle" x="430.5" y="-14.3" font-family="Times,serif" font-size="14.00">36</text>
</g>
<!-- v40 -->
<g id="node21" class="node"><title>v40</title>
<ellipse fill="none" stroke="black" cx="355.5" cy="-90" rx="27" ry="18"/>
<text text-anchor="middle" x="355.5" y="-86.3" font-family="Times,serif" font-size="14.00">40</text>
</g>
<!-- p12&#45;&gt;v40 -->
<g id="edge19" class="edge"><title>p12&#45;&gt;v40</title>
<path fill="none" stroke="black" d="M355.5,-143.697C355.5,-135.983 355.5,-126.712 355.5,-118.112"/>
<polygon fill="black" stroke="black" points="359,-118.104 355.5,-108.104 352,-118.104 359,-118.104"/>
</g>
<!-- v40&#45;&gt;p11 -->
<g id="edge3" class="edge"><title>v40&#45;&gt;p11</title>
<path fill="none" stroke="black" d="M355.5,-71.6966C355.5,-63.9827 355.5,-54.7125 355.5,-46.1124"/>
<polygon fill="black" stroke="black" points="359,-46.1043 355.5,-36.1043 352,-46.1044 359,-46.1043"/>
</g>
<!-- v40&#45;&gt;v36 -->
<g id="edge25" class="edge"><title>v40&#45;&gt;v36</title>
<path fill="none" stroke="black" d="M370.677,-74.8345C381.351,-64.872 395.819,-51.3687 407.853,-40.1371"/>
<polygon fill="black" stroke="black" points="410.423,-42.5264 415.345,-33.1445 405.646,-37.409 410.423,-42.5264"/>
</g>
<!-- p13 -->
<g id="node23" class="node"><title>p13</title>
<path fill="none" stroke="black" d="M87,-252C87,-252 52,-252 52,-252 46,-252 40,-246 40,-240 40,-240 40,-228 40,-228 40,-222 46,-216 52,-216 52,-216 87,-216 87,-216 93,-216 99,-222 99,-228 99,-228 99,-240 99,-240 99,-246 93,-252 87,-252"/>
<text text-anchor="middle" x="69.5" y="-230.3" font-family="Times,serif" font-size="14.00">path (4)</text>
</g>
<!-- v55 -->
<g id="node26" class="node"><title>v55</title>
<ellipse fill="none" stroke="black" cx="106.5" cy="-306" rx="27" ry="18"/>
<text text-anchor="middle" x="106.5" y="-302.3" font-family="Times,serif" font-size="14.00">55</text>
</g>
<!-- p14&#45;&gt;v55 -->
<g id="edge20" class="edge"><title>p14&#45;&gt;v55</title>
<path fill="none" stroke="black" d="M106.5,-359.697C106.5,-351.983 106.5,-342.712 106.5,-334.112"/>
<polygon fill="black" stroke="black" points="110,-334.104 106.5,-324.104 103,-334.104 110,-334.104"/>
</g>
<!-- p15 -->
<g id="node25" class="node"><title>p15</title>
<path fill="none" stroke="black" d="M164,-252C164,-252 129,-252 129,-252 123,-252 117,-246 117,-240 117,-240 117,-228 117,-228 117,-222 123,-216 129,-216 129,-216 164,-216 164,-216 170,-216 176,-222 176,-228 176,-228 176,-240 176,-240 176,-246 170,-252 164,-252"/>
<text text-anchor="middle" x="146.5" y="-230.3" font-family="Times,serif" font-size="14.00">path (3)</text>
</g>
<!-- v55&#45;&gt;p13 -->
<g id="edge21" class="edge"><title>v55&#45;&gt;p13</title>
<path fill="none" stroke="black" d="M97.9185,-288.765C93.5635,-280.525 88.1674,-270.317 83.2511,-261.016"/>
<polygon fill="black" stroke="black" points="86.3187,-259.329 78.5512,-252.124 80.13,-262.6 86.3187,-259.329"/>
</g>
<!-- v55&#45;&gt;p15 -->
<g id="edge5" class="edge"><title>v55&#45;&gt;p15</title>
<path fill="none" stroke="black" d="M115.777,-288.765C120.485,-280.525 126.319,-270.317 131.634,-261.016"/>
<polygon fill="black" stroke="black" points="134.792,-262.543 136.715,-252.124 128.715,-259.07 134.792,-262.543"/>
</g>
</g>
</svg>
