<?xml version="1.0" encoding="UTF-8" standalone="no"?>
<!DOCTYPE svg PUBLIC "-//W3C//DTD SVG 1.1//EN"
 "http://www.w3.org/Graphics/SVG/1.1/DTD/svg11.dtd">
<!-- Generated by graphviz version 2.40.1 (20161225.0304)
 -->
<!-- Title: %3 Pages: 1 -->
<svg width="571pt" height="1196pt"
 viewBox="0.00 0.00 571.00 1196.00" xmlns="http://www.w3.org/2000/svg" xmlns:xlink="http://www.w3.org/1999/xlink">
<g id="graph0" class="graph" transform="scale(1 1) rotate(0) translate(4 1192)">
<title>%3</title>
<polygon fill="#ffffff" stroke="transparent" points="-4,4 -4,-1192 567,-1192 567,4 -4,4"/>
<!-- 0 -->
<g id="node1" class="node">
<title>0</title>
<g id="a_node1"><a xlink:title="V">
<ellipse fill="#f60b00" stroke="#000000" stroke-width="0" cx="467" cy="-1098" rx="18" ry="18"/>
</a>
</g>
</g>
<!-- 58 -->
<g id="node59" class="node">
<title>58</title>
<g id="a_node59"><a xlink:title="V">
<ellipse fill="#f60b00" stroke="#000000" stroke-width="0" cx="440" cy="-1026" rx="18" ry="18"/>
</a>
</g>
</g>
<!-- 0&#45;&gt;58 -->
<g id="edge17" class="edge">
<title>0&#45;&gt;58</title>
<path fill="none" stroke="#000000" d="M460.6014,-1080.937C457.407,-1072.4186 453.471,-1061.9227 449.8982,-1052.3952"/>
<polygon fill="#000000" stroke="#000000" points="453.1411,-1051.0749 446.3527,-1042.9405 446.5868,-1053.5328 453.1411,-1051.0749"/>
</g>
<!-- 1 -->
<g id="node2" class="node">
<title>1</title>
<g id="a_node2"><a xlink:title="V">
<ellipse fill="#f60b00" stroke="#000000" stroke-width="0" cx="504" cy="-378" rx="18" ry="18"/>
</a>
</g>
</g>
<!-- 2 -->
<g id="node3" class="node">
<title>2</title>
<g id="a_node3"><a xlink:title="V">
<ellipse fill="#f60b00" stroke="#000000" stroke-width="0" cx="541" cy="-1026" rx="18" ry="18"/>
</a>
</g>
</g>
<!-- 21 -->
<g id="node22" class="node">
<title>21</title>
<g id="a_node22"><a xlink:title="V">
<ellipse fill="#f60b00" stroke="#000000" stroke-width="0" cx="545" cy="-954" rx="18" ry="18"/>
</a>
</g>
</g>
<!-- 2&#45;&gt;21 -->
<g id="edge58" class="edge">
<title>2&#45;&gt;21</title>
<path fill="none" stroke="#000000" d="M542.0094,-1007.8314C542.4372,-1000.131 542.9459,-990.9743 543.4213,-982.4166"/>
<polygon fill="#000000" stroke="#000000" points="546.9169,-982.592 543.977,-972.4133 539.9276,-982.2037 546.9169,-982.592"/>
</g>
<!-- 3 -->
<g id="node4" class="node">
<title>3</title>
<g id="a_node4"><a xlink:title="V">
<ellipse fill="#f60b00" stroke="#000000" stroke-width="0" cx="332" cy="-810" rx="18" ry="18"/>
</a>
</g>
</g>
<!-- 23 -->
<g id="node24" class="node">
<title>23</title>
<g id="a_node24"><a xlink:title="V">
<ellipse fill="#f60b00" stroke="#000000" stroke-width="0" cx="332" cy="-738" rx="18" ry="18"/>
</a>
</g>
</g>
<!-- 3&#45;&gt;23 -->
<g id="edge26" class="edge">
<title>3&#45;&gt;23</title>
<path fill="none" stroke="#000000" d="M332,-791.8314C332,-784.131 332,-774.9743 332,-766.4166"/>
<polygon fill="#000000" stroke="#000000" points="335.5001,-766.4132 332,-756.4133 328.5001,-766.4133 335.5001,-766.4132"/>
</g>
<!-- 4 -->
<g id="node5" class="node">
<title>4</title>
<g id="a_node5"><a xlink:title="I">
<ellipse fill="#0ff8e7" stroke="#000000" stroke-width="0" cx="450" cy="-450" rx="18" ry="18"/>
</a>
</g>
</g>
<!-- 6 -->
<g id="node7" class="node">
<title>6</title>
<g id="a_node7"><a xlink:title="I">
<ellipse fill="#0ff8e7" stroke="#000000" stroke-width="0" cx="450" cy="-378" rx="18" ry="18"/>
</a>
</g>
</g>
<!-- 4&#45;&gt;6 -->
<g id="edge55" class="edge">
<title>4&#45;&gt;6</title>
<path fill="none" stroke="#000000" d="M450,-431.8314C450,-424.131 450,-414.9743 450,-406.4166"/>
<polygon fill="#000000" stroke="#000000" points="453.5001,-406.4132 450,-396.4133 446.5001,-406.4133 453.5001,-406.4132"/>
</g>
<!-- 5 -->
<g id="node6" class="node">
<title>5</title>
<g id="a_node6"><a xlink:title="V">
<ellipse fill="#f60b00" stroke="#000000" stroke-width="0" cx="450" cy="-810" rx="18" ry="18"/>
</a>
</g>
</g>
<!-- 14 -->
<g id="node15" class="node">
<title>14</title>
<g id="a_node15"><a xlink:title="I">
<ellipse fill="#0ff8e7" stroke="#000000" stroke-width="0" cx="450" cy="-738" rx="18" ry="18"/>
</a>
</g>
</g>
<!-- 5&#45;&gt;14 -->
<g id="edge60" class="edge">
<title>5&#45;&gt;14</title>
<path fill="none" stroke="#000000" d="M450,-791.8314C450,-784.131 450,-774.9743 450,-766.4166"/>
<polygon fill="#000000" stroke="#000000" points="453.5001,-766.4132 450,-756.4133 446.5001,-766.4133 453.5001,-766.4132"/>
</g>
<!-- 17 -->
<g id="node18" class="node">
<title>17</title>
<g id="a_node18"><a xlink:title="V">
<ellipse fill="#f60b00" stroke="#000000" stroke-width="0" cx="504" cy="-738" rx="18" ry="18"/>
</a>
</g>
</g>
<!-- 5&#45;&gt;17 -->
<g id="edge37" class="edge">
<title>5&#45;&gt;17</title>
<path fill="none" stroke="#000000" d="M460.9277,-795.4297C468.3934,-785.4754 478.4368,-772.0842 486.9474,-760.7368"/>
<polygon fill="#000000" stroke="#000000" points="489.8885,-762.6486 493.0885,-752.5486 484.2885,-758.4486 489.8885,-762.6486"/>
</g>
<!-- 7 -->
<g id="node8" class="node">
<title>7</title>
<g id="a_node8"><a xlink:title="V">
<ellipse fill="#f60b00" stroke="#000000" stroke-width="0" cx="72" cy="-378" rx="18" ry="18"/>
</a>
</g>
</g>
<!-- 8 -->
<g id="node9" class="node">
<title>8</title>
<g id="a_node9"><a xlink:title="V">
<ellipse fill="#f60b00" stroke="#000000" stroke-width="0" cx="504" cy="-522" rx="18" ry="18"/>
</a>
</g>
</g>
<!-- 10 -->
<g id="node11" class="node">
<title>10</title>
<g id="a_node11"><a xlink:title="V">
<ellipse fill="#f60b00" stroke="#000000" stroke-width="0" cx="504" cy="-450" rx="18" ry="18"/>
</a>
</g>
</g>
<!-- 8&#45;&gt;10 -->
<g id="edge22" class="edge">
<title>8&#45;&gt;10</title>
<path fill="none" stroke="#000000" d="M504,-503.8314C504,-496.131 504,-486.9743 504,-478.4166"/>
<polygon fill="#000000" stroke="#000000" points="507.5001,-478.4132 504,-468.4133 500.5001,-478.4133 507.5001,-478.4132"/>
</g>
<!-- 9 -->
<g id="node10" class="node">
<title>9</title>
<g id="a_node10"><a xlink:title="I">
<ellipse fill="#0ff8e7" stroke="#000000" stroke-width="0" cx="450" cy="-522" rx="18" ry="18"/>
</a>
</g>
</g>
<!-- 9&#45;&gt;4 -->
<g id="edge11" class="edge">
<title>9&#45;&gt;4</title>
<path fill="none" stroke="#000000" d="M450,-503.8314C450,-496.131 450,-486.9743 450,-478.4166"/>
<polygon fill="#000000" stroke="#000000" points="453.5001,-478.4132 450,-468.4133 446.5001,-478.4133 453.5001,-478.4132"/>
</g>
<!-- 10&#45;&gt;1 -->
<g id="edge3" class="edge">
<title>10&#45;&gt;1</title>
<path fill="none" stroke="#000000" d="M504,-431.8314C504,-424.131 504,-414.9743 504,-406.4166"/>
<polygon fill="#000000" stroke="#000000" points="507.5001,-406.4132 504,-396.4133 500.5001,-406.4133 507.5001,-406.4132"/>
</g>
<!-- 11 -->
<g id="node12" class="node">
<title>11</title>
<g id="a_node12"><a xlink:title="V">
<ellipse fill="#f60b00" stroke="#000000" stroke-width="0" cx="534" cy="-1098" rx="18" ry="18"/>
</a>
</g>
</g>
<!-- 11&#45;&gt;2 -->
<g id="edge4" class="edge">
<title>11&#45;&gt;2</title>
<path fill="none" stroke="#000000" d="M535.7664,-1079.8314C536.515,-1072.131 537.4053,-1062.9743 538.2373,-1054.4166"/>
<polygon fill="#000000" stroke="#000000" points="541.7256,-1054.7051 539.2098,-1044.4133 534.7585,-1054.0276 541.7256,-1054.7051"/>
</g>
<!-- 12 -->
<g id="node13" class="node">
<title>12</title>
<g id="a_node13"><a xlink:title="V">
<ellipse fill="#f60b00" stroke="#000000" stroke-width="0" cx="494" cy="-1170" rx="18" ry="18"/>
</a>
</g>
</g>
<!-- 12&#45;&gt;0 -->
<g id="edge56" class="edge">
<title>12&#45;&gt;0</title>
<path fill="none" stroke="#000000" d="M487.6014,-1152.937C484.407,-1144.4186 480.471,-1133.9227 476.8982,-1124.3952"/>
<polygon fill="#000000" stroke="#000000" points="480.1411,-1123.0749 473.3527,-1114.9405 473.5868,-1125.5328 480.1411,-1123.0749"/>
</g>
<!-- 12&#45;&gt;11 -->
<g id="edge44" class="edge">
<title>12&#45;&gt;11</title>
<path fill="none" stroke="#000000" d="M502.8773,-1154.0209C507.9524,-1144.8857 514.4285,-1133.2286 520.1577,-1122.9162"/>
<polygon fill="#000000" stroke="#000000" points="523.3506,-1124.3758 525.1475,-1113.9345 517.2315,-1120.9763 523.3506,-1124.3758"/>
</g>
<!-- 13 -->
<g id="node14" class="node">
<title>13</title>
<g id="a_node14"><a xlink:title="V">
<ellipse fill="#f60b00" stroke="#000000" stroke-width="0" cx="504" cy="-666" rx="18" ry="18"/>
</a>
</g>
</g>
<!-- 18 -->
<g id="node19" class="node">
<title>18</title>
<g id="a_node19"><a xlink:title="V">
<ellipse fill="#f60b00" stroke="#000000" stroke-width="0" cx="504" cy="-594" rx="18" ry="18"/>
</a>
</g>
</g>
<!-- 13&#45;&gt;18 -->
<g id="edge64" class="edge">
<title>13&#45;&gt;18</title>
<path fill="none" stroke="#000000" d="M504,-647.8314C504,-640.131 504,-630.9743 504,-622.4166"/>
<polygon fill="#000000" stroke="#000000" points="507.5001,-622.4132 504,-612.4133 500.5001,-622.4133 507.5001,-622.4132"/>
</g>
<!-- 20 -->
<g id="node21" class="node">
<title>20</title>
<g id="a_node21"><a xlink:title="I">
<ellipse fill="#0ff8e7" stroke="#000000" stroke-width="0" cx="450" cy="-666" rx="18" ry="18"/>
</a>
</g>
</g>
<!-- 14&#45;&gt;20 -->
<g id="edge46" class="edge">
<title>14&#45;&gt;20</title>
<path fill="none" stroke="#000000" d="M450,-719.8314C450,-712.131 450,-702.9743 450,-694.4166"/>
<polygon fill="#000000" stroke="#000000" points="453.5001,-694.4132 450,-684.4133 446.5001,-694.4133 453.5001,-694.4132"/>
</g>
<!-- 15 -->
<g id="node16" class="node">
<title>15</title>
<g id="a_node16"><a xlink:title="V">
<ellipse fill="#f60b00" stroke="#000000" stroke-width="0" cx="18" cy="-378" rx="18" ry="18"/>
</a>
</g>
</g>
<!-- 26 -->
<g id="node27" class="node">
<title>26</title>
<g id="a_node27"><a xlink:title="V">
<ellipse fill="#f60b00" stroke="#000000" stroke-width="0" cx="18" cy="-306" rx="18" ry="18"/>
</a>
</g>
</g>
<!-- 15&#45;&gt;26 -->
<g id="edge24" class="edge">
<title>15&#45;&gt;26</title>
<path fill="none" stroke="#000000" d="M18,-359.8314C18,-352.131 18,-342.9743 18,-334.4166"/>
<polygon fill="#000000" stroke="#000000" points="21.5001,-334.4132 18,-324.4133 14.5001,-334.4133 21.5001,-334.4132"/>
</g>
<!-- 16 -->
<g id="node17" class="node">
<title>16</title>
<g id="a_node17"><a xlink:title="V">
<ellipse fill="#f60b00" stroke="#000000" stroke-width="0" cx="342" cy="-162" rx="18" ry="18"/>
</a>
</g>
</g>
<!-- 61 -->
<g id="node62" class="node">
<title>61</title>
<g id="a_node62"><a xlink:title="V">
<ellipse fill="#f60b00" stroke="#000000" stroke-width="0" cx="342" cy="-90" rx="18" ry="18"/>
</a>
</g>
</g>
<!-- 16&#45;&gt;61 -->
<g id="edge5" class="edge">
<title>16&#45;&gt;61</title>
<path fill="none" stroke="#000000" d="M342,-143.8314C342,-136.131 342,-126.9743 342,-118.4166"/>
<polygon fill="#000000" stroke="#000000" points="345.5001,-118.4132 342,-108.4133 338.5001,-118.4133 345.5001,-118.4132"/>
</g>
<!-- 17&#45;&gt;13 -->
<g id="edge12" class="edge">
<title>17&#45;&gt;13</title>
<path fill="none" stroke="#000000" d="M504,-719.8314C504,-712.131 504,-702.9743 504,-694.4166"/>
<polygon fill="#000000" stroke="#000000" points="507.5001,-694.4132 504,-684.4133 500.5001,-694.4133 507.5001,-694.4132"/>
</g>
<!-- 18&#45;&gt;8 -->
<g id="edge14" class="edge">
<title>18&#45;&gt;8</title>
<path fill="none" stroke="#000000" d="M504,-575.8314C504,-568.131 504,-558.9743 504,-550.4166"/>
<polygon fill="#000000" stroke="#000000" points="507.5001,-550.4132 504,-540.4133 500.5001,-550.4133 507.5001,-550.4132"/>
</g>
<!-- 19 -->
<g id="node20" class="node">
<title>19</title>
<g id="a_node20"><a xlink:title="I">
<ellipse fill="#0ff8e7" stroke="#000000" stroke-width="0" cx="450" cy="-594" rx="18" ry="18"/>
</a>
</g>
</g>
<!-- 19&#45;&gt;9 -->
<g id="edge42" class="edge">
<title>19&#45;&gt;9</title>
<path fill="none" stroke="#000000" d="M450,-575.8314C450,-568.131 450,-558.9743 450,-550.4166"/>
<polygon fill="#000000" stroke="#000000" points="453.5001,-550.4132 450,-540.4133 446.5001,-550.4133 453.5001,-550.4132"/>
</g>
<!-- 20&#45;&gt;19 -->
<g id="edge68" class="edge">
<title>20&#45;&gt;19</title>
<path fill="none" stroke="#000000" d="M450,-647.8314C450,-640.131 450,-630.9743 450,-622.4166"/>
<polygon fill="#000000" stroke="#000000" points="453.5001,-622.4132 450,-612.4133 446.5001,-622.4133 453.5001,-622.4132"/>
</g>
<!-- 25 -->
<g id="node26" class="node">
<title>25</title>
<g id="a_node26"><a xlink:title="V">
<ellipse fill="#f60b00" stroke="#000000" stroke-width="0" cx="545" cy="-882" rx="18" ry="18"/>
</a>
</g>
</g>
<!-- 21&#45;&gt;25 -->
<g id="edge52" class="edge">
<title>21&#45;&gt;25</title>
<path fill="none" stroke="#000000" d="M545,-935.8314C545,-928.131 545,-918.9743 545,-910.4166"/>
<polygon fill="#000000" stroke="#000000" points="548.5001,-910.4132 545,-900.4133 541.5001,-910.4133 548.5001,-910.4132"/>
</g>
<!-- 22 -->
<g id="node23" class="node">
<title>22</title>
<g id="a_node23"><a xlink:title="V">
<ellipse fill="#f60b00" stroke="#000000" stroke-width="0" cx="234" cy="-306" rx="18" ry="18"/>
</a>
</g>
</g>
<!-- 41 -->
<g id="node42" class="node">
<title>41</title>
<g id="a_node42"><a xlink:title="V">
<ellipse fill="#f60b00" stroke="#000000" stroke-width="0" cx="301" cy="-666" rx="18" ry="18"/>
</a>
</g>
</g>
<!-- 23&#45;&gt;41 -->
<g id="edge48" class="edge">
<title>23&#45;&gt;41</title>
<path fill="none" stroke="#000000" d="M324.8101,-721.3008C321.054,-712.577 316.3735,-701.7062 312.1589,-691.9174"/>
<polygon fill="#000000" stroke="#000000" points="315.3203,-690.4094 308.151,-682.6087 308.8909,-693.1776 315.3203,-690.4094"/>
</g>
<!-- 67 -->
<g id="node68" class="node">
<title>67</title>
<g id="a_node68"><a xlink:title="V">
<ellipse fill="#f60b00" stroke="#000000" stroke-width="0" cx="362" cy="-666" rx="18" ry="18"/>
</a>
</g>
</g>
<!-- 23&#45;&gt;67 -->
<g id="edge62" class="edge">
<title>23&#45;&gt;67</title>
<path fill="none" stroke="#000000" d="M338.958,-721.3008C342.5037,-712.7912 346.9005,-702.2388 350.8999,-692.6403"/>
<polygon fill="#000000" stroke="#000000" points="354.256,-693.6856 354.8714,-683.1086 347.7944,-690.9932 354.256,-693.6856"/>
</g>
<!-- 24 -->
<g id="node25" class="node">
<title>24</title>
<g id="a_node25"><a xlink:title="V">
<ellipse fill="#f60b00" stroke="#000000" stroke-width="0" cx="288" cy="-594" rx="18" ry="18"/>
</a>
</g>
</g>
<!-- 27 -->
<g id="node28" class="node">
<title>27</title>
<g id="a_node28"><a xlink:title="V">
<ellipse fill="#f60b00" stroke="#000000" stroke-width="0" cx="153" cy="-522" rx="18" ry="18"/>
</a>
</g>
</g>
<!-- 24&#45;&gt;27 -->
<g id="edge20" class="edge">
<title>24&#45;&gt;27</title>
<path fill="none" stroke="#000000" d="M271.9836,-585.4579C248.7419,-573.0624 205.4511,-549.9739 177.9899,-535.328"/>
<polygon fill="#000000" stroke="#000000" points="179.4662,-532.1487 168.9956,-530.531 176.172,-538.3251 179.4662,-532.1487"/>
</g>
<!-- 33 -->
<g id="node34" class="node">
<title>33</title>
<g id="a_node34"><a xlink:title="V">
<ellipse fill="#f60b00" stroke="#000000" stroke-width="0" cx="234" cy="-522" rx="18" ry="18"/>
</a>
</g>
</g>
<!-- 24&#45;&gt;33 -->
<g id="edge8" class="edge">
<title>24&#45;&gt;33</title>
<path fill="none" stroke="#000000" d="M277.0723,-579.4297C269.6066,-569.4754 259.5632,-556.0842 251.0526,-544.7368"/>
<polygon fill="#000000" stroke="#000000" points="253.7115,-542.4486 244.9115,-536.5486 248.1115,-546.6486 253.7115,-542.4486"/>
</g>
<!-- 35 -->
<g id="node36" class="node">
<title>35</title>
<g id="a_node36"><a xlink:title="V">
<ellipse fill="#f60b00" stroke="#000000" stroke-width="0" cx="288" cy="-522" rx="18" ry="18"/>
</a>
</g>
</g>
<!-- 24&#45;&gt;35 -->
<g id="edge41" class="edge">
<title>24&#45;&gt;35</title>
<path fill="none" stroke="#000000" d="M288,-575.8314C288,-568.131 288,-558.9743 288,-550.4166"/>
<polygon fill="#000000" stroke="#000000" points="291.5001,-550.4132 288,-540.4133 284.5001,-550.4133 291.5001,-550.4132"/>
</g>
<!-- 40 -->
<g id="node41" class="node">
<title>40</title>
<g id="a_node41"><a xlink:title="V">
<ellipse fill="#f60b00" stroke="#000000" stroke-width="0" cx="342" cy="-522" rx="18" ry="18"/>
</a>
</g>
</g>
<!-- 24&#45;&gt;40 -->
<g id="edge54" class="edge">
<title>24&#45;&gt;40</title>
<path fill="none" stroke="#000000" d="M298.9277,-579.4297C306.3934,-569.4754 316.4368,-556.0842 324.9474,-544.7368"/>
<polygon fill="#000000" stroke="#000000" points="327.8885,-546.6486 331.0885,-536.5486 322.2885,-542.4486 327.8885,-546.6486"/>
</g>
<!-- 30 -->
<g id="node31" class="node">
<title>30</title>
<g id="a_node31"><a xlink:title="V">
<ellipse fill="#f60b00" stroke="#000000" stroke-width="0" cx="72" cy="-450" rx="18" ry="18"/>
</a>
</g>
</g>
<!-- 27&#45;&gt;30 -->
<g id="edge34" class="edge">
<title>27&#45;&gt;30</title>
<path fill="none" stroke="#000000" d="M139.2595,-509.7862C126.6157,-498.5473 107.6738,-481.7101 93.1103,-468.7647"/>
<polygon fill="#000000" stroke="#000000" points="95.337,-466.0612 85.5376,-462.0334 90.6865,-471.2931 95.337,-466.0612"/>
</g>
<!-- 34 -->
<g id="node35" class="node">
<title>34</title>
<g id="a_node35"><a xlink:title="V">
<ellipse fill="#f60b00" stroke="#000000" stroke-width="0" cx="126" cy="-450" rx="18" ry="18"/>
</a>
</g>
</g>
<!-- 27&#45;&gt;34 -->
<g id="edge67" class="edge">
<title>27&#45;&gt;34</title>
<path fill="none" stroke="#000000" d="M146.6014,-504.937C143.407,-496.4186 139.471,-485.9227 135.8982,-476.3952"/>
<polygon fill="#000000" stroke="#000000" points="139.1411,-475.0749 132.3527,-466.9405 132.5868,-477.5328 139.1411,-475.0749"/>
</g>
<!-- 39 -->
<g id="node40" class="node">
<title>39</title>
<g id="a_node40"><a xlink:title="E">
<ellipse fill="#0020ff" stroke="#000000" stroke-width="0" cx="180" cy="-450" rx="18" ry="18"/>
</a>
</g>
</g>
<!-- 27&#45;&gt;39 -->
<g id="edge40" class="edge">
<title>27&#45;&gt;39</title>
<path fill="none" stroke="#000000" d="M159.3986,-504.937C162.593,-496.4186 166.529,-485.9227 170.1018,-476.3952"/>
<polygon fill="#000000" stroke="#000000" points="173.4132,-477.5328 173.6473,-466.9405 166.8589,-475.0749 173.4132,-477.5328"/>
</g>
<!-- 28 -->
<g id="node29" class="node">
<title>28</title>
<g id="a_node29"><a xlink:title="I">
<ellipse fill="#0ff8e7" stroke="#000000" stroke-width="0" cx="126" cy="-162" rx="18" ry="18"/>
</a>
</g>
</g>
<!-- 31 -->
<g id="node32" class="node">
<title>31</title>
<g id="a_node32"><a xlink:title="I">
<ellipse fill="#0ff8e7" stroke="#000000" stroke-width="0" cx="126" cy="-90" rx="18" ry="18"/>
</a>
</g>
</g>
<!-- 28&#45;&gt;31 -->
<g id="edge31" class="edge">
<title>28&#45;&gt;31</title>
<path fill="none" stroke="#000000" d="M126,-143.8314C126,-136.131 126,-126.9743 126,-118.4166"/>
<polygon fill="#000000" stroke="#000000" points="129.5001,-118.4132 126,-108.4133 122.5001,-118.4133 129.5001,-118.4132"/>
</g>
<!-- 29 -->
<g id="node30" class="node">
<title>29</title>
<g id="a_node30"><a xlink:title="V">
<ellipse fill="#f60b00" stroke="#000000" stroke-width="0" cx="342" cy="-450" rx="18" ry="18"/>
</a>
</g>
</g>
<!-- 44 -->
<g id="node45" class="node">
<title>44</title>
<g id="a_node45"><a xlink:title="V">
<ellipse fill="#f60b00" stroke="#000000" stroke-width="0" cx="342" cy="-378" rx="18" ry="18"/>
</a>
</g>
</g>
<!-- 29&#45;&gt;44 -->
<g id="edge9" class="edge">
<title>29&#45;&gt;44</title>
<path fill="none" stroke="#000000" d="M342,-431.8314C342,-424.131 342,-414.9743 342,-406.4166"/>
<polygon fill="#000000" stroke="#000000" points="345.5001,-406.4132 342,-396.4133 338.5001,-406.4133 345.5001,-406.4132"/>
</g>
<!-- 30&#45;&gt;7 -->
<g id="edge70" class="edge">
<title>30&#45;&gt;7</title>
<path fill="none" stroke="#000000" d="M72,-431.8314C72,-424.131 72,-414.9743 72,-406.4166"/>
<polygon fill="#000000" stroke="#000000" points="75.5001,-406.4132 72,-396.4133 68.5001,-406.4133 75.5001,-406.4132"/>
</g>
<!-- 32 -->
<g id="node33" class="node">
<title>32</title>
<g id="a_node33"><a xlink:title="V">
<ellipse fill="#f60b00" stroke="#000000" stroke-width="0" cx="234" cy="-378" rx="18" ry="18"/>
</a>
</g>
</g>
<!-- 32&#45;&gt;22 -->
<g id="edge35" class="edge">
<title>32&#45;&gt;22</title>
<path fill="none" stroke="#000000" d="M234,-359.8314C234,-352.131 234,-342.9743 234,-334.4166"/>
<polygon fill="#000000" stroke="#000000" points="237.5001,-334.4132 234,-324.4133 230.5001,-334.4133 237.5001,-334.4132"/>
</g>
<!-- 37 -->
<g id="node38" class="node">
<title>37</title>
<g id="a_node38"><a xlink:title="V">
<ellipse fill="#f60b00" stroke="#000000" stroke-width="0" cx="234" cy="-450" rx="18" ry="18"/>
</a>
</g>
</g>
<!-- 33&#45;&gt;37 -->
<g id="edge61" class="edge">
<title>33&#45;&gt;37</title>
<path fill="none" stroke="#000000" d="M234,-503.8314C234,-496.131 234,-486.9743 234,-478.4166"/>
<polygon fill="#000000" stroke="#000000" points="237.5001,-478.4132 234,-468.4133 230.5001,-478.4133 237.5001,-478.4132"/>
</g>
<!-- 36 -->
<g id="node37" class="node">
<title>36</title>
<g id="a_node37"><a xlink:title="I">
<ellipse fill="#0ff8e7" stroke="#000000" stroke-width="0" cx="126" cy="-378" rx="18" ry="18"/>
</a>
</g>
</g>
<!-- 34&#45;&gt;36 -->
<g id="edge28" class="edge">
<title>34&#45;&gt;36</title>
<path fill="none" stroke="#000000" d="M126,-431.8314C126,-424.131 126,-414.9743 126,-406.4166"/>
<polygon fill="#000000" stroke="#000000" points="129.5001,-406.4132 126,-396.4133 122.5001,-406.4133 129.5001,-406.4132"/>
</g>
<!-- 70 -->
<g id="node71" class="node">
<title>70</title>
<g id="a_node71"><a xlink:title="V">
<ellipse fill="#f60b00" stroke="#000000" stroke-width="0" cx="288" cy="-450" rx="18" ry="18"/>
</a>
</g>
</g>
<!-- 35&#45;&gt;70 -->
<g id="edge50" class="edge">
<title>35&#45;&gt;70</title>
<path fill="none" stroke="#000000" d="M288,-503.8314C288,-496.131 288,-486.9743 288,-478.4166"/>
<polygon fill="#000000" stroke="#000000" points="291.5001,-478.4132 288,-468.4133 284.5001,-478.4133 291.5001,-478.4132"/>
</g>
<!-- 38 -->
<g id="node39" class="node">
<title>38</title>
<g id="a_node39"><a xlink:title="I">
<ellipse fill="#0ff8e7" stroke="#000000" stroke-width="0" cx="126" cy="-306" rx="18" ry="18"/>
</a>
</g>
</g>
<!-- 36&#45;&gt;38 -->
<g id="edge19" class="edge">
<title>36&#45;&gt;38</title>
<path fill="none" stroke="#000000" d="M126,-359.8314C126,-352.131 126,-342.9743 126,-334.4166"/>
<polygon fill="#000000" stroke="#000000" points="129.5001,-334.4132 126,-324.4133 122.5001,-334.4133 129.5001,-334.4132"/>
</g>
<!-- 37&#45;&gt;32 -->
<g id="edge65" class="edge">
<title>37&#45;&gt;32</title>
<path fill="none" stroke="#000000" d="M234,-431.8314C234,-424.131 234,-414.9743 234,-406.4166"/>
<polygon fill="#000000" stroke="#000000" points="237.5001,-406.4132 234,-396.4133 230.5001,-406.4133 237.5001,-406.4132"/>
</g>
<!-- 42 -->
<g id="node43" class="node">
<title>42</title>
<g id="a_node43"><a xlink:title="I">
<ellipse fill="#0ff8e7" stroke="#000000" stroke-width="0" cx="126" cy="-234" rx="18" ry="18"/>
</a>
</g>
</g>
<!-- 38&#45;&gt;42 -->
<g id="edge59" class="edge">
<title>38&#45;&gt;42</title>
<path fill="none" stroke="#000000" d="M126,-287.8314C126,-280.131 126,-270.9743 126,-262.4166"/>
<polygon fill="#000000" stroke="#000000" points="129.5001,-262.4132 126,-252.4133 122.5001,-262.4133 129.5001,-262.4132"/>
</g>
<!-- 40&#45;&gt;29 -->
<g id="edge43" class="edge">
<title>40&#45;&gt;29</title>
<path fill="none" stroke="#000000" d="M342,-503.8314C342,-496.131 342,-486.9743 342,-478.4166"/>
<polygon fill="#000000" stroke="#000000" points="345.5001,-478.4132 342,-468.4133 338.5001,-478.4133 345.5001,-478.4132"/>
</g>
<!-- 41&#45;&gt;24 -->
<g id="edge47" class="edge">
<title>41&#45;&gt;24</title>
<path fill="none" stroke="#000000" d="M297.7865,-648.2022C296.349,-640.2406 294.6205,-630.6671 293.0187,-621.7957"/>
<polygon fill="#000000" stroke="#000000" points="296.4428,-621.0615 291.2216,-611.8425 289.5542,-622.3053 296.4428,-621.0615"/>
</g>
<!-- 42&#45;&gt;28 -->
<g id="edge69" class="edge">
<title>42&#45;&gt;28</title>
<path fill="none" stroke="#000000" d="M126,-215.8314C126,-208.131 126,-198.9743 126,-190.4166"/>
<polygon fill="#000000" stroke="#000000" points="129.5001,-190.4132 126,-180.4133 122.5001,-190.4133 129.5001,-190.4132"/>
</g>
<!-- 43 -->
<g id="node44" class="node">
<title>43</title>
<g id="a_node44"><a xlink:title="V">
<ellipse fill="#f60b00" stroke="#000000" stroke-width="0" cx="342" cy="-306" rx="18" ry="18"/>
</a>
</g>
</g>
<!-- 45 -->
<g id="node46" class="node">
<title>45</title>
<g id="a_node46"><a xlink:title="V">
<ellipse fill="#f60b00" stroke="#000000" stroke-width="0" cx="342" cy="-234" rx="18" ry="18"/>
</a>
</g>
</g>
<!-- 43&#45;&gt;45 -->
<g id="edge29" class="edge">
<title>43&#45;&gt;45</title>
<path fill="none" stroke="#000000" d="M342,-287.8314C342,-280.131 342,-270.9743 342,-262.4166"/>
<polygon fill="#000000" stroke="#000000" points="345.5001,-262.4132 342,-252.4133 338.5001,-262.4133 345.5001,-262.4132"/>
</g>
<!-- 44&#45;&gt;43 -->
<g id="edge13" class="edge">
<title>44&#45;&gt;43</title>
<path fill="none" stroke="#000000" d="M342,-359.8314C342,-352.131 342,-342.9743 342,-334.4166"/>
<polygon fill="#000000" stroke="#000000" points="345.5001,-334.4132 342,-324.4133 338.5001,-334.4133 345.5001,-334.4132"/>
</g>
<!-- 45&#45;&gt;16 -->
<g id="edge39" class="edge">
<title>45&#45;&gt;16</title>
<path fill="none" stroke="#000000" d="M342,-215.8314C342,-208.131 342,-198.9743 342,-190.4166"/>
<polygon fill="#000000" stroke="#000000" points="345.5001,-190.4132 342,-180.4133 338.5001,-190.4133 345.5001,-190.4132"/>
</g>
<!-- 46 -->
<g id="node47" class="node">
<title>46</title>
<g id="a_node47"><a xlink:title="V">
<ellipse fill="#f60b00" stroke="#000000" stroke-width="0" cx="251" cy="-954" rx="18" ry="18"/>
</a>
</g>
</g>
<!-- 47 -->
<g id="node48" class="node">
<title>47</title>
<g id="a_node48"><a xlink:title="V">
<ellipse fill="#f60b00" stroke="#000000" stroke-width="0" cx="116" cy="-882" rx="18" ry="18"/>
</a>
</g>
</g>
<!-- 46&#45;&gt;47 -->
<g id="edge10" class="edge">
<title>46&#45;&gt;47</title>
<path fill="none" stroke="#000000" d="M234.5668,-946.5634C213.104,-936.6754 174.5483,-918.3082 143,-900 141.8763,-899.3479 140.7358,-898.6671 139.5909,-897.9683"/>
<polygon fill="#000000" stroke="#000000" points="141.2372,-894.8666 130.9265,-892.4291 137.4667,-900.7644 141.2372,-894.8666"/>
</g>
<!-- 53 -->
<g id="node54" class="node">
<title>53</title>
<g id="a_node54"><a xlink:title="V">
<ellipse fill="#f60b00" stroke="#000000" stroke-width="0" cx="170" cy="-882" rx="18" ry="18"/>
</a>
</g>
</g>
<!-- 46&#45;&gt;53 -->
<g id="edge25" class="edge">
<title>46&#45;&gt;53</title>
<path fill="none" stroke="#000000" d="M237.2595,-941.7862C224.6157,-930.5473 205.6738,-913.7101 191.1103,-900.7647"/>
<polygon fill="#000000" stroke="#000000" points="193.337,-898.0612 183.5376,-894.0334 188.6865,-903.2931 193.337,-898.0612"/>
</g>
<!-- 54 -->
<g id="node55" class="node">
<title>54</title>
<g id="a_node55"><a xlink:title="V">
<ellipse fill="#f60b00" stroke="#000000" stroke-width="0" cx="224" cy="-882" rx="18" ry="18"/>
</a>
</g>
</g>
<!-- 46&#45;&gt;54 -->
<g id="edge51" class="edge">
<title>46&#45;&gt;54</title>
<path fill="none" stroke="#000000" d="M244.6014,-936.937C241.407,-928.4186 237.471,-917.9227 233.8982,-908.3952"/>
<polygon fill="#000000" stroke="#000000" points="237.1411,-907.0749 230.3527,-898.9405 230.5868,-909.5328 237.1411,-907.0749"/>
</g>
<!-- 56 -->
<g id="node57" class="node">
<title>56</title>
<g id="a_node57"><a xlink:title="V">
<ellipse fill="#f60b00" stroke="#000000" stroke-width="0" cx="278" cy="-882" rx="18" ry="18"/>
</a>
</g>
</g>
<!-- 46&#45;&gt;56 -->
<g id="edge6" class="edge">
<title>46&#45;&gt;56</title>
<path fill="none" stroke="#000000" d="M257.3986,-936.937C260.593,-928.4186 264.529,-917.9227 268.1018,-908.3952"/>
<polygon fill="#000000" stroke="#000000" points="271.4132,-909.5328 271.6473,-898.9405 264.8589,-907.0749 271.4132,-909.5328"/>
</g>
<!-- 66 -->
<g id="node67" class="node">
<title>66</title>
<g id="a_node67"><a xlink:title="V">
<ellipse fill="#f60b00" stroke="#000000" stroke-width="0" cx="332" cy="-882" rx="18" ry="18"/>
</a>
</g>
</g>
<!-- 46&#45;&gt;66 -->
<g id="edge1" class="edge">
<title>46&#45;&gt;66</title>
<path fill="none" stroke="#000000" d="M264.7405,-941.7862C277.3843,-930.5473 296.3262,-913.7101 310.8897,-900.7647"/>
<polygon fill="#000000" stroke="#000000" points="313.3135,-903.2931 318.4624,-894.0334 308.663,-898.0612 313.3135,-903.2931"/>
</g>
<!-- 48 -->
<g id="node49" class="node">
<title>48</title>
<g id="a_node49"><a xlink:title="V">
<ellipse fill="#f60b00" stroke="#000000" stroke-width="0" cx="437" cy="-882" rx="18" ry="18"/>
</a>
</g>
</g>
<!-- 48&#45;&gt;5 -->
<g id="edge2" class="edge">
<title>48&#45;&gt;5</title>
<path fill="none" stroke="#000000" d="M440.2135,-864.2022C441.651,-856.2406 443.3795,-846.6671 444.9813,-837.7957"/>
<polygon fill="#000000" stroke="#000000" points="448.4458,-838.3053 446.7784,-827.8425 441.5572,-837.0615 448.4458,-838.3053"/>
</g>
<!-- 49 -->
<g id="node50" class="node">
<title>49</title>
<g id="a_node50"><a xlink:title="V">
<ellipse fill="#f60b00" stroke="#000000" stroke-width="0" cx="140" cy="-666" rx="18" ry="18"/>
</a>
</g>
</g>
<!-- 65 -->
<g id="node66" class="node">
<title>65</title>
<g id="a_node66"><a xlink:title="V">
<ellipse fill="#f60b00" stroke="#000000" stroke-width="0" cx="140" cy="-594" rx="18" ry="18"/>
</a>
</g>
</g>
<!-- 49&#45;&gt;65 -->
<g id="edge16" class="edge">
<title>49&#45;&gt;65</title>
<path fill="none" stroke="#000000" d="M140,-647.8314C140,-640.131 140,-630.9743 140,-622.4166"/>
<polygon fill="#000000" stroke="#000000" points="143.5001,-622.4132 140,-612.4133 136.5001,-622.4133 143.5001,-622.4132"/>
</g>
<!-- 50 -->
<g id="node51" class="node">
<title>50</title>
<g id="a_node51"><a xlink:title="V">
<ellipse fill="#f60b00" stroke="#000000" stroke-width="0" cx="278" cy="-738" rx="18" ry="18"/>
</a>
</g>
</g>
<!-- 51 -->
<g id="node52" class="node">
<title>51</title>
<g id="a_node52"><a xlink:title="V">
<ellipse fill="#f60b00" stroke="#000000" stroke-width="0" cx="45" cy="-522" rx="18" ry="18"/>
</a>
</g>
</g>
<!-- 52 -->
<g id="node53" class="node">
<title>52</title>
<g id="a_node53"><a xlink:title="V">
<ellipse fill="#f60b00" stroke="#000000" stroke-width="0" cx="18" cy="-450" rx="18" ry="18"/>
</a>
</g>
</g>
<!-- 51&#45;&gt;52 -->
<g id="edge49" class="edge">
<title>51&#45;&gt;52</title>
<path fill="none" stroke="#000000" d="M38.6014,-504.937C35.407,-496.4186 31.471,-485.9227 27.8982,-476.3952"/>
<polygon fill="#000000" stroke="#000000" points="31.1411,-475.0749 24.3527,-466.9405 24.5868,-477.5328 31.1411,-475.0749"/>
</g>
<!-- 52&#45;&gt;15 -->
<g id="edge15" class="edge">
<title>52&#45;&gt;15</title>
<path fill="none" stroke="#000000" d="M18,-431.8314C18,-424.131 18,-414.9743 18,-406.4166"/>
<polygon fill="#000000" stroke="#000000" points="21.5001,-406.4132 18,-396.4133 14.5001,-406.4133 21.5001,-406.4132"/>
</g>
<!-- 57 -->
<g id="node58" class="node">
<title>57</title>
<g id="a_node58"><a xlink:title="V">
<ellipse fill="#f60b00" stroke="#000000" stroke-width="0" cx="160" cy="-810" rx="18" ry="18"/>
</a>
</g>
</g>
<!-- 54&#45;&gt;57 -->
<g id="edge53" class="edge">
<title>54&#45;&gt;57</title>
<path fill="none" stroke="#000000" d="M211.9621,-868.4574C202.6653,-857.9985 189.6258,-843.329 178.9351,-831.302"/>
<polygon fill="#000000" stroke="#000000" points="181.2435,-828.6308 171.9839,-823.4819 176.0117,-833.2813 181.2435,-828.6308"/>
</g>
<!-- 55 -->
<g id="node56" class="node">
<title>55</title>
<g id="a_node56"><a xlink:title="V">
<ellipse fill="#f60b00" stroke="#000000" stroke-width="0" cx="437" cy="-954" rx="18" ry="18"/>
</a>
</g>
</g>
<!-- 55&#45;&gt;48 -->
<g id="edge33" class="edge">
<title>55&#45;&gt;48</title>
<path fill="none" stroke="#000000" d="M437,-935.8314C437,-928.131 437,-918.9743 437,-910.4166"/>
<polygon fill="#000000" stroke="#000000" points="440.5001,-910.4132 437,-900.4133 433.5001,-910.4133 440.5001,-910.4132"/>
</g>
<!-- 62 -->
<g id="node63" class="node">
<title>62</title>
<g id="a_node63"><a xlink:title="V">
<ellipse fill="#f60b00" stroke="#000000" stroke-width="0" cx="278" cy="-810" rx="18" ry="18"/>
</a>
</g>
</g>
<!-- 56&#45;&gt;62 -->
<g id="edge30" class="edge">
<title>56&#45;&gt;62</title>
<path fill="none" stroke="#000000" d="M278,-863.8314C278,-856.131 278,-846.9743 278,-838.4166"/>
<polygon fill="#000000" stroke="#000000" points="281.5001,-838.4132 278,-828.4133 274.5001,-838.4133 281.5001,-838.4132"/>
</g>
<!-- 63 -->
<g id="node64" class="node">
<title>63</title>
<g id="a_node64"><a xlink:title="V">
<ellipse fill="#f60b00" stroke="#000000" stroke-width="0" cx="153" cy="-738" rx="18" ry="18"/>
</a>
</g>
</g>
<!-- 57&#45;&gt;63 -->
<g id="edge21" class="edge">
<title>57&#45;&gt;63</title>
<path fill="none" stroke="#000000" d="M158.2336,-791.8314C157.485,-784.131 156.5947,-774.9743 155.7627,-766.4166"/>
<polygon fill="#000000" stroke="#000000" points="159.2415,-766.0276 154.7902,-756.4133 152.2744,-766.7051 159.2415,-766.0276"/>
</g>
<!-- 58&#45;&gt;46 -->
<g id="edge32" class="edge">
<title>58&#45;&gt;46</title>
<path fill="none" stroke="#000000" d="M422.8942,-1019.4835C389.7922,-1006.8732 316.7756,-979.0574 277.4004,-964.0573"/>
<polygon fill="#000000" stroke="#000000" points="278.5219,-960.7392 267.931,-960.4499 276.0299,-967.2806 278.5219,-960.7392"/>
</g>
<!-- 58&#45;&gt;55 -->
<g id="edge36" class="edge">
<title>58&#45;&gt;55</title>
<path fill="none" stroke="#000000" d="M439.243,-1007.8314C438.9221,-1000.131 438.5406,-990.9743 438.184,-982.4166"/>
<polygon fill="#000000" stroke="#000000" points="441.6806,-982.2589 437.7672,-972.4133 434.6867,-982.5503 441.6806,-982.2589"/>
</g>
<!-- 60 -->
<g id="node61" class="node">
<title>60</title>
<g id="a_node61"><a xlink:title="V">
<ellipse fill="#f60b00" stroke="#000000" stroke-width="0" cx="491" cy="-954" rx="18" ry="18"/>
</a>
</g>
</g>
<!-- 58&#45;&gt;60 -->
<g id="edge38" class="edge">
<title>58&#45;&gt;60</title>
<path fill="none" stroke="#000000" d="M450.5672,-1011.0816C457.4738,-1001.3311 466.6369,-988.395 474.4935,-977.3032"/>
<polygon fill="#000000" stroke="#000000" points="477.5222,-979.0827 480.4463,-968.8993 471.81,-975.0365 477.5222,-979.0827"/>
</g>
<!-- 59 -->
<g id="node60" class="node">
<title>59</title>
<g id="a_node60"><a xlink:title="V">
<ellipse fill="#f60b00" stroke="#000000" stroke-width="0" cx="342" cy="-18" rx="18" ry="18"/>
</a>
</g>
</g>
<!-- 64 -->
<g id="node65" class="node">
<title>64</title>
<g id="a_node65"><a xlink:title="V">
<ellipse fill="#f60b00" stroke="#000000" stroke-width="0" cx="491" cy="-882" rx="18" ry="18"/>
</a>
</g>
</g>
<!-- 60&#45;&gt;64 -->
<g id="edge45" class="edge">
<title>60&#45;&gt;64</title>
<path fill="none" stroke="#000000" d="M491,-935.8314C491,-928.131 491,-918.9743 491,-910.4166"/>
<polygon fill="#000000" stroke="#000000" points="494.5001,-910.4132 491,-900.4133 487.5001,-910.4133 494.5001,-910.4132"/>
</g>
<!-- 61&#45;&gt;59 -->
<g id="edge27" class="edge">
<title>61&#45;&gt;59</title>
<path fill="none" stroke="#000000" d="M342,-71.8314C342,-64.131 342,-54.9743 342,-46.4166"/>
<polygon fill="#000000" stroke="#000000" points="345.5001,-46.4132 342,-36.4133 338.5001,-46.4133 345.5001,-46.4132"/>
</g>
<!-- 62&#45;&gt;50 -->
<g id="edge18" class="edge">
<title>62&#45;&gt;50</title>
<path fill="none" stroke="#000000" d="M278,-791.8314C278,-784.131 278,-774.9743 278,-766.4166"/>
<polygon fill="#000000" stroke="#000000" points="281.5001,-766.4132 278,-756.4133 274.5001,-766.4133 281.5001,-766.4132"/>
</g>
<!-- 63&#45;&gt;49 -->
<g id="edge7" class="edge">
<title>63&#45;&gt;49</title>
<path fill="none" stroke="#000000" d="M149.7865,-720.2022C148.349,-712.2406 146.6205,-702.6671 145.0187,-693.7957"/>
<polygon fill="#000000" stroke="#000000" points="148.4428,-693.0615 143.2216,-683.8425 141.5542,-694.3053 148.4428,-693.0615"/>
</g>
<!-- 65&#45;&gt;51 -->
<g id="edge63" class="edge">
<title>65&#45;&gt;51</title>
<path fill="none" stroke="#000000" d="M125.5715,-583.0647C110.2268,-571.435 85.7408,-552.8772 67.7854,-539.269"/>
<polygon fill="#000000" stroke="#000000" points="69.648,-536.289 59.5642,-533.0382 65.4199,-541.8678 69.648,-536.289"/>
</g>
<!-- 66&#45;&gt;3 -->
<g id="edge66" class="edge">
<title>66&#45;&gt;3</title>
<path fill="none" stroke="#000000" d="M332,-863.8314C332,-856.131 332,-846.9743 332,-838.4166"/>
<polygon fill="#000000" stroke="#000000" points="335.5001,-838.4132 332,-828.4133 328.5001,-838.4133 335.5001,-838.4132"/>
</g>
<!-- 68 -->
<g id="node69" class="node">
<title>68</title>
<g id="a_node69"><a xlink:title="V">
<ellipse fill="#f60b00" stroke="#000000" stroke-width="0" cx="369" cy="-594" rx="18" ry="18"/>
</a>
</g>
</g>
<!-- 67&#45;&gt;68 -->
<g id="edge57" class="edge">
<title>67&#45;&gt;68</title>
<path fill="none" stroke="#000000" d="M363.7664,-647.8314C364.515,-640.131 365.4053,-630.9743 366.2373,-622.4166"/>
<polygon fill="#000000" stroke="#000000" points="369.7256,-622.7051 367.2098,-612.4133 362.7585,-622.0276 369.7256,-622.7051"/>
</g>
<!-- 69 -->
<g id="node70" class="node">
<title>69</title>
<g id="a_node70"><a xlink:title="V">
<ellipse fill="#f60b00" stroke="#000000" stroke-width="0" cx="396" cy="-522" rx="18" ry="18"/>
</a>
</g>
</g>
<!-- 68&#45;&gt;69 -->
<g id="edge23" class="edge">
<title>68&#45;&gt;69</title>
<path fill="none" stroke="#000000" d="M375.3986,-576.937C378.593,-568.4186 382.529,-557.9227 386.1018,-548.3952"/>
<polygon fill="#000000" stroke="#000000" points="389.4132,-549.5328 389.6473,-538.9405 382.8589,-547.0749 389.4132,-549.5328"/>
</g>
</g>
</svg>
