<?xml version="1.0" encoding="UTF-8" standalone="no"?>
<!DOCTYPE svg PUBLIC "-//W3C//DTD SVG 1.1//EN"
 "http://www.w3.org/Graphics/SVG/1.1/DTD/svg11.dtd">
<!-- Generated by graphviz version 2.38.0 (20140413.2041)
 -->
<!-- Title: %3 Pages: 1 -->
<svg width="515pt" height="1196pt"
 viewBox="0.00 0.00 514.64 1196.00" xmlns="http://www.w3.org/2000/svg" xmlns:xlink="http://www.w3.org/1999/xlink">
<g id="graph0" class="graph" transform="scale(1 1) rotate(0) translate(4 1192)">
<title>%3</title>
<polygon fill="white" stroke="none" points="-4,4 -4,-1192 510.643,-1192 510.643,4 -4,4"/>
<!-- 0 -->
<g id="node1" class="node"><title>0</title>
<g id="a_node1"><a xlink:title="0, diversity: 1, multiplicities: 62, labels: 0">
<ellipse fill="#f7fcf5" stroke="black" cx="37.0467" cy="-522" rx="37.0935" ry="18"/>
<text text-anchor="middle" x="37.0467" y="-518.3" font-family="Times,serif" font-size="14.00">0 (1): 0</text>
</a>
</g>
</g>
<!-- 1 -->
<g id="node2" class="node"><title>1</title>
<g id="a_node2"><a xlink:title="1, diversity: 8, multiplicities: 1,2,3,4,5,7,17,487, labels: 0">
<ellipse fill="#f7fcf5" stroke="black" cx="185.047" cy="-738" rx="37.0935" ry="18"/>
<text text-anchor="middle" x="185.047" y="-734.3" font-family="Times,serif" font-size="14.00">1 (8): 0</text>
</a>
</g>
</g>
<!-- 3 -->
<g id="node4" class="node"><title>3</title>
<g id="a_node4"><a xlink:title="3, diversity: 1, multiplicities: 4, labels: 0">
<ellipse fill="#f7fcf5" stroke="black" cx="78.0467" cy="-666" rx="37.0935" ry="18"/>
<text text-anchor="middle" x="78.0467" y="-662.3" font-family="Times,serif" font-size="14.00">3 (1): 0</text>
</a>
</g>
</g>
<!-- 1&#45;&gt;3 -->
<g id="edge1" class="edge"><title>1&#45;&gt;3</title>
<path fill="none" stroke="black" d="M163.907,-723.17C147.933,-712.72 125.793,-698.236 107.997,-686.594"/>
<polygon fill="black" stroke="black" points="109.427,-683.347 99.1426,-680.801 105.595,-689.205 109.427,-683.347"/>
</g>
<!-- 35 -->
<g id="node36" class="node"><title>35</title>
<g id="a_node36"><a xlink:title="35, diversity: 1, multiplicities: 1, labels: 0">
<ellipse fill="#f7fcf5" stroke="black" cx="185.047" cy="-666" rx="41.6928" ry="18"/>
<text text-anchor="middle" x="185.047" y="-662.3" font-family="Times,serif" font-size="14.00">35 (1): 0</text>
</a>
</g>
</g>
<!-- 1&#45;&gt;35 -->
<g id="edge27" class="edge"><title>1&#45;&gt;35</title>
<path fill="none" stroke="black" d="M185.047,-719.697C185.047,-711.983 185.047,-702.712 185.047,-694.112"/>
<polygon fill="black" stroke="black" points="188.547,-694.104 185.047,-684.104 181.547,-694.104 188.547,-694.104"/>
</g>
<!-- 2 -->
<g id="node3" class="node"><title>2</title>
<g id="a_node3"><a xlink:title="2, diversity: 1, multiplicities: 832, labels: 0">
<ellipse fill="#f7fcf5" stroke="black" cx="221.047" cy="-522" rx="37.0935" ry="18"/>
<text text-anchor="middle" x="221.047" y="-518.3" font-family="Times,serif" font-size="14.00">2 (1): 0</text>
</a>
</g>
</g>
<!-- 9 -->
<g id="node10" class="node"><title>9</title>
<g id="a_node10"><a xlink:title="9, diversity: 1, multiplicities: 1, labels: 0">
<ellipse fill="#f7fcf5" stroke="black" cx="216.047" cy="-450" rx="37.0935" ry="18"/>
<text text-anchor="middle" x="216.047" y="-446.3" font-family="Times,serif" font-size="14.00">9 (1): 0</text>
</a>
</g>
</g>
<!-- 2&#45;&gt;9 -->
<g id="edge8" class="edge"><title>2&#45;&gt;9</title>
<path fill="none" stroke="black" d="M219.811,-503.697C219.26,-495.983 218.598,-486.712 217.983,-478.112"/>
<polygon fill="black" stroke="black" points="221.472,-477.83 217.268,-468.104 214.49,-478.328 221.472,-477.83"/>
</g>
<!-- 30 -->
<g id="node31" class="node"><title>30</title>
<g id="a_node31"><a xlink:title="30, diversity: 1, multiplicities: 1, labels: 0">
<ellipse fill="#f7fcf5" stroke="black" cx="77.0467" cy="-594" rx="41.6928" ry="18"/>
<text text-anchor="middle" x="77.0467" y="-590.3" font-family="Times,serif" font-size="14.00">30 (1): 0</text>
</a>
</g>
</g>
<!-- 3&#45;&gt;30 -->
<g id="edge23" class="edge"><title>3&#45;&gt;30</title>
<path fill="none" stroke="black" d="M77.7995,-647.697C77.6893,-639.983 77.5569,-630.712 77.434,-622.112"/>
<polygon fill="black" stroke="black" points="80.9336,-622.053 77.2911,-612.104 73.9344,-622.153 80.9336,-622.053"/>
</g>
<!-- 4 -->
<g id="node5" class="node"><title>4</title>
<g id="a_node5"><a xlink:title="4, diversity: 1, multiplicities: 1, labels: 0">
<ellipse fill="#f7fcf5" stroke="black" cx="313.047" cy="-522" rx="37.0935" ry="18"/>
<text text-anchor="middle" x="313.047" y="-518.3" font-family="Times,serif" font-size="14.00">4 (1): 0</text>
</a>
</g>
</g>
<!-- 14 -->
<g id="node15" class="node"><title>14</title>
<g id="a_node15"><a xlink:title="14, diversity: 1, multiplicities: 6, labels: 0">
<ellipse fill="#f7fcf5" stroke="black" cx="313.047" cy="-450" rx="41.6928" ry="18"/>
<text text-anchor="middle" x="313.047" y="-446.3" font-family="Times,serif" font-size="14.00">14 (1): 0</text>
</a>
</g>
</g>
<!-- 4&#45;&gt;14 -->
<g id="edge22" class="edge"><title>4&#45;&gt;14</title>
<path fill="none" stroke="black" d="M313.047,-503.697C313.047,-495.983 313.047,-486.712 313.047,-478.112"/>
<polygon fill="black" stroke="black" points="316.547,-478.104 313.047,-468.104 309.547,-478.104 316.547,-478.104"/>
</g>
<!-- 5 -->
<g id="node6" class="node"><title>5</title>
<g id="a_node6"><a xlink:title="5, diversity: 2, multiplicities: 1,2, labels: 0">
<ellipse fill="#f7fcf5" stroke="black" cx="129.047" cy="-522" rx="37.0935" ry="18"/>
<text text-anchor="middle" x="129.047" y="-518.3" font-family="Times,serif" font-size="14.00">5 (2): 0</text>
</a>
</g>
</g>
<!-- 7 -->
<g id="node8" class="node"><title>7</title>
<g id="a_node8"><a xlink:title="7, diversity: 6, multiplicities: 3,7,7,9,17,28, labels: 0">
<ellipse fill="#f7fcf5" stroke="black" cx="185.047" cy="-594" rx="37.0935" ry="18"/>
<text text-anchor="middle" x="185.047" y="-590.3" font-family="Times,serif" font-size="14.00">7 (6): 0</text>
</a>
</g>
</g>
<!-- 5&#45;&gt;7 -->
<g id="edge28" class="edge"><title>5&#45;&gt;7</title>
<path fill="none" stroke="black" d="M146.598,-537.888C154.597,-546.538 163.793,-557.668 171.29,-567.659"/>
<polygon fill="black" stroke="black" points="168.669,-570.008 177.369,-576.055 174.339,-565.902 168.669,-570.008"/>
</g>
<!-- 6 -->
<g id="node7" class="node"><title>6</title>
<g id="a_node7"><a xlink:title="6, diversity: 1, multiplicities: 2, labels: 0">
<ellipse fill="#f7fcf5" stroke="black" cx="414.047" cy="-378" rx="37.0935" ry="18"/>
<text text-anchor="middle" x="414.047" y="-374.3" font-family="Times,serif" font-size="14.00">6 (1): 0</text>
</a>
</g>
</g>
<!-- 10 -->
<g id="node11" class="node"><title>10</title>
<g id="a_node11"><a xlink:title="10, diversity: 1, multiplicities: 1, labels: 0">
<ellipse fill="#f7fcf5" stroke="black" cx="364.047" cy="-306" rx="41.6928" ry="18"/>
<text text-anchor="middle" x="364.047" y="-302.3" font-family="Times,serif" font-size="14.00">10 (1): 0</text>
</a>
</g>
</g>
<!-- 6&#45;&gt;10 -->
<g id="edge10" class="edge"><title>6&#45;&gt;10</title>
<path fill="none" stroke="black" d="M402.45,-360.765C396.354,-352.23 388.748,-341.582 381.918,-332.019"/>
<polygon fill="black" stroke="black" points="384.588,-329.736 375.928,-323.633 378.892,-333.805 384.588,-329.736"/>
</g>
<!-- 20 -->
<g id="node21" class="node"><title>20</title>
<g id="a_node21"><a xlink:title="20, diversity: 1, multiplicities: 7, labels: 0">
<ellipse fill="#f7fcf5" stroke="black" cx="465.047" cy="-306" rx="41.6928" ry="18"/>
<text text-anchor="middle" x="465.047" y="-302.3" font-family="Times,serif" font-size="14.00">20 (1): 0</text>
</a>
</g>
</g>
<!-- 6&#45;&gt;20 -->
<g id="edge31" class="edge"><title>6&#45;&gt;20</title>
<path fill="none" stroke="black" d="M425.875,-360.765C432.157,-352.143 440.01,-341.365 447.032,-331.727"/>
<polygon fill="black" stroke="black" points="449.868,-333.777 452.928,-323.633 444.211,-329.655 449.868,-333.777"/>
</g>
<!-- 7&#45;&gt;2 -->
<g id="edge14" class="edge"><title>7&#45;&gt;2</title>
<path fill="none" stroke="black" d="M193.578,-576.411C197.776,-568.249 202.933,-558.22 207.642,-549.065"/>
<polygon fill="black" stroke="black" points="210.865,-550.45 212.326,-539.956 204.64,-547.248 210.865,-550.45"/>
</g>
<!-- 7&#45;&gt;4 -->
<g id="edge30" class="edge"><title>7&#45;&gt;4</title>
<path fill="none" stroke="black" d="M208.823,-579.998C229.029,-568.947 258.233,-552.976 280.589,-540.75"/>
<polygon fill="black" stroke="black" points="282.304,-543.802 289.398,-535.933 278.945,-537.66 282.304,-543.802"/>
</g>
<!-- 7&#45;&gt;5 -->
<g id="edge25" class="edge"><title>7&#45;&gt;5</title>
<path fill="none" stroke="black" d="M167.217,-577.811C159.305,-569.227 150.261,-558.273 142.861,-548.418"/>
<polygon fill="black" stroke="black" points="145.554,-546.169 136.851,-540.127 139.886,-550.277 145.554,-546.169"/>
</g>
<!-- 8 -->
<g id="node9" class="node"><title>8</title>
<g id="a_node9"><a xlink:title="8, diversity: 1, multiplicities: 1, labels: 0">
<ellipse fill="#f7fcf5" stroke="black" cx="283.047" cy="-1026" rx="37.0935" ry="18"/>
<text text-anchor="middle" x="283.047" y="-1022.3" font-family="Times,serif" font-size="14.00">8 (1): 0</text>
</a>
</g>
</g>
<!-- 13 -->
<g id="node14" class="node"><title>13</title>
<g id="a_node14"><a xlink:title="13, diversity: 1, multiplicities: 1, labels: 0">
<ellipse fill="#f7fcf5" stroke="black" cx="283.047" cy="-954" rx="41.6928" ry="18"/>
<text text-anchor="middle" x="283.047" y="-950.3" font-family="Times,serif" font-size="14.00">13 (1): 0</text>
</a>
</g>
</g>
<!-- 8&#45;&gt;13 -->
<g id="edge2" class="edge"><title>8&#45;&gt;13</title>
<path fill="none" stroke="black" d="M283.047,-1007.7C283.047,-999.983 283.047,-990.712 283.047,-982.112"/>
<polygon fill="black" stroke="black" points="286.547,-982.104 283.047,-972.104 279.547,-982.104 286.547,-982.104"/>
</g>
<!-- 12 -->
<g id="node13" class="node"><title>12</title>
<g id="a_node13"><a xlink:title="12, diversity: 1, multiplicities: 5, labels: 0">
<ellipse fill="#f7fcf5" stroke="black" cx="216.047" cy="-378" rx="41.6928" ry="18"/>
<text text-anchor="middle" x="216.047" y="-374.3" font-family="Times,serif" font-size="14.00">12 (1): 0</text>
</a>
</g>
</g>
<!-- 9&#45;&gt;12 -->
<g id="edge36" class="edge"><title>9&#45;&gt;12</title>
<path fill="none" stroke="black" d="M216.047,-431.697C216.047,-423.983 216.047,-414.712 216.047,-406.112"/>
<polygon fill="black" stroke="black" points="219.547,-406.104 216.047,-396.104 212.547,-406.104 219.547,-406.104"/>
</g>
<!-- 31 -->
<g id="node32" class="node"><title>31</title>
<g id="a_node32"><a xlink:title="31, diversity: 1, multiplicities: 1, labels: 0">
<ellipse fill="#f7fcf5" stroke="black" cx="364.047" cy="-234" rx="41.6928" ry="18"/>
<text text-anchor="middle" x="364.047" y="-230.3" font-family="Times,serif" font-size="14.00">31 (1): 0</text>
</a>
</g>
</g>
<!-- 10&#45;&gt;31 -->
<g id="edge18" class="edge"><title>10&#45;&gt;31</title>
<path fill="none" stroke="black" d="M364.047,-287.697C364.047,-279.983 364.047,-270.712 364.047,-262.112"/>
<polygon fill="black" stroke="black" points="367.547,-262.104 364.047,-252.104 360.547,-262.104 367.547,-262.104"/>
</g>
<!-- 11 -->
<g id="node12" class="node"><title>11</title>
<g id="a_node12"><a xlink:title="11, diversity: 1, multiplicities: 2, labels: 0">
<ellipse fill="#f7fcf5" stroke="black" cx="384.047" cy="-954" rx="41.6928" ry="18"/>
<text text-anchor="middle" x="384.047" y="-950.3" font-family="Times,serif" font-size="14.00">11 (1): 0</text>
</a>
</g>
</g>
<!-- 34 -->
<g id="node35" class="node"><title>34</title>
<g id="a_node35"><a xlink:title="34, diversity: 1, multiplicities: 1, labels: 0">
<ellipse fill="#f7fcf5" stroke="black" cx="384.047" cy="-882" rx="41.6928" ry="18"/>
<text text-anchor="middle" x="384.047" y="-878.3" font-family="Times,serif" font-size="14.00">34 (1): 0</text>
</a>
</g>
</g>
<!-- 11&#45;&gt;34 -->
<g id="edge9" class="edge"><title>11&#45;&gt;34</title>
<path fill="none" stroke="black" d="M384.047,-935.697C384.047,-927.983 384.047,-918.712 384.047,-910.112"/>
<polygon fill="black" stroke="black" points="387.547,-910.104 384.047,-900.104 380.547,-910.104 387.547,-910.104"/>
</g>
<!-- 24 -->
<g id="node25" class="node"><title>24</title>
<g id="a_node25"><a xlink:title="24, diversity: 1, multiplicities: 2, labels: 0">
<ellipse fill="#f7fcf5" stroke="black" cx="283.047" cy="-882" rx="41.6928" ry="18"/>
<text text-anchor="middle" x="283.047" y="-878.3" font-family="Times,serif" font-size="14.00">24 (1): 0</text>
</a>
</g>
</g>
<!-- 13&#45;&gt;24 -->
<g id="edge20" class="edge"><title>13&#45;&gt;24</title>
<path fill="none" stroke="black" d="M283.047,-935.697C283.047,-927.983 283.047,-918.712 283.047,-910.112"/>
<polygon fill="black" stroke="black" points="286.547,-910.104 283.047,-900.104 279.547,-910.104 286.547,-910.104"/>
</g>
<!-- 15 -->
<g id="node16" class="node"><title>15</title>
<g id="a_node16"><a xlink:title="15, diversity: 1, multiplicities: 2, labels: 0">
<ellipse fill="#f7fcf5" stroke="black" cx="283.047" cy="-1098" rx="41.6928" ry="18"/>
<text text-anchor="middle" x="283.047" y="-1094.3" font-family="Times,serif" font-size="14.00">15 (1): 0</text>
</a>
</g>
</g>
<!-- 15&#45;&gt;8 -->
<g id="edge3" class="edge"><title>15&#45;&gt;8</title>
<path fill="none" stroke="black" d="M283.047,-1079.7C283.047,-1071.98 283.047,-1062.71 283.047,-1054.11"/>
<polygon fill="black" stroke="black" points="286.547,-1054.1 283.047,-1044.1 279.547,-1054.1 286.547,-1054.1"/>
</g>
<!-- 16 -->
<g id="node17" class="node"><title>16</title>
<g id="a_node17"><a xlink:title="16, diversity: 1, multiplicities: 5, labels: 0">
<ellipse fill="#f7fcf5" stroke="black" cx="364.047" cy="-18" rx="41.6928" ry="18"/>
<text text-anchor="middle" x="364.047" y="-14.3" font-family="Times,serif" font-size="14.00">16 (1): 0</text>
</a>
</g>
</g>
<!-- 17 -->
<g id="node18" class="node"><title>17</title>
<g id="a_node18"><a xlink:title="17, diversity: 1, multiplicities: 1, labels: 0">
<ellipse fill="#f7fcf5" stroke="black" cx="414.047" cy="-450" rx="41.6928" ry="18"/>
<text text-anchor="middle" x="414.047" y="-446.3" font-family="Times,serif" font-size="14.00">17 (1): 0</text>
</a>
</g>
</g>
<!-- 17&#45;&gt;6 -->
<g id="edge6" class="edge"><title>17&#45;&gt;6</title>
<path fill="none" stroke="black" d="M414.047,-431.697C414.047,-423.983 414.047,-414.712 414.047,-406.112"/>
<polygon fill="black" stroke="black" points="417.547,-406.104 414.047,-396.104 410.547,-406.104 417.547,-406.104"/>
</g>
<!-- 18 -->
<g id="node19" class="node"><title>18</title>
<g id="a_node19"><a xlink:title="18, diversity: 2, multiplicities: 1,1, labels: 0">
<ellipse fill="#f7fcf5" stroke="black" cx="283.047" cy="-810" rx="41.6928" ry="18"/>
<text text-anchor="middle" x="283.047" y="-806.3" font-family="Times,serif" font-size="14.00">18 (2): 0</text>
</a>
</g>
</g>
<!-- 18&#45;&gt;1 -->
<g id="edge5" class="edge"><title>18&#45;&gt;1</title>
<path fill="none" stroke="black" d="M262.263,-794.155C248.041,-783.996 229.009,-770.401 213.398,-759.251"/>
<polygon fill="black" stroke="black" points="215.301,-756.309 205.13,-753.345 211.233,-762.006 215.301,-756.309"/>
</g>
<!-- 27 -->
<g id="node28" class="node"><title>27</title>
<g id="a_node28"><a xlink:title="27, diversity: 1, multiplicities: 6, labels: 0">
<ellipse fill="#f7fcf5" stroke="black" cx="283.047" cy="-738" rx="41.6928" ry="18"/>
<text text-anchor="middle" x="283.047" y="-734.3" font-family="Times,serif" font-size="14.00">27 (1): 0</text>
</a>
</g>
</g>
<!-- 18&#45;&gt;27 -->
<g id="edge11" class="edge"><title>18&#45;&gt;27</title>
<path fill="none" stroke="black" d="M283.047,-791.697C283.047,-783.983 283.047,-774.712 283.047,-766.112"/>
<polygon fill="black" stroke="black" points="286.547,-766.104 283.047,-756.104 279.547,-766.104 286.547,-766.104"/>
</g>
<!-- 19 -->
<g id="node20" class="node"><title>19</title>
<g id="a_node20"><a xlink:title="19, diversity: 1, multiplicities: 1, labels: 0">
<ellipse fill="#f7fcf5" stroke="black" cx="412.047" cy="-522" rx="41.6928" ry="18"/>
<text text-anchor="middle" x="412.047" y="-518.3" font-family="Times,serif" font-size="14.00">19 (1): 0</text>
</a>
</g>
</g>
<!-- 19&#45;&gt;17 -->
<g id="edge21" class="edge"><title>19&#45;&gt;17</title>
<path fill="none" stroke="black" d="M412.541,-503.697C412.761,-495.983 413.026,-486.712 413.272,-478.112"/>
<polygon fill="black" stroke="black" points="416.771,-478.2 413.558,-468.104 409.774,-478 416.771,-478.2"/>
</g>
<!-- 21 -->
<g id="node22" class="node"><title>21</title>
<g id="a_node22"><a xlink:title="21, diversity: 1, multiplicities: 2, labels: 0">
<ellipse fill="#f7fcf5" stroke="black" cx="411.047" cy="-594" rx="41.6928" ry="18"/>
<text text-anchor="middle" x="411.047" y="-590.3" font-family="Times,serif" font-size="14.00">21 (1): 0</text>
</a>
</g>
</g>
<!-- 21&#45;&gt;19 -->
<g id="edge17" class="edge"><title>21&#45;&gt;19</title>
<path fill="none" stroke="black" d="M411.294,-575.697C411.404,-567.983 411.537,-558.712 411.659,-550.112"/>
<polygon fill="black" stroke="black" points="415.159,-550.153 411.802,-540.104 408.16,-550.053 415.159,-550.153"/>
</g>
<!-- 22 -->
<g id="node23" class="node"><title>22</title>
<g id="a_node23"><a xlink:title="22, diversity: 1, multiplicities: 1, labels: 0">
<ellipse fill="#f7fcf5" stroke="black" cx="391.047" cy="-666" rx="41.6928" ry="18"/>
<text text-anchor="middle" x="391.047" y="-662.3" font-family="Times,serif" font-size="14.00">22 (1): 0</text>
</a>
</g>
</g>
<!-- 22&#45;&gt;21 -->
<g id="edge16" class="edge"><title>22&#45;&gt;21</title>
<path fill="none" stroke="black" d="M395.888,-648.055C398.115,-640.261 400.812,-630.822 403.31,-622.079"/>
<polygon fill="black" stroke="black" points="406.729,-622.852 406.111,-612.275 399.998,-620.929 406.729,-622.852"/>
</g>
<!-- 23 -->
<g id="node24" class="node"><title>23</title>
<g id="a_node24"><a xlink:title="23, diversity: 1, multiplicities: 3, labels: 0">
<ellipse fill="#f7fcf5" stroke="black" cx="385.047" cy="-810" rx="41.6928" ry="18"/>
<text text-anchor="middle" x="385.047" y="-806.3" font-family="Times,serif" font-size="14.00">23 (1): 0</text>
</a>
</g>
</g>
<!-- 33 -->
<g id="node34" class="node"><title>33</title>
<g id="a_node34"><a xlink:title="33, diversity: 1, multiplicities: 1, labels: 0">
<ellipse fill="#f7fcf5" stroke="black" cx="386.047" cy="-738" rx="41.6928" ry="18"/>
<text text-anchor="middle" x="386.047" y="-734.3" font-family="Times,serif" font-size="14.00">33 (1): 0</text>
</a>
</g>
</g>
<!-- 23&#45;&gt;33 -->
<g id="edge33" class="edge"><title>23&#45;&gt;33</title>
<path fill="none" stroke="black" d="M385.294,-791.697C385.404,-783.983 385.537,-774.712 385.659,-766.112"/>
<polygon fill="black" stroke="black" points="389.159,-766.153 385.802,-756.104 382.16,-766.053 389.159,-766.153"/>
</g>
<!-- 24&#45;&gt;18 -->
<g id="edge7" class="edge"><title>24&#45;&gt;18</title>
<path fill="none" stroke="black" d="M283.047,-863.697C283.047,-855.983 283.047,-846.712 283.047,-838.112"/>
<polygon fill="black" stroke="black" points="286.547,-838.104 283.047,-828.104 279.547,-838.104 286.547,-838.104"/>
</g>
<!-- 25 -->
<g id="node26" class="node"><title>25</title>
<g id="a_node26"><a xlink:title="25, diversity: 1, multiplicities: 1, labels: 0">
<ellipse fill="#f7fcf5" stroke="black" cx="384.047" cy="-1098" rx="41.6928" ry="18"/>
<text text-anchor="middle" x="384.047" y="-1094.3" font-family="Times,serif" font-size="14.00">25 (1): 0</text>
</a>
</g>
</g>
<!-- 26 -->
<g id="node27" class="node"><title>26</title>
<g id="a_node27"><a xlink:title="26, diversity: 1, multiplicities: 1, labels: 0">
<ellipse fill="#f7fcf5" stroke="black" cx="384.047" cy="-1026" rx="41.6928" ry="18"/>
<text text-anchor="middle" x="384.047" y="-1022.3" font-family="Times,serif" font-size="14.00">26 (1): 0</text>
</a>
</g>
</g>
<!-- 25&#45;&gt;26 -->
<g id="edge12" class="edge"><title>25&#45;&gt;26</title>
<path fill="none" stroke="black" d="M384.047,-1079.7C384.047,-1071.98 384.047,-1062.71 384.047,-1054.11"/>
<polygon fill="black" stroke="black" points="387.547,-1054.1 384.047,-1044.1 380.547,-1054.1 387.547,-1054.1"/>
</g>
<!-- 26&#45;&gt;11 -->
<g id="edge34" class="edge"><title>26&#45;&gt;11</title>
<path fill="none" stroke="black" d="M384.047,-1007.7C384.047,-999.983 384.047,-990.712 384.047,-982.112"/>
<polygon fill="black" stroke="black" points="387.547,-982.104 384.047,-972.104 380.547,-982.104 387.547,-982.104"/>
</g>
<!-- 28 -->
<g id="node29" class="node"><title>28</title>
<g id="a_node29"><a xlink:title="28, diversity: 1, multiplicities: 2, labels: 0">
<ellipse fill="#f7fcf5" stroke="black" cx="333.047" cy="-1170" rx="41.6928" ry="18"/>
<text text-anchor="middle" x="333.047" y="-1166.3" font-family="Times,serif" font-size="14.00">28 (1): 0</text>
</a>
</g>
</g>
<!-- 28&#45;&gt;15 -->
<g id="edge32" class="edge"><title>28&#45;&gt;15</title>
<path fill="none" stroke="black" d="M321.197,-1152.41C315.095,-1143.87 307.531,-1133.28 300.752,-1123.79"/>
<polygon fill="black" stroke="black" points="303.471,-1121.57 294.811,-1115.47 297.775,-1125.64 303.471,-1121.57"/>
</g>
<!-- 28&#45;&gt;25 -->
<g id="edge35" class="edge"><title>28&#45;&gt;25</title>
<path fill="none" stroke="black" d="M345.133,-1152.41C351.357,-1143.87 359.072,-1133.28 365.987,-1123.79"/>
<polygon fill="black" stroke="black" points="368.987,-1125.61 372.047,-1115.47 363.33,-1121.49 368.987,-1125.61"/>
</g>
<!-- 29 -->
<g id="node30" class="node"><title>29</title>
<g id="a_node30"><a xlink:title="29, diversity: 1, multiplicities: 1, labels: 0">
<ellipse fill="#f7fcf5" stroke="black" cx="364.047" cy="-162" rx="41.6928" ry="18"/>
<text text-anchor="middle" x="364.047" y="-158.3" font-family="Times,serif" font-size="14.00">29 (1): 0</text>
</a>
</g>
</g>
<!-- 32 -->
<g id="node33" class="node"><title>32</title>
<g id="a_node33"><a xlink:title="32, diversity: 1, multiplicities: 1, labels: 0">
<ellipse fill="#f7fcf5" stroke="black" cx="364.047" cy="-90" rx="41.6928" ry="18"/>
<text text-anchor="middle" x="364.047" y="-86.3" font-family="Times,serif" font-size="14.00">32 (1): 0</text>
</a>
</g>
</g>
<!-- 29&#45;&gt;32 -->
<g id="edge29" class="edge"><title>29&#45;&gt;32</title>
<path fill="none" stroke="black" d="M364.047,-143.697C364.047,-135.983 364.047,-126.712 364.047,-118.112"/>
<polygon fill="black" stroke="black" points="367.547,-118.104 364.047,-108.104 360.547,-118.104 367.547,-118.104"/>
</g>
<!-- 30&#45;&gt;0 -->
<g id="edge26" class="edge"><title>30&#45;&gt;0</title>
<path fill="none" stroke="black" d="M67.5673,-576.411C62.785,-568.042 56.8809,-557.71 51.5437,-548.37"/>
<polygon fill="black" stroke="black" points="54.4584,-546.416 46.4581,-539.47 48.3807,-549.889 54.4584,-546.416"/>
</g>
<!-- 31&#45;&gt;29 -->
<g id="edge19" class="edge"><title>31&#45;&gt;29</title>
<path fill="none" stroke="black" d="M364.047,-215.697C364.047,-207.983 364.047,-198.712 364.047,-190.112"/>
<polygon fill="black" stroke="black" points="367.547,-190.104 364.047,-180.104 360.547,-190.104 367.547,-190.104"/>
</g>
<!-- 32&#45;&gt;16 -->
<g id="edge13" class="edge"><title>32&#45;&gt;16</title>
<path fill="none" stroke="black" d="M364.047,-71.6966C364.047,-63.9827 364.047,-54.7125 364.047,-46.1124"/>
<polygon fill="black" stroke="black" points="367.547,-46.1043 364.047,-36.1043 360.547,-46.1044 367.547,-46.1043"/>
</g>
<!-- 33&#45;&gt;22 -->
<g id="edge4" class="edge"><title>33&#45;&gt;22</title>
<path fill="none" stroke="black" d="M387.283,-719.697C387.834,-711.983 388.496,-702.712 389.11,-694.112"/>
<polygon fill="black" stroke="black" points="392.604,-694.328 389.825,-684.104 385.621,-693.83 392.604,-694.328"/>
</g>
<!-- 34&#45;&gt;23 -->
<g id="edge24" class="edge"><title>34&#45;&gt;23</title>
<path fill="none" stroke="black" d="M384.294,-863.697C384.404,-855.983 384.537,-846.712 384.659,-838.112"/>
<polygon fill="black" stroke="black" points="388.159,-838.153 384.802,-828.104 381.16,-838.053 388.159,-838.153"/>
</g>
<!-- 35&#45;&gt;7 -->
<g id="edge15" class="edge"><title>35&#45;&gt;7</title>
<path fill="none" stroke="black" d="M185.047,-647.697C185.047,-639.983 185.047,-630.712 185.047,-622.112"/>
<polygon fill="black" stroke="black" points="188.547,-622.104 185.047,-612.104 181.547,-622.104 188.547,-622.104"/>
</g>
</g>
</svg>
