<?xml version="1.0" encoding="UTF-8" standalone="no"?>
<!DOCTYPE svg PUBLIC "-//W3C//DTD SVG 1.1//EN"
 "http://www.w3.org/Graphics/SVG/1.1/DTD/svg11.dtd">
<!-- Generated by graphviz version 2.40.1 (20161225.0304)
 -->
<!-- Title: %3 Pages: 1 -->
<svg width="368pt" height="1844pt"
 viewBox="0.00 0.00 368.00 1844.00" xmlns="http://www.w3.org/2000/svg" xmlns:xlink="http://www.w3.org/1999/xlink">
<g id="graph0" class="graph" transform="scale(1 1) rotate(0) translate(4 1840)">
<title>%3</title>
<polygon fill="#ffffff" stroke="transparent" points="-4,4 -4,-1840 364,-1840 364,4 -4,4"/>
<!-- 0 -->
<g id="node1" class="node">
<title>0</title>
<g id="a_node1"><a xlink:title="Q">
<ellipse fill="#ffd300" stroke="#000000" stroke-width="0" cx="126" cy="-882" rx="18" ry="18"/>
</a>
</g>
</g>
<!-- 1 -->
<g id="node2" class="node">
<title>1</title>
<g id="a_node2"><a xlink:title="Q">
<ellipse fill="#ffd300" stroke="#000000" stroke-width="0" cx="207" cy="-954" rx="18" ry="18"/>
</a>
</g>
</g>
<!-- 1&#45;&gt;0 -->
<g id="edge14" class="edge">
<title>1&#45;&gt;0</title>
<path fill="none" stroke="#000000" d="M193.2595,-941.7862C180.6157,-930.5473 161.6738,-913.7101 147.1103,-900.7647"/>
<polygon fill="#000000" stroke="#000000" points="149.337,-898.0612 139.5376,-894.0334 144.6865,-903.2931 149.337,-898.0612"/>
</g>
<!-- 22 -->
<g id="node23" class="node">
<title>22</title>
<g id="a_node23"><a xlink:title="H">
<ellipse fill="#00c0ff" stroke="#000000" stroke-width="0" cx="180" cy="-882" rx="18" ry="18"/>
</a>
</g>
</g>
<!-- 1&#45;&gt;22 -->
<g id="edge40" class="edge">
<title>1&#45;&gt;22</title>
<path fill="none" stroke="#000000" d="M200.6014,-936.937C197.407,-928.4186 193.471,-917.9227 189.8982,-908.3952"/>
<polygon fill="#000000" stroke="#000000" points="193.1411,-907.0749 186.3527,-898.9405 186.5868,-909.5328 193.1411,-907.0749"/>
</g>
<!-- 47 -->
<g id="node48" class="node">
<title>47</title>
<g id="a_node48"><a xlink:title="Q">
<ellipse fill="#ffd300" stroke="#000000" stroke-width="0" cx="234" cy="-882" rx="18" ry="18"/>
</a>
</g>
</g>
<!-- 1&#45;&gt;47 -->
<g id="edge43" class="edge">
<title>1&#45;&gt;47</title>
<path fill="none" stroke="#000000" d="M213.3986,-936.937C216.593,-928.4186 220.529,-917.9227 224.1018,-908.3952"/>
<polygon fill="#000000" stroke="#000000" points="227.4132,-909.5328 227.6473,-898.9405 220.8589,-907.0749 227.4132,-909.5328"/>
</g>
<!-- 50 -->
<g id="node51" class="node">
<title>50</title>
<g id="a_node51"><a xlink:title="Q">
<ellipse fill="#ffd300" stroke="#000000" stroke-width="0" cx="288" cy="-882" rx="18" ry="18"/>
</a>
</g>
</g>
<!-- 1&#45;&gt;50 -->
<g id="edge32" class="edge">
<title>1&#45;&gt;50</title>
<path fill="none" stroke="#000000" d="M220.7405,-941.7862C233.3843,-930.5473 252.3262,-913.7101 266.8897,-900.7647"/>
<polygon fill="#000000" stroke="#000000" points="269.3135,-903.2931 274.4624,-894.0334 264.663,-898.0612 269.3135,-903.2931"/>
</g>
<!-- 2 -->
<g id="node3" class="node">
<title>2</title>
<g id="a_node3"><a xlink:title="Q">
<ellipse fill="#ffd300" stroke="#000000" stroke-width="0" cx="233" cy="-1386" rx="18" ry="18"/>
</a>
</g>
</g>
<!-- 12 -->
<g id="node13" class="node">
<title>12</title>
<g id="a_node13"><a xlink:title="Q">
<ellipse fill="#ffd300" stroke="#000000" stroke-width="0" cx="233" cy="-1314" rx="18" ry="18"/>
</a>
</g>
</g>
<!-- 2&#45;&gt;12 -->
<g id="edge9" class="edge">
<title>2&#45;&gt;12</title>
<path fill="none" stroke="#000000" d="M233,-1367.8314C233,-1360.131 233,-1350.9743 233,-1342.4166"/>
<polygon fill="#000000" stroke="#000000" points="236.5001,-1342.4132 233,-1332.4133 229.5001,-1342.4133 236.5001,-1342.4132"/>
</g>
<!-- 3 -->
<g id="node4" class="node">
<title>3</title>
<g id="a_node4"><a xlink:title="H">
<ellipse fill="#00c0ff" stroke="#000000" stroke-width="0" cx="180" cy="-810" rx="18" ry="18"/>
</a>
</g>
</g>
<!-- 4 -->
<g id="node5" class="node">
<title>4</title>
<g id="a_node5"><a xlink:title="Q">
<ellipse fill="#ffd300" stroke="#000000" stroke-width="0" cx="342" cy="-882" rx="18" ry="18"/>
</a>
</g>
</g>
<!-- 5 -->
<g id="node6" class="node">
<title>5</title>
<g id="a_node6"><a xlink:title="Q">
<ellipse fill="#ffd300" stroke="#000000" stroke-width="0" cx="233" cy="-1026" rx="18" ry="18"/>
</a>
</g>
</g>
<!-- 5&#45;&gt;1 -->
<g id="edge12" class="edge">
<title>5&#45;&gt;1</title>
<path fill="none" stroke="#000000" d="M226.8384,-1008.937C223.7623,-1000.4186 219.9721,-989.9227 216.5316,-980.3952"/>
<polygon fill="#000000" stroke="#000000" points="219.8059,-979.1573 213.1174,-970.9405 213.222,-981.5348 219.8059,-979.1573"/>
</g>
<!-- 10 -->
<g id="node11" class="node">
<title>10</title>
<g id="a_node11"><a xlink:title="Q">
<ellipse fill="#ffd300" stroke="#000000" stroke-width="0" cx="261" cy="-954" rx="18" ry="18"/>
</a>
</g>
</g>
<!-- 5&#45;&gt;10 -->
<g id="edge36" class="edge">
<title>5&#45;&gt;10</title>
<path fill="none" stroke="#000000" d="M239.6356,-1008.937C242.9483,-1000.4186 247.03,-989.9227 250.7352,-980.3952"/>
<polygon fill="#000000" stroke="#000000" points="254.0495,-981.5292 254.412,-970.9405 247.5255,-978.992 254.0495,-981.5292"/>
</g>
<!-- 6 -->
<g id="node7" class="node">
<title>6</title>
<g id="a_node7"><a xlink:title="Q">
<ellipse fill="#ffd300" stroke="#000000" stroke-width="0" cx="301" cy="-1026" rx="18" ry="18"/>
</a>
</g>
</g>
<!-- 16 -->
<g id="node17" class="node">
<title>16</title>
<g id="a_node17"><a xlink:title="Q">
<ellipse fill="#ffd300" stroke="#000000" stroke-width="0" cx="315" cy="-954" rx="18" ry="18"/>
</a>
</g>
</g>
<!-- 6&#45;&gt;16 -->
<g id="edge49" class="edge">
<title>6&#45;&gt;16</title>
<path fill="none" stroke="#000000" d="M304.4607,-1008.2022C306.0088,-1000.2406 307.8703,-990.6671 309.5953,-981.7957"/>
<polygon fill="#000000" stroke="#000000" points="313.0575,-982.3268 311.5306,-971.8425 306.1862,-980.9906 313.0575,-982.3268"/>
</g>
<!-- 7 -->
<g id="node8" class="node">
<title>7</title>
<g id="a_node8"><a xlink:title="Q">
<ellipse fill="#ffd300" stroke="#000000" stroke-width="0" cx="233" cy="-1242" rx="18" ry="18"/>
</a>
</g>
</g>
<!-- 13 -->
<g id="node14" class="node">
<title>13</title>
<g id="a_node14"><a xlink:title="Q">
<ellipse fill="#ffd300" stroke="#000000" stroke-width="0" cx="233" cy="-1170" rx="18" ry="18"/>
</a>
</g>
</g>
<!-- 7&#45;&gt;13 -->
<g id="edge42" class="edge">
<title>7&#45;&gt;13</title>
<path fill="none" stroke="#000000" d="M233,-1223.8314C233,-1216.131 233,-1206.9743 233,-1198.4166"/>
<polygon fill="#000000" stroke="#000000" points="236.5001,-1198.4132 233,-1188.4133 229.5001,-1198.4133 236.5001,-1198.4132"/>
</g>
<!-- 8 -->
<g id="node9" class="node">
<title>8</title>
<g id="a_node9"><a xlink:title="Q">
<ellipse fill="#ffd300" stroke="#000000" stroke-width="0" cx="179" cy="-1746" rx="18" ry="18"/>
</a>
</g>
</g>
<!-- 11 -->
<g id="node12" class="node">
<title>11</title>
<g id="a_node12"><a xlink:title="Q">
<ellipse fill="#ffd300" stroke="#000000" stroke-width="0" cx="179" cy="-1674" rx="18" ry="18"/>
</a>
</g>
</g>
<!-- 8&#45;&gt;11 -->
<g id="edge5" class="edge">
<title>8&#45;&gt;11</title>
<path fill="none" stroke="#000000" d="M179,-1727.8314C179,-1720.131 179,-1710.9743 179,-1702.4166"/>
<polygon fill="#000000" stroke="#000000" points="182.5001,-1702.4132 179,-1692.4133 175.5001,-1702.4133 182.5001,-1702.4132"/>
</g>
<!-- 9 -->
<g id="node10" class="node">
<title>9</title>
<g id="a_node10"><a xlink:title="Q">
<ellipse fill="#ffd300" stroke="#000000" stroke-width="0" cx="233" cy="-1098" rx="18" ry="18"/>
</a>
</g>
</g>
<!-- 9&#45;&gt;5 -->
<g id="edge47" class="edge">
<title>9&#45;&gt;5</title>
<path fill="none" stroke="#000000" d="M233,-1079.8314C233,-1072.131 233,-1062.9743 233,-1054.4166"/>
<polygon fill="#000000" stroke="#000000" points="236.5001,-1054.4132 233,-1044.4133 229.5001,-1054.4133 236.5001,-1054.4132"/>
</g>
<!-- 9&#45;&gt;6 -->
<g id="edge38" class="edge">
<title>9&#45;&gt;6</title>
<path fill="none" stroke="#000000" d="M245.4722,-1084.7941C255.537,-1074.1373 269.8773,-1058.9535 281.4634,-1046.6858"/>
<polygon fill="#000000" stroke="#000000" points="284.2851,-1048.7955 288.6068,-1039.1222 279.196,-1043.9892 284.2851,-1048.7955"/>
</g>
<!-- 10&#45;&gt;4 -->
<g id="edge8" class="edge">
<title>10&#45;&gt;4</title>
<path fill="none" stroke="#000000" d="M274.7405,-941.7862C287.3843,-930.5473 306.3262,-913.7101 320.8897,-900.7647"/>
<polygon fill="#000000" stroke="#000000" points="323.3135,-903.2931 328.4624,-894.0334 318.663,-898.0612 323.3135,-903.2931"/>
</g>
<!-- 24 -->
<g id="node25" class="node">
<title>24</title>
<g id="a_node25"><a xlink:title="Q">
<ellipse fill="#ffd300" stroke="#000000" stroke-width="0" cx="179" cy="-1602" rx="18" ry="18"/>
</a>
</g>
</g>
<!-- 11&#45;&gt;24 -->
<g id="edge11" class="edge">
<title>11&#45;&gt;24</title>
<path fill="none" stroke="#000000" d="M179,-1655.8314C179,-1648.131 179,-1638.9743 179,-1630.4166"/>
<polygon fill="#000000" stroke="#000000" points="182.5001,-1630.4132 179,-1620.4133 175.5001,-1630.4133 182.5001,-1630.4132"/>
</g>
<!-- 12&#45;&gt;7 -->
<g id="edge31" class="edge">
<title>12&#45;&gt;7</title>
<path fill="none" stroke="#000000" d="M233,-1295.8314C233,-1288.131 233,-1278.9743 233,-1270.4166"/>
<polygon fill="#000000" stroke="#000000" points="236.5001,-1270.4132 233,-1260.4133 229.5001,-1270.4133 236.5001,-1270.4132"/>
</g>
<!-- 13&#45;&gt;9 -->
<g id="edge35" class="edge">
<title>13&#45;&gt;9</title>
<path fill="none" stroke="#000000" d="M233,-1151.8314C233,-1144.131 233,-1134.9743 233,-1126.4166"/>
<polygon fill="#000000" stroke="#000000" points="236.5001,-1126.4132 233,-1116.4133 229.5001,-1126.4133 236.5001,-1126.4132"/>
</g>
<!-- 14 -->
<g id="node15" class="node">
<title>14</title>
<g id="a_node15"><a xlink:title="Q">
<ellipse fill="#ffd300" stroke="#000000" stroke-width="0" cx="178" cy="-1314" rx="18" ry="18"/>
</a>
</g>
</g>
<!-- 37 -->
<g id="node38" class="node">
<title>37</title>
<g id="a_node38"><a xlink:title="Q">
<ellipse fill="#ffd300" stroke="#000000" stroke-width="0" cx="176" cy="-1242" rx="18" ry="18"/>
</a>
</g>
</g>
<!-- 14&#45;&gt;37 -->
<g id="edge4" class="edge">
<title>14&#45;&gt;37</title>
<path fill="none" stroke="#000000" d="M177.4953,-1295.8314C177.2814,-1288.131 177.0271,-1278.9743 176.7894,-1270.4166"/>
<polygon fill="#000000" stroke="#000000" points="180.2879,-1270.3122 176.5115,-1260.4133 173.2906,-1270.5066 180.2879,-1270.3122"/>
</g>
<!-- 15 -->
<g id="node16" class="node">
<title>15</title>
<g id="a_node16"><a xlink:title="Q">
<ellipse fill="#ffd300" stroke="#000000" stroke-width="0" cx="233" cy="-1530" rx="18" ry="18"/>
</a>
</g>
</g>
<!-- 23 -->
<g id="node24" class="node">
<title>23</title>
<g id="a_node24"><a xlink:title="Q">
<ellipse fill="#ffd300" stroke="#000000" stroke-width="0" cx="233" cy="-1458" rx="18" ry="18"/>
</a>
</g>
</g>
<!-- 15&#45;&gt;23 -->
<g id="edge17" class="edge">
<title>15&#45;&gt;23</title>
<path fill="none" stroke="#000000" d="M233,-1511.8314C233,-1504.131 233,-1494.9743 233,-1486.4166"/>
<polygon fill="#000000" stroke="#000000" points="236.5001,-1486.4132 233,-1476.4133 229.5001,-1486.4133 236.5001,-1486.4132"/>
</g>
<!-- 17 -->
<g id="node18" class="node">
<title>17</title>
<g id="a_node18"><a xlink:title="Q">
<ellipse fill="#ffd300" stroke="#000000" stroke-width="0" cx="206" cy="-1818" rx="18" ry="18"/>
</a>
</g>
</g>
<!-- 17&#45;&gt;8 -->
<g id="edge2" class="edge">
<title>17&#45;&gt;8</title>
<path fill="none" stroke="#000000" d="M199.6014,-1800.937C196.407,-1792.4186 192.471,-1781.9227 188.8982,-1772.3952"/>
<polygon fill="#000000" stroke="#000000" points="192.1411,-1771.0749 185.3527,-1762.9405 185.5868,-1773.5328 192.1411,-1771.0749"/>
</g>
<!-- 18 -->
<g id="node19" class="node">
<title>18</title>
<g id="a_node19"><a xlink:title="Q">
<ellipse fill="#ffd300" stroke="#000000" stroke-width="0" cx="233" cy="-1746" rx="18" ry="18"/>
</a>
</g>
</g>
<!-- 17&#45;&gt;18 -->
<g id="edge39" class="edge">
<title>17&#45;&gt;18</title>
<path fill="none" stroke="#000000" d="M212.3986,-1800.937C215.593,-1792.4186 219.529,-1781.9227 223.1018,-1772.3952"/>
<polygon fill="#000000" stroke="#000000" points="226.4132,-1773.5328 226.6473,-1762.9405 219.8589,-1771.0749 226.4132,-1773.5328"/>
</g>
<!-- 20 -->
<g id="node21" class="node">
<title>20</title>
<g id="a_node21"><a xlink:title="Q">
<ellipse fill="#ffd300" stroke="#000000" stroke-width="0" cx="233" cy="-1674" rx="18" ry="18"/>
</a>
</g>
</g>
<!-- 18&#45;&gt;20 -->
<g id="edge25" class="edge">
<title>18&#45;&gt;20</title>
<path fill="none" stroke="#000000" d="M233,-1727.8314C233,-1720.131 233,-1710.9743 233,-1702.4166"/>
<polygon fill="#000000" stroke="#000000" points="236.5001,-1702.4132 233,-1692.4133 229.5001,-1702.4133 236.5001,-1702.4132"/>
</g>
<!-- 19 -->
<g id="node20" class="node">
<title>19</title>
<g id="a_node20"><a xlink:title="Q">
<ellipse fill="#ffd300" stroke="#000000" stroke-width="0" cx="233" cy="-1602" rx="18" ry="18"/>
</a>
</g>
</g>
<!-- 19&#45;&gt;15 -->
<g id="edge7" class="edge">
<title>19&#45;&gt;15</title>
<path fill="none" stroke="#000000" d="M233,-1583.8314C233,-1576.131 233,-1566.9743 233,-1558.4166"/>
<polygon fill="#000000" stroke="#000000" points="236.5001,-1558.4132 233,-1548.4133 229.5001,-1558.4133 236.5001,-1558.4132"/>
</g>
<!-- 20&#45;&gt;19 -->
<g id="edge34" class="edge">
<title>20&#45;&gt;19</title>
<path fill="none" stroke="#000000" d="M233,-1655.8314C233,-1648.131 233,-1638.9743 233,-1630.4166"/>
<polygon fill="#000000" stroke="#000000" points="236.5001,-1630.4132 233,-1620.4133 229.5001,-1630.4133 236.5001,-1630.4132"/>
</g>
<!-- 21 -->
<g id="node22" class="node">
<title>21</title>
<g id="a_node22"><a xlink:title="Q">
<ellipse fill="#ffd300" stroke="#000000" stroke-width="0" cx="179" cy="-1386" rx="18" ry="18"/>
</a>
</g>
</g>
<!-- 21&#45;&gt;14 -->
<g id="edge1" class="edge">
<title>21&#45;&gt;14</title>
<path fill="none" stroke="#000000" d="M178.7477,-1367.8314C178.6407,-1360.131 178.5135,-1350.9743 178.3947,-1342.4166"/>
<polygon fill="#000000" stroke="#000000" points="181.8944,-1342.3637 178.2557,-1332.4133 174.8951,-1342.4609 181.8944,-1342.3637"/>
</g>
<!-- 22&#45;&gt;3 -->
<g id="edge28" class="edge">
<title>22&#45;&gt;3</title>
<path fill="none" stroke="#000000" d="M180,-863.8314C180,-856.131 180,-846.9743 180,-838.4166"/>
<polygon fill="#000000" stroke="#000000" points="183.5001,-838.4132 180,-828.4133 176.5001,-838.4133 183.5001,-838.4132"/>
</g>
<!-- 23&#45;&gt;2 -->
<g id="edge20" class="edge">
<title>23&#45;&gt;2</title>
<path fill="none" stroke="#000000" d="M233,-1439.8314C233,-1432.131 233,-1422.9743 233,-1414.4166"/>
<polygon fill="#000000" stroke="#000000" points="236.5001,-1414.4132 233,-1404.4133 229.5001,-1414.4133 236.5001,-1414.4132"/>
</g>
<!-- 49 -->
<g id="node50" class="node">
<title>49</title>
<g id="a_node50"><a xlink:title="Q">
<ellipse fill="#ffd300" stroke="#000000" stroke-width="0" cx="179" cy="-1530" rx="18" ry="18"/>
</a>
</g>
</g>
<!-- 24&#45;&gt;49 -->
<g id="edge41" class="edge">
<title>24&#45;&gt;49</title>
<path fill="none" stroke="#000000" d="M179,-1583.8314C179,-1576.131 179,-1566.9743 179,-1558.4166"/>
<polygon fill="#000000" stroke="#000000" points="182.5001,-1558.4132 179,-1548.4133 175.5001,-1558.4133 182.5001,-1558.4132"/>
</g>
<!-- 25 -->
<g id="node26" class="node">
<title>25</title>
<g id="a_node26"><a xlink:title="Q">
<ellipse fill="#ffd300" stroke="#000000" stroke-width="0" cx="18" cy="-450" rx="18" ry="18"/>
</a>
</g>
</g>
<!-- 26 -->
<g id="node27" class="node">
<title>26</title>
<g id="a_node27"><a xlink:title="Q">
<ellipse fill="#ffd300" stroke="#000000" stroke-width="0" cx="72" cy="-810" rx="18" ry="18"/>
</a>
</g>
</g>
<!-- 28 -->
<g id="node29" class="node">
<title>28</title>
<g id="a_node29"><a xlink:title="Q">
<ellipse fill="#ffd300" stroke="#000000" stroke-width="0" cx="72" cy="-738" rx="18" ry="18"/>
</a>
</g>
</g>
<!-- 26&#45;&gt;28 -->
<g id="edge6" class="edge">
<title>26&#45;&gt;28</title>
<path fill="none" stroke="#000000" d="M72,-791.8314C72,-784.131 72,-774.9743 72,-766.4166"/>
<polygon fill="#000000" stroke="#000000" points="75.5001,-766.4132 72,-756.4133 68.5001,-766.4133 75.5001,-766.4132"/>
</g>
<!-- 27 -->
<g id="node28" class="node">
<title>27</title>
<g id="a_node28"><a xlink:title="P">
<ellipse fill="#e7ff0f" stroke="#000000" stroke-width="0" cx="72" cy="-522" rx="18" ry="18"/>
</a>
</g>
</g>
<!-- 27&#45;&gt;25 -->
<g id="edge19" class="edge">
<title>27&#45;&gt;25</title>
<path fill="none" stroke="#000000" d="M61.0723,-507.4297C53.6066,-497.4754 43.5632,-484.0842 35.0526,-472.7368"/>
<polygon fill="#000000" stroke="#000000" points="37.7115,-470.4486 28.9115,-464.5486 32.1115,-474.6486 37.7115,-470.4486"/>
</g>
<!-- 29 -->
<g id="node30" class="node">
<title>29</title>
<g id="a_node30"><a xlink:title="Q">
<ellipse fill="#ffd300" stroke="#000000" stroke-width="0" cx="72" cy="-450" rx="18" ry="18"/>
</a>
</g>
</g>
<!-- 27&#45;&gt;29 -->
<g id="edge16" class="edge">
<title>27&#45;&gt;29</title>
<path fill="none" stroke="#000000" d="M72,-503.8314C72,-496.131 72,-486.9743 72,-478.4166"/>
<polygon fill="#000000" stroke="#000000" points="75.5001,-478.4132 72,-468.4133 68.5001,-478.4133 75.5001,-478.4132"/>
</g>
<!-- 30 -->
<g id="node31" class="node">
<title>30</title>
<g id="a_node31"><a xlink:title="Q">
<ellipse fill="#ffd300" stroke="#000000" stroke-width="0" cx="126" cy="-450" rx="18" ry="18"/>
</a>
</g>
</g>
<!-- 27&#45;&gt;30 -->
<g id="edge46" class="edge">
<title>27&#45;&gt;30</title>
<path fill="none" stroke="#000000" d="M82.9277,-507.4297C90.3934,-497.4754 100.4368,-484.0842 108.9474,-472.7368"/>
<polygon fill="#000000" stroke="#000000" points="111.8885,-474.6486 115.0885,-464.5486 106.2885,-470.4486 111.8885,-474.6486"/>
</g>
<!-- 33 -->
<g id="node34" class="node">
<title>33</title>
<g id="a_node34"><a xlink:title="Q">
<ellipse fill="#ffd300" stroke="#000000" stroke-width="0" cx="72" cy="-666" rx="18" ry="18"/>
</a>
</g>
</g>
<!-- 28&#45;&gt;33 -->
<g id="edge45" class="edge">
<title>28&#45;&gt;33</title>
<path fill="none" stroke="#000000" d="M72,-719.8314C72,-712.131 72,-702.9743 72,-694.4166"/>
<polygon fill="#000000" stroke="#000000" points="75.5001,-694.4132 72,-684.4133 68.5001,-694.4133 75.5001,-694.4132"/>
</g>
<!-- 36 -->
<g id="node37" class="node">
<title>36</title>
<g id="a_node37"><a xlink:title="Q">
<ellipse fill="#ffd300" stroke="#000000" stroke-width="0" cx="72" cy="-378" rx="18" ry="18"/>
</a>
</g>
</g>
<!-- 29&#45;&gt;36 -->
<g id="edge48" class="edge">
<title>29&#45;&gt;36</title>
<path fill="none" stroke="#000000" d="M72,-431.8314C72,-424.131 72,-414.9743 72,-406.4166"/>
<polygon fill="#000000" stroke="#000000" points="75.5001,-406.4132 72,-396.4133 68.5001,-406.4133 75.5001,-406.4132"/>
</g>
<!-- 51 -->
<g id="node52" class="node">
<title>51</title>
<g id="a_node52"><a xlink:title="Q">
<ellipse fill="#ffd300" stroke="#000000" stroke-width="0" cx="126" cy="-378" rx="18" ry="18"/>
</a>
</g>
</g>
<!-- 30&#45;&gt;51 -->
<g id="edge10" class="edge">
<title>30&#45;&gt;51</title>
<path fill="none" stroke="#000000" d="M126,-431.8314C126,-424.131 126,-414.9743 126,-406.4166"/>
<polygon fill="#000000" stroke="#000000" points="129.5001,-406.4132 126,-396.4133 122.5001,-406.4133 129.5001,-406.4132"/>
</g>
<!-- 31 -->
<g id="node32" class="node">
<title>31</title>
<g id="a_node32"><a xlink:title="Q">
<ellipse fill="#ffd300" stroke="#000000" stroke-width="0" cx="72" cy="-594" rx="18" ry="18"/>
</a>
</g>
</g>
<!-- 31&#45;&gt;27 -->
<g id="edge44" class="edge">
<title>31&#45;&gt;27</title>
<path fill="none" stroke="#000000" d="M72,-575.8314C72,-568.131 72,-558.9743 72,-550.4166"/>
<polygon fill="#000000" stroke="#000000" points="75.5001,-550.4132 72,-540.4133 68.5001,-550.4133 75.5001,-550.4132"/>
</g>
<!-- 32 -->
<g id="node33" class="node">
<title>32</title>
<g id="a_node33"><a xlink:title="Q">
<ellipse fill="#ffd300" stroke="#000000" stroke-width="0" cx="72" cy="-882" rx="18" ry="18"/>
</a>
</g>
</g>
<!-- 32&#45;&gt;26 -->
<g id="edge3" class="edge">
<title>32&#45;&gt;26</title>
<path fill="none" stroke="#000000" d="M72,-863.8314C72,-856.131 72,-846.9743 72,-838.4166"/>
<polygon fill="#000000" stroke="#000000" points="75.5001,-838.4132 72,-828.4133 68.5001,-838.4133 75.5001,-838.4132"/>
</g>
<!-- 33&#45;&gt;31 -->
<g id="edge51" class="edge">
<title>33&#45;&gt;31</title>
<path fill="none" stroke="#000000" d="M72,-647.8314C72,-640.131 72,-630.9743 72,-622.4166"/>
<polygon fill="#000000" stroke="#000000" points="75.5001,-622.4132 72,-612.4133 68.5001,-622.4133 75.5001,-622.4132"/>
</g>
<!-- 34 -->
<g id="node35" class="node">
<title>34</title>
<g id="a_node35"><a xlink:title="Q">
<ellipse fill="#ffd300" stroke="#000000" stroke-width="0" cx="126" cy="-954" rx="18" ry="18"/>
</a>
</g>
</g>
<!-- 34&#45;&gt;32 -->
<g id="edge21" class="edge">
<title>34&#45;&gt;32</title>
<path fill="none" stroke="#000000" d="M115.0723,-939.4297C107.6066,-929.4754 97.5632,-916.0842 89.0526,-904.7368"/>
<polygon fill="#000000" stroke="#000000" points="91.7115,-902.4486 82.9115,-896.5486 86.1115,-906.6486 91.7115,-902.4486"/>
</g>
<!-- 35 -->
<g id="node36" class="node">
<title>35</title>
<g id="a_node36"><a xlink:title="Q">
<ellipse fill="#ffd300" stroke="#000000" stroke-width="0" cx="45" cy="-306" rx="18" ry="18"/>
</a>
</g>
</g>
<!-- 36&#45;&gt;35 -->
<g id="edge23" class="edge">
<title>36&#45;&gt;35</title>
<path fill="none" stroke="#000000" d="M65.6014,-360.937C62.407,-352.4186 58.471,-341.9227 54.8982,-332.3952"/>
<polygon fill="#000000" stroke="#000000" points="58.1411,-331.0749 51.3527,-322.9405 51.5868,-333.5328 58.1411,-331.0749"/>
</g>
<!-- 43 -->
<g id="node44" class="node">
<title>43</title>
<g id="a_node44"><a xlink:title="Q">
<ellipse fill="#ffd300" stroke="#000000" stroke-width="0" cx="99" cy="-306" rx="18" ry="18"/>
</a>
</g>
</g>
<!-- 36&#45;&gt;43 -->
<g id="edge15" class="edge">
<title>36&#45;&gt;43</title>
<path fill="none" stroke="#000000" d="M78.3986,-360.937C81.593,-352.4186 85.529,-341.9227 89.1018,-332.3952"/>
<polygon fill="#000000" stroke="#000000" points="92.4132,-333.5328 92.6473,-322.9405 85.8589,-331.0749 92.4132,-333.5328"/>
</g>
<!-- 38 -->
<g id="node39" class="node">
<title>38</title>
<g id="a_node39"><a xlink:title="Q">
<ellipse fill="#ffd300" stroke="#000000" stroke-width="0" cx="173" cy="-1170" rx="18" ry="18"/>
</a>
</g>
</g>
<!-- 37&#45;&gt;38 -->
<g id="edge30" class="edge">
<title>37&#45;&gt;38</title>
<path fill="none" stroke="#000000" d="M175.243,-1223.8314C174.9221,-1216.131 174.5406,-1206.9743 174.184,-1198.4166"/>
<polygon fill="#000000" stroke="#000000" points="177.6806,-1198.2589 173.7672,-1188.4133 170.6867,-1198.5503 177.6806,-1198.2589"/>
</g>
<!-- 39 -->
<g id="node40" class="node">
<title>39</title>
<g id="a_node40"><a xlink:title="Q">
<ellipse fill="#ffd300" stroke="#000000" stroke-width="0" cx="166" cy="-1098" rx="18" ry="18"/>
</a>
</g>
</g>
<!-- 38&#45;&gt;39 -->
<g id="edge33" class="edge">
<title>38&#45;&gt;39</title>
<path fill="none" stroke="#000000" d="M171.2336,-1151.8314C170.485,-1144.131 169.5947,-1134.9743 168.7627,-1126.4166"/>
<polygon fill="#000000" stroke="#000000" points="172.2415,-1126.0276 167.7902,-1116.4133 165.2744,-1126.7051 172.2415,-1126.0276"/>
</g>
<!-- 40 -->
<g id="node41" class="node">
<title>40</title>
<g id="a_node41"><a xlink:title="Q">
<ellipse fill="#ffd300" stroke="#000000" stroke-width="0" cx="153" cy="-1026" rx="18" ry="18"/>
</a>
</g>
</g>
<!-- 39&#45;&gt;40 -->
<g id="edge24" class="edge">
<title>39&#45;&gt;40</title>
<path fill="none" stroke="#000000" d="M162.7865,-1080.2022C161.349,-1072.2406 159.6205,-1062.6671 158.0187,-1053.7957"/>
<polygon fill="#000000" stroke="#000000" points="161.4428,-1053.0615 156.2216,-1043.8425 154.5542,-1054.3053 161.4428,-1053.0615"/>
</g>
<!-- 40&#45;&gt;34 -->
<g id="edge29" class="edge">
<title>40&#45;&gt;34</title>
<path fill="none" stroke="#000000" d="M146.6014,-1008.937C143.407,-1000.4186 139.471,-989.9227 135.8982,-980.3952"/>
<polygon fill="#000000" stroke="#000000" points="139.1411,-979.0749 132.3527,-970.9405 132.5868,-981.5328 139.1411,-979.0749"/>
</g>
<!-- 41 -->
<g id="node42" class="node">
<title>41</title>
<g id="a_node42"><a xlink:title="Q">
<ellipse fill="#ffd300" stroke="#000000" stroke-width="0" cx="99" cy="-90" rx="18" ry="18"/>
</a>
</g>
</g>
<!-- 44 -->
<g id="node45" class="node">
<title>44</title>
<g id="a_node45"><a xlink:title="Q">
<ellipse fill="#ffd300" stroke="#000000" stroke-width="0" cx="99" cy="-18" rx="18" ry="18"/>
</a>
</g>
</g>
<!-- 41&#45;&gt;44 -->
<g id="edge50" class="edge">
<title>41&#45;&gt;44</title>
<path fill="none" stroke="#000000" d="M99,-71.8314C99,-64.131 99,-54.9743 99,-46.4166"/>
<polygon fill="#000000" stroke="#000000" points="102.5001,-46.4132 99,-36.4133 95.5001,-46.4133 102.5001,-46.4132"/>
</g>
<!-- 42 -->
<g id="node43" class="node">
<title>42</title>
<g id="a_node43"><a xlink:title="Q">
<ellipse fill="#ffd300" stroke="#000000" stroke-width="0" cx="99" cy="-162" rx="18" ry="18"/>
</a>
</g>
</g>
<!-- 42&#45;&gt;41 -->
<g id="edge26" class="edge">
<title>42&#45;&gt;41</title>
<path fill="none" stroke="#000000" d="M99,-143.8314C99,-136.131 99,-126.9743 99,-118.4166"/>
<polygon fill="#000000" stroke="#000000" points="102.5001,-118.4132 99,-108.4133 95.5001,-118.4133 102.5001,-118.4132"/>
</g>
<!-- 45 -->
<g id="node46" class="node">
<title>45</title>
<g id="a_node46"><a xlink:title="Q">
<ellipse fill="#ffd300" stroke="#000000" stroke-width="0" cx="99" cy="-234" rx="18" ry="18"/>
</a>
</g>
</g>
<!-- 43&#45;&gt;45 -->
<g id="edge27" class="edge">
<title>43&#45;&gt;45</title>
<path fill="none" stroke="#000000" d="M99,-287.8314C99,-280.131 99,-270.9743 99,-262.4166"/>
<polygon fill="#000000" stroke="#000000" points="102.5001,-262.4132 99,-252.4133 95.5001,-262.4133 102.5001,-262.4132"/>
</g>
<!-- 45&#45;&gt;42 -->
<g id="edge18" class="edge">
<title>45&#45;&gt;42</title>
<path fill="none" stroke="#000000" d="M99,-215.8314C99,-208.131 99,-198.9743 99,-190.4166"/>
<polygon fill="#000000" stroke="#000000" points="102.5001,-190.4132 99,-180.4133 95.5001,-190.4133 102.5001,-190.4132"/>
</g>
<!-- 46 -->
<g id="node47" class="node">
<title>46</title>
<g id="a_node47"><a xlink:title="Q">
<ellipse fill="#ffd300" stroke="#000000" stroke-width="0" cx="234" cy="-810" rx="18" ry="18"/>
</a>
</g>
</g>
<!-- 47&#45;&gt;46 -->
<g id="edge13" class="edge">
<title>47&#45;&gt;46</title>
<path fill="none" stroke="#000000" d="M234,-863.8314C234,-856.131 234,-846.9743 234,-838.4166"/>
<polygon fill="#000000" stroke="#000000" points="237.5001,-838.4132 234,-828.4133 230.5001,-838.4133 237.5001,-838.4132"/>
</g>
<!-- 48 -->
<g id="node49" class="node">
<title>48</title>
<g id="a_node49"><a xlink:title="Q">
<ellipse fill="#ffd300" stroke="#000000" stroke-width="0" cx="179" cy="-1458" rx="18" ry="18"/>
</a>
</g>
</g>
<!-- 48&#45;&gt;21 -->
<g id="edge22" class="edge">
<title>48&#45;&gt;21</title>
<path fill="none" stroke="#000000" d="M179,-1439.8314C179,-1432.131 179,-1422.9743 179,-1414.4166"/>
<polygon fill="#000000" stroke="#000000" points="182.5001,-1414.4132 179,-1404.4133 175.5001,-1414.4133 182.5001,-1414.4132"/>
</g>
<!-- 49&#45;&gt;48 -->
<g id="edge37" class="edge">
<title>49&#45;&gt;48</title>
<path fill="none" stroke="#000000" d="M179,-1511.8314C179,-1504.131 179,-1494.9743 179,-1486.4166"/>
<polygon fill="#000000" stroke="#000000" points="182.5001,-1486.4132 179,-1476.4133 175.5001,-1486.4133 182.5001,-1486.4132"/>
</g>
</g>
</svg>
