<?xml version="1.0" encoding="UTF-8" standalone="no"?>
<!DOCTYPE svg PUBLIC "-//W3C//DTD SVG 1.1//EN"
 "http://www.w3.org/Graphics/SVG/1.1/DTD/svg11.dtd">
<!-- Generated by graphviz version 2.38.0 (20140413.2041)
 -->
<!-- Title: %3 Pages: 1 -->
<svg width="566pt" height="620pt"
 viewBox="0.00 0.00 565.64 620.00" xmlns="http://www.w3.org/2000/svg" xmlns:xlink="http://www.w3.org/1999/xlink">
<g id="graph0" class="graph" transform="scale(1 1) rotate(0) translate(4 616)">
<title>%3</title>
<polygon fill="white" stroke="none" points="-4,4 -4,-616 561.643,-616 561.643,4 -4,4"/>
<!-- 0 -->
<g id="node1" class="node"><title>0</title>
<g id="a_node1"><a xlink:title="0, diversity: 1, multiplicities: 217, labels: 0">
<ellipse fill="#f7fcf5" stroke="black" cx="327.047" cy="-234" rx="37.0935" ry="18"/>
<text text-anchor="middle" x="327.047" y="-230.3" font-family="Times,serif" font-size="14.00">0 (1): 0</text>
</a>
</g>
</g>
<!-- 1 -->
<g id="node2" class="node"><title>1</title>
<g id="a_node2"><a xlink:title="1, diversity: 1, multiplicities: 13, labels: 0">
<ellipse fill="#f7fcf5" stroke="black" cx="37.0467" cy="-306" rx="37.0935" ry="18"/>
<text text-anchor="middle" x="37.0467" y="-302.3" font-family="Times,serif" font-size="14.00">1 (1): 0</text>
</a>
</g>
</g>
<!-- 2 -->
<g id="node3" class="node"><title>2</title>
<g id="a_node3"><a xlink:title="2, diversity: 1, multiplicities: 208, labels: 0">
<ellipse fill="#f7fcf5" stroke="black" cx="129.047" cy="-378" rx="37.0935" ry="18"/>
<text text-anchor="middle" x="129.047" y="-374.3" font-family="Times,serif" font-size="14.00">2 (1): 0</text>
</a>
</g>
</g>
<!-- 2&#45;&gt;1 -->
<g id="edge9" class="edge"><title>2&#45;&gt;1</title>
<path fill="none" stroke="black" d="M109.984,-362.496C96.7852,-352.453 79.0176,-338.934 64.3235,-327.754"/>
<polygon fill="black" stroke="black" points="66.1624,-324.755 56.0848,-321.485 61.9237,-330.326 66.1624,-324.755"/>
</g>
<!-- 7 -->
<g id="node8" class="node"><title>7</title>
<g id="a_node8"><a xlink:title="7, diversity: 1, multiplicities: 11, labels: 0">
<ellipse fill="#f7fcf5" stroke="black" cx="129.047" cy="-306" rx="37.0935" ry="18"/>
<text text-anchor="middle" x="129.047" y="-302.3" font-family="Times,serif" font-size="14.00">7 (1): 0</text>
</a>
</g>
</g>
<!-- 2&#45;&gt;7 -->
<g id="edge1" class="edge"><title>2&#45;&gt;7</title>
<path fill="none" stroke="black" d="M129.047,-359.697C129.047,-351.983 129.047,-342.712 129.047,-334.112"/>
<polygon fill="black" stroke="black" points="132.547,-334.104 129.047,-324.104 125.547,-334.104 132.547,-334.104"/>
</g>
<!-- 3 -->
<g id="node4" class="node"><title>3</title>
<g id="a_node4"><a xlink:title="3, diversity: 2, multiplicities: 2,844, labels: 0">
<ellipse fill="#f7fcf5" stroke="black" cx="415.047" cy="-522" rx="37.0935" ry="18"/>
<text text-anchor="middle" x="415.047" y="-518.3" font-family="Times,serif" font-size="14.00">3 (2): 0</text>
</a>
</g>
</g>
<!-- 6 -->
<g id="node7" class="node"><title>6</title>
<g id="a_node7"><a xlink:title="6, diversity: 1, multiplicities: 107, labels: 0">
<ellipse fill="#f7fcf5" stroke="black" cx="272.047" cy="-450" rx="37.0935" ry="18"/>
<text text-anchor="middle" x="272.047" y="-446.3" font-family="Times,serif" font-size="14.00">6 (1): 0</text>
</a>
</g>
</g>
<!-- 3&#45;&gt;6 -->
<g id="edge14" class="edge"><title>3&#45;&gt;6</title>
<path fill="none" stroke="black" d="M389.81,-508.647C366.673,-497.321 332.209,-480.45 306.536,-467.883"/>
<polygon fill="black" stroke="black" points="308.032,-464.719 297.512,-463.465 304.955,-471.006 308.032,-464.719"/>
</g>
<!-- 11 -->
<g id="node12" class="node"><title>11</title>
<g id="a_node12"><a xlink:title="11, diversity: 2, multiplicities: 1,2, labels: 0">
<ellipse fill="#f7fcf5" stroke="black" cx="415.047" cy="-450" rx="41.6928" ry="18"/>
<text text-anchor="middle" x="415.047" y="-446.3" font-family="Times,serif" font-size="14.00">11 (2): 0</text>
</a>
</g>
</g>
<!-- 3&#45;&gt;11 -->
<g id="edge8" class="edge"><title>3&#45;&gt;11</title>
<path fill="none" stroke="black" d="M415.047,-503.697C415.047,-495.983 415.047,-486.712 415.047,-478.112"/>
<polygon fill="black" stroke="black" points="418.547,-478.104 415.047,-468.104 411.547,-478.104 418.547,-478.104"/>
</g>
<!-- 14 -->
<g id="node15" class="node"><title>14</title>
<g id="a_node15"><a xlink:title="14, diversity: 1, multiplicities: 1, labels: 0">
<ellipse fill="#f7fcf5" stroke="black" cx="516.047" cy="-450" rx="41.6928" ry="18"/>
<text text-anchor="middle" x="516.047" y="-446.3" font-family="Times,serif" font-size="14.00">14 (1): 0</text>
</a>
</g>
</g>
<!-- 3&#45;&gt;14 -->
<g id="edge17" class="edge"><title>3&#45;&gt;14</title>
<path fill="none" stroke="black" d="M435.486,-506.834C450.076,-496.722 469.93,-482.962 486.278,-471.632"/>
<polygon fill="black" stroke="black" points="488.718,-474.199 494.943,-465.626 484.73,-468.446 488.718,-474.199"/>
</g>
<!-- 4 -->
<g id="node5" class="node"><title>4</title>
<g id="a_node5"><a xlink:title="4, diversity: 2, multiplicities: 3,84, labels: 0">
<ellipse fill="#f7fcf5" stroke="black" cx="226.047" cy="-378" rx="37.0935" ry="18"/>
<text text-anchor="middle" x="226.047" y="-374.3" font-family="Times,serif" font-size="14.00">4 (2): 0</text>
</a>
</g>
</g>
<!-- 15 -->
<g id="node16" class="node"><title>15</title>
<g id="a_node16"><a xlink:title="15, diversity: 1, multiplicities: 1, labels: 0">
<ellipse fill="#f7fcf5" stroke="black" cx="226.047" cy="-306" rx="41.6928" ry="18"/>
<text text-anchor="middle" x="226.047" y="-302.3" font-family="Times,serif" font-size="14.00">15 (1): 0</text>
</a>
</g>
</g>
<!-- 4&#45;&gt;15 -->
<g id="edge16" class="edge"><title>4&#45;&gt;15</title>
<path fill="none" stroke="black" d="M226.047,-359.697C226.047,-351.983 226.047,-342.712 226.047,-334.112"/>
<polygon fill="black" stroke="black" points="229.547,-334.104 226.047,-324.104 222.547,-334.104 229.547,-334.104"/>
</g>
<!-- 5 -->
<g id="node6" class="node"><title>5</title>
<g id="a_node6"><a xlink:title="5, diversity: 1, multiplicities: 1, labels: 0">
<ellipse fill="#f7fcf5" stroke="black" cx="318.047" cy="-378" rx="37.0935" ry="18"/>
<text text-anchor="middle" x="318.047" y="-374.3" font-family="Times,serif" font-size="14.00">5 (1): 0</text>
</a>
</g>
</g>
<!-- 12 -->
<g id="node13" class="node"><title>12</title>
<g id="a_node13"><a xlink:title="12, diversity: 2, multiplicities: 1,7, labels: 0">
<ellipse fill="#f7fcf5" stroke="black" cx="327.047" cy="-306" rx="41.6928" ry="18"/>
<text text-anchor="middle" x="327.047" y="-302.3" font-family="Times,serif" font-size="14.00">12 (2): 0</text>
</a>
</g>
</g>
<!-- 5&#45;&gt;12 -->
<g id="edge6" class="edge"><title>5&#45;&gt;12</title>
<path fill="none" stroke="black" d="M320.271,-359.697C321.263,-351.983 322.455,-342.712 323.561,-334.112"/>
<polygon fill="black" stroke="black" points="327.044,-334.469 324.848,-324.104 320.101,-333.576 327.044,-334.469"/>
</g>
<!-- 6&#45;&gt;2 -->
<g id="edge11" class="edge"><title>6&#45;&gt;2</title>
<path fill="none" stroke="black" d="M246.81,-436.647C223.673,-425.321 189.209,-408.45 163.536,-395.883"/>
<polygon fill="black" stroke="black" points="165.032,-392.719 154.512,-391.465 161.955,-399.006 165.032,-392.719"/>
</g>
<!-- 6&#45;&gt;4 -->
<g id="edge2" class="edge"><title>6&#45;&gt;4</title>
<path fill="none" stroke="black" d="M261.145,-432.411C255.588,-423.955 248.714,-413.494 242.527,-404.078"/>
<polygon fill="black" stroke="black" points="245.287,-401.905 236.87,-395.47 239.437,-405.749 245.287,-401.905"/>
</g>
<!-- 6&#45;&gt;5 -->
<g id="edge13" class="edge"><title>6&#45;&gt;5</title>
<path fill="none" stroke="black" d="M282.948,-432.411C288.505,-423.955 295.379,-413.494 301.567,-404.078"/>
<polygon fill="black" stroke="black" points="304.657,-405.749 307.224,-395.47 298.807,-401.905 304.657,-405.749"/>
</g>
<!-- 8 -->
<g id="node9" class="node"><title>8</title>
<g id="a_node9"><a xlink:title="8, diversity: 1, multiplicities: 3, labels: 0">
<ellipse fill="#f7fcf5" stroke="black" cx="226.047" cy="-234" rx="37.0935" ry="18"/>
<text text-anchor="middle" x="226.047" y="-230.3" font-family="Times,serif" font-size="14.00">8 (1): 0</text>
</a>
</g>
</g>
<!-- 18 -->
<g id="node19" class="node"><title>18</title>
<g id="a_node19"><a xlink:title="18, diversity: 1, multiplicities: 1, labels: 0">
<ellipse fill="#f7fcf5" stroke="black" cx="226.047" cy="-162" rx="41.6928" ry="18"/>
<text text-anchor="middle" x="226.047" y="-158.3" font-family="Times,serif" font-size="14.00">18 (1): 0</text>
</a>
</g>
</g>
<!-- 8&#45;&gt;18 -->
<g id="edge18" class="edge"><title>8&#45;&gt;18</title>
<path fill="none" stroke="black" d="M226.047,-215.697C226.047,-207.983 226.047,-198.712 226.047,-190.112"/>
<polygon fill="black" stroke="black" points="229.547,-190.104 226.047,-180.104 222.547,-190.104 229.547,-190.104"/>
</g>
<!-- 9 -->
<g id="node10" class="node"><title>9</title>
<g id="a_node10"><a xlink:title="9, diversity: 1, multiplicities: 10, labels: 0">
<ellipse fill="#f7fcf5" stroke="black" cx="415.047" cy="-594" rx="37.0935" ry="18"/>
<text text-anchor="middle" x="415.047" y="-590.3" font-family="Times,serif" font-size="14.00">9 (1): 0</text>
</a>
</g>
</g>
<!-- 9&#45;&gt;3 -->
<g id="edge7" class="edge"><title>9&#45;&gt;3</title>
<path fill="none" stroke="black" d="M415.047,-575.697C415.047,-567.983 415.047,-558.712 415.047,-550.112"/>
<polygon fill="black" stroke="black" points="418.547,-550.104 415.047,-540.104 411.547,-550.104 418.547,-550.104"/>
</g>
<!-- 10 -->
<g id="node11" class="node"><title>10</title>
<g id="a_node11"><a xlink:title="10, diversity: 1, multiplicities: 5, labels: 0">
<ellipse fill="#f7fcf5" stroke="black" cx="415.047" cy="-378" rx="41.6928" ry="18"/>
<text text-anchor="middle" x="415.047" y="-374.3" font-family="Times,serif" font-size="14.00">10 (1): 0</text>
</a>
</g>
</g>
<!-- 11&#45;&gt;10 -->
<g id="edge3" class="edge"><title>11&#45;&gt;10</title>
<path fill="none" stroke="black" d="M415.047,-431.697C415.047,-423.983 415.047,-414.712 415.047,-406.112"/>
<polygon fill="black" stroke="black" points="418.547,-406.104 415.047,-396.104 411.547,-406.104 418.547,-406.104"/>
</g>
<!-- 12&#45;&gt;0 -->
<g id="edge5" class="edge"><title>12&#45;&gt;0</title>
<path fill="none" stroke="black" d="M327.047,-287.697C327.047,-279.983 327.047,-270.712 327.047,-262.112"/>
<polygon fill="black" stroke="black" points="330.547,-262.104 327.047,-252.104 323.547,-262.104 330.547,-262.104"/>
</g>
<!-- 13 -->
<g id="node14" class="node"><title>13</title>
<g id="a_node14"><a xlink:title="13, diversity: 1, multiplicities: 9, labels: 0">
<ellipse fill="#f7fcf5" stroke="black" cx="516.047" cy="-378" rx="41.6928" ry="18"/>
<text text-anchor="middle" x="516.047" y="-374.3" font-family="Times,serif" font-size="14.00">13 (1): 0</text>
</a>
</g>
</g>
<!-- 14&#45;&gt;13 -->
<g id="edge4" class="edge"><title>14&#45;&gt;13</title>
<path fill="none" stroke="black" d="M516.047,-431.697C516.047,-423.983 516.047,-414.712 516.047,-406.112"/>
<polygon fill="black" stroke="black" points="519.547,-406.104 516.047,-396.104 512.547,-406.104 519.547,-406.104"/>
</g>
<!-- 15&#45;&gt;8 -->
<g id="edge12" class="edge"><title>15&#45;&gt;8</title>
<path fill="none" stroke="black" d="M226.047,-287.697C226.047,-279.983 226.047,-270.712 226.047,-262.112"/>
<polygon fill="black" stroke="black" points="229.547,-262.104 226.047,-252.104 222.547,-262.104 229.547,-262.104"/>
</g>
<!-- 16 -->
<g id="node17" class="node"><title>16</title>
<g id="a_node17"><a xlink:title="16, diversity: 1, multiplicities: 7, labels: 0">
<ellipse fill="#f7fcf5" stroke="black" cx="226.047" cy="-18" rx="41.6928" ry="18"/>
<text text-anchor="middle" x="226.047" y="-14.3" font-family="Times,serif" font-size="14.00">16 (1): 0</text>
</a>
</g>
</g>
<!-- 17 -->
<g id="node18" class="node"><title>17</title>
<g id="a_node18"><a xlink:title="17, diversity: 2, multiplicities: 4,7, labels: 0">
<ellipse fill="#f7fcf5" stroke="black" cx="226.047" cy="-90" rx="41.6928" ry="18"/>
<text text-anchor="middle" x="226.047" y="-86.3" font-family="Times,serif" font-size="14.00">17 (2): 0</text>
</a>
</g>
</g>
<!-- 17&#45;&gt;16 -->
<g id="edge15" class="edge"><title>17&#45;&gt;16</title>
<path fill="none" stroke="black" d="M226.047,-71.6966C226.047,-63.9827 226.047,-54.7125 226.047,-46.1124"/>
<polygon fill="black" stroke="black" points="229.547,-46.1043 226.047,-36.1043 222.547,-46.1044 229.547,-46.1043"/>
</g>
<!-- 18&#45;&gt;17 -->
<g id="edge10" class="edge"><title>18&#45;&gt;17</title>
<path fill="none" stroke="black" d="M226.047,-143.697C226.047,-135.983 226.047,-126.712 226.047,-118.112"/>
<polygon fill="black" stroke="black" points="229.547,-118.104 226.047,-108.104 222.547,-118.104 229.547,-118.104"/>
</g>
</g>
</svg>
