<?xml version="1.0" encoding="UTF-8" standalone="no"?>
<!DOCTYPE svg PUBLIC "-//W3C//DTD SVG 1.1//EN"
 "http://www.w3.org/Graphics/SVG/1.1/DTD/svg11.dtd">
<!-- Generated by graphviz version 2.38.0 (20140413.2041)
 -->
<!-- Title: %3 Pages: 1 -->
<svg width="182pt" height="332pt"
 viewBox="0.00 0.00 182.00 332.00" xmlns="http://www.w3.org/2000/svg" xmlns:xlink="http://www.w3.org/1999/xlink">
<g id="graph0" class="graph" transform="scale(1 1) rotate(0) translate(4 328)">
<title>%3</title>
<polygon fill="white" stroke="none" points="-4,4 -4,-328 178,-328 178,4 -4,4"/>
<!-- p0 -->
<g id="node1" class="node"><title>p0</title>
<path fill="none" stroke="black" d="M47,-36C47,-36 12,-36 12,-36 6,-36 0,-30 0,-24 0,-24 0,-12 0,-12 0,-6 6,-0 12,-0 12,-0 47,-0 47,-0 53,-0 59,-6 59,-12 59,-12 59,-24 59,-24 59,-30 53,-36 47,-36"/>
<text text-anchor="middle" x="29.5" y="-14.3" font-family="Times,serif" font-size="14.00">path (4)</text>
</g>
<!-- p1 -->
<g id="node2" class="node"><title>p1</title>
<path fill="none" stroke="black" d="M85,-180C85,-180 50,-180 50,-180 44,-180 38,-174 38,-168 38,-168 38,-156 38,-156 38,-150 44,-144 50,-144 50,-144 85,-144 85,-144 91,-144 97,-150 97,-156 97,-156 97,-168 97,-168 97,-174 91,-180 85,-180"/>
<text text-anchor="middle" x="67.5" y="-158.3" font-family="Times,serif" font-size="14.00">path (2)</text>
</g>
<!-- v12 -->
<g id="node7" class="node"><title>v12</title>
<ellipse fill="none" stroke="black" cx="67.5" cy="-90" rx="27" ry="18"/>
<text text-anchor="middle" x="67.5" y="-86.3" font-family="Times,serif" font-size="14.00">12</text>
</g>
<!-- p1&#45;&gt;v12 -->
<g id="edge6" class="edge"><title>p1&#45;&gt;v12</title>
<path fill="none" stroke="black" d="M67.5,-143.697C67.5,-135.983 67.5,-126.712 67.5,-118.112"/>
<polygon fill="black" stroke="black" points="71.0001,-118.104 67.5,-108.104 64.0001,-118.104 71.0001,-118.104"/>
</g>
<!-- v3 -->
<g id="node3" class="node"><title>v3</title>
<ellipse fill="none" stroke="black" cx="105.5" cy="-234" rx="27" ry="18"/>
<text text-anchor="middle" x="105.5" y="-230.3" font-family="Times,serif" font-size="14.00">3</text>
</g>
<!-- v3&#45;&gt;p1 -->
<g id="edge3" class="edge"><title>v3&#45;&gt;p1</title>
<path fill="none" stroke="black" d="M96.6865,-216.765C92.2138,-208.525 86.6719,-198.317 81.6228,-189.016"/>
<polygon fill="black" stroke="black" points="84.6428,-187.243 76.7958,-180.124 78.4908,-190.582 84.6428,-187.243"/>
</g>
<!-- p4 -->
<g id="node6" class="node"><title>p4</title>
<path fill="none" stroke="black" d="M162,-180C162,-180 127,-180 127,-180 121,-180 115,-174 115,-168 115,-168 115,-156 115,-156 115,-150 121,-144 127,-144 127,-144 162,-144 162,-144 168,-144 174,-150 174,-156 174,-156 174,-168 174,-168 174,-174 168,-180 162,-180"/>
<text text-anchor="middle" x="144.5" y="-158.3" font-family="Times,serif" font-size="14.00">path (3)</text>
</g>
<!-- v3&#45;&gt;p4 -->
<g id="edge4" class="edge"><title>v3&#45;&gt;p4</title>
<path fill="none" stroke="black" d="M114.545,-216.765C119.136,-208.525 124.824,-198.317 130.006,-189.016"/>
<polygon fill="black" stroke="black" points="133.15,-190.563 134.96,-180.124 127.035,-187.156 133.15,-190.563"/>
</g>
<!-- p2 -->
<g id="node4" class="node"><title>p2</title>
<path fill="none" stroke="black" d="M124,-36C124,-36 89,-36 89,-36 83,-36 77,-30 77,-24 77,-24 77,-12 77,-12 77,-6 83,-0 89,-0 89,-0 124,-0 124,-0 130,-0 136,-6 136,-12 136,-12 136,-24 136,-24 136,-30 130,-36 124,-36"/>
<text text-anchor="middle" x="106.5" y="-14.3" font-family="Times,serif" font-size="14.00">path (2)</text>
</g>
<!-- p3 -->
<g id="node5" class="node"><title>p3</title>
<path fill="none" stroke="black" d="M123,-324C123,-324 88,-324 88,-324 82,-324 76,-318 76,-312 76,-312 76,-300 76,-300 76,-294 82,-288 88,-288 88,-288 123,-288 123,-288 129,-288 135,-294 135,-300 135,-300 135,-312 135,-312 135,-318 129,-324 123,-324"/>
<text text-anchor="middle" x="105.5" y="-302.3" font-family="Times,serif" font-size="14.00">path (2)</text>
</g>
<!-- p3&#45;&gt;v3 -->
<g id="edge1" class="edge"><title>p3&#45;&gt;v3</title>
<path fill="none" stroke="black" d="M105.5,-287.697C105.5,-279.983 105.5,-270.712 105.5,-262.112"/>
<polygon fill="black" stroke="black" points="109,-262.104 105.5,-252.104 102,-262.104 109,-262.104"/>
</g>
<!-- v12&#45;&gt;p0 -->
<g id="edge5" class="edge"><title>v12&#45;&gt;p0</title>
<path fill="none" stroke="black" d="M58.6865,-72.7646C54.2138,-64.5255 48.6719,-54.3166 43.6228,-45.0157"/>
<polygon fill="black" stroke="black" points="46.6428,-43.2426 38.7958,-36.1239 40.4908,-46.5823 46.6428,-43.2426"/>
</g>
<!-- v12&#45;&gt;p2 -->
<g id="edge2" class="edge"><title>v12&#45;&gt;p2</title>
<path fill="none" stroke="black" d="M76.5454,-72.7646C81.1358,-64.5255 86.8236,-54.3166 92.0056,-45.0157"/>
<polygon fill="black" stroke="black" points="95.1499,-46.5631 96.9595,-36.1239 89.035,-43.1561 95.1499,-46.5631"/>
</g>
</g>
</svg>
