<?xml version="1.0" encoding="UTF-8" standalone="no"?>
<!DOCTYPE svg PUBLIC "-//W3C//DTD SVG 1.1//EN"
 "http://www.w3.org/Graphics/SVG/1.1/DTD/svg11.dtd">
<!-- Generated by graphviz version 2.38.0 (20140413.2041)
 -->
<!-- Title: %3 Pages: 1 -->
<svg width="471pt" height="476pt"
 viewBox="0.00 0.00 470.64 476.00" xmlns="http://www.w3.org/2000/svg" xmlns:xlink="http://www.w3.org/1999/xlink">
<g id="graph0" class="graph" transform="scale(1 1) rotate(0) translate(4 472)">
<title>%3</title>
<polygon fill="white" stroke="none" points="-4,4 -4,-472 466.643,-472 466.643,4 -4,4"/>
<!-- 0 -->
<g id="node1" class="node"><title>0</title>
<g id="a_node1"><a xlink:title="0, diversity: 1, multiplicities: 11, labels: 0">
<ellipse fill="#f7fcf5" stroke="black" cx="37.0467" cy="-162" rx="37.0935" ry="18"/>
<text text-anchor="middle" x="37.0467" y="-158.3" font-family="Times,serif" font-size="14.00">0 (1): 0</text>
</a>
</g>
</g>
<!-- 1 -->
<g id="node2" class="node"><title>1</title>
<g id="a_node2"><a xlink:title="1, diversity: 2, multiplicities: 9,33, labels: 0">
<ellipse fill="#f7fcf5" stroke="black" cx="129.047" cy="-162" rx="37.0935" ry="18"/>
<text text-anchor="middle" x="129.047" y="-158.3" font-family="Times,serif" font-size="14.00">1 (2): 0</text>
</a>
</g>
</g>
<!-- 2 -->
<g id="node3" class="node"><title>2</title>
<g id="a_node3"><a xlink:title="2, diversity: 2, multiplicities: 8,54, labels: 0">
<ellipse fill="#f7fcf5" stroke="black" cx="175.047" cy="-234" rx="37.0935" ry="18"/>
<text text-anchor="middle" x="175.047" y="-230.3" font-family="Times,serif" font-size="14.00">2 (2): 0</text>
</a>
</g>
</g>
<!-- 2&#45;&gt;0 -->
<g id="edge7" class="edge"><title>2&#45;&gt;0</title>
<path fill="none" stroke="black" d="M150.375,-220.485C128.239,-209.257 95.5484,-192.675 70.9587,-180.202"/>
<polygon fill="black" stroke="black" points="72.4717,-177.045 61.97,-175.642 69.305,-183.287 72.4717,-177.045"/>
</g>
<!-- 2&#45;&gt;1 -->
<g id="edge5" class="edge"><title>2&#45;&gt;1</title>
<path fill="none" stroke="black" d="M164.145,-216.411C158.588,-207.955 151.714,-197.494 145.527,-188.078"/>
<polygon fill="black" stroke="black" points="148.287,-185.905 139.87,-179.47 142.437,-189.749 148.287,-185.905"/>
</g>
<!-- 3 -->
<g id="node4" class="node"><title>3</title>
<g id="a_node4"><a xlink:title="3, diversity: 1, multiplicities: 8, labels: 0">
<ellipse fill="#f7fcf5" stroke="black" cx="221.047" cy="-162" rx="37.0935" ry="18"/>
<text text-anchor="middle" x="221.047" y="-158.3" font-family="Times,serif" font-size="14.00">3 (1): 0</text>
</a>
</g>
</g>
<!-- 2&#45;&gt;3 -->
<g id="edge8" class="edge"><title>2&#45;&gt;3</title>
<path fill="none" stroke="black" d="M185.948,-216.411C191.505,-207.955 198.379,-197.494 204.567,-188.078"/>
<polygon fill="black" stroke="black" points="207.657,-189.749 210.224,-179.47 201.807,-185.905 207.657,-189.749"/>
</g>
<!-- 7 -->
<g id="node8" class="node"><title>7</title>
<g id="a_node8"><a xlink:title="7, diversity: 1, multiplicities: 17, labels: 0">
<ellipse fill="#f7fcf5" stroke="black" cx="313.047" cy="-162" rx="37.0935" ry="18"/>
<text text-anchor="middle" x="313.047" y="-158.3" font-family="Times,serif" font-size="14.00">7 (1): 0</text>
</a>
</g>
</g>
<!-- 2&#45;&gt;7 -->
<g id="edge1" class="edge"><title>2&#45;&gt;7</title>
<path fill="none" stroke="black" d="M199.718,-220.485C221.854,-209.257 254.545,-192.675 279.135,-180.202"/>
<polygon fill="black" stroke="black" points="280.788,-183.287 288.123,-175.642 277.622,-177.045 280.788,-183.287"/>
</g>
<!-- 5 -->
<g id="node6" class="node"><title>5</title>
<g id="a_node6"><a xlink:title="5, diversity: 2, multiplicities: 16,104, labels: 0">
<ellipse fill="#f7fcf5" stroke="black" cx="221.047" cy="-90" rx="37.0935" ry="18"/>
<text text-anchor="middle" x="221.047" y="-86.3" font-family="Times,serif" font-size="14.00">5 (2): 0</text>
</a>
</g>
</g>
<!-- 3&#45;&gt;5 -->
<g id="edge14" class="edge"><title>3&#45;&gt;5</title>
<path fill="none" stroke="black" d="M221.047,-143.697C221.047,-135.983 221.047,-126.712 221.047,-118.112"/>
<polygon fill="black" stroke="black" points="224.547,-118.104 221.047,-108.104 217.547,-118.104 224.547,-118.104"/>
</g>
<!-- 4 -->
<g id="node5" class="node"><title>4</title>
<g id="a_node5"><a xlink:title="4, diversity: 1, multiplicities: 1, labels: 0">
<ellipse fill="#f7fcf5" stroke="black" cx="175.047" cy="-306" rx="37.0935" ry="18"/>
<text text-anchor="middle" x="175.047" y="-302.3" font-family="Times,serif" font-size="14.00">4 (1): 0</text>
</a>
</g>
</g>
<!-- 4&#45;&gt;2 -->
<g id="edge10" class="edge"><title>4&#45;&gt;2</title>
<path fill="none" stroke="black" d="M175.047,-287.697C175.047,-279.983 175.047,-270.712 175.047,-262.112"/>
<polygon fill="black" stroke="black" points="178.547,-262.104 175.047,-252.104 171.547,-262.104 178.547,-262.104"/>
</g>
<!-- 6 -->
<g id="node7" class="node"><title>6</title>
<g id="a_node7"><a xlink:title="6, diversity: 3, multiplicities: 1,5,36, labels: 0">
<ellipse fill="#f7fcf5" stroke="black" cx="221.047" cy="-18" rx="37.0935" ry="18"/>
<text text-anchor="middle" x="221.047" y="-14.3" font-family="Times,serif" font-size="14.00">6 (3): 0</text>
</a>
</g>
</g>
<!-- 5&#45;&gt;6 -->
<g id="edge2" class="edge"><title>5&#45;&gt;6</title>
<path fill="none" stroke="black" d="M215.168,-72.055C214.338,-64.2306 214.101,-54.7484 214.457,-45.9768"/>
<polygon fill="black" stroke="black" points="217.963,-46.0131 215.185,-35.789 210.981,-45.514 217.963,-46.0131"/>
</g>
<!-- 6&#45;&gt;5 -->
<g id="edge13" class="edge"><title>6&#45;&gt;5</title>
<path fill="none" stroke="black" d="M226.908,-35.789C227.746,-43.5912 227.992,-53.067 227.644,-61.8479"/>
<polygon fill="black" stroke="black" points="224.136,-61.8338 226.925,-72.055 231.119,-62.3255 224.136,-61.8338"/>
</g>
<!-- 8 -->
<g id="node9" class="node"><title>8</title>
<g id="a_node9"><a xlink:title="8, diversity: 1, multiplicities: 6, labels: 0">
<ellipse fill="#f7fcf5" stroke="black" cx="313.047" cy="-90" rx="37.0935" ry="18"/>
<text text-anchor="middle" x="313.047" y="-86.3" font-family="Times,serif" font-size="14.00">8 (1): 0</text>
</a>
</g>
</g>
<!-- 7&#45;&gt;8 -->
<g id="edge12" class="edge"><title>7&#45;&gt;8</title>
<path fill="none" stroke="black" d="M313.047,-143.697C313.047,-135.983 313.047,-126.712 313.047,-118.112"/>
<polygon fill="black" stroke="black" points="316.547,-118.104 313.047,-108.104 309.547,-118.104 316.547,-118.104"/>
</g>
<!-- 9 -->
<g id="node10" class="node"><title>9</title>
<g id="a_node10"><a xlink:title="9, diversity: 2, multiplicities: 1,11, labels: 0">
<ellipse fill="#f7fcf5" stroke="black" cx="223.047" cy="-378" rx="37.0935" ry="18"/>
<text text-anchor="middle" x="223.047" y="-374.3" font-family="Times,serif" font-size="14.00">9 (2): 0</text>
</a>
</g>
</g>
<!-- 9&#45;&gt;4 -->
<g id="edge9" class="edge"><title>9&#45;&gt;4</title>
<path fill="none" stroke="black" d="M211.914,-360.765C206.062,-352.23 198.76,-341.582 192.203,-332.019"/>
<polygon fill="black" stroke="black" points="194.994,-329.901 186.452,-323.633 189.221,-333.86 194.994,-329.901"/>
</g>
<!-- 10 -->
<g id="node11" class="node"><title>10</title>
<g id="a_node11"><a xlink:title="10, diversity: 1, multiplicities: 11, labels: 0">
<ellipse fill="#f7fcf5" stroke="black" cx="272.047" cy="-306" rx="41.6928" ry="18"/>
<text text-anchor="middle" x="272.047" y="-302.3" font-family="Times,serif" font-size="14.00">10 (1): 0</text>
</a>
</g>
</g>
<!-- 9&#45;&gt;10 -->
<g id="edge6" class="edge"><title>9&#45;&gt;10</title>
<path fill="none" stroke="black" d="M234.411,-360.765C240.386,-352.23 247.839,-341.582 254.533,-332.019"/>
<polygon fill="black" stroke="black" points="257.536,-333.833 260.403,-323.633 251.801,-329.819 257.536,-333.833"/>
</g>
<!-- 11 -->
<g id="node12" class="node"><title>11</title>
<g id="a_node12"><a xlink:title="11, diversity: 2, multiplicities: 9,37, labels: 0">
<ellipse fill="#f7fcf5" stroke="black" cx="320.047" cy="-450" rx="41.6928" ry="18"/>
<text text-anchor="middle" x="320.047" y="-446.3" font-family="Times,serif" font-size="14.00">11 (2): 0</text>
</a>
</g>
</g>
<!-- 11&#45;&gt;9 -->
<g id="edge4" class="edge"><title>11&#45;&gt;9</title>
<path fill="none" stroke="black" d="M299.476,-434.155C285.399,-423.996 266.56,-410.401 251.109,-399.251"/>
<polygon fill="black" stroke="black" points="253.082,-396.359 242.925,-393.345 248.986,-402.035 253.082,-396.359"/>
</g>
<!-- 12 -->
<g id="node13" class="node"><title>12</title>
<g id="a_node13"><a xlink:title="12, diversity: 1, multiplicities: 5, labels: 0">
<ellipse fill="#f7fcf5" stroke="black" cx="320.047" cy="-378" rx="41.6928" ry="18"/>
<text text-anchor="middle" x="320.047" y="-374.3" font-family="Times,serif" font-size="14.00">12 (1): 0</text>
</a>
</g>
</g>
<!-- 11&#45;&gt;12 -->
<g id="edge3" class="edge"><title>11&#45;&gt;12</title>
<path fill="none" stroke="black" d="M320.047,-431.697C320.047,-423.983 320.047,-414.712 320.047,-406.112"/>
<polygon fill="black" stroke="black" points="323.547,-406.104 320.047,-396.104 316.547,-406.104 323.547,-406.104"/>
</g>
<!-- 13 -->
<g id="node14" class="node"><title>13</title>
<g id="a_node14"><a xlink:title="13, diversity: 1, multiplicities: 11, labels: 0">
<ellipse fill="#f7fcf5" stroke="black" cx="421.047" cy="-378" rx="41.6928" ry="18"/>
<text text-anchor="middle" x="421.047" y="-374.3" font-family="Times,serif" font-size="14.00">13 (1): 0</text>
</a>
</g>
</g>
<!-- 11&#45;&gt;13 -->
<g id="edge11" class="edge"><title>11&#45;&gt;13</title>
<path fill="none" stroke="black" d="M341.466,-434.155C356.026,-424.064 375.478,-410.583 391.505,-399.474"/>
<polygon fill="black" stroke="black" points="393.779,-402.157 400.004,-393.584 389.792,-396.403 393.779,-402.157"/>
</g>
</g>
</svg>
