<?xml version="1.0" encoding="UTF-8" standalone="no"?>
<!DOCTYPE svg PUBLIC "-//W3C//DTD SVG 1.1//EN"
 "http://www.w3.org/Graphics/SVG/1.1/DTD/svg11.dtd">
<!-- Generated by graphviz version 2.38.0 (20140413.2041)
 -->
<!-- Title: %3 Pages: 1 -->
<svg width="874pt" height="404pt"
 viewBox="0.00 0.00 874.19 404.00" xmlns="http://www.w3.org/2000/svg" xmlns:xlink="http://www.w3.org/1999/xlink">
<g id="graph0" class="graph" transform="scale(1 1) rotate(0) translate(4 400)">
<title>%3</title>
<polygon fill="white" stroke="none" points="-4,4 -4,-400 870.193,-400 870.193,4 -4,4"/>
<!-- 0 -->
<g id="node1" class="node"><title>0</title>
<g id="a_node1"><a xlink:title="0, diversity: 1, multiplicities: 19, labels: 0">
<ellipse fill="#f7fcf5" stroke="black" cx="190.596" cy="-306" rx="37.0935" ry="18"/>
<text text-anchor="middle" x="190.596" y="-302.3" font-family="Times,serif" font-size="14.00">0 (1): 0</text>
</a>
</g>
</g>
<!-- 2 -->
<g id="node3" class="node"><title>2</title>
<g id="a_node3"><a xlink:title="2, diversity: 2, multiplicities: 1,24, labels: 0">
<ellipse fill="#f7fcf5" stroke="black" cx="98.5963" cy="-234" rx="37.0935" ry="18"/>
<text text-anchor="middle" x="98.5963" y="-230.3" font-family="Times,serif" font-size="14.00">2 (2): 0</text>
</a>
</g>
</g>
<!-- 0&#45;&gt;2 -->
<g id="edge19" class="edge"><title>0&#45;&gt;2</title>
<path fill="none" stroke="black" d="M171.534,-290.496C158.335,-280.453 140.567,-266.934 125.873,-255.754"/>
<polygon fill="black" stroke="black" points="127.712,-252.755 117.634,-249.485 123.473,-258.326 127.712,-252.755"/>
</g>
<!-- 9 -->
<g id="node10" class="node"><title>9</title>
<g id="a_node10"><a xlink:title="9, diversity: 2, multiplicities: 7,19, labels: 0">
<ellipse fill="#f7fcf5" stroke="black" cx="190.596" cy="-234" rx="37.0935" ry="18"/>
<text text-anchor="middle" x="190.596" y="-230.3" font-family="Times,serif" font-size="14.00">9 (2): 0</text>
</a>
</g>
</g>
<!-- 0&#45;&gt;9 -->
<g id="edge15" class="edge"><title>0&#45;&gt;9</title>
<path fill="none" stroke="black" d="M190.596,-287.697C190.596,-279.983 190.596,-270.712 190.596,-262.112"/>
<polygon fill="black" stroke="black" points="194.096,-262.104 190.596,-252.104 187.096,-262.104 194.096,-262.104"/>
</g>
<!-- 1 -->
<g id="node2" class="node"><title>1</title>
<g id="a_node2"><a xlink:title="1, diversity: 2, multiplicities: 13,34, labels: 0">
<ellipse fill="#f7fcf5" stroke="black" cx="282.596" cy="-234" rx="37.0935" ry="18"/>
<text text-anchor="middle" x="282.596" y="-230.3" font-family="Times,serif" font-size="14.00">1 (2): 0</text>
</a>
</g>
</g>
<!-- 8 -->
<g id="node9" class="node"><title>8</title>
<g id="a_node9"><a xlink:title="8, diversity: 2, multiplicities: 7,11, labels: 0">
<ellipse fill="#f7fcf5" stroke="black" cx="282.596" cy="-162" rx="37.0935" ry="18"/>
<text text-anchor="middle" x="282.596" y="-158.3" font-family="Times,serif" font-size="14.00">8 (2): 0</text>
</a>
</g>
</g>
<!-- 1&#45;&gt;8 -->
<g id="edge11" class="edge"><title>1&#45;&gt;8</title>
<path fill="none" stroke="black" d="M282.596,-215.697C282.596,-207.983 282.596,-198.712 282.596,-190.112"/>
<polygon fill="black" stroke="black" points="286.096,-190.104 282.596,-180.104 279.096,-190.104 286.096,-190.104"/>
</g>
<!-- 10 -->
<g id="node11" class="node"><title>10</title>
<g id="a_node11"><a xlink:title="10, diversity: 2, multiplicities: 1,9, labels: 0">
<ellipse fill="#f7fcf5" stroke="black" cx="41.5963" cy="-162" rx="41.6928" ry="18"/>
<text text-anchor="middle" x="41.5963" y="-158.3" font-family="Times,serif" font-size="14.00">10 (2): 0</text>
</a>
</g>
</g>
<!-- 2&#45;&gt;10 -->
<g id="edge9" class="edge"><title>2&#45;&gt;10</title>
<path fill="none" stroke="black" d="M85.6621,-217.116C78.477,-208.292 69.3877,-197.13 61.333,-187.238"/>
<polygon fill="black" stroke="black" points="63.9032,-184.851 54.8749,-179.307 58.4751,-189.271 63.9032,-184.851"/>
</g>
<!-- 11 -->
<g id="node12" class="node"><title>11</title>
<g id="a_node12"><a xlink:title="11, diversity: 1, multiplicities: 13, labels: 0">
<ellipse fill="#f7fcf5" stroke="black" cx="142.596" cy="-162" rx="41.6928" ry="18"/>
<text text-anchor="middle" x="142.596" y="-158.3" font-family="Times,serif" font-size="14.00">11 (1): 0</text>
</a>
</g>
</g>
<!-- 2&#45;&gt;11 -->
<g id="edge6" class="edge"><title>2&#45;&gt;11</title>
<path fill="none" stroke="black" d="M109.024,-216.411C114.339,-207.955 120.914,-197.494 126.833,-188.078"/>
<polygon fill="black" stroke="black" points="129.885,-189.799 132.244,-179.47 123.959,-186.074 129.885,-189.799"/>
</g>
<!-- 3 -->
<g id="node4" class="node"><title>3</title>
<g id="a_node4"><a xlink:title="3, diversity: 1, multiplicities: 7, labels: 0">
<ellipse fill="#f7fcf5" stroke="black" cx="471.596" cy="-90" rx="37.0935" ry="18"/>
<text text-anchor="middle" x="471.596" y="-86.3" font-family="Times,serif" font-size="14.00">3 (1): 0</text>
</a>
</g>
</g>
<!-- 4 -->
<g id="node5" class="node"><title>4</title>
<g id="a_node5"><a xlink:title="4, diversity: 2, multiplicities: 11,16, labels: 0">
<ellipse fill="#f7fcf5" stroke="black" cx="471.596" cy="-306" rx="37.0935" ry="18"/>
<text text-anchor="middle" x="471.596" y="-302.3" font-family="Times,serif" font-size="14.00">4 (2): 0</text>
</a>
</g>
</g>
<!-- 4&#45;&gt;1 -->
<g id="edge18" class="edge"><title>4&#45;&gt;1</title>
<path fill="none" stroke="black" d="M442.891,-294.369C410.326,-282.307 357.067,-262.582 320.959,-249.208"/>
<polygon fill="black" stroke="black" points="321.854,-245.808 311.261,-245.617 319.423,-252.372 321.854,-245.808"/>
</g>
<!-- 7 -->
<g id="node8" class="node"><title>7</title>
<g id="a_node8"><a xlink:title="7, diversity: 1, multiplicities: 14, labels: 0">
<ellipse fill="#f7fcf5" stroke="black" cx="374.596" cy="-234" rx="37.0935" ry="18"/>
<text text-anchor="middle" x="374.596" y="-230.3" font-family="Times,serif" font-size="14.00">7 (1): 0</text>
</a>
</g>
</g>
<!-- 4&#45;&gt;7 -->
<g id="edge2" class="edge"><title>4&#45;&gt;7</title>
<path fill="none" stroke="black" d="M451.498,-290.496C437.358,-280.292 418.245,-266.499 402.611,-255.217"/>
<polygon fill="black" stroke="black" points="404.494,-252.26 394.337,-249.246 400.398,-257.936 404.494,-252.26"/>
</g>
<!-- 12 -->
<g id="node13" class="node"><title>12</title>
<g id="a_node13"><a xlink:title="12, diversity: 1, multiplicities: 1, labels: 0">
<ellipse fill="#f7fcf5" stroke="black" cx="471.596" cy="-234" rx="41.6928" ry="18"/>
<text text-anchor="middle" x="471.596" y="-230.3" font-family="Times,serif" font-size="14.00">12 (1): 0</text>
</a>
</g>
</g>
<!-- 4&#45;&gt;12 -->
<g id="edge12" class="edge"><title>4&#45;&gt;12</title>
<path fill="none" stroke="black" d="M471.596,-287.697C471.596,-279.983 471.596,-270.712 471.596,-262.112"/>
<polygon fill="black" stroke="black" points="475.096,-262.104 471.596,-252.104 468.096,-262.104 475.096,-262.104"/>
</g>
<!-- 13 -->
<g id="node14" class="node"><title>13</title>
<g id="a_node14"><a xlink:title="13, diversity: 1, multiplicities: 6, labels: 0">
<ellipse fill="#f7fcf5" stroke="black" cx="572.596" cy="-234" rx="41.6928" ry="18"/>
<text text-anchor="middle" x="572.596" y="-230.3" font-family="Times,serif" font-size="14.00">13 (1): 0</text>
</a>
</g>
</g>
<!-- 4&#45;&gt;13 -->
<g id="edge10" class="edge"><title>4&#45;&gt;13</title>
<path fill="none" stroke="black" d="M492.035,-290.834C506.626,-280.722 526.48,-266.962 542.827,-255.632"/>
<polygon fill="black" stroke="black" points="545.267,-258.199 551.493,-249.626 541.28,-252.446 545.267,-258.199"/>
</g>
<!-- 15 -->
<g id="node16" class="node"><title>15</title>
<g id="a_node16"><a xlink:title="15, diversity: 2, multiplicities: 6,6, labels: 0">
<ellipse fill="#f7fcf5" stroke="black" cx="673.596" cy="-234" rx="41.6928" ry="18"/>
<text text-anchor="middle" x="673.596" y="-230.3" font-family="Times,serif" font-size="14.00">15 (2): 0</text>
</a>
</g>
</g>
<!-- 4&#45;&gt;15 -->
<g id="edge5" class="edge"><title>4&#45;&gt;15</title>
<path fill="none" stroke="black" d="M500.969,-294.821C535.669,-282.796 593.61,-262.718 632.69,-249.176"/>
<polygon fill="black" stroke="black" points="633.89,-252.464 642.193,-245.882 631.598,-245.85 633.89,-252.464"/>
</g>
<!-- 18 -->
<g id="node19" class="node"><title>18</title>
<g id="a_node19"><a xlink:title="18, diversity: 1, multiplicities: 29, labels: 0">
<ellipse fill="#f7fcf5" stroke="black" cx="774.596" cy="-234" rx="41.6928" ry="18"/>
<text text-anchor="middle" x="774.596" y="-230.3" font-family="Times,serif" font-size="14.00">18 (1): 0</text>
</a>
</g>
</g>
<!-- 4&#45;&gt;18 -->
<g id="edge4" class="edge"><title>4&#45;&gt;18</title>
<path fill="none" stroke="black" d="M506.287,-299.11C555.33,-290.472 647.548,-273.085 724.596,-252 727.595,-251.179 730.676,-250.278 733.766,-249.332"/>
<polygon fill="black" stroke="black" points="735.11,-252.576 743.571,-246.199 732.98,-245.908 735.11,-252.576"/>
</g>
<!-- 5 -->
<g id="node6" class="node"><title>5</title>
<g id="a_node6"><a xlink:title="5, diversity: 1, multiplicities: 16, labels: 0">
<ellipse fill="#f7fcf5" stroke="black" cx="330.596" cy="-378" rx="37.0935" ry="18"/>
<text text-anchor="middle" x="330.596" y="-374.3" font-family="Times,serif" font-size="14.00">5 (1): 0</text>
</a>
</g>
</g>
<!-- 5&#45;&gt;0 -->
<g id="edge14" class="edge"><title>5&#45;&gt;0</title>
<path fill="none" stroke="black" d="M305.567,-364.485C282.971,-353.187 249.533,-336.469 224.536,-323.97"/>
<polygon fill="black" stroke="black" points="225.918,-320.748 215.409,-319.406 222.788,-327.009 225.918,-320.748"/>
</g>
<!-- 5&#45;&gt;4 -->
<g id="edge7" class="edge"><title>5&#45;&gt;4</title>
<path fill="none" stroke="black" d="M355.48,-364.647C378.193,-353.37 411.977,-336.598 437.256,-324.048"/>
<polygon fill="black" stroke="black" points="439.087,-327.047 446.487,-319.465 435.974,-320.777 439.087,-327.047"/>
</g>
<!-- 6 -->
<g id="node7" class="node"><title>6</title>
<g id="a_node7"><a xlink:title="6, diversity: 2, multiplicities: 11,20, labels: 0">
<ellipse fill="#f7fcf5" stroke="black" cx="471.596" cy="-162" rx="37.0935" ry="18"/>
<text text-anchor="middle" x="471.596" y="-158.3" font-family="Times,serif" font-size="14.00">6 (2): 0</text>
</a>
</g>
</g>
<!-- 6&#45;&gt;3 -->
<g id="edge1" class="edge"><title>6&#45;&gt;3</title>
<path fill="none" stroke="black" d="M471.596,-143.697C471.596,-135.983 471.596,-126.712 471.596,-118.112"/>
<polygon fill="black" stroke="black" points="475.096,-118.104 471.596,-108.104 468.096,-118.104 475.096,-118.104"/>
</g>
<!-- 12&#45;&gt;6 -->
<g id="edge3" class="edge"><title>12&#45;&gt;6</title>
<path fill="none" stroke="black" d="M471.596,-215.697C471.596,-207.983 471.596,-198.712 471.596,-190.112"/>
<polygon fill="black" stroke="black" points="475.096,-190.104 471.596,-180.104 468.096,-190.104 475.096,-190.104"/>
</g>
<!-- 20 -->
<g id="node21" class="node"><title>20</title>
<g id="a_node21"><a xlink:title="20, diversity: 1, multiplicities: 22, labels: 0">
<ellipse fill="#f7fcf5" stroke="black" cx="572.596" cy="-162" rx="41.6928" ry="18"/>
<text text-anchor="middle" x="572.596" y="-158.3" font-family="Times,serif" font-size="14.00">20 (1): 0</text>
</a>
</g>
</g>
<!-- 13&#45;&gt;20 -->
<g id="edge17" class="edge"><title>13&#45;&gt;20</title>
<path fill="none" stroke="black" d="M572.596,-215.697C572.596,-207.983 572.596,-198.712 572.596,-190.112"/>
<polygon fill="black" stroke="black" points="576.096,-190.104 572.596,-180.104 569.096,-190.104 576.096,-190.104"/>
</g>
<!-- 14 -->
<g id="node15" class="node"><title>14</title>
<g id="a_node15"><a xlink:title="14, diversity: 1, multiplicities: 39, labels: 0">
<ellipse fill="#f7fcf5" stroke="black" cx="723.596" cy="-18" rx="41.6928" ry="18"/>
<text text-anchor="middle" x="723.596" y="-14.3" font-family="Times,serif" font-size="14.00">14 (1): 0</text>
</a>
</g>
</g>
<!-- 16 -->
<g id="node17" class="node"><title>16</title>
<g id="a_node17"><a xlink:title="16, diversity: 1, multiplicities: 3, labels: 0">
<ellipse fill="#f7fcf5" stroke="black" cx="723.596" cy="-90" rx="41.6928" ry="18"/>
<text text-anchor="middle" x="723.596" y="-86.3" font-family="Times,serif" font-size="14.00">16 (1): 0</text>
</a>
</g>
</g>
<!-- 16&#45;&gt;14 -->
<g id="edge16" class="edge"><title>16&#45;&gt;14</title>
<path fill="none" stroke="black" d="M723.596,-71.6966C723.596,-63.9827 723.596,-54.7125 723.596,-46.1124"/>
<polygon fill="black" stroke="black" points="727.096,-46.1043 723.596,-36.1043 720.096,-46.1044 727.096,-46.1043"/>
</g>
<!-- 17 -->
<g id="node18" class="node"><title>17</title>
<g id="a_node18"><a xlink:title="17, diversity: 1, multiplicities: 1, labels: 0">
<ellipse fill="#f7fcf5" stroke="black" cx="723.596" cy="-162" rx="41.6928" ry="18"/>
<text text-anchor="middle" x="723.596" y="-158.3" font-family="Times,serif" font-size="14.00">17 (1): 0</text>
</a>
</g>
</g>
<!-- 17&#45;&gt;16 -->
<g id="edge20" class="edge"><title>17&#45;&gt;16</title>
<path fill="none" stroke="black" d="M723.596,-143.697C723.596,-135.983 723.596,-126.712 723.596,-118.112"/>
<polygon fill="black" stroke="black" points="727.096,-118.104 723.596,-108.104 720.096,-118.104 727.096,-118.104"/>
</g>
<!-- 18&#45;&gt;17 -->
<g id="edge8" class="edge"><title>18&#45;&gt;17</title>
<path fill="none" stroke="black" d="M762.51,-216.411C756.286,-207.868 748.571,-197.278 741.656,-187.787"/>
<polygon fill="black" stroke="black" points="744.313,-185.491 735.596,-179.47 738.656,-189.613 744.313,-185.491"/>
</g>
<!-- 19 -->
<g id="node20" class="node"><title>19</title>
<g id="a_node20"><a xlink:title="19, diversity: 1, multiplicities: 21, labels: 0">
<ellipse fill="#f7fcf5" stroke="black" cx="824.596" cy="-162" rx="41.6928" ry="18"/>
<text text-anchor="middle" x="824.596" y="-158.3" font-family="Times,serif" font-size="14.00">19 (1): 0</text>
</a>
</g>
</g>
<!-- 18&#45;&gt;19 -->
<g id="edge13" class="edge"><title>18&#45;&gt;19</title>
<path fill="none" stroke="black" d="M786.446,-216.411C792.548,-207.868 800.112,-197.278 806.891,-187.787"/>
<polygon fill="black" stroke="black" points="809.868,-189.642 812.832,-179.47 804.172,-185.573 809.868,-189.642"/>
</g>
</g>
</svg>
