<?xml version="1.0" encoding="UTF-8" standalone="no"?>
<!DOCTYPE svg PUBLIC "-//W3C//DTD SVG 1.1//EN"
 "http://www.w3.org/Graphics/SVG/1.1/DTD/svg11.dtd">
<!-- Generated by graphviz version 2.40.1 (20161225.0304)
 -->
<!-- Title: %3 Pages: 1 -->
<svg width="314pt" height="2204pt"
 viewBox="0.00 0.00 314.00 2204.00" xmlns="http://www.w3.org/2000/svg" xmlns:xlink="http://www.w3.org/1999/xlink">
<g id="graph0" class="graph" transform="scale(1 1) rotate(0) translate(4 2200)">
<title>%3</title>
<polygon fill="#ffffff" stroke="transparent" points="-4,4 -4,-2200 310,-2200 310,4 -4,4"/>
<!-- 0 -->
<g id="node1" class="node">
<title>0</title>
<g id="a_node1"><a xlink:title="G">
<ellipse fill="#008cff" stroke="#000000" stroke-width="0" cx="288" cy="-810" rx="18" ry="18"/>
</a>
</g>
</g>
<!-- 7 -->
<g id="node8" class="node">
<title>7</title>
<g id="a_node8"><a xlink:title="G">
<ellipse fill="#008cff" stroke="#000000" stroke-width="0" cx="288" cy="-738" rx="18" ry="18"/>
</a>
</g>
</g>
<!-- 0&#45;&gt;7 -->
<g id="edge12" class="edge">
<title>0&#45;&gt;7</title>
<path fill="none" stroke="#000000" d="M288,-791.8314C288,-784.131 288,-774.9743 288,-766.4166"/>
<polygon fill="#000000" stroke="#000000" points="291.5001,-766.4132 288,-756.4133 284.5001,-766.4133 291.5001,-766.4132"/>
</g>
<!-- 1 -->
<g id="node2" class="node">
<title>1</title>
<g id="a_node2"><a xlink:title="G">
<ellipse fill="#008cff" stroke="#000000" stroke-width="0" cx="288" cy="-954" rx="18" ry="18"/>
</a>
</g>
</g>
<!-- 5 -->
<g id="node6" class="node">
<title>5</title>
<g id="a_node6"><a xlink:title="G">
<ellipse fill="#008cff" stroke="#000000" stroke-width="0" cx="288" cy="-882" rx="18" ry="18"/>
</a>
</g>
</g>
<!-- 1&#45;&gt;5 -->
<g id="edge22" class="edge">
<title>1&#45;&gt;5</title>
<path fill="none" stroke="#000000" d="M288,-935.8314C288,-928.131 288,-918.9743 288,-910.4166"/>
<polygon fill="#000000" stroke="#000000" points="291.5001,-910.4132 288,-900.4133 284.5001,-910.4133 291.5001,-910.4132"/>
</g>
<!-- 2 -->
<g id="node3" class="node">
<title>2</title>
<g id="a_node3"><a xlink:title="A">
<ellipse fill="#000080" stroke="#000000" stroke-width="0" cx="288" cy="-1026" rx="18" ry="18"/>
</a>
</g>
</g>
<!-- 2&#45;&gt;1 -->
<g id="edge37" class="edge">
<title>2&#45;&gt;1</title>
<path fill="none" stroke="#000000" d="M288,-1007.8314C288,-1000.131 288,-990.9743 288,-982.4166"/>
<polygon fill="#000000" stroke="#000000" points="291.5001,-982.4132 288,-972.4133 284.5001,-982.4133 291.5001,-982.4132"/>
</g>
<!-- 3 -->
<g id="node4" class="node">
<title>3</title>
<g id="a_node4"><a xlink:title="G">
<ellipse fill="#008cff" stroke="#000000" stroke-width="0" cx="288" cy="-450" rx="18" ry="18"/>
</a>
</g>
</g>
<!-- 12 -->
<g id="node13" class="node">
<title>12</title>
<g id="a_node13"><a xlink:title="G">
<ellipse fill="#008cff" stroke="#000000" stroke-width="0" cx="288" cy="-378" rx="18" ry="18"/>
</a>
</g>
</g>
<!-- 3&#45;&gt;12 -->
<g id="edge46" class="edge">
<title>3&#45;&gt;12</title>
<path fill="none" stroke="#000000" d="M288,-431.8314C288,-424.131 288,-414.9743 288,-406.4166"/>
<polygon fill="#000000" stroke="#000000" points="291.5001,-406.4132 288,-396.4133 284.5001,-406.4133 291.5001,-406.4132"/>
</g>
<!-- 4 -->
<g id="node5" class="node">
<title>4</title>
<g id="a_node5"><a xlink:title="G">
<ellipse fill="#008cff" stroke="#000000" stroke-width="0" cx="288" cy="-18" rx="18" ry="18"/>
</a>
</g>
</g>
<!-- 5&#45;&gt;0 -->
<g id="edge24" class="edge">
<title>5&#45;&gt;0</title>
<path fill="none" stroke="#000000" d="M288,-863.8314C288,-856.131 288,-846.9743 288,-838.4166"/>
<polygon fill="#000000" stroke="#000000" points="291.5001,-838.4132 288,-828.4133 284.5001,-838.4133 291.5001,-838.4132"/>
</g>
<!-- 6 -->
<g id="node7" class="node">
<title>6</title>
<g id="a_node7"><a xlink:title="G">
<ellipse fill="#008cff" stroke="#000000" stroke-width="0" cx="288" cy="-666" rx="18" ry="18"/>
</a>
</g>
</g>
<!-- 11 -->
<g id="node12" class="node">
<title>11</title>
<g id="a_node12"><a xlink:title="A">
<ellipse fill="#000080" stroke="#000000" stroke-width="0" cx="288" cy="-594" rx="18" ry="18"/>
</a>
</g>
</g>
<!-- 6&#45;&gt;11 -->
<g id="edge33" class="edge">
<title>6&#45;&gt;11</title>
<path fill="none" stroke="#000000" d="M288,-647.8314C288,-640.131 288,-630.9743 288,-622.4166"/>
<polygon fill="#000000" stroke="#000000" points="291.5001,-622.4132 288,-612.4133 284.5001,-622.4133 291.5001,-622.4132"/>
</g>
<!-- 7&#45;&gt;6 -->
<g id="edge18" class="edge">
<title>7&#45;&gt;6</title>
<path fill="none" stroke="#000000" d="M288,-719.8314C288,-712.131 288,-702.9743 288,-694.4166"/>
<polygon fill="#000000" stroke="#000000" points="291.5001,-694.4132 288,-684.4133 284.5001,-694.4133 291.5001,-694.4132"/>
</g>
<!-- 8 -->
<g id="node9" class="node">
<title>8</title>
<g id="a_node9"><a xlink:title="G">
<ellipse fill="#008cff" stroke="#000000" stroke-width="0" cx="288" cy="-90" rx="18" ry="18"/>
</a>
</g>
</g>
<!-- 8&#45;&gt;4 -->
<g id="edge62" class="edge">
<title>8&#45;&gt;4</title>
<path fill="none" stroke="#000000" d="M288,-71.8314C288,-64.131 288,-54.9743 288,-46.4166"/>
<polygon fill="#000000" stroke="#000000" points="291.5001,-46.4132 288,-36.4133 284.5001,-46.4133 291.5001,-46.4132"/>
</g>
<!-- 9 -->
<g id="node10" class="node">
<title>9</title>
<g id="a_node10"><a xlink:title="G">
<ellipse fill="#008cff" stroke="#000000" stroke-width="0" cx="288" cy="-306" rx="18" ry="18"/>
</a>
</g>
</g>
<!-- 14 -->
<g id="node15" class="node">
<title>14</title>
<g id="a_node15"><a xlink:title="G">
<ellipse fill="#008cff" stroke="#000000" stroke-width="0" cx="288" cy="-234" rx="18" ry="18"/>
</a>
</g>
</g>
<!-- 9&#45;&gt;14 -->
<g id="edge29" class="edge">
<title>9&#45;&gt;14</title>
<path fill="none" stroke="#000000" d="M288,-287.8314C288,-280.131 288,-270.9743 288,-262.4166"/>
<polygon fill="#000000" stroke="#000000" points="291.5001,-262.4132 288,-252.4133 284.5001,-262.4133 291.5001,-262.4132"/>
</g>
<!-- 10 -->
<g id="node11" class="node">
<title>10</title>
<g id="a_node11"><a xlink:title="G">
<ellipse fill="#008cff" stroke="#000000" stroke-width="0" cx="288" cy="-522" rx="18" ry="18"/>
</a>
</g>
</g>
<!-- 10&#45;&gt;3 -->
<g id="edge13" class="edge">
<title>10&#45;&gt;3</title>
<path fill="none" stroke="#000000" d="M288,-503.8314C288,-496.131 288,-486.9743 288,-478.4166"/>
<polygon fill="#000000" stroke="#000000" points="291.5001,-478.4132 288,-468.4133 284.5001,-478.4133 291.5001,-478.4132"/>
</g>
<!-- 11&#45;&gt;10 -->
<g id="edge34" class="edge">
<title>11&#45;&gt;10</title>
<path fill="none" stroke="#000000" d="M288,-575.8314C288,-568.131 288,-558.9743 288,-550.4166"/>
<polygon fill="#000000" stroke="#000000" points="291.5001,-550.4132 288,-540.4133 284.5001,-550.4133 291.5001,-550.4132"/>
</g>
<!-- 12&#45;&gt;9 -->
<g id="edge11" class="edge">
<title>12&#45;&gt;9</title>
<path fill="none" stroke="#000000" d="M288,-359.8314C288,-352.131 288,-342.9743 288,-334.4166"/>
<polygon fill="#000000" stroke="#000000" points="291.5001,-334.4132 288,-324.4133 284.5001,-334.4133 291.5001,-334.4132"/>
</g>
<!-- 13 -->
<g id="node14" class="node">
<title>13</title>
<g id="a_node14"><a xlink:title="G">
<ellipse fill="#008cff" stroke="#000000" stroke-width="0" cx="288" cy="-162" rx="18" ry="18"/>
</a>
</g>
</g>
<!-- 13&#45;&gt;8 -->
<g id="edge8" class="edge">
<title>13&#45;&gt;8</title>
<path fill="none" stroke="#000000" d="M288,-143.8314C288,-136.131 288,-126.9743 288,-118.4166"/>
<polygon fill="#000000" stroke="#000000" points="291.5001,-118.4132 288,-108.4133 284.5001,-118.4133 291.5001,-118.4132"/>
</g>
<!-- 14&#45;&gt;13 -->
<g id="edge38" class="edge">
<title>14&#45;&gt;13</title>
<path fill="none" stroke="#000000" d="M288,-215.8314C288,-208.131 288,-198.9743 288,-190.4166"/>
<polygon fill="#000000" stroke="#000000" points="291.5001,-190.4132 288,-180.4133 284.5001,-190.4133 291.5001,-190.4132"/>
</g>
<!-- 15 -->
<g id="node16" class="node">
<title>15</title>
<g id="a_node16"><a xlink:title="A">
<ellipse fill="#000080" stroke="#000000" stroke-width="0" cx="281" cy="-1098" rx="18" ry="18"/>
</a>
</g>
</g>
<!-- 15&#45;&gt;2 -->
<g id="edge48" class="edge">
<title>15&#45;&gt;2</title>
<path fill="none" stroke="#000000" d="M282.7664,-1079.8314C283.515,-1072.131 284.4053,-1062.9743 285.2373,-1054.4166"/>
<polygon fill="#000000" stroke="#000000" points="288.7256,-1054.7051 286.2098,-1044.4133 281.7585,-1054.0276 288.7256,-1054.7051"/>
</g>
<!-- 16 -->
<g id="node17" class="node">
<title>16</title>
<g id="a_node17"><a xlink:title="A">
<ellipse fill="#000080" stroke="#000000" stroke-width="0" cx="180" cy="-1890" rx="18" ry="18"/>
</a>
</g>
</g>
<!-- 25 -->
<g id="node26" class="node">
<title>25</title>
<g id="a_node26"><a xlink:title="A">
<ellipse fill="#000080" stroke="#000000" stroke-width="0" cx="153" cy="-1818" rx="18" ry="18"/>
</a>
</g>
</g>
<!-- 16&#45;&gt;25 -->
<g id="edge25" class="edge">
<title>16&#45;&gt;25</title>
<path fill="none" stroke="#000000" d="M173.6014,-1872.937C170.407,-1864.4186 166.471,-1853.9227 162.8982,-1844.3952"/>
<polygon fill="#000000" stroke="#000000" points="166.1411,-1843.0749 159.3527,-1834.9405 159.5868,-1845.5328 166.1411,-1843.0749"/>
</g>
<!-- 62 -->
<g id="node63" class="node">
<title>62</title>
<g id="a_node63"><a xlink:title="A">
<ellipse fill="#000080" stroke="#000000" stroke-width="0" cx="207" cy="-1818" rx="18" ry="18"/>
</a>
</g>
</g>
<!-- 16&#45;&gt;62 -->
<g id="edge44" class="edge">
<title>16&#45;&gt;62</title>
<path fill="none" stroke="#000000" d="M186.3986,-1872.937C189.593,-1864.4186 193.529,-1853.9227 197.1018,-1844.3952"/>
<polygon fill="#000000" stroke="#000000" points="200.4132,-1845.5328 200.6473,-1834.9405 193.8589,-1843.0749 200.4132,-1845.5328"/>
</g>
<!-- 17 -->
<g id="node18" class="node">
<title>17</title>
<g id="a_node18"><a xlink:title="A">
<ellipse fill="#000080" stroke="#000000" stroke-width="0" cx="180" cy="-1962" rx="18" ry="18"/>
</a>
</g>
</g>
<!-- 17&#45;&gt;16 -->
<g id="edge10" class="edge">
<title>17&#45;&gt;16</title>
<path fill="none" stroke="#000000" d="M180,-1943.8314C180,-1936.131 180,-1926.9743 180,-1918.4166"/>
<polygon fill="#000000" stroke="#000000" points="183.5001,-1918.4132 180,-1908.4133 176.5001,-1918.4133 183.5001,-1918.4132"/>
</g>
<!-- 18 -->
<g id="node19" class="node">
<title>18</title>
<g id="a_node19"><a xlink:title="A">
<ellipse fill="#000080" stroke="#000000" stroke-width="0" cx="126" cy="-2034" rx="18" ry="18"/>
</a>
</g>
</g>
<!-- 29 -->
<g id="node30" class="node">
<title>29</title>
<g id="a_node30"><a xlink:title="A">
<ellipse fill="#000080" stroke="#000000" stroke-width="0" cx="126" cy="-1962" rx="18" ry="18"/>
</a>
</g>
</g>
<!-- 18&#45;&gt;29 -->
<g id="edge53" class="edge">
<title>18&#45;&gt;29</title>
<path fill="none" stroke="#000000" d="M126,-2015.8314C126,-2008.131 126,-1998.9743 126,-1990.4166"/>
<polygon fill="#000000" stroke="#000000" points="129.5001,-1990.4132 126,-1980.4133 122.5001,-1990.4133 129.5001,-1990.4132"/>
</g>
<!-- 19 -->
<g id="node20" class="node">
<title>19</title>
<g id="a_node20"><a xlink:title="A">
<ellipse fill="#000080" stroke="#000000" stroke-width="0" cx="153" cy="-1674" rx="18" ry="18"/>
</a>
</g>
</g>
<!-- 20 -->
<g id="node21" class="node">
<title>20</title>
<g id="a_node21"><a xlink:title="A">
<ellipse fill="#000080" stroke="#000000" stroke-width="0" cx="99" cy="-2106" rx="18" ry="18"/>
</a>
</g>
</g>
<!-- 23 -->
<g id="node24" class="node">
<title>23</title>
<g id="a_node24"><a xlink:title="A">
<ellipse fill="#000080" stroke="#000000" stroke-width="0" cx="72" cy="-2034" rx="18" ry="18"/>
</a>
</g>
</g>
<!-- 20&#45;&gt;23 -->
<g id="edge45" class="edge">
<title>20&#45;&gt;23</title>
<path fill="none" stroke="#000000" d="M92.6014,-2088.937C89.407,-2080.4186 85.471,-2069.9227 81.8982,-2060.3952"/>
<polygon fill="#000000" stroke="#000000" points="85.1411,-2059.0749 78.3527,-2050.9405 78.5868,-2061.5328 85.1411,-2059.0749"/>
</g>
<!-- 21 -->
<g id="node22" class="node">
<title>21</title>
<g id="a_node22"><a xlink:title="A">
<ellipse fill="#000080" stroke="#000000" stroke-width="0" cx="166" cy="-2106" rx="18" ry="18"/>
</a>
</g>
</g>
<!-- 21&#45;&gt;18 -->
<g id="edge40" class="edge">
<title>21&#45;&gt;18</title>
<path fill="none" stroke="#000000" d="M157.1227,-2090.0209C152.0476,-2080.8857 145.5715,-2069.2286 139.8423,-2058.9162"/>
<polygon fill="#000000" stroke="#000000" points="142.7685,-2056.9763 134.8525,-2049.9345 136.6494,-2060.3758 142.7685,-2056.9763"/>
</g>
<!-- 24 -->
<g id="node25" class="node">
<title>24</title>
<g id="a_node25"><a xlink:title="A">
<ellipse fill="#000080" stroke="#000000" stroke-width="0" cx="180" cy="-2034" rx="18" ry="18"/>
</a>
</g>
</g>
<!-- 21&#45;&gt;24 -->
<g id="edge61" class="edge">
<title>21&#45;&gt;24</title>
<path fill="none" stroke="#000000" d="M169.4607,-2088.2022C171.0088,-2080.2406 172.8703,-2070.6671 174.5953,-2061.7957"/>
<polygon fill="#000000" stroke="#000000" points="178.0575,-2062.3268 176.5306,-2051.8425 171.1862,-2060.9906 178.0575,-2062.3268"/>
</g>
<!-- 27 -->
<g id="node28" class="node">
<title>27</title>
<g id="a_node28"><a xlink:title="A">
<ellipse fill="#000080" stroke="#000000" stroke-width="0" cx="234" cy="-2034" rx="18" ry="18"/>
</a>
</g>
</g>
<!-- 21&#45;&gt;27 -->
<g id="edge16" class="edge">
<title>21&#45;&gt;27</title>
<path fill="none" stroke="#000000" d="M178.4722,-2092.7941C188.537,-2082.1373 202.8773,-2066.9535 214.4634,-2054.6858"/>
<polygon fill="#000000" stroke="#000000" points="217.2851,-2056.7955 221.6068,-2047.1222 212.196,-2051.9892 217.2851,-2056.7955"/>
</g>
<!-- 22 -->
<g id="node23" class="node">
<title>22</title>
<g id="a_node23"><a xlink:title="A">
<ellipse fill="#000080" stroke="#000000" stroke-width="0" cx="72" cy="-1962" rx="18" ry="18"/>
</a>
</g>
</g>
<!-- 47 -->
<g id="node48" class="node">
<title>47</title>
<g id="a_node48"><a xlink:title="A">
<ellipse fill="#000080" stroke="#000000" stroke-width="0" cx="72" cy="-1890" rx="18" ry="18"/>
</a>
</g>
</g>
<!-- 22&#45;&gt;47 -->
<g id="edge50" class="edge">
<title>22&#45;&gt;47</title>
<path fill="none" stroke="#000000" d="M72,-1943.8314C72,-1936.131 72,-1926.9743 72,-1918.4166"/>
<polygon fill="#000000" stroke="#000000" points="75.5001,-1918.4132 72,-1908.4133 68.5001,-1918.4133 75.5001,-1918.4132"/>
</g>
<!-- 23&#45;&gt;22 -->
<g id="edge4" class="edge">
<title>23&#45;&gt;22</title>
<path fill="none" stroke="#000000" d="M72,-2015.8314C72,-2008.131 72,-1998.9743 72,-1990.4166"/>
<polygon fill="#000000" stroke="#000000" points="75.5001,-1990.4132 72,-1980.4133 68.5001,-1990.4133 75.5001,-1990.4132"/>
</g>
<!-- 24&#45;&gt;17 -->
<g id="edge3" class="edge">
<title>24&#45;&gt;17</title>
<path fill="none" stroke="#000000" d="M180,-2015.8314C180,-2008.131 180,-1998.9743 180,-1990.4166"/>
<polygon fill="#000000" stroke="#000000" points="183.5001,-1990.4132 180,-1980.4133 176.5001,-1990.4133 183.5001,-1990.4132"/>
</g>
<!-- 30 -->
<g id="node31" class="node">
<title>30</title>
<g id="a_node31"><a xlink:title="A">
<ellipse fill="#000080" stroke="#000000" stroke-width="0" cx="153" cy="-1746" rx="18" ry="18"/>
</a>
</g>
</g>
<!-- 25&#45;&gt;30 -->
<g id="edge14" class="edge">
<title>25&#45;&gt;30</title>
<path fill="none" stroke="#000000" d="M153,-1799.8314C153,-1792.131 153,-1782.9743 153,-1774.4166"/>
<polygon fill="#000000" stroke="#000000" points="156.5001,-1774.4132 153,-1764.4133 149.5001,-1774.4133 156.5001,-1774.4132"/>
</g>
<!-- 26 -->
<g id="node27" class="node">
<title>26</title>
<g id="a_node27"><a xlink:title="A">
<ellipse fill="#000080" stroke="#000000" stroke-width="0" cx="126" cy="-2178" rx="18" ry="18"/>
</a>
</g>
</g>
<!-- 26&#45;&gt;20 -->
<g id="edge42" class="edge">
<title>26&#45;&gt;20</title>
<path fill="none" stroke="#000000" d="M119.6014,-2160.937C116.407,-2152.4186 112.471,-2141.9227 108.8982,-2132.3952"/>
<polygon fill="#000000" stroke="#000000" points="112.1411,-2131.0749 105.3527,-2122.9405 105.5868,-2133.5328 112.1411,-2131.0749"/>
</g>
<!-- 26&#45;&gt;21 -->
<g id="edge5" class="edge">
<title>26&#45;&gt;21</title>
<path fill="none" stroke="#000000" d="M134.8773,-2162.0209C139.9524,-2152.8857 146.4285,-2141.2286 152.1577,-2130.9162"/>
<polygon fill="#000000" stroke="#000000" points="155.3506,-2132.3758 157.1475,-2121.9345 149.2315,-2128.9763 155.3506,-2132.3758"/>
</g>
<!-- 28 -->
<g id="node29" class="node">
<title>28</title>
<g id="a_node29"><a xlink:title="A">
<ellipse fill="#000080" stroke="#000000" stroke-width="0" cx="126" cy="-1890" rx="18" ry="18"/>
</a>
</g>
</g>
<!-- 29&#45;&gt;28 -->
<g id="edge1" class="edge">
<title>29&#45;&gt;28</title>
<path fill="none" stroke="#000000" d="M126,-1943.8314C126,-1936.131 126,-1926.9743 126,-1918.4166"/>
<polygon fill="#000000" stroke="#000000" points="129.5001,-1918.4132 126,-1908.4133 122.5001,-1918.4133 129.5001,-1918.4132"/>
</g>
<!-- 30&#45;&gt;19 -->
<g id="edge54" class="edge">
<title>30&#45;&gt;19</title>
<path fill="none" stroke="#000000" d="M153,-1727.8314C153,-1720.131 153,-1710.9743 153,-1702.4166"/>
<polygon fill="#000000" stroke="#000000" points="156.5001,-1702.4132 153,-1692.4133 149.5001,-1702.4133 156.5001,-1702.4132"/>
</g>
<!-- 31 -->
<g id="node32" class="node">
<title>31</title>
<g id="a_node32"><a xlink:title="A">
<ellipse fill="#000080" stroke="#000000" stroke-width="0" cx="18" cy="-954" rx="18" ry="18"/>
</a>
</g>
</g>
<!-- 32 -->
<g id="node33" class="node">
<title>32</title>
<g id="a_node33"><a xlink:title="A">
<ellipse fill="#000080" stroke="#000000" stroke-width="0" cx="18" cy="-882" rx="18" ry="18"/>
</a>
</g>
</g>
<!-- 31&#45;&gt;32 -->
<g id="edge17" class="edge">
<title>31&#45;&gt;32</title>
<path fill="none" stroke="#000000" d="M18,-935.8314C18,-928.131 18,-918.9743 18,-910.4166"/>
<polygon fill="#000000" stroke="#000000" points="21.5001,-910.4132 18,-900.4133 14.5001,-910.4133 21.5001,-910.4132"/>
</g>
<!-- 33 -->
<g id="node34" class="node">
<title>33</title>
<g id="a_node34"><a xlink:title="A">
<ellipse fill="#000080" stroke="#000000" stroke-width="0" cx="240" cy="-1242" rx="18" ry="18"/>
</a>
</g>
</g>
<!-- 34 -->
<g id="node35" class="node">
<title>34</title>
<g id="a_node35"><a xlink:title="A">
<ellipse fill="#000080" stroke="#000000" stroke-width="0" cx="247" cy="-1170" rx="18" ry="18"/>
</a>
</g>
</g>
<!-- 33&#45;&gt;34 -->
<g id="edge43" class="edge">
<title>33&#45;&gt;34</title>
<path fill="none" stroke="#000000" d="M241.7664,-1223.8314C242.515,-1216.131 243.4053,-1206.9743 244.2373,-1198.4166"/>
<polygon fill="#000000" stroke="#000000" points="247.7256,-1198.7051 245.2098,-1188.4133 240.7585,-1198.0276 247.7256,-1198.7051"/>
</g>
<!-- 34&#45;&gt;15 -->
<g id="edge9" class="edge">
<title>34&#45;&gt;15</title>
<path fill="none" stroke="#000000" d="M254.7151,-1153.6621C258.8724,-1144.8584 264.0984,-1133.7917 268.7932,-1123.8497"/>
<polygon fill="#000000" stroke="#000000" points="271.9742,-1125.31 273.0795,-1114.7729 265.6445,-1122.3209 271.9742,-1125.31"/>
</g>
<!-- 35 -->
<g id="node36" class="node">
<title>35</title>
<g id="a_node36"><a xlink:title="A">
<ellipse fill="#000080" stroke="#000000" stroke-width="0" cx="58" cy="-1170" rx="18" ry="18"/>
</a>
</g>
</g>
<!-- 38 -->
<g id="node39" class="node">
<title>38</title>
<g id="a_node39"><a xlink:title="A">
<ellipse fill="#000080" stroke="#000000" stroke-width="0" cx="31" cy="-1098" rx="18" ry="18"/>
</a>
</g>
</g>
<!-- 35&#45;&gt;38 -->
<g id="edge55" class="edge">
<title>35&#45;&gt;38</title>
<path fill="none" stroke="#000000" d="M51.6014,-1152.937C48.407,-1144.4186 44.471,-1133.9227 40.8982,-1124.3952"/>
<polygon fill="#000000" stroke="#000000" points="44.1411,-1123.0749 37.3527,-1114.9405 37.5868,-1125.5328 44.1411,-1123.0749"/>
</g>
<!-- 36 -->
<g id="node37" class="node">
<title>36</title>
<g id="a_node37"><a xlink:title="A">
<ellipse fill="#000080" stroke="#000000" stroke-width="0" cx="237" cy="-1314" rx="18" ry="18"/>
</a>
</g>
</g>
<!-- 36&#45;&gt;33 -->
<g id="edge59" class="edge">
<title>36&#45;&gt;33</title>
<path fill="none" stroke="#000000" d="M237.757,-1295.8314C238.0779,-1288.131 238.4594,-1278.9743 238.816,-1270.4166"/>
<polygon fill="#000000" stroke="#000000" points="242.3133,-1270.5503 239.2328,-1260.4133 235.3194,-1270.2589 242.3133,-1270.5503"/>
</g>
<!-- 37 -->
<g id="node38" class="node">
<title>37</title>
<g id="a_node38"><a xlink:title="A">
<ellipse fill="#000080" stroke="#000000" stroke-width="0" cx="207" cy="-1674" rx="18" ry="18"/>
</a>
</g>
</g>
<!-- 39 -->
<g id="node40" class="node">
<title>39</title>
<g id="a_node40"><a xlink:title="A">
<ellipse fill="#000080" stroke="#000000" stroke-width="0" cx="207" cy="-1602" rx="18" ry="18"/>
</a>
</g>
</g>
<!-- 37&#45;&gt;39 -->
<g id="edge2" class="edge">
<title>37&#45;&gt;39</title>
<path fill="none" stroke="#000000" d="M207,-1655.8314C207,-1648.131 207,-1638.9743 207,-1630.4166"/>
<polygon fill="#000000" stroke="#000000" points="210.5001,-1630.4132 207,-1620.4133 203.5001,-1630.4133 210.5001,-1630.4132"/>
</g>
<!-- 40 -->
<g id="node41" class="node">
<title>40</title>
<g id="a_node41"><a xlink:title="A">
<ellipse fill="#000080" stroke="#000000" stroke-width="0" cx="18" cy="-1026" rx="18" ry="18"/>
</a>
</g>
</g>
<!-- 38&#45;&gt;40 -->
<g id="edge41" class="edge">
<title>38&#45;&gt;40</title>
<path fill="none" stroke="#000000" d="M27.7865,-1080.2022C26.349,-1072.2406 24.6205,-1062.6671 23.0187,-1053.7957"/>
<polygon fill="#000000" stroke="#000000" points="26.4428,-1053.0615 21.2216,-1043.8425 19.5542,-1054.3053 26.4428,-1053.0615"/>
</g>
<!-- 45 -->
<g id="node46" class="node">
<title>45</title>
<g id="a_node46"><a xlink:title="A">
<ellipse fill="#000080" stroke="#000000" stroke-width="0" cx="207" cy="-1530" rx="18" ry="18"/>
</a>
</g>
</g>
<!-- 39&#45;&gt;45 -->
<g id="edge19" class="edge">
<title>39&#45;&gt;45</title>
<path fill="none" stroke="#000000" d="M207,-1583.8314C207,-1576.131 207,-1566.9743 207,-1558.4166"/>
<polygon fill="#000000" stroke="#000000" points="210.5001,-1558.4132 207,-1548.4133 203.5001,-1558.4133 210.5001,-1558.4132"/>
</g>
<!-- 40&#45;&gt;31 -->
<g id="edge6" class="edge">
<title>40&#45;&gt;31</title>
<path fill="none" stroke="#000000" d="M18,-1007.8314C18,-1000.131 18,-990.9743 18,-982.4166"/>
<polygon fill="#000000" stroke="#000000" points="21.5001,-982.4132 18,-972.4133 14.5001,-982.4133 21.5001,-982.4132"/>
</g>
<!-- 41 -->
<g id="node42" class="node">
<title>41</title>
<g id="a_node42"><a xlink:title="A">
<ellipse fill="#000080" stroke="#000000" stroke-width="0" cx="180" cy="-1242" rx="18" ry="18"/>
</a>
</g>
</g>
<!-- 41&#45;&gt;35 -->
<g id="edge32" class="edge">
<title>41&#45;&gt;35</title>
<path fill="none" stroke="#000000" d="M164.0506,-1232.5873C143.2035,-1220.2841 106.4953,-1198.6202 82.2085,-1184.287"/>
<polygon fill="#000000" stroke="#000000" points="83.9585,-1181.2558 73.5675,-1179.1874 80.4007,-1187.2842 83.9585,-1181.2558"/>
</g>
<!-- 42 -->
<g id="node43" class="node">
<title>42</title>
<g id="a_node43"><a xlink:title="A">
<ellipse fill="#000080" stroke="#000000" stroke-width="0" cx="180" cy="-1170" rx="18" ry="18"/>
</a>
</g>
</g>
<!-- 41&#45;&gt;42 -->
<g id="edge35" class="edge">
<title>41&#45;&gt;42</title>
<path fill="none" stroke="#000000" d="M180,-1223.8314C180,-1216.131 180,-1206.9743 180,-1198.4166"/>
<polygon fill="#000000" stroke="#000000" points="183.5001,-1198.4132 180,-1188.4133 176.5001,-1198.4133 183.5001,-1198.4132"/>
</g>
<!-- 44 -->
<g id="node45" class="node">
<title>44</title>
<g id="a_node45"><a xlink:title="A">
<ellipse fill="#000080" stroke="#000000" stroke-width="0" cx="153" cy="-1098" rx="18" ry="18"/>
</a>
</g>
</g>
<!-- 42&#45;&gt;44 -->
<g id="edge20" class="edge">
<title>42&#45;&gt;44</title>
<path fill="none" stroke="#000000" d="M173.6014,-1152.937C170.407,-1144.4186 166.471,-1133.9227 162.8982,-1124.3952"/>
<polygon fill="#000000" stroke="#000000" points="166.1411,-1123.0749 159.3527,-1114.9405 159.5868,-1125.5328 166.1411,-1123.0749"/>
</g>
<!-- 59 -->
<g id="node60" class="node">
<title>59</title>
<g id="a_node60"><a xlink:title="A">
<ellipse fill="#000080" stroke="#000000" stroke-width="0" cx="220" cy="-1098" rx="18" ry="18"/>
</a>
</g>
</g>
<!-- 42&#45;&gt;59 -->
<g id="edge23" class="edge">
<title>42&#45;&gt;59</title>
<path fill="none" stroke="#000000" d="M188.8773,-1154.0209C193.9524,-1144.8857 200.4285,-1133.2286 206.1577,-1122.9162"/>
<polygon fill="#000000" stroke="#000000" points="209.3506,-1124.3758 211.1475,-1113.9345 203.2315,-1120.9763 209.3506,-1124.3758"/>
</g>
<!-- 43 -->
<g id="node44" class="node">
<title>43</title>
<g id="a_node44"><a xlink:title="A">
<ellipse fill="#000080" stroke="#000000" stroke-width="0" cx="126" cy="-954" rx="18" ry="18"/>
</a>
</g>
</g>
<!-- 50 -->
<g id="node51" class="node">
<title>50</title>
<g id="a_node51"><a xlink:title="A">
<ellipse fill="#000080" stroke="#000000" stroke-width="0" cx="72" cy="-1026" rx="18" ry="18"/>
</a>
</g>
</g>
<!-- 44&#45;&gt;50 -->
<g id="edge36" class="edge">
<title>44&#45;&gt;50</title>
<path fill="none" stroke="#000000" d="M139.2595,-1085.7862C126.6157,-1074.5473 107.6738,-1057.7101 93.1103,-1044.7647"/>
<polygon fill="#000000" stroke="#000000" points="95.337,-1042.0612 85.5376,-1038.0334 90.6865,-1047.2931 95.337,-1042.0612"/>
</g>
<!-- 55 -->
<g id="node56" class="node">
<title>55</title>
<g id="a_node56"><a xlink:title="A">
<ellipse fill="#000080" stroke="#000000" stroke-width="0" cx="126" cy="-1026" rx="18" ry="18"/>
</a>
</g>
</g>
<!-- 44&#45;&gt;55 -->
<g id="edge58" class="edge">
<title>44&#45;&gt;55</title>
<path fill="none" stroke="#000000" d="M146.6014,-1080.937C143.407,-1072.4186 139.471,-1061.9227 135.8982,-1052.3952"/>
<polygon fill="#000000" stroke="#000000" points="139.1411,-1051.0749 132.3527,-1042.9405 132.5868,-1053.5328 139.1411,-1051.0749"/>
</g>
<!-- 56 -->
<g id="node57" class="node">
<title>56</title>
<g id="a_node57"><a xlink:title="A">
<ellipse fill="#000080" stroke="#000000" stroke-width="0" cx="180" cy="-1026" rx="18" ry="18"/>
</a>
</g>
</g>
<!-- 44&#45;&gt;56 -->
<g id="edge21" class="edge">
<title>44&#45;&gt;56</title>
<path fill="none" stroke="#000000" d="M159.3986,-1080.937C162.593,-1072.4186 166.529,-1061.9227 170.1018,-1052.3952"/>
<polygon fill="#000000" stroke="#000000" points="173.4132,-1053.5328 173.6473,-1042.9405 166.8589,-1051.0749 173.4132,-1053.5328"/>
</g>
<!-- 60 -->
<g id="node61" class="node">
<title>60</title>
<g id="a_node61"><a xlink:title="A">
<ellipse fill="#000080" stroke="#000000" stroke-width="0" cx="207" cy="-1458" rx="18" ry="18"/>
</a>
</g>
</g>
<!-- 45&#45;&gt;60 -->
<g id="edge39" class="edge">
<title>45&#45;&gt;60</title>
<path fill="none" stroke="#000000" d="M207,-1511.8314C207,-1504.131 207,-1494.9743 207,-1486.4166"/>
<polygon fill="#000000" stroke="#000000" points="210.5001,-1486.4132 207,-1476.4133 203.5001,-1486.4133 210.5001,-1486.4132"/>
</g>
<!-- 46 -->
<g id="node47" class="node">
<title>46</title>
<g id="a_node47"><a xlink:title="A">
<ellipse fill="#000080" stroke="#000000" stroke-width="0" cx="180" cy="-1386" rx="18" ry="18"/>
</a>
</g>
</g>
<!-- 48 -->
<g id="node49" class="node">
<title>48</title>
<g id="a_node49"><a xlink:title="A">
<ellipse fill="#000080" stroke="#000000" stroke-width="0" cx="180" cy="-1314" rx="18" ry="18"/>
</a>
</g>
</g>
<!-- 46&#45;&gt;48 -->
<g id="edge15" class="edge">
<title>46&#45;&gt;48</title>
<path fill="none" stroke="#000000" d="M180,-1367.8314C180,-1360.131 180,-1350.9743 180,-1342.4166"/>
<polygon fill="#000000" stroke="#000000" points="183.5001,-1342.4132 180,-1332.4133 176.5001,-1342.4133 183.5001,-1342.4132"/>
</g>
<!-- 48&#45;&gt;41 -->
<g id="edge30" class="edge">
<title>48&#45;&gt;41</title>
<path fill="none" stroke="#000000" d="M180,-1295.8314C180,-1288.131 180,-1278.9743 180,-1270.4166"/>
<polygon fill="#000000" stroke="#000000" points="183.5001,-1270.4132 180,-1260.4133 176.5001,-1270.4133 183.5001,-1270.4132"/>
</g>
<!-- 49 -->
<g id="node50" class="node">
<title>49</title>
<g id="a_node50"><a xlink:title="A">
<ellipse fill="#000080" stroke="#000000" stroke-width="0" cx="72" cy="-882" rx="18" ry="18"/>
</a>
</g>
</g>
<!-- 54 -->
<g id="node55" class="node">
<title>54</title>
<g id="a_node55"><a xlink:title="A">
<ellipse fill="#000080" stroke="#000000" stroke-width="0" cx="72" cy="-954" rx="18" ry="18"/>
</a>
</g>
</g>
<!-- 50&#45;&gt;54 -->
<g id="edge28" class="edge">
<title>50&#45;&gt;54</title>
<path fill="none" stroke="#000000" d="M72,-1007.8314C72,-1000.131 72,-990.9743 72,-982.4166"/>
<polygon fill="#000000" stroke="#000000" points="75.5001,-982.4132 72,-972.4133 68.5001,-982.4133 75.5001,-982.4132"/>
</g>
<!-- 51 -->
<g id="node52" class="node">
<title>51</title>
<g id="a_node52"><a xlink:title="A">
<ellipse fill="#000080" stroke="#000000" stroke-width="0" cx="207" cy="-1746" rx="18" ry="18"/>
</a>
</g>
</g>
<!-- 51&#45;&gt;37 -->
<g id="edge52" class="edge">
<title>51&#45;&gt;37</title>
<path fill="none" stroke="#000000" d="M207,-1727.8314C207,-1720.131 207,-1710.9743 207,-1702.4166"/>
<polygon fill="#000000" stroke="#000000" points="210.5001,-1702.4132 207,-1692.4133 203.5001,-1702.4133 210.5001,-1702.4132"/>
</g>
<!-- 52 -->
<g id="node53" class="node">
<title>52</title>
<g id="a_node53"><a xlink:title="A">
<ellipse fill="#000080" stroke="#000000" stroke-width="0" cx="180" cy="-810" rx="18" ry="18"/>
</a>
</g>
</g>
<!-- 53 -->
<g id="node54" class="node">
<title>53</title>
<g id="a_node54"><a xlink:title="A">
<ellipse fill="#000080" stroke="#000000" stroke-width="0" cx="180" cy="-954" rx="18" ry="18"/>
</a>
</g>
</g>
<!-- 61 -->
<g id="node62" class="node">
<title>61</title>
<g id="a_node62"><a xlink:title="A">
<ellipse fill="#000080" stroke="#000000" stroke-width="0" cx="180" cy="-882" rx="18" ry="18"/>
</a>
</g>
</g>
<!-- 53&#45;&gt;61 -->
<g id="edge51" class="edge">
<title>53&#45;&gt;61</title>
<path fill="none" stroke="#000000" d="M180,-935.8314C180,-928.131 180,-918.9743 180,-910.4166"/>
<polygon fill="#000000" stroke="#000000" points="183.5001,-910.4132 180,-900.4133 176.5001,-910.4133 183.5001,-910.4132"/>
</g>
<!-- 54&#45;&gt;49 -->
<g id="edge31" class="edge">
<title>54&#45;&gt;49</title>
<path fill="none" stroke="#000000" d="M72,-935.8314C72,-928.131 72,-918.9743 72,-910.4166"/>
<polygon fill="#000000" stroke="#000000" points="75.5001,-910.4132 72,-900.4133 68.5001,-910.4133 75.5001,-910.4132"/>
</g>
<!-- 55&#45;&gt;43 -->
<g id="edge56" class="edge">
<title>55&#45;&gt;43</title>
<path fill="none" stroke="#000000" d="M126,-1007.8314C126,-1000.131 126,-990.9743 126,-982.4166"/>
<polygon fill="#000000" stroke="#000000" points="129.5001,-982.4132 126,-972.4133 122.5001,-982.4133 129.5001,-982.4132"/>
</g>
<!-- 56&#45;&gt;53 -->
<g id="edge26" class="edge">
<title>56&#45;&gt;53</title>
<path fill="none" stroke="#000000" d="M180,-1007.8314C180,-1000.131 180,-990.9743 180,-982.4166"/>
<polygon fill="#000000" stroke="#000000" points="183.5001,-982.4132 180,-972.4133 176.5001,-982.4133 183.5001,-982.4132"/>
</g>
<!-- 57 -->
<g id="node58" class="node">
<title>57</title>
<g id="a_node58"><a xlink:title="A">
<ellipse fill="#000080" stroke="#000000" stroke-width="0" cx="236" cy="-1386" rx="18" ry="18"/>
</a>
</g>
</g>
<!-- 57&#45;&gt;36 -->
<g id="edge47" class="edge">
<title>57&#45;&gt;36</title>
<path fill="none" stroke="#000000" d="M236.2523,-1367.8314C236.3593,-1360.131 236.4865,-1350.9743 236.6053,-1342.4166"/>
<polygon fill="#000000" stroke="#000000" points="240.1049,-1342.4609 236.7443,-1332.4133 233.1056,-1342.3637 240.1049,-1342.4609"/>
</g>
<!-- 58 -->
<g id="node59" class="node">
<title>58</title>
<g id="a_node59"><a xlink:title="A">
<ellipse fill="#000080" stroke="#000000" stroke-width="0" cx="234" cy="-1026" rx="18" ry="18"/>
</a>
</g>
</g>
<!-- 59&#45;&gt;58 -->
<g id="edge27" class="edge">
<title>59&#45;&gt;58</title>
<path fill="none" stroke="#000000" d="M223.4607,-1080.2022C225.0088,-1072.2406 226.8703,-1062.6671 228.5953,-1053.7957"/>
<polygon fill="#000000" stroke="#000000" points="232.0575,-1054.3268 230.5306,-1043.8425 225.1862,-1052.9906 232.0575,-1054.3268"/>
</g>
<!-- 60&#45;&gt;46 -->
<g id="edge7" class="edge">
<title>60&#45;&gt;46</title>
<path fill="none" stroke="#000000" d="M200.6014,-1440.937C197.407,-1432.4186 193.471,-1421.9227 189.8982,-1412.3952"/>
<polygon fill="#000000" stroke="#000000" points="193.1411,-1411.0749 186.3527,-1402.9405 186.5868,-1413.5328 193.1411,-1411.0749"/>
</g>
<!-- 60&#45;&gt;57 -->
<g id="edge49" class="edge">
<title>60&#45;&gt;57</title>
<path fill="none" stroke="#000000" d="M213.7261,-1441.3008C217.1536,-1432.7912 221.4038,-1422.2388 225.2699,-1412.6403"/>
<polygon fill="#000000" stroke="#000000" points="228.6194,-1413.6922 229.109,-1403.1086 222.1263,-1411.0768 228.6194,-1413.6922"/>
</g>
<!-- 61&#45;&gt;52 -->
<g id="edge60" class="edge">
<title>61&#45;&gt;52</title>
<path fill="none" stroke="#000000" d="M180,-863.8314C180,-856.131 180,-846.9743 180,-838.4166"/>
<polygon fill="#000000" stroke="#000000" points="183.5001,-838.4132 180,-828.4133 176.5001,-838.4133 183.5001,-838.4132"/>
</g>
<!-- 62&#45;&gt;51 -->
<g id="edge57" class="edge">
<title>62&#45;&gt;51</title>
<path fill="none" stroke="#000000" d="M207,-1799.8314C207,-1792.131 207,-1782.9743 207,-1774.4166"/>
<polygon fill="#000000" stroke="#000000" points="210.5001,-1774.4132 207,-1764.4133 203.5001,-1774.4133 210.5001,-1774.4132"/>
</g>
</g>
</svg>
