<?xml version="1.0" encoding="UTF-8" standalone="no"?>
<!DOCTYPE svg PUBLIC "-//W3C//DTD SVG 1.1//EN"
 "http://www.w3.org/Graphics/SVG/1.1/DTD/svg11.dtd">
<!-- Generated by graphviz version 2.38.0 (20140413.2041)
 -->
<!-- Title: %3 Pages: 1 -->
<svg width="1199pt" height="764pt"
 viewBox="0.00 0.00 1198.64 764.00" xmlns="http://www.w3.org/2000/svg" xmlns:xlink="http://www.w3.org/1999/xlink">
<g id="graph0" class="graph" transform="scale(1 1) rotate(0) translate(4 760)">
<title>%3</title>
<polygon fill="white" stroke="none" points="-4,4 -4,-760 1194.64,-760 1194.64,4 -4,4"/>
<!-- 0 -->
<g id="node1" class="node"><title>0</title>
<g id="a_node1"><a xlink:title="0, diversity: 13, multiplicities: 1,1,1,2,2,3,5,6,24,34,460,521,794, labels: 0">
<ellipse fill="#f7fcf5" stroke="black" cx="545.047" cy="-666" rx="41.6928" ry="18"/>
<text text-anchor="middle" x="545.047" y="-662.3" font-family="Times,serif" font-size="14.00">0 (13): 0</text>
</a>
</g>
</g>
<!-- 3 -->
<g id="node4" class="node"><title>3</title>
<g id="a_node4"><a xlink:title="3, diversity: 4, multiplicities: 18,53,73,92, labels: 0">
<ellipse fill="#f7fcf5" stroke="black" cx="37.0467" cy="-594" rx="37.0935" ry="18"/>
<text text-anchor="middle" x="37.0467" y="-590.3" font-family="Times,serif" font-size="14.00">3 (4): 0</text>
</a>
</g>
</g>
<!-- 0&#45;&gt;3 -->
<g id="edge8" class="edge"><title>0&#45;&gt;3</title>
<path fill="none" stroke="black" d="M503.686,-663.573C422.16,-660.036 235.399,-648.333 83.0467,-612 80.0782,-611.292 77.0392,-610.449 74.0076,-609.523"/>
<polygon fill="black" stroke="black" points="75.0388,-606.177 64.4453,-606.344 72.8304,-612.82 75.0388,-606.177"/>
</g>
<!-- 5 -->
<g id="node6" class="node"><title>5</title>
<g id="a_node6"><a xlink:title="5, diversity: 1, multiplicities: 11, labels: 0">
<ellipse fill="#f7fcf5" stroke="black" cx="129.047" cy="-594" rx="37.0935" ry="18"/>
<text text-anchor="middle" x="129.047" y="-590.3" font-family="Times,serif" font-size="14.00">5 (1): 0</text>
</a>
</g>
</g>
<!-- 0&#45;&gt;5 -->
<g id="edge21" class="edge"><title>0&#45;&gt;5</title>
<path fill="none" stroke="black" d="M504.259,-661.997C435.501,-656.307 292.52,-641.763 175.047,-612 172.088,-611.25 169.057,-610.378 166.03,-609.431"/>
<polygon fill="black" stroke="black" points="167.071,-606.088 156.477,-606.214 164.837,-612.722 167.071,-606.088"/>
</g>
<!-- 6 -->
<g id="node7" class="node"><title>6</title>
<g id="a_node7"><a xlink:title="6, diversity: 1, multiplicities: 192, labels: 0">
<ellipse fill="#f7fcf5" stroke="black" cx="221.047" cy="-594" rx="37.0935" ry="18"/>
<text text-anchor="middle" x="221.047" y="-590.3" font-family="Times,serif" font-size="14.00">6 (1): 0</text>
</a>
</g>
</g>
<!-- 0&#45;&gt;6 -->
<g id="edge28" class="edge"><title>0&#45;&gt;6</title>
<path fill="none" stroke="black" d="M505.901,-659.629C451.655,-651.714 350.834,-635.296 267.047,-612 264.278,-611.23 261.44,-610.368 258.599,-609.451"/>
<polygon fill="black" stroke="black" points="259.619,-606.101 249.024,-606.177 257.354,-612.724 259.619,-606.101"/>
</g>
<!-- 7 -->
<g id="node8" class="node"><title>7</title>
<g id="a_node8"><a xlink:title="7, diversity: 2, multiplicities: 6,251, labels: 0">
<ellipse fill="#f7fcf5" stroke="black" cx="313.047" cy="-594" rx="37.0935" ry="18"/>
<text text-anchor="middle" x="313.047" y="-590.3" font-family="Times,serif" font-size="14.00">7 (2): 0</text>
</a>
</g>
</g>
<!-- 0&#45;&gt;7 -->
<g id="edge4" class="edge"><title>0&#45;&gt;7</title>
<path fill="none" stroke="black" d="M510.183,-655.92C472.627,-645.94 411.23,-629.05 359.047,-612 356.315,-611.108 353.505,-610.155 350.683,-609.174"/>
<polygon fill="black" stroke="black" points="351.741,-605.835 341.147,-605.772 349.389,-612.428 351.741,-605.835"/>
</g>
<!-- 8 -->
<g id="node9" class="node"><title>8</title>
<g id="a_node9"><a xlink:title="8, diversity: 2, multiplicities: 1,26, labels: 0">
<ellipse fill="#f7fcf5" stroke="black" cx="405.047" cy="-594" rx="37.0935" ry="18"/>
<text text-anchor="middle" x="405.047" y="-590.3" font-family="Times,serif" font-size="14.00">8 (2): 0</text>
</a>
</g>
</g>
<!-- 0&#45;&gt;8 -->
<g id="edge24" class="edge"><title>0&#45;&gt;8</title>
<path fill="none" stroke="black" d="M518.714,-651.834C496.098,-640.526 463.357,-624.155 438.817,-611.885"/>
<polygon fill="black" stroke="black" points="440.361,-608.744 429.852,-607.402 437.231,-615.005 440.361,-608.744"/>
</g>
<!-- 9 -->
<g id="node10" class="node"><title>9</title>
<g id="a_node10"><a xlink:title="9, diversity: 1, multiplicities: 78, labels: 0">
<ellipse fill="#f7fcf5" stroke="black" cx="497.047" cy="-594" rx="37.0935" ry="18"/>
<text text-anchor="middle" x="497.047" y="-590.3" font-family="Times,serif" font-size="14.00">9 (1): 0</text>
</a>
</g>
</g>
<!-- 0&#45;&gt;9 -->
<g id="edge29" class="edge"><title>0&#45;&gt;9</title>
<path fill="none" stroke="black" d="M533.671,-648.411C527.813,-639.868 520.552,-629.278 514.044,-619.787"/>
<polygon fill="black" stroke="black" points="516.882,-617.738 508.34,-611.47 511.109,-621.697 516.882,-617.738"/>
</g>
<!-- 11 -->
<g id="node12" class="node"><title>11</title>
<g id="a_node12"><a xlink:title="11, diversity: 2, multiplicities: 1,24, labels: 0">
<ellipse fill="#f7fcf5" stroke="black" cx="594.047" cy="-594" rx="41.6928" ry="18"/>
<text text-anchor="middle" x="594.047" y="-590.3" font-family="Times,serif" font-size="14.00">11 (2): 0</text>
</a>
</g>
</g>
<!-- 0&#45;&gt;11 -->
<g id="edge15" class="edge"><title>0&#45;&gt;11</title>
<path fill="none" stroke="black" d="M556.659,-648.411C562.639,-639.868 570.052,-629.278 576.696,-619.787"/>
<polygon fill="black" stroke="black" points="579.65,-621.669 582.518,-611.47 573.916,-617.655 579.65,-621.669"/>
</g>
<!-- 18 -->
<g id="node19" class="node"><title>18</title>
<g id="a_node19"><a xlink:title="18, diversity: 1, multiplicities: 1, labels: 0">
<ellipse fill="#f7fcf5" stroke="black" cx="695.047" cy="-594" rx="41.6928" ry="18"/>
<text text-anchor="middle" x="695.047" y="-590.3" font-family="Times,serif" font-size="14.00">18 (1): 0</text>
</a>
</g>
</g>
<!-- 0&#45;&gt;18 -->
<g id="edge19" class="edge"><title>0&#45;&gt;18</title>
<path fill="none" stroke="black" d="M572.211,-652.324C596.347,-641.06 631.828,-624.502 658.458,-612.075"/>
<polygon fill="black" stroke="black" points="660.25,-615.101 667.832,-607.7 657.29,-608.758 660.25,-615.101"/>
</g>
<!-- 21 -->
<g id="node22" class="node"><title>21</title>
<g id="a_node22"><a xlink:title="21, diversity: 1, multiplicities: 1, labels: 0">
<ellipse fill="#f7fcf5" stroke="black" cx="796.047" cy="-594" rx="41.6928" ry="18"/>
<text text-anchor="middle" x="796.047" y="-590.3" font-family="Times,serif" font-size="14.00">21 (1): 0</text>
</a>
</g>
</g>
<!-- 0&#45;&gt;21 -->
<g id="edge9" class="edge"><title>0&#45;&gt;21</title>
<path fill="none" stroke="black" d="M580.476,-656.454C620.796,-646.545 688.516,-629.342 746.047,-612 748.981,-611.116 752.001,-610.172 755.034,-609.201"/>
<polygon fill="black" stroke="black" points="756.27,-612.479 764.682,-606.038 754.089,-605.827 756.27,-612.479"/>
</g>
<!-- 22 -->
<g id="node23" class="node"><title>22</title>
<g id="a_node23"><a xlink:title="22, diversity: 1, multiplicities: 1, labels: 0">
<ellipse fill="#f7fcf5" stroke="black" cx="897.047" cy="-594" rx="41.6928" ry="18"/>
<text text-anchor="middle" x="897.047" y="-590.3" font-family="Times,serif" font-size="14.00">22 (1): 0</text>
</a>
</g>
</g>
<!-- 0&#45;&gt;22 -->
<g id="edge17" class="edge"><title>0&#45;&gt;22</title>
<path fill="none" stroke="black" d="M584.551,-660.046C642.63,-652.318 754.226,-635.774 847.047,-612 850.2,-611.192 853.44,-610.282 856.682,-609.313"/>
<polygon fill="black" stroke="black" points="857.845,-612.616 866.331,-606.272 855.742,-605.939 857.845,-612.616"/>
</g>
<!-- 24 -->
<g id="node25" class="node"><title>24</title>
<g id="a_node25"><a xlink:title="24, diversity: 1, multiplicities: 1, labels: 0">
<ellipse fill="#f7fcf5" stroke="black" cx="998.047" cy="-594" rx="41.6928" ry="18"/>
<text text-anchor="middle" x="998.047" y="-590.3" font-family="Times,serif" font-size="14.00">24 (1): 0</text>
</a>
</g>
</g>
<!-- 0&#45;&gt;24 -->
<g id="edge13" class="edge"><title>0&#45;&gt;24</title>
<path fill="none" stroke="black" d="M585.847,-662.302C659.149,-656.867 817.648,-642.429 948.047,-612 951.261,-611.25 954.56,-610.375 957.857,-609.424"/>
<polygon fill="black" stroke="black" points="959.13,-612.694 967.65,-606.397 957.063,-606.006 959.13,-612.694"/>
</g>
<!-- 1 -->
<g id="node2" class="node"><title>1</title>
<g id="a_node2"><a xlink:title="1, diversity: 2, multiplicities: 1,295, labels: 0">
<ellipse fill="#f7fcf5" stroke="black" cx="129.047" cy="-522" rx="37.0935" ry="18"/>
<text text-anchor="middle" x="129.047" y="-518.3" font-family="Times,serif" font-size="14.00">1 (2): 0</text>
</a>
</g>
</g>
<!-- 2 -->
<g id="node3" class="node"><title>2</title>
<g id="a_node3"><a xlink:title="2, diversity: 2, multiplicities: 8,311, labels: 0">
<ellipse fill="#f7fcf5" stroke="black" cx="998.047" cy="-522" rx="37.0935" ry="18"/>
<text text-anchor="middle" x="998.047" y="-518.3" font-family="Times,serif" font-size="14.00">2 (2): 0</text>
</a>
</g>
</g>
<!-- 4 -->
<g id="node5" class="node"><title>4</title>
<g id="a_node5"><a xlink:title="4, diversity: 1, multiplicities: 115, labels: 0">
<ellipse fill="#f7fcf5" stroke="black" cx="998.047" cy="-450" rx="37.0935" ry="18"/>
<text text-anchor="middle" x="998.047" y="-446.3" font-family="Times,serif" font-size="14.00">4 (1): 0</text>
</a>
</g>
</g>
<!-- 2&#45;&gt;4 -->
<g id="edge30" class="edge"><title>2&#45;&gt;4</title>
<path fill="none" stroke="black" d="M998.047,-503.697C998.047,-495.983 998.047,-486.712 998.047,-478.112"/>
<polygon fill="black" stroke="black" points="1001.55,-478.104 998.047,-468.104 994.547,-478.104 1001.55,-478.104"/>
</g>
<!-- 5&#45;&gt;1 -->
<g id="edge7" class="edge"><title>5&#45;&gt;1</title>
<path fill="none" stroke="black" d="M129.047,-575.697C129.047,-567.983 129.047,-558.712 129.047,-550.112"/>
<polygon fill="black" stroke="black" points="132.547,-550.104 129.047,-540.104 125.547,-550.104 132.547,-550.104"/>
</g>
<!-- 10 -->
<g id="node11" class="node"><title>10</title>
<g id="a_node11"><a xlink:title="10, diversity: 1, multiplicities: 6, labels: 0">
<ellipse fill="#f7fcf5" stroke="black" cx="695.047" cy="-18" rx="41.6928" ry="18"/>
<text text-anchor="middle" x="695.047" y="-14.3" font-family="Times,serif" font-size="14.00">10 (1): 0</text>
</a>
</g>
</g>
<!-- 12 -->
<g id="node13" class="node"><title>12</title>
<g id="a_node13"><a xlink:title="12, diversity: 3, multiplicities: 1,6,7, labels: 0">
<ellipse fill="#f7fcf5" stroke="black" cx="897.047" cy="-522" rx="41.6928" ry="18"/>
<text text-anchor="middle" x="897.047" y="-518.3" font-family="Times,serif" font-size="14.00">12 (3): 0</text>
</a>
</g>
</g>
<!-- 13 -->
<g id="node14" class="node"><title>13</title>
<g id="a_node14"><a xlink:title="13, diversity: 2, multiplicities: 1,1, labels: 0">
<ellipse fill="#f7fcf5" stroke="black" cx="695.047" cy="-90" rx="41.6928" ry="18"/>
<text text-anchor="middle" x="695.047" y="-86.3" font-family="Times,serif" font-size="14.00">13 (2): 0</text>
</a>
</g>
</g>
<!-- 13&#45;&gt;10 -->
<g id="edge12" class="edge"><title>13&#45;&gt;10</title>
<path fill="none" stroke="black" d="M695.047,-71.6966C695.047,-63.9827 695.047,-54.7125 695.047,-46.1124"/>
<polygon fill="black" stroke="black" points="698.547,-46.1043 695.047,-36.1043 691.547,-46.1044 698.547,-46.1043"/>
</g>
<!-- 14 -->
<g id="node15" class="node"><title>14</title>
<g id="a_node15"><a xlink:title="14, diversity: 1, multiplicities: 12, labels: 0">
<ellipse fill="#f7fcf5" stroke="black" cx="720.047" cy="-738" rx="41.6928" ry="18"/>
<text text-anchor="middle" x="720.047" y="-734.3" font-family="Times,serif" font-size="14.00">14 (1): 0</text>
</a>
</g>
</g>
<!-- 14&#45;&gt;0 -->
<g id="edge6" class="edge"><title>14&#45;&gt;0</title>
<path fill="none" stroke="black" d="M690.36,-725.125C661.109,-713.425 616.254,-695.483 584.119,-682.629"/>
<polygon fill="black" stroke="black" points="585.171,-679.28 574.586,-678.816 582.571,-685.779 585.171,-679.28"/>
</g>
<!-- 29 -->
<g id="node30" class="node"><title>29</title>
<g id="a_node30"><a xlink:title="29, diversity: 1, multiplicities: 1, labels: 0">
<ellipse fill="#f7fcf5" stroke="black" cx="896.047" cy="-666" rx="41.6928" ry="18"/>
<text text-anchor="middle" x="896.047" y="-662.3" font-family="Times,serif" font-size="14.00">29 (1): 0</text>
</a>
</g>
</g>
<!-- 14&#45;&gt;29 -->
<g id="edge26" class="edge"><title>14&#45;&gt;29</title>
<path fill="none" stroke="black" d="M749.505,-725.284C778.948,-713.573 824.392,-695.499 856.863,-682.584"/>
<polygon fill="black" stroke="black" points="858.494,-685.703 866.492,-678.755 855.907,-679.198 858.494,-685.703"/>
</g>
<!-- 15 -->
<g id="node16" class="node"><title>15</title>
<g id="a_node16"><a xlink:title="15, diversity: 2, multiplicities: 1,3, labels: 0">
<ellipse fill="#f7fcf5" stroke="black" cx="695.047" cy="-306" rx="41.6928" ry="18"/>
<text text-anchor="middle" x="695.047" y="-302.3" font-family="Times,serif" font-size="14.00">15 (2): 0</text>
</a>
</g>
</g>
<!-- 23 -->
<g id="node24" class="node"><title>23</title>
<g id="a_node24"><a xlink:title="23, diversity: 1, multiplicities: 1, labels: 0">
<ellipse fill="#f7fcf5" stroke="black" cx="695.047" cy="-234" rx="41.6928" ry="18"/>
<text text-anchor="middle" x="695.047" y="-230.3" font-family="Times,serif" font-size="14.00">23 (1): 0</text>
</a>
</g>
</g>
<!-- 15&#45;&gt;23 -->
<g id="edge10" class="edge"><title>15&#45;&gt;23</title>
<path fill="none" stroke="black" d="M695.047,-287.697C695.047,-279.983 695.047,-270.712 695.047,-262.112"/>
<polygon fill="black" stroke="black" points="698.547,-262.104 695.047,-252.104 691.547,-262.104 698.547,-262.104"/>
</g>
<!-- 16 -->
<g id="node17" class="node"><title>16</title>
<g id="a_node17"><a xlink:title="16, diversity: 1, multiplicities: 2, labels: 0">
<ellipse fill="#f7fcf5" stroke="black" cx="695.047" cy="-378" rx="41.6928" ry="18"/>
<text text-anchor="middle" x="695.047" y="-374.3" font-family="Times,serif" font-size="14.00">16 (1): 0</text>
</a>
</g>
</g>
<!-- 16&#45;&gt;15 -->
<g id="edge16" class="edge"><title>16&#45;&gt;15</title>
<path fill="none" stroke="black" d="M695.047,-359.697C695.047,-351.983 695.047,-342.712 695.047,-334.112"/>
<polygon fill="black" stroke="black" points="698.547,-334.104 695.047,-324.104 691.547,-334.104 698.547,-334.104"/>
</g>
<!-- 17 -->
<g id="node18" class="node"><title>17</title>
<g id="a_node18"><a xlink:title="17, diversity: 1, multiplicities: 1, labels: 0">
<ellipse fill="#f7fcf5" stroke="black" cx="695.047" cy="-162" rx="41.6928" ry="18"/>
<text text-anchor="middle" x="695.047" y="-158.3" font-family="Times,serif" font-size="14.00">17 (1): 0</text>
</a>
</g>
</g>
<!-- 17&#45;&gt;13 -->
<g id="edge23" class="edge"><title>17&#45;&gt;13</title>
<path fill="none" stroke="black" d="M695.047,-143.697C695.047,-135.983 695.047,-126.712 695.047,-118.112"/>
<polygon fill="black" stroke="black" points="698.547,-118.104 695.047,-108.104 691.547,-118.104 698.547,-118.104"/>
</g>
<!-- 19 -->
<g id="node20" class="node"><title>19</title>
<g id="a_node20"><a xlink:title="19, diversity: 1, multiplicities: 2, labels: 0">
<ellipse fill="#f7fcf5" stroke="black" cx="695.047" cy="-522" rx="41.6928" ry="18"/>
<text text-anchor="middle" x="695.047" y="-518.3" font-family="Times,serif" font-size="14.00">19 (1): 0</text>
</a>
</g>
</g>
<!-- 18&#45;&gt;19 -->
<g id="edge5" class="edge"><title>18&#45;&gt;19</title>
<path fill="none" stroke="black" d="M695.047,-575.697C695.047,-567.983 695.047,-558.712 695.047,-550.112"/>
<polygon fill="black" stroke="black" points="698.547,-550.104 695.047,-540.104 691.547,-550.104 698.547,-550.104"/>
</g>
<!-- 20 -->
<g id="node21" class="node"><title>20</title>
<g id="a_node21"><a xlink:title="20, diversity: 1, multiplicities: 1, labels: 0">
<ellipse fill="#f7fcf5" stroke="black" cx="695.047" cy="-450" rx="41.6928" ry="18"/>
<text text-anchor="middle" x="695.047" y="-446.3" font-family="Times,serif" font-size="14.00">20 (1): 0</text>
</a>
</g>
</g>
<!-- 19&#45;&gt;20 -->
<g id="edge25" class="edge"><title>19&#45;&gt;20</title>
<path fill="none" stroke="black" d="M695.047,-503.697C695.047,-495.983 695.047,-486.712 695.047,-478.112"/>
<polygon fill="black" stroke="black" points="698.547,-478.104 695.047,-468.104 691.547,-478.104 698.547,-478.104"/>
</g>
<!-- 20&#45;&gt;16 -->
<g id="edge31" class="edge"><title>20&#45;&gt;16</title>
<path fill="none" stroke="black" d="M695.047,-431.697C695.047,-423.983 695.047,-414.712 695.047,-406.112"/>
<polygon fill="black" stroke="black" points="698.547,-406.104 695.047,-396.104 691.547,-406.104 698.547,-406.104"/>
</g>
<!-- 30 -->
<g id="node31" class="node"><title>30</title>
<g id="a_node31"><a xlink:title="30, diversity: 2, multiplicities: 9,159, labels: 0">
<ellipse fill="#f7fcf5" stroke="black" cx="796.047" cy="-522" rx="41.6928" ry="18"/>
<text text-anchor="middle" x="796.047" y="-518.3" font-family="Times,serif" font-size="14.00">30 (2): 0</text>
</a>
</g>
</g>
<!-- 21&#45;&gt;30 -->
<g id="edge20" class="edge"><title>21&#45;&gt;30</title>
<path fill="none" stroke="black" d="M796.047,-575.697C796.047,-567.983 796.047,-558.712 796.047,-550.112"/>
<polygon fill="black" stroke="black" points="799.547,-550.104 796.047,-540.104 792.547,-550.104 799.547,-550.104"/>
</g>
<!-- 22&#45;&gt;12 -->
<g id="edge27" class="edge"><title>22&#45;&gt;12</title>
<path fill="none" stroke="black" d="M897.047,-575.697C897.047,-567.983 897.047,-558.712 897.047,-550.112"/>
<polygon fill="black" stroke="black" points="900.547,-550.104 897.047,-540.104 893.547,-550.104 900.547,-550.104"/>
</g>
<!-- 23&#45;&gt;17 -->
<g id="edge11" class="edge"><title>23&#45;&gt;17</title>
<path fill="none" stroke="black" d="M695.047,-215.697C695.047,-207.983 695.047,-198.712 695.047,-190.112"/>
<polygon fill="black" stroke="black" points="698.547,-190.104 695.047,-180.104 691.547,-190.104 698.547,-190.104"/>
</g>
<!-- 24&#45;&gt;2 -->
<g id="edge22" class="edge"><title>24&#45;&gt;2</title>
<path fill="none" stroke="black" d="M998.047,-575.697C998.047,-567.983 998.047,-558.712 998.047,-550.112"/>
<polygon fill="black" stroke="black" points="1001.55,-550.104 998.047,-540.104 994.547,-550.104 1001.55,-550.104"/>
</g>
<!-- 25 -->
<g id="node26" class="node"><title>25</title>
<g id="a_node26"><a xlink:title="25, diversity: 3, multiplicities: 3,39,44, labels: 0">
<ellipse fill="#f7fcf5" stroke="black" cx="1099.05" cy="-450" rx="41.6928" ry="18"/>
<text text-anchor="middle" x="1099.05" y="-446.3" font-family="Times,serif" font-size="14.00">25 (3): 0</text>
</a>
</g>
</g>
<!-- 26 -->
<g id="node27" class="node"><title>26</title>
<g id="a_node27"><a xlink:title="26, diversity: 1, multiplicities: 181, labels: 0">
<ellipse fill="#f7fcf5" stroke="black" cx="1048.05" cy="-378" rx="41.6928" ry="18"/>
<text text-anchor="middle" x="1048.05" y="-374.3" font-family="Times,serif" font-size="14.00">26 (1): 0</text>
</a>
</g>
</g>
<!-- 25&#45;&gt;26 -->
<g id="edge14" class="edge"><title>25&#45;&gt;26</title>
<path fill="none" stroke="black" d="M1086.96,-432.411C1080.74,-423.868 1073.02,-413.278 1066.11,-403.787"/>
<polygon fill="black" stroke="black" points="1068.76,-401.491 1060.05,-395.47 1063.11,-405.613 1068.76,-401.491"/>
</g>
<!-- 31 -->
<g id="node32" class="node"><title>31</title>
<g id="a_node32"><a xlink:title="31, diversity: 2, multiplicities: 7,137, labels: 0">
<ellipse fill="#f7fcf5" stroke="black" cx="1149.05" cy="-378" rx="41.6928" ry="18"/>
<text text-anchor="middle" x="1149.05" y="-374.3" font-family="Times,serif" font-size="14.00">31 (2): 0</text>
</a>
</g>
</g>
<!-- 25&#45;&gt;31 -->
<g id="edge3" class="edge"><title>25&#45;&gt;31</title>
<path fill="none" stroke="black" d="M1110.9,-432.411C1117,-423.868 1124.56,-413.278 1131.34,-403.787"/>
<polygon fill="black" stroke="black" points="1134.32,-405.642 1137.28,-395.47 1128.62,-401.573 1134.32,-405.642"/>
</g>
<!-- 27 -->
<g id="node28" class="node"><title>27</title>
<g id="a_node28"><a xlink:title="27, diversity: 1, multiplicities: 1, labels: 0">
<ellipse fill="#f7fcf5" stroke="black" cx="1099.05" cy="-522" rx="41.6928" ry="18"/>
<text text-anchor="middle" x="1099.05" y="-518.3" font-family="Times,serif" font-size="14.00">27 (1): 0</text>
</a>
</g>
</g>
<!-- 27&#45;&gt;25 -->
<g id="edge2" class="edge"><title>27&#45;&gt;25</title>
<path fill="none" stroke="black" d="M1099.05,-503.697C1099.05,-495.983 1099.05,-486.712 1099.05,-478.112"/>
<polygon fill="black" stroke="black" points="1102.55,-478.104 1099.05,-468.104 1095.55,-478.104 1102.55,-478.104"/>
</g>
<!-- 28 -->
<g id="node29" class="node"><title>28</title>
<g id="a_node29"><a xlink:title="28, diversity: 1, multiplicities: 2, labels: 0">
<ellipse fill="#f7fcf5" stroke="black" cx="1099.05" cy="-594" rx="41.6928" ry="18"/>
<text text-anchor="middle" x="1099.05" y="-590.3" font-family="Times,serif" font-size="14.00">28 (1): 0</text>
</a>
</g>
</g>
<!-- 28&#45;&gt;27 -->
<g id="edge18" class="edge"><title>28&#45;&gt;27</title>
<path fill="none" stroke="black" d="M1099.05,-575.697C1099.05,-567.983 1099.05,-558.712 1099.05,-550.112"/>
<polygon fill="black" stroke="black" points="1102.55,-550.104 1099.05,-540.104 1095.55,-550.104 1102.55,-550.104"/>
</g>
<!-- 29&#45;&gt;28 -->
<g id="edge1" class="edge"><title>29&#45;&gt;28</title>
<path fill="none" stroke="black" d="M927.765,-654.062C962.774,-641.991 1019.25,-622.517 1057.7,-609.257"/>
<polygon fill="black" stroke="black" points="1059.24,-612.429 1067.55,-605.861 1056.96,-605.812 1059.24,-612.429"/>
</g>
</g>
</svg>
