<?xml version="1.0" encoding="UTF-8" standalone="no"?>
<!DOCTYPE svg PUBLIC "-//W3C//DTD SVG 1.1//EN"
 "http://www.w3.org/Graphics/SVG/1.1/DTD/svg11.dtd">
<!-- Generated by graphviz version 2.38.0 (20140413.2041)
 -->
<!-- Title: %3 Pages: 1 -->
<svg width="285pt" height="1412pt"
 viewBox="0.00 0.00 284.64 1412.00" xmlns="http://www.w3.org/2000/svg" xmlns:xlink="http://www.w3.org/1999/xlink">
<g id="graph0" class="graph" transform="scale(1 1) rotate(0) translate(4 1408)">
<title>%3</title>
<polygon fill="white" stroke="none" points="-4,4 -4,-1408 280.643,-1408 280.643,4 -4,4"/>
<!-- 0 -->
<g id="node1" class="node"><title>0</title>
<g id="a_node1"><a xlink:title="0, diversity: 4, multiplicities: 1,2,13,262, labels: 0">
<ellipse fill="#f7fcf5" stroke="black" cx="134.047" cy="-450" rx="37.0935" ry="18"/>
<text text-anchor="middle" x="134.047" y="-446.3" font-family="Times,serif" font-size="14.00">0 (4): 0</text>
</a>
</g>
</g>
<!-- 7 -->
<g id="node8" class="node"><title>7</title>
<g id="a_node8"><a xlink:title="7, diversity: 1, multiplicities: 7, labels: 0">
<ellipse fill="#f7fcf5" stroke="black" cx="37.0467" cy="-378" rx="37.0935" ry="18"/>
<text text-anchor="middle" x="37.0467" y="-374.3" font-family="Times,serif" font-size="14.00">7 (1): 0</text>
</a>
</g>
</g>
<!-- 0&#45;&gt;7 -->
<g id="edge2" class="edge"><title>0&#45;&gt;7</title>
<path fill="none" stroke="black" d="M113.948,-434.496C99.8082,-424.292 80.6952,-410.499 65.0614,-399.217"/>
<polygon fill="black" stroke="black" points="66.9447,-396.26 56.7875,-393.246 62.8484,-401.936 66.9447,-396.26"/>
</g>
<!-- 18 -->
<g id="node19" class="node"><title>18</title>
<g id="a_node19"><a xlink:title="18, diversity: 1, multiplicities: 1, labels: 0">
<ellipse fill="#f7fcf5" stroke="black" cx="134.047" cy="-378" rx="41.6928" ry="18"/>
<text text-anchor="middle" x="134.047" y="-374.3" font-family="Times,serif" font-size="14.00">18 (1): 0</text>
</a>
</g>
</g>
<!-- 0&#45;&gt;18 -->
<g id="edge13" class="edge"><title>0&#45;&gt;18</title>
<path fill="none" stroke="black" d="M134.047,-431.697C134.047,-423.983 134.047,-414.712 134.047,-406.112"/>
<polygon fill="black" stroke="black" points="137.547,-406.104 134.047,-396.104 130.547,-406.104 137.547,-406.104"/>
</g>
<!-- 19 -->
<g id="node20" class="node"><title>19</title>
<g id="a_node20"><a xlink:title="19, diversity: 1, multiplicities: 1, labels: 0">
<ellipse fill="#f7fcf5" stroke="black" cx="235.047" cy="-378" rx="41.6928" ry="18"/>
<text text-anchor="middle" x="235.047" y="-374.3" font-family="Times,serif" font-size="14.00">19 (1): 0</text>
</a>
</g>
</g>
<!-- 0&#45;&gt;19 -->
<g id="edge19" class="edge"><title>0&#45;&gt;19</title>
<path fill="none" stroke="black" d="M154.486,-434.834C169.076,-424.722 188.93,-410.962 205.278,-399.632"/>
<polygon fill="black" stroke="black" points="207.718,-402.199 213.943,-393.626 203.73,-396.446 207.718,-402.199"/>
</g>
<!-- 1 -->
<g id="node2" class="node"><title>1</title>
<g id="a_node2"><a xlink:title="1, diversity: 1, multiplicities: 155, labels: 0">
<ellipse fill="#f7fcf5" stroke="black" cx="235.047" cy="-306" rx="37.0935" ry="18"/>
<text text-anchor="middle" x="235.047" y="-302.3" font-family="Times,serif" font-size="14.00">1 (1): 0</text>
</a>
</g>
</g>
<!-- 2 -->
<g id="node3" class="node"><title>2</title>
<g id="a_node3"><a xlink:title="2, diversity: 1, multiplicities: 5, labels: 0">
<ellipse fill="#f7fcf5" stroke="black" cx="134.047" cy="-18" rx="37.0935" ry="18"/>
<text text-anchor="middle" x="134.047" y="-14.3" font-family="Times,serif" font-size="14.00">2 (1): 0</text>
</a>
</g>
</g>
<!-- 3 -->
<g id="node4" class="node"><title>3</title>
<g id="a_node4"><a xlink:title="3, diversity: 1, multiplicities: 1, labels: 0">
<ellipse fill="#f7fcf5" stroke="black" cx="134.047" cy="-594" rx="37.0935" ry="18"/>
<text text-anchor="middle" x="134.047" y="-590.3" font-family="Times,serif" font-size="14.00">3 (1): 0</text>
</a>
</g>
</g>
<!-- 10 -->
<g id="node11" class="node"><title>10</title>
<g id="a_node11"><a xlink:title="10, diversity: 1, multiplicities: 1, labels: 0">
<ellipse fill="#f7fcf5" stroke="black" cx="134.047" cy="-522" rx="41.6928" ry="18"/>
<text text-anchor="middle" x="134.047" y="-518.3" font-family="Times,serif" font-size="14.00">10 (1): 0</text>
</a>
</g>
</g>
<!-- 3&#45;&gt;10 -->
<g id="edge6" class="edge"><title>3&#45;&gt;10</title>
<path fill="none" stroke="black" d="M134.047,-575.697C134.047,-567.983 134.047,-558.712 134.047,-550.112"/>
<polygon fill="black" stroke="black" points="137.547,-550.104 134.047,-540.104 130.547,-550.104 137.547,-550.104"/>
</g>
<!-- 4 -->
<g id="node5" class="node"><title>4</title>
<g id="a_node5"><a xlink:title="4, diversity: 1, multiplicities: 8, labels: 0">
<ellipse fill="#f7fcf5" stroke="black" cx="37.0467" cy="-306" rx="37.0935" ry="18"/>
<text text-anchor="middle" x="37.0467" y="-302.3" font-family="Times,serif" font-size="14.00">4 (1): 0</text>
</a>
</g>
</g>
<!-- 5 -->
<g id="node6" class="node"><title>5</title>
<g id="a_node6"><a xlink:title="5, diversity: 1, multiplicities: 1, labels: 0">
<ellipse fill="#f7fcf5" stroke="black" cx="134.047" cy="-882" rx="37.0935" ry="18"/>
<text text-anchor="middle" x="134.047" y="-878.3" font-family="Times,serif" font-size="14.00">5 (1): 0</text>
</a>
</g>
</g>
<!-- 16 -->
<g id="node17" class="node"><title>16</title>
<g id="a_node17"><a xlink:title="16, diversity: 1, multiplicities: 2, labels: 0">
<ellipse fill="#f7fcf5" stroke="black" cx="134.047" cy="-810" rx="41.6928" ry="18"/>
<text text-anchor="middle" x="134.047" y="-806.3" font-family="Times,serif" font-size="14.00">16 (1): 0</text>
</a>
</g>
</g>
<!-- 5&#45;&gt;16 -->
<g id="edge18" class="edge"><title>5&#45;&gt;16</title>
<path fill="none" stroke="black" d="M134.047,-863.697C134.047,-855.983 134.047,-846.712 134.047,-838.112"/>
<polygon fill="black" stroke="black" points="137.547,-838.104 134.047,-828.104 130.547,-838.104 137.547,-838.104"/>
</g>
<!-- 6 -->
<g id="node7" class="node"><title>6</title>
<g id="a_node7"><a xlink:title="6, diversity: 1, multiplicities: 1, labels: 0">
<ellipse fill="#f7fcf5" stroke="black" cx="134.047" cy="-1098" rx="37.0935" ry="18"/>
<text text-anchor="middle" x="134.047" y="-1094.3" font-family="Times,serif" font-size="14.00">6 (1): 0</text>
</a>
</g>
</g>
<!-- 13 -->
<g id="node14" class="node"><title>13</title>
<g id="a_node14"><a xlink:title="13, diversity: 1, multiplicities: 1, labels: 0">
<ellipse fill="#f7fcf5" stroke="black" cx="134.047" cy="-1026" rx="41.6928" ry="18"/>
<text text-anchor="middle" x="134.047" y="-1022.3" font-family="Times,serif" font-size="14.00">13 (1): 0</text>
</a>
</g>
</g>
<!-- 6&#45;&gt;13 -->
<g id="edge1" class="edge"><title>6&#45;&gt;13</title>
<path fill="none" stroke="black" d="M134.047,-1079.7C134.047,-1071.98 134.047,-1062.71 134.047,-1054.11"/>
<polygon fill="black" stroke="black" points="137.547,-1054.1 134.047,-1044.1 130.547,-1054.1 137.547,-1054.1"/>
</g>
<!-- 7&#45;&gt;4 -->
<g id="edge21" class="edge"><title>7&#45;&gt;4</title>
<path fill="none" stroke="black" d="M37.0467,-359.697C37.0467,-351.983 37.0467,-342.712 37.0467,-334.112"/>
<polygon fill="black" stroke="black" points="40.5468,-334.104 37.0467,-324.104 33.5468,-334.104 40.5468,-334.104"/>
</g>
<!-- 8 -->
<g id="node9" class="node"><title>8</title>
<g id="a_node9"><a xlink:title="8, diversity: 1, multiplicities: 1, labels: 0">
<ellipse fill="#f7fcf5" stroke="black" cx="134.047" cy="-90" rx="37.0935" ry="18"/>
<text text-anchor="middle" x="134.047" y="-86.3" font-family="Times,serif" font-size="14.00">8 (1): 0</text>
</a>
</g>
</g>
<!-- 8&#45;&gt;2 -->
<g id="edge11" class="edge"><title>8&#45;&gt;2</title>
<path fill="none" stroke="black" d="M134.047,-71.6966C134.047,-63.9827 134.047,-54.7125 134.047,-46.1124"/>
<polygon fill="black" stroke="black" points="137.547,-46.1043 134.047,-36.1043 130.547,-46.1044 137.547,-46.1043"/>
</g>
<!-- 9 -->
<g id="node10" class="node"><title>9</title>
<g id="a_node10"><a xlink:title="9, diversity: 1, multiplicities: 1, labels: 0">
<ellipse fill="#f7fcf5" stroke="black" cx="134.047" cy="-1170" rx="37.0935" ry="18"/>
<text text-anchor="middle" x="134.047" y="-1166.3" font-family="Times,serif" font-size="14.00">9 (1): 0</text>
</a>
</g>
</g>
<!-- 9&#45;&gt;6 -->
<g id="edge15" class="edge"><title>9&#45;&gt;6</title>
<path fill="none" stroke="black" d="M134.047,-1151.7C134.047,-1143.98 134.047,-1134.71 134.047,-1126.11"/>
<polygon fill="black" stroke="black" points="137.547,-1126.1 134.047,-1116.1 130.547,-1126.1 137.547,-1126.1"/>
</g>
<!-- 10&#45;&gt;0 -->
<g id="edge8" class="edge"><title>10&#45;&gt;0</title>
<path fill="none" stroke="black" d="M134.047,-503.697C134.047,-495.983 134.047,-486.712 134.047,-478.112"/>
<polygon fill="black" stroke="black" points="137.547,-478.104 134.047,-468.104 130.547,-478.104 137.547,-478.104"/>
</g>
<!-- 11 -->
<g id="node12" class="node"><title>11</title>
<g id="a_node12"><a xlink:title="11, diversity: 1, multiplicities: 1, labels: 0">
<ellipse fill="#f7fcf5" stroke="black" cx="134.047" cy="-1242" rx="41.6928" ry="18"/>
<text text-anchor="middle" x="134.047" y="-1238.3" font-family="Times,serif" font-size="14.00">11 (1): 0</text>
</a>
</g>
</g>
<!-- 11&#45;&gt;9 -->
<g id="edge12" class="edge"><title>11&#45;&gt;9</title>
<path fill="none" stroke="black" d="M134.047,-1223.7C134.047,-1215.98 134.047,-1206.71 134.047,-1198.11"/>
<polygon fill="black" stroke="black" points="137.547,-1198.1 134.047,-1188.1 130.547,-1198.1 137.547,-1198.1"/>
</g>
<!-- 12 -->
<g id="node13" class="node"><title>12</title>
<g id="a_node13"><a xlink:title="12, diversity: 1, multiplicities: 5, labels: 0">
<ellipse fill="#f7fcf5" stroke="black" cx="134.047" cy="-1386" rx="41.6928" ry="18"/>
<text text-anchor="middle" x="134.047" y="-1382.3" font-family="Times,serif" font-size="14.00">12 (1): 0</text>
</a>
</g>
</g>
<!-- 22 -->
<g id="node23" class="node"><title>22</title>
<g id="a_node23"><a xlink:title="22, diversity: 1, multiplicities: 1, labels: 0">
<ellipse fill="#f7fcf5" stroke="black" cx="134.047" cy="-1314" rx="41.6928" ry="18"/>
<text text-anchor="middle" x="134.047" y="-1310.3" font-family="Times,serif" font-size="14.00">22 (1): 0</text>
</a>
</g>
</g>
<!-- 12&#45;&gt;22 -->
<g id="edge16" class="edge"><title>12&#45;&gt;22</title>
<path fill="none" stroke="black" d="M134.047,-1367.7C134.047,-1359.98 134.047,-1350.71 134.047,-1342.11"/>
<polygon fill="black" stroke="black" points="137.547,-1342.1 134.047,-1332.1 130.547,-1342.1 137.547,-1342.1"/>
</g>
<!-- 17 -->
<g id="node18" class="node"><title>17</title>
<g id="a_node18"><a xlink:title="17, diversity: 1, multiplicities: 1, labels: 0">
<ellipse fill="#f7fcf5" stroke="black" cx="134.047" cy="-954" rx="41.6928" ry="18"/>
<text text-anchor="middle" x="134.047" y="-950.3" font-family="Times,serif" font-size="14.00">17 (1): 0</text>
</a>
</g>
</g>
<!-- 13&#45;&gt;17 -->
<g id="edge3" class="edge"><title>13&#45;&gt;17</title>
<path fill="none" stroke="black" d="M134.047,-1007.7C134.047,-999.983 134.047,-990.712 134.047,-982.112"/>
<polygon fill="black" stroke="black" points="137.547,-982.104 134.047,-972.104 130.547,-982.104 137.547,-982.104"/>
</g>
<!-- 14 -->
<g id="node15" class="node"><title>14</title>
<g id="a_node15"><a xlink:title="14, diversity: 1, multiplicities: 1, labels: 0">
<ellipse fill="#f7fcf5" stroke="black" cx="134.047" cy="-738" rx="41.6928" ry="18"/>
<text text-anchor="middle" x="134.047" y="-734.3" font-family="Times,serif" font-size="14.00">14 (1): 0</text>
</a>
</g>
</g>
<!-- 21 -->
<g id="node22" class="node"><title>21</title>
<g id="a_node22"><a xlink:title="21, diversity: 1, multiplicities: 1, labels: 0">
<ellipse fill="#f7fcf5" stroke="black" cx="134.047" cy="-666" rx="41.6928" ry="18"/>
<text text-anchor="middle" x="134.047" y="-662.3" font-family="Times,serif" font-size="14.00">21 (1): 0</text>
</a>
</g>
</g>
<!-- 14&#45;&gt;21 -->
<g id="edge22" class="edge"><title>14&#45;&gt;21</title>
<path fill="none" stroke="black" d="M134.047,-719.697C134.047,-711.983 134.047,-702.712 134.047,-694.112"/>
<polygon fill="black" stroke="black" points="137.547,-694.104 134.047,-684.104 130.547,-694.104 137.547,-694.104"/>
</g>
<!-- 15 -->
<g id="node16" class="node"><title>15</title>
<g id="a_node16"><a xlink:title="15, diversity: 1, multiplicities: 1, labels: 0">
<ellipse fill="#f7fcf5" stroke="black" cx="134.047" cy="-162" rx="41.6928" ry="18"/>
<text text-anchor="middle" x="134.047" y="-158.3" font-family="Times,serif" font-size="14.00">15 (1): 0</text>
</a>
</g>
</g>
<!-- 15&#45;&gt;8 -->
<g id="edge4" class="edge"><title>15&#45;&gt;8</title>
<path fill="none" stroke="black" d="M134.047,-143.697C134.047,-135.983 134.047,-126.712 134.047,-118.112"/>
<polygon fill="black" stroke="black" points="137.547,-118.104 134.047,-108.104 130.547,-118.104 137.547,-118.104"/>
</g>
<!-- 16&#45;&gt;14 -->
<g id="edge5" class="edge"><title>16&#45;&gt;14</title>
<path fill="none" stroke="black" d="M134.047,-791.697C134.047,-783.983 134.047,-774.712 134.047,-766.112"/>
<polygon fill="black" stroke="black" points="137.547,-766.104 134.047,-756.104 130.547,-766.104 137.547,-766.104"/>
</g>
<!-- 17&#45;&gt;5 -->
<g id="edge10" class="edge"><title>17&#45;&gt;5</title>
<path fill="none" stroke="black" d="M134.047,-935.697C134.047,-927.983 134.047,-918.712 134.047,-910.112"/>
<polygon fill="black" stroke="black" points="137.547,-910.104 134.047,-900.104 130.547,-910.104 137.547,-910.104"/>
</g>
<!-- 20 -->
<g id="node21" class="node"><title>20</title>
<g id="a_node21"><a xlink:title="20, diversity: 1, multiplicities: 1, labels: 0">
<ellipse fill="#f7fcf5" stroke="black" cx="134.047" cy="-306" rx="41.6928" ry="18"/>
<text text-anchor="middle" x="134.047" y="-302.3" font-family="Times,serif" font-size="14.00">20 (1): 0</text>
</a>
</g>
</g>
<!-- 18&#45;&gt;20 -->
<g id="edge9" class="edge"><title>18&#45;&gt;20</title>
<path fill="none" stroke="black" d="M134.047,-359.697C134.047,-351.983 134.047,-342.712 134.047,-334.112"/>
<polygon fill="black" stroke="black" points="137.547,-334.104 134.047,-324.104 130.547,-334.104 137.547,-334.104"/>
</g>
<!-- 19&#45;&gt;1 -->
<g id="edge23" class="edge"><title>19&#45;&gt;1</title>
<path fill="none" stroke="black" d="M235.047,-359.697C235.047,-351.983 235.047,-342.712 235.047,-334.112"/>
<polygon fill="black" stroke="black" points="238.547,-334.104 235.047,-324.104 231.547,-334.104 238.547,-334.104"/>
</g>
<!-- 23 -->
<g id="node24" class="node"><title>23</title>
<g id="a_node24"><a xlink:title="23, diversity: 1, multiplicities: 1, labels: 0">
<ellipse fill="#f7fcf5" stroke="black" cx="134.047" cy="-234" rx="41.6928" ry="18"/>
<text text-anchor="middle" x="134.047" y="-230.3" font-family="Times,serif" font-size="14.00">23 (1): 0</text>
</a>
</g>
</g>
<!-- 20&#45;&gt;23 -->
<g id="edge17" class="edge"><title>20&#45;&gt;23</title>
<path fill="none" stroke="black" d="M134.047,-287.697C134.047,-279.983 134.047,-270.712 134.047,-262.112"/>
<polygon fill="black" stroke="black" points="137.547,-262.104 134.047,-252.104 130.547,-262.104 137.547,-262.104"/>
</g>
<!-- 21&#45;&gt;3 -->
<g id="edge20" class="edge"><title>21&#45;&gt;3</title>
<path fill="none" stroke="black" d="M134.047,-647.697C134.047,-639.983 134.047,-630.712 134.047,-622.112"/>
<polygon fill="black" stroke="black" points="137.547,-622.104 134.047,-612.104 130.547,-622.104 137.547,-622.104"/>
</g>
<!-- 22&#45;&gt;11 -->
<g id="edge14" class="edge"><title>22&#45;&gt;11</title>
<path fill="none" stroke="black" d="M134.047,-1295.7C134.047,-1287.98 134.047,-1278.71 134.047,-1270.11"/>
<polygon fill="black" stroke="black" points="137.547,-1270.1 134.047,-1260.1 130.547,-1270.1 137.547,-1270.1"/>
</g>
<!-- 23&#45;&gt;15 -->
<g id="edge7" class="edge"><title>23&#45;&gt;15</title>
<path fill="none" stroke="black" d="M134.047,-215.697C134.047,-207.983 134.047,-198.712 134.047,-190.112"/>
<polygon fill="black" stroke="black" points="137.547,-190.104 134.047,-180.104 130.547,-190.104 137.547,-190.104"/>
</g>
</g>
</svg>
