<?xml version="1.0" encoding="UTF-8" standalone="no"?>
<!DOCTYPE svg PUBLIC "-//W3C//DTD SVG 1.1//EN"
 "http://www.w3.org/Graphics/SVG/1.1/DTD/svg11.dtd">
<!-- Generated by graphviz version 2.38.0 (20140413.2041)
 -->
<!-- Title: %3 Pages: 1 -->
<svg width="281pt" height="404pt"
 viewBox="0.00 0.00 280.64 404.00" xmlns="http://www.w3.org/2000/svg" xmlns:xlink="http://www.w3.org/1999/xlink">
<g id="graph0" class="graph" transform="scale(1 1) rotate(0) translate(4 400)">
<title>%3</title>
<polygon fill="white" stroke="none" points="-4,4 -4,-400 276.643,-400 276.643,4 -4,4"/>
<!-- 0 -->
<g id="node1" class="node"><title>0</title>
<g id="a_node1"><a xlink:title="0, diversity: 1, multiplicities: 527, labels: 0">
<ellipse fill="#e32f27" stroke="black" cx="182.047" cy="-378" rx="37.0935" ry="18"/>
<text text-anchor="middle" x="182.047" y="-374.3" font-family="Times,serif" font-size="14.00">0 (1): 0</text>
</a>
</g>
</g>
<!-- 1 -->
<g id="node2" class="node"><title>1</title>
<g id="a_node2"><a xlink:title="1, diversity: 2, multiplicities: 1,355, labels: 0">
<ellipse fill="#f6553c" stroke="black" cx="134.047" cy="-306" rx="37.0935" ry="18"/>
<text text-anchor="middle" x="134.047" y="-302.3" font-family="Times,serif" font-size="14.00">1 (2): 0</text>
</a>
</g>
</g>
<!-- 0&#45;&gt;1 -->
<g id="edge1" class="edge"><title>0&#45;&gt;1</title>
<path fill="none" stroke="black" d="M170.914,-360.765C165.062,-352.23 157.76,-341.582 151.203,-332.019"/>
<polygon fill="black" stroke="black" points="153.994,-329.901 145.452,-323.633 148.221,-333.86 153.994,-329.901"/>
</g>
<!-- 11 -->
<g id="node12" class="node"><title>11</title>
<g id="a_node12"><a xlink:title="11, diversity: 1, multiplicities: 1, labels: 0">
<ellipse fill="#fff5f0" stroke="black" cx="231.047" cy="-306" rx="41.6928" ry="18"/>
<text text-anchor="middle" x="231.047" y="-302.3" font-family="Times,serif" font-size="14.00">11 (1): 0</text>
</a>
</g>
</g>
<!-- 0&#45;&gt;11 -->
<g id="edge6" class="edge"><title>0&#45;&gt;11</title>
<path fill="none" stroke="black" d="M193.411,-360.765C199.386,-352.23 206.839,-341.582 213.533,-332.019"/>
<polygon fill="black" stroke="black" points="216.536,-333.833 219.403,-323.633 210.801,-329.819 216.536,-333.833"/>
</g>
<!-- 5 -->
<g id="node6" class="node"><title>5</title>
<g id="a_node6"><a xlink:title="5, diversity: 1, multiplicities: 4, labels: 0">
<ellipse fill="#fee3d6" stroke="black" cx="134.047" cy="-234" rx="37.0935" ry="18"/>
<text text-anchor="middle" x="134.047" y="-230.3" font-family="Times,serif" font-size="14.00">5 (1): 0</text>
</a>
</g>
</g>
<!-- 1&#45;&gt;5 -->
<g id="edge5" class="edge"><title>1&#45;&gt;5</title>
<path fill="none" stroke="black" d="M134.047,-287.697C134.047,-279.983 134.047,-270.712 134.047,-262.112"/>
<polygon fill="black" stroke="black" points="137.547,-262.104 134.047,-252.104 130.547,-262.104 137.547,-262.104"/>
</g>
<!-- 2 -->
<g id="node3" class="node"><title>2</title>
<g id="a_node3"><a xlink:title="2, diversity: 2, multiplicities: 74,361, labels: 0">
<ellipse fill="#f6553c" stroke="black" cx="134.047" cy="-162" rx="37.0935" ry="18"/>
<text text-anchor="middle" x="134.047" y="-158.3" font-family="Times,serif" font-size="14.00">2 (2): 0</text>
</a>
</g>
</g>
<!-- 4 -->
<g id="node5" class="node"><title>4</title>
<g id="a_node5"><a xlink:title="4, diversity: 1, multiplicities: 140, labels: 0">
<ellipse fill="#fb7c5c" stroke="black" cx="37.0467" cy="-90" rx="37.0935" ry="18"/>
<text text-anchor="middle" x="37.0467" y="-86.3" font-family="Times,serif" font-size="14.00">4 (1): 0</text>
</a>
</g>
</g>
<!-- 2&#45;&gt;4 -->
<g id="edge9" class="edge"><title>2&#45;&gt;4</title>
<path fill="none" stroke="black" d="M113.948,-146.496C99.8082,-136.292 80.6952,-122.499 65.0614,-111.217"/>
<polygon fill="black" stroke="black" points="66.9447,-108.26 56.7875,-105.246 62.8484,-113.936 66.9447,-108.26"/>
</g>
<!-- 10 -->
<g id="node11" class="node"><title>10</title>
<g id="a_node11"><a xlink:title="10, diversity: 1, multiplicities: 3, labels: 0">
<ellipse fill="#fee3d6" stroke="black" cx="134.047" cy="-90" rx="41.6928" ry="18"/>
<text text-anchor="middle" x="134.047" y="-86.3" font-family="Times,serif" font-size="14.00">10 (1): 0</text>
</a>
</g>
</g>
<!-- 2&#45;&gt;10 -->
<g id="edge4" class="edge"><title>2&#45;&gt;10</title>
<path fill="none" stroke="black" d="M134.047,-143.697C134.047,-135.983 134.047,-126.712 134.047,-118.112"/>
<polygon fill="black" stroke="black" points="137.547,-118.104 134.047,-108.104 130.547,-118.104 137.547,-118.104"/>
</g>
<!-- 3 -->
<g id="node4" class="node"><title>3</title>
<g id="a_node4"><a xlink:title="3, diversity: 1, multiplicities: 178, labels: 0">
<ellipse fill="#fb7c5c" stroke="black" cx="134.047" cy="-18" rx="37.0935" ry="18"/>
<text text-anchor="middle" x="134.047" y="-14.3" font-family="Times,serif" font-size="14.00">3 (1): 0</text>
</a>
</g>
</g>
<!-- 5&#45;&gt;2 -->
<g id="edge8" class="edge"><title>5&#45;&gt;2</title>
<path fill="none" stroke="black" d="M134.047,-215.697C134.047,-207.983 134.047,-198.712 134.047,-190.112"/>
<polygon fill="black" stroke="black" points="137.547,-190.104 134.047,-180.104 130.547,-190.104 137.547,-190.104"/>
</g>
<!-- 6 -->
<g id="node7" class="node"><title>6</title>
<g id="a_node7"><a xlink:title="6, diversity: 1, multiplicities: 3, labels: 0">
<ellipse fill="#fee3d6" stroke="black" cx="231.047" cy="-234" rx="37.0935" ry="18"/>
<text text-anchor="middle" x="231.047" y="-230.3" font-family="Times,serif" font-size="14.00">6 (1): 0</text>
</a>
</g>
</g>
<!-- 8 -->
<g id="node9" class="node"><title>8</title>
<g id="a_node9"><a xlink:title="8, diversity: 1, multiplicities: 5, labels: 0">
<ellipse fill="#fee3d6" stroke="black" cx="231.047" cy="-162" rx="37.0935" ry="18"/>
<text text-anchor="middle" x="231.047" y="-158.3" font-family="Times,serif" font-size="14.00">8 (1): 0</text>
</a>
</g>
</g>
<!-- 6&#45;&gt;8 -->
<g id="edge2" class="edge"><title>6&#45;&gt;8</title>
<path fill="none" stroke="black" d="M231.047,-215.697C231.047,-207.983 231.047,-198.712 231.047,-190.112"/>
<polygon fill="black" stroke="black" points="234.547,-190.104 231.047,-180.104 227.547,-190.104 234.547,-190.104"/>
</g>
<!-- 7 -->
<g id="node8" class="node"><title>7</title>
<g id="a_node8"><a xlink:title="7, diversity: 1, multiplicities: 3, labels: 0">
<ellipse fill="#fee3d6" stroke="black" cx="231.047" cy="-90" rx="37.0935" ry="18"/>
<text text-anchor="middle" x="231.047" y="-86.3" font-family="Times,serif" font-size="14.00">7 (1): 0</text>
</a>
</g>
</g>
<!-- 9 -->
<g id="node10" class="node"><title>9</title>
<g id="a_node10"><a xlink:title="9, diversity: 1, multiplicities: 5, labels: 0">
<ellipse fill="#fee3d6" stroke="black" cx="231.047" cy="-18" rx="37.0935" ry="18"/>
<text text-anchor="middle" x="231.047" y="-14.3" font-family="Times,serif" font-size="14.00">9 (1): 0</text>
</a>
</g>
</g>
<!-- 7&#45;&gt;9 -->
<g id="edge11" class="edge"><title>7&#45;&gt;9</title>
<path fill="none" stroke="black" d="M231.047,-71.6966C231.047,-63.9827 231.047,-54.7125 231.047,-46.1124"/>
<polygon fill="black" stroke="black" points="234.547,-46.1043 231.047,-36.1043 227.547,-46.1044 234.547,-46.1043"/>
</g>
<!-- 8&#45;&gt;7 -->
<g id="edge7" class="edge"><title>8&#45;&gt;7</title>
<path fill="none" stroke="black" d="M231.047,-143.697C231.047,-135.983 231.047,-126.712 231.047,-118.112"/>
<polygon fill="black" stroke="black" points="234.547,-118.104 231.047,-108.104 227.547,-118.104 234.547,-118.104"/>
</g>
<!-- 10&#45;&gt;3 -->
<g id="edge3" class="edge"><title>10&#45;&gt;3</title>
<path fill="none" stroke="black" d="M134.047,-71.6966C134.047,-63.9827 134.047,-54.7125 134.047,-46.1124"/>
<polygon fill="black" stroke="black" points="137.547,-46.1043 134.047,-36.1043 130.547,-46.1044 137.547,-46.1043"/>
</g>
<!-- 11&#45;&gt;6 -->
<g id="edge10" class="edge"><title>11&#45;&gt;6</title>
<path fill="none" stroke="black" d="M231.047,-287.697C231.047,-279.983 231.047,-270.712 231.047,-262.112"/>
<polygon fill="black" stroke="black" points="234.547,-262.104 231.047,-252.104 227.547,-262.104 234.547,-262.104"/>
</g>
</g>
</svg>
