<?xml version="1.0" encoding="UTF-8" standalone="no"?>
<!DOCTYPE svg PUBLIC "-//W3C//DTD SVG 1.1//EN"
 "http://www.w3.org/Graphics/SVG/1.1/DTD/svg11.dtd">
<!-- Generated by graphviz version 2.38.0 (20140413.2041)
 -->
<!-- Title: %3 Pages: 1 -->
<svg width="327pt" height="476pt"
 viewBox="0.00 0.00 326.50 476.00" xmlns="http://www.w3.org/2000/svg" xmlns:xlink="http://www.w3.org/1999/xlink">
<g id="graph0" class="graph" transform="scale(1 1) rotate(0) translate(4 472)">
<title>%3</title>
<polygon fill="white" stroke="none" points="-4,4 -4,-472 322.5,-472 322.5,4 -4,4"/>
<!-- p0 -->
<g id="node1" class="node"><title>p0</title>
<path fill="none" stroke="black" d="M47,-180C47,-180 12,-180 12,-180 6,-180 0,-174 0,-168 0,-168 0,-156 0,-156 0,-150 6,-144 12,-144 12,-144 47,-144 47,-144 53,-144 59,-150 59,-156 59,-156 59,-168 59,-168 59,-174 53,-180 47,-180"/>
<text text-anchor="middle" x="29.5" y="-158.3" font-family="Times,serif" font-size="14.00">path (3)</text>
</g>
<!-- v1 -->
<g id="node2" class="node"><title>v1</title>
<ellipse fill="none" stroke="black" cx="66.5" cy="-234" rx="27" ry="18"/>
<text text-anchor="middle" x="66.5" y="-230.3" font-family="Times,serif" font-size="14.00">1</text>
</g>
<!-- v1&#45;&gt;p0 -->
<g id="edge1" class="edge"><title>v1&#45;&gt;p0</title>
<path fill="none" stroke="black" d="M57.9185,-216.765C53.5635,-208.525 48.1674,-198.317 43.2511,-189.016"/>
<polygon fill="black" stroke="black" points="46.3187,-187.329 38.5512,-180.124 40.13,-190.6 46.3187,-187.329"/>
</g>
<!-- v35 -->
<g id="node15" class="node"><title>v35</title>
<ellipse fill="none" stroke="black" cx="104.5" cy="-162" rx="27" ry="18"/>
<text text-anchor="middle" x="104.5" y="-158.3" font-family="Times,serif" font-size="14.00">35</text>
</g>
<!-- v1&#45;&gt;v35 -->
<g id="edge10" class="edge"><title>v1&#45;&gt;v35</title>
<path fill="none" stroke="black" d="M75.3135,-216.765C79.9177,-208.283 85.655,-197.714 90.8214,-188.197"/>
<polygon fill="black" stroke="black" points="94.0393,-189.606 95.7343,-179.147 87.8874,-186.266 94.0393,-189.606"/>
</g>
<!-- p1 -->
<g id="node3" class="node"><title>p1</title>
<path fill="none" stroke="black" d="M160,-36C160,-36 125,-36 125,-36 119,-36 113,-30 113,-24 113,-24 113,-12 113,-12 113,-6 119,-0 125,-0 125,-0 160,-0 160,-0 166,-0 172,-6 172,-12 172,-12 172,-24 172,-24 172,-30 166,-36 160,-36"/>
<text text-anchor="middle" x="142.5" y="-14.3" font-family="Times,serif" font-size="14.00">path (3)</text>
</g>
<!-- p2 -->
<g id="node4" class="node"><title>p2</title>
<path fill="none" stroke="black" d="M237,-36C237,-36 202,-36 202,-36 196,-36 190,-30 190,-24 190,-24 190,-12 190,-12 190,-6 196,-0 202,-0 202,-0 237,-0 237,-0 243,-0 249,-6 249,-12 249,-12 249,-24 249,-24 249,-30 243,-36 237,-36"/>
<text text-anchor="middle" x="219.5" y="-14.3" font-family="Times,serif" font-size="14.00">path (2)</text>
</g>
<!-- v5 -->
<g id="node5" class="node"><title>v5</title>
<ellipse fill="none" stroke="black" cx="67.5" cy="-18" rx="27" ry="18"/>
<text text-anchor="middle" x="67.5" y="-14.3" font-family="Times,serif" font-size="14.00">5</text>
</g>
<!-- v7 -->
<g id="node7" class="node"><title>v7</title>
<ellipse fill="none" stroke="black" cx="104.5" cy="-90" rx="27" ry="18"/>
<text text-anchor="middle" x="104.5" y="-86.3" font-family="Times,serif" font-size="14.00">7</text>
</g>
<!-- v5&#45;&gt;v7 -->
<g id="edge11" class="edge"><title>v5&#45;&gt;v7</title>
<path fill="none" stroke="black" d="M81.0107,-33.888C86.4901,-42.2757 92.4623,-52.9958 97.1829,-62.7479"/>
<polygon fill="black" stroke="black" points="94.0916,-64.405 101.422,-72.055 100.462,-61.5036 94.0916,-64.405"/>
</g>
<!-- v6 -->
<g id="node6" class="node"><title>v6</title>
<ellipse fill="none" stroke="black" cx="217.5" cy="-306" rx="27" ry="18"/>
<text text-anchor="middle" x="217.5" y="-302.3" font-family="Times,serif" font-size="14.00">6</text>
</g>
<!-- p4 -->
<g id="node9" class="node"><title>p4</title>
<path fill="none" stroke="black" d="M234,-252C234,-252 199,-252 199,-252 193,-252 187,-246 187,-240 187,-240 187,-228 187,-228 187,-222 193,-216 199,-216 199,-216 234,-216 234,-216 240,-216 246,-222 246,-228 246,-228 246,-240 246,-240 246,-246 240,-252 234,-252"/>
<text text-anchor="middle" x="216.5" y="-230.3" font-family="Times,serif" font-size="14.00">path (5)</text>
</g>
<!-- v6&#45;&gt;p4 -->
<g id="edge5" class="edge"><title>v6&#45;&gt;p4</title>
<path fill="none" stroke="black" d="M217.253,-287.697C217.143,-279.983 217.01,-270.712 216.887,-262.112"/>
<polygon fill="black" stroke="black" points="220.387,-262.053 216.744,-252.104 213.388,-262.153 220.387,-262.053"/>
</g>
<!-- v20 -->
<g id="node12" class="node"><title>v20</title>
<ellipse fill="none" stroke="black" cx="291.5" cy="-234" rx="27" ry="18"/>
<text text-anchor="middle" x="291.5" y="-230.3" font-family="Times,serif" font-size="14.00">20</text>
</g>
<!-- v6&#45;&gt;v20 -->
<g id="edge13" class="edge"><title>v6&#45;&gt;v20</title>
<path fill="none" stroke="black" d="M232.475,-290.834C243.007,-280.872 257.282,-267.369 269.155,-256.137"/>
<polygon fill="black" stroke="black" points="271.688,-258.559 276.547,-249.144 266.877,-253.474 271.688,-258.559"/>
</g>
<!-- v7&#45;&gt;p1 -->
<g id="edge7" class="edge"><title>v7&#45;&gt;p1</title>
<path fill="none" stroke="black" d="M113.313,-72.7646C117.786,-64.5255 123.328,-54.3166 128.377,-45.0157"/>
<polygon fill="black" stroke="black" points="131.509,-46.5823 133.204,-36.1239 125.357,-43.2426 131.509,-46.5823"/>
</g>
<!-- v7&#45;&gt;p2 -->
<g id="edge12" class="edge"><title>v7&#45;&gt;p2</title>
<path fill="none" stroke="black" d="M123.748,-77.2836C139.829,-67.4957 163.213,-53.2616 182.847,-41.3106"/>
<polygon fill="black" stroke="black" points="184.842,-44.1936 191.564,-36.0044 181.202,-38.2142 184.842,-44.1936"/>
</g>
<!-- v7&#45;&gt;v5 -->
<g id="edge9" class="edge"><title>v7&#45;&gt;v5</title>
<path fill="none" stroke="black" d="M91.0173,-74.1548C85.5475,-65.7872 79.5832,-55.0881 74.8616,-45.344"/>
<polygon fill="black" stroke="black" points="77.9525,-43.6863 70.6186,-36.04 71.5835,-46.5908 77.9525,-43.6863"/>
</g>
<!-- p3 -->
<g id="node8" class="node"><title>p3</title>
<path fill="none" stroke="black" d="M154,-396C154,-396 119,-396 119,-396 113,-396 107,-390 107,-384 107,-384 107,-372 107,-372 107,-366 113,-360 119,-360 119,-360 154,-360 154,-360 160,-360 166,-366 166,-372 166,-372 166,-384 166,-384 166,-390 160,-396 154,-396"/>
<text text-anchor="middle" x="136.5" y="-374.3" font-family="Times,serif" font-size="14.00">path (4)</text>
</g>
<!-- v18 -->
<g id="node11" class="node"><title>v18</title>
<ellipse fill="none" stroke="black" cx="136.5" cy="-306" rx="27" ry="18"/>
<text text-anchor="middle" x="136.5" y="-302.3" font-family="Times,serif" font-size="14.00">18</text>
</g>
<!-- p3&#45;&gt;v18 -->
<g id="edge4" class="edge"><title>p3&#45;&gt;v18</title>
<path fill="none" stroke="black" d="M136.5,-359.697C136.5,-351.983 136.5,-342.712 136.5,-334.112"/>
<polygon fill="black" stroke="black" points="140,-334.104 136.5,-324.104 133,-334.104 140,-334.104"/>
</g>
<!-- p5 -->
<g id="node10" class="node"><title>p5</title>
<path fill="none" stroke="black" d="M238.5,-396C238.5,-396 196.5,-396 196.5,-396 190.5,-396 184.5,-390 184.5,-384 184.5,-384 184.5,-372 184.5,-372 184.5,-366 190.5,-360 196.5,-360 196.5,-360 238.5,-360 238.5,-360 244.5,-360 250.5,-366 250.5,-372 250.5,-372 250.5,-384 250.5,-384 250.5,-390 244.5,-396 238.5,-396"/>
<text text-anchor="middle" x="217.5" y="-374.3" font-family="Times,serif" font-size="14.00">path (10)</text>
</g>
<!-- p5&#45;&gt;v6 -->
<g id="edge3" class="edge"><title>p5&#45;&gt;v6</title>
<path fill="none" stroke="black" d="M217.5,-359.697C217.5,-351.983 217.5,-342.712 217.5,-334.112"/>
<polygon fill="black" stroke="black" points="221,-334.104 217.5,-324.104 214,-334.104 221,-334.104"/>
</g>
<!-- v18&#45;&gt;v1 -->
<g id="edge2" class="edge"><title>v18&#45;&gt;v1</title>
<path fill="none" stroke="black" d="M121.996,-290.496C112.235,-280.735 99.1897,-267.69 88.1999,-256.7"/>
<polygon fill="black" stroke="black" points="90.5314,-254.082 80.9855,-249.485 85.5817,-259.031 90.5314,-254.082"/>
</g>
<!-- v27 -->
<g id="node13" class="node"><title>v27</title>
<ellipse fill="none" stroke="black" cx="138.5" cy="-234" rx="27" ry="18"/>
<text text-anchor="middle" x="138.5" y="-230.3" font-family="Times,serif" font-size="14.00">27</text>
</g>
<!-- v18&#45;&gt;v27 -->
<g id="edge6" class="edge"><title>v18&#45;&gt;v27</title>
<path fill="none" stroke="black" d="M136.994,-287.697C137.215,-279.983 137.48,-270.712 137.725,-262.112"/>
<polygon fill="black" stroke="black" points="141.224,-262.2 138.011,-252.104 134.227,-262 141.224,-262.2"/>
</g>
<!-- v28 -->
<g id="node14" class="node"><title>v28</title>
<ellipse fill="none" stroke="black" cx="176.5" cy="-450" rx="27" ry="18"/>
<text text-anchor="middle" x="176.5" y="-446.3" font-family="Times,serif" font-size="14.00">28</text>
</g>
<!-- v28&#45;&gt;p3 -->
<g id="edge14" class="edge"><title>v28&#45;&gt;p3</title>
<path fill="none" stroke="black" d="M167.223,-432.765C162.515,-424.525 156.681,-414.317 151.366,-405.016"/>
<polygon fill="black" stroke="black" points="154.285,-403.07 146.285,-396.124 148.208,-406.543 154.285,-403.07"/>
</g>
<!-- v28&#45;&gt;p5 -->
<g id="edge15" class="edge"><title>v28&#45;&gt;p5</title>
<path fill="none" stroke="black" d="M186.009,-432.765C190.835,-424.525 196.815,-414.317 202.262,-405.016"/>
<polygon fill="black" stroke="black" points="205.436,-406.522 207.47,-396.124 199.396,-402.984 205.436,-406.522"/>
</g>
<!-- v35&#45;&gt;v7 -->
<g id="edge8" class="edge"><title>v35&#45;&gt;v7</title>
<path fill="none" stroke="black" d="M104.5,-143.697C104.5,-135.983 104.5,-126.712 104.5,-118.112"/>
<polygon fill="black" stroke="black" points="108,-118.104 104.5,-108.104 101,-118.104 108,-118.104"/>
</g>
</g>
</svg>
