<?xml version="1.0" encoding="UTF-8" standalone="no"?>
<!DOCTYPE svg PUBLIC "-//W3C//DTD SVG 1.1//EN"
 "http://www.w3.org/Graphics/SVG/1.1/DTD/svg11.dtd">
<!-- Generated by graphviz version 2.38.0 (20140413.2041)
 -->
<!-- Title: %3 Pages: 1 -->
<svg width="874pt" height="620pt"
 viewBox="0.00 0.00 874.00 620.00" xmlns="http://www.w3.org/2000/svg" xmlns:xlink="http://www.w3.org/1999/xlink">
<g id="graph0" class="graph" transform="scale(1 1) rotate(0) translate(4 616)">
<title>%3</title>
<polygon fill="white" stroke="none" points="-4,4 -4,-616 870,-616 870,4 -4,4"/>
<!-- v0 -->
<g id="node1" class="node"><title>v0</title>
<ellipse fill="none" stroke="black" cx="106.5" cy="-234" rx="27" ry="18"/>
<text text-anchor="middle" x="106.5" y="-230.3" font-family="Times,serif" font-size="14.00">0</text>
</g>
<!-- p9 -->
<g id="node17" class="node"><title>p9</title>
<path fill="none" stroke="black" d="M47,-180C47,-180 12,-180 12,-180 6,-180 0,-174 0,-168 0,-168 0,-156 0,-156 0,-150 6,-144 12,-144 12,-144 47,-144 47,-144 53,-144 59,-150 59,-156 59,-156 59,-168 59,-168 59,-174 53,-180 47,-180"/>
<text text-anchor="middle" x="29.5" y="-158.3" font-family="Times,serif" font-size="14.00">path (2)</text>
</g>
<!-- v0&#45;&gt;p9 -->
<g id="edge23" class="edge"><title>v0&#45;&gt;p9</title>
<path fill="none" stroke="black" d="M90.9179,-218.834C80.9205,-209.746 67.6815,-197.71 56.0555,-187.141"/>
<polygon fill="black" stroke="black" points="58.0778,-184.25 48.324,-180.113 53.3691,-189.429 58.0778,-184.25"/>
</g>
<!-- p12 -->
<g id="node23" class="node"><title>p12</title>
<path fill="none" stroke="black" d="M124,-180C124,-180 89,-180 89,-180 83,-180 77,-174 77,-168 77,-168 77,-156 77,-156 77,-150 83,-144 89,-144 89,-144 124,-144 124,-144 130,-144 136,-150 136,-156 136,-156 136,-168 136,-168 136,-174 130,-180 124,-180"/>
<text text-anchor="middle" x="106.5" y="-158.3" font-family="Times,serif" font-size="14.00">path (5)</text>
</g>
<!-- v0&#45;&gt;p12 -->
<g id="edge32" class="edge"><title>v0&#45;&gt;p12</title>
<path fill="none" stroke="black" d="M106.5,-215.697C106.5,-207.983 106.5,-198.712 106.5,-190.112"/>
<polygon fill="black" stroke="black" points="110,-190.104 106.5,-180.104 103,-190.104 110,-190.104"/>
</g>
<!-- v1 -->
<g id="node2" class="node"><title>v1</title>
<ellipse fill="none" stroke="black" cx="453.5" cy="-594" rx="27" ry="18"/>
<text text-anchor="middle" x="453.5" y="-590.3" font-family="Times,serif" font-size="14.00">1</text>
</g>
<!-- v2 -->
<g id="node3" class="node"><title>v2</title>
<ellipse fill="none" stroke="black" cx="416.5" cy="-522" rx="27" ry="18"/>
<text text-anchor="middle" x="416.5" y="-518.3" font-family="Times,serif" font-size="14.00">2</text>
</g>
<!-- v1&#45;&gt;v2 -->
<g id="edge21" class="edge"><title>v1&#45;&gt;v2</title>
<path fill="none" stroke="black" d="M444.918,-576.765C440.435,-568.283 434.849,-557.714 429.819,-548.197"/>
<polygon fill="black" stroke="black" points="432.802,-546.353 425.035,-539.147 426.614,-549.624 432.802,-546.353"/>
</g>
<!-- p7 -->
<g id="node11" class="node"><title>p7</title>
<path fill="none" stroke="black" d="M509,-540C509,-540 474,-540 474,-540 468,-540 462,-534 462,-528 462,-528 462,-516 462,-516 462,-510 468,-504 474,-504 474,-504 509,-504 509,-504 515,-504 521,-510 521,-516 521,-516 521,-528 521,-528 521,-534 515,-540 509,-540"/>
<text text-anchor="middle" x="491.5" y="-518.3" font-family="Times,serif" font-size="14.00">path (2)</text>
</g>
<!-- v1&#45;&gt;p7 -->
<g id="edge11" class="edge"><title>v1&#45;&gt;p7</title>
<path fill="none" stroke="black" d="M462.313,-576.765C466.786,-568.525 472.328,-558.317 477.377,-549.016"/>
<polygon fill="black" stroke="black" points="480.509,-550.582 482.204,-540.124 474.357,-547.243 480.509,-550.582"/>
</g>
<!-- v24 -->
<g id="node19" class="node"><title>v24</title>
<ellipse fill="none" stroke="black" cx="271.5" cy="-450" rx="27" ry="18"/>
<text text-anchor="middle" x="271.5" y="-446.3" font-family="Times,serif" font-size="14.00">24</text>
</g>
<!-- v2&#45;&gt;v24 -->
<g id="edge28" class="edge"><title>v2&#45;&gt;v24</title>
<path fill="none" stroke="black" d="M395.105,-510.671C370.581,-498.832 330.186,-479.331 302.285,-465.862"/>
<polygon fill="black" stroke="black" points="303.51,-462.567 292.983,-461.371 300.467,-468.871 303.51,-462.567"/>
</g>
<!-- v31 -->
<g id="node26" class="node"><title>v31</title>
<ellipse fill="none" stroke="black" cx="343.5" cy="-450" rx="27" ry="18"/>
<text text-anchor="middle" x="343.5" y="-446.3" font-family="Times,serif" font-size="14.00">31</text>
</g>
<!-- v2&#45;&gt;v31 -->
<g id="edge22" class="edge"><title>v2&#45;&gt;v31</title>
<path fill="none" stroke="black" d="M401.727,-506.834C391.338,-496.872 377.256,-483.369 365.543,-472.137"/>
<polygon fill="black" stroke="black" points="367.891,-469.539 358.251,-465.144 363.046,-474.592 367.891,-469.539"/>
</g>
<!-- v34 -->
<g id="node28" class="node"><title>v34</title>
<ellipse fill="none" stroke="black" cx="416.5" cy="-450" rx="27" ry="18"/>
<text text-anchor="middle" x="416.5" y="-446.3" font-family="Times,serif" font-size="14.00">34</text>
</g>
<!-- v2&#45;&gt;v34 -->
<g id="edge9" class="edge"><title>v2&#45;&gt;v34</title>
<path fill="none" stroke="black" d="M416.5,-503.697C416.5,-495.983 416.5,-486.712 416.5,-478.112"/>
<polygon fill="black" stroke="black" points="420,-478.104 416.5,-468.104 413,-478.104 420,-478.104"/>
</g>
<!-- v35 -->
<g id="node29" class="node"><title>v35</title>
<ellipse fill="none" stroke="black" cx="532.5" cy="-450" rx="27" ry="18"/>
<text text-anchor="middle" x="532.5" y="-446.3" font-family="Times,serif" font-size="14.00">35</text>
</g>
<!-- v2&#45;&gt;v35 -->
<g id="edge16" class="edge"><title>v2&#45;&gt;v35</title>
<path fill="none" stroke="black" d="M435.916,-509.284C454.652,-497.977 483.22,-480.738 504.431,-467.938"/>
<polygon fill="black" stroke="black" points="506.267,-470.918 513.021,-462.755 502.651,-464.925 506.267,-470.918"/>
</g>
<!-- v43 -->
<g id="node33" class="node"><title>v43</title>
<ellipse fill="none" stroke="black" cx="720.5" cy="-450" rx="27" ry="18"/>
<text text-anchor="middle" x="720.5" y="-446.3" font-family="Times,serif" font-size="14.00">43</text>
</g>
<!-- v2&#45;&gt;v43 -->
<g id="edge24" class="edge"><title>v2&#45;&gt;v43</title>
<path fill="none" stroke="black" d="M437.084,-510.219C442.037,-507.924 447.379,-505.687 452.5,-504 532.996,-477.484 631.691,-462.163 683.961,-455.327"/>
<polygon fill="black" stroke="black" points="684.606,-458.773 694.082,-454.034 683.719,-451.829 684.606,-458.773"/>
</g>
<!-- p0 -->
<g id="node4" class="node"><title>p0</title>
<path fill="none" stroke="black" d="M201,-180C201,-180 166,-180 166,-180 160,-180 154,-174 154,-168 154,-168 154,-156 154,-156 154,-150 160,-144 166,-144 166,-144 201,-144 201,-144 207,-144 213,-150 213,-156 213,-156 213,-168 213,-168 213,-174 207,-180 201,-180"/>
<text text-anchor="middle" x="183.5" y="-158.3" font-family="Times,serif" font-size="14.00">path (8)</text>
</g>
<!-- p1 -->
<g id="node5" class="node"><title>p1</title>
<path fill="none" stroke="black" d="M278,-180C278,-180 243,-180 243,-180 237,-180 231,-174 231,-168 231,-168 231,-156 231,-156 231,-150 237,-144 243,-144 243,-144 278,-144 278,-144 284,-144 290,-150 290,-156 290,-156 290,-168 290,-168 290,-174 284,-180 278,-180"/>
<text text-anchor="middle" x="260.5" y="-158.3" font-family="Times,serif" font-size="14.00">path (4)</text>
</g>
<!-- p2 -->
<g id="node6" class="node"><title>p2</title>
<path fill="none" stroke="black" d="M355,-180C355,-180 320,-180 320,-180 314,-180 308,-174 308,-168 308,-168 308,-156 308,-156 308,-150 314,-144 320,-144 320,-144 355,-144 355,-144 361,-144 367,-150 367,-156 367,-156 367,-168 367,-168 367,-174 361,-180 355,-180"/>
<text text-anchor="middle" x="337.5" y="-158.3" font-family="Times,serif" font-size="14.00">path (9)</text>
</g>
<!-- p3 -->
<g id="node7" class="node"><title>p3</title>
<path fill="none" stroke="black" d="M548,-36C548,-36 513,-36 513,-36 507,-36 501,-30 501,-24 501,-24 501,-12 501,-12 501,-6 507,-0 513,-0 513,-0 548,-0 548,-0 554,-0 560,-6 560,-12 560,-12 560,-24 560,-24 560,-30 554,-36 548,-36"/>
<text text-anchor="middle" x="530.5" y="-14.3" font-family="Times,serif" font-size="14.00">path (2)</text>
</g>
<!-- p4 -->
<g id="node8" class="node"><title>p4</title>
<path fill="none" stroke="black" d="M432,-180C432,-180 397,-180 397,-180 391,-180 385,-174 385,-168 385,-168 385,-156 385,-156 385,-150 391,-144 397,-144 397,-144 432,-144 432,-144 438,-144 444,-150 444,-156 444,-156 444,-168 444,-168 444,-174 438,-180 432,-180"/>
<text text-anchor="middle" x="414.5" y="-158.3" font-family="Times,serif" font-size="14.00">path (2)</text>
</g>
<!-- p5 -->
<g id="node9" class="node"><title>p5</title>
<path fill="none" stroke="black" d="M246,-396C246,-396 211,-396 211,-396 205,-396 199,-390 199,-384 199,-384 199,-372 199,-372 199,-366 205,-360 211,-360 211,-360 246,-360 246,-360 252,-360 258,-366 258,-372 258,-372 258,-384 258,-384 258,-390 252,-396 246,-396"/>
<text text-anchor="middle" x="228.5" y="-374.3" font-family="Times,serif" font-size="14.00">path (2)</text>
</g>
<!-- p6 -->
<g id="node10" class="node"><title>p6</title>
<path fill="none" stroke="black" d="M700,-396C700,-396 665,-396 665,-396 659,-396 653,-390 653,-384 653,-384 653,-372 653,-372 653,-366 659,-360 665,-360 665,-360 700,-360 700,-360 706,-360 712,-366 712,-372 712,-372 712,-384 712,-384 712,-390 706,-396 700,-396"/>
<text text-anchor="middle" x="682.5" y="-374.3" font-family="Times,serif" font-size="14.00">path (7)</text>
</g>
<!-- v11 -->
<g id="node12" class="node"><title>v11</title>
<ellipse fill="none" stroke="black" cx="641.5" cy="-90" rx="27" ry="18"/>
<text text-anchor="middle" x="641.5" y="-86.3" font-family="Times,serif" font-size="14.00">11</text>
</g>
<!-- v11&#45;&gt;p3 -->
<g id="edge8" class="edge"><title>v11&#45;&gt;p3</title>
<path fill="none" stroke="black" d="M622.418,-76.9666C607.007,-67.2478 584.889,-53.2992 566.211,-41.5203"/>
<polygon fill="black" stroke="black" points="567.961,-38.4865 557.636,-36.1127 564.227,-44.4075 567.961,-38.4865"/>
</g>
<!-- v27 -->
<g id="node22" class="node"><title>v27</title>
<ellipse fill="none" stroke="black" cx="605.5" cy="-18" rx="27" ry="18"/>
<text text-anchor="middle" x="605.5" y="-14.3" font-family="Times,serif" font-size="14.00">27</text>
</g>
<!-- v11&#45;&gt;v27 -->
<g id="edge17" class="edge"><title>v11&#45;&gt;v27</title>
<path fill="none" stroke="black" d="M633.15,-72.7646C628.788,-64.2831 623.353,-53.7144 618.459,-44.1974"/>
<polygon fill="black" stroke="black" points="621.49,-42.4395 613.804,-35.1473 615.265,-45.6409 621.49,-42.4395"/>
</g>
<!-- v42 -->
<g id="node32" class="node"><title>v42</title>
<ellipse fill="none" stroke="black" cx="677.5" cy="-18" rx="27" ry="18"/>
<text text-anchor="middle" x="677.5" y="-14.3" font-family="Times,serif" font-size="14.00">42</text>
</g>
<!-- v11&#45;&gt;v42 -->
<g id="edge20" class="edge"><title>v11&#45;&gt;v42</title>
<path fill="none" stroke="black" d="M649.85,-72.7646C654.212,-64.2831 659.647,-53.7144 664.541,-44.1974"/>
<polygon fill="black" stroke="black" points="667.735,-45.6409 669.196,-35.1473 661.51,-42.4395 667.735,-45.6409"/>
</g>
<!-- v58 -->
<g id="node35" class="node"><title>v58</title>
<ellipse fill="none" stroke="black" cx="749.5" cy="-18" rx="27" ry="18"/>
<text text-anchor="middle" x="749.5" y="-14.3" font-family="Times,serif" font-size="14.00">58</text>
</g>
<!-- v11&#45;&gt;v58 -->
<g id="edge34" class="edge"><title>v11&#45;&gt;v58</title>
<path fill="none" stroke="black" d="M660.312,-76.8069C677.502,-65.6653 703.118,-49.0622 722.493,-36.5043"/>
<polygon fill="black" stroke="black" points="724.416,-39.4294 730.903,-31.0533 720.608,-33.5553 724.416,-39.4294"/>
</g>
<!-- v12 -->
<g id="node13" class="node"><title>v12</title>
<ellipse fill="none" stroke="black" cx="303.5" cy="-378" rx="27" ry="18"/>
<text text-anchor="middle" x="303.5" y="-374.3" font-family="Times,serif" font-size="14.00">12</text>
</g>
<!-- v13 -->
<g id="node14" class="node"><title>v13</title>
<ellipse fill="none" stroke="black" cx="342.5" cy="-234" rx="27" ry="18"/>
<text text-anchor="middle" x="342.5" y="-230.3" font-family="Times,serif" font-size="14.00">13</text>
</g>
<!-- v15 -->
<g id="node15" class="node"><title>v15</title>
<ellipse fill="none" stroke="black" cx="489.5" cy="-162" rx="27" ry="18"/>
<text text-anchor="middle" x="489.5" y="-158.3" font-family="Times,serif" font-size="14.00">15</text>
</g>
<!-- p8 -->
<g id="node16" class="node"><title>p8</title>
<path fill="none" stroke="black" d="M396,-396C396,-396 361,-396 361,-396 355,-396 349,-390 349,-384 349,-384 349,-372 349,-372 349,-366 355,-360 361,-360 361,-360 396,-360 396,-360 402,-360 408,-366 408,-372 408,-372 408,-384 408,-384 408,-390 402,-396 396,-396"/>
<text text-anchor="middle" x="378.5" y="-374.3" font-family="Times,serif" font-size="14.00">path (3)</text>
</g>
<!-- v30 -->
<g id="node25" class="node"><title>v30</title>
<ellipse fill="none" stroke="black" cx="378.5" cy="-306" rx="27" ry="18"/>
<text text-anchor="middle" x="378.5" y="-302.3" font-family="Times,serif" font-size="14.00">30</text>
</g>
<!-- p8&#45;&gt;v30 -->
<g id="edge35" class="edge"><title>p8&#45;&gt;v30</title>
<path fill="none" stroke="black" d="M378.5,-359.697C378.5,-351.983 378.5,-342.712 378.5,-334.112"/>
<polygon fill="black" stroke="black" points="382,-334.104 378.5,-324.104 375,-334.104 382,-334.104"/>
</g>
<!-- p10 -->
<g id="node18" class="node"><title>p10</title>
<path fill="none" stroke="black" d="M473,-396C473,-396 438,-396 438,-396 432,-396 426,-390 426,-384 426,-384 426,-372 426,-372 426,-366 432,-360 438,-360 438,-360 473,-360 473,-360 479,-360 485,-366 485,-372 485,-372 485,-384 485,-384 485,-390 479,-396 473,-396"/>
<text text-anchor="middle" x="455.5" y="-374.3" font-family="Times,serif" font-size="14.00">path (3)</text>
</g>
<!-- v25 -->
<g id="node20" class="node"><title>v25</title>
<ellipse fill="none" stroke="black" cx="414.5" cy="-234" rx="27" ry="18"/>
<text text-anchor="middle" x="414.5" y="-230.3" font-family="Times,serif" font-size="14.00">25</text>
</g>
<!-- v25&#45;&gt;p0 -->
<g id="edge14" class="edge"><title>v25&#45;&gt;p0</title>
<path fill="none" stroke="black" d="M393.879,-222.331C388.927,-220.031 383.595,-217.764 378.5,-216 313.758,-193.586 291.316,-201.915 222.683,-180.057"/>
<polygon fill="black" stroke="black" points="223.745,-176.722 213.152,-176.925 221.559,-183.372 223.745,-176.722"/>
</g>
<!-- v25&#45;&gt;p1 -->
<g id="edge3" class="edge"><title>v25&#45;&gt;p1</title>
<path fill="none" stroke="black" d="M393.211,-222.865C388.382,-220.589 383.271,-218.198 378.5,-216 370.782,-212.445 330.949,-194.57 299.669,-180.549"/>
<polygon fill="black" stroke="black" points="300.839,-177.237 290.282,-176.341 297.976,-183.625 300.839,-177.237"/>
</g>
<!-- v25&#45;&gt;p2 -->
<g id="edge26" class="edge"><title>v25&#45;&gt;p2</title>
<path fill="none" stroke="black" d="M398.918,-218.834C388.921,-209.746 375.682,-197.71 364.055,-187.141"/>
<polygon fill="black" stroke="black" points="366.078,-184.25 356.324,-180.113 361.369,-189.429 366.078,-184.25"/>
</g>
<!-- v25&#45;&gt;p4 -->
<g id="edge30" class="edge"><title>v25&#45;&gt;p4</title>
<path fill="none" stroke="black" d="M414.5,-215.697C414.5,-207.983 414.5,-198.712 414.5,-190.112"/>
<polygon fill="black" stroke="black" points="418,-190.104 414.5,-180.104 411,-190.104 418,-190.104"/>
</g>
<!-- v25&#45;&gt;v15 -->
<g id="edge18" class="edge"><title>v25&#45;&gt;v15</title>
<path fill="none" stroke="black" d="M429.677,-218.834C440.351,-208.872 454.819,-195.369 466.853,-184.137"/>
<polygon fill="black" stroke="black" points="469.423,-186.526 474.345,-177.144 464.646,-181.409 469.423,-186.526"/>
</g>
<!-- p13 -->
<g id="node24" class="node"><title>p13</title>
<path fill="none" stroke="black" d="M582,-180C582,-180 547,-180 547,-180 541,-180 535,-174 535,-168 535,-168 535,-156 535,-156 535,-150 541,-144 547,-144 547,-144 582,-144 582,-144 588,-144 594,-150 594,-156 594,-156 594,-168 594,-168 594,-174 588,-180 582,-180"/>
<text text-anchor="middle" x="564.5" y="-158.3" font-family="Times,serif" font-size="14.00">path (7)</text>
</g>
<!-- v25&#45;&gt;p13 -->
<g id="edge33" class="edge"><title>v25&#45;&gt;p13</title>
<path fill="none" stroke="black" d="M435.81,-222.911C440.638,-220.633 445.743,-218.229 450.5,-216 475.464,-204.303 503.545,-191.246 525.591,-181.019"/>
<polygon fill="black" stroke="black" points="527.352,-184.06 534.952,-176.678 524.408,-177.71 527.352,-184.06"/>
</g>
<!-- p15 -->
<g id="node30" class="node"><title>p15</title>
<path fill="none" stroke="black" d="M659,-180C659,-180 624,-180 624,-180 618,-180 612,-174 612,-168 612,-168 612,-156 612,-156 612,-150 618,-144 624,-144 624,-144 659,-144 659,-144 665,-144 671,-150 671,-156 671,-156 671,-168 671,-168 671,-174 665,-180 659,-180"/>
<text text-anchor="middle" x="641.5" y="-158.3" font-family="Times,serif" font-size="14.00">path (2)</text>
</g>
<!-- v25&#45;&gt;p15 -->
<g id="edge1" class="edge"><title>v25&#45;&gt;p15</title>
<path fill="none" stroke="black" d="M435.131,-222.357C440.082,-220.056 445.412,-217.782 450.5,-216 516.022,-193.053 536.64,-201.958 602.5,-180 602.596,-179.968 602.693,-179.936 602.789,-179.903"/>
<polygon fill="black" stroke="black" points="603.726,-183.288 611.903,-176.551 601.31,-176.718 603.726,-183.288"/>
</g>
<!-- v38 -->
<g id="node31" class="node"><title>v38</title>
<ellipse fill="none" stroke="black" cx="716.5" cy="-162" rx="27" ry="18"/>
<text text-anchor="middle" x="716.5" y="-158.3" font-family="Times,serif" font-size="14.00">38</text>
</g>
<!-- v25&#45;&gt;v38 -->
<g id="edge7" class="edge"><title>v25&#45;&gt;v38</title>
<path fill="none" stroke="black" d="M435.037,-222.073C439.992,-219.783 445.347,-217.586 450.5,-216 548.97,-185.696 580.872,-209.788 679.5,-180 681.784,-179.31 684.109,-178.507 686.424,-177.632"/>
<polygon fill="black" stroke="black" points="687.876,-180.818 695.758,-173.739 685.181,-174.358 687.876,-180.818"/>
</g>
<!-- p11 -->
<g id="node21" class="node"><title>p11</title>
<path fill="none" stroke="black" d="M550,-396C550,-396 515,-396 515,-396 509,-396 503,-390 503,-384 503,-384 503,-372 503,-372 503,-366 509,-360 515,-360 515,-360 550,-360 550,-360 556,-360 562,-366 562,-372 562,-372 562,-384 562,-384 562,-390 556,-396 550,-396"/>
<text text-anchor="middle" x="532.5" y="-374.3" font-family="Times,serif" font-size="14.00">path (2)</text>
</g>
<!-- v30&#45;&gt;v0 -->
<g id="edge31" class="edge"><title>v30&#45;&gt;v0</title>
<path fill="none" stroke="black" d="M353.398,-298.54C304.617,-285.986 196.938,-258.275 141.299,-243.956"/>
<polygon fill="black" stroke="black" points="142.098,-240.547 131.541,-241.444 140.353,-247.326 142.098,-240.547"/>
</g>
<!-- v30&#45;&gt;v13 -->
<g id="edge10" class="edge"><title>v30&#45;&gt;v13</title>
<path fill="none" stroke="black" d="M370.15,-288.765C365.788,-280.283 360.353,-269.714 355.459,-260.197"/>
<polygon fill="black" stroke="black" points="358.49,-258.439 350.804,-251.147 352.265,-261.641 358.49,-258.439"/>
</g>
<!-- v30&#45;&gt;v25 -->
<g id="edge29" class="edge"><title>v30&#45;&gt;v25</title>
<path fill="none" stroke="black" d="M386.85,-288.765C391.212,-280.283 396.647,-269.714 401.541,-260.197"/>
<polygon fill="black" stroke="black" points="404.735,-261.641 406.196,-251.147 398.51,-258.439 404.735,-261.641"/>
</g>
<!-- v62 -->
<g id="node36" class="node"><title>v62</title>
<ellipse fill="none" stroke="black" cx="486.5" cy="-234" rx="27" ry="18"/>
<text text-anchor="middle" x="486.5" y="-230.3" font-family="Times,serif" font-size="14.00">62</text>
</g>
<!-- v30&#45;&gt;v62 -->
<g id="edge27" class="edge"><title>v30&#45;&gt;v62</title>
<path fill="none" stroke="black" d="M397.312,-292.807C414.502,-281.665 440.118,-265.062 459.493,-252.504"/>
<polygon fill="black" stroke="black" points="461.416,-255.429 467.903,-247.053 457.608,-249.555 461.416,-255.429"/>
</g>
<!-- v31&#45;&gt;p5 -->
<g id="edge4" class="edge"><title>v31&#45;&gt;p5</title>
<path fill="none" stroke="black" d="M324.252,-437.284C308.171,-427.496 284.787,-413.262 265.153,-401.311"/>
<polygon fill="black" stroke="black" points="266.798,-398.214 256.436,-396.004 263.158,-404.194 266.798,-398.214"/>
</g>
<!-- v31&#45;&gt;v12 -->
<g id="edge13" class="edge"><title>v31&#45;&gt;v12</title>
<path fill="none" stroke="black" d="M334.223,-432.765C329.326,-424.195 323.211,-413.494 317.729,-403.9"/>
<polygon fill="black" stroke="black" points="320.727,-402.093 312.727,-395.147 314.65,-405.566 320.727,-402.093"/>
</g>
<!-- p14 -->
<g id="node27" class="node"><title>p14</title>
<path fill="none" stroke="black" d="M777,-396C777,-396 742,-396 742,-396 736,-396 730,-390 730,-384 730,-384 730,-372 730,-372 730,-366 736,-360 742,-360 742,-360 777,-360 777,-360 783,-360 789,-366 789,-372 789,-372 789,-384 789,-384 789,-390 783,-396 777,-396"/>
<text text-anchor="middle" x="759.5" y="-374.3" font-family="Times,serif" font-size="14.00">path (2)</text>
</g>
<!-- v34&#45;&gt;p8 -->
<g id="edge15" class="edge"><title>v34&#45;&gt;p8</title>
<path fill="none" stroke="black" d="M407.687,-432.765C403.214,-424.525 397.672,-414.317 392.623,-405.016"/>
<polygon fill="black" stroke="black" points="395.643,-403.243 387.796,-396.124 389.491,-406.582 395.643,-403.243"/>
</g>
<!-- v34&#45;&gt;p10 -->
<g id="edge25" class="edge"><title>v34&#45;&gt;p10</title>
<path fill="none" stroke="black" d="M425.545,-432.765C430.136,-424.525 435.824,-414.317 441.006,-405.016"/>
<polygon fill="black" stroke="black" points="444.15,-406.563 445.96,-396.124 438.035,-403.156 444.15,-406.563"/>
</g>
<!-- v35&#45;&gt;p11 -->
<g id="edge12" class="edge"><title>v35&#45;&gt;p11</title>
<path fill="none" stroke="black" d="M532.5,-431.697C532.5,-423.983 532.5,-414.712 532.5,-406.112"/>
<polygon fill="black" stroke="black" points="536,-406.104 532.5,-396.104 529,-406.104 536,-406.104"/>
</g>
<!-- v74 -->
<g id="node37" class="node"><title>v74</title>
<ellipse fill="none" stroke="black" cx="607.5" cy="-378" rx="27" ry="18"/>
<text text-anchor="middle" x="607.5" y="-374.3" font-family="Times,serif" font-size="14.00">74</text>
</g>
<!-- v35&#45;&gt;v74 -->
<g id="edge5" class="edge"><title>v35&#45;&gt;v74</title>
<path fill="none" stroke="black" d="M547.677,-434.834C558.351,-424.872 572.819,-411.369 584.853,-400.137"/>
<polygon fill="black" stroke="black" points="587.423,-402.526 592.345,-393.144 582.646,-397.409 587.423,-402.526"/>
</g>
<!-- p15&#45;&gt;v11 -->
<g id="edge2" class="edge"><title>p15&#45;&gt;v11</title>
<path fill="none" stroke="black" d="M641.5,-143.697C641.5,-135.983 641.5,-126.712 641.5,-118.112"/>
<polygon fill="black" stroke="black" points="645,-118.104 641.5,-108.104 638,-118.104 645,-118.104"/>
</g>
<!-- v43&#45;&gt;p6 -->
<g id="edge36" class="edge"><title>v43&#45;&gt;p6</title>
<path fill="none" stroke="black" d="M711.687,-432.765C707.214,-424.525 701.672,-414.317 696.623,-405.016"/>
<polygon fill="black" stroke="black" points="699.643,-403.243 691.796,-396.124 693.491,-406.582 699.643,-403.243"/>
</g>
<!-- v43&#45;&gt;p14 -->
<g id="edge6" class="edge"><title>v43&#45;&gt;p14</title>
<path fill="none" stroke="black" d="M729.545,-432.765C734.136,-424.525 739.824,-414.317 745.006,-405.016"/>
<polygon fill="black" stroke="black" points="748.15,-406.563 749.96,-396.124 742.035,-403.156 748.15,-406.563"/>
</g>
<!-- p16 -->
<g id="node34" class="node"><title>p16</title>
<path fill="none" stroke="black" d="M854,-396C854,-396 819,-396 819,-396 813,-396 807,-390 807,-384 807,-384 807,-372 807,-372 807,-366 813,-360 819,-360 819,-360 854,-360 854,-360 860,-360 866,-366 866,-372 866,-372 866,-384 866,-384 866,-390 860,-396 854,-396"/>
<text text-anchor="middle" x="836.5" y="-374.3" font-family="Times,serif" font-size="14.00">path (3)</text>
</g>
<!-- v43&#45;&gt;p16 -->
<g id="edge19" class="edge"><title>v43&#45;&gt;p16</title>
<path fill="none" stroke="black" d="M739.916,-437.284C756.136,-427.496 779.724,-413.262 799.528,-401.311"/>
<polygon fill="black" stroke="black" points="801.568,-404.168 808.321,-396.004 797.951,-398.174 801.568,-404.168"/>
</g>
</g>
</svg>
