<?xml version="1.0" encoding="UTF-8" standalone="no"?>
<!DOCTYPE svg PUBLIC "-//W3C//DTD SVG 1.1//EN"
 "http://www.w3.org/Graphics/SVG/1.1/DTD/svg11.dtd">
<!-- Generated by graphviz version 2.38.0 (20140413.2041)
 -->
<!-- Title: %3 Pages: 1 -->
<svg width="1303pt" height="476pt"
 viewBox="0.00 0.00 1303.19 476.00" xmlns="http://www.w3.org/2000/svg" xmlns:xlink="http://www.w3.org/1999/xlink">
<g id="graph0" class="graph" transform="scale(1 1) rotate(0) translate(4 472)">
<title>%3</title>
<polygon fill="white" stroke="none" points="-4,4 -4,-472 1299.19,-472 1299.19,4 -4,4"/>
<!-- 0 -->
<g id="node1" class="node"><title>0</title>
<g id="a_node1"><a xlink:title="0, diversity: 7, multiplicities: 1,4,6,12,32,229,250, labels: 0">
<ellipse fill="#f7fcf5" stroke="black" cx="344.596" cy="-378" rx="37.0935" ry="18"/>
<text text-anchor="middle" x="344.596" y="-374.3" font-family="Times,serif" font-size="14.00">0 (7): 0</text>
</a>
</g>
</g>
<!-- 9 -->
<g id="node10" class="node"><title>9</title>
<g id="a_node10"><a xlink:title="9, diversity: 7, multiplicities: 1,6,6,12,27,33,85, labels: 0">
<ellipse fill="#f7fcf5" stroke="black" cx="192.596" cy="-306" rx="37.0935" ry="18"/>
<text text-anchor="middle" x="192.596" y="-302.3" font-family="Times,serif" font-size="14.00">9 (7): 0</text>
</a>
</g>
</g>
<!-- 0&#45;&gt;9 -->
<g id="edge40" class="edge"><title>0&#45;&gt;9</title>
<path fill="none" stroke="black" d="M318.467,-364.967C293.486,-353.462 255.636,-336.031 227.964,-323.288"/>
<polygon fill="black" stroke="black" points="229.186,-319.997 218.639,-318.993 226.258,-326.355 229.186,-319.997"/>
</g>
<!-- 43 -->
<g id="node44" class="node"><title>43</title>
<g id="a_node44"><a xlink:title="43, diversity: 1, multiplicities: 1, labels: 0">
<ellipse fill="#f7fcf5" stroke="black" cx="344.596" cy="-306" rx="41.6928" ry="18"/>
<text text-anchor="middle" x="344.596" y="-302.3" font-family="Times,serif" font-size="14.00">43 (1): 0</text>
</a>
</g>
</g>
<!-- 0&#45;&gt;43 -->
<g id="edge5" class="edge"><title>0&#45;&gt;43</title>
<path fill="none" stroke="black" d="M344.596,-359.697C344.596,-351.983 344.596,-342.712 344.596,-334.112"/>
<polygon fill="black" stroke="black" points="348.096,-334.104 344.596,-324.104 341.096,-334.104 348.096,-334.104"/>
</g>
<!-- 1 -->
<g id="node2" class="node"><title>1</title>
<g id="a_node2"><a xlink:title="1, diversity: 12, multiplicities: 1,1,1,3,10,11,20,34,40,147,198,803, labels: 0">
<ellipse fill="#f7fcf5" stroke="black" cx="546.596" cy="-234" rx="41.6928" ry="18"/>
<text text-anchor="middle" x="546.596" y="-230.3" font-family="Times,serif" font-size="14.00">1 (12): 0</text>
</a>
</g>
</g>
<!-- 5 -->
<g id="node6" class="node"><title>5</title>
<g id="a_node6"><a xlink:title="5, diversity: 1, multiplicities: 27, labels: 0">
<ellipse fill="#f7fcf5" stroke="black" cx="253.596" cy="-162" rx="37.0935" ry="18"/>
<text text-anchor="middle" x="253.596" y="-158.3" font-family="Times,serif" font-size="14.00">5 (1): 0</text>
</a>
</g>
</g>
<!-- 1&#45;&gt;5 -->
<g id="edge41" class="edge"><title>1&#45;&gt;5</title>
<path fill="none" stroke="black" d="M515.872,-221.763C509.548,-219.674 502.897,-217.637 496.596,-216 410.452,-193.614 385.439,-203.515 299.596,-180 296.825,-179.241 293.985,-178.386 291.142,-177.475"/>
<polygon fill="black" stroke="black" points="292.159,-174.124 281.564,-174.212 289.901,-180.75 292.159,-174.124"/>
</g>
<!-- 12 -->
<g id="node13" class="node"><title>12</title>
<g id="a_node13"><a xlink:title="12, diversity: 2, multiplicities: 1,152, labels: 0">
<ellipse fill="#f7fcf5" stroke="black" cx="350.596" cy="-162" rx="41.6928" ry="18"/>
<text text-anchor="middle" x="350.596" y="-158.3" font-family="Times,serif" font-size="14.00">12 (2): 0</text>
</a>
</g>
</g>
<!-- 1&#45;&gt;12 -->
<g id="edge34" class="edge"><title>1&#45;&gt;12</title>
<path fill="none" stroke="black" d="M515.54,-221.908C481.949,-209.912 428.258,-190.736 391.31,-177.54"/>
<polygon fill="black" stroke="black" points="392.426,-174.223 381.832,-174.155 390.072,-180.815 392.426,-174.223"/>
</g>
<!-- 32 -->
<g id="node33" class="node"><title>32</title>
<g id="a_node33"><a xlink:title="32, diversity: 2, multiplicities: 5,12, labels: 0">
<ellipse fill="#f7fcf5" stroke="black" cx="451.596" cy="-162" rx="41.6928" ry="18"/>
<text text-anchor="middle" x="451.596" y="-158.3" font-family="Times,serif" font-size="14.00">32 (2): 0</text>
</a>
</g>
</g>
<!-- 1&#45;&gt;32 -->
<g id="edge31" class="edge"><title>1&#45;&gt;32</title>
<path fill="none" stroke="black" d="M526.449,-218.155C512.972,-208.225 495.039,-195.011 480.105,-184.006"/>
<polygon fill="black" stroke="black" points="481.841,-180.938 471.714,-177.824 477.689,-186.574 481.841,-180.938"/>
</g>
<!-- 40 -->
<g id="node41" class="node"><title>40</title>
<g id="a_node41"><a xlink:title="40, diversity: 1, multiplicities: 1, labels: 0">
<ellipse fill="#f7fcf5" stroke="black" cx="552.596" cy="-162" rx="41.6928" ry="18"/>
<text text-anchor="middle" x="552.596" y="-158.3" font-family="Times,serif" font-size="14.00">40 (1): 0</text>
</a>
</g>
</g>
<!-- 1&#45;&gt;40 -->
<g id="edge27" class="edge"><title>1&#45;&gt;40</title>
<path fill="none" stroke="black" d="M548.079,-215.697C548.741,-207.983 549.535,-198.712 550.272,-190.112"/>
<polygon fill="black" stroke="black" points="553.763,-190.367 551.13,-180.104 546.789,-189.769 553.763,-190.367"/>
</g>
<!-- 42 -->
<g id="node43" class="node"><title>42</title>
<g id="a_node43"><a xlink:title="42, diversity: 1, multiplicities: 2, labels: 0">
<ellipse fill="#f7fcf5" stroke="black" cx="653.596" cy="-162" rx="41.6928" ry="18"/>
<text text-anchor="middle" x="653.596" y="-158.3" font-family="Times,serif" font-size="14.00">42 (1): 0</text>
</a>
</g>
</g>
<!-- 1&#45;&gt;42 -->
<g id="edge9" class="edge"><title>1&#45;&gt;42</title>
<path fill="none" stroke="black" d="M568.508,-218.666C584.231,-208.379 605.627,-194.382 623.029,-182.997"/>
<polygon fill="black" stroke="black" points="625.262,-185.719 631.714,-177.315 621.43,-179.861 625.262,-185.719"/>
</g>
<!-- 2 -->
<g id="node3" class="node"><title>2</title>
<g id="a_node3"><a xlink:title="2, diversity: 10, multiplicities: 2,2,4,5,7,23,117,240,372,1792, labels: 0">
<ellipse fill="#f7fcf5" stroke="black" cx="826.596" cy="-450" rx="41.6928" ry="18"/>
<text text-anchor="middle" x="826.596" y="-446.3" font-family="Times,serif" font-size="14.00">2 (10): 0</text>
</a>
</g>
</g>
<!-- 2&#45;&gt;0 -->
<g id="edge38" class="edge"><title>2&#45;&gt;0</title>
<path fill="none" stroke="black" d="M787.751,-443.434C720.765,-433.825 579.193,-413.475 459.596,-396 436.514,-392.627 410.831,-388.834 389.602,-385.689"/>
<polygon fill="black" stroke="black" points="389.975,-382.206 379.569,-384.201 388.948,-389.13 389.975,-382.206"/>
</g>
<!-- 3 -->
<g id="node4" class="node"><title>3</title>
<g id="a_node4"><a xlink:title="3, diversity: 2, multiplicities: 13,114, labels: 0">
<ellipse fill="#f7fcf5" stroke="black" cx="505.596" cy="-378" rx="37.0935" ry="18"/>
<text text-anchor="middle" x="505.596" y="-374.3" font-family="Times,serif" font-size="14.00">3 (2): 0</text>
</a>
</g>
</g>
<!-- 2&#45;&gt;3 -->
<g id="edge28" class="edge"><title>2&#45;&gt;3</title>
<path fill="none" stroke="black" d="M790.398,-441.106C730.911,-428.134 612.726,-402.362 548.899,-388.443"/>
<polygon fill="black" stroke="black" points="549.281,-384.944 538.765,-386.233 547.789,-391.783 549.281,-384.944"/>
</g>
<!-- 4 -->
<g id="node5" class="node"><title>4</title>
<g id="a_node5"><a xlink:title="4, diversity: 2, multiplicities: 3,735, labels: 0">
<ellipse fill="#f7fcf5" stroke="black" cx="654.596" cy="-378" rx="37.0935" ry="18"/>
<text text-anchor="middle" x="654.596" y="-374.3" font-family="Times,serif" font-size="14.00">4 (2): 0</text>
</a>
</g>
</g>
<!-- 2&#45;&gt;4 -->
<g id="edge43" class="edge"><title>2&#45;&gt;4</title>
<path fill="none" stroke="black" d="M797.419,-437.125C768.234,-425.248 723.247,-406.939 691.576,-394.05"/>
<polygon fill="black" stroke="black" points="692.789,-390.765 682.207,-390.237 690.15,-397.248 692.789,-390.765"/>
</g>
<!-- 16 -->
<g id="node17" class="node"><title>16</title>
<g id="a_node17"><a xlink:title="16, diversity: 2, multiplicities: 22,385, labels: 0">
<ellipse fill="#f7fcf5" stroke="black" cx="751.596" cy="-378" rx="41.6928" ry="18"/>
<text text-anchor="middle" x="751.596" y="-374.3" font-family="Times,serif" font-size="14.00">16 (2): 0</text>
</a>
</g>
</g>
<!-- 2&#45;&gt;16 -->
<g id="edge23" class="edge"><title>2&#45;&gt;16</title>
<path fill="none" stroke="black" d="M809.951,-433.465C799.923,-424.105 786.977,-412.022 775.828,-401.616"/>
<polygon fill="black" stroke="black" points="778.153,-398.998 768.454,-394.734 773.377,-404.116 778.153,-398.998"/>
</g>
<!-- 18 -->
<g id="node19" class="node"><title>18</title>
<g id="a_node19"><a xlink:title="18, diversity: 1, multiplicities: 3, labels: 0">
<ellipse fill="#f7fcf5" stroke="black" cx="902.596" cy="-378" rx="41.6928" ry="18"/>
<text text-anchor="middle" x="902.596" y="-374.3" font-family="Times,serif" font-size="14.00">18 (1): 0</text>
</a>
</g>
</g>
<!-- 2&#45;&gt;18 -->
<g id="edge3" class="edge"><title>2&#45;&gt;18</title>
<path fill="none" stroke="black" d="M843.463,-433.465C853.696,-424.04 866.927,-411.853 878.278,-401.398"/>
<polygon fill="black" stroke="black" points="880.792,-403.841 885.777,-394.492 876.05,-398.692 880.792,-403.841"/>
</g>
<!-- 28 -->
<g id="node29" class="node"><title>28</title>
<g id="a_node29"><a xlink:title="28, diversity: 1, multiplicities: 1, labels: 0">
<ellipse fill="#f7fcf5" stroke="black" cx="1028.6" cy="-378" rx="41.6928" ry="18"/>
<text text-anchor="middle" x="1028.6" y="-374.3" font-family="Times,serif" font-size="14.00">28 (1): 0</text>
</a>
</g>
</g>
<!-- 2&#45;&gt;28 -->
<g id="edge33" class="edge"><title>2&#45;&gt;28</title>
<path fill="none" stroke="black" d="M858.159,-438.062C892.995,-425.991 949.191,-406.517 987.455,-393.257"/>
<polygon fill="black" stroke="black" points="988.953,-396.442 997.255,-389.861 986.661,-389.828 988.953,-396.442"/>
</g>
<!-- 38 -->
<g id="node39" class="node"><title>38</title>
<g id="a_node39"><a xlink:title="38, diversity: 1, multiplicities: 1, labels: 0">
<ellipse fill="#f7fcf5" stroke="black" cx="1142.6" cy="-378" rx="41.6928" ry="18"/>
<text text-anchor="middle" x="1142.6" y="-374.3" font-family="Times,serif" font-size="14.00">38 (1): 0</text>
</a>
</g>
</g>
<!-- 2&#45;&gt;38 -->
<g id="edge12" class="edge"><title>2&#45;&gt;38</title>
<path fill="none" stroke="black" d="M864.04,-441.85C913.553,-432.237 1003.44,-414.236 1079.6,-396 1085.81,-394.511 1092.35,-392.852 1098.77,-391.171"/>
<polygon fill="black" stroke="black" points="1099.92,-394.486 1108.68,-388.532 1098.12,-387.722 1099.92,-394.486"/>
</g>
<!-- 39 -->
<g id="node40" class="node"><title>39</title>
<g id="a_node40"><a xlink:title="39, diversity: 1, multiplicities: 1, labels: 0">
<ellipse fill="#f7fcf5" stroke="black" cx="1249.6" cy="-378" rx="41.6928" ry="18"/>
<text text-anchor="middle" x="1249.6" y="-374.3" font-family="Times,serif" font-size="14.00">39 (1): 0</text>
</a>
</g>
</g>
<!-- 2&#45;&gt;39 -->
<g id="edge22" class="edge"><title>2&#45;&gt;39</title>
<path fill="none" stroke="black" d="M866.872,-445.199C934.806,-438.34 1076.25,-422.128 1193.6,-396 1198.25,-394.964 1203.08,-393.737 1207.86,-392.424"/>
<polygon fill="black" stroke="black" points="1208.9,-395.767 1217.54,-389.641 1206.96,-389.04 1208.9,-395.767"/>
</g>
<!-- 19 -->
<g id="node20" class="node"><title>19</title>
<g id="a_node20"><a xlink:title="19, diversity: 1, multiplicities: 2, labels: 0">
<ellipse fill="#f7fcf5" stroke="black" cx="445.596" cy="-306" rx="41.6928" ry="18"/>
<text text-anchor="middle" x="445.596" y="-302.3" font-family="Times,serif" font-size="14.00">19 (1): 0</text>
</a>
</g>
</g>
<!-- 3&#45;&gt;19 -->
<g id="edge29" class="edge"><title>3&#45;&gt;19</title>
<path fill="none" stroke="black" d="M491.981,-361.116C484.342,-352.204 474.659,-340.906 466.118,-330.942"/>
<polygon fill="black" stroke="black" points="468.739,-328.622 459.574,-323.307 463.424,-333.177 468.739,-328.622"/>
</g>
<!-- 6 -->
<g id="node7" class="node"><title>6</title>
<g id="a_node7"><a xlink:title="6, diversity: 2, multiplicities: 329,680, labels: 0">
<ellipse fill="#f7fcf5" stroke="black" cx="750.596" cy="-162" rx="37.0935" ry="18"/>
<text text-anchor="middle" x="750.596" y="-158.3" font-family="Times,serif" font-size="14.00">6 (2): 0</text>
</a>
</g>
</g>
<!-- 7 -->
<g id="node8" class="node"><title>7</title>
<g id="a_node8"><a xlink:title="7, diversity: 1, multiplicities: 336, labels: 0">
<ellipse fill="#f7fcf5" stroke="black" cx="1253.6" cy="-234" rx="37.0935" ry="18"/>
<text text-anchor="middle" x="1253.6" y="-230.3" font-family="Times,serif" font-size="14.00">7 (1): 0</text>
</a>
</g>
</g>
<!-- 8 -->
<g id="node9" class="node"><title>8</title>
<g id="a_node9"><a xlink:title="8, diversity: 2, multiplicities: 6,41, labels: 0">
<ellipse fill="#f7fcf5" stroke="black" cx="653.596" cy="-18" rx="37.0935" ry="18"/>
<text text-anchor="middle" x="653.596" y="-14.3" font-family="Times,serif" font-size="14.00">8 (2): 0</text>
</a>
</g>
</g>
<!-- 11 -->
<g id="node12" class="node"><title>11</title>
<g id="a_node12"><a xlink:title="11, diversity: 2, multiplicities: 2,25, labels: 0">
<ellipse fill="#f7fcf5" stroke="black" cx="41.5963" cy="-234" rx="41.6928" ry="18"/>
<text text-anchor="middle" x="41.5963" y="-230.3" font-family="Times,serif" font-size="14.00">11 (2): 0</text>
</a>
</g>
</g>
<!-- 9&#45;&gt;11 -->
<g id="edge20" class="edge"><title>9&#45;&gt;11</title>
<path fill="none" stroke="black" d="M166.638,-292.967C142.275,-281.672 105.588,-264.665 78.2456,-251.99"/>
<polygon fill="black" stroke="black" points="79.544,-248.734 68.9994,-247.703 76.5999,-255.085 79.544,-248.734"/>
</g>
<!-- 24 -->
<g id="node25" class="node"><title>24</title>
<g id="a_node25"><a xlink:title="24, diversity: 1, multiplicities: 47, labels: 0">
<ellipse fill="#f7fcf5" stroke="black" cx="142.596" cy="-234" rx="41.6928" ry="18"/>
<text text-anchor="middle" x="142.596" y="-230.3" font-family="Times,serif" font-size="14.00">24 (1): 0</text>
</a>
</g>
</g>
<!-- 9&#45;&gt;24 -->
<g id="edge21" class="edge"><title>9&#45;&gt;24</title>
<path fill="none" stroke="black" d="M181,-288.765C174.904,-280.23 167.298,-269.582 160.467,-260.019"/>
<polygon fill="black" stroke="black" points="163.138,-257.736 154.477,-251.633 157.442,-261.805 163.138,-257.736"/>
</g>
<!-- 34 -->
<g id="node35" class="node"><title>34</title>
<g id="a_node35"><a xlink:title="34, diversity: 1, multiplicities: 11, labels: 0">
<ellipse fill="#f7fcf5" stroke="black" cx="243.596" cy="-234" rx="41.6928" ry="18"/>
<text text-anchor="middle" x="243.596" y="-230.3" font-family="Times,serif" font-size="14.00">34 (1): 0</text>
</a>
</g>
</g>
<!-- 9&#45;&gt;34 -->
<g id="edge4" class="edge"><title>9&#45;&gt;34</title>
<path fill="none" stroke="black" d="M204.425,-288.765C210.706,-280.143 218.559,-269.365 225.581,-259.727"/>
<polygon fill="black" stroke="black" points="228.418,-261.777 231.478,-251.633 222.76,-257.655 228.418,-261.777"/>
</g>
<!-- 10 -->
<g id="node11" class="node"><title>10</title>
<g id="a_node11"><a xlink:title="10, diversity: 1, multiplicities: 360, labels: 0">
<ellipse fill="#f7fcf5" stroke="black" cx="1051.6" cy="-306" rx="41.6928" ry="18"/>
<text text-anchor="middle" x="1051.6" y="-302.3" font-family="Times,serif" font-size="14.00">10 (1): 0</text>
</a>
</g>
</g>
<!-- 13 -->
<g id="node14" class="node"><title>13</title>
<g id="a_node14"><a xlink:title="13, diversity: 3, multiplicities: 1,5,211, labels: 0">
<ellipse fill="#f7fcf5" stroke="black" cx="1152.6" cy="-306" rx="41.6928" ry="18"/>
<text text-anchor="middle" x="1152.6" y="-302.3" font-family="Times,serif" font-size="14.00">13 (3): 0</text>
</a>
</g>
</g>
<!-- 31 -->
<g id="node32" class="node"><title>31</title>
<g id="a_node32"><a xlink:title="31, diversity: 1, multiplicities: 12, labels: 0">
<ellipse fill="#f7fcf5" stroke="black" cx="1152.6" cy="-234" rx="41.6928" ry="18"/>
<text text-anchor="middle" x="1152.6" y="-230.3" font-family="Times,serif" font-size="14.00">31 (1): 0</text>
</a>
</g>
</g>
<!-- 13&#45;&gt;31 -->
<g id="edge42" class="edge"><title>13&#45;&gt;31</title>
<path fill="none" stroke="black" d="M1152.6,-287.697C1152.6,-279.983 1152.6,-270.712 1152.6,-262.112"/>
<polygon fill="black" stroke="black" points="1156.1,-262.104 1152.6,-252.104 1149.1,-262.104 1156.1,-262.104"/>
</g>
<!-- 14 -->
<g id="node15" class="node"><title>14</title>
<g id="a_node15"><a xlink:title="14, diversity: 2, multiplicities: 3,241, labels: 0">
<ellipse fill="#f7fcf5" stroke="black" cx="142.596" cy="-162" rx="41.6928" ry="18"/>
<text text-anchor="middle" x="142.596" y="-158.3" font-family="Times,serif" font-size="14.00">14 (2): 0</text>
</a>
</g>
</g>
<!-- 15 -->
<g id="node16" class="node"><title>15</title>
<g id="a_node16"><a xlink:title="15, diversity: 1, multiplicities: 269, labels: 0">
<ellipse fill="#f7fcf5" stroke="black" cx="653.596" cy="-90" rx="41.6928" ry="18"/>
<text text-anchor="middle" x="653.596" y="-86.3" font-family="Times,serif" font-size="14.00">15 (1): 0</text>
</a>
</g>
</g>
<!-- 15&#45;&gt;8 -->
<g id="edge6" class="edge"><title>15&#45;&gt;8</title>
<path fill="none" stroke="black" d="M653.596,-71.6966C653.596,-63.9827 653.596,-54.7125 653.596,-46.1124"/>
<polygon fill="black" stroke="black" points="657.096,-46.1043 653.596,-36.1043 650.096,-46.1044 657.096,-46.1043"/>
</g>
<!-- 27 -->
<g id="node28" class="node"><title>27</title>
<g id="a_node28"><a xlink:title="27, diversity: 2, multiplicities: 10,69, labels: 0">
<ellipse fill="#f7fcf5" stroke="black" cx="546.596" cy="-306" rx="41.6928" ry="18"/>
<text text-anchor="middle" x="546.596" y="-302.3" font-family="Times,serif" font-size="14.00">27 (2): 0</text>
</a>
</g>
</g>
<!-- 16&#45;&gt;27 -->
<g id="edge39" class="edge"><title>16&#45;&gt;27</title>
<path fill="none" stroke="black" d="M720.014,-366.216C684.501,-354.089 626.709,-334.356 587.702,-321.036"/>
<polygon fill="black" stroke="black" points="588.809,-317.716 578.214,-317.796 586.547,-324.34 588.809,-317.716"/>
</g>
<!-- 36 -->
<g id="node37" class="node"><title>36</title>
<g id="a_node37"><a xlink:title="36, diversity: 1, multiplicities: 5, labels: 0">
<ellipse fill="#f7fcf5" stroke="black" cx="647.596" cy="-306" rx="41.6928" ry="18"/>
<text text-anchor="middle" x="647.596" y="-302.3" font-family="Times,serif" font-size="14.00">36 (1): 0</text>
</a>
</g>
</g>
<!-- 16&#45;&gt;36 -->
<g id="edge36" class="edge"><title>16&#45;&gt;36</title>
<path fill="none" stroke="black" d="M730.047,-362.496C714.848,-352.266 694.289,-338.428 677.503,-327.13"/>
<polygon fill="black" stroke="black" points="679.368,-324.166 669.118,-321.485 675.459,-329.973 679.368,-324.166"/>
</g>
<!-- 37 -->
<g id="node38" class="node"><title>37</title>
<g id="a_node38"><a xlink:title="37, diversity: 1, multiplicities: 1, labels: 0">
<ellipse fill="#f7fcf5" stroke="black" cx="748.596" cy="-306" rx="41.6928" ry="18"/>
<text text-anchor="middle" x="748.596" y="-302.3" font-family="Times,serif" font-size="14.00">37 (1): 0</text>
</a>
</g>
</g>
<!-- 16&#45;&gt;37 -->
<g id="edge25" class="edge"><title>16&#45;&gt;37</title>
<path fill="none" stroke="black" d="M750.855,-359.697C750.524,-351.983 750.127,-342.712 749.758,-334.112"/>
<polygon fill="black" stroke="black" points="753.254,-333.945 749.329,-324.104 746.261,-334.245 753.254,-333.945"/>
</g>
<!-- 41 -->
<g id="node42" class="node"><title>41</title>
<g id="a_node42"><a xlink:title="41, diversity: 1, multiplicities: 1, labels: 0">
<ellipse fill="#f7fcf5" stroke="black" cx="849.596" cy="-306" rx="41.6928" ry="18"/>
<text text-anchor="middle" x="849.596" y="-302.3" font-family="Times,serif" font-size="14.00">41 (1): 0</text>
</a>
</g>
</g>
<!-- 16&#45;&gt;41 -->
<g id="edge35" class="edge"><title>16&#45;&gt;41</title>
<path fill="none" stroke="black" d="M772.38,-362.155C786.412,-352.132 805.128,-338.763 820.619,-327.698"/>
<polygon fill="black" stroke="black" points="822.74,-330.484 828.843,-321.824 818.671,-324.788 822.74,-330.484"/>
</g>
<!-- 17 -->
<g id="node18" class="node"><title>17</title>
<g id="a_node18"><a xlink:title="17, diversity: 2, multiplicities: 30,98, labels: 0">
<ellipse fill="#f7fcf5" stroke="black" cx="344.596" cy="-234" rx="41.6928" ry="18"/>
<text text-anchor="middle" x="344.596" y="-230.3" font-family="Times,serif" font-size="14.00">17 (2): 0</text>
</a>
</g>
</g>
<!-- 23 -->
<g id="node24" class="node"><title>23</title>
<g id="a_node24"><a xlink:title="23, diversity: 1, multiplicities: 41, labels: 0">
<ellipse fill="#f7fcf5" stroke="black" cx="950.596" cy="-306" rx="41.6928" ry="18"/>
<text text-anchor="middle" x="950.596" y="-302.3" font-family="Times,serif" font-size="14.00">23 (1): 0</text>
</a>
</g>
</g>
<!-- 18&#45;&gt;23 -->
<g id="edge10" class="edge"><title>18&#45;&gt;23</title>
<path fill="none" stroke="black" d="M913.972,-360.411C919.83,-351.868 927.091,-341.278 933.599,-331.787"/>
<polygon fill="black" stroke="black" points="936.534,-333.697 939.303,-323.47 930.761,-329.738 936.534,-333.697"/>
</g>
<!-- 29 -->
<g id="node30" class="node"><title>29</title>
<g id="a_node30"><a xlink:title="29, diversity: 1, multiplicities: 9, labels: 0">
<ellipse fill="#f7fcf5" stroke="black" cx="445.596" cy="-234" rx="41.6928" ry="18"/>
<text text-anchor="middle" x="445.596" y="-230.3" font-family="Times,serif" font-size="14.00">29 (1): 0</text>
</a>
</g>
</g>
<!-- 19&#45;&gt;29 -->
<g id="edge14" class="edge"><title>19&#45;&gt;29</title>
<path fill="none" stroke="black" d="M445.596,-287.697C445.596,-279.983 445.596,-270.712 445.596,-262.112"/>
<polygon fill="black" stroke="black" points="449.096,-262.104 445.596,-252.104 442.096,-262.104 449.096,-262.104"/>
</g>
<!-- 20 -->
<g id="node21" class="node"><title>20</title>
<g id="a_node21"><a xlink:title="20, diversity: 2, multiplicities: 7,51, labels: 0">
<ellipse fill="#f7fcf5" stroke="black" cx="849.596" cy="-162" rx="41.6928" ry="18"/>
<text text-anchor="middle" x="849.596" y="-158.3" font-family="Times,serif" font-size="14.00">20 (2): 0</text>
</a>
</g>
</g>
<!-- 21 -->
<g id="node22" class="node"><title>21</title>
<g id="a_node22"><a xlink:title="21, diversity: 3, multiplicities: 16,17,64, labels: 0">
<ellipse fill="#f7fcf5" stroke="black" cx="802.596" cy="-90" rx="41.6928" ry="18"/>
<text text-anchor="middle" x="802.596" y="-86.3" font-family="Times,serif" font-size="14.00">21 (3): 0</text>
</a>
</g>
</g>
<!-- 20&#45;&gt;21 -->
<g id="edge15" class="edge"><title>20&#45;&gt;21</title>
<path fill="none" stroke="black" d="M838.458,-144.411C832.722,-135.868 825.612,-125.278 819.239,-115.787"/>
<polygon fill="black" stroke="black" points="822.135,-113.821 813.655,-107.47 816.323,-117.723 822.135,-113.821"/>
</g>
<!-- 35 -->
<g id="node36" class="node"><title>35</title>
<g id="a_node36"><a xlink:title="35, diversity: 1, multiplicities: 5, labels: 0">
<ellipse fill="#f7fcf5" stroke="black" cx="903.596" cy="-90" rx="41.6928" ry="18"/>
<text text-anchor="middle" x="903.596" y="-86.3" font-family="Times,serif" font-size="14.00">35 (1): 0</text>
</a>
</g>
</g>
<!-- 20&#45;&gt;35 -->
<g id="edge13" class="edge"><title>20&#45;&gt;35</title>
<path fill="none" stroke="black" d="M862.121,-144.765C868.772,-136.143 877.086,-125.365 884.521,-115.727"/>
<polygon fill="black" stroke="black" points="887.428,-117.689 890.765,-107.633 881.886,-113.413 887.428,-117.689"/>
</g>
<!-- 22 -->
<g id="node23" class="node"><title>22</title>
<g id="a_node23"><a xlink:title="22, diversity: 1, multiplicities: 1, labels: 0">
<ellipse fill="#f7fcf5" stroke="black" cx="849.596" cy="-234" rx="41.6928" ry="18"/>
<text text-anchor="middle" x="849.596" y="-230.3" font-family="Times,serif" font-size="14.00">22 (1): 0</text>
</a>
</g>
</g>
<!-- 22&#45;&gt;20 -->
<g id="edge11" class="edge"><title>22&#45;&gt;20</title>
<path fill="none" stroke="black" d="M849.596,-215.697C849.596,-207.983 849.596,-198.712 849.596,-190.112"/>
<polygon fill="black" stroke="black" points="853.096,-190.104 849.596,-180.104 846.096,-190.104 853.096,-190.104"/>
</g>
<!-- 24&#45;&gt;14 -->
<g id="edge19" class="edge"><title>24&#45;&gt;14</title>
<path fill="none" stroke="black" d="M142.596,-215.697C142.596,-207.983 142.596,-198.712 142.596,-190.112"/>
<polygon fill="black" stroke="black" points="146.096,-190.104 142.596,-180.104 139.096,-190.104 146.096,-190.104"/>
</g>
<!-- 25 -->
<g id="node26" class="node"><title>25</title>
<g id="a_node26"><a xlink:title="25, diversity: 1, multiplicities: 43, labels: 0">
<ellipse fill="#f7fcf5" stroke="black" cx="647.596" cy="-234" rx="41.6928" ry="18"/>
<text text-anchor="middle" x="647.596" y="-230.3" font-family="Times,serif" font-size="14.00">25 (1): 0</text>
</a>
</g>
</g>
<!-- 26 -->
<g id="node27" class="node"><title>26</title>
<g id="a_node27"><a xlink:title="26, diversity: 2, multiplicities: 5,19, labels: 0">
<ellipse fill="#f7fcf5" stroke="black" cx="552.596" cy="-90" rx="41.6928" ry="18"/>
<text text-anchor="middle" x="552.596" y="-86.3" font-family="Times,serif" font-size="14.00">26 (2): 0</text>
</a>
</g>
</g>
<!-- 27&#45;&gt;1 -->
<g id="edge24" class="edge"><title>27&#45;&gt;1</title>
<path fill="none" stroke="black" d="M546.596,-287.697C546.596,-279.983 546.596,-270.712 546.596,-262.112"/>
<polygon fill="black" stroke="black" points="550.096,-262.104 546.596,-252.104 543.096,-262.104 550.096,-262.104"/>
</g>
<!-- 27&#45;&gt;25 -->
<g id="edge16" class="edge"><title>27&#45;&gt;25</title>
<path fill="none" stroke="black" d="M568.016,-290.155C582.575,-280.064 602.027,-266.583 618.055,-255.474"/>
<polygon fill="black" stroke="black" points="620.329,-258.157 626.554,-249.584 616.341,-252.403 620.329,-258.157"/>
</g>
<!-- 28&#45;&gt;10 -->
<g id="edge26" class="edge"><title>28&#45;&gt;10</title>
<path fill="none" stroke="black" d="M1034.16,-360.055C1036.75,-352.176 1039.89,-342.617 1042.79,-333.794"/>
<polygon fill="black" stroke="black" points="1046.12,-334.868 1045.92,-324.275 1039.47,-332.683 1046.12,-334.868"/>
</g>
<!-- 30 -->
<g id="node31" class="node"><title>30</title>
<g id="a_node31"><a xlink:title="30, diversity: 1, multiplicities: 1, labels: 0">
<ellipse fill="#f7fcf5" stroke="black" cx="748.596" cy="-234" rx="41.6928" ry="18"/>
<text text-anchor="middle" x="748.596" y="-230.3" font-family="Times,serif" font-size="14.00">30 (1): 0</text>
</a>
</g>
</g>
<!-- 30&#45;&gt;6 -->
<g id="edge32" class="edge"><title>30&#45;&gt;6</title>
<path fill="none" stroke="black" d="M749.091,-215.697C749.311,-207.983 749.576,-198.712 749.822,-190.112"/>
<polygon fill="black" stroke="black" points="753.32,-190.2 750.108,-180.104 746.323,-190 753.32,-190.2"/>
</g>
<!-- 33 -->
<g id="node34" class="node"><title>33</title>
<g id="a_node34"><a xlink:title="33, diversity: 1, multiplicities: 2, labels: 0">
<ellipse fill="#f7fcf5" stroke="black" cx="1253.6" cy="-306" rx="41.6928" ry="18"/>
<text text-anchor="middle" x="1253.6" y="-302.3" font-family="Times,serif" font-size="14.00">33 (1): 0</text>
</a>
</g>
</g>
<!-- 33&#45;&gt;7 -->
<g id="edge8" class="edge"><title>33&#45;&gt;7</title>
<path fill="none" stroke="black" d="M1253.6,-287.697C1253.6,-279.983 1253.6,-270.712 1253.6,-262.112"/>
<polygon fill="black" stroke="black" points="1257.1,-262.104 1253.6,-252.104 1250.1,-262.104 1257.1,-262.104"/>
</g>
<!-- 37&#45;&gt;30 -->
<g id="edge1" class="edge"><title>37&#45;&gt;30</title>
<path fill="none" stroke="black" d="M748.596,-287.697C748.596,-279.983 748.596,-270.712 748.596,-262.112"/>
<polygon fill="black" stroke="black" points="752.096,-262.104 748.596,-252.104 745.096,-262.104 752.096,-262.104"/>
</g>
<!-- 38&#45;&gt;13 -->
<g id="edge7" class="edge"><title>38&#45;&gt;13</title>
<path fill="none" stroke="black" d="M1145.07,-359.697C1146.17,-351.983 1147.49,-342.712 1148.72,-334.112"/>
<polygon fill="black" stroke="black" points="1152.2,-334.499 1150.15,-324.104 1145.27,-333.509 1152.2,-334.499"/>
</g>
<!-- 39&#45;&gt;33 -->
<g id="edge30" class="edge"><title>39&#45;&gt;33</title>
<path fill="none" stroke="black" d="M1250.59,-359.697C1251.03,-351.983 1251.56,-342.712 1252.05,-334.112"/>
<polygon fill="black" stroke="black" points="1255.54,-334.288 1252.62,-324.104 1248.55,-333.888 1255.54,-334.288"/>
</g>
<!-- 40&#45;&gt;26 -->
<g id="edge37" class="edge"><title>40&#45;&gt;26</title>
<path fill="none" stroke="black" d="M552.596,-143.697C552.596,-135.983 552.596,-126.712 552.596,-118.112"/>
<polygon fill="black" stroke="black" points="556.096,-118.104 552.596,-108.104 549.096,-118.104 556.096,-118.104"/>
</g>
<!-- 41&#45;&gt;22 -->
<g id="edge17" class="edge"><title>41&#45;&gt;22</title>
<path fill="none" stroke="black" d="M849.596,-287.697C849.596,-279.983 849.596,-270.712 849.596,-262.112"/>
<polygon fill="black" stroke="black" points="853.096,-262.104 849.596,-252.104 846.096,-262.104 853.096,-262.104"/>
</g>
<!-- 42&#45;&gt;15 -->
<g id="edge18" class="edge"><title>42&#45;&gt;15</title>
<path fill="none" stroke="black" d="M653.596,-143.697C653.596,-135.983 653.596,-126.712 653.596,-118.112"/>
<polygon fill="black" stroke="black" points="657.096,-118.104 653.596,-108.104 650.096,-118.104 657.096,-118.104"/>
</g>
<!-- 43&#45;&gt;17 -->
<g id="edge2" class="edge"><title>43&#45;&gt;17</title>
<path fill="none" stroke="black" d="M344.596,-287.697C344.596,-279.983 344.596,-270.712 344.596,-262.112"/>
<polygon fill="black" stroke="black" points="348.096,-262.104 344.596,-252.104 341.096,-262.104 348.096,-262.104"/>
</g>
</g>
</svg>
