<?xml version="1.0" encoding="UTF-8" standalone="no"?>
<!DOCTYPE svg PUBLIC "-//W3C//DTD SVG 1.1//EN"
 "http://www.w3.org/Graphics/SVG/1.1/DTD/svg11.dtd">
<!-- Generated by graphviz version 2.38.0 (20140413.2041)
 -->
<!-- Title: %3 Pages: 1 -->
<svg width="589pt" height="548pt"
 viewBox="0.00 0.00 588.50 548.00" xmlns="http://www.w3.org/2000/svg" xmlns:xlink="http://www.w3.org/1999/xlink">
<g id="graph0" class="graph" transform="scale(1 1) rotate(0) translate(4 544)">
<title>%3</title>
<polygon fill="white" stroke="none" points="-4,4 -4,-544 584.5,-544 584.5,4 -4,4"/>
<!-- v0 -->
<g id="node1" class="node"><title>v0</title>
<ellipse fill="none" stroke="black" cx="184.5" cy="-18" rx="27" ry="18"/>
<text text-anchor="middle" x="184.5" y="-14.3" font-family="Times,serif" font-size="14.00">0</text>
</g>
<!-- v1 -->
<g id="node2" class="node"><title>v1</title>
<ellipse fill="none" stroke="black" cx="256.5" cy="-18" rx="27" ry="18"/>
<text text-anchor="middle" x="256.5" y="-14.3" font-family="Times,serif" font-size="14.00">1</text>
</g>
<!-- v2 -->
<g id="node3" class="node"><title>v2</title>
<ellipse fill="none" stroke="black" cx="328.5" cy="-18" rx="27" ry="18"/>
<text text-anchor="middle" x="328.5" y="-14.3" font-family="Times,serif" font-size="14.00">2</text>
</g>
<!-- v3 -->
<g id="node4" class="node"><title>v3</title>
<ellipse fill="none" stroke="black" cx="364.5" cy="-90" rx="27" ry="18"/>
<text text-anchor="middle" x="364.5" y="-86.3" font-family="Times,serif" font-size="14.00">3</text>
</g>
<!-- v3&#45;&gt;v0 -->
<g id="edge5" class="edge"><title>v3&#45;&gt;v0</title>
<path fill="none" stroke="black" d="M340.806,-81.0022C312.063,-71.1346 262.266,-53.5073 220.5,-36 218.683,-35.2385 216.825,-34.4358 214.957,-33.6106"/>
<polygon fill="black" stroke="black" points="216.231,-30.3452 205.68,-29.3829 213.328,-36.7149 216.231,-30.3452"/>
</g>
<!-- v3&#45;&gt;v1 -->
<g id="edge2" class="edge"><title>v3&#45;&gt;v1</title>
<path fill="none" stroke="black" d="M345.688,-76.8069C328.498,-65.6653 302.882,-49.0622 283.507,-36.5043"/>
<polygon fill="black" stroke="black" points="285.392,-33.5553 275.097,-31.0533 281.584,-39.4294 285.392,-33.5553"/>
</g>
<!-- v3&#45;&gt;v2 -->
<g id="edge18" class="edge"><title>v3&#45;&gt;v2</title>
<path fill="none" stroke="black" d="M356.15,-72.7646C351.788,-64.2831 346.353,-53.7144 341.459,-44.1974"/>
<polygon fill="black" stroke="black" points="344.49,-42.4395 336.804,-35.1473 338.265,-45.6409 344.49,-42.4395"/>
</g>
<!-- v13 -->
<g id="node8" class="node"><title>v13</title>
<ellipse fill="none" stroke="black" cx="400.5" cy="-18" rx="27" ry="18"/>
<text text-anchor="middle" x="400.5" y="-14.3" font-family="Times,serif" font-size="14.00">13</text>
</g>
<!-- v3&#45;&gt;v13 -->
<g id="edge22" class="edge"><title>v3&#45;&gt;v13</title>
<path fill="none" stroke="black" d="M372.85,-72.7646C377.212,-64.2831 382.647,-53.7144 387.541,-44.1974"/>
<polygon fill="black" stroke="black" points="390.735,-45.6409 392.196,-35.1473 384.51,-42.4395 390.735,-45.6409"/>
</g>
<!-- v14 -->
<g id="node9" class="node"><title>v14</title>
<ellipse fill="none" stroke="black" cx="472.5" cy="-18" rx="27" ry="18"/>
<text text-anchor="middle" x="472.5" y="-14.3" font-family="Times,serif" font-size="14.00">14</text>
</g>
<!-- v3&#45;&gt;v14 -->
<g id="edge8" class="edge"><title>v3&#45;&gt;v14</title>
<path fill="none" stroke="black" d="M383.312,-76.8069C400.502,-65.6653 426.118,-49.0622 445.493,-36.5043"/>
<polygon fill="black" stroke="black" points="447.416,-39.4294 453.903,-31.0533 443.608,-33.5553 447.416,-39.4294"/>
</g>
<!-- v15 -->
<g id="node10" class="node"><title>v15</title>
<ellipse fill="none" stroke="black" cx="544.5" cy="-18" rx="27" ry="18"/>
<text text-anchor="middle" x="544.5" y="-14.3" font-family="Times,serif" font-size="14.00">15</text>
</g>
<!-- v3&#45;&gt;v15 -->
<g id="edge1" class="edge"><title>v3&#45;&gt;v15</title>
<path fill="none" stroke="black" d="M388.194,-81.0022C416.937,-71.1346 466.734,-53.5073 508.5,-36 510.317,-35.2385 512.175,-34.4358 514.043,-33.6106"/>
<polygon fill="black" stroke="black" points="515.672,-36.7149 523.32,-29.3829 512.769,-30.3452 515.672,-36.7149"/>
</g>
<!-- p0 -->
<g id="node5" class="node"><title>p0</title>
<path fill="none" stroke="black" d="M382,-180C382,-180 347,-180 347,-180 341,-180 335,-174 335,-168 335,-168 335,-156 335,-156 335,-150 341,-144 347,-144 347,-144 382,-144 382,-144 388,-144 394,-150 394,-156 394,-156 394,-168 394,-168 394,-174 388,-180 382,-180"/>
<text text-anchor="middle" x="364.5" y="-158.3" font-family="Times,serif" font-size="14.00">path (3)</text>
</g>
<!-- p0&#45;&gt;v3 -->
<g id="edge4" class="edge"><title>p0&#45;&gt;v3</title>
<path fill="none" stroke="black" d="M364.5,-143.697C364.5,-135.983 364.5,-126.712 364.5,-118.112"/>
<polygon fill="black" stroke="black" points="368,-118.104 364.5,-108.104 361,-118.104 368,-118.104"/>
</g>
<!-- v6 -->
<g id="node6" class="node"><title>v6</title>
<ellipse fill="none" stroke="black" cx="403.5" cy="-234" rx="27" ry="18"/>
<text text-anchor="middle" x="403.5" y="-230.3" font-family="Times,serif" font-size="14.00">6</text>
</g>
<!-- v6&#45;&gt;p0 -->
<g id="edge17" class="edge"><title>v6&#45;&gt;p0</title>
<path fill="none" stroke="black" d="M394.455,-216.765C389.864,-208.525 384.176,-198.317 378.994,-189.016"/>
<polygon fill="black" stroke="black" points="381.965,-187.156 374.04,-180.124 375.85,-190.563 381.965,-187.156"/>
</g>
<!-- p1 -->
<g id="node7" class="node"><title>p1</title>
<path fill="none" stroke="black" d="M459,-180C459,-180 424,-180 424,-180 418,-180 412,-174 412,-168 412,-168 412,-156 412,-156 412,-150 418,-144 424,-144 424,-144 459,-144 459,-144 465,-144 471,-150 471,-156 471,-156 471,-168 471,-168 471,-174 465,-180 459,-180"/>
<text text-anchor="middle" x="441.5" y="-158.3" font-family="Times,serif" font-size="14.00">path (5)</text>
</g>
<!-- v6&#45;&gt;p1 -->
<g id="edge25" class="edge"><title>v6&#45;&gt;p1</title>
<path fill="none" stroke="black" d="M412.313,-216.765C416.786,-208.525 422.328,-198.317 427.377,-189.016"/>
<polygon fill="black" stroke="black" points="430.509,-190.582 432.204,-180.124 424.357,-187.243 430.509,-190.582"/>
</g>
<!-- v16 -->
<g id="node11" class="node"><title>v16</title>
<ellipse fill="none" stroke="black" cx="403.5" cy="-306" rx="27" ry="18"/>
<text text-anchor="middle" x="403.5" y="-302.3" font-family="Times,serif" font-size="14.00">16</text>
</g>
<!-- v16&#45;&gt;v6 -->
<g id="edge20" class="edge"><title>v16&#45;&gt;v6</title>
<path fill="none" stroke="black" d="M403.5,-287.697C403.5,-279.983 403.5,-270.712 403.5,-262.112"/>
<polygon fill="black" stroke="black" points="407,-262.104 403.5,-252.104 400,-262.104 407,-262.104"/>
</g>
<!-- v17 -->
<g id="node12" class="node"><title>v17</title>
<ellipse fill="none" stroke="black" cx="288.5" cy="-522" rx="27" ry="18"/>
<text text-anchor="middle" x="288.5" y="-518.3" font-family="Times,serif" font-size="14.00">17</text>
</g>
<!-- p2 -->
<g id="node13" class="node"><title>p2</title>
<path fill="none" stroke="black" d="M47,-468C47,-468 12,-468 12,-468 6,-468 0,-462 0,-456 0,-456 0,-444 0,-444 0,-438 6,-432 12,-432 12,-432 47,-432 47,-432 53,-432 59,-438 59,-444 59,-444 59,-456 59,-456 59,-462 53,-468 47,-468"/>
<text text-anchor="middle" x="29.5" y="-446.3" font-family="Times,serif" font-size="14.00">path (2)</text>
</g>
<!-- v17&#45;&gt;p2 -->
<g id="edge9" class="edge"><title>v17&#45;&gt;p2</title>
<path fill="none" stroke="black" d="M262.684,-516.302C221.157,-508.409 137.22,-491.058 68.5,-468 68.4037,-467.968 68.3073,-467.935 68.2109,-467.903"/>
<polygon fill="black" stroke="black" points="69.6941,-464.719 59.1008,-464.539 67.2695,-471.286 69.6941,-464.719"/>
</g>
<!-- v19 -->
<g id="node14" class="node"><title>v19</title>
<ellipse fill="none" stroke="black" cx="104.5" cy="-450" rx="27" ry="18"/>
<text text-anchor="middle" x="104.5" y="-446.3" font-family="Times,serif" font-size="14.00">19</text>
</g>
<!-- v17&#45;&gt;v19 -->
<g id="edge19" class="edge"><title>v17&#45;&gt;v19</title>
<path fill="none" stroke="black" d="M264.648,-513.256C235.17,-503.503 183.62,-485.852 140.5,-468 138.68,-467.246 136.819,-466.45 134.949,-465.63"/>
<polygon fill="black" stroke="black" points="136.219,-462.363 125.667,-461.414 133.325,-468.736 136.219,-462.363"/>
</g>
<!-- v21 -->
<g id="node16" class="node"><title>v21</title>
<ellipse fill="none" stroke="black" cx="176.5" cy="-450" rx="27" ry="18"/>
<text text-anchor="middle" x="176.5" y="-446.3" font-family="Times,serif" font-size="14.00">21</text>
</g>
<!-- v17&#45;&gt;v21 -->
<g id="edge31" class="edge"><title>v17&#45;&gt;v21</title>
<path fill="none" stroke="black" d="M269.501,-509.125C251.56,-497.913 224.449,-480.968 204.12,-468.263"/>
<polygon fill="black" stroke="black" points="205.927,-465.265 195.592,-462.933 202.217,-471.201 205.927,-465.265"/>
</g>
<!-- p4 -->
<g id="node17" class="node"><title>p4</title>
<path fill="none" stroke="black" d="M269,-468C269,-468 234,-468 234,-468 228,-468 222,-462 222,-456 222,-456 222,-444 222,-444 222,-438 228,-432 234,-432 234,-432 269,-432 269,-432 275,-432 281,-438 281,-444 281,-444 281,-456 281,-456 281,-462 275,-468 269,-468"/>
<text text-anchor="middle" x="251.5" y="-446.3" font-family="Times,serif" font-size="14.00">path (2)</text>
</g>
<!-- v17&#45;&gt;p4 -->
<g id="edge27" class="edge"><title>v17&#45;&gt;p4</title>
<path fill="none" stroke="black" d="M279.918,-504.765C275.563,-496.525 270.167,-486.317 265.251,-477.016"/>
<polygon fill="black" stroke="black" points="268.319,-475.329 260.551,-468.124 262.13,-478.6 268.319,-475.329"/>
</g>
<!-- v23 -->
<g id="node18" class="node"><title>v23</title>
<ellipse fill="none" stroke="black" cx="326.5" cy="-450" rx="27" ry="18"/>
<text text-anchor="middle" x="326.5" y="-446.3" font-family="Times,serif" font-size="14.00">23</text>
</g>
<!-- v17&#45;&gt;v23 -->
<g id="edge15" class="edge"><title>v17&#45;&gt;v23</title>
<path fill="none" stroke="black" d="M297.313,-504.765C301.918,-496.283 307.655,-485.714 312.821,-476.197"/>
<polygon fill="black" stroke="black" points="316.039,-477.606 317.734,-467.147 309.887,-474.266 316.039,-477.606"/>
</g>
<!-- p5 -->
<g id="node19" class="node"><title>p5</title>
<path fill="none" stroke="black" d="M419,-468C419,-468 384,-468 384,-468 378,-468 372,-462 372,-456 372,-456 372,-444 372,-444 372,-438 378,-432 384,-432 384,-432 419,-432 419,-432 425,-432 431,-438 431,-444 431,-444 431,-456 431,-456 431,-462 425,-468 419,-468"/>
<text text-anchor="middle" x="401.5" y="-446.3" font-family="Times,serif" font-size="14.00">path (2)</text>
</g>
<!-- v17&#45;&gt;p5 -->
<g id="edge13" class="edge"><title>v17&#45;&gt;p5</title>
<path fill="none" stroke="black" d="M307.669,-509.125C323.395,-499.384 346.105,-485.315 365.244,-473.459"/>
<polygon fill="black" stroke="black" points="367.091,-476.433 373.749,-468.191 363.404,-470.482 367.091,-476.433"/>
</g>
<!-- p6 -->
<g id="node20" class="node"><title>p6</title>
<path fill="none" stroke="black" d="M496,-468C496,-468 461,-468 461,-468 455,-468 449,-462 449,-456 449,-456 449,-444 449,-444 449,-438 455,-432 461,-432 461,-432 496,-432 496,-432 502,-432 508,-438 508,-444 508,-444 508,-456 508,-456 508,-462 502,-468 496,-468"/>
<text text-anchor="middle" x="478.5" y="-446.3" font-family="Times,serif" font-size="14.00">path (2)</text>
</g>
<!-- v17&#45;&gt;p6 -->
<g id="edge6" class="edge"><title>v17&#45;&gt;p6</title>
<path fill="none" stroke="black" d="M312.426,-513.357C340.801,-504.143 389.664,-487.805 439.433,-468.286"/>
<polygon fill="black" stroke="black" points="440.722,-471.54 448.731,-464.605 438.145,-465.032 440.722,-471.54"/>
</g>
<!-- v45 -->
<g id="node28" class="node"><title>v45</title>
<ellipse fill="none" stroke="black" cx="553.5" cy="-450" rx="27" ry="18"/>
<text text-anchor="middle" x="553.5" y="-446.3" font-family="Times,serif" font-size="14.00">45</text>
</g>
<!-- v17&#45;&gt;v45 -->
<g id="edge16" class="edge"><title>v17&#45;&gt;v45</title>
<path fill="none" stroke="black" d="M314.419,-516.865C357.401,-509.598 445.8,-492.905 517.5,-468 519.41,-467.337 521.353,-466.603 523.297,-465.824"/>
<polygon fill="black" stroke="black" points="525.099,-468.857 532.876,-461.662 522.31,-462.437 525.099,-468.857"/>
</g>
<!-- p3 -->
<g id="node15" class="node"><title>p3</title>
<path fill="none" stroke="black" d="M496,-324C496,-324 461,-324 461,-324 455,-324 449,-318 449,-312 449,-312 449,-300 449,-300 449,-294 455,-288 461,-288 461,-288 496,-288 496,-288 502,-288 508,-294 508,-300 508,-300 508,-312 508,-312 508,-318 502,-324 496,-324"/>
<text text-anchor="middle" x="478.5" y="-302.3" font-family="Times,serif" font-size="14.00">path (6)</text>
</g>
<!-- v41 -->
<g id="node25" class="node"><title>v41</title>
<ellipse fill="none" stroke="black" cx="138.5" cy="-378" rx="27" ry="18"/>
<text text-anchor="middle" x="138.5" y="-374.3" font-family="Times,serif" font-size="14.00">41</text>
</g>
<!-- v21&#45;&gt;v41 -->
<g id="edge12" class="edge"><title>v21&#45;&gt;v41</title>
<path fill="none" stroke="black" d="M167.687,-432.765C163.082,-424.283 157.345,-413.714 152.179,-404.197"/>
<polygon fill="black" stroke="black" points="155.113,-402.266 147.266,-395.147 148.961,-405.606 155.113,-402.266"/>
</g>
<!-- p10 -->
<g id="node32" class="node"><title>p10</title>
<path fill="none" stroke="black" d="M231,-396C231,-396 196,-396 196,-396 190,-396 184,-390 184,-384 184,-384 184,-372 184,-372 184,-366 190,-360 196,-360 196,-360 231,-360 231,-360 237,-360 243,-366 243,-372 243,-372 243,-384 243,-384 243,-390 237,-396 231,-396"/>
<text text-anchor="middle" x="213.5" y="-374.3" font-family="Times,serif" font-size="14.00">path (4)</text>
</g>
<!-- v21&#45;&gt;p10 -->
<g id="edge11" class="edge"><title>v21&#45;&gt;p10</title>
<path fill="none" stroke="black" d="M185.082,-432.765C189.437,-424.525 194.833,-414.317 199.749,-405.016"/>
<polygon fill="black" stroke="black" points="202.87,-406.6 204.449,-396.124 196.681,-403.329 202.87,-406.6"/>
</g>
<!-- v32 -->
<g id="node22" class="node"><title>v32</title>
<ellipse fill="none" stroke="black" cx="478.5" cy="-378" rx="27" ry="18"/>
<text text-anchor="middle" x="478.5" y="-374.3" font-family="Times,serif" font-size="14.00">32</text>
</g>
<!-- p6&#45;&gt;v32 -->
<g id="edge10" class="edge"><title>p6&#45;&gt;v32</title>
<path fill="none" stroke="black" d="M478.5,-431.697C478.5,-423.983 478.5,-414.712 478.5,-406.112"/>
<polygon fill="black" stroke="black" points="482,-406.104 478.5,-396.104 475,-406.104 482,-406.104"/>
</g>
<!-- p7 -->
<g id="node21" class="node"><title>p7</title>
<path fill="none" stroke="black" d="M81,-324C81,-324 46,-324 46,-324 40,-324 34,-318 34,-312 34,-312 34,-300 34,-300 34,-294 40,-288 46,-288 46,-288 81,-288 81,-288 87,-288 93,-294 93,-300 93,-300 93,-312 93,-312 93,-318 87,-324 81,-324"/>
<text text-anchor="middle" x="63.5" y="-302.3" font-family="Times,serif" font-size="14.00">path (4)</text>
</g>
<!-- v32&#45;&gt;v16 -->
<g id="edge14" class="edge"><title>v32&#45;&gt;v16</title>
<path fill="none" stroke="black" d="M463.323,-362.834C452.649,-352.872 438.181,-339.369 426.147,-328.137"/>
<polygon fill="black" stroke="black" points="428.354,-325.409 418.655,-321.144 423.577,-330.526 428.354,-325.409"/>
</g>
<!-- v32&#45;&gt;p3 -->
<g id="edge26" class="edge"><title>v32&#45;&gt;p3</title>
<path fill="none" stroke="black" d="M478.5,-359.697C478.5,-351.983 478.5,-342.712 478.5,-334.112"/>
<polygon fill="black" stroke="black" points="482,-334.104 478.5,-324.104 475,-334.104 482,-334.104"/>
</g>
<!-- v44 -->
<g id="node27" class="node"><title>v44</title>
<ellipse fill="none" stroke="black" cx="553.5" cy="-306" rx="27" ry="18"/>
<text text-anchor="middle" x="553.5" y="-302.3" font-family="Times,serif" font-size="14.00">44</text>
</g>
<!-- v32&#45;&gt;v44 -->
<g id="edge7" class="edge"><title>v32&#45;&gt;v44</title>
<path fill="none" stroke="black" d="M493.677,-362.834C504.351,-352.872 518.819,-339.369 530.853,-328.137"/>
<polygon fill="black" stroke="black" points="533.423,-330.526 538.345,-321.144 528.646,-325.409 533.423,-330.526"/>
</g>
<!-- v38 -->
<g id="node23" class="node"><title>v38</title>
<ellipse fill="none" stroke="black" cx="138.5" cy="-306" rx="27" ry="18"/>
<text text-anchor="middle" x="138.5" y="-302.3" font-family="Times,serif" font-size="14.00">38</text>
</g>
<!-- v39 -->
<g id="node24" class="node"><title>v39</title>
<ellipse fill="none" stroke="black" cx="63.5" cy="-234" rx="27" ry="18"/>
<text text-anchor="middle" x="63.5" y="-230.3" font-family="Times,serif" font-size="14.00">39</text>
</g>
<!-- v38&#45;&gt;v39 -->
<g id="edge29" class="edge"><title>v38&#45;&gt;v39</title>
<path fill="none" stroke="black" d="M123.323,-290.834C112.649,-280.872 98.1808,-267.369 86.1469,-256.137"/>
<polygon fill="black" stroke="black" points="88.3535,-253.409 78.6548,-249.144 83.5773,-258.526 88.3535,-253.409"/>
</g>
<!-- p9 -->
<g id="node31" class="node"><title>p9</title>
<path fill="none" stroke="black" d="M156,-252C156,-252 121,-252 121,-252 115,-252 109,-246 109,-240 109,-240 109,-228 109,-228 109,-222 115,-216 121,-216 121,-216 156,-216 156,-216 162,-216 168,-222 168,-228 168,-228 168,-240 168,-240 168,-246 162,-252 156,-252"/>
<text text-anchor="middle" x="138.5" y="-230.3" font-family="Times,serif" font-size="14.00">path (2)</text>
</g>
<!-- v38&#45;&gt;p9 -->
<g id="edge3" class="edge"><title>v38&#45;&gt;p9</title>
<path fill="none" stroke="black" d="M138.5,-287.697C138.5,-279.983 138.5,-270.712 138.5,-262.112"/>
<polygon fill="black" stroke="black" points="142,-262.104 138.5,-252.104 135,-262.104 142,-262.104"/>
</g>
<!-- v41&#45;&gt;p7 -->
<g id="edge32" class="edge"><title>v41&#45;&gt;p7</title>
<path fill="none" stroke="black" d="M123.323,-362.834C113.585,-353.746 100.69,-341.71 89.3657,-331.141"/>
<polygon fill="black" stroke="black" points="91.5338,-328.377 81.8351,-324.113 86.7575,-333.495 91.5338,-328.377"/>
</g>
<!-- v41&#45;&gt;v38 -->
<g id="edge28" class="edge"><title>v41&#45;&gt;v38</title>
<path fill="none" stroke="black" d="M138.5,-359.697C138.5,-351.983 138.5,-342.712 138.5,-334.112"/>
<polygon fill="black" stroke="black" points="142,-334.104 138.5,-324.104 135,-334.104 142,-334.104"/>
</g>
<!-- p8 -->
<g id="node26" class="node"><title>p8</title>
<path fill="none" stroke="black" d="M231,-324C231,-324 196,-324 196,-324 190,-324 184,-318 184,-312 184,-312 184,-300 184,-300 184,-294 190,-288 196,-288 196,-288 231,-288 231,-288 237,-288 243,-294 243,-300 243,-300 243,-312 243,-312 243,-318 237,-324 231,-324"/>
<text text-anchor="middle" x="213.5" y="-302.3" font-family="Times,serif" font-size="14.00">path (5)</text>
</g>
<!-- v41&#45;&gt;p8 -->
<g id="edge23" class="edge"><title>v41&#45;&gt;p8</title>
<path fill="none" stroke="black" d="M153.677,-362.834C163.415,-353.746 176.31,-341.71 187.634,-331.141"/>
<polygon fill="black" stroke="black" points="190.242,-333.495 195.165,-324.113 185.466,-328.377 190.242,-333.495"/>
</g>
<!-- v47 -->
<g id="node29" class="node"><title>v47</title>
<ellipse fill="none" stroke="black" cx="213.5" cy="-234" rx="27" ry="18"/>
<text text-anchor="middle" x="213.5" y="-230.3" font-family="Times,serif" font-size="14.00">47</text>
</g>
<!-- p8&#45;&gt;v47 -->
<g id="edge24" class="edge"><title>p8&#45;&gt;v47</title>
<path fill="none" stroke="black" d="M213.5,-287.697C213.5,-279.983 213.5,-270.712 213.5,-262.112"/>
<polygon fill="black" stroke="black" points="217,-262.104 213.5,-252.104 210,-262.104 217,-262.104"/>
</g>
<!-- v50 -->
<g id="node30" class="node"><title>v50</title>
<ellipse fill="none" stroke="black" cx="177.5" cy="-162" rx="27" ry="18"/>
<text text-anchor="middle" x="177.5" y="-158.3" font-family="Times,serif" font-size="14.00">50</text>
</g>
<!-- v47&#45;&gt;v50 -->
<g id="edge21" class="edge"><title>v47&#45;&gt;v50</title>
<path fill="none" stroke="black" d="M205.15,-216.765C200.788,-208.283 195.353,-197.714 190.459,-188.197"/>
<polygon fill="black" stroke="black" points="193.49,-186.439 185.804,-179.147 187.265,-189.641 193.49,-186.439"/>
</g>
<!-- v55 -->
<g id="node33" class="node"><title>v55</title>
<ellipse fill="none" stroke="black" cx="249.5" cy="-162" rx="27" ry="18"/>
<text text-anchor="middle" x="249.5" y="-158.3" font-family="Times,serif" font-size="14.00">55</text>
</g>
<!-- v47&#45;&gt;v55 -->
<g id="edge30" class="edge"><title>v47&#45;&gt;v55</title>
<path fill="none" stroke="black" d="M221.85,-216.765C226.212,-208.283 231.647,-197.714 236.541,-188.197"/>
<polygon fill="black" stroke="black" points="239.735,-189.641 241.196,-179.147 233.51,-186.439 239.735,-189.641"/>
</g>
</g>
</svg>
