<?xml version="1.0" encoding="UTF-8" standalone="no"?>
<!DOCTYPE svg PUBLIC "-//W3C//DTD SVG 1.1//EN"
 "http://www.w3.org/Graphics/SVG/1.1/DTD/svg11.dtd">
<!-- Generated by graphviz version 2.38.0 (20140413.2041)
 -->
<!-- Title: %3 Pages: 1 -->
<svg width="311pt" height="404pt"
 viewBox="0.00 0.00 310.50 404.00" xmlns="http://www.w3.org/2000/svg" xmlns:xlink="http://www.w3.org/1999/xlink">
<g id="graph0" class="graph" transform="scale(1 1) rotate(0) translate(4 400)">
<title>%3</title>
<polygon fill="white" stroke="none" points="-4,4 -4,-400 306.5,-400 306.5,4 -4,4"/>
<!-- v0 -->
<g id="node1" class="node"><title>v0</title>
<ellipse fill="none" stroke="black" cx="135" cy="-234" rx="27" ry="18"/>
<text text-anchor="middle" x="135" y="-230.3" font-family="Times,serif" font-size="14.00">0</text>
</g>
<!-- v1 -->
<g id="node2" class="node"><title>v1</title>
<ellipse fill="none" stroke="black" cx="27" cy="-162" rx="27" ry="18"/>
<text text-anchor="middle" x="27" y="-158.3" font-family="Times,serif" font-size="14.00">1</text>
</g>
<!-- v0&#45;&gt;v1 -->
<g id="edge7" class="edge"><title>v0&#45;&gt;v1</title>
<path fill="none" stroke="black" d="M116.188,-220.807C98.9979,-209.665 73.3816,-193.062 54.0067,-180.504"/>
<polygon fill="black" stroke="black" points="55.8918,-177.555 45.5966,-175.053 52.0845,-183.429 55.8918,-177.555"/>
</g>
<!-- v2 -->
<g id="node3" class="node"><title>v2</title>
<ellipse fill="none" stroke="black" cx="99" cy="-162" rx="27" ry="18"/>
<text text-anchor="middle" x="99" y="-158.3" font-family="Times,serif" font-size="14.00">2</text>
</g>
<!-- v0&#45;&gt;v2 -->
<g id="edge11" class="edge"><title>v0&#45;&gt;v2</title>
<path fill="none" stroke="black" d="M126.65,-216.765C122.288,-208.283 116.853,-197.714 111.959,-188.197"/>
<polygon fill="black" stroke="black" points="114.99,-186.439 107.304,-179.147 108.765,-189.641 114.99,-186.439"/>
</g>
<!-- v14 -->
<g id="node7" class="node"><title>v14</title>
<ellipse fill="none" stroke="black" cx="171" cy="-162" rx="27" ry="18"/>
<text text-anchor="middle" x="171" y="-158.3" font-family="Times,serif" font-size="14.00">14</text>
</g>
<!-- v0&#45;&gt;v14 -->
<g id="edge1" class="edge"><title>v0&#45;&gt;v14</title>
<path fill="none" stroke="black" d="M143.35,-216.765C147.712,-208.283 153.147,-197.714 158.041,-188.197"/>
<polygon fill="black" stroke="black" points="161.235,-189.641 162.696,-179.147 155.01,-186.439 161.235,-189.641"/>
</g>
<!-- v15 -->
<g id="node8" class="node"><title>v15</title>
<ellipse fill="none" stroke="black" cx="198" cy="-90" rx="27" ry="18"/>
<text text-anchor="middle" x="198" y="-86.3" font-family="Times,serif" font-size="14.00">15</text>
</g>
<!-- v0&#45;&gt;v15 -->
<g id="edge3" class="edge"><title>v0&#45;&gt;v15</title>
<path fill="none" stroke="black" d="M157.097,-223.606C174.19,-215.011 196.635,-200.5 207,-180 216.815,-160.588 213.196,-135.776 207.905,-117.284"/>
<polygon fill="black" stroke="black" points="211.234,-116.204 204.868,-107.735 204.563,-118.326 211.234,-116.204"/>
</g>
<!-- p0 -->
<g id="node4" class="node"><title>p0</title>
<path fill="none" stroke="black" d="M75.5,-324C75.5,-324 40.5,-324 40.5,-324 34.5,-324 28.5,-318 28.5,-312 28.5,-312 28.5,-300 28.5,-300 28.5,-294 34.5,-288 40.5,-288 40.5,-288 75.5,-288 75.5,-288 81.5,-288 87.5,-294 87.5,-300 87.5,-300 87.5,-312 87.5,-312 87.5,-318 81.5,-324 75.5,-324"/>
<text text-anchor="middle" x="58" y="-302.3" font-family="Times,serif" font-size="14.00">path (4)</text>
</g>
<!-- p1 -->
<g id="node5" class="node"><title>p1</title>
<path fill="none" stroke="black" d="M152.5,-324C152.5,-324 117.5,-324 117.5,-324 111.5,-324 105.5,-318 105.5,-312 105.5,-312 105.5,-300 105.5,-300 105.5,-294 111.5,-288 117.5,-288 117.5,-288 152.5,-288 152.5,-288 158.5,-288 164.5,-294 164.5,-300 164.5,-300 164.5,-312 164.5,-312 164.5,-318 158.5,-324 152.5,-324"/>
<text text-anchor="middle" x="135" y="-302.3" font-family="Times,serif" font-size="14.00">path (6)</text>
</g>
<!-- p1&#45;&gt;v0 -->
<g id="edge5" class="edge"><title>p1&#45;&gt;v0</title>
<path fill="none" stroke="black" d="M135,-287.697C135,-279.983 135,-270.712 135,-262.112"/>
<polygon fill="black" stroke="black" points="138.5,-262.104 135,-252.104 131.5,-262.104 138.5,-262.104"/>
</g>
<!-- v9 -->
<g id="node6" class="node"><title>v9</title>
<ellipse fill="none" stroke="black" cx="96" cy="-378" rx="27" ry="18"/>
<text text-anchor="middle" x="96" y="-374.3" font-family="Times,serif" font-size="14.00">9</text>
</g>
<!-- v9&#45;&gt;p0 -->
<g id="edge2" class="edge"><title>v9&#45;&gt;p0</title>
<path fill="none" stroke="black" d="M87.1865,-360.765C82.7138,-352.525 77.1719,-342.317 72.1228,-333.016"/>
<polygon fill="black" stroke="black" points="75.1428,-331.243 67.2958,-324.124 68.9908,-334.582 75.1428,-331.243"/>
</g>
<!-- v9&#45;&gt;p1 -->
<g id="edge9" class="edge"><title>v9&#45;&gt;p1</title>
<path fill="none" stroke="black" d="M105.045,-360.765C109.636,-352.525 115.324,-342.317 120.506,-333.016"/>
<polygon fill="black" stroke="black" points="123.65,-334.563 125.46,-324.124 117.535,-331.156 123.65,-334.563"/>
</g>
<!-- v14&#45;&gt;v15 -->
<g id="edge6" class="edge"><title>v14&#45;&gt;v15</title>
<path fill="none" stroke="black" d="M177.399,-144.411C180.514,-136.335 184.334,-126.431 187.835,-117.355"/>
<polygon fill="black" stroke="black" points="191.126,-118.546 191.46,-107.956 184.595,-116.027 191.126,-118.546"/>
</g>
<!-- p2 -->
<g id="node9" class="node"><title>p2</title>
<path fill="none" stroke="black" d="M140.5,-36C140.5,-36 105.5,-36 105.5,-36 99.5,-36 93.5,-30 93.5,-24 93.5,-24 93.5,-12 93.5,-12 93.5,-6 99.5,-0 105.5,-0 105.5,-0 140.5,-0 140.5,-0 146.5,-0 152.5,-6 152.5,-12 152.5,-12 152.5,-24 152.5,-24 152.5,-30 146.5,-36 140.5,-36"/>
<text text-anchor="middle" x="123" y="-14.3" font-family="Times,serif" font-size="14.00">path (2)</text>
</g>
<!-- v15&#45;&gt;p2 -->
<g id="edge10" class="edge"><title>v15&#45;&gt;p2</title>
<path fill="none" stroke="black" d="M182.823,-74.8345C173.085,-65.7459 160.19,-53.7105 148.866,-43.1413"/>
<polygon fill="black" stroke="black" points="151.034,-40.3772 141.335,-36.1127 146.258,-45.4946 151.034,-40.3772"/>
</g>
<!-- v18 -->
<g id="node10" class="node"><title>v18</title>
<ellipse fill="none" stroke="black" cx="198" cy="-18" rx="27" ry="18"/>
<text text-anchor="middle" x="198" y="-14.3" font-family="Times,serif" font-size="14.00">18</text>
</g>
<!-- v15&#45;&gt;v18 -->
<g id="edge4" class="edge"><title>v15&#45;&gt;v18</title>
<path fill="none" stroke="black" d="M198,-71.6966C198,-63.9827 198,-54.7125 198,-46.1124"/>
<polygon fill="black" stroke="black" points="201.5,-46.1043 198,-36.1043 194.5,-46.1044 201.5,-46.1043"/>
</g>
<!-- p3 -->
<g id="node11" class="node"><title>p3</title>
<path fill="none" stroke="black" d="M290.5,-36C290.5,-36 255.5,-36 255.5,-36 249.5,-36 243.5,-30 243.5,-24 243.5,-24 243.5,-12 243.5,-12 243.5,-6 249.5,-0 255.5,-0 255.5,-0 290.5,-0 290.5,-0 296.5,-0 302.5,-6 302.5,-12 302.5,-12 302.5,-24 302.5,-24 302.5,-30 296.5,-36 290.5,-36"/>
<text text-anchor="middle" x="273" y="-14.3" font-family="Times,serif" font-size="14.00">path (7)</text>
</g>
<!-- v15&#45;&gt;p3 -->
<g id="edge8" class="edge"><title>v15&#45;&gt;p3</title>
<path fill="none" stroke="black" d="M213.177,-74.8345C222.915,-65.7459 235.81,-53.7105 247.134,-43.1413"/>
<polygon fill="black" stroke="black" points="249.742,-45.4946 254.665,-36.1127 244.966,-40.3772 249.742,-45.4946"/>
</g>
</g>
</svg>
