<?xml version="1.0" encoding="UTF-8" standalone="no"?>
<!DOCTYPE svg PUBLIC "-//W3C//DTD SVG 1.1//EN"
 "http://www.w3.org/Graphics/SVG/1.1/DTD/svg11.dtd">
<!-- Generated by graphviz version 2.38.0 (20140413.2041)
 -->
<!-- Title: %3 Pages: 1 -->
<svg width="442pt" height="332pt"
 viewBox="0.00 0.00 441.50 332.00" xmlns="http://www.w3.org/2000/svg" xmlns:xlink="http://www.w3.org/1999/xlink">
<g id="graph0" class="graph" transform="scale(1 1) rotate(0) translate(4 328)">
<title>%3</title>
<polygon fill="white" stroke="none" points="-4,4 -4,-328 437.5,-328 437.5,4 -4,4"/>
<!-- v0 -->
<g id="node1" class="node"><title>v0</title>
<ellipse fill="none" stroke="black" cx="254.5" cy="-306" rx="27" ry="18"/>
<text text-anchor="middle" x="254.5" y="-302.3" font-family="Times,serif" font-size="14.00">0</text>
</g>
<!-- v17 -->
<g id="node10" class="node"><title>v17</title>
<ellipse fill="none" stroke="black" cx="217.5" cy="-234" rx="27" ry="18"/>
<text text-anchor="middle" x="217.5" y="-230.3" font-family="Times,serif" font-size="14.00">17</text>
</g>
<!-- v0&#45;&gt;v17 -->
<g id="edge6" class="edge"><title>v0&#45;&gt;v17</title>
<path fill="none" stroke="black" d="M245.918,-288.765C241.435,-280.283 235.849,-269.714 230.819,-260.197"/>
<polygon fill="black" stroke="black" points="233.802,-258.353 226.035,-251.147 227.614,-261.624 233.802,-258.353"/>
</g>
<!-- p6 -->
<g id="node11" class="node"><title>p6</title>
<path fill="none" stroke="black" d="M310,-252C310,-252 275,-252 275,-252 269,-252 263,-246 263,-240 263,-240 263,-228 263,-228 263,-222 269,-216 275,-216 275,-216 310,-216 310,-216 316,-216 322,-222 322,-228 322,-228 322,-240 322,-240 322,-246 316,-252 310,-252"/>
<text text-anchor="middle" x="292.5" y="-230.3" font-family="Times,serif" font-size="14.00">path (3)</text>
</g>
<!-- v0&#45;&gt;p6 -->
<g id="edge12" class="edge"><title>v0&#45;&gt;p6</title>
<path fill="none" stroke="black" d="M263.313,-288.765C267.786,-280.525 273.328,-270.317 278.377,-261.016"/>
<polygon fill="black" stroke="black" points="281.509,-262.582 283.204,-252.124 275.357,-259.243 281.509,-262.582"/>
</g>
<!-- p0 -->
<g id="node2" class="node"><title>p0</title>
<path fill="none" stroke="black" d="M85,-180C85,-180 50,-180 50,-180 44,-180 38,-174 38,-168 38,-168 38,-156 38,-156 38,-150 44,-144 50,-144 50,-144 85,-144 85,-144 91,-144 97,-150 97,-156 97,-156 97,-168 97,-168 97,-174 91,-180 85,-180"/>
<text text-anchor="middle" x="67.5" y="-158.3" font-family="Times,serif" font-size="14.00">path (6)</text>
</g>
<!-- v2 -->
<g id="node3" class="node"><title>v2</title>
<ellipse fill="none" stroke="black" cx="142.5" cy="-162" rx="27" ry="18"/>
<text text-anchor="middle" x="142.5" y="-158.3" font-family="Times,serif" font-size="14.00">2</text>
</g>
<!-- v3 -->
<g id="node4" class="node"><title>v3</title>
<ellipse fill="none" stroke="black" cx="67.5" cy="-90" rx="27" ry="18"/>
<text text-anchor="middle" x="67.5" y="-86.3" font-family="Times,serif" font-size="14.00">3</text>
</g>
<!-- v2&#45;&gt;v3 -->
<g id="edge11" class="edge"><title>v2&#45;&gt;v3</title>
<path fill="none" stroke="black" d="M127.323,-146.834C116.649,-136.872 102.181,-123.369 90.1469,-112.137"/>
<polygon fill="black" stroke="black" points="92.3535,-109.409 82.6548,-105.144 87.5773,-114.526 92.3535,-109.409"/>
</g>
<!-- p1 -->
<g id="node5" class="node"><title>p1</title>
<path fill="none" stroke="black" d="M160,-108C160,-108 125,-108 125,-108 119,-108 113,-102 113,-96 113,-96 113,-84 113,-84 113,-78 119,-72 125,-72 125,-72 160,-72 160,-72 166,-72 172,-78 172,-84 172,-84 172,-96 172,-96 172,-102 166,-108 160,-108"/>
<text text-anchor="middle" x="142.5" y="-86.3" font-family="Times,serif" font-size="14.00">path (7)</text>
</g>
<!-- v2&#45;&gt;p1 -->
<g id="edge2" class="edge"><title>v2&#45;&gt;p1</title>
<path fill="none" stroke="black" d="M142.5,-143.697C142.5,-135.983 142.5,-126.712 142.5,-118.112"/>
<polygon fill="black" stroke="black" points="146,-118.104 142.5,-108.104 139,-118.104 146,-118.104"/>
</g>
<!-- p3 -->
<g id="node7" class="node"><title>p3</title>
<path fill="none" stroke="black" d="M237,-108C237,-108 202,-108 202,-108 196,-108 190,-102 190,-96 190,-96 190,-84 190,-84 190,-78 196,-72 202,-72 202,-72 237,-72 237,-72 243,-72 249,-78 249,-84 249,-84 249,-96 249,-96 249,-102 243,-108 237,-108"/>
<text text-anchor="middle" x="219.5" y="-86.3" font-family="Times,serif" font-size="14.00">path (2)</text>
</g>
<!-- v2&#45;&gt;p3 -->
<g id="edge5" class="edge"><title>v2&#45;&gt;p3</title>
<path fill="none" stroke="black" d="M158.082,-146.834C168.079,-137.746 181.318,-125.71 192.945,-115.141"/>
<polygon fill="black" stroke="black" points="195.631,-117.429 200.676,-108.113 190.922,-112.25 195.631,-117.429"/>
</g>
<!-- p2 -->
<g id="node6" class="node"><title>p2</title>
<path fill="none" stroke="black" d="M47,-36C47,-36 12,-36 12,-36 6,-36 0,-30 0,-24 0,-24 0,-12 0,-12 0,-6 6,-0 12,-0 12,-0 47,-0 47,-0 53,-0 59,-6 59,-12 59,-12 59,-24 59,-24 59,-30 53,-36 47,-36"/>
<text text-anchor="middle" x="29.5" y="-14.3" font-family="Times,serif" font-size="14.00">path (2)</text>
</g>
<!-- v3&#45;&gt;p2 -->
<g id="edge8" class="edge"><title>v3&#45;&gt;p2</title>
<path fill="none" stroke="black" d="M58.6865,-72.7646C54.2138,-64.5255 48.6719,-54.3166 43.6228,-45.0157"/>
<polygon fill="black" stroke="black" points="46.6428,-43.2426 38.7958,-36.1239 40.4908,-46.5823 46.6428,-43.2426"/>
</g>
<!-- p4 -->
<g id="node8" class="node"><title>p4</title>
<path fill="none" stroke="black" d="M124,-36C124,-36 89,-36 89,-36 83,-36 77,-30 77,-24 77,-24 77,-12 77,-12 77,-6 83,-0 89,-0 89,-0 124,-0 124,-0 130,-0 136,-6 136,-12 136,-12 136,-24 136,-24 136,-30 130,-36 124,-36"/>
<text text-anchor="middle" x="106.5" y="-14.3" font-family="Times,serif" font-size="14.00">path (3)</text>
</g>
<!-- v3&#45;&gt;p4 -->
<g id="edge13" class="edge"><title>v3&#45;&gt;p4</title>
<path fill="none" stroke="black" d="M76.5454,-72.7646C81.1358,-64.5255 86.8236,-54.3166 92.0056,-45.0157"/>
<polygon fill="black" stroke="black" points="95.1499,-46.5631 96.9595,-36.1239 89.035,-43.1561 95.1499,-46.5631"/>
</g>
<!-- p5 -->
<g id="node9" class="node"><title>p5</title>
<path fill="none" stroke="black" d="M235,-180C235,-180 200,-180 200,-180 194,-180 188,-174 188,-168 188,-168 188,-156 188,-156 188,-150 194,-144 200,-144 200,-144 235,-144 235,-144 241,-144 247,-150 247,-156 247,-156 247,-168 247,-168 247,-174 241,-180 235,-180"/>
<text text-anchor="middle" x="217.5" y="-158.3" font-family="Times,serif" font-size="14.00">path (4)</text>
</g>
<!-- v17&#45;&gt;p0 -->
<g id="edge3" class="edge"><title>v17&#45;&gt;p0</title>
<path fill="none" stroke="black" d="M196.009,-222.971C172.719,-212.102 135.065,-194.53 106.521,-181.21"/>
<polygon fill="black" stroke="black" points="107.767,-177.929 97.2248,-176.872 104.807,-184.272 107.767,-177.929"/>
</g>
<!-- v17&#45;&gt;v2 -->
<g id="edge4" class="edge"><title>v17&#45;&gt;v2</title>
<path fill="none" stroke="black" d="M202.323,-218.834C191.649,-208.872 177.181,-195.369 165.147,-184.137"/>
<polygon fill="black" stroke="black" points="167.354,-181.409 157.655,-177.144 162.577,-186.526 167.354,-181.409"/>
</g>
<!-- v17&#45;&gt;p5 -->
<g id="edge9" class="edge"><title>v17&#45;&gt;p5</title>
<path fill="none" stroke="black" d="M217.5,-215.697C217.5,-207.983 217.5,-198.712 217.5,-190.112"/>
<polygon fill="black" stroke="black" points="221,-190.104 217.5,-180.104 214,-190.104 221,-190.104"/>
</g>
<!-- p7 -->
<g id="node12" class="node"><title>p7</title>
<path fill="none" stroke="black" d="M312,-180C312,-180 277,-180 277,-180 271,-180 265,-174 265,-168 265,-168 265,-156 265,-156 265,-150 271,-144 277,-144 277,-144 312,-144 312,-144 318,-144 324,-150 324,-156 324,-156 324,-168 324,-168 324,-174 318,-180 312,-180"/>
<text text-anchor="middle" x="294.5" y="-158.3" font-family="Times,serif" font-size="14.00">path (4)</text>
</g>
<!-- v17&#45;&gt;p7 -->
<g id="edge10" class="edge"><title>v17&#45;&gt;p7</title>
<path fill="none" stroke="black" d="M233.082,-218.834C243.079,-209.746 256.318,-197.71 267.945,-187.141"/>
<polygon fill="black" stroke="black" points="270.631,-189.429 275.676,-180.113 265.922,-184.25 270.631,-189.429"/>
</g>
<!-- v35 -->
<g id="node13" class="node"><title>v35</title>
<ellipse fill="none" stroke="black" cx="369.5" cy="-162" rx="27" ry="18"/>
<text text-anchor="middle" x="369.5" y="-158.3" font-family="Times,serif" font-size="14.00">35</text>
</g>
<!-- v17&#45;&gt;v35 -->
<g id="edge14" class="edge"><title>v17&#45;&gt;v35</title>
<path fill="none" stroke="black" d="M238.798,-222.884C243.626,-220.607 248.735,-218.211 253.5,-216 288.502,-199.762 297.414,-196.055 332.5,-180 334.537,-179.068 336.636,-178.106 338.752,-177.136"/>
<polygon fill="black" stroke="black" points="340.355,-180.252 347.984,-172.9 337.435,-173.89 340.355,-180.252"/>
</g>
<!-- v41 -->
<g id="node15" class="node"><title>v41</title>
<ellipse fill="none" stroke="black" cx="369.5" cy="-90" rx="27" ry="18"/>
<text text-anchor="middle" x="369.5" y="-86.3" font-family="Times,serif" font-size="14.00">41</text>
</g>
<!-- v35&#45;&gt;v41 -->
<g id="edge1" class="edge"><title>v35&#45;&gt;v41</title>
<path fill="none" stroke="black" d="M369.5,-143.697C369.5,-135.983 369.5,-126.712 369.5,-118.112"/>
<polygon fill="black" stroke="black" points="373,-118.104 369.5,-108.104 366,-118.104 373,-118.104"/>
</g>
<!-- p8 -->
<g id="node14" class="node"><title>p8</title>
<path fill="none" stroke="black" d="M349,-36C349,-36 314,-36 314,-36 308,-36 302,-30 302,-24 302,-24 302,-12 302,-12 302,-6 308,-0 314,-0 314,-0 349,-0 349,-0 355,-0 361,-6 361,-12 361,-12 361,-24 361,-24 361,-30 355,-36 349,-36"/>
<text text-anchor="middle" x="331.5" y="-14.3" font-family="Times,serif" font-size="14.00">path (7)</text>
</g>
<!-- v41&#45;&gt;p8 -->
<g id="edge15" class="edge"><title>v41&#45;&gt;p8</title>
<path fill="none" stroke="black" d="M360.687,-72.7646C356.214,-64.5255 350.672,-54.3166 345.623,-45.0157"/>
<polygon fill="black" stroke="black" points="348.643,-43.2426 340.796,-36.1239 342.491,-46.5823 348.643,-43.2426"/>
</g>
<!-- v43 -->
<g id="node16" class="node"><title>v43</title>
<ellipse fill="none" stroke="black" cx="406.5" cy="-18" rx="27" ry="18"/>
<text text-anchor="middle" x="406.5" y="-14.3" font-family="Times,serif" font-size="14.00">43</text>
</g>
<!-- v41&#45;&gt;v43 -->
<g id="edge7" class="edge"><title>v41&#45;&gt;v43</title>
<path fill="none" stroke="black" d="M378.082,-72.7646C382.565,-64.2831 388.151,-53.7144 393.181,-44.1974"/>
<polygon fill="black" stroke="black" points="396.386,-45.6239 397.965,-35.1473 390.198,-42.3527 396.386,-45.6239"/>
</g>
</g>
</svg>
