<?xml version="1.0" encoding="UTF-8" standalone="no"?>
<!DOCTYPE svg PUBLIC "-//W3C//DTD SVG 1.1//EN"
 "http://www.w3.org/Graphics/SVG/1.1/DTD/svg11.dtd">
<!-- Generated by graphviz version 2.38.0 (20140413.2041)
 -->
<!-- Title: %3 Pages: 1 -->
<svg width="965pt" height="836pt"
 viewBox="0.00 0.00 964.64 836.00" xmlns="http://www.w3.org/2000/svg" xmlns:xlink="http://www.w3.org/1999/xlink">
<g id="graph0" class="graph" transform="scale(1 1) rotate(0) translate(4 832)">
<title>%3</title>
<polygon fill="white" stroke="none" points="-4,4 -4,-832 960.643,-832 960.643,4 -4,4"/>
<!-- 0 -->
<g id="node1" class="node"><title>0</title>
<g id="a_node1"><a xlink:title="0, diversity: 1, multiplicities: 19, labels: 0">
<ellipse fill="#fca082" stroke="black" cx="313.047" cy="-162" rx="37.0935" ry="18"/>
<text text-anchor="middle" x="313.047" y="-158.3" font-family="Times,serif" font-size="14.00">0 (1): 0</text>
</a>
</g>
</g>
<!-- 1 -->
<g id="node2" class="node"><title>1</title>
<g id="a_node2"><a xlink:title="1, diversity: 1, multiplicities: 37, labels: 0">
<ellipse fill="#fca082" stroke="black" cx="37.0467" cy="-162" rx="37.0935" ry="18"/>
<text text-anchor="middle" x="37.0467" y="-158.3" font-family="Times,serif" font-size="14.00">1 (1): 0</text>
</a>
</g>
</g>
<!-- 2 -->
<g id="node3" class="node"><title>2</title>
<g id="a_node3"><a xlink:title="2, diversity: 3, multiplicities: 3,37,139, labels: 0">
<ellipse fill="#fb7c5c" stroke="black" cx="175.047" cy="-234" rx="37.0935" ry="18"/>
<text text-anchor="middle" x="175.047" y="-230.3" font-family="Times,serif" font-size="14.00">2 (3): 0</text>
</a>
</g>
</g>
<!-- 2&#45;&gt;1 -->
<g id="edge3" class="edge"><title>2&#45;&gt;1</title>
<path fill="none" stroke="black" d="M150.375,-220.485C128.239,-209.257 95.5484,-192.675 70.9587,-180.202"/>
<polygon fill="black" stroke="black" points="72.4717,-177.045 61.97,-175.642 69.305,-183.287 72.4717,-177.045"/>
</g>
<!-- 3 -->
<g id="node4" class="node"><title>3</title>
<g id="a_node4"><a xlink:title="3, diversity: 1, multiplicities: 13, labels: 0">
<ellipse fill="#fca082" stroke="black" cx="129.047" cy="-162" rx="37.0935" ry="18"/>
<text text-anchor="middle" x="129.047" y="-158.3" font-family="Times,serif" font-size="14.00">3 (1): 0</text>
</a>
</g>
</g>
<!-- 2&#45;&gt;3 -->
<g id="edge18" class="edge"><title>2&#45;&gt;3</title>
<path fill="none" stroke="black" d="M164.145,-216.411C158.588,-207.955 151.714,-197.494 145.527,-188.078"/>
<polygon fill="black" stroke="black" points="148.287,-185.905 139.87,-179.47 142.437,-189.749 148.287,-185.905"/>
</g>
<!-- 9 -->
<g id="node10" class="node"><title>9</title>
<g id="a_node10"><a xlink:title="9, diversity: 1, multiplicities: 1, labels: 0">
<ellipse fill="#fff5f0" stroke="black" cx="221.047" cy="-162" rx="37.0935" ry="18"/>
<text text-anchor="middle" x="221.047" y="-158.3" font-family="Times,serif" font-size="14.00">9 (1): 0</text>
</a>
</g>
</g>
<!-- 2&#45;&gt;9 -->
<g id="edge8" class="edge"><title>2&#45;&gt;9</title>
<path fill="none" stroke="black" d="M185.948,-216.411C191.505,-207.955 198.379,-197.494 204.567,-188.078"/>
<polygon fill="black" stroke="black" points="207.657,-189.749 210.224,-179.47 201.807,-185.905 207.657,-189.749"/>
</g>
<!-- 4 -->
<g id="node5" class="node"><title>4</title>
<g id="a_node5"><a xlink:title="4, diversity: 1, multiplicities: 9, labels: 0">
<ellipse fill="#fcc4ad" stroke="black" cx="129.047" cy="-90" rx="37.0935" ry="18"/>
<text text-anchor="middle" x="129.047" y="-86.3" font-family="Times,serif" font-size="14.00">4 (1): 0</text>
</a>
</g>
</g>
<!-- 3&#45;&gt;4 -->
<g id="edge12" class="edge"><title>3&#45;&gt;4</title>
<path fill="none" stroke="black" d="M129.047,-143.697C129.047,-135.983 129.047,-126.712 129.047,-118.112"/>
<polygon fill="black" stroke="black" points="132.547,-118.104 129.047,-108.104 125.547,-118.104 132.547,-118.104"/>
</g>
<!-- 5 -->
<g id="node6" class="node"><title>5</title>
<g id="a_node6"><a xlink:title="5, diversity: 1, multiplicities: 2, labels: 0">
<ellipse fill="#fee3d6" stroke="black" cx="178.047" cy="-306" rx="37.0935" ry="18"/>
<text text-anchor="middle" x="178.047" y="-302.3" font-family="Times,serif" font-size="14.00">5 (1): 0</text>
</a>
</g>
</g>
<!-- 5&#45;&gt;2 -->
<g id="edge31" class="edge"><title>5&#45;&gt;2</title>
<path fill="none" stroke="black" d="M177.305,-287.697C176.975,-279.983 176.577,-270.712 176.209,-262.112"/>
<polygon fill="black" stroke="black" points="179.705,-261.945 175.78,-252.104 172.711,-262.245 179.705,-261.945"/>
</g>
<!-- 6 -->
<g id="node7" class="node"><title>6</title>
<g id="a_node7"><a xlink:title="6, diversity: 1, multiplicities: 5, labels: 0">
<ellipse fill="#fee3d6" stroke="black" cx="221.047" cy="-90" rx="37.0935" ry="18"/>
<text text-anchor="middle" x="221.047" y="-86.3" font-family="Times,serif" font-size="14.00">6 (1): 0</text>
</a>
</g>
</g>
<!-- 7 -->
<g id="node8" class="node"><title>7</title>
<g id="a_node8"><a xlink:title="7, diversity: 1, multiplicities: 2, labels: 0">
<ellipse fill="#fee3d6" stroke="black" cx="190.047" cy="-378" rx="37.0935" ry="18"/>
<text text-anchor="middle" x="190.047" y="-374.3" font-family="Times,serif" font-size="14.00">7 (1): 0</text>
</a>
</g>
</g>
<!-- 7&#45;&gt;5 -->
<g id="edge17" class="edge"><title>7&#45;&gt;5</title>
<path fill="none" stroke="black" d="M187.142,-360.055C185.82,-352.346 184.223,-343.027 182.738,-334.364"/>
<polygon fill="black" stroke="black" points="186.148,-333.54 181.008,-324.275 179.248,-334.723 186.148,-333.54"/>
</g>
<!-- 8 -->
<g id="node9" class="node"><title>8</title>
<g id="a_node9"><a xlink:title="8, diversity: 1, multiplicities: 1, labels: 0">
<ellipse fill="#fff5f0" stroke="black" cx="262.047" cy="-522" rx="37.0935" ry="18"/>
<text text-anchor="middle" x="262.047" y="-518.3" font-family="Times,serif" font-size="14.00">8 (1): 0</text>
</a>
</g>
</g>
<!-- 10 -->
<g id="node11" class="node"><title>10</title>
<g id="a_node11"><a xlink:title="10, diversity: 1, multiplicities: 1, labels: 0">
<ellipse fill="#fff5f0" stroke="black" cx="214.047" cy="-450" rx="41.6928" ry="18"/>
<text text-anchor="middle" x="214.047" y="-446.3" font-family="Times,serif" font-size="14.00">10 (1): 0</text>
</a>
</g>
</g>
<!-- 8&#45;&gt;10 -->
<g id="edge11" class="edge"><title>8&#45;&gt;10</title>
<path fill="none" stroke="black" d="M250.914,-504.765C245.062,-496.23 237.76,-485.582 231.203,-476.019"/>
<polygon fill="black" stroke="black" points="233.994,-473.901 225.452,-467.633 228.221,-477.86 233.994,-473.901"/>
</g>
<!-- 9&#45;&gt;6 -->
<g id="edge23" class="edge"><title>9&#45;&gt;6</title>
<path fill="none" stroke="black" d="M221.047,-143.697C221.047,-135.983 221.047,-126.712 221.047,-118.112"/>
<polygon fill="black" stroke="black" points="224.547,-118.104 221.047,-108.104 217.547,-118.104 224.547,-118.104"/>
</g>
<!-- 10&#45;&gt;7 -->
<g id="edge9" class="edge"><title>10&#45;&gt;7</title>
<path fill="none" stroke="black" d="M208.237,-432.055C205.495,-424.059 202.16,-414.331 199.098,-405.4"/>
<polygon fill="black" stroke="black" points="202.357,-404.113 195.803,-395.789 195.735,-406.384 202.357,-404.113"/>
</g>
<!-- 11 -->
<g id="node12" class="node"><title>11</title>
<g id="a_node12"><a xlink:title="11, diversity: 1, multiplicities: 7, labels: 0">
<ellipse fill="#fcc4ad" stroke="black" cx="814.047" cy="-18" rx="41.6928" ry="18"/>
<text text-anchor="middle" x="814.047" y="-14.3" font-family="Times,serif" font-size="14.00">11 (1): 0</text>
</a>
</g>
</g>
<!-- 12 -->
<g id="node13" class="node"><title>12</title>
<g id="a_node13"><a xlink:title="12, diversity: 1, multiplicities: 12, labels: 0">
<ellipse fill="#fca082" stroke="black" cx="310.047" cy="-810" rx="41.6928" ry="18"/>
<text text-anchor="middle" x="310.047" y="-806.3" font-family="Times,serif" font-size="14.00">12 (1): 0</text>
</a>
</g>
</g>
<!-- 26 -->
<g id="node27" class="node"><title>26</title>
<g id="a_node27"><a xlink:title="26, diversity: 1, multiplicities: 1, labels: 0">
<ellipse fill="#fff5f0" stroke="black" cx="310.047" cy="-738" rx="41.6928" ry="18"/>
<text text-anchor="middle" x="310.047" y="-734.3" font-family="Times,serif" font-size="14.00">26 (1): 0</text>
</a>
</g>
</g>
<!-- 12&#45;&gt;26 -->
<g id="edge25" class="edge"><title>12&#45;&gt;26</title>
<path fill="none" stroke="black" d="M310.047,-791.697C310.047,-783.983 310.047,-774.712 310.047,-766.112"/>
<polygon fill="black" stroke="black" points="313.547,-766.104 310.047,-756.104 306.547,-766.104 313.547,-766.104"/>
</g>
<!-- 13 -->
<g id="node14" class="node"><title>13</title>
<g id="a_node14"><a xlink:title="13, diversity: 1, multiplicities: 6, labels: 0">
<ellipse fill="#fcc4ad" stroke="black" cx="713.047" cy="-90" rx="41.6928" ry="18"/>
<text text-anchor="middle" x="713.047" y="-86.3" font-family="Times,serif" font-size="14.00">13 (1): 0</text>
</a>
</g>
</g>
<!-- 14 -->
<g id="node15" class="node"><title>14</title>
<g id="a_node15"><a xlink:title="14, diversity: 1, multiplicities: 10, labels: 0">
<ellipse fill="#fcc4ad" stroke="black" cx="410.047" cy="-162" rx="41.6928" ry="18"/>
<text text-anchor="middle" x="410.047" y="-158.3" font-family="Times,serif" font-size="14.00">14 (1): 0</text>
</a>
</g>
</g>
<!-- 15 -->
<g id="node16" class="node"><title>15</title>
<g id="a_node16"><a xlink:title="15, diversity: 4, multiplicities: 2,5,30,134, labels: 0">
<ellipse fill="#fb7c5c" stroke="black" cx="511.047" cy="-306" rx="41.6928" ry="18"/>
<text text-anchor="middle" x="511.047" y="-302.3" font-family="Times,serif" font-size="14.00">15 (4): 0</text>
</a>
</g>
</g>
<!-- 19 -->
<g id="node20" class="node"><title>19</title>
<g id="a_node20"><a xlink:title="19, diversity: 1, multiplicities: 36, labels: 0">
<ellipse fill="#fca082" stroke="black" cx="410.047" cy="-234" rx="41.6928" ry="18"/>
<text text-anchor="middle" x="410.047" y="-230.3" font-family="Times,serif" font-size="14.00">19 (1): 0</text>
</a>
</g>
</g>
<!-- 15&#45;&gt;19 -->
<g id="edge5" class="edge"><title>15&#45;&gt;19</title>
<path fill="none" stroke="black" d="M489.627,-290.155C475.068,-280.064 455.616,-266.583 439.588,-255.474"/>
<polygon fill="black" stroke="black" points="441.302,-252.403 431.089,-249.584 437.314,-258.157 441.302,-252.403"/>
</g>
<!-- 21 -->
<g id="node22" class="node"><title>21</title>
<g id="a_node22"><a xlink:title="21, diversity: 1, multiplicities: 16, labels: 0">
<ellipse fill="#fca082" stroke="black" cx="511.047" cy="-234" rx="41.6928" ry="18"/>
<text text-anchor="middle" x="511.047" y="-230.3" font-family="Times,serif" font-size="14.00">21 (1): 0</text>
</a>
</g>
</g>
<!-- 15&#45;&gt;21 -->
<g id="edge26" class="edge"><title>15&#45;&gt;21</title>
<path fill="none" stroke="black" d="M511.047,-287.697C511.047,-279.983 511.047,-270.712 511.047,-262.112"/>
<polygon fill="black" stroke="black" points="514.547,-262.104 511.047,-252.104 507.547,-262.104 514.547,-262.104"/>
</g>
<!-- 23 -->
<g id="node24" class="node"><title>23</title>
<g id="a_node24"><a xlink:title="23, diversity: 1, multiplicities: 6, labels: 0">
<ellipse fill="#fcc4ad" stroke="black" cx="662.047" cy="-234" rx="41.6928" ry="18"/>
<text text-anchor="middle" x="662.047" y="-230.3" font-family="Times,serif" font-size="14.00">23 (1): 0</text>
</a>
</g>
</g>
<!-- 15&#45;&gt;23 -->
<g id="edge7" class="edge"><title>15&#45;&gt;23</title>
<path fill="none" stroke="black" d="M538.392,-292.324C562.796,-281.01 598.72,-264.357 625.567,-251.911"/>
<polygon fill="black" stroke="black" points="627.05,-255.082 634.65,-247.7 624.106,-248.731 627.05,-255.082"/>
</g>
<!-- 32 -->
<g id="node33" class="node"><title>32</title>
<g id="a_node33"><a xlink:title="32, diversity: 1, multiplicities: 1, labels: 0">
<ellipse fill="#fff5f0" stroke="black" cx="788.047" cy="-234" rx="41.6928" ry="18"/>
<text text-anchor="middle" x="788.047" y="-230.3" font-family="Times,serif" font-size="14.00">32 (1): 0</text>
</a>
</g>
</g>
<!-- 15&#45;&gt;32 -->
<g id="edge2" class="edge"><title>15&#45;&gt;32</title>
<path fill="none" stroke="black" d="M546.129,-296.134C596.152,-283.493 687.992,-260.284 742.991,-246.386"/>
<polygon fill="black" stroke="black" points="743.975,-249.747 752.813,-243.904 742.26,-242.961 743.975,-249.747"/>
</g>
<!-- 16 -->
<g id="node17" class="node"><title>16</title>
<g id="a_node17"><a xlink:title="16, diversity: 1, multiplicities: 55, labels: 0">
<ellipse fill="#fca082" stroke="black" cx="612.047" cy="-90" rx="41.6928" ry="18"/>
<text text-anchor="middle" x="612.047" y="-86.3" font-family="Times,serif" font-size="14.00">16 (1): 0</text>
</a>
</g>
</g>
<!-- 17 -->
<g id="node18" class="node"><title>17</title>
<g id="a_node18"><a xlink:title="17, diversity: 1, multiplicities: 17, labels: 0">
<ellipse fill="#fca082" stroke="black" cx="814.047" cy="-162" rx="41.6928" ry="18"/>
<text text-anchor="middle" x="814.047" y="-158.3" font-family="Times,serif" font-size="14.00">17 (1): 0</text>
</a>
</g>
</g>
<!-- 17&#45;&gt;13 -->
<g id="edge21" class="edge"><title>17&#45;&gt;13</title>
<path fill="none" stroke="black" d="M792.627,-146.155C778.068,-136.064 758.616,-122.583 742.588,-111.474"/>
<polygon fill="black" stroke="black" points="744.302,-108.403 734.089,-105.584 740.314,-114.157 744.302,-108.403"/>
</g>
<!-- 22 -->
<g id="node23" class="node"><title>22</title>
<g id="a_node23"><a xlink:title="22, diversity: 1, multiplicities: 11, labels: 0">
<ellipse fill="#fca082" stroke="black" cx="814.047" cy="-90" rx="41.6928" ry="18"/>
<text text-anchor="middle" x="814.047" y="-86.3" font-family="Times,serif" font-size="14.00">22 (1): 0</text>
</a>
</g>
</g>
<!-- 17&#45;&gt;22 -->
<g id="edge30" class="edge"><title>17&#45;&gt;22</title>
<path fill="none" stroke="black" d="M814.047,-143.697C814.047,-135.983 814.047,-126.712 814.047,-118.112"/>
<polygon fill="black" stroke="black" points="817.547,-118.104 814.047,-108.104 810.547,-118.104 817.547,-118.104"/>
</g>
<!-- 27 -->
<g id="node28" class="node"><title>27</title>
<g id="a_node28"><a xlink:title="27, diversity: 1, multiplicities: 13, labels: 0">
<ellipse fill="#fca082" stroke="black" cx="915.047" cy="-90" rx="41.6928" ry="18"/>
<text text-anchor="middle" x="915.047" y="-86.3" font-family="Times,serif" font-size="14.00">27 (1): 0</text>
</a>
</g>
</g>
<!-- 17&#45;&gt;27 -->
<g id="edge22" class="edge"><title>17&#45;&gt;27</title>
<path fill="none" stroke="black" d="M835.466,-146.155C850.026,-136.064 869.478,-122.583 885.505,-111.474"/>
<polygon fill="black" stroke="black" points="887.779,-114.157 894.004,-105.584 883.792,-108.403 887.779,-114.157"/>
</g>
<!-- 18 -->
<g id="node19" class="node"><title>18</title>
<g id="a_node19"><a xlink:title="18, diversity: 2, multiplicities: 6,74, labels: 0">
<ellipse fill="#fca082" stroke="black" cx="713.047" cy="-162" rx="41.6928" ry="18"/>
<text text-anchor="middle" x="713.047" y="-158.3" font-family="Times,serif" font-size="14.00">18 (2): 0</text>
</a>
</g>
</g>
<!-- 20 -->
<g id="node21" class="node"><title>20</title>
<g id="a_node21"><a xlink:title="20, diversity: 1, multiplicities: 1, labels: 0">
<ellipse fill="#fff5f0" stroke="black" cx="455.047" cy="-522" rx="41.6928" ry="18"/>
<text text-anchor="middle" x="455.047" y="-518.3" font-family="Times,serif" font-size="14.00">20 (1): 0</text>
</a>
</g>
</g>
<!-- 28 -->
<g id="node29" class="node"><title>28</title>
<g id="a_node29"><a xlink:title="28, diversity: 1, multiplicities: 1, labels: 0">
<ellipse fill="#fff5f0" stroke="black" cx="480.047" cy="-450" rx="41.6928" ry="18"/>
<text text-anchor="middle" x="480.047" y="-446.3" font-family="Times,serif" font-size="14.00">28 (1): 0</text>
</a>
</g>
</g>
<!-- 20&#45;&gt;28 -->
<g id="edge27" class="edge"><title>20&#45;&gt;28</title>
<path fill="none" stroke="black" d="M461.099,-504.055C463.912,-496.176 467.327,-486.617 470.477,-477.794"/>
<polygon fill="black" stroke="black" points="473.81,-478.87 473.877,-468.275 467.217,-476.516 473.81,-478.87"/>
</g>
<!-- 21&#45;&gt;0 -->
<g id="edge14" class="edge"><title>21&#45;&gt;0</title>
<path fill="none" stroke="black" d="M479.547,-222.207C448.765,-211.614 400.605,-194.923 359.047,-180 356.505,-179.087 353.887,-178.14 351.251,-177.18"/>
<polygon fill="black" stroke="black" points="352.32,-173.845 341.727,-173.692 349.913,-180.418 352.32,-173.845"/>
</g>
<!-- 21&#45;&gt;14 -->
<g id="edge1" class="edge"><title>21&#45;&gt;14</title>
<path fill="none" stroke="black" d="M489.627,-218.155C475.068,-208.064 455.616,-194.583 439.588,-183.474"/>
<polygon fill="black" stroke="black" points="441.302,-180.403 431.089,-177.584 437.314,-186.157 441.302,-180.403"/>
</g>
<!-- 24 -->
<g id="node25" class="node"><title>24</title>
<g id="a_node25"><a xlink:title="24, diversity: 1, multiplicities: 7, labels: 0">
<ellipse fill="#fcc4ad" stroke="black" cx="511.047" cy="-162" rx="41.6928" ry="18"/>
<text text-anchor="middle" x="511.047" y="-158.3" font-family="Times,serif" font-size="14.00">24 (1): 0</text>
</a>
</g>
</g>
<!-- 21&#45;&gt;24 -->
<g id="edge28" class="edge"><title>21&#45;&gt;24</title>
<path fill="none" stroke="black" d="M511.047,-215.697C511.047,-207.983 511.047,-198.712 511.047,-190.112"/>
<polygon fill="black" stroke="black" points="514.547,-190.104 511.047,-180.104 507.547,-190.104 514.547,-190.104"/>
</g>
<!-- 30 -->
<g id="node31" class="node"><title>30</title>
<g id="a_node31"><a xlink:title="30, diversity: 1, multiplicities: 1, labels: 0">
<ellipse fill="#fff5f0" stroke="black" cx="612.047" cy="-162" rx="41.6928" ry="18"/>
<text text-anchor="middle" x="612.047" y="-158.3" font-family="Times,serif" font-size="14.00">30 (1): 0</text>
</a>
</g>
</g>
<!-- 21&#45;&gt;30 -->
<g id="edge16" class="edge"><title>21&#45;&gt;30</title>
<path fill="none" stroke="black" d="M532.466,-218.155C547.026,-208.064 566.478,-194.583 582.505,-183.474"/>
<polygon fill="black" stroke="black" points="584.779,-186.157 591.004,-177.584 580.792,-180.403 584.779,-186.157"/>
</g>
<!-- 22&#45;&gt;11 -->
<g id="edge20" class="edge"><title>22&#45;&gt;11</title>
<path fill="none" stroke="black" d="M814.047,-71.6966C814.047,-63.9827 814.047,-54.7125 814.047,-46.1124"/>
<polygon fill="black" stroke="black" points="817.547,-46.1043 814.047,-36.1043 810.547,-46.1044 817.547,-46.1043"/>
</g>
<!-- 23&#45;&gt;18 -->
<g id="edge32" class="edge"><title>23&#45;&gt;18</title>
<path fill="none" stroke="black" d="M674.133,-216.411C680.357,-207.868 688.072,-197.278 694.987,-187.787"/>
<polygon fill="black" stroke="black" points="697.987,-189.613 701.047,-179.47 692.33,-185.491 697.987,-189.613"/>
</g>
<!-- 25 -->
<g id="node26" class="node"><title>25</title>
<g id="a_node26"><a xlink:title="25, diversity: 1, multiplicities: 1, labels: 0">
<ellipse fill="#fff5f0" stroke="black" cx="310.047" cy="-594" rx="41.6928" ry="18"/>
<text text-anchor="middle" x="310.047" y="-590.3" font-family="Times,serif" font-size="14.00">25 (1): 0</text>
</a>
</g>
</g>
<!-- 25&#45;&gt;8 -->
<g id="edge6" class="edge"><title>25&#45;&gt;8</title>
<path fill="none" stroke="black" d="M298.671,-576.411C292.813,-567.868 285.552,-557.278 279.044,-547.787"/>
<polygon fill="black" stroke="black" points="281.882,-545.738 273.34,-539.47 276.109,-549.697 281.882,-545.738"/>
</g>
<!-- 25&#45;&gt;20 -->
<g id="edge29" class="edge"><title>25&#45;&gt;20</title>
<path fill="none" stroke="black" d="M336.98,-579.998C360.074,-568.849 393.542,-552.692 418.952,-540.425"/>
<polygon fill="black" stroke="black" points="420.773,-543.432 428.257,-535.933 417.73,-537.128 420.773,-543.432"/>
</g>
<!-- 29 -->
<g id="node30" class="node"><title>29</title>
<g id="a_node30"><a xlink:title="29, diversity: 1, multiplicities: 1, labels: 0">
<ellipse fill="#fff5f0" stroke="black" cx="310.047" cy="-666" rx="41.6928" ry="18"/>
<text text-anchor="middle" x="310.047" y="-662.3" font-family="Times,serif" font-size="14.00">29 (1): 0</text>
</a>
</g>
</g>
<!-- 26&#45;&gt;29 -->
<g id="edge10" class="edge"><title>26&#45;&gt;29</title>
<path fill="none" stroke="black" d="M310.047,-719.697C310.047,-711.983 310.047,-702.712 310.047,-694.112"/>
<polygon fill="black" stroke="black" points="313.547,-694.104 310.047,-684.104 306.547,-694.104 313.547,-694.104"/>
</g>
<!-- 31 -->
<g id="node32" class="node"><title>31</title>
<g id="a_node32"><a xlink:title="31, diversity: 1, multiplicities: 3, labels: 0">
<ellipse fill="#fee3d6" stroke="black" cx="505.047" cy="-378" rx="41.6928" ry="18"/>
<text text-anchor="middle" x="505.047" y="-374.3" font-family="Times,serif" font-size="14.00">31 (1): 0</text>
</a>
</g>
</g>
<!-- 28&#45;&gt;31 -->
<g id="edge13" class="edge"><title>28&#45;&gt;31</title>
<path fill="none" stroke="black" d="M486.099,-432.055C488.912,-424.176 492.327,-414.617 495.477,-405.794"/>
<polygon fill="black" stroke="black" points="498.81,-406.87 498.877,-396.275 492.217,-404.516 498.81,-406.87"/>
</g>
<!-- 29&#45;&gt;25 -->
<g id="edge4" class="edge"><title>29&#45;&gt;25</title>
<path fill="none" stroke="black" d="M310.047,-647.697C310.047,-639.983 310.047,-630.712 310.047,-622.112"/>
<polygon fill="black" stroke="black" points="313.547,-622.104 310.047,-612.104 306.547,-622.104 313.547,-622.104"/>
</g>
<!-- 30&#45;&gt;16 -->
<g id="edge19" class="edge"><title>30&#45;&gt;16</title>
<path fill="none" stroke="black" d="M612.047,-143.697C612.047,-135.983 612.047,-126.712 612.047,-118.112"/>
<polygon fill="black" stroke="black" points="615.547,-118.104 612.047,-108.104 608.547,-118.104 615.547,-118.104"/>
</g>
<!-- 31&#45;&gt;15 -->
<g id="edge15" class="edge"><title>31&#45;&gt;15</title>
<path fill="none" stroke="black" d="M506.53,-359.697C507.191,-351.983 507.986,-342.712 508.723,-334.112"/>
<polygon fill="black" stroke="black" points="512.214,-334.367 509.581,-324.104 505.239,-333.769 512.214,-334.367"/>
</g>
<!-- 32&#45;&gt;17 -->
<g id="edge24" class="edge"><title>32&#45;&gt;17</title>
<path fill="none" stroke="black" d="M794.341,-216.055C797.267,-208.176 800.818,-198.617 804.095,-189.794"/>
<polygon fill="black" stroke="black" points="807.429,-190.868 807.63,-180.275 800.867,-188.431 807.429,-190.868"/>
</g>
</g>
</svg>
