<?xml version="1.0" encoding="UTF-8" standalone="no"?>
<!DOCTYPE svg PUBLIC "-//W3C//DTD SVG 1.1//EN"
 "http://www.w3.org/Graphics/SVG/1.1/DTD/svg11.dtd">
<!-- Generated by graphviz version 2.40.1 (20161225.0304)
 -->
<!-- Title: %3 Pages: 1 -->
<svg width="985pt" height="1412pt"
 viewBox="0.00 0.00 985.00 1412.00" xmlns="http://www.w3.org/2000/svg" xmlns:xlink="http://www.w3.org/1999/xlink">
<g id="graph0" class="graph" transform="scale(1 1) rotate(0) translate(4 1408)">
<title>%3</title>
<polygon fill="#ffffff" stroke="transparent" points="-4,4 -4,-1408 981,-1408 981,4 -4,4"/>
<!-- 0 -->
<g id="node1" class="node">
<title>0</title>
<g id="a_node1"><a xlink:title="Y">
<ellipse fill="#800000" stroke="#000000" stroke-width="0" cx="851" cy="-162" rx="18" ry="18"/>
</a>
</g>
</g>
<!-- 18 -->
<g id="node19" class="node">
<title>18</title>
<g id="a_node19"><a xlink:title="Y">
<ellipse fill="#800000" stroke="#000000" stroke-width="0" cx="810" cy="-90" rx="18" ry="18"/>
</a>
</g>
</g>
<!-- 0&#45;&gt;18 -->
<g id="edge72" class="edge">
<title>0&#45;&gt;18</title>
<path fill="none" stroke="#000000" d="M841.9008,-146.0209C836.6988,-136.8857 830.0608,-125.2286 824.1884,-114.9162"/>
<polygon fill="#000000" stroke="#000000" points="827.0637,-112.8924 819.0738,-105.9345 820.9808,-116.3563 827.0637,-112.8924"/>
</g>
<!-- 29 -->
<g id="node30" class="node">
<title>29</title>
<g id="a_node30"><a xlink:title="Y">
<ellipse fill="#800000" stroke="#000000" stroke-width="0" cx="864" cy="-90" rx="18" ry="18"/>
</a>
</g>
</g>
<!-- 0&#45;&gt;29 -->
<g id="edge41" class="edge">
<title>0&#45;&gt;29</title>
<path fill="none" stroke="#000000" d="M854.2135,-144.2022C855.651,-136.2406 857.3795,-126.6671 858.9813,-117.7957"/>
<polygon fill="#000000" stroke="#000000" points="862.4458,-118.3053 860.7784,-107.8425 855.5572,-117.0615 862.4458,-118.3053"/>
</g>
<!-- 1 -->
<g id="node2" class="node">
<title>1</title>
<g id="a_node2"><a xlink:title="Y">
<ellipse fill="#800000" stroke="#000000" stroke-width="0" cx="527" cy="-306" rx="18" ry="18"/>
</a>
</g>
</g>
<!-- 25 -->
<g id="node26" class="node">
<title>25</title>
<g id="a_node26"><a xlink:title="Y">
<ellipse fill="#800000" stroke="#000000" stroke-width="0" cx="797" cy="-234" rx="18" ry="18"/>
</a>
</g>
</g>
<!-- 1&#45;&gt;25 -->
<g id="edge1" class="edge">
<title>1&#45;&gt;25</title>
<path fill="none" stroke="#000000" d="M544.7155,-301.2759C590.7859,-288.9904 714.5933,-255.9751 769.7919,-241.2555"/>
<polygon fill="#000000" stroke="#000000" points="770.8098,-244.6064 779.5703,-238.6479 769.0061,-237.8428 770.8098,-244.6064"/>
</g>
<!-- 38 -->
<g id="node39" class="node">
<title>38</title>
<g id="a_node39"><a xlink:title="Y">
<ellipse fill="#800000" stroke="#000000" stroke-width="0" cx="365" cy="-234" rx="18" ry="18"/>
</a>
</g>
</g>
<!-- 1&#45;&gt;38 -->
<g id="edge74" class="edge">
<title>1&#45;&gt;38</title>
<path fill="none" stroke="#000000" d="M509.873,-300.4337C483.7398,-291.6585 432.6599,-273.3883 392,-252 390.8501,-251.3951 389.6883,-250.7532 388.526,-250.0857"/>
<polygon fill="#000000" stroke="#000000" points="390.1388,-246.9672 379.7978,-244.6621 386.4442,-252.9128 390.1388,-246.9672"/>
</g>
<!-- 39 -->
<g id="node40" class="node">
<title>39</title>
<g id="a_node40"><a xlink:title="Y">
<ellipse fill="#800000" stroke="#000000" stroke-width="0" cx="419" cy="-234" rx="18" ry="18"/>
</a>
</g>
</g>
<!-- 1&#45;&gt;39 -->
<g id="edge6" class="edge">
<title>1&#45;&gt;39</title>
<path fill="none" stroke="#000000" d="M511.9831,-295.9887C494.03,-284.02 463.7675,-263.845 442.6604,-249.7736"/>
<polygon fill="#000000" stroke="#000000" points="444.4995,-246.7932 434.2376,-244.1584 440.6166,-252.6176 444.4995,-246.7932"/>
</g>
<!-- 65 -->
<g id="node66" class="node">
<title>65</title>
<g id="a_node66"><a xlink:title="Y">
<ellipse fill="#800000" stroke="#000000" stroke-width="0" cx="473" cy="-234" rx="18" ry="18"/>
</a>
</g>
</g>
<!-- 1&#45;&gt;65 -->
<g id="edge80" class="edge">
<title>1&#45;&gt;65</title>
<path fill="none" stroke="#000000" d="M516.0723,-291.4297C508.6066,-281.4754 498.5632,-268.0842 490.0526,-256.7368"/>
<polygon fill="#000000" stroke="#000000" points="492.7115,-254.4486 483.9115,-248.5486 487.1115,-258.6486 492.7115,-254.4486"/>
</g>
<!-- 66 -->
<g id="node67" class="node">
<title>66</title>
<g id="a_node67"><a xlink:title="Y">
<ellipse fill="#800000" stroke="#000000" stroke-width="0" cx="527" cy="-234" rx="18" ry="18"/>
</a>
</g>
</g>
<!-- 1&#45;&gt;66 -->
<g id="edge62" class="edge">
<title>1&#45;&gt;66</title>
<path fill="none" stroke="#000000" d="M527,-287.8314C527,-280.131 527,-270.9743 527,-262.4166"/>
<polygon fill="#000000" stroke="#000000" points="530.5001,-262.4132 527,-252.4133 523.5001,-262.4133 530.5001,-262.4132"/>
</g>
<!-- 67 -->
<g id="node68" class="node">
<title>67</title>
<g id="a_node68"><a xlink:title="Y">
<ellipse fill="#800000" stroke="#000000" stroke-width="0" cx="581" cy="-234" rx="18" ry="18"/>
</a>
</g>
</g>
<!-- 1&#45;&gt;67 -->
<g id="edge16" class="edge">
<title>1&#45;&gt;67</title>
<path fill="none" stroke="#000000" d="M537.9277,-291.4297C545.3934,-281.4754 555.4368,-268.0842 563.9474,-256.7368"/>
<polygon fill="#000000" stroke="#000000" points="566.8885,-258.6486 570.0885,-248.5486 561.2885,-254.4486 566.8885,-258.6486"/>
</g>
<!-- 72 -->
<g id="node73" class="node">
<title>72</title>
<g id="a_node73"><a xlink:title="Y">
<ellipse fill="#800000" stroke="#000000" stroke-width="0" cx="635" cy="-234" rx="18" ry="18"/>
</a>
</g>
</g>
<!-- 1&#45;&gt;72 -->
<g id="edge48" class="edge">
<title>1&#45;&gt;72</title>
<path fill="none" stroke="#000000" d="M542.0169,-295.9887C559.97,-284.02 590.2325,-263.845 611.3396,-249.7736"/>
<polygon fill="#000000" stroke="#000000" points="613.3834,-252.6176 619.7624,-244.1584 609.5005,-246.7932 613.3834,-252.6176"/>
</g>
<!-- 2 -->
<g id="node3" class="node">
<title>2</title>
<g id="a_node3"><a xlink:title="Y">
<ellipse fill="#800000" stroke="#000000" stroke-width="0" cx="504" cy="-1026" rx="18" ry="18"/>
</a>
</g>
</g>
<!-- 4 -->
<g id="node5" class="node">
<title>4</title>
<g id="a_node5"><a xlink:title="Y">
<ellipse fill="#800000" stroke="#000000" stroke-width="0" cx="423" cy="-954" rx="18" ry="18"/>
</a>
</g>
</g>
<!-- 2&#45;&gt;4 -->
<g id="edge57" class="edge">
<title>2&#45;&gt;4</title>
<path fill="none" stroke="#000000" d="M490.2595,-1013.7862C477.6157,-1002.5473 458.6738,-985.7101 444.1103,-972.7647"/>
<polygon fill="#000000" stroke="#000000" points="446.337,-970.0612 436.5376,-966.0334 441.6865,-975.2931 446.337,-970.0612"/>
</g>
<!-- 8 -->
<g id="node9" class="node">
<title>8</title>
<g id="a_node9"><a xlink:title="Y">
<ellipse fill="#800000" stroke="#000000" stroke-width="0" cx="477" cy="-954" rx="18" ry="18"/>
</a>
</g>
</g>
<!-- 2&#45;&gt;8 -->
<g id="edge8" class="edge">
<title>2&#45;&gt;8</title>
<path fill="none" stroke="#000000" d="M497.6014,-1008.937C494.407,-1000.4186 490.471,-989.9227 486.8982,-980.3952"/>
<polygon fill="#000000" stroke="#000000" points="490.1411,-979.0749 483.3527,-970.9405 483.5868,-981.5328 490.1411,-979.0749"/>
</g>
<!-- 16 -->
<g id="node17" class="node">
<title>16</title>
<g id="a_node17"><a xlink:title="Y">
<ellipse fill="#800000" stroke="#000000" stroke-width="0" cx="531" cy="-954" rx="18" ry="18"/>
</a>
</g>
</g>
<!-- 2&#45;&gt;16 -->
<g id="edge7" class="edge">
<title>2&#45;&gt;16</title>
<path fill="none" stroke="#000000" d="M510.3986,-1008.937C513.593,-1000.4186 517.529,-989.9227 521.1018,-980.3952"/>
<polygon fill="#000000" stroke="#000000" points="524.4132,-981.5328 524.6473,-970.9405 517.8589,-979.0749 524.4132,-981.5328"/>
</g>
<!-- 21 -->
<g id="node22" class="node">
<title>21</title>
<g id="a_node22"><a xlink:title="Y">
<ellipse fill="#800000" stroke="#000000" stroke-width="0" cx="585" cy="-954" rx="18" ry="18"/>
</a>
</g>
</g>
<!-- 2&#45;&gt;21 -->
<g id="edge69" class="edge">
<title>2&#45;&gt;21</title>
<path fill="none" stroke="#000000" d="M517.7405,-1013.7862C530.3843,-1002.5473 549.3262,-985.7101 563.8897,-972.7647"/>
<polygon fill="#000000" stroke="#000000" points="566.3135,-975.2931 571.4624,-966.0334 561.663,-970.0612 566.3135,-975.2931"/>
</g>
<!-- 3 -->
<g id="node4" class="node">
<title>3</title>
<g id="a_node4"><a xlink:title="Y">
<ellipse fill="#800000" stroke="#000000" stroke-width="0" cx="905" cy="-162" rx="18" ry="18"/>
</a>
</g>
</g>
<!-- 6 -->
<g id="node7" class="node">
<title>6</title>
<g id="a_node7"><a xlink:title="Y">
<ellipse fill="#800000" stroke="#000000" stroke-width="0" cx="315" cy="-882" rx="18" ry="18"/>
</a>
</g>
</g>
<!-- 4&#45;&gt;6 -->
<g id="edge67" class="edge">
<title>4&#45;&gt;6</title>
<path fill="none" stroke="#000000" d="M407.9831,-943.9887C390.03,-932.02 359.7675,-911.845 338.6604,-897.7736"/>
<polygon fill="#000000" stroke="#000000" points="340.4995,-894.7932 330.2376,-892.1584 336.6166,-900.6176 340.4995,-894.7932"/>
</g>
<!-- 20 -->
<g id="node21" class="node">
<title>20</title>
<g id="a_node21"><a xlink:title="Y">
<ellipse fill="#800000" stroke="#000000" stroke-width="0" cx="369" cy="-882" rx="18" ry="18"/>
</a>
</g>
</g>
<!-- 4&#45;&gt;20 -->
<g id="edge26" class="edge">
<title>4&#45;&gt;20</title>
<path fill="none" stroke="#000000" d="M412.0723,-939.4297C404.6066,-929.4754 394.5632,-916.0842 386.0526,-904.7368"/>
<polygon fill="#000000" stroke="#000000" points="388.7115,-902.4486 379.9115,-896.5486 383.1115,-906.6486 388.7115,-902.4486"/>
</g>
<!-- 28 -->
<g id="node29" class="node">
<title>28</title>
<g id="a_node29"><a xlink:title="Y">
<ellipse fill="#800000" stroke="#000000" stroke-width="0" cx="423" cy="-882" rx="18" ry="18"/>
</a>
</g>
</g>
<!-- 4&#45;&gt;28 -->
<g id="edge45" class="edge">
<title>4&#45;&gt;28</title>
<path fill="none" stroke="#000000" d="M423,-935.8314C423,-928.131 423,-918.9743 423,-910.4166"/>
<polygon fill="#000000" stroke="#000000" points="426.5001,-910.4132 423,-900.4133 419.5001,-910.4133 426.5001,-910.4132"/>
</g>
<!-- 34 -->
<g id="node35" class="node">
<title>34</title>
<g id="a_node35"><a xlink:title="Y">
<ellipse fill="#800000" stroke="#000000" stroke-width="0" cx="477" cy="-882" rx="18" ry="18"/>
</a>
</g>
</g>
<!-- 4&#45;&gt;34 -->
<g id="edge38" class="edge">
<title>4&#45;&gt;34</title>
<path fill="none" stroke="#000000" d="M433.9277,-939.4297C441.3934,-929.4754 451.4368,-916.0842 459.9474,-904.7368"/>
<polygon fill="#000000" stroke="#000000" points="462.8885,-906.6486 466.0885,-896.5486 457.2885,-902.4486 462.8885,-906.6486"/>
</g>
<!-- 36 -->
<g id="node37" class="node">
<title>36</title>
<g id="a_node37"><a xlink:title="Y">
<ellipse fill="#800000" stroke="#000000" stroke-width="0" cx="531" cy="-882" rx="18" ry="18"/>
</a>
</g>
</g>
<!-- 4&#45;&gt;36 -->
<g id="edge10" class="edge">
<title>4&#45;&gt;36</title>
<path fill="none" stroke="#000000" d="M438.0169,-943.9887C455.97,-932.02 486.2325,-911.845 507.3396,-897.7736"/>
<polygon fill="#000000" stroke="#000000" points="509.3834,-900.6176 515.7624,-892.1584 505.5005,-894.7932 509.3834,-900.6176"/>
</g>
<!-- 5 -->
<g id="node6" class="node">
<title>5</title>
<g id="a_node6"><a xlink:title="Y">
<ellipse fill="#800000" stroke="#000000" stroke-width="0" cx="675" cy="-90" rx="18" ry="18"/>
</a>
</g>
</g>
<!-- 33 -->
<g id="node34" class="node">
<title>33</title>
<g id="a_node34"><a xlink:title="F">
<ellipse fill="#0054ff" stroke="#000000" stroke-width="0" cx="675" cy="-18" rx="18" ry="18"/>
</a>
</g>
</g>
<!-- 5&#45;&gt;33 -->
<g id="edge21" class="edge">
<title>5&#45;&gt;33</title>
<path fill="none" stroke="#000000" d="M675,-71.8314C675,-64.131 675,-54.9743 675,-46.4166"/>
<polygon fill="#000000" stroke="#000000" points="678.5001,-46.4132 675,-36.4133 671.5001,-46.4133 678.5001,-46.4132"/>
</g>
<!-- 7 -->
<g id="node8" class="node">
<title>7</title>
<g id="a_node8"><a xlink:title="Y">
<ellipse fill="#800000" stroke="#000000" stroke-width="0" cx="959" cy="-162" rx="18" ry="18"/>
</a>
</g>
</g>
<!-- 9 -->
<g id="node10" class="node">
<title>9</title>
<g id="a_node10"><a xlink:title="Y">
<ellipse fill="#800000" stroke="#000000" stroke-width="0" cx="450" cy="-522" rx="18" ry="18"/>
</a>
</g>
</g>
<!-- 9&#45;&gt;1 -->
<g id="edge5" class="edge">
<title>9&#45;&gt;1</title>
<path fill="none" stroke="#000000" d="M467.9522,-518.7199C506.4287,-511.2866 594.7521,-491.9301 612,-468 646.9015,-419.5768 584.7508,-354.9441 549.2337,-323.9977"/>
<polygon fill="#000000" stroke="#000000" points="551.1558,-321.038 541.2689,-317.2301 546.6232,-326.3724 551.1558,-321.038"/>
</g>
<!-- 15 -->
<g id="node16" class="node">
<title>15</title>
<g id="a_node16"><a xlink:title="Y">
<ellipse fill="#800000" stroke="#000000" stroke-width="0" cx="261" cy="-450" rx="18" ry="18"/>
</a>
</g>
</g>
<!-- 9&#45;&gt;15 -->
<g id="edge29" class="edge">
<title>9&#45;&gt;15</title>
<path fill="none" stroke="#000000" d="M432.3796,-517.7771C401.9662,-510.1314 338.0677,-492.4873 288,-468 286.8328,-467.4292 285.6569,-466.8151 284.4831,-466.1702"/>
<polygon fill="#000000" stroke="#000000" points="286.0741,-463.0412 275.7126,-460.8298 282.4335,-469.0201 286.0741,-463.0412"/>
</g>
<!-- 23 -->
<g id="node24" class="node">
<title>23</title>
<g id="a_node24"><a xlink:title="Y">
<ellipse fill="#800000" stroke="#000000" stroke-width="0" cx="369" cy="-450" rx="18" ry="18"/>
</a>
</g>
</g>
<!-- 9&#45;&gt;23 -->
<g id="edge71" class="edge">
<title>9&#45;&gt;23</title>
<path fill="none" stroke="#000000" d="M436.2595,-509.7862C423.6157,-498.5473 404.6738,-481.7101 390.1103,-468.7647"/>
<polygon fill="#000000" stroke="#000000" points="392.337,-466.0612 382.5376,-462.0334 387.6865,-471.2931 392.337,-466.0612"/>
</g>
<!-- 24 -->
<g id="node25" class="node">
<title>24</title>
<g id="a_node25"><a xlink:title="Y">
<ellipse fill="#800000" stroke="#000000" stroke-width="0" cx="423" cy="-450" rx="18" ry="18"/>
</a>
</g>
</g>
<!-- 9&#45;&gt;24 -->
<g id="edge39" class="edge">
<title>9&#45;&gt;24</title>
<path fill="none" stroke="#000000" d="M443.6014,-504.937C440.407,-496.4186 436.471,-485.9227 432.8982,-476.3952"/>
<polygon fill="#000000" stroke="#000000" points="436.1411,-475.0749 429.3527,-466.9405 429.5868,-477.5328 436.1411,-475.0749"/>
</g>
<!-- 27 -->
<g id="node28" class="node">
<title>27</title>
<g id="a_node28"><a xlink:title="Y">
<ellipse fill="#800000" stroke="#000000" stroke-width="0" cx="477" cy="-450" rx="18" ry="18"/>
</a>
</g>
</g>
<!-- 9&#45;&gt;27 -->
<g id="edge65" class="edge">
<title>9&#45;&gt;27</title>
<path fill="none" stroke="#000000" d="M456.3986,-504.937C459.593,-496.4186 463.529,-485.9227 467.1018,-476.3952"/>
<polygon fill="#000000" stroke="#000000" points="470.4132,-477.5328 470.6473,-466.9405 463.8589,-475.0749 470.4132,-477.5328"/>
</g>
<!-- 37 -->
<g id="node38" class="node">
<title>37</title>
<g id="a_node38"><a xlink:title="Y">
<ellipse fill="#800000" stroke="#000000" stroke-width="0" cx="531" cy="-450" rx="18" ry="18"/>
</a>
</g>
</g>
<!-- 9&#45;&gt;37 -->
<g id="edge20" class="edge">
<title>9&#45;&gt;37</title>
<path fill="none" stroke="#000000" d="M463.7405,-509.7862C476.3843,-498.5473 495.3262,-481.7101 509.8897,-468.7647"/>
<polygon fill="#000000" stroke="#000000" points="512.3135,-471.2931 517.4624,-462.0334 507.663,-466.0612 512.3135,-471.2931"/>
</g>
<!-- 41 -->
<g id="node42" class="node">
<title>41</title>
<g id="a_node42"><a xlink:title="Y">
<ellipse fill="#800000" stroke="#000000" stroke-width="0" cx="585" cy="-450" rx="18" ry="18"/>
</a>
</g>
</g>
<!-- 9&#45;&gt;41 -->
<g id="edge11" class="edge">
<title>9&#45;&gt;41</title>
<path fill="none" stroke="#000000" d="M466.4332,-514.5634C487.896,-504.6754 526.4517,-486.3082 558,-468 559.1237,-467.3479 560.2642,-466.6671 561.4091,-465.9683"/>
<polygon fill="#000000" stroke="#000000" points="563.5333,-468.7644 570.0735,-460.4291 559.7628,-462.8666 563.5333,-468.7644"/>
</g>
<!-- 78 -->
<g id="node79" class="node">
<title>78</title>
<g id="a_node79"><a xlink:title="Y">
<ellipse fill="#800000" stroke="#000000" stroke-width="0" cx="315" cy="-450" rx="18" ry="18"/>
</a>
</g>
</g>
<!-- 9&#45;&gt;78 -->
<g id="edge31" class="edge">
<title>9&#45;&gt;78</title>
<path fill="none" stroke="#000000" d="M433.5668,-514.5634C412.104,-504.6754 373.5483,-486.3082 342,-468 340.8763,-467.3479 339.7358,-466.6671 338.5909,-465.9683"/>
<polygon fill="#000000" stroke="#000000" points="340.2372,-462.8666 329.9265,-460.4291 336.4667,-468.7644 340.2372,-462.8666"/>
</g>
<!-- 10 -->
<g id="node11" class="node">
<title>10</title>
<g id="a_node11"><a xlink:title="Y">
<ellipse fill="#800000" stroke="#000000" stroke-width="0" cx="689" cy="-162" rx="18" ry="18"/>
</a>
</g>
</g>
<!-- 10&#45;&gt;5 -->
<g id="edge64" class="edge">
<title>10&#45;&gt;5</title>
<path fill="none" stroke="#000000" d="M685.5393,-144.2022C683.9912,-136.2406 682.1297,-126.6671 680.4047,-117.7957"/>
<polygon fill="#000000" stroke="#000000" points="683.8138,-116.9906 678.4694,-107.8425 676.9425,-118.3268 683.8138,-116.9906"/>
</g>
<!-- 11 -->
<g id="node12" class="node">
<title>11</title>
<g id="a_node12"><a xlink:title="Y">
<ellipse fill="#800000" stroke="#000000" stroke-width="0" cx="729" cy="-90" rx="18" ry="18"/>
</a>
</g>
</g>
<!-- 10&#45;&gt;11 -->
<g id="edge4" class="edge">
<title>10&#45;&gt;11</title>
<path fill="none" stroke="#000000" d="M697.8773,-146.0209C702.9524,-136.8857 709.4285,-125.2286 715.1577,-114.9162"/>
<polygon fill="#000000" stroke="#000000" points="718.3506,-116.3758 720.1475,-105.9345 712.2315,-112.9763 718.3506,-116.3758"/>
</g>
<!-- 12 -->
<g id="node13" class="node">
<title>12</title>
<g id="a_node13"><a xlink:title="Y">
<ellipse fill="#800000" stroke="#000000" stroke-width="0" cx="221" cy="-378" rx="18" ry="18"/>
</a>
</g>
</g>
<!-- 14 -->
<g id="node15" class="node">
<title>14</title>
<g id="a_node15"><a xlink:title="Y">
<ellipse fill="#800000" stroke="#000000" stroke-width="0" cx="194" cy="-306" rx="18" ry="18"/>
</a>
</g>
</g>
<!-- 12&#45;&gt;14 -->
<g id="edge47" class="edge">
<title>12&#45;&gt;14</title>
<path fill="none" stroke="#000000" d="M214.6014,-360.937C211.407,-352.4186 207.471,-341.9227 203.8982,-332.3952"/>
<polygon fill="#000000" stroke="#000000" points="207.1411,-331.0749 200.3527,-322.9405 200.5868,-333.5328 207.1411,-331.0749"/>
</g>
<!-- 17 -->
<g id="node18" class="node">
<title>17</title>
<g id="a_node18"><a xlink:title="Y">
<ellipse fill="#800000" stroke="#000000" stroke-width="0" cx="248" cy="-306" rx="18" ry="18"/>
</a>
</g>
</g>
<!-- 12&#45;&gt;17 -->
<g id="edge36" class="edge">
<title>12&#45;&gt;17</title>
<path fill="none" stroke="#000000" d="M227.3986,-360.937C230.593,-352.4186 234.529,-341.9227 238.1018,-332.3952"/>
<polygon fill="#000000" stroke="#000000" points="241.4132,-333.5328 241.6473,-322.9405 234.8589,-331.0749 241.4132,-333.5328"/>
</g>
<!-- 13 -->
<g id="node14" class="node">
<title>13</title>
<g id="a_node14"><a xlink:title="Y">
<ellipse fill="#800000" stroke="#000000" stroke-width="0" cx="396" cy="-1098" rx="18" ry="18"/>
</a>
</g>
</g>
<!-- 15&#45;&gt;12 -->
<g id="edge24" class="edge">
<title>15&#45;&gt;12</title>
<path fill="none" stroke="#000000" d="M252.1227,-434.0209C247.0476,-424.8857 240.5715,-413.2286 234.8423,-402.9162"/>
<polygon fill="#000000" stroke="#000000" points="237.7685,-400.9763 229.8525,-393.9345 231.6494,-404.3758 237.7685,-400.9763"/>
</g>
<!-- 40 -->
<g id="node41" class="node">
<title>40</title>
<g id="a_node41"><a xlink:title="Y">
<ellipse fill="#800000" stroke="#000000" stroke-width="0" cx="275" cy="-378" rx="18" ry="18"/>
</a>
</g>
</g>
<!-- 15&#45;&gt;40 -->
<g id="edge53" class="edge">
<title>15&#45;&gt;40</title>
<path fill="none" stroke="#000000" d="M264.4607,-432.2022C266.0088,-424.2406 267.8703,-414.6671 269.5953,-405.7957"/>
<polygon fill="#000000" stroke="#000000" points="273.0575,-406.3268 271.5306,-395.8425 266.1862,-404.9906 273.0575,-406.3268"/>
</g>
<!-- 46 -->
<g id="node47" class="node">
<title>46</title>
<g id="a_node47"><a xlink:title="Y">
<ellipse fill="#800000" stroke="#000000" stroke-width="0" cx="248" cy="-234" rx="18" ry="18"/>
</a>
</g>
</g>
<!-- 17&#45;&gt;46 -->
<g id="edge22" class="edge">
<title>17&#45;&gt;46</title>
<path fill="none" stroke="#000000" d="M248,-287.8314C248,-280.131 248,-270.9743 248,-262.4166"/>
<polygon fill="#000000" stroke="#000000" points="251.5001,-262.4132 248,-252.4133 244.5001,-262.4133 251.5001,-262.4132"/>
</g>
<!-- 19 -->
<g id="node20" class="node">
<title>19</title>
<g id="a_node20"><a xlink:title="Y">
<ellipse fill="#800000" stroke="#000000" stroke-width="0" cx="477" cy="-738" rx="18" ry="18"/>
</a>
</g>
</g>
<!-- 30 -->
<g id="node31" class="node">
<title>30</title>
<g id="a_node31"><a xlink:title="Y">
<ellipse fill="#800000" stroke="#000000" stroke-width="0" cx="450" cy="-666" rx="18" ry="18"/>
</a>
</g>
</g>
<!-- 19&#45;&gt;30 -->
<g id="edge81" class="edge">
<title>19&#45;&gt;30</title>
<path fill="none" stroke="#000000" d="M470.6014,-720.937C467.407,-712.4186 463.471,-701.9227 459.8982,-692.3952"/>
<polygon fill="#000000" stroke="#000000" points="463.1411,-691.0749 456.3527,-682.9405 456.5868,-693.5328 463.1411,-691.0749"/>
</g>
<!-- 44 -->
<g id="node45" class="node">
<title>44</title>
<g id="a_node45"><a xlink:title="Y">
<ellipse fill="#800000" stroke="#000000" stroke-width="0" cx="504" cy="-666" rx="18" ry="18"/>
</a>
</g>
</g>
<!-- 19&#45;&gt;44 -->
<g id="edge17" class="edge">
<title>19&#45;&gt;44</title>
<path fill="none" stroke="#000000" d="M483.3986,-720.937C486.593,-712.4186 490.529,-701.9227 494.1018,-692.3952"/>
<polygon fill="#000000" stroke="#000000" points="497.4132,-693.5328 497.6473,-682.9405 490.8589,-691.0749 497.4132,-693.5328"/>
</g>
<!-- 43 -->
<g id="node44" class="node">
<title>43</title>
<g id="a_node44"><a xlink:title="Y">
<ellipse fill="#800000" stroke="#000000" stroke-width="0" cx="369" cy="-810" rx="18" ry="18"/>
</a>
</g>
</g>
<!-- 20&#45;&gt;43 -->
<g id="edge12" class="edge">
<title>20&#45;&gt;43</title>
<path fill="none" stroke="#000000" d="M369,-863.8314C369,-856.131 369,-846.9743 369,-838.4166"/>
<polygon fill="#000000" stroke="#000000" points="372.5001,-838.4132 369,-828.4133 365.5001,-838.4133 372.5001,-838.4132"/>
</g>
<!-- 22 -->
<g id="node23" class="node">
<title>22</title>
<g id="a_node23"><a xlink:title="Y">
<ellipse fill="#800000" stroke="#000000" stroke-width="0" cx="450" cy="-594" rx="18" ry="18"/>
</a>
</g>
</g>
<!-- 22&#45;&gt;9 -->
<g id="edge15" class="edge">
<title>22&#45;&gt;9</title>
<path fill="none" stroke="#000000" d="M450,-575.8314C450,-568.131 450,-558.9743 450,-550.4166"/>
<polygon fill="#000000" stroke="#000000" points="453.5001,-550.4132 450,-540.4133 446.5001,-550.4133 453.5001,-550.4132"/>
</g>
<!-- 42 -->
<g id="node43" class="node">
<title>42</title>
<g id="a_node43"><a xlink:title="Y">
<ellipse fill="#800000" stroke="#000000" stroke-width="0" cx="423" cy="-378" rx="18" ry="18"/>
</a>
</g>
</g>
<!-- 24&#45;&gt;42 -->
<g id="edge23" class="edge">
<title>24&#45;&gt;42</title>
<path fill="none" stroke="#000000" d="M423,-431.8314C423,-424.131 423,-414.9743 423,-406.4166"/>
<polygon fill="#000000" stroke="#000000" points="426.5001,-406.4132 423,-396.4133 419.5001,-406.4133 426.5001,-406.4132"/>
</g>
<!-- 25&#45;&gt;0 -->
<g id="edge34" class="edge">
<title>25&#45;&gt;0</title>
<path fill="none" stroke="#000000" d="M807.9277,-219.4297C815.3934,-209.4754 825.4368,-196.0842 833.9474,-184.7368"/>
<polygon fill="#000000" stroke="#000000" points="836.8885,-186.6486 840.0885,-176.5486 831.2885,-182.4486 836.8885,-186.6486"/>
</g>
<!-- 25&#45;&gt;3 -->
<g id="edge58" class="edge">
<title>25&#45;&gt;3</title>
<path fill="none" stroke="#000000" d="M812.0169,-223.9887C829.97,-212.02 860.2325,-191.845 881.3396,-177.7736"/>
<polygon fill="#000000" stroke="#000000" points="883.3834,-180.6176 889.7624,-172.1584 879.5005,-174.7932 883.3834,-180.6176"/>
</g>
<!-- 25&#45;&gt;7 -->
<g id="edge51" class="edge">
<title>25&#45;&gt;7</title>
<path fill="none" stroke="#000000" d="M814.127,-228.4337C840.2602,-219.6585 891.3401,-201.3883 932,-180 933.1499,-179.3951 934.3117,-178.7532 935.474,-178.0857"/>
<polygon fill="#000000" stroke="#000000" points="937.5558,-180.9128 944.2022,-172.6621 933.8612,-174.9672 937.5558,-180.9128"/>
</g>
<!-- 25&#45;&gt;10 -->
<g id="edge44" class="edge">
<title>25&#45;&gt;10</title>
<path fill="none" stroke="#000000" d="M781.9831,-223.9887C764.03,-212.02 733.7675,-191.845 712.6604,-177.7736"/>
<polygon fill="#000000" stroke="#000000" points="714.4995,-174.7932 704.2376,-172.1584 710.6166,-180.6176 714.4995,-174.7932"/>
</g>
<!-- 35 -->
<g id="node36" class="node">
<title>35</title>
<g id="a_node36"><a xlink:title="Y">
<ellipse fill="#800000" stroke="#000000" stroke-width="0" cx="743" cy="-162" rx="18" ry="18"/>
</a>
</g>
</g>
<!-- 25&#45;&gt;35 -->
<g id="edge40" class="edge">
<title>25&#45;&gt;35</title>
<path fill="none" stroke="#000000" d="M786.0723,-219.4297C778.6066,-209.4754 768.5632,-196.0842 760.0526,-184.7368"/>
<polygon fill="#000000" stroke="#000000" points="762.7115,-182.4486 753.9115,-176.5486 757.1115,-186.6486 762.7115,-182.4486"/>
</g>
<!-- 47 -->
<g id="node48" class="node">
<title>47</title>
<g id="a_node48"><a xlink:title="Y">
<ellipse fill="#800000" stroke="#000000" stroke-width="0" cx="797" cy="-162" rx="18" ry="18"/>
</a>
</g>
</g>
<!-- 25&#45;&gt;47 -->
<g id="edge19" class="edge">
<title>25&#45;&gt;47</title>
<path fill="none" stroke="#000000" d="M797,-215.8314C797,-208.131 797,-198.9743 797,-190.4166"/>
<polygon fill="#000000" stroke="#000000" points="800.5001,-190.4132 797,-180.4133 793.5001,-190.4133 800.5001,-190.4132"/>
</g>
<!-- 26 -->
<g id="node27" class="node">
<title>26</title>
<g id="a_node27"><a xlink:title="Y">
<ellipse fill="#800000" stroke="#000000" stroke-width="0" cx="531" cy="-378" rx="18" ry="18"/>
</a>
</g>
</g>
<!-- 27&#45;&gt;26 -->
<g id="edge3" class="edge">
<title>27&#45;&gt;26</title>
<path fill="none" stroke="#000000" d="M487.9277,-435.4297C495.3934,-425.4754 505.4368,-412.0842 513.9474,-400.7368"/>
<polygon fill="#000000" stroke="#000000" points="516.8885,-402.6486 520.0885,-392.5486 511.2885,-398.4486 516.8885,-402.6486"/>
</g>
<!-- 32 -->
<g id="node33" class="node">
<title>32</title>
<g id="a_node33"><a xlink:title="Y">
<ellipse fill="#800000" stroke="#000000" stroke-width="0" cx="477" cy="-378" rx="18" ry="18"/>
</a>
</g>
</g>
<!-- 27&#45;&gt;32 -->
<g id="edge43" class="edge">
<title>27&#45;&gt;32</title>
<path fill="none" stroke="#000000" d="M477,-431.8314C477,-424.131 477,-414.9743 477,-406.4166"/>
<polygon fill="#000000" stroke="#000000" points="480.5001,-406.4132 477,-396.4133 473.5001,-406.4133 480.5001,-406.4132"/>
</g>
<!-- 30&#45;&gt;22 -->
<g id="edge13" class="edge">
<title>30&#45;&gt;22</title>
<path fill="none" stroke="#000000" d="M450,-647.8314C450,-640.131 450,-630.9743 450,-622.4166"/>
<polygon fill="#000000" stroke="#000000" points="453.5001,-622.4132 450,-612.4133 446.5001,-622.4133 453.5001,-622.4132"/>
</g>
<!-- 31 -->
<g id="node32" class="node">
<title>31</title>
<g id="a_node32"><a xlink:title="Y">
<ellipse fill="#800000" stroke="#000000" stroke-width="0" cx="531" cy="-810" rx="18" ry="18"/>
</a>
</g>
</g>
<!-- 48 -->
<g id="node49" class="node">
<title>48</title>
<g id="a_node49"><a xlink:title="Y">
<ellipse fill="#800000" stroke="#000000" stroke-width="0" cx="477" cy="-810" rx="18" ry="18"/>
</a>
</g>
</g>
<!-- 34&#45;&gt;48 -->
<g id="edge2" class="edge">
<title>34&#45;&gt;48</title>
<path fill="none" stroke="#000000" d="M477,-863.8314C477,-856.131 477,-846.9743 477,-838.4166"/>
<polygon fill="#000000" stroke="#000000" points="480.5001,-838.4132 477,-828.4133 473.5001,-838.4133 480.5001,-838.4132"/>
</g>
<!-- 36&#45;&gt;31 -->
<g id="edge60" class="edge">
<title>36&#45;&gt;31</title>
<path fill="none" stroke="#000000" d="M531,-863.8314C531,-856.131 531,-846.9743 531,-838.4166"/>
<polygon fill="#000000" stroke="#000000" points="534.5001,-838.4132 531,-828.4133 527.5001,-838.4133 534.5001,-838.4132"/>
</g>
<!-- 45 -->
<g id="node46" class="node">
<title>45</title>
<g id="a_node46"><a xlink:title="Y">
<ellipse fill="#800000" stroke="#000000" stroke-width="0" cx="504" cy="-1098" rx="18" ry="18"/>
</a>
</g>
</g>
<!-- 45&#45;&gt;2 -->
<g id="edge66" class="edge">
<title>45&#45;&gt;2</title>
<path fill="none" stroke="#000000" d="M504,-1079.8314C504,-1072.131 504,-1062.9743 504,-1054.4166"/>
<polygon fill="#000000" stroke="#000000" points="507.5001,-1054.4132 504,-1044.4133 500.5001,-1054.4133 507.5001,-1054.4132"/>
</g>
<!-- 48&#45;&gt;19 -->
<g id="edge78" class="edge">
<title>48&#45;&gt;19</title>
<path fill="none" stroke="#000000" d="M477,-791.8314C477,-784.131 477,-774.9743 477,-766.4166"/>
<polygon fill="#000000" stroke="#000000" points="480.5001,-766.4132 477,-756.4133 473.5001,-766.4133 480.5001,-766.4132"/>
</g>
<!-- 49 -->
<g id="node50" class="node">
<title>49</title>
<g id="a_node50"><a xlink:title="Y">
<ellipse fill="#800000" stroke="#000000" stroke-width="0" cx="72" cy="-1386" rx="18" ry="18"/>
</a>
</g>
</g>
<!-- 50 -->
<g id="node51" class="node">
<title>50</title>
<g id="a_node51"><a xlink:title="Y">
<ellipse fill="#800000" stroke="#000000" stroke-width="0" cx="18" cy="-1314" rx="18" ry="18"/>
</a>
</g>
</g>
<!-- 49&#45;&gt;50 -->
<g id="edge27" class="edge">
<title>49&#45;&gt;50</title>
<path fill="none" stroke="#000000" d="M61.0723,-1371.4297C53.6066,-1361.4754 43.5632,-1348.0842 35.0526,-1336.7368"/>
<polygon fill="#000000" stroke="#000000" points="37.7115,-1334.4486 28.9115,-1328.5486 32.1115,-1338.6486 37.7115,-1334.4486"/>
</g>
<!-- 70 -->
<g id="node71" class="node">
<title>70</title>
<g id="a_node71"><a xlink:title="Y">
<ellipse fill="#800000" stroke="#000000" stroke-width="0" cx="72" cy="-1314" rx="18" ry="18"/>
</a>
</g>
</g>
<!-- 49&#45;&gt;70 -->
<g id="edge28" class="edge">
<title>49&#45;&gt;70</title>
<path fill="none" stroke="#000000" d="M72,-1367.8314C72,-1360.131 72,-1350.9743 72,-1342.4166"/>
<polygon fill="#000000" stroke="#000000" points="75.5001,-1342.4132 72,-1332.4133 68.5001,-1342.4133 75.5001,-1342.4132"/>
</g>
<!-- 74 -->
<g id="node75" class="node">
<title>74</title>
<g id="a_node75"><a xlink:title="Y">
<ellipse fill="#800000" stroke="#000000" stroke-width="0" cx="180" cy="-1314" rx="18" ry="18"/>
</a>
</g>
</g>
<!-- 49&#45;&gt;74 -->
<g id="edge30" class="edge">
<title>49&#45;&gt;74</title>
<path fill="none" stroke="#000000" d="M87.0169,-1375.9887C104.97,-1364.02 135.2325,-1343.845 156.3396,-1329.7736"/>
<polygon fill="#000000" stroke="#000000" points="158.3834,-1332.6176 164.7624,-1324.1584 154.5005,-1326.7932 158.3834,-1332.6176"/>
</g>
<!-- 73 -->
<g id="node74" class="node">
<title>73</title>
<g id="a_node74"><a xlink:title="Y">
<ellipse fill="#800000" stroke="#000000" stroke-width="0" cx="18" cy="-1242" rx="18" ry="18"/>
</a>
</g>
</g>
<!-- 50&#45;&gt;73 -->
<g id="edge68" class="edge">
<title>50&#45;&gt;73</title>
<path fill="none" stroke="#000000" d="M18,-1295.8314C18,-1288.131 18,-1278.9743 18,-1270.4166"/>
<polygon fill="#000000" stroke="#000000" points="21.5001,-1270.4132 18,-1260.4133 14.5001,-1270.4133 21.5001,-1270.4132"/>
</g>
<!-- 51 -->
<g id="node52" class="node">
<title>51</title>
<g id="a_node52"><a xlink:title="Y">
<ellipse fill="#800000" stroke="#000000" stroke-width="0" cx="288" cy="-1242" rx="18" ry="18"/>
</a>
</g>
</g>
<!-- 52 -->
<g id="node53" class="node">
<title>52</title>
<g id="a_node53"><a xlink:title="Y">
<ellipse fill="#800000" stroke="#000000" stroke-width="0" cx="585" cy="-1170" rx="18" ry="18"/>
</a>
</g>
</g>
<!-- 51&#45;&gt;52 -->
<g id="edge59" class="edge">
<title>51&#45;&gt;52</title>
<path fill="none" stroke="#000000" d="M305.8389,-1238.6906C346.2421,-1231.053 447.703,-1211.0719 531,-1188 539.8986,-1185.5352 549.4951,-1182.4718 558.0947,-1179.575"/>
<polygon fill="#000000" stroke="#000000" points="559.3114,-1182.8579 567.6303,-1176.2969 557.0356,-1176.2381 559.3114,-1182.8579"/>
</g>
<!-- 53 -->
<g id="node54" class="node">
<title>53</title>
<g id="a_node54"><a xlink:title="Y">
<ellipse fill="#800000" stroke="#000000" stroke-width="0" cx="72" cy="-1170" rx="18" ry="18"/>
</a>
</g>
</g>
<!-- 51&#45;&gt;53 -->
<g id="edge42" class="edge">
<title>51&#45;&gt;53</title>
<path fill="none" stroke="#000000" d="M270.1561,-1238.8212C235.8456,-1232.2985 158.7797,-1215.6446 99,-1188 97.8207,-1187.4547 96.6348,-1186.8615 95.453,-1186.2335"/>
<polygon fill="#000000" stroke="#000000" points="97.0289,-1183.0975 86.6529,-1180.9554 93.4284,-1189.1005 97.0289,-1183.0975"/>
</g>
<!-- 54 -->
<g id="node55" class="node">
<title>54</title>
<g id="a_node55"><a xlink:title="Y">
<ellipse fill="#800000" stroke="#000000" stroke-width="0" cx="126" cy="-1170" rx="18" ry="18"/>
</a>
</g>
</g>
<!-- 51&#45;&gt;54 -->
<g id="edge18" class="edge">
<title>51&#45;&gt;54</title>
<path fill="none" stroke="#000000" d="M270.873,-1236.4337C244.7398,-1227.6585 193.6599,-1209.3883 153,-1188 151.8501,-1187.3951 150.6883,-1186.7532 149.526,-1186.0857"/>
<polygon fill="#000000" stroke="#000000" points="151.1388,-1182.9672 140.7978,-1180.6621 147.4442,-1188.9128 151.1388,-1182.9672"/>
</g>
<!-- 55 -->
<g id="node56" class="node">
<title>55</title>
<g id="a_node56"><a xlink:title="Y">
<ellipse fill="#800000" stroke="#000000" stroke-width="0" cx="180" cy="-1170" rx="18" ry="18"/>
</a>
</g>
</g>
<!-- 51&#45;&gt;55 -->
<g id="edge77" class="edge">
<title>51&#45;&gt;55</title>
<path fill="none" stroke="#000000" d="M272.9831,-1231.9887C255.03,-1220.02 224.7675,-1199.845 203.6604,-1185.7736"/>
<polygon fill="#000000" stroke="#000000" points="205.4995,-1182.7932 195.2376,-1180.1584 201.6166,-1188.6176 205.4995,-1182.7932"/>
</g>
<!-- 56 -->
<g id="node57" class="node">
<title>56</title>
<g id="a_node57"><a xlink:title="Y">
<ellipse fill="#800000" stroke="#000000" stroke-width="0" cx="234" cy="-1170" rx="18" ry="18"/>
</a>
</g>
</g>
<!-- 51&#45;&gt;56 -->
<g id="edge52" class="edge">
<title>51&#45;&gt;56</title>
<path fill="none" stroke="#000000" d="M277.0723,-1227.4297C269.6066,-1217.4754 259.5632,-1204.0842 251.0526,-1192.7368"/>
<polygon fill="#000000" stroke="#000000" points="253.7115,-1190.4486 244.9115,-1184.5486 248.1115,-1194.6486 253.7115,-1190.4486"/>
</g>
<!-- 57 -->
<g id="node58" class="node">
<title>57</title>
<g id="a_node58"><a xlink:title="Y">
<ellipse fill="#800000" stroke="#000000" stroke-width="0" cx="288" cy="-1170" rx="18" ry="18"/>
</a>
</g>
</g>
<!-- 51&#45;&gt;57 -->
<g id="edge35" class="edge">
<title>51&#45;&gt;57</title>
<path fill="none" stroke="#000000" d="M288,-1223.8314C288,-1216.131 288,-1206.9743 288,-1198.4166"/>
<polygon fill="#000000" stroke="#000000" points="291.5001,-1198.4132 288,-1188.4133 284.5001,-1198.4133 291.5001,-1198.4132"/>
</g>
<!-- 58 -->
<g id="node59" class="node">
<title>58</title>
<g id="a_node59"><a xlink:title="Y">
<ellipse fill="#800000" stroke="#000000" stroke-width="0" cx="342" cy="-1170" rx="18" ry="18"/>
</a>
</g>
</g>
<!-- 51&#45;&gt;58 -->
<g id="edge9" class="edge">
<title>51&#45;&gt;58</title>
<path fill="none" stroke="#000000" d="M298.9277,-1227.4297C306.3934,-1217.4754 316.4368,-1204.0842 324.9474,-1192.7368"/>
<polygon fill="#000000" stroke="#000000" points="327.8885,-1194.6486 331.0885,-1184.5486 322.2885,-1190.4486 327.8885,-1194.6486"/>
</g>
<!-- 60 -->
<g id="node61" class="node">
<title>60</title>
<g id="a_node61"><a xlink:title="Y">
<ellipse fill="#800000" stroke="#000000" stroke-width="0" cx="396" cy="-1170" rx="18" ry="18"/>
</a>
</g>
</g>
<!-- 51&#45;&gt;60 -->
<g id="edge46" class="edge">
<title>51&#45;&gt;60</title>
<path fill="none" stroke="#000000" d="M303.0169,-1231.9887C320.97,-1220.02 351.2325,-1199.845 372.3396,-1185.7736"/>
<polygon fill="#000000" stroke="#000000" points="374.3834,-1188.6176 380.7624,-1180.1584 370.5005,-1182.7932 374.3834,-1188.6176"/>
</g>
<!-- 61 -->
<g id="node62" class="node">
<title>61</title>
<g id="a_node62"><a xlink:title="Y">
<ellipse fill="#800000" stroke="#000000" stroke-width="0" cx="450" cy="-1170" rx="18" ry="18"/>
</a>
</g>
</g>
<!-- 51&#45;&gt;61 -->
<g id="edge70" class="edge">
<title>51&#45;&gt;61</title>
<path fill="none" stroke="#000000" d="M305.127,-1236.4337C331.2602,-1227.6585 382.3401,-1209.3883 423,-1188 424.1499,-1187.3951 425.3117,-1186.7532 426.474,-1186.0857"/>
<polygon fill="#000000" stroke="#000000" points="428.5558,-1188.9128 435.2022,-1180.6621 424.8612,-1182.9672 428.5558,-1188.9128"/>
</g>
<!-- 63 -->
<g id="node64" class="node">
<title>63</title>
<g id="a_node64"><a xlink:title="Y">
<ellipse fill="#800000" stroke="#000000" stroke-width="0" cx="504" cy="-1170" rx="18" ry="18"/>
</a>
</g>
</g>
<!-- 51&#45;&gt;63 -->
<g id="edge63" class="edge">
<title>51&#45;&gt;63</title>
<path fill="none" stroke="#000000" d="M305.8439,-1238.8212C340.1544,-1232.2985 417.2203,-1215.6446 477,-1188 478.1793,-1187.4547 479.3652,-1186.8615 480.547,-1186.2335"/>
<polygon fill="#000000" stroke="#000000" points="482.5716,-1189.1005 489.3471,-1180.9554 478.9711,-1183.0975 482.5716,-1189.1005"/>
</g>
<!-- 62 -->
<g id="node63" class="node">
<title>62</title>
<g id="a_node63"><a xlink:title="Y">
<ellipse fill="#800000" stroke="#000000" stroke-width="0" cx="612" cy="-1098" rx="18" ry="18"/>
</a>
</g>
</g>
<!-- 52&#45;&gt;62 -->
<g id="edge33" class="edge">
<title>52&#45;&gt;62</title>
<path fill="none" stroke="#000000" d="M591.3986,-1152.937C594.593,-1144.4186 598.529,-1133.9227 602.1018,-1124.3952"/>
<polygon fill="#000000" stroke="#000000" points="605.4132,-1125.5328 605.6473,-1114.9405 598.8589,-1123.0749 605.4132,-1125.5328"/>
</g>
<!-- 59 -->
<g id="node60" class="node">
<title>59</title>
<g id="a_node60"><a xlink:title="Y">
<ellipse fill="#800000" stroke="#000000" stroke-width="0" cx="288" cy="-1098" rx="18" ry="18"/>
</a>
</g>
</g>
<!-- 57&#45;&gt;59 -->
<g id="edge54" class="edge">
<title>57&#45;&gt;59</title>
<path fill="none" stroke="#000000" d="M288,-1151.8314C288,-1144.131 288,-1134.9743 288,-1126.4166"/>
<polygon fill="#000000" stroke="#000000" points="291.5001,-1126.4132 288,-1116.4133 284.5001,-1126.4133 291.5001,-1126.4132"/>
</g>
<!-- 61&#45;&gt;13 -->
<g id="edge37" class="edge">
<title>61&#45;&gt;13</title>
<path fill="none" stroke="#000000" d="M439.0723,-1155.4297C431.6066,-1145.4754 421.5632,-1132.0842 413.0526,-1120.7368"/>
<polygon fill="#000000" stroke="#000000" points="415.7115,-1118.4486 406.9115,-1112.5486 410.1115,-1122.6486 415.7115,-1118.4486"/>
</g>
<!-- 77 -->
<g id="node78" class="node">
<title>77</title>
<g id="a_node78"><a xlink:title="Y">
<ellipse fill="#800000" stroke="#000000" stroke-width="0" cx="612" cy="-1026" rx="18" ry="18"/>
</a>
</g>
</g>
<!-- 62&#45;&gt;77 -->
<g id="edge75" class="edge">
<title>62&#45;&gt;77</title>
<path fill="none" stroke="#000000" d="M612,-1079.8314C612,-1072.131 612,-1062.9743 612,-1054.4166"/>
<polygon fill="#000000" stroke="#000000" points="615.5001,-1054.4132 612,-1044.4133 608.5001,-1054.4133 615.5001,-1054.4132"/>
</g>
<!-- 63&#45;&gt;45 -->
<g id="edge76" class="edge">
<title>63&#45;&gt;45</title>
<path fill="none" stroke="#000000" d="M504,-1151.8314C504,-1144.131 504,-1134.9743 504,-1126.4166"/>
<polygon fill="#000000" stroke="#000000" points="507.5001,-1126.4132 504,-1116.4133 500.5001,-1126.4133 507.5001,-1126.4132"/>
</g>
<!-- 75 -->
<g id="node76" class="node">
<title>75</title>
<g id="a_node76"><a xlink:title="Y">
<ellipse fill="#800000" stroke="#000000" stroke-width="0" cx="558" cy="-1098" rx="18" ry="18"/>
</a>
</g>
</g>
<!-- 63&#45;&gt;75 -->
<g id="edge25" class="edge">
<title>63&#45;&gt;75</title>
<path fill="none" stroke="#000000" d="M514.9277,-1155.4297C522.3934,-1145.4754 532.4368,-1132.0842 540.9474,-1120.7368"/>
<polygon fill="#000000" stroke="#000000" points="543.8885,-1122.6486 547.0885,-1112.5486 538.2885,-1118.4486 543.8885,-1122.6486"/>
</g>
<!-- 76 -->
<g id="node77" class="node">
<title>76</title>
<g id="a_node77"><a xlink:title="Y">
<ellipse fill="#800000" stroke="#000000" stroke-width="0" cx="450" cy="-1098" rx="18" ry="18"/>
</a>
</g>
</g>
<!-- 63&#45;&gt;76 -->
<g id="edge14" class="edge">
<title>63&#45;&gt;76</title>
<path fill="none" stroke="#000000" d="M493.0723,-1155.4297C485.6066,-1145.4754 475.5632,-1132.0842 467.0526,-1120.7368"/>
<polygon fill="#000000" stroke="#000000" points="469.7115,-1118.4486 460.9115,-1112.5486 464.1115,-1122.6486 469.7115,-1118.4486"/>
</g>
<!-- 64 -->
<g id="node65" class="node">
<title>64</title>
<g id="a_node65"><a xlink:title="Y">
<ellipse fill="#800000" stroke="#000000" stroke-width="0" cx="72" cy="-1242" rx="18" ry="18"/>
</a>
</g>
</g>
<!-- 80 -->
<g id="node81" class="node">
<title>80</title>
<g id="a_node81"><a xlink:title="Y">
<ellipse fill="#800000" stroke="#000000" stroke-width="0" cx="18" cy="-1170" rx="18" ry="18"/>
</a>
</g>
</g>
<!-- 64&#45;&gt;80 -->
<g id="edge73" class="edge">
<title>64&#45;&gt;80</title>
<path fill="none" stroke="#000000" d="M61.0723,-1227.4297C53.6066,-1217.4754 43.5632,-1204.0842 35.0526,-1192.7368"/>
<polygon fill="#000000" stroke="#000000" points="37.7115,-1190.4486 28.9115,-1184.5486 32.1115,-1194.6486 37.7115,-1190.4486"/>
</g>
<!-- 68 -->
<g id="node69" class="node">
<title>68</title>
<g id="a_node69"><a xlink:title="Y">
<ellipse fill="#800000" stroke="#000000" stroke-width="0" cx="581" cy="-162" rx="18" ry="18"/>
</a>
</g>
</g>
<!-- 67&#45;&gt;68 -->
<g id="edge79" class="edge">
<title>67&#45;&gt;68</title>
<path fill="none" stroke="#000000" d="M581,-215.8314C581,-208.131 581,-198.9743 581,-190.4166"/>
<polygon fill="#000000" stroke="#000000" points="584.5001,-190.4132 581,-180.4133 577.5001,-190.4133 584.5001,-190.4132"/>
</g>
<!-- 69 -->
<g id="node70" class="node">
<title>69</title>
<g id="a_node70"><a xlink:title="Y">
<ellipse fill="#800000" stroke="#000000" stroke-width="0" cx="527" cy="-162" rx="18" ry="18"/>
</a>
</g>
</g>
<!-- 67&#45;&gt;69 -->
<g id="edge61" class="edge">
<title>67&#45;&gt;69</title>
<path fill="none" stroke="#000000" d="M570.0723,-219.4297C562.6066,-209.4754 552.5632,-196.0842 544.0526,-184.7368"/>
<polygon fill="#000000" stroke="#000000" points="546.7115,-182.4486 537.9115,-176.5486 541.1115,-186.6486 546.7115,-182.4486"/>
</g>
<!-- 70&#45;&gt;64 -->
<g id="edge50" class="edge">
<title>70&#45;&gt;64</title>
<path fill="none" stroke="#000000" d="M72,-1295.8314C72,-1288.131 72,-1278.9743 72,-1270.4166"/>
<polygon fill="#000000" stroke="#000000" points="75.5001,-1270.4132 72,-1260.4133 68.5001,-1270.4133 75.5001,-1270.4132"/>
</g>
<!-- 71 -->
<g id="node72" class="node">
<title>71</title>
<g id="a_node72"><a xlink:title="Y">
<ellipse fill="#800000" stroke="#000000" stroke-width="0" cx="635" cy="-162" rx="18" ry="18"/>
</a>
</g>
</g>
<!-- 72&#45;&gt;71 -->
<g id="edge56" class="edge">
<title>72&#45;&gt;71</title>
<path fill="none" stroke="#000000" d="M635,-215.8314C635,-208.131 635,-198.9743 635,-190.4166"/>
<polygon fill="#000000" stroke="#000000" points="638.5001,-190.4132 635,-180.4133 631.5001,-190.4133 638.5001,-190.4132"/>
</g>
<!-- 74&#45;&gt;51 -->
<g id="edge32" class="edge">
<title>74&#45;&gt;51</title>
<path fill="none" stroke="#000000" d="M195.0169,-1303.9887C212.97,-1292.02 243.2325,-1271.845 264.3396,-1257.7736"/>
<polygon fill="#000000" stroke="#000000" points="266.3834,-1260.6176 272.7624,-1252.1584 262.5005,-1254.7932 266.3834,-1260.6176"/>
</g>
<!-- 79 -->
<g id="node80" class="node">
<title>79</title>
<g id="a_node80"><a xlink:title="Y">
<ellipse fill="#800000" stroke="#000000" stroke-width="0" cx="356" cy="-378" rx="18" ry="18"/>
</a>
</g>
</g>
<!-- 78&#45;&gt;79 -->
<g id="edge55" class="edge">
<title>78&#45;&gt;79</title>
<path fill="none" stroke="#000000" d="M324.0992,-434.0209C329.3012,-424.8857 335.9392,-413.2286 341.8116,-402.9162"/>
<polygon fill="#000000" stroke="#000000" points="345.0192,-404.3563 346.9262,-393.9345 338.9363,-400.8924 345.0192,-404.3563"/>
</g>
<!-- 79&#45;&gt;1 -->
<g id="edge49" class="edge">
<title>79&#45;&gt;1</title>
<path fill="none" stroke="#000000" d="M372.6847,-370.3491C379.8403,-367.105 388.3073,-363.3154 396,-360 432.0571,-344.4602 474.0752,-327.3069 500.6051,-316.5926"/>
<polygon fill="#000000" stroke="#000000" points="502.0032,-319.8028 509.9699,-312.8183 499.3864,-313.3102 502.0032,-319.8028"/>
</g>
</g>
</svg>
