<?xml version="1.0" encoding="UTF-8" standalone="no"?>
<!DOCTYPE svg PUBLIC "-//W3C//DTD SVG 1.1//EN"
 "http://www.w3.org/Graphics/SVG/1.1/DTD/svg11.dtd">
<!-- Generated by graphviz version 2.38.0 (20140413.2041)
 -->
<!-- Title: %3 Pages: 1 -->
<svg width="459pt" height="620pt"
 viewBox="0.00 0.00 459.00 620.00" xmlns="http://www.w3.org/2000/svg" xmlns:xlink="http://www.w3.org/1999/xlink">
<g id="graph0" class="graph" transform="scale(1 1) rotate(0) translate(4 616)">
<title>%3</title>
<polygon fill="white" stroke="none" points="-4,4 -4,-616 455,-616 455,4 -4,4"/>
<!-- p0 -->
<g id="node1" class="node"><title>p0</title>
<path fill="none" stroke="black" d="M341.5,-252C341.5,-252 306.5,-252 306.5,-252 300.5,-252 294.5,-246 294.5,-240 294.5,-240 294.5,-228 294.5,-228 294.5,-222 300.5,-216 306.5,-216 306.5,-216 341.5,-216 341.5,-216 347.5,-216 353.5,-222 353.5,-228 353.5,-228 353.5,-240 353.5,-240 353.5,-246 347.5,-252 341.5,-252"/>
<text text-anchor="middle" x="324" y="-230.3" font-family="Times,serif" font-size="14.00">path (2)</text>
</g>
<!-- v1 -->
<g id="node2" class="node"><title>v1</title>
<ellipse fill="none" stroke="black" cx="138" cy="-306" rx="27" ry="18"/>
<text text-anchor="middle" x="138" y="-302.3" font-family="Times,serif" font-size="14.00">1</text>
</g>
<!-- p1 -->
<g id="node5" class="node"><title>p1</title>
<path fill="none" stroke="black" d="M78.5,-252C78.5,-252 43.5,-252 43.5,-252 37.5,-252 31.5,-246 31.5,-240 31.5,-240 31.5,-228 31.5,-228 31.5,-222 37.5,-216 43.5,-216 43.5,-216 78.5,-216 78.5,-216 84.5,-216 90.5,-222 90.5,-228 90.5,-228 90.5,-240 90.5,-240 90.5,-246 84.5,-252 78.5,-252"/>
<text text-anchor="middle" x="61" y="-230.3" font-family="Times,serif" font-size="14.00">path (2)</text>
</g>
<!-- v1&#45;&gt;p1 -->
<g id="edge19" class="edge"><title>v1&#45;&gt;p1</title>
<path fill="none" stroke="black" d="M122.418,-290.834C112.421,-281.746 99.1815,-269.71 87.5555,-259.141"/>
<polygon fill="black" stroke="black" points="89.5778,-256.25 79.824,-252.113 84.8691,-261.429 89.5778,-256.25"/>
</g>
<!-- p2 -->
<g id="node7" class="node"><title>p2</title>
<path fill="none" stroke="black" d="M155.5,-252C155.5,-252 120.5,-252 120.5,-252 114.5,-252 108.5,-246 108.5,-240 108.5,-240 108.5,-228 108.5,-228 108.5,-222 114.5,-216 120.5,-216 120.5,-216 155.5,-216 155.5,-216 161.5,-216 167.5,-222 167.5,-228 167.5,-228 167.5,-240 167.5,-240 167.5,-246 161.5,-252 155.5,-252"/>
<text text-anchor="middle" x="138" y="-230.3" font-family="Times,serif" font-size="14.00">path (2)</text>
</g>
<!-- v1&#45;&gt;p2 -->
<g id="edge3" class="edge"><title>v1&#45;&gt;p2</title>
<path fill="none" stroke="black" d="M138,-287.697C138,-279.983 138,-270.712 138,-262.112"/>
<polygon fill="black" stroke="black" points="141.5,-262.104 138,-252.104 134.5,-262.104 141.5,-262.104"/>
</g>
<!-- p6 -->
<g id="node22" class="node"><title>p6</title>
<path fill="none" stroke="black" d="M232.5,-252C232.5,-252 197.5,-252 197.5,-252 191.5,-252 185.5,-246 185.5,-240 185.5,-240 185.5,-228 185.5,-228 185.5,-222 191.5,-216 197.5,-216 197.5,-216 232.5,-216 232.5,-216 238.5,-216 244.5,-222 244.5,-228 244.5,-228 244.5,-240 244.5,-240 244.5,-246 238.5,-252 232.5,-252"/>
<text text-anchor="middle" x="215" y="-230.3" font-family="Times,serif" font-size="14.00">path (2)</text>
</g>
<!-- v1&#45;&gt;p6 -->
<g id="edge5" class="edge"><title>v1&#45;&gt;p6</title>
<path fill="none" stroke="black" d="M153.582,-290.834C163.579,-281.746 176.818,-269.71 188.445,-259.141"/>
<polygon fill="black" stroke="black" points="191.131,-261.429 196.176,-252.113 186.422,-256.25 191.131,-261.429"/>
</g>
<!-- v2 -->
<g id="node3" class="node"><title>v2</title>
<ellipse fill="none" stroke="black" cx="274" cy="-450" rx="27" ry="18"/>
<text text-anchor="middle" x="274" y="-446.3" font-family="Times,serif" font-size="14.00">2</text>
</g>
<!-- v5 -->
<g id="node6" class="node"><title>v5</title>
<ellipse fill="none" stroke="black" cx="204" cy="-378" rx="27" ry="18"/>
<text text-anchor="middle" x="204" y="-374.3" font-family="Times,serif" font-size="14.00">5</text>
</g>
<!-- v2&#45;&gt;v5 -->
<g id="edge7" class="edge"><title>v2&#45;&gt;v5</title>
<path fill="none" stroke="black" d="M259.496,-434.496C249.735,-424.735 236.69,-411.69 225.7,-400.7"/>
<polygon fill="black" stroke="black" points="228.031,-398.082 218.485,-393.485 223.082,-403.031 228.031,-398.082"/>
</g>
<!-- v18 -->
<g id="node14" class="node"><title>v18</title>
<ellipse fill="none" stroke="black" cx="276" cy="-378" rx="27" ry="18"/>
<text text-anchor="middle" x="276" y="-374.3" font-family="Times,serif" font-size="14.00">18</text>
</g>
<!-- v2&#45;&gt;v18 -->
<g id="edge10" class="edge"><title>v2&#45;&gt;v18</title>
<path fill="none" stroke="black" d="M274.494,-431.697C274.715,-423.983 274.98,-414.712 275.225,-406.112"/>
<polygon fill="black" stroke="black" points="278.724,-406.2 275.511,-396.104 271.727,-406 278.724,-406.2"/>
</g>
<!-- v3 -->
<g id="node4" class="node"><title>v3</title>
<ellipse fill="none" stroke="black" cx="276" cy="-522" rx="27" ry="18"/>
<text text-anchor="middle" x="276" y="-518.3" font-family="Times,serif" font-size="14.00">3</text>
</g>
<!-- v3&#45;&gt;v2 -->
<g id="edge14" class="edge"><title>v3&#45;&gt;v2</title>
<path fill="none" stroke="black" d="M275.506,-503.697C275.285,-495.983 275.02,-486.712 274.775,-478.112"/>
<polygon fill="black" stroke="black" points="278.273,-478 274.489,-468.104 271.276,-478.2 278.273,-478"/>
</g>
<!-- v5&#45;&gt;v1 -->
<g id="edge6" class="edge"><title>v5&#45;&gt;v1</title>
<path fill="none" stroke="black" d="M190.003,-362.155C180.99,-352.596 169.109,-339.994 158.978,-329.249"/>
<polygon fill="black" stroke="black" points="161.383,-326.699 151.977,-321.824 156.29,-331.501 161.383,-326.699"/>
</g>
<!-- p5 -->
<g id="node21" class="node"><title>p5</title>
<path fill="none" stroke="black" d="M230.5,-324C230.5,-324 195.5,-324 195.5,-324 189.5,-324 183.5,-318 183.5,-312 183.5,-312 183.5,-300 183.5,-300 183.5,-294 189.5,-288 195.5,-288 195.5,-288 230.5,-288 230.5,-288 236.5,-288 242.5,-294 242.5,-300 242.5,-300 242.5,-312 242.5,-312 242.5,-318 236.5,-324 230.5,-324"/>
<text text-anchor="middle" x="213" y="-302.3" font-family="Times,serif" font-size="14.00">path (2)</text>
</g>
<!-- v5&#45;&gt;p5 -->
<g id="edge20" class="edge"><title>v5&#45;&gt;p5</title>
<path fill="none" stroke="black" d="M206.179,-360.055C207.17,-352.346 208.368,-343.027 209.482,-334.364"/>
<polygon fill="black" stroke="black" points="212.975,-334.64 210.779,-324.275 206.032,-333.747 212.975,-334.64"/>
</g>
<!-- v20 -->
<g id="node15" class="node"><title>v20</title>
<ellipse fill="none" stroke="black" cx="138" cy="-162" rx="27" ry="18"/>
<text text-anchor="middle" x="138" y="-158.3" font-family="Times,serif" font-size="14.00">20</text>
</g>
<!-- p2&#45;&gt;v20 -->
<g id="edge12" class="edge"><title>p2&#45;&gt;v20</title>
<path fill="none" stroke="black" d="M138,-215.697C138,-207.983 138,-198.712 138,-190.112"/>
<polygon fill="black" stroke="black" points="141.5,-190.104 138,-180.104 134.5,-190.104 141.5,-190.104"/>
</g>
<!-- v8 -->
<g id="node8" class="node"><title>v8</title>
<ellipse fill="none" stroke="black" cx="349" cy="-378" rx="27" ry="18"/>
<text text-anchor="middle" x="349" y="-374.3" font-family="Times,serif" font-size="14.00">8</text>
</g>
<!-- v11 -->
<g id="node11" class="node"><title>v11</title>
<ellipse fill="none" stroke="black" cx="340" cy="-306" rx="27" ry="18"/>
<text text-anchor="middle" x="340" y="-302.3" font-family="Times,serif" font-size="14.00">11</text>
</g>
<!-- v8&#45;&gt;v11 -->
<g id="edge17" class="edge"><title>v8&#45;&gt;v11</title>
<path fill="none" stroke="black" d="M346.821,-360.055C345.83,-352.346 344.632,-343.027 343.518,-334.364"/>
<polygon fill="black" stroke="black" points="346.968,-333.747 342.221,-324.275 340.025,-334.64 346.968,-333.747"/>
</g>
<!-- v14 -->
<g id="node13" class="node"><title>v14</title>
<ellipse fill="none" stroke="black" cx="412" cy="-306" rx="27" ry="18"/>
<text text-anchor="middle" x="412" y="-302.3" font-family="Times,serif" font-size="14.00">14</text>
</g>
<!-- v8&#45;&gt;v14 -->
<g id="edge8" class="edge"><title>v8&#45;&gt;v14</title>
<path fill="none" stroke="black" d="M362.361,-362.155C370.88,-352.689 382.085,-340.238 391.693,-329.563"/>
<polygon fill="black" stroke="black" points="394.57,-331.598 398.659,-321.824 389.367,-326.915 394.57,-331.598"/>
</g>
<!-- v9 -->
<g id="node9" class="node"><title>v9</title>
<ellipse fill="none" stroke="black" cx="399" cy="-234" rx="27" ry="18"/>
<text text-anchor="middle" x="399" y="-230.3" font-family="Times,serif" font-size="14.00">9</text>
</g>
<!-- p3 -->
<g id="node10" class="node"><title>p3</title>
<path fill="none" stroke="black" d="M366.5,-468C366.5,-468 331.5,-468 331.5,-468 325.5,-468 319.5,-462 319.5,-456 319.5,-456 319.5,-444 319.5,-444 319.5,-438 325.5,-432 331.5,-432 331.5,-432 366.5,-432 366.5,-432 372.5,-432 378.5,-438 378.5,-444 378.5,-444 378.5,-456 378.5,-456 378.5,-462 372.5,-468 366.5,-468"/>
<text text-anchor="middle" x="349" y="-446.3" font-family="Times,serif" font-size="14.00">path (4)</text>
</g>
<!-- p3&#45;&gt;v8 -->
<g id="edge1" class="edge"><title>p3&#45;&gt;v8</title>
<path fill="none" stroke="black" d="M349,-431.697C349,-423.983 349,-414.712 349,-406.112"/>
<polygon fill="black" stroke="black" points="352.5,-406.104 349,-396.104 345.5,-406.104 352.5,-406.104"/>
</g>
<!-- v11&#45;&gt;p0 -->
<g id="edge21" class="edge"><title>v11&#45;&gt;p0</title>
<path fill="none" stroke="black" d="M336.127,-288.055C334.345,-280.261 332.188,-270.822 330.189,-262.079"/>
<polygon fill="black" stroke="black" points="333.589,-261.244 327.949,-252.275 326.765,-262.804 333.589,-261.244"/>
</g>
<!-- v11&#45;&gt;v9 -->
<g id="edge18" class="edge"><title>v11&#45;&gt;v9</title>
<path fill="none" stroke="black" d="M352.802,-289.811C360.611,-280.546 370.747,-268.52 379.535,-258.094"/>
<polygon fill="black" stroke="black" points="382.454,-260.061 386.223,-250.159 377.102,-255.55 382.454,-260.061"/>
</g>
<!-- v12 -->
<g id="node12" class="node"><title>v12</title>
<ellipse fill="none" stroke="black" cx="312" cy="-594" rx="27" ry="18"/>
<text text-anchor="middle" x="312" y="-590.3" font-family="Times,serif" font-size="14.00">12</text>
</g>
<!-- v12&#45;&gt;v3 -->
<g id="edge13" class="edge"><title>v12&#45;&gt;v3</title>
<path fill="none" stroke="black" d="M303.65,-576.765C299.288,-568.283 293.853,-557.714 288.959,-548.197"/>
<polygon fill="black" stroke="black" points="291.99,-546.439 284.304,-539.147 285.765,-549.641 291.99,-546.439"/>
</g>
<!-- v32 -->
<g id="node24" class="node"><title>v32</title>
<ellipse fill="none" stroke="black" cx="349" cy="-522" rx="27" ry="18"/>
<text text-anchor="middle" x="349" y="-518.3" font-family="Times,serif" font-size="14.00">32</text>
</g>
<!-- v12&#45;&gt;v32 -->
<g id="edge2" class="edge"><title>v12&#45;&gt;v32</title>
<path fill="none" stroke="black" d="M320.582,-576.765C325.065,-568.283 330.651,-557.714 335.681,-548.197"/>
<polygon fill="black" stroke="black" points="338.886,-549.624 340.465,-539.147 332.698,-546.353 338.886,-549.624"/>
</g>
<!-- v21 -->
<g id="node16" class="node"><title>v21</title>
<ellipse fill="none" stroke="black" cx="102" cy="-90" rx="27" ry="18"/>
<text text-anchor="middle" x="102" y="-86.3" font-family="Times,serif" font-size="14.00">21</text>
</g>
<!-- v20&#45;&gt;v21 -->
<g id="edge9" class="edge"><title>v20&#45;&gt;v21</title>
<path fill="none" stroke="black" d="M129.65,-144.765C125.288,-136.283 119.853,-125.714 114.959,-116.197"/>
<polygon fill="black" stroke="black" points="117.99,-114.439 110.304,-107.147 111.765,-117.641 117.99,-114.439"/>
</g>
<!-- v24 -->
<g id="node19" class="node"><title>v24</title>
<ellipse fill="none" stroke="black" cx="174" cy="-90" rx="27" ry="18"/>
<text text-anchor="middle" x="174" y="-86.3" font-family="Times,serif" font-size="14.00">24</text>
</g>
<!-- v20&#45;&gt;v24 -->
<g id="edge22" class="edge"><title>v20&#45;&gt;v24</title>
<path fill="none" stroke="black" d="M146.35,-144.765C150.712,-136.283 156.147,-125.714 161.041,-116.197"/>
<polygon fill="black" stroke="black" points="164.235,-117.641 165.696,-107.147 158.01,-114.439 164.235,-117.641"/>
</g>
<!-- v22 -->
<g id="node17" class="node"><title>v22</title>
<ellipse fill="none" stroke="black" cx="27" cy="-18" rx="27" ry="18"/>
<text text-anchor="middle" x="27" y="-14.3" font-family="Times,serif" font-size="14.00">22</text>
</g>
<!-- v21&#45;&gt;v22 -->
<g id="edge23" class="edge"><title>v21&#45;&gt;v22</title>
<path fill="none" stroke="black" d="M86.8226,-74.8345C76.1486,-64.872 61.6808,-51.3687 49.6469,-40.1371"/>
<polygon fill="black" stroke="black" points="51.8535,-37.409 42.1548,-33.1445 47.0773,-42.5264 51.8535,-37.409"/>
</g>
<!-- p4 -->
<g id="node18" class="node"><title>p4</title>
<path fill="none" stroke="black" d="M119.5,-36C119.5,-36 84.5,-36 84.5,-36 78.5,-36 72.5,-30 72.5,-24 72.5,-24 72.5,-12 72.5,-12 72.5,-6 78.5,-0 84.5,-0 84.5,-0 119.5,-0 119.5,-0 125.5,-0 131.5,-6 131.5,-12 131.5,-12 131.5,-24 131.5,-24 131.5,-30 125.5,-36 119.5,-36"/>
<text text-anchor="middle" x="102" y="-14.3" font-family="Times,serif" font-size="14.00">path (2)</text>
</g>
<!-- v21&#45;&gt;p4 -->
<g id="edge15" class="edge"><title>v21&#45;&gt;p4</title>
<path fill="none" stroke="black" d="M102,-71.6966C102,-63.9827 102,-54.7125 102,-46.1124"/>
<polygon fill="black" stroke="black" points="105.5,-46.1043 102,-36.1043 98.5001,-46.1044 105.5,-46.1043"/>
</g>
<!-- v25 -->
<g id="node20" class="node"><title>v25</title>
<ellipse fill="none" stroke="black" cx="177" cy="-18" rx="27" ry="18"/>
<text text-anchor="middle" x="177" y="-14.3" font-family="Times,serif" font-size="14.00">25</text>
</g>
<!-- v21&#45;&gt;v25 -->
<g id="edge16" class="edge"><title>v21&#45;&gt;v25</title>
<path fill="none" stroke="black" d="M117.177,-74.8345C127.851,-64.872 142.319,-51.3687 154.353,-40.1371"/>
<polygon fill="black" stroke="black" points="156.923,-42.5264 161.845,-33.1445 152.146,-37.409 156.923,-42.5264"/>
</g>
<!-- v31 -->
<g id="node23" class="node"><title>v31</title>
<ellipse fill="none" stroke="black" cx="424" cy="-450" rx="27" ry="18"/>
<text text-anchor="middle" x="424" y="-446.3" font-family="Times,serif" font-size="14.00">31</text>
</g>
<!-- v32&#45;&gt;p3 -->
<g id="edge11" class="edge"><title>v32&#45;&gt;p3</title>
<path fill="none" stroke="black" d="M349,-503.697C349,-495.983 349,-486.712 349,-478.112"/>
<polygon fill="black" stroke="black" points="352.5,-478.104 349,-468.104 345.5,-478.104 352.5,-478.104"/>
</g>
<!-- v32&#45;&gt;v31 -->
<g id="edge4" class="edge"><title>v32&#45;&gt;v31</title>
<path fill="none" stroke="black" d="M364.177,-506.834C374.851,-496.872 389.319,-483.369 401.353,-472.137"/>
<polygon fill="black" stroke="black" points="403.923,-474.526 408.845,-465.144 399.146,-469.409 403.923,-474.526"/>
</g>
</g>
</svg>
