<?xml version="1.0" encoding="UTF-8" standalone="no"?>
<!DOCTYPE svg PUBLIC "-//W3C//DTD SVG 1.1//EN"
 "http://www.w3.org/Graphics/SVG/1.1/DTD/svg11.dtd">
<!-- Generated by graphviz version 2.38.0 (20140413.2041)
 -->
<!-- Title: %3 Pages: 1 -->
<svg width="2035pt" height="692pt"
 viewBox="0.00 0.00 2034.50 692.00" xmlns="http://www.w3.org/2000/svg" xmlns:xlink="http://www.w3.org/1999/xlink">
<g id="graph0" class="graph" transform="scale(1 1) rotate(0) translate(4 688)">
<title>%3</title>
<polygon fill="white" stroke="none" points="-4,4 -4,-688 2030.5,-688 2030.5,4 -4,4"/>
<!-- v0 -->
<g id="node1" class="node"><title>v0</title>
<ellipse fill="none" stroke="black" cx="1243" cy="-666" rx="27" ry="18"/>
<text text-anchor="middle" x="1243" y="-662.3" font-family="Times,serif" font-size="14.00">0</text>
</g>
<!-- p2 -->
<g id="node5" class="node"><title>p2</title>
<path fill="none" stroke="black" d="M1106.5,-612C1106.5,-612 1071.5,-612 1071.5,-612 1065.5,-612 1059.5,-606 1059.5,-600 1059.5,-600 1059.5,-588 1059.5,-588 1059.5,-582 1065.5,-576 1071.5,-576 1071.5,-576 1106.5,-576 1106.5,-576 1112.5,-576 1118.5,-582 1118.5,-588 1118.5,-588 1118.5,-600 1118.5,-600 1118.5,-606 1112.5,-612 1106.5,-612"/>
<text text-anchor="middle" x="1089" y="-590.3" font-family="Times,serif" font-size="14.00">path (4)</text>
</g>
<!-- v0&#45;&gt;p2 -->
<g id="edge87" class="edge"><title>v0&#45;&gt;p2</title>
<path fill="none" stroke="black" d="M1221.26,-655.119C1197.02,-644.101 1157.34,-626.064 1127.75,-612.616"/>
<polygon fill="black" stroke="black" points="1129.09,-609.377 1118.54,-608.426 1126.19,-615.75 1129.09,-609.377"/>
</g>
<!-- p19 -->
<g id="node38" class="node"><title>p19</title>
<path fill="none" stroke="black" d="M1183.5,-612C1183.5,-612 1148.5,-612 1148.5,-612 1142.5,-612 1136.5,-606 1136.5,-600 1136.5,-600 1136.5,-588 1136.5,-588 1136.5,-582 1142.5,-576 1148.5,-576 1148.5,-576 1183.5,-576 1183.5,-576 1189.5,-576 1195.5,-582 1195.5,-588 1195.5,-588 1195.5,-600 1195.5,-600 1195.5,-606 1189.5,-612 1183.5,-612"/>
<text text-anchor="middle" x="1166" y="-590.3" font-family="Times,serif" font-size="14.00">path (4)</text>
</g>
<!-- v0&#45;&gt;p19 -->
<g id="edge9" class="edge"><title>v0&#45;&gt;p19</title>
<path fill="none" stroke="black" d="M1227.42,-650.834C1217.42,-641.746 1204.18,-629.71 1192.56,-619.141"/>
<polygon fill="black" stroke="black" points="1194.58,-616.25 1184.82,-612.113 1189.87,-621.429 1194.58,-616.25"/>
</g>
<!-- p26 -->
<g id="node49" class="node"><title>p26</title>
<path fill="none" stroke="black" d="M1260.5,-612C1260.5,-612 1225.5,-612 1225.5,-612 1219.5,-612 1213.5,-606 1213.5,-600 1213.5,-600 1213.5,-588 1213.5,-588 1213.5,-582 1219.5,-576 1225.5,-576 1225.5,-576 1260.5,-576 1260.5,-576 1266.5,-576 1272.5,-582 1272.5,-588 1272.5,-588 1272.5,-600 1272.5,-600 1272.5,-606 1266.5,-612 1260.5,-612"/>
<text text-anchor="middle" x="1243" y="-590.3" font-family="Times,serif" font-size="14.00">path (3)</text>
</g>
<!-- v0&#45;&gt;p26 -->
<g id="edge18" class="edge"><title>v0&#45;&gt;p26</title>
<path fill="none" stroke="black" d="M1243,-647.697C1243,-639.983 1243,-630.712 1243,-622.112"/>
<polygon fill="black" stroke="black" points="1246.5,-622.104 1243,-612.104 1239.5,-622.104 1246.5,-622.104"/>
</g>
<!-- p36 -->
<g id="node73" class="node"><title>p36</title>
<path fill="none" stroke="black" d="M1337.5,-612C1337.5,-612 1302.5,-612 1302.5,-612 1296.5,-612 1290.5,-606 1290.5,-600 1290.5,-600 1290.5,-588 1290.5,-588 1290.5,-582 1296.5,-576 1302.5,-576 1302.5,-576 1337.5,-576 1337.5,-576 1343.5,-576 1349.5,-582 1349.5,-588 1349.5,-588 1349.5,-600 1349.5,-600 1349.5,-606 1343.5,-612 1337.5,-612"/>
<text text-anchor="middle" x="1320" y="-590.3" font-family="Times,serif" font-size="14.00">path (2)</text>
</g>
<!-- v0&#45;&gt;p36 -->
<g id="edge29" class="edge"><title>v0&#45;&gt;p36</title>
<path fill="none" stroke="black" d="M1258.58,-650.834C1268.58,-641.746 1281.82,-629.71 1293.44,-619.141"/>
<polygon fill="black" stroke="black" points="1296.13,-621.429 1301.18,-612.113 1291.42,-616.25 1296.13,-621.429"/>
</g>
<!-- p0 -->
<g id="node2" class="node"><title>p0</title>
<path fill="none" stroke="black" d="M1327.5,-180C1327.5,-180 1292.5,-180 1292.5,-180 1286.5,-180 1280.5,-174 1280.5,-168 1280.5,-168 1280.5,-156 1280.5,-156 1280.5,-150 1286.5,-144 1292.5,-144 1292.5,-144 1327.5,-144 1327.5,-144 1333.5,-144 1339.5,-150 1339.5,-156 1339.5,-156 1339.5,-168 1339.5,-168 1339.5,-174 1333.5,-180 1327.5,-180"/>
<text text-anchor="middle" x="1310" y="-158.3" font-family="Times,serif" font-size="14.00">path (5)</text>
</g>
<!-- v2 -->
<g id="node3" class="node"><title>v2</title>
<ellipse fill="none" stroke="black" cx="867" cy="-450" rx="27" ry="18"/>
<text text-anchor="middle" x="867" y="-446.3" font-family="Times,serif" font-size="14.00">2</text>
</g>
<!-- p1 -->
<g id="node4" class="node"><title>p1</title>
<path fill="none" stroke="black" d="M1302.5,-468C1302.5,-468 1267.5,-468 1267.5,-468 1261.5,-468 1255.5,-462 1255.5,-456 1255.5,-456 1255.5,-444 1255.5,-444 1255.5,-438 1261.5,-432 1267.5,-432 1267.5,-432 1302.5,-432 1302.5,-432 1308.5,-432 1314.5,-438 1314.5,-444 1314.5,-444 1314.5,-456 1314.5,-456 1314.5,-462 1308.5,-468 1302.5,-468"/>
<text text-anchor="middle" x="1285" y="-446.3" font-family="Times,serif" font-size="14.00">path (2)</text>
</g>
<!-- p3 -->
<g id="node6" class="node"><title>p3</title>
<path fill="none" stroke="black" d="M1177.5,-180C1177.5,-180 1142.5,-180 1142.5,-180 1136.5,-180 1130.5,-174 1130.5,-168 1130.5,-168 1130.5,-156 1130.5,-156 1130.5,-150 1136.5,-144 1142.5,-144 1142.5,-144 1177.5,-144 1177.5,-144 1183.5,-144 1189.5,-150 1189.5,-156 1189.5,-156 1189.5,-168 1189.5,-168 1189.5,-174 1183.5,-180 1177.5,-180"/>
<text text-anchor="middle" x="1160" y="-158.3" font-family="Times,serif" font-size="14.00">path (2)</text>
</g>
<!-- v6 -->
<g id="node7" class="node"><title>v6</title>
<ellipse fill="none" stroke="black" cx="626" cy="-90" rx="27" ry="18"/>
<text text-anchor="middle" x="626" y="-86.3" font-family="Times,serif" font-size="14.00">6</text>
</g>
<!-- p17 -->
<g id="node28" class="node"><title>p17</title>
<path fill="none" stroke="black" d="M605.5,-36C605.5,-36 570.5,-36 570.5,-36 564.5,-36 558.5,-30 558.5,-24 558.5,-24 558.5,-12 558.5,-12 558.5,-6 564.5,-0 570.5,-0 570.5,-0 605.5,-0 605.5,-0 611.5,-0 617.5,-6 617.5,-12 617.5,-12 617.5,-24 617.5,-24 617.5,-30 611.5,-36 605.5,-36"/>
<text text-anchor="middle" x="588" y="-14.3" font-family="Times,serif" font-size="14.00">path (2)</text>
</g>
<!-- v6&#45;&gt;p17 -->
<g id="edge85" class="edge"><title>v6&#45;&gt;p17</title>
<path fill="none" stroke="black" d="M617.187,-72.7646C612.714,-64.5255 607.172,-54.3166 602.123,-45.0157"/>
<polygon fill="black" stroke="black" points="605.143,-43.2426 597.296,-36.1239 598.991,-46.5823 605.143,-43.2426"/>
</g>
<!-- p22 -->
<g id="node45" class="node"><title>p22</title>
<path fill="none" stroke="black" d="M682.5,-36C682.5,-36 647.5,-36 647.5,-36 641.5,-36 635.5,-30 635.5,-24 635.5,-24 635.5,-12 635.5,-12 635.5,-6 641.5,-0 647.5,-0 647.5,-0 682.5,-0 682.5,-0 688.5,-0 694.5,-6 694.5,-12 694.5,-12 694.5,-24 694.5,-24 694.5,-30 688.5,-36 682.5,-36"/>
<text text-anchor="middle" x="665" y="-14.3" font-family="Times,serif" font-size="14.00">path (5)</text>
</g>
<!-- v6&#45;&gt;p22 -->
<g id="edge72" class="edge"><title>v6&#45;&gt;p22</title>
<path fill="none" stroke="black" d="M635.045,-72.7646C639.636,-64.5255 645.324,-54.3166 650.506,-45.0157"/>
<polygon fill="black" stroke="black" points="653.65,-46.5631 655.46,-36.1239 647.535,-43.1561 653.65,-46.5631"/>
</g>
<!-- p4 -->
<g id="node8" class="node"><title>p4</title>
<path fill="none" stroke="black" d="M191.5,-396C191.5,-396 156.5,-396 156.5,-396 150.5,-396 144.5,-390 144.5,-384 144.5,-384 144.5,-372 144.5,-372 144.5,-366 150.5,-360 156.5,-360 156.5,-360 191.5,-360 191.5,-360 197.5,-360 203.5,-366 203.5,-372 203.5,-372 203.5,-384 203.5,-384 203.5,-390 197.5,-396 191.5,-396"/>
<text text-anchor="middle" x="174" y="-374.3" font-family="Times,serif" font-size="14.00">path (3)</text>
</g>
<!-- p5 -->
<g id="node9" class="node"><title>p5</title>
<path fill="none" stroke="black" d="M568.5,-180C568.5,-180 533.5,-180 533.5,-180 527.5,-180 521.5,-174 521.5,-168 521.5,-168 521.5,-156 521.5,-156 521.5,-150 527.5,-144 533.5,-144 533.5,-144 568.5,-144 568.5,-144 574.5,-144 580.5,-150 580.5,-156 580.5,-156 580.5,-168 580.5,-168 580.5,-174 574.5,-180 568.5,-180"/>
<text text-anchor="middle" x="551" y="-158.3" font-family="Times,serif" font-size="14.00">path (2)</text>
</g>
<!-- v9 -->
<g id="node10" class="node"><title>v9</title>
<ellipse fill="none" stroke="black" cx="1133" cy="-522" rx="27" ry="18"/>
<text text-anchor="middle" x="1133" y="-518.3" font-family="Times,serif" font-size="14.00">9</text>
</g>
<!-- v9&#45;&gt;v2 -->
<g id="edge44" class="edge"><title>v9&#45;&gt;v2</title>
<path fill="none" stroke="black" d="M1107.11,-516.781C1064.17,-509.392 975.83,-492.529 904,-468 901.742,-467.229 899.437,-466.366 897.135,-465.448"/>
<polygon fill="black" stroke="black" points="898.4,-462.183 887.83,-461.466 895.646,-468.618 898.4,-462.183"/>
</g>
<!-- v9&#45;&gt;p1 -->
<g id="edge58" class="edge"><title>v9&#45;&gt;p1</title>
<path fill="none" stroke="black" d="M1154.78,-510.971C1178.53,-500.034 1217.01,-482.31 1246,-468.961"/>
<polygon fill="black" stroke="black" points="1247.81,-471.98 1255.43,-464.617 1244.88,-465.621 1247.81,-471.98"/>
</g>
<!-- v14 -->
<g id="node15" class="node"><title>v14</title>
<ellipse fill="none" stroke="black" cx="1360" cy="-450" rx="27" ry="18"/>
<text text-anchor="middle" x="1360" y="-446.3" font-family="Times,serif" font-size="14.00">14</text>
</g>
<!-- v9&#45;&gt;v14 -->
<g id="edge12" class="edge"><title>v9&#45;&gt;v14</title>
<path fill="none" stroke="black" d="M1158.46,-515.397C1195.49,-506.921 1266.1,-489.525 1324,-468 1325.85,-467.314 1327.73,-466.569 1329.61,-465.789"/>
<polygon fill="black" stroke="black" points="1331.2,-468.915 1338.94,-461.68 1328.38,-462.51 1331.2,-468.915"/>
</g>
<!-- p14 -->
<g id="node23" class="node"><title>p14</title>
<path fill="none" stroke="black" d="M1524.5,-468C1524.5,-468 1489.5,-468 1489.5,-468 1483.5,-468 1477.5,-462 1477.5,-456 1477.5,-456 1477.5,-444 1477.5,-444 1477.5,-438 1483.5,-432 1489.5,-432 1489.5,-432 1524.5,-432 1524.5,-432 1530.5,-432 1536.5,-438 1536.5,-444 1536.5,-444 1536.5,-456 1536.5,-456 1536.5,-462 1530.5,-468 1524.5,-468"/>
<text text-anchor="middle" x="1507" y="-446.3" font-family="Times,serif" font-size="14.00">path (3)</text>
</g>
<!-- v9&#45;&gt;p14 -->
<g id="edge69" class="edge"><title>v9&#45;&gt;p14</title>
<path fill="none" stroke="black" d="M1160,-519.067C1217.59,-514.437 1356.36,-500.584 1468,-468 1468.1,-467.972 1468.2,-467.943 1468.29,-467.914"/>
<polygon fill="black" stroke="black" points="1469.14,-471.324 1477.48,-464.793 1466.88,-464.696 1469.14,-471.324"/>
</g>
<!-- v38 -->
<g id="node36" class="node"><title>v38</title>
<ellipse fill="none" stroke="black" cx="285" cy="-450" rx="27" ry="18"/>
<text text-anchor="middle" x="285" y="-446.3" font-family="Times,serif" font-size="14.00">38</text>
</g>
<!-- v9&#45;&gt;v38 -->
<g id="edge48" class="edge"><title>v9&#45;&gt;v38</title>
<path fill="none" stroke="black" d="M1106.22,-518.789C982.35,-508.564 464.914,-465.851 321.814,-454.039"/>
<polygon fill="black" stroke="black" points="322.04,-450.546 311.786,-453.211 321.464,-457.522 322.04,-450.546"/>
</g>
<!-- v39 -->
<g id="node37" class="node"><title>v39</title>
<ellipse fill="none" stroke="black" cx="703" cy="-450" rx="27" ry="18"/>
<text text-anchor="middle" x="703" y="-446.3" font-family="Times,serif" font-size="14.00">39</text>
</g>
<!-- v9&#45;&gt;v39 -->
<g id="edge15" class="edge"><title>v9&#45;&gt;v39</title>
<path fill="none" stroke="black" d="M1106.13,-520.215C1041.55,-517.724 873.029,-507.624 739,-468 737.061,-467.427 735.096,-466.763 733.134,-466.036"/>
<polygon fill="black" stroke="black" points="734.088,-462.641 723.512,-462.01 731.386,-469.099 734.088,-462.641"/>
</g>
<!-- v42 -->
<g id="node40" class="node"><title>v42</title>
<ellipse fill="none" stroke="black" cx="775" cy="-450" rx="27" ry="18"/>
<text text-anchor="middle" x="775" y="-446.3" font-family="Times,serif" font-size="14.00">42</text>
</g>
<!-- v9&#45;&gt;v42 -->
<g id="edge62" class="edge"><title>v9&#45;&gt;v42</title>
<path fill="none" stroke="black" d="M1106.52,-517.454C1053.72,-510.14 931.709,-492.03 831,-468 823.594,-466.233 815.725,-464.044 808.299,-461.831"/>
<polygon fill="black" stroke="black" points="809.119,-458.421 798.533,-458.836 807.067,-465.114 809.119,-458.421"/>
</g>
<!-- p21 -->
<g id="node44" class="node"><title>p21</title>
<path fill="none" stroke="black" d="M959.5,-468C959.5,-468 924.5,-468 924.5,-468 918.5,-468 912.5,-462 912.5,-456 912.5,-456 912.5,-444 912.5,-444 912.5,-438 918.5,-432 924.5,-432 924.5,-432 959.5,-432 959.5,-432 965.5,-432 971.5,-438 971.5,-444 971.5,-444 971.5,-456 971.5,-456 971.5,-462 965.5,-468 959.5,-468"/>
<text text-anchor="middle" x="942" y="-446.3" font-family="Times,serif" font-size="14.00">path (2)</text>
</g>
<!-- v9&#45;&gt;p21 -->
<g id="edge81" class="edge"><title>v9&#45;&gt;p21</title>
<path fill="none" stroke="black" d="M1109.77,-512.808C1080.75,-502.53 1029.59,-484.275 986,-468 984.418,-467.409 982.805,-466.803 981.176,-466.188"/>
<polygon fill="black" stroke="black" points="982.378,-462.901 971.787,-462.614 979.887,-469.443 982.378,-462.901"/>
</g>
<!-- p25 -->
<g id="node48" class="node"><title>p25</title>
<path fill="none" stroke="black" d="M1075.5,-468C1075.5,-468 1040.5,-468 1040.5,-468 1034.5,-468 1028.5,-462 1028.5,-456 1028.5,-456 1028.5,-444 1028.5,-444 1028.5,-438 1034.5,-432 1040.5,-432 1040.5,-432 1075.5,-432 1075.5,-432 1081.5,-432 1087.5,-438 1087.5,-444 1087.5,-444 1087.5,-456 1087.5,-456 1087.5,-462 1081.5,-468 1075.5,-468"/>
<text text-anchor="middle" x="1058" y="-446.3" font-family="Times,serif" font-size="14.00">path (2)</text>
</g>
<!-- v9&#45;&gt;p25 -->
<g id="edge63" class="edge"><title>v9&#45;&gt;p25</title>
<path fill="none" stroke="black" d="M1117.82,-506.834C1108.08,-497.746 1095.19,-485.71 1083.87,-475.141"/>
<polygon fill="black" stroke="black" points="1086.03,-472.377 1076.34,-468.113 1081.26,-477.495 1086.03,-472.377"/>
</g>
<!-- v75 -->
<g id="node65" class="node"><title>v75</title>
<ellipse fill="none" stroke="black" cx="1133" cy="-450" rx="27" ry="18"/>
<text text-anchor="middle" x="1133" y="-446.3" font-family="Times,serif" font-size="14.00">75</text>
</g>
<!-- v9&#45;&gt;v75 -->
<g id="edge21" class="edge"><title>v9&#45;&gt;v75</title>
<path fill="none" stroke="black" d="M1133,-503.697C1133,-495.983 1133,-486.712 1133,-478.112"/>
<polygon fill="black" stroke="black" points="1136.5,-478.104 1133,-468.104 1129.5,-478.104 1136.5,-478.104"/>
</g>
<!-- v86 -->
<g id="node71" class="node"><title>v86</title>
<ellipse fill="none" stroke="black" cx="1693" cy="-450" rx="27" ry="18"/>
<text text-anchor="middle" x="1693" y="-446.3" font-family="Times,serif" font-size="14.00">86</text>
</g>
<!-- v9&#45;&gt;v86 -->
<g id="edge36" class="edge"><title>v9&#45;&gt;v86</title>
<path fill="none" stroke="black" d="M1159.26,-517.718C1250.09,-506.363 1551.16,-468.73 1656.35,-455.582"/>
<polygon fill="black" stroke="black" points="1656.98,-459.029 1666.47,-454.316 1656.12,-452.083 1656.98,-459.029"/>
</g>
<!-- p37 -->
<g id="node76" class="node"><title>p37</title>
<path fill="none" stroke="black" d="M1225.5,-468C1225.5,-468 1190.5,-468 1190.5,-468 1184.5,-468 1178.5,-462 1178.5,-456 1178.5,-456 1178.5,-444 1178.5,-444 1178.5,-438 1184.5,-432 1190.5,-432 1190.5,-432 1225.5,-432 1225.5,-432 1231.5,-432 1237.5,-438 1237.5,-444 1237.5,-444 1237.5,-456 1237.5,-456 1237.5,-462 1231.5,-468 1225.5,-468"/>
<text text-anchor="middle" x="1208" y="-446.3" font-family="Times,serif" font-size="14.00">path (2)</text>
</g>
<!-- v9&#45;&gt;p37 -->
<g id="edge59" class="edge"><title>v9&#45;&gt;p37</title>
<path fill="none" stroke="black" d="M1148.18,-506.834C1157.92,-497.746 1170.81,-485.71 1182.13,-475.141"/>
<polygon fill="black" stroke="black" points="1184.74,-477.495 1189.66,-468.113 1179.97,-472.377 1184.74,-477.495"/>
</g>
<!-- v102 -->
<g id="node77" class="node"><title>v102</title>
<ellipse fill="none" stroke="black" cx="1920" cy="-450" rx="27" ry="18"/>
<text text-anchor="middle" x="1920" y="-446.3" font-family="Times,serif" font-size="14.00">102</text>
</g>
<!-- v9&#45;&gt;v102 -->
<g id="edge10" class="edge"><title>v9&#45;&gt;v102</title>
<path fill="none" stroke="black" d="M1159.73,-518.624C1243.61,-511.166 1509.12,-487.562 1729,-468 1782.65,-463.227 1844.77,-457.697 1883.23,-454.273"/>
<polygon fill="black" stroke="black" points="1883.78,-457.739 1893.43,-453.366 1883.16,-450.766 1883.78,-457.739"/>
</g>
<!-- p6 -->
<g id="node11" class="node"><title>p6</title>
<path fill="none" stroke="black" d="M975.5,-324C975.5,-324 940.5,-324 940.5,-324 934.5,-324 928.5,-318 928.5,-312 928.5,-312 928.5,-300 928.5,-300 928.5,-294 934.5,-288 940.5,-288 940.5,-288 975.5,-288 975.5,-288 981.5,-288 987.5,-294 987.5,-300 987.5,-300 987.5,-312 987.5,-312 987.5,-318 981.5,-324 975.5,-324"/>
<text text-anchor="middle" x="958" y="-302.3" font-family="Times,serif" font-size="14.00">path (2)</text>
</g>
<!-- v11 -->
<g id="node12" class="node"><title>v11</title>
<ellipse fill="none" stroke="black" cx="507" cy="-234" rx="27" ry="18"/>
<text text-anchor="middle" x="507" y="-230.3" font-family="Times,serif" font-size="14.00">11</text>
</g>
<!-- v11&#45;&gt;p5 -->
<g id="edge43" class="edge"><title>v11&#45;&gt;p5</title>
<path fill="none" stroke="black" d="M516.984,-217.116C522.211,-208.801 528.742,-198.41 534.681,-188.963"/>
<polygon fill="black" stroke="black" points="537.772,-190.621 540.131,-180.292 531.846,-186.896 537.772,-190.621"/>
</g>
<!-- p15 -->
<g id="node25" class="node"><title>p15</title>
<path fill="none" stroke="black" d="M414.5,-180C414.5,-180 379.5,-180 379.5,-180 373.5,-180 367.5,-174 367.5,-168 367.5,-168 367.5,-156 367.5,-156 367.5,-150 373.5,-144 379.5,-144 379.5,-144 414.5,-144 414.5,-144 420.5,-144 426.5,-150 426.5,-156 426.5,-156 426.5,-168 426.5,-168 426.5,-174 420.5,-180 414.5,-180"/>
<text text-anchor="middle" x="397" y="-158.3" font-family="Times,serif" font-size="14.00">path (4)</text>
</g>
<!-- v11&#45;&gt;p15 -->
<g id="edge57" class="edge"><title>v11&#45;&gt;p15</title>
<path fill="none" stroke="black" d="M487.839,-220.807C472.536,-211.068 450.674,-197.156 432.233,-185.421"/>
<polygon fill="black" stroke="black" points="434.084,-182.45 423.768,-180.034 430.326,-188.356 434.084,-182.45"/>
</g>
<!-- p33 -->
<g id="node62" class="node"><title>p33</title>
<path fill="none" stroke="black" d="M491.5,-180C491.5,-180 456.5,-180 456.5,-180 450.5,-180 444.5,-174 444.5,-168 444.5,-168 444.5,-156 444.5,-156 444.5,-150 450.5,-144 456.5,-144 456.5,-144 491.5,-144 491.5,-144 497.5,-144 503.5,-150 503.5,-156 503.5,-156 503.5,-168 503.5,-168 503.5,-174 497.5,-180 491.5,-180"/>
<text text-anchor="middle" x="474" y="-158.3" font-family="Times,serif" font-size="14.00">path (2)</text>
</g>
<!-- v11&#45;&gt;p33 -->
<g id="edge74" class="edge"><title>v11&#45;&gt;p33</title>
<path fill="none" stroke="black" d="M499.179,-216.411C495.428,-208.454 490.84,-198.722 486.613,-189.756"/>
<polygon fill="black" stroke="black" points="489.655,-188 482.225,-180.447 483.323,-190.985 489.655,-188"/>
</g>
<!-- v12 -->
<g id="node13" class="node"><title>v12</title>
<ellipse fill="none" stroke="black" cx="249" cy="-378" rx="27" ry="18"/>
<text text-anchor="middle" x="249" y="-374.3" font-family="Times,serif" font-size="14.00">12</text>
</g>
<!-- p7 -->
<g id="node14" class="node"><title>p7</title>
<path fill="none" stroke="black" d="M718.5,-180C718.5,-180 683.5,-180 683.5,-180 677.5,-180 671.5,-174 671.5,-168 671.5,-168 671.5,-156 671.5,-156 671.5,-150 677.5,-144 683.5,-144 683.5,-144 718.5,-144 718.5,-144 724.5,-144 730.5,-150 730.5,-156 730.5,-156 730.5,-168 730.5,-168 730.5,-174 724.5,-180 718.5,-180"/>
<text text-anchor="middle" x="701" y="-158.3" font-family="Times,serif" font-size="14.00">path (3)</text>
</g>
<!-- p8 -->
<g id="node16" class="node"><title>p8</title>
<path fill="none" stroke="black" d="M1525.5,-324C1525.5,-324 1490.5,-324 1490.5,-324 1484.5,-324 1478.5,-318 1478.5,-312 1478.5,-312 1478.5,-300 1478.5,-300 1478.5,-294 1484.5,-288 1490.5,-288 1490.5,-288 1525.5,-288 1525.5,-288 1531.5,-288 1537.5,-294 1537.5,-300 1537.5,-300 1537.5,-312 1537.5,-312 1537.5,-318 1531.5,-324 1525.5,-324"/>
<text text-anchor="middle" x="1508" y="-302.3" font-family="Times,serif" font-size="14.00">path (3)</text>
</g>
<!-- p9 -->
<g id="node17" class="node"><title>p9</title>
<path fill="none" stroke="black" d="M1824.5,-324C1824.5,-324 1789.5,-324 1789.5,-324 1783.5,-324 1777.5,-318 1777.5,-312 1777.5,-312 1777.5,-300 1777.5,-300 1777.5,-294 1783.5,-288 1789.5,-288 1789.5,-288 1824.5,-288 1824.5,-288 1830.5,-288 1836.5,-294 1836.5,-300 1836.5,-300 1836.5,-312 1836.5,-312 1836.5,-318 1830.5,-324 1824.5,-324"/>
<text text-anchor="middle" x="1807" y="-302.3" font-family="Times,serif" font-size="14.00">path (2)</text>
</g>
<!-- p10 -->
<g id="node18" class="node"><title>p10</title>
<path fill="none" stroke="black" d="M560.5,-324C560.5,-324 525.5,-324 525.5,-324 519.5,-324 513.5,-318 513.5,-312 513.5,-312 513.5,-300 513.5,-300 513.5,-294 519.5,-288 525.5,-288 525.5,-288 560.5,-288 560.5,-288 566.5,-288 572.5,-294 572.5,-300 572.5,-300 572.5,-312 572.5,-312 572.5,-318 566.5,-324 560.5,-324"/>
<text text-anchor="middle" x="543" y="-302.3" font-family="Times,serif" font-size="14.00">path (2)</text>
</g>
<!-- p10&#45;&gt;v11 -->
<g id="edge65" class="edge"><title>p10&#45;&gt;v11</title>
<path fill="none" stroke="black" d="M534.101,-287.697C529.836,-279.403 524.646,-269.311 519.953,-260.187"/>
<polygon fill="black" stroke="black" points="522.989,-258.437 515.303,-251.145 516.764,-261.638 522.989,-258.437"/>
</g>
<!-- p11 -->
<g id="node19" class="node"><title>p11</title>
<path fill="none" stroke="black" d="M1937.5,-396C1937.5,-396 1902.5,-396 1902.5,-396 1896.5,-396 1890.5,-390 1890.5,-384 1890.5,-384 1890.5,-372 1890.5,-372 1890.5,-366 1896.5,-360 1902.5,-360 1902.5,-360 1937.5,-360 1937.5,-360 1943.5,-360 1949.5,-366 1949.5,-372 1949.5,-372 1949.5,-384 1949.5,-384 1949.5,-390 1943.5,-396 1937.5,-396"/>
<text text-anchor="middle" x="1920" y="-374.3" font-family="Times,serif" font-size="14.00">path (2)</text>
</g>
<!-- v19 -->
<g id="node20" class="node"><title>v19</title>
<ellipse fill="none" stroke="black" cx="1235" cy="-306" rx="27" ry="18"/>
<text text-anchor="middle" x="1235" y="-302.3" font-family="Times,serif" font-size="14.00">19</text>
</g>
<!-- v19&#45;&gt;v0 -->
<g id="edge70" class="edge"><title>v19&#45;&gt;v0</title>
<path fill="none" stroke="black" d="M1260.13,-313.247C1327.98,-330.677 1512.11,-381.858 1546,-432 1623.71,-546.981 1372.25,-629.595 1277.57,-655.992"/>
<polygon fill="black" stroke="black" points="1276.58,-652.632 1267.86,-658.652 1278.43,-659.383 1276.58,-652.632"/>
</g>
<!-- v31 -->
<g id="node29" class="node"><title>v31</title>
<ellipse fill="none" stroke="black" cx="1379" cy="-234" rx="27" ry="18"/>
<text text-anchor="middle" x="1379" y="-230.3" font-family="Times,serif" font-size="14.00">31</text>
</g>
<!-- v19&#45;&gt;v31 -->
<g id="edge60" class="edge"><title>v19&#45;&gt;v31</title>
<path fill="none" stroke="black" d="M1256.25,-294.671C1280.6,-282.832 1320.72,-263.331 1348.43,-249.862"/>
<polygon fill="black" stroke="black" points="1350.2,-252.891 1357.67,-245.371 1347.14,-246.595 1350.2,-252.891"/>
</g>
<!-- p20 -->
<g id="node39" class="node"><title>p20</title>
<path fill="none" stroke="black" d="M1471.5,-252C1471.5,-252 1436.5,-252 1436.5,-252 1430.5,-252 1424.5,-246 1424.5,-240 1424.5,-240 1424.5,-228 1424.5,-228 1424.5,-222 1430.5,-216 1436.5,-216 1436.5,-216 1471.5,-216 1471.5,-216 1477.5,-216 1483.5,-222 1483.5,-228 1483.5,-228 1483.5,-240 1483.5,-240 1483.5,-246 1477.5,-252 1471.5,-252"/>
<text text-anchor="middle" x="1454" y="-230.3" font-family="Times,serif" font-size="14.00">path (3)</text>
</g>
<!-- v19&#45;&gt;p20 -->
<g id="edge39" class="edge"><title>v19&#45;&gt;p20</title>
<path fill="none" stroke="black" d="M1259.77,-298.756C1294.77,-289.697 1360.5,-271.813 1415,-252 1415.1,-251.965 1415.19,-251.93 1415.29,-251.896"/>
<polygon fill="black" stroke="black" points="1416.29,-255.262 1424.34,-248.381 1413.76,-248.736 1416.29,-255.262"/>
</g>
<!-- v43 -->
<g id="node41" class="node"><title>v43</title>
<ellipse fill="none" stroke="black" cx="1163" cy="-234" rx="27" ry="18"/>
<text text-anchor="middle" x="1163" y="-230.3" font-family="Times,serif" font-size="14.00">43</text>
</g>
<!-- v19&#45;&gt;v43 -->
<g id="edge32" class="edge"><title>v19&#45;&gt;v43</title>
<path fill="none" stroke="black" d="M1220.43,-290.834C1210.25,-280.938 1196.48,-267.546 1184.97,-256.359"/>
<polygon fill="black" stroke="black" points="1187.41,-253.846 1177.8,-249.385 1182.53,-258.865 1187.41,-253.846"/>
</g>
<!-- v66 -->
<g id="node59" class="node"><title>v66</title>
<ellipse fill="none" stroke="black" cx="1088" cy="-234" rx="27" ry="18"/>
<text text-anchor="middle" x="1088" y="-230.3" font-family="Times,serif" font-size="14.00">66</text>
</g>
<!-- v19&#45;&gt;v66 -->
<g id="edge3" class="edge"><title>v19&#45;&gt;v66</title>
<path fill="none" stroke="black" d="M1213.62,-294.821C1188.59,-282.898 1146.92,-263.056 1118.49,-249.519"/>
<polygon fill="black" stroke="black" points="1119.93,-246.33 1109.4,-245.191 1116.92,-252.65 1119.93,-246.33"/>
</g>
<!-- v78 -->
<g id="node68" class="node"><title>v78</title>
<ellipse fill="none" stroke="black" cx="917" cy="-234" rx="27" ry="18"/>
<text text-anchor="middle" x="917" y="-230.3" font-family="Times,serif" font-size="14.00">78</text>
</g>
<!-- v19&#45;&gt;v78 -->
<g id="edge61" class="edge"><title>v19&#45;&gt;v78</title>
<path fill="none" stroke="black" d="M1209.78,-299.449C1153.42,-287.043 1017.14,-257.044 952.351,-242.782"/>
<polygon fill="black" stroke="black" points="952.74,-239.284 942.221,-240.552 951.235,-246.12 952.74,-239.284"/>
</g>
<!-- v92 -->
<g id="node74" class="node"><title>v92</title>
<ellipse fill="none" stroke="black" cx="770" cy="-378" rx="27" ry="18"/>
<text text-anchor="middle" x="770" y="-374.3" font-family="Times,serif" font-size="14.00">92</text>
</g>
<!-- v19&#45;&gt;v92 -->
<g id="edge2" class="edge"><title>v19&#45;&gt;v92</title>
<path fill="none" stroke="black" d="M1209.2,-311.411C1130.93,-323.838 896.909,-359.075 806.28,-372.09"/>
<polygon fill="black" stroke="black" points="805.612,-368.65 796.208,-373.529 806.602,-375.579 805.612,-368.65"/>
</g>
<!-- v96 -->
<g id="node75" class="node"><title>v96</title>
<ellipse fill="none" stroke="black" cx="1235" cy="-234" rx="27" ry="18"/>
<text text-anchor="middle" x="1235" y="-230.3" font-family="Times,serif" font-size="14.00">96</text>
</g>
<!-- v19&#45;&gt;v96 -->
<g id="edge22" class="edge"><title>v19&#45;&gt;v96</title>
<path fill="none" stroke="black" d="M1235,-287.697C1235,-279.983 1235,-270.712 1235,-262.112"/>
<polygon fill="black" stroke="black" points="1238.5,-262.104 1235,-252.104 1231.5,-262.104 1238.5,-262.104"/>
</g>
<!-- v118 -->
<g id="node81" class="node"><title>v118</title>
<ellipse fill="none" stroke="black" cx="1307" cy="-234" rx="27" ry="18"/>
<text text-anchor="middle" x="1307" y="-230.3" font-family="Times,serif" font-size="14.00">118</text>
</g>
<!-- v19&#45;&gt;v118 -->
<g id="edge76" class="edge"><title>v19&#45;&gt;v118</title>
<path fill="none" stroke="black" d="M1249.57,-290.834C1259.75,-280.938 1273.52,-267.546 1285.03,-256.359"/>
<polygon fill="black" stroke="black" points="1287.47,-258.865 1292.2,-249.385 1282.59,-253.846 1287.47,-258.865"/>
</g>
<!-- p12 -->
<g id="node21" class="node"><title>p12</title>
<path fill="none" stroke="black" d="M1602.5,-324C1602.5,-324 1567.5,-324 1567.5,-324 1561.5,-324 1555.5,-318 1555.5,-312 1555.5,-312 1555.5,-300 1555.5,-300 1555.5,-294 1561.5,-288 1567.5,-288 1567.5,-288 1602.5,-288 1602.5,-288 1608.5,-288 1614.5,-294 1614.5,-300 1614.5,-300 1614.5,-312 1614.5,-312 1614.5,-318 1608.5,-324 1602.5,-324"/>
<text text-anchor="middle" x="1585" y="-302.3" font-family="Times,serif" font-size="14.00">path (2)</text>
</g>
<!-- p13 -->
<g id="node22" class="node"><title>p13</title>
<path fill="none" stroke="black" d="M710.5,-324C710.5,-324 675.5,-324 675.5,-324 669.5,-324 663.5,-318 663.5,-312 663.5,-312 663.5,-300 663.5,-300 663.5,-294 669.5,-288 675.5,-288 675.5,-288 710.5,-288 710.5,-288 716.5,-288 722.5,-294 722.5,-300 722.5,-300 722.5,-312 722.5,-312 722.5,-318 716.5,-324 710.5,-324"/>
<text text-anchor="middle" x="693" y="-302.3" font-family="Times,serif" font-size="14.00">path (3)</text>
</g>
<!-- v25 -->
<g id="node24" class="node"><title>v25</title>
<ellipse fill="none" stroke="black" cx="1845" cy="-378" rx="27" ry="18"/>
<text text-anchor="middle" x="1845" y="-374.3" font-family="Times,serif" font-size="14.00">25</text>
</g>
<!-- v25&#45;&gt;p9 -->
<g id="edge23" class="edge"><title>v25&#45;&gt;p9</title>
<path fill="none" stroke="black" d="M1836.19,-360.765C1831.71,-352.525 1826.17,-342.317 1821.12,-333.016"/>
<polygon fill="black" stroke="black" points="1824.14,-331.243 1816.3,-324.124 1817.99,-334.582 1824.14,-331.243"/>
</g>
<!-- v45 -->
<g id="node43" class="node"><title>v45</title>
<ellipse fill="none" stroke="black" cx="1882" cy="-306" rx="27" ry="18"/>
<text text-anchor="middle" x="1882" y="-302.3" font-family="Times,serif" font-size="14.00">45</text>
</g>
<!-- v25&#45;&gt;v45 -->
<g id="edge78" class="edge"><title>v25&#45;&gt;v45</title>
<path fill="none" stroke="black" d="M1853.58,-360.765C1858.06,-352.283 1863.65,-341.714 1868.68,-332.197"/>
<polygon fill="black" stroke="black" points="1871.89,-333.624 1873.46,-323.147 1865.7,-330.353 1871.89,-333.624"/>
</g>
<!-- v27 -->
<g id="node26" class="node"><title>v27</title>
<ellipse fill="none" stroke="black" cx="321" cy="-378" rx="27" ry="18"/>
<text text-anchor="middle" x="321" y="-374.3" font-family="Times,serif" font-size="14.00">27</text>
</g>
<!-- p27 -->
<g id="node50" class="node"><title>p27</title>
<path fill="none" stroke="black" d="M261.5,-324C261.5,-324 226.5,-324 226.5,-324 220.5,-324 214.5,-318 214.5,-312 214.5,-312 214.5,-300 214.5,-300 214.5,-294 220.5,-288 226.5,-288 226.5,-288 261.5,-288 261.5,-288 267.5,-288 273.5,-294 273.5,-300 273.5,-300 273.5,-312 273.5,-312 273.5,-318 267.5,-324 261.5,-324"/>
<text text-anchor="middle" x="244" y="-302.3" font-family="Times,serif" font-size="14.00">path (3)</text>
</g>
<!-- v27&#45;&gt;p27 -->
<g id="edge33" class="edge"><title>v27&#45;&gt;p27</title>
<path fill="none" stroke="black" d="M305.418,-362.834C295.421,-353.746 282.182,-341.71 270.555,-331.141"/>
<polygon fill="black" stroke="black" points="272.578,-328.25 262.824,-324.113 267.869,-333.429 272.578,-328.25"/>
</g>
<!-- p34 -->
<g id="node67" class="node"><title>p34</title>
<path fill="none" stroke="black" d="M338.5,-324C338.5,-324 303.5,-324 303.5,-324 297.5,-324 291.5,-318 291.5,-312 291.5,-312 291.5,-300 291.5,-300 291.5,-294 297.5,-288 303.5,-288 303.5,-288 338.5,-288 338.5,-288 344.5,-288 350.5,-294 350.5,-300 350.5,-300 350.5,-312 350.5,-312 350.5,-318 344.5,-324 338.5,-324"/>
<text text-anchor="middle" x="321" y="-302.3" font-family="Times,serif" font-size="14.00">path (2)</text>
</g>
<!-- v27&#45;&gt;p34 -->
<g id="edge20" class="edge"><title>v27&#45;&gt;p34</title>
<path fill="none" stroke="black" d="M321,-359.697C321,-351.983 321,-342.712 321,-334.112"/>
<polygon fill="black" stroke="black" points="324.5,-334.104 321,-324.104 317.5,-334.104 324.5,-334.104"/>
</g>
<!-- p16 -->
<g id="node27" class="node"><title>p16</title>
<path fill="none" stroke="black" d="M787.5,-252C787.5,-252 752.5,-252 752.5,-252 746.5,-252 740.5,-246 740.5,-240 740.5,-240 740.5,-228 740.5,-228 740.5,-222 746.5,-216 752.5,-216 752.5,-216 787.5,-216 787.5,-216 793.5,-216 799.5,-222 799.5,-228 799.5,-228 799.5,-240 799.5,-240 799.5,-246 793.5,-252 787.5,-252"/>
<text text-anchor="middle" x="770" y="-230.3" font-family="Times,serif" font-size="14.00">path (2)</text>
</g>
<!-- v32 -->
<g id="node30" class="node"><title>v32</title>
<ellipse fill="none" stroke="black" cx="952" cy="-378" rx="27" ry="18"/>
<text text-anchor="middle" x="952" y="-374.3" font-family="Times,serif" font-size="14.00">32</text>
</g>
<!-- v32&#45;&gt;p6 -->
<g id="edge54" class="edge"><title>v32&#45;&gt;p6</title>
<path fill="none" stroke="black" d="M953.483,-359.697C954.144,-351.983 954.939,-342.712 955.676,-334.112"/>
<polygon fill="black" stroke="black" points="959.167,-334.367 956.534,-324.104 952.193,-333.769 959.167,-334.367"/>
</g>
<!-- v33 -->
<g id="node31" class="node"><title>v33</title>
<ellipse fill="none" stroke="black" cx="845" cy="-306" rx="27" ry="18"/>
<text text-anchor="middle" x="845" y="-302.3" font-family="Times,serif" font-size="14.00">33</text>
</g>
<!-- v32&#45;&gt;v33 -->
<g id="edge52" class="edge"><title>v32&#45;&gt;v33</title>
<path fill="none" stroke="black" d="M933.362,-364.807C916.511,-353.783 891.488,-337.413 872.368,-324.904"/>
<polygon fill="black" stroke="black" points="874.068,-321.834 863.783,-319.288 870.236,-327.692 874.068,-321.834"/>
</g>
<!-- v36 -->
<g id="node34" class="node"><title>v36</title>
<ellipse fill="none" stroke="black" cx="1033" cy="-306" rx="27" ry="18"/>
<text text-anchor="middle" x="1033" y="-302.3" font-family="Times,serif" font-size="14.00">36</text>
</g>
<!-- v32&#45;&gt;v36 -->
<g id="edge46" class="edge"><title>v32&#45;&gt;v36</title>
<path fill="none" stroke="black" d="M968.003,-363.17C979.763,-353.008 995.936,-339.03 1009.21,-327.561"/>
<polygon fill="black" stroke="black" points="1011.75,-329.988 1017.03,-320.801 1007.18,-324.692 1011.75,-329.988"/>
</g>
<!-- v33&#45;&gt;p16 -->
<g id="edge79" class="edge"><title>v33&#45;&gt;p16</title>
<path fill="none" stroke="black" d="M829.823,-290.834C820.085,-281.746 807.19,-269.71 795.866,-259.141"/>
<polygon fill="black" stroke="black" points="798.034,-256.377 788.335,-252.113 793.258,-261.495 798.034,-256.377"/>
</g>
<!-- v61 -->
<g id="node56" class="node"><title>v61</title>
<ellipse fill="none" stroke="black" cx="845" cy="-234" rx="27" ry="18"/>
<text text-anchor="middle" x="845" y="-230.3" font-family="Times,serif" font-size="14.00">61</text>
</g>
<!-- v33&#45;&gt;v61 -->
<g id="edge14" class="edge"><title>v33&#45;&gt;v61</title>
<path fill="none" stroke="black" d="M845,-287.697C845,-279.983 845,-270.712 845,-262.112"/>
<polygon fill="black" stroke="black" points="848.5,-262.104 845,-252.104 841.5,-262.104 848.5,-262.104"/>
</g>
<!-- p18 -->
<g id="node32" class="node"><title>p18</title>
<path fill="none" stroke="black" d="M712.5,-396C712.5,-396 677.5,-396 677.5,-396 671.5,-396 665.5,-390 665.5,-384 665.5,-384 665.5,-372 665.5,-372 665.5,-366 671.5,-360 677.5,-360 677.5,-360 712.5,-360 712.5,-360 718.5,-360 724.5,-366 724.5,-372 724.5,-372 724.5,-384 724.5,-384 724.5,-390 718.5,-396 712.5,-396"/>
<text text-anchor="middle" x="695" y="-374.3" font-family="Times,serif" font-size="14.00">path (2)</text>
</g>
<!-- v35 -->
<g id="node33" class="node"><title>v35</title>
<ellipse fill="none" stroke="black" cx="1546" cy="-378" rx="27" ry="18"/>
<text text-anchor="middle" x="1546" y="-374.3" font-family="Times,serif" font-size="14.00">35</text>
</g>
<!-- v35&#45;&gt;p8 -->
<g id="edge50" class="edge"><title>v35&#45;&gt;p8</title>
<path fill="none" stroke="black" d="M1537.19,-360.765C1532.71,-352.525 1527.17,-342.317 1522.12,-333.016"/>
<polygon fill="black" stroke="black" points="1525.14,-331.243 1517.3,-324.124 1518.99,-334.582 1525.14,-331.243"/>
</g>
<!-- v35&#45;&gt;p12 -->
<g id="edge40" class="edge"><title>v35&#45;&gt;p12</title>
<path fill="none" stroke="black" d="M1555.05,-360.765C1559.64,-352.525 1565.32,-342.317 1570.51,-333.016"/>
<polygon fill="black" stroke="black" points="1573.65,-334.563 1575.46,-324.124 1567.53,-331.156 1573.65,-334.563"/>
</g>
<!-- v37 -->
<g id="node35" class="node"><title>v37</title>
<ellipse fill="none" stroke="black" cx="393" cy="-378" rx="27" ry="18"/>
<text text-anchor="middle" x="393" y="-374.3" font-family="Times,serif" font-size="14.00">37</text>
</g>
<!-- v38&#45;&gt;p4 -->
<g id="edge83" class="edge"><title>v38&#45;&gt;p4</title>
<path fill="none" stroke="black" d="M265.918,-436.967C250.507,-427.248 228.389,-413.299 209.711,-401.52"/>
<polygon fill="black" stroke="black" points="211.461,-398.486 201.136,-396.113 207.727,-404.407 211.461,-398.486"/>
</g>
<!-- v38&#45;&gt;v12 -->
<g id="edge47" class="edge"><title>v38&#45;&gt;v12</title>
<path fill="none" stroke="black" d="M276.65,-432.765C272.288,-424.283 266.853,-413.714 261.959,-404.197"/>
<polygon fill="black" stroke="black" points="264.99,-402.439 257.304,-395.147 258.765,-405.641 264.99,-402.439"/>
</g>
<!-- v38&#45;&gt;v27 -->
<g id="edge4" class="edge"><title>v38&#45;&gt;v27</title>
<path fill="none" stroke="black" d="M293.35,-432.765C297.712,-424.283 303.147,-413.714 308.041,-404.197"/>
<polygon fill="black" stroke="black" points="311.235,-405.641 312.696,-395.147 305.01,-402.439 311.235,-405.641"/>
</g>
<!-- v38&#45;&gt;v37 -->
<g id="edge5" class="edge"><title>v38&#45;&gt;v37</title>
<path fill="none" stroke="black" d="M303.812,-436.807C321.002,-425.665 346.618,-409.062 365.993,-396.504"/>
<polygon fill="black" stroke="black" points="367.916,-399.429 374.403,-391.053 364.108,-393.555 367.916,-399.429"/>
</g>
<!-- p31 -->
<g id="node55" class="node"><title>p31</title>
<path fill="none" stroke="black" d="M485.5,-396C485.5,-396 450.5,-396 450.5,-396 444.5,-396 438.5,-390 438.5,-384 438.5,-384 438.5,-372 438.5,-372 438.5,-366 444.5,-360 450.5,-360 450.5,-360 485.5,-360 485.5,-360 491.5,-360 497.5,-366 497.5,-372 497.5,-372 497.5,-384 497.5,-384 497.5,-390 491.5,-396 485.5,-396"/>
<text text-anchor="middle" x="468" y="-374.3" font-family="Times,serif" font-size="14.00">path (3)</text>
</g>
<!-- v38&#45;&gt;p31 -->
<g id="edge24" class="edge"><title>v38&#45;&gt;p31</title>
<path fill="none" stroke="black" d="M308.354,-440.877C336.971,-430.816 386.851,-412.926 429,-396 429.094,-395.962 429.189,-395.924 429.283,-395.886"/>
<polygon fill="black" stroke="black" points="430.36,-399.228 438.265,-392.174 427.686,-392.759 430.36,-399.228"/>
</g>
<!-- v65 -->
<g id="node58" class="node"><title>v65</title>
<ellipse fill="none" stroke="black" cx="27" cy="-378" rx="27" ry="18"/>
<text text-anchor="middle" x="27" y="-374.3" font-family="Times,serif" font-size="14.00">65</text>
</g>
<!-- v38&#45;&gt;v65 -->
<g id="edge56" class="edge"><title>v38&#45;&gt;v65</title>
<path fill="none" stroke="black" d="M259.204,-444.637C217.3,-437.153 132.164,-420.292 63,-396 61.0925,-395.33 59.151,-394.591 57.208,-393.808"/>
<polygon fill="black" stroke="black" points="58.1986,-390.422 47.6329,-389.636 55.4024,-396.839 58.1986,-390.422"/>
</g>
<!-- v73 -->
<g id="node64" class="node"><title>v73</title>
<ellipse fill="none" stroke="black" cx="99" cy="-378" rx="27" ry="18"/>
<text text-anchor="middle" x="99" y="-374.3" font-family="Times,serif" font-size="14.00">73</text>
</g>
<!-- v38&#45;&gt;v73 -->
<g id="edge17" class="edge"><title>v38&#45;&gt;v73</title>
<path fill="none" stroke="black" d="M261.078,-441.381C231.236,-431.686 178.803,-414.026 135,-396 133.178,-395.25 131.316,-394.457 129.445,-393.639"/>
<polygon fill="black" stroke="black" points="130.714,-390.371 120.161,-389.43 127.823,-396.746 130.714,-390.371"/>
</g>
<!-- v42&#45;&gt;p18 -->
<g id="edge77" class="edge"><title>v42&#45;&gt;p18</title>
<path fill="none" stroke="black" d="M759.195,-435.17C748.661,-425.953 734.541,-413.599 722.226,-402.823"/>
<polygon fill="black" stroke="black" points="724.281,-399.97 714.45,-396.019 719.671,-405.238 724.281,-399.97"/>
</g>
<!-- v42&#45;&gt;v92 -->
<g id="edge73" class="edge"><title>v42&#45;&gt;v92</title>
<path fill="none" stroke="black" d="M773.764,-431.697C773.213,-423.983 772.551,-414.712 771.937,-406.112"/>
<polygon fill="black" stroke="black" points="775.425,-405.83 771.222,-396.104 768.443,-406.328 775.425,-405.83"/>
</g>
<!-- v44 -->
<g id="node42" class="node"><title>v44</title>
<ellipse fill="none" stroke="black" cx="1013" cy="-162" rx="27" ry="18"/>
<text text-anchor="middle" x="1013" y="-158.3" font-family="Times,serif" font-size="14.00">44</text>
</g>
<!-- p21&#45;&gt;v32 -->
<g id="edge71" class="edge"><title>p21&#45;&gt;v32</title>
<path fill="none" stroke="black" d="M944.472,-431.697C945.574,-423.983 946.898,-414.712 948.127,-406.112"/>
<polygon fill="black" stroke="black" points="951.607,-406.499 949.557,-396.104 944.677,-405.509 951.607,-406.499"/>
</g>
<!-- p23 -->
<g id="node46" class="node"><title>p23</title>
<path fill="none" stroke="black" d="M1710.5,-396C1710.5,-396 1675.5,-396 1675.5,-396 1669.5,-396 1663.5,-390 1663.5,-384 1663.5,-384 1663.5,-372 1663.5,-372 1663.5,-366 1669.5,-360 1675.5,-360 1675.5,-360 1710.5,-360 1710.5,-360 1716.5,-360 1722.5,-366 1722.5,-372 1722.5,-372 1722.5,-384 1722.5,-384 1722.5,-390 1716.5,-396 1710.5,-396"/>
<text text-anchor="middle" x="1693" y="-374.3" font-family="Times,serif" font-size="14.00">path (3)</text>
</g>
<!-- p24 -->
<g id="node47" class="node"><title>p24</title>
<path fill="none" stroke="black" d="M1214.5,-108C1214.5,-108 1179.5,-108 1179.5,-108 1173.5,-108 1167.5,-102 1167.5,-96 1167.5,-96 1167.5,-84 1167.5,-84 1167.5,-78 1173.5,-72 1179.5,-72 1179.5,-72 1214.5,-72 1214.5,-72 1220.5,-72 1226.5,-78 1226.5,-84 1226.5,-84 1226.5,-96 1226.5,-96 1226.5,-102 1220.5,-108 1214.5,-108"/>
<text text-anchor="middle" x="1197" y="-86.3" font-family="Times,serif" font-size="14.00">path (2)</text>
</g>
<!-- p28 -->
<g id="node51" class="node"><title>p28</title>
<path fill="none" stroke="black" d="M787.5,-324C787.5,-324 752.5,-324 752.5,-324 746.5,-324 740.5,-318 740.5,-312 740.5,-312 740.5,-300 740.5,-300 740.5,-294 746.5,-288 752.5,-288 752.5,-288 787.5,-288 787.5,-288 793.5,-288 799.5,-294 799.5,-300 799.5,-300 799.5,-312 799.5,-312 799.5,-318 793.5,-324 787.5,-324"/>
<text text-anchor="middle" x="770" y="-302.3" font-family="Times,serif" font-size="14.00">path (3)</text>
</g>
<!-- p29 -->
<g id="node52" class="node"><title>p29</title>
<path fill="none" stroke="black" d="M955.5,-180C955.5,-180 920.5,-180 920.5,-180 914.5,-180 908.5,-174 908.5,-168 908.5,-168 908.5,-156 908.5,-156 908.5,-150 914.5,-144 920.5,-144 920.5,-144 955.5,-144 955.5,-144 961.5,-144 967.5,-150 967.5,-156 967.5,-156 967.5,-168 967.5,-168 967.5,-174 961.5,-180 955.5,-180"/>
<text text-anchor="middle" x="938" y="-158.3" font-family="Times,serif" font-size="14.00">path (2)</text>
</g>
<!-- p30 -->
<g id="node53" class="node"><title>p30</title>
<path fill="none" stroke="black" d="M805.5,-180C805.5,-180 770.5,-180 770.5,-180 764.5,-180 758.5,-174 758.5,-168 758.5,-168 758.5,-156 758.5,-156 758.5,-150 764.5,-144 770.5,-144 770.5,-144 805.5,-144 805.5,-144 811.5,-144 817.5,-150 817.5,-156 817.5,-156 817.5,-168 817.5,-168 817.5,-174 811.5,-180 805.5,-180"/>
<text text-anchor="middle" x="788" y="-158.3" font-family="Times,serif" font-size="14.00">path (2)</text>
</g>
<!-- v59 -->
<g id="node54" class="node"><title>v59</title>
<ellipse fill="none" stroke="black" cx="1235" cy="-162" rx="27" ry="18"/>
<text text-anchor="middle" x="1235" y="-158.3" font-family="Times,serif" font-size="14.00">59</text>
</g>
<!-- v59&#45;&gt;p24 -->
<g id="edge67" class="edge"><title>v59&#45;&gt;p24</title>
<path fill="none" stroke="black" d="M1226.19,-144.765C1221.71,-136.525 1216.17,-126.317 1211.12,-117.016"/>
<polygon fill="black" stroke="black" points="1214.14,-115.243 1206.3,-108.124 1207.99,-118.582 1214.14,-115.243"/>
</g>
<!-- v71 -->
<g id="node63" class="node"><title>v71</title>
<ellipse fill="none" stroke="black" cx="1272" cy="-90" rx="27" ry="18"/>
<text text-anchor="middle" x="1272" y="-86.3" font-family="Times,serif" font-size="14.00">71</text>
</g>
<!-- v59&#45;&gt;v71 -->
<g id="edge13" class="edge"><title>v59&#45;&gt;v71</title>
<path fill="none" stroke="black" d="M1243.58,-144.765C1248.06,-136.283 1253.65,-125.714 1258.68,-116.197"/>
<polygon fill="black" stroke="black" points="1261.89,-117.624 1263.46,-107.147 1255.7,-114.353 1261.89,-117.624"/>
</g>
<!-- p32 -->
<g id="node57" class="node"><title>p32</title>
<path fill="none" stroke="black" d="M1787.5,-396C1787.5,-396 1752.5,-396 1752.5,-396 1746.5,-396 1740.5,-390 1740.5,-384 1740.5,-384 1740.5,-372 1740.5,-372 1740.5,-366 1746.5,-360 1752.5,-360 1752.5,-360 1787.5,-360 1787.5,-360 1793.5,-360 1799.5,-366 1799.5,-372 1799.5,-372 1799.5,-384 1799.5,-384 1799.5,-390 1793.5,-396 1787.5,-396"/>
<text text-anchor="middle" x="1770" y="-374.3" font-family="Times,serif" font-size="14.00">path (3)</text>
</g>
<!-- v66&#45;&gt;p3 -->
<g id="edge35" class="edge"><title>v66&#45;&gt;p3</title>
<path fill="none" stroke="black" d="M1102.57,-218.834C1111.92,-209.746 1124.3,-197.71 1135.17,-187.141"/>
<polygon fill="black" stroke="black" points="1137.67,-189.593 1142.4,-180.113 1132.79,-184.574 1137.67,-189.593"/>
</g>
<!-- v66&#45;&gt;v9 -->
<g id="edge82" class="edge"><title>v66&#45;&gt;v9</title>
<path fill="none" stroke="black" d="M1085.49,-252.018C1082.56,-270.146 1077.06,-299.539 1069,-324 1055.99,-363.515 994.211,-427.42 1020,-468 1036.72,-494.316 1070.35,-507.794 1096.59,-514.551"/>
<polygon fill="black" stroke="black" points="1096.06,-518.021 1106.6,-516.901 1097.66,-511.206 1096.06,-518.021"/>
</g>
<!-- v66&#45;&gt;v44 -->
<g id="edge55" class="edge"><title>v66&#45;&gt;v44</title>
<path fill="none" stroke="black" d="M1072.82,-218.834C1062.15,-208.872 1047.68,-195.369 1035.65,-184.137"/>
<polygon fill="black" stroke="black" points="1037.85,-181.409 1028.15,-177.144 1033.08,-186.526 1037.85,-181.409"/>
</g>
<!-- v68 -->
<g id="node61" class="node"><title>v68</title>
<ellipse fill="none" stroke="black" cx="1085" cy="-162" rx="27" ry="18"/>
<text text-anchor="middle" x="1085" y="-158.3" font-family="Times,serif" font-size="14.00">68</text>
</g>
<!-- v66&#45;&gt;v68 -->
<g id="edge49" class="edge"><title>v66&#45;&gt;v68</title>
<path fill="none" stroke="black" d="M1087.26,-215.697C1086.93,-207.983 1086.53,-198.712 1086.16,-190.112"/>
<polygon fill="black" stroke="black" points="1089.66,-189.945 1085.73,-180.104 1082.66,-190.245 1089.66,-189.945"/>
</g>
<!-- v67 -->
<g id="node60" class="node"><title>v67</title>
<ellipse fill="none" stroke="black" cx="1385" cy="-162" rx="27" ry="18"/>
<text text-anchor="middle" x="1385" y="-158.3" font-family="Times,serif" font-size="14.00">67</text>
</g>
<!-- v76 -->
<g id="node66" class="node"><title>v76</title>
<ellipse fill="none" stroke="black" cx="1618" cy="-378" rx="27" ry="18"/>
<text text-anchor="middle" x="1618" y="-374.3" font-family="Times,serif" font-size="14.00">76</text>
</g>
<!-- v78&#45;&gt;p29 -->
<g id="edge37" class="edge"><title>v78&#45;&gt;p29</title>
<path fill="none" stroke="black" d="M922.084,-216.055C924.422,-208.261 927.253,-198.822 929.876,-190.079"/>
<polygon fill="black" stroke="black" points="933.296,-190.859 932.817,-180.275 926.591,-188.848 933.296,-190.859"/>
</g>
<!-- v78&#45;&gt;p30 -->
<g id="edge34" class="edge"><title>v78&#45;&gt;p30</title>
<path fill="none" stroke="black" d="M896.56,-221.908C877.869,-211.766 849.725,-196.494 826.776,-184.041"/>
<polygon fill="black" stroke="black" points="828.405,-180.943 817.946,-179.25 825.066,-187.096 828.405,-180.943"/>
</g>
<!-- v85 -->
<g id="node70" class="node"><title>v85</title>
<ellipse fill="none" stroke="black" cx="863" cy="-162" rx="27" ry="18"/>
<text text-anchor="middle" x="863" y="-158.3" font-family="Times,serif" font-size="14.00">85</text>
</g>
<!-- v78&#45;&gt;v85 -->
<g id="edge86" class="edge"><title>v78&#45;&gt;v85</title>
<path fill="none" stroke="black" d="M905.016,-217.465C898.024,-208.402 889.064,-196.786 881.215,-186.612"/>
<polygon fill="black" stroke="black" points="883.83,-184.272 874.951,-178.492 878.288,-188.548 883.83,-184.272"/>
</g>
<!-- p35 -->
<g id="node69" class="node"><title>p35</title>
<path fill="none" stroke="black" d="M2014.5,-396C2014.5,-396 1979.5,-396 1979.5,-396 1973.5,-396 1967.5,-390 1967.5,-384 1967.5,-384 1967.5,-372 1967.5,-372 1967.5,-366 1973.5,-360 1979.5,-360 1979.5,-360 2014.5,-360 2014.5,-360 2020.5,-360 2026.5,-366 2026.5,-372 2026.5,-372 2026.5,-384 2026.5,-384 2026.5,-390 2020.5,-396 2014.5,-396"/>
<text text-anchor="middle" x="1997" y="-374.3" font-family="Times,serif" font-size="14.00">path (3)</text>
</g>
<!-- v86&#45;&gt;v25 -->
<g id="edge27" class="edge"><title>v86&#45;&gt;v25</title>
<path fill="none" stroke="black" d="M1714.84,-439.118C1738.19,-428.534 1776.27,-411.205 1809,-396 1810.79,-395.17 1812.62,-394.314 1814.47,-393.449"/>
<polygon fill="black" stroke="black" points="1816.14,-396.533 1823.7,-389.112 1813.16,-390.197 1816.14,-396.533"/>
</g>
<!-- v86&#45;&gt;p23 -->
<g id="edge51" class="edge"><title>v86&#45;&gt;p23</title>
<path fill="none" stroke="black" d="M1693,-431.697C1693,-423.983 1693,-414.712 1693,-406.112"/>
<polygon fill="black" stroke="black" points="1696.5,-406.104 1693,-396.104 1689.5,-406.104 1696.5,-406.104"/>
</g>
<!-- v86&#45;&gt;p32 -->
<g id="edge53" class="edge"><title>v86&#45;&gt;p32</title>
<path fill="none" stroke="black" d="M1708.58,-434.834C1718.58,-425.746 1731.82,-413.71 1743.44,-403.141"/>
<polygon fill="black" stroke="black" points="1746.13,-405.429 1751.18,-396.113 1741.42,-400.25 1746.13,-405.429"/>
</g>
<!-- v86&#45;&gt;v76 -->
<g id="edge84" class="edge"><title>v86&#45;&gt;v76</title>
<path fill="none" stroke="black" d="M1677.82,-434.834C1667.15,-424.872 1652.68,-411.369 1640.65,-400.137"/>
<polygon fill="black" stroke="black" points="1642.85,-397.409 1633.15,-393.144 1638.08,-402.526 1642.85,-397.409"/>
</g>
<!-- v88 -->
<g id="node72" class="node"><title>v88</title>
<ellipse fill="none" stroke="black" cx="626" cy="-234" rx="27" ry="18"/>
<text text-anchor="middle" x="626" y="-230.3" font-family="Times,serif" font-size="14.00">88</text>
</g>
<!-- v88&#45;&gt;p7 -->
<g id="edge6" class="edge"><title>v88&#45;&gt;p7</title>
<path fill="none" stroke="black" d="M641.177,-218.834C650.915,-209.746 663.81,-197.71 675.134,-187.141"/>
<polygon fill="black" stroke="black" points="677.742,-189.495 682.665,-180.113 672.966,-184.377 677.742,-189.495"/>
</g>
<!-- v106 -->
<g id="node78" class="node"><title>v106</title>
<ellipse fill="none" stroke="black" cx="626" cy="-162" rx="27" ry="18"/>
<text text-anchor="middle" x="626" y="-158.3" font-family="Times,serif" font-size="14.00">106</text>
</g>
<!-- v88&#45;&gt;v106 -->
<g id="edge30" class="edge"><title>v88&#45;&gt;v106</title>
<path fill="none" stroke="black" d="M626,-215.697C626,-207.983 626,-198.712 626,-190.112"/>
<polygon fill="black" stroke="black" points="629.5,-190.104 626,-180.104 622.5,-190.104 629.5,-190.104"/>
</g>
<!-- p36&#45;&gt;v9 -->
<g id="edge31" class="edge"><title>p36&#45;&gt;v9</title>
<path fill="none" stroke="black" d="M1290.22,-579.412C1287.46,-578.23 1284.68,-577.076 1282,-576 1242.73,-560.261 1196.76,-544.268 1166.37,-534.029"/>
<polygon fill="black" stroke="black" points="1167.29,-530.646 1156.7,-530.785 1165.07,-537.283 1167.29,-530.646"/>
</g>
<!-- v92&#45;&gt;p10 -->
<g id="edge28" class="edge"><title>v92&#45;&gt;p10</title>
<path fill="none" stroke="black" d="M749.369,-366.357C744.418,-364.056 739.088,-361.782 734,-360 668.478,-337.053 647.86,-345.958 582,-324 581.904,-323.968 581.807,-323.936 581.711,-323.903"/>
<polygon fill="black" stroke="black" points="583.19,-320.718 572.597,-320.551 580.774,-327.288 583.19,-320.718"/>
</g>
<!-- v92&#45;&gt;v19 -->
<g id="edge80" class="edge"><title>v92&#45;&gt;v19</title>
<path fill="none" stroke="black" d="M795.936,-372.568C874.335,-360.123 1108.15,-324.917 1198.72,-311.91"/>
<polygon fill="black" stroke="black" points="1199.38,-315.351 1208.79,-310.472 1198.39,-308.421 1199.38,-315.351"/>
</g>
<!-- v92&#45;&gt;p13 -->
<g id="edge7" class="edge"><title>v92&#45;&gt;p13</title>
<path fill="none" stroke="black" d="M754.418,-362.834C744.421,-353.746 731.182,-341.71 719.555,-331.141"/>
<polygon fill="black" stroke="black" points="721.578,-328.25 711.824,-324.113 716.869,-333.429 721.578,-328.25"/>
</g>
<!-- v92&#45;&gt;p28 -->
<g id="edge1" class="edge"><title>v92&#45;&gt;p28</title>
<path fill="none" stroke="black" d="M770,-359.697C770,-351.983 770,-342.712 770,-334.112"/>
<polygon fill="black" stroke="black" points="773.5,-334.104 770,-324.104 766.5,-334.104 773.5,-334.104"/>
</g>
<!-- v92&#45;&gt;v78 -->
<g id="edge38" class="edge"><title>v92&#45;&gt;v78</title>
<path fill="none" stroke="black" d="M795.245,-370.73C820.082,-363.368 857.589,-348.887 881,-324 897.188,-306.791 906.487,-281.353 911.562,-262.075"/>
<polygon fill="black" stroke="black" points="915.028,-262.631 913.964,-252.09 908.222,-260.994 915.028,-262.631"/>
</g>
<!-- v109 -->
<g id="node79" class="node"><title>v109</title>
<ellipse fill="none" stroke="black" cx="396" cy="-306" rx="27" ry="18"/>
<text text-anchor="middle" x="396" y="-302.3" font-family="Times,serif" font-size="14.00">109</text>
</g>
<!-- v92&#45;&gt;v109 -->
<g id="edge25" class="edge"><title>v92&#45;&gt;v109</title>
<path fill="none" stroke="black" d="M749.505,-365.933C744.547,-363.649 739.181,-361.489 734,-360 604.088,-322.656 561.912,-361.344 432,-324 430.057,-323.441 428.088,-322.789 426.124,-322.07"/>
<polygon fill="black" stroke="black" points="427.073,-318.674 416.495,-318.067 424.385,-325.138 427.073,-318.674"/>
</g>
<!-- v114 -->
<g id="node80" class="node"><title>v114</title>
<ellipse fill="none" stroke="black" cx="468" cy="-306" rx="27" ry="18"/>
<text text-anchor="middle" x="468" y="-302.3" font-family="Times,serif" font-size="14.00">114</text>
</g>
<!-- v92&#45;&gt;v114 -->
<g id="edge16" class="edge"><title>v92&#45;&gt;v114</title>
<path fill="none" stroke="black" d="M749.464,-366.07C744.508,-363.781 739.153,-361.584 734,-360 635.1,-329.599 602.9,-354.401 504,-324 502.068,-323.406 500.107,-322.726 498.149,-321.987"/>
<polygon fill="black" stroke="black" points="499.11,-318.594 488.536,-317.93 496.388,-325.043 499.11,-318.594"/>
</g>
<!-- v121 -->
<g id="node83" class="node"><title>v121</title>
<ellipse fill="none" stroke="black" cx="618" cy="-306" rx="27" ry="18"/>
<text text-anchor="middle" x="618" y="-302.3" font-family="Times,serif" font-size="14.00">121</text>
</g>
<!-- v92&#45;&gt;v121 -->
<g id="edge41" class="edge"><title>v92&#45;&gt;v121</title>
<path fill="none" stroke="black" d="M748.702,-366.884C743.874,-364.607 738.765,-362.211 734,-360 698.998,-343.762 690.086,-340.055 655,-324 652.963,-323.068 650.864,-322.106 648.748,-321.136"/>
<polygon fill="black" stroke="black" points="650.065,-317.89 639.516,-316.9 647.145,-324.252 650.065,-317.89"/>
</g>
<!-- v96&#45;&gt;v59 -->
<g id="edge64" class="edge"><title>v96&#45;&gt;v59</title>
<path fill="none" stroke="black" d="M1235,-215.697C1235,-207.983 1235,-198.712 1235,-190.112"/>
<polygon fill="black" stroke="black" points="1238.5,-190.104 1235,-180.104 1231.5,-190.104 1238.5,-190.104"/>
</g>
<!-- v102&#45;&gt;p11 -->
<g id="edge19" class="edge"><title>v102&#45;&gt;p11</title>
<path fill="none" stroke="black" d="M1920,-431.697C1920,-423.983 1920,-414.712 1920,-406.112"/>
<polygon fill="black" stroke="black" points="1923.5,-406.104 1920,-396.104 1916.5,-406.104 1923.5,-406.104"/>
</g>
<!-- v102&#45;&gt;p35 -->
<g id="edge11" class="edge"><title>v102&#45;&gt;p35</title>
<path fill="none" stroke="black" d="M1935.58,-434.834C1945.58,-425.746 1958.82,-413.71 1970.44,-403.141"/>
<polygon fill="black" stroke="black" points="1973.13,-405.429 1978.18,-396.113 1968.42,-400.25 1973.13,-405.429"/>
</g>
<!-- v106&#45;&gt;v6 -->
<g id="edge45" class="edge"><title>v106&#45;&gt;v6</title>
<path fill="none" stroke="black" d="M626,-143.697C626,-135.983 626,-126.712 626,-118.112"/>
<polygon fill="black" stroke="black" points="629.5,-118.104 626,-108.104 622.5,-118.104 629.5,-118.104"/>
</g>
<!-- v118&#45;&gt;p0 -->
<g id="edge8" class="edge"><title>v118&#45;&gt;p0</title>
<path fill="none" stroke="black" d="M1307.74,-215.697C1308.07,-207.983 1308.47,-198.712 1308.84,-190.112"/>
<polygon fill="black" stroke="black" points="1312.34,-190.245 1309.27,-180.104 1305.34,-189.945 1312.34,-190.245"/>
</g>
<!-- v118&#45;&gt;v67 -->
<g id="edge42" class="edge"><title>v118&#45;&gt;v67</title>
<path fill="none" stroke="black" d="M1322.41,-219.17C1333.73,-209.008 1349.31,-195.03 1362.09,-183.561"/>
<polygon fill="black" stroke="black" points="1364.52,-186.085 1369.62,-176.801 1359.84,-180.875 1364.52,-186.085"/>
</g>
<!-- v119 -->
<g id="node82" class="node"><title>v119</title>
<ellipse fill="none" stroke="black" cx="1329" cy="-378" rx="27" ry="18"/>
<text text-anchor="middle" x="1329" y="-374.3" font-family="Times,serif" font-size="14.00">119</text>
</g>
<!-- v119&#45;&gt;v19 -->
<g id="edge75" class="edge"><title>v119&#45;&gt;v19</title>
<path fill="none" stroke="black" d="M1311.32,-363.834C1297.05,-353.207 1276.78,-338.11 1260.71,-326.147"/>
<polygon fill="black" stroke="black" points="1262.39,-323.036 1252.28,-319.871 1258.21,-328.651 1262.39,-323.036"/>
</g>
<!-- v121&#45;&gt;v88 -->
<g id="edge66" class="edge"><title>v121&#45;&gt;v88</title>
<path fill="none" stroke="black" d="M619.978,-287.697C620.859,-279.983 621.919,-270.712 622.901,-262.112"/>
<polygon fill="black" stroke="black" points="626.387,-262.437 624.045,-252.104 619.432,-261.642 626.387,-262.437"/>
</g>
<!-- v143 -->
<g id="node84" class="node"><title>v143</title>
<ellipse fill="none" stroke="black" cx="1432" cy="-450" rx="27" ry="18"/>
<text text-anchor="middle" x="1432" y="-446.3" font-family="Times,serif" font-size="14.00">143</text>
</g>
<!-- v143&#45;&gt;v35 -->
<g id="edge68" class="edge"><title>v143&#45;&gt;v35</title>
<path fill="none" stroke="black" d="M1451.34,-437.125C1469.6,-425.913 1497.19,-408.968 1517.89,-396.263"/>
<polygon fill="black" stroke="black" points="1519.88,-399.148 1526.57,-390.933 1516.21,-393.183 1519.88,-399.148"/>
</g>
<!-- v143&#45;&gt;v119 -->
<g id="edge26" class="edge"><title>v143&#45;&gt;v119</title>
<path fill="none" stroke="black" d="M1413.59,-436.485C1397.47,-425.536 1373.87,-409.495 1355.69,-397.138"/>
<polygon fill="black" stroke="black" points="1357.49,-394.132 1347.25,-391.406 1353.56,-399.922 1357.49,-394.132"/>
</g>
</g>
</svg>
