<?xml version="1.0" encoding="UTF-8" standalone="no"?>
<!DOCTYPE svg PUBLIC "-//W3C//DTD SVG 1.1//EN"
 "http://www.w3.org/Graphics/SVG/1.1/DTD/svg11.dtd">
<!-- Generated by graphviz version 2.38.0 (20140413.2041)
 -->
<!-- Title: %3 Pages: 1 -->
<svg width="873pt" height="332pt"
 viewBox="0.00 0.00 873.19 332.00" xmlns="http://www.w3.org/2000/svg" xmlns:xlink="http://www.w3.org/1999/xlink">
<g id="graph0" class="graph" transform="scale(1 1) rotate(0) translate(4 328)">
<title>%3</title>
<polygon fill="white" stroke="none" points="-4,4 -4,-328 869.193,-328 869.193,4 -4,4"/>
<!-- 0 -->
<g id="node1" class="node"><title>0</title>
<g id="a_node1"><a xlink:title="0, diversity: 9, multiplicities: 11,16,21,26,27,31,94,154,217, labels: 0">
<ellipse fill="#e32f27" stroke="black" cx="419.596" cy="-306" rx="37.0935" ry="18"/>
<text text-anchor="middle" x="419.596" y="-302.3" font-family="Times,serif" font-size="14.00">0 (9): 0</text>
</a>
</g>
</g>
<!-- 2 -->
<g id="node3" class="node"><title>2</title>
<g id="a_node3"><a xlink:title="2, diversity: 1, multiplicities: 48, labels: 0">
<ellipse fill="#fca082" stroke="black" cx="44.5963" cy="-234" rx="37.0935" ry="18"/>
<text text-anchor="middle" x="44.5963" y="-230.3" font-family="Times,serif" font-size="14.00">2 (1): 0</text>
</a>
</g>
</g>
<!-- 0&#45;&gt;2 -->
<g id="edge22" class="edge"><title>0&#45;&gt;2</title>
<path fill="none" stroke="black" d="M383.355,-301.282C322.567,-294.567 196.507,-278.592 92.5963,-252 89.1959,-251.13 85.6957,-250.121 82.2085,-249.037"/>
<polygon fill="black" stroke="black" points="83.1016,-245.646 72.5084,-245.836 80.9082,-252.293 83.1016,-245.646"/>
</g>
<!-- 3 -->
<g id="node4" class="node"><title>3</title>
<g id="a_node4"><a xlink:title="3, diversity: 1, multiplicities: 58, labels: 0">
<ellipse fill="#fca082" stroke="black" cx="138.596" cy="-234" rx="37.0935" ry="18"/>
<text text-anchor="middle" x="138.596" y="-230.3" font-family="Times,serif" font-size="14.00">3 (1): 0</text>
</a>
</g>
</g>
<!-- 0&#45;&gt;3 -->
<g id="edge4" class="edge"><title>0&#45;&gt;3</title>
<path fill="none" stroke="black" d="M385.377,-298.756C339.302,-290.016 254.975,-272.842 184.596,-252 181.841,-251.184 179.013,-250.288 176.179,-249.347"/>
<polygon fill="black" stroke="black" points="177.212,-246.001 166.618,-246.025 174.915,-252.613 177.212,-246.001"/>
</g>
<!-- 4 -->
<g id="node5" class="node"><title>4</title>
<g id="a_node5"><a xlink:title="4, diversity: 1, multiplicities: 69, labels: 0">
<ellipse fill="#fca082" stroke="black" cx="230.596" cy="-234" rx="37.0935" ry="18"/>
<text text-anchor="middle" x="230.596" y="-230.3" font-family="Times,serif" font-size="14.00">4 (1): 0</text>
</a>
</g>
</g>
<!-- 0&#45;&gt;4 -->
<g id="edge10" class="edge"><title>0&#45;&gt;4</title>
<path fill="none" stroke="black" d="M390.891,-294.369C358.326,-282.307 305.067,-262.582 268.959,-249.208"/>
<polygon fill="black" stroke="black" points="269.854,-245.808 259.261,-245.617 267.423,-252.372 269.854,-245.808"/>
</g>
<!-- 9 -->
<g id="node10" class="node"><title>9</title>
<g id="a_node10"><a xlink:title="9, diversity: 1, multiplicities: 31, labels: 0">
<ellipse fill="#fca082" stroke="black" cx="322.596" cy="-234" rx="37.0935" ry="18"/>
<text text-anchor="middle" x="322.596" y="-230.3" font-family="Times,serif" font-size="14.00">9 (1): 0</text>
</a>
</g>
</g>
<!-- 0&#45;&gt;9 -->
<g id="edge21" class="edge"><title>0&#45;&gt;9</title>
<path fill="none" stroke="black" d="M399.498,-290.496C385.358,-280.292 366.245,-266.499 350.611,-255.217"/>
<polygon fill="black" stroke="black" points="352.494,-252.26 342.337,-249.246 348.398,-257.936 352.494,-252.26"/>
</g>
<!-- 10 -->
<g id="node11" class="node"><title>10</title>
<g id="a_node11"><a xlink:title="10, diversity: 5, multiplicities: 5,5,14,22,29, labels: 0">
<ellipse fill="#fca082" stroke="black" cx="419.596" cy="-234" rx="41.6928" ry="18"/>
<text text-anchor="middle" x="419.596" y="-230.3" font-family="Times,serif" font-size="14.00">10 (5): 0</text>
</a>
</g>
</g>
<!-- 0&#45;&gt;10 -->
<g id="edge3" class="edge"><title>0&#45;&gt;10</title>
<path fill="none" stroke="black" d="M419.596,-287.697C419.596,-279.983 419.596,-270.712 419.596,-262.112"/>
<polygon fill="black" stroke="black" points="423.096,-262.104 419.596,-252.104 416.096,-262.104 423.096,-262.104"/>
</g>
<!-- 11 -->
<g id="node12" class="node"><title>11</title>
<g id="a_node12"><a xlink:title="11, diversity: 1, multiplicities: 14, labels: 0">
<ellipse fill="#fca082" stroke="black" cx="520.596" cy="-234" rx="41.6928" ry="18"/>
<text text-anchor="middle" x="520.596" y="-230.3" font-family="Times,serif" font-size="14.00">11 (1): 0</text>
</a>
</g>
</g>
<!-- 0&#45;&gt;11 -->
<g id="edge9" class="edge"><title>0&#45;&gt;11</title>
<path fill="none" stroke="black" d="M440.035,-290.834C454.626,-280.722 474.48,-266.962 490.827,-255.632"/>
<polygon fill="black" stroke="black" points="493.267,-258.199 499.493,-249.626 489.28,-252.446 493.267,-258.199"/>
</g>
<!-- 12 -->
<g id="node13" class="node"><title>12</title>
<g id="a_node13"><a xlink:title="12, diversity: 1, multiplicities: 107, labels: 0">
<ellipse fill="#fb7c5c" stroke="black" cx="621.596" cy="-234" rx="41.6928" ry="18"/>
<text text-anchor="middle" x="621.596" y="-230.3" font-family="Times,serif" font-size="14.00">12 (1): 0</text>
</a>
</g>
</g>
<!-- 0&#45;&gt;12 -->
<g id="edge14" class="edge"><title>0&#45;&gt;12</title>
<path fill="none" stroke="black" d="M448.969,-294.821C483.669,-282.796 541.61,-262.718 580.69,-249.176"/>
<polygon fill="black" stroke="black" points="581.89,-252.464 590.193,-245.882 579.598,-245.85 581.89,-252.464"/>
</g>
<!-- 18 -->
<g id="node19" class="node"><title>18</title>
<g id="a_node19"><a xlink:title="18, diversity: 1, multiplicities: 12, labels: 0">
<ellipse fill="#fca082" stroke="black" cx="722.596" cy="-234" rx="41.6928" ry="18"/>
<text text-anchor="middle" x="722.596" y="-230.3" font-family="Times,serif" font-size="14.00">18 (1): 0</text>
</a>
</g>
</g>
<!-- 0&#45;&gt;18 -->
<g id="edge13" class="edge"><title>0&#45;&gt;18</title>
<path fill="none" stroke="black" d="M454.287,-299.11C503.33,-290.472 595.548,-273.085 672.596,-252 675.595,-251.179 678.676,-250.278 681.766,-249.332"/>
<polygon fill="black" stroke="black" points="683.11,-252.576 691.571,-246.199 680.98,-245.908 683.11,-252.576"/>
</g>
<!-- 22 -->
<g id="node23" class="node"><title>22</title>
<g id="a_node23"><a xlink:title="22, diversity: 1, multiplicities: 13, labels: 0">
<ellipse fill="#fca082" stroke="black" cx="823.596" cy="-234" rx="41.6928" ry="18"/>
<text text-anchor="middle" x="823.596" y="-230.3" font-family="Times,serif" font-size="14.00">22 (1): 0</text>
</a>
</g>
</g>
<!-- 0&#45;&gt;22 -->
<g id="edge1" class="edge"><title>0&#45;&gt;22</title>
<path fill="none" stroke="black" d="M455.682,-301.753C520.169,-295.476 659.159,-279.784 773.596,-252 776.804,-251.221 780.098,-250.325 783.391,-249.361"/>
<polygon fill="black" stroke="black" points="784.674,-252.627 793.179,-246.308 782.59,-245.944 784.674,-252.627"/>
</g>
<!-- 1 -->
<g id="node2" class="node"><title>1</title>
<g id="a_node2"><a xlink:title="1, diversity: 4, multiplicities: 7,8,136,245, labels: 0">
<ellipse fill="#f6553c" stroke="black" cx="230.596" cy="-162" rx="37.0935" ry="18"/>
<text text-anchor="middle" x="230.596" y="-158.3" font-family="Times,serif" font-size="14.00">1 (4): 0</text>
</a>
</g>
</g>
<!-- 5 -->
<g id="node6" class="node"><title>5</title>
<g id="a_node6"><a xlink:title="5, diversity: 1, multiplicities: 38, labels: 0">
<ellipse fill="#fca082" stroke="black" cx="85.5963" cy="-90" rx="37.0935" ry="18"/>
<text text-anchor="middle" x="85.5963" y="-86.3" font-family="Times,serif" font-size="14.00">5 (1): 0</text>
</a>
</g>
</g>
<!-- 1&#45;&gt;5 -->
<g id="edge8" class="edge"><title>1&#45;&gt;5</title>
<path fill="none" stroke="black" d="M205.339,-148.807C181.781,-137.434 146.435,-120.37 120.246,-107.727"/>
<polygon fill="black" stroke="black" points="121.578,-104.484 111.05,-103.288 118.534,-110.788 121.578,-104.484"/>
</g>
<!-- 6 -->
<g id="node7" class="node"><title>6</title>
<g id="a_node7"><a xlink:title="6, diversity: 2, multiplicities: 26,37, labels: 0">
<ellipse fill="#fca082" stroke="black" cx="177.596" cy="-90" rx="37.0935" ry="18"/>
<text text-anchor="middle" x="177.596" y="-86.3" font-family="Times,serif" font-size="14.00">6 (2): 0</text>
</a>
</g>
</g>
<!-- 1&#45;&gt;6 -->
<g id="edge2" class="edge"><title>1&#45;&gt;6</title>
<path fill="none" stroke="black" d="M218.304,-144.765C211.681,-136.018 203.378,-125.052 196.001,-115.308"/>
<polygon fill="black" stroke="black" points="198.649,-113.007 189.822,-107.147 193.068,-117.233 198.649,-113.007"/>
</g>
<!-- 19 -->
<g id="node20" class="node"><title>19</title>
<g id="a_node20"><a xlink:title="19, diversity: 1, multiplicities: 8, labels: 0">
<ellipse fill="#fcc4ad" stroke="black" cx="274.596" cy="-90" rx="41.6928" ry="18"/>
<text text-anchor="middle" x="274.596" y="-86.3" font-family="Times,serif" font-size="14.00">19 (1): 0</text>
</a>
</g>
</g>
<!-- 1&#45;&gt;19 -->
<g id="edge15" class="edge"><title>1&#45;&gt;19</title>
<path fill="none" stroke="black" d="M241.024,-144.411C246.339,-135.955 252.914,-125.494 258.833,-116.078"/>
<polygon fill="black" stroke="black" points="261.885,-117.799 264.244,-107.47 255.959,-114.074 261.885,-117.799"/>
</g>
<!-- 20 -->
<g id="node21" class="node"><title>20</title>
<g id="a_node21"><a xlink:title="20, diversity: 1, multiplicities: 91, labels: 0">
<ellipse fill="#fca082" stroke="black" cx="375.596" cy="-90" rx="41.6928" ry="18"/>
<text text-anchor="middle" x="375.596" y="-86.3" font-family="Times,serif" font-size="14.00">20 (1): 0</text>
</a>
</g>
</g>
<!-- 1&#45;&gt;20 -->
<g id="edge5" class="edge"><title>1&#45;&gt;20</title>
<path fill="none" stroke="black" d="M255.853,-148.807C278.978,-137.643 313.461,-120.996 339.492,-108.43"/>
<polygon fill="black" stroke="black" points="341.179,-111.502 348.663,-104.002 338.136,-105.198 341.179,-111.502"/>
</g>
<!-- 16 -->
<g id="node17" class="node"><title>16</title>
<g id="a_node17"><a xlink:title="16, diversity: 1, multiplicities: 7, labels: 0">
<ellipse fill="#fcc4ad" stroke="black" cx="41.5963" cy="-162" rx="41.6928" ry="18"/>
<text text-anchor="middle" x="41.5963" y="-158.3" font-family="Times,serif" font-size="14.00">16 (1): 0</text>
</a>
</g>
</g>
<!-- 2&#45;&gt;16 -->
<g id="edge12" class="edge"><title>2&#45;&gt;16</title>
<path fill="none" stroke="black" d="M43.8547,-215.697C43.5241,-207.983 43.1268,-198.712 42.7583,-190.112"/>
<polygon fill="black" stroke="black" points="46.2544,-189.945 42.3294,-180.104 39.2608,-190.245 46.2544,-189.945"/>
</g>
<!-- 8 -->
<g id="node9" class="node"><title>8</title>
<g id="a_node9"><a xlink:title="8, diversity: 1, multiplicities: 15, labels: 0">
<ellipse fill="#fca082" stroke="black" cx="138.596" cy="-162" rx="37.0935" ry="18"/>
<text text-anchor="middle" x="138.596" y="-158.3" font-family="Times,serif" font-size="14.00">8 (1): 0</text>
</a>
</g>
</g>
<!-- 3&#45;&gt;8 -->
<g id="edge20" class="edge"><title>3&#45;&gt;8</title>
<path fill="none" stroke="black" d="M138.596,-215.697C138.596,-207.983 138.596,-198.712 138.596,-190.112"/>
<polygon fill="black" stroke="black" points="142.096,-190.104 138.596,-180.104 135.096,-190.104 142.096,-190.104"/>
</g>
<!-- 4&#45;&gt;1 -->
<g id="edge11" class="edge"><title>4&#45;&gt;1</title>
<path fill="none" stroke="black" d="M230.596,-215.697C230.596,-207.983 230.596,-198.712 230.596,-190.112"/>
<polygon fill="black" stroke="black" points="234.096,-190.104 230.596,-180.104 227.096,-190.104 234.096,-190.104"/>
</g>
<!-- 17 -->
<g id="node18" class="node"><title>17</title>
<g id="a_node18"><a xlink:title="17, diversity: 1, multiplicities: 23, labels: 0">
<ellipse fill="#fca082" stroke="black" cx="327.596" cy="-162" rx="41.6928" ry="18"/>
<text text-anchor="middle" x="327.596" y="-158.3" font-family="Times,serif" font-size="14.00">17 (1): 0</text>
</a>
</g>
</g>
<!-- 4&#45;&gt;17 -->
<g id="edge19" class="edge"><title>4&#45;&gt;17</title>
<path fill="none" stroke="black" d="M250.695,-218.496C264.648,-208.427 283.442,-194.864 298.959,-183.666"/>
<polygon fill="black" stroke="black" points="301.129,-186.416 307.19,-177.726 297.033,-180.74 301.129,-186.416"/>
</g>
<!-- 14 -->
<g id="node15" class="node"><title>14</title>
<g id="a_node15"><a xlink:title="14, diversity: 1, multiplicities: 7, labels: 0">
<ellipse fill="#fcc4ad" stroke="black" cx="85.5963" cy="-18" rx="41.6928" ry="18"/>
<text text-anchor="middle" x="85.5963" y="-14.3" font-family="Times,serif" font-size="14.00">14 (1): 0</text>
</a>
</g>
</g>
<!-- 5&#45;&gt;14 -->
<g id="edge6" class="edge"><title>5&#45;&gt;14</title>
<path fill="none" stroke="black" d="M85.5963,-71.6966C85.5963,-63.9827 85.5963,-54.7125 85.5963,-46.1124"/>
<polygon fill="black" stroke="black" points="89.0964,-46.1043 85.5963,-36.1043 82.0964,-46.1044 89.0964,-46.1043"/>
</g>
<!-- 7 -->
<g id="node8" class="node"><title>7</title>
<g id="a_node8"><a xlink:title="7, diversity: 1, multiplicities: 32, labels: 0">
<ellipse fill="#fca082" stroke="black" cx="520.596" cy="-162" rx="37.0935" ry="18"/>
<text text-anchor="middle" x="520.596" y="-158.3" font-family="Times,serif" font-size="14.00">7 (1): 0</text>
</a>
</g>
</g>
<!-- 13 -->
<g id="node14" class="node"><title>13</title>
<g id="a_node14"><a xlink:title="13, diversity: 1, multiplicities: 10, labels: 0">
<ellipse fill="#fcc4ad" stroke="black" cx="520.596" cy="-90" rx="41.6928" ry="18"/>
<text text-anchor="middle" x="520.596" y="-86.3" font-family="Times,serif" font-size="14.00">13 (1): 0</text>
</a>
</g>
</g>
<!-- 7&#45;&gt;13 -->
<g id="edge18" class="edge"><title>7&#45;&gt;13</title>
<path fill="none" stroke="black" d="M520.596,-143.697C520.596,-135.983 520.596,-126.712 520.596,-118.112"/>
<polygon fill="black" stroke="black" points="524.096,-118.104 520.596,-108.104 517.096,-118.104 524.096,-118.104"/>
</g>
<!-- 11&#45;&gt;7 -->
<g id="edge16" class="edge"><title>11&#45;&gt;7</title>
<path fill="none" stroke="black" d="M520.596,-215.697C520.596,-207.983 520.596,-198.712 520.596,-190.112"/>
<polygon fill="black" stroke="black" points="524.096,-190.104 520.596,-180.104 517.096,-190.104 524.096,-190.104"/>
</g>
<!-- 15 -->
<g id="node16" class="node"><title>15</title>
<g id="a_node16"><a xlink:title="15, diversity: 1, multiplicities: 21, labels: 0">
<ellipse fill="#fca082" stroke="black" cx="621.596" cy="-162" rx="41.6928" ry="18"/>
<text text-anchor="middle" x="621.596" y="-158.3" font-family="Times,serif" font-size="14.00">15 (1): 0</text>
</a>
</g>
</g>
<!-- 12&#45;&gt;15 -->
<g id="edge17" class="edge"><title>12&#45;&gt;15</title>
<path fill="none" stroke="black" d="M621.596,-215.697C621.596,-207.983 621.596,-198.712 621.596,-190.112"/>
<polygon fill="black" stroke="black" points="625.096,-190.104 621.596,-180.104 618.096,-190.104 625.096,-190.104"/>
</g>
<!-- 21 -->
<g id="node22" class="node"><title>21</title>
<g id="a_node22"><a xlink:title="21, diversity: 1, multiplicities: 12, labels: 0">
<ellipse fill="#fca082" stroke="black" cx="375.596" cy="-18" rx="41.6928" ry="18"/>
<text text-anchor="middle" x="375.596" y="-14.3" font-family="Times,serif" font-size="14.00">21 (1): 0</text>
</a>
</g>
</g>
<!-- 20&#45;&gt;21 -->
<g id="edge7" class="edge"><title>20&#45;&gt;21</title>
<path fill="none" stroke="black" d="M375.596,-71.6966C375.596,-63.9827 375.596,-54.7125 375.596,-46.1124"/>
<polygon fill="black" stroke="black" points="379.096,-46.1043 375.596,-36.1043 372.096,-46.1044 379.096,-46.1043"/>
</g>
</g>
</svg>
