<?xml version="1.0" encoding="UTF-8" standalone="no"?>
<!DOCTYPE svg PUBLIC "-//W3C//DTD SVG 1.1//EN"
 "http://www.w3.org/Graphics/SVG/1.1/DTD/svg11.dtd">
<!-- Generated by graphviz version 2.38.0 (20140413.2041)
 -->
<!-- Title: %3 Pages: 1 -->
<svg width="877pt" height="908pt"
 viewBox="0.00 0.00 876.79 908.00" xmlns="http://www.w3.org/2000/svg" xmlns:xlink="http://www.w3.org/1999/xlink">
<g id="graph0" class="graph" transform="scale(1 1) rotate(0) translate(4 904)">
<title>%3</title>
<polygon fill="white" stroke="none" points="-4,4 -4,-904 872.792,-904 872.792,4 -4,4"/>
<!-- 0 -->
<g id="node1" class="node"><title>0</title>
<g id="a_node1"><a xlink:title="0, diversity: 2, multiplicities: 19,47, labels: 1,2">
<ellipse fill="#fca082" stroke="black" cx="327.596" cy="-666" rx="44.393" ry="18"/>
<text text-anchor="middle" x="327.596" y="-662.3" font-family="Times,serif" font-size="14.00">0 (2): 1,2</text>
</a>
</g>
</g>
<!-- 36 -->
<g id="node37" class="node"><title>36</title>
<g id="a_node37"><a xlink:title="36, diversity: 1, multiplicities: 6, labels: 1">
<ellipse fill="#fcc4ad" stroke="black" cx="323.596" cy="-594" rx="41.6928" ry="18"/>
<text text-anchor="middle" x="323.596" y="-590.3" font-family="Times,serif" font-size="14.00">36 (1): 1</text>
</a>
</g>
</g>
<!-- 0&#45;&gt;36 -->
<g id="edge12" class="edge"><title>0&#45;&gt;36</title>
<path fill="none" stroke="black" d="M326.608,-647.697C326.167,-639.983 325.637,-630.712 325.146,-622.112"/>
<polygon fill="black" stroke="black" points="328.639,-621.888 324.574,-612.104 321.65,-622.288 328.639,-621.888"/>
</g>
<!-- 1 -->
<g id="node2" class="node"><title>1</title>
<g id="a_node2"><a xlink:title="1, diversity: 11, multiplicities: 1,6,7,9,9,11,16,26,28,37,106, labels: 1,0">
<ellipse fill="#f6553c" stroke="black" cx="386.596" cy="-522" rx="48.1917" ry="18"/>
<text text-anchor="middle" x="386.596" y="-518.3" font-family="Times,serif" font-size="14.00">1 (11): 1,0</text>
</a>
</g>
</g>
<!-- 2 -->
<g id="node3" class="node"><title>2</title>
<g id="a_node3"><a xlink:title="2, diversity: 3, multiplicities: 2,8,334, labels: 1,0,3,2">
<ellipse fill="#f6553c" stroke="black" cx="440.596" cy="-594" rx="57.6901" ry="18"/>
<text text-anchor="middle" x="440.596" y="-590.3" font-family="Times,serif" font-size="14.00">2 (3): 1,0,3,2</text>
</a>
</g>
</g>
<!-- 1&#45;&gt;2 -->
<g id="edge16" class="edge"><title>1&#45;&gt;2</title>
<path fill="none" stroke="black" d="M404.562,-538.829C412.096,-547.321 420.581,-557.99 427.527,-567.609"/>
<polygon fill="black" stroke="black" points="424.819,-569.844 433.403,-576.055 430.565,-565.847 424.819,-569.844"/>
</g>
<!-- 6 -->
<g id="node7" class="node"><title>6</title>
<g id="a_node7"><a xlink:title="6, diversity: 3, multiplicities: 10,28,752, labels: 1,0,3,2">
<ellipse fill="#e32f27" stroke="black" cx="668.596" cy="-450" rx="57.6901" ry="18"/>
<text text-anchor="middle" x="668.596" y="-446.3" font-family="Times,serif" font-size="14.00">6 (3): 1,0,3,2</text>
</a>
</g>
</g>
<!-- 1&#45;&gt;6 -->
<g id="edge11" class="edge"><title>1&#45;&gt;6</title>
<path fill="none" stroke="black" d="M418.678,-508.419C423.967,-506.876 429.403,-505.365 434.596,-504 504.254,-485.698 522.575,-484.858 592.596,-468 598.946,-466.471 605.624,-464.824 612.29,-463.178"/>
<polygon fill="black" stroke="black" points="613.137,-466.574 622.008,-460.782 611.461,-459.778 613.137,-466.574"/>
</g>
<!-- 18 -->
<g id="node19" class="node"><title>18</title>
<g id="a_node19"><a xlink:title="18, diversity: 4, multiplicities: 9,31,57,63, labels: 1">
<ellipse fill="#fb7c5c" stroke="black" cx="41.5963" cy="-162" rx="41.6928" ry="18"/>
<text text-anchor="middle" x="41.5963" y="-158.3" font-family="Times,serif" font-size="14.00">18 (4): 1</text>
</a>
</g>
</g>
<!-- 1&#45;&gt;18 -->
<g id="edge43" class="edge"><title>1&#45;&gt;18</title>
<path fill="none" stroke="black" d="M338.811,-519.279C258.296,-515.325 100.91,-503.061 60.5963,-468 29.3074,-440.788 32.5963,-420.467 32.5963,-379 32.5963,-379 32.5963,-379 32.5963,-305 32.5963,-264.996 32.5963,-218.653 34.8884,-190.08"/>
<polygon fill="black" stroke="black" points="38.3791,-190.346 35.8839,-180.049 31.4133,-189.655 38.3791,-190.346"/>
</g>
<!-- 26 -->
<g id="node27" class="node"><title>26</title>
<g id="a_node27"><a xlink:title="26, diversity: 1, multiplicities: 23, labels: 1,0">
<ellipse fill="#fca082" stroke="black" cx="544.596" cy="-450" rx="48.1917" ry="18"/>
<text text-anchor="middle" x="544.596" y="-446.3" font-family="Times,serif" font-size="14.00">26 (1): 1,0</text>
</a>
</g>
</g>
<!-- 1&#45;&gt;26 -->
<g id="edge3" class="edge"><title>1&#45;&gt;26</title>
<path fill="none" stroke="black" d="M416.315,-507.834C441.504,-496.674 477.821,-480.584 505.389,-468.37"/>
<polygon fill="black" stroke="black" points="507.018,-471.477 514.743,-464.226 504.182,-465.077 507.018,-471.477"/>
</g>
<!-- 27 -->
<g id="node28" class="node"><title>27</title>
<g id="a_node28"><a xlink:title="27, diversity: 1, multiplicities: 10, labels: 1,0">
<ellipse fill="#fcc4ad" stroke="black" cx="126.596" cy="-450" rx="48.1917" ry="18"/>
<text text-anchor="middle" x="126.596" y="-446.3" font-family="Times,serif" font-size="14.00">27 (1): 1,0</text>
</a>
</g>
</g>
<!-- 1&#45;&gt;27 -->
<g id="edge41" class="edge"><title>1&#45;&gt;27</title>
<path fill="none" stroke="black" d="M347.573,-511.237C306.621,-500.892 240.425,-483.888 183.596,-468 180.004,-466.996 176.29,-465.936 172.561,-464.857"/>
<polygon fill="black" stroke="black" points="173.307,-461.429 162.726,-461.98 171.341,-468.147 173.307,-461.429"/>
</g>
<!-- 30 -->
<g id="node31" class="node"><title>30</title>
<g id="a_node31"><a xlink:title="30, diversity: 2, multiplicities: 1,5, labels: 1">
<ellipse fill="#fcc4ad" stroke="black" cx="436.596" cy="-450" rx="41.6928" ry="18"/>
<text text-anchor="middle" x="436.596" y="-446.3" font-family="Times,serif" font-size="14.00">30 (2): 1</text>
</a>
</g>
</g>
<!-- 1&#45;&gt;30 -->
<g id="edge45" class="edge"><title>1&#45;&gt;30</title>
<path fill="none" stroke="black" d="M398.446,-504.411C404.548,-495.868 412.112,-485.278 418.891,-475.787"/>
<polygon fill="black" stroke="black" points="421.868,-477.642 424.832,-467.47 416.172,-473.573 421.868,-477.642"/>
</g>
<!-- 33 -->
<g id="node34" class="node"><title>33</title>
<g id="a_node34"><a xlink:title="33, diversity: 1, multiplicities: 1, labels: 1">
<ellipse fill="#fff5f0" stroke="black" cx="234.596" cy="-450" rx="41.6928" ry="18"/>
<text text-anchor="middle" x="234.596" y="-446.3" font-family="Times,serif" font-size="14.00">33 (1): 1</text>
</a>
</g>
</g>
<!-- 1&#45;&gt;33 -->
<g id="edge14" class="edge"><title>1&#45;&gt;33</title>
<path fill="none" stroke="black" d="M357.289,-507.503C332.78,-496.216 297.692,-480.057 271.312,-467.909"/>
<polygon fill="black" stroke="black" points="272.571,-464.635 262.023,-463.631 269.642,-470.993 272.571,-464.635"/>
</g>
<!-- 39 -->
<g id="node40" class="node"><title>39</title>
<g id="a_node40"><a xlink:title="39, diversity: 1, multiplicities: 10, labels: 1">
<ellipse fill="#fcc4ad" stroke="black" cx="335.596" cy="-450" rx="41.6928" ry="18"/>
<text text-anchor="middle" x="335.596" y="-446.3" font-family="Times,serif" font-size="14.00">39 (1): 1</text>
</a>
</g>
</g>
<!-- 1&#45;&gt;39 -->
<g id="edge33" class="edge"><title>1&#45;&gt;39</title>
<path fill="none" stroke="black" d="M374.51,-504.411C368.286,-495.868 360.571,-485.278 353.656,-475.787"/>
<polygon fill="black" stroke="black" points="356.313,-473.491 347.596,-467.47 350.656,-477.613 356.313,-473.491"/>
</g>
<!-- 2&#45;&gt;1 -->
<g id="edge7" class="edge"><title>2&#45;&gt;1</title>
<path fill="none" stroke="black" d="M422.271,-576.765C414.839,-568.354 406.527,-557.89 399.697,-548.436"/>
<polygon fill="black" stroke="black" points="402.496,-546.33 393.909,-540.124 396.752,-550.33 402.496,-546.33"/>
</g>
<!-- 37 -->
<g id="node38" class="node"><title>37</title>
<g id="a_node38"><a xlink:title="37, diversity: 1, multiplicities: 7, labels: 1">
<ellipse fill="#fcc4ad" stroke="black" cx="494.596" cy="-522" rx="41.6928" ry="18"/>
<text text-anchor="middle" x="494.596" y="-518.3" font-family="Times,serif" font-size="14.00">37 (1): 1</text>
</a>
</g>
</g>
<!-- 2&#45;&gt;37 -->
<g id="edge44" class="edge"><title>2&#45;&gt;37</title>
<path fill="none" stroke="black" d="M453.394,-576.411C460.051,-567.781 468.32,-557.062 475.698,-547.497"/>
<polygon fill="black" stroke="black" points="478.554,-549.526 481.891,-539.47 473.012,-545.25 478.554,-549.526"/>
</g>
<!-- 3 -->
<g id="node4" class="node"><title>3</title>
<g id="a_node4"><a xlink:title="3, diversity: 4, multiplicities: 2,2,7,13, labels: 1">
<ellipse fill="#fca082" stroke="black" cx="260.596" cy="-306" rx="37.0935" ry="18"/>
<text text-anchor="middle" x="260.596" y="-302.3" font-family="Times,serif" font-size="14.00">3 (4): 1</text>
</a>
</g>
</g>
<!-- 4 -->
<g id="node5" class="node"><title>4</title>
<g id="a_node5"><a xlink:title="4, diversity: 2, multiplicities: 5,11, labels: 1">
<ellipse fill="#fca082" stroke="black" cx="357.596" cy="-234" rx="37.0935" ry="18"/>
<text text-anchor="middle" x="357.596" y="-230.3" font-family="Times,serif" font-size="14.00">4 (2): 1</text>
</a>
</g>
</g>
<!-- 3&#45;&gt;4 -->
<g id="edge39" class="edge"><title>3&#45;&gt;4</title>
<path fill="none" stroke="black" d="M280.695,-290.496C294.835,-280.292 313.948,-266.499 329.582,-255.217"/>
<polygon fill="black" stroke="black" points="331.795,-257.936 337.855,-249.246 327.698,-252.26 331.795,-257.936"/>
</g>
<!-- 12 -->
<g id="node13" class="node"><title>12</title>
<g id="a_node13"><a xlink:title="12, diversity: 2, multiplicities: 5,7, labels: 1">
<ellipse fill="#fca082" stroke="black" cx="159.596" cy="-162" rx="41.6928" ry="18"/>
<text text-anchor="middle" x="159.596" y="-158.3" font-family="Times,serif" font-size="14.00">12 (2): 1</text>
</a>
</g>
</g>
<!-- 3&#45;&gt;12 -->
<g id="edge37" class="edge"><title>3&#45;&gt;12</title>
<path fill="none" stroke="black" d="M243.841,-289.72C233.296,-279.612 219.801,-265.735 209.596,-252 194.813,-232.103 181.259,-207.382 172.003,-189.047"/>
<polygon fill="black" stroke="black" points="175.021,-187.253 167.447,-179.845 168.748,-190.359 175.021,-187.253"/>
</g>
<!-- 15 -->
<g id="node16" class="node"><title>15</title>
<g id="a_node16"><a xlink:title="15, diversity: 3, multiplicities: 5,13,15, labels: 1">
<ellipse fill="#fca082" stroke="black" cx="260.596" cy="-234" rx="41.6928" ry="18"/>
<text text-anchor="middle" x="260.596" y="-230.3" font-family="Times,serif" font-size="14.00">15 (3): 1</text>
</a>
</g>
</g>
<!-- 3&#45;&gt;15 -->
<g id="edge1" class="edge"><title>3&#45;&gt;15</title>
<path fill="none" stroke="black" d="M260.596,-287.697C260.596,-279.983 260.596,-270.712 260.596,-262.112"/>
<polygon fill="black" stroke="black" points="264.096,-262.104 260.596,-252.104 257.096,-262.104 264.096,-262.104"/>
</g>
<!-- 17 -->
<g id="node18" class="node"><title>17</title>
<g id="a_node18"><a xlink:title="17, diversity: 1, multiplicities: 6, labels: 1">
<ellipse fill="#fcc4ad" stroke="black" cx="120.596" cy="-234" rx="41.6928" ry="18"/>
<text text-anchor="middle" x="120.596" y="-230.3" font-family="Times,serif" font-size="14.00">17 (1): 1</text>
</a>
</g>
</g>
<!-- 3&#45;&gt;17 -->
<g id="edge13" class="edge"><title>3&#45;&gt;17</title>
<path fill="none" stroke="black" d="M235.567,-292.485C213.39,-281.397 180.768,-265.086 155.933,-252.668"/>
<polygon fill="black" stroke="black" points="157.344,-249.461 146.834,-248.119 154.213,-255.722 157.344,-249.461"/>
</g>
<!-- 5 -->
<g id="node6" class="node"><title>5</title>
<g id="a_node6"><a xlink:title="5, diversity: 2, multiplicities: 11,12, labels: 1">
<ellipse fill="#fca082" stroke="black" cx="234.596" cy="-378" rx="37.0935" ry="18"/>
<text text-anchor="middle" x="234.596" y="-374.3" font-family="Times,serif" font-size="14.00">5 (2): 1</text>
</a>
</g>
</g>
<!-- 6&#45;&gt;1 -->
<g id="edge40" class="edge"><title>6&#45;&gt;1</title>
<path fill="none" stroke="black" d="M629.607,-463.307C623.275,-464.91 616.78,-466.511 610.596,-468 540.575,-484.858 522.254,-485.698 452.596,-504 447.094,-505.446 441.32,-507.057 435.556,-508.694"/>
<polygon fill="black" stroke="black" points="434.568,-505.337 425.916,-511.452 436.493,-512.067 434.568,-505.337"/>
</g>
<!-- 21 -->
<g id="node22" class="node"><title>21</title>
<g id="a_node22"><a xlink:title="21, diversity: 1, multiplicities: 1, labels: 1">
<ellipse fill="#fff5f0" stroke="black" cx="665.596" cy="-378" rx="41.6928" ry="18"/>
<text text-anchor="middle" x="665.596" y="-374.3" font-family="Times,serif" font-size="14.00">21 (1): 1</text>
</a>
</g>
</g>
<!-- 6&#45;&gt;21 -->
<g id="edge32" class="edge"><title>6&#45;&gt;21</title>
<path fill="none" stroke="black" d="M667.855,-431.697C667.524,-423.983 667.127,-414.712 666.758,-406.112"/>
<polygon fill="black" stroke="black" points="670.254,-405.945 666.329,-396.104 663.261,-406.245 670.254,-405.945"/>
</g>
<!-- 7 -->
<g id="node8" class="node"><title>7</title>
<g id="a_node8"><a xlink:title="7, diversity: 16, multiplicities: 1,1,1,3,4,6,7,7,7,8,16,33,35,77,90,108, labels: 1,0,2">
<ellipse fill="#f6553c" stroke="black" cx="523.596" cy="-306" rx="55.4913" ry="18"/>
<text text-anchor="middle" x="523.596" y="-302.3" font-family="Times,serif" font-size="14.00">7 (16): 1,0,2</text>
</a>
</g>
</g>
<!-- 20 -->
<g id="node21" class="node"><title>20</title>
<g id="a_node21"><a xlink:title="20, diversity: 1, multiplicities: 6, labels: 1">
<ellipse fill="#fcc4ad" stroke="black" cx="454.596" cy="-234" rx="41.6928" ry="18"/>
<text text-anchor="middle" x="454.596" y="-230.3" font-family="Times,serif" font-size="14.00">20 (1): 1</text>
</a>
</g>
</g>
<!-- 7&#45;&gt;20 -->
<g id="edge28" class="edge"><title>7&#45;&gt;20</title>
<path fill="none" stroke="black" d="M507.593,-288.765C498.71,-279.753 487.505,-268.385 477.688,-258.426"/>
<polygon fill="black" stroke="black" points="480.026,-255.812 470.513,-251.147 475.04,-260.726 480.026,-255.812"/>
</g>
<!-- 22 -->
<g id="node23" class="node"><title>22</title>
<g id="a_node23"><a xlink:title="22, diversity: 1, multiplicities: 3, labels: 1">
<ellipse fill="#fee3d6" stroke="black" cx="757.596" cy="-234" rx="41.6928" ry="18"/>
<text text-anchor="middle" x="757.596" y="-230.3" font-family="Times,serif" font-size="14.00">22 (1): 1</text>
</a>
</g>
</g>
<!-- 7&#45;&gt;22 -->
<g id="edge21" class="edge"><title>7&#45;&gt;22</title>
<path fill="none" stroke="black" d="M564.687,-293.764C602.087,-283.395 658.751,-267.329 707.596,-252 710.52,-251.082 713.533,-250.115 716.561,-249.126"/>
<polygon fill="black" stroke="black" points="717.808,-252.399 726.198,-245.928 715.604,-245.755 717.808,-252.399"/>
</g>
<!-- 35 -->
<g id="node36" class="node"><title>35</title>
<g id="a_node36"><a xlink:title="35, diversity: 2, multiplicities: 1,22, labels: 1">
<ellipse fill="#fca082" stroke="black" cx="555.596" cy="-234" rx="41.6928" ry="18"/>
<text text-anchor="middle" x="555.596" y="-230.3" font-family="Times,serif" font-size="14.00">35 (2): 1</text>
</a>
</g>
</g>
<!-- 7&#45;&gt;35 -->
<g id="edge36" class="edge"><title>7&#45;&gt;35</title>
<path fill="none" stroke="black" d="M531.343,-288.055C535.037,-279.973 539.541,-270.121 543.66,-261.112"/>
<polygon fill="black" stroke="black" points="546.947,-262.339 547.921,-251.789 540.581,-259.429 546.947,-262.339"/>
</g>
<!-- 8 -->
<g id="node9" class="node"><title>8</title>
<g id="a_node9"><a xlink:title="8, diversity: 1, multiplicities: 6, labels: 1,3">
<ellipse fill="#fcc4ad" stroke="black" cx="824.596" cy="-882" rx="44.393" ry="18"/>
<text text-anchor="middle" x="824.596" y="-878.3" font-family="Times,serif" font-size="14.00">8 (1): 1,3</text>
</a>
</g>
</g>
<!-- 19 -->
<g id="node20" class="node"><title>19</title>
<g id="a_node20"><a xlink:title="19, diversity: 1, multiplicities: 13, labels: 1">
<ellipse fill="#fca082" stroke="black" cx="824.596" cy="-810" rx="41.6928" ry="18"/>
<text text-anchor="middle" x="824.596" y="-806.3" font-family="Times,serif" font-size="14.00">19 (1): 1</text>
</a>
</g>
</g>
<!-- 8&#45;&gt;19 -->
<g id="edge10" class="edge"><title>8&#45;&gt;19</title>
<path fill="none" stroke="black" d="M824.596,-863.697C824.596,-855.983 824.596,-846.712 824.596,-838.112"/>
<polygon fill="black" stroke="black" points="828.096,-838.104 824.596,-828.104 821.096,-838.104 828.096,-838.104"/>
</g>
<!-- 9 -->
<g id="node10" class="node"><title>9</title>
<g id="a_node10"><a xlink:title="9, diversity: 2, multiplicities: 11,208, labels: 1,0,3,2">
<ellipse fill="#f6553c" stroke="black" cx="159.596" cy="-18" rx="57.6901" ry="18"/>
<text text-anchor="middle" x="159.596" y="-14.3" font-family="Times,serif" font-size="14.00">9 (2): 1,0,3,2</text>
</a>
</g>
</g>
<!-- 10 -->
<g id="node11" class="node"><title>10</title>
<g id="a_node11"><a xlink:title="10, diversity: 1, multiplicities: 11, labels: 1">
<ellipse fill="#fca082" stroke="black" cx="440.596" cy="-738" rx="41.6928" ry="18"/>
<text text-anchor="middle" x="440.596" y="-734.3" font-family="Times,serif" font-size="14.00">10 (1): 1</text>
</a>
</g>
</g>
<!-- 10&#45;&gt;0 -->
<g id="edge25" class="edge"><title>10&#45;&gt;0</title>
<path fill="none" stroke="black" d="M417.729,-722.834C400.992,-712.466 378.064,-698.263 359.521,-686.777"/>
<polygon fill="black" stroke="black" points="361.162,-683.676 350.817,-681.385 357.475,-689.626 361.162,-683.676"/>
</g>
<!-- 11 -->
<g id="node12" class="node"><title>11</title>
<g id="a_node12"><a xlink:title="11, diversity: 3, multiplicities: 5,6,11, labels: 1,3">
<ellipse fill="#fca082" stroke="black" cx="440.596" cy="-666" rx="48.1917" ry="18"/>
<text text-anchor="middle" x="440.596" y="-662.3" font-family="Times,serif" font-size="14.00">11 (3): 1,3</text>
</a>
</g>
</g>
<!-- 10&#45;&gt;11 -->
<g id="edge2" class="edge"><title>10&#45;&gt;11</title>
<path fill="none" stroke="black" d="M440.596,-719.697C440.596,-711.983 440.596,-702.712 440.596,-694.112"/>
<polygon fill="black" stroke="black" points="444.096,-694.104 440.596,-684.104 437.096,-694.104 444.096,-694.104"/>
</g>
<!-- 11&#45;&gt;2 -->
<g id="edge5" class="edge"><title>11&#45;&gt;2</title>
<path fill="none" stroke="black" d="M440.596,-647.697C440.596,-639.983 440.596,-630.712 440.596,-622.112"/>
<polygon fill="black" stroke="black" points="444.096,-622.104 440.596,-612.104 437.096,-622.104 444.096,-622.104"/>
</g>
<!-- 25 -->
<g id="node26" class="node"><title>25</title>
<g id="a_node26"><a xlink:title="25, diversity: 2, multiplicities: 2,3, labels: 1,0">
<ellipse fill="#fee3d6" stroke="black" cx="159.596" cy="-90" rx="48.1917" ry="18"/>
<text text-anchor="middle" x="159.596" y="-86.3" font-family="Times,serif" font-size="14.00">25 (2): 1,0</text>
</a>
</g>
</g>
<!-- 12&#45;&gt;25 -->
<g id="edge29" class="edge"><title>12&#45;&gt;25</title>
<path fill="none" stroke="black" d="M153.718,-144.055C152.9,-136.346 152.658,-127.027 152.991,-118.364"/>
<polygon fill="black" stroke="black" points="156.491,-118.491 153.683,-108.275 149.507,-118.012 156.491,-118.491"/>
</g>
<!-- 13 -->
<g id="node14" class="node"><title>13</title>
<g id="a_node14"><a xlink:title="13, diversity: 2, multiplicities: 1,6, labels: 1">
<ellipse fill="#fcc4ad" stroke="black" cx="656.596" cy="-234" rx="41.6928" ry="18"/>
<text text-anchor="middle" x="656.596" y="-230.3" font-family="Times,serif" font-size="14.00">13 (2): 1</text>
</a>
</g>
</g>
<!-- 14 -->
<g id="node15" class="node"><title>14</title>
<g id="a_node15"><a xlink:title="14, diversity: 1, multiplicities: 13, labels: 1">
<ellipse fill="#fca082" stroke="black" cx="369.596" cy="-306" rx="41.6928" ry="18"/>
<text text-anchor="middle" x="369.596" y="-302.3" font-family="Times,serif" font-size="14.00">14 (1): 1</text>
</a>
</g>
</g>
<!-- 15&#45;&gt;18 -->
<g id="edge22" class="edge"><title>15&#45;&gt;18</title>
<path fill="none" stroke="black" d="M227.81,-222.52C189.478,-210.268 125.94,-189.959 83.9168,-176.527"/>
<polygon fill="black" stroke="black" points="84.8397,-173.148 74.2488,-173.437 82.7084,-179.815 84.8397,-173.148"/>
</g>
<!-- 31 -->
<g id="node32" class="node"><title>31</title>
<g id="a_node32"><a xlink:title="31, diversity: 1, multiplicities: 1, labels: 1">
<ellipse fill="#fff5f0" stroke="black" cx="361.596" cy="-162" rx="41.6928" ry="18"/>
<text text-anchor="middle" x="361.596" y="-158.3" font-family="Times,serif" font-size="14.00">31 (1): 1</text>
</a>
</g>
</g>
<!-- 15&#45;&gt;31 -->
<g id="edge6" class="edge"><title>15&#45;&gt;31</title>
<path fill="none" stroke="black" d="M282.016,-218.155C296.575,-208.064 316.027,-194.583 332.055,-183.474"/>
<polygon fill="black" stroke="black" points="334.329,-186.157 340.554,-177.584 330.341,-180.403 334.329,-186.157"/>
</g>
<!-- 38 -->
<g id="node39" class="node"><title>38</title>
<g id="a_node39"><a xlink:title="38, diversity: 1, multiplicities: 15, labels: 1">
<ellipse fill="#fca082" stroke="black" cx="260.596" cy="-162" rx="41.6928" ry="18"/>
<text text-anchor="middle" x="260.596" y="-158.3" font-family="Times,serif" font-size="14.00">38 (1): 1</text>
</a>
</g>
</g>
<!-- 15&#45;&gt;38 -->
<g id="edge42" class="edge"><title>15&#45;&gt;38</title>
<path fill="none" stroke="black" d="M260.596,-215.697C260.596,-207.983 260.596,-198.712 260.596,-190.112"/>
<polygon fill="black" stroke="black" points="264.096,-190.104 260.596,-180.104 257.096,-190.104 264.096,-190.104"/>
</g>
<!-- 16 -->
<g id="node17" class="node"><title>16</title>
<g id="a_node17"><a xlink:title="16, diversity: 1, multiplicities: 1, labels: 1">
<ellipse fill="#fff5f0" stroke="black" cx="824.596" cy="-666" rx="41.6928" ry="18"/>
<text text-anchor="middle" x="824.596" y="-662.3" font-family="Times,serif" font-size="14.00">16 (1): 1</text>
</a>
</g>
</g>
<!-- 28 -->
<g id="node29" class="node"><title>28</title>
<g id="a_node29"><a xlink:title="28, diversity: 1, multiplicities: 2, labels: 1">
<ellipse fill="#fee3d6" stroke="black" cx="824.596" cy="-594" rx="41.6928" ry="18"/>
<text text-anchor="middle" x="824.596" y="-590.3" font-family="Times,serif" font-size="14.00">28 (1): 1</text>
</a>
</g>
</g>
<!-- 16&#45;&gt;28 -->
<g id="edge8" class="edge"><title>16&#45;&gt;28</title>
<path fill="none" stroke="black" d="M824.596,-647.697C824.596,-639.983 824.596,-630.712 824.596,-622.112"/>
<polygon fill="black" stroke="black" points="828.096,-622.104 824.596,-612.104 821.096,-622.104 828.096,-622.104"/>
</g>
<!-- 18&#45;&gt;1 -->
<g id="edge15" class="edge"><title>18&#45;&gt;1</title>
<path fill="none" stroke="black" d="M47.3087,-180.049C50.5963,-206.708 50.5963,-259.885 50.5963,-305 50.5963,-379 50.5963,-379 50.5963,-379 50.5963,-420.467 47.3074,-440.788 78.5963,-468 115.465,-500.065 250.254,-513.063 328.845,-518.074"/>
<polygon fill="black" stroke="black" points="328.882,-521.583 339.077,-518.702 329.311,-514.596 328.882,-521.583"/>
</g>
<!-- 32 -->
<g id="node33" class="node"><title>32</title>
<g id="a_node33"><a xlink:title="32, diversity: 1, multiplicities: 1, labels: 1">
<ellipse fill="#fff5f0" stroke="black" cx="824.596" cy="-738" rx="41.6928" ry="18"/>
<text text-anchor="middle" x="824.596" y="-734.3" font-family="Times,serif" font-size="14.00">32 (1): 1</text>
</a>
</g>
</g>
<!-- 19&#45;&gt;32 -->
<g id="edge24" class="edge"><title>19&#45;&gt;32</title>
<path fill="none" stroke="black" d="M824.596,-791.697C824.596,-783.983 824.596,-774.712 824.596,-766.112"/>
<polygon fill="black" stroke="black" points="828.096,-766.104 824.596,-756.104 821.096,-766.104 828.096,-766.104"/>
</g>
<!-- 34 -->
<g id="node35" class="node"><title>34</title>
<g id="a_node35"><a xlink:title="34, diversity: 1, multiplicities: 5, labels: 1">
<ellipse fill="#fee3d6" stroke="black" cx="659.596" cy="-306" rx="41.6928" ry="18"/>
<text text-anchor="middle" x="659.596" y="-302.3" font-family="Times,serif" font-size="14.00">34 (1): 1</text>
</a>
</g>
</g>
<!-- 21&#45;&gt;34 -->
<g id="edge17" class="edge"><title>21&#45;&gt;34</title>
<path fill="none" stroke="black" d="M664.113,-359.697C663.452,-351.983 662.657,-342.712 661.92,-334.112"/>
<polygon fill="black" stroke="black" points="665.404,-333.769 661.062,-324.104 658.429,-334.367 665.404,-333.769"/>
</g>
<!-- 22&#45;&gt;10 -->
<g id="edge26" class="edge"><title>22&#45;&gt;10</title>
<path fill="none" stroke="black" d="M757.004,-252.047C756.129,-278.703 754.596,-331.875 754.596,-377 754.596,-595 754.596,-595 754.596,-595 754.596,-708.662 581.672,-731.828 492.478,-736.217"/>
<polygon fill="black" stroke="black" points="492.134,-732.729 482.293,-736.655 492.434,-739.722 492.134,-732.729"/>
</g>
<!-- 23 -->
<g id="node24" class="node"><title>23</title>
<g id="a_node24"><a xlink:title="23, diversity: 2, multiplicities: 4,17, labels: 1">
<ellipse fill="#fca082" stroke="black" cx="369.596" cy="-378" rx="41.6928" ry="18"/>
<text text-anchor="middle" x="369.596" y="-374.3" font-family="Times,serif" font-size="14.00">23 (2): 1</text>
</a>
</g>
</g>
<!-- 23&#45;&gt;3 -->
<g id="edge9" class="edge"><title>23&#45;&gt;3</title>
<path fill="none" stroke="black" d="M347.276,-362.666C331.046,-352.243 308.884,-338.011 291.033,-326.546"/>
<polygon fill="black" stroke="black" points="292.45,-323.297 282.144,-320.838 288.667,-329.187 292.45,-323.297"/>
</g>
<!-- 23&#45;&gt;14 -->
<g id="edge31" class="edge"><title>23&#45;&gt;14</title>
<path fill="none" stroke="black" d="M369.596,-359.697C369.596,-351.983 369.596,-342.712 369.596,-334.112"/>
<polygon fill="black" stroke="black" points="373.096,-334.104 369.596,-324.104 366.096,-334.104 373.096,-334.104"/>
</g>
<!-- 24 -->
<g id="node25" class="node"><title>24</title>
<g id="a_node25"><a xlink:title="24, diversity: 1, multiplicities: 2, labels: 1">
<ellipse fill="#fee3d6" stroke="black" cx="511.596" cy="-378" rx="41.6928" ry="18"/>
<text text-anchor="middle" x="511.596" y="-374.3" font-family="Times,serif" font-size="14.00">24 (1): 1</text>
</a>
</g>
</g>
<!-- 24&#45;&gt;7 -->
<g id="edge38" class="edge"><title>24&#45;&gt;7</title>
<path fill="none" stroke="black" d="M514.563,-359.697C515.885,-351.983 517.474,-342.712 518.948,-334.112"/>
<polygon fill="black" stroke="black" points="522.424,-334.552 520.664,-324.104 515.525,-333.369 522.424,-334.552"/>
</g>
<!-- 25&#45;&gt;9 -->
<g id="edge46" class="edge"><title>25&#45;&gt;9</title>
<path fill="none" stroke="black" d="M159.596,-71.6966C159.596,-63.9827 159.596,-54.7125 159.596,-46.1124"/>
<polygon fill="black" stroke="black" points="163.096,-46.1043 159.596,-36.1043 156.096,-46.1044 163.096,-46.1043"/>
</g>
<!-- 25&#45;&gt;12 -->
<g id="edge34" class="edge"><title>25&#45;&gt;12</title>
<path fill="none" stroke="black" d="M165.509,-108.275C166.311,-116.03 166.537,-125.362 166.187,-134.005"/>
<polygon fill="black" stroke="black" points="162.69,-133.832 165.475,-144.055 169.673,-134.327 162.69,-133.832"/>
</g>
<!-- 29 -->
<g id="node30" class="node"><title>29</title>
<g id="a_node30"><a xlink:title="29, diversity: 1, multiplicities: 7, labels: 1">
<ellipse fill="#fcc4ad" stroke="black" cx="824.596" cy="-522" rx="41.6928" ry="18"/>
<text text-anchor="middle" x="824.596" y="-518.3" font-family="Times,serif" font-size="14.00">29 (1): 1</text>
</a>
</g>
</g>
<!-- 28&#45;&gt;29 -->
<g id="edge18" class="edge"><title>28&#45;&gt;29</title>
<path fill="none" stroke="black" d="M824.596,-575.697C824.596,-567.983 824.596,-558.712 824.596,-550.112"/>
<polygon fill="black" stroke="black" points="828.096,-550.104 824.596,-540.104 821.096,-550.104 828.096,-550.104"/>
</g>
<!-- 29&#45;&gt;6 -->
<g id="edge35" class="edge"><title>29&#45;&gt;6</title>
<path fill="none" stroke="black" d="M796.707,-508.485C772.482,-497.616 737.076,-481.728 709.621,-469.408"/>
<polygon fill="black" stroke="black" points="710.829,-466.114 700.272,-465.214 707.963,-472.501 710.829,-466.114"/>
</g>
<!-- 30&#45;&gt;23 -->
<g id="edge4" class="edge"><title>30&#45;&gt;23</title>
<path fill="none" stroke="black" d="M421.393,-433.116C412.655,-423.987 401.522,-412.355 391.818,-402.217"/>
<polygon fill="black" stroke="black" points="394.183,-399.625 384.739,-394.821 389.126,-404.466 394.183,-399.625"/>
</g>
<!-- 30&#45;&gt;24 -->
<g id="edge27" class="edge"><title>30&#45;&gt;24</title>
<path fill="none" stroke="black" d="M453.241,-433.465C463.269,-424.105 476.215,-412.022 487.365,-401.616"/>
<polygon fill="black" stroke="black" points="489.816,-404.116 494.739,-394.734 485.04,-398.998 489.816,-404.116"/>
</g>
<!-- 31&#45;&gt;25 -->
<g id="edge23" class="edge"><title>31&#45;&gt;25</title>
<path fill="none" stroke="black" d="M330.034,-150.062C296.013,-138.273 241.619,-119.424 203.452,-106.197"/>
<polygon fill="black" stroke="black" points="204.229,-102.763 193.634,-102.795 201.937,-109.377 204.229,-102.763"/>
</g>
<!-- 32&#45;&gt;16 -->
<g id="edge19" class="edge"><title>32&#45;&gt;16</title>
<path fill="none" stroke="black" d="M824.596,-719.697C824.596,-711.983 824.596,-702.712 824.596,-694.112"/>
<polygon fill="black" stroke="black" points="828.096,-694.104 824.596,-684.104 821.096,-694.104 828.096,-694.104"/>
</g>
<!-- 33&#45;&gt;5 -->
<g id="edge30" class="edge"><title>33&#45;&gt;5</title>
<path fill="none" stroke="black" d="M234.596,-431.697C234.596,-423.983 234.596,-414.712 234.596,-406.112"/>
<polygon fill="black" stroke="black" points="238.096,-406.104 234.596,-396.104 231.096,-406.104 238.096,-406.104"/>
</g>
<!-- 34&#45;&gt;13 -->
<g id="edge20" class="edge"><title>34&#45;&gt;13</title>
<path fill="none" stroke="black" d="M658.855,-287.697C658.524,-279.983 658.127,-270.712 657.758,-262.112"/>
<polygon fill="black" stroke="black" points="661.254,-261.945 657.329,-252.104 654.261,-262.245 661.254,-261.945"/>
</g>
</g>
</svg>
