<?xml version="1.0" encoding="UTF-8" standalone="no"?>
<!DOCTYPE svg PUBLIC "-//W3C//DTD SVG 1.1//EN"
 "http://www.w3.org/Graphics/SVG/1.1/DTD/svg11.dtd">
<!-- Generated by graphviz version 2.38.0 (20140413.2041)
 -->
<!-- Title: %3 Pages: 1 -->
<svg width="497pt" height="692pt"
 viewBox="0.00 0.00 496.79 692.00" xmlns="http://www.w3.org/2000/svg" xmlns:xlink="http://www.w3.org/1999/xlink">
<g id="graph0" class="graph" transform="scale(1 1) rotate(0) translate(4 688)">
<title>%3</title>
<polygon fill="white" stroke="none" points="-4,4 -4,-688 492.792,-688 492.792,4 -4,4"/>
<!-- 0 -->
<g id="node1" class="node"><title>0</title>
<g id="a_node1"><a xlink:title="0, diversity: 1, multiplicities: 5, labels: 1">
<ellipse fill="#fee3d6" stroke="black" cx="44.1961" cy="-234" rx="37.0935" ry="18"/>
<text text-anchor="middle" x="44.1961" y="-230.3" font-family="Times,serif" font-size="14.00">0 (1): 1</text>
</a>
</g>
</g>
<!-- 5 -->
<g id="node6" class="node"><title>5</title>
<g id="a_node6"><a xlink:title="5, diversity: 2, multiplicities: 5,17, labels: 1,0">
<ellipse fill="#fca082" stroke="black" cx="44.1961" cy="-162" rx="44.393" ry="18"/>
<text text-anchor="middle" x="44.1961" y="-158.3" font-family="Times,serif" font-size="14.00">5 (2): 1,0</text>
</a>
</g>
</g>
<!-- 0&#45;&gt;5 -->
<g id="edge15" class="edge"><title>0&#45;&gt;5</title>
<path fill="none" stroke="black" d="M44.1961,-215.697C44.1961,-207.983 44.1961,-198.712 44.1961,-190.112"/>
<polygon fill="black" stroke="black" points="47.6962,-190.104 44.1961,-180.104 40.6962,-190.104 47.6962,-190.104"/>
</g>
<!-- 1 -->
<g id="node2" class="node"><title>1</title>
<g id="a_node2"><a xlink:title="1, diversity: 4, multiplicities: 2,4,18,1349, labels: 1,0,3,2">
<ellipse fill="#c2161b" stroke="black" cx="242.196" cy="-306" rx="57.6901" ry="18"/>
<text text-anchor="middle" x="242.196" y="-302.3" font-family="Times,serif" font-size="14.00">1 (4): 1,0,3,2</text>
</a>
</g>
</g>
<!-- 1&#45;&gt;0 -->
<g id="edge7" class="edge"><title>1&#45;&gt;0</title>
<path fill="none" stroke="black" d="M204.649,-292.124C173.844,-281.509 129.124,-265.979 90.1961,-252 87.6544,-251.087 85.0364,-250.14 82.4,-249.18"/>
<polygon fill="black" stroke="black" points="83.4696,-245.845 72.8759,-245.692 81.0623,-252.418 83.4696,-245.845"/>
</g>
<!-- 4 -->
<g id="node5" class="node"><title>4</title>
<g id="a_node5"><a xlink:title="4, diversity: 1, multiplicities: 48, labels: 1,2">
<ellipse fill="#fca082" stroke="black" cx="143.196" cy="-234" rx="44.393" ry="18"/>
<text text-anchor="middle" x="143.196" y="-230.3" font-family="Times,serif" font-size="14.00">4 (1): 1,2</text>
</a>
</g>
</g>
<!-- 1&#45;&gt;4 -->
<g id="edge13" class="edge"><title>1&#45;&gt;4</title>
<path fill="none" stroke="black" d="M219.731,-289.116C205.806,-279.27 187.763,-266.512 172.693,-255.857"/>
<polygon fill="black" stroke="black" points="174.404,-252.779 164.218,-249.864 170.362,-258.495 174.404,-252.779"/>
</g>
<!-- 6 -->
<g id="node7" class="node"><title>6</title>
<g id="a_node7"><a xlink:title="6, diversity: 1, multiplicities: 1, labels: 1">
<ellipse fill="#fff5f0" stroke="black" cx="242.196" cy="-234" rx="37.0935" ry="18"/>
<text text-anchor="middle" x="242.196" y="-230.3" font-family="Times,serif" font-size="14.00">6 (1): 1</text>
</a>
</g>
</g>
<!-- 1&#45;&gt;6 -->
<g id="edge4" class="edge"><title>1&#45;&gt;6</title>
<path fill="none" stroke="black" d="M242.196,-287.697C242.196,-279.983 242.196,-270.712 242.196,-262.112"/>
<polygon fill="black" stroke="black" points="245.696,-262.104 242.196,-252.104 238.696,-262.104 245.696,-262.104"/>
</g>
<!-- 18 -->
<g id="node19" class="node"><title>18</title>
<g id="a_node19"><a xlink:title="18, diversity: 2, multiplicities: 2,2, labels: 1">
<ellipse fill="#fee3d6" stroke="black" cx="342.196" cy="-234" rx="41.6928" ry="18"/>
<text text-anchor="middle" x="342.196" y="-230.3" font-family="Times,serif" font-size="14.00">18 (2): 1</text>
</a>
</g>
</g>
<!-- 1&#45;&gt;18 -->
<g id="edge22" class="edge"><title>1&#45;&gt;18</title>
<path fill="none" stroke="black" d="M264.888,-289.116C279.05,-279.202 297.429,-266.337 312.713,-255.638"/>
<polygon fill="black" stroke="black" points="315.114,-258.23 321.299,-249.628 311.1,-252.495 315.114,-258.23"/>
</g>
<!-- 24 -->
<g id="node25" class="node"><title>24</title>
<g id="a_node25"><a xlink:title="24, diversity: 1, multiplicities: 1, labels: 1">
<ellipse fill="#fff5f0" stroke="black" cx="445.196" cy="-234" rx="41.6928" ry="18"/>
<text text-anchor="middle" x="445.196" y="-230.3" font-family="Times,serif" font-size="14.00">24 (1): 1</text>
</a>
</g>
</g>
<!-- 1&#45;&gt;24 -->
<g id="edge11" class="edge"><title>1&#45;&gt;24</title>
<path fill="none" stroke="black" d="M279.429,-292.161C314.583,-280.039 367.21,-261.892 403.698,-249.31"/>
<polygon fill="black" stroke="black" points="405.22,-252.487 413.533,-245.918 402.938,-245.869 405.22,-252.487"/>
</g>
<!-- 2 -->
<g id="node3" class="node"><title>2</title>
<g id="a_node3"><a xlink:title="2, diversity: 1, multiplicities: 6, labels: 1">
<ellipse fill="#fcc4ad" stroke="black" cx="143.196" cy="-162" rx="37.0935" ry="18"/>
<text text-anchor="middle" x="143.196" y="-158.3" font-family="Times,serif" font-size="14.00">2 (1): 1</text>
</a>
</g>
</g>
<!-- 3 -->
<g id="node4" class="node"><title>3</title>
<g id="a_node4"><a xlink:title="3, diversity: 2, multiplicities: 6,38, labels: 1">
<ellipse fill="#fca082" stroke="black" cx="447.196" cy="-90" rx="37.0935" ry="18"/>
<text text-anchor="middle" x="447.196" y="-86.3" font-family="Times,serif" font-size="14.00">3 (2): 1</text>
</a>
</g>
</g>
<!-- 4&#45;&gt;2 -->
<g id="edge16" class="edge"><title>4&#45;&gt;2</title>
<path fill="none" stroke="black" d="M143.196,-215.697C143.196,-207.983 143.196,-198.712 143.196,-190.112"/>
<polygon fill="black" stroke="black" points="146.696,-190.104 143.196,-180.104 139.696,-190.104 146.696,-190.104"/>
</g>
<!-- 8 -->
<g id="node9" class="node"><title>8</title>
<g id="a_node9"><a xlink:title="8, diversity: 2, multiplicities: 3,7, labels: 1,3">
<ellipse fill="#fcc4ad" stroke="black" cx="242.196" cy="-162" rx="44.393" ry="18"/>
<text text-anchor="middle" x="242.196" y="-158.3" font-family="Times,serif" font-size="14.00">8 (2): 1,3</text>
</a>
</g>
</g>
<!-- 6&#45;&gt;8 -->
<g id="edge20" class="edge"><title>6&#45;&gt;8</title>
<path fill="none" stroke="black" d="M242.196,-215.697C242.196,-207.983 242.196,-198.712 242.196,-190.112"/>
<polygon fill="black" stroke="black" points="245.696,-190.104 242.196,-180.104 238.696,-190.104 245.696,-190.104"/>
</g>
<!-- 7 -->
<g id="node8" class="node"><title>7</title>
<g id="a_node8"><a xlink:title="7, diversity: 1, multiplicities: 7, labels: 1">
<ellipse fill="#fcc4ad" stroke="black" cx="168.196" cy="-594" rx="37.0935" ry="18"/>
<text text-anchor="middle" x="168.196" y="-590.3" font-family="Times,serif" font-size="14.00">7 (1): 1</text>
</a>
</g>
</g>
<!-- 11 -->
<g id="node12" class="node"><title>11</title>
<g id="a_node12"><a xlink:title="11, diversity: 1, multiplicities: 6, labels: 1">
<ellipse fill="#fcc4ad" stroke="black" cx="141.196" cy="-522" rx="41.6928" ry="18"/>
<text text-anchor="middle" x="141.196" y="-518.3" font-family="Times,serif" font-size="14.00">11 (1): 1</text>
</a>
</g>
</g>
<!-- 7&#45;&gt;11 -->
<g id="edge6" class="edge"><title>7&#45;&gt;11</title>
<path fill="none" stroke="black" d="M161.66,-576.055C158.576,-568.059 154.824,-558.331 151.379,-549.4"/>
<polygon fill="black" stroke="black" points="154.536,-547.859 147.672,-539.789 148.005,-550.379 154.536,-547.859"/>
</g>
<!-- 9 -->
<g id="node10" class="node"><title>9</title>
<g id="a_node10"><a xlink:title="9, diversity: 1, multiplicities: 82, labels: 1">
<ellipse fill="#fca082" stroke="black" cx="242.196" cy="-378" rx="37.0935" ry="18"/>
<text text-anchor="middle" x="242.196" y="-374.3" font-family="Times,serif" font-size="14.00">9 (1): 1</text>
</a>
</g>
</g>
<!-- 9&#45;&gt;1 -->
<g id="edge2" class="edge"><title>9&#45;&gt;1</title>
<path fill="none" stroke="black" d="M242.196,-359.697C242.196,-351.983 242.196,-342.712 242.196,-334.112"/>
<polygon fill="black" stroke="black" points="245.696,-334.104 242.196,-324.104 238.696,-334.104 245.696,-334.104"/>
</g>
<!-- 10 -->
<g id="node11" class="node"><title>10</title>
<g id="a_node11"><a xlink:title="10, diversity: 2, multiplicities: 1,1, labels: 1">
<ellipse fill="#fee3d6" stroke="black" cx="267.196" cy="-594" rx="41.6928" ry="18"/>
<text text-anchor="middle" x="267.196" y="-590.3" font-family="Times,serif" font-size="14.00">10 (2): 1</text>
</a>
</g>
</g>
<!-- 14 -->
<g id="node15" class="node"><title>14</title>
<g id="a_node15"><a xlink:title="14, diversity: 1, multiplicities: 1, labels: 1">
<ellipse fill="#fff5f0" stroke="black" cx="242.196" cy="-522" rx="41.6928" ry="18"/>
<text text-anchor="middle" x="242.196" y="-518.3" font-family="Times,serif" font-size="14.00">14 (1): 1</text>
</a>
</g>
</g>
<!-- 10&#45;&gt;14 -->
<g id="edge23" class="edge"><title>10&#45;&gt;14</title>
<path fill="none" stroke="black" d="M261.144,-576.055C258.33,-568.176 254.916,-558.617 251.765,-549.794"/>
<polygon fill="black" stroke="black" points="255.025,-548.516 248.366,-540.275 248.433,-550.87 255.025,-548.516"/>
</g>
<!-- 20 -->
<g id="node21" class="node"><title>20</title>
<g id="a_node21"><a xlink:title="20, diversity: 1, multiplicities: 7, labels: 1">
<ellipse fill="#fcc4ad" stroke="black" cx="343.196" cy="-522" rx="41.6928" ry="18"/>
<text text-anchor="middle" x="343.196" y="-518.3" font-family="Times,serif" font-size="14.00">20 (1): 1</text>
</a>
</g>
</g>
<!-- 10&#45;&gt;20 -->
<g id="edge24" class="edge"><title>10&#45;&gt;20</title>
<path fill="none" stroke="black" d="M284.063,-577.465C294.296,-568.04 307.527,-555.853 318.878,-545.398"/>
<polygon fill="black" stroke="black" points="321.392,-547.841 326.376,-538.492 316.65,-542.692 321.392,-547.841"/>
</g>
<!-- 12 -->
<g id="node13" class="node"><title>12</title>
<g id="a_node13"><a xlink:title="12, diversity: 1, multiplicities: 6, labels: 1">
<ellipse fill="#fcc4ad" stroke="black" cx="267.196" cy="-666" rx="41.6928" ry="18"/>
<text text-anchor="middle" x="267.196" y="-662.3" font-family="Times,serif" font-size="14.00">12 (1): 1</text>
</a>
</g>
</g>
<!-- 12&#45;&gt;7 -->
<g id="edge12" class="edge"><title>12&#45;&gt;7</title>
<path fill="none" stroke="black" d="M246.201,-650.155C231.834,-639.996 212.607,-626.401 196.837,-615.251"/>
<polygon fill="black" stroke="black" points="198.67,-612.261 188.484,-609.345 194.629,-617.976 198.67,-612.261"/>
</g>
<!-- 12&#45;&gt;10 -->
<g id="edge10" class="edge"><title>12&#45;&gt;10</title>
<path fill="none" stroke="black" d="M267.196,-647.697C267.196,-639.983 267.196,-630.712 267.196,-622.112"/>
<polygon fill="black" stroke="black" points="270.696,-622.104 267.196,-612.104 263.696,-622.104 270.696,-622.104"/>
</g>
<!-- 13 -->
<g id="node14" class="node"><title>13</title>
<g id="a_node14"><a xlink:title="13, diversity: 1, multiplicities: 1, labels: 1">
<ellipse fill="#fff5f0" stroke="black" cx="418.196" cy="-594" rx="41.6928" ry="18"/>
<text text-anchor="middle" x="418.196" y="-590.3" font-family="Times,serif" font-size="14.00">13 (1): 1</text>
</a>
</g>
</g>
<!-- 12&#45;&gt;13 -->
<g id="edge8" class="edge"><title>12&#45;&gt;13</title>
<path fill="none" stroke="black" d="M294.541,-652.324C318.945,-641.01 354.869,-624.357 381.716,-611.911"/>
<polygon fill="black" stroke="black" points="383.199,-615.082 390.8,-607.7 380.255,-608.731 383.199,-615.082"/>
</g>
<!-- 23 -->
<g id="node24" class="node"><title>23</title>
<g id="a_node24"><a xlink:title="23, diversity: 1, multiplicities: 2, labels: 1">
<ellipse fill="#fee3d6" stroke="black" cx="444.196" cy="-522" rx="41.6928" ry="18"/>
<text text-anchor="middle" x="444.196" y="-518.3" font-family="Times,serif" font-size="14.00">23 (1): 1</text>
</a>
</g>
</g>
<!-- 13&#45;&gt;23 -->
<g id="edge19" class="edge"><title>13&#45;&gt;23</title>
<path fill="none" stroke="black" d="M424.49,-576.055C427.416,-568.176 430.967,-558.617 434.244,-549.794"/>
<polygon fill="black" stroke="black" points="437.579,-550.868 437.78,-540.275 431.017,-548.431 437.579,-550.868"/>
</g>
<!-- 17 -->
<g id="node18" class="node"><title>17</title>
<g id="a_node18"><a xlink:title="17, diversity: 1, multiplicities: 1, labels: 1">
<ellipse fill="#fff5f0" stroke="black" cx="242.196" cy="-450" rx="41.6928" ry="18"/>
<text text-anchor="middle" x="242.196" y="-446.3" font-family="Times,serif" font-size="14.00">17 (1): 1</text>
</a>
</g>
</g>
<!-- 14&#45;&gt;17 -->
<g id="edge1" class="edge"><title>14&#45;&gt;17</title>
<path fill="none" stroke="black" d="M242.196,-503.697C242.196,-495.983 242.196,-486.712 242.196,-478.112"/>
<polygon fill="black" stroke="black" points="245.696,-478.104 242.196,-468.104 238.696,-478.104 245.696,-478.104"/>
</g>
<!-- 15 -->
<g id="node16" class="node"><title>15</title>
<g id="a_node16"><a xlink:title="15, diversity: 1, multiplicities: 1, labels: 1">
<ellipse fill="#fff5f0" stroke="black" cx="346.196" cy="-90" rx="41.6928" ry="18"/>
<text text-anchor="middle" x="346.196" y="-86.3" font-family="Times,serif" font-size="14.00">15 (1): 1</text>
</a>
</g>
</g>
<!-- 19 -->
<g id="node20" class="node"><title>19</title>
<g id="a_node20"><a xlink:title="19, diversity: 1, multiplicities: 5, labels: 1">
<ellipse fill="#fee3d6" stroke="black" cx="346.196" cy="-18" rx="41.6928" ry="18"/>
<text text-anchor="middle" x="346.196" y="-14.3" font-family="Times,serif" font-size="14.00">19 (1): 1</text>
</a>
</g>
</g>
<!-- 15&#45;&gt;19 -->
<g id="edge5" class="edge"><title>15&#45;&gt;19</title>
<path fill="none" stroke="black" d="M346.196,-71.6966C346.196,-63.9827 346.196,-54.7125 346.196,-46.1124"/>
<polygon fill="black" stroke="black" points="349.696,-46.1043 346.196,-36.1043 342.696,-46.1044 349.696,-46.1043"/>
</g>
<!-- 16 -->
<g id="node17" class="node"><title>16</title>
<g id="a_node17"><a xlink:title="16, diversity: 1, multiplicities: 2, labels: 1">
<ellipse fill="#fee3d6" stroke="black" cx="447.196" cy="-162" rx="41.6928" ry="18"/>
<text text-anchor="middle" x="447.196" y="-158.3" font-family="Times,serif" font-size="14.00">16 (1): 1</text>
</a>
</g>
</g>
<!-- 16&#45;&gt;3 -->
<g id="edge9" class="edge"><title>16&#45;&gt;3</title>
<path fill="none" stroke="black" d="M447.196,-143.697C447.196,-135.983 447.196,-126.712 447.196,-118.112"/>
<polygon fill="black" stroke="black" points="450.696,-118.104 447.196,-108.104 443.696,-118.104 450.696,-118.104"/>
</g>
<!-- 17&#45;&gt;9 -->
<g id="edge18" class="edge"><title>17&#45;&gt;9</title>
<path fill="none" stroke="black" d="M242.196,-431.697C242.196,-423.983 242.196,-414.712 242.196,-406.112"/>
<polygon fill="black" stroke="black" points="245.696,-406.104 242.196,-396.104 238.696,-406.104 245.696,-406.104"/>
</g>
<!-- 21 -->
<g id="node22" class="node"><title>21</title>
<g id="a_node22"><a xlink:title="21, diversity: 1, multiplicities: 1, labels: 1">
<ellipse fill="#fff5f0" stroke="black" cx="346.196" cy="-162" rx="41.6928" ry="18"/>
<text text-anchor="middle" x="346.196" y="-158.3" font-family="Times,serif" font-size="14.00">21 (1): 1</text>
</a>
</g>
</g>
<!-- 18&#45;&gt;21 -->
<g id="edge17" class="edge"><title>18&#45;&gt;21</title>
<path fill="none" stroke="black" d="M343.185,-215.697C343.626,-207.983 344.155,-198.712 344.647,-190.112"/>
<polygon fill="black" stroke="black" points="348.142,-190.288 345.219,-180.104 341.154,-189.888 348.142,-190.288"/>
</g>
<!-- 21&#45;&gt;15 -->
<g id="edge14" class="edge"><title>21&#45;&gt;15</title>
<path fill="none" stroke="black" d="M346.196,-143.697C346.196,-135.983 346.196,-126.712 346.196,-118.112"/>
<polygon fill="black" stroke="black" points="349.696,-118.104 346.196,-108.104 342.696,-118.104 349.696,-118.104"/>
</g>
<!-- 22 -->
<g id="node23" class="node"><title>22</title>
<g id="a_node23"><a xlink:title="22, diversity: 1, multiplicities: 5, labels: 1">
<ellipse fill="#fee3d6" stroke="black" cx="444.196" cy="-450" rx="41.6928" ry="18"/>
<text text-anchor="middle" x="444.196" y="-446.3" font-family="Times,serif" font-size="14.00">22 (1): 1</text>
</a>
</g>
</g>
<!-- 23&#45;&gt;22 -->
<g id="edge3" class="edge"><title>23&#45;&gt;22</title>
<path fill="none" stroke="black" d="M444.196,-503.697C444.196,-495.983 444.196,-486.712 444.196,-478.112"/>
<polygon fill="black" stroke="black" points="447.696,-478.104 444.196,-468.104 440.696,-478.104 447.696,-478.104"/>
</g>
<!-- 24&#45;&gt;16 -->
<g id="edge21" class="edge"><title>24&#45;&gt;16</title>
<path fill="none" stroke="black" d="M445.69,-215.697C445.911,-207.983 446.176,-198.712 446.421,-190.112"/>
<polygon fill="black" stroke="black" points="449.92,-190.2 446.707,-180.104 442.923,-190 449.92,-190.2"/>
</g>
</g>
</svg>
