<?xml version="1.0" encoding="UTF-8" standalone="no"?>
<!DOCTYPE svg PUBLIC "-//W3C//DTD SVG 1.1//EN"
 "http://www.w3.org/Graphics/SVG/1.1/DTD/svg11.dtd">
<!-- Generated by graphviz version 2.40.1 (20161225.0304)
 -->
<!-- Title: %3 Pages: 1 -->
<svg width="975pt" height="1124pt"
 viewBox="0.00 0.00 975.00 1124.00" xmlns="http://www.w3.org/2000/svg" xmlns:xlink="http://www.w3.org/1999/xlink">
<g id="graph0" class="graph" transform="scale(1 1) rotate(0) translate(4 1120)">
<title>%3</title>
<polygon fill="#ffffff" stroke="transparent" points="-4,4 -4,-1120 971,-1120 971,4 -4,4"/>
<!-- 0 -->
<g id="node1" class="node">
<title>0</title>
<g id="a_node1"><a xlink:title="Y">
<ellipse fill="#800000" stroke="#000000" stroke-width="0" cx="733" cy="-954" rx="18" ry="18"/>
</a>
</g>
</g>
<!-- 1 -->
<g id="node2" class="node">
<title>1</title>
<g id="a_node2"><a xlink:title="Y">
<ellipse fill="#800000" stroke="#000000" stroke-width="0" cx="18" cy="-666" rx="18" ry="18"/>
</a>
</g>
</g>
<!-- 68 -->
<g id="node69" class="node">
<title>68</title>
<g id="a_node69"><a xlink:title="Y">
<ellipse fill="#800000" stroke="#000000" stroke-width="0" cx="18" cy="-594" rx="18" ry="18"/>
</a>
</g>
</g>
<!-- 1&#45;&gt;68 -->
<g id="edge26" class="edge">
<title>1&#45;&gt;68</title>
<path fill="none" stroke="#000000" d="M18,-647.8314C18,-640.131 18,-630.9743 18,-622.4166"/>
<polygon fill="#000000" stroke="#000000" points="21.5001,-622.4132 18,-612.4133 14.5001,-622.4133 21.5001,-622.4132"/>
</g>
<!-- 2 -->
<g id="node3" class="node">
<title>2</title>
<g id="a_node3"><a xlink:title="Y">
<ellipse fill="#800000" stroke="#000000" stroke-width="0" cx="31" cy="-882" rx="18" ry="18"/>
</a>
</g>
</g>
<!-- 3 -->
<g id="node4" class="node">
<title>3</title>
<g id="a_node4"><a xlink:title="H">
<ellipse fill="#00c0ff" stroke="#000000" stroke-width="0" cx="126" cy="-594" rx="18" ry="18"/>
</a>
</g>
</g>
<!-- 4 -->
<g id="node5" class="node">
<title>4</title>
<g id="a_node5"><a xlink:title="Y">
<ellipse fill="#800000" stroke="#000000" stroke-width="0" cx="166" cy="-954" rx="18" ry="18"/>
</a>
</g>
</g>
<!-- 5 -->
<g id="node6" class="node">
<title>5</title>
<g id="a_node6"><a xlink:title="Y">
<ellipse fill="#800000" stroke="#000000" stroke-width="0" cx="706" cy="-1098" rx="18" ry="18"/>
</a>
</g>
</g>
<!-- 6 -->
<g id="node7" class="node">
<title>6</title>
<g id="a_node7"><a xlink:title="Y">
<ellipse fill="#800000" stroke="#000000" stroke-width="0" cx="220" cy="-1026" rx="18" ry="18"/>
</a>
</g>
</g>
<!-- 5&#45;&gt;6 -->
<g id="edge67" class="edge">
<title>5&#45;&gt;6</title>
<path fill="none" stroke="#000000" d="M688.1266,-1095.3521C614.8965,-1084.5032 337.4505,-1043.4001 247.9877,-1030.1463"/>
<polygon fill="#000000" stroke="#000000" points="248.4409,-1026.6753 238.0359,-1028.672 247.415,-1033.5998 248.4409,-1026.6753"/>
</g>
<!-- 8 -->
<g id="node9" class="node">
<title>8</title>
<g id="a_node9"><a xlink:title="Y">
<ellipse fill="#800000" stroke="#000000" stroke-width="0" cx="382" cy="-1026" rx="18" ry="18"/>
</a>
</g>
</g>
<!-- 5&#45;&gt;8 -->
<g id="edge9" class="edge">
<title>5&#45;&gt;8</title>
<path fill="none" stroke="#000000" d="M688.1188,-1094.0264C634.4593,-1082.1021 474.5313,-1046.5625 409.7293,-1032.1621"/>
<polygon fill="#000000" stroke="#000000" points="410.3471,-1028.714 399.8259,-1029.9613 408.8285,-1035.5473 410.3471,-1028.714"/>
</g>
<!-- 15 -->
<g id="node16" class="node">
<title>15</title>
<g id="a_node16"><a xlink:title="Y">
<ellipse fill="#800000" stroke="#000000" stroke-width="0" cx="571" cy="-1026" rx="18" ry="18"/>
</a>
</g>
</g>
<!-- 5&#45;&gt;15 -->
<g id="edge80" class="edge">
<title>5&#45;&gt;15</title>
<path fill="none" stroke="#000000" d="M689.5668,-1090.5634C668.104,-1080.6754 629.5483,-1062.3082 598,-1044 596.8763,-1043.3479 595.7358,-1042.6671 594.5909,-1041.9683"/>
<polygon fill="#000000" stroke="#000000" points="596.2372,-1038.8666 585.9265,-1036.4291 592.4667,-1044.7644 596.2372,-1038.8666"/>
</g>
<!-- 17 -->
<g id="node18" class="node">
<title>17</title>
<g id="a_node18"><a xlink:title="Y">
<ellipse fill="#800000" stroke="#000000" stroke-width="0" cx="625" cy="-1026" rx="18" ry="18"/>
</a>
</g>
</g>
<!-- 5&#45;&gt;17 -->
<g id="edge35" class="edge">
<title>5&#45;&gt;17</title>
<path fill="none" stroke="#000000" d="M692.2595,-1085.7862C679.6157,-1074.5473 660.6738,-1057.7101 646.1103,-1044.7647"/>
<polygon fill="#000000" stroke="#000000" points="648.337,-1042.0612 638.5376,-1038.0334 643.6865,-1047.2931 648.337,-1042.0612"/>
</g>
<!-- 27 -->
<g id="node28" class="node">
<title>27</title>
<g id="a_node28"><a xlink:title="Y">
<ellipse fill="#800000" stroke="#000000" stroke-width="0" cx="679" cy="-1026" rx="18" ry="18"/>
</a>
</g>
</g>
<!-- 5&#45;&gt;27 -->
<g id="edge23" class="edge">
<title>5&#45;&gt;27</title>
<path fill="none" stroke="#000000" d="M699.6014,-1080.937C696.407,-1072.4186 692.471,-1061.9227 688.8982,-1052.3952"/>
<polygon fill="#000000" stroke="#000000" points="692.1411,-1051.0749 685.3527,-1042.9405 685.5868,-1053.5328 692.1411,-1051.0749"/>
</g>
<!-- 38 -->
<g id="node39" class="node">
<title>38</title>
<g id="a_node39"><a xlink:title="Y">
<ellipse fill="#800000" stroke="#000000" stroke-width="0" cx="733" cy="-1026" rx="18" ry="18"/>
</a>
</g>
</g>
<!-- 5&#45;&gt;38 -->
<g id="edge85" class="edge">
<title>5&#45;&gt;38</title>
<path fill="none" stroke="#000000" d="M712.3986,-1080.937C715.593,-1072.4186 719.529,-1061.9227 723.1018,-1052.3952"/>
<polygon fill="#000000" stroke="#000000" points="726.4132,-1053.5328 726.6473,-1042.9405 719.8589,-1051.0749 726.4132,-1053.5328"/>
</g>
<!-- 42 -->
<g id="node43" class="node">
<title>42</title>
<g id="a_node43"><a xlink:title="Y">
<ellipse fill="#800000" stroke="#000000" stroke-width="0" cx="787" cy="-1026" rx="18" ry="18"/>
</a>
</g>
</g>
<!-- 5&#45;&gt;42 -->
<g id="edge72" class="edge">
<title>5&#45;&gt;42</title>
<path fill="none" stroke="#000000" d="M719.7405,-1085.7862C732.3843,-1074.5473 751.3262,-1057.7101 765.8897,-1044.7647"/>
<polygon fill="#000000" stroke="#000000" points="768.3135,-1047.2931 773.4624,-1038.0334 763.663,-1042.0612 768.3135,-1047.2931"/>
</g>
<!-- 46 -->
<g id="node47" class="node">
<title>46</title>
<g id="a_node47"><a xlink:title="Y">
<ellipse fill="#800000" stroke="#000000" stroke-width="0" cx="841" cy="-1026" rx="18" ry="18"/>
</a>
</g>
</g>
<!-- 5&#45;&gt;46 -->
<g id="edge38" class="edge">
<title>5&#45;&gt;46</title>
<path fill="none" stroke="#000000" d="M722.4332,-1090.5634C743.896,-1080.6754 782.4517,-1062.3082 814,-1044 815.1237,-1043.3479 816.2642,-1042.6671 817.4091,-1041.9683"/>
<polygon fill="#000000" stroke="#000000" points="819.5333,-1044.7644 826.0735,-1036.4291 815.7628,-1038.8666 819.5333,-1044.7644"/>
</g>
<!-- 49 -->
<g id="node50" class="node">
<title>49</title>
<g id="a_node50"><a xlink:title="Y">
<ellipse fill="#800000" stroke="#000000" stroke-width="0" cx="895" cy="-1026" rx="18" ry="18"/>
</a>
</g>
</g>
<!-- 5&#45;&gt;49 -->
<g id="edge47" class="edge">
<title>5&#45;&gt;49</title>
<path fill="none" stroke="#000000" d="M723.6204,-1093.7771C754.0338,-1086.1314 817.9323,-1068.4873 868,-1044 869.1672,-1043.4292 870.3431,-1042.8151 871.5169,-1042.1702"/>
<polygon fill="#000000" stroke="#000000" points="873.5665,-1045.0201 880.2874,-1036.8298 869.9259,-1039.0412 873.5665,-1045.0201"/>
</g>
<!-- 53 -->
<g id="node54" class="node">
<title>53</title>
<g id="a_node54"><a xlink:title="Y">
<ellipse fill="#800000" stroke="#000000" stroke-width="0" cx="949" cy="-1026" rx="18" ry="18"/>
</a>
</g>
</g>
<!-- 5&#45;&gt;53 -->
<g id="edge32" class="edge">
<title>5&#45;&gt;53</title>
<path fill="none" stroke="#000000" d="M724.0339,-1095.6262C761.9903,-1090.1774 852.361,-1074.8062 922,-1044 923.1882,-1043.4744 924.3814,-1042.8974 925.5692,-1042.2825"/>
<polygon fill="#000000" stroke="#000000" points="927.5739,-1045.1629 934.3911,-1037.0526 924.0042,-1039.1415 927.5739,-1045.1629"/>
</g>
<!-- 11 -->
<g id="node12" class="node">
<title>11</title>
<g id="a_node12"><a xlink:title="Y">
<ellipse fill="#800000" stroke="#000000" stroke-width="0" cx="112" cy="-954" rx="18" ry="18"/>
</a>
</g>
</g>
<!-- 6&#45;&gt;11 -->
<g id="edge34" class="edge">
<title>6&#45;&gt;11</title>
<path fill="none" stroke="#000000" d="M204.9831,-1015.9887C187.03,-1004.02 156.7675,-983.845 135.6604,-969.7736"/>
<polygon fill="#000000" stroke="#000000" points="137.4995,-966.7932 127.2376,-964.1584 133.6166,-972.6176 137.4995,-966.7932"/>
</g>
<!-- 7 -->
<g id="node8" class="node">
<title>7</title>
<g id="a_node8"><a xlink:title="Y">
<ellipse fill="#800000" stroke="#000000" stroke-width="0" cx="166" cy="-810" rx="18" ry="18"/>
</a>
</g>
</g>
<!-- 10 -->
<g id="node11" class="node">
<title>10</title>
<g id="a_node11"><a xlink:title="Y">
<ellipse fill="#800000" stroke="#000000" stroke-width="0" cx="99" cy="-738" rx="18" ry="18"/>
</a>
</g>
</g>
<!-- 7&#45;&gt;10 -->
<g id="edge75" class="edge">
<title>7&#45;&gt;10</title>
<path fill="none" stroke="#000000" d="M153.7112,-796.7941C143.9184,-786.2705 130.0176,-771.3324 118.6786,-759.1472"/>
<polygon fill="#000000" stroke="#000000" points="121.0408,-756.5478 111.6662,-751.6114 115.9163,-761.3164 121.0408,-756.5478"/>
</g>
<!-- 18 -->
<g id="node19" class="node">
<title>18</title>
<g id="a_node19"><a xlink:title="Y">
<ellipse fill="#800000" stroke="#000000" stroke-width="0" cx="153" cy="-738" rx="18" ry="18"/>
</a>
</g>
</g>
<!-- 7&#45;&gt;18 -->
<g id="edge36" class="edge">
<title>7&#45;&gt;18</title>
<path fill="none" stroke="#000000" d="M162.7865,-792.2022C161.349,-784.2406 159.6205,-774.6671 158.0187,-765.7957"/>
<polygon fill="#000000" stroke="#000000" points="161.4428,-765.0615 156.2216,-755.8425 154.5542,-766.3053 161.4428,-765.0615"/>
</g>
<!-- 36 -->
<g id="node37" class="node">
<title>36</title>
<g id="a_node37"><a xlink:title="Y">
<ellipse fill="#800000" stroke="#000000" stroke-width="0" cx="207" cy="-738" rx="18" ry="18"/>
</a>
</g>
</g>
<!-- 7&#45;&gt;36 -->
<g id="edge55" class="edge">
<title>7&#45;&gt;36</title>
<path fill="none" stroke="#000000" d="M175.0992,-794.0209C180.3012,-784.8857 186.9392,-773.2286 192.8116,-762.9162"/>
<polygon fill="#000000" stroke="#000000" points="196.0192,-764.3563 197.9262,-753.9345 189.9363,-760.8924 196.0192,-764.3563"/>
</g>
<!-- 8&#45;&gt;4 -->
<g id="edge42" class="edge">
<title>8&#45;&gt;4</title>
<path fill="none" stroke="#000000" d="M364.1561,-1022.8212C329.8456,-1016.2985 252.7797,-999.6446 193,-972 191.8207,-971.4547 190.6348,-970.8615 189.453,-970.2335"/>
<polygon fill="#000000" stroke="#000000" points="191.0289,-967.0975 180.6529,-964.9554 187.4284,-973.1005 191.0289,-967.0975"/>
</g>
<!-- 13 -->
<g id="node14" class="node">
<title>13</title>
<g id="a_node14"><a xlink:title="Y">
<ellipse fill="#800000" stroke="#000000" stroke-width="0" cx="220" cy="-954" rx="18" ry="18"/>
</a>
</g>
</g>
<!-- 8&#45;&gt;13 -->
<g id="edge44" class="edge">
<title>8&#45;&gt;13</title>
<path fill="none" stroke="#000000" d="M364.873,-1020.4337C338.7398,-1011.6585 287.6599,-993.3883 247,-972 245.8501,-971.3951 244.6883,-970.7532 243.526,-970.0857"/>
<polygon fill="#000000" stroke="#000000" points="245.1388,-966.9672 234.7978,-964.6621 241.4442,-972.9128 245.1388,-966.9672"/>
</g>
<!-- 21 -->
<g id="node22" class="node">
<title>21</title>
<g id="a_node22"><a xlink:title="Y">
<ellipse fill="#800000" stroke="#000000" stroke-width="0" cx="274" cy="-954" rx="18" ry="18"/>
</a>
</g>
</g>
<!-- 8&#45;&gt;21 -->
<g id="edge17" class="edge">
<title>8&#45;&gt;21</title>
<path fill="none" stroke="#000000" d="M366.9831,-1015.9887C349.03,-1004.02 318.7675,-983.845 297.6604,-969.7736"/>
<polygon fill="#000000" stroke="#000000" points="299.4995,-966.7932 289.2376,-964.1584 295.6166,-972.6176 299.4995,-966.7932"/>
</g>
<!-- 32 -->
<g id="node33" class="node">
<title>32</title>
<g id="a_node33"><a xlink:title="Y">
<ellipse fill="#800000" stroke="#000000" stroke-width="0" cx="328" cy="-954" rx="18" ry="18"/>
</a>
</g>
</g>
<!-- 8&#45;&gt;32 -->
<g id="edge31" class="edge">
<title>8&#45;&gt;32</title>
<path fill="none" stroke="#000000" d="M371.0723,-1011.4297C363.6066,-1001.4754 353.5632,-988.0842 345.0526,-976.7368"/>
<polygon fill="#000000" stroke="#000000" points="347.7115,-974.4486 338.9115,-968.5486 342.1115,-978.6486 347.7115,-974.4486"/>
</g>
<!-- 34 -->
<g id="node35" class="node">
<title>34</title>
<g id="a_node35"><a xlink:title="Y">
<ellipse fill="#800000" stroke="#000000" stroke-width="0" cx="382" cy="-954" rx="18" ry="18"/>
</a>
</g>
</g>
<!-- 8&#45;&gt;34 -->
<g id="edge84" class="edge">
<title>8&#45;&gt;34</title>
<path fill="none" stroke="#000000" d="M382,-1007.8314C382,-1000.131 382,-990.9743 382,-982.4166"/>
<polygon fill="#000000" stroke="#000000" points="385.5001,-982.4132 382,-972.4133 378.5001,-982.4133 385.5001,-982.4132"/>
</g>
<!-- 40 -->
<g id="node41" class="node">
<title>40</title>
<g id="a_node41"><a xlink:title="Y">
<ellipse fill="#800000" stroke="#000000" stroke-width="0" cx="436" cy="-954" rx="18" ry="18"/>
</a>
</g>
</g>
<!-- 8&#45;&gt;40 -->
<g id="edge70" class="edge">
<title>8&#45;&gt;40</title>
<path fill="none" stroke="#000000" d="M392.9277,-1011.4297C400.3934,-1001.4754 410.4368,-988.0842 418.9474,-976.7368"/>
<polygon fill="#000000" stroke="#000000" points="421.8885,-978.6486 425.0885,-968.5486 416.2885,-974.4486 421.8885,-978.6486"/>
</g>
<!-- 59 -->
<g id="node60" class="node">
<title>59</title>
<g id="a_node60"><a xlink:title="Y">
<ellipse fill="#800000" stroke="#000000" stroke-width="0" cx="490" cy="-954" rx="18" ry="18"/>
</a>
</g>
</g>
<!-- 8&#45;&gt;59 -->
<g id="edge73" class="edge">
<title>8&#45;&gt;59</title>
<path fill="none" stroke="#000000" d="M397.0169,-1015.9887C414.97,-1004.02 445.2325,-983.845 466.3396,-969.7736"/>
<polygon fill="#000000" stroke="#000000" points="468.3834,-972.6176 474.7624,-964.1584 464.5005,-966.7932 468.3834,-972.6176"/>
</g>
<!-- 62 -->
<g id="node63" class="node">
<title>62</title>
<g id="a_node63"><a xlink:title="H">
<ellipse fill="#00c0ff" stroke="#000000" stroke-width="0" cx="544" cy="-954" rx="18" ry="18"/>
</a>
</g>
</g>
<!-- 8&#45;&gt;62 -->
<g id="edge30" class="edge">
<title>8&#45;&gt;62</title>
<path fill="none" stroke="#000000" d="M399.127,-1020.4337C425.2602,-1011.6585 476.3401,-993.3883 517,-972 518.1499,-971.3951 519.3117,-970.7532 520.474,-970.0857"/>
<polygon fill="#000000" stroke="#000000" points="522.5558,-972.9128 529.2022,-964.6621 518.8612,-966.9672 522.5558,-972.9128"/>
</g>
<!-- 9 -->
<g id="node10" class="node">
<title>9</title>
<g id="a_node10"><a xlink:title="Y">
<ellipse fill="#800000" stroke="#000000" stroke-width="0" cx="153" cy="-162" rx="18" ry="18"/>
</a>
</g>
</g>
<!-- 66 -->
<g id="node67" class="node">
<title>66</title>
<g id="a_node67"><a xlink:title="Y">
<ellipse fill="#800000" stroke="#000000" stroke-width="0" cx="153" cy="-90" rx="18" ry="18"/>
</a>
</g>
</g>
<!-- 9&#45;&gt;66 -->
<g id="edge11" class="edge">
<title>9&#45;&gt;66</title>
<path fill="none" stroke="#000000" d="M153,-143.8314C153,-136.131 153,-126.9743 153,-118.4166"/>
<polygon fill="#000000" stroke="#000000" points="156.5001,-118.4132 153,-108.4133 149.5001,-118.4133 156.5001,-118.4132"/>
</g>
<!-- 10&#45;&gt;1 -->
<g id="edge81" class="edge">
<title>10&#45;&gt;1</title>
<path fill="none" stroke="#000000" d="M85.2595,-725.7862C72.6157,-714.5473 53.6738,-697.7101 39.1103,-684.7647"/>
<polygon fill="#000000" stroke="#000000" points="41.337,-682.0612 31.5376,-678.0334 36.6865,-687.2931 41.337,-682.0612"/>
</g>
<!-- 24 -->
<g id="node25" class="node">
<title>24</title>
<g id="a_node25"><a xlink:title="Y">
<ellipse fill="#800000" stroke="#000000" stroke-width="0" cx="72" cy="-666" rx="18" ry="18"/>
</a>
</g>
</g>
<!-- 10&#45;&gt;24 -->
<g id="edge19" class="edge">
<title>10&#45;&gt;24</title>
<path fill="none" stroke="#000000" d="M92.6014,-720.937C89.407,-712.4186 85.471,-701.9227 81.8982,-692.3952"/>
<polygon fill="#000000" stroke="#000000" points="85.1411,-691.0749 78.3527,-682.9405 78.5868,-693.5328 85.1411,-691.0749"/>
</g>
<!-- 44 -->
<g id="node45" class="node">
<title>44</title>
<g id="a_node45"><a xlink:title="H">
<ellipse fill="#00c0ff" stroke="#000000" stroke-width="0" cx="126" cy="-666" rx="18" ry="18"/>
</a>
</g>
</g>
<!-- 10&#45;&gt;44 -->
<g id="edge79" class="edge">
<title>10&#45;&gt;44</title>
<path fill="none" stroke="#000000" d="M105.3986,-720.937C108.593,-712.4186 112.529,-701.9227 116.1018,-692.3952"/>
<polygon fill="#000000" stroke="#000000" points="119.4132,-693.5328 119.6473,-682.9405 112.8589,-691.0749 119.4132,-693.5328"/>
</g>
<!-- 65 -->
<g id="node66" class="node">
<title>65</title>
<g id="a_node66"><a xlink:title="Y">
<ellipse fill="#800000" stroke="#000000" stroke-width="0" cx="180" cy="-666" rx="18" ry="18"/>
</a>
</g>
</g>
<!-- 10&#45;&gt;65 -->
<g id="edge27" class="edge">
<title>10&#45;&gt;65</title>
<path fill="none" stroke="#000000" d="M112.7405,-725.7862C125.3843,-714.5473 144.3262,-697.7101 158.8897,-684.7647"/>
<polygon fill="#000000" stroke="#000000" points="161.3135,-687.2931 166.4624,-678.0334 156.663,-682.0612 161.3135,-687.2931"/>
</g>
<!-- 12 -->
<g id="node13" class="node">
<title>12</title>
<g id="a_node13"><a xlink:title="H">
<ellipse fill="#00c0ff" stroke="#000000" stroke-width="0" cx="544" cy="-522" rx="18" ry="18"/>
</a>
</g>
</g>
<!-- 13&#45;&gt;2 -->
<g id="edge52" class="edge">
<title>13&#45;&gt;2</title>
<path fill="none" stroke="#000000" d="M205.3707,-942.9931C201.4931,-940.4321 197.21,-937.9018 193,-936 136.4097,-910.4357 114.5903,-925.5643 58,-900 56.8159,-899.4651 55.6261,-898.8805 54.4411,-898.2595"/>
<polygon fill="#000000" stroke="#000000" points="56.0112,-895.1208 45.6293,-893.0069 52.427,-901.1336 56.0112,-895.1208"/>
</g>
<!-- 26 -->
<g id="node27" class="node">
<title>26</title>
<g id="a_node27"><a xlink:title="Y">
<ellipse fill="#800000" stroke="#000000" stroke-width="0" cx="85" cy="-882" rx="18" ry="18"/>
</a>
</g>
</g>
<!-- 13&#45;&gt;26 -->
<g id="edge25" class="edge">
<title>13&#45;&gt;26</title>
<path fill="none" stroke="#000000" d="M205.145,-943.4443C201.2718,-940.8746 197.0472,-938.2274 193,-936 158.4862,-917.0053 146.5138,-918.9947 112,-900 110.8617,-899.3736 109.7094,-898.7139 108.5548,-898.0321"/>
<polygon fill="#000000" stroke="#000000" points="110.1824,-894.9209 99.855,-892.5557 106.4534,-900.845 110.1824,-894.9209"/>
</g>
<!-- 35 -->
<g id="node36" class="node">
<title>35</title>
<g id="a_node36"><a xlink:title="Y">
<ellipse fill="#800000" stroke="#000000" stroke-width="0" cx="139" cy="-882" rx="18" ry="18"/>
</a>
</g>
</g>
<!-- 13&#45;&gt;35 -->
<g id="edge16" class="edge">
<title>13&#45;&gt;35</title>
<path fill="none" stroke="#000000" d="M206.2595,-941.7862C193.6157,-930.5473 174.6738,-913.7101 160.1103,-900.7647"/>
<polygon fill="#000000" stroke="#000000" points="162.337,-898.0612 152.5376,-894.0334 157.6865,-903.2931 162.337,-898.0612"/>
</g>
<!-- 41 -->
<g id="node42" class="node">
<title>41</title>
<g id="a_node42"><a xlink:title="Y">
<ellipse fill="#800000" stroke="#000000" stroke-width="0" cx="193" cy="-882" rx="18" ry="18"/>
</a>
</g>
</g>
<!-- 13&#45;&gt;41 -->
<g id="edge28" class="edge">
<title>13&#45;&gt;41</title>
<path fill="none" stroke="#000000" d="M213.6014,-936.937C210.407,-928.4186 206.471,-917.9227 202.8982,-908.3952"/>
<polygon fill="#000000" stroke="#000000" points="206.1411,-907.0749 199.3527,-898.9405 199.5868,-909.5328 206.1411,-907.0749"/>
</g>
<!-- 56 -->
<g id="node57" class="node">
<title>56</title>
<g id="a_node57"><a xlink:title="Y">
<ellipse fill="#800000" stroke="#000000" stroke-width="0" cx="247" cy="-882" rx="18" ry="18"/>
</a>
</g>
</g>
<!-- 13&#45;&gt;56 -->
<g id="edge57" class="edge">
<title>13&#45;&gt;56</title>
<path fill="none" stroke="#000000" d="M226.3986,-936.937C229.593,-928.4186 233.529,-917.9227 237.1018,-908.3952"/>
<polygon fill="#000000" stroke="#000000" points="240.4132,-909.5328 240.6473,-898.9405 233.8589,-907.0749 240.4132,-909.5328"/>
</g>
<!-- 80 -->
<g id="node81" class="node">
<title>80</title>
<g id="a_node81"><a xlink:title="Y">
<ellipse fill="#800000" stroke="#000000" stroke-width="0" cx="301" cy="-882" rx="18" ry="18"/>
</a>
</g>
</g>
<!-- 13&#45;&gt;80 -->
<g id="edge86" class="edge">
<title>13&#45;&gt;80</title>
<path fill="none" stroke="#000000" d="M233.7405,-941.7862C246.3843,-930.5473 265.3262,-913.7101 279.8897,-900.7647"/>
<polygon fill="#000000" stroke="#000000" points="282.3135,-903.2931 287.4624,-894.0334 277.663,-898.0612 282.3135,-903.2931"/>
</g>
<!-- 14 -->
<g id="node15" class="node">
<title>14</title>
<g id="a_node15"><a xlink:title="Y">
<ellipse fill="#800000" stroke="#000000" stroke-width="0" cx="180" cy="-450" rx="18" ry="18"/>
</a>
</g>
</g>
<!-- 58 -->
<g id="node59" class="node">
<title>58</title>
<g id="a_node59"><a xlink:title="Y">
<ellipse fill="#800000" stroke="#000000" stroke-width="0" cx="180" cy="-378" rx="18" ry="18"/>
</a>
</g>
</g>
<!-- 14&#45;&gt;58 -->
<g id="edge61" class="edge">
<title>14&#45;&gt;58</title>
<path fill="none" stroke="#000000" d="M180,-431.8314C180,-424.131 180,-414.9743 180,-406.4166"/>
<polygon fill="#000000" stroke="#000000" points="183.5001,-406.4132 180,-396.4133 176.5001,-406.4133 183.5001,-406.4132"/>
</g>
<!-- 23 -->
<g id="node24" class="node">
<title>23</title>
<g id="a_node24"><a xlink:title="Y">
<ellipse fill="#800000" stroke="#000000" stroke-width="0" cx="598" cy="-954" rx="18" ry="18"/>
</a>
</g>
</g>
<!-- 15&#45;&gt;23 -->
<g id="edge29" class="edge">
<title>15&#45;&gt;23</title>
<path fill="none" stroke="#000000" d="M577.3986,-1008.937C580.593,-1000.4186 584.529,-989.9227 588.1018,-980.3952"/>
<polygon fill="#000000" stroke="#000000" points="591.4132,-981.5328 591.6473,-970.9405 584.8589,-979.0749 591.4132,-981.5328"/>
</g>
<!-- 16 -->
<g id="node17" class="node">
<title>16</title>
<g id="a_node17"><a xlink:title="H">
<ellipse fill="#00c0ff" stroke="#000000" stroke-width="0" cx="544" cy="-594" rx="18" ry="18"/>
</a>
</g>
</g>
<!-- 16&#45;&gt;12 -->
<g id="edge50" class="edge">
<title>16&#45;&gt;12</title>
<path fill="none" stroke="#000000" d="M544,-575.8314C544,-568.131 544,-558.9743 544,-550.4166"/>
<polygon fill="#000000" stroke="#000000" points="547.5001,-550.4132 544,-540.4133 540.5001,-550.4133 547.5001,-550.4132"/>
</g>
<!-- 47 -->
<g id="node48" class="node">
<title>47</title>
<g id="a_node48"><a xlink:title="Y">
<ellipse fill="#800000" stroke="#000000" stroke-width="0" cx="652" cy="-954" rx="18" ry="18"/>
</a>
</g>
</g>
<!-- 17&#45;&gt;47 -->
<g id="edge65" class="edge">
<title>17&#45;&gt;47</title>
<path fill="none" stroke="#000000" d="M631.3986,-1008.937C634.593,-1000.4186 638.529,-989.9227 642.1018,-980.3952"/>
<polygon fill="#000000" stroke="#000000" points="645.4132,-981.5328 645.6473,-970.9405 638.8589,-979.0749 645.4132,-981.5328"/>
</g>
<!-- 19 -->
<g id="node20" class="node">
<title>19</title>
<g id="a_node20"><a xlink:title="Y">
<ellipse fill="#800000" stroke="#000000" stroke-width="0" cx="153" cy="-18" rx="18" ry="18"/>
</a>
</g>
</g>
<!-- 20 -->
<g id="node21" class="node">
<title>20</title>
<g id="a_node21"><a xlink:title="Y">
<ellipse fill="#800000" stroke="#000000" stroke-width="0" cx="409" cy="-738" rx="18" ry="18"/>
</a>
</g>
</g>
<!-- 22 -->
<g id="node23" class="node">
<title>22</title>
<g id="a_node23"><a xlink:title="Y">
<ellipse fill="#800000" stroke="#000000" stroke-width="0" cx="355" cy="-882" rx="18" ry="18"/>
</a>
</g>
</g>
<!-- 21&#45;&gt;22 -->
<g id="edge59" class="edge">
<title>21&#45;&gt;22</title>
<path fill="none" stroke="#000000" d="M287.7405,-941.7862C300.3843,-930.5473 319.3262,-913.7101 333.8897,-900.7647"/>
<polygon fill="#000000" stroke="#000000" points="336.3135,-903.2931 341.4624,-894.0334 331.663,-898.0612 336.3135,-903.2931"/>
</g>
<!-- 57 -->
<g id="node58" class="node">
<title>57</title>
<g id="a_node58"><a xlink:title="Y">
<ellipse fill="#800000" stroke="#000000" stroke-width="0" cx="409" cy="-810" rx="18" ry="18"/>
</a>
</g>
</g>
<!-- 22&#45;&gt;57 -->
<g id="edge1" class="edge">
<title>22&#45;&gt;57</title>
<path fill="none" stroke="#000000" d="M365.9277,-867.4297C373.3934,-857.4754 383.4368,-844.0842 391.9474,-832.7368"/>
<polygon fill="#000000" stroke="#000000" points="394.8885,-834.6486 398.0885,-824.5486 389.2885,-830.4486 394.8885,-834.6486"/>
</g>
<!-- 48 -->
<g id="node49" class="node">
<title>48</title>
<g id="a_node49"><a xlink:title="Y">
<ellipse fill="#800000" stroke="#000000" stroke-width="0" cx="72" cy="-594" rx="18" ry="18"/>
</a>
</g>
</g>
<!-- 24&#45;&gt;48 -->
<g id="edge77" class="edge">
<title>24&#45;&gt;48</title>
<path fill="none" stroke="#000000" d="M72,-647.8314C72,-640.131 72,-630.9743 72,-622.4166"/>
<polygon fill="#000000" stroke="#000000" points="75.5001,-622.4132 72,-612.4133 68.5001,-622.4133 75.5001,-622.4132"/>
</g>
<!-- 25 -->
<g id="node26" class="node">
<title>25</title>
<g id="a_node26"><a xlink:title="Y">
<ellipse fill="#800000" stroke="#000000" stroke-width="0" cx="841" cy="-954" rx="18" ry="18"/>
</a>
</g>
</g>
<!-- 28 -->
<g id="node29" class="node">
<title>28</title>
<g id="a_node29"><a xlink:title="H">
<ellipse fill="#00c0ff" stroke="#000000" stroke-width="0" cx="544" cy="-810" rx="18" ry="18"/>
</a>
</g>
</g>
<!-- 29 -->
<g id="node30" class="node">
<title>29</title>
<g id="a_node30"><a xlink:title="H">
<ellipse fill="#00c0ff" stroke="#000000" stroke-width="0" cx="544" cy="-738" rx="18" ry="18"/>
</a>
</g>
</g>
<!-- 28&#45;&gt;29 -->
<g id="edge45" class="edge">
<title>28&#45;&gt;29</title>
<path fill="none" stroke="#000000" d="M544,-791.8314C544,-784.131 544,-774.9743 544,-766.4166"/>
<polygon fill="#000000" stroke="#000000" points="547.5001,-766.4132 544,-756.4133 540.5001,-766.4133 547.5001,-766.4132"/>
</g>
<!-- 54 -->
<g id="node55" class="node">
<title>54</title>
<g id="a_node55"><a xlink:title="H">
<ellipse fill="#00c0ff" stroke="#000000" stroke-width="0" cx="544" cy="-666" rx="18" ry="18"/>
</a>
</g>
</g>
<!-- 29&#45;&gt;54 -->
<g id="edge69" class="edge">
<title>29&#45;&gt;54</title>
<path fill="none" stroke="#000000" d="M544,-719.8314C544,-712.131 544,-702.9743 544,-694.4166"/>
<polygon fill="#000000" stroke="#000000" points="547.5001,-694.4132 544,-684.4133 540.5001,-694.4133 547.5001,-694.4132"/>
</g>
<!-- 30 -->
<g id="node31" class="node">
<title>30</title>
<g id="a_node31"><a xlink:title="Y">
<ellipse fill="#800000" stroke="#000000" stroke-width="0" cx="490" cy="-810" rx="18" ry="18"/>
</a>
</g>
</g>
<!-- 51 -->
<g id="node52" class="node">
<title>51</title>
<g id="a_node52"><a xlink:title="Y">
<ellipse fill="#800000" stroke="#000000" stroke-width="0" cx="490" cy="-738" rx="18" ry="18"/>
</a>
</g>
</g>
<!-- 30&#45;&gt;51 -->
<g id="edge7" class="edge">
<title>30&#45;&gt;51</title>
<path fill="none" stroke="#000000" d="M490,-791.8314C490,-784.131 490,-774.9743 490,-766.4166"/>
<polygon fill="#000000" stroke="#000000" points="493.5001,-766.4132 490,-756.4133 486.5001,-766.4133 493.5001,-766.4132"/>
</g>
<!-- 31 -->
<g id="node32" class="node">
<title>31</title>
<g id="a_node32"><a xlink:title="Y">
<ellipse fill="#800000" stroke="#000000" stroke-width="0" cx="153" cy="-234" rx="18" ry="18"/>
</a>
</g>
</g>
<!-- 31&#45;&gt;9 -->
<g id="edge66" class="edge">
<title>31&#45;&gt;9</title>
<path fill="none" stroke="#000000" d="M153,-215.8314C153,-208.131 153,-198.9743 153,-190.4166"/>
<polygon fill="#000000" stroke="#000000" points="156.5001,-190.4132 153,-180.4133 149.5001,-190.4133 156.5001,-190.4132"/>
</g>
<!-- 43 -->
<g id="node44" class="node">
<title>43</title>
<g id="a_node44"><a xlink:title="Y">
<ellipse fill="#800000" stroke="#000000" stroke-width="0" cx="409" cy="-882" rx="18" ry="18"/>
</a>
</g>
</g>
<!-- 32&#45;&gt;43 -->
<g id="edge60" class="edge">
<title>32&#45;&gt;43</title>
<path fill="none" stroke="#000000" d="M341.7405,-941.7862C354.3843,-930.5473 373.3262,-913.7101 387.8897,-900.7647"/>
<polygon fill="#000000" stroke="#000000" points="390.3135,-903.2931 395.4624,-894.0334 385.663,-898.0612 390.3135,-903.2931"/>
</g>
<!-- 33 -->
<g id="node34" class="node">
<title>33</title>
<g id="a_node34"><a xlink:title="Y">
<ellipse fill="#800000" stroke="#000000" stroke-width="0" cx="652" cy="-882" rx="18" ry="18"/>
</a>
</g>
</g>
<!-- 37 -->
<g id="node38" class="node">
<title>37</title>
<g id="a_node38"><a xlink:title="Y">
<ellipse fill="#800000" stroke="#000000" stroke-width="0" cx="787" cy="-954" rx="18" ry="18"/>
</a>
</g>
</g>
<!-- 76 -->
<g id="node77" class="node">
<title>76</title>
<g id="a_node77"><a xlink:title="Y">
<ellipse fill="#800000" stroke="#000000" stroke-width="0" cx="787" cy="-882" rx="18" ry="18"/>
</a>
</g>
</g>
<!-- 37&#45;&gt;76 -->
<g id="edge68" class="edge">
<title>37&#45;&gt;76</title>
<path fill="none" stroke="#000000" d="M787,-935.8314C787,-928.131 787,-918.9743 787,-910.4166"/>
<polygon fill="#000000" stroke="#000000" points="790.5001,-910.4132 787,-900.4133 783.5001,-910.4133 790.5001,-910.4132"/>
</g>
<!-- 38&#45;&gt;0 -->
<g id="edge58" class="edge">
<title>38&#45;&gt;0</title>
<path fill="none" stroke="#000000" d="M733,-1007.8314C733,-1000.131 733,-990.9743 733,-982.4166"/>
<polygon fill="#000000" stroke="#000000" points="736.5001,-982.4132 733,-972.4133 729.5001,-982.4133 736.5001,-982.4132"/>
</g>
<!-- 39 -->
<g id="node40" class="node">
<title>39</title>
<g id="a_node40"><a xlink:title="Y">
<ellipse fill="#800000" stroke="#000000" stroke-width="0" cx="180" cy="-594" rx="18" ry="18"/>
</a>
</g>
</g>
<!-- 63 -->
<g id="node64" class="node">
<title>63</title>
<g id="a_node64"><a xlink:title="Y">
<ellipse fill="#800000" stroke="#000000" stroke-width="0" cx="180" cy="-522" rx="18" ry="18"/>
</a>
</g>
</g>
<!-- 39&#45;&gt;63 -->
<g id="edge71" class="edge">
<title>39&#45;&gt;63</title>
<path fill="none" stroke="#000000" d="M180,-575.8314C180,-568.131 180,-558.9743 180,-550.4166"/>
<polygon fill="#000000" stroke="#000000" points="183.5001,-550.4132 180,-540.4133 176.5001,-550.4133 183.5001,-550.4132"/>
</g>
<!-- 41&#45;&gt;7 -->
<g id="edge82" class="edge">
<title>41&#45;&gt;7</title>
<path fill="none" stroke="#000000" d="M186.6014,-864.937C183.407,-856.4186 179.471,-845.9227 175.8982,-836.3952"/>
<polygon fill="#000000" stroke="#000000" points="179.1411,-835.0749 172.3527,-826.9405 172.5868,-837.5328 179.1411,-835.0749"/>
</g>
<!-- 42&#45;&gt;37 -->
<g id="edge40" class="edge">
<title>42&#45;&gt;37</title>
<path fill="none" stroke="#000000" d="M787,-1007.8314C787,-1000.131 787,-990.9743 787,-982.4166"/>
<polygon fill="#000000" stroke="#000000" points="790.5001,-982.4132 787,-972.4133 783.5001,-982.4133 790.5001,-982.4132"/>
</g>
<!-- 44&#45;&gt;3 -->
<g id="edge21" class="edge">
<title>44&#45;&gt;3</title>
<path fill="none" stroke="#000000" d="M126,-647.8314C126,-640.131 126,-630.9743 126,-622.4166"/>
<polygon fill="#000000" stroke="#000000" points="129.5001,-622.4132 126,-612.4133 122.5001,-622.4133 129.5001,-622.4132"/>
</g>
<!-- 45 -->
<g id="node46" class="node">
<title>45</title>
<g id="a_node46"><a xlink:title="H">
<ellipse fill="#00c0ff" stroke="#000000" stroke-width="0" cx="544" cy="-882" rx="18" ry="18"/>
</a>
</g>
</g>
<!-- 45&#45;&gt;28 -->
<g id="edge22" class="edge">
<title>45&#45;&gt;28</title>
<path fill="none" stroke="#000000" d="M544,-863.8314C544,-856.131 544,-846.9743 544,-838.4166"/>
<polygon fill="#000000" stroke="#000000" points="547.5001,-838.4132 544,-828.4133 540.5001,-838.4133 547.5001,-838.4132"/>
</g>
<!-- 46&#45;&gt;25 -->
<g id="edge14" class="edge">
<title>46&#45;&gt;25</title>
<path fill="none" stroke="#000000" d="M841,-1007.8314C841,-1000.131 841,-990.9743 841,-982.4166"/>
<polygon fill="#000000" stroke="#000000" points="844.5001,-982.4132 841,-972.4133 837.5001,-982.4133 844.5001,-982.4132"/>
</g>
<!-- 47&#45;&gt;33 -->
<g id="edge37" class="edge">
<title>47&#45;&gt;33</title>
<path fill="none" stroke="#000000" d="M652,-935.8314C652,-928.131 652,-918.9743 652,-910.4166"/>
<polygon fill="#000000" stroke="#000000" points="655.5001,-910.4132 652,-900.4133 648.5001,-910.4133 655.5001,-910.4132"/>
</g>
<!-- 86 -->
<g id="node87" class="node">
<title>86</title>
<g id="a_node87"><a xlink:title="Y">
<ellipse fill="#800000" stroke="#000000" stroke-width="0" cx="895" cy="-954" rx="18" ry="18"/>
</a>
</g>
</g>
<!-- 49&#45;&gt;86 -->
<g id="edge49" class="edge">
<title>49&#45;&gt;86</title>
<path fill="none" stroke="#000000" d="M895,-1007.8314C895,-1000.131 895,-990.9743 895,-982.4166"/>
<polygon fill="#000000" stroke="#000000" points="898.5001,-982.4132 895,-972.4133 891.5001,-982.4133 898.5001,-982.4132"/>
</g>
<!-- 50 -->
<g id="node51" class="node">
<title>50</title>
<g id="a_node51"><a xlink:title="Y">
<ellipse fill="#800000" stroke="#000000" stroke-width="0" cx="207" cy="-234" rx="18" ry="18"/>
</a>
</g>
</g>
<!-- 60 -->
<g id="node61" class="node">
<title>60</title>
<g id="a_node61"><a xlink:title="Y">
<ellipse fill="#800000" stroke="#000000" stroke-width="0" cx="207" cy="-162" rx="18" ry="18"/>
</a>
</g>
</g>
<!-- 50&#45;&gt;60 -->
<g id="edge4" class="edge">
<title>50&#45;&gt;60</title>
<path fill="none" stroke="#000000" d="M207,-215.8314C207,-208.131 207,-198.9743 207,-190.4166"/>
<polygon fill="#000000" stroke="#000000" points="210.5001,-190.4132 207,-180.4133 203.5001,-190.4133 210.5001,-190.4132"/>
</g>
<!-- 75 -->
<g id="node76" class="node">
<title>75</title>
<g id="a_node76"><a xlink:title="Y">
<ellipse fill="#800000" stroke="#000000" stroke-width="0" cx="490" cy="-666" rx="18" ry="18"/>
</a>
</g>
</g>
<!-- 51&#45;&gt;75 -->
<g id="edge64" class="edge">
<title>51&#45;&gt;75</title>
<path fill="none" stroke="#000000" d="M490,-719.8314C490,-712.131 490,-702.9743 490,-694.4166"/>
<polygon fill="#000000" stroke="#000000" points="493.5001,-694.4132 490,-684.4133 486.5001,-694.4133 493.5001,-694.4132"/>
</g>
<!-- 52 -->
<g id="node53" class="node">
<title>52</title>
<g id="a_node53"><a xlink:title="Y">
<ellipse fill="#800000" stroke="#000000" stroke-width="0" cx="490" cy="-882" rx="18" ry="18"/>
</a>
</g>
</g>
<!-- 52&#45;&gt;30 -->
<g id="edge54" class="edge">
<title>52&#45;&gt;30</title>
<path fill="none" stroke="#000000" d="M490,-863.8314C490,-856.131 490,-846.9743 490,-838.4166"/>
<polygon fill="#000000" stroke="#000000" points="493.5001,-838.4132 490,-828.4133 486.5001,-838.4133 493.5001,-838.4132"/>
</g>
<!-- 54&#45;&gt;16 -->
<g id="edge78" class="edge">
<title>54&#45;&gt;16</title>
<path fill="none" stroke="#000000" d="M544,-647.8314C544,-640.131 544,-630.9743 544,-622.4166"/>
<polygon fill="#000000" stroke="#000000" points="547.5001,-622.4132 544,-612.4133 540.5001,-622.4133 547.5001,-622.4132"/>
</g>
<!-- 55 -->
<g id="node56" class="node">
<title>55</title>
<g id="a_node56"><a xlink:title="Y">
<ellipse fill="#800000" stroke="#000000" stroke-width="0" cx="180" cy="-306" rx="18" ry="18"/>
</a>
</g>
</g>
<!-- 55&#45;&gt;31 -->
<g id="edge10" class="edge">
<title>55&#45;&gt;31</title>
<path fill="none" stroke="#000000" d="M173.6014,-288.937C170.407,-280.4186 166.471,-269.9227 162.8982,-260.3952"/>
<polygon fill="#000000" stroke="#000000" points="166.1411,-259.0749 159.3527,-250.9405 159.5868,-261.5328 166.1411,-259.0749"/>
</g>
<!-- 55&#45;&gt;50 -->
<g id="edge24" class="edge">
<title>55&#45;&gt;50</title>
<path fill="none" stroke="#000000" d="M186.3986,-288.937C189.593,-280.4186 193.529,-269.9227 197.1018,-260.3952"/>
<polygon fill="#000000" stroke="#000000" points="200.4132,-261.5328 200.6473,-250.9405 193.8589,-259.0749 200.4132,-261.5328"/>
</g>
<!-- 64 -->
<g id="node65" class="node">
<title>64</title>
<g id="a_node65"><a xlink:title="Y">
<ellipse fill="#800000" stroke="#000000" stroke-width="0" cx="247" cy="-810" rx="18" ry="18"/>
</a>
</g>
</g>
<!-- 56&#45;&gt;64 -->
<g id="edge62" class="edge">
<title>56&#45;&gt;64</title>
<path fill="none" stroke="#000000" d="M247,-863.8314C247,-856.131 247,-846.9743 247,-838.4166"/>
<polygon fill="#000000" stroke="#000000" points="250.5001,-838.4132 247,-828.4133 243.5001,-838.4133 250.5001,-838.4132"/>
</g>
<!-- 57&#45;&gt;20 -->
<g id="edge5" class="edge">
<title>57&#45;&gt;20</title>
<path fill="none" stroke="#000000" d="M409,-791.8314C409,-784.131 409,-774.9743 409,-766.4166"/>
<polygon fill="#000000" stroke="#000000" points="412.5001,-766.4132 409,-756.4133 405.5001,-766.4133 412.5001,-766.4132"/>
</g>
<!-- 58&#45;&gt;55 -->
<g id="edge53" class="edge">
<title>58&#45;&gt;55</title>
<path fill="none" stroke="#000000" d="M180,-359.8314C180,-352.131 180,-342.9743 180,-334.4166"/>
<polygon fill="#000000" stroke="#000000" points="183.5001,-334.4132 180,-324.4133 176.5001,-334.4133 183.5001,-334.4132"/>
</g>
<!-- 59&#45;&gt;52 -->
<g id="edge83" class="edge">
<title>59&#45;&gt;52</title>
<path fill="none" stroke="#000000" d="M490,-935.8314C490,-928.131 490,-918.9743 490,-910.4166"/>
<polygon fill="#000000" stroke="#000000" points="493.5001,-910.4132 490,-900.4133 486.5001,-910.4133 493.5001,-910.4132"/>
</g>
<!-- 84 -->
<g id="node85" class="node">
<title>84</title>
<g id="a_node85"><a xlink:title="Y">
<ellipse fill="#800000" stroke="#000000" stroke-width="0" cx="207" cy="-90" rx="18" ry="18"/>
</a>
</g>
</g>
<!-- 60&#45;&gt;84 -->
<g id="edge48" class="edge">
<title>60&#45;&gt;84</title>
<path fill="none" stroke="#000000" d="M207,-143.8314C207,-136.131 207,-126.9743 207,-118.4166"/>
<polygon fill="#000000" stroke="#000000" points="210.5001,-118.4132 207,-108.4133 203.5001,-118.4133 210.5001,-118.4132"/>
</g>
<!-- 61 -->
<g id="node62" class="node">
<title>61</title>
<g id="a_node62"><a xlink:title="Y">
<ellipse fill="#800000" stroke="#000000" stroke-width="0" cx="261" cy="-738" rx="18" ry="18"/>
</a>
</g>
</g>
<!-- 79 -->
<g id="node80" class="node">
<title>79</title>
<g id="a_node80"><a xlink:title="Y">
<ellipse fill="#800000" stroke="#000000" stroke-width="0" cx="261" cy="-666" rx="18" ry="18"/>
</a>
</g>
</g>
<!-- 61&#45;&gt;79 -->
<g id="edge13" class="edge">
<title>61&#45;&gt;79</title>
<path fill="none" stroke="#000000" d="M261,-719.8314C261,-712.131 261,-702.9743 261,-694.4166"/>
<polygon fill="#000000" stroke="#000000" points="264.5001,-694.4132 261,-684.4133 257.5001,-694.4133 264.5001,-694.4132"/>
</g>
<!-- 62&#45;&gt;45 -->
<g id="edge39" class="edge">
<title>62&#45;&gt;45</title>
<path fill="none" stroke="#000000" d="M544,-935.8314C544,-928.131 544,-918.9743 544,-910.4166"/>
<polygon fill="#000000" stroke="#000000" points="547.5001,-910.4132 544,-900.4133 540.5001,-910.4133 547.5001,-910.4132"/>
</g>
<!-- 63&#45;&gt;14 -->
<g id="edge2" class="edge">
<title>63&#45;&gt;14</title>
<path fill="none" stroke="#000000" d="M180,-503.8314C180,-496.131 180,-486.9743 180,-478.4166"/>
<polygon fill="#000000" stroke="#000000" points="183.5001,-478.4132 180,-468.4133 176.5001,-478.4133 183.5001,-478.4132"/>
</g>
<!-- 64&#45;&gt;61 -->
<g id="edge20" class="edge">
<title>64&#45;&gt;61</title>
<path fill="none" stroke="#000000" d="M250.4607,-792.2022C252.0088,-784.2406 253.8703,-774.6671 255.5953,-765.7957"/>
<polygon fill="#000000" stroke="#000000" points="259.0575,-766.3268 257.5306,-755.8425 252.1862,-764.9906 259.0575,-766.3268"/>
</g>
<!-- 65&#45;&gt;39 -->
<g id="edge6" class="edge">
<title>65&#45;&gt;39</title>
<path fill="none" stroke="#000000" d="M180,-647.8314C180,-640.131 180,-630.9743 180,-622.4166"/>
<polygon fill="#000000" stroke="#000000" points="183.5001,-622.4132 180,-612.4133 176.5001,-622.4133 183.5001,-622.4132"/>
</g>
<!-- 66&#45;&gt;19 -->
<g id="edge56" class="edge">
<title>66&#45;&gt;19</title>
<path fill="none" stroke="#000000" d="M153,-71.8314C153,-64.131 153,-54.9743 153,-46.4166"/>
<polygon fill="#000000" stroke="#000000" points="156.5001,-46.4132 153,-36.4133 149.5001,-46.4133 156.5001,-46.4132"/>
</g>
<!-- 67 -->
<g id="node68" class="node">
<title>67</title>
<g id="a_node68"><a xlink:title="Y">
<ellipse fill="#800000" stroke="#000000" stroke-width="0" cx="18" cy="-90" rx="18" ry="18"/>
</a>
</g>
</g>
<!-- 85 -->
<g id="node86" class="node">
<title>85</title>
<g id="a_node86"><a xlink:title="Y">
<ellipse fill="#800000" stroke="#000000" stroke-width="0" cx="18" cy="-18" rx="18" ry="18"/>
</a>
</g>
</g>
<!-- 67&#45;&gt;85 -->
<g id="edge3" class="edge">
<title>67&#45;&gt;85</title>
<path fill="none" stroke="#000000" d="M18,-71.8314C18,-64.131 18,-54.9743 18,-46.4166"/>
<polygon fill="#000000" stroke="#000000" points="21.5001,-46.4132 18,-36.4133 14.5001,-46.4133 21.5001,-46.4132"/>
</g>
<!-- 74 -->
<g id="node75" class="node">
<title>74</title>
<g id="a_node75"><a xlink:title="Y">
<ellipse fill="#800000" stroke="#000000" stroke-width="0" cx="18" cy="-522" rx="18" ry="18"/>
</a>
</g>
</g>
<!-- 68&#45;&gt;74 -->
<g id="edge76" class="edge">
<title>68&#45;&gt;74</title>
<path fill="none" stroke="#000000" d="M18,-575.8314C18,-568.131 18,-558.9743 18,-550.4166"/>
<polygon fill="#000000" stroke="#000000" points="21.5001,-550.4132 18,-540.4133 14.5001,-550.4133 21.5001,-550.4132"/>
</g>
<!-- 69 -->
<g id="node70" class="node">
<title>69</title>
<g id="a_node70"><a xlink:title="Y">
<ellipse fill="#800000" stroke="#000000" stroke-width="0" cx="18" cy="-378" rx="18" ry="18"/>
</a>
</g>
</g>
<!-- 72 -->
<g id="node73" class="node">
<title>72</title>
<g id="a_node73"><a xlink:title="Y">
<ellipse fill="#800000" stroke="#000000" stroke-width="0" cx="18" cy="-306" rx="18" ry="18"/>
</a>
</g>
</g>
<!-- 69&#45;&gt;72 -->
<g id="edge46" class="edge">
<title>69&#45;&gt;72</title>
<path fill="none" stroke="#000000" d="M18,-359.8314C18,-352.131 18,-342.9743 18,-334.4166"/>
<polygon fill="#000000" stroke="#000000" points="21.5001,-334.4132 18,-324.4133 14.5001,-334.4133 21.5001,-334.4132"/>
</g>
<!-- 70 -->
<g id="node71" class="node">
<title>70</title>
<g id="a_node71"><a xlink:title="Y">
<ellipse fill="#800000" stroke="#000000" stroke-width="0" cx="18" cy="-234" rx="18" ry="18"/>
</a>
</g>
</g>
<!-- 71 -->
<g id="node72" class="node">
<title>71</title>
<g id="a_node72"><a xlink:title="Y">
<ellipse fill="#800000" stroke="#000000" stroke-width="0" cx="18" cy="-162" rx="18" ry="18"/>
</a>
</g>
</g>
<!-- 70&#45;&gt;71 -->
<g id="edge74" class="edge">
<title>70&#45;&gt;71</title>
<path fill="none" stroke="#000000" d="M18,-215.8314C18,-208.131 18,-198.9743 18,-190.4166"/>
<polygon fill="#000000" stroke="#000000" points="21.5001,-190.4132 18,-180.4133 14.5001,-190.4133 21.5001,-190.4132"/>
</g>
<!-- 71&#45;&gt;67 -->
<g id="edge43" class="edge">
<title>71&#45;&gt;67</title>
<path fill="none" stroke="#000000" d="M18,-143.8314C18,-136.131 18,-126.9743 18,-118.4166"/>
<polygon fill="#000000" stroke="#000000" points="21.5001,-118.4132 18,-108.4133 14.5001,-118.4133 21.5001,-118.4132"/>
</g>
<!-- 72&#45;&gt;70 -->
<g id="edge12" class="edge">
<title>72&#45;&gt;70</title>
<path fill="none" stroke="#000000" d="M18,-287.8314C18,-280.131 18,-270.9743 18,-262.4166"/>
<polygon fill="#000000" stroke="#000000" points="21.5001,-262.4132 18,-252.4133 14.5001,-262.4133 21.5001,-262.4132"/>
</g>
<!-- 73 -->
<g id="node74" class="node">
<title>73</title>
<g id="a_node74"><a xlink:title="Y">
<ellipse fill="#800000" stroke="#000000" stroke-width="0" cx="18" cy="-450" rx="18" ry="18"/>
</a>
</g>
</g>
<!-- 73&#45;&gt;69 -->
<g id="edge41" class="edge">
<title>73&#45;&gt;69</title>
<path fill="none" stroke="#000000" d="M18,-431.8314C18,-424.131 18,-414.9743 18,-406.4166"/>
<polygon fill="#000000" stroke="#000000" points="21.5001,-406.4132 18,-396.4133 14.5001,-406.4133 21.5001,-406.4132"/>
</g>
<!-- 74&#45;&gt;73 -->
<g id="edge15" class="edge">
<title>74&#45;&gt;73</title>
<path fill="none" stroke="#000000" d="M18,-503.8314C18,-496.131 18,-486.9743 18,-478.4166"/>
<polygon fill="#000000" stroke="#000000" points="21.5001,-478.4132 18,-468.4133 14.5001,-478.4133 21.5001,-478.4132"/>
</g>
<!-- 77 -->
<g id="node78" class="node">
<title>77</title>
<g id="a_node78"><a xlink:title="Y">
<ellipse fill="#800000" stroke="#000000" stroke-width="0" cx="301" cy="-810" rx="18" ry="18"/>
</a>
</g>
</g>
<!-- 78 -->
<g id="node79" class="node">
<title>78</title>
<g id="a_node79"><a xlink:title="Y">
<ellipse fill="#800000" stroke="#000000" stroke-width="0" cx="355" cy="-810" rx="18" ry="18"/>
</a>
</g>
</g>
<!-- 82 -->
<g id="node83" class="node">
<title>82</title>
<g id="a_node83"><a xlink:title="Y">
<ellipse fill="#800000" stroke="#000000" stroke-width="0" cx="261" cy="-594" rx="18" ry="18"/>
</a>
</g>
</g>
<!-- 79&#45;&gt;82 -->
<g id="edge33" class="edge">
<title>79&#45;&gt;82</title>
<path fill="none" stroke="#000000" d="M261,-647.8314C261,-640.131 261,-630.9743 261,-622.4166"/>
<polygon fill="#000000" stroke="#000000" points="264.5001,-622.4132 261,-612.4133 257.5001,-622.4133 264.5001,-622.4132"/>
</g>
<!-- 80&#45;&gt;77 -->
<g id="edge63" class="edge">
<title>80&#45;&gt;77</title>
<path fill="none" stroke="#000000" d="M301,-863.8314C301,-856.131 301,-846.9743 301,-838.4166"/>
<polygon fill="#000000" stroke="#000000" points="304.5001,-838.4132 301,-828.4133 297.5001,-838.4133 304.5001,-838.4132"/>
</g>
<!-- 80&#45;&gt;78 -->
<g id="edge8" class="edge">
<title>80&#45;&gt;78</title>
<path fill="none" stroke="#000000" d="M311.9277,-867.4297C319.3934,-857.4754 329.4368,-844.0842 337.9474,-832.7368"/>
<polygon fill="#000000" stroke="#000000" points="340.8885,-834.6486 344.0885,-824.5486 335.2885,-830.4486 340.8885,-834.6486"/>
</g>
<!-- 81 -->
<g id="node82" class="node">
<title>81</title>
<g id="a_node82"><a xlink:title="Y">
<ellipse fill="#800000" stroke="#000000" stroke-width="0" cx="261" cy="-522" rx="18" ry="18"/>
</a>
</g>
</g>
<!-- 83 -->
<g id="node84" class="node">
<title>83</title>
<g id="a_node84"><a xlink:title="Y">
<ellipse fill="#800000" stroke="#000000" stroke-width="0" cx="261" cy="-450" rx="18" ry="18"/>
</a>
</g>
</g>
<!-- 81&#45;&gt;83 -->
<g id="edge51" class="edge">
<title>81&#45;&gt;83</title>
<path fill="none" stroke="#000000" d="M261,-503.8314C261,-496.131 261,-486.9743 261,-478.4166"/>
<polygon fill="#000000" stroke="#000000" points="264.5001,-478.4132 261,-468.4133 257.5001,-478.4133 264.5001,-478.4132"/>
</g>
<!-- 82&#45;&gt;81 -->
<g id="edge18" class="edge">
<title>82&#45;&gt;81</title>
<path fill="none" stroke="#000000" d="M261,-575.8314C261,-568.131 261,-558.9743 261,-550.4166"/>
<polygon fill="#000000" stroke="#000000" points="264.5001,-550.4132 261,-540.4133 257.5001,-550.4133 264.5001,-550.4132"/>
</g>
</g>
</svg>
