<?xml version="1.0" encoding="UTF-8" standalone="no"?>
<!DOCTYPE svg PUBLIC "-//W3C//DTD SVG 1.1//EN"
 "http://www.w3.org/Graphics/SVG/1.1/DTD/svg11.dtd">
<!-- Generated by graphviz version 2.38.0 (20140413.2041)
 -->
<!-- Title: %3 Pages: 1 -->
<svg width="382pt" height="836pt"
 viewBox="0.00 0.00 382.24 836.00" xmlns="http://www.w3.org/2000/svg" xmlns:xlink="http://www.w3.org/1999/xlink">
<g id="graph0" class="graph" transform="scale(1 1) rotate(0) translate(4 832)">
<title>%3</title>
<polygon fill="white" stroke="none" points="-4,4 -4,-832 378.243,-832 378.243,4 -4,4"/>
<!-- 0 -->
<g id="node1" class="node"><title>0</title>
<g id="a_node1"><a xlink:title="0, diversity: 1, multiplicities: 167, labels: 1,0,3,2">
<ellipse fill="#f7fcf5" stroke="black" cx="226.047" cy="-90" rx="57.6901" ry="18"/>
<text text-anchor="middle" x="226.047" y="-86.3" font-family="Times,serif" font-size="14.00">0 (1): 1,0,3,2</text>
</a>
</g>
</g>
<!-- 2 -->
<g id="node3" class="node"><title>2</title>
<g id="a_node3"><a xlink:title="2, diversity: 2, multiplicities: 6,6, labels: 1,0">
<ellipse fill="#f7fcf5" stroke="black" cx="226.047" cy="-18" rx="44.393" ry="18"/>
<text text-anchor="middle" x="226.047" y="-14.3" font-family="Times,serif" font-size="14.00">2 (2): 1,0</text>
</a>
</g>
</g>
<!-- 0&#45;&gt;2 -->
<g id="edge18" class="edge"><title>0&#45;&gt;2</title>
<path fill="none" stroke="black" d="M226.047,-71.6966C226.047,-63.9827 226.047,-54.7125 226.047,-46.1124"/>
<polygon fill="black" stroke="black" points="229.547,-46.1043 226.047,-36.1043 222.547,-46.1044 229.547,-46.1043"/>
</g>
<!-- 1 -->
<g id="node2" class="node"><title>1</title>
<g id="a_node2"><a xlink:title="1, diversity: 3, multiplicities: 4,40,650, labels: 1,0">
<ellipse fill="#f7fcf5" stroke="black" cx="177.047" cy="-450" rx="44.393" ry="18"/>
<text text-anchor="middle" x="177.047" y="-446.3" font-family="Times,serif" font-size="14.00">1 (3): 1,0</text>
</a>
</g>
</g>
<!-- 5 -->
<g id="node6" class="node"><title>5</title>
<g id="a_node6"><a xlink:title="5, diversity: 1, multiplicities: 8, labels: 1">
<ellipse fill="#c7e9c0" stroke="black" cx="37.0467" cy="-378" rx="37.0935" ry="18"/>
<text text-anchor="middle" x="37.0467" y="-374.3" font-family="Times,serif" font-size="14.00">5 (1): 1</text>
</a>
</g>
</g>
<!-- 1&#45;&gt;5 -->
<g id="edge12" class="edge"><title>1&#45;&gt;5</title>
<path fill="none" stroke="black" d="M150.053,-435.503C127.606,-424.28 95.5267,-408.24 71.2778,-396.116"/>
<polygon fill="black" stroke="black" points="72.5855,-392.856 62.0759,-391.515 69.4549,-399.117 72.5855,-392.856"/>
</g>
<!-- 9 -->
<g id="node10" class="node"><title>9</title>
<g id="a_node10"><a xlink:title="9, diversity: 1, multiplicities: 1, labels: 1">
<ellipse fill="#c7e9c0" stroke="black" cx="129.047" cy="-378" rx="37.0935" ry="18"/>
<text text-anchor="middle" x="129.047" y="-374.3" font-family="Times,serif" font-size="14.00">9 (1): 1</text>
</a>
</g>
</g>
<!-- 1&#45;&gt;9 -->
<g id="edge14" class="edge"><title>1&#45;&gt;9</title>
<path fill="none" stroke="black" d="M165.671,-432.411C159.813,-423.868 152.552,-413.278 146.044,-403.787"/>
<polygon fill="black" stroke="black" points="148.882,-401.738 140.34,-395.47 143.109,-405.697 148.882,-401.738"/>
</g>
<!-- 10 -->
<g id="node11" class="node"><title>10</title>
<g id="a_node11"><a xlink:title="10, diversity: 1, multiplicities: 3, labels: 1">
<ellipse fill="#c7e9c0" stroke="black" cx="226.047" cy="-378" rx="41.6928" ry="18"/>
<text text-anchor="middle" x="226.047" y="-374.3" font-family="Times,serif" font-size="14.00">10 (1): 1</text>
</a>
</g>
</g>
<!-- 1&#45;&gt;10 -->
<g id="edge16" class="edge"><title>1&#45;&gt;10</title>
<path fill="none" stroke="black" d="M188.659,-432.411C194.639,-423.868 202.052,-413.278 208.696,-403.787"/>
<polygon fill="black" stroke="black" points="211.65,-405.669 214.518,-395.47 205.916,-401.655 211.65,-405.669"/>
</g>
<!-- 13 -->
<g id="node14" class="node"><title>13</title>
<g id="a_node14"><a xlink:title="13, diversity: 1, multiplicities: 1, labels: 1">
<ellipse fill="#c7e9c0" stroke="black" cx="328.047" cy="-378" rx="41.6928" ry="18"/>
<text text-anchor="middle" x="328.047" y="-374.3" font-family="Times,serif" font-size="14.00">13 (1): 1</text>
</a>
</g>
</g>
<!-- 1&#45;&gt;13 -->
<g id="edge6" class="edge"><title>1&#45;&gt;13</title>
<path fill="none" stroke="black" d="M205.095,-435.998C229.402,-424.729 264.745,-408.345 291.306,-396.032"/>
<polygon fill="black" stroke="black" points="293.057,-399.078 300.658,-391.697 290.113,-392.727 293.057,-399.078"/>
</g>
<!-- 3 -->
<g id="node4" class="node"><title>3</title>
<g id="a_node4"><a xlink:title="3, diversity: 1, multiplicities: 12, labels: 1">
<ellipse fill="#c7e9c0" stroke="black" cx="226.047" cy="-162" rx="37.0935" ry="18"/>
<text text-anchor="middle" x="226.047" y="-158.3" font-family="Times,serif" font-size="14.00">3 (1): 1</text>
</a>
</g>
</g>
<!-- 3&#45;&gt;0 -->
<g id="edge5" class="edge"><title>3&#45;&gt;0</title>
<path fill="none" stroke="black" d="M226.047,-143.697C226.047,-135.983 226.047,-126.712 226.047,-118.112"/>
<polygon fill="black" stroke="black" points="229.547,-118.104 226.047,-108.104 222.547,-118.104 229.547,-118.104"/>
</g>
<!-- 4 -->
<g id="node5" class="node"><title>4</title>
<g id="a_node5"><a xlink:title="4, diversity: 1, multiplicities: 6, labels: 1">
<ellipse fill="#c7e9c0" stroke="black" cx="76.0467" cy="-522" rx="37.0935" ry="18"/>
<text text-anchor="middle" x="76.0467" y="-518.3" font-family="Times,serif" font-size="14.00">4 (1): 1</text>
</a>
</g>
</g>
<!-- 6 -->
<g id="node7" class="node"><title>6</title>
<g id="a_node7"><a xlink:title="6, diversity: 1, multiplicities: 1, labels: 0">
<ellipse fill="#f7fcf5" stroke="black" cx="329.047" cy="-306" rx="37.0935" ry="18"/>
<text text-anchor="middle" x="329.047" y="-302.3" font-family="Times,serif" font-size="14.00">6 (1): 0</text>
</a>
</g>
</g>
<!-- 8 -->
<g id="node9" class="node"><title>8</title>
<g id="a_node9"><a xlink:title="8, diversity: 1, multiplicities: 6, labels: 1,0">
<ellipse fill="#f7fcf5" stroke="black" cx="330.047" cy="-234" rx="44.393" ry="18"/>
<text text-anchor="middle" x="330.047" y="-230.3" font-family="Times,serif" font-size="14.00">8 (1): 1,0</text>
</a>
</g>
</g>
<!-- 6&#45;&gt;8 -->
<g id="edge4" class="edge"><title>6&#45;&gt;8</title>
<path fill="none" stroke="black" d="M329.294,-287.697C329.404,-279.983 329.537,-270.712 329.659,-262.112"/>
<polygon fill="black" stroke="black" points="333.159,-262.153 329.802,-252.104 326.16,-262.053 333.159,-262.153"/>
</g>
<!-- 7 -->
<g id="node8" class="node"><title>7</title>
<g id="a_node8"><a xlink:title="7, diversity: 2, multiplicities: 2,2, labels: 1,0">
<ellipse fill="#f7fcf5" stroke="black" cx="226.047" cy="-306" rx="44.393" ry="18"/>
<text text-anchor="middle" x="226.047" y="-302.3" font-family="Times,serif" font-size="14.00">7 (2): 1,0</text>
</a>
</g>
</g>
<!-- 16 -->
<g id="node17" class="node"><title>16</title>
<g id="a_node17"><a xlink:title="16, diversity: 1, multiplicities: 1, labels: 1">
<ellipse fill="#c7e9c0" stroke="black" cx="226.047" cy="-234" rx="41.6928" ry="18"/>
<text text-anchor="middle" x="226.047" y="-230.3" font-family="Times,serif" font-size="14.00">16 (1): 1</text>
</a>
</g>
</g>
<!-- 7&#45;&gt;16 -->
<g id="edge17" class="edge"><title>7&#45;&gt;16</title>
<path fill="none" stroke="black" d="M226.047,-287.697C226.047,-279.983 226.047,-270.712 226.047,-262.112"/>
<polygon fill="black" stroke="black" points="229.547,-262.104 226.047,-252.104 222.547,-262.104 229.547,-262.104"/>
</g>
<!-- 12 -->
<g id="node13" class="node"><title>12</title>
<g id="a_node13"><a xlink:title="12, diversity: 1, multiplicities: 66, labels: 1">
<ellipse fill="#c7e9c0" stroke="black" cx="122.047" cy="-306" rx="41.6928" ry="18"/>
<text text-anchor="middle" x="122.047" y="-302.3" font-family="Times,serif" font-size="14.00">12 (1): 1</text>
</a>
</g>
</g>
<!-- 9&#45;&gt;12 -->
<g id="edge19" class="edge"><title>9&#45;&gt;12</title>
<path fill="none" stroke="black" d="M127.316,-359.697C126.545,-351.983 125.618,-342.712 124.758,-334.112"/>
<polygon fill="black" stroke="black" points="128.235,-333.706 123.757,-324.104 121.27,-334.403 128.235,-333.706"/>
</g>
<!-- 10&#45;&gt;7 -->
<g id="edge15" class="edge"><title>10&#45;&gt;7</title>
<path fill="none" stroke="black" d="M226.047,-359.697C226.047,-351.983 226.047,-342.712 226.047,-334.112"/>
<polygon fill="black" stroke="black" points="229.547,-334.104 226.047,-324.104 222.547,-334.104 229.547,-334.104"/>
</g>
<!-- 11 -->
<g id="node12" class="node"><title>11</title>
<g id="a_node12"><a xlink:title="11, diversity: 1, multiplicities: 1, labels: 1">
<ellipse fill="#c7e9c0" stroke="black" cx="76.0467" cy="-594" rx="41.6928" ry="18"/>
<text text-anchor="middle" x="76.0467" y="-590.3" font-family="Times,serif" font-size="14.00">11 (1): 1</text>
</a>
</g>
</g>
<!-- 11&#45;&gt;4 -->
<g id="edge3" class="edge"><title>11&#45;&gt;4</title>
<path fill="none" stroke="black" d="M76.0467,-575.697C76.0467,-567.983 76.0467,-558.712 76.0467,-550.112"/>
<polygon fill="black" stroke="black" points="79.5468,-550.104 76.0467,-540.104 72.5468,-550.104 79.5468,-550.104"/>
</g>
<!-- 13&#45;&gt;6 -->
<g id="edge11" class="edge"><title>13&#45;&gt;6</title>
<path fill="none" stroke="black" d="M328.294,-359.697C328.404,-351.983 328.537,-342.712 328.659,-334.112"/>
<polygon fill="black" stroke="black" points="332.159,-334.153 328.802,-324.104 325.16,-334.053 332.159,-334.153"/>
</g>
<!-- 14 -->
<g id="node15" class="node"><title>14</title>
<g id="a_node15"><a xlink:title="14, diversity: 1, multiplicities: 13, labels: 1">
<ellipse fill="#c7e9c0" stroke="black" cx="126.047" cy="-666" rx="41.6928" ry="18"/>
<text text-anchor="middle" x="126.047" y="-662.3" font-family="Times,serif" font-size="14.00">14 (1): 1</text>
</a>
</g>
</g>
<!-- 14&#45;&gt;11 -->
<g id="edge1" class="edge"><title>14&#45;&gt;11</title>
<path fill="none" stroke="black" d="M114.197,-648.411C108.095,-639.868 100.531,-629.278 93.752,-619.787"/>
<polygon fill="black" stroke="black" points="96.4715,-617.573 87.811,-611.47 90.7753,-621.642 96.4715,-617.573"/>
</g>
<!-- 15 -->
<g id="node16" class="node"><title>15</title>
<g id="a_node16"><a xlink:title="15, diversity: 1, multiplicities: 18, labels: 1">
<ellipse fill="#c7e9c0" stroke="black" cx="177.047" cy="-594" rx="41.6928" ry="18"/>
<text text-anchor="middle" x="177.047" y="-590.3" font-family="Times,serif" font-size="14.00">15 (1): 1</text>
</a>
</g>
</g>
<!-- 14&#45;&gt;15 -->
<g id="edge13" class="edge"><title>14&#45;&gt;15</title>
<path fill="none" stroke="black" d="M138.133,-648.411C144.357,-639.868 152.072,-629.278 158.987,-619.787"/>
<polygon fill="black" stroke="black" points="161.987,-621.613 165.047,-611.47 156.33,-617.491 161.987,-621.613"/>
</g>
<!-- 17 -->
<g id="node18" class="node"><title>17</title>
<g id="a_node18"><a xlink:title="17, diversity: 1, multiplicities: 1, labels: 1">
<ellipse fill="#c7e9c0" stroke="black" cx="177.047" cy="-522" rx="41.6928" ry="18"/>
<text text-anchor="middle" x="177.047" y="-518.3" font-family="Times,serif" font-size="14.00">17 (1): 1</text>
</a>
</g>
</g>
<!-- 15&#45;&gt;17 -->
<g id="edge20" class="edge"><title>15&#45;&gt;17</title>
<path fill="none" stroke="black" d="M177.047,-575.697C177.047,-567.983 177.047,-558.712 177.047,-550.112"/>
<polygon fill="black" stroke="black" points="180.547,-550.104 177.047,-540.104 173.547,-550.104 180.547,-550.104"/>
</g>
<!-- 16&#45;&gt;3 -->
<g id="edge7" class="edge"><title>16&#45;&gt;3</title>
<path fill="none" stroke="black" d="M226.047,-215.697C226.047,-207.983 226.047,-198.712 226.047,-190.112"/>
<polygon fill="black" stroke="black" points="229.547,-190.104 226.047,-180.104 222.547,-190.104 229.547,-190.104"/>
</g>
<!-- 17&#45;&gt;1 -->
<g id="edge8" class="edge"><title>17&#45;&gt;1</title>
<path fill="none" stroke="black" d="M177.047,-503.697C177.047,-495.983 177.047,-486.712 177.047,-478.112"/>
<polygon fill="black" stroke="black" points="180.547,-478.104 177.047,-468.104 173.547,-478.104 180.547,-478.104"/>
</g>
<!-- 18 -->
<g id="node19" class="node"><title>18</title>
<g id="a_node19"><a xlink:title="18, diversity: 3, multiplicities: 2,5,534, labels: 1,0">
<ellipse fill="#f7fcf5" stroke="black" cx="176.047" cy="-810" rx="48.1917" ry="18"/>
<text text-anchor="middle" x="176.047" y="-806.3" font-family="Times,serif" font-size="14.00">18 (3): 1,0</text>
</a>
</g>
</g>
<!-- 19 -->
<g id="node20" class="node"><title>19</title>
<g id="a_node20"><a xlink:title="19, diversity: 1, multiplicities: 1, labels: 1">
<ellipse fill="#c7e9c0" stroke="black" cx="126.047" cy="-738" rx="41.6928" ry="18"/>
<text text-anchor="middle" x="126.047" y="-734.3" font-family="Times,serif" font-size="14.00">19 (1): 1</text>
</a>
</g>
</g>
<!-- 18&#45;&gt;19 -->
<g id="edge2" class="edge"><title>18&#45;&gt;19</title>
<path fill="none" stroke="black" d="M164.197,-792.411C158.095,-783.868 150.531,-773.278 143.752,-763.787"/>
<polygon fill="black" stroke="black" points="146.471,-761.573 137.811,-755.47 140.775,-765.642 146.471,-761.573"/>
</g>
<!-- 20 -->
<g id="node21" class="node"><title>20</title>
<g id="a_node21"><a xlink:title="20, diversity: 1, multiplicities: 35, labels: 1">
<ellipse fill="#c7e9c0" stroke="black" cx="227.047" cy="-738" rx="41.6928" ry="18"/>
<text text-anchor="middle" x="227.047" y="-734.3" font-family="Times,serif" font-size="14.00">20 (1): 1</text>
</a>
</g>
</g>
<!-- 18&#45;&gt;20 -->
<g id="edge10" class="edge"><title>18&#45;&gt;20</title>
<path fill="none" stroke="black" d="M188.133,-792.411C194.357,-783.868 202.072,-773.278 208.987,-763.787"/>
<polygon fill="black" stroke="black" points="211.987,-765.613 215.047,-755.47 206.33,-761.491 211.987,-765.613"/>
</g>
<!-- 19&#45;&gt;14 -->
<g id="edge9" class="edge"><title>19&#45;&gt;14</title>
<path fill="none" stroke="black" d="M126.047,-719.697C126.047,-711.983 126.047,-702.712 126.047,-694.112"/>
<polygon fill="black" stroke="black" points="129.547,-694.104 126.047,-684.104 122.547,-694.104 129.547,-694.104"/>
</g>
</g>
</svg>
