<?xml version="1.0" encoding="UTF-8" standalone="no"?>
<!DOCTYPE svg PUBLIC "-//W3C//DTD SVG 1.1//EN"
 "http://www.w3.org/Graphics/SVG/1.1/DTD/svg11.dtd">
<!-- Generated by graphviz version 2.38.0 (20140413.2041)
 -->
<!-- Title: %3 Pages: 1 -->
<svg width="999pt" height="404pt"
 viewBox="0.00 0.00 999.19 404.00" xmlns="http://www.w3.org/2000/svg" xmlns:xlink="http://www.w3.org/1999/xlink">
<g id="graph0" class="graph" transform="scale(1 1) rotate(0) translate(4 400)">
<title>%3</title>
<polygon fill="white" stroke="none" points="-4,4 -4,-400 995.193,-400 995.193,4 -4,4"/>
<!-- 0 -->
<g id="node1" class="node"><title>0</title>
<g id="a_node1"><a xlink:title="0, diversity: 4, multiplicities: 1,2,36,697, labels: 1,3,2">
<ellipse fill="#c7e9c0" stroke="black" cx="331.596" cy="-378" rx="50.8918" ry="18"/>
<text text-anchor="middle" x="331.596" y="-374.3" font-family="Times,serif" font-size="14.00">0 (4): 1,3,2</text>
</a>
</g>
</g>
<!-- 1 -->
<g id="node2" class="node"><title>1</title>
<g id="a_node2"><a xlink:title="1, diversity: 1, multiplicities: 3, labels: 3">
<ellipse fill="#228a44" stroke="black" cx="46.5963" cy="-306" rx="37.0935" ry="18"/>
<text text-anchor="middle" x="46.5963" y="-302.3" font-family="Times,serif" font-size="14.00">1 (1): 3</text>
</a>
</g>
</g>
<!-- 0&#45;&gt;1 -->
<g id="edge21" class="edge"><title>0&#45;&gt;1</title>
<path fill="none" stroke="black" d="M288.355,-368.411C241.35,-358.786 164.17,-342.135 98.5963,-324 94.3095,-322.814 89.8511,-321.494 85.4272,-320.127"/>
<polygon fill="black" stroke="black" points="86.4682,-316.786 75.8779,-317.096 84.3506,-323.458 86.4682,-316.786"/>
</g>
<!-- 4 -->
<g id="node5" class="node"><title>4</title>
<g id="a_node5"><a xlink:title="4, diversity: 1, multiplicities: 2, labels: 3">
<ellipse fill="#228a44" stroke="black" cx="144.596" cy="-306" rx="37.0935" ry="18"/>
<text text-anchor="middle" x="144.596" y="-302.3" font-family="Times,serif" font-size="14.00">4 (1): 3</text>
</a>
</g>
</g>
<!-- 0&#45;&gt;4 -->
<g id="edge12" class="edge"><title>0&#45;&gt;4</title>
<path fill="none" stroke="black" d="M297.732,-364.324C265.258,-352.167 216.311,-333.845 182.538,-321.203"/>
<polygon fill="black" stroke="black" points="183.603,-317.864 173.011,-317.637 181.149,-324.42 183.603,-317.864"/>
</g>
<!-- 5 -->
<g id="node6" class="node"><title>5</title>
<g id="a_node6"><a xlink:title="5, diversity: 1, multiplicities: 1, labels: 3">
<ellipse fill="#228a44" stroke="black" cx="239.596" cy="-306" rx="37.0935" ry="18"/>
<text text-anchor="middle" x="239.596" y="-302.3" font-family="Times,serif" font-size="14.00">5 (1): 3</text>
</a>
</g>
</g>
<!-- 0&#45;&gt;5 -->
<g id="edge27" class="edge"><title>0&#45;&gt;5</title>
<path fill="none" stroke="black" d="M311.179,-361.465C298.08,-351.498 280.923,-338.444 266.69,-327.615"/>
<polygon fill="black" stroke="black" points="268.778,-324.806 258.701,-321.536 264.54,-330.377 268.778,-324.806"/>
</g>
<!-- 6 -->
<g id="node7" class="node"><title>6</title>
<g id="a_node7"><a xlink:title="6, diversity: 2, multiplicities: 7,84, labels: 3">
<ellipse fill="#228a44" stroke="black" cx="331.596" cy="-306" rx="37.0935" ry="18"/>
<text text-anchor="middle" x="331.596" y="-302.3" font-family="Times,serif" font-size="14.00">6 (2): 3</text>
</a>
</g>
</g>
<!-- 0&#45;&gt;6 -->
<g id="edge24" class="edge"><title>0&#45;&gt;6</title>
<path fill="none" stroke="black" d="M331.596,-359.697C331.596,-351.983 331.596,-342.712 331.596,-334.112"/>
<polygon fill="black" stroke="black" points="335.096,-334.104 331.596,-324.104 328.096,-334.104 335.096,-334.104"/>
</g>
<!-- 8 -->
<g id="node9" class="node"><title>8</title>
<g id="a_node9"><a xlink:title="8, diversity: 1, multiplicities: 7, labels: 1">
<ellipse fill="#c7e9c0" stroke="black" cx="423.596" cy="-306" rx="37.0935" ry="18"/>
<text text-anchor="middle" x="423.596" y="-302.3" font-family="Times,serif" font-size="14.00">8 (1): 1</text>
</a>
</g>
</g>
<!-- 0&#45;&gt;8 -->
<g id="edge20" class="edge"><title>0&#45;&gt;8</title>
<path fill="none" stroke="black" d="M352.014,-361.465C365.113,-351.498 382.269,-338.444 396.502,-327.615"/>
<polygon fill="black" stroke="black" points="398.653,-330.377 404.492,-321.536 394.414,-324.806 398.653,-330.377"/>
</g>
<!-- 9 -->
<g id="node10" class="node"><title>9</title>
<g id="a_node10"><a xlink:title="9, diversity: 3, multiplicities: 1,2,3, labels: 3">
<ellipse fill="#228a44" stroke="black" cx="523.596" cy="-306" rx="37.0935" ry="18"/>
<text text-anchor="middle" x="523.596" y="-302.3" font-family="Times,serif" font-size="14.00">9 (3): 3</text>
</a>
</g>
</g>
<!-- 0&#45;&gt;9 -->
<g id="edge26" class="edge"><title>0&#45;&gt;9</title>
<path fill="none" stroke="black" d="M365.922,-364.485C399.399,-352.28 450.228,-333.749 485.07,-321.046"/>
<polygon fill="black" stroke="black" points="486.693,-324.18 494.889,-317.466 484.295,-317.603 486.693,-324.18"/>
</g>
<!-- 25 -->
<g id="node26" class="node"><title>25</title>
<g id="a_node26"><a xlink:title="25, diversity: 1, multiplicities: 1, labels: 3">
<ellipse fill="#228a44" stroke="black" cx="797.596" cy="-306" rx="41.6928" ry="18"/>
<text text-anchor="middle" x="797.596" y="-302.3" font-family="Times,serif" font-size="14.00">25 (1): 3</text>
</a>
</g>
</g>
<!-- 0&#45;&gt;25 -->
<g id="edge15" class="edge"><title>0&#45;&gt;25</title>
<path fill="none" stroke="black" d="M377.554,-370.097C465.882,-356.828 658.59,-327.881 748.974,-314.304"/>
<polygon fill="black" stroke="black" points="749.587,-317.751 758.956,-312.804 748.547,-310.829 749.587,-317.751"/>
</g>
<!-- 2 -->
<g id="node3" class="node"><title>2</title>
<g id="a_node3"><a xlink:title="2, diversity: 1, multiplicities: 1, labels: 3">
<ellipse fill="#228a44" stroke="black" cx="41.5963" cy="-234" rx="37.0935" ry="18"/>
<text text-anchor="middle" x="41.5963" y="-230.3" font-family="Times,serif" font-size="14.00">2 (1): 3</text>
</a>
</g>
</g>
<!-- 1&#45;&gt;2 -->
<g id="edge7" class="edge"><title>1&#45;&gt;2</title>
<path fill="none" stroke="black" d="M45.3604,-287.697C44.8094,-279.983 44.1472,-270.712 43.5329,-262.112"/>
<polygon fill="black" stroke="black" points="47.0217,-261.83 42.818,-252.104 40.0395,-262.328 47.0217,-261.83"/>
</g>
<!-- 16 -->
<g id="node17" class="node"><title>16</title>
<g id="a_node17"><a xlink:title="16, diversity: 1, multiplicities: 68, labels: 3">
<ellipse fill="#228a44" stroke="black" cx="41.5963" cy="-162" rx="41.6928" ry="18"/>
<text text-anchor="middle" x="41.5963" y="-158.3" font-family="Times,serif" font-size="14.00">16 (1): 3</text>
</a>
</g>
</g>
<!-- 2&#45;&gt;16 -->
<g id="edge13" class="edge"><title>2&#45;&gt;16</title>
<path fill="none" stroke="black" d="M41.5963,-215.697C41.5963,-207.983 41.5963,-198.712 41.5963,-190.112"/>
<polygon fill="black" stroke="black" points="45.0964,-190.104 41.5963,-180.104 38.0964,-190.104 45.0964,-190.104"/>
</g>
<!-- 3 -->
<g id="node4" class="node"><title>3</title>
<g id="a_node4"><a xlink:title="3, diversity: 1, multiplicities: 67, labels: 3">
<ellipse fill="#228a44" stroke="black" cx="133.596" cy="-234" rx="37.0935" ry="18"/>
<text text-anchor="middle" x="133.596" y="-230.3" font-family="Times,serif" font-size="14.00">3 (1): 3</text>
</a>
</g>
</g>
<!-- 4&#45;&gt;3 -->
<g id="edge25" class="edge"><title>4&#45;&gt;3</title>
<path fill="none" stroke="black" d="M141.877,-287.697C140.665,-279.983 139.208,-270.712 137.857,-262.112"/>
<polygon fill="black" stroke="black" points="141.294,-261.44 136.284,-252.104 134.379,-262.526 141.294,-261.44"/>
</g>
<!-- 7 -->
<g id="node8" class="node"><title>7</title>
<g id="a_node8"><a xlink:title="7, diversity: 1, multiplicities: 8, labels: 0,3">
<ellipse fill="#f7fcf5" stroke="black" cx="232.596" cy="-234" rx="44.393" ry="18"/>
<text text-anchor="middle" x="232.596" y="-230.3" font-family="Times,serif" font-size="14.00">7 (1): 0,3</text>
</a>
</g>
</g>
<!-- 5&#45;&gt;7 -->
<g id="edge23" class="edge"><title>5&#45;&gt;7</title>
<path fill="none" stroke="black" d="M237.866,-287.697C237.095,-279.983 236.168,-270.712 235.308,-262.112"/>
<polygon fill="black" stroke="black" points="238.784,-261.706 234.307,-252.104 231.819,-262.403 238.784,-261.706"/>
</g>
<!-- 23 -->
<g id="node24" class="node"><title>23</title>
<g id="a_node24"><a xlink:title="23, diversity: 1, multiplicities: 14, labels: 3">
<ellipse fill="#228a44" stroke="black" cx="336.596" cy="-234" rx="41.6928" ry="18"/>
<text text-anchor="middle" x="336.596" y="-230.3" font-family="Times,serif" font-size="14.00">23 (1): 3</text>
</a>
</g>
</g>
<!-- 5&#45;&gt;23 -->
<g id="edge6" class="edge"><title>5&#45;&gt;23</title>
<path fill="none" stroke="black" d="M259.695,-290.496C273.648,-280.427 292.442,-266.864 307.959,-255.666"/>
<polygon fill="black" stroke="black" points="310.129,-258.416 316.19,-249.726 306.033,-252.74 310.129,-258.416"/>
</g>
<!-- 10 -->
<g id="node11" class="node"><title>10</title>
<g id="a_node11"><a xlink:title="10, diversity: 1, multiplicities: 2, labels: 3">
<ellipse fill="#228a44" stroke="black" cx="437.596" cy="-234" rx="41.6928" ry="18"/>
<text text-anchor="middle" x="437.596" y="-230.3" font-family="Times,serif" font-size="14.00">10 (1): 3</text>
</a>
</g>
</g>
<!-- 9&#45;&gt;10 -->
<g id="edge17" class="edge"><title>9&#45;&gt;10</title>
<path fill="none" stroke="black" d="M505.358,-290.155C493.435,-280.45 477.66,-267.61 464.33,-256.76"/>
<polygon fill="black" stroke="black" points="466.368,-253.906 456.403,-250.308 461.949,-259.335 466.368,-253.906"/>
</g>
<!-- 17 -->
<g id="node18" class="node"><title>17</title>
<g id="a_node18"><a xlink:title="17, diversity: 1, multiplicities: 21, labels: 3">
<ellipse fill="#228a44" stroke="black" cx="538.596" cy="-234" rx="41.6928" ry="18"/>
<text text-anchor="middle" x="538.596" y="-230.3" font-family="Times,serif" font-size="14.00">17 (1): 3</text>
</a>
</g>
</g>
<!-- 9&#45;&gt;17 -->
<g id="edge11" class="edge"><title>9&#45;&gt;17</title>
<path fill="none" stroke="black" d="M527.227,-288.055C528.898,-280.261 530.92,-270.822 532.794,-262.079"/>
<polygon fill="black" stroke="black" points="536.221,-262.787 534.894,-252.275 529.377,-261.32 536.221,-262.787"/>
</g>
<!-- 18 -->
<g id="node19" class="node"><title>18</title>
<g id="a_node19"><a xlink:title="18, diversity: 1, multiplicities: 1, labels: 3">
<ellipse fill="#228a44" stroke="black" cx="639.596" cy="-234" rx="41.6928" ry="18"/>
<text text-anchor="middle" x="639.596" y="-230.3" font-family="Times,serif" font-size="14.00">18 (1): 3</text>
</a>
</g>
</g>
<!-- 9&#45;&gt;18 -->
<g id="edge4" class="edge"><title>9&#45;&gt;18</title>
<path fill="none" stroke="black" d="M545.962,-291.503C563.433,-280.961 587.945,-266.169 607.508,-254.364"/>
<polygon fill="black" stroke="black" points="609.351,-257.339 616.105,-249.176 605.734,-251.346 609.351,-257.339"/>
</g>
<!-- 11 -->
<g id="node12" class="node"><title>11</title>
<g id="a_node12"><a xlink:title="11, diversity: 1, multiplicities: 7, labels: 3">
<ellipse fill="#228a44" stroke="black" cx="437.596" cy="-162" rx="41.6928" ry="18"/>
<text text-anchor="middle" x="437.596" y="-158.3" font-family="Times,serif" font-size="14.00">11 (1): 3</text>
</a>
</g>
</g>
<!-- 10&#45;&gt;11 -->
<g id="edge2" class="edge"><title>10&#45;&gt;11</title>
<path fill="none" stroke="black" d="M437.596,-215.697C437.596,-207.983 437.596,-198.712 437.596,-190.112"/>
<polygon fill="black" stroke="black" points="441.096,-190.104 437.596,-180.104 434.096,-190.104 441.096,-190.104"/>
</g>
<!-- 12 -->
<g id="node13" class="node"><title>12</title>
<g id="a_node13"><a xlink:title="12, diversity: 1, multiplicities: 23, labels: 3,2">
<ellipse fill="#73c476" stroke="black" cx="747.596" cy="-162" rx="48.1917" ry="18"/>
<text text-anchor="middle" x="747.596" y="-158.3" font-family="Times,serif" font-size="14.00">12 (1): 3,2</text>
</a>
</g>
</g>
<!-- 13 -->
<g id="node14" class="node"><title>13</title>
<g id="a_node14"><a xlink:title="13, diversity: 1, multiplicities: 1, labels: 2">
<ellipse fill="#73c476" stroke="black" cx="747.596" cy="-234" rx="41.6928" ry="18"/>
<text text-anchor="middle" x="747.596" y="-230.3" font-family="Times,serif" font-size="14.00">13 (1): 2</text>
</a>
</g>
</g>
<!-- 13&#45;&gt;12 -->
<g id="edge8" class="edge"><title>13&#45;&gt;12</title>
<path fill="none" stroke="black" d="M747.596,-215.697C747.596,-207.983 747.596,-198.712 747.596,-190.112"/>
<polygon fill="black" stroke="black" points="751.096,-190.104 747.596,-180.104 744.096,-190.104 751.096,-190.104"/>
</g>
<!-- 14 -->
<g id="node15" class="node"><title>14</title>
<g id="a_node15"><a xlink:title="14, diversity: 2, multiplicities: 1,7, labels: 3">
<ellipse fill="#228a44" stroke="black" cx="41.5963" cy="-90" rx="41.6928" ry="18"/>
<text text-anchor="middle" x="41.5963" y="-86.3" font-family="Times,serif" font-size="14.00">14 (2): 3</text>
</a>
</g>
</g>
<!-- 15 -->
<g id="node16" class="node"><title>15</title>
<g id="a_node16"><a xlink:title="15, diversity: 1, multiplicities: 5, labels: 3">
<ellipse fill="#228a44" stroke="black" cx="41.5963" cy="-18" rx="41.6928" ry="18"/>
<text text-anchor="middle" x="41.5963" y="-14.3" font-family="Times,serif" font-size="14.00">15 (1): 3</text>
</a>
</g>
</g>
<!-- 14&#45;&gt;15 -->
<g id="edge18" class="edge"><title>14&#45;&gt;15</title>
<path fill="none" stroke="black" d="M41.5963,-71.6966C41.5963,-63.9827 41.5963,-54.7125 41.5963,-46.1124"/>
<polygon fill="black" stroke="black" points="45.0964,-46.1043 41.5963,-36.1043 38.0964,-46.1044 45.0964,-46.1043"/>
</g>
<!-- 16&#45;&gt;14 -->
<g id="edge5" class="edge"><title>16&#45;&gt;14</title>
<path fill="none" stroke="black" d="M41.5963,-143.697C41.5963,-135.983 41.5963,-126.712 41.5963,-118.112"/>
<polygon fill="black" stroke="black" points="45.0964,-118.104 41.5963,-108.104 38.0964,-118.104 45.0964,-118.104"/>
</g>
<!-- 19 -->
<g id="node20" class="node"><title>19</title>
<g id="a_node20"><a xlink:title="19, diversity: 1, multiplicities: 6, labels: 3">
<ellipse fill="#228a44" stroke="black" cx="538.596" cy="-162" rx="41.6928" ry="18"/>
<text text-anchor="middle" x="538.596" y="-158.3" font-family="Times,serif" font-size="14.00">19 (1): 3</text>
</a>
</g>
</g>
<!-- 18&#45;&gt;19 -->
<g id="edge3" class="edge"><title>18&#45;&gt;19</title>
<path fill="none" stroke="black" d="M618.177,-218.155C603.617,-208.064 584.165,-194.583 568.138,-183.474"/>
<polygon fill="black" stroke="black" points="569.851,-180.403 559.639,-177.584 565.864,-186.157 569.851,-180.403"/>
</g>
<!-- 27 -->
<g id="node28" class="node"><title>27</title>
<g id="a_node28"><a xlink:title="27, diversity: 1, multiplicities: 2, labels: 3">
<ellipse fill="#228a44" stroke="black" cx="639.596" cy="-162" rx="41.6928" ry="18"/>
<text text-anchor="middle" x="639.596" y="-158.3" font-family="Times,serif" font-size="14.00">27 (1): 3</text>
</a>
</g>
</g>
<!-- 18&#45;&gt;27 -->
<g id="edge10" class="edge"><title>18&#45;&gt;27</title>
<path fill="none" stroke="black" d="M639.596,-215.697C639.596,-207.983 639.596,-198.712 639.596,-190.112"/>
<polygon fill="black" stroke="black" points="643.096,-190.104 639.596,-180.104 636.096,-190.104 643.096,-190.104"/>
</g>
<!-- 20 -->
<g id="node21" class="node"><title>20</title>
<g id="a_node21"><a xlink:title="20, diversity: 1, multiplicities: 1, labels: 3">
<ellipse fill="#228a44" stroke="black" cx="855.596" cy="-162" rx="41.6928" ry="18"/>
<text text-anchor="middle" x="855.596" y="-158.3" font-family="Times,serif" font-size="14.00">20 (1): 3</text>
</a>
</g>
</g>
<!-- 22 -->
<g id="node23" class="node"><title>22</title>
<g id="a_node23"><a xlink:title="22, diversity: 1, multiplicities: 57, labels: 3">
<ellipse fill="#228a44" stroke="black" cx="855.596" cy="-90" rx="41.6928" ry="18"/>
<text text-anchor="middle" x="855.596" y="-86.3" font-family="Times,serif" font-size="14.00">22 (1): 3</text>
</a>
</g>
</g>
<!-- 20&#45;&gt;22 -->
<g id="edge14" class="edge"><title>20&#45;&gt;22</title>
<path fill="none" stroke="black" d="M855.596,-143.697C855.596,-135.983 855.596,-126.712 855.596,-118.112"/>
<polygon fill="black" stroke="black" points="859.096,-118.104 855.596,-108.104 852.096,-118.104 859.096,-118.104"/>
</g>
<!-- 21 -->
<g id="node22" class="node"><title>21</title>
<g id="a_node22"><a xlink:title="21, diversity: 2, multiplicities: 7,41, labels: 3">
<ellipse fill="#228a44" stroke="black" cx="848.596" cy="-234" rx="41.6928" ry="18"/>
<text text-anchor="middle" x="848.596" y="-230.3" font-family="Times,serif" font-size="14.00">21 (2): 3</text>
</a>
</g>
</g>
<!-- 21&#45;&gt;20 -->
<g id="edge16" class="edge"><title>21&#45;&gt;20</title>
<path fill="none" stroke="black" d="M850.327,-215.697C851.098,-207.983 852.025,-198.712 852.885,-190.112"/>
<polygon fill="black" stroke="black" points="856.373,-190.403 853.886,-180.104 849.408,-189.706 856.373,-190.403"/>
</g>
<!-- 24 -->
<g id="node25" class="node"><title>24</title>
<g id="a_node25"><a xlink:title="24, diversity: 1, multiplicities: 27, labels: 3">
<ellipse fill="#228a44" stroke="black" cx="949.596" cy="-234" rx="41.6928" ry="18"/>
<text text-anchor="middle" x="949.596" y="-230.3" font-family="Times,serif" font-size="14.00">24 (1): 3</text>
</a>
</g>
</g>
<!-- 25&#45;&gt;13 -->
<g id="edge9" class="edge"><title>25&#45;&gt;13</title>
<path fill="none" stroke="black" d="M785.747,-288.411C779.645,-279.868 772.081,-269.278 765.302,-259.787"/>
<polygon fill="black" stroke="black" points="768.021,-257.573 759.361,-251.47 762.325,-261.642 768.021,-257.573"/>
</g>
<!-- 25&#45;&gt;21 -->
<g id="edge19" class="edge"><title>25&#45;&gt;21</title>
<path fill="none" stroke="black" d="M809.683,-288.411C815.907,-279.868 823.622,-269.278 830.537,-259.787"/>
<polygon fill="black" stroke="black" points="833.537,-261.613 836.597,-251.47 827.879,-257.491 833.537,-261.613"/>
</g>
<!-- 25&#45;&gt;24 -->
<g id="edge22" class="edge"><title>25&#45;&gt;24</title>
<path fill="none" stroke="black" d="M825.122,-292.324C849.764,-280.975 886.075,-264.253 913.127,-251.795"/>
<polygon fill="black" stroke="black" points="914.656,-254.944 922.275,-247.582 911.728,-248.586 914.656,-254.944"/>
</g>
<!-- 26 -->
<g id="node27" class="node"><title>26</title>
<g id="a_node27"><a xlink:title="26, diversity: 1, multiplicities: 14, labels: 3">
<ellipse fill="#228a44" stroke="black" cx="639.596" cy="-90" rx="41.6928" ry="18"/>
<text text-anchor="middle" x="639.596" y="-86.3" font-family="Times,serif" font-size="14.00">26 (1): 3</text>
</a>
</g>
</g>
<!-- 27&#45;&gt;26 -->
<g id="edge1" class="edge"><title>27&#45;&gt;26</title>
<path fill="none" stroke="black" d="M639.596,-143.697C639.596,-135.983 639.596,-126.712 639.596,-118.112"/>
<polygon fill="black" stroke="black" points="643.096,-118.104 639.596,-108.104 636.096,-118.104 643.096,-118.104"/>
</g>
</g>
</svg>
