<?xml version="1.0" encoding="UTF-8" standalone="no"?>
<!DOCTYPE svg PUBLIC "-//W3C//DTD SVG 1.1//EN"
 "http://www.w3.org/Graphics/SVG/1.1/DTD/svg11.dtd">
<!-- Generated by graphviz version 2.38.0 (20140413.2041)
 -->
<!-- Title: %3 Pages: 1 -->
<svg width="667pt" height="764pt"
 viewBox="0.00 0.00 667.00 764.00" xmlns="http://www.w3.org/2000/svg" xmlns:xlink="http://www.w3.org/1999/xlink">
<g id="graph0" class="graph" transform="scale(1 1) rotate(0) translate(4 760)">
<title>%3</title>
<polygon fill="white" stroke="none" points="-4,4 -4,-760 663,-760 663,4 -4,4"/>
<!-- p0 -->
<g id="node1" class="node"><title>p0</title>
<path fill="none" stroke="black" d="M47,-540C47,-540 12,-540 12,-540 6,-540 0,-534 0,-528 0,-528 0,-516 0,-516 0,-510 6,-504 12,-504 12,-504 47,-504 47,-504 53,-504 59,-510 59,-516 59,-516 59,-528 59,-528 59,-534 53,-540 47,-540"/>
<text text-anchor="middle" x="29.5" y="-518.3" font-family="Times,serif" font-size="14.00">path (2)</text>
</g>
<!-- v2 -->
<g id="node2" class="node"><title>v2</title>
<ellipse fill="none" stroke="black" cx="104.5" cy="-522" rx="27" ry="18"/>
<text text-anchor="middle" x="104.5" y="-518.3" font-family="Times,serif" font-size="14.00">2</text>
</g>
<!-- v3 -->
<g id="node3" class="node"><title>v3</title>
<ellipse fill="none" stroke="black" cx="176.5" cy="-522" rx="27" ry="18"/>
<text text-anchor="middle" x="176.5" y="-518.3" font-family="Times,serif" font-size="14.00">3</text>
</g>
<!-- v4 -->
<g id="node4" class="node"><title>v4</title>
<ellipse fill="none" stroke="black" cx="248.5" cy="-522" rx="27" ry="18"/>
<text text-anchor="middle" x="248.5" y="-518.3" font-family="Times,serif" font-size="14.00">4</text>
</g>
<!-- v5 -->
<g id="node5" class="node"><title>v5</title>
<ellipse fill="none" stroke="black" cx="211.5" cy="-450" rx="27" ry="18"/>
<text text-anchor="middle" x="211.5" y="-446.3" font-family="Times,serif" font-size="14.00">5</text>
</g>
<!-- v4&#45;&gt;v5 -->
<g id="edge24" class="edge"><title>v4&#45;&gt;v5</title>
<path fill="none" stroke="black" d="M239.918,-504.765C235.435,-496.283 229.849,-485.714 224.819,-476.197"/>
<polygon fill="black" stroke="black" points="227.802,-474.353 220.035,-467.147 221.614,-477.624 227.802,-474.353"/>
</g>
<!-- p4 -->
<g id="node14" class="node"><title>p4</title>
<path fill="none" stroke="black" d="M304,-468C304,-468 269,-468 269,-468 263,-468 257,-462 257,-456 257,-456 257,-444 257,-444 257,-438 263,-432 269,-432 269,-432 304,-432 304,-432 310,-432 316,-438 316,-444 316,-444 316,-456 316,-456 316,-462 310,-468 304,-468"/>
<text text-anchor="middle" x="286.5" y="-446.3" font-family="Times,serif" font-size="14.00">path (3)</text>
</g>
<!-- v4&#45;&gt;p4 -->
<g id="edge10" class="edge"><title>v4&#45;&gt;p4</title>
<path fill="none" stroke="black" d="M257.313,-504.765C261.786,-496.525 267.328,-486.317 272.377,-477.016"/>
<polygon fill="black" stroke="black" points="275.509,-478.582 277.204,-468.124 269.357,-475.243 275.509,-478.582"/>
</g>
<!-- v6 -->
<g id="node6" class="node"><title>v6</title>
<ellipse fill="none" stroke="black" cx="122.5" cy="-594" rx="27" ry="18"/>
<text text-anchor="middle" x="122.5" y="-590.3" font-family="Times,serif" font-size="14.00">6</text>
</g>
<!-- v6&#45;&gt;p0 -->
<g id="edge25" class="edge"><title>v6&#45;&gt;p0</title>
<path fill="none" stroke="black" d="M105.007,-579.834C92.5158,-570.431 75.3742,-557.529 60.5806,-546.394"/>
<polygon fill="black" stroke="black" points="62.2891,-543.299 52.1946,-540.082 58.0795,-548.892 62.2891,-543.299"/>
</g>
<!-- v6&#45;&gt;v2 -->
<g id="edge8" class="edge"><title>v6&#45;&gt;v2</title>
<path fill="none" stroke="black" d="M118.143,-576.055C116.109,-568.145 113.639,-558.54 111.363,-549.688"/>
<polygon fill="black" stroke="black" points="114.697,-548.602 108.817,-539.789 107.918,-550.346 114.697,-548.602"/>
</g>
<!-- v6&#45;&gt;v3 -->
<g id="edge17" class="edge"><title>v6&#45;&gt;v3</title>
<path fill="none" stroke="black" d="M134.484,-577.465C141.476,-568.402 150.436,-556.786 158.285,-546.612"/>
<polygon fill="black" stroke="black" points="161.212,-548.548 164.549,-538.492 155.67,-544.272 161.212,-548.548"/>
</g>
<!-- v7 -->
<g id="node7" class="node"><title>v7</title>
<ellipse fill="none" stroke="black" cx="230.5" cy="-594" rx="27" ry="18"/>
<text text-anchor="middle" x="230.5" y="-590.3" font-family="Times,serif" font-size="14.00">7</text>
</g>
<!-- v7&#45;&gt;v4 -->
<g id="edge30" class="edge"><title>v7&#45;&gt;v4</title>
<path fill="none" stroke="black" d="M234.857,-576.055C236.891,-568.145 239.361,-558.54 241.637,-549.688"/>
<polygon fill="black" stroke="black" points="245.082,-550.346 244.183,-539.789 238.303,-548.602 245.082,-550.346"/>
</g>
<!-- v8 -->
<g id="node8" class="node"><title>v8</title>
<ellipse fill="none" stroke="black" cx="266.5" cy="-666" rx="27" ry="18"/>
<text text-anchor="middle" x="266.5" y="-662.3" font-family="Times,serif" font-size="14.00">8</text>
</g>
<!-- v8&#45;&gt;v6 -->
<g id="edge19" class="edge"><title>v8&#45;&gt;v6</title>
<path fill="none" stroke="black" d="M245.252,-654.671C220.898,-642.832 180.781,-623.331 153.072,-609.862"/>
<polygon fill="black" stroke="black" points="154.359,-606.595 143.835,-605.371 151.298,-612.891 154.359,-606.595"/>
</g>
<!-- v8&#45;&gt;v7 -->
<g id="edge26" class="edge"><title>v8&#45;&gt;v7</title>
<path fill="none" stroke="black" d="M258.15,-648.765C253.788,-640.283 248.353,-629.714 243.459,-620.197"/>
<polygon fill="black" stroke="black" points="246.49,-618.439 238.804,-611.147 240.265,-621.641 246.49,-618.439"/>
</g>
<!-- v43 -->
<g id="node30" class="node"><title>v43</title>
<ellipse fill="none" stroke="black" cx="302.5" cy="-594" rx="27" ry="18"/>
<text text-anchor="middle" x="302.5" y="-590.3" font-family="Times,serif" font-size="14.00">43</text>
</g>
<!-- v8&#45;&gt;v43 -->
<g id="edge29" class="edge"><title>v8&#45;&gt;v43</title>
<path fill="none" stroke="black" d="M274.85,-648.765C279.212,-640.283 284.647,-629.714 289.541,-620.197"/>
<polygon fill="black" stroke="black" points="292.735,-621.641 294.196,-611.147 286.51,-618.439 292.735,-621.641"/>
</g>
<!-- v46 -->
<g id="node32" class="node"><title>v46</title>
<ellipse fill="none" stroke="black" cx="374.5" cy="-594" rx="27" ry="18"/>
<text text-anchor="middle" x="374.5" y="-590.3" font-family="Times,serif" font-size="14.00">46</text>
</g>
<!-- v8&#45;&gt;v46 -->
<g id="edge21" class="edge"><title>v8&#45;&gt;v46</title>
<path fill="none" stroke="black" d="M285.312,-652.807C302.502,-641.665 328.118,-625.062 347.493,-612.504"/>
<polygon fill="black" stroke="black" points="349.416,-615.429 355.903,-607.053 345.608,-609.555 349.416,-615.429"/>
</g>
<!-- p1 -->
<g id="node9" class="node"><title>p1</title>
<path fill="none" stroke="black" d="M189,-180C189,-180 154,-180 154,-180 148,-180 142,-174 142,-168 142,-168 142,-156 142,-156 142,-150 148,-144 154,-144 154,-144 189,-144 189,-144 195,-144 201,-150 201,-156 201,-156 201,-168 201,-168 201,-174 195,-180 189,-180"/>
<text text-anchor="middle" x="171.5" y="-158.3" font-family="Times,serif" font-size="14.00">path (4)</text>
</g>
<!-- v14 -->
<g id="node12" class="node"><title>v14</title>
<ellipse fill="none" stroke="black" cx="171.5" cy="-90" rx="27" ry="18"/>
<text text-anchor="middle" x="171.5" y="-86.3" font-family="Times,serif" font-size="14.00">14</text>
</g>
<!-- p1&#45;&gt;v14 -->
<g id="edge22" class="edge"><title>p1&#45;&gt;v14</title>
<path fill="none" stroke="black" d="M171.5,-143.697C171.5,-135.983 171.5,-126.712 171.5,-118.112"/>
<polygon fill="black" stroke="black" points="175,-118.104 171.5,-108.104 168,-118.104 175,-118.104"/>
</g>
<!-- p2 -->
<g id="node10" class="node"><title>p2</title>
<path fill="none" stroke="black" d="M266,-180C266,-180 231,-180 231,-180 225,-180 219,-174 219,-168 219,-168 219,-156 219,-156 219,-150 225,-144 231,-144 231,-144 266,-144 266,-144 272,-144 278,-150 278,-156 278,-156 278,-168 278,-168 278,-174 272,-180 266,-180"/>
<text text-anchor="middle" x="248.5" y="-158.3" font-family="Times,serif" font-size="14.00">path (2)</text>
</g>
<!-- p3 -->
<g id="node11" class="node"><title>p3</title>
<path fill="none" stroke="black" d="M343,-180C343,-180 308,-180 308,-180 302,-180 296,-174 296,-168 296,-168 296,-156 296,-156 296,-150 302,-144 308,-144 308,-144 343,-144 343,-144 349,-144 355,-150 355,-156 355,-156 355,-168 355,-168 355,-174 349,-180 343,-180"/>
<text text-anchor="middle" x="325.5" y="-158.3" font-family="Times,serif" font-size="14.00">path (2)</text>
</g>
<!-- p7 -->
<g id="node20" class="node"><title>p7</title>
<path fill="none" stroke="black" d="M152,-36C152,-36 117,-36 117,-36 111,-36 105,-30 105,-24 105,-24 105,-12 105,-12 105,-6 111,-0 117,-0 117,-0 152,-0 152,-0 158,-0 164,-6 164,-12 164,-12 164,-24 164,-24 164,-30 158,-36 152,-36"/>
<text text-anchor="middle" x="134.5" y="-14.3" font-family="Times,serif" font-size="14.00">path (4)</text>
</g>
<!-- v14&#45;&gt;p7 -->
<g id="edge16" class="edge"><title>v14&#45;&gt;p7</title>
<path fill="none" stroke="black" d="M162.918,-72.7646C158.563,-64.5255 153.167,-54.3166 148.251,-45.0157"/>
<polygon fill="black" stroke="black" points="151.319,-43.3293 143.551,-36.1239 145.13,-46.6005 151.319,-43.3293"/>
</g>
<!-- v28 -->
<g id="node21" class="node"><title>v28</title>
<ellipse fill="none" stroke="black" cx="209.5" cy="-18" rx="27" ry="18"/>
<text text-anchor="middle" x="209.5" y="-14.3" font-family="Times,serif" font-size="14.00">28</text>
</g>
<!-- v14&#45;&gt;v28 -->
<g id="edge3" class="edge"><title>v14&#45;&gt;v28</title>
<path fill="none" stroke="black" d="M180.313,-72.7646C184.918,-64.2831 190.655,-53.7144 195.821,-44.1974"/>
<polygon fill="black" stroke="black" points="199.039,-45.6057 200.734,-35.1473 192.887,-42.266 199.039,-45.6057"/>
</g>
<!-- v15 -->
<g id="node13" class="node"><title>v15</title>
<ellipse fill="none" stroke="black" cx="402.5" cy="-234" rx="27" ry="18"/>
<text text-anchor="middle" x="402.5" y="-230.3" font-family="Times,serif" font-size="14.00">15</text>
</g>
<!-- v15&#45;&gt;p1 -->
<g id="edge32" class="edge"><title>v15&#45;&gt;p1</title>
<path fill="none" stroke="black" d="M377.136,-227.343C341.619,-219.142 275.002,-202.746 210.666,-180.175"/>
<polygon fill="black" stroke="black" points="211.79,-176.86 201.195,-176.8 209.44,-183.454 211.79,-176.86"/>
</g>
<!-- v15&#45;&gt;p2 -->
<g id="edge18" class="edge"><title>v15&#45;&gt;p2</title>
<path fill="none" stroke="black" d="M380.762,-223.119C356.523,-212.101 316.84,-194.064 287.255,-180.616"/>
<polygon fill="black" stroke="black" points="288.588,-177.377 278.036,-176.426 285.691,-183.75 288.588,-177.377"/>
</g>
<!-- v15&#45;&gt;p3 -->
<g id="edge12" class="edge"><title>v15&#45;&gt;p3</title>
<path fill="none" stroke="black" d="M386.918,-218.834C376.921,-209.746 363.682,-197.71 352.055,-187.141"/>
<polygon fill="black" stroke="black" points="354.078,-184.25 344.324,-180.113 349.369,-189.429 354.078,-184.25"/>
</g>
<!-- p8 -->
<g id="node22" class="node"><title>p8</title>
<path fill="none" stroke="black" d="M420,-180C420,-180 385,-180 385,-180 379,-180 373,-174 373,-168 373,-168 373,-156 373,-156 373,-150 379,-144 385,-144 385,-144 420,-144 420,-144 426,-144 432,-150 432,-156 432,-156 432,-168 432,-168 432,-174 426,-180 420,-180"/>
<text text-anchor="middle" x="402.5" y="-158.3" font-family="Times,serif" font-size="14.00">path (2)</text>
</g>
<!-- v15&#45;&gt;p8 -->
<g id="edge6" class="edge"><title>v15&#45;&gt;p8</title>
<path fill="none" stroke="black" d="M402.5,-215.697C402.5,-207.983 402.5,-198.712 402.5,-190.112"/>
<polygon fill="black" stroke="black" points="406,-190.104 402.5,-180.104 399,-190.104 406,-190.104"/>
</g>
<!-- v34 -->
<g id="node23" class="node"><title>v34</title>
<ellipse fill="none" stroke="black" cx="477.5" cy="-162" rx="27" ry="18"/>
<text text-anchor="middle" x="477.5" y="-158.3" font-family="Times,serif" font-size="14.00">34</text>
</g>
<!-- v15&#45;&gt;v34 -->
<g id="edge23" class="edge"><title>v15&#45;&gt;v34</title>
<path fill="none" stroke="black" d="M417.677,-218.834C428.351,-208.872 442.819,-195.369 454.853,-184.137"/>
<polygon fill="black" stroke="black" points="457.423,-186.526 462.345,-177.144 452.646,-181.409 457.423,-186.526"/>
</g>
<!-- p9 -->
<g id="node24" class="node"><title>p9</title>
<path fill="none" stroke="black" d="M570,-180C570,-180 535,-180 535,-180 529,-180 523,-174 523,-168 523,-168 523,-156 523,-156 523,-150 529,-144 535,-144 535,-144 570,-144 570,-144 576,-144 582,-150 582,-156 582,-156 582,-168 582,-168 582,-174 576,-180 570,-180"/>
<text text-anchor="middle" x="552.5" y="-158.3" font-family="Times,serif" font-size="14.00">path (3)</text>
</g>
<!-- v15&#45;&gt;p9 -->
<g id="edge14" class="edge"><title>v15&#45;&gt;p9</title>
<path fill="none" stroke="black" d="M423.991,-222.971C447.281,-212.102 484.935,-194.53 513.479,-181.21"/>
<polygon fill="black" stroke="black" points="515.193,-184.272 522.775,-176.872 512.233,-177.929 515.193,-184.272"/>
</g>
<!-- p11 -->
<g id="node28" class="node"><title>p11</title>
<path fill="none" stroke="black" d="M647,-180C647,-180 612,-180 612,-180 606,-180 600,-174 600,-168 600,-168 600,-156 600,-156 600,-150 606,-144 612,-144 612,-144 647,-144 647,-144 653,-144 659,-150 659,-156 659,-156 659,-168 659,-168 659,-174 653,-180 647,-180"/>
<text text-anchor="middle" x="629.5" y="-158.3" font-family="Times,serif" font-size="14.00">path (2)</text>
</g>
<!-- v15&#45;&gt;p11 -->
<g id="edge31" class="edge"><title>v15&#45;&gt;p11</title>
<path fill="none" stroke="black" d="M427.473,-227.113C463.81,-218.289 533.174,-200.467 590.5,-180 590.596,-179.966 590.691,-179.932 590.787,-179.897"/>
<polygon fill="black" stroke="black" points="591.774,-183.267 599.857,-176.418 589.267,-176.732 591.774,-183.267"/>
</g>
<!-- v18 -->
<g id="node15" class="node"><title>v18</title>
<ellipse fill="none" stroke="black" cx="286.5" cy="-378" rx="27" ry="18"/>
<text text-anchor="middle" x="286.5" y="-374.3" font-family="Times,serif" font-size="14.00">18</text>
</g>
<!-- p4&#45;&gt;v18 -->
<g id="edge27" class="edge"><title>p4&#45;&gt;v18</title>
<path fill="none" stroke="black" d="M286.5,-431.697C286.5,-423.983 286.5,-414.712 286.5,-406.112"/>
<polygon fill="black" stroke="black" points="290,-406.104 286.5,-396.104 283,-406.104 290,-406.104"/>
</g>
<!-- v19 -->
<g id="node16" class="node"><title>v19</title>
<ellipse fill="none" stroke="black" cx="101.5" cy="-306" rx="27" ry="18"/>
<text text-anchor="middle" x="101.5" y="-302.3" font-family="Times,serif" font-size="14.00">19</text>
</g>
<!-- v18&#45;&gt;v19 -->
<g id="edge9" class="edge"><title>v18&#45;&gt;v19</title>
<path fill="none" stroke="black" d="M262.742,-369.361C233.104,-359.646 181.025,-341.966 137.5,-324 135.679,-323.248 133.818,-322.453 131.947,-321.634"/>
<polygon fill="black" stroke="black" points="133.216,-318.367 122.664,-317.422 130.324,-324.741 133.216,-318.367"/>
</g>
<!-- v20 -->
<g id="node17" class="node"><title>v20</title>
<ellipse fill="none" stroke="black" cx="173.5" cy="-306" rx="27" ry="18"/>
<text text-anchor="middle" x="173.5" y="-302.3" font-family="Times,serif" font-size="14.00">20</text>
</g>
<!-- v18&#45;&gt;v20 -->
<g id="edge20" class="edge"><title>v18&#45;&gt;v20</title>
<path fill="none" stroke="black" d="M267.331,-365.125C249.23,-353.913 221.877,-336.968 201.367,-324.263"/>
<polygon fill="black" stroke="black" points="203.107,-321.224 192.763,-318.933 199.421,-327.174 203.107,-321.224"/>
</g>
<!-- p5 -->
<g id="node18" class="node"><title>p5</title>
<path fill="none" stroke="black" d="M266,-324C266,-324 231,-324 231,-324 225,-324 219,-318 219,-312 219,-312 219,-300 219,-300 219,-294 225,-288 231,-288 231,-288 266,-288 266,-288 272,-288 278,-294 278,-300 278,-300 278,-312 278,-312 278,-318 272,-324 266,-324"/>
<text text-anchor="middle" x="248.5" y="-302.3" font-family="Times,serif" font-size="14.00">path (3)</text>
</g>
<!-- v18&#45;&gt;p5 -->
<g id="edge11" class="edge"><title>v18&#45;&gt;p5</title>
<path fill="none" stroke="black" d="M277.687,-360.765C273.214,-352.525 267.672,-342.317 262.623,-333.016"/>
<polygon fill="black" stroke="black" points="265.643,-331.243 257.796,-324.124 259.491,-334.582 265.643,-331.243"/>
</g>
<!-- p6 -->
<g id="node19" class="node"><title>p6</title>
<path fill="none" stroke="black" d="M343,-324C343,-324 308,-324 308,-324 302,-324 296,-318 296,-312 296,-312 296,-300 296,-300 296,-294 302,-288 308,-288 308,-288 343,-288 343,-288 349,-288 355,-294 355,-300 355,-300 355,-312 355,-312 355,-318 349,-324 343,-324"/>
<text text-anchor="middle" x="325.5" y="-302.3" font-family="Times,serif" font-size="14.00">path (2)</text>
</g>
<!-- v18&#45;&gt;p6 -->
<g id="edge28" class="edge"><title>v18&#45;&gt;p6</title>
<path fill="none" stroke="black" d="M295.545,-360.765C300.136,-352.525 305.824,-342.317 311.006,-333.016"/>
<polygon fill="black" stroke="black" points="314.15,-334.563 315.96,-324.124 308.035,-331.156 314.15,-334.563"/>
</g>
<!-- p10 -->
<g id="node27" class="node"><title>p10</title>
<path fill="none" stroke="black" d="M420,-324C420,-324 385,-324 385,-324 379,-324 373,-318 373,-312 373,-312 373,-300 373,-300 373,-294 379,-288 385,-288 385,-288 420,-288 420,-288 426,-288 432,-294 432,-300 432,-300 432,-312 432,-312 432,-318 426,-324 420,-324"/>
<text text-anchor="middle" x="402.5" y="-302.3" font-family="Times,serif" font-size="14.00">path (2)</text>
</g>
<!-- v18&#45;&gt;p10 -->
<g id="edge7" class="edge"><title>v18&#45;&gt;p10</title>
<path fill="none" stroke="black" d="M305.916,-365.284C322.136,-355.496 345.724,-341.262 365.528,-329.311"/>
<polygon fill="black" stroke="black" points="367.568,-332.168 374.321,-324.004 363.951,-326.174 367.568,-332.168"/>
</g>
<!-- v44 -->
<g id="node31" class="node"><title>v44</title>
<ellipse fill="none" stroke="black" cx="477.5" cy="-306" rx="27" ry="18"/>
<text text-anchor="middle" x="477.5" y="-302.3" font-family="Times,serif" font-size="14.00">44</text>
</g>
<!-- v18&#45;&gt;v44 -->
<g id="edge2" class="edge"><title>v18&#45;&gt;v44</title>
<path fill="none" stroke="black" d="M310.513,-369.552C341.042,-359.898 395.224,-342.14 440.5,-324 442.579,-323.167 444.711,-322.28 446.85,-321.364"/>
<polygon fill="black" stroke="black" points="448.408,-324.502 456.135,-317.253 445.574,-318.101 448.408,-324.502"/>
</g>
<!-- v36 -->
<g id="node25" class="node"><title>v36</title>
<ellipse fill="none" stroke="black" cx="374.5" cy="-738" rx="27" ry="18"/>
<text text-anchor="middle" x="374.5" y="-734.3" font-family="Times,serif" font-size="14.00">36</text>
</g>
<!-- v36&#45;&gt;v8 -->
<g id="edge13" class="edge"><title>v36&#45;&gt;v8</title>
<path fill="none" stroke="black" d="M355.688,-724.807C338.498,-713.665 312.882,-697.062 293.507,-684.504"/>
<polygon fill="black" stroke="black" points="295.392,-681.555 285.097,-679.053 291.584,-687.429 295.392,-681.555"/>
</g>
<!-- v37 -->
<g id="node26" class="node"><title>v37</title>
<ellipse fill="none" stroke="black" cx="338.5" cy="-666" rx="27" ry="18"/>
<text text-anchor="middle" x="338.5" y="-662.3" font-family="Times,serif" font-size="14.00">37</text>
</g>
<!-- v36&#45;&gt;v37 -->
<g id="edge4" class="edge"><title>v36&#45;&gt;v37</title>
<path fill="none" stroke="black" d="M366.15,-720.765C361.788,-712.283 356.353,-701.714 351.459,-692.197"/>
<polygon fill="black" stroke="black" points="354.49,-690.439 346.804,-683.147 348.265,-693.641 354.49,-690.439"/>
</g>
<!-- v42 -->
<g id="node29" class="node"><title>v42</title>
<ellipse fill="none" stroke="black" cx="410.5" cy="-666" rx="27" ry="18"/>
<text text-anchor="middle" x="410.5" y="-662.3" font-family="Times,serif" font-size="14.00">42</text>
</g>
<!-- v36&#45;&gt;v42 -->
<g id="edge1" class="edge"><title>v36&#45;&gt;v42</title>
<path fill="none" stroke="black" d="M382.85,-720.765C387.212,-712.283 392.647,-701.714 397.541,-692.197"/>
<polygon fill="black" stroke="black" points="400.735,-693.641 402.196,-683.147 394.51,-690.439 400.735,-693.641"/>
</g>
<!-- v47 -->
<g id="node33" class="node"><title>v47</title>
<ellipse fill="none" stroke="black" cx="482.5" cy="-666" rx="27" ry="18"/>
<text text-anchor="middle" x="482.5" y="-662.3" font-family="Times,serif" font-size="14.00">47</text>
</g>
<!-- v36&#45;&gt;v47 -->
<g id="edge15" class="edge"><title>v36&#45;&gt;v47</title>
<path fill="none" stroke="black" d="M393.312,-724.807C410.502,-713.665 436.118,-697.062 455.493,-684.504"/>
<polygon fill="black" stroke="black" points="457.416,-687.429 463.903,-679.053 453.608,-681.555 457.416,-687.429"/>
</g>
<!-- p10&#45;&gt;v15 -->
<g id="edge5" class="edge"><title>p10&#45;&gt;v15</title>
<path fill="none" stroke="black" d="M402.5,-287.697C402.5,-279.983 402.5,-270.712 402.5,-262.112"/>
<polygon fill="black" stroke="black" points="406,-262.104 402.5,-252.104 399,-262.104 406,-262.104"/>
</g>
</g>
</svg>
