<?xml version="1.0" encoding="UTF-8" standalone="no"?>
<!DOCTYPE svg PUBLIC "-//W3C//DTD SVG 1.1//EN"
 "http://www.w3.org/Graphics/SVG/1.1/DTD/svg11.dtd">
<!-- Generated by graphviz version 2.38.0 (20140413.2041)
 -->
<!-- Title: %3 Pages: 1 -->
<svg width="630pt" height="260pt"
 viewBox="0.00 0.00 630.00 260.00" xmlns="http://www.w3.org/2000/svg" xmlns:xlink="http://www.w3.org/1999/xlink">
<g id="graph0" class="graph" transform="scale(1 1) rotate(0) translate(4 256)">
<title>%3</title>
<polygon fill="white" stroke="none" points="-4,4 -4,-256 626,-256 626,4 -4,4"/>
<!-- p0 -->
<g id="node1" class="node"><title>p0</title>
<path fill="none" stroke="black" d="M47,-36C47,-36 12,-36 12,-36 6,-36 0,-30 0,-24 0,-24 0,-12 0,-12 0,-6 6,-0 12,-0 12,-0 47,-0 47,-0 53,-0 59,-6 59,-12 59,-12 59,-24 59,-24 59,-30 53,-36 47,-36"/>
<text text-anchor="middle" x="29.5" y="-14.3" font-family="Times,serif" font-size="14.00">path (7)</text>
</g>
<!-- v1 -->
<g id="node2" class="node"><title>v1</title>
<ellipse fill="none" stroke="black" cx="67.5" cy="-90" rx="27" ry="18"/>
<text text-anchor="middle" x="67.5" y="-86.3" font-family="Times,serif" font-size="14.00">1</text>
</g>
<!-- v1&#45;&gt;p0 -->
<g id="edge2" class="edge"><title>v1&#45;&gt;p0</title>
<path fill="none" stroke="black" d="M58.6865,-72.7646C54.2138,-64.5255 48.6719,-54.3166 43.6228,-45.0157"/>
<polygon fill="black" stroke="black" points="46.6428,-43.2426 38.7958,-36.1239 40.4908,-46.5823 46.6428,-43.2426"/>
</g>
<!-- p3 -->
<g id="node11" class="node"><title>p3</title>
<path fill="none" stroke="black" d="M124,-36C124,-36 89,-36 89,-36 83,-36 77,-30 77,-24 77,-24 77,-12 77,-12 77,-6 83,-0 89,-0 89,-0 124,-0 124,-0 130,-0 136,-6 136,-12 136,-12 136,-24 136,-24 136,-30 130,-36 124,-36"/>
<text text-anchor="middle" x="106.5" y="-14.3" font-family="Times,serif" font-size="14.00">path (8)</text>
</g>
<!-- v1&#45;&gt;p3 -->
<g id="edge9" class="edge"><title>v1&#45;&gt;p3</title>
<path fill="none" stroke="black" d="M76.5454,-72.7646C81.1358,-64.5255 86.8236,-54.3166 92.0056,-45.0157"/>
<polygon fill="black" stroke="black" points="95.1499,-46.5631 96.9595,-36.1239 89.035,-43.1561 95.1499,-46.5631"/>
</g>
<!-- v2 -->
<g id="node3" class="node"><title>v2</title>
<ellipse fill="none" stroke="black" cx="139.5" cy="-90" rx="27" ry="18"/>
<text text-anchor="middle" x="139.5" y="-86.3" font-family="Times,serif" font-size="14.00">2</text>
</g>
<!-- p1 -->
<g id="node4" class="node"><title>p1</title>
<path fill="none" stroke="black" d="M232,-108C232,-108 197,-108 197,-108 191,-108 185,-102 185,-96 185,-96 185,-84 185,-84 185,-78 191,-72 197,-72 197,-72 232,-72 232,-72 238,-72 244,-78 244,-84 244,-84 244,-96 244,-96 244,-102 238,-108 232,-108"/>
<text text-anchor="middle" x="214.5" y="-86.3" font-family="Times,serif" font-size="14.00">path (2)</text>
</g>
<!-- p2 -->
<g id="node5" class="node"><title>p2</title>
<path fill="none" stroke="black" d="M316.5,-108C316.5,-108 274.5,-108 274.5,-108 268.5,-108 262.5,-102 262.5,-96 262.5,-96 262.5,-84 262.5,-84 262.5,-78 268.5,-72 274.5,-72 274.5,-72 316.5,-72 316.5,-72 322.5,-72 328.5,-78 328.5,-84 328.5,-84 328.5,-96 328.5,-96 328.5,-102 322.5,-108 316.5,-108"/>
<text text-anchor="middle" x="295.5" y="-86.3" font-family="Times,serif" font-size="14.00">path (11)</text>
</g>
<!-- v5 -->
<g id="node6" class="node"><title>v5</title>
<ellipse fill="none" stroke="black" cx="373.5" cy="-90" rx="27" ry="18"/>
<text text-anchor="middle" x="373.5" y="-86.3" font-family="Times,serif" font-size="14.00">5</text>
</g>
<!-- v6 -->
<g id="node7" class="node"><title>v6</title>
<ellipse fill="none" stroke="black" cx="334.5" cy="-162" rx="27" ry="18"/>
<text text-anchor="middle" x="334.5" y="-158.3" font-family="Times,serif" font-size="14.00">6</text>
</g>
<!-- v6&#45;&gt;v1 -->
<g id="edge8" class="edge"><title>v6&#45;&gt;v1</title>
<path fill="none" stroke="black" d="M308.352,-156.896C264.993,-149.673 175.819,-133.043 103.5,-108 101.59,-107.338 99.6458,-106.606 97.7011,-105.828"/>
<polygon fill="black" stroke="black" points="98.6882,-102.441 88.1216,-101.669 95.9003,-108.862 98.6882,-102.441"/>
</g>
<!-- v6&#45;&gt;v2 -->
<g id="edge3" class="edge"><title>v6&#45;&gt;v2</title>
<path fill="none" stroke="black" d="M310.203,-153.89C278.732,-144.458 222.355,-126.794 175.5,-108 173.672,-107.267 171.804,-106.486 169.929,-105.677"/>
<polygon fill="black" stroke="black" points="171.19,-102.407 160.634,-101.494 168.317,-108.79 171.19,-102.407"/>
</g>
<!-- v6&#45;&gt;p1 -->
<g id="edge7" class="edge"><title>v6&#45;&gt;p1</title>
<path fill="none" stroke="black" d="M314.684,-149.441C297.868,-139.631 273.257,-125.275 252.637,-113.247"/>
<polygon fill="black" stroke="black" points="254.185,-110.097 243.783,-108.082 250.658,-116.144 254.185,-110.097"/>
</g>
<!-- v6&#45;&gt;p2 -->
<g id="edge10" class="edge"><title>v6&#45;&gt;p2</title>
<path fill="none" stroke="black" d="M325.455,-144.765C320.864,-136.525 315.176,-126.317 309.994,-117.016"/>
<polygon fill="black" stroke="black" points="312.965,-115.156 305.04,-108.124 306.85,-118.563 312.965,-115.156"/>
</g>
<!-- v6&#45;&gt;v5 -->
<g id="edge11" class="edge"><title>v6&#45;&gt;v5</title>
<path fill="none" stroke="black" d="M343.545,-144.765C348.32,-136.195 354.282,-125.494 359.627,-115.9"/>
<polygon fill="black" stroke="black" points="362.694,-117.586 364.504,-107.147 356.579,-114.18 362.694,-117.586"/>
</g>
<!-- v9 -->
<g id="node9" class="node"><title>v9</title>
<ellipse fill="none" stroke="black" cx="445.5" cy="-90" rx="27" ry="18"/>
<text text-anchor="middle" x="445.5" y="-86.3" font-family="Times,serif" font-size="14.00">9</text>
</g>
<!-- v6&#45;&gt;v9 -->
<g id="edge1" class="edge"><title>v6&#45;&gt;v9</title>
<path fill="none" stroke="black" d="M353.582,-148.967C371.213,-137.848 397.623,-121.193 417.616,-108.585"/>
<polygon fill="black" stroke="black" points="419.704,-111.405 426.296,-103.111 415.97,-105.484 419.704,-111.405"/>
</g>
<!-- v10 -->
<g id="node10" class="node"><title>v10</title>
<ellipse fill="none" stroke="black" cx="517.5" cy="-90" rx="27" ry="18"/>
<text text-anchor="middle" x="517.5" y="-86.3" font-family="Times,serif" font-size="14.00">10</text>
</g>
<!-- v6&#45;&gt;v10 -->
<g id="edge5" class="edge"><title>v6&#45;&gt;v10</title>
<path fill="none" stroke="black" d="M358.186,-153.236C387.461,-143.463 438.657,-125.792 481.5,-108 483.319,-107.245 485.18,-106.447 487.049,-105.625"/>
<polygon fill="black" stroke="black" points="488.674,-108.731 496.33,-101.407 485.778,-102.358 488.674,-108.731"/>
</g>
<!-- p4 -->
<g id="node12" class="node"><title>p4</title>
<path fill="none" stroke="black" d="M610,-108C610,-108 575,-108 575,-108 569,-108 563,-102 563,-96 563,-96 563,-84 563,-84 563,-78 569,-72 575,-72 575,-72 610,-72 610,-72 616,-72 622,-78 622,-84 622,-84 622,-96 622,-96 622,-102 616,-108 610,-108"/>
<text text-anchor="middle" x="592.5" y="-86.3" font-family="Times,serif" font-size="14.00">path (2)</text>
</g>
<!-- v6&#45;&gt;p4 -->
<g id="edge6" class="edge"><title>v6&#45;&gt;p4</title>
<path fill="none" stroke="black" d="M360.198,-156.288C401.534,-148.374 485.088,-130.995 553.5,-108 553.596,-107.968 553.693,-107.935 553.789,-107.903"/>
<polygon fill="black" stroke="black" points="554.732,-111.286 562.898,-104.536 552.305,-104.72 554.732,-111.286"/>
</g>
<!-- v7 -->
<g id="node8" class="node"><title>v7</title>
<ellipse fill="none" stroke="black" cx="334.5" cy="-234" rx="27" ry="18"/>
<text text-anchor="middle" x="334.5" y="-230.3" font-family="Times,serif" font-size="14.00">7</text>
</g>
<!-- v7&#45;&gt;v6 -->
<g id="edge4" class="edge"><title>v7&#45;&gt;v6</title>
<path fill="none" stroke="black" d="M334.5,-215.697C334.5,-207.983 334.5,-198.712 334.5,-190.112"/>
<polygon fill="black" stroke="black" points="338,-190.104 334.5,-180.104 331,-190.104 338,-190.104"/>
</g>
</g>
</svg>
