<?xml version="1.0" encoding="UTF-8" standalone="no"?>
<!DOCTYPE svg PUBLIC "-//W3C//DTD SVG 1.1//EN"
 "http://www.w3.org/Graphics/SVG/1.1/DTD/svg11.dtd">
<!-- Generated by graphviz version 2.38.0 (20140413.2041)
 -->
<!-- Title: %3 Pages: 1 -->
<svg width="215pt" height="404pt"
 viewBox="0.00 0.00 214.50 404.00" xmlns="http://www.w3.org/2000/svg" xmlns:xlink="http://www.w3.org/1999/xlink">
<g id="graph0" class="graph" transform="scale(1 1) rotate(0) translate(4 400)">
<title>%3</title>
<polygon fill="white" stroke="none" points="-4,4 -4,-400 210.5,-400 210.5,4 -4,4"/>
<!-- p0 -->
<g id="node1" class="node"><title>p0</title>
<path fill="none" stroke="black" d="M85,-180C85,-180 50,-180 50,-180 44,-180 38,-174 38,-168 38,-168 38,-156 38,-156 38,-150 44,-144 50,-144 50,-144 85,-144 85,-144 91,-144 97,-150 97,-156 97,-156 97,-168 97,-168 97,-174 91,-180 85,-180"/>
<text text-anchor="middle" x="67.5" y="-158.3" font-family="Times,serif" font-size="14.00">path (6)</text>
</g>
<!-- v3 -->
<g id="node3" class="node"><title>v3</title>
<ellipse fill="none" stroke="black" cx="67.5" cy="-90" rx="27" ry="18"/>
<text text-anchor="middle" x="67.5" y="-86.3" font-family="Times,serif" font-size="14.00">3</text>
</g>
<!-- p0&#45;&gt;v3 -->
<g id="edge7" class="edge"><title>p0&#45;&gt;v3</title>
<path fill="none" stroke="black" d="M67.5,-143.697C67.5,-135.983 67.5,-126.712 67.5,-118.112"/>
<polygon fill="black" stroke="black" points="71.0001,-118.104 67.5,-108.104 64.0001,-118.104 71.0001,-118.104"/>
</g>
<!-- v1 -->
<g id="node2" class="node"><title>v1</title>
<ellipse fill="none" stroke="black" cx="142.5" cy="-162" rx="27" ry="18"/>
<text text-anchor="middle" x="142.5" y="-158.3" font-family="Times,serif" font-size="14.00">1</text>
</g>
<!-- p1 -->
<g id="node4" class="node"><title>p1</title>
<path fill="none" stroke="black" d="M47,-36C47,-36 12,-36 12,-36 6,-36 0,-30 0,-24 0,-24 0,-12 0,-12 0,-6 6,-0 12,-0 12,-0 47,-0 47,-0 53,-0 59,-6 59,-12 59,-12 59,-24 59,-24 59,-30 53,-36 47,-36"/>
<text text-anchor="middle" x="29.5" y="-14.3" font-family="Times,serif" font-size="14.00">path (2)</text>
</g>
<!-- v3&#45;&gt;p1 -->
<g id="edge4" class="edge"><title>v3&#45;&gt;p1</title>
<path fill="none" stroke="black" d="M58.6865,-72.7646C54.2138,-64.5255 48.6719,-54.3166 43.6228,-45.0157"/>
<polygon fill="black" stroke="black" points="46.6428,-43.2426 38.7958,-36.1239 40.4908,-46.5823 46.6428,-43.2426"/>
</g>
<!-- p3 -->
<g id="node9" class="node"><title>p3</title>
<path fill="none" stroke="black" d="M124,-36C124,-36 89,-36 89,-36 83,-36 77,-30 77,-24 77,-24 77,-12 77,-12 77,-6 83,-0 89,-0 89,-0 124,-0 124,-0 130,-0 136,-6 136,-12 136,-12 136,-24 136,-24 136,-30 130,-36 124,-36"/>
<text text-anchor="middle" x="106.5" y="-14.3" font-family="Times,serif" font-size="14.00">path (2)</text>
</g>
<!-- v3&#45;&gt;p3 -->
<g id="edge2" class="edge"><title>v3&#45;&gt;p3</title>
<path fill="none" stroke="black" d="M76.5454,-72.7646C81.1358,-64.5255 86.8236,-54.3166 92.0056,-45.0157"/>
<polygon fill="black" stroke="black" points="95.1499,-46.5631 96.9595,-36.1239 89.035,-43.1561 95.1499,-46.5631"/>
</g>
<!-- p2 -->
<g id="node5" class="node"><title>p2</title>
<path fill="none" stroke="black" d="M122,-324C122,-324 87,-324 87,-324 81,-324 75,-318 75,-312 75,-312 75,-300 75,-300 75,-294 81,-288 87,-288 87,-288 122,-288 122,-288 128,-288 134,-294 134,-300 134,-300 134,-312 134,-312 134,-318 128,-324 122,-324"/>
<text text-anchor="middle" x="104.5" y="-302.3" font-family="Times,serif" font-size="14.00">path (2)</text>
</g>
<!-- v8 -->
<g id="node7" class="node"><title>v8</title>
<ellipse fill="none" stroke="black" cx="104.5" cy="-234" rx="27" ry="18"/>
<text text-anchor="middle" x="104.5" y="-230.3" font-family="Times,serif" font-size="14.00">8</text>
</g>
<!-- p2&#45;&gt;v8 -->
<g id="edge6" class="edge"><title>p2&#45;&gt;v8</title>
<path fill="none" stroke="black" d="M104.5,-287.697C104.5,-279.983 104.5,-270.712 104.5,-262.112"/>
<polygon fill="black" stroke="black" points="108,-262.104 104.5,-252.104 101,-262.104 108,-262.104"/>
</g>
<!-- v7 -->
<g id="node6" class="node"><title>v7</title>
<ellipse fill="none" stroke="black" cx="179.5" cy="-306" rx="27" ry="18"/>
<text text-anchor="middle" x="179.5" y="-302.3" font-family="Times,serif" font-size="14.00">7</text>
</g>
<!-- v8&#45;&gt;p0 -->
<g id="edge5" class="edge"><title>v8&#45;&gt;p0</title>
<path fill="none" stroke="black" d="M95.9185,-216.765C91.5635,-208.525 86.1674,-198.317 81.2511,-189.016"/>
<polygon fill="black" stroke="black" points="84.3187,-187.329 76.5512,-180.124 78.13,-190.6 84.3187,-187.329"/>
</g>
<!-- v8&#45;&gt;v1 -->
<g id="edge3" class="edge"><title>v8&#45;&gt;v1</title>
<path fill="none" stroke="black" d="M113.313,-216.765C117.918,-208.283 123.655,-197.714 128.821,-188.197"/>
<polygon fill="black" stroke="black" points="132.039,-189.606 133.734,-179.147 125.887,-186.266 132.039,-189.606"/>
</g>
<!-- v11 -->
<g id="node8" class="node"><title>v11</title>
<ellipse fill="none" stroke="black" cx="141.5" cy="-378" rx="27" ry="18"/>
<text text-anchor="middle" x="141.5" y="-374.3" font-family="Times,serif" font-size="14.00">11</text>
</g>
<!-- v11&#45;&gt;p2 -->
<g id="edge8" class="edge"><title>v11&#45;&gt;p2</title>
<path fill="none" stroke="black" d="M132.918,-360.765C128.563,-352.525 123.167,-342.317 118.251,-333.016"/>
<polygon fill="black" stroke="black" points="121.319,-331.329 113.551,-324.124 115.13,-334.6 121.319,-331.329"/>
</g>
<!-- v11&#45;&gt;v7 -->
<g id="edge1" class="edge"><title>v11&#45;&gt;v7</title>
<path fill="none" stroke="black" d="M150.313,-360.765C154.918,-352.283 160.655,-341.714 165.821,-332.197"/>
<polygon fill="black" stroke="black" points="169.039,-333.606 170.734,-323.147 162.887,-330.266 169.039,-333.606"/>
</g>
</g>
</svg>
