<?xml version="1.0" encoding="UTF-8" standalone="no"?>
<!DOCTYPE svg PUBLIC "-//W3C//DTD SVG 1.1//EN"
 "http://www.w3.org/Graphics/SVG/1.1/DTD/svg11.dtd">
<!-- Generated by graphviz version 2.38.0 (20140413.2041)
 -->
<!-- Title: %3 Pages: 1 -->
<svg width="364pt" height="692pt"
 viewBox="0.00 0.00 363.50 692.00" xmlns="http://www.w3.org/2000/svg" xmlns:xlink="http://www.w3.org/1999/xlink">
<g id="graph0" class="graph" transform="scale(1 1) rotate(0) translate(4 688)">
<title>%3</title>
<polygon fill="white" stroke="none" points="-4,4 -4,-688 359.5,-688 359.5,4 -4,4"/>
<!-- v0 -->
<g id="node1" class="node"><title>v0</title>
<ellipse fill="none" stroke="black" cx="106.5" cy="-522" rx="27" ry="18"/>
<text text-anchor="middle" x="106.5" y="-518.3" font-family="Times,serif" font-size="14.00">0</text>
</g>
<!-- p2 -->
<g id="node4" class="node"><title>p2</title>
<path fill="none" stroke="black" d="M47,-468C47,-468 12,-468 12,-468 6,-468 0,-462 0,-456 0,-456 0,-444 0,-444 0,-438 6,-432 12,-432 12,-432 47,-432 47,-432 53,-432 59,-438 59,-444 59,-444 59,-456 59,-456 59,-462 53,-468 47,-468"/>
<text text-anchor="middle" x="29.5" y="-446.3" font-family="Times,serif" font-size="14.00">path (2)</text>
</g>
<!-- v0&#45;&gt;p2 -->
<g id="edge2" class="edge"><title>v0&#45;&gt;p2</title>
<path fill="none" stroke="black" d="M90.9179,-506.834C80.9205,-497.746 67.6815,-485.71 56.0555,-475.141"/>
<polygon fill="black" stroke="black" points="58.0778,-472.25 48.324,-468.113 53.3691,-477.429 58.0778,-472.25"/>
</g>
<!-- p3 -->
<g id="node7" class="node"><title>p3</title>
<path fill="none" stroke="black" d="M124,-468C124,-468 89,-468 89,-468 83,-468 77,-462 77,-456 77,-456 77,-444 77,-444 77,-438 83,-432 89,-432 89,-432 124,-432 124,-432 130,-432 136,-438 136,-444 136,-444 136,-456 136,-456 136,-462 130,-468 124,-468"/>
<text text-anchor="middle" x="106.5" y="-446.3" font-family="Times,serif" font-size="14.00">path (2)</text>
</g>
<!-- v0&#45;&gt;p3 -->
<g id="edge8" class="edge"><title>v0&#45;&gt;p3</title>
<path fill="none" stroke="black" d="M106.5,-503.697C106.5,-495.983 106.5,-486.712 106.5,-478.112"/>
<polygon fill="black" stroke="black" points="110,-478.104 106.5,-468.104 103,-478.104 110,-478.104"/>
</g>
<!-- p0 -->
<g id="node2" class="node"><title>p0</title>
<path fill="none" stroke="black" d="M158,-180C158,-180 123,-180 123,-180 117,-180 111,-174 111,-168 111,-168 111,-156 111,-156 111,-150 117,-144 123,-144 123,-144 158,-144 158,-144 164,-144 170,-150 170,-156 170,-156 170,-168 170,-168 170,-174 164,-180 158,-180"/>
<text text-anchor="middle" x="140.5" y="-158.3" font-family="Times,serif" font-size="14.00">path (4)</text>
</g>
<!-- p1 -->
<g id="node3" class="node"><title>p1</title>
<path fill="none" stroke="black" d="M124,-612C124,-612 89,-612 89,-612 83,-612 77,-606 77,-600 77,-600 77,-588 77,-588 77,-582 83,-576 89,-576 89,-576 124,-576 124,-576 130,-576 136,-582 136,-588 136,-588 136,-600 136,-600 136,-606 130,-612 124,-612"/>
<text text-anchor="middle" x="106.5" y="-590.3" font-family="Times,serif" font-size="14.00">path (3)</text>
</g>
<!-- p1&#45;&gt;v0 -->
<g id="edge17" class="edge"><title>p1&#45;&gt;v0</title>
<path fill="none" stroke="black" d="M106.5,-575.697C106.5,-567.983 106.5,-558.712 106.5,-550.112"/>
<polygon fill="black" stroke="black" points="110,-550.104 106.5,-540.104 103,-550.104 110,-550.104"/>
</g>
<!-- v5 -->
<g id="node5" class="node"><title>v5</title>
<ellipse fill="none" stroke="black" cx="181.5" cy="-450" rx="27" ry="18"/>
<text text-anchor="middle" x="181.5" y="-446.3" font-family="Times,serif" font-size="14.00">5</text>
</g>
<!-- v6 -->
<g id="node6" class="node"><title>v6</title>
<ellipse fill="none" stroke="black" cx="215.5" cy="-162" rx="27" ry="18"/>
<text text-anchor="middle" x="215.5" y="-158.3" font-family="Times,serif" font-size="14.00">6</text>
</g>
<!-- v8 -->
<g id="node8" class="node"><title>v8</title>
<ellipse fill="none" stroke="black" cx="181.5" cy="-522" rx="27" ry="18"/>
<text text-anchor="middle" x="181.5" y="-518.3" font-family="Times,serif" font-size="14.00">8</text>
</g>
<!-- v8&#45;&gt;v5 -->
<g id="edge5" class="edge"><title>v8&#45;&gt;v5</title>
<path fill="none" stroke="black" d="M181.5,-503.697C181.5,-495.983 181.5,-486.712 181.5,-478.112"/>
<polygon fill="black" stroke="black" points="185,-478.104 181.5,-468.104 178,-478.104 185,-478.104"/>
</g>
<!-- v9 -->
<g id="node9" class="node"><title>v9</title>
<ellipse fill="none" stroke="black" cx="253.5" cy="-450" rx="27" ry="18"/>
<text text-anchor="middle" x="253.5" y="-446.3" font-family="Times,serif" font-size="14.00">9</text>
</g>
<!-- v8&#45;&gt;v9 -->
<g id="edge3" class="edge"><title>v8&#45;&gt;v9</title>
<path fill="none" stroke="black" d="M196.07,-506.834C206.25,-496.938 220.024,-483.546 231.531,-472.359"/>
<polygon fill="black" stroke="black" points="233.974,-474.865 238.704,-465.385 229.095,-469.846 233.974,-474.865"/>
</g>
<!-- v13 -->
<g id="node12" class="node"><title>v13</title>
<ellipse fill="none" stroke="black" cx="253.5" cy="-378" rx="27" ry="18"/>
<text text-anchor="middle" x="253.5" y="-374.3" font-family="Times,serif" font-size="14.00">13</text>
</g>
<!-- v9&#45;&gt;v13 -->
<g id="edge15" class="edge"><title>v9&#45;&gt;v13</title>
<path fill="none" stroke="black" d="M253.5,-431.697C253.5,-423.983 253.5,-414.712 253.5,-406.112"/>
<polygon fill="black" stroke="black" points="257,-406.104 253.5,-396.104 250,-406.104 257,-406.104"/>
</g>
<!-- v10 -->
<g id="node10" class="node"><title>v10</title>
<ellipse fill="none" stroke="black" cx="143.5" cy="-666" rx="27" ry="18"/>
<text text-anchor="middle" x="143.5" y="-662.3" font-family="Times,serif" font-size="14.00">10</text>
</g>
<!-- v10&#45;&gt;p1 -->
<g id="edge6" class="edge"><title>v10&#45;&gt;p1</title>
<path fill="none" stroke="black" d="M134.918,-648.765C130.563,-640.525 125.167,-630.317 120.251,-621.016"/>
<polygon fill="black" stroke="black" points="123.319,-619.329 115.551,-612.124 117.13,-622.6 123.319,-619.329"/>
</g>
<!-- v12 -->
<g id="node11" class="node"><title>v12</title>
<ellipse fill="none" stroke="black" cx="181.5" cy="-594" rx="27" ry="18"/>
<text text-anchor="middle" x="181.5" y="-590.3" font-family="Times,serif" font-size="14.00">12</text>
</g>
<!-- v10&#45;&gt;v12 -->
<g id="edge7" class="edge"><title>v10&#45;&gt;v12</title>
<path fill="none" stroke="black" d="M152.313,-648.765C156.918,-640.283 162.655,-629.714 167.821,-620.197"/>
<polygon fill="black" stroke="black" points="171.039,-621.606 172.734,-611.147 164.887,-618.266 171.039,-621.606"/>
</g>
<!-- v12&#45;&gt;v8 -->
<g id="edge18" class="edge"><title>v12&#45;&gt;v8</title>
<path fill="none" stroke="black" d="M181.5,-575.697C181.5,-567.983 181.5,-558.712 181.5,-550.112"/>
<polygon fill="black" stroke="black" points="185,-550.104 181.5,-540.104 178,-550.104 185,-550.104"/>
</g>
<!-- p4 -->
<g id="node13" class="node"><title>p4</title>
<path fill="none" stroke="black" d="M233,-324C233,-324 198,-324 198,-324 192,-324 186,-318 186,-312 186,-312 186,-300 186,-300 186,-294 192,-288 198,-288 198,-288 233,-288 233,-288 239,-288 245,-294 245,-300 245,-300 245,-312 245,-312 245,-318 239,-324 233,-324"/>
<text text-anchor="middle" x="215.5" y="-302.3" font-family="Times,serif" font-size="14.00">path (3)</text>
</g>
<!-- v13&#45;&gt;p4 -->
<g id="edge11" class="edge"><title>v13&#45;&gt;p4</title>
<path fill="none" stroke="black" d="M244.687,-360.765C240.214,-352.525 234.672,-342.317 229.623,-333.016"/>
<polygon fill="black" stroke="black" points="232.643,-331.243 224.796,-324.124 226.491,-334.582 232.643,-331.243"/>
</g>
<!-- p6 -->
<g id="node15" class="node"><title>p6</title>
<path fill="none" stroke="black" d="M310,-324C310,-324 275,-324 275,-324 269,-324 263,-318 263,-312 263,-312 263,-300 263,-300 263,-294 269,-288 275,-288 275,-288 310,-288 310,-288 316,-288 322,-294 322,-300 322,-300 322,-312 322,-312 322,-318 316,-324 310,-324"/>
<text text-anchor="middle" x="292.5" y="-302.3" font-family="Times,serif" font-size="14.00">path (2)</text>
</g>
<!-- v13&#45;&gt;p6 -->
<g id="edge9" class="edge"><title>v13&#45;&gt;p6</title>
<path fill="none" stroke="black" d="M262.545,-360.765C267.136,-352.525 272.824,-342.317 278.006,-333.016"/>
<polygon fill="black" stroke="black" points="281.15,-334.563 282.96,-324.124 275.035,-331.156 281.15,-334.563"/>
</g>
<!-- v28 -->
<g id="node19" class="node"><title>v28</title>
<ellipse fill="none" stroke="black" cx="215.5" cy="-234" rx="27" ry="18"/>
<text text-anchor="middle" x="215.5" y="-230.3" font-family="Times,serif" font-size="14.00">28</text>
</g>
<!-- p4&#45;&gt;v28 -->
<g id="edge1" class="edge"><title>p4&#45;&gt;v28</title>
<path fill="none" stroke="black" d="M215.5,-287.697C215.5,-279.983 215.5,-270.712 215.5,-262.112"/>
<polygon fill="black" stroke="black" points="219,-262.104 215.5,-252.104 212,-262.104 219,-262.104"/>
</g>
<!-- p5 -->
<g id="node14" class="node"><title>p5</title>
<path fill="none" stroke="black" d="M271,-36C271,-36 236,-36 236,-36 230,-36 224,-30 224,-24 224,-24 224,-12 224,-12 224,-6 230,-0 236,-0 236,-0 271,-0 271,-0 277,-0 283,-6 283,-12 283,-12 283,-24 283,-24 283,-30 277,-36 271,-36"/>
<text text-anchor="middle" x="253.5" y="-14.3" font-family="Times,serif" font-size="14.00">path (2)</text>
</g>
<!-- v21 -->
<g id="node16" class="node"><title>v21</title>
<ellipse fill="none" stroke="black" cx="290.5" cy="-90" rx="27" ry="18"/>
<text text-anchor="middle" x="290.5" y="-86.3" font-family="Times,serif" font-size="14.00">21</text>
</g>
<!-- v21&#45;&gt;p5 -->
<g id="edge12" class="edge"><title>v21&#45;&gt;p5</title>
<path fill="none" stroke="black" d="M281.918,-72.7646C277.563,-64.5255 272.167,-54.3166 267.251,-45.0157"/>
<polygon fill="black" stroke="black" points="270.319,-43.3293 262.551,-36.1239 264.13,-46.6005 270.319,-43.3293"/>
</g>
<!-- v22 -->
<g id="node17" class="node"><title>v22</title>
<ellipse fill="none" stroke="black" cx="328.5" cy="-18" rx="27" ry="18"/>
<text text-anchor="middle" x="328.5" y="-14.3" font-family="Times,serif" font-size="14.00">22</text>
</g>
<!-- v21&#45;&gt;v22 -->
<g id="edge16" class="edge"><title>v21&#45;&gt;v22</title>
<path fill="none" stroke="black" d="M299.313,-72.7646C303.918,-64.2831 309.655,-53.7144 314.821,-44.1974"/>
<polygon fill="black" stroke="black" points="318.039,-45.6057 319.734,-35.1473 311.887,-42.266 318.039,-45.6057"/>
</g>
<!-- p7 -->
<g id="node18" class="node"><title>p7</title>
<path fill="none" stroke="black" d="M308,-180C308,-180 273,-180 273,-180 267,-180 261,-174 261,-168 261,-168 261,-156 261,-156 261,-150 267,-144 273,-144 273,-144 308,-144 308,-144 314,-144 320,-150 320,-156 320,-156 320,-168 320,-168 320,-174 314,-180 308,-180"/>
<text text-anchor="middle" x="290.5" y="-158.3" font-family="Times,serif" font-size="14.00">path (2)</text>
</g>
<!-- p7&#45;&gt;v21 -->
<g id="edge13" class="edge"><title>p7&#45;&gt;v21</title>
<path fill="none" stroke="black" d="M290.5,-143.697C290.5,-135.983 290.5,-126.712 290.5,-118.112"/>
<polygon fill="black" stroke="black" points="294,-118.104 290.5,-108.104 287,-118.104 294,-118.104"/>
</g>
<!-- v28&#45;&gt;p0 -->
<g id="edge14" class="edge"><title>v28&#45;&gt;p0</title>
<path fill="none" stroke="black" d="M200.323,-218.834C190.585,-209.746 177.69,-197.71 166.366,-187.141"/>
<polygon fill="black" stroke="black" points="168.534,-184.377 158.835,-180.113 163.758,-189.495 168.534,-184.377"/>
</g>
<!-- v28&#45;&gt;v6 -->
<g id="edge10" class="edge"><title>v28&#45;&gt;v6</title>
<path fill="none" stroke="black" d="M215.5,-215.697C215.5,-207.983 215.5,-198.712 215.5,-190.112"/>
<polygon fill="black" stroke="black" points="219,-190.104 215.5,-180.104 212,-190.104 219,-190.104"/>
</g>
<!-- v28&#45;&gt;p7 -->
<g id="edge4" class="edge"><title>v28&#45;&gt;p7</title>
<path fill="none" stroke="black" d="M230.677,-218.834C240.415,-209.746 253.31,-197.71 264.634,-187.141"/>
<polygon fill="black" stroke="black" points="267.242,-189.495 272.165,-180.113 262.466,-184.377 267.242,-189.495"/>
</g>
</g>
</svg>
