<?xml version="1.0" encoding="UTF-8" standalone="no"?>
<!DOCTYPE svg PUBLIC "-//W3C//DTD SVG 1.1//EN"
 "http://www.w3.org/Graphics/SVG/1.1/DTD/svg11.dtd">
<!-- Generated by graphviz version 2.38.0 (20140413.2041)
 -->
<!-- Title: %3 Pages: 1 -->
<svg width="854pt" height="548pt"
 viewBox="0.00 0.00 853.89 548.00" xmlns="http://www.w3.org/2000/svg" xmlns:xlink="http://www.w3.org/1999/xlink">
<g id="graph0" class="graph" transform="scale(1 1) rotate(0) translate(4 544)">
<title>%3</title>
<polygon fill="white" stroke="none" points="-4,4 -4,-544 849.889,-544 849.889,4 -4,4"/>
<!-- 0 -->
<g id="node1" class="node"><title>0</title>
<g id="a_node1"><a xlink:title="0, diversity: 4, multiplicities: 10,37,42,802, labels: 28,14,7">
<ellipse fill="#f7fcf5" stroke="black" cx="654.195" cy="-522" rx="59.5901" ry="18"/>
<text text-anchor="middle" x="654.195" y="-518.3" font-family="Times,serif" font-size="14.00">0 (4): 28,14,7</text>
</a>
</g>
</g>
<!-- 4 -->
<g id="node5" class="node"><title>4</title>
<g id="a_node5"><a xlink:title="4, diversity: 1, multiplicities: 2, labels: 14">
<ellipse fill="#aedea7" stroke="black" cx="481.195" cy="-450" rx="41.6928" ry="18"/>
<text text-anchor="middle" x="481.195" y="-446.3" font-family="Times,serif" font-size="14.00">4 (1): 14</text>
</a>
</g>
</g>
<!-- 0&#45;&gt;4 -->
<g id="edge12" class="edge"><title>0&#45;&gt;4</title>
<path fill="none" stroke="black" d="M620.016,-507.17C591.138,-495.486 549.798,-478.758 519.746,-466.599"/>
<polygon fill="black" stroke="black" points="520.998,-463.33 510.415,-462.823 518.372,-469.819 520.998,-463.33"/>
</g>
<!-- 16 -->
<g id="node17" class="node"><title>16</title>
<g id="a_node17"><a xlink:title="16, diversity: 1, multiplicities: 1, labels: 14">
<ellipse fill="#aedea7" stroke="black" cx="654.195" cy="-450" rx="46.2923" ry="18"/>
<text text-anchor="middle" x="654.195" y="-446.3" font-family="Times,serif" font-size="14.00">16 (1): 14</text>
</a>
</g>
</g>
<!-- 0&#45;&gt;16 -->
<g id="edge5" class="edge"><title>0&#45;&gt;16</title>
<path fill="none" stroke="black" d="M654.195,-503.697C654.195,-495.983 654.195,-486.712 654.195,-478.112"/>
<polygon fill="black" stroke="black" points="657.695,-478.104 654.195,-468.104 650.695,-478.104 657.695,-478.104"/>
</g>
<!-- 18 -->
<g id="node19" class="node"><title>18</title>
<g id="a_node19"><a xlink:title="18, diversity: 1, multiplicities: 52, labels: 28,14,7">
<ellipse fill="#f7fcf5" stroke="black" cx="782.195" cy="-450" rx="63.8893" ry="18"/>
<text text-anchor="middle" x="782.195" y="-446.3" font-family="Times,serif" font-size="14.00">18 (1): 28,14,7</text>
</a>
</g>
</g>
<!-- 0&#45;&gt;18 -->
<g id="edge16" class="edge"><title>0&#45;&gt;18</title>
<path fill="none" stroke="black" d="M681.654,-505.983C700.255,-495.811 725.049,-482.252 745.361,-471.144"/>
<polygon fill="black" stroke="black" points="747.245,-474.102 754.339,-466.233 743.886,-467.961 747.245,-474.102"/>
</g>
<!-- 1 -->
<g id="node2" class="node"><title>1</title>
<g id="a_node2"><a xlink:title="1, diversity: 5, multiplicities: 1,14,51,59,631, labels: 28,14,7">
<ellipse fill="#f7fcf5" stroke="black" cx="332.195" cy="-234" rx="59.5901" ry="18"/>
<text text-anchor="middle" x="332.195" y="-230.3" font-family="Times,serif" font-size="14.00">1 (5): 28,14,7</text>
</a>
</g>
</g>
<!-- 2 -->
<g id="node3" class="node"><title>2</title>
<g id="a_node3"><a xlink:title="2, diversity: 1, multiplicities: 87, labels: 28,14">
<ellipse fill="#aedea7" stroke="black" cx="61.1949" cy="-162" rx="52.7911" ry="18"/>
<text text-anchor="middle" x="61.1949" y="-158.3" font-family="Times,serif" font-size="14.00">2 (1): 28,14</text>
</a>
</g>
</g>
<!-- 1&#45;&gt;2 -->
<g id="edge8" class="edge"><title>1&#45;&gt;2</title>
<path fill="none" stroke="black" d="M288.353,-221.675C240.042,-209.197 162.466,-189.159 111.659,-176.035"/>
<polygon fill="black" stroke="black" points="112.429,-172.619 101.872,-173.507 110.679,-179.397 112.429,-172.619"/>
</g>
<!-- 7 -->
<g id="node8" class="node"><title>7</title>
<g id="a_node8"><a xlink:title="7, diversity: 1, multiplicities: 45, labels: 14">
<ellipse fill="#aedea7" stroke="black" cx="178.195" cy="-162" rx="41.6928" ry="18"/>
<text text-anchor="middle" x="178.195" y="-158.3" font-family="Times,serif" font-size="14.00">7 (1): 14</text>
</a>
</g>
</g>
<!-- 1&#45;&gt;7 -->
<g id="edge21" class="edge"><title>1&#45;&gt;7</title>
<path fill="none" stroke="black" d="M300.659,-218.666C275.815,-207.373 241.133,-191.608 215.017,-179.737"/>
<polygon fill="black" stroke="black" points="216.369,-176.507 205.817,-175.555 213.472,-182.88 216.369,-176.507"/>
</g>
<!-- 9 -->
<g id="node10" class="node"><title>9</title>
<g id="a_node10"><a xlink:title="9, diversity: 1, multiplicities: 1, labels: 14">
<ellipse fill="#aedea7" stroke="black" cx="279.195" cy="-162" rx="41.6928" ry="18"/>
<text text-anchor="middle" x="279.195" y="-158.3" font-family="Times,serif" font-size="14.00">9 (1): 14</text>
</a>
</g>
</g>
<!-- 1&#45;&gt;9 -->
<g id="edge17" class="edge"><title>1&#45;&gt;9</title>
<path fill="none" stroke="black" d="M319.365,-216.055C312.891,-207.505 304.919,-196.975 297.787,-187.556"/>
<polygon fill="black" stroke="black" points="300.368,-185.167 291.542,-179.307 294.788,-189.392 300.368,-185.167"/>
</g>
<!-- 10 -->
<g id="node11" class="node"><title>10</title>
<g id="a_node11"><a xlink:title="10, diversity: 1, multiplicities: 13, labels: 14">
<ellipse fill="#aedea7" stroke="black" cx="385.195" cy="-162" rx="46.2923" ry="18"/>
<text text-anchor="middle" x="385.195" y="-158.3" font-family="Times,serif" font-size="14.00">10 (1): 14</text>
</a>
</g>
</g>
<!-- 1&#45;&gt;10 -->
<g id="edge13" class="edge"><title>1&#45;&gt;10</title>
<path fill="none" stroke="black" d="M345.025,-216.055C351.405,-207.629 359.24,-197.28 366.292,-187.966"/>
<polygon fill="black" stroke="black" points="369.237,-189.874 372.483,-179.789 363.656,-185.649 369.237,-189.874"/>
</g>
<!-- 14 -->
<g id="node15" class="node"><title>14</title>
<g id="a_node15"><a xlink:title="14, diversity: 1, multiplicities: 26, labels: 14,7">
<ellipse fill="#f7fcf5" stroke="black" cx="502.195" cy="-162" rx="52.7911" ry="18"/>
<text text-anchor="middle" x="502.195" y="-158.3" font-family="Times,serif" font-size="14.00">14 (1): 14,7</text>
</a>
</g>
</g>
<!-- 1&#45;&gt;14 -->
<g id="edge9" class="edge"><title>1&#45;&gt;14</title>
<path fill="none" stroke="black" d="M366.188,-219.003C393.349,-207.819 431.536,-192.095 460.535,-180.154"/>
<polygon fill="black" stroke="black" points="462.074,-183.306 469.988,-176.262 459.409,-176.833 462.074,-183.306"/>
</g>
<!-- 15 -->
<g id="node16" class="node"><title>15</title>
<g id="a_node16"><a xlink:title="15, diversity: 1, multiplicities: 34, labels: 14">
<ellipse fill="#aedea7" stroke="black" cx="619.195" cy="-162" rx="46.2923" ry="18"/>
<text text-anchor="middle" x="619.195" y="-158.3" font-family="Times,serif" font-size="14.00">15 (1): 14</text>
</a>
</g>
</g>
<!-- 1&#45;&gt;15 -->
<g id="edge4" class="edge"><title>1&#45;&gt;15</title>
<path fill="none" stroke="black" d="M379.996,-223.178C427.085,-213.246 500.948,-196.973 564.195,-180 567.733,-179.05 571.386,-178.024 575.048,-176.963"/>
<polygon fill="black" stroke="black" points="576.1,-180.302 584.69,-174.1 574.107,-173.591 576.1,-180.302"/>
</g>
<!-- 12 -->
<g id="node13" class="node"><title>12</title>
<g id="a_node13"><a xlink:title="12, diversity: 1, multiplicities: 5, labels: 28,14">
<ellipse fill="#aedea7" stroke="black" cx="57.1949" cy="-90" rx="57.3905" ry="18"/>
<text text-anchor="middle" x="57.1949" y="-86.3" font-family="Times,serif" font-size="14.00">12 (1): 28,14</text>
</a>
</g>
</g>
<!-- 2&#45;&gt;12 -->
<g id="edge7" class="edge"><title>2&#45;&gt;12</title>
<path fill="none" stroke="black" d="M60.2062,-143.697C59.7654,-135.983 59.2356,-126.712 58.7442,-118.112"/>
<polygon fill="black" stroke="black" points="62.2372,-117.888 58.1723,-108.104 55.2486,-118.288 62.2372,-117.888"/>
</g>
<!-- 3 -->
<g id="node4" class="node"><title>3</title>
<g id="a_node4"><a xlink:title="3, diversity: 1, multiplicities: 5, labels: 14">
<ellipse fill="#aedea7" stroke="black" cx="284.195" cy="-90" rx="41.6928" ry="18"/>
<text text-anchor="middle" x="284.195" y="-86.3" font-family="Times,serif" font-size="14.00">3 (1): 14</text>
</a>
</g>
</g>
<!-- 8 -->
<g id="node9" class="node"><title>8</title>
<g id="a_node9"><a xlink:title="8, diversity: 2, multiplicities: 14,77, labels: 14,7">
<ellipse fill="#f7fcf5" stroke="black" cx="480.195" cy="-378" rx="48.1917" ry="18"/>
<text text-anchor="middle" x="480.195" y="-374.3" font-family="Times,serif" font-size="14.00">8 (2): 14,7</text>
</a>
</g>
</g>
<!-- 4&#45;&gt;8 -->
<g id="edge2" class="edge"><title>4&#45;&gt;8</title>
<path fill="none" stroke="black" d="M480.948,-431.697C480.838,-423.983 480.705,-414.712 480.582,-406.112"/>
<polygon fill="black" stroke="black" points="484.082,-406.053 480.439,-396.104 477.083,-406.153 484.082,-406.053"/>
</g>
<!-- 5 -->
<g id="node6" class="node"><title>5</title>
<g id="a_node6"><a xlink:title="5, diversity: 1, multiplicities: 6, labels: 14">
<ellipse fill="#aedea7" stroke="black" cx="178.195" cy="-18" rx="41.6928" ry="18"/>
<text text-anchor="middle" x="178.195" y="-14.3" font-family="Times,serif" font-size="14.00">5 (1): 14</text>
</a>
</g>
</g>
<!-- 6 -->
<g id="node7" class="node"><title>6</title>
<g id="a_node7"><a xlink:title="6, diversity: 2, multiplicities: 9,76, labels: 28,14">
<ellipse fill="#aedea7" stroke="black" cx="332.195" cy="-306" rx="52.7911" ry="18"/>
<text text-anchor="middle" x="332.195" y="-302.3" font-family="Times,serif" font-size="14.00">6 (2): 28,14</text>
</a>
</g>
</g>
<!-- 6&#45;&gt;1 -->
<g id="edge19" class="edge"><title>6&#45;&gt;1</title>
<path fill="none" stroke="black" d="M332.195,-287.697C332.195,-279.983 332.195,-270.712 332.195,-262.112"/>
<polygon fill="black" stroke="black" points="335.695,-262.104 332.195,-252.104 328.695,-262.104 335.695,-262.104"/>
</g>
<!-- 22 -->
<g id="node23" class="node"><title>22</title>
<g id="a_node23"><a xlink:title="22, diversity: 1, multiplicities: 1, labels: 14">
<ellipse fill="#aedea7" stroke="black" cx="178.195" cy="-90" rx="46.2923" ry="18"/>
<text text-anchor="middle" x="178.195" y="-86.3" font-family="Times,serif" font-size="14.00">22 (1): 14</text>
</a>
</g>
</g>
<!-- 7&#45;&gt;22 -->
<g id="edge18" class="edge"><title>7&#45;&gt;22</title>
<path fill="none" stroke="black" d="M178.195,-143.697C178.195,-135.983 178.195,-126.712 178.195,-118.112"/>
<polygon fill="black" stroke="black" points="181.695,-118.104 178.195,-108.104 174.695,-118.104 181.695,-118.104"/>
</g>
<!-- 8&#45;&gt;6 -->
<g id="edge14" class="edge"><title>8&#45;&gt;6</title>
<path fill="none" stroke="black" d="M451.659,-363.503C428.718,-352.653 396.26,-337.301 370.965,-325.337"/>
<polygon fill="black" stroke="black" points="372.193,-322.046 361.656,-320.934 369.2,-328.374 372.193,-322.046"/>
</g>
<!-- 13 -->
<g id="node14" class="node"><title>13</title>
<g id="a_node14"><a xlink:title="13, diversity: 1, multiplicities: 7, labels: 14">
<ellipse fill="#aedea7" stroke="black" cx="449.195" cy="-306" rx="46.2923" ry="18"/>
<text text-anchor="middle" x="449.195" y="-302.3" font-family="Times,serif" font-size="14.00">13 (1): 14</text>
</a>
</g>
</g>
<!-- 8&#45;&gt;13 -->
<g id="edge1" class="edge"><title>8&#45;&gt;13</title>
<path fill="none" stroke="black" d="M472.691,-360.055C469.111,-351.973 464.749,-342.121 460.759,-333.112"/>
<polygon fill="black" stroke="black" points="463.88,-331.515 456.63,-323.789 457.479,-334.35 463.88,-331.515"/>
</g>
<!-- 20 -->
<g id="node21" class="node"><title>20</title>
<g id="a_node21"><a xlink:title="20, diversity: 1, multiplicities: 15, labels: 28,14">
<ellipse fill="#aedea7" stroke="black" cx="570.195" cy="-306" rx="57.3905" ry="18"/>
<text text-anchor="middle" x="570.195" y="-302.3" font-family="Times,serif" font-size="14.00">20 (1): 28,14</text>
</a>
</g>
</g>
<!-- 8&#45;&gt;20 -->
<g id="edge10" class="edge"><title>8&#45;&gt;20</title>
<path fill="none" stroke="black" d="M500.169,-361.465C512.348,-351.992 528.114,-339.729 541.602,-329.239"/>
<polygon fill="black" stroke="black" points="543.908,-331.879 549.653,-322.977 539.611,-326.354 543.908,-331.879"/>
</g>
<!-- 9&#45;&gt;3 -->
<g id="edge15" class="edge"><title>9&#45;&gt;3</title>
<path fill="none" stroke="black" d="M280.431,-143.697C280.982,-135.983 281.644,-126.712 282.258,-118.112"/>
<polygon fill="black" stroke="black" points="285.752,-118.328 282.973,-108.104 278.77,-117.83 285.752,-118.328"/>
</g>
<!-- 11 -->
<g id="node12" class="node"><title>11</title>
<g id="a_node12"><a xlink:title="11, diversity: 1, multiplicities: 6, labels: 14">
<ellipse fill="#aedea7" stroke="black" cx="619.195" cy="-90" rx="46.2923" ry="18"/>
<text text-anchor="middle" x="619.195" y="-86.3" font-family="Times,serif" font-size="14.00">11 (1): 14</text>
</a>
</g>
</g>
<!-- 15&#45;&gt;11 -->
<g id="edge11" class="edge"><title>15&#45;&gt;11</title>
<path fill="none" stroke="black" d="M619.195,-143.697C619.195,-135.983 619.195,-126.712 619.195,-118.112"/>
<polygon fill="black" stroke="black" points="622.695,-118.104 619.195,-108.104 615.695,-118.104 622.695,-118.104"/>
</g>
<!-- 21 -->
<g id="node22" class="node"><title>21</title>
<g id="a_node22"><a xlink:title="21, diversity: 1, multiplicities: 71, labels: 14,7">
<ellipse fill="#f7fcf5" stroke="black" cx="660.195" cy="-378" rx="52.7911" ry="18"/>
<text text-anchor="middle" x="660.195" y="-374.3" font-family="Times,serif" font-size="14.00">21 (1): 14,7</text>
</a>
</g>
</g>
<!-- 16&#45;&gt;21 -->
<g id="edge3" class="edge"><title>16&#45;&gt;21</title>
<path fill="none" stroke="black" d="M655.678,-431.697C656.339,-423.983 657.134,-414.712 657.871,-406.112"/>
<polygon fill="black" stroke="black" points="661.362,-406.367 658.729,-396.104 654.388,-405.769 661.362,-406.367"/>
</g>
<!-- 17 -->
<g id="node18" class="node"><title>17</title>
<g id="a_node18"><a xlink:title="17, diversity: 1, multiplicities: 6, labels: 14">
<ellipse fill="#aedea7" stroke="black" cx="691.195" cy="-306" rx="46.2923" ry="18"/>
<text text-anchor="middle" x="691.195" y="-302.3" font-family="Times,serif" font-size="14.00">17 (1): 14</text>
</a>
</g>
</g>
<!-- 19 -->
<g id="node20" class="node"><title>19</title>
<g id="a_node20"><a xlink:title="19, diversity: 1, multiplicities: 5, labels: 14">
<ellipse fill="#aedea7" stroke="black" cx="782.195" cy="-378" rx="46.2923" ry="18"/>
<text text-anchor="middle" x="782.195" y="-374.3" font-family="Times,serif" font-size="14.00">19 (1): 14</text>
</a>
</g>
</g>
<!-- 18&#45;&gt;19 -->
<g id="edge6" class="edge"><title>18&#45;&gt;19</title>
<path fill="none" stroke="black" d="M782.195,-431.697C782.195,-423.983 782.195,-414.712 782.195,-406.112"/>
<polygon fill="black" stroke="black" points="785.695,-406.104 782.195,-396.104 778.695,-406.104 785.695,-406.104"/>
</g>
<!-- 21&#45;&gt;17 -->
<g id="edge22" class="edge"><title>21&#45;&gt;17</title>
<path fill="none" stroke="black" d="M667.699,-360.055C671.278,-351.973 675.641,-342.121 679.631,-333.112"/>
<polygon fill="black" stroke="black" points="682.911,-334.35 683.76,-323.789 676.51,-331.515 682.911,-334.35"/>
</g>
<!-- 22&#45;&gt;5 -->
<g id="edge20" class="edge"><title>22&#45;&gt;5</title>
<path fill="none" stroke="black" d="M178.195,-71.6966C178.195,-63.9827 178.195,-54.7125 178.195,-46.1124"/>
<polygon fill="black" stroke="black" points="181.695,-46.1043 178.195,-36.1043 174.695,-46.1044 181.695,-46.1043"/>
</g>
</g>
</svg>
