<?xml version="1.0" encoding="UTF-8" standalone="no"?>
<!DOCTYPE svg PUBLIC "-//W3C//DTD SVG 1.1//EN"
 "http://www.w3.org/Graphics/SVG/1.1/DTD/svg11.dtd">
<!-- Generated by graphviz version 2.38.0 (20140413.2041)
 -->
<!-- Title: %3 Pages: 1 -->
<svg width="472pt" height="332pt"
 viewBox="0.00 0.00 472.19 332.00" xmlns="http://www.w3.org/2000/svg" xmlns:xlink="http://www.w3.org/1999/xlink">
<g id="graph0" class="graph" transform="scale(1 1) rotate(0) translate(4 328)">
<title>%3</title>
<polygon fill="white" stroke="none" points="-4,4 -4,-328 468.191,-328 468.191,4 -4,4"/>
<!-- 0 -->
<g id="node1" class="node"><title>0</title>
<g id="a_node1"><a xlink:title="0, diversity: 4, multiplicities: 1,1,10,265, labels: 28,7">
<ellipse fill="#f7fcf5" stroke="black" cx="84.0957" cy="-234" rx="48.1917" ry="18"/>
<text text-anchor="middle" x="84.0957" y="-230.3" font-family="Times,serif" font-size="14.00">0 (4): 28,7</text>
</a>
</g>
</g>
<!-- 4 -->
<g id="node5" class="node"><title>4</title>
<g id="a_node5"><a xlink:title="4, diversity: 1, multiplicities: 34, labels: 28,7">
<ellipse fill="#f7fcf5" stroke="black" cx="48.0957" cy="-162" rx="48.1917" ry="18"/>
<text text-anchor="middle" x="48.0957" y="-158.3" font-family="Times,serif" font-size="14.00">4 (1): 28,7</text>
</a>
</g>
</g>
<!-- 0&#45;&gt;4 -->
<g id="edge10" class="edge"><title>0&#45;&gt;4</title>
<path fill="none" stroke="black" d="M75.3811,-216.055C71.1803,-207.887 66.0503,-197.912 61.3769,-188.824"/>
<polygon fill="black" stroke="black" points="64.4161,-187.081 56.7301,-179.789 58.1911,-190.283 64.4161,-187.081"/>
</g>
<!-- 7 -->
<g id="node8" class="node"><title>7</title>
<g id="a_node8"><a xlink:title="7, diversity: 2, multiplicities: 9,338, labels: 28,7">
<ellipse fill="#f7fcf5" stroke="black" cx="162.096" cy="-162" rx="48.1917" ry="18"/>
<text text-anchor="middle" x="162.096" y="-158.3" font-family="Times,serif" font-size="14.00">7 (2): 28,7</text>
</a>
</g>
</g>
<!-- 0&#45;&gt;7 -->
<g id="edge6" class="edge"><title>0&#45;&gt;7</title>
<path fill="none" stroke="black" d="M96.7407,-216.411C106.341,-206.859 119.687,-194.751 131.882,-184.478"/>
<polygon fill="black" stroke="black" points="134.198,-187.105 139.679,-178.038 129.74,-181.708 134.198,-187.105"/>
</g>
<!-- 1 -->
<g id="node2" class="node"><title>1</title>
<g id="a_node2"><a xlink:title="1, diversity: 1, multiplicities: 5, labels: 28">
<ellipse fill="#37a055" stroke="black" cx="125.096" cy="-18" rx="41.6928" ry="18"/>
<text text-anchor="middle" x="125.096" y="-14.3" font-family="Times,serif" font-size="14.00">1 (1): 28</text>
</a>
</g>
</g>
<!-- 2 -->
<g id="node3" class="node"><title>2</title>
<g id="a_node3"><a xlink:title="2, diversity: 1, multiplicities: 1, labels: 28">
<ellipse fill="#37a055" stroke="black" cx="416.096" cy="-162" rx="41.6928" ry="18"/>
<text text-anchor="middle" x="416.096" y="-158.3" font-family="Times,serif" font-size="14.00">2 (1): 28</text>
</a>
</g>
</g>
<!-- 5 -->
<g id="node6" class="node"><title>5</title>
<g id="a_node6"><a xlink:title="5, diversity: 2, multiplicities: 5,41, labels: 28,7">
<ellipse fill="#f7fcf5" stroke="black" cx="416.096" cy="-90" rx="48.1917" ry="18"/>
<text text-anchor="middle" x="416.096" y="-86.3" font-family="Times,serif" font-size="14.00">5 (2): 28,7</text>
</a>
</g>
</g>
<!-- 2&#45;&gt;5 -->
<g id="edge12" class="edge"><title>2&#45;&gt;5</title>
<path fill="none" stroke="black" d="M416.096,-143.697C416.096,-135.983 416.096,-126.712 416.096,-118.112"/>
<polygon fill="black" stroke="black" points="419.596,-118.104 416.096,-108.104 412.596,-118.104 419.596,-118.104"/>
</g>
<!-- 3 -->
<g id="node4" class="node"><title>3</title>
<g id="a_node4"><a xlink:title="3, diversity: 1, multiplicities: 1, labels: 28">
<ellipse fill="#37a055" stroke="black" cx="416.096" cy="-234" rx="41.6928" ry="18"/>
<text text-anchor="middle" x="416.096" y="-230.3" font-family="Times,serif" font-size="14.00">3 (1): 28</text>
</a>
</g>
</g>
<!-- 3&#45;&gt;2 -->
<g id="edge1" class="edge"><title>3&#45;&gt;2</title>
<path fill="none" stroke="black" d="M416.096,-215.697C416.096,-207.983 416.096,-198.712 416.096,-190.112"/>
<polygon fill="black" stroke="black" points="419.596,-190.104 416.096,-180.104 412.596,-190.104 419.596,-190.104"/>
</g>
<!-- 6 -->
<g id="node7" class="node"><title>6</title>
<g id="a_node7"><a xlink:title="6, diversity: 1, multiplicities: 6, labels: 28,7">
<ellipse fill="#f7fcf5" stroke="black" cx="416.096" cy="-18" rx="48.1917" ry="18"/>
<text text-anchor="middle" x="416.096" y="-14.3" font-family="Times,serif" font-size="14.00">6 (1): 28,7</text>
</a>
</g>
</g>
<!-- 5&#45;&gt;6 -->
<g id="edge3" class="edge"><title>5&#45;&gt;6</title>
<path fill="none" stroke="black" d="M416.096,-71.6966C416.096,-63.9827 416.096,-54.7125 416.096,-46.1124"/>
<polygon fill="black" stroke="black" points="419.596,-46.1043 416.096,-36.1043 412.596,-46.1044 419.596,-46.1043"/>
</g>
<!-- 7&#45;&gt;0 -->
<g id="edge2" class="edge"><title>7&#45;&gt;0</title>
<path fill="none" stroke="black" d="M149.412,-179.628C139.854,-189.133 126.6,-201.162 114.463,-211.392"/>
<polygon fill="black" stroke="black" points="112.176,-208.742 106.699,-217.811 116.636,-214.137 112.176,-208.742"/>
</g>
<!-- 11 -->
<g id="node12" class="node"><title>11</title>
<g id="a_node12"><a xlink:title="11, diversity: 1, multiplicities: 19, labels: 28,7">
<ellipse fill="#f7fcf5" stroke="black" cx="248.096" cy="-90" rx="52.7911" ry="18"/>
<text text-anchor="middle" x="248.096" y="-86.3" font-family="Times,serif" font-size="14.00">11 (1): 28,7</text>
</a>
</g>
</g>
<!-- 7&#45;&gt;11 -->
<g id="edge11" class="edge"><title>7&#45;&gt;11</title>
<path fill="none" stroke="black" d="M181.182,-145.465C192.71,-136.081 207.601,-123.96 220.408,-113.536"/>
<polygon fill="black" stroke="black" points="222.92,-116.004 228.467,-106.977 218.502,-110.575 222.92,-116.004"/>
</g>
<!-- 12 -->
<g id="node13" class="node"><title>12</title>
<g id="a_node13"><a xlink:title="12, diversity: 1, multiplicities: 52, labels: 28,7">
<ellipse fill="#f7fcf5" stroke="black" cx="125.096" cy="-90" rx="52.7911" ry="18"/>
<text text-anchor="middle" x="125.096" y="-86.3" font-family="Times,serif" font-size="14.00">12 (1): 28,7</text>
</a>
</g>
</g>
<!-- 7&#45;&gt;12 -->
<g id="edge8" class="edge"><title>7&#45;&gt;12</title>
<path fill="none" stroke="black" d="M153.139,-144.055C148.822,-135.887 143.549,-125.912 138.746,-116.824"/>
<polygon fill="black" stroke="black" points="141.737,-114.994 133.97,-107.789 135.549,-118.266 141.737,-114.994"/>
</g>
<!-- 8 -->
<g id="node9" class="node"><title>8</title>
<g id="a_node9"><a xlink:title="8, diversity: 1, multiplicities: 21, labels: 28,7">
<ellipse fill="#f7fcf5" stroke="black" cx="198.096" cy="-234" rx="48.1917" ry="18"/>
<text text-anchor="middle" x="198.096" y="-230.3" font-family="Times,serif" font-size="14.00">8 (1): 28,7</text>
</a>
</g>
</g>
<!-- 9 -->
<g id="node10" class="node"><title>9</title>
<g id="a_node10"><a xlink:title="9, diversity: 2, multiplicities: 26,216, labels: 28,7">
<ellipse fill="#f7fcf5" stroke="black" cx="310.096" cy="-306" rx="48.1917" ry="18"/>
<text text-anchor="middle" x="310.096" y="-302.3" font-family="Times,serif" font-size="14.00">9 (2): 28,7</text>
</a>
</g>
</g>
<!-- 9&#45;&gt;3 -->
<g id="edge5" class="edge"><title>9&#45;&gt;3</title>
<path fill="none" stroke="black" d="M332.835,-289.983C348.273,-279.789 368.861,-266.193 385.701,-255.072"/>
<polygon fill="black" stroke="black" points="387.703,-257.944 394.119,-249.513 383.846,-252.103 387.703,-257.944"/>
</g>
<!-- 9&#45;&gt;8 -->
<g id="edge4" class="edge"><title>9&#45;&gt;8</title>
<path fill="none" stroke="black" d="M286.343,-290.155C270.158,-280.039 248.521,-266.515 230.722,-255.391"/>
<polygon fill="black" stroke="black" points="232.149,-252.156 221.814,-249.824 228.439,-258.092 232.149,-252.156"/>
</g>
<!-- 10 -->
<g id="node11" class="node"><title>10</title>
<g id="a_node11"><a xlink:title="10, diversity: 1, multiplicities: 18, labels: 28">
<ellipse fill="#37a055" stroke="black" cx="310.096" cy="-234" rx="46.2923" ry="18"/>
<text text-anchor="middle" x="310.096" y="-230.3" font-family="Times,serif" font-size="14.00">10 (1): 28</text>
</a>
</g>
</g>
<!-- 9&#45;&gt;10 -->
<g id="edge7" class="edge"><title>9&#45;&gt;10</title>
<path fill="none" stroke="black" d="M310.096,-287.697C310.096,-279.983 310.096,-270.712 310.096,-262.112"/>
<polygon fill="black" stroke="black" points="313.596,-262.104 310.096,-252.104 306.596,-262.104 313.596,-262.104"/>
</g>
<!-- 10&#45;&gt;7 -->
<g id="edge13" class="edge"><title>10&#45;&gt;7</title>
<path fill="none" stroke="black" d="M281.91,-219.669C258.605,-208.646 225.305,-192.896 199.724,-180.797"/>
<polygon fill="black" stroke="black" points="201.217,-177.632 190.681,-176.52 198.224,-183.96 201.217,-177.632"/>
</g>
<!-- 12&#45;&gt;1 -->
<g id="edge9" class="edge"><title>12&#45;&gt;1</title>
<path fill="none" stroke="black" d="M125.096,-71.6966C125.096,-63.9827 125.096,-54.7125 125.096,-46.1124"/>
<polygon fill="black" stroke="black" points="128.596,-46.1043 125.096,-36.1043 121.596,-46.1044 128.596,-46.1043"/>
</g>
</g>
</svg>
