<?xml version="1.0" encoding="UTF-8" standalone="no"?>
<!DOCTYPE svg PUBLIC "-//W3C//DTD SVG 1.1//EN"
 "http://www.w3.org/Graphics/SVG/1.1/DTD/svg11.dtd">
<!-- Generated by graphviz version 2.38.0 (20140413.2041)
 -->
<!-- Title: %3 Pages: 1 -->
<svg width="280pt" height="332pt"
 viewBox="0.00 0.00 280.19 332.00" xmlns="http://www.w3.org/2000/svg" xmlns:xlink="http://www.w3.org/1999/xlink">
<g id="graph0" class="graph" transform="scale(1 1) rotate(0) translate(4 328)">
<title>%3</title>
<polygon fill="white" stroke="none" points="-4,4 -4,-328 276.193,-328 276.193,4 -4,4"/>
<!-- 0 -->
<g id="node1" class="node"><title>0</title>
<g id="a_node1"><a xlink:title="0, diversity: 2, multiplicities: 6,1077, labels: 28,7">
<ellipse fill="#f7fcf5" stroke="black" cx="138.596" cy="-162" rx="48.1917" ry="18"/>
<text text-anchor="middle" x="138.596" y="-158.3" font-family="Times,serif" font-size="14.00">0 (2): 28,7</text>
</a>
</g>
</g>
<!-- 1 -->
<g id="node2" class="node"><title>1</title>
<g id="a_node2"><a xlink:title="1, diversity: 1, multiplicities: 20, labels: 28">
<ellipse fill="#37a055" stroke="black" cx="41.5963" cy="-90" rx="41.6928" ry="18"/>
<text text-anchor="middle" x="41.5963" y="-86.3" font-family="Times,serif" font-size="14.00">1 (1): 28</text>
</a>
</g>
</g>
<!-- 0&#45;&gt;1 -->
<g id="edge2" class="edge"><title>0&#45;&gt;1</title>
<path fill="none" stroke="black" d="M117.549,-145.811C103.855,-135.929 85.8071,-122.905 70.7405,-112.032"/>
<polygon fill="black" stroke="black" points="72.4267,-108.933 62.2696,-105.919 68.3304,-114.609 72.4267,-108.933"/>
</g>
<!-- 4 -->
<g id="node5" class="node"><title>4</title>
<g id="a_node5"><a xlink:title="4, diversity: 2, multiplicities: 1,575, labels: 7">
<ellipse fill="#f7fcf5" stroke="black" cx="138.596" cy="-90" rx="37.0935" ry="18"/>
<text text-anchor="middle" x="138.596" y="-86.3" font-family="Times,serif" font-size="14.00">4 (2): 7</text>
</a>
</g>
</g>
<!-- 0&#45;&gt;4 -->
<g id="edge7" class="edge"><title>0&#45;&gt;4</title>
<path fill="none" stroke="black" d="M138.596,-143.697C138.596,-135.983 138.596,-126.712 138.596,-118.112"/>
<polygon fill="black" stroke="black" points="142.096,-118.104 138.596,-108.104 135.096,-118.104 142.096,-118.104"/>
</g>
<!-- 5 -->
<g id="node6" class="node"><title>5</title>
<g id="a_node6"><a xlink:title="5, diversity: 1, multiplicities: 2, labels: 7">
<ellipse fill="#f7fcf5" stroke="black" cx="230.596" cy="-90" rx="37.0935" ry="18"/>
<text text-anchor="middle" x="230.596" y="-86.3" font-family="Times,serif" font-size="14.00">5 (1): 7</text>
</a>
</g>
</g>
<!-- 0&#45;&gt;5 -->
<g id="edge6" class="edge"><title>0&#45;&gt;5</title>
<path fill="none" stroke="black" d="M159.014,-145.465C172.113,-135.498 189.269,-122.444 203.502,-111.615"/>
<polygon fill="black" stroke="black" points="205.653,-114.377 211.492,-105.536 201.414,-108.806 205.653,-114.377"/>
</g>
<!-- 2 -->
<g id="node3" class="node"><title>2</title>
<g id="a_node3"><a xlink:title="2, diversity: 1, multiplicities: 16, labels: 28">
<ellipse fill="#37a055" stroke="black" cx="41.5963" cy="-18" rx="41.6928" ry="18"/>
<text text-anchor="middle" x="41.5963" y="-14.3" font-family="Times,serif" font-size="14.00">2 (1): 28</text>
</a>
</g>
</g>
<!-- 1&#45;&gt;2 -->
<g id="edge1" class="edge"><title>1&#45;&gt;2</title>
<path fill="none" stroke="black" d="M41.5963,-71.6966C41.5963,-63.9827 41.5963,-54.7125 41.5963,-46.1124"/>
<polygon fill="black" stroke="black" points="45.0964,-46.1043 41.5963,-36.1043 38.0964,-46.1044 45.0964,-46.1043"/>
</g>
<!-- 3 -->
<g id="node4" class="node"><title>3</title>
<g id="a_node4"><a xlink:title="3, diversity: 1, multiplicities: 1, labels: 7">
<ellipse fill="#f7fcf5" stroke="black" cx="138.596" cy="-234" rx="37.0935" ry="18"/>
<text text-anchor="middle" x="138.596" y="-230.3" font-family="Times,serif" font-size="14.00">3 (1): 7</text>
</a>
</g>
</g>
<!-- 3&#45;&gt;0 -->
<g id="edge3" class="edge"><title>3&#45;&gt;0</title>
<path fill="none" stroke="black" d="M138.596,-215.697C138.596,-207.983 138.596,-198.712 138.596,-190.112"/>
<polygon fill="black" stroke="black" points="142.096,-190.104 138.596,-180.104 135.096,-190.104 142.096,-190.104"/>
</g>
<!-- 7 -->
<g id="node8" class="node"><title>7</title>
<g id="a_node8"><a xlink:title="7, diversity: 1, multiplicities: 20, labels: 28">
<ellipse fill="#37a055" stroke="black" cx="230.596" cy="-18" rx="41.6928" ry="18"/>
<text text-anchor="middle" x="230.596" y="-14.3" font-family="Times,serif" font-size="14.00">7 (1): 28</text>
</a>
</g>
</g>
<!-- 5&#45;&gt;7 -->
<g id="edge4" class="edge"><title>5&#45;&gt;7</title>
<path fill="none" stroke="black" d="M230.596,-71.6966C230.596,-63.9827 230.596,-54.7125 230.596,-46.1124"/>
<polygon fill="black" stroke="black" points="234.096,-46.1043 230.596,-36.1043 227.096,-46.1044 234.096,-46.1043"/>
</g>
<!-- 6 -->
<g id="node7" class="node"><title>6</title>
<g id="a_node7"><a xlink:title="6, diversity: 1, multiplicities: 46, labels: 28">
<ellipse fill="#37a055" stroke="black" cx="138.596" cy="-306" rx="41.6928" ry="18"/>
<text text-anchor="middle" x="138.596" y="-302.3" font-family="Times,serif" font-size="14.00">6 (1): 28</text>
</a>
</g>
</g>
<!-- 6&#45;&gt;3 -->
<g id="edge5" class="edge"><title>6&#45;&gt;3</title>
<path fill="none" stroke="black" d="M138.596,-287.697C138.596,-279.983 138.596,-270.712 138.596,-262.112"/>
<polygon fill="black" stroke="black" points="142.096,-262.104 138.596,-252.104 135.096,-262.104 142.096,-262.104"/>
</g>
</g>
</svg>
