<?xml version="1.0" encoding="UTF-8" standalone="no"?>
<!DOCTYPE svg PUBLIC "-//W3C//DTD SVG 1.1//EN"
 "http://www.w3.org/Graphics/SVG/1.1/DTD/svg11.dtd">
<!-- Generated by graphviz version 2.40.1 (20161225.0304)
 -->
<!-- Title: %3 Pages: 1 -->
<svg width="378pt" height="1484pt"
 viewBox="0.00 0.00 378.00 1484.00" xmlns="http://www.w3.org/2000/svg" xmlns:xlink="http://www.w3.org/1999/xlink">
<g id="graph0" class="graph" transform="scale(1 1) rotate(0) translate(4 1480)">
<title>%3</title>
<polygon fill="#ffffff" stroke="transparent" points="-4,4 -4,-1480 374,-1480 374,4 -4,4"/>
<!-- 0 -->
<g id="node1" class="node">
<title>0</title>
<g id="a_node1"><a xlink:title="S">
<ellipse fill="#ff6f00" stroke="#000000" stroke-width="0" cx="352" cy="-522" rx="18" ry="18"/>
</a>
</g>
</g>
<!-- 1 -->
<g id="node2" class="node">
<title>1</title>
<g id="a_node2"><a xlink:title="S">
<ellipse fill="#ff6f00" stroke="#000000" stroke-width="0" cx="271" cy="-18" rx="18" ry="18"/>
</a>
</g>
</g>
<!-- 2 -->
<g id="node3" class="node">
<title>2</title>
<g id="a_node3"><a xlink:title="S">
<ellipse fill="#ff6f00" stroke="#000000" stroke-width="0" cx="207" cy="-1458" rx="18" ry="18"/>
</a>
</g>
</g>
<!-- 14 -->
<g id="node15" class="node">
<title>14</title>
<g id="a_node15"><a xlink:title="S">
<ellipse fill="#ff6f00" stroke="#000000" stroke-width="0" cx="180" cy="-1386" rx="18" ry="18"/>
</a>
</g>
</g>
<!-- 2&#45;&gt;14 -->
<g id="edge41" class="edge">
<title>2&#45;&gt;14</title>
<path fill="none" stroke="#000000" d="M200.6014,-1440.937C197.407,-1432.4186 193.471,-1421.9227 189.8982,-1412.3952"/>
<polygon fill="#000000" stroke="#000000" points="193.1411,-1411.0749 186.3527,-1402.9405 186.5868,-1413.5328 193.1411,-1411.0749"/>
</g>
<!-- 46 -->
<g id="node47" class="node">
<title>46</title>
<g id="a_node47"><a xlink:title="S">
<ellipse fill="#ff6f00" stroke="#000000" stroke-width="0" cx="234" cy="-1386" rx="18" ry="18"/>
</a>
</g>
</g>
<!-- 2&#45;&gt;46 -->
<g id="edge20" class="edge">
<title>2&#45;&gt;46</title>
<path fill="none" stroke="#000000" d="M213.3986,-1440.937C216.593,-1432.4186 220.529,-1421.9227 224.1018,-1412.3952"/>
<polygon fill="#000000" stroke="#000000" points="227.4132,-1413.5328 227.6473,-1402.9405 220.8589,-1411.0749 227.4132,-1413.5328"/>
</g>
<!-- 3 -->
<g id="node4" class="node">
<title>3</title>
<g id="a_node4"><a xlink:title="S">
<ellipse fill="#ff6f00" stroke="#000000" stroke-width="0" cx="245" cy="-738" rx="18" ry="18"/>
</a>
</g>
</g>
<!-- 5 -->
<g id="node6" class="node">
<title>5</title>
<g id="a_node6"><a xlink:title="S">
<ellipse fill="#ff6f00" stroke="#000000" stroke-width="0" cx="163" cy="-666" rx="18" ry="18"/>
</a>
</g>
</g>
<!-- 3&#45;&gt;5 -->
<g id="edge42" class="edge">
<title>3&#45;&gt;5</title>
<path fill="none" stroke="#000000" d="M231.4594,-726.1107C218.64,-714.8547 199.1924,-697.7787 184.2968,-684.6996"/>
<polygon fill="#000000" stroke="#000000" points="186.3845,-681.875 176.5607,-677.907 181.7659,-687.1351 186.3845,-681.875"/>
</g>
<!-- 9 -->
<g id="node10" class="node">
<title>9</title>
<g id="a_node10"><a xlink:title="S">
<ellipse fill="#ff6f00" stroke="#000000" stroke-width="0" cx="244" cy="-666" rx="18" ry="18"/>
</a>
</g>
</g>
<!-- 3&#45;&gt;9 -->
<g id="edge36" class="edge">
<title>3&#45;&gt;9</title>
<path fill="none" stroke="#000000" d="M244.7477,-719.8314C244.6407,-712.131 244.5135,-702.9743 244.3947,-694.4166"/>
<polygon fill="#000000" stroke="#000000" points="247.8944,-694.3637 244.2557,-684.4133 240.8951,-694.4609 247.8944,-694.3637"/>
</g>
<!-- 35 -->
<g id="node36" class="node">
<title>35</title>
<g id="a_node36"><a xlink:title="S">
<ellipse fill="#ff6f00" stroke="#000000" stroke-width="0" cx="298" cy="-666" rx="18" ry="18"/>
</a>
</g>
</g>
<!-- 3&#45;&gt;35 -->
<g id="edge4" class="edge">
<title>3&#45;&gt;35</title>
<path fill="none" stroke="#000000" d="M255.7253,-723.4297C263.0528,-713.4754 272.9102,-700.0842 281.2632,-688.7368"/>
<polygon fill="#000000" stroke="#000000" points="284.1811,-690.6769 287.2906,-680.5486 278.5437,-686.5271 284.1811,-690.6769"/>
</g>
<!-- 4 -->
<g id="node5" class="node">
<title>4</title>
<g id="a_node5"><a xlink:title="S">
<ellipse fill="#ff6f00" stroke="#000000" stroke-width="0" cx="190" cy="-594" rx="18" ry="18"/>
</a>
</g>
</g>
<!-- 49 -->
<g id="node50" class="node">
<title>49</title>
<g id="a_node50"><a xlink:title="S">
<ellipse fill="#ff6f00" stroke="#000000" stroke-width="0" cx="190" cy="-522" rx="18" ry="18"/>
</a>
</g>
</g>
<!-- 4&#45;&gt;49 -->
<g id="edge31" class="edge">
<title>4&#45;&gt;49</title>
<path fill="none" stroke="#000000" d="M190,-575.8314C190,-568.131 190,-558.9743 190,-550.4166"/>
<polygon fill="#000000" stroke="#000000" points="193.5001,-550.4132 190,-540.4133 186.5001,-550.4133 193.5001,-550.4132"/>
</g>
<!-- 19 -->
<g id="node20" class="node">
<title>19</title>
<g id="a_node20"><a xlink:title="S">
<ellipse fill="#ff6f00" stroke="#000000" stroke-width="0" cx="136" cy="-594" rx="18" ry="18"/>
</a>
</g>
</g>
<!-- 5&#45;&gt;19 -->
<g id="edge8" class="edge">
<title>5&#45;&gt;19</title>
<path fill="none" stroke="#000000" d="M156.6014,-648.937C153.407,-640.4186 149.471,-629.9227 145.8982,-620.3952"/>
<polygon fill="#000000" stroke="#000000" points="149.1411,-619.0749 142.3527,-610.9405 142.5868,-621.5328 149.1411,-619.0749"/>
</g>
<!-- 6 -->
<g id="node7" class="node">
<title>6</title>
<g id="a_node7"><a xlink:title="S">
<ellipse fill="#ff6f00" stroke="#000000" stroke-width="0" cx="18" cy="-1026" rx="18" ry="18"/>
</a>
</g>
</g>
<!-- 7 -->
<g id="node8" class="node">
<title>7</title>
<g id="a_node8"><a xlink:title="S">
<ellipse fill="#ff6f00" stroke="#000000" stroke-width="0" cx="126" cy="-1026" rx="18" ry="18"/>
</a>
</g>
</g>
<!-- 8 -->
<g id="node9" class="node">
<title>8</title>
<g id="a_node9"><a xlink:title="S">
<ellipse fill="#ff6f00" stroke="#000000" stroke-width="0" cx="190" cy="-378" rx="18" ry="18"/>
</a>
</g>
</g>
<!-- 9&#45;&gt;4 -->
<g id="edge10" class="edge">
<title>9&#45;&gt;4</title>
<path fill="none" stroke="#000000" d="M233.0723,-651.4297C225.6066,-641.4754 215.5632,-628.0842 207.0526,-616.7368"/>
<polygon fill="#000000" stroke="#000000" points="209.7115,-614.4486 200.9115,-608.5486 204.1115,-618.6486 209.7115,-614.4486"/>
</g>
<!-- 31 -->
<g id="node32" class="node">
<title>31</title>
<g id="a_node32"><a xlink:title="S">
<ellipse fill="#ff6f00" stroke="#000000" stroke-width="0" cx="244" cy="-594" rx="18" ry="18"/>
</a>
</g>
</g>
<!-- 9&#45;&gt;31 -->
<g id="edge39" class="edge">
<title>9&#45;&gt;31</title>
<path fill="none" stroke="#000000" d="M244,-647.8314C244,-640.131 244,-630.9743 244,-622.4166"/>
<polygon fill="#000000" stroke="#000000" points="247.5001,-622.4132 244,-612.4133 240.5001,-622.4133 247.5001,-622.4132"/>
</g>
<!-- 10 -->
<g id="node11" class="node">
<title>10</title>
<g id="a_node11"><a xlink:title="S">
<ellipse fill="#ff6f00" stroke="#000000" stroke-width="0" cx="72" cy="-1170" rx="18" ry="18"/>
</a>
</g>
</g>
<!-- 23 -->
<g id="node24" class="node">
<title>23</title>
<g id="a_node24"><a xlink:title="S">
<ellipse fill="#ff6f00" stroke="#000000" stroke-width="0" cx="18" cy="-1098" rx="18" ry="18"/>
</a>
</g>
</g>
<!-- 10&#45;&gt;23 -->
<g id="edge40" class="edge">
<title>10&#45;&gt;23</title>
<path fill="none" stroke="#000000" d="M61.0723,-1155.4297C53.6066,-1145.4754 43.5632,-1132.0842 35.0526,-1120.7368"/>
<polygon fill="#000000" stroke="#000000" points="37.7115,-1118.4486 28.9115,-1112.5486 32.1115,-1122.6486 37.7115,-1118.4486"/>
</g>
<!-- 27 -->
<g id="node28" class="node">
<title>27</title>
<g id="a_node28"><a xlink:title="S">
<ellipse fill="#ff6f00" stroke="#000000" stroke-width="0" cx="72" cy="-1098" rx="18" ry="18"/>
</a>
</g>
</g>
<!-- 10&#45;&gt;27 -->
<g id="edge16" class="edge">
<title>10&#45;&gt;27</title>
<path fill="none" stroke="#000000" d="M72,-1151.8314C72,-1144.131 72,-1134.9743 72,-1126.4166"/>
<polygon fill="#000000" stroke="#000000" points="75.5001,-1126.4132 72,-1116.4133 68.5001,-1126.4133 75.5001,-1126.4132"/>
</g>
<!-- 11 -->
<g id="node12" class="node">
<title>11</title>
<g id="a_node12"><a xlink:title="S">
<ellipse fill="#ff6f00" stroke="#000000" stroke-width="0" cx="180" cy="-954" rx="18" ry="18"/>
</a>
</g>
</g>
<!-- 12 -->
<g id="node13" class="node">
<title>12</title>
<g id="a_node13"><a xlink:title="S">
<ellipse fill="#ff6f00" stroke="#000000" stroke-width="0" cx="272" cy="-810" rx="18" ry="18"/>
</a>
</g>
</g>
<!-- 12&#45;&gt;3 -->
<g id="edge22" class="edge">
<title>12&#45;&gt;3</title>
<path fill="none" stroke="#000000" d="M265.6014,-792.937C262.407,-784.4186 258.471,-773.9227 254.8982,-764.3952"/>
<polygon fill="#000000" stroke="#000000" points="258.1411,-763.0749 251.3527,-754.9405 251.5868,-765.5328 258.1411,-763.0749"/>
</g>
<!-- 13 -->
<g id="node14" class="node">
<title>13</title>
<g id="a_node14"><a xlink:title="S">
<ellipse fill="#ff6f00" stroke="#000000" stroke-width="0" cx="342" cy="-1098" rx="18" ry="18"/>
</a>
</g>
</g>
<!-- 43 -->
<g id="node44" class="node">
<title>43</title>
<g id="a_node44"><a xlink:title="S">
<ellipse fill="#ff6f00" stroke="#000000" stroke-width="0" cx="342" cy="-1026" rx="18" ry="18"/>
</a>
</g>
</g>
<!-- 13&#45;&gt;43 -->
<g id="edge26" class="edge">
<title>13&#45;&gt;43</title>
<path fill="none" stroke="#000000" d="M342,-1079.8314C342,-1072.131 342,-1062.9743 342,-1054.4166"/>
<polygon fill="#000000" stroke="#000000" points="345.5001,-1054.4132 342,-1044.4133 338.5001,-1054.4133 345.5001,-1054.4132"/>
</g>
<!-- 15 -->
<g id="node16" class="node">
<title>15</title>
<g id="a_node16"><a xlink:title="S">
<ellipse fill="#ff6f00" stroke="#000000" stroke-width="0" cx="126" cy="-1098" rx="18" ry="18"/>
</a>
</g>
</g>
<!-- 15&#45;&gt;7 -->
<g id="edge38" class="edge">
<title>15&#45;&gt;7</title>
<path fill="none" stroke="#000000" d="M126,-1079.8314C126,-1072.131 126,-1062.9743 126,-1054.4166"/>
<polygon fill="#000000" stroke="#000000" points="129.5001,-1054.4132 126,-1044.4133 122.5001,-1054.4133 129.5001,-1054.4132"/>
</g>
<!-- 16 -->
<g id="node17" class="node">
<title>16</title>
<g id="a_node17"><a xlink:title="S">
<ellipse fill="#ff6f00" stroke="#000000" stroke-width="0" cx="180" cy="-1170" rx="18" ry="18"/>
</a>
</g>
</g>
<!-- 16&#45;&gt;15 -->
<g id="edge17" class="edge">
<title>16&#45;&gt;15</title>
<path fill="none" stroke="#000000" d="M169.0723,-1155.4297C161.6066,-1145.4754 151.5632,-1132.0842 143.0526,-1120.7368"/>
<polygon fill="#000000" stroke="#000000" points="145.7115,-1118.4486 136.9115,-1112.5486 140.1115,-1122.6486 145.7115,-1118.4486"/>
</g>
<!-- 52 -->
<g id="node53" class="node">
<title>52</title>
<g id="a_node53"><a xlink:title="S">
<ellipse fill="#ff6f00" stroke="#000000" stroke-width="0" cx="180" cy="-1098" rx="18" ry="18"/>
</a>
</g>
</g>
<!-- 16&#45;&gt;52 -->
<g id="edge6" class="edge">
<title>16&#45;&gt;52</title>
<path fill="none" stroke="#000000" d="M180,-1151.8314C180,-1144.131 180,-1134.9743 180,-1126.4166"/>
<polygon fill="#000000" stroke="#000000" points="183.5001,-1126.4132 180,-1116.4133 176.5001,-1126.4133 183.5001,-1126.4132"/>
</g>
<!-- 17 -->
<g id="node18" class="node">
<title>17</title>
<g id="a_node18"><a xlink:title="S">
<ellipse fill="#ff6f00" stroke="#000000" stroke-width="0" cx="298" cy="-90" rx="18" ry="18"/>
</a>
</g>
</g>
<!-- 17&#45;&gt;1 -->
<g id="edge32" class="edge">
<title>17&#45;&gt;1</title>
<path fill="none" stroke="#000000" d="M291.6014,-72.937C288.407,-64.4186 284.471,-53.9227 280.8982,-44.3952"/>
<polygon fill="#000000" stroke="#000000" points="284.1411,-43.0749 277.3527,-34.9405 277.5868,-45.5328 284.1411,-43.0749"/>
</g>
<!-- 22 -->
<g id="node23" class="node">
<title>22</title>
<g id="a_node23"><a xlink:title="S">
<ellipse fill="#ff6f00" stroke="#000000" stroke-width="0" cx="325" cy="-18" rx="18" ry="18"/>
</a>
</g>
</g>
<!-- 17&#45;&gt;22 -->
<g id="edge37" class="edge">
<title>17&#45;&gt;22</title>
<path fill="none" stroke="#000000" d="M304.3986,-72.937C307.593,-64.4186 311.529,-53.9227 315.1018,-44.3952"/>
<polygon fill="#000000" stroke="#000000" points="318.4132,-45.5328 318.6473,-34.9405 311.8589,-43.0749 318.4132,-45.5328"/>
</g>
<!-- 18 -->
<g id="node19" class="node">
<title>18</title>
<g id="a_node19"><a xlink:title="S">
<ellipse fill="#ff6f00" stroke="#000000" stroke-width="0" cx="298" cy="-594" rx="18" ry="18"/>
</a>
</g>
</g>
<!-- 20 -->
<g id="node21" class="node">
<title>20</title>
<g id="a_node21"><a xlink:title="S">
<ellipse fill="#ff6f00" stroke="#000000" stroke-width="0" cx="298" cy="-522" rx="18" ry="18"/>
</a>
</g>
</g>
<!-- 18&#45;&gt;20 -->
<g id="edge21" class="edge">
<title>18&#45;&gt;20</title>
<path fill="none" stroke="#000000" d="M298,-575.8314C298,-568.131 298,-558.9743 298,-550.4166"/>
<polygon fill="#000000" stroke="#000000" points="301.5001,-550.4132 298,-540.4133 294.5001,-550.4133 301.5001,-550.4132"/>
</g>
<!-- 32 -->
<g id="node33" class="node">
<title>32</title>
<g id="a_node33"><a xlink:title="S">
<ellipse fill="#ff6f00" stroke="#000000" stroke-width="0" cx="298" cy="-450" rx="18" ry="18"/>
</a>
</g>
</g>
<!-- 20&#45;&gt;32 -->
<g id="edge5" class="edge">
<title>20&#45;&gt;32</title>
<path fill="none" stroke="#000000" d="M298,-503.8314C298,-496.131 298,-486.9743 298,-478.4166"/>
<polygon fill="#000000" stroke="#000000" points="301.5001,-478.4132 298,-468.4133 294.5001,-478.4133 301.5001,-478.4132"/>
</g>
<!-- 21 -->
<g id="node22" class="node">
<title>21</title>
<g id="a_node22"><a xlink:title="S">
<ellipse fill="#ff6f00" stroke="#000000" stroke-width="0" cx="287" cy="-954" rx="18" ry="18"/>
</a>
</g>
</g>
<!-- 30 -->
<g id="node31" class="node">
<title>30</title>
<g id="a_node31"><a xlink:title="S">
<ellipse fill="#ff6f00" stroke="#000000" stroke-width="0" cx="285" cy="-882" rx="18" ry="18"/>
</a>
</g>
</g>
<!-- 21&#45;&gt;30 -->
<g id="edge35" class="edge">
<title>21&#45;&gt;30</title>
<path fill="none" stroke="#000000" d="M286.4953,-935.8314C286.2814,-928.131 286.0271,-918.9743 285.7894,-910.4166"/>
<polygon fill="#000000" stroke="#000000" points="289.2879,-910.3122 285.5115,-900.4133 282.2906,-910.5066 289.2879,-910.3122"/>
</g>
<!-- 23&#45;&gt;6 -->
<g id="edge19" class="edge">
<title>23&#45;&gt;6</title>
<path fill="none" stroke="#000000" d="M18,-1079.8314C18,-1072.131 18,-1062.9743 18,-1054.4166"/>
<polygon fill="#000000" stroke="#000000" points="21.5001,-1054.4132 18,-1044.4133 14.5001,-1054.4133 21.5001,-1054.4132"/>
</g>
<!-- 24 -->
<g id="node25" class="node">
<title>24</title>
<g id="a_node25"><a xlink:title="N">
<ellipse fill="#beff39" stroke="#000000" stroke-width="0" cx="234" cy="-1098" rx="18" ry="18"/>
</a>
</g>
</g>
<!-- 25 -->
<g id="node26" class="node">
<title>25</title>
<g id="a_node26"><a xlink:title="S">
<ellipse fill="#ff6f00" stroke="#000000" stroke-width="0" cx="234" cy="-1242" rx="18" ry="18"/>
</a>
</g>
</g>
<!-- 25&#45;&gt;10 -->
<g id="edge43" class="edge">
<title>25&#45;&gt;10</title>
<path fill="none" stroke="#000000" d="M217.2733,-1234.5659C189.0193,-1222.0086 131.6462,-1196.5094 98.0738,-1181.5883"/>
<polygon fill="#000000" stroke="#000000" points="99.438,-1178.3646 88.8784,-1177.5015 96.595,-1184.7613 99.438,-1178.3646"/>
</g>
<!-- 25&#45;&gt;16 -->
<g id="edge2" class="edge">
<title>25&#45;&gt;16</title>
<path fill="none" stroke="#000000" d="M223.0723,-1227.4297C215.6066,-1217.4754 205.5632,-1204.0842 197.0526,-1192.7368"/>
<polygon fill="#000000" stroke="#000000" points="199.7115,-1190.4486 190.9115,-1184.5486 194.1115,-1194.6486 199.7115,-1190.4486"/>
</g>
<!-- 33 -->
<g id="node34" class="node">
<title>33</title>
<g id="a_node34"><a xlink:title="N">
<ellipse fill="#beff39" stroke="#000000" stroke-width="0" cx="234" cy="-1170" rx="18" ry="18"/>
</a>
</g>
</g>
<!-- 25&#45;&gt;33 -->
<g id="edge49" class="edge">
<title>25&#45;&gt;33</title>
<path fill="none" stroke="#000000" d="M234,-1223.8314C234,-1216.131 234,-1206.9743 234,-1198.4166"/>
<polygon fill="#000000" stroke="#000000" points="237.5001,-1198.4132 234,-1188.4133 230.5001,-1198.4133 237.5001,-1198.4132"/>
</g>
<!-- 44 -->
<g id="node45" class="node">
<title>44</title>
<g id="a_node45"><a xlink:title="S">
<ellipse fill="#ff6f00" stroke="#000000" stroke-width="0" cx="288" cy="-1170" rx="18" ry="18"/>
</a>
</g>
</g>
<!-- 25&#45;&gt;44 -->
<g id="edge48" class="edge">
<title>25&#45;&gt;44</title>
<path fill="none" stroke="#000000" d="M244.9277,-1227.4297C252.3934,-1217.4754 262.4368,-1204.0842 270.9474,-1192.7368"/>
<polygon fill="#000000" stroke="#000000" points="273.8885,-1194.6486 277.0885,-1184.5486 268.2885,-1190.4486 273.8885,-1194.6486"/>
</g>
<!-- 51 -->
<g id="node52" class="node">
<title>51</title>
<g id="a_node52"><a xlink:title="S">
<ellipse fill="#ff6f00" stroke="#000000" stroke-width="0" cx="342" cy="-1170" rx="18" ry="18"/>
</a>
</g>
</g>
<!-- 25&#45;&gt;51 -->
<g id="edge27" class="edge">
<title>25&#45;&gt;51</title>
<path fill="none" stroke="#000000" d="M249.0169,-1231.9887C266.97,-1220.02 297.2325,-1199.845 318.3396,-1185.7736"/>
<polygon fill="#000000" stroke="#000000" points="320.3834,-1188.6176 326.7624,-1180.1584 316.5005,-1182.7932 320.3834,-1188.6176"/>
</g>
<!-- 26 -->
<g id="node27" class="node">
<title>26</title>
<g id="a_node27"><a xlink:title="S">
<ellipse fill="#ff6f00" stroke="#000000" stroke-width="0" cx="298" cy="-306" rx="18" ry="18"/>
</a>
</g>
</g>
<!-- 50 -->
<g id="node51" class="node">
<title>50</title>
<g id="a_node51"><a xlink:title="S">
<ellipse fill="#ff6f00" stroke="#000000" stroke-width="0" cx="298" cy="-234" rx="18" ry="18"/>
</a>
</g>
</g>
<!-- 26&#45;&gt;50 -->
<g id="edge23" class="edge">
<title>26&#45;&gt;50</title>
<path fill="none" stroke="#000000" d="M298,-287.8314C298,-280.131 298,-270.9743 298,-262.4166"/>
<polygon fill="#000000" stroke="#000000" points="301.5001,-262.4132 298,-252.4133 294.5001,-262.4133 301.5001,-262.4132"/>
</g>
<!-- 28 -->
<g id="node29" class="node">
<title>28</title>
<g id="a_node29"><a xlink:title="S">
<ellipse fill="#ff6f00" stroke="#000000" stroke-width="0" cx="349" cy="-810" rx="18" ry="18"/>
</a>
</g>
</g>
<!-- 42 -->
<g id="node43" class="node">
<title>42</title>
<g id="a_node43"><a xlink:title="S">
<ellipse fill="#ff6f00" stroke="#000000" stroke-width="0" cx="351" cy="-738" rx="18" ry="18"/>
</a>
</g>
</g>
<!-- 28&#45;&gt;42 -->
<g id="edge13" class="edge">
<title>28&#45;&gt;42</title>
<path fill="none" stroke="#000000" d="M349.5047,-791.8314C349.7186,-784.131 349.9729,-774.9743 350.2106,-766.4166"/>
<polygon fill="#000000" stroke="#000000" points="353.7094,-766.5066 350.4885,-756.4133 346.7121,-766.3122 353.7094,-766.5066"/>
</g>
<!-- 29 -->
<g id="node30" class="node">
<title>29</title>
<g id="a_node30"><a xlink:title="S">
<ellipse fill="#ff6f00" stroke="#000000" stroke-width="0" cx="288" cy="-1098" rx="18" ry="18"/>
</a>
</g>
</g>
<!-- 38 -->
<g id="node39" class="node">
<title>38</title>
<g id="a_node39"><a xlink:title="S">
<ellipse fill="#ff6f00" stroke="#000000" stroke-width="0" cx="288" cy="-1026" rx="18" ry="18"/>
</a>
</g>
</g>
<!-- 29&#45;&gt;38 -->
<g id="edge24" class="edge">
<title>29&#45;&gt;38</title>
<path fill="none" stroke="#000000" d="M288,-1079.8314C288,-1072.131 288,-1062.9743 288,-1054.4166"/>
<polygon fill="#000000" stroke="#000000" points="291.5001,-1054.4132 288,-1044.4133 284.5001,-1054.4133 291.5001,-1054.4132"/>
</g>
<!-- 30&#45;&gt;12 -->
<g id="edge1" class="edge">
<title>30&#45;&gt;12</title>
<path fill="none" stroke="#000000" d="M281.7865,-864.2022C280.349,-856.2406 278.6205,-846.6671 277.0187,-837.7957"/>
<polygon fill="#000000" stroke="#000000" points="280.4428,-837.0615 275.2216,-827.8425 273.5542,-838.3053 280.4428,-837.0615"/>
</g>
<!-- 47 -->
<g id="node48" class="node">
<title>47</title>
<g id="a_node48"><a xlink:title="S">
<ellipse fill="#ff6f00" stroke="#000000" stroke-width="0" cx="298" cy="-378" rx="18" ry="18"/>
</a>
</g>
</g>
<!-- 32&#45;&gt;47 -->
<g id="edge45" class="edge">
<title>32&#45;&gt;47</title>
<path fill="none" stroke="#000000" d="M298,-431.8314C298,-424.131 298,-414.9743 298,-406.4166"/>
<polygon fill="#000000" stroke="#000000" points="301.5001,-406.4132 298,-396.4133 294.5001,-406.4133 301.5001,-406.4132"/>
</g>
<!-- 33&#45;&gt;24 -->
<g id="edge44" class="edge">
<title>33&#45;&gt;24</title>
<path fill="none" stroke="#000000" d="M234,-1151.8314C234,-1144.131 234,-1134.9743 234,-1126.4166"/>
<polygon fill="#000000" stroke="#000000" points="237.5001,-1126.4132 234,-1116.4133 230.5001,-1126.4133 237.5001,-1126.4132"/>
</g>
<!-- 34 -->
<g id="node35" class="node">
<title>34</title>
<g id="a_node35"><a xlink:title="S">
<ellipse fill="#ff6f00" stroke="#000000" stroke-width="0" cx="180" cy="-1026" rx="18" ry="18"/>
</a>
</g>
</g>
<!-- 34&#45;&gt;11 -->
<g id="edge29" class="edge">
<title>34&#45;&gt;11</title>
<path fill="none" stroke="#000000" d="M180,-1007.8314C180,-1000.131 180,-990.9743 180,-982.4166"/>
<polygon fill="#000000" stroke="#000000" points="183.5001,-982.4132 180,-972.4133 176.5001,-982.4133 183.5001,-982.4132"/>
</g>
<!-- 35&#45;&gt;18 -->
<g id="edge9" class="edge">
<title>35&#45;&gt;18</title>
<path fill="none" stroke="#000000" d="M298,-647.8314C298,-640.131 298,-630.9743 298,-622.4166"/>
<polygon fill="#000000" stroke="#000000" points="301.5001,-622.4132 298,-612.4133 294.5001,-622.4133 301.5001,-622.4132"/>
</g>
<!-- 36 -->
<g id="node37" class="node">
<title>36</title>
<g id="a_node37"><a xlink:title="S">
<ellipse fill="#ff6f00" stroke="#000000" stroke-width="0" cx="298" cy="-162" rx="18" ry="18"/>
</a>
</g>
</g>
<!-- 36&#45;&gt;17 -->
<g id="edge7" class="edge">
<title>36&#45;&gt;17</title>
<path fill="none" stroke="#000000" d="M298,-143.8314C298,-136.131 298,-126.9743 298,-118.4166"/>
<polygon fill="#000000" stroke="#000000" points="301.5001,-118.4132 298,-108.4133 294.5001,-118.4133 301.5001,-118.4132"/>
</g>
<!-- 37 -->
<g id="node38" class="node">
<title>37</title>
<g id="a_node38"><a xlink:title="S">
<ellipse fill="#ff6f00" stroke="#000000" stroke-width="0" cx="343" cy="-954" rx="18" ry="18"/>
</a>
</g>
</g>
<!-- 41 -->
<g id="node42" class="node">
<title>41</title>
<g id="a_node42"><a xlink:title="S">
<ellipse fill="#ff6f00" stroke="#000000" stroke-width="0" cx="346" cy="-882" rx="18" ry="18"/>
</a>
</g>
</g>
<!-- 37&#45;&gt;41 -->
<g id="edge25" class="edge">
<title>37&#45;&gt;41</title>
<path fill="none" stroke="#000000" d="M343.757,-935.8314C344.0779,-928.131 344.4594,-918.9743 344.816,-910.4166"/>
<polygon fill="#000000" stroke="#000000" points="348.3133,-910.5503 345.2328,-900.4133 341.3194,-910.2589 348.3133,-910.5503"/>
</g>
<!-- 38&#45;&gt;21 -->
<g id="edge15" class="edge">
<title>38&#45;&gt;21</title>
<path fill="none" stroke="#000000" d="M287.7477,-1007.8314C287.6407,-1000.131 287.5135,-990.9743 287.3947,-982.4166"/>
<polygon fill="#000000" stroke="#000000" points="290.8944,-982.3637 287.2557,-972.4133 283.8951,-982.4609 290.8944,-982.3637"/>
</g>
<!-- 39 -->
<g id="node40" class="node">
<title>39</title>
<g id="a_node40"><a xlink:title="S">
<ellipse fill="#ff6f00" stroke="#000000" stroke-width="0" cx="190" cy="-450" rx="18" ry="18"/>
</a>
</g>
</g>
<!-- 39&#45;&gt;8 -->
<g id="edge11" class="edge">
<title>39&#45;&gt;8</title>
<path fill="none" stroke="#000000" d="M190,-431.8314C190,-424.131 190,-414.9743 190,-406.4166"/>
<polygon fill="#000000" stroke="#000000" points="193.5001,-406.4132 190,-396.4133 186.5001,-406.4133 193.5001,-406.4132"/>
</g>
<!-- 40 -->
<g id="node41" class="node">
<title>40</title>
<g id="a_node41"><a xlink:title="S">
<ellipse fill="#ff6f00" stroke="#000000" stroke-width="0" cx="352" cy="-594" rx="18" ry="18"/>
</a>
</g>
</g>
<!-- 40&#45;&gt;0 -->
<g id="edge3" class="edge">
<title>40&#45;&gt;0</title>
<path fill="none" stroke="#000000" d="M352,-575.8314C352,-568.131 352,-558.9743 352,-550.4166"/>
<polygon fill="#000000" stroke="#000000" points="355.5001,-550.4132 352,-540.4133 348.5001,-550.4133 355.5001,-550.4132"/>
</g>
<!-- 41&#45;&gt;28 -->
<g id="edge33" class="edge">
<title>41&#45;&gt;28</title>
<path fill="none" stroke="#000000" d="M346.757,-863.8314C347.0779,-856.131 347.4594,-846.9743 347.816,-838.4166"/>
<polygon fill="#000000" stroke="#000000" points="351.3133,-838.5503 348.2328,-828.4133 344.3194,-838.2589 351.3133,-838.5503"/>
</g>
<!-- 48 -->
<g id="node49" class="node">
<title>48</title>
<g id="a_node49"><a xlink:title="S">
<ellipse fill="#ff6f00" stroke="#000000" stroke-width="0" cx="352" cy="-666" rx="18" ry="18"/>
</a>
</g>
</g>
<!-- 42&#45;&gt;48 -->
<g id="edge51" class="edge">
<title>42&#45;&gt;48</title>
<path fill="none" stroke="#000000" d="M351.2523,-719.8314C351.3593,-712.131 351.4865,-702.9743 351.6053,-694.4166"/>
<polygon fill="#000000" stroke="#000000" points="355.1049,-694.4609 351.7443,-684.4133 348.1056,-694.3637 355.1049,-694.4609"/>
</g>
<!-- 43&#45;&gt;37 -->
<g id="edge12" class="edge">
<title>43&#45;&gt;37</title>
<path fill="none" stroke="#000000" d="M342.2523,-1007.8314C342.3593,-1000.131 342.4865,-990.9743 342.6053,-982.4166"/>
<polygon fill="#000000" stroke="#000000" points="346.1049,-982.4609 342.7443,-972.4133 339.1056,-982.3637 346.1049,-982.4609"/>
</g>
<!-- 44&#45;&gt;29 -->
<g id="edge52" class="edge">
<title>44&#45;&gt;29</title>
<path fill="none" stroke="#000000" d="M288,-1151.8314C288,-1144.131 288,-1134.9743 288,-1126.4166"/>
<polygon fill="#000000" stroke="#000000" points="291.5001,-1126.4132 288,-1116.4133 284.5001,-1126.4133 291.5001,-1126.4132"/>
</g>
<!-- 45 -->
<g id="node46" class="node">
<title>45</title>
<g id="a_node46"><a xlink:title="R">
<ellipse fill="#ffa300" stroke="#000000" stroke-width="0" cx="234" cy="-1314" rx="18" ry="18"/>
</a>
</g>
</g>
<!-- 45&#45;&gt;25 -->
<g id="edge18" class="edge">
<title>45&#45;&gt;25</title>
<path fill="none" stroke="#000000" d="M234,-1295.8314C234,-1288.131 234,-1278.9743 234,-1270.4166"/>
<polygon fill="#000000" stroke="#000000" points="237.5001,-1270.4132 234,-1260.4133 230.5001,-1270.4133 237.5001,-1270.4132"/>
</g>
<!-- 46&#45;&gt;45 -->
<g id="edge47" class="edge">
<title>46&#45;&gt;45</title>
<path fill="none" stroke="#000000" d="M234,-1367.8314C234,-1360.131 234,-1350.9743 234,-1342.4166"/>
<polygon fill="#000000" stroke="#000000" points="237.5001,-1342.4132 234,-1332.4133 230.5001,-1342.4133 237.5001,-1342.4132"/>
</g>
<!-- 47&#45;&gt;26 -->
<g id="edge50" class="edge">
<title>47&#45;&gt;26</title>
<path fill="none" stroke="#000000" d="M298,-359.8314C298,-352.131 298,-342.9743 298,-334.4166"/>
<polygon fill="#000000" stroke="#000000" points="301.5001,-334.4132 298,-324.4133 294.5001,-334.4133 301.5001,-334.4132"/>
</g>
<!-- 48&#45;&gt;40 -->
<g id="edge14" class="edge">
<title>48&#45;&gt;40</title>
<path fill="none" stroke="#000000" d="M352,-647.8314C352,-640.131 352,-630.9743 352,-622.4166"/>
<polygon fill="#000000" stroke="#000000" points="355.5001,-622.4132 352,-612.4133 348.5001,-622.4133 355.5001,-622.4132"/>
</g>
<!-- 49&#45;&gt;39 -->
<g id="edge28" class="edge">
<title>49&#45;&gt;39</title>
<path fill="none" stroke="#000000" d="M190,-503.8314C190,-496.131 190,-486.9743 190,-478.4166"/>
<polygon fill="#000000" stroke="#000000" points="193.5001,-478.4132 190,-468.4133 186.5001,-478.4133 193.5001,-478.4132"/>
</g>
<!-- 50&#45;&gt;36 -->
<g id="edge34" class="edge">
<title>50&#45;&gt;36</title>
<path fill="none" stroke="#000000" d="M298,-215.8314C298,-208.131 298,-198.9743 298,-190.4166"/>
<polygon fill="#000000" stroke="#000000" points="301.5001,-190.4132 298,-180.4133 294.5001,-190.4133 301.5001,-190.4132"/>
</g>
<!-- 51&#45;&gt;13 -->
<g id="edge30" class="edge">
<title>51&#45;&gt;13</title>
<path fill="none" stroke="#000000" d="M342,-1151.8314C342,-1144.131 342,-1134.9743 342,-1126.4166"/>
<polygon fill="#000000" stroke="#000000" points="345.5001,-1126.4132 342,-1116.4133 338.5001,-1126.4133 345.5001,-1126.4132"/>
</g>
<!-- 52&#45;&gt;34 -->
<g id="edge46" class="edge">
<title>52&#45;&gt;34</title>
<path fill="none" stroke="#000000" d="M180,-1079.8314C180,-1072.131 180,-1062.9743 180,-1054.4166"/>
<polygon fill="#000000" stroke="#000000" points="183.5001,-1054.4132 180,-1044.4133 176.5001,-1054.4133 183.5001,-1054.4132"/>
</g>
</g>
</svg>
