<?xml version="1.0" encoding="UTF-8" standalone="no"?>
<!DOCTYPE svg PUBLIC "-//W3C//DTD SVG 1.1//EN"
 "http://www.w3.org/Graphics/SVG/1.1/DTD/svg11.dtd">
<!-- Generated by graphviz version 2.38.0 (20140413.2041)
 -->
<!-- Title: %3 Pages: 1 -->
<svg width="730pt" height="908pt"
 viewBox="0.00 0.00 730.19 908.00" xmlns="http://www.w3.org/2000/svg" xmlns:xlink="http://www.w3.org/1999/xlink">
<g id="graph0" class="graph" transform="scale(1 1) rotate(0) translate(4 904)">
<title>%3</title>
<polygon fill="white" stroke="none" points="-4,4 -4,-904 726.193,-904 726.193,4 -4,4"/>
<!-- 0 -->
<g id="node1" class="node"><title>0</title>
<g id="a_node1"><a xlink:title="0, diversity: 3, multiplicities: 1,50,724, labels: 1,0,3,2">
<ellipse fill="#e32f27" stroke="black" cx="142.596" cy="-378" rx="57.6901" ry="18"/>
<text text-anchor="middle" x="142.596" y="-374.3" font-family="Times,serif" font-size="14.00">0 (3): 1,0,3,2</text>
</a>
</g>
</g>
<!-- 10 -->
<g id="node11" class="node"><title>10</title>
<g id="a_node11"><a xlink:title="10, diversity: 1, multiplicities: 2, labels: 3">
<ellipse fill="#fee3d6" stroke="black" cx="41.5963" cy="-306" rx="41.6928" ry="18"/>
<text text-anchor="middle" x="41.5963" y="-302.3" font-family="Times,serif" font-size="14.00">10 (1): 3</text>
</a>
</g>
</g>
<!-- 0&#45;&gt;10 -->
<g id="edge8" class="edge"><title>0&#45;&gt;10</title>
<path fill="none" stroke="black" d="M119.93,-361.291C105.503,-351.291 86.6673,-338.237 71.0822,-327.436"/>
<polygon fill="black" stroke="black" points="73.0195,-324.52 62.8067,-321.7 69.032,-330.273 73.0195,-324.52"/>
</g>
<!-- 23 -->
<g id="node24" class="node"><title>23</title>
<g id="a_node24"><a xlink:title="23, diversity: 1, multiplicities: 2, labels: 3">
<ellipse fill="#fee3d6" stroke="black" cx="142.596" cy="-306" rx="41.6928" ry="18"/>
<text text-anchor="middle" x="142.596" y="-302.3" font-family="Times,serif" font-size="14.00">23 (1): 3</text>
</a>
</g>
</g>
<!-- 0&#45;&gt;23 -->
<g id="edge27" class="edge"><title>0&#45;&gt;23</title>
<path fill="none" stroke="black" d="M142.596,-359.697C142.596,-351.983 142.596,-342.712 142.596,-334.112"/>
<polygon fill="black" stroke="black" points="146.096,-334.104 142.596,-324.104 139.096,-334.104 146.096,-334.104"/>
</g>
<!-- 1 -->
<g id="node2" class="node"><title>1</title>
<g id="a_node2"><a xlink:title="1, diversity: 1, multiplicities: 27, labels: 1,3">
<ellipse fill="#fca082" stroke="black" cx="68.5963" cy="-162" rx="44.393" ry="18"/>
<text text-anchor="middle" x="68.5963" y="-158.3" font-family="Times,serif" font-size="14.00">1 (1): 1,3</text>
</a>
</g>
</g>
<!-- 2 -->
<g id="node3" class="node"><title>2</title>
<g id="a_node3"><a xlink:title="2, diversity: 4, multiplicities: 1,1,7,65, labels: 0,3">
<ellipse fill="#fca082" stroke="black" cx="301.596" cy="-234" rx="44.393" ry="18"/>
<text text-anchor="middle" x="301.596" y="-230.3" font-family="Times,serif" font-size="14.00">2 (4): 0,3</text>
</a>
</g>
</g>
<!-- 17 -->
<g id="node18" class="node"><title>17</title>
<g id="a_node18"><a xlink:title="17, diversity: 1, multiplicities: 5, labels: 3">
<ellipse fill="#fee3d6" stroke="black" cx="172.596" cy="-162" rx="41.6928" ry="18"/>
<text text-anchor="middle" x="172.596" y="-158.3" font-family="Times,serif" font-size="14.00">17 (1): 3</text>
</a>
</g>
</g>
<!-- 2&#45;&gt;17 -->
<g id="edge19" class="edge"><title>2&#45;&gt;17</title>
<path fill="none" stroke="black" d="M276.11,-219.17C256.193,-208.363 228.326,-193.241 206.523,-181.41"/>
<polygon fill="black" stroke="black" points="208.049,-178.256 197.591,-176.563 204.711,-184.409 208.049,-178.256"/>
</g>
<!-- 32 -->
<g id="node33" class="node"><title>32</title>
<g id="a_node33"><a xlink:title="32, diversity: 1, multiplicities: 6, labels: 3">
<ellipse fill="#fcc4ad" stroke="black" cx="273.596" cy="-162" rx="41.6928" ry="18"/>
<text text-anchor="middle" x="273.596" y="-158.3" font-family="Times,serif" font-size="14.00">32 (1): 3</text>
</a>
</g>
</g>
<!-- 2&#45;&gt;32 -->
<g id="edge32" class="edge"><title>2&#45;&gt;32</title>
<path fill="none" stroke="black" d="M294.818,-216.055C291.585,-207.973 287.645,-198.121 284.041,-189.112"/>
<polygon fill="black" stroke="black" points="287.276,-187.774 280.312,-179.789 280.776,-190.374 287.276,-187.774"/>
</g>
<!-- 34 -->
<g id="node35" class="node"><title>34</title>
<g id="a_node35"><a xlink:title="34, diversity: 1, multiplicities: 7, labels: 3">
<ellipse fill="#fcc4ad" stroke="black" cx="374.596" cy="-162" rx="41.6928" ry="18"/>
<text text-anchor="middle" x="374.596" y="-158.3" font-family="Times,serif" font-size="14.00">34 (1): 3</text>
</a>
</g>
</g>
<!-- 2&#45;&gt;34 -->
<g id="edge9" class="edge"><title>2&#45;&gt;34</title>
<path fill="none" stroke="black" d="M318.161,-217.116C327.842,-207.833 340.223,-195.961 350.92,-185.704"/>
<polygon fill="black" stroke="black" points="353.553,-188.028 358.348,-178.58 348.708,-182.975 353.553,-188.028"/>
</g>
<!-- 35 -->
<g id="node36" class="node"><title>35</title>
<g id="a_node36"><a xlink:title="35, diversity: 1, multiplicities: 7, labels: 3">
<ellipse fill="#fcc4ad" stroke="black" cx="475.596" cy="-162" rx="41.6928" ry="18"/>
<text text-anchor="middle" x="475.596" y="-158.3" font-family="Times,serif" font-size="14.00">35 (1): 3</text>
</a>
</g>
</g>
<!-- 2&#45;&gt;35 -->
<g id="edge18" class="edge"><title>2&#45;&gt;35</title>
<path fill="none" stroke="black" d="M331.905,-220.807C361.024,-209.092 405.15,-191.34 436.818,-178.601"/>
<polygon fill="black" stroke="black" points="438.244,-181.8 446.215,-174.82 435.631,-175.305 438.244,-181.8"/>
</g>
<!-- 3 -->
<g id="node4" class="node"><title>3</title>
<g id="a_node4"><a xlink:title="3, diversity: 2, multiplicities: 15,22, labels: 3">
<ellipse fill="#fca082" stroke="black" cx="576.596" cy="-18" rx="37.0935" ry="18"/>
<text text-anchor="middle" x="576.596" y="-14.3" font-family="Times,serif" font-size="14.00">3 (2): 3</text>
</a>
</g>
</g>
<!-- 4 -->
<g id="node5" class="node"><title>4</title>
<g id="a_node5"><a xlink:title="4, diversity: 3, multiplicities: 2,2,15, labels: 3">
<ellipse fill="#fca082" stroke="black" cx="301.596" cy="-450" rx="37.0935" ry="18"/>
<text text-anchor="middle" x="301.596" y="-446.3" font-family="Times,serif" font-size="14.00">4 (3): 3</text>
</a>
</g>
</g>
<!-- 4&#45;&gt;0 -->
<g id="edge13" class="edge"><title>4&#45;&gt;0</title>
<path fill="none" stroke="black" d="M274.983,-437.284C250.123,-426.339 212.635,-409.834 183.889,-397.179"/>
<polygon fill="black" stroke="black" points="185.07,-393.875 174.507,-393.049 182.249,-400.282 185.07,-393.875"/>
</g>
<!-- 6 -->
<g id="node7" class="node"><title>6</title>
<g id="a_node7"><a xlink:title="6, diversity: 3, multiplicities: 1,1,3, labels: 3">
<ellipse fill="#fee3d6" stroke="black" cx="301.596" cy="-378" rx="37.0935" ry="18"/>
<text text-anchor="middle" x="301.596" y="-374.3" font-family="Times,serif" font-size="14.00">6 (3): 3</text>
</a>
</g>
</g>
<!-- 4&#45;&gt;6 -->
<g id="edge30" class="edge"><title>4&#45;&gt;6</title>
<path fill="none" stroke="black" d="M301.596,-431.697C301.596,-423.983 301.596,-414.712 301.596,-406.112"/>
<polygon fill="black" stroke="black" points="305.096,-406.104 301.596,-396.104 298.096,-406.104 305.096,-406.104"/>
</g>
<!-- 5 -->
<g id="node6" class="node"><title>5</title>
<g id="a_node6"><a xlink:title="5, diversity: 1, multiplicities: 2, labels: 3">
<ellipse fill="#fee3d6" stroke="black" cx="680.596" cy="-450" rx="37.0935" ry="18"/>
<text text-anchor="middle" x="680.596" y="-446.3" font-family="Times,serif" font-size="14.00">5 (1): 3</text>
</a>
</g>
</g>
<!-- 19 -->
<g id="node20" class="node"><title>19</title>
<g id="a_node20"><a xlink:title="19, diversity: 1, multiplicities: 2, labels: 3">
<ellipse fill="#fee3d6" stroke="black" cx="680.596" cy="-378" rx="41.6928" ry="18"/>
<text text-anchor="middle" x="680.596" y="-374.3" font-family="Times,serif" font-size="14.00">19 (1): 3</text>
</a>
</g>
</g>
<!-- 5&#45;&gt;19 -->
<g id="edge4" class="edge"><title>5&#45;&gt;19</title>
<path fill="none" stroke="black" d="M680.596,-431.697C680.596,-423.983 680.596,-414.712 680.596,-406.112"/>
<polygon fill="black" stroke="black" points="684.096,-406.104 680.596,-396.104 677.096,-406.104 684.096,-406.104"/>
</g>
<!-- 27 -->
<g id="node28" class="node"><title>27</title>
<g id="a_node28"><a xlink:title="27, diversity: 2, multiplicities: 1,2, labels: 3">
<ellipse fill="#fee3d6" stroke="black" cx="301.596" cy="-306" rx="41.6928" ry="18"/>
<text text-anchor="middle" x="301.596" y="-302.3" font-family="Times,serif" font-size="14.00">27 (2): 3</text>
</a>
</g>
</g>
<!-- 6&#45;&gt;27 -->
<g id="edge35" class="edge"><title>6&#45;&gt;27</title>
<path fill="none" stroke="black" d="M301.596,-359.697C301.596,-351.983 301.596,-342.712 301.596,-334.112"/>
<polygon fill="black" stroke="black" points="305.096,-334.104 301.596,-324.104 298.096,-334.104 305.096,-334.104"/>
</g>
<!-- 7 -->
<g id="node8" class="node"><title>7</title>
<g id="a_node8"><a xlink:title="7, diversity: 1, multiplicities: 2, labels: 3">
<ellipse fill="#fee3d6" stroke="black" cx="503.596" cy="-450" rx="37.0935" ry="18"/>
<text text-anchor="middle" x="503.596" y="-446.3" font-family="Times,serif" font-size="14.00">7 (1): 3</text>
</a>
</g>
</g>
<!-- 20 -->
<g id="node21" class="node"><title>20</title>
<g id="a_node21"><a xlink:title="20, diversity: 1, multiplicities: 1, labels: 3">
<ellipse fill="#fff5f0" stroke="black" cx="507.596" cy="-378" rx="41.6928" ry="18"/>
<text text-anchor="middle" x="507.596" y="-374.3" font-family="Times,serif" font-size="14.00">20 (1): 3</text>
</a>
</g>
</g>
<!-- 7&#45;&gt;20 -->
<g id="edge14" class="edge"><title>7&#45;&gt;20</title>
<path fill="none" stroke="black" d="M504.585,-431.697C505.026,-423.983 505.556,-414.712 506.047,-406.112"/>
<polygon fill="black" stroke="black" points="509.543,-406.288 506.619,-396.104 502.554,-405.888 509.543,-406.288"/>
</g>
<!-- 8 -->
<g id="node9" class="node"><title>8</title>
<g id="a_node9"><a xlink:title="8, diversity: 1, multiplicities: 2, labels: 3">
<ellipse fill="#fee3d6" stroke="black" cx="353.596" cy="-522" rx="37.0935" ry="18"/>
<text text-anchor="middle" x="353.596" y="-518.3" font-family="Times,serif" font-size="14.00">8 (1): 3</text>
</a>
</g>
</g>
<!-- 8&#45;&gt;4 -->
<g id="edge37" class="edge"><title>8&#45;&gt;4</title>
<path fill="none" stroke="black" d="M341.536,-504.765C335.038,-496.018 326.892,-485.052 319.654,-475.308"/>
<polygon fill="black" stroke="black" points="322.364,-473.088 313.591,-467.147 316.745,-477.262 322.364,-473.088"/>
</g>
<!-- 9 -->
<g id="node10" class="node"><title>9</title>
<g id="a_node10"><a xlink:title="9, diversity: 1, multiplicities: 7, labels: 3">
<ellipse fill="#fcc4ad" stroke="black" cx="502.596" cy="-882" rx="37.0935" ry="18"/>
<text text-anchor="middle" x="502.596" y="-878.3" font-family="Times,serif" font-size="14.00">9 (1): 3</text>
</a>
</g>
</g>
<!-- 13 -->
<g id="node14" class="node"><title>13</title>
<g id="a_node14"><a xlink:title="13, diversity: 1, multiplicities: 5, labels: 3">
<ellipse fill="#fee3d6" stroke="black" cx="452.596" cy="-810" rx="41.6928" ry="18"/>
<text text-anchor="middle" x="452.596" y="-806.3" font-family="Times,serif" font-size="14.00">13 (1): 3</text>
</a>
</g>
</g>
<!-- 9&#45;&gt;13 -->
<g id="edge28" class="edge"><title>9&#45;&gt;13</title>
<path fill="none" stroke="black" d="M491,-864.765C484.904,-856.23 477.298,-845.582 470.467,-836.019"/>
<polygon fill="black" stroke="black" points="473.138,-833.736 464.477,-827.633 467.442,-837.805 473.138,-833.736"/>
</g>
<!-- 29 -->
<g id="node30" class="node"><title>29</title>
<g id="a_node30"><a xlink:title="29, diversity: 1, multiplicities: 3, labels: 3">
<ellipse fill="#fee3d6" stroke="black" cx="553.596" cy="-810" rx="41.6928" ry="18"/>
<text text-anchor="middle" x="553.596" y="-806.3" font-family="Times,serif" font-size="14.00">29 (1): 3</text>
</a>
</g>
</g>
<!-- 9&#45;&gt;29 -->
<g id="edge5" class="edge"><title>9&#45;&gt;29</title>
<path fill="none" stroke="black" d="M514.425,-864.765C520.706,-856.143 528.559,-845.365 535.581,-835.727"/>
<polygon fill="black" stroke="black" points="538.418,-837.777 541.478,-827.633 532.76,-833.655 538.418,-837.777"/>
</g>
<!-- 21 -->
<g id="node22" class="node"><title>21</title>
<g id="a_node22"><a xlink:title="21, diversity: 1, multiplicities: 16, labels: 3">
<ellipse fill="#fca082" stroke="black" cx="41.5963" cy="-234" rx="41.6928" ry="18"/>
<text text-anchor="middle" x="41.5963" y="-230.3" font-family="Times,serif" font-size="14.00">21 (1): 3</text>
</a>
</g>
</g>
<!-- 10&#45;&gt;21 -->
<g id="edge6" class="edge"><title>10&#45;&gt;21</title>
<path fill="none" stroke="black" d="M41.5963,-287.697C41.5963,-279.983 41.5963,-270.712 41.5963,-262.112"/>
<polygon fill="black" stroke="black" points="45.0964,-262.104 41.5963,-252.104 38.0964,-262.104 45.0964,-262.104"/>
</g>
<!-- 11 -->
<g id="node12" class="node"><title>11</title>
<g id="a_node12"><a xlink:title="11, diversity: 4, multiplicities: 1,2,6,82, labels: 3">
<ellipse fill="#fca082" stroke="black" cx="142.596" cy="-234" rx="41.6928" ry="18"/>
<text text-anchor="middle" x="142.596" y="-230.3" font-family="Times,serif" font-size="14.00">11 (4): 3</text>
</a>
</g>
</g>
<!-- 11&#45;&gt;1 -->
<g id="edge17" class="edge"><title>11&#45;&gt;1</title>
<path fill="none" stroke="black" d="M125.805,-217.116C116.059,-207.897 103.616,-196.127 92.8251,-185.919"/>
<polygon fill="black" stroke="black" points="94.9915,-183.151 85.3216,-178.821 90.1811,-188.236 94.9915,-183.151"/>
</g>
<!-- 12 -->
<g id="node13" class="node"><title>12</title>
<g id="a_node13"><a xlink:title="12, diversity: 1, multiplicities: 5, labels: 3">
<ellipse fill="#fee3d6" stroke="black" cx="553.596" cy="-666" rx="41.6928" ry="18"/>
<text text-anchor="middle" x="553.596" y="-662.3" font-family="Times,serif" font-size="14.00">12 (1): 3</text>
</a>
</g>
</g>
<!-- 15 -->
<g id="node16" class="node"><title>15</title>
<g id="a_node16"><a xlink:title="15, diversity: 3, multiplicities: 2,7,8, labels: 3">
<ellipse fill="#fca082" stroke="black" cx="503.596" cy="-594" rx="41.6928" ry="18"/>
<text text-anchor="middle" x="503.596" y="-590.3" font-family="Times,serif" font-size="14.00">15 (3): 3</text>
</a>
</g>
</g>
<!-- 12&#45;&gt;15 -->
<g id="edge29" class="edge"><title>12&#45;&gt;15</title>
<path fill="none" stroke="black" d="M541.747,-648.411C535.645,-639.868 528.081,-629.278 521.302,-619.787"/>
<polygon fill="black" stroke="black" points="524.021,-617.573 515.361,-611.47 518.325,-621.642 524.021,-617.573"/>
</g>
<!-- 18 -->
<g id="node19" class="node"><title>18</title>
<g id="a_node19"><a xlink:title="18, diversity: 1, multiplicities: 2, labels: 3">
<ellipse fill="#fee3d6" stroke="black" cx="654.596" cy="-594" rx="41.6928" ry="18"/>
<text text-anchor="middle" x="654.596" y="-590.3" font-family="Times,serif" font-size="14.00">18 (1): 3</text>
</a>
</g>
</g>
<!-- 12&#45;&gt;18 -->
<g id="edge24" class="edge"><title>12&#45;&gt;18</title>
<path fill="none" stroke="black" d="M575.016,-650.155C589.575,-640.064 609.027,-626.583 625.055,-615.474"/>
<polygon fill="black" stroke="black" points="627.329,-618.157 633.554,-609.584 623.341,-612.403 627.329,-618.157"/>
</g>
<!-- 14 -->
<g id="node15" class="node"><title>14</title>
<g id="a_node15"><a xlink:title="14, diversity: 1, multiplicities: 1, labels: 3">
<ellipse fill="#fff5f0" stroke="black" cx="526.596" cy="-234" rx="41.6928" ry="18"/>
<text text-anchor="middle" x="526.596" y="-230.3" font-family="Times,serif" font-size="14.00">14 (1): 3</text>
</a>
</g>
</g>
<!-- 36 -->
<g id="node37" class="node"><title>36</title>
<g id="a_node37"><a xlink:title="36, diversity: 1, multiplicities: 1, labels: 3">
<ellipse fill="#fff5f0" stroke="black" cx="576.596" cy="-162" rx="41.6928" ry="18"/>
<text text-anchor="middle" x="576.596" y="-158.3" font-family="Times,serif" font-size="14.00">36 (1): 3</text>
</a>
</g>
</g>
<!-- 14&#45;&gt;36 -->
<g id="edge33" class="edge"><title>14&#45;&gt;36</title>
<path fill="none" stroke="black" d="M538.446,-216.411C544.548,-207.868 552.112,-197.278 558.891,-187.787"/>
<polygon fill="black" stroke="black" points="561.868,-189.642 564.832,-179.47 556.172,-185.573 561.868,-189.642"/>
</g>
<!-- 15&#45;&gt;8 -->
<g id="edge7" class="edge"><title>15&#45;&gt;8</title>
<path fill="none" stroke="black" d="M476.432,-580.324C451.845,-568.849 415.485,-551.881 388.701,-539.382"/>
<polygon fill="black" stroke="black" points="389.848,-536.055 379.306,-534.998 386.887,-542.398 389.848,-536.055"/>
</g>
<!-- 16 -->
<g id="node17" class="node"><title>16</title>
<g id="a_node17"><a xlink:title="16, diversity: 1, multiplicities: 1, labels: 3">
<ellipse fill="#fff5f0" stroke="black" cx="478.596" cy="-522" rx="41.6928" ry="18"/>
<text text-anchor="middle" x="478.596" y="-518.3" font-family="Times,serif" font-size="14.00">16 (1): 3</text>
</a>
</g>
</g>
<!-- 15&#45;&gt;16 -->
<g id="edge36" class="edge"><title>15&#45;&gt;16</title>
<path fill="none" stroke="black" d="M497.545,-576.055C494.731,-568.176 491.316,-558.617 488.166,-549.794"/>
<polygon fill="black" stroke="black" points="491.426,-548.516 484.766,-540.275 484.833,-550.87 491.426,-548.516"/>
</g>
<!-- 31 -->
<g id="node32" class="node"><title>31</title>
<g id="a_node32"><a xlink:title="31, diversity: 1, multiplicities: 5, labels: 3">
<ellipse fill="#fee3d6" stroke="black" cx="579.596" cy="-522" rx="41.6928" ry="18"/>
<text text-anchor="middle" x="579.596" y="-518.3" font-family="Times,serif" font-size="14.00">31 (1): 3</text>
</a>
</g>
</g>
<!-- 15&#45;&gt;31 -->
<g id="edge3" class="edge"><title>15&#45;&gt;31</title>
<path fill="none" stroke="black" d="M520.463,-577.465C530.696,-568.04 543.927,-555.853 555.278,-545.398"/>
<polygon fill="black" stroke="black" points="557.792,-547.841 562.777,-538.492 553.05,-542.692 557.792,-547.841"/>
</g>
<!-- 16&#45;&gt;7 -->
<g id="edge12" class="edge"><title>16&#45;&gt;7</title>
<path fill="none" stroke="black" d="M484.648,-504.055C487.504,-496.059 490.978,-486.331 494.168,-477.4"/>
<polygon fill="black" stroke="black" points="497.533,-478.384 497.6,-467.789 490.941,-476.029 497.533,-478.384"/>
</g>
<!-- 25 -->
<g id="node26" class="node"><title>25</title>
<g id="a_node26"><a xlink:title="25, diversity: 1, multiplicities: 2, labels: 3">
<ellipse fill="#fee3d6" stroke="black" cx="680.596" cy="-522" rx="41.6928" ry="18"/>
<text text-anchor="middle" x="680.596" y="-518.3" font-family="Times,serif" font-size="14.00">25 (1): 3</text>
</a>
</g>
</g>
<!-- 18&#45;&gt;25 -->
<g id="edge31" class="edge"><title>18&#45;&gt;25</title>
<path fill="none" stroke="black" d="M660.89,-576.055C663.817,-568.176 667.367,-558.617 670.644,-549.794"/>
<polygon fill="black" stroke="black" points="673.979,-550.868 674.18,-540.275 667.417,-548.431 673.979,-550.868"/>
</g>
<!-- 24 -->
<g id="node25" class="node"><title>24</title>
<g id="a_node25"><a xlink:title="24, diversity: 2, multiplicities: 1,3, labels: 3">
<ellipse fill="#fee3d6" stroke="black" cx="680.596" cy="-306" rx="41.6928" ry="18"/>
<text text-anchor="middle" x="680.596" y="-302.3" font-family="Times,serif" font-size="14.00">24 (2): 3</text>
</a>
</g>
</g>
<!-- 19&#45;&gt;24 -->
<g id="edge23" class="edge"><title>19&#45;&gt;24</title>
<path fill="none" stroke="black" d="M680.596,-359.697C680.596,-351.983 680.596,-342.712 680.596,-334.112"/>
<polygon fill="black" stroke="black" points="684.096,-334.104 680.596,-324.104 677.096,-334.104 684.096,-334.104"/>
</g>
<!-- 28 -->
<g id="node29" class="node"><title>28</title>
<g id="a_node29"><a xlink:title="28, diversity: 1, multiplicities: 1, labels: 3">
<ellipse fill="#fff5f0" stroke="black" cx="520.596" cy="-306" rx="41.6928" ry="18"/>
<text text-anchor="middle" x="520.596" y="-302.3" font-family="Times,serif" font-size="14.00">28 (1): 3</text>
</a>
</g>
</g>
<!-- 20&#45;&gt;28 -->
<g id="edge34" class="edge"><title>20&#45;&gt;28</title>
<path fill="none" stroke="black" d="M510.81,-359.697C512.242,-351.983 513.964,-342.712 515.561,-334.112"/>
<polygon fill="black" stroke="black" points="519.035,-334.575 517.42,-324.104 512.153,-333.297 519.035,-334.575"/>
</g>
<!-- 22 -->
<g id="node23" class="node"><title>22</title>
<g id="a_node23"><a xlink:title="22, diversity: 1, multiplicities: 1, labels: 3">
<ellipse fill="#fff5f0" stroke="black" cx="576.596" cy="-90" rx="41.6928" ry="18"/>
<text text-anchor="middle" x="576.596" y="-86.3" font-family="Times,serif" font-size="14.00">22 (1): 3</text>
</a>
</g>
</g>
<!-- 22&#45;&gt;3 -->
<g id="edge21" class="edge"><title>22&#45;&gt;3</title>
<path fill="none" stroke="black" d="M576.596,-71.6966C576.596,-63.9827 576.596,-54.7125 576.596,-46.1124"/>
<polygon fill="black" stroke="black" points="580.096,-46.1043 576.596,-36.1043 573.096,-46.1044 580.096,-46.1043"/>
</g>
<!-- 23&#45;&gt;11 -->
<g id="edge16" class="edge"><title>23&#45;&gt;11</title>
<path fill="none" stroke="black" d="M142.596,-287.697C142.596,-279.983 142.596,-270.712 142.596,-262.112"/>
<polygon fill="black" stroke="black" points="146.096,-262.104 142.596,-252.104 139.096,-262.104 146.096,-262.104"/>
</g>
<!-- 33 -->
<g id="node34" class="node"><title>33</title>
<g id="a_node34"><a xlink:title="33, diversity: 1, multiplicities: 21, labels: 3">
<ellipse fill="#fca082" stroke="black" cx="680.596" cy="-234" rx="41.6928" ry="18"/>
<text text-anchor="middle" x="680.596" y="-230.3" font-family="Times,serif" font-size="14.00">33 (1): 3</text>
</a>
</g>
</g>
<!-- 24&#45;&gt;33 -->
<g id="edge10" class="edge"><title>24&#45;&gt;33</title>
<path fill="none" stroke="black" d="M680.596,-287.697C680.596,-279.983 680.596,-270.712 680.596,-262.112"/>
<polygon fill="black" stroke="black" points="684.096,-262.104 680.596,-252.104 677.096,-262.104 684.096,-262.104"/>
</g>
<!-- 25&#45;&gt;5 -->
<g id="edge2" class="edge"><title>25&#45;&gt;5</title>
<path fill="none" stroke="black" d="M680.596,-503.697C680.596,-495.983 680.596,-486.712 680.596,-478.112"/>
<polygon fill="black" stroke="black" points="684.096,-478.104 680.596,-468.104 677.096,-478.104 684.096,-478.104"/>
</g>
<!-- 26 -->
<g id="node27" class="node"><title>26</title>
<g id="a_node27"><a xlink:title="26, diversity: 1, multiplicities: 53, labels: 3">
<ellipse fill="#fca082" stroke="black" cx="680.596" cy="-162" rx="41.6928" ry="18"/>
<text text-anchor="middle" x="680.596" y="-158.3" font-family="Times,serif" font-size="14.00">26 (1): 3</text>
</a>
</g>
</g>
<!-- 37 -->
<g id="node38" class="node"><title>37</title>
<g id="a_node38"><a xlink:title="37, diversity: 1, multiplicities: 10, labels: 3">
<ellipse fill="#fcc4ad" stroke="black" cx="680.596" cy="-90" rx="41.6928" ry="18"/>
<text text-anchor="middle" x="680.596" y="-86.3" font-family="Times,serif" font-size="14.00">37 (1): 3</text>
</a>
</g>
</g>
<!-- 26&#45;&gt;37 -->
<g id="edge25" class="edge"><title>26&#45;&gt;37</title>
<path fill="none" stroke="black" d="M680.596,-143.697C680.596,-135.983 680.596,-126.712 680.596,-118.112"/>
<polygon fill="black" stroke="black" points="684.096,-118.104 680.596,-108.104 677.096,-118.104 684.096,-118.104"/>
</g>
<!-- 27&#45;&gt;2 -->
<g id="edge11" class="edge"><title>27&#45;&gt;2</title>
<path fill="none" stroke="black" d="M301.596,-287.697C301.596,-279.983 301.596,-270.712 301.596,-262.112"/>
<polygon fill="black" stroke="black" points="305.096,-262.104 301.596,-252.104 298.096,-262.104 305.096,-262.104"/>
</g>
<!-- 28&#45;&gt;14 -->
<g id="edge26" class="edge"><title>28&#45;&gt;14</title>
<path fill="none" stroke="black" d="M522.079,-287.697C522.741,-279.983 523.535,-270.712 524.272,-262.112"/>
<polygon fill="black" stroke="black" points="527.763,-262.367 525.13,-252.104 520.789,-261.769 527.763,-262.367"/>
</g>
<!-- 30 -->
<g id="node31" class="node"><title>30</title>
<g id="a_node31"><a xlink:title="30, diversity: 1, multiplicities: 1, labels: 3">
<ellipse fill="#fff5f0" stroke="black" cx="553.596" cy="-738" rx="41.6928" ry="18"/>
<text text-anchor="middle" x="553.596" y="-734.3" font-family="Times,serif" font-size="14.00">30 (1): 3</text>
</a>
</g>
</g>
<!-- 29&#45;&gt;30 -->
<g id="edge22" class="edge"><title>29&#45;&gt;30</title>
<path fill="none" stroke="black" d="M553.596,-791.697C553.596,-783.983 553.596,-774.712 553.596,-766.112"/>
<polygon fill="black" stroke="black" points="557.096,-766.104 553.596,-756.104 550.096,-766.104 557.096,-766.104"/>
</g>
<!-- 30&#45;&gt;12 -->
<g id="edge1" class="edge"><title>30&#45;&gt;12</title>
<path fill="none" stroke="black" d="M553.596,-719.697C553.596,-711.983 553.596,-702.712 553.596,-694.112"/>
<polygon fill="black" stroke="black" points="557.096,-694.104 553.596,-684.104 550.096,-694.104 557.096,-694.104"/>
</g>
<!-- 33&#45;&gt;26 -->
<g id="edge15" class="edge"><title>33&#45;&gt;26</title>
<path fill="none" stroke="black" d="M680.596,-215.697C680.596,-207.983 680.596,-198.712 680.596,-190.112"/>
<polygon fill="black" stroke="black" points="684.096,-190.104 680.596,-180.104 677.096,-190.104 684.096,-190.104"/>
</g>
<!-- 36&#45;&gt;22 -->
<g id="edge20" class="edge"><title>36&#45;&gt;22</title>
<path fill="none" stroke="black" d="M576.596,-143.697C576.596,-135.983 576.596,-126.712 576.596,-118.112"/>
<polygon fill="black" stroke="black" points="580.096,-118.104 576.596,-108.104 573.096,-118.104 580.096,-118.104"/>
</g>
</g>
</svg>
