<?xml version="1.0" encoding="UTF-8" standalone="no"?>
<!DOCTYPE svg PUBLIC "-//W3C//DTD SVG 1.1//EN"
 "http://www.w3.org/Graphics/SVG/1.1/DTD/svg11.dtd">
<!-- Generated by graphviz version 2.38.0 (20140413.2041)
 -->
<!-- Title: %3 Pages: 1 -->
<svg width="586pt" height="404pt"
 viewBox="0.00 0.00 585.64 404.00" xmlns="http://www.w3.org/2000/svg" xmlns:xlink="http://www.w3.org/1999/xlink">
<g id="graph0" class="graph" transform="scale(1 1) rotate(0) translate(4 400)">
<title>%3</title>
<polygon fill="white" stroke="none" points="-4,4 -4,-400 581.643,-400 581.643,4 -4,4"/>
<!-- 0 -->
<g id="node1" class="node"><title>0</title>
<g id="a_node1"><a xlink:title="0, diversity: 1, multiplicities: 31, labels: 1">
<ellipse fill="#fca082" stroke="black" cx="233.047" cy="-18" rx="37.0935" ry="18"/>
<text text-anchor="middle" x="233.047" y="-14.3" font-family="Times,serif" font-size="14.00">0 (1): 1</text>
</a>
</g>
</g>
<!-- 1 -->
<g id="node2" class="node"><title>1</title>
<g id="a_node2"><a xlink:title="1, diversity: 2, multiplicities: 5,72, labels: 1,0">
<ellipse fill="#fca082" stroke="black" cx="129.047" cy="-234" rx="44.393" ry="18"/>
<text text-anchor="middle" x="129.047" y="-230.3" font-family="Times,serif" font-size="14.00">1 (2): 1,0</text>
</a>
</g>
</g>
<!-- 3 -->
<g id="node4" class="node"><title>3</title>
<g id="a_node4"><a xlink:title="3, diversity: 1, multiplicities: 9, labels: 1">
<ellipse fill="#fcc4ad" stroke="black" cx="37.0467" cy="-162" rx="37.0935" ry="18"/>
<text text-anchor="middle" x="37.0467" y="-158.3" font-family="Times,serif" font-size="14.00">3 (1): 1</text>
</a>
</g>
</g>
<!-- 1&#45;&gt;3 -->
<g id="edge2" class="edge"><title>1&#45;&gt;3</title>
<path fill="none" stroke="black" d="M109.084,-217.811C96.0076,-207.862 78.7455,-194.727 64.3974,-183.81"/>
<polygon fill="black" stroke="black" points="66.4176,-180.949 56.3399,-177.68 62.1789,-186.52 66.4176,-180.949"/>
</g>
<!-- 5 -->
<g id="node6" class="node"><title>5</title>
<g id="a_node6"><a xlink:title="5, diversity: 1, multiplicities: 1, labels: 1">
<ellipse fill="#fff5f0" stroke="black" cx="129.047" cy="-162" rx="37.0935" ry="18"/>
<text text-anchor="middle" x="129.047" y="-158.3" font-family="Times,serif" font-size="14.00">5 (1): 1</text>
</a>
</g>
</g>
<!-- 1&#45;&gt;5 -->
<g id="edge10" class="edge"><title>1&#45;&gt;5</title>
<path fill="none" stroke="black" d="M129.047,-215.697C129.047,-207.983 129.047,-198.712 129.047,-190.112"/>
<polygon fill="black" stroke="black" points="132.547,-190.104 129.047,-180.104 125.547,-190.104 132.547,-190.104"/>
</g>
<!-- 2 -->
<g id="node3" class="node"><title>2</title>
<g id="a_node3"><a xlink:title="2, diversity: 1, multiplicities: 7, labels: 1">
<ellipse fill="#fcc4ad" stroke="black" cx="258.047" cy="-378" rx="37.0935" ry="18"/>
<text text-anchor="middle" x="258.047" y="-374.3" font-family="Times,serif" font-size="14.00">2 (1): 1</text>
</a>
</g>
</g>
<!-- 4 -->
<g id="node5" class="node"><title>4</title>
<g id="a_node5"><a xlink:title="4, diversity: 1, multiplicities: 1, labels: 1">
<ellipse fill="#fff5f0" stroke="black" cx="182.047" cy="-306" rx="37.0935" ry="18"/>
<text text-anchor="middle" x="182.047" y="-302.3" font-family="Times,serif" font-size="14.00">4 (1): 1</text>
</a>
</g>
</g>
<!-- 2&#45;&gt;4 -->
<g id="edge14" class="edge"><title>2&#45;&gt;4</title>
<path fill="none" stroke="black" d="M241.556,-361.811C231.198,-352.271 217.662,-339.803 206.117,-329.17"/>
<polygon fill="black" stroke="black" points="208.232,-326.36 198.505,-322.159 203.49,-331.509 208.232,-326.36"/>
</g>
<!-- 9 -->
<g id="node10" class="node"><title>9</title>
<g id="a_node10"><a xlink:title="9, diversity: 3, multiplicities: 13,22,24, labels: 1,0">
<ellipse fill="#fca082" stroke="black" cx="334.047" cy="-306" rx="44.393" ry="18"/>
<text text-anchor="middle" x="334.047" y="-302.3" font-family="Times,serif" font-size="14.00">9 (3): 1,0</text>
</a>
</g>
</g>
<!-- 2&#45;&gt;9 -->
<g id="edge3" class="edge"><title>2&#45;&gt;9</title>
<path fill="none" stroke="black" d="M274.538,-361.811C284.753,-352.402 298.061,-340.144 309.501,-329.608"/>
<polygon fill="black" stroke="black" points="312.077,-331.993 317.062,-322.644 307.335,-326.844 312.077,-331.993"/>
</g>
<!-- 4&#45;&gt;1 -->
<g id="edge13" class="edge"><title>4&#45;&gt;1</title>
<path fill="none" stroke="black" d="M169.754,-288.765C163.226,-280.143 155.066,-269.365 147.768,-259.727"/>
<polygon fill="black" stroke="black" points="150.467,-257.493 141.641,-251.633 144.887,-261.719 150.467,-257.493"/>
</g>
<!-- 13 -->
<g id="node14" class="node"><title>13</title>
<g id="a_node14"><a xlink:title="13, diversity: 1, multiplicities: 5, labels: 1">
<ellipse fill="#fee3d6" stroke="black" cx="129.047" cy="-90" rx="41.6928" ry="18"/>
<text text-anchor="middle" x="129.047" y="-86.3" font-family="Times,serif" font-size="14.00">13 (1): 1</text>
</a>
</g>
</g>
<!-- 5&#45;&gt;13 -->
<g id="edge7" class="edge"><title>5&#45;&gt;13</title>
<path fill="none" stroke="black" d="M129.047,-143.697C129.047,-135.983 129.047,-126.712 129.047,-118.112"/>
<polygon fill="black" stroke="black" points="132.547,-118.104 129.047,-108.104 125.547,-118.104 132.547,-118.104"/>
</g>
<!-- 6 -->
<g id="node7" class="node"><title>6</title>
<g id="a_node7"><a xlink:title="6, diversity: 1, multiplicities: 7, labels: 1,0">
<ellipse fill="#fcc4ad" stroke="black" cx="233.047" cy="-90" rx="44.393" ry="18"/>
<text text-anchor="middle" x="233.047" y="-86.3" font-family="Times,serif" font-size="14.00">6 (1): 1,0</text>
</a>
</g>
</g>
<!-- 6&#45;&gt;0 -->
<g id="edge8" class="edge"><title>6&#45;&gt;0</title>
<path fill="none" stroke="black" d="M233.047,-71.6966C233.047,-63.9827 233.047,-54.7125 233.047,-46.1124"/>
<polygon fill="black" stroke="black" points="236.547,-46.1043 233.047,-36.1043 229.547,-46.1044 236.547,-46.1043"/>
</g>
<!-- 7 -->
<g id="node8" class="node"><title>7</title>
<g id="a_node8"><a xlink:title="7, diversity: 1, multiplicities: 8, labels: 1">
<ellipse fill="#fcc4ad" stroke="black" cx="233.047" cy="-162" rx="37.0935" ry="18"/>
<text text-anchor="middle" x="233.047" y="-158.3" font-family="Times,serif" font-size="14.00">7 (1): 1</text>
</a>
</g>
</g>
<!-- 7&#45;&gt;6 -->
<g id="edge6" class="edge"><title>7&#45;&gt;6</title>
<path fill="none" stroke="black" d="M233.047,-143.697C233.047,-135.983 233.047,-126.712 233.047,-118.112"/>
<polygon fill="black" stroke="black" points="236.547,-118.104 233.047,-108.104 229.547,-118.104 236.547,-118.104"/>
</g>
<!-- 8 -->
<g id="node9" class="node"><title>8</title>
<g id="a_node9"><a xlink:title="8, diversity: 1, multiplicities: 40, labels: 1,3">
<ellipse fill="#fca082" stroke="black" cx="334.047" cy="-162" rx="44.393" ry="18"/>
<text text-anchor="middle" x="334.047" y="-158.3" font-family="Times,serif" font-size="14.00">8 (1): 1,3</text>
</a>
</g>
</g>
<!-- 10 -->
<g id="node11" class="node"><title>10</title>
<g id="a_node11"><a xlink:title="10, diversity: 1, multiplicities: 88, labels: 1">
<ellipse fill="#fca082" stroke="black" cx="233.047" cy="-234" rx="41.6928" ry="18"/>
<text text-anchor="middle" x="233.047" y="-230.3" font-family="Times,serif" font-size="14.00">10 (1): 1</text>
</a>
</g>
</g>
<!-- 9&#45;&gt;10 -->
<g id="edge9" class="edge"><title>9&#45;&gt;10</title>
<path fill="none" stroke="black" d="M312.627,-290.155C298.068,-280.064 278.616,-266.583 262.588,-255.474"/>
<polygon fill="black" stroke="black" points="264.302,-252.403 254.089,-249.584 260.314,-258.157 264.302,-252.403"/>
</g>
<!-- 11 -->
<g id="node12" class="node"><title>11</title>
<g id="a_node12"><a xlink:title="11, diversity: 1, multiplicities: 1, labels: 1">
<ellipse fill="#fff5f0" stroke="black" cx="334.047" cy="-234" rx="41.6928" ry="18"/>
<text text-anchor="middle" x="334.047" y="-230.3" font-family="Times,serif" font-size="14.00">11 (1): 1</text>
</a>
</g>
</g>
<!-- 9&#45;&gt;11 -->
<g id="edge11" class="edge"><title>9&#45;&gt;11</title>
<path fill="none" stroke="black" d="M334.047,-287.697C334.047,-279.983 334.047,-270.712 334.047,-262.112"/>
<polygon fill="black" stroke="black" points="337.547,-262.104 334.047,-252.104 330.547,-262.104 337.547,-262.104"/>
</g>
<!-- 12 -->
<g id="node13" class="node"><title>12</title>
<g id="a_node13"><a xlink:title="12, diversity: 2, multiplicities: 4,5, labels: 1">
<ellipse fill="#fcc4ad" stroke="black" cx="435.047" cy="-234" rx="41.6928" ry="18"/>
<text text-anchor="middle" x="435.047" y="-230.3" font-family="Times,serif" font-size="14.00">12 (2): 1</text>
</a>
</g>
</g>
<!-- 9&#45;&gt;12 -->
<g id="edge15" class="edge"><title>9&#45;&gt;12</title>
<path fill="none" stroke="black" d="M355.466,-290.155C370.026,-280.064 389.478,-266.583 405.505,-255.474"/>
<polygon fill="black" stroke="black" points="407.779,-258.157 414.004,-249.584 403.792,-252.403 407.779,-258.157"/>
</g>
<!-- 15 -->
<g id="node16" class="node"><title>15</title>
<g id="a_node16"><a xlink:title="15, diversity: 1, multiplicities: 18, labels: 1">
<ellipse fill="#fca082" stroke="black" cx="536.047" cy="-234" rx="41.6928" ry="18"/>
<text text-anchor="middle" x="536.047" y="-230.3" font-family="Times,serif" font-size="14.00">15 (1): 1</text>
</a>
</g>
</g>
<!-- 9&#45;&gt;15 -->
<g id="edge4" class="edge"><title>9&#45;&gt;15</title>
<path fill="none" stroke="black" d="M366.502,-293.753C401.412,-281.656 457.009,-262.389 494.949,-249.242"/>
<polygon fill="black" stroke="black" points="496.367,-252.455 504.67,-245.873 494.075,-245.841 496.367,-252.455"/>
</g>
<!-- 10&#45;&gt;7 -->
<g id="edge5" class="edge"><title>10&#45;&gt;7</title>
<path fill="none" stroke="black" d="M233.047,-215.697C233.047,-207.983 233.047,-198.712 233.047,-190.112"/>
<polygon fill="black" stroke="black" points="236.547,-190.104 233.047,-180.104 229.547,-190.104 236.547,-190.104"/>
</g>
<!-- 11&#45;&gt;8 -->
<g id="edge1" class="edge"><title>11&#45;&gt;8</title>
<path fill="none" stroke="black" d="M334.047,-215.697C334.047,-207.983 334.047,-198.712 334.047,-190.112"/>
<polygon fill="black" stroke="black" points="337.547,-190.104 334.047,-180.104 330.547,-190.104 337.547,-190.104"/>
</g>
<!-- 14 -->
<g id="node15" class="node"><title>14</title>
<g id="a_node15"><a xlink:title="14, diversity: 1, multiplicities: 64, labels: 1,0">
<ellipse fill="#fca082" stroke="black" cx="129.047" cy="-18" rx="48.1917" ry="18"/>
<text text-anchor="middle" x="129.047" y="-14.3" font-family="Times,serif" font-size="14.00">14 (1): 1,0</text>
</a>
</g>
</g>
<!-- 13&#45;&gt;14 -->
<g id="edge12" class="edge"><title>13&#45;&gt;14</title>
<path fill="none" stroke="black" d="M129.047,-71.6966C129.047,-63.9827 129.047,-54.7125 129.047,-46.1124"/>
<polygon fill="black" stroke="black" points="132.547,-46.1043 129.047,-36.1043 125.547,-46.1044 132.547,-46.1043"/>
</g>
</g>
</svg>
