<?xml version="1.0" encoding="UTF-8" standalone="no"?>
<!DOCTYPE svg PUBLIC "-//W3C//DTD SVG 1.1//EN"
 "http://www.w3.org/Graphics/SVG/1.1/DTD/svg11.dtd">
<!-- Generated by graphviz version 2.38.0 (20140413.2041)
 -->
<!-- Title: %3 Pages: 1 -->
<svg width="704pt" height="908pt"
 viewBox="0.00 0.00 704.19 908.00" xmlns="http://www.w3.org/2000/svg" xmlns:xlink="http://www.w3.org/1999/xlink">
<g id="graph0" class="graph" transform="scale(1 1) rotate(0) translate(4 904)">
<title>%3</title>
<polygon fill="white" stroke="none" points="-4,4 -4,-904 700.193,-904 700.193,4 -4,4"/>
<!-- 0 -->
<g id="node1" class="node"><title>0</title>
<g id="a_node1"><a xlink:title="0, diversity: 1, multiplicities: 1, labels: 1">
<ellipse fill="#fff5f0" stroke="black" cx="601.596" cy="-450" rx="37.0935" ry="18"/>
<text text-anchor="middle" x="601.596" y="-446.3" font-family="Times,serif" font-size="14.00">0 (1): 1</text>
</a>
</g>
</g>
<!-- 21 -->
<g id="node22" class="node"><title>21</title>
<g id="a_node22"><a xlink:title="21, diversity: 1, multiplicities: 1, labels: 1">
<ellipse fill="#fff5f0" stroke="black" cx="654.596" cy="-378" rx="41.6928" ry="18"/>
<text text-anchor="middle" x="654.596" y="-374.3" font-family="Times,serif" font-size="14.00">21 (1): 1</text>
</a>
</g>
</g>
<!-- 0&#45;&gt;21 -->
<g id="edge14" class="edge"><title>0&#45;&gt;21</title>
<path fill="none" stroke="black" d="M613.889,-432.765C620.417,-424.143 628.577,-413.365 635.875,-403.727"/>
<polygon fill="black" stroke="black" points="638.756,-405.719 642.002,-395.633 633.176,-401.493 638.756,-405.719"/>
</g>
<!-- 1 -->
<g id="node2" class="node"><title>1</title>
<g id="a_node2"><a xlink:title="1, diversity: 1, multiplicities: 2, labels: 1">
<ellipse fill="#fee3d6" stroke="black" cx="335.596" cy="-810" rx="37.0935" ry="18"/>
<text text-anchor="middle" x="335.596" y="-806.3" font-family="Times,serif" font-size="14.00">1 (1): 1</text>
</a>
</g>
</g>
<!-- 8 -->
<g id="node9" class="node"><title>8</title>
<g id="a_node9"><a xlink:title="8, diversity: 1, multiplicities: 2, labels: 1">
<ellipse fill="#fee3d6" stroke="black" cx="319.596" cy="-738" rx="37.0935" ry="18"/>
<text text-anchor="middle" x="319.596" y="-734.3" font-family="Times,serif" font-size="14.00">8 (1): 1</text>
</a>
</g>
</g>
<!-- 1&#45;&gt;8 -->
<g id="edge35" class="edge"><title>1&#45;&gt;8</title>
<path fill="none" stroke="black" d="M331.723,-792.055C329.942,-784.261 327.784,-774.822 325.786,-766.079"/>
<polygon fill="black" stroke="black" points="329.185,-765.244 323.545,-756.275 322.361,-766.804 329.185,-765.244"/>
</g>
<!-- 2 -->
<g id="node3" class="node"><title>2</title>
<g id="a_node3"><a xlink:title="2, diversity: 2, multiplicities: 1,2, labels: 1">
<ellipse fill="#fee3d6" stroke="black" cx="52.5963" cy="-522" rx="37.0935" ry="18"/>
<text text-anchor="middle" x="52.5963" y="-518.3" font-family="Times,serif" font-size="14.00">2 (2): 1</text>
</a>
</g>
</g>
<!-- 30 -->
<g id="node31" class="node"><title>30</title>
<g id="a_node31"><a xlink:title="30, diversity: 2, multiplicities: 5,36, labels: 1,3">
<ellipse fill="#fca082" stroke="black" cx="52.5963" cy="-450" rx="48.1917" ry="18"/>
<text text-anchor="middle" x="52.5963" y="-446.3" font-family="Times,serif" font-size="14.00">30 (2): 1,3</text>
</a>
</g>
</g>
<!-- 2&#45;&gt;30 -->
<g id="edge17" class="edge"><title>2&#45;&gt;30</title>
<path fill="none" stroke="black" d="M52.5963,-503.697C52.5963,-495.983 52.5963,-486.712 52.5963,-478.112"/>
<polygon fill="black" stroke="black" points="56.0964,-478.104 52.5963,-468.104 49.0964,-478.104 56.0964,-478.104"/>
</g>
<!-- 3 -->
<g id="node4" class="node"><title>3</title>
<g id="a_node4"><a xlink:title="3, diversity: 1, multiplicities: 1, labels: 1">
<ellipse fill="#fff5f0" stroke="black" cx="387.596" cy="-882" rx="37.0935" ry="18"/>
<text text-anchor="middle" x="387.596" y="-878.3" font-family="Times,serif" font-size="14.00">3 (1): 1</text>
</a>
</g>
</g>
<!-- 3&#45;&gt;1 -->
<g id="edge33" class="edge"><title>3&#45;&gt;1</title>
<path fill="none" stroke="black" d="M375.536,-864.765C369.038,-856.018 360.892,-845.052 353.654,-835.308"/>
<polygon fill="black" stroke="black" points="356.364,-833.088 347.591,-827.147 350.745,-837.262 356.364,-833.088"/>
</g>
<!-- 10 -->
<g id="node11" class="node"><title>10</title>
<g id="a_node11"><a xlink:title="10, diversity: 1, multiplicities: 1, labels: 1">
<ellipse fill="#fff5f0" stroke="black" cx="440.596" cy="-810" rx="41.6928" ry="18"/>
<text text-anchor="middle" x="440.596" y="-806.3" font-family="Times,serif" font-size="14.00">10 (1): 1</text>
</a>
</g>
</g>
<!-- 3&#45;&gt;10 -->
<g id="edge16" class="edge"><title>3&#45;&gt;10</title>
<path fill="none" stroke="black" d="M399.889,-864.765C406.417,-856.143 414.577,-845.365 421.875,-835.727"/>
<polygon fill="black" stroke="black" points="424.756,-837.719 428.002,-827.633 419.176,-833.493 424.756,-837.719"/>
</g>
<!-- 4 -->
<g id="node5" class="node"><title>4</title>
<g id="a_node5"><a xlink:title="4, diversity: 1, multiplicities: 3, labels: 1">
<ellipse fill="#fee3d6" stroke="black" cx="315.596" cy="-666" rx="37.0935" ry="18"/>
<text text-anchor="middle" x="315.596" y="-662.3" font-family="Times,serif" font-size="14.00">4 (1): 1</text>
</a>
</g>
</g>
<!-- 5 -->
<g id="node6" class="node"><title>5</title>
<g id="a_node6"><a xlink:title="5, diversity: 7, multiplicities: 2,6,8,9,10,26,309, labels: 1,3">
<ellipse fill="#f6553c" stroke="black" cx="250.596" cy="-594" rx="44.393" ry="18"/>
<text text-anchor="middle" x="250.596" y="-590.3" font-family="Times,serif" font-size="14.00">5 (7): 1,3</text>
</a>
</g>
</g>
<!-- 4&#45;&gt;5 -->
<g id="edge24" class="edge"><title>4&#45;&gt;5</title>
<path fill="none" stroke="black" d="M300.847,-649.116C292.489,-640.116 281.873,-628.682 272.553,-618.646"/>
<polygon fill="black" stroke="black" points="275.108,-616.253 265.739,-611.307 269.978,-621.017 275.108,-616.253"/>
</g>
<!-- 5&#45;&gt;2 -->
<g id="edge39" class="edge"><title>5&#45;&gt;2</title>
<path fill="none" stroke="black" d="M217.919,-581.801C187.096,-571.192 139.628,-554.734 98.5963,-540 96.0547,-539.087 93.4367,-538.14 90.8003,-537.18"/>
<polygon fill="black" stroke="black" points="91.8699,-533.845 81.2761,-533.692 89.4625,-540.418 91.8699,-533.845"/>
</g>
<!-- 11 -->
<g id="node12" class="node"><title>11</title>
<g id="a_node12"><a xlink:title="11, diversity: 1, multiplicities: 1, labels: 1">
<ellipse fill="#fff5f0" stroke="black" cx="149.596" cy="-522" rx="41.6928" ry="18"/>
<text text-anchor="middle" x="149.596" y="-518.3" font-family="Times,serif" font-size="14.00">11 (1): 1</text>
</a>
</g>
</g>
<!-- 5&#45;&gt;11 -->
<g id="edge23" class="edge"><title>5&#45;&gt;11</title>
<path fill="none" stroke="black" d="M225.138,-579.17C209.538,-569.286 189.812,-555.795 174.351,-544.511"/>
<polygon fill="black" stroke="black" points="176.371,-541.652 166.254,-538.507 172.201,-547.275 176.371,-541.652"/>
</g>
<!-- 22 -->
<g id="node23" class="node"><title>22</title>
<g id="a_node23"><a xlink:title="22, diversity: 1, multiplicities: 3, labels: 1">
<ellipse fill="#fee3d6" stroke="black" cx="250.596" cy="-522" rx="41.6928" ry="18"/>
<text text-anchor="middle" x="250.596" y="-518.3" font-family="Times,serif" font-size="14.00">22 (1): 1</text>
</a>
</g>
</g>
<!-- 5&#45;&gt;22 -->
<g id="edge20" class="edge"><title>5&#45;&gt;22</title>
<path fill="none" stroke="black" d="M250.596,-575.697C250.596,-567.983 250.596,-558.712 250.596,-550.112"/>
<polygon fill="black" stroke="black" points="254.096,-550.104 250.596,-540.104 247.096,-550.104 254.096,-550.104"/>
</g>
<!-- 27 -->
<g id="node28" class="node"><title>27</title>
<g id="a_node28"><a xlink:title="27, diversity: 1, multiplicities: 11, labels: 1">
<ellipse fill="#fca082" stroke="black" cx="351.596" cy="-522" rx="41.6928" ry="18"/>
<text text-anchor="middle" x="351.596" y="-518.3" font-family="Times,serif" font-size="14.00">27 (1): 1</text>
</a>
</g>
</g>
<!-- 5&#45;&gt;27 -->
<g id="edge37" class="edge"><title>5&#45;&gt;27</title>
<path fill="none" stroke="black" d="M272.016,-578.155C286.575,-568.064 306.027,-554.583 322.055,-543.474"/>
<polygon fill="black" stroke="black" points="324.329,-546.157 330.554,-537.584 320.341,-540.403 324.329,-546.157"/>
</g>
<!-- 33 -->
<g id="node34" class="node"><title>33</title>
<g id="a_node34"><a xlink:title="33, diversity: 1, multiplicities: 1, labels: 1">
<ellipse fill="#fff5f0" stroke="black" cx="452.596" cy="-522" rx="41.6928" ry="18"/>
<text text-anchor="middle" x="452.596" y="-518.3" font-family="Times,serif" font-size="14.00">33 (1): 1</text>
</a>
</g>
</g>
<!-- 5&#45;&gt;33 -->
<g id="edge25" class="edge"><title>5&#45;&gt;33</title>
<path fill="none" stroke="black" d="M283.051,-581.753C317.961,-569.656 373.559,-550.389 411.498,-537.242"/>
<polygon fill="black" stroke="black" points="412.916,-540.455 421.219,-533.873 410.624,-533.841 412.916,-540.455"/>
</g>
<!-- 6 -->
<g id="node7" class="node"><title>6</title>
<g id="a_node7"><a xlink:title="6, diversity: 1, multiplicities: 1, labels: 1">
<ellipse fill="#fff5f0" stroke="black" cx="442.596" cy="-738" rx="37.0935" ry="18"/>
<text text-anchor="middle" x="442.596" y="-734.3" font-family="Times,serif" font-size="14.00">6 (1): 1</text>
</a>
</g>
</g>
<!-- 7 -->
<g id="node8" class="node"><title>7</title>
<g id="a_node8"><a xlink:title="7, diversity: 1, multiplicities: 1, labels: 1">
<ellipse fill="#fff5f0" stroke="black" cx="474.596" cy="-666" rx="37.0935" ry="18"/>
<text text-anchor="middle" x="474.596" y="-662.3" font-family="Times,serif" font-size="14.00">7 (1): 1</text>
</a>
</g>
</g>
<!-- 6&#45;&gt;7 -->
<g id="edge26" class="edge"><title>6&#45;&gt;7</title>
<path fill="none" stroke="black" d="M450.343,-720.055C454.037,-711.973 458.541,-702.121 462.66,-693.112"/>
<polygon fill="black" stroke="black" points="465.947,-694.339 466.921,-683.789 459.581,-691.429 465.947,-694.339"/>
</g>
<!-- 12 -->
<g id="node13" class="node"><title>12</title>
<g id="a_node13"><a xlink:title="12, diversity: 1, multiplicities: 1, labels: 1">
<ellipse fill="#fff5f0" stroke="black" cx="477.596" cy="-594" rx="41.6928" ry="18"/>
<text text-anchor="middle" x="477.596" y="-590.3" font-family="Times,serif" font-size="14.00">12 (1): 1</text>
</a>
</g>
</g>
<!-- 7&#45;&gt;12 -->
<g id="edge3" class="edge"><title>7&#45;&gt;12</title>
<path fill="none" stroke="black" d="M475.338,-647.697C475.668,-639.983 476.066,-630.712 476.434,-622.112"/>
<polygon fill="black" stroke="black" points="479.932,-622.245 476.863,-612.104 472.938,-621.945 479.932,-622.245"/>
</g>
<!-- 8&#45;&gt;4 -->
<g id="edge40" class="edge"><title>8&#45;&gt;4</title>
<path fill="none" stroke="black" d="M318.608,-719.697C318.167,-711.983 317.637,-702.712 317.146,-694.112"/>
<polygon fill="black" stroke="black" points="320.639,-693.888 316.574,-684.104 313.65,-694.288 320.639,-693.888"/>
</g>
<!-- 9 -->
<g id="node10" class="node"><title>9</title>
<g id="a_node10"><a xlink:title="9, diversity: 1, multiplicities: 1, labels: 1">
<ellipse fill="#fff5f0" stroke="black" cx="575.596" cy="-522" rx="37.0935" ry="18"/>
<text text-anchor="middle" x="575.596" y="-518.3" font-family="Times,serif" font-size="14.00">9 (1): 1</text>
</a>
</g>
</g>
<!-- 9&#45;&gt;0 -->
<g id="edge13" class="edge"><title>9&#45;&gt;0</title>
<path fill="none" stroke="black" d="M581.89,-504.055C584.86,-496.059 588.473,-486.331 591.791,-477.4"/>
<polygon fill="black" stroke="black" points="595.159,-478.382 595.36,-467.789 588.597,-475.945 595.159,-478.382"/>
</g>
<!-- 10&#45;&gt;6 -->
<g id="edge4" class="edge"><title>10&#45;&gt;6</title>
<path fill="none" stroke="black" d="M441.091,-791.697C441.311,-783.983 441.576,-774.712 441.822,-766.112"/>
<polygon fill="black" stroke="black" points="445.32,-766.2 442.108,-756.104 438.323,-766 445.32,-766.2"/>
</g>
<!-- 11&#45;&gt;5 -->
<g id="edge15" class="edge"><title>11&#45;&gt;5</title>
<path fill="none" stroke="black" d="M174.479,-536.466C189.978,-546.261 209.707,-559.736 225.273,-571.074"/>
<polygon fill="black" stroke="black" points="223.318,-573.981 233.439,-577.116 227.482,-568.354 223.318,-573.981"/>
</g>
<!-- 12&#45;&gt;9 -->
<g id="edge9" class="edge"><title>12&#45;&gt;9</title>
<path fill="none" stroke="black" d="M498.38,-578.155C512.602,-567.996 531.634,-554.401 547.245,-543.251"/>
<polygon fill="black" stroke="black" points="549.41,-546.006 555.513,-537.345 545.342,-540.309 549.41,-546.006"/>
</g>
<!-- 13 -->
<g id="node14" class="node"><title>13</title>
<g id="a_node14"><a xlink:title="13, diversity: 1, multiplicities: 5, labels: 1">
<ellipse fill="#fee3d6" stroke="black" cx="654.596" cy="-306" rx="41.6928" ry="18"/>
<text text-anchor="middle" x="654.596" y="-302.3" font-family="Times,serif" font-size="14.00">13 (1): 1</text>
</a>
</g>
</g>
<!-- 14 -->
<g id="node15" class="node"><title>14</title>
<g id="a_node15"><a xlink:title="14, diversity: 2, multiplicities: 3,14, labels: 1">
<ellipse fill="#fca082" stroke="black" cx="293.596" cy="-162" rx="41.6928" ry="18"/>
<text text-anchor="middle" x="293.596" y="-158.3" font-family="Times,serif" font-size="14.00">14 (2): 1</text>
</a>
</g>
</g>
<!-- 19 -->
<g id="node20" class="node"><title>19</title>
<g id="a_node20"><a xlink:title="19, diversity: 1, multiplicities: 44, labels: 1,0">
<ellipse fill="#fca082" stroke="black" cx="293.596" cy="-90" rx="48.1917" ry="18"/>
<text text-anchor="middle" x="293.596" y="-86.3" font-family="Times,serif" font-size="14.00">19 (1): 1,0</text>
</a>
</g>
</g>
<!-- 14&#45;&gt;19 -->
<g id="edge18" class="edge"><title>14&#45;&gt;19</title>
<path fill="none" stroke="black" d="M293.596,-143.697C293.596,-135.983 293.596,-126.712 293.596,-118.112"/>
<polygon fill="black" stroke="black" points="297.096,-118.104 293.596,-108.104 290.096,-118.104 297.096,-118.104"/>
</g>
<!-- 15 -->
<g id="node16" class="node"><title>15</title>
<g id="a_node16"><a xlink:title="15, diversity: 1, multiplicities: 13, labels: 1">
<ellipse fill="#fca082" stroke="black" cx="41.5963" cy="-306" rx="41.6928" ry="18"/>
<text text-anchor="middle" x="41.5963" y="-302.3" font-family="Times,serif" font-size="14.00">15 (1): 1</text>
</a>
</g>
</g>
<!-- 16 -->
<g id="node17" class="node"><title>16</title>
<g id="a_node17"><a xlink:title="16, diversity: 1, multiplicities: 2, labels: 1">
<ellipse fill="#fee3d6" stroke="black" cx="142.596" cy="-306" rx="41.6928" ry="18"/>
<text text-anchor="middle" x="142.596" y="-302.3" font-family="Times,serif" font-size="14.00">16 (1): 1</text>
</a>
</g>
</g>
<!-- 18 -->
<g id="node19" class="node"><title>18</title>
<g id="a_node19"><a xlink:title="18, diversity: 1, multiplicities: 32, labels: 1">
<ellipse fill="#fca082" stroke="black" cx="142.596" cy="-234" rx="41.6928" ry="18"/>
<text text-anchor="middle" x="142.596" y="-230.3" font-family="Times,serif" font-size="14.00">18 (1): 1</text>
</a>
</g>
</g>
<!-- 16&#45;&gt;18 -->
<g id="edge22" class="edge"><title>16&#45;&gt;18</title>
<path fill="none" stroke="black" d="M142.596,-287.697C142.596,-279.983 142.596,-270.712 142.596,-262.112"/>
<polygon fill="black" stroke="black" points="146.096,-262.104 142.596,-252.104 139.096,-262.104 146.096,-262.104"/>
</g>
<!-- 17 -->
<g id="node18" class="node"><title>17</title>
<g id="a_node18"><a xlink:title="17, diversity: 1, multiplicities: 15, labels: 1">
<ellipse fill="#fca082" stroke="black" cx="344.596" cy="-234" rx="41.6928" ry="18"/>
<text text-anchor="middle" x="344.596" y="-230.3" font-family="Times,serif" font-size="14.00">17 (1): 1</text>
</a>
</g>
</g>
<!-- 17&#45;&gt;14 -->
<g id="edge21" class="edge"><title>17&#45;&gt;14</title>
<path fill="none" stroke="black" d="M332.51,-216.411C326.286,-207.868 318.571,-197.278 311.656,-187.787"/>
<polygon fill="black" stroke="black" points="314.313,-185.491 305.596,-179.47 308.656,-189.613 314.313,-185.491"/>
</g>
<!-- 20 -->
<g id="node21" class="node"><title>20</title>
<g id="a_node21"><a xlink:title="20, diversity: 1, multiplicities: 10, labels: 1">
<ellipse fill="#fcc4ad" stroke="black" cx="394.596" cy="-162" rx="41.6928" ry="18"/>
<text text-anchor="middle" x="394.596" y="-158.3" font-family="Times,serif" font-size="14.00">20 (1): 1</text>
</a>
</g>
</g>
<!-- 17&#45;&gt;20 -->
<g id="edge6" class="edge"><title>17&#45;&gt;20</title>
<path fill="none" stroke="black" d="M356.446,-216.411C362.548,-207.868 370.112,-197.278 376.891,-187.787"/>
<polygon fill="black" stroke="black" points="379.868,-189.642 382.832,-179.47 374.172,-185.573 379.868,-189.642"/>
</g>
<!-- 23 -->
<g id="node24" class="node"><title>23</title>
<g id="a_node24"><a xlink:title="23, diversity: 1, multiplicities: 6, labels: 1">
<ellipse fill="#fcc4ad" stroke="black" cx="293.596" cy="-18" rx="41.6928" ry="18"/>
<text text-anchor="middle" x="293.596" y="-14.3" font-family="Times,serif" font-size="14.00">23 (1): 1</text>
</a>
</g>
</g>
<!-- 19&#45;&gt;23 -->
<g id="edge38" class="edge"><title>19&#45;&gt;23</title>
<path fill="none" stroke="black" d="M293.596,-71.6966C293.596,-63.9827 293.596,-54.7125 293.596,-46.1124"/>
<polygon fill="black" stroke="black" points="297.096,-46.1043 293.596,-36.1043 290.096,-46.1044 297.096,-46.1043"/>
</g>
<!-- 21&#45;&gt;13 -->
<g id="edge10" class="edge"><title>21&#45;&gt;13</title>
<path fill="none" stroke="black" d="M654.596,-359.697C654.596,-351.983 654.596,-342.712 654.596,-334.112"/>
<polygon fill="black" stroke="black" points="658.096,-334.104 654.596,-324.104 651.096,-334.104 658.096,-334.104"/>
</g>
<!-- 35 -->
<g id="node36" class="node"><title>35</title>
<g id="a_node36"><a xlink:title="35, diversity: 1, multiplicities: 39, labels: 1">
<ellipse fill="#fca082" stroke="black" cx="250.596" cy="-450" rx="41.6928" ry="18"/>
<text text-anchor="middle" x="250.596" y="-446.3" font-family="Times,serif" font-size="14.00">35 (1): 1</text>
</a>
</g>
</g>
<!-- 22&#45;&gt;35 -->
<g id="edge29" class="edge"><title>22&#45;&gt;35</title>
<path fill="none" stroke="black" d="M250.596,-503.697C250.596,-495.983 250.596,-486.712 250.596,-478.112"/>
<polygon fill="black" stroke="black" points="254.096,-478.104 250.596,-468.104 247.096,-478.104 254.096,-478.104"/>
</g>
<!-- 24 -->
<g id="node25" class="node"><title>24</title>
<g id="a_node25"><a xlink:title="24, diversity: 1, multiplicities: 1, labels: 1">
<ellipse fill="#fff5f0" stroke="black" cx="243.596" cy="-306" rx="41.6928" ry="18"/>
<text text-anchor="middle" x="243.596" y="-302.3" font-family="Times,serif" font-size="14.00">24 (1): 1</text>
</a>
</g>
</g>
<!-- 37 -->
<g id="node38" class="node"><title>37</title>
<g id="a_node38"><a xlink:title="37, diversity: 1, multiplicities: 40, labels: 1">
<ellipse fill="#fca082" stroke="black" cx="243.596" cy="-234" rx="41.6928" ry="18"/>
<text text-anchor="middle" x="243.596" y="-230.3" font-family="Times,serif" font-size="14.00">37 (1): 1</text>
</a>
</g>
</g>
<!-- 24&#45;&gt;37 -->
<g id="edge5" class="edge"><title>24&#45;&gt;37</title>
<path fill="none" stroke="black" d="M243.596,-287.697C243.596,-279.983 243.596,-270.712 243.596,-262.112"/>
<polygon fill="black" stroke="black" points="247.096,-262.104 243.596,-252.104 240.096,-262.104 247.096,-262.104"/>
</g>
<!-- 25 -->
<g id="node26" class="node"><title>25</title>
<g id="a_node26"><a xlink:title="25, diversity: 1, multiplicities: 7, labels: 1">
<ellipse fill="#fcc4ad" stroke="black" cx="344.596" cy="-306" rx="41.6928" ry="18"/>
<text text-anchor="middle" x="344.596" y="-302.3" font-family="Times,serif" font-size="14.00">25 (1): 1</text>
</a>
</g>
</g>
<!-- 25&#45;&gt;17 -->
<g id="edge31" class="edge"><title>25&#45;&gt;17</title>
<path fill="none" stroke="black" d="M344.596,-287.697C344.596,-279.983 344.596,-270.712 344.596,-262.112"/>
<polygon fill="black" stroke="black" points="348.096,-262.104 344.596,-252.104 341.096,-262.104 348.096,-262.104"/>
</g>
<!-- 28 -->
<g id="node29" class="node"><title>28</title>
<g id="a_node29"><a xlink:title="28, diversity: 1, multiplicities: 8, labels: 1">
<ellipse fill="#fcc4ad" stroke="black" cx="445.596" cy="-234" rx="41.6928" ry="18"/>
<text text-anchor="middle" x="445.596" y="-230.3" font-family="Times,serif" font-size="14.00">28 (1): 1</text>
</a>
</g>
</g>
<!-- 25&#45;&gt;28 -->
<g id="edge28" class="edge"><title>25&#45;&gt;28</title>
<path fill="none" stroke="black" d="M366.016,-290.155C380.575,-280.064 400.027,-266.583 416.055,-255.474"/>
<polygon fill="black" stroke="black" points="418.329,-258.157 424.554,-249.584 414.341,-252.403 418.329,-258.157"/>
</g>
<!-- 26 -->
<g id="node27" class="node"><title>26</title>
<g id="a_node27"><a xlink:title="26, diversity: 2, multiplicities: 1,4, labels: 1">
<ellipse fill="#fee3d6" stroke="black" cx="236.596" cy="-378" rx="41.6928" ry="18"/>
<text text-anchor="middle" x="236.596" y="-374.3" font-family="Times,serif" font-size="14.00">26 (2): 1</text>
</a>
</g>
</g>
<!-- 26&#45;&gt;15 -->
<g id="edge12" class="edge"><title>26&#45;&gt;15</title>
<path fill="none" stroke="black" d="M205.698,-365.908C172.279,-353.912 118.862,-334.736 82.1019,-321.54"/>
<polygon fill="black" stroke="black" points="83.2668,-318.24 72.6723,-318.155 80.9017,-324.828 83.2668,-318.24"/>
</g>
<!-- 26&#45;&gt;16 -->
<g id="edge7" class="edge"><title>26&#45;&gt;16</title>
<path fill="none" stroke="black" d="M216.661,-362.155C203.326,-352.225 185.582,-339.011 170.805,-328.006"/>
<polygon fill="black" stroke="black" points="172.613,-324.989 162.503,-321.824 168.433,-330.604 172.613,-324.989"/>
</g>
<!-- 26&#45;&gt;24 -->
<g id="edge1" class="edge"><title>26&#45;&gt;24</title>
<path fill="none" stroke="black" d="M238.327,-359.697C239.098,-351.983 240.025,-342.712 240.885,-334.112"/>
<polygon fill="black" stroke="black" points="244.373,-334.403 241.886,-324.104 237.408,-333.706 244.373,-334.403"/>
</g>
<!-- 26&#45;&gt;25 -->
<g id="edge11" class="edge"><title>26&#45;&gt;25</title>
<path fill="none" stroke="black" d="M258.712,-362.666C274.583,-352.379 296.178,-338.382 313.743,-326.997"/>
<polygon fill="black" stroke="black" points="316.022,-329.691 322.51,-321.315 312.215,-323.817 316.022,-329.691"/>
</g>
<!-- 36 -->
<g id="node37" class="node"><title>36</title>
<g id="a_node37"><a xlink:title="36, diversity: 1, multiplicities: 6, labels: 1">
<ellipse fill="#fcc4ad" stroke="black" cx="351.596" cy="-450" rx="41.6928" ry="18"/>
<text text-anchor="middle" x="351.596" y="-446.3" font-family="Times,serif" font-size="14.00">36 (1): 1</text>
</a>
</g>
</g>
<!-- 27&#45;&gt;36 -->
<g id="edge19" class="edge"><title>27&#45;&gt;36</title>
<path fill="none" stroke="black" d="M351.596,-503.697C351.596,-495.983 351.596,-486.712 351.596,-478.112"/>
<polygon fill="black" stroke="black" points="355.096,-478.104 351.596,-468.104 348.096,-478.104 355.096,-478.104"/>
</g>
<!-- 29 -->
<g id="node30" class="node"><title>29</title>
<g id="a_node30"><a xlink:title="29, diversity: 2, multiplicities: 19,60, labels: 1,2">
<ellipse fill="#fca082" stroke="black" cx="344.596" cy="-378" rx="48.1917" ry="18"/>
<text text-anchor="middle" x="344.596" y="-374.3" font-family="Times,serif" font-size="14.00">29 (2): 1,2</text>
</a>
</g>
</g>
<!-- 31 -->
<g id="node32" class="node"><title>31</title>
<g id="a_node32"><a xlink:title="31, diversity: 1, multiplicities: 5, labels: 1">
<ellipse fill="#fee3d6" stroke="black" cx="452.596" cy="-306" rx="41.6928" ry="18"/>
<text text-anchor="middle" x="452.596" y="-302.3" font-family="Times,serif" font-size="14.00">31 (1): 1</text>
</a>
</g>
</g>
<!-- 32 -->
<g id="node33" class="node"><title>32</title>
<g id="a_node33"><a xlink:title="32, diversity: 1, multiplicities: 39, labels: 1">
<ellipse fill="#fca082" stroke="black" cx="452.596" cy="-450" rx="41.6928" ry="18"/>
<text text-anchor="middle" x="452.596" y="-446.3" font-family="Times,serif" font-size="14.00">32 (1): 1</text>
</a>
</g>
</g>
<!-- 32&#45;&gt;26 -->
<g id="edge2" class="edge"><title>32&#45;&gt;26</title>
<path fill="none" stroke="black" d="M421.162,-438.182C415.015,-436.103 408.61,-433.963 402.596,-432 351.684,-415.379 338.558,-412.469 287.596,-396 284.488,-394.996 281.276,-393.948 278.048,-392.888"/>
<polygon fill="black" stroke="black" points="278.99,-389.513 268.397,-389.7 276.795,-396.16 278.99,-389.513"/>
</g>
<!-- 32&#45;&gt;29 -->
<g id="edge27" class="edge"><title>32&#45;&gt;29</title>
<path fill="none" stroke="black" d="M430.48,-434.666C414.925,-424.583 393.87,-410.937 376.501,-399.679"/>
<polygon fill="black" stroke="black" points="378.098,-396.543 367.802,-394.041 374.29,-402.417 378.098,-396.543"/>
</g>
<!-- 34 -->
<g id="node35" class="node"><title>34</title>
<g id="a_node35"><a xlink:title="34, diversity: 1, multiplicities: 1, labels: 1">
<ellipse fill="#fff5f0" stroke="black" cx="452.596" cy="-378" rx="41.6928" ry="18"/>
<text text-anchor="middle" x="452.596" y="-374.3" font-family="Times,serif" font-size="14.00">34 (1): 1</text>
</a>
</g>
</g>
<!-- 32&#45;&gt;34 -->
<g id="edge34" class="edge"><title>32&#45;&gt;34</title>
<path fill="none" stroke="black" d="M452.596,-431.697C452.596,-423.983 452.596,-414.712 452.596,-406.112"/>
<polygon fill="black" stroke="black" points="456.096,-406.104 452.596,-396.104 449.096,-406.104 456.096,-406.104"/>
</g>
<!-- 38 -->
<g id="node39" class="node"><title>38</title>
<g id="a_node39"><a xlink:title="38, diversity: 1, multiplicities: 1, labels: 1">
<ellipse fill="#fff5f0" stroke="black" cx="553.596" cy="-378" rx="41.6928" ry="18"/>
<text text-anchor="middle" x="553.596" y="-374.3" font-family="Times,serif" font-size="14.00">38 (1): 1</text>
</a>
</g>
</g>
<!-- 32&#45;&gt;38 -->
<g id="edge36" class="edge"><title>32&#45;&gt;38</title>
<path fill="none" stroke="black" d="M474.016,-434.155C488.575,-424.064 508.027,-410.583 524.055,-399.474"/>
<polygon fill="black" stroke="black" points="526.329,-402.157 532.554,-393.584 522.341,-396.403 526.329,-402.157"/>
</g>
<!-- 33&#45;&gt;32 -->
<g id="edge8" class="edge"><title>33&#45;&gt;32</title>
<path fill="none" stroke="black" d="M452.596,-503.697C452.596,-495.983 452.596,-486.712 452.596,-478.112"/>
<polygon fill="black" stroke="black" points="456.096,-478.104 452.596,-468.104 449.096,-478.104 456.096,-478.104"/>
</g>
<!-- 34&#45;&gt;31 -->
<g id="edge32" class="edge"><title>34&#45;&gt;31</title>
<path fill="none" stroke="black" d="M452.596,-359.697C452.596,-351.983 452.596,-342.712 452.596,-334.112"/>
<polygon fill="black" stroke="black" points="456.096,-334.104 452.596,-324.104 449.096,-334.104 456.096,-334.104"/>
</g>
<!-- 39 -->
<g id="node40" class="node"><title>39</title>
<g id="a_node40"><a xlink:title="39, diversity: 1, multiplicities: 8, labels: 1">
<ellipse fill="#fcc4ad" stroke="black" cx="553.596" cy="-306" rx="41.6928" ry="18"/>
<text text-anchor="middle" x="553.596" y="-302.3" font-family="Times,serif" font-size="14.00">39 (1): 1</text>
</a>
</g>
</g>
<!-- 38&#45;&gt;39 -->
<g id="edge30" class="edge"><title>38&#45;&gt;39</title>
<path fill="none" stroke="black" d="M553.596,-359.697C553.596,-351.983 553.596,-342.712 553.596,-334.112"/>
<polygon fill="black" stroke="black" points="557.096,-334.104 553.596,-324.104 550.096,-334.104 557.096,-334.104"/>
</g>
</g>
</svg>
