<?xml version="1.0" encoding="UTF-8" standalone="no"?>
<!DOCTYPE svg PUBLIC "-//W3C//DTD SVG 1.1//EN"
 "http://www.w3.org/Graphics/SVG/1.1/DTD/svg11.dtd">
<!-- Generated by graphviz version 2.38.0 (20140413.2041)
 -->
<!-- Title: %3 Pages: 1 -->
<svg width="1290pt" height="692pt"
 viewBox="0.00 0.00 1290.09 692.00" xmlns="http://www.w3.org/2000/svg" xmlns:xlink="http://www.w3.org/1999/xlink">
<g id="graph0" class="graph" transform="scale(1 1) rotate(0) translate(4 688)">
<title>%3</title>
<polygon fill="white" stroke="none" points="-4,4 -4,-688 1286.09,-688 1286.09,4 -4,4"/>
<!-- 0 -->
<g id="node1" class="node"><title>0</title>
<g id="a_node1"><a xlink:title="0, diversity: 2, multiplicities: 7,34, labels: 1,3">
<ellipse fill="#fca082" stroke="black" cx="654.047" cy="-378" rx="44.393" ry="18"/>
<text text-anchor="middle" x="654.047" y="-374.3" font-family="Times,serif" font-size="14.00">0 (2): 1,3</text>
</a>
</g>
</g>
<!-- 3 -->
<g id="node4" class="node"><title>3</title>
<g id="a_node4"><a xlink:title="3, diversity: 4, multiplicities: 1,2,7,9, labels: 1">
<ellipse fill="#fca082" stroke="black" cx="382.047" cy="-306" rx="37.0935" ry="18"/>
<text text-anchor="middle" x="382.047" y="-302.3" font-family="Times,serif" font-size="14.00">3 (4): 1</text>
</a>
</g>
</g>
<!-- 0&#45;&gt;3 -->
<g id="edge5" class="edge"><title>0&#45;&gt;3</title>
<path fill="none" stroke="black" d="M617.646,-367.632C567.327,-354.683 476.742,-331.37 423.757,-317.734"/>
<polygon fill="black" stroke="black" points="424.558,-314.326 414.001,-315.224 422.813,-321.106 424.558,-314.326"/>
</g>
<!-- 8 -->
<g id="node9" class="node"><title>8</title>
<g id="a_node9"><a xlink:title="8, diversity: 2, multiplicities: 4,5, labels: 1">
<ellipse fill="#fcc4ad" stroke="black" cx="636.047" cy="-306" rx="37.0935" ry="18"/>
<text text-anchor="middle" x="636.047" y="-302.3" font-family="Times,serif" font-size="14.00">8 (2): 1</text>
</a>
</g>
</g>
<!-- 0&#45;&gt;8 -->
<g id="edge30" class="edge"><title>0&#45;&gt;8</title>
<path fill="none" stroke="black" d="M649.689,-360.055C647.685,-352.261 645.258,-342.822 643.01,-334.079"/>
<polygon fill="black" stroke="black" points="646.369,-333.089 640.489,-324.275 639.59,-334.832 646.369,-333.089"/>
</g>
<!-- 9 -->
<g id="node10" class="node"><title>9</title>
<g id="a_node10"><a xlink:title="9, diversity: 1, multiplicities: 10, labels: 1">
<ellipse fill="#fcc4ad" stroke="black" cx="729.047" cy="-306" rx="37.0935" ry="18"/>
<text text-anchor="middle" x="729.047" y="-302.3" font-family="Times,serif" font-size="14.00">9 (1): 1</text>
</a>
</g>
</g>
<!-- 0&#45;&gt;9 -->
<g id="edge25" class="edge"><title>0&#45;&gt;9</title>
<path fill="none" stroke="black" d="M671.065,-361.116C681.179,-351.677 694.159,-339.562 705.273,-329.189"/>
<polygon fill="black" stroke="black" points="707.688,-331.722 712.611,-322.34 702.912,-326.605 707.688,-331.722"/>
</g>
<!-- 1 -->
<g id="node2" class="node"><title>1</title>
<g id="a_node2"><a xlink:title="1, diversity: 2, multiplicities: 1,2, labels: 1">
<ellipse fill="#fee3d6" stroke="black" cx="134.047" cy="-90" rx="37.0935" ry="18"/>
<text text-anchor="middle" x="134.047" y="-86.3" font-family="Times,serif" font-size="14.00">1 (2): 1</text>
</a>
</g>
</g>
<!-- 16 -->
<g id="node17" class="node"><title>16</title>
<g id="a_node17"><a xlink:title="16, diversity: 2, multiplicities: 1,23, labels: 1">
<ellipse fill="#fca082" stroke="black" cx="134.047" cy="-18" rx="41.6928" ry="18"/>
<text text-anchor="middle" x="134.047" y="-14.3" font-family="Times,serif" font-size="14.00">16 (2): 1</text>
</a>
</g>
</g>
<!-- 1&#45;&gt;16 -->
<g id="edge10" class="edge"><title>1&#45;&gt;16</title>
<path fill="none" stroke="black" d="M134.047,-71.6966C134.047,-63.9827 134.047,-54.7125 134.047,-46.1124"/>
<polygon fill="black" stroke="black" points="137.547,-46.1043 134.047,-36.1043 130.547,-46.1044 137.547,-46.1043"/>
</g>
<!-- 2 -->
<g id="node3" class="node"><title>2</title>
<g id="a_node3"><a xlink:title="2, diversity: 1, multiplicities: 7, labels: 1">
<ellipse fill="#fcc4ad" stroke="black" cx="1245.05" cy="-378" rx="37.0935" ry="18"/>
<text text-anchor="middle" x="1245.05" y="-374.3" font-family="Times,serif" font-size="14.00">2 (1): 1</text>
</a>
</g>
</g>
<!-- 6 -->
<g id="node7" class="node"><title>6</title>
<g id="a_node7"><a xlink:title="6, diversity: 2, multiplicities: 3,28, labels: 1">
<ellipse fill="#fca082" stroke="black" cx="134.047" cy="-234" rx="37.0935" ry="18"/>
<text text-anchor="middle" x="134.047" y="-230.3" font-family="Times,serif" font-size="14.00">6 (2): 1</text>
</a>
</g>
</g>
<!-- 3&#45;&gt;6 -->
<g id="edge15" class="edge"><title>3&#45;&gt;6</title>
<path fill="none" stroke="black" d="M349.231,-297.431C309.032,-287.921 239.005,-270.581 180.047,-252 177.306,-251.136 174.489,-250.205 171.662,-249.239"/>
<polygon fill="black" stroke="black" points="172.711,-245.897 162.116,-245.867 170.38,-252.498 172.711,-245.897"/>
</g>
<!-- 12 -->
<g id="node13" class="node"><title>12</title>
<g id="a_node13"><a xlink:title="12, diversity: 1, multiplicities: 11, labels: 1">
<ellipse fill="#fca082" stroke="black" cx="231.047" cy="-234" rx="41.6928" ry="18"/>
<text text-anchor="middle" x="231.047" y="-230.3" font-family="Times,serif" font-size="14.00">12 (1): 1</text>
</a>
</g>
</g>
<!-- 3&#45;&gt;12 -->
<g id="edge32" class="edge"><title>3&#45;&gt;12</title>
<path fill="none" stroke="black" d="M356.089,-292.967C331.725,-281.672 295.039,-264.665 267.696,-251.99"/>
<polygon fill="black" stroke="black" points="268.994,-248.734 258.45,-247.703 266.05,-255.085 268.994,-248.734"/>
</g>
<!-- 13 -->
<g id="node14" class="node"><title>13</title>
<g id="a_node14"><a xlink:title="13, diversity: 1, multiplicities: 5, labels: 1">
<ellipse fill="#fee3d6" stroke="black" cx="332.047" cy="-234" rx="41.6928" ry="18"/>
<text text-anchor="middle" x="332.047" y="-230.3" font-family="Times,serif" font-size="14.00">13 (1): 1</text>
</a>
</g>
</g>
<!-- 3&#45;&gt;13 -->
<g id="edge22" class="edge"><title>3&#45;&gt;13</title>
<path fill="none" stroke="black" d="M370.45,-288.765C364.354,-280.23 356.748,-269.582 349.918,-260.019"/>
<polygon fill="black" stroke="black" points="352.588,-257.736 343.928,-251.633 346.892,-261.805 352.588,-257.736"/>
</g>
<!-- 29 -->
<g id="node30" class="node"><title>29</title>
<g id="a_node30"><a xlink:title="29, diversity: 3, multiplicities: 4,7,17, labels: 1">
<ellipse fill="#fca082" stroke="black" cx="433.047" cy="-234" rx="41.6928" ry="18"/>
<text text-anchor="middle" x="433.047" y="-230.3" font-family="Times,serif" font-size="14.00">29 (3): 1</text>
</a>
</g>
</g>
<!-- 3&#45;&gt;29 -->
<g id="edge38" class="edge"><title>3&#45;&gt;29</title>
<path fill="none" stroke="black" d="M393.875,-288.765C400.157,-280.143 408.01,-269.365 415.032,-259.727"/>
<polygon fill="black" stroke="black" points="417.868,-261.777 420.928,-251.633 412.211,-257.655 417.868,-261.777"/>
</g>
<!-- 38 -->
<g id="node39" class="node"><title>38</title>
<g id="a_node39"><a xlink:title="38, diversity: 1, multiplicities: 5, labels: 1">
<ellipse fill="#fee3d6" stroke="black" cx="534.047" cy="-234" rx="41.6928" ry="18"/>
<text text-anchor="middle" x="534.047" y="-230.3" font-family="Times,serif" font-size="14.00">38 (1): 1</text>
</a>
</g>
</g>
<!-- 3&#45;&gt;38 -->
<g id="edge4" class="edge"><title>3&#45;&gt;38</title>
<path fill="none" stroke="black" d="M408.176,-292.967C432.777,-281.637 469.86,-264.56 497.41,-251.872"/>
<polygon fill="black" stroke="black" points="499.102,-254.946 506.721,-247.584 496.174,-248.588 499.102,-254.946"/>
</g>
<!-- 4 -->
<g id="node5" class="node"><title>4</title>
<g id="a_node5"><a xlink:title="4, diversity: 2, multiplicities: 1,847, labels: 1,0,3,2">
<ellipse fill="#e32f27" stroke="black" cx="815.047" cy="-378" rx="57.6901" ry="18"/>
<text text-anchor="middle" x="815.047" y="-374.3" font-family="Times,serif" font-size="14.00">4 (2): 1,0,3,2</text>
</a>
</g>
</g>
<!-- 21 -->
<g id="node22" class="node"><title>21</title>
<g id="a_node22"><a xlink:title="21, diversity: 2, multiplicities: 9,14, labels: 1,2">
<ellipse fill="#fca082" stroke="black" cx="834.047" cy="-306" rx="48.1917" ry="18"/>
<text text-anchor="middle" x="834.047" y="-302.3" font-family="Times,serif" font-size="14.00">21 (2): 1,2</text>
</a>
</g>
</g>
<!-- 4&#45;&gt;21 -->
<g id="edge39" class="edge"><title>4&#45;&gt;21</title>
<path fill="none" stroke="black" d="M819.646,-360.055C821.762,-352.261 824.324,-342.822 826.697,-334.079"/>
<polygon fill="black" stroke="black" points="830.116,-334.843 829.358,-324.275 823.36,-333.009 830.116,-334.843"/>
</g>
<!-- 5 -->
<g id="node6" class="node"><title>5</title>
<g id="a_node6"><a xlink:title="5, diversity: 7, multiplicities: 6,6,24,29,39,40,60, labels: 1">
<ellipse fill="#f6553c" stroke="black" cx="993.047" cy="-450" rx="37.0935" ry="18"/>
<text text-anchor="middle" x="993.047" y="-446.3" font-family="Times,serif" font-size="14.00">5 (7): 1</text>
</a>
</g>
</g>
<!-- 5&#45;&gt;0 -->
<g id="edge21" class="edge"><title>5&#45;&gt;0</title>
<path fill="none" stroke="black" d="M959.614,-442.097C899.353,-429.653 772.308,-403.42 702.509,-389.007"/>
<polygon fill="black" stroke="black" points="703.142,-385.564 692.641,-386.969 701.727,-392.419 703.142,-385.564"/>
</g>
<!-- 5&#45;&gt;4 -->
<g id="edge20" class="edge"><title>5&#45;&gt;4</title>
<path fill="none" stroke="black" d="M965.234,-438.062C936.756,-426.863 892.079,-409.293 858.847,-396.225"/>
<polygon fill="black" stroke="black" points="859.954,-392.899 849.367,-392.497 857.392,-399.414 859.954,-392.899"/>
</g>
<!-- 14 -->
<g id="node15" class="node"><title>14</title>
<g id="a_node15"><a xlink:title="14, diversity: 1, multiplicities: 68, labels: 1,2">
<ellipse fill="#fca082" stroke="black" cx="939.047" cy="-378" rx="48.1917" ry="18"/>
<text text-anchor="middle" x="939.047" y="-374.3" font-family="Times,serif" font-size="14.00">14 (1): 1,2</text>
</a>
</g>
</g>
<!-- 5&#45;&gt;14 -->
<g id="edge35" class="edge"><title>5&#45;&gt;14</title>
<path fill="none" stroke="black" d="M980.522,-432.765C973.871,-424.143 965.557,-413.365 958.122,-403.727"/>
<polygon fill="black" stroke="black" points="960.758,-401.413 951.878,-395.633 955.215,-405.689 960.758,-401.413"/>
</g>
<!-- 19 -->
<g id="node20" class="node"><title>19</title>
<g id="a_node20"><a xlink:title="19, diversity: 1, multiplicities: 3, labels: 1">
<ellipse fill="#fee3d6" stroke="black" cx="1047.05" cy="-378" rx="41.6928" ry="18"/>
<text text-anchor="middle" x="1047.05" y="-374.3" font-family="Times,serif" font-size="14.00">19 (1): 1</text>
</a>
</g>
</g>
<!-- 5&#45;&gt;19 -->
<g id="edge2" class="edge"><title>5&#45;&gt;19</title>
<path fill="none" stroke="black" d="M1005.57,-432.765C1012.22,-424.143 1020.54,-413.365 1027.97,-403.727"/>
<polygon fill="black" stroke="black" points="1030.88,-405.689 1034.22,-395.633 1025.34,-401.413 1030.88,-405.689"/>
</g>
<!-- 24 -->
<g id="node25" class="node"><title>24</title>
<g id="a_node25"><a xlink:title="24, diversity: 1, multiplicities: 5, labels: 1">
<ellipse fill="#fee3d6" stroke="black" cx="1148.05" cy="-378" rx="41.6928" ry="18"/>
<text text-anchor="middle" x="1148.05" y="-374.3" font-family="Times,serif" font-size="14.00">24 (1): 1</text>
</a>
</g>
</g>
<!-- 5&#45;&gt;24 -->
<g id="edge23" class="edge"><title>5&#45;&gt;24</title>
<path fill="none" stroke="black" d="M1019.34,-437.125C1044.56,-425.736 1082.87,-408.433 1111.15,-395.665"/>
<polygon fill="black" stroke="black" points="1112.64,-398.83 1120.31,-391.524 1109.76,-392.45 1112.64,-398.83"/>
</g>
<!-- 7 -->
<g id="node8" class="node"><title>7</title>
<g id="a_node8"><a xlink:title="7, diversity: 1, multiplicities: 6, labels: 1">
<ellipse fill="#fcc4ad" stroke="black" cx="37.0467" cy="-162" rx="37.0935" ry="18"/>
<text text-anchor="middle" x="37.0467" y="-158.3" font-family="Times,serif" font-size="14.00">7 (1): 1</text>
</a>
</g>
</g>
<!-- 6&#45;&gt;7 -->
<g id="edge8" class="edge"><title>6&#45;&gt;7</title>
<path fill="none" stroke="black" d="M113.948,-218.496C99.8082,-208.292 80.6952,-194.499 65.0614,-183.217"/>
<polygon fill="black" stroke="black" points="66.9447,-180.26 56.7875,-177.246 62.8484,-185.936 66.9447,-180.26"/>
</g>
<!-- 26 -->
<g id="node27" class="node"><title>26</title>
<g id="a_node27"><a xlink:title="26, diversity: 1, multiplicities: 2, labels: 1">
<ellipse fill="#fee3d6" stroke="black" cx="134.047" cy="-162" rx="41.6928" ry="18"/>
<text text-anchor="middle" x="134.047" y="-158.3" font-family="Times,serif" font-size="14.00">26 (1): 1</text>
</a>
</g>
</g>
<!-- 6&#45;&gt;26 -->
<g id="edge7" class="edge"><title>6&#45;&gt;26</title>
<path fill="none" stroke="black" d="M134.047,-215.697C134.047,-207.983 134.047,-198.712 134.047,-190.112"/>
<polygon fill="black" stroke="black" points="137.547,-190.104 134.047,-180.104 130.547,-190.104 137.547,-190.104"/>
</g>
<!-- 32 -->
<g id="node33" class="node"><title>32</title>
<g id="a_node33"><a xlink:title="32, diversity: 1, multiplicities: 1, labels: 1">
<ellipse fill="#fff5f0" stroke="black" cx="235.047" cy="-162" rx="41.6928" ry="18"/>
<text text-anchor="middle" x="235.047" y="-158.3" font-family="Times,serif" font-size="14.00">32 (1): 1</text>
</a>
</g>
</g>
<!-- 6&#45;&gt;32 -->
<g id="edge12" class="edge"><title>6&#45;&gt;32</title>
<path fill="none" stroke="black" d="M154.486,-218.834C169.076,-208.722 188.93,-194.962 205.278,-183.632"/>
<polygon fill="black" stroke="black" points="207.718,-186.199 213.943,-177.626 203.73,-180.446 207.718,-186.199"/>
</g>
<!-- 17 -->
<g id="node18" class="node"><title>17</title>
<g id="a_node18"><a xlink:title="17, diversity: 2, multiplicities: 1,14, labels: 1">
<ellipse fill="#fca082" stroke="black" cx="635.047" cy="-234" rx="41.6928" ry="18"/>
<text text-anchor="middle" x="635.047" y="-230.3" font-family="Times,serif" font-size="14.00">17 (2): 1</text>
</a>
</g>
</g>
<!-- 8&#45;&gt;17 -->
<g id="edge28" class="edge"><title>8&#45;&gt;17</title>
<path fill="none" stroke="black" d="M635.8,-287.697C635.689,-279.983 635.557,-270.712 635.434,-262.112"/>
<polygon fill="black" stroke="black" points="638.934,-262.053 635.291,-252.104 631.934,-262.153 638.934,-262.053"/>
</g>
<!-- 30 -->
<g id="node31" class="node"><title>30</title>
<g id="a_node31"><a xlink:title="30, diversity: 1, multiplicities: 2, labels: 1">
<ellipse fill="#fee3d6" stroke="black" cx="736.047" cy="-234" rx="41.6928" ry="18"/>
<text text-anchor="middle" x="736.047" y="-230.3" font-family="Times,serif" font-size="14.00">30 (1): 1</text>
</a>
</g>
</g>
<!-- 9&#45;&gt;30 -->
<g id="edge37" class="edge"><title>9&#45;&gt;30</title>
<path fill="none" stroke="black" d="M730.777,-287.697C731.548,-279.983 732.475,-270.712 733.335,-262.112"/>
<polygon fill="black" stroke="black" points="736.824,-262.403 734.336,-252.104 729.859,-261.706 736.824,-262.403"/>
</g>
<!-- 10 -->
<g id="node11" class="node"><title>10</title>
<g id="a_node11"><a xlink:title="10, diversity: 1, multiplicities: 7, labels: 1">
<ellipse fill="#fcc4ad" stroke="black" cx="837.047" cy="-234" rx="41.6928" ry="18"/>
<text text-anchor="middle" x="837.047" y="-230.3" font-family="Times,serif" font-size="14.00">10 (1): 1</text>
</a>
</g>
</g>
<!-- 11 -->
<g id="node12" class="node"><title>11</title>
<g id="a_node12"><a xlink:title="11, diversity: 1, multiplicities: 1, labels: 1">
<ellipse fill="#fff5f0" stroke="black" cx="1068.05" cy="-522" rx="41.6928" ry="18"/>
<text text-anchor="middle" x="1068.05" y="-518.3" font-family="Times,serif" font-size="14.00">11 (1): 1</text>
</a>
</g>
</g>
<!-- 11&#45;&gt;5 -->
<g id="edge9" class="edge"><title>11&#45;&gt;5</title>
<path fill="none" stroke="black" d="M1051.4,-505.465C1041.23,-495.974 1028.07,-483.684 1016.81,-473.181"/>
<polygon fill="black" stroke="black" points="1019.09,-470.516 1009.39,-466.251 1014.31,-475.633 1019.09,-470.516"/>
</g>
<!-- 15 -->
<g id="node16" class="node"><title>15</title>
<g id="a_node16"><a xlink:title="15, diversity: 1, multiplicities: 2, labels: 1">
<ellipse fill="#fee3d6" stroke="black" cx="1077.05" cy="-594" rx="41.6928" ry="18"/>
<text text-anchor="middle" x="1077.05" y="-590.3" font-family="Times,serif" font-size="14.00">15 (1): 1</text>
</a>
</g>
</g>
<!-- 15&#45;&gt;11 -->
<g id="edge14" class="edge"><title>15&#45;&gt;11</title>
<path fill="none" stroke="black" d="M1074.82,-575.697C1073.83,-567.983 1072.64,-558.712 1071.53,-550.112"/>
<polygon fill="black" stroke="black" points="1074.99,-549.576 1070.25,-540.104 1068.05,-550.469 1074.99,-549.576"/>
</g>
<!-- 23 -->
<g id="node24" class="node"><title>23</title>
<g id="a_node24"><a xlink:title="23, diversity: 1, multiplicities: 5, labels: 1">
<ellipse fill="#fee3d6" stroke="black" cx="635.047" cy="-162" rx="41.6928" ry="18"/>
<text text-anchor="middle" x="635.047" y="-158.3" font-family="Times,serif" font-size="14.00">23 (1): 1</text>
</a>
</g>
</g>
<!-- 17&#45;&gt;23 -->
<g id="edge16" class="edge"><title>17&#45;&gt;23</title>
<path fill="none" stroke="black" d="M635.047,-215.697C635.047,-207.983 635.047,-198.712 635.047,-190.112"/>
<polygon fill="black" stroke="black" points="638.547,-190.104 635.047,-180.104 631.547,-190.104 638.547,-190.104"/>
</g>
<!-- 18 -->
<g id="node19" class="node"><title>18</title>
<g id="a_node19"><a xlink:title="18, diversity: 1, multiplicities: 10, labels: 1">
<ellipse fill="#fcc4ad" stroke="black" cx="1047.05" cy="-306" rx="41.6928" ry="18"/>
<text text-anchor="middle" x="1047.05" y="-302.3" font-family="Times,serif" font-size="14.00">18 (1): 1</text>
</a>
</g>
</g>
<!-- 19&#45;&gt;18 -->
<g id="edge6" class="edge"><title>19&#45;&gt;18</title>
<path fill="none" stroke="black" d="M1047.05,-359.697C1047.05,-351.983 1047.05,-342.712 1047.05,-334.112"/>
<polygon fill="black" stroke="black" points="1050.55,-334.104 1047.05,-324.104 1043.55,-334.104 1050.55,-334.104"/>
</g>
<!-- 20 -->
<g id="node21" class="node"><title>20</title>
<g id="a_node21"><a xlink:title="20, diversity: 1, multiplicities: 1, labels: 1">
<ellipse fill="#fff5f0" stroke="black" cx="1148.05" cy="-306" rx="41.6928" ry="18"/>
<text text-anchor="middle" x="1148.05" y="-302.3" font-family="Times,serif" font-size="14.00">20 (1): 1</text>
</a>
</g>
</g>
<!-- 37 -->
<g id="node38" class="node"><title>37</title>
<g id="a_node38"><a xlink:title="37, diversity: 1, multiplicities: 3, labels: 1">
<ellipse fill="#fee3d6" stroke="black" cx="1148.05" cy="-234" rx="41.6928" ry="18"/>
<text text-anchor="middle" x="1148.05" y="-230.3" font-family="Times,serif" font-size="14.00">37 (1): 1</text>
</a>
</g>
</g>
<!-- 20&#45;&gt;37 -->
<g id="edge34" class="edge"><title>20&#45;&gt;37</title>
<path fill="none" stroke="black" d="M1148.05,-287.697C1148.05,-279.983 1148.05,-270.712 1148.05,-262.112"/>
<polygon fill="black" stroke="black" points="1151.55,-262.104 1148.05,-252.104 1144.55,-262.104 1151.55,-262.104"/>
</g>
<!-- 21&#45;&gt;10 -->
<g id="edge17" class="edge"><title>21&#45;&gt;10</title>
<path fill="none" stroke="black" d="M834.788,-287.697C835.119,-279.983 835.516,-270.712 835.885,-262.112"/>
<polygon fill="black" stroke="black" points="839.382,-262.245 836.314,-252.104 832.389,-261.945 839.382,-262.245"/>
</g>
<!-- 22 -->
<g id="node23" class="node"><title>22</title>
<g id="a_node23"><a xlink:title="22, diversity: 1, multiplicities: 1, labels: 1">
<ellipse fill="#fff5f0" stroke="black" cx="1240.05" cy="-450" rx="41.6928" ry="18"/>
<text text-anchor="middle" x="1240.05" y="-446.3" font-family="Times,serif" font-size="14.00">22 (1): 1</text>
</a>
</g>
</g>
<!-- 22&#45;&gt;2 -->
<g id="edge26" class="edge"><title>22&#45;&gt;2</title>
<path fill="none" stroke="black" d="M1241.28,-431.697C1241.83,-423.983 1242.5,-414.712 1243.11,-406.112"/>
<polygon fill="black" stroke="black" points="1246.6,-406.328 1243.82,-396.104 1239.62,-405.83 1246.6,-406.328"/>
</g>
<!-- 24&#45;&gt;20 -->
<g id="edge31" class="edge"><title>24&#45;&gt;20</title>
<path fill="none" stroke="black" d="M1148.05,-359.697C1148.05,-351.983 1148.05,-342.712 1148.05,-334.112"/>
<polygon fill="black" stroke="black" points="1151.55,-334.104 1148.05,-324.104 1144.55,-334.104 1151.55,-334.104"/>
</g>
<!-- 25 -->
<g id="node26" class="node"><title>25</title>
<g id="a_node26"><a xlink:title="25, diversity: 1, multiplicities: 1, labels: 1">
<ellipse fill="#fff5f0" stroke="black" cx="1235.05" cy="-522" rx="41.6928" ry="18"/>
<text text-anchor="middle" x="1235.05" y="-518.3" font-family="Times,serif" font-size="14.00">25 (1): 1</text>
</a>
</g>
</g>
<!-- 25&#45;&gt;22 -->
<g id="edge18" class="edge"><title>25&#45;&gt;22</title>
<path fill="none" stroke="black" d="M1236.28,-503.697C1236.83,-495.983 1237.5,-486.712 1238.11,-478.112"/>
<polygon fill="black" stroke="black" points="1241.6,-478.328 1238.82,-468.104 1234.62,-477.83 1241.6,-478.328"/>
</g>
<!-- 26&#45;&gt;1 -->
<g id="edge33" class="edge"><title>26&#45;&gt;1</title>
<path fill="none" stroke="black" d="M134.047,-143.697C134.047,-135.983 134.047,-126.712 134.047,-118.112"/>
<polygon fill="black" stroke="black" points="137.547,-118.104 134.047,-108.104 130.547,-118.104 137.547,-118.104"/>
</g>
<!-- 27 -->
<g id="node28" class="node"><title>27</title>
<g id="a_node28"><a xlink:title="27, diversity: 1, multiplicities: 2, labels: 1">
<ellipse fill="#fee3d6" stroke="black" cx="1197.05" cy="-594" rx="41.6928" ry="18"/>
<text text-anchor="middle" x="1197.05" y="-590.3" font-family="Times,serif" font-size="14.00">27 (1): 1</text>
</a>
</g>
</g>
<!-- 27&#45;&gt;25 -->
<g id="edge11" class="edge"><title>27&#45;&gt;25</title>
<path fill="none" stroke="black" d="M1206.05,-576.411C1210.53,-568.163 1216.04,-558.009 1221.05,-548.777"/>
<polygon fill="black" stroke="black" points="1224.15,-550.415 1225.84,-539.956 1217.99,-547.075 1224.15,-550.415"/>
</g>
<!-- 28 -->
<g id="node29" class="node"><title>28</title>
<g id="a_node29"><a xlink:title="28, diversity: 1, multiplicities: 7, labels: 1">
<ellipse fill="#fcc4ad" stroke="black" cx="1137.05" cy="-666" rx="41.6928" ry="18"/>
<text text-anchor="middle" x="1137.05" y="-662.3" font-family="Times,serif" font-size="14.00">28 (1): 1</text>
</a>
</g>
</g>
<!-- 28&#45;&gt;15 -->
<g id="edge36" class="edge"><title>28&#45;&gt;15</title>
<path fill="none" stroke="black" d="M1123.13,-648.765C1115.56,-639.93 1106.04,-628.83 1097.63,-619.014"/>
<polygon fill="black" stroke="black" points="1100.05,-616.462 1090.89,-611.147 1094.74,-621.018 1100.05,-616.462"/>
</g>
<!-- 28&#45;&gt;27 -->
<g id="edge24" class="edge"><title>28&#45;&gt;27</title>
<path fill="none" stroke="black" d="M1150.96,-648.765C1158.54,-639.93 1168.05,-628.83 1176.46,-619.014"/>
<polygon fill="black" stroke="black" points="1179.36,-621.018 1183.21,-611.147 1174.04,-616.462 1179.36,-621.018"/>
</g>
<!-- 39 -->
<g id="node40" class="node"><title>39</title>
<g id="a_node40"><a xlink:title="39, diversity: 1, multiplicities: 5, labels: 1">
<ellipse fill="#fee3d6" stroke="black" cx="433.047" cy="-162" rx="41.6928" ry="18"/>
<text text-anchor="middle" x="433.047" y="-158.3" font-family="Times,serif" font-size="14.00">39 (1): 1</text>
</a>
</g>
</g>
<!-- 29&#45;&gt;39 -->
<g id="edge29" class="edge"><title>29&#45;&gt;39</title>
<path fill="none" stroke="black" d="M433.047,-215.697C433.047,-207.983 433.047,-198.712 433.047,-190.112"/>
<polygon fill="black" stroke="black" points="436.547,-190.104 433.047,-180.104 429.547,-190.104 436.547,-190.104"/>
</g>
<!-- 31 -->
<g id="node32" class="node"><title>31</title>
<g id="a_node32"><a xlink:title="31, diversity: 1, multiplicities: 5, labels: 1">
<ellipse fill="#fee3d6" stroke="black" cx="736.047" cy="-162" rx="41.6928" ry="18"/>
<text text-anchor="middle" x="736.047" y="-158.3" font-family="Times,serif" font-size="14.00">31 (1): 1</text>
</a>
</g>
</g>
<!-- 30&#45;&gt;31 -->
<g id="edge3" class="edge"><title>30&#45;&gt;31</title>
<path fill="none" stroke="black" d="M736.047,-215.697C736.047,-207.983 736.047,-198.712 736.047,-190.112"/>
<polygon fill="black" stroke="black" points="739.547,-190.104 736.047,-180.104 732.547,-190.104 739.547,-190.104"/>
</g>
<!-- 34 -->
<g id="node35" class="node"><title>34</title>
<g id="a_node35"><a xlink:title="34, diversity: 1, multiplicities: 22, labels: 1">
<ellipse fill="#fca082" stroke="black" cx="235.047" cy="-90" rx="41.6928" ry="18"/>
<text text-anchor="middle" x="235.047" y="-86.3" font-family="Times,serif" font-size="14.00">34 (1): 1</text>
</a>
</g>
</g>
<!-- 32&#45;&gt;34 -->
<g id="edge19" class="edge"><title>32&#45;&gt;34</title>
<path fill="none" stroke="black" d="M235.047,-143.697C235.047,-135.983 235.047,-126.712 235.047,-118.112"/>
<polygon fill="black" stroke="black" points="238.547,-118.104 235.047,-108.104 231.547,-118.104 238.547,-118.104"/>
</g>
<!-- 33 -->
<g id="node34" class="node"><title>33</title>
<g id="a_node34"><a xlink:title="33, diversity: 1, multiplicities: 14, labels: 1">
<ellipse fill="#fca082" stroke="black" cx="235.047" cy="-18" rx="41.6928" ry="18"/>
<text text-anchor="middle" x="235.047" y="-14.3" font-family="Times,serif" font-size="14.00">33 (1): 1</text>
</a>
</g>
</g>
<!-- 34&#45;&gt;33 -->
<g id="edge27" class="edge"><title>34&#45;&gt;33</title>
<path fill="none" stroke="black" d="M235.047,-71.6966C235.047,-63.9827 235.047,-54.7125 235.047,-46.1124"/>
<polygon fill="black" stroke="black" points="238.547,-46.1043 235.047,-36.1043 231.547,-46.1044 238.547,-46.1043"/>
</g>
<!-- 35 -->
<g id="node36" class="node"><title>35</title>
<g id="a_node36"><a xlink:title="35, diversity: 1, multiplicities: 11, labels: 1,2">
<ellipse fill="#fca082" stroke="black" cx="1148.05" cy="-90" rx="48.1917" ry="18"/>
<text text-anchor="middle" x="1148.05" y="-86.3" font-family="Times,serif" font-size="14.00">35 (1): 1,2</text>
</a>
</g>
</g>
<!-- 40 -->
<g id="node41" class="node"><title>40</title>
<g id="a_node41"><a xlink:title="40, diversity: 2, multiplicities: 6,7, labels: 1">
<ellipse fill="#fca082" stroke="black" cx="1148.05" cy="-18" rx="41.6928" ry="18"/>
<text text-anchor="middle" x="1148.05" y="-14.3" font-family="Times,serif" font-size="14.00">40 (2): 1</text>
</a>
</g>
</g>
<!-- 35&#45;&gt;40 -->
<g id="edge13" class="edge"><title>35&#45;&gt;40</title>
<path fill="none" stroke="black" d="M1148.05,-71.6966C1148.05,-63.9827 1148.05,-54.7125 1148.05,-46.1124"/>
<polygon fill="black" stroke="black" points="1151.55,-46.1043 1148.05,-36.1043 1144.55,-46.1044 1151.55,-46.1043"/>
</g>
<!-- 36 -->
<g id="node37" class="node"><title>36</title>
<g id="a_node37"><a xlink:title="36, diversity: 1, multiplicities: 1, labels: 1">
<ellipse fill="#fff5f0" stroke="black" cx="1148.05" cy="-162" rx="41.6928" ry="18"/>
<text text-anchor="middle" x="1148.05" y="-158.3" font-family="Times,serif" font-size="14.00">36 (1): 1</text>
</a>
</g>
</g>
<!-- 36&#45;&gt;35 -->
<g id="edge40" class="edge"><title>36&#45;&gt;35</title>
<path fill="none" stroke="black" d="M1148.05,-143.697C1148.05,-135.983 1148.05,-126.712 1148.05,-118.112"/>
<polygon fill="black" stroke="black" points="1151.55,-118.104 1148.05,-108.104 1144.55,-118.104 1151.55,-118.104"/>
</g>
<!-- 37&#45;&gt;36 -->
<g id="edge1" class="edge"><title>37&#45;&gt;36</title>
<path fill="none" stroke="black" d="M1148.05,-215.697C1148.05,-207.983 1148.05,-198.712 1148.05,-190.112"/>
<polygon fill="black" stroke="black" points="1151.55,-190.104 1148.05,-180.104 1144.55,-190.104 1151.55,-190.104"/>
</g>
</g>
</svg>
