<?xml version="1.0" encoding="UTF-8" standalone="no"?>
<!DOCTYPE svg PUBLIC "-//W3C//DTD SVG 1.1//EN"
 "http://www.w3.org/Graphics/SVG/1.1/DTD/svg11.dtd">
<!-- Generated by graphviz version 2.38.0 (20140413.2041)
 -->
<!-- Title: %3 Pages: 1 -->
<svg width="519pt" height="620pt"
 viewBox="0.00 0.00 519.29 620.00" xmlns="http://www.w3.org/2000/svg" xmlns:xlink="http://www.w3.org/1999/xlink">
<g id="graph0" class="graph" transform="scale(1 1) rotate(0) translate(4 616)">
<title>%3</title>
<polygon fill="white" stroke="none" points="-4,4 -4,-616 515.292,-616 515.292,4 -4,4"/>
<!-- 0 -->
<g id="node1" class="node"><title>0</title>
<g id="a_node1"><a xlink:title="0, diversity: 1, multiplicities: 2, labels: 1,3">
<ellipse fill="#fee3d6" stroke="black" cx="235.196" cy="-378" rx="44.393" ry="18"/>
<text text-anchor="middle" x="235.196" y="-374.3" font-family="Times,serif" font-size="14.00">0 (1): 1,3</text>
</a>
</g>
</g>
<!-- 3 -->
<g id="node4" class="node"><title>3</title>
<g id="a_node4"><a xlink:title="3, diversity: 3, multiplicities: 1,50,483, labels: 1,0,3,2">
<ellipse fill="#e32f27" stroke="black" cx="235.196" cy="-306" rx="57.6901" ry="18"/>
<text text-anchor="middle" x="235.196" y="-302.3" font-family="Times,serif" font-size="14.00">3 (3): 1,0,3,2</text>
</a>
</g>
</g>
<!-- 0&#45;&gt;3 -->
<g id="edge13" class="edge"><title>0&#45;&gt;3</title>
<path fill="none" stroke="black" d="M235.196,-359.697C235.196,-351.983 235.196,-342.712 235.196,-334.112"/>
<polygon fill="black" stroke="black" points="238.696,-334.104 235.196,-324.104 231.696,-334.104 238.696,-334.104"/>
</g>
<!-- 1 -->
<g id="node2" class="node"><title>1</title>
<g id="a_node2"><a xlink:title="1, diversity: 2, multiplicities: 1,11, labels: 1,0">
<ellipse fill="#fca082" stroke="black" cx="44.1961" cy="-234" rx="44.393" ry="18"/>
<text text-anchor="middle" x="44.1961" y="-230.3" font-family="Times,serif" font-size="14.00">1 (2): 1,0</text>
</a>
</g>
</g>
<!-- 2 -->
<g id="node3" class="node"><title>2</title>
<g id="a_node3"><a xlink:title="2, diversity: 2, multiplicities: 5,38, labels: 1,0,2">
<ellipse fill="#fca082" stroke="black" cx="346.196" cy="-162" rx="50.8918" ry="18"/>
<text text-anchor="middle" x="346.196" y="-158.3" font-family="Times,serif" font-size="14.00">2 (2): 1,0,2</text>
</a>
</g>
</g>
<!-- 3&#45;&gt;1 -->
<g id="edge5" class="edge"><title>3&#45;&gt;1</title>
<path fill="none" stroke="black" d="M199.27,-291.834C166.912,-279.974 119.361,-262.547 85.4553,-250.121"/>
<polygon fill="black" stroke="black" points="86.435,-246.753 75.8413,-246.598 84.0262,-253.325 86.435,-246.753"/>
</g>
<!-- 4 -->
<g id="node5" class="node"><title>4</title>
<g id="a_node5"><a xlink:title="4, diversity: 1, multiplicities: 1, labels: 1">
<ellipse fill="#fff5f0" stroke="black" cx="143.196" cy="-234" rx="37.0935" ry="18"/>
<text text-anchor="middle" x="143.196" y="-230.3" font-family="Times,serif" font-size="14.00">4 (1): 1</text>
</a>
</g>
</g>
<!-- 3&#45;&gt;4 -->
<g id="edge14" class="edge"><title>3&#45;&gt;4</title>
<path fill="none" stroke="black" d="M214.32,-289.116C201.412,-279.295 184.698,-266.577 170.715,-255.939"/>
<polygon fill="black" stroke="black" points="172.499,-252.898 162.421,-249.628 168.26,-258.468 172.499,-252.898"/>
</g>
<!-- 8 -->
<g id="node9" class="node"><title>8</title>
<g id="a_node9"><a xlink:title="8, diversity: 1, multiplicities: 1, labels: 3">
<ellipse fill="#fff5f0" stroke="black" cx="235.196" cy="-234" rx="37.0935" ry="18"/>
<text text-anchor="middle" x="235.196" y="-230.3" font-family="Times,serif" font-size="14.00">8 (1): 3</text>
</a>
</g>
</g>
<!-- 3&#45;&gt;8 -->
<g id="edge7" class="edge"><title>3&#45;&gt;8</title>
<path fill="none" stroke="black" d="M235.196,-287.697C235.196,-279.983 235.196,-270.712 235.196,-262.112"/>
<polygon fill="black" stroke="black" points="238.696,-262.104 235.196,-252.104 231.696,-262.104 238.696,-262.104"/>
</g>
<!-- 9 -->
<g id="node10" class="node"><title>9</title>
<g id="a_node10"><a xlink:title="9, diversity: 1, multiplicities: 1, labels: 2">
<ellipse fill="#fff5f0" stroke="black" cx="339.196" cy="-234" rx="37.0935" ry="18"/>
<text text-anchor="middle" x="339.196" y="-230.3" font-family="Times,serif" font-size="14.00">9 (1): 2</text>
</a>
</g>
</g>
<!-- 3&#45;&gt;9 -->
<g id="edge9" class="edge"><title>3&#45;&gt;9</title>
<path fill="none" stroke="black" d="M258.277,-289.465C273.425,-279.269 293.373,-265.843 309.672,-254.872"/>
<polygon fill="black" stroke="black" points="311.957,-257.553 318.299,-249.066 308.048,-251.746 311.957,-257.553"/>
</g>
<!-- 15 -->
<g id="node16" class="node"><title>15</title>
<g id="a_node16"><a xlink:title="15, diversity: 1, multiplicities: 1, labels: 1">
<ellipse fill="#fff5f0" stroke="black" cx="452.196" cy="-234" rx="41.6928" ry="18"/>
<text text-anchor="middle" x="452.196" y="-230.3" font-family="Times,serif" font-size="14.00">15 (1): 1</text>
</a>
</g>
</g>
<!-- 3&#45;&gt;15 -->
<g id="edge1" class="edge"><title>3&#45;&gt;15</title>
<path fill="none" stroke="black" d="M273.991,-292.485C312.314,-280.123 370.757,-261.271 410.166,-248.558"/>
<polygon fill="black" stroke="black" points="411.309,-251.867 419.751,-245.466 409.16,-245.205 411.309,-251.867"/>
</g>
<!-- 12 -->
<g id="node13" class="node"><title>12</title>
<g id="a_node13"><a xlink:title="12, diversity: 1, multiplicities: 2, labels: 1">
<ellipse fill="#fee3d6" stroke="black" cx="121.196" cy="-162" rx="41.6928" ry="18"/>
<text text-anchor="middle" x="121.196" y="-158.3" font-family="Times,serif" font-size="14.00">12 (1): 1</text>
</a>
</g>
</g>
<!-- 4&#45;&gt;12 -->
<g id="edge3" class="edge"><title>4&#45;&gt;12</title>
<path fill="none" stroke="black" d="M137.87,-216.055C135.421,-208.261 132.454,-198.822 129.707,-190.079"/>
<polygon fill="black" stroke="black" points="132.963,-188.766 126.625,-180.275 126.285,-190.865 132.963,-188.766"/>
</g>
<!-- 5 -->
<g id="node6" class="node"><title>5</title>
<g id="a_node6"><a xlink:title="5, diversity: 1, multiplicities: 1, labels: 3">
<ellipse fill="#fff5f0" stroke="black" cx="235.196" cy="-522" rx="37.0935" ry="18"/>
<text text-anchor="middle" x="235.196" y="-518.3" font-family="Times,serif" font-size="14.00">5 (1): 3</text>
</a>
</g>
</g>
<!-- 6 -->
<g id="node7" class="node"><title>6</title>
<g id="a_node7"><a xlink:title="6, diversity: 1, multiplicities: 9, labels: 3,2">
<ellipse fill="#fcc4ad" stroke="black" cx="235.196" cy="-450" rx="44.393" ry="18"/>
<text text-anchor="middle" x="235.196" y="-446.3" font-family="Times,serif" font-size="14.00">6 (1): 3,2</text>
</a>
</g>
</g>
<!-- 5&#45;&gt;6 -->
<g id="edge4" class="edge"><title>5&#45;&gt;6</title>
<path fill="none" stroke="black" d="M235.196,-503.697C235.196,-495.983 235.196,-486.712 235.196,-478.112"/>
<polygon fill="black" stroke="black" points="238.696,-478.104 235.196,-468.104 231.696,-478.104 238.696,-478.104"/>
</g>
<!-- 6&#45;&gt;0 -->
<g id="edge6" class="edge"><title>6&#45;&gt;0</title>
<path fill="none" stroke="black" d="M235.196,-431.697C235.196,-423.983 235.196,-414.712 235.196,-406.112"/>
<polygon fill="black" stroke="black" points="238.696,-406.104 235.196,-396.104 231.696,-406.104 238.696,-406.104"/>
</g>
<!-- 7 -->
<g id="node8" class="node"><title>7</title>
<g id="a_node8"><a xlink:title="7, diversity: 1, multiplicities: 6, labels: 3">
<ellipse fill="#fcc4ad" stroke="black" cx="235.196" cy="-594" rx="37.0935" ry="18"/>
<text text-anchor="middle" x="235.196" y="-590.3" font-family="Times,serif" font-size="14.00">7 (1): 3</text>
</a>
</g>
</g>
<!-- 7&#45;&gt;5 -->
<g id="edge2" class="edge"><title>7&#45;&gt;5</title>
<path fill="none" stroke="black" d="M235.196,-575.697C235.196,-567.983 235.196,-558.712 235.196,-550.112"/>
<polygon fill="black" stroke="black" points="238.696,-550.104 235.196,-540.104 231.696,-550.104 238.696,-550.104"/>
</g>
<!-- 13 -->
<g id="node14" class="node"><title>13</title>
<g id="a_node14"><a xlink:title="13, diversity: 2, multiplicities: 12,17, labels: 1,0">
<ellipse fill="#fca082" stroke="black" cx="229.196" cy="-162" rx="48.1917" ry="18"/>
<text text-anchor="middle" x="229.196" y="-158.3" font-family="Times,serif" font-size="14.00">13 (2): 1,0</text>
</a>
</g>
</g>
<!-- 8&#45;&gt;13 -->
<g id="edge12" class="edge"><title>8&#45;&gt;13</title>
<path fill="none" stroke="black" d="M233.713,-215.697C233.052,-207.983 232.257,-198.712 231.52,-190.112"/>
<polygon fill="black" stroke="black" points="235.003,-189.769 230.662,-180.104 228.029,-190.367 235.003,-189.769"/>
</g>
<!-- 9&#45;&gt;2 -->
<g id="edge8" class="edge"><title>9&#45;&gt;2</title>
<path fill="none" stroke="black" d="M340.926,-215.697C341.698,-207.983 342.625,-198.712 343.485,-190.112"/>
<polygon fill="black" stroke="black" points="346.973,-190.403 344.486,-180.104 340.008,-189.706 346.973,-190.403"/>
</g>
<!-- 10 -->
<g id="node11" class="node"><title>10</title>
<g id="a_node11"><a xlink:title="10, diversity: 1, multiplicities: 1, labels: 1">
<ellipse fill="#fff5f0" stroke="black" cx="121.196" cy="-90" rx="41.6928" ry="18"/>
<text text-anchor="middle" x="121.196" y="-86.3" font-family="Times,serif" font-size="14.00">10 (1): 1</text>
</a>
</g>
</g>
<!-- 11 -->
<g id="node12" class="node"><title>11</title>
<g id="a_node12"><a xlink:title="11, diversity: 1, multiplicities: 35, labels: 1,0">
<ellipse fill="#fca082" stroke="black" cx="121.196" cy="-18" rx="48.1917" ry="18"/>
<text text-anchor="middle" x="121.196" y="-14.3" font-family="Times,serif" font-size="14.00">11 (1): 1,0</text>
</a>
</g>
</g>
<!-- 10&#45;&gt;11 -->
<g id="edge10" class="edge"><title>10&#45;&gt;11</title>
<path fill="none" stroke="black" d="M121.196,-71.6966C121.196,-63.9827 121.196,-54.7125 121.196,-46.1124"/>
<polygon fill="black" stroke="black" points="124.696,-46.1043 121.196,-36.1043 117.696,-46.1044 124.696,-46.1043"/>
</g>
<!-- 12&#45;&gt;10 -->
<g id="edge11" class="edge"><title>12&#45;&gt;10</title>
<path fill="none" stroke="black" d="M121.196,-143.697C121.196,-135.983 121.196,-126.712 121.196,-118.112"/>
<polygon fill="black" stroke="black" points="124.696,-118.104 121.196,-108.104 117.696,-118.104 124.696,-118.104"/>
</g>
<!-- 14 -->
<g id="node15" class="node"><title>14</title>
<g id="a_node15"><a xlink:title="14, diversity: 1, multiplicities: 7, labels: 1,0">
<ellipse fill="#fcc4ad" stroke="black" cx="463.196" cy="-162" rx="48.1917" ry="18"/>
<text text-anchor="middle" x="463.196" y="-158.3" font-family="Times,serif" font-size="14.00">14 (1): 1,0</text>
</a>
</g>
</g>
<!-- 15&#45;&gt;14 -->
<g id="edge15" class="edge"><title>15&#45;&gt;14</title>
<path fill="none" stroke="black" d="M454.915,-215.697C456.127,-207.983 457.584,-198.712 458.936,-190.112"/>
<polygon fill="black" stroke="black" points="462.413,-190.526 460.508,-180.104 455.498,-189.44 462.413,-190.526"/>
</g>
</g>
</svg>
