<?xml version="1.0" encoding="UTF-8" standalone="no"?>
<!DOCTYPE svg PUBLIC "-//W3C//DTD SVG 1.1//EN"
 "http://www.w3.org/Graphics/SVG/1.1/DTD/svg11.dtd">
<!-- Generated by graphviz version 2.38.0 (20140413.2041)
 -->
<!-- Title: %3 Pages: 1 -->
<svg width="326pt" height="620pt"
 viewBox="0.00 0.00 326.00 620.00" xmlns="http://www.w3.org/2000/svg" xmlns:xlink="http://www.w3.org/1999/xlink">
<g id="graph0" class="graph" transform="scale(1 1) rotate(0) translate(4 616)">
<title>%3</title>
<polygon fill="white" stroke="none" points="-4,4 -4,-616 322,-616 322,4 -4,4"/>
<!-- p0 -->
<g id="node1" class="node"><title>p0</title>
<path fill="none" stroke="black" d="M54,-180C54,-180 12,-180 12,-180 6,-180 0,-174 0,-168 0,-168 0,-156 0,-156 0,-150 6,-144 12,-144 12,-144 54,-144 54,-144 60,-144 66,-150 66,-156 66,-156 66,-168 66,-168 66,-174 60,-180 54,-180"/>
<text text-anchor="middle" x="33" y="-158.3" font-family="Times,serif" font-size="14.00">path (20)</text>
</g>
<!-- v1 -->
<g id="node2" class="node"><title>v1</title>
<ellipse fill="none" stroke="black" cx="39" cy="-234" rx="27" ry="18"/>
<text text-anchor="middle" x="39" y="-230.3" font-family="Times,serif" font-size="14.00">1</text>
</g>
<!-- v4 -->
<g id="node3" class="node"><title>v4</title>
<ellipse fill="none" stroke="black" cx="255" cy="-90" rx="27" ry="18"/>
<text text-anchor="middle" x="255" y="-86.3" font-family="Times,serif" font-size="14.00">4</text>
</g>
<!-- v9 -->
<g id="node7" class="node"><title>v9</title>
<ellipse fill="none" stroke="black" cx="219" cy="-18" rx="27" ry="18"/>
<text text-anchor="middle" x="219" y="-14.3" font-family="Times,serif" font-size="14.00">9</text>
</g>
<!-- v4&#45;&gt;v9 -->
<g id="edge6" class="edge"><title>v4&#45;&gt;v9</title>
<path fill="none" stroke="black" d="M246.65,-72.7646C242.288,-64.2831 236.853,-53.7144 231.959,-44.1974"/>
<polygon fill="black" stroke="black" points="234.99,-42.4395 227.304,-35.1473 228.765,-45.6409 234.99,-42.4395"/>
</g>
<!-- v10 -->
<g id="node8" class="node"><title>v10</title>
<ellipse fill="none" stroke="black" cx="291" cy="-18" rx="27" ry="18"/>
<text text-anchor="middle" x="291" y="-14.3" font-family="Times,serif" font-size="14.00">10</text>
</g>
<!-- v4&#45;&gt;v10 -->
<g id="edge8" class="edge"><title>v4&#45;&gt;v10</title>
<path fill="none" stroke="black" d="M263.35,-72.7646C267.712,-64.2831 273.147,-53.7144 278.041,-44.1974"/>
<polygon fill="black" stroke="black" points="281.235,-45.6409 282.696,-35.1473 275.01,-42.4395 281.235,-45.6409"/>
</g>
<!-- p1 -->
<g id="node4" class="node"><title>p1</title>
<path fill="none" stroke="black" d="M128.5,-396C128.5,-396 93.5,-396 93.5,-396 87.5,-396 81.5,-390 81.5,-384 81.5,-384 81.5,-372 81.5,-372 81.5,-366 87.5,-360 93.5,-360 93.5,-360 128.5,-360 128.5,-360 134.5,-360 140.5,-366 140.5,-372 140.5,-372 140.5,-384 140.5,-384 140.5,-390 134.5,-396 128.5,-396"/>
<text text-anchor="middle" x="111" y="-374.3" font-family="Times,serif" font-size="14.00">path (4)</text>
</g>
<!-- v6 -->
<g id="node5" class="node"><title>v6</title>
<ellipse fill="none" stroke="black" cx="111" cy="-306" rx="27" ry="18"/>
<text text-anchor="middle" x="111" y="-302.3" font-family="Times,serif" font-size="14.00">6</text>
</g>
<!-- p1&#45;&gt;v6 -->
<g id="edge1" class="edge"><title>p1&#45;&gt;v6</title>
<path fill="none" stroke="black" d="M111,-359.697C111,-351.983 111,-342.712 111,-334.112"/>
<polygon fill="black" stroke="black" points="114.5,-334.104 111,-324.104 107.5,-334.104 114.5,-334.104"/>
</g>
<!-- v6&#45;&gt;v1 -->
<g id="edge14" class="edge"><title>v6&#45;&gt;v1</title>
<path fill="none" stroke="black" d="M96.4297,-290.834C86.2501,-280.938 72.4761,-267.546 60.9694,-256.359"/>
<polygon fill="black" stroke="black" points="63.4055,-253.846 53.7957,-249.385 58.5259,-258.865 63.4055,-253.846"/>
</g>
<!-- v8 -->
<g id="node6" class="node"><title>v8</title>
<ellipse fill="none" stroke="black" cx="111" cy="-234" rx="27" ry="18"/>
<text text-anchor="middle" x="111" y="-230.3" font-family="Times,serif" font-size="14.00">8</text>
</g>
<!-- v6&#45;&gt;v8 -->
<g id="edge13" class="edge"><title>v6&#45;&gt;v8</title>
<path fill="none" stroke="black" d="M111,-287.697C111,-279.983 111,-270.712 111,-262.112"/>
<polygon fill="black" stroke="black" points="114.5,-262.104 111,-252.104 107.5,-262.104 114.5,-262.104"/>
</g>
<!-- v17 -->
<g id="node11" class="node"><title>v17</title>
<ellipse fill="none" stroke="black" cx="183" cy="-234" rx="27" ry="18"/>
<text text-anchor="middle" x="183" y="-230.3" font-family="Times,serif" font-size="14.00">17</text>
</g>
<!-- v6&#45;&gt;v17 -->
<g id="edge3" class="edge"><title>v6&#45;&gt;v17</title>
<path fill="none" stroke="black" d="M125.57,-290.834C135.75,-280.938 149.524,-267.546 161.031,-256.359"/>
<polygon fill="black" stroke="black" points="163.474,-258.865 168.204,-249.385 158.595,-253.846 163.474,-258.865"/>
</g>
<!-- v8&#45;&gt;p0 -->
<g id="edge7" class="edge"><title>v8&#45;&gt;p0</title>
<path fill="none" stroke="black" d="M95.5897,-219.17C85.3193,-209.953 71.5527,-197.599 59.5458,-186.823"/>
<polygon fill="black" stroke="black" points="61.7442,-184.093 51.9641,-180.019 57.0688,-189.303 61.7442,-184.093"/>
</g>
<!-- v14 -->
<g id="node10" class="node"><title>v14</title>
<ellipse fill="none" stroke="black" cx="111" cy="-162" rx="27" ry="18"/>
<text text-anchor="middle" x="111" y="-158.3" font-family="Times,serif" font-size="14.00">14</text>
</g>
<!-- v8&#45;&gt;v14 -->
<g id="edge5" class="edge"><title>v8&#45;&gt;v14</title>
<path fill="none" stroke="black" d="M111,-215.697C111,-207.983 111,-198.712 111,-190.112"/>
<polygon fill="black" stroke="black" points="114.5,-190.104 111,-180.104 107.5,-190.104 114.5,-190.104"/>
</g>
<!-- v13 -->
<g id="node9" class="node"><title>v13</title>
<ellipse fill="none" stroke="black" cx="183" cy="-162" rx="27" ry="18"/>
<text text-anchor="middle" x="183" y="-158.3" font-family="Times,serif" font-size="14.00">13</text>
</g>
<!-- v17&#45;&gt;v13 -->
<g id="edge12" class="edge"><title>v17&#45;&gt;v13</title>
<path fill="none" stroke="black" d="M183,-215.697C183,-207.983 183,-198.712 183,-190.112"/>
<polygon fill="black" stroke="black" points="186.5,-190.104 183,-180.104 179.5,-190.104 186.5,-190.104"/>
</g>
<!-- v32 -->
<g id="node12" class="node"><title>v32</title>
<ellipse fill="none" stroke="black" cx="255" cy="-162" rx="27" ry="18"/>
<text text-anchor="middle" x="255" y="-158.3" font-family="Times,serif" font-size="14.00">32</text>
</g>
<!-- v17&#45;&gt;v32 -->
<g id="edge9" class="edge"><title>v17&#45;&gt;v32</title>
<path fill="none" stroke="black" d="M197.57,-218.834C207.75,-208.938 221.524,-195.546 233.031,-184.359"/>
<polygon fill="black" stroke="black" points="235.474,-186.865 240.204,-177.385 230.595,-181.846 235.474,-186.865"/>
</g>
<!-- v32&#45;&gt;v4 -->
<g id="edge11" class="edge"><title>v32&#45;&gt;v4</title>
<path fill="none" stroke="black" d="M255,-143.697C255,-135.983 255,-126.712 255,-118.112"/>
<polygon fill="black" stroke="black" points="258.5,-118.104 255,-108.104 251.5,-118.104 258.5,-118.104"/>
</g>
<!-- p2 -->
<g id="node13" class="node"><title>p2</title>
<path fill="none" stroke="black" d="M88.5,-540C88.5,-540 53.5,-540 53.5,-540 47.5,-540 41.5,-534 41.5,-528 41.5,-528 41.5,-516 41.5,-516 41.5,-510 47.5,-504 53.5,-504 53.5,-504 88.5,-504 88.5,-504 94.5,-504 100.5,-510 100.5,-516 100.5,-516 100.5,-528 100.5,-528 100.5,-534 94.5,-540 88.5,-540"/>
<text text-anchor="middle" x="71" y="-518.3" font-family="Times,serif" font-size="14.00">path (4)</text>
</g>
<!-- p3 -->
<g id="node14" class="node"><title>p3</title>
<path fill="none" stroke="black" d="M165.5,-540C165.5,-540 130.5,-540 130.5,-540 124.5,-540 118.5,-534 118.5,-528 118.5,-528 118.5,-516 118.5,-516 118.5,-510 124.5,-504 130.5,-504 130.5,-504 165.5,-504 165.5,-504 171.5,-504 177.5,-510 177.5,-516 177.5,-516 177.5,-528 177.5,-528 177.5,-534 171.5,-540 165.5,-540"/>
<text text-anchor="middle" x="148" y="-518.3" font-family="Times,serif" font-size="14.00">path (2)</text>
</g>
<!-- v41 -->
<g id="node17" class="node"><title>v41</title>
<ellipse fill="none" stroke="black" cx="148" cy="-450" rx="27" ry="18"/>
<text text-anchor="middle" x="148" y="-446.3" font-family="Times,serif" font-size="14.00">41</text>
</g>
<!-- p3&#45;&gt;v41 -->
<g id="edge16" class="edge"><title>p3&#45;&gt;v41</title>
<path fill="none" stroke="black" d="M148,-503.697C148,-495.983 148,-486.712 148,-478.112"/>
<polygon fill="black" stroke="black" points="151.5,-478.104 148,-468.104 144.5,-478.104 151.5,-478.104"/>
</g>
<!-- v38 -->
<g id="node15" class="node"><title>v38</title>
<ellipse fill="none" stroke="black" cx="109" cy="-594" rx="27" ry="18"/>
<text text-anchor="middle" x="109" y="-590.3" font-family="Times,serif" font-size="14.00">38</text>
</g>
<!-- v38&#45;&gt;p2 -->
<g id="edge4" class="edge"><title>v38&#45;&gt;p2</title>
<path fill="none" stroke="black" d="M100.187,-576.765C95.7138,-568.525 90.1719,-558.317 85.1228,-549.016"/>
<polygon fill="black" stroke="black" points="88.1428,-547.243 80.2958,-540.124 81.9908,-550.582 88.1428,-547.243"/>
</g>
<!-- v38&#45;&gt;p3 -->
<g id="edge15" class="edge"><title>v38&#45;&gt;p3</title>
<path fill="none" stroke="black" d="M118.045,-576.765C122.636,-568.525 128.324,-558.317 133.506,-549.016"/>
<polygon fill="black" stroke="black" points="136.65,-550.563 138.46,-540.124 130.535,-547.156 136.65,-550.563"/>
</g>
<!-- v40 -->
<g id="node16" class="node"><title>v40</title>
<ellipse fill="none" stroke="black" cx="186" cy="-378" rx="27" ry="18"/>
<text text-anchor="middle" x="186" y="-374.3" font-family="Times,serif" font-size="14.00">40</text>
</g>
<!-- v41&#45;&gt;p1 -->
<g id="edge10" class="edge"><title>v41&#45;&gt;p1</title>
<path fill="none" stroke="black" d="M139.418,-432.765C135.063,-424.525 129.667,-414.317 124.751,-405.016"/>
<polygon fill="black" stroke="black" points="127.819,-403.329 120.051,-396.124 121.63,-406.6 127.819,-403.329"/>
</g>
<!-- v41&#45;&gt;v40 -->
<g id="edge2" class="edge"><title>v41&#45;&gt;v40</title>
<path fill="none" stroke="black" d="M156.813,-432.765C161.418,-424.283 167.155,-413.714 172.321,-404.197"/>
<polygon fill="black" stroke="black" points="175.539,-405.606 177.234,-395.147 169.387,-402.266 175.539,-405.606"/>
</g>
</g>
</svg>
