<?xml version="1.0" encoding="UTF-8" standalone="no"?>
<!DOCTYPE svg PUBLIC "-//W3C//DTD SVG 1.1//EN"
 "http://www.w3.org/Graphics/SVG/1.1/DTD/svg11.dtd">
<!-- Generated by graphviz version 2.38.0 (20140413.2041)
 -->
<!-- Title: %3 Pages: 1 -->
<svg width="597pt" height="764pt"
 viewBox="0.00 0.00 596.50 764.00" xmlns="http://www.w3.org/2000/svg" xmlns:xlink="http://www.w3.org/1999/xlink">
<g id="graph0" class="graph" transform="scale(1 1) rotate(0) translate(4 760)">
<title>%3</title>
<polygon fill="white" stroke="none" points="-4,4 -4,-760 592.5,-760 592.5,4 -4,4"/>
<!-- v0 -->
<g id="node1" class="node"><title>v0</title>
<ellipse fill="none" stroke="black" cx="381.5" cy="-738" rx="27" ry="18"/>
<text text-anchor="middle" x="381.5" y="-734.3" font-family="Times,serif" font-size="14.00">0</text>
</g>
<!-- v10 -->
<g id="node10" class="node"><title>v10</title>
<ellipse fill="none" stroke="black" cx="381.5" cy="-666" rx="27" ry="18"/>
<text text-anchor="middle" x="381.5" y="-662.3" font-family="Times,serif" font-size="14.00">10</text>
</g>
<!-- v0&#45;&gt;v10 -->
<g id="edge5" class="edge"><title>v0&#45;&gt;v10</title>
<path fill="none" stroke="black" d="M381.5,-719.697C381.5,-711.983 381.5,-702.712 381.5,-694.112"/>
<polygon fill="black" stroke="black" points="385,-694.104 381.5,-684.104 378,-694.104 385,-694.104"/>
</g>
<!-- p0 -->
<g id="node2" class="node"><title>p0</title>
<path fill="none" stroke="black" d="M201,-324C201,-324 166,-324 166,-324 160,-324 154,-318 154,-312 154,-312 154,-300 154,-300 154,-294 160,-288 166,-288 166,-288 201,-288 201,-288 207,-288 213,-294 213,-300 213,-300 213,-312 213,-312 213,-318 207,-324 201,-324"/>
<text text-anchor="middle" x="183.5" y="-302.3" font-family="Times,serif" font-size="14.00">path (2)</text>
</g>
<!-- v2 -->
<g id="node3" class="node"><title>v2</title>
<ellipse fill="none" stroke="black" cx="382.5" cy="-162" rx="27" ry="18"/>
<text text-anchor="middle" x="382.5" y="-158.3" font-family="Times,serif" font-size="14.00">2</text>
</g>
<!-- v7 -->
<g id="node7" class="node"><title>v7</title>
<ellipse fill="none" stroke="black" cx="275.5" cy="-90" rx="27" ry="18"/>
<text text-anchor="middle" x="275.5" y="-86.3" font-family="Times,serif" font-size="14.00">7</text>
</g>
<!-- v2&#45;&gt;v7 -->
<g id="edge22" class="edge"><title>v2&#45;&gt;v7</title>
<path fill="none" stroke="black" d="M363.862,-148.807C347.011,-137.783 321.988,-121.413 302.868,-108.904"/>
<polygon fill="black" stroke="black" points="304.568,-105.834 294.283,-103.288 300.736,-111.692 304.568,-105.834"/>
</g>
<!-- v17 -->
<g id="node16" class="node"><title>v17</title>
<ellipse fill="none" stroke="black" cx="347.5" cy="-90" rx="27" ry="18"/>
<text text-anchor="middle" x="347.5" y="-86.3" font-family="Times,serif" font-size="14.00">17</text>
</g>
<!-- v2&#45;&gt;v17 -->
<g id="edge21" class="edge"><title>v2&#45;&gt;v17</title>
<path fill="none" stroke="black" d="M374.382,-144.765C370.202,-136.404 365.008,-126.016 360.303,-116.606"/>
<polygon fill="black" stroke="black" points="363.419,-115.012 355.817,-107.633 357.158,-118.143 363.419,-115.012"/>
</g>
<!-- v21 -->
<g id="node18" class="node"><title>v21</title>
<ellipse fill="none" stroke="black" cx="419.5" cy="-90" rx="27" ry="18"/>
<text text-anchor="middle" x="419.5" y="-86.3" font-family="Times,serif" font-size="14.00">21</text>
</g>
<!-- v2&#45;&gt;v21 -->
<g id="edge25" class="edge"><title>v2&#45;&gt;v21</title>
<path fill="none" stroke="black" d="M391.082,-144.765C395.565,-136.283 401.151,-125.714 406.181,-116.197"/>
<polygon fill="black" stroke="black" points="409.386,-117.624 410.965,-107.147 403.198,-114.353 409.386,-117.624"/>
</g>
<!-- p1 -->
<g id="node4" class="node"><title>p1</title>
<path fill="none" stroke="black" d="M509,-180C509,-180 474,-180 474,-180 468,-180 462,-174 462,-168 462,-168 462,-156 462,-156 462,-150 468,-144 474,-144 474,-144 509,-144 509,-144 515,-144 521,-150 521,-156 521,-156 521,-168 521,-168 521,-174 515,-180 509,-180"/>
<text text-anchor="middle" x="491.5" y="-158.3" font-family="Times,serif" font-size="14.00">path (3)</text>
</g>
<!-- v34 -->
<g id="node28" class="node"><title>v34</title>
<ellipse fill="none" stroke="black" cx="491.5" cy="-90" rx="27" ry="18"/>
<text text-anchor="middle" x="491.5" y="-86.3" font-family="Times,serif" font-size="14.00">34</text>
</g>
<!-- p1&#45;&gt;v34 -->
<g id="edge10" class="edge"><title>p1&#45;&gt;v34</title>
<path fill="none" stroke="black" d="M491.5,-143.697C491.5,-135.983 491.5,-126.712 491.5,-118.112"/>
<polygon fill="black" stroke="black" points="495,-118.104 491.5,-108.104 488,-118.104 495,-118.104"/>
</g>
<!-- p2 -->
<g id="node5" class="node"><title>p2</title>
<path fill="none" stroke="black" d="M87,-180C87,-180 52,-180 52,-180 46,-180 40,-174 40,-168 40,-168 40,-156 40,-156 40,-150 46,-144 52,-144 52,-144 87,-144 87,-144 93,-144 99,-150 99,-156 99,-156 99,-168 99,-168 99,-174 93,-180 87,-180"/>
<text text-anchor="middle" x="69.5" y="-158.3" font-family="Times,serif" font-size="14.00">path (3)</text>
</g>
<!-- v6 -->
<g id="node6" class="node"><title>v6</title>
<ellipse fill="none" stroke="black" cx="106.5" cy="-378" rx="27" ry="18"/>
<text text-anchor="middle" x="106.5" y="-374.3" font-family="Times,serif" font-size="14.00">6</text>
</g>
<!-- p3 -->
<g id="node8" class="node"><title>p3</title>
<path fill="none" stroke="black" d="M47,-324C47,-324 12,-324 12,-324 6,-324 0,-318 0,-312 0,-312 0,-300 0,-300 0,-294 6,-288 12,-288 12,-288 47,-288 47,-288 53,-288 59,-294 59,-300 59,-300 59,-312 59,-312 59,-318 53,-324 47,-324"/>
<text text-anchor="middle" x="29.5" y="-302.3" font-family="Times,serif" font-size="14.00">path (4)</text>
</g>
<!-- v6&#45;&gt;p3 -->
<g id="edge15" class="edge"><title>v6&#45;&gt;p3</title>
<path fill="none" stroke="black" d="M90.9179,-362.834C80.9205,-353.746 67.6815,-341.71 56.0555,-331.141"/>
<polygon fill="black" stroke="black" points="58.0778,-328.25 48.324,-324.113 53.3691,-333.429 58.0778,-328.25"/>
</g>
<!-- p5 -->
<g id="node12" class="node"><title>p5</title>
<path fill="none" stroke="black" d="M124,-324C124,-324 89,-324 89,-324 83,-324 77,-318 77,-312 77,-312 77,-300 77,-300 77,-294 83,-288 89,-288 89,-288 124,-288 124,-288 130,-288 136,-294 136,-300 136,-300 136,-312 136,-312 136,-318 130,-324 124,-324"/>
<text text-anchor="middle" x="106.5" y="-302.3" font-family="Times,serif" font-size="14.00">path (2)</text>
</g>
<!-- v6&#45;&gt;p5 -->
<g id="edge33" class="edge"><title>v6&#45;&gt;p5</title>
<path fill="none" stroke="black" d="M106.5,-359.697C106.5,-351.983 106.5,-342.712 106.5,-334.112"/>
<polygon fill="black" stroke="black" points="110,-334.104 106.5,-324.104 103,-334.104 110,-334.104"/>
</g>
<!-- v9 -->
<g id="node9" class="node"><title>v9</title>
<ellipse fill="none" stroke="black" cx="264.5" cy="-234" rx="27" ry="18"/>
<text text-anchor="middle" x="264.5" y="-230.3" font-family="Times,serif" font-size="14.00">9</text>
</g>
<!-- v24 -->
<g id="node20" class="node"><title>v24</title>
<ellipse fill="none" stroke="black" cx="264.5" cy="-162" rx="27" ry="18"/>
<text text-anchor="middle" x="264.5" y="-158.3" font-family="Times,serif" font-size="14.00">24</text>
</g>
<!-- v9&#45;&gt;v24 -->
<g id="edge14" class="edge"><title>v9&#45;&gt;v24</title>
<path fill="none" stroke="black" d="M258.66,-216.411C257.797,-208.507 257.548,-198.852 257.912,-189.935"/>
<polygon fill="black" stroke="black" points="261.403,-190.179 258.621,-179.956 254.421,-189.683 261.403,-190.179"/>
</g>
<!-- p9 -->
<g id="node25" class="node"><title>p9</title>
<path fill="none" stroke="black" d="M362,-612C362,-612 327,-612 327,-612 321,-612 315,-606 315,-600 315,-600 315,-588 315,-588 315,-582 321,-576 327,-576 327,-576 362,-576 362,-576 368,-576 374,-582 374,-588 374,-588 374,-600 374,-600 374,-606 368,-612 362,-612"/>
<text text-anchor="middle" x="344.5" y="-590.3" font-family="Times,serif" font-size="14.00">path (3)</text>
</g>
<!-- v10&#45;&gt;p9 -->
<g id="edge27" class="edge"><title>v10&#45;&gt;p9</title>
<path fill="none" stroke="black" d="M372.918,-648.765C368.563,-640.525 363.167,-630.317 358.251,-621.016"/>
<polygon fill="black" stroke="black" points="361.319,-619.329 353.551,-612.124 355.13,-622.6 361.319,-619.329"/>
</g>
<!-- v33 -->
<g id="node27" class="node"><title>v33</title>
<ellipse fill="none" stroke="black" cx="419.5" cy="-594" rx="27" ry="18"/>
<text text-anchor="middle" x="419.5" y="-590.3" font-family="Times,serif" font-size="14.00">33</text>
</g>
<!-- v10&#45;&gt;v33 -->
<g id="edge30" class="edge"><title>v10&#45;&gt;v33</title>
<path fill="none" stroke="black" d="M390.313,-648.765C394.918,-640.283 400.655,-629.714 405.821,-620.197"/>
<polygon fill="black" stroke="black" points="409.039,-621.606 410.734,-611.147 402.887,-618.266 409.039,-621.606"/>
</g>
<!-- p4 -->
<g id="node11" class="node"><title>p4</title>
<path fill="none" stroke="black" d="M440,-324C440,-324 405,-324 405,-324 399,-324 393,-318 393,-312 393,-312 393,-300 393,-300 393,-294 399,-288 405,-288 405,-288 440,-288 440,-288 446,-288 452,-294 452,-300 452,-300 452,-312 452,-312 452,-318 446,-324 440,-324"/>
<text text-anchor="middle" x="422.5" y="-302.3" font-family="Times,serif" font-size="14.00">path (2)</text>
</g>
<!-- v53 -->
<g id="node32" class="node"><title>v53</title>
<ellipse fill="none" stroke="black" cx="106.5" cy="-234" rx="27" ry="18"/>
<text text-anchor="middle" x="106.5" y="-230.3" font-family="Times,serif" font-size="14.00">53</text>
</g>
<!-- p5&#45;&gt;v53 -->
<g id="edge16" class="edge"><title>p5&#45;&gt;v53</title>
<path fill="none" stroke="black" d="M106.5,-287.697C106.5,-279.983 106.5,-270.712 106.5,-262.112"/>
<polygon fill="black" stroke="black" points="110,-262.104 106.5,-252.104 103,-262.104 110,-262.104"/>
</g>
<!-- v13 -->
<g id="node13" class="node"><title>v13</title>
<ellipse fill="none" stroke="black" cx="305.5" cy="-450" rx="27" ry="18"/>
<text text-anchor="middle" x="305.5" y="-446.3" font-family="Times,serif" font-size="14.00">13</text>
</g>
<!-- v13&#45;&gt;v6 -->
<g id="edge18" class="edge"><title>v13&#45;&gt;v6</title>
<path fill="none" stroke="black" d="M281.891,-440.695C246.489,-428.242 179.529,-404.689 139.368,-390.562"/>
<polygon fill="black" stroke="black" points="140.366,-387.202 129.771,-387.186 138.043,-393.806 140.366,-387.202"/>
</g>
<!-- p8 -->
<g id="node23" class="node"><title>p8</title>
<path fill="none" stroke="black" d="M248,-396C248,-396 213,-396 213,-396 207,-396 201,-390 201,-384 201,-384 201,-372 201,-372 201,-366 207,-360 213,-360 213,-360 248,-360 248,-360 254,-360 260,-366 260,-372 260,-372 260,-384 260,-384 260,-390 254,-396 248,-396"/>
<text text-anchor="middle" x="230.5" y="-374.3" font-family="Times,serif" font-size="14.00">path (2)</text>
</g>
<!-- v13&#45;&gt;p8 -->
<g id="edge12" class="edge"><title>v13&#45;&gt;p8</title>
<path fill="none" stroke="black" d="M290.323,-434.834C280.585,-425.746 267.69,-413.71 256.366,-403.141"/>
<polygon fill="black" stroke="black" points="258.534,-400.377 248.835,-396.113 253.758,-405.495 258.534,-400.377"/>
</g>
<!-- v30 -->
<g id="node24" class="node"><title>v30</title>
<ellipse fill="none" stroke="black" cx="305.5" cy="-378" rx="27" ry="18"/>
<text text-anchor="middle" x="305.5" y="-374.3" font-family="Times,serif" font-size="14.00">30</text>
</g>
<!-- v13&#45;&gt;v30 -->
<g id="edge6" class="edge"><title>v13&#45;&gt;v30</title>
<path fill="none" stroke="black" d="M305.5,-431.697C305.5,-423.983 305.5,-414.712 305.5,-406.112"/>
<polygon fill="black" stroke="black" points="309,-406.104 305.5,-396.104 302,-406.104 309,-406.104"/>
</g>
<!-- v57 -->
<g id="node33" class="node"><title>v57</title>
<ellipse fill="none" stroke="black" cx="422.5" cy="-378" rx="27" ry="18"/>
<text text-anchor="middle" x="422.5" y="-374.3" font-family="Times,serif" font-size="14.00">57</text>
</g>
<!-- v13&#45;&gt;v57 -->
<g id="edge17" class="edge"><title>v13&#45;&gt;v57</title>
<path fill="none" stroke="black" d="M325.083,-437.284C343.981,-425.977 372.795,-408.738 394.189,-395.938"/>
<polygon fill="black" stroke="black" points="396.069,-398.892 402.853,-390.755 392.475,-392.885 396.069,-398.892"/>
</g>
<!-- v14 -->
<g id="node14" class="node"><title>v14</title>
<ellipse fill="none" stroke="black" cx="419.5" cy="-450" rx="27" ry="18"/>
<text text-anchor="middle" x="419.5" y="-446.3" font-family="Times,serif" font-size="14.00">14</text>
</g>
<!-- p6 -->
<g id="node15" class="node"><title>p6</title>
<path fill="none" stroke="black" d="M285.5,-324C285.5,-324 243.5,-324 243.5,-324 237.5,-324 231.5,-318 231.5,-312 231.5,-312 231.5,-300 231.5,-300 231.5,-294 237.5,-288 243.5,-288 243.5,-288 285.5,-288 285.5,-288 291.5,-288 297.5,-294 297.5,-300 297.5,-300 297.5,-312 297.5,-312 297.5,-318 291.5,-324 285.5,-324"/>
<text text-anchor="middle" x="264.5" y="-302.3" font-family="Times,serif" font-size="14.00">path (10)</text>
</g>
<!-- p6&#45;&gt;v9 -->
<g id="edge4" class="edge"><title>p6&#45;&gt;v9</title>
<path fill="none" stroke="black" d="M264.5,-287.697C264.5,-279.983 264.5,-270.712 264.5,-262.112"/>
<polygon fill="black" stroke="black" points="268,-262.104 264.5,-252.104 261,-262.104 268,-262.104"/>
</g>
<!-- v20 -->
<g id="node17" class="node"><title>v20</title>
<ellipse fill="none" stroke="black" cx="491.5" cy="-234" rx="27" ry="18"/>
<text text-anchor="middle" x="491.5" y="-230.3" font-family="Times,serif" font-size="14.00">20</text>
</g>
<!-- v20&#45;&gt;v2 -->
<g id="edge24" class="edge"><title>v20&#45;&gt;v2</title>
<path fill="none" stroke="black" d="M472.514,-220.807C455.165,-209.665 429.311,-193.062 409.757,-180.504"/>
<polygon fill="black" stroke="black" points="411.574,-177.512 401.269,-175.053 407.792,-183.402 411.574,-177.512"/>
</g>
<!-- v20&#45;&gt;p1 -->
<g id="edge11" class="edge"><title>v20&#45;&gt;p1</title>
<path fill="none" stroke="black" d="M491.5,-215.697C491.5,-207.983 491.5,-198.712 491.5,-190.112"/>
<polygon fill="black" stroke="black" points="495,-190.104 491.5,-180.104 488,-190.104 495,-190.104"/>
</g>
<!-- v23 -->
<g id="node19" class="node"><title>v23</title>
<ellipse fill="none" stroke="black" cx="144.5" cy="-162" rx="27" ry="18"/>
<text text-anchor="middle" x="144.5" y="-158.3" font-family="Times,serif" font-size="14.00">23</text>
</g>
<!-- v24&#45;&gt;v9 -->
<g id="edge9" class="edge"><title>v24&#45;&gt;v9</title>
<path fill="none" stroke="black" d="M270.379,-179.956C271.214,-187.827 271.448,-197.374 271.083,-206.187"/>
<polygon fill="black" stroke="black" points="267.574,-206.184 270.34,-216.411 274.556,-206.691 267.574,-206.184"/>
</g>
<!-- p7 -->
<g id="node21" class="node"><title>p7</title>
<path fill="none" stroke="black" d="M427,-36C427,-36 392,-36 392,-36 386,-36 380,-30 380,-24 380,-24 380,-12 380,-12 380,-6 386,-0 392,-0 392,-0 427,-0 427,-0 433,-0 439,-6 439,-12 439,-12 439,-24 439,-24 439,-30 433,-36 427,-36"/>
<text text-anchor="middle" x="409.5" y="-14.3" font-family="Times,serif" font-size="14.00">path (2)</text>
</g>
<!-- v28 -->
<g id="node22" class="node"><title>v28</title>
<ellipse fill="none" stroke="black" cx="419.5" cy="-522" rx="27" ry="18"/>
<text text-anchor="middle" x="419.5" y="-518.3" font-family="Times,serif" font-size="14.00">28</text>
</g>
<!-- v28&#45;&gt;v13 -->
<g id="edge13" class="edge"><title>v28&#45;&gt;v13</title>
<path fill="none" stroke="black" d="M400.161,-509.125C381.901,-497.913 354.305,-480.968 333.613,-468.263"/>
<polygon fill="black" stroke="black" points="335.287,-465.183 324.933,-462.933 331.624,-471.148 335.287,-465.183"/>
</g>
<!-- v28&#45;&gt;v14 -->
<g id="edge34" class="edge"><title>v28&#45;&gt;v14</title>
<path fill="none" stroke="black" d="M419.5,-503.697C419.5,-495.983 419.5,-486.712 419.5,-478.112"/>
<polygon fill="black" stroke="black" points="423,-478.104 419.5,-468.104 416,-478.104 423,-478.104"/>
</g>
<!-- v30&#45;&gt;p0 -->
<g id="edge1" class="edge"><title>v30&#45;&gt;p0</title>
<path fill="none" stroke="black" d="M285.627,-365.597C268.494,-355.767 243.258,-341.288 222.16,-329.182"/>
<polygon fill="black" stroke="black" points="223.822,-326.101 213.407,-324.16 220.339,-332.172 223.822,-326.101"/>
</g>
<!-- v30&#45;&gt;p6 -->
<g id="edge7" class="edge"><title>v30&#45;&gt;p6</title>
<path fill="none" stroke="black" d="M295.991,-360.765C291.165,-352.525 285.185,-342.317 279.738,-333.016"/>
<polygon fill="black" stroke="black" points="282.604,-330.984 274.53,-324.124 276.564,-334.522 282.604,-330.984"/>
</g>
<!-- p10 -->
<g id="node26" class="node"><title>p10</title>
<path fill="none" stroke="black" d="M363,-324C363,-324 328,-324 328,-324 322,-324 316,-318 316,-312 316,-312 316,-300 316,-300 316,-294 322,-288 328,-288 328,-288 363,-288 363,-288 369,-288 375,-294 375,-300 375,-300 375,-312 375,-312 375,-318 369,-324 363,-324"/>
<text text-anchor="middle" x="345.5" y="-302.3" font-family="Times,serif" font-size="14.00">path (2)</text>
</g>
<!-- v30&#45;&gt;p10 -->
<g id="edge8" class="edge"><title>v30&#45;&gt;p10</title>
<path fill="none" stroke="black" d="M314.777,-360.765C319.485,-352.525 325.319,-342.317 330.634,-333.016"/>
<polygon fill="black" stroke="black" points="333.792,-334.543 335.715,-324.124 327.715,-331.07 333.792,-334.543"/>
</g>
<!-- v33&#45;&gt;v28 -->
<g id="edge20" class="edge"><title>v33&#45;&gt;v28</title>
<path fill="none" stroke="black" d="M419.5,-575.697C419.5,-567.983 419.5,-558.712 419.5,-550.112"/>
<polygon fill="black" stroke="black" points="423,-550.104 419.5,-540.104 416,-550.104 423,-550.104"/>
</g>
<!-- v34&#45;&gt;p7 -->
<g id="edge2" class="edge"><title>v34&#45;&gt;p7</title>
<path fill="none" stroke="black" d="M475.299,-75.1703C464.4,-65.8654 449.754,-53.363 437.047,-42.5157"/>
<polygon fill="black" stroke="black" points="439.315,-39.8497 429.437,-36.019 434.77,-45.1737 439.315,-39.8497"/>
</g>
<!-- p11 -->
<g id="node29" class="node"><title>p11</title>
<path fill="none" stroke="black" d="M504,-36C504,-36 469,-36 469,-36 463,-36 457,-30 457,-24 457,-24 457,-12 457,-12 457,-6 463,-0 469,-0 469,-0 504,-0 504,-0 510,-0 516,-6 516,-12 516,-12 516,-24 516,-24 516,-30 510,-36 504,-36"/>
<text text-anchor="middle" x="486.5" y="-14.3" font-family="Times,serif" font-size="14.00">path (2)</text>
</g>
<!-- v34&#45;&gt;p11 -->
<g id="edge29" class="edge"><title>v34&#45;&gt;p11</title>
<path fill="none" stroke="black" d="M490.264,-71.6966C489.713,-63.9827 489.051,-54.7125 488.437,-46.1124"/>
<polygon fill="black" stroke="black" points="491.925,-45.8295 487.722,-36.1043 484.943,-46.3283 491.925,-45.8295"/>
</g>
<!-- v42 -->
<g id="node30" class="node"><title>v42</title>
<ellipse fill="none" stroke="black" cx="561.5" cy="-18" rx="27" ry="18"/>
<text text-anchor="middle" x="561.5" y="-14.3" font-family="Times,serif" font-size="14.00">42</text>
</g>
<!-- v34&#45;&gt;v42 -->
<g id="edge3" class="edge"><title>v34&#45;&gt;v42</title>
<path fill="none" stroke="black" d="M506.004,-74.496C515.765,-64.7348 528.81,-51.6897 539.8,-40.6999"/>
<polygon fill="black" stroke="black" points="542.418,-43.0314 547.015,-33.4855 537.469,-38.0817 542.418,-43.0314"/>
</g>
<!-- v42&#45;&gt;v28 -->
<g id="edge28" class="edge"><title>v42&#45;&gt;v28</title>
<path fill="none" stroke="black" d="M560.71,-36.0449C559.544,-62.6982 557.5,-115.868 557.5,-161 557.5,-379 557.5,-379 557.5,-379 557.5,-440.074 491.036,-484.769 450.359,-506.404"/>
<polygon fill="black" stroke="black" points="448.653,-503.345 441.367,-511.037 451.859,-509.568 448.653,-503.345"/>
</g>
<!-- p12 -->
<g id="node31" class="node"><title>p12</title>
<path fill="none" stroke="black" d="M517,-324C517,-324 482,-324 482,-324 476,-324 470,-318 470,-312 470,-312 470,-300 470,-300 470,-294 476,-288 482,-288 482,-288 517,-288 517,-288 523,-288 529,-294 529,-300 529,-300 529,-312 529,-312 529,-318 523,-324 517,-324"/>
<text text-anchor="middle" x="499.5" y="-302.3" font-family="Times,serif" font-size="14.00">path (2)</text>
</g>
<!-- p12&#45;&gt;v20 -->
<g id="edge32" class="edge"><title>p12&#45;&gt;v20</title>
<path fill="none" stroke="black" d="M497.522,-287.697C496.641,-279.983 495.581,-270.712 494.599,-262.112"/>
<polygon fill="black" stroke="black" points="498.068,-261.642 493.455,-252.104 491.113,-262.437 498.068,-261.642"/>
</g>
<!-- v53&#45;&gt;p2 -->
<g id="edge19" class="edge"><title>v53&#45;&gt;p2</title>
<path fill="none" stroke="black" d="M97.9185,-216.765C93.5635,-208.525 88.1674,-198.317 83.2511,-189.016"/>
<polygon fill="black" stroke="black" points="86.3187,-187.329 78.5512,-180.124 80.13,-190.6 86.3187,-187.329"/>
</g>
<!-- v53&#45;&gt;v23 -->
<g id="edge26" class="edge"><title>v53&#45;&gt;v23</title>
<path fill="none" stroke="black" d="M115.313,-216.765C119.918,-208.283 125.655,-197.714 130.821,-188.197"/>
<polygon fill="black" stroke="black" points="134.039,-189.606 135.734,-179.147 127.887,-186.266 134.039,-189.606"/>
</g>
<!-- v57&#45;&gt;p4 -->
<g id="edge23" class="edge"><title>v57&#45;&gt;p4</title>
<path fill="none" stroke="black" d="M422.5,-359.697C422.5,-351.983 422.5,-342.712 422.5,-334.112"/>
<polygon fill="black" stroke="black" points="426,-334.104 422.5,-324.104 419,-334.104 426,-334.104"/>
</g>
<!-- v57&#45;&gt;p12 -->
<g id="edge31" class="edge"><title>v57&#45;&gt;p12</title>
<path fill="none" stroke="black" d="M438.082,-362.834C448.079,-353.746 461.318,-341.71 472.945,-331.141"/>
<polygon fill="black" stroke="black" points="475.631,-333.429 480.676,-324.113 470.922,-328.25 475.631,-333.429"/>
</g>
</g>
</svg>
