<?xml version="1.0" encoding="UTF-8" standalone="no"?>
<!DOCTYPE svg PUBLIC "-//W3C//DTD SVG 1.1//EN"
 "http://www.w3.org/Graphics/SVG/1.1/DTD/svg11.dtd">
<!-- Generated by graphviz version 2.38.0 (20140413.2041)
 -->
<!-- Title: %3 Pages: 1 -->
<svg width="484pt" height="404pt"
 viewBox="0.00 0.00 483.50 404.00" xmlns="http://www.w3.org/2000/svg" xmlns:xlink="http://www.w3.org/1999/xlink">
<g id="graph0" class="graph" transform="scale(1 1) rotate(0) translate(4 400)">
<title>%3</title>
<polygon fill="white" stroke="none" points="-4,4 -4,-400 479.5,-400 479.5,4 -4,4"/>
<!-- v0 -->
<g id="node1" class="node"><title>v0</title>
<ellipse fill="none" stroke="black" cx="74.5" cy="-306" rx="27" ry="18"/>
<text text-anchor="middle" x="74.5" y="-302.3" font-family="Times,serif" font-size="14.00">0</text>
</g>
<!-- p0 -->
<g id="node2" class="node"><title>p0</title>
<path fill="none" stroke="black" d="M47,-252C47,-252 12,-252 12,-252 6,-252 0,-246 0,-240 0,-240 0,-228 0,-228 0,-222 6,-216 12,-216 12,-216 47,-216 47,-216 53,-216 59,-222 59,-228 59,-228 59,-240 59,-240 59,-246 53,-252 47,-252"/>
<text text-anchor="middle" x="29.5" y="-230.3" font-family="Times,serif" font-size="14.00">path (2)</text>
</g>
<!-- v0&#45;&gt;p0 -->
<g id="edge10" class="edge"><title>v0&#45;&gt;p0</title>
<path fill="none" stroke="black" d="M64.2888,-289.116C58.9437,-280.801 52.2639,-270.41 46.1903,-260.963"/>
<polygon fill="black" stroke="black" points="48.9681,-258.811 40.6164,-252.292 43.0799,-262.597 48.9681,-258.811"/>
</g>
<!-- p1 -->
<g id="node3" class="node"><title>p1</title>
<path fill="none" stroke="black" d="M131.5,-252C131.5,-252 89.5,-252 89.5,-252 83.5,-252 77.5,-246 77.5,-240 77.5,-240 77.5,-228 77.5,-228 77.5,-222 83.5,-216 89.5,-216 89.5,-216 131.5,-216 131.5,-216 137.5,-216 143.5,-222 143.5,-228 143.5,-228 143.5,-240 143.5,-240 143.5,-246 137.5,-252 131.5,-252"/>
<text text-anchor="middle" x="110.5" y="-230.3" font-family="Times,serif" font-size="14.00">path (18)</text>
</g>
<!-- v0&#45;&gt;p1 -->
<g id="edge1" class="edge"><title>v0&#45;&gt;p1</title>
<path fill="none" stroke="black" d="M82.8496,-288.765C87.0428,-280.611 92.2279,-270.529 96.9709,-261.307"/>
<polygon fill="black" stroke="black" points="100.232,-262.618 101.693,-252.124 94.0074,-259.416 100.232,-262.618"/>
</g>
<!-- p2 -->
<g id="node4" class="node"><title>p2</title>
<path fill="none" stroke="black" d="M167,-324C167,-324 132,-324 132,-324 126,-324 120,-318 120,-312 120,-312 120,-300 120,-300 120,-294 126,-288 132,-288 132,-288 167,-288 167,-288 173,-288 179,-294 179,-300 179,-300 179,-312 179,-312 179,-318 173,-324 167,-324"/>
<text text-anchor="middle" x="149.5" y="-302.3" font-family="Times,serif" font-size="14.00">path (2)</text>
</g>
<!-- v5 -->
<g id="node5" class="node"><title>v5</title>
<ellipse fill="none" stroke="black" cx="224.5" cy="-306" rx="27" ry="18"/>
<text text-anchor="middle" x="224.5" y="-302.3" font-family="Times,serif" font-size="14.00">5</text>
</g>
<!-- v20 -->
<g id="node9" class="node"><title>v20</title>
<ellipse fill="none" stroke="black" cx="224.5" cy="-234" rx="27" ry="18"/>
<text text-anchor="middle" x="224.5" y="-230.3" font-family="Times,serif" font-size="14.00">20</text>
</g>
<!-- v5&#45;&gt;v20 -->
<g id="edge12" class="edge"><title>v5&#45;&gt;v20</title>
<path fill="none" stroke="black" d="M224.5,-287.697C224.5,-279.983 224.5,-270.712 224.5,-262.112"/>
<polygon fill="black" stroke="black" points="228,-262.104 224.5,-252.104 221,-262.104 228,-262.104"/>
</g>
<!-- p3 -->
<g id="node6" class="node"><title>p3</title>
<path fill="none" stroke="black" d="M279,-108C279,-108 244,-108 244,-108 238,-108 232,-102 232,-96 232,-96 232,-84 232,-84 232,-78 238,-72 244,-72 244,-72 279,-72 279,-72 285,-72 291,-78 291,-84 291,-84 291,-96 291,-96 291,-102 285,-108 279,-108"/>
<text text-anchor="middle" x="261.5" y="-86.3" font-family="Times,serif" font-size="14.00">path (2)</text>
</g>
<!-- p4 -->
<g id="node7" class="node"><title>p4</title>
<path fill="none" stroke="black" d="M165,-180C165,-180 130,-180 130,-180 124,-180 118,-174 118,-168 118,-168 118,-156 118,-156 118,-150 124,-144 130,-144 130,-144 165,-144 165,-144 171,-144 177,-150 177,-156 177,-156 177,-168 177,-168 177,-174 171,-180 165,-180"/>
<text text-anchor="middle" x="147.5" y="-158.3" font-family="Times,serif" font-size="14.00">path (2)</text>
</g>
<!-- p5 -->
<g id="node8" class="node"><title>p5</title>
<path fill="none" stroke="black" d="M242,-180C242,-180 207,-180 207,-180 201,-180 195,-174 195,-168 195,-168 195,-156 195,-156 195,-150 201,-144 207,-144 207,-144 242,-144 242,-144 248,-144 254,-150 254,-156 254,-156 254,-168 254,-168 254,-174 248,-180 242,-180"/>
<text text-anchor="middle" x="224.5" y="-158.3" font-family="Times,serif" font-size="14.00">path (5)</text>
</g>
<!-- v20&#45;&gt;p4 -->
<g id="edge3" class="edge"><title>v20&#45;&gt;p4</title>
<path fill="none" stroke="black" d="M208.918,-218.834C198.921,-209.746 185.682,-197.71 174.055,-187.141"/>
<polygon fill="black" stroke="black" points="176.078,-184.25 166.324,-180.113 171.369,-189.429 176.078,-184.25"/>
</g>
<!-- v20&#45;&gt;p5 -->
<g id="edge13" class="edge"><title>v20&#45;&gt;p5</title>
<path fill="none" stroke="black" d="M224.5,-215.697C224.5,-207.983 224.5,-198.712 224.5,-190.112"/>
<polygon fill="black" stroke="black" points="228,-190.104 224.5,-180.104 221,-190.104 228,-190.104"/>
</g>
<!-- v33 -->
<g id="node14" class="node"><title>v33</title>
<ellipse fill="none" stroke="black" cx="299.5" cy="-162" rx="27" ry="18"/>
<text text-anchor="middle" x="299.5" y="-158.3" font-family="Times,serif" font-size="14.00">33</text>
</g>
<!-- v20&#45;&gt;v33 -->
<g id="edge11" class="edge"><title>v20&#45;&gt;v33</title>
<path fill="none" stroke="black" d="M239.677,-218.834C250.351,-208.872 264.819,-195.369 276.853,-184.137"/>
<polygon fill="black" stroke="black" points="279.423,-186.526 284.345,-177.144 274.646,-181.409 279.423,-186.526"/>
</g>
<!-- v22 -->
<g id="node10" class="node"><title>v22</title>
<ellipse fill="none" stroke="black" cx="149.5" cy="-378" rx="27" ry="18"/>
<text text-anchor="middle" x="149.5" y="-374.3" font-family="Times,serif" font-size="14.00">22</text>
</g>
<!-- v22&#45;&gt;v0 -->
<g id="edge9" class="edge"><title>v22&#45;&gt;v0</title>
<path fill="none" stroke="black" d="M134.323,-362.834C123.649,-352.872 109.181,-339.369 97.1469,-328.137"/>
<polygon fill="black" stroke="black" points="99.3535,-325.409 89.6548,-321.144 94.5773,-330.526 99.3535,-325.409"/>
</g>
<!-- v22&#45;&gt;p2 -->
<g id="edge6" class="edge"><title>v22&#45;&gt;p2</title>
<path fill="none" stroke="black" d="M149.5,-359.697C149.5,-351.983 149.5,-342.712 149.5,-334.112"/>
<polygon fill="black" stroke="black" points="153,-334.104 149.5,-324.104 146,-334.104 153,-334.104"/>
</g>
<!-- v22&#45;&gt;v5 -->
<g id="edge5" class="edge"><title>v22&#45;&gt;v5</title>
<path fill="none" stroke="black" d="M164.677,-362.834C175.351,-352.872 189.819,-339.369 201.853,-328.137"/>
<polygon fill="black" stroke="black" points="204.423,-330.526 209.345,-321.144 199.646,-325.409 204.423,-330.526"/>
</g>
<!-- v29 -->
<g id="node11" class="node"><title>v29</title>
<ellipse fill="none" stroke="black" cx="336.5" cy="-90" rx="27" ry="18"/>
<text text-anchor="middle" x="336.5" y="-86.3" font-family="Times,serif" font-size="14.00">29</text>
</g>
<!-- v30 -->
<g id="node12" class="node"><title>v30</title>
<ellipse fill="none" stroke="black" cx="226.5" cy="-18" rx="27" ry="18"/>
<text text-anchor="middle" x="226.5" y="-14.3" font-family="Times,serif" font-size="14.00">30</text>
</g>
<!-- v29&#45;&gt;v30 -->
<g id="edge7" class="edge"><title>v29&#45;&gt;v30</title>
<path fill="none" stroke="black" d="M317.339,-76.8069C299.831,-65.6653 273.741,-49.0622 254.007,-36.5043"/>
<polygon fill="black" stroke="black" points="255.757,-33.4693 245.441,-31.0533 251.999,-39.375 255.757,-33.4693"/>
</g>
<!-- v31 -->
<g id="node13" class="node"><title>v31</title>
<ellipse fill="none" stroke="black" cx="298.5" cy="-18" rx="27" ry="18"/>
<text text-anchor="middle" x="298.5" y="-14.3" font-family="Times,serif" font-size="14.00">31</text>
</g>
<!-- v29&#45;&gt;v31 -->
<g id="edge4" class="edge"><title>v29&#45;&gt;v31</title>
<path fill="none" stroke="black" d="M327.687,-72.7646C323.082,-64.2831 317.345,-53.7144 312.179,-44.1974"/>
<polygon fill="black" stroke="black" points="315.113,-42.266 307.266,-35.1473 308.961,-45.6057 315.113,-42.266"/>
</g>
<!-- p6 -->
<g id="node15" class="node"><title>p6</title>
<path fill="none" stroke="black" d="M391,-36C391,-36 356,-36 356,-36 350,-36 344,-30 344,-24 344,-24 344,-12 344,-12 344,-6 350,-0 356,-0 356,-0 391,-0 391,-0 397,-0 403,-6 403,-12 403,-12 403,-24 403,-24 403,-30 397,-36 391,-36"/>
<text text-anchor="middle" x="373.5" y="-14.3" font-family="Times,serif" font-size="14.00">path (2)</text>
</g>
<!-- v29&#45;&gt;p6 -->
<g id="edge14" class="edge"><title>v29&#45;&gt;p6</title>
<path fill="none" stroke="black" d="M345.082,-72.7646C349.437,-64.5255 354.833,-54.3166 359.749,-45.0157"/>
<polygon fill="black" stroke="black" points="362.87,-46.6005 364.449,-36.1239 356.681,-43.3293 362.87,-46.6005"/>
</g>
<!-- v35 -->
<g id="node16" class="node"><title>v35</title>
<ellipse fill="none" stroke="black" cx="448.5" cy="-18" rx="27" ry="18"/>
<text text-anchor="middle" x="448.5" y="-14.3" font-family="Times,serif" font-size="14.00">35</text>
</g>
<!-- v29&#45;&gt;v35 -->
<g id="edge2" class="edge"><title>v29&#45;&gt;v35</title>
<path fill="none" stroke="black" d="M355.499,-77.1255C373.44,-65.9126 400.551,-48.9681 420.88,-36.2626"/>
<polygon fill="black" stroke="black" points="422.783,-39.2008 429.408,-30.9328 419.073,-33.2648 422.783,-39.2008"/>
</g>
<!-- v33&#45;&gt;p3 -->
<g id="edge15" class="edge"><title>v33&#45;&gt;p3</title>
<path fill="none" stroke="black" d="M290.687,-144.765C286.214,-136.525 280.672,-126.317 275.623,-117.016"/>
<polygon fill="black" stroke="black" points="278.643,-115.243 270.796,-108.124 272.491,-118.582 278.643,-115.243"/>
</g>
<!-- v33&#45;&gt;v29 -->
<g id="edge8" class="edge"><title>v33&#45;&gt;v29</title>
<path fill="none" stroke="black" d="M308.082,-144.765C312.565,-136.283 318.151,-125.714 323.181,-116.197"/>
<polygon fill="black" stroke="black" points="326.386,-117.624 327.965,-107.147 320.198,-114.353 326.386,-117.624"/>
</g>
</g>
</svg>
