<?xml version="1.0" encoding="UTF-8" standalone="no"?>
<!DOCTYPE svg PUBLIC "-//W3C//DTD SVG 1.1//EN"
 "http://www.w3.org/Graphics/SVG/1.1/DTD/svg11.dtd">
<!-- Generated by graphviz version 2.38.0 (20140413.2041)
 -->
<!-- Title: %3 Pages: 1 -->
<svg width="511pt" height="332pt"
 viewBox="0.00 0.00 511.00 332.00" xmlns="http://www.w3.org/2000/svg" xmlns:xlink="http://www.w3.org/1999/xlink">
<g id="graph0" class="graph" transform="scale(1 1) rotate(0) translate(4 328)">
<title>%3</title>
<polygon fill="white" stroke="none" points="-4,4 -4,-328 507,-328 507,4 -4,4"/>
<!-- v0 -->
<g id="node1" class="node"><title>v0</title>
<ellipse fill="none" stroke="black" cx="290" cy="-162" rx="27" ry="18"/>
<text text-anchor="middle" x="290" y="-158.3" font-family="Times,serif" font-size="14.00">0</text>
</g>
<!-- v1 -->
<g id="node2" class="node"><title>v1</title>
<ellipse fill="none" stroke="black" cx="27" cy="-90" rx="27" ry="18"/>
<text text-anchor="middle" x="27" y="-86.3" font-family="Times,serif" font-size="14.00">1</text>
</g>
<!-- v0&#45;&gt;v1 -->
<g id="edge14" class="edge"><title>v0&#45;&gt;v1</title>
<path fill="none" stroke="black" d="M263.964,-156.775C221.234,-149.433 133.891,-132.701 63,-108 61.0909,-107.335 59.148,-106.6 57.2041,-105.819"/>
<polygon fill="black" stroke="black" points="58.1927,-102.433 47.6265,-101.654 55.4012,-108.852 58.1927,-102.433"/>
</g>
<!-- p0 -->
<g id="node3" class="node"><title>p0</title>
<path fill="none" stroke="black" d="M119.5,-108C119.5,-108 84.5,-108 84.5,-108 78.5,-108 72.5,-102 72.5,-96 72.5,-96 72.5,-84 72.5,-84 72.5,-78 78.5,-72 84.5,-72 84.5,-72 119.5,-72 119.5,-72 125.5,-72 131.5,-78 131.5,-84 131.5,-84 131.5,-96 131.5,-96 131.5,-102 125.5,-108 119.5,-108"/>
<text text-anchor="middle" x="102" y="-86.3" font-family="Times,serif" font-size="14.00">path (2)</text>
</g>
<!-- v0&#45;&gt;p0 -->
<g id="edge11" class="edge"><title>v0&#45;&gt;p0</title>
<path fill="none" stroke="black" d="M266.137,-153.234C238.16,-143.985 190.245,-127.704 141.254,-108.369"/>
<polygon fill="black" stroke="black" points="142.359,-105.042 131.773,-104.594 139.769,-111.545 142.359,-105.042"/>
</g>
<!-- p1 -->
<g id="node6" class="node"><title>p1</title>
<path fill="none" stroke="black" d="M196.5,-108C196.5,-108 161.5,-108 161.5,-108 155.5,-108 149.5,-102 149.5,-96 149.5,-96 149.5,-84 149.5,-84 149.5,-78 155.5,-72 161.5,-72 161.5,-72 196.5,-72 196.5,-72 202.5,-72 208.5,-78 208.5,-84 208.5,-84 208.5,-96 208.5,-96 208.5,-102 202.5,-108 196.5,-108"/>
<text text-anchor="middle" x="179" y="-86.3" font-family="Times,serif" font-size="14.00">path (2)</text>
</g>
<!-- v0&#45;&gt;p1 -->
<g id="edge8" class="edge"><title>v0&#45;&gt;p1</title>
<path fill="none" stroke="black" d="M270.918,-148.967C255.507,-139.248 233.389,-125.299 214.711,-113.52"/>
<polygon fill="black" stroke="black" points="216.461,-110.486 206.136,-108.113 212.727,-116.407 216.461,-110.486"/>
</g>
<!-- v6 -->
<g id="node7" class="node"><title>v6</title>
<ellipse fill="none" stroke="black" cx="254" cy="-90" rx="27" ry="18"/>
<text text-anchor="middle" x="254" y="-86.3" font-family="Times,serif" font-size="14.00">6</text>
</g>
<!-- v0&#45;&gt;v6 -->
<g id="edge15" class="edge"><title>v0&#45;&gt;v6</title>
<path fill="none" stroke="black" d="M281.65,-144.765C277.288,-136.283 271.853,-125.714 266.959,-116.197"/>
<polygon fill="black" stroke="black" points="269.99,-114.439 262.304,-107.147 263.765,-117.641 269.99,-114.439"/>
</g>
<!-- v15 -->
<g id="node12" class="node"><title>v15</title>
<ellipse fill="none" stroke="black" cx="326" cy="-90" rx="27" ry="18"/>
<text text-anchor="middle" x="326" y="-86.3" font-family="Times,serif" font-size="14.00">15</text>
</g>
<!-- v0&#45;&gt;v15 -->
<g id="edge6" class="edge"><title>v0&#45;&gt;v15</title>
<path fill="none" stroke="black" d="M292.836,-144.055C296.441,-135.224 301.887,-124.281 307.423,-114.632"/>
<polygon fill="black" stroke="black" points="310.53,-116.258 312.702,-105.888 304.537,-112.64 310.53,-116.258"/>
</g>
<!-- p5 -->
<g id="node14" class="node"><title>p5</title>
<path fill="none" stroke="black" d="M418.5,-108C418.5,-108 383.5,-108 383.5,-108 377.5,-108 371.5,-102 371.5,-96 371.5,-96 371.5,-84 371.5,-84 371.5,-78 377.5,-72 383.5,-72 383.5,-72 418.5,-72 418.5,-72 424.5,-72 430.5,-78 430.5,-84 430.5,-84 430.5,-96 430.5,-96 430.5,-102 424.5,-108 418.5,-108"/>
<text text-anchor="middle" x="401" y="-86.3" font-family="Times,serif" font-size="14.00">path (2)</text>
</g>
<!-- v0&#45;&gt;p5 -->
<g id="edge1" class="edge"><title>v0&#45;&gt;p5</title>
<path fill="none" stroke="black" d="M309.082,-148.967C324.493,-139.248 346.611,-125.299 365.289,-113.52"/>
<polygon fill="black" stroke="black" points="367.273,-116.407 373.864,-108.113 363.539,-110.486 367.273,-116.407"/>
</g>
<!-- v21 -->
<g id="node15" class="node"><title>v21</title>
<ellipse fill="none" stroke="black" cx="476" cy="-90" rx="27" ry="18"/>
<text text-anchor="middle" x="476" y="-86.3" font-family="Times,serif" font-size="14.00">21</text>
</g>
<!-- v0&#45;&gt;v21 -->
<g id="edge5" class="edge"><title>v0&#45;&gt;v21</title>
<path fill="none" stroke="black" d="M313.728,-153.286C343.335,-143.495 395.382,-125.737 439,-108 441.075,-107.156 443.203,-106.261 445.34,-105.34"/>
<polygon fill="black" stroke="black" points="446.903,-108.475 454.62,-101.215 444.06,-102.078 446.903,-108.475"/>
</g>
<!-- v3 -->
<g id="node4" class="node"><title>v3</title>
<ellipse fill="none" stroke="black" cx="218" cy="-18" rx="27" ry="18"/>
<text text-anchor="middle" x="218" y="-14.3" font-family="Times,serif" font-size="14.00">3</text>
</g>
<!-- v4 -->
<g id="node5" class="node"><title>v4</title>
<ellipse fill="none" stroke="black" cx="290" cy="-18" rx="27" ry="18"/>
<text text-anchor="middle" x="290" y="-14.3" font-family="Times,serif" font-size="14.00">4</text>
</g>
<!-- v6&#45;&gt;v3 -->
<g id="edge3" class="edge"><title>v6&#45;&gt;v3</title>
<path fill="none" stroke="black" d="M245.65,-72.7646C241.288,-64.2831 235.853,-53.7144 230.959,-44.1974"/>
<polygon fill="black" stroke="black" points="233.99,-42.4395 226.304,-35.1473 227.765,-45.6409 233.99,-42.4395"/>
</g>
<!-- v6&#45;&gt;v4 -->
<g id="edge9" class="edge"><title>v6&#45;&gt;v4</title>
<path fill="none" stroke="black" d="M262.35,-72.7646C266.712,-64.2831 272.147,-53.7144 277.041,-44.1974"/>
<polygon fill="black" stroke="black" points="280.235,-45.6409 281.696,-35.1473 274.01,-42.4395 280.235,-45.6409"/>
</g>
<!-- v7 -->
<g id="node8" class="node"><title>v7</title>
<ellipse fill="none" stroke="black" cx="327" cy="-306" rx="27" ry="18"/>
<text text-anchor="middle" x="327" y="-302.3" font-family="Times,serif" font-size="14.00">7</text>
</g>
<!-- p2 -->
<g id="node9" class="node"><title>p2</title>
<path fill="none" stroke="black" d="M232.5,-252C232.5,-252 197.5,-252 197.5,-252 191.5,-252 185.5,-246 185.5,-240 185.5,-240 185.5,-228 185.5,-228 185.5,-222 191.5,-216 197.5,-216 197.5,-216 232.5,-216 232.5,-216 238.5,-216 244.5,-222 244.5,-228 244.5,-228 244.5,-240 244.5,-240 244.5,-246 238.5,-252 232.5,-252"/>
<text text-anchor="middle" x="215" y="-230.3" font-family="Times,serif" font-size="14.00">path (2)</text>
</g>
<!-- v7&#45;&gt;p2 -->
<g id="edge10" class="edge"><title>v7&#45;&gt;p2</title>
<path fill="none" stroke="black" d="M308.001,-293.125C292.484,-283.427 270.107,-269.442 251.191,-257.62"/>
<polygon fill="black" stroke="black" points="252.841,-254.523 242.506,-252.191 249.131,-260.459 252.841,-254.523"/>
</g>
<!-- v9 -->
<g id="node10" class="node"><title>v9</title>
<ellipse fill="none" stroke="black" cx="290" cy="-234" rx="27" ry="18"/>
<text text-anchor="middle" x="290" y="-230.3" font-family="Times,serif" font-size="14.00">9</text>
</g>
<!-- v7&#45;&gt;v9 -->
<g id="edge13" class="edge"><title>v7&#45;&gt;v9</title>
<path fill="none" stroke="black" d="M318.418,-288.765C313.935,-280.283 308.349,-269.714 303.319,-260.197"/>
<polygon fill="black" stroke="black" points="306.302,-258.353 298.535,-251.147 300.114,-261.624 306.302,-258.353"/>
</g>
<!-- p3 -->
<g id="node11" class="node"><title>p3</title>
<path fill="none" stroke="black" d="M382.5,-252C382.5,-252 347.5,-252 347.5,-252 341.5,-252 335.5,-246 335.5,-240 335.5,-240 335.5,-228 335.5,-228 335.5,-222 341.5,-216 347.5,-216 347.5,-216 382.5,-216 382.5,-216 388.5,-216 394.5,-222 394.5,-228 394.5,-228 394.5,-240 394.5,-240 394.5,-246 388.5,-252 382.5,-252"/>
<text text-anchor="middle" x="365" y="-230.3" font-family="Times,serif" font-size="14.00">path (4)</text>
</g>
<!-- v7&#45;&gt;p3 -->
<g id="edge12" class="edge"><title>v7&#45;&gt;p3</title>
<path fill="none" stroke="black" d="M335.813,-288.765C340.286,-280.525 345.828,-270.317 350.877,-261.016"/>
<polygon fill="black" stroke="black" points="354.009,-262.582 355.704,-252.124 347.857,-259.243 354.009,-262.582"/>
</g>
<!-- p4 -->
<g id="node13" class="node"><title>p4</title>
<path fill="none" stroke="black" d="M459.5,-252C459.5,-252 424.5,-252 424.5,-252 418.5,-252 412.5,-246 412.5,-240 412.5,-240 412.5,-228 412.5,-228 412.5,-222 418.5,-216 424.5,-216 424.5,-216 459.5,-216 459.5,-216 465.5,-216 471.5,-222 471.5,-228 471.5,-228 471.5,-240 471.5,-240 471.5,-246 465.5,-252 459.5,-252"/>
<text text-anchor="middle" x="442" y="-230.3" font-family="Times,serif" font-size="14.00">path (5)</text>
</g>
<!-- v7&#45;&gt;p4 -->
<g id="edge2" class="edge"><title>v7&#45;&gt;p4</title>
<path fill="none" stroke="black" d="M346.248,-293.284C362.329,-283.496 385.713,-269.262 405.347,-257.311"/>
<polygon fill="black" stroke="black" points="407.342,-260.194 414.064,-252.004 403.702,-254.214 407.342,-260.194"/>
</g>
<!-- v9&#45;&gt;v0 -->
<g id="edge4" class="edge"><title>v9&#45;&gt;v0</title>
<path fill="none" stroke="black" d="M290,-215.697C290,-207.983 290,-198.712 290,-190.112"/>
<polygon fill="black" stroke="black" points="293.5,-190.104 290,-180.104 286.5,-190.104 293.5,-190.104"/>
</g>
<!-- v15&#45;&gt;v0 -->
<g id="edge7" class="edge"><title>v15&#45;&gt;v0</title>
<path fill="none" stroke="black" d="M323.125,-108.04C319.512,-116.873 314.07,-127.8 308.541,-137.43"/>
<polygon fill="black" stroke="black" points="305.445,-135.786 303.271,-146.155 311.437,-139.405 305.445,-135.786"/>
</g>
</g>
</svg>
