<?xml version="1.0" encoding="UTF-8" standalone="no"?>
<!DOCTYPE svg PUBLIC "-//W3C//DTD SVG 1.1//EN"
 "http://www.w3.org/Graphics/SVG/1.1/DTD/svg11.dtd">
<!-- Generated by graphviz version 2.38.0 (20140413.2041)
 -->
<!-- Title: %3 Pages: 1 -->
<svg width="293pt" height="404pt"
 viewBox="0.00 0.00 293.00 404.00" xmlns="http://www.w3.org/2000/svg" xmlns:xlink="http://www.w3.org/1999/xlink">
<g id="graph0" class="graph" transform="scale(1 1) rotate(0) translate(4 400)">
<title>%3</title>
<polygon fill="white" stroke="none" points="-4,4 -4,-400 289,-400 289,4 -4,4"/>
<!-- p0 -->
<g id="node1" class="node"><title>p0</title>
<path fill="none" stroke="black" d="M96.5,-180C96.5,-180 61.5,-180 61.5,-180 55.5,-180 49.5,-174 49.5,-168 49.5,-168 49.5,-156 49.5,-156 49.5,-150 55.5,-144 61.5,-144 61.5,-144 96.5,-144 96.5,-144 102.5,-144 108.5,-150 108.5,-156 108.5,-156 108.5,-168 108.5,-168 108.5,-174 102.5,-180 96.5,-180"/>
<text text-anchor="middle" x="79" y="-158.3" font-family="Times,serif" font-size="14.00">path (7)</text>
</g>
<!-- v1 -->
<g id="node2" class="node"><title>v1</title>
<ellipse fill="none" stroke="black" cx="97" cy="-90" rx="27" ry="18"/>
<text text-anchor="middle" x="97" y="-86.3" font-family="Times,serif" font-size="14.00">1</text>
</g>
<!-- p0&#45;&gt;v1 -->
<g id="edge9" class="edge"><title>p0&#45;&gt;v1</title>
<path fill="none" stroke="black" d="M83.4494,-143.697C85.4548,-135.898 87.8692,-126.509 90.1011,-117.829"/>
<polygon fill="black" stroke="black" points="93.501,-118.661 92.6017,-108.104 86.7215,-116.918 93.501,-118.661"/>
</g>
<!-- v2 -->
<g id="node3" class="node"><title>v2</title>
<ellipse fill="none" stroke="black" cx="27" cy="-18" rx="27" ry="18"/>
<text text-anchor="middle" x="27" y="-14.3" font-family="Times,serif" font-size="14.00">2</text>
</g>
<!-- v1&#45;&gt;v2 -->
<g id="edge4" class="edge"><title>v1&#45;&gt;v2</title>
<path fill="none" stroke="black" d="M82.496,-74.496C72.7348,-64.7348 59.6897,-51.6897 48.6999,-40.6999"/>
<polygon fill="black" stroke="black" points="51.0314,-38.0817 41.4855,-33.4855 46.0817,-43.0314 51.0314,-38.0817"/>
</g>
<!-- p1 -->
<g id="node4" class="node"><title>p1</title>
<path fill="none" stroke="black" d="M119.5,-36C119.5,-36 84.5,-36 84.5,-36 78.5,-36 72.5,-30 72.5,-24 72.5,-24 72.5,-12 72.5,-12 72.5,-6 78.5,-0 84.5,-0 84.5,-0 119.5,-0 119.5,-0 125.5,-0 131.5,-6 131.5,-12 131.5,-12 131.5,-24 131.5,-24 131.5,-30 125.5,-36 119.5,-36"/>
<text text-anchor="middle" x="102" y="-14.3" font-family="Times,serif" font-size="14.00">path (4)</text>
</g>
<!-- v1&#45;&gt;p1 -->
<g id="edge8" class="edge"><title>v1&#45;&gt;p1</title>
<path fill="none" stroke="black" d="M98.236,-71.6966C98.7869,-63.9827 99.4491,-54.7125 100.063,-46.1124"/>
<polygon fill="black" stroke="black" points="103.557,-46.3283 100.778,-36.1043 96.5746,-45.8295 103.557,-46.3283"/>
</g>
<!-- v6 -->
<g id="node5" class="node"><title>v6</title>
<ellipse fill="none" stroke="black" cx="175" cy="-378" rx="27" ry="18"/>
<text text-anchor="middle" x="175" y="-374.3" font-family="Times,serif" font-size="14.00">6</text>
</g>
<!-- p2 -->
<g id="node6" class="node"><title>p2</title>
<path fill="none" stroke="black" d="M154.5,-324C154.5,-324 119.5,-324 119.5,-324 113.5,-324 107.5,-318 107.5,-312 107.5,-312 107.5,-300 107.5,-300 107.5,-294 113.5,-288 119.5,-288 119.5,-288 154.5,-288 154.5,-288 160.5,-288 166.5,-294 166.5,-300 166.5,-300 166.5,-312 166.5,-312 166.5,-318 160.5,-324 154.5,-324"/>
<text text-anchor="middle" x="137" y="-302.3" font-family="Times,serif" font-size="14.00">path (5)</text>
</g>
<!-- v6&#45;&gt;p2 -->
<g id="edge5" class="edge"><title>v6&#45;&gt;p2</title>
<path fill="none" stroke="black" d="M166.187,-360.765C161.714,-352.525 156.172,-342.317 151.123,-333.016"/>
<polygon fill="black" stroke="black" points="154.143,-331.243 146.296,-324.124 147.991,-334.582 154.143,-331.243"/>
</g>
<!-- p3 -->
<g id="node7" class="node"><title>p3</title>
<path fill="none" stroke="black" d="M231.5,-324C231.5,-324 196.5,-324 196.5,-324 190.5,-324 184.5,-318 184.5,-312 184.5,-312 184.5,-300 184.5,-300 184.5,-294 190.5,-288 196.5,-288 196.5,-288 231.5,-288 231.5,-288 237.5,-288 243.5,-294 243.5,-300 243.5,-300 243.5,-312 243.5,-312 243.5,-318 237.5,-324 231.5,-324"/>
<text text-anchor="middle" x="214" y="-302.3" font-family="Times,serif" font-size="14.00">path (2)</text>
</g>
<!-- v6&#45;&gt;p3 -->
<g id="edge12" class="edge"><title>v6&#45;&gt;p3</title>
<path fill="none" stroke="black" d="M184.045,-360.765C188.636,-352.525 194.324,-342.317 199.506,-333.016"/>
<polygon fill="black" stroke="black" points="202.65,-334.563 204.46,-324.124 196.535,-331.156 202.65,-334.563"/>
</g>
<!-- v18 -->
<g id="node8" class="node"><title>v18</title>
<ellipse fill="none" stroke="black" cx="137" cy="-234" rx="27" ry="18"/>
<text text-anchor="middle" x="137" y="-230.3" font-family="Times,serif" font-size="14.00">18</text>
</g>
<!-- p2&#45;&gt;v18 -->
<g id="edge7" class="edge"><title>p2&#45;&gt;v18</title>
<path fill="none" stroke="black" d="M137,-287.697C137,-279.983 137,-270.712 137,-262.112"/>
<polygon fill="black" stroke="black" points="140.5,-262.104 137,-252.104 133.5,-262.104 140.5,-262.104"/>
</g>
<!-- v18&#45;&gt;p0 -->
<g id="edge6" class="edge"><title>v18&#45;&gt;p0</title>
<path fill="none" stroke="black" d="M124.415,-217.811C117.231,-209.141 108.043,-198.052 99.8133,-188.12"/>
<polygon fill="black" stroke="black" points="102.266,-185.594 93.1907,-180.127 96.8758,-190.06 102.266,-185.594"/>
</g>
<!-- v18&#45;&gt;v1 -->
<g id="edge3" class="edge"><title>v18&#45;&gt;v1</title>
<path fill="none" stroke="black" d="M133.931,-216.088C130.488,-198.049 124.405,-168.729 117,-144 114.323,-135.061 110.884,-125.469 107.614,-116.935"/>
<polygon fill="black" stroke="black" points="110.824,-115.533 103.91,-107.505 104.309,-118.092 110.824,-115.533"/>
</g>
<!-- v20 -->
<g id="node10" class="node"><title>v20</title>
<ellipse fill="none" stroke="black" cx="192" cy="-162" rx="27" ry="18"/>
<text text-anchor="middle" x="192" y="-158.3" font-family="Times,serif" font-size="14.00">20</text>
</g>
<!-- v18&#45;&gt;v20 -->
<g id="edge10" class="edge"><title>v18&#45;&gt;v20</title>
<path fill="none" stroke="black" d="M148.934,-217.811C156.214,-208.546 165.663,-196.52 173.854,-186.094"/>
<polygon fill="black" stroke="black" points="176.663,-188.185 180.089,-178.159 171.159,-183.86 176.663,-188.185"/>
</g>
<!-- v19 -->
<g id="node9" class="node"><title>v19</title>
<ellipse fill="none" stroke="black" cx="192" cy="-90" rx="27" ry="18"/>
<text text-anchor="middle" x="192" y="-86.3" font-family="Times,serif" font-size="14.00">19</text>
</g>
<!-- p4 -->
<g id="node11" class="node"><title>p4</title>
<path fill="none" stroke="black" d="M200.5,-36C200.5,-36 165.5,-36 165.5,-36 159.5,-36 153.5,-30 153.5,-24 153.5,-24 153.5,-12 153.5,-12 153.5,-6 159.5,-0 165.5,-0 165.5,-0 200.5,-0 200.5,-0 206.5,-0 212.5,-6 212.5,-12 212.5,-12 212.5,-24 212.5,-24 212.5,-30 206.5,-36 200.5,-36"/>
<text text-anchor="middle" x="183" y="-14.3" font-family="Times,serif" font-size="14.00">path (4)</text>
</g>
<!-- v19&#45;&gt;p4 -->
<g id="edge1" class="edge"><title>v19&#45;&gt;p4</title>
<path fill="none" stroke="black" d="M189.821,-72.055C188.83,-64.3456 187.632,-55.0269 186.518,-46.3642"/>
<polygon fill="black" stroke="black" points="189.968,-45.7473 185.221,-36.2753 183.025,-46.64 189.968,-45.7473"/>
</g>
<!-- v26 -->
<g id="node12" class="node"><title>v26</title>
<ellipse fill="none" stroke="black" cx="258" cy="-18" rx="27" ry="18"/>
<text text-anchor="middle" x="258" y="-14.3" font-family="Times,serif" font-size="14.00">26</text>
</g>
<!-- v19&#45;&gt;v26 -->
<g id="edge2" class="edge"><title>v19&#45;&gt;v26</title>
<path fill="none" stroke="black" d="M205.997,-74.1548C215.01,-64.5957 226.891,-51.994 237.022,-41.2493"/>
<polygon fill="black" stroke="black" points="239.71,-43.5008 244.023,-33.8238 234.617,-38.6987 239.71,-43.5008"/>
</g>
<!-- v20&#45;&gt;v19 -->
<g id="edge11" class="edge"><title>v20&#45;&gt;v19</title>
<path fill="none" stroke="black" d="M192,-143.697C192,-135.983 192,-126.712 192,-118.112"/>
<polygon fill="black" stroke="black" points="195.5,-118.104 192,-108.104 188.5,-118.104 195.5,-118.104"/>
</g>
</g>
</svg>
