<?xml version="1.0" encoding="UTF-8" standalone="no"?>
<!DOCTYPE svg PUBLIC "-//W3C//DTD SVG 1.1//EN"
 "http://www.w3.org/Graphics/SVG/1.1/DTD/svg11.dtd">
<!-- Generated by graphviz version 2.38.0 (20140413.2041)
 -->
<!-- Title: %3 Pages: 1 -->
<svg width="350pt" height="332pt"
 viewBox="0.00 0.00 350.00 332.00" xmlns="http://www.w3.org/2000/svg" xmlns:xlink="http://www.w3.org/1999/xlink">
<g id="graph0" class="graph" transform="scale(1 1) rotate(0) translate(4 328)">
<title>%3</title>
<polygon fill="white" stroke="none" points="-4,4 -4,-328 346,-328 346,4 -4,4"/>
<!-- v0 -->
<g id="node1" class="node"><title>v0</title>
<ellipse fill="none" stroke="black" cx="207" cy="-234" rx="27" ry="18"/>
<text text-anchor="middle" x="207" y="-230.3" font-family="Times,serif" font-size="14.00">0</text>
</g>
<!-- v3 -->
<g id="node4" class="node"><title>v3</title>
<ellipse fill="none" stroke="black" cx="99" cy="-162" rx="27" ry="18"/>
<text text-anchor="middle" x="99" y="-158.3" font-family="Times,serif" font-size="14.00">3</text>
</g>
<!-- v0&#45;&gt;v3 -->
<g id="edge9" class="edge"><title>v0&#45;&gt;v3</title>
<path fill="none" stroke="black" d="M188.188,-220.807C170.998,-209.665 145.382,-193.062 126.007,-180.504"/>
<polygon fill="black" stroke="black" points="127.892,-177.555 117.597,-175.053 124.084,-183.429 127.892,-177.555"/>
</g>
<!-- v4 -->
<g id="node5" class="node"><title>v4</title>
<ellipse fill="none" stroke="black" cx="171" cy="-162" rx="27" ry="18"/>
<text text-anchor="middle" x="171" y="-158.3" font-family="Times,serif" font-size="14.00">4</text>
</g>
<!-- v0&#45;&gt;v4 -->
<g id="edge7" class="edge"><title>v0&#45;&gt;v4</title>
<path fill="none" stroke="black" d="M198.65,-216.765C194.288,-208.283 188.853,-197.714 183.959,-188.197"/>
<polygon fill="black" stroke="black" points="186.99,-186.439 179.304,-179.147 180.765,-189.641 186.99,-186.439"/>
</g>
<!-- v5 -->
<g id="node6" class="node"><title>v5</title>
<ellipse fill="none" stroke="black" cx="243" cy="-162" rx="27" ry="18"/>
<text text-anchor="middle" x="243" y="-158.3" font-family="Times,serif" font-size="14.00">5</text>
</g>
<!-- v0&#45;&gt;v5 -->
<g id="edge6" class="edge"><title>v0&#45;&gt;v5</title>
<path fill="none" stroke="black" d="M215.35,-216.765C219.712,-208.283 225.147,-197.714 230.041,-188.197"/>
<polygon fill="black" stroke="black" points="233.235,-189.641 234.696,-179.147 227.01,-186.439 233.235,-189.641"/>
</g>
<!-- v6 -->
<g id="node7" class="node"><title>v6</title>
<ellipse fill="none" stroke="black" cx="315" cy="-162" rx="27" ry="18"/>
<text text-anchor="middle" x="315" y="-158.3" font-family="Times,serif" font-size="14.00">6</text>
</g>
<!-- v0&#45;&gt;v6 -->
<g id="edge4" class="edge"><title>v0&#45;&gt;v6</title>
<path fill="none" stroke="black" d="M225.812,-220.807C243.002,-209.665 268.618,-193.062 287.993,-180.504"/>
<polygon fill="black" stroke="black" points="289.916,-183.429 296.403,-175.053 286.108,-177.555 289.916,-183.429"/>
</g>
<!-- v1 -->
<g id="node2" class="node"><title>v1</title>
<ellipse fill="none" stroke="black" cx="207" cy="-306" rx="27" ry="18"/>
<text text-anchor="middle" x="207" y="-302.3" font-family="Times,serif" font-size="14.00">1</text>
</g>
<!-- v1&#45;&gt;v0 -->
<g id="edge10" class="edge"><title>v1&#45;&gt;v0</title>
<path fill="none" stroke="black" d="M207,-287.697C207,-279.983 207,-270.712 207,-262.112"/>
<polygon fill="black" stroke="black" points="210.5,-262.104 207,-252.104 203.5,-262.104 210.5,-262.104"/>
</g>
<!-- v2 -->
<g id="node3" class="node"><title>v2</title>
<ellipse fill="none" stroke="black" cx="171" cy="-90" rx="27" ry="18"/>
<text text-anchor="middle" x="171" y="-86.3" font-family="Times,serif" font-size="14.00">2</text>
</g>
<!-- v7 -->
<g id="node8" class="node"><title>v7</title>
<ellipse fill="none" stroke="black" cx="135" cy="-18" rx="27" ry="18"/>
<text text-anchor="middle" x="135" y="-14.3" font-family="Times,serif" font-size="14.00">7</text>
</g>
<!-- v2&#45;&gt;v7 -->
<g id="edge1" class="edge"><title>v2&#45;&gt;v7</title>
<path fill="none" stroke="black" d="M162.65,-72.7646C158.288,-64.2831 152.853,-53.7144 147.959,-44.1974"/>
<polygon fill="black" stroke="black" points="150.99,-42.4395 143.304,-35.1473 144.765,-45.6409 150.99,-42.4395"/>
</g>
<!-- v8 -->
<g id="node9" class="node"><title>v8</title>
<ellipse fill="none" stroke="black" cx="207" cy="-18" rx="27" ry="18"/>
<text text-anchor="middle" x="207" y="-14.3" font-family="Times,serif" font-size="14.00">8</text>
</g>
<!-- v2&#45;&gt;v8 -->
<g id="edge2" class="edge"><title>v2&#45;&gt;v8</title>
<path fill="none" stroke="black" d="M179.35,-72.7646C183.712,-64.2831 189.147,-53.7144 194.041,-44.1974"/>
<polygon fill="black" stroke="black" points="197.235,-45.6409 198.696,-35.1473 191.01,-42.4395 197.235,-45.6409"/>
</g>
<!-- v9 -->
<g id="node10" class="node"><title>v9</title>
<ellipse fill="none" stroke="black" cx="27" cy="-90" rx="27" ry="18"/>
<text text-anchor="middle" x="27" y="-86.3" font-family="Times,serif" font-size="14.00">9</text>
</g>
<!-- v3&#45;&gt;v9 -->
<g id="edge5" class="edge"><title>v3&#45;&gt;v9</title>
<path fill="none" stroke="black" d="M84.4297,-146.834C74.2501,-136.938 60.4761,-123.546 48.9694,-112.359"/>
<polygon fill="black" stroke="black" points="51.4055,-109.846 41.7957,-105.385 46.5259,-114.865 51.4055,-109.846"/>
</g>
<!-- v10 -->
<g id="node11" class="node"><title>v10</title>
<ellipse fill="none" stroke="black" cx="99" cy="-90" rx="27" ry="18"/>
<text text-anchor="middle" x="99" y="-86.3" font-family="Times,serif" font-size="14.00">10</text>
</g>
<!-- v3&#45;&gt;v10 -->
<g id="edge3" class="edge"><title>v3&#45;&gt;v10</title>
<path fill="none" stroke="black" d="M99,-143.697C99,-135.983 99,-126.712 99,-118.112"/>
<polygon fill="black" stroke="black" points="102.5,-118.104 99,-108.104 95.5001,-118.104 102.5,-118.104"/>
</g>
<!-- v4&#45;&gt;v2 -->
<g id="edge8" class="edge"><title>v4&#45;&gt;v2</title>
<path fill="none" stroke="black" d="M171,-143.697C171,-135.983 171,-126.712 171,-118.112"/>
<polygon fill="black" stroke="black" points="174.5,-118.104 171,-108.104 167.5,-118.104 174.5,-118.104"/>
</g>
</g>
</svg>
