<?xml version="1.0" encoding="UTF-8" standalone="no"?>
<!DOCTYPE svg PUBLIC "-//W3C//DTD SVG 1.1//EN"
 "http://www.w3.org/Graphics/SVG/1.1/DTD/svg11.dtd">
<!-- Generated by graphviz version 2.38.0 (20140413.2041)
 -->
<!-- Title: %3 Pages: 1 -->
<svg width="450pt" height="620pt"
 viewBox="0.00 0.00 450.00 620.00" xmlns="http://www.w3.org/2000/svg" xmlns:xlink="http://www.w3.org/1999/xlink">
<g id="graph0" class="graph" transform="scale(1 1) rotate(0) translate(4 616)">
<title>%3</title>
<polygon fill="white" stroke="none" points="-4,4 -4,-616 446,-616 446,4 -4,4"/>
<!-- v0 -->
<g id="node1" class="node"><title>v0</title>
<ellipse fill="none" stroke="black" cx="301" cy="-522" rx="27" ry="18"/>
<text text-anchor="middle" x="301" y="-518.3" font-family="Times,serif" font-size="14.00">0</text>
</g>
<!-- v8 -->
<g id="node6" class="node"><title>v8</title>
<ellipse fill="none" stroke="black" cx="188" cy="-450" rx="27" ry="18"/>
<text text-anchor="middle" x="188" y="-446.3" font-family="Times,serif" font-size="14.00">8</text>
</g>
<!-- v0&#45;&gt;v8 -->
<g id="edge15" class="edge"><title>v0&#45;&gt;v8</title>
<path fill="none" stroke="black" d="M281.831,-509.125C263.73,-497.913 236.377,-480.968 215.867,-468.263"/>
<polygon fill="black" stroke="black" points="217.607,-465.224 207.263,-462.933 213.921,-471.174 217.607,-465.224"/>
</g>
<!-- p6 -->
<g id="node19" class="node"><title>p6</title>
<path fill="none" stroke="black" d="M280.5,-468C280.5,-468 245.5,-468 245.5,-468 239.5,-468 233.5,-462 233.5,-456 233.5,-456 233.5,-444 233.5,-444 233.5,-438 239.5,-432 245.5,-432 245.5,-432 280.5,-432 280.5,-432 286.5,-432 292.5,-438 292.5,-444 292.5,-444 292.5,-456 292.5,-456 292.5,-462 286.5,-468 280.5,-468"/>
<text text-anchor="middle" x="263" y="-446.3" font-family="Times,serif" font-size="14.00">path (5)</text>
</g>
<!-- v0&#45;&gt;p6 -->
<g id="edge18" class="edge"><title>v0&#45;&gt;p6</title>
<path fill="none" stroke="black" d="M292.187,-504.765C287.714,-496.525 282.172,-486.317 277.123,-477.016"/>
<polygon fill="black" stroke="black" points="280.143,-475.243 272.296,-468.124 273.991,-478.582 280.143,-475.243"/>
</g>
<!-- p7 -->
<g id="node20" class="node"><title>p7</title>
<path fill="none" stroke="black" d="M357.5,-468C357.5,-468 322.5,-468 322.5,-468 316.5,-468 310.5,-462 310.5,-456 310.5,-456 310.5,-444 310.5,-444 310.5,-438 316.5,-432 322.5,-432 322.5,-432 357.5,-432 357.5,-432 363.5,-432 369.5,-438 369.5,-444 369.5,-444 369.5,-456 369.5,-456 369.5,-462 363.5,-468 357.5,-468"/>
<text text-anchor="middle" x="340" y="-446.3" font-family="Times,serif" font-size="14.00">path (3)</text>
</g>
<!-- v0&#45;&gt;p7 -->
<g id="edge10" class="edge"><title>v0&#45;&gt;p7</title>
<path fill="none" stroke="black" d="M310.045,-504.765C314.636,-496.525 320.324,-486.317 325.506,-477.016"/>
<polygon fill="black" stroke="black" points="328.65,-478.563 330.46,-468.124 322.535,-475.156 328.65,-478.563"/>
</g>
<!-- v33 -->
<g id="node22" class="node"><title>v33</title>
<ellipse fill="none" stroke="black" cx="415" cy="-450" rx="27" ry="18"/>
<text text-anchor="middle" x="415" y="-446.3" font-family="Times,serif" font-size="14.00">33</text>
</g>
<!-- v0&#45;&gt;v33 -->
<g id="edge1" class="edge"><title>v0&#45;&gt;v33</title>
<path fill="none" stroke="black" d="M320.339,-509.125C338.599,-497.913 366.195,-480.968 386.887,-468.263"/>
<polygon fill="black" stroke="black" points="388.876,-471.148 395.567,-462.933 385.213,-465.183 388.876,-471.148"/>
</g>
<!-- p0 -->
<g id="node2" class="node"><title>p0</title>
<path fill="none" stroke="black" d="M91.5,-396C91.5,-396 56.5,-396 56.5,-396 50.5,-396 44.5,-390 44.5,-384 44.5,-384 44.5,-372 44.5,-372 44.5,-366 50.5,-360 56.5,-360 56.5,-360 91.5,-360 91.5,-360 97.5,-360 103.5,-366 103.5,-372 103.5,-372 103.5,-384 103.5,-384 103.5,-390 97.5,-396 91.5,-396"/>
<text text-anchor="middle" x="74" y="-374.3" font-family="Times,serif" font-size="14.00">path (4)</text>
</g>
<!-- v2 -->
<g id="node3" class="node"><title>v2</title>
<ellipse fill="none" stroke="black" cx="118" cy="-234" rx="27" ry="18"/>
<text text-anchor="middle" x="118" y="-230.3" font-family="Times,serif" font-size="14.00">2</text>
</g>
<!-- v15 -->
<g id="node13" class="node"><title>v15</title>
<ellipse fill="none" stroke="black" cx="27" cy="-162" rx="27" ry="18"/>
<text text-anchor="middle" x="27" y="-158.3" font-family="Times,serif" font-size="14.00">15</text>
</g>
<!-- v2&#45;&gt;v15 -->
<g id="edge22" class="edge"><title>v2&#45;&gt;v15</title>
<path fill="none" stroke="black" d="M100.884,-219.834C87.1563,-209.274 67.6901,-194.3 52.1847,-182.373"/>
<polygon fill="black" stroke="black" points="54.0999,-179.43 44.0397,-176.107 49.8319,-184.979 54.0999,-179.43"/>
</g>
<!-- v17 -->
<g id="node15" class="node"><title>v17</title>
<ellipse fill="none" stroke="black" cx="99" cy="-162" rx="27" ry="18"/>
<text text-anchor="middle" x="99" y="-158.3" font-family="Times,serif" font-size="14.00">17</text>
</g>
<!-- v2&#45;&gt;v17 -->
<g id="edge16" class="edge"><title>v2&#45;&gt;v17</title>
<path fill="none" stroke="black" d="M113.401,-216.055C111.254,-208.145 108.647,-198.54 106.244,-189.688"/>
<polygon fill="black" stroke="black" points="109.554,-188.523 103.557,-179.789 102.799,-190.357 109.554,-188.523"/>
</g>
<!-- p4 -->
<g id="node16" class="node"><title>p4</title>
<path fill="none" stroke="black" d="M191.5,-180C191.5,-180 156.5,-180 156.5,-180 150.5,-180 144.5,-174 144.5,-168 144.5,-168 144.5,-156 144.5,-156 144.5,-150 150.5,-144 156.5,-144 156.5,-144 191.5,-144 191.5,-144 197.5,-144 203.5,-150 203.5,-156 203.5,-156 203.5,-168 203.5,-168 203.5,-174 197.5,-180 191.5,-180"/>
<text text-anchor="middle" x="174" y="-158.3" font-family="Times,serif" font-size="14.00">path (2)</text>
</g>
<!-- v2&#45;&gt;p4 -->
<g id="edge5" class="edge"><title>v2&#45;&gt;p4</title>
<path fill="none" stroke="black" d="M130.151,-217.811C137.087,-209.141 145.958,-198.052 153.904,-188.12"/>
<polygon fill="black" stroke="black" points="156.785,-190.122 160.299,-180.127 151.319,-185.749 156.785,-190.122"/>
</g>
<!-- p1 -->
<g id="node4" class="node"><title>p1</title>
<path fill="none" stroke="black" d="M168.5,-396C168.5,-396 133.5,-396 133.5,-396 127.5,-396 121.5,-390 121.5,-384 121.5,-384 121.5,-372 121.5,-372 121.5,-366 127.5,-360 133.5,-360 133.5,-360 168.5,-360 168.5,-360 174.5,-360 180.5,-366 180.5,-372 180.5,-372 180.5,-384 180.5,-384 180.5,-390 174.5,-396 168.5,-396"/>
<text text-anchor="middle" x="151" y="-374.3" font-family="Times,serif" font-size="14.00">path (2)</text>
</g>
<!-- p2 -->
<g id="node5" class="node"><title>p2</title>
<path fill="none" stroke="black" d="M318.5,-324C318.5,-324 283.5,-324 283.5,-324 277.5,-324 271.5,-318 271.5,-312 271.5,-312 271.5,-300 271.5,-300 271.5,-294 277.5,-288 283.5,-288 283.5,-288 318.5,-288 318.5,-288 324.5,-288 330.5,-294 330.5,-300 330.5,-300 330.5,-312 330.5,-312 330.5,-318 324.5,-324 318.5,-324"/>
<text text-anchor="middle" x="301" y="-302.3" font-family="Times,serif" font-size="14.00">path (5)</text>
</g>
<!-- v8&#45;&gt;p0 -->
<g id="edge9" class="edge"><title>v8&#45;&gt;p0</title>
<path fill="none" stroke="black" d="M168.661,-437.125C152.796,-427.384 129.885,-413.315 110.577,-401.459"/>
<polygon fill="black" stroke="black" points="112.35,-398.441 101.997,-396.191 108.687,-404.406 112.35,-398.441"/>
</g>
<!-- v8&#45;&gt;p1 -->
<g id="edge24" class="edge"><title>v8&#45;&gt;p1</title>
<path fill="none" stroke="black" d="M179.418,-432.765C175.063,-424.525 169.667,-414.317 164.751,-405.016"/>
<polygon fill="black" stroke="black" points="167.819,-403.329 160.051,-396.124 161.63,-406.6 167.819,-403.329"/>
</g>
<!-- v13 -->
<g id="node11" class="node"><title>v13</title>
<ellipse fill="none" stroke="black" cx="226" cy="-378" rx="27" ry="18"/>
<text text-anchor="middle" x="226" y="-374.3" font-family="Times,serif" font-size="14.00">13</text>
</g>
<!-- v8&#45;&gt;v13 -->
<g id="edge2" class="edge"><title>v8&#45;&gt;v13</title>
<path fill="none" stroke="black" d="M196.813,-432.765C201.418,-424.283 207.155,-413.714 212.321,-404.197"/>
<polygon fill="black" stroke="black" points="215.539,-405.606 217.234,-395.147 209.387,-402.266 215.539,-405.606"/>
</g>
<!-- v38 -->
<g id="node23" class="node"><title>v38</title>
<ellipse fill="none" stroke="black" cx="301" cy="-378" rx="27" ry="18"/>
<text text-anchor="middle" x="301" y="-374.3" font-family="Times,serif" font-size="14.00">38</text>
</g>
<!-- v8&#45;&gt;v38 -->
<g id="edge13" class="edge"><title>v8&#45;&gt;v38</title>
<path fill="none" stroke="black" d="M207.169,-437.125C225.27,-425.913 252.623,-408.968 273.133,-396.263"/>
<polygon fill="black" stroke="black" points="275.079,-399.174 281.737,-390.933 271.393,-393.224 275.079,-399.174"/>
</g>
<!-- v9 -->
<g id="node7" class="node"><title>v9</title>
<ellipse fill="none" stroke="black" cx="210" cy="-18" rx="27" ry="18"/>
<text text-anchor="middle" x="210" y="-14.3" font-family="Times,serif" font-size="14.00">9</text>
</g>
<!-- v10 -->
<g id="node8" class="node"><title>v10</title>
<ellipse fill="none" stroke="black" cx="249" cy="-162" rx="27" ry="18"/>
<text text-anchor="middle" x="249" y="-158.3" font-family="Times,serif" font-size="14.00">10</text>
</g>
<!-- v11 -->
<g id="node9" class="node"><title>v11</title>
<ellipse fill="none" stroke="black" cx="213" cy="-90" rx="27" ry="18"/>
<text text-anchor="middle" x="213" y="-86.3" font-family="Times,serif" font-size="14.00">11</text>
</g>
<!-- v10&#45;&gt;v11 -->
<g id="edge6" class="edge"><title>v10&#45;&gt;v11</title>
<path fill="none" stroke="black" d="M240.65,-144.765C236.288,-136.283 230.853,-125.714 225.959,-116.197"/>
<polygon fill="black" stroke="black" points="228.99,-114.439 221.304,-107.147 222.765,-117.641 228.99,-114.439"/>
</g>
<!-- v16 -->
<g id="node14" class="node"><title>v16</title>
<ellipse fill="none" stroke="black" cx="285" cy="-90" rx="27" ry="18"/>
<text text-anchor="middle" x="285" y="-86.3" font-family="Times,serif" font-size="14.00">16</text>
</g>
<!-- v10&#45;&gt;v16 -->
<g id="edge20" class="edge"><title>v10&#45;&gt;v16</title>
<path fill="none" stroke="black" d="M257.35,-144.765C261.712,-136.283 267.147,-125.714 272.041,-116.197"/>
<polygon fill="black" stroke="black" points="275.235,-117.641 276.696,-107.147 269.01,-114.439 275.235,-117.641"/>
</g>
<!-- v12 -->
<g id="node10" class="node"><title>v12</title>
<ellipse fill="none" stroke="black" cx="154" cy="-306" rx="27" ry="18"/>
<text text-anchor="middle" x="154" y="-302.3" font-family="Times,serif" font-size="14.00">12</text>
</g>
<!-- v12&#45;&gt;v2 -->
<g id="edge7" class="edge"><title>v12&#45;&gt;v2</title>
<path fill="none" stroke="black" d="M145.65,-288.765C141.288,-280.283 135.853,-269.714 130.959,-260.197"/>
<polygon fill="black" stroke="black" points="133.99,-258.439 126.304,-251.147 127.765,-261.641 133.99,-258.439"/>
</g>
<!-- v21 -->
<g id="node18" class="node"><title>v21</title>
<ellipse fill="none" stroke="black" cx="229" cy="-234" rx="27" ry="18"/>
<text text-anchor="middle" x="229" y="-230.3" font-family="Times,serif" font-size="14.00">21</text>
</g>
<!-- v12&#45;&gt;v21 -->
<g id="edge11" class="edge"><title>v12&#45;&gt;v21</title>
<path fill="none" stroke="black" d="M169.177,-290.834C179.851,-280.872 194.319,-267.369 206.353,-256.137"/>
<polygon fill="black" stroke="black" points="208.923,-258.526 213.845,-249.144 204.146,-253.409 208.923,-258.526"/>
</g>
<!-- v13&#45;&gt;v12 -->
<g id="edge8" class="edge"><title>v13&#45;&gt;v12</title>
<path fill="none" stroke="black" d="M211.43,-362.834C201.25,-352.938 187.476,-339.546 175.969,-328.359"/>
<polygon fill="black" stroke="black" points="178.405,-325.846 168.796,-321.385 173.526,-330.865 178.405,-325.846"/>
</g>
<!-- v39 -->
<g id="node24" class="node"><title>v39</title>
<ellipse fill="none" stroke="black" cx="226" cy="-306" rx="27" ry="18"/>
<text text-anchor="middle" x="226" y="-302.3" font-family="Times,serif" font-size="14.00">39</text>
</g>
<!-- v13&#45;&gt;v39 -->
<g id="edge12" class="edge"><title>v13&#45;&gt;v39</title>
<path fill="none" stroke="black" d="M226,-359.697C226,-351.983 226,-342.712 226,-334.112"/>
<polygon fill="black" stroke="black" points="229.5,-334.104 226,-324.104 222.5,-334.104 229.5,-334.104"/>
</g>
<!-- p3 -->
<g id="node12" class="node"><title>p3</title>
<path fill="none" stroke="black" d="M395.5,-324C395.5,-324 360.5,-324 360.5,-324 354.5,-324 348.5,-318 348.5,-312 348.5,-312 348.5,-300 348.5,-300 348.5,-294 354.5,-288 360.5,-288 360.5,-288 395.5,-288 395.5,-288 401.5,-288 407.5,-294 407.5,-300 407.5,-300 407.5,-312 407.5,-312 407.5,-318 401.5,-324 395.5,-324"/>
<text text-anchor="middle" x="378" y="-302.3" font-family="Times,serif" font-size="14.00">path (2)</text>
</g>
<!-- v16&#45;&gt;v9 -->
<g id="edge3" class="edge"><title>v16&#45;&gt;v9</title>
<path fill="none" stroke="black" d="M269.823,-74.8345C259.149,-64.872 244.681,-51.3687 232.647,-40.1371"/>
<polygon fill="black" stroke="black" points="234.854,-37.409 225.155,-33.1445 230.077,-42.5264 234.854,-37.409"/>
</g>
<!-- p5 -->
<g id="node17" class="node"><title>p5</title>
<path fill="none" stroke="black" d="M302.5,-36C302.5,-36 267.5,-36 267.5,-36 261.5,-36 255.5,-30 255.5,-24 255.5,-24 255.5,-12 255.5,-12 255.5,-6 261.5,-0 267.5,-0 267.5,-0 302.5,-0 302.5,-0 308.5,-0 314.5,-6 314.5,-12 314.5,-12 314.5,-24 314.5,-24 314.5,-30 308.5,-36 302.5,-36"/>
<text text-anchor="middle" x="285" y="-14.3" font-family="Times,serif" font-size="14.00">path (2)</text>
</g>
<!-- v16&#45;&gt;p5 -->
<g id="edge14" class="edge"><title>v16&#45;&gt;p5</title>
<path fill="none" stroke="black" d="M285,-71.6966C285,-63.9827 285,-54.7125 285,-46.1124"/>
<polygon fill="black" stroke="black" points="288.5,-46.1043 285,-36.1043 281.5,-46.1044 288.5,-46.1043"/>
</g>
<!-- v41 -->
<g id="node25" class="node"><title>v41</title>
<ellipse fill="none" stroke="black" cx="360" cy="-18" rx="27" ry="18"/>
<text text-anchor="middle" x="360" y="-14.3" font-family="Times,serif" font-size="14.00">41</text>
</g>
<!-- v16&#45;&gt;v41 -->
<g id="edge19" class="edge"><title>v16&#45;&gt;v41</title>
<path fill="none" stroke="black" d="M300.177,-74.8345C310.851,-64.872 325.319,-51.3687 337.353,-40.1371"/>
<polygon fill="black" stroke="black" points="339.923,-42.5264 344.845,-33.1445 335.146,-37.409 339.923,-42.5264"/>
</g>
<!-- v21&#45;&gt;v10 -->
<g id="edge21" class="edge"><title>v21&#45;&gt;v10</title>
<path fill="none" stroke="black" d="M233.841,-216.055C236.102,-208.145 238.846,-198.54 241.375,-189.688"/>
<polygon fill="black" stroke="black" points="244.821,-190.366 244.203,-179.789 238.091,-188.443 244.821,-190.366"/>
</g>
<!-- v30 -->
<g id="node21" class="node"><title>v30</title>
<ellipse fill="none" stroke="black" cx="301" cy="-594" rx="27" ry="18"/>
<text text-anchor="middle" x="301" y="-590.3" font-family="Times,serif" font-size="14.00">30</text>
</g>
<!-- v30&#45;&gt;v0 -->
<g id="edge17" class="edge"><title>v30&#45;&gt;v0</title>
<path fill="none" stroke="black" d="M301,-575.697C301,-567.983 301,-558.712 301,-550.112"/>
<polygon fill="black" stroke="black" points="304.5,-550.104 301,-540.104 297.5,-550.104 304.5,-550.104"/>
</g>
<!-- v38&#45;&gt;p2 -->
<g id="edge4" class="edge"><title>v38&#45;&gt;p2</title>
<path fill="none" stroke="black" d="M301,-359.697C301,-351.983 301,-342.712 301,-334.112"/>
<polygon fill="black" stroke="black" points="304.5,-334.104 301,-324.104 297.5,-334.104 304.5,-334.104"/>
</g>
<!-- v38&#45;&gt;p3 -->
<g id="edge23" class="edge"><title>v38&#45;&gt;p3</title>
<path fill="none" stroke="black" d="M316.582,-362.834C326.579,-353.746 339.818,-341.71 351.445,-331.141"/>
<polygon fill="black" stroke="black" points="354.131,-333.429 359.176,-324.113 349.422,-328.25 354.131,-333.429"/>
</g>
</g>
</svg>
