<?xml version="1.0" encoding="UTF-8" standalone="no"?>
<!DOCTYPE svg PUBLIC "-//W3C//DTD SVG 1.1//EN"
 "http://www.w3.org/Graphics/SVG/1.1/DTD/svg11.dtd">
<!-- Generated by graphviz version 2.38.0 (20140413.2041)
 -->
<!-- Title: %3 Pages: 1 -->
<svg width="221pt" height="116pt"
 viewBox="0.00 0.00 221.00 116.00" xmlns="http://www.w3.org/2000/svg" xmlns:xlink="http://www.w3.org/1999/xlink">
<g id="graph0" class="graph" transform="scale(1 1) rotate(0) translate(4 112)">
<title>%3</title>
<polygon fill="white" stroke="none" points="-4,4 -4,-112 217,-112 217,4 -4,4"/>
<!-- p0 -->
<g id="node1" class="node"><title>p0</title>
<path fill="none" stroke="black" d="M47,-36C47,-36 12,-36 12,-36 6,-36 0,-30 0,-24 0,-24 0,-12 0,-12 0,-6 6,-0 12,-0 12,-0 47,-0 47,-0 53,-0 59,-6 59,-12 59,-12 59,-24 59,-24 59,-30 53,-36 47,-36"/>
<text text-anchor="middle" x="29.5" y="-14.3" font-family="Times,serif" font-size="14.00">path (2)</text>
</g>
<!-- v1 -->
<g id="node2" class="node"><title>v1</title>
<ellipse fill="none" stroke="black" cx="106.5" cy="-90" rx="27" ry="18"/>
<text text-anchor="middle" x="106.5" y="-86.3" font-family="Times,serif" font-size="14.00">1</text>
</g>
<!-- v1&#45;&gt;p0 -->
<g id="edge1" class="edge"><title>v1&#45;&gt;p0</title>
<path fill="none" stroke="black" d="M90.9179,-74.8345C80.9205,-65.7459 67.6815,-53.7105 56.0555,-43.1413"/>
<polygon fill="black" stroke="black" points="58.0778,-40.2497 48.324,-36.1127 53.3691,-45.4293 58.0778,-40.2497"/>
</g>
<!-- p1 -->
<g id="node3" class="node"><title>p1</title>
<path fill="none" stroke="black" d="M124,-36C124,-36 89,-36 89,-36 83,-36 77,-30 77,-24 77,-24 77,-12 77,-12 77,-6 83,-0 89,-0 89,-0 124,-0 124,-0 130,-0 136,-6 136,-12 136,-12 136,-24 136,-24 136,-30 130,-36 124,-36"/>
<text text-anchor="middle" x="106.5" y="-14.3" font-family="Times,serif" font-size="14.00">path (3)</text>
</g>
<!-- v1&#45;&gt;p1 -->
<g id="edge2" class="edge"><title>v1&#45;&gt;p1</title>
<path fill="none" stroke="black" d="M106.5,-71.6966C106.5,-63.9827 106.5,-54.7125 106.5,-46.1124"/>
<polygon fill="black" stroke="black" points="110,-46.1043 106.5,-36.1043 103,-46.1044 110,-46.1043"/>
</g>
<!-- p2 -->
<g id="node4" class="node"><title>p2</title>
<path fill="none" stroke="black" d="M201,-36C201,-36 166,-36 166,-36 160,-36 154,-30 154,-24 154,-24 154,-12 154,-12 154,-6 160,-0 166,-0 166,-0 201,-0 201,-0 207,-0 213,-6 213,-12 213,-12 213,-24 213,-24 213,-30 207,-36 201,-36"/>
<text text-anchor="middle" x="183.5" y="-14.3" font-family="Times,serif" font-size="14.00">path (4)</text>
</g>
<!-- v1&#45;&gt;p2 -->
<g id="edge3" class="edge"><title>v1&#45;&gt;p2</title>
<path fill="none" stroke="black" d="M122.082,-74.8345C132.079,-65.7459 145.318,-53.7105 156.945,-43.1413"/>
<polygon fill="black" stroke="black" points="159.631,-45.4293 164.676,-36.1127 154.922,-40.2497 159.631,-45.4293"/>
</g>
</g>
</svg>
