<?xml version="1.0" encoding="UTF-8" standalone="no"?>
<!DOCTYPE svg PUBLIC "-//W3C//DTD SVG 1.1//EN"
 "http://www.w3.org/Graphics/SVG/1.1/DTD/svg11.dtd">
<!-- Generated by graphviz version 2.38.0 (20140413.2041)
 -->
<!-- Title: %3 Pages: 1 -->
<svg width="350pt" height="476pt"
 viewBox="0.00 0.00 350.00 476.00" xmlns="http://www.w3.org/2000/svg" xmlns:xlink="http://www.w3.org/1999/xlink">
<g id="graph0" class="graph" transform="scale(1 1) rotate(0) translate(4 472)">
<title>%3</title>
<polygon fill="white" stroke="none" points="-4,4 -4,-472 346,-472 346,4 -4,4"/>
<!-- v0 -->
<g id="node1" class="node"><title>v0</title>
<ellipse fill="none" stroke="black" cx="27" cy="-162" rx="27" ry="18"/>
<text text-anchor="middle" x="27" y="-158.3" font-family="Times,serif" font-size="14.00">0</text>
</g>
<!-- v1 -->
<g id="node2" class="node"><title>v1</title>
<ellipse fill="none" stroke="black" cx="99" cy="-162" rx="27" ry="18"/>
<text text-anchor="middle" x="99" y="-158.3" font-family="Times,serif" font-size="14.00">1</text>
</g>
<!-- v2 -->
<g id="node3" class="node"><title>v2</title>
<ellipse fill="none" stroke="black" cx="135" cy="-234" rx="27" ry="18"/>
<text text-anchor="middle" x="135" y="-230.3" font-family="Times,serif" font-size="14.00">2</text>
</g>
<!-- v2&#45;&gt;v0 -->
<g id="edge7" class="edge"><title>v2&#45;&gt;v0</title>
<path fill="none" stroke="black" d="M116.188,-220.807C98.9979,-209.665 73.3816,-193.062 54.0067,-180.504"/>
<polygon fill="black" stroke="black" points="55.8918,-177.555 45.5966,-175.053 52.0845,-183.429 55.8918,-177.555"/>
</g>
<!-- v2&#45;&gt;v1 -->
<g id="edge5" class="edge"><title>v2&#45;&gt;v1</title>
<path fill="none" stroke="black" d="M126.65,-216.765C122.288,-208.283 116.853,-197.714 111.959,-188.197"/>
<polygon fill="black" stroke="black" points="114.99,-186.439 107.304,-179.147 108.765,-189.641 114.99,-186.439"/>
</g>
<!-- v3 -->
<g id="node4" class="node"><title>v3</title>
<ellipse fill="none" stroke="black" cx="171" cy="-162" rx="27" ry="18"/>
<text text-anchor="middle" x="171" y="-158.3" font-family="Times,serif" font-size="14.00">3</text>
</g>
<!-- v2&#45;&gt;v3 -->
<g id="edge8" class="edge"><title>v2&#45;&gt;v3</title>
<path fill="none" stroke="black" d="M143.35,-216.765C147.712,-208.283 153.147,-197.714 158.041,-188.197"/>
<polygon fill="black" stroke="black" points="161.235,-189.641 162.696,-179.147 155.01,-186.439 161.235,-189.641"/>
</g>
<!-- p0 -->
<g id="node8" class="node"><title>p0</title>
<path fill="none" stroke="black" d="M263.5,-180C263.5,-180 228.5,-180 228.5,-180 222.5,-180 216.5,-174 216.5,-168 216.5,-168 216.5,-156 216.5,-156 216.5,-150 222.5,-144 228.5,-144 228.5,-144 263.5,-144 263.5,-144 269.5,-144 275.5,-150 275.5,-156 275.5,-156 275.5,-168 275.5,-168 275.5,-174 269.5,-180 263.5,-180"/>
<text text-anchor="middle" x="246" y="-158.3" font-family="Times,serif" font-size="14.00">path (2)</text>
</g>
<!-- v2&#45;&gt;p0 -->
<g id="edge1" class="edge"><title>v2&#45;&gt;p0</title>
<path fill="none" stroke="black" d="M154.082,-220.967C169.493,-211.248 191.611,-197.299 210.289,-185.52"/>
<polygon fill="black" stroke="black" points="212.273,-188.407 218.864,-180.113 208.539,-182.486 212.273,-188.407"/>
</g>
<!-- v5 -->
<g id="node6" class="node"><title>v5</title>
<ellipse fill="none" stroke="black" cx="171" cy="-90" rx="27" ry="18"/>
<text text-anchor="middle" x="171" y="-86.3" font-family="Times,serif" font-size="14.00">5</text>
</g>
<!-- v3&#45;&gt;v5 -->
<g id="edge13" class="edge"><title>v3&#45;&gt;v5</title>
<path fill="none" stroke="black" d="M171,-143.697C171,-135.983 171,-126.712 171,-118.112"/>
<polygon fill="black" stroke="black" points="174.5,-118.104 171,-108.104 167.5,-118.104 174.5,-118.104"/>
</g>
<!-- v4 -->
<g id="node5" class="node"><title>v4</title>
<ellipse fill="none" stroke="black" cx="135" cy="-306" rx="27" ry="18"/>
<text text-anchor="middle" x="135" y="-302.3" font-family="Times,serif" font-size="14.00">4</text>
</g>
<!-- v4&#45;&gt;v2 -->
<g id="edge10" class="edge"><title>v4&#45;&gt;v2</title>
<path fill="none" stroke="black" d="M135,-287.697C135,-279.983 135,-270.712 135,-262.112"/>
<polygon fill="black" stroke="black" points="138.5,-262.104 135,-252.104 131.5,-262.104 138.5,-262.104"/>
</g>
<!-- v6 -->
<g id="node7" class="node"><title>v6</title>
<ellipse fill="none" stroke="black" cx="171" cy="-18" rx="27" ry="18"/>
<text text-anchor="middle" x="171" y="-14.3" font-family="Times,serif" font-size="14.00">6</text>
</g>
<!-- v5&#45;&gt;v6 -->
<g id="edge2" class="edge"><title>v5&#45;&gt;v6</title>
<path fill="none" stroke="black" d="M165.16,-72.411C164.297,-64.507 164.048,-54.8518 164.412,-45.9352"/>
<polygon fill="black" stroke="black" points="167.903,-46.1791 165.121,-35.9562 160.921,-45.6831 167.903,-46.1791"/>
</g>
<!-- v6&#45;&gt;v5 -->
<g id="edge12" class="edge"><title>v6&#45;&gt;v5</title>
<path fill="none" stroke="black" d="M176.879,-35.9562C177.714,-43.8272 177.948,-53.3739 177.583,-62.1869"/>
<polygon fill="black" stroke="black" points="174.074,-62.1835 176.84,-72.411 181.056,-62.6911 174.074,-62.1835"/>
</g>
<!-- v9 -->
<g id="node9" class="node"><title>v9</title>
<ellipse fill="none" stroke="black" cx="171" cy="-378" rx="27" ry="18"/>
<text text-anchor="middle" x="171" y="-374.3" font-family="Times,serif" font-size="14.00">9</text>
</g>
<!-- v9&#45;&gt;v4 -->
<g id="edge9" class="edge"><title>v9&#45;&gt;v4</title>
<path fill="none" stroke="black" d="M162.65,-360.765C158.288,-352.283 152.853,-341.714 147.959,-332.197"/>
<polygon fill="black" stroke="black" points="150.99,-330.439 143.304,-323.147 144.765,-333.641 150.99,-330.439"/>
</g>
<!-- v10 -->
<g id="node10" class="node"><title>v10</title>
<ellipse fill="none" stroke="black" cx="207" cy="-306" rx="27" ry="18"/>
<text text-anchor="middle" x="207" y="-302.3" font-family="Times,serif" font-size="14.00">10</text>
</g>
<!-- v9&#45;&gt;v10 -->
<g id="edge6" class="edge"><title>v9&#45;&gt;v10</title>
<path fill="none" stroke="black" d="M179.35,-360.765C183.712,-352.283 189.147,-341.714 194.041,-332.197"/>
<polygon fill="black" stroke="black" points="197.235,-333.641 198.696,-323.147 191.01,-330.439 197.235,-333.641"/>
</g>
<!-- v11 -->
<g id="node11" class="node"><title>v11</title>
<ellipse fill="none" stroke="black" cx="243" cy="-450" rx="27" ry="18"/>
<text text-anchor="middle" x="243" y="-446.3" font-family="Times,serif" font-size="14.00">11</text>
</g>
<!-- v11&#45;&gt;v9 -->
<g id="edge4" class="edge"><title>v11&#45;&gt;v9</title>
<path fill="none" stroke="black" d="M228.43,-434.834C218.25,-424.938 204.476,-411.546 192.969,-400.359"/>
<polygon fill="black" stroke="black" points="195.405,-397.846 185.796,-393.385 190.526,-402.865 195.405,-397.846"/>
</g>
<!-- v12 -->
<g id="node12" class="node"><title>v12</title>
<ellipse fill="none" stroke="black" cx="243" cy="-378" rx="27" ry="18"/>
<text text-anchor="middle" x="243" y="-374.3" font-family="Times,serif" font-size="14.00">12</text>
</g>
<!-- v11&#45;&gt;v12 -->
<g id="edge3" class="edge"><title>v11&#45;&gt;v12</title>
<path fill="none" stroke="black" d="M243,-431.697C243,-423.983 243,-414.712 243,-406.112"/>
<polygon fill="black" stroke="black" points="246.5,-406.104 243,-396.104 239.5,-406.104 246.5,-406.104"/>
</g>
<!-- v13 -->
<g id="node13" class="node"><title>v13</title>
<ellipse fill="none" stroke="black" cx="315" cy="-378" rx="27" ry="18"/>
<text text-anchor="middle" x="315" y="-374.3" font-family="Times,serif" font-size="14.00">13</text>
</g>
<!-- v11&#45;&gt;v13 -->
<g id="edge11" class="edge"><title>v11&#45;&gt;v13</title>
<path fill="none" stroke="black" d="M257.57,-434.834C267.75,-424.938 281.524,-411.546 293.031,-400.359"/>
<polygon fill="black" stroke="black" points="295.474,-402.865 300.204,-393.385 290.595,-397.846 295.474,-402.865"/>
</g>
</g>
</svg>
