<?xml version="1.0" encoding="UTF-8" standalone="no"?>
<!DOCTYPE svg PUBLIC "-//W3C//DTD SVG 1.1//EN"
 "http://www.w3.org/Graphics/SVG/1.1/DTD/svg11.dtd">
<!-- Generated by graphviz version 2.38.0 (20140413.2041)
 -->
<!-- Title: %3 Pages: 1 -->
<svg width="515pt" height="404pt"
 viewBox="0.00 0.00 515.00 404.00" xmlns="http://www.w3.org/2000/svg" xmlns:xlink="http://www.w3.org/1999/xlink">
<g id="graph0" class="graph" transform="scale(1 1) rotate(0) translate(4 400)">
<title>%3</title>
<polygon fill="white" stroke="none" points="-4,4 -4,-400 511,-400 511,4 -4,4"/>
<!-- p0 -->
<g id="node1" class="node"><title>p0</title>
<path fill="none" stroke="black" d="M160,-108C160,-108 125,-108 125,-108 119,-108 113,-102 113,-96 113,-96 113,-84 113,-84 113,-78 119,-72 125,-72 125,-72 160,-72 160,-72 166,-72 172,-78 172,-84 172,-84 172,-96 172,-96 172,-102 166,-108 160,-108"/>
<text text-anchor="middle" x="142.5" y="-86.3" font-family="Times,serif" font-size="14.00">path (3)</text>
</g>
<!-- p1 -->
<g id="node2" class="node"><title>p1</title>
<path fill="none" stroke="black" d="M47,-252C47,-252 12,-252 12,-252 6,-252 0,-246 0,-240 0,-240 0,-228 0,-228 0,-222 6,-216 12,-216 12,-216 47,-216 47,-216 53,-216 59,-222 59,-228 59,-228 59,-240 59,-240 59,-246 53,-252 47,-252"/>
<text text-anchor="middle" x="29.5" y="-230.3" font-family="Times,serif" font-size="14.00">path (2)</text>
</g>
<!-- p2 -->
<g id="node3" class="node"><title>p2</title>
<path fill="none" stroke="black" d="M124,-252C124,-252 89,-252 89,-252 83,-252 77,-246 77,-240 77,-240 77,-228 77,-228 77,-222 83,-216 89,-216 89,-216 124,-216 124,-216 130,-216 136,-222 136,-228 136,-228 136,-240 136,-240 136,-246 130,-252 124,-252"/>
<text text-anchor="middle" x="106.5" y="-230.3" font-family="Times,serif" font-size="14.00">path (4)</text>
</g>
<!-- v7 -->
<g id="node4" class="node"><title>v7</title>
<ellipse fill="none" stroke="black" cx="181.5" cy="-234" rx="27" ry="18"/>
<text text-anchor="middle" x="181.5" y="-230.3" font-family="Times,serif" font-size="14.00">7</text>
</g>
<!-- v8 -->
<g id="node5" class="node"><title>v8</title>
<ellipse fill="none" stroke="black" cx="253.5" cy="-306" rx="27" ry="18"/>
<text text-anchor="middle" x="253.5" y="-302.3" font-family="Times,serif" font-size="14.00">8</text>
</g>
<!-- v8&#45;&gt;p1 -->
<g id="edge14" class="edge"><title>v8&#45;&gt;p1</title>
<path fill="none" stroke="black" d="M228.469,-299.08C194.172,-290.71 130.583,-274.269 68.715,-252.213"/>
<polygon fill="black" stroke="black" points="69.7992,-248.884 59.2049,-248.773 67.4176,-255.466 69.7992,-248.884"/>
</g>
<!-- v8&#45;&gt;p2 -->
<g id="edge3" class="edge"><title>v8&#45;&gt;p2</title>
<path fill="none" stroke="black" d="M232.125,-294.821C209.375,-283.988 172.897,-266.618 145.097,-253.379"/>
<polygon fill="black" stroke="black" points="146.567,-250.203 136.034,-249.064 143.557,-256.523 146.567,-250.203"/>
</g>
<!-- v8&#45;&gt;v7 -->
<g id="edge11" class="edge"><title>v8&#45;&gt;v7</title>
<path fill="none" stroke="black" d="M238.93,-290.834C228.75,-280.938 214.976,-267.546 203.469,-256.359"/>
<polygon fill="black" stroke="black" points="205.905,-253.846 196.296,-249.385 201.026,-258.865 205.905,-253.846"/>
</g>
<!-- v12 -->
<g id="node9" class="node"><title>v12</title>
<ellipse fill="none" stroke="black" cx="253.5" cy="-234" rx="27" ry="18"/>
<text text-anchor="middle" x="253.5" y="-230.3" font-family="Times,serif" font-size="14.00">12</text>
</g>
<!-- v8&#45;&gt;v12 -->
<g id="edge15" class="edge"><title>v8&#45;&gt;v12</title>
<path fill="none" stroke="black" d="M253.5,-287.697C253.5,-279.983 253.5,-270.712 253.5,-262.112"/>
<polygon fill="black" stroke="black" points="257,-262.104 253.5,-252.104 250,-262.104 257,-262.104"/>
</g>
<!-- v17 -->
<g id="node12" class="node"><title>v17</title>
<ellipse fill="none" stroke="black" cx="325.5" cy="-234" rx="27" ry="18"/>
<text text-anchor="middle" x="325.5" y="-230.3" font-family="Times,serif" font-size="14.00">17</text>
</g>
<!-- v8&#45;&gt;v17 -->
<g id="edge12" class="edge"><title>v8&#45;&gt;v17</title>
<path fill="none" stroke="black" d="M268.07,-290.834C278.25,-280.938 292.024,-267.546 303.531,-256.359"/>
<polygon fill="black" stroke="black" points="305.974,-258.865 310.704,-249.385 301.095,-253.846 305.974,-258.865"/>
</g>
<!-- p5 -->
<g id="node17" class="node"><title>p5</title>
<path fill="none" stroke="black" d="M418,-252C418,-252 383,-252 383,-252 377,-252 371,-246 371,-240 371,-240 371,-228 371,-228 371,-222 377,-216 383,-216 383,-216 418,-216 418,-216 424,-216 430,-222 430,-228 430,-228 430,-240 430,-240 430,-246 424,-252 418,-252"/>
<text text-anchor="middle" x="400.5" y="-230.3" font-family="Times,serif" font-size="14.00">path (3)</text>
</g>
<!-- v8&#45;&gt;p5 -->
<g id="edge4" class="edge"><title>v8&#45;&gt;p5</title>
<path fill="none" stroke="black" d="M274.875,-294.821C297.625,-283.988 334.103,-266.618 361.903,-253.379"/>
<polygon fill="black" stroke="black" points="363.443,-256.523 370.966,-249.064 360.433,-250.203 363.443,-256.523"/>
</g>
<!-- p6 -->
<g id="node18" class="node"><title>p6</title>
<path fill="none" stroke="black" d="M495,-252C495,-252 460,-252 460,-252 454,-252 448,-246 448,-240 448,-240 448,-228 448,-228 448,-222 454,-216 460,-216 460,-216 495,-216 495,-216 501,-216 507,-222 507,-228 507,-228 507,-240 507,-240 507,-246 501,-252 495,-252"/>
<text text-anchor="middle" x="477.5" y="-230.3" font-family="Times,serif" font-size="14.00">path (2)</text>
</g>
<!-- v8&#45;&gt;p6 -->
<g id="edge2" class="edge"><title>v8&#45;&gt;p6</title>
<path fill="none" stroke="black" d="M274.136,-294.374C279.088,-292.072 284.416,-289.793 289.5,-288 353.748,-265.337 373.918,-273.693 438.5,-252 438.596,-251.968 438.693,-251.935 438.789,-251.903"/>
<polygon fill="black" stroke="black" points="439.731,-255.286 447.898,-248.537 437.305,-248.72 439.731,-255.286"/>
</g>
<!-- v9 -->
<g id="node6" class="node"><title>v9</title>
<ellipse fill="none" stroke="black" cx="217.5" cy="-90" rx="27" ry="18"/>
<text text-anchor="middle" x="217.5" y="-86.3" font-family="Times,serif" font-size="14.00">9</text>
</g>
<!-- p3 -->
<g id="node7" class="node"><title>p3</title>
<path fill="none" stroke="black" d="M158,-36C158,-36 123,-36 123,-36 117,-36 111,-30 111,-24 111,-24 111,-12 111,-12 111,-6 117,-0 123,-0 123,-0 158,-0 158,-0 164,-0 170,-6 170,-12 170,-12 170,-24 170,-24 170,-30 164,-36 158,-36"/>
<text text-anchor="middle" x="140.5" y="-14.3" font-family="Times,serif" font-size="14.00">path (2)</text>
</g>
<!-- v9&#45;&gt;p3 -->
<g id="edge5" class="edge"><title>v9&#45;&gt;p3</title>
<path fill="none" stroke="black" d="M201.918,-74.8345C191.921,-65.7459 178.682,-53.7105 167.055,-43.1413"/>
<polygon fill="black" stroke="black" points="169.078,-40.2497 159.324,-36.1127 164.369,-45.4293 169.078,-40.2497"/>
</g>
<!-- p4 -->
<g id="node10" class="node"><title>p4</title>
<path fill="none" stroke="black" d="M235,-36C235,-36 200,-36 200,-36 194,-36 188,-30 188,-24 188,-24 188,-12 188,-12 188,-6 194,-0 200,-0 200,-0 235,-0 235,-0 241,-0 247,-6 247,-12 247,-12 247,-24 247,-24 247,-30 241,-36 235,-36"/>
<text text-anchor="middle" x="217.5" y="-14.3" font-family="Times,serif" font-size="14.00">path (2)</text>
</g>
<!-- v9&#45;&gt;p4 -->
<g id="edge13" class="edge"><title>v9&#45;&gt;p4</title>
<path fill="none" stroke="black" d="M217.5,-71.6966C217.5,-63.9827 217.5,-54.7125 217.5,-46.1124"/>
<polygon fill="black" stroke="black" points="221,-46.1043 217.5,-36.1043 214,-46.1044 221,-46.1043"/>
</g>
<!-- v19 -->
<g id="node14" class="node"><title>v19</title>
<ellipse fill="none" stroke="black" cx="292.5" cy="-18" rx="27" ry="18"/>
<text text-anchor="middle" x="292.5" y="-14.3" font-family="Times,serif" font-size="14.00">19</text>
</g>
<!-- v9&#45;&gt;v19 -->
<g id="edge17" class="edge"><title>v9&#45;&gt;v19</title>
<path fill="none" stroke="black" d="M232.677,-74.8345C243.351,-64.872 257.819,-51.3687 269.853,-40.1371"/>
<polygon fill="black" stroke="black" points="272.423,-42.5264 277.345,-33.1445 267.646,-37.409 272.423,-42.5264"/>
</g>
<!-- v11 -->
<g id="node8" class="node"><title>v11</title>
<ellipse fill="none" stroke="black" cx="289.5" cy="-378" rx="27" ry="18"/>
<text text-anchor="middle" x="289.5" y="-374.3" font-family="Times,serif" font-size="14.00">11</text>
</g>
<!-- v11&#45;&gt;v8 -->
<g id="edge16" class="edge"><title>v11&#45;&gt;v8</title>
<path fill="none" stroke="black" d="M281.15,-360.765C276.788,-352.283 271.353,-341.714 266.459,-332.197"/>
<polygon fill="black" stroke="black" points="269.49,-330.439 261.804,-323.147 263.265,-333.641 269.49,-330.439"/>
</g>
<!-- v16 -->
<g id="node11" class="node"><title>v16</title>
<ellipse fill="none" stroke="black" cx="325.5" cy="-306" rx="27" ry="18"/>
<text text-anchor="middle" x="325.5" y="-302.3" font-family="Times,serif" font-size="14.00">16</text>
</g>
<!-- v11&#45;&gt;v16 -->
<g id="edge1" class="edge"><title>v11&#45;&gt;v16</title>
<path fill="none" stroke="black" d="M297.85,-360.765C302.212,-352.283 307.647,-341.714 312.541,-332.197"/>
<polygon fill="black" stroke="black" points="315.735,-333.641 317.196,-323.147 309.51,-330.439 315.735,-333.641"/>
</g>
<!-- v20 -->
<g id="node15" class="node"><title>v20</title>
<ellipse fill="none" stroke="black" cx="217.5" cy="-162" rx="27" ry="18"/>
<text text-anchor="middle" x="217.5" y="-158.3" font-family="Times,serif" font-size="14.00">20</text>
</g>
<!-- v12&#45;&gt;v20 -->
<g id="edge10" class="edge"><title>v12&#45;&gt;v20</title>
<path fill="none" stroke="black" d="M245.15,-216.765C240.788,-208.283 235.353,-197.714 230.459,-188.197"/>
<polygon fill="black" stroke="black" points="233.49,-186.439 225.804,-179.147 227.265,-189.641 233.49,-186.439"/>
</g>
<!-- v21 -->
<g id="node16" class="node"><title>v21</title>
<ellipse fill="none" stroke="black" cx="289.5" cy="-162" rx="27" ry="18"/>
<text text-anchor="middle" x="289.5" y="-158.3" font-family="Times,serif" font-size="14.00">21</text>
</g>
<!-- v12&#45;&gt;v21 -->
<g id="edge8" class="edge"><title>v12&#45;&gt;v21</title>
<path fill="none" stroke="black" d="M261.85,-216.765C266.212,-208.283 271.647,-197.714 276.541,-188.197"/>
<polygon fill="black" stroke="black" points="279.735,-189.641 281.196,-179.147 273.51,-186.439 279.735,-189.641"/>
</g>
<!-- v18 -->
<g id="node13" class="node"><title>v18</title>
<ellipse fill="none" stroke="black" cx="289.5" cy="-90" rx="27" ry="18"/>
<text text-anchor="middle" x="289.5" y="-86.3" font-family="Times,serif" font-size="14.00">18</text>
</g>
<!-- v20&#45;&gt;p0 -->
<g id="edge9" class="edge"><title>v20&#45;&gt;p0</title>
<path fill="none" stroke="black" d="M202.323,-146.834C192.585,-137.746 179.69,-125.71 168.366,-115.141"/>
<polygon fill="black" stroke="black" points="170.534,-112.377 160.835,-108.113 165.758,-117.495 170.534,-112.377"/>
</g>
<!-- v20&#45;&gt;v9 -->
<g id="edge6" class="edge"><title>v20&#45;&gt;v9</title>
<path fill="none" stroke="black" d="M217.5,-143.697C217.5,-135.983 217.5,-126.712 217.5,-118.112"/>
<polygon fill="black" stroke="black" points="221,-118.104 217.5,-108.104 214,-118.104 221,-118.104"/>
</g>
<!-- v20&#45;&gt;v18 -->
<g id="edge7" class="edge"><title>v20&#45;&gt;v18</title>
<path fill="none" stroke="black" d="M232.07,-146.834C242.25,-136.938 256.024,-123.546 267.531,-112.359"/>
<polygon fill="black" stroke="black" points="269.974,-114.865 274.704,-105.385 265.095,-109.846 269.974,-114.865"/>
</g>
</g>
</svg>
