<?xml version="1.0" encoding="UTF-8" standalone="no"?>
<!DOCTYPE svg PUBLIC "-//W3C//DTD SVG 1.1//EN"
 "http://www.w3.org/Graphics/SVG/1.1/DTD/svg11.dtd">
<!-- Generated by graphviz version 2.38.0 (20140413.2041)
 -->
<!-- Title: %3 Pages: 1 -->
<svg width="1055pt" height="692pt"
 viewBox="0.00 0.00 1055.00 692.00" xmlns="http://www.w3.org/2000/svg" xmlns:xlink="http://www.w3.org/1999/xlink">
<g id="graph0" class="graph" transform="scale(1 1) rotate(0) translate(4 688)">
<title>%3</title>
<polygon fill="white" stroke="none" points="-4,4 -4,-688 1051,-688 1051,4 -4,4"/>
<!-- v0 -->
<g id="node1" class="node"><title>v0</title>
<ellipse fill="none" stroke="black" cx="876" cy="-162" rx="27" ry="18"/>
<text text-anchor="middle" x="876" y="-158.3" font-family="Times,serif" font-size="14.00">0</text>
</g>
<!-- v1 -->
<g id="node2" class="node"><title>v1</title>
<ellipse fill="none" stroke="black" cx="948" cy="-234" rx="27" ry="18"/>
<text text-anchor="middle" x="948" y="-230.3" font-family="Times,serif" font-size="14.00">1</text>
</g>
<!-- v1&#45;&gt;v0 -->
<g id="edge31" class="edge"><title>v1&#45;&gt;v0</title>
<path fill="none" stroke="black" d="M933.43,-218.834C923.25,-208.938 909.476,-195.546 897.969,-184.359"/>
<polygon fill="black" stroke="black" points="900.405,-181.846 890.796,-177.385 895.526,-186.865 900.405,-181.846"/>
</g>
<!-- v2 -->
<g id="node3" class="node"><title>v2</title>
<ellipse fill="none" stroke="black" cx="948" cy="-162" rx="27" ry="18"/>
<text text-anchor="middle" x="948" y="-158.3" font-family="Times,serif" font-size="14.00">2</text>
</g>
<!-- v1&#45;&gt;v2 -->
<g id="edge13" class="edge"><title>v1&#45;&gt;v2</title>
<path fill="none" stroke="black" d="M948,-215.697C948,-207.983 948,-198.712 948,-190.112"/>
<polygon fill="black" stroke="black" points="951.5,-190.104 948,-180.104 944.5,-190.104 951.5,-190.104"/>
</g>
<!-- v3 -->
<g id="node4" class="node"><title>v3</title>
<ellipse fill="none" stroke="black" cx="1020" cy="-162" rx="27" ry="18"/>
<text text-anchor="middle" x="1020" y="-158.3" font-family="Times,serif" font-size="14.00">3</text>
</g>
<!-- v1&#45;&gt;v3 -->
<g id="edge2" class="edge"><title>v1&#45;&gt;v3</title>
<path fill="none" stroke="black" d="M962.57,-218.834C972.75,-208.938 986.524,-195.546 998.031,-184.359"/>
<polygon fill="black" stroke="black" points="1000.47,-186.865 1005.2,-177.385 995.595,-181.846 1000.47,-186.865"/>
</g>
<!-- v4 -->
<g id="node5" class="node"><title>v4</title>
<ellipse fill="none" stroke="black" cx="324" cy="-234" rx="27" ry="18"/>
<text text-anchor="middle" x="324" y="-230.3" font-family="Times,serif" font-size="14.00">4</text>
</g>
<!-- v5 -->
<g id="node6" class="node"><title>v5</title>
<ellipse fill="none" stroke="black" cx="99" cy="-162" rx="27" ry="18"/>
<text text-anchor="middle" x="99" y="-158.3" font-family="Times,serif" font-size="14.00">5</text>
</g>
<!-- v4&#45;&gt;v5 -->
<g id="edge24" class="edge"><title>v4&#45;&gt;v5</title>
<path fill="none" stroke="black" d="M298.807,-227.361C262.17,-218.843 192.307,-201.394 135,-180 133.155,-179.311 131.274,-178.565 129.388,-177.783"/>
<polygon fill="black" stroke="black" points="130.628,-174.504 120.066,-173.67 127.803,-180.909 130.628,-174.504"/>
</g>
<!-- p0 -->
<g id="node8" class="node"><title>p0</title>
<path fill="none" stroke="black" d="M191.5,-180C191.5,-180 156.5,-180 156.5,-180 150.5,-180 144.5,-174 144.5,-168 144.5,-168 144.5,-156 144.5,-156 144.5,-150 150.5,-144 156.5,-144 156.5,-144 191.5,-144 191.5,-144 197.5,-144 203.5,-150 203.5,-156 203.5,-156 203.5,-168 203.5,-168 203.5,-174 197.5,-180 191.5,-180"/>
<text text-anchor="middle" x="174" y="-158.3" font-family="Times,serif" font-size="14.00">path (2)</text>
</g>
<!-- v4&#45;&gt;p0 -->
<g id="edge1" class="edge"><title>v4&#45;&gt;p0</title>
<path fill="none" stroke="black" d="M302.509,-222.971C279.219,-212.102 241.565,-194.53 213.021,-181.21"/>
<polygon fill="black" stroke="black" points="214.267,-177.929 203.725,-176.872 211.307,-184.272 214.267,-177.929"/>
</g>
<!-- v8 -->
<g id="node9" class="node"><title>v8</title>
<ellipse fill="none" stroke="black" cx="249" cy="-162" rx="27" ry="18"/>
<text text-anchor="middle" x="249" y="-158.3" font-family="Times,serif" font-size="14.00">8</text>
</g>
<!-- v4&#45;&gt;v8 -->
<g id="edge4" class="edge"><title>v4&#45;&gt;v8</title>
<path fill="none" stroke="black" d="M308.823,-218.834C298.149,-208.872 283.681,-195.369 271.647,-184.137"/>
<polygon fill="black" stroke="black" points="273.854,-181.409 264.155,-177.144 269.077,-186.526 273.854,-181.409"/>
</g>
<!-- p1 -->
<g id="node11" class="node"><title>p1</title>
<path fill="none" stroke="black" d="M341.5,-180C341.5,-180 306.5,-180 306.5,-180 300.5,-180 294.5,-174 294.5,-168 294.5,-168 294.5,-156 294.5,-156 294.5,-150 300.5,-144 306.5,-144 306.5,-144 341.5,-144 341.5,-144 347.5,-144 353.5,-150 353.5,-156 353.5,-156 353.5,-168 353.5,-168 353.5,-174 347.5,-180 341.5,-180"/>
<text text-anchor="middle" x="324" y="-158.3" font-family="Times,serif" font-size="14.00">path (2)</text>
</g>
<!-- v4&#45;&gt;p1 -->
<g id="edge32" class="edge"><title>v4&#45;&gt;p1</title>
<path fill="none" stroke="black" d="M324,-215.697C324,-207.983 324,-198.712 324,-190.112"/>
<polygon fill="black" stroke="black" points="327.5,-190.104 324,-180.104 320.5,-190.104 327.5,-190.104"/>
</g>
<!-- p2 -->
<g id="node13" class="node"><title>p2</title>
<path fill="none" stroke="black" d="M418.5,-180C418.5,-180 383.5,-180 383.5,-180 377.5,-180 371.5,-174 371.5,-168 371.5,-168 371.5,-156 371.5,-156 371.5,-150 377.5,-144 383.5,-144 383.5,-144 418.5,-144 418.5,-144 424.5,-144 430.5,-150 430.5,-156 430.5,-156 430.5,-168 430.5,-168 430.5,-174 424.5,-180 418.5,-180"/>
<text text-anchor="middle" x="401" y="-158.3" font-family="Times,serif" font-size="14.00">path (2)</text>
</g>
<!-- v4&#45;&gt;p2 -->
<g id="edge15" class="edge"><title>v4&#45;&gt;p2</title>
<path fill="none" stroke="black" d="M339.582,-218.834C349.579,-209.746 362.818,-197.71 374.445,-187.141"/>
<polygon fill="black" stroke="black" points="377.131,-189.429 382.176,-180.113 372.422,-184.25 377.131,-189.429"/>
</g>
<!-- v18 -->
<g id="node16" class="node"><title>v18</title>
<ellipse fill="none" stroke="black" cx="476" cy="-162" rx="27" ry="18"/>
<text text-anchor="middle" x="476" y="-158.3" font-family="Times,serif" font-size="14.00">18</text>
</g>
<!-- v4&#45;&gt;v18 -->
<g id="edge5" class="edge"><title>v4&#45;&gt;v18</title>
<path fill="none" stroke="black" d="M345.298,-222.884C350.126,-220.607 355.235,-218.211 360,-216 395.002,-199.762 403.914,-196.055 439,-180 441.037,-179.068 443.136,-178.106 445.252,-177.136"/>
<polygon fill="black" stroke="black" points="446.855,-180.252 454.484,-172.9 443.935,-173.89 446.855,-180.252"/>
</g>
<!-- p5 -->
<g id="node29" class="node"><title>p5</title>
<path fill="none" stroke="black" d="M568.5,-180C568.5,-180 533.5,-180 533.5,-180 527.5,-180 521.5,-174 521.5,-168 521.5,-168 521.5,-156 521.5,-156 521.5,-150 527.5,-144 533.5,-144 533.5,-144 568.5,-144 568.5,-144 574.5,-144 580.5,-150 580.5,-156 580.5,-156 580.5,-168 580.5,-168 580.5,-174 574.5,-180 568.5,-180"/>
<text text-anchor="middle" x="551" y="-158.3" font-family="Times,serif" font-size="14.00">path (4)</text>
</g>
<!-- v4&#45;&gt;p5 -->
<g id="edge20" class="edge"><title>v4&#45;&gt;p5</title>
<path fill="none" stroke="black" d="M344.631,-222.357C349.582,-220.056 354.912,-217.782 360,-216 425.522,-193.053 446.14,-201.958 512,-180 512.096,-179.968 512.193,-179.936 512.289,-179.903"/>
<polygon fill="black" stroke="black" points="513.226,-183.288 521.403,-176.551 510.81,-176.718 513.226,-183.288"/>
</g>
<!-- v10 -->
<g id="node10" class="node"><title>v10</title>
<ellipse fill="none" stroke="black" cx="27" cy="-90" rx="27" ry="18"/>
<text text-anchor="middle" x="27" y="-86.3" font-family="Times,serif" font-size="14.00">10</text>
</g>
<!-- v5&#45;&gt;v10 -->
<g id="edge35" class="edge"><title>v5&#45;&gt;v10</title>
<path fill="none" stroke="black" d="M84.4297,-146.834C74.2501,-136.938 60.4761,-123.546 48.9694,-112.359"/>
<polygon fill="black" stroke="black" points="51.4055,-109.846 41.7957,-105.385 46.5259,-114.865 51.4055,-109.846"/>
</g>
<!-- v52 -->
<g id="node38" class="node"><title>v52</title>
<ellipse fill="none" stroke="black" cx="99" cy="-90" rx="27" ry="18"/>
<text text-anchor="middle" x="99" y="-86.3" font-family="Times,serif" font-size="14.00">52</text>
</g>
<!-- v5&#45;&gt;v52 -->
<g id="edge28" class="edge"><title>v5&#45;&gt;v52</title>
<path fill="none" stroke="black" d="M99,-143.697C99,-135.983 99,-126.712 99,-118.112"/>
<polygon fill="black" stroke="black" points="102.5,-118.104 99,-108.104 95.5001,-118.104 102.5,-118.104"/>
</g>
<!-- v61 -->
<g id="node40" class="node"><title>v61</title>
<ellipse fill="none" stroke="black" cx="171" cy="-90" rx="27" ry="18"/>
<text text-anchor="middle" x="171" y="-86.3" font-family="Times,serif" font-size="14.00">61</text>
</g>
<!-- v5&#45;&gt;v61 -->
<g id="edge11" class="edge"><title>v5&#45;&gt;v61</title>
<path fill="none" stroke="black" d="M113.57,-146.834C123.75,-136.938 137.524,-123.546 149.031,-112.359"/>
<polygon fill="black" stroke="black" points="151.474,-114.865 156.204,-105.385 146.595,-109.846 151.474,-114.865"/>
</g>
<!-- v6 -->
<g id="node7" class="node"><title>v6</title>
<ellipse fill="none" stroke="black" cx="396" cy="-306" rx="27" ry="18"/>
<text text-anchor="middle" x="396" y="-302.3" font-family="Times,serif" font-size="14.00">6</text>
</g>
<!-- v6&#45;&gt;v4 -->
<g id="edge21" class="edge"><title>v6&#45;&gt;v4</title>
<path fill="none" stroke="black" d="M381.43,-290.834C371.25,-280.938 357.476,-267.546 345.969,-256.359"/>
<polygon fill="black" stroke="black" points="348.405,-253.846 338.796,-249.385 343.526,-258.865 348.405,-253.846"/>
</g>
<!-- v15 -->
<g id="node14" class="node"><title>v15</title>
<ellipse fill="none" stroke="black" cx="396" cy="-234" rx="27" ry="18"/>
<text text-anchor="middle" x="396" y="-230.3" font-family="Times,serif" font-size="14.00">15</text>
</g>
<!-- v6&#45;&gt;v15 -->
<g id="edge19" class="edge"><title>v6&#45;&gt;v15</title>
<path fill="none" stroke="black" d="M396,-287.697C396,-279.983 396,-270.712 396,-262.112"/>
<polygon fill="black" stroke="black" points="399.5,-262.104 396,-252.104 392.5,-262.104 399.5,-262.104"/>
</g>
<!-- v16 -->
<g id="node15" class="node"><title>v16</title>
<ellipse fill="none" stroke="black" cx="249" cy="-90" rx="27" ry="18"/>
<text text-anchor="middle" x="249" y="-86.3" font-family="Times,serif" font-size="14.00">16</text>
</g>
<!-- v8&#45;&gt;v16 -->
<g id="edge18" class="edge"><title>v8&#45;&gt;v16</title>
<path fill="none" stroke="black" d="M249,-143.697C249,-135.983 249,-126.712 249,-118.112"/>
<polygon fill="black" stroke="black" points="252.5,-118.104 249,-108.104 245.5,-118.104 252.5,-118.104"/>
</g>
<!-- v12 -->
<g id="node12" class="node"><title>v12</title>
<ellipse fill="none" stroke="black" cx="212" cy="-18" rx="27" ry="18"/>
<text text-anchor="middle" x="212" y="-14.3" font-family="Times,serif" font-size="14.00">12</text>
</g>
<!-- v16&#45;&gt;v12 -->
<g id="edge33" class="edge"><title>v16&#45;&gt;v12</title>
<path fill="none" stroke="black" d="M240.418,-72.7646C235.935,-64.2831 230.349,-53.7144 225.319,-44.1974"/>
<polygon fill="black" stroke="black" points="228.302,-42.3527 220.535,-35.1473 222.114,-45.6239 228.302,-42.3527"/>
</g>
<!-- p11 -->
<g id="node39" class="node"><title>p11</title>
<path fill="none" stroke="black" d="M304.5,-36C304.5,-36 269.5,-36 269.5,-36 263.5,-36 257.5,-30 257.5,-24 257.5,-24 257.5,-12 257.5,-12 257.5,-6 263.5,-0 269.5,-0 269.5,-0 304.5,-0 304.5,-0 310.5,-0 316.5,-6 316.5,-12 316.5,-12 316.5,-24 316.5,-24 316.5,-30 310.5,-36 304.5,-36"/>
<text text-anchor="middle" x="287" y="-14.3" font-family="Times,serif" font-size="14.00">path (3)</text>
</g>
<!-- v16&#45;&gt;p11 -->
<g id="edge36" class="edge"><title>v16&#45;&gt;p11</title>
<path fill="none" stroke="black" d="M257.813,-72.7646C262.286,-64.5255 267.828,-54.3166 272.877,-45.0157"/>
<polygon fill="black" stroke="black" points="276.009,-46.5823 277.704,-36.1239 269.857,-43.2426 276.009,-46.5823"/>
</g>
<!-- v19 -->
<g id="node17" class="node"><title>v19</title>
<ellipse fill="none" stroke="black" cx="468" cy="-234" rx="27" ry="18"/>
<text text-anchor="middle" x="468" y="-230.3" font-family="Times,serif" font-size="14.00">19</text>
</g>
<!-- v20 -->
<g id="node18" class="node"><title>v20</title>
<ellipse fill="none" stroke="black" cx="504" cy="-306" rx="27" ry="18"/>
<text text-anchor="middle" x="504" y="-302.3" font-family="Times,serif" font-size="14.00">20</text>
</g>
<!-- v20&#45;&gt;v19 -->
<g id="edge29" class="edge"><title>v20&#45;&gt;v19</title>
<path fill="none" stroke="black" d="M495.65,-288.765C491.288,-280.283 485.853,-269.714 480.959,-260.197"/>
<polygon fill="black" stroke="black" points="483.99,-258.439 476.304,-251.147 477.765,-261.641 483.99,-258.439"/>
</g>
<!-- v29 -->
<g id="node26" class="node"><title>v29</title>
<ellipse fill="none" stroke="black" cx="540" cy="-234" rx="27" ry="18"/>
<text text-anchor="middle" x="540" y="-230.3" font-family="Times,serif" font-size="14.00">29</text>
</g>
<!-- v20&#45;&gt;v29 -->
<g id="edge8" class="edge"><title>v20&#45;&gt;v29</title>
<path fill="none" stroke="black" d="M512.35,-288.765C516.712,-280.283 522.147,-269.714 527.041,-260.197"/>
<polygon fill="black" stroke="black" points="530.235,-261.641 531.696,-251.147 524.01,-258.439 530.235,-261.641"/>
</g>
<!-- p10 -->
<g id="node36" class="node"><title>p10</title>
<path fill="none" stroke="black" d="M632.5,-252C632.5,-252 597.5,-252 597.5,-252 591.5,-252 585.5,-246 585.5,-240 585.5,-240 585.5,-228 585.5,-228 585.5,-222 591.5,-216 597.5,-216 597.5,-216 632.5,-216 632.5,-216 638.5,-216 644.5,-222 644.5,-228 644.5,-228 644.5,-240 644.5,-240 644.5,-246 638.5,-252 632.5,-252"/>
<text text-anchor="middle" x="615" y="-230.3" font-family="Times,serif" font-size="14.00">path (2)</text>
</g>
<!-- v20&#45;&gt;p10 -->
<g id="edge12" class="edge"><title>v20&#45;&gt;p10</title>
<path fill="none" stroke="black" d="M523.082,-292.967C538.493,-283.248 560.611,-269.299 579.289,-257.52"/>
<polygon fill="black" stroke="black" points="581.273,-260.407 587.864,-252.113 577.539,-254.486 581.273,-260.407"/>
</g>
<!-- v21 -->
<g id="node19" class="node"><title>v21</title>
<ellipse fill="none" stroke="black" cx="726" cy="-378" rx="27" ry="18"/>
<text text-anchor="middle" x="726" y="-374.3" font-family="Times,serif" font-size="14.00">21</text>
</g>
<!-- v21&#45;&gt;v6 -->
<g id="edge10" class="edge"><title>v21&#45;&gt;v6</title>
<path fill="none" stroke="black" d="M700.314,-371.982C653.863,-362.85 552.839,-342.726 468,-324 455.875,-321.324 442.639,-318.244 430.861,-315.448"/>
<polygon fill="black" stroke="black" points="431.489,-312 420.95,-313.08 429.863,-318.808 431.489,-312"/>
</g>
<!-- v21&#45;&gt;v20 -->
<g id="edge14" class="edge"><title>v21&#45;&gt;v20</title>
<path fill="none" stroke="black" d="M700.911,-371.237C664.782,-362.628 596.263,-345.138 540,-324 538.156,-323.307 536.276,-322.558 534.392,-321.773"/>
<polygon fill="black" stroke="black" points="535.634,-318.496 525.072,-317.655 532.804,-324.898 535.634,-318.496"/>
</g>
<!-- v22 -->
<g id="node20" class="node"><title>v22</title>
<ellipse fill="none" stroke="black" cx="576" cy="-306" rx="27" ry="18"/>
<text text-anchor="middle" x="576" y="-302.3" font-family="Times,serif" font-size="14.00">22</text>
</g>
<!-- v21&#45;&gt;v22 -->
<g id="edge37" class="edge"><title>v21&#45;&gt;v22</title>
<path fill="none" stroke="black" d="M704.127,-366.878C681.164,-356.241 644.018,-339.002 612,-324 610.216,-323.164 608.383,-322.304 606.535,-321.435"/>
<polygon fill="black" stroke="black" points="607.848,-318.185 597.31,-317.089 604.865,-324.517 607.848,-318.185"/>
</g>
<!-- p3 -->
<g id="node21" class="node"><title>p3</title>
<path fill="none" stroke="black" d="M668.5,-324C668.5,-324 633.5,-324 633.5,-324 627.5,-324 621.5,-318 621.5,-312 621.5,-312 621.5,-300 621.5,-300 621.5,-294 627.5,-288 633.5,-288 633.5,-288 668.5,-288 668.5,-288 674.5,-288 680.5,-294 680.5,-300 680.5,-300 680.5,-312 680.5,-312 680.5,-318 674.5,-324 668.5,-324"/>
<text text-anchor="middle" x="651" y="-302.3" font-family="Times,serif" font-size="14.00">path (2)</text>
</g>
<!-- v21&#45;&gt;p3 -->
<g id="edge25" class="edge"><title>v21&#45;&gt;p3</title>
<path fill="none" stroke="black" d="M710.823,-362.834C701.085,-353.746 688.19,-341.71 676.866,-331.141"/>
<polygon fill="black" stroke="black" points="679.034,-328.377 669.335,-324.113 674.258,-333.495 679.034,-328.377"/>
</g>
<!-- v25 -->
<g id="node23" class="node"><title>v25</title>
<ellipse fill="none" stroke="black" cx="726" cy="-306" rx="27" ry="18"/>
<text text-anchor="middle" x="726" y="-302.3" font-family="Times,serif" font-size="14.00">25</text>
</g>
<!-- v21&#45;&gt;v25 -->
<g id="edge34" class="edge"><title>v21&#45;&gt;v25</title>
<path fill="none" stroke="black" d="M726,-359.697C726,-351.983 726,-342.712 726,-334.112"/>
<polygon fill="black" stroke="black" points="729.5,-334.104 726,-324.104 722.5,-334.104 729.5,-334.104"/>
</g>
<!-- v26 -->
<g id="node24" class="node"><title>v26</title>
<ellipse fill="none" stroke="black" cx="798" cy="-306" rx="27" ry="18"/>
<text text-anchor="middle" x="798" y="-302.3" font-family="Times,serif" font-size="14.00">26</text>
</g>
<!-- v21&#45;&gt;v26 -->
<g id="edge23" class="edge"><title>v21&#45;&gt;v26</title>
<path fill="none" stroke="black" d="M740.57,-362.834C750.75,-352.938 764.524,-339.546 776.031,-328.359"/>
<polygon fill="black" stroke="black" points="778.474,-330.865 783.204,-321.385 773.595,-325.846 778.474,-330.865"/>
</g>
<!-- p4 -->
<g id="node25" class="node"><title>p4</title>
<path fill="none" stroke="black" d="M890.5,-324C890.5,-324 855.5,-324 855.5,-324 849.5,-324 843.5,-318 843.5,-312 843.5,-312 843.5,-300 843.5,-300 843.5,-294 849.5,-288 855.5,-288 855.5,-288 890.5,-288 890.5,-288 896.5,-288 902.5,-294 902.5,-300 902.5,-300 902.5,-312 902.5,-312 902.5,-318 896.5,-324 890.5,-324"/>
<text text-anchor="middle" x="873" y="-302.3" font-family="Times,serif" font-size="14.00">path (3)</text>
</g>
<!-- v21&#45;&gt;p4 -->
<g id="edge6" class="edge"><title>v21&#45;&gt;p4</title>
<path fill="none" stroke="black" d="M747.375,-366.821C770.125,-355.988 806.603,-338.618 834.403,-325.379"/>
<polygon fill="black" stroke="black" points="835.943,-328.523 843.466,-321.064 832.933,-322.203 835.943,-328.523"/>
</g>
<!-- v30 -->
<g id="node27" class="node"><title>v30</title>
<ellipse fill="none" stroke="black" cx="948" cy="-306" rx="27" ry="18"/>
<text text-anchor="middle" x="948" y="-302.3" font-family="Times,serif" font-size="14.00">30</text>
</g>
<!-- v21&#45;&gt;v30 -->
<g id="edge27" class="edge"><title>v21&#45;&gt;v30</title>
<path fill="none" stroke="black" d="M746.636,-366.374C751.588,-364.072 756.916,-361.793 762,-360 826.248,-337.337 846.634,-346.326 911,-324 913.116,-323.266 915.276,-322.453 917.435,-321.592"/>
<polygon fill="black" stroke="black" points="918.946,-324.753 926.767,-317.606 916.196,-318.316 918.946,-324.753"/>
</g>
<!-- v51 -->
<g id="node37" class="node"><title>v51</title>
<ellipse fill="none" stroke="black" cx="1020" cy="-306" rx="27" ry="18"/>
<text text-anchor="middle" x="1020" y="-302.3" font-family="Times,serif" font-size="14.00">51</text>
</g>
<!-- v21&#45;&gt;v51 -->
<g id="edge22" class="edge"><title>v21&#45;&gt;v51</title>
<path fill="none" stroke="black" d="M746.543,-366.091C751.498,-363.801 756.851,-361.598 762,-360 857.462,-330.368 888.538,-353.632 984,-324 985.931,-323.401 987.89,-322.716 989.847,-321.974"/>
<polygon fill="black" stroke="black" points="991.611,-325.028 999.457,-317.909 988.884,-318.581 991.611,-325.028"/>
</g>
<!-- v24 -->
<g id="node22" class="node"><title>v24</title>
<ellipse fill="none" stroke="black" cx="801" cy="-450" rx="27" ry="18"/>
<text text-anchor="middle" x="801" y="-446.3" font-family="Times,serif" font-size="14.00">24</text>
</g>
<!-- v24&#45;&gt;v21 -->
<g id="edge39" class="edge"><title>v24&#45;&gt;v21</title>
<path fill="none" stroke="black" d="M785.823,-434.834C775.149,-424.872 760.681,-411.369 748.647,-400.137"/>
<polygon fill="black" stroke="black" points="750.854,-397.409 741.155,-393.144 746.077,-402.526 750.854,-397.409"/>
</g>
<!-- p8 -->
<g id="node34" class="node"><title>p8</title>
<path fill="none" stroke="black" d="M818.5,-396C818.5,-396 783.5,-396 783.5,-396 777.5,-396 771.5,-390 771.5,-384 771.5,-384 771.5,-372 771.5,-372 771.5,-366 777.5,-360 783.5,-360 783.5,-360 818.5,-360 818.5,-360 824.5,-360 830.5,-366 830.5,-372 830.5,-372 830.5,-384 830.5,-384 830.5,-390 824.5,-396 818.5,-396"/>
<text text-anchor="middle" x="801" y="-374.3" font-family="Times,serif" font-size="14.00">path (2)</text>
</g>
<!-- v24&#45;&gt;p8 -->
<g id="edge9" class="edge"><title>v24&#45;&gt;p8</title>
<path fill="none" stroke="black" d="M801,-431.697C801,-423.983 801,-414.712 801,-406.112"/>
<polygon fill="black" stroke="black" points="804.5,-406.104 801,-396.104 797.5,-406.104 804.5,-406.104"/>
</g>
<!-- p9 -->
<g id="node35" class="node"><title>p9</title>
<path fill="none" stroke="black" d="M895.5,-396C895.5,-396 860.5,-396 860.5,-396 854.5,-396 848.5,-390 848.5,-384 848.5,-384 848.5,-372 848.5,-372 848.5,-366 854.5,-360 860.5,-360 860.5,-360 895.5,-360 895.5,-360 901.5,-360 907.5,-366 907.5,-372 907.5,-372 907.5,-384 907.5,-384 907.5,-390 901.5,-396 895.5,-396"/>
<text text-anchor="middle" x="878" y="-374.3" font-family="Times,serif" font-size="14.00">path (2)</text>
</g>
<!-- v24&#45;&gt;p9 -->
<g id="edge38" class="edge"><title>v24&#45;&gt;p9</title>
<path fill="none" stroke="black" d="M816.582,-434.834C826.579,-425.746 839.818,-413.71 851.445,-403.141"/>
<polygon fill="black" stroke="black" points="854.131,-405.429 859.176,-396.113 849.422,-400.25 854.131,-405.429"/>
</g>
<!-- v30&#45;&gt;v1 -->
<g id="edge7" class="edge"><title>v30&#45;&gt;v1</title>
<path fill="none" stroke="black" d="M948,-287.697C948,-279.983 948,-270.712 948,-262.112"/>
<polygon fill="black" stroke="black" points="951.5,-262.104 948,-252.104 944.5,-262.104 951.5,-262.104"/>
</g>
<!-- v31 -->
<g id="node28" class="node"><title>v31</title>
<ellipse fill="none" stroke="black" cx="838" cy="-594" rx="27" ry="18"/>
<text text-anchor="middle" x="838" y="-590.3" font-family="Times,serif" font-size="14.00">31</text>
</g>
<!-- p6 -->
<g id="node30" class="node"><title>p6</title>
<path fill="none" stroke="black" d="M818.5,-540C818.5,-540 783.5,-540 783.5,-540 777.5,-540 771.5,-534 771.5,-528 771.5,-528 771.5,-516 771.5,-516 771.5,-510 777.5,-504 783.5,-504 783.5,-504 818.5,-504 818.5,-504 824.5,-504 830.5,-510 830.5,-516 830.5,-516 830.5,-528 830.5,-528 830.5,-534 824.5,-540 818.5,-540"/>
<text text-anchor="middle" x="801" y="-518.3" font-family="Times,serif" font-size="14.00">path (7)</text>
</g>
<!-- v31&#45;&gt;p6 -->
<g id="edge16" class="edge"><title>v31&#45;&gt;p6</title>
<path fill="none" stroke="black" d="M829.418,-576.765C825.063,-568.525 819.667,-558.317 814.751,-549.016"/>
<polygon fill="black" stroke="black" points="817.819,-547.329 810.051,-540.124 811.63,-550.6 817.819,-547.329"/>
</g>
<!-- v40 -->
<g id="node33" class="node"><title>v40</title>
<ellipse fill="none" stroke="black" cx="876" cy="-522" rx="27" ry="18"/>
<text text-anchor="middle" x="876" y="-518.3" font-family="Times,serif" font-size="14.00">40</text>
</g>
<!-- v31&#45;&gt;v40 -->
<g id="edge3" class="edge"><title>v31&#45;&gt;v40</title>
<path fill="none" stroke="black" d="M846.813,-576.765C851.418,-568.283 857.155,-557.714 862.321,-548.197"/>
<polygon fill="black" stroke="black" points="865.539,-549.606 867.234,-539.147 859.387,-546.266 865.539,-549.606"/>
</g>
<!-- p6&#45;&gt;v24 -->
<g id="edge26" class="edge"><title>p6&#45;&gt;v24</title>
<path fill="none" stroke="black" d="M801,-503.697C801,-495.983 801,-486.712 801,-478.112"/>
<polygon fill="black" stroke="black" points="804.5,-478.104 801,-468.104 797.5,-478.104 804.5,-478.104"/>
</g>
<!-- p7 -->
<g id="node31" class="node"><title>p7</title>
<path fill="none" stroke="black" d="M930.5,-612C930.5,-612 895.5,-612 895.5,-612 889.5,-612 883.5,-606 883.5,-600 883.5,-600 883.5,-588 883.5,-588 883.5,-582 889.5,-576 895.5,-576 895.5,-576 930.5,-576 930.5,-576 936.5,-576 942.5,-582 942.5,-588 942.5,-588 942.5,-600 942.5,-600 942.5,-606 936.5,-612 930.5,-612"/>
<text text-anchor="middle" x="913" y="-590.3" font-family="Times,serif" font-size="14.00">path (3)</text>
</g>
<!-- v36 -->
<g id="node32" class="node"><title>v36</title>
<ellipse fill="none" stroke="black" cx="875" cy="-666" rx="27" ry="18"/>
<text text-anchor="middle" x="875" y="-662.3" font-family="Times,serif" font-size="14.00">36</text>
</g>
<!-- v36&#45;&gt;v31 -->
<g id="edge17" class="edge"><title>v36&#45;&gt;v31</title>
<path fill="none" stroke="black" d="M866.418,-648.765C861.935,-640.283 856.349,-629.714 851.319,-620.197"/>
<polygon fill="black" stroke="black" points="854.302,-618.353 846.535,-611.147 848.114,-621.624 854.302,-618.353"/>
</g>
<!-- v36&#45;&gt;p7 -->
<g id="edge30" class="edge"><title>v36&#45;&gt;p7</title>
<path fill="none" stroke="black" d="M883.813,-648.765C888.286,-640.525 893.828,-630.317 898.877,-621.016"/>
<polygon fill="black" stroke="black" points="902.009,-622.582 903.704,-612.124 895.857,-619.243 902.009,-622.582"/>
</g>
</g>
</svg>
