<?xml version="1.0" encoding="UTF-8" standalone="no"?>
<!DOCTYPE svg PUBLIC "-//W3C//DTD SVG 1.1//EN"
 "http://www.w3.org/Graphics/SVG/1.1/DTD/svg11.dtd">
<!-- Generated by graphviz version 2.38.0 (20140413.2041)
 -->
<!-- Title: %3 Pages: 1 -->
<svg width="583pt" height="332pt"
 viewBox="0.00 0.00 583.00 332.00" xmlns="http://www.w3.org/2000/svg" xmlns:xlink="http://www.w3.org/1999/xlink">
<g id="graph0" class="graph" transform="scale(1 1) rotate(0) translate(4 328)">
<title>%3</title>
<polygon fill="white" stroke="none" points="-4,4 -4,-328 579,-328 579,4 -4,4"/>
<!-- v0 -->
<g id="node1" class="node"><title>v0</title>
<ellipse fill="none" stroke="black" cx="27" cy="-18" rx="27" ry="18"/>
<text text-anchor="middle" x="27" y="-14.3" font-family="Times,serif" font-size="14.00">0</text>
</g>
<!-- p0 -->
<g id="node2" class="node"><title>p0</title>
<path fill="none" stroke="black" d="M119.5,-36C119.5,-36 84.5,-36 84.5,-36 78.5,-36 72.5,-30 72.5,-24 72.5,-24 72.5,-12 72.5,-12 72.5,-6 78.5,-0 84.5,-0 84.5,-0 119.5,-0 119.5,-0 125.5,-0 131.5,-6 131.5,-12 131.5,-12 131.5,-24 131.5,-24 131.5,-30 125.5,-36 119.5,-36"/>
<text text-anchor="middle" x="102" y="-14.3" font-family="Times,serif" font-size="14.00">path (2)</text>
</g>
<!-- v3 -->
<g id="node3" class="node"><title>v3</title>
<ellipse fill="none" stroke="black" cx="218" cy="-90" rx="27" ry="18"/>
<text text-anchor="middle" x="218" y="-86.3" font-family="Times,serif" font-size="14.00">3</text>
</g>
<!-- v4 -->
<g id="node4" class="node"><title>v4</title>
<ellipse fill="none" stroke="black" cx="177" cy="-18" rx="27" ry="18"/>
<text text-anchor="middle" x="177" y="-14.3" font-family="Times,serif" font-size="14.00">4</text>
</g>
<!-- v5 -->
<g id="node5" class="node"><title>v5</title>
<ellipse fill="none" stroke="black" cx="290" cy="-90" rx="27" ry="18"/>
<text text-anchor="middle" x="290" y="-86.3" font-family="Times,serif" font-size="14.00">5</text>
</g>
<!-- v5&#45;&gt;v0 -->
<g id="edge11" class="edge"><title>v5&#45;&gt;v0</title>
<path fill="none" stroke="black" d="M269.427,-78.186C264.473,-75.8919 259.128,-73.6638 254,-72 171.833,-45.3406 145.167,-62.6594 63,-36 61.077,-35.3761 59.1234,-34.6728 57.1714,-33.9164"/>
<polygon fill="black" stroke="black" points="58.1437,-30.5258 47.5728,-29.814 55.3926,-36.9625 58.1437,-30.5258"/>
</g>
<!-- v5&#45;&gt;p0 -->
<g id="edge13" class="edge"><title>v5&#45;&gt;p0</title>
<path fill="none" stroke="black" d="M268.885,-78.4574C264.047,-76.2026 258.888,-73.923 254,-72 204.95,-52.7039 190.335,-54.5554 141,-36 140.905,-35.9642 140.81,-35.9284 140.715,-35.8924"/>
<polygon fill="black" stroke="black" points="142.268,-32.7431 131.681,-32.3123 139.688,-39.2507 142.268,-32.7431"/>
</g>
<!-- v5&#45;&gt;v4 -->
<g id="edge2" class="edge"><title>v5&#45;&gt;v4</title>
<path fill="none" stroke="black" d="M270.831,-77.1255C252.73,-65.9126 225.377,-48.9681 204.867,-36.2626"/>
<polygon fill="black" stroke="black" points="206.607,-33.2236 196.263,-30.9328 202.921,-39.1744 206.607,-33.2236"/>
</g>
<!-- p1 -->
<g id="node6" class="node"><title>p1</title>
<path fill="none" stroke="black" d="M269.5,-36C269.5,-36 234.5,-36 234.5,-36 228.5,-36 222.5,-30 222.5,-24 222.5,-24 222.5,-12 222.5,-12 222.5,-6 228.5,-0 234.5,-0 234.5,-0 269.5,-0 269.5,-0 275.5,-0 281.5,-6 281.5,-12 281.5,-12 281.5,-24 281.5,-24 281.5,-30 275.5,-36 269.5,-36"/>
<text text-anchor="middle" x="252" y="-14.3" font-family="Times,serif" font-size="14.00">path (2)</text>
</g>
<!-- v5&#45;&gt;p1 -->
<g id="edge5" class="edge"><title>v5&#45;&gt;p1</title>
<path fill="none" stroke="black" d="M281.187,-72.7646C276.714,-64.5255 271.172,-54.3166 266.123,-45.0157"/>
<polygon fill="black" stroke="black" points="269.143,-43.2426 261.296,-36.1239 262.991,-46.5823 269.143,-43.2426"/>
</g>
<!-- p3 -->
<g id="node10" class="node"><title>p3</title>
<path fill="none" stroke="black" d="M346.5,-36C346.5,-36 311.5,-36 311.5,-36 305.5,-36 299.5,-30 299.5,-24 299.5,-24 299.5,-12 299.5,-12 299.5,-6 305.5,-0 311.5,-0 311.5,-0 346.5,-0 346.5,-0 352.5,-0 358.5,-6 358.5,-12 358.5,-12 358.5,-24 358.5,-24 358.5,-30 352.5,-36 346.5,-36"/>
<text text-anchor="middle" x="329" y="-14.3" font-family="Times,serif" font-size="14.00">path (2)</text>
</g>
<!-- v5&#45;&gt;p3 -->
<g id="edge3" class="edge"><title>v5&#45;&gt;p3</title>
<path fill="none" stroke="black" d="M299.045,-72.7646C303.636,-64.5255 309.324,-54.3166 314.506,-45.0157"/>
<polygon fill="black" stroke="black" points="317.65,-46.5631 319.46,-36.1239 311.535,-43.1561 317.65,-46.5631"/>
</g>
<!-- v12 -->
<g id="node11" class="node"><title>v12</title>
<ellipse fill="none" stroke="black" cx="404" cy="-18" rx="27" ry="18"/>
<text text-anchor="middle" x="404" y="-14.3" font-family="Times,serif" font-size="14.00">12</text>
</g>
<!-- v5&#45;&gt;v12 -->
<g id="edge7" class="edge"><title>v5&#45;&gt;v12</title>
<path fill="none" stroke="black" d="M309.339,-77.1255C327.599,-65.9126 355.195,-48.9681 375.887,-36.2626"/>
<polygon fill="black" stroke="black" points="377.876,-39.1481 384.567,-30.9328 374.213,-33.1829 377.876,-39.1481"/>
</g>
<!-- v13 -->
<g id="node12" class="node"><title>v13</title>
<ellipse fill="none" stroke="black" cx="476" cy="-18" rx="27" ry="18"/>
<text text-anchor="middle" x="476" y="-14.3" font-family="Times,serif" font-size="14.00">13</text>
</g>
<!-- v5&#45;&gt;v13 -->
<g id="edge8" class="edge"><title>v5&#45;&gt;v13</title>
<path fill="none" stroke="black" d="M313.922,-81.3808C343.764,-71.6865 396.197,-54.0265 440,-36 441.822,-35.2503 443.684,-34.4569 445.555,-33.6387"/>
<polygon fill="black" stroke="black" points="447.177,-36.7465 454.839,-29.4297 444.286,-30.371 447.177,-36.7465"/>
</g>
<!-- v15 -->
<g id="node13" class="node"><title>v15</title>
<ellipse fill="none" stroke="black" cx="548" cy="-18" rx="27" ry="18"/>
<text text-anchor="middle" x="548" y="-14.3" font-family="Times,serif" font-size="14.00">15</text>
</g>
<!-- v5&#45;&gt;v15 -->
<g id="edge9" class="edge"><title>v5&#45;&gt;v15</title>
<path fill="none" stroke="black" d="M315.796,-84.6367C357.7,-77.1528 442.836,-60.2921 512,-36 513.907,-35.33 515.849,-34.5913 517.792,-33.8081"/>
<polygon fill="black" stroke="black" points="519.598,-36.8392 527.367,-29.636 516.801,-30.4219 519.598,-36.8392"/>
</g>
<!-- v7 -->
<g id="node7" class="node"><title>v7</title>
<ellipse fill="none" stroke="black" cx="291" cy="-306" rx="27" ry="18"/>
<text text-anchor="middle" x="291" y="-302.3" font-family="Times,serif" font-size="14.00">7</text>
</g>
<!-- p2 -->
<g id="node8" class="node"><title>p2</title>
<path fill="none" stroke="black" d="M271.5,-252C271.5,-252 236.5,-252 236.5,-252 230.5,-252 224.5,-246 224.5,-240 224.5,-240 224.5,-228 224.5,-228 224.5,-222 230.5,-216 236.5,-216 236.5,-216 271.5,-216 271.5,-216 277.5,-216 283.5,-222 283.5,-228 283.5,-228 283.5,-240 283.5,-240 283.5,-246 277.5,-252 271.5,-252"/>
<text text-anchor="middle" x="254" y="-230.3" font-family="Times,serif" font-size="14.00">path (2)</text>
</g>
<!-- v7&#45;&gt;p2 -->
<g id="edge6" class="edge"><title>v7&#45;&gt;p2</title>
<path fill="none" stroke="black" d="M282.418,-288.765C278.063,-280.525 272.667,-270.317 267.751,-261.016"/>
<polygon fill="black" stroke="black" points="270.819,-259.329 263.051,-252.124 264.63,-262.6 270.819,-259.329"/>
</g>
<!-- v17 -->
<g id="node14" class="node"><title>v17</title>
<ellipse fill="none" stroke="black" cx="329" cy="-234" rx="27" ry="18"/>
<text text-anchor="middle" x="329" y="-230.3" font-family="Times,serif" font-size="14.00">17</text>
</g>
<!-- v7&#45;&gt;v17 -->
<g id="edge12" class="edge"><title>v7&#45;&gt;v17</title>
<path fill="none" stroke="black" d="M299.813,-288.765C304.418,-280.283 310.155,-269.714 315.321,-260.197"/>
<polygon fill="black" stroke="black" points="318.539,-261.606 320.234,-251.147 312.387,-258.266 318.539,-261.606"/>
</g>
<!-- v10 -->
<g id="node9" class="node"><title>v10</title>
<ellipse fill="none" stroke="black" cx="254" cy="-162" rx="27" ry="18"/>
<text text-anchor="middle" x="254" y="-158.3" font-family="Times,serif" font-size="14.00">10</text>
</g>
<!-- p2&#45;&gt;v10 -->
<g id="edge1" class="edge"><title>p2&#45;&gt;v10</title>
<path fill="none" stroke="black" d="M254,-215.697C254,-207.983 254,-198.712 254,-190.112"/>
<polygon fill="black" stroke="black" points="257.5,-190.104 254,-180.104 250.5,-190.104 257.5,-190.104"/>
</g>
<!-- v10&#45;&gt;v3 -->
<g id="edge10" class="edge"><title>v10&#45;&gt;v3</title>
<path fill="none" stroke="black" d="M245.65,-144.765C241.288,-136.283 235.853,-125.714 230.959,-116.197"/>
<polygon fill="black" stroke="black" points="233.99,-114.439 226.304,-107.147 227.765,-117.641 233.99,-114.439"/>
</g>
<!-- v10&#45;&gt;v5 -->
<g id="edge4" class="edge"><title>v10&#45;&gt;v5</title>
<path fill="none" stroke="black" d="M262.35,-144.765C266.712,-136.283 272.147,-125.714 277.041,-116.197"/>
<polygon fill="black" stroke="black" points="280.235,-117.641 281.696,-107.147 274.01,-114.439 280.235,-117.641"/>
</g>
</g>
</svg>
