<?xml version="1.0" encoding="UTF-8" standalone="no"?>
<!DOCTYPE svg PUBLIC "-//W3C//DTD SVG 1.1//EN"
 "http://www.w3.org/Graphics/SVG/1.1/DTD/svg11.dtd">
<!-- Generated by graphviz version 2.38.0 (20140413.2041)
 -->
<!-- Title: %3 Pages: 1 -->
<svg width="362pt" height="260pt"
 viewBox="0.00 0.00 361.50 260.00" xmlns="http://www.w3.org/2000/svg" xmlns:xlink="http://www.w3.org/1999/xlink">
<g id="graph0" class="graph" transform="scale(1 1) rotate(0) translate(4 256)">
<title>%3</title>
<polygon fill="white" stroke="none" points="-4,4 -4,-256 357.5,-256 357.5,4 -4,4"/>
<!-- v0 -->
<g id="node1" class="node"><title>v0</title>
<ellipse fill="none" stroke="black" cx="136" cy="-162" rx="27" ry="18"/>
<text text-anchor="middle" x="136" y="-158.3" font-family="Times,serif" font-size="14.00">0</text>
</g>
<!-- v1 -->
<g id="node2" class="node"><title>v1</title>
<ellipse fill="none" stroke="black" cx="27" cy="-90" rx="27" ry="18"/>
<text text-anchor="middle" x="27" y="-86.3" font-family="Times,serif" font-size="14.00">1</text>
</g>
<!-- v0&#45;&gt;v1 -->
<g id="edge1" class="edge"><title>v0&#45;&gt;v1</title>
<path fill="none" stroke="black" d="M117.014,-148.807C99.6645,-137.665 73.8111,-121.062 54.2568,-108.504"/>
<polygon fill="black" stroke="black" points="56.0744,-105.512 45.7688,-103.053 52.2918,-111.402 56.0744,-105.512"/>
</g>
<!-- v2 -->
<g id="node3" class="node"><title>v2</title>
<ellipse fill="none" stroke="black" cx="99" cy="-90" rx="27" ry="18"/>
<text text-anchor="middle" x="99" y="-86.3" font-family="Times,serif" font-size="14.00">2</text>
</g>
<!-- v0&#45;&gt;v2 -->
<g id="edge11" class="edge"><title>v0&#45;&gt;v2</title>
<path fill="none" stroke="black" d="M127.418,-144.765C122.935,-136.283 117.349,-125.714 112.319,-116.197"/>
<polygon fill="black" stroke="black" points="115.302,-114.353 107.535,-107.147 109.114,-117.624 115.302,-114.353"/>
</g>
<!-- p0 -->
<g id="node4" class="node"><title>p0</title>
<path fill="none" stroke="black" d="M191.5,-108C191.5,-108 156.5,-108 156.5,-108 150.5,-108 144.5,-102 144.5,-96 144.5,-96 144.5,-84 144.5,-84 144.5,-78 150.5,-72 156.5,-72 156.5,-72 191.5,-72 191.5,-72 197.5,-72 203.5,-78 203.5,-84 203.5,-84 203.5,-96 203.5,-96 203.5,-102 197.5,-108 191.5,-108"/>
<text text-anchor="middle" x="174" y="-86.3" font-family="Times,serif" font-size="14.00">path (2)</text>
</g>
<!-- v0&#45;&gt;p0 -->
<g id="edge9" class="edge"><title>v0&#45;&gt;p0</title>
<path fill="none" stroke="black" d="M144.813,-144.765C149.286,-136.525 154.828,-126.317 159.877,-117.016"/>
<polygon fill="black" stroke="black" points="163.009,-118.582 164.704,-108.124 156.857,-115.243 163.009,-118.582"/>
</g>
<!-- v7 -->
<g id="node7" class="node"><title>v7</title>
<ellipse fill="none" stroke="black" cx="249" cy="-90" rx="27" ry="18"/>
<text text-anchor="middle" x="249" y="-86.3" font-family="Times,serif" font-size="14.00">7</text>
</g>
<!-- v0&#45;&gt;v7 -->
<g id="edge7" class="edge"><title>v0&#45;&gt;v7</title>
<path fill="none" stroke="black" d="M152.33,-147.503C169.765,-135.684 197.393,-118.523 218.751,-106.219"/>
<polygon fill="black" stroke="black" points="220.5,-109.25 227.472,-101.272 217.047,-103.161 220.5,-109.25"/>
</g>
<!-- v5 -->
<g id="node5" class="node"><title>v5</title>
<ellipse fill="none" stroke="black" cx="177" cy="-18" rx="27" ry="18"/>
<text text-anchor="middle" x="177" y="-14.3" font-family="Times,serif" font-size="14.00">5</text>
</g>
<!-- v6 -->
<g id="node6" class="node"><title>v6</title>
<ellipse fill="none" stroke="black" cx="249" cy="-18" rx="27" ry="18"/>
<text text-anchor="middle" x="249" y="-14.3" font-family="Times,serif" font-size="14.00">6</text>
</g>
<!-- v7&#45;&gt;v0 -->
<g id="edge4" class="edge"><title>v7&#45;&gt;v0</title>
<path fill="none" stroke="black" d="M232.583,-104.556C215.095,-116.406 187.419,-133.592 166.072,-145.883"/>
<polygon fill="black" stroke="black" points="164.333,-142.846 157.359,-150.821 167.785,-148.936 164.333,-142.846"/>
</g>
<!-- v7&#45;&gt;v5 -->
<g id="edge8" class="edge"><title>v7&#45;&gt;v5</title>
<path fill="none" stroke="black" d="M234.43,-74.8345C224.25,-64.9376 210.476,-51.5462 198.969,-40.3591"/>
<polygon fill="black" stroke="black" points="201.405,-37.8461 191.796,-33.3847 196.526,-42.865 201.405,-37.8461"/>
</g>
<!-- v7&#45;&gt;v6 -->
<g id="edge3" class="edge"><title>v7&#45;&gt;v6</title>
<path fill="none" stroke="black" d="M249,-71.6966C249,-63.9827 249,-54.7125 249,-46.1124"/>
<polygon fill="black" stroke="black" points="252.5,-46.1043 249,-36.1043 245.5,-46.1044 252.5,-46.1043"/>
</g>
<!-- p2 -->
<g id="node11" class="node"><title>p2</title>
<path fill="none" stroke="black" d="M341.5,-36C341.5,-36 306.5,-36 306.5,-36 300.5,-36 294.5,-30 294.5,-24 294.5,-24 294.5,-12 294.5,-12 294.5,-6 300.5,-0 306.5,-0 306.5,-0 341.5,-0 341.5,-0 347.5,-0 353.5,-6 353.5,-12 353.5,-12 353.5,-24 353.5,-24 353.5,-30 347.5,-36 341.5,-36"/>
<text text-anchor="middle" x="324" y="-14.3" font-family="Times,serif" font-size="14.00">path (2)</text>
</g>
<!-- v7&#45;&gt;p2 -->
<g id="edge6" class="edge"><title>v7&#45;&gt;p2</title>
<path fill="none" stroke="black" d="M264.177,-74.8345C273.915,-65.7459 286.81,-53.7105 298.134,-43.1413"/>
<polygon fill="black" stroke="black" points="300.742,-45.4946 305.665,-36.1127 295.966,-40.3772 300.742,-45.4946"/>
</g>
<!-- p1 -->
<g id="node8" class="node"><title>p1</title>
<path fill="none" stroke="black" d="M228.5,-180C228.5,-180 193.5,-180 193.5,-180 187.5,-180 181.5,-174 181.5,-168 181.5,-168 181.5,-156 181.5,-156 181.5,-150 187.5,-144 193.5,-144 193.5,-144 228.5,-144 228.5,-144 234.5,-144 240.5,-150 240.5,-156 240.5,-156 240.5,-168 240.5,-168 240.5,-174 234.5,-180 228.5,-180"/>
<text text-anchor="middle" x="211" y="-158.3" font-family="Times,serif" font-size="14.00">path (3)</text>
</g>
<!-- v10 -->
<g id="node9" class="node"><title>v10</title>
<ellipse fill="none" stroke="black" cx="286" cy="-162" rx="27" ry="18"/>
<text text-anchor="middle" x="286" y="-158.3" font-family="Times,serif" font-size="14.00">10</text>
</g>
<!-- v10&#45;&gt;v7 -->
<g id="edge5" class="edge"><title>v10&#45;&gt;v7</title>
<path fill="none" stroke="black" d="M277.418,-144.765C272.935,-136.283 267.349,-125.714 262.319,-116.197"/>
<polygon fill="black" stroke="black" points="265.302,-114.353 257.535,-107.147 259.114,-117.624 265.302,-114.353"/>
</g>
<!-- v11 -->
<g id="node10" class="node"><title>v11</title>
<ellipse fill="none" stroke="black" cx="248" cy="-234" rx="27" ry="18"/>
<text text-anchor="middle" x="248" y="-230.3" font-family="Times,serif" font-size="14.00">11</text>
</g>
<!-- v11&#45;&gt;p1 -->
<g id="edge10" class="edge"><title>v11&#45;&gt;p1</title>
<path fill="none" stroke="black" d="M239.418,-216.765C235.063,-208.525 229.667,-198.317 224.751,-189.016"/>
<polygon fill="black" stroke="black" points="227.819,-187.329 220.051,-180.124 221.63,-190.6 227.819,-187.329"/>
</g>
<!-- v11&#45;&gt;v10 -->
<g id="edge2" class="edge"><title>v11&#45;&gt;v10</title>
<path fill="none" stroke="black" d="M256.813,-216.765C261.418,-208.283 267.155,-197.714 272.321,-188.197"/>
<polygon fill="black" stroke="black" points="275.539,-189.606 277.234,-179.147 269.387,-186.266 275.539,-189.606"/>
</g>
</g>
</svg>
