<?xml version="1.0" encoding="UTF-8" standalone="no"?>
<!DOCTYPE svg PUBLIC "-//W3C//DTD SVG 1.1//EN"
 "http://www.w3.org/Graphics/SVG/1.1/DTD/svg11.dtd">
<!-- Generated by graphviz version 2.38.0 (20140413.2041)
 -->
<!-- Title: %3 Pages: 1 -->
<svg width="679pt" height="404pt"
 viewBox="0.00 0.00 678.79 404.00" xmlns="http://www.w3.org/2000/svg" xmlns:xlink="http://www.w3.org/1999/xlink">
<g id="graph0" class="graph" transform="scale(1 1) rotate(0) translate(4 400)">
<title>%3</title>
<polygon fill="white" stroke="none" points="-4,4 -4,-400 674.792,-400 674.792,4 -4,4"/>
<!-- 0 -->
<g id="node1" class="node"><title>0</title>
<g id="a_node1"><a xlink:title="0, diversity: 1, multiplicities: 14, labels: 0,3">
<ellipse fill="#fca082" stroke="black" cx="44.1961" cy="-306" rx="44.393" ry="18"/>
<text text-anchor="middle" x="44.1961" y="-302.3" font-family="Times,serif" font-size="14.00">0 (1): 0,3</text>
</a>
</g>
</g>
<!-- 1 -->
<g id="node2" class="node"><title>1</title>
<g id="a_node2"><a xlink:title="1, diversity: 1, multiplicities: 272, labels: 1,0">
<ellipse fill="#f6553c" stroke="black" cx="341.196" cy="-378" rx="44.393" ry="18"/>
<text text-anchor="middle" x="341.196" y="-374.3" font-family="Times,serif" font-size="14.00">1 (1): 1,0</text>
</a>
</g>
</g>
<!-- 1&#45;&gt;0 -->
<g id="edge13" class="edge"><title>1&#45;&gt;0</title>
<path fill="none" stroke="black" d="M301.613,-369.623C253.112,-360.304 168.581,-343.154 97.1961,-324 93.8274,-323.096 90.3551,-322.109 86.8754,-321.081"/>
<polygon fill="black" stroke="black" points="87.7149,-317.678 77.1287,-318.106 85.6714,-324.373 87.7149,-317.678"/>
</g>
<!-- 2 -->
<g id="node3" class="node"><title>2</title>
<g id="a_node3"><a xlink:title="2, diversity: 1, multiplicities: 20, labels: 1">
<ellipse fill="#fca082" stroke="black" cx="143.196" cy="-306" rx="37.0935" ry="18"/>
<text text-anchor="middle" x="143.196" y="-302.3" font-family="Times,serif" font-size="14.00">2 (1): 1</text>
</a>
</g>
</g>
<!-- 1&#45;&gt;2 -->
<g id="edge1" class="edge"><title>1&#45;&gt;2</title>
<path fill="none" stroke="black" d="M308.519,-365.801C277.696,-355.192 230.228,-338.734 189.196,-324 186.654,-323.087 184.036,-322.14 181.4,-321.18"/>
<polygon fill="black" stroke="black" points="182.47,-317.845 171.876,-317.692 180.062,-324.418 182.47,-317.845"/>
</g>
<!-- 3 -->
<g id="node4" class="node"><title>3</title>
<g id="a_node4"><a xlink:title="3, diversity: 1, multiplicities: 30, labels: 1,0">
<ellipse fill="#fca082" stroke="black" cx="242.196" cy="-306" rx="44.393" ry="18"/>
<text text-anchor="middle" x="242.196" y="-302.3" font-family="Times,serif" font-size="14.00">3 (1): 1,0</text>
</a>
</g>
</g>
<!-- 1&#45;&gt;3 -->
<g id="edge3" class="edge"><title>1&#45;&gt;3</title>
<path fill="none" stroke="black" d="M320.201,-362.155C306.121,-352.199 287.374,-338.944 271.787,-327.923"/>
<polygon fill="black" stroke="black" points="273.688,-324.981 263.502,-322.065 269.647,-330.696 273.688,-324.981"/>
</g>
<!-- 4 -->
<g id="node5" class="node"><title>4</title>
<g id="a_node5"><a xlink:title="4, diversity: 2, multiplicities: 1,47, labels: 0">
<ellipse fill="#fca082" stroke="black" cx="341.196" cy="-306" rx="37.0935" ry="18"/>
<text text-anchor="middle" x="341.196" y="-302.3" font-family="Times,serif" font-size="14.00">4 (2): 0</text>
</a>
</g>
</g>
<!-- 1&#45;&gt;4 -->
<g id="edge8" class="edge"><title>1&#45;&gt;4</title>
<path fill="none" stroke="black" d="M341.196,-359.697C341.196,-351.983 341.196,-342.712 341.196,-334.112"/>
<polygon fill="black" stroke="black" points="344.696,-334.104 341.196,-324.104 337.696,-334.104 344.696,-334.104"/>
</g>
<!-- 5 -->
<g id="node6" class="node"><title>5</title>
<g id="a_node6"><a xlink:title="5, diversity: 1, multiplicities: 3, labels: 0">
<ellipse fill="#fee3d6" stroke="black" cx="433.196" cy="-306" rx="37.0935" ry="18"/>
<text text-anchor="middle" x="433.196" y="-302.3" font-family="Times,serif" font-size="14.00">5 (1): 0</text>
</a>
</g>
</g>
<!-- 1&#45;&gt;5 -->
<g id="edge10" class="edge"><title>1&#45;&gt;5</title>
<path fill="none" stroke="black" d="M361.159,-361.811C374.235,-351.862 391.497,-338.727 405.845,-327.81"/>
<polygon fill="black" stroke="black" points="408.064,-330.52 413.903,-321.68 403.825,-324.949 408.064,-330.52"/>
</g>
<!-- 6 -->
<g id="node7" class="node"><title>6</title>
<g id="a_node7"><a xlink:title="6, diversity: 1, multiplicities: 2, labels: 0">
<ellipse fill="#fee3d6" stroke="black" cx="525.196" cy="-306" rx="37.0935" ry="18"/>
<text text-anchor="middle" x="525.196" y="-302.3" font-family="Times,serif" font-size="14.00">6 (1): 0</text>
</a>
</g>
</g>
<!-- 1&#45;&gt;6 -->
<g id="edge12" class="edge"><title>1&#45;&gt;6</title>
<path fill="none" stroke="black" d="M372.409,-365.125C404.138,-353.055 453.326,-334.342 487.278,-321.425"/>
<polygon fill="black" stroke="black" points="488.754,-324.609 496.856,-317.782 486.265,-318.066 488.754,-324.609"/>
</g>
<!-- 13 -->
<g id="node14" class="node"><title>13</title>
<g id="a_node14"><a xlink:title="13, diversity: 1, multiplicities: 3, labels: 0">
<ellipse fill="#fee3d6" stroke="black" cx="626.196" cy="-306" rx="41.6928" ry="18"/>
<text text-anchor="middle" x="626.196" y="-302.3" font-family="Times,serif" font-size="14.00">13 (1): 0</text>
</a>
</g>
</g>
<!-- 1&#45;&gt;13 -->
<g id="edge6" class="edge"><title>1&#45;&gt;13</title>
<path fill="none" stroke="black" d="M379.663,-369.038C425.512,-359.341 504.329,-342.012 571.196,-324 575.322,-322.889 579.603,-321.674 583.873,-320.423"/>
<polygon fill="black" stroke="black" points="585.165,-323.689 593.738,-317.465 583.154,-316.984 585.165,-323.689"/>
</g>
<!-- 11 -->
<g id="node12" class="node"><title>11</title>
<g id="a_node12"><a xlink:title="11, diversity: 1, multiplicities: 1, labels: 0">
<ellipse fill="#fff5f0" stroke="black" cx="421.196" cy="-234" rx="41.6928" ry="18"/>
<text text-anchor="middle" x="421.196" y="-230.3" font-family="Times,serif" font-size="14.00">11 (1): 0</text>
</a>
</g>
</g>
<!-- 5&#45;&gt;11 -->
<g id="edge5" class="edge"><title>5&#45;&gt;11</title>
<path fill="none" stroke="black" d="M430.291,-288.055C428.97,-280.346 427.372,-271.027 425.887,-262.364"/>
<polygon fill="black" stroke="black" points="429.297,-261.54 424.158,-252.275 422.398,-262.723 429.297,-261.54"/>
</g>
<!-- 7 -->
<g id="node8" class="node"><title>7</title>
<g id="a_node8"><a xlink:title="7, diversity: 1, multiplicities: 60, labels: 1,0">
<ellipse fill="#fca082" stroke="black" cx="525.196" cy="-234" rx="44.393" ry="18"/>
<text text-anchor="middle" x="525.196" y="-230.3" font-family="Times,serif" font-size="14.00">7 (1): 1,0</text>
</a>
</g>
</g>
<!-- 6&#45;&gt;7 -->
<g id="edge4" class="edge"><title>6&#45;&gt;7</title>
<path fill="none" stroke="black" d="M525.196,-287.697C525.196,-279.983 525.196,-270.712 525.196,-262.112"/>
<polygon fill="black" stroke="black" points="528.696,-262.104 525.196,-252.104 521.696,-262.104 528.696,-262.104"/>
</g>
<!-- 8 -->
<g id="node9" class="node"><title>8</title>
<g id="a_node9"><a xlink:title="8, diversity: 1, multiplicities: 7, labels: 0">
<ellipse fill="#fcc4ad" stroke="black" cx="525.196" cy="-162" rx="37.0935" ry="18"/>
<text text-anchor="middle" x="525.196" y="-158.3" font-family="Times,serif" font-size="14.00">8 (1): 0</text>
</a>
</g>
</g>
<!-- 7&#45;&gt;8 -->
<g id="edge14" class="edge"><title>7&#45;&gt;8</title>
<path fill="none" stroke="black" d="M525.196,-215.697C525.196,-207.983 525.196,-198.712 525.196,-190.112"/>
<polygon fill="black" stroke="black" points="528.696,-190.104 525.196,-180.104 521.696,-190.104 528.696,-190.104"/>
</g>
<!-- 9 -->
<g id="node10" class="node"><title>9</title>
<g id="a_node10"><a xlink:title="9, diversity: 1, multiplicities: 2, labels: 1,0">
<ellipse fill="#fee3d6" stroke="black" cx="421.196" cy="-162" rx="44.393" ry="18"/>
<text text-anchor="middle" x="421.196" y="-158.3" font-family="Times,serif" font-size="14.00">9 (1): 1,0</text>
</a>
</g>
</g>
<!-- 10 -->
<g id="node11" class="node"><title>10</title>
<g id="a_node11"><a xlink:title="10, diversity: 2, multiplicities: 1,124, labels: 1,0">
<ellipse fill="#fb7c5c" stroke="black" cx="421.196" cy="-90" rx="48.1917" ry="18"/>
<text text-anchor="middle" x="421.196" y="-86.3" font-family="Times,serif" font-size="14.00">10 (2): 1,0</text>
</a>
</g>
</g>
<!-- 9&#45;&gt;10 -->
<g id="edge9" class="edge"><title>9&#45;&gt;10</title>
<path fill="none" stroke="black" d="M421.196,-143.697C421.196,-135.983 421.196,-126.712 421.196,-118.112"/>
<polygon fill="black" stroke="black" points="424.696,-118.104 421.196,-108.104 417.696,-118.104 424.696,-118.104"/>
</g>
<!-- 14 -->
<g id="node15" class="node"><title>14</title>
<g id="a_node15"><a xlink:title="14, diversity: 1, multiplicities: 6, labels: 0">
<ellipse fill="#fcc4ad" stroke="black" cx="421.196" cy="-18" rx="41.6928" ry="18"/>
<text text-anchor="middle" x="421.196" y="-14.3" font-family="Times,serif" font-size="14.00">14 (1): 0</text>
</a>
</g>
</g>
<!-- 10&#45;&gt;14 -->
<g id="edge11" class="edge"><title>10&#45;&gt;14</title>
<path fill="none" stroke="black" d="M421.196,-71.6966C421.196,-63.9827 421.196,-54.7125 421.196,-46.1124"/>
<polygon fill="black" stroke="black" points="424.696,-46.1043 421.196,-36.1043 417.696,-46.1044 424.696,-46.1043"/>
</g>
<!-- 11&#45;&gt;9 -->
<g id="edge7" class="edge"><title>11&#45;&gt;9</title>
<path fill="none" stroke="black" d="M421.196,-215.697C421.196,-207.983 421.196,-198.712 421.196,-190.112"/>
<polygon fill="black" stroke="black" points="424.696,-190.104 421.196,-180.104 417.696,-190.104 424.696,-190.104"/>
</g>
<!-- 12 -->
<g id="node13" class="node"><title>12</title>
<g id="a_node13"><a xlink:title="12, diversity: 2, multiplicities: 1,76, labels: 0">
<ellipse fill="#fca082" stroke="black" cx="629.196" cy="-234" rx="41.6928" ry="18"/>
<text text-anchor="middle" x="629.196" y="-230.3" font-family="Times,serif" font-size="14.00">12 (2): 0</text>
</a>
</g>
</g>
<!-- 13&#45;&gt;12 -->
<g id="edge2" class="edge"><title>13&#45;&gt;12</title>
<path fill="none" stroke="black" d="M626.938,-287.697C627.268,-279.983 627.666,-270.712 628.034,-262.112"/>
<polygon fill="black" stroke="black" points="631.532,-262.245 628.463,-252.104 624.538,-261.945 631.532,-262.245"/>
</g>
</g>
</svg>
