<?xml version="1.0" encoding="UTF-8" standalone="no"?>
<!DOCTYPE svg PUBLIC "-//W3C//DTD SVG 1.1//EN"
 "http://www.w3.org/Graphics/SVG/1.1/DTD/svg11.dtd">
<!-- Generated by graphviz version 2.38.0 (20140413.2041)
 -->
<!-- Title: %3 Pages: 1 -->
<svg width="625pt" height="980pt"
 viewBox="0.00 0.00 624.69 980.00" xmlns="http://www.w3.org/2000/svg" xmlns:xlink="http://www.w3.org/1999/xlink">
<g id="graph0" class="graph" transform="scale(1 1) rotate(0) translate(4 976)">
<title>%3</title>
<polygon fill="white" stroke="none" points="-4,4 -4,-976 620.692,-976 620.692,4 -4,4"/>
<!-- 0 -->
<g id="node1" class="node"><title>0</title>
<g id="a_node1"><a xlink:title="0, diversity: 4, multiplicities: 2,5,18,192, labels: 1,0">
<ellipse fill="#f6553c" stroke="black" cx="196.096" cy="-738" rx="44.393" ry="18"/>
<text text-anchor="middle" x="196.096" y="-734.3" font-family="Times,serif" font-size="14.00">0 (4): 1,0</text>
</a>
</g>
</g>
<!-- 15 -->
<g id="node16" class="node"><title>15</title>
<g id="a_node16"><a xlink:title="15, diversity: 1, multiplicities: 8, labels: 1">
<ellipse fill="#fcc4ad" stroke="black" cx="95.0957" cy="-666" rx="41.6928" ry="18"/>
<text text-anchor="middle" x="95.0957" y="-662.3" font-family="Times,serif" font-size="14.00">15 (1): 1</text>
</a>
</g>
</g>
<!-- 0&#45;&gt;15 -->
<g id="edge14" class="edge"><title>0&#45;&gt;15</title>
<path fill="none" stroke="black" d="M174.676,-722.155C160.117,-712.064 140.665,-698.583 124.637,-687.474"/>
<polygon fill="black" stroke="black" points="126.351,-684.403 116.138,-681.584 122.363,-690.157 126.351,-684.403"/>
</g>
<!-- 20 -->
<g id="node21" class="node"><title>20</title>
<g id="a_node21"><a xlink:title="20, diversity: 1, multiplicities: 1, labels: 1">
<ellipse fill="#fff5f0" stroke="black" cx="196.096" cy="-666" rx="41.6928" ry="18"/>
<text text-anchor="middle" x="196.096" y="-662.3" font-family="Times,serif" font-size="14.00">20 (1): 1</text>
</a>
</g>
</g>
<!-- 0&#45;&gt;20 -->
<g id="edge3" class="edge"><title>0&#45;&gt;20</title>
<path fill="none" stroke="black" d="M196.096,-719.697C196.096,-711.983 196.096,-702.712 196.096,-694.112"/>
<polygon fill="black" stroke="black" points="199.596,-694.104 196.096,-684.104 192.596,-694.104 199.596,-694.104"/>
</g>
<!-- 1 -->
<g id="node2" class="node"><title>1</title>
<g id="a_node2"><a xlink:title="1, diversity: 1, multiplicities: 3, labels: 0">
<ellipse fill="#fee3d6" stroke="black" cx="205.096" cy="-810" rx="37.0935" ry="18"/>
<text text-anchor="middle" x="205.096" y="-806.3" font-family="Times,serif" font-size="14.00">1 (1): 0</text>
</a>
</g>
</g>
<!-- 1&#45;&gt;0 -->
<g id="edge30" class="edge"><title>1&#45;&gt;0</title>
<path fill="none" stroke="black" d="M202.871,-791.697C201.879,-783.983 200.687,-774.712 199.582,-766.112"/>
<polygon fill="black" stroke="black" points="203.042,-765.576 198.295,-756.104 196.099,-766.469 203.042,-765.576"/>
</g>
<!-- 2 -->
<g id="node3" class="node"><title>2</title>
<g id="a_node3"><a xlink:title="2, diversity: 1, multiplicities: 1, labels: 1">
<ellipse fill="#fff5f0" stroke="black" cx="320.096" cy="-666" rx="37.0935" ry="18"/>
<text text-anchor="middle" x="320.096" y="-662.3" font-family="Times,serif" font-size="14.00">2 (1): 1</text>
</a>
</g>
</g>
<!-- 30 -->
<g id="node31" class="node"><title>30</title>
<g id="a_node31"><a xlink:title="30, diversity: 1, multiplicities: 19, labels: 1">
<ellipse fill="#fca082" stroke="black" cx="373.096" cy="-594" rx="41.6928" ry="18"/>
<text text-anchor="middle" x="373.096" y="-590.3" font-family="Times,serif" font-size="14.00">30 (1): 1</text>
</a>
</g>
</g>
<!-- 2&#45;&gt;30 -->
<g id="edge17" class="edge"><title>2&#45;&gt;30</title>
<path fill="none" stroke="black" d="M332.388,-648.765C338.916,-640.143 347.077,-629.365 354.374,-619.727"/>
<polygon fill="black" stroke="black" points="357.256,-621.719 360.502,-611.633 351.675,-617.493 357.256,-621.719"/>
</g>
<!-- 3 -->
<g id="node4" class="node"><title>3</title>
<g id="a_node4"><a xlink:title="3, diversity: 1, multiplicities: 1, labels: 1">
<ellipse fill="#fff5f0" stroke="black" cx="253.096" cy="-954" rx="37.0935" ry="18"/>
<text text-anchor="middle" x="253.096" y="-950.3" font-family="Times,serif" font-size="14.00">3 (1): 1</text>
</a>
</g>
</g>
<!-- 4 -->
<g id="node5" class="node"><title>4</title>
<g id="a_node5"><a xlink:title="4, diversity: 1, multiplicities: 2, labels: 1">
<ellipse fill="#fee3d6" stroke="black" cx="206.096" cy="-882" rx="37.0935" ry="18"/>
<text text-anchor="middle" x="206.096" y="-878.3" font-family="Times,serif" font-size="14.00">4 (1): 1</text>
</a>
</g>
</g>
<!-- 3&#45;&gt;4 -->
<g id="edge34" class="edge"><title>3&#45;&gt;4</title>
<path fill="none" stroke="black" d="M242.195,-936.765C236.465,-928.23 229.315,-917.582 222.894,-908.019"/>
<polygon fill="black" stroke="black" points="225.744,-905.985 217.264,-899.633 219.932,-909.887 225.744,-905.985"/>
</g>
<!-- 9 -->
<g id="node10" class="node"><title>9</title>
<g id="a_node10"><a xlink:title="9, diversity: 1, multiplicities: 1, labels: 1">
<ellipse fill="#fff5f0" stroke="black" cx="300.096" cy="-882" rx="37.0935" ry="18"/>
<text text-anchor="middle" x="300.096" y="-878.3" font-family="Times,serif" font-size="14.00">9 (1): 1</text>
</a>
</g>
</g>
<!-- 3&#45;&gt;9 -->
<g id="edge28" class="edge"><title>3&#45;&gt;9</title>
<path fill="none" stroke="black" d="M263.997,-936.765C269.727,-928.23 276.876,-917.582 283.297,-908.019"/>
<polygon fill="black" stroke="black" points="286.259,-909.887 288.928,-899.633 280.447,-905.985 286.259,-909.887"/>
</g>
<!-- 4&#45;&gt;1 -->
<g id="edge22" class="edge"><title>4&#45;&gt;1</title>
<path fill="none" stroke="black" d="M205.849,-863.697C205.738,-855.983 205.606,-846.712 205.483,-838.112"/>
<polygon fill="black" stroke="black" points="208.983,-838.053 205.34,-828.104 201.983,-838.153 208.983,-838.053"/>
</g>
<!-- 5 -->
<g id="node6" class="node"><title>5</title>
<g id="a_node6"><a xlink:title="5, diversity: 3, multiplicities: 5,12,171, labels: 1,0,3">
<ellipse fill="#fb7c5c" stroke="black" cx="162.096" cy="-450" rx="50.8918" ry="18"/>
<text text-anchor="middle" x="162.096" y="-446.3" font-family="Times,serif" font-size="14.00">5 (3): 1,0,3</text>
</a>
</g>
</g>
<!-- 6 -->
<g id="node7" class="node"><title>6</title>
<g id="a_node7"><a xlink:title="6, diversity: 1, multiplicities: 1, labels: 1">
<ellipse fill="#fff5f0" stroke="black" cx="59.0957" cy="-378" rx="37.0935" ry="18"/>
<text text-anchor="middle" x="59.0957" y="-374.3" font-family="Times,serif" font-size="14.00">6 (1): 1</text>
</a>
</g>
</g>
<!-- 5&#45;&gt;6 -->
<g id="edge4" class="edge"><title>5&#45;&gt;6</title>
<path fill="none" stroke="black" d="M139.746,-433.811C124.77,-423.633 104.889,-410.122 88.6142,-399.061"/>
<polygon fill="black" stroke="black" points="90.2356,-395.931 79.9975,-393.205 86.3009,-401.721 90.2356,-395.931"/>
</g>
<!-- 7 -->
<g id="node8" class="node"><title>7</title>
<g id="a_node8"><a xlink:title="7, diversity: 1, multiplicities: 1, labels: 1">
<ellipse fill="#fff5f0" stroke="black" cx="162.096" cy="-378" rx="37.0935" ry="18"/>
<text text-anchor="middle" x="162.096" y="-374.3" font-family="Times,serif" font-size="14.00">7 (1): 1</text>
</a>
</g>
</g>
<!-- 5&#45;&gt;7 -->
<g id="edge32" class="edge"><title>5&#45;&gt;7</title>
<path fill="none" stroke="black" d="M162.096,-431.697C162.096,-423.983 162.096,-414.712 162.096,-406.112"/>
<polygon fill="black" stroke="black" points="165.596,-406.104 162.096,-396.104 158.596,-406.104 165.596,-406.104"/>
</g>
<!-- 19 -->
<g id="node20" class="node"><title>19</title>
<g id="a_node20"><a xlink:title="19, diversity: 3, multiplicities: 1,10,39, labels: 1,3">
<ellipse fill="#fca082" stroke="black" cx="162.096" cy="-522" rx="48.1917" ry="18"/>
<text text-anchor="middle" x="162.096" y="-518.3" font-family="Times,serif" font-size="14.00">19 (3): 1,3</text>
</a>
</g>
</g>
<!-- 5&#45;&gt;19 -->
<g id="edge8" class="edge"><title>5&#45;&gt;19</title>
<path fill="none" stroke="black" d="M168.009,-468.275C168.81,-476.03 169.036,-485.362 168.686,-494.005"/>
<polygon fill="black" stroke="black" points="165.19,-493.832 167.974,-504.055 172.172,-494.327 165.19,-493.832"/>
</g>
<!-- 23 -->
<g id="node24" class="node"><title>23</title>
<g id="a_node24"><a xlink:title="23, diversity: 1, multiplicities: 2, labels: 1">
<ellipse fill="#fee3d6" stroke="black" cx="265.096" cy="-378" rx="41.6928" ry="18"/>
<text text-anchor="middle" x="265.096" y="-374.3" font-family="Times,serif" font-size="14.00">23 (1): 1</text>
</a>
</g>
</g>
<!-- 5&#45;&gt;23 -->
<g id="edge11" class="edge"><title>5&#45;&gt;23</title>
<path fill="none" stroke="black" d="M184.445,-433.811C199.222,-423.769 218.773,-410.482 234.924,-399.505"/>
<polygon fill="black" stroke="black" points="237.192,-402.195 243.496,-393.68 233.258,-396.406 237.192,-402.195"/>
</g>
<!-- 12 -->
<g id="node13" class="node"><title>12</title>
<g id="a_node13"><a xlink:title="12, diversity: 1, multiplicities: 7, labels: 1,0">
<ellipse fill="#fcc4ad" stroke="black" cx="48.0957" cy="-306" rx="48.1917" ry="18"/>
<text text-anchor="middle" x="48.0957" y="-302.3" font-family="Times,serif" font-size="14.00">12 (1): 1,0</text>
</a>
</g>
</g>
<!-- 6&#45;&gt;12 -->
<g id="edge29" class="edge"><title>6&#45;&gt;12</title>
<path fill="none" stroke="black" d="M56.3766,-359.697C55.1644,-351.983 53.7077,-342.712 52.3563,-334.112"/>
<polygon fill="black" stroke="black" points="55.7936,-333.44 50.7836,-324.104 48.8784,-334.526 55.7936,-333.44"/>
</g>
<!-- 11 -->
<g id="node12" class="node"><title>11</title>
<g id="a_node12"><a xlink:title="11, diversity: 1, multiplicities: 112, labels: 1,0">
<ellipse fill="#fb7c5c" stroke="black" cx="162.096" cy="-306" rx="48.1917" ry="18"/>
<text text-anchor="middle" x="162.096" y="-302.3" font-family="Times,serif" font-size="14.00">11 (1): 1,0</text>
</a>
</g>
</g>
<!-- 7&#45;&gt;11 -->
<g id="edge9" class="edge"><title>7&#45;&gt;11</title>
<path fill="none" stroke="black" d="M162.096,-359.697C162.096,-351.983 162.096,-342.712 162.096,-334.112"/>
<polygon fill="black" stroke="black" points="165.596,-334.104 162.096,-324.104 158.596,-334.104 165.596,-334.104"/>
</g>
<!-- 8 -->
<g id="node9" class="node"><title>8</title>
<g id="a_node9"><a xlink:title="8, diversity: 1, multiplicities: 1, labels: 1">
<ellipse fill="#fff5f0" stroke="black" cx="305.096" cy="-810" rx="37.0935" ry="18"/>
<text text-anchor="middle" x="305.096" y="-806.3" font-family="Times,serif" font-size="14.00">8 (1): 1</text>
</a>
</g>
</g>
<!-- 10 -->
<g id="node11" class="node"><title>10</title>
<g id="a_node11"><a xlink:title="10, diversity: 1, multiplicities: 1, labels: 1">
<ellipse fill="#fff5f0" stroke="black" cx="307.096" cy="-738" rx="41.6928" ry="18"/>
<text text-anchor="middle" x="307.096" y="-734.3" font-family="Times,serif" font-size="14.00">10 (1): 1</text>
</a>
</g>
</g>
<!-- 8&#45;&gt;10 -->
<g id="edge18" class="edge"><title>8&#45;&gt;10</title>
<path fill="none" stroke="black" d="M305.59,-791.697C305.811,-783.983 306.075,-774.712 306.321,-766.112"/>
<polygon fill="black" stroke="black" points="309.82,-766.2 306.607,-756.104 302.823,-766 309.82,-766.2"/>
</g>
<!-- 9&#45;&gt;8 -->
<g id="edge6" class="edge"><title>9&#45;&gt;8</title>
<path fill="none" stroke="black" d="M301.332,-863.697C301.883,-855.983 302.545,-846.712 303.159,-838.112"/>
<polygon fill="black" stroke="black" points="306.653,-838.328 303.874,-828.104 299.67,-837.83 306.653,-838.328"/>
</g>
<!-- 10&#45;&gt;2 -->
<g id="edge35" class="edge"><title>10&#45;&gt;2</title>
<path fill="none" stroke="black" d="M310.309,-719.697C311.742,-711.983 313.463,-702.712 315.061,-694.112"/>
<polygon fill="black" stroke="black" points="318.534,-694.575 316.919,-684.104 311.652,-693.297 318.534,-694.575"/>
</g>
<!-- 13 -->
<g id="node14" class="node"><title>13</title>
<g id="a_node14"><a xlink:title="13, diversity: 1, multiplicities: 12, labels: 1">
<ellipse fill="#fca082" stroke="black" cx="272.096" cy="-450" rx="41.6928" ry="18"/>
<text text-anchor="middle" x="272.096" y="-446.3" font-family="Times,serif" font-size="14.00">13 (1): 1</text>
</a>
</g>
</g>
<!-- 14 -->
<g id="node15" class="node"><title>14</title>
<g id="a_node15"><a xlink:title="14, diversity: 1, multiplicities: 1, labels: 1">
<ellipse fill="#fff5f0" stroke="black" cx="272.096" cy="-522" rx="41.6928" ry="18"/>
<text text-anchor="middle" x="272.096" y="-518.3" font-family="Times,serif" font-size="14.00">14 (1): 1</text>
</a>
</g>
</g>
<!-- 14&#45;&gt;13 -->
<g id="edge7" class="edge"><title>14&#45;&gt;13</title>
<path fill="none" stroke="black" d="M272.096,-503.697C272.096,-495.983 272.096,-486.712 272.096,-478.112"/>
<polygon fill="black" stroke="black" points="275.596,-478.104 272.096,-468.104 268.596,-478.104 275.596,-478.104"/>
</g>
<!-- 16 -->
<g id="node17" class="node"><title>16</title>
<g id="a_node17"><a xlink:title="16, diversity: 1, multiplicities: 9, labels: 1">
<ellipse fill="#fcc4ad" stroke="black" cx="373.096" cy="-378" rx="41.6928" ry="18"/>
<text text-anchor="middle" x="373.096" y="-374.3" font-family="Times,serif" font-size="14.00">16 (1): 1</text>
</a>
</g>
</g>
<!-- 17 -->
<g id="node18" class="node"><title>17</title>
<g id="a_node18"><a xlink:title="17, diversity: 1, multiplicities: 3, labels: 1">
<ellipse fill="#fee3d6" stroke="black" cx="373.096" cy="-450" rx="41.6928" ry="18"/>
<text text-anchor="middle" x="373.096" y="-446.3" font-family="Times,serif" font-size="14.00">17 (1): 1</text>
</a>
</g>
</g>
<!-- 17&#45;&gt;16 -->
<g id="edge10" class="edge"><title>17&#45;&gt;16</title>
<path fill="none" stroke="black" d="M373.096,-431.697C373.096,-423.983 373.096,-414.712 373.096,-406.112"/>
<polygon fill="black" stroke="black" points="376.596,-406.104 373.096,-396.104 369.596,-406.104 376.596,-406.104"/>
</g>
<!-- 18 -->
<g id="node19" class="node"><title>18</title>
<g id="a_node19"><a xlink:title="18, diversity: 1, multiplicities: 1, labels: 1">
<ellipse fill="#fff5f0" stroke="black" cx="373.096" cy="-522" rx="41.6928" ry="18"/>
<text text-anchor="middle" x="373.096" y="-518.3" font-family="Times,serif" font-size="14.00">18 (1): 1</text>
</a>
</g>
</g>
<!-- 18&#45;&gt;17 -->
<g id="edge27" class="edge"><title>18&#45;&gt;17</title>
<path fill="none" stroke="black" d="M373.096,-503.697C373.096,-495.983 373.096,-486.712 373.096,-478.112"/>
<polygon fill="black" stroke="black" points="376.596,-478.104 373.096,-468.104 369.596,-478.104 376.596,-478.104"/>
</g>
<!-- 19&#45;&gt;5 -->
<g id="edge33" class="edge"><title>19&#45;&gt;5</title>
<path fill="none" stroke="black" d="M156.217,-504.055C155.399,-496.346 155.157,-487.027 155.491,-478.364"/>
<polygon fill="black" stroke="black" points="158.99,-478.491 156.183,-468.275 152.006,-478.012 158.99,-478.491"/>
</g>
<!-- 21 -->
<g id="node22" class="node"><title>21</title>
<g id="a_node22"><a xlink:title="21, diversity: 1, multiplicities: 1, labels: 1">
<ellipse fill="#fff5f0" stroke="black" cx="169.096" cy="-594" rx="41.6928" ry="18"/>
<text text-anchor="middle" x="169.096" y="-590.3" font-family="Times,serif" font-size="14.00">21 (1): 1</text>
</a>
</g>
</g>
<!-- 20&#45;&gt;21 -->
<g id="edge16" class="edge"><title>20&#45;&gt;21</title>
<path fill="none" stroke="black" d="M189.56,-648.055C186.475,-640.059 182.723,-630.331 179.278,-621.4"/>
<polygon fill="black" stroke="black" points="182.436,-619.859 175.571,-611.789 175.905,-622.379 182.436,-619.859"/>
</g>
<!-- 21&#45;&gt;19 -->
<g id="edge24" class="edge"><title>21&#45;&gt;19</title>
<path fill="none" stroke="black" d="M167.365,-575.697C166.594,-567.983 165.667,-558.712 164.807,-550.112"/>
<polygon fill="black" stroke="black" points="168.284,-549.706 163.806,-540.104 161.319,-550.403 168.284,-549.706"/>
</g>
<!-- 22 -->
<g id="node23" class="node"><title>22</title>
<g id="a_node23"><a xlink:title="22, diversity: 2, multiplicities: 1,20, labels: 1">
<ellipse fill="#fca082" stroke="black" cx="270.096" cy="-306" rx="41.6928" ry="18"/>
<text text-anchor="middle" x="270.096" y="-302.3" font-family="Times,serif" font-size="14.00">22 (2): 1</text>
</a>
</g>
</g>
<!-- 23&#45;&gt;22 -->
<g id="edge23" class="edge"><title>23&#45;&gt;22</title>
<path fill="none" stroke="black" d="M266.332,-359.697C266.883,-351.983 267.545,-342.712 268.159,-334.112"/>
<polygon fill="black" stroke="black" points="271.653,-334.328 268.874,-324.104 264.67,-333.83 271.653,-334.328"/>
</g>
<!-- 24 -->
<g id="node25" class="node"><title>24</title>
<g id="a_node25"><a xlink:title="24, diversity: 1, multiplicities: 2, labels: 1">
<ellipse fill="#fee3d6" stroke="black" cx="575.096" cy="-234" rx="41.6928" ry="18"/>
<text text-anchor="middle" x="575.096" y="-230.3" font-family="Times,serif" font-size="14.00">24 (1): 1</text>
</a>
</g>
</g>
<!-- 34 -->
<g id="node35" class="node"><title>34</title>
<g id="a_node35"><a xlink:title="34, diversity: 3, multiplicities: 2,6,60, labels: 1">
<ellipse fill="#fca082" stroke="black" cx="575.096" cy="-162" rx="41.6928" ry="18"/>
<text text-anchor="middle" x="575.096" y="-158.3" font-family="Times,serif" font-size="14.00">34 (3): 1</text>
</a>
</g>
</g>
<!-- 24&#45;&gt;34 -->
<g id="edge20" class="edge"><title>24&#45;&gt;34</title>
<path fill="none" stroke="black" d="M575.096,-215.697C575.096,-207.983 575.096,-198.712 575.096,-190.112"/>
<polygon fill="black" stroke="black" points="578.596,-190.104 575.096,-180.104 571.596,-190.104 578.596,-190.104"/>
</g>
<!-- 25 -->
<g id="node26" class="node"><title>25</title>
<g id="a_node26"><a xlink:title="25, diversity: 1, multiplicities: 1, labels: 1">
<ellipse fill="#fff5f0" stroke="black" cx="575.096" cy="-306" rx="41.6928" ry="18"/>
<text text-anchor="middle" x="575.096" y="-302.3" font-family="Times,serif" font-size="14.00">25 (1): 1</text>
</a>
</g>
</g>
<!-- 25&#45;&gt;24 -->
<g id="edge31" class="edge"><title>25&#45;&gt;24</title>
<path fill="none" stroke="black" d="M575.096,-287.697C575.096,-279.983 575.096,-270.712 575.096,-262.112"/>
<polygon fill="black" stroke="black" points="578.596,-262.104 575.096,-252.104 571.596,-262.104 578.596,-262.104"/>
</g>
<!-- 26 -->
<g id="node27" class="node"><title>26</title>
<g id="a_node27"><a xlink:title="26, diversity: 1, multiplicities: 7, labels: 1">
<ellipse fill="#fcc4ad" stroke="black" cx="474.096" cy="-450" rx="41.6928" ry="18"/>
<text text-anchor="middle" x="474.096" y="-446.3" font-family="Times,serif" font-size="14.00">26 (1): 1</text>
</a>
</g>
</g>
<!-- 27 -->
<g id="node28" class="node"><title>27</title>
<g id="a_node28"><a xlink:title="27, diversity: 1, multiplicities: 1, labels: 1">
<ellipse fill="#fff5f0" stroke="black" cx="474.096" cy="-522" rx="41.6928" ry="18"/>
<text text-anchor="middle" x="474.096" y="-518.3" font-family="Times,serif" font-size="14.00">27 (1): 1</text>
</a>
</g>
</g>
<!-- 27&#45;&gt;26 -->
<g id="edge1" class="edge"><title>27&#45;&gt;26</title>
<path fill="none" stroke="black" d="M474.096,-503.697C474.096,-495.983 474.096,-486.712 474.096,-478.112"/>
<polygon fill="black" stroke="black" points="477.596,-478.104 474.096,-468.104 470.596,-478.104 477.596,-478.104"/>
</g>
<!-- 28 -->
<g id="node29" class="node"><title>28</title>
<g id="a_node29"><a xlink:title="28, diversity: 1, multiplicities: 1, labels: 1">
<ellipse fill="#fff5f0" stroke="black" cx="575.096" cy="-522" rx="41.6928" ry="18"/>
<text text-anchor="middle" x="575.096" y="-518.3" font-family="Times,serif" font-size="14.00">28 (1): 1</text>
</a>
</g>
</g>
<!-- 29 -->
<g id="node30" class="node"><title>29</title>
<g id="a_node30"><a xlink:title="29, diversity: 1, multiplicities: 1, labels: 1">
<ellipse fill="#fff5f0" stroke="black" cx="575.096" cy="-450" rx="41.6928" ry="18"/>
<text text-anchor="middle" x="575.096" y="-446.3" font-family="Times,serif" font-size="14.00">29 (1): 1</text>
</a>
</g>
</g>
<!-- 28&#45;&gt;29 -->
<g id="edge19" class="edge"><title>28&#45;&gt;29</title>
<path fill="none" stroke="black" d="M575.096,-503.697C575.096,-495.983 575.096,-486.712 575.096,-478.112"/>
<polygon fill="black" stroke="black" points="578.596,-478.104 575.096,-468.104 571.596,-478.104 578.596,-478.104"/>
</g>
<!-- 31 -->
<g id="node32" class="node"><title>31</title>
<g id="a_node32"><a xlink:title="31, diversity: 1, multiplicities: 7, labels: 1">
<ellipse fill="#fcc4ad" stroke="black" cx="575.096" cy="-378" rx="41.6928" ry="18"/>
<text text-anchor="middle" x="575.096" y="-374.3" font-family="Times,serif" font-size="14.00">31 (1): 1</text>
</a>
</g>
</g>
<!-- 29&#45;&gt;31 -->
<g id="edge2" class="edge"><title>29&#45;&gt;31</title>
<path fill="none" stroke="black" d="M575.096,-431.697C575.096,-423.983 575.096,-414.712 575.096,-406.112"/>
<polygon fill="black" stroke="black" points="578.596,-406.104 575.096,-396.104 571.596,-406.104 578.596,-406.104"/>
</g>
<!-- 30&#45;&gt;14 -->
<g id="edge26" class="edge"><title>30&#45;&gt;14</title>
<path fill="none" stroke="black" d="M351.676,-578.155C337.117,-568.064 317.665,-554.583 301.637,-543.474"/>
<polygon fill="black" stroke="black" points="303.351,-540.403 293.138,-537.584 299.363,-546.157 303.351,-540.403"/>
</g>
<!-- 30&#45;&gt;18 -->
<g id="edge13" class="edge"><title>30&#45;&gt;18</title>
<path fill="none" stroke="black" d="M373.096,-575.697C373.096,-567.983 373.096,-558.712 373.096,-550.112"/>
<polygon fill="black" stroke="black" points="376.596,-550.104 373.096,-540.104 369.596,-550.104 376.596,-550.104"/>
</g>
<!-- 30&#45;&gt;27 -->
<g id="edge12" class="edge"><title>30&#45;&gt;27</title>
<path fill="none" stroke="black" d="M394.515,-578.155C409.075,-568.064 428.527,-554.583 444.554,-543.474"/>
<polygon fill="black" stroke="black" points="446.828,-546.157 453.053,-537.584 442.841,-540.403 446.828,-546.157"/>
</g>
<!-- 30&#45;&gt;28 -->
<g id="edge15" class="edge"><title>30&#45;&gt;28</title>
<path fill="none" stroke="black" d="M404.658,-582.062C439.494,-569.991 495.691,-550.517 533.955,-537.257"/>
<polygon fill="black" stroke="black" points="535.452,-540.442 543.755,-533.861 533.16,-533.828 535.452,-540.442"/>
</g>
<!-- 31&#45;&gt;25 -->
<g id="edge21" class="edge"><title>31&#45;&gt;25</title>
<path fill="none" stroke="black" d="M575.096,-359.697C575.096,-351.983 575.096,-342.712 575.096,-334.112"/>
<polygon fill="black" stroke="black" points="578.596,-334.104 575.096,-324.104 571.596,-334.104 578.596,-334.104"/>
</g>
<!-- 32 -->
<g id="node33" class="node"><title>32</title>
<g id="a_node33"><a xlink:title="32, diversity: 1, multiplicities: 1, labels: 1">
<ellipse fill="#fff5f0" stroke="black" cx="575.096" cy="-90" rx="41.6928" ry="18"/>
<text text-anchor="middle" x="575.096" y="-86.3" font-family="Times,serif" font-size="14.00">32 (1): 1</text>
</a>
</g>
</g>
<!-- 33 -->
<g id="node34" class="node"><title>33</title>
<g id="a_node34"><a xlink:title="33, diversity: 1, multiplicities: 8, labels: 1">
<ellipse fill="#fcc4ad" stroke="black" cx="575.096" cy="-18" rx="41.6928" ry="18"/>
<text text-anchor="middle" x="575.096" y="-14.3" font-family="Times,serif" font-size="14.00">33 (1): 1</text>
</a>
</g>
</g>
<!-- 32&#45;&gt;33 -->
<g id="edge25" class="edge"><title>32&#45;&gt;33</title>
<path fill="none" stroke="black" d="M575.096,-71.6966C575.096,-63.9827 575.096,-54.7125 575.096,-46.1124"/>
<polygon fill="black" stroke="black" points="578.596,-46.1043 575.096,-36.1043 571.596,-46.1044 578.596,-46.1043"/>
</g>
<!-- 34&#45;&gt;32 -->
<g id="edge5" class="edge"><title>34&#45;&gt;32</title>
<path fill="none" stroke="black" d="M575.096,-143.697C575.096,-135.983 575.096,-126.712 575.096,-118.112"/>
<polygon fill="black" stroke="black" points="578.596,-118.104 575.096,-108.104 571.596,-118.104 578.596,-118.104"/>
</g>
</g>
</svg>
