<?xml version="1.0" encoding="UTF-8" standalone="no"?>
<!DOCTYPE svg PUBLIC "-//W3C//DTD SVG 1.1//EN"
 "http://www.w3.org/Graphics/SVG/1.1/DTD/svg11.dtd">
<!-- Generated by graphviz version 2.38.0 (20140413.2041)
 -->
<!-- Title: %3 Pages: 1 -->
<svg width="693pt" height="836pt"
 viewBox="0.00 0.00 693.19 836.00" xmlns="http://www.w3.org/2000/svg" xmlns:xlink="http://www.w3.org/1999/xlink">
<g id="graph0" class="graph" transform="scale(1 1) rotate(0) translate(4 832)">
<title>%3</title>
<polygon fill="white" stroke="none" points="-4,4 -4,-832 689.193,-832 689.193,4 -4,4"/>
<!-- 0 -->
<g id="node1" class="node"><title>0</title>
<g id="a_node1"><a xlink:title="0, diversity: 2, multiplicities: 3,5, labels: 0">
<ellipse fill="#fcc4ad" stroke="black" cx="281.596" cy="-810" rx="37.0935" ry="18"/>
<text text-anchor="middle" x="281.596" y="-806.3" font-family="Times,serif" font-size="14.00">0 (2): 0</text>
</a>
</g>
</g>
<!-- 1 -->
<g id="node2" class="node"><title>1</title>
<g id="a_node2"><a xlink:title="1, diversity: 3, multiplicities: 1,4,188, labels: 0">
<ellipse fill="#fb7c5c" stroke="black" cx="281.596" cy="-738" rx="37.0935" ry="18"/>
<text text-anchor="middle" x="281.596" y="-734.3" font-family="Times,serif" font-size="14.00">1 (3): 0</text>
</a>
</g>
</g>
<!-- 0&#45;&gt;1 -->
<g id="edge27" class="edge"><title>0&#45;&gt;1</title>
<path fill="none" stroke="black" d="M281.596,-791.697C281.596,-783.983 281.596,-774.712 281.596,-766.112"/>
<polygon fill="black" stroke="black" points="285.096,-766.104 281.596,-756.104 278.096,-766.104 285.096,-766.104"/>
</g>
<!-- 2 -->
<g id="node3" class="node"><title>2</title>
<g id="a_node3"><a xlink:title="2, diversity: 2, multiplicities: 1,17, labels: 0">
<ellipse fill="#fca082" stroke="black" cx="189.596" cy="-666" rx="37.0935" ry="18"/>
<text text-anchor="middle" x="189.596" y="-662.3" font-family="Times,serif" font-size="14.00">2 (2): 0</text>
</a>
</g>
</g>
<!-- 1&#45;&gt;2 -->
<g id="edge8" class="edge"><title>1&#45;&gt;2</title>
<path fill="none" stroke="black" d="M262.534,-722.496C249.335,-712.453 231.567,-698.934 216.873,-687.754"/>
<polygon fill="black" stroke="black" points="218.712,-684.755 208.634,-681.485 214.473,-690.326 218.712,-684.755"/>
</g>
<!-- 4 -->
<g id="node5" class="node"><title>4</title>
<g id="a_node5"><a xlink:title="4, diversity: 1, multiplicities: 5, labels: 0">
<ellipse fill="#fee3d6" stroke="black" cx="281.596" cy="-666" rx="37.0935" ry="18"/>
<text text-anchor="middle" x="281.596" y="-662.3" font-family="Times,serif" font-size="14.00">4 (1): 0</text>
</a>
</g>
</g>
<!-- 1&#45;&gt;4 -->
<g id="edge21" class="edge"><title>1&#45;&gt;4</title>
<path fill="none" stroke="black" d="M281.596,-719.697C281.596,-711.983 281.596,-702.712 281.596,-694.112"/>
<polygon fill="black" stroke="black" points="285.096,-694.104 281.596,-684.104 278.096,-694.104 285.096,-694.104"/>
</g>
<!-- 12 -->
<g id="node13" class="node"><title>12</title>
<g id="a_node13"><a xlink:title="12, diversity: 1, multiplicities: 3, labels: 0">
<ellipse fill="#fee3d6" stroke="black" cx="391.596" cy="-666" rx="41.6928" ry="18"/>
<text text-anchor="middle" x="391.596" y="-662.3" font-family="Times,serif" font-size="14.00">12 (1): 0</text>
</a>
</g>
</g>
<!-- 1&#45;&gt;12 -->
<g id="edge29" class="edge"><title>1&#45;&gt;12</title>
<path fill="none" stroke="black" d="M303.329,-723.17C319.686,-712.761 342.332,-698.35 360.59,-686.731"/>
<polygon fill="black" stroke="black" points="362.596,-689.603 369.154,-681.282 358.838,-683.698 362.596,-689.603"/>
</g>
<!-- 3 -->
<g id="node4" class="node"><title>3</title>
<g id="a_node4"><a xlink:title="3, diversity: 1, multiplicities: 1, labels: 0">
<ellipse fill="#fff5f0" stroke="black" cx="256.596" cy="-594" rx="37.0935" ry="18"/>
<text text-anchor="middle" x="256.596" y="-590.3" font-family="Times,serif" font-size="14.00">3 (1): 0</text>
</a>
</g>
</g>
<!-- 5 -->
<g id="node6" class="node"><title>5</title>
<g id="a_node6"><a xlink:title="5, diversity: 1, multiplicities: 2, labels: 0">
<ellipse fill="#fee3d6" stroke="black" cx="243.596" cy="-522" rx="37.0935" ry="18"/>
<text text-anchor="middle" x="243.596" y="-518.3" font-family="Times,serif" font-size="14.00">5 (1): 0</text>
</a>
</g>
</g>
<!-- 3&#45;&gt;5 -->
<g id="edge26" class="edge"><title>3&#45;&gt;5</title>
<path fill="none" stroke="black" d="M253.449,-576.055C252.018,-568.346 250.287,-559.027 248.678,-550.364"/>
<polygon fill="black" stroke="black" points="252.072,-549.468 246.805,-540.275 245.189,-550.746 252.072,-549.468"/>
</g>
<!-- 4&#45;&gt;3 -->
<g id="edge33" class="edge"><title>4&#45;&gt;3</title>
<path fill="none" stroke="black" d="M275.545,-648.055C272.689,-640.059 269.214,-630.331 266.025,-621.4"/>
<polygon fill="black" stroke="black" points="269.252,-620.029 262.592,-611.789 262.66,-622.384 269.252,-620.029"/>
</g>
<!-- 6 -->
<g id="node7" class="node"><title>6</title>
<g id="a_node7"><a xlink:title="6, diversity: 1, multiplicities: 2, labels: 0">
<ellipse fill="#fee3d6" stroke="black" cx="243.596" cy="-450" rx="37.0935" ry="18"/>
<text text-anchor="middle" x="243.596" y="-446.3" font-family="Times,serif" font-size="14.00">6 (1): 0</text>
</a>
</g>
</g>
<!-- 5&#45;&gt;6 -->
<g id="edge2" class="edge"><title>5&#45;&gt;6</title>
<path fill="none" stroke="black" d="M243.596,-503.697C243.596,-495.983 243.596,-486.712 243.596,-478.112"/>
<polygon fill="black" stroke="black" points="247.096,-478.104 243.596,-468.104 240.096,-478.104 247.096,-478.104"/>
</g>
<!-- 7 -->
<g id="node8" class="node"><title>7</title>
<g id="a_node8"><a xlink:title="7, diversity: 3, multiplicities: 1,17,46, labels: 0">
<ellipse fill="#fca082" stroke="black" cx="243.596" cy="-378" rx="37.0935" ry="18"/>
<text text-anchor="middle" x="243.596" y="-374.3" font-family="Times,serif" font-size="14.00">7 (3): 0</text>
</a>
</g>
</g>
<!-- 6&#45;&gt;7 -->
<g id="edge9" class="edge"><title>6&#45;&gt;7</title>
<path fill="none" stroke="black" d="M243.596,-431.697C243.596,-423.983 243.596,-414.712 243.596,-406.112"/>
<polygon fill="black" stroke="black" points="247.096,-406.104 243.596,-396.104 240.096,-406.104 247.096,-406.104"/>
</g>
<!-- 14 -->
<g id="node15" class="node"><title>14</title>
<g id="a_node15"><a xlink:title="14, diversity: 1, multiplicities: 1, labels: 0">
<ellipse fill="#fff5f0" stroke="black" cx="41.5963" cy="-306" rx="41.6928" ry="18"/>
<text text-anchor="middle" x="41.5963" y="-302.3" font-family="Times,serif" font-size="14.00">14 (1): 0</text>
</a>
</g>
</g>
<!-- 7&#45;&gt;14 -->
<g id="edge4" class="edge"><title>7&#45;&gt;14</title>
<path fill="none" stroke="black" d="M214.224,-366.821C179.523,-354.796 121.582,-334.718 82.5029,-321.176"/>
<polygon fill="black" stroke="black" points="83.5942,-317.85 72.9995,-317.882 81.3022,-324.464 83.5942,-317.85"/>
</g>
<!-- 20 -->
<g id="node21" class="node"><title>20</title>
<g id="a_node21"><a xlink:title="20, diversity: 1, multiplicities: 27, labels: 0">
<ellipse fill="#fca082" stroke="black" cx="142.596" cy="-306" rx="41.6928" ry="18"/>
<text text-anchor="middle" x="142.596" y="-302.3" font-family="Times,serif" font-size="14.00">20 (1): 0</text>
</a>
</g>
</g>
<!-- 7&#45;&gt;20 -->
<g id="edge18" class="edge"><title>7&#45;&gt;20</title>
<path fill="none" stroke="black" d="M223.157,-362.834C208.567,-352.722 188.713,-338.962 172.365,-327.632"/>
<polygon fill="black" stroke="black" points="173.913,-324.446 163.7,-321.626 169.925,-330.199 173.913,-324.446"/>
</g>
<!-- 22 -->
<g id="node23" class="node"><title>22</title>
<g id="a_node23"><a xlink:title="22, diversity: 1, multiplicities: 1, labels: 0">
<ellipse fill="#fff5f0" stroke="black" cx="243.596" cy="-306" rx="41.6928" ry="18"/>
<text text-anchor="middle" x="243.596" y="-302.3" font-family="Times,serif" font-size="14.00">22 (1): 0</text>
</a>
</g>
</g>
<!-- 7&#45;&gt;22 -->
<g id="edge25" class="edge"><title>7&#45;&gt;22</title>
<path fill="none" stroke="black" d="M243.596,-359.697C243.596,-351.983 243.596,-342.712 243.596,-334.112"/>
<polygon fill="black" stroke="black" points="247.096,-334.104 243.596,-324.104 240.096,-334.104 247.096,-334.104"/>
</g>
<!-- 24 -->
<g id="node25" class="node"><title>24</title>
<g id="a_node25"><a xlink:title="24, diversity: 1, multiplicities: 1, labels: 0">
<ellipse fill="#fff5f0" stroke="black" cx="344.596" cy="-306" rx="41.6928" ry="18"/>
<text text-anchor="middle" x="344.596" y="-302.3" font-family="Times,serif" font-size="14.00">24 (1): 0</text>
</a>
</g>
</g>
<!-- 7&#45;&gt;24 -->
<g id="edge12" class="edge"><title>7&#45;&gt;24</title>
<path fill="none" stroke="black" d="M264.035,-362.834C278.626,-352.722 298.48,-338.962 314.827,-327.632"/>
<polygon fill="black" stroke="black" points="317.267,-330.199 323.493,-321.626 313.28,-324.446 317.267,-330.199"/>
</g>
<!-- 33 -->
<g id="node34" class="node"><title>33</title>
<g id="a_node34"><a xlink:title="33, diversity: 1, multiplicities: 1, labels: 0">
<ellipse fill="#fff5f0" stroke="black" cx="445.596" cy="-306" rx="41.6928" ry="18"/>
<text text-anchor="middle" x="445.596" y="-302.3" font-family="Times,serif" font-size="14.00">33 (1): 0</text>
</a>
</g>
</g>
<!-- 7&#45;&gt;33 -->
<g id="edge30" class="edge"><title>7&#45;&gt;33</title>
<path fill="none" stroke="black" d="M272.969,-366.821C307.669,-354.796 365.61,-334.718 404.69,-321.176"/>
<polygon fill="black" stroke="black" points="405.89,-324.464 414.193,-317.882 403.598,-317.85 405.89,-324.464"/>
</g>
<!-- 8 -->
<g id="node9" class="node"><title>8</title>
<g id="a_node9"><a xlink:title="8, diversity: 1, multiplicities: 58, labels: 0">
<ellipse fill="#fca082" stroke="black" cx="542.596" cy="-450" rx="37.0935" ry="18"/>
<text text-anchor="middle" x="542.596" y="-446.3" font-family="Times,serif" font-size="14.00">8 (1): 0</text>
</a>
</g>
</g>
<!-- 9 -->
<g id="node10" class="node"><title>9</title>
<g id="a_node10"><a xlink:title="9, diversity: 2, multiplicities: 7,254, labels: 0">
<ellipse fill="#f6553c" stroke="black" cx="441.596" cy="-594" rx="37.0935" ry="18"/>
<text text-anchor="middle" x="441.596" y="-590.3" font-family="Times,serif" font-size="14.00">9 (2): 0</text>
</a>
</g>
</g>
<!-- 10 -->
<g id="node11" class="node"><title>10</title>
<g id="a_node11"><a xlink:title="10, diversity: 4, multiplicities: 1,2,5,5, labels: 0">
<ellipse fill="#fca082" stroke="black" cx="340.596" cy="-522" rx="41.6928" ry="18"/>
<text text-anchor="middle" x="340.596" y="-518.3" font-family="Times,serif" font-size="14.00">10 (4): 0</text>
</a>
</g>
</g>
<!-- 9&#45;&gt;10 -->
<g id="edge23" class="edge"><title>9&#45;&gt;10</title>
<path fill="none" stroke="black" d="M421.157,-578.834C406.567,-568.722 386.713,-554.962 370.365,-543.632"/>
<polygon fill="black" stroke="black" points="371.913,-540.446 361.7,-537.626 367.925,-546.199 371.913,-540.446"/>
</g>
<!-- 13 -->
<g id="node14" class="node"><title>13</title>
<g id="a_node14"><a xlink:title="13, diversity: 1, multiplicities: 1, labels: 0">
<ellipse fill="#fff5f0" stroke="black" cx="441.596" cy="-522" rx="41.6928" ry="18"/>
<text text-anchor="middle" x="441.596" y="-518.3" font-family="Times,serif" font-size="14.00">13 (1): 0</text>
</a>
</g>
</g>
<!-- 9&#45;&gt;13 -->
<g id="edge28" class="edge"><title>9&#45;&gt;13</title>
<path fill="none" stroke="black" d="M441.596,-575.697C441.596,-567.983 441.596,-558.712 441.596,-550.112"/>
<polygon fill="black" stroke="black" points="445.096,-550.104 441.596,-540.104 438.096,-550.104 445.096,-550.104"/>
</g>
<!-- 15 -->
<g id="node16" class="node"><title>15</title>
<g id="a_node16"><a xlink:title="15, diversity: 1, multiplicities: 3, labels: 0">
<ellipse fill="#fee3d6" stroke="black" cx="542.596" cy="-522" rx="41.6928" ry="18"/>
<text text-anchor="middle" x="542.596" y="-518.3" font-family="Times,serif" font-size="14.00">15 (1): 0</text>
</a>
</g>
</g>
<!-- 9&#45;&gt;15 -->
<g id="edge10" class="edge"><title>9&#45;&gt;15</title>
<path fill="none" stroke="black" d="M462.035,-578.834C476.626,-568.722 496.48,-554.962 512.827,-543.632"/>
<polygon fill="black" stroke="black" points="515.267,-546.199 521.493,-537.626 511.28,-540.446 515.267,-546.199"/>
</g>
<!-- 30 -->
<g id="node31" class="node"><title>30</title>
<g id="a_node31"><a xlink:title="30, diversity: 2, multiplicities: 6,63, labels: 0">
<ellipse fill="#fca082" stroke="black" cx="643.596" cy="-522" rx="41.6928" ry="18"/>
<text text-anchor="middle" x="643.596" y="-518.3" font-family="Times,serif" font-size="14.00">30 (2): 0</text>
</a>
</g>
</g>
<!-- 9&#45;&gt;30 -->
<g id="edge32" class="edge"><title>9&#45;&gt;30</title>
<path fill="none" stroke="black" d="M470.969,-582.821C505.669,-570.796 563.61,-550.718 602.69,-537.176"/>
<polygon fill="black" stroke="black" points="603.89,-540.464 612.193,-533.882 601.598,-533.85 603.89,-540.464"/>
</g>
<!-- 11 -->
<g id="node12" class="node"><title>11</title>
<g id="a_node12"><a xlink:title="11, diversity: 1, multiplicities: 12, labels: 0">
<ellipse fill="#fca082" stroke="black" cx="441.596" cy="-378" rx="41.6928" ry="18"/>
<text text-anchor="middle" x="441.596" y="-374.3" font-family="Times,serif" font-size="14.00">11 (1): 0</text>
</a>
</g>
</g>
<!-- 12&#45;&gt;9 -->
<g id="edge6" class="edge"><title>12&#45;&gt;9</title>
<path fill="none" stroke="black" d="M403.446,-648.411C409.548,-639.868 417.112,-629.278 423.891,-619.787"/>
<polygon fill="black" stroke="black" points="426.868,-621.642 429.832,-611.47 421.172,-617.573 426.868,-621.642"/>
</g>
<!-- 16 -->
<g id="node17" class="node"><title>16</title>
<g id="a_node17"><a xlink:title="16, diversity: 1, multiplicities: 1, labels: 0">
<ellipse fill="#fff5f0" stroke="black" cx="441.596" cy="-450" rx="41.6928" ry="18"/>
<text text-anchor="middle" x="441.596" y="-446.3" font-family="Times,serif" font-size="14.00">16 (1): 0</text>
</a>
</g>
</g>
<!-- 13&#45;&gt;16 -->
<g id="edge13" class="edge"><title>13&#45;&gt;16</title>
<path fill="none" stroke="black" d="M441.596,-503.697C441.596,-495.983 441.596,-486.712 441.596,-478.112"/>
<polygon fill="black" stroke="black" points="445.096,-478.104 441.596,-468.104 438.096,-478.104 445.096,-478.104"/>
</g>
<!-- 34 -->
<g id="node35" class="node"><title>34</title>
<g id="a_node35"><a xlink:title="34, diversity: 1, multiplicities: 1, labels: 0">
<ellipse fill="#fff5f0" stroke="black" cx="41.5963" cy="-234" rx="41.6928" ry="18"/>
<text text-anchor="middle" x="41.5963" y="-230.3" font-family="Times,serif" font-size="14.00">34 (1): 0</text>
</a>
</g>
</g>
<!-- 14&#45;&gt;34 -->
<g id="edge17" class="edge"><title>14&#45;&gt;34</title>
<path fill="none" stroke="black" d="M41.5963,-287.697C41.5963,-279.983 41.5963,-270.712 41.5963,-262.112"/>
<polygon fill="black" stroke="black" points="45.0964,-262.104 41.5963,-252.104 38.0964,-262.104 45.0964,-262.104"/>
</g>
<!-- 15&#45;&gt;8 -->
<g id="edge5" class="edge"><title>15&#45;&gt;8</title>
<path fill="none" stroke="black" d="M542.596,-503.697C542.596,-495.983 542.596,-486.712 542.596,-478.112"/>
<polygon fill="black" stroke="black" points="546.096,-478.104 542.596,-468.104 539.096,-478.104 546.096,-478.104"/>
</g>
<!-- 16&#45;&gt;11 -->
<g id="edge19" class="edge"><title>16&#45;&gt;11</title>
<path fill="none" stroke="black" d="M441.596,-431.697C441.596,-423.983 441.596,-414.712 441.596,-406.112"/>
<polygon fill="black" stroke="black" points="445.096,-406.104 441.596,-396.104 438.096,-406.104 445.096,-406.104"/>
</g>
<!-- 17 -->
<g id="node18" class="node"><title>17</title>
<g id="a_node18"><a xlink:title="17, diversity: 1, multiplicities: 64, labels: 0">
<ellipse fill="#fca082" stroke="black" cx="344.596" cy="-90" rx="41.6928" ry="18"/>
<text text-anchor="middle" x="344.596" y="-86.3" font-family="Times,serif" font-size="14.00">17 (1): 0</text>
</a>
</g>
</g>
<!-- 21 -->
<g id="node22" class="node"><title>21</title>
<g id="a_node22"><a xlink:title="21, diversity: 1, multiplicities: 29, labels: 0">
<ellipse fill="#fca082" stroke="black" cx="293.596" cy="-18" rx="41.6928" ry="18"/>
<text text-anchor="middle" x="293.596" y="-14.3" font-family="Times,serif" font-size="14.00">21 (1): 0</text>
</a>
</g>
</g>
<!-- 17&#45;&gt;21 -->
<g id="edge31" class="edge"><title>17&#45;&gt;21</title>
<path fill="none" stroke="black" d="M332.51,-72.411C326.286,-63.8677 318.571,-53.2785 311.656,-43.7874"/>
<polygon fill="black" stroke="black" points="314.313,-41.4913 305.596,-35.4699 308.656,-45.6133 314.313,-41.4913"/>
</g>
<!-- 31 -->
<g id="node32" class="node"><title>31</title>
<g id="a_node32"><a xlink:title="31, diversity: 1, multiplicities: 7, labels: 0">
<ellipse fill="#fcc4ad" stroke="black" cx="394.596" cy="-18" rx="41.6928" ry="18"/>
<text text-anchor="middle" x="394.596" y="-14.3" font-family="Times,serif" font-size="14.00">31 (1): 0</text>
</a>
</g>
</g>
<!-- 17&#45;&gt;31 -->
<g id="edge22" class="edge"><title>17&#45;&gt;31</title>
<path fill="none" stroke="black" d="M356.446,-72.411C362.548,-63.8677 370.112,-53.2785 376.891,-43.7874"/>
<polygon fill="black" stroke="black" points="379.868,-45.6416 382.832,-35.4699 374.172,-41.573 379.868,-45.6416"/>
</g>
<!-- 18 -->
<g id="node19" class="node"><title>18</title>
<g id="a_node19"><a xlink:title="18, diversity: 1, multiplicities: 4, labels: 0">
<ellipse fill="#fee3d6" stroke="black" cx="344.596" cy="-162" rx="41.6928" ry="18"/>
<text text-anchor="middle" x="344.596" y="-158.3" font-family="Times,serif" font-size="14.00">18 (1): 0</text>
</a>
</g>
</g>
<!-- 18&#45;&gt;17 -->
<g id="edge24" class="edge"><title>18&#45;&gt;17</title>
<path fill="none" stroke="black" d="M344.596,-143.697C344.596,-135.983 344.596,-126.712 344.596,-118.112"/>
<polygon fill="black" stroke="black" points="348.096,-118.104 344.596,-108.104 341.096,-118.104 348.096,-118.104"/>
</g>
<!-- 19 -->
<g id="node20" class="node"><title>19</title>
<g id="a_node20"><a xlink:title="19, diversity: 1, multiplicities: 44, labels: 0">
<ellipse fill="#fca082" stroke="black" cx="243.596" cy="-90" rx="41.6928" ry="18"/>
<text text-anchor="middle" x="243.596" y="-86.3" font-family="Times,serif" font-size="14.00">19 (1): 0</text>
</a>
</g>
</g>
<!-- 26 -->
<g id="node27" class="node"><title>26</title>
<g id="a_node27"><a xlink:title="26, diversity: 1, multiplicities: 1, labels: 0">
<ellipse fill="#fff5f0" stroke="black" cx="243.596" cy="-234" rx="41.6928" ry="18"/>
<text text-anchor="middle" x="243.596" y="-230.3" font-family="Times,serif" font-size="14.00">26 (1): 0</text>
</a>
</g>
</g>
<!-- 22&#45;&gt;26 -->
<g id="edge3" class="edge"><title>22&#45;&gt;26</title>
<path fill="none" stroke="black" d="M243.596,-287.697C243.596,-279.983 243.596,-270.712 243.596,-262.112"/>
<polygon fill="black" stroke="black" points="247.096,-262.104 243.596,-252.104 240.096,-262.104 247.096,-262.104"/>
</g>
<!-- 23 -->
<g id="node24" class="node"><title>23</title>
<g id="a_node24"><a xlink:title="23, diversity: 1, multiplicities: 1, labels: 0">
<ellipse fill="#fff5f0" stroke="black" cx="344.596" cy="-234" rx="41.6928" ry="18"/>
<text text-anchor="middle" x="344.596" y="-230.3" font-family="Times,serif" font-size="14.00">23 (1): 0</text>
</a>
</g>
</g>
<!-- 23&#45;&gt;18 -->
<g id="edge34" class="edge"><title>23&#45;&gt;18</title>
<path fill="none" stroke="black" d="M344.596,-215.697C344.596,-207.983 344.596,-198.712 344.596,-190.112"/>
<polygon fill="black" stroke="black" points="348.096,-190.104 344.596,-180.104 341.096,-190.104 348.096,-190.104"/>
</g>
<!-- 24&#45;&gt;23 -->
<g id="edge15" class="edge"><title>24&#45;&gt;23</title>
<path fill="none" stroke="black" d="M344.596,-287.697C344.596,-279.983 344.596,-270.712 344.596,-262.112"/>
<polygon fill="black" stroke="black" points="348.096,-262.104 344.596,-252.104 341.096,-262.104 348.096,-262.104"/>
</g>
<!-- 25 -->
<g id="node26" class="node"><title>25</title>
<g id="a_node26"><a xlink:title="25, diversity: 2, multiplicities: 1,1, labels: 0">
<ellipse fill="#fee3d6" stroke="black" cx="243.596" cy="-162" rx="41.6928" ry="18"/>
<text text-anchor="middle" x="243.596" y="-158.3" font-family="Times,serif" font-size="14.00">25 (2): 0</text>
</a>
</g>
</g>
<!-- 25&#45;&gt;19 -->
<g id="edge11" class="edge"><title>25&#45;&gt;19</title>
<path fill="none" stroke="black" d="M243.596,-143.697C243.596,-135.983 243.596,-126.712 243.596,-118.112"/>
<polygon fill="black" stroke="black" points="247.096,-118.104 243.596,-108.104 240.096,-118.104 247.096,-118.104"/>
</g>
<!-- 26&#45;&gt;25 -->
<g id="edge7" class="edge"><title>26&#45;&gt;25</title>
<path fill="none" stroke="black" d="M243.596,-215.697C243.596,-207.983 243.596,-198.712 243.596,-190.112"/>
<polygon fill="black" stroke="black" points="247.096,-190.104 243.596,-180.104 240.096,-190.104 247.096,-190.104"/>
</g>
<!-- 27 -->
<g id="node28" class="node"><title>27</title>
<g id="a_node28"><a xlink:title="27, diversity: 4, multiplicities: 1,1,30,50, labels: 0">
<ellipse fill="#fca082" stroke="black" cx="445.596" cy="-234" rx="41.6928" ry="18"/>
<text text-anchor="middle" x="445.596" y="-230.3" font-family="Times,serif" font-size="14.00">27 (4): 0</text>
</a>
</g>
</g>
<!-- 28 -->
<g id="node29" class="node"><title>28</title>
<g id="a_node29"><a xlink:title="28, diversity: 1, multiplicities: 85, labels: 0">
<ellipse fill="#fca082" stroke="black" cx="546.596" cy="-162" rx="41.6928" ry="18"/>
<text text-anchor="middle" x="546.596" y="-158.3" font-family="Times,serif" font-size="14.00">28 (1): 0</text>
</a>
</g>
</g>
<!-- 29 -->
<g id="node30" class="node"><title>29</title>
<g id="a_node30"><a xlink:title="29, diversity: 1, multiplicities: 8, labels: 0">
<ellipse fill="#fcc4ad" stroke="black" cx="546.596" cy="-234" rx="41.6928" ry="18"/>
<text text-anchor="middle" x="546.596" y="-230.3" font-family="Times,serif" font-size="14.00">29 (1): 0</text>
</a>
</g>
</g>
<!-- 29&#45;&gt;28 -->
<g id="edge1" class="edge"><title>29&#45;&gt;28</title>
<path fill="none" stroke="black" d="M546.596,-215.697C546.596,-207.983 546.596,-198.712 546.596,-190.112"/>
<polygon fill="black" stroke="black" points="550.096,-190.104 546.596,-180.104 543.096,-190.104 550.096,-190.104"/>
</g>
<!-- 32 -->
<g id="node33" class="node"><title>32</title>
<g id="a_node33"><a xlink:title="32, diversity: 1, multiplicities: 6, labels: 0">
<ellipse fill="#fcc4ad" stroke="black" cx="41.5963" cy="-162" rx="41.6928" ry="18"/>
<text text-anchor="middle" x="41.5963" y="-158.3" font-family="Times,serif" font-size="14.00">32 (1): 0</text>
</a>
</g>
</g>
<!-- 33&#45;&gt;27 -->
<g id="edge20" class="edge"><title>33&#45;&gt;27</title>
<path fill="none" stroke="black" d="M445.596,-287.697C445.596,-279.983 445.596,-270.712 445.596,-262.112"/>
<polygon fill="black" stroke="black" points="449.096,-262.104 445.596,-252.104 442.096,-262.104 449.096,-262.104"/>
</g>
<!-- 33&#45;&gt;29 -->
<g id="edge16" class="edge"><title>33&#45;&gt;29</title>
<path fill="none" stroke="black" d="M467.016,-290.155C481.575,-280.064 501.027,-266.583 517.055,-255.474"/>
<polygon fill="black" stroke="black" points="519.329,-258.157 525.554,-249.584 515.341,-252.403 519.329,-258.157"/>
</g>
<!-- 34&#45;&gt;32 -->
<g id="edge14" class="edge"><title>34&#45;&gt;32</title>
<path fill="none" stroke="black" d="M41.5963,-215.697C41.5963,-207.983 41.5963,-198.712 41.5963,-190.112"/>
<polygon fill="black" stroke="black" points="45.0964,-190.104 41.5963,-180.104 38.0964,-190.104 45.0964,-190.104"/>
</g>
</g>
</svg>
