<?xml version="1.0" encoding="UTF-8" standalone="no"?>
<!DOCTYPE svg PUBLIC "-//W3C//DTD SVG 1.1//EN"
 "http://www.w3.org/Graphics/SVG/1.1/DTD/svg11.dtd">
<!-- Generated by graphviz version 2.38.0 (20140413.2041)
 -->
<!-- Title: %3 Pages: 1 -->
<svg width="689pt" height="908pt"
 viewBox="0.00 0.00 688.64 908.00" xmlns="http://www.w3.org/2000/svg" xmlns:xlink="http://www.w3.org/1999/xlink">
<g id="graph0" class="graph" transform="scale(1 1) rotate(0) translate(4 904)">
<title>%3</title>
<polygon fill="white" stroke="none" points="-4,4 -4,-904 684.643,-904 684.643,4 -4,4"/>
<!-- 0 -->
<g id="node1" class="node"><title>0</title>
<g id="a_node1"><a xlink:title="0, diversity: 1, multiplicities: 35, labels: 0">
<ellipse fill="#fca082" stroke="black" cx="336.047" cy="-666" rx="37.0935" ry="18"/>
<text text-anchor="middle" x="336.047" y="-662.3" font-family="Times,serif" font-size="14.00">0 (1): 0</text>
</a>
</g>
</g>
<!-- 7 -->
<g id="node8" class="node"><title>7</title>
<g id="a_node8"><a xlink:title="7, diversity: 1, multiplicities: 4, labels: 0">
<ellipse fill="#fee3d6" stroke="black" cx="187.047" cy="-594" rx="37.0935" ry="18"/>
<text text-anchor="middle" x="187.047" y="-590.3" font-family="Times,serif" font-size="14.00">7 (1): 0</text>
</a>
</g>
</g>
<!-- 0&#45;&gt;7 -->
<g id="edge7" class="edge"><title>0&#45;&gt;7</title>
<path fill="none" stroke="black" d="M310.433,-652.967C286.02,-641.497 249.067,-624.137 221.964,-611.404"/>
<polygon fill="black" stroke="black" points="223.364,-608.195 212.825,-607.111 220.388,-614.531 223.364,-608.195"/>
</g>
<!-- 43 -->
<g id="node44" class="node"><title>43</title>
<g id="a_node44"><a xlink:title="43, diversity: 1, multiplicities: 1, labels: 0">
<ellipse fill="#fff5f0" stroke="black" cx="336.047" cy="-594" rx="41.6928" ry="18"/>
<text text-anchor="middle" x="336.047" y="-590.3" font-family="Times,serif" font-size="14.00">43 (1): 0</text>
</a>
</g>
</g>
<!-- 0&#45;&gt;43 -->
<g id="edge8" class="edge"><title>0&#45;&gt;43</title>
<path fill="none" stroke="black" d="M336.047,-647.697C336.047,-639.983 336.047,-630.712 336.047,-622.112"/>
<polygon fill="black" stroke="black" points="339.547,-622.104 336.047,-612.104 332.547,-622.104 339.547,-622.104"/>
</g>
<!-- 1 -->
<g id="node2" class="node"><title>1</title>
<g id="a_node2"><a xlink:title="1, diversity: 2, multiplicities: 80,1051, labels: 0">
<ellipse fill="#c2161b" stroke="black" cx="436.047" cy="-810" rx="37.0935" ry="18"/>
<text text-anchor="middle" x="436.047" y="-806.3" font-family="Times,serif" font-size="14.00">1 (2): 0</text>
</a>
</g>
</g>
<!-- 14 -->
<g id="node15" class="node"><title>14</title>
<g id="a_node15"><a xlink:title="14, diversity: 1, multiplicities: 24, labels: 0">
<ellipse fill="#fca082" stroke="black" cx="384.047" cy="-738" rx="41.6928" ry="18"/>
<text text-anchor="middle" x="384.047" y="-734.3" font-family="Times,serif" font-size="14.00">14 (1): 0</text>
</a>
</g>
</g>
<!-- 1&#45;&gt;14 -->
<g id="edge14" class="edge"><title>1&#45;&gt;14</title>
<path fill="none" stroke="black" d="M423.986,-792.765C417.582,-784.143 409.575,-773.365 402.415,-763.727"/>
<polygon fill="black" stroke="black" points="405.176,-761.574 396.403,-755.633 399.557,-765.748 405.176,-761.574"/>
</g>
<!-- 21 -->
<g id="node22" class="node"><title>21</title>
<g id="a_node22"><a xlink:title="21, diversity: 1, multiplicities: 5, labels: 0">
<ellipse fill="#fee3d6" stroke="black" cx="485.047" cy="-738" rx="41.6928" ry="18"/>
<text text-anchor="middle" x="485.047" y="-734.3" font-family="Times,serif" font-size="14.00">21 (1): 0</text>
</a>
</g>
</g>
<!-- 1&#45;&gt;21 -->
<g id="edge1" class="edge"><title>1&#45;&gt;21</title>
<path fill="none" stroke="black" d="M447.411,-792.765C453.386,-784.23 460.839,-773.582 467.533,-764.019"/>
<polygon fill="black" stroke="black" points="470.536,-765.833 473.403,-755.633 464.801,-761.819 470.536,-765.833"/>
</g>
<!-- 2 -->
<g id="node3" class="node"><title>2</title>
<g id="a_node3"><a xlink:title="2, diversity: 2, multiplicities: 1,7, labels: 0">
<ellipse fill="#fcc4ad" stroke="black" cx="487.047" cy="-594" rx="37.0935" ry="18"/>
<text text-anchor="middle" x="487.047" y="-590.3" font-family="Times,serif" font-size="14.00">2 (2): 0</text>
</a>
</g>
</g>
<!-- 17 -->
<g id="node18" class="node"><title>17</title>
<g id="a_node18"><a xlink:title="17, diversity: 1, multiplicities: 2, labels: 0">
<ellipse fill="#fee3d6" stroke="black" cx="487.047" cy="-522" rx="41.6928" ry="18"/>
<text text-anchor="middle" x="487.047" y="-518.3" font-family="Times,serif" font-size="14.00">17 (1): 0</text>
</a>
</g>
</g>
<!-- 2&#45;&gt;17 -->
<g id="edge33" class="edge"><title>2&#45;&gt;17</title>
<path fill="none" stroke="black" d="M487.047,-575.697C487.047,-567.983 487.047,-558.712 487.047,-550.112"/>
<polygon fill="black" stroke="black" points="490.547,-550.104 487.047,-540.104 483.547,-550.104 490.547,-550.104"/>
</g>
<!-- 31 -->
<g id="node32" class="node"><title>31</title>
<g id="a_node32"><a xlink:title="31, diversity: 1, multiplicities: 5, labels: 0">
<ellipse fill="#fee3d6" stroke="black" cx="588.047" cy="-522" rx="41.6928" ry="18"/>
<text text-anchor="middle" x="588.047" y="-518.3" font-family="Times,serif" font-size="14.00">31 (1): 0</text>
</a>
</g>
</g>
<!-- 2&#45;&gt;31 -->
<g id="edge15" class="edge"><title>2&#45;&gt;31</title>
<path fill="none" stroke="black" d="M507.486,-578.834C522.076,-568.722 541.93,-554.962 558.278,-543.632"/>
<polygon fill="black" stroke="black" points="560.718,-546.199 566.943,-537.626 556.73,-540.446 560.718,-546.199"/>
</g>
<!-- 3 -->
<g id="node4" class="node"><title>3</title>
<g id="a_node4"><a xlink:title="3, diversity: 1, multiplicities: 76, labels: 0">
<ellipse fill="#fca082" stroke="black" cx="237.047" cy="-378" rx="37.0935" ry="18"/>
<text text-anchor="middle" x="237.047" y="-374.3" font-family="Times,serif" font-size="14.00">3 (1): 0</text>
</a>
</g>
</g>
<!-- 13 -->
<g id="node14" class="node"><title>13</title>
<g id="a_node14"><a xlink:title="13, diversity: 1, multiplicities: 10, labels: 0">
<ellipse fill="#fcc4ad" stroke="black" cx="235.047" cy="-306" rx="41.6928" ry="18"/>
<text text-anchor="middle" x="235.047" y="-302.3" font-family="Times,serif" font-size="14.00">13 (1): 0</text>
</a>
</g>
</g>
<!-- 3&#45;&gt;13 -->
<g id="edge21" class="edge"><title>3&#45;&gt;13</title>
<path fill="none" stroke="black" d="M236.552,-359.697C236.332,-351.983 236.067,-342.712 235.821,-334.112"/>
<polygon fill="black" stroke="black" points="239.32,-334 235.535,-324.104 232.323,-334.2 239.32,-334"/>
</g>
<!-- 4 -->
<g id="node5" class="node"><title>4</title>
<g id="a_node5"><a xlink:title="4, diversity: 1, multiplicities: 178, labels: 0">
<ellipse fill="#fb7c5c" stroke="black" cx="37.0467" cy="-306" rx="37.0935" ry="18"/>
<text text-anchor="middle" x="37.0467" y="-302.3" font-family="Times,serif" font-size="14.00">4 (1): 0</text>
</a>
</g>
</g>
<!-- 5 -->
<g id="node6" class="node"><title>5</title>
<g id="a_node6"><a xlink:title="5, diversity: 3, multiplicities: 7,9,51, labels: 0">
<ellipse fill="#fca082" stroke="black" cx="134.047" cy="-450" rx="37.0935" ry="18"/>
<text text-anchor="middle" x="134.047" y="-446.3" font-family="Times,serif" font-size="14.00">5 (3): 0</text>
</a>
</g>
</g>
<!-- 6 -->
<g id="node7" class="node"><title>6</title>
<g id="a_node7"><a xlink:title="6, diversity: 1, multiplicities: 24, labels: 0">
<ellipse fill="#fca082" stroke="black" cx="37.0467" cy="-378" rx="37.0935" ry="18"/>
<text text-anchor="middle" x="37.0467" y="-374.3" font-family="Times,serif" font-size="14.00">6 (1): 0</text>
</a>
</g>
</g>
<!-- 5&#45;&gt;6 -->
<g id="edge3" class="edge"><title>5&#45;&gt;6</title>
<path fill="none" stroke="black" d="M113.948,-434.496C99.8082,-424.292 80.6952,-410.499 65.0614,-399.217"/>
<polygon fill="black" stroke="black" points="66.9447,-396.26 56.7875,-393.246 62.8484,-401.936 66.9447,-396.26"/>
</g>
<!-- 22 -->
<g id="node23" class="node"><title>22</title>
<g id="a_node23"><a xlink:title="22, diversity: 1, multiplicities: 5, labels: 0">
<ellipse fill="#fee3d6" stroke="black" cx="134.047" cy="-378" rx="41.6928" ry="18"/>
<text text-anchor="middle" x="134.047" y="-374.3" font-family="Times,serif" font-size="14.00">22 (1): 0</text>
</a>
</g>
</g>
<!-- 5&#45;&gt;22 -->
<g id="edge28" class="edge"><title>5&#45;&gt;22</title>
<path fill="none" stroke="black" d="M134.047,-431.697C134.047,-423.983 134.047,-414.712 134.047,-406.112"/>
<polygon fill="black" stroke="black" points="137.547,-406.104 134.047,-396.104 130.547,-406.104 137.547,-406.104"/>
</g>
<!-- 6&#45;&gt;4 -->
<g id="edge20" class="edge"><title>6&#45;&gt;4</title>
<path fill="none" stroke="black" d="M37.0467,-359.697C37.0467,-351.983 37.0467,-342.712 37.0467,-334.112"/>
<polygon fill="black" stroke="black" points="40.5468,-334.104 37.0467,-324.104 33.5468,-334.104 40.5468,-334.104"/>
</g>
<!-- 34 -->
<g id="node35" class="node"><title>34</title>
<g id="a_node35"><a xlink:title="34, diversity: 2, multiplicities: 1,1, labels: 0">
<ellipse fill="#fee3d6" stroke="black" cx="160.047" cy="-522" rx="41.6928" ry="18"/>
<text text-anchor="middle" x="160.047" y="-518.3" font-family="Times,serif" font-size="14.00">34 (2): 0</text>
</a>
</g>
</g>
<!-- 7&#45;&gt;34 -->
<g id="edge42" class="edge"><title>7&#45;&gt;34</title>
<path fill="none" stroke="black" d="M180.511,-576.055C177.426,-568.059 173.674,-558.331 170.229,-549.4"/>
<polygon fill="black" stroke="black" points="173.387,-547.859 166.522,-539.789 166.856,-550.379 173.387,-547.859"/>
</g>
<!-- 8 -->
<g id="node9" class="node"><title>8</title>
<g id="a_node9"><a xlink:title="8, diversity: 1, multiplicities: 6, labels: 0">
<ellipse fill="#fcc4ad" stroke="black" cx="437.047" cy="-234" rx="37.0935" ry="18"/>
<text text-anchor="middle" x="437.047" y="-230.3" font-family="Times,serif" font-size="14.00">8 (1): 0</text>
</a>
</g>
</g>
<!-- 9 -->
<g id="node10" class="node"><title>9</title>
<g id="a_node10"><a xlink:title="9, diversity: 1, multiplicities: 57, labels: 0">
<ellipse fill="#fca082" stroke="black" cx="336.047" cy="-450" rx="37.0935" ry="18"/>
<text text-anchor="middle" x="336.047" y="-446.3" font-family="Times,serif" font-size="14.00">9 (1): 0</text>
</a>
</g>
</g>
<!-- 9&#45;&gt;3 -->
<g id="edge24" class="edge"><title>9&#45;&gt;3</title>
<path fill="none" stroke="black" d="M316.013,-434.834C301.616,-424.655 281.99,-410.778 265.906,-399.406"/>
<polygon fill="black" stroke="black" points="267.577,-396.3 257.391,-393.385 263.535,-402.016 267.577,-396.3"/>
</g>
<!-- 24 -->
<g id="node25" class="node"><title>24</title>
<g id="a_node25"><a xlink:title="24, diversity: 1, multiplicities: 3, labels: 0">
<ellipse fill="#fee3d6" stroke="black" cx="336.047" cy="-378" rx="41.6928" ry="18"/>
<text text-anchor="middle" x="336.047" y="-374.3" font-family="Times,serif" font-size="14.00">24 (1): 0</text>
</a>
</g>
</g>
<!-- 9&#45;&gt;24 -->
<g id="edge18" class="edge"><title>9&#45;&gt;24</title>
<path fill="none" stroke="black" d="M336.047,-431.697C336.047,-423.983 336.047,-414.712 336.047,-406.112"/>
<polygon fill="black" stroke="black" points="339.547,-406.104 336.047,-396.104 332.547,-406.104 339.547,-406.104"/>
</g>
<!-- 38 -->
<g id="node39" class="node"><title>38</title>
<g id="a_node39"><a xlink:title="38, diversity: 1, multiplicities: 1, labels: 0">
<ellipse fill="#fff5f0" stroke="black" cx="437.047" cy="-378" rx="41.6928" ry="18"/>
<text text-anchor="middle" x="437.047" y="-374.3" font-family="Times,serif" font-size="14.00">38 (1): 0</text>
</a>
</g>
</g>
<!-- 9&#45;&gt;38 -->
<g id="edge41" class="edge"><title>9&#45;&gt;38</title>
<path fill="none" stroke="black" d="M356.486,-434.834C371.076,-424.722 390.93,-410.962 407.278,-399.632"/>
<polygon fill="black" stroke="black" points="409.718,-402.199 415.943,-393.626 405.73,-396.446 409.718,-402.199"/>
</g>
<!-- 10 -->
<g id="node11" class="node"><title>10</title>
<g id="a_node11"><a xlink:title="10, diversity: 2, multiplicities: 2,6, labels: 0">
<ellipse fill="#fcc4ad" stroke="black" cx="538.047" cy="-306" rx="41.6928" ry="18"/>
<text text-anchor="middle" x="538.047" y="-302.3" font-family="Times,serif" font-size="14.00">10 (2): 0</text>
</a>
</g>
</g>
<!-- 39 -->
<g id="node40" class="node"><title>39</title>
<g id="a_node40"><a xlink:title="39, diversity: 1, multiplicities: 3, labels: 0">
<ellipse fill="#fee3d6" stroke="black" cx="536.047" cy="-234" rx="41.6928" ry="18"/>
<text text-anchor="middle" x="536.047" y="-230.3" font-family="Times,serif" font-size="14.00">39 (1): 0</text>
</a>
</g>
</g>
<!-- 10&#45;&gt;39 -->
<g id="edge22" class="edge"><title>10&#45;&gt;39</title>
<path fill="none" stroke="black" d="M537.552,-287.697C537.332,-279.983 537.067,-270.712 536.821,-262.112"/>
<polygon fill="black" stroke="black" points="540.32,-262 536.535,-252.104 533.323,-262.2 540.32,-262"/>
</g>
<!-- 41 -->
<g id="node42" class="node"><title>41</title>
<g id="a_node42"><a xlink:title="41, diversity: 1, multiplicities: 1, labels: 0">
<ellipse fill="#fff5f0" stroke="black" cx="637.047" cy="-234" rx="41.6928" ry="18"/>
<text text-anchor="middle" x="637.047" y="-230.3" font-family="Times,serif" font-size="14.00">41 (1): 0</text>
</a>
</g>
</g>
<!-- 10&#45;&gt;41 -->
<g id="edge16" class="edge"><title>10&#45;&gt;41</title>
<path fill="none" stroke="black" d="M559.042,-290.155C573.218,-280.132 592.124,-266.763 607.773,-255.698"/>
<polygon fill="black" stroke="black" points="609.937,-258.455 616.082,-249.824 605.896,-252.739 609.937,-258.455"/>
</g>
<!-- 11 -->
<g id="node12" class="node"><title>11</title>
<g id="a_node12"><a xlink:title="11, diversity: 2, multiplicities: 1,12, labels: 0">
<ellipse fill="#fca082" stroke="black" cx="538.047" cy="-378" rx="41.6928" ry="18"/>
<text text-anchor="middle" x="538.047" y="-374.3" font-family="Times,serif" font-size="14.00">11 (2): 0</text>
</a>
</g>
</g>
<!-- 11&#45;&gt;10 -->
<g id="edge12" class="edge"><title>11&#45;&gt;10</title>
<path fill="none" stroke="black" d="M538.047,-359.697C538.047,-351.983 538.047,-342.712 538.047,-334.112"/>
<polygon fill="black" stroke="black" points="541.547,-334.104 538.047,-324.104 534.547,-334.104 541.547,-334.104"/>
</g>
<!-- 36 -->
<g id="node37" class="node"><title>36</title>
<g id="a_node37"><a xlink:title="36, diversity: 1, multiplicities: 8, labels: 0">
<ellipse fill="#fcc4ad" stroke="black" cx="639.047" cy="-306" rx="41.6928" ry="18"/>
<text text-anchor="middle" x="639.047" y="-302.3" font-family="Times,serif" font-size="14.00">36 (1): 0</text>
</a>
</g>
</g>
<!-- 11&#45;&gt;36 -->
<g id="edge35" class="edge"><title>11&#45;&gt;36</title>
<path fill="none" stroke="black" d="M559.466,-362.155C574.026,-352.064 593.478,-338.583 609.505,-327.474"/>
<polygon fill="black" stroke="black" points="611.779,-330.157 618.004,-321.584 607.792,-324.403 611.779,-330.157"/>
</g>
<!-- 12 -->
<g id="node13" class="node"><title>12</title>
<g id="a_node13"><a xlink:title="12, diversity: 1, multiplicities: 44, labels: 0">
<ellipse fill="#fca082" stroke="black" cx="435.047" cy="-666" rx="41.6928" ry="18"/>
<text text-anchor="middle" x="435.047" y="-662.3" font-family="Times,serif" font-size="14.00">12 (1): 0</text>
</a>
</g>
</g>
<!-- 12&#45;&gt;2 -->
<g id="edge11" class="edge"><title>12&#45;&gt;2</title>
<path fill="none" stroke="black" d="M447.107,-648.765C453.605,-640.018 461.751,-629.052 468.989,-619.308"/>
<polygon fill="black" stroke="black" points="471.898,-621.262 475.052,-611.147 466.279,-617.088 471.898,-621.262"/>
</g>
<!-- 37 -->
<g id="node38" class="node"><title>37</title>
<g id="a_node38"><a xlink:title="37, diversity: 1, multiplicities: 1, labels: 0">
<ellipse fill="#fff5f0" stroke="black" cx="235.047" cy="-234" rx="41.6928" ry="18"/>
<text text-anchor="middle" x="235.047" y="-230.3" font-family="Times,serif" font-size="14.00">37 (1): 0</text>
</a>
</g>
</g>
<!-- 13&#45;&gt;37 -->
<g id="edge6" class="edge"><title>13&#45;&gt;37</title>
<path fill="none" stroke="black" d="M235.047,-287.697C235.047,-279.983 235.047,-270.712 235.047,-262.112"/>
<polygon fill="black" stroke="black" points="238.547,-262.104 235.047,-252.104 231.547,-262.104 238.547,-262.104"/>
</g>
<!-- 14&#45;&gt;0 -->
<g id="edge9" class="edge"><title>14&#45;&gt;0</title>
<path fill="none" stroke="black" d="M372.671,-720.411C366.813,-711.868 359.552,-701.278 353.044,-691.787"/>
<polygon fill="black" stroke="black" points="355.882,-689.738 347.34,-683.47 350.109,-693.697 355.882,-689.738"/>
</g>
<!-- 14&#45;&gt;12 -->
<g id="edge37" class="edge"><title>14&#45;&gt;12</title>
<path fill="none" stroke="black" d="M396.133,-720.411C402.357,-711.868 410.072,-701.278 416.987,-691.787"/>
<polygon fill="black" stroke="black" points="419.987,-693.613 423.047,-683.47 414.33,-689.491 419.987,-693.613"/>
</g>
<!-- 15 -->
<g id="node16" class="node"><title>15</title>
<g id="a_node16"><a xlink:title="15, diversity: 1, multiplicities: 5, labels: 0">
<ellipse fill="#fee3d6" stroke="black" cx="634.047" cy="-738" rx="41.6928" ry="18"/>
<text text-anchor="middle" x="634.047" y="-734.3" font-family="Times,serif" font-size="14.00">15 (1): 0</text>
</a>
</g>
</g>
<!-- 16 -->
<g id="node17" class="node"><title>16</title>
<g id="a_node17"><a xlink:title="16, diversity: 1, multiplicities: 7, labels: 0">
<ellipse fill="#fcc4ad" stroke="black" cx="533.047" cy="-882" rx="41.6928" ry="18"/>
<text text-anchor="middle" x="533.047" y="-878.3" font-family="Times,serif" font-size="14.00">16 (1): 0</text>
</a>
</g>
</g>
<!-- 16&#45;&gt;1 -->
<g id="edge36" class="edge"><title>16&#45;&gt;1</title>
<path fill="none" stroke="black" d="M512.476,-866.155C498.399,-855.996 479.56,-842.401 464.109,-831.251"/>
<polygon fill="black" stroke="black" points="466.082,-828.359 455.925,-825.345 461.986,-834.035 466.082,-828.359"/>
</g>
<!-- 25 -->
<g id="node26" class="node"><title>25</title>
<g id="a_node26"><a xlink:title="25, diversity: 2, multiplicities: 1,5, labels: 0">
<ellipse fill="#fcc4ad" stroke="black" cx="533.047" cy="-810" rx="41.6928" ry="18"/>
<text text-anchor="middle" x="533.047" y="-806.3" font-family="Times,serif" font-size="14.00">25 (2): 0</text>
</a>
</g>
</g>
<!-- 16&#45;&gt;25 -->
<g id="edge17" class="edge"><title>16&#45;&gt;25</title>
<path fill="none" stroke="black" d="M533.047,-863.697C533.047,-855.983 533.047,-846.712 533.047,-838.112"/>
<polygon fill="black" stroke="black" points="536.547,-838.104 533.047,-828.104 529.547,-838.104 536.547,-838.104"/>
</g>
<!-- 30 -->
<g id="node31" class="node"><title>30</title>
<g id="a_node31"><a xlink:title="30, diversity: 1, multiplicities: 1, labels: 0">
<ellipse fill="#fff5f0" stroke="black" cx="634.047" cy="-810" rx="41.6928" ry="18"/>
<text text-anchor="middle" x="634.047" y="-806.3" font-family="Times,serif" font-size="14.00">30 (1): 0</text>
</a>
</g>
</g>
<!-- 16&#45;&gt;30 -->
<g id="edge23" class="edge"><title>16&#45;&gt;30</title>
<path fill="none" stroke="black" d="M554.466,-866.155C569.026,-856.064 588.478,-842.583 604.505,-831.474"/>
<polygon fill="black" stroke="black" points="606.779,-834.157 613.004,-825.584 602.792,-828.403 606.779,-834.157"/>
</g>
<!-- 27 -->
<g id="node28" class="node"><title>27</title>
<g id="a_node28"><a xlink:title="27, diversity: 1, multiplicities: 6, labels: 0">
<ellipse fill="#fcc4ad" stroke="black" cx="512.047" cy="-450" rx="41.6928" ry="18"/>
<text text-anchor="middle" x="512.047" y="-446.3" font-family="Times,serif" font-size="14.00">27 (1): 0</text>
</a>
</g>
</g>
<!-- 17&#45;&gt;27 -->
<g id="edge31" class="edge"><title>17&#45;&gt;27</title>
<path fill="none" stroke="black" d="M493.099,-504.055C495.912,-496.176 499.327,-486.617 502.477,-477.794"/>
<polygon fill="black" stroke="black" points="505.81,-478.87 505.877,-468.275 499.217,-476.516 505.81,-478.87"/>
</g>
<!-- 18 -->
<g id="node19" class="node"><title>18</title>
<g id="a_node19"><a xlink:title="18, diversity: 1, multiplicities: 6, labels: 0">
<ellipse fill="#fcc4ad" stroke="black" cx="235.047" cy="-162" rx="41.6928" ry="18"/>
<text text-anchor="middle" x="235.047" y="-158.3" font-family="Times,serif" font-size="14.00">18 (1): 0</text>
</a>
</g>
</g>
<!-- 19 -->
<g id="node20" class="node"><title>19</title>
<g id="a_node20"><a xlink:title="19, diversity: 2, multiplicities: 2,5, labels: 0">
<ellipse fill="#fcc4ad" stroke="black" cx="336.047" cy="-90" rx="41.6928" ry="18"/>
<text text-anchor="middle" x="336.047" y="-86.3" font-family="Times,serif" font-size="14.00">19 (2): 0</text>
</a>
</g>
</g>
<!-- 20 -->
<g id="node21" class="node"><title>20</title>
<g id="a_node21"><a xlink:title="20, diversity: 2, multiplicities: 2,9, labels: 0">
<ellipse fill="#fca082" stroke="black" cx="134.047" cy="-306" rx="41.6928" ry="18"/>
<text text-anchor="middle" x="134.047" y="-302.3" font-family="Times,serif" font-size="14.00">20 (2): 0</text>
</a>
</g>
</g>
<!-- 22&#45;&gt;20 -->
<g id="edge32" class="edge"><title>22&#45;&gt;20</title>
<path fill="none" stroke="black" d="M134.047,-359.697C134.047,-351.983 134.047,-342.712 134.047,-334.112"/>
<polygon fill="black" stroke="black" points="137.547,-334.104 134.047,-324.104 130.547,-334.104 137.547,-334.104"/>
</g>
<!-- 23 -->
<g id="node24" class="node"><title>23</title>
<g id="a_node24"><a xlink:title="23, diversity: 1, multiplicities: 4, labels: 0">
<ellipse fill="#fee3d6" stroke="black" cx="437.047" cy="-306" rx="41.6928" ry="18"/>
<text text-anchor="middle" x="437.047" y="-302.3" font-family="Times,serif" font-size="14.00">23 (1): 0</text>
</a>
</g>
</g>
<!-- 23&#45;&gt;8 -->
<g id="edge5" class="edge"><title>23&#45;&gt;8</title>
<path fill="none" stroke="black" d="M437.047,-287.697C437.047,-279.983 437.047,-270.712 437.047,-262.112"/>
<polygon fill="black" stroke="black" points="440.547,-262.104 437.047,-252.104 433.547,-262.104 440.547,-262.104"/>
</g>
<!-- 28 -->
<g id="node29" class="node"><title>28</title>
<g id="a_node29"><a xlink:title="28, diversity: 1, multiplicities: 3, labels: 0">
<ellipse fill="#fee3d6" stroke="black" cx="336.047" cy="-306" rx="41.6928" ry="18"/>
<text text-anchor="middle" x="336.047" y="-302.3" font-family="Times,serif" font-size="14.00">28 (1): 0</text>
</a>
</g>
</g>
<!-- 24&#45;&gt;28 -->
<g id="edge13" class="edge"><title>24&#45;&gt;28</title>
<path fill="none" stroke="black" d="M336.047,-359.697C336.047,-351.983 336.047,-342.712 336.047,-334.112"/>
<polygon fill="black" stroke="black" points="339.547,-334.104 336.047,-324.104 332.547,-334.104 339.547,-334.104"/>
</g>
<!-- 26 -->
<g id="node27" class="node"><title>26</title>
<g id="a_node27"><a xlink:title="26, diversity: 1, multiplicities: 6, labels: 0">
<ellipse fill="#fcc4ad" stroke="black" cx="336.047" cy="-522" rx="41.6928" ry="18"/>
<text text-anchor="middle" x="336.047" y="-518.3" font-family="Times,serif" font-size="14.00">26 (1): 0</text>
</a>
</g>
</g>
<!-- 26&#45;&gt;9 -->
<g id="edge26" class="edge"><title>26&#45;&gt;9</title>
<path fill="none" stroke="black" d="M336.047,-503.697C336.047,-495.983 336.047,-486.712 336.047,-478.112"/>
<polygon fill="black" stroke="black" points="339.547,-478.104 336.047,-468.104 332.547,-478.104 339.547,-478.104"/>
</g>
<!-- 27&#45;&gt;11 -->
<g id="edge43" class="edge"><title>27&#45;&gt;11</title>
<path fill="none" stroke="black" d="M518.341,-432.055C521.267,-424.176 524.818,-414.617 528.095,-405.794"/>
<polygon fill="black" stroke="black" points="531.429,-406.868 531.63,-396.275 524.867,-404.431 531.429,-406.868"/>
</g>
<!-- 32 -->
<g id="node33" class="node"><title>32</title>
<g id="a_node33"><a xlink:title="32, diversity: 1, multiplicities: 5, labels: 0">
<ellipse fill="#fee3d6" stroke="black" cx="336.047" cy="-234" rx="41.6928" ry="18"/>
<text text-anchor="middle" x="336.047" y="-230.3" font-family="Times,serif" font-size="14.00">32 (1): 0</text>
</a>
</g>
</g>
<!-- 28&#45;&gt;32 -->
<g id="edge29" class="edge"><title>28&#45;&gt;32</title>
<path fill="none" stroke="black" d="M336.047,-287.697C336.047,-279.983 336.047,-270.712 336.047,-262.112"/>
<polygon fill="black" stroke="black" points="339.547,-262.104 336.047,-252.104 332.547,-262.104 339.547,-262.104"/>
</g>
<!-- 29 -->
<g id="node30" class="node"><title>29</title>
<g id="a_node30"><a xlink:title="29, diversity: 2, multiplicities: 1,6, labels: 0">
<ellipse fill="#fcc4ad" stroke="black" cx="536.047" cy="-162" rx="41.6928" ry="18"/>
<text text-anchor="middle" x="536.047" y="-158.3" font-family="Times,serif" font-size="14.00">29 (2): 0</text>
</a>
</g>
</g>
<!-- 30&#45;&gt;15 -->
<g id="edge30" class="edge"><title>30&#45;&gt;15</title>
<path fill="none" stroke="black" d="M634.047,-791.697C634.047,-783.983 634.047,-774.712 634.047,-766.112"/>
<polygon fill="black" stroke="black" points="637.547,-766.104 634.047,-756.104 630.547,-766.104 637.547,-766.104"/>
</g>
<!-- 33 -->
<g id="node34" class="node"><title>33</title>
<g id="a_node34"><a xlink:title="33, diversity: 1, multiplicities: 1, labels: 0">
<ellipse fill="#fff5f0" stroke="black" cx="336.047" cy="-162" rx="41.6928" ry="18"/>
<text text-anchor="middle" x="336.047" y="-158.3" font-family="Times,serif" font-size="14.00">33 (1): 0</text>
</a>
</g>
</g>
<!-- 32&#45;&gt;33 -->
<g id="edge10" class="edge"><title>32&#45;&gt;33</title>
<path fill="none" stroke="black" d="M336.047,-215.697C336.047,-207.983 336.047,-198.712 336.047,-190.112"/>
<polygon fill="black" stroke="black" points="339.547,-190.104 336.047,-180.104 332.547,-190.104 339.547,-190.104"/>
</g>
<!-- 33&#45;&gt;19 -->
<g id="edge39" class="edge"><title>33&#45;&gt;19</title>
<path fill="none" stroke="black" d="M336.047,-143.697C336.047,-135.983 336.047,-126.712 336.047,-118.112"/>
<polygon fill="black" stroke="black" points="339.547,-118.104 336.047,-108.104 332.547,-118.104 339.547,-118.104"/>
</g>
<!-- 34&#45;&gt;5 -->
<g id="edge4" class="edge"><title>34&#45;&gt;5</title>
<path fill="none" stroke="black" d="M153.753,-504.055C150.783,-496.059 147.17,-486.331 143.852,-477.4"/>
<polygon fill="black" stroke="black" points="147.046,-475.945 140.283,-467.789 140.484,-478.382 147.046,-475.945"/>
</g>
<!-- 35 -->
<g id="node36" class="node"><title>35</title>
<g id="a_node36"><a xlink:title="35, diversity: 1, multiplicities: 5, labels: 0">
<ellipse fill="#fee3d6" stroke="black" cx="637.047" cy="-18" rx="41.6928" ry="18"/>
<text text-anchor="middle" x="637.047" y="-14.3" font-family="Times,serif" font-size="14.00">35 (1): 0</text>
</a>
</g>
</g>
<!-- 37&#45;&gt;18 -->
<g id="edge25" class="edge"><title>37&#45;&gt;18</title>
<path fill="none" stroke="black" d="M235.047,-215.697C235.047,-207.983 235.047,-198.712 235.047,-190.112"/>
<polygon fill="black" stroke="black" points="238.547,-190.104 235.047,-180.104 231.547,-190.104 238.547,-190.104"/>
</g>
<!-- 38&#45;&gt;23 -->
<g id="edge40" class="edge"><title>38&#45;&gt;23</title>
<path fill="none" stroke="black" d="M437.047,-359.697C437.047,-351.983 437.047,-342.712 437.047,-334.112"/>
<polygon fill="black" stroke="black" points="440.547,-334.104 437.047,-324.104 433.547,-334.104 440.547,-334.104"/>
</g>
<!-- 39&#45;&gt;29 -->
<g id="edge19" class="edge"><title>39&#45;&gt;29</title>
<path fill="none" stroke="black" d="M536.047,-215.697C536.047,-207.983 536.047,-198.712 536.047,-190.112"/>
<polygon fill="black" stroke="black" points="539.547,-190.104 536.047,-180.104 532.547,-190.104 539.547,-190.104"/>
</g>
<!-- 40 -->
<g id="node41" class="node"><title>40</title>
<g id="a_node41"><a xlink:title="40, diversity: 1, multiplicities: 1, labels: 0">
<ellipse fill="#fff5f0" stroke="black" cx="637.047" cy="-90" rx="41.6928" ry="18"/>
<text text-anchor="middle" x="637.047" y="-86.3" font-family="Times,serif" font-size="14.00">40 (1): 0</text>
</a>
</g>
</g>
<!-- 40&#45;&gt;35 -->
<g id="edge34" class="edge"><title>40&#45;&gt;35</title>
<path fill="none" stroke="black" d="M637.047,-71.6966C637.047,-63.9827 637.047,-54.7125 637.047,-46.1124"/>
<polygon fill="black" stroke="black" points="640.547,-46.1043 637.047,-36.1043 633.547,-46.1044 640.547,-46.1043"/>
</g>
<!-- 42 -->
<g id="node43" class="node"><title>42</title>
<g id="a_node43"><a xlink:title="42, diversity: 1, multiplicities: 1, labels: 0">
<ellipse fill="#fff5f0" stroke="black" cx="637.047" cy="-162" rx="41.6928" ry="18"/>
<text text-anchor="middle" x="637.047" y="-158.3" font-family="Times,serif" font-size="14.00">42 (1): 0</text>
</a>
</g>
</g>
<!-- 41&#45;&gt;42 -->
<g id="edge27" class="edge"><title>41&#45;&gt;42</title>
<path fill="none" stroke="black" d="M637.047,-215.697C637.047,-207.983 637.047,-198.712 637.047,-190.112"/>
<polygon fill="black" stroke="black" points="640.547,-190.104 637.047,-180.104 633.547,-190.104 640.547,-190.104"/>
</g>
<!-- 42&#45;&gt;40 -->
<g id="edge2" class="edge"><title>42&#45;&gt;40</title>
<path fill="none" stroke="black" d="M637.047,-143.697C637.047,-135.983 637.047,-126.712 637.047,-118.112"/>
<polygon fill="black" stroke="black" points="640.547,-118.104 637.047,-108.104 633.547,-118.104 640.547,-118.104"/>
</g>
<!-- 43&#45;&gt;26 -->
<g id="edge38" class="edge"><title>43&#45;&gt;26</title>
<path fill="none" stroke="black" d="M336.047,-575.697C336.047,-567.983 336.047,-558.712 336.047,-550.112"/>
<polygon fill="black" stroke="black" points="339.547,-550.104 336.047,-540.104 332.547,-550.104 339.547,-550.104"/>
</g>
</g>
</svg>
