<?xml version="1.0" encoding="UTF-8" standalone="no"?>
<!DOCTYPE svg PUBLIC "-//W3C//DTD SVG 1.1//EN"
 "http://www.w3.org/Graphics/SVG/1.1/DTD/svg11.dtd">
<!-- Generated by graphviz version 2.38.0 (20140413.2041)
 -->
<!-- Title: %3 Pages: 1 -->
<svg width="179pt" height="620pt"
 viewBox="0.00 0.00 178.64 620.00" xmlns="http://www.w3.org/2000/svg" xmlns:xlink="http://www.w3.org/1999/xlink">
<g id="graph0" class="graph" transform="scale(1 1) rotate(0) translate(4 616)">
<title>%3</title>
<polygon fill="white" stroke="none" points="-4,4 -4,-616 174.643,-616 174.643,4 -4,4"/>
<!-- 0 -->
<g id="node1" class="node"><title>0</title>
<g id="a_node1"><a xlink:title="0, diversity: 5, multiplicities: 1,4,4,7,396, labels: 0">
<ellipse fill="#f6553c" stroke="black" cx="83.0467" cy="-594" rx="37.0935" ry="18"/>
<text text-anchor="middle" x="83.0467" y="-590.3" font-family="Times,serif" font-size="14.00">0 (5): 0</text>
</a>
</g>
</g>
<!-- 2 -->
<g id="node3" class="node"><title>2</title>
<g id="a_node3"><a xlink:title="2, diversity: 1, multiplicities: 19, labels: 0">
<ellipse fill="#fca082" stroke="black" cx="37.0467" cy="-522" rx="37.0935" ry="18"/>
<text text-anchor="middle" x="37.0467" y="-518.3" font-family="Times,serif" font-size="14.00">2 (1): 0</text>
</a>
</g>
</g>
<!-- 0&#45;&gt;2 -->
<g id="edge9" class="edge"><title>0&#45;&gt;2</title>
<path fill="none" stroke="black" d="M72.1454,-576.411C66.5885,-567.955 59.7144,-557.494 53.5267,-548.078"/>
<polygon fill="black" stroke="black" points="56.2866,-545.905 47.8698,-539.47 50.4367,-549.749 56.2866,-545.905"/>
</g>
<!-- 8 -->
<g id="node9" class="node"><title>8</title>
<g id="a_node9"><a xlink:title="8, diversity: 2, multiplicities: 3,3, labels: 0">
<ellipse fill="#fcc4ad" stroke="black" cx="129.047" cy="-522" rx="37.0935" ry="18"/>
<text text-anchor="middle" x="129.047" y="-518.3" font-family="Times,serif" font-size="14.00">8 (2): 0</text>
</a>
</g>
</g>
<!-- 0&#45;&gt;8 -->
<g id="edge8" class="edge"><title>0&#45;&gt;8</title>
<path fill="none" stroke="black" d="M93.9481,-576.411C99.5049,-567.955 106.379,-557.494 112.567,-548.078"/>
<polygon fill="black" stroke="black" points="115.657,-549.749 118.224,-539.47 109.807,-545.905 115.657,-549.749"/>
</g>
<!-- 1 -->
<g id="node2" class="node"><title>1</title>
<g id="a_node2"><a xlink:title="1, diversity: 1, multiplicities: 5, labels: 0">
<ellipse fill="#fee3d6" stroke="black" cx="129.047" cy="-450" rx="37.0935" ry="18"/>
<text text-anchor="middle" x="129.047" y="-446.3" font-family="Times,serif" font-size="14.00">1 (1): 0</text>
</a>
</g>
</g>
<!-- 5 -->
<g id="node6" class="node"><title>5</title>
<g id="a_node6"><a xlink:title="5, diversity: 1, multiplicities: 4, labels: 0">
<ellipse fill="#fee3d6" stroke="black" cx="129.047" cy="-378" rx="37.0935" ry="18"/>
<text text-anchor="middle" x="129.047" y="-374.3" font-family="Times,serif" font-size="14.00">5 (1): 0</text>
</a>
</g>
</g>
<!-- 1&#45;&gt;5 -->
<g id="edge5" class="edge"><title>1&#45;&gt;5</title>
<path fill="none" stroke="black" d="M129.047,-431.697C129.047,-423.983 129.047,-414.712 129.047,-406.112"/>
<polygon fill="black" stroke="black" points="132.547,-406.104 129.047,-396.104 125.547,-406.104 132.547,-406.104"/>
</g>
<!-- 6 -->
<g id="node7" class="node"><title>6</title>
<g id="a_node7"><a xlink:title="6, diversity: 1, multiplicities: 6, labels: 0">
<ellipse fill="#fcc4ad" stroke="black" cx="37.0467" cy="-450" rx="37.0935" ry="18"/>
<text text-anchor="middle" x="37.0467" y="-446.3" font-family="Times,serif" font-size="14.00">6 (1): 0</text>
</a>
</g>
</g>
<!-- 2&#45;&gt;6 -->
<g id="edge1" class="edge"><title>2&#45;&gt;6</title>
<path fill="none" stroke="black" d="M37.0467,-503.697C37.0467,-495.983 37.0467,-486.712 37.0467,-478.112"/>
<polygon fill="black" stroke="black" points="40.5468,-478.104 37.0467,-468.104 33.5468,-478.104 40.5468,-478.104"/>
</g>
<!-- 3 -->
<g id="node4" class="node"><title>3</title>
<g id="a_node4"><a xlink:title="3, diversity: 1, multiplicities: 2, labels: 0">
<ellipse fill="#fee3d6" stroke="black" cx="129.047" cy="-162" rx="37.0935" ry="18"/>
<text text-anchor="middle" x="129.047" y="-158.3" font-family="Times,serif" font-size="14.00">3 (1): 0</text>
</a>
</g>
</g>
<!-- 9 -->
<g id="node10" class="node"><title>9</title>
<g id="a_node10"><a xlink:title="9, diversity: 1, multiplicities: 3, labels: 0">
<ellipse fill="#fee3d6" stroke="black" cx="129.047" cy="-90" rx="37.0935" ry="18"/>
<text text-anchor="middle" x="129.047" y="-86.3" font-family="Times,serif" font-size="14.00">9 (1): 0</text>
</a>
</g>
</g>
<!-- 3&#45;&gt;9 -->
<g id="edge6" class="edge"><title>3&#45;&gt;9</title>
<path fill="none" stroke="black" d="M129.047,-143.697C129.047,-135.983 129.047,-126.712 129.047,-118.112"/>
<polygon fill="black" stroke="black" points="132.547,-118.104 129.047,-108.104 125.547,-118.104 132.547,-118.104"/>
</g>
<!-- 4 -->
<g id="node5" class="node"><title>4</title>
<g id="a_node5"><a xlink:title="4, diversity: 2, multiplicities: 3,4, labels: 0">
<ellipse fill="#fcc4ad" stroke="black" cx="129.047" cy="-234" rx="37.0935" ry="18"/>
<text text-anchor="middle" x="129.047" y="-230.3" font-family="Times,serif" font-size="14.00">4 (2): 0</text>
</a>
</g>
</g>
<!-- 4&#45;&gt;3 -->
<g id="edge7" class="edge"><title>4&#45;&gt;3</title>
<path fill="none" stroke="black" d="M129.047,-215.697C129.047,-207.983 129.047,-198.712 129.047,-190.112"/>
<polygon fill="black" stroke="black" points="132.547,-190.104 129.047,-180.104 125.547,-190.104 132.547,-190.104"/>
</g>
<!-- 10 -->
<g id="node11" class="node"><title>10</title>
<g id="a_node11"><a xlink:title="10, diversity: 1, multiplicities: 1, labels: 0">
<ellipse fill="#fff5f0" stroke="black" cx="129.047" cy="-306" rx="41.6928" ry="18"/>
<text text-anchor="middle" x="129.047" y="-302.3" font-family="Times,serif" font-size="14.00">10 (1): 0</text>
</a>
</g>
</g>
<!-- 5&#45;&gt;10 -->
<g id="edge2" class="edge"><title>5&#45;&gt;10</title>
<path fill="none" stroke="black" d="M129.047,-359.697C129.047,-351.983 129.047,-342.712 129.047,-334.112"/>
<polygon fill="black" stroke="black" points="132.547,-334.104 129.047,-324.104 125.547,-334.104 132.547,-334.104"/>
</g>
<!-- 7 -->
<g id="node8" class="node"><title>7</title>
<g id="a_node8"><a xlink:title="7, diversity: 1, multiplicities: 9, labels: 0">
<ellipse fill="#fcc4ad" stroke="black" cx="129.047" cy="-18" rx="37.0935" ry="18"/>
<text text-anchor="middle" x="129.047" y="-14.3" font-family="Times,serif" font-size="14.00">7 (1): 0</text>
</a>
</g>
</g>
<!-- 8&#45;&gt;1 -->
<g id="edge4" class="edge"><title>8&#45;&gt;1</title>
<path fill="none" stroke="black" d="M129.047,-503.697C129.047,-495.983 129.047,-486.712 129.047,-478.112"/>
<polygon fill="black" stroke="black" points="132.547,-478.104 129.047,-468.104 125.547,-478.104 132.547,-478.104"/>
</g>
<!-- 9&#45;&gt;7 -->
<g id="edge10" class="edge"><title>9&#45;&gt;7</title>
<path fill="none" stroke="black" d="M129.047,-71.6966C129.047,-63.9827 129.047,-54.7125 129.047,-46.1124"/>
<polygon fill="black" stroke="black" points="132.547,-46.1043 129.047,-36.1043 125.547,-46.1044 132.547,-46.1043"/>
</g>
<!-- 10&#45;&gt;4 -->
<g id="edge3" class="edge"><title>10&#45;&gt;4</title>
<path fill="none" stroke="black" d="M129.047,-287.697C129.047,-279.983 129.047,-270.712 129.047,-262.112"/>
<polygon fill="black" stroke="black" points="132.547,-262.104 129.047,-252.104 125.547,-262.104 132.547,-262.104"/>
</g>
</g>
</svg>
