<?xml version="1.0" encoding="UTF-8" standalone="no"?>
<!DOCTYPE svg PUBLIC "-//W3C//DTD SVG 1.1//EN"
 "http://www.w3.org/Graphics/SVG/1.1/DTD/svg11.dtd">
<!-- Generated by graphviz version 2.38.0 (20140413.2041)
 -->
<!-- Title: %3 Pages: 1 -->
<svg width="770pt" height="620pt"
 viewBox="0.00 0.00 770.09 620.00" xmlns="http://www.w3.org/2000/svg" xmlns:xlink="http://www.w3.org/1999/xlink">
<g id="graph0" class="graph" transform="scale(1 1) rotate(0) translate(4 616)">
<title>%3</title>
<polygon fill="white" stroke="none" points="-4,4 -4,-616 766.093,-616 766.093,4 -4,4"/>
<!-- 0 -->
<g id="node1" class="node"><title>0</title>
<g id="a_node1"><a xlink:title="0, diversity: 3, multiplicities: 5,28,361, labels: 0">
<ellipse fill="#f7fcf5" stroke="black" cx="177.047" cy="-594" rx="37.0935" ry="18"/>
<text text-anchor="middle" x="177.047" y="-590.3" font-family="Times,serif" font-size="14.00">0 (3): 0</text>
</a>
</g>
</g>
<!-- 2 -->
<g id="node3" class="node"><title>2</title>
<g id="a_node3"><a xlink:title="2, diversity: 4, multiplicities: 9,12,23,342, labels: 0">
<ellipse fill="#f7fcf5" stroke="black" cx="37.0467" cy="-522" rx="37.0935" ry="18"/>
<text text-anchor="middle" x="37.0467" y="-518.3" font-family="Times,serif" font-size="14.00">2 (4): 0</text>
</a>
</g>
</g>
<!-- 0&#45;&gt;2 -->
<g id="edge31" class="edge"><title>0&#45;&gt;2</title>
<path fill="none" stroke="black" d="M152.018,-580.485C129.422,-569.187 95.9839,-552.469 70.9863,-539.97"/>
<polygon fill="black" stroke="black" points="72.3688,-536.748 61.8592,-535.406 69.2382,-543.009 72.3688,-536.748"/>
</g>
<!-- 4 -->
<g id="node5" class="node"><title>4</title>
<g id="a_node5"><a xlink:title="4, diversity: 1, multiplicities: 5, labels: 0">
<ellipse fill="#f7fcf5" stroke="black" cx="129.047" cy="-522" rx="37.0935" ry="18"/>
<text text-anchor="middle" x="129.047" y="-518.3" font-family="Times,serif" font-size="14.00">4 (1): 0</text>
</a>
</g>
</g>
<!-- 0&#45;&gt;4 -->
<g id="edge17" class="edge"><title>0&#45;&gt;4</title>
<path fill="none" stroke="black" d="M165.914,-576.765C160.062,-568.23 152.76,-557.582 146.203,-548.019"/>
<polygon fill="black" stroke="black" points="148.994,-545.901 140.452,-539.633 143.221,-549.86 148.994,-545.901"/>
</g>
<!-- 22 -->
<g id="node23" class="node"><title>22</title>
<g id="a_node23"><a xlink:title="22, diversity: 1, multiplicities: 2, labels: 0">
<ellipse fill="#f7fcf5" stroke="black" cx="226.047" cy="-522" rx="41.6928" ry="18"/>
<text text-anchor="middle" x="226.047" y="-518.3" font-family="Times,serif" font-size="14.00">22 (1): 0</text>
</a>
</g>
</g>
<!-- 0&#45;&gt;22 -->
<g id="edge21" class="edge"><title>0&#45;&gt;22</title>
<path fill="none" stroke="black" d="M188.411,-576.765C194.386,-568.23 201.839,-557.582 208.533,-548.019"/>
<polygon fill="black" stroke="black" points="211.536,-549.833 214.403,-539.633 205.801,-545.819 211.536,-549.833"/>
</g>
<!-- 23 -->
<g id="node24" class="node"><title>23</title>
<g id="a_node24"><a xlink:title="23, diversity: 1, multiplicities: 1, labels: 0">
<ellipse fill="#f7fcf5" stroke="black" cx="376.047" cy="-522" rx="41.6928" ry="18"/>
<text text-anchor="middle" x="376.047" y="-518.3" font-family="Times,serif" font-size="14.00">23 (1): 0</text>
</a>
</g>
</g>
<!-- 0&#45;&gt;23 -->
<g id="edge24" class="edge"><title>0&#45;&gt;23</title>
<path fill="none" stroke="black" d="M206.41,-582.671C240.451,-570.697 296.778,-550.883 335.107,-537.401"/>
<polygon fill="black" stroke="black" points="336.65,-540.568 344.922,-533.948 334.327,-533.965 336.65,-540.568"/>
</g>
<!-- 1 -->
<g id="node2" class="node"><title>1</title>
<g id="a_node2"><a xlink:title="1, diversity: 4, multiplicities: 3,10,20,400, labels: 0">
<ellipse fill="#f7fcf5" stroke="black" cx="725.047" cy="-234" rx="37.0935" ry="18"/>
<text text-anchor="middle" x="725.047" y="-230.3" font-family="Times,serif" font-size="14.00">1 (4): 0</text>
</a>
</g>
</g>
<!-- 3 -->
<g id="node4" class="node"><title>3</title>
<g id="a_node4"><a xlink:title="3, diversity: 4, multiplicities: 5,5,8,260, labels: 0">
<ellipse fill="#f7fcf5" stroke="black" cx="125.047" cy="-306" rx="37.0935" ry="18"/>
<text text-anchor="middle" x="125.047" y="-302.3" font-family="Times,serif" font-size="14.00">3 (4): 0</text>
</a>
</g>
</g>
<!-- 10 -->
<g id="node11" class="node"><title>10</title>
<g id="a_node11"><a xlink:title="10, diversity: 1, multiplicities: 2, labels: 0">
<ellipse fill="#f7fcf5" stroke="black" cx="125.047" cy="-450" rx="41.6928" ry="18"/>
<text text-anchor="middle" x="125.047" y="-446.3" font-family="Times,serif" font-size="14.00">10 (1): 0</text>
</a>
</g>
</g>
<!-- 4&#45;&gt;10 -->
<g id="edge3" class="edge"><title>4&#45;&gt;10</title>
<path fill="none" stroke="black" d="M128.058,-503.697C127.617,-495.983 127.087,-486.712 126.596,-478.112"/>
<polygon fill="black" stroke="black" points="130.089,-477.888 126.024,-468.104 123.1,-478.288 130.089,-477.888"/>
</g>
<!-- 5 -->
<g id="node6" class="node"><title>5</title>
<g id="a_node6"><a xlink:title="5, diversity: 1, multiplicities: 9, labels: 0">
<ellipse fill="#f7fcf5" stroke="black" cx="725.047" cy="-306" rx="37.0935" ry="18"/>
<text text-anchor="middle" x="725.047" y="-302.3" font-family="Times,serif" font-size="14.00">5 (1): 0</text>
</a>
</g>
</g>
<!-- 5&#45;&gt;1 -->
<g id="edge6" class="edge"><title>5&#45;&gt;1</title>
<path fill="none" stroke="black" d="M725.047,-287.697C725.047,-279.983 725.047,-270.712 725.047,-262.112"/>
<polygon fill="black" stroke="black" points="728.547,-262.104 725.047,-252.104 721.547,-262.104 728.547,-262.104"/>
</g>
<!-- 6 -->
<g id="node7" class="node"><title>6</title>
<g id="a_node7"><a xlink:title="6, diversity: 1, multiplicities: 5, labels: 0">
<ellipse fill="#f7fcf5" stroke="black" cx="224.047" cy="-18" rx="37.0935" ry="18"/>
<text text-anchor="middle" x="224.047" y="-14.3" font-family="Times,serif" font-size="14.00">6 (1): 0</text>
</a>
</g>
</g>
<!-- 7 -->
<g id="node8" class="node"><title>7</title>
<g id="a_node8"><a xlink:title="7, diversity: 2, multiplicities: 1,19, labels: 0">
<ellipse fill="#f7fcf5" stroke="black" cx="512.047" cy="-450" rx="37.0935" ry="18"/>
<text text-anchor="middle" x="512.047" y="-446.3" font-family="Times,serif" font-size="14.00">7 (2): 0</text>
</a>
</g>
</g>
<!-- 8 -->
<g id="node9" class="node"><title>8</title>
<g id="a_node9"><a xlink:title="8, diversity: 1, multiplicities: 11, labels: 0">
<ellipse fill="#f7fcf5" stroke="black" cx="439.047" cy="-378" rx="37.0935" ry="18"/>
<text text-anchor="middle" x="439.047" y="-374.3" font-family="Times,serif" font-size="14.00">8 (1): 0</text>
</a>
</g>
</g>
<!-- 7&#45;&gt;8 -->
<g id="edge30" class="edge"><title>7&#45;&gt;8</title>
<path fill="none" stroke="black" d="M495.846,-433.465C486.111,-424.13 473.552,-412.087 462.72,-401.7"/>
<polygon fill="black" stroke="black" points="464.843,-398.887 455.202,-394.492 459.998,-403.939 464.843,-398.887"/>
</g>
<!-- 12 -->
<g id="node13" class="node"><title>12</title>
<g id="a_node13"><a xlink:title="12, diversity: 1, multiplicities: 1, labels: 0">
<ellipse fill="#f7fcf5" stroke="black" cx="586.047" cy="-378" rx="41.6928" ry="18"/>
<text text-anchor="middle" x="586.047" y="-374.3" font-family="Times,serif" font-size="14.00">12 (1): 0</text>
</a>
</g>
</g>
<!-- 7&#45;&gt;12 -->
<g id="edge4" class="edge"><title>7&#45;&gt;12</title>
<path fill="none" stroke="black" d="M528.47,-433.465C538.364,-424.105 551.137,-412.022 562.138,-401.616"/>
<polygon fill="black" stroke="black" points="564.554,-404.149 569.414,-394.734 559.744,-399.063 564.554,-404.149"/>
</g>
<!-- 19 -->
<g id="node20" class="node"><title>19</title>
<g id="a_node20"><a xlink:title="19, diversity: 1, multiplicities: 4, labels: 0">
<ellipse fill="#f7fcf5" stroke="black" cx="712.047" cy="-378" rx="41.6928" ry="18"/>
<text text-anchor="middle" x="712.047" y="-374.3" font-family="Times,serif" font-size="14.00">19 (1): 0</text>
</a>
</g>
</g>
<!-- 7&#45;&gt;19 -->
<g id="edge16" class="edge"><title>7&#45;&gt;19</title>
<path fill="none" stroke="black" d="M541.128,-438.821C575.24,-426.882 632.036,-407.004 670.714,-393.466"/>
<polygon fill="black" stroke="black" points="672.338,-396.606 680.621,-389.999 670.026,-389.999 672.338,-396.606"/>
</g>
<!-- 13 -->
<g id="node14" class="node"><title>13</title>
<g id="a_node14"><a xlink:title="13, diversity: 1, multiplicities: 1, labels: 0">
<ellipse fill="#f7fcf5" stroke="black" cx="325.047" cy="-306" rx="41.6928" ry="18"/>
<text text-anchor="middle" x="325.047" y="-302.3" font-family="Times,serif" font-size="14.00">13 (1): 0</text>
</a>
</g>
</g>
<!-- 8&#45;&gt;13 -->
<g id="edge2" class="edge"><title>8&#45;&gt;13</title>
<path fill="none" stroke="black" d="M417.066,-363.503C399.975,-353.008 376.024,-338.302 356.842,-326.523"/>
<polygon fill="black" stroke="black" points="358.487,-323.426 348.133,-321.176 354.824,-329.391 358.487,-323.426"/>
</g>
<!-- 14 -->
<g id="node15" class="node"><title>14</title>
<g id="a_node15"><a xlink:title="14, diversity: 1, multiplicities: 5, labels: 0">
<ellipse fill="#f7fcf5" stroke="black" cx="426.047" cy="-306" rx="41.6928" ry="18"/>
<text text-anchor="middle" x="426.047" y="-302.3" font-family="Times,serif" font-size="14.00">14 (1): 0</text>
</a>
</g>
</g>
<!-- 8&#45;&gt;14 -->
<g id="edge12" class="edge"><title>8&#45;&gt;14</title>
<path fill="none" stroke="black" d="M435.9,-360.055C434.468,-352.346 432.737,-343.027 431.129,-334.364"/>
<polygon fill="black" stroke="black" points="434.522,-333.468 429.255,-324.275 427.64,-334.746 434.522,-333.468"/>
</g>
<!-- 16 -->
<g id="node17" class="node"><title>16</title>
<g id="a_node17"><a xlink:title="16, diversity: 1, multiplicities: 1, labels: 0">
<ellipse fill="#f7fcf5" stroke="black" cx="527.047" cy="-306" rx="41.6928" ry="18"/>
<text text-anchor="middle" x="527.047" y="-302.3" font-family="Times,serif" font-size="14.00">16 (1): 0</text>
</a>
</g>
</g>
<!-- 8&#45;&gt;16 -->
<g id="edge18" class="edge"><title>8&#45;&gt;16</title>
<path fill="none" stroke="black" d="M457.709,-362.155C469.993,-352.384 486.273,-339.434 499.971,-328.537"/>
<polygon fill="black" stroke="black" points="502.461,-331.03 508.108,-322.065 498.103,-325.551 502.461,-331.03"/>
</g>
<!-- 9 -->
<g id="node10" class="node"><title>9</title>
<g id="a_node10"><a xlink:title="9, diversity: 2, multiplicities: 4,5, labels: 0">
<ellipse fill="#f7fcf5" stroke="black" cx="224.047" cy="-162" rx="37.0935" ry="18"/>
<text text-anchor="middle" x="224.047" y="-158.3" font-family="Times,serif" font-size="14.00">9 (2): 0</text>
</a>
</g>
</g>
<!-- 15 -->
<g id="node16" class="node"><title>15</title>
<g id="a_node16"><a xlink:title="15, diversity: 1, multiplicities: 1, labels: 0">
<ellipse fill="#f7fcf5" stroke="black" cx="224.047" cy="-90" rx="41.6928" ry="18"/>
<text text-anchor="middle" x="224.047" y="-86.3" font-family="Times,serif" font-size="14.00">15 (1): 0</text>
</a>
</g>
</g>
<!-- 9&#45;&gt;15 -->
<g id="edge13" class="edge"><title>9&#45;&gt;15</title>
<path fill="none" stroke="black" d="M224.047,-143.697C224.047,-135.983 224.047,-126.712 224.047,-118.112"/>
<polygon fill="black" stroke="black" points="227.547,-118.104 224.047,-108.104 220.547,-118.104 227.547,-118.104"/>
</g>
<!-- 25 -->
<g id="node26" class="node"><title>25</title>
<g id="a_node26"><a xlink:title="25, diversity: 1, multiplicities: 1, labels: 0">
<ellipse fill="#f7fcf5" stroke="black" cx="125.047" cy="-378" rx="41.6928" ry="18"/>
<text text-anchor="middle" x="125.047" y="-374.3" font-family="Times,serif" font-size="14.00">25 (1): 0</text>
</a>
</g>
</g>
<!-- 10&#45;&gt;25 -->
<g id="edge26" class="edge"><title>10&#45;&gt;25</title>
<path fill="none" stroke="black" d="M125.047,-431.697C125.047,-423.983 125.047,-414.712 125.047,-406.112"/>
<polygon fill="black" stroke="black" points="128.547,-406.104 125.047,-396.104 121.547,-406.104 128.547,-406.104"/>
</g>
<!-- 11 -->
<g id="node12" class="node"><title>11</title>
<g id="a_node12"><a xlink:title="11, diversity: 1, multiplicities: 2, labels: 0">
<ellipse fill="#f7fcf5" stroke="black" cx="226.047" cy="-378" rx="41.6928" ry="18"/>
<text text-anchor="middle" x="226.047" y="-374.3" font-family="Times,serif" font-size="14.00">11 (1): 0</text>
</a>
</g>
</g>
<!-- 20 -->
<g id="node21" class="node"><title>20</title>
<g id="a_node21"><a xlink:title="20, diversity: 1, multiplicities: 1, labels: 0">
<ellipse fill="#f7fcf5" stroke="black" cx="224.047" cy="-306" rx="41.6928" ry="18"/>
<text text-anchor="middle" x="224.047" y="-302.3" font-family="Times,serif" font-size="14.00">20 (1): 0</text>
</a>
</g>
</g>
<!-- 11&#45;&gt;20 -->
<g id="edge29" class="edge"><title>11&#45;&gt;20</title>
<path fill="none" stroke="black" d="M225.552,-359.697C225.332,-351.983 225.067,-342.712 224.821,-334.112"/>
<polygon fill="black" stroke="black" points="228.32,-334 224.535,-324.104 221.323,-334.2 228.32,-334"/>
</g>
<!-- 24 -->
<g id="node25" class="node"><title>24</title>
<g id="a_node25"><a xlink:title="24, diversity: 1, multiplicities: 1, labels: 0">
<ellipse fill="#f7fcf5" stroke="black" cx="628.047" cy="-306" rx="41.6928" ry="18"/>
<text text-anchor="middle" x="628.047" y="-302.3" font-family="Times,serif" font-size="14.00">24 (1): 0</text>
</a>
</g>
</g>
<!-- 12&#45;&gt;24 -->
<g id="edge15" class="edge"><title>12&#45;&gt;24</title>
<path fill="none" stroke="black" d="M596,-360.411C600.949,-352.163 607.041,-342.009 612.581,-332.777"/>
<polygon fill="black" stroke="black" points="615.729,-334.332 617.873,-323.956 609.727,-330.73 615.729,-334.332"/>
</g>
<!-- 27 -->
<g id="node28" class="node"><title>27</title>
<g id="a_node28"><a xlink:title="27, diversity: 1, multiplicities: 1, labels: 0">
<ellipse fill="#f7fcf5" stroke="black" cx="325.047" cy="-234" rx="41.6928" ry="18"/>
<text text-anchor="middle" x="325.047" y="-230.3" font-family="Times,serif" font-size="14.00">27 (1): 0</text>
</a>
</g>
</g>
<!-- 13&#45;&gt;27 -->
<g id="edge8" class="edge"><title>13&#45;&gt;27</title>
<path fill="none" stroke="black" d="M325.047,-287.697C325.047,-279.983 325.047,-270.712 325.047,-262.112"/>
<polygon fill="black" stroke="black" points="328.547,-262.104 325.047,-252.104 321.547,-262.104 328.547,-262.104"/>
</g>
<!-- 15&#45;&gt;6 -->
<g id="edge28" class="edge"><title>15&#45;&gt;6</title>
<path fill="none" stroke="black" d="M224.047,-71.6966C224.047,-63.9827 224.047,-54.7125 224.047,-46.1124"/>
<polygon fill="black" stroke="black" points="227.547,-46.1043 224.047,-36.1043 220.547,-46.1044 227.547,-46.1043"/>
</g>
<!-- 18 -->
<g id="node19" class="node"><title>18</title>
<g id="a_node19"><a xlink:title="18, diversity: 2, multiplicities: 2,9, labels: 0">
<ellipse fill="#f7fcf5" stroke="black" cx="527.047" cy="-234" rx="41.6928" ry="18"/>
<text text-anchor="middle" x="527.047" y="-230.3" font-family="Times,serif" font-size="14.00">18 (2): 0</text>
</a>
</g>
</g>
<!-- 16&#45;&gt;18 -->
<g id="edge19" class="edge"><title>16&#45;&gt;18</title>
<path fill="none" stroke="black" d="M527.047,-287.697C527.047,-279.983 527.047,-270.712 527.047,-262.112"/>
<polygon fill="black" stroke="black" points="530.547,-262.104 527.047,-252.104 523.547,-262.104 530.547,-262.104"/>
</g>
<!-- 17 -->
<g id="node18" class="node"><title>17</title>
<g id="a_node18"><a xlink:title="17, diversity: 1, multiplicities: 2, labels: 0">
<ellipse fill="#f7fcf5" stroke="black" cx="224.047" cy="-234" rx="41.6928" ry="18"/>
<text text-anchor="middle" x="224.047" y="-230.3" font-family="Times,serif" font-size="14.00">17 (1): 0</text>
</a>
</g>
</g>
<!-- 17&#45;&gt;9 -->
<g id="edge25" class="edge"><title>17&#45;&gt;9</title>
<path fill="none" stroke="black" d="M224.047,-215.697C224.047,-207.983 224.047,-198.712 224.047,-190.112"/>
<polygon fill="black" stroke="black" points="227.547,-190.104 224.047,-180.104 220.547,-190.104 227.547,-190.104"/>
</g>
<!-- 19&#45;&gt;5 -->
<g id="edge27" class="edge"><title>19&#45;&gt;5</title>
<path fill="none" stroke="black" d="M715.26,-359.697C716.693,-351.983 718.414,-342.712 720.012,-334.112"/>
<polygon fill="black" stroke="black" points="723.485,-334.575 721.87,-324.104 716.603,-333.297 723.485,-334.575"/>
</g>
<!-- 20&#45;&gt;17 -->
<g id="edge9" class="edge"><title>20&#45;&gt;17</title>
<path fill="none" stroke="black" d="M224.047,-287.697C224.047,-279.983 224.047,-270.712 224.047,-262.112"/>
<polygon fill="black" stroke="black" points="227.547,-262.104 224.047,-252.104 220.547,-262.104 227.547,-262.104"/>
</g>
<!-- 21 -->
<g id="node22" class="node"><title>21</title>
<g id="a_node22"><a xlink:title="21, diversity: 1, multiplicities: 1, labels: 0">
<ellipse fill="#f7fcf5" stroke="black" cx="226.047" cy="-450" rx="41.6928" ry="18"/>
<text text-anchor="middle" x="226.047" y="-446.3" font-family="Times,serif" font-size="14.00">21 (1): 0</text>
</a>
</g>
</g>
<!-- 21&#45;&gt;11 -->
<g id="edge22" class="edge"><title>21&#45;&gt;11</title>
<path fill="none" stroke="black" d="M226.047,-431.697C226.047,-423.983 226.047,-414.712 226.047,-406.112"/>
<polygon fill="black" stroke="black" points="229.547,-406.104 226.047,-396.104 222.547,-406.104 229.547,-406.104"/>
</g>
<!-- 22&#45;&gt;21 -->
<g id="edge20" class="edge"><title>22&#45;&gt;21</title>
<path fill="none" stroke="black" d="M226.047,-503.697C226.047,-495.983 226.047,-486.712 226.047,-478.112"/>
<polygon fill="black" stroke="black" points="229.547,-478.104 226.047,-468.104 222.547,-478.104 229.547,-478.104"/>
</g>
<!-- 23&#45;&gt;7 -->
<g id="edge10" class="edge"><title>23&#45;&gt;7</title>
<path fill="none" stroke="black" d="M401.947,-507.669C423.719,-496.463 454.984,-480.371 478.638,-468.196"/>
<polygon fill="black" stroke="black" points="480.325,-471.264 487.615,-463.575 477.122,-465.04 480.325,-471.264"/>
</g>
<!-- 31 -->
<g id="node32" class="node"><title>31</title>
<g id="a_node32"><a xlink:title="31, diversity: 1, multiplicities: 4, labels: 0">
<ellipse fill="#f7fcf5" stroke="black" cx="628.047" cy="-234" rx="41.6928" ry="18"/>
<text text-anchor="middle" x="628.047" y="-230.3" font-family="Times,serif" font-size="14.00">31 (1): 0</text>
</a>
</g>
</g>
<!-- 24&#45;&gt;31 -->
<g id="edge11" class="edge"><title>24&#45;&gt;31</title>
<path fill="none" stroke="black" d="M628.047,-287.697C628.047,-279.983 628.047,-270.712 628.047,-262.112"/>
<polygon fill="black" stroke="black" points="631.547,-262.104 628.047,-252.104 624.547,-262.104 631.547,-262.104"/>
</g>
<!-- 25&#45;&gt;3 -->
<g id="edge23" class="edge"><title>25&#45;&gt;3</title>
<path fill="none" stroke="black" d="M125.047,-359.697C125.047,-351.983 125.047,-342.712 125.047,-334.112"/>
<polygon fill="black" stroke="black" points="128.547,-334.104 125.047,-324.104 121.547,-334.104 128.547,-334.104"/>
</g>
<!-- 26 -->
<g id="node27" class="node"><title>26</title>
<g id="a_node27"><a xlink:title="26, diversity: 1, multiplicities: 29, labels: 0">
<ellipse fill="#f7fcf5" stroke="black" cx="325.047" cy="-162" rx="41.6928" ry="18"/>
<text text-anchor="middle" x="325.047" y="-158.3" font-family="Times,serif" font-size="14.00">26 (1): 0</text>
</a>
</g>
</g>
<!-- 28 -->
<g id="node29" class="node"><title>28</title>
<g id="a_node29"><a xlink:title="28, diversity: 2, multiplicities: 5,60, labels: 0">
<ellipse fill="#f7fcf5" stroke="black" cx="325.047" cy="-90" rx="41.6928" ry="18"/>
<text text-anchor="middle" x="325.047" y="-86.3" font-family="Times,serif" font-size="14.00">28 (2): 0</text>
</a>
</g>
</g>
<!-- 26&#45;&gt;28 -->
<g id="edge5" class="edge"><title>26&#45;&gt;28</title>
<path fill="none" stroke="black" d="M325.047,-143.697C325.047,-135.983 325.047,-126.712 325.047,-118.112"/>
<polygon fill="black" stroke="black" points="328.547,-118.104 325.047,-108.104 321.547,-118.104 328.547,-118.104"/>
</g>
<!-- 29 -->
<g id="node30" class="node"><title>29</title>
<g id="a_node30"><a xlink:title="29, diversity: 1, multiplicities: 6, labels: 0">
<ellipse fill="#f7fcf5" stroke="black" cx="426.047" cy="-90" rx="41.6928" ry="18"/>
<text text-anchor="middle" x="426.047" y="-86.3" font-family="Times,serif" font-size="14.00">29 (1): 0</text>
</a>
</g>
</g>
<!-- 26&#45;&gt;29 -->
<g id="edge14" class="edge"><title>26&#45;&gt;29</title>
<path fill="none" stroke="black" d="M346.466,-146.155C361.026,-136.064 380.478,-122.583 396.505,-111.474"/>
<polygon fill="black" stroke="black" points="398.779,-114.157 405.004,-105.584 394.792,-108.403 398.779,-114.157"/>
</g>
<!-- 27&#45;&gt;26 -->
<g id="edge1" class="edge"><title>27&#45;&gt;26</title>
<path fill="none" stroke="black" d="M325.047,-215.697C325.047,-207.983 325.047,-198.712 325.047,-190.112"/>
<polygon fill="black" stroke="black" points="328.547,-190.104 325.047,-180.104 321.547,-190.104 328.547,-190.104"/>
</g>
<!-- 30 -->
<g id="node31" class="node"><title>30</title>
<g id="a_node31"><a xlink:title="30, diversity: 1, multiplicities: 16, labels: 0">
<ellipse fill="#f7fcf5" stroke="black" cx="628.047" cy="-162" rx="41.6928" ry="18"/>
<text text-anchor="middle" x="628.047" y="-158.3" font-family="Times,serif" font-size="14.00">30 (1): 0</text>
</a>
</g>
</g>
<!-- 31&#45;&gt;30 -->
<g id="edge7" class="edge"><title>31&#45;&gt;30</title>
<path fill="none" stroke="black" d="M628.047,-215.697C628.047,-207.983 628.047,-198.712 628.047,-190.112"/>
<polygon fill="black" stroke="black" points="631.547,-190.104 628.047,-180.104 624.547,-190.104 631.547,-190.104"/>
</g>
</g>
</svg>
