<?xml version="1.0" encoding="UTF-8" standalone="no"?>
<!DOCTYPE svg PUBLIC "-//W3C//DTD SVG 1.1//EN"
 "http://www.w3.org/Graphics/SVG/1.1/DTD/svg11.dtd">
<!-- Generated by graphviz version 2.38.0 (20140413.2041)
 -->
<!-- Title: %3 Pages: 1 -->
<svg width="444pt" height="332pt"
 viewBox="0.00 0.00 444.00 332.00" xmlns="http://www.w3.org/2000/svg" xmlns:xlink="http://www.w3.org/1999/xlink">
<g id="graph0" class="graph" transform="scale(1 1) rotate(0) translate(4 328)">
<title>%3</title>
<polygon fill="white" stroke="none" points="-4,4 -4,-328 440,-328 440,4 -4,4"/>
<!-- p0 -->
<g id="node1" class="node"><title>p0</title>
<path fill="none" stroke="black" d="M47,-36C47,-36 12,-36 12,-36 6,-36 0,-30 0,-24 0,-24 0,-12 0,-12 0,-6 6,-0 12,-0 12,-0 47,-0 47,-0 53,-0 59,-6 59,-12 59,-12 59,-24 59,-24 59,-30 53,-36 47,-36"/>
<text text-anchor="middle" x="29.5" y="-14.3" font-family="Times,serif" font-size="14.00">path (3)</text>
</g>
<!-- v2 -->
<g id="node2" class="node"><title>v2</title>
<ellipse fill="none" stroke="black" cx="104.5" cy="-18" rx="27" ry="18"/>
<text text-anchor="middle" x="104.5" y="-14.3" font-family="Times,serif" font-size="14.00">2</text>
</g>
<!-- v3 -->
<g id="node3" class="node"><title>v3</title>
<ellipse fill="none" stroke="black" cx="104.5" cy="-90" rx="27" ry="18"/>
<text text-anchor="middle" x="104.5" y="-86.3" font-family="Times,serif" font-size="14.00">3</text>
</g>
<!-- v3&#45;&gt;p0 -->
<g id="edge12" class="edge"><title>v3&#45;&gt;p0</title>
<path fill="none" stroke="black" d="M89.3226,-74.8345C79.5849,-65.7459 66.6898,-53.7105 55.3657,-43.1413"/>
<polygon fill="black" stroke="black" points="57.5338,-40.3772 47.8351,-36.1127 52.7575,-45.4946 57.5338,-40.3772"/>
</g>
<!-- v3&#45;&gt;v2 -->
<g id="edge2" class="edge"><title>v3&#45;&gt;v2</title>
<path fill="none" stroke="black" d="M104.5,-71.6966C104.5,-63.9827 104.5,-54.7125 104.5,-46.1124"/>
<polygon fill="black" stroke="black" points="108,-46.1043 104.5,-36.1043 101,-46.1044 108,-46.1043"/>
</g>
<!-- v14 -->
<g id="node12" class="node"><title>v14</title>
<ellipse fill="none" stroke="black" cx="176.5" cy="-18" rx="27" ry="18"/>
<text text-anchor="middle" x="176.5" y="-14.3" font-family="Times,serif" font-size="14.00">14</text>
</g>
<!-- v3&#45;&gt;v14 -->
<g id="edge11" class="edge"><title>v3&#45;&gt;v14</title>
<path fill="none" stroke="black" d="M119.07,-74.8345C129.25,-64.9376 143.024,-51.5462 154.531,-40.3591"/>
<polygon fill="black" stroke="black" points="156.974,-42.865 161.704,-33.3847 152.095,-37.8461 156.974,-42.865"/>
</g>
<!-- v4 -->
<g id="node4" class="node"><title>v4</title>
<ellipse fill="none" stroke="black" cx="104.5" cy="-162" rx="27" ry="18"/>
<text text-anchor="middle" x="104.5" y="-158.3" font-family="Times,serif" font-size="14.00">4</text>
</g>
<!-- v4&#45;&gt;v3 -->
<g id="edge6" class="edge"><title>v4&#45;&gt;v3</title>
<path fill="none" stroke="black" d="M104.5,-143.697C104.5,-135.983 104.5,-126.712 104.5,-118.112"/>
<polygon fill="black" stroke="black" points="108,-118.104 104.5,-108.104 101,-118.104 108,-118.104"/>
</g>
<!-- v6 -->
<g id="node5" class="node"><title>v6</title>
<ellipse fill="none" stroke="black" cx="179.5" cy="-234" rx="27" ry="18"/>
<text text-anchor="middle" x="179.5" y="-230.3" font-family="Times,serif" font-size="14.00">6</text>
</g>
<!-- v6&#45;&gt;v4 -->
<g id="edge1" class="edge"><title>v6&#45;&gt;v4</title>
<path fill="none" stroke="black" d="M164.323,-218.834C153.649,-208.872 139.181,-195.369 127.147,-184.137"/>
<polygon fill="black" stroke="black" points="129.354,-181.409 119.655,-177.144 124.577,-186.526 129.354,-181.409"/>
</g>
<!-- p2 -->
<g id="node9" class="node"><title>p2</title>
<path fill="none" stroke="black" d="M197,-180C197,-180 162,-180 162,-180 156,-180 150,-174 150,-168 150,-168 150,-156 150,-156 150,-150 156,-144 162,-144 162,-144 197,-144 197,-144 203,-144 209,-150 209,-156 209,-156 209,-168 209,-168 209,-174 203,-180 197,-180"/>
<text text-anchor="middle" x="179.5" y="-158.3" font-family="Times,serif" font-size="14.00">path (2)</text>
</g>
<!-- v6&#45;&gt;p2 -->
<g id="edge7" class="edge"><title>v6&#45;&gt;p2</title>
<path fill="none" stroke="black" d="M179.5,-215.697C179.5,-207.983 179.5,-198.712 179.5,-190.112"/>
<polygon fill="black" stroke="black" points="183,-190.104 179.5,-180.104 176,-190.104 183,-190.104"/>
</g>
<!-- v7 -->
<g id="node6" class="node"><title>v7</title>
<ellipse fill="none" stroke="black" cx="293.5" cy="-234" rx="27" ry="18"/>
<text text-anchor="middle" x="293.5" y="-230.3" font-family="Times,serif" font-size="14.00">7</text>
</g>
<!-- p1 -->
<g id="node7" class="node"><title>p1</title>
<path fill="none" stroke="black" d="M274,-180C274,-180 239,-180 239,-180 233,-180 227,-174 227,-168 227,-168 227,-156 227,-156 227,-150 233,-144 239,-144 239,-144 274,-144 274,-144 280,-144 286,-150 286,-156 286,-156 286,-168 286,-168 286,-174 280,-180 274,-180"/>
<text text-anchor="middle" x="256.5" y="-158.3" font-family="Times,serif" font-size="14.00">path (3)</text>
</g>
<!-- v7&#45;&gt;p1 -->
<g id="edge10" class="edge"><title>v7&#45;&gt;p1</title>
<path fill="none" stroke="black" d="M284.918,-216.765C280.563,-208.525 275.167,-198.317 270.251,-189.016"/>
<polygon fill="black" stroke="black" points="273.319,-187.329 265.551,-180.124 267.13,-190.6 273.319,-187.329"/>
</g>
<!-- v9 -->
<g id="node8" class="node"><title>v9</title>
<ellipse fill="none" stroke="black" cx="331.5" cy="-162" rx="27" ry="18"/>
<text text-anchor="middle" x="331.5" y="-158.3" font-family="Times,serif" font-size="14.00">9</text>
</g>
<!-- v7&#45;&gt;v9 -->
<g id="edge9" class="edge"><title>v7&#45;&gt;v9</title>
<path fill="none" stroke="black" d="M302.313,-216.765C306.918,-208.283 312.655,-197.714 317.821,-188.197"/>
<polygon fill="black" stroke="black" points="321.039,-189.606 322.734,-179.147 314.887,-186.266 321.039,-189.606"/>
</g>
<!-- p3 -->
<g id="node13" class="node"><title>p3</title>
<path fill="none" stroke="black" d="M424,-180C424,-180 389,-180 389,-180 383,-180 377,-174 377,-168 377,-168 377,-156 377,-156 377,-150 383,-144 389,-144 389,-144 424,-144 424,-144 430,-144 436,-150 436,-156 436,-156 436,-168 436,-168 436,-174 430,-180 424,-180"/>
<text text-anchor="middle" x="406.5" y="-158.3" font-family="Times,serif" font-size="14.00">path (2)</text>
</g>
<!-- v7&#45;&gt;p3 -->
<g id="edge4" class="edge"><title>v7&#45;&gt;p3</title>
<path fill="none" stroke="black" d="M312.669,-221.125C328.395,-211.384 351.105,-197.315 370.244,-185.459"/>
<polygon fill="black" stroke="black" points="372.091,-188.433 378.749,-180.191 368.404,-182.482 372.091,-188.433"/>
</g>
<!-- v11 -->
<g id="node10" class="node"><title>v11</title>
<ellipse fill="none" stroke="black" cx="293.5" cy="-306" rx="27" ry="18"/>
<text text-anchor="middle" x="293.5" y="-302.3" font-family="Times,serif" font-size="14.00">11</text>
</g>
<!-- v11&#45;&gt;v6 -->
<g id="edge5" class="edge"><title>v11&#45;&gt;v6</title>
<path fill="none" stroke="black" d="M274.161,-293.125C255.901,-281.913 228.305,-264.968 207.613,-252.263"/>
<polygon fill="black" stroke="black" points="209.287,-249.183 198.933,-246.933 205.624,-255.148 209.287,-249.183"/>
</g>
<!-- v11&#45;&gt;v7 -->
<g id="edge3" class="edge"><title>v11&#45;&gt;v7</title>
<path fill="none" stroke="black" d="M293.5,-287.697C293.5,-279.983 293.5,-270.712 293.5,-262.112"/>
<polygon fill="black" stroke="black" points="297,-262.104 293.5,-252.104 290,-262.104 297,-262.104"/>
</g>
<!-- v13 -->
<g id="node11" class="node"><title>v13</title>
<ellipse fill="none" stroke="black" cx="365.5" cy="-234" rx="27" ry="18"/>
<text text-anchor="middle" x="365.5" y="-230.3" font-family="Times,serif" font-size="14.00">13</text>
</g>
<!-- v11&#45;&gt;v13 -->
<g id="edge8" class="edge"><title>v11&#45;&gt;v13</title>
<path fill="none" stroke="black" d="M308.07,-290.834C318.25,-280.938 332.024,-267.546 343.531,-256.359"/>
<polygon fill="black" stroke="black" points="345.974,-258.865 350.704,-249.385 341.095,-253.846 345.974,-258.865"/>
</g>
</g>
</svg>
